<svg xmlns="http://www.w3.org/2000/svg" xmlns:xlink="http://www.w3.org/1999/xlink" width="334" height="366" viewBox="0 0 334 366">
    <defs>
        <path id="prefix__a" d="M119.467.407c-2.823.622-5.132 2.652-6.989 4.869-2.347 2.804-4.184 6.03-5.412 9.473-3.903 2.161-7.725 4.505-11.474 6.965.111-3.901-.555-7.823-1.968-11.462-.754-1.939-1.734-3.825-3.186-5.314-1.452-1.488-3.424-2.549-5.503-2.584-2.079-.033-4.219 1.095-5.08 2.988-.697 1.535-.497 3.364.2 4.899.698 1.534 1.845 2.816 3.051 3.993 3.42 3.336 7.466 6.02 11.858 7.901-4.404 2.908-8.719 5.955-12.969 9.005-.858.616-1.704 1.25-2.556 1.875l.021-.147c-.057-.027-.113-.059-.171-.087l.033.318c-5.267 3.855-10.435 7.842-15.489 11.971-.846-3.29-2.043-6.492-3.592-9.515-.953-1.859-2.054-3.68-3.588-5.098-1.533-1.419-3.556-2.408-5.644-2.338-2.088.07-4.185 1.355-4.859 3.333-.825 2.419.571 5.038 2.264 6.954 3.737 4.231 9.226 6.845 14.862 7.125-4.833 3.965-9.568 8.05-14.195 12.256-.03-.003-.059-.009-.089-.012l.018.075c-3.859 3.509-7.649 7.094-11.358 10.763-.372.369-.745.742-1.117 1.113-.22-.037-.438-.079-.655-.119.006.134.022.265.025.399l.401-.093.014.025C23.297 82.896 10.337 96.868.258 112.236c-.292.447.389 1.006.735.591 6.947-8.355 13.485-17.013 20.693-25.158 4.965-5.612 10.107-11.067 15.403-16.369l4.601 8.155c.634 1.125 1.283 2.268 2.216 3.161.934.892 2.212 1.516 3.494 1.362 1.929-.23 3.318-2.243 3.275-4.185-.044-1.943-1.244-3.713-2.774-4.911-1.53-1.198-3.372-1.916-5.184-2.617l-4.746-1.837c3.915-3.893 7.917-7.698 12.002-11.413.441 2.852.935 5.703 1.872 8.429.634 1.841 1.497 3.659 2.896 5.016 1.397 1.357 3.41 2.194 5.319 1.801 2.866-.592 4.614-3.905 4.121-6.791-.494-2.885-2.748-5.225-5.346-6.575-2.574-1.338-5.483-1.859-8.343-2.355 4.045-3.666 8.161-7.254 12.363-10.738.629-.523 1.271-1.032 1.904-1.55l2.819 8.662c.611 1.875 1.244 3.795 2.475 5.334 1.232 1.539 3.209 2.64 5.147 2.279 2.245-.419 3.788-2.748 3.851-5.032.062-2.284-1.08-4.453-2.568-6.185-2.777-3.23-6.887-5.248-11.133-5.539 4.796-3.913 9.676-7.723 14.657-11.397l1.208 7.097c.393 2.302.812 4.677 2.094 6.628 1.281 1.951 3.67 3.376 5.932 2.803 2.318-.587 3.756-3.137 3.66-5.527-.096-2.388-1.422-4.573-3.05-6.323-2.391-2.574-5.52-4.447-8.908-5.363 1.794-1.315 3.597-2.62 5.415-3.903 3.026-2.133 6.112-4.173 9.21-6.193.102 4.569 1.146 9.114 3.075 13.257.925 1.988 2.322 4.083 4.485 4.445 2.42.404 4.72-1.767 5.153-4.182.432-2.416-.582-4.876-1.977-6.896-2.354-3.407-5.881-5.972-9.829-7.217 4.104-2.664 8.224-5.301 12.305-8.003 3.526.051 7.06-.463 10.422-1.527 2.212-.7 4.416-1.68 5.993-3.381 1.139-1.229 1.886-2.902 1.89-4.549v-.039c-.002-.621-.111-1.238-.345-1.825-.886-2.222-3.348-3.43-5.771-3.43-.507 0-1.013.053-1.502.161"/>
        <path id="prefix__d" d="M5.367.251C3.484.337 1.54 1.371.87 3.132c-.488 1.281-.241 2.753.379 3.974.62 1.223 1.578 2.236 2.56 3.19 3.955 3.847 8.525 7.059 13.48 9.485-.45-4.343-.99-8.745-2.835-12.692-.851-1.823-1.992-3.543-3.541-4.827C9.443 1.045 7.58.243 5.677.243c-.104 0-.207.003-.31.008"/>
        <path id="prefix__g" d="M4.795.369C2.984.507 1.072 1.53.602 3.284.076 5.24 1.488 7.169 2.98 8.539c3.832 3.522 8.833 5.744 14.012 6.236-.783-3.304-1.628-6.668-3.504-9.495C11.661 2.528 8.625.348 5.354.348c-.186 0-.372.007-.559.021"/>
        <path id="prefix__j" d="M3.035.678C1.763 1.007.592 1.941.263 3.212c-.298 1.146.125 2.388.856 3.32.731.932 1.739 1.603 2.755 2.209 3.996 2.386 8.426 4.035 13.006 4.866C16.568 7.891 12.412 2.558 6.917.92 6.106.678 5.256.511 4.413.511c-.464 0-.926.051-1.378.167"/>
        <path id="prefix__m" d="M80.937.252c-2.754.238-4.809 2.555-6.496 4.744-3.063 3.978-5.955 8.152-7.832 12.807-1.879 4.656-2.693 9.862-1.512 14.741.439 1.815.167.941.136 2.808-.031 1.866-1.09 3.905-2.92 4.277-1.496.305-3.034-.629-3.863-1.913-.829-1.284-.652-.72-.795-2.241-1.26-13.414 5.774-26.752 16.87-34.395-4.806 2.708-11.217.69-16.052 3.347-2.728 1.497-4.513 4.272-5.8 7.106-4.581 10.102-3.929 22.414 1.697 31.974.813 1.38 1.764 2.891 1.07 4.51-.689 1.61-2.579 2.259-4.27 1.801-2.583-.701-3.966-3.146-4.935-5.508-5.188-12.633-.29-31.663 8.185-42.373-3.987 1.15-18.55 8.263-22.233 10.175C16.21 20.407 7.348 31.179 3.897 39.119c-1.708 3.934-5.945 24.65-1.435 34.964 2.214 5.062 14.472 24.659 16.926 27.616 2.453 2.956 5.748 5.11 9.194 6.808 11.815 5.823 26.04 6.546 38.384 1.95-8.049-2.837-13.869-11.079-13.851-19.613.003-1.091.108-2.233.694-3.152.586-.92 1.785-1.53 2.798-1.128 1.418.563 1.562 2.463 1.629 3.986.332 7.685 4.861 15.057 11.566 18.826l4.984-1.502c13.726-3.939 22.182-9.566 32.863-19.043-5.318.009-10.69.014-15.875-1.171-5.184-1.185-10.24-3.681-13.53-7.859-.84-1.068-1.577-2.294-1.68-3.648-.103-1.355.594-2.845 1.876-3.293 1.407-.492 2.896.362 4.142 1.178 3.309 2.168 6.617 4.335 9.925 6.504 4.251 2.786 8.847 5.677 13.928 5.576 3.414-.067 6.774-1.578 9.089-4.086 2.315-2.509 3.553-5.98 3.347-9.387-8.375 3.38-18.156 3.092-26.319-.774-1.127-.535-2.253-1.157-3.047-2.119-.795-.962-1.194-2.337-.711-3.487.564-1.343 2.166-1.997 3.621-1.929 1.455.068 2.814.702 4.152 1.279 5.435 2.343 11.202 3.913 17.074 4.647 3.263.408 6.897.458 9.453-1.611 1.902-1.54 2.842-4.024 3.036-6.465.193-2.44-.275-4.879-.74-7.282-2.824 3.19-6.891 5.249-11.132 5.638-4.242.39-8.615-.895-11.972-3.516-1.398-1.092-2.723-2.756-2.27-4.47.601-2.268 3.603-2.67 5.95-2.613l15.04.37c1.772.044 3.576.084 5.283-.392 1.707-.477 3.335-1.556 4.039-3.184.996-2.304-.066-4.962.193-7.459.342-3.296 3.352-6.027 6.628-6.252l2.774.259c-1.41-2.467-4.265-3.633-6.838-4.84-8.631-4.049-16.163-10.415-21.592-18.253-5.713-.068-10.778 3.893-14.059 8.572-3.279 4.677-5.243 10.135-8.038 15.118-.657 1.172-1.386 2.345-2.459 3.153-1.072.808-2.568 1.18-3.783.608-1.122-.529-1.784-1.755-1.964-2.982-.179-1.227.046-2.473.271-3.693.658-3.564 3.674-10.202 5.922-13.044 3.941-4.988 14.101-9.984 17.126-9.406-6.352-2.426-12.704-4.854-19.056-7.279C84.146.74 82.788.233 81.401.233c-.154 0-.309.006-.464.019M70.553 50.188c-1.356-1.173-1.259-3.265-1.05-5.045.199-1.701.427-3.477 1.402-4.886.974-1.407 2.951-2.281 4.453-1.458 0 0 1.809 1.861 2.01 4.692.138 1.949-.091 3.993-1.306 5.523-.654.823-1.527 1.499-2.542 1.77-.299.08-.612.121-.923.121-.744 0-1.485-.232-2.044-.717m20.674-6.017c-.714-.193-1.326-.831-1.353-1.571-.025-.725.477-1.364 1.035-1.828.779-.649 1.721-1.1 2.715-1.3l.534-.067c.482-.093 1.031.024 1.343.403.291.355.319.871.181 1.308-.141.437-.424.813-.715 1.167-.469.572-.979 1.127-1.614 1.508-.463.279-1.003.457-1.539.457-.198 0-.395-.024-.587-.077M55.9 59.404c-1.069-1.072-1.431-2.709-1.224-4.21.207-1.5.92-2.886 1.753-4.15.881-1.339 2.211-2.713 3.801-2.508 1.413.182 2.39 1.625 2.532 3.042 0 0-.309 3.239-.236 4.317.112 1.661-.544 3.427-2.015 4.207-.551.291-1.172.432-1.794.432-1.038 0-2.082-.392-2.817-1.13m29.238-3.175c-1.237-.224-2.443-1.144-2.574-2.395-.082-.788.277-1.579.829-2.145.553-.566 1.282-.932 2.031-1.189 2.083-.713 4.429-.625 6.454.241.677.29 1.332.675 1.805 1.24.472.566.741 1.335.579 2.054-.203.895-1.031 1.542-1.913 1.796 0 0-2.969.563-4.099.607-.317.013-.594.02-.849.02-.759 0-1.337-.062-2.263-.229m-3.529 11.23c-2.317-.259-4.579-.997-6.602-2.155-.649-.37-1.289-.798-1.728-1.402-.439-.605-.65-1.421-.374-2.117.318-.802 1.209-1.259 2.071-1.317 0 0 1.819.19 2.429.192 2.281.007 4.607.683 6.24 2.276.516.501.972 1.089 1.177 1.779.205.69.12 1.494-.348 2.039-.5.584-1.287.753-2.079.753-.265 0-.53-.019-.786-.048m-12.203 7.987c-.964-.267-1.928-.594-2.746-1.169-.819-.574-1.484-1.43-1.636-2.419-.151-.988.303-2.094 1.202-2.532.882-.429 1.946-.157 2.826.278 1.226.608 2.3 1.524 3.093 2.642l.374.625c.379.543.536 1.287.238 1.879-.279.554-.901.872-1.517.939-.106.012-.211.017-.316.017-.512 0-1.022-.123-1.518-.26m-5.293 11.559c-4.105-.946-7.548-4.332-8.563-8.419-.398-1.601-.366-3.501.816-4.651 1.255-1.222 3.376-1.095 4.874-.19 1.497.907 2.516 2.41 3.487 3.866l2.243 3.244c.598.681 1.203 1.375 1.575 2.202.373.826.481 1.819.072 2.627-.548 1.085-1.787 1.489-3.051 1.489-.493 0-.991-.061-1.453-.168m-24.124 6.374c-1.186-.687-1.975-1.945-2.293-3.279-.319-1.333-.206-2.738.098-4.075.615-2.708 2.035-5.221 4.004-7.176 1.646-1.632 4.434-1.367 5.708.569l.07.107c.489.76.787 1.638.869 2.539.282 3.094.281 6.779-1.666 9.411-1.082 1.462-2.914 2.452-4.681 2.452-.734 0-1.456-.17-2.109-.548"/>
        <path id="prefix__o" d="M.734 4.328c0 2.329 1.889 4.218 4.219 4.218s4.219-1.889 4.219-4.218c0-2.331-1.889-4.219-4.219-4.219S.734 1.997.734 4.328"/>
        <path id="prefix__r" d="M.227 3.324c0 1.631 1.322 2.953 2.953 2.953 1.631 0 2.953-1.322 2.953-2.953C6.133 1.693 4.811.371 3.18.371 1.549.371.227 1.693.227 3.324"/>
        <path id="prefix__u" d="M0.942 0.23L137.929 0.23 137.929 152.935 0.942 152.935z"/>
        <path id="prefix__w" d="M69.89.23C31.291.23 0 34.424 0 76.602c0 42.18 31.291 76.372 69.89 76.372 38.601 0 69.891-34.192 69.891-76.372C139.781 34.424 108.491.23 69.89.23z"/>
        <linearGradient id="prefix__b" x1="28.596%" x2="72.742%" y1="40.724%" y2="61.346%">
            <stop offset="0%" stop-color="#FFB218"/>
            <stop offset="100%" stop-color="#FFCF44"/>
        </linearGradient>
        <linearGradient id="prefix__e" x1="13.1%" x2="99.36%" y1="18.049%" y2="71.19%">
            <stop offset="0%" stop-color="#FFB218"/>
            <stop offset="100%" stop-color="#FFCF44"/>
        </linearGradient>
        <linearGradient id="prefix__h" x1="2.217%" x2="109.127%" y1="23.902%" y2="73.051%">
            <stop offset="0%" stop-color="#FFB218"/>
            <stop offset="100%" stop-color="#FFCF44"/>
        </linearGradient>
        <linearGradient id="prefix__k" x1="3.087%" x2="107.002%" y1="27.442%" y2="70.259%">
            <stop offset="0%" stop-color="#FFB218"/>
            <stop offset="100%" stop-color="#FFCF44"/>
        </linearGradient>
        <linearGradient id="prefix__p" x1=".006%" x2="99.996%" y1="49.998%" y2="49.998%">
            <stop offset="0%" stop-color="#FFB218"/>
            <stop offset="100%" stop-color="#FFCF44"/>
        </linearGradient>
        <linearGradient id="prefix__s" x1="0%" x2="100.001%" y1="49.995%" y2="49.995%">
            <stop offset="0%" stop-color="#FFB218"/>
            <stop offset="100%" stop-color="#FFCF44"/>
        </linearGradient>
    </defs>
    <g fill="none" fill-rule="evenodd">
        <g>
            <path fill="#306B34" d="M34.43 275.248S6.79 257.797 6.284 217.994l12.046-1.85L.79 187.322c-2.102-3.44 12.602-41.566 19.56-59.283C37.484 84.416 56.023 57.06 58.674 53.092 70.005 36.12 97.72-9.164 129.401 2.35c0 0 20.18 14.52 19.44 35.194L121.147 54.34l24.703 3.099s10.424 38.576-1.816 62.254c-12.242 23.68-12.507 21.36-12.507 21.36L96.64 136.86l34.392 17.974s-4.454 10.38-1.033 15.63c3.42 5.25-13.904 32.988-13.904 32.988l-19.13 1.246 13.044 9.262s-4.299 40.382-25.556 56.47C55.61 292.26 32.35 281.37 34.43 275.249" transform="translate(103 78.77)"/>
            <path fill="#619440" d="M34.28 282.181l95.122-279.83s1.254.902 3.126 2.578c5.636 5.045 16.868 17.098 16.313 32.615L121.147 54.34l29.074 3.58s4.751 31.893-.955 56.613c-5.854 25.353-9.144 29.417-9.144 29.417l-43.482-7.089 40.998 20.688s-4.817 12.061-6.02 15.632c-2.002 5.937-13.088 33.881-13.088 33.881L96.966 204.7l19.486 10.59s-10.74 39.053-31.999 55.142C55.611 292.26 32.2 288.302 34.28 282.181" transform="translate(103 78.77)"/>
        </g>
        <g transform="translate(206 168.77)">
            <mask id="prefix__c" fill="#fff">
                <use xlink:href="#prefix__a"/>
            </mask>
            <path fill="url(#prefix__b)" d="M119.467.407c-2.823.622-5.132 2.652-6.989 4.869-2.347 2.804-4.184 6.03-5.412 9.473-3.903 2.161-7.725 4.505-11.474 6.965.111-3.901-.555-7.823-1.968-11.462-.754-1.939-1.734-3.825-3.186-5.314-1.452-1.488-3.424-2.549-5.503-2.584-2.079-.033-4.219 1.095-5.08 2.988-.697 1.535-.497 3.364.2 4.899.698 1.534 1.845 2.816 3.051 3.993 3.42 3.336 7.466 6.02 11.858 7.901-4.404 2.908-8.719 5.955-12.969 9.005-.858.616-1.704 1.25-2.556 1.875l.021-.147c-.057-.027-.113-.059-.171-.087l.033.318c-5.267 3.855-10.435 7.842-15.489 11.971-.846-3.29-2.043-6.492-3.592-9.515-.953-1.859-2.054-3.68-3.588-5.098-1.533-1.419-3.556-2.408-5.644-2.338-2.088.07-4.185 1.355-4.859 3.333-.825 2.419.571 5.038 2.264 6.954 3.737 4.231 9.226 6.845 14.862 7.125-4.833 3.965-9.568 8.05-14.195 12.256-.03-.003-.059-.009-.089-.012l.018.075c-3.859 3.509-7.649 7.094-11.358 10.763-.372.369-.745.742-1.117 1.113-.22-.037-.438-.079-.655-.119.006.134.022.265.025.399l.401-.093.014.025C23.297 82.896 10.337 96.868.258 112.236c-.292.447.389 1.006.735.591 6.947-8.355 13.485-17.013 20.693-25.158 4.965-5.612 10.107-11.067 15.403-16.369l4.601 8.155c.634 1.125 1.283 2.268 2.216 3.161.934.892 2.212 1.516 3.494 1.362 1.929-.23 3.318-2.243 3.275-4.185-.044-1.943-1.244-3.713-2.774-4.911-1.53-1.198-3.372-1.916-5.184-2.617l-4.746-1.837c3.915-3.893 7.917-7.698 12.002-11.413.441 2.852.935 5.703 1.872 8.429.634 1.841 1.497 3.659 2.896 5.016 1.397 1.357 3.41 2.194 5.319 1.801 2.866-.592 4.614-3.905 4.121-6.791-.494-2.885-2.748-5.225-5.346-6.575-2.574-1.338-5.483-1.859-8.343-2.355 4.045-3.666 8.161-7.254 12.363-10.738.629-.523 1.271-1.032 1.904-1.55l2.819 8.662c.611 1.875 1.244 3.795 2.475 5.334 1.232 1.539 3.209 2.64 5.147 2.279 2.245-.419 3.788-2.748 3.851-5.032.062-2.284-1.08-4.453-2.568-6.185-2.777-3.23-6.887-5.248-11.133-5.539 4.796-3.913 9.676-7.723 14.657-11.397l1.208 7.097c.393 2.302.812 4.677 2.094 6.628 1.281 1.951 3.67 3.376 5.932 2.803 2.318-.587 3.756-3.137 3.66-5.527-.096-2.388-1.422-4.573-3.05-6.323-2.391-2.574-5.52-4.447-8.908-5.363 1.794-1.315 3.597-2.62 5.415-3.903 3.026-2.133 6.112-4.173 9.21-6.193.102 4.569 1.146 9.114 3.075 13.257.925 1.988 2.322 4.083 4.485 4.445 2.42.404 4.72-1.767 5.153-4.182.432-2.416-.582-4.876-1.977-6.896-2.354-3.407-5.881-5.972-9.829-7.217 4.104-2.664 8.224-5.301 12.305-8.003 3.526.051 7.06-.463 10.422-1.527 2.212-.7 4.416-1.68 5.993-3.381 1.139-1.229 1.886-2.902 1.89-4.549v-.039c-.002-.621-.111-1.238-.345-1.825-.886-2.222-3.348-3.43-5.771-3.43-.507 0-1.013.053-1.502.161" mask="url(#prefix__c)"/>
        </g>
        <g transform="translate(268 181.77)">
            <mask id="prefix__f" fill="#fff">
                <use xlink:href="#prefix__d"/>
            </mask>
            <path fill="url(#prefix__e)" d="M5.367.251C3.484.337 1.54 1.371.87 3.132c-.488 1.281-.241 2.753.379 3.974.62 1.223 1.578 2.236 2.56 3.19 3.955 3.847 8.525 7.059 13.48 9.485-.45-4.343-.99-8.745-2.835-12.692-.851-1.823-1.992-3.543-3.541-4.827C9.443 1.045 7.58.243 5.677.243c-.104 0-.207.003-.31.008" mask="url(#prefix__f)"/>
        </g>
        <g transform="translate(238 211.77)">
            <mask id="prefix__i" fill="#fff">
                <use xlink:href="#prefix__g"/>
            </mask>
            <path fill="url(#prefix__h)" d="M4.795.369C2.984.507 1.072 1.53.602 3.284.076 5.24 1.488 7.169 2.98 8.539c3.832 3.522 8.833 5.744 14.012 6.236-.783-3.304-1.628-6.668-3.504-9.495C11.661 2.528 8.625.348 5.354.348c-.186 0-.372.007-.559.021" mask="url(#prefix__i)"/>
        </g>
        <g transform="translate(225 224.77)">
            <mask id="prefix__l" fill="#fff">
                <use xlink:href="#prefix__j"/>
            </mask>
            <path fill="url(#prefix__k)" d="M3.035.678C1.763 1.007.592 1.941.263 3.212c-.298 1.146.125 2.388.856 3.32.731.932 1.739 1.603 2.755 2.209 3.996 2.386 8.426 4.035 13.006 4.866C16.568 7.891 12.412 2.558 6.917.92 6.106.678 5.256.511 4.413.511c-.464 0-.926.051-1.378.167" mask="url(#prefix__l)"/>
        </g>
        <g transform="translate(188 244.77)">
            <mask id="prefix__n" fill="#fff">
                <use xlink:href="#prefix__m"/>
            </mask>
            <path fill="#FFBF4D" d="M80.937.252c-2.754.238-4.809 2.555-6.496 4.744-3.063 3.978-5.955 8.152-7.832 12.807-1.879 4.656-2.693 9.862-1.512 14.741.439 1.815.167.941.136 2.808-.031 1.866-1.09 3.905-2.92 4.277-1.496.305-3.034-.629-3.863-1.913-.829-1.284-.652-.72-.795-2.241-1.26-13.414 5.774-26.752 16.87-34.395-4.806 2.708-11.217.69-16.052 3.347-2.728 1.497-4.513 4.272-5.8 7.106-4.581 10.102-3.929 22.414 1.697 31.974.813 1.38 1.764 2.891 1.07 4.51-.689 1.61-2.579 2.259-4.27 1.801-2.583-.701-3.966-3.146-4.935-5.508-5.188-12.633-.29-31.663 8.185-42.373-3.987 1.15-18.55 8.263-22.233 10.175C16.21 20.407 7.348 31.179 3.897 39.119c-1.708 3.934-5.945 24.65-1.435 34.964 2.214 5.062 14.472 24.659 16.926 27.616 2.453 2.956 5.748 5.11 9.194 6.808 11.815 5.823 26.04 6.546 38.384 1.95-8.049-2.837-13.869-11.079-13.851-19.613.003-1.091.108-2.233.694-3.152.586-.92 1.785-1.53 2.798-1.128 1.418.563 1.562 2.463 1.629 3.986.332 7.685 4.861 15.057 11.566 18.826l4.984-1.502c13.726-3.939 22.182-9.566 32.863-19.043-5.318.009-10.69.014-15.875-1.171-5.184-1.185-10.24-3.681-13.53-7.859-.84-1.068-1.577-2.294-1.68-3.648-.103-1.355.594-2.845 1.876-3.293 1.407-.492 2.896.362 4.142 1.178 3.309 2.168 6.617 4.335 9.925 6.504 4.251 2.786 8.847 5.677 13.928 5.576 3.414-.067 6.774-1.578 9.089-4.086 2.315-2.509 3.553-5.98 3.347-9.387-8.375 3.38-18.156 3.092-26.319-.774-1.127-.535-2.253-1.157-3.047-2.119-.795-.962-1.194-2.337-.711-3.487.564-1.343 2.166-1.997 3.621-1.929 1.455.068 2.814.702 4.152 1.279 5.435 2.343 11.202 3.913 17.074 4.647 3.263.408 6.897.458 9.453-1.611 1.902-1.54 2.842-4.024 3.036-6.465.193-2.44-.275-4.879-.74-7.282-2.824 3.19-6.891 5.249-11.132 5.638-4.242.39-8.615-.895-11.972-3.516-1.398-1.092-2.723-2.756-2.27-4.47.601-2.268 3.603-2.67 5.95-2.613l15.04.37c1.772.044 3.576.084 5.283-.392 1.707-.477 3.335-1.556 4.039-3.184.996-2.304-.066-4.962.193-7.459.342-3.296 3.352-6.027 6.628-6.252l2.774.259c-1.41-2.467-4.265-3.633-6.838-4.84-8.631-4.049-16.163-10.415-21.592-18.253-5.713-.068-10.778 3.893-14.059 8.572-3.279 4.677-5.243 10.135-8.038 15.118-.657 1.172-1.386 2.345-2.459 3.153-1.072.808-2.568 1.18-3.783.608-1.122-.529-1.784-1.755-1.964-2.982-.179-1.227.046-2.473.271-3.693.658-3.564 3.674-10.202 5.922-13.044 3.941-4.988 14.101-9.984 17.126-9.406-6.352-2.426-12.704-4.854-19.056-7.279C84.146.74 82.788.233 81.401.233c-.154 0-.309.006-.464.019M70.553 50.188c-1.356-1.173-1.259-3.265-1.05-5.045.199-1.701.427-3.477 1.402-4.886.974-1.407 2.951-2.281 4.453-1.458 0 0 1.809 1.861 2.01 4.692.138 1.949-.091 3.993-1.306 5.523-.654.823-1.527 1.499-2.542 1.77-.299.08-.612.121-.923.121-.744 0-1.485-.232-2.044-.717m20.674-6.017c-.714-.193-1.326-.831-1.353-1.571-.025-.725.477-1.364 1.035-1.828.779-.649 1.721-1.1 2.715-1.3l.534-.067c.482-.093 1.031.024 1.343.403.291.355.319.871.181 1.308-.141.437-.424.813-.715 1.167-.469.572-.979 1.127-1.614 1.508-.463.279-1.003.457-1.539.457-.198 0-.395-.024-.587-.077M55.9 59.404c-1.069-1.072-1.431-2.709-1.224-4.21.207-1.5.92-2.886 1.753-4.15.881-1.339 2.211-2.713 3.801-2.508 1.413.182 2.39 1.625 2.532 3.042 0 0-.309 3.239-.236 4.317.112 1.661-.544 3.427-2.015 4.207-.551.291-1.172.432-1.794.432-1.038 0-2.082-.392-2.817-1.13m29.238-3.175c-1.237-.224-2.443-1.144-2.574-2.395-.082-.788.277-1.579.829-2.145.553-.566 1.282-.932 2.031-1.189 2.083-.713 4.429-.625 6.454.241.677.29 1.332.675 1.805 1.24.472.566.741 1.335.579 2.054-.203.895-1.031 1.542-1.913 1.796 0 0-2.969.563-4.099.607-.317.013-.594.02-.849.02-.759 0-1.337-.062-2.263-.229m-3.529 11.23c-2.317-.259-4.579-.997-6.602-2.155-.649-.37-1.289-.798-1.728-1.402-.439-.605-.65-1.421-.374-2.117.318-.802 1.209-1.259 2.071-1.317 0 0 1.819.19 2.429.192 2.281.007 4.607.683 6.24 2.276.516.501.972 1.089 1.177 1.779.205.69.12 1.494-.348 2.039-.5.584-1.287.753-2.079.753-.265 0-.53-.019-.786-.048m-12.203 7.987c-.964-.267-1.928-.594-2.746-1.169-.819-.574-1.484-1.43-1.636-2.419-.151-.988.303-2.094 1.202-2.532.882-.429 1.946-.157 2.826.278 1.226.608 2.3 1.524 3.093 2.642l.374.625c.379.543.536 1.287.238 1.879-.279.554-.901.872-1.517.939-.106.012-.211.017-.316.017-.512 0-1.022-.123-1.518-.26m-5.293 11.559c-4.105-.946-7.548-4.332-8.563-8.419-.398-1.601-.366-3.501.816-4.651 1.255-1.222 3.376-1.095 4.874-.19 1.497.907 2.516 2.41 3.487 3.866l2.243 3.244c.598.681 1.203 1.375 1.575 2.202.373.826.481 1.819.072 2.627-.548 1.085-1.787 1.489-3.051 1.489-.493 0-.991-.061-1.453-.168m-24.124 6.374c-1.186-.687-1.975-1.945-2.293-3.279-.319-1.333-.206-2.738.098-4.075.615-2.708 2.035-5.221 4.004-7.176 1.646-1.632 4.434-1.367 5.708.569l.07.107c.489.76.787 1.638.869 2.539.282 3.094.281 6.779-1.666 9.411-1.082 1.462-2.914 2.452-4.681 2.452-.734 0-1.456-.17-2.109-.548" mask="url(#prefix__n)"/>
        </g>
        <path fill="#306B34" d="M64.79 338.355c0 3.53-2.862 6.392-6.392 6.392-3.53 0-6.392-2.862-6.392-6.392 0-3.53 2.862-6.392 6.392-6.392 3.53 0 6.392 2.862 6.392 6.392"/>
        <g transform="translate(39 325.77)">
            <mask id="prefix__q" fill="#fff">
                <use xlink:href="#prefix__o"/>
            </mask>
            <path fill="url(#prefix__p)" d="M.734 4.328c0 2.329 1.889 4.218 4.219 4.218s4.219-1.889 4.219-4.218c0-2.331-1.889-4.219-4.219-4.219S.734 1.997.734 4.328" mask="url(#prefix__q)"/>
        </g>
        <g transform="translate(51 318.77)">
            <mask id="prefix__t" fill="#fff">
                <use xlink:href="#prefix__r"/>
            </mask>
            <path fill="url(#prefix__s)" d="M.227 3.324c0 1.631 1.322 2.953 2.953 2.953 1.631 0 2.953-1.322 2.953-2.953C6.133 1.693 4.811.371 3.18.371 1.549.371.227 1.693.227 3.324" mask="url(#prefix__t)"/>
        </g>
        <g transform="translate(14 .77)">
            <mask id="prefix__v" fill="#fff">
                <use xlink:href="#prefix__u"/>
            </mask>
            <path fill="#FF9A2E" d="M137.93 77.543c0 37.36-24.573 67.238-53.793 73.894-6.371 1.45-22.514 1.498-27.243 1.498C19.066 152.935.94 120.24.94 77.543.941 34.843 19.826.23 57.654.23c5.151 0 21.657 2.127 26.483 3.345 30.614 7.719 53.792 37.084 53.792 73.968" mask="url(#prefix__v)"/>
            <path fill="#FFE2B7" d="M103.8 133.018c-.87 0-1.573-.769-1.573-1.718s.704-1.719 1.573-1.719h15.294c3.187-3.72 6.056-7.814 8.539-12.227h-16.057c-.87 0-1.572-.77-1.572-1.719 0-.949.703-1.719 1.572-1.719h17.879c1.93-3.87 3.574-7.956 4.882-12.228h-17.358c-.87 0-1.573-.77-1.573-1.718 0-.949.704-1.719 1.573-1.719h18.33c1.347-5.209 2.199-10.667 2.493-16.315H118.64c-.87 0-1.572-.77-1.572-1.719 0-.949.703-1.719 1.572-1.719h19.27c.004-.319.02-.634.02-.956 0-6.793-.792-13.327-2.266-19.52h-17.837c-.87 0-1.573-.77-1.573-1.72 0-.949.704-1.718 1.573-1.718h16.946c-1.817-6.377-4.381-12.35-7.565-17.828h-17.07c-.868 0-1.571-.769-1.571-1.717 0-.95.703-1.719 1.572-1.719h14.94c-2.223-3.396-4.697-6.572-7.392-9.505h-15.754c-.87 0-1.573-.77-1.573-1.719 0-.948.704-1.718 1.573-1.718h12.39c-8.505-8.096-18.832-13.94-30.185-16.803C79.31 2.357 62.806.23 57.655.23 19.825.23.942 34.843.942 77.542c0 42.7 18.124 75.392 55.952 75.392 4.729 0 20.872-.047 27.244-1.498 11.81-2.69 22.86-9.179 31.838-18.418H103.8z"/>
            <path fill="#EF7F18" d="M116.254 56.302c0 .95.704 1.72 1.573 1.72h17.837c-.275-1.158-.57-2.306-.891-3.438h-16.946c-.87 0-1.573.77-1.573 1.718"/>
            <path fill="#FDC63B" d="M108.566 35.039c0 .948.703 1.718 1.572 1.718h17.07c-.68-1.17-1.392-2.314-2.129-3.437h-14.94c-.87 0-1.573.77-1.573 1.719M100.36 22.096c0 .95.704 1.72 1.573 1.72h15.754c-1.088-1.186-2.206-2.335-3.364-3.438h-12.39c-.87 0-1.573.77-1.573 1.718"/>
            <path fill="#EF7F18" d="M117.068 80.217c0 .95.703 1.72 1.572 1.72h19.162c.059-1.14.095-2.285.108-3.439h-19.27c-.87 0-1.572.77-1.572 1.72M115.406 99.97c0 .948.704 1.718 1.573 1.718h17.358c.347-1.134.673-2.279.973-3.437h-18.331c-.87 0-1.573.77-1.573 1.72"/>
            <path fill="#FDC63B" d="M110.004 115.635c0 .95.703 1.72 1.572 1.72h16.057c.633-1.127 1.24-2.273 1.822-3.439h-17.88c-.868 0-1.571.77-1.571 1.72M102.227 131.3c0 .95.704 1.718 1.573 1.718h12.176c1.072-1.104 2.106-2.255 3.118-3.437H103.8c-.87 0-1.573.77-1.573 1.72"/>
        </g>
        <g transform="translate(0 .77)">
            <mask id="prefix__x" fill="#fff">
                <use xlink:href="#prefix__w"/>
            </mask>
            <path fill="#FFBF4D" d="M69.89.23C31.291.23 0 34.424 0 76.602c0 42.18 31.291 76.372 69.89 76.372 38.601 0 69.891-34.192 69.891-76.372C139.781 34.424 108.491.23 69.89.23z" mask="url(#prefix__x)"/>
        </g>
        <g>
            <path fill="#FFE2B7" d="M80.618 12.466c2.403 0 4.354-2.627 4.354-5.862 0-3.236-1.951-5.862-4.354-5.862h-43.54c-2.404 0-4.355 2.626-4.355 5.862 0 3.235 1.952 5.862 4.355 5.862h17.415c5.67 0 10.458 4.912 12.261 11.723H37.077c-2.402 0-4.353 2.627-4.353 5.863 0 3.234 1.95 5.86 4.354 5.86h29.676c-1.803 6.813-6.592 11.726-12.26 11.726H37.078c-.567 0-1.133.151-1.664.445-1.063.598-1.916 1.736-2.36 3.177-.444 1.43-.444 3.049 0 4.477.218.728.54 1.373.95 1.913l34.822 46.883c.855 1.15 1.969 1.724 3.084 1.724s2.228-.575 3.083-1.713c1.698-2.285 1.698-6.001 0-8.287L47.589 59.36h6.904c10.52 0 19.306-10.082 21.327-23.448h4.798c2.403 0 4.354-2.627 4.354-5.861 0-3.236-1.951-5.863-4.354-5.863H75.82c-.653-4.361-2.1-8.3-4.023-11.723h8.82z" transform="translate(11 25.77)"/>
            <path fill="#A29C8F" d="M77.88 138.08c-2.871-1.473-20.28-20.353-7.972-32.438 0 0-1.306-4.582 4.7-7.543 6.006-2.962 11 3.249 11.447 4.223.448.974-5.971 35.759-7.073 35.759H77.88z" transform="translate(11 25.77)"/>
            <path fill="#FFD399" d="M3.622 98.12c1.216-1.881 4.132-1.94 4.627-.124.059.213-.005 1.177-.072 1.987-.053.64-.11 1.185-.11 1.185s1.745-2.11 2.235-1.672c.49.436-.91 1.672-1.27 2.363-.361.692-2.176 5.68-3.97 4.046 0 0-3.196-5.07-1.44-7.785" transform="translate(11 25.77)"/>
            <path fill="#FFD399" d="M8.162 96.175s-.717-.508-1.029.687c0 0-.24-1.894-1.067-1.844-.897.053-1.158 1.798-1.364 2.082 0 0 .106-1.13-.417-.689-.524.442-1.378 2.53-1.204 3.545.175 1.017 5.042.636 5.042.636s.413-3.557.04-4.417" transform="translate(11 25.77)"/>
            <path fill="#7F786A" d="M80.579 337.327c-.438-1.641 4.694-4.098 7.808-5.005-.817.603-1.803 1.456-.428 1.74 2.012.418 6.29-.52 7.465-2.037.559 1.028.786 2.492.847 3.505.079 1.307-15.403 2.879-15.692 1.797" transform="translate(11 25.77)"/>
            <path fill="#FFD399" d="M87.959 334.063c-1.375-.285-1.857-1.194.175-1.679 1.813-.43 3.262-1.208 3.582-1.38.838-.448 1.058-1.85 1.058-1.85l1.652-.164s.837 2.737.998 3.035c-1.175 1.517-5.453 2.455-7.465 2.038" transform="translate(11 25.77)"/>
            <path fill="#7F786A" d="M188.916 328.99c-1.83 0-2.572-5.675-2.543-8.92.34.957.874 2.148 1.543.913.98-1.806 1.313-6.174.2-7.736 1.145-.24 2.612-.034 3.6.199 1.274.3-1.68 15.543-2.8 15.544" transform="translate(11 25.77)"/>
            <path fill="#FFD399" d="M187.916 320.983c-.669 1.234-1.679 1.434-1.557-.65.11-1.862-.217-3.473-.29-3.829-.188-.932-1.468-1.546-1.468-1.546l.32-1.629s2.862-.013 3.194-.082c1.114 1.562.78 5.929-.199 7.736" transform="translate(11 25.77)"/>
            <path fill="#7F786A" d="M107.81 159.165c11.872-4.21 18.143-1.871 18.143-1.871 46.444 13.698 15.316 102.363 15.316 102.363s44.832 50.698 45.438 51.262c.554.515 2.355 6.345-2.127 5.833-.38-.043-1.282-.526-1.6-.736-5.341-3.53-59.195-36.624-67.111-44.935-10.316-10.83-7.21-74.38-7.21-74.38l-.848-37.536z" transform="translate(11 25.77)"/>
            <path fill="#FFD399" d="M77.097 120.69s3.344 8.847 4.34 9.504c.998.657 3.502.883 3.478-1.766-.024-2.647-4.934-9.303-4.934-9.303l-2.884 1.564z" transform="translate(11 25.77)"/>
            <path fill="#E5BD8C" d="M79.696 127.052c1.485.114 3.211-.313 4.137-1.807-.773-1.525-1.809-3.155-2.616-4.352l-3.337 1.81c.5 1.263 1.172 2.912 1.816 4.35" transform="translate(11 25.77)"/>
            <path fill="#FFD399" d="M71.087 118.193c-.246-.979.505-4.34 1.222-7.132.593-2.316 2.985-3.681 5.285-3.028 3.566 1.01 7.45 2.338 8.368 3.288 1.437 1.492.93 3.933.593 5.757-.336 1.82-1.592 4.959-3.02 6.234-1.303 1.166-4.481 1.755-6.122 1.361-4.93-1.184-6.056-2.774-6.326-6.48M133.775 25.886c.674.122 1.344-.192 1.636-.727.81-1.484 2.435-4.72 2.04-6.18-.52-1.927-2.626-5.576-3.541-5.37-.915.203-.485 4.414-.416 5.356.062.86-3.253 6.28.28 6.921" transform="translate(11 25.77)"/>
            <path fill="#A29C8F" d="M53.957 239.536c14.338-61.124 53.854-80.371 53.854-80.371 5.354-.19 12.152 3.157 12.152 3.157 28.588 29.24-9.896 52.037-9.896 52.037l-28.094 34.297s15.298 79.999 15.64 80.519c.328.496-6.033.929-6.088.937-.13-1.445-40.641-77.475-37.568-90.576" transform="translate(11 25.77)"/>
            <path fill="#F5EFE4" d="M131.02 25.09c-3.884.651-6.963 5.166-7.212 7.952-.113 1.26 7.258 73.86-16.073 83.655-13.167 5.53-8.178 5.358-45.01 20.007-8.764 3.487-23.767 7.411-28.537 4.648L15.045 106.6c-.572-1.09-1.62-1.856-2.838-2.043-5.063-.78-17.134.14-9.926 19.425 3.419 9.144 14.604 28.845 24.482 30.972 6.5 1.4 8.32.292 38.099-6.444 0 0 9.45 11.768 25.432 23.835 20.286-.905 34.317-14.35 35.659-15.052.04-1.403-7.557-27.594-10.33-31.4 0 0 22.843-11.392 29.277-46.67 3.7-20.294 12.048-58.486-13.88-54.133" transform="translate(11 25.77)"/>
            <path fill="#E7E1D3" d="M131.02 25.09c-3.884.651-6.963 5.166-7.212 7.952-.113 1.26 7.258 73.86-16.073 83.655-5.704 2.395-8 3.72-11.765 5.644-2.718 1.39 8.533 8.675 15.32 19.41 5.519 8.728 8.187 20.343 8.187 20.343s6.012-4.558 6.476-4.8c.04-1.404-7.557-27.595-10.33-31.402 0 0 22.843-11.39 29.277-46.67 3.7-20.292 12.048-58.484-13.88-54.132" transform="translate(11 25.77)"/>
            <path fill="#7F786A" d="M77.097 101.452c-.29 1.819-4.434 6.339-1.831 9.636 2.602 3.297 5.715 4.388 7.145 5.245 0 0-3.317 6.886 1.422 13.509 4.74 6.624 11.064 4.208 11.064 4.208s-2.27 17.776 10.422 22.595c12.692 4.82 25.178-6.154 24.511-16.894-.667-10.741-6.668-18.87-15.42-18.834 0 0-2.934-11.114-14.641-9.596 0 0-.67-18.9-16.909-12.531 0 0-5.04-1.91-5.763 2.662" transform="translate(11 25.77)"/>
            <path fill="#7F786A" d="M98.39 104.8c-.636-1.454-1.438-2.84-2.486-4.007-1.033-1.18-2.386-2.03-3.84-2.509-1.463-.477-3.033-.53-4.561-.328-1.54.191-3.02.718-4.474 1.264-.097.037-.201.04-.296.014l-.032-.01-.647-.183-.017-.004c-.041-.012-.082-.03-.117-.05-1.201-.704-2.546-1.172-3.907-1.181-1.368-.025-2.684.413-3.883 1.148-1.197.706-2.302 1.604-2.974 2.77-.717 1.108-.998 2.56-.745 3.773l.007.038c.038.18-.024.36-.144.48-1.663 1.642-2.978 3.638-3.653 5.868-.677 2.228-.764 4.624-.397 6.96.36 2.344 1.164 4.614 2.15 6.795.989 2.186 2.227 4.261 3.577 6.264-1.523-1.875-2.862-3.907-4.002-6.054-1.132-2.151-2.005-4.457-2.481-6.873-.474-2.405-.49-4.965.233-7.366.697-2.407 2.09-4.575 3.84-6.34l-.136.515c-.364-1.644-.017-3.27.817-4.628.818-1.368 2.08-2.352 3.39-3.103 1.29-.775 2.856-1.29 4.42-1.234 1.572.03 3.072.584 4.37 1.367l-.133-.054.751.224-.328.003c1.532-.521 3.089-1.007 4.722-1.154 1.62-.156 3.296-.04 4.841.529 1.547.558 2.901 1.582 3.897 2.848 1.011 1.26 1.73 2.714 2.239 4.218" transform="translate(11 25.77)"/>
        </g>
    </g>
</svg>
