<svg xmlns="http://www.w3.org/2000/svg" xmlns:xlink="http://www.w3.org/1999/xlink" width="334" height="366" viewBox="0 0 334 366"><defs/><defs><path id="a" d="M119.5.4c-2.9.6-5.2 2.7-7 4.9a31 31 0 00-5.4 9.4 179 179 0 00-11.5 7c.1-3.9-.6-7.8-2-11.4-.7-2-1.7-3.9-3.2-5.4A8 8 0 0085 2.4c-2 0-4.2 1-5 3a6 6 0 00.2 4.8c.7 1.6 1.8 2.9 3 4a39 39 0 0011.9 8c-4.4 2.8-8.8 5.9-13 9L79.4 33V33l-.1-.1v.3c-5.2 3.9-10.4 7.8-15.5 12a46 46 0 00-3.6-9.5 18 18 0 00-3.5-5.1A8.1 8.1 0 0051 28c-2 0-4.2 1.4-4.8 3.4-.9 2.4.5 5 2.2 7 3.8 4.1 9.2 6.8 14.9 7-4.9 4-9.6 8-14.2 12.3H49c-3.8 3.6-7.6 7.1-11.3 10.8l-1.2 1.1H36v.3h.4c-13 12.9-26 26.9-36 42.2-.3.5.3 1 .7.6 7-8.3 13.5-17 20.7-25.1 5-5.6 10-11.1 15.4-16.4l4.6 8.2c.6 1 1.3 2.2 2.2 3.1 1 1 2.2 1.5 3.5 1.4 2-.3 3.3-2.3 3.3-4.2 0-2-1.3-3.7-2.8-5-1.5-1.1-3.4-1.8-5.2-2.5L38 70.4c3.9-3.9 7.9-7.7 12-11.4.4 2.9 1 5.7 1.8 8.4.7 1.9 1.5 3.7 3 5a6.1 6.1 0 005.3 1.9c2.8-.6 4.6-4 4-6.8-.4-3-2.7-5.3-5.3-6.6a28.4 28.4 0 00-8.3-2.4c4-3.6 8.2-7.2 12.4-10.7l1.9-1.5 2.8 8.6c.6 1.9 1.2 3.8 2.5 5.3 1.2 1.6 3.2 2.7 5.1 2.3 2.2-.4 3.8-2.7 3.9-5 0-2.3-1.1-4.5-2.6-6.2a16.3 16.3 0 00-11.1-5.5C70 41.8 75 38 80 34.4l1.2 7a17 17 0 002.1 6.7c1.3 2 3.7 3.4 6 2.8 2.3-.6 3.7-3.1 3.6-5.5-.1-2.4-1.4-4.6-3-6.3a19 19 0 00-9-5.4 371.4 371.4 0 0114.7-10.1c0 4.6 1.1 9.1 3 13.3 1 2 2.4 4 4.5 4.4 2.4.4 4.7-1.8 5.2-4.2.4-2.4-.6-4.9-2-6.9a19 19 0 00-9.8-7.2l12.3-8c3.5 0 7-.5 10.4-1.5 2.2-.7 4.4-1.7 6-3.4a7 7 0 001.9-4.6 5 5 0 00-.4-1.8C126 1.5 123.4.2 121 .2l-1.5.2"/><path id="d" d="M5.4.3C3.4.3 1.5 1.3.9 3a5 5 0 00.3 4c.7 1.2 1.6 2.2 2.6 3.2 4 3.8 8.5 7 13.5 9.5-.5-4.4-1-8.8-2.8-12.7-.9-1.8-2-3.6-3.6-4.8a8.4 8.4 0 00-5.5-2"/><path id="g" d="M4.8.4C3 .5 1 1.5.6 3.3c-.5 2 .9 3.9 2.4 5.2 3.8 3.6 8.8 5.8 14 6.3-.8-3.3-1.6-6.7-3.5-9.5-1.8-2.8-4.9-5-8.1-5h-.6"/><path id="j" d="M3 .7C1.8 1 .6 1.9.3 3.2A4 4 0 001 6.5C1.8 7.5 3 8.1 4 8.7c4 2.4 8.4 4 13 5-.3-5.8-4.5-11.1-10-12.8C6.1.7 5.3.5 4.4.5c-.5 0-1 0-1.4.2"/><path id="m" d="M81 .3C78.1.5 76 2.8 74.3 5c-3 4-6 8.1-7.8 12.8a24.4 24.4 0 00-1.5 14.7c.4 1.9.2 1 .1 2.9 0 1.8-1 3.9-2.9 4.2-1.5.3-3-.6-3.8-1.9-.9-1.3-.7-.7-.8-2.2A38.4 38.4 0 0174.5 1c-4.8 2.7-11.2.7-16 3.3a14.7 14.7 0 00-5.8 7.1 35.4 35.4 0 001.7 32c.8 1.4 1.7 2.9 1 4.5-.6 1.6-2.5 2.3-4.2 1.8-2.6-.7-4-3.1-5-5.5C41 31.7 46 12.6 54.4 2c-4 1.2-18.5 8.3-22.2 10.2-16 8.3-24.9 19-28.3 27-1.7 4-6 24.7-1.4 35 2.2 5 14.4 24.6 16.9 27.6 2.4 3 5.7 5.1 9.2 6.8 11.8 5.8 26 6.6 38.4 2C59 107.6 53 99.4 53 90.8c0-1 .1-2.2.7-3.1.6-1 1.8-1.5 2.8-1.1 1.4.5 1.6 2.4 1.6 4 .4 7.6 4.9 15 11.6 18.8l5-1.5c13.7-4 22.2-9.6 32.8-19-5.3 0-10.6 0-15.8-1.2a23.7 23.7 0 01-13.6-7.9 7 7 0 01-1.6-3.6c-.1-1.4.6-2.9 1.8-3.3 1.4-.5 3 .3 4.2 1.1l10 6.5c4.2 2.8 8.8 5.7 13.8 5.6 3.4 0 6.8-1.6 9.1-4 2.3-2.6 3.6-6 3.4-9.5-8.4 3.4-18.2 3.1-26.3-.7a8.6 8.6 0 01-3.1-2.1c-.8-1-1.2-2.4-.7-3.5.6-1.4 2.2-2 3.6-2 1.5.1 2.8.7 4.2 1.3a63 63 0 0017 4.7c3.3.4 7 .4 9.5-1.6 1.9-1.6 2.8-4 3-6.5.2-2.5-.2-4.9-.7-7.3a17.1 17.1 0 01-11.1 5.6c-4.3.4-8.7-.9-12-3.5-1.4-1-2.7-2.7-2.3-4.4.6-2.3 3.6-2.7 6-2.7l15 .4c1.8 0 3.6.1 5.3-.4a6 6 0 004-3.2c1-2.3 0-5 .2-7.4.4-3.3 3.4-6 6.6-6.3l2.8.3c-1.4-2.5-4.2-3.6-6.8-4.9a54.6 54.6 0 01-21.6-18.2c-5.7 0-10.8 3.9-14 8.6-3.3 4.6-5.3 10.1-8.1 15a9.8 9.8 0 01-2.5 3.2c-1 .8-2.5 1.2-3.7.6-1.2-.5-1.8-1.7-2-3-.2-1.2 0-2.4.3-3.6.6-3.6 3.6-10.2 5.9-13 4-5 14-10 17.1-9.5l-19-7.3a11.6 11.6 0 00-4.6-1m-10.3 50c-1.4-1.2-1.3-3.3-1.1-5 .2-1.8.4-3.5 1.4-5 1-1.4 3-2.2 4.5-1.4 0 0 1.8 1.9 2 4.7.1 2-.1 4-1.3 5.5a5 5 0 01-2.6 1.8l-.9.1c-.7 0-1.5-.2-2-.7m20.6-6c-.7-.2-1.3-.9-1.3-1.6 0-.7.5-1.4 1-1.8.8-.7 1.7-1.1 2.7-1.3h.6c.4-.2 1 0 1.3.3.3.4.3.9.2 1.3l-.7 1.2c-.5.6-1 1.1-1.6 1.5a3 3 0 01-1.6.4h-.6M56 59.4a5 5 0 01-1.2-4.2c.2-1.5.9-2.9 1.7-4.2 1-1.3 2.2-2.7 3.8-2.5 1.4.2 2.4 1.7 2.6 3l-.3 4.4c.1 1.7-.5 3.4-2 4.2-.5.3-1.2.4-1.8.4-1 0-2-.4-2.8-1.1m29.2-3.2c-1.2-.2-2.4-1.1-2.5-2.4-.1-.8.2-1.5.8-2.1.5-.6 1.3-1 2-1.2 2.1-.7 4.5-.6 6.5.2.7.3 1.3.7 1.8 1.3.5.5.7 1.3.6 2-.2 1-1 1.6-2 1.8 0 0-3 .6-4 .6h-.9c-.8 0-1.3 0-2.3-.2m-3.5 11.3c-2.3-.3-4.6-1-6.6-2.2-.6-.4-1.3-.8-1.7-1.4-.5-.6-.7-1.4-.4-2.1.3-.8 1.2-1.3 2-1.3l2.5.2a9 9 0 016.2 2.2c.6.5 1 1.1 1.2 1.8.2.7.1 1.5-.3 2-.5.6-1.3.8-2.1.8a7 7 0 01-.8 0m-12.2 8c-1-.3-2-.6-2.7-1.2a3.8 3.8 0 01-1.7-2.4c-.1-1 .3-2.1 1.2-2.6 1-.4 2-.1 2.9.3 1.2.6 2.3 1.5 3 2.6l.4.7c.4.5.6 1.3.3 1.9-.3.5-1 .8-1.6.9H71l-1.5-.3M64.1 87c-4-1-7.5-4.3-8.5-8.4-.4-1.6-.4-3.5.8-4.7 1.2-1.2 3.3-1 4.8-.2a12 12 0 013.5 4l2.3 3.2c.6.6 1.2 1.3 1.5 2.2a3 3 0 01.1 2.6c-.5 1-1.8 1.5-3 1.5-.5 0-1 0-1.5-.2M40 93.4c-1.2-.7-2-2-2.3-3.3a9 9 0 010-4c.7-2.8 2.1-5.3 4.1-7.3a3.7 3.7 0 015.7.6v.1c.6.8.9 1.7 1 2.6.2 3 .2 6.7-1.7 9.4a6 6 0 01-4.7 2.4c-.7 0-1.5-.1-2.1-.5"/><path id="o" d="M.7 4.3a4.2 4.2 0 108.5 0 4.2 4.2 0 00-8.5 0"/><path id="r" d="M.2 3.3a3 3 0 106 0 3 3 0 00-6 0"/><path id="u" d="M1 .2h137V153H1z"/><path id="w" d="M69.9.2C31.3.2 0 34.4 0 76.6S31.3 153 69.9 153c38.6 0 69.9-34.2 69.9-76.4S108.5.2 69.8.2z"/><linearGradient id="b" x1="28.6%" x2="72.7%" y1="40.7%" y2="61.3%"><stop offset="0%" stop-color="#FFB218"/><stop offset="100%" stop-color="#FFCF44"/></linearGradient><linearGradient id="e" x1="13.1%" x2="99.4%" y1="18%" y2="71.2%"><stop offset="0%" stop-color="#FFB218"/><stop offset="100%" stop-color="#FFCF44"/></linearGradient><linearGradient id="h" x1="2.2%" x2="109.1%" y1="23.9%" y2="73.1%"><stop offset="0%" stop-color="#FFB218"/><stop offset="100%" stop-color="#FFCF44"/></linearGradient><linearGradient id="k" x1="3.1%" x2="107%" y1="27.4%" y2="70.3%"><stop offset="0%" stop-color="#FFB218"/><stop offset="100%" stop-color="#FFCF44"/></linearGradient><linearGradient id="p" x1="0%" x2="100%" y1="50%" y2="50%"><stop offset="0%" stop-color="#FFB218"/><stop offset="100%" stop-color="#FFCF44"/></linearGradient><linearGradient id="s" x1="0%" x2="100%" y1="50%" y2="50%"><stop offset="0%" stop-color="#FFB218"/><stop offset="100%" stop-color="#FFCF44"/></linearGradient></defs><g fill="none" fill-rule="evenodd"><path fill="#306B34" d="M137.4 354s-27.6-17.4-28.1-57.2l12-1.9-17.5-28.8c-2.1-3.4 12.6-41.6 19.6-59.3 17-43.6 35.6-71 38.3-75 11.3-17 39-62.2 70.7-50.7 0 0 20.2 14.5 19.4 35.2l-27.7 16.8 24.8 3.1s10.4 38.6-1.9 62.3c-12.2 23.6-12.5 21.3-12.5 21.3l-34.9-4.2 34.4 18s-4.4 10.4-1 15.6c3.4 5.3-13.9 33-13.9 33l-19.1 1.3 13 9.2s-4.3 40.4-25.5 56.5c-28.9 21.8-52.1 11-50 4.8"/><path fill="#619440" d="M137.3 361L232.4 81s1.3 1 3.1 2.6c5.7 5 16.9 17.1 16.3 32.6l-27.7 16.8 29.1 3.6s4.8 31.9-1 56.6c-5.8 25.4-9 29.4-9 29.4l-43.6-7 41 20.6s-4.8 12-6 15.7c-2 5.9-13 33.8-13 33.8l-21.6-2.3 19.5 10.6s-10.8 39-32 55.1c-28.9 21.8-52.3 17.9-50.2 11.8"/><g transform="translate(206 168.8)"><mask id="c" fill="#fff"><use xlink:href="#a"/></mask><path fill="url(#b)" d="M119.5.4c-2.9.6-5.2 2.7-7 4.9a31 31 0 00-5.4 9.4 179 179 0 00-11.5 7c.1-3.9-.6-7.8-2-11.4-.7-2-1.7-3.9-3.2-5.4A8 8 0 0085 2.4c-2 0-4.2 1-5 3a6 6 0 00.2 4.8c.7 1.6 1.8 2.9 3 4a39 39 0 0011.9 8c-4.4 2.8-8.8 5.9-13 9L79.4 33V33l-.1-.1v.3c-5.2 3.9-10.4 7.8-15.5 12a46 46 0 00-3.6-9.5 18 18 0 00-3.5-5.1A8.1 8.1 0 0051 28c-2 0-4.2 1.4-4.8 3.4-.9 2.4.5 5 2.2 7 3.8 4.1 9.2 6.8 14.9 7-4.9 4-9.6 8-14.2 12.3H49c-3.8 3.6-7.6 7.1-11.3 10.8l-1.2 1.1H36v.3h.4c-13 12.9-26 26.9-36 42.2-.3.5.3 1 .7.6 7-8.3 13.5-17 20.7-25.1 5-5.6 10-11.1 15.4-16.4l4.6 8.2c.6 1 1.3 2.2 2.2 3.1 1 1 2.2 1.5 3.5 1.4 2-.3 3.3-2.3 3.3-4.2 0-2-1.3-3.7-2.8-5-1.5-1.1-3.4-1.8-5.2-2.5L38 70.4c3.9-3.9 7.9-7.7 12-11.4.4 2.9 1 5.7 1.8 8.4.7 1.9 1.5 3.7 3 5a6.1 6.1 0 005.3 1.9c2.8-.6 4.6-4 4-6.8-.4-3-2.7-5.3-5.3-6.6a28.4 28.4 0 00-8.3-2.4c4-3.6 8.2-7.2 12.4-10.7l1.9-1.5 2.8 8.6c.6 1.9 1.2 3.8 2.5 5.3 1.2 1.6 3.2 2.7 5.1 2.3 2.2-.4 3.8-2.7 3.9-5 0-2.3-1.1-4.5-2.6-6.2a16.3 16.3 0 00-11.1-5.5C70 41.8 75 38 80 34.4l1.2 7a17 17 0 002.1 6.7c1.3 2 3.7 3.4 6 2.8 2.3-.6 3.7-3.1 3.6-5.5-.1-2.4-1.4-4.6-3-6.3a19 19 0 00-9-5.4 371.4 371.4 0 0114.7-10.1c0 4.6 1.1 9.1 3 13.3 1 2 2.4 4 4.5 4.4 2.4.4 4.7-1.8 5.2-4.2.4-2.4-.6-4.9-2-6.9a19 19 0 00-9.8-7.2l12.3-8c3.5 0 7-.5 10.4-1.5 2.2-.7 4.4-1.7 6-3.4a7 7 0 001.9-4.6 5 5 0 00-.4-1.8C126 1.5 123.4.2 121 .2l-1.5.2" mask="url(#c)"/></g><g transform="translate(268 181.8)"><mask id="f" fill="#fff"><use xlink:href="#d"/></mask><path fill="url(#e)" d="M5.4.3C3.4.3 1.5 1.3.9 3a5 5 0 00.3 4c.7 1.2 1.6 2.2 2.6 3.2 4 3.8 8.5 7 13.5 9.5-.5-4.4-1-8.8-2.8-12.7-.9-1.8-2-3.6-3.6-4.8a8.4 8.4 0 00-5.5-2" mask="url(#f)"/></g><g transform="translate(238 211.8)"><mask id="i" fill="#fff"><use xlink:href="#g"/></mask><path fill="url(#h)" d="M4.8.4C3 .5 1 1.5.6 3.3c-.5 2 .9 3.9 2.4 5.2 3.8 3.6 8.8 5.8 14 6.3-.8-3.3-1.6-6.7-3.5-9.5-1.8-2.8-4.9-5-8.1-5h-.6" mask="url(#i)"/></g><g transform="translate(225 224.8)"><mask id="l" fill="#fff"><use xlink:href="#j"/></mask><path fill="url(#k)" d="M3 .7C1.8 1 .6 1.9.3 3.2A4 4 0 001 6.5C1.8 7.5 3 8.1 4 8.7c4 2.4 8.4 4 13 5-.3-5.8-4.5-11.1-10-12.8C6.1.7 5.3.5 4.4.5c-.5 0-1 0-1.4.2" mask="url(#l)"/></g><g transform="translate(188 244.8)"><mask id="n" fill="#fff"><use xlink:href="#m"/></mask><path fill="#FFBF4D" d="M81 .3C78.1.5 76 2.8 74.3 5c-3 4-6 8.1-7.8 12.8a24.4 24.4 0 00-1.5 14.7c.4 1.9.2 1 .1 2.9 0 1.8-1 3.9-2.9 4.2-1.5.3-3-.6-3.8-1.9-.9-1.3-.7-.7-.8-2.2A38.4 38.4 0 0174.5 1c-4.8 2.7-11.2.7-16 3.3a14.7 14.7 0 00-5.8 7.1 35.4 35.4 0 001.7 32c.8 1.4 1.7 2.9 1 4.5-.6 1.6-2.5 2.3-4.2 1.8-2.6-.7-4-3.1-5-5.5C41 31.7 46 12.6 54.4 2c-4 1.2-18.5 8.3-22.2 10.2-16 8.3-24.9 19-28.3 27-1.7 4-6 24.7-1.4 35 2.2 5 14.4 24.6 16.9 27.6 2.4 3 5.7 5.1 9.2 6.8 11.8 5.8 26 6.6 38.4 2C59 107.6 53 99.4 53 90.8c0-1 .1-2.2.7-3.1.6-1 1.8-1.5 2.8-1.1 1.4.5 1.6 2.4 1.6 4 .4 7.6 4.9 15 11.6 18.8l5-1.5c13.7-4 22.2-9.6 32.8-19-5.3 0-10.6 0-15.8-1.2a23.7 23.7 0 01-13.6-7.9 7 7 0 01-1.6-3.6c-.1-1.4.6-2.9 1.8-3.3 1.4-.5 3 .3 4.2 1.1l10 6.5c4.2 2.8 8.8 5.7 13.8 5.6 3.4 0 6.8-1.6 9.1-4 2.3-2.6 3.6-6 3.4-9.5-8.4 3.4-18.2 3.1-26.3-.7a8.6 8.6 0 01-3.1-2.1c-.8-1-1.2-2.4-.7-3.5.6-1.4 2.2-2 3.6-2 1.5.1 2.8.7 4.2 1.3a63 63 0 0017 4.7c3.3.4 7 .4 9.5-1.6 1.9-1.6 2.8-4 3-6.5.2-2.5-.2-4.9-.7-7.3a17.1 17.1 0 01-11.1 5.6c-4.3.4-8.7-.9-12-3.5-1.4-1-2.7-2.7-2.3-4.4.6-2.3 3.6-2.7 6-2.7l15 .4c1.8 0 3.6.1 5.3-.4a6 6 0 004-3.2c1-2.3 0-5 .2-7.4.4-3.3 3.4-6 6.6-6.3l2.8.3c-1.4-2.5-4.2-3.6-6.8-4.9a54.6 54.6 0 01-21.6-18.2c-5.7 0-10.8 3.9-14 8.6-3.3 4.6-5.3 10.1-8.1 15a9.8 9.8 0 01-2.5 3.2c-1 .8-2.5 1.2-3.7.6-1.2-.5-1.8-1.7-2-3-.2-1.2 0-2.4.3-3.6.6-3.6 3.6-10.2 5.9-13 4-5 14-10 17.1-9.5l-19-7.3a11.6 11.6 0 00-4.6-1m-10.3 50c-1.4-1.2-1.3-3.3-1.1-5 .2-1.8.4-3.5 1.4-5 1-1.4 3-2.2 4.5-1.4 0 0 1.8 1.9 2 4.7.1 2-.1 4-1.3 5.5a5 5 0 01-2.6 1.8l-.9.1c-.7 0-1.5-.2-2-.7m20.6-6c-.7-.2-1.3-.9-1.3-1.6 0-.7.5-1.4 1-1.8.8-.7 1.7-1.1 2.7-1.3h.6c.4-.2 1 0 1.3.3.3.4.3.9.2 1.3l-.7 1.2c-.5.6-1 1.1-1.6 1.5a3 3 0 01-1.6.4h-.6M56 59.4a5 5 0 01-1.2-4.2c.2-1.5.9-2.9 1.7-4.2 1-1.3 2.2-2.7 3.8-2.5 1.4.2 2.4 1.7 2.6 3l-.3 4.4c.1 1.7-.5 3.4-2 4.2-.5.3-1.2.4-1.8.4-1 0-2-.4-2.8-1.1m29.2-3.2c-1.2-.2-2.4-1.1-2.5-2.4-.1-.8.2-1.5.8-2.1.5-.6 1.3-1 2-1.2 2.1-.7 4.5-.6 6.5.2.7.3 1.3.7 1.8 1.3.5.5.7 1.3.6 2-.2 1-1 1.6-2 1.8 0 0-3 .6-4 .6h-.9c-.8 0-1.3 0-2.3-.2m-3.5 11.3c-2.3-.3-4.6-1-6.6-2.2-.6-.4-1.3-.8-1.7-1.4-.5-.6-.7-1.4-.4-2.1.3-.8 1.2-1.3 2-1.3l2.5.2a9 9 0 016.2 2.2c.6.5 1 1.1 1.2 1.8.2.7.1 1.5-.3 2-.5.6-1.3.8-2.1.8a7 7 0 01-.8 0m-12.2 8c-1-.3-2-.6-2.7-1.2a3.8 3.8 0 01-1.7-2.4c-.1-1 .3-2.1 1.2-2.6 1-.4 2-.1 2.9.3 1.2.6 2.3 1.5 3 2.6l.4.7c.4.5.6 1.3.3 1.9-.3.5-1 .8-1.6.9H71l-1.5-.3M64.1 87c-4-1-7.5-4.3-8.5-8.4-.4-1.6-.4-3.5.8-4.7 1.2-1.2 3.3-1 4.8-.2a12 12 0 013.5 4l2.3 3.2c.6.6 1.2 1.3 1.5 2.2a3 3 0 01.1 2.6c-.5 1-1.8 1.5-3 1.5-.5 0-1 0-1.5-.2M40 93.4c-1.2-.7-2-2-2.3-3.3a9 9 0 010-4c.7-2.8 2.1-5.3 4.1-7.3a3.7 3.7 0 015.7.6v.1c.6.8.9 1.7 1 2.6.2 3 .2 6.7-1.7 9.4a6 6 0 01-4.7 2.4c-.7 0-1.5-.1-2.1-.5" mask="url(#n)"/></g><path fill="#306B34" d="M64.8 338.4a6.4 6.4 0 11-12.8 0 6.4 6.4 0 0112.8 0"/><g transform="translate(39 325.8)"><mask id="q" fill="#fff"><use xlink:href="#o"/></mask><path fill="url(#p)" d="M.7 4.3a4.2 4.2 0 108.5 0 4.2 4.2 0 00-8.5 0" mask="url(#q)"/></g><g transform="translate(51 318.8)"><mask id="t" fill="#fff"><use xlink:href="#r"/></mask><path fill="url(#s)" d="M.2 3.3a3 3 0 106 0 3 3 0 00-6 0" mask="url(#t)"/></g><g transform="translate(14 .8)"><mask id="v" fill="#fff"><use xlink:href="#u"/></mask><path fill="#FF9A2E" d="M138 77.5c0 37.4-24.6 67.3-53.9 74-6.3 1.4-22.5 1.4-27.2 1.4-37.8 0-56-32.7-56-75.4S20 .2 57.7.2C62.8.2 79.3 2.4 84 3.6c30.7 7.7 53.8 37 53.8 74" mask="url(#v)"/><path fill="#FFE2B7" d="M103.8 133c-.9 0-1.6-.8-1.6-1.7s.7-1.7 1.6-1.7h15.3c3.2-3.7 6-7.8 8.5-12.2h-16c-.9 0-1.6-.8-1.6-1.8s.7-1.7 1.6-1.7h17.9c1.9-3.9 3.5-8 4.8-12.2H117c-.9 0-1.6-.8-1.6-1.7 0-1 .7-1.7 1.6-1.7h18.3a82.2 82.2 0 002.5-16.4h-19.2c-.8 0-1.5-.7-1.5-1.7s.7-1.7 1.5-1.7H138v-1c0-6.8-.8-13.3-2.2-19.5h-17.9c-.8 0-1.5-.7-1.5-1.7s.7-1.7 1.5-1.7h17a78 78 0 00-7.6-17.8h-17c-1 0-1.6-.8-1.6-1.8s.7-1.7 1.5-1.7h15a73.7 73.7 0 00-7.4-9.5h-15.8c-.8 0-1.5-.8-1.5-1.7 0-1 .7-1.7 1.5-1.7h12.4A67.9 67.9 0 0084.1 3.6C79.3 2.4 62.8.2 57.7.2 19.8.2.9 34.8.9 77.5 1 120.2 19.1 153 57 153c4.7 0 20.9 0 27.2-1.5A65 65 0 00116 133h-12.2z"/><path fill="#EF7F18" d="M116.3 56.3c0 1 .7 1.7 1.5 1.7h17.9l-1-3.4h-16.9c-.8 0-1.5.8-1.5 1.7"/><path fill="#FDC63B" d="M108.6 35c0 1 .7 1.8 1.5 1.8h17.1l-2.1-3.5h-15c-.8 0-1.5.8-1.5 1.7m-8.2-12.9c0 1 .7 1.7 1.5 1.7h15.8l-3.4-3.4H102c-.8 0-1.5.7-1.5 1.7"/><path fill="#EF7F18" d="M117 80.2c0 1 .8 1.7 1.6 1.7h19.2l.1-3.4h-19.3c-.8 0-1.5.8-1.5 1.7m-1.7 19.8c0 1 .7 1.7 1.6 1.7h17.3l1-3.4H117c-.9 0-1.6.7-1.6 1.7"/><path fill="#FDC63B" d="M110 115.6c0 1 .7 1.8 1.6 1.8h16l1.9-3.5h-18c-.8 0-1.5.8-1.5 1.7m-7.8 15.7c0 1 .7 1.7 1.6 1.7H116l3-3.4h-15.2c-.9 0-1.6.8-1.6 1.7"/></g><g transform="translate(0 .8)"><mask id="x" fill="#fff"><use xlink:href="#w"/></mask><path fill="#FFBF4D" d="M69.9.2C31.3.2 0 34.4 0 76.6S31.3 153 69.9 153c38.6 0 69.9-34.2 69.9-76.4S108.5.2 69.8.2z" mask="url(#x)"/></g><g><path fill="#FFE2B7" d="M91.6 38.2c2.4 0 4.4-2.6 4.4-5.8 0-3.3-2-5.9-4.4-5.9H48.1c-2.4 0-4.4 2.6-4.4 5.9 0 3.2 2 5.8 4.4 5.8h17.4c5.7 0 10.5 5 12.3 11.8H48c-2.4 0-4.4 2.6-4.4 5.8 0 3.3 2 5.9 4.4 5.9h29.7c-1.8 6.8-6.6 11.7-12.3 11.7H48c-.6 0-1.2.2-1.7.5-1 .6-1.9 1.7-2.3 3.1-.5 1.5-.5 3 0 4.5a6 6 0 00.9 2l34.8 46.8c.9 1.2 2 1.7 3.1 1.7s2.2-.5 3-1.7c1.8-2.3 1.8-6 0-8.3L58.7 85.1h6.9c10.5 0 19.3-10 21.3-23.4h4.8c2.4 0 4.4-2.6 4.4-5.9 0-3.2-2-5.8-4.4-5.8h-4.8c-.6-4.4-2-8.3-4-11.8h8.8z"/><path fill="#A29C8F" d="M88.9 163.9c-2.9-1.5-20.3-20.4-8-32.5 0 0-1.3-4.6 4.7-7.5 6-3 11 3.2 11.5 4.2.4 1-6 35.8-7.1 35.8h-1.1z"/><path fill="#FFD399" d="M14.6 123.9c1.2-1.9 4.2-2 4.6-.1v2l-.1 1.1s1.7-2 2.2-1.6c.5.4-1 1.6-1.3 2.3-.3.7-2.1 5.7-4 4 0 0-3.1-5-1.4-7.7"/><path fill="#FFD399" d="M19.2 122s-.8-.6-1 .6c0 0-.3-1.9-1.1-1.8-1 0-1.2 1.8-1.4 2 0 0 .1-1-.4-.6s-1.4 2.5-1.2 3.5c.2 1 5 .7 5 .7s.4-3.6 0-4.5"/><path fill="#7F786A" d="M91.6 363.1c-.5-1.6 4.7-4.1 7.8-5-.8.6-1.8 1.4-.4 1.7 2 .4 6.2-.5 7.4-2 .6 1 .8 2.5.9 3.5 0 1.3-15.4 2.9-15.7 1.8"/><path fill="#FFD399" d="M99 359.8c-1.4-.3-1.9-1.2.1-1.6 1.8-.5 3.3-1.3 3.6-1.4.9-.5 1-1.9 1-1.9l1.7-.1 1 3c-1.2 1.5-5.4 2.5-7.4 2"/><path fill="#7F786A" d="M200 354.8c-2 0-2.7-5.7-2.6-9 .3 1 .8 2.2 1.5 1 1-1.9 1.3-6.2.2-7.8a9 9 0 013.6.2c1.3.3-1.7 15.6-2.8 15.6"/><path fill="#FFD399" d="M199 346.8c-.8 1.2-1.8 1.4-1.6-.7 0-1.9-.3-3.5-.3-3.8-.2-1-1.5-1.6-1.5-1.6l.3-1.6h3.2c1.1 1.5.8 5.8-.2 7.7"/><path fill="#7F786A" d="M118.8 185c11.9-4.3 18.2-2 18.2-2 46.4 13.8 15.3 102.4 15.3 102.4l45.4 51.3c.6.5 2.4 6.3-2.1 5.8-.4 0-1.3-.5-1.6-.7-5.4-3.5-59.2-36.6-67.1-45-10.3-10.8-7.2-74.3-7.2-74.3l-.9-37.6z"/><path fill="#FFD399" d="M88.1 146.5s3.3 8.8 4.3 9.5c1 .6 3.5.8 3.5-1.8s-5-9.3-5-9.3l-2.8 1.6z"/><path fill="#E5BD8C" d="M90.7 152.8c1.5.1 3.2-.3 4.1-1.8-.7-1.5-1.8-3.1-2.6-4.3l-3.3 1.8 1.8 4.3"/><path fill="#FFD399" d="M82 144c-.2-1 .6-4.4 1.3-7.2.6-2.3 3-3.7 5.3-3 3.6 1 7.4 2.3 8.4 3.3 1.4 1.5.9 4 .6 5.7-.4 1.9-1.6 5-3 6.3a8.5 8.5 0 01-6.2 1.3c-5-1.1-6-2.7-6.3-6.4m62.7-92.3c.6 0 1.3-.2 1.6-.8.8-1.5 2.4-4.7 2-6.2-.5-1.9-2.6-5.5-3.5-5.3-1 .2-.5 4.4-.4 5.3 0 .9-3.3 6.3.3 7"/><path fill="#A29C8F" d="M65 265.3c14.3-61.1 53.8-80.4 53.8-80.4 5.4-.2 12.2 3.2 12.2 3.2 28.6 29.2-10 52-10 52l-28 34.3s15.3 80 15.6 80.5c.3.5-6 1-6 1-.2-1.5-40.7-77.5-37.6-90.6"/><path fill="#F5EFE4" d="M142 50.9c-3.9.6-7 5.1-7.2 8-.1 1.2 7.3 73.8-16 83.6-13.2 5.5-8.2 5.3-45 20C65 166 50 169.9 45.1 167L26 132.4c-.5-1.1-1.6-1.9-2.8-2-5-.9-17.1 0-10 19.4 3.5 9.1 14.7 28.8 24.6 31 6.5 1.3 8.3.2 38-6.5 0 0 9.5 11.7 25.5 23.8 20.3-.9 34.3-14.3 35.7-15a189 189 0 00-10.4-31.4s22.9-11.4 29.3-46.7c3.7-20.3 12-58.5-13.9-54.1"/><path fill="#E7E1D3" d="M142 50.9c-3.9.6-7 5.1-7.2 8-.1 1.2 7.3 73.8-16 83.6-5.8 2.4-8 3.7-11.8 5.6-2.7 1.4 8.5 8.7 15.3 19.4 5.5 8.7 8.2 20.4 8.2 20.4l6.5-4.8a189 189 0 00-10.4-31.4s22.9-11.4 29.3-46.7c3.7-20.3 12-58.5-13.9-54.1"/><path fill="#7F786A" d="M88.1 127.2c-.3 1.8-4.4 6.4-1.8 9.7 2.6 3.3 5.7 4.3 7.1 5.2 0 0-3.3 6.9 1.4 13.5 4.8 6.6 11.1 4.2 11.1 4.2s-2.3 17.8 10.4 22.6c12.7 4.8 25.2-6.1 24.5-16.9-.6-10.7-6.6-18.8-15.4-18.8 0 0-3-11.1-14.6-9.6 0 0-.7-19-17-12.5 0 0-5-2-5.7 2.6"/><path fill="#7F786A" d="M109.4 130.6c-.6-1.5-1.4-2.9-2.5-4-1-1.2-2.4-2-3.8-2.5-1.5-.5-3-.6-4.6-.4-1.5.2-3 .7-4.5 1.3h-.3l-.6-.2h-.2a8 8 0 00-3.9-1.2c-1.4 0-2.7.4-3.9 1.1a8 8 0 00-3 2.8c-.7 1.1-1 2.6-.7 3.8l-.1.5a14 14 0 00-4 12.8c.3 2.4 1 4.6 2 6.8a43 43 0 003.7 6.3c-1.6-1.9-3-4-4-6-1.2-2.2-2-4.5-2.5-7-.5-2.4-.5-5 .2-7.3a15 15 0 013.8-6.4l-.1.6c-.4-1.7 0-3.3.8-4.7a9 9 0 013.4-3 8.2 8.2 0 014.4-1.3c1.6 0 3.1.6 4.4 1.4l-.1-.1.7.2h-.3c1.5-.5 3-1 4.7-1.1a11 11 0 014.9.5c1.5.6 2.9 1.6 3.9 2.9 1 1.2 1.7 2.7 2.2 4.2"/></g></g></svg>