<svg xmlns="http://www.w3.org/2000/svg" xmlns:xlink="http://www.w3.org/1999/xlink" width="102" height="99" viewBox="0 0 102 99"><defs/><defs><path id="a" d="M4 .8L.4 48 4 98a52.5 52.5 0 0042.7-51.6V12.6C28 12.6 4.3 1 4 .8z"/><path id="d" d="M.4.8H43V98H.4z"/><path id="f" d="M0 2.6a2 2 0 104 0 2 2 0 00-4 0"/><path id="i" d="M.4 1.8a1.4 1.4 0 102.7 0 1.4 1.4 0 00-2.7 0"/><linearGradient id="b" x1="0%" x2="100%" y1="50%" y2="50%"><stop offset="0%" stop-color="#FFB218"/><stop offset="100%" stop-color="#FFCF44"/></linearGradient><linearGradient id="g" x1="0%" x2="100%" y1="50%" y2="50%"><stop offset="0%" stop-color="#FFB218"/><stop offset="100%" stop-color="#FFCF44"/></linearGradient><linearGradient id="j" x1="0%" x2="100%" y1="50%" y2="50%"><stop offset="0%" stop-color="#FFB218"/><stop offset="100%" stop-color="#FFCF44"/></linearGradient></defs><g fill="none" fill-rule="evenodd"><g transform="translate(47 .2)"><mask id="c" fill="#fff"><use xlink:href="#a"/></mask><path fill="url(#b)" d="M4 .8L.4 48 4 98a52.5 52.5 0 0042.7-51.6V12.6C28 12.6 4.3 1 4 .8z" mask="url(#c)"/></g><path d="M93 13h9v13h-9z"/><g transform="translate(8 .2)"><mask id="e" fill="#fff"><use xlink:href="#d"/></mask><path fill="#FFDE8E" d="M.4 12.6v33.8C.4 71.6 18.3 93.3 43 98V.8S19 12.6.4 12.6" mask="url(#e)"/></g><path fill="#E1EBF0" d="M51 10.4l-3.7 37.7L51 89.4a44 44 0 0034.1-42.8V20.7a136.2 136.2 0 01-34.1-10.3"/><path fill="#FFF5F5" d="M16.9 20.7v25.9A44 44 0 0051 89.4v-79c-6.6 2.9-20.5 8.5-34.2 10.3"/><path fill="#306B34" d="M79.5 48V25.7a146.4 146.4 0 01-28.4-9L47.3 52 79.5 48z"/><path fill="#619440" d="M51 16.6c-6.6 2.9-17.3 6.8-28.4 9V48l28.5 3.8V16.6z"/><path fill="#619440" d="M51 48l-3.7 15L51 83.7A38.4 38.4 0 0079.5 48H51.1z"/><path fill="#306B34" d="M22.6 48a38.4 38.4 0 0028.5 35.6V48H22.6z"/><path fill="#E1EBF0" d="M45.6 44v2h-5.8v2.4h5.4v1.9h-5.4V53h6v2h-8.5V44zm4.3 0v5.9l2.8-3h2.6l-3 3 3.4 5.1H53l-2.2-3.6-.9.9V55h-2.2V44zm8.9 8c0 .3.2.5.3.8l.6.6 1 .2c.4 0 .6 0 .9-.2l.6-.6c.2-.2.3-.5.3-.8a4.7 4.7 0 000-2c0-.2-.1-.5-.3-.7-.1-.3-.4-.5-.6-.6-.3-.2-.6-.3-1-.3a1.7 1.7 0 00-1.5.9l-.3.8a4.9 4.9 0 000 1.9m-2-2.7a3.8 3.8 0 012.1-2.2c.5-.2 1.1-.3 1.8-.3.6 0 1.2 0 1.7.3a3.8 3.8 0 012.1 2.2c.2.5.3 1 .3 1.7s0 1.3-.3 1.8c-.2.5-.4 1-.8 1.3-.4.4-.8.7-1.3.9-.5.2-1.1.2-1.7.2-.7 0-1.3 0-1.8-.2a3.7 3.7 0 01-2.1-2.2c-.2-.5-.3-1.1-.3-1.8 0-.6 0-1.2.3-1.7"/><path fill="#306B34" d="M11.7 19.6a3 3 0 11-6 0 3 3 0 016 0"/><g transform="translate(0 13.2)"><mask id="h" fill="#fff"><use xlink:href="#f"/></mask><path fill="url(#g)" d="M0 2.6a2 2 0 104 0 2 2 0 00-4 0" mask="url(#h)"/></g><g transform="translate(5 10.2)"><mask id="k" fill="#fff"><use xlink:href="#i"/></mask><path fill="url(#j)" d="M.4 1.8a1.4 1.4 0 102.7 0 1.4 1.4 0 00-2.7 0" mask="url(#k)"/></g></g></svg>