<svg xmlns="http://www.w3.org/2000/svg" xmlns:xlink="http://www.w3.org/1999/xlink" width="102" height="99" viewBox="0 0 102 99">
    <defs>
        <path id="prefix__a" d="M4.07.831L.274 47.924 4.07 98c24.779-4.697 42.716-26.354 42.716-51.575V12.623C28.052 12.623 4.307.946 4.072.831H4.07z"/>
        <path id="prefix__d" d="M0.354 0.83L43.07 0.83 43.07 98 0.354 98z"/>
        <path id="prefix__f" d="M0 2.577c0 1.088.882 1.97 1.969 1.97 1.087 0 1.969-.882 1.969-1.97S3.056.608 1.969.608C.882.608 0 1.489 0 2.577"/>
        <path id="prefix__i" d="M.365 1.84c0 .763.616 1.38 1.378 1.38.761 0 1.379-.617 1.379-1.38 0-.76-.618-1.378-1.379-1.378C.981.462.365 1.08.365 1.84"/>
        <linearGradient id="prefix__b" x1=".001%" x2="100%" y1="50%" y2="50%">
            <stop offset="0%" stop-color="#FFB218"/>
            <stop offset="100%" stop-color="#FFCF44"/>
        </linearGradient>
        <linearGradient id="prefix__g" x1="0%" x2="100.011%" y1="49.992%" y2="49.992%">
            <stop offset="0%" stop-color="#FFB218"/>
            <stop offset="100%" stop-color="#FFCF44"/>
        </linearGradient>
        <linearGradient id="prefix__j" x1="-.014%" x2="99.983%" y1="50.006%" y2="50.006%">
            <stop offset="0%" stop-color="#FFB218"/>
            <stop offset="100%" stop-color="#FFCF44"/>
        </linearGradient>
    </defs>
    <g fill="none" fill-rule="evenodd">
        <g transform="translate(47 .17)">
            <mask id="prefix__c" fill="#fff">
                <use xlink:href="#prefix__a"/>
            </mask>
            <path fill="url(#prefix__b)" d="M4.07.831L.274 47.924 4.07 98c24.779-4.697 42.716-26.354 42.716-51.575V12.623C28.052 12.623 4.307.946 4.072.831H4.07z" mask="url(#prefix__c)"/>
        </g>
        <path d="M93 13H102V26H93z"/>
        <g>
            <g transform="translate(5 .17) translate(3)">
                <mask id="prefix__e" fill="#fff">
                    <use xlink:href="#prefix__d"/>
                </mask>
                <path fill="#FFDE8E" d="M.354 12.623v33.803C.354 71.646 18.291 93.303 43.07 98V.83S19.181 12.623.354 12.623" mask="url(#prefix__e)"/>
            </g>
            <path fill="#E1EBF0" d="M46.07 10.235l-3.796 37.688 3.796 41.354c19.9-4.534 34.176-22.302 34.176-42.852V20.551c-13.729-1.849-27.654-7.433-34.176-10.316" transform="translate(5 .17)"/>
            <path fill="#FFF5F5" d="M11.895 20.552v25.874c0 20.55 14.276 38.317 34.176 42.852V10.236c-6.522 2.882-20.447 8.466-34.176 10.316" transform="translate(5 .17)"/>
            <path fill="#306B34" d="M74.521 47.924c.02-.5.031-.998.031-1.498V25.389c-11.145-2.124-21.777-6.11-28.482-8.95l-3.796 35.28 32.247-3.795z" transform="translate(5 .17)"/>
            <path fill="#619440" d="M46.07 16.44c-6.706 2.84-17.338 6.824-28.482 8.948v21.037c0 .5.011 1 .031 1.498L46.07 51.72V16.44z" transform="translate(5 .17)"/>
            <path fill="#619440" d="M46.07 47.924L42.274 62.89l3.796 20.525c7.884-2.087 14.984-6.71 20.103-13.112 5.09-6.37 8.025-14.265 8.348-22.38h-28.45z" transform="translate(5 .17)"/>
            <path fill="#306B34" d="M17.619 47.924c.323 8.115 3.258 16.01 8.349 22.379 5.118 6.403 12.218 11.025 20.102 13.112V47.924H17.619z" transform="translate(5 .17)"/>
            <path fill="#E1EBF0" d="M40.633 43.752L40.633 45.809 34.759 45.809 34.759 48.192 40.15 48.192 40.15 50.093 34.759 50.093 34.759 52.819 40.758 52.819 40.758 54.876 32.313 54.876 32.313 43.752zM44.901 43.752L44.901 49.719 47.69 46.821 50.308 46.821 47.269 49.781 50.651 54.876 47.971 54.876 45.758 51.277 44.901 52.103 44.901 54.876 42.689 54.876 42.689 43.752zM53.798 51.8c.062.306.17.58.32.825.15.244.35.439.6.584.248.146.56.219.934.219s.688-.073.943-.22c.254-.144.457-.34.607-.583.151-.244.257-.52.32-.825.062-.307.093-.621.093-.943 0-.322-.03-.64-.093-.951-.063-.311-.169-.586-.32-.826-.15-.238-.353-.433-.607-.584-.255-.15-.569-.225-.943-.225s-.686.075-.935.225c-.249.15-.449.346-.6.584-.15.24-.257.515-.319.826-.062.312-.094.629-.094.95 0 .323.032.637.094.944m-2.01-2.696c.197-.525.478-.971.841-1.34.364-.368.8-.654 1.31-.857.508-.203 1.08-.303 1.713-.303.634 0 1.208.1 1.722.303.514.203.953.489 1.316.857.364.369.644.815.842 1.34.197.524.296 1.109.296 1.753 0 .644-.099 1.225-.296 1.745-.198.519-.478.964-.842 1.332-.363.369-.802.652-1.316.849-.514.198-1.088.296-1.722.296-.634 0-1.205-.098-1.714-.296-.509-.197-.945-.48-1.309-.85-.363-.367-.644-.812-.84-1.331-.199-.52-.297-1.101-.297-1.745 0-.644.098-1.23.296-1.753" transform="translate(5 .17)"/>
            <path fill="#306B34" d="M6.696 19.431c0 1.647-1.336 2.983-2.984 2.983-1.647 0-2.983-1.336-2.983-2.983 0-1.646 1.336-2.983 2.983-2.983 1.648 0 2.984 1.337 2.984 2.983" transform="translate(5 .17)"/>
        </g>
        <g transform="translate(0 13.17)">
            <mask id="prefix__h" fill="#fff">
                <use xlink:href="#prefix__f"/>
            </mask>
            <path fill="url(#prefix__g)" d="M0 2.577c0 1.088.882 1.97 1.969 1.97 1.087 0 1.969-.882 1.969-1.97S3.056.608 1.969.608C.882.608 0 1.489 0 2.577" mask="url(#prefix__h)"/>
        </g>
        <g transform="translate(5 10.17)">
            <mask id="prefix__k" fill="#fff">
                <use xlink:href="#prefix__i"/>
            </mask>
            <path fill="url(#prefix__j)" d="M.365 1.84c0 .763.616 1.38 1.378 1.38.761 0 1.379-.617 1.379-1.38 0-.76-.618-1.378-1.379-1.378C.981.462.365 1.08.365 1.84" mask="url(#prefix__k)"/>
        </g>
    </g>
</svg>
