<svg xmlns="http://www.w3.org/2000/svg" id="Layer_1" data-name="Layer 1" viewBox="0 0 119 35"><defs/><defs><style>.cls-1{fill:#ffb218}</style></defs><path d="M18.5 7.2a3 3 0 002-.7 2.4 2.4 0 00.8-1.9 2.6 2.6 0 00-.8-2 2.8 2.8 0 00-2-.7H2.8a2.8 2.8 0 00-2 .8 2.7 2.7 0 00-.8 2v27a2.7 2.7 0 00.8 2 2.8 2.8 0 002 .8h15.7a3 3 0 002-.8 2.5 2.5 0 00.8-1.9 2.6 2.6 0 00-.8-1.8 2.8 2.8 0 00-2-.8H5.8v-8.7h10.6a3 3 0 002-.7 2.4 2.4 0 00.8-1.9 2.6 2.6 0 00-.8-2 2.8 2.8 0 00-2-.7H5.8v-8zM37.7 20.8l7-6.5a2.8 2.8 0 001-2.1 2.6 2.6 0 00-.7-1.7 2.4 2.4 0 00-1.9-1 2.8 2.8 0 00-2 1L31 20V2.8a2.8 2.8 0 00-.8-2 2.9 2.9 0 00-4 0 2.8 2.8 0 00-.8 2v28.9a2.8 2.8 0 00.8 2 2.9 2.9 0 004 0 2.8 2.8 0 00.8-2v-5l2.3-2 8.4 8.9a2.6 2.6 0 002 .9 3 3 0 001.9-.8 2.5 2.5 0 001-2 3 3 0 00-.9-2zM67.1 10.8a13.2 13.2 0 00-12.8 0 12.4 12.4 0 00-4.6 4.5 13.2 13.2 0 00-1.7 6.8 13.2 13.2 0 001.7 6.7 12.3 12.3 0 004.6 4.6 13.4 13.4 0 0012.8 0 12.2 12.2 0 004.6-4.6 13.1 13.1 0 001.7-6.7 13 13 0 00-1.7-6.8 12.4 12.4 0 00-4.6-4.5zM67 26.2a7.2 7.2 0 01-2.6 2.7 7 7 0 01-7.2 0 7.2 7.2 0 01-2.5-2.7 8.4 8.4 0 01-1-4.1 8.5 8.5 0 011-4.2 7.2 7.2 0 012.5-2.7 7 7 0 017.2 0 7.2 7.2 0 012.6 2.7 8.5 8.5 0 011 4.2 8.4 8.4 0 01-1 4zM80 28h-.6a2.5 2.5 0 00-2.8 2.9v.8a2.5 2.5 0 002.8 2.8h.6a2.8 2.8 0 002-.7 2.8 2.8 0 00.8-2.1v-.8a2.8 2.8 0 00-.7-2A2.8 2.8 0 0080 28zM89.8 1a4 4 0 00-2.2.5 2 2 0 00-.7 1.8v.9a2.2 2.2 0 00.6 1.8 3.7 3.7 0 002.3.5A4 4 0 0092 6a2 2 0 00.7-1.8v-.9a2.2 2.2 0 00-.7-1.8 3.9 3.9 0 00-2.3-.5zM89.8 9.6a2.7 2.7 0 00-2 .8 2.8 2.8 0 00-.8 2v19.3a2.8 2.8 0 00.8 2 2.7 2.7 0 002 .8 2.7 2.7 0 002-.8 2.8 2.8 0 00.8-2V12.4a2.8 2.8 0 00-.8-2 2.7 2.7 0 00-2-.8zM118.3 14.4a7.4 7.4 0 00-2.5-3.9 8.2 8.2 0 00-5.3-1.4 8.5 8.5 0 00-2.9.5 9.4 9.4 0 00-2.4 1.3 11.5 11.5 0 00-1.9 1.7l-.5.6v-.8a2.8 2.8 0 00-.8-2 2.9 2.9 0 00-4 0 2.8 2.8 0 00-.8 2v19.3a2.8 2.8 0 00.8 2 2.9 2.9 0 004 0 2.8 2.8 0 00.8-2v-12a5.7 5.7 0 01.7-2.8 5.2 5.2 0 012-2 6.2 6.2 0 013.1-.7 5 5 0 013 .7A3.8 3.8 0 01113 17a9 9 0 01.4 2.8v12a2.8 2.8 0 00.8 2 2.7 2.7 0 002 .8 2.7 2.7 0 002-.8 2.8 2.8 0 00.8-2v-12a19.7 19.7 0 00-.7-5.4z" class="cls-1"/></svg>