<svg id="Layer_1" data-name="Layer 1" xmlns="http://www.w3.org/2000/svg" viewBox="0 0 118.95 35"><defs><style>.cls-1{fill:#ffb218;}</style></defs><title>eko</title><path class="cls-1" d="M18.48,7.23a3,3,0,0,0,2-.72,2.42,2.42,0,0,0,.82-1.89,2.61,2.61,0,0,0-.82-2,2.82,2.82,0,0,0-2-.77H2.85a2.76,2.76,0,0,0-2,.81,2.74,2.74,0,0,0-.82,2v27a2.74,2.74,0,0,0,.82,2,2.76,2.76,0,0,0,2,.81H18.48a2.93,2.93,0,0,0,2-.74,2.51,2.51,0,0,0,.82-1.92A2.63,2.63,0,0,0,20.51,30a2.77,2.77,0,0,0-2-.81H5.83V20.53H16.38a3,3,0,0,0,2-.72,2.42,2.42,0,0,0,.82-1.89,2.61,2.61,0,0,0-.82-2,2.82,2.82,0,0,0-2-.77H5.83V7.23Z"/><path class="cls-1" d="M37.67,20.75l7-6.47a2.81,2.81,0,0,0,1.12-2.1,2.65,2.65,0,0,0-.8-1.73,2.42,2.42,0,0,0-1.86-.88,2.82,2.82,0,0,0-2.06.88l-10,9.64V2.85a2.79,2.79,0,0,0-.8-2,2.86,2.86,0,0,0-4,0,2.78,2.78,0,0,0-.79,2V31.69a2.8,2.8,0,0,0,.79,2,2.89,2.89,0,0,0,4,0,2.81,2.81,0,0,0,.8-2V26.78l2.29-2.12,8.39,8.89a2.65,2.65,0,0,0,2.06.94,3.06,3.06,0,0,0,1.89-.77,2.47,2.47,0,0,0,1-2,3,3,0,0,0-.88-2.1Z"/><path class="cls-1" d="M67.13,10.76a13.23,13.23,0,0,0-12.83,0,12.4,12.4,0,0,0-4.58,4.57A13.16,13.16,0,0,0,48,22.07a13.22,13.22,0,0,0,1.7,6.75,12.27,12.27,0,0,0,4.58,4.55,13.44,13.44,0,0,0,12.83,0,12.24,12.24,0,0,0,4.57-4.55,13.13,13.13,0,0,0,1.71-6.75,13.06,13.06,0,0,0-1.71-6.74A12.37,12.37,0,0,0,67.13,10.76Zm-.28,15.4a7.19,7.19,0,0,1-2.57,2.73,7,7,0,0,1-7.14,0,7.17,7.17,0,0,1-2.56-2.73,8.38,8.38,0,0,1-1-4.09,8.49,8.49,0,0,1,1-4.13,7.17,7.17,0,0,1,2.56-2.73,7,7,0,0,1,7.14,0,7.19,7.19,0,0,1,2.57,2.73,8.49,8.49,0,0,1,1,4.13A8.38,8.38,0,0,1,66.85,26.16Z"/><path class="cls-1" d="M80,28.09h-.61a2.53,2.53,0,0,0-2.8,2.8v.8a2.53,2.53,0,0,0,2.8,2.8H80a2.77,2.77,0,0,0,2.07-.73,2.81,2.81,0,0,0,.73-2.07v-.8a2.81,2.81,0,0,0-.73-2.07A2.77,2.77,0,0,0,80,28.09Z"/><path class="cls-1" d="M89.83,1a4,4,0,0,0-2.21.49,2.06,2.06,0,0,0-.73,1.84V4.2A2.18,2.18,0,0,0,87.55,6a3.7,3.7,0,0,0,2.23.51A4.05,4.05,0,0,0,92.07,6a2.09,2.09,0,0,0,.7-1.84V3.31a2.22,2.22,0,0,0-.65-1.82A3.85,3.85,0,0,0,89.83,1Z"/><path class="cls-1" d="M89.83,9.57a2.66,2.66,0,0,0-2,.81,2.81,2.81,0,0,0-.8,2V31.69a2.81,2.81,0,0,0,.8,2,2.66,2.66,0,0,0,2,.81,2.7,2.7,0,0,0,2-.81,2.8,2.8,0,0,0,.79-2V12.41a2.8,2.8,0,0,0-.79-2A2.7,2.7,0,0,0,89.83,9.57Z"/><path class="cls-1" d="M118.28,14.4a7.36,7.36,0,0,0-2.48-3.85,8.19,8.19,0,0,0-5.25-1.45,8.48,8.48,0,0,0-2.94.49,9.45,9.45,0,0,0-2.42,1.28,11.46,11.46,0,0,0-1.87,1.71c-.19.21-.36.42-.52.63v-.8a2.8,2.8,0,0,0-.79-2,2.89,2.89,0,0,0-4,0,2.81,2.81,0,0,0-.8,2V31.69a2.81,2.81,0,0,0,.8,2,2.89,2.89,0,0,0,4,0,2.8,2.8,0,0,0,.79-2v-12a5.72,5.72,0,0,1,.68-2.78,5.17,5.17,0,0,1,2-2,6.17,6.17,0,0,1,3.15-.75,4.91,4.91,0,0,1,2.94.75A3.79,3.79,0,0,1,113,17a8.93,8.93,0,0,1,.4,2.78v12a2.81,2.81,0,0,0,.8,2,2.66,2.66,0,0,0,2,.81,2.7,2.7,0,0,0,2-.81,2.8,2.8,0,0,0,.79-2v-12A19.71,19.71,0,0,0,118.28,14.4Z"/></svg>