<?xml version="1.0" encoding="UTF-8"?>
<svg width="80px" height="80px" viewBox="0 0 80 80" version="1.1" xmlns="http://www.w3.org/2000/svg" xmlns:xlink="http://www.w3.org/1999/xlink">
    <title>826C0BB9-2B7B-4C9A-BDCE-8B766A88485E</title>
    <defs>
        <circle id="path-1" cx="40" cy="40" r="40"></circle>
        <filter x="-46.9%" y="-28.1%" width="193.8%" height="193.8%" filterUnits="objectBoundingBox" id="filter-2">
            <feOffset dx="0" dy="15" in="SourceAlpha" result="shadowOffsetOuter1"></feOffset>
            <feGaussianBlur stdDeviation="10" in="shadowOffsetOuter1" result="shadowBlurOuter1"></feGaussianBlur>
            <feColorMatrix values="0 0 0 0 1   0 0 0 0 0.699027652   0 0 0 0 0.0927210366  0 0 0 0.15 0" type="matrix" in="shadowBlurOuter1"></feColorMatrix>
        </filter>
        <polygon id="path-3" points="0 0.431373913 1.8384 0.431373913 1.8384 1.47763478 0 1.47763478"></polygon>
    </defs>
    <g id="Page-1" stroke="none" stroke-width="1" fill="none" fill-rule="evenodd">
        <g id="Navigation_products" transform="translate(-881.000000, -158.000000)">
            <g id="Group" transform="translate(881.000000, 158.000000)">
                <g id="developer_product_icon">
                    <g>
                        <g id="merchant_onboarding_icon">
                            <g id="Oval">
                                <use fill="black" fill-opacity="1" filter="url(#filter-2)" xlink:href="#path-1"></use>
                                <use fill="#FFFFFF" fill-rule="evenodd" xlink:href="#path-1"></use>
                            </g>
                        </g>
                        <g id="Group-50" transform="translate(11.826087, 13.913043)">
                            <path d="M13.1430261,4.74233043 L4.70685217,4.74233043 C2.1072,4.74233043 6.95652174e-05,6.84946087 6.95652174e-05,9.44911304 L6.95652174e-05,18.861287 L1.83867826,18.861287 C4.01954783,13.0365913 8.01815652,8.10233043 13.1430261,4.74233043" id="Fill-1" fill="#0052C2"></path>
                            <path d="M53.5489391,9.44890435 C53.5489391,6.84994783 51.4418087,4.74212174 48.8421565,4.74212174 C51.4418087,4.74212174 53.5489391,6.84994783 53.5489391,9.44890435" id="Fill-3" fill="#0052C2"></path>
                            <path d="M53.5489391,13.4692174 L53.5489391,9.44904348 C53.5489391,6.8493913 51.4418087,4.74226087 48.8421565,4.74226087 L44.9388522,4.74226087 C48.3913739,7.00591304 51.3305043,9.98469565 53.5489391,13.4692174" id="Fill-5" fill="#003481"></path>
                            <path d="M1.04591304,19.9074087 L0.000347826087,18.8611478 L0.000347826087,29.0413217 C0.000347826087,25.8489739 0.522782609,22.7804522 1.47373913,19.9074087 L1.04591304,19.9074087 Z" id="Fill-7" fill="#E8F4FC"></path>
                            <g id="Group-11" transform="translate(0.000000, 18.429774)">
                                <mask id="mask-4" fill="white">
                                    <use xlink:href="#path-3"></use>
                                </mask>
                                <g id="Clip-10"></g>
                                <path d="M1.47387826,1.47763478 C1.59005217,1.12633043 1.70970435,0.776417391 1.8384,0.431373913 L-0.000208695652,0.431373913 L1.04605217,1.47763478 L1.47387826,1.47763478 Z" id="Fill-9" fill="#E8F4FC" mask="url(#mask-4)"></path>
                            </g>
                            <path d="M53.5489391,44.6166957 C56.4164174,40.1151304 58.0818087,34.773913 58.0818087,29.0410435 C58.0818087,23.3095652 56.4150261,17.9704348 53.5489391,13.4695652 L53.5489391,18.8615652 L53.5489391,44.6166957 Z" id="Fill-12" fill="#816AE2"></path>
                            <path d="M44.9389217,4.74233043 C40.3705739,1.74685217 34.9110957,6.95652174e-05 29.040487,6.95652174e-05 C23.1705739,6.95652174e-05 17.7110957,1.74685217 13.1427478,4.74233043 L26.7747478,4.74233043 L44.9389217,4.74233043 Z" id="Fill-14" fill="#816AE2"></path>
                            <path d="M9.51735652,12.586087 C9.51735652,13.4528696 8.81544348,14.1554783 7.94866087,14.1554783 C7.08257391,14.1554783 6.37996522,13.4528696 6.37996522,12.586087 C6.37996522,11.72 7.08257391,11.0173913 7.94866087,11.0173913 C8.81544348,11.0173913 9.51735652,11.72 9.51735652,12.586087 M14.2241391,11.0173913 C15.0902261,11.0173913 15.7928348,11.72 15.7928348,12.586087 C15.7928348,13.4528696 15.0902261,14.1554783 14.2241391,14.1554783 C13.3580522,14.1554783 12.6554435,13.4528696 12.6554435,12.586087 C12.6554435,11.72 13.3580522,11.0173913 14.2241391,11.0173913 M1.83874783,18.8615652 L26.7744,18.8615652 L26.7744,4.7426087 L13.1430957,4.7426087 C8.01822609,8.1026087 4.01961739,13.0361739 1.83874783,18.8615652" id="Fill-16" fill="#0052C2"></path>
                            <path d="M26.7744696,18.8612174 L53.5487304,18.8612174 L53.5487304,13.4692174 C51.3302957,9.98469565 48.3918609,7.00591304 44.9386435,4.74226087 L26.7744696,4.74226087 L26.7744696,18.8612174 Z" id="Fill-18" fill="#003481"></path>
                            <path d="M14.2238609,14.1554087 C15.0906435,14.1554087 15.7925565,13.4528 15.7925565,12.5860174 C15.7925565,11.7199304 15.0906435,11.0173217 14.2238609,11.0173217 C13.3577739,11.0173217 12.6551652,11.7199304 12.6551652,12.5860174 C12.6551652,13.4528 13.3577739,14.1554087 14.2238609,14.1554087" id="Fill-20" fill="#FFB332"></path>
                            <path d="M6.37975652,12.586087 C6.37975652,13.4528696 7.08236522,14.1554783 7.94845217,14.1554783 C8.81523478,14.1554783 9.51714783,13.4528696 9.51714783,12.586087 C9.51714783,11.72 8.81523478,11.0173913 7.94845217,11.0173913 C7.08236522,11.0173913 6.37975652,11.72 6.37975652,12.586087" id="Fill-22" fill="#37D742"></path>
                            <path d="M8.5373913,36.4624696 L16.3815652,30.1869913 C17.0577391,29.6457739 18.0448696,29.7549913 18.5867826,30.4318609 C19.128,31.1087304 19.018087,32.0958609 18.3412174,32.6370783 L12.0288696,37.687513 L18.3412174,42.7379478 C19.018087,43.2791652 19.128,44.2662957 18.5867826,44.9424696 C18.0455652,45.6193391 17.0584348,45.7292522 16.3815652,45.1880348 L8.5373913,38.9118609 C7.75269565,38.2843826 7.7533913,37.0892522 8.5373913,36.4624696 L8.5373913,36.4624696 Z M6.59582609,47.4690783 C6.61113043,47.4885565 6.62782609,47.5052522 6.64313043,47.5240348 C6.66052174,47.5456 6.67652174,47.5671652 6.6946087,47.5880348 L6.69878261,47.5880348 C8.03026087,49.1894261 9.53147826,50.6412522 11.1732174,51.9247304 L11.1732174,51.9351652 C11.2205217,51.9727304 11.2713043,52.0061217 11.3193043,52.0422957 C11.352,52.0687304 11.3833043,52.0965565 11.4166957,52.1216 L11.4166957,52.1146435 C12.9972174,53.323687 14.7043478,54.3734261 16.5172174,55.2409043 L16.5172174,55.2492522 C16.570087,55.2749913 16.6243478,55.2965565 16.677913,55.3216 C16.7085217,55.3369043 16.7384348,55.3536 16.7690435,55.3682087 L16.7794783,55.3682087 C18.2055652,56.0332522 19.6942609,56.587687 21.2344348,57.0162087 L21.2344348,57.019687 L21.2351304,57.019687 C21.2511304,57.0245565 21.2685217,57.0273391 21.2852174,57.031513 C21.3033043,57.0363826 21.32,57.0426435 21.3373913,57.047513 L21.3373913,57.0440348 C23.0890435,57.5247304 24.9081739,57.8398609 26.7746087,57.9852522 L26.7746087,41.6708174 L26.7746087,41.6694261 L23.509913,49.287513 C23.1690435,50.0833391 22.2466087,50.4520348 21.450087,50.1111652 C20.6535652,49.7696 20.2848696,48.8478609 20.6257391,48.0506435 L26.7746087,33.7049043 L26.7746087,33.703513 L26.7746087,19.9073391 L1.47373913,19.9073391 C0.522782609,22.7803826 0.000347826087,25.8489043 0.000347826087,29.0412522 C0.000347826087,36.0360348 2.47617391,42.4506435 6.59582609,47.4642087 L6.59582609,47.4690783 Z" id="Fill-24" fill="#E8F4FC"></path>
                            <path d="M1.83867826,18.8612174 C1.70928696,19.2062609 1.59033043,19.5561739 1.47415652,19.9074783 L26.7743304,19.9074783 L26.7743304,18.8612174 L1.83867826,18.8612174 Z" id="Fill-26" fill="#E8F4FC"></path>
                            <path d="M35.2072348,32.6370783 C34.5303652,32.0958609 34.4211478,31.1087304 34.9623652,30.4318609 C35.5035826,29.7549913 36.490713,29.6457739 37.1675826,30.187687 L45.0110609,36.4624696 C45.7964522,37.0899478 45.7957565,38.2850783 45.0110609,38.9125565 L37.1675826,45.1873391 C36.4914087,45.7278609 35.5042783,45.6200348 34.9623652,44.9424696 C34.4211478,44.2662957 34.5303652,43.2791652 35.2072348,42.7379478 L41.5202783,37.687513 L35.2072348,32.6370783 Z M29.2837565,58.0736 C31.8646261,58.0520348 34.3654957,57.6972522 36.7432348,57.0447304 L36.7432348,57.047513 C36.7606261,57.0426435 36.7780174,57.0363826 36.7954087,57.031513 C36.8121043,57.0273391 36.8294957,57.0245565 36.8461913,57.019687 L36.8461913,57.0169043 C38.3870609,56.587687 39.8750609,56.0332522 41.3018435,55.3682087 L41.3122783,55.3682087 C41.3435826,55.3529043 41.3734957,55.3362087 41.4048,55.3209043 C41.4576696,55.2965565 41.5119304,55.2749913 41.5641043,55.2499478 L41.5641043,55.2416 C43.3762783,54.3734261 45.0841043,53.323687 46.6653217,52.1146435 L46.6653217,52.1222957 C46.6980174,52.0972522 46.7286261,52.0694261 46.7606261,52.043687 C46.8093217,52.0068174 46.8601043,51.9734261 46.9081043,51.9351652 L46.9081043,51.9247304 C48.5498435,50.6412522 50.0510609,49.1894261 51.3818435,47.5880348 L51.3874087,47.5880348 C51.4048,47.5671652 51.4214957,47.5449043 51.438887,47.5233391 C51.4534957,47.5052522 51.4701913,47.4885565 51.4854957,47.4697739 L51.4854957,47.4642087 C52.2291478,46.5598609 52.9171478,45.6082087 53.5488,44.6169043 L53.5488,18.8610783 C53.1404522,19.2701217 52.9115826,19.4989913 52.5032348,19.9073391 L26.7745391,19.9073391 L26.7745391,33.703513 L30.0385391,26.087513 C30.1129739,25.9142957 30.218713,25.7661217 30.3404522,25.6367304 C30.5303652,25.4342957 30.766887,25.2902957 31.0270609,25.2109913 C31.3686261,25.1073391 31.7449739,25.1122087 32.0990609,25.2631652 C32.2521043,25.3292522 32.3842783,25.4217739 32.5039304,25.5254261 C32.8037565,25.7856 32.9901913,26.1459478 33.0333217,26.5348174 C33.0625391,26.795687 33.0333217,27.0656 32.9234087,27.323687 L26.7745391,41.6708174 L26.7745391,57.9852522 C27.5230609,58.043687 28.2771478,58.0819478 29.0409739,58.0819478 C29.1216696,58.0819478 29.2030609,58.0791652 29.2837565,58.0784696 L29.2837565,58.0736 Z" id="Fill-28" fill="#D3DCFB"></path>
                            <path d="M26.7744696,19.9074087 L52.5031652,19.9074087 C52.911513,19.4990609 53.1403826,19.2701913 53.5487304,18.8611478 L26.7744696,18.8611478 L26.7744696,19.9074087 Z" id="Fill-30" fill="#D3DCFB"></path>
                            <path d="M20.6260174,48.0507826 C20.2844522,48.848 20.6538435,49.7697391 21.4503652,50.1113043 C22.246887,50.4521739 23.1686261,50.0834783 23.5101913,49.2869565 L26.7741913,41.6695652 L26.7741913,33.7050435 L20.6260174,48.0507826 Z" id="Fill-32" fill="#FFC839"></path>
                            <path d="M33.0336696,26.5344696 C32.9905391,26.1456 32.8041043,25.7859478 32.5035826,25.5257739 C32.8041043,25.7859478 32.9905391,26.1456 33.0336696,26.5344696" id="Fill-34" fill="#2A428C"></path>
                            <path d="M31.0268522,25.2111304 C30.7666783,25.2904348 30.5301565,25.4337391 30.3409391,25.6361739 C30.5301565,25.4337391 30.7666783,25.2904348 31.0268522,25.2111304" id="Fill-36" fill="#2A428C"></path>
                            <path d="M32.9229217,27.3238957 L26.7747478,41.6696348 L26.7747478,41.6710261 L32.9229217,27.3238957 C33.0335304,27.0658087 33.0627478,26.7952 33.0335304,26.5343304 C33.0627478,26.7952 33.0335304,27.0658087 32.9229217,27.3238957" id="Fill-38" fill="#2A428C"></path>
                            <path d="M30.0390957,26.0874435 C30.1128348,25.9142261 30.2185739,25.7660522 30.3410087,25.6366609 C30.2185739,25.7660522 30.1128348,25.9142261 30.0390957,26.0874435 L26.7744,33.7034435 L26.7744,33.7048348 L30.0390957,26.0874435 Z" id="Fill-40" fill="#2A428C"></path>
                            <path d="M32.0988522,25.2633739 C32.2518957,25.3294609 32.3840696,25.4219826 32.5037217,25.5256348 C32.3840696,25.4219826 32.2525913,25.3294609 32.0988522,25.2633739 C31.7447652,25.1117217 31.3684174,25.1068522 31.0268522,25.2112 C31.3684174,25.1068522 31.7447652,25.1117217 32.0988522,25.2633739" id="Fill-42" fill="#2A428C"></path>
                            <path d="M26.7744696,33.7049739 L26.7744696,41.6694957 L32.9226435,27.3237565 C33.0339478,27.0656696 33.0624696,26.7950609 33.0339478,26.5341913 C32.9901217,26.1460174 32.803687,25.7856696 32.5038609,25.5254957 C32.3842087,25.4218435 32.2520348,25.3293217 32.0989913,25.2632348 C31.7449043,25.1115826 31.3685565,25.1074087 31.0269913,25.2110609 C30.7668174,25.2903652 30.5302957,25.4336696 30.3403826,25.6361043 C30.2186435,25.7661913 30.1129043,25.9143652 30.0391652,26.0875826 L26.7744696,33.7049739 Z" id="Fill-44" fill="#FFB332"></path>
                            <path d="M16.3814957,45.1880348 C17.0583652,45.7292522 18.0454957,45.6193391 18.586713,44.9424696 C19.1279304,44.2662957 19.018713,43.2791652 18.3411478,42.7379478 L12.0288,37.687513 L18.3411478,32.6370783 C19.018713,32.0958609 19.1279304,31.1087304 18.586713,30.4318609 C18.0454957,29.7549913 17.0576696,29.6457739 16.3814957,30.187687 L8.53732174,36.4624696 C7.75332174,37.0892522 7.75262609,38.2843826 8.53732174,38.9125565 L16.3814957,45.1880348 Z" id="Fill-46" fill="#FFC839"></path>
                            <path d="M34.9622957,44.9427478 C35.5042087,45.620313 36.4913391,45.7281391 37.167513,45.1876174 L45.0109913,38.9121391 C45.795687,38.2853565 45.7963826,37.0902261 45.0109913,36.4627478 L37.167513,30.1872696 C36.4906435,29.6460522 35.503513,29.7552696 34.9622957,30.4321391 C34.4210783,31.108313 34.5302957,32.0954435 35.2071652,32.6373565 L41.5202087,37.6870957 L35.2071652,42.7375304 C34.5302957,43.2787478 34.4210783,44.2658783 34.9622957,44.9427478" id="Fill-48" fill="#FFB332"></path>
                        </g>
                    </g>
                </g>
            </g>
        </g>
    </g>
</svg>