<svg xmlns="http://www.w3.org/2000/svg" xmlns:xlink="http://www.w3.org/1999/xlink" width="80" height="80" viewBox="0 0 80 80"><defs/><defs><filter id="a" width="193.8%" height="193.8%" x="-46.9%" y="-28.1%" filterUnits="objectBoundingBox"><feOffset dy="15" in="SourceAlpha" result="shadowOffsetOuter1"/><feGaussianBlur in="shadowOffsetOuter1" result="shadowBlurOuter1" stdDeviation="10"/><feColorMatrix in="shadowBlurOuter1" values="0 0 0 0 1 0 0 0 0 0.699027652 0 0 0 0 0.0927210366 0 0 0 0.15 0"/></filter><circle id="b" cx="40" cy="40" r="40"/><path id="c" d="M0 .43h1.84v1.05H0z"/></defs><g fill="none" fill-rule="evenodd"><g><use fill="#000" filter="url(#a)" xlink:href="#b"/><use fill="#FFF" xlink:href="#b"/></g><path fill="#0052C2" d="M24.97 18.66h-8.44a4.7 4.7 0 00-4.7 4.7v9.41h1.83a29.13 29.13 0 0111.3-14.11M65.38 23.36"/><path fill="#003481" d="M65.38 27.38v-4.02c0-2.6-2.11-4.7-4.71-4.7h-3.9a29.18 29.18 0 018.6 8.72"/><path fill="#E8F4FC" d="M12.87 33.82l-1.04-1.05v10.18c0-3.19.52-6.26 1.47-9.13h-.43z"/><g transform="translate(11.83 32.34)"><mask id="d" fill="#fff"><use xlink:href="#c"/></mask><path fill="#E8F4FC" d="M1.47 1.48L1.84.43H0l1.05 1.05h.42z" mask="url(#d)"/></g><path fill="#816AE2" d="M65.38 58.53a28.9 28.9 0 004.53-15.58 28.9 28.9 0 00-4.53-15.57v31.15zM56.77 18.66a28.9 28.9 0 00-15.9-4.75 28.9 28.9 0 00-15.9 4.75H56.77z"/><path fill="#0052C2" d="M21.34 26.5a1.57 1.57 0 11-3.13 0 1.57 1.57 0 013.13 0m4.71-1.57a1.57 1.57 0 110 3.14 1.57 1.57 0 010-3.14m-12.39 7.84H38.6V18.66H24.97a29.12 29.12 0 00-11.3 14.11"/><path fill="#003481" d="M38.6 32.77h26.77v-5.39a29.18 29.18 0 00-8.6-8.72H38.6v14.11z"/><path fill="#FFB332" d="M26.05 28.07a1.57 1.57 0 100-3.14 1.57 1.57 0 000 3.14"/><path fill="#37D742" d="M18.2 26.5a1.57 1.57 0 103.14 0 1.57 1.57 0 00-3.13 0"/><path fill="#E8F4FC" d="M20.36 50.38l7.85-6.28a1.57 1.57 0 111.96 2.45l-6.32 5.05 6.32 5.05a1.57 1.57 0 11-1.96 2.45l-7.85-6.28a1.57 1.57 0 010-2.44zm-1.94 11l.05.06.05.06A29.22 29.22 0 0023 65.84l.15.12.1.07a28.99 28.99 0 005.1 3.12v.01l.15.07.1.05c1.43.67 2.92 1.22 4.46 1.65l.05.01.05.02c1.76.48 3.57.8 5.44.94V55.58l-3.26 7.62a1.57 1.57 0 01-2.89-1.24l6.15-14.34v-13.8H13.3a29.01 29.01 0 005.12 27.56z"/><path fill="#E8F4FC" d="M13.66 32.77l-.36 1.05h25.3v-1.05H13.66z"/><path fill="#D3DCFB" d="M47.03 46.55A1.57 1.57 0 1149 44.1l7.85 6.28c.78.62.78 1.82 0 2.45l-7.85 6.27a1.57 1.57 0 01-1.96-2.45l6.32-5.05-6.32-5.05zm-5.92 25.44c2.58-.02 5.08-.38 7.46-1.03l.05-.02h.05v-.01a28.9 28.9 0 004.46-1.65l.1-.05.16-.07a29.09 29.09 0 005.1-3.13l.1-.07.14-.11v-.01a29.18 29.18 0 004.48-4.34l.05-.06.05-.06a29.1 29.1 0 002.06-2.85V32.77l-1.04 1.05H38.6v13.8L41.86 40a1.56 1.56 0 01.99-.88c.34-.1.72-.1 1.08.06.15.06.28.15.4.26a1.56 1.56 0 01.42 1.8L38.6 55.58V71.9c.75.06 1.5.1 2.27.1h.24v-.01z"/><path fill="#D3DCFB" d="M38.6 33.82h25.73l1.04-1.05H38.6v1.05z"/><path fill="#FFC839" d="M32.45 61.96a1.57 1.57 0 102.89 1.24l3.26-7.62v-7.96l-6.15 14.34z"/><path fill="#2A428C" d="M44.75 41.24L38.6 55.58l6.15-14.34c.11-.26.14-.53.11-.8.03.27 0 .54-.11.8M41.87 40l-3.27 7.62L41.87 40zM43.92 39.18"/><path fill="#FFB332" d="M38.6 47.62v7.96l6.15-14.34c.11-.26.14-.53.11-.8a1.57 1.57 0 00-3-.44l-3.26 7.62z"/><path fill="#FFC839" d="M28.2 59.1a1.57 1.57 0 001.97-2.45l-6.32-5.05 6.32-5.05a1.57 1.57 0 10-1.96-2.45l-7.85 6.28a1.57 1.57 0 000 2.45l7.85 6.27z"/><path fill="#FFB332" d="M46.79 58.86c.54.67 1.53.78 2.2.24l7.85-6.27c.78-.63.78-1.83 0-2.45l-7.85-6.28a1.57 1.57 0 10-1.96 2.45l6.32 5.05-6.32 5.05a1.57 1.57 0 00-.24 2.2"/></g></svg>