<svg xmlns="http://www.w3.org/2000/svg" xmlns:xlink="http://www.w3.org/1999/xlink" width="155" height="155" viewBox="0 0 155 155">
    <defs>
        <filter id="prefix__a" width="165.2%" height="165.2%" x="-32.6%" y="-19.6%" filterUnits="objectBoundingBox">
            <feOffset dy="15" in="SourceAlpha" result="shadowOffsetOuter1"/>
            <feGaussianBlur in="shadowOffsetOuter1" result="shadowBlurOuter1" stdDeviation="10"/>
            <feColorMatrix in="shadowBlurOuter1" values="0 0 0 0 1 0 0 0 0 0.699027652 0 0 0 0 0.0927210366 0 0 0 0.15 0"/>
        </filter>
        <circle id="prefix__b" cx="57.5" cy="57.5" r="57.5"/>
    </defs>
    <g fill="none" fill-rule="evenodd" transform="translate(20 5)">
        <use fill="#000" filter="url(#prefix__a)" xlink:href="#prefix__b"/>
        <use fill="#FFF" xlink:href="#prefix__b"/>
        <g>
            <path fill="#D3DCFB" d="M86.725 43.363c0 3.854-.503 7.59-1.448 11.148-.304 1.149-.655 2.28-1.049 3.39-3.241 9.109-9.443 16.817-17.448 21.963-1.736 1.116-3.557 2.113-5.451 2.977-.848.385-1.71.747-2.586 1.078-2.129.808-4.338 1.453-6.611 1.92h-.001c-2.197.45-4.455.736-6.76.84-.665.03-1.336.046-2.008.046-.638 0-1.273-.013-1.903-.042-4.581-.197-8.977-1.104-13.081-2.616-1.05-.386-2.078-.81-3.087-1.274-1.913-.88-3.752-1.892-5.503-3.031-1.166-.755-2.292-1.566-3.377-2.427-6.003-4.767-10.713-11.093-13.518-18.367-.386-.995-.733-2.007-1.044-3.037C.646 51.954 0 47.733 0 43.363c0-5.501 1.025-10.765 2.894-15.607l.028-.075c1.717-4.421 4.135-8.49 7.121-12.07l.245-.292C18.242 5.947 30.108 0 43.363 0c23.948 0 43.362 19.414 43.362 43.362" transform="translate(14 19)"/>
            <path fill="#A8B7EF" d="M76.569 36.53l-10.38-2.402 17.338-18.08c.631-.653.861-1.594.603-2.463-.257-.87-.962-1.533-1.845-1.738L62.669 7.305l-9.808-2.271c-1.125-.26-2.282.279-2.808 1.308l-18.93 37.124c-.354.69-.369 1.503-.042 2.206.327.703.96 1.215 1.714 1.39l11.173 2.587L22.144 82.61c-.697 1.05-.51 2.453.435 3.285.95.832 2.364.832 3.31.01L49.175 65.58 77.65 40.884c.716-.62 1.021-1.588.795-2.508-.229-.918-.954-1.631-1.876-1.845" transform="translate(14 19)"/>
            <path fill="#816AE2" d="M78.445 38.375c-.229-.918-.954-1.63-1.876-1.845l-10.38-2.403 17.338-18.079c.63-.653.861-1.595.603-2.464s-.962-1.532-1.846-1.737L62.67 7.305 49.174 65.58 77.65 40.883c.716-.619 1.021-1.588.795-2.508" transform="translate(14 19)"/>
            <path fill="#4A696F" d="M48.263 68.75v3.266c0 2.711-2.189 4.9-4.9 4.9-2.712 0-4.901-2.189-4.901-4.9V68.75c0-.915.718-1.634 1.634-1.634h6.534c.915 0 1.633.72 1.633 1.634" transform="translate(14 19)"/>
            <path fill="#384949" d="M48.263 68.75v3.266c0 2.711-2.189 4.9-4.9 4.9v-9.8h3.267c.915 0 1.633.718 1.633 1.633" transform="translate(14 19)"/>
            <path fill="#FFE470" d="M43.363 27.911c-10.258 0-17.97 8.266-17.97 17.97 0 5.813 2.778 11.27 7.646 14.7 1.34.947 2.156 2.613 2.156 4.476v.424c0 2.712 2.189 4.901 4.9 4.901h6.535c2.712 0 4.9-2.189 4.9-4.9v-.523c0-1.765.948-3.463 2.58-4.704 4.575-3.43 7.22-8.658 7.22-14.375 0-9.867-7.937-17.936-17.967-17.969" transform="translate(14 19)"/>
            <path fill="#FDBF00" d="M61.331 45.88c0 5.717-2.646 10.944-7.22 14.375-1.634 1.241-2.581 2.94-2.581 4.704v.523c0 2.711-2.189 4.9-4.9 4.9h-3.267v-42.47c10.029.032 17.968 8.101 17.968 17.968" transform="translate(14 19)"/>
            <path fill="#F4D7AF" d="M69.608 47.513H66.23c-.902 0-1.632-.73-1.632-1.633s.73-1.634 1.632-1.634h3.377c.902 0 1.632.731 1.632 1.634 0 .903-.73 1.633-1.632 1.633" transform="translate(14 19)"/>
            <path fill="#FAECD8" d="M20.494 47.513h-3.376c-.903 0-1.633-.73-1.633-1.633s.73-1.634 1.633-1.634h3.376c.903 0 1.633.731 1.633 1.634 0 .903-.73 1.633-1.633 1.633" transform="translate(14 19)"/>
            <path fill="#F4D7AF" d="M58.378 30.864c-.638-.638-.638-1.671 0-2.31l2.31-2.31c.638-.638 1.672-.638 2.31 0 .638.639.638 1.673 0 2.31l-2.31 2.31c-.638.639-1.672.639-2.31 0" transform="translate(14 19)"/>
            <path fill="#FAECD8" d="M23.727 65.516c-.638-.64-.638-1.672 0-2.311l2.31-2.31c.638-.637 1.672-.637 2.31 0 .638.639.638 1.673 0 2.31l-2.31 2.31c-.638.639-1.672.639-2.31 0M26.037 30.864l-2.31-2.31c-.638-.637-.638-1.671 0-2.31.638-.638 1.672-.638 2.31 0l2.31 2.31c.638.639.638 1.672 0 2.31-.638.639-1.672.639-2.31 0" transform="translate(14 19)"/>
            <path fill="#F4D7AF" d="M60.688 65.516l-2.31-2.311c-.638-.637-.638-1.671 0-2.31.638-.637 1.672-.637 2.31 0l2.31 2.31c.638.639.638 1.672 0 2.31-.638.639-1.672.639-2.31 0" transform="translate(14 19)"/>
            <path fill="#FDBF00" d="M52.445 47.775l-8.625-5.718 2.646-5.26c.36-.718.131-1.567-.523-2.057-.653-.457-1.535-.393-2.09.196l-9.801 9.8c-.36.327-.523.817-.49 1.308.065.49.326.915.718 1.209l8.625 5.716-2.646 5.26c-.36.719-.131 1.568.523 2.059.653.457 1.535.39 2.09-.197l9.802-9.8c.359-.328.522-.817.49-1.307-.066-.49-.327-.915-.719-1.21" transform="translate(14 19)"/>
            <path fill="#FF9F00" d="M53.163 48.984c.034.49-.13.979-.49 1.307l-9.31 9.31V35.425l.49-.49c.555-.588 1.436-.652 2.09-.195.654.49.883 1.339.524 2.057l-2.648 5.26 8.625 5.718c.392.294.654.719.72 1.209" transform="translate(14 19)"/>
        </g>
    </g>
</svg>
