<svg xmlns="http://www.w3.org/2000/svg" xmlns:xlink="http://www.w3.org/1999/xlink" width="155" height="155" viewBox="0 0 155 155">
    <defs>
        <path id="prefix__c" d="M0.001 0.508L83.493 0.508 83.493 84 0.001 84z"/>
        <path id="prefix__e" d="M0.06 0.758L11.496 0.758 11.496 73.136 0.06 73.136z"/>
        <filter id="prefix__a" width="165.2%" height="165.2%" x="-32.6%" y="-19.6%" filterUnits="objectBoundingBox">
            <feOffset dy="15" in="SourceAlpha" result="shadowOffsetOuter1"/>
            <feGaussianBlur in="shadowOffsetOuter1" result="shadowBlurOuter1" stdDeviation="10"/>
            <feColorMatrix in="shadowBlurOuter1" values="0 0 0 0 1 0 0 0 0 0.699027652 0 0 0 0 0.0927210366 0 0 0 0.15 0"/>
        </filter>
        <circle id="prefix__b" cx="57.5" cy="57.5" r="57.5"/>
    </defs>
    <g fill="none" fill-rule="evenodd" transform="translate(20 5)">
        <use fill="#000" filter="url(#prefix__a)" xlink:href="#prefix__b"/>
        <use fill="#FFF" xlink:href="#prefix__b"/>
        <g>
            <g transform="translate(16 18) translate(0 4.242)">
                <mask id="prefix__d" fill="#fff">
                    <use xlink:href="#prefix__c"/>
                </mask>
                <path fill="#D3DCFB" d="M44.547 83.905l23.66-9.361c9.332-7.657 15.287-19.278 15.287-32.29C83.493 19.198 64.802.508 41.745.508 18.69.508.002 19.198.002 42.254S18.69 84 41.745 84c.942 0 1.875-.034 2.801-.096" mask="url(#prefix__d)"/>
            </g>
            <path fill="#F9CFA9" d="M66.24 55.347c.333-4.028-.281-8.065-2.066-11.693-4.608-9.374-3.55-10.054-3.694-19.358 0-1.9-1.54-3.441-3.44-3.441-1.901 0-3.441 1.54-3.441 3.44v34.602c0 .537-.057 1.06-.163 1.565v4.954c0 4.174-3.397 7.57-7.57 7.57H27.028c2.893 4.025 6.851 7.176 11.446 9.085.029.01.057.023.087.035 2.764 1.168 4.873 3.37 5.986 6.04 8.951-.592 17.133-4.004 23.66-9.36l-2.566-9.421c-.365-1.347-.495-2.747-.38-4.137l.978-9.881zM14.247 20.976l-1.048-.972c-1.616-1.497-4.163-1.4-5.66.216-1.497 1.615-1.4 4.163.216 5.66l6.492 6.016v-10.92z" transform="translate(16 18)"/>
            <path fill="#A8B7EF" d="M48.668 1h-29.43c-2.855 0-5.178 2.323-5.178 5.179v62.02c0 2.856 2.323 5.179 5.178 5.179h29.43c2.855 0 5.18-2.323 5.18-5.179V6.179c0-2.856-2.325-5.179-5.18-5.179" transform="translate(16 18)"/>
            <g transform="translate(16 18) translate(14 .242)">
                <mask id="prefix__f" fill="#fff">
                    <use xlink:href="#prefix__e"/>
                </mask>
                <path fill="#816AE2" d="M10.032 4.599c-.28-.417-.444-.918-.444-1.458 0-1.06.63-1.97 1.536-2.383H5.239c-2.86 0-5.18 2.32-5.18 5.179v62.02c0 2.86 2.32 5.179 5.18 5.179h6.257v-64c0-1.627-.555-3.185-1.464-4.537" mask="url(#prefix__f)"/>
            </g>
            <path fill="#E6F7FE" d="M17.058 33.712v34.487c0 1.205.976 2.182 2.181 2.182h29.43c1.203 0 2.18-.977 2.18-2.182V33.712H17.06z" transform="translate(16 18)"/>
            <path fill="#D5F1FE" d="M17.058 33.712v34.487c0 1.205.976 2.182 2.181 2.182h5.158V33.71h-7.339z" transform="translate(16 18)"/>
            <path fill="#FABE2C" d="M28.912 44.115c0 1.887-1.53 3.416-3.417 3.416-1.887 0-3.416-1.529-3.416-3.416s1.529-3.417 3.416-3.417 3.417 1.53 3.417 3.417M28.912 56.784c0 1.887-1.53 3.417-3.417 3.417-1.887 0-3.416-1.53-3.416-3.417 0-1.887 1.529-3.417 3.416-3.417s3.417 1.53 3.417 3.417" transform="translate(16 18)"/>
            <path fill="#FFB332" d="M25.11 40.72c-1.706.193-3.032 1.639-3.032 3.396 0 1.886 1.53 3.416 3.417 3.416 1.177 0 2.214-.595 2.828-1.5-2.946.332-4.82-2.943-3.214-5.311M25.11 53.39c-1.706.193-3.032 1.639-3.032 3.395 0 1.887 1.53 3.417 3.417 3.417 1.177 0 2.214-.595 2.828-1.5-2.928.329-4.832-2.928-3.214-5.311" transform="translate(16 18)"/>
            <path fill="#FFC839" d="M39.458 42.694h-4.851c-.705 0-1.278-.572-1.278-1.277 0-.706.573-1.279 1.278-1.279h4.85c.707 0 1.279.573 1.279 1.28 0 .704-.572 1.276-1.278 1.276M44.309 48.092h-9.702c-.706 0-1.278-.573-1.278-1.278 0-.706.572-1.28 1.278-1.28h9.702c.705 0 1.278.574 1.278 1.28 0 .705-.573 1.278-1.278 1.278M39.458 55.364h-4.851c-.705 0-1.278-.572-1.278-1.278 0-.706.573-1.279 1.278-1.279h4.85c.707 0 1.279.573 1.279 1.28 0 .705-.572 1.277-1.278 1.277M44.309 60.76h-9.702c-.706 0-1.278-.571-1.278-1.277 0-.705.572-1.28 1.278-1.28h9.702c.705 0 1.278.575 1.278 1.28 0 .706-.573 1.278-1.278 1.278" transform="translate(16 18)"/>
            <path fill="#FABE2C" d="M48.651 3.999h-4.374c-.412 0-.746.334-.746.746 0 .989-.81 1.799-1.799 1.799h-15.59c-.99 0-1.8-.81-1.8-1.799 0-.412-.334-.746-.746-.746h-4.374c-1.205 0-2.181.976-2.181 2.18v27.874h33.791V6.179c0-1.204-.976-2.18-2.181-2.18" transform="translate(16 18)"/>
            <path fill="#FFB332" d="M24.397 5.176c-.035-.14-.055-.282-.055-.431 0-.412-.334-.746-.746-.746h-4.374c-1.205 0-2.18.976-2.18 2.18v27.874h7.355V5.176z" transform="translate(16 18)"/>
            <path fill="#FFC839" d="M48.651 3.999h-4.374c-.412 0-.746.334-.746.746 0 .989-.81 1.799-1.799 1.799h-8.599l17.699 22.185V6.179c0-1.204-.976-2.18-2.181-2.18M28.442 14.155h-5.893c-.706 0-1.278-.57-1.278-1.277 0-.706.572-1.279 1.278-1.279h5.893c.706 0 1.278.573 1.278 1.28 0 .704-.572 1.276-1.278 1.276" transform="translate(16 18)"/>
            <path fill="#F9CFA9" d="M20.075 42.098c-1.317 1.42-3.538 1.506-4.959.189L9.238 36.84c-1.422-1.317-1.507-3.537-.189-4.96 1.317-1.421 3.537-1.506 4.96-.188l5.877 5.447c1.421 1.316 1.506 3.537.19 4.959" transform="translate(16 18)"/>
            <path fill="#FBBC8D" d="M19.886 37.139l-2.796-2.591c.368 1.333.062 2.819-.946 3.907-1.009 1.089-2.467 1.506-3.824 1.242l2.796 2.59c1.421 1.317 3.641 1.232 4.96-.19 1.316-1.421 1.231-3.642-.19-4.958" transform="translate(16 18)"/>
            <path fill="#F9CFA9" d="M20.075 51.669c-1.317 1.422-3.538 1.506-4.959.189L9.238 46.41c-1.422-1.317-1.507-3.537-.189-4.958 1.317-1.422 3.537-1.507 4.96-.19l5.877 5.447c1.421 1.317 1.506 3.537.19 4.959M20.075 61.241c-1.317 1.422-3.538 1.506-4.959.188l-5.878-5.446c-1.422-1.317-1.507-3.538-.189-4.959 1.317-1.422 3.537-1.507 4.96-.189l5.877 5.446c1.421 1.317 1.506 3.538.19 4.96" transform="translate(16 18)"/>
            <path fill="#FBBC8D" d="M65.642 69.363c-.182-.67-.305-1.352-.369-2.04C58.77 78 46.144 82.958 34.285 79.875c1.323.85 2.724 1.586 4.19 2.194.028.013.057.024.086.036 2.764 1.168 4.874 3.37 5.986 6.041 8.952-.593 17.133-4.006 23.66-9.36l-2.565-9.423zM19.886 46.71l-2.796-2.59c.368 1.332.062 2.818-.946 3.906-1.009 1.09-2.467 1.507-3.824 1.243l2.796 2.589c1.421 1.317 3.642 1.233 4.96-.189 1.316-1.422 1.231-3.642-.19-4.959M19.886 56.281l-2.796-2.59c.368 1.333.062 2.82-.946 3.907-1.009 1.09-2.467 1.507-3.824 1.242l2.796 2.59c1.421 1.317 3.642 1.233 4.96-.189 1.316-1.422 1.231-3.643-.19-4.96" transform="translate(16 18)"/>
        </g>
    </g>
</svg>
