<svg xmlns="http://www.w3.org/2000/svg" xmlns:xlink="http://www.w3.org/1999/xlink" width="668" height="343" viewBox="0 0 668 343">
    <defs>
        <path id="prefix__a" d="M0 0.849L626.07 0.849 626.07 35 0 35z"/>
        <path id="prefix__c" d="M0 342L667.402 342 667.402 0.554 0 0.554z"/>
        <path id="prefix__e" d="M1.01.809c-.326.326-.326.855 0 1.183l7.72 7.719c.327.327.857.327 1.183 0 .327-.326.327-.856 0-1.183L2.194.809C2.03.645 1.816.563 1.602.563c-.214 0-.428.082-.592.246"/>
        <path id="prefix__h" d="M8.73.809L1.01 8.528c-.326.327-.326.857 0 1.183.327.327.856.327 1.184 0l7.719-7.719c.327-.328.327-.857 0-1.183C9.75.645 9.536.563 9.322.563c-.215 0-.429.082-.592.246"/>
        <linearGradient id="prefix__f" x1="-.003%" x2="100%" y1="50.003%" y2="50.003%">
            <stop offset="0%" stop-color="#FBB62B"/>
            <stop offset="100%" stop-color="#FFCF44"/>
        </linearGradient>
        <linearGradient id="prefix__i" x1="-.003%" x2="100%" y1="50.003%" y2="50.003%">
            <stop offset="0%" stop-color="#FBB62B"/>
            <stop offset="100%" stop-color="#FFCF44"/>
        </linearGradient>
    </defs>
    <g fill="none" fill-rule="evenodd">
        <g transform="translate(0 .446)">
            <g transform="translate(0 307)">
                <mask id="prefix__b" fill="#fff">
                    <use xlink:href="#prefix__a"/>
                </mask>
                <path fill="#F7E8C8" d="M626.07 17.925C626.07 27.355 485.92 35 313.035 35 140.15 35 0 27.356 0 17.925S140.15.849 313.035.849C485.92.849 626.07 8.494 626.07 17.925" mask="url(#prefix__b)"/>
            </g>
            <path fill="#FFF4DD" d="M481.933 46.545c-15.586 0-30.718 1.449-45.182 4.163C392.75 19.614 333.448.555 268.205.555c-135.73 0-245.76 82.478-245.76 184.22 0 55.932 33.255 106.04 85.748 139.826h373.74c102.432 0 185.469-62.245 185.469-139.028 0-76.783-83.037-139.028-185.47-139.028"/>
            <path fill="#F7E8C8" d="M515.355 314.398L566.2 150.743s-50.05 46.873-74.677 163.655h23.833z"/>
            <path fill="#B7CAE5" d="M501.79 314.398s19.597-138.445 9.534-197.627c0 0-42.372 138.232-37.076 197.627h27.542z"/>
            <path fill="#F7E8C8" d="M507.616 314.398c.53-3.634 76.8-111.757 76.8-111.757s-38.665 82.023-45.02 111.757h-31.78z"/>
            <path fill="#A4B751" d="M543.512 313.813c2.535-1.126 11.079-4.385 11.48-7.35.44-3.234-1.606-6.778-4.53-7.84-1.26-.459-2.658-.514-3.664-1.643-.561-.63-.755-1.6-.306-2.28.73-1.113 2.299-.456 3.454.141 2.21 1.145 4.688 1.802 7.045 1.4 2.357-.405 4.56-1.99 5.418-4.38.858-2.39.1-5.532-1.966-6.975-1.292-.902-2.914-1.094-4.035-2.373-.583-.664-.86-1.622-.525-2.422.673-1.616 2.91-.999 4.454-.255 2.18 1.05 4.499 1.903 6.84 1.868 2.343-.035 4.726-1.085 5.952-3.187 1.227-2.1.956-5.3-.924-6.918-.753-.648-1.678-1.005-2.47-1.594-.95-.706-1.758-1.975-1.12-3.156.44-.819 1.388-1.108 2.269-.895 1.22.294 2.09 1.168 2.975 2.032 1.39 1.362 3.202 2.152 5.027 2.068 5.453-.25 6.262-7.049 3.227-10.266-.852-.904-2.05-1.746-1.968-3.047.064-1.028.906-1.733 1.856-1.788 1.875-.11 3.258 1.362 4.919 1.981 3.038 1.133 6.587-1.364 6.79-4.775.155-2.61-2.93-2.738-5.737-3.412-.645-.156-.703-1.134-.08-1.32 2.48-.738 5.469-2.212 7.08-3.22 2.957-1.853 5.463-7.713.37-9.406-1.365-.454-4.45.616-5.163 1.636-1.01 1.442-4.728 5.105-4.728 5.105-.436.361-1.065-.158-.865-.715.454-1.267.747-2.59.592-4.028-.071-.657-.258-1.309-.57-1.89-1.861-3.46-5.877-2.166-7.403.522-1.268 2.236-1.307 5.057-1.372 7.733-.033 1.385-.125 2.894-1.185 3.767-.601.494-1.475.556-2.085.011-.706-.629-.551-1.516-.612-2.334-.2-2.675-3.045-4.636-5.457-4.186-2.412.45-4.19 2.764-4.795 5.325-.605 2.56-.223 5.324.409 7.941.31 1.291.683 2.675 0 3.858-.404.7-1.243 1.035-1.943.631-.996-.574-.872-1.993-1.033-3.135-.446-3.169-4.126-5.102-6.873-4.107-2.747.995-4.4 4.118-4.682 7.273-.318 3.552.802 7.16 1.918 10.555.263.8.02 1.71-.65 2.09-.93.525-1.691-.369-2.356-1.056-2.57-2.65-6.79-3.12-9.6-1.069-2.808 2.051-3.91 6.41-2.507 9.913.892 2.225 2.653 4.087 2.447 6.705-.102 1.296-1.013 2.376-2.22 2.345-1.522-.04-2.286-1.764-3.231-2.986-2.622-3.393-7.887-3.115-10.614-.103-2.726 3.013-1.311 10.897-.243 15.113 1.068 4.217 3.122 13.048 6.649 17.133 1.66 1.924 13.806-1.909 16.34-3.035"/>
            <path fill="#619440" d="M595.343 234.802c-1.365-.454-4.45.615-5.163 1.636-1.01 1.442-4.728 5.105-4.728 5.105-.436.36-1.066-.159-.865-.716.454-1.267.747-2.59.59-4.028-.07-.656-.256-1.31-.568-1.89-1.861-3.46-5.877-2.166-7.403.523-1.268 2.235-1.307 5.056-1.372 7.732-.033 1.386-.125 2.895-1.185 3.768-.601.494-1.475.556-2.085.01-.706-.629-.551-1.516-.612-2.334-.2-2.674-3.045-4.636-5.457-4.185-2.412.448-4.19 2.763-4.795 5.323-.605 2.561-.223 5.325.409 7.942.31 1.292.683 2.675 0 3.858-.404.7-1.243 1.034-1.943.632-.996-.575-.872-1.993-1.033-3.136-.446-3.17-4.126-5.102-6.873-4.107-2.747.995-4.4 4.119-4.682 7.272-.318 3.553.802 7.16 1.918 10.557.263.798.02 1.709-.65 2.089-.93.525-1.691-.368-2.356-1.055-2.57-2.651-6.79-3.122-9.6-1.07-2.808 2.051-3.91 6.41-2.507 9.913.892 2.224 2.653 4.087 2.447 6.705-.102 1.296-1.013 2.377-2.22 2.346-1.522-.041-2.287-1.764-3.231-2.988-2.622-3.392-7.887-3.113-10.614-.101-2.726 3.012-1.311 10.895-.243 15.113.997 3.935 2.852 11.887 5.96 16.251.223.314.689.882.689.882s14.168-26.818 35.039-51.529c11.593-13.726 35.75-28.368 35.75-28.368s-.156-.381-.542-.79c-.664-.702-1.807-1.272-2.075-1.36"/>
            <path fill="#306B34" d="M504.397 284.775c-1.223 3.051-2.03 6.243-2.765 9.418-.958 4.133-.295 5.361.846 9.105 1.14 3.744 3.732 6.836 7.198 7.748 3.466.911 6.073 2.706 8.666-.644.366-.473.912-.115.951.15.278 1.875.35 3.03 1.43 4.324 1.13 1.354 8.08 7.134 16.768.812 4.541-5.854 6.313-12.97 8.522-20.096.28-.898.54-1.836.457-2.727-.153-1.64-1.637-2.775-3.135-2.395 1.296.114 2.638-.967 3.41-2.289.772-1.322 1.094-2.849 1.4-4.334 1.13-5.487 2.26-10.973 3.388-16.46-3.747 1.374-7.777.954-10.82-1.129 0 0 11.791-2.543 11.843-8.379.037-4.235-.06-10.125.21-14.385.19-2.98-.706-6.165-1.71-8.747-.858-2.202-1.42-3.723-3.013-5.268-.964-.934-1.979-1.897-3.28-2.17-1.976-.416-4.117.841-5.962 2.201-3.378 2.493-6.48 5.49-9.405 8.665-3.47 3.77-6.71 7.807-9.68 12.066 2.14 5.673 5.736 10.467 10.306 13.737-4.377-1.532-8.308-4.216-11.427-7.8-.375-.432-.793-.903-1.365-.908-1.142-.009-1.79 1.65-2.129 2.93-1.429 5.412-4.149 10.578-7.777 14.771 1.692.66 3.385 1.32 5.077 1.978l-6.629-.219s-.277 7.307-1.375 10.045"/>
            <path fill="#A4B751" d="M502.293 286.264c-1.223 3.051-1.88 12.54-.214 17.677 1.207 3.722 4.013 6.752 7.276 8.235 2.556 1.162 6.394 1.575 8.987-1.774.366-.473.913-.116.952.15.278 1.875 26.732-82.979 25.47-83.244-1.976-.415-4.118.842-5.962 2.202-3.38 2.492-6.481 5.488-9.406 8.665-3.47 3.77-6.71 7.807-9.68 12.066 2.14 5.672 5.736 10.466 10.306 13.737-4.376-1.532-8.307-4.216-11.426-7.8-.376-.433-.793-.903-1.366-.908-1.141-.009-1.791 1.648-2.13 2.93-1.428 5.412-4.147 10.578-7.775 14.771l5.076 1.978-6.63-.219s-2.38 8.796-3.478 11.534"/>
            <path fill="#F4B545" d="M610.008 106.869c-.675 0-1.322-.381-1.629-1.03-.665-1.405-1.383-2.814-2.133-4.188-.476-.873-.155-1.968.72-2.444.872-.476 1.966-.155 2.442.719.783 1.434 1.532 2.905 2.226 4.37.426.9.042 1.974-.857 2.4-.249.117-.51.173-.769.173M616.03 124.795c-.837 0-1.587-.586-1.762-1.437-.615-2.99-1.43-5.995-2.42-8.931-.317-.944.189-1.965 1.132-2.282.943-.32 1.965.188 2.282 1.13 1.037 3.077 1.889 6.224 2.534 9.356.2.975-.427 1.927-1.401 2.127-.122.025-.245.037-.365.037m-49.321.069c-.117 0-.237-.011-.356-.035-3.073-.617-6.135-.968-9.098-1.044-.994-.025-1.78-.851-1.754-1.846.025-.995.854-1.773 1.846-1.754 3.17.08 6.438.455 9.714 1.112.975.195 1.607 1.144 1.412 2.12-.172.856-.924 1.447-1.764 1.447m-27.777 2.683c-.652 0-1.28-.354-1.6-.972-.46-.883-.115-1.97.769-2.428 2.824-1.466 5.998-2.543 9.43-3.203.978-.186 1.922.453 2.11 1.43.187.977-.453 1.92-1.43 2.108-3.092.593-5.935 1.556-8.451 2.862-.265.138-.55.203-.828.203m45.463 3.909c-.305 0-.615-.078-.898-.241-2.573-1.483-5.368-2.788-8.306-3.877-.932-.346-1.41-1.382-1.063-2.314.346-.933 1.383-1.41 2.315-1.063 3.127 1.158 6.105 2.549 8.853 4.133.862.497 1.158 1.598.66 2.46-.332.578-.94.902-1.561.902m-57.833 9.895c-.222 0-.447-.041-.665-.127-.924-.368-1.376-1.415-1.01-2.34 1.238-3.112 2.91-5.901 4.974-8.284.087-.102.174-.201.263-.3.66-.742 1.8-.81 2.543-.147.742.663.808 1.8.146 2.543l-.23.26c-1.796 2.078-3.26 4.52-4.347 7.258-.281.707-.958 1.137-1.674 1.137m90.865 2.294c-.037 0-.073-.001-.11-.003-.994-.061-1.75-.914-1.69-1.908.082-1.334.123-2.694.123-4.044-.001-1.712-.066-3.456-.196-5.181-.075-.992.669-1.857 1.66-1.931.984-.078 1.858.668 1.932 1.66.136 1.816.206 3.65.206 5.45 0 1.424-.044 2.859-.13 4.264-.057.956-.85 1.693-1.795 1.693m-19.038.379c-.554 0-1.1-.254-1.453-.736-1.852-2.525-3.896-4.803-6.073-6.768-.738-.667-.796-1.806-.13-2.544.667-.74 1.806-.797 2.544-.13 2.358 2.13 4.567 4.59 6.564 7.312.587.802.414 1.929-.388 2.518-.321.235-.694.348-1.064.348m-73.892 15.975c-.896 0-1.672-.668-1.785-1.58-.231-1.87-.35-3.752-.35-5.591 0-1.438.073-2.875.215-4.27.1-.991.985-1.711 1.974-1.61.99.1 1.71.985 1.61 1.974-.13 1.275-.195 2.589-.195 3.906 0 1.693.107 3.425.32 5.15.123.987-.578 1.885-1.566 2.007-.074.01-.15.014-.223.014m82.44.86c-.751 0-1.452-.473-1.706-1.225-1.01-2.988-2.2-5.854-3.535-8.514-.446-.89-.087-1.971.8-2.418.89-.446 1.973-.088 2.419.8 1.41 2.812 2.666 5.832 3.729 8.98.318.942-.188 1.963-1.13 2.282-.192.064-.386.095-.577.095m6.58 1.262c-.213 0-.43-.038-.641-.12-.93-.353-1.395-1.394-1.04-2.324 1.074-2.813 1.94-5.778 2.576-8.816.204-.972 1.157-1.598 2.132-1.393.973.204 1.597 1.158 1.394 2.132-.675 3.222-1.596 6.372-2.737 9.362-.274.718-.958 1.159-1.683 1.159m-82.983 15.715c-.618 0-1.22-.318-1.555-.89-1.643-2.797-3.014-5.806-4.075-8.947-.318-.942.188-1.964 1.13-2.282.943-.318 1.965.187 2.283 1.13.982 2.906 2.25 5.69 3.768 8.275.504.858.217 1.962-.64 2.466-.287.168-.602.248-.911.248m80.295 1.529c-.916 0-1.7-.695-1.79-1.626-.14-1.434-.315-2.862-.524-4.277-1.056 1.473-2.183 2.88-3.37 4.21-.663.742-1.802.808-2.543.145-.742-.662-.807-1.8-.145-2.543 1.898-2.126 3.63-4.468 5.156-6.966-.053-.877.544-1.685 1.43-1.87.976-.201 1.928.422 2.13 1.396.647 3.1 1.135 6.315 1.45 9.555.097.99-.627 1.87-1.617 1.968-.06.005-.118.008-.177.008m-21.995 10.379c-.646 0-1.27-.348-1.594-.96-.465-.88-.13-1.968.75-2.433 2.77-1.466 5.38-3.12 7.756-4.914.794-.6 1.924-.443 2.523.35.599.795.442 1.924-.352 2.524-2.53 1.91-5.303 3.669-8.242 5.223-.27.143-.557.21-.841.21m-45.301 1.618c-.32 0-.643-.085-.936-.264-1.234-.752-2.441-1.593-3.588-2.496-1.437-1.132-2.821-2.396-4.114-3.757-.685-.722-.656-1.862.065-2.547.72-.685 1.86-.655 2.547.065 1.174 1.237 2.43 2.384 3.73 3.409 1.037.816 2.125 1.573 3.237 2.252.849.518 1.117 1.626.598 2.475-.34.557-.931.863-1.54.863m27.449 4.528c-.864 0-1.626-.623-1.774-1.503-.165-.981.496-1.91 1.477-2.075 2.934-.494 5.92-1.264 8.876-2.29.94-.328 1.966.17 2.292 1.11.327.94-.171 1.967-1.11 2.292-3.146 1.093-6.33 1.914-9.46 2.44-.101.017-.202.026-.301.026m-9.436.662l-.061-.001c-3.393-.112-6.683-.613-9.776-1.487-.957-.27-1.514-1.265-1.243-2.223.27-.957 1.265-1.515 2.223-1.243 2.813.795 5.813 1.25 8.916 1.352.994.033 1.773.866 1.74 1.86-.032.974-.832 1.742-1.8 1.742m49.219 1.737c-.062 0-.125-.003-.188-.01-.99-.102-1.71-.987-1.606-1.976.318-3.076.486-6.2.498-9.283.004-.993.81-1.794 1.8-1.794h.009c.995.005 1.797.814 1.794 1.808-.014 3.202-.188 6.446-.518 9.639-.096.927-.878 1.616-1.79 1.616m-3.825 18.534c-.18 0-.364-.027-.544-.084-.948-.3-1.474-1.312-1.174-2.26.923-2.916 1.709-5.941 2.336-8.99.2-.973 1.152-1.601 2.127-1.401.974.2 1.602 1.153 1.402 2.127-.652 3.17-1.47 6.316-2.43 9.35-.243.768-.953 1.258-1.717 1.258m-7.694 17.28c-.313 0-.63-.081-.92-.253-.854-.51-1.134-1.615-.626-2.47 1.552-2.606 2.979-5.374 4.244-8.226.403-.91 1.467-1.32 2.376-.917.91.404 1.32 1.467.917 2.376-1.322 2.984-2.816 5.88-4.441 8.61-.337.566-.935.88-1.55.88m-11.703 14.832c-.473 0-.946-.186-1.3-.555-.69-.718-.665-1.857.053-2.546 2.188-2.1 4.269-4.4 6.184-6.834.615-.781 1.747-.917 2.529-.302.782.616.917 1.747.302 2.53-2.02 2.566-4.213 4.99-6.521 7.205-.35.335-.8.502-1.247.502m-15.391 10.938c-.657 0-1.29-.36-1.607-.986-.451-.887-.097-1.971.79-2.421 2.739-1.393 5.387-2.994 7.874-4.762.81-.576 1.935-.386 2.51.425.577.81.387 1.936-.423 2.512-2.631 1.869-5.433 3.564-8.33 5.036-.261.133-.54.196-.814.196m-17.875 6.139c-.84 0-1.591-.59-1.764-1.445-.197-.974.434-1.924 1.408-2.122 3.066-.621 6.068-1.43 8.92-2.403.942-.32 1.966.182 2.288 1.123.32.942-.182 1.965-1.123 2.286-3 1.024-6.153 1.873-9.37 2.525-.121.024-.241.036-.36.036m-28.3 1.048c-.065 0-.13-.003-.195-.011-3.152-.34-6.355-.821-9.52-1.433-.976-.188-1.615-1.133-1.426-2.11.189-.976 1.134-1.615 2.11-1.426 3.066.592 6.169 1.059 9.22 1.388.99.106 1.706.994 1.599 1.983-.1.924-.88 1.609-1.788 1.609m11.103.608c-.563 0-1.123-.005-1.68-.015-.993-.016-1.786-.836-1.77-1.831.017-.984.82-1.77 1.8-1.77h.032c.535.009 1.075.014 1.618.014 2.593 0 5.173-.108 7.668-.32.99-.086 1.863.652 1.948 1.643.084.99-.652 1.863-1.643 1.947-2.596.22-5.28.332-7.973.332M507.336 263.45c-.164 0-.33-.022-.495-.069-2.435-.695-4.092-1.268-4.692-1.483-.936-.335-1.424-1.365-1.089-2.302.335-.936 1.366-1.425 2.303-1.089.565.202 2.133.745 4.466 1.409.956.272 1.511 1.269 1.238 2.225-.226.792-.947 1.309-1.73 1.309"/>
            <path fill="#7F786A" d="M522.304 51.415v238.973H113.597V51.415c0-4.485 3.638-8.123 8.128-8.123H514.18c4.485 0 8.123 3.638 8.123 8.123"/>
            <mask id="prefix__d" fill="#fff">
                <use xlink:href="#prefix__c"/>
            </mask>
            <path fill="#FFF" d="M126.164 276.829L510.619 276.829 510.619 66.272 126.164 66.272z" mask="url(#prefix__d)"/>
            <path fill="#A29C8F" d="M511.765 326.692H124.138c-20.049 0-36.303-16.254-36.303-36.304H548.07c0 20.05-16.254 36.304-36.304 36.304" mask="url(#prefix__d)"/>
            <path fill="#7F786A" d="M361.868 314.395h-87.831c-3.22 0-5.856-2.635-5.856-5.855 0-3.22 2.636-5.856 5.856-5.856h87.83c3.22 0 5.856 2.636 5.856 5.856 0 3.22-2.635 5.855-5.855 5.855" mask="url(#prefix__d)"/>
            <path fill="#FFF4DD" d="M273.974 229.494h-80.19c-15.3 0-27.818-12.518-27.818-27.817V172.59c0-15.3 12.518-27.818 27.818-27.818h80.19c15.3 0 27.817 12.518 27.817 27.818v29.086c0 15.299-12.517 27.817-27.817 27.817M380.262 160.299h-34.75c-2.489 0-4.525-2.036-4.525-4.524 0-2.49 2.036-4.526 4.525-4.526h34.75c2.488 0 4.524 2.036 4.524 4.526 0 2.488-2.036 4.524-4.524 4.524M451.09 186.118H345.511c-2.488 0-4.524-2.036-4.524-4.524 0-2.49 2.036-4.526 4.524-4.526h105.577c2.49 0 4.526 2.036 4.526 4.526 0 2.488-2.036 4.524-4.526 4.524M451.09 204.545H345.511c-2.488 0-4.524-2.036-4.524-4.524 0-2.49 2.036-4.526 4.524-4.526h105.577c2.49 0 4.526 2.036 4.526 4.526 0 2.488-2.036 4.524-4.526 4.524" mask="url(#prefix__d)"/>
            <path fill="#A29C8F" d="M322.826 55.127c0 2.704-2.192 4.896-4.896 4.896-2.703 0-4.895-2.192-4.895-4.896 0-2.703 2.192-4.896 4.895-4.896 2.704 0 4.896 2.193 4.896 4.896" mask="url(#prefix__d)"/>
            <path fill="#FFF4DD" d="M224.273 251.057c0 2.146-1.74 3.885-3.885 3.885-2.146 0-3.885-1.739-3.885-3.885s1.739-3.885 3.885-3.885 3.885 1.74 3.885 3.885" mask="url(#prefix__d)"/>
            <path fill="#F7E8C8" d="M239.267 251.057c0 2.146-1.739 3.885-3.884 3.885-2.146 0-3.886-1.739-3.886-3.885s1.74-3.885 3.886-3.885c2.145 0 3.884 1.74 3.884 3.885" mask="url(#prefix__d)"/>
            <path fill="#FFF4DD" d="M254.262 251.057c0 2.146-1.739 3.885-3.885 3.885-2.145 0-3.885-1.739-3.885-3.885s1.74-3.885 3.885-3.885c2.146 0 3.885 1.74 3.885 3.885" mask="url(#prefix__d)"/>
            <path fill="#F7E8C8" d="M436.898 254.566h-48.512c-10.04 0-18.256-8.215-18.256-18.256 0-10.04 8.215-18.256 18.256-18.256h48.512c10.041 0 18.255 8.215 18.255 18.255v.002c0 10.04-8.214 18.255-18.255 18.255" mask="url(#prefix__d)"/>
            <path fill="#FFF" d="M402.486 236.282c.338 0 .663-.025.976-.075.313-.05.588-.147.826-.291.237-.144.428-.347.572-.61.144-.262.216-.607.216-1.032 0-.426-.072-.769-.216-1.032-.144-.263-.335-.466-.572-.61-.238-.144-.513-.241-.826-.291-.313-.05-.638-.076-.976-.076h-2.29v4.017h2.29zm.807-6.306c.838 0 1.551.122 2.139.367.588.243 1.067.565 1.436.965.369.402.638.858.807 1.37.169.514.253 1.045.253 1.596 0 .538-.084 1.067-.253 1.586-.169.519-.438.979-.807 1.379-.369.4-.848.723-1.436.967-.588.243-1.301.365-2.139.365h-3.097v4.805h-2.946v-13.4h6.043zM415.23 238.196l-1.69-4.917h-.038l-1.745 4.917h3.472zm-.17-8.22l5.011 13.4h-3.059l-1.014-2.985h-5.01l-1.05 2.985h-2.967l5.068-13.4h3.021zM418.401 229.976L421.704 229.976 424.837 235.268 427.952 229.976 431.236 229.976 426.264 238.233 426.264 243.375 423.317 243.375 423.317 238.159z" mask="url(#prefix__d)"/>
            <path fill="#FFB332" d="M529.387 219.351l-128.406.216c-5.313.01-9.668-4.33-9.677-9.645l-.075-44.68c-.01-5.314 4.33-9.668 9.645-9.677l128.406-.216c5.313-.009 9.668 4.331 9.676 9.645l.076 44.68c.008 5.314-4.332 9.668-9.645 9.677" mask="url(#prefix__d)"/>
            <path fill="#FFDCA4" d="M449.398 187.485c.023 13.653-11.027 24.74-24.68 24.763-13.653.023-24.74-11.027-24.763-24.68-.023-13.653 11.026-24.74 24.68-24.764 13.653-.022 24.74 11.027 24.763 24.681" mask="url(#prefix__d)"/>
            <path fill="#D18E2C" d="M416.688 173.449s1.74 1.187 5.157.593c3.416-.594 4.654-2.298 4.654-2.298s.28 4.734-4.1 5.495c-4.378.762-5.711-3.79-5.711-3.79" mask="url(#prefix__d)"/>
            <path fill="#E59D29" d="M439.982 180.32v.001l-8.057-7.986-4.467-.487-.96-.104s-.308 3.934-4.25 4.62c-3.942.685-5.56-2.915-5.56-2.915l-4.91 2.388-5.36 11.218 6.661 3.536.515-.976 2.471-4.688 2.974 17.352-.003.001.18 1.034 7.49-1.3 7.49-1.302-3.239-18.372 3.908 3.578.814.745 5.077-5.575-.774-.768z" mask="url(#prefix__d)"/>
            <path fill="#E09F36" d="M522.064 173.342l-57.427.097c-1.919.003-3.49-1.565-3.494-3.484-.004-1.918 1.564-3.491 3.482-3.494l57.427-.097c1.92-.002 3.491 1.565 3.495 3.483.003 1.919-1.564 3.49-3.483 3.495" mask="url(#prefix__d)"/>
            <path fill="#F4CB95" d="M497.06 185.056l-32.403.055c-1.919.003-3.492-1.565-3.495-3.483-.003-1.919 1.564-3.49 3.483-3.495l32.403-.054c1.92-.003 3.491 1.564 3.494 3.483.004 1.92-1.564 3.491-3.482 3.494M522.103 196.688l-57.427.096c-1.919.004-3.49-1.564-3.494-3.483-.003-1.919 1.564-3.49 3.483-3.494l57.426-.097c1.92-.002 3.491 1.565 3.495 3.483.003 1.92-1.564 3.491-3.483 3.495M522.123 208.361l-57.427.097c-1.919.003-3.49-1.565-3.495-3.483-.003-1.919 1.564-3.49 3.483-3.495l57.427-.097c1.92-.002 3.491 1.565 3.494 3.484.004 1.918-1.564 3.491-3.482 3.494" mask="url(#prefix__d)"/>
            <path fill="#3D3D3D" d="M522.304 86.486v18.548l-34.516.025-49.324.031-49.318.037-49.318.03-49.32.036-49.317.031-49.32.031-49.317.036-28.957.02V79.704l5.985-7.532c.885-1.11 2.2-1.757 3.592-1.757l40.949-.026 43.142-.03 43.143-.026 43.143-.032 43.148-.03 43.143-.026 43.142-.03 43.143-.032 40.404-.025c1.737 0 3.38.802 4.485 2.188l11.288 14.14z" mask="url(#prefix__d)"/>
            <path fill="#FFF" d="M145.314 96.45l-49.32.033 26.35-33.15c.884-1.112 2.2-1.757 3.59-1.758l40.95-.027-21.57 34.902z" mask="url(#prefix__d)"/>
            <path fill="#F7C8B3" d="M194.632 96.417L145.313 96.45 166.883 61.548 210.027 61.52z" mask="url(#prefix__d)"/>
            <path fill="#FFF" d="M243.951 96.384L194.632 96.417 210.027 61.52 253.171 61.49z" mask="url(#prefix__d)"/>
            <path fill="#F7C8B3" d="M293.271 96.35L243.951 96.383 253.171 61.49 296.314 61.46z" mask="url(#prefix__d)"/>
            <path fill="#FFF" d="M342.59 96.317L293.271 96.35 296.315 61.461 339.458 61.432z" mask="url(#prefix__d)"/>
            <path fill="#F7C8B3" d="M391.909 96.284L342.59 96.317 339.458 61.432 382.602 61.403z" mask="url(#prefix__d)"/>
            <path fill="#FFF" d="M441.228 96.251L391.909 96.284 382.602 61.403 425.746 61.374z" mask="url(#prefix__d)"/>
            <path fill="#F7C8B3" d="M490.548 96.219L441.228 96.251 425.747 61.373 468.889 61.344z" mask="url(#prefix__d)"/>
            <path fill="#FFF" d="M539.867 96.185l-49.32.033-21.657-34.874 40.403-.026c1.736 0 3.382.801 4.488 2.186l26.086 32.681z" mask="url(#prefix__d)"/>
            <path fill="#DAE3EF" d="M120.679 124.252c-13.611.009-24.654-9.613-24.674-21.498l-.011-6.27 49.32-.033.01 6.233c.02 11.899-11.018 21.558-24.645 21.568" mask="url(#prefix__d)"/>
            <path fill="#EABBAB" d="M169.998 124.219c-13.61.009-24.654-9.613-24.674-21.498l-.01-6.27 49.32-.033.01 6.232c.02 11.9-11.019 21.558-24.646 21.569" mask="url(#prefix__d)"/>
            <path fill="#DAE3EF" d="M219.317 124.185c-13.611.01-24.654-9.613-24.674-21.498l-.01-6.27 49.319-.033.011 6.233c.019 11.9-11.018 21.56-24.646 21.568" mask="url(#prefix__d)"/>
            <path fill="#EABBAB" d="M268.637 124.152c-13.611.01-24.655-9.613-24.674-21.498l-.011-6.27 49.319-.033.01 6.233c.02 11.9-11.017 21.56-24.644 21.568" mask="url(#prefix__d)"/>
            <path fill="#DAE3EF" d="M317.956 124.119c-13.611.009-24.654-9.612-24.674-21.498l-.011-6.27 49.32-.033.01 6.233c.02 11.9-11.018 21.559-24.645 21.568" mask="url(#prefix__d)"/>
            <path fill="#EABBAB" d="M367.274 124.086c-13.61.009-24.654-9.612-24.673-21.498l-.01-6.27 49.318-.032.012 6.232c.019 11.9-11.019 21.559-24.647 21.568" mask="url(#prefix__d)"/>
            <path fill="#DAE3EF" d="M416.594 124.053c-13.611.008-24.654-9.612-24.674-21.498l-.01-6.27 49.319-.032.01 6.231c.02 11.9-11.018 21.56-24.645 21.569" mask="url(#prefix__d)"/>
            <path fill="#EABBAB" d="M465.913 124.02c-13.61.008-24.654-9.613-24.674-21.499l-.01-6.269 49.32-.033.01 6.232c.02 11.9-11.019 21.56-24.646 21.568" mask="url(#prefix__d)"/>
            <path fill="#DAE3EF" d="M515.232 123.986c-13.61.01-24.654-9.612-24.674-21.498l-.01-6.269 49.32-.033.01 6.233c.02 11.9-11.018 21.558-24.646 21.567" mask="url(#prefix__d)"/>
            <path fill="#FFF" d="M564.857 187.9l-145.148 19.987c-2.067.284-3.991-1.174-4.276-3.24l-8.12-58.96c-.284-2.068 1.174-3.992 3.24-4.276l145.15-19.989c2.067-.284 3.99 1.174 4.275 3.241l8.119 58.961c.285 2.067-1.173 3.991-3.24 4.275" mask="url(#prefix__d)"/>
            <path fill="#F7E8C8" d="M545.826 145.203l-63.34 8.723c-1.634.224-3.156-.93-3.38-2.563l-.02-.15c-.226-1.634.927-3.156 2.561-3.38l63.34-8.723c1.634-.224 3.156.929 3.381 2.563l.021.149c.225 1.635-.929 3.156-2.563 3.38" mask="url(#prefix__d)"/>
            <path fill="#FFF4DD" d="M549.486 164.345l-63.339 8.722c-1.635.225-3.156-.928-3.381-2.563l-.021-.148c-.225-1.635.928-3.156 2.563-3.381l63.339-8.722c1.634-.225 3.156.928 3.381 2.563l.021.148c.225 1.635-.928 3.155-2.563 3.381M551.316 177.634l-63.339 8.723c-1.635.224-3.157-.93-3.382-2.563l-.02-.15c-.225-1.634.928-3.156 2.562-3.38l63.34-8.723c1.634-.224 3.156.929 3.381 2.563l.021.149c.225 1.635-.929 3.156-2.563 3.38M473.602 166.611c1.543 9.684-2.041 19-8.75 25.183-3.94 3.632-8.96 6.183-14.65 7.09-5.905.942-11.673-.024-16.68-2.443-8.024-3.877-14.085-11.487-15.594-20.956-2.451-15.374 8.027-29.823 23.4-32.273 15.373-2.452 29.823 8.025 32.274 23.4" mask="url(#prefix__d)"/>
            <path fill="#FED843" d="M459.643 163.368h-5.532l6.652-11.176c.243-.404.249-.907.017-1.317-.233-.409-.666-.662-1.137-.662H443.96c-.6 0-1.122.408-1.267.99l-5.227 20.996c-.098.391-.011.804.237 1.12.248.319.628.503 1.03.503h5.954l-7.178 19.23c-.23.613.029 1.3.605 1.61.578.31 1.294.144 1.675-.383l9.398-13.009 11.512-15.827c.289-.397.33-.923.108-1.362-.224-.438-.674-.713-1.165-.713" mask="url(#prefix__d)"/>
            <path fill="#FABE2C" d="M460.808 164.08c-.224-.436-.674-.712-1.165-.712h-5.532l6.652-11.176c.243-.404.249-.907.017-1.317-.233-.41-.666-.662-1.137-.662h-10.455v31.057l11.512-15.827c.289-.397.33-.923.108-1.362" mask="url(#prefix__d)"/>
            <path fill="#FFB332" d="M625.423 60.247c5.636 19.812-5.855 40.44-25.665 46.077-19.812 5.637-40.44-5.854-46.077-25.665-5.637-19.81 5.853-40.44 25.664-46.077 19.812-5.637 40.442 5.854 46.077 25.665" mask="url(#prefix__d)"/>
            <path fill="#FFF" d="M595.115 97.878L562.984 79.24c-1.421-.824-1.802-2.705-.814-4.017l22.048-29.274c.833-1.107 2.363-1.417 3.562-.721l24.548 14.239c1.2.695 1.69 2.177 1.143 3.45L599.006 96.59c-.648 1.509-2.47 2.112-3.891 1.288" mask="url(#prefix__d)"/>
            <path fill="#F4B545" d="M603.985 62.084c-2.709 2.569-6.892 3.177-10.281 1.21-3.39-1.965-4.938-5.897-4.053-9.524l-3.467-2.011c-1.902 5.544.307 11.854 5.566 14.904 5.258 3.05 11.833 1.835 15.701-2.568l-3.466-2.011z" mask="url(#prefix__d)"/>
            <path fill="#F7E8C8" d="M38.469 136.643c0 8.85-7.174 16.023-16.024 16.023-8.85 0-16.024-7.173-16.024-16.023s7.174-16.024 16.024-16.024c8.85 0 16.024 7.174 16.024 16.024M607.85 120.93c0 6.258-5.072 11.33-11.33 11.33-6.257 0-11.33-5.071-11.33-11.33 0-6.258 5.073-11.33 11.33-11.33 6.258 0 11.33 5.073 11.33 11.33M277.5 191.879c0 3.878-.505 7.637-1.457 11.215-.306 1.155-.658 2.293-1.055 3.41-3.26 9.164-9.499 16.918-17.552 22.093-1.747 1.124-3.579 2.126-5.483 2.995-.853.388-1.72.75-2.602 1.084-2.142.813-4.364 1.462-6.65 1.932-2.21.454-4.483.74-6.8.845-.67.03-1.345.047-2.022.047-.64 0-1.28-.015-1.914-.043-4.608-.197-9.03-1.11-13.159-2.632-1.056-.387-2.09-.815-3.105-1.281-1.925-.885-3.775-1.903-5.536-3.05-1.173-.76-2.305-1.574-3.397-2.441-6.039-4.795-10.777-11.158-13.599-18.476-.388-1.001-.737-2.02-1.05-3.055-1.21-4-1.86-8.247-1.86-12.643 0-5.533 1.03-10.83 2.91-15.7l.03-.074c1.726-4.45 4.158-8.541 7.161-12.143.082-.1.164-.196.248-.294 8.001-9.428 19.937-15.41 33.271-15.41 24.091 0 43.621 19.53 43.621 43.62" mask="url(#prefix__d)"/>
            <path fill="#FFC839" d="M236.021 173.327L236.016 173.327 231.743 173.327 231.738 173.327 231.734 173.327 231.734 176.42 236.025 176.42 236.025 173.327z" mask="url(#prefix__d)"/>
            <path fill="#FFB332" d="M231.742 173.328l-.004-.001h-.005v3.093h2.146v-3.092h-2.137zM236.02 173.327c1.184-.002 2.142-.962 2.142-2.146s-.96-2.145-2.146-2.145h-2.137v4.29h2.142z" mask="url(#prefix__d)"/>
            <path fill="#FFC839" d="M229.597 171.182c0 1.184.958 2.143 2.14 2.145h2.142v-4.29h-2.136c-1.186 0-2.146.96-2.146 2.145" mask="url(#prefix__d)"/>
            <path fill="#BEC8F7" d="M233.879 173.328v-.001h-2.141 2.141z" mask="url(#prefix__d)"/>
            <path fill="#969287" d="M233.879 173.328h2.137l.005-.001h-2.142z" mask="url(#prefix__d)"/>
            <path fill="#FFB332" d="M249.055 162.259h-30.352c-1.185 0-2.146.96-2.146 2.146 0 1.185.96 2.145 2.146 2.145h.392v9.87h4.292v-9.87h20.985v9.87h4.292v-9.87h.39c1.186 0 2.147-.96 2.147-2.145 0-1.186-.961-2.146-2.146-2.146" mask="url(#prefix__d)"/>
            <path fill="#FFC839" d="M218.703 162.259c-1.185 0-2.146.96-2.146 2.146 0 1.185.96 2.145 2.146 2.145h.392v9.87h4.292v-9.87h10.492v-4.291h-15.176zM249.055 222.546h-30.352c-1.185 0-2.146.96-2.146 2.146v8.663c0 1.184.96 2.145 2.146 2.145h30.352c1.185 0 2.146-.961 2.146-2.145v-8.663c0-1.185-.961-2.146-2.146-2.146" mask="url(#prefix__d)"/>
            <path fill="#FFB332" d="M249.055 222.546H233.88V235.5h15.176c1.185 0 2.146-.961 2.146-2.145v-8.663c0-1.185-.96-2.146-2.146-2.146" mask="url(#prefix__d)"/>
            <path fill="#FFC839" d="M248.348 174.851H219.41c-6.23 0-11.284 5.053-11.284 11.284v29.418c0 6.233 5.053 11.284 11.285 11.284h28.938c6.232 0 11.284-5.05 11.284-11.284v-29.418c0-6.23-5.052-11.284-11.284-11.284" mask="url(#prefix__d)"/>
            <path fill="#FFB332" d="M248.348 174.851H233.88v51.986h14.47c6.231 0 11.283-5.05 11.283-11.284v-29.418c0-6.23-5.052-11.284-11.284-11.284" mask="url(#prefix__d)"/>
            <path fill="#E59D29" d="M243.17 199.731l-7.561-10.309c-.404-.55-1.047-.877-1.73-.877s-1.325.326-1.73.877l-7.561 10.31c-1.903 2.593-2.642 5.887-2.028 9.036.618 3.163 2.553 5.953 5.314 7.654 1.852 1.143 3.929 1.713 6.005 1.713 2.078 0 4.154-.57 6.006-1.713 2.76-1.7 4.696-4.49 5.313-7.654.614-3.149-.125-6.443-2.028-9.037" mask="url(#prefix__d)"/>
            <path fill="#FFB332" d="M240 206.282l-4.391-5.985c-.403-.551-1.046-.877-1.73-.877-.683 0-1.325.326-1.73.877l-4.39 5.985c-1.253 1.708-1.74 3.877-1.335 5.951.407 2.083 1.68 3.92 3.496 5.038 1.222.754 2.59 1.13 3.959 1.13 1.37 0 2.739-.376 3.96-1.13 1.815-1.118 3.09-2.955 3.496-5.038.404-2.074-.082-4.243-1.335-5.951" mask="url(#prefix__d)"/>
            <path fill="#FFB332" d="M226.424 212.233c-.405-2.074.082-4.243 1.334-5.95l4.391-5.987c.404-.55 1.047-.876 1.73-.876v-10.874c-.683 0-1.326.325-1.73.875l-7.562 10.31c-1.903 2.594-2.642 5.888-2.027 9.037.618 3.163 2.554 5.953 5.313 7.654.875.54 1.801.951 2.754 1.236-.241-.115-.476-.244-.707-.387-1.815-1.119-3.089-2.955-3.496-5.038" mask="url(#prefix__d)"/>
            <path fill="#F6DE41" d="M233.879 218.136c-1.095 0-2.19-.16-3.252-.478 1.031.496 2.141.744 3.252.744v-.266zM233.879 218.401c1.11 0 2.221-.248 3.252-.743-1.062.317-2.157.477-3.252.477v.266z" mask="url(#prefix__d)"/>
            <path fill="#FFC839" d="M233.879 218.136V199.42c-.683 0-1.326.326-1.73.877l-4.39 5.984c-1.253 1.708-1.74 3.877-1.335 5.952.407 2.083 1.681 3.92 3.496 5.038.23.143.466.272.707.387 1.062.318 2.157.478 3.252.478" mask="url(#prefix__d)"/>
        </g>
        <g transform="translate(83 150.446)">
            <mask id="prefix__g" fill="#fff">
                <use xlink:href="#prefix__e"/>
            </mask>
            <path fill="url(#prefix__f)" d="M1.01.809c-.326.326-.326.855 0 1.183l7.72 7.719c.327.327.857.327 1.183 0 .327-.326.327-.856 0-1.183L2.194.809C2.03.645 1.816.563 1.602.563c-.214 0-.428.082-.592.246" mask="url(#prefix__g)"/>
        </g>
        <g transform="translate(83 150.446)">
            <mask id="prefix__j" fill="#fff">
                <use xlink:href="#prefix__h"/>
            </mask>
            <path fill="url(#prefix__i)" d="M8.73.809L1.01 8.528c-.326.327-.326.857 0 1.183.327.327.856.327 1.184 0l7.719-7.719c.327-.328.327-.857 0-1.183C9.75.645 9.536.563 9.322.563c-.215 0-.429.082-.592.246" mask="url(#prefix__j)"/>
        </g>
        <g>
            <path fill="#FFA986" d="M93.36 80.194c-.013-.496-1.605-5.685-.761-6.059.843-.373 1.212-.612 1.492-.25.279.362 1.524 3.324 1.386 3.684-.139.36-2.117 2.625-2.117 2.625" transform="translate(68 84.446)"/>
            <path fill="#FFA986" d="M100.83 82.067c1.693-2.268 1.872-3.99-.396-5.683-2.268-1.693-4.085-1.194-5.778 1.074-1.693 2.267-2.137 4.798.13 6.491 2.268 1.693 4.35.386 6.044-1.882" transform="translate(68 84.446)"/>
            <path fill="#FFA986" d="M94.75 77.333c.222-.362 2.634-6.686 4.06-6.728 1.425-.042 7.826 2.525 6.992 5.124-1.514 1.899-4.74 6.028-4.74 6.028l-6.313-4.424z" transform="translate(68 84.446)"/>
            <path fill="#E59D29" d="M56.59 110.823c.275-.086.556-.16.839-.221.14-.03.283-.056.425-.08l.135-.02.042-.005.338-.038c.224-.027.358-.055.543-.078.172-.016.353-.074.53-.108.182-.047.353-.058.545-.128.379-.129.75-.201 1.145-.361l1.185-.459c.8-.394 1.61-.726 2.418-1.218l1.216-.685 1.203-.787c.399-.269.809-.508 1.203-.8l1.18-.88 1.186-.879 1.152-.961 1.153-.964c.389-.315.77-.641 1.138-.996l2.236-2.075c.379-.337.737-.705 1.095-1.074l1.079-1.102c.713-.743 1.455-1.451 2.147-2.224l2.079-2.315c.69-.774 1.4-1.531 2.054-2.349l1.999-2.413c.66-.81 1.352-1.592 1.978-2.438l3.843-4.996 6.395 4.458-3.676 5.415c-.598.912-1.274 1.779-1.915 2.668l-1.946 2.652c-.633.895-1.34 1.746-2.023 2.611l-2.065 2.591c-.688.864-1.447 1.686-2.168 2.53l-1.097 1.26c-.364.422-.73.842-1.126 1.243l-2.333 2.437c-.381.412-.79.807-1.21 1.193l-1.243 1.172-1.25 1.17-1.328 1.119-1.332 1.117c-.447.372-.94.71-1.41 1.067l-1.427 1.055c-.498.335-1.014.66-1.522.989-.992.677-2.12 1.257-3.215 1.857-.577.279-1.173.545-1.763.813-.586.271-1.251.484-1.877.72-.31.123-.667.206-1 .308-.342.094-.671.203-1.03.273-.34.075-.728.164-1.033.218l-.456.081-.057.01c-.006.001-.027.004-.021.004l.057-.007c.076-.011.153-.025.229-.042.152-.035.3-.083.443-.143l-3.686-10.185z" transform="translate(68 84.446)"/>
            <path fill="#FFC581" d="M9.695 240.223l-1.461 4.178s-1.14.94-2.648.94c-1.51 0-1.701-.69-1.725-.998-.024-.307 1.395-5.058 1.395-5.058l4.439.938z" transform="translate(68 84.446)"/>
            <path fill="#7F786A" d="M4.757 240.248h5.476c8.753-17.667 41.278-77.14 41.593-78.006.368-1.012-16.44-4.673-16.44-4.673s-3.739 5.749-6.905 11.824c-3.87 7.422-6.344 29.346-6.344 29.346s-11.436 5.986-17.38 41.509" transform="translate(68 84.446)"/>
            <path fill="#FFC581" d="M60.848 239.945l.333 4.162s-.747.936-2.276.936c-1.53 0-2.023-.688-2.181-.994-.157-.304-.782-5.04-.782-5.04l4.906.936z" transform="translate(68 84.446)"/>
            <path fill="#7F786A" d="M70.549 248.974H61.72c-.268-.106-.548-.213-.876-.297-.379-.098-1.852-.164-1.852-.164l-.048.461h-3.756c-.002-1.133.768-4.652.81-4.909.047-.304.413-.38.534-.304.12.076 1.236 1.062 2.354 1.062s2.143-1.1 2.453-1.138c.31-.037 1.113.48 1.113.48s6.724 3.54 7.587 3.842c.734.26.547.665.51.967M15.755 248.008c-.421-.148-2.245-1.07-3.998-1.974v2.94h4.51c.037-.301.224-.707-.511-.966" transform="translate(68 84.446)"/>
            <path fill="#57575E" d="M55.188 248.974c0-.287.05-.726.123-1.227 1.151.011 2.886-.01 3.62-.01.89 0 2.212.671 3.001.671h8.63c.077.191.008.395-.014.566H61.72c-.269-.106-.549-.213-.875-.297-.38-.098-1.853-.164-1.853-.164l-.049.461h-3.755z" transform="translate(68 84.446)"/>
            <path fill="#7F786A" d="M55.55 240.492l5.735.146c.233-11.055 1.726-81.756 1.625-82.691-.11-1.017-14.18.102-14.18.102s-1.26 5.43-1.544 11.526c-.348 7.451 6.402 29.15 6.402 29.15s-7.349 6.711 1.962 41.767" transform="translate(68 84.446)"/>
            <path fill="#FFBF4D" d="M63.74 158.248c-.739.185.923 4.063-8.682 4.618-9.606.554-18.84-4.25-19.765-5.542-.924-1.293 2.293-12.35 3.031-16.414.74-4.064-5.063-23.67-4.878-26.071.185-2.402 11.54-5.935 11.54-5.935l7.532-.345c3.072-.142 6.13.497 8.89 1.854 1.24.609 2.394 1.189 2.886 1.47 1.293.739.554 19.396.37 22.35-.185 2.957-.924 24.015-.924 24.015" transform="translate(68 84.446)"/>
            <path fill="#FFC581" d="M54.333 101.575l-.965-4.238-7.973 2.559s0 8.057-.419 9.022c.423 1.149 4.321 3.769 6.101 3.681 3.801-.188 3.517-3.609 3.541-3.729.042-.21-.285-7.295-.285-7.295" transform="translate(68 84.446)"/>
            <path fill="#FFBC3F" d="M54.333 101.575l-.965-4.238-7.94 2.549c.06.552.1.903.1.948 0 .049.121.309.313.69 1.726 3.43 4.766 6.063 8.462 7.105.124.035.244.066.36.093-.104-2.535-.33-7.147-.33-7.147" transform="translate(68 84.446)"/>
            <path fill="#FFC581" d="M58.249 89.369c-.116 4.548-.566 14.712-1.231 15.725-.538.43-1.974.51-3.52.45-3.2-.127-6.144-1.843-7.78-4.595-.101-.17-.16-.283-.16-.317 0-.235-1.191-8.83-.37-10.827.824-1.997 1.567-2.154 1.567-2.154s1.292-1.095 4.307-1.056c1.768.023 3.925.34 5.408.602 1.05.184 1.806 1.107 1.779 2.172" transform="translate(68 84.446)"/>
            <path fill="#57575E" d="M47.343 98.972l.57-6.608c.067-.788-.274-1.559-.909-2.03-1.15-.852-2.952-2.016-3.612-1.493-1 .79 1.345 9.026 1.678 9.36.333.333 2.273.77 2.273.77" transform="translate(68 84.446)"/>
            <path fill="#57575E" d="M47.147 92.763c.281-.313.187-2.098 2.252-2.223 2.066-.125 4.1.408 5.695.345 1.596-.063 3.098-.75 3.192-.157.876-3.253 3.316-8.134-.157-9.354-3.473-1.22-8.51 1.376-9.23 1.877-.72.5-2.065 3.097-3.004 3.785-.938.69-2.816 1.816-2.69 2.096.125.282 1.47 3.319 1.69 3.319.218 0 2.252.312 2.252.312" transform="translate(68 84.446)"/>
            <path fill="#FFC581" d="M46.935 98.288c-.811-.945-1.603-2.556-2.64-2.124-1.036.433-.916 4.97 2.633 3.908.438-1.328.007-1.784.007-1.784" transform="translate(68 84.446)"/>
            <path fill="#FFBF4D" d="M43.299 116.226c-.028-.04-.058-.078-.089-.115l-.048-.056-.004-.004.024.025.019.03c.006.01.045.041.066.06.112.095.166.182.317.293l.41.331c.132.114.322.222.479.334l.492.341.559.32c.375.212.731.44 1.154.626l1.223.592 1.306.525c.852.376 1.794.645 2.707.955 3.713 1.157 7.687 1.927 11.72 2.482 1.007.146 2.036.221 3.053.336 1.023.092 2.034.241 3.068.29l3.093.183c1.033.06 2.062.137 3.104.14l3.118.057c1.041.012 2.079.063 3.124.025l6.269-.116.43 7.784-6.505.37c-1.082.08-2.176.071-3.266.1l-3.273.064c-1.089.04-2.187.002-3.284-.02l-3.292-.07c-1.096-.01-2.203-.125-3.305-.183-1.103-.08-2.205-.123-3.312-.238-4.426-.44-8.879-1.107-13.356-2.314-1.119-.328-2.238-.61-3.36-1.043l-1.683-.607-1.685-.732c-.56-.228-1.124-.538-1.687-.832l-.842-.448-.85-.527c-.284-.185-.561-.34-.85-.553l-.861-.637c-.28-.202-.598-.5-.89-.752-.077-.07-.142-.122-.228-.208l-.256-.26-.253-.265-.071-.077-.111-.132-.217-.269 7.843-5.805z" transform="translate(68 84.446)"/>
            <path fill="#7F786A" d="M5.248 247.052s1.38.519 1.71.728c.287.18.52.369.743.552l.34.112h6.249c-1.81-1.79-4.41-4.458-4.41-4.458s-.603-.742-.91-.801c-.305-.06-1.62.67-2.683.323-1.064-.345-1.821-1.627-1.913-1.736-.091-.11-.462-.15-.601.125-.118.23-1.937 3.341-2.285 4.42l3.572 1.159.188-.424z" transform="translate(68 84.446)"/>
            <path fill="#57575E" d="M8.951 248.738h1.834l-2.709-.879c-.75-.244-1.8-1.29-2.647-1.565-.697-.227-2.355-.742-3.447-1.107-.224.453-.407.856-.495 1.13l3.572 1.158.188-.424s1.381.52 1.712.73c.285.18.518.367.741.551l1.251.406z" transform="translate(68 84.446)"/>
            <path fill="#57575E" d="M16.262 248.408H8.067c.125.124 1.58.501 1.63.566h6.55c.023-.17.092-.375.015-.566" transform="translate(68 84.446)"/>
            <path fill="#FFAC34" d="M136.934 98.832c-2.303-16.524-17.565-28.054-34.09-25.751-16.524 2.302-28.054 17.564-25.75 34.089 2.301 16.524 17.564 28.054 34.09 25.75 16.522-2.301 28.052-17.564 25.75-34.088" transform="translate(68 84.446)"/>
            <path fill="#FFBC3F" d="M130.208 99.77c-1.785-12.812-13.616-21.749-26.427-19.964-12.81 1.784-21.747 13.616-19.962 26.426 1.785 12.81 13.616 21.748 26.427 19.963 12.81-1.785 21.747-13.616 19.962-26.426" transform="translate(68 84.446)"/>
            <path fill="#FFA331" d="M108.671 92.89c.61-.318.786-1.186.395-1.938-.392-.752-1.204-1.105-1.813-.789l-6.623 3.448-4.413 2.297c-.61.317-.787 1.185-.395 1.937.391.752 1.203 1.105 1.813.788l4.413-2.298c1.438-.748 3.246-.238 4.528 1.108l-7.523 3.915c-.61.317-.787 1.184-.395 1.936.391.752 1.204 1.106 1.813.788l7.522-3.915c.368 1.822-.252 3.595-1.69 4.343l-4.415 2.298c-.142.074-.267.185-.367.322-.197.28-.275.656-.213 1.05.06.392.255.768.541 1.041.144.141.302.248.471.32l14.5 6.302c.355.154.707.141.99-.006.281-.147.495-.427.573-.804.154-.756-.294-1.62-1.002-1.927l-11.41-4.96 1.75-.91c2.667-1.389 3.675-4.892 2.57-8.264l1.216-.634c.61-.316.786-1.184.394-1.936-.39-.752-1.203-1.106-1.811-.788l-1.216.632c-.694-.927-1.536-1.652-2.438-2.194l2.235-1.163z" transform="translate(68 84.446)"/>
            <path fill="#FFC581" d="M88.492 124.692c.354-.35 3.062-5.053 3.91-4.69.848.361 1.276.468 1.201.92-.074.45-1.39 3.38-1.748 3.526-.358.144-3.363.244-3.363.244" transform="translate(68 84.446)"/>
            <path fill="#FFC581" d="M92.218 131.43c2.813-.31 4.194-1.353 3.885-4.167-.309-2.812-1.914-3.8-4.727-3.49-2.813.308-4.966 1.71-4.657 4.523.31 2.813 2.686 3.445 5.5 3.135" transform="translate(68 84.446)"/>
            <path fill="#FFC581" d="M91.532 123.755c.417-.084 6.687-2.634 7.689-1.62 1.003 1.014 3.493 7.444 1.024 8.607-2.421.189-7.641.647-7.641.647l-1.072-7.634z" transform="translate(68 84.446)"/>
            <path fill="#FFA331" d="M17.606 9.925c.596.34 1.42.02 1.842-.716.42-.736.279-1.61-.317-1.951L12.65 3.552 8.33 1.08c-.596-.341-1.421-.02-1.842.716-.421.736-.28 1.61.317 1.95l4.32 2.472c1.407.804 1.956 2.6 1.517 4.406L5.28 6.414c-.596-.341-1.422-.02-1.842.716-.421.736-.28 1.61.317 1.95l7.362 4.21c-1.333 1.295-3.16 1.733-4.567.929l-4.32-2.471c-.14-.081-.3-.126-.47-.135-.341-.014-.701.124-1 .388-.295.262-.506.63-.581 1.019-.041.196-.045.388-.013.569l2.539 15.604c.063.382.264.67.54.829.277.158.629.186.988.049.719-.28 1.202-1.125 1.078-1.886l-1.998-12.28 1.712.98c2.61 1.492 6.1.445 8.34-2.308l1.19.68c.597.342 1.423.022 1.843-.715.42-.735.279-1.61-.317-1.951l-1.19-.681c.405-1.084.559-2.185.527-3.237l2.188 1.252z" transform="translate(68 84.446)"/>
        </g>
    </g>
</svg>
