<svg xmlns="http://www.w3.org/2000/svg" xmlns:xlink="http://www.w3.org/1999/xlink" width="155" height="155" viewBox="0 0 155 155">
    <defs>
        <filter id="prefix__a" width="165.2%" height="165.2%" x="-32.6%" y="-19.6%" filterUnits="objectBoundingBox">
            <feOffset dy="15" in="SourceAlpha" result="shadowOffsetOuter1"/>
            <feGaussianBlur in="shadowOffsetOuter1" result="shadowBlurOuter1" stdDeviation="10"/>
            <feColorMatrix in="shadowBlurOuter1" values="0 0 0 0 1 0 0 0 0 0.699027652 0 0 0 0 0.0927210366 0 0 0 0.15 0"/>
        </filter>
        <circle id="prefix__b" cx="57.5" cy="57.5" r="57.5"/>
    </defs>
    <g fill="none" fill-rule="evenodd" transform="translate(20 5)">
        <use fill="#000" filter="url(#prefix__a)" xlink:href="#prefix__b"/>
        <use fill="#FFF" xlink:href="#prefix__b"/>
        <g>
            <path fill="#D3DCFB" d="M84.98 42.49c0 3.777-.493 7.438-1.42 10.924-.298 1.126-.64 2.234-1.028 3.32-3.175 8.928-9.252 16.48-17.096 21.522-1.702 1.094-3.486 2.07-5.342 2.917-.83.378-1.675.732-2.534 1.056-2.086.792-4.25 1.424-6.477 1.88h-.002c-2.152.444-4.365.723-6.623.825-.652.03-1.31.045-1.969.045-.624 0-1.247-.013-1.864-.041-4.488-.192-8.796-1.082-12.818-2.563-1.028-.378-2.036-.795-3.025-1.25-1.874-.861-3.676-1.853-5.392-2.968-1.142-.74-2.245-1.535-3.308-2.38C10.2 71.107 5.584 64.909 2.835 57.78c-.378-.975-.718-1.967-1.023-2.976C.633 50.908 0 46.772 0 42.49c0-5.39 1.004-10.548 2.835-15.293l.028-.072c1.682-4.333 4.051-8.32 6.977-11.828l.241-.286C17.875 5.828 29.501 0 42.49 0 65.956 0 84.98 19.023 84.98 42.49" transform="translate(14 18)"/>
            <path fill="#A8B7EF" d="M57.783 50.09c0 13.687-11.093 24.636-24.635 24.636-13.543 0-24.636-10.949-24.636-24.636S33.148 5.573 33.148 5.573 57.783 36.547 57.783 50.09" transform="translate(14 18)"/>
            <path fill="#FFF" d="M33.147 68.243c-9.94 0-18.152-8.067-18.152-18.152 0-1.153 1.008-2.161 2.161-2.161 1.152 0 2.161 1.008 2.161 2.16 0 7.636 6.195 13.83 13.83 13.83 1.152 0 2.161 1.01 2.161 2.162s-1.009 2.16-2.16 2.16" transform="translate(14 18)"/>
            <path fill="#FFC839" d="M91.436 49.53c0 7.845-6.358 14.12-14.12 14.12-7.761 0-14.12-6.275-14.12-14.12 0-7.844 14.12-25.515 14.12-25.515s14.12 17.753 14.12 25.515" transform="translate(14 18)"/>
            <path fill="#FFF" d="M77.317 59.934c-5.698 0-10.404-4.624-10.404-10.404 0-.66.578-1.239 1.238-1.239s1.239.579 1.239 1.239c0 4.377 3.55 7.927 7.927 7.927.66 0 1.239.578 1.239 1.239 0 .66-.578 1.238-1.24 1.238" transform="translate(14 18)"/>
            <path fill="#816AE2" d="M72.115 78.324c0 4.955-4.016 8.918-8.918 8.918-4.902 0-8.918-3.963-8.918-8.918 0-4.954 8.918-16.114 8.918-16.114s8.918 11.213 8.918 16.114" transform="translate(14 18)"/>
            <path fill="#FFF" d="M63.197 84.895c-3.6 0-6.571-2.92-6.571-6.571 0-.417.365-.783.782-.783.417 0 .783.366.783.783 0 2.764 2.242 5.007 5.006 5.007.417 0 .782.365.782.782 0 .417-.365.782-.782.782" transform="translate(14 18)"/>
        </g>
    </g>
</svg>
