<svg xmlns="http://www.w3.org/2000/svg" xmlns:xlink="http://www.w3.org/1999/xlink" width="508" height="343" viewBox="0 0 508 343">
    <defs>
        <path id="prefix__a" d="M0.695 0.556L507.179 0.556 507.179 340.332 0.695 340.332z"/>
        <path id="prefix__c" d="M0.516 0.012L26.27 0.012 26.27 36 0.516 36z"/>
    </defs>
    <g fill="none" fill-rule="evenodd">
        <g transform="translate(0 .444)">
            <mask id="prefix__b" fill="#fff">
                <use xlink:href="#prefix__a"/>
            </mask>
            <path fill="#FFF4DD" d="M33.365 332.494c8.288-16.441-33.993-38.59-32.638-71.951 1.183-29.118 35.312-59.612 60.825-56.375 28.313 3.592 43.301 48.376 55.855 43.537 5.237-2.02 6.18-11.181 6.454-13.866 3.081-29.987-34.956-41.653-47.576-76.521-10.263-28.357-3.517-71.517 26.065-91.12 28.846-19.113 72.57-11.3 89.013 10.385 13.637 17.983 6.95 43.445 14.093 44.507 5.2.77 13.712-11.975 13.352-24.48-.324-11.262-2.513-12.436-6.432-21.397-9.113-20.833-12.416-25.117.14-46.528C234.371-8.58 296.63-6.26 319.978 20.663c20.852 24.044 19 45.685 17.513 53.694-2.523 13.616-7.459 27.68-3.709 29.67 2.93 1.556 8.467-6.63 18.545-15.576 8.168-7.251 26.426-23.46 46.732-24.478 20.747-1.041 40.49 13.935 50.44 30.413 13.675 22.643 12.136 53.542-2.225 71.21-14.005 17.229-35.815 16.477-40.055 33.379-1.819 7.246-1.55 16.983 3.708 20.77 6.38 4.595 15.202-2.934 29.671-5.935 15.24-3.16 38.63-1.687 52.666 11.87 17.181 16.592 17.9 48.922 5.192 67.5-12.344 18.047-36.467 21.81-34.863 28.929.584 2.592 4.01 3.114 17.802 8.902 12.865 5.397 19.286 8.9 19.286 8.9l-482.238-.126s9.474 3.519 14.922-7.291" mask="url(#prefix__b)"/>
        </g>
        <path fill="#FFF4DD" d="M369.272 50.147c-1.473-8.793 13.562 28.645-20.558 11.069-8.88-4.574-5.376-26.37-1.054-27.41 2.008-.482 3.067 3.783 10.015 8.962 6.972 5.196 11.17 4.822 11.597 7.379M76.327 181.524c2.5 7.832 3.75 11.747 2.108 13.178-3.249 2.833-18.497-3.097-18.976-12.651-.33-6.585 6.426-13.534 10.543-12.65 2.636.565 3.866 4.418 6.325 12.123"/>
        <path fill="#A4B751" d="M320.842 323.498c2.14-1.068 4.086-2.488 5.767-4.191 15.454-15.663 28.835-27.651 38.746-36.11 10.129-8.644 18.669-15.34 22.243-12.933 3.564 2.4.9 12.974 0 16.553-.497 1.978-1.103 3.805-1.765 5.48-.766 1.935 1.354 3.74 3.139 2.668 2.134-1.28 4.606-2.502 7.42-3.491 5.252-1.846 16.452-4.548 18.622-1.036.944 1.529.677 5.034-7.756 14.358-1.65 1.826.238 4.644 2.55 3.805 2.818-1.022 5.939-1.942 9.345-2.644 3.234-.666 27.67-5.697 33.106 4.139 2.627 4.755.27 23.536-19.14 31.553-143.451-.387-139.15-.173-139.15-.173.22-.103 10.742-9.928 26.873-17.978M154.617 341.699c-10.312-14.351-31.738-43.046-46.39-50.79-1.712-.903-5.98-3.16-7.448-1.752-.899.862-.534 2.896.507 5.454.75 1.84-1.372 3.515-2.988 2.359-2.416-1.726-5.23-3.38-8.47-4.747-10.13-4.273-23.126-5.204-24.534-1.752-1.137 2.79 5.33 8.35 17.524 18.837l.064.056c1.624 1.396.515 4.053-1.619 3.877-7.337-.604-18.289-1.522-22.102-.865-5.969 1.027-13.224 4.732-13.143 8.323.081 3.538 7.223 4.165 15.333 10.514 6.03 4.719 8.63 6.33 10.801 10.486 27.891-.292 54.574.292 82.465 0M162.062 341.822c-7.863-4.591-8.776-8.931-6.466-15.432 3.113-8.762 15.34-9.716 17.33-9.828l.134-.008c3.454-.172 5.266-4.172 3.103-6.872l-.91-1.138c-8.943-11.216-10.636-14.212-9.829-17.071 1.018-3.603 5.52-5.25 6.725-5.69 12.963-4.738 29.414 9.362 35.692 14.743 2.165 1.855 4.06 3.668 5.691 5.347 1.055 1.086 2.876.32 2.863-1.196-.009-1.058.13-2.195.5-3.376.988-3.163 3.434-6.028 6.207-6.983 1.99-.684 7.418-1.512 20.173 11.898 7.238 7.608 16.78 16.398 24.744 35.606-34.572.172-71.385-.173-105.957 0"/>
        <path fill="#619440" d="M432.716 317.847c-.127-.395-.822-.486-.896 0-.164 1.09-.349 2.111-.943 3.06-.586.934-1.4 1.733-2.313 2.346-2.164 1.456-4.792 1.974-7.199 2.887l-.232.092c.173-.999.39-1.99.656-2.965.211-.773.445-1.539.711-2.294.264-.752.695-1.503.798-2.292.064-.49-.68-.772-.986-.408-.514.61-.75 1.498-1.017 2.243-.296.831-.552 1.673-.76 2.53-.298 1.228-.502 2.464-.619 3.715-3.992 1.9-7.204 5.045-10.18 8.285-1.734 1.89-3.812 3.876-3.969 6.592-.036.622.883.594.951 0 .282-2.434 2.52-4.304 4.104-5.977.542-.573 1.091-1.14 1.648-1.7.088.211.31.38.572.311 2.115-.549 4.176-1.109 6.368-1.277 1.031-.078 2.065-.09 3.098-.04.555.028 1.11.08 1.663.135.513.052 1.028.14 1.524-.039.264-.095.444-.477.183-.69-.807-.66-2.134-.633-3.133-.685-1.15-.059-2.306-.037-3.453.067-1.995.181-4.062.563-5.929 1.34.936-.899 1.906-1.76 2.935-2.55 1.118-.86 2.294-1.597 3.53-2.223.091.546.954.477 1.023-.123.015-.128.032-.255.048-.383.666-.295 1.348-.56 2.048-.795 2.361-.794 4.86-1.45 6.866-2.993 1.751-1.346 3.663-3.813 2.903-6.169M399.516 301.538c-.519 1.445-.944 2.895-1.672 4.258-.72 1.349-1.614 2.599-2.67 3.704-2.25 2.35-5.195 3.82-7.677 5.889-2.152 1.791-3.856 4.032-5.5 6.288.385-1.529.777-3.055 1.23-4.567.385-1.281.8-2.555 1.242-3.82.235-.67.474-1.34.718-2.01.213-.584.48-1.18.372-1.806-.043-.25-.417-.413-.624-.255-.482.372-.679.928-.899 1.486-.262.66-.5 1.332-.732 2.005-.46 1.346-.89 2.702-1.285 4.067-.684 2.365-1.305 4.76-1.689 7.192-1.907 2.62-3.814 5.24-5.705 7.87-2.016 2.805-4.119 5.832-4.318 9.394-.042.755 1.074.724 1.155 0 .362-3.216 2.25-5.915 4.121-8.45.877-1.187 1.752-2.375 2.626-3.564 2.706-1.428 5.647-2.474 8.68-2.897 1.444-.2 2.91-.257 4.337-.567 1.2-.262 2.92-.738 3.376-2.005.122-.341-.243-.62-.55-.551-.667.15-1.19.6-1.823.854-.66.267-1.366.42-2.067.536-1.437.236-2.895.31-4.329.577-2.159.4-4.24 1.096-6.18 2.09.828-1.126 1.655-2.252 2.481-3.38 1.933-2.642 3.84-5.366 6.378-7.474 2.49-2.065 5.428-3.52 7.678-5.885 2.214-2.327 4.201-5.563 4.516-8.818.07-.72-.974-.764-1.19-.161M369.875 295.149c-.856 1.615-1.74 3.125-2.972 4.489-1.227 1.362-2.637 2.548-4.103 3.643-2.183 1.632-4.488 3.102-6.678 4.723.768-1.5 1.686-2.928 2.756-4.222.724-.875 1.517-1.694 2.37-2.444.427-.375.86-.743 1.313-1.087.437-.333 1.008-.611 1.256-1.122.134-.276-.024-.65-.367-.64-.586.018-1.032.4-1.488.735-.485.356-.962.727-1.413 1.124-.928.82-1.782 1.728-2.552 2.697-1.454 1.83-2.577 3.856-3.317 6.067-.35.28-.695.566-1.035.859-1.492 1.289-2.828 2.727-3.956 4.346-1.324 1.903-2.363 3.982-3.452 6.024-1.098 2.058-2.257 4.107-3.794 5.874-1.554 1.788-3.394 3.296-5.323 4.66-1.595 1.127-3.23 2.194-4.878 3.243.76-1.3 1.099-2.86 1.167-4.35.037-.798-.024-1.597-.155-2.385-.111-.672-.248-1.483-.858-1.88-.214-.138-.475.007-.55.224-.205.599.08 1.279.19 1.877.13.712.172 1.44.143 2.164-.057 1.458-.482 2.789-.982 4.146-.121.329.119.567.398.615-3.153 1.994-6.341 3.937-9.377 6.107-.443.317-.058 1.018.434.743 2.448-1.365 4.809-2.865 7.18-4.357 2.209-1.39 4.438-2.753 6.613-4.192 1.969-1.303 3.896-2.7 5.6-4.34 1.698-1.635 3.075-3.52 4.25-5.557 1.13-1.958 2.13-3.972 3.269-5.892.073.16.237.275.443.204 1.827-.626 3.695-1.15 5.632-1.251.913-.048 1.83-.038 2.74.052.912.092 1.888.462 2.798.325.28-.042.387-.477.172-.653-.73-.598-1.833-.668-2.741-.776-1.024-.122-2.056-.152-3.083-.067-1.937.159-3.854.6-5.571 1.52 1.038-1.68 2.205-3.27 3.686-4.668 2.806-2.647 6.138-4.637 9.243-6.898 3.199-2.33 6.847-5.29 7.944-9.28.153-.558-.671-.931-.952-.4M220.716 340.033c-2.62-2.431-3.931-5.69-5.3-8.91-1.37-3.23-2.942-6.368-4.72-9.393-1.795-3.058-3.795-5.998-5.977-8.795-.597-2.038-1.318-4.043-2.218-5.965-.488-1.041-1.014-2.065-1.58-3.066-.5-.888-1.05-2.137-1.935-2.69-.346-.215-.677.14-.624.48.079.513.397.953.652 1.397.276.48.563.957.839 1.438.55.964 1.066 1.947 1.545 2.948.478.997.928 2.005 1.346 3.027-1.553-1.843-3.187-3.618-4.897-5.316-2.833-2.812-5.88-5.382-9.111-7.723-.518-.375-.992.474-.497.85 9.588 7.285 17.572 16.63 23.18 27.275-1.4-1.023-2.881-1.926-4.46-2.65-.941-.43-1.904-.813-2.887-1.14-.774-.256-2.106-.871-2.886-.445-.178.098-.274.384-.146.558.52.706 1.8.784 2.599 1.033.96.3 1.909.65 2.828 1.06 1.869.835 3.644 1.847 5.296 3.055.14.103.295.097.427.032.67 1.34 1.306 2.7 1.9 4.079 1.474 3.42 2.784 7.287 5.793 9.694.578.462 1.4-.307.833-.833"/>
        <g transform="translate(221 306.444)">
            <mask id="prefix__d" fill="#fff">
                <use xlink:href="#prefix__c"/>
            </mask>
            <path fill="#619440" d="M26.08 35.315c-4.623-2.514-7.616-7.146-9.726-11.824-2.288-5.072-3.594-10.52-5.895-15.589-.646-1.424-1.376-2.813-2.216-4.13C7.41 2.465 6.477 1.038 5.227.101c-.433-.325-1.004.301-.73.728.768 1.185 1.749 2.22 2.518 3.413.77 1.194 1.442 2.448 2.05 3.732.264.557.512 1.12.753 1.688-1.33-.707-2.73-1.279-4.181-1.684-.801-.223-1.612-.393-2.435-.507-.75-.104-1.664-.246-2.391.015-.283.101-.445.588-.096.735.645.273 1.404.286 2.095.375.812.104 1.619.24 2.416.428 1.578.374 3.094.943 4.534 1.687.18.093.352.066.482-.022.714 1.776 1.346 3.586 1.97 5.395 1.749 5.06 3.536 10.203 6.859 14.48 1.796 2.31 3.969 4.16 6.633 5.396.429.2.806-.413.377-.646" mask="url(#prefix__d)"/>
        </g>
        <path fill="#619440" d="M191.696 341.435c-1.725-2-3.645-3.845-5.51-5.712-1.608-1.608-3.253-3.189-5.034-4.605-1.728-1.373-3.567-2.625-5.58-3.544-1.886-.861-4.134-1.678-6.234-1.443-.509.057-.719.836-.13.968 1.063.238 2.15.36 3.203.648.997.271 1.966.638 2.897 1.085.933.45 1.83.969 2.697 1.538-1.475-.142-2.958-.206-4.438-.289l-3.097-.171c-.914-.051-2.07-.311-2.923.08-.3.137-.252.583 0 .733.757.454 1.937.32 2.795.364l3.096.161c2.021.105 4.05.254 6.071.179.396.297.786.602 1.168.913 3.686 3.01 6.777 6.64 10.362 9.751.453.393 1.048-.203.657-.656M127.33 340.615c-5.834-2.09-9.006-7.78-11.893-13.112.328-.108.492-.636.116-.903-.32-.225-.643-.448-.968-.668-.405-.741-.809-1.467-1.218-2.167-2.196-3.748-4.739-7.307-7.576-10.613.064-.086.096-.2.065-.335-.518-2.314-1.203-4.53-2.27-6.653-.536-1.066-1.13-2.101-1.785-3.098-.56-.855-1.123-1.953-2.098-2.362-.34-.143-.58.253-.535.535.164.994 1.106 1.869 1.65 2.698.606.926 1.163 1.884 1.668 2.869.843 1.645 1.617 3.356 2.22 5.112-2.376-2.646-4.943-5.117-7.68-7.373-3.632-2.993-7.563-5.776-11.776-7.888-.687-.345-1.277.639-.607 1.037 3.668 2.183 7.234 4.465 10.546 7.169 3.311 2.702 6.4 5.682 9.2 8.909 2.787 3.212 5.281 6.673 7.448 10.332.031.05.06.102.09.152-1.177-.685-2.387-1.313-3.639-1.861-1.26-.551-2.554-1.03-3.865-1.448-1.13-.36-2.699-1.08-3.889-.745-.357.1-.539.613-.23.876.495.426 1.085.548 1.707.708.678.176 1.354.36 2.025.567 1.256.387 2.49.839 3.708 1.332 1.817.736 3.597 1.573 5.304 2.536 1.497 2.689 2.911 5.426 4.641 7.976 2.33 3.436 5.254 6.454 9.24 7.873.917.326 1.31-1.13.401-1.455M95.688 340.92c-1.73-3.019-3.819-5.822-6.197-8.353.183-.238.196-.609-.14-.813-.508-.309-1.026-.606-1.55-.893-2.673-2.556-5.658-4.786-8.875-6.614-.44-.93-.91-1.84-1.414-2.744-.674-1.209-1.318-2.504-2.21-3.568-.126-.15-.414-.232-.598-.159-.106.043-.185.083-.27.16-.224.192-.203.504-.098.744.554 1.264 1.39 2.43 2.065 3.634l.467.836c-.74-.37-1.49-.722-2.25-1.049-2.486-1.07-5.055-1.918-7.693-2.522-.679-.155-.97.884-.288 1.05 3.97.958 7.79 2.491 11.34 4.504.152.275.306.551.461.826.25.444.74.333.954.013 1.506.927 2.961 1.941 4.35 3.04-.182-.068-.363-.135-.546-.196-1.093-.372-2.206-.687-3.333-.942-.905-.205-2.199-.68-3.072-.236-.294.15-.338.594-.105.813.672.633 1.928.601 2.8.792 1.084.24 2.157.531 3.212.878 1.444.474 2.851 1.018 4.22 1.653 1.076 1.028 2.101 2.107 3.068 3.237 1.741 2.032 3.277 4.227 4.61 6.548.405.706 1.498.07 1.092-.639M142.434 341.141c-.72-1.983-2.034-3.863-3.144-5.65-.155-.25-.314-.499-.472-.747l.182.071c.648.253.914-.778.286-1.036l-1.486-.609c-.682-1.029-1.381-2.047-2.102-3.048-.517-.717-1.051-1.422-1.594-2.12.042-.105.052-.23.015-.372-.302-1.137-.577-2.283-.826-3.434-.2-.927-.186-2.342-.914-3.022-.182-.17-.508-.155-.633.082-.483.914.034 2.21.25 3.152.109.476.229.95.355 1.42-1.596-1.91-3.274-3.753-5.01-5.539-.335-.343-.846.173-.525.525 2.88 3.146 5.503 6.514 7.969 9.994.368.52.729 1.045 1.087 1.572l-.06-.024c-1.027-.42-2.247-1.166-3.364-1.213-.396-.018-.642.538-.334.807.846.741 2.227 1.042 3.263 1.447l1.576.616c.445.688.884 1.38 1.31 2.077.528.863 1.04 1.733 1.54 2.612.539.95 1 1.972 1.638 2.858.33.461 1.22.206.993-.419"/>
        <path fill="#FFC581" d="M243.028 221.329l3.294 7.643c.784-.03 1.907-.151 3.163-.593.71-.25 2.394-.931 6.523-4.942.713-.692 1.95-1.625 3.009-2.767-.483-.791-1.274-1.581-1.757-2.372-2.884 1.595-5.173 1.829-6.787 1.713-2.054-.15-4.137-.946-6.128.198-.623.358-1.051.8-1.317 1.12"/>
        <path fill="#FFF" d="M242.115 214.131L235.271 217.199 202.635 144.392 202.635 135.771 209.48 141.323z"/>
        <path fill="#57575E" d="M249.806 230.958L248.58 230.833 241.754 216.786 246.458 214.5 245.063 211.631 231.774 218.089 233.168 220.958 237.915 218.651 244.728 232.668 244.124 233.505 245.595 236.785 249.171 237.151 251.276 234.238zM326.493 120.68c-1.228-6.895 21.003 9.456 29.292 28.003 8.458 18.926 7.484 42.867 4.394 52.532-.355 1.112-5.202-4.432-5.88-5.383-2.884-4.042-.928-3.4-2.653-6.264-10.373-17.224-13.552-28.216-20.526-53.22-3.357-12.034-4.134-12.902-4.627-15.668"/>
        <path fill="#7F786A" d="M326.493 119.65c.182-2.354 15.287 21.84 22.183 37.2 1.59 3.544 14.548 46.75 10.471 44.099-20.95-13.624-33.882-65.437-32.654-81.3"/>
        <path fill="#57575E" d="M334.526 321.085c1.978 7.463 1.241 12.663.631 16.202-.079.457-.066 1.198-.025 1.891.059.982.849 1.761 1.832 1.801 4.092.163 14.994.551 25.154.522.597 0-4.3-6.81-11.914-8.5-2.793-.62-2.965-1.9-3.906-3.598-2.637-4.759-2.453-11.916-5.798-12.974-2.575-.816-3.934 2.75-5.974 4.656"/>
        <path fill="#FFC581" d="M257.04 216.013c-1.713-.083-2.542 2.041-5.81 2.588-2.078.347-2.283-.87-5.69-.97-1.103-.032-1.645.713-4.14 1.424-.77.22-4.33 1.46-3.944 2.132.292.511 2.385 1.247 3.104.884.867-.438 1.41-.98 2.161-1.223.575-.187 1.19.656 1.977 1.223 4.98 3.578 8.28.906 9.893.021.765-.419 3.485-1.908 3.556-4.332.006-.192-.222-1.704-1.107-1.747"/>
        <path fill="#060060" d="M310.091 118.183c1.472-.576 3.664 1.952 4.14 2.5 1.708 1.973 2.11 5.408 2.702 7.759.66 2.62.218 3.913-.527 6.035-.37 1.057.053 1.874-1.056 2.069-2.596.459-6.989-7.405-6.638-14.484.057-1.16.192-3.415 1.38-3.879"/>
        <path fill="#7F786A" d="M257.242 179.093c-.279 2.31.912 4.756 2.586 6.207 2.89 2.503 6.92 1.781 8.924 1.423 10.043-1.798 15.834-11.64 16.424-12.674 3.938-6.912 1.464-9.338 5.82-14.483 3.553-4.2 6.051-6.847 6.722-11.836.942-7.007 1.387-5.222 1.053-8.349-.335-3.136-5.204-.062-5.836.14-9.184 19.768-18.408 27.443-25.477 30.65-2.4 1.088-9.616 3.957-10.216 8.922"/>
        <path fill="#57575E" d="M275.95 260.091c-5.384 4.421-10.258 3.104-19.742 10.432 7.07.143 13.179-.164 20.249-.02 1.556-.95 6.722 2.847 6.819-1.234.077-3.247.69-7.95.647-8.803-.076-1.532.539-5.992-1.851-6.927-.431-.169-.481 1.922-6.121 6.552"/>
        <path fill="#FFC581" d="M280.52 186.55c-1.084 3.032-.858 4.205-1.983 5.346-2.429 2.327-4.873 4.74-7.328 7.242-5.878 5.992-11.27 11.94-16.209 17.76l2.501 5.173c5.663-2.485 11.991-5.71 18.622-9.916 6.576-4.168 11.964-5.567 14.345-9.342 2.262-3.587 2.423-9.527-.723-13.59-2.027-2.619-8.115-5.776-9.225-2.673M332.63 169.567c1.084-1.888 4.524-.93 5.48-3.362.614-1.562-.892-4.13-1.12-5.087.988-.355 2.433-1.012 3.88-2.242 1.029-.874 1.337-2.407 1.827-3.13.68.99 2.014 3.079 2.914 4.94.954 1.97 2.541 5.328 2.933 9.915.158 1.86.317 3.965-.433 6.552-.597 2.068-1.423 4.925-3.793 5.949-3.373 1.46-7.333-1.895-7.844-2.328-3.353-2.84-5.6-8.15-3.844-11.207"/>
        <path fill="#E59D29" d="M291.448 155.298c-3.217.043-8.806 17.411-10.755 25.218-.871 3.485-1.45 6.396-1.811 8.362.689.941 1.846 2.261 3.62 3.362.594.37 2.714 1.617 5.778 1.897 1.884.173 3.38.31 4.482-.345 2.888-1.717.172-7.168.69-18.104.253-5.328 1.168-9.747-.862-15.864-.958-2.89-.538-4.535-1.142-4.526"/>
        <path fill="#A29C8F" d="M303.193 225.15c2.23 11.799 9.129 16.2 17.603 38.216 3.39 8.807 3.702 16.952 4.47 22.159.397 5.153 1.172 10.995 2.585 17.329 1.949 8.73 4.615 16.193 7.243 22.243 3.017-.95 6.034-1.897 9.053-2.845-1.385-14.061-2.776-25.87-3.88-34.66-4.95-39.402-8.615-58.02-10.173-64.573-1.613-6.781-6.9-20.953-7.933-24.657-24.053 2.5-19.938 21.656-18.968 26.788"/>
        <path fill="#A29C8F" d="M305.617 231.995c1.417-2.19 3.283-5.595 4.461-10.086.95-3.62 1.792-6.832.776-10.67-1.299-4.902-2.694-6.064-4.44-7.317-4.31-1.577-1.84-1.68-34.742-2.264-.16-.003-.39.12-.664.278-2.02 1.164-3.162 3.413-2.969 5.736.646 7.758 1.401 15.674 2.275 23.74 1.102 10.17 2.34 20.067 3.685 29.68 1.4.218 4.303.46 7.371-.971 1.132-.527 2.031-1.163 2.716-1.745l1.94-35.885"/>
        <path fill="#E59D29" d="M321.435 156.683s1.222.732 5.706 5.986c2.341 2.744 2.804 4.537 4.85 5.173 1.17.364 2.235.342 2.973.259-.18 1.327-.314 3.457.26 5.948.538 2.342 1.502 6.535 4.784 7.63 1.908.637 4.488.189 6.078-1.422.636-.644 1.685-2.099 1.87-2.572.701 1.767.394 4.314.29 5.044-.632 4.371-5.793 6.162-6.686 6.58-.169.08-.336.152-.499.221-1.248.517-2.669.398-3.816-.318-1.489-.929-3.359-2.086-5.514-3.394-7.226-4.387-7.306-4.194-8.018-5.044-1.52-1.816-1.347-2.929-2.715-17.199-.299-3.113-.352-6.594.437-6.892"/>
        <path fill="#FFBF4D" d="M306.126 149.09c3.57.366 6.012 1.786 10.604 4.526 1.959 1.17 3.388 2.036 5.703 3.818 1.487 2.83 1.008 11.542 3.484 19.748 2.258 7.482 2.899 6.285-2.074 13.162-.612 3.936 4.606 20.93 4.268 25.864-5.068-3.766-12.82-8.533-23.15-11.51-5.334-1.537-10.22-2.269-14.354-2.587-.316-1.763-.564-4.218-.258-7.112.263-2.482.855-4.543 1.423-6.078-.875-1.393-1.75-3.589-2.624-5.38-.546-1.12-.753-2.375-.584-3.61.396-2.899.553-4.598.62-6.529.119-3.348-.003-5.304.13-10.345.072-2.708.18-4.916.259-6.337 1.117-1.514 5.048-6.028 10.346-7.709 3.438-1.09 5.389-.005 6.207.08"/>
        <path fill="#FFC581" d="M311.643 144.737c-.059 1.92-1.873 2.546-2.328 5.862-.293 2.147.38 2.519.173 4.742-.045.487-.495 5.335-3.19 6.552-2.92 1.319-5.325-.258-7.414-3.362-2.868-4.262-.863-12.587.172-19.312.81-5.262 12.706 1.652 12.587 5.518"/>
        <path fill="#FFC581" d="M312.98 124.261c3.42 5.755 3.58 11.43 3.362 13.578-.332 3.283-1.237 6.578-4.784 8.535-4.506 2.487-11.051-1.678-14.225-4.914-.531-.54-8.171-8.564-4.656-16.81 1.642-3.856 5.783-7.905 10.863-7.76 5.449.154 8.407 5.633 9.44 7.371"/>
        <path fill="#E59D29" d="M302.957 164.818c1.995 2.01 1.521 4.63 1.283 6.458-.646 4.975-.485 11.368.27 14.88 1.585 7.38 6.51 11.856 7.435 12.673 2.633 2.32 5.301 3.58 7.113 4.267.31-.9 1.031-3.003-.13-5.948-1.099-2.788-3.18-4.097-3.944-5.108-3.668-4.86-6.412-14.77-7.306-20.792-.824-5.543.487-7.072-1.38-8.136-1.84-1.05-5.06-.958-5.15.024-.053.566.953.818 1.81 1.682"/>
        <path fill="#E59D29" d="M309.269 149.838c-.222 4.086.428 4.596-5.491 12.365-.036.048 4.945 3.2 7.866 6.81.826-1.807 2.24-10.087 0-15.655-.252-.628-2.284-5.186-2.375-3.52"/>
        <path fill="#E59D29" d="M297.405 148.115c-1.141.022-4.255 8.172-2.013 15.783.828 2.81 2.05 4.984 3.039 6.466.303-1.572 2.279-6.395 6.094-8.012-2.537-1.357-3.605-2.547-4.93-5.178-2.615-5.195-1.428-9.074-2.19-9.06"/>
        <path fill="#57575E" d="M312.363 119.994c.59 3.397-.583 5.885-3.91 8.276-2.666 1.917-5.04.998-6.077 2.975-1.041 1.982 1.752 4.612.129 4.784-.671.07-.954-3.372-3.621-5.302-1.828-1.323-4.593-1.912-5.432-.905-.973 1.169.106 4.419 2.199 5.819 1.057.708 1.6.424 2.198 1.036 1.968 2.009.245 7.847.065 8.187-2.59 4.883-6.86 5.815-10.281 9.4-5.376 5.634-2.735 8.32-7.89 15.907-1.623 2.389-7.021 10.103-16.293 12.414-4.731 1.18-12.18 1.379-14.096-2.07-1.592-2.862 2.268-5.296 1.552-10.992-.523-4.158-2.78-4.432-5.69-11.121-2.086-4.795-3.938-9.051-2.07-11.897 2.393-3.645 9.517-2.898 11.25-2.716 3.534.37 4.07 1.363 7.76 2.198 2.226.504 9.62 2.178 14.614-1.034 4.733-3.044 6.669-10.063 5.56-17.46-.092-1.39-.587-4.265 1.294-6.465 10.907-12.76 24.998-7.35 26.813-4.914.704.945 1.759 2.917 1.926 3.88"/>
        <path fill="#FFC581" d="M330.826 151.806c.682.441-.294.51-.488 4.82-.029.65.264 1.271.784 1.661.692.52 1.584 1.175 2.42 1.538 2.325 1.006 4.504 2.063 6.336 1.163 1.917-.94 3.294-1.799 2.893-5.043-1.708-4.656-3.787-7.729-5.867-10.476-.399-.527-1.585-.655-2.245-.618-2.427.14-4.233.757-5.385 1.265-2.359 1.041-2.645 1.917-2.716 2.2-.288 1.137.41 2.525 1.423 3.102 1.157.66 2.096-.096 2.845.388"/>
        <path fill="#A29C8F" d="M337.25 164.652c3.271 5.029 10.471 7.193 11.896 5.519.603-.708.453-2.427.432-2.673l-.002-.023c-.082-.864-.885-1.48-1.743-1.35-5.075.769-9.946-4.96-10.59-4.287-.504.527-.16 2.559.006 2.814"/>
        <path fill="#FFC581" d="M237.69 223.075c-.218.749.495 1.546.66 1.746.447.545 1.264.646 1.647 1.054 1.014 1.084.846 2.309 1.613 3.393.728 1.028 2.434 1.212 3.526.593.92-.521-1.715-3.108-1.844-3.503-.88-2.68.55-2.47-.615-4.09-.966-1.343-4.704-.165-4.987.807"/>
        <path fill="#57575E" d="M188.125 318.313c-.388 6.595.215 6.989-2.91 11.638-2.096 3.12-6.363 4.707-15.517 11.796l22.307-.194c2.392-2.716 4.784-7.14 7.177-9.856.433-4.024-.368-7.041-.97-8.73-.86-2.404-1.674-4.687-3.88-5.624-1.968-.837-6.081-1.176-6.207.97"/>
        <path fill="#7F786A" d="M148.888 180.787l-20.755-6.014c-4.641 9.11-6.302 17.07-6.983 22.114-.612 4.527-5.431 32.975 15.518 50.045 3.099-.557 7.537-1.666 12.414-4.074 10.508-5.187 17.608-13.917 21.032-18.762 7.435-10.523 8.713-20.154 9.809-26.822l-20.561-10.668c-1.6 2.705-4.696 3.916-7.177 3.104-3.122-1.024-5.046-5.177-3.297-8.923"/>
        <path fill="#57575E" d="M156.415 153.961c-1.168-.298-3.768 4.665-4.44 7.673-.32 1.428-.757 3.388.43 4.915.679.871 2.08 1.851 3.19 1.465 2.29-.796 1.853-6.89 1.295-9.828-.41-2.148-.275-4.174-.475-4.225"/>
        <path fill="#FFC581" d="M165.77 203.535l-5.777 6.38-.776.689c-1.25-1.3-2.842-2.72-4.828-4.051-4.732-3.171-9.41-4.298-12.415-4.743l-3.535 4.743c1.506 1.855 3.33 3.855 5.518 5.862 2.937 2.693 5.59 4.37 10.863 7.76 0 0 1.061.68 3.45 1.982 2.363 1.289 2.77 1.367 3.102 1.38 1.99.073 3.767-2.523 3.767-2.523 3.598-5.037 8.007-5.581 8.476-8.34.702-4.136-6.68-8.47-7.846-9.14"/>
        <path fill="#E59D29" d="M173.185 188.186c-2.192.177-7.313 14.891-8.962 15.634.1 1.313.253 1.8.989 3.629.684 1.696 2.277 5.072 6.42 6.863 1.325.572 2.526.728 3.276.775 1.176-.9 3.473-2.927 4.656-6.294 1.288-3.666.517-6.818-.173-9.483-.875-3.379-3.604-11.334-6.206-11.124"/>
        <path fill="#A29C8F" d="M217.941 220.357c2.314-.115 4.228 3.313 7.488 9.3 2.826 5.188 4.6 9.75 5.69 12.932 1.964 2.737 4.994 6.9 8.794 11.899 8.447 11.106 15.031 18.866 16.553 20.69 6.495 7.79 15.887 21.62 28.452 48.109.111.497.425 2.17-.517 3.62-1.212 1.859-4.017 2.625-6.726 1.553-6.375-6.366-13.37-14.48-19.916-24.572-3.015-4.65-5.577-9.168-7.759-13.45-9.954-10.208-18.01-18.02-23.536-23.277-5.904-5.616-10.056-9.398-12.933-16.294-.947-2.274-3.697-9.538-2.069-18.364.718-3.886 3.002-11.973 6.48-12.146"/>
        <path fill="#7F786A" d="M196.396 229.085c-8.596 13.115-15.392 21.934-22.426 32.697-1.63 2.493-2.335 5.48-1.995 8.44.92 7.974 5.374 19.776 7.754 27.335 2.48 7.87 5.004 15.565 7.565 23.083.711.47 1.902 1.114 3.492 1.358 3.095.475 5.49-.907 6.207-1.358.212-8.573-.222-18.836-2.134-30.26-1.32-7.898-3.119-14.976-5.043-21.143 17.002-6.53 26.908-14.517 29.535-18.5 5.576-8.453 2.303-23.683 1.524-26.346-.796-2.726-1.168-4.705-2.095-6.094-7.565 2.651-14.819 8.137-22.384 10.788"/>
        <path fill="#FFF" d="M191.682 245.649L193.638 252.89 116.609 273.691 108.095 272.337 114.654 266.45z"/>
        <path fill="#E59D29" d="M170.286 188.22c-.526 2.741.317 6.58.396 5.994.348-2.602.625-2.404 1.47-4.974-.342-1.56-.761-2.694-1.207-2.668-.34.018-.54 1.026-.66 1.647"/>
        <path fill="#57575E" d="M212.977 239.759L209.507 240.696 209.19 241.886 194.253 246.445 192.727 241.418 189.675 242.345 193.967 256.484 197.019 255.557 195.493 250.529 210.399 245.979 211.13 246.706 214.601 245.77 215.524 242.295z"/>
        <path fill="#FFC581" d="M200.255 235.908c-1.464 1.547-2.468 4.932-2.839 6.436-.078.313-.111.634-.102.958.094 3.532-.479 8.526 1.691 10.324 2.209 1 3.492-3.564 6.688-4.5.663-.194 1.163-.94 1.124-1.63-.095-1.646-.13-4.12-.398-6.781-.465-4.62-.174-6.026-1.164-6.531-1.638-.836-3.795.452-5 1.724M158.945 182.058c.617 2.586 6.517-.594 11.393 4.622 2.753 2.944.997 7.213 2.586 7.759 2.211.76 5.635-4.248 6.208-5.086 2.46-3.6 3.43-5.227 2.5-8.019-.165-.497-1.028-1.007-3.966-3.793-3.214-3.047-4.58-5.868-5.517-6.035-4.133-.737-14.067 6.932-13.204 10.552"/>
        <path fill="#FFC581" d="M155.725 161.376c-1.774 3.454-1.336 7.135-.388 14.354.17 1.296.365 2.367.574 3.251 1.007 4.262 2.36 4.246 3.034 4.592 1.848.95 5.805-1.355 7.717-2.24 1.997-.925 3.98-2.193 6.72-6.56 1.08-1.719 3.85-4.488 2.776-9.647-.209-1.004-1.006-4.564-4.268-7.112-3.053-2.386-7.795-3.517-11.639-1.552-2.66 1.36-3.9 3.696-4.526 4.914"/>
        <path fill="#FFBF4D" d="M172.941 190.054c-1.358 9.898 9.864 27.095 14.482 33.913 2.159 3.188 4.012 5.91 5.42 7.97.53.775 1.54 1.055 2.395.664l3.306-1.52c9.308-4.29 10.876-5.082 13.58-5.95 1.87-.6 4.792-1.79 8.262-2.349.925-.15 1.746-1.219 1.202-1.98-2.156-3.016-5.16-9.434-8.817-15.457-8.68-14.29-11.924-17.653-16.384-21.337-1.524-1.259-16.423-7.234-16.964-6.12-2.458 5.043-5.882 7.811-6.482 12.166"/>
        <path fill="#7F786A" d="M171.505 191.013c.888 6.584 1.31 12.771 1.54 16.544.487 7.963 1.23 14.447 2.716 27.416.24 2.105.555 4.718 1.293 4.785 1.107.101 2.573-8.849 2.592-8.509.019.35-5.103-42.148-7.12-41.944-.563.057-.788.736-1.022 1.708"/>
        <path fill="#FFC581" d="M198.918 204.699c1.108 1.24 3.047 3.802 4.41 5.736 1.012 1.436 1.76 1.523 1.365 3.235-.236 1.024-.836 3.586-.99 4.219-1.92 7.867-3.194 11.045-4.397 17.459-.32 1.708-.532 3.089-.647 3.879 2.329-.473 4.656-.948 6.984-1.422 1.748-2.55 3.51-5.435 5.172-8.665 3.852-7.476 5.685-13.714 6.877-19.48.238-1.151-.05-2.348-.786-3.267-2.667-3.335-8.858-10.054-10.617-9.97-3.093.146-5.938 3.575-7.37 8.276"/>
        <path fill="#FFBF4D" d="M209.272 198.934c-2.64.812-6.773 3.44-8.256 8.12-.235.739-1.668.294-2.301-.155-1.157-.822-1.865-1.746-3.676-2.588-3.05-1.419-4.01-2.15-5.184-3.079-3.567-2.823-3.247-9.609.14-14.897 1.387-2.165 2.34-3.085 3.496-3.842 6.538 2.652 13.744 11.301 16.269 15.06.34.507.096 1.202-.488 1.381"/>
        <path fill="#57575E" d="M154.216 160.6c.773 3.293 3.72 6.33 6.725 6.725 1.304.171 2.234-.206 2.758.431 1.157 1.406-.52 5.627.063 5.737 1.7.317 1.39-2.267 2.11-3.427 1.975-3.189 4.28-2.645 4.768-1.965.97 1.349 1.511 4.601-4.095 7.285-1.356.649 7.337 5.127 9.683 4.649.295-.061 2.195-1.784 1.18-4.002-.93-2.032 1.62-3.246 2.85-4.579 3.025-3.274 2.193-11.409-3.844-16.323-4.37-3.557-14.884-5.892-19.966-1.537-2.166 1.857-3.149 3.102-2.232 7.006"/>
        <path fill="#FFC581" d="M141.284 198.62c.225-.326 1.508-2.245.862-4.483-.106-.368-.588-2.038-1.81-2.413-.948-.29-2.219.238-3.267 1.448-.378-.403-.809-.774-1.303-1.105-.795-.53-3.73-2.172-4.828-1.895-2.747.69-.258 5.26-1.12 8.103-.496 1.636-.097 2.898.69 3.966 1.025 1.395 2.298 1.007 5.344 2.5 2.87 1.406 3.374 3.29 4.124 2.932.851-.406.842-2.49.613-4.486.975.321 1.931.307 2.333-.17.608-.72.038-2.595-1.638-4.397"/>
        <path fill="#A29C8F" d="M146.888 200.69c-.11 2.162-.709 9.069-5.432 11.725-.344.194-.716.368-1.12.517l2.844 1.725c2.133-.924 3.271-2.227 3.794-2.932 1.266-1.706 1.555-3.452 1.897-5.517.32-1.934.317-3.56.26-4.656l-2.243-.862M155.713 206.131c-.11 2.162-.71 9.07-5.431 11.726-.346.193-.718.368-1.121.516l2.845 1.725c2.132-.923 3.27-2.227 3.792-2.932 1.267-1.706 1.555-3.452 1.898-5.517.32-1.934.316-3.559.258-4.656l-2.242-.862"/>
        <path fill="#E59D29" d="M172.877 190.711c1.68 1.581 1.184.351 3.5 3.563 3.86-6.793 3.351-16.548 3.268-16.653-.605-.765-1.68-1.01-1.978-.08-1.871 5.844-6.238 9.815-5.917 11.764.125.763.564.876 1.127 1.406"/>
        <path fill="#1A303B" d="M278.063 324.58l-2.729 12.384c-1.638 1.551-2.444 3.356-4.082 4.908 5.604-.088 10.144.085 15.748 0l1.926-11.345c-.318-6.35-3.767-10.238-6.466-10.087-2.446.139-4.134 3.586-4.397 4.14"/>
        <path fill="#7F786A" d="M308.122 325.607c-5.565-8.6-6.513-17.136-10.054-26.748-4.048-11.636-4.57-25.288-23.524-27.697-22.385-2.846-35.854 8.347-42.494 15.366-13.42 14.186-28.645 35.096-33.578 55.204h135.26c-6.07-6.07-20.55-8.536-25.61-16.125"/>
        <path fill="#57575E" d="M315.733 320.738c-4.536-2.67-13.736-6.926-29.026-5.843-12.945.916-13.303 6.108-16.067 10.532-2.418 3.657-3.065 6.903-6.866 10.173-3.457 2.886-13.346 3.824-17.494 6.132h92.388c-3.37-7.646-13.77-15.598-22.935-20.994"/>
        <path fill="#F3F6FF" d="M315.981 131.194c-2.315 1.618-4.853 2.696-7.693 2.928-2.71.22-7.846-2.113-7.882-2.138-.13-.093-.29.116-.17.22.08.072 3.002 3.1 3.478 3.279.858 1.745 1.048 5.286-.284 7.462-1.132-.602-2.19-1.353-3.12-2.223-1.34-1.254-2.23-2.783-2.889-4.476-.05-.131-.238-.115-.248.033-.108 1.91 1.166 3.658 2.443 4.943 1.52 1.53 3.429 2.653 5.434 3.417 3.608 1.377 8.655 1.485 10.906-2.23 1.137-5.118.757-8.406.025-11.215"/>
        <path fill="#57575E" d="M169.179 173.796c-.857.896-1.486 2.007-2.224 3-.76 1.021-1.58 1.906-2.532 2.75-.127.113-.256.225-.385.335-.1-.154-.247-.289-.365-.423-.26-.297-.507-.6-.742-.918-.498-.675-.927-1.4-1.295-2.153-.662-1.352-1.15-3.07-.552-4.53.637-.145 1.27-.307 1.897-.489 1.077-.31 2.319-.717 3.24-1.369.157-.11.067-.373-.133-.318-1.105.298-2.167.765-3.276 1.075-1.07.298-2.164.488-3.257.672-2.205.37-4.527.45-6.673 1.094-.092.027-.153.09-.187.165-.048.017-.093.05-.127.102-.816 1.247-.526 2.96-.097 4.293.378 1.177 1 2.276 1.66 3.317.63.996 1.339 1.968 2.182 2.796.537.528 1.603 1.44 2.387.878.027-.018.049-.044.068-.07.992-.218 1.89-.728 2.765-1.253 1.175-.706 2.259-1.579 3.295-2.473 1.925-1.66 3.804-3.875 4.616-6.328.05-.15-.158-.265-.265-.153"/>
        <path fill="#FFF" d="M79.872 67.14c-.57.033-.717.408-.866.927-.476.152-2.207.555-6.161.121-.231-2.795-1.098-5.569-2.637-8.104 4.704-4.48 7.358-5.677 8.134-5.958.724.536 1.3.882 2.089.348.999-.677.824-1.739.147-2.738-.677-.999-1.6-1.556-2.598-.879-.788.533-.68 1.196-.452 2.067-.548.618-2.65 2.642-8.567 5.352-.945-1.213-2.02-2.27-3.182-3.185 1.057-1.556 1.783-2.2 2.059-2.412.509.173.899.265 1.25-.182.445-.566.153-1.138-.414-1.584-.566-.444-1.191-.593-1.636-.027-.351.446-.17.804.119 1.258-.141.317-.601 1.178-1.863 2.571-1.294-.949-2.692-1.72-4.157-2.299 1.128-4.363 2.248-5.97 2.584-6.38.538.054.94.056 1.183-.46.307-.656-.11-1.15-.764-1.457-.655-.307-1.3-.312-1.607.343-.243.517.016.825.4 1.204-.101.527-.635 2.46-3.36 6.21-2.553-.756-5.255-.965-7.915-.59-.688-2.663-.688-4.07-.65-4.59l.053-.029c.404-.219.805-.536.722-1.223-.053-.439-.274-.768-.64-.952-.294-.15-.671-.199-1.12-.144-.315.038-.588.118-.81.238-.476.26-.703.702-.637 1.245.088.73.605.924 1.049 1.032.164.503.504 1.898.46 4.714-2.262.52-4.464 1.472-6.485 2.882-.214.15-.423.303-.63.46-3.946-4.272-5.038-6.703-5.305-7.439.537-.725.882-1.3.349-2.089-.677-.999-1.74-.823-2.74-.147-.998.676-1.555 1.598-.878 2.597.534.79 1.197.681 2.068.452.593.527 2.48 2.484 5.029 7.875-1.857 1.743-3.292 3.805-4.278 6.04-6.935-.473-9.54-1.735-10.165-2.104-.037-.672-.113-1.169-.796-1.368-.865-.252-1.394.355-1.646 1.22-.253.867-.133 1.663.732 1.915.683.2 1.013-.179 1.406-.726.72.025 3.555.356 9.56 3.612-.293 1.06-.487 2.142-.591 3.235-1.81-.125-2.705-.415-3.022-.542-.11-.527-.228-.91-.791-.986-.714-.095-1.058.447-1.154 1.16-.096.714.093 1.328.807 1.424.563.076.778-.262 1.023-.74.34-.04 1.294-.079 3.086.283-.078 1.237-.035 2.485.137 3.723-4.43 2.02-6.51 2.15-7.057 2.14-.291-.456-.54-.773-1.096-.642-.704.166-.833.8-.667 1.503.166.704.563 1.213 1.267 1.047.556-.13.637-.525.695-1.062.483-.252 2.385-1.056 7.187-1.23.476 2 1.294 3.952 2.468 5.77-4.935 4.771-7.708 6.025-8.504 6.312-.724-.536-1.3-.882-2.088-.349-1 .677-.824 1.74-.148 2.74.677.998 1.599 1.555 2.598.878.788-.534.68-1.197.452-2.068.565-.636 2.775-2.763 9.106-5.595.875 1.041 1.85 1.958 2.893 2.762-.74.73-1.231 1.064-1.452 1.194-.483-.234-.86-.374-1.263.027-.511.506-.291 1.111.217 1.622.507.511 1.109.736 1.62.228.404-.4.267-.776.036-1.263.135-.224.483-.73 1.254-1.49 1.195.866 2.478 1.58 3.82 2.134-.578 4.155-1.432 5.896-1.725 6.392-.672.037-1.168.112-1.367.795-.253.866.355 1.394 1.22 1.647.866.252 1.662.133 1.915-.732.199-.684-.18-1.014-.726-1.407.02-.57.232-2.472 1.942-6.227 1.654.547 3.379.858 5.119.93 1.522 5.712 1.209 8.126 1.083 8.71-.5.197-.858.377-.837.946.026.72.619.968 1.338.941.72-.025 1.293-.315 1.268-1.035-.021-.568-.391-.724-.904-.884-.167-.57-.651-2.949.448-8.732 1.188-.105 2.374-.322 3.537-.659 4.473 5.157 5.409 7.851 5.589 8.548-.45.502-.748.907-.405 1.53.433.791 1.237.735 2.027.301.79-.433 1.27-1.08.836-1.87-.342-.625-.843-.59-1.507-.482-.482-.517-2.193-2.677-4.091-8.929 1.045-.47 2.06-1.043 3.035-1.722 1.916-1.336 3.5-2.967 4.742-4.789 3.95.917 5.617 1.883 6.134 2.242l-.002.06c-.016.458.054.965.689 1.241.405.177.8.155 1.145-.067.278-.179.51-.479.69-.892.129-.292.198-.568.206-.82.018-.543-.248-.963-.75-1.18-.672-.294-1.103.052-1.421.38-.602-.13-2.373-.673-5.582-2.815.703-1.346 1.233-2.768 1.589-4.23 1.828.243 2.713.595 3.023.744.075.533.168.922.725 1.035.706.141 1.085-.377 1.228-1.083.142-.706-.006-1.33-.712-1.474-.557-.112-.794.211-1.07.673-.342.018-1.298-.006-3.067-.485.278-1.323.42-2.673.407-4.029 3.887-.9 5.658-.703 6.149-.608.209.498.399.852.969.82.722-.044.958-.645.915-1.367-.042-.723-.347-1.292-1.07-1.249"/>
        <path fill="#FFAC34" d="M42.702 70.841l.425-3.16c-7.134.844-9.83.012-10.434-.232-.11-.526-.228-.909-.79-.985-.715-.096-1.06.447-1.156 1.16-.096.714.093 1.328.807 1.424.563.076.778-.262 1.023-.74.646-.075 3.467-.166 10.125 2.533M50.246 79.847l-2.247-2.264c-3.68 6.17-5.983 7.801-6.544 8.131-.483-.234-.86-.374-1.263.027-.511.506-.291 1.111.217 1.622.507.511 1.109.736 1.62.228.404-.4.267-.776.036-1.263.335-.557 1.983-2.849 8.18-6.48M56.253 86.641l-3.188.115c2.038 6.89 1.672 9.688 1.535 10.323-.501.198-.858.378-.838.947.026.72.619.968 1.339.941.719-.025 1.293-.315 1.267-1.035-.02-.568-.39-.724-.903-.884-.183-.624-.749-3.388.788-10.407M65.63 70.87L65 73.997c7.174-.378 9.811.629 10.397.91.075.533.168.923.725 1.035.706.142 1.085-.377 1.228-1.083.142-.706-.007-1.331-.713-1.473-.556-.113-.794.21-1.069.672-.649.033-3.47-.06-9.938-3.188M59.833 59.58l2.507 1.971c2.895-6.575 4.982-8.476 5.497-8.872.51.172.9.264 1.25-.181.446-.566.153-1.14-.413-1.584-.566-.445-1.19-.595-1.636-.028-.35.447-.17.803.118 1.258-.263.593-1.617 3.07-7.323 7.437"/>
        <path fill="#FCBD30" d="M34.396 47.841c.534.79 1.197.681 2.068.452.593.527 2.48 2.484 5.029 7.875-1.857 1.743-3.292 3.805-4.278 6.04-6.935-.473-9.54-1.735-10.165-2.104-.037-.672-.112-1.169-.796-1.368-.865-.252-1.394.355-1.646 1.22-.253.866-.133 1.662.732 1.915.683.2 1.014-.179 1.406-.726.72.025 3.555.356 9.56 3.612-.678 2.446-.856 5.021-.505 7.557-4.43 2.02-6.51 2.15-7.057 2.14-.291-.456-.54-.773-1.096-.642-.704.166-.833.8-.667 1.503.166.704.563 1.213 1.268 1.047.555-.13.636-.525.694-1.062.483-.252 2.385-1.056 7.187-1.23.476 2 1.295 3.952 2.468 5.77-4.935 4.771-7.708 6.024-8.504 6.312-.724-.537-1.3-.882-2.088-.349-1 .677-.824 1.74-.148 2.74.677.998 1.599 1.555 2.598.878.788-.534.68-1.197.452-2.068.565-.636 2.775-2.763 9.106-5.595 1.975 2.35 4.432 4.103 7.125 5.214-.578 4.155-1.432 5.895-1.724 6.391-.673.038-1.17.113-1.368.795-.253.867.355 1.395 1.22 1.648.866.252 1.662.133 1.915-.733.199-.683-.18-1.013-.726-1.406.02-.57.232-2.472 1.942-6.227 3.539 1.171 7.399 1.274 11.052.216 4.473 5.158 5.409 7.852 5.589 8.55-.45.501-.747.906-.405 1.53.433.79 1.237.734 2.027.3.79-.433 1.27-1.08.836-1.87-.342-.625-.843-.592-1.507-.482-.482-.517-2.193-2.677-4.091-8.929 1.045-.47 2.06-1.043 3.036-1.723 1.915-1.336 3.5-2.966 4.74-4.789 3.95.917 5.618 1.884 6.136 2.243l-.003.06c-.016.458.054.965.689 1.241.405.177.8.155 1.145-.067.278-.179.51-.48.692-.893.127-.292.196-.567.204-.819.018-.543-.248-.963-.75-1.182-.672-.293-1.102.054-1.421.382-.602-.132-2.373-.674-5.582-2.815 1.428-2.735 2.153-5.78 2.123-8.849 3.887-.9 5.658-.703 6.149-.608.209.498.4.852.969.82.723-.044.958-.645.915-1.367-.042-.723-.347-1.292-1.07-1.249-.57.033-.716.408-.865.927-.476.152-2.207.555-6.161.121-.231-2.795-1.098-5.57-2.637-8.104 4.704-4.48 7.358-5.678 8.134-5.958.724.536 1.3.882 2.089.348.999-.677.823-1.739.147-2.738-.677-.999-1.6-1.556-2.598-.879-.788.533-.68 1.196-.452 2.067-.548.618-2.65 2.642-8.567 5.352-2.105-2.703-4.826-4.675-7.824-5.86 1.128-4.363 2.248-5.97 2.584-6.38.538.054.94.056 1.183-.462.307-.654-.11-1.148-.764-1.456-.655-.306-1.3-.31-1.607.344-.243.517.016.825.4 1.204-.1.527-.635 2.46-3.36 6.21-2.553-.756-5.255-.965-7.915-.59-.688-2.663-.688-4.07-.65-4.59l.054-.029c.403-.22.804-.536.72-1.223-.052-.439-.273-.768-.637-.953-.296-.149-.673-.198-1.121-.143-.316.038-.588.118-.81.238-.477.26-.704.702-.638 1.245.088.73.605.924 1.049 1.031.165.503.504 1.9.46 4.714-2.262.52-4.464 1.473-6.485 2.883-.214.15-.423.303-.63.46-3.946-4.272-5.038-6.703-5.304-7.439.536-.725.88-1.3.348-2.089-.677-.999-1.74-.823-2.74-.148-.998.677-1.555 1.6-.878 2.598"/>
        <path fill="#FFAC34" d="M53.107 81.822c1.403.25 2.405 1.21 2.239 2.146-.167.935-1.439 1.492-2.842 1.242s-2.406-1.211-2.239-2.147c.166-.934 1.439-1.491 2.842-1.241M55.908 68.7c.954 1.368.824 3.106-.29 3.885-1.115.777-2.793.3-3.747-1.068-.954-1.367-.823-3.106.291-3.883 1.115-.78 2.792-.301 3.746 1.066M64.075 72.693c.463-1.348 1.567-2.19 2.465-1.882.899.309 1.252 1.652.789 2.999-.462 1.348-1.567 2.19-2.465 1.882-.898-.31-1.252-1.651-.79-3M47.16 55.897c1.4-.262 2.677.283 2.852 1.217.174.934-.82 1.903-2.22 2.165-1.402.262-2.679-.283-2.854-1.217-.174-.934.82-1.903 2.221-2.165M64.023 58.697c.845.612 1.198 1.564.79 2.127-.41.562-1.425.52-2.269-.091-.842-.612-1.195-1.564-.787-2.127.409-.562 1.424-.521 2.267.09M43.491 75.471c.455 1.143.207 2.314-.555 2.618-.76.304-1.748-.377-2.203-1.518-.455-1.143-.207-2.315.554-2.619.762-.303 1.748.376 2.204 1.52"/>
        <path fill="#FFF" d="M432.827 128.633c-.57.034-.717.408-.867.928-.475.151-2.206.555-6.16.12-.232-2.795-1.098-5.569-2.638-8.104 4.705-4.479 7.359-5.677 8.135-5.958.724.536 1.3.882 2.088.35.999-.678.824-1.74.148-2.74-.677-.999-1.6-1.556-2.598-.879-.788.534-.68 1.197-.452 2.068-.548.617-2.65 2.641-8.567 5.351-.945-1.213-2.02-2.27-3.182-3.184 1.057-1.557 1.783-2.2 2.059-2.413.509.173.899.266 1.25-.182.445-.565.152-1.138-.414-1.583-.566-.445-1.191-.594-1.636-.028-.351.447-.17.804.119 1.258-.141.317-.601 1.178-1.863 2.571-1.294-.948-2.692-1.72-4.157-2.299 1.127-4.362 2.248-5.97 2.584-6.38.538.054.94.056 1.183-.46.307-.656-.11-1.15-.764-1.457-.655-.307-1.3-.31-1.608.343-.242.517.017.825.402 1.204-.102.527-.636 2.46-3.361 6.21-2.553-.756-5.256-.965-7.915-.59-.688-2.663-.688-4.07-.65-4.59l.053-.029c.403-.218.805-.536.722-1.222-.053-.44-.274-.769-.64-.953-.294-.15-.671-.198-1.12-.144-.316.038-.588.118-.81.238-.476.26-.703.702-.637 1.245.088.73.605.924 1.049 1.033.164.502.504 1.898.46 4.713-2.262.52-4.464 1.472-6.485 2.882-.214.15-.423.304-.63.46-3.946-4.27-5.04-6.702-5.305-7.439.536-.725.882-1.3.349-2.088-.677-.999-1.74-.824-2.74-.148-.998.677-1.555 1.6-.878 2.598.534.788 1.196.681 2.068.451.593.527 2.48 2.485 5.029 7.876-1.857 1.742-3.292 3.805-4.278 6.04-6.936-.474-9.54-1.736-10.166-2.105-.036-.672-.112-1.168-.795-1.367-.865-.253-1.394.354-1.646 1.22-.253.866-.133 1.662.732 1.914.683.2 1.013-.178 1.406-.725.72.024 3.555.355 9.56 3.611-.293 1.06-.487 2.142-.591 3.235-1.81-.124-2.705-.415-3.022-.542-.11-.527-.228-.91-.791-.985-.714-.096-1.058.446-1.155 1.16-.095.713.094 1.327.808 1.424.563.075.778-.263 1.023-.74.34-.04 1.294-.08 3.086.282-.078 1.237-.035 2.486.137 3.724-4.43 2.018-6.51 2.148-7.057 2.138-.292-.455-.54-.77-1.096-.64-.704.165-.833.798-.667 1.502.165.704.563 1.213 1.267 1.048.556-.13.637-.526.695-1.063.483-.252 2.385-1.056 7.186-1.23.477 2.001 1.295 3.952 2.468 5.77-4.934 4.772-7.707 6.025-8.503 6.312-.724-.536-1.3-.882-2.09-.348-.997.677-.822 1.74-.146 2.738.677 1 1.599 1.556 2.598.88.788-.535.68-1.197.452-2.068.564-.636 2.775-2.763 9.105-5.596.876 1.042 1.85 1.96 2.894 2.762-.74.731-1.231 1.064-1.452 1.194-.483-.234-.86-.373-1.263.027-.511.507-.291 1.111.217 1.623.506.51 1.109.735 1.62.228.403-.4.267-.777.036-1.263.135-.224.483-.73 1.254-1.49 1.195.866 2.478 1.58 3.819 2.134-.578 4.154-1.431 5.896-1.724 6.391-.672.037-1.168.112-1.367.796-.253.865.354 1.393 1.22 1.646.866.252 1.662.133 1.915-.732.199-.683-.18-1.013-.726-1.406.02-.57.232-2.472 1.942-6.228 1.654.548 3.378.858 5.119.93 1.522 5.713 1.209 8.126 1.083 8.71-.5.197-.858.378-.837.946.026.72.618.968 1.338.942.72-.026 1.293-.316 1.267-1.036-.02-.567-.39-.723-.903-.883-.167-.57-.651-2.949.448-8.733 1.188-.104 2.373-.322 3.537-.658 4.473 5.156 5.408 7.85 5.589 8.548-.45.501-.748.906-.405 1.53.433.79 1.236.734 2.027.3.79-.433 1.269-1.08.836-1.87-.342-.625-.843-.59-1.507-.482-.482-.516-2.193-2.676-4.091-8.929 1.045-.469 2.06-1.042 3.035-1.72 1.915-1.337 3.5-2.969 4.742-4.79 3.949.916 5.616 1.882 6.134 2.242l-.002.06c-.016.458.054.964.689 1.241.405.177.8.154 1.144-.067.279-.18.512-.48.692-.893.127-.292.196-.568.205-.819.018-.544-.248-.963-.75-1.18-.672-.295-1.103.051-1.421.38-.602-.132-2.373-.674-5.583-2.816.703-1.346 1.234-2.768 1.59-4.23 1.828.243 2.713.595 3.023.745.075.532.168.921.725 1.034.706.142 1.085-.377 1.228-1.083.142-.705-.007-1.33-.712-1.473-.558-.112-.794.21-1.07.672-.342.018-1.298-.005-3.067-.485.278-1.323.42-2.672.407-4.028 3.887-.902 5.657-.704 6.149-.609.209.498.399.852.969.82.722-.044.958-.644.915-1.367-.042-.722-.347-1.29-1.07-1.249"/>
        <path fill="#FFAC34" d="M395.657 132.335l.425-3.16c-7.134.844-9.83.011-10.434-.233-.11-.526-.228-.909-.792-.984-.713-.097-1.058.446-1.154 1.16-.096.713.093 1.327.807 1.424.563.075.778-.263 1.023-.74.646-.076 3.467-.166 10.125 2.533M403.2 141.34l-2.247-2.264c-3.679 6.171-5.983 7.801-6.543 8.131-.484-.234-.86-.373-1.263.027-.51.507-.29 1.111.216 1.623.507.51 1.11.735 1.621.228.403-.4.266-.777.036-1.263.334-.558 1.982-2.849 8.18-6.482M409.208 148.135l-3.187.114c2.037 6.89 1.67 9.69 1.534 10.324-.5.197-.858.378-.837.946.026.72.618.968 1.338.942.72-.026 1.294-.316 1.267-1.036-.02-.567-.39-.723-.903-.883-.183-.624-.748-3.389.788-10.407M418.585 132.363l-.63 3.127c7.174-.378 9.811.629 10.397.91.075.533.168.923.725 1.035.706.143 1.085-.377 1.227-1.083.143-.705-.006-1.331-.712-1.472-.557-.113-.794.21-1.069.67-.649.035-3.47-.06-9.938-3.187M412.788 121.074l2.507 1.97c2.895-6.574 4.982-8.475 5.497-8.871.51.172.9.265 1.25-.182.445-.565.153-1.14-.413-1.583-.566-.445-1.192-.594-1.636-.028-.35.447-.17.803.118 1.257-.263.595-1.617 3.072-7.323 7.437"/>
        <path fill="#FCBD30" d="M387.35 109.335c.535.788 1.197.681 2.069.451.593.527 2.48 2.485 5.029 7.876-1.857 1.742-3.292 3.805-4.278 6.04-6.936-.474-9.54-1.736-10.166-2.105-.036-.672-.111-1.168-.795-1.367-.865-.253-1.394.354-1.646 1.22-.253.865-.133 1.661.732 1.914.683.2 1.014-.178 1.406-.725.72.024 3.555.355 9.56 3.611-.678 2.446-.856 5.021-.505 7.558-4.43 2.018-6.51 2.148-7.057 2.138-.292-.455-.54-.77-1.096-.64-.704.165-.833.798-.667 1.502.165.704.563 1.213 1.268 1.048.555-.13.636-.526.694-1.063.483-.252 2.385-1.056 7.186-1.23.477 2.001 1.295 3.952 2.468 5.77-4.934 4.772-7.707 6.024-8.503 6.312-.724-.537-1.3-.882-2.09-.348-.997.677-.822 1.74-.146 2.738.677 1 1.599 1.556 2.598.88.788-.535.68-1.197.452-2.068.564-.636 2.775-2.763 9.105-5.596 1.976 2.35 4.433 4.104 7.125 5.215-.577 4.154-1.431 5.895-1.723 6.39-.673.038-1.17.113-1.368.796-.253.866.354 1.394 1.22 1.647.866.252 1.662.133 1.915-.733.199-.682-.18-1.012-.726-1.405.02-.57.232-2.472 1.942-6.228 3.539 1.171 7.399 1.274 11.052.217 4.473 5.157 5.408 7.851 5.589 8.55-.45.5-.747.905-.405 1.53.433.79 1.236.733 2.027.3.79-.434 1.269-1.082.836-1.872-.342-.624-.843-.59-1.507-.48-.482-.517-2.193-2.677-4.091-8.93 1.045-.47 2.06-1.042 3.036-1.722 1.914-1.336 3.5-2.967 4.74-4.789 3.95.916 5.617 1.883 6.136 2.243l-.003.06c-.016.458.054.964.689 1.241.405.177.8.154 1.145-.067.278-.18.51-.48.692-.894.126-.292.195-.567.204-.818.018-.544-.248-.963-.75-1.182-.672-.294-1.103.053-1.421.382-.602-.133-2.373-.675-5.583-2.816 1.429-2.735 2.154-5.78 2.124-8.848 3.887-.902 5.657-.704 6.149-.609.209.498.4.852.969.82.723-.044.958-.644.915-1.367-.042-.722-.347-1.29-1.07-1.249-.57.034-.716.408-.866.928-.475.151-2.206.555-6.16.12-.232-2.795-1.098-5.57-2.637-8.104 4.704-4.479 7.358-5.678 8.134-5.958.724.536 1.3.882 2.088.35.999-.678.824-1.74.148-2.74-.677-.999-1.6-1.556-2.598-.879-.788.534-.68 1.197-.452 2.068-.548.617-2.65 2.641-8.567 5.351-2.105-2.702-4.826-4.674-7.824-5.86 1.127-4.362 2.248-5.97 2.584-6.38.538.054.94.056 1.183-.46.307-.656-.11-1.15-.764-1.457-.655-.307-1.3-.31-1.608.343-.242.517.016.825.402 1.204-.101.527-.636 2.46-3.361 6.21-2.553-.756-5.256-.965-7.915-.59-.688-2.663-.688-4.07-.65-4.59l.053-.029c.403-.219.805-.536.722-1.222-.053-.44-.274-.769-.638-.954-.296-.149-.673-.197-1.122-.143-.315.038-.587.118-.81.238-.476.26-.703.702-.637 1.245.088.73.605.924 1.049 1.032.164.502.504 1.9.46 4.713-2.262.521-4.464 1.473-6.485 2.883-.214.15-.423.304-.63.46-3.946-4.27-5.04-6.702-5.304-7.439.535-.725.88-1.3.348-2.088-.677-.999-1.74-.824-2.74-.148-.998.677-1.555 1.6-.878 2.598"/>
        <path fill="#FFAC34" d="M406.062 143.315c1.403.25 2.405 1.21 2.24 2.146-.168.936-1.44 1.492-2.843 1.242s-2.406-1.21-2.239-2.146c.166-.935 1.44-1.491 2.842-1.242M408.863 130.194c.954 1.367.824 3.106-.29 3.884-1.116.778-2.793.3-3.747-1.068-.954-1.367-.823-3.105.291-3.883 1.115-.778 2.792-.3 3.746 1.067M417.03 134.186c.463-1.348 1.566-2.19 2.465-1.882.899.309 1.252 1.652.789 3-.462 1.348-1.567 2.19-2.465 1.881-.898-.308-1.252-1.651-.79-2.999M400.114 117.39c1.401-.262 2.678.283 2.853 1.218.174.933-.82 1.903-2.22 2.165-1.402.262-2.679-.283-2.854-1.218-.175-.934.82-1.903 2.221-2.165M416.979 120.19c.844.612 1.196 1.564.788 2.127-.408.562-1.423.52-2.267-.091-.843-.612-1.196-1.564-.788-2.127.409-.562 1.423-.521 2.267.09M396.446 136.964c.456 1.143.207 2.314-.554 2.618-.762.304-1.75-.376-2.204-1.518-.455-1.143-.207-2.315.555-2.619.76-.303 1.748.377 2.203 1.52"/>
        <path fill="#FFF" d="M506.075 111.513c-.426.024-.537.305-.648.693-.356.114-1.65.415-4.607.09-.174-2.09-.822-4.166-1.973-6.06 3.518-3.35 5.503-4.247 6.084-4.456.541.4.972.66 1.562.26.747-.506.616-1.3.11-2.048s-1.195-1.165-1.943-.658c-.589.4-.509.895-.338 1.546-.41.462-1.98 1.976-6.408 4.003-.706-.907-1.51-1.698-2.38-2.382.791-1.165 1.334-1.645 1.54-1.804.381.13.673.198.936-.136.332-.423.113-.852-.31-1.185-.423-.332-.89-.443-1.224-.02-.262.334-.127.601.09.94-.106.238-.45.882-1.394 1.924-.968-.71-2.014-1.286-3.11-1.72.844-3.262 1.682-4.466 1.933-4.77.402.04.704.04.885-.346.23-.49-.08-.859-.57-1.09-.49-.229-.974-.232-1.204.257-.18.387.012.617.3.9-.075.394-.475 1.841-2.514 4.646-1.909-.565-3.93-.722-5.919-.442-.515-1.992-.515-3.044-.486-3.433l.04-.022c.301-.164.601-.4.54-.915-.04-.328-.205-.574-.478-.71-.222-.114-.503-.15-.839-.11-.236.03-.439.09-.605.18-.357.193-.527.524-.477.93.065.545.452.691.785.772.122.376.376 1.42.343 3.525-1.692.39-3.339 1.102-4.85 2.157-.16.111-.316.226-.47.343-2.952-3.195-3.77-5.012-3.968-5.564.4-.542.66-.972.26-1.562-.506-.747-1.3-.616-2.048-.11s-1.164 1.195-.658 1.942c.4.59.895.51 1.547.34.443.393 1.856 1.857 3.761 5.89-1.389 1.303-2.462 2.845-3.199 4.517-5.188-.355-7.136-1.298-7.604-1.575-.027-.503-.083-.874-.595-1.023-.647-.189-1.042.265-1.23.913-.189.647-.1 1.243.547 1.432.511.15.758-.134 1.051-.543.54.02 2.66.266 7.151 2.702-.22.791-.365 1.601-.442 2.42-1.354-.095-2.024-.312-2.26-.407-.082-.393-.17-.68-.592-.737-.534-.07-.792.334-.864.868-.07.534.07.993.604 1.066.421.056.582-.197.765-.555.255-.029.968-.059 2.31.212-.06.926-.027 1.858.101 2.785-3.313 1.51-4.869 1.607-5.278 1.6-.218-.34-.404-.577-.82-.48-.526.124-.623.598-.499 1.124.124.527.421.907.948.783.416-.097.476-.392.52-.794.361-.188 1.783-.79 5.375-.92.356 1.496.968 2.956 1.845 4.315-3.69 3.57-5.764 4.506-6.359 4.721-.542-.4-.973-.659-1.562-.26-.748.506-.617 1.301-.11 2.048.506.747 1.195 1.164 1.942.658.59-.399.51-.895.338-1.547.422-.475 2.076-2.066 6.81-4.184.655.778 1.384 1.463 2.165 2.065-.553.546-.92.796-1.086.893-.362-.175-.643-.28-.945.02-.382.38-.218.831.162 1.213.38.383.83.551 1.212.171.302-.299.2-.58.027-.944.101-.168.361-.546.938-1.116.893.65 1.853 1.183 2.857 1.597-.433 3.107-1.07 4.41-1.29 4.78-.502.028-.874.084-1.023.595-.189.647.266 1.043.913 1.231.648.19 1.243.1 1.432-.547.15-.51-.134-.758-.543-1.05.015-.429.174-1.85 1.452-4.659 1.238.41 2.528.641 3.83.695 1.137 4.273.903 6.078.81 6.515-.375.147-.642.283-.627.708.02.538.463.723 1.001.704.538-.02.967-.237.948-.775-.015-.425-.292-.54-.675-.66-.126-.428-.487-2.206.334-6.532.89-.078 1.775-.24 2.646-.493 3.345 3.857 4.045 5.872 4.18 6.394-.337.375-.559.677-.303 1.144.324.592.925.55 1.516.225.591-.324.95-.808.625-1.4-.256-.466-.63-.44-1.127-.359-.36-.386-1.64-2.002-3.059-6.678.781-.352 1.541-.78 2.27-1.288 1.432-1 2.618-2.22 3.546-3.582 2.954.685 4.201 1.408 4.588 1.677 0 .014 0 .03-.002.044-.01.343.041.722.516.93.302.132.6.114.856-.05.208-.135.382-.36.517-.67.095-.217.147-.423.153-.612.014-.406-.185-.72-.56-.884-.504-.218-.825.04-1.064.286-.45-.099-1.774-.504-4.175-2.106.526-1.006.923-2.069 1.19-3.163 1.366.181 2.028.444 2.26.556.056.398.126.69.543.774.528.106.811-.282.918-.81.106-.528-.005-.996-.533-1.102-.416-.084-.594.157-.8.503-.256.013-.97-.004-2.294-.363.208-.99.315-1.998.305-3.013 2.907-.674 4.231-.526 4.598-.455.157.373.3.637.726.612.54-.03.716-.48.684-1.02-.032-.54-.26-.967-.8-.935"/>
        <path fill="#FFAC34" d="M478.275 114.282l.318-2.364c-5.336.632-7.353.009-7.804-.173-.082-.394-.171-.681-.592-.737-.534-.072-.792.334-.863.868-.072.533.069.993.603 1.065.421.057.583-.196.765-.555.484-.055 2.594-.124 7.573 1.896M483.917 121.017l-1.68-1.693c-2.752 4.615-4.476 5.834-4.895 6.081-.362-.175-.643-.28-.945.02-.382.379-.217.831.162 1.213.38.383.83.551 1.212.171.302-.299.2-.581.027-.944.25-.417 1.483-2.131 6.12-4.848M488.41 126.098l-2.384.086c1.524 5.153 1.25 7.246 1.147 7.722-.374.147-.64.283-.626.708.02.538.463.723 1.001.704.538-.02.967-.237.948-.775-.015-.424-.292-.54-.675-.66-.137-.468-.56-2.536.59-7.785M495.423 114.302l-.47 2.34c5.365-.284 7.337.47 7.775.68.056.398.126.69.543.774.527.106.811-.282.918-.81.106-.528-.005-.996-.533-1.102-.417-.084-.594.157-.8.503-.486.024-2.596-.045-7.433-2.385M491.088 105.859l1.875 1.474c2.165-4.917 3.726-6.34 4.111-6.636.381.13.673.198.936-.136.332-.423.114-.851-.31-1.183-.423-.333-.891-.445-1.223-.022-.263.334-.127.602.089.94-.198.446-1.21 2.297-5.478 5.563"/>
        <path fill="#FCBD30" d="M472.062 97.079c.4.59.895.51 1.547.338.443.394 1.856 1.858 3.761 5.89-1.389 1.304-2.462 2.846-3.199 4.518-5.188-.354-7.135-1.298-7.604-1.574-.027-.503-.083-.874-.594-1.024-.648-.188-1.043.266-1.232.914-.188.647-.099 1.243.548 1.43.511.15.758-.133 1.051-.542.54.02 2.66.267 7.151 2.702-.507 1.829-.64 3.755-.378 5.653-3.313 1.509-4.868 1.606-5.278 1.599-.218-.341-.404-.577-.82-.48-.526.125-.623.598-.499 1.125.124.526.421.907.948.783.416-.098.476-.393.52-.795.361-.187 1.783-.79 5.375-.92.356 1.496.968 2.956 1.846 4.316-3.69 3.569-5.765 4.505-6.36 4.72-.542-.4-.972-.66-1.562-.26-.747.506-.617 1.3-.11 2.048.506.747 1.195 1.164 1.942.659.59-.4.51-.896.338-1.547.422-.476 2.076-2.067 6.811-4.185 1.477 1.757 3.315 3.069 5.33 3.9-.433 3.107-1.072 4.409-1.29 4.78-.503.027-.875.084-1.024.595-.189.647.266 1.043.913 1.23.648.19 1.243.1 1.432-.547.15-.511-.134-.758-.543-1.051.015-.427.174-1.85 1.453-4.658 2.647.876 5.534.953 8.266.162 3.345 3.858 4.045 5.872 4.18 6.395-.336.375-.559.677-.303 1.143.324.592.925.55 1.516.226.592-.324.95-.81.625-1.4-.256-.466-.63-.441-1.127-.36-.36-.386-1.64-2.002-3.06-6.678.782-.351 1.542-.78 2.271-1.288 1.432-1 2.618-2.22 3.546-3.582 2.954.686 4.201 1.409 4.59 1.677l-.003.045c-.012.343.04.722.515.929.303.133.6.115.856-.05.208-.135.383-.36.517-.67.096-.217.147-.423.154-.611.013-.407-.186-.72-.56-.884-.504-.22-.826.04-1.064.286-.45-.1-1.775-.505-4.176-2.106 1.07-2.045 1.611-4.325 1.59-6.62 2.906-.672 4.23-.524 4.597-.454.157.373.3.638.725.613.541-.032.717-.482.685-1.022-.032-.54-.26-.966-.8-.933-.426.024-.536.304-.648.693-.356.113-1.65.415-4.607.09-.174-2.09-.82-4.166-1.973-6.061 3.518-3.35 5.504-4.247 6.084-4.456.542.4.972.659 1.562.26.747-.506.616-1.301.11-2.048-.506-.747-1.195-1.164-1.943-.657-.589.398-.509.894-.338 1.546-.41.462-1.98 1.975-6.407 4.003-1.575-2.022-3.61-3.496-5.853-4.383.844-3.263 1.682-4.467 1.934-4.772.401.04.703.04.884-.344.23-.491-.08-.86-.57-1.09-.49-.23-.974-.233-1.204.257-.18.386.013.617.3.9-.075.394-.475 1.84-2.513 4.646-1.91-.566-3.93-.722-5.92-.443-.515-1.991-.515-3.044-.486-3.432l.04-.022c.302-.164.601-.401.54-.915-.04-.328-.205-.574-.478-.712-.22-.112-.503-.148-.839-.108-.236.029-.439.089-.605.178-.356.195-.526.526-.477.932.065.545.453.69.785.772.122.376.377 1.419.343 3.525-1.692.389-3.338 1.102-4.85 2.156-.16.112-.316.227-.47.344-2.952-3.195-3.769-5.013-3.968-5.565.401-.541.66-.971.26-1.561-.506-.747-1.3-.616-2.048-.11-.747.505-1.164 1.195-.658 1.942"/>
        <path fill="#FFAC34" d="M486.057 122.494c1.05.187 1.8.905 1.674 1.605-.124.7-1.076 1.116-2.125.929-1.049-.187-1.799-.905-1.675-1.605.125-.7 1.077-1.116 2.126-.93M488.152 112.68c.713 1.022.616 2.323-.218 2.904-.833.582-2.088.225-2.8-.798-.715-1.022-.617-2.323.216-2.905.834-.58 2.09-.224 2.802.8M494.26 115.665c.346-1.008 1.172-1.638 1.844-1.407.672.232.936 1.236.59 2.243-.346 1.01-1.172 1.64-1.844 1.408-.672-.23-.936-1.235-.59-2.244M481.608 103.104c1.048-.196 2.003.212 2.135.91.13.698-.613 1.424-1.661 1.619-1.048.197-2.003-.212-2.135-.91-.13-.698.613-1.424 1.661-1.62M494.222 105.198c.631.458.895 1.17.59 1.59-.306.422-1.065.39-1.696-.067-.63-.458-.895-1.17-.589-1.59.305-.421 1.064-.391 1.695.067M478.865 117.744c.34.854.155 1.73-.415 1.959-.569.227-1.308-.282-1.648-1.137-.34-.854-.155-1.73.415-1.958.57-.226 1.307.282 1.648 1.136"/>
        <path fill="#FFF" d="M140.905 95.634c-.342.021-.43.245-.52.557-.285.09-1.324.333-3.696.072-.139-1.677-.659-3.342-1.582-4.862 2.822-2.688 4.415-3.408 4.88-3.576.435.323.78.53 1.253.21.6-.407.495-1.045.088-1.643-.405-.6-.959-.934-1.558-.528-.473.321-.408.718-.27 1.241-.33.37-1.59 1.585-5.14 3.211-.568-.728-1.213-1.363-1.91-1.91.634-.935 1.07-1.322 1.234-1.449.306.104.54.16.751-.108.266-.34.091-.684-.248-.95-.34-.268-.715-.357-.982-.017-.21.268-.102.482.071.754-.084.19-.36.707-1.118 1.543-.776-.569-1.615-1.03-2.494-1.379.677-2.618 1.35-3.583 1.551-3.828.322.032.564.033.71-.276.184-.394-.066-.69-.459-.875-.393-.184-.78-.186-.965.207-.145.31.01.495.241.722-.06.316-.38 1.476-2.017 3.726-1.53-.453-3.153-.579-4.748-.355-.413-1.597-.413-2.442-.39-2.754l.031-.016c.243-.132.483-.322.433-.735-.03-.263-.164-.46-.382-.57-.178-.09-.404-.12-.673-.088-.19.024-.353.072-.486.144-.286.156-.422.421-.383.747.053.437.363.555.63.62.098.301.302 1.138.276 2.827-1.357.312-2.679.884-3.89 1.73-.13.09-.255.181-.379.276-2.367-2.564-3.024-4.022-3.183-4.464.322-.434.53-.78.21-1.253-.407-.599-1.045-.495-1.644-.089-.599.407-.933.96-.528 1.56.321.472.718.407 1.241.27.356.316 1.49 1.491 3.018 4.725-1.115 1.046-1.975 2.283-2.567 3.624-4.16-.284-5.724-1.04-6.099-1.263-.022-.403-.068-.7-.477-.82-.52-.15-.837.213-.989.732-.15.52-.079.997.44 1.15.41.118.608-.109.844-.437.432.015 2.132.214 5.736 2.167-.176.635-.293 1.285-.355 1.941-1.086-.074-1.623-.248-1.813-.325-.066-.316-.137-.545-.475-.59-.428-.059-.635.266-.693.695-.057.428.057.797.485.855.337.044.467-.158.614-.445.204-.024.776-.048 1.851.17-.046.742-.02 1.49.082 2.233-2.657 1.212-3.905 1.29-4.234 1.284-.175-.273-.324-.463-.657-.384-.423.1-.5.478-.4.901.1.422.338.728.76.628.333-.078.382-.314.417-.637.29-.15 1.431-.633 4.311-.739.287 1.201.778 2.372 1.481 3.463-2.96 2.862-4.624 3.614-5.102 3.787-.434-.322-.78-.529-1.253-.209-.599.406-.494 1.044-.088 1.643.406.6.96.933 1.56.528.471-.32.407-.719.27-1.24.338-.383 1.664-1.658 5.463-3.358.525.625 1.11 1.175 1.736 1.657-.443.438-.738.638-.87.717-.29-.14-.517-.225-.759.015-.306.305-.174.667.13.974.304.306.666.441.972.137.242-.24.161-.466.022-.757.081-.135.29-.439.752-.895.717.52 1.487.948 2.292 1.28-.347 2.494-.859 3.538-1.034 3.835-.404.023-.7.068-.82.478-.152.518.212.836.731.987.52.152.997.08 1.15-.439.118-.409-.109-.608-.437-.843.012-.343.14-1.483 1.166-3.737.992.33 2.027.515 3.071.557.913 3.43.726 4.877.65 5.227-.3.118-.515.226-.503.567.016.432.372.581.804.566.431-.016.776-.19.76-.62-.012-.342-.234-.436-.542-.532-.1-.342-.39-1.769.27-5.239.712-.063 1.423-.193 2.121-.395 2.684 3.093 3.245 4.71 3.353 5.128-.269.301-.448.543-.243.918.26.475.742.441 1.216.181.475-.26.762-.648.502-1.123-.205-.374-.506-.354-.905-.288-.289-.31-1.315-1.606-2.454-5.357.627-.283 1.237-.626 1.822-1.034 1.15-.8 2.1-1.78 2.844-2.874 2.37.55 3.37 1.13 3.681 1.346v.035c-.01.276.031.58.412.745.243.107.481.093.687-.04.167-.107.307-.288.415-.536.076-.175.117-.34.123-.49.01-.326-.149-.578-.45-.71-.404-.176-.662.032-.853.23-.36-.08-1.424-.405-3.35-1.69.422-.808.741-1.66.954-2.538 1.097.145 1.628.356 1.814.446.045.32.101.554.435.621.424.085.651-.226.737-.649.085-.424-.004-.799-.427-.885-.335-.067-.477.127-.642.403-.206.011-.779-.003-1.84-.29.166-.794.252-1.604.244-2.418 2.332-.54 3.394-.42 3.69-.365.124.3.24.512.581.492.433-.026.574-.386.55-.82-.027-.433-.21-.774-.643-.749"/>
        <path fill="#FFAC34" d="M118.604 97.855l.255-1.896c-4.28.506-5.9.006-6.26-.14-.066-.315-.137-.544-.475-.59-.428-.058-.635.268-.693.696-.057.428.056.797.485.855.337.045.466-.157.613-.445.388-.044 2.08-.1 6.075 1.52M123.13 103.258l-1.349-1.358c-2.207 3.702-3.59 4.68-3.925 4.88-.29-.142-.516-.226-.758.014-.306.305-.175.667.13.974.303.306.666.441.972.136.242-.239.16-.465.022-.756.2-.335 1.189-1.71 4.907-3.89M126.734 107.335l-1.912.068c1.222 4.134 1.003 5.814.92 6.195-.3.118-.514.226-.502.567.015.432.371.581.803.566.432-.016.776-.19.76-.622-.012-.34-.234-.434-.542-.53-.109-.374-.449-2.034.473-6.244M132.36 97.873l-.378 1.874c4.304-.227 5.886.379 6.238.547.045.32.101.555.435.621.424.085.651-.227.737-.649.085-.424-.004-.799-.428-.885-.334-.067-.476.127-.64.403-.39.021-2.084-.035-5.964-1.912M128.882 91.098l1.504 1.183c1.737-3.946 2.99-5.085 3.298-5.324.306.104.54.16.751-.108.266-.34.091-.684-.249-.95-.339-.268-.714-.357-.98-.017-.212.268-.103.483.07.754-.158.358-.97 1.843-4.394 4.462"/>
        <path fill="#FCBD30" d="M113.62 84.055c.32.473.718.408 1.24.271.356.316 1.489 1.491 3.018 4.725-1.114 1.046-1.975 2.283-2.566 3.624-4.162-.284-5.724-1.04-6.1-1.263-.022-.403-.067-.7-.477-.82-.52-.15-.836.213-.988.733-.151.52-.08.997.439 1.148.41.12.608-.107.844-.436.432.015 2.133.214 5.736 2.167-.407 1.468-.514 3.013-.303 4.535-2.657 1.212-3.906 1.29-4.234 1.283-.175-.273-.324-.463-.658-.385-.422.1-.5.48-.4.902.099.422.338.728.76.628.334-.078.382-.315.418-.636.289-.152 1.43-.634 4.31-.74.287 1.201.778 2.372 1.482 3.463-2.961 2.863-4.625 3.614-5.102 3.787-.435-.322-.78-.529-1.253-.209-.6.407-.495 1.044-.088 1.643.405.6.959.934 1.558.528.473-.32.408-.719.27-1.24.34-.383 1.666-1.658 5.465-3.357 1.185 1.41 2.659 2.461 4.275 3.128-.347 2.493-.86 3.537-1.035 3.834-.403.023-.701.068-.82.478-.152.52.212.836.732.987.519.152.997.08 1.148-.439.12-.409-.107-.608-.435-.843.012-.343.139-1.483 1.165-3.737 2.123.703 4.44.764 6.63.131 2.685 3.093 3.247 4.71 3.355 5.13-.27.3-.45.542-.243.917.26.474.742.44 1.216.18s.762-.648.5-1.123c-.204-.374-.504-.354-.903-.288-.29-.31-1.315-1.606-2.454-5.357.627-.283 1.237-.626 1.82-1.034 1.15-.8 2.1-1.78 2.846-2.874 2.37.55 3.37 1.13 3.68 1.346l-.001.035c-.01.276.033.58.413.745.243.107.48.093.687-.04.168-.107.307-.288.416-.536.076-.175.117-.34.122-.49.01-.326-.15-.578-.45-.71-.403-.176-.661.032-.852.23-.361-.08-1.424-.405-3.35-1.69.857-1.64 1.292-3.469 1.274-5.31 2.332-.54 3.395-.42 3.689-.365.126.3.24.512.582.492.434-.026.575-.386.549-.82-.025-.432-.208-.774-.641-.749-.342.021-.431.245-.52.557-.286.091-1.324.333-3.696.072-.14-1.677-.66-3.342-1.583-4.862 2.823-2.688 4.415-3.408 4.88-3.575.435.322.78.53 1.254.208.599-.406.494-1.043.088-1.642-.406-.6-.96-.934-1.56-.527-.471.32-.407.717-.27 1.24-.33.37-1.59 1.585-5.14 3.211-1.263-1.62-2.896-2.805-4.695-3.516.677-2.618 1.35-3.583 1.55-3.828.323.032.565.033.71-.276.185-.394-.064-.69-.457-.874-.393-.185-.781-.187-.965.206-.146.31.01.495.24.722-.06.316-.381 1.476-2.016 3.726-1.532-.453-3.153-.579-4.75-.355-.411-1.597-.412-2.442-.388-2.753l.03-.017c.243-.132.484-.322.434-.734-.032-.264-.164-.46-.383-.572-.177-.09-.403-.119-.673-.087-.19.024-.352.072-.485.144-.287.156-.422.421-.383.747.053.437.363.555.63.62.098.301.302 1.138.276 2.827-1.358.312-2.68.884-3.892 1.73-.128.09-.253.181-.377.276-2.368-2.563-3.024-4.02-3.183-4.464.32-.434.529-.78.208-1.253-.405-.599-1.043-.495-1.643-.089-.6.407-.933.96-.527 1.56"/>
        <path fill="#FFAC34" d="M124.847 104.444c.842.149 1.443.726 1.343 1.287-.1.562-.863.895-1.705.745-.842-.15-1.443-.726-1.344-1.288.1-.56.864-.894 1.706-.744M126.527 96.57c.572.82.494 1.864-.174 2.33-.669.468-1.676.18-2.248-.64-.573-.82-.495-1.863.174-2.33.67-.466 1.676-.18 2.248.64M131.427 98.966c.278-.81.94-1.314 1.48-1.13.54.186.75.991.473 1.8-.278.81-.94 1.314-1.479 1.13-.54-.186-.752-.99-.474-1.8M121.278 88.888c.84-.157 1.607.17 1.71.73.106.561-.49 1.142-1.331 1.3-.84.157-1.607-.17-1.712-.73-.104-.56.493-1.143 1.333-1.3M131.397 90.568c.506.367.718.939.473 1.276-.245.338-.854.314-1.36-.053-.506-.37-.718-.94-.473-1.277.245-.338.854-.313 1.36.054M119.077 100.633c.273.686.124 1.39-.333 1.57-.457.183-1.049-.225-1.322-.91-.273-.686-.124-1.389.333-1.57.457-.184 1.05.224 1.322.91"/>
        <path fill="#FFF" d="M429.016 66.644c-.342.021-.43.245-.52.557-.285.09-1.324.334-3.696.072-.139-1.677-.659-3.342-1.582-4.862 2.822-2.688 4.415-3.407 4.881-3.575.434.322.78.53 1.252.209.6-.406.495-1.044.09-1.643-.407-.6-.96-.934-1.56-.528-.473.321-.408.718-.27 1.242-.33.37-1.59 1.584-5.14 3.21-.568-.728-1.213-1.363-1.91-1.911.634-.934 1.07-1.32 1.235-1.447.305.104.54.159.75-.109.267-.34.091-.683-.248-.95-.34-.267-.715-.357-.982-.017-.21.268-.102.482.071.755-.084.19-.36.707-1.117 1.543-.776-.569-1.615-1.032-2.495-1.38.677-2.617 1.35-3.583 1.551-3.828.322.032.564.034.71-.276.184-.393-.066-.69-.459-.875-.393-.183-.78-.186-.965.207-.145.31.01.495.241.722-.06.316-.38 1.477-2.016 3.727-1.532-.454-3.154-.579-4.749-.356-.413-1.596-.413-2.441-.39-2.754.011-.004.022-.01.032-.016.242-.132.482-.321.432-.734-.03-.263-.164-.462-.382-.572-.178-.09-.404-.118-.673-.086-.189.023-.353.071-.486.144-.286.155-.422.421-.382.746.052.437.362.555.63.619.098.302.301 1.14.275 2.828-1.357.313-2.679.884-3.89 1.73-.13.089-.255.182-.379.276-2.367-2.564-3.023-4.022-3.183-4.464.322-.434.53-.779.21-1.253-.407-.599-1.045-.494-1.644-.088s-.933.959-.528 1.559c.321.473.72.408 1.241.27.356.317 1.49 1.491 3.018 4.726-1.114 1.045-1.975 2.282-2.567 3.624-4.16-.285-5.724-1.042-6.099-1.263-.022-.404-.068-.701-.477-.821-.52-.151-.837.213-.988.732-.152.52-.08.997.44 1.149.41.12.607-.108.843-.436.432.016 2.132.214 5.736 2.168-.176.635-.293 1.284-.355 1.941-1.086-.075-1.623-.249-1.813-.325-.066-.317-.137-.546-.475-.592-.428-.058-.635.268-.692.696-.058.429.056.797.484.855.338.045.467-.158.614-.445.204-.023.776-.048 1.852.17-.047.742-.02 1.491.082 2.234-2.658 1.211-3.906 1.29-4.235 1.284-.175-.274-.323-.463-.657-.385-.422.1-.5.479-.4.901.1.423.338.728.76.629.333-.079.382-.315.417-.638.29-.151 1.431-.632 4.312-.738.286 1.2.777 2.371 1.48 3.462-2.96 2.863-4.624 3.615-5.102 3.787-.434-.321-.779-.529-1.253-.209-.599.406-.494 1.044-.088 1.644.406.599.96.933 1.56.527.472-.32.407-.718.27-1.241.338-.381 1.665-1.657 5.463-3.357.525.625 1.11 1.175 1.736 1.658-.443.438-.738.637-.87.716-.29-.141-.516-.224-.759.016-.306.304-.174.667.13.973.304.306.666.442.972.137.243-.24.161-.465.022-.757.081-.135.29-.439.752-.895.717.521 1.487.948 2.292 1.28-.347 2.494-.859 3.539-1.034 3.835-.404.023-.7.068-.82.478-.152.519.212.837.731.988.52.152.997.08 1.15-.439.118-.41-.108-.609-.436-.844.011-.343.14-1.483 1.165-3.736.992.328 2.027.514 3.071.557.913 3.428.726 4.876.65 5.226-.3.118-.515.227-.503.568.016.432.372.58.804.565.431-.016.776-.19.76-.621-.012-.341-.234-.434-.542-.531-.1-.342-.39-1.769.27-5.239.712-.062 1.423-.193 2.121-.395 2.684 3.093 3.245 4.71 3.353 5.128-.269.302-.448.544-.243.918.26.475.742.442 1.217.181.474-.26.761-.648.501-1.123-.205-.374-.506-.353-.904-.288-.289-.31-1.316-1.606-2.455-5.357.627-.283 1.237-.625 1.822-1.034 1.15-.801 2.1-1.78 2.844-2.874 2.37.551 3.37 1.13 3.681 1.346v.036c-.01.276.031.579.412.745.243.107.481.092.687-.04.167-.107.307-.288.415-.536.076-.176.118-.341.123-.491.01-.326-.149-.578-.45-.709-.403-.177-.662.032-.853.228-.36-.079-1.424-.404-3.349-1.689.422-.807.74-1.66.953-2.537 1.097.145 1.628.356 1.814.446.045.319.102.553.435.62.424.086.651-.225.737-.649.085-.424-.004-.799-.427-.884-.334-.067-.477.126-.642.403-.206.01-.779-.003-1.84-.291.166-.794.252-1.603.244-2.417 2.332-.541 3.394-.422 3.69-.365.125.299.24.512.581.491.433-.025.574-.386.55-.819-.027-.434-.209-.775-.643-.75"/>
        <path fill="#FFAC34" d="M406.714 68.866l.255-1.896c-4.28.506-5.899.006-6.26-.14-.066-.316-.137-.545-.475-.591-.428-.058-.635.269-.692.696-.058.429.055.797.484.855.337.046.467-.157.613-.445.388-.044 2.08-.1 6.075 1.52M411.24 74.269l-1.347-1.358c-2.208 3.702-3.59 4.68-3.926 4.878-.291-.141-.516-.224-.758.016-.307.304-.175.667.13.973.304.306.665.442.972.137.242-.24.16-.465.022-.757.2-.335 1.189-1.71 4.908-3.889M414.845 78.345l-1.913.07c1.223 4.132 1.003 5.812.921 6.193-.3.118-.515.227-.503.568.016.432.372.58.804.565.431-.016.775-.19.76-.622-.012-.34-.234-.433-.542-.53-.11-.374-.449-2.033.473-6.244M420.471 68.882l-.378 1.876c4.304-.227 5.887.377 6.238.547.045.32.101.553.435.62.424.086.651-.226.737-.649.085-.424-.004-.799-.428-.884-.333-.068-.476.126-.64.403-.39.02-2.083-.036-5.964-1.913M416.993 62.109l1.504 1.183c1.737-3.946 2.99-5.086 3.3-5.324.304.104.538.16.75-.11.266-.34.09-.682-.249-.95-.34-.266-.715-.356-.982-.016-.21.268-.102.483.071.755-.158.357-.97 1.843-4.394 4.462"/>
        <path fill="#FCBD30" d="M401.73 55.066c.32.473.719.408 1.242.27.356.317 1.488 1.49 3.017 4.726-1.113 1.045-1.975 2.282-2.566 3.624-4.162-.285-5.724-1.042-6.1-1.263-.022-.404-.067-.701-.477-.821-.52-.151-.836.213-.988.733-.151.519-.08.997.44 1.148.41.12.608-.107.843-.436.432.016 2.133.214 5.736 2.168-.406 1.467-.513 3.012-.303 4.535-2.657 1.21-3.906 1.289-4.234 1.283-.175-.274-.324-.463-.657-.385-.423.1-.5.48-.401.9.099.424.338.729.76.63.334-.08.383-.315.418-.637.29-.152 1.43-.633 4.312-.74.285 1.202.776 2.372 1.48 3.463-2.961 2.864-4.625 3.615-5.102 3.787-.435-.321-.78-.53-1.253-.21-.6.408-.495 1.045-.088 1.645.405.6.959.934 1.558.527.473-.32.408-.718.27-1.241.34-.381 1.666-1.657 5.465-3.356 1.185 1.409 2.659 2.462 4.275 3.128-.347 2.493-.86 3.538-1.035 3.834-.403.023-.701.068-.82.478-.152.52.212.837.732.988.519.152.997.08 1.148-.44.12-.41-.107-.608-.435-.843.012-.343.139-1.483 1.165-3.736 2.124.702 4.44.764 6.632.13 2.684 3.093 3.245 4.71 3.353 5.129-.27.3-.45.544-.243.918.26.474.742.44 1.216.18s.762-.648.502-1.123c-.206-.374-.506-.353-.904-.288-.29-.31-1.316-1.606-2.455-5.357.627-.283 1.237-.625 1.82-1.034 1.15-.801 2.102-1.78 2.846-2.874 2.37.55 3.37 1.13 3.68 1.346l-.001.036c-.01.276.033.579.413.745.243.107.48.092.687-.04.168-.107.307-.288.416-.536.076-.176.117-.341.122-.491.01-.326-.15-.578-.45-.71-.403-.176-.661.033-.852.23-.361-.08-1.424-.405-3.35-1.69.857-1.641 1.292-3.47 1.274-5.31 2.332-.54 3.395-.42 3.69-.364.125.299.24.512.58.49.435-.024.576-.385.55-.818-.025-.433-.208-.775-.641-.75-.342.02-.431.245-.52.557-.286.09-1.324.334-3.696.072-.14-1.677-.66-3.342-1.583-4.862 2.823-2.688 4.415-3.407 4.88-3.574.436.32.78.529 1.254.208.599-.406.494-1.043.088-1.643-.406-.6-.96-.934-1.558-.527-.473.32-.41.717-.271 1.24-.33.37-1.59 1.585-5.141 3.21-1.263-1.62-2.896-2.804-4.695-3.515.677-2.617 1.35-3.583 1.55-3.828.324.032.565.033.71-.276.185-.393-.064-.69-.457-.874-.393-.184-.781-.187-.965.206-.145.31.01.495.24.722-.06.316-.38 1.477-2.016 3.727-1.531-.454-3.153-.58-4.75-.356-.411-1.596-.412-2.441-.388-2.753l.032-.017c.24-.132.482-.321.432-.733-.031-.264-.164-.462-.383-.573-.177-.09-.403-.118-.672-.086-.19.023-.353.072-.486.144-.286.155-.422.42-.383.746.053.437.363.555.63.619.098.302.302 1.14.276 2.828-1.358.313-2.68.884-3.891 1.73-.13.09-.254.182-.378.276-2.368-2.563-3.023-4.021-3.183-4.464.322-.434.529-.78.209-1.253-.406-.6-1.044-.494-1.643-.088-.6.406-.934.959-.528 1.559"/>
        <path fill="#FFAC34" d="M412.958 75.454c.842.149 1.443.727 1.343 1.287-.1.562-.863.896-1.705.745-.842-.15-1.443-.725-1.343-1.287.1-.561.863-.894 1.705-.745M414.638 67.58c.573.82.495 1.864-.174 2.33-.669.468-1.676.181-2.248-.64-.572-.82-.494-1.864.175-2.33.668-.466 1.675-.18 2.247.64M419.538 69.976c.278-.809.94-1.314 1.48-1.129.54.185.75.991.473 1.8-.278.808-.94 1.313-1.479 1.129-.539-.186-.75-.991-.474-1.8M409.389 59.899c.84-.157 1.607.17 1.71.73.106.56-.49 1.142-1.331 1.299-.84.157-1.607-.17-1.711-.73-.105-.561.492-1.142 1.332-1.3M419.507 61.579c.506.367.718.938.473 1.276-.245.337-.854.313-1.36-.054-.506-.368-.718-.94-.473-1.277.245-.337.854-.313 1.36.055M407.188 71.643c.273.686.124 1.389-.333 1.571-.457.182-1.049-.226-1.322-.911-.273-.685-.124-1.389.333-1.571.457-.183 1.05.225 1.322.911"/>
        <path fill="#FFF" d="M457.632 202.502c-.342.021-.43.245-.52.557-.286.09-1.324.333-3.696.072-.139-1.677-.659-3.342-1.583-4.862 2.823-2.689 4.415-3.408 4.881-3.576.435.323.78.53 1.253.21.6-.407.494-1.045.088-1.643-.405-.6-.959-.934-1.558-.529-.473.321-.408.72-.27 1.242-.33.37-1.59 1.585-5.142 3.211-.567-.729-1.21-1.363-1.909-1.91.635-.936 1.07-1.322 1.235-1.449.305.104.54.16.75-.108.267-.34.092-.684-.248-.95-.34-.268-.715-.357-.982-.018-.21.27-.1.482.072.755-.085.19-.36.707-1.118 1.543-.776-.569-1.615-1.03-2.494-1.379.676-2.618 1.35-3.583 1.551-3.828.322.032.564.033.71-.277.183-.393-.066-.689-.459-.874-.393-.184-.78-.187-.965.207-.145.31.01.495.241.722-.06.316-.38 1.476-2.017 3.726-1.53-.453-3.153-.579-4.749-.355-.412-1.597-.413-2.442-.389-2.754l.031-.016c.243-.132.483-.322.433-.735-.03-.263-.164-.46-.383-.57-.177-.09-.404-.12-.672-.088-.19.024-.353.072-.486.144-.286.156-.422.421-.383.747.053.437.363.555.63.62.098.3.302 1.138.275 2.827-1.356.312-2.678.884-3.89 1.73-.129.09-.254.181-.378.275-2.368-2.563-3.024-4.02-3.183-4.463.322-.434.53-.78.21-1.253-.407-.599-1.045-.495-1.644-.089-.6.407-.934.96-.528 1.56.321.472.718.407 1.241.27.356.316 1.49 1.491 3.017 4.725-1.114 1.046-1.975 2.283-2.566 3.624-4.162-.284-5.724-1.04-6.1-1.263-.022-.403-.067-.7-.477-.82-.519-.152-.836.213-.988.732-.15.52-.08.997.44 1.15.41.118.608-.109.843-.437.432.015 2.133.213 5.736 2.167-.175.635-.292 1.285-.354 1.941-1.087-.075-1.624-.249-1.814-.325-.065-.316-.136-.546-.474-.59-.428-.059-.635.266-.693.695-.057.428.056.797.484.855.338.044.468-.158.614-.446.205-.023.776-.047 1.852.171-.047.742-.02 1.49.082 2.233-2.657 1.211-3.906 1.29-4.234 1.284-.175-.273-.324-.463-.657-.385-.423.1-.5.48-.4.902.1.422.337.728.76.628.333-.078.382-.315.416-.637.29-.15 1.431-.633 4.312-.739.286 1.201.777 2.372 1.481 3.463-2.96 2.862-4.625 3.614-5.102 3.787-.435-.322-.78-.529-1.253-.209-.599.406-.494 1.044-.088 1.643.405.6.96.933 1.558.527.473-.32.408-.718.271-1.24.34-.382 1.665-1.657 5.463-3.357.526.625 1.111 1.175 1.737 1.657-.444.438-.739.638-.87.717-.29-.14-.517-.225-.759.015-.307.305-.174.667.13.974.304.306.665.441.972.137.242-.24.16-.466.022-.758.08-.134.29-.438.752-.894.717.52 1.487.948 2.292 1.28-.347 2.494-.859 3.538-1.035 3.835-.403.023-.7.068-.82.477-.152.52.213.837.732.988.52.152.997.08 1.15-.439.118-.41-.109-.608-.437-.844.012-.342.14-1.483 1.165-3.736.993.328 2.028.514 3.072.557.913 3.428.725 4.877.65 5.227-.3.118-.515.226-.503.567.016.432.372.581.803.566.432-.016.776-.19.76-.622-.012-.34-.233-.434-.54-.53-.102-.342-.392-1.769.268-5.24.712-.062 1.423-.193 2.122-.394 2.684 3.093 3.245 4.71 3.353 5.128-.27.301-.449.543-.243.918.26.474.742.441 1.216.181s.762-.648.502-1.123c-.206-.374-.506-.354-.905-.289-.289-.31-1.315-1.605-2.454-5.356.627-.283 1.237-.626 1.821-1.035 1.15-.8 2.101-1.78 2.845-2.873 2.37.55 3.37 1.13 3.681 1.346v.035c-.01.276.031.58.412.745.243.107.48.093.687-.04.167-.107.306-.288.415-.536.076-.175.117-.34.122-.49.011-.327-.148-.578-.449-.71-.404-.176-.662.032-.853.23-.36-.08-1.424-.406-3.35-1.69.422-.808.741-1.66.954-2.538 1.097.145 1.628.356 1.814.446.045.32.101.554.435.621.423.085.651-.226.736-.65.086-.423-.003-.798-.427-.884-.334-.067-.476.127-.642.403-.205.011-.778-.003-1.839-.29.166-.795.252-1.604.243-2.418 2.332-.54 3.395-.42 3.69-.365.125.3.24.512.581.491.434-.025.575-.385.55-.819-.026-.433-.209-.774-.642-.749"/>
        <path fill="#FFAC34" d="M435.33 204.723l.256-1.896c-4.281.506-5.9.006-6.261-.139-.065-.316-.137-.546-.474-.59-.43-.059-.635.267-.693.695-.057.428.056.797.484.855.338.045.467-.157.614-.446.388-.044 2.08-.098 6.075 1.521M439.856 210.126l-1.347-1.358c-2.209 3.702-3.59 4.68-3.927 4.88-.29-.142-.515-.226-.757.014-.308.305-.175.667.13.974.304.306.665.441.971.136.243-.24.16-.465.023-.757.2-.334 1.188-1.709 4.907-3.889M443.461 214.203l-1.913.069c1.223 4.134 1.003 5.813.921 6.195-.3.118-.515.226-.503.567.016.432.372.58.804.565.431-.015.775-.19.76-.622-.012-.34-.234-.433-.542-.53-.11-.374-.449-2.033.473-6.244M449.087 204.74l-.378 1.876c4.305-.227 5.887.378 6.238.547.045.319.101.554.435.62.424.086.652-.226.737-.65.085-.422-.004-.797-.428-.883-.333-.068-.476.127-.641.403-.39.02-2.082-.036-5.963-1.913M445.609 197.966l1.504 1.183c1.737-3.946 2.989-5.085 3.299-5.324.305.104.539.16.75-.108.267-.34.092-.684-.248-.95-.34-.268-.715-.357-.982-.018-.211.27-.102.483.071.755-.158.357-.97 1.843-4.394 4.462"/>
        <path fill="#FCBD30" d="M430.346 190.923c.321.473.718.408 1.241.271.356.316 1.49 1.491 3.017 4.725-1.113 1.046-1.975 2.283-2.566 3.624-4.162-.284-5.724-1.04-6.1-1.263-.022-.403-.067-.7-.477-.82-.519-.152-.836.213-.988.733-.15.518-.08.997.44 1.148.41.12.608-.107.843-.436.432.015 2.133.213 5.736 2.167-.406 1.468-.513 3.013-.303 4.535-2.657 1.211-3.906 1.29-4.234 1.283-.175-.273-.324-.463-.657-.385-.423.1-.5.48-.4.902.1.422.337.728.76.628.333-.078.382-.315.417-.637.29-.15 1.43-.633 4.312-.739.285 1.201.776 2.372 1.48 3.463-2.96 2.863-4.625 3.614-5.102 3.787-.435-.322-.78-.529-1.253-.209-.599.407-.494 1.044-.088 1.643.405.6.96.934 1.558.527.473-.32.408-.718.271-1.24.34-.382 1.665-1.657 5.464-3.357 1.185 1.41 2.66 2.462 4.275 3.13-.347 2.492-.859 3.536-1.035 3.833-.403.023-.7.068-.82.477-.152.52.213.837.732.988.52.152.997.08 1.15-.439.118-.41-.109-.608-.437-.844.012-.342.14-1.483 1.165-3.736 2.124.703 4.44.764 6.632.131 2.684 3.093 3.245 4.71 3.353 5.13-.27.3-.449.542-.243.917.26.473.742.44 1.216.18s.762-.648.502-1.123c-.206-.374-.506-.354-.904-.289-.29-.309-1.316-1.605-2.455-5.356.627-.283 1.237-.626 1.821-1.035 1.15-.8 2.101-1.78 2.845-2.873 2.37.55 3.371 1.13 3.681 1.346v.035c-.01.276.031.58.412.745.243.107.48.093.687-.04.167-.107.306-.288.415-.536.076-.175.117-.34.122-.49.012-.327-.148-.578-.449-.71-.404-.176-.662.032-.853.23-.36-.08-1.424-.406-3.35-1.69.857-1.64 1.293-3.469 1.274-5.31 2.332-.54 3.395-.42 3.69-.365.125.3.24.512.581.491.434-.025.575-.385.55-.819-.026-.432-.209-.774-.642-.749-.342.021-.43.245-.52.557-.286.091-1.324.333-3.696.072-.139-1.677-.659-3.342-1.583-4.862 2.823-2.689 4.415-3.408 4.881-3.575.435.322.78.53 1.253.208.6-.406.494-1.043.088-1.642-.405-.6-.959-.934-1.558-.528-.473.32-.408.718-.27 1.241-.33.37-1.59 1.585-5.142 3.211-1.262-1.62-2.896-2.805-4.694-3.516.676-2.618 1.35-3.583 1.551-3.828.322.032.564.033.71-.277.183-.393-.066-.689-.459-.873-.393-.185-.78-.188-.965.206-.145.31.01.495.241.722-.06.316-.38 1.476-2.017 3.726-1.53-.453-3.153-.579-4.749-.355-.412-1.597-.413-2.442-.389-2.753l.032-.017c.242-.132.482-.322.433-.734-.032-.264-.165-.46-.384-.572-.177-.09-.403-.119-.672-.087-.189.024-.353.072-.486.144-.286.156-.422.421-.383.747.053.437.363.555.63.62.098.3.302 1.138.276 2.827-1.358.312-2.679.884-3.89 1.73-.129.09-.255.181-.378.275-2.369-2.562-3.024-4.02-3.184-4.463.322-.434.53-.78.21-1.253-.407-.599-1.045-.495-1.644-.089-.6.407-.934.96-.528 1.56"/>
        <path fill="#FFAC34" d="M441.573 211.311c.842.15 1.443.727 1.343 1.288-.099.562-.863.895-1.705.745-.842-.15-1.443-.726-1.343-1.288.1-.56.863-.894 1.705-.745M443.255 203.438c.572.82.493 1.864-.175 2.33-.67.468-1.675.18-2.248-.64-.572-.82-.495-1.863.175-2.33.668-.466 1.675-.18 2.248.64M448.154 205.834c.277-.81.94-1.314 1.48-1.13.538.186.75.991.472 1.8-.278.81-.94 1.314-1.479 1.13-.539-.186-.75-.99-.473-1.8M438.005 195.756c.84-.157 1.606.17 1.712.73.103.561-.493 1.142-1.333 1.3-.84.157-1.608-.17-1.712-.73-.105-.56.492-1.143 1.332-1.3M448.123 197.436c.506.367.718.938.473 1.276-.245.338-.854.314-1.36-.054-.506-.368-.717-.939-.473-1.276.245-.338.854-.313 1.36.054M435.804 207.501c.273.685.125 1.39-.333 1.57-.457.183-1.048-.225-1.322-.91-.273-.686-.124-1.389.333-1.572.457-.182 1.049.226 1.322.912"/>
        <path fill="#FFF" d="M68.223 145.335c-.342.021-.431.245-.52.557-.286.09-1.324.333-3.696.072-.14-1.677-.66-3.342-1.583-4.862 2.823-2.688 4.415-3.408 4.88-3.576.436.323.78.53 1.254.21.599-.406.495-1.045.088-1.643-.405-.6-.96-.934-1.558-.528-.473.321-.408.718-.271 1.241-.33.37-1.59 1.585-5.141 3.211-.567-.728-1.211-1.363-1.91-1.91.636-.935 1.07-1.322 1.236-1.449.305.104.54.16.75-.108.267-.34.092-.684-.248-.95-.34-.268-.715-.357-.982-.017-.21.268-.101.482.072.754-.085.19-.361.707-1.118 1.543-.776-.569-1.615-1.03-2.494-1.379.676-2.618 1.349-3.583 1.55-3.828.323.032.565.033.71-.276.184-.394-.065-.69-.458-.875-.393-.184-.781-.186-.965.207-.145.31.01.495.24.722-.06.316-.38 1.476-2.016 3.726-1.531-.453-3.153-.579-4.75-.355-.411-1.597-.412-2.442-.388-2.754l.03-.016c.244-.132.484-.322.434-.735-.031-.263-.164-.46-.383-.57-.177-.09-.403-.12-.672-.088-.19.024-.353.072-.486.144-.286.156-.422.421-.383.747.053.437.363.555.63.62.098.301.302 1.138.275 2.827-1.356.312-2.678.884-3.89 1.73-.13.09-.254.181-.378.276-2.368-2.564-3.024-4.022-3.183-4.464.322-.434.529-.78.209-1.253-.406-.599-1.044-.495-1.643-.089-.6.407-.934.96-.528 1.56.32.472.718.407 1.24.27.357.316 1.49 1.491 3.018 4.725-1.114 1.046-1.975 2.283-2.566 3.624-4.162-.284-5.724-1.04-6.1-1.263-.022-.403-.067-.7-.477-.82-.52-.15-.836.213-.988.732-.151.52-.08.997.44 1.15.409.118.608-.109.843-.437.432.015 2.133.214 5.736 2.167-.175.635-.292 1.285-.354 1.941-1.086-.074-1.624-.248-1.814-.325-.065-.316-.136-.545-.474-.59-.428-.059-.635.266-.693.695-.057.428.056.797.484.855.338.044.468-.158.614-.445.205-.024.776-.048 1.852.17-.047.742-.021 1.49.082 2.233-2.657 1.212-3.906 1.29-4.234 1.284-.175-.273-.324-.463-.657-.384-.423.1-.5.478-.401.901.1.422.338.728.76.628.334-.078.383-.314.417-.637.29-.15 1.43-.633 4.312-.739.286 1.201.777 2.372 1.48 3.463-2.96 2.862-4.623 3.614-5.101 3.787-.435-.322-.78-.529-1.253-.209-.6.406-.494 1.044-.088 1.643.406.6.959.933 1.558.528.473-.32.408-.719.27-1.24.34-.383 1.666-1.658 5.464-3.358.526.625 1.11 1.175 1.737 1.657-.444.438-.74.638-.871.717-.29-.14-.516-.225-.758.015-.307.305-.174.667.13.974.304.306.665.441.972.137.242-.24.16-.466.022-.757.08-.135.289-.439.752-.895.717.52 1.487.948 2.292 1.28-.347 2.494-.86 3.538-1.035 3.835-.403.023-.701.068-.82.478-.152.518.213.836.732.987.519.152.997.08 1.149-.439.119-.409-.108-.608-.436-.843.012-.343.14-1.483 1.165-3.737.993.33 2.028.515 3.072.557.913 3.43.725 4.877.649 5.227-.3.118-.514.226-.502.567.016.432.372.581.803.566.432-.016.776-.19.76-.62-.012-.342-.233-.436-.541-.532-.101-.342-.391-1.769.269-5.239.712-.063 1.423-.193 2.122-.395 2.684 3.093 3.245 4.71 3.353 5.128-.27.301-.45.543-.243.918.26.475.742.441 1.216.181s.762-.648.502-1.123c-.205-.374-.506-.354-.905-.288-.29-.31-1.315-1.606-2.454-5.357.627-.283 1.237-.626 1.82-1.034 1.15-.8 2.102-1.78 2.846-2.874 2.37.55 3.37 1.13 3.68 1.346v.035c-.01.276.032.58.413.745.243.107.48.093.687-.04.167-.107.306-.288.415-.536.076-.175.117-.34.122-.49.01-.326-.148-.578-.45-.71-.403-.176-.661.032-.852.23-.361-.08-1.424-.405-3.35-1.69.422-.808.74-1.66.954-2.538 1.097.145 1.628.356 1.814.446.045.32.1.554.435.621.424.085.65-.226.736-.649.086-.424-.003-.799-.427-.885-.334-.067-.476.127-.642.403-.205.011-.778-.003-1.84-.29.167-.794.253-1.604.244-2.418 2.332-.54 3.395-.42 3.69-.365.125.3.239.512.58.492.435-.026.576-.386.55-.82-.025-.433-.208-.774-.641-.749"/>
        <path fill="#FFAC34" d="M45.921 147.556l.255-1.896c-4.281.506-5.899.006-6.261-.139-.065-.316-.137-.545-.474-.59-.429-.059-.635.267-.693.695-.057.428.056.797.484.855.338.045.467-.157.614-.445.388-.044 2.08-.099 6.075 1.52M50.447 152.96l-1.348-1.359c-2.208 3.702-3.59 4.68-3.926 4.88-.29-.142-.516-.226-.758.014-.307.305-.175.667.13.974.304.306.665.441.972.136.242-.239.16-.465.022-.756.2-.335 1.189-1.71 4.908-3.89M54.051 157.037l-1.913.068c1.223 4.134 1.003 5.814.921 6.195-.3.118-.515.226-.503.567.016.432.372.58.804.566.431-.016.775-.19.76-.622-.012-.34-.234-.434-.542-.53-.11-.374-.449-2.033.473-6.244M59.677 147.574l-.378 1.875c4.305-.227 5.887.378 6.238.547.045.319.101.554.435.62.424.086.652-.226.737-.648.085-.424-.004-.8-.428-.885-.333-.068-.476.127-.64.403-.39.02-2.083-.036-5.964-1.912M56.2 140.8l1.503 1.182c1.737-3.946 2.99-5.085 3.3-5.324.304.104.538.16.75-.108.266-.34.091-.684-.249-.95-.34-.268-.715-.357-.982-.017-.21.268-.102.483.071.754-.158.358-.97 1.843-4.394 4.462"/>
        <path fill="#FCBD30" d="M40.937 133.756c.32.473.718.408 1.241.271.355.316 1.488 1.491 3.017 4.725-1.114 1.046-1.975 2.283-2.567 3.624-4.16-.284-5.724-1.04-6.099-1.263-.022-.403-.067-.7-.477-.82-.519-.15-.837.213-.988.733-.15.52-.08.997.44 1.148.41.12.607-.107.843-.436.432.015 2.132.214 5.736 2.167-.407 1.468-.514 3.013-.303 4.535-2.657 1.212-3.906 1.29-4.235 1.283-.174-.273-.323-.463-.657-.384-.422.1-.5.48-.4.901.1.422.338.728.761.628.333-.078.381-.314.416-.636.29-.152 1.431-.634 4.312-.74.286 1.201.777 2.372 1.481 3.463-2.96 2.863-4.625 3.614-5.103 3.787-.434-.322-.779-.529-1.252-.209-.6.407-.495 1.044-.089 1.643.406.6.96.934 1.56.528.472-.32.407-.719.27-1.24.34-.383 1.665-1.658 5.463-3.357 1.186 1.41 2.66 2.461 4.276 3.128-.347 2.493-.859 3.537-1.035 3.834-.403.023-.7.068-.82.478-.152.52.212.836.731.987.52.152.998.08 1.15-.439.12-.409-.108-.608-.436-.843.012-.343.14-1.483 1.165-3.737 2.123.703 4.44.764 6.631.131 2.684 3.093 3.245 4.71 3.353 5.13-.269.3-.448.542-.242.917.26.474.741.44 1.216.18.474-.26.762-.648.501-1.123-.205-.374-.506-.354-.904-.288-.289-.31-1.315-1.606-2.455-5.357.627-.283 1.238-.626 1.822-1.034 1.15-.8 2.1-1.78 2.844-2.874 2.371.55 3.371 1.13 3.682 1.346l-.002.035c-.009.276.033.58.413.745.243.107.481.093.687-.04.167-.107.307-.288.415-.536.076-.175.118-.34.123-.49.011-.326-.149-.578-.449-.71-.404-.176-.662.032-.853.23-.362-.08-1.424-.405-3.35-1.69.857-1.64 1.292-3.469 1.274-5.31 2.332-.54 3.394-.42 3.69-.365.125.3.24.512.581.492.434-.026.575-.386.55-.82-.027-.432-.209-.774-.642-.749-.343.021-.43.245-.52.557-.286.091-1.325.333-3.697.072-.139-1.677-.658-3.342-1.582-4.862 2.823-2.688 4.415-3.408 4.881-3.575.434.322.78.53 1.253.208.6-.405.494-1.043.088-1.642-.406-.6-.959-.934-1.559-.527-.473.32-.408.717-.27 1.24-.33.37-1.59 1.585-5.14 3.211-1.264-1.62-2.897-2.805-4.696-3.516.677-2.618 1.35-3.583 1.551-3.828.322.032.564.033.71-.276.184-.394-.066-.69-.459-.874-.392-.185-.78-.187-.964.206-.146.31.01.495.241.722-.06.316-.382 1.476-2.017 3.726-1.532-.453-3.153-.579-4.749-.355-.413-1.597-.413-2.442-.39-2.753l.032-.017c.242-.132.483-.322.433-.734-.032-.264-.164-.46-.383-.572-.177-.09-.403-.119-.673-.087-.189.024-.353.072-.485.144-.287.156-.423.421-.383.747.053.437.363.555.63.62.098.301.302 1.138.275 2.827-1.357.312-2.679.884-3.89 1.73-.129.09-.254.181-.378.276-2.368-2.563-3.024-4.02-3.184-4.464.322-.434.53-.78.21-1.253-.406-.599-1.045-.495-1.644-.089-.599.407-.933.96-.527 1.56"/>
        <path fill="#FFAC34" d="M52.164 154.145c.842.149 1.443.726 1.343 1.287-.1.562-.863.895-1.705.745-.842-.15-1.443-.726-1.343-1.288.1-.56.863-.894 1.705-.744M53.845 146.272c.572.82.494 1.863-.175 2.33-.67.467-1.675.18-2.247-.641-.573-.82-.495-1.863.174-2.33.669-.466 1.675-.18 2.248.64M58.745 148.667c.277-.81.94-1.314 1.479-1.13.539.186.75.991.473 1.8-.277.81-.94 1.314-1.48 1.13-.538-.186-.75-.99-.472-1.8M48.595 138.59c.84-.157 1.606.17 1.711.73.105.56-.492 1.141-1.332 1.298-.84.158-1.607-.17-1.712-.73-.104-.56.492-1.142 1.333-1.299M58.714 140.269c.506.368.718.939.473 1.276-.245.338-.854.314-1.36-.053-.507-.369-.718-.94-.473-1.277.245-.338.854-.313 1.36.054M46.394 150.334c.273.686.125 1.39-.333 1.57-.457.183-1.048-.225-1.322-.91-.273-.686-.124-1.389.333-1.57.457-.184 1.05.224 1.322.91"/>
        <path fill="#FFF" d="M89.73 203.853c-.205.012-.258.146-.312.334-.171.054-.794.199-2.218.043-.083-1.006-.395-2.005-.95-2.917 1.694-1.613 2.65-2.044 2.929-2.146.26.194.468.318.752.126.36-.244.297-.627.053-.986s-.576-.559-.935-.316c-.284.192-.245.43-.163.744-.197.222-.953.951-3.084 1.927-.34-.437-.727-.818-1.146-1.147.38-.56.642-.792.74-.868.185.062.325.096.452-.065.16-.205.054-.411-.15-.571-.203-.16-.428-.214-.588-.01-.127.162-.062.29.042.454-.05.114-.216.423-.67.925-.466-.341-.97-.619-1.497-.828.406-1.57.809-2.149.93-2.297.194.02.339.021.426-.166.11-.235-.04-.413-.275-.524-.235-.11-.468-.112-.578.124-.088.185.005.297.144.434-.036.189-.23.885-1.21 2.235-.92-.273-1.892-.348-2.85-.213-.247-.958-.247-1.465-.233-1.652l.019-.01c.145-.079.289-.193.26-.441-.02-.158-.1-.276-.23-.342-.107-.055-.242-.072-.404-.052-.113.014-.212.042-.291.086-.172.093-.254.252-.23.448.032.262.218.332.378.371.059.181.18.684.165 1.696-.814.188-1.607.531-2.334 1.039-.077.053-.152.109-.227.166-1.42-1.538-1.814-2.413-1.91-2.679.194-.261.318-.468.126-.752-.244-.359-.626-.296-.986-.053s-.56.575-.317.936c.193.283.43.244.745.162.213.189.893.894 1.81 2.835-.668.628-1.185 1.37-1.54 2.175-2.497-.171-3.434-.625-3.66-.758-.012-.242-.04-.421-.286-.492-.311-.091-.501.128-.593.439-.09.312-.047.598.264.689.246.072.365-.064.507-.261.259.009 1.279.128 3.44 1.3-.105.38-.174.771-.211 1.165-.652-.045-.975-.15-1.088-.196-.04-.189-.082-.327-.286-.354-.256-.035-.38.16-.415.417-.034.258.034.478.29.513.203.027.28-.094.369-.267.122-.014.466-.028 1.11.102-.027.446-.012.895.05 1.34-1.594.727-2.343.774-2.54.771-.105-.164-.195-.279-.395-.232-.253.061-.3.288-.24.541.06.254.203.438.457.377.199-.047.229-.188.25-.381.173-.091.858-.38 2.586-.444.172.721.467 1.423.889 2.077-1.777 1.718-2.775 2.169-3.061 2.273-.261-.193-.468-.318-.752-.125-.36.243-.297.626-.053.985.244.36.576.561.935.317.284-.192.245-.431.163-.745.203-.228.999-.994 3.278-2.013.315.375.666.705 1.04.994-.265.263-.441.383-.521.43-.174-.084-.31-.135-.455.009-.184.183-.105.4.078.584.183.184.399.265.583.082.145-.144.097-.279.014-.454.048-.081.173-.263.45-.537.43.313.893.569 1.376.769-.208 1.495-.515 2.122-.621 2.3-.242.014-.421.04-.492.287-.091.311.127.502.439.592.312.091.599.048.689-.263.072-.246-.064-.365-.261-.506.007-.206.084-.891.699-2.242.596.197 1.217.308 1.843.335.548 2.056.435 2.925.39 3.135-.18.071-.31.136-.301.34.009.26.222.349.482.34.258-.01.465-.114.456-.373-.008-.204-.141-.261-.326-.318-.06-.205-.234-1.062.162-3.144.427-.037.854-.116 1.273-.237 1.61 1.856 1.947 2.826 2.012 3.078-.162.18-.27.325-.146.55.156.285.445.264.73.108.284-.155.457-.389.3-.673-.123-.224-.303-.213-.542-.174-.173-.185-.79-.962-1.473-3.213.377-.17.742-.376 1.094-.621.689-.481 1.259-1.068 1.706-1.724 1.422.33 2.022.679 2.209.807l-.001.022c-.006.165.019.348.248.447.146.064.288.055.412-.024.1-.065.184-.173.249-.322.046-.105.07-.204.074-.294.006-.196-.09-.347-.27-.426-.242-.106-.397.019-.512.137-.217-.047-.854-.242-2.01-1.013.253-.485.444-.996.573-1.523.657.087.976.214 1.088.268.027.191.06.332.26.372.255.052.392-.136.443-.39.05-.254-.003-.478-.257-.53-.2-.04-.285.076-.384.242-.124.006-.468-.002-1.105-.175.1-.476.152-.961.147-1.45 1.399-.324 2.037-.253 2.214-.219.075.179.143.307.348.295.26-.015.345-.232.33-.492-.015-.26-.125-.465-.385-.449"/>
        <path fill="#FFAC34" d="M76.348 205.185l.153-1.138c-2.568.304-3.539.004-3.756-.083-.04-.189-.082-.327-.285-.354-.257-.035-.38.16-.416.417-.034.257.034.478.291.512.202.028.28-.093.368-.266.233-.026 1.25-.06 3.645.912M79.064 208.427l-.809-.814c-1.324 2.22-2.154 2.807-2.356 2.926-.174-.084-.309-.134-.454.01-.184.183-.105.4.077.584.183.184.4.265.584.082.145-.144.096-.279.013-.454.12-.2.714-1.026 2.945-2.334M81.227 210.874l-1.147.04c.733 2.48.6 3.488.552 3.718-.18.07-.31.136-.301.34.009.258.222.347.48.338.26-.008.467-.114.458-.373-.008-.204-.141-.26-.326-.318-.066-.225-.27-1.22.284-3.745M84.602 205.196l-.227 1.125c2.583-.136 3.532.227 3.743.328.027.192.061.332.261.372.255.052.391-.136.442-.39.052-.253-.002-.478-.256-.53-.2-.04-.286.076-.385.242-.234.012-1.249-.021-3.578-1.147M82.516 201.131l.902.71c1.042-2.367 1.794-3.052 1.979-3.194.183.062.324.095.45-.066.16-.204.055-.41-.148-.57-.204-.16-.43-.214-.59-.01-.126.161-.061.29.043.453-.094.214-.582 1.106-2.636 2.677"/>
        <path fill="#FCBD30" d="M73.358 196.906c.192.283.431.244.745.162.213.19.893.895 1.81 2.835-.668.628-1.185 1.37-1.54 2.175-2.497-.171-3.434-.625-3.66-.758-.013-.242-.04-.421-.286-.492-.312-.091-.502.128-.593.439-.091.312-.048.598.264.689.246.072.364-.064.506-.261.259.009 1.28.128 3.441 1.3-.243.88-.308 1.807-.181 2.72-1.594.727-2.343.774-2.541.77-.105-.163-.194-.277-.394-.23-.254.06-.3.288-.24.54.059.255.203.438.456.378.2-.047.229-.19.25-.382.174-.091.859-.38 2.587-.444.172.72.466 1.423.889 2.078-1.777 1.717-2.775 2.169-3.062 2.272-.261-.192-.468-.317-.751-.125-.36.243-.297.626-.054.985.244.36.576.56.936.318.283-.193.245-.432.162-.745.204-.23.999-.995 3.278-2.014.711.846 1.596 1.477 2.565 1.877-.208 1.495-.515 2.122-.62 2.3-.242.014-.421.04-.493.287-.091.31.128.502.44.593.312.09.598.047.689-.264.072-.246-.064-.364-.261-.506.007-.206.083-.891.699-2.242 1.274.422 2.664.459 3.979.078 1.61 1.856 1.947 2.826 2.011 3.078-.161.18-.269.325-.145.55.156.285.445.265.729.108.285-.155.457-.388.302-.673-.124-.224-.304-.212-.543-.173-.174-.186-.79-.963-1.473-3.214.376-.17.742-.376 1.093-.62.689-.482 1.26-1.07 1.707-1.725 1.422.33 2.022.679 2.208.808l-.001.02c-.005.166.02.349.248.448.146.064.289.055.412-.024.101-.064.184-.173.249-.321.046-.106.071-.204.074-.295.006-.196-.089-.347-.269-.426-.243-.105-.398.02-.513.138-.216-.048-.854-.242-2.009-1.014.514-.984.775-2.081.764-3.186 1.4-.324 2.037-.252 2.214-.218.075.178.144.306.349.295.26-.016.344-.233.329-.493-.015-.26-.125-.464-.384-.45-.205.013-.259.148-.312.335-.172.054-.795.199-2.218.043-.084-1.006-.396-2.005-.95-2.917 1.694-1.613 2.65-2.044 2.929-2.145.261.193.468.317.751.126.36-.244.297-.627.053-.987-.243-.36-.575-.56-.935-.316-.283.192-.245.43-.162.744-.197.223-.954.95-3.085 1.927-.757-.973-1.737-1.683-2.817-2.11.407-1.57.81-2.15.931-2.296.193.019.339.02.426-.166.11-.236-.039-.413-.275-.525-.236-.11-.468-.112-.579.124-.087.186.006.297.144.434-.036.189-.228.886-1.21 2.235-.918-.272-1.891-.348-2.849-.213-.247-.958-.248-1.465-.234-1.652l.02-.01c.145-.08.289-.193.259-.44-.019-.158-.098-.277-.23-.343-.106-.055-.242-.071-.403-.052-.114.014-.212.042-.292.086-.171.093-.253.252-.229.448.031.262.218.332.378.37.059.182.181.685.165 1.698-.815.187-1.607.53-2.335 1.038-.077.054-.152.109-.226.166-1.42-1.538-1.814-2.413-1.91-2.68.193-.26.318-.467.125-.751-.243-.36-.626-.296-.986-.053-.359.244-.56.576-.316.936"/>
        <path fill="#FFAC34" d="M80.094 209.138c.505.09.866.436.806.772-.06.337-.518.538-1.023.448-.505-.09-.866-.436-.806-.773.06-.337.518-.537 1.023-.447M81.103 204.415c.343.492.296 1.118-.104 1.398-.402.28-1.006.108-1.35-.384-.343-.494-.296-1.119.105-1.4.402-.279 1.006-.106 1.349.386M84.043 205.852c.167-.485.564-.789.888-.678.323.112.45.595.283 1.08-.166.486-.564.788-.887.677-.324-.11-.451-.594-.284-1.079M77.953 199.805c.504-.094.964.103 1.027.438.063.336-.295.685-.8.78-.504.094-.963-.103-1.026-.439-.063-.336.295-.684.799-.779M84.024 200.813c.304.22.431.563.284.766-.147.203-.513.188-.816-.033-.304-.22-.431-.563-.284-.765.147-.203.512-.19.816.032M76.632 206.852c.164.411.075.833-.2.942-.274.11-.629-.135-.793-.546-.164-.412-.074-.833.2-.943.274-.109.63.136.793.547"/>
    </g>
</svg>
