<svg xmlns="http://www.w3.org/2000/svg" xmlns:xlink="http://www.w3.org/1999/xlink" width="155" height="155" viewBox="0 0 155 155">
    <defs>
        <path id="prefix__c" d="M0 0.758L87.242 0.758 87.242 88 0 88z"/>
        <path id="prefix__e" d="M0.911 0.462L57.093 0.462 57.093 72 0.911 72z"/>
        <path id="prefix__g" d="M0.548 0.689L56.73 0.689 56.73 53 0.548 53z"/>
        <filter id="prefix__a" width="165.2%" height="165.2%" x="-32.6%" y="-19.6%" filterUnits="objectBoundingBox">
            <feOffset dy="15" in="SourceAlpha" result="shadowOffsetOuter1"/>
            <feGaussianBlur in="shadowOffsetOuter1" result="shadowBlurOuter1" stdDeviation="10"/>
            <feColorMatrix in="shadowBlurOuter1" values="0 0 0 0 1 0 0 0 0 0.699027652 0 0 0 0 0.0927210366 0 0 0 0.15 0"/>
        </filter>
        <circle id="prefix__b" cx="57.5" cy="57.5" r="57.5"/>
    </defs>
    <g fill="none" fill-rule="evenodd" transform="translate(20 5)">
        <use fill="#000" filter="url(#prefix__a)" xlink:href="#prefix__b"/>
        <use fill="#FFF" xlink:href="#prefix__b"/>
        <g>
            <g transform="translate(14 17) translate(0 .242)">
                <mask id="prefix__d" fill="#fff">
                    <use xlink:href="#prefix__c"/>
                </mask>
                <path fill="#374266" d="M87.242 44.38c0 3.877-.505 7.636-1.456 11.214-.307 1.155-.66 2.293-1.056 3.41-3.26 9.163-9.5 16.917-17.552 22.093-1.746 1.124-3.578 2.126-5.483 2.995-.853.388-1.72.751-2.602 1.084-2.142.813-4.364 1.462-6.65 1.932h-.001c-2.21.454-4.482.741-6.8.845-.67.03-1.344.047-2.021.047-.641 0-1.28-.015-1.914-.043-4.608-.197-9.03-1.11-13.16-2.632-1.055-.387-2.09-.815-3.104-1.28-1.925-.886-3.775-1.904-5.536-3.05-1.173-.76-2.305-1.575-3.397-2.442-6.04-4.795-10.777-11.158-13.6-18.476-.387-1-.736-2.019-1.05-3.055C.65 53.022 0 48.775 0 44.38c0-5.533 1.03-10.829 2.91-15.7l.03-.074c1.727-4.449 4.159-8.54 7.162-12.143.083-.099.164-.196.248-.294C18.35 6.74 30.287.758 43.62.758c24.092 0 43.622 19.53 43.622 43.621" mask="url(#prefix__d)"/>
            </g>
            <path fill="#A8B7EF" d="M40.928 15.241v12.935c0 1.264-1.025 2.29-2.29 2.29-1.264 0-2.29-1.026-2.29-2.29V15.35c0-3.56-2.817-6.544-6.378-6.61-3.643-.069-6.628 2.874-6.628 6.502v12.935c0 1.264-1.025 2.29-2.29 2.29-1.265 0-2.29-1.026-2.29-2.29V15.241c0-6.12 4.962-11.083 11.083-11.083 6.122 0 11.083 4.963 11.083 11.083" transform="translate(14 17)"/>
            <g transform="translate(14 17) translate(2 16.242)">
                <mask id="prefix__f" fill="#fff">
                    <use xlink:href="#prefix__e"/>
                </mask>
                <path fill="#BEC8F7" d="M57.093.462v68.714c-2.142.813-4.364 1.462-6.65 1.932h-.002c-2.209.454-4.481.741-6.799.845-.67.03-1.344.047-2.021.047-.641 0-1.28-.015-1.914-.043-5.785-.247-11.278-1.624-16.264-3.913-1.925-.885-3.775-1.903-5.536-3.049-1.173-.76-2.305-1.575-3.397-2.442C8.471 57.758 3.733 51.395.911 44.077V.462h56.182z" mask="url(#prefix__f)"/>
            </g>
            <path fill="#A8B7EF" d="M12.732 75.422c-4.247-4.258-7.618-9.39-9.82-15.103V16.704h9.82v58.718z" transform="translate(14 17)"/>
            <path fill="#F2F2F7" d="M48.554 15.241v12.935c0 1.264-1.025 2.29-2.29 2.29-1.264 0-2.29-1.026-2.29-2.29V15.35c0-3.56-2.817-6.544-6.378-6.61-3.643-.069-6.628 2.874-6.628 6.502v12.935c0 1.264-1.025 2.29-2.29 2.29-1.265 0-2.29-1.026-2.29-2.29V15.241c0-6.12 4.962-11.083 11.083-11.083 6.122 0 11.083 4.963 11.083 11.083" transform="translate(14 17)"/>
            <path fill="#FFB332" d="M66.618 31.321v12.935c0 1.264-1.025 2.29-2.29 2.29-1.264 0-2.289-1.026-2.289-2.29V31.43c0-3.56-2.818-6.544-6.379-6.61-3.643-.069-6.628 2.874-6.628 6.502v12.935c0 1.264-1.025 2.29-2.29 2.29-1.265 0-2.29-1.026-2.29-2.29V31.322c0-6.12 4.962-11.083 11.083-11.083 6.122 0 11.083 4.962 11.083 11.082" transform="translate(14 17)"/>
            <g transform="translate(14 17) translate(28 35.242)">
                <mask id="prefix__h" fill="#fff">
                    <use xlink:href="#prefix__g"/>
                </mask>
                <path fill="#FFC839" d="M56.73.689v23.315c-3.26 9.164-9.5 16.917-17.552 22.093-1.746 1.124-3.578 2.126-5.483 2.995-.853.388-1.72.75-2.602 1.084-2.142.814-4.363 1.462-6.65 1.932h-.001c-2.21.454-4.482.74-6.8.846-.67.03-1.344.047-2.021.047-.641 0-1.28-.015-1.914-.043-4.608-.198-9.03-1.112-13.16-2.632V.689H56.73z" mask="url(#prefix__h)"/>
            </g>
            <path fill="#FFB332" d="M38.307 87.92c-1.58.062-8.04-1.577-9.76-2.353V35.93h9.822l-.062 51.99z" transform="translate(14 17)"/>
            <path fill="#F2F2F7" d="M73.894 31.321v12.935c0 1.264-1.025 2.29-2.29 2.29-1.264 0-2.289-1.026-2.289-2.29V31.43c0-3.56-2.818-6.544-6.379-6.61-3.643-.069-6.628 2.874-6.628 6.502v12.935c0 1.264-1.025 2.29-2.29 2.29-1.265 0-2.29-1.026-2.29-2.29V31.322c0-6.12 4.962-11.083 11.083-11.083 6.122 0 11.083 4.962 11.083 11.082" transform="translate(14 17)"/>
        </g>
    </g>
</svg>
