<svg xmlns="http://www.w3.org/2000/svg" xmlns:xlink="http://www.w3.org/1999/xlink" width="630" height="480" viewBox="0 0 630 480">
    <defs>
        <path id="prefix__a" d="M0.836 0.037L618.74 0.037 618.74 389.118 0.836 389.118z"/>
        <path id="prefix__c" d="M66.484.499c-2.508 1.092-3.866 3.795-4.816 6.36-1.711 4.617-2.766 9.478-3.121 14.389-.088 1.209-.141 2.456-.65 3.556-.507 1.101-1.604 2.032-2.813 1.934-1.034-.085-1.896-.909-2.302-1.864-.406-.955-.433-2.025-.394-3.062.278-7.51 3.818-14.841 9.527-19.728C59.479.624 56.441.206 53.701.953c-2.74.746-5.145 2.647-6.504 5.142-2.024 3.712-1.654 8.214-1.228 12.422l.993 9.822c.125 1.235.182 2.661-.72 3.511-.823.775-2.19.718-3.15.122-.962-.596-1.584-1.611-2.049-2.641-1.823-4.033-1.725-8.722-.61-13.004 1.114-4.282 3.179-8.247 5.226-12.169-11.095 4.248-18.495 8.332-26.668 16.955l-3.022 3.102c.21 6.395 3.914 12.569 9.459 15.763 1.1.633 2.447 1.469 2.319 2.731-.092.904-1.002 1.553-1.907 1.633-.903.081-1.786-.28-2.593-.696-6.308-3.262-10.159-10.721-9.165-17.754C5.952 33.244 1.027 44.023.793 54.979c-.069 3.196.257 6.454 1.497 9.401 1.242 2.947 3.482 5.565 6.443 6.771 2.961 1.206 6.649.788 8.957-1.422 1.338-1.283 2.137-3.033 3.414-4.376 1.277-1.342 3.86-2.662 4.967-1.178.553.741-1.205 2.447-2.041 3.191-.313.278-.612.578-.873.906-2.648 3.328-3.02 6.669-2.083 10.984.989 4.551 5.176 11.301 8.288 14.766 3.176 3.535 9.626 5.56 13.185 5.808 14.974 1.044 21.227-7.747 21.227-7.747s-8.743-.666-13.513-7.004c-4.311-5.729-4.025-12.661-7.344-19.017-.502-.962-1.017-1.965-1.063-3.049-.047-1.085.515-2.278 1.553-2.599 1.075-.332 2.243.395 2.818 1.363.575.968.71 2.124.895 3.236 1.09 6.562 4.396 12.736 9.254 17.28 3.293 3.08 7.505 5.482 12.014 5.485 3.452.002 6.788-1.405 9.622-3.377 2.835-1.971 5.236-4.491 7.616-6.993-11.16 2.148-23.328-2.149-30.665-10.827-1.372-1.621-2.646-3.58-2.173-5.756.311-1.425 1.515-2.571 2.968-2.462 1.462.109 2.213 1.392 2.919 2.52 4.899 7.822 13.739 13.03 22.955 13.523 2.585.138 5.319-.116 7.472-1.554 3.816-2.55 4.786-8.058 8.63-10.568-9.9 5.259-22.626 4.721-32.046-1.356-1.067-.69-2.126-1.478-2.755-2.582-.63-1.104-.729-2.599.07-3.587.977-1.208 2.888-1.206 4.278-.513 1.39.694 2.435 1.904 3.606 2.925 3.149 2.745 7.305 4.142 11.463 4.541 4.158.4 8.349-.133 12.46-.868 2.265-.404 4.763-1.033 5.995-2.975.693-1.092.858-2.428 1.005-3.713.647-5.62 1.293-11.241 1.938-16.862-.733 2.456-8.32 8.04-13.514 9.035-2.962.568-9.02.248-11.904-.634-.987-.301-1.993-.613-2.83-1.218-.836-.603-1.488-1.562-1.447-2.593.043-1.116.892-2.078 1.9-2.56 1.008-.482 2.155-.569 3.271-.605 1.829-.057 3.664.002 5.497.061 2.927.096 5.852.191 8.75-.194 4.712-.626 9.58-2.846 11.722-7.09-3.703-7.016-5.514-15.019-5.19-22.944.097-2.362.331-4.918-.949-6.907l-.873 2.148c-1.423 2.333-4.595 3.507-7.16 2.494-1.943-.766-3.497-2.572-5.581-2.72-1.47-.105-2.892.683-3.899 1.761-1.007 1.078-1.67 2.424-2.318 3.749l-5.498 11.246c-.858 1.754-2.307 3.817-4.212 3.39-1.44-.323-2.159-1.941-2.429-3.391-.647-3.485.083-7.206 1.998-10.189 1.915-2.981 4.996-5.193 8.434-6.054-1.596-1.265-3.216-2.547-5.091-3.341-1.081-.456-2.267-.736-3.435-.736-.861 0-1.711.152-2.504.497m-4.613 35.607c-.874-.575-1.09-1.819-.78-2.819.309-1 .521-1.469 1.039-2.378.466-.817 2.022-2.793 2.022-2.793.525-.553 1.321-.917 2.06-.722.592.156 1.057.649 1.293 1.215.236.566.269 1.198.223 1.809-.138 1.827-.973 3.592-2.298 4.856-.477.455-1.027.853-1.657 1.043-.244.074-.5.113-.755.113-.407 0-.809-.1-1.147-.324m-9.578 4.08c-.619-.063-1.141-.532-1.418-1.088-.277-.557-.349-1.192-.373-1.813-.078-1.939.246-3.892.943-5.702.307-.796.79-1.651 1.619-1.845.584-.136 1.209.111 1.64.527.43.415.69.978.862 1.55.549 1.819.156 3.795-.714 5.481-.233.451-.79 1.867-.79 1.867-.349.572-.963 1.03-1.625 1.03-.048 0-.096-.002-.144-.007m20.676-5.166c-.536-.303-.771-1-.641-1.601.131-.602.573-1.101 1.097-1.424.525-.322 1.131-.487 1.734-.613.373-.078.758-.144 1.134-.079.377.065.747.284.896.636.161.375.037.825-.217 1.145l-.255.369c-.529.656-1.224 1.177-2 1.505-.326.136-.689.236-1.039.236-.248 0-.491-.05-.709-.174M33.231 46.553c-2.629-2.319-3.807-6.161-2.93-9.554.352-1.361 1.298-2.833 2.704-2.82.754.01 1.445.471 1.912 1.063.467.592.748 1.306 1.021 2.008l1.534 2.901c.703 1.275 1.421 2.604 1.516 4.057.093 1.453-.628 3.068-2.01 3.526-.27.089-.545.13-.821.13-1.052 0-2.111-.592-2.926-1.311m8.602-4.415c-.671-.49-1.048-1.31-1.158-2.135-.11-.824.018-1.662.192-2.475.107-.505.237-1.018.523-1.448.286-.429.759-.766 1.276-.76.552.008 1.039.409 1.296.897l.318.517c.52 1.013.784 2.158.763 3.297-.016.816-.224 1.706-.88 2.193-.304.226-.676.33-1.054.33-.451 0-.91-.148-1.276-.416m21.442 6.946c-1.395-.529-2.976-1.26-3.322-2.711-.202-.85.11-1.774.698-2.419.59-.646 1.424-1.031 2.282-1.197 1.597-.311 3.193.305 4.579 1.154 2.014 1.235 2.693 3.285 2.693 3.285.032 1.424-1.373 2.548-2.786 2.728-.196.025-.393.037-.588.037-1.213 0-2.409-.441-3.556-.877m-13.11 7.09c-1.187-.423-2.257-1.319-2.638-2.519-.42-1.321.114-2.886 1.253-3.672 1.141-.788 2.696-.594 3.879.127.768.468 3.278 1.481 3.278 1.481.992.649 1.681 1.923 1.274 3.037-.459 1.253-1.983 1.707-3.31 1.844-.44.045-.885.074-1.33.074-.82 0-1.636-.098-2.406-.372m-29.24.632c-1.103-.288-2.185-.745-3.047-1.492-.861-.747-1.488-1.811-1.539-2.951-.097-2.138 9.421-3.297 11.598-1.9.633.405 1.168.962 1.54 1.616l.053.092c.94 1.683.067 3.843-1.771 4.431-1.222.392-2.506.591-3.788.592-1.027 0-2.053-.128-3.046-.388m13.579 20.736c-.997-.737-1.671-1.836-2.153-2.978-1.397-3.307-1.319-7.206.209-10.455.302-.643.682-1.287 1.285-1.661.603-.376 1.427-.338 1.957.135 1.296 1.154 2.957 7.143 2.957 7.143.673 1.433 1.359 2.917 1.412 4.5.053 1.581-.693 3.303-2.159 3.903-.369.151-.76.22-1.155.22-.832 0-1.677-.307-2.353-.807"/>
        <path id="prefix__e" d="M26.493 1.042C20.196 5.136 14.498 10 9.464 15.514 6.171 18.711 3.079 22.121.228 25.752c-.423.538.389 1.229.813.687.25-.317.514-.621.766-.935.165.036.343.001.485-.167.553-.657 1.127-1.292 1.694-1.935.163.038.34 0 .475-.181.574-.777 1.174-1.531 1.772-2.287 6.314-6.73 13.417-12.642 21.225-17.617.578-.368-.031-1.242-.609-.873-.232.148-.458.302-.689.451-.07-.077-.155-.142-.257-.17.4-.27.795-.546 1.2-.809.476-.31.138-.965-.319-.965-.094 0-.193.027-.291.091"/>
        <path id="prefix__h" d="M.543 5.54C.517 7.022 1.08 8.425 2.13 9.49c1.045 1.06 2.448 1.659 3.951 1.686h.104c3.062 0 5.581-2.416 5.637-5.434.027-1.482-.536-2.884-1.585-3.95C9.192.732 7.788.133 6.285.107L6.182.106C3.119.106.6 2.523.543 5.54m5.569 3.89c-1.043-.019-2.016-.433-2.739-1.165-.717-.728-1.102-1.684-1.083-2.693.038-2.065 1.777-3.72 3.892-3.72l.072.001c1.044.018 2.017.432 2.739 1.165.717.727 1.102 1.683 1.083 2.692-.037 2.065-1.796 3.72-3.889 3.72h-.075"/>
        <path id="prefix__k" d="M.202 7.179c-.071 3.961 3.059 7.23 6.99 7.302 3.932.073 7.176-3.08 7.247-7.041.073-3.961-3.057-7.229-6.988-7.301L7.319.137C3.447.137.273 3.263.202 7.179"/>
        <path id="prefix__m" d="M.822 4.719c-.04 2.21 1.706 4.033 3.898 4.073 2.192.04 4.002-1.719 4.042-3.927C8.802 2.657 7.057.833 4.864.793L4.791.792C2.632.792.862 2.535.822 4.719"/>
        <path id="prefix__p" d="M.73.779v9.707c0 3.366 17.97 6.094 40.137 6.094 22.166 0 40.135-2.728 40.135-6.094V.779H.73z"/>
        <path id="prefix__r" d="M.542.812v9.708c0 3.365 17.97 6.094 40.137 6.094 22.166 0 40.136-2.729 40.136-6.094V.812H.542z"/>
        <path id="prefix__t" d="M.021.775v9.708c0 3.365 17.969 6.093 40.136 6.093s40.137-2.728 40.137-6.093V.775H.021z"/>
        <linearGradient id="prefix__f" x1="341.933%" x2="93.854%" y1="-141.91%" y2="20.691%">
            <stop offset="0%" stop-color="#A8F2FF"/>
            <stop offset="100%" stop-color="#8595F9"/>
        </linearGradient>
        <linearGradient id="prefix__i" x1=".01%" x2="100.002%" y1="50.001%" y2="50.001%">
            <stop offset="0%" stop-color="#FFB218"/>
            <stop offset="100%" stop-color="#FFCF44"/>
        </linearGradient>
        <linearGradient id="prefix__n" x1=".002%" x2="100.003%" y1="49.998%" y2="49.998%">
            <stop offset="0%" stop-color="#FFB218"/>
            <stop offset="100%" stop-color="#FFCF44"/>
        </linearGradient>
    </defs>
    <g fill="none" fill-rule="evenodd">
        <g>
            <g transform="translate(3 25) translate(0 .964) translate(6)">
                <mask id="prefix__b" fill="#fff">
                    <use xlink:href="#prefix__a"/>
                </mask>
                <path fill="#FFF4DD" d="M615.626 158.185c-3.262-17.554-8.985-34.753-16.7-50.796-25.89-53.84-76.369-90.187-134.82-102.176-8.626-1.77-17.335-3.094-26.078-4.025-41.132-4.378-79 4.307-117.622 16.342-18.322 5.709-35.857 15.435-53.565 23.08-40.3 17.397-82.189 32.235-125.035 42.314-25.951 6.104-53.788 7.667-76.899 21.769C26.433 128.168 2.744 174.946.942 219.22c-1.031 25.342 5.481 51.335 19.862 72.7 16.592 24.65 42.676 42.018 70.389 53.253 37.707 15.286 79.055 22.2 118.891 29.055 64.164 11.04 131.706 20.66 196.183 10.759 31.232-4.843 61.119-15.527 89.218-29.184 42.225-20.523 81.844-51.03 105.025-92.017 18.131-32.06 21.81-69.575 15.116-105.601" mask="url(#prefix__b)"/>
            </g>
            <path fill="#FFF" d="M463.004 50.363h-4.248c1.423.71 2.84 1.435 4.248 2.182v-2.182zM582.482 331.945v-19.749c-3.247 6.846-6.967 13.45-11.131 19.75h11.13z" transform="translate(3 25) translate(0 .964)"/>
            <path fill="#F7E8C8" d="M472.458 57.92v-7.557h-9.454v2.182c3.19 1.69 6.34 3.488 9.454 5.375M598.13 250.946c.118-2.115.21-4.232.243-6.35.402-25.18-5.6-48.895-15.89-70.81v77.16h15.646zM289.835 50.363v71.604h63.146V50.363h105.776c-36.621-18.28-77.738-24.633-118.639-27.555-36.652-3.282-73.829-5.016-110.045 1.507-17.248 3.107-34.112 8.162-50.262 14.934v11.114h110.024zM337.527 131.361c5.024 4.444 8.192 10.916 8.192 18.126 0 13.4-10.932 24.262-24.418 24.262-13.485 0-24.417-10.863-24.417-24.262 0-7.21 3.168-13.682 8.192-18.126h-15.24v119.585h63.145V131.361h-15.454z" transform="translate(3 25) translate(0 .964)"/>
            <path fill="#FCC23F" d="M320.477 172.57c12.398.514 22.903-9.156 23.416-21.554.513-12.398-9.156-22.903-21.554-23.416-12.399-.513-22.903 9.157-23.416 21.554-.513 12.398 9.156 22.902 21.554 23.416m1.952-47.146c13.598.563 24.203 12.083 23.64 25.682-.563 13.598-12.084 24.203-25.682 23.64-13.598-.563-24.203-12.084-23.64-25.682.563-13.598 12.084-24.203 25.682-23.64" transform="translate(3 25) translate(0 .964)"/>
            <path fill="#FCC23F" d="M320.732 166.405c.601.024 1.068.532 1.043 1.133l-.12 2.901c-.025.601-.532 1.068-1.133 1.043-.6-.025-1.068-.532-1.043-1.133l.12-2.9c.025-.603.532-1.069 1.133-1.044M322.293 128.689c.601.024 1.068.531 1.043 1.132l-.12 2.901c-.024.601-.531 1.07-1.132 1.043-.601-.023-1.069-.531-1.043-1.132l.12-2.901c.024-.601.531-1.067 1.132-1.043M305.088 149.41c-.025.601-.532 1.067-1.133 1.043l-2.9-.12c-.602-.026-1.069-.532-1.044-1.134.025-.6.532-1.067 1.133-1.043l2.901.12c.601.026 1.068.532 1.043 1.134M342.805 150.97c-.025.603-.532 1.069-1.133 1.044l-2.901-.12c-.601-.025-1.068-.532-1.043-1.133.025-.601.532-1.067 1.133-1.043l2.9.12c.602.026 1.069.532 1.044 1.133" transform="translate(3 25) translate(0 .964)"/>
            <path fill="#FF881D" d="M324.869 145.594l-9.551 13.288c-.093.129-.29.005-.214-.135l7.907-14.513c.27-.496.798-.797 1.362-.778l.263.01c.308.01.549.27.538.577l-.025.733c-.011.294-.108.579-.28.818" transform="translate(3 25) translate(0 .964)"/>
            <path fill="#FCC23F" d="M336.834 159.59l-20.069-14.424c-.211-.152-.488-.18-.724-.071l-.748.342c-.394.179-.651.566-.667.998l-.021.612c-.009.263.124.509.348.646l20.98 12.738.871.03.03-.871z" transform="translate(3 25) translate(0 .964)"/>
            <path fill="#FCC23F" d="M317.997 149.772c.059-1.684 1.472-3 3.155-2.94 1.684.058 3 1.47 2.94 3.155-.058 1.683-1.47 3-3.154 2.94-1.684-.06-3-1.471-2.941-3.155" transform="translate(3 25) translate(0 .964)"/>
            <path fill="#FFF" d="M72.82 121.968h97.538V50.364h-13.635c-16.175 8.84-31.378 19.467-45.21 31.637-13.896 12.224-26.15 26.436-38.693 39.967M289.052 121.968L289.835 121.968 289.835 50.364 179.811 50.364 179.811 121.968zM289.052 131.361L179.811 131.361 179.811 250.946 289.052 250.946 289.835 250.946 289.835 131.361zM170.358 250.946V131.361H64.625c-1.531 2.084-2.96 4.285-4.291 6.59v112.995h110.024zM352.981 121.968h110.023V52.545c-1.408-.747-2.825-1.472-4.247-2.181H352.981v71.604zM352.981 250.946L353.764 250.946 463.004 250.946 463.004 131.361 353.764 131.361 352.981 131.361z" transform="translate(3 25) translate(0 .964)"/>
            <path fill="#F7E8C8" d="M582.482 312.196c7.727-16.292 12.788-33.915 14.85-51.856h-14.85v51.856zM170.358 43.44c-4.615 2.166-9.161 4.478-13.634 6.923h13.634V43.44zM472.458 368.696h-9.454v-36.75H352.981V260.34h-63.146v71.605H179.811v36.751h-9.453v-36.75H60.334V260.34H28.808c-1.646 10.341-2.909 20.345-.642 31.762 3.349 16.858 11.269 32.748 21.79 46.263.565.726 1.137 1.448 1.716 2.167 25.456 31.58 64.15 55.711 102.188 68.523 54.052 18.206 111.003 16.815 167.133 15.251 67.609-1.882 140.767-12.309 200.619-45.608 20.262-11.272 37.062-27.575 49.739-46.753h-98.893v36.751zM60.334 137.951c-9.088 15.731-13.837 35.97-18.391 52.208-4.952 17.658-8.742 35.59-10.734 53.83-.259 2.37-.576 4.682-.915 6.957h30.04V137.951z" transform="translate(3 25) translate(0 .964)"/>
            <path fill="#FFF" d="M179.811 260.34L179.811 331.945 289.835 331.945 289.835 260.34 289.052 260.34z" transform="translate(3 25) translate(0 .964)"/>
            <path fill="#F7E8C8" d="M170.358 368.696L179.811 368.696 179.811 331.945 170.358 331.945zM60.334 250.946h-30.04c-.476 3.192-.996 6.31-1.486 9.394h31.526v-9.394zM179.811 50.363V39.25c-3.179 1.333-6.333 2.726-9.453 4.191v6.923h9.453z" transform="translate(3 25) translate(0 .964)"/>
            <path fill="#F7E8C8" d="M289.052 260.34v-9.394h-109.24V131.36h109.24v-9.393h-109.24V50.363h-9.454v71.605H72.82c-1.247 1.346-2.494 2.693-3.748 4.022-1.579 1.673-3.055 3.474-4.448 5.37h105.734v119.586H60.334v9.394h110.024v71.605h9.453V260.34h109.241z" transform="translate(3 25) translate(0 .964)"/>
            <path fill="#619440" d="M11.357 315.649C9.203 305.9.31 298.274.007 288.189c-.195-6.463 3.942-11.399 10.218-10.938 7.954.585 12.944 7.45 17.327 13.812 3.117 4.523 6.276 8.529 11.03 11.173 4.08 2.269 8.53 3.553 12.76 5.4 7.441 3.251 12.388 8.355 16.261 15.813 4.297 8.272 7.26 18.635 15.913 23.078 7.063 3.63 16.148 3.06 21.566 10.08 5.906 7.651 3.537 22.158 13.596 25.844 4.249 1.556 8.51 1.52 12.589 3.865 3.154 1.815 5.923 4.37 8.165 7.35 4.853 6.452 7.05 14.748 5.383 22.526-.072.334-.238.577-.447.745-.707 7.935-1.922 16.212-6.615 22.424-4.156 5.5-10.838 9.009-17.772 6.995-11.802-3.428-16.968-17.996-26.584-24.93-3.424-2.467-6.99-3.334-10.96-2.591-4.346.81-8.24 3.232-12.825 2.877-6.706-.517-11.707-5.996-14.93-11.948-4.887-9.026-5.285-20.28-11.906-28.368-5.934-7.25-15.364-9.543-21.554-16.519-11.862-13.368-6.348-33.308-9.866-49.228" transform="translate(3 25) translate(0 .964)"/>
            <path fill="#496B32" d="M15.334 296.7c4.396 10.913 11.997 19.93 19.494 28.834 7.713 9.162 15.435 18.318 23.291 27.36 15.674 18.04 31.898 35.666 49.584 51.767 9.775 8.898 19.998 17.308 30.74 25.017 1.308.94 2.558-1.228 1.261-2.159-19.017-13.649-36.305-29.545-52.527-46.382-16.399-17.022-31.742-35.018-46.97-53.083-8.36-9.918-17.549-19.82-22.463-32.018-.593-1.474-3.012-.83-2.41.664" transform="translate(3 25) translate(0 .964)"/>
            <path fill="#496B32" d="M120.144 411.926c-2.872-10.927-5.546-21.905-8.02-32.93-.352-1.57-2.762-.905-2.41.665 2.474 11.025 5.148 22.002 8.02 32.93.409 1.555 2.82.896 2.41-.665M102.291 397.497c-3.337-.285-6.583.5-9.803 1.275-3.183.77-6.39 1.43-9.621 1.966-3.286.545-6.591.958-9.909 1.247-3.345.29-6.729.508-10.031-.238-1.567-.354-2.236 2.056-.664 2.411 3.214.726 6.47.665 9.736.406 3.384-.267 6.757-.669 10.111-1.187 3.316-.513 6.612-1.152 9.878-1.916 3.406-.797 6.769-1.767 10.303-1.464 1.603.137 1.594-2.364 0-2.5M81.804 375.354c-1.953-3.1-2.707-6.68-3.57-10.191-.94-3.834-1.951-7.65-3.033-11.447-2.167-7.599-4.618-15.113-7.334-22.534-.548-1.499-2.965-.85-2.411.666 2.77 7.57 5.268 15.24 7.466 22.998 1.098 3.875 2.12 7.772 3.074 11.685.85 3.49 1.713 7.012 3.649 10.085.856 1.358 3.02.106 2.159-1.262M59.316 351.972c-10.821 1.71-21.906 1.385-32.633-.813-1.57-.323-2.242 2.087-.664 2.41 11.196 2.295 22.67 2.597 33.962.813 1.584-.25.912-2.66-.665-2.41M39.265 327.475c.168-7.57-1.104-15.13-3.71-22.236-.548-1.498-2.966-.851-2.41.664 2.536 6.917 3.784 14.205 3.62 21.572-.036 1.609 2.464 1.609 2.5 0" transform="translate(3 25) translate(0 .964)"/>
            <path fill="#306B34" d="M61.161 346.867c7.044-7.91 31.73 3.145 47.054 19.512l-16.564-27.533c-4.312-2.59-11.599-5.979-22.177-7.718-16.449-2.706-33.675-8.66-26.618-16.586 6.614-7.426 28.776 1.863 44.143 16.572l-21.27-35.357c-2.79-1.464-6.9-3.097-12.452-4.01-10.366-1.705-21.222-5.458-16.775-10.452 3.86-4.334 16.123.365 25.607 8.445l-6.894-11.46c-2.685-3.19-6.51-7.756-11.766-11.562-12.177-8.822-22.29-19.465-15.197-22.729 7.102-3.267 24.198 15.38 30.483 34.067l3.548 5.898c-4.802-13.547-3.98-31.28 2.377-33.182 6.315-1.888 4.752 9.806 1.627 20.138-2.379 7.864-2.202 13.69-1.836 16.648l16.757 27.854c-7.547-21.473-6.222-49.462 3.835-52.469 10.022-2.996 7.542 15.56 2.583 31.953-3.747 12.39-3.499 21.593-2.926 26.321l20.093 33.4c-7.07-21.296-5.836-49.115 4.258-51.234 7.781-1.634 8.086 10.642 2.574 29.167-3.747 12.588-3.45 23.158-2.878 28.64l9.465 15.732c-.778.903-1.672 1.472-2.639 1.687l-3.766-6.26c-3.904-2.637-11.75-6.878-24.028-8.896-16.449-2.706-33.675-8.662-26.618-16.586" transform="translate(3 25) translate(0 .964)"/>
            <path fill="#FFF" d="M472.458 260.34v71.605h98.893c4.164-6.298 7.884-12.903 11.131-19.75V260.34H472.458zM511.959 86.44c-11.832-9.945-24.341-19.104-37.46-27.282-.677-.42-1.36-.826-2.04-1.239v64.048h75.74c-11.12-12.878-23.43-24.759-36.24-35.527M353.764 260.34L352.981 260.34 352.981 331.945 463.005 331.945 463.005 260.34zM472.458 131.361v119.585h110.024v-77.16c-7.055-15.025-16.127-29.2-26.535-42.425h-83.489z" transform="translate(3 25) translate(0 .964)"/>
            <path fill="#F7E8C8" d="M582.482 260.34h14.85c.36-3.123.622-6.256.797-9.394h-15.647v9.394zM463.004 368.696L472.458 368.696 472.458 331.945 463.004 331.945zM305.077 131.361c4.314-3.815 9.996-6.137 16.225-6.137 6.23 0 11.912 2.322 16.226 6.137h15.453v-9.394h-63.146v9.394h15.242zM289.835 260.34L352.981 260.34 352.981 250.946 289.835 250.946zM289.052 260.34L289.835 260.34 289.835 250.946 289.052 250.946zM289.052 131.361L289.835 131.361 289.835 121.967 289.052 121.967zM472.458 57.92c-3.114-1.887-6.264-3.685-9.454-5.375v69.423h-109.24v9.393h109.24v119.585h-109.24v9.394h109.24v71.605h9.454V260.34h110.024v-9.394H472.458V131.36h83.489c-2.509-3.186-5.094-6.318-7.749-9.393h-75.74V57.92zM352.981 131.362L353.764 131.362 353.764 121.968 352.981 121.968zM352.981 260.34L353.764 260.34 353.764 250.946 352.981 250.946z" transform="translate(3 25) translate(0 .964)"/>
            <path fill="#619440" d="M448.181 366.541c.795-3.518 2.847-15.24 6.231-16.486 3.691-1.358 8.256.386 10.1 3.86.796 1.499 1.147 3.273 2.674 4.28.853.563 2.026.572 2.73-.17 1.15-1.209.06-3.051-.877-4.38-1.793-2.544-3.07-5.548-3.084-8.661-.013-3.113 1.388-6.32 4.005-8.005 2.618-1.684 6.448-1.491 8.56.796 1.321 1.43 1.878 3.455 3.604 4.575.897.58 2.073.698 2.94.074 1.751-1.259.57-3.966-.618-5.756-1.677-2.53-3.15-5.282-3.59-8.285-.442-3.003.296-6.308 2.501-8.393 2.205-2.085 6.001-2.526 8.28-.521.912.802 1.52 1.897 2.37 2.764 1.022 1.04 2.672 1.76 3.922.655.866-.766 1.01-2.048.58-3.121-.595-1.488-1.796-2.386-2.989-3.302-1.879-1.444-3.176-3.564-3.453-5.917-.827-7.031 6.954-9.74 11.341-6.653 1.231.867 2.462 2.19 3.967 1.765 1.188-.334 1.84-1.585 1.71-2.812-.258-2.425-2.264-3.829-3.329-5.8-1.95-3.605.24-8.757 4.187-9.856 3.02-.84 3.802 3.071 5.17 6.493.314.786 1.47.62 1.558-.223.354-3.352 1.461-7.535 2.31-9.844 1.557-4.235 7.893-8.882 10.92-2.788.812 1.634.195 5.838-.85 7.002-1.478 1.646-4.997 7.301-4.997 7.301-.33.646.404 1.323 1.015.93 1.387-.893 2.876-1.593 4.587-1.749.783-.07 1.585.007 2.328.264 4.43 1.525 3.742 6.978.912 9.591-2.352 2.171-5.644 2.916-8.758 3.657-1.614.384-3.36.873-4.162 2.444-.454.889-.346 2.022.416 2.667.881.748 1.886.331 2.855.208 3.168-.404 6.047 2.75 6.017 5.945-.03 3.193-2.37 6.035-5.239 7.439-2.869 1.404-6.179 1.596-9.369 1.434-1.574-.08-3.269-.215-4.512.95-.734.689-.953 1.843-.338 2.639.876 1.132 2.511.624 3.878.548 3.798-.21 6.815 4.018 6.217 7.774-.599 3.756-3.91 6.639-7.54 7.776-4.089 1.282-8.536.738-12.737.148-.988-.139-2.003.395-2.309 1.345-.424 1.317.78 2.071 1.718 2.752 3.628 2.631 5.046 7.911 3.225 12.006-1.82 4.096-6.69 6.578-11.075 5.648-2.785-.592-5.324-2.385-8.343-1.477-1.495.449-2.57 1.88-2.285 3.415.361 1.936 2.532 2.489 4.157 3.396 4.506 2.514 5.263 9.313 2.302 13.541-2.96 4.226-12.47 4.359-17.62 4.033-5.15-.327-15.899-.777-21.4-4.28-2.592-1.65-.608-18.117.187-21.636" transform="translate(3 25) translate(0 .964)"/>
            <path fill="#306B34" d="M529.901 280.83c.812 1.634.195 5.838-.85 7.002-1.479 1.645-4.997 7.301-4.997 7.301-.33.646.404 1.323 1.014.93 1.388-.893 2.876-1.593 4.588-1.749.783-.07 1.584.007 2.328.264 4.43 1.525 3.742 6.978.912 9.591-2.352 2.171-5.644 2.916-8.758 3.657-1.614.384-3.36.873-4.162 2.443-.454.89-.346 2.023.416 2.668.881.747 1.885.331 2.855.207 3.168-.403 6.047 2.751 6.017 5.946-.03 3.193-2.37 6.035-5.239 7.44-2.87 1.403-6.18 1.595-9.37 1.433-1.573-.08-3.268-.215-4.51.95-.735.688-.954 1.843-.339 2.64.876 1.131 2.511.623 3.878.547 3.798-.21 6.815 4.018 6.217 7.774-.599 3.756-3.91 6.64-7.54 7.776-4.089 1.282-8.537.738-12.737.148-.989-.139-2.003.395-2.309 1.345-.424 1.317.778 2.071 1.717 2.752 3.63 2.631 5.047 7.911 3.226 12.006-1.82 4.096-6.69 6.578-11.075 5.648-2.785-.592-5.324-2.385-8.343-1.477-1.495.45-2.57 1.88-2.285 3.415.361 1.936 2.532 2.49 4.157 3.396 4.506 2.514 9.13 12.144 6.17 16.371-2.962 4.226-16.338 1.53-21.488 1.203-4.806-.306-14.486-.718-20.229-3.617-.412-.208-1.172-.663-1.172-.663s28.442-24.715 53.041-57.479c13.664-18.199 25.813-52.684 25.813-52.684s.481.105 1.036.5c.957.674 1.86 1.995 2.018 2.316" transform="translate(3 25) translate(0 .964)"/>
        </g>
        <g transform="translate(3 25) translate(463 345.964)">
            <mask id="prefix__d" fill="#fff">
                <use xlink:href="#prefix__c"/>
            </mask>
            <path fill="#FFBF4D" d="M66.484.499c-2.508 1.092-3.866 3.795-4.816 6.36-1.711 4.617-2.766 9.478-3.121 14.389-.088 1.209-.141 2.456-.65 3.556-.507 1.101-1.604 2.032-2.813 1.934-1.034-.085-1.896-.909-2.302-1.864-.406-.955-.433-2.025-.394-3.062.278-7.51 3.818-14.841 9.527-19.728C59.479.624 56.441.206 53.701.953c-2.74.746-5.145 2.647-6.504 5.142-2.024 3.712-1.654 8.214-1.228 12.422l.993 9.822c.125 1.235.182 2.661-.72 3.511-.823.775-2.19.718-3.15.122-.962-.596-1.584-1.611-2.049-2.641-1.823-4.033-1.725-8.722-.61-13.004 1.114-4.282 3.179-8.247 5.226-12.169-11.095 4.248-18.495 8.332-26.668 16.955l-3.022 3.102c.21 6.395 3.914 12.569 9.459 15.763 1.1.633 2.447 1.469 2.319 2.731-.092.904-1.002 1.553-1.907 1.633-.903.081-1.786-.28-2.593-.696-6.308-3.262-10.159-10.721-9.165-17.754C5.952 33.244 1.027 44.023.793 54.979c-.069 3.196.257 6.454 1.497 9.401 1.242 2.947 3.482 5.565 6.443 6.771 2.961 1.206 6.649.788 8.957-1.422 1.338-1.283 2.137-3.033 3.414-4.376 1.277-1.342 3.86-2.662 4.967-1.178.553.741-1.205 2.447-2.041 3.191-.313.278-.612.578-.873.906-2.648 3.328-3.02 6.669-2.083 10.984.989 4.551 5.176 11.301 8.288 14.766 3.176 3.535 9.626 5.56 13.185 5.808 14.974 1.044 21.227-7.747 21.227-7.747s-8.743-.666-13.513-7.004c-4.311-5.729-4.025-12.661-7.344-19.017-.502-.962-1.017-1.965-1.063-3.049-.047-1.085.515-2.278 1.553-2.599 1.075-.332 2.243.395 2.818 1.363.575.968.71 2.124.895 3.236 1.09 6.562 4.396 12.736 9.254 17.28 3.293 3.08 7.505 5.482 12.014 5.485 3.452.002 6.788-1.405 9.622-3.377 2.835-1.971 5.236-4.491 7.616-6.993-11.16 2.148-23.328-2.149-30.665-10.827-1.372-1.621-2.646-3.58-2.173-5.756.311-1.425 1.515-2.571 2.968-2.462 1.462.109 2.213 1.392 2.919 2.52 4.899 7.822 13.739 13.03 22.955 13.523 2.585.138 5.319-.116 7.472-1.554 3.816-2.55 4.786-8.058 8.63-10.568-9.9 5.259-22.626 4.721-32.046-1.356-1.067-.69-2.126-1.478-2.755-2.582-.63-1.104-.729-2.599.07-3.587.977-1.208 2.888-1.206 4.278-.513 1.39.694 2.435 1.904 3.606 2.925 3.149 2.745 7.305 4.142 11.463 4.541 4.158.4 8.349-.133 12.46-.868 2.265-.404 4.763-1.033 5.995-2.975.693-1.092.858-2.428 1.005-3.713.647-5.62 1.293-11.241 1.938-16.862-.733 2.456-8.32 8.04-13.514 9.035-2.962.568-9.02.248-11.904-.634-.987-.301-1.993-.613-2.83-1.218-.836-.603-1.488-1.562-1.447-2.593.043-1.116.892-2.078 1.9-2.56 1.008-.482 2.155-.569 3.271-.605 1.829-.057 3.664.002 5.497.061 2.927.096 5.852.191 8.75-.194 4.712-.626 9.58-2.846 11.722-7.09-3.703-7.016-5.514-15.019-5.19-22.944.097-2.362.331-4.918-.949-6.907l-.873 2.148c-1.423 2.333-4.595 3.507-7.16 2.494-1.943-.766-3.497-2.572-5.581-2.72-1.47-.105-2.892.683-3.899 1.761-1.007 1.078-1.67 2.424-2.318 3.749l-5.498 11.246c-.858 1.754-2.307 3.817-4.212 3.39-1.44-.323-2.159-1.941-2.429-3.391-.647-3.485.083-7.206 1.998-10.189 1.915-2.981 4.996-5.193 8.434-6.054-1.596-1.265-3.216-2.547-5.091-3.341-1.081-.456-2.267-.736-3.435-.736-.861 0-1.711.152-2.504.497m-4.613 35.607c-.874-.575-1.09-1.819-.78-2.819.309-1 .521-1.469 1.039-2.378.466-.817 2.022-2.793 2.022-2.793.525-.553 1.321-.917 2.06-.722.592.156 1.057.649 1.293 1.215.236.566.269 1.198.223 1.809-.138 1.827-.973 3.592-2.298 4.856-.477.455-1.027.853-1.657 1.043-.244.074-.5.113-.755.113-.407 0-.809-.1-1.147-.324m-9.578 4.08c-.619-.063-1.141-.532-1.418-1.088-.277-.557-.349-1.192-.373-1.813-.078-1.939.246-3.892.943-5.702.307-.796.79-1.651 1.619-1.845.584-.136 1.209.111 1.64.527.43.415.69.978.862 1.55.549 1.819.156 3.795-.714 5.481-.233.451-.79 1.867-.79 1.867-.349.572-.963 1.03-1.625 1.03-.048 0-.096-.002-.144-.007m20.676-5.166c-.536-.303-.771-1-.641-1.601.131-.602.573-1.101 1.097-1.424.525-.322 1.131-.487 1.734-.613.373-.078.758-.144 1.134-.079.377.065.747.284.896.636.161.375.037.825-.217 1.145l-.255.369c-.529.656-1.224 1.177-2 1.505-.326.136-.689.236-1.039.236-.248 0-.491-.05-.709-.174M33.231 46.553c-2.629-2.319-3.807-6.161-2.93-9.554.352-1.361 1.298-2.833 2.704-2.82.754.01 1.445.471 1.912 1.063.467.592.748 1.306 1.021 2.008l1.534 2.901c.703 1.275 1.421 2.604 1.516 4.057.093 1.453-.628 3.068-2.01 3.526-.27.089-.545.13-.821.13-1.052 0-2.111-.592-2.926-1.311m8.602-4.415c-.671-.49-1.048-1.31-1.158-2.135-.11-.824.018-1.662.192-2.475.107-.505.237-1.018.523-1.448.286-.429.759-.766 1.276-.76.552.008 1.039.409 1.296.897l.318.517c.52 1.013.784 2.158.763 3.297-.016.816-.224 1.706-.88 2.193-.304.226-.676.33-1.054.33-.451 0-.91-.148-1.276-.416m21.442 6.946c-1.395-.529-2.976-1.26-3.322-2.711-.202-.85.11-1.774.698-2.419.59-.646 1.424-1.031 2.282-1.197 1.597-.311 3.193.305 4.579 1.154 2.014 1.235 2.693 3.285 2.693 3.285.032 1.424-1.373 2.548-2.786 2.728-.196.025-.393.037-.588.037-1.213 0-2.409-.441-3.556-.877m-13.11 7.09c-1.187-.423-2.257-1.319-2.638-2.519-.42-1.321.114-2.886 1.253-3.672 1.141-.788 2.696-.594 3.879.127.768.468 3.278 1.481 3.278 1.481.992.649 1.681 1.923 1.274 3.037-.459 1.253-1.983 1.707-3.31 1.844-.44.045-.885.074-1.33.074-.82 0-1.636-.098-2.406-.372m-29.24.632c-1.103-.288-2.185-.745-3.047-1.492-.861-.747-1.488-1.811-1.539-2.951-.097-2.138 9.421-3.297 11.598-1.9.633.405 1.168.962 1.54 1.616l.053.092c.94 1.683.067 3.843-1.771 4.431-1.222.392-2.506.591-3.788.592-1.027 0-2.053-.128-3.046-.388m13.579 20.736c-.997-.737-1.671-1.836-2.153-2.978-1.397-3.307-1.319-7.206.209-10.455.302-.643.682-1.287 1.285-1.661.603-.376 1.427-.338 1.957.135 1.296 1.154 2.957 7.143 2.957 7.143.673 1.433 1.359 2.917 1.412 4.5.053 1.581-.693 3.303-2.159 3.903-.369.151-.76.22-1.155.22-.832 0-1.677-.307-2.353-.807" mask="url(#prefix__d)"/>
        </g>
        <g transform="translate(3 25) translate(467 404.964)">
            <mask id="prefix__g" fill="#fff">
                <use xlink:href="#prefix__e"/>
            </mask>
            <path fill="url(#prefix__f)" d="M26.493 1.042C20.196 5.136 14.498 10 9.464 15.514 6.171 18.711 3.079 22.121.228 25.752c-.423.538.389 1.229.813.687.25-.317.514-.621.766-.935.165.036.343.001.485-.167.553-.657 1.127-1.292 1.694-1.935.163.038.34 0 .475-.181.574-.777 1.174-1.531 1.772-2.287 6.314-6.73 13.417-12.642 21.225-17.617.578-.368-.031-1.242-.609-.873-.232.148-.458.302-.689.451-.07-.077-.155-.142-.257-.17.4-.27.795-.546 1.2-.809.476-.31.138-.965-.319-.965-.094 0-.193.027-.291.091" mask="url(#prefix__g)"/>
        </g>
        <path fill="#306B34" d="M533.731 333.045l-.058-.046c-2.126-1.664-5.192-1.31-6.835.787-.794 1.015-1.142 2.282-.978 3.57.164 1.29.805 2.437 1.854 3.251 2.126 1.664 5.193 1.311 6.836-.787.794-1.014 1.142-2.282.978-3.568-.161-1.267-.799-2.402-1.797-3.207m-7.301 9.041c-1.395-1.124-2.285-2.712-2.511-4.484-.23-1.809.259-3.592 1.379-5.022 2.308-2.947 6.606-3.45 9.581-1.122 1.444 1.12 2.36 2.741 2.59 4.547.23 1.81-.259 3.593-1.379 5.021-2.307 2.947-6.606 3.451-9.582 1.123-.026-.02-.052-.04-.078-.063" transform="translate(3 25)"/>
        <g transform="translate(3 25) translate(505 273.964)">
            <mask id="prefix__j" fill="#fff">
                <use xlink:href="#prefix__h"/>
            </mask>
            <path fill="url(#prefix__i)" d="M.543 5.54C.517 7.022 1.08 8.425 2.13 9.49c1.045 1.06 2.448 1.659 3.951 1.686h.104c3.062 0 5.581-2.416 5.637-5.434.027-1.482-.536-2.884-1.585-3.95C9.192.732 7.788.133 6.285.107L6.182.106C3.119.106.6 2.523.543 5.54m5.569 3.89c-1.043-.019-2.016-.433-2.739-1.165-.717-.728-1.102-1.684-1.083-2.693.038-2.065 1.777-3.72 3.892-3.72l.072.001c1.044.018 2.017.432 2.739 1.165.717.727 1.102 1.683 1.083 2.692-.037 2.065-1.796 3.72-3.889 3.72h-.075" mask="url(#prefix__j)"/>
        </g>
        <g transform="translate(3 25) translate(487 285.964)">
            <mask id="prefix__l" fill="#fff">
                <use xlink:href="#prefix__k"/>
            </mask>
            <path fill="#FFBF4D" d="M.202 7.179c-.071 3.961 3.059 7.23 6.99 7.302 3.932.073 7.176-3.08 7.247-7.041.073-3.961-3.057-7.229-6.988-7.301L7.319.137C3.447.137.273 3.263.202 7.179" mask="url(#prefix__l)"/>
        </g>
        <g transform="translate(3 25) translate(536 323.964)">
            <mask id="prefix__o" fill="#fff">
                <use xlink:href="#prefix__m"/>
            </mask>
            <path fill="url(#prefix__n)" d="M.822 4.719c-.04 2.21 1.706 4.033 3.898 4.073 2.192.04 4.002-1.719 4.042-3.927C8.802 2.657 7.057.833 4.864.793L4.791.792C2.632.792.862 2.535.822 4.719" mask="url(#prefix__o)"/>
        </g>
        <g>
            <path fill="#F7E8C8" d="M578.854 328.64c0 3.992-128.821 7.228-287.731 7.228-158.909 0-287.73-3.236-287.73-7.227s128.821-7.228 287.73-7.228c158.91 0 287.731 3.237 287.731 7.228" transform="translate(3 25) translate(12 116.964)"/>
            <path fill="#FFA085" d="M459.356 216.963l.514-.085s-.498-.451-.514.085" transform="translate(3 25) translate(12 116.964)"/>
            <path fill="#FFA085" d="M459.356 216.963c-3.29.537-21.433 3.365-23.52.75 0 0 1.52 7.398 5.34 17.674 3.82 10.275 24.122 72.718 25.72 85.093 0 0 3.717 6.35 6.113-1.713 2.48-8.343.346-73.82-7.873-89.194-4.838-9.05-5.803-11.842-5.78-12.61" transform="translate(3 25) translate(12 116.964)"/>
            <path fill="#A29C8F" d="M466.896 320.48s-3.456 7.474-10.458 10.304c-7.003 2.832 5.905 5.358 12.314.565 6.409-4.796 7.003-2.832 9.621-3.623 2.618-.79-5.363-8.96-5.363-8.96s-1.599 2.5-6.114 1.713" transform="translate(3 25) translate(12 116.964)"/>
            <path fill="#FFA085" d="M424.124 221.67c.331.05.516.076.516.076s-.336-.582-.516-.076M424.124 221.67c-3.296-.497-21.433-3.362-22.62-6.491 0 0-.817 7.509-.329 18.46.489 10.95.687 76.61-1.583 88.88 0 0 1.594 7.186 6.345.243 4.915-7.183 22.941-70.164 19.827-87.318-1.833-10.097-1.897-13.05-1.64-13.774" transform="translate(3 25) translate(12 116.964)"/>
            <path fill="#A29C8F" d="M399.592 322.52s-5.58 6.057-13.112 6.606c-7.533.549 3.98 6.91 11.55 4.309 7.569-2.601 7.533-.55 10.268-.502 2.734.05-2.361-10.171-2.361-10.171s-2.288 1.889-6.345-.243M408.887 117.978s-13.17 15.09-12.828 45.52c.342 30.429-.005 50.26-.005 50.26s28.416 18.788 72.755 0c0 0 4.274-77.504-12.739-98.244-17.013-20.74-47.183 2.465-47.183 2.465" transform="translate(3 25) translate(12 116.964)"/>
            <path fill="#FFF" d="M431.746 133.068c.439.22.944.41 1.508.567l-.997-2.31-.511 1.743z" transform="translate(3 25) translate(12 116.964)"/>
            <path fill="#C66F83" d="M431.296 133.837c.555.269 1.128.486 1.72.657.82.236 1.294-.637 1.006-1.307l-.997-2.312c-.319-.741-1.43-.457-1.626.213l-.512 1.743c-.323 1.102 1.394 1.572 1.717.474l.511-1.744c-.543.07-1.085.142-1.627.213l.996 2.31c.335-.434.67-.871 1.005-1.307-.444-.127-.878-.276-1.295-.477-.432-.21-.96-.118-1.217.319-.229.39-.116 1.007.32 1.218" transform="translate(3 25) translate(12 116.964)"/>
            <path fill="#57575E" d="M437.908 16.953c-4.125-1.933-8.609-3.625-13.129-3.059-10.588 1.33-15.664 13.443-23.854 20.284-7.442 6.215-17.499 7.956-26.64 11.194-.678.24-1.353.49-2.024.75-8.203 3.16-15.877 7.685-22.608 13.34-6.853 5.755-13.12 15.074-9.15 23.094 2.59 5.23 8.891 7.726 14.472 7.61 5.67-.119 9.52-5.248 15.227-3.068 3.26 1.244 6.041 3.631 9.42 4.5 5.855 1.503 11.973-2.002 15.843-6.649 3.87-4.646 6.174-10.37 9.401-15.484 4.396-6.968 12.12-12.679 20.24-14.074 5.587-.96 10.354-.016 15.851-1.406 10.614-2.68 16.44-16.747 10.83-26.148-3.06-5.126-8.474-8.35-13.879-10.884" transform="translate(3 25) translate(12 116.964)"/>
            <path fill="#FFAF12" d="M423.88 55.798c-31.132-1.026-37.358 42.054-46.534 52.312-9.176 10.256-45.224 29.06-45.224 29.06-.44 2.62 3.277 4.104 3.277 4.104s41.292-13.676 47.845-17.553c6.555-3.871 23.38-27.243 23.38-27.243 1.743 5.114 5.675 4.45 5.675 4.45 4.156 8.89-3.412 17.05-3.412 17.05 2.373 3.714 10.85 4.197 19.569 4.457 12.145.362 24.617-2.277 21.156-6.92-5.951-7.974-5.197-20.62-2.792-20.968 1.2-.178 8.403 4.283 10.854 7.456 2.465 3.18 4.549 7.009 4.22 9.409-.012.089-.032.185-.071.28-1.645 5.026-29.206 18.416-29.206 18.416l-.36 1.216.997 2.312c7.432 2.106 25.043-.98 35.287-6.25 4.64-2.38 7.774-5.218 7.774-8.22 0-10.14-4.588-30.546-10.16-42.513-5.57-11.965-11.142-19.83-42.274-20.855" transform="translate(3 25) translate(12 116.964)"/>
            <path fill="#FFAF12" d="M423.88 54.907c-19.053-.43-29.621 15.703-36.665 31.223-2.954 6.507-5.218 13.715-9.23 19.68-1.887 2.804-4.648 4.977-7.31 7.005-3.767 2.871-7.74 5.476-11.748 7.994-7.595 4.773-15.401 9.215-23.293 13.48-1.05.567-3.391 1.261-4.142 2.252-1.58 2.09 2.076 5.667 4.143 5.591 1.344-.049 3.087-1.03 4.347-1.454 3.54-1.19 7.076-2.392 10.607-3.608 8.428-2.902 16.862-5.823 25.16-9.083 2.738-1.076 5.725-2.073 8.22-3.668 3.483-2.227 6.292-5.736 8.95-8.837 5.102-5.949 9.892-12.198 14.473-18.555-.542-.072-1.085-.142-1.627-.213 1.119 2.87 3.385 5.55 6.77 5.073l-1.004-.409c2.3 5.406.612 11.703-3.273 15.97-.244.268-.377.755-.14 1.08 2.9 3.957 8.965 4.243 13.427 4.576 7.018.522 14.249.685 21.18-.72 2.546-.517 8.315-1.647 8.364-5.216.024-1.75-1.702-3.356-2.45-4.81-1.486-2.888-2.332-6.15-2.614-9.378-.175-2.006-.284-4.287.35-6.229.747-2.284 2.93-.154 4.343.74 2.136 1.353 4.298 2.88 5.964 4.8 1.65 1.904 5.34 6.756 4.196 9.454-1.09 2.571-5.112 4.565-7.312 5.972-3.707 2.372-7.558 4.521-11.435 6.603-2.881 1.546-5.787 3.05-8.716 4.504-1.423.706-2.242 1.391-1.871 3.177.796 3.84 5.232 3.33 8.376 3.29 5.559-.075 11.156-1.05 16.526-2.442 5.536-1.435 11.429-3.364 16.115-6.74 1.773-1.278 3.585-2.886 4.31-5.016.693-2.032.274-4.512.077-6.599-1.105-11.673-4.051-23.575-8.415-34.45-2.677-6.675-6.011-13.455-12.066-17.676-9.17-6.39-21.838-6.975-32.586-7.36-1.146-.042-1.145 1.738 0 1.78 9.942.356 21.244.884 30.06 6.077 5.446 3.206 8.63 8.332 11.249 13.917 4.784 10.201 7.633 21.59 9.343 32.692.376 2.444.678 4.906.817 7.377.208 3.696-.994 5.846-4.093 7.998-4.738 3.291-10.581 5.12-16.13 6.498-5.398 1.341-11.028 2.284-16.607 2.158-1.18-.026-2.318-.177-3.487-.287-1.26-.119-.844.008-1.403-.842-.132-.2-.366-.742-.407-.943-.218-1.07.2.506.01-.172-.09-.319.635-1.07-.153-.292.047-.046.147-.058.197-.096 1.68-1.303 4.177-2.089 6.06-3.067 3.52-1.828 7.012-3.713 10.44-5.707 3.168-1.842 6.338-3.749 9.23-6.005 1.69-1.316 3.777-2.875 3.812-5.21.063-4.396-3.89-9.276-7.08-11.939-1.652-1.379-3.435-2.627-5.296-3.706-.951-.55-2.548-1.68-3.741-1.466-2.8.504-2.608 5.841-2.542 7.807.087 2.592.525 5.208 1.309 7.68.352 1.11.773 2.203 1.27 3.257.6 1.274 1.949 2.645 2.37 3.951 1.517 4.708-15.074 5.172-17.442 5.203-3.865.051-7.785-.1-11.632-.473-3.257-.315-8.244-.656-10.38-3.569l-.138 1.078c4.48-4.922 6.185-11.938 3.55-18.128-.165-.39-.646-.459-1.004-.409-2.025.285-3.83-1.9-4.581-3.829-.288-.739-1.162-.859-1.627-.213-3.65 5.066-7.455 10.032-11.41 14.864-4.181 5.112-8.406 10.767-14.582 13.494-13.714 6.053-28.25 10.528-42.452 15.28-.583.194-1.28.552-1.893.631-.111.014-.233.116-.345.115.925.01-.072-.21-.272-.389-.591-.526-1.265-.809-1.684-1.555-.612-1.09-.67-.295.316-1.036.817-.614 1.93-1.029 2.827-1.512 7.228-3.903 14.379-7.96 21.372-12.27 6.813-4.2 14.303-8.56 19.824-14.458 4.008-4.282 6.06-10.34 8.336-15.635 7.174-16.69 16.753-37.35 37.989-36.87 1.146.027 1.146-1.754 0-1.78" transform="translate(3 25) translate(12 116.964)"/>
            <path fill="#FFAF12" d="M428.264 122.987c.493 1.032-1.044 1.935-1.537.901-4.866-10.3-7.75-22.43-6.272-33.859.76-5.857 3.525-10.432 6.521-15.393 2.926-4.83 5.667-10.949 2.807-16.295.683.362 1.472.66 2.35.784 3.412 8.86-5.596 17.475-8.55 25.391-2.262 6.053-1.936 13.014-1.069 19.316.914 6.658 2.884 13.091 5.75 19.155" transform="translate(3 25) translate(12 116.964)"/>
            <path fill="#7F786A" d="M452.975 91.027c-1.068-2.482-3.88-3.61-6.259-2.503L423.71 99.247c-2.379 1.107-3.454 4.048-2.392 6.53l7.137 16.657 3.802 8.89.36-1.217s27.561-13.39 29.206-18.415l-4.149-9.689-4.699-10.976zM468.541 127.386c-10.244 5.27-27.434 9.342-34.866 7.235l4.592 10.729c1.062 2.48 3.88 3.61 6.259 2.502l22.999-10.722c2.379-1.107 3.454-4.048 2.392-6.53l-1.376-3.214z" transform="translate(3 25) translate(12 116.964)"/>
            <path fill="#FFA085" d="M430.356 125.333c.156 1.518-1.377.908-2.495-2.813-1.117-3.722-1.35-6-2.339-1.294-.988 4.705-2.356 10.443 7.494 13.268 0 0 2.486-2.016-.087-5.59 0 0-2.729-5.09-2.573-3.571M326.652 141.274c-.684 3.418-4.787 4.786-7.52 4.786-2.737 0-4.788 0-4.105 1.368.684 1.368 10.941 2.736 15.728-1.368 4.787-4.102 5.685-3.869 5.685-3.869l-4.216-6.566s-4.888 2.23-5.572 5.649M438.53 46.088c2.054-3.418 3.418-10.937 1.37-13.673-2.052-2.735-2.052-2.735-4.788-6.153-2.735-3.424-.682 0-6.153 3.418-5.471 3.418-10.261-.683-9.572 2.735.683 3.418.683 9.572.683 9.572.824 4.67 3.637 6.8 6.835 7.459l-.128 5.573s.405 4.138 5.357 4.106c1.812-.012 4.083 0 6.207-3.17l-1.472-8.343c.77-.486 1.359-1.014 1.66-1.524" transform="translate(3 25) translate(12 116.964)"/>
            <path fill="#7F786A" d="M94.846 136.424s17.3 56.789 18.29 86.942c.988 30.154-18.29 95.899-18.29 95.899s-6.92 5.93-11.37 0c0 0 5.933-78.375 3.955-90.103-1.977-11.727-13.511-45.835-18.125-45.835-4.613 0-4.613 42.053-7.085 53.405-2.472 11.35-16.11 82.533-16.11 82.533s-7.414 6.426-11.37 0c0 0-2.626-61.4.339-79.14 2.966-17.74-7.462-69.535 8.85-103.701h50.916z" transform="translate(3 25) translate(12 116.964)"/>
            <path fill="#FFAF12" d="M112.743 103.168c-3.47-4.469-7.421-7.479-9.494-4.37-2.965 4.449-4.943 30.268-8.403 37.626-3.46 7.357-47.95 7.473-50.915 0-2.966-7.473-2.471-38.978-8.897-35.089-6.427 3.89-13.842 11.487-14.83 16.586-.99 5.099 21.75 27.526 21.75 30.4 0 2.875-1.483 7.818-5.438 7.818-3.954 0-34.107-24.212-36.085-35.426-1.978-11.214 21.75-61.857 30.648-68.579 8.897-6.722 31.812-10.677 39.387-10.677 7.573 0 27.84 4.053 38.715 10.677 10.875 6.624 33.779 56.503 30.318 64.295-3.46 7.792-33.778 42.181-37.238 43.171-3.46.988-8.42-2.294-5.03-8.384 9.21-16.546 19.723-32.197 20.712-39.46.323-2.383-1.472-3.787-5.2-8.588" transform="translate(3 25) translate(12 116.964)"/>
            <path fill="#FFA085" d="M69.487 4.733s11.098-.85 13.136 8.437c2.038 9.285-.226 18.246-3.171 21.805-2.944 3.561-12.456 2.881-16.533-3.46-4.077-6.342-7.927-22.083 6.568-26.782" transform="translate(3 25) translate(12 116.964)"/>
            <path fill="#FFA085" d="M75.74 34.386V43.574s-3.887 4.442-10.55 0V30.249l10.55 4.137z" transform="translate(3 25) translate(12 116.964)"/>
            <path fill="#57575E" d="M83.404 25.392s-2.894-3.954-2.4-7.662c.495-3.707.495-7.167-2.47-7.167-2.967 0-5.015 2.966-8.069 1.482-3.054-1.482-2.968.494-4.207 0-1.24-.494-2.014 6.422-3.543 7.415-1.53.994-1.978 7.545-1.978 7.545s2.11 4.529 4.454 7.08c0 0-6.06-.166-8.037-6.84-1.978-6.672 1.853-9.885.865-13.84-.429-1.715-.56-3.66-.209-5.402.6-2.965 2.505-2.271 4.952-2.814 1.45-.32 2.866-.807 3.907-1.917 1.84-1.962 3.275-3.38 6.055-2.35 3.337 1.238 4.944.742 6.55 1.485 1.607.74 2.225-.495 3.09 2.965.865 3.46 2.348 3.955 3.09 5.314.741 1.359 2.14 3.502 1.398 5.23-.74 1.732-2.224 2.72-1.483 4.45.742 1.73-1.965 5.026-1.965 5.026" transform="translate(3 25) translate(12 116.964)"/>
            <path fill="#FFA085" d="M41.858 147.92s5.368.146 8.004 3.11c2.637 2.967 3.79 5.604 2.142 4.945-1.647-.66 1.648 2.635-.494 2.47-2.142-.164-.824 1.266-.824 1.266s-5.273-2.254-6.59-3.572c-1.319-1.318-4.008 1.625-7.58 0 0 0 4.26-4.244 5.342-8.22M97.232 151.216s-5.368.145-8.004 3.11c-2.637 2.967-3.79 5.603-2.142 4.944 1.647-.66-1.648 2.636.494 2.47 2.142-.163.824 1.266.824 1.266s5.273-2.253 6.59-3.571c1.319-1.32 4.008 1.625 7.58 0 0 0-4.26-4.245-5.342-8.22" transform="translate(3 25) translate(12 116.964)"/>
            <path fill="#A29C8F" d="M94.846 319.265s2.636 3.295 8.403 4.942c5.767 1.649 6.92-.494 5.767 1.649-1.153 2.14-11.534 3.295-16.148 1.647-4.613-1.647-4.283.739-4.942.782-.66.043-6.756 0-6.756 0s.164-5.89 2.306-9.02c0 0 4.614 2.636 11.37 0M46.111 319.265s2.636 3.295 8.403 4.942c5.767 1.649 6.921-.494 5.767 1.649-1.153 2.14-11.534 3.295-16.148 1.647-4.613-1.647-4.283.739-4.942.782-.66.043-6.756 0-6.756 0s.164-5.89 2.306-9.02c0 0 4.614 2.636 11.37 0" transform="translate(3 25) translate(12 116.964)"/>
            <path fill="#FFF" d="M70.458 45.388l4.353 6.535s5.727-3.49 6.581-9.181l-5.652-3.195s-.522 5.12-5.282 5.84" transform="translate(3 25) translate(12 116.964)"/>
            <path fill="#FFF" d="M70.63 45.388l-4.352 6.535s-5.638-3.655-6.492-9.347l5.405-3.205s.68 5.297 5.44 6.017" transform="translate(3 25) translate(12 116.964)"/>
            <path fill="#57575E" d="M74.811 51.923l-.767.774c-1.962 1.984-5.176 1.95-7.098-.071l-.668-.703 4.353-6.535 4.18 6.535z" transform="translate(3 25) translate(12 116.964)"/>
            <path fill="#57575E" d="M70.501 51.953c3.75-2.496 3.749 42.668 2.488 49.841-.484 2.755-.967 4.97-1.38 6.596-.292 1.152-1.923 1.152-2.215 0-.413-1.627-.897-3.84-1.381-6.596-1.26-7.173-1.261-52.337 2.488-49.84" transform="translate(3 25) translate(12 116.964)"/>
            <path fill="#7F786A" d="M151.222 259.665v57.724c0 3.07 3.994 3.075 3.994 0v-57.724c0-3.07-3.994-3.075-3.994 0" transform="translate(3 25) translate(12 116.964)"/>
            <path fill="#7F786A" d="M146.413 261.762L160.024 261.762 160.024 238.87 146.413 237.142z" transform="translate(3 25) translate(12 116.964)"/>
            <path fill="#A29C8F" d="M180.061 221.666c-20.914 7.068-44.02 10.182-58.868-9.532-11.175-14.839-14.257-34.844-16.999-52.725-.88-5.741 3.013-31.264-2.696-37.058-2.102-2.131-4.92-2.859-8.747-1.146-19.6 8.772-14.184 56.081-9.77 71.112 6.701 22.828 23.078 39.061 45.98 46.114 53.316 16.419 90.357-15.976 87.03-23.964-2.462-5.906-31.953 5.855-35.93 7.199" transform="translate(3 25) translate(12 116.964)"/>
            <path fill="#7F786A" d="M178.877 315.768H124.13c-2.57 0-2.574 3.994 0 3.994h54.747c2.57 0 2.574-3.994 0-3.994" transform="translate(3 25) translate(12 116.964)"/>
            <path fill="#7F786A" d="M125.354 314.938c-4.367 0-7.906 3.538-7.906 7.906 0 4.365 3.539 7.906 7.906 7.906 4.366 0 7.906-3.54 7.906-7.906 0-4.368-3.54-7.906-7.906-7.906M182.277 314.938c-4.366 0-7.906 3.538-7.906 7.906 0 4.365 3.54 7.906 7.906 7.906s7.906-3.54 7.906-7.906c0-4.368-3.54-7.906-7.906-7.906M229.184 308.312c-3.11-.495-4.894-1.192-4.894-1.192-1.85.495-8.987 6.704-9.322 8-.334 1.294 3.844 2.841 3.844 2.841s1.44-3.163 2.54.36c1.102 3.521 17.531 12.18 20.441 13.387 2.911 1.207-6.906-7.236-10.394-12.343-3.488-5.108-2.215-11.053-2.215-11.053" transform="translate(3 25) translate(12 116.964)"/>
            <path fill="#A29C8F" d="M240.344 218.473c-7.392-15.101-63.375-33.13-63.375-33.13s-67.638-17.724-56.349 5.482c11.29 23.206 79.147 41.952 84.763 42.748 5.615.796 7.792 4.646 7.792 4.646-4.995 23.812 14.828 69.692 14.828 69.692 5.73-.066 7.224 0 7.224 0-3.412-16.841 12.51-74.338 5.117-89.438" transform="translate(3 25) translate(12 116.964)"/>
            <path fill="#A29C8F" d="M135.115 179.23c-6.623 0-12.04.989-14.297 3.739-1.506 1.835-1.462 4.424.13 7.697 11.298 23.221 80 41.91 84.486 42.546 5.727.812 7.966 4.665 8.057 4.829l.07.119-.029.133c-4.736 22.58 13.23 65.75 14.711 69.25 3.906-.043 5.771-.024 6.541-.009-1.336-7.606.847-22.536 3.157-38.327 3.034-20.748 6.173-42.203 2.075-50.575-7.239-14.787-62.6-32.762-63.159-32.942-.329-.085-24.923-6.46-41.742-6.46zm100.563 129.068l-.467-.022c-.016-.002-1.565-.067-7.203 0l-.244.003-.096-.224c-.198-.457-19.733-46.075-14.88-69.767-.408-.623-2.63-3.67-7.457-4.355-4.51-.638-73.62-19.478-85.039-42.948-1.727-3.552-1.74-6.405-.038-8.48 8.281-10.09 54.83 1.966 56.808 2.487 2.311.742 56.234 18.256 63.61 33.32 4.196 8.573 1.042 30.142-2.009 51-2.347 16.043-4.564 31.197-3.079 38.527l.094.459z" transform="translate(3 25) translate(12 116.964)"/>
            <path fill="#E7E1D3" d="M173.246 104.247c-7.497-3.338-15.338-5.983-23.425-7.424-.908-.162-1.819-.308-2.733-.439-8.202-1.17-16.65-1.033-24.742.818-9.263 2.118-11.466 4.438-11.183 13.944.22 7.39.937 14.773 1.676 22.124 1.527 15.184 3.458 30.331 5.533 45.448.312 2.267.625 4.534.951 6.8 0 0 21.038 11.94 41.506 0 0 0 24.45-45.487 26.156-51.742 1.71-6.27 10.113-8.582 5.737-16.369-3.955-7.039-12.526-10.064-19.476-13.16" transform="translate(3 25) translate(12 116.964)"/>
            <path fill="#FFA085" d="M172.831 72.535c-.929-3.146-25.4 2.442-28.23 6.287-2.832 3.845 4.522 13.23 5.944 14.11 1.422.877 16.931 2.451 20.57-.744 3.637-3.194 3.381-13.786 3.381-13.786s-.736-2.722-1.665-5.867" transform="translate(3 25) translate(12 116.964)"/>
            <path fill="#57575E" d="M175.733 66.617c-1.458.157-4.53-.986-.929-3.145 3.602-2.158-2.244-7.132-14.787-4.454-12.543 2.68-12.915 7.44-14.058 10.513-1.144 3.073-2.602 3.23-2.71 6.34-.107 3.107-2.216 4.072.943 8.747 3.16 4.674 6.003 6.433 5.846 4.975-.157-1.458-5.846-4.975-3.473-7.59 2.373-2.616 3.81 3.866 4.724 1.408l2.06-5.532c5.494 3.095 15.493-4.03 15.493-4.03.665 4.796 4.738 7.012 4.738 7.012l-.493 2.266.122 2.494 1.265-.579s1.515-7.833 1.78-9.485c.264-1.65 1.072-1 1.951-2.42.88-1.424-2.88-.724-2.423-1.953.458-1.229 3.796-1.736 4.253-2.965.457-1.23-2.844-1.759-4.302-1.602" transform="translate(3 25) translate(12 116.964)"/>
            <path fill="#57575E" d="M174.03 91.874c.336-3.723.444-6.832.444-6.832l-1.265.579-.036 1.036s-.265 1.651-1.337 2.652c-1.072 1-7.604-2.131-13.122 1.414-5.517 3.544-7.425-7.312-7.425-7.312l-1.402-.223s2.61 7.32.151 6.405-4.05-2.572-4.05-2.572.92 9.104 6.73 15.115c5.81 6.011 21.161 6.127 23.534 3.51 2.373-2.615-2.558-10.048-2.222-13.772" transform="translate(3 25) translate(12 116.964)"/>
            <path fill="#7F786A" d="M160.214 185.343l-40.891.175c-14.862 30.307 34.027 59.09 46.62 63.155 12.592 4.066 18.016 14.302 18.016 14.302 20.943 42.759 62.296 56.383 62.296 56.383 4.324.75 4.436-2.425 4.436-2.425-15.92-19.165-41.62-68.26-58.461-97.298-16.842-29.04-32.016-34.292-32.016-34.292" transform="translate(3 25) translate(12 116.964)"/>
            <path fill="#7F786A" d="M119.552 185.88c-3.465 7.206-3.523 14.862-.173 22.759 8.503 20.039 36.835 36.51 46.675 39.687 12.59 4.064 18.172 14.373 18.227 14.477 20.637 42.133 61.675 56.07 62.087 56.207 1.357.234 2.421.069 3.12-.491.613-.494.78-1.188.823-1.472-11.904-14.385-29.057-45.05-44.195-72.112-5.11-9.135-9.936-17.762-14.202-25.116-16.056-27.687-30.749-33.721-31.765-34.111l-40.597.173zm127.941 133.957c-.403 0-.838-.04-1.3-.121-.468-.148-41.792-14.175-62.562-56.581-.049-.091-5.504-10.145-17.8-14.115-9.932-3.206-38.53-19.841-47.124-40.096-3.469-8.175-3.372-16.105.288-23.567l.1-.204 41.18-.174.06.019c.152.054 15.494 5.63 32.21 34.453 4.27 7.36 9.096 15.992 14.208 25.127 15.165 27.11 32.352 57.839 44.218 72.122l.09.107-.006.139c-.002.052-.057 1.287-1.1 2.132-.622.505-1.447.759-2.462.759z" transform="translate(3 25) translate(12 116.964)"/>
            <path fill="#7F786A" d="M259.528 323.701c-5.927-1.457-8.837-6.769-8.837-6.769-2.649 1.74-4.436 2.425-4.436 2.425-1.063 1.625-2.369 11.108-1.777 12.304.591 1.194 4.723-.48 4.723-.48s-.98-3.34 2.132-1.453c3.112 1.89 21.028-2.768 23.99-3.838 2.962-1.07-9.867-.732-15.795-2.189" transform="translate(3 25) translate(12 116.964)"/>
            <path fill="#F5EFE4" d="M172.202 169.028c-54.016 2.843-58.564-8.528-58.564-8.528 4.548-6.255 9.665-19.332 13.646-28.998 3.98-9.666-2.955-38.856-12.621-31.464-9.666 7.391-32.866 72.402-23.77 80.362 9.098 7.96 81.309-3.98 81.309-3.98-4.55-5.118 0-7.392 0-7.392" transform="translate(3 25) translate(12 116.964)"/>
            <path fill="#FFA085" d="M183.534 171.999c-3.438-3.032-11.468-2.849-11.468-2.849-6.122 1.537 0 7.494 0 7.494s4.424-1.454 7.438-1.994c3.014-.539 7.876 6.85 9.662 6.637 1.785-.212-1.212-2.571-1.212-2.571l3.112 1.803c1.556.901-4.093-5.489-7.532-8.52M254.57 101.596l-3.013 1.96s2.87-2.511 1.077-2.63c-1.795-.12-6.268 7.512-9.305 7.129-3.038-.383-7.531-1.605-7.531-1.605s-5.805 6.267.388 7.484c0 0 8.028-.234 11.305-3.44 3.277-3.205 8.587-9.88 7.08-8.898" transform="translate(3 25) translate(12 116.964)"/>
            <path fill="#E7E1D3" d="M187.2 112.401s-20.916 9.275-10.437 41.741c10.479 32.467 24.988 28.994 24.988 28.994s1.867-4.294-1.747-36.344c-3.614-32.053-12.803-34.39-12.803-34.39" transform="translate(3 25) translate(12 116.964)"/>
            <path fill="#E7E1D3" d="M233.26 110.665c.005.013-.059.08-.063.083-9.376 10.6-19.349 20.686-28.829 31.196-5.528 6.131-11.123 12.27-16.17 18.81-5.692 7.375-1.793 16.864 5.811 20.761 6.104 3.13 12.281.71 16.657-4.148 14.468-16.056 27.484-63.7 27.484-63.7-2.837-.182-4.89-3.002-4.89-3.002" transform="translate(3 25) translate(12 116.964)"/>
            <path fill="#002834" d="M182.025 184.211h1.2v-1.459l-1.2 1.459" transform="translate(3 25) translate(12 116.964)"/>
            <path fill="#7F786A" d="M437.206 181.292h-255.18c-.65 0-1.2.669-1.2 1.46V330.549c0 1.879 2.4 1.882 2.4 0V184.211h-1.2l1.2-1.459v1.459H436.005v-1.459l1.2 1.459h-1.2V330.549c0 1.879 2.402 1.882 2.402 0V182.752c0-.789-.55-1.46-1.201-1.46" transform="translate(3 25) translate(12 116.964)"/>
            <path fill="#002834" d="M436.005 182.752v1.459h1.2l-1.2-1.459" transform="translate(3 25) translate(12 116.964)"/>
            <path fill="#57575E" d="M315.697 123.799l-25.76 52.496c-.325.666-.89 1.478-1.182 2.249.086.032.16.06.224.08.313-.044.606.206 0 0-.153.024-.31.115-.365.368.033-.146.083-.297.14-.448l-.04-.016c-2.478-.968-6.545 0-9.127 0h-54.619c-1.545 0-1.547 2.919 0 2.919h52.77c3.427 0 6.856.048 10.282 0 1.48-.02 2.016-.026 2.922-1.5 1.97-3.205 3.47-7.075 5.156-10.508l8.27-16.857 13.402-27.31c.793-1.618-1.281-3.086-2.073-1.473" transform="translate(3 25) translate(12 116.964)"/>
            <path fill="#002834" d="M288.979 178.625c-.064-.021-.139-.049-.225-.081-.057.151-.108.302-.14.448.056-.253.212-.345.365-.367" transform="translate(3 25) translate(12 116.964)"/>
            <path fill="#FFF" d="M319.224 162.553L320.226 176.758 320.556 181.409 327.904 181.632 335.259 181.409 335.589 176.758 336.584 162.553 336.92 157.804 318.888 157.804z" transform="translate(3 25) translate(12 116.964)"/>
            <path fill="#FFCB48" d="M320.226 176.758L327.904 176.883 335.589 176.758 336.584 162.553 319.224 162.553z" transform="translate(3 25) translate(12 116.964)"/>
            <path fill="#57575E" d="M335.888 155.184h-15.964c-.307 0-.558.28-.558.625v1.504c0 .345.25.626.558.626h15.964c.307 0 .559-.281.559-.626v-1.504c0-.344-.252-.625-.56-.625" transform="translate(3 25) translate(12 116.964)"/>
            <path fill="#FFF" d="M337.337 156.925h-18.862c-.346 0-.63.316-.63.703v.35c0 .387.284.704.63.704h18.862c.345 0 .628-.317.628-.703v-.351c0-.387-.283-.703-.628-.703" transform="translate(3 25) translate(12 116.964)"/>
            <path fill="#FD9F00" d="M147.002 321.778v9.708c0 3.365-17.97 6.094-40.136 6.094-22.166 0-40.135-2.729-40.135-6.094v-9.708h80.272z" transform="translate(3 25) translate(12 116.964)"/>
        </g>
        <g transform="translate(3 25) translate(78 437.964)">
            <mask id="prefix__q" fill="#fff">
                <use xlink:href="#prefix__p"/>
            </mask>
            <path fill="#E38601" d="M78.224 19L80.124 19 80.124-3.254 78.224-3.254zM73.297 19L75.197 19 75.197-3.254 73.297-3.254zM67.672 19L69.572 19 69.572-3.254 67.672-3.254zM60.654 19L62.554 19 62.554-3.254 60.654-3.254zM52.938 19L54.838 19 54.838-3.254 52.938-3.254zM44.525 19L46.425 19 46.425-3.254 44.525-3.254zM1.609 19L3.509 19 3.509-3.254 1.609-3.254zM6.536 19L8.436 19 8.436-3.254 6.536-3.254zM12.16 19L14.061 19 14.061-3.254 12.16-3.254zM19.178 19L21.079 19 21.079-3.254 19.178-3.254zM26.894 19L28.795 19 28.795-3.254 26.894-3.254zM35.307 19L37.207 19 37.207-3.254 35.307-3.254z" mask="url(#prefix__q)"/>
        </g>
        <g>
            <path fill="#FAC61B" d="M.73 11.597c0 3.365 17.969 6.094 40.136 6.094s40.136-2.73 40.136-6.094c0-3.365-17.969-6.094-40.136-6.094S.73 8.232.73 11.597" transform="translate(3 25) translate(78 426.964)"/>
            <path fill="#FD9F00" d="M8.959 10.956c0 1.562 14.285 2.828 31.907 2.828s31.907-1.266 31.907-2.828c0-1.562-14.285-2.828-31.907-2.828S8.959 9.394 8.959 10.956" transform="translate(3 25) translate(78 426.964)"/>
            <path fill="#E38601" d="M71.398 11.778c-3.974-1.16-16.137-2.006-30.531-2.006-14.394 0-26.558.845-30.532 2.006-.893-.26-1.376-.536-1.376-.822 0-1.563 14.285-2.828 31.908-2.828 17.62 0 31.907 1.265 31.907 2.828 0 .286-.484.561-1.376.822" transform="translate(3 25) translate(78 426.964)"/>
            <path fill="#FD9F00" d="M86.815.813v9.707c0 3.366-17.97 6.095-40.136 6.095-22.167 0-40.136-2.73-40.136-6.094V.812h80.272z" transform="translate(3 25) translate(78 426.964)"/>
        </g>
        <g transform="translate(3 25) translate(84 426.964)">
            <mask id="prefix__s" fill="#fff">
                <use xlink:href="#prefix__r"/>
            </mask>
            <path fill="#E38601" d="M78.037 19.034L79.937 19.034 79.937-3.219 78.037-3.219zM73.109 19.034L75.009 19.034 75.009-3.219 73.109-3.219zM67.485 19.034L69.385 19.034 69.385-3.219 67.485-3.219zM60.466 19.034L62.366 19.034 62.366-3.219 60.466-3.219zM52.75 19.034L54.65 19.034 54.65-3.219 52.75-3.219zM44.338 19.034L46.238 19.034 46.238-3.219 44.338-3.219zM1.421 19.034L3.321 19.034 3.321-3.219 1.421-3.219zM6.349 19.034L8.249 19.034 8.249-3.219 6.349-3.219zM11.973 19.034L13.873 19.034 13.873-3.219 11.973-3.219zM18.991 19.034L20.891 19.034 20.891-3.219 18.991-3.219zM26.706 19.034L28.607 19.034 28.607-3.219 26.706-3.219zM35.12 19.034L37.02 19.034 37.02-3.219 35.12-3.219z" mask="url(#prefix__s)"/>
        </g>
        <g>
            <path fill="#FAC61B" d="M6.543 11.63c0 3.366 17.97 6.095 40.135 6.095 22.168 0 40.136-2.73 40.136-6.094 0-3.365-17.968-6.093-40.135-6.093-22.167 0-40.136 2.728-40.136 6.093" transform="translate(3 25) translate(78 415.964)"/>
            <path fill="#FD9F00" d="M14.771 10.99c0 1.562 14.285 2.828 31.907 2.828 17.623 0 31.907-1.266 31.907-2.828 0-1.562-14.284-2.828-31.906-2.828-17.623 0-31.908 1.266-31.908 2.828" transform="translate(3 25) translate(78 415.964)"/>
            <path fill="#E38601" d="M77.211 11.813c-3.975-1.16-16.138-2.007-30.532-2.007-14.394 0-26.558.847-30.532 2.007-.892-.26-1.375-.537-1.375-.822 0-1.563 14.285-2.829 31.907-2.829s31.907 1.266 31.907 2.829c0 .286-.483.562-1.375.822" transform="translate(3 25) translate(78 415.964)"/>
            <path fill="#FD9F00" d="M80.293.774v9.708c0 3.365-17.969 6.094-40.136 6.094-22.166 0-40.135-2.729-40.135-6.094V.774h80.271z" transform="translate(3 25) translate(78 415.964)"/>
        </g>
        <g transform="translate(3 25) translate(78 415.964)">
            <mask id="prefix__u" fill="#fff">
                <use xlink:href="#prefix__t"/>
            </mask>
            <path fill="#E38601" d="M77.515 18.996L79.416 18.996 79.416-3.257 77.515-3.257zM72.588 18.996L74.488 18.996 74.488-3.257 72.588-3.257zM66.963 18.996L68.863 18.996 68.863-3.257 66.963-3.257zM59.945 18.996L61.845 18.996 61.845-3.257 59.945-3.257zM52.229 18.996L54.129 18.996 54.129-3.257 52.229-3.257zM43.816 18.996L45.717 18.996 45.717-3.257 43.816-3.257zM.9 18.996L2.8 18.996 2.8-3.257.9-3.257zM5.827 18.996L7.727 18.996 7.727-3.257 5.827-3.257zM11.451 18.996L13.352 18.996 13.352-3.257 11.451-3.257zM18.469 18.996L20.37 18.996 20.37-3.257 18.469-3.257zM26.186 18.996L28.086 18.996 28.086-3.257 26.186-3.257zM34.598 18.996L36.499 18.996 36.499-3.257 34.598-3.257z" mask="url(#prefix__u)"/>
        </g>
        <g>
            <path fill="#FAC61B" d="M.021 6.594c0 3.365 17.97 6.093 40.136 6.093 22.167 0 40.136-2.728 40.136-6.093C80.293 3.229 62.324.5 40.157.5 17.991.5.021 3.229.021 6.594" transform="translate(3 25) translate(78 409.964)"/>
            <path fill="#FD9F00" d="M8.25 5.952c0 1.562 14.285 2.828 31.907 2.828 17.623 0 31.907-1.266 31.907-2.828 0-1.562-14.284-2.828-31.906-2.828C22.534 3.124 8.25 4.39 8.25 5.952" transform="translate(3 25) translate(78 409.964)"/>
            <path fill="#E38601" d="M70.69 6.774c-3.975-1.16-16.138-2.006-30.533-2.006-14.394 0-26.557.846-30.532 2.006-.891-.26-1.374-.536-1.374-.822 0-1.562 14.285-2.828 31.906-2.828 17.622 0 31.908 1.266 31.908 2.828 0 .286-.484.562-1.375.822" transform="translate(3 25) translate(78 409.964)"/>
        </g>
    </g>
</svg>
