<svg xmlns="http://www.w3.org/2000/svg" xmlns:xlink="http://www.w3.org/1999/xlink" width="155" height="155" viewBox="0 0 155 155">
    <defs>
        <path id="prefix__c" d="M0 0.506L83.494 0.506 83.494 63.343 0 63.343z"/>
        <path id="prefix__e" d="M0 87.242L83.494 87.242 83.494 0 0 0z"/>
        <filter id="prefix__a" width="165.2%" height="165.2%" x="-32.6%" y="-19.6%" filterUnits="objectBoundingBox">
            <feOffset dy="15" in="SourceAlpha" result="shadowOffsetOuter1"/>
            <feGaussianBlur in="shadowOffsetOuter1" result="shadowBlurOuter1" stdDeviation="10"/>
            <feColorMatrix in="shadowBlurOuter1" values="0 0 0 0 1 0 0 0 0 0.699027652 0 0 0 0 0.0927210366 0 0 0 0.15 0"/>
        </filter>
        <circle id="prefix__b" cx="57.5" cy="57.5" r="57.5"/>
    </defs>
    <g fill="none" fill-rule="evenodd" transform="translate(20 5)">
        <use fill="#000" filter="url(#prefix__a)" xlink:href="#prefix__b"/>
        <use fill="#FFF" xlink:href="#prefix__b"/>
        <g transform="translate(15 18)">
            <g transform="translate(0 3.242)">
                <mask id="prefix__d" fill="#fff">
                    <use xlink:href="#prefix__c"/>
                </mask>
                <path fill="#2A428C" d="M77.78 63.343c3.63-6.189 5.714-13.396 5.714-21.09 0-23.056-18.69-41.747-41.747-41.747C18.69.506 0 19.197 0 42.252c0 7.695 2.084 14.902 5.715 21.091H77.78z" mask="url(#prefix__d)"/>
            </g>
            <path fill="#D3DCFB" d="M62.267 0H27.065c-.197 0-.394.005-.589.016-1.277.547-4.337 2.481-4.337 8.422v4.614c0 1.915-1.558 3.473-3.473 3.473h-5.163c-5.533 0-7.339 2.954-7.869 4.272-.012.217-.021.435-.021.654v44.963c3.063 5.278 7.249 9.823 12.231 13.31V33.407c0-2.942 1.194-5.823 3.274-7.903l10-10c2.111-2.11 4.918-3.275 7.904-3.275h26.901V3.655C65.923 1.637 64.286 0 62.267 0"/>
            <path fill="#BEC8F7" d="M27.065 0c-.197 0-.393.005-.59.016C25.2.563 22.14 2.497 22.14 8.438v4.614c0 1.915-1.56 3.473-3.474 3.473h-5.163c-5.533 0-7.34 2.954-7.87 4.272-.011.217-.02.435-.02.654v44.963c3.063 5.278 7.249 9.823 12.232 13.31V33.407c0-2.942 1.193-5.823 3.274-7.903l9.555-9.557c-.802-1.968-.618-4.532-.618-4.532V3.747C30.056.68 33.975 0 33.975 0h-6.91z"/>
            <path fill="#D3DCFB" d="M18.968 3.354C21.115 1.207 24.028 0 27.065 0c0 0-4.743 1.03-4.743 8.439v4.613c0 2.019-1.637 3.656-3.656 3.656h-5.162c-7.014 0-7.89 4.743-7.89 4.743 0-3.037 1.207-5.95 3.354-8.097l10-10z"/>
            <path fill="#73C3F9" d="M53.822 6.287c-.403 0-.73.327-.73.73V11.5c0 .402.327.73.73.73h12.1V6.286h-12.1z"/>
            <path fill="#4FABF7" d="M59.07 9.26c0-1.643 1.331-2.974 2.972-2.974h-8.22c-.404 0-.73.327-.73.731V11.5c0 .404.326.731.73.731h8.22c-1.64 0-2.972-1.33-2.972-2.972"/>
            <path fill="#E8F4FC" d="M77.88 15.614c0-2.02-1.637-3.656-3.656-3.656H39.022c-.197 0-.393.006-.589.015-1.277.549-4.336 2.482-4.336 8.424v4.613c0 1.916-1.558 3.474-3.474 3.474h-5.162c-5.534 0-7.34 2.954-7.87 4.27-.012.218-.02.436-.02.655v46.125c6.822 4.853 15.165 7.708 24.176 7.708 15.432 0 28.908-8.375 36.133-20.827V15.614z"/>
            <path fill="#D3DCFB" d="M41.276 18.244c0-4.73 4.03-6.287 4.03-6.287h-6.284c-.197 0-.393.006-.589.016-1.277.548-4.336 2.481-4.336 8.422v4.616c0 1.915-1.558 3.473-3.474 3.473h-5.162c-5.534 0-7.339 2.953-7.869 4.27-.013.218-.02.436-.02.654v46.126c6.821 4.853 15.164 7.707 24.175 7.707.758 0 1.512-.02 2.261-.06-2.26-1.737-2.314-4.34-2.314-4.34v-6.646c0-3.237 3.946-3.92 3.946-3.92V52.46c-4.722-.843-4.364-5.48-4.364-5.48V18.245z"/>
            <path fill="#FFC839" d="M27.374 56.648v11.728c0 2.46 1.995 4.455 4.455 4.455h31.793c2.461 0 4.456-1.995 4.456-4.455V56.648c0-2.46-1.995-4.455-4.456-4.455H31.829c-2.46 0-4.455 1.995-4.455 4.455"/>
            <path fill="#FFB332" d="M42.71 68.375V56.647c0-2.46 1.995-4.455 4.454-4.455H31.83c-2.46 0-4.456 1.995-4.456 4.455v11.728c0 2.46 1.995 4.455 4.456 4.455h15.335c-2.46 0-4.455-1.995-4.455-4.455"/>
            <path fill="#E8F4FC" d="M40.232 66.523c.262 0 .512-.025.75-.077.24-.051.45-.137.632-.256.182-.12.327-.281.436-.486.108-.205.162-.467.162-.785 0-.626-.177-1.073-.53-1.34-.352-.268-.82-.402-1.4-.402h-2.917v3.346h2.867zm-.154-5.172c.478 0 .87-.113 1.178-.342.307-.227.46-.596.46-1.11 0-.283-.05-.517-.153-.698-.102-.182-.24-.324-.41-.427-.17-.103-.366-.174-.588-.214-.222-.04-.453-.06-.692-.06h-2.508v2.85h2.713zm.342-4.932c.58 0 1.109.05 1.587.153.478.102.888.27 1.229.504.34.233.606.543.794.929.187.388.28.866.28 1.434 0 .615-.138 1.127-.417 1.536-.28.41-.691.746-1.237 1.008.75.216 1.31.595 1.68 1.135.37.54.556 1.192.556 1.954 0 .614-.12 1.146-.36 1.596-.238.45-.56.816-.963 1.1-.404.285-.865.495-1.383.632s-1.05.205-1.596.205h-5.905V56.419h5.735z"/>
            <mask id="prefix__f" fill="#fff">
                <use xlink:href="#prefix__e"/>
            </mask>
            <path fill="#E8F4FC" d="M46.854 68.605h2.424V59.78h-2.424v8.824zm0-10.19h2.424v-1.997h-2.424v1.997zM51.598 68.605L54.022 68.605 54.022 56.418 51.598 56.418zM56.343 68.605L58.767 68.605 58.767 56.418 56.343 56.418z" mask="url(#prefix__f)"/>
            <path fill="#BEC8F7" d="M35.885 36.468h23.682c.755 0 1.366-.61 1.366-1.366 0-.755-.611-1.366-1.366-1.366H35.885c-.755 0-1.366.611-1.366 1.366 0 .755.61 1.366 1.366 1.366M29.204 41.724h37.043c.755 0 1.367-.612 1.367-1.366 0-.755-.612-1.367-1.367-1.367H29.204c-.755 0-1.366.612-1.366 1.367 0 .754.611 1.366 1.366 1.366M66.247 44.246H29.204c-.755 0-1.367.612-1.367 1.366 0 .755.612 1.367 1.367 1.367h37.043c.755 0 1.366-.612 1.366-1.367 0-.754-.61-1.366-1.366-1.366" mask="url(#prefix__f)"/>
            <path fill="#D3DCFB" d="M64.892 77.55h-4.816c-.754 0-1.366.611-1.366 1.366 0 .754.612 1.366 1.366 1.366h4.816c.755 0 1.366-.612 1.366-1.366 0-.755-.61-1.367-1.366-1.367" mask="url(#prefix__f)"/>
            <path fill="#73C3F9" d="M65.78 18.244c-.404 0-.73.328-.73.73v4.485c0 .402.326.73.73.73h12.1v-5.945h-12.1z" mask="url(#prefix__f)"/>
            <path fill="#4FABF7" d="M71.028 21.216c0-1.64 1.33-2.972 2.972-2.972h-8.221c-.403 0-.73.327-.73.731v4.483c0 .404.327.73.73.73h8.22c-1.64.001-2.971-1.33-2.971-2.972" mask="url(#prefix__f)"/>
            <path fill="#E8F4FC" d="M30.925 15.312c2.147-2.147 5.06-3.354 8.097-3.354 0 0-4.743 1.029-4.743 8.438v4.614c0 2.019-1.637 3.656-3.656 3.656h-5.162c-7.014 0-7.89 4.743-7.89 4.743 0-3.037 1.206-5.95 3.354-8.097l10-10z" mask="url(#prefix__f)"/>
        </g>
    </g>
</svg>
