<svg xmlns="http://www.w3.org/2000/svg" xmlns:xlink="http://www.w3.org/1999/xlink" width="383" height="246" viewBox="0 0 383 246">
    <defs>
        <path id="prefix__a" d="M0 0.551L8.538 0.551 8.538 6.858 0 6.858z"/>
        <path id="prefix__c" d="M56.699.838c-9.889.469-18.913 5.509-26.561 11.311S16.233 25.247 10.81 32.99C5.579 40.461.975 48.698.235 57.727c-.486 5.931 1.038 12.267 4.515 17.22 1.815 2.585 94.086-71.5 94.086-71.5-5.787-.585-16.844-2.82-33.312-2.82-2.786 0-5.728.064-8.825.211"/>
        <path id="prefix__e" d="M.919 3.627c0 1.743 1.413 3.156 3.156 3.156S7.23 5.37 7.23 3.627C7.23 1.885 5.818.472 4.075.472 2.332.472.919 1.885.919 3.627"/>
        <path id="prefix__h" d="M.515 2.641c0 1.22.989 2.209 2.21 2.209 1.219 0 2.208-.989 2.208-2.209 0-1.22-.989-2.208-2.208-2.208-1.221 0-2.21.988-2.21 2.208"/>
        <path id="prefix__k" d="M58.591 1.766C13.587 8.758 2.882 40.436 1.352 46.99c0 0-7.209 34.518 12.671 60.953 19.881 26.435 61.391 32.333 86.515 7.865 25.124-24.469 22.284-97.438 22.284-97.438S108.237.472 74.738.472c-4.962 0-10.34.392-16.147 1.294"/>
        <path id="prefix__m" d="M7.414 9.533C5.957 17.398.648 20.156.648 20.156c3.641 4.733 7.93 3.396 7.93 3.396s.661-4.718.801-6.299C10.326 6.62 8.87.867 8.87.867s0 .801-1.456 8.666"/>
        <path id="prefix__p" d="M.497.687s7.974 2.62 10.705 14.855 1.056 15.002 1.056 15.002 4.26.219 6.117-.874c1.857-1.092 4.042-2.949 4.042-2.949S17.629 14.754 11.93 7.386C7.871 2.138 3.034.686.61.686L.497.687"/>
        <path id="prefix__s" d="M3.2.048c2.458 3.638 4.171 7.951 4.275 12.51-.008 1.138-.084 2.269-.323 3.405-.301 1.158-.721 2.173-1.265 3.18-1.038 1.962-2.691 3.881-4.9 4.406 1.992-1.016 3.127-2.939 3.979-4.852.397-.968.788-2.008.97-2.986.179-1.018.243-2.083.228-3.135"/>
        <path id="prefix__v" d="M4.099-.001C5.25 2.432 5.684 5.2 5.353 7.936c-.204 1.362-.594 2.729-1.337 3.926-.748 1.195-1.858 2.127-3.085 2.665.948-.972 1.657-2.017 2.182-3.145.483-1.153.774-2.37.941-3.619.193-1.247.205-2.53.205-3.822"/>
        <path id="prefix__y" d="M0.453 2.259L3.186 3.558 3.186 0.961z"/>
        <linearGradient id="prefix__f" x1=".007%" x2="100.004%" y1="49.999%" y2="49.999%">
            <stop offset="0%" stop-color="#FFB218"/>
            <stop offset="100%" stop-color="#FFCF44"/>
        </linearGradient>
        <linearGradient id="prefix__i" x1=".011%" x2="100.001%" y1="49.989%" y2="49.989%">
            <stop offset="0%" stop-color="#FFB218"/>
            <stop offset="100%" stop-color="#FFCF44"/>
        </linearGradient>
        <linearGradient id="prefix__n" x1="-.004%" x2="100.005%" y1="50.001%" y2="50.001%">
            <stop offset="0%" stop-color="#FFB218"/>
            <stop offset="100%" stop-color="#FFCF44"/>
        </linearGradient>
        <linearGradient id="prefix__q" x1="-.001%" x2="99.998%" y1="49.999%" y2="49.999%">
            <stop offset="0%" stop-color="#FFB218"/>
            <stop offset="100%" stop-color="#FFCF44"/>
        </linearGradient>
        <linearGradient id="prefix__t" x1=".001%" x2="99.991%" y1="50%" y2="50%">
            <stop offset="0%" stop-color="#FFB218"/>
            <stop offset="100%" stop-color="#FFCF44"/>
        </linearGradient>
        <linearGradient id="prefix__w" x1=".003%" x2="99.998%" y1="50%" y2="50%">
            <stop offset="0%" stop-color="#FFB218"/>
            <stop offset="100%" stop-color="#FFCF44"/>
        </linearGradient>
        <linearGradient id="prefix__z" x1="-.01%" x2="99.987%" y1="50.008%" y2="50.008%">
            <stop offset="0%" stop-color="#FFB218"/>
            <stop offset="100%" stop-color="#FFCF44"/>
        </linearGradient>
    </defs>
    <g fill="none" fill-rule="evenodd">
        <g>
            <g>
                <path fill="#F7E8C8" d="M382.633 84.307c0-4.801-85.655-8.693-191.316-8.693C85.655 75.614 0 79.506 0 84.307S85.655 93 191.317 93c105.66 0 191.316-3.892 191.316-8.693" transform="translate(0 5.207) translate(0 146)"/>
                <g>
                    <path fill="#D42531" d="M23.194 45.251c.956-1.152 1.9-2.188 2.875-3.195 2.055-2.122 4.207-4.132 6.755-5.666 1.677-1.01 3.409-1.907 5.356-2.261 2.76-.502 5.057.312 6.825 2.526.303.379.568.787.924 1.12.487.456 1.036.75 1.728.617.516-.1.822-.452.869-.975.057-.625-.069-1.224-.316-1.79-1.312-3.01-3.57-4.746-6.853-5.154-2.625-.327-5.028.357-7.34 1.5-3.162 1.562-5.92 3.697-8.502 6.07-2.318 2.13-4.444 4.434-6.292 6.988-.095.13-.188.22-.37.219-1.428-.007-2.857-.004-4.28-.004-.07-.095.008-.15.049-.206 2.921-3.965 6.064-7.735 9.817-10.951 3.213-2.751 6.713-5.029 10.776-6.327 2.713-.866 5.483-1.194 8.298-.604 3.598.755 6.09 2.948 7.743 6.159 1.44 2.797 2.124 5.8 2.322 8.928.055.88.063 1.76.057 2.641-.002.272-.065.38-.363.372-.945-.019-1.89-.015-2.833-.002-.252.005-.322-.07-.322-.321-.003-1.086-.04-2.17-.292-3.233-.074-.312-.174-.615-.33-.894-.462-.824-1.48-.85-1.99-.049-.339.537-.406 1.151-.435 1.764-.038.802-.053 1.607-.057 2.41-.001.252-.077.328-.328.323-.906-.013-1.811-.013-2.717 0-.275.006-.34-.073-.319-.348.108-1.485.088-2.959-.495-4.369-.565-1.368-1.461-2.364-2.99-2.61-1.099-.178-2.158.044-3.19.418-1.955.71-3.645 1.865-5.228 3.189-1.236 1.035-2.35 2.196-3.374 3.44-.172.208-.347.284-.614.281-1.49-.012-2.98-.006-4.564-.006" transform="translate(0 5.207) translate(0 146) translate(106 .793)"/>
                    <path fill="#D42531" d="M60.788 42.797c0 .727-.006 1.454.004 2.182.002.22-.08.279-.293.276-.982-.01-1.965-.011-2.947.001-.25.003-.294-.102-.294-.318 0-1.621-.08-3.24-.245-4.853-.37-3.597-1.162-7.07-3.09-10.192-2.565-4.15-6.296-6.458-11.128-7.01-3.49-.396-6.825.253-10.069 1.503-3.675 1.417-6.958 3.494-10.006 5.967-1.239 1.006-2.375 2.13-3.604 3.147-.53.44-1.083.852-1.69 1.181-.478.258-.98.409-1.476.058-.35-.246-.427-.859-.218-1.458.245-.707.735-1.247 1.219-1.79 4.065-4.565 8.86-8.12 14.521-10.461 2.925-1.21 5.968-1.934 9.142-1.939 6.981-.011 12.374 3.007 16.327 8.7 1.717 2.475 2.637 5.271 3.211 8.198.44 2.248.63 4.52.636 6.808" transform="translate(0 5.207) translate(0 146) translate(106 .793)"/>
                    <path fill="#D42531" d="M18.121 24.403c1.719-2.204 3.662-4.165 5.856-5.876 3.569-2.784 7.517-4.804 11.971-5.695 7.518-1.504 14.512-.29 20.748 4.336 4.097 3.04 6.883 7.092 8.73 11.813 1.195 3.06 1.88 6.24 2.174 9.51.149 1.656.184 3.313.141 4.972-.024.931-.527 1.578-1.314 1.748-.638.137-1.129-.091-1.434-.67-.232-.44-.29-.92-.29-1.41.005-3.856-.572-7.622-1.788-11.284-1.207-3.632-2.956-6.961-5.503-9.846-2.964-3.357-6.677-5.372-11.047-6.229-2.94-.577-5.897-.718-8.87-.366-3.773.448-7.32 1.633-10.7 3.347-2.958 1.502-5.682 3.357-8.237 5.468-.203.167-.203.167-.437.182" transform="translate(0 5.207) translate(0 146) translate(106 .793)"/>
                    <path fill="#F8B517" d="M56.23 12.83c.522.192 1.052.364 1.564.58 11.013 4.68 17.993 12.814 20.857 24.447.566 2.298.801 4.648.825 7.018.004.306-.08.385-.38.383-2.004-.012-4.007-.014-6.011.002-.324.003-.372-.112-.364-.395.116-3.93-.323-7.796-1.395-11.58-1.941-6.854-5.617-12.61-10.998-17.272-.656-.569-1.33-1.117-2.031-1.627-.69-.502-1.39-.99-2.085-1.485l.018-.072M45.12 0c.581 1.075 1.514 1.738 2.384 2.46 1.398 1.16 2.611 2.467 3.34 4.165.232.54.395 1.099.529 1.672.073.313.033.408-.308.35-1.243-.218-2.497-.346-3.757-.417-2.475-.139-4.942-.052-7.397.3-.351.049-.701.102-1.093.159.141-1.118.535-2.11 1.08-3.05.743-1.276 1.774-2.291 2.899-3.226.85-.705 1.757-1.358 2.323-2.413M20.804 13.375c.003-1.203.365-2.59.859-3.95.373-1.027.85-2.027.843-3.156 0-.103.024-.194.153-.122 1.305.734 2.795.725 4.2 1.057 2.017.476 3.813 1.336 5.215 2.915.238.27.193.338-.126.458-3.732 1.42-7.151 3.388-10.238 5.925-.259.21-.372.23-.467-.127-.101-.381-.227-.757-.293-1.146-.091-.529-.151-1.06-.146-1.854M67.73 6.06c-.032 1.142.37 2.099.737 3.064.604 1.598 1.047 3.223.955 4.956-.042.781-.187 1.539-.42 2.285-.098.309-.169.383-.457.145-2.303-1.896-4.808-3.48-7.501-4.762-.92-.44-1.853-.85-2.813-1.193-.265-.094-.3-.17-.102-.394 1.35-1.53 3.064-2.424 5.019-2.891.606-.145 1.22-.259 1.836-.362.929-.156 1.858-.307 2.747-.847M79.925 32.39c-.48-1.254-1.002-2.483-1.601-3.679-1.238-2.473-2.73-4.782-4.486-6.915-.203-.247-.205-.332.114-.438 2.057-.686 4.089-.52 6.119.124 1.066.34 2.08.834 3.186 1.057.316.065.633.058 1.001.087-.345.63-.563 1.285-.69 1.974-.2 1.102-.346 2.216-.677 3.291-.501 1.627-1.31 3.066-2.585 4.219-.084.077-.173.15-.262.222-.029.022-.067.034-.119.059M10.27 32.39c-1.17-.926-1.971-2.117-2.552-3.473-.558-1.303-.76-2.693-1.001-4.072-.12-.694-.28-1.373-.625-1.995-.072-.13-.13-.24.101-.238 1.05.01 1.985-.414 2.938-.77 1.526-.567 3.08-.988 4.728-.923.818.032 1.616.175 2.398.428.327.106.37.185.14.462-1.756 2.12-3.232 4.422-4.469 6.88-.544 1.082-1.027 2.19-1.463 3.32-.05.128-.064.274-.196.381" transform="translate(0 5.207) translate(0 146) translate(106 .793)"/>
                    <path fill="#D62733" d="M33.5 53.696c0 .88.016 1.76-.009 2.638-.008.312.102.383.384.391.37.012.74 0 1.105-.046 1.235-.156 2.146-.938 2.423-2.072.137-.564.15-1.14.07-1.71-.155-1.122-.856-1.86-1.964-2.12-.553-.128-1.111-.1-1.672-.08-.258.01-.35.091-.344.36.017.879.007 1.759.007 2.639m-2.113.01c0-1.366.005-2.732-.004-4.097-.002-.24.031-.364.31-.394 1.525-.166 3.05-.277 4.57.023 2.298.452 3.576 2.103 3.472 4.451-.114 2.549-1.503 4.11-4.024 4.522-1.307.213-2.617.157-3.93.064-.334-.024-.406-.154-.4-.472.017-1.366.006-2.731.006-4.097" transform="translate(0 5.207) translate(0 146) translate(106 .793)"/>
                    <path fill="#D42532" d="M49.76 53.737c0 1.391-.008 2.782.007 4.174.003.28-.061.383-.358.367-.458-.025-.92-.023-1.377 0-.276.013-.373-.054-.367-.353.02-1.034-.006-2.068.016-3.101.006-.314-.095-.374-.383-.369-.956.017-1.914.02-2.87 0-.295-.008-.357.084-.353.364.017 1.046-.002 2.092.014 3.139.003.26-.08.327-.325.318-.497-.016-.995-.015-1.493 0-.22.006-.28-.068-.28-.284.006-2.86.006-5.719 0-8.577 0-.212.053-.294.277-.288.51.015 1.02.018 1.53-.001.255-.01.29.096.288.315-.01.932.016 1.864-.014 2.796-.01.356.109.416.43.409.916-.02 1.837-.028 2.754.003.37.013.431-.117.424-.447-.021-.919.003-1.838-.014-2.757-.004-.257.074-.328.321-.319.472.018.945.022 1.416 0 .286-.016.368.07.364.36-.015 1.417-.007 2.834-.007 4.25" transform="translate(0 5.207) translate(0 146) translate(106 .793)"/>
                    <path fill="#D62733" d="M74.574 51.935c0 .33-.002.661.001.993.001.094-.03.234.12.233.668-.003 1.359.11 1.954-.323.397-.29.54-.698.476-1.173-.064-.49-.35-.808-.815-.957-.51-.164-1.033-.087-1.552-.072-.184.005-.184.137-.184.27v1.03m2.994 2.023c.694.334 1.004.907 1.2 1.56.244.819.47 1.641.723 2.456.082.265-.007.305-.24.3-.51-.011-1.022-.017-1.531.004-.241.01-.34-.1-.414-.3-.22-.6-.363-1.22-.526-1.836-.046-.172-.092-.345-.153-.512-.291-.781-1.134-1.19-1.922-.947-.192.059-.12.204-.121.313-.006.97-.013 1.941.003 2.911.004.276-.055.388-.357.372-.482-.027-.97-.018-1.453-.004-.222.006-.28-.075-.28-.288.005-2.822.004-5.644 0-8.466 0-.183.038-.274.24-.298 1.512-.18 3.024-.309 4.528.042 2.251.525 2.385 2.96 1.31 4.029-.282.282-.617.476-1.007.664M55.952 50.653c-.288 1.234-.606 2.359-.94 3.48-.063.213.079.196.208.196.497 0 .996-.01 1.492.004.254.007.331-.033.243-.315-.338-1.08-.65-2.17-1.003-3.365m.111-1.522c.357 0 .714.011 1.07-.004.212-.01.314.058.382.268.925 2.87 1.856 5.738 2.794 8.605.072.221.035.283-.203.277-.573-.015-1.147-.018-1.72.002-.235.007-.307-.1-.363-.291-.178-.597-.376-1.19-.546-1.788-.066-.231-.162-.332-.419-.325-.7.02-1.402.018-2.102.001-.254-.006-.352.085-.412.326-.15.593-.344 1.173-.495 1.765-.057.222-.137.32-.381.31-.522-.017-1.046-.02-1.567 0-.294.012-.303-.082-.225-.327.907-2.85 1.806-5.702 2.699-8.556.065-.206.164-.279.38-.268.368.018.738.005 1.108.005M14.853 50.71c-.325 1.165-.64 2.3-.957 3.433-.052.182.055.186.18.186.535 0 1.07-.004 1.603.003.193.002.24-.05.182-.245-.34-1.112-.666-2.227-1.008-3.376m.069-1.58c.37 0 .74.015 1.108-.005.225-.012.311.082.375.28.922 2.858 1.85 5.714 2.782 8.57.072.22.069.312-.208.303-.561-.021-1.123-.02-1.684 0-.241.008-.33-.092-.392-.303-.174-.599-.372-1.19-.547-1.79-.06-.207-.14-.317-.387-.31-.726.017-1.453.012-2.18.002-.204-.004-.291.07-.343.263-.168.627-.362 1.247-.525 1.875-.052.2-.143.264-.343.26-.548-.011-1.096-.01-1.644 0-.213.003-.258-.044-.189-.262.913-2.875 1.818-5.752 2.72-8.63.057-.181.142-.268.348-.258.37.018.739.005 1.109.005M65.993 50.658c-.295 1.219-.602 2.348-.943 3.468-.058.197.06.205.203.204.51-.003 1.021-.012 1.532.004.279.009.274-.091.206-.315-.331-1.084-.647-2.172-.998-3.361m.115-1.527c.37 0 .739.009 1.108-.004.184-.006.269.061.325.237.93 2.883 1.864 5.763 2.807 8.642.081.246.003.273-.212.269-.573-.01-1.147-.011-1.72.002-.205.004-.29-.076-.346-.262-.183-.623-.387-1.24-.57-1.862-.058-.205-.156-.28-.375-.276-.714.014-1.428.014-2.141 0-.234-.005-.337.07-.395.297-.16.616-.354 1.223-.514 1.838-.052.2-.137.268-.34.264-.548-.011-1.096-.01-1.644-.001-.201.003-.269-.027-.196-.255.92-2.886 1.83-5.774 2.735-8.664.057-.183.153-.233.331-.229.382.01.764.004 1.147.004M24.874 50.647c-.283 1.225-.594 2.34-.932 3.447-.06.195.021.24.204.238.51-.008 1.021-.01 1.531.001.231.004.281-.054.21-.286-.338-1.095-.657-2.195-1.013-3.4m.088-1.516c.369 0 .74.015 1.108-.006.225-.013.31.085.374.28.923 2.858 1.847 5.715 2.78 8.57.074.228.061.312-.21.302-.56-.019-1.122-.019-1.682.001-.245.009-.331-.098-.392-.308-.175-.598-.375-1.19-.547-1.789-.061-.216-.151-.31-.392-.305-.714.016-1.429.016-2.142 0-.242-.005-.33.087-.387.306-.159.604-.349 1.198-.505 1.802-.053.206-.128.3-.355.293-.548-.016-1.096-.013-1.645-.001-.22.004-.25-.054-.184-.262.913-2.875 1.819-5.751 2.72-8.63.059-.185.146-.266.35-.258.368.016.738.005 1.109.005" transform="translate(0 5.207) translate(0 146) translate(106 .793)"/>
                    <path fill="#F8B517" d="M90.2 45.253c-2.548 0-5.097-.004-7.646.005-.262 0-.35-.064-.348-.338.008-1.89-.165-3.769-.479-5.63-.066-.399.093-.348.34-.297 1.544.32 2.885 1.046 4.079 2.063.829.707 1.516 1.545 2.206 2.381.551.668 1.114 1.322 1.849 1.816" transform="translate(0 5.207) translate(0 146) translate(106 .793)"/>
                    <g transform="translate(0 5.207) translate(0 146) translate(106 .793) translate(0 38.402)">
                        <mask id="prefix__b" fill="#fff">
                            <use xlink:href="#prefix__a"/>
                        </mask>
                        <path fill="#F8B517" d="M0 6.804c1.267-.758 2.008-1.992 2.955-3.03C4.354 2.242 5.98 1.084 8.04.624c.074-.017.152-.022.225-.045.255-.08.303.013.26.257-.331 1.877-.47 3.772-.502 5.676-.003.213-.012.347-.3.346-2.539-.012-5.078-.008-7.618-.009-.019 0-.04-.016-.105-.045" mask="url(#prefix__b)"/>
                    </g>
                    <path fill="#D62733" d="M32.15 45.24c1.516-1.502 2.96-2.924 4.95-3.594.263-.09.54-.15.817-.187 1.33-.175 2.25.52 2.474 1.853.097.572.077 1.142.01 1.716-.02.189-.106.227-.271.226-.778-.002-1.556.004-2.333.005-.096 0-.196.027-.241-.118-.107-.348-.393-.367-.684-.32-.187.03-.394.064-.545.165-.412.279-.868.253-1.325.253H32.15" transform="translate(0 5.207) translate(0 146) translate(106 .793)"/>
                    <path fill="#D72532" d="M11.523 39.529c.005-.51.192-.97.407-1.418.264-.553.607-1.06.994-1.533.274-.334.6-.596 1.041-.653.925-.12 1.609.733 1.368 1.708-.049.195-.12.395-.23.561-.49.75-1.062 1.43-1.767 1.989-.119.093-.252.172-.388.24-.865.427-1.44.066-1.425-.894" transform="translate(0 5.207) translate(0 146) translate(106 .793)"/>
                </g>
            </g>
            <path fill="#619440" d="M277.485 169.11c33.34 3.22 65.159-73.528 77.35-104.363 8.019-20.28 9.479-42.412 10.852-64.138-34.832 11.704-76.925 38.63-93.697 70.969-2.785 5.37-4.732 13.886-5.852 19.816-2.346 12.419-3.655 52.735-2.522 65.327.355 3.942-1.08 10.947 13.869 12.39" transform="translate(0 5.207)"/>
            <path fill="#306B34" d="M361.557 6.141c-.701-.607-1.768-.538-2.382.154-7.656 8.621-14.823 17.254-21.588 26.013-1.73-4.782-2.441-8.728-2.536-13.778-.018-.612-.527-1.102-1.15-1.09-.62.011-1.113.517-1.104 1.132.07 3.53.438 6.61 1.222 9.77.484 1.95 1.127 3.93 1.953 6.066-5.305 6.95-10.358 13.987-15.197 21.167-.278-2.746-.747-5.458-1.207-8.117-.516-2.976-.912-5.065-1.31-7.149-.397-2.096-.796-4.187-1.313-7.183-.104-.61-.688-1.01-1.3-.908-.613.103-1.026.677-.921 1.283.52 3.01.922 5.112 1.32 7.22.395 2.074.79 4.151 1.303 7.114.612 3.531 1.24 7.161 1.393 10.782-5.882 8.887-11.447 18.006-16.768 27.463l-5.226-17.114c-.822-2.695-1.678-5.487-1.764-8.308-.028-.604-.54-1.096-1.16-1.078-.622.02-1.111.531-1.092 1.144.052 1.728.35 3.398.755 5.028.326 1.31.719 2.593 1.107 3.857l5.862 19.2c-6.4 11.553-12.45 23.616-18.272 36.392-.162.352-.188.731-.101 1.08.12.482.454.906.947 1.125.852.377 1.85.003 2.233-.838 2.646-5.805 5.342-11.456 8.094-16.986h.005c6.03-.794 10.698-1.614 15.213-2.408 4.49-.789 9.134-1.606 15.118-2.393.616-.08 1.05-.64.967-1.249-.081-.598-.647-1.037-1.265-.955-6.032.794-10.7 1.615-15.213 2.41-4.107.72-8.352 1.465-13.621 2.19 3.544-7.03 7.185-13.86 10.952-20.515 7.26-1.535 13.552-2.9 19.84-4.267 6.48-1.407 12.964-2.814 20.513-4.407.607-.129.995-.719.866-1.32-.213-.595-.728-.984-1.337-.855-7.554 1.595-14.04 3.003-20.526 4.411-5.715 1.241-11.43 2.481-17.875 3.85 4.376-7.616 8.923-15.016 13.676-22.258.027-.025.048-.055.072-.082.219.076.462.09.7.018 12.296-3.693 21.577-5.673 34.242-7.308.617-.08 1.052-.638.97-1.247-.093-.623-.65-1.037-1.263-.958-12.222 1.577-21.328 3.476-32.946 6.895 4.377-6.562 8.929-13.002 13.687-19.36 8.838-3.802 13.76-4.489 22.967-4.497.622 0 1.126-.499 1.125-1.113.002-.614-.504-1.109-1.125-1.11-8.677.006-13.744.747-20.342 3.247 7.16-9.377 14.78-18.598 22.958-27.807.619-.69.547-1.744-.156-2.353" transform="translate(0 5.207)"/>
            <path fill="#FFDE8E" d="M337.836 144.447c-4.328 29.56-29.21 65.13-57.965 76.819-9.184 3.733-20.264 5.899-29.087 1.052-8.37-4.598-12.289-14.562-11.549-23.591.74-9.03 5.344-17.266 10.575-24.737 5.423-7.743 11.68-15.038 19.328-20.841 7.648-5.802 16.673-10.842 26.562-11.311 21.4-1.015 35.37 1.925 42.136 2.609" transform="translate(0 5.207)"/>
        </g>
        <g transform="translate(239 146.207)">
            <mask id="prefix__d" fill="#fff">
                <use xlink:href="#prefix__c"/>
            </mask>
            <path fill="#FFBF4D" d="M56.699.838c-9.889.469-18.913 5.509-26.561 11.311S16.233 25.247 10.81 32.99C5.579 40.461.975 48.698.235 57.727c-.486 5.931 1.038 12.267 4.515 17.22 1.815 2.585 94.086-71.5 94.086-71.5-5.787-.585-16.844-2.82-33.312-2.82-2.786 0-5.728.064-8.825.211" mask="url(#prefix__d)"/>
        </g>
        <path fill="#306B34" d="M357.66 199.01c0 2.642-2.14 4.782-4.78 4.782s-4.781-2.14-4.781-4.781c0-2.642 2.14-4.781 4.78-4.781 2.642 0 4.782 2.14 4.782 4.78"/>
        <g transform="translate(338 189.207)">
            <mask id="prefix__g" fill="#fff">
                <use xlink:href="#prefix__e"/>
            </mask>
            <path fill="url(#prefix__f)" d="M.919 3.627c0 1.743 1.413 3.156 3.156 3.156S7.23 5.37 7.23 3.627C7.23 1.885 5.818.472 4.075.472 2.332.472.919 1.885.919 3.627" mask="url(#prefix__g)"/>
        </g>
        <g transform="translate(347 184.207)">
            <mask id="prefix__j" fill="#fff">
                <use xlink:href="#prefix__h"/>
            </mask>
            <path fill="url(#prefix__i)" d="M.515 2.641c0 1.22.989 2.209 2.21 2.209 1.219 0 2.208-.989 2.208-2.209 0-1.22-.989-2.208-2.208-2.208-1.221 0-2.21.988-2.21 2.208" mask="url(#prefix__j)"/>
        </g>
        <g transform="translate(156 14.207)">
            <mask id="prefix__l" fill="#fff">
                <use xlink:href="#prefix__k"/>
            </mask>
            <path fill="#FFBF4D" d="M58.591 1.766C13.587 8.758 2.882 40.436 1.352 46.99c0 0-7.209 34.518 12.671 60.953 19.881 26.435 61.391 32.333 86.515 7.865 25.124-24.469 22.284-97.438 22.284-97.438S108.237.472 74.738.472c-4.962 0-10.34.392-16.147 1.294" mask="url(#prefix__l)"/>
        </g>
        <g>
            <path fill="#FFDE8E" d="M53.354 52.918c1.496.517 3.227-.562 3.865-2.408.638-1.846-.058-3.764-1.553-4.28L39.408 40.61 28.57 36.866c-1.496-.517-3.228.562-3.866 2.41-.638 1.845.058 3.763 1.554 4.28l10.838 3.745c3.528 1.22 5.54 5.052 5.319 9.326l-18.468-6.382c-1.496-.516-3.228.563-3.866 2.41-.638 1.845.058 3.763 1.554 4.28l18.468 6.381c-2.465 3.5-6.414 5.272-9.942 4.054l-10.838-3.745c-.352-.122-.734-.157-1.123-.104-.778.113-1.534.578-2.095 1.306-.558.72-.877 1.643-.882 2.555-.008.461.065.9.213 1.294l12.427 34.24c.305.84.885 1.407 1.579 1.647.693.24 1.5.151 2.255-.314 1.508-.94 2.24-3.06 1.635-4.73l-9.78-26.945 4.298 1.485c6.546 2.262 14.002-1.6 17.894-8.793l2.986 1.031c1.496.517 3.227-.562 3.865-2.408.638-1.846-.058-3.764-1.554-4.28l-2.985-1.033c.453-2.629.33-5.187-.193-7.554l5.49 1.896z" transform="translate(169 2.207)"/>
            <path fill="#FFDE8E" d="M1.024 119.943s.719.94 1.089 1.4c20.274 25.236 60.75 30.495 85.425 6.465 25.124-24.469 22.284-97.438 22.284-97.438l-21.41 28.62s-2.185 34.518-29.275 51.777c-32.978 21.01-58.113 9.176-58.113 9.176" transform="translate(169 2.207)"/>
            <path fill="#FFE2B7" d="M53.398 219.996c-.882-.471-1.217-1.567-.746-2.45l4.429-8.31c.47-.882 1.567-1.216 2.449-.746.883.47 1.217 1.567.747 2.449l-4.43 8.31c-.47.883-1.567 1.217-2.45.747" transform="translate(169 2.207)"/>
            <path fill="#7F786A" d="M60.43 228.697c-.334.369-.914.389-1.293.044l-9.215-8.374c-.486-.441-.456-1.206.06-1.582l1.614-1.51c.46-.43 1.186-.426 1.666.01 0 0-.413.93.353 1.827.62.727 1.369.377 1.818.043.217-.162.54-.085.675.168l4.45 8.354c.174.34.123.745-.127 1.02M96.433 80.26c-5.316 7.993-10.372 12.53-14.67 25.034-5.106 14.856.09 54.677.09 54.677l-27.43 53.927 9.52 5.685s38.627-38.747 45.92-53.006c2.642-5.165 10.451-21.38 15.178-40.59 3.602-14.632 5.517-18.112 7.227-32.148.674-5.532 1.294-15.915 1.294-15.915S98.98 81.717 96.434 80.26" transform="translate(169 2.207)"/>
            <path fill="#FFE2B7" d="M183.456 228.397c-.769.639-1.91.534-2.55-.235l-6.018-7.243c-.639-.77-.534-1.91.235-2.55.77-.64 1.911-.533 2.55.236l6.02 7.243c.638.769.532 1.91-.237 2.549" transform="translate(169 2.207)"/>
            <path fill="#A29C8F" d="M95.621 79.307c-2.435 5.375-14.419 9.395-16.604 33.426-1.786 19.654 47.19 63.138 47.19 63.138l47.553 54.472 6.846-8.448s-24.469-49.3-31.678-62.409c-9.123-16.587-25.343-58.55-25.343-58.55s3.36-25.446 2.622-26.362c-2.913 2.431-21.909.214-30.586 4.733" transform="translate(169 2.207)"/>
            <path fill="#7F786A" d="M192.095 220.62c.367.339.393.908.057 1.272l-8.15 8.85c-.43.467-1.181.42-1.557-.096l-1.503-1.62c-.43-.461-.433-1.173-.01-1.634 0 0 .92.427 1.797-.304.709-.592.356-1.335.022-1.783-.161-.216-.088-.532.16-.66l8.178-4.174c.333-.162.732-.102 1.006.15" transform="translate(169 2.207)"/>
            <path fill="#F5EFE4" d="M137.422 71.588c3.649.516 6.263-5.68 6.263-5.68l-13.912-27.915c-4.447-8.84-14.45-12.788-22.342-8.818 0 0 16.995 40.575 29.99 42.413" transform="translate(169 2.207)"/>
            <path fill="#F5EFE4" d="M133.744 78.762s-4.532 5.732-16.057 6.008c-18.243.437-22.292-2.64-23.013-4.443-2.33-5.825-8.979-29.335-8.979-29.335-1.582-7.867.728-18.176 9.182-19.876l15.644-3.146c8.454-1.701 15.835 5.049 18.706 14.472 2.343 7.694 4.517 36.32 4.517 36.32" transform="translate(169 2.207)"/>
            <path fill="#FFE2B7" d="M109.386 30.216c-1.434.237-2.79-.734-3.025-2.168l-.91-5.5c-.235-1.434.735-2.79 2.17-3.025 1.434-.237 2.788.734 3.025 2.168l.908 5.5c.237 1.434-.734 2.789-2.168 3.025" transform="translate(169 2.207)"/>
            <path fill="#FFC581" d="M105.47 22.65c-.247-1.49.716-2.891 2.15-3.127 1.434-.237 2.796.779 3.042 2.27l.644 3.9c.135.814-1.867.628-3.552-.4-1.104-.672-2.146-1.797-2.146-1.797l-.139-.846z" transform="translate(169 2.207)"/>
            <path fill="#FFE2B7" d="M100.386 14.193c.399-.251 1.529-.102 1.529-.102-.981-3.383.967-6.922 4.35-7.902 3.385-.981 6.386 1.122 7.367 4.506 0 0 1.524 5.044 1.602 5.71.51 4.362-.846 6.085-3.98 6.994-3.132.908-6.393-.698-7.64-3.625-.665.082-1.757-.787-2.603-2.13-.96-1.52-1.24-3.064-.625-3.451" transform="translate(169 2.207)"/>
            <path fill="#FFE2B7" d="M108.107 5.95s.187.007.28.015c2.464.21 4.475 2.076 5.245 4.73 0 0 1.524 5.043 1.602 5.71.335 2.865-.155 4.672-1.43 5.752-.832.706-1.812 1-1.812 1s2.533-2.974.223-9.707c-1.384-4.035-4.108-7.5-4.108-7.5" transform="translate(169 2.207)"/>
            <path fill="#FCBD30" d="M102.698 9.382c-.294.639 2.914.099 3.746 1.197.832 1.098-1.398 2.43-1.89 3.483-.21.449.44 2.52.068 2.6-.5.108-1.884-1.845-2.55-1.8-1.163.08.144 1.855 1.305 4.333 1.16 2.479-2.987 1.315-5.22-2.08-3.2-4.865-2.054-11.89 1.429-11.235 0 0 .863-4.498 4.374-4.821 2.13-.196 5.333.547 8.52.547 4.77 0 7.028-1.457 7.028-1.457s0 2.84-2.276 5.699c-2.431 3.055-6.288 3.074-7.742 3.242-3.028.348-6.546-.243-6.792.292" transform="translate(169 2.207)"/>
            <path fill="#FFE2B7" d="M103.887 16.258c.925 1.395 1.098 2.907.387 3.379-.711.472-2.07-.13-2.994-1.525-.925-1.394-1.067-3.053-.356-3.524.712-.473 2.038.275 2.963 1.67" transform="translate(169 2.207)"/>
            <path fill="#F5EFE4" d="M71.225 70.715s-4.387-2.883-3.64-7.574c1.406-8.825 15.508-25.473 22.96-30.361 9.1-5.968 5.794 13.842 5.794 13.842L71.225 70.715z" transform="translate(169 2.207)"/>
            <path fill="#FCC23F" d="M1.46 45.867c-.112 0-.112.175 0 .175.113 0 .114-.175 0-.175" transform="translate(169 2.207)"/>
            <path fill="#FFDE8E" d="M78.471 41.294s6.773-4.37 11.361-4.042c4.588.328 8.411 2.185 9.394 6.555.906 4.029 2.184 15.488-2.589 21.274-.75.91-.792 2.21.01 3.075 1.505 1.62 4.221 3.74 7.931 3.396l-.248 1.64c-.163 1.075.67 2.037 1.756 2.021 4.251-.06 13.89-1.168 17.171-9.67 0 0 8.298 1.316 11.258-7.642.23-.693.102-1.451-.298-2.063-3.21-4.906-18.585-27.148-39.033-36.063-19.958-8.703-16.713 21.519-16.713 21.519" transform="translate(169 2.207)"/>
            <path fill="#FFE2B7" d="M100.946 31.276s1.81-1.142 2.486-1.086c.516.043 1.736 1.133 1.736 1.133s-.349 4.485-1.309 5.247c-.458.365-1.673.254-2.576.105-.598-.098-1.009-.654-.924-1.255l.587-4.144z" transform="translate(169 2.207)"/>
            <path fill="#FFE2B7" d="M98.187 33.041c.494-.372 1.196-.272 1.567.222l1.7 2.26-.896.672-2.37-3.154zM102.263 27.998c-.617-.04-1.148.43-1.187 1.048l-.175 2.82 1.117.07.245-3.938z" transform="translate(169 2.207)"/>
            <path fill="#FFE2B7" d="M103.823 27.172c-.61-.097-1.195.393-1.306 1.092l-.505 3.198 1.106.174.705-4.464z" transform="translate(169 2.207)"/>
            <path fill="#FFE2B7" d="M104.725 27.564c-.61-.097-1.195.393-1.306 1.092l-.505 3.198 1.106.174.705-4.464z" transform="translate(169 2.207)"/>
            <path fill="#FFE2B7" d="M105.34 28.657c-.569-.047-1.078.486-1.137 1.192l-.27 3.225 1.216-1.532.19-2.885zM114.776 31.911l-.04.044c-.392.435-.357 1.105.078 1.497l2.143 1.932.453-.485-2.634-2.988zM102.057 34.971L100.111 37.217 101.828 38.592 103.847 36.258z" transform="translate(169 2.207)"/>
            <path fill="#E7E1D3" d="M101.257 40.912L102.751 38.562 99.898 36.159 97.523 38.542z" transform="translate(169 2.207)"/>
            <path fill="#E7E1D3" d="M103.923 44.061c.605 4.05-4.332 11.205-8.52 15.875-8.89 9.914-23.58 17.186-27.124 6.917-.563-1.63 28.13-30.086 28.13-30.086s6.916 3.292 7.514 7.294" transform="translate(169 2.207)"/>
            <path fill="#FCDCA4" d="M101.866 20.293c-1.495-.436-2.786-1.453-3.82-2.662-.99-1.252-1.723-2.717-2.127-4.282-.39-1.565-.513-3.222-.167-4.884.208-.824.501-1.676 1.144-2.423.615-.766 1.832-1.227 2.847-1.004l-.998.68c.238-1.075.6-2.01 1.18-2.925.57-.896 1.405-1.722 2.467-2.193 1.102-.478 2.234-.419 3.181-.347.986.078 1.93.211 2.868.344 1.872.28 3.703.517 5.564.492 1.854-.009 3.74-.22 5.502-.94-1.582 1.103-3.532 1.566-5.437 1.86-1.928.263-3.894.172-5.787.03-.947-.069-1.887-.168-2.795-.19-.93-.024-1.765.002-2.416.301-1.35.61-2.253 2.303-2.646 3.891l-.027.108c-.104.423-.532.681-.954.577l-.017-.005c-.97-.263-1.774.787-2.149 2.118-.329 1.333-.35 2.81-.116 4.241.251 1.433.762 2.827 1.508 4.103.765 1.258 1.854 2.36 3.195 3.11" transform="translate(169 2.207)"/>
        </g>
        <g transform="translate(265 50.207)">
            <mask id="prefix__o" fill="#fff">
                <use xlink:href="#prefix__m"/>
            </mask>
            <path fill="url(#prefix__n)" d="M7.414 9.533C5.957 17.398.648 20.156.648 20.156c3.641 4.733 7.93 3.396 7.93 3.396s.661-4.718.801-6.299C10.326 6.62 8.87.867 8.87.867s0 .801-1.456 8.666" mask="url(#prefix__o)"/>
        </g>
        <g transform="translate(280 37.207)">
            <mask id="prefix__r" fill="#fff">
                <use xlink:href="#prefix__p"/>
            </mask>
            <path fill="url(#prefix__q)" d="M.497.687s7.974 2.62 10.705 14.855 1.056 15.002 1.056 15.002 4.26.219 6.117-.874c1.857-1.092 4.042-2.949 4.042-2.949S17.629 14.754 11.93 7.386C7.871 2.138 3.034.686.61.686L.497.687" mask="url(#prefix__r)"/>
        </g>
        <g>
            <path fill="#FFE2B7" d="M272.089 5.166c-.064.565.343 1.075.908 1.138l2.583.29.115-1.022-3.606-.406z" transform="translate(7 32.207)"/>
            <path fill="#FFE2B7" d="M271.654 3.55c-.162.595.26 1.23.943 1.416l3.124.85.294-1.08-4.361-1.187z" transform="translate(7 32.207)"/>
            <path fill="#FFE2B7" d="M271.582 2.153c-.228.575.12 1.252.779 1.514l3.009 1.193.413-1.04-4.201-1.667z" transform="translate(7 32.207)"/>
            <path fill="#FFE2B7" d="M272.54 1.713c-.172.544.237 1.157.912 1.37l3.088.97-.79-1.313-3.21-1.027z" transform="translate(7 32.207)"/>
            <path fill="#FFE2B7" d="M274.372 6.177s-.5-1.377-.293-2.022c.158-.494 1.407-1.477 1.407-1.477s2.5.31 4.14 2.426c.333.43.228 1.095-.113 1.944-.225.563-1.278.742-1.79.548l-3.351-1.419z" transform="translate(7 32.207)"/>
            <path fill="#FFE2B7" d="M277.987 6.641L279.964 8.858 281.548 7.332 279.492 5.03z" transform="translate(7 32.207)"/>
            <path fill="#E7E1D3" d="M283.234 8.073L281.081 6.374 278.754 8.915 280.913 11.477z" transform="translate(7 32.207)"/>
            <path fill="#E7E1D3" d="M286.193 5.694c3.844-.05 9.584 6.23 12.865 10.767 6.968 9.631 11.252 25.208.839 25.202-4.407-.002-20.873-30.31-20.873-30.31s3.372-5.609 7.17-5.66" transform="translate(7 32.207)"/>
            <g transform="translate(7 32.207) translate(272 16)">
                <mask id="prefix__u" fill="#fff">
                    <use xlink:href="#prefix__s"/>
                </mask>
                <path fill="url(#prefix__t)" d="M3.2.048c2.458 3.638 4.171 7.951 4.275 12.51-.008 1.138-.084 2.269-.323 3.405-.301 1.158-.721 2.173-1.265 3.18-1.038 1.962-2.691 3.881-4.9 4.406 1.992-1.016 3.127-2.939 3.979-4.852.397-.968.788-2.008.97-2.986.179-1.018.243-2.083.228-3.135C6.107 8.325 4.744 4.16 3.2.048" mask="url(#prefix__u)"/>
            </g>
            <g transform="translate(7 32.207) translate(271 22)">
                <mask id="prefix__x" fill="#fff">
                    <use xlink:href="#prefix__v"/>
                </mask>
                <path fill="url(#prefix__w)" d="M4.099-.001C5.25 2.432 5.684 5.2 5.353 7.936c-.204 1.362-.594 2.729-1.337 3.926-.748 1.195-1.858 2.127-3.085 2.665.948-.972 1.657-2.017 2.182-3.145.483-1.153.774-2.37.941-3.619.193-1.247.205-2.53.205-3.822-.028-1.292-.061-2.604-.16-3.942" mask="url(#prefix__x)"/>
            </g>
            <path fill="#57575E" d="M138.913 21.687h-37.667c-2.93 0-5.306-2.375-5.306-5.306V5.471c0-2.932 2.376-5.307 5.306-5.307h37.667c2.931 0 5.306 2.375 5.306 5.306v10.911c0 2.931-2.375 5.306-5.306 5.306" transform="translate(7 32.207)"/>
            <path fill="#F6F7FB" d="M1.858 54.041h112.305c.538 0 .988.841 1.143 1.995H.715c.155-1.154.605-1.995 1.143-1.995" transform="translate(7 32.207)"/>
            <path fill="#57575E" d="M115.306 56.036c.037.276.062.563.062.867 0 1.58-.539 2.861-1.205 2.861H1.858c-.666 0-1.206-1.28-1.206-2.861 0-.304.026-.591.063-.867h114.591zM33.147 54.1h61.708c1.2 0 3.715-.705 4.163-1.781H28.983c.449 1.076 2.964 1.78 4.164 1.78" transform="translate(7 32.207)"/>
            <path fill="#5F7DFC" d="M63.533 20.719c0 .258.209.468.468.468.258 0 .467-.21.467-.468s-.21-.467-.467-.467c-.26 0-.468.209-.468.467" transform="translate(7 32.207)"/>
            <path fill="#5F7DFC" d="M63.684 21.035c.46.354.986-.172.632-.631-.46-.355-.986.17-.632.63" transform="translate(7 32.207)"/>
            <path fill="#A29C8F" d="M36.77 19.36H91.23c.704 0 1.273.57 1.273 1.273v31.685H35.496V20.633c0-.703.57-1.273 1.273-1.273" transform="translate(7 32.207)"/>
            <path fill="#FFF" d="M37.822 50.28L90.179 50.28 90.179 21.687 37.822 21.687z" transform="translate(7 32.207)"/>
            <path fill="#FFDE8E" d="M79.053 33.69L79.967 33.69 87.845 33.69 87.845 44.894 79.967 44.894 79.053 44.894 73.793 44.894 73.793 33.69z" transform="translate(7 32.207)"/>
            <path fill="#F7F8FC" d="M76.629 41.862L85.01 41.862 85.01 36.722 76.629 36.722z" transform="translate(7 32.207)"/>
        </g>
        <g transform="translate(86 69.207)">
            <mask id="prefix__A" fill="#fff">
                <use xlink:href="#prefix__y"/>
            </mask>
            <path fill="url(#prefix__z)" d="M0.453 2.259L3.186 3.558 3.186 0.961z" mask="url(#prefix__A)"/>
        </g>
        <g>
            <path fill="#FFDE8E" d="M37.446 65.69L47.346 65.69 47.346 70.754 37.446 70.754zM27.014 69.292L36.914 69.292 36.914 64.228 27.014 64.228zM16.582 69.292L26.482 69.292 26.482 64.228 16.582 64.228zM14.559 62.972L65.441 62.972 65.441 54.636 14.559 54.636z" transform="translate(31 .207)"/>
            <path fill="#F7F8FC" d="M56.085 60.528L62.402 60.528 62.402 57.257 56.085 57.257z" transform="translate(31 .207)"/>
            <path fill="#FFFEFF" d="M44.916 58.805L49.871 58.805 49.871 57.544 44.916 57.544zM16.271 58.805L44.083 58.805 44.083 57.544 16.271 57.544zM16.271 60.814L49.871 60.814 49.871 60.533 16.271 60.533z" transform="translate(31 .207)"/>
            <path fill="#EABBAB" d="M43.257 19.744c1.178 4.383.608 10.151-.731 11.857-.047.06-3.47.657-6.03 1.212l-10.027-.7c-.001-.084-.006-.168-.015-.25-.146-1.532-1.25-2.56-3.588-3.971 0 0-4.57-2.768-5.701-8.951-1.131-6.182.55-12.24 9.43-13.796 8.869-1.553 13.564.745 14.48 2.228 1.337 5.574 1.254 8.65 1.275 9.274 0 0 .74 2.474.907 3.097" transform="translate(31 .207)"/>
            <path fill="#EABBAB" d="M34.798 40.117c.952-2.761 2.065-6.066 2.491-7.642-.749-.3-9.276-3.62-9.276-3.62-1.623 4.546-3.395 7.658-4.879 9.723l11.664 1.538z" transform="translate(31 .207)"/>
            <path fill="#57575E" d="M36.256 19.006c.22 1.366.341 3.288.341 3.288l-.804.933-2.1-1.102s-.794 7.227-1.662 7.99c-2.107 1.85-5.515 1.037-5.515 1.037-2.005-1.414-8.4-4.72-9.974-12.319-.787-3.799-.565-9.62 2.721-12.84C24.49.871 32.133-.042 36.953 1.426c5.56 1.695 5.705 5.537 6.71 8.688 0 0 .238 4.223-7.407 8.892" transform="translate(31 .207)"/>
            <path fill="#EABBAB" d="M33.031 23.957c.422 2.155 1.388 4.727 3.063 4.813.31.043.446-5.4.318-6.519-2.057-3.659-3.81-.489-3.38 1.706M21.194 230.316v-6.741l4.595-43.335H13.375c-.252 13.59.119 41.78.119 41.78s-.94 6.848-1.507 8.296h9.206z" transform="translate(31 .207)"/>
            <path fill="#7F786A" d="M10.895 232.897s-1.09-1.71.82-6.204c.895-2.107 2.712-1.972 4.29-1.942 1.636.032 3.287.234 4.13 1.735 1.083 1.931 1.317.32 1.885 3.92.235 1.491.101 2.711-.23 2.616l.047 1.764h-11.36l-.053-1.727.471-.162z" transform="translate(31 .207)"/>
            <path fill="#A29C8F" d="M8.95 111.09l4.006 36.492c-.107 1.813-.227 3.626-.367 5.434-.871 11.29.223 31.343-.313 47.791h12.302l5.737-53.225L33.3 112.13 8.95 111.09z" transform="translate(31 .207)"/>
            <path fill="#7F786A" d="M23.177 205.684L16.435 206.054 11.358 204.068 11.509 194.03 26.445 195.959 25.243 203.508z" transform="translate(31 .207)"/>
            <path fill="#EABBAB" d="M42.637 179.323l7.946 3.229c0-.031.39-2.128.39-2.16.019-3.212 2.173-7.606 3.123-9.87 2.823-6.726 8.765-22.243 13.74-34.831l-12.29-4.381-12.91 48.013z" transform="translate(31 .207)"/>
            <path fill="#7F786A" d="M43.495 175.092l-2.35 6.197-.189-.078-.612 1.859 7.607 3.027.278-.844.24.589c.142.35.41.624.736.754l6.49 2.58.354-1.075c-.094-.046-.316-.102-.256-.304.125-.491.02-1.838-.556-2.677-.922-1.342-2.348-3.615-2.85-4.723-.504-1.108-.643-2.005-.643-2.005s-.815-.105-.888.626c-.075.744-1.359.506-2.634-.287-.714-.445-1.425-2.451-1.425-2.451-.344-1.145-2.928-2.478-3.302-1.188" transform="translate(31 .207)"/>
            <path fill="#A29C8F" d="M16.763 118.978l42.36-1.06c-1.897 3.361-2.866 5.993-3.692 8.78-1.18 3.981-2.102 7.678-2.905 11.084-1.151 4.865-2.04 9.132-3.036 12.766l11.643 4.905c6.768-12.15 17.17-36.72 18.759-46.962 1.117-7.178-6.75-11.12-12.697-12.202-6.87-1.259-29.343-1.675-29.012-1.675v-.086l-.894-2.42V89.031H4.965c-.786 2.847-1.264 5.616-1.452 8.254-.832 11.905 4.244 21.242 13.25 21.692" transform="translate(31 .207)"/>
            <path fill="#7F786A" d="M59.648 158.861L52.43 157.237 47.949 153.933 50.256 144.194 65.037 150.42 62.114 157.299zM52.526 137.782c3.829-7.431 9.905-14.763 17.407-22.03l-10.81 2.166c-1.897 3.361-2.866 5.993-3.692 8.78-1.18 3.98-2.102 7.678-2.905 11.085" transform="translate(31 .207)"/>
            <path fill="#EABBAB" d="M86.642 14.639s3.186-5.467 1.939-7.633c-.663-1.152-3.034 7.321-3.034 7.321l1.095.312zM88.701 21.092s-3.044-5.233-5.025-4.97c-1.013.135 1.997 3.044 2.607 5.633l2.418-.663zM89.145 15.02s3.593-1.017 3.662-2.398c.033-.666-4.382 1.23-4.382 1.23l.72 1.167z" transform="translate(31 .207)"/>
            <path fill="#EEC9BC" d="M72.923 38.466c5.313-4.268 10.19-8.742 12.98-12.643l-.566-11.131 2.048-2.826 4.134-3.674c1.987 1.173-2.928 4.753-2.928 4.753s3.954-2.285 4.301-2.12c1.152.547-3.385 3.344-3.385 3.344-.394 3.95 3.044 10.344 2.393 12.437-.44 1.415-1.907 2.24-2.663 2.606-2.919 4.62-6.633 8.772-10.158 12.799l-6.156-3.545z" transform="translate(31 .207)"/>
            <path fill="#F7F8FC" d="M14.51 41.489L1.071 69.603c-1.658 3.468.42 7.565 4.196 8.277l23.57 4.442L14.51 41.489z" transform="translate(31 .207)"/>
            <path fill="#DDC4AF" d="M14.51 41.489S1.49 77.168 5.267 77.879l23.57 4.443L14.51 41.489z" transform="translate(31 .207)"/>
            <path fill="#EAD5C1" d="M3.091 94.91c.678 2.758 15.512 4.159 26.882 2 2.973-.57 5.714-1.379 7.895-2.472l6.028-38.044 22.99-1.7c2.618-.838 4.02-1.378 6.037-3.247 6.492-7.553 11.885-14.663 16.825-22.46l-4.998-2.314C80.527 31.3 73.745 36.806 66.191 42.578c-5.466 2.264-21.81-1.768-23.686-2.61l-5.97-2.65-11.114-1.292c-8.704.431-14.173 6.885-15.403 18.006-.467 4.233-.422 19.688-6.927 40.879" transform="translate(31 .207)"/>
            <path fill="#FFF" d="M37.289 37.611L23.579 36.137 24.529 33.466 37.289 36.283z" transform="translate(31 .207)"/>
            <path fill="#DDC4AF" d="M29.17 97.055l.803-.146c2.973-.569 5.714-1.378 7.895-2.472l6.028-38.043c-3.884.107-7.038-.093-9.757-.983-.182 3.874 1.966 8.07 3.726 11.91 2.33 5.08.385 5.647-.675 7.578-1.059 1.924-.974 3.987-.729 6.09.24 2.102.895 1.645 0 5.103-.9 3.459 1.52 4.793-2.512 6.495-4.557 1.921-5.09 4.236-4.78 4.468" transform="translate(31 .207)"/>
            <path fill="#7F786A" d="M8.475 183.817l4.846-33.085h9.75v33.085H8.476zm17.19-33.085h9.752l4.845 33.085H25.665v-33.085zM3.4 214.79v22.68h1.788v-23.368c0-7.04.503-14.072 1.504-21.04l1.07-7.457H22.83v51.864H25.908v-51.864h15.066l1.07 7.456c1.002 6.97 1.505 14.001 1.505 21.041v23.367h1.788V214.79c0-7.26-.53-14.579-1.577-21.755l-6.432-44.092H25.665v-20.567h-2.593v20.567H11.409l-6.432 44.092C3.93 200.211 3.4 207.53 3.4 214.79z" transform="translate(31 .207)"/>
            <path fill="#57575E" d="M47.125 121.223v4.917c0 2.717-2.202 4.919-4.919 4.919H7.342c-2.71 0-4.927-2.217-4.927-4.927v-4.909h44.71z" transform="translate(31 .207)"/>
            <path fill="#F7F8FC" d="M47.125 119.266v1.957H2.415v-1.957c0-.4.326-.726.725-.726H46.4c.4 0 .725.327.725.726" transform="translate(31 .207)"/>
            <path fill="#FFE2B7" d="M82.464 44.423c.05.355.149.621.296.796.269.32.73.48 1.384.48.39 0 .709-.042.953-.127.463-.16.695-.462.695-.9 0-.258-.114-.457-.34-.597-.228-.137-.587-.258-1.08-.364l-.841-.184c-.827-.183-1.396-.382-1.705-.596-.524-.359-.786-.92-.786-1.683 0-.696.257-1.274.769-1.735.512-.46 1.265-.69 2.258-.69.829 0 1.536.217 2.122.651.586.434.892 1.064.92 1.89h-1.56c-.03-.467-.238-.799-.627-.996-.26-.13-.582-.195-.968-.195-.43 0-.771.084-1.027.253-.256.168-.384.404-.384.706 0 .278.126.485.379.623.162.091.506.198 1.032.321l1.364.322c.598.141 1.046.33 1.345.564.463.366.695.895.695 1.587 0 .711-.275 1.3-.824 1.77-.55.47-1.324.704-2.326.704-1.024 0-1.828-.23-2.415-.694-.586-.462-.88-1.097-.88-1.906h1.55zM88.702 46.823L88.702 39.05 90.316 39.05 90.316 42.013 93.337 42.013 93.337 39.05 94.951 39.05 94.951 46.823 93.337 46.823 93.337 43.353 90.316 43.353 90.316 46.823zM101.698 44.95c.378-.475.567-1.149.567-2.025 0-.871-.189-1.545-.567-2.021-.378-.478-.888-.716-1.532-.716-.643 0-1.156.238-1.54.712-.383.476-.574 1.15-.574 2.026 0 .875.191 1.55.574 2.024.384.475.897.712 1.54.712.644 0 1.154-.236 1.532-.712m1.015 1.181c-.587.605-1.436.907-2.547.907-1.11 0-1.96-.301-2.547-.906-.787-.742-1.18-1.81-1.18-3.206 0-1.425.393-2.494 1.18-3.207.587-.605 1.436-.907 2.547-.907 1.111 0 1.96.303 2.547.907.784.713 1.176 1.782 1.176 3.206 0 1.397-.392 2.465-1.176 3.207M109.323 40.658c-.206-.172-.494-.258-.864-.258h-1.464v2.288h1.464c.37 0 .658-.093.864-.28.206-.186.31-.481.31-.885 0-.405-.104-.693-.31-.865m1.24 2.8c-.455.38-1.105.57-1.95.57h-1.618v2.795h-1.614V39.05h3.338c.77 0 1.383.2 1.84.601.457.401.686 1.021.686 1.861 0 .918-.227 1.566-.682 1.946" transform="translate(31 .207)"/>
        </g>
    </g>
</svg>
