<svg xmlns="http://www.w3.org/2000/svg" xmlns:xlink="http://www.w3.org/1999/xlink" width="155" height="155" viewBox="0 0 155 155">
    <defs>
        <path id="prefix__c" d="M0 0.508L83.493 0.508 83.493 68.916 0 68.916z"/>
        <path id="prefix__e" d="M0 87.241L83.493 87.241 83.493 0 0 0z"/>
        <filter id="prefix__a" width="165.2%" height="165.2%" x="-32.6%" y="-19.6%" filterUnits="objectBoundingBox">
            <feOffset dy="15" in="SourceAlpha" result="shadowOffsetOuter1"/>
            <feGaussianBlur in="shadowOffsetOuter1" result="shadowBlurOuter1" stdDeviation="10"/>
            <feColorMatrix in="shadowBlurOuter1" values="0 0 0 0 1 0 0 0 0 0.699027652 0 0 0 0 0.0927210366 0 0 0 0.15 0"/>
        </filter>
        <circle id="prefix__b" cx="57.5" cy="57.5" r="57.5"/>
    </defs>
    <g fill="none" fill-rule="evenodd" transform="translate(20 5)">
        <use fill="#000" filter="url(#prefix__a)" xlink:href="#prefix__b"/>
        <use fill="#FFF" xlink:href="#prefix__b"/>
        <g transform="translate(16 14)">
            <g transform="translate(0 3.24)">
                <mask id="prefix__d" fill="#fff">
                    <use xlink:href="#prefix__c"/>
                </mask>
                <path fill="#816AE2" d="M73.87 68.916c6.008-7.232 9.623-16.524 9.623-26.662 0-23.056-18.69-41.746-41.747-41.746C18.69.508 0 19.198 0 42.254c0 10.137 3.614 19.43 9.623 26.66l64.246.002z" mask="url(#prefix__d)"/>
            </g>
            <path fill="#BEC8F7" d="M16.061 45.91v32.494c2.473 1.934 5.17 3.592 8.045 4.935h35.28c2.874-1.342 5.572-3 8.045-4.934V45.91h-51.37z"/>
            <path fill="#A8B7EF" d="M16.061 78.404c2.473 1.934 5.17 3.592 8.045 4.935h17.64V59.453c0-.334-.136-.654-.377-.885-2.006-1.929-1.099-3.777-.32-4.757.35-.438.344-1.064.002-1.509-1.809-2.344-.902-4.245-.093-5.253.263-.329.331-.756.21-1.139H16.061v32.494z"/>
            <path fill="#73C3F9" d="M30.525 85.713c3.571.994 7.333 1.527 11.221 1.527.117 0 .233-.003.35-.004V58.553h-11.57v27.16z"/>
            <path fill="#4FABF7" d="M42.096 69.51c-.1-.007-.198-.012-.298-.012-2.423 0-4.386 1.964-4.386 4.386 0 2.423 1.963 4.386 4.386 4.386.1 0 .199-.004.298-.011v-8.75z"/>
            <path fill="#9BD8F9" d="M41.746 87.24c3.888 0 7.65-.533 11.221-1.527v-27.16h-11.22V87.24z"/>
            <mask id="prefix__f" fill="#fff">
                <use xlink:href="#prefix__e"/>
            </mask>
            <path fill="#4B6BB2" d="M30.525 58.902L52.967 58.902 52.967 53.088 30.525 53.088z" mask="url(#prefix__f)"/>
            <path fill="#3C58A0" d="M41.307 53.088H30.525v5.814h11.09c-.063-.123-.145-.237-.246-.335-2.006-1.927-1.099-3.776-.32-4.755.168-.212.252-.467.258-.724" mask="url(#prefix__f)"/>
            <path fill="#BEC8F7" d="M74.011 25.886L41.747 6.797 9.482 25.886 9.482 36.466 74.011 36.466z" mask="url(#prefix__f)"/>
            <path fill="#A8B7EF" d="M41.746 6.797L9.481 25.886v10.58h31.81c.112-.303.101-.645-.035-.954-.385-.883.14-1.638.38-1.92.08-.092.143-.193.192-.303l7.282-16.404c.095-.216.116-.455.078-.689-.262-1.603.958-2.38 1.885-2.734.34-.13.59-.402.705-.73L41.746 6.797z" mask="url(#prefix__f)"/>
            <path fill="#E8F4FC" d="M52.819 85.753c2.403-.659 4.721-1.526 6.93-2.584V45.91h-6.93v39.843zM67.081 78.673c2.559-1.957 4.886-4.201 6.93-6.687V45.91h-6.93v32.763zM23.744 83.169c2.209 1.058 4.526 1.925 6.93 2.584V45.91h-6.93v37.259zM9.482 71.985c2.043 2.486 4.37 4.73 6.93 6.687V45.91h-6.93v26.075z" mask="url(#prefix__f)"/>
            <path fill="#D3DCFB" d="M52.819 45.91v10.43c0-1.896 1.536-3.432 3.431-3.432h.068c1.895 0 3.431 1.536 3.431 3.431V45.91h-6.93zM67.081 45.91v10.43c0-1.896 1.536-3.432 3.431-3.432h.068c1.895 0 3.431 1.536 3.431 3.431V45.91h-6.93zM23.744 45.91v10.43c0-1.896 1.535-3.432 3.43-3.432h.069c1.895 0 3.43 1.536 3.43 3.431V45.91h-6.93zM9.482 45.91v10.43c0-1.896 1.536-3.432 3.43-3.432h.068c1.896 0 3.43 1.536 3.43 3.431V45.91H9.482z" mask="url(#prefix__f)"/>
            <path fill="#E8F4FC" d="M76.041 27.392L41.746 7.102 7.451 27.392c-1.455.86-3.332.379-4.192-1.076-.86-1.455-.38-3.332 1.075-4.193L40.188.912c.961-.57 2.156-.57 3.117 0l35.853 21.21c1.455.862 1.937 2.74 1.076 4.194-.863 1.46-2.742 1.934-4.193 1.076" mask="url(#prefix__f)"/>
            <path fill="#D3DCFB" d="M43.305.911c-.961-.568-2.156-.568-3.117 0L4.335 22.123c-1.455.86-1.937 2.738-1.076 4.192.86 1.455 2.737 1.937 4.192 1.076l34.295-20.29 9.919 5.87c.144-.235.212-.515.18-.803-.375-3.269 2.355-3.86 3.373-3.966.1-.01.196-.037.29-.072L43.305.911z" mask="url(#prefix__f)"/>
            <path fill="#E8F4FC" d="M77.6 42.324H5.893c-1.69 0-3.06-1.37-3.06-3.06s1.37-3.06 3.06-3.06H77.6c1.69 0 3.06 1.37 3.06 3.06s-1.37 3.06-3.06 3.06" mask="url(#prefix__f)"/>
            <path fill="#D3DCFB" d="M41.36 36.203H5.892c-1.69 0-3.06 1.37-3.06 3.061 0 1.69 1.37 3.06 3.06 3.06h35.31c.045-.34-.054-.696-.29-.97-1.65-1.917-.635-3.634.16-4.519.161-.182.256-.402.286-.632M41.746 0c-1.69 0-3.06 1.37-3.06 3.061v4.336c0 1.691 1.37 3.061 3.06 3.061 1.691 0 3.061-1.37 3.061-3.06V3.06c0-1.69-1.37-3.06-3.06-3.06" mask="url(#prefix__f)"/>
            <path fill="#BEC8F7" d="M41.746 5.714c-1.622 0-2.945-1.262-3.05-2.857-.005.068-.01.135-.01.204v4.337c0 1.69 1.37 3.06 3.06 3.06 1.691 0 3.061-1.37 3.061-3.06V3.061c0-.069-.006-.136-.01-.204-.106 1.595-1.429 2.857-3.05 2.857" mask="url(#prefix__f)"/>
            <path fill="#D3DCFB" d="M5.97 42.15v2.18c0 1.062.869 1.93 1.93 1.93h67.693c1.06 0 1.929-.868 1.929-1.93v-2.18H5.97z" mask="url(#prefix__f)"/>
            <path fill="#BEC8F7" d="M41.211 42.15H5.971v2.18c0 1.062.868 1.93 1.93 1.93h33.324c-.004-.264-.092-.526-.266-.745-.845-1.059-.472-2.004.006-2.62.17-.22.25-.483.246-.745" mask="url(#prefix__f)"/>
            <path fill="#73C3F9" d="M41.798 69.498l-.052.001v8.77l.052.001c2.422 0 4.386-1.963 4.386-4.386 0-2.422-1.964-4.386-4.386-4.386" mask="url(#prefix__f)"/>
            <path fill="#FFC839" d="M41.798 14.94c4.636 0 8.394 3.758 8.394 8.394s-3.758 8.395-8.394 8.395-8.394-3.76-8.394-8.395c0-4.636 3.758-8.393 8.394-8.393" mask="url(#prefix__f)"/>
            <path fill="#FFB332" d="M41.746 23.334c-4.123-2.307 0-4.424 0-4.424v-2.373c-.348-.348 0-.719 0-.719-.391-.284-.612-.569-.718-.84-4.269.388-7.625 3.987-7.625 8.356 0 4.427 3.445 8.062 7.795 8.37.18-.524.599-.853.599-.853-.346-.347 0-.72 0-.72l.408-1.764c.001 0 3.664-2.726-.459-5.033" mask="url(#prefix__f)"/>
            <path fill="#FF9100" d="M44.666 19.816c.322 0 .584-.262.584-.584 0-.322-.262-.584-.584-.584h-5.839c-.323 0-.584.262-.584.584 0 .322.26.584.584.584h2.335c.76 0 1.403.489 1.645 1.168h-3.98c-.323 0-.584.261-.584.583 0 .323.26.584.584.584h3.98c-.242.678-.884 1.169-1.645 1.169h-2.335c-.076 0-.152.014-.223.043-.143.06-.257.174-.317.317-.06.143-.06.303 0 .447.029.072.073.136.128.19l4.67 4.67c.114.114.264.172.413.172.15 0 .299-.058.414-.171.227-.229.227-.598 0-.825l-3.676-3.677h.926c1.41 0 2.59-1.003 2.86-2.335h.644c.322 0 .584-.261.584-.584 0-.322-.262-.584-.584-.584h-.643c-.088-.434-.282-.826-.54-1.168h1.183z" mask="url(#prefix__f)"/>
            <path fill="#FFDD40" d="M41.746 15.819c-4.144 0-7.516 3.37-7.516 7.515s3.372 7.517 7.516 7.517 7.516-3.372 7.516-7.517c0-4.145-3.372-7.515-7.516-7.515m0 17.654c-5.59 0-10.14-4.549-10.14-10.139 0-5.59 4.55-10.14 10.14-10.14 5.591 0 10.14 4.55 10.14 10.14 0 5.59-4.549 10.14-10.14 10.14" mask="url(#prefix__f)"/>
            <path fill="#FFC839" d="M41.746 13.194c-5.59 0-10.14 4.55-10.14 10.14 0 5.59 4.55 10.14 10.14 10.14-1.446-1.447.052-2.624.052-2.624l-.002-.002-.05.002c-4.144 0-7.516-3.372-7.516-7.516 0-4.145 3.372-7.516 7.516-7.516-1.794-1.303 0-2.624 0-2.624" mask="url(#prefix__f)"/>
        </g>
    </g>
</svg>
