<svg xmlns="http://www.w3.org/2000/svg" xmlns:xlink="http://www.w3.org/1999/xlink" width="351" height="242" viewBox="0 0 351 242"><defs/><defs><path id="a" d="M17.2 21.4l-.5 2c-.4 2.3.2 4.8 1.7 6.6a7.2 7.2 0 006 2.5c-6 1-9-2-13-6.7l-4 11.4c-.4 1-.7 1.9-.7 2.8.1 1.9 1.5 3.3 2.8 4.5L4.7 44C5 48 3.4 51.7 2 55.4A20.3 20.3 0 00.4 67c.7 3 2.7 5.4 4.8 7.5 1 1 1.9 1.8 3 2.6a5.3 5.3 0 006 0c1-.7 2.2-1.3 3.5-1.7 2.7-.7 1.5 5.6 4.1 6.6 2.6 1 5.4.6 8.2.1 2-.3 4.1-.6 5.9-1.9 2-1.4 3-3.9 4-6.2l3.2-7.5c.7-1.7 1.5-3.6 1.2-5.4-.2-1.8-1.9-3.5-3.6-3l4.4-1.7 1.1-15.2c0-1 .1-2-.3-2.8-.8-1.5-2.8-1.5-4.5-1.3-1.6.2-3.6.1-4.4-1.4 2.6-.7 5.5-1.6 7.1-4 1-1.5 1.4-3.4 1.5-5.2a38 38 0 00-8.7-25C36.5.8 35 0 35 0a37 37 0 00-17.9 21.3"/><path id="d" d="M19.2 21.4l-.5 2c-.4 2.3.2 4.8 1.7 6.6a7.2 7.2 0 006 2.5c-6 1-9-2-13-6.7l-4 11.4c-.4 1-.7 1.9-.7 2.8.1 1.9 1.5 3.3 2.8 4.5L6.7 44C7 48 2.3 52.5 1 56.2-.4 60-.2 63.2.8 67c.7 3 4.3 5.3 6.4 7.4 1 1 1.9 1.8 3 2.6a5.3 5.3 0 006 0c1-.7 2.2-1.3 3.5-1.7h.7L37 0a37 37 0 00-17.9 21.3"/><path id="g" d="M84.5.5c-2.1.4-4 1.7-5.7 3-4.8 4-8.4 9.7-9.9 15.8-.2.8-.8 1.6-1.6 1.8-1.5.3-2.3-1.2-2.1-2.4.1-1 .7-2 1-3 1.5-4.6-3.8-10.7-9.7-6.4-1 .8-1.9 1.8-2.2 3.1-.4 1.5-.4 2.8-.4 4.3 0 1.9.3 2.2-1.2 3.6-.9.8-2.2 1-3.2.5-1.8-1-1.9-1.3-2.3-3.2a7.5 7.5 0 00-9-5.4c-4.2 1.2-6.7 6.6-4.4 10.5.5.8.7 1.7.5 2.6-.6 1.9-2.5 1.6-3.5.7-.8-.7-1.1-1.7-1.6-2.6-1.8-3.4-5.3-6-9-6-3.9 0-9.8 5-12 8.1-4.1 6.1-6.2 9-7.3 13-.8 2.8.8 10.6 2.6 12 2 1.4 21.1 4.3 32.7 5.8 2.3.3 7-.1 8.8-1.7 1.8-1.6 2.3-4.6.8-6.4-1.4-1.7-4-3-2.6-4.4.9-.8 2.5.3 3.3 1 2.5 2.1 2.1 2.4 4.6 4.5 3 2.6 7.6 4 10.5.5.9-1 1.3-2.5 1.4-3.9 0-2-.6-3.7-1.6-5.2-.5-.8.3-1.6 1-1.1a98 98 0 007.8 4.2c2.4 1.2 5 2.3 7.8 2 2.7-.1 5.5-2 5.8-4.7.2-1.9-.8-3.7-2.3-4.8a9 9 0 00-5.2-1.6c-1 0-1.9 0-2.7-.3-1-.3-1.7-1-1.7-2 .1-1 1.1-1.6 2-1.8 1 0 2 .3 3 .6 4.5 1.3 9.4 1.3 14 0 1.7-.4 3.3-1 4.5-2.3 1.3-1.1 2-2.9 1.6-4.5-.6-2.6-3.7-3.8-6.4-3.7-2.6.2-5.2 1.3-7.8 1.4-1.8 0-4-.7-3.7-2.7.1-1 .8-1.9 1.7-2.3 3.5-1.5 7.3-3 9.6-6 2-2.6 2.5-6.8.1-9.2A6.2 6.2 0 0086.2.3c-.6 0-1.2 0-1.7.2"/><path id="i" d="M67.3 1c-1.1.7-2.5 1-3.7 1.1-2.4.3-5 .4-6.9 2-.7.7-1.2 1.5-2 2.2-.7.6-1.8 1-2.6.5-.6-.4-.7-1.2-.4-1.8.2-.3 0-.8-.4-.9-2.7-.8-6.2 1.4-5.9 4.6.1.7 0 1.4-.2 2-1.6 3.2-4.3 1-4.3-1 0-1 .5-2 1.1-3 .3-.4 0-1-.6-1-2.8-.3-5.8 2.6-4.8 5.7.2.7.4 1.5.2 2.2-.7 2.6-3.5 1.5-4-.2-.3-1-.2-2 0-2.9.3-.7-.2-1.5-1-1.5-1.3 0-2.5.3-3.6 1a5.4 5.4 0 00-2.5 4.5c0 1.2.5 2.3.8 3.4.4 1.4.5 2.9-.4 4-.6.7-1.5 1-2.3.6-1.2-.5-1.2-2-1-3.3l.6-5.3c0-.6-.5-1-1-.9-2.3.7-4.5 1.5-6.3 3-2.1 1.8-3.5 4.7-2.5 7.3.5 1.5 1.8 2.7 2.3 4.3.2.5.2 1 .1 1.5-.2 1.5-2.3 1.8-3 .5-1-2-1.7-4.2-1.9-6.4 0-.7-.7-1-1.2-.6-1 .8-2 1.7-2.6 2.8-1 1.5-1.3 3.5-.4 5 1 2 3.6 2.7 4.2 5 .2 1-.2 2-1.1 2.4-1.4.6-2.7-1-3.1-2.3-.3-1-.6-2-1.1-2.8a1 1 0 00-1.5 0c-1 1-1.8 2.2-2.3 3.5-.6 2 0 4.7 2.4 5.2.6.1 1.2.4 1.7.9 1.6 1.7-.6 3.3-2.2 2.8A4 4 0 012 43.6a.6.6 0 00-1 .3 30 30 0 002 15.3l.3 1.2c2.5-.6 5.9-1.2 7.4-3.3.3-.4.2-.9-.1-1.2-1-1-2.3-2.8-2.2-3.7 0-1 1-2 2-2.1 1 0 5 4.3 6 4.7 1.5.7 4.4-3 5.8-4.7a.9.9 0 00-.4-1.3c-2-.8-5-2.4-6.3-2.7-1-.3-2-.6-2.2-1.7 0-.7.5-1.4 1.2-1.7 1.3-.4 2.5.2 3.6.8 0 0 5.3 3.7 7.9 3.6 3 0 4.2-.8 6.5-2.3.4-.3.7-.8.6-1.3a8.1 8.1 0 00-8.4-6.1c-1.4 0-3 .5-4-.5-.9-.9-.8-2.3 0-3.2 1.2-1.4 3.3-1.3 4.8-.5 1.3.7 2.4 1.9 3.4 3 1 1 2 2.2 3.4 2.8 2.1.8 4.5.4 6.5-.7s3.5-2.7 5-4.4c.4-.4.9-1 .8-1.6 0-.8-1-1.2-1.8-1.4l-8.4-2.6c-.7-.2-1.4-.4-2-.9-.8-.6-1.4-1.8-.6-2.9.4-.5 1-.8 1.6-.9 1.4-.1 2.7.6 3.8 1.4 3 1.9 5.6 4.6 9 5.7.5.1 2.6-1.4 3.4-2.3 3.6-4 4.9-5.4-.4-6l-4.5-1c-1.1-.2-2.4-.5-2.6-1.7-.2-1 .4-1.8 1.2-2.1 1.6-.6 3 .2 4.4 1 1.4.9 2.8 1.8 4.4 2.2 1.6.5 3.4.5 4.8-.5.6-.4 1-1.1 1.3-1.8.3-.8-.6-1.5-1.3-1.2-1 .5-2.4.2-3.5-.6-1-.7-1.4-2-.7-3l1-.9c2.5-1.7 3 1.6 6.1 2.1 1.7.3 3.5-.6 4.1-2 .3-.7-.5-1.5-1.2-1.1-.5.2-1.2.1-1.6-.4-.5-.6-.5-1.4 0-2 .3-.4 1-.7 1.5-1 2.6-1.3 4.7-3.5 6-6.2.2-.6-.3-1.2-.9-1.2h-.4"/><path id="k" d="M2.2 2.5a6.4 6.4 0 00-2 4.6c0 3.5 2.9 6.4 6.4 6.5h.1a6.5 6.5 0 006.5-6.3c0-3.6-2.8-6.5-6.4-6.6h-.1c-1.7 0-3.3.7-4.5 1.8m4.5 9.2A4.6 4.6 0 012 7.1a4.6 4.6 0 014.6-4.5c2.6 0 4.7 2.1 4.7 4.6 0 1.3-.5 2.4-1.4 3.2-.9.9-2 1.3-3.2 1.3h-.1"/><path id="n" d="M1 4.7C.8 7.2 2.8 9.4 5.5 9.5c2.7.2 5-1.7 5-4.2C10.8 2.8 8.8.6 6.2.4a4.7 4.7 0 00-5 4.3"/><path id="q" d="M3.7 1A3 3 0 00.7 4a3 3 0 003.1 3 3 3 0 003-3.1 3 3 0 00-3-3"/><path id="t" d="M0 .4h80.8v36.4H0z"/><linearGradient id="b" x1="100%" x2="0%" y1="50%" y2="50%"><stop offset="0%" stop-color="#FFB218"/><stop offset="100%" stop-color="#FFCF44"/></linearGradient><linearGradient id="e" x1="55.2%" x2="43.3%" y1="-4%" y2="100%"><stop offset="0%" stop-color="#FFB218"/><stop offset="100%" stop-color="#FFCF44"/></linearGradient><linearGradient id="l" x1="100%" x2="0%" y1="50%" y2="50%"><stop offset="0%" stop-color="#FFB218"/><stop offset="100%" stop-color="#FFCF44"/></linearGradient><linearGradient id="o" x1="100%" x2="0%" y1="50%" y2="50%"><stop offset="0%" stop-color="#FFB218"/><stop offset="100%" stop-color="#FFCF44"/></linearGradient><linearGradient id="r" x1="100%" x2="0%" y1="50%" y2="50%"><stop offset="0%" stop-color="#FFB218"/><stop offset="100%" stop-color="#FFCF44"/></linearGradient></defs><g fill="none" fill-rule="evenodd"><g transform="translate(234 39.3)"><mask id="c" fill="#fff"><use xlink:href="#a"/></mask><path fill="url(#b)" d="M17.2 21.4l-.5 2c-.4 2.3.2 4.8 1.7 6.6a7.2 7.2 0 006 2.5c-6 1-9-2-13-6.7l-4 11.4c-.4 1-.7 1.9-.7 2.8.1 1.9 1.5 3.3 2.8 4.5L4.7 44C5 48 3.4 51.7 2 55.4A20.3 20.3 0 00.4 67c.7 3 2.7 5.4 4.8 7.5 1 1 1.9 1.8 3 2.6a5.3 5.3 0 006 0c1-.7 2.2-1.3 3.5-1.7 2.7-.7 1.5 5.6 4.1 6.6 2.6 1 5.4.6 8.2.1 2-.3 4.1-.6 5.9-1.9 2-1.4 3-3.9 4-6.2l3.2-7.5c.7-1.7 1.5-3.6 1.2-5.4-.2-1.8-1.9-3.5-3.6-3l4.4-1.7 1.1-15.2c0-1 .1-2-.3-2.8-.8-1.5-2.8-1.5-4.5-1.3-1.6.2-3.6.1-4.4-1.4 2.6-.7 5.5-1.6 7.1-4 1-1.5 1.4-3.4 1.5-5.2a38 38 0 00-8.7-25C36.5.8 35 0 35 0a37 37 0 00-17.9 21.3" mask="url(#c)"/></g><g transform="translate(232 39.3)"><mask id="f" fill="#fff"><use xlink:href="#d"/></mask><path fill="url(#e)" d="M19.2 21.4l-.5 2c-.4 2.3.2 4.8 1.7 6.6a7.2 7.2 0 006 2.5c-6 1-9-2-13-6.7l-4 11.4c-.4 1-.7 1.9-.7 2.8.1 1.9 1.5 3.3 2.8 4.5L6.7 44C7 48 2.3 52.5 1 56.2-.4 60-.2 63.2.8 67c.7 3 4.3 5.3 6.4 7.4 1 1 1.9 1.8 3 2.6a5.3 5.3 0 006 0c1-.7 2.2-1.3 3.5-1.7h.7L37 0a37 37 0 00-17.9 21.3" mask="url(#f)"/></g><g transform="translate(246 181.3)"><mask id="h" fill="#fff"><use xlink:href="#g"/></mask><path fill="#FFDE8E" d="M84.5.5c-2.1.4-4 1.7-5.7 3-4.8 4-8.4 9.7-9.9 15.8-.2.8-.8 1.6-1.6 1.8-1.5.3-2.3-1.2-2.1-2.4.1-1 .7-2 1-3 1.5-4.6-3.8-10.7-9.7-6.4-1 .8-1.9 1.8-2.2 3.1-.4 1.5-.4 2.8-.4 4.3 0 1.9.3 2.2-1.2 3.6-.9.8-2.2 1-3.2.5-1.8-1-1.9-1.3-2.3-3.2a7.5 7.5 0 00-9-5.4c-4.2 1.2-6.7 6.6-4.4 10.5.5.8.7 1.7.5 2.6-.6 1.9-2.5 1.6-3.5.7-.8-.7-1.1-1.7-1.6-2.6-1.8-3.4-5.3-6-9-6-3.9 0-9.8 5-12 8.1-4.1 6.1-6.2 9-7.3 13-.8 2.8.8 10.6 2.6 12 2 1.4 21.1 4.3 32.7 5.8 2.3.3 7-.1 8.8-1.7 1.8-1.6 2.3-4.6.8-6.4-1.4-1.7-4-3-2.6-4.4.9-.8 2.5.3 3.3 1 2.5 2.1 2.1 2.4 4.6 4.5 3 2.6 7.6 4 10.5.5.9-1 1.3-2.5 1.4-3.9 0-2-.6-3.7-1.6-5.2-.5-.8.3-1.6 1-1.1a98 98 0 007.8 4.2c2.4 1.2 5 2.3 7.8 2 2.7-.1 5.5-2 5.8-4.7.2-1.9-.8-3.7-2.3-4.8a9 9 0 00-5.2-1.6c-1 0-1.9 0-2.7-.3-1-.3-1.7-1-1.7-2 .1-1 1.1-1.6 2-1.8 1 0 2 .3 3 .6 4.5 1.3 9.4 1.3 14 0 1.7-.4 3.3-1 4.5-2.3 1.3-1.1 2-2.9 1.6-4.5-.6-2.6-3.7-3.8-6.4-3.7-2.6.2-5.2 1.3-7.8 1.4-1.8 0-4-.7-3.7-2.7.1-1 .8-1.9 1.7-2.3 3.5-1.5 7.3-3 9.6-6 2-2.6 2.5-6.8.1-9.2A6.2 6.2 0 0086.2.3c-.6 0-1.2 0-1.7.2" mask="url(#h)"/></g><path fill="#619440" d="M278.9 135.5c2-12.3 8.7-23.8 18.9-31.9 6.1-4.9 13.5-8.7 21.4-10.9.2-6.7 6-12.8 12.8-13.3.1-.7.8-1.3 1.6-1.6.5-.1 1.3 0 1.6.5.4.6.6 1.3.6 2s-.7 1-1.3 1l-.6-.1a1.6 1.6 0 01-1.8-1c-3 .9-5.6 1.9-8 4a12 12 0 00-3.7 8.2h.2l.3-.1c1.2-2 3.6-3.7 5.5-4.8 1.8-1 4-2 6.2-2.3 0-.5.1-1 .4-1.3.4-.5 1.1-.5 1.6-.2h.1c.6.3 1 1 1.1 1.4.3.5 0 1.1-.7 1.4l-.6.2c-.6.2-1 0-1.4-.4l-.3-.3c-2.2.8-4.3 1.4-6.3 2.7-1.2.8-2.3 1.7-3.3 2.7l-.4.4c3.4-.7 6.9-1.1 10.4-1.2 0-.4.4-.8 1-1h.6c.3 0 .5.1.8.3 1.1.7.5 2.4-.8 2.6-1 .2-1.5-.5-1.6-1.3-3.5.4-6.8 1-10.2 1.7l3.5.8c2.4.4 4.8.7 7.1 1.3l.2-.3c.3-.3.7-.4 1.1-.4h.1c1 .3 1.2 1.6.7 2.3-.3.5-1 .8-1.6.3-.4-.3-.6-.7-.6-1.1-2.3 0-4.6-.6-6.9-1l-4.2-.6a15 15 0 003.7 3.2c2 1.3 4 2 6 2.8 0-.6.6-1.1 1.2-1.2.5 0 1 .2 1.2.6l.5.8c.1.5 0 1-.5 1.3-.4.3-1 .3-1.5 0l-.5-.7c-2.5 0-5.1-1.5-7.1-2.8-1.5-1-3.5-2.5-4.5-4.3-.2.1-.4 0-.5-.1v.3c.4 3.7 2.6 7 5.8 8.8a15 15 0 007.7 1.8c0-.3.1-.7.4-1 .6-.6 1.8-.5 2.1.3v.1c.4.2.7.5.8 1 .3.7 0 1.5-1 1.8-.8.2-1.6-.4-2-1.2-6.7 1.5-14-4.4-15-11V94a55 55 0 00-33.7 26.4 46.8 46.8 0 00-5.4 33c0 .3-.2.4-.3.2-2.3-6.8-2-11.1-.9-18"/><g transform="translate(262 112.3)"><mask id="j" fill="#fff"><use xlink:href="#i"/></mask><path fill="#FFBF4D" d="M67.3 1c-1.1.7-2.5 1-3.7 1.1-2.4.3-5 .4-6.9 2-.7.7-1.2 1.5-2 2.2-.7.6-1.8 1-2.6.5-.6-.4-.7-1.2-.4-1.8.2-.3 0-.8-.4-.9-2.7-.8-6.2 1.4-5.9 4.6.1.7 0 1.4-.2 2-1.6 3.2-4.3 1-4.3-1 0-1 .5-2 1.1-3 .3-.4 0-1-.6-1-2.8-.3-5.8 2.6-4.8 5.7.2.7.4 1.5.2 2.2-.7 2.6-3.5 1.5-4-.2-.3-1-.2-2 0-2.9.3-.7-.2-1.5-1-1.5-1.3 0-2.5.3-3.6 1a5.4 5.4 0 00-2.5 4.5c0 1.2.5 2.3.8 3.4.4 1.4.5 2.9-.4 4-.6.7-1.5 1-2.3.6-1.2-.5-1.2-2-1-3.3l.6-5.3c0-.6-.5-1-1-.9-2.3.7-4.5 1.5-6.3 3-2.1 1.8-3.5 4.7-2.5 7.3.5 1.5 1.8 2.7 2.3 4.3.2.5.2 1 .1 1.5-.2 1.5-2.3 1.8-3 .5-1-2-1.7-4.2-1.9-6.4 0-.7-.7-1-1.2-.6-1 .8-2 1.7-2.6 2.8-1 1.5-1.3 3.5-.4 5 1 2 3.6 2.7 4.2 5 .2 1-.2 2-1.1 2.4-1.4.6-2.7-1-3.1-2.3-.3-1-.6-2-1.1-2.8a1 1 0 00-1.5 0c-1 1-1.8 2.2-2.3 3.5-.6 2 0 4.7 2.4 5.2.6.1 1.2.4 1.7.9 1.6 1.7-.6 3.3-2.2 2.8A4 4 0 012 43.6a.6.6 0 00-1 .3 30 30 0 002 15.3l.3 1.2c2.5-.6 5.9-1.2 7.4-3.3.3-.4.2-.9-.1-1.2-1-1-2.3-2.8-2.2-3.7 0-1 1-2 2-2.1 1 0 5 4.3 6 4.7 1.5.7 4.4-3 5.8-4.7a.9.9 0 00-.4-1.3c-2-.8-5-2.4-6.3-2.7-1-.3-2-.6-2.2-1.7 0-.7.5-1.4 1.2-1.7 1.3-.4 2.5.2 3.6.8 0 0 5.3 3.7 7.9 3.6 3 0 4.2-.8 6.5-2.3.4-.3.7-.8.6-1.3a8.1 8.1 0 00-8.4-6.1c-1.4 0-3 .5-4-.5-.9-.9-.8-2.3 0-3.2 1.2-1.4 3.3-1.3 4.8-.5 1.3.7 2.4 1.9 3.4 3 1 1 2 2.2 3.4 2.8 2.1.8 4.5.4 6.5-.7s3.5-2.7 5-4.4c.4-.4.9-1 .8-1.6 0-.8-1-1.2-1.8-1.4l-8.4-2.6c-.7-.2-1.4-.4-2-.9-.8-.6-1.4-1.8-.6-2.9.4-.5 1-.8 1.6-.9 1.4-.1 2.7.6 3.8 1.4 3 1.9 5.6 4.6 9 5.7.5.1 2.6-1.4 3.4-2.3 3.6-4 4.9-5.4-.4-6l-4.5-1c-1.1-.2-2.4-.5-2.6-1.7-.2-1 .4-1.8 1.2-2.1 1.6-.6 3 .2 4.4 1 1.4.9 2.8 1.8 4.4 2.2 1.6.5 3.4.5 4.8-.5.6-.4 1-1.1 1.3-1.8.3-.8-.6-1.5-1.3-1.2-1 .5-2.4.2-3.5-.6-1-.7-1.4-2-.7-3l1-.9c2.5-1.7 3 1.6 6.1 2.1 1.7.3 3.5-.6 4.1-2 .3-.7-.5-1.5-1.2-1.1-.5.2-1.2.1-1.6-.4-.5-.6-.5-1.4 0-2 .3-.4 1-.7 1.5-1 2.6-1.3 4.7-3.5 6-6.2.2-.6-.3-1.2-.9-1.2h-.4" mask="url(#j)"/></g><path fill="#619440" d="M258.6 224.4c5.5-3.9 12-11.4 17.6-13.8 1.5-.6 4.4-1.3 5.9-2 1.4-.9 2.6-2.5 2.3-4.1-.3-1.7-2.7-3.6-2.7-3.6-1.5-1.2 0-3.6 1.7-2.9l8.9 3.7c1.6.6 3.3 1.3 5 1.3 1.7 0 3.6-.8 4.4-2.4 1-2-.2-4.4-1.8-6-1.8-1.8-4.2-3.2-5.3-5.7a4.2 4.2 0 010-3.6c1-2 3.4-2 5.1-1.1 1.3.6 2.3 1.7 3.3 2.6 3 2.7 6.8 4.7 10.8 5.7 2.4.5 5 .8 7-.8 1-.8 1.7-2.1 1.5-3.4-.3-2.5-3-3.3-5-4.4-2-1-.6-4 1.4-3.2 5 2 10 3.7 15 5 2.6.6 5.3 1.1 7.6-.4 1.1-.7 1.9-2 1.8-3.2-.2-2-1.9-3-3.5-3.6l-6-2.8c-1.1-.5-.9-2.1.3-2.2l4.3-.5c3.1-.3 6.3-.7 9-2.4 2.6-1.7 4.4-5.2 3.1-8-.8-2-2.9-3.3-5-3.7-2-.3-4.3 0-6.3.7-5.8 1.6-11.2 4.5-16.6 7.2-1.6.8-3.9 1.3-4.7-.2-.7-1.2.2-2.6 1.3-3.3 1.7-1.2 4.1-1.4 4.8-4.3.4-1.9 0-3.9-1.4-5.2-2-2-5.2-2.4-7.9-1.3-2.6 1-4.6 3.3-6 5.7-1.5 2.5-2.3 5.2-3.3 7.9-.4.9-.7 1.8-1.5 2.5-.7.6-2 .8-2.6.2-.6-.6-.7-1.5-.6-2.3.1-1.5-.2-3-.9-4.2-2.8-4.9-9-2.8-10.1 1.2a10 10 0 00.1 5c.4 1.8 1 3.5.9 5.2-.1 2-1 4-3 4.7-1.4.4-3-.2-3.5-1.6-.7-1.8 1-3.5 1.4-5.3.6-2.4-1.3-5-3.7-5.6-2.4-.6-5 .5-6.6 2.4a11 11 0 00-2.3 7c0 2.5.5 5 1 7.3.3 1.3.6 2.8 0 4-.6 1-1.8 1.4-2.7.8-.9-.6-.8-1.8-1.2-2.7-1-1.7-3.7-1.4-5 .1-1.2 1.5-1.3 3.6-1.4 5.5l-.7 18-4.2 16.1z"/><path fill="#306B34" d="M262.7 211c.7-1.2 7.9-15.8 34.6-30.3 23.6-12.8 53.7-16.7 53-18.2-.8-2-2.9-3.2-5-3.6-2-.3-4.3 0-6.3.7-5.8 1.6-11.2 4.5-16.6 7.2-1.6.8-3.9 1.3-4.7-.2-.7-1.2.2-2.6 1.3-3.3 1.7-1.2 4.2-1.4 4.8-4.3.4-1.9 0-3.9-1.4-5.2-2-2-5.2-2.4-7.9-1.3-2.6 1-4.6 3.3-6 5.7-1.5 2.5-2.3 5.2-3.3 7.9-.4.9-.7 1.8-1.5 2.5-.7.6-1.9.8-2.6.2-.6-.6-.7-1.5-.6-2.3.1-1.5-.2-3-.9-4.2-2.8-4.9-9-2.8-10.1 1.2a10 10 0 00.1 5c.4 1.8 1 3.5.9 5.2-.1 2-1 4-3 4.7-1.4.4-3-.2-3.5-1.6-.7-1.8 1-3.5 1.4-5.3.6-2.4-1.3-5-3.7-5.6-2.4-.6-5 .5-6.6 2.4a11 11 0 00-2.3 7c0 2.5.5 5 1 7.3.3 1.3.6 2.8 0 4-.6 1-1.8 1.4-2.7.8-.9-.6-.8-1.8-1.2-2.7-1-1.7-3.7-1.4-5 .1-1.2 1.5-1.3 3.6-1.4 5.5l-.7 18-.1 2.6z"/><path fill="#619440" d="M287 74.1c-.6-.6-.9-1.3-.8-2 .1-1.1 1-2 2-2.3 1.1-.3 2.3-.1 3.3.4s1.9 1.2 2.6 2.1a22 22 0 013.3 6.5c-3-.6-6-1.7-8.6-3.3a7 7 0 01-1.9-1.4m-11 21c-1-.6-2-1.5-2-2.6 0-1 .9-1.8 1.9-2.2 1.8-.6 3.9.2 5.3 1.5 1.5 1.3 2.4 3 3.2 4.7-2.8.4-5.8 0-8.4-1.5m-4.8 8.8c-.6-.2-1.2-.4-1.8-.8-.5-.4-.9-1-.9-1.7s.5-1.4 1.2-1.7c.6-.4 1.4-.5 2.1-.4a8 8 0 017.1 5.5c-2.6.2-5.2-.1-7.7-.9m-6.5 6.5c.6-.5 1.3-.8 2-.9 1.6-.3 3.3.1 4.6 1 1.3.9 2.2 2.2 2.6 3.6-2.2.4-4.6.4-6.8.1-.7 0-1.3-.2-1.9-.5-.5-.3-1-.8-1.2-1.4a2 2 0 01.7-2"/><path fill="#619440" d="M274 113.8h-.1l5.2-9-.2.1v-.2h.3l.5-.8c1.5-2.5 3-5 4.7-7.4l6-8.6a12 12 0 01-9-1.8c-1.2-.8-2.3-2-2.2-3.5.1-1.2 1-2.1 2.2-2.5 1.1-.3 2.3 0 3.4.5a10 10 0 012.6 2.3c1.3 1.4 2.4 3 3.3 4.7 2.1-3 4.4-5.8 6.7-8.6v-.2.1l1.2-1.3 5.8-6.7c-2.6-.4-5.2-1.3-7.5-2.7-.8-.4-1.6-1-2.2-1.7-.6-.8-1-1.7-.8-2.6a3 3 0 012.4-2.4c1.1-.2 2.3 0 3.3.7 1 .6 1.8 1.5 2.5 2.4 1.2 1.8 2.1 3.9 2.6 6 1.7-1.9 3.4-3.7 5.3-5.4.2-2 .7-4 1.6-5.8a7.5 7.5 0 013.1-3.6c1.5-.8 3.5-.6 4.4.8.8 1 .7 2.5 0 3.6-.6 1.2-1.6 2-2.7 2.7-1.7 1-3.5 1.8-5.4 2.2l-5.6 6c2.3.2 4.5 1.1 6.3 2.6 1 1 1.9 2.1 2 3.5 0 1.4-.9 2.9-2.2 3-1.3 0-2.3-.9-3-1.8-1.7-2-2.9-4.3-3.5-6.8a173.7 173.7 0 00-6.6 7.5c2 0 3.9.6 5.5 1.7 1.2.7 2.2 1.7 2.6 3 .3 1.3 0 2.8-1.3 3.5-1.1.6-2.6.2-3.6-.7-1-1-1.5-2.1-2-3.3l-1.6-3.7c-2.2 2.6-4.4 5.4-6.4 8.2 2.3-.5 4.8 0 6.8 1.4 1 .8 2 1.8 2.2 3 .3 1.3-.2 2.8-1.4 3.3-1 .5-2.2.1-3.1-.5a9.2 9.2 0 01-2-2.6l-2.8-4.3-.8 1.1-5.2 7.5c1.6-.1 3.2-.2 4.8.1 1.6.4 3.1 1.4 3.8 2.9.7 1.5.2 3.5-1.3 4.2-1 .5-2.2.3-3.1-.2a7 7 0 01-2.3-2.3c-.9-1.4-1.5-2.9-2.2-4.4l-5 7.9 3 .3c1 .1 2 .3 3 .7 1 .5 2 1.3 2.3 2.3.2 1-.2 2.3-1.2 2.7-.7.3-1.5.1-2.1-.2-.7-.4-1.2-1-1.7-1.5l-3.6-3.7-4.7 8.3c1.4 0 2.7 0 4 .3 1.7.5 3.3 1.5 4 3 .5.8.7 1.8.4 2.7-.3.9-1 1.6-2 1.6-1.1 0-2-.8-2.7-1.7a101 101 0 01-4-5.1c-.4.6-.8 1.2-1 1.8-2.9 5.4-5.3 11-7.9 16.5-.1.3-.6 0-.5-.2 2.3-6.4 5.2-12.6 8.5-18.6l.1-.3"/><g transform="translate(326 143.3)"><mask id="m" fill="#fff"><use xlink:href="#k"/></mask><path fill="url(#l)" d="M2.2 2.5a6.4 6.4 0 00-2 4.6c0 3.5 2.9 6.4 6.4 6.5h.1a6.5 6.5 0 006.5-6.3c0-3.6-2.8-6.5-6.4-6.6h-.1c-1.7 0-3.3.7-4.5 1.8m4.5 9.2A4.6 4.6 0 012 7.1a4.6 4.6 0 014.6-4.5c2.6 0 4.7 2.1 4.7 4.6 0 1.3-.5 2.4-1.4 3.2-.9.9-2 1.3-3.2 1.3h-.1" mask="url(#m)"/></g><path fill="#619440" d="M303.5 108.3c-.2 3.2 2.4 5.9 5.7 6 3.4.3 6.2-2.1 6.4-5.3a5.9 5.9 0 00-5.7-6c-3.3-.3-6.2 2.1-6.4 5.3"/><g transform="translate(312 140.3)"><mask id="p" fill="#fff"><use xlink:href="#n"/></mask><path fill="url(#o)" d="M1 4.7C.8 7.2 2.8 9.4 5.5 9.5c2.7.2 5-1.7 5-4.2C10.8 2.8 8.8.6 6.2.4a4.7 4.7 0 00-5 4.3" mask="url(#p)"/></g><g transform="translate(231 62.3)"><mask id="s" fill="#fff"><use xlink:href="#q"/></mask><path fill="url(#r)" d="M3.7 1A3 3 0 00.7 4a3 3 0 003.1 3 3 3 0 003-3.1 3 3 0 00-3-3" mask="url(#s)"/></g><g><path fill="#FFDE8E" d="M1.7 231.3c0-5.5 71.8-10 160.3-10 88.5 0 160.3 4.5 160.3 10s-71.8 10-160.3 10c-88.5 0-160.3-4.5-160.3-10"/><path fill="#FFB68E" d="M215 158.8c-1.8 13.6 23.1 54.9 22.5 61.3-3.3 4.6-5 8.9-5.4 10 2.5.1 4.7.7 5.8 2 4.2-3 6.1-8.1 6.3-9.3.1-.4-.2-2.3-.2-2.7 0-1 1.3-42.5-2-50.1-2.4-5.4-10.4-7-14.7-9.3-4.9-2.6-12.3-1.9-12.3-1.9"/><path fill="#57575E" d="M240 230.1c.3 1.2 1 3 1 3.6v.5h1.5l1.4-1.6-.2-4.6-3.7 2.1z"/><path fill="#A29C8F" d="M233.7 228.2a4.4 4.4 0 00-4.7 6.4c.6.6 7.6.6 8.8.3 1.1-.3 3.5-2.4 4.8-4.9.3-.5.9 2 0 4.2h1.9c.6-.3.6-5.3.9-5.7 1.9-3-1.3-7.7-1.3-7.7v2.2c-.4 2.3-3 6.2-5.2 7.6-1-1.2-3.9-2.4-5.2-2.4"/><path fill="#FFB68E" d="M244.8 150c-2 9.6.3 12.7 1.6 23.1 1.6 13.3 5.8 31.1 4.8 47.5-3.2 4.6-3.8 8.3-4.2 9.3 0 2 2.8 3.4 3.9 4.6 5.2-2.7 7.5-9.4 7.7-10.5 0-.5-.8-2.8-.8-3.2.2-7.9 12.2-33.5 11.5-46.8-.3-6.2-8.6-16.5-10.5-20.4-2.7-5.8-14-3.6-14-3.6"/><path fill="#57575E" d="M253.7 230.1c.4 1.2 1 3 1 3.6v.5h1.6l1.4-1.6-.3-4.6-3.7 2.1z"/><path fill="#A29C8F" d="M247.5 228.2a4.4 4.4 0 00-4.7 6.4c.6.6 7.5.6 8.7.3 1.2-.3 3.5-2.4 4.8-4.9.3-.5 1 2 0 4.2h2c.5-.3.6-5.3.8-5.7 2-3-1.3-7.7-1.3-7.7l.1 2.2c-.5 2.3-3.1 6.2-5.3 7.6-1-1.2-3.9-2.4-5.1-2.4"/><path fill="#57575E" d="M237.6 34.8c-4.5-2.1-8.6-10.3-3-16.6 5.5-6.3 12.2-4 14-3.5 2.7.7 12 10.8 4.4 21-7.5 10.4-15.4-1-15.4-1"/><path fill="#F5EFE4" d="M231.8 48.3c-16.8 12.2-22 35-20.7 39.6 2.1 7.5 8.5 10.9 16.7 5.5 8.2-5.3 11.6-50.7 4-45.1"/><path fill="#A29C8F" d="M213.4 160.4c.2 5.2 3.7 12.6 4.4 14.3 1.9 4 49 3 54.1-3.4 0-3-4.1-14.2-4-16.3 0-8.8 13.6-26.2 8.5-44.3-2.8-9.8-17-18.8-19.3-19.3-5.5-1.2-26.2 1.2-29.5 6.3-12.6 19.8-15 48.2-14.2 62.7"/><path fill="#7F786A" d="M244.3 42.8c2.5-.9 15.5 3.9 16.5 6.5a252 252 0 01.3 36.1c-.4 6.6 16.1 14.8 15.2 23.3-.6 6.2-60.4 19.9-58 3 .1-1 7.5-22.7 7.6-23.8.7-10.4 2-13.5 1.6-19a85.9 85.9 0 014.6-20.1c1.8-2.5 8.6-4.7 12.2-6"/><path fill="#FFF4DD" d="M197.6 112.6l38.4 5.7 8.3-55.7-38.4-5.7z"/><path fill="#FFBF4D" d="M209 66.5l8.3 1.2.6-4-8.3-1.1zm-.3 2l8.3 1.3V69l-8.2-1.2z"/><path fill="#F7E8C8" d="M203.7 102.2l7.8 1.2v-.7l-7.7-1.1zm11.7 1.7l5 .8.2-.7-5-.7zm-12 1l7.7 1v-.6l-7.7-1.1zm13-29.2l12.3 1.8.1-.6-12.3-1.9zm-9 2.2l29.4 4.3.1-.6-29.5-4.4zm-.5 3l29.5 4.4v-.7L207 80.3zm-.5 3l29.5 4.4.1-.6-29.5-4.4zM206 87l29.5 4.4v-.7l-29.4-4.4zm-.5 3l29.5 4.4.1-.7-29.5-4.3zm-.4 3l29.5 4.5v-.7l-29.4-4.4z"/><path fill="#FFA087" d="M249.2 34.3c.3 5.6 1.4 11.5 2.4 13.3 1.3 2.5-6 4.9-9 4-3-.7-3.9-2.3-4-3.4 0-1 3.6-4.6 4.2-12.1.5-6 6.2-4.1 6.4-1.8"/><path fill="#FFB68E" d="M234.9 24.4c-2.2 9 .7 20 7.1 20.9 5.3.7 9.5-6.2 7.6-12.5 2.3-.6 2.6-3.4 1.7-4.4-1.5-1.8-2.7.7-2.7.7s-.9-1.4-1.7-4.6c-9.4 4-12-.1-12-.1"/><path fill="#57575E" d="M246 16.1c-2.5-6.8 1.8-16.8 7-14.8 5.3 2 2 10.6 2 10.6s2.3-3.1 3.8-1.4c1.6 1.9-2.6 9.3-7.8 9.9-5 .5-5-4.3-5-4.3"/><path fill="#F5EFE4" d="M260.8 49.3c-6.5 0-5.4 36.4-3.7 39.4 4 6.9 14.1 7.5 19.2-.1 5.2-7.7-9.6-39.3-15.5-39.3"/><path fill="#FFB68E" d="M269.2 81.3c-5.6-6.6-21-19.4-23.5-19.6h-8c-2 .1-3.4 3.2-3 3.5.5.6 2.1-1.8 2.4-1.8.2 0-1.5 2.9-1.4 3.9.1.7 2.5.1 2.9 0L241 66s-2.1 2-1.4 2.4c1 .5 2.8-2.4 3.5-2.1.7.2 1.6 1.6 3.4 2.3 1.8.6 2.4 0 3.1.3.7.3 6.6 16.7 8.1 18.3 2.5 2.7 8.6 5 11.7 4.9 3.1-.1 1.6-8.7-.2-10.8"/><path fill="#57575E" d="M154.1 131.9H167a5 5 0 004.8-3.3 5 5 0 00-1.2-5.6L155 108a.6.6 0 10-.9 1l15.6 15c1.4 1.3 1.4 3 .9 4.2a3.8 3.8 0 01-3.6 2.4H154a.6.6 0 100 1.3m-37.5-.1h26.3a.6.6 0 000-1.2l-26.3-.1c-.4 0-.7.3-.7.6 0 .4.3.7.7.7"/><path fill="#A29C8F" d="M161.8 94.9l-7.3 28.5a5 5 0 01-6 3.6l9.7-38.2a5 5 0 013.6 6"/><path fill="#57575E" d="M147.3 126.7l9.7-38.2 1.1.3-9.6 38.2-1.2-.3zM9.8 232.5H9l17.5-61.6h2.7zm24.5 0h-.8l6-61.6h2.7zm47 0h.7l-17.5-61.6h-2.7zm-28.5 0h.8l-2-61.6h-2.7z"/><path fill="#A29C8F" d="M38.4 167.3l-10.6-22c-2.4-5-7.6-8.2-13.2-8.2h-9l8.3 24.3a16 16 0 0015.2 11h17.3a9 9 0 01-8-5.1"/><path fill="#7F786A" d="M64.6 136.7h-3.3c-11.9 0-23-5.6-30.2-15.2a13.5 13.5 0 00-10-4.4h-3.4c-6.2 0-13.7.9-15.1 11l-.9 8.6h13.4c5.7 0 10.8 3.2 13.2 8.3L39 166.9a9 9 0 008 5h33.8v-4c0-11.7-8.2-31.2-16.1-31.2"/><g transform="translate(0 136.3)"><mask id="u" fill="#fff"><use xlink:href="#t"/></mask><path fill="#57575E" d="M80.3 36.8H46.5c-4 0-7.5-2.1-9.2-5.5L26.8 10c-2.3-4.4-7-7.3-12.1-7.3H1.2C.6 2.8 0 2.2 0 1.6 0 .9.6.4 1.2.4h13.5A16 16 0 0129 9l10.5 21.1c1.3 2.6 4 4.3 7 4.3h33.8c.6 0 .6 2.3 0 2.3" mask="url(#u)"/></g><path fill="#EABBAB" d="M135.7 199l1.5 5.1c1.1 3.9 3.6 14.3 7.1 15.7.7.5-7.2 7-7.7 6.6L133 215l-2.7-6.6c-.7-2-1.6-3.9-2.5-5.7l-1.7-3.7h9.6z"/><path fill="#57575E" d="M143.4 218.6l4.7 3.9c.5.5 3.8 1.3 6 2 3.5.8 4.1 2.3 4.4 2.9.2 0 .3.1.3.3v.6s-9.8.4-13.7 0c0 0-3.3-2.1-3.5 0h-8l.1-2.3h.4c-.2-1.3-.3-3.7.1-5.8h.4s-.2 1 2.7 1.2c2.9.3 4.4 0 4.6-.5l.2-.3s-.2-1.4 1.3-2"/><path fill="#7F786A" d="M56.7 168.7l1.8-20.2 60.3 7.5a9 9 0 016.1 6l17.4 55-4.2 1.6-6.3-1.6a168.4 168.4 0 01-16.7-35.6 26.3 26.3 0 01-2.1-8.2l-.5-4.9-55.8.4z"/><path fill="#EABBAB" d="M100.8 209.8l.4-6 .2-5.8h9.6l-2 10.7c-.7 4-2.8 13.5.6 15.5.4.7 10.2 5.1 9.3 5.8-.8.7-20-2.2-20.2-2.8l1.5-10.3.6-7z"/><path fill="#57575E" d="M108.3 221.4l4.2 4.3c.5.6 3.7 1.7 6 2.5 3.2 1.2 3.7 2.8 4 3.3l.2.4-.1.6s-9.8-.5-13.7-1.3c0 0-3-2.4-3.4-.3l-8-.7.4-2.3h.4c-.1-1.3 0-3.6.7-5.7h.4s-.4 1 2.5 1.5c2.8.5 4.4.3 4.7-.2l.2-.2s0-1.4 1.5-1.9"/><path fill="#A29C8F" d="M43.7 157.6c.6-5.8.8-7.7 3.7-16.3l21.8 1.8-.7 6.2c15 1.5 29.7 3.6 43.2 7 3.5.8 7.4 5.7 6.7 9L109 219l-4.2 1.7-6-1.6c-.6-14.8.3-31.5 2.1-49.2-10.7.5-27.2 1.1-44.5.2-10.2 0-12.9-9.5-12.6-12.5"/><path fill="#F7C8B3" d="M59.4 103.7l7.7 2.6 4.9-13-6.9-1.9z"/><path fill="#EF5A29" d="M70.3 97.8a16 16 0 01-1.7-1.1c-.4 1.3.2 5.1.2 5.1l1.5-4z"/><path fill="#F7C8B3" d="M79.7 95.3c-.7 1-1.1 2.3-2.3 3.7-.7.8-2.4.7-3.8.2-3.1-1-5.2-2.4-6.8-4.2a25.7 25.7 0 01-3.2-4.5c-.8-1.4-2.5-6.9.4-12.4 3.4-6.5 16-3.4 18.7 3.2.1.3.3 1.8 0 3.8v.1c-.4 1.5-1 3.2-2.2 4.9-.3.3-.4.8-.2 1.2.4.7 1.1 1.8 1.6 2.3.7.7-2.2 1.7-2.2 1.7"/><path fill="#57575E" d="M84.7 83.9c1.1-.1 2.4-1.6 2.7-3.2.2-1.2-.8-2.7-2-2.8 1.1-2.5-1.5-4.3-3.5-4-.4-1.4-1.5-2-2.8-2.2a4 4 0 00-3.5 1 2 2 0 00-2.2-1h-.6c-.4 0-.6-.4-1-.6a3 3 0 00-3.8 0c-1-1-3.7-.7-4.6.7-.7-.4-3.4.8-3.5 3-1.2 0-2.4.4-3.2 1.2-.8.8-1.2 2-1 3.2-.6.1-1 .6-1.3 1.2-.2.5-.4 1.6.2 2.1-1.8.8-2.2 3.7-1 5.1-1 1.1-1.2 3-.3 4.2a3.4 3.4 0 004 1.2c1.2 1 3 1.3 4.4.5.7.4 1.7.4 2.5 0 1-.4 2.4-1 2.6-2-2.3-1.1-2.5-4.3-.4-5.5 1.7-1 3 1.4 2.9 2.3l1.3-.4s.2-1 .4-1.2c.7-.6 1.8-1 2.1-1.3-1.6-1.2 1.3-1.2 1.5-1.5.4-.5 1-.8 1.7-.7 2.4.5 5.3-.2 5.8-1.2.3.6 1 2.9-.3 5.9 1 1.3 2.7-.1 2-1.4 1 .3 2.2-1.7.9-2.6"/><path fill="#57575E" d="M81.4 86.3c-.5-.4-1.6-.5-1.9-.5l-1 .2-.8.5 1-.2h.8l1.8.2.1-.2z"/><path fill="#E1786E" d="M78.5 95.4l-.4-.1-1.8-.7s-1 2.1 0 2.6 2.2-1.8 2.2-1.8"/><path fill="#57575E" d="M79.6 89.7c-.3.5-.8.7-1.1.5-.4-.2-.4-.7-.1-1.2.2-.5.7-.7 1-.6.4.2.4.8.2 1.3"/><path fill="#E6A38C" d="M56.3 102.1c2.2-2.3 7.2.2 10.7 2.4l5.6 3.4 13.5 8.8 29.2 4.5 10.5 2.7 10.6 5h-1.7l-8.8-1.7h-5.2l-4.3-1.9-31-.3c-9.4-3.6-16.6-6.5-27.2-14.3-3-2-4-6.3-2-8.6"/><path fill="#EA6C20" d="M56.3 102.1c2.2-2.3 8.8.1 11.4 2.5l5 3.3 13.4 8.6 25.1 3.8-.1 5.8-25.7-.2c-9.4-3.7-16.6-7.4-27.2-15.2-3-2-4-6.3-2-8.6"/><path fill="#EEF2FE" d="M109.4 126.3h4.2l.1-5.8-4.2-.6z"/><path fill="#FFBF4D" d="M46.5 146.4c1.3.6 5.3.7 6.8 1.3 5.2 2 11.7 3.5 15.4.3.7-5.2 3.7-21.4 4.4-26.3.8-5.5.3-8.3-1.6-12.4-.6-1.2-1.2-2.4-2-3.5-3.3-5.4-7.4-8.7-9.3-7.8-3.1 1.3-8.3 4.8-8.8 12.5-1.7 13.9-1.8 19.6-5 31.8-.5 1.4-1.2 3.4.1 4.1"/><path fill="#EA6C20" d="M60.3 97.9l9.2 7.8 1.8-3.9-9.3-7.2zm-7 49.8c5.2 2 11.7 3.5 15.4.4.7-5.3 3.7-21.5 4.4-26.4.8-5.5-18.5-16.7-18.8-14.9-.6 3.3 3.4 8 5.1 9.6 1.7 1.6 3 3.6 4.9 5a4 4 0 011.5 2.5c.3 1.3-.5 1.5-.4 2.8 0 1.8 1 1.8 1.6 4 1.5 4.7-.2 5.7-.4 6.5-.3 1.2.6 2.4.3 3.6-.4 1 .6 4.9 0 5.4-.5.6-2.9 1.6-3.7 1.8-1.6.3-9.9-.3-9.9-.3"/><path fill="#F4FAFC" d="M60.3 97.9l9.2 7.8 1.1-5.1-8.6-6z"/><path fill="#EABBAB" d="M55.3 104.4c2.2-2.4 9.6-1.1 12.5 1.2l4.8 4 14.4 8.2 30.6 3.3 11 2.3L140 128h-1.8l-9.2-1.3-5.5.2-4.5-1.7-32.2 1c-10-3.3-17.6-5.9-29-13.3-3.3-1.9-4.6-6-2.5-8.5"/><path fill="#FFBF4D" d="M55.3 104.4c2.2-2.4 9.6-1.1 12.5 1.2l4.8 4 14.4 8 26.4 2.9.1 5.7-24.5.3c-2.3 0-4.6-.3-6.8-1-8.1-3-14.4-6-24.5-12.6-3.2-1.9-4.5-6-2.4-8.5"/><path fill="#EEF2FE" d="M111.8 126.5l4.3-.1-.2-5.9-4.3-.4z"/><path fill="#57575E" d="M7.2 58.9h37.6c3 0 5.3-2.4 5.3-5.3v-11c0-2.9-2.3-5.3-5.3-5.3H7.2c-3 0-5.3 2.4-5.3 5.3v11c0 2.9 2.3 5.3 5.3 5.3"/><path fill="#FFE2B7" d="M12.4 49.6c0 .4.1.6.3.8.3.3.7.5 1.4.5.4 0 .7 0 1-.2.4-.1.6-.4.6-.9 0-.2 0-.4-.3-.5-.2-.2-.6-.3-1.1-.4l-.8-.2c-.9-.2-1.4-.4-1.7-.6-.6-.4-.8-1-.8-1.7s.2-1.2.7-1.7c.5-.5 1.3-.7 2.3-.7.8 0 1.5.2 2.1.7.6.4 1 1 1 1.8h-1.6c0-.4-.3-.8-.7-1l-1-.1c-.3 0-.7 0-1 .2-.2.2-.3.4-.3.7 0 .3.1.5.3.6l1 .4 1.4.3c.6.1 1 .3 1.4.5.5.4.7 1 .7 1.6 0 .7-.3 1.3-.8 1.8-.6.5-1.4.7-2.4.7s-1.8-.2-2.4-.7c-.6-.5-.9-1-.9-1.9h1.6zm6.2 2.4v-7.8h1.6v3h3v-3H25V52h-1.6v-3.5h-3V52zm13-1.9c.4-.4.6-1.1.6-2 0-.9-.2-1.5-.6-2-.4-.5-.9-.7-1.5-.7s-1.2.2-1.5.7c-.4.5-.6 1.1-.6 2 0 .9.2 1.6.6 2 .3.5.8.7 1.5.7s1.1-.2 1.5-.7m1 1.2c-.5.6-1.4 1-2.5 1s-2-.4-2.6-1c-.7-.7-1.1-1.8-1.1-3.2 0-1.4.4-2.5 1.1-3.2.6-.6 1.5-1 2.6-1s2 .4 2.5 1c.8.7 1.2 1.8 1.2 3.2 0 1.4-.4 2.5-1.2 3.2m6.6-5.5l-.8-.2h-1.5v2.3h1.5c.4 0 .6-.1.9-.3.2-.2.3-.5.3-.9s-.1-.7-.3-.9m1.2 2.8a3 3 0 01-2 .6H37V52h-1.6v-7.8h3.3c.8 0 1.4.2 1.9.6.4.4.7 1 .7 1.9 0 1-.3 1.6-.7 2"/><path fill="#F6F7FB" d="M182.3 131.6h-75.7c-.4 0-.7.8-.8 2h77.3c-.1-1.2-.4-2-.8-2"/><path fill="#57575E" d="M105.8 133.6v.9c0 1.5.4 2.8.8 2.8h75.7c.5 0 .8-1.3.8-2.8v-.9h-77.3z"/><path fill="#A29C8F" d="M175.9 143.7l-1.8 83.8c0 1.2-.9 2.1-1.9 2.1-1 0-1.8-1-1.8-2.1l-1.8-83.8c0-2.4 1.6-4.3 3.6-4.4 2 0 3.6 1.8 3.7 4.2v.2"/></g></g></svg>