<svg xmlns="http://www.w3.org/2000/svg" xmlns:xlink="http://www.w3.org/1999/xlink" width="44" height="40" viewBox="0 0 44 40">
    <defs>
        <path id="prefix__a" d="M0 -0.004L41.242 -0.004 41.242 39.2 0 39.2z"/>
        <path id="prefix__c" d="M0.505 0.209L39.095 0.209 39.095 36.8 0.505 36.8z"/>
    </defs>
    <g fill="none" fill-rule="evenodd">
        <g transform="translate(0 .004)">
            <mask id="prefix__b" fill="#fff">
                <use xlink:href="#prefix__a"/>
            </mask>
            <path fill="#FFAF12" d="M39.958 36.587c-.719 0-1.283-.576-1.283-1.308V9.143c0-.732-.565-1.307-1.284-1.307L22.597 5.223l-5.98-2.614L15.28.571c-.256-.366-.641-.575-1.078-.575H1.283C.564-.004 0 .571 0 1.303v36.59c0 .732.564 1.307 1.283 1.307h38.675c.077 0 .18 0 .257-.026.591-.131 1.027-.654 1.027-1.281 0-.731-.565-1.306-1.284-1.306" mask="url(#prefix__b)"/>
        </g>
        <g transform="translate(4.714 2.404)">
            <mask id="prefix__d" fill="#fff">
                <use xlink:href="#prefix__c"/>
            </mask>
            <path fill="#FFF4DE" d="M37.811.21H11.902l3.415 5.226h16.077V32.88c0 2.164 1.724 3.92 3.85 3.92 2.126 0 3.85-1.756 3.85-3.92V1.516c0-.722-.574-1.307-1.283-1.307M12.056 23.732H1.788c-.71 0-1.283.584-1.283 1.307v5.227c0 .722.574 1.306 1.283 1.306h10.268c.71 0 1.283-.584 1.283-1.306V25.04c0-.723-.573-1.307-1.283-1.307" mask="url(#prefix__d)"/>
        </g>
    </g>
</svg>
