<?xml version="1.0" encoding="utf-8"?>
<!-- Generator: Adobe Illustrator 25.4.1, SVG Export Plug-In . SVG Version: 6.00 Build 0)  -->
<svg version="1.1" id="Layer_1" xmlns="http://www.w3.org/2000/svg" xmlns:xlink="http://www.w3.org/1999/xlink" x="0px" y="0px"
	 width="320px" height="320px" viewBox="0 0 320 320" style="enable-background:new 0 0 320 320;" xml:space="preserve">
<style type="text/css">
	.st0{fill:#DCDBDB;}
	.st1{fill:#7F796B;}
	.st2{fill:#101010;}
	.st3{fill:#A5B850;}
	.st4{fill:#316C35;}
	.st5{fill:none;stroke:#FBB11B;stroke-width:1.2291;stroke-miterlimit:10;stroke-dasharray:1.8436,1.8436;}
	.st6{fill:#FFFFFF;}
	.st7{fill:#FBB11B;}
	.st8{fill:#DEF1F6;}
	.st9{fill:#FFFFFF;stroke:#B6772A;stroke-width:0.8926;stroke-miterlimit:10;}
	.st10{fill:#FFFFFF;stroke:#FBB11B;stroke-width:0.8926;stroke-miterlimit:10;}
	.st11{fill:#EFC684;}
	.st12{fill:#A56D29;}
	.st13{fill:#D3EEF8;}
	.st14{fill:#9B6728;}
	.st15{fill:#FFD384;}
	.st16{fill:none;stroke:#FFFFFF;stroke-width:0.5949;stroke-miterlimit:10;}
	.st17{fill:#D68B28;}
	.st18{fill:#EDA121;}
	.st19{fill:#F1B067;}
	.st20{fill:#05393B;}
	.st21{fill:#01555A;}
	.st22{fill:#010101;}
	.st23{fill:#F8A694;}
	.st24{fill:#A0BFE4;}
	.st25{fill:#F5856D;}
</style>
<rect x="62" y="72.2" class="st0" width="195.3" height="193.9"/>
<path id="shadow_1_" class="st0" d="M4.1,309.9h312.6c1,0,1.7-0.8,1.7-1.7l0,0c0-1-0.8-1.7-1.7-1.7H4.1c-1,0-1.7,0.8-1.7,1.7l0,0
	C2.3,309.1,3.1,309.9,4.1,309.9z"/>
<g id="plant">
	<g>
		<g>
			<path class="st1" d="M88.3,292.8L88.3,292.8c-9.7,0-17.5-7.8-17.5-17.4v-23.7h34.9v23.7C105.8,285,98,292.8,88.3,292.8z"/>
			<rect x="68.9" y="269.6" class="st2" width="1.9" height="36.8"/>
			<rect x="105.8" y="269.6" class="st2" width="1.9" height="36.8"/>
			<rect x="90.9" y="269.6" class="st2" width="1.9" height="36.8"/>
		</g>
		<rect x="68.9" y="292.8" class="st2" width="37" height="1.9"/>
	</g>
	<g>
		<path class="st3" d="M115.5,212.5c2.1,3-2.1,5.6-2.8,9.8c-0.7,4.2,4.2,6.6-1,12c-3.1,3.4-5.8-1.1-8.4,4.1
			c-2.6,5.2-0.5,6.1-3.4,7.9c-5,3.3-12.7-3.9-10.1-9.1c2.6-5.2,7.8-4.7,5.4-9c-2.4-4.3-3.3-6.1,0.9-8.3c5.2-2.7,9.7-0.2,10.1-4.2
			C106.6,211.8,112.7,208.5,115.5,212.5z"/>
		<path class="st2" d="M93.5,251.4l-0.9-0.2c4.1-20.5,17.5-34.8,17.7-35l0.6,0.6C110.8,217.1,97.5,231.2,93.5,251.4z"/>
	</g>
	<g>
		<path class="st4" d="M47.9,204.9c-2.2,4.4,4,7,5.7,12.4c1.7,5.4-4.6,7.3,3.3,13.6c4.9,3.8,5.9,1.4,7.6,10
			c1.6,7.6,7.3,0.4,11.7,4.8c5.6,5.7,14.3-6.9,9.8-13.2c-4.5-6.3-9.7-4.7-7.3-10.8c2.3-6.1-0.5-10.7-6.4-12.8
			c-7.4-2.6-10,3.6-11.4-1.6S50.8,199,47.9,204.9z"/>
		<path class="st2" d="M85,252.1c-9.4-26-29.8-42-30.1-42.2l0.7-0.9c0.2,0.2,20.9,16.4,30.4,42.7L85,252.1z"/>
	</g>
</g>
<g>
	<g>
		<ellipse class="st5" cx="110.6" cy="105.7" rx="74.7" ry="74.5"/>
		<path class="st6" d="M129.5,100.8c0.1-0.6,0.1-1.2,0.1-1.8c0-7.2-5.9-13.1-13.2-13.1c-5.5,0-10.1,3.3-12.1,8
			c-1.6-1.4-3.8-2.3-6.1-2.3c-5.1,0-9.2,4.1-9.2,9.2h-1.7c-4.9,0-8.9,4-8.9,8.9v0c0,4.9,4,8.9,8.9,8.9h41.5c4.9,0,8.9-4,8.9-8.9v0
			C137.7,105,134.1,101.2,129.5,100.8z"/>
		<g>
			<path class="st7" d="M117,197.1h-14.3c-13.3,0-24-10.8-24-24v-5.2c0-13.3,10.8-24,24-24H117c13.3,0,24,10.8,24,24v5.2
				C141,186.4,130.3,197.1,117,197.1z"/>
			<g>
				<g>
					<path class="st6" d="M128.7,176H91.1c-1.2,0-2.2-1-2.2-2.2l0,0c0-1.2,1-2.2,2.2-2.2h37.6c1.2,0,2.2,1,2.2,2.2l0,0
						C131,175,130,176,128.7,176z"/>
					<path class="st6" d="M128.7,183.2H91.1c-1.2,0-2.2-1-2.2-2.2l0,0c0-1.2,1-2.2,2.2-2.2h37.6c1.2,0,2.2,1,2.2,2.2l0,0
						C131,182.2,130,183.2,128.7,183.2z"/>
					<g>
						<path class="st0" d="M98.1,181.2c0,0.4-0.4,0.8-0.8,0.8c-0.4,0-0.8-0.4-0.8-0.8c0-0.4,0.4-0.8,0.8-0.8
							C97.8,180.4,98.1,180.8,98.1,181.2z"/>
						<path class="st0" d="M100.8,181.2c0,0.4-0.4,0.8-0.8,0.8c-0.4,0-0.8-0.4-0.8-0.8c0-0.4,0.4-0.8,0.8-0.8
							C100.5,180.4,100.8,180.8,100.8,181.2z"/>
						<path class="st0" d="M103.5,181.2c0,0.4-0.4,0.8-0.8,0.8c-0.4,0-0.8-0.4-0.8-0.8c0-0.4,0.4-0.8,0.8-0.8
							C103.2,180.4,103.5,180.8,103.5,181.2z"/>
						<path class="st0" d="M106.2,181.2c0,0.4-0.4,0.8-0.8,0.8c-0.4,0-0.8-0.4-0.8-0.8c0-0.4,0.4-0.8,0.8-0.8
							C105.9,180.4,106.2,180.8,106.2,181.2z"/>
						<path class="st0" d="M108.9,181.2c0,0.4-0.4,0.8-0.8,0.8c-0.4,0-0.8-0.4-0.8-0.8c0-0.4,0.4-0.8,0.8-0.8
							C108.6,180.4,108.9,180.8,108.9,181.2z"/>
						<path class="st0" d="M111.6,181.2c0,0.4-0.4,0.8-0.8,0.8c-0.4,0-0.8-0.4-0.8-0.8c0-0.4,0.4-0.8,0.8-0.8
							C111.3,180.4,111.6,180.8,111.6,181.2z"/>
						<path class="st0" d="M114.3,181.2c0,0.4-0.4,0.8-0.8,0.8c-0.4,0-0.8-0.4-0.8-0.8c0-0.4,0.4-0.8,0.8-0.8
							C114,180.4,114.3,180.8,114.3,181.2z"/>
						<path class="st0" d="M117,181.2c0,0.4-0.4,0.8-0.8,0.8c-0.4,0-0.8-0.4-0.8-0.8c0-0.4,0.4-0.8,0.8-0.8
							C116.7,180.4,117,180.8,117,181.2z"/>
						<path class="st0" d="M119.8,181.2c0,0.4-0.4,0.8-0.8,0.8c-0.4,0-0.8-0.4-0.8-0.8c0-0.4,0.4-0.8,0.8-0.8
							C119.4,180.4,119.8,180.8,119.8,181.2z"/>
					</g>
					<g>
						<ellipse class="st6" cx="109.9" cy="156.7" rx="8.6" ry="8.6"/>
						<g>
							<g>
								<path class="st0" d="M109.9,156.4c0.8,0,1.6-0.4,2.1-1c0.4-0.5,0.6-1,0.6-1.7c0-1.5-1.2-2.7-2.7-2.7c-1.5,0-2.7,1.2-2.7,2.7
									c0,0.6,0.2,1.2,0.6,1.7C108.3,156,109.1,156.4,109.9,156.4z"/>
							</g>
							<path class="st0" d="M114.7,161.2c0,1.7-9.6,1.7-9.6,0l0-2c0.4-2.7,8.8-2.8,9.6,0L114.7,161.2z"/>
						</g>
					</g>
					<path class="st0" d="M93,180.6v-0.1c0-0.5-0.4-0.9-0.9-0.9c-0.5,0-0.9,0.4-0.9,0.9v0.1h-0.1v1.6c0,0.3,2,0.3,2,0v-1.6H93z
						 M91.5,180.5c0-0.3,0.2-0.6,0.6-0.6c0.4,0,0.6,0.3,0.6,0.6v0.1h-1.1V180.5z M92.3,181.4v0.5c0,0.1-0.1,0.1-0.2,0.1
						c-0.1,0-0.1-0.1-0.1-0.1v-0.5c-0.1,0-0.1-0.1-0.1-0.2c0-0.2,0.1-0.3,0.3-0.3c0.2,0,0.3,0.1,0.3,0.3
						C92.4,181.3,92.3,181.3,92.3,181.4z"/>
					<g>
						<g>
							<g>
								<path class="st0" d="M92.1,173.7c0.2,0,0.3-0.1,0.4-0.2c0.1-0.1,0.1-0.2,0.1-0.4c0-0.3-0.3-0.6-0.6-0.6
									c-0.3,0-0.6,0.3-0.6,0.6c0,0.1,0,0.3,0.1,0.4C91.8,173.6,91.9,173.7,92.1,173.7z"/>
							</g>
							<path class="st0" d="M93.1,174.7c0,0.4-2,0.4-2,0l0-0.4c0.1-0.6,1.9-0.6,2,0L93.1,174.7z"/>
						</g>
						<path class="st0" d="M105.3,174.5H97c-0.4,0-0.7-0.3-0.7-0.7l0,0c0-0.4,0.3-0.7,0.7-0.7h8.2c0.4,0,0.7,0.3,0.7,0.7l0,0
							C105.9,174.2,105.6,174.5,105.3,174.5z"/>
						<path class="st0" d="M116.1,174.5h-8.2c-0.4,0-0.7-0.3-0.7-0.7l0,0c0-0.4,0.3-0.7,0.7-0.7h8.2c0.4,0,0.7,0.3,0.7,0.7l0,0
							C116.8,174.2,116.5,174.5,116.1,174.5z"/>
					</g>
				</g>
				<path class="st0" d="M112.7,190.2h-7.5c-1.1,0-1.9-0.9-1.9-1.9v0c0-1.1,0.9-1.9,1.9-1.9h7.5c1.1,0,1.9,0.9,1.9,1.9l0,0
					C114.6,189.3,113.7,190.2,112.7,190.2z"/>
			</g>
		</g>
		<g>
			<g>
				<g>
					<g>
						<path class="st8" d="M14.9,112.4L14.9,112.4C14.9,112.3,14.9,112.3,14.9,112.4C14.9,112.3,14.9,112.4,14.9,112.4z"/>
						<path class="st8" d="M14.9,112.4L14.9,112.4C14.9,112.3,14.9,112.3,14.9,112.4C14.9,112.3,14.9,112.4,14.9,112.4z"/>
						<path class="st8" d="M51.7,112.6C51.7,112.6,51.7,112.5,51.7,112.6C51.7,112.5,51.7,112.5,51.7,112.6L51.7,112.6z"/>
						<path class="st8" d="M51.7,112.6C51.7,112.6,51.7,112.5,51.7,112.6C51.7,112.5,51.7,112.5,51.7,112.6L51.7,112.6z"/>
						<path class="st6" d="M33.4,102.5c-4.3,4.6-11.1,8.3-18.4,9.9c0,0.5,0,3.2-0.1,15.6c-0.1,16.6,15.8,24.7,18.2,25.9
							c2.4-1.1,18.4-9.2,18.5-25.8c0.1-12.4,0.1-15.1,0.1-15.6C44.4,110.9,37.6,107.1,33.4,102.5z"/>
					</g>
				</g>
				<g>
					<g>
						<path class="st7" d="M33.3,105.5c-4.2,3.8-10,6.9-16.4,8.5L16.9,128c0,6.4,2.5,12.2,7.6,17.3c3.3,3.3,6.9,5.4,8.6,6.3
							c0.1,0,0.2-0.1,0.2-0.1L33.3,105.5C33.4,105.5,33.3,105.5,33.3,105.5z"/>
					</g>
					<g>
						<path class="st7" d="M33.4,105.5v46c1.9-1,5.2-2.9,8.4-6.1c5.1-5,7.7-10.8,7.8-17.2l0.1-14.1
							C43.3,112.4,37.5,109.4,33.4,105.5z"/>
					</g>
				</g>
			</g>
			<g>
				<path class="st6" d="M25.9,125.8v10.9c0,1.2,14.9,1.2,14.9,0v-10.9H25.9z M34.1,131.6v3.1c0,0.4-0.3,0.8-0.7,0.8
					c-0.4,0-0.8-0.3-0.8-0.8v-3.1c-0.6-0.3-1.1-0.9-1.1-1.7c0-1,0.8-1.8,1.8-1.8c1,0,1.8,0.8,1.8,1.8
					C35.2,130.6,34.8,131.3,34.1,131.6z"/>
				<path class="st6" d="M39.5,125H38v-0.7c0-2.5-2.1-4.6-4.6-4.6c-2.5,0-4.6,2.1-4.6,4.6v0.7h-1.5v-0.7c0-3.4,2.7-6.1,6.1-6.1
					c3.4,0,6.1,2.7,6.1,6.1V125z"/>
			</g>
		</g>
		<g>
			<g>
				<rect x="116.5" y="12.9" class="st7" width="26.8" height="33.4"/>
			</g>
			<g>
				<rect x="120" y="16.3" class="st9" width="26.8" height="33.4"/>
			</g>
			<g>
				<rect x="124.4" y="19.7" class="st10" width="26.8" height="33.4"/>
			</g>
			<g>
				<rect x="127.6" y="23.1" class="st11" width="26.8" height="33.4"/>
				<rect x="136.4" y="28.6" class="st7" width="13.9" height="2.2"/>
				<rect x="132.3" y="33.7" class="st7" width="18" height="2.2"/>
				<rect x="132.3" y="38.8" class="st7" width="18" height="2.2"/>
				<rect x="132.3" y="43.9" class="st7" width="18" height="2.2"/>
				<rect x="132.3" y="49" class="st7" width="18" height="2.2"/>
			</g>
		</g>
		<g>
			<ellipse class="st6" cx="57.6" cy="49.2" rx="9.5" ry="9.4"/>
			<g>
				<path class="st7" d="M72.6,58.2c1.2-2,2-4.2,2.3-6.4l0.7,0.1L77,52l0,0c0.4-2.5,0.2-5.1-0.4-7.5L74.6,45
					c-0.6-2.2-1.5-4.3-2.9-6.2l1.7-1.3c-1.5-2-3.4-3.7-5.6-5.1l-1.1,1.8c-2-1.2-4.2-2-6.5-2.3l0.3-2.1c-2.5-0.4-5.1-0.2-7.6,0.4
					l0.5,2.1c-2.2,0.6-4.3,1.5-6.2,2.9l-1.3-1.7c-2,1.5-3.7,3.3-5.1,5.6l1.8,1.1c-1.2,2-2,4.2-2.3,6.4l-1.5-0.2l-0.6-0.1l0,0
					c-0.4,2.5-0.2,5.1,0.4,7.5l2.1-0.5c0.6,2.2,1.5,4.3,2.9,6.2l-1.7,1.3c1.5,2,3.4,3.7,5.6,5.1l1.1-1.8c2,1.2,4.2,2,6.5,2.3
					l-0.2,1.6l-0.1,0.5c2.5,0.4,5.1,0.2,7.6-0.4l-0.5-2.1c2.2-0.6,4.3-1.5,6.2-2.9l1.3,1.7c2-1.5,3.7-3.3,5.1-5.6L72.6,58.2z
					 M52.7,57.3c-4.5-2.7-5.9-8.5-3.2-13c2.7-4.5,8.5-5.9,13-3.2c4.5,2.7,5.9,8.5,3.2,13C63,58.5,57.2,60,52.7,57.3z"/>
			</g>
			<g>
				<path class="st12" d="M37.1,56.9c-0.7-1-1.6-1.9-2.5-2.6l0.2-0.3l0.4-0.6l0,0c-1.1-0.8-2.4-1.3-3.7-1.5L31.3,53
					c-1.2-0.2-2.4-0.2-3.6,0l-0.2-1.1c-1.3,0.2-2.5,0.7-3.7,1.5l0.6,0.9c-1,0.7-1.9,1.6-2.6,2.5l-0.9-0.6c-0.8,1.1-1.3,2.4-1.5,3.7
					l1.1,0.2c-0.2,1.2-0.3,2.4,0,3.6L19.3,64c0.2,1.3,0.8,2.5,1.5,3.7l0.9-0.6c0.7,1,1.6,1.9,2.5,2.6l-0.4,0.7l-0.2,0.3l0,0
					c1.1,0.8,2.4,1.3,3.7,1.5l0.2-1.1c1.2,0.2,2.4,0.2,3.6,0l0.2,1.1c1.3-0.2,2.5-0.7,3.7-1.5l-0.6-0.9c1-0.7,1.9-1.6,2.6-2.5
					l0.7,0.5l0.2,0.1c0.8-1.1,1.3-2.4,1.5-3.7l-1.1-0.2c0.2-1.2,0.2-2.4,0-3.6l1.1-0.2c-0.3-1.3-0.8-2.5-1.5-3.7L37.1,56.9z
					 M32.2,66.1c-2.3,1.5-5.4,0.9-6.9-1.4c-1.5-2.3-0.9-5.4,1.4-6.9c2.3-1.5,5.4-0.9,6.9,1.4C35.1,61.5,34.5,64.6,32.2,66.1z"/>
			</g>
		</g>
		<g>
			<path class="st7" d="M186.7,76.1l-12.3,0c-3.4,0-6.2-2.8-6.2-6.2l0-2.3c0-3.4,2.8-6.2,6.2-6.2h12.3c3.4,0,6.2,2.8,6.2,6.2v2.3
				C193,73.3,190.2,76.1,186.7,76.1z"/>
			<rect x="168.2" y="64.1" class="st0" width="24.8" height="2.6"/>
			<path class="st13" d="M173.9,73.3l-3.6,0c-0.2,0-0.4,0.2-0.4,0.4v0c0,0.2,0.2,0.4,0.4,0.4h3.6c0.2,0,0.4-0.2,0.4-0.4l0,0
				C174.3,73.5,174.1,73.3,173.9,73.3z"/>
			<path class="st13" d="M179.5,73.3h-3.6c-0.2,0-0.4,0.2-0.4,0.4l0,0c0,0.2,0.2,0.4,0.4,0.4h3.6c0.2,0,0.4-0.2,0.4-0.4l0,0
				C179.9,73.5,179.7,73.3,179.5,73.3z"/>
			<path class="st13" d="M185.1,73.3h-3.6c-0.2,0-0.4,0.2-0.4,0.4l0,0c0,0.2,0.2,0.4,0.4,0.4h3.6c0.2,0,0.4-0.2,0.4-0.4l0,0
				C185.5,73.5,185.3,73.3,185.1,73.3z"/>
			<path class="st13" d="M190.7,73.3H187c-0.2,0-0.4,0.2-0.4,0.4l0,0c0,0.2,0.2,0.4,0.4,0.4h3.6c0.2,0,0.4-0.2,0.4-0.4l0,0
				C191.1,73.5,190.9,73.3,190.7,73.3z"/>
			<path class="st13" d="M170,62.1L170,62.1c-0.3,0-0.5,0.2-0.5,0.5v0.2c0,0.3,0.2,0.5,0.5,0.5l0,0c0.3,0,0.5-0.2,0.5-0.5v-0.2
				C170.5,62.3,170.3,62.1,170,62.1z"/>
			<path class="st13" d="M171,62.6L171,62.6c0,0.3,0.2,0.5,0.5,0.5h1.9c0.3,0,0.5-0.2,0.5-0.5l0,0c0-0.3-0.2-0.5-0.5-0.5h-1.9
				C171.3,62.1,171,62.3,171,62.6z"/>
			<path class="st0" d="M171.9,68.1h0.4c1,0,1.8,0.8,1.8,1.8v0c0,1-0.8,1.8-1.8,1.8h-0.4c-1,0-1.8-0.8-1.8-1.8l0,0
				C170.1,68.9,170.9,68.1,171.9,68.1z"/>
		</g>
		<g>
			<g>
				<path class="st14" d="M183,113.8v-1.7c0-0.8-0.6-1.4-1.4-1.4h-14.8c-0.8,0-1.4,0.6-1.4,1.4v29.8h38.3v-28.2H183z"/>
				<polygon class="st6" points="205.3,114.8 167.7,114.8 165.4,141.9 203.5,141.9 				"/>
				<path class="st7" d="M203.7,141.9h-38.3l4.1-26.8c0.1-0.8,0.8-1.4,1.6-1.4h35.1c1,0,1.7,0.9,1.6,1.8L203.7,141.9z"/>
			</g>
			<g>
				<g>
					<ellipse class="st0" cx="207.7" cy="114.8" rx="8.8" ry="8.8"/>
					<path class="st6" d="M207.7,123.9c-5,0-9.1-4.1-9.1-9.1c0-5,4.1-9.1,9.1-9.1c5,0,9.1,4.1,9.1,9.1
						C216.8,119.8,212.7,123.9,207.7,123.9z M207.7,106.4c-4.7,0-8.5,3.8-8.5,8.4c0,4.7,3.8,8.4,8.5,8.4c4.7,0,8.5-3.8,8.5-8.4
						C216.2,110.1,212.4,106.4,207.7,106.4z"/>
				</g>
				<g>
					<path class="st6" d="M203.5,113.2v6.2c0,0.7,8.5,0.7,8.5,0v-6.2H203.5z M208.2,116.5v1.8c0,0.2-0.2,0.4-0.4,0.4
						c-0.2,0-0.4-0.2-0.4-0.4v-1.8c-0.4-0.2-0.6-0.5-0.6-0.9c0-0.6,0.5-1,1-1c0.6,0,1,0.5,1,1C208.8,116,208.5,116.3,208.2,116.5z"
						/>
					<path class="st6" d="M211.2,112.8h-0.9v-0.4c0-1.4-1.2-2.6-2.6-2.6c-1.5,0-2.6,1.2-2.6,2.6v0.4h-0.9v-0.4
						c0-1.9,1.6-3.5,3.5-3.5c1.9,0,3.5,1.6,3.5,3.5V112.8z"/>
				</g>
			</g>
		</g>
	</g>
	<ellipse class="st15" cx="177.2" cy="41.5" rx="3.4" ry="3.4"/>
	<ellipse class="st15" cx="88.9" cy="54" rx="3.4" ry="3.4"/>
	<ellipse class="st6" cx="200.8" cy="98.7" rx="1.8" ry="1.8"/>
	<ellipse class="st15" cx="16.6" cy="101.9" rx="1.8" ry="1.8"/>
	<ellipse class="st15" cx="44.2" cy="165.9" rx="3.4" ry="3.4"/>
	<g>
		<path class="st15" d="M98.1,20.7L98.1,20.7c-0.3,0-0.6-0.3-0.6-0.6v-6.2c0-0.3,0.3-0.6,0.6-0.6l0,0c0.3,0,0.6,0.3,0.6,0.6v6.2
			C98.7,20.5,98.5,20.7,98.1,20.7z"/>
		<path class="st15" d="M94.4,17L94.4,17c0-0.3,0.3-0.6,0.6-0.6h6.2c0.3,0,0.6,0.3,0.6,0.6l0,0c0,0.3-0.3,0.6-0.6,0.6H95
			C94.7,17.6,94.4,17.4,94.4,17z"/>
	</g>
	<g>
		<path class="st6" d="M164.5,100.6L164.5,100.6c-0.3,0-0.6-0.3-0.6-0.6v-6.2c0-0.3,0.3-0.6,0.6-0.6l0,0c0.3,0,0.6,0.3,0.6,0.6v6.2
			C165.1,100.3,164.8,100.6,164.5,100.6z"/>
		<path class="st6" d="M160.8,96.9L160.8,96.9c0-0.3,0.3-0.6,0.6-0.6h6.2c0.3,0,0.6,0.3,0.6,0.6l0,0c0,0.3-0.3,0.6-0.6,0.6h-6.2
			C161,97.5,160.8,97.2,160.8,96.9z"/>
	</g>
	<g>
		<path class="st6" d="M158.1,182.5L158.1,182.5c-0.3,0-0.6-0.3-0.6-0.6v-6.2c0-0.3,0.3-0.6,0.6-0.6l0,0c0.3,0,0.6,0.3,0.6,0.6v6.2
			C158.7,182.2,158.5,182.5,158.1,182.5z"/>
		<path class="st6" d="M154.4,178.8L154.4,178.8c0-0.3,0.3-0.6,0.6-0.6h6.2c0.3,0,0.6,0.3,0.6,0.6l0,0c0,0.3-0.3,0.6-0.6,0.6H155
			C154.7,179.4,154.4,179.1,154.4,178.8z"/>
	</g>
	<ellipse class="st16" cx="106.2" cy="136.1" rx="1.9" ry="1.9"/>
</g>
<g>
	<g>
		<polygon class="st2" points="152.1,306.4 144.7,306.4 144,290.6 152.8,290.6 		"/>
		<polygon class="st2" points="278.9,306.4 271.6,306.4 270.9,290.6 279.7,290.6 		"/>
		<path class="st7" d="M272.6,263.1c-0.8,2.5-1.7,5-2.6,7.7H148.7c0,0-15.6-63.5,0-75.1c0.4-0.3,0.9-0.6,1.4-0.9
			c21.1-10.8,105.5-13.3,122.7,0.6c0.1,0.1,0.3,0.2,0.4,0.3C279.5,201.5,285,224.6,272.6,263.1z"/>
		<path class="st17" d="M194.4,270.8h-45.7l4.5-44.5C161.2,229.8,182.4,248,194.4,270.8z"/>
		<path class="st17" d="M272.6,263.1c-0.8,2.5-1.7,5-2.6,7.7h-44c7.6-14,25.9-35.2,43.8-44.9L272.6,263.1z"/>
		<path class="st18" d="M287.8,225.7H271c-2.8,0-5.2,2.1-5.6,4.9L260,271h-98.2l-5.4-40.4c-0.4-2.8-2.8-4.9-5.6-4.9h-16.8
			c-3.5,0-6.2,3.2-5.5,6.6l9.3,67.3h9.2v0h136.6v0h0.3l9.3-67.3C293.9,228.9,291.3,225.7,287.8,225.7z"/>
		<g>
			<g>
				<path class="st19" d="M259,248.9c7.9,2.6,6.4,19.3,0,21.9h-95.9c-7.2-1.8-7.8-23.9,2.6-22.3C228.9,260.4,232,241.5,259,248.9z"
					/>
			</g>
		</g>
	</g>
	<g>
		<path class="st20" d="M185.9,232c0,4.3,0.2,8.4,0.7,11.9h45l2.7-43.8c-2.7-16-10-19.9-21.6-19.9c-10.4,0-17.3,8.4-21.5,19.7
			C187.6,209.7,186,221.6,185.9,232z"/>
		<path class="st21" d="M185.9,232.8l16.3-1c-9-2.9-9.8-16.8-0.6-25.4l-10.4-6.5C187.6,209.7,186,222.4,185.9,232.8z"/>
		<polygon class="st1" points="182.8,253 244.6,253 244.6,232 189,232 		"/>
		<g>
			<g>
				<path class="st1" d="M252.5,246.3l-16.6,60.1H223c4.1-25.6,3.2-42.2,7-63.5C233.4,225.5,256.5,230.1,252.5,246.3z"/>
			</g>
			<g>
				<path class="st22" d="M231.3,306.4c0,0,0-0.1,0-0.1c0-4.5,3.6-8.1,8.1-8.1c4.5,0,8.1,3.6,8.1,8.1c0,0,0,0.1,0,0.1H231.3z"/>
				<path class="st22" d="M240.9,298.4l-2.9-0.9c-1.9-3.8-10.2-3.3-9.1,1.3c-3.3,0.5-5-1.1-5-1.1l-1,8.8h17.6L240.9,298.4z"/>
			</g>
		</g>
		<g>
			<g>
				<path class="st1" d="M179.6,246.3l16.6,60.1h12.9c-4.1-25.6-3.2-42.2-7-63.5C198.8,225.5,175.6,230.1,179.6,246.3z"/>
			</g>
			<g>
				<path class="st22" d="M200.9,306.4c0,0,0-0.1,0-0.1c0-4.5-3.6-8.1-8.1-8.1s-8.1,3.6-8.1,8.1c0,0,0,0.1,0,0.1H200.9z"/>
				<path class="st22" d="M191.2,298.4l2.9-0.9c1.9-3.8,10.2-3.3,9.1,1.3c3.3,0.5,5-1.1,5-1.1l1,8.8h-17.6L191.2,298.4z"/>
			</g>
		</g>
		<path class="st20" d="M205.7,181.7c6.1,3.7,6.9,14.6,3.8,18.9l-17.3,12.9l17.6,9.1l-2.9,9.4c0,0-18.4-1.5-27.4-10.7
			C170.9,212.3,192,186.3,205.7,181.7z"/>
		<path class="st20" d="M218.1,198.2c-5.2-6.5-1.6-16.5,5-16.2c21.6,7.6,28.2,28.6,21.4,38c-5.9,8.1-31.6,11.2-31.6,11.2v-8.8
			l17.9-3.9C230.7,218.5,221.5,204.2,218.1,198.2z"/>
		<g>
			<path class="st23" d="M199.2,228.9c-0.3-3,1.4-6.7,5.9-7.5c7.8-1.4,10.6,2.9,11.4,5.9c0.2,0.8-0.5,1.6-1.2,1.6
				c-0.7-0.1-1.1-0.5-1.3-1.1c-0.1-0.7-0.5-1.6-1.4-2.1c0.8,1.6,0.5,3.2-1.7,3.2H199.2z"/>
			<g>
				<path class="st24" d="M216.8,228.9l6.1-30.7h1.3c-0.4,2.1-6.5,32.9-6.7,33.8c-1.6,0-16.4,0-18.4,0l-2-3.1H216.8z"/>
				<polygon class="st6" points="224.2,198.2 270,198.2 263.2,232 217.6,232 				"/>
			</g>
		</g>
		<g>
			<g>
				<path class="st23" d="M210.9,183.9c0,3.5,10.5,5.8,13.9,2.1c0.5-0.6,0.9-1.2,1-2.1l2-8.9l-12.6-4.7l-0.4,1.2L210.9,183.9z"/>
				<path class="st25" d="M225.9,183.9l2-8.9l-11.9-3.2C212.9,181,223.9,188.3,225.9,183.9z"/>
			</g>
			<path class="st23" d="M214.4,167c-0.7,8.7,6.2,16.4,12,16.8c5.8,0.4,13.8-6.1,14.4-14.8c0.7-8.7-4.7-16.2-12-16.8
				C221.5,151.7,215,158.3,214.4,167z"/>
			<path class="st2" d="M224.1,152.9c8-5.1,12.4-0.3,16.4,4.7c2.8,3.5,4.8,6.1,8.3,6.6c-6.7,8.4-20.1,2.9-24.3-5.6
				c-0.4,4.8-6.1,8.8-10,8.3C213.1,161.6,216.8,150.8,224.1,152.9z"/>
			<ellipse class="st23" cx="215.9" cy="167.1" rx="3.5" ry="3.5"/>
		</g>
	</g>
</g>
</svg>
