<?xml version="1.0" encoding="utf-8"?>
<!-- Generator: Adobe Illustrator 25.4.1, SVG Export Plug-In . SVG Version: 6.00 Build 0)  -->
<svg version="1.1" id="Layer_1" xmlns="http://www.w3.org/2000/svg" xmlns:xlink="http://www.w3.org/1999/xlink" x="0px" y="0px"
	 viewBox="0 0 800 800" style="enable-background:new 0 0 800 800;" xml:space="preserve">
<style type="text/css">
	.st0{fill:#DCDBDB;}
	.st1{fill:#7F796B;}
	.st2{fill:#101010;}
	.st3{fill:#A5B850;}
	.st4{fill:#316C35;}
	.st5{fill:none;stroke:#FBB11B;stroke-width:3.1333;stroke-miterlimit:10;stroke-dasharray:4.6999,4.6999;}
	.st6{fill:#FFFFFF;}
	.st7{fill:#FBB11B;}
	.st8{fill:#DEF1F6;}
	.st9{fill:#FFFFFF;stroke:#B6772A;stroke-width:2.2755;stroke-miterlimit:10;}
	.st10{fill:#FFFFFF;stroke:#FBB11B;stroke-width:2.2755;stroke-miterlimit:10;}
	.st11{fill:#EFC684;}
	.st12{fill:#A56D29;}
	.st13{fill:#D3EEF8;}
	.st14{fill:#9B6728;}
	.st15{fill:#FFD384;}
	.st16{fill:none;stroke:#FFFFFF;stroke-width:1.5165;stroke-miterlimit:10;}
	.st17{fill:#D68B28;}
	.st18{fill:#EDA121;}
	.st19{fill:#F1B067;}
	.st20{fill:#05393B;}
	.st21{fill:#01555A;}
	.st22{fill:#010101;}
	.st23{fill:#F8A694;}
	.st24{fill:#A0BFE4;}
	.st25{fill:#F5856D;}
</style>
<rect x="159.1" y="188.8" class="st0" width="497.3" height="495"/>
<path id="shadow_1_" class="st0" d="M11.5,795.4h795.9c2.4,0,4.4-2,4.4-4.4l0,0c0-2.4-2-4.4-4.4-4.4H11.5c-2.4,0-4.4,2-4.4,4.4l0,0
	C7.1,793.4,9.1,795.4,11.5,795.4z"/>
<g id="plant">
	<g>
		<g>
			<path class="st1" d="M227.1,751.8h-2.3c-23.9,0-43.3-19.4-43.3-43.3v-61.7h89v61.7C270.5,732.4,251.1,751.8,227.1,751.8z"/>
			<rect x="176.6" y="692.6" class="st2" width="4.9" height="94"/>
			<rect x="270.5" y="692.6" class="st2" width="4.9" height="94"/>
			<rect x="232.7" y="692.6" class="st2" width="4.9" height="94"/>
		</g>
		<rect x="176.6" y="751.8" class="st2" width="94.1" height="4.9"/>
	</g>
	<g>
		<path class="st3" d="M295.3,546.7c5.4,7.7-5.4,14.4-7.1,25.1c-1.7,10.7,10.6,16.7-2.4,30.8c-8,8.6-14.8-2.8-21.3,10.4
			c-6.5,13.2-1.4,15.5-8.7,20.2c-12.8,8.3-32.3-10-25.7-23.3c6.6-13.2,19.9-12,13.7-22.9c-6.1-10.9-8.4-15.6,2.2-21.2
			c13.1-6.9,24.7-0.6,25.7-10.7C272.7,545.1,288.2,536.5,295.3,546.7z"/>
		<path class="st2" d="M239.2,646.2l-2.2-0.4c10.3-52.3,44.7-88.9,45-89.2l1.6,1.5C283.2,558.5,249.4,594.6,239.2,646.2z"/>
	</g>
	<g>
		<path class="st4" d="M123.2,527.4c-5.5,11.3,10.1,17.9,14.5,31.8c4.4,13.8-11.8,18.7,8.3,34.7c12.3,9.8,14.9,3.7,19.5,25.6
			c4,19.3,18.7,0.9,29.7,12.3c14.2,14.6,36.4-17.5,25-33.7c-11.4-16.2-24.6-12-18.7-27.6c5.9-15.6-1.1-27.4-16.3-32.7
			c-18.8-6.5-25.5,9.2-28.9-4C152.8,520.7,130.6,512.5,123.2,527.4z"/>
		<path class="st2" d="M217.5,647.8c-23.9-66.3-76-107.3-76.5-107.7l1.9-2.4c0.5,0.4,53.3,41.9,77.5,109L217.5,647.8z"/>
	</g>
</g>
<g>
	<g>
		<ellipse class="st5" cx="282.7" cy="274.3" rx="190.2" ry="190.1"/>
		<path class="st6" d="M330.9,261.8c0.2-1.5,0.3-3,0.3-4.5c0-18.5-15-33.5-33.5-33.5c-13.9,0-25.8,8.4-30.9,20.5
			c-4.1-3.7-9.6-5.9-15.6-5.9c-12.9,0-23.4,10.5-23.4,23.4h-4.4c-12.4,0-22.6,10.2-22.6,22.6v0c0,12.4,10.2,22.6,22.6,22.6h105.8
			c12.4,0,22.6-10.2,22.6-22.6v0C351.8,272.4,342.5,262.7,330.9,261.8z"/>
		<g>
			<path class="st7" d="M336.3,507.6H225.5c-13.3,0-24-10.8-24-24v-87.9c0-13.3,10.8-24,24-24h110.8c13.3,0,24,10.8,24,24v87.9
				C360.3,496.9,349.5,507.6,336.3,507.6z"/>
			<g>
				<g>
					<path class="st6" d="M329,453.8h-95.8c-3.1,0-5.7-2.6-5.7-5.7l0,0c0-3.1,2.6-5.7,5.7-5.7H329c3.1,0,5.7,2.6,5.7,5.7l0,0
						C334.7,451.2,332.1,453.8,329,453.8z"/>
					<path class="st6" d="M329,472.1h-95.8c-3.1,0-5.7-2.6-5.7-5.7l0,0c0-3.1,2.6-5.7,5.7-5.7H329c3.1,0,5.7,2.6,5.7,5.7l0,0
						C334.7,469.6,332.1,472.1,329,472.1z"/>
					<g>
						<path class="st0" d="M251.1,466.9c0,1.1-0.9,2-2,2c-1.1,0-2-0.9-2-2c0-1.1,0.9-2,2-2C250.2,464.9,251.1,465.8,251.1,466.9z"/>
						<path class="st0" d="M257.9,466.9c0,1.1-0.9,2-2,2c-1.1,0-2-0.9-2-2c0-1.1,0.9-2,2-2C257.1,464.9,257.9,465.8,257.9,466.9z"/>
						<path class="st0" d="M264.8,466.9c0,1.1-0.9,2-2,2c-1.1,0-2-0.9-2-2c0-1.1,0.9-2,2-2C263.9,464.9,264.8,465.8,264.8,466.9z"/>
						<path class="st0" d="M271.7,466.9c0,1.1-0.9,2-2,2c-1.1,0-2-0.9-2-2c0-1.1,0.9-2,2-2C270.8,464.9,271.7,465.8,271.7,466.9z"/>
						<path class="st0" d="M278.6,466.9c0,1.1-0.9,2-2,2c-1.1,0-2-0.9-2-2c0-1.1,0.9-2,2-2C277.7,464.9,278.6,465.8,278.6,466.9z"/>
						<path class="st0" d="M285.5,466.9c0,1.1-0.9,2-2,2c-1.1,0-2-0.9-2-2c0-1.1,0.9-2,2-2C284.6,464.9,285.5,465.8,285.5,466.9z"/>
						<path class="st0" d="M292.3,466.9c0,1.1-0.9,2-2,2c-1.1,0-2-0.9-2-2c0-1.1,0.9-2,2-2C291.4,464.9,292.3,465.8,292.3,466.9z"/>
						<path class="st0" d="M299.2,466.9c0,1.1-0.9,2-2,2c-1.1,0-2-0.9-2-2c0-1.1,0.9-2,2-2C298.3,464.9,299.2,465.8,299.2,466.9z"/>
						<path class="st0" d="M306.1,466.9c0,1.1-0.9,2-2,2c-1.1,0-2-0.9-2-2c0-1.1,0.9-2,2-2C305.2,464.9,306.1,465.8,306.1,466.9z"/>
					</g>
					<g>
						<ellipse class="st6" cx="281.1" cy="404.5" rx="22" ry="22"/>
						<g>
							<g>
								<path class="st0" d="M281.1,403.6c2.1,0,4.1-1,5.4-2.6c0.9-1.2,1.5-2.6,1.5-4.3c0-3.8-3.1-6.9-6.9-6.9
									c-3.9,0-6.9,3.1-6.9,6.9c0,1.7,0.6,3.1,1.5,4.3C276.9,402.5,278.9,403.6,281.1,403.6z"/>
							</g>
							<path class="st0" d="M293.3,415.9c0,4.4-24.5,4.4-24.5,0l0-5.1c1-7,22.5-7.3,24.5,0L293.3,415.9z"/>
						</g>
					</g>
					<path class="st0" d="M237.9,465.4v-0.3c0-1.2-1-2.2-2.2-2.2c-1.2,0-2.2,1-2.2,2.2v0.3h-0.3v4c0,0.7,5.2,0.7,5.2,0v-4H237.9z
						 M234.3,465.1c0-0.8,0.5-1.5,1.4-1.5c1,0,1.5,0.7,1.5,1.5v0.3h-2.9V465.1z M236.1,467.4v1.2c0,0.2-0.2,0.4-0.4,0.4
						c-0.2,0-0.4-0.1-0.4-0.4v-1.2c-0.2-0.1-0.4-0.3-0.4-0.6c0-0.4,0.3-0.7,0.7-0.7c0.4,0,0.7,0.3,0.7,0.7
						C236.4,467.1,236.3,467.3,236.1,467.4z"/>
					<g>
						<g>
							<g>
								<path class="st0" d="M235.7,447.7c0.5,0,0.9-0.2,1.1-0.6c0.2-0.2,0.3-0.6,0.3-0.9c0-0.8-0.7-1.5-1.5-1.5
									c-0.8,0-1.5,0.7-1.5,1.5c0,0.3,0.1,0.7,0.3,0.9C234.8,447.5,235.2,447.7,235.7,447.7z"/>
							</g>
							<path class="st0" d="M238.3,450.3c0,0.9-5.2,0.9-5.2,0l0-1.1c0.2-1.5,4.7-1.5,5.2,0L238.3,450.3z"/>
						</g>
						<path class="st0" d="M269.2,449.8h-21c-0.9,0-1.7-0.8-1.7-1.7l0,0c0-0.9,0.8-1.7,1.7-1.7h21c0.9,0,1.7,0.8,1.7,1.7l0,0
							C270.9,449,270.2,449.8,269.2,449.8z"/>
						<path class="st0" d="M296.9,449.8h-21c-0.9,0-1.7-0.8-1.7-1.7l0,0c0-0.9,0.8-1.7,1.7-1.7h21c0.9,0,1.7,0.8,1.7,1.7l0,0
							C298.6,449,297.8,449.8,296.9,449.8z"/>
					</g>
				</g>
				<path class="st0" d="M288.2,489.9H269c-2.6,0-4.8-2.1-4.8-4.8v-0.2c0-2.6,2.1-4.8,4.8-4.8h19.2c2.6,0,4.8,2.1,4.8,4.8v0.2
					C293,487.7,290.8,489.9,288.2,489.9z"/>
			</g>
		</g>
		<g>
			<g>
				<g>
					<g>
						<path class="st8" d="M39.2,291.3L39.2,291.3c0-0.2,0-0.2,0-0.2C39.2,291.1,39.2,291.3,39.2,291.3z"/>
						<path class="st8" d="M39.2,291.3L39.2,291.3c0-0.2,0-0.2,0-0.2C39.2,291.1,39.2,291.3,39.2,291.3z"/>
						<path class="st8" d="M132.8,291.7c0,0,0-0.2,0-0.2C132.8,291.5,132.8,291.6,132.8,291.7L132.8,291.7z"/>
						<path class="st8" d="M132.8,291.7c0,0,0-0.2,0-0.2C132.8,291.5,132.8,291.6,132.8,291.7L132.8,291.7z"/>
						<path class="st6" d="M86.2,266c-10.9,11.7-28.3,21.2-46.9,25.3c0,1.2,0,8.1-0.2,39.9c-0.2,42.3,40.1,63,46.4,66.2
							c6.1-2.8,46.9-23.4,47.1-65.8c0.1-31.7,0.2-38.6,0.2-39.9C114.1,287.5,97,277.8,86.2,266z"/>
					</g>
				</g>
				<g>
					<g>
						<path class="st7" d="M86.1,273.7c-10.7,9.8-25.5,17.5-41.8,21.7l-0.2,35.9c-0.1,16.4,6.5,31.3,19.4,44.1
							c8.5,8.5,17.5,13.7,22,16.1c0.2-0.1,0.4-0.2,0.6-0.3L86.1,273.7C86.1,273.7,86.1,273.7,86.1,273.7z"/>
					</g>
					<g>
						<path class="st7" d="M86.1,273.8v117.4c4.7-2.5,13.3-7.5,21.5-15.5c13.1-12.8,19.7-27.5,19.8-44l0.2-35.9
							C111.4,291.4,96.7,283.6,86.1,273.8z"/>
					</g>
				</g>
			</g>
			<g>
				<path class="st6" d="M67.2,325.5v27.8c0,3.1,37.8,3.1,37.8,0v-27.8H67.2z M88.1,340.2v7.9c0,1-0.9,1.9-1.9,1.9
					c-1.1,0-1.9-0.9-1.9-1.9v-7.9c-1.6-0.7-2.8-2.4-2.8-4.2c0-2.6,2.1-4.7,4.7-4.7c2.6,0,4.7,2.1,4.7,4.7
					C90.8,337.9,89.7,339.5,88.1,340.2z"/>
				<path class="st6" d="M101.7,323.5h-3.8v-1.9c0-6.5-5.3-11.8-11.8-11.8c-6.5,0-11.8,5.3-11.8,11.8v1.9h-3.8v-1.9
					c0-8.6,7-15.6,15.6-15.6c8.6,0,15.6,7,15.6,15.6V323.5z"/>
			</g>
		</g>
		<g>
			<g>
				<rect x="297.8" y="37.3" class="st7" width="68.3" height="85.2"/>
			</g>
			<g>
				<rect x="306.6" y="46.1" class="st9" width="68.3" height="85.2"/>
			</g>
			<g>
				<rect x="317.9" y="54.7" class="st10" width="68.3" height="85.2"/>
			</g>
			<g>
				<rect x="326.1" y="63.5" class="st11" width="68.3" height="85.2"/>
				<rect x="348.4" y="77.5" class="st7" width="35.3" height="5.5"/>
				<rect x="338" y="90.5" class="st7" width="45.8" height="5.5"/>
				<rect x="338" y="103.5" class="st7" width="45.8" height="5.5"/>
				<rect x="338" y="116.6" class="st7" width="45.8" height="5.5"/>
				<rect x="338" y="129.6" class="st7" width="45.8" height="5.5"/>
			</g>
		</g>
		<g>
			<ellipse class="st6" cx="147.9" cy="130" rx="24.1" ry="24.1"/>
			<g>
				<path class="st7" d="M186,152.9c3.1-5.2,5.1-10.8,5.9-16.4l1.8,0.3l3.5,0.5l0,0c1-6.5,0.6-13-0.9-19.3l-5.3,1.3
					c-1.4-5.7-3.9-11-7.5-15.8l4.4-3.3c-3.7-5.1-8.6-9.5-14.3-13l-2.8,4.7c-5.2-3.1-10.8-5.1-16.5-5.9l0.8-5.4
					c-6.5-1-13-0.6-19.3,0.9l1.3,5.3c-5.7,1.4-11.1,3.9-15.8,7.5l-3.3-4.4c-5.1,3.7-9.5,8.5-13,14.3l4.7,2.8
					c-3.1,5.2-5.1,10.8-5.9,16.4l-3.8-0.6l-1.6-0.2l0,0c-1,6.5-0.6,13,0.9,19.3l5.3-1.3c1.4,5.7,3.9,11.1,7.5,15.8l-4.4,3.3
					c3.7,5.1,8.5,9.5,14.3,13l2.8-4.7c5.2,3.1,10.8,5.1,16.5,5.9l-0.6,4.2l-0.2,1.2c6.5,1,13,0.6,19.3-0.9l-1.3-5.3
					c5.7-1.4,11.1-3.9,15.8-7.5l3.3,4.4c5.1-3.8,9.5-8.5,13-14.3L186,152.9z M135.5,150.7c-11.4-6.9-15.1-21.7-8.2-33.1
					c6.9-11.4,21.7-15.1,33.1-8.2c11.4,6.9,15.1,21.7,8.2,33.1C161.7,153.9,146.9,157.5,135.5,150.7z"/>
			</g>
			<g>
				<path class="st12" d="M95.7,149.7c-1.8-2.7-4-4.9-6.5-6.5l0.5-0.8l1.1-1.6l0,0c-2.9-1.9-6-3.2-9.4-3.9l-0.6,2.8
					c-3-0.6-6.1-0.6-9.2,0l-0.6-2.8c-3.3,0.6-6.5,1.9-9.4,3.9l1.6,2.4c-2.7,1.8-4.9,4-6.5,6.5l-2.4-1.6c-1.9,2.9-3.2,6.1-3.9,9.4
					l2.8,0.6c-0.6,3-0.6,6.1,0,9.2l-2.8,0.6c0.6,3.3,1.9,6.5,3.9,9.4l2.4-1.6c1.8,2.7,4,4.9,6.5,6.5l-1.1,1.7l-0.5,0.7l0,0
					c2.9,1.9,6.1,3.2,9.4,3.9l0.6-2.8c3,0.6,6.1,0.6,9.2,0l0.6,2.8c3.3-0.6,6.5-1.9,9.4-3.9l-1.6-2.4c2.7-1.8,4.9-4,6.5-6.5l1.9,1.2
					l0.5,0.4c1.9-2.9,3.2-6,3.9-9.4l-2.8-0.6c0.6-3,0.6-6.1,0-9.2l2.8-0.6c-0.6-3.3-1.9-6.4-3.9-9.4L95.7,149.7z M83.2,173.2
					c-5.9,3.9-13.7,2.3-17.6-3.6c-3.9-5.8-2.3-13.7,3.6-17.6c5.8-3.9,13.7-2.3,17.6,3.6C90.6,161.5,89,169.4,83.2,173.2z"/>
			</g>
		</g>
		<g>
			<path class="st7" d="M486.3,198.7l-50.7,0c-3.4,0-6.2-2.8-6.2-6.2v-25.3c0-3.4,2.8-6.2,6.2-6.2h50.7c3.4,0,6.2,2.8,6.2,6.2v25.3
				C492.5,195.9,489.7,198.7,486.3,198.7z"/>
			<rect x="429.4" y="168.1" class="st0" width="63.1" height="6.5"/>
			<path class="st13" d="M443.9,191.5l-9.3,0c-0.6,0-1.1,0.5-1.1,1.1v0c0,0.6,0.5,1.1,1.1,1.1h9.3c0.6,0,1.1-0.5,1.1-1.1l0,0
				C444.9,192,444.5,191.5,443.9,191.5z"/>
			<path class="st13" d="M458.1,191.5h-9.3c-0.6,0-1.1,0.5-1.1,1.1l0,0c0,0.6,0.5,1.1,1.1,1.1h9.3c0.6,0,1.1-0.5,1.1-1.1l0,0
				C459.2,192,458.7,191.5,458.1,191.5z"/>
			<path class="st13" d="M472.4,191.5h-9.3c-0.6,0-1.1,0.5-1.1,1.1l0,0c0,0.6,0.5,1.1,1.1,1.1h9.3c0.6,0,1.1-0.5,1.1-1.1l0,0
				C473.5,192,473,191.5,472.4,191.5z"/>
			<path class="st13" d="M486.7,191.5h-9.3c-0.6,0-1.1,0.5-1.1,1.1l0,0c0,0.6,0.5,1.1,1.1,1.1h9.3c0.6,0,1.1-0.5,1.1-1.1l0,0
				C487.8,192,487.3,191.5,486.7,191.5z"/>
			<path class="st13" d="M434.2,162.9L434.2,162.9c-0.7,0-1.2,0.5-1.2,1.2v0.4c0,0.7,0.5,1.2,1.2,1.2l0,0c0.7,0,1.2-0.5,1.2-1.2
				v-0.4C435.3,163.5,434.8,162.9,434.2,162.9z"/>
			<path class="st13" d="M436.7,164.3L436.7,164.3c0,0.8,0.6,1.4,1.4,1.4h4.9c0.8,0,1.4-0.6,1.4-1.4l0,0c0-0.8-0.6-1.4-1.4-1.4h-4.9
				C437.3,162.9,436.7,163.5,436.7,164.3z"/>
			<path class="st0" d="M438.7,178.1h1.1c2.5,0,4.5,2,4.5,4.5v0.2c0,2.5-2,4.5-4.5,4.5h-1.1c-2.5,0-4.5-2-4.5-4.5v-0.2
				C434.2,180.2,436.2,178.1,438.7,178.1z"/>
		</g>
		<g>
			<g>
				<path class="st14" d="M467.1,294.8v-4.3c0-2-1.6-3.5-3.5-3.5h-37.7c-2,0-3.5,1.6-3.5,3.5v76.2h97.6v-71.9H467.1z"/>
				<polygon class="st6" points="523.9,297.4 428.2,297.4 422.2,366.7 519.4,366.7 				"/>
				<path class="st7" d="M519.9,366.7h-97.6l10.4-68.4c0.3-2,2-3.5,4-3.5H526c2.5,0,4.4,2.2,4,4.7L519.9,366.7z"/>
			</g>
			<g>
				<g>
					<ellipse class="st0" cx="530.1" cy="297.4" rx="22.4" ry="22.4"/>
					<path class="st6" d="M530.1,320.6c-12.8,0-23.2-10.4-23.2-23.2c0-12.8,10.4-23.2,23.2-23.2c12.8,0,23.2,10.4,23.2,23.2
						C553.3,310.2,542.9,320.6,530.1,320.6z M530.1,275.9c-11.9,0-21.6,9.7-21.6,21.5c0,11.9,9.7,21.5,21.6,21.5s21.6-9.7,21.6-21.5
						C551.6,285.6,542,275.9,530.1,275.9z"/>
				</g>
				<g>
					<path class="st6" d="M519.3,293.4v15.8c0,1.8,21.5,1.8,21.5,0v-15.8H519.3z M531.2,301.8v4.5c0,0.6-0.5,1.1-1.1,1.1
						c-0.6,0-1.1-0.5-1.1-1.1v-4.5c-0.9-0.4-1.6-1.3-1.6-2.4c0-1.5,1.2-2.7,2.7-2.7c1.5,0,2.7,1.2,2.7,2.7
						C532.7,300.5,532.1,301.4,531.2,301.8z"/>
					<path class="st6" d="M539,292.3h-2.2v-1.1c0-3.7-3-6.7-6.7-6.7c-3.7,0-6.7,3-6.7,6.7v1.1h-2.2v-1.1c0-4.9,4-8.9,8.9-8.9
						c4.9,0,8.9,4,8.9,8.9V292.3z"/>
				</g>
			</g>
		</g>
	</g>
	<ellipse class="st15" cx="452.4" cy="110.4" rx="8.6" ry="8.6"/>
	<ellipse class="st15" cx="227.5" cy="142.3" rx="8.6" ry="8.6"/>
	<ellipse class="st6" cx="512.5" cy="256.2" rx="4.5" ry="4.5"/>
	
		<ellipse transform="matrix(1 -1.177089e-03 1.177089e-03 1 -0.3115 5.141468e-02)" class="st15" cx="43.5" cy="264.6" rx="4.5" ry="4.5"/>
	<ellipse class="st15" cx="113.6" cy="427.8" rx="8.6" ry="8.6"/>
	<g>
		<path class="st15" d="M251.1,57.4L251.1,57.4c-0.8,0-1.5-0.7-1.5-1.5V40c0-0.8,0.7-1.5,1.5-1.5l0,0c0.8,0,1.5,0.7,1.5,1.5v15.9
			C252.5,56.7,251.9,57.4,251.1,57.4z"/>
		<path class="st15" d="M241.6,47.9L241.6,47.9c0-0.8,0.7-1.5,1.5-1.5H259c0.8,0,1.5,0.7,1.5,1.5l0,0c0,0.8-0.7,1.5-1.5,1.5h-15.9
			C242.3,49.4,241.6,48.7,241.6,47.9z"/>
	</g>
	<g>
		<path class="st6" d="M420,261.2L420,261.2c-0.8,0-1.5-0.7-1.5-1.5v-15.9c0-0.8,0.7-1.5,1.5-1.5l0,0c0.8,0,1.5,0.7,1.5,1.5v15.9
			C421.5,260.5,420.8,261.2,420,261.2z"/>
		<path class="st6" d="M410.5,251.8L410.5,251.8c0-0.8,0.7-1.5,1.5-1.5h15.9c0.8,0,1.5,0.7,1.5,1.5l0,0c0,0.8-0.7,1.5-1.5,1.5H412
			C411.2,253.3,410.5,252.6,410.5,251.8z"/>
	</g>
	<g>
		<path class="st6" d="M403.8,470.3L403.8,470.3c-0.8,0-1.5-0.7-1.5-1.5v-15.9c0-0.8,0.7-1.5,1.5-1.5l0,0c0.8,0,1.5,0.7,1.5,1.5
			v15.9C405.3,469.6,404.6,470.3,403.8,470.3z"/>
		<path class="st6" d="M394.4,460.9L394.4,460.9c0-0.8,0.7-1.5,1.5-1.5h15.9c0.8,0,1.5,0.7,1.5,1.5l0,0c0,0.8-0.7,1.5-1.5,1.5h-15.9
			C395.1,462.3,394.4,461.7,394.4,460.9z"/>
	</g>
	<ellipse class="st16" cx="271.6" cy="351.8" rx="4.8" ry="4.7"/>
</g>
<g>
	<g>
		<polygon class="st2" points="388.3,786.6 369.7,786.6 367.8,746.2 390.3,746.2 		"/>
		<polygon class="st2" points="711.4,786.6 692.8,786.6 690.9,746.2 713.3,746.2 		"/>
		<path class="st7" d="M695.2,676.1c-2,6.4-4.3,12.9-6.7,19.6H379.9c0,0-39.8-162,0-191.6c1-0.8,2.2-1.5,3.7-2.2
			c53.6-27.5,268.7-34,312.4,1.4c0.3,0.3,0.6,0.5,0.9,0.8C712.9,518.8,726.9,577.7,695.2,676.1z"/>
		<path class="st17" d="M496.2,695.6H379.9l11.3-113.5C411.6,590.9,465.5,637.3,496.2,695.6z"/>
		<path class="st17" d="M695.2,676.1c-2,6.4-4.3,12.9-6.7,19.6H576.4c19.3-35.7,66-89.8,111.4-114.7L695.2,676.1z"/>
		<path class="st18" d="M733.9,580.5h-42.8c-7.2,0-13.3,5.3-14.2,12.4l-13.6,103.1H413.2L399.5,593c-0.9-7.1-7-12.4-14.2-12.4h-42.8
			c-8.9,0-15.7,8.1-14.1,16.8l23.8,171.7h23.5v0h347.8v0h0.8L748,597.4C749.6,588.6,742.8,580.5,733.9,580.5z"/>
		<g>
			<g>
				<path class="st19" d="M660.7,639.8c20.1,6.7,16.2,49.3,0,55.9H416.5c-18.2-4.7-19.8-61,6.5-56.8
					C584,669.1,591.8,620.8,660.7,639.8z"/>
			</g>
		</g>
	</g>
	<g>
		<path class="st20" d="M474.6,596.6c-0.1,11,0.5,21.3,1.7,30.4h114.5l6.8-111.7c-6.8-40.8-25.4-50.7-54.9-50.7
			c-26.4,0-44,21.5-54.6,50.3C478.8,539.7,474.7,570,474.6,596.6z"/>
		<path class="st21" d="M474.6,598.8l41.4-2.5c-23-7.5-24.8-42.8-1.4-64.8l-26.5-16.6C478.8,539.7,474.7,572.2,474.6,598.8z"/>
		<polygon class="st1" points="466.7,650.1 624,650.1 624,596.6 482.3,596.6 		"/>
		<g>
			<g>
				<path class="st1" d="M644.1,633.1l-42.3,153.4l-33,0c10.4-65.3,8.1-107.7,17.9-162C595.4,580.1,654.4,591.9,644.1,633.1z"/>
			</g>
			<g>
				<path class="st22" d="M590,786.6c0-0.1,0-0.2,0-0.3c0-11.4,9.2-20.6,20.6-20.6s20.6,9.2,20.6,20.6c0,0.1,0,0.2,0,0.3H590z"/>
				<path class="st22" d="M614.6,766.1l-7.5-2.3c-4.9-9.7-26-8.5-23.1,3.3c-8.3,1.2-12.6-2.9-12.6-2.9l-2.5,22.4h44.7L614.6,766.1z"
					/>
			</g>
		</g>
		<g>
			<g>
				<path class="st1" d="M458.6,633.1l42.3,153.4l33,0c-10.4-65.3-8.1-107.7-17.9-162C507.3,580.1,448.3,591.9,458.6,633.1z"/>
			</g>
			<g>
				<path class="st22" d="M512.7,786.6c0-0.1,0-0.2,0-0.3c0-11.4-9.2-20.6-20.6-20.6c-11.4,0-20.6,9.2-20.6,20.6c0,0.1,0,0.2,0,0.3
					H512.7z"/>
				<path class="st22" d="M488.1,766.1l7.5-2.3c4.9-9.7,26-8.5,23.1,3.3c8.3,1.2,12.6-2.9,12.6-2.9l2.5,22.4h-44.7L488.1,766.1z"/>
			</g>
		</g>
		<path class="st20" d="M525,468.2c15.5,9.4,17.7,37.2,9.7,48.3l-44.1,32.8l44.9,23.1l-7.3,23.9c0,0-46.9-3.8-69.8-27.3
			C436.4,546.4,490.1,480,525,468.2z"/>
		<path class="st20" d="M556.4,510.4c-13.2-16.6-4.1-42.2,12.8-41.5c54.9,19.3,71.8,72.9,54.4,97c-14.9,20.6-80.4,28.6-80.4,28.6
			v-22.6l45.5-9.8C588.7,562,565.2,525.7,556.4,510.4z"/>
		<g>
			<path class="st23" d="M508.3,588.7c-0.9-7.6,3.6-17,15-19.1c19.9-3.6,27.1,7.3,29,15.1c0.5,2-1.4,4.2-3.1,4
				c-1.7-0.2-2.9-1.2-3.2-2.7c-0.4-1.9-1.3-4.2-3.5-5.4c2.1,4,1.2,8.1-4.4,8.1H508.3z"/>
			<g>
				<path class="st24" d="M553.2,588.7l15.6-78.4h3.3c-1.1,5.4-16.5,83.9-16.9,86.3c-4.1,0-41.8,0-46.9,0l-5.1-7.9H553.2z"/>
				<polygon class="st6" points="572.2,510.3 688.6,510.3 671.4,596.6 555.2,596.6 				"/>
			</g>
		</g>
		<g>
			<g>
				<path class="st23" d="M538.2,473.8c0,8.9,26.8,14.8,35.5,5.5c1.3-1.4,2.2-3.2,2.6-5.3l5-22.6l-32-12l-1,3L538.2,473.8z"/>
				<path class="st25" d="M576.3,474l5-22.6l-30.2-8.1C543.3,466.5,571.2,485.1,576.3,474z"/>
			</g>
			<path class="st23" d="M547,430.6c-1.7,22.2,15.9,41.8,30.6,42.8c14.7,1,35-15.5,36.7-37.7c1.7-22.2-12-41.4-30.6-42.8
				C565.1,391.6,548.7,408.4,547,430.6z"/>
			<path class="st2" d="M571.7,394.6c20.4-12.9,31.6-0.8,41.7,12.1c7.1,9,12.2,15.5,21,16.9c-17,21.5-51.1,7.3-61.9-14.2
				c-1.1,12.3-15.5,22.4-25.5,21.2C543.8,417,553.2,389.4,571.7,394.6z"/>
			<ellipse class="st23" cx="550.9" cy="430.9" rx="8.9" ry="8.9"/>
		</g>
	</g>
</g>
</svg>
