<?xml version="1.0" encoding="utf-8"?>
<!-- Generator: Adobe Illustrator 25.4.1, SVG Export Plug-In . SVG Version: 6.00 Build 0)  -->
<svg version="1.1" xmlns="http://www.w3.org/2000/svg" xmlns:xlink="http://www.w3.org/1999/xlink" x="0px" y="0px" width="750px"
	 height="500px" viewBox="0 0 750 500" style="enable-background:new 0 0 750 500;" xml:space="preserve">
<style type="text/css">
	.st0{fill:#E0E0E0;}
	.st1{fill:#FFFFFF;}
	.st2{fill:#EBEBEB;}
	.st3{fill:#F5F5F5;}
	.st4{display:none;}
	.st5{display:inline;}
	.st6{fill:#263238;}
	.st7{fill:#FAFAFA;}
	.st8{fill:#FFBE9D;}
	.st9{fill:#EB996E;}
	.st10{fill:#455A64;}
	.st11{fill:#FBB11B;}
	.st12{opacity:0.3;}
	.st13{fill:#FF725E;}
	.st14{opacity:0.6;}
	.st15{opacity:0.5;}
	.st16{opacity:0.4;}
	.st17{opacity:0.2;}
</style>
<g id="Background_Complete">
	<g>
		<g>
			<g>
				<polygon class="st0" points="697.5,48.3 697.5,164.6 530.4,164.6 524.4,49.1 				"/>
			</g>
		</g>
		<g>
			<g>
				
					<rect x="550.3" y="23.2" transform="matrix(6.123234e-17 -1 1 6.123234e-17 501.1949 714.688)" class="st1" width="115.3" height="167.1"/>
			</g>
			<g>
				<path class="st0" d="M692.3,165.2H523.6V48.3h168.7V165.2z M525.2,163.6h165.5V49.9H525.2V163.6z"/>
			</g>
		</g>
		<g>
			<g>
				<g>
					<rect x="542.5" y="63.4" class="st1" width="130.9" height="86.6"/>
				</g>
			</g>
			<g>
				<g>
					<g>
						<path class="st0" d="M673.4,63.4c0,0-0.2,0-0.6,0c-0.4,0-1.1,0-1.9,0c-1.7,0-4.1,0-7.2,0c-6.3,0-15.4,0.1-27,0.1
							c-23.1,0-55.8,0.1-94.2,0.2l0.4-0.4c0,26.5,0,55.8,0,86.6v0l-0.4-0.4c49.4,0,94.9,0.1,130.9,0.1l-0.3,0.3
							c0.1-26.4,0.1-48,0.2-63c0-7.5,0.1-13.4,0.1-17.4c0-2,0-3.5,0-4.6C673.4,64,673.4,63.4,673.4,63.4s0,0.5,0,1.5
							c0,1,0,2.6,0,4.5c0,4,0,9.9,0.1,17.4c0,15.1,0.1,36.8,0.2,63.2l0,0.3l-0.3,0c-36,0-81.5,0.1-130.9,0.1l-0.4,0v-0.4v0
							c0-30.8,0-60.2,0-86.6l0-0.4l0.4,0c38.6,0.1,71.3,0.1,94.5,0.2c11.5,0,20.6,0.1,26.9,0.1c3.1,0,5.5,0,7.1,0c0.8,0,1.4,0,1.8,0
							C673.2,63.4,673.4,63.4,673.4,63.4z"/>
					</g>
				</g>
			</g>
		</g>
		<g>
			<g>
				<g>
					<path class="st0" d="M524.4,48.8c0.1-0.1,1.2,0.6,2.9,1.9c1.7,1.2,4,3,6.6,5c2.5,2,4.7,3.9,6.3,5.3c1.6,1.4,2.5,2.4,2.4,2.4
						c-0.2,0.2-4.2-3.1-9.2-7.1C528.3,52.3,524.2,49,524.4,48.8z"/>
				</g>
			</g>
		</g>
		<g>
			<g>
				<g>
					<path class="st0" d="M691.5,49.1c0.1,0.2-3.8,3.5-8.8,7.5c-5,4-9.2,7-9.3,6.8c-0.1-0.2,3.8-3.5,8.8-7.5
						C687.2,52,691.4,48.9,691.5,49.1z"/>
				</g>
			</g>
		</g>
		<g>
			<g>
				<g>
					<path class="st1" d="M691.4,164.4c-6.2-5-12.4-10.1-18.6-15.1"/>
				</g>
			</g>
			<g>
				<g>
					<g>
						<path class="st0" d="M672.7,149.3c0.1-0.2,4.4,3.1,9.6,7.2c5.1,4.2,9.2,7.7,9.1,7.9c-0.1,0.2-4.4-3.1-9.6-7.2
							C676.6,153,672.6,149.5,672.7,149.3z"/>
					</g>
				</g>
			</g>
		</g>
		<g>
			<g>
				<g>
					<path class="st0" d="M524.4,164.4c-0.1-0.2,3.8-3.5,8.7-7.4c4.9-3.9,9.1-6.9,9.2-6.8c0.1,0.2-3.8,3.5-8.7,7.4
						C528.7,161.5,524.5,164.6,524.4,164.4z"/>
				</g>
			</g>
		</g>
		<g>
			<g>
				
					<rect x="595.7" y="63.7" transform="matrix(6.123234e-17 -1 1 6.123234e-17 505.3266 715.177)" class="st0" width="29" height="82.4"/>
			</g>
		</g>
	</g>
	<g>
		<g>
			<g>
				<g>
					<g>
						<path class="st2" d="M660.6,346.9c5.9-3,12.8-3.4,19.3-2.4c3.5,0.6,7.2,1.6,9.6,4.3c2.4,2.6,2.8,7.3,0.1,9.5
							c-1.6,1.3-3.9,1.6-6,1.5c-5.1-0.1-10.8-1-14.9,2.1c-2.3,1.8-3.9,4.7-6.7,5.5c-2.7,0.8-5.8-0.8-7.2-3.2
							c-1.4-2.5-1.5-5.5-0.8-8.3C654,356,654.7,349.9,660.6,346.9z"/>
					</g>
				</g>
			</g>
			<g>
				<g>
					<g>
						<path class="st2" d="M647.1,320.8c3.6,5.1,10.6,3.4,13.8,0.3c3.2-3.1,4.6-7.7,5.9-12c2.9-9.9,5.7-20.3,3.6-30.4
							c-0.6-3-1.8-6-3.9-8.3c-2.1-2.2-5.4-3.6-8.4-2.8c-3.5,0.9-5.7,4.4-7.3,7.7c-4.7,9.7-7.1,20.4-7.2,31.1
							C643.7,311.4,644.3,316.7,647.1,320.8"/>
					</g>
				</g>
			</g>
			<g>
				<g>
					<g>
						<path class="st2" d="M637.2,328.2c3.9-4.6,4.6-11.4,2.9-17.2c-1.7-5.8-5.7-10.8-10.2-14.8c-5.3-4.7-11.5-8.4-18.3-10.8
							c-2.6-0.9-5.4-1.7-8.2-1.4c-2.8,0.3-5.6,1.7-6.9,4.2c-1.9,3.7-0.1,8.1,1.9,11.7c3.5,6.4,7.5,12.5,12,18.3
							c3.6,4.6,7.7,9.2,13.2,11.3c5.5,2.1,11.2,1.8,14.1-2"/>
					</g>
				</g>
			</g>
			<g>
				<g>
					<g>
						<g>
							<path class="st0" d="M646.9,398.4c0.1,0,0.2-0.8,0.3-2.3c0.2-1.7,0.4-3.8,0.6-6.4c0.3-2.7,0.7-5.9,1.4-9.3
								c0.7-3.5,1.9-7.2,3.4-11c1.5-3.8,3.4-7.2,5.6-10c2.2-2.8,4.7-4.8,7.1-5.9c2.4-1.2,4.5-1.7,6-1.9c1.5-0.2,2.3-0.3,2.3-0.3
								c0-0.1-0.8-0.1-2.4,0c-1.5,0.1-3.7,0.5-6.3,1.6c-2.5,1.1-5.2,3.2-7.5,6c-2.3,2.8-4.3,6.3-5.8,10.2c-1.5,3.9-2.7,7.7-3.4,11.2
								c-0.7,3.5-1,6.8-1.2,9.5c-0.2,2.7-0.3,4.9-0.3,6.4C646.8,397.5,646.8,398.4,646.9,398.4z"/>
						</g>
					</g>
				</g>
			</g>
			<g>
				<g>
					<g>
						<g>
							<path class="st0" d="M647.3,393.5c0,0,0.1-0.4,0.1-1.1c0-0.8,0-1.8,0-3.1c0-2.7,0-6.6,0.1-11.4c0.2-9.6,1.1-20,2.7-34.5
								c1.5-13.7,3.5-29.7,5.7-40c0.5-2.4,0.9-4.5,1.4-6.3c0.4-1.9,0.8-3.5,1.1-4.8c0.3-1.2,0.5-2.2,0.7-3c0.2-0.7,0.2-1.1,0.2-1.1
								c0,0-0.2,0.3-0.4,1c-0.2,0.8-0.5,1.8-0.9,3c-0.4,1.3-0.8,2.9-1.3,4.7c-0.5,1.9-1,4-1.5,6.3c-2.1,9.4-4.4,22.5-6,37.2
								c-1.6,14.6-2.3,27.9-2.4,37.6c-0.1,4.8,0,8.7,0.2,11.4c0.1,1.3,0.1,2.3,0.2,3.1C647.2,393.1,647.3,393.5,647.3,393.5z"/>
						</g>
					</g>
				</g>
			</g>
			<g>
				<g>
					<g>
						<g>
							<path class="st0" d="M647.4,367.8c0.1,0,0.1-1.2,0-3.2c-0.1-2.1-0.4-5.1-1-8.8c-0.6-3.7-1.5-8-2.9-12.8
								c-0.6-2.2-2-7.4-5.3-15.1c-4.4-10.5-10.5-19.1-15.7-24.4c-1.2-1.4-2.6-2.4-3.7-3.4c-0.6-0.5-1.1-1-1.6-1.3
								c-0.5-0.4-1-0.7-1.4-1c-1.7-1.2-2.7-1.8-2.7-1.7c-0.2,0.2,3.9,2.6,8.9,8c5.1,5.4,10.9,13.9,15.3,24.3
								c2.5,5.7,4.2,10.7,5.4,15c1.4,4.7,2.3,9,3,12.7c0.7,3.6,1.1,6.6,1.3,8.7C647.2,366.6,647.3,367.8,647.4,367.8z"/>
						</g>
					</g>
				</g>
			</g>
		</g>
		<g>
			<g>
				<g>
					<polygon class="st0" points="622.6,413.1 625.1,448.3 670.4,448.3 673,413.1 					"/>
				</g>
			</g>
		</g>
		<g>
			<g>
				<g>
					<rect x="618.2" y="399.2" class="st0" width="60.2" height="13.9"/>
				</g>
			</g>
		</g>
		<g>
			<g>
				<g>
					<polygon class="st2" points="618.2,446.9 618.2,450.8 621,450.8 677.4,450.8 677.4,446.9 					"/>
				</g>
			</g>
		</g>
		<g>
			<g>
				<g>
					<polygon class="st0" points="623.8,457.6 621,450.8 675.2,450.8 672,457.6 					"/>
				</g>
			</g>
		</g>
		<g>
			<g>
				<g>
					<g>
						<path class="st3" d="M672.1,424.6c0,0-0.1,0.1-0.2,0.3c-0.2,0.2-0.4,0.5-0.7,0.9c-0.6,0.8-1.5,2-2.6,3.4l-0.1,0.1l-0.1-0.2
							c-1.7-2.3-3.9-5.4-6.5-9h0.4c-1.9,2.7-4.1,5.8-6.4,9l-0.2,0.3l-0.2-0.3c-2.4-2.8-4.9-5.8-7.6-9l0.4,0
							c-0.1,0.2-0.3,0.3-0.4,0.5c-2.3,2.9-4.6,5.8-6.8,8.5l-0.2,0.3l-0.2-0.3c-2.3-3.2-4.4-6.3-6.4-9l0.4,0c-3.1,3.6-5.8,6.6-7.9,9
							l-0.1,0.2l-0.1-0.2c-1-1.7-1.9-3.1-2.5-4.1c-0.3-0.4-0.5-0.8-0.6-1.1c-0.1-0.3-0.2-0.4-0.2-0.4c0,0,0.1,0.1,0.3,0.3
							c0.2,0.3,0.4,0.6,0.7,1.1c0.6,1,1.5,2.3,2.6,4.1l-0.2,0c2-2.4,4.6-5.4,7.7-9.1l0.2-0.2l0.2,0.2c2,2.7,4.1,5.8,6.4,9l-0.4,0
							c2.1-2.7,4.4-5.5,6.7-8.5c0.1-0.2,0.3-0.4,0.4-0.5l0.2-0.3l0.2,0.3c2.6,3.2,5.2,6.2,7.5,9l-0.4,0c2.3-3.2,4.5-6.3,6.4-9
							l0.2-0.3l0.2,0.3c2.6,3.6,4.7,6.7,6.3,9.1l-0.2,0c1.2-1.4,2.1-2.5,2.7-3.3c0.3-0.3,0.5-0.6,0.7-0.9
							C672,424.7,672.1,424.6,672.1,424.6z"/>
					</g>
				</g>
			</g>
		</g>
		<g>
			<g>
				<g>
					<g>
						<path class="st3" d="M673.6,412.8c0,0.2-11.3,0.3-25.3,0.3c-14,0-25.3-0.1-25.3-0.3c0-0.2,11.3-0.3,25.3-0.3
							C662.3,412.5,673.6,412.7,673.6,412.8z"/>
					</g>
				</g>
			</g>
		</g>
		<g>
			<g>
				<g>
					<g>
						<path class="st3" d="M675.9,451.2c0,0.2-12.3,0.3-27.5,0.3c-15.2,0-27.5-0.1-27.5-0.3c0-0.2,12.3-0.3,27.5-0.3
							C663.6,450.9,675.9,451,675.9,451.2z"/>
					</g>
				</g>
			</g>
		</g>
	</g>
	<g>
		<g>
			<g>
				<g>
					<g>
						<g>
							<path class="st3" d="M63.7,375.6c0,0.8,0,45.5,0,45.5h-7.6v4.9h7.6v30.5h142.1v-27.7h-10.5v-6h10.5v-9.1h4.7v-4.1h-5.6v-34
								H63.7z"/>
						</g>
					</g>
				</g>
			</g>
			<g>
				<g>
					<g>
						<g>
							<polygon class="st0" points="168.1,375.8 168.1,456.1 205.8,456.1 205.8,428.4 195.3,428.4 195.3,422.8 205.8,423 205.8,414 
								210.6,414 210.5,409.3 204.9,409.1 204.9,375.6 							"/>
						</g>
					</g>
				</g>
			</g>
			<g>
				<g>
					<g>
						<g>
							<g>
								<path class="st0" d="M170.8,425.5c0,0.3-25.7,0.5-57.4,0.5c-31.7,0-57.4-0.2-57.4-0.5c0-0.3,25.7-0.5,57.4-0.5
									C145,425,170.8,425.2,170.8,425.5z"/>
							</g>
						</g>
					</g>
				</g>
			</g>
			<g>
				<g>
					<g>
						<g>
							<g>
								<path class="st0" d="M170.8,420.8c0,0.3-25.7,0.5-57.4,0.5c-31.7,0-57.4-0.2-57.4-0.5c0-0.3,25.7-0.5,57.4-0.5
									C145,420.3,170.8,420.6,170.8,420.8z"/>
							</g>
						</g>
					</g>
				</g>
			</g>
			<g>
				<g>
					<g>
						<g>
							<g>
								<path class="st0" d="M178.1,408.4c0,0.3-25.7,0.5-57.4,0.5c-31.7,0-57.4-0.2-57.4-0.5c0-0.3,25.7-0.5,57.4-0.5
									C152.4,407.9,178.1,408.1,178.1,408.4z"/>
							</g>
						</g>
					</g>
				</g>
			</g>
			<g>
				<g>
					<g>
						<g>
							<g>
								<path class="st0" d="M178.9,442.3c0,0.3-25.7,0.5-57.4,0.5c-31.7,0-57.4-0.2-57.4-0.5c0-0.3,25.7-0.5,57.4-0.5
									C153.1,441.8,178.9,442,178.9,442.3z"/>
							</g>
						</g>
					</g>
				</g>
			</g>
		</g>
	</g>
</g>
<g id="Background_Simple" class="st4">
	<g class="st5">
		<path class="st3" d="M578.6,95.8l-2.7-4.5c-22.9-37.7-64.3-60.5-107.9-57.7c-5.6,0.4-11.2,1.1-16.7,2.3
			c-39.7,8.5-74.2,38.5-88.5,76.9c-8.4,22.6-10.8,48.6-26.7,66.6c-20.8,23.3-56.1,24.1-87.1,23.1s-66.3-0.1-87,23.3
			c-13,14.7-17.1,35.5-16,55.2c2.8,52,39,98.6,85.1,121.7c46.1,23.1,100.4,25.2,150.9,15c70.7-14.3,137.9-53.4,178.4-113.8
			C600.7,243.4,610.9,161.1,578.6,95.8z"/>
	</g>
	<g class="st5">
		<ellipse transform="matrix(0.228 -0.9737 0.9737 0.228 109.739 325.472)" class="st3" cx="260.1" cy="93.5" rx="37.3" ry="37.3"/>
	</g>
</g>
<g id="Device">
	<g>
		<path class="st6" d="M126.8,336.5L126.8,336.5c1.8-0.8,4-0.1,4.9,1.7l57.9,112.6h110c3.8,0,6.9,3.1,6.9,6.9l0,0H183.9l-58.8-116.1
			C124.1,339.6,124.9,337.3,126.8,336.5z"/>
	</g>
</g>
<g id="Screen">
	<g>
		<g>
			<g>
				<path class="st6" d="M620.4,300.8c0,0.1-22.4,0.3-50,0.3c-27.6,0-50-0.1-50-0.3s22.4-0.3,50-0.3
					C598,300.5,620.4,300.6,620.4,300.8z"/>
			</g>
		</g>
		<g>
			<g>
				<path class="st6" d="M665.1,291.7c0,0.1-26.2,0.3-58.4,0.3c-32.3,0-58.4-0.1-58.4-0.3c0-0.1,26.1-0.3,58.4-0.3
					C638.9,291.5,665.1,291.6,665.1,291.7z"/>
			</g>
		</g>
	</g>
	<g>
		<g>
			<polygon class="st7" points="423.4,331.2 182.9,331.2 220.8,134.7 460.6,138 			"/>
		</g>
		<g>
			<polygon class="st2" points="220.8,134.7 217.7,151 457.6,153.6 460.6,138 			"/>
		</g>
		<g>
			<g>
				<path class="st6" d="M423.4,331.2c0,0,0.2-1.2,0.7-3.5c0.4-2.3,1.1-5.8,2-10.3c1.7-9,4.2-22.3,7.5-39.1
					c6.5-33.7,15.7-82,26.9-140.3l0.2,0.3c-68.6-0.9-151.1-2-239.7-3.2l0.3-0.2c-0.1,0.6-0.3,1.3-0.4,2
					c-13.6,70.4-26.4,136.8-37.6,194.5l-0.2-0.3c71.6,0,131.7,0.1,173.9,0.1c21.1,0,37.8,0,49.1,0.1c5.7,0,10.1,0,13,0
					c1.5,0,2.6,0,3.3,0C423,331.2,423.4,331.2,423.4,331.2s-0.4,0-1.1,0c-0.8,0-1.9,0-3.3,0c-2.9,0-7.3,0-13,0
					c-11.4,0-28,0-49.1,0.1c-42.3,0-102.4,0.1-174,0.1l-0.3,0l0.1-0.3c11.1-57.7,24-124.1,37.5-194.5c0.1-0.7,0.3-1.4,0.4-2l0-0.2
					l0.2,0c88.7,1.2,171.1,2.3,239.7,3.3l0.3,0l0,0.3c-11.3,58.3-20.6,106.6-27.1,140.4c-3.3,16.9-5.8,30.1-7.6,39.1
					c-0.9,4.5-1.5,7.9-2,10.3C423.6,330,423.4,331.2,423.4,331.2z"/>
			</g>
		</g>
		<g>
			<g>
				<path class="st6" d="M327.9,306.7c0,0.1-22.4,0.3-50,0.3c-27.6,0-50-0.1-50-0.3s22.4-0.3,50-0.3
					C305.5,306.4,327.9,306.5,327.9,306.7z"/>
			</g>
		</g>
		<g>
			<g>
				<path class="st6" d="M388.6,297.7c0,0.1-29.7,0.3-66.4,0.3c-36.7,0-66.4-0.1-66.4-0.3s29.7-0.3,66.4-0.3
					C358.8,297.4,388.6,297.5,388.6,297.7z"/>
			</g>
		</g>
		<g>
			<g>
				<path class="st6" d="M331.3,82.5c0,0.1-22.4,0.3-50,0.3c-27.6,0-50-0.1-50-0.3c0-0.1,22.4-0.3,50-0.3
					C308.9,82.2,331.3,82.4,331.3,82.5z"/>
			</g>
		</g>
		<g>
			<g>
				<path class="st6" d="M391.9,73.5c0,0.1-29.7,0.3-66.4,0.3c-36.7,0-66.4-0.1-66.4-0.3c0-0.1,29.7-0.3,66.4-0.3
					C362.2,73.2,391.9,73.3,391.9,73.5z"/>
			</g>
		</g>
		<g>
			<g>
				<path class="st0" d="M369.9,176.5c0,0.1-14.1,0.3-31.5,0.3c-17.4,0-31.5-0.1-31.5-0.3s14.1-0.3,31.5-0.3
					C355.8,176.3,369.9,176.4,369.9,176.5z"/>
			</g>
		</g>
		<g>
			<g>
				<path class="st0" d="M300.4,255.5c0,0.1-6.1,0.3-13.5,0.3c-7.5,0-13.5-0.1-13.5-0.3c0-0.1,6-0.3,13.5-0.3
					C294.4,255.3,300.4,255.4,300.4,255.5z"/>
			</g>
		</g>
		<g>
			<g>
				<path class="st0" d="M306.9,263.1c0,0.1-10.3,0.3-23.1,0.3c-12.8,0-23.1-0.1-23.1-0.3c0-0.1,10.3-0.3,23.1-0.3
					C296.6,262.8,306.9,262.9,306.9,263.1z"/>
			</g>
		</g>
		<g>
			<g>
				<path class="st0" d="M370.9,255.5c0,0.1-5,0.3-11.2,0.3c-6.2,0-11.2-0.1-11.2-0.3c0-0.1,5-0.3,11.2-0.3
					C365.9,255.3,370.9,255.4,370.9,255.5z"/>
			</g>
		</g>
		<g>
			<g>
				<path class="st0" d="M377.7,263.2c0,0.1-10.3,0.3-23.1,0.3c-12.8,0-23.1-0.1-23.1-0.3c0-0.1,10.3-0.3,23.1-0.3
					C367.4,262.9,377.7,263,377.7,263.2z"/>
			</g>
		</g>
	</g>
</g>
<g id="Character">
	<g>
		<g>
			<path class="st6" d="M456.5,115.8c-11.9,7.9-20.2,20.9-22.3,35c-1.4,9.3-0.1,18.7-0.8,28.1c-0.8,12.3-4.8,24.9-1.4,36.8
				c2.2,7.8,7.5,14.5,13.9,19.4c6.5,4.9,14.1,8,21.9,10.2c8.2,2.3,17.2,3.4,25.1,0.3c10-3.9,16.4-13.7,21.7-23.1
				c5.4-9.3,11-19.4,20.5-24.4"/>
		</g>
		<g>
			<path class="st6" d="M671.5,232.1c15.4-0.5,19-6.7,19-6.7s-0.2-16.4-0.1-23c0.2-7.1-0.2-15.6,0-22.1c-5,6.7-19.7,9-26.7,4.4
				c-6.9-4.6-13.4-15.9-27.1-21.8c-13.1-5.7-29.9,2.3-39.2,2.3c-21.8-0.2-14.4-28.9-35.2-35.4c-7.2-2.2-21.1,0.2-28.1-2.5
				c-11-4.3-16.9-21.1-27.6-26c-8.4-3.9-27.7-5.1-35.5-0.2c-7.9,4.9-11.6,7-15.9,15.2l46.8,87.1c8.1,15,22,26.2,38.5,30.4
				c8.1,2,15.8,5.3,20.1,9.4c8.7,8.3,18.9,17.5,30.8,16.4c9.1-0.8,16.7-7.5,25.6-9.6c11.1-2.6,22.4,2.2,33,6.3
				c10.8,4.2,23.4,7.6,33.7,2c-2-9.5-1.8-8.9-3.8-18.4c-10.5-0.7-20.8-5.1-28.5-12.4C657,228.6,665.8,232.2,671.5,232.1z"/>
		</g>
		<g>
			<g>
				<g>
					<g>
						<g>
							<g>
								<g>
									<g>
										<g>
											<g>
												<g>
													<g>
														<g>
															<g>
																<path class="st8" d="M441.3,152.8c1.8-15.9,13.4-34.9,29.2-32.4l48.9,15.1c4.8,0.8,8.2,5.1,7.9,9.9l-14,114.3
																	c-2.6,2.4-33.6,30.7-33.6,30.7l-18.4-33.7c0,0,0.8-20.2,0.8-20c0,0-20.2-4.4-23-31.2
																	C437.5,192,439.2,170.4,441.3,152.8z"/>
															</g>
														</g>
														<g>
															<g>
																<g>
																	<g>
																		<g>
																			<g>
																				<g>
																					<g>
																						<g>
																							<g>
																								<g>
																									<g>
																										<g>
																											<path class="st6" d="M447.3,173.7c-0.2,1.8,1.2,3.4,3.1,3.6c1.9,0.2,3.5-1.1,3.7-2.9
																												c0.2-1.8-1.2-3.4-3.1-3.6C449.1,170.6,447.5,171.9,447.3,173.7z"/>
																										</g>
																									</g>
																								</g>
																							</g>
																						</g>
																					</g>
																				</g>
																			</g>
																		</g>
																	</g>
																</g>
															</g>
															<g>
																<g>
																	<g>
																		<g>
																			<g>
																				<g>
																					<g>
																						<g>
																							<g>
																								<g>
																									<g>
																										<g>
																											<g>
																												<path class="st6" d="M445.7,166.4c0.4,0.5,3.1-1.3,6.7-1.1c3.7,0.1,6.3,2.2,6.7,1.7
																													c0.2-0.2-0.2-1-1.3-1.9c-1.1-0.9-3-1.8-5.3-1.9c-2.3-0.1-4.2,0.6-5.4,1.4
																													C445.9,165.4,445.5,166.2,445.7,166.4z"/>
																											</g>
																										</g>
																									</g>
																								</g>
																							</g>
																						</g>
																					</g>
																				</g>
																			</g>
																		</g>
																	</g>
																</g>
															</g>
														</g>
														<g>
															<g>
																<g>
																	<g>
																		<g>
																			<g>
																				<g>
																					<g>
																						<g>
																							<g>
																								<g>
																									<g>
																										<g>
																											<path class="st6" d="M482.2,175.8c-0.2,1.8,1.2,3.4,3.1,3.6c1.9,0.2,3.5-1.1,3.7-2.9
																												c0.2-1.8-1.2-3.4-3.1-3.6C484,172.7,482.3,174,482.2,175.8z"/>
																										</g>
																									</g>
																								</g>
																							</g>
																						</g>
																					</g>
																				</g>
																			</g>
																		</g>
																	</g>
																</g>
															</g>
															<g>
																<g>
																	<g>
																		<g>
																			<g>
																				<g>
																					<g>
																						<g>
																							<g>
																								<g>
																									<g>
																										<g>
																											<g>
																												<path class="st6" d="M482.2,168.4c0.4,0.5,3.1-1.3,6.7-1.1c3.7,0.1,6.3,2.2,6.7,1.7
																													c0.2-0.2-0.2-1-1.3-1.9c-1.1-0.9-3-1.8-5.3-1.9c-2.3-0.1-4.2,0.6-5.4,1.4
																													C482.5,167.4,482,168.2,482.2,168.4z"/>
																											</g>
																										</g>
																									</g>
																								</g>
																							</g>
																						</g>
																					</g>
																				</g>
																			</g>
																		</g>
																	</g>
																</g>
															</g>
														</g>
														<g>
															<g>
																<g>
																	<g>
																		<g>
																			<g>
																				<g>
																					<g>
																						<g>
																							<g>
																								<g>
																									<g>
																										<g>
																											<path class="st6" d="M466.7,193.3c0-0.2-2.2-0.7-5.9-1.4c-0.9-0.1-1.8-0.4-1.9-1
																												c-0.2-0.7,0.3-1.7,0.8-2.7c1-2.2,2-4.5,3.1-7c4.4-10,7.6-18.2,7.2-18.3c-0.4-0.2-4.3,7.8-8.6,17.7
																												c-1.1,2.5-2.1,4.8-3,7c-0.4,1-1.1,2.2-0.7,3.6c0.2,0.7,0.9,1.3,1.5,1.4c0.6,0.2,1.1,0.3,1.6,0.3
																												C464.4,193.4,466.7,193.5,466.7,193.3z"/>
																										</g>
																									</g>
																								</g>
																							</g>
																						</g>
																					</g>
																				</g>
																			</g>
																		</g>
																	</g>
																</g>
															</g>
														</g>
														<g>
															<g>
																<g>
																	<g>
																		<g>
																			<g>
																				<g>
																					<g>
																						<g>
																							<g>
																								<g>
																									<g>
																										<path class="st9" d="M462,236.6c0,0,17.8,2.1,36.1-7.7c0,0-9.9,17.8-36.4,14L462,236.6z"/>
																									</g>
																								</g>
																							</g>
																						</g>
																					</g>
																				</g>
																			</g>
																		</g>
																	</g>
																</g>
															</g>
														</g>
													</g>
												</g>
											</g>
											<g>
												<g>
													<g>
														<g>
															<g>
																<g>
																	<g>
																		<g>
																			<g>
																				<g>
																					<g>
																						<g>
																							<path class="st6" d="M480.7,154.2c0.3,1,4,0.7,8.3,1.5c4.3,0.7,7.7,2.1,8.3,1.2c0.3-0.4-0.3-1.4-1.6-2.4
																								c-1.3-1-3.5-2.1-6.1-2.5c-2.6-0.4-5-0.1-6.6,0.4C481.4,153,480.6,153.7,480.7,154.2z"/>
																						</g>
																					</g>
																				</g>
																			</g>
																		</g>
																	</g>
																</g>
															</g>
														</g>
													</g>
												</g>
											</g>
											<g>
												<g>
													<g>
														<g>
															<g>
																<g>
																	<g>
																		<g>
																			<g>
																				<g>
																					<g>
																						<g>
																							<path class="st6" d="M446.2,153.9c0.6,0.9,3.2,0.1,6.2,0.2c3,0,5.6,0.8,6.2,0c0.3-0.4-0.1-1.3-1.2-2.1
																								c-1.1-0.8-2.9-1.6-5-1.6c-2.1,0-3.9,0.6-5,1.4C446.3,152.7,445.9,153.5,446.2,153.9z"/>
																						</g>
																					</g>
																				</g>
																			</g>
																		</g>
																	</g>
																</g>
															</g>
														</g>
													</g>
												</g>
											</g>
										</g>
									</g>
								</g>
							</g>
						</g>
						<g>
							<g>
								<g>
									<g>
										<g>
											<g>
												<g>
													<g>
														<path class="st9" d="M464.4,204.6c0.5,1.6,1.1,3.2,2.1,4.6c1,1.4,2.4,2.5,4.1,2.7c1.8,0.2,3.6-0.8,4.6-2.2
															c1.1-1.4,1.5-3.3,1.5-5.1c0-1.6-0.6-3.6-2.2-3.9c-0.7-0.1-1.3,0.1-2,0.3c-2.9,1-5.7,2-8.6,3"/>
													</g>
												</g>
											</g>
										</g>
									</g>
								</g>
							</g>
							<g>
								<g>
									<g>
										<g>
											<g>
												<g>
													<g>
														<g>
															<path class="st6" d="M467.5,211.7c0.1-0.3,1.9,0.6,4.5-0.3c1.3-0.4,2.7-1.4,3.6-2.9c0.8-1.5,1.1-3.6,0.4-5.5
																c-0.2-0.5-0.4-0.9-0.7-1.3c-0.3-0.4-0.3-0.3-0.6-0.3c-0.3,0.1-0.9,0.3-1.4,0.5c-0.5,0.2-1,0.3-1.4,0.5
																c-1.8,0.6-3.5,1.2-4.9,1.7c-2.8,0.9-4.6,1.4-4.7,1.2c-0.1-0.2,1.6-1,4.3-2.2c1.4-0.6,3-1.2,4.8-2
																c0.5-0.2,0.9-0.4,1.4-0.5c0.5-0.2,0.9-0.4,1.6-0.6c0.3-0.1,0.8-0.1,1.3,0.1c0.4,0.2,0.7,0.5,0.9,0.8
																c0.4,0.5,0.7,1.1,0.9,1.6c0.9,2.4,0.5,4.9-0.6,6.7c-1.1,1.9-2.9,2.9-4.5,3.3c-1.5,0.4-2.8,0.2-3.7,0
																C467.8,212.1,467.4,211.8,467.5,211.7z"/>
														</g>
													</g>
												</g>
											</g>
										</g>
									</g>
								</g>
							</g>
						</g>
					</g>
				</g>
			</g>
		</g>
		<g>
			<g>
				<path class="st6" d="M536.6,157.9c-0.1,0.7-1.5,1.2-3.9,1.2c-2.4,0-6-0.6-10-2.3c-4-1.8-8.6-4.8-12.5-9.3
					c-1.9-2.3-3.5-4.6-5-6.2c-0.8-0.8-1.5-1.4-2.2-1.9c-0.7-0.4-1.4-0.7-2.4-0.9c-2-0.4-4.8-0.3-7.9-0.5c-3.2-0.1-6.3-0.6-9.1-1.4
					c-2.8-0.8-5.4-1.8-7.7-3c-2.3-1.2-4.3-2.5-6-3.8c-3.4-2.7-5.7-5.4-6.9-7.5c-0.6-1-1-1.9-1.1-2.6c-0.2-0.7-0.1-1.1,0.2-1.4
					c1.2-1,5,2.1,11.7,5.2c1.7,0.7,3.5,1.5,5.5,2.1c2,0.6,4.2,1.2,6.5,1.6c2.3,0.4,4.7,0.6,7.2,0.6c2.6,0,5.8-0.3,9.8,0.5
					c2,0.4,4.1,1.2,5.9,2.3c1.8,1.2,3.2,2.6,4.3,3.9c2.2,2.7,3.6,5.2,4.9,7c2.6,3.7,5.7,6.7,8.5,8.8
					C532.2,154.8,536.9,156.4,536.6,157.9z"/>
			</g>
		</g>
		<g>
			<path class="st6" d="M499.4,142.8c5.5,9.5,8.7,20.7,7.1,31.6c-2.1,14.1,1.7,15,7.4,10.8c14.4-10.6,11.5,15.7,15.2,23.1
				c4,8,13.6,11.6,22.5,12.5c8.9,0.9,18-0.3,26.8,1.6c7.2,1.6,13.9,5.1,20.9,7.4c7,2.3,15,3.4,21.6,0c-11.3-0.5-21.4-7.1-30.4-13.9
				c-9-6.9-17.9-14.5-28.7-17.8c-5.4-1.6-11.4-2.2-15.9-5.7c-7.5-5.8-7.6-16.8-8-26.2c-0.3-7.4-1.3-15-4.3-21.8
				c-3-6.8-8.3-12.9-15.3-15.6c-7-2.7-15.6-1.3-20.6,4.3"/>
		</g>
		<g>
			<g>
				<g>
					<g>
						<g>
							<g>
								<path class="st8" d="M518.3,183.1c0.4-0.1,16.8-2.3,13.9,13.5c-2.9,15.9-18.2,9.7-18.2,9.2
									C514,205.5,518.3,183.1,518.3,183.1z"/>
							</g>
						</g>
					</g>
				</g>
			</g>
		</g>
		<g>
			<g>
				<g>
					<g>
						<g>
							<g>
								<path class="st9" d="M518.5,200.6c0.1,0,0.2,0.2,0.7,0.5c0.4,0.3,1.2,0.6,2.1,0.4c1.8-0.3,3.7-2.7,4.3-5.6
									c0.3-1.4,0.3-2.9-0.1-4.1c-0.3-1.3-0.9-2.2-1.7-2.5c-0.8-0.3-1.5,0-1.8,0.5c-0.3,0.4-0.3,0.7-0.3,0.8c-0.1,0-0.3-0.3,0-1
									c0.1-0.3,0.4-0.6,0.8-0.9c0.4-0.2,1-0.3,1.6-0.1c1.2,0.3,2.1,1.6,2.4,3c0.4,1.4,0.5,3,0.2,4.6c-0.7,3.2-2.9,5.9-5.3,6.1
									c-1.2,0.1-2-0.4-2.5-0.9C518.5,201,518.5,200.6,518.5,200.6z"/>
							</g>
						</g>
					</g>
				</g>
			</g>
		</g>
		<g>
			<g>
				<path class="st10" d="M508.2,107.5c0,0-0.7-0.4-2-1.1c-1.3-0.7-3.2-1.7-5.7-2.5c-2.5-0.9-5.5-1.6-9-1.8
					c-3.5-0.2-7.3,0.1-11.2,1.1c-3.8,1.1-7.3,2.9-10.1,4.9c-2.8,2-5.1,4.2-6.7,6.2c-1.7,2-2.8,3.8-3.5,5.1c-0.7,1.3-1.1,2-1.1,2
					c0,0,0.1-0.2,0.2-0.6c0.2-0.4,0.4-0.9,0.7-1.5c0.7-1.3,1.8-3.2,3.4-5.3c1.6-2.1,3.9-4.3,6.7-6.4c2.8-2.1,6.3-3.8,10.2-5
					c3.9-1.1,7.8-1.4,11.3-1.1c3.5,0.3,6.6,1,9.1,1.9c2.5,0.9,4.4,1.9,5.7,2.7c0.6,0.4,1.1,0.7,1.4,0.9
					C508.1,107.3,508.2,107.4,508.2,107.5z"/>
			</g>
		</g>
		<g>
			<g>
				<path class="st10" d="M690.5,210c0,0-2.8,0.5-7.9,0.8c-2.6,0.2-5.7,0.3-9.3,0.1c-1.8-0.1-3.8-0.3-5.8-0.6
					c-2-0.3-4.2-0.9-6.3-1.7c-2.2-0.8-4.3-2-6.3-3.5c-2-1.5-3.9-3.3-5.8-5.3c-1.9-1.9-3.8-3.9-6.1-5.6c-2.3-1.7-4.9-3.1-7.8-4
					c-1.4-0.5-2.9-0.8-4.4-0.8c-1.5,0-3.1,0.1-4.6,0.3c-3.1,0.5-6.2,1.4-9.3,2.4c-3.1,1.1-6.2,2.4-9.3,3.7
					c-3.1,1.4-6.6,2.2-10.1,2.3c-7.1,0.2-14-2.4-18.9-6.9c-4.9-4.5-8.3-10-12.8-14.1c-2.2-2-4.6-3.8-7.3-4.8
					c-2.6-1.1-5.4-1.4-8.1-0.9c-2.6,0.4-5.1,1.4-7.4,2.3c-2.3,0.9-4.6,1.9-6.8,2.4c-2.2,0.6-4.4,0.8-6.5,0.8c-2.1,0-4-0.2-5.8-0.5
					c-3.6-0.7-6.5-1.9-8.8-3.2c-2.2-1.3-3.8-2.5-4.8-3.4c-0.5-0.5-0.9-0.8-1.1-1.1c-0.2-0.2-0.4-0.4-0.4-0.4s0.1,0.1,0.4,0.3
					c0.3,0.2,0.7,0.6,1.1,1c1,0.8,2.6,2.1,4.9,3.3c2.2,1.2,5.2,2.4,8.7,3.1c1.8,0.3,3.7,0.5,5.8,0.5c2.1,0,4.2-0.3,6.4-0.8
					c2.2-0.5,4.4-1.5,6.7-2.4c2.3-0.9,4.8-1.9,7.5-2.4c2.7-0.5,5.6-0.2,8.3,0.9c2.7,1.1,5.2,2.8,7.4,4.9c4.5,4.1,7.9,9.6,12.8,14.1
					c4.8,4.4,11.6,7,18.5,6.7c3.5-0.1,6.8-0.9,9.9-2.3c3.1-1.3,6.2-2.6,9.4-3.7c3.1-1.1,6.3-2,9.4-2.4c1.6-0.2,3.2-0.3,4.7-0.3
					c1.6,0.1,3.1,0.4,4.6,0.9c2.9,0.9,5.6,2.3,7.9,4c2.3,1.7,4.3,3.7,6.2,5.7c1.9,1.9,3.7,3.8,5.7,5.2c2,1.5,4.1,2.6,6.2,3.5
					c2.1,0.8,4.2,1.4,6.3,1.7c2,0.4,4,0.6,5.8,0.7c3.6,0.2,6.8,0.1,9.3,0c2.6-0.2,4.5-0.3,5.9-0.5c0.7-0.1,1.2-0.1,1.5-0.1
					C690.3,210,690.5,210,690.5,210z"/>
			</g>
		</g>
		<g>
			<g>
				<path class="st10" d="M610.6,167.6c0,0-0.1,0.1-0.3,0.3c-0.2,0.2-0.5,0.5-1,0.8c-0.9,0.6-2.4,1.4-4.5,1.8
					c-2.1,0.4-4.7,0.5-7.6-0.2c-2.9-0.7-6-2.2-9.1-4.3c-3.1-2.1-6.2-4.8-9.7-7.5c-3.5-2.6-7.5-5.3-12.2-6.4
					c-2.4-0.5-4.9-0.6-7.5-0.4c-2.6,0.2-5.2,0.6-7.9,0.9c-2.7,0.3-5.5,0.3-8.2-0.3c-2.8-0.6-5.3-2-7.5-3.9
					c-4.5-3.7-7.3-8.7-10.1-13.3c-1.4-2.3-2.8-4.5-4.5-6.5c-1.6-2-3.4-3.7-5.4-5.2c-3.9-2.9-8.3-4.8-12.6-5.6
					c-4.3-0.9-8.4-0.7-12.1,0.1c-3.6,0.8-6.8,2.2-9.3,3.6c-2.5,1.5-4.5,3.1-6,4.6c-1.5,1.4-2.5,2.7-3.2,3.6c-0.3,0.4-0.6,0.8-0.7,1
					c-0.2,0.2-0.3,0.3-0.3,0.3c0,0,0.1-0.1,0.2-0.4c0.2-0.3,0.4-0.6,0.7-1c0.7-0.9,1.6-2.2,3.1-3.7c1.5-1.5,3.5-3.1,6-4.7
					c2.6-1.5,5.7-2.9,9.4-3.7c3.7-0.8,7.9-1,12.2-0.1c4.3,0.8,8.8,2.7,12.8,5.7c2,1.5,3.9,3.3,5.5,5.3c1.6,2,3.1,4.3,4.5,6.5
					c2.8,4.6,5.6,9.5,10,13.1c2.2,1.8,4.7,3.2,7.3,3.8c2.7,0.6,5.4,0.6,8.1,0.3c2.7-0.2,5.3-0.7,7.9-0.8c2.6-0.2,5.2-0.1,7.6,0.4
					c4.9,1.1,8.9,3.9,12.4,6.5c3.5,2.7,6.5,5.4,9.6,7.5c3.1,2.1,6.1,3.6,9,4.3c2.9,0.7,5.5,0.6,7.5,0.3c2-0.4,3.5-1.1,4.4-1.7
					C610.1,168,610.5,167.6,610.6,167.6z"/>
			</g>
		</g>
		<g>
			<g>
				<path class="st6" d="M643.4,150.1c0,0-0.5,0.6-1.7,1.5c-1.1,1-2.9,2.3-5.4,3.7c-2.5,1.4-5.7,2.8-9.6,3.6
					c-3.9,0.9-8.6,1.2-13.6,0.4c-5-0.8-10.3-2.9-15.2-6.4c-2.4-1.8-4.7-3.9-6.7-6.4c-2-2.5-3.7-5.3-5.6-8c-1.8-2.8-3.8-5.6-6.4-7.9
					c-2.6-2.3-6-3.7-9.5-4.1c-3.6-0.4-7.3,0-11,0.5c-3.7,0.5-7.5,1.2-11.4,1.3c-1.9,0.1-3.9-0.1-5.8-0.5c-0.5-0.1-0.9-0.3-1.4-0.4
					c-0.5-0.2-0.9-0.3-1.4-0.5l-1.3-0.6c-0.4-0.2-0.9-0.4-1.3-0.7c-1.6-1-3-2.3-4.2-3.8c-1.2-1.4-2.2-3-3.1-4.6
					c-1.9-3.1-3.4-6.4-5.3-9.3c-0.9-1.5-2-2.8-3.1-4.1c-1.2-1.2-2.4-2.3-3.9-3.1c-1.4-0.9-2.9-1.5-4.4-2c-1.5-0.5-3.1-0.8-4.7-1
					c-3.1-0.4-6.2-0.3-9.1-0.1c-2.9,0.3-5.8,0.7-8.5,1.2c-2.7,0.5-5.3,1-7.8,1.6c-4.9,1.1-9.3,2.5-13,4.1c-3.7,1.6-6.6,3.5-8.7,5.4
					c-0.5,0.5-1,0.9-1.5,1.4c-0.4,0.5-0.8,0.9-1.2,1.3c-0.7,0.8-1.2,1.6-1.7,2.2c-0.4,0.6-0.7,1.1-0.9,1.4c-0.2,0.3-0.3,0.5-0.3,0.5
					s0.1-0.2,0.3-0.5c0.2-0.3,0.5-0.8,0.8-1.5c0.4-0.6,1-1.4,1.6-2.2c0.4-0.4,0.8-0.8,1.2-1.3c0.4-0.5,0.9-0.9,1.5-1.4
					c2.1-1.9,5-3.8,8.7-5.5c3.7-1.6,8.1-3,13-4.2c2.5-0.6,5.1-1.1,7.8-1.6c2.7-0.5,5.6-1,8.5-1.2c3-0.3,6.1-0.3,9.2,0.1
					c1.6,0.2,3.2,0.5,4.7,1c1.5,0.5,3.1,1.2,4.5,2.1c1.5,0.9,2.8,2,4,3.2c1.2,1.3,2.2,2.7,3.2,4.1c1.9,3,3.5,6.2,5.3,9.3
					c0.9,1.6,1.9,3.1,3.1,4.5c1.2,1.4,2.5,2.7,4.1,3.6c0.4,0.3,0.8,0.5,1.2,0.7l1.3,0.6c0.4,0.2,0.9,0.3,1.3,0.4
					c0.5,0.1,0.9,0.3,1.3,0.4c1.8,0.4,3.7,0.6,5.6,0.5c7.6-0.2,15-2.7,22.4-1.8c3.6,0.4,7.1,1.9,9.8,4.3c2.7,2.3,4.7,5.2,6.5,8
					c1.8,2.8,3.5,5.6,5.5,8c2,2.4,4.2,4.5,6.6,6.3c4.8,3.5,10,5.6,15,6.4c5,0.9,9.6,0.6,13.5-0.3c3.9-0.8,7.1-2.2,9.6-3.5
					c2.5-1.3,4.3-2.6,5.4-3.6c0.6-0.4,1-0.8,1.3-1.1C643.3,150.2,643.4,150.1,643.4,150.1z"/>
			</g>
		</g>
		<g>
			<g>
				<path class="st10" d="M681.3,250c0,0-0.1,0.1-0.4,0.2c-0.3,0.1-0.7,0.3-1.3,0.4c-0.6,0.2-1.3,0.4-2.1,0.6
					c-0.8,0.2-1.9,0.3-3,0.5c-2.3,0.2-5.1,0.3-8.3-0.1c-3.2-0.4-6.8-1.2-10.7-2.5c-3.9-1.2-8-2.9-12.4-4.7
					c-4.4-1.8-9.1-3.7-14.3-5.2c-5.1-1.4-10.7-2.4-16.5-1.8c-2.9,0.3-5.7,1.1-8.4,2.4c-2.7,1.3-5.2,3-7.9,4.6
					c-2.6,1.6-5.4,3.2-8.4,3.9c-3,0.7-6.2,0.2-8.7-1.5c-2.5-1.6-4.3-4-6.1-6.1c-1.7-2.2-3.4-4.4-5.4-6.1c-4-3.5-8.9-5.3-13.5-6.5
					c-4.6-1.2-9-1.9-12.9-2.8c-4-0.9-7.5-1.9-10.5-3.2c-3-1.3-5.4-2.7-7.1-4.2c-1.8-1.4-2.9-2.8-3.6-3.8c-0.3-0.5-0.6-0.9-0.7-1.1
					c-0.2-0.3-0.2-0.4-0.2-0.4s0.1,0.1,0.3,0.4c0.2,0.3,0.4,0.6,0.8,1.1c0.8,0.9,1.9,2.3,3.7,3.7c1.8,1.4,4.2,2.8,7.1,4.1
					c3,1.2,6.5,2.2,10.4,3.1c4,0.8,8.4,1.5,13,2.7c4.6,1.2,9.5,3,13.7,6.6c2.1,1.8,3.8,4,5.5,6.2c1.7,2.2,3.5,4.5,5.9,6
					c2.4,1.6,5.5,2.1,8.3,1.4c2.9-0.7,5.6-2.2,8.2-3.8c2.6-1.6,5.2-3.3,7.9-4.7c2.8-1.3,5.7-2.1,8.6-2.4c5.9-0.7,11.5,0.4,16.7,1.8
					c5.2,1.5,9.9,3.4,14.3,5.2c4.4,1.9,8.5,3.5,12.3,4.7c3.8,1.3,7.4,2.1,10.6,2.5c3.2,0.4,6,0.4,8.2,0.2c1.1-0.2,2.1-0.2,3-0.5
					c0.8-0.2,1.6-0.3,2.1-0.5c0.6-0.2,1-0.3,1.3-0.4C681.2,250.1,681.3,250,681.3,250z"/>
			</g>
		</g>
		<g>
			<g>
				<g>
					<path class="st10" d="M462.4,172.3c-0.1,0,0-1.3-0.6-3.7c-0.3-1.2-0.8-2.5-1.7-4c-0.9-1.4-2.1-2.9-3.8-4.2
						c-1.7-1.3-3.8-2.3-6.3-2.8c-2.4-0.4-5.2-0.3-7.8,0.7c-1.3,0.5-2.6,1.2-3.8,2c-1.2,0.9-2.3,1.9-3.1,3.2
						c-1.8,2.4-2.9,5.6-2.9,8.8c0,3.2,1.1,6.3,2.9,8.8c0.9,1.2,2,2.3,3.1,3.2c1.2,0.9,2.4,1.6,3.8,2c2.6,1,5.4,1.1,7.8,0.7
						c2.5-0.4,4.6-1.5,6.3-2.8c1.7-1.3,2.9-2.8,3.8-4.2c0.9-1.4,1.4-2.8,1.7-4C462.4,173.6,462.3,172.3,462.4,172.3c0,0,0,0.1,0,0.2
						c0,0.2,0,0.4,0,0.7c0,0.3,0,0.7-0.1,1.2c-0.1,0.5-0.1,1-0.3,1.6c-0.2,1.2-0.8,2.6-1.6,4.1c-0.9,1.5-2.1,3-3.8,4.4
						c-1.7,1.3-3.9,2.4-6.4,2.9c-2.5,0.4-5.3,0.4-8.1-0.6c-1.4-0.5-2.7-1.2-3.9-2.1c-1.2-0.9-2.3-2-3.3-3.3c-1.9-2.5-3-5.7-3-9.1
						c0-3.3,1.1-6.6,3-9.1c0.9-1.3,2-2.4,3.3-3.3c1.2-0.9,2.5-1.6,3.9-2.1c2.7-1,5.5-1.1,8.1-0.6c2.5,0.5,4.7,1.6,6.4,2.9
						c1.7,1.3,3,2.9,3.8,4.4c0.9,1.5,1.4,2.9,1.6,4.1c0.2,0.6,0.2,1.1,0.3,1.6c0.1,0.5,0.1,0.9,0.1,1.2c0,0.3,0,0.5,0,0.7
						C462.4,172.2,462.4,172.3,462.4,172.3z"/>
				</g>
			</g>
			<g>
				<g>
					<path class="st10" d="M501.8,172.3c-0.1,0,0-1.3-0.6-3.7c-0.3-1.2-0.8-2.5-1.7-4c-0.9-1.4-2.1-2.9-3.8-4.2
						c-1.7-1.3-3.8-2.3-6.3-2.8c-2.4-0.4-5.2-0.3-7.8,0.7c-1.3,0.5-2.6,1.2-3.8,2c-1.2,0.9-2.3,1.9-3.1,3.2
						c-1.8,2.4-2.9,5.6-2.9,8.8c0,3.2,1.1,6.3,2.9,8.8c0.9,1.2,2,2.3,3.1,3.2c1.2,0.9,2.4,1.6,3.8,2c2.6,1,5.4,1.1,7.8,0.7
						c2.5-0.4,4.6-1.5,6.3-2.8c1.7-1.3,2.9-2.8,3.8-4.2c0.9-1.4,1.4-2.8,1.7-4C501.9,173.6,501.8,172.3,501.8,172.3c0,0,0,0.1,0,0.2
						c0,0.2,0,0.4,0,0.7c0,0.3,0,0.7-0.1,1.2c-0.1,0.5-0.1,1-0.3,1.6c-0.2,1.2-0.8,2.6-1.6,4.1c-0.9,1.5-2.1,3-3.8,4.4
						c-1.7,1.3-3.9,2.4-6.4,2.9c-2.5,0.4-5.3,0.4-8.1-0.6c-1.4-0.5-2.7-1.2-3.9-2.1c-1.2-0.9-2.3-2-3.3-3.3c-1.9-2.5-3-5.7-3-9.1
						c0-3.3,1.1-6.6,3-9.1c0.9-1.3,2-2.4,3.3-3.3c1.2-0.9,2.5-1.6,3.9-2.1c2.7-1,5.5-1.1,8.1-0.6c2.5,0.5,4.7,1.6,6.4,2.9
						c1.7,1.3,3,2.9,3.8,4.4c0.9,1.5,1.4,2.9,1.6,4.1c0.2,0.6,0.2,1.1,0.3,1.6c0.1,0.5,0.1,0.9,0.1,1.2c0,0.3,0,0.5,0,0.7
						C501.9,172.2,501.9,172.3,501.8,172.3z"/>
				</g>
			</g>
			<g>
				<g>
					<path class="st10" d="M472.1,168.6c-0.1,0-0.4-0.6-1.2-1.4c-0.8-0.8-2.2-1.6-3.9-1.6c-1.7,0-3.1,0.7-4,1.4
						c-0.9,0.7-1.2,1.3-1.3,1.3c0,0,0.2-0.7,1.1-1.6c0.8-0.8,2.4-1.7,4.2-1.7c1.9,0.1,3.4,1,4.2,1.9
						C471.9,167.9,472.1,168.6,472.1,168.6z"/>
				</g>
			</g>
			<g>
				<g>
					<path class="st10" d="M517.8,183.2c0,0.1-0.9-0.5-2.3-1.5c-1.4-1-3.4-2.3-5.6-3.8c-2.2-1.5-4.2-2.7-5.7-3.7
						c-1.5-0.9-2.3-1.5-2.3-1.6c0-0.1,1,0.4,2.5,1.3c1.5,0.9,3.6,2.1,5.8,3.6c2.2,1.5,4.1,2.9,5.5,3.9
						C517.1,182.4,517.9,183.1,517.8,183.2z"/>
				</g>
			</g>
			<g>
				<g>
					<path class="st1" d="M488,185.1c0,0-0.4,0.1-1,0.1c-0.7,0-1.6,0-2.8-0.3c-2.3-0.5-5.5-1.9-7.7-4.8c-2.3-2.9-2.9-6.3-2.7-8.7
						c0.1-1.2,0.2-2.1,0.4-2.8c0.2-0.6,0.3-1,0.4-1c0.1,0-0.4,1.4-0.4,3.7c0,2.3,0.6,5.6,2.8,8.4c2.2,2.8,5.2,4.2,7.4,4.8
						C486.6,185.1,488,185,488,185.1z"/>
				</g>
			</g>
			<g>
				<g>
					<path class="st1" d="M438.3,181.1c0,0-0.3-0.1-0.7-0.4c-0.4-0.3-1-0.8-1.6-1.5c-1.2-1.4-2.6-3.7-2.9-6.6
						c-0.2-2.9,0.7-5.4,1.7-7c0.5-0.8,1-1.4,1.4-1.7c0.4-0.4,0.6-0.5,0.6-0.5c0.1,0.1-0.8,0.8-1.7,2.4c-0.9,1.5-1.7,4-1.5,6.7
						c0.2,2.7,1.5,5,2.6,6.4C437.4,180.4,438.4,181,438.3,181.1z"/>
				</g>
			</g>
		</g>
	</g>
	<g>
		<g>
			<path class="st11" d="M563.7,271.1c0,0,13.5,4.4,18.9,19.3c5.4,14.8,14.9,106.8,14.9,106.8c0-4.8,12.6,10.5,10.7,60.5h-52.7
				l-21.2-71.9L563.7,271.1z"/>
		</g>
		<g>
			<path class="st11" d="M445,259c-2.4-0.3-26.7,8.1-31.2,15.6s-27.4,84.6-27.4,84.6l-51.7,8.4c0,0-18.3-0.6-16.9,18.1
				c1.4,18.6,4.2,33.1,12.2,39.2c8,6.1,16.2,8.7,20.9,6.3c4.3-2.2,3.7-7.9,3.7-7.9s43.8,9.5,53,1.6C417,417,445,259,445,259z"/>
		</g>
		<g>
			<g>
				<path class="st11" d="M519.4,245.7l0.3,12c0,0,40.8,11.4,44,13.3c3.2,1.9-20.6,132-20.6,132s30.8,36.7,32.8,49.9
					c0.7,4.7,0.7,4.7,0.7,4.7H401.6l6.4-49.1l-3-52.1l23.5-91.7l28.4-10.1l-0.3-7c-0.1-1.7,1.2-3.1,2.9-3.2l56.8-1.7
					C518,242.7,519.4,244,519.4,245.7z"/>
			</g>
		</g>
		<g>
			<g>
				<g>
					<path class="st6" d="M407.1,393.7c0,0,0-0.1,0-0.3c0-0.2,0-0.5-0.1-0.8c-0.1-0.8-0.2-1.9-0.3-3.2c-0.1-1.4-0.3-3.1-0.4-5.1
						c-0.1-2-0.4-4.3-0.4-6.8c-0.1-2.5-0.3-5.3-0.3-8.2c0-1.5-0.1-3-0.1-4.6c0-1.6,0-3.2,0.1-4.9c0.2-6.7,0.7-14,1.7-21.6
						c1.1-7.6,2.6-14.8,4.2-21.2c0.4-1.6,0.9-3.2,1.3-4.7c0.4-1.5,0.9-3,1.3-4.4c0.8-2.8,1.8-5.4,2.6-7.8c0.4-1.2,0.8-2.3,1.2-3.4
						c0.4-1.1,0.8-2.1,1.2-3c0.7-1.9,1.4-3.5,1.9-4.8c0.5-1.3,0.9-2.3,1.2-3c0.1-0.3,0.2-0.6,0.3-0.8c0.1-0.2,0.1-0.3,0.1-0.3
						c0,0-0.1,0.1-0.1,0.3c-0.1,0.2-0.2,0.5-0.4,0.8c-0.3,0.7-0.8,1.7-1.3,3c-0.6,1.3-1.3,2.9-2,4.7c-0.4,0.9-0.8,1.9-1.2,3
						c-0.4,1.1-0.9,2.2-1.3,3.4c-0.8,2.4-1.8,5-2.7,7.8c-0.4,1.4-0.9,2.9-1.4,4.4c-0.4,1.5-0.9,3.1-1.3,4.7
						c-1.7,6.5-3.2,13.7-4.2,21.3c-1,7.6-1.5,15-1.7,21.6c0,1.7,0,3.3-0.1,4.9c0,1.6,0.1,3.1,0.1,4.6c0,3,0.2,5.7,0.4,8.2
						c0.1,2.5,0.4,4.8,0.5,6.8c0.2,2,0.4,3.7,0.5,5.1c0.2,1.4,0.3,2.4,0.4,3.2c0,0.3,0.1,0.6,0.1,0.8
						C407,393.6,407.1,393.7,407.1,393.7z"/>
				</g>
			</g>
		</g>
		<g>
			<g>
				<path class="st6" d="M539.2,309.9c0,0,0,0.1-0.1,0.4c-0.1,0.3-0.1,0.6-0.2,1.1c-0.2,1-0.5,2.4-0.8,4.3c-0.6,3.7-1.1,9.2-1,15.9
					c0.1,6.8,0.9,14.8,2.5,23.6c1.6,8.8,4,18.3,6.5,28.3c2.5,10,4.7,19.6,6,28.5c1.4,8.9,2.1,16.9,2.5,23.6c0.4,6.8,0.6,12.2,0.7,16
					c0.1,1.9,0.1,3.3,0.1,4.4c0,0.5,0,0.9,0,1.1c0,0.3,0,0.4,0,0.4c0,0,0-0.1,0-0.4c0-0.3,0-0.7-0.1-1.1c-0.1-1-0.1-2.5-0.2-4.4
					c-0.2-3.8-0.4-9.2-0.9-16c-0.5-6.7-1.2-14.8-2.6-23.6c-1.3-8.8-3.5-18.4-6-28.4c-2.5-10-4.9-19.6-6.5-28.4
					c-1.6-8.8-2.4-16.9-2.4-23.6c-0.1-6.8,0.5-12.3,1.2-16C538.6,311.9,539.2,309.9,539.2,309.9z"/>
			</g>
		</g>
		<g>
			<g>
				<path class="st6" d="M520,258.2c0,0-0.2,0.1-0.6,0.3c-0.5,0.2-1.1,0.4-1.8,0.7c-1.6,0.5-3.9,1.3-6.8,2
					c-2.9,0.7-6.5,1.3-10.4,1.7c-3.9,0.4-8.3,0.6-12.9,0.6c-4.6,0-8.9-0.1-12.9-0.4c-4-0.3-7.5-1.1-10.3-2.4
					c-2.8-1.2-4.7-2.8-5.8-4.1c-0.6-0.6-1-1.2-1.2-1.5c-0.2-0.4-0.4-0.6-0.3-0.6c0,0,0.5,0.8,1.7,2c1.2,1.2,3.1,2.7,5.8,3.9
					c2.7,1.2,6.2,1.9,10.2,2.2c3.9,0.3,8.3,0.4,12.9,0.4c4.6,0,8.9-0.2,12.8-0.6c3.9-0.4,7.4-1,10.4-1.6c2.9-0.6,5.2-1.3,6.8-1.8
					c0.8-0.2,1.4-0.4,1.8-0.6C519.8,258.3,520,258.2,520,258.2z"/>
			</g>
		</g>
		<g>
			<g>
				<path class="st6" d="M504.7,376.3c0,0-0.2,0-0.6,0.1c-0.5,0-1,0.1-1.7,0.1c-0.4,0-0.8,0.1-1.2,0.1c-0.5,0-1,0-1.5,0
					c-1.1,0-2.3,0-3.6-0.2c-0.7-0.1-1.4-0.1-2.1-0.2c-0.7-0.1-1.5-0.2-2.3-0.4c-1.6-0.2-3.2-0.7-4.9-1.1c-3.4-1-7.1-2.5-10.7-4.4
					c-3.6-2-6.8-4.3-9.4-6.7c-1.3-1.2-2.6-2.4-3.6-3.6c-0.5-0.6-1.1-1.1-1.5-1.7c-0.5-0.6-0.9-1.1-1.3-1.7c-0.9-1-1.5-2.1-2.1-3
					c-0.3-0.4-0.6-0.9-0.8-1.3c-0.2-0.4-0.4-0.8-0.6-1.1c-0.3-0.6-0.6-1.1-0.8-1.5c-0.2-0.4-0.3-0.5-0.2-0.5c0,0,0.1,0.2,0.3,0.5
					c0.2,0.4,0.5,0.9,0.9,1.5c0.2,0.3,0.4,0.7,0.6,1.1c0.2,0.4,0.5,0.8,0.8,1.2c0.6,0.9,1.2,1.9,2.1,2.9c0.4,0.5,0.9,1.1,1.3,1.6
					c0.5,0.6,1,1.1,1.5,1.7c1,1.2,2.3,2.3,3.6,3.5c2.7,2.3,5.8,4.6,9.4,6.6c3.6,1.9,7.2,3.4,10.6,4.4c1.7,0.4,3.3,0.9,4.9,1.2
					c0.8,0.1,1.5,0.3,2.2,0.4c0.7,0.1,1.4,0.2,2.1,0.2c1.3,0.2,2.5,0.2,3.6,0.2c0.5,0,1,0.1,1.5,0.1c0.4,0,0.9,0,1.2,0
					c0.7,0,1.3,0,1.7,0C504.4,376.3,504.7,376.3,504.7,376.3z"/>
			</g>
		</g>
		<g>
			<g>
				<path class="st6" d="M396.6,386.5c-0.1,0-0.2-1.7-0.7-4.3c-0.5-2.6-1.4-6.2-2.9-10c-1.5-3.8-3.4-7-4.9-9.3
					c-1.5-2.2-2.5-3.5-2.5-3.6c0,0,0.3,0.3,0.8,0.9c0.5,0.6,1.2,1.4,2,2.5c1.6,2.2,3.5,5.4,5,9.3c1.5,3.8,2.4,7.5,2.8,10.2
					c0.2,1.3,0.3,2.4,0.4,3.2C396.6,386.1,396.7,386.5,396.6,386.5z"/>
			</g>
		</g>
		<g>
			<g>
				<path class="st6" d="M571.9,281.5c0,0.1-2-0.4-5.3-0.4c-0.4,0-0.8,0-1.3,0c-0.4,0-0.9,0.1-1.4,0.2c-1,0.1-2,0.3-3,0.6
					c-2.1,0.5-4.3,1.4-6.5,2.5c-2.2,1.2-4.1,2.7-5.7,4.1c-0.8,0.8-1.5,1.5-2.1,2.2c-0.3,0.4-0.6,0.7-0.9,1.1
					c-0.3,0.4-0.5,0.7-0.7,1.1c-1.8,2.7-2.4,4.7-2.6,4.7c0,0,0.1-0.5,0.5-1.4c0.2-0.4,0.4-1,0.7-1.5c0.3-0.6,0.6-1.3,1.1-2
					c0.2-0.4,0.5-0.7,0.7-1.1c0.3-0.4,0.6-0.7,0.9-1.1c0.6-0.8,1.3-1.5,2.1-2.3c1.6-1.5,3.5-3,5.8-4.2c2.2-1.2,4.5-2,6.7-2.6
					c1.1-0.2,2.1-0.5,3.1-0.5c0.5,0,1-0.1,1.4-0.1c0.5,0,0.9,0,1.3,0c0.8,0,1.6,0.1,2.2,0.1c0.7,0,1.2,0.1,1.7,0.3
					C571.4,281.3,571.9,281.5,571.9,281.5z"/>
			</g>
		</g>
		<g class="st12">
			<g>
				<path d="M483.9,373.2c-10.8-3.8-21.9-11.7-27.1-21.9c2.5,12.3,11.8,25,23.7,29.1c11.9,4.1,25.8,1.5,35.4-6.6
					C505.4,378.5,494.7,377,483.9,373.2z"/>
			</g>
		</g>
		<g>
			<g>
				<path class="st6" d="M401.6,457.6c0,0,0-0.2,0-0.7c0-0.5,0.1-1.1,0.2-1.9c0.2-1.7,0.5-4,0.8-6.9c0.7-5.8,1.7-13.8,2.8-22.6
					c0.6-4.9,1.2-9.5,1.8-13.6l0,0c-0.1-5.4-0.2-10.1-0.2-13.4c0-1.6,0-2.9,0-3.8c0-0.4,0-0.7,0-1c0-0.2,0-0.3,0-0.3s0,0.1,0,0.3
					c0,0.3,0,0.6,0.1,1c0,0.9,0.1,2.2,0.2,3.8c0.1,3.3,0.2,7.9,0.4,13.4l0,0l0,0c-0.5,4.1-1.1,8.7-1.7,13.6
					c-1.2,8.8-2.2,16.8-3,22.6c-0.4,2.8-0.7,5.2-1,6.8c-0.1,0.8-0.2,1.4-0.3,1.9C401.6,457.3,401.6,457.6,401.6,457.6z"/>
			</g>
		</g>
		<g>
			<g>
				<path class="st6" d="M337.1,381.9c0,0,0.1,0.1,0.3,0.4c0.2,0.3,0.4,0.7,0.7,1.1c0.6,1,1.5,2.5,2.5,4.3c2.1,3.7,4.7,8.8,7.2,14.8
					c2.5,5.9,4.3,11.4,5.4,15.5c0.6,2,1,3.7,1.3,4.8c0.1,0.5,0.2,1,0.3,1.3c0.1,0.3,0.1,0.5,0.1,0.5c0,0-0.1-0.1-0.2-0.4
					c-0.1-0.4-0.2-0.8-0.4-1.3c-0.3-1.1-0.8-2.8-1.4-4.8c-1.2-4-3.1-9.5-5.6-15.4c-2.5-5.9-5-11.1-7-14.8c-1-1.8-1.8-3.3-2.4-4.4
					c-0.3-0.5-0.5-0.9-0.6-1.2C337.2,382,337.1,381.9,337.1,381.9z"/>
			</g>
		</g>
		<g>
			<g>
				<path class="st1" d="M347.1,399.1c0,0.1-1.6-0.1-4.1,0c-1.3,0-2.8,0.2-4.4,0.5c-1.6,0.3-3.4,0.8-5.2,1.4
					c-1.8,0.7-3.5,1.5-4.9,2.3c-1.4,0.8-2.7,1.7-3.7,2.5c-2,1.6-3,2.7-3.1,2.7c0,0,0.2-0.3,0.7-0.9c0.2-0.3,0.5-0.6,0.9-0.9
					c0.4-0.3,0.8-0.8,1.3-1.2c1-0.8,2.2-1.7,3.7-2.6c1.5-0.9,3.1-1.7,5-2.4c1.8-0.7,3.7-1.1,5.3-1.4c1.7-0.3,3.2-0.4,4.5-0.4
					c0.6,0,1.2,0,1.7,0.1c0.5,0,0.9,0.1,1.3,0.1C346.8,399,347.1,399.1,347.1,399.1z"/>
			</g>
		</g>
		<g>
			<g>
				<path class="st1" d="M334.9,380.1c0,0.1-1.1-0.5-2.9-0.9c-1.8-0.4-4.4-0.6-7.1,0.2c-2.7,0.8-4.7,2.4-6,3.8
					c-1.3,1.4-1.8,2.4-1.9,2.3c0,0,0.1-0.3,0.3-0.8c0.2-0.5,0.7-1.1,1.3-1.8c1.2-1.4,3.3-3.2,6.1-4.1c2.8-0.9,5.5-0.6,7.3-0.1
					c0.9,0.3,1.6,0.6,2.1,0.8C334.7,379.9,334.9,380.1,334.9,380.1z"/>
			</g>
		</g>
		<g>
			<g>
				<path class="st1" d="M352.9,419.4c0,0-0.2,0.2-0.7,0.6c-0.5,0.4-1.2,0.9-2.2,1.4c-1.9,1.1-4.7,2.4-8,3.3c-3.3,0.8-6.4,1-8.6,0.9
					c-1.1,0-2-0.1-2.6-0.2c-0.6-0.1-0.9-0.2-0.9-0.2c0-0.1,1.4,0.1,3.5,0.1c2.2,0,5.2-0.3,8.4-1.1c3.2-0.8,6-2.1,7.9-3.1
					C351.8,420.1,352.9,419.4,352.9,419.4z"/>
			</g>
		</g>
		<g>
			<g>
				<path class="st1" d="M468,261.8c0,0-0.2-0.2-0.5-0.5c-0.3-0.4-0.6-0.9-1-1.7c-0.7-1.4-1.5-3.6-1.7-6.1c-0.2-2.5,0.2-4.8,0.7-6.3
					c0.2-0.8,0.5-1.4,0.7-1.8c0.2-0.4,0.3-0.6,0.4-0.6c0.1,0-0.3,1-0.7,2.5c-0.4,1.5-0.7,3.7-0.5,6.2c0.2,2.4,0.9,4.5,1.5,6
					C467.6,260.9,468.1,261.8,468,261.8z"/>
			</g>
		</g>
		<g>
			<g>
				<path class="st1" d="M485.2,262.9c0,0-0.2-0.2-0.5-0.6c-0.3-0.4-0.7-1-1.1-1.8c-0.8-1.5-1.6-3.8-1.9-6.5c-0.3-2.7,0-5.1,0.5-6.8
					c0.2-0.8,0.5-1.5,0.7-1.9c0.2-0.4,0.3-0.7,0.3-0.7c0.1,0-0.3,1-0.6,2.7c-0.4,1.7-0.6,4-0.3,6.6c0.3,2.6,1,4.8,1.8,6.4
					C484.7,262,485.3,262.9,485.2,262.9z"/>
			</g>
		</g>
		<g>
			<g>
				<path class="st1" d="M504.5,261.7c-0.2,0,0.9-3.8,0.7-8.5c-0.2-4.7-1.6-8.3-1.5-8.4c0.1,0,0.5,0.8,1,2.3c0.5,1.5,0.9,3.6,1,6
					c0.1,2.4-0.1,4.6-0.5,6.1C504.9,260.8,504.5,261.7,504.5,261.7z"/>
			</g>
		</g>
		<g>
			<g>
				<path class="st1" d="M365.1,399.4c0,0-0.2-0.5-0.5-1.3c-0.3-1-0.7-2.2-1.1-3.6c-1-3.1-2.3-7.3-4-11.9c-1.7-4.6-3.4-8.7-4.6-11.7
					c-0.6-1.4-1.1-2.6-1.5-3.5c-0.3-0.8-0.5-1.3-0.5-1.3c0,0,0.3,0.4,0.7,1.2c0.4,0.8,1,2,1.6,3.4c1.3,2.9,3.1,7,4.8,11.7
					c1.7,4.6,3,8.9,3.9,12c0.4,1.6,0.8,2.8,1,3.7C365,398.9,365.1,399.4,365.1,399.4z"/>
			</g>
		</g>
		<g>
			<g>
				<path class="st1" d="M370.3,410.9c-0.1,0.1-0.8-1.2-1.4-2.7c-0.6-1.6-1.1-2.9-0.9-2.9c0.1-0.1,0.8,1.2,1.4,2.7
					C370,409.6,370.5,410.9,370.3,410.9z"/>
			</g>
		</g>
		<g>
			<g>
				<path class="st1" d="M397.4,418.2c0,0-0.1-0.2-0.2-0.6c-0.1-0.4-0.3-1-0.4-1.7c-0.4-1.5-0.9-3.6-1.7-6.2
					c-1.5-5.2-3.7-12.3-6.7-20c-3-7.7-6.2-14.4-8.7-19.2c-1.2-2.4-2.3-4.3-3-5.7c-0.3-0.6-0.6-1.1-0.8-1.5c-0.2-0.4-0.3-0.5-0.3-0.6
					c0,0,0.1,0.2,0.3,0.5c0.2,0.4,0.5,0.9,0.9,1.5c0.8,1.3,1.9,3.2,3.1,5.6c2.6,4.8,5.8,11.5,8.8,19.2c3,7.7,5.2,14.8,6.6,20.1
					c0.7,2.6,1.2,4.7,1.5,6.2c0.1,0.7,0.3,1.3,0.4,1.7C397.4,418,397.5,418.2,397.4,418.2z"/>
			</g>
		</g>
		<g>
			<g>
				<path class="st1" d="M403.1,350.1c-0.1,0.1-2.5-1.6-5.3-3.8c-2.8-2.2-5.1-4.1-5-4.2c0.1-0.1,2.5,1.6,5.3,3.8
					C400.9,348.1,403.1,349.9,403.1,350.1z"/>
			</g>
		</g>
		<g>
			<g>
				<path class="st1" d="M406.4,326.5c-0.1,0.1-1.1-0.2-2.3-0.8c-1.2-0.5-2.1-1.1-2-1.2c0.1-0.1,1.1,0.2,2.3,0.8
					C405.5,325.8,406.5,326.4,406.4,326.5z"/>
			</g>
		</g>
		<g>
			<g>
				<path class="st1" d="M414.3,305.4c0,0.1-2.2-0.4-4.9-1.1c-2.6-0.8-4.8-1.5-4.7-1.6c0-0.1,2.2,0.4,4.9,1.1
					C412.2,304.6,414.4,305.3,414.3,305.4z"/>
			</g>
		</g>
		<g>
			<g>
				<path class="st1" d="M446.8,280.9c0,0.1-7.8,0-17.4-0.3c-9.6-0.3-17.4-0.7-17.4-0.9c0-0.1,7.8,0,17.4,0.3
					C439,280.4,446.8,280.8,446.8,280.9z"/>
			</g>
		</g>
		<g>
			<g>
				<path class="st1" d="M463.3,281.2c0,0.1-1.3,0.2-3,0.1c-1.6-0.1-3-0.3-3-0.4c0-0.1,1.3-0.2,3-0.1
					C462,280.8,463.3,281,463.3,281.2z"/>
			</g>
		</g>
		<g>
			<g>
				<path class="st1" d="M524.2,281c0,0.1-9.7,0.1-21.7-0.1c-12-0.2-21.7-0.4-21.7-0.6c0-0.1,9.7-0.1,21.7,0.1
					C514.5,280.5,524.2,280.8,524.2,281z"/>
			</g>
		</g>
		<g>
			<g>
				<path class="st1" d="M548.4,277.9c0,0.1-1.6,0.3-3.5,0.3c-1.9,0-3.5-0.1-3.5-0.3s1.6-0.3,3.5-0.3
					C546.8,277.6,548.4,277.7,548.4,277.9z"/>
			</g>
		</g>
		<g>
			<g>
				<path class="st1" d="M568.3,275.2c0,0.1-1.7,0.4-3.8,0.6c-2.1,0.2-3.8,0.2-3.8,0.1c0-0.1,1.7-0.4,3.8-0.6
					C566.5,275.1,568.2,275.1,568.3,275.2z"/>
			</g>
		</g>
		<g>
			<g>
				<path class="st1" d="M527.4,261.2c0,0-0.3,0.1-0.8,0.3c-0.6,0.2-1.4,0.4-2.4,0.7c-1,0.3-2.3,0.7-3.8,1c-1.5,0.4-3.2,0.8-5.1,1.2
					c-0.9,0.2-1.9,0.4-3,0.6c-1,0.2-2.1,0.4-3.2,0.5c-2.2,0.4-4.6,0.7-7.2,1c-5.1,0.5-10.7,0.9-16.5,0.8c-5.9-0.1-11.5-0.5-16.5-1.1
					c-2.5-0.4-4.9-0.7-7.1-1.1c-1.1-0.2-2.2-0.4-3.2-0.6c-1-0.2-2-0.4-3-0.6c-1.9-0.4-3.6-0.9-5-1.2c-1.5-0.4-2.7-0.7-3.8-1.1
					c-1-0.3-1.8-0.6-2.4-0.7c-0.5-0.2-0.8-0.3-0.8-0.3c0,0,0.3,0,0.8,0.2c0.6,0.2,1.4,0.4,2.4,0.6c1,0.3,2.3,0.6,3.8,1
					c1.5,0.4,3.2,0.8,5,1.2c0.9,0.2,1.9,0.4,3,0.6c1,0.2,2.1,0.4,3.2,0.6c2.2,0.4,4.6,0.7,7.1,1c5,0.6,10.6,1,16.5,1.1
					c5.9,0,11.4-0.3,16.5-0.8c2.5-0.3,4.9-0.5,7.1-0.9c1.1-0.2,2.2-0.3,3.2-0.5c1-0.2,2-0.4,3-0.6c1.9-0.3,3.6-0.8,5.1-1.1
					c1.5-0.3,2.8-0.6,3.8-0.9c1-0.3,1.8-0.5,2.4-0.6C527.1,261.2,527.4,261.2,527.4,261.2z"/>
			</g>
		</g>
		<g>
			<g>
				<path class="st1" d="M537.1,320.4c0,0-0.1,0-0.3,0c-0.2,0-0.6,0-0.9,0c-0.9,0-2.1,0-3.6,0c-3.1,0-7.7,0-13.3-0.1
					c-11.2-0.2-26.8-0.5-43.9-1.4c-17.1-0.9-32.7-1.6-43.8-3.7c-5.5-1-9.9-2.3-12.9-3.3c-1.5-0.5-2.6-0.9-3.4-1.3
					c-0.4-0.1-0.6-0.3-0.9-0.4c-0.2-0.1-0.3-0.1-0.3-0.1c0,0,0.1,0,0.3,0.1c0.2,0.1,0.5,0.2,0.9,0.3c0.8,0.3,1.9,0.7,3.4,1.2
					c3,0.9,7.4,2.2,12.9,3.1c11.1,2.1,26.6,2.7,43.7,3.6c17.1,0.8,32.7,1.3,43.9,1.5c5.6,0.1,10.1,0.2,13.3,0.3
					c1.5,0,2.8,0.1,3.6,0.1c0.4,0,0.7,0,0.9,0C537,320.4,537.1,320.4,537.1,320.4z"/>
			</g>
		</g>
		<g>
			<g>
				<path class="st1" d="M441.5,354.2c0,0-0.5,0.1-1.4,0.2c-0.9,0.1-2.1,0.2-3.7,0.2c-3.1,0.1-7.5,0.1-12.3-0.4
					c-4.8-0.5-9.1-1.3-12.1-2c-1.5-0.4-2.8-0.7-3.6-0.9c-0.8-0.3-1.3-0.4-1.3-0.4c0,0,0.5,0.1,1.3,0.2c0.9,0.2,2.1,0.5,3.6,0.8
					c3.1,0.6,7.3,1.4,12.1,1.8c4.8,0.5,9.1,0.5,12.2,0.5c1.6,0,2.8,0,3.7-0.1C441,354.1,441.5,354.1,441.5,354.2z"/>
			</g>
		</g>
		<g>
			<g>
				<path class="st1" d="M455.1,354c0,0.1-1.2,0.3-2.6,0.4c-1.5,0.1-2.7,0-2.7-0.1c0-0.1,1.2-0.3,2.6-0.4
					C453.9,353.8,455,353.9,455.1,354z"/>
			</g>
		</g>
		<g>
			<g>
				<path class="st1" d="M515.3,359c0,0-0.2,0-0.6,0.1c-0.4,0-0.9,0-1.6,0c-1.4,0-3.4,0-5.9,0c-5,0-11.8-0.2-19.3-0.5
					c-7.5-0.4-14.4-0.9-19.3-1.4c-2.5-0.2-4.5-0.4-5.8-0.6c-0.6-0.1-1.2-0.1-1.6-0.2c-0.4-0.1-0.5-0.1-0.5-0.1c0,0,0.2,0,0.6,0
					c0.4,0,0.9,0.1,1.6,0.1c1.5,0.1,3.4,0.3,5.8,0.4c4.9,0.4,11.8,0.9,19.3,1.2c7.5,0.4,14.4,0.6,19.3,0.7c2.4,0.1,4.4,0.1,5.9,0.1
					c0.6,0,1.2,0,1.6,0.1C515.1,358.9,515.3,359,515.3,359z"/>
			</g>
		</g>
		<g>
			<g>
				<path class="st1" d="M538.7,357c0,0.1-2,0.5-4.6,0.9c-2.5,0.3-4.6,0.5-4.6,0.3c0-0.1,2-0.5,4.6-0.9
					C536.6,357,538.7,356.8,538.7,357z"/>
			</g>
		</g>
		<g>
			<g>
				<path class="st1" d="M548.3,394.9c0,0-0.1,0-0.4,0.1c-0.3,0-0.6,0.1-1.1,0.1c-1,0.1-2.3,0.2-4.1,0.4c-1.8,0.2-3.9,0.4-6.4,0.6
					c-2.5,0.2-5.4,0.4-8.5,0.6c-6.3,0.4-13.9,0.8-22.2,1c-8.4,0.2-17.6,0.3-27.3,0.1c-9.7-0.2-18.9-0.7-27.2-1.2
					c-8.4-0.6-15.9-1.3-22.2-2c-3.2-0.3-6-0.7-8.5-1c-2.5-0.3-4.6-0.6-6.4-0.8c-1.7-0.2-3.1-0.4-4-0.6c-0.4-0.1-0.8-0.1-1-0.2
					c-0.2,0-0.4-0.1-0.4-0.1c0,0,0.1,0,0.4,0c0.3,0,0.6,0.1,1.1,0.1c1,0.1,2.3,0.3,4.1,0.5c1.8,0.2,3.9,0.5,6.4,0.7
					c2.5,0.3,5.3,0.6,8.5,0.9c6.3,0.6,13.8,1.3,22.2,1.8c8.4,0.5,17.6,1,27.2,1.2c9.7,0.2,18.9,0.1,27.2,0
					c8.4-0.2,15.9-0.5,22.2-0.9c3.2-0.2,6-0.4,8.5-0.5c2.5-0.2,4.7-0.3,6.4-0.5c1.7-0.1,3.1-0.2,4.1-0.3c0.4,0,0.8-0.1,1.1-0.1
					C548.2,394.9,548.3,394.9,548.3,394.9z"/>
			</g>
		</g>
		<g>
			<g>
				<path class="st1" d="M480.2,439.7c0,0-0.3,0-0.8,0.1c-0.6,0-1.3,0.1-2.2,0.1c-1.9,0.1-4.7,0.1-8.1,0.2c-6.8,0-16.2-0.2-26.6-1.1
					c-10.4-0.9-19.7-2.2-26.4-3.3c-3.4-0.6-6.1-1.1-7.9-1.5c-0.9-0.2-1.6-0.3-2.1-0.5c-0.5-0.1-0.7-0.2-0.7-0.2c0,0,0.3,0,0.8,0.1
					c0.5,0.1,1.3,0.2,2.2,0.4c1.9,0.3,4.6,0.8,8,1.3c6.7,1.1,16,2.3,26.4,3.2c10.4,0.9,19.8,1.2,26.6,1.2c3.4,0,6.2,0,8.1,0
					c0.9,0,1.6,0,2.2,0C479.9,439.6,480.2,439.6,480.2,439.7z"/>
			</g>
		</g>
		<g>
			<g>
				<path class="st1" d="M505.7,438.7c0,0.1-3.3,0.3-7.4,0.4c-4.1,0.1-7.5,0-7.5-0.1c0-0.1,3.3-0.3,7.4-0.4
					C502.4,438.5,505.7,438.5,505.7,438.7z"/>
			</g>
		</g>
		<g>
			<g>
				<path class="st1" d="M553.7,436.2c0,0-0.5,0.1-1.3,0.1c-0.9,0-2.1,0.1-3.5,0.1c-3,0.1-7,0.2-11.5,0.4c-4.4,0.2-8.4,0.3-11.5,0.5
					c-1.4,0.1-2.6,0.1-3.5,0.1c-0.8,0-1.3,0-1.3,0c0,0,0.4-0.1,1.3-0.2c0.8-0.1,2-0.2,3.5-0.3c2.9-0.2,7-0.5,11.5-0.6
					c4.5-0.2,8.5-0.2,11.5-0.2c1.5,0,2.7,0,3.5,0C553.2,436.2,553.7,436.2,553.7,436.2z"/>
			</g>
		</g>
		<g>
			<g>
				<path class="st1" d="M566.9,332.1c0,0-0.4,0.1-1.2,0.1c-0.9,0-2,0.1-3.3,0.1c-2.7,0.1-6.5,0.4-10.7,0.9
					c-4.2,0.5-7.9,1.2-10.6,1.8c-1.3,0.3-2.3,0.5-3.2,0.7c-0.8,0.2-1.2,0.2-1.2,0.2c0,0,0.4-0.2,1.1-0.4c0.7-0.2,1.8-0.5,3.1-0.9
					c2.7-0.7,6.4-1.4,10.6-2c4.2-0.5,8-0.7,10.7-0.8c1.4,0,2.5,0,3.3,0C566.5,332,566.9,332,566.9,332.1z"/>
			</g>
		</g>
		<g>
			<g>
				<path class="st1" d="M583.2,328.8c0,0.2-2.2,0.2-5,0.6c-2.7,0.4-4.9,0.9-5,0.7c0-0.1,2.1-0.9,4.9-1.2
					C580.9,328.6,583.2,328.7,583.2,328.8z"/>
			</g>
		</g>
		<g>
			<g>
				<path class="st1" d="M588.7,327.4c0,0.1-0.4,0.4-0.9,0.6c-0.5,0.2-1,0.2-1.1,0.1c0-0.1,0.4-0.4,0.9-0.6
					C588.2,327.3,588.7,327.3,588.7,327.4z"/>
			</g>
		</g>
		<g>
			<g>
				<path class="st1" d="M583.2,297.2c0,0-0.6,0.1-1.6,0.1c-1,0-2.5,0.1-4.4,0.2c-3.7,0.2-8.8,0.6-14.4,1.4
					c-5.6,0.8-10.6,1.9-14.2,2.8c-1.8,0.4-3.3,0.8-4.3,1.1c-1,0.3-1.6,0.4-1.6,0.4c0,0,0.5-0.2,1.5-0.6c1-0.3,2.4-0.8,4.2-1.3
					c3.6-1,8.6-2.1,14.2-3c5.6-0.8,10.8-1.2,14.5-1.3c1.9,0,3.4,0,4.4,0C582.6,297.2,583.2,297.2,583.2,297.2z"/>
			</g>
		</g>
		<g>
			<g>
				<path class="st1" d="M593.8,365c0,0-0.2,0.1-0.5,0.1c-0.4,0-0.9,0.1-1.4,0.2c-1.3,0.1-3.1,0.3-5.2,0.6
					c-4.4,0.5-10.5,1.2-17.2,2.2c-6.7,1-12.8,2-17.2,2.8c-2.1,0.4-3.9,0.7-5.2,1c-0.6,0.1-1,0.2-1.4,0.2c-0.3,0.1-0.5,0.1-0.5,0.1
					c0,0,0.2-0.1,0.5-0.2c0.4-0.1,0.8-0.2,1.4-0.3c1.2-0.3,3-0.7,5.2-1.1c4.4-0.9,10.4-2,17.2-3c6.7-1,12.8-1.7,17.3-2.1
					c2.2-0.2,4-0.3,5.3-0.4c0.6,0,1-0.1,1.4-0.1C593.6,365,593.8,365,593.8,365z"/>
			</g>
		</g>
		<g>
			<g>
				<path class="st1" d="M570.9,404.2c0,0.1-4.3,0.8-9.6,1.5c-5.3,0.7-9.6,1.1-9.6,1c0-0.1,4.3-0.8,9.6-1.5
					C566.6,404.5,570.9,404,570.9,404.2z"/>
			</g>
		</g>
		<g>
			<g>
				<path class="st1" d="M585.5,402.3c0,0.1-1.8,0.6-4.1,0.9c-2.3,0.4-4.2,0.6-4.2,0.4c0-0.1,1.8-0.6,4.1-0.9
					C583.6,402.4,585.5,402.2,585.5,402.3z"/>
			</g>
		</g>
		<g>
			<g>
				<path class="st1" d="M599.4,402.3c0,0.1-1.5,0.3-3.3,0.3c-1.8,0-3.3-0.1-3.3-0.3c0-0.1,1.5-0.3,3.3-0.3
					C597.9,402.1,599.4,402.2,599.4,402.3z"/>
			</g>
		</g>
		<g>
			<g>
				<path class="st1" d="M607.3,440.1c0,0-0.2,0-0.5,0.1c-0.4,0-0.9,0.1-1.5,0.1c-1.4,0.1-3.2,0.2-5.5,0.3
					c-4.7,0.3-11.1,0.7-18.1,1.1c-7,0.5-13.4,0.9-18.1,1.3c-2.3,0.2-4.1,0.3-5.5,0.4c-0.6,0-1.1,0.1-1.5,0.1c-0.3,0-0.5,0-0.5,0
					c0,0,0.2-0.1,0.5-0.1c0.4,0,0.9-0.1,1.5-0.2c1.3-0.1,3.2-0.3,5.5-0.6c4.6-0.4,11-1,18.1-1.4c7.1-0.5,13.5-0.8,18.1-1
					c2.3-0.1,4.2-0.2,5.5-0.2c0.6,0,1.1,0,1.5,0C607.1,440.1,607.3,440.1,607.3,440.1z"/>
			</g>
		</g>
		<g class="st12">
			<g>
				<path d="M537.1,321.9c-2.5,6.9-4,17.1-2.6,35.7c0.6,7.4-0.4,14.9-3.1,21.8c-1.1,2.7-2.3,6.5,0.1,8.1c2,1.3,4.7-0.1,7,0.6
					c3,0.9,3.7,4.7,4,7.7c1.7,18.2,6.7,40.5,12.8,57.8C559.1,410.2,535.2,365.5,537.1,321.9z"/>
			</g>
		</g>
		<g class="st12">
			<g>
				<path d="M405.6,426.3l1.9-14c-0.3-4.4-0.2-18.2-1-24.9c-1.5-13.1-1.4-26-0.8-39.5c-3.8,10.6-5.7,22.1-4.4,33.3
					c0.5,4.8,1.5,9.6,1.7,14.5c0.2,4.9-0.6,9.9-3.2,14c-3.8,5.8-11,8.6-17.9,9.6c-12.8,1.8-27.5-2.5-33.9-13.7
					c1.1,6.3,3.6,12.4,7.2,17.8C355,423.4,389.8,431.5,405.6,426.3z"/>
			</g>
		</g>
		<g class="st12">
			<g>
				<path d="M486.9,263.2c-20.9-0.9-23.6-2.6-28.8-7.2c0,3.6,3.1,6.4,6.4,8c17.1,8.7,39.1,6.6,54.2-5.2
					C508.2,261.2,497.6,263.7,486.9,263.2z"/>
			</g>
		</g>
	</g>
	<g>
		<g>
			<path class="st8" d="M260.7,385.9c0,0,11.5-3.7,25.8-3c14.3,0.7,31-1.1,31-1.1c9.1,8.8,12.1,19.7,12.2,31.8l-60.3-6.5
				L260.7,385.9z"/>
		</g>
		<g>
			<path class="st8" d="M256.7,414.7c-1.7-0.7-3.5,0.8-4.8,2.1c-1.3,1.4-2.5,2.9-4.3,3.6l-4-4.4l-4.3,10.9c1.7,1.6,3.6,3,5.6,4.1
				c1.5,0.8,3.2,1.4,4.8,0.9c1.8-0.5,2.9-2.3,3.8-3.9c1.2-2,2.3-4,3.5-6c0.7-1.2,1.4-2.5,1.5-3.9C258.6,416.8,258,415.2,256.7,414.7
				z"/>
		</g>
		<g>
			<path class="st8" d="M261.2,385.7c0,0-14.1,9.3-16.6,10.7c-2.5,1.4-13.9,25.5-13.9,25.5l2.1,29.3c0,0,5.4-0.3,6.9-6.4
				c1.5-6,2.1-19.4,2.1-19.4l10.3-13.2l21.3-6.4L261.2,385.7z"/>
		</g>
		<g>
			<path class="st8" d="M251.2,404.9c0,4.3,5.2,6.6,3.6,11.5c0.3,7,0.2,11.4-0.4,17.1c-0.1,0.8,1.4,2.6,2,3.1
				c0.9,0.7,2.2,0.1,3.1-0.6c2.4-2,3.7-5.1,4.3-8.2c0.7-3.1,0.8-6.2,1.6-9.3c1-3.9,2.8-7.4,4-11.2c1.2-3.8,1.6-8.1-0.3-11.6"/>
		</g>
	</g>
	<g>
		<g>
			<path class="st9" d="M250.5,405.3c0,0,0.4,0.1,0.9,0.6c0.5,0.4,1.2,1.2,1.8,2.2c1.2,2.1,1.9,5.4,2.1,9c0.2,3.6,0.1,6.9,0,9.3
				c-0.1,1.2-0.1,2.1-0.2,2.8c-0.1,0.7-0.1,1-0.1,1c0,0-0.1-0.4-0.1-1c0-0.8,0-1.7,0-2.8c0-2.4,0.1-5.6-0.2-9.2
				c-0.2-3.6-0.8-6.8-1.9-8.9C251.8,406.1,250.4,405.3,250.5,405.3z"/>
		</g>
	</g>
	<g>
		<g>
			<path class="st9" d="M270.2,394.6c0.1,0,0.3,0.7,0.6,1.8c0.2,1.2,0.4,2.8,0.3,4.6c-0.1,1.8-0.4,3.4-0.8,4.6
				c-0.3,1.1-0.7,1.8-0.7,1.8c-0.2,0,0.8-2.8,1-6.4C270.8,397.5,270.1,394.7,270.2,394.6z"/>
		</g>
	</g>
	<g>
		<g>
			<path class="st9" d="M252,412.2c0,0-0.2,0.4-0.7,1c-0.6,0.7-1.3,1.6-2.2,2.7c-1,1.1-2.1,2.5-3.3,3.9c-0.6,0.7-1.3,1.5-1.9,2.3
				c-0.7,0.8-1.4,1.6-1.7,2.6c-0.3,1-0.4,2.1-0.5,3.1c-0.1,1-0.2,2-0.3,3c-0.1,1.9-0.3,3.6-0.4,5.1c-0.1,1.4-0.3,2.6-0.4,3.4
				c-0.1,0.8-0.3,1.2-0.3,1.2c0,0,0-0.4,0.1-1.3c0.1-0.8,0.1-2,0.2-3.4c0.1-1.5,0.2-3.2,0.3-5.1c0.1-1,0.1-2,0.2-3
				c0.1-1,0.2-2.1,0.5-3.2c0.4-1.1,1.2-1.9,1.8-2.7c0.7-0.8,1.3-1.5,2-2.3c1.2-1.4,2.4-2.7,3.4-3.8c0.9-1,1.7-1.9,2.3-2.5
				C251.6,412.5,252,412.2,252,412.2z"/>
		</g>
	</g>
</g>
<g id="Meter">
	<g>
		<g>
			<path class="st11" d="M197.8,102.8c-9-0.6-18.1,0.7-27.2,0.2c-9.2-0.6-18.2-3-27.4-3.8c-9.2-0.8-19.1,0.4-26.3,6.1
				c7.9,1.8,15.5,5.4,21.9,10.4c-10.2,2-20.8,1-31.2,2c-10.4,1-21.4,4.6-27.3,13.2c10.1-2.3,21.5,2.6,26.8,11.5
				c-8.9,8.5-21.1,13.5-33.4,13.8c2.5,10.7,14,16.3,24.3,20c10.3,3.7,22,8.1,26.1,18.3c-4.1,0.7-8.3,1.4-12.4,2.2
				c8.5,6.6,15.1,15.2,22,23.5c6.9,8.3,14.2,16.4,23.7,21.6c9.4,5.1,21.4,6.8,30.9,1.8l68.7-92.5
				C249.6,124.7,224.8,104.5,197.8,102.8z"/>
		</g>
		<g>
			
				<ellipse transform="matrix(0.2238 -0.9746 0.9746 0.2238 -22.2947 337.9436)" class="st3" cx="201" cy="183" rx="68.5" ry="68.5"/>
		</g>
		<g>
			<g>
				<path class="st11" d="M263.9,181.3C263.9,181.3,263.9,181.3,263.9,181.3c-0.1-16.8-6.8-31.9-17.7-43.1
					c-11-11.3-26.2-18.3-43-18.7c-0.5,0-1,0-1.4,0c-17.7,0-33.7,7.5-45.1,19.4c0,0,0,0,0,0c-10.5,11.1-17,26.1-17.1,42.5
					c0,0.1,0,0.1,0,0.2c0,16.9,6.8,32.3,17.8,43.5l16.9-18.3c-6.2-6.6-10-15.5-10-25.2c0-0.1,0-0.2,0-0.2c0.1-9.4,3.6-17.9,9.5-24.4
					c0,0,0,0,0,0c6.7-7.4,16.5-12.1,27.3-12.1c0.7,0,1.3,0,2,0.1c9.7,0.5,18.5,4.8,24.7,11.5c6.2,6.5,10,15.3,10.1,24.9c0,0,0,0,0,0
					c0,0.1,0,0.2,0,0.3c0,10.2-4.1,19.4-10.8,26l18.5,18.1c11.3-11.3,18.4-26.9,18.4-44.1C263.9,181.5,263.9,181.4,263.9,181.3z"/>
			</g>
			<g>
				<g>
					<path class="st13" d="M173.8,156.9c-4.7-5-13.2-14.1-17.1-18.1c0,0,0,0,0,0L173.8,156.9C173.7,157,173.8,157,173.8,156.9z"/>
				</g>
				<g>
					<polygon class="st13" points="237.8,181.3 263.9,181.3 263.9,181.3 237.8,181.3 					"/>
				</g>
				<g class="st14">
					<path d="M237.8,181.6c0,10.2-4.1,19.4-10.8,26l18.5,18.1c11.3-11.3,18.4-26.9,18.4-44.1c0-0.1,0-0.2,0-0.3h-26.1
						C237.8,181.4,237.8,181.5,237.8,181.6z"/>
				</g>
				<g class="st15">
					<path d="M237.8,181.3l26.1,0c-0.1-16.8-6.8-31.9-17.7-43.1l-18.5,18.1C233.9,162.9,237.7,171.6,237.8,181.3z"/>
				</g>
				<g class="st16">
					<path d="M203,144.9c9.7,0.5,18.5,4.8,24.7,11.5l18.5-18.1c-11-11.3-26.2-18.3-43-18.7L203,144.9L203,144.9z"/>
				</g>
				<g class="st12">
					<path d="M201,144.9c0.7,0,1.3,0,2,0.1l0,0l0.2-25.4c-0.5,0-1,0-1.4,0c-17.7,0-33.7,7.5-45.1,19.4c3.9,4,12.4,13,17.1,18.1
						C180.5,149.5,190.2,144.9,201,144.9z"/>
				</g>
				<g class="st17">
					<path d="M164.3,181.4c0.1-9.4,3.6-17.9,9.5-24.4l-17.1-18.1c-10.5,11.1-17,26.1-17.1,42.5C144.3,181.5,155.8,181.4,164.3,181.4
						z"/>
				</g>
			</g>
		</g>
		<g>
			<path class="st6" d="M269.5,183c0,0,0-0.4,0-1.1c0-0.4,0-0.8,0-1.4c0-0.5,0-1.2-0.1-1.9c-0.1-0.7-0.1-1.5-0.2-2.4
				c-0.1-0.9-0.2-1.8-0.4-2.9c-0.3-2.1-0.7-4.4-1.4-7.1c-0.7-2.6-1.5-5.5-2.8-8.6c-1.2-3.1-2.8-6.3-4.8-9.6
				c-4-6.6-9.6-13.5-17.4-19.4c-3.9-3-8.2-5.6-13.1-7.8c-4.8-2.2-10.1-4-15.7-5c-5.6-1-11.6-1.4-17.6-1c-3,0.2-6.1,0.7-9.2,1.3
				c-3.1,0.7-6.1,1.5-9.1,2.6c-3,1.1-6,2.4-8.9,4c-2.9,1.6-5.7,3.3-8.4,5.3c-2.7,2-5.3,4.2-7.7,6.6c-2.4,2.4-4.7,5.1-6.8,7.9
				c-2.1,2.8-3.9,5.8-5.6,9c-0.4,0.8-0.8,1.6-1.2,2.4c-0.4,0.8-0.7,1.6-1.1,2.4c-0.7,1.7-1.3,3.3-1.9,5.1c-1.1,3.4-2,7-2.6,10.6
				c-0.6,3.6-0.9,7.3-0.9,11c0,3.7,0.3,7.4,0.9,11c0.6,3.6,1.5,7.2,2.6,10.6l0.4,1.3l0.2,0.6l0.2,0.6c0.3,0.8,0.7,1.7,1,2.5
				c0.4,0.8,0.7,1.6,1.1,2.4c0.4,0.8,0.8,1.6,1.2,2.4c1.7,3.1,3.5,6.2,5.6,9c2.1,2.8,4.3,5.4,6.8,7.9c2.4,2.4,5,4.6,7.7,6.6
				c2.7,2,5.5,3.8,8.4,5.3c2.9,1.6,5.9,2.8,8.9,4c3,1.1,6.1,2,9.1,2.6c3.1,0.6,6.1,1.1,9.2,1.3c6.1,0.5,12,0.1,17.6-1
				c5.6-1,10.9-2.8,15.7-5c4.8-2.2,9.2-4.9,13.1-7.8c7.7-5.9,13.4-12.8,17.4-19.4c2-3.3,3.5-6.6,4.8-9.6c1.3-3.1,2.1-6,2.8-8.6
				c0.6-2.6,1.1-5,1.4-7.1c0.1-1,0.3-2,0.4-2.9c0.1-0.9,0.1-1.7,0.2-2.4c0.1-0.7,0.1-1.3,0.1-1.9c0-0.5,0-1,0-1.4
				C269.5,183.3,269.5,183,269.5,183s0,0.4,0,1.1c0,0.4,0,0.8,0,1.4c0,0.5,0,1.2-0.1,1.9c-0.1,0.7-0.1,1.5-0.2,2.4
				c-0.1,0.9-0.2,1.8-0.3,2.9c-0.3,2.1-0.7,4.5-1.4,7.1c-0.7,2.6-1.5,5.6-2.8,8.6c-1.2,3.1-2.8,6.4-4.8,9.7
				c-4,6.6-9.6,13.6-17.4,19.5c-3.9,3-8.3,5.6-13.1,7.9c-4.8,2.2-10.1,4-15.8,5c-5.6,1-11.6,1.5-17.7,1c-3.1-0.2-6.1-0.7-9.2-1.3
				c-3.1-0.7-6.1-1.5-9.2-2.6c-3-1.1-6-2.4-8.9-4c-2.9-1.6-5.7-3.3-8.5-5.4c-2.7-2-5.3-4.2-7.7-6.7c-2.4-2.5-4.7-5.1-6.8-7.9
				c-2.1-2.8-3.9-5.9-5.6-9c-0.4-0.8-0.8-1.6-1.2-2.4c-0.4-0.8-0.7-1.6-1.1-2.5c-0.3-0.8-0.7-1.7-1-2.5l-0.2-0.6l-0.2-0.6l-0.4-1.3
				c-1.1-3.4-2.1-7-2.6-10.6c-0.6-3.6-0.9-7.3-0.9-11c0-3.7,0.3-7.4,0.9-11c0.6-3.6,1.5-7.2,2.6-10.6c0.5-1.7,1.2-3.4,1.9-5.1
				c0.4-0.8,0.7-1.6,1.1-2.5c0.4-0.8,0.8-1.6,1.2-2.4c1.7-3.2,3.5-6.2,5.6-9c2.1-2.8,4.4-5.5,6.8-7.9c2.5-2.4,5-4.6,7.7-6.7
				c2.7-2,5.6-3.8,8.5-5.3c2.9-1.6,5.9-2.9,8.9-4c3-1.1,6.1-2,9.2-2.6c3.1-0.6,6.1-1.1,9.2-1.3c6.1-0.5,12.1-0.1,17.7,1
				c5.6,1,10.9,2.8,15.8,5c4.8,2.2,9.2,4.9,13.1,7.8c7.8,5.9,13.4,12.9,17.4,19.5c2,3.3,3.5,6.6,4.8,9.7c1.3,3.1,2.1,6,2.8,8.6
				c0.6,2.6,1.1,5,1.4,7.1c0.1,1,0.3,2,0.3,2.9c0.1,0.9,0.1,1.7,0.2,2.4c0.1,0.7,0.1,1.3,0.1,1.9c0,0.5,0,1,0,1.4
				C269.5,182.6,269.5,183,269.5,183z"/>
		</g>
		<g>
			
				<ellipse transform="matrix(0.9225 -0.386 0.386 0.9225 -54.9958 92.0551)" class="st0" cx="201.7" cy="183" rx="14.3" ry="14.3"/>
		</g>
		<g>
			<path class="st10" d="M197.5,183.9L197.5,183.9c0.6,2.1,2.9,3.4,5,2.8l49.6-14.1l-51.2,6.2C198.4,179.1,196.8,181.5,197.5,183.9z
				"/>
		</g>
		<g>
			<path class="st6" d="M227.5,168c0,0,0-0.1-0.1-0.2c-0.1-0.1-0.2-0.3-0.3-0.6c-0.1-0.3-0.3-0.6-0.5-0.9c-0.2-0.4-0.4-0.8-0.7-1.2
				c-0.3-0.5-0.6-1-0.9-1.5c-0.4-0.5-0.8-1.1-1.2-1.7c-0.9-1.2-2.1-2.5-3.4-3.8c-2.8-2.6-6.6-5.2-11.4-6.7c-2.4-0.7-5-1.2-7.7-1.3
				c-2.7-0.1-5.6,0.3-8.4,1c-2.8,0.8-5.4,1.9-7.8,3.3c-2.4,1.4-4.4,3.1-6.1,4.9c-3.4,3.7-5.5,7.9-6.6,11.5c-0.6,1.8-0.9,3.5-1.1,5
				c-0.1,0.8-0.2,1.5-0.2,2.1c0,0.6-0.1,1.2-0.1,1.8c0,0.5,0,1,0,1.4c0,0.4,0.1,0.8,0.1,1c0,0.3,0,0.5,0,0.6c0,0.1,0,0.2,0,0.2
				c0,0,0-0.1,0-0.2c0-0.2,0-0.4-0.1-0.6c0-0.3-0.1-0.6-0.1-1c0-0.4,0-0.9-0.1-1.4c0-0.5,0-1.1,0-1.8c0-0.6,0.1-1.4,0.2-2.1
				c0.2-1.5,0.5-3.2,1.1-5c1.1-3.6,3.2-7.9,6.6-11.6c1.7-1.9,3.8-3.6,6.1-5c2.4-1.4,5-2.6,7.8-3.3c2.8-0.7,5.7-1.1,8.4-1
				c2.8,0,5.4,0.5,7.8,1.3c4.8,1.5,8.7,4.2,11.5,6.8c1.4,1.3,2.5,2.6,3.4,3.8c0.4,0.6,0.9,1.2,1.2,1.7c0.3,0.6,0.7,1.1,0.9,1.5
				c0.2,0.5,0.5,0.9,0.7,1.3c0.2,0.4,0.3,0.7,0.4,0.9c0.1,0.2,0.2,0.4,0.3,0.6C227.5,167.9,227.5,168,227.5,168z"/>
		</g>
		<g>
			<path class="st6" d="M221.6,166.5c0,0-0.1-0.1-0.2-0.3c-0.2-0.2-0.4-0.5-0.7-0.9c-0.6-0.8-1.5-1.9-2.8-3.1
				c-1.3-1.2-2.9-2.5-4.9-3.7c-2-1.2-4.4-2.2-7-2.8c-2.6-0.6-5.2-0.8-7.5-0.6c-2.3,0.2-4.4,0.6-6,1.1c-1.7,0.5-3,1.1-3.9,1.5
				c-0.4,0.2-0.8,0.4-1,0.5c-0.2,0.1-0.4,0.2-0.4,0.2c0,0,0.1-0.1,0.3-0.2c0.2-0.1,0.5-0.3,1-0.6c0.9-0.5,2.2-1.1,3.9-1.6
				c1.7-0.6,3.8-1,6.1-1.2c2.3-0.2,4.9,0,7.6,0.6c2.6,0.6,5,1.7,7,2.9c2,1.2,3.7,2.5,4.9,3.8c1.3,1.2,2.2,2.4,2.7,3.2
				c0.3,0.4,0.5,0.7,0.6,0.9C221.6,166.4,221.6,166.5,221.6,166.5z"/>
		</g>
		<g>
			<path class="st11" d="M77,143.5c-2.6-3.6-10.4-5.9-14.8-5c-2.4,0.4-4.6,1.6-6.8,2.4c-2.3,0.8-4.8,1.3-7.1,0.5
				C55.2,147.8,69,148.6,77,143.5"/>
		</g>
	</g>
</g>
<g id="Desk">
	<g>
		<g>
			<path class="st6" d="M685.7,457.6c0,0.1-138.8,0.3-310.1,0.3c-171.3,0-310.1-0.1-310.1-0.3c0-0.1,138.8-0.3,310.1-0.3
				C546.9,457.3,685.7,457.4,685.7,457.6z"/>
		</g>
	</g>
</g>
</svg>
