<svg xmlns="http://www.w3.org/2000/svg" width="458.8" height="429.1" viewBox="0 0 458.8 429.1"><g id="Table"><path d="M470.6,459.2c0,.2-101.5.3-226.7.3s-226.7-.1-226.7-.3,101.5-.2,226.7-.2S470.6,459.1,470.6,459.2Z" transform="translate(-16.8 -32.1)" style="fill:#263238"/></g><g id="Device"><path d="M401.2,456H86.8A18.8,18.8,0,0,1,68,437.2V221.4a13.7,13.7,0,0,1,13.7-13.7H407.1a13,13,0,0,1,12.9,13V437.2A18.8,18.8,0,0,1,401.2,456Z" transform="translate(-16.8 -32.1)" style="fill:#455a64"/><g style="opacity:0.30000000000000004"><path d="M401.2,456H86.8A18.8,18.8,0,0,1,68,437.2V221.4a13.7,13.7,0,0,1,13.7-13.7H407.1a13,13,0,0,1,12.9,13V437.2A18.8,18.8,0,0,1,401.2,456Z" transform="translate(-16.8 -32.1)"/></g><path d="M419.7,459.8H71.5a18.1,18.1,0,0,1-18.2-18.2v-2.8a.7.7,0,0,1,.7-.7H434a.7.7,0,0,1,.7.7v6A15,15,0,0,1,419.7,459.8Z" transform="translate(-16.8 -32.1)" style="fill:#455a64"/><g style="opacity:0.30000000000000004"><path d="M419.7,459.8H71.5a18.1,18.1,0,0,1-18.2-18.2v-2.8a.7.7,0,0,1,.7-.7H434a.7.7,0,0,1,.7.7v6A15,15,0,0,1,419.7,459.8Z" transform="translate(-16.8 -32.1)"/></g><path d="M419.7,459.8h.5a12.5,12.5,0,0,0,1.5-.2,13.6,13.6,0,0,0,5.6-1.9,15,15,0,0,0,6.2-7.3,13.1,13.1,0,0,0,1.1-6v-5.3c0-.3.1-.6-.2-.8s-.5-.1-.8-.1H53.8q-.3.1-.3.3V443a20.5,20.5,0,0,0,1.1,4.9c.3.8.7,1.5,1,2.2a15.3,15.3,0,0,0,1.4,2.1,17.8,17.8,0,0,0,7.7,6.1,19.1,19.1,0,0,0,4.7,1.2h0a16.9,16.9,0,0,1-4.9-1.3,19,19,0,0,1-7.9-6.1,25.3,25.3,0,0,1-1.3-2.2,16.3,16.3,0,0,1-1.1-2.3,21.3,21.3,0,0,1-1.1-5v-3.8a1.6,1.6,0,0,1,0-.7l.5-.5H434.1l.4.2.3.5v5.7a15.4,15.4,0,0,1-4,10.5,14,14,0,0,1-3.4,2.8,14.4,14.4,0,0,1-5.7,2h-2Z" transform="translate(-16.8 -32.1)" style="fill:#455a64"/><rect x="65.6" y="190.8" width="322.2" height="203.42" rx="3.9" style="fill:#fff"/><path d="M400.7,426.3h.7a5.2,5.2,0,0,0,1.8-.8,3.9,3.9,0,0,0,1.4-2.9v-35c-.1-26.5-.1-64.7-.1-112V227.4a4.9,4.9,0,0,0-.1-1.2,3.5,3.5,0,0,0-3.1-3.1H86.4a3.9,3.9,0,0,0-2.9,1.3,3.7,3.7,0,0,0-.7,1.4,4.4,4.4,0,0,0-.2,1.6V421a6.5,6.5,0,0,0,.3,2.8,3.7,3.7,0,0,0,1.9,2l1.3.3h0a4,4,0,0,1-1.5-.3,4,4,0,0,1-2-2.2,3.3,3.3,0,0,1-.3-1.5V227.3a5.2,5.2,0,0,1,.2-1.7,5.3,5.3,0,0,1,.8-1.5,4,4,0,0,1,3.2-1.4H401.3a4.6,4.6,0,0,1,2.3,1.2,3.8,3.8,0,0,1,1.1,2.3,4.9,4.9,0,0,1,.1,1.2v48.1c-.1,47.3-.1,85.5-.1,112v35a4.3,4.3,0,0,1-1.5,2.9,3.8,3.8,0,0,1-1.8.8h-.7Z" transform="translate(-16.8 -32.1)" style="fill:#263238"/><polygon points="192.5 405.6 197.2 413.6 263.8 413.6 268.2 405.6 192.5 405.6" style="fill:#455a64"/><path d="M246.6,216a2.7,2.7,0,0,1-5.3,0,2.7,2.7,0,1,1,5.3,0Z" transform="translate(-16.8 -32.1)" style="fill:#263238"/></g><g id="Document"><path d="M172.7,391.4V400H356.6V135.1l-5.3-5.3Z" transform="translate(-16.8 -32.1)" style="fill:#e0e0e0"/><polyline points="288.3 359.5 151.5 359.5 151.5 97.3 334.7 97.3 334.7 312.6" style="fill:#fff"/><path d="M351.6,344.7a4.5,4.5,0,0,1-.1-1V285.2c-.1-37.8-.1-91.7-.1-155.8h-183l.2-.2v.2c0,100.8,0,192.8-.1,262v-.2h-.1c-.1-69.2-.1-161.2-.1-262v-.4H351.7v156c-.1,18.8-.1,33.7-.1,43.9v15.6Z" transform="translate(-16.8 -32.1)" style="fill:#263238"/><rect x="163.1" y="113.6" width="80" height="43.12" style="fill:#fbb11b"/><path d="M337,155.6c0,.1-14.4.2-32.2.2s-32.1-.1-32.1-.2,14.4-.2,32.1-.2S337,155.5,337,155.6Z" transform="translate(-16.8 -32.1)" style="fill:#263238"/><path d="M337,163.3c0,.1-14.4.2-32.2.2s-32.1-.1-32.1-.2,14.4-.2,32.1-.2S337,163.2,337,163.3Z" transform="translate(-16.8 -32.1)" style="fill:#263238"/><path d="M337,171.1c0,.1-14.4.2-32.2.2s-32.1-.1-32.1-.2,14.4-.2,32.1-.2S337,171,337,171.1Z" transform="translate(-16.8 -32.1)" style="fill:#263238"/><path d="M311.4,178.8c0,.1-8.7.2-19.3.2s-19.4-.1-19.4-.2,8.7-.2,19.4-.2S311.4,178.7,311.4,178.8Z" transform="translate(-16.8 -32.1)" style="fill:#263238"/><path d="M339.4,197.5c0,.1-35.5.2-79.3.2s-79.2-.1-79.2-.2,35.5-.2,79.2-.2S339.4,197.4,339.4,197.5Z" transform="translate(-16.8 -32.1)" style="fill:#263238"/><path d="M339.4,202.2c0,.2-35.1.2-78.4.2s-78.4,0-78.4-.2H339.4Z" transform="translate(-16.8 -32.1)" style="fill:#263238"/><rect x="164" y="177.9" width="158.6" height="9.2" style="fill:#e0e0e0"/><rect x="162.3" y="262.2" width="158.6" height="9.2" style="fill:#e0e0e0"/><rect x="164" y="216.9" width="63.2" height="9.2" style="fill:#e0e0e0"/><rect x="241.8" y="216.9" width="79.1" height="9.2" style="fill:#e0e0e0"/><path d="M272.5,227.3c0,.1-20.4.2-45.5.2s-45.4-.1-45.4-.2,20.3-.2,45.4-.2S272.5,227.2,272.5,227.3Z" transform="translate(-16.8 -32.1)" style="fill:#263238"/><path d="M338.5,234.5c0,.1-35.1.2-78.5.2s-78.6-.1-78.6-.2,35.2-.2,78.6-.2S338.5,234.4,338.5,234.5Z" transform="translate(-16.8 -32.1)" style="fill:#263238"/><path d="M338.5,241.4c0,.1-35.1.2-78.5.2s-78.6-.1-78.6-.2,35.2-.2,78.6-.2S338.5,241.3,338.5,241.4Z" transform="translate(-16.8 -32.1)" style="fill:#263238"/><path d="M243.5,263.8c0,.1-14.1.2-31.5.2s-31.6-.1-31.6-.2,14.1-.2,31.6-.2S243.5,263.7,243.5,263.8Z" transform="translate(-16.8 -32.1)" style="fill:#263238"/><path d="M243.5,270.8c0,.1-13.9.2-31,.2s-31.1-.1-31.1-.2,13.9-.2,31.1-.2S243.5,270.7,243.5,270.8Z" transform="translate(-16.8 -32.1)" style="fill:#263238"/><path d="M243.3,278c0,.1-14,.2-31.3.2s-31.4-.1-31.4-.2,14-.2,31.4-.2S243.3,277.9,243.3,278Z" transform="translate(-16.8 -32.1)" style="fill:#263238"/><path d="M243.3,285c0,.1-14,.2-31.3.2s-31.4-.1-31.4-.2,14-.2,31.4-.2S243.3,284.9,243.3,285Z" transform="translate(-16.8 -32.1)" style="fill:#263238"/><path d="M336.5,265.4c0,.1-14.7.2-32.7.2s-32.7-.1-32.7-.2,14.6-.2,32.7-.2S336.5,265.3,336.5,265.4Z" transform="translate(-16.8 -32.1)" style="fill:#263238"/><path d="M266,267.7a10.3,10.3,0,0,0-.1-1.3v-3.2h-4.4l.2-.2h0v4.4l-.2-.2h-.1a15.5,15.5,0,0,1-.1-2.2v-2.2h0l.2-.2h4.7v.2c0,1.4-.1,2.5-.1,3.3S266.1,267.7,266,267.7Z" transform="translate(-16.8 -32.1)" style="fill:#263238"/><path d="M336.5,274.1c0,.1-14.7.2-32.7.2s-32.7-.1-32.7-.2,14.6-.2,32.7-.2S336.5,274,336.5,274.1Z" transform="translate(-16.8 -32.1)" style="fill:#263238"/><path d="M266,276.3a11.6,11.6,0,0,0-.1-1.3v-3h-4.5c0,.1.4-.3.2-.2h0v4.2H266c.1.1-.4.1-1.2.1h-3.4v-.2a13.4,13.4,0,0,1-.1-2.1v-2.1h0c-.1.2.3-.2.2-.2h4.7c0,1.4-.1,2.6-.1,3.3S266.1,276.4,266,276.3Z" transform="translate(-16.8 -32.1)" style="fill:#263238"/><path d="M336.5,282.7c0,.1-14.7.2-32.7.2s-32.7-.1-32.7-.2,14.6-.2,32.7-.2S336.5,282.6,336.5,282.7Z" transform="translate(-16.8 -32.1)" style="fill:#263238"/><path d="M266,285a11.6,11.6,0,0,0-.1-1.3v-3.2h-4.4l.2-.2h0V285l-.2-.2h-.1V285a14.8,14.8,0,0,1-.1-2.1v-2.3h0l.2-.2h4.7v.2c0,1.4-.1,2.5-.1,3.3S266.1,285,266,285Z" transform="translate(-16.8 -32.1)" style="fill:#263238"/><path d="M336.5,354.3v-2.9c0-1.9,0-4.7-.1-8.3V311.7h-156l.2-.2v42.6l-.2-.2h-.2v-43H336.6c0,13.5,0,24.1-.1,31.4v11.2Z" transform="translate(-16.8 -32.1)" style="fill:#263238"/><path d="M336.5,322.4c0,.1-34.9.2-77.8.2s-77.9-.1-77.9-.2,34.9-.2,77.9-.2S336.5,322.3,336.5,322.4Z" transform="translate(-16.8 -32.1)" style="fill:#263238"/><path d="M336.5,333c0,.1-34.9.2-77.8.2s-77.9-.1-77.9-.2,34.9-.2,77.9-.2S336.5,332.9,336.5,333Z" transform="translate(-16.8 -32.1)" style="fill:#263238"/><path d="M336.5,343.7c0,.1-34.9.2-77.8.2s-77.9-.1-77.9-.2,34.9-.2,77.9-.2S336.5,343.6,336.5,343.7Z" transform="translate(-16.8 -32.1)" style="fill:#263238"/><path d="M198.5,354.7c-.1,0-.2-9.7-.2-21.6s.1-21.5.2-21.5.2,9.6.2,21.5S198.6,354.7,198.5,354.7Z" transform="translate(-16.8 -32.1)" style="fill:#263238"/><path d="M251.3,353.4c-.1,0-.2-9.2-.2-20.6s.1-20.5.2-20.5.2,9.2.2,20.5S251.4,353.4,251.3,353.4Z" transform="translate(-16.8 -32.1)" style="fill:#263238"/><path d="M306.9,355.3c-.1,0-.2-9.5-.2-21.2s.1-21.2.2-21.2.2,9.5.2,21.2S307,355.3,306.9,355.3Z" transform="translate(-16.8 -32.1)" style="fill:#263238"/><polygon points="288.3 359.5 334.7 312.6 288.3 312.6 288.3 359.5" style="fill:#f5f5f5"/><path d="M305.2,391.6c0-1.6-.1-19.4-.2-46.9v-.2h47l-.3.3-33.2,33.4-13.3,13.4L318.5,378l32.9-33.5.2.4H305.2l.2-.2C305.2,372.2,305.2,390,305.2,391.6Z" transform="translate(-16.8 -32.1)" style="fill:#263238"/><path d="M302.9,363.9c0,.1-27.3.1-60.9.1s-60.9,0-60.9-.1,27.3-.2,60.9-.2S302.9,363.7,302.9,363.9Z" transform="translate(-16.8 -32.1)" style="fill:#263238"/><path d="M302.9,370c0,.1-27.3.2-60.9.2s-60.9-.1-60.9-.2,27.3-.2,60.9-.2S302.9,369.9,302.9,370Z" transform="translate(-16.8 -32.1)" style="fill:#263238"/><path d="M236.5,376.2c0,.1-12.4.2-27.7.2s-27.7-.1-27.7-.2,12.4-.2,27.7-.2S236.5,376.1,236.5,376.2Z" transform="translate(-16.8 -32.1)" style="fill:#263238"/><path d="M340.9,138.5c0,.1-36,.2-80.4.2s-80.5-.1-80.5-.2,36-.2,80.5-.2S340.9,138.4,340.9,138.5Z" transform="translate(-16.8 -32.1)" style="fill:#e0e0e0"/><path d="M261,141.4c0,.1-18.1.2-40.5.2s-40.5-.1-40.5-.2,18.2-.2,40.5-.2S261,141.3,261,141.4Z" transform="translate(-16.8 -32.1)" style="fill:#e0e0e0"/><path d="M186.3,153.3a6.3,6.3,0,0,1-6.1-6.4V128.8a7.6,7.6,0,1,1,15.2,0,.9.9,0,0,1-1,1,1,1,0,0,1-1-1,5.8,5.8,0,0,0-5.6-6,5.9,5.9,0,0,0-5.6,6v18.1a4.3,4.3,0,0,0,4.1,4.4,4.2,4.2,0,0,0,4-4.4v-9.5a1,1,0,0,1,1-1h0a1,1,0,0,1,1,1v9.5A6.2,6.2,0,0,1,186.3,153.3Z" transform="translate(-16.8 -32.1)" style="fill:#263238"/></g><g id="Background_Complete" data-name="Background Complete"><path d="M160,87.2a36.3,36.3,0,1,1-40.5-31.5A36.3,36.3,0,0,1,160,87.2Z" transform="translate(-16.8 -32.1)" style="fill:#f5f5f5"/><path d="M151.4,88.3a27.7,27.7,0,1,1-30.9-24.1A27.7,27.7,0,0,1,151.4,88.3Z" transform="translate(-16.8 -32.1)" style="fill:#ebebeb"/><path d="M151.3,87.4c-.1,0-.4-1.2-1.1-3.2a28.6,28.6,0,0,0-4.2-8.1,35.7,35.7,0,0,0-4.3-4.5,29.6,29.6,0,0,0-6-3.9l-3.5-1.4a27.4,27.4,0,0,0-3.9-.9,29.7,29.7,0,0,0-4.2-.3l-4.3.3a27.3,27.3,0,0,0-4.1,1,26.6,26.6,0,0,0-3.9,1.6,37.9,37.9,0,0,0-3.4,2,24.8,24.8,0,0,0-3,2.5,28.6,28.6,0,0,0-4.5,5.5,31.7,31.7,0,0,0-2.7,5.6,28.7,28.7,0,0,0-1.5,8.9c-.1,2.2,0,3.4-.1,3.4s-.5-1.1-.8-3.4a26.4,26.4,0,0,1,1-9.4,28,28,0,0,1,2.6-6,26.3,26.3,0,0,1,4.7-6.1,26.6,26.6,0,0,1,3.1-2.6,28.5,28.5,0,0,1,3.7-2.3,20.9,20.9,0,0,1,4.1-1.7,36.9,36.9,0,0,1,4.5-1.1l4.6-.3a22.8,22.8,0,0,1,4.5.4,32,32,0,0,1,4.2,1,25.4,25.4,0,0,1,3.8,1.6,29.1,29.1,0,0,1,6.3,4.3,27.9,27.9,0,0,1,4.3,5,25.1,25.1,0,0,1,3.8,8.6C151.5,86.1,151.4,87.4,151.3,87.4Z" transform="translate(-16.8 -32.1)" style="fill:#e0e0e0"/><path d="M260.4,50.4a27.9,27.9,0,1,1-39.4-.9A27.8,27.8,0,0,1,260.4,50.4Z" transform="translate(-16.8 -32.1)" style="fill:#f5f5f5"/><path d="M255.6,55a21.3,21.3,0,1,1-30.1-.7A21.3,21.3,0,0,1,255.6,55Z" transform="translate(-16.8 -32.1)" style="fill:#ebebeb"/><path d="M255.1,54.5c-.1.1-.8-.5-2.2-1.5a21.8,21.8,0,0,0-6.3-3,28.1,28.1,0,0,0-4.7-.9,20.3,20.3,0,0,0-5.4.4l-2.9.7-2.8,1.3-2.7,1.6-2.5,2.2-2.1,2.5a19.1,19.1,0,0,0-1.6,2.7,17.8,17.8,0,0,0-1.2,2.9,14.3,14.3,0,0,0-.7,2.8,20.8,20.8,0,0,0-.3,5.5,21.8,21.8,0,0,0,.9,4.7,23.5,23.5,0,0,0,3.1,6.2c1,1.4,1.6,2.1,1.5,2.2a11.3,11.3,0,0,1-2-1.8,20.9,20.9,0,0,1-3.7-6.2,24.5,24.5,0,0,1-1.1-5,18.9,18.9,0,0,1,.1-5.8,17.3,17.3,0,0,1,.7-3.1,19.8,19.8,0,0,1,1.2-3.1,17.5,17.5,0,0,1,1.8-2.9,14.9,14.9,0,0,1,2.3-2.7,15.5,15.5,0,0,1,2.7-2.4l2.9-1.8a18.8,18.8,0,0,1,3-1.2,20.3,20.3,0,0,1,3.1-.8,19.7,19.7,0,0,1,5.9-.2,23.5,23.5,0,0,1,4.9,1.1,19.7,19.7,0,0,1,6.3,3.6C254.6,53.6,255.2,54.4,255.1,54.5Z" transform="translate(-16.8 -32.1)" style="fill:#e0e0e0"/><path d="M67.1,184.8a26.9,26.9,0,1,1-10-36.7A26.9,26.9,0,0,1,67.1,184.8Z" transform="translate(-16.8 -32.1)" style="fill:#fafafa"/><path d="M61.5,181.6a20.5,20.5,0,1,1-7.6-27.9A20.3,20.3,0,0,1,61.5,181.6Z" transform="translate(-16.8 -32.1)" style="fill:#f5f5f5"/><path d="M61.8,181a17.4,17.4,0,0,1,.8-2.4,24.2,24.2,0,0,0,1.1-6.6,25.8,25.8,0,0,0-.5-4.6,19.8,19.8,0,0,0-1.9-4.9,12,12,0,0,0-1.5-2.4,13.7,13.7,0,0,0-1.9-2.3,24,24,0,0,0-2.3-2.1L53,154a17.8,17.8,0,0,0-2.9-1.2,16.7,16.7,0,0,0-3-.8l-3-.3H41.3a20.1,20.1,0,0,0-5.1,1.3,19.7,19.7,0,0,0-4.1,2.1,24.8,24.8,0,0,0-4.9,4.6c-1,1.3-1.4,2-1.6,2a10.8,10.8,0,0,1,1.1-2.3,19.9,19.9,0,0,1,4.8-5.2,21,21,0,0,1,4.2-2.4,17.9,17.9,0,0,1,5.4-1.5l3.1-.2,3.2.3a18.7,18.7,0,0,1,6.3,2.2,17.5,17.5,0,0,1,2.9,1.8,17,17,0,0,1,2.4,2.2,16.4,16.4,0,0,1,2.1,2.5,13.5,13.5,0,0,1,1.5,2.6,19.1,19.1,0,0,1,1.8,5.4,20.3,20.3,0,0,1,.4,4.8,21.9,21.9,0,0,1-1.6,6.8C62.5,180.3,61.9,181.1,61.8,181Z" transform="translate(-16.8 -32.1)" style="fill:#ebebeb"/><path d="M39.7,183.2l-1.8,3.1-2.8-1.6,1.7-3a15.5,15.5,0,0,1-5.7-6.1l3.4-2.5a13.6,13.6,0,0,0,4.4,4.9l2.5-4.6c-2.6-2.5-5.5-5.4-3.3-9.4s5.2-4.3,9.9-2.4l1.7-3.1,2.8,1.6-1.7,3a14.3,14.3,0,0,1,4.7,4.8l-3.3,2.7a12.9,12.9,0,0,0-3.5-3.8l-2.6,4.7c2.7,2.5,5.5,5.4,3.4,9.3S44.3,185.1,39.7,183.2Zm4-13.9,2.2-4c-1.7-.5-2.7,0-3.2,1S42.7,168.2,43.7,169.3Zm1.1,9.4c.5-1,0-2-1-3.1l-2.1,3.9C43.3,179.9,44.3,179.6,44.8,178.7Z" transform="translate(-16.8 -32.1)" style="fill:#ebebeb"/><path d="M471.1,338.1a34.3,34.3,0,1,1-12.8-46.8A34.3,34.3,0,0,1,471.1,338.1Z" transform="translate(-16.8 -32.1)" style="fill:#fafafa"/><path d="M464,334a26.2,26.2,0,1,1-9.7-35.6A26.3,26.3,0,0,1,464,334Z" transform="translate(-16.8 -32.1)" style="fill:#f5f5f5"/><path d="M464.4,333.3a15.5,15.5,0,0,1,1-3.1,27.8,27.8,0,0,0,1.3-8.4,30.1,30.1,0,0,0-.6-5.8,25.2,25.2,0,0,0-2.3-6.3,32.1,32.1,0,0,0-1.9-3.1,34.7,34.7,0,0,0-2.5-2.9,18,18,0,0,0-2.9-2.6,24.6,24.6,0,0,0-3.4-2.2,29.5,29.5,0,0,0-3.7-1.6,17.8,17.8,0,0,0-3.8-1,24.5,24.5,0,0,0-3.8-.4,21.7,21.7,0,0,0-3.6.2,26.5,26.5,0,0,0-11.7,4.3,28.2,28.2,0,0,0-6.3,5.8c-1.2,1.7-1.8,2.6-2,2.6s.3-1.2,1.4-3a23.6,23.6,0,0,1,6.1-6.6,27.4,27.4,0,0,1,5.4-3.1,27.8,27.8,0,0,1,6.9-1.9l3.9-.2a18.1,18.1,0,0,1,4,.4,18.9,18.9,0,0,1,4.1,1,28.3,28.3,0,0,1,4,1.7,23.5,23.5,0,0,1,3.7,2.4,20.6,20.6,0,0,1,3.1,2.8,19.2,19.2,0,0,1,2.6,3.2,22.3,22.3,0,0,1,2,3.3,23.8,23.8,0,0,1,2.3,6.8,26.9,26.9,0,0,1,.4,6.2,25.3,25.3,0,0,1-2,8.7C465.2,332.4,464.5,333.4,464.4,333.3Z" transform="translate(-16.8 -32.1)" style="fill:#ebebeb"/><path d="M441.3,318.3l2.8-5c-2.1-.6-3.5,0-4.1,1.2S440,317,441.3,318.3Zm1.3,12c.7-1.2.1-2.5-1.2-3.9l-2.7,4.9C440.7,331.9,442,331.4,442.6,330.3Z" transform="translate(-16.8 -32.1)" style="fill:#ebebeb"/><rect x="268.9" y="71.5" width="133.5" height="64.8" rx="3.7" transform="translate(135.6 371.7) rotate(-75.8)" style="fill:#ebebeb"/><path d="M310.4,158.7l21.8,5.5s4.9-10.4,15.1-7.8L371.5,61s-9.8-2-8.5-12.5l-23.1-5.9s-5.3,9.6-15.5,7l-23.9,93.9S313,147.2,310.4,158.7Z" transform="translate(-16.8 -32.1)" style="fill:#fafafa"/><path d="M328.4,132.5a8.8,8.8,0,1,0,6.3,10.6A8.7,8.7,0,0,0,328.4,132.5Z" transform="translate(-16.8 -32.1)" style="fill:#ebebeb"/><path d="M347.2,58.4A8.7,8.7,0,1,0,353.5,69,8.7,8.7,0,0,0,347.2,58.4Z" transform="translate(-16.8 -32.1)" style="fill:#ebebeb"/><circle cx="335.8" cy="103.4" r="17.8" transform="translate(-20.7 161.2) rotate(-31.9)" style="fill:#ebebeb"/><path d="M396.5,53l-88.8,89.6a3.7,3.7,0,0,0,.1,5.2l40.8,40.4a3.6,3.6,0,0,0,5.2,0l88.7-89.6a3.7,3.7,0,0,0,0-5.2L401.7,53A3.7,3.7,0,0,0,396.5,53Z" transform="translate(-16.8 -32.1)" style="fill:#ebebeb"/><path d="M325.5,155l16,15.8s9.5-6.5,17,.9l69.3-69.9s-7.5-6.6-1-15.1l-17-16.8s-9.4,5.6-16.8-1.8l-68.2,68.8S333.7,146.4,325.5,155Z" transform="translate(-16.8 -32.1)" style="fill:#fafafa"/><path d="M354.3,141.6a8.7,8.7,0,0,0-12.3.1,8.6,8.6,0,0,0,.1,12.3,8.7,8.7,0,1,0,12.2-12.4Z" transform="translate(-16.8 -32.1)" style="fill:#ebebeb"/><path d="M408.2,87.2a8.9,8.9,0,0,0-12.4.1,8.8,8.8,0,0,0,12.5,12.3A8.9,8.9,0,0,0,408.2,87.2Z" transform="translate(-16.8 -32.1)" style="fill:#ebebeb"/><path d="M388,107.6a17.8,17.8,0,1,0,.2,25.2A17.7,17.7,0,0,0,388,107.6Z" transform="translate(-16.8 -32.1)" style="fill:#ebebeb"/><path d="M444.5,117.1,323.7,153a3.7,3.7,0,0,0-2.5,4.6l16.3,55.1a3.7,3.7,0,0,0,4.6,2.4L463,179.2a3.7,3.7,0,0,0,2.5-4.5l-16.4-55.1A3.7,3.7,0,0,0,444.5,117.1Z" transform="translate(-16.8 -32.1)" style="fill:#ebebeb"/><path d="M333.3,172.5l6.4,21.5s11.5-1.1,14.5,9l94.3-28.1s-3.3-9.4,6.4-13.7l-6.8-22.9s-10.9.4-13.9-9.7l-92.9,27.6S344.6,168.8,333.3,172.5Z" transform="translate(-16.8 -32.1)" style="fill:#fafafa"/><path d="M365,174.5a8.7,8.7,0,1,0-5.9,10.9A8.8,8.8,0,0,0,365,174.5Z" transform="translate(-16.8 -32.1)" style="fill:#ebebeb"/><path d="M438.4,152.8a8.8,8.8,0,1,0-5.9,10.8A8.7,8.7,0,0,0,438.4,152.8Z" transform="translate(-16.8 -32.1)" style="fill:#ebebeb"/><circle cx="393.8" cy="166" r="17.8" transform="translate(-45.5 198.4) rotate(-31.5)" style="fill:#ebebeb"/><polygon points="322.4 111.7 406.8 85.6 398.9 93.6 322.2 116.4 322.4 111.7" style="fill:#e0e0e0"/><polygon points="360.2 40.6 362.6 31.2 322.5 70.1 322.2 79 360.2 40.6" style="fill:#e0e0e0"/><text transform="translate(164.7 151.7)" style="font-size:40px;font-family:Roboto-Black, Roboto;font-weight:800">GS<tspan x="52.3" y="0" style="letter-spacing:-0.029296875em">T</tspan></text></g><g id="Bill"><path d="M53.1,102.4s-1.7,78.5-3.3,97.7-5.3,37.7-13.6,46L122,259s9.5.1,12-28.7c1.3-14.1,7.2-133.8,7.2-133.8l-2.9-1.3a6.5,6.5,0,0,0-5.3.2c-3.2,1.5-8.6,3.9-10.9,3.3s-9.7-5.3-12.7-3.9-7.4,7.1-11.9,5.5-9-5.5-11.9-4.3-9,6.7-11.2,6.4c-3.9-.6-8.4-6.6-13.5-4.3A52.1,52.1,0,0,0,53.1,102.4Z" transform="translate(-16.8 -32.1)" style="fill:#fff"/><path d="M53.1,102.4a7.9,7.9,0,0,1,1.4-1A41.2,41.2,0,0,1,59,99a11.6,11.6,0,0,1,3.4-1.4,7,7,0,0,1,4.4.8c1.5.7,3,1.7,4.6,2.6a10.3,10.3,0,0,0,2.6,1.2,3.7,3.7,0,0,0,2.8-.7,53,53,0,0,0,5.5-3.7A31.4,31.4,0,0,1,85.4,96a4.8,4.8,0,0,1,3.7.1c2.4.9,4.7,2.4,7.2,3.5a6.2,6.2,0,0,0,1.9.7h2.1a10.4,10.4,0,0,0,3.8-1.9l3.6-2.7a7.2,7.2,0,0,1,2.1-1.2,6.5,6.5,0,0,1,2.4,0c3.1.7,5.9,2.5,9,3.7,1.5.8,3.2.3,4.9-.2a46.8,46.8,0,0,0,4.8-1.8l2.4-1.2a8.1,8.1,0,0,1,2.7-.5,6.4,6.4,0,0,1,2.7.7l2.5,1.1h.2v.2c-1.1,20.6-2.2,44.2-3.5,69.7-.7,12.8-1.4,26-2.1,39.7q-.6,10.2-1.2,20.7c-.5,7-1.3,14.2-3.5,21a29.6,29.6,0,0,1-3.2,7,8.3,8.3,0,0,1-1.1,1.5l-.6.8-.7.6a9.1,9.1,0,0,1-1.6,1.1,4.2,4.2,0,0,1-1.9.6h0L36.2,246.3h-.5l.3-.4a26,26,0,0,0,4.6-6.4,41.2,41.2,0,0,0,3.1-7.2,89,89,0,0,0,3.7-14.8,201.7,201.7,0,0,0,2.9-28c.8-17.8,1.2-33.4,1.6-46.3s.7-23.1.8-30.1c.1-3.5.2-6.2.3-8V103a1.5,1.5,0,0,1,.1-.6v.6a17.9,17.9,0,0,1-.1,2.1c0,1.8,0,4.5-.1,8-.2,7-.4,17.2-.7,30.1s-.7,28.5-1.5,46.3a220.8,220.8,0,0,1-2.8,28.1,100.1,100.1,0,0,1-3.7,14.8,66.6,66.6,0,0,1-3.1,7.3,33.1,33.1,0,0,1-4.7,6.6l-.2-.4L122,258.7h0a4.1,4.1,0,0,0,1.7-.5l1.4-1.1.7-.6.6-.7a8.3,8.3,0,0,0,1.1-1.5,32.2,32.2,0,0,0,3.1-6.8c2.2-6.8,2.9-13.9,3.4-20.9s.9-13.9,1.3-20.8c.7-13.6,1.4-26.9,2.1-39.6,1.3-25.6,2.5-49.1,3.6-69.8v.2l-2.6-1a5.5,5.5,0,0,0-2.5-.7,6.6,6.6,0,0,0-2.5.5L131,96.5a47.8,47.8,0,0,1-4.8,1.9,12.2,12.2,0,0,1-2.6.6h-1.3l-1.2-.4c-3.1-1.2-6-2.9-9-3.6a4.1,4.1,0,0,0-2.2,0,5.6,5.6,0,0,0-2,1.1l-3.6,2.7a11.4,11.4,0,0,1-4,1.9H98.1a6.2,6.2,0,0,1-1.9-.7c-2.6-1.2-4.8-2.7-7.2-3.5a4.7,4.7,0,0,0-3.5-.2,15.3,15.3,0,0,0-3,1.9c-2,1.3-3.7,2.6-5.6,3.6l-1.4.7H73.9a15.7,15.7,0,0,1-2.6-1.2,36.5,36.5,0,0,0-4.5-2.6,7.8,7.8,0,0,0-4.3-.9A14.2,14.2,0,0,0,59,99.1c-2,.9-3.5,1.8-4.5,2.3Z" transform="translate(-16.8 -32.1)" style="fill:#263238"/><g style="opacity:0.30000000000000004"><path d="M44.1,231.9l77.3,5.1s-6.3,12.2,4.6,19.7a6.7,6.7,0,0,1-5.6,2.1c-3.4-.3-79-10.2-79-10.2l1.3-14.1Z" transform="translate(-16.8 -32.1)"/></g><path d="M29.2,249.5a17.3,17.3,0,0,1-8.4-16.9s94.6,5.2,94.2,5.9a20.6,20.6,0,0,0-1.2,6.2A15.6,15.6,0,0,0,122,259h0Z" transform="translate(-16.8 -32.1)" style="fill:#ebebeb"/><path d="M29.2,249.5H31l5.3.5L55.8,252l66.2,6.7v.5a17.9,17.9,0,0,1-4.4-3.4,16.6,16.6,0,0,1-2.9-4.8,13.5,13.5,0,0,1-1-5.6,26.2,26.2,0,0,1,.7-5.7l.3-1v-.2h.1c0,.3.1.3.1.3h-.5l-1.8-.2-3.7-.3-7.2-.5-14.1-.9-26.2-1.6-40.6-2.4h.1a17.7,17.7,0,0,0,1,8.2,16.6,16.6,0,0,0,3.3,5.3,12.6,12.6,0,0,0,2.9,2.6l.8.6.3.2-1.2-.7a18.5,18.5,0,0,1-3-2.6,17.3,17.3,0,0,1-3.3-5.3,17,17,0,0,1-1.1-8.3v-.2h.2l40.6,2.3,26.2,1.5,14.1.9,7.3.5,3.7.3,1.8.2h.6s.2,0,.2.4h-.1v.2l-.3.9a26,26,0,0,0-.7,5.6,12.6,12.6,0,0,0,1,5.4,13.6,13.6,0,0,0,2.8,4.6,14.6,14.6,0,0,0,4.2,3.3l1.1.7-1.2-.2-66.3-6.9-19.5-2-5.2-.6-1.4-.2Z" transform="translate(-16.8 -32.1)" style="fill:#263238"/><path d="M88.4,140.7c0,.1-5.6.1-12.5-.1s-12.5-.5-12.5-.6,5.6-.1,12.5.1S88.4,140.6,88.4,140.7Z" transform="translate(-16.8 -32.1)" style="fill:#263238"/><path d="M96.5,156c0,.1-7.6.1-17-.1s-16.9-.5-16.9-.6,7.6-.1,17,.1S96.5,155.8,96.5,156Z" transform="translate(-16.8 -32.1)" style="fill:#263238"/><path d="M125.7,156.7c0,.2-3.2.3-7.2.3s-7.1-.1-7.1-.3a66.7,66.7,0,0,1,7.1-.2A67.8,67.8,0,0,1,125.7,156.7Z" transform="translate(-16.8 -32.1)" style="fill:#263238"/><path d="M96.5,163.5c0,.1-7.6.1-17-.1s-16.9-.5-16.9-.7,7.6-.1,17,.1S96.5,163.3,96.5,163.5Z" transform="translate(-16.8 -32.1)" style="fill:#263238"/><path d="M125.7,164.2a53.8,53.8,0,0,1-7.2.3,53,53,0,0,1-7.1-.3,53,53,0,0,1,7.1-.3A53.8,53.8,0,0,1,125.7,164.2Z" transform="translate(-16.8 -32.1)" style="fill:#263238"/><path d="M86.6,170.7c0,.2-5.3.2-12,0s-12-.3-12-.5h12C81.3,170.3,86.6,170.6,86.6,170.7Z" transform="translate(-16.8 -32.1)" style="fill:#263238"/><path d="M125.7,171.7a67.8,67.8,0,0,1-7.2.2,66.7,66.7,0,0,1-7.1-.2c0-.2,3.2-.3,7.1-.3S125.7,171.5,125.7,171.7Z" transform="translate(-16.8 -32.1)" style="fill:#263238"/><path d="M96.5,178.4c0,.1-7.6.1-17-.1s-16.9-.5-16.9-.6,7.6-.1,17,.1S96.5,178.2,96.5,178.4Z" transform="translate(-16.8 -32.1)" style="fill:#263238"/><path d="M125.7,179.1c0,.2-3.2.3-7.2.3s-7.1-.1-7.1-.3a66.7,66.7,0,0,1,7.1-.2A67.8,67.8,0,0,1,125.7,179.1Z" transform="translate(-16.8 -32.1)" style="fill:#263238"/><path d="M95.7,187.1c0,.1-7.6.1-16.9-.1s-17-.5-17-.6,7.6-.1,17,.1S95.7,187,95.7,187.1Z" transform="translate(-16.8 -32.1)" style="fill:#263238"/><path d="M124.9,187.8c0,.2-3.2.3-7.1.3s-7.2-.1-7.2-.3a67.8,67.8,0,0,1,7.2-.2A66.7,66.7,0,0,1,124.9,187.8Z" transform="translate(-16.8 -32.1)" style="fill:#263238"/><path d="M74.3,196.1a43.9,43.9,0,0,1-6.4.1,49.6,49.6,0,0,1-6.3-.4,43.9,43.9,0,0,1,6.4-.1C71.5,195.7,74.3,195.9,74.3,196.1Z" transform="translate(-16.8 -32.1)" style="fill:#263238"/><path d="M124.6,197.2c0,.2-3.2.3-7.1.3s-7.2-.1-7.2-.3a67.8,67.8,0,0,1,7.2-.2A66.7,66.7,0,0,1,124.6,197.2Z" transform="translate(-16.8 -32.1)" style="fill:#263238"/><path d="M92.4,205.8c0,.2-6.9.2-15.5,0s-15.6-.5-15.6-.6,7-.1,15.6.1S92.4,205.7,92.4,205.8Z" transform="translate(-16.8 -32.1)" style="fill:#263238"/><path d="M124.4,206.7a67.8,67.8,0,0,1-7.2.2,67.8,67.8,0,0,1-7.2-.2c0-.2,3.2-.3,7.2-.3S124.4,206.5,124.4,206.7Z" transform="translate(-16.8 -32.1)" style="fill:#263238"/><path d="M86.6,215.1c0,.2-5.7.2-12.8,0s-12.8-.4-12.8-.5H73.8Z" transform="translate(-16.8 -32.1)" style="fill:#263238"/><path d="M124.1,216.1a67.8,67.8,0,0,1-7.2.2,66.7,66.7,0,0,1-7.1-.2c0-.2,3.2-.3,7.1-.3S124.1,215.9,124.1,216.1Z" transform="translate(-16.8 -32.1)" style="fill:#263238"/><path d="M92.2,224.9c0,.1-7.6.1-17-.1s-16.9-.5-16.9-.6,7.6-.1,16.9.1S92.2,224.8,92.2,224.9Z" transform="translate(-16.8 -32.1)" style="fill:#263238"/><path d="M88.7,234.7c0,.2-7.5.1-16.9-.1s-16.9-.4-16.9-.6,7.6-.1,16.9.1S88.7,234.6,88.7,234.7Z" transform="translate(-16.8 -32.1)" style="fill:#263238"/><path d="M122.2,225.5a67.8,67.8,0,0,1-7.2.2,67.8,67.8,0,0,1-7.2-.2c0-.2,3.2-.3,7.2-.3S122.2,225.3,122.2,225.5Z" transform="translate(-16.8 -32.1)" style="fill:#263238"/><path d="M120,234.6c0,.2-3.2.3-7.1.3s-7.2-.1-7.2-.3a53.8,53.8,0,0,1,7.2-.3A53,53,0,0,1,120,234.6Z" transform="translate(-16.8 -32.1)" style="fill:#263238"/><path d="M76.3,144c0,.2-3,.3-6.6.2s-6.6-.1-6.6-.3a56.5,56.5,0,0,1,6.6-.2A46.1,46.1,0,0,1,76.3,144Z" transform="translate(-16.8 -32.1)" style="fill:#263238"/><polygon points="100.9 93.7 57 94.7 57 87.9 100.9 86.2 100.9 93.7" style="fill:#fbb11b"/></g><g id="Coins"><g id="freepik--Coins--inject-2"><rect x="26.9" y="354.7" width="73.7" height="14.86" style="fill:#fbb11b"/><path d="M112.7,387c-.2,0-.4,3.3-.4,7.2s.2,7.3.4,7.3a56.1,56.1,0,0,0,.3-7.3A55.2,55.2,0,0,0,112.7,387Z" transform="translate(-16.8 -32.1)" style="fill:#263238"/><path d="M105.8,387a55.2,55.2,0,0,0-.3,7.2,56.1,56.1,0,0,0,.3,7.3c.2,0,.4-3.3.4-7.3S106,387,105.8,387Z" transform="translate(-16.8 -32.1)" style="fill:#263238"/><path d="M99.1,387c-.2,0-.3,3.3-.3,7.2s.1,7.3.3,7.3.3-3.3.3-7.3S99.3,387,99.1,387Z" transform="translate(-16.8 -32.1)" style="fill:#263238"/><path d="M92.4,387c-.2,0-.3,3.3-.3,7.2s.1,7.3.3,7.3.3-3.3.3-7.3S92.6,387,92.4,387Z" transform="translate(-16.8 -32.1)" style="fill:#263238"/><path d="M85.7,387c-.2,0-.4,3.3-.4,7.2s.2,7.3.4,7.3a56.1,56.1,0,0,0,.3-7.3A55.2,55.2,0,0,0,85.7,387Z" transform="translate(-16.8 -32.1)" style="fill:#263238"/><path d="M78.9,387a55.2,55.2,0,0,0-.3,7.2,56.1,56.1,0,0,0,.3,7.3c.2,0,.4-3.3.4-7.3S79.1,387,78.9,387Z" transform="translate(-16.8 -32.1)" style="fill:#263238"/><path d="M72.2,387c-.2,0-.3,3.3-.3,7.2s.1,7.3.3,7.3.3-3.3.3-7.3S72.4,387,72.2,387Z" transform="translate(-16.8 -32.1)" style="fill:#263238"/><path d="M65.5,387c-.2,0-.3,3.3-.3,7.2s.1,7.3.3,7.3.3-3.3.3-7.3S65.7,387,65.5,387Z" transform="translate(-16.8 -32.1)" style="fill:#263238"/><path d="M58.8,387c-.2,0-.3,3.3-.3,7.2s.1,7.3.3,7.3.3-3.3.3-7.3S59,387,58.8,387Z" transform="translate(-16.8 -32.1)" style="fill:#263238"/><path d="M52.1,387c-.2,0-.3,3.3-.3,7.2s.1,7.3.3,7.3.3-3.3.3-7.3S52.3,387,52.1,387Z" transform="translate(-16.8 -32.1)" style="fill:#263238"/><path d="M45.4,387c-.2,0-.4,3.3-.4,7.2s.2,7.3.4,7.3a56.1,56.1,0,0,0,.3-7.3A55.2,55.2,0,0,0,45.4,387Z" transform="translate(-16.8 -32.1)" style="fill:#263238"/><path d="M80.4,386.5c-20.3,0-36.7.2-36.7.3s16.4.4,36.7.4,36.8-.2,36.8-.4" transform="translate(-16.8 -32.1)" style="fill:#263238"/><rect x="25.2" y="369.3" width="73.7" height="14.86" style="fill:#fbb11b"/><path d="M111,401.7c-.2,0-.3,3.2-.3,7.2s.1,7.2.3,7.2.3-3.3.3-7.2S111.2,401.7,111,401.7Z" transform="translate(-16.8 -32.1)" style="fill:#263238"/><path d="M104.2,401.7c-.2,0-.3,3.2-.3,7.2s.1,7.2.3,7.2.3-3.3.3-7.2S104.4,401.7,104.2,401.7Z" transform="translate(-16.8 -32.1)" style="fill:#263238"/><path d="M97.4,401.7a53.8,53.8,0,0,0-.3,7.2,55.2,55.2,0,0,0,.3,7.2c.2,0,.4-3.3.4-7.2S97.6,401.7,97.4,401.7Z" transform="translate(-16.8 -32.1)" style="fill:#263238"/><path d="M90.7,401.7c-.2,0-.3,3.2-.3,7.2s.1,7.2.3,7.2.3-3.3.3-7.2S90.9,401.7,90.7,401.7Z" transform="translate(-16.8 -32.1)" style="fill:#263238"/><path d="M84,401.7c-.2,0-.3,3.2-.3,7.2s.1,7.2.3,7.2.3-3.3.3-7.2S84.2,401.7,84,401.7Z" transform="translate(-16.8 -32.1)" style="fill:#263238"/><path d="M77.3,401.7c-.2,0-.3,3.2-.3,7.2s.1,7.2.3,7.2.3-3.3.3-7.2S77.5,401.7,77.3,401.7Z" transform="translate(-16.8 -32.1)" style="fill:#263238"/><path d="M70.6,401.7c-.2,0-.3,3.2-.3,7.2s.1,7.2.3,7.2.3-3.3.3-7.2S70.8,401.7,70.6,401.7Z" transform="translate(-16.8 -32.1)" style="fill:#263238"/><path d="M63.9,401.7c-.2,0-.4,3.2-.4,7.2s.2,7.2.4,7.2a55.2,55.2,0,0,0,.3-7.2A53.8,53.8,0,0,0,63.9,401.7Z" transform="translate(-16.8 -32.1)" style="fill:#263238"/><path d="M57.1,401.7a53.8,53.8,0,0,0-.3,7.2,55.2,55.2,0,0,0,.3,7.2c.2,0,.4-3.3.4-7.2S57.3,401.7,57.1,401.7Z" transform="translate(-16.8 -32.1)" style="fill:#263238"/><path d="M50.4,401.7c-.2,0-.3,3.2-.3,7.2s.1,7.2.3,7.2.3-3.3.3-7.2S50.7,401.7,50.4,401.7Z" transform="translate(-16.8 -32.1)" style="fill:#263238"/><path d="M43.7,401.7c-.2,0-.3,3.2-.3,7.2s.1,7.2.3,7.2.3-3.3.3-7.2S43.9,401.7,43.7,401.7Z" transform="translate(-16.8 -32.1)" style="fill:#263238"/><g style="opacity:0.30000000000000004"><path d="M114.6,401.4a266,266,0,0,1-71.3,0Z" transform="translate(-16.8 -32.1)"/></g><path d="M42.1,401.5c0,.1,16.4.3,36.7.3s36.8-.2,36.8-.3-16.5-.4-36.8-.4S42.1,401.3,42.1,401.5Z" transform="translate(-16.8 -32.1)" style="fill:#263238"/><rect x="32.2" y="383.7" width="73.7" height="14.86" style="fill:#fbb11b"/><path d="M118,416c-.2,0-.3,3.3-.3,7.2s.1,7.2.3,7.2.3-3.2.3-7.2S118.2,416,118,416Z" transform="translate(-16.8 -32.1)" style="fill:#263238"/><path d="M111.2,416c-.2,0-.3,3.3-.3,7.2s.1,7.2.3,7.2.3-3.2.3-7.2S111.4,416,111.2,416Z" transform="translate(-16.8 -32.1)" style="fill:#263238"/><path d="M104.4,416a55.2,55.2,0,0,0-.3,7.2,53.8,53.8,0,0,0,.3,7.2c.2,0,.3-3.2.3-7.2S104.6,416,104.4,416Z" transform="translate(-16.8 -32.1)" style="fill:#263238"/><path d="M97.7,416c-.2,0-.3,3.3-.3,7.2s.1,7.2.3,7.2.3-3.2.3-7.2S97.9,416,97.7,416Z" transform="translate(-16.8 -32.1)" style="fill:#263238"/><path d="M91,416c-.2,0-.3,3.3-.3,7.2s.1,7.2.3,7.2.3-3.2.3-7.2S91.2,416,91,416Z" transform="translate(-16.8 -32.1)" style="fill:#263238"/><path d="M84.3,416c-.2,0-.3,3.3-.3,7.2s.1,7.2.3,7.2.3-3.2.3-7.2S84.5,416,84.3,416Z" transform="translate(-16.8 -32.1)" style="fill:#263238"/><path d="M77.6,416c-.2,0-.3,3.3-.3,7.2s.1,7.2.3,7.2.3-3.2.3-7.2A55.2,55.2,0,0,0,77.6,416Z" transform="translate(-16.8 -32.1)" style="fill:#263238"/><path d="M70.9,416c-.2,0-.4,3.3-.4,7.2s.2,7.2.4,7.2a53.8,53.8,0,0,0,.3-7.2A55.2,55.2,0,0,0,70.9,416Z" transform="translate(-16.8 -32.1)" style="fill:#263238"/><path d="M64.1,416a55.2,55.2,0,0,0-.3,7.2,53.8,53.8,0,0,0,.3,7.2c.2,0,.4-3.2.4-7.2S64.3,416,64.1,416Z" transform="translate(-16.8 -32.1)" style="fill:#263238"/><path d="M57.4,416c-.2,0-.3,3.3-.3,7.2s.1,7.2.3,7.2.3-3.2.3-7.2S57.6,416,57.4,416Z" transform="translate(-16.8 -32.1)" style="fill:#263238"/><path d="M50.7,416c-.2,0-.3,3.3-.3,7.2s.1,7.2.3,7.2.3-3.2.3-7.2S50.9,416,50.7,416Z" transform="translate(-16.8 -32.1)" style="fill:#263238"/><g style="opacity:0.30000000000000004"><path d="M121.6,415.8a266.7,266.7,0,0,1-71.4,0Z" transform="translate(-16.8 -32.1)"/></g><path d="M49,415.8c0,.2,16.5.3,36.8.3s36.8-.1,36.8-.3-16.5-.3-36.8-.3S49,415.7,49,415.8Z" transform="translate(-16.8 -32.1)" style="fill:#263238"/><rect x="23.6" y="398.5" width="73.7" height="14.29" style="fill:#fbb11b"/><path d="M109.4,430.8c-.2,0-.3,3.1-.3,6.9s.1,6.9.3,6.9.3-3.1.3-6.9A49.9,49.9,0,0,0,109.4,430.8Z" transform="translate(-16.8 -32.1)" style="fill:#263238"/><path d="M102.5,430.8a79.5,79.5,0,0,0,0,13.8c.2,0,.4-3.1.4-6.9S102.7,430.8,102.5,430.8Z" transform="translate(-16.8 -32.1)" style="fill:#263238"/><path d="M95.8,430.8c-.2,0-.3,3.1-.3,6.9s.1,6.9.3,6.9.3-3.1.3-6.9S96,430.8,95.8,430.8Z" transform="translate(-16.8 -32.1)" style="fill:#263238"/><path d="M89.1,430.8c-.2,0-.3,3.1-.3,6.9s.1,6.9.3,6.9.3-3.1.3-6.9S89.3,430.8,89.1,430.8Z" transform="translate(-16.8 -32.1)" style="fill:#263238"/><path d="M82.4,430.8c-.2,0-.4,3.1-.4,6.9s.2,6.9.4,6.9a49.9,49.9,0,0,0,.3-6.9C82.7,433.9,82.6,430.8,82.4,430.8Z" transform="translate(-16.8 -32.1)" style="fill:#263238"/><path d="M75.7,430.8c-.2,0-.4,3.1-.4,6.9s.2,6.9.4,6.9a79.5,79.5,0,0,0,0-13.8Z" transform="translate(-16.8 -32.1)" style="fill:#263238"/><path d="M68.9,430.8a79.5,79.5,0,0,0,0,13.8c.2,0,.4-3.1.4-6.9S69.1,430.8,68.9,430.8Z" transform="translate(-16.8 -32.1)" style="fill:#263238"/><path d="M62.2,430.8c-.2,0-.3,3.1-.3,6.9s.1,6.9.3,6.9.3-3.1.3-6.9S62.4,430.8,62.2,430.8Z" transform="translate(-16.8 -32.1)" style="fill:#263238"/><path d="M55.5,430.8c-.2,0-.3,3.1-.3,6.9s.1,6.9.3,6.9.3-3.1.3-6.9A49.9,49.9,0,0,0,55.5,430.8Z" transform="translate(-16.8 -32.1)" style="fill:#263238"/><path d="M48.8,430.8c-.2,0-.3,3.1-.3,6.9s.1,6.9.3,6.9.3-3.1.3-6.9S49,430.8,48.8,430.8Z" transform="translate(-16.8 -32.1)" style="fill:#263238"/><path d="M42.1,430.8c-.2,0-.3,3.1-.3,6.9s.1,6.9.3,6.9.3-3.1.3-6.9S42.3,430.8,42.1,430.8Z" transform="translate(-16.8 -32.1)" style="fill:#263238"/><g style="opacity:0.30000000000000004"><path d="M112.9,430.5a208.2,208.2,0,0,1-71.3,0Z" transform="translate(-16.8 -32.1)"/></g><path d="M40.4,430.6c0,.2,16.5.3,36.8.3s36.8-.1,36.8-.3-16.4-.3-36.8-.3S40.4,430.4,40.4,430.6Z" transform="translate(-16.8 -32.1)" style="fill:#263238"/><rect x="28.3" y="412.8" width="73.7" height="14.29" style="fill:#fbb11b"/><path d="M114.1,445.1c-.2,0-.3,3.1-.3,6.9s.1,6.9.3,6.9.3-3.1.3-6.9S114.3,445.1,114.1,445.1Z" transform="translate(-16.8 -32.1)" style="fill:#263238"/><path d="M107.3,445.1c-.2,0-.3,3.1-.3,6.9s.1,6.9.3,6.9.3-3.1.3-6.9S107.5,445.1,107.3,445.1Z" transform="translate(-16.8 -32.1)" style="fill:#263238"/><path d="M100.5,445.1a79.5,79.5,0,0,0,0,13.8c.2,0,.4-3.1.4-6.9S100.7,445.1,100.5,445.1Z" transform="translate(-16.8 -32.1)" style="fill:#263238"/><path d="M93.8,445.1c-.2,0-.3,3.1-.3,6.9s.1,6.9.3,6.9.3-3.1.3-6.9S94,445.1,93.8,445.1Z" transform="translate(-16.8 -32.1)" style="fill:#263238"/><path d="M87.1,445.1c-.2,0-.3,3.1-.3,6.9s.1,6.9.3,6.9.3-3.1.3-6.9S87.3,445.1,87.1,445.1Z" transform="translate(-16.8 -32.1)" style="fill:#263238"/><path d="M80.4,445.1c-.2,0-.3,3.1-.3,6.9s.1,6.9.3,6.9.3-3.1.3-6.9S80.6,445.1,80.4,445.1Z" transform="translate(-16.8 -32.1)" style="fill:#263238"/><path d="M73.7,445.1c-.2,0-.3,3.1-.3,6.9s.1,6.9.3,6.9.3-3.1.3-6.9S73.9,445.1,73.7,445.1Z" transform="translate(-16.8 -32.1)" style="fill:#263238"/><path d="M67,445.1c-.2,0-.4,3.1-.4,6.9s.2,6.9.4,6.9a79.5,79.5,0,0,0,0-13.8Z" transform="translate(-16.8 -32.1)" style="fill:#263238"/><path d="M60.2,445.1a79.5,79.5,0,0,0,0,13.8c.2,0,.4-3.1.4-6.9S60.4,445.1,60.2,445.1Z" transform="translate(-16.8 -32.1)" style="fill:#263238"/><path d="M53.5,445.1c-.2,0-.3,3.1-.3,6.9s.1,6.9.3,6.9.3-3.1.3-6.9S53.7,445.1,53.5,445.1Z" transform="translate(-16.8 -32.1)" style="fill:#263238"/><path d="M46.8,445.1c-.2,0-.3,3.1-.3,6.9s.1,6.9.3,6.9.3-3.1.3-6.9S47,445.1,46.8,445.1Z" transform="translate(-16.8 -32.1)" style="fill:#263238"/><g style="opacity:0.30000000000000004"><path d="M117.7,444.8a185.9,185.9,0,0,1-71.3,0Z" transform="translate(-16.8 -32.1)"/></g><path d="M45.2,444.9c0,.2,16.4.3,36.7.3s36.8-.1,36.8-.3-16.5-.3-36.8-.3S45.2,444.7,45.2,444.9Z" transform="translate(-16.8 -32.1)" style="fill:#263238"/></g><ellipse cx="112.6" cy="305.9" rx="30.4" ry="25.3" transform="translate(-146.7 56) rotate(-27.8)" style="fill:#fbb11b"/><g style="opacity:0.2"><ellipse cx="112.6" cy="305.9" rx="30.4" ry="25.3" transform="translate(-146.7 56) rotate(-27.8)"/></g><ellipse cx="110.3" cy="301.6" rx="30.4" ry="25.3" transform="translate(-144.9 54.4) rotate(-27.8)" style="fill:#fbb11b"/><g style="opacity:0.1"><path d="M139.6,298.3a21.3,21.3,0,0,0-2.4-11c-6.6-12.3-23.9-16-38.8-8.2a35.4,35.4,0,0,0-13.7,13.1A51.8,51.8,0,0,0,103,304.5c6.9,2.7,14,3.4,21.1.9C129,303.7,135.4,301.9,139.6,298.3Z" transform="translate(-16.8 -32.1)" style="fill:#fff"/></g><path d="M119.5,317.8c-11.4,6-24.7,3.4-29.6-6s.3-21.8,11.7-27.8,24.7-3.3,29.6,6S130.9,311.8,119.5,317.8Z" transform="translate(-16.8 -32.1)" style="fill:#fbb11b"/><g style="opacity:0.2"><path d="M119.5,317.8c-11.4,6-24.7,3.4-29.6-6s.3-21.8,11.7-27.8,24.7-3.3,29.6,6S130.9,311.8,119.5,317.8Z" transform="translate(-16.8 -32.1)"/></g><path d="M119.4,318.9c-11.1,5.9-24,3.3-28.8-5.7s.4-21.2,11.5-27.1,24.1-3.3,28.8,5.8S130.6,313,119.4,318.9Z" transform="translate(-16.8 -32.1)" style="fill:#fbb11b"/><g style="opacity:0.2"><path d="M119.4,318.9c-11.1,5.9-24,3.3-28.8-5.7s.4-21.2,11.5-27.1,24.1-3.3,28.8,5.8S130.6,313,119.4,318.9Z" transform="translate(-16.8 -32.1)" style="fill:#fff"/></g><path d="M132.8,301.5a1.8,1.8,0,0,1-.1.5c-.1.4-.1.9-.3,1.6a29.4,29.4,0,0,1-2.3,5.4,31.5,31.5,0,0,1-5.5,6.6,31.9,31.9,0,0,1-4.2,3,27.1,27.1,0,0,1-15.5,3.7,16,16,0,0,1-8.3-2.6,14.8,14.8,0,0,1-4.2-4l-.9-1.3c-.2-.3-.3-.5-.2-.5l.3.5.9,1.2a16.9,16.9,0,0,0,4.3,3.9,17.6,17.6,0,0,0,8.1,2.4,29.2,29.2,0,0,0,10.3-1.5,24.3,24.3,0,0,0,4.9-2.2,34.4,34.4,0,0,0,4.2-2.9,28.8,28.8,0,0,0,5.5-6.5,27.8,27.8,0,0,0,2.4-5.3Z" transform="translate(-16.8 -32.1)" style="fill:#263238"/><path d="M95.6,281.2l.7-.6,2.1-1.3a34.3,34.3,0,0,1,7.7-3,32.9,32.9,0,0,1,8.1-1h2.4l.9.2h-3.3a38.8,38.8,0,0,0-8,1.2,42.6,42.6,0,0,0-7.6,2.8A18.2,18.2,0,0,1,95.6,281.2Z" transform="translate(-16.8 -32.1)" style="fill:#fff"/><path d="M88.7,288c-.1-.1.6-1,1.6-2.1s1.8-1.9,1.9-1.8-.6,1-1.6,2.1S88.8,288.1,88.7,288Z" transform="translate(-16.8 -32.1)" style="fill:#fff"/><path d="M131.6,296.8c-.1.1-.3-1.1-1.1-2.7a13.5,13.5,0,0,0-1.6-2.7,13.3,13.3,0,0,0-2.5-2.9,21.6,21.6,0,0,0-3.1-2.4,16.8,16.8,0,0,0-2.8-1.3c-1.7-.7-2.8-.8-2.8-.9h.8l2.1.5a15.3,15.3,0,0,1,2.9,1.4,13.6,13.6,0,0,1,3.2,2.3,17.4,17.4,0,0,1,2.6,3,11.5,11.5,0,0,1,1.5,2.9,8,8,0,0,1,.7,2C131.6,296.5,131.7,296.8,131.6,296.8Z" transform="translate(-16.8 -32.1)" style="fill:#fff"/><path d="M85.9,357.9c-3.1-6.3-11-13.6-21.4-19.5s-20.5-9.1-27.6-8.6l-4.4-2.5-3.8,6.6c-4.1,7.2,5.5,20.5,21.5,29.6s32.2,10.7,36.4,3.5l3.8-6.6Z" transform="translate(-16.8 -32.1)" style="fill:#fbb11b"/><g style="opacity:0.30000000000000004"><path d="M85.9,357.9c-3.1-6.3-11-13.6-21.4-19.5s-20.5-9.1-27.6-8.6l-4.4-2.5-3.8,6.6c-4.1,7.2,5.5,20.5,21.5,29.6s32.2,10.7,36.4,3.5l3.8-6.6Z" transform="translate(-16.8 -32.1)"/></g><path d="M53.7,357.3c-16-9.1-25.6-22.4-21.5-29.5s20.4-5.6,36.4,3.5,25.6,22.4,21.5,29.6S69.7,366.5,53.7,357.3Z" transform="translate(-16.8 -32.1)" style="fill:#fbb11b"/><g style="opacity:0.1"><path d="M49.3,332.9a63.5,63.5,0,0,0,6.7,7.9c8.9,8.4,21.6,12.5,33.4,10.2-3.1-6.5-10.7-13.9-20.8-19.7s-19.4-8.3-26.6-8C44.4,326.6,46.8,329.8,49.3,332.9Z" transform="translate(-16.8 -32.1)" style="fill:#fff"/></g><path d="M57.3,352.4c-12.3-7.1-20.9-15.1-18.1-20s15.8-4.5,28.1,2.5,20,16.6,17.2,21.5c-.7,1.1-1.4,2.4-4.7,3.4C74.8,361.2,66.5,357.7,57.3,352.4Z" transform="translate(-16.8 -32.1)" style="fill:#fbb11b"/><g style="opacity:0.30000000000000004"><path d="M57.3,352.4c-12.3-7.1-20.9-15.1-18.1-20s15.8-4.5,28.1,2.5,20,16.6,17.2,21.5c-.7,1.1-1.4,2.4-4.7,3.4C74.8,361.2,66.5,357.7,57.3,352.4Z" transform="translate(-16.8 -32.1)"/></g><path d="M55.6,354.1c-12-6.9-19.5-16.4-16.7-21.2s14.7-3.2,26.7,3.7S85,352.9,82.3,357.7,67.6,360.9,55.6,354.1Z" transform="translate(-16.8 -32.1)" style="fill:#fbb11b"/><g style="opacity:0.2"><path d="M55.6,354.1c-12-6.9-19.5-16.4-16.7-21.2s14.7-3.2,26.7,3.7S85,352.9,82.3,357.7,67.6,360.9,55.6,354.1Z" transform="translate(-16.8 -32.1)" style="fill:#fff"/></g><path d="M77.2,360.7H75.6l-1.8-.2-2.4-.3a45.2,45.2,0,0,1-13.3-4.5,59.4,59.4,0,0,1-11.5-8.1l-3.2-2.9-.8-.8c-.2-.2-.3-.3-.2-.3l.3.2.8.8,3.2,2.8a64.1,64.1,0,0,0,11.6,7.9,46.4,46.4,0,0,0,13.2,4.6l2.3.4,1.9.3h1.5Z" transform="translate(-16.8 -32.1)" style="fill:#263238"/><path d="M47.1,353.1l-1-.7a29.4,29.4,0,0,1-2.7-2.2,54.4,54.4,0,0,1-7.8-8,26.7,26.7,0,0,1-3.2-5.3,11.7,11.7,0,0,1-1.2-4.9,7.2,7.2,0,0,1,.6-3.3,3.9,3.9,0,0,1,.4-.9c.1-.2.2-.3.2-.2l-.5,1.1a9.1,9.1,0,0,0-.5,3.3,13.8,13.8,0,0,0,1.3,4.8,33.3,33.3,0,0,0,3.2,5.2,67,67,0,0,0,7.7,8l2.6,2.3Z" transform="translate(-16.8 -32.1)" style="fill:#263238"/><path d="M49.8,325.1l-2.7-.3a44.8,44.8,0,0,0-6.5-.1,15,15,0,0,0-6.1,2.1c-1.4.9-2,1.8-2.1,1.7l.5-.6a11.6,11.6,0,0,1,1.5-1.3,13.2,13.2,0,0,1,6.2-2.2,22.4,22.4,0,0,1,6.5.2l2,.3C49.6,325,49.8,325,49.8,325.1Z" transform="translate(-16.8 -32.1)" style="fill:#fff"/><path d="M29.5,340a6.6,6.6,0,0,1-.7-3.1,5.9,5.9,0,0,1,.9-3.1,18,18,0,0,0-.5,3.1C29.2,338.7,29.7,340,29.5,340Z" transform="translate(-16.8 -32.1)" style="fill:#fff"/></g><g id="Character"><path d="M474.8,214c-.7-4.4-5.6-7.5-10-6.4,3.4-4.5,1.4-12-3.7-14.3s-12,1.4-13.1,6.9c-3.8-7.7-14.2-11.4-22.1-7.8s-11.8,13.9-8.5,21.9l9.2,40.1a11,11,0,0,0,19,1.1A9.8,9.8,0,0,0,459,242.1c2.1,2.6,6.5,2.4,9.1.2s3.3-6,2.9-9.3-1.9-6.5-3.4-9.5A8.4,8.4,0,0,0,474.8,214Z" transform="translate(-16.8 -32.1)" style="fill:#263238"/><path d="M440.4,231.5c-8.3-12.1-20.2-19.7-34.9-21.2-8.2-.9-11.8.6-17.9,1.7s-11.8,3.8-15.8,8.5-8.8,12.1-10.3,19.3-2.9,14.9-3,22.4,1.3,15.3,5.2,21.8l18.9,4.9c10.5,1.3,21.2,2.6,31.7,1s20.9-6.2,27.2-14.7C450.2,263.3,448.7,243.7,440.4,231.5Z" transform="translate(-16.8 -32.1)" style="fill:#263238"/><path d="M423.4,230l-24.6-12.3-6.7.2c-15-1.3-26.8,14.3-27.9,26.5s-2.3,29.9-1,40c2.6,20.3,19.5,23.5,19.5,23.5v13.7c-.8,3.7,2.6,13,6.2,15.6,16.5-2.5,25.1-5.8,30-17.2l10.6-82.6A7.2,7.2,0,0,0,423.4,230Z" transform="translate(-16.8 -32.1)" style="fill:#ffbf9d"/><path d="M393.6,282.3a4.3,4.3,0,0,0-1.3-2.7,4.3,4.3,0,0,0-5.2-.8,5.9,5.9,0,0,0-2.7,5.3h0a5.5,5.5,0,0,0,3.6,2.5c.2,0,.5.2.7.1,2.5-1.3,3.4-1.2,3.3-1S393.6,283.6,393.6,282.3Z" transform="translate(-16.8 -32.1)" style="fill:#ff9a6c"/><path d="M369.7,262.3a2.6,2.6,0,1,0,2.7-2.2A2.4,2.4,0,0,0,369.7,262.3Z" transform="translate(-16.8 -32.1)" style="fill:#263238"/><path d="M368.2,251.5c.3.3,2.3-1.1,5.1-1s4.8,1.6,5.1,1.2-.1-.7-1-1.4a7.4,7.4,0,0,0-4.1-1.4,7.7,7.7,0,0,0-4.1,1.2C368.3,250.7,368,251.3,368.2,251.5Z" transform="translate(-16.8 -32.1)" style="fill:#263238"/><path d="M384.2,274.8a21.8,21.8,0,0,0-4.5-.9c-.7-.1-1.4-.3-1.5-.8s.2-1.3.5-2.1l2.3-5.4c3.2-7.6,5.5-13.9,5.2-14s-3.1,6-6.3,13.6l-2.2,5.4a4.3,4.3,0,0,0-.5,2.8,2.2,2.2,0,0,0,1.2,1.1l1.2.2C382.4,274.9,384.2,275,384.2,274.8Z" transform="translate(-16.8 -32.1)" style="fill:#263238"/><path d="M382.7,307.8a51.3,51.3,0,0,0,27.3-6.4s-7,14.9-27.2,12.4Z" transform="translate(-16.8 -32.1)" style="fill:#ff9a6c"/><path d="M392.3,277c-.4,0-.5,3-3.2,5.1s-5.8,1.6-5.9,2,.7.6,2.1.7a7.7,7.7,0,0,0,4.9-1.5,6.8,6.8,0,0,0,2.5-4.3C392.9,277.7,392.6,277,392.3,277Z" transform="translate(-16.8 -32.1)" style="fill:#263238"/><path d="M370,241.8c.4.7,2.6.3,5.1.6s4.5,1,5.1.4,0-.9-.9-1.6a7,7,0,0,0-4-1.6,7.6,7.6,0,0,0-4.2.7C370.1,240.9,369.8,241.5,370,241.8Z" transform="translate(-16.8 -32.1)" style="fill:#263238"/><path d="M397.4,263.4a2.7,2.7,0,0,1-2.7,2.4,2.5,2.5,0,0,1-2.5-2.5,2.5,2.5,0,0,1,2.7-2.4A2.5,2.5,0,0,1,397.4,263.4Z" transform="translate(-16.8 -32.1)" style="fill:#263238"/><path d="M405.9,253.6c-.3.3-2.2-1.2-5-1.4s-4.9,1.1-5.2.7.2-.8,1.2-1.3a6.4,6.4,0,0,1,4.2-1,6.7,6.7,0,0,1,3.9,1.5C405.8,252.9,406.1,253.5,405.9,253.6Z" transform="translate(-16.8 -32.1)" style="fill:#263238"/><path d="M405,244.6c-.6.6-2.7-.2-5.3-.4s-4.8.1-5.2-.6.1-1,1.1-1.5a9.1,9.1,0,0,1,4.4-.8,7.8,7.8,0,0,1,4.1,1.6C405,243.6,405.3,244.3,405,244.6Z" transform="translate(-16.8 -32.1)" style="fill:#263238"/><path d="M427.1,265.8l-3.8,3.3c-13.8-15.7-40.1-54.3-38.7-52,0,0,10.7-3.4,21.8-.5s31.8,10.3,30.3,23.5S427.1,265.8,427.1,265.8Z" transform="translate(-16.8 -32.1)" style="fill:#263238"/><path d="M423.2,270.9c0-1.5,1.9-5,3.4-5.2,4-.5,11.1.1,10.9,10.2-.3,13.8-14.1,10.6-14.2,10.2S423,276.1,423.2,270.9Z" transform="translate(-16.8 -32.1)" style="fill:#ffbf9d"/><path d="M427.3,281.1l.6.4a2.6,2.6,0,0,0,1.8.1c1.5-.5,2.8-2.8,2.9-5.3a7.6,7.6,0,0,0-.6-3.4c-.4-1.1-1-1.8-1.8-1.9a1.2,1.2,0,0,0-1.4.6c-.2.4-.1.6-.2.7a.7.7,0,0,1-.1-.8,1.4,1.4,0,0,1,.5-.9,1.7,1.7,0,0,1,1.4-.3,3.3,3.3,0,0,1,2.4,2.2,9.3,9.3,0,0,1,.8,3.9c-.2,2.7-1.7,5.3-3.7,5.8a2.5,2.5,0,0,1-2.2-.4C427.3,281.5,427.2,281.2,427.3,281.1Z" transform="translate(-16.8 -32.1)" style="fill:#ff9a6c"/><path d="M447.3,262s0-.8.1-2.4,0-3.8-.2-6.6a48.9,48.9,0,0,0-6.8-20.4,49.4,49.4,0,0,0-15.2-15.4,66,66,0,0,0-5.8-3.2l-2.2-1h.6l1.7.7a36.7,36.7,0,0,1,6,3A46,46,0,0,1,441,232.2a46,46,0,0,1,6.7,27.4c-.1.8-.2,1.4-.2,1.8S447.3,262.1,447.3,262Z" transform="translate(-16.8 -32.1)" style="fill:#455a64"/><path d="M342.9,366.5l-5.7.2-20.5,44.5-32.4,16.1,1.5,16.7s39.9-7.4,49.9-12.9,22.6-41.8,22.6-41.8-13.5-22.8-13.5-22.8" transform="translate(-16.8 -32.1)" style="fill:#ffbf9d"/><path d="M286.2,407.1l-4.2-4.4a5,5,0,0,0-2.7-.7l-13.1.4a8.1,8.1,0,0,0-6.1,3.7l-4.8,8.1s-3.2,5.6-2.8,6.9a2.4,2.4,0,0,0,2.8,1.7s.4,2.5,1.3,3.1a4.4,4.4,0,0,0,3.2.2,2.6,2.6,0,0,0,2.6,1.5h.7c1.5-.5,2.2-3.5,2.2-3.5l6.7-1.2s9.6,6.4,13,10.6,12.2,1,12.2,1l3.3-15.8Z" transform="translate(-16.8 -32.1)" style="fill:#ffbf9d"/><path d="M276.5,409a11.1,11.1,0,0,1-2.9.5c-1.8.2-4.4.2-7.3.6l.4-.2a24.8,24.8,0,0,1-1.8,3.1,31.3,31.3,0,0,1-6.3,7.5c-1.9,1.7-3.2,2.5-3.3,2.4s1.2-1.1,2.9-2.8a39.1,39.1,0,0,0,6-7.5,18.7,18.7,0,0,0,1.7-3v-.2h.2a71.8,71.8,0,0,1,7.4-.3A11,11,0,0,1,276.5,409Z" transform="translate(-16.8 -32.1)" style="fill:#ff9a6c"/><path d="M276.8,415.3a6.4,6.4,0,0,1-2.5.6,17.7,17.7,0,0,1-6.4-.2l.4-.3a11.7,11.7,0,0,1-.9,2.4,19.8,19.8,0,0,1-5,6.5c-1.6,1.4-2.7,2-2.8,1.9a29.7,29.7,0,0,1,2.4-2.3,21.1,21.1,0,0,0,4.6-6.4c.4-.8.7-1.6,1-2.3v-.4h.3C273,416,276.8,415,276.8,415.3Z" transform="translate(-16.8 -32.1)" style="fill:#ff9a6c"/><path d="M293.5,418.5l-11.7-5.4a12.6,12.6,0,0,0-5.1-1.6,14.9,14.9,0,0,0-5.5,1.8l-6.3,3.3c-.3.2-.7.4-.8.8s.2.9.5,1.3a9.3,9.3,0,0,0,12.2.5,24,24,0,0,0,4,7.8,8.4,8.4,0,0,0,7.7,3.3" transform="translate(-16.8 -32.1)" style="fill:#ffbf9d"/><path d="M288.5,430.3h-1.2a7.9,7.9,0,0,1-3.6-.8,11.2,11.2,0,0,1-4.1-3.8,26.9,26.9,0,0,1-3.1-6.6l.6.2a9.7,9.7,0,0,1-6.9,2.1,10.7,10.7,0,0,1-3.8-1l-1.7-1.2-.7-.8a1.7,1.7,0,0,1-.4-1.3,1.5,1.5,0,0,1,.8-.8l.7-.5,1.5-.7,2.8-1.5a31.8,31.8,0,0,1,5.7-2.5,9.5,9.5,0,0,1,5.6.9l4.3,2,6.3,3.1,2.2,1.2a13.1,13.1,0,0,1-2.4-.9l-6.3-2.8-4.4-2c-1.6-.6-3.3-1.2-5.1-.7a28.7,28.7,0,0,0-5.5,2.4L267,416l-1.5.8c-.5.2-1,.5-1,.7s.3.9.8,1.3l1.5,1a8.8,8.8,0,0,0,3.5,1,8.5,8.5,0,0,0,6.3-1.9l.4-.3.2.5a29.3,29.3,0,0,0,2.9,6.4,10.6,10.6,0,0,0,3.8,3.8A7.6,7.6,0,0,0,288.5,430.3Z" transform="translate(-16.8 -32.1)" style="fill:#ff9a6c"/><path d="M331.4,362.7s11.7-22.4,14.6-27.3c4.9-8.3,14.1-13.1,14.1-13.1l21.5-4.9s-.5,10.7,11.2,11.5c17,1.2,27.6-15.4,27.6-15.4s19.5,2,24.8,4.2,20.6,8.7,22.8,28.9l5.2,32.9-41,3.2,22.8.4-8.3,54.6,6.5,21.5-93.4.4s1-21.1-2.6-39.4l-6.8-16.4a64.4,64.4,0,0,1-4.8-20.7c-.2-4.6-.1-8.2-.1-8.2S335,371.3,331.4,362.7Z" transform="translate(-16.8 -32.1)" style="fill:#fbb11b"/><path d="M363.8,442l68.8-20.7-.4-38.6,35-2.7s-1.7,20.1-3.2,30.3c-3.8,25.3-7.7,35.4-12.4,39.8s-89.7,9.1-89.7,9.1Z" transform="translate(-16.8 -32.1)" style="fill:#ffbf9d"/><path d="M324.7,454.1a2.8,2.8,0,0,0,2.7,1.4l.7-.2c1.5-.6,1.1-3.8,1.1-3.8l7.3-1.8s10.2,5.5,13.9,9.4,12.3-.2,12.3-.2l1.8-16.1-14.6-11.3s.9.7-.2-1.5-5.4-1.1-5.4-1.1-3.6-1.2-3.6-1.2L328.8,430a8.1,8.1,0,0,0-5.7,4.2l-4.4,8.4s-2.3,6-1.7,7.3a2.4,2.4,0,0,0,2.9,1.4s.9,3.7,1.9,3.8a9.2,9.2,0,0,0,2.9-1Z" transform="translate(-16.8 -32.1)" style="fill:#ffbf9d"/><path d="M349.3,440.8l-4.1.4a37.2,37.2,0,0,0-9.7,2.6,35.7,35.7,0,0,0-4.8,2.6c-1.4.9-2.9,1.7-3.3,2.8a1.4,1.4,0,0,0,.3,1.4,2,2,0,0,0,.9.7,1.6,1.6,0,0,0,1.1,0c0,.1-.4.4-1.1.3a2.8,2.8,0,0,1-1.3-.7,2.1,2.1,0,0,1-.4-1.9,4,4,0,0,1,1.4-1.8,10.1,10.1,0,0,1,2-1.4,28.4,28.4,0,0,1,4.9-2.7,31.3,31.3,0,0,1,9.9-2.4A12.9,12.9,0,0,1,349.3,440.8Z" transform="translate(-16.8 -32.1)" style="fill:#ff9a6c"/><path d="M350.8,448.4c0,.2-4.9.4-10.9,1.2s-10.7,1.9-10.8,1.7a11.9,11.9,0,0,1,3.1-1,63.7,63.7,0,0,1,7.6-1.5c3-.4,5.8-.5,7.7-.6A13.2,13.2,0,0,1,350.8,448.4Z" transform="translate(-16.8 -32.1)" style="fill:#ff9a6c"/><path d="M324.7,453.8a11.3,11.3,0,0,1-.2-1.2,25.3,25.3,0,0,1-.3-3.5,11,11,0,0,1,.2-2.5,7.2,7.2,0,0,1,.9-2.7,17.4,17.4,0,0,1,4.2-4.9,21.6,21.6,0,0,1,5.5-3.4,21.9,21.9,0,0,1,5.1-1.2l3.5-.2h1.3c0,.1-1.8.3-4.7.8a17.6,17.6,0,0,0-5,1.3,21.5,21.5,0,0,0-5.2,3.3,15.1,15.1,0,0,0-4.1,4.7,8.6,8.6,0,0,0-1.1,4.8C324.7,452,324.9,453.8,324.7,453.8Z" transform="translate(-16.8 -32.1)" style="fill:#ff9a6c"/><path d="M340.4,430.8l-4.6.8c-2.8.6-7.2,1.2-9.4,5.2s-4.5,7.1-5.3,9.9-.6,4.5-.8,4.5a11.3,11.3,0,0,1-.2-1.2,12.7,12.7,0,0,1,.5-3.5c.7-2.9,2.7-6.5,5.2-10.2a12.7,12.7,0,0,1,2.1-2.5,8.1,8.1,0,0,1,2.7-1.5,23.1,23.1,0,0,1,5.1-1.2A18.5,18.5,0,0,1,340.4,430.8Z" transform="translate(-16.8 -32.1)" style="fill:#ff9a6c"/><path d="M347.6,456.7a2.1,2.1,0,0,1-.7-.5l-2.2-1.4a57.9,57.9,0,0,0-8.3-4.8h.2l-7.3,1.8.2-.3a5.4,5.4,0,0,1,0,1.8,3.7,3.7,0,0,1-.7,1.9l-.9.5a2.1,2.1,0,0,1-1.1.1,2.5,2.5,0,0,1-1.9-.9l-.4-.4h-.1l.5.2h-.3l-.9.4-1,.3h-.6a.9.9,0,0,1-.7-.1,2.3,2.3,0,0,1-.8-.9,10.4,10.4,0,0,1-.4-1,11.8,11.8,0,0,1-.7-2l.5.2a2.6,2.6,0,0,1-2.8-.7,2.1,2.1,0,0,1-.7-1.5,6.8,6.8,0,0,1,.2-1.4,49.8,49.8,0,0,1,1.6-5.5h0l2.4-4.5,1.5-2.9a14,14,0,0,1,1.7-2.8,9.6,9.6,0,0,1,2.5-2,12.2,12.2,0,0,1,3-.8l11.3-2.2h0l2.1.4a3.2,3.2,0,0,1,1.8,1.1h-.4a3.7,3.7,0,0,1,3.8-.1,4.9,4.9,0,0,1,2.2,2.9v-.2l10,7.8,2.7,2.1,1,.8-1.1-.7-2.8-2-10.2-7.5h-.1a4.3,4.3,0,0,0-1.9-2.5,3.6,3.6,0,0,0-3.2.1l-.3.2-.2-.3a3,3,0,0,0-1.4-.8l-1.9-.3h.1l-11.2,2.2a11.5,11.5,0,0,0-2.8.8,8.4,8.4,0,0,0-2.3,1.8,12,12,0,0,0-1.6,2.7l-1.5,2.8q-1.2,2.4-2.4,4.5h0c-.6,1.8-1.2,3.6-1.6,5.3a6.2,6.2,0,0,0-.1,1.3,1.8,1.8,0,0,0,.4,1,2,2,0,0,0,2.1.5h.4v.4l.6,2a4.9,4.9,0,0,0,.9,1.5c.1,0,.2.1.4,0h.4a1.6,1.6,0,0,0,.9-.3l.9-.3h.2l.5.2h.1l.3.4a2.6,2.6,0,0,0,1.5.7h.8a.9.9,0,0,0,.6-.4,4.2,4.2,0,0,0,.6-3.1v-.3h.2l7.4-1.7h.2a81,81,0,0,1,8.2,5l2,1.6Z" transform="translate(-16.8 -32.1)" style="fill:#ff9a6c"/><path d="M213,458.5l-28.8-71.1c-1.1-2.6,1-5.5,4.1-5.5h92.5a4.5,4.5,0,0,1,4,2.4L312.5,452l58.1,1a4.2,4.2,0,0,1,4.4,4h0a4.3,4.3,0,0,1-4.4,4.1H217.1A4.4,4.4,0,0,1,213,458.5Z" transform="translate(-16.8 -32.1)" style="fill:#455a64"/><path d="M356.2,338c.1,0-1,2.1-2.6,5.6a102.1,102.1,0,0,0-5.1,14,100.5,100.5,0,0,0-2.9,14.6c-.4,3.8-.6,6.2-.7,6.1s-.1-.5-.1-1.6.1-2.6.2-4.6a77.5,77.5,0,0,1,2.7-14.7,73.4,73.4,0,0,1,5.4-14,43.5,43.5,0,0,1,2.1-4C355.8,338.4,356.1,337.9,356.2,338Z" transform="translate(-16.8 -32.1)" style="fill:#263238"/><path d="M473.2,379.5c0,.1-.3.1-.8.2l-2.5.2-9.2.8L429.2,383h-.4v-.4c-.3-4.2-.5-8.6-.8-13.2-.5-7.9-.9-15.4-1-22.3s1.3-13.2,4.1-17.7a21.4,21.4,0,0,1,8.8-8.4,16,16,0,0,1,3.1-1.3c.7-.2,1.1-.3,1.1-.2s-1.5.4-4.1,1.7a22.6,22.6,0,0,0-8.4,8.5,31.4,31.4,0,0,0-3.8,17.4c.1,6.9.5,14.4,1,22.3.3,4.5.5,8.9.8,13.1l-.4-.4,31.5-2,9.2-.6h3.3Z" transform="translate(-16.8 -32.1)" style="fill:#263238"/><path d="M396,406.4l-1.4-.5-1.5-.8-2-1.2a28.4,28.4,0,0,1-4.5-3.8,34.5,34.5,0,0,1-4.3-5.9,37.7,37.7,0,0,1-2.9-6.7,28.3,28.3,0,0,1-.9-5.9,18.5,18.5,0,0,1-.1-2.3,8.8,8.8,0,0,1,.2-1.7c.1-.9.2-1.4.2-1.4s-.1,2.1.2,5.4a39.1,39.1,0,0,0,1.2,5.7,27.7,27.7,0,0,0,2.8,6.5,28.1,28.1,0,0,0,4.2,5.7,24.9,24.9,0,0,0,4.3,3.9C394.1,405.4,396.1,406.2,396,406.4Z" transform="translate(-16.8 -32.1)" style="fill:#263238"/><path d="M249.3,430c-1.9,1.7-5.4.8-7.7-1.9s-2.6-6.3-.6-8,5.4-.8,7.7,1.9S251.3,428.3,249.3,430Z" transform="translate(-16.8 -32.1)" style="fill:#fff"/></g></svg>