<?xml version="1.0" encoding="utf-8"?>
<!-- Generator: Adobe Illustrator 25.4.1, SVG Export Plug-In . SVG Version: 6.00 Build 0)  -->
<svg version="1.1" id="Layer_1" xmlns="http://www.w3.org/2000/svg" xmlns:xlink="http://www.w3.org/1999/xlink" x="0px" y="0px"
	 width="750px" height="500px" viewBox="0 0 750 500" style="enable-background:new 0 0 750 500;" xml:space="preserve">
<style type="text/css">
	.st0{display:none;}
	.st1{display:inline;}
	.st2{fill:#F5F5F5;}
	.st3{fill:none;stroke:#FFFFFF;stroke-width:1.8278;stroke-miterlimit:10;}
	.st4{fill:none;stroke:#FFFFFF;stroke-width:1.8604;stroke-miterlimit:10;}
	.st5{fill:#619440;}
	.st6{fill:none;stroke:#FFE6C7;stroke-width:1.2469;stroke-linecap:round;stroke-linejoin:round;stroke-miterlimit:10;}
	.st7{fill:#306B34;}
	.st8{fill:none;stroke:#FFE6C7;stroke-width:1.626;stroke-linecap:round;stroke-linejoin:round;stroke-miterlimit:10;}
	.st9{fill:#7F786A;}
	.st10{fill:#FFFFFF;}
	.st11{fill:none;stroke:#3F3C39;stroke-width:1.5212;stroke-linecap:round;stroke-linejoin:round;stroke-miterlimit:10;}
	.st12{fill:none;stroke:#3F3C39;stroke-width:1.3979;stroke-linecap:round;stroke-linejoin:round;stroke-miterlimit:10;}
	.st13{fill:#A29C8F;}
	.st14{fill:#FFE6C7;}
	.st15{fill:#3F3C39;}
	.st16{fill:#FBB11B;}
	.st17{fill:#FFA559;}
	.st18{fill:none;stroke:#3F3C39;stroke-width:1.4677;stroke-linecap:round;stroke-linejoin:round;stroke-miterlimit:10;}
	.st19{fill:none;stroke:#FFE6C7;stroke-width:1.4677;stroke-linecap:round;stroke-miterlimit:10;}
	.st20{fill:#D8D3D0;}
	.st21{fill:none;stroke:#3F3C39;stroke-width:0.8657;stroke-linecap:round;stroke-linejoin:round;stroke-miterlimit:10;}
</style>
<g id="Background_Simple" class="st0">
	<g class="st1">
		<path class="st2" d="M222.9,184.7l1.2-3.5c10.1-29.4,35.1-51.2,65.5-55.9c3.9-0.6,7.9-0.9,11.8-0.9c28.5-0.1,56.8,15.3,72.4,39.5
			c9.2,14.3,14.7,31.8,28.4,41.7c17.8,12.9,42.2,8.1,63.3,2.8c21.2-5.3,45.6-10.1,63.3,2.9c11.1,8.1,17.1,21.9,19.3,35.5
			c5.9,36.2-12,73.6-40.2,96.5c-28.2,22.8-65.2,32.4-101.4,33c-50.7,0.9-102.8-15.9-139.7-51.4S210.5,234.4,222.9,184.7z"/>
	</g>
</g>
<g id="OBJECTS">
	<g>
		<g>
			<g>
				<g>
					<line class="st3" x1="30.6" y1="7.4" x2="30.6" y2="201.8"/>
				</g>
				<g>
					<line class="st3" x1="59.9" y1="7.4" x2="59.9" y2="201.8"/>
				</g>
				<g>
					<line class="st3" x1="89.3" y1="7.4" x2="89.3" y2="201.8"/>
				</g>
				<g>
					<line class="st3" x1="118.6" y1="7.4" x2="118.6" y2="201.8"/>
				</g>
				<g>
					<line class="st3" x1="148" y1="7.4" x2="148" y2="201.8"/>
				</g>
				<g>
					<line class="st3" x1="177.3" y1="7.4" x2="177.3" y2="201.8"/>
				</g>
				<g>
					<line class="st4" x1="205.7" y1="32" x2="2.1" y2="32"/>
				</g>
				<g>
					<line class="st4" x1="205.7" y1="61" x2="2.1" y2="61"/>
				</g>
				<g>
					<line class="st4" x1="205.7" y1="90" x2="2.1" y2="90"/>
				</g>
				<g>
					<line class="st4" x1="205.7" y1="119.1" x2="2.1" y2="119.1"/>
				</g>
				<g>
					<line class="st4" x1="205.7" y1="148.1" x2="2.1" y2="148.1"/>
				</g>
				<g>
					<line class="st4" x1="205.7" y1="177.2" x2="2.1" y2="177.2"/>
				</g>
			</g>
		</g>
		<g>
			<g>
				<g>
					<line class="st3" x1="573.4" y1="305.5" x2="573.4" y2="500"/>
				</g>
				<g>
					<line class="st3" x1="602.8" y1="305.5" x2="602.8" y2="500"/>
				</g>
				<g>
					<line class="st3" x1="632.1" y1="305.5" x2="632.1" y2="500"/>
				</g>
				<g>
					<line class="st3" x1="661.5" y1="305.5" x2="661.5" y2="500"/>
				</g>
				<g>
					<line class="st3" x1="690.9" y1="305.5" x2="690.9" y2="500"/>
				</g>
				<g>
					<line class="st3" x1="720.2" y1="305.5" x2="720.2" y2="500"/>
				</g>
				<g>
					<line class="st4" x1="748.6" y1="330.2" x2="545.1" y2="330.2"/>
				</g>
				<g>
					<line class="st4" x1="748.6" y1="359.2" x2="545.1" y2="359.2"/>
				</g>
				<g>
					<line class="st4" x1="748.6" y1="388.3" x2="545.1" y2="388.3"/>
				</g>
				<g>
					<line class="st4" x1="748.6" y1="417.3" x2="545.1" y2="417.3"/>
				</g>
				<g>
					<line class="st4" x1="748.6" y1="446.4" x2="545.1" y2="446.4"/>
				</g>
				<g>
					<line class="st4" x1="748.6" y1="475.4" x2="545.1" y2="475.4"/>
				</g>
			</g>
		</g>
	</g>
	<g>
		<g>
			<g>
				<g>
					<line class="st3" x1="30.6" y1="7.4" x2="30.6" y2="201.8"/>
				</g>
				<g>
					<line class="st3" x1="59.9" y1="7.4" x2="59.9" y2="201.8"/>
				</g>
				<g>
					<line class="st3" x1="89.3" y1="7.4" x2="89.3" y2="201.8"/>
				</g>
				<g>
					<line class="st3" x1="118.6" y1="7.4" x2="118.6" y2="201.8"/>
				</g>
				<g>
					<line class="st3" x1="148" y1="7.4" x2="148" y2="201.8"/>
				</g>
				<g>
					<line class="st3" x1="177.3" y1="7.4" x2="177.3" y2="201.8"/>
				</g>
				<g>
					<line class="st4" x1="205.7" y1="32" x2="2.1" y2="32"/>
				</g>
				<g>
					<line class="st4" x1="205.7" y1="61" x2="2.1" y2="61"/>
				</g>
				<g>
					<line class="st4" x1="205.7" y1="90" x2="2.1" y2="90"/>
				</g>
				<g>
					<line class="st4" x1="205.7" y1="119.1" x2="2.1" y2="119.1"/>
				</g>
				<g>
					<line class="st4" x1="205.7" y1="148.1" x2="2.1" y2="148.1"/>
				</g>
				<g>
					<line class="st4" x1="205.7" y1="177.2" x2="2.1" y2="177.2"/>
				</g>
			</g>
		</g>
		<g>
			<g>
				<g>
					<line class="st3" x1="573.4" y1="305.5" x2="573.4" y2="500"/>
				</g>
				<g>
					<line class="st3" x1="602.8" y1="305.5" x2="602.8" y2="500"/>
				</g>
				<g>
					<line class="st3" x1="632.1" y1="305.5" x2="632.1" y2="500"/>
				</g>
				<g>
					<line class="st3" x1="661.5" y1="305.5" x2="661.5" y2="500"/>
				</g>
				<g>
					<line class="st3" x1="690.9" y1="305.5" x2="690.9" y2="500"/>
				</g>
				<g>
					<line class="st3" x1="720.2" y1="305.5" x2="720.2" y2="500"/>
				</g>
				<g>
					<line class="st4" x1="748.6" y1="330.2" x2="545.1" y2="330.2"/>
				</g>
				<g>
					<line class="st4" x1="748.6" y1="359.2" x2="545.1" y2="359.2"/>
				</g>
				<g>
					<line class="st4" x1="748.6" y1="388.3" x2="545.1" y2="388.3"/>
				</g>
				<g>
					<line class="st4" x1="748.6" y1="417.3" x2="545.1" y2="417.3"/>
				</g>
				<g>
					<line class="st4" x1="748.6" y1="446.4" x2="545.1" y2="446.4"/>
				</g>
				<g>
					<line class="st4" x1="748.6" y1="475.4" x2="545.1" y2="475.4"/>
				</g>
			</g>
		</g>
	</g>
	<g>
		<g>
			<path class="st5" d="M140.7,370.4c-16.1-8.8-28.6-24-33.7-41.5c-1.9-6.3-2.8-13.1-0.9-19.4c2-6.3,7.4-11.8,14-12.3
				c-8.8-8.2-19.9-19.3-23.6-30.7c-1.5-4.6-1.7-9.5-0.7-14.2c1.4-6.2,11.6-7.3,16.1-5.4c-6.8-13.2-13.8-27.2-13.3-42
				c0.2-5.3,1.8-11.1,6.3-14c4.4-2.8,10.6-1.7,14.8,1.3c4.3,3.1,7,7.8,9.3,12.5c5.8,12.2,9.1,25.7,9.6,39.2
				c2.8-5.4,11.1-6.7,16.2-3.4c5.2,3.4,7.8,9.5,9.3,15.4c3,11.9,2.6,24.6-1.1,36.3c5.2-3.6,13-0.7,16.3,4.6c3.4,5.3,3.4,12,2.6,18.3
				c-1.7,14.2-7,27.8-12.2,41.2c-2.3,5.9-4.8,12.2-9.9,16C155,376,146.2,373.4,140.7,370.4z"/>
			<g>
				<g>
					<path class="st6" d="M113.1,193.6c46.7,97.4,43,189.3,43,189.3"/>
					<path class="st6" d="M154.5,347.7c-7.8-12.7-18.5-23.6-31.2-31.6"/>
					<path class="st6" d="M145.5,287.8c1.7-12.3,4.1-24.5,7.1-36.6"/>
				</g>
			</g>
		</g>
		<g>
			<path class="st7" d="M80.8,389.1c1.4-8.9,6.5-18.8,2.5-26c-4-7.3-14.8-7.8-22.3-11.8c-9.2-4.9-13.5-16.2-10.2-26.9
				c2-6.8,6.8-13.4,6.4-20.1c-0.4-6.7-5.7-11.3-9.9-16.1c-3.3-3.9-5.7-9-4.4-14c0.5-1.8,2.6-2.4,4-1.2c5.5,5.1,14.7,6.2,23.1,7
				c9.7,0.9,20.6,2.5,25.1,10.1c4.7,7.8,1,19.5,5.9,27.2c5.9,9.2,20.7,8.4,31.1,13c8.4,3.8,14.2,11.8,15,21
				c0.6,6.6-1.1,13.7,0.8,19.8c2.2,6.7,8.5,11,15,14c6.5,3.1,13.6,5.5,18.9,10.1c6.7,5.8,9.9,15.1,8.4,24.5
				c-1.5,9.5-7.6,18.9-16.2,25.1c-11.5,8.3-22.5,15.1-35.8,10.7c-13.8-4.5-13-16.8-20.1-26.4c-4.7-6.3-14.5-7.1-22-10.5
				C85,413.4,78.9,401.5,80.8,389.1z"/>
			<path class="st8" d="M48.5,278.8c6.3,7.4,19.9,4.9,25.9,12.5c4.4,5.6,2.5,13.7,2.6,20.8c0.1,13.4,8.6,26.3,21,31.6
				c5,2.2,10.9,3.4,14.2,7.7c4.3,5.4,2.6,13.3,2.8,20.2c0.2,8.9,3.9,17.6,10.2,24c6.8,6.9,16.1,10.7,24.1,16
				c8.1,5.3,15.8,13.1,16,22.8"/>
		</g>
	</g>
	<g>
		<g>
			<path class="st9" d="M719.5,48c6.5,3.7,2.6,332.9,0,337.9c-2.6,5.1-257.2,4.2-261.8,0c-4.7-4.2-2.3-329.2-1-336.3
				C457.9,42.6,714.4,45.2,719.5,48z"/>
			<path class="st10" d="M489.5,366.8h200.8c3.2,0,5.9-2.6,5.9-5.8c-4-98.5-4.2-194.7,0-288.3c0-3.2-2.6-5.8-5.9-5.8H489.5
				c-3.2,0-5.9,2.6-5.9,5.8c-2.9,91.4-2.6,187.8,0,288.3C483.6,364.2,486.2,366.8,489.5,366.8z"/>
			<g>
				<line class="st11" x1="605.9" y1="45.6" x2="573.2" y2="45.6"/>
			</g>
			<g>
				<g>
					<line class="st12" x1="681.6" y1="162.6" x2="564.5" y2="162.6"/>
					<line class="st12" x1="681.6" y1="146.6" x2="564.5" y2="146.6"/>
					<line class="st12" x1="681.6" y1="130.6" x2="564.5" y2="130.6"/>
					<line class="st12" x1="681.6" y1="114.7" x2="597" y2="114.7"/>
				</g>
				<path class="st13" d="M505.1,162.6h38.7c3.5,0,6.5-2.8,6.5-6.4v-38.3c0-3.5-2.9-6.4-6.5-6.4h-38.7c-3.5,0-6.5,2.8-6.5,6.4v38.3
					C498.7,159.7,501.5,162.6,505.1,162.6z"/>
			</g>
			<g>
				<g>
					<line class="st12" x1="681.6" y1="243.3" x2="564.5" y2="243.3"/>
					<line class="st12" x1="681.6" y1="227.3" x2="564.5" y2="227.3"/>
					<line class="st12" x1="681.6" y1="211.3" x2="564.5" y2="211.3"/>
					<line class="st12" x1="681.6" y1="195.3" x2="597" y2="195.3"/>
				</g>
			</g>
			<g>
				<g>
					<line class="st12" x1="681.6" y1="323.9" x2="564.5" y2="323.9"/>
					<line class="st12" x1="681.6" y1="307.9" x2="564.5" y2="307.9"/>
					<line class="st12" x1="681.6" y1="291.9" x2="564.5" y2="291.9"/>
					<line class="st12" x1="681.6" y1="275.9" x2="597" y2="275.9"/>
				</g>
				<path class="st14" d="M505.1,323.9h38.7c3.5,0,6.5-2.8,6.5-6.4v-38.3c0-3.5-2.9-6.4-6.5-6.4h-38.7c-3.5,0-6.5,2.8-6.5,6.4v38.3
					C498.7,321.1,501.5,323.9,505.1,323.9z"/>
			</g>
		</g>
		<g>
			<path class="st15" d="M441.6,456.5h-14c-10.2,0-19.8-5.4-24.8-14.4c-4.3-7.8-7.5-19.4-7.5-36.6h29.5L441.6,456.5z"/>
			<ellipse class="st15" cx="442.8" cy="419.2" rx="27.9" ry="37.3"/>
			<path class="st15" d="M180.1,456.5h-14.2c-10.2,0-19.5-5.4-24.5-14.2c-4.4-7.8-7.6-19.5-7.6-36.7h29.5L180.1,456.5z"/>
			<ellipse class="st15" cx="181.4" cy="419.2" rx="27.9" ry="37.3"/>
			<path class="st15" d="M569.7,461.4h-17.6c-7.4,0-14.5-3.1-19.2-8.7c-6.8-7.9-12.5-21.7-12.5-45.6h31.4L569.7,461.4z"/>
			<path class="st15" d="M341.1,461.4h-17.4c-7.5,0-14.7-3.1-19.5-8.8c-6.7-7.9-12.4-21.7-12.4-45.4h31.4L341.1,461.4z"/>
			<path class="st16" d="M105.2,407h2c0.2-13.2,1.1-30.7,1.1-30.7l6-7.5c0,0-1.4-23.3,1.3-25.8c0.8-1.5,10.8-4.9,10.8-4.9
				s3.3-4.7,6-6.9s87-19.5,87-19.5s47.1-68.8,51.6-69.8c3.4-0.7,139.6-1.3,204.3-1.4c21.6-0.1,42.6,7.5,59.1,21.3
				c31.3,26.2,80,67.2,80.8,67.7c4,3.2,4.1,89.4-0.8,92c0,0-462.8,0.5-503.2,0.1h-5.8c-0.8,0-1.4-0.6-1.4-1.3v-12.1
				C104,407.6,104.6,407,105.2,407z"/>
			<g>
				<g>
					<path class="st10" d="M222.7,311.1l43.8-60.3c0.3-0.4,0.9-0.7,1.4-0.7h115.8c1.1,0,2,1.1,1.7,2.2l-15.1,60.3
						c-0.2,0.8-0.9,1.3-1.7,1.3H224.2C222.7,314,221.9,312.3,222.7,311.1z"/>
					<path class="st10" d="M402.3,251.6c0.2-0.8,1-1.4,1.8-1.4h65.4c0.7,0,1.2,0.3,1.6,0.9l38.7,60c0.8,1.3-0.1,2.8-1.6,2.8H389
						c-1.2,0-2.1-1.1-1.8-2.3L402.3,251.6z"/>
					<path class="st10" d="M489.6,250.2L489.6,250.2c13.9,0,27.4,4.9,38.1,13.9l55.5,46.7c1.4,1.1,0.5,3.3-1.2,3.3h-57.8
						c-0.7,0-1.3-0.4-1.7-1L488,253C487.3,251.7,488.2,250.2,489.6,250.2z"/>
				</g>
			</g>
			<path class="st17" d="M614.7,335c0.6,12.3,0.6,26.6,0.5,32.1c0,1.3-1.1,2.4-2.5,2.4h-7.6c-1.4,0-2.5-1.1-2.5-2.5v-32
				c0-1.3,1.1-2.5,2.5-2.5h7.1C613.5,332.7,614.6,333.7,614.7,335z"/>
			<g>
				<g>
					<path class="st10" d="M288,369h-32c-5,0-9.1-4-9.1-9l0,0c0-4.3,3.1-8,7.3-8.9l32-6.3c5.7-1.1,10.9,3.1,10.9,8.9v6.3
						C297.1,365,293.1,369,288,369z"/>
					<path class="st10" d="M132.3,359.5L132.3,359.5c0,5.2-4.3,9.5-9.6,9.5h-3.3c-2.2,0-3.9-1.7-3.9-3.9v-12.5c0-2.6,2.6-4.5,5-3.7
						l5,1.6C129.6,351.8,132.3,355.4,132.3,359.5z"/>
				</g>
				<path class="st14" d="M268.3,389.5h-20.3v19.9h25.9c2.6,0,4.7-2.1,4.7-4.6v-2.5c0-0.9-0.3-1.8-0.8-2.6l-5.6-8.2
					C271.3,390.2,269.8,389.5,268.3,389.5z"/>
				<rect x="126.7" y="389.5" class="st10" width="115.5" height="19.9"/>
				<path class="st14" d="M109.9,400.3v4.4c0,2.5,2.1,4.6,4.7,4.6h6.6v-19.9h-4c-1.9,0-3.6,1.1-4.3,2.9l-2.6,6.3
					C110,399.1,109.9,399.7,109.9,400.3z"/>
				<path class="st15" d="M137,352.3h104c1.7,0,3.1,1.4,3.1,3.1V366c0,1.7-1.4,3.1-3.1,3.1H137c-1.7,0-3.1-1.4-3.1-3.1v-10.6
					C133.8,353.7,135.2,352.3,137,352.3z"/>
			</g>
			<path class="st15" d="M605.8,422.5h10.6c0.5,0,0.9-0.3,1.1-0.7c2.5-6.1,2.5-21.9,2.4-26.3c0-0.7-0.5-1.1-1.2-1.1h-13
				c-0.7,0-1.2,0.5-1.2,1.2v25.7C604.7,422,605.2,422.5,605.8,422.5z"/>
			<g>
				<ellipse class="st15" cx="569.7" cy="421.7" rx="29.8" ry="39.8"/>
				<ellipse class="st14" cx="569.7" cy="421.7" rx="15" ry="20.1"/>
				<ellipse class="st18" cx="569.7" cy="421.7" rx="12.5" ry="16.8"/>
				<ellipse class="st15" cx="569.7" cy="421.7" rx="5" ry="6.8"/>
			</g>
			<g>
				<path class="st18" d="M387.2,316.7V393c0,4.7,3.8,8.5,8.6,8.5h108.9c4.2,0,7.7-3.4,7.7-7.6v-77.2"/>
				<path class="st15" d="M484.6,335.2h13.8c1.6,0,2.8-1.3,2.8-2.8l0,0c0-1.6-1.3-2.8-2.8-2.8h-13.8c-1.6,0-2.8,1.3-2.8,2.8l0,0
					C481.9,334,483.1,335.2,484.6,335.2z"/>
				<line class="st18" x1="480.9" y1="251.3" x2="516.8" y2="314"/>
				<path class="st18" d="M584.7,316.7v45.1c0,2.9-2.3,5.2-5.2,5.4c-43.9,2.3-47.1,34.4-47.1,34.4"/>
				<line class="st18" x1="232.8" y1="405.3" x2="132.3" y2="405.3"/>
				<line class="st18" x1="232.8" y1="399.4" x2="132.3" y2="399.4"/>
				<line class="st18" x1="232.8" y1="393.5" x2="132.3" y2="393.5"/>
				<line class="st19" x1="232.2" y1="356.9" x2="145.8" y2="356.9"/>
				<line class="st19" x1="232.2" y1="360.7" x2="145.8" y2="360.7"/>
				<line class="st19" x1="232.2" y1="364.5" x2="145.8" y2="364.5"/>
				<line class="st18" x1="611.9" y1="363.9" x2="606" y2="363.9"/>
				<line class="st18" x1="611.9" y1="360.5" x2="606" y2="360.5"/>
				<path class="st18" d="M296.1,369l4.9,7.7c0.5,0.9,0.8,1.9,0.8,2.9v23.9c0,1.2,1,2.1,2.1,2.1l0,0c1.2,0,2.1,1,2.1,2.1v12.6"/>
				<path class="st18" d="M294.6,342.3c0,0,3.3-4.7,6-6.9s73.2-16.6,73.2-16.6"/>
				<path class="st17" d="M357.1,355.6h4.8c2.1,0,3.8,1.6,3.8,3.7c0,2.1-1.7,3.7-3.8,3.7h-4.8c-2.1,0-3.8-1.6-3.8-3.7
					C353.4,357.3,355,355.6,357.1,355.6z"/>
			</g>
			<g>
				<ellipse class="st15" cx="342.5" cy="421.7" rx="29.8" ry="39.8"/>
				<ellipse class="st14" cx="342.5" cy="421.7" rx="15" ry="20.1"/>
				<ellipse class="st18" cx="342.5" cy="421.7" rx="12.5" ry="16.8"/>
				<ellipse class="st15" cx="342.5" cy="421.7" rx="5" ry="6.8"/>
			</g>
		</g>
		<g>
			<path class="st13" d="M207.7,97.8c0-16.8,13.8-30.4,30.7-30.4S269,81.1,269,97.8c0,16.8-13.8,30.4-30.7,30.4
				S207.7,114.5,207.7,97.8z M213.8,97.8c0,13.4,11,24.3,24.6,24.3c13.6,0,24.6-10.9,24.6-24.3s-11-24.3-24.6-24.3
				C224.8,73.5,213.8,84.4,213.8,97.8z"/>
			<g>
				<g>
					<polygon class="st20" points="300.1,195.6 292.5,183.3 290.1,182.8 285,174.3 296.2,167.6 307.3,160.9 312.4,169.3 
						311.8,171.6 319.4,184 318.6,187.8 321.5,192.5 325.2,192.9 329.2,199.6 329.5,203.3 333.6,209.8 337,212.1 344.8,224.8 
						338.6,236.7 325.2,236.6 317.3,224 316.8,220 312.8,213.3 309.6,211.5 305.5,204.8 306.9,201.4 303.9,196.6 					"/>
					<path class="st9" d="M280.2,183.9l37.8-22.8c8.3-5,10.4-16,4.5-23.6c-8.2-9.9-16-19.9-23-30c-5-6.6-14.3-8.4-21.5-4
						c-9.5,6.4-20,12.7-31.2,18.8c-7.2,4.3-9.9,13.3-6.3,20.7c6.1,10.1,11.5,21.5,16.4,33.9C261.1,185.7,272,188.9,280.2,183.9z
						 M249.4,134.7c-1.4-2.3-0.7-5.4,1.7-6.8l30.1-18.1c2.3-1.4,5.4-0.7,6.9,1.6c1.4,2.3,0.7,5.4-1.7,6.8l-30.1,18.1
						C253.9,137.9,250.9,137.1,249.4,134.7z"/>
					<line class="st21" x1="300.6" y1="174.9" x2="336.1" y2="232.7"/>
				</g>
				<path class="st16" d="M268.7,164.2l-3.8-9.9c-0.8-2,0-4.3,1.9-5.4l26.1-15.7c1.9-1.1,4.3-0.7,5.7,0.8l7.1,7.9
					c1.9,2.1,1.4,5.4-1.1,6.8l-29.4,17.7C272.9,167.9,269.7,166.8,268.7,164.2z"/>
			</g>
			<g>
				<path class="st9" d="M176.7,139.3l-27.8,85.2c-2.9,8.9,2,18.4,11,21.3l42.5,13.6c9,2.8,18.6-2,21.5-10.9l27.8-85.2
					c2.9-8.9-2-18.4-11-21.3l-5.4-1.7l-0.5-4.8c-0.3-3.1-2.5-5.8-5.5-6.8l-14.2-4.6c-3.1-1-6.5,0-8.6,2.5l-3,3.5l-5.4-1.7
					C189.2,125.5,179.6,130.4,176.7,139.3z M212.3,127.5l16.7,5.3c2.5,0.8,1.3,4.6-1.3,3.9l-16.7-5.3
					C208.6,130.5,209.8,126.7,212.3,127.5z"/>
				<g>
					<g>
						<polygon class="st16" points="172.9,190.5 180.6,167 232,183.4 224.4,206.9 						"/>
						<path class="st16" d="M223.6,209.4l-4.9,14.9c-2,6.1-8.6,9.4-14.8,7.5l-29.2-9.3c-6.2-1.9-9.5-8.5-7.5-14.6l4.9-14.9
							L223.6,209.4z"/>
						<path class="st16" d="M181.5,164.3l4.9-14.9c2-6.1,8.6-9.4,14.8-7.5l29.2,9.3c6.2,1.9,9.5,8.5,7.5,14.6l-4.9,14.9L181.5,164.3
							z"/>
					</g>
					<path class="st15" d="M205,157.4l-2,6.1c-0.3,1,0.2,1.9,1.2,2.3l9.5,3.1c1,0.3,2-0.2,2.3-1.2l2-6.1c0.3-1-0.2-1.9-1.2-2.3
						l-0.8-0.2l0.6-1.9c0.7-2.2-0.5-4.6-2.7-5.2c-2.2-0.7-4.6,0.5-5.3,2.7l-0.6,1.9l-0.8-0.2C206.3,155.9,205.3,156.4,205,157.4z
						 M214.7,158.6l-5.2-1.6l0.6-1.9c0.5-1.4,2-2.2,3.5-1.7c1.4,0.4,2.3,2,1.7,3.4L214.7,158.6z"/>
					<path class="st15" d="M198.6,182.8l0.6,0.2l0.2,0.1l1.4,0.4l0.2,0.1l5,1.6l0.6-1.9c0.5-1.4-0.3-3-1.7-3.4
						c-1.4-0.4-3,0.3-3.5,1.7l-0.2,0.7l-1.4-0.4l0.2-0.7c0.7-2.2,3.1-3.4,5.3-2.7c2.2,0.7,3.4,3.1,2.7,5.2l-0.6,1.9l0.8,0.2
						c1,0.3,1.5,1.3,1.2,2.3l-2,6.1c-0.3,1-1.4,1.5-2.3,1.2l-9.5-3.1c-1-0.3-1.5-1.3-1.2-2.3l2-6.1
						C196.7,183,197.6,182.5,198.6,182.8z"/>
					<g>
						<path class="st15" d="M201.5,216.6c0.2,0.1,0.5,0.1,0.7-0.1c0.5-0.2,0.6-0.7,0.4-1.2c-1.5-3-4.1-5.1-7.3-6.2s-6.6-0.7-9.6,0.7
							c-0.5,0.2-0.6,0.7-0.4,1.2c0.2,0.4,0.8,0.6,1.2,0.4c2.6-1.3,5.5-1.6,8.2-0.7c2.7,0.9,5,2.8,6.3,5.3
							C201.1,216.4,201.3,216.6,201.5,216.6z"/>
						<path class="st15" d="M187.2,214.5c0.2,0.1,0.5,0.1,0.7-0.1c1.8-0.9,3.9-1.1,5.8-0.4c2,0.6,3.5,1.9,4.4,3.7
							c0.2,0.4,0.8,0.6,1.2,0.4c0.5-0.2,0.6-0.7,0.4-1.2c-1.1-2.2-3.1-3.9-5.5-4.6c-2.4-0.7-4.9-0.6-7.2,0.6
							c-0.5,0.2-0.6,0.7-0.4,1.2C186.8,214.3,187,214.5,187.2,214.5z"/>
						<path class="st15" d="M188.8,217.7c0.2,0.1,0.5,0.1,0.7-0.1c2-1,4.4-0.2,5.5,1.8c0.2,0.4,0.8,0.6,1.2,0.4
							c0.5-0.2,0.6-0.7,0.4-1.2c-1.5-2.8-5-4-7.8-2.5c-0.5,0.2-0.6,0.7-0.4,1.2C188.4,217.4,188.6,217.6,188.8,217.7z"/>
						<path class="st15" d="M190.2,219.6c-0.3,0.8,0.2,1.8,1.1,2c0.8,0.3,1.8-0.2,2-1c0.3-0.8-0.2-1.8-1.1-2
							C191.4,218.3,190.4,218.7,190.2,219.6z"/>
					</g>
				</g>
			</g>
			<path class="st10" d="M255.3,111.2l12.1,7.4c1.8,1.1,0.2,3.9-1.7,2.8c-4-2.5-8.1-4.9-12.1-7.4C251.8,112.8,253.5,110,255.3,111.2
				z"/>
			<path class="st10" d="M222.7,131.7c1.6-4.8,3.2-9.6,4.7-14.5c0.7-1.9,3.8-1.1,3.2,0.8c-1.6,4.8-3.2,9.6-4.7,14.5
				C225.2,134.6,222.1,133.8,222.7,131.7z"/>
		</g>
	</g>
	<g>
		<g>
			<g>
				<path class="st15" d="M373.9,59.7c0,15.3-12.5,27.7-28,27.7c15.5,0,28,12.4,28,27.7c0-15.3,12.5-27.7,28-27.7
					C386.4,87.4,373.9,75,373.9,59.7z"/>
			</g>
			<g>
				<path class="st15" d="M48.5,207c0,11.6-9.5,21-21.2,21l0,0c11.7,0,21.2,9.4,21.2,21c0-11.6,9.5-21,21.2-21l0,0
					C58,228,48.5,218.6,48.5,207z"/>
			</g>
			<g>
				<path class="st15" d="M414.9,165.3c0,11.6-9.5,21-21.2,21l0,0c11.7,0,21.2,9.4,21.2,21c0-11.6,9.5-21,21.2-21l0,0
					C424.4,186.3,414.9,176.9,414.9,165.3z"/>
			</g>
		</g>
	</g>
</g>
<g id="TEXTS">
</g>
</svg>
