<?xml version="1.0" encoding="UTF-8"?>
<svg width="26px" height="22px" viewBox="0 0 26 22" version="1.1" xmlns="http://www.w3.org/2000/svg" xmlns:xlink="http://www.w3.org/1999/xlink">
    <title>8CB8C9AE-F357-4D1F-8915-B5502B472DF2</title>
    <g id="Page-1" stroke="none" stroke-width="1" fill="none" fill-rule="evenodd">
        <g id="Retailer" transform="translate(-911.000000, -30.000000)">
            <g id="Group-16" transform="translate(187.000000, 21.000000)">
                <g id="paper_plane" transform="translate(724.000000, 9.000000)">
                    <g>
                        <path d="M25.4012,0.0764 C25.2862,-0.0066 25.1352,-0.0226 25.0042,0.0324 L2.6482,9.0544 L0.0002,10.1534 L8.0022,13.3934 L8.0112,13.3934 L8.0112,13.3974 L10.1522,20.8694 C10.1952,21.0204 10.3142,21.1364 10.4652,21.1754 C10.6182,21.2144 10.7782,21.1704 10.8882,21.0594 L15.3462,16.5004 L21.3632,18.8664 C21.6112,18.9674 21.8912,18.9494 22.1242,18.8164 C22.3572,18.6834 22.5152,18.4514 22.5542,18.1864 L25.5912,0.5354 C25.6302,0.3584 25.5542,0.1744 25.4012,0.0764 L25.4012,0.0764 Z" id="Fill-2" fill="#F3D55B"></path>
                        <path d="M15.3464,16.5005 L10.8884,21.0595 C10.9414,21.0025 10.9784,20.9355 10.9984,20.8615 L12.4384,15.3175 L12.4594,15.2915 L14.3754,16.0945 L15.2324,16.4565 L15.3464,16.5005 Z" id="Fill-3" fill="#F29C1F"></path>
                        <path d="M25.4343,0.1006 L12.4593,15.2906 L12.4473,15.2866 L12.4383,15.3176 L10.9983,20.8606 C10.9783,20.9346 10.9413,21.0026 10.8883,21.0596 C10.7783,21.1706 10.6183,21.2146 10.4653,21.1756 C10.3143,21.1366 10.1953,21.0206 10.1523,20.8696 L8.0113,13.3976 L8.0113,13.3926 L8.0063,13.3926 L8.0063,13.3886 L25.4343,0.1006 Z" id="Fill-4" fill="#F0C419"></path>
                    </g>
                </g>
            </g>
        </g>
    </g>
</svg>