<svg xmlns="http://www.w3.org/2000/svg" width="71" height="71" viewBox="0 0 71 71">
    <g fill="none" fill-rule="evenodd">
        <path fill="#FFB218" d="M62.72 70.72h-54c-4.4 0-8-3.6-8-8v-54c0-4.4 3.6-8 8-8h54c4.4 0 8 3.6 8 8v54c0 4.4-3.6 8-8 8"/>
        <path fill="#FFF" d="M34.158 38.789c-2.058-5.473 1.496-9.757 1.65-9.962-3.897-2.798-8.035-1.865-9.465-1.41-3.488.881-5.839 4.378-7.545 5-1.65.601-4.832-.292-7.546.619v25.437c0 .957.783 1.74 1.74 1.74h25.255c2.525-1.3 3.374-4.407 4.162-7.509.97-3.818.746-7.086.742-7.261-.078-.007-6.546-.114-8.993-6.654M22.839 24.653c.837-2.383.929-5.303-.278-7.746-2.14.884-4.274 3.203-5.163 5.604-.81 2.137-1.083 5.181.153 7.547 2.494-.696 4.446-3.02 5.288-5.405"/>
    </g>
</svg>
