<svg xmlns="http://www.w3.org/2000/svg" xmlns:xlink="http://www.w3.org/1999/xlink" width="155" height="155" viewBox="0 0 155 155">
    <defs>
        <filter id="prefix__a" width="165.2%" height="165.2%" x="-32.6%" y="-19.6%" filterUnits="objectBoundingBox">
            <feOffset dy="15" in="SourceAlpha" result="shadowOffsetOuter1"/>
            <feGaussianBlur in="shadowOffsetOuter1" result="shadowBlurOuter1" stdDeviation="10"/>
            <feColorMatrix in="shadowBlurOuter1" values="0 0 0 0 1 0 0 0 0 0.699027652 0 0 0 0 0.0927210366 0 0 0 0.15 0"/>
        </filter>
        <circle id="prefix__b" cx="57.5" cy="57.5" r="57.5"/>
        <path id="prefix__c" d="M0 0.508L83.493 0.508 83.493 84 0 84z"/>
    </defs>
    <g fill="none" fill-rule="evenodd" transform="translate(20 5)">
        <use fill="#000" filter="url(#prefix__a)" xlink:href="#prefix__b"/>
        <use fill="#FFF" xlink:href="#prefix__b"/>
        <g>
            <g transform="translate(16 20) translate(0 .493)">
                <mask id="prefix__d" fill="#fff">
                    <use xlink:href="#prefix__c"/>
                </mask>
                <path fill="#E8F4FC" d="M74.01 68.738c5.923-7.207 9.483-16.429 9.483-26.484 0-23.056-18.69-41.746-41.747-41.746C18.69.508 0 19.198 0 42.254c0 10.055 3.559 19.277 9.482 26.483v.008l.068.078.073.092h.007c1.913 2.302 4.072 4.389 6.43 6.233v.016c.07.053.142.101.212.155.047.036.092.077.139.113v-.01c2.272 1.738 4.727 3.247 7.332 4.495v.011c.077.037.155.069.23.105.046.02.088.045.133.065h.015c2.05.957 4.189 1.753 6.404 2.37v.004c.024.007.049.011.073.018.025.007.05.016.075.022v-.003C34.2 83.476 37.91 84 41.746 84c.117 0 .233-.003.35-.004v-.008c3.709-.03 7.304-.541 10.723-1.479v.003c.025-.006.049-.014.074-.021l.074-.019v-.004c2.215-.616 4.354-1.413 6.404-2.37h.015c.045-.02.089-.045.134-.066.075-.036.153-.067.229-.104v-.011c2.605-1.248 5.06-2.756 7.332-4.494v.009c.047-.036.09-.075.138-.111.069-.054.143-.103.212-.156v-.016c2.359-1.845 4.518-3.932 6.43-6.233h.008l.075-.094c.02-.026.045-.051.067-.077v-.007z" mask="url(#prefix__d)"/>
            </g>
            <path fill="#FFDB0C" d="M41.746 44.222c-2.552 0-4.62-2.069-4.62-4.621 0-2.553 2.068-4.621 4.62-4.621s4.621 2.068 4.621 4.621c0 2.552-2.069 4.621-4.62 4.621M59.6 41.686v-4.171c0-.674-.547-1.22-1.22-1.22h-2.836c-.527 0-.994-.338-1.158-.839-.263-.806-.602-1.579-1.007-2.309-.264-.477-.183-1.071.202-1.455l1.896-1.897c.477-.476.477-1.249 0-1.725l-2.572-2.573c-.477-.476-1.249-.476-1.725 0l-2.007 2.006c-.37.372-.94.465-1.409.227-.606-.309-1.238-.571-1.893-.785-.499-.163-.834-.631-.834-1.157v-2.836c0-.673-.546-1.219-1.219-1.219H40.18c-.674 0-1.22.546-1.22 1.219v2.682c0 .544-.36 1.022-.884 1.171-.816.234-1.6.545-2.345.923-.47.238-1.04.148-1.413-.225l-2.006-2.006c-.477-.476-1.249-.476-1.726 0l-2.572 2.573c-.477.476-.477 1.249 0 1.725l1.896 1.897c.386.384.467.978.202 1.455-.405.73-.744 1.503-1.007 2.309-.164.501-.63.839-1.158.839h-2.836c-.673 0-1.219.546-1.219 1.22v4.171c0 .674.546 1.221 1.22 1.221h2.835c.527 0 .994.337 1.158.837.263.807.602 1.58 1.007 2.31.265.478.184 1.07-.202 1.456l-1.896 1.897c-.477.476-.477 1.249 0 1.724l2.572 2.573c.477.477 1.25.477 1.726 0l2.006-2.005c.373-.373.943-.464 1.413-.225.744.378 1.53.687 2.345.922.523.15.884.627.884 1.172v2.68c0 .674.546 1.22 1.22 1.22h3.638c.674 0 1.22-.546 1.22-1.22v-2.836c0-.524.335-.993.834-1.156.655-.213 1.287-.476 1.893-.784.468-.239 1.037-.146 1.41.227l2.005 2.005c.477.477 1.25.477 1.726 0l2.572-2.573c.477-.475.477-1.248 0-1.724l-1.896-1.897c-.386-.386-.467-.978-.202-1.456.405-.73.744-1.503 1.007-2.31.164-.5.631-.837 1.158-.837h2.836c.673 0 1.22-.547 1.22-1.221" transform="translate(16 20)"/>
            <path fill="#FBBF00" d="M59.6 41.686v-4.171c0-.674-.545-1.22-1.22-1.22h-2.836c-.53 0-.995-.341-1.16-.843l-.034-.106c-3.04 7.507-10.4 12.804-18.996 12.804-1.858 0-3.658-.25-5.37-.713l-1.97 1.97c-.476.476-.476 1.249 0 1.724l2.573 2.574c.476.476 1.249.476 1.725 0l2.006-2.006c.373-.373.944-.464 1.414-.225.744.378 1.528.688 2.344.922.524.15.885.627.885 1.172v2.68c0 .674.546 1.22 1.22 1.22h3.638c.674 0 1.22-.546 1.22-1.22v-2.835c0-.525.335-.994.834-1.157.655-.213 1.287-.476 1.892-.784.469-.24 1.038-.145 1.41.227l2.006 2.006c.476.476 1.249.476 1.725 0l2.573-2.574c.476-.475.476-1.248 0-1.724l-1.897-1.897c-.385-.386-.466-.978-.202-1.456.406-.73.744-1.503 1.008-2.31.163-.5.63-.837 1.157-.837h2.836c.674 0 1.22-.547 1.22-1.221" transform="translate(16 20)"/>
            <path fill="#E27A66" d="M70.396 13.261c-1.276 0-2.31-1.034-2.31-2.311 0-1.276 1.034-2.31 2.31-2.31s2.31 1.034 2.31 2.31c0 1.277-1.034 2.311-2.31 2.311m6.321-5.15c-.696-1.542-1.939-2.786-3.48-3.482-.325-.146-.53-.472-.53-.829V2.623c0-.505-.41-.915-.916-.915h-2.79c-.506 0-.916.41-.916.915V3.8c0 .357-.205.683-.529.829-1.542.696-2.786 1.94-3.48 3.482-.148.324-.474.529-.83.529H62.07c-.506 0-.915.41-.915.915v3.706h2.092c.356 0 .682.205.83.529.694 1.543 1.938 2.786 3.48 3.482.324.146.53.472.53.829v1.177c0 .505.41.915.914.915h2.791c.506 0 .915-.41.915-.915v-1.177c0-.357.206-.683.53-.829 1.542-.696 2.785-1.939 3.481-3.482.146-.324.473-.529.83-.529h1.176c.505 0 .915-.409.915-.915V9.555c0-.506-.41-.915-.915-.915h-1.177c-.356 0-.683-.205-.829-.529" transform="translate(16 20)"/>
            <path fill="#DD544F" d="M76.72 8.116c-.147-.324-.318-.635-.51-.93-.434 5.043-4.663 9.002-9.819 9.002-.182 0-.364-.006-.544-.015.511.445 1.086.817 1.711 1.099.324.147.528.474.528.829v1.177c0 .505.41.915.915.915h2.791c.505 0 .915-.41.915-.916V18.1c0-.356.205-.681.53-.829 1.541-.695 2.785-1.939 3.48-3.48.147-.325.473-.53.83-.53h1.176c.506 0 .915-.41.915-.915V9.554c0-.505-.409-.915-.915-.915h-1.177c-.354 0-.68-.203-.827-.524" transform="translate(16 20)"/>
            <path fill="#FBBF00" d="M13.096 13.261c-1.276 0-2.31-1.034-2.31-2.311 0-1.276 1.034-2.31 2.31-2.31s2.311 1.034 2.311 2.31c0 1.277-1.035 2.311-2.31 2.311m6.32-5.15c-.696-1.542-1.939-2.786-3.48-3.482-.325-.146-.53-.472-.53-.829V2.623c0-.505-.41-.915-.915-.915H11.7c-.505 0-.914.41-.914.915V3.8c0 .357-.206.683-.53.829-1.542.696-2.786 1.94-3.48 3.482-.148.324-.474.529-.83.529H4.77c-.505 0-.915.41-.915.915v2.791c0 .505.41.915.915.915h1.177c.356 0 .683.205.83.529.695 1.542 1.938 2.786 3.48 3.482.324.146.53.472.53.829v1.177c0 .504.41.915.915.915h2.791c.505 0 .915-.411.915-.915v-1.177c0-.357.205-.683.53-.829 1.541-.696 2.785-1.94 3.48-3.482.147-.324.473-.529.83-.529h1.176c.506 0 .915-.41.915-.915V9.555c0-.506-.409-.915-.915-.915h-1.177c-.356 0-.683-.205-.829-.529" transform="translate(16 20)"/>
            <path fill="#FFDB0C" d="M21.423 8.64h-1.177c-.356 0-.683-.205-.829-.53-.145-.322-.316-.63-.507-.924-.434 5.043-4.663 9.002-9.819 9.002-.183 0-.364-.006-.544-.016.51.446 1.084.818 1.71 1.1.323.145.53.472.53.829v1.177c0 .505.408.915.913.915h2.792c.505 0 .914-.41.914-.915V18.1c0-.357.206-.684.53-.83 1.542-.695 2.786-1.94 3.481-3.481.147-.324.473-.53.83-.53h1.176c.505 0 .915-.41.915-.914V9.555c0-.505-.41-.915-.915-.915" transform="translate(16 20)"/>
            <path fill="#816AE2" d="M68.086 68.25c0-1.275 1.034-2.31 2.311-2.31 1.275 0 2.31 1.035 2.31 2.31 0 1.276-1.035 2.311-2.31 2.311-1.277 0-2.311-1.035-2.311-2.31m5.776 1.157h.007c.026-.03.049-.062.074-.094.022-.026.046-.05.068-.077v-.007c.984-1.198 1.897-2.457 2.745-3.76-.012-.02-.028-.037-.039-.06-.695-1.542-1.939-2.785-3.481-3.48-.324-.147-.529-.474-.529-.829v-1.178c0-.505-.41-.914-.915-.914h-2.791c-.505 0-.915.41-.915.914v1.178c0 .355-.205.682-.53.83-1.542.694-2.785 1.937-3.481 3.48-.146.323-.473.53-.829.53h-1.177c-.505 0-.915.41-.915.913v2.792c0 .505.41.915.915.915h1.177c.356 0 .683.205.829.53.696 1.542 1.939 2.785 3.481 3.48.241.11.415.318.489.563 2.118-1.72 4.074-3.629 5.817-5.726M26.258 25.011c.528-.105.921-.584.92-1.122v-3.696c0-.632-.512-1.144-1.143-1.144-.632 0-1.144.512-1.144 1.144v.935l-3.285-3.285c-.446-.446-1.17-.446-1.617 0-.447.447-.447 1.171 0 1.618l3.285 3.284h-.936c-.632 0-1.144.513-1.144 1.144 0 .632.512 1.143 1.144 1.143h3.697c.074 0 .15-.006.223-.021.02-.004-.019.004 0 0M63.504 17.843c-.447-.446-1.171-.446-1.618 0L58.6 21.128v-.935c0-.632-.511-1.144-1.143-1.144-.631 0-1.144.512-1.144 1.144v3.696c0 .622.522 1.144 1.144 1.144h3.697c.631 0 1.143-.512 1.143-1.143 0-.632-.513-1.145-1.144-1.145h-.936l3.285-3.284c.447-.447.447-1.17 0-1.618-.447-.446.447.447 0 0M27.173 54.89c-.057-.576-.56-1.03-1.138-1.03h-3.697c-.632 0-1.143.512-1.143 1.144 0 .63.512 1.144 1.143 1.144h.936l-3.285 3.284c-.446.447-.446 1.17 0 1.617.224.224.516.335.809.335.293 0 .585-.111.809-.335l3.285-3.284v.936c0 .63.51 1.143 1.143 1.143.632 0 1.144-.512 1.144-1.143v-3.697c0-.038-.002-.075-.006-.113M63.503 59.432l-3.285-3.284h.936c.632 0 1.144-.512 1.144-1.144 0-.632-.512-1.143-1.144-1.143h-3.697c-.622 0-1.143.522-1.143 1.143V58.7c0 .63.512 1.143 1.143 1.143.632 0 1.144-.512 1.144-1.143v-.936l3.285 3.285c.223.223.516.335.808.335.293 0 .586-.112.81-.335.446-.447.446-1.171 0-1.618" transform="translate(16 20)"/>
            <path fill="#A8B7EF" d="M13.096 70.56c-1.276 0-2.31-1.033-2.31-2.31 0-1.275 1.034-2.31 2.31-2.31s2.311 1.035 2.311 2.31c0 1.277-1.035 2.31-2.31 2.31m2.84 4.012c1.541-.696 2.784-1.94 3.48-3.481.147-.324.473-.53.83-.53h1.176c.506 0 .915-.41.915-.914v-2.792c0-.505-.409-.914-.915-.914h-1.177c-.356-.001-.683-.206-.829-.53-.696-1.542-1.939-2.786-3.48-3.481-.325-.146-.53-.474-.53-.83v-1.177c0-.505-.41-.914-.915-.914H11.7c-.505 0-.915.409-.915.914V61.1c0 .355-.205.683-.529.829-1.542.695-2.785 1.939-3.48 3.48-.01.023-.028.04-.039.06.848 1.304 1.76 2.563 2.744 3.76v.008l.07.078.072.092h.007c1.743 2.097 3.7 4.007 5.817 5.727.074-.246.248-.454.49-.563" transform="translate(16 20)"/>
        </g>
    </g>
</svg>
