<svg xmlns="http://www.w3.org/2000/svg" xmlns:xlink="http://www.w3.org/1999/xlink" width="519" height="370" viewBox="0 0 519 370">
    <defs>
        <path id="prefix__a" d="M0.743 0.428L490.778 0.428 490.778 16 0.743 16z"/>
        <path id="prefix__c" d="M0 0.496L510.211 0.496 510.211 354.969 0 354.969z"/>
        <path id="prefix__e" d="M0 369L518.013 369 518.013 0.496 0 0.496z"/>
        <path id="prefix__g" d="M.694 5.488s1.909-.52 3.625-4.502C2.11 3.785.694 5.488.694 5.488"/>
        <path id="prefix__j" d="M0 369L518.013 369 518.013 0.496 0 0.496z"/>
        <linearGradient id="prefix__h" x1="39.922%" x2="65.265%" y1="73.924%" y2="21.64%">
            <stop offset="0%" stop-color="#DBEBFF"/>
            <stop offset="100%" stop-color="#FFF"/>
        </linearGradient>
    </defs>
    <g fill="none" fill-rule="evenodd">
        <g transform="translate(0 .504)">
            <g transform="translate(12 353)">
                <mask id="prefix__b" fill="#fff">
                    <use xlink:href="#prefix__a"/>
                </mask>
                <path fill="#F7E8C8" d="M.743 8.214c0-4.3 109.698-7.786 245.018-7.786s245.017 3.486 245.017 7.786c0 4.3-109.698 7.786-245.017 7.786C110.441 16 .743 12.514.743 8.214" mask="url(#prefix__b)"/>
            </g>
            <mask id="prefix__d" fill="#fff">
                <use xlink:href="#prefix__c"/>
            </mask>
            <path fill="#FFF4DD" d="M49.548 354.322C-3.204 299.478-4.726 270.81 4.057 254.72c8.806-16.13 26.104-16.206 37.01-36.867 13.876-26.288-6.272-41.049-1.542-74.38 4.054-28.569 25.647-65.567 60.14-76.319 41.18-12.834 66.638 22.373 106.4 9.703 38.81-12.367 28.907-50.478 73.248-68.558 32.679-13.325 79.192-9.396 101.005 10.348 16.165 14.633 8.358 28.532 24.672 49.801 20.866 27.206 50.634 17.725 62.453 36.867 17.208 27.869-35.051 54.743-23.902 95.722 8.266 30.381 41.408 31.855 58.598 65.972 15.449 30.66 5.947 63.736-5.397 87.96-149.065-.214-298.13-.43-447.194-.647" mask="url(#prefix__d)"/>
            <path fill="#FFBF4D" d="M262.393 80.618c-26.115 0-47.285 21.17-47.285 47.285l.223-.06c30.819-8.349 63.304-8.349 94.124 0l.223.06c0-26.116-21.171-47.285-47.285-47.285"/>
            <path fill="#FFA331" d="M309.678 127.41c0-3.537-21.17-6.404-47.285-6.404-26.114 0-47.284 2.867-47.284 6.403 0 3.536 21.17 6.403 47.284 6.403 26.115 0 47.285-2.867 47.285-6.403M198.374 356.34L184.696 356.389 203.593 323.536 211.94 332.719zM326.81 356.34L340.488 356.389 323.522 326.597 312.67 331.606z"/>
            <path fill="#FFBF4D" d="M372.888 240.203c0-60.935-49.397-110.33-110.33-110.33-60.935 0-110.332 49.395-110.332 110.33 0 60.935 49.397 110.331 110.331 110.331 60.934 0 110.331-49.396 110.331-110.33"/>
            <path fill="#FFF4DD" d="M347.275 240.203c0-46.789-37.93-84.719-84.718-84.719-46.789 0-84.719 37.93-84.719 84.72 0 46.788 37.93 84.718 84.72 84.718 46.787 0 84.717-37.93 84.717-84.719"/>
            <path fill="#FFBF4D" d="M270.93 240.203c0-4.624-3.749-8.373-8.373-8.373-4.625 0-8.374 3.75-8.374 8.373 0 4.624 3.75 8.373 8.374 8.373 4.624 0 8.373-3.749 8.373-8.373"/>
            <path fill="#FFBF4D" d="M237.293 236.755c12.471-.155 26.413 1.74 26.413 3.448 0 1.71-13.942 3.604-26.413 3.448-10.324-.129-18.92-1.654-25.02-3.107-.358-.085-.358-.597 0-.682 6.1-1.453 14.696-2.977 25.02-3.107"/>
            <path fill="#FFBF4D" d="M266.005 206.238c.156 16.77-1.738 35.518-3.448 35.518s-3.604-18.748-3.448-35.518c.129-13.883 1.655-25.441 3.107-33.645.086-.482.597-.482.682 0 1.453 8.204 2.978 19.762 3.107 33.645"/>
            <path fill="#FFA331" d="M267.598 240.203c0-2.784-2.257-5.04-5.04-5.04-2.785 0-5.042 2.256-5.042 5.04 0 2.784 2.257 5.041 5.041 5.041 2.784 0 5.041-2.257 5.041-5.04"/>
            <path fill="#A4B751" d="M445.219 331.883c3.81-2.262 16.75-9.03 16.835-13.812.09-5.21-3.821-10.449-8.655-11.586-2.087-.492-4.316-.317-6.122-1.919-1.01-.896-1.497-2.396-.913-3.56.952-1.9 3.562-1.153 5.505-.422 3.723 1.401 7.773 1.98 11.437.897 3.664-1.082 6.863-4.01 7.775-7.962.912-3.95-.878-8.794-4.426-10.695-2.22-1.188-4.828-1.188-6.847-3.006-1.047-.945-1.666-2.413-1.287-3.745.766-2.689 4.429-2.128 7.018-1.239 3.657 1.257 7.493 2.175 11.202 1.681 3.708-.494 7.292-2.609 8.843-6.172 1.552-3.564.522-8.586-2.763-10.8-1.316-.887-2.85-1.278-4.217-2.064-1.64-.943-3.158-2.805-2.368-4.797.547-1.382 1.995-2.019 3.432-1.847 1.99.238 3.536 1.461 5.099 2.667 2.462 1.901 5.484 2.815 8.363 2.34 8.6-1.422 8.61-12.355 3.193-16.89-1.521-1.274-3.578-2.386-3.693-4.465-.091-1.64 1.113-2.919 2.609-3.185 2.955-.525 5.423 1.551 8.175 2.222 5.03 1.226 10.193-3.399 9.875-8.849-.243-4.168-5.16-3.792-9.74-4.337-1.052-.125-1.327-1.667-.373-2.078 3.794-1.636 8.26-4.533 10.627-6.437 4.343-3.492 7.22-13.256-1.176-14.987-2.252-.464-6.942 1.812-7.883 3.563-1.331 2.476-6.543 8.985-6.543 8.985-.625.652-1.72-.05-1.507-.974.483-2.094.7-4.25.184-6.499-.236-1.029-.655-2.029-1.26-2.892-3.598-5.14-9.727-2.334-11.643 2.217-1.593 3.782-1.126 8.266-.727 12.521.207 2.205.345 4.616-1.174 6.2-.86.896-2.236 1.156-3.306.407-1.236-.865-1.156-2.3-1.406-3.587-.82-4.206-5.701-6.783-9.442-5.618-3.742 1.166-6.127 5.17-6.607 9.345-.48 4.175.644 8.487 2.135 12.521.737 1.99 1.586 4.115.724 6.121-.51 1.183-1.777 1.872-2.963 1.364-1.688-.725-1.758-2.999-2.226-4.779-1.303-4.945-7.502-7.32-11.673-5.228-4.17 2.094-6.207 7.36-6.064 12.414.16 5.695 2.615 11.206 5.02 16.384.568 1.22.354 2.708-.637 3.436-1.376 1.008-2.752-.267-3.936-1.23-4.573-3.726-11.355-3.68-15.426.101s-5.004 10.901-2.121 16.195c1.832 3.362 4.975 5.985 5.139 10.177.08 2.076-1.162 3.96-3.082 4.135-2.422.221-3.958-2.368-5.686-4.13-4.794-4.89-13.094-3.462-16.854 1.827-3.76 5.29-.038 17.53 2.446 24.017 2.485 6.49 7.399 20.114 13.758 25.932 2.997 2.74 21.542-5.617 25.352-7.878"/>
            <path fill="#619440" d="M512.626 196.836c-2.25-.464-6.94 1.812-7.882 3.563-1.332 2.476-6.543 8.985-6.543 8.985-.626.652-1.72-.05-1.508-.974.483-2.095.7-4.25.185-6.499-.236-1.029-.654-2.029-1.258-2.892-3.6-5.14-9.728-2.334-11.646 2.216-1.592 3.783-1.125 8.267-.726 12.522.207 2.205.344 4.616-1.174 6.2-.86.896-2.237 1.156-3.305.407-1.238-.865-1.158-2.3-1.408-3.588-.818-4.205-5.7-6.782-9.441-5.617-3.743 1.166-6.127 5.17-6.608 9.345-.48 4.175.644 8.487 2.137 12.52.736 1.99 1.584 4.116.722 6.122-.508 1.183-1.776 1.872-2.962 1.364-1.688-.725-1.757-2.999-2.226-4.779-1.303-4.945-7.502-7.32-11.673-5.228-4.17 2.094-6.207 7.358-6.063 12.414.16 5.695 2.613 11.206 5.02 16.384.567 1.22.353 2.708-.639 3.435-1.375 1.01-2.751-.266-3.935-1.23-4.572-3.725-11.356-3.68-15.426.101-4.072 3.782-5.003 10.902-2.12 16.196 1.83 3.362 4.974 5.985 5.137 10.177.082 2.076-1.16 3.96-3.082 4.135-2.421.221-3.957-2.368-5.685-4.132-4.794-4.889-13.094-3.46-16.854 1.83-3.76 5.288-.038 17.528 2.445 24.016 2.32 6.055 6.752 18.322 12.502 24.663.412.455 1.257 1.27 1.257 1.27s17.447-45.197 45.922-88.306c15.817-23.945 51.393-51.698 51.393-51.698s-.32-.578-1.01-1.152c-1.183-.988-3.104-1.678-3.546-1.77"/>
            <path fill="#306B34" d="M377.73 293.154c-1.368 5.068-2.049 10.284-2.62 15.457-.744 6.735.537 8.56 3.048 14.284 2.511 5.726 7.202 10.145 12.871 10.94 5.668.796 10.14 3.154 13.625-2.645.492-.818 1.426-.353 1.537.06.793 2.923 1.122 4.74 3.077 6.59 2.046 1.938 14.155 9.803 26.752-1.853 6.106-10.138 7.583-21.758 9.751-33.475.273-1.477.512-3.012.213-4.412-.55-2.572-3.116-4.093-5.42-3.211 2.077-.063 4.002-2.03 4.98-4.27.976-2.241 1.2-4.725 1.407-7.137l2.29-26.745c-5.687 2.882-12.157 2.97-17.375.238 0 0 18.227-6.245 17.215-15.512-.735-6.723-1.995-16.05-2.363-22.858-.258-4.764-2.276-9.647-4.353-13.554-1.773-3.333-2.95-5.638-5.767-7.792-1.703-1.301-3.493-2.638-5.609-2.828-3.212-.288-6.373 2.107-9.044 4.61-4.892 4.587-9.25 9.92-13.295 15.509-4.798 6.627-9.18 13.64-13.093 20.953 4.457 8.597 11.06 15.527 18.922 19.859-7.229-1.61-13.967-5.131-19.587-10.232-.677-.615-1.427-1.284-2.336-1.183-1.812.2-2.532 2.949-2.828 5.044-1.252 8.853-4.598 17.559-9.567 24.89 2.808.729 5.616 1.458 8.423 2.185l-10.556.897s.93 11.64-.298 16.19"/>
            <path fill="#A4B751" d="M374.672 295.91c-1.368 5.067-.632 20.243 2.974 28.08 2.613 5.678 7.63 9.958 13.084 11.698 4.273 1.366 10.439 1.3 13.924-4.499.492-.818 1.426-.353 1.538.061.793 2.922 26.85-136.636 24.798-136.82-3.212-.288-6.373 2.107-9.044 4.611-4.892 4.586-9.251 9.92-13.295 15.508-4.798 6.628-9.181 13.641-13.093 20.953 4.457 8.597 11.059 15.527 18.922 19.86-7.23-1.61-13.967-5.132-19.587-10.233-.677-.615-1.428-1.283-2.337-1.183-1.811.2-2.531 2.95-2.827 5.044-1.253 8.854-4.6 17.56-9.567 24.891 2.807.728 5.615 1.457 8.423 2.184-3.518.3-7.037.598-10.556.897 0 0-2.13 14.398-3.357 18.947"/>
            <path fill="#FFE2B7" d="M351.69 149.447s-19.727 22.304-11.857 70.917c7.87 48.614 19.903 128.465 19.903 128.465h4.212l11.516-159.674s6.898-13.538 7.325-41.08l-31.099 1.373z"/>
            <mask id="prefix__f" fill="#fff">
                <use xlink:href="#prefix__e"/>
            </mask>
            <path fill="#FFE2B7" d="M358.488 350.491L365.314 350.491 365.314 348.829 358.488 348.829z" mask="url(#prefix__f)"/>
            <path fill="#A29C8F" d="M365.285 348.83s2.961 2.85 0 5.81h-17.62c-.085-.35-.458-2.06.563-3.75l.025-.042c.794-1.287 2.244-2.019 3.755-2.019h7.131s3.055 1.788 6.146 0" mask="url(#prefix__f)"/>
            <path fill="#57575E" d="M347.173 356.532L365.807 356.532 365.807 354.64 347.173 354.64zM355.051 350.816L353.729 349.981 354.602 348.597 355.926 349.431z" mask="url(#prefix__f)"/>
            <path fill="#57575E" d="M356.905 350.963L355.507 350.263 356.244 348.788 357.643 349.488z" mask="url(#prefix__f)"/>
            <path fill="#FFC581" d="M382.782 148.446c-.515-.099-1.034-.202-1.55-.303l-20.266.895c-6.836 11.623-14.51 27.561-19.902 46.006-1.092 3.736-2.029 7.381-2.845 10.933.273 4.512.791 9.304 1.614 14.387 1.16 7.166 2.41 15.01 3.7 23.178 8.458 2.59 17.091 4.206 25.088 5.697.831.154 1.656.297 2.48.436l4.364-60.52s6.834-13.418 7.317-40.709" mask="url(#prefix__f)"/>
            <path fill="#FFE2B7" d="M401.623 141.342c1.11.035 4.272 11.705 4.663 12.971 1.748 5.653 3.947 15.711 4.351 17.931 2.13 11.674-4.382 83.38-20.26 176.585h-4.175c-3.546-52.906-7.452-109.128-10.998-162.034l1.942-46.226 24.477.773" mask="url(#prefix__f)"/>
            <path fill="#B26464" d="M384.845 350.491L391.671 350.491 391.671 348.829 384.845 348.829z" mask="url(#prefix__f)"/>
            <path fill="#A29C8F" d="M384.873 348.83s-2.96 2.85 0 5.81h17.622c.084-.35.457-2.06-.565-3.75l-.024-.042c-.795-1.287-2.243-2.019-3.755-2.019h-7.132s-3.053 1.788-6.146 0" mask="url(#prefix__f)"/>
            <path fill="#57575E" d="M384.352 356.532L402.986 356.532 402.986 354.64 384.352 354.64z" mask="url(#prefix__f)"/>
            <path fill="#DFEDF7" d="M395.107 350.816L394.233 349.431 395.556 348.597 396.43 349.981z" mask="url(#prefix__f)"/>
            <path fill="#DFEDF7" d="M393.254 350.963L392.516 349.488 393.914 348.788 394.652 350.263z" mask="url(#prefix__f)"/>
            <path fill="#FFC581" d="M410.638 172.244c-.405-2.22-2.604-12.278-4.353-17.932-.106-.346-.423-1.478-.847-2.936-1.98-.21-3.96-.422-5.938-.634-.467-.24-1.242-.564-2.25-.655-1.308-.118-2.338.217-2.864.43-4.853-.8-9.84-1.705-14.95-2.724-.871-.174-1.724-.388-2.567-.625l-1.665 39.627c1.406 20.97 2.868 42.46 4.34 64.057 9.213 1.014 17.706 1.078 25.227.638 5.26-42.84 7.162-72.146 5.867-79.246" mask="url(#prefix__f)"/>
            <path fill="#57575E" d="M431.41 76.087c2.754-6 3.726-14.843-.89-18.914-4.436-3.913-10.195-.032-14.444-3.99-4.237-3.948.079-9.825-2.995-16.159-4.684-9.649-23.664-15.207-32.011-7.456-3.821 3.548-5.901 10.34-3.786 15.326 2.484 5.855 8.803 4.58 12.602 11.29 3.498 6.174-.285 10.037 3.266 14.192 4.405 5.154 11.797 1.05 16.356 6.187 4.424 4.987.11 12.431 3.583 13.98 3.963 1.765 14.199-5.474 18.32-14.456" mask="url(#prefix__f)"/>
            <path fill="#FDC343" d="M370.952 47.791c0-3.54 2.87-6.412 6.412-6.412s6.412 2.871 6.412 6.412c0 3.542-2.87 6.412-6.412 6.412-3.541 0-6.412-2.87-6.412-6.412" mask="url(#prefix__f)"/>
            <path fill="#FFC581" d="M407.888 152.172s2.65 2.182 2.913 3.336c.262 1.155.48 5.912-2.012 7.345-2.494 1.433-2.207-2.004-2.207-2.004l-.007-3.732-2.717-4.47 4.03-.475z" mask="url(#prefix__f)"/>
            <path fill="#FFA331" d="M391.59 82.41c-.303-3.07 2.58-5.458 5.573-4.71 1.017.254 2.038.54 3.063.856 18.651 5.78 30.751 19.996 37.831 31.165 3.28 5.174 2.783 11.893-1.276 16.482-2.522 2.852-5.175 5.742-7.963 8.655-7.699 8.042-14.439 14.823-21.665 20.95-1.485-.974-1.446-2.204-2.93-3.179 3.385-6.167 6.443-11.11 10.82-17.826 4.402-6.757 8.818-12.937 13.116-18.55-7.74-5.535-13.56-9.61-16.797-11.867 0 0-17.618-10.596-19.53-20.334-.11-.562-.189-1.11-.242-1.642" mask="url(#prefix__f)"/>
            <path fill="#FB938E" d="M320.247 85.587c.05-4.443-.405-5.512-.86-5.599-.627-.12-1.954 1.493-1.615 3.231.237 1.218 1.228 2.17 2.475 2.368" mask="url(#prefix__f)"/>
            <path fill="#57575E" d="M322.764 85.621l-6.025.076c-.977.011-1.83-.662-2.044-1.615l-3.374-15.01c-.288-1.283.677-2.506 1.99-2.522l6.027-.075c.977-.013 1.829.66 2.044 1.614l3.374 15.011c.288 1.282-.678 2.504-1.992 2.521" mask="url(#prefix__f)"/>
            <path fill="#A29C8F" d="M318.147 73.239c-.108-.666-.734-1.118-1.4-1.011-.666.108-1.119.734-1.012 1.4.108.666.736 1.118 1.4 1.01.666-.107 1.118-.734 1.012-1.4" mask="url(#prefix__f)"/>
            <path fill="#FFE2B7" d="M317.26 91.197l-1.302-3.137c-.579-.468-1.51-1.345-2.18-2.715-.318-.65-1.664-3.401-.36-5.49.917-1.47 2.995-2.367 3.731-1.798.245.19.32.529.335.837l4.133 9.97-4.358 2.333z" mask="url(#prefix__f)"/>
            <path fill="#FFBF4D" d="M359.222 75.808s-9.818 7-13.774 18.512c-3.956 11.51-6.85 20.62-6.85 20.62l-17.161-26.783s-3.553 1.584-4.42 2.83c-1.146 1.654 12.65 37.016 16.278 43.492 3.937 7.03 24.48-20.425 27.176-32.52 2.696-12.093-1.25-26.151-1.25-26.151" mask="url(#prefix__f)"/>
            <path fill="#FFE2B7" d="M313.397 80.112s2.705-3.995 6.7-3.024c3.995.97-.749 7.518-.749 7.518l-5.95-4.494z" mask="url(#prefix__f)"/>
            <path fill="#A29C8F" d="M387.65 143.591c-.495-.176-1.306-.393-2.316-.348-1.313.058-2.288.53-2.782.811-4.917-.143-9.98-.37-15.18-.695-5.356-.335-10.307-2.114-15.342-2.603-5.943 12.722-12.956 32.13-16.345 54.573-2.684 17.776-2.5 33.34-1.463 45.477 12.02 3.333 24.664 3.966 36.039 4.533 15.953.795 29.92-1.103 41.076-3.665 1.134-20.95 2-37.574 2.139-42.023.953-30.37-5.864-45.29-8.507-51.964-.764-1.928-1.445-3.496-1.906-4.53-5.138.144-10.275.288-15.412.434" mask="url(#prefix__f)"/>
            <path fill="#7F786A" d="M403.063 143.156l-15.412.435c-.392-.139-.981-.302-1.71-.343 2.455 7.183 4.743 14.895 6.725 23.127 7.147 29.689 8.017 56.386 6.733 77.542 4.264-.627 8.257-1.399 11.938-2.243 1.135-20.95 2-37.575 2.14-42.024.952-30.369-5.864-45.29-8.507-51.964-.765-1.927-1.447-3.496-1.908-4.53" mask="url(#prefix__f)"/>
            <path fill="#FFBF4D" d="M403.166 143.16c1.032-13.269 1.085-28.802-1.077-45.96-.857-6.799-1.98-13.205-3.267-19.192l-21.729-7.184-17.884 4.982c-2.251 9.698-4.258 20.715-5.576 32.89-1.264 11.674-1.679 22.438-1.603 32.06 6.112 1.676 13.625 3.205 22.282 3.846 11.451.85 21.31-.12 28.854-1.442" mask="url(#prefix__f)"/>
            <path fill="#FFA331" d="M403.166 143.16c1.032-13.269 1.085-28.802-1.077-45.96-.857-6.799-1.98-13.205-3.267-19.192l-13.93-4.606c-2.754 2.101-3.725 4.974-1.488 8.897 6.572 11.53 3.102 44.553.558 62.615 7.386-.066 13.875-.82 19.204-1.754" mask="url(#prefix__f)"/>
            <path fill="#FFE2B7" d="M371.305 68.781l-.104-10.07 10-.486.128 11.247c.223 2.038 2.705 3.648 4.65 4.29l3.514 1.162c-.368 3.111-3.546 10.2-6.59 10.66-5.765.87-12.906-8.868-16.16-11.876 2.147-.599 4.424-2.703 4.562-4.927" mask="url(#prefix__f)"/>
            <path fill="#FFC581" d="M381.252 62.723l-.05-4.498-10.002.486.073 7c.824.57 1.751.949 2.763 1.062 2.812.315 5.496-1.494 7.216-4.05" mask="url(#prefix__f)"/>
            <path fill="#FFE2B7" d="M371.101 47.922c-.36.261-3.094 2.301-3.783 5.83-.911 4.687 1.983 10.997 6.719 11.528 4.531.508 8.735-4.502 9.097-9.266.32-4.223-2.31-9.139-6.173-9.86-2.714-.507-5.117 1.23-5.86 1.768" mask="url(#prefix__f)"/>
            <path fill="#FFE2B7" d="M385.582 55.164c.103-1.214-.796-2.28-2.01-2.386-1.214-.103-2.281.796-2.385 2.01-.105 1.214.796 2.281 2.01 2.385 1.214.104 2.28-.795 2.385-2.009" mask="url(#prefix__f)"/>
            <path fill="#57575E" d="M368.246 44.574c-.894 1.95.926 4.793 2.6 6.264 4.125 3.626 11.758 2.785 12.979-.066.87-2.035-1.502-5.143-3.701-6.67-4.088-2.834-10.61-2.295-11.878.472" mask="url(#prefix__f)"/>
            <path fill="#FDC854" d="M387.181 346.646h80.005c1.02 0 1.845.826 1.845 1.845v8.342c0 1.018-.826 1.844-1.845 1.844h-80.005c-1.019 0-1.845-.826-1.845-1.844v-8.342c0-1.02.826-1.845 1.845-1.845" mask="url(#prefix__f)"/>
            <path fill="#F89F4F" d="M387.625 358.677h79.118c1.264 0 2.288-1.024 2.288-2.289v-1.372h-83.695v1.372c0 1.265 1.025 2.289 2.289 2.289" mask="url(#prefix__f)"/>
            <path fill="#FDC854" d="M387.181 334.615h80.005c1.02 0 1.845.825 1.845 1.844v8.342c0 1.019-.826 1.845-1.845 1.845h-80.005c-1.019 0-1.845-.827-1.845-1.845v-8.341c0-1.02.826-1.845 1.845-1.845" mask="url(#prefix__f)"/>
            <path fill="#F89F4F" d="M387.625 346.646h79.118c1.264 0 2.288-1.024 2.288-2.288v-1.373h-83.695v1.373c0 1.264 1.025 2.288 2.289 2.288" mask="url(#prefix__f)"/>
            <path fill="#FDC854" d="M387.181 322.583h80.005c1.02 0 1.845.826 1.845 1.846v8.341c0 1.018-.826 1.844-1.845 1.844h-80.005c-1.019 0-1.845-.826-1.845-1.844v-8.34c0-1.02.826-1.847 1.845-1.847" mask="url(#prefix__f)"/>
            <path fill="#F89F4F" d="M387.625 334.615h79.118c1.264 0 2.288-1.024 2.288-2.288v-1.373h-83.695v1.373c0 1.264 1.025 2.288 2.289 2.288" mask="url(#prefix__f)"/>
            <path fill="#FDC854" d="M382.473 310.552h80.005c1.02 0 1.845.826 1.845 1.846v8.341c0 1.018-.826 1.844-1.845 1.844h-80.005c-1.019 0-1.845-.826-1.845-1.844v-8.341c0-1.02.826-1.846 1.845-1.846" mask="url(#prefix__f)"/>
            <path fill="#F89F4F" d="M382.917 322.583h79.118c1.264 0 2.288-1.024 2.288-2.288v-1.373h-83.695v1.373c0 1.264 1.025 2.288 2.289 2.288" mask="url(#prefix__f)"/>
            <path fill="#FDC854" d="M387.181 299.044h80.005c1.02 0 1.845.826 1.845 1.845v8.342c0 1.018-.826 1.844-1.845 1.844h-80.005c-1.019 0-1.845-.826-1.845-1.844v-8.342c0-1.019.826-1.845 1.845-1.845" mask="url(#prefix__f)"/>
            <path fill="#F89F4F" d="M387.625 311.075h79.118c1.264 0 2.288-1.024 2.288-2.288v-1.373h-83.695v1.373c0 1.264 1.025 2.288 2.289 2.288" mask="url(#prefix__f)"/>
            <path fill="#FDC854" d="M384.042 287.013h80.005c1.02 0 1.845.826 1.845 1.845v8.342c0 1.018-.826 1.844-1.845 1.844h-80.005c-1.019 0-1.845-.826-1.845-1.844v-8.342c0-1.019.826-1.845 1.845-1.845" mask="url(#prefix__f)"/>
            <path fill="#F89F4F" d="M384.486 299.044h79.118c1.264 0 2.288-1.024 2.288-2.289v-1.372h-83.695v1.372c0 1.265 1.025 2.29 2.29 2.29" mask="url(#prefix__f)"/>
            <path fill="#FDC854" d="M382.473 274.982h80.005c1.02 0 1.845.826 1.845 1.845v8.342c0 1.018-.826 1.844-1.845 1.844h-80.005c-1.019 0-1.845-.826-1.845-1.844v-8.342c0-1.02.826-1.845 1.845-1.845" mask="url(#prefix__f)"/>
            <path fill="#F89F4F" d="M382.917 287.013h79.118c1.264 0 2.288-1.024 2.288-2.288v-1.373h-83.695v1.373c0 1.264 1.025 2.288 2.289 2.288" mask="url(#prefix__f)"/>
            <path fill="#FDC854" d="M385.612 262.95h80.005c1.019 0 1.845.827 1.845 1.846v8.341c0 1.019-.826 1.844-1.845 1.844h-80.005c-1.02 0-1.845-.825-1.845-1.844v-8.34c0-1.02.826-1.847 1.845-1.847" mask="url(#prefix__f)"/>
            <path fill="#F89F4F" d="M386.056 274.982h79.118c1.264 0 2.288-1.024 2.288-2.288v-1.373h-83.695v1.373c0 1.264 1.025 2.288 2.289 2.288" mask="url(#prefix__f)"/>
            <path fill="#FDC854" d="M387.181 250.92h80.005c1.02 0 1.845.825 1.845 1.845v8.341c0 1.018-.826 1.844-1.845 1.844h-80.005c-1.019 0-1.845-.826-1.845-1.844v-8.34c0-1.02.826-1.847 1.845-1.847" mask="url(#prefix__f)"/>
            <path fill="#F89F4F" d="M387.625 262.95h79.118c1.264 0 2.288-1.024 2.288-2.287v-1.374h-83.695v1.374c0 1.263 1.025 2.287 2.289 2.287" mask="url(#prefix__f)"/>
            <path fill="#FDC854" d="M510.867 316.872c-.063-23.105-18.846-41.784-41.952-41.72-23.105.064-41.784 18.846-41.72 41.951.064 23.106 18.846 41.785 41.952 41.721 23.105-.064 41.784-18.847 41.72-41.952" mask="url(#prefix__f)"/>
            <path fill="#F89F4F" d="M502.5 316.896c-.051-18.484-15.077-33.428-33.562-33.377-18.484.052-33.427 15.077-33.376 33.562.051 18.484 15.078 33.427 33.562 33.377 18.484-.052 33.427-15.078 33.376-33.562" mask="url(#prefix__f)"/>
            <path fill="#FDC854" d="M478.243 301.06c1.017-.001 1.84-1.021 1.84-2.277-.002-1.255-.83-2.274-1.846-2.273l-11.057.016-7.372.01c-1.018.002-1.842 1.022-1.84 2.278.002 1.256.829 2.273 1.846 2.272l7.37-.01c2.4-.003 4.43 1.9 5.197 4.543l-12.561.017c-1.017 0-1.841 1.022-1.84 2.278.002 1.255.829 2.273 1.846 2.272l12.562-.018c-.76 2.645-2.784 4.554-5.184 4.558l-7.371.01c-.24 0-.48.059-.704.174-.45.232-.81.674-.997 1.234-.187.556-.186 1.184.002 1.738.093.283.23.533.403.74l14.765 18.176c.36.446.834.668 1.305.667.472 0 .944-.223 1.304-.666.718-.887.716-2.33-.004-3.217l-11.62-14.302 2.924-.004c4.452-.006 8.166-3.924 9.013-9.112l2.032-.003c1.017-.001 1.84-1.022 1.839-2.278-.001-1.256-.83-2.274-1.846-2.272l-2.031.003c-.278-1.693-.892-3.221-1.71-4.548l3.735-.005z" mask="url(#prefix__f)"/>
            <path fill="#306B34" d="M109.762 208.728s26.542 8.917 22.932 39.518c-3.613 30.6 1.59 67.888 1.59 67.888h-15.132s-26.953-36.336-7.093-63.561c19.861-27.228-2.297-43.845-2.297-43.845" mask="url(#prefix__f)"/>
            <path fill="#A4B751" d="M111.864 210.634c4.83 3.987 18.88 18.476 3.738 42.461-17.99 28.496 11.338 62.944 11.338 62.944l7.264-.489.078.584h-15.13s-26.953-36.336-7.093-63.562c15.94-21.852 4.82-36.861-.195-41.938" mask="url(#prefix__f)"/>
            <path fill="#4900BC" d="M110.832 209.64c-.654-.597-1.07-.912-1.07-.912s2.386.808 5.624 2.75c-2.136-1.036-3.794-1.604-4.553-1.838" mask="url(#prefix__f)"/>
            <path fill="#619440" d="M138.81 282.291c-1.419-27.156-.323-30.55 10.233-39.518 10.557-8.967 25.433-23.71 25.433-23.71-10.132 20.063-9.93 29.182-11.836 43.942-1.479 11.45-18.679 34.304-26.32 43.981 1.69-3.924 3.194-11.212 2.49-24.695" mask="url(#prefix__f)"/>
        </g>
        <g transform="translate(132 306.504)">
            <mask id="prefix__i" fill="#fff">
                <use xlink:href="#prefix__g"/>
            </mask>
            <path fill="url(#prefix__h)" d="M.694 5.488s1.909-.52 3.625-4.502C2.11 3.785.694 5.488.694 5.488" mask="url(#prefix__i)"/>
        </g>
        <g transform="translate(0 .504)">
            <path fill="#306B34" d="M143.943 269.66c5.269 22.561-5.936 37.721-5.936 37.721H126.96c.038-7.776-.52-15.234-4.182-22.776-.194-.398-.425-.767-.673-1.12 1.558-.729 3.29-1.467 5.219-2.207 20.4-7.836 11.349-34.18 16.618-11.619"/>
            <path fill="#619440" d="M115.302 275.334c11.214 5.674 7.97 29.993 7.97 29.993l-10.537 3.781s1.892-11.077-5.27-19.723c-7.16-8.647-11.888-5.332-11.888-5.332s8.512-14.394 19.725-8.719M169.072 263.85c18.828 0 29.358 11.348 29.358 11.348s-7.329-3.724-20.44-3.242c-13.112.482-12.16 11.62-22.699 22.022-10.538 10.402-19.32 11.889-19.32 11.889s13.958-20.187 24.184-33.911c1.8-2.416.046-8.106 8.917-8.106"/>
            <path fill="#FAF9FC" d="M202.078 279.075c.078.2.095.312.095.312s-.03-.113-.095-.313"/>
            <path fill="#A4B751" d="M153.805 276.009c3.513-4.729-.135-16.347 22.292-13.645 20.484 2.467 25.3 14.622 25.981 16.71-.518-1.348-3.795-6.838-23.549-11.306-22.697-5.134-10.673 6.621-20.94 14.052-10.269 7.43-18.645 21.344-18.645 21.344s-5.81 9.728-4.458 1.622c1.352-8.105 15.807-24.048 19.32-28.777M84.228 286.142c10.268-20.941 22.684-19.577 30.939-14.996 11.713 6.5 9.79 33.64 9.79 33.64l-1.684.542s-.27-5.27-1.167-14.322c-.896-9.051-5.316-21.903-19.64-4.053-14.322 17.849-34.585 21.059-34.585 21.059s6.079-.93 16.347-21.87"/>
            <path fill="#A4B751" d="M111.377 260.072c3.227-2.367 6.501-1.962 9.031-.909 3.194 1.33 6.793.892 9.743-.89 10.798-6.534 11.624 2.448 11.624 2.448l-.29 2.431c-.017.018-.017.05-.017.082-.778 4.507-3.308 13.877-14.137 18.045-1.929.745-18.92 8.106-18.92 8.106 2.302-9.323-3.648-24.448 2.966-29.313"/>
            <path fill="#57575E" d="M139.783 359.097h-18.024c-6.625 0-11.997-5.37-11.997-11.995v-44.073h42.017v44.073c0 6.625-5.371 11.995-11.996 11.995"/>
            <mask id="prefix__k" fill="#fff">
                <use xlink:href="#prefix__j"/>
            </mask>
            <path fill="#7F786A" d="M105.666 309.109L155.876 309.109 155.876 303.029 105.666 303.029z" mask="url(#prefix__k)"/>
        </g>
    </g>
</svg>
