<svg xmlns="http://www.w3.org/2000/svg" width="630" height="480" viewBox="0 0 630 480">
    <defs>
        <linearGradient id="prefix__a" x1="-29.605%" x2="95.851%" y1="101.707%" y2="17.018%">
            <stop offset="0%" stop-color="#FFB218"/>
            <stop offset="100%" stop-color="#FFCF44"/>
        </linearGradient>
    </defs>
    <g fill="none" fill-rule="evenodd">
        <g>
            <path fill="#FFF4DD" d="M538.988 132.271c-4.72-38.29-29.447-74.266-61.688-101.836-13.14-11.234-27.986-21.581-45.575-26.772-17.59-5.19-38.397-4.495-53.349 4.955-11.14 7.043-17.908 18.002-27.948 26.159-20.778 16.88-52.695 19.482-81.024 15.514-28.328-3.969-55.285-13.457-83.62-17.392-28.334-3.935-60.26-1.255-80.955 15.698-24.115 19.752-25.583 52.224-19.728 80.286 1.982 9.505 4.581 19.47.963 28.619-5.45 13.781-22.67 20.882-36.537 29.36-34.621 21.164-53.73 59.36-47.677 95.298 6.656 39.503 41.364 72.726 83.06 90.902 41.696 18.177 89.646 23.158 136.482 23.374 19.96.092 39.963-.63 59.717-3.068 57.369-7.081 111.359-28.567 158.92-56.805 26.563-15.772 51.618-33.921 70.58-56.282 35.672-42.062 44.507-98.183 28.379-148.01" transform="translate(45 13) translate(0 50)"/>
            <path fill="#F7E8C8" d="M521.069 398c0 10.493-112.615 19-251.534 19C130.616 417 18 408.493 18 398s112.616-19 251.535-19c138.919 0 251.534 8.507 251.534 19" transform="translate(45 13) translate(0 50)"/>
            <path fill="#619440" d="M484.401 154.809c-.505-13.912 8.831-27.322 5.711-41.04-2-8.792-9.312-14.008-17.62-11.19-10.534 3.574-14.866 14.587-18.559 24.709-2.624 7.196-5.486 13.71-10.978 18.943-4.713 4.49-10.272 7.78-15.335 11.756-8.908 6.994-13.797 15.614-16.418 27.037-2.906 12.67-3.28 27.696-13.403 36.723-8.264 7.37-20.729 9.78-25.586 21.155-5.292 12.395 2.982 31.149-9.307 39.645-5.192 3.589-10.957 5.03-15.64 9.624-3.624 3.553-6.47 7.97-8.452 12.777-4.292 10.408-4.356 22.378.617 32.294.215.427.523.696.865.848 3.73 10.465 8.267 21.212 16.78 27.957 7.533 5.97 17.781 8.366 26.436 3.22 14.733-8.756 16.606-30.23 27.16-42.955 3.76-4.53 8.27-6.946 13.89-7.335 6.15-.425 12.254 1.479 18.32-.603 8.871-3.045 13.705-12.191 15.972-21.355 3.437-13.893.037-29.226 6.143-42.461 5.472-11.864 17.4-18.26 23.315-29.842 11.334-22.197-3.088-47.184-3.91-69.907" transform="translate(45 13) translate(0 50)"/>
            <path fill="#496B32" d="M469.407 130.595c-2.15 16.683-9.911 31.928-17.08 46.91-7.075 14.787-14.174 29.563-21.492 44.23-7.306 14.638-14.83 29.171-22.767 43.48-7.918 14.273-16.248 28.322-25.176 41.988-8.843 13.538-18.273 26.705-28.454 39.273-1.255 1.548-2.521 3.089-3.8 4.62-1.022 1.228.738 3.005 1.769 1.769 10.439-12.526 20.137-25.656 29.207-39.202 9.114-13.612 17.604-27.636 25.654-41.9 8.148-14.435 15.847-29.121 23.299-43.926 7.439-14.778 14.63-29.68 21.778-44.599 7.168-14.964 15.188-30.036 18.542-46.425.42-2.06.75-4.133 1.02-6.218.205-1.59-2.297-1.576-2.5 0" transform="translate(45 13) translate(0 50)"/>
            <path fill="#496B32" d="M374.235 322.876c.054-15.756-.179-31.512-.699-47.26-.053-1.604-2.553-1.611-2.5 0 .52 15.748.753 31.504.699 47.26-.006 1.609 2.494 1.61 2.5 0M391.062 300.015c4.371-1.568 8.97-1.533 13.551-1.619 4.87-.092 9.735-.374 14.582-.85 4.807-.472 9.6-1.127 14.357-1.967 4.447-.784 8.835-1.807 12.866-3.906 1.428-.743.165-2.9-1.26-2.158-4.12 2.144-8.695 3.046-13.234 3.821-4.702.802-9.434 1.418-14.185 1.847-4.667.421-9.346.652-14.03.728-4.492.073-9.037.16-13.312 1.693-1.503.54-.855 2.956.665 2.411M413.082 260.869c1.23-3.813 1.435-7.828 1.413-11.806-.022-4.212-.107-8.422-.081-12.634.056-8.677.364-17.353.925-26.012.32-4.951.725-9.896 1.208-14.834.156-1.6-2.345-1.59-2.5 0-1.662 17.012-2.343 34.1-2.08 51.192.07 4.523.109 9.077-1.295 13.429-.495 1.535 1.918 2.192 2.41.665M432.345 223.62c15.76-1.52 31.088-5.944 45.295-12.922 1.443-.709.178-2.867-1.262-2.159-13.785 6.771-28.739 11.106-44.033 12.581-1.587.153-1.604 2.654 0 2.5M453.76 179.77c-2.815-9.917-3.686-20.263-2.675-30.519.156-1.6-2.344-1.589-2.5 0-1.031 10.461-.106 21.07 2.764 31.184.438 1.545 2.85.888 2.41-.665" transform="translate(45 13) translate(0 50)"/>
            <path fill="#306B34" d="M428.094 214.382c-12.277-8.213-41.73 15.35-56.69 42.808l12.724-42.965c4.914-5.008 13.566-12.13 27.236-18.18 21.257-9.41 42.427-23.478 30.126-31.705-11.526-7.71-38.192 12.586-53.789 37.82l16.34-55.175c3.254-2.953 8.232-6.595 15.405-9.769 13.397-5.93 26.74-14.796 18.987-19.98-6.728-4.5-21.637 6.135-31.61 20.361l5.294-17.882c2.508-5.249 6.074-12.749 11.836-19.728 13.351-16.169 23.28-34.077 12.56-35.999-10.73-1.924-27.28 29.23-29.226 56.657l-2.725 9.202c1.74-19.968-5.576-43.62-14.822-43.96-9.187-.339-2.984 14.9 4.851 27.753 5.964 9.784 7.764 17.71 8.305 21.832l-12.87 43.464c2.671-31.627-8.913-68.948-23.542-69.486-14.578-.537-4.736 23.643 7.696 44.038 9.394 15.412 12.28 27.924 13.162 34.506l-15.436 52.12c2.092-31.222-9.31-68.344-23.677-67.672-11.076.52-7.192 17.197 6.732 40.274 9.464 15.684 12.764 30.054 13.908 37.654l-7.27 24.551c1.366.946 2.772 1.402 4.153 1.354l2.893-9.769c4.346-4.927 13.453-13.396 29.322-20.419 21.258-9.41 42.428-23.478 30.127-31.705" transform="translate(45 13) translate(0 50)"/>
        </g>
        <path fill="url(#prefix__a)" d="M117.179 41.869c.453 11.798-1.756 19.687-3.24 23.573L82.477 96.196c17.199-26.061 24.961-64.92 12.773-73.436-12.144-8.487-15.186 17.976-14.239 42.569.717 18.583-2.734 31.062-5.09 37.277l-37.727 36.878c16.515-26.027 24.336-64.614 11.8-71.933-9.665-5.642-14.234 11.014-13.282 38.762.648 18.857-3.328 33.183-5.941 40.428L13 164.113c.716 1.575 1.696 2.746 2.894 3.463l7.071-6.912c6.021-1.897 17.764-4.26 34.575-1.645 22.522 3.504 47.166 2.904 40.588-11.024-6.567-13.904-42.739-9.596-68.42 6.077l31.099-30.401c6.543-1.655 17.263-3.096 31.745-.843 22.521 3.503 47.166 2.903 40.587-11.024-6.165-13.054-38.423-10.055-63.598 3.331l39.936-39.041c4.163-.78 10.115-1.212 17.713-.029 14.193 2.207 29.726 1.829 25.58-6.949-3.598-7.618-21.298-6.561-36.497.335l12.945-12.653c4.61-3.188 11.183-7.756 19.377-10.66 18.986-6.731 35.882-16.858 27.672-24.428-8.217-7.578-36.999 10.436-51.597 33.242l-6.661 6.51c10.904-16.425 15.845-41.038 8.142-46.421-.997-.697-1.898-1.02-2.708-1.02-5.403 0-6.784 14.37-6.264 27.848" transform="translate(45 13) rotate(10 -1322.435 1982.812)"/>
        <path fill="#619440" d="M45.953 272.865c.36-9.976-6.333-19.591-4.096-29.428 1.434-6.305 6.678-10.046 12.636-8.025 7.553 2.563 10.66 10.46 13.308 17.72 1.88 5.159 3.934 9.83 7.872 13.582 3.379 3.22 7.365 5.58 10.996 8.43 6.388 5.015 9.894 11.197 11.773 19.389 2.084 9.084 2.352 19.858 9.61 26.332 5.927 5.286 14.865 7.014 18.348 15.17 3.795 8.888-2.138 22.337 6.674 28.428 3.723 2.573 7.857 3.607 11.216 6.901 2.598 2.549 4.639 5.716 6.059 9.163 3.079 7.464 3.125 16.047-.442 23.158-.153.305-.375.498-.62.608-2.674 7.503-5.93 15.21-12.031 20.046-5.404 4.281-12.752 6-18.958 2.31-10.565-6.28-11.907-21.678-19.477-30.803-2.694-3.248-5.93-4.98-9.96-5.259-4.41-.305-8.787 1.06-13.137-.433-6.36-2.183-9.827-8.743-11.453-15.313-2.464-9.962-.026-20.957-4.404-30.447-3.924-8.507-12.477-13.094-16.72-21.4-8.127-15.917 2.215-33.835 2.806-50.129" transform="translate(45 13)"/>
        <path fill="#496B32" d="M54.558 255.503c1.568 12.052 6.932 22.996 12.117 33.836 5.12 10.703 10.253 21.4 15.545 32.019 10.591 21.25 21.821 42.237 34.832 62.12 7.18 10.97 14.906 21.585 23.3 31.659 1.031 1.238 2.791-.54 1.768-1.768-14.933-17.924-27.645-37.58-39.092-57.876-11.498-20.388-21.75-41.445-31.862-62.545-5.729-11.954-12.374-24.116-14.108-37.445-.205-1.573-2.708-1.594-2.5 0" transform="translate(45 13)"/>
        <path fill="#496B32" d="M127.096 393.383c-.038-11.298.13-22.596.501-33.89.053-1.608-2.447-1.606-2.5 0-.372 11.294-.539 22.592-.5 33.89.005 1.608 2.505 1.61 2.5 0M99.164 348.348c-1.138-3.575-.941-7.316-.896-11.02.047-3.888.024-7.78-.071-11.667-.191-7.868-.678-15.725-1.441-23.558-.155-1.586-2.656-1.602-2.5 0 .779 7.998 1.27 16.02 1.453 24.055.09 3.97.106 7.944.049 11.916-.053 3.677-.132 7.394.995 10.939.485 1.527 2.9.875 2.41-.665M83.28 320.062c-10.906-1.06-21.562-4.15-31.396-8.973-1.439-.706-2.708 1.45-1.262 2.16 10.257 5.028 21.286 8.208 32.658 9.313 1.601.155 1.59-2.346 0-2.5M69.995 291.335c2.063-7.286 2.732-14.92 1.994-22.455-.155-1.587-2.656-1.603-2.5 0 .719 7.33.103 14.701-1.905 21.79-.44 1.551 1.973 2.213 2.41.665" transform="translate(45 13)"/>
        <path fill="#306B34" d="M78.337 421.738c5.17-9.245 31.66-3.779 50.156 8.895l-22.117-23.308c-4.77-1.6-12.616-3.334-23.32-2.75-16.645.909-34.75-1.188-29.57-10.449 4.854-8.68 28.499-4.391 46.68 6.653l-28.402-29.933c-3.04-.826-7.407-1.533-13.023-1.226-10.49.573-21.901-.749-18.637-6.586 2.834-5.064 15.823-3.123 26.827 2.72l-9.205-9.702c-3.312-2.537-8.03-6.169-13.985-8.75-13.794-5.986-25.967-14.195-19.744-18.913 6.23-4.722 26.947 9.794 37.118 26.685l4.736 4.993c-7.611-12.193-10.638-29.685-4.842-32.913 5.76-3.208 6.759 8.548 5.937 19.311-.625 8.193.805 13.843 1.8 16.654l22.375 23.58c-12.004-19.34-16.752-46.954-7.581-52.061 9.14-5.09 10.722 13.564 9.419 30.642-.984 12.906 1.244 21.84 2.825 26.332l26.83 28.275c-11.502-19.267-16.301-46.698-6.903-50.945 7.245-3.275 10.193 8.646 8.808 27.924-.94 13.1 1.63 23.357 3.373 28.585l12.639 13.32c-.567 1.049-1.316 1.798-2.214 2.217l-5.028-5.301c-4.381-1.732-12.957-4.178-25.382-3.5-16.646.908-34.751-1.188-29.57-10.449" transform="translate(45 13)"/>
        <path fill="#F0AEAE" d="M138.86 396.518l-11.568 40.697s3.513 8.562 18.956 5.777c15.442-2.786 29.314-28.38 29.314-28.38l-36.703-18.094z" transform="translate(45 13)"/>
        <path fill="#F0AEAE" d="M136.775 396.704l-7.496 26.372c-1.349 4.744-6.229 12.97-2.302 17.232 7.633 8.287 22.481 4.73 30.395-1.064 8.415-6.16 15.166-15.353 20.15-24.452.244-.445.137-1.076-.353-1.317l-36.704-18.095c-1.483-.73-5.162 1.313-3.212 2.274l30.001 14.791c1.926.95 4.001 1.78 5.846 2.882 1.17.697.44.317.462-.823-.007.315-.739 1.437-.929 1.616-2.246 2.13-3.853 6.103-5.714 8.603-2.627 3.53-5.495 6.937-8.738 9.92-4.645 4.272-9.749 7.241-16.212 7.467-3.718.132-9.73-.617-11.895-4.36-1.165-2.012.81-6.024 1.64-8.949l9.23-32.47c.516-1.817-3.69-1.31-4.169.373M105.738 250.872c-1.406 2.425-21.137-39.085-1.362-63.018 0 0 32.008-2.69 48.246 35.027 0 0-32.594 3.336-46.884 27.99" transform="translate(45 13)"/>
        <path fill="#FFBFBF" d="M409.27 304.612c0 77.668-71.063 140.63-158.72 140.63S91.832 382.28 91.832 304.612c0-77.668 71.061-140.63 158.718-140.63 87.657 0 158.72 62.962 158.72 140.63" transform="translate(45 13)"/>
        <path fill="#FFD0D0" d="M141.458 304.612c0 16.438-14.417 29.763-32.201 29.763s-32.2-13.325-32.2-29.763c0-16.438 14.416-29.764 32.2-29.764 17.784 0 32.2 13.326 32.2 29.764" transform="translate(45 13)"/>
        <path fill="#9D95AD" d="M181.263 270.681c-.56 4.418-4.082 7.613-7.868 7.134-3.786-.479-6.403-4.45-5.844-8.869.56-4.418 4.082-7.612 7.868-7.133 3.786.479 6.403 4.449 5.844 8.868" transform="translate(45 13)"/>
        <path fill="#FFD0D0" d="M211.981 236.6c-2.767-.446 22.753-26.598 52.176-16.693 0 0 13.962 28.928-15.452 57.584 0 0-8.587-36.367-36.724-40.892" transform="translate(45 13)"/>
        <path fill="#FFD0D0" d="M213.629 235.615c.344.171 4.066-4.011 4.84-4.667 3.813-3.229 8.184-5.905 12.737-7.949 6.219-2.791 13.004-4.375 19.84-4.164 3.267.102 9.578.1 11.502 2.703 3.254 4.401 3.073 13.955 2.753 18.948-.921 14.333-8.306 26.67-18.245 36.687l3.715-.235c-4.521-18.739-17.632-37.736-37.52-41.439-1.283-.239-4.851 1.771-2.54 2.201 19.154 3.567 31.6 22.397 35.93 40.344.312 1.297 3.142.342 3.716-.235 11.267-11.355 19.418-25.475 19.172-41.861-.07-4.69-.754-9.448-2.267-13.901-1.078-3.175-1.283-3.215-4.97-4.153-13.251-3.371-27.301-.147-38.928 6.664-1.298.761-16.575 11.26-13.03 13.026 1.174.585 4.968-1.136 3.295-1.969M202.068 418.09l6.552 37.336s9.164 7.294 18.708 2.854c14.227-6.617 16.016-38.247 16.016-38.247s-6.186 3.74-21.529 2.627c-14.157-1.026-19.747-4.57-19.747-4.57" transform="translate(45 13)"/>
        <path fill="#FFD0D0" d="M200.003 418.644l4.479 25.523c.557 3.172.46 8.679 2.026 11.543 1.43 2.618 5.736 4.038 8.42 4.787 22.79 6.364 29.524-24.228 30.516-40.597.092-1.532-2.028-1.75-3.037-1.173-5.548 3.17-13.855 2.77-19.898 2.352-6.057-.418-13.518-.996-18.861-4.227-1.652-1-5.206 1.24-3.16 2.477 6.618 4 15.788 4.734 23.246 5.059 6.422.279 14.71.29 20.549-3.05-1.012-.39-2.024-.78-3.037-1.172-.402 6.655-1.593 13.435-3.564 19.795-1.497 4.833-3.5 9.967-6.987 13.732-4.338 4.686-15.946 6.555-20.337.617.535.723-.511-4.213-.697-5.27l-2.13-12.135-3.398-19.368c-.355-2.022-4.493-.964-4.13 1.107M321.43 414.31l18.93 30.008s10.525 3.062 17.215-4.171c9.97-10.782.291-38.808.291-38.808s-4.03 5.434-17.712 9.918c-12.624 4.138-18.724 3.054-18.724 3.054" transform="translate(45 13)"/>
        <path fill="#FFD0D0" d="M319.839 415.523l12.939 20.512c1.61 2.55 3.48 7.353 5.853 9.277 2.169 1.76 6.4 1.46 8.99 1.156 21.996-2.579 16.968-31.463 12.016-45.99-.465-1.36-2.378-.795-3.047.063-3.678 4.715-11.016 7.317-16.397 9.101-5.393 1.788-12.06 3.936-17.833 3.035-1.786-.278-4.07 2.922-1.857 3.267 7.15 1.115 15.353-1.505 21.927-3.872 5.66-2.038 12.84-4.97 16.713-9.936l-3.047.063c2.014 5.906 3.389 12.2 3.94 18.407.42 4.717.508 9.874-1.174 14.373-2.093 5.597-11.483 11.337-17.393 7.753.72.437-1.94-3.466-2.475-4.315-2.051-3.25-4.101-6.502-6.151-9.753l-9.82-15.566c-1.025-1.625-4.234.761-3.184 2.425" transform="translate(45 13)"/>
        <path fill="#FFBFBF" d="M133.257 304.612c0 16.438-13.325 29.763-29.764 29.763-16.436 0-29.762-13.325-29.762-29.763 0-16.438 13.326-29.764 29.763-29.764 16.439 0 29.763 13.326 29.763 29.764" transform="translate(45 13)"/>
        <path fill="#9D95AD" d="M91.303 308.978c-1.187-.006-2.144-.974-2.137-2.161l.052-9.09c.008-1.185.976-2.142 2.162-2.135 1.187.007 2.143.974 2.136 2.16l-.052 9.09c-.007 1.186-.974 2.143-2.16 2.136M110.88 310.746c-1.186-.007-2.143-.975-2.136-2.161l.053-9.09c.007-1.186.974-2.142 2.16-2.135 1.188.007 2.144.974 2.137 2.16l-.052 9.09c-.007 1.186-.974 2.143-2.161 2.136" transform="translate(45 13)"/>
        <path fill="#F0AEAE" d="M144.332 222.073s9.052-2.894 15.895 1.688c0 0 59.714-51.48 130.837-38.097l-23.595-10.502s-72.877-11.18-123.137 46.911" transform="translate(45 13)"/>
        <path fill="#7F786A" d="M353.148 206.243c.906-1.676-4.77-8.346-7.104-9.793.644.793 1.5 2.345.252 2.692-1.825.507-5.004-1.264-5.849-3.243-.622 1.319-1.007 3.209-1.189 4.517-.235 1.688 11.764 9.757 13.89 5.827" transform="translate(45 13)"/>
        <path fill="#FFE2B7" d="M348.006 200.992c1.247-.347-.987-3.434-1.632-4.227-1.75-1.692-2.27-1.899-2.53-2.126-.681-.593-.741-1.652-.741-1.652l-1.261-.383s.189 1.168-.794 2.317c-.221.258-.42.595-.601.978.845 1.979 5.734 5.6 7.559 5.093" transform="translate(45 13)"/>
        <path fill="#FFCB48" d="M210.802 32.552s11.138-20.533-6.388-20.29c0 0-4.7-14.358-17.85-11.111 0 0-8.163 2.746-4.459 12.24 0 0-7.576 3.503-1.888 12.018 0 0-11.743-5.008-16.973 7.457-5.229 12.466 8.132 22.427 8.132 22.427s-7.663 1.993-3.634 12.566c4.03 10.573 15.148 6.206 15.148 6.206l27.912-41.513z" transform="translate(45 13)"/>
        <path fill="#7F786A" d="M243.284 60.487c.14.39 12.158 5.715 21.314 14.976 12.385 12.525 77.61 100.468 79.657 118.181.276 2.39-4.361 1.747-6.075-.679-.86-1.213-24.357-27.63-43.49-45.857-24.001-22.862-52.672-47.01-52.672-47.01l-5.356 41.595s-17.957 19.87-21.666.791c-3.88-19.947-3.282-62.962-1.643-67.942 5.068-2.498 21.453-12.607 29.93-14.055" transform="translate(45 13)"/>
        <path fill="#F5EFE4" d="M199.673 38.59c-5.56-4.88-15.304 9.002-17.2 31.922 0 0-29.79 4.637-32.9 10.274-.236.427-.3.918-.21 1.396.62 3.29 1.708 12.257 15.09 9.056 15.438-3.692 26.881-14.199 26.881-14.199s7.615-32.408 8.34-38.45" transform="translate(45 13)"/>
        <path fill="#F5EFE4" d="M218.937 26.562c-1.574-.568-5.302.92-7.894 2.238-6.089 3.098-18.059 8.963-21.989 16.205 0 0 8.535 19.457 28.561 27.246l25.67-11.764s-8.08-28.05-24.348-33.925" transform="translate(45 13)"/>
        <path fill="#FFE2B7" d="M198.76 24.463s5.628 7.672 5.732 8.834c.105 1.163-.766 3.273-2.86 1.75-2.095-1.522-5.325-9.188-5.325-9.188l2.452-1.396z" transform="translate(45 13)"/>
        <path fill="#FFC581" d="M197.19 21.705s5.63 7.672 5.733 8.835c.104 1.163-.766 3.272-2.86 1.75-2.096-1.523-5.326-9.19-5.326-9.19l2.453-1.395z" transform="translate(45 13)"/>
        <path fill="#FFE2B7" d="M189.06 27.93c-.317-.781-.084-3.65.186-6.045.223-1.986 2.043-3.391 4.024-3.119 3.067.424 6.437 1.074 7.306 1.754 1.362 1.068 1.225 3.147 1.157 4.696-.068 1.545-.743 4.288-1.777 5.509-.945 1.116-3.506 1.972-4.91 1.836-4.217-.41-5.334-1.595-5.986-4.631" transform="translate(45 13)"/>
        <path fill="#A29C8F" d="M342.337 195.14c-1.404-.053-3.22-.847-4.157-2.175-.86-1.213-24.357-27.631-43.49-45.857-24-22.862-52.671-47.011-52.671-47.011l-5.357 41.596s-17.957 19.869-21.666.79c-3.88-19.946-3.282-62.961-1.642-67.941 1.674-.825 4.586-2.483 8.038-4.383 3.67-2.02 45.159 33.194 75.94 66.455 27.897 30.14 45.558 58.548 45.005 58.527" transform="translate(45 13)"/>
        <path fill="#FFE09C" d="M213.695 24.967c.317-1.573.497-3.177.421-4.761-.08-1.576-.474-3.154-1.358-4.413-.868-1.277-2.251-2.082-3.709-2.54-1.486-.441-3.064-.51-4.627-.508-.209 0-.389-.13-.459-.315l-.006-.017c-.659-1.736-1.615-3.424-2.719-4.936-1.12-1.51-2.419-2.884-3.939-3.94-1.5-1.094-3.269-1.748-5.075-2.021-1.814-.351-3.68-.044-5.494.307l.055-.017c-.985.394-2.012 1.044-2.792 1.83-.799.785-1.447 1.724-1.784 2.788-.328 1.062-.456 2.199-.327 3.344.033.57.202 1.138.293 1.709l.537 1.677.004.013c.102.322-.046.664-.338.814-.896.464-1.81 1.184-2.443 2.025-.65.846-1.065 1.844-1.191 2.898-.087 1.06.083 2.143.414 3.198.18.523.424 1.032.64 1.548l.844 1.475.012.022c.142.246.056.56-.189.7-.142.08-.307.087-.448.03-1.51-.608-3.218-.96-4.887-1.033-1.682-.073-3.372.205-4.934.825-1.543.639-3.017 1.582-4.123 2.893-.64.58-1.038 1.359-1.572 2.035-.457.729-.832 1.51-1.256 2.269.363-.784.681-1.598 1.089-2.368.486-.72.861-1.531 1.477-2.163 1.061-1.407 2.535-2.484 4.134-3.251 1.612-.77 3.422-1.09 5.202-1.083 1.791.025 3.543.31 5.271.938l-.624.753-.953-1.541c-.258-.552-.541-1.097-.759-1.67-.418-1.161-.659-2.42-.554-3.703.134-1.28.637-2.52 1.403-3.536.778-1.027 1.73-1.82 2.902-2.442l-.333.827-.604-1.816c-.114-.635-.302-1.255-.35-1.906-.159-1.292-.038-2.638.35-3.917.393-1.285 1.164-2.436 2.1-3.371.967-.93 2.053-1.623 3.347-2.122l.055-.016c1.971-.366 4.013-.67 6.031-.266 2.002.323 3.964 1.086 5.588 2.296 1.64 1.182 3.046 2.652 4.168 4.296 1.118 1.654 2.035 3.398 2.688 5.308l-.465-.332c1.639.052 3.296.179 4.887.71 1.567.536 3.089 1.509 3.955 2.974.891 1.436 1.195 3.118 1.19 4.733-.001 1.628-.312 3.225-.745 4.769" transform="translate(45 13)"/>
        <path fill="#FFE2B7" d="M238.084 116.177c10.416 28.15-.964 57.952-22.547 71.64-4.706 2.985-17.641 7.812-21.434 9.215-30.343 11.228-53.996-8.025-65.9-40.195-11.903-32.17-6.406-63.854 23.937-75.082 4.13-1.529 17.964-4.825 22.174-5.34 26.708-3.272 53.487 11.973 63.77 39.762" transform="translate(45 13)"/>
        <path fill="#FFCB48" d="M214.776 106.608c.264.715 1.043 1.086 1.74.828l14.308-5.295c-.543-.789-1.099-1.567-1.674-2.324l-13.592 5.03c-.697.258-1.047 1.046-.782 1.761M202.681 92.868c.265.716 1.043 1.087 1.74.83l13.692-5.067c-.87-.68-1.762-1.33-2.665-1.959l-11.985 4.436c-.697.257-1.047 1.046-.782 1.76M192.49 85.555c.265.714 1.044 1.084 1.74.827l12.638-4.675c-1.203-.57-2.421-1.104-3.657-1.591l-9.938 3.677c-.697.258-1.047 1.046-.783 1.761M222.095 124.385c.265.715 1.044 1.086 1.741.828l15.37-5.687c-.27-.875-.56-1.75-.872-2.621l-15.457 5.719c-.697.258-1.047 1.046-.782 1.76M226.27 139.76c.265.715 1.043 1.086 1.74.828l13.924-5.152c-.038-.958-.096-1.916-.178-2.879L227.052 138c-.697.258-1.047 1.046-.782 1.761M226.304 153.166c.265.715 1.043 1.086 1.74.828l12.88-4.766c.193-1.036.361-2.079.503-3.13l-14.34 5.306c-.698.26-1.048 1.047-.783 1.762M224.434 167.277c.265.715 1.043 1.086 1.74.828l9.766-3.614c.553-1.15 1.061-2.325 1.544-3.515l-12.269 4.54c-.696.258-1.046 1.046-.78 1.76" transform="translate(45 13)"/>
        <path fill="#FFCB48" d="M228.077 119.075c11.76 31.779-3.807 66.829-34.768 78.285-30.961 11.457-65.593-5.017-77.353-36.796-11.76-31.779 3.808-66.828 34.768-78.285 30.96-11.457 65.594 5.017 77.353 36.796" transform="translate(45 13)"/>
        <path fill="#FFE2B7" d="M178.692 108.69c1.8-.823 2.436-3.294 1.42-5.515-1.017-2.222-3.302-3.357-5.102-2.534l-19.56 8.945-13.04 5.964c-1.8.823-2.437 3.294-1.42 5.516 1.015 2.22 3.301 3.356 5.1 2.534l13.04-5.964c4.246-1.942 9.374-.21 12.862 3.85l-22.22 10.162c-1.8.824-2.436 3.294-1.42 5.516 1.015 2.222 3.3 3.357 5.1 2.534l22.221-10.162c.79 5.294-1.254 10.306-5.5 12.247l-13.04 5.964c-.424.194-.8.492-1.106.875-.607.775-.89 1.848-.77 2.99.118 1.134.625 2.245 1.407 3.075.391.424.835.756 1.31.986l40.796 20.265c1 .496 2.015.509 2.85.127.834-.381 1.488-1.157 1.77-2.23.554-2.151-.613-4.703-2.602-5.691l-32.104-15.947 5.17-2.364c7.877-3.602 11.29-13.534 8.607-23.401l3.592-1.643c1.8-.824 2.436-3.294 1.42-5.516-1.015-2.222-3.3-3.356-5.1-2.534l-3.593 1.643c-1.859-2.77-4.178-4.98-6.693-6.671l6.605-3.021z" transform="translate(45 13)"/>
        <path fill="#DEB37B" d="M150.423 82.416c-.165-.549-.7-.907-1.272-.894-1.591.038-5.004.227-6.095 1.143-1.44 1.207-1.498 5.061-.958 5.648.54.586 1.744-2.273 2.521-2.727.712-.414 6.663-.293 5.804-3.17M207.936 83.565s-5.274-1.399-7.136-1.133c-2.56.367-4.9 5.266-4.079 5.078.822-.188 2.526-1.487 2.526-1.487s-.915.273-.649 1.025c.266.751 2.331-.512 3.224-.624.893-.11 6.894 1.615 6.114-2.859" transform="translate(45 13)"/>
        <path fill="#E7E1D3" d="M218.937 26.562c-1.18-.426-3.572.304-5.788 1.253-.738.315-5.144 2.534-5.144 2.534s11.701 13.894 13.566 18.995c4.074 11.143 4.322 19.113 4.322 19.113l17.391-7.97s-8.079-28.05-24.347-33.925" transform="translate(45 13)"/>
        <path fill="#E7E1D3" d="M213.38 29.584c-.7 1.585 6.95 12.37 10.098 16.922 4.38 6.337 6.113 10.358 6.113 10.358s-28.727 22.9-25.248 26.778c3.478 3.877 11.839 5.878 18.326.769 3.24-2.554 20.903-21.845 15.352-34.172-5.184-11.507-19.696-31.867-24.641-20.655" transform="translate(45 13)"/>
        <path fill="#A29C8F" d="M215.347 26.966c-.59.44-1.04 1.033-1.392 1.667-.175.317-.334.645-.47.98-.088.286.038.658.15.986.531 1.34 1.321 2.588 2.09 3.826 1.557 2.476 3.224 4.887 4.917 7.279 1.694 2.39 3.424 4.76 5.036 7.237 1.604 2.482 3.121 4.995 4.397 7.715.1.215.037.465-.14.608l-.017.013c-2.43 1.969-4.866 3.95-7.254 5.979-2.397 2.02-4.74 4.1-7.078 6.187-2.33 2.092-4.624 4.23-6.775 6.5-1.08 1.13-2.137 2.287-3.075 3.533-.464.625-.905 1.273-1.245 1.97-.312.668-.65 1.528-.149 2.196-.556-.635-.276-1.563-.004-2.263.311-.733.723-1.413 1.16-2.071.884-1.312 1.884-2.535 2.916-3.727 2.094-2.358 4.33-4.58 6.6-6.756 2.271-2.18 4.64-4.251 7.012-6.316 2.383-2.052 4.772-4.092 7.235-6.057l-.155.62c-1.19-2.607-2.68-5.152-4.237-7.611-1.562-2.461-3.286-4.84-4.886-7.306-1.615-2.454-3.224-4.916-4.692-7.471-.709-1.291-1.436-2.578-1.915-3.998-.092-.36-.236-.734-.09-1.16.161-.334.335-.662.538-.974.402-.62.903-1.19 1.523-1.586M238.02 50.24c-2.083-3.842-4.295-7.588-6.769-11.164-1.204-1.81-2.502-3.553-3.85-5.255-1.353-1.699-2.785-3.335-4.363-4.849 1.771 1.29 3.331 2.856 4.783 4.497 1.451 1.647 2.758 3.413 4.018 5.206 1.21 1.827 2.375 3.685 3.415 5.613 1.037 1.928 1.996 3.902 2.766 5.951" transform="translate(45 13)"/>
    </g>
</svg>
