<svg xmlns="http://www.w3.org/2000/svg" xmlns:xlink="http://www.w3.org/1999/xlink" width="630" height="480" viewBox="0 0 630 480">
    <defs>
        <path id="prefix__a" d="M0.206 0.153L22.849 0.153 22.849 11.524 0.206 11.524z"/>
        <path id="prefix__c" d="M0 380L625.849 380 625.849 0.206 0 0.206z"/>
        <path id="prefix__e" d="M2.982 3.331S1.97 2.113.389.113C1.616 2.96 2.982 3.331 2.982 3.331"/>
        <path id="prefix__h" d="M0 380L625.849 380 625.849 0.206 0 0.206z"/>
        <linearGradient id="prefix__f" x1="60.096%" x2="34.724%" y1="73.917%" y2="21.612%">
            <stop offset="0%" stop-color="#DBEBFF"/>
            <stop offset="100%" stop-color="#FFF"/>
        </linearGradient>
    </defs>
    <g fill="none" fill-rule="evenodd">
        <g transform="translate(2 99) translate(0 .794)">
            <path fill="#FFF4DD" d="M513.157 368.472c56.686-64.82 58.322-98.706 48.883-117.723-9.462-19.063-28.05-19.152-39.77-43.572-14.91-31.07 6.74-48.516 1.658-87.91-7.139-55.318-60.621-87.795-64.627-90.203C449.585 23.22 411.443.28 366.966 7.962c-55.748 9.63-67.973 58.127-107.666 54.07-31.863-3.257-39.983-36.137-64.737-32.065-22.631 3.724-19.403 31.793-52.47 52.813-32.998 20.974-59.666 7.93-70.54 25.264-13.133 20.945 24.228 42.483 18.222 79.257-5.753 35.235-45.179 39.14-62.969 77.973-16.6 36.237-6.39 75.331 5.8 103.963l480.55-.765"/>
            <path fill="#FFBF4D" d="M221.273 10.541l-.061-.748c1.496-.12 3.014-.208 4.512-.261l.027.75c-1.487.052-2.994.14-4.478.26zm-8.897 1.118l-.126-.739c1.485-.252 2.989-.476 4.468-.662l.094.745c-1.47.184-2.961.405-4.436.656zm-8.765 1.891l-.19-.726c1.455-.379 2.933-.73 4.394-1.046l.158.733c-1.45.314-2.918.664-4.362 1.04zm-8.574 2.627l-.25-.708c1.417-.5 2.86-.974 4.29-1.412l.219.716c-1.42.436-2.853.908-4.26 1.404zm-8.33 3.323l-.305-.684c1.374-.614 2.773-1.206 4.159-1.76l.277.697c-1.375.55-2.765 1.137-4.13 1.747zm-8.033 3.988l-.36-.657c1.314-.72 2.66-1.422 4.003-2.088l.334.67c-1.334.663-2.671 1.36-3.977 2.075zm-7.69 4.617l-.411-.627c1.253-.822 2.54-1.63 3.824-2.4l.386.643c-1.275.765-2.553 1.567-3.8 2.384zm-7.3 5.213l-.46-.591c1.186-.92 2.404-1.828 3.623-2.698l.435.611c-1.21.864-2.421 1.764-3.597 2.678zm-6.862 5.78l-.506-.554c1.106-1.01 2.249-2.012 3.396-2.978l.483.573c-1.14.96-2.275 1.955-3.373 2.958zm-6.375 6.31l-.55-.51c1.023-1.098 2.08-2.189 3.146-3.242l.527.532c-1.057 1.047-2.108 2.131-3.123 3.22zm-5.836 6.813l-.59-.464c.923-1.173 1.888-2.347 2.868-3.49l.569.487c-.973 1.137-1.931 2.303-2.847 3.467zm-5.242 7.275l-.627-.413c.82-1.246 1.682-2.497 2.562-3.72l.609.44c-.874 1.213-1.73 2.455-2.544 3.693zm-4.595 7.697l-.66-.355c.707-1.314 1.457-2.636 2.229-3.928l.644.385c-.766 1.281-1.51 2.593-2.213 3.898zm8.56 11.945c-1.231-.803-2.564-1.452-3.953-1.92l.24-.712c1.445.489 2.837 1.165 4.124 2.001l-.41.63zm-12.45-3.873l-.69-.293c.156-.368.316-.737.478-1.102.445-1.008.913-2.02 1.39-3.011l.676.327c-.473.981-.938 1.987-1.38 2.987-.16.362-.318.727-.474 1.093zm-.218 1.276l-.11-.742c1.542-.228 3.079-.289 4.57-.184l-.053.749c-1.437-.1-2.92-.041-4.407.177zm18.444 9.077c-.603-1.294-1.42-2.517-2.43-3.637l.557-.501c1.06 1.172 1.918 2.459 2.553 3.82l-.68.318zm-26.792-6.215l-.358-.66c1.36-.739 2.763-1.36 4.167-1.847l.246.709c-1.366.472-2.73 1.08-4.055 1.797zm5.092 4.195c.27-1.401.652-2.838 1.168-4.394l.712.237c-.506 1.525-.88 2.93-1.143 4.3l-.737-.142zm22.36 10.511c.45-1.438.615-2.884.488-4.296l.748-.067c.135 1.51-.04 3.053-.52 4.588l-.716-.225zm-34.562-9.4l-.524-.538c.648-.632 1.317-1.238 1.986-1.805.473-.397.964-.79 1.46-1.16l.45.6c-.484.362-.964.745-1.425 1.133-.657.556-1.312 1.15-1.947 1.77zm12.256 7.984c-.16-.623-.281-1.258-.36-1.885-.112-.867-.166-1.764-.162-2.668l.75.004c-.003.871.048 1.735.155 2.569.077.597.192 1.2.344 1.796l-.727.184zm17.56 8.9l-.408-.627c1.199-.782 2.263-1.785 3.16-2.986l.602.45c-.951 1.27-2.08 2.334-3.353 3.163zM109.459 91.53l-.612-.433c.91-1.284 1.84-2.492 2.76-3.593l.576.48c-.91 1.087-1.825 2.28-2.724 3.546zm22.66 8.978c-1.12-.988-2.1-2.189-2.908-3.567l.647-.379c.769 1.31 1.696 2.447 2.757 3.383l-.496.563zm3.983 2.34l.238-.712c.576.194 1.168.331 1.76.411.827.112 1.67.106 2.505-.019l.11.742c-.904.135-1.818.142-2.716.02-.638-.085-1.276-.234-1.897-.442zm-31.438-3.741l-.65-.376c.835-1.44 1.595-2.706 2.327-3.87l.636.4c-.727 1.156-1.484 2.414-2.313 3.846zm-4.306 7.88l-.668-.34c.674-1.317 1.384-2.659 2.112-3.989l.658.362c-.725 1.323-1.432 2.658-2.102 3.966zm-3.855 8.11l-.687-.3c.592-1.354 1.223-2.735 1.875-4.107l.677.324c-.65 1.363-1.276 2.737-1.865 4.082zm-4.008 8.093c.228-.645.462-1.29.7-1.931.288-.768.583-1.533.885-2.296l.697.275c-.3.759-.593 1.52-.878 2.282-.238.638-.471 1.28-.697 1.92l-.707-.25zm-2.655 8.633c.374-1.434.79-2.897 1.236-4.344l.717.22c-.443 1.439-.856 2.89-1.227 4.316l-.726-.192zm-1.85 8.847c.23-1.466.505-2.962.816-4.446l.735.153c-.31 1.472-.581 2.957-.81 4.409l-.74-.115zm-.898 8.993c.062-1.487.17-3.005.323-4.51l.746.076c-.15 1.49-.258 2.993-.32 4.465l-.75-.03zm.184 9.04l-.035-.418c-.105-1.346-.173-2.725-.2-4.099l.75-.013c.027 1.357.093 2.721.198 4.054l.034.413-.747.063zm1.457 8.933c-.354-1.468-.656-2.96-.897-4.44l.74-.12c.239 1.46.537 2.935.886 4.383l-.73.177zm2.769 8.615c-.563-1.39-1.083-2.822-1.543-4.256l.713-.23c.456 1.416.969 2.831 1.526 4.206l-.696.28zm4.024 8.112c-.765-1.285-1.494-2.624-2.167-3.978l.672-.334c.664 1.338 1.384 2.66 2.14 3.928l-.645.383zm5.254 7.377c-.963-1.135-1.898-2.34-2.78-3.58l.61-.434c.872 1.224 1.793 2.41 2.743 3.53l-.573.484zm6.456 6.356c-1.154-.94-2.29-1.958-3.375-3.03l.527-.532c1.068 1.054 2.186 2.056 3.322 2.98l-.474.582zm7.57 4.978c-1.328-.686-2.645-1.458-3.914-2.293l.413-.625c1.246.82 2.54 1.578 3.845 2.251l-.344.667zm4.479 1.987l-.337-.127.266-.702.333.126c.833.31 1.682.595 2.52.845l-.214.719c-.855-.255-1.72-.544-2.568-.861z"/>
            <path fill="#F59015" d="M216.727 6.731L212.238 12.911 218.379 12.753 219.064 9.578z"/>
            <path fill="#F9DC56" d="M235.601 10.569L214.066 0.207 217.333 10.794z"/>
            <path fill="#FFB023" d="M235.601 10.569L221.864 21.735 217.333 10.794z"/>
            <path fill="#FFA331" d="M536.09 41.775c-.15 0-.299-.073-.39-.207l-.429-.636c-.145-.215-.089-.507.126-.652.214-.145.506-.09.651.126l.431.637c.145.215.09.506-.127.652-.08.054-.172.08-.262.08zm6.177 9.908c-.162 0-.32-.085-.407-.235-.966-1.68-1.973-3.36-2.993-4.995-.137-.22-.07-.51.15-.647s.511-.07.647.15c1.026 1.644 2.038 3.335 3.01 5.023.13.225.052.512-.173.64-.074.044-.155.064-.234.064zm5.458 10.323c-.174 0-.342-.097-.423-.265-.84-1.737-1.725-3.486-2.629-5.195-.122-.23-.034-.514.195-.635.23-.122.514-.033.635.195.91 1.72 1.8 3.478 2.645 5.226.113.233.015.514-.218.628-.066.03-.136.046-.205.046zm4.706 10.688c-.187 0-.363-.112-.437-.296-.714-1.796-1.47-3.603-2.25-5.37-.104-.238.003-.515.241-.62.237-.105.514.003.62.24.782 1.778 1.543 3.596 2.262 5.402.096.242-.022.515-.262.61-.057.023-.116.034-.174.034zm3.921 11c-.2 0-.385-.127-.448-.327-.58-1.841-1.205-3.698-1.855-5.52-.087-.244.04-.512.285-.6.244-.085.512.04.6.285.653 1.832 1.281 3.7 1.866 5.552.078.247-.059.51-.306.588-.048.016-.095.023-.142.023zm3.107 11.258c-.213 0-.405-.146-.456-.362-.446-1.877-.932-3.776-1.447-5.64-.069-.25.078-.51.328-.578.25-.067.51.078.578.328.518 1.876 1.007 3.785 1.455 5.674.06.253-.097.505-.349.565-.037.009-.073.013-.109.013zm2.268 11.456c-.227 0-.427-.164-.464-.396-.304-1.908-.649-3.836-1.024-5.732-.05-.254.116-.501.37-.552.253-.051.502.115.552.37.377 1.907.724 3.847 1.03 5.767.041.256-.134.497-.39.537-.025.005-.05.006-.074.006zm-421.317 8.085h-.023c-1.959-.093-3.918-.146-5.819-.158-.26-.001-.469-.213-.467-.472.002-.26.212-.467.47-.467h.003c1.914.012 3.885.066 5.858.158.26.013.46.233.447.492-.012.25-.22.447-.469.447zm-17.509.29c-.24 0-.446-.183-.467-.428-.022-.26.17-.486.427-.51 1.908-.164 3.877-.285 5.853-.36.267-.033.477.192.486.452.01.259-.192.478-.45.487-1.962.075-3.915.195-5.807.359h-.042zm29.15.69c-.02 0-.038 0-.057-.002-1.948-.233-3.898-.433-5.795-.594-.258-.022-.45-.25-.428-.507.022-.26.25-.446.507-.43 1.91.162 3.87.364 5.828.599.257.03.441.264.41.522-.029.238-.23.413-.466.413zm-40.71.94c-.22 0-.416-.154-.46-.376-.052-.255.113-.502.368-.553 1.882-.377 3.828-.707 5.784-.98.258-.037.495.143.531.4.035.257-.143.494-.4.53-1.939.272-3.867.598-5.73.97-.032.007-.063.01-.094.01zm52.258.826c-.029 0-.057-.002-.086-.008-1.923-.354-3.856-.681-5.746-.971-.257-.038-.433-.278-.394-.535.04-.256.28-.433.536-.392 1.9.29 3.842.619 5.775.975.255.047.423.292.376.547-.04.226-.239.384-.46.384zm399.53.765c-.242 0-.448-.186-.468-.431-.159-1.926-.358-3.875-.59-5.793-.03-.258.153-.492.41-.523.258-.025.492.153.523.41.233 1.929.433 3.89.593 5.828.021.259-.17.485-.429.507l-.039.002zm-463.06 1.439c-.195 0-.377-.123-.445-.316-.084-.247.046-.514.292-.598 1.815-.626 3.705-1.202 5.616-1.713.25-.067.508.08.576.332.066.25-.082.508-.333.575-1.89.505-3.759 1.075-5.554 1.694-.05.017-.102.026-.152.026zm74.954.243c-.037 0-.074-.004-.112-.014-1.896-.46-3.808-.898-5.682-1.3-.254-.054-.415-.304-.36-.557.054-.254.304-.415.557-.361 1.882.404 3.803.842 5.707 1.305.252.062.407.316.346.568-.053.215-.244.359-.456.359zm11.278 3.052c-.044 0-.089-.007-.134-.02-1.87-.556-3.757-1.092-5.609-1.594-.25-.068-.398-.326-.33-.577.068-.25.326-.396.576-.331 1.86.505 3.754 1.043 5.631 1.602.248.073.39.335.316.584-.06.204-.247.336-.45.336zm-96.93 1.35c-.168 0-.33-.09-.414-.248-.123-.228-.037-.513.192-.635 1.7-.912 3.48-1.771 5.29-2.553.238-.103.513.008.616.244.103.238-.007.515-.244.618-1.785.773-3.54 1.619-5.219 2.519-.07.037-.146.055-.22.055zm108.03 2.243c-.053 0-.105-.008-.157-.027-1.838-.642-3.695-1.267-5.519-1.858-.246-.08-.382-.345-.302-.592.08-.247.345-.383.592-.302 1.831.593 3.695 1.22 5.54 1.866.244.086.373.353.287.598-.067.194-.249.315-.442.315zm366.242 3.339c-.258 0-.468-.21-.47-.467-.01-1.927-.059-3.885-.144-5.821-.01-.26.19-.478.45-.49.264-.015.477.19.488.449.086 1.948.135 3.918.145 5.856.002.26-.207.47-.466.473h-.003zm-355.313.762c-.057 0-.116-.011-.174-.033-1.804-.724-3.633-1.433-5.435-2.108-.242-.092-.365-.363-.274-.605.091-.243.362-.365.605-.275 1.808.678 3.642 1.39 5.453 2.116.241.096.358.37.262.61-.074.184-.25.295-.437.295zm-128.7.062c-.139 0-.275-.061-.368-.177-.162-.202-.129-.498.074-.66 1.515-1.211 3.117-2.372 4.76-3.451.217-.143.51-.082.65.134.143.216.082.508-.135.65-1.619 1.064-3.196 2.208-4.688 3.4-.087.07-.19.104-.293.104zm139.45 4.52c-.064 0-.13-.012-.193-.04-1.776-.803-3.573-1.592-5.342-2.346-.239-.102-.35-.377-.248-.617.102-.237.377-.35.616-.247 1.775.757 3.58 1.549 5.361 2.354.236.106.341.385.234.62-.078.175-.249.277-.428.277zM71.26 138.62c-.108 0-.216-.036-.304-.112-.198-.17-.22-.464-.053-.663 1.102-1.292 2.256-2.544 3.432-3.717.194-.195.391-.388.588-.58.186-.181.483-.176.665.01.18.187.175.485-.01.664-.195.189-.387.378-.579.57-1.159 1.157-2.296 2.389-3.382 3.664-.092.108-.224.164-.357.164zm158.372 1.442c-.07 0-.143-.016-.21-.051-1.74-.878-3.504-1.744-5.242-2.575-.234-.111-.333-.391-.22-.626.111-.234.391-.334.625-.221 1.744.833 3.514 1.703 5.26 2.583.231.118.324.4.207.63-.083.165-.248.26-.42.26zm333.618 1.278l-.035-.001c-.259-.02-.454-.245-.435-.502.142-1.93.247-3.884.311-5.813.01-.26.238-.445.485-.454.26.009.463.226.454.484-.065 1.943-.17 3.91-.313 5.85-.018.248-.224.436-.467.436zm-323.295 4.216c-.078 0-.157-.02-.229-.06-1.692-.948-3.414-1.888-5.119-2.795-.229-.122-.316-.406-.194-.635.122-.23.407-.315.635-.194 1.711.91 3.44 1.854 5.137 2.805.226.127.307.413.18.64-.086.153-.246.239-.41.239zM64.472 148.11c-.082 0-.165-.022-.24-.067-.223-.133-.295-.422-.162-.644 1.02-1.696 2.101-3.351 3.22-4.917.15-.212.444-.26.654-.11.211.15.26.444.11.655-1.104 1.547-2.173 3.18-3.178 4.854-.088.148-.244.229-.404.229zm185.545 3.386c-.085 0-.17-.024-.248-.072-1.635-1.015-3.313-2.032-4.988-3.02-.223-.132-.297-.42-.166-.644.132-.222.421-.296.643-.166 1.682.993 3.366 2.013 5.007 3.033.221.136.288.426.151.647-.089.143-.242.222-.399.222zm311.912 1.445c-.024 0-.048-.001-.072-.005-.257-.04-.432-.28-.392-.536.294-1.905.555-3.847.774-5.77.03-.257.262-.434.52-.414.257.03.442.263.413.52-.22 1.936-.482 3.89-.779 5.808-.036.23-.236.397-.464.397zm-302.137 4.955c-.092 0-.184-.026-.266-.083-1.588-1.096-3.216-2.19-4.84-3.253-.217-.141-.278-.432-.136-.65.142-.216.433-.277.651-.136 1.63 1.067 3.264 2.166 4.86 3.267.212.146.266.439.118.652-.09.132-.237.203-.387.203zm-200.598.625c-.06 0-.123-.012-.183-.038-.239-.102-.35-.377-.249-.616.77-1.815 1.602-3.607 2.472-5.325.117-.231.4-.325.63-.207.232.117.325.399.208.63-.86 1.7-1.683 3.473-2.445 5.269-.076.18-.25.287-.433.287zm500.476 5.876c-.037 0-.074-.004-.11-.013-.253-.06-.408-.314-.347-.566.451-1.875.87-3.788 1.243-5.686.051-.254.298-.423.552-.37.254.05.42.297.37.552-.377 1.91-.798 3.836-1.252 5.724-.052.216-.244.359-.456.359zm-290.435.38c-.1 0-.2-.031-.287-.097-1.517-1.17-3.087-2.344-4.666-3.495-.209-.152-.256-.446-.103-.656.153-.21.447-.255.657-.104 1.585 1.156 3.162 2.336 4.686 3.51.205.159.243.454.085.659-.093.12-.232.184-.372.184zm-213.93 4.752c-.043 0-.086-.006-.13-.02-.249-.07-.393-.331-.32-.58.542-1.887 1.143-3.767 1.785-5.59.086-.245.355-.371.6-.287.244.086.372.355.286.599-.636 1.806-1.23 3.669-1.769 5.538-.06.206-.248.34-.452.34zm222.967 2.639c-.109 0-.219-.04-.308-.116-1.444-1.256-2.94-2.517-4.45-3.751-.202-.164-.232-.46-.067-.66.163-.201.46-.231.661-.066 1.516 1.238 3.021 2.507 4.472 3.768.196.17.217.467.047.662-.094.108-.224.163-.355.163zm278.191 3.458c-.049 0-.099-.008-.148-.024-.246-.082-.38-.348-.298-.595.607-1.828 1.184-3.7 1.716-5.56.071-.25.331-.394.581-.323.25.07.394.33.322.58-.535 1.875-1.116 3.758-1.728 5.6-.065.198-.249.322-.445.322zm-269.638 4.476c-.12 0-.239-.046-.33-.137-1.364-1.351-2.777-2.707-4.2-4.026-.19-.177-.202-.474-.025-.664.176-.19.474-.2.664-.024 1.431 1.326 2.851 2.688 4.222 4.047.184.183.185.48.002.665-.09.093-.212.139-.333.139zm-234.12.819c-.027 0-.053-.003-.08-.007-.256-.044-.428-.287-.384-.543.331-1.928.718-3.864 1.15-5.756.057-.253.306-.412.561-.354.253.058.412.31.354.563-.427 1.875-.81 3.795-1.139 5.706-.039.228-.238.39-.462.39zm499.604 5.619c-.062 0-.125-.013-.185-.038-.239-.104-.348-.38-.246-.62.764-1.77 1.5-3.584 2.187-5.391.092-.242.365-.363.606-.273.242.092.364.364.272.607-.692 1.82-1.434 3.647-2.202 5.43-.077.178-.25.285-.432.285zm-257.493 2.063c-.13 0-.26-.055-.353-.16-1.272-1.452-2.588-2.901-3.91-4.308-.178-.19-.169-.486.02-.664.188-.177.486-.17.664.02 1.33 1.415 2.653 2.873 3.932 4.333.171.195.151.49-.043.662-.09.078-.2.117-.31.117zM51.33 192.52l-.03-.001c-.26-.017-.456-.241-.439-.5.13-1.942.31-3.908.54-5.842.03-.258.265-.444.52-.411.258.03.442.264.412.52-.227 1.92-.407 3.869-.535 5.796-.016.248-.223.438-.468.438zm495.89 4.528c-.076 0-.152-.018-.224-.056-.228-.123-.313-.408-.19-.637.916-1.695 1.808-3.438 2.652-5.181.113-.232.395-.33.627-.217.234.113.331.393.218.628-.849 1.753-1.748 3.508-2.67 5.216-.085.158-.247.247-.414.247zm-245.018.585c-.142 0-.28-.062-.374-.183-1.19-1.557-2.405-3.093-3.608-4.567-.164-.2-.134-.496.066-.66.202-.165.497-.135.661.067 1.21 1.48 2.431 3.024 3.627 4.588.158.207.12.5-.088.66-.085.064-.185.095-.284.095zm-251.045 6.565c-.25 0-.459-.198-.468-.452-.052-1.387-.078-2.792-.078-4.18 0-.563.005-1.124.013-1.686.004-.256.214-.462.47-.462h.007c.26.003.466.217.462.477-.008.556-.012 1.113-.012 1.67 0 1.377.026 2.77.076 4.146.01.259-.193.477-.452.487h-.018zm490.058 2.868c-.089 0-.179-.025-.259-.08-.216-.142-.275-.433-.132-.65 1.063-1.606 2.108-3.262 3.103-4.922.133-.223.422-.294.644-.162.223.133.295.42.162.644-1.003 1.673-2.055 3.342-3.126 4.959-.09.137-.24.21-.392.21zm-232.176.025c-.15 0-.296-.07-.388-.203-1.18-1.713-2.277-3.27-3.353-4.762-.15-.211-.104-.505.106-.657.21-.152.504-.104.656.107 1.08 1.497 2.18 3.06 3.365 4.78.147.213.093.506-.12.653-.082.056-.175.082-.266.082zm-256.837 8.736c-.229 0-.43-.17-.464-.403-.276-1.917-.505-3.878-.68-5.826-.023-.258.168-.486.426-.51.256-.021.486.168.51.426.173 1.933.4 3.875.674 5.776.037.257-.14.495-.398.532-.022.003-.045.005-.068.005zm482.131.673c-.103 0-.206-.035-.293-.104-.202-.162-.235-.458-.073-.66 1.206-1.503 2.394-3.058 3.534-4.62.153-.21.447-.255.656-.103.21.154.256.447.103.657-1.148 1.574-2.346 3.139-3.56 4.654-.093.116-.229.176-.367.176zm-218.775.27c-.15 0-.3-.072-.39-.207l-1.456-2.178c-.59-.882-1.185-1.774-1.788-2.674-.145-.214-.087-.506.128-.651.217-.144.508-.087.652.129.604.899 1.2 1.79 1.79 2.675l1.454 2.176c.145.215.087.507-.129.652-.08.054-.17.079-.26.079zm211.06 8.489c-.118 0-.236-.044-.327-.131-.186-.181-.19-.478-.01-.665 1.341-1.387 2.668-2.826 3.943-4.274.172-.194.47-.214.663-.042.195.172.214.469.042.663-1.285 1.459-2.622 2.907-3.974 4.307-.092.094-.215.142-.337.142zm-204.4 1.095c-.144 0-.286-.066-.379-.191-1.062-1.44-2.17-3-3.39-4.766-.149-.214-.095-.506.118-.653.214-.15.506-.094.653.119 1.215 1.76 2.32 3.31 3.375 4.742.155.209.11.503-.099.657-.084.062-.18.092-.278.092zm-267.7.913c-.208 0-.398-.14-.454-.35-.492-1.866-.939-3.79-1.328-5.713-.05-.255.114-.502.368-.553.253-.053.502.113.553.366.386 1.907.828 3.812 1.315 5.66.066.25-.083.508-.334.575-.04.01-.08.015-.12.015zm184.696 4.542c-.107 0-.216-.036-.304-.112-.198-.167-.222-.464-.054-.661 1.241-1.46 2.485-2.974 3.697-4.5.162-.203.457-.237.66-.076.203.16.237.456.076.659-1.219 1.536-2.469 3.057-3.717 4.525-.093.109-.225.165-.358.165zm278.91 1.457c-.133 0-.264-.055-.357-.163-.17-.197-.147-.493.05-.663 1.464-1.257 2.92-2.566 4.325-3.891.188-.177.486-.17.663.02.178.189.17.486-.02.665-1.415 1.334-2.88 2.652-4.356 3.919-.089.076-.197.113-.306.113zm-188.519 2.109c-.126 0-.252-.051-.345-.151-1.293-1.396-2.549-2.845-3.839-4.43-.164-.2-.133-.496.068-.66.201-.163.496-.133.661.069 1.277 1.568 2.52 3.002 3.8 4.383.176.19.164.487-.026.664-.09.083-.205.125-.319.125zm-271.417 2.967c-.185 0-.36-.11-.435-.293-.723-1.786-1.403-3.638-2.022-5.507-.08-.247.052-.513.3-.594.245-.081.511.052.592.298.612 1.849 1.285 3.684 2 5.45.098.242-.018.515-.259.612-.057.024-.117.034-.176.034zm173.158 2.096c-.118 0-.236-.044-.328-.134-.185-.181-.189-.478-.008-.664 1.35-1.38 2.695-2.804 3.998-4.233.175-.193.472-.206.664-.031.192.174.206.47.03.664-1.31 1.437-2.663 2.87-4.02 4.257-.092.094-.214.14-.336.14zm277.58.02c-.146 0-.29-.07-.382-.198-.15-.211-.1-.504.11-.654 1.577-1.122 3.146-2.292 4.664-3.478.204-.16.5-.125.66.08.158.205.122.5-.082.66-1.529 1.195-3.109 2.374-4.698 3.504-.082.058-.177.087-.272.087zm-170.78 2.837c-.103 0-.205-.033-.292-.1-1.52-1.201-3.018-2.485-4.453-3.818-.19-.177-.2-.475-.024-.665.177-.19.474-.2.664-.024 1.416 1.315 2.895 2.584 4.396 3.77.203.16.237.456.077.659-.093.117-.23.178-.369.178zm160.986 3.492c-.16 0-.318-.083-.405-.233-.132-.223-.056-.511.168-.642 1.667-.976 3.333-2.001 4.95-3.045.218-.141.51-.08.65.139.14.218.077.509-.14.65-1.629 1.052-3.307 2.084-4.986 3.066-.074.044-.156.065-.237.065zm-276.246 1.7c-.13 0-.259-.054-.353-.16-.17-.194-.153-.49.041-.661 1.45-1.282 2.892-2.606 4.291-3.937.188-.18.485-.172.664.017.18.187.171.485-.017.664-1.406 1.339-2.859 2.67-4.316 3.959-.089.079-.2.118-.31.118zm-159.567.33c-.162 0-.319-.082-.406-.231-.972-1.663-1.905-3.404-2.77-5.175-.115-.234-.018-.515.215-.63.232-.113.514-.018.628.217.856 1.75 1.777 3.47 2.738 5.114.131.224.055.51-.169.64-.074.045-.155.066-.236.066zm284.5.963c-.079 0-.158-.02-.23-.062-1.718-.973-3.397-2.007-4.992-3.074-.216-.144-.274-.435-.13-.651.145-.217.436-.275.652-.13 1.575 1.054 3.235 2.076 4.932 3.039.226.128.305.414.177.64-.086.152-.245.238-.409.238zm141 2.46c-.175 0-.344-.098-.424-.267-.112-.234-.012-.514.222-.626 1.751-.833 3.5-1.711 5.198-2.608.23-.122.513-.034.634.196.122.229.034.513-.195.634-1.709.904-3.47 1.788-5.233 2.627-.065.03-.134.045-.202.045zm-130.522 2.688c-.062 0-.125-.012-.185-.038-1.808-.778-3.6-1.601-5.329-2.446-.233-.113-.33-.396-.215-.628.113-.233.395-.332.627-.216 1.715.839 3.494 1.655 5.288 2.427.238.102.35.379.246.617-.077.178-.25.284-.432.284zm-144.44.963c-.143 0-.284-.064-.376-.185-.157-.207-.117-.502.09-.66 1.54-1.167 3.076-2.38 4.571-3.606.201-.164.497-.135.661.066.164.2.135.497-.065.66-1.504 1.234-3.05 2.455-4.599 3.629-.085.065-.184.096-.283.096zm264.227.927c-.189 0-.368-.115-.439-.303-.092-.242.03-.513.273-.605 1.815-.69 3.63-1.42 5.397-2.172.237-.102.514.009.616.247.101.239-.009.515-.248.616-1.778.758-3.605 1.493-5.432 2.187-.055.02-.112.03-.167.03zM70 258.378c-.134 0-.268-.058-.36-.17-1.237-1.486-2.436-3.057-3.563-4.672-.148-.213-.096-.506.117-.655.212-.148.504-.097.654.117 1.112 1.593 2.294 3.144 3.513 4.61.166.199.14.495-.06.66-.088.074-.195.11-.3.11zm299.22.686c-.048 0-.098-.008-.147-.023-1.86-.616-3.719-1.273-5.525-1.955-.243-.092-.365-.364-.273-.606.091-.243.363-.367.606-.273 1.793.677 3.64 1.33 5.487 1.942.246.08.38.347.3.593-.067.197-.25.322-.448.322zm97.798 1.464c-.203 0-.39-.133-.45-.338-.074-.25.07-.51.318-.582 1.854-.543 3.722-1.13 5.553-1.742.246-.083.512.05.594.297.083.246-.05.51-.296.593-1.842.618-3.722 1.206-5.587 1.753-.044.013-.089.019-.132.019zm-86.57 1.758c-.038 0-.075-.004-.113-.013-1.899-.467-3.804-.974-5.662-1.507-.25-.071-.394-.331-.322-.58.072-.25.334-.394.581-.322 1.846.529 3.74 1.032 5.627 1.496.252.062.406.316.344.568-.052.215-.245.358-.456.358zm-176.159.3c-.154 0-.305-.075-.395-.214-.14-.218-.077-.51.141-.65 1.62-1.042 3.246-2.134 4.833-3.245.211-.147.505-.097.654.115.15.213.097.506-.116.655-1.596 1.118-3.232 2.216-4.863 3.265-.078.05-.167.075-.254.075zm251.41.799c-.216 0-.41-.15-.459-.371-.054-.254.108-.504.362-.557 1.903-.407 3.81-.851 5.67-1.32.25-.065.505.088.57.34.062.252-.09.507-.34.57-1.87.473-3.79.919-5.704 1.328-.033.007-.066.01-.099.01zm-63.819 1.268c-.026 0-.052-.002-.079-.007-1.916-.324-3.85-.688-5.753-1.082-.253-.053-.417-.301-.364-.555.052-.254.302-.418.555-.365 1.891.392 3.815.753 5.72 1.076.255.043.427.286.383.54-.038.23-.237.393-.462.393zm52.324.76c-.23 0-.43-.17-.465-.406-.035-.256.144-.494.4-.53 1.907-.266 3.842-.572 5.75-.907.256-.047.5.126.544.38.045.257-.126.5-.38.545-1.92.338-3.866.645-5.783.913-.022.003-.044.005-.066.005zm-40.754.794l-.047-.002c-1.935-.193-3.89-.421-5.815-.68-.257-.034-.437-.27-.403-.527.034-.257.27-.44.528-.404 1.914.257 3.86.485 5.782.676.26.025.447.256.422.514-.025.242-.229.423-.467.423zm-325.207.42c-.105 0-.212-.036-.299-.11-1.039-.861-2.058-1.764-3.03-2.684-.445-.42-.883-.846-1.315-1.28-.183-.183-.183-.481.001-.664.183-.182.481-.182.664 0 .425.427.857.848 1.295 1.26.958.906 1.962 1.797 2.985 2.646.2.167.227.463.061.663-.093.11-.227.169-.362.169zm354.354.002c-.244 0-.45-.19-.468-.437-.018-.26.177-.482.436-.501 1.923-.135 3.874-.306 5.797-.507.26-.022.49.16.516.419.027.258-.16.488-.418.516-1.934.202-3.895.373-5.829.509h-.034zm-17.498.337h-.015c-1.95-.061-3.917-.157-5.847-.283-.259-.016-.455-.24-.438-.5.017-.258.244-.453.5-.436 1.918.125 3.875.218 5.815.28.26.008.463.226.455.484-.009.254-.217.455-.47.455zm5.838.083c-.259 0-.469-.21-.469-.467 0-.26.21-.471.468-.471 1.925-.005 3.883-.042 5.818-.112.267-.006.477.194.486.453.01.26-.193.477-.452.486-1.946.069-3.914.107-5.849.11h-.002zm-226.71 1.463c-.168 0-.33-.09-.415-.247-.123-.228-.037-.513.192-.636 1.704-.914 3.411-1.874 5.074-2.853.225-.132.512-.057.643.166.132.224.058.512-.166.643-1.674.986-3.392 1.953-5.107 2.872-.07.038-.147.055-.222.055zm-106.39 4.765c-.08 0-.16-.02-.234-.063-1.71-.983-3.384-2.04-4.973-3.14-.213-.148-.267-.441-.119-.654.148-.213.44-.265.653-.12 1.568 1.087 3.22 2.129 4.907 3.1.225.129.302.417.173.642-.087.15-.245.235-.407.235zm95.88.327c-.182 0-.355-.105-.432-.282-.103-.238.006-.515.244-.618 1.762-.766 3.542-1.583 5.29-2.43.233-.114.514-.017.627.218.113.232.016.514-.218.627-1.759.852-3.55 1.676-5.324 2.446-.062.026-.125.039-.188.039zm-10.897 4.196c-.197 0-.38-.124-.446-.32-.083-.246.05-.512.296-.595 1.825-.615 3.667-1.28 5.474-1.975.241-.095.513.027.607.269.093.242-.028.514-.27.608-1.818.7-3.673 1.369-5.512 1.989-.049.017-.1.024-.149.024zm-74.447.495c-.057 0-.114-.01-.17-.032-1.839-.713-3.654-1.495-5.395-2.323-.235-.111-.334-.391-.223-.625.112-.234.393-.333.626-.223 1.721.819 3.515 1.59 5.332 2.295.241.094.361.367.268.609-.073.185-.25.299-.438.299zm63.226 2.743c-.212 0-.404-.145-.456-.36-.06-.252.094-.506.346-.567 1.864-.448 3.756-.95 5.626-1.49.25-.07.51.073.581.322.072.249-.072.51-.32.582-1.884.543-3.79 1.048-5.667 1.5-.037.009-.074.013-.11.013zm-52.08.724c-.036 0-.073-.004-.11-.012-1.912-.46-3.816-.983-5.66-1.555-.248-.076-.387-.34-.31-.588.077-.247.34-.387.588-.31 1.825.567 3.71 1.084 5.601 1.539.253.06.408.314.347.567-.05.215-.244.359-.456.359zm40.614 1.489c-.229 0-.43-.168-.464-.403-.037-.257.141-.495.398-.532 1.901-.275 3.831-.602 5.736-.97.257-.046.501.118.55.373.05.254-.117.5-.372.55-1.919.37-3.864.699-5.78.977-.023.003-.045.005-.068.005zm-29.116.537c-.018 0-.036-.002-.055-.004-1.949-.226-3.902-.51-5.807-.844-.255-.045-.425-.288-.38-.543.044-.256.287-.426.543-.382 1.886.33 3.822.613 5.752.836.258.029.442.263.413.52-.028.24-.23.417-.466.417zm17.493.576c-.25 0-.458-.197-.469-.448-.012-.26.19-.48.447-.492 1.921-.088 3.873-.227 5.802-.412.26-.03.488.165.513.423.025.258-.165.487-.423.512-1.945.187-3.913.327-5.848.416h-.022zm-5.839.119h-.003c-1.964-.012-3.936-.074-5.862-.188-.258-.016-.456-.24-.44-.498.015-.26.23-.465.496-.441 1.91.113 3.864.177 5.812.188.26 0 .468.212.466.472 0 .258-.21.467-.469.467z"/>
            <path fill="#FFA331" d="M540.027 42.741L524.885 26.191 526.159 49.93z"/>
            <path fill="#FFBF4D" d="M544.993 35.832L540.026 42.741 525.017 26.298M537.754 45.903L524.907 26.34 532.311 54.726z"/>
            <path fill="#F7E8C8" d="M625.116 365.777c0 7.855-139.937 14.223-312.558 14.223C139.937 380 0 373.632 0 365.777c0-7.856 139.937-14.225 312.558-14.225 172.621 0 312.558 6.369 312.558 14.225"/>
            <path fill="#A4B750" d="M145.812 243.958c-2.276-2.424-10.197-10-9.262-13.463 1.02-3.777 4.93-6.738 8.653-6.553 1.607.08 3.177.67 4.814-.108.914-.436 1.578-1.416 1.4-2.377-.292-1.568-2.329-1.573-3.883-1.45-2.975.234-6.016-.193-8.433-1.735-2.416-1.543-4.112-4.321-3.947-7.36.164-3.038 2.463-6.157 5.418-6.79 1.847-.393 3.728.15 5.562-.741.952-.463 1.704-1.392 1.708-2.431.007-2.1-2.75-2.458-4.802-2.355-2.898.144-5.855.008-8.427-1.121-2.57-1.128-4.714-3.4-5.09-6.291-.377-2.892 1.411-6.3 4.241-7.211 1.133-.367 2.32-.33 3.47-.612 1.378-.338 2.861-1.364 2.706-2.965-.107-1.11-1.018-1.87-2.09-2.045-1.484-.244-2.854.317-4.23.86-2.173.858-4.54.888-6.518-.055-5.906-2.815-3.637-10.7 1.214-12.843 1.361-.6 3.076-.974 3.592-2.45.407-1.164-.195-2.336-1.218-2.84-2.02-.993-4.233-.01-6.356-.1-3.883-.162-6.642-4.571-5.278-8.435 1.043-2.955 4.51-1.66 7.925-1.1.785.13 1.305-.924.702-1.42-2.395-1.97-5.01-4.988-6.322-6.853-2.403-3.422-2.445-11.061 3.97-10.56 1.72.133 4.627 2.75 4.941 4.21.444 2.062 2.846 7.84 2.846 7.84.315.6 1.252.32 1.29-.388.088-1.611.38-3.21 1.22-4.725.385-.692.895-1.326 1.51-1.823 3.666-2.956 7.5.343 7.934 4.022.361 3.06-.909 6.196-2.083 9.18-.608 1.547-1.209 3.257-.444 4.714.434.826 1.371 1.3 2.298.983 1.072-.367 1.314-1.42 1.761-2.294 1.466-2.862 5.522-3.704 7.978-2.084 2.455 1.62 3.341 5.003 2.817 8.114-.523 3.109-2.23 5.984-4.146 8.582-.945 1.28-2 2.636-1.796 4.262.12.96.891 1.72 1.852 1.6 1.368-.17 1.892-1.795 2.6-2.981 1.968-3.293 6.933-3.716 9.505-1.338 2.57 2.378 2.943 6.597 1.787 10.213-1.303 4.073-4.219 7.535-7.032 10.767-.662.76-.818 1.879-.254 2.61.781 1.014 2.04.38 3.093-.068 4.073-1.733 8.953-.288 11.101 3.285 2.148 3.575 1.338 8.903-1.843 12.119-2.02 2.043-4.833 3.28-5.824 6.268-.49 1.48.013 3.097 1.361 3.623 1.701.664 3.347-.884 4.96-1.795 4.475-2.527 10.162.23 11.771 4.827 1.61 4.597-3.622 12.647-6.764 16.808-3.143 4.16-9.522 12.96-15.319 15.832-2.73 1.353-14.363-8.535-16.639-10.96"/>
            <path fill="#619340" d="M125.33 132.553c1.72.134 4.628 2.751 4.942 4.21.444 2.062 2.846 7.84 2.846 7.84.315.6 1.252.321 1.29-.388.088-1.61.38-3.21 1.22-4.725.385-.692.895-1.326 1.51-1.823 3.666-2.956 7.5.343 7.934 4.023.361 3.06-.909 6.195-2.083 9.18-.608 1.546-1.209 3.256-.444 4.713.433.826 1.37 1.301 2.298.984 1.072-.368 1.314-1.419 1.761-2.294 1.466-2.863 5.522-3.704 7.978-2.084 2.455 1.62 3.341 5.003 2.817 8.113-.523 3.11-2.23 5.984-4.146 8.582-.945 1.281-2 2.637-1.797 4.263.121.96.892 1.72 1.853 1.6 1.368-.17 1.892-1.796 2.6-2.982 1.968-3.293 6.933-3.716 9.504-1.338 2.571 2.378 2.944 6.598 1.788 10.213-1.303 4.073-4.219 7.535-7.032 10.767-.662.761-.818 1.88-.255 2.61.782 1.015 2.04.381 3.094-.068 4.072-1.733 8.953-.288 11.101 3.286 2.148 3.574 1.338 8.902-1.843 12.118-2.02 2.044-4.833 3.28-5.824 6.268-.49 1.48.013 3.097 1.361 3.623 1.701.664 3.347-.883 4.96-1.795 4.475-2.527 10.162.231 11.771 4.828 1.61 4.596-3.622 12.646-6.765 16.807-2.932 3.883-8.682 11.805-14.148 15.18-.392.241-1.17.652-1.17.652s-3.17-36.219-14.724-73.229c-6.418-20.559-26.29-47.977-26.29-47.977s.351-.349.968-.62c1.06-.466 2.588-.563 2.925-.537"/>
            <path fill="#316C35" d="M202.536 230.085c-.07 3.94-.664 7.843-1.33 11.691-.865 5.011-2.17 6.06-5.171 9.664-3.002 3.606-7.305 5.815-11.558 5.207-4.253-.606-7.967.165-9.273-4.743-.184-.692-.954-.552-1.121-.276-1.18 1.942-1.796 3.185-3.59 4.11-1.88.971-12.248 4.12-18.902-6.906-2.292-8.58-.938-17.267-.061-26.165.11-1.123.257-2.28.764-3.227.933-1.74 3.1-2.302 4.577-1.186-1.484-.478-2.463-2.296-2.701-4.115-.237-1.82.118-3.657.472-5.44 1.306-6.587 2.61-13.174 3.917-19.76 3.5 3.263 8.147 4.674 12.478 3.79 0 0-11.842-8.298-9.182-14.77 1.93-4.694 4.78-11.155 6.463-15.988 1.177-3.38 3.65-6.482 5.96-8.865 1.973-2.035 3.3-3.452 5.78-4.417 1.5-.584 3.069-1.175 4.634-.873 2.376.462 4.156 2.846 5.56 5.208 2.573 4.326 4.605 9.078 6.358 13.95 2.079 5.778 3.779 11.746 5.077 17.834-5.004 5.27-11.207 8.892-17.778 10.379 5.547.343 11.139-.792 16.253-3.3.616-.303 1.296-.629 1.93-.367 1.265.522 1.212 2.654.989 4.225-.941 6.645-.34 13.618 1.715 19.94l-6.528-.18 7.424 2.846s-3.094 8.2-3.156 11.734"/>
            <path fill="#A4B750" d="M204.167 232.71c-.069 3.939-3.759 14.728-7.99 19.626-3.067 3.551-7.576 5.592-11.87 5.712-3.366.094-7.798-1.236-9.103-6.144-.184-.692-.954-.552-1.12-.276-1.18 1.942 9.09-104.105 10.607-103.812 2.376.462 4.157 2.846 5.561 5.208 2.573 4.326 4.604 9.078 6.357 13.95 2.08 5.778 3.78 11.746 5.078 17.834-5.004 5.27-11.208 8.892-17.778 10.379 5.547.343 11.138-.792 16.253-3.3.615-.303 1.296-.629 1.93-.367 1.265.522 1.211 2.654.99 4.225-.942 6.645-.342 13.618 1.714 19.94l-6.528-.18 7.424 2.846s-1.463 10.823-1.525 14.36"/>
            <path fill="#619440" d="M616.176 296.637c-.714 0-1.566.164-2.513.493-1.854.645-3.836 1.834-5.3 3.183-4.302 3.96-4.623 9.74-4.51 12.404 2.726-.267 8.58-1.41 12.028-6.293 1.077-1.525 1.979-3.477 2.412-5.223.476-1.917.336-3.346-.395-4.026-.387-.358-.978-.538-1.722-.538zm-13.012 16.873l-.023-.37c-.16-2.564-.022-8.995 4.726-13.367 1.535-1.412 3.612-2.659 5.557-3.335 2.233-.777 4-.705 4.974.2 1.197 1.114.99 3.192.606 4.74-.453 1.83-1.398 3.873-2.524 5.47-3.794 5.372-10.317 6.43-12.945 6.633l-.37.03zM593.849 292.327c-.15 0-.292.018-.43.054-.995.26-1.836 1.555-2.304 3.55-.45 1.913-.506 4.223-.152 6.182 1.04 5.753 5.75 9.12 8.06 10.45 1.236-2.443 3.404-8.001 1.128-13.526-.712-1.727-1.878-3.533-3.12-4.834-1.17-1.226-2.281-1.876-3.182-1.876zm5.476 21.244l-.326-.18c-2.25-1.236-7.608-4.796-8.757-11.148-.372-2.052-.312-4.475.159-6.478.54-2.302 1.547-3.756 2.833-4.094 1.582-.416 3.227.873 4.328 2.026 1.302 1.362 2.522 3.255 3.266 5.06 2.506 6.082-.094 12.156-1.33 14.485l-.173.329z"/>
            <g transform="translate(603 313)">
                <mask id="prefix__b" fill="#fff">
                    <use xlink:href="#prefix__a"/>
                </mask>
                <path fill="#619440" d="M1.253 4.9c1.842 2.026 6.258 6.036 12.23 5.887 1.868-.047 3.972-.491 5.63-1.186 1.823-.763 2.886-1.73 2.994-2.722.112-1.024-.797-2.271-2.493-3.422-1.625-1.103-3.763-1.981-5.72-2.35C8.15.022 3.323 3.217 1.254 4.9m11.902 6.624C6.76 11.524 2.154 7.05.45 5.1l-.244-.28.284-.24C2.448 2.92 7.689-.811 14.03.386c2.05.387 4.292 1.308 5.995 2.464 1.957 1.328 2.956 2.787 2.81 4.109-.177 1.627-1.967 2.702-3.438 3.319-1.738.727-3.941 1.192-5.894 1.24-.116.004-.232.006-.348.006" mask="url(#prefix__b)"/>
            </g>
            <path fill="#619440" d="M592.78 328.093l-.614-.4c2.646-4.066 5.534-8.038 8.585-11.804 4.165-5.144 8.74-10.04 13.598-14.552l.499.537c-4.832 4.49-9.384 9.36-13.527 14.477-3.035 3.747-5.908 7.697-8.541 11.742"/>
            <path fill="#619440" d="M615.01 319.869c-9.145 0-14.283-2.846-14.519-2.98l-.1-.056-.05-.104c-.043-.092-4.446-9.365-5.741-17.187l.722-.12c1.205 7.267 5.135 15.825 5.63 16.883.845.437 7.01 3.414 17.115 2.725l.05.732c-1.082.073-2.118.107-3.107.107M552.848 301.552c5.12.467 17.046.486 25.528-7.85 4.794-4.713 9.783-13.555 7.017-17.25-2.76-3.688-12.96-1.6-19.564 2.586-9.836 6.236-12.347 17.548-12.981 22.514m3.645.896c-1.634 0-3.033-.095-4.092-.203l-.37-.038.043-.369c.568-4.854 3.006-16.854 13.363-23.42 7.008-4.44 17.508-6.46 20.543-2.406 3.122 4.171-2.211 13.416-7.09 18.212-7.026 6.905-16.326 8.224-22.397 8.224"/>
            <path fill="#619440" d="M521.061 314.27l-.146-.719c.166-.033 16.723-3.451 31.338-11.987 14.627-8.542 24.911-18.741 25.013-18.843l.518.519c-.102.102-10.449 10.365-25.16 18.957-14.725 8.599-31.396 12.039-31.563 12.073"/>
            <path fill="#619440" d="M569.996 296.089L562.456 295.806 562.483 295.073 570.024 295.357zM571.644 288.521L570.923 288.386 572.121 281.955 572.841 282.088zM575.866 223.492c-2.413 0-5.415 1.074-8.759 3.172-4.322 2.712-8.79 6.869-11.948 11.12-10.433 14.044-7.899 31.435-6.196 38.64 6.964-1.865 23.005-7.732 30.106-23.33 4.739-10.413 5.682-25.628-.255-28.91-.84-.463-1.832-.692-2.947-.692zm-27.44 53.83l-.088-.361c-1.722-7.07-4.565-25.08 6.233-39.614 5.897-7.937 18.05-17.42 24.597-13.803 6.37 3.519 5.537 18.937.568 29.853-7.356 16.162-24.095 22.05-30.95 23.83l-.36.095z"/>
            <path fill="#619440" d="M521.822 314.284l-.586-.44c.136-.182 13.788-18.392 27.16-37.183 13.358-18.771 24.076-40.117 24.183-40.331l.656.328c-.107.214-10.85 21.61-24.243 40.428-13.377 18.799-27.034 37.016-27.17 37.198"/>
            <path fill="#619440" d="M560.529 259.27L559.796 259.261 559.957 245.205 560.69 245.213zM567.23 247.899l-.564-.467c1.027-1.244 2.63-1.859 3.918-2.352l4.468-1.713.262.684-4.468 1.713c-1.27.488-2.711 1.039-3.615 2.135"/>
            <mask id="prefix__d" fill="#fff">
                <use xlink:href="#prefix__c"/>
            </mask>
            <path fill="#FFDDCF" d="M299.434 367.756L493.605 367.756 493.605 245.506 299.434 245.506z" mask="url(#prefix__d)"/>
            <path fill="#FFF" d="M458.572 307.526l-36.873 15.758c-.684.293-1.445-.21-1.445-.953v-4.916c0-.42.253-.797.642-.958l27.92-11.567c.855-.354.853-1.566-.004-1.918l-27.913-11.455c-.39-.16-.644-.54-.644-.96v-4.92c0-.742.757-1.244 1.44-.956l36.873 15.57c.384.162.632.539.632.956v5.365c0 .415-.246.79-.628.954M406.543 333.97h-3.661c-.465 0-.873-.31-1-.759l-16.425-58.73c-.185-.662.313-1.318.999-1.318h3.622c.465 0 .874.31.999.757l16.465 58.732c.185.661-.312 1.317-1 1.317M333.839 306.572v-5.365c0-.417.25-.794.634-.956l36.87-15.57c.685-.288 1.442.214 1.442.956v4.92c0 .42-.254.8-.643.96l-27.878 11.455c-.855.352-.858 1.564-.003 1.918l27.884 11.567c.388.16.64.539.64.958v4.916c0 .744-.76 1.246-1.445.953l-36.872-15.758c-.381-.164-.63-.54-.63-.954" mask="url(#prefix__d)"/>
            <path fill="#F7C7BA" d="M308.503 232.801h176.034c5.008 0 9.069 4.06 9.069 9.068v3.637H299.435v-3.637c0-5.008 4.06-9.068 9.068-9.068" mask="url(#prefix__d)"/>
            <path fill="#FFF" d="M309.74 238.667c0-1.276 1.036-2.313 2.313-2.313 1.278 0 2.314 1.036 2.314 2.313 0 1.279-1.036 2.314-2.314 2.314-1.277 0-2.313-1.035-2.313-2.314M319.978 238.667c0-1.276 1.036-2.313 2.313-2.313 1.278 0 2.314 1.036 2.314 2.313 0 1.279-1.036 2.314-2.314 2.314-1.277 0-2.313-1.035-2.313-2.314M330.217 238.667c0-1.276 1.036-2.313 2.313-2.313 1.278 0 2.314 1.036 2.314 2.313 0 1.279-1.036 2.314-2.314 2.314-1.277 0-2.313-1.035-2.313-2.314" mask="url(#prefix__d)"/>
            <path fill="#FDC854" d="M149.312 355.107h77.892c2.348 0 4.253 1.903 4.253 4.253v3.836c0 2.349-1.905 4.253-4.253 4.253h-77.892c-2.35 0-4.253-1.904-4.253-4.253v-3.836c0-2.35 1.904-4.253 4.253-4.253" mask="url(#prefix__d)"/>
            <path fill="#F89F4F" d="M145.059 365.09c0 1.303 1.056 2.358 2.359 2.358h81.679c1.303 0 2.359-1.055 2.359-2.359v-1.27h-86.397v1.27z" mask="url(#prefix__d)"/>
            <path fill="#FDC854" d="M149.312 342.764h77.892c2.348 0 4.253 1.904 4.253 4.253v3.836c0 2.35-1.905 4.254-4.253 4.254h-77.892c-2.35 0-4.253-1.905-4.253-4.254v-3.836c0-2.349 1.904-4.253 4.253-4.253" mask="url(#prefix__d)"/>
            <path fill="#F89F4F" d="M145.059 352.747c0 1.304 1.056 2.36 2.359 2.36h81.679c1.303 0 2.359-1.056 2.359-2.36v-1.271h-86.397v1.27z" mask="url(#prefix__d)"/>
            <path fill="#FDC854" d="M149.312 330.421h77.892c2.348 0 4.253 1.904 4.253 4.253v3.837c0 2.348-1.905 4.253-4.253 4.253h-77.892c-2.35 0-4.253-1.905-4.253-4.253v-3.837c0-2.349 1.904-4.253 4.253-4.253" mask="url(#prefix__d)"/>
            <path fill="#F89F4F" d="M145.059 340.405c0 1.303 1.056 2.359 2.359 2.359h81.679c1.303 0 2.359-1.056 2.359-2.36v-1.27h-86.397v1.27z" mask="url(#prefix__d)"/>
            <path fill="#FDC854" d="M144.58 318.079h77.892c2.348 0 4.253 1.904 4.253 4.254v3.836c0 2.348-1.905 4.253-4.253 4.253H144.58c-2.35 0-4.253-1.905-4.253-4.253v-3.836c0-2.35 1.904-4.254 4.253-4.254" mask="url(#prefix__d)"/>
            <path fill="#F89F4F" d="M140.327 328.062c0 1.303 1.056 2.359 2.359 2.359h81.679c1.303 0 2.359-1.056 2.359-2.359v-1.271h-86.397v1.271z" mask="url(#prefix__d)"/>
            <path fill="#FDC854" d="M149.312 305.737h77.892c2.348 0 4.253 1.904 4.253 4.253v3.836c0 2.349-1.905 4.253-4.253 4.253h-77.892c-2.35 0-4.253-1.904-4.253-4.253v-3.836c0-2.35 1.904-4.253 4.253-4.253" mask="url(#prefix__d)"/>
            <path fill="#F89F4F" d="M145.059 315.72c0 1.303 1.056 2.358 2.359 2.358h81.679c1.303 0 2.359-1.055 2.359-2.359v-1.27h-86.397v1.27z" mask="url(#prefix__d)"/>
            <path fill="#FDC854" d="M146.072 293.394h77.892c2.349 0 4.253 1.904 4.253 4.253v3.837c0 2.348-1.904 4.253-4.253 4.253h-77.892c-2.349 0-4.253-1.905-4.253-4.253v-3.837c0-2.349 1.904-4.253 4.253-4.253" mask="url(#prefix__d)"/>
            <path fill="#F89F4F" d="M141.82 303.377c0 1.303 1.056 2.36 2.36 2.36h81.677c1.303 0 2.36-1.057 2.36-2.36v-1.272h-86.398v1.272z" mask="url(#prefix__d)"/>
            <path fill="#FDC854" d="M144.58 281.051h77.892c2.348 0 4.253 1.904 4.253 4.253v3.837c0 2.348-1.905 4.253-4.253 4.253H144.58c-2.35 0-4.253-1.905-4.253-4.253v-3.837c0-2.349 1.904-4.253 4.253-4.253" mask="url(#prefix__d)"/>
            <path fill="#F89F4F" d="M140.327 291.035c0 1.303 1.056 2.359 2.359 2.359h81.679c1.303 0 2.359-1.056 2.359-2.36v-1.27h-86.397v1.27z" mask="url(#prefix__d)"/>
            <path fill="#FDC854" d="M144.983 268.709h77.891c2.35 0 4.254 1.904 4.254 4.253v3.837c0 2.348-1.905 4.252-4.254 4.252h-77.89c-2.35 0-4.254-1.904-4.254-4.252v-3.837c0-2.35 1.904-4.253 4.253-4.253" mask="url(#prefix__d)"/>
            <path fill="#F89F4F" d="M140.73 278.692c0 1.303 1.057 2.359 2.36 2.359h81.678c1.303 0 2.36-1.056 2.36-2.36v-1.27H140.73v1.27z" mask="url(#prefix__d)"/>
            <path fill="#FDC854" d="M143.774 256.367h77.89c2.35 0 4.255 1.904 4.255 4.253v3.836c0 2.349-1.905 4.253-4.254 4.253h-77.891c-2.35 0-4.253-1.904-4.253-4.253v-3.836c0-2.35 1.904-4.253 4.253-4.253" mask="url(#prefix__d)"/>
            <path fill="#F89F4F" d="M139.52 266.35c0 1.303 1.057 2.358 2.36 2.358h81.678c1.303 0 2.36-1.055 2.36-2.359v-1.27H139.52v1.27z" mask="url(#prefix__d)"/>
            <path fill="#FDC854" d="M144.58 244.024h77.892c2.348 0 4.253 1.904 4.253 4.253v3.837c0 2.348-1.905 4.253-4.253 4.253H144.58c-2.35 0-4.253-1.905-4.253-4.253v-3.837c0-2.349 1.904-4.253 4.253-4.253" mask="url(#prefix__d)"/>
            <path fill="#F89F4F" d="M140.327 254.007c0 1.303 1.056 2.36 2.359 2.36h81.679c1.303 0 2.359-1.057 2.359-2.36v-1.27h-86.397v1.27z" mask="url(#prefix__d)"/>
            <path fill="#FDC854" d="M142.564 231.681h77.891c2.35 0 4.254 1.904 4.254 4.253v3.837c0 2.348-1.905 4.253-4.254 4.253h-77.89c-2.35 0-4.254-1.905-4.254-4.253v-3.837c0-2.349 1.904-4.253 4.253-4.253" mask="url(#prefix__d)"/>
            <path fill="#F89F4F" d="M138.31 241.665c0 1.303 1.058 2.359 2.36 2.359h81.679c1.303 0 2.36-1.056 2.36-2.36v-1.27H138.31v1.27z" mask="url(#prefix__d)"/>
            <path fill="#FDC854" d="M144.58 219.34h77.892c2.348 0 4.253 1.902 4.253 4.252v3.836c0 2.35-1.905 4.253-4.253 4.253H144.58c-2.35 0-4.253-1.904-4.253-4.253v-3.836c0-2.35 1.904-4.253 4.253-4.253" mask="url(#prefix__d)"/>
            <path fill="#F89F4F" d="M140.327 229.322c0 1.304 1.056 2.359 2.359 2.359h81.679c1.303 0 2.359-1.055 2.359-2.36v-1.27h-86.397v1.27z" mask="url(#prefix__d)"/>
            <path fill="#FDC854" d="M186.303 327.22c.573-22.778-17.428-41.709-40.206-42.282-22.778-.574-41.709 17.426-42.282 40.204-.573 22.778 17.427 41.71 40.204 42.283 22.78.573 41.71-17.427 42.284-40.205" mask="url(#prefix__d)"/>
            <path fill="#F89F4F" d="M178.096 327.013c.459-18.246-13.96-33.409-32.205-33.869-18.246-.46-33.41 13.96-33.87 32.205-.46 18.246 13.96 33.41 32.205 33.87 18.246.46 33.41-13.96 33.87-32.206" mask="url(#prefix__d)"/>
            <path fill="#FDC854" d="M153.705 311.2c.957-.006 1.726-.97 1.718-2.15-.01-1.18-.791-2.132-1.747-2.125l-10.394.07-6.93.05c-.955.006-1.724.969-1.716 2.149.008 1.18.79 2.134 1.747 2.127l6.929-.048c2.255-.015 4.173 1.763 4.908 4.243l-11.807.08c-.957.008-1.726.97-1.718 2.152.009 1.18.79 2.133 1.747 2.127l11.807-.082c-.7 2.489-2.593 4.295-4.848 4.31l-6.93.048c-.224 0-.45.059-.66.167-.421.22-.757.639-.931 1.165-.173.524-.17 1.114.012 1.634.088.265.218.499.382.695l13.973 17.006c.342.417.787.624 1.23.62.444-.003.886-.215 1.223-.633.67-.837.66-2.194-.021-3.023l-10.996-13.383 2.747-.02c4.185-.028 7.655-3.73 8.425-8.612l1.91-.012c.956-.007 1.725-.97 1.717-2.151-.008-1.18-.791-2.132-1.747-2.127l-1.91.014c-.27-1.59-.855-3.022-1.63-4.266l3.51-.024z" mask="url(#prefix__d)"/>
            <path fill="#57575E" d="M158.75 122.183c-2.293-4.996-3.102-12.359.74-15.75 3.696-3.259 8.492-.026 12.03-3.323 3.528-3.287-.065-8.182 2.494-13.456 3.9-8.035 19.706-12.663 26.657-6.208 3.182 2.954 4.914 8.61 3.153 12.761-2.07 4.876-7.331 3.815-10.494 9.401-2.913 5.143.237 8.36-2.72 11.82-3.668 4.292-9.824.873-13.62 5.151-3.685 4.154-.093 10.353-2.984 11.641-3.3 1.471-11.824-4.557-15.256-12.037" mask="url(#prefix__d)"/>
            <path fill="#FDC854" d="M209.096 98.62c0-2.948-2.39-5.34-5.34-5.34-2.949 0-5.339 2.392-5.339 5.34 0 2.95 2.39 5.34 5.34 5.34 2.948 0 5.34-2.39 5.34-5.34" mask="url(#prefix__d)"/>
            <path fill="#F26D6D" d="M259.296 178.511l1.03.07c.383.026.765.052 1.14.125.81 1.107 2.243 1.8 3.612 1.877.559.032 1.117-.037 1.673-.105.224-.028.428-.085.757-.159.61-.137 1.113-.269 1.28-.316.924-.256 2.779-.77 3.218-2.08.043-.128.403-.7.082-.819-2.146-.792-5.084-1.472-7.041-1.69-.032-.516.105-1.005.513-1.324.253-.197.557-.313.84-.46.286-.148.565-.343.704-.632.138-.288.083-.689-.192-.853-.306-.184-.694-.007-1.005.17l-1.58.894c-.471.267-.95.54-1.317.94-.181.196-.342.43-.59.532-.216.092-.462.065-.696.038-.612-.07-1.224-.144-1.836-.216-.201 1.323-.391 2.685-.592 4.008" mask="url(#prefix__d)"/>
            <path fill="#FFA331" d="M206.32 133.848s1.583 21.842 7.645 33.607c5.79 11.24 45.597 11.21 45.597 11.21l.626-4.305s-17.056-7.71-34.74-11.116c0 0-2.395-17.292-7.142-32.234-.864-2.72-4.215-3.692-6.4-1.855l-5.586 4.693z" mask="url(#prefix__d)"/>
            <path fill="#FFA331" d="M223.41 167.141l-.526-.797c1.12-.74 1.927-1.973 2.158-3.295l.942.164c-.276 1.577-1.238 3.045-2.573 3.928" mask="url(#prefix__d)"/>
            <path fill="#FFC581" d="M277.147 291.766L283.434 291.766 283.434 290.236 277.147 290.236z" mask="url(#prefix__d)"/>
            <path fill="#A29C8F" d="M277.173 290.236s-2.728 2.625 0 5.353h16.231c.078-.323.422-1.898-.519-3.456-.759-1.256-1.9-1.752-2.277-1.897h-7.774s-2.813 1.647-5.66 0" mask="url(#prefix__d)"/>
            <path fill="#57575E" d="M276.693 297.331L295.723 297.331 295.723 295.589 276.693 295.589zM290.608 290.236c2.542 0 4.603 2.062 4.603 4.604v.749h-2.486c.051-.56.058-1.426-.24-2.416-.466-1.551-1.41-2.517-1.877-2.937" mask="url(#prefix__d)"/>
            <path fill="#FFC581" d="M282.19 287.363L282.574 290.236 277.813 290.395 277.553 287.182z" mask="url(#prefix__d)"/>
            <path fill="#57575E" d="M286.748 291.972L285.943 290.697 286.864 290.116 287.669 291.39zM285.05 292.123L284.37 290.765 285.344 290.277 286.024 291.636z" mask="url(#prefix__d)"/>
            <path fill="#7F786A" d="M282.394 287.47s-5.701-45.452-12.092-80.468c-1.241-6.799-8.053-11.773-14.79-13.317-11.895-2.727-29.435-6.173-40.648-6.814 0 0-.05-9.372-7.122-22.265l-29.645 4.685s-8.528 15.765-8.281 20.616c0 0-4.152 41.82 58.36 30.561l21.484-3.5c7.53 24.483 21.638 56.534 27.916 70.501h4.818z" mask="url(#prefix__d)"/>
            <path fill="#7F786A" d="M276.385 288.387L283.079 288.387 283.079 285.976 276.385 285.976z" mask="url(#prefix__d)"/>
            <path fill="#A29C8F" d="M244.026 193.102c-11.688-2.185-27.614-3.939-37.806-4.49 0 0-1.767-15.987-4.022-22.743l-28.09 4.902s-10.015 15.512-9.769 20.354c0 0-2.013 20.287 17.907 28.768h51.022l2.545-.414.076.414c2.283 12.37 12.373 64.491 13.558 69.966l3.798-3.425s3.661-53.09 4.532-66.54c.421-6.49.77-5.729 1.003-11.65.327-8.342-6.547-13.609-14.754-15.142" mask="url(#prefix__d)"/>
            <path fill="#FFBF4D" d="M214.472 182.522c0-17.683 3.166-30.511 5.262-38.166.458-1.67.37-5.487.45-10.313.062-3.734-1.927-7.202-5.177-9.043l-11.62-6.583-10.167.768c-2.38.18-4.648 1.108-6.44 2.685l-.041.037c-4.151 3.685-6.844 28.96-6.844 28.961-.545 5.114-2.031 12.518-6.436 21.355 4.027 2.319 9.212 4.825 15.49 6.794 8.937 2.803 19.719 3.459 25.523 3.505" mask="url(#prefix__d)"/>
            <path fill="#FFE2B7" d="M198.933 115.773l1.57-8.352 8.357 1.244-1.745 9.329c-.151 1.721 1.639 3.463 3.143 4.315l2.717 1.539c.056 5.036-.25 11.427-2.4 11.941-1.275.305-2.67-1.587-4.808-4.203-2.507-3.069-6.266-7.412-11.42-12.486 1.876-.142 4.106-1.51 4.586-3.327" mask="url(#prefix__d)"/>
            <path fill="#FFC581" d="M206.209 116.388c.413.035.819.014 1.216-.053l1.435-7.67-8.357-1.244-.31 1.646c.353 3.511 2.758 7.046 6.016 7.321" mask="url(#prefix__d)"/>
            <path fill="#FFE2B7" d="M210.58 100.143c.254.274 2.182 2.413 2.17 5.446-.015 4.03-3.448 8.776-7.456 8.436-3.834-.324-6.488-5.16-6.004-9.165.43-3.547 3.414-7.183 6.73-7.145 2.33.028 4.033 1.861 4.56 2.428" mask="url(#prefix__d)"/>
            <path fill="#57575E" d="M211.35 95.94c.745 1.626-.771 3.992-2.165 5.217-3.435 3.019-9.792 2.32-10.808-.055-.726-1.694 1.25-4.283 3.08-5.553 3.407-2.361 8.837-1.912 9.893.392" mask="url(#prefix__d)"/>
            <path fill="#FFC581" d="M248.173 291.682L254.338 291.682 254.338 290.003 248.173 290.003z" mask="url(#prefix__d)"/>
            <path fill="#FFA331" d="M188.939 179.083c8.938 2.804 19.729 3.394 25.533 3.439.498-4.981 0-6.226-.924-9.893-3.421-2.194-18.831-8.23-21.365-9.596-3.014-1.625 1.489-14.108-.812-16.057-1.78-1.507-4.94-9.572-9.792-8.141-1.085 6.388-1.693 12.099-1.693 12.099-.546 5.114-2.031 12.518-6.436 21.356 4.027 2.318 9.21 4.824 15.489 6.793" mask="url(#prefix__d)"/>
            <path fill="#7F786A" d="M248.104 287.726L253.805 287.726 253.805 285.315 248.104 285.315z" mask="url(#prefix__d)"/>
            <path fill="#A29C8F" d="M248.173 290.003s-2.865 2.757 0 5.622h12.39v-5.622h-6.444s-2.955 1.73-5.946 0" mask="url(#prefix__d)"/>
            <path fill="#57575E" d="M255.729 295.625h9.67v-1.02c0-2.543-2.06-4.602-4.601-4.602h-.467c-2.542 0-4.602 2.06-4.602 4.601v1.022z" mask="url(#prefix__d)"/>
            <path fill="#57575E" d="M247.668 297.331L265.814 297.331 265.814 295.626 247.668 295.626z" mask="url(#prefix__d)"/>
            <path fill="#FFC581" d="M248.523 290.151L253.439 290.151 253.439 287.726 248.523 287.726z" mask="url(#prefix__d)"/>
            <path fill="#57575E" d="M255.733 292.06l-.941-.547c.426-.734 1.045-1.34 1.788-1.75l.527.951c-.571.317-1.046.782-1.374 1.346M254.078 291.617l-.867-.66c.48-.628 1.094-1.171 1.777-1.57l.548.942c-.56.327-1.065.772-1.458 1.288" mask="url(#prefix__d)"/>
            <path fill="#FFE2B7" d="M197.405 103.754c.113-1.02 1.034-1.757 2.054-1.644 1.023.115 1.758 1.035 1.644 2.056-.114 1.022-1.034 1.757-2.055 1.644-1.022-.115-1.757-1.035-1.643-2.056" mask="url(#prefix__d)"/>
            <path fill="#FFBF4D" d="M198.652 105.357c.06-.408-.224-.788-.632-.848-.409-.058-.788.225-.848.633-.059.409.224.788.633.848.41.059.788-.224.847-.633" mask="url(#prefix__d)"/>
            <path fill="#7F786A" d="M236.011 219.645L235.265 218.851 237.863 216.413 238.608 217.207z" mask="url(#prefix__d)"/>
            <path fill="#FFA331" d="M210.253 136.15c-.282 0-.567-.074-.827-.23-1.352-.802-2.419-2.02-3.36-3.091l-12.054-13.735.718-.631 12.053 13.735c.895 1.019 1.91 2.176 3.132 2.903.28.166.65.1.841-.153.334-.44.596-.924.78-1.44.305-.862.393-1.816.478-2.74l.653-7.1.951.088-.653 7.1c-.09.982-.183 1.997-.53 2.973-.216.607-.525 1.178-.917 1.696-.309.407-.782.625-1.265.625" mask="url(#prefix__d)"/>
            <path fill="#7F786A" d="M197.772 189.39l-.217-1.067c2.884-.584 5.827-.705 8.748-.359l-.13 1.082c-2.804-.334-5.631-.218-8.401.344" mask="url(#prefix__d)"/>
            <path fill="#FB9C98" d="M227.424 183.732c-.517-.621-.394-1.808.524-2.561.583-.114 1.433-.237 2.456-.235 3.01.008 5.24 1.099 6.719 1.843.79.397 1.797.973 2.892 1.794.568.427.188 1.33-.514 1.224l-10.57-1.591c-.075.009-1.008.124-1.507-.474" mask="url(#prefix__d)"/>
            <path fill="#FFBF4D" d="M193.976 120.606c-4.19-2.278-9.392.207-10.282 4.894-1.986 10.452-5.118 30.126-2.216 37.605 4.035 10.397 46.021 20.463 46.021 20.463l.751-2.504-35.152-21.229s5.733-36.527 1.02-39.152l-.142-.077" mask="url(#prefix__d)"/>
            <path fill="#FFA331" d="M213.383 171.817l-15.462-8.902c-1.34-.771-3.006-1.731-3.825-3.368-.755-1.506-.62-3.276-.51-4.7l1.213-15.77.952.074-1.212 15.77c-.105 1.374-.225 2.928.41 4.199.692 1.38 2.22 2.259 3.448 2.967l15.463 8.902-.477.828z" mask="url(#prefix__d)"/>
            <path fill="#7F786A" d="M204.269 188.098l19.167.05 36.173-35.989c.379-.377.89-.588 1.426-.586l30.868.08c1.777.004 2.678 2.136 1.444 3.414l-35.027 36.236-54.06-.139.009-3.066z" mask="url(#prefix__d)"/>
            <path fill="#7F786A" d="M258.32 191.303l-54.06-.139.01-3.066 19.165.05 36.173-35.99c.38-.376.892-.587 1.426-.585l1.702.003-.548 35.724-3.868 4.003z" mask="url(#prefix__d)"/>
            <path fill="#A29C8F" d="M259.591 170.78c1.813-2.521 4.668-3.571 6.375-2.345 1.705 1.227 1.618 4.267-.195 6.789-1.814 2.522-4.668 3.573-6.374 2.346-1.705-1.227-1.618-4.267.195-6.79" mask="url(#prefix__d)"/>
            <path fill="#FDC854" d="M220.471 222.357l12.35-2.394h-53.315c8.655 3.686 22.064 5.797 40.965 2.394" mask="url(#prefix__d)"/>
            <path fill="#FFE2B7" d="M270.039 333.06c-3.505 1.128-10.663 4.44-15.271 13.733-3.691 7.442-3.856 14.908-3.781 18.046h41.773c.076-3.138-.09-10.604-3.78-18.046-4.61-9.293-11.766-12.605-15.272-13.734-.384-.124-.384-.668 0-.792 3.506-1.13 10.663-4.442 15.272-13.735 3.718-7.497 3.858-15.02 3.778-18.117h-41.77c-.08 3.097.06 10.62 3.78 18.117 4.608 9.293 11.766 12.605 15.27 13.735.386.124.386.668 0 .792" mask="url(#prefix__d)"/>
            <path fill="#7F786A" d="M249.701 367.933L294.367 367.933 294.367 364.839 249.701 364.839zM249.701 300.488L294.367 300.488 294.367 297.394 249.701 297.394z" mask="url(#prefix__d)"/>
            <path fill="#FFA331" d="M290.728 304.766c-.344 3.336-1.097 12.64-8.688 20.136-2.817 2.782-5.754 4.594-8.17 5.776-.622.305-1.305.46-1.997.46-.69 0-1.375-.155-1.996-.46-2.416-1.182-5.354-2.994-8.17-5.776-7.592-7.497-8.345-16.8-8.688-20.136h37.71zM272.034 362.62c-1.529 0-2.844.91-3.434 2.22h6.868c-.59-1.31-1.906-2.22-3.434-2.22" mask="url(#prefix__d)"/>
            <path fill="#FFA331" d="M272.553 363.283L271.196 363.283 271.353 330.727 272.396 330.727z" mask="url(#prefix__d)"/>
            <path fill="#FFBF4D" d="M255.39 308.49c-1.009.578.46 5.233 2.048 8.428 2.18 4.384 5.96 8.779 7.085 8.18 1.074-.567-.238-5.685-2.377-9.57-2.15-3.902-5.723-7.63-6.757-7.038" mask="url(#prefix__d)"/>
            <path fill="#FFF4DD" d="M264.575 337.211c1.008.577-.46 5.233-2.05 8.428-2.18 4.383-5.957 8.778-7.084 8.181-1.074-.569.239-5.687 2.378-9.57 2.149-3.903 5.722-7.63 6.756-7.039" mask="url(#prefix__d)"/>
            <path fill="#FFA331" d="M434.435 97.313c-8.07-.529-15.539 4.27-18.417 11.828-3.53 9.274-7.768 21.134-8.553 26.564 0 0-18.485 18.032-26.015 25.173l4.004 3.465s25.158-16.358 32.826-23.55c7.668-7.191 16.155-43.48 16.155-43.48" mask="url(#prefix__d)"/>
            <path fill="#F6A19E" d="M482.943 361.466L483.312 362.563 480.829 365.156 478.199 364.001 477.228 362.563 476.945 361.43z" mask="url(#prefix__d)"/>
            <path fill="#FFC581" d="M419.596 361.427L419.745 362.563 418.547 364.535 415.026 364.203 413.975 363.559 413.661 362.563 413.671 361.119z" mask="url(#prefix__d)"/>
            <path fill="#47B27C" d="M453.491 173.16c-.888-.132-1.404-2.308-1.069-4.057.503-2.633 2.858-4.04 3.256-4.268.354.716.91 2.124.661 3.88-.315 2.222-1.86 4.592-2.848 4.445" mask="url(#prefix__d)"/>
            <path fill="#47B27C" d="M453.387 171.931c.246.863-1.524 2.231-3.255 2.647-2.608.627-4.858-.938-5.232-1.206.507-.618 1.56-1.704 3.262-2.202 2.155-.63 4.952-.199 5.225.761" mask="url(#prefix__d)"/>
            <path fill="#47B27C" d="M452.184 170.87c-.544.715-2.699.116-4.069-1.021-2.063-1.713-2.157-4.454-2.165-4.913.797.036 2.298.229 3.716 1.294 1.795 1.35 3.123 3.847 2.518 4.64" mask="url(#prefix__d)"/>
            <path fill="#57575E" d="M456.36 78.645h.877c2.438 0 4.415-1.977 4.415-4.415v-3.997h-5.292v8.412z" mask="url(#prefix__d)"/>
            <path fill="#A29C8F" d="M468.578 161.96s8.155 15.263 15.374 199.674l-9.188-.04-33.147-166.088V161.96h26.96z" mask="url(#prefix__d)"/>
            <path fill="#A29C8F" d="M423.52 151.686s-18.04 14.188-17.954 52.283c.04 17.062 8.105 157.151 8.105 157.151l5.925.307c10.508-53.337 18.112-105.755 26.791-160 1.242-.178 7.606-.64 8.71-1.938 2.417-2.844.057-7.799.11-9.98.203-8.724.258-28.675-.308-36.028-6.98.578-24.82-1.155-31.379-1.795" mask="url(#prefix__d)"/>
            <path fill="#7F786A" d="M413.672 361.12s-8.066-140.09-8.105-157.15c-.086-38.096 17.954-52.284 17.954-52.284 1.52.178 3.074.345 4.65.5l4.245 2.707s-12.762 74.65-12.454 119.287c.17 24.803.149 59.205.098 84.88-.155.789-.307 1.578-.463 2.368l-5.925-.308z" mask="url(#prefix__d)"/>
            <path fill="#FFBF4D" d="M420.485 162.607c-2.473-.604-4.181-2.858-4.075-5.402.538-12.848 2.187-27.44 5.827-43.202 1.605-6.953 3.445-13.47 5.41-19.537l23.266-5.147 18 7.05c1.308 10.282 2.224 21.907 2.304 34.657.073 11.562-.554 22.2-1.548 31.745-.101.969-.844 1.748-1.807 1.897-6.19.952-13.562 1.599-21.856 1.37-9.876-.273-18.495-1.716-25.521-3.431" mask="url(#prefix__d)"/>
            <path fill="#FFA331" d="M418.406 162.08c-1.257-.33-2.118-1.483-2.075-2.784.442-13.347 2.066-28.67 5.905-45.293 1.606-6.952 2.832-13.58 4.798-19.646 4.971-1.1 10.557-2.09 15.529-3.19 1.625.257 6.175-2.778 7.483-.863 1.72 2.522-1.467 9.604-1.763 10.695-1.678 6.172-6.175 30.417-12.308 64.343-6.666-.74-12.57-1.95-17.569-3.262" mask="url(#prefix__d)"/>
            <path fill="#FFE2B7" d="M458.569 77.964L456.914 91.669 450.71 94.496 445.845 90.441 447.736 75.833z" mask="url(#prefix__d)"/>
            <path fill="#FFC581" d="M447.735 75.834l10.833 2.13-.119.99c-1.136 4.689-5.818 9.036-10.279 8.07-.643-.14-1.24-.383-1.792-.707l1.357-10.483z" mask="url(#prefix__d)"/>
            <path fill="#FFE2B7" d="M449.044 65.159c-.4.23-3.449 2.057-4.534 5.64-1.44 4.757.892 11.6 5.742 12.65 4.641 1.005 9.523-3.74 10.401-8.638.778-4.34-1.426-9.71-5.352-10.865-2.759-.812-5.43.734-6.257 1.213" mask="url(#prefix__d)"/>
            <path fill="#57575E" d="M444.553 60.702c-1.142 2.19 3.69 6.579 4.169 7.006 4.123 3.687 10.819 6.018 12.77 3.849 1.435-1.593.114-5.406-1.624-7.667-4.228-5.497-13.97-5.77-15.315-3.188" mask="url(#prefix__d)"/>
            <path fill="#FFE2B7" d="M461.98 74.381c.236-1.246-.583-2.447-1.83-2.683-1.246-.236-2.447.583-2.682 1.83-.236 1.246.583 2.447 1.83 2.683 1.245.235 2.447-.584 2.682-1.83" mask="url(#prefix__d)"/>
            <path fill="#FFBF4D" d="M467.358 159.6c-1.464 1.101-2.756 2.041-3.8 2.786l-.5.357c-1.435 1.02-2.283 1.586-2.283 1.586l-.351-2.01-.703-4.02s7.213-11.04 14.179-20.05c.162-.21.323-.419.485-.626.647-.829 1.289-1.636 1.923-2.415 1.21-1.487 2.386-2.86 3.486-4.049 2.775.468 5.657 1.242 8.582 2.027 1.71.46 3.316.975 4.815 1.52-5.487 8.19-15.298 16.702-22.696 22.488-1.107.866-2.16 1.672-3.137 2.405" mask="url(#prefix__d)"/>
            <path fill="#FFBF4D" d="M479.56 115.806c2.279-2.646 4.596-5.338 6.492-8.185 4.616 3.794 8.547 8.018 10.534 12.424 1.923 4.264.105 9.515-3.548 14.892-4.615.05-9.748-1.142-14.087-2.849 1.524-1.715 2.927-3.13 4.109-4.063 0 0-3.804-3.089-8.313-7.226 1.963-1.82 3.555-3.53 4.814-4.993" mask="url(#prefix__d)"/>
            <path fill="#57575E" d="M419.746 362.563s2.93 2.821 0 5.752h-12.678v-5.752h6.594s3.023 1.77 6.084 0" mask="url(#prefix__d)"/>
            <path fill="#57575E" d="M412.015 368.315h-9.894v-1.625c0-2.279 1.848-4.127 4.127-4.127h1.64c2.28 0 4.127 1.848 4.127 4.127v1.625z" mask="url(#prefix__d)"/>
            <path fill="#7F786A" d="M401.697 369.237L420.261 369.237 420.261 368.315 401.697 368.315z" mask="url(#prefix__d)"/>
            <path fill="#57575E" d="M477.227 362.563s-2.93 2.821 0 5.752h14.976l-.538-5.752h-8.354s-3.023 1.77-6.084 0" mask="url(#prefix__d)"/>
            <path fill="#7F786A" d="M476.711 369.237L497.162 369.237 497.162 368.315 476.711 368.315z" mask="url(#prefix__d)"/>
            <path fill="#57575E" d="M491.666 362.563c2.732 0 4.947 2.215 4.947 4.947v.805h-4.947v-5.752z" mask="url(#prefix__d)"/>
            <path fill="#FFA331" d="M427.033 94.357c-6.082 1.253-10.822 6.026-12.03 12.117l-1.939 9.762 12.488.393 1.481-22.272z" mask="url(#prefix__d)"/>
            <path fill="#FFBF4D" d="M474.746 120.8c-5.87-5.387-12.938-12.549-14.37-16.988-2.534-7.85 3.043-9.455 3.043-9.455s11.995 2.754 22.633 13.264c-1.897 2.847-4.214 5.54-6.492 8.185-1.258 1.462-2.85 3.172-4.814 4.993M421.057 125.77L424.405 110.13 422.052 109.626 418.703 125.266z" mask="url(#prefix__d)"/>
            <path fill="#7F786A" d="M450.552 94.497L448.107 96.688 449.068 100.348 452 97.856z" mask="url(#prefix__d)"/>
            <path fill="#7F786A" d="M449.068 100.347s-11.893 15.285-2.69 34.074l6.096-11.485-3.406-22.589z" mask="url(#prefix__d)"/>
            <path fill="#FB9C98" d="M380.098 162.582c-3.965.082-4.906.52-4.97.928-.09.562 1.387 1.7 2.928 1.348 1.08-.247 1.9-1.158 2.042-2.276" mask="url(#prefix__d)"/>
            <path fill="#FFC581" d="M385.22 163.955l-2.304 1.97c-.238.622-.725 1.654-1.702 2.6-.464.45-2.428 2.352-4.56 1.823-1.502-.373-2.837-1.89-2.558-2.671.094-.262.36-.418.618-.516l7.323-6.262 3.183 3.056z" mask="url(#prefix__d)"/>
            <path fill="#7F786A" d="M517.16 209.873c-4.126-1.522-6.236-6.103-4.712-10.23 1.523-4.124 6.102-6.234 10.228-4.71 4.126 1.522 6.235 6.102 4.713 10.228-1.524 4.125-6.103 6.235-10.229 4.712m-177.35-38.188c11.871 4.382 24.633 1.625 33.578-6.097l140.65 51.924c8.398 3.1 17.72-1.195 20.821-9.593 3.1-8.4-1.195-17.722-9.594-20.822l-140.648-51.924c-1.78-11.684-9.69-22.071-21.562-26.453-11.94-4.41-24.838-1.552-33.804 6.316l16.092 5.94c7.146 2.639 10.801 10.57 8.162 17.716l-1.477 4.004c-2.639 7.146-10.57 10.8-17.717 8.162L318.2 144.91c1.685 11.814 9.63 22.352 21.611 26.775" mask="url(#prefix__d)"/>
            <path fill="#A29C8F" d="M392.742 151.286c-1.34.617-2.36 1.72-2.873 3.106-.51 1.385-.452 2.886.165 4.227.618 1.34 1.721 2.36 3.106 2.872l99.518 36.739c1.385.512 2.886.454 4.227-.165 1.34-.617 2.36-1.72 2.872-3.105v-.001c.511-1.385.453-2.886-.165-4.227-.618-1.341-1.72-2.36-3.106-2.872l-99.517-36.74c-.624-.23-1.27-.345-1.917-.345-.788 0-1.574.17-2.31.51m98.228 51.517l-99.517-36.741c-2.606-.962-4.68-2.88-5.844-5.403-1.162-2.523-1.272-5.348-.31-7.953.962-2.606 2.881-4.682 5.404-5.844 2.523-1.163 5.348-1.272 7.953-.311l99.517 36.74c2.606.962 4.681 2.88 5.844 5.403 1.162 2.524 1.272 5.348.31 7.954v-.001c-.96 2.607-2.88 4.682-5.403 5.844-1.387.639-2.865.96-4.347.96-1.215 0-2.433-.216-3.607-.648" mask="url(#prefix__d)"/>
            <path fill="#FFE2B7" d="M457.393 160.318c-4.76.099-5.887.623-5.965 1.113-.106.676 1.666 2.042 3.515 1.618 1.295-.295 2.28-1.39 2.45-2.731" mask="url(#prefix__d)"/>
            <path fill="#FFE2B7" d="M463.54 161.965l-2.765 2.364c-.286.746-.87 1.986-2.043 3.121-.557.54-2.913 2.822-5.473 2.187-1.802-.448-3.404-2.268-3.068-3.206.113-.314.432-.5.741-.618l8.788-7.515 3.82 3.667z" mask="url(#prefix__d)"/>
            <path fill="#FFC581" d="M99.685 104.227c7.7-.505 14.824 4.072 17.57 11.283 3.367 8.848 7.41 20.162 8.16 25.342 0 0 17.634 17.201 24.817 24.015l-3.819 3.305s-24-15.605-31.316-22.466c-7.316-6.86-15.412-41.479-15.412-41.479M30.874 358.66L30.522 359.707 32.891 362.181 35.4 361.078 36.326 359.707 36.596 358.626zM115.095 358.623L114.952 359.707 116.095 361.589 119.455 361.271 120.457 360.656 120.756 359.707 120.747 358.33z" mask="url(#prefix__d)"/>
            <path fill="#47B27C" d="M82.76 179.02c.847-.126 1.339-2.202 1.02-3.87-.48-2.513-2.727-3.854-3.106-4.072-.338.683-.868 2.026-.631 3.701.3 2.121 1.775 4.382 2.717 4.241" mask="url(#prefix__d)"/>
            <path fill="#47B27C" d="M82.86 177.848c-.234.823 1.454 2.128 3.105 2.525 2.488.6 4.635-.895 4.99-1.15-.482-.59-1.487-1.626-3.111-2.1-2.055-.602-4.723-.19-4.984.725" mask="url(#prefix__d)"/>
            <path fill="#47B27C" d="M84.007 176.837c.519.68 2.575.109 3.882-.976 1.969-1.633 2.057-4.248 2.066-4.686-.761.033-2.193.218-3.545 1.234-1.713 1.287-2.981 3.67-2.403 4.428" mask="url(#prefix__d)"/>
            <path fill="#7F786A" d="M80.024 88.855h-1.549c-1.933 0-3.5-1.566-3.5-3.5V80.83h5.05v8.025z" mask="url(#prefix__d)"/>
            <path fill="#A29C8F" d="M68.368 168.335S54.11 186.597 29.948 358.66l7.224-.036 56.916-158.285v-32.002h-25.72z" mask="url(#prefix__d)"/>
            <path fill="#A29C8F" d="M111.352 158.535s17.209 13.534 17.127 49.877c-.037 16.276-7.731 149.918-7.731 149.918l-5.653.293C105.07 307.74 97.818 257.735 89.538 205.985c-1.186-.17-7.256-.611-8.31-1.847-2.306-2.713-.055-7.44-.103-9.521-.195-8.323-.248-27.355.292-34.37 6.66.552 23.679-1.102 29.935-1.712" mask="url(#prefix__d)"/>
            <path fill="#7F786A" d="M120.747 358.33s7.695-133.642 7.731-149.918c.083-36.343-17.127-49.877-17.127-49.877-1.45.17-2.932.328-4.436.478l-4.049 2.58s12.174 71.215 11.881 113.798c-.163 23.662-.144 56.48-.094 80.973.148.753.293 1.505.442 2.259l5.652-.293z" mask="url(#prefix__d)"/>
            <path fill="#FFBF4D" d="M114.249 168.952c2.36-.576 3.987-2.742 3.885-5.17-.513-12.252-2.087-26.166-5.557-41.196-1.532-6.632-3.286-12.85-5.162-18.637l-22.195-4.91-15.57 6.097c-.99.387-1.686 1.287-1.814 2.342-1.133 9.38-1.914 19.888-1.985 31.347-.07 11.026.528 21.172 1.476 30.274.097.927.802 1.678 1.724 1.82 5.904.908 12.938 1.525 20.85 1.307 9.422-.26 17.645-1.637 24.348-3.274" mask="url(#prefix__d)"/>
            <path fill="#FFA331" d="M116.23 168.45c1.2-.315 2.021-1.415 1.98-2.655-.422-12.734-1.972-27.35-5.634-43.21-1.53-6.631-2.7-12.953-4.576-18.74-4.743-1.05-10.07-1.995-14.814-3.044-1.55.245-3.793.87-5.039 2.699-1.642 2.406-.7 5.639-.418 6.68 1.6 5.888 5.891 29.017 11.74 61.38 6.36-.704 11.993-1.858 16.761-3.11" mask="url(#prefix__d)"/>
            <path fill="#FFE2B7" d="M77.917 88.206L79.9 104.631 90.479 103.378 88.251 86.174z" mask="url(#prefix__d)"/>
            <path fill="#FFC581" d="M88.251 86.173l-10.334 2.032.113.945c1.084 4.472 5.551 8.62 9.806 7.698.614-.133 1.184-.365 1.71-.675l-1.295-10z" mask="url(#prefix__d)"/>
            <path fill="#FFE2B7" d="M87.003 75.989c.382.222 3.29 1.963 4.325 5.38 1.374 4.54-.85 11.067-5.477 12.069-4.428.958-9.086-3.568-9.923-8.241-.742-4.141 1.36-9.263 5.106-10.364 2.632-.776 5.18.7 5.969 1.156" mask="url(#prefix__d)"/>
            <path fill="#7F786A" d="M91.287 71.738c1.089 2.09-3.521 6.276-3.977 6.684-3.933 3.517-10.321 5.74-12.183 3.67-1.368-1.52-.11-5.156 1.55-7.313 4.033-5.244 13.327-5.504 14.61-3.041" mask="url(#prefix__d)"/>
            <path fill="#FFE2B7" d="M74.662 84.788c-.225-1.188.557-2.335 1.745-2.56 1.189-.224 2.335.557 2.56 1.747.225 1.188-.557 2.334-1.746 2.558-1.188.226-2.334-.557-2.56-1.745M94.61 101.116l-9.39-2.077-10.23 4.006c1.992 1.64 4.77 3.042 7.785 3.358 4.56.478 9.045-1.59 11.835-5.287M58.305 128.253c-2.615-2.063-5.274-4.163-7.568-6.484-3.632 4.392-6.545 9.063-7.604 13.55-1.025 4.343 1.632 8.93 6.03 13.301 4.332-.794 8.922-2.843 12.675-5.23-1.74-1.329-3.311-2.4-4.587-3.059 0 0 3-3.585 6.47-8.279-2.17-1.348-3.971-2.659-5.416-3.799" mask="url(#prefix__d)"/>
            <path fill="#7F786A" d="M114.952 359.707s-2.796 2.69 0 5.487h12.094v-5.487h-6.29s-2.885 1.688-5.804 0" mask="url(#prefix__d)"/>
            <path fill="#57575E" d="M122.327 365.194h9.438v-2.217c0-1.806-1.464-3.27-3.27-3.27h-2.897c-1.806 0-3.27 1.464-3.27 3.27v2.217zM114.46 366.073L132.17 366.073 132.17 365.194 114.46 365.194z" mask="url(#prefix__d)"/>
            <path fill="#7F786A" d="M36.326 359.707s2.796 2.69 0 5.487H22.039l.514-5.487h7.969s2.885 1.688 5.804 0" mask="url(#prefix__d)"/>
            <path fill="#57575E" d="M17.308 366.073L36.818 366.073 36.818 365.194 17.308 365.194zM22.552 359.707c-2.605 0-4.718 2.112-4.718 4.719v.768h4.718v-5.487z" mask="url(#prefix__d)"/>
            <path fill="#FFA331" d="M108 103.844c5.802 1.194 10.324 5.75 11.477 11.56l1.85 9.312-11.913.375L108 103.844z" mask="url(#prefix__d)"/>
            <path fill="#FFBF4D" d="M63.722 132.053c4.518-6.11 9.833-14.104 10.367-18.522.944-7.812-4.571-8.3-4.571-8.3s-10.732 4.76-18.781 16.538c2.294 2.321 4.953 4.421 7.568 6.484 1.445 1.14 3.247 2.451 5.417 3.8" mask="url(#prefix__d)"/>
            <path fill="#FFA331" d="M84.272 107.27c-5.456 0-9.564-3.537-9.747-3.695-.292-.256-.32-.7-.066-.993.256-.292.7-.323.992-.067.043.037 4.356 3.734 9.686 3.315 3.27-.257 6.274-1.995 8.934-5.166.25-.298.693-.337.991-.087.298.25.336.693.087.991-2.915 3.475-6.252 5.382-9.916 5.665-.324.025-.645.037-.96.037" mask="url(#prefix__d)"/>
            <path fill="#FFC581" d="M146.29 168.107l2.494 1.102c.403.646 1.175 1.7 2.48 2.55.62.405 3.242 2.113 5.523 1.052 1.607-.747 2.776-2.742 2.29-3.559-.162-.274-.495-.392-.806-.446l-11.155-7.022-.826 6.323z" mask="url(#prefix__d)"/>
            <path fill="#F7C7BA" d="M14.559 174.182l.268 2.687c.348 3.484 3.454 6.027 6.939 5.68l11.304-1.129-1.528-15.304-11.303 1.128c-3.485.347-6.028 3.454-5.68 6.938" mask="url(#prefix__d)"/>
            <path fill="#FFDDCF" d="M32.779 178.505l-11.125 1.11c-3.483.347-6.59-2.196-6.938-5.68l-.127-1.266c.396-2.829 2.68-5.129 5.65-5.426l11.303-1.128 1.236 12.39z" mask="url(#prefix__d)"/>
            <path fill="#FFA331" d="M23.448 172.282l.468 4.695c.293 2.93 2.904 5.068 5.834 4.776l15.709-1.568-1.528-15.304-15.708 1.568c-2.93.292-5.067 2.903-4.775 5.833" mask="url(#prefix__d)"/>
            <path fill="#57575E" d="M34.358 172.208l.268 2.686c.348 3.484 3.454 6.028 6.939 5.68l176.226-17.586-1.528-15.303L40.038 165.27c-3.485.347-6.028 3.456-5.68 6.94" mask="url(#prefix__d)"/>
            <path fill="#FFBF4D" d="M43.933 164.89l1.146 11.493-20.44 2.14-.001-.003c-.054-.093-.105-.187-.154-.282l-.005-.01c-.047-.093-.092-.187-.135-.28l-.01-.024c-.04-.09-.078-.18-.114-.273l-.016-.038c-.033-.087-.063-.175-.093-.263l-.02-.056c-.026-.083-.05-.167-.074-.252l-.02-.072c-.022-.08-.041-.162-.06-.244l-.018-.084c-.017-.082-.031-.164-.045-.247l-.015-.086c-.017-.11-.032-.223-.043-.336l-.268-2.687c-.011-.107-.02-.213-.024-.32-.002-.037-.002-.075-.003-.112-.002-.068-.005-.137-.005-.205 0-.044.002-.087.003-.13 0-.062.002-.123.005-.185.002-.046.007-.09.01-.137l.013-.174.017-.142.022-.165c.007-.048.015-.095.024-.142.009-.054.018-.108.029-.162.009-.047.02-.094.03-.14l.037-.157c.012-.048.025-.095.039-.143l.042-.15.046-.142.049-.146.053-.14c.018-.048.036-.096.055-.142.019-.047.04-.093.06-.139l.06-.136.068-.138c.022-.044.044-.088.067-.13.023-.047.048-.09.073-.136l.072-.126.08-.134c.026-.04.05-.08.078-.119l.088-.132.08-.114.095-.129.085-.109.103-.126.088-.102.11-.122.09-.097.118-.119.094-.09c.04-.04.082-.078.124-.116l.097-.084c.043-.037.087-.075.13-.11l.099-.079c.046-.036.092-.072.14-.107l.098-.07.148-.104.099-.063c.052-.034.103-.067.157-.099.03-.019.064-.037.095-.056.056-.032.112-.064.168-.094l.09-.047c.06-.03.12-.062.182-.09.027-.014.055-.026.082-.038.065-.03.13-.06.197-.088.022-.01.044-.018.066-.026.073-.03.146-.059.22-.086l.03-.01c.373-.133.762-.234 1.165-.295l15.047-1.502z" mask="url(#prefix__d)"/>
            <path fill="#7F786A" d="M35.496 177.525c-.467-.778-.774-1.668-.87-2.631l-.269-2.685c-.347-3.485 2.196-6.592 5.68-6.94l176.226-17.584 1.08 10.819-181.847 19.02" mask="url(#prefix__d)"/>
            <path fill="#FFC581" d="M232.625 153.78l-14.834 9.209c-.731-.792-3.004-3.457-3.35-7.606-.322-3.892 1.246-6.748 1.822-7.698l16.362 6.096" mask="url(#prefix__d)"/>
            <path fill="#FFE2B7" d="M216.263 147.685c4.445 1.656 8.89 3.313 13.336 4.968l-2.392 1.932-12.018 4.145c-.468-1.3-1.297-4.202-.41-7.61.375-1.439.956-2.589 1.484-3.435" mask="url(#prefix__d)"/>
            <path fill="#57575E" d="M232.719 153.771l-6.332 3.931c-.356-.497-1.138-1.732-1.23-3.491-.073-1.404.33-2.491.578-3.042l6.983 2.602z" mask="url(#prefix__d)"/>
            <path fill="#FFE2B7" d="M77.7 167.044c1.572.764 2.953 1.41 4.064 1.918l.534.244c1.53.693 2.427 1.07 2.427 1.07l-.037-1.947-.073-3.893s-8.763-9.026-16.925-16.197c-.19-.167-.38-.333-.57-.496-.755-.659-1.504-1.3-2.24-1.911-1.404-1.173-2.754-2.245-4-3.16-2.514.945-5.072 2.192-7.668 3.46-1.518.742-2.928 1.517-4.233 2.3 6.629 6.672 17.365 12.857 25.346 16.93 1.194.61 2.327 1.173 3.375 1.683M87.162 165.905c4.474-.774 5.626-.488 5.788-.044.223.613-1.188 2.215-2.997 2.155-1.266-.042-2.388-.886-2.79-2.111" mask="url(#prefix__d)"/>
            <path fill="#FFE2B7" d="M82.23 169.175l2.495 1.101c.403.646 1.175 1.701 2.48 2.551.62.404 3.242 2.113 5.524 1.051 1.606-.746 2.775-2.742 2.29-3.559-.163-.274-.496-.392-.807-.445l-11.154-7.022-.827 6.323z" mask="url(#prefix__d)"/>
            <path fill="#306B34" d="M355.38 259.848s-18.98 6.376-16.398 28.26c2.583 21.882-1.136 48.546-1.136 48.546h10.82s19.274-25.985 5.071-45.452c-14.202-19.47 1.643-31.354 1.643-31.354" mask="url(#prefix__d)"/>
            <path fill="#A4B751" d="M353.877 261.211c-3.453 2.851-13.5 13.211-2.673 30.363 12.864 20.378-8.108 45.011-8.108 45.011l-5.194-.35-.056.418h10.82s19.274-25.984 5.071-45.452c-11.398-15.627-3.445-26.36.14-29.99" mask="url(#prefix__d)"/>
            <path fill="#4900BC" d="M354.615 260.5c.468-.426.765-.651.765-.651s-1.706.577-4.021 1.966c1.528-.741 2.714-1.147 3.256-1.315" mask="url(#prefix__d)"/>
            <path fill="#619440" d="M334.61 312.453c1.013-19.42.23-21.846-7.319-28.26-7.549-6.411-18.187-16.954-18.187-16.954 7.245 14.347 7.1 20.868 8.463 31.422 1.058 8.188 13.358 24.53 18.822 31.452-1.209-2.806-2.284-8.018-1.78-17.66" mask="url(#prefix__d)"/>
        </g>
        <g transform="translate(2 99) translate(336 330.794)">
            <mask id="prefix__g" fill="#fff">
                <use xlink:href="#prefix__e"/>
            </mask>
            <path fill="url(#prefix__f)" d="M2.982 3.331S1.97 2.113.389.113C1.616 2.96 2.982 3.331 2.982 3.331" mask="url(#prefix__g)"/>
        </g>
        <g transform="translate(2 99) translate(0 .794)">
            <path fill="#306B34" d="M330.938 303.42c-3.768 16.133 4.244 26.974 4.244 26.974h7.9c-.028-5.56.372-10.893 2.99-16.287.138-.285.304-.548.481-.8-1.114-.522-2.353-1.049-3.732-1.579-14.589-5.604-8.115-24.443-11.883-8.309"/>
            <path fill="#619440" d="M351.42 307.477c-8.02 4.06-5.7 21.448-5.7 21.448l7.534 2.704s-1.352-7.92 3.768-14.104c5.121-6.183 8.502-3.813 8.502-3.813s-6.086-10.293-14.105-6.235M312.968 299.266c-13.464 0-20.994 8.114-20.994 8.114s5.241-2.663 14.618-2.318c9.376.345 8.695 8.308 16.23 15.748 7.536 7.438 13.816 8.501 13.816 8.501s-9.981-14.435-17.294-24.249c-1.287-1.728-.032-5.796-6.376-5.796"/>
            <path fill="#FAF9FC" d="M289.366 310.152c-.056.145-.068.224-.068.224s.022-.081.068-.224"/>
            <path fill="#A4B751" d="M323.885 307.96c-2.512-3.38.098-11.688-15.94-9.757-14.649 1.764-18.091 10.456-18.58 11.949.371-.964 2.714-4.89 16.84-8.085 16.23-3.67 7.632 4.734 14.975 10.048 7.342 5.315 13.332 15.264 13.332 15.264s4.154 6.957 3.188 1.16c-.965-5.796-11.303-17.197-13.815-20.578M373.64 315.207c-7.343-14.975-16.221-14-22.125-10.724-8.375 4.648-7 24.056-7 24.056l1.204.387s.193-3.768.835-10.241c.64-6.473 3.802-15.663 14.043-2.898 10.243 12.764 24.733 15.059 24.733 15.059s-4.348-.664-11.69-15.64"/>
            <path fill="#A4B751" d="M354.225 296.564c-2.307-1.692-4.649-1.402-6.458-.649-2.284.951-4.857.637-6.968-.638-7.72-4.671-8.312 1.752-8.312 1.752l.21 1.738c.01.012.01.034.01.058.557 3.223 2.365 9.924 10.11 12.903 1.38.533 13.53 5.797 13.53 5.797-1.647-6.666 2.607-17.482-2.122-20.961"/>
            <path fill="#57575E" d="M333.913 367.377h12.889c4.737 0 8.578-3.841 8.578-8.579v-31.517h-30.045v31.517c0 4.738 3.84 8.579 8.578 8.579"/>
            <mask id="prefix__i" fill="#fff">
                <use xlink:href="#prefix__h"/>
            </mask>
            <path fill="#7F786A" d="M322.405 331.629L358.31 331.629 358.31 327.281 322.405 327.281z" mask="url(#prefix__i)"/>
            <path fill="#FDC854" d="M465.646 326.18h66.61c2.487 0 4.504 2.016 4.504 4.503v1.795c0 2.487-2.017 4.504-4.504 4.504h-66.61c-2.487 0-4.504-2.017-4.504-4.504v-1.795c0-2.487 2.017-4.504 4.504-4.504" mask="url(#prefix__i)"/>
            <path fill="#F89F4F" d="M461.142 334.916c0 1.142.925 2.065 2.065 2.065h71.488c1.14 0 2.065-.923 2.065-2.065v-1.11h-75.618v1.11z" mask="url(#prefix__i)"/>
            <path fill="#FDC854" d="M465.646 293.772h66.61c2.487 0 4.504 2.017 4.504 4.504v1.795c0 2.487-2.017 4.504-4.504 4.504h-66.61c-2.487 0-4.504-2.017-4.504-4.504v-1.795c0-2.487 2.017-4.504 4.504-4.504" mask="url(#prefix__i)"/>
            <path fill="#F89F4F" d="M461.142 302.51c0 1.14.925 2.064 2.065 2.064h71.488c1.14 0 2.065-.924 2.065-2.065v-1.112h-75.618v1.112z" mask="url(#prefix__i)"/>
            <path fill="#FFAC34" d="M588.654 361.222c15.438-12.584 17.75-35.3 5.166-50.737-12.584-15.438-35.3-17.75-50.738-5.166-15.437 12.584-17.75 35.3-5.166 50.737 12.584 15.437 35.3 17.75 50.738 5.166" mask="url(#prefix__i)"/>
            <path fill="#FFBC3F" d="M583.532 354.939c11.966-9.756 13.76-27.364 4.003-39.333-9.753-11.967-27.363-13.76-39.332-4.004-11.966 9.755-13.76 27.365-4.005 39.332 9.757 11.967 27.366 13.76 39.334 4.005" mask="url(#prefix__i)"/>
            <path fill="#FFA331" d="M577.213 328.7c.701.425 1.696.068 2.221-.797.525-.865.383-1.913-.319-2.338l-7.618-4.624-5.079-3.082c-.7-.425-1.696-.068-2.22.797-.526.865-.383 1.913.318 2.338l5.078 3.082c1.654 1.004 2.253 3.165 1.674 5.306l-8.655-5.253c-.7-.425-1.696-.07-2.22.797-.526.865-.383 1.913.318 2.338l8.654 5.252c-1.63 1.502-3.825 1.968-5.478.965l-5.079-3.082c-.165-.1-.355-.16-.557-.176-.407-.027-.84.125-1.204.433-.36.304-.624.736-.727 1.197-.054.233-.065.462-.033.679l2.548 18.699c.062.459.294.81.62 1.007.324.197.742.24 1.175.088.867-.311 1.47-1.305 1.346-2.217l-2.005-14.715 2.013 1.222c3.068 1.86 7.267.72 10.025-2.495l1.4.849c.7.425 1.695.068 2.22-.797.525-.866.382-1.912-.318-2.338l-1.4-.85c.517-1.281.735-2.591.73-3.847l2.572 1.562z" mask="url(#prefix__i)"/>
            <path fill="#FDC854" d="M469.788 358.587h66.61c2.487 0 4.504 2.016 4.504 4.504v1.795c0 2.487-2.017 4.503-4.504 4.503h-66.61c-2.487 0-4.504-2.016-4.504-4.503v-1.795c0-2.488 2.017-4.504 4.504-4.504" mask="url(#prefix__i)"/>
            <path fill="#F89F4F" d="M465.284 367.325c0 1.14.925 2.064 2.065 2.064h71.487c1.14 0 2.066-.923 2.066-2.064v-1.112h-75.618v1.112z" mask="url(#prefix__i)"/>
            <path fill="#FDC854" d="M469.788 347.785h66.61c2.487 0 4.504 2.017 4.504 4.504v1.795c0 2.487-2.017 4.504-4.504 4.504h-66.61c-2.487 0-4.504-2.017-4.504-4.504v-1.795c0-2.487 2.017-4.504 4.504-4.504" mask="url(#prefix__i)"/>
            <path fill="#F89F4F" d="M465.284 356.522c0 1.141.925 2.065 2.065 2.065h71.487c1.14 0 2.066-.924 2.066-2.065v-1.112h-75.618v1.112z" mask="url(#prefix__i)"/>
            <path fill="#FDC854" d="M469.788 336.982h66.61c2.487 0 4.504 2.017 4.504 4.504v1.795c0 2.487-2.017 4.504-4.504 4.504h-66.61c-2.487 0-4.504-2.017-4.504-4.504v-1.795c0-2.487 2.017-4.504 4.504-4.504" mask="url(#prefix__i)"/>
            <path fill="#F89F4F" d="M465.284 345.72c0 1.14.925 2.064 2.065 2.064h71.487c1.14 0 2.066-.924 2.066-2.065v-1.112h-75.618v1.112z" mask="url(#prefix__i)"/>
            <path fill="#FDC854" d="M469.788 315.377h66.61c2.487 0 4.504 2.017 4.504 4.503v1.796c0 2.487-2.017 4.504-4.504 4.504h-66.61c-2.487 0-4.504-2.017-4.504-4.505v-1.795c0-2.486 2.017-4.502 4.504-4.502" mask="url(#prefix__i)"/>
            <path fill="#F89F4F" d="M465.284 324.115c0 1.14.925 2.064 2.065 2.064h71.487c1.14 0 2.066-.923 2.066-2.064v-1.112h-75.618v1.112z" mask="url(#prefix__i)"/>
            <path fill="#FDC854" d="M466.952 304.575h66.61c2.487 0 4.504 2.017 4.504 4.504v1.795c0 2.487-2.016 4.504-4.504 4.504h-66.61c-2.487 0-4.504-2.017-4.504-4.504v-1.795c0-2.487 2.017-4.504 4.504-4.504" mask="url(#prefix__i)"/>
            <path fill="#F89F4F" d="M462.449 313.312c0 1.141.924 2.065 2.065 2.065H536c1.14 0 2.066-.924 2.066-2.065V312.2h-75.618v1.112z" mask="url(#prefix__i)"/>
            <path fill="#FDC854" d="M468.425 282.97h66.61c2.488 0 4.504 2.016 4.504 4.503v1.795c0 2.487-2.018 4.504-4.505 4.504h-66.61c-2.486 0-4.503-2.017-4.503-4.504v-1.795c0-2.487 2.017-4.504 4.504-4.504" mask="url(#prefix__i)"/>
            <path fill="#F89F4F" d="M463.92 291.707c0 1.14.926 2.065 2.066 2.065h71.488c1.14 0 2.065-.924 2.065-2.065v-1.112H463.92v1.112z" mask="url(#prefix__i)"/>
            <path fill="#FDC854" d="M469.535 272.166h66.61c2.487 0 4.504 2.017 4.504 4.505v1.795c0 2.486-2.017 4.503-4.504 4.503h-66.61c-2.488 0-4.504-2.017-4.504-4.503v-1.796c0-2.487 2.016-4.504 4.504-4.504" mask="url(#prefix__i)"/>
            <path fill="#F89F4F" d="M465.031 280.904c0 1.14.924 2.065 2.065 2.065h71.487c1.142 0 2.067-.924 2.067-2.065v-1.111h-75.618v1.11z" mask="url(#prefix__i)"/>
        </g>
    </g>
</svg>
