<svg xmlns="http://www.w3.org/2000/svg" xmlns:xlink="http://www.w3.org/1999/xlink" width="630" height="480" viewBox="0 0 630 480"><defs><path id="c" d="M0 380h625.8V.2H0z"/></defs><defs><path id="a" d="M.2.2h22.6v11.3H.2z"/><path id="e" d="M3 3.3L.4.1C1.6 3 3 3.3 3 3.3"/><use xlink:href="#c"/><use id="h" xlink:href="#c"/><linearGradient id="f" x1="60.1%" x2="34.7%" y1="73.9%" y2="21.6%"><stop offset="0%" stop-color="#DBEBFF"/><stop offset="100%" stop-color="#FFF"/></linearGradient></defs><g fill="none" fill-rule="evenodd"><g transform="translate(2 99.8)"><path fill="#FFF4DD" d="M513.2 368.5c56.6-64.8 58.3-98.7 48.8-117.8-9.4-19-28-19.1-39.7-43.5-15-31 6.7-48.5 1.6-88-7.1-55.3-60.6-87.7-64.6-90.1C449.6 23.2 411.4.3 367 8c-55.8 9.6-68 58-107.7 54-31.9-3.2-40-36.1-64.7-32-22.7 3.7-19.4 31.8-52.5 52.8-33 21-59.7 8-70.5 25.2-13.2 21 24.2 42.5 18.2 79.3-5.8 35.2-45.2 39.1-63 78-16.6 36.2-6.4 75.3 5.8 104l480.6-.8"/><path fill="#FFBF4D" d="M221.3 10.5v-.7l4.4-.3v.8l-4.4.2zm-9 1.2v-.8l4.4-.6.1.7-4.4.7zm-8.7 1.9l-.2-.8 4.4-1 .2.7-4.4 1zm-8.6 2.6l-.2-.7L199 14l.2.7-4.3 1.4zm-8.3 3.3l-.3-.7 4.2-1.7.2.7c-1.3.5-2.7 1-4 1.7zm-8 4l-.4-.7 4-2 .4.6-4 2zM171 28l-.4-.6c1.2-.8 2.5-1.7 3.8-2.4l.4.6-3.8 2.4zm-7.3 5.2l-.5-.6 3.6-2.7.5.6a111 111 0 00-3.6 2.7zm-6.9 5.8l-.5-.6 3.4-3 .5.6-3.4 3zm-6.4 6.3l-.5-.5 3.1-3.2.6.5-3.2 3.2zm-5.8 6.8l-.6-.4 2.9-3.5.6.5c-1 1-2 2.3-2.9 3.4zm-5.2 7.3l-.7-.4 2.6-3.7.6.4-2.5 3.7zm-4.6 7.7l-.7-.4a101 101 0 012.2-3.9l.7.4-2.2 3.9zm8.5 12c-1.2-.9-2.5-1.5-4-2l.3-.7c1.5.5 2.9 1.2 4.1 2l-.4.6zm-12.4-4l-.7-.2a71.8 71.8 0 011.9-4.1l.6.3a100 100 0 00-1.8 4zm-.2 1.3l-.1-.7c1.5-.2 3-.3 4.5-.2v.8c-1.5-.1-3 0-4.4.1zm18.4 9.1c-.6-1.3-1.4-2.5-2.4-3.6l.5-.5c1.1 1.2 2 2.4 2.6 3.8l-.7.3zm-26.8-6.2l-.3-.7A28 28 0 01126 77l.3.7c-1.4.5-2.8 1-4 1.8zm5.1 4.2l1.2-4.4.7.2-1.2 4.3-.7-.1zm22.4 10.5c.4-1.4.6-2.9.5-4.3h.7c.1 1.5 0 3-.5 4.5l-.7-.2zm-34.6-9.4l-.5-.5a38.6 38.6 0 013.4-3l.5.6a31.9 31.9 0 00-3.4 3zm12.3 8a15.3 15.3 0 01-.6-4.6h.8a19.7 19.7 0 00.5 4.4l-.7.2zm17.5 8.9l-.4-.6c1.2-.8 2.3-1.8 3.2-3l.6.4c-1 1.3-2.1 2.4-3.4 3.2zm-35.5-10l-.7-.5 2.8-3.6.6.5c-1 1-1.8 2.3-2.7 3.5zm22.6 9c-1.1-1-2-2.3-2.9-3.7l.7-.3c.7 1.3 1.7 2.4 2.7 3.3l-.5.6zm4 2.2l.2-.7a9.5 9.5 0 004.3.4l.1.8a9.6 9.6 0 01-4.6-.5zm-31.4-3.7l-.7-.4 2.3-3.8.7.4c-.8 1.1-1.5 2.4-2.3 3.8zm-4.3 7.9l-.7-.4a163 163 0 012.1-4l.7.4c-.8 1.3-1.5 2.7-2.1 4zm-3.9 8.1l-.7-.3 1.9-4.1.7.3-1.9 4.1zm-4 8A130.6 130.6 0 0194 119l.7.2a132.2 132.2 0 00-1.6 4.2l-.7-.2zm-2.7 8.7l1.3-4.3.7.2-1.2 4.3-.8-.2zm-1.8 8.9l.8-4.5.7.2a88 88 0 00-.8 4.4l-.7-.1zm-1 9l.4-4.5h.8l-.4 4.5h-.7zm.3 9v-.4l-.3-4.1h.8c0 1.3 0 2.7.2 4v.4l-.7.1zm1.4 9l-.9-4.5.8-.1c.2 1.4.5 3 .9 4.4l-.8.1zm2.8 8.6c-.6-1.4-1-2.9-1.5-4.3l.7-.2 1.5 4.2-.7.3zm4 8c-.7-1.2-1.5-2.6-2.1-4l.6-.2 2.2 3.9-.7.4zm5.3 7.4c-1-1-2-2.3-2.8-3.5l.6-.5 2.8 3.6-.6.4zm6.4 6.4l-3.3-3 .5-.6 3.3 3-.5.6zm7.6 5l-4-2.3.5-.6 3.9 2.2-.4.7zm4.5 2l-.4-.2.3-.7.3.2 2.6.8-.2.7a40 40 0 01-2.6-.8z"/><path fill="#F59015" d="M216.7 6.7l-4.5 6.2 6.2-.1.7-3.2z"/><path fill="#F9DC56" d="M235.6 10.6L214.1.2l3.2 10.6z"/><path fill="#FFB023" d="M235.6 10.6l-13.7 11.1-4.6-11z"/><path fill="#FFA331" d="M536 41.8l-.3-.2-.4-.7a.5.5 0 01.7-.5l.5.6a.5.5 0 01-.4.8zm6.3 9.9a162.8 162.8 0 00-3.4-5.2.5.5 0 01.8-.5l3 5c.1.2 0 .5-.2.6h-.2zm5.4 10.3a.5.5 0 01-.4-.3 162 162 0 00-2.6-5.2.5.5 0 11.8-.4c1 1.7 1.8 3.5 2.6 5.2a.5.5 0 01-.4.7zm4.7 10.7a.5.5 0 01-.4-.3l-2.3-5.4a.5.5 0 01.9-.4l2.3 5.4a.5.5 0 01-.5.7zm4 11a.5.5 0 01-.5-.3l-1.9-5.6a.5.5 0 011-.3l1.8 5.6a.5.5 0 01-.4.6zm3 11.3a.5.5 0 01-.4-.4l-1.4-5.6a.5.5 0 11.9-.3l1.4 5.7a.5.5 0 01-.4.6zm2.3 11.4a.5.5 0 01-.4-.4l-1-5.7c-.1-.3 0-.5.3-.6.3 0 .5.1.6.4l1 5.8a.5.5 0 01-.5.5zm-421.3 8h-5.8a.5.5 0 010-1c1.9 0 3.9 0 5.8.2a.5.5 0 010 .9zm-17.5.4a.5.5 0 01-.5-.4c0-.3.2-.5.5-.6l5.8-.3c.3 0 .5.2.5.4 0 .3-.2.5-.4.5l-5.9.4zm29.2.7h-.1l-5.8-.6a.5.5 0 010-1l6 .6a.5.5 0 01-.1 1zm-40.8 1a.5.5 0 010-1l5.7-1a.5.5 0 11.2 1 101.2 101.2 0 00-5.9 1zm52.3.7l-5.8-1a.5.5 0 11.1-.9l5.8 1a.5.5 0 01-.1 1zm399.5.8a.5.5 0 01-.4-.4l-.6-5.8c0-.3.1-.5.4-.5.2 0 .5.1.5.4l.6 5.8c0 .3-.2.5-.4.5zm-463 1.4a.5.5 0 01-.2-1l5.6-1.6a.5.5 0 11.3 1 82.2 82.2 0 00-5.7 1.6zm75 .3h-.2c-1.9-.5-3.8-1-5.7-1.3a.5.5 0 01.2-1l5.7 1.4a.5.5 0 010 .9zm11.2 3h-.1l-5.6-1.6a.5.5 0 01.2-.9l5.6 1.6a.5.5 0 01-.1 1zm-97 1.4c-.1 0-.3-.1-.3-.3-.2-.2 0-.5.1-.6 1.7-1 3.5-1.8 5.3-2.5a.5.5 0 01.4.8 69.8 69.8 0 00-5.4 2.6zm108.1 2.2h-.2l-5.5-1.9a.5.5 0 01.3-.8l5.6 1.8a.5.5 0 01-.2 1zm366.2 3.4a.5.5 0 01-.4-.5c0-2 0-3.9-.2-5.8 0-.3.2-.5.5-.5.2 0 .5.2.5.4l.1 5.9c0 .3-.2.5-.5.5zm-355.3.7h-.1a252 252 0 00-5.5-2.1.5.5 0 01.4-.9l5.4 2.1a.5.5 0 01-.2 1zm-128.7 0a.5.5 0 01-.3-.7c1.6-1.3 3.2-2.4 4.8-3.5a.5.5 0 11.5.8 62.8 62.8 0 00-5 3.5zm139.5 4.6h-.2l-5.4-2.4a.5.5 0 11.4-.8l5.4 2.3a.5.5 0 01-.2 1zm-147.8 3.6H71a.5.5 0 01-.1-.8 63.2 63.2 0 014-4.3.5.5 0 01.7.7 51.9 51.9 0 00-4.3 4.4zm158.3 1.5h-.2c-1.7-1-3.5-1.8-5.2-2.7a.5.5 0 01-.2-.6c0-.2.4-.3.6-.2l5.2 2.6a.5.5 0 01-.2.9zm333.6 1.2a.5.5 0 01-.4-.5l.3-5.8c0-.2.2-.4.5-.4.2 0 .4.2.4.5 0 1.9-.1 3.9-.3 5.8 0 .3-.2.4-.4.4zM240 145.6l-.3-.1-5-2.8a.5.5 0 11.3-.8l5.2 2.8a.5.5 0 01-.2.9zM64.5 148h-.3a.5.5 0 01-.1-.7c1-1.7 2-3.4 3.2-5a.5.5 0 11.8.6 73.7 73.7 0 00-3.6 5.1zm185.5 3.4h-.2l-5-3.1a.5.5 0 01-.2-.6c.1-.3.4-.3.7-.2l5 3a.5.5 0 01-.3.9zm312 1.4h-.1a.5.5 0 01-.4-.5l.7-5.8c0-.2.3-.4.6-.4.2 0 .4.3.4.5l-.8 5.8c0 .3-.2.4-.5.4zm-302.2 5h-.3l-4.8-3.3a.5.5 0 11.5-.8l4.9 3.2a.5.5 0 01-.3.9zm-200.6.6H59a.5.5 0 01-.2-.6l2.4-5.4a.5.5 0 11.9.5 87 87 0 00-2.5 5.2c0 .2-.2.3-.4.3zm500.5 5.9h-.1a.5.5 0 01-.4-.6l1.3-5.7a.5.5 0 11.9.2L560 164c0 .3-.2.4-.4.4zm-290.5.4l-.3-.1-4.6-3.5a.5.5 0 01.5-.8l4.7 3.5a.5.5 0 01-.3.9zm-213.9 4.7h-.1a.5.5 0 01-.3-.6 100 100 0 011.7-5.6c.1-.2.4-.3.6-.2.3 0 .4.3.3.6a101 101 0 00-1.7 5.5c-.1.2-.3.3-.5.3zm223 2.7l-.3-.1-4.5-3.8a.5.5 0 11.6-.7l4.5 3.7a.5.5 0 01-.3.9zm278.2 3.4h-.2a.5.5 0 01-.3-.6l1.7-5.6a.5.5 0 111 .3l-1.8 5.6c0 .2-.2.3-.4.3zm-269.7 4.5l-.3-.1-4.2-4a.5.5 0 11.6-.7l4.3 4a.5.5 0 01-.4.8zm-234.1.8a.5.5 0 01-.5-.5l1.2-5.8c0-.2.3-.4.6-.3.2 0 .4.3.3.5l-1.1 5.7c0 .3-.3.4-.5.4zm499.6 5.6h-.2a.5.5 0 01-.2-.6l2.2-5.4c0-.3.3-.4.6-.3.2.1.3.4.2.6-.6 1.8-1.4 3.7-2.2 5.5l-.4.2zm-257.5 2.1c-.1 0-.2 0-.3-.2l-4-4.3a.5.5 0 11.7-.6l4 4.3a.5.5 0 01-.4.8zm-243.5 4a.5.5 0 01-.4-.6c0-2 .3-3.9.5-5.8 0-.3.3-.5.5-.4.3 0 .5.2.4.5l-.5 5.8c0 .2-.2.4-.5.4zm496 4.4h-.3a.5.5 0 01-.2-.6c1-1.7 1.8-3.5 2.7-5.2a.5.5 0 01.8.4 133.9 133.9 0 01-3 5.4zm-245.1.6l-.4-.1-3.6-4.6a.5.5 0 11.7-.6l3.7 4.6a.5.5 0 01-.4.7zm-251 6.6a.5.5 0 01-.5-.5 112 112 0 010-5.8c0-.3.1-.5.4-.5.3 0 .5.2.5.5a116.1 116.1 0 000 5.8c0 .3-.2.5-.4.5zm490 2.9l-.2-.1a.5.5 0 01-.2-.7l3.1-4.9a.5.5 0 01.8.5 131 131 0 01-3.5 5.2zM309 207c-.1 0-.3 0-.3-.2l-3.4-4.8a.5.5 0 11.8-.6l3.3 4.9a.5.5 0 01-.4.7zm-256.8 8.7a.5.5 0 01-.5-.4l-.6-5.8c0-.3.1-.5.4-.5.2 0 .5.2.5.4l.7 5.8a.5.5 0 01-.5.5zm482.1.7a.5.5 0 01-.3-.8l3.5-4.6a.5.5 0 11.8.6 129.7 129.7 0 01-4 4.8zm-218.7.3l-.4-.2-1.5-2.2-1.8-2.7a.5.5 0 11.8-.5l1.8 2.7 1.4 2.1a.5.5 0 01-.3.8zm211 8.5c-.1 0-.2 0-.3-.2a.5.5 0 010-.6l4-4.3a.5.5 0 01.6.6 128.3 128.3 0 01-4.3 4.5zm-204.4 1l-.4-.1-3.4-4.8a.5.5 0 01.2-.7c.2-.1.5 0 .6.2l3.4 4.7a.5.5 0 01-.4.8zm-267.7 1a.5.5 0 01-.4-.4l-1.4-5.7a.5.5 0 011-.2c.3 2 .8 3.8 1.3 5.7a.5.5 0 01-.5.6zm184.7 4.5l-.3-.1a.5.5 0 010-.7l3.7-4.5a.5.5 0 01.7.6 174.3 174.3 0 01-4 4.7zm279 1.5a.5.5 0 01-.4-.9c1.5-1.2 3-2.5 4.3-3.9h.7c.2.3.2.6 0 .7a126.3 126.3 0 01-4.7 4zm-188.6 2h-.3a90.9 90.9 0 01-3.9-4.5.5.5 0 11.8-.6c1.2 1.6 2.5 3 3.8 4.4a.5.5 0 01-.4.8zm-271.4 3a.5.5 0 01-.4-.3c-.8-1.7-1.4-3.6-2-5.5a.5.5 0 01.8-.3l2 5.5a.5.5 0 01-.4.6zm173.1 2.1l-.3-.1a.5.5 0 010-.7c1.4-1.3 2.7-2.8 4-4.2a.5.5 0 11.7.6 166.8 166.8 0 01-4.4 4.4zm277.6 0l-.4-.1a.5.5 0 01.2-.7l4.6-3.5a.5.5 0 11.6.8 130.2 130.2 0 01-5 3.6zm-170.8 2.9l-.2-.1c-1.6-1.2-3-2.5-4.5-3.8a.5.5 0 01.6-.7 73 73 0 004.4 3.8.5.5 0 01-.3.8zm161 3.5a.5.5 0 01-.2-.9l5-3a.5.5 0 11.5.8 133 133 0 01-5.3 3zM223 248.5a.5.5 0 01-.3-.8l4.3-4c.2-.2.5-.1.6 0 .2.2.2.5 0 .7a160.3 160.3 0 01-4.6 4zm-159.6.3c-.1 0-.3 0-.4-.2a79 79 0 01-2.8-5.2c0-.2 0-.5.3-.6.2-.1.5 0 .6.2l2.7 5.1c.2.2 0 .5-.1.7h-.3zm284.5 1h-.2c-1.7-1-3.4-2-5-3.2a.5.5 0 11.5-.7l5 3a.5.5 0 01-.3.9zm141 2.4a.5.5 0 01-.2-.9l5.2-2.6c.2 0 .5 0 .6.2.2.3 0 .5-.1.7a138.8 138.8 0 01-5.5 2.6zM358.3 255h-.2l-5.3-2.5a.5.5 0 01-.2-.6c0-.2.4-.3.6-.2 1.7.8 3.5 1.7 5.3 2.4a.5.5 0 01-.2 1zm-144.4 1a.5.5 0 01-.3-.9l4.5-3.6a.5.5 0 01.6.8 152.6 152.6 0 01-4.8 3.7zm264.2 1a.5.5 0 01-.2-1l5.4-2.2a.5.5 0 01.4.9 147.2 147.2 0 01-5.6 2.2zM70 258.3c-.1 0-.3 0-.4-.2-1.2-1.5-2.4-3-3.5-4.7a.5.5 0 01.7-.5l3.6 4.6c.1.2.1.5-.1.7H70zm299.2.7h-.1l-5.6-2a.5.5 0 01.4-.9l5.5 2c.2 0 .3.3.3.5-.1.2-.3.4-.5.4zm97.8 1.4a.5.5 0 01-.1-.9l5.5-1.7c.3-.1.6 0 .6.3.1.2 0 .5-.3.6a153.2 153.2 0 01-5.7 1.7zm-86.6 1.8l-5.7-1.5a.5.5 0 01.3-.9l5.6 1.5a.5.5 0 01-.2.9zm-176.1.3a.5.5 0 01-.3-.9l4.9-3.2c.2-.2.5-.1.6 0 .2.3.1.6 0 .7a149 149 0 01-5.2 3.4zm251.4.8a.5.5 0 01-.1-1l5.7-1.3a.5.5 0 11.2 1 158.1 158.1 0 01-5.8 1.3zm-63.8 1.3h-.1l-5.8-1.1a.5.5 0 01.2-1l5.8 1.1c.2 0 .4.3.3.6 0 .2-.2.4-.4.4zm52.3.7a.5.5 0 010-1l5.7-.8c.2 0 .5.1.5.3 0 .3 0 .5-.3.6a166.4 166.4 0 01-5.9 1zm-40.7.8h-.1l-5.8-.7a.5.5 0 11.1-1c2 .4 3.9.6 5.8.8a.5.5 0 010 1zm-325.3.4H78a61.7 61.7 0 01-4.3-4 .5.5 0 01.7-.7 55 55 0 004.2 3.9.5.5 0 01-.3.8zm354.4 0a.5.5 0 010-1c1.9 0 3.8-.2 5.8-.4.2 0 .5.1.5.4 0 .3-.2.5-.4.5l-5.9.5zm-17.5.4l-5.9-.3a.5.5 0 11.1-1l5.8.3a.5.5 0 010 1zm5.8 0a.5.5 0 010-.9l5.9-.1c.2 0 .4.2.4.5 0 .2-.2.4-.4.4l-5.9.1zm-226.7 1.5c-.1 0-.3 0-.4-.2-.1-.3 0-.5.2-.7l5-2.8a.5.5 0 11.6.8 145.8 145.8 0 01-5.4 3zm-106.4 4.8h-.2l-5-3.2a.5.5 0 01.6-.8l4.9 3.1a.5.5 0 01-.3.9zm96 .3a.5.5 0 01-.3-.9l5.3-2.4c.3-.1.5 0 .6.2.2.2 0 .5-.2.6a141.7 141.7 0 01-5.5 2.5zm-11 4.2a.5.5 0 01-.1-1c1.8-.5 3.6-1.2 5.4-1.9.3 0 .6 0 .7.3 0 .2 0 .5-.3.6a139 139 0 01-5.7 2zm-74.4.5h-.2c-1.8-.8-3.7-1.5-5.4-2.4a.5.5 0 11.4-.8l5.3 2.3c.3 0 .4.4.3.6 0 .2-.2.3-.4.3zm63.2 2.7a.5.5 0 01-.1-.9c1.9-.4 3.7-1 5.6-1.5a.5.5 0 01.3 1 133 133 0 01-5.8 1.4zm-52 .8h-.2l-5.7-1.6a.5.5 0 11.3-.9l5.6 1.5a.5.5 0 010 1zm40.5 1.5a.5.5 0 010-1l5.7-1a.5.5 0 01.2 1 127 127 0 01-5.9 1zm-29 .5h-.1c-2-.2-4-.5-5.8-.9a.5.5 0 01.1-.9l5.8.9a.5.5 0 010 .9zm17.4.6a.5.5 0 010-1c2 0 3.9-.2 5.8-.4.3 0 .5.2.5.4 0 .3-.2.5-.4.5l-5.9.5zm-5.8 0l-5.9-.1a.5.5 0 01-.4-.5c0-.3.2-.5.5-.4l5.8.1c.2 0 .4.3.4.5 0 .3-.2.5-.4.5z"/><path fill="#FFA331" d="M540 42.7L525 26.2l1.3 23.7z"/><path fill="#FFBF4D" d="M545 35.8l-5 7-15-16.5m12.8 19.6l-12.9-19.6 7.4 28.4z"/><path fill="#F7E8C8" d="M625.1 365.8c0 7.8-140 14.2-312.5 14.2C139.9 380 0 373.6 0 365.8c0-7.9 140-14.2 312.6-14.2 172.6 0 312.5 6.3 312.5 14.2"/><path fill="#A4B750" d="M145.8 244c-2.3-2.5-10.2-10-9.3-13.5a9 9 0 018.7-6.6c1.6.1 3.2.7 4.8 0 1-.5 1.6-1.5 1.4-2.4-.3-1.6-2.3-1.6-3.9-1.5-3 .2-6-.2-8.4-1.7a8.4 8.4 0 01-4-7.4c.2-3 2.5-6.1 5.5-6.8 1.8-.4 3.7.2 5.5-.7 1-.5 1.7-1.4 1.7-2.5 0-2-2.7-2.4-4.8-2.3-2.9.1-5.8 0-8.4-1.1a8.3 8.3 0 01-5-6.3c-.5-3 1.3-6.3 4.2-7.2 1.1-.4 2.3-.4 3.4-.6 1.4-.4 2.9-1.4 2.7-3 0-1.1-1-1.9-2-2-1.5-.3-2.9.3-4.3.8-2.2.9-4.5.9-6.5 0-5.9-2.9-3.6-10.7 1.2-12.9 1.4-.6 3-1 3.6-2.4.4-1.2-.2-2.4-1.2-2.9-2-1-4.2 0-6.4 0-3.8-.2-6.6-4.6-5.2-8.5 1-3 4.5-1.7 7.9-1.1.8.1 1.3-1 .7-1.4-2.4-2-5-5-6.3-6.9-2.4-3.4-2.5-11 4-10.5 1.7 0 4.6 2.7 4.9 4.2.4 2 2.8 7.8 2.8 7.8.3.6 1.3.3 1.3-.4.1-1.6.4-3.2 1.2-4.7.4-.7 1-1.3 1.5-1.8 3.7-3 7.5.3 8 4 .3 3-1 6.2-2.1 9.2-.6 1.5-1.2 3.2-.5 4.7a2 2 0 002.3 1c1.1-.4 1.4-1.5 1.8-2.3 1.5-2.9 5.5-3.7 8-2.1 2.4 1.6 3.3 5 2.8 8.1-.5 3.1-2.2 6-4.1 8.6-1 1.3-2 2.6-1.8 4.2 0 1 .8 1.8 1.8 1.6 1.4-.1 1.9-1.7 2.6-3 2-3.2 7-3.6 9.5-1.3 2.6 2.4 3 6.6 1.8 10.2-1.3 4.1-4.2 7.6-7 10.8-.7.8-.8 1.9-.3 2.6.8 1 2 .4 3.1 0a9 9 0 0111.1 3.2c2.2 3.6 1.3 9-1.8 12.2-2 2-4.9 3.2-5.9 6.2-.4 1.5 0 3.1 1.4 3.6 1.7.7 3.4-.8 5-1.8 4.4-2.5 10.1.3 11.7 4.9 1.6 4.6-3.6 12.6-6.7 16.8-3.2 4.1-9.6 13-15.3 15.8-2.8 1.4-14.4-8.5-16.7-11"/><path fill="#619340" d="M125.3 132.6c1.8 0 4.7 2.7 5 4.2.4 2 2.8 7.8 2.8 7.8.3.6 1.3.3 1.3-.4.1-1.6.4-3.2 1.2-4.7.4-.7 1-1.3 1.5-1.8 3.7-3 7.5.3 8 4 .3 3-1 6.2-2.1 9.2-.6 1.5-1.2 3.2-.5 4.7a2 2 0 002.3 1c1.1-.4 1.4-1.5 1.8-2.3 1.5-2.9 5.5-3.7 8-2.1 2.4 1.6 3.3 5 2.8 8.1-.5 3.1-2.2 6-4.1 8.6-1 1.3-2 2.6-1.8 4.2 0 1 .8 1.8 1.8 1.6 1.4-.1 1.9-1.7 2.6-3 2-3.2 7-3.7 9.5-1.3 2.6 2.4 3 6.6 1.8 10.2-1.3 4.1-4.2 7.6-7 10.8-.7.8-.8 1.9-.3 2.6.8 1 2 .4 3.1 0a9 9 0 0111.1 3.2c2.2 3.6 1.3 9-1.8 12.2-2 2-4.9 3.2-5.9 6.2-.4 1.5 0 3.1 1.4 3.6 1.7.7 3.3-.8 5-1.8 4.4-2.5 10.1.3 11.7 4.9 1.6 4.6-3.6 12.6-6.7 16.8-3 3.9-8.7 11.8-14.2 15.2l-1.1.6s-3.2-36.2-14.8-73.2c-6.4-20.6-26.3-48-26.3-48s.4-.3 1-.6a8 8 0 013-.5"/><path fill="#316C35" d="M202.5 230c0 4-.6 8-1.3 11.8-.9 5-2.2 6-5.2 9.6-3 3.6-7.3 5.9-11.5 5.2-4.3-.6-8 .2-9.3-4.7-.2-.7-1-.5-1.1-.3-1.2 2-1.8 3.2-3.6 4.1-1.9 1-12.3 4.2-19-6.9-2.2-8.5-.8-17.2 0-26.1.1-1.2.3-2.3.8-3.3 1-1.7 3-2.3 4.6-1.1-1.5-.5-2.5-2.3-2.7-4.2-.3-1.8 0-3.6.4-5.4l4-19.8c3.5 3.3 8.1 4.7 12.4 3.8 0 0-11.8-8.3-9.1-14.7 1.9-4.7 4.7-11.2 6.4-16 1.2-3.4 3.7-6.5 6-8.9 2-2 3.3-3.4 5.8-4.4 1.5-.6 3-1.2 4.6-.9 2.4.5 4.1 2.9 5.6 5.2 2.5 4.3 4.6 9.1 6.3 14 2 5.8 3.8 11.7 5 17.8-5 5.3-11.1 8.9-17.7 10.4 5.6.3 11.1-.8 16.3-3.3.6-.3 1.3-.6 1.9-.4 1.3.5 1.2 2.7 1 4.2-1 6.7-.4 13.7 1.7 20l-6.5-.2 7.4 2.9s-3.1 8.2-3.2 11.7"/><path fill="#A4B750" d="M204.2 232.7c-.1 4-3.8 14.7-8 19.6-3 3.6-7.6 5.6-11.9 5.7-3.4.1-7.8-1.2-9.1-6.1-.2-.7-1-.5-1.1-.3-1.2 2 9-104 10.6-103.8 2.4.5 4.1 2.9 5.6 5.2 2.5 4.3 4.6 9.1 6.3 14a137 137 0 015 17.8c-5 5.3-11.1 8.9-17.7 10.4 5.6.3 11.1-.8 16.3-3.3.6-.3 1.3-.6 1.9-.4 1.3.5 1.2 2.7 1 4.2-1 6.7-.4 13.7 1.7 20l-6.5-.2 7.4 2.9s-1.5 10.8-1.5 14.3"/><path fill="#619440" d="M616.2 296.6c-.7 0-1.6.2-2.5.5a16 16 0 00-5.3 3.2c-4.3 4-4.7 9.8-4.5 12.4 2.7-.3 8.5-1.4 12-6.3 1-1.5 2-3.5 2.4-5.2.5-2 .3-3.3-.4-4-.4-.4-1-.6-1.7-.6zm-13 17v-.5c-.2-2.5 0-9 4.7-13.3 1.5-1.4 3.6-2.7 5.5-3.4 2.3-.7 4-.7 5 .2 1.2 1.2 1 3.2.6 4.8-.4 1.8-1.4 3.9-2.5 5.4-3.8 5.4-10.3 6.5-13 6.7h-.3zm-9.4-21.3h-.4c-1 .3-1.8 1.6-2.3 3.6a16 16 0 00-.1 6.2c1 5.8 5.7 9.1 8 10.5 1.3-2.5 3.4-8 1.2-13.6-.8-1.7-2-3.5-3.2-4.8-1.1-1.2-2.2-1.9-3.2-1.9zm5.5 21.3l-.3-.2c-2.3-1.2-7.6-4.8-8.8-11.2-.3-2-.3-4.4.2-6.4.5-2.3 1.5-3.8 2.8-4.1 1.6-.4 3.3.8 4.4 2 1.3 1.4 2.5 3.3 3.2 5 2.5 6.1 0 12.2-1.3 14.5l-.2.4z"/><g transform="translate(603 313)"><mask id="b" fill="#fff"><use xlink:href="#a"/></mask><path fill="#619440" d="M1.3 4.9c1.8 2 6.2 6 12.2 5.9 1.9 0 4-.5 5.6-1.2 1.8-.8 2.9-1.7 3-2.7.1-1-.8-2.3-2.5-3.4A16 16 0 0014 1C8 .1 3.3 3.2 1.3 5m11.9 6.6C6.8 11.5 2.2 7 .4 5.1l-.2-.3.3-.2C2.5 2.9 7.7-.8 14 .4c2 .4 4.3 1.3 6 2.5 2 1.3 3 2.7 2.8 4-.1 1.7-2 2.8-3.4 3.4a17.2 17.2 0 01-6.2 1.2" mask="url(#b)"/></g><path fill="#619440" d="M592.8 328l-.6-.3a141 141 0 0122.1-26.4l.5.6a140.7 140.7 0 00-22 26.2"/><path fill="#619440" d="M615 319.9c-9.1 0-14.3-2.9-14.5-3h-.1v-.2c-.1 0-4.5-9.3-5.8-17.2h.7a76.6 76.6 0 005.7 16.8c.8.4 7 3.4 17 2.7l.1.8h-3m-62.3-18.2c5.2.4 17 .4 25.6-7.9 4.8-4.7 9.8-13.6 7-17.2-2.8-3.7-13-1.6-19.6 2.5-9.8 6.3-12.3 17.6-13 22.6m3.7.8c-1.6 0-3 0-4.1-.2h-.4v-.4c.6-4.8 3-16.8 13.4-23.4 7-4.4 17.5-6.4 20.6-2.4 3.1 4.2-2.2 13.4-7.1 18.2-7 7-16.3 8.2-22.4 8.2"/><path fill="#619440" d="M521 314.3v-.7a117.2 117.2 0 0056.3-30.9l.5.5a118.1 118.1 0 01-56.7 31"/><path fill="#619440" d="M570 296l-7.5-.2v-.7l7.5.3zm1.6-7.5l-.7-.1 1.2-6.4h.7zm4.3-65c-2.4 0-5.4 1-8.8 3.2a46.6 46.6 0 00-12 11c-10.4 14.1-7.8 31.5-6.1 38.7 7-1.8 23-7.7 30-23.3 4.8-10.4 5.8-25.6-.2-29a6 6 0 00-3-.6zm-27.5 53.8v-.3c-1.8-7.1-4.6-25.1 6.2-39.7 5.9-7.9 18-17.4 24.6-13.8 6.3 3.6 5.5 19 .5 29.9-7.3 16.2-24 22-31 23.8l-.3.1z"/><path fill="#619440" d="M521.8 314.3l-.6-.5c.2-.1 13.8-18.3 27.2-37.1a352 352 0 0024.2-40.4l.6.4c0 .2-10.8 21.6-24.2 40.4-13.4 18.8-27 37-27.2 37.2"/><path fill="#619440" d="M560.5 259.3h-.7l.2-14h.7zm6.7-11.4l-.5-.5a9 9 0 013.9-2.3l4.5-1.7.2.7-4.5 1.7c-1.2.5-2.7 1-3.6 2.1"/><mask id="d" fill="#fff"><use xlink:href="#c"/></mask><path fill="#FFDDCF" d="M299.4 367.8h194.2V245.5H299.4z" mask="url(#d)"/><path fill="#FFF" d="M458.6 307.5l-36.9 15.8a1 1 0 01-1.4-1v-4.9c0-.4.2-.8.6-1l28-11.5a1 1 0 000-2l-28-11.4a1 1 0 01-.6-1v-4.9a1 1 0 011.4-1l36.9 15.7c.4.1.6.5.6 1v5.3c0 .4-.2.8-.6 1m-52 26.4h-3.7a1 1 0 01-1-.8l-16.4-58.7a1 1 0 011-1.3h3.6c.4 0 .9.3 1 .7l16.4 58.8a1 1 0 01-1 1.3m-72.7-27.4v-5.4c0-.4.3-.8.7-1l36.8-15.5a1 1 0 011.5 1v4.9c0 .4-.3.8-.7 1L344.3 303a1 1 0 000 1.9l27.8 11.6c.4.1.7.5.7 1v4.8a1 1 0 01-1.5 1l-36.8-15.8a1 1 0 01-.7-1" mask="url(#d)"/><path fill="#F7C7BA" d="M308.5 232.8h176c5 0 9.1 4 9.1 9v3.7H299.4V242c0-5 4.1-9.1 9.1-9.1" mask="url(#d)"/><path fill="#FFF" d="M309.7 238.7a2.3 2.3 0 114.7 0 2.3 2.3 0 01-4.7 0m10.3 0a2.3 2.3 0 114.6 0 2.3 2.3 0 01-4.6 0m10.2 0a2.3 2.3 0 114.6 0 2.3 2.3 0 01-4.6 0" mask="url(#d)"/><path fill="#FDC854" d="M149.3 355.1h77.9c2.4 0 4.3 2 4.3 4.3v3.8c0 2.3-2 4.2-4.3 4.2h-77.9a4.3 4.3 0 01-4.2-4.2v-3.8c0-2.4 1.9-4.3 4.2-4.3" mask="url(#d)"/><path fill="#F89F4F" d="M145 365c0 1.4 1.1 2.4 2.4 2.4h81.7c1.3 0 2.4-1 2.4-2.3v-1.3H145v1.3z" mask="url(#d)"/><path fill="#FDC854" d="M149.3 342.8h77.9c2.4 0 4.3 1.9 4.3 4.2v3.9c0 2.3-2 4.2-4.3 4.2h-77.9c-2.3 0-4.2-1.9-4.2-4.2V347c0-2.3 1.9-4.2 4.2-4.2" mask="url(#d)"/><path fill="#F89F4F" d="M145 352.7c0 1.4 1.1 2.4 2.4 2.4h81.7c1.3 0 2.4-1 2.4-2.4v-1.2H145v1.2z" mask="url(#d)"/><path fill="#FDC854" d="M149.3 330.4h77.9c2.4 0 4.3 2 4.3 4.3v3.8c0 2.4-2 4.3-4.3 4.3h-77.9c-2.3 0-4.2-2-4.2-4.3v-3.8c0-2.4 1.9-4.3 4.2-4.3" mask="url(#d)"/><path fill="#F89F4F" d="M145 340.4c0 1.3 1.1 2.4 2.4 2.4h81.7c1.3 0 2.4-1 2.4-2.4v-1.3H145v1.3z" mask="url(#d)"/><path fill="#FDC854" d="M144.6 318h77.9c2.3 0 4.2 2 4.2 4.3v3.9c0 2.3-1.9 4.2-4.2 4.2h-78c-2.3 0-4.2-1.9-4.2-4.2v-3.9c0-2.3 2-4.2 4.3-4.2" mask="url(#d)"/><path fill="#F89F4F" d="M140.3 328c0 1.4 1 2.4 2.4 2.4h81.7c1.3 0 2.3-1 2.3-2.3v-1.3h-86.4v1.3z" mask="url(#d)"/><path fill="#FDC854" d="M149.3 305.7h77.9c2.4 0 4.3 2 4.3 4.3v3.8c0 2.4-2 4.3-4.3 4.3h-77.9a4.3 4.3 0 01-4.2-4.3V310c0-2.4 1.9-4.3 4.2-4.3" mask="url(#d)"/><path fill="#F89F4F" d="M145 315.7c0 1.3 1.1 2.4 2.4 2.4h81.7c1.3 0 2.4-1 2.4-2.4v-1.3H145v1.3z" mask="url(#d)"/><path fill="#FDC854" d="M146 293.4h78c2.3 0 4.2 1.9 4.2 4.2v3.9c0 2.3-1.9 4.2-4.2 4.2h-78c-2.3 0-4.2-1.9-4.2-4.2v-3.9c0-2.3 2-4.2 4.3-4.2" mask="url(#d)"/><path fill="#F89F4F" d="M141.8 303.4c0 1.3 1 2.3 2.4 2.3h81.7c1.3 0 2.3-1 2.3-2.3V302h-86.4v1.3z" mask="url(#d)"/><path fill="#FDC854" d="M144.6 281h77.9c2.3 0 4.2 2 4.2 4.3v3.8c0 2.4-1.9 4.3-4.2 4.3h-78c-2.3 0-4.2-2-4.2-4.3v-3.8c0-2.3 2-4.2 4.3-4.2" mask="url(#d)"/><path fill="#F89F4F" d="M140.3 291c0 1.3 1 2.4 2.4 2.4h81.7c1.3 0 2.3-1 2.3-2.4v-1.2h-86.4v1.2z" mask="url(#d)"/><path fill="#FDC854" d="M145 268.7h77.9c2.3 0 4.2 2 4.2 4.3v3.8c0 2.3-1.9 4.3-4.2 4.3h-78a4.3 4.3 0 01-4.2-4.3V273c0-2.4 2-4.3 4.3-4.3" mask="url(#d)"/><path fill="#F89F4F" d="M140.7 278.7c0 1.3 1 2.4 2.4 2.4h81.7c1.3 0 2.3-1.1 2.3-2.4v-1.3h-86.4v1.3z" mask="url(#d)"/><path fill="#FDC854" d="M143.8 256.4h77.9c2.3 0 4.2 1.9 4.2 4.2v3.9c0 2.3-1.9 4.2-4.2 4.2h-78a4.3 4.3 0 01-4.2-4.2v-3.9c0-2.3 2-4.2 4.3-4.2" mask="url(#d)"/><path fill="#F89F4F" d="M139.5 266.4c0 1.3 1 2.3 2.4 2.3h81.7c1.3 0 2.3-1 2.3-2.4v-1.2h-86.4v1.2z" mask="url(#d)"/><path fill="#FDC854" d="M144.6 244h77.9c2.3 0 4.2 2 4.2 4.3v3.8c0 2.4-1.9 4.3-4.2 4.3h-78c-2.3 0-4.2-2-4.2-4.3v-3.8c0-2.4 2-4.3 4.3-4.3" mask="url(#d)"/><path fill="#F89F4F" d="M140.3 254c0 1.3 1 2.4 2.4 2.4h81.7c1.3 0 2.3-1 2.3-2.4v-1.3h-86.4v1.3z" mask="url(#d)"/><path fill="#FDC854" d="M142.6 231.7h77.9c2.3 0 4.2 1.9 4.2 4.2v3.9c0 2.3-1.9 4.2-4.2 4.2h-78c-2.3 0-4.2-1.9-4.2-4.2v-3.9c0-2.3 2-4.2 4.3-4.2" mask="url(#d)"/><path fill="#F89F4F" d="M138.3 241.7c0 1.3 1 2.3 2.4 2.3h81.6c1.4 0 2.4-1 2.4-2.3v-1.3h-86.4v1.3z" mask="url(#d)"/><path fill="#FDC854" d="M144.6 219.3h77.9c2.3 0 4.2 2 4.2 4.3v3.8c0 2.4-1.9 4.3-4.2 4.3h-78a4.3 4.3 0 01-4.2-4.3v-3.8c0-2.4 2-4.3 4.3-4.3" mask="url(#d)"/><path fill="#F89F4F" d="M140.3 229.3c0 1.3 1 2.4 2.4 2.4h81.7c1.3 0 2.3-1 2.3-2.4v-1.2h-86.4v1.2z" mask="url(#d)"/><path fill="#FDC854" d="M186.3 327.2a41.3 41.3 0 10-82.5-2 41.3 41.3 0 0082.5 2" mask="url(#d)"/><path fill="#F89F4F" d="M178.1 327a33 33 0 10-66-1.6 33 33 0 0066 1.6" mask="url(#d)"/><path fill="#FDC854" d="M153.7 311.2c1 0 1.7-1 1.7-2.1 0-1.2-.8-2.2-1.7-2.2l-10.4.1h-7c-.9 0-1.7 1-1.7 2.2 0 1.2.8 2.1 1.8 2.1h7c2.2 0 4 1.7 4.8 4.2l-11.8.1c-1 0-1.7 1-1.7 2.1 0 1.2.8 2.2 1.7 2.2l11.8-.1c-.7 2.5-2.5 4.3-4.8 4.3h-7l-.6.2a2 2 0 00-1 1.2v1.6l.5.7 14 17c.3.4.7.6 1.2.6.4 0 .9-.2 1.2-.6.7-.8.7-2.2 0-3l-11-13.4h2.7c4.2 0 7.7-3.8 8.5-8.6h1.9c1 0 1.7-1 1.7-2.2 0-1.2-.8-2.1-1.8-2.1h-1.9c-.2-1.6-.8-3-1.6-4.3h3.5z" mask="url(#d)"/><path fill="#57575E" d="M158.8 122.2c-2.3-5-3.2-12.4.7-15.8 3.7-3.2 8.5 0 12-3.3s0-8.2 2.5-13.4c4-8 19.7-12.7 26.7-6.3 3.2 3 4.9 8.7 3.1 12.8-2 4.9-7.3 3.8-10.5 9.4-2.9 5.2.3 8.4-2.7 11.8-3.7 4.3-9.8.9-13.6 5.2-3.7 4.1-.1 10.3-3 11.6-3.3 1.5-11.8-4.5-15.3-12" mask="url(#d)"/><path fill="#FDC854" d="M209.1 98.6a5.3 5.3 0 10-10.7 0 5.3 5.3 0 0010.7 0" mask="url(#d)"/><path fill="#F26D6D" d="M259.3 178.5h1l1.2.2a5 5 0 003.6 1.9l1.7-.1.7-.2 1.3-.3c1-.3 2.8-.8 3.2-2 0-.2.4-.8 0-.9a34 34 0 00-7-1.7c0-.5.2-1 .6-1.3l.8-.5c.3-.1.6-.3.7-.6.1-.3 0-.7-.2-.9-.3-.1-.7 0-1 .2l-1.6 1c-.4.2-1 .4-1.3.8-.2.2-.3.5-.6.6h-.7l-1.8-.2-.6 4" mask="url(#d)"/><path fill="#FFA331" d="M206.3 133.8s1.6 21.9 7.7 33.7c5.8 11.2 45.6 11.2 45.6 11.2l.6-4.3s-17-7.7-34.8-11.2c0 0-2.3-17.2-7-32.2a4 4 0 00-6.5-1.8l-5.6 4.6z" mask="url(#d)"/><path fill="#FFA331" d="M223.4 167.1l-.5-.8a5 5 0 002.1-3.3l1 .2a6 6 0 01-2.6 4" mask="url(#d)"/><path fill="#FFC581" d="M277.1 291.8h6.3v-1.6h-6.3z" mask="url(#d)"/><path fill="#A29C8F" d="M277.2 290.2s-2.8 2.7 0 5.4h16.2c0-.3.4-2-.5-3.5a4.6 4.6 0 00-2.3-1.9h-7.8s-2.8 1.7-5.6 0" mask="url(#d)"/><path fill="#57575E" d="M276.7 297.3h19v-1.7h-19zm14-7c2.5 0 4.5 2 4.5 4.5v.8h-2.5a6.4 6.4 0 00-2-5.4" mask="url(#d)"/><path fill="#FFC581" d="M282.2 287.4l.4 2.8-4.8.2-.2-3.2z" mask="url(#d)"/><path fill="#57575E" d="M286.7 292l-.8-1.3 1-.6.8 1.3zm-1.6.1l-.7-1.3 1-.5.6 1.3z" mask="url(#d)"/><path fill="#7F786A" d="M282.4 287.5s-5.7-45.5-12.1-80.5c-1.2-6.8-8-11.8-14.8-13.3a291.5 291.5 0 00-40.6-6.8s0-9.4-7.2-22.3l-29.6 4.7s-8.5 15.8-8.3 20.6c0 0-4.1 41.8 58.4 30.6l21.5-3.5a701.1 701.1 0 0027.9 70.5h4.8z" mask="url(#d)"/><path fill="#7F786A" d="M276.4 288.4h6.7V286h-6.7z" mask="url(#d)"/><path fill="#A29C8F" d="M244 193.1a334 334 0 00-37.8-4.5s-1.7-16-4-22.7l-28 4.9s-10.1 15.5-9.9 20.3c0 0-2 20.3 18 28.8h51l2.5-.4v.4l13.6 70 3.8-3.5 4.6-66.5c.4-6.5.7-5.7 1-11.7.3-8.3-6.6-13.6-14.8-15.1" mask="url(#d)"/><path fill="#FFBF4D" d="M214.5 182.5c0-17.7 3.1-30.5 5.2-38.1.5-1.7.4-5.5.5-10.4 0-3.7-2-7.2-5.2-9l-11.6-6.6-10.2.8a11 11 0 00-6.4 2.7c-4.2 3.7-7 29-7 29-.5 5-2 12.5-6.3 21.3a77.5 77.5 0 0041 10.3" mask="url(#d)"/><path fill="#FFE2B7" d="M199 115.8l1.5-8.4 8.4 1.3-1.8 9.3c-.1 1.7 1.7 3.5 3.2 4.3l2.7 1.5c0 5-.3 11.5-2.4 12-1.3.3-2.7-1.6-4.8-4.2-2.5-3-6.3-7.4-11.5-12.5 2-.1 4.2-1.5 4.6-3.3" mask="url(#d)"/><path fill="#FFC581" d="M206.2 116.4h1.2l1.5-7.7-8.4-1.3-.3 1.7c.3 3.5 2.8 7 6 7.3" mask="url(#d)"/><path fill="#FFE2B7" d="M210.6 100.1c.2.3 2.2 2.5 2.2 5.5 0 4-3.5 8.8-7.5 8.4-3.8-.3-6.5-5.1-6-9.1.4-3.6 3.4-7.2 6.7-7.2 2.4 0 4 1.9 4.6 2.4" mask="url(#d)"/><path fill="#57575E" d="M211.3 96c.8 1.6-.7 4-2.1 5.2-3.4 3-9.8 2.3-10.8-.1-.7-1.7 1.2-4.3 3-5.6 3.5-2.3 8.9-1.9 10 .4" mask="url(#d)"/><path fill="#FFC581" d="M248.2 291.7h6.1V290h-6.1z" mask="url(#d)"/><path fill="#FFA331" d="M189 179a95 95 0 0025.5 3.5c.5-5 0-6.2-1-9.9-3.4-2.2-18.8-8.2-21.3-9.6-3-1.6 1.5-14-.8-16-1.8-1.5-5-9.6-9.8-8.2-1.1 6.4-1.7 12.1-1.7 12.1-.6 5.1-2 12.6-6.5 21.4 4 2.3 9.3 4.8 15.5 6.8" mask="url(#d)"/><path fill="#7F786A" d="M248.1 287.7h5.7v-2.4h-5.7z" mask="url(#d)"/><path fill="#A29C8F" d="M248.2 290s-2.9 2.8 0 5.6h12.4V290H254s-3 1.7-6 0" mask="url(#d)"/><path fill="#57575E" d="M255.7 295.6h9.7v-1c0-2.5-2-4.6-4.6-4.6h-.5c-2.5 0-4.6 2-4.6 4.6v1zM247.7 297.3h18.1v-1.7h-18.1z" mask="url(#d)"/><path fill="#FFC581" d="M248.5 290.2h5v-2.5h-5z" mask="url(#d)"/><path fill="#57575E" d="M255.7 292l-1-.5c.5-.7 1.1-1.3 1.9-1.7l.5 1c-.6.2-1 .7-1.4 1.3m-1.6-.5l-.9-.6c.5-.7 1.1-1.2 1.8-1.6l.5 1a5 5 0 00-1.4 1.2" mask="url(#d)"/><path fill="#FFE2B7" d="M197.4 103.8a1.9 1.9 0 113.7.4 1.9 1.9 0 01-3.7-.4" mask="url(#d)"/><path fill="#FFBF4D" d="M198.7 105.4a.7.7 0 10-1.5-.3.7.7 0 001.5.3" mask="url(#d)"/><path fill="#7F786A" d="M236 219.6l-.7-.7 2.6-2.5.7.8z" mask="url(#d)"/><path fill="#FFA331" d="M210.3 136.2l-.9-.3c-1.3-.8-2.4-2-3.3-3L194 119l.6-.6 12 13.7c1 1 2 2.2 3.2 2.9.3.2.7.1.9-.2.3-.4.6-.9.7-1.4.3-.9.4-1.8.5-2.7l.7-7.1h1l-.7 7.2c-.1 1-.2 2-.6 3-.2.5-.5 1.1-.9 1.6-.3.4-.8.7-1.2.7" mask="url(#d)"/><path fill="#7F786A" d="M197.8 189.4l-.2-1c2.8-.7 5.8-.8 8.7-.4l-.1 1c-2.8-.3-5.7-.2-8.4.4" mask="url(#d)"/><path fill="#FB9C98" d="M227.4 183.7c-.5-.6-.4-1.8.5-2.5.6-.1 1.5-.3 2.5-.3 3 0 5.2 1.1 6.7 1.9l3 1.8c.5.4.1 1.3-.6 1.2l-10.6-1.6s-1 .1-1.5-.5" mask="url(#d)"/><path fill="#FFBF4D" d="M194 120.6a7 7 0 00-10.3 4.9c-2 10.5-5.1 30.1-2.2 37.6 4 10.4 46 20.5 46 20.5l.7-2.5-35.1-21.3s5.7-36.5 1-39.1h-.1" mask="url(#d)"/><path fill="#FFA331" d="M213.4 171.8l-15.5-8.9c-1.3-.8-3-1.7-3.8-3.4a9 9 0 01-.5-4.7l1.2-15.7h1l-1.3 15.8c0 1.4-.2 3 .4 4.2.7 1.4 2.3 2.3 3.5 3l15.5 8.9-.5.8z" mask="url(#d)"/><path fill="#7F786A" d="M204.3 188.1h19.1l36.2-36a2 2 0 011.4-.5H292a2 2 0 011.4 3.5l-35 36.2-54-.1V188z" mask="url(#d)"/><path fill="#7F786A" d="M258.3 191.3l-54-.1V188h19.1l36.2-36a2 2 0 011.4-.5h1.7l-.5 35.7-3.9 4z" mask="url(#d)"/><path fill="#A29C8F" d="M259.6 170.8c1.8-2.5 4.7-3.6 6.4-2.4 1.7 1.3 1.6 4.3-.2 6.8s-4.7 3.6-6.4 2.4c-1.7-1.3-1.6-4.3.2-6.8" mask="url(#d)"/><path fill="#FDC854" d="M220.5 222.4l12.3-2.4h-53.3c8.7 3.6 22 5.8 41 2.4" mask="url(#d)"/><path fill="#FFE2B7" d="M270 333a26 26 0 00-15.2 13.8c-3.7 7.4-3.9 14.9-3.8 18h41.8c0-3.1-.1-10.6-3.8-18a26 26 0 00-15.3-13.7.4.4 0 010-.8 26 26 0 0015.3-13.8c3.7-7.5 3.8-15 3.8-18H251c0 3 0 10.5 3.8 18a26.1 26.1 0 0015.2 13.8c.4 0 .4.6 0 .8" mask="url(#d)"/><path fill="#7F786A" d="M249.7 368h44.7v-3.2h-44.7zm0-67.5h44.7v-3.1h-44.7z" mask="url(#d)"/><path fill="#FFA331" d="M290.7 304.8c-.3 3.3-1 12.6-8.7 20.1a31 31 0 01-8.1 5.8 4.5 4.5 0 01-4 0 31 31 0 01-8.2-5.8c-7.6-7.5-8.3-16.8-8.7-20.1h37.7zM272 362.6c-1.5 0-2.8 1-3.4 2.2h6.9c-.6-1.3-2-2.2-3.5-2.2" mask="url(#d)"/><path fill="#FFA331" d="M272.6 363.3h-1.4l.2-32.6h1z" mask="url(#d)"/><path fill="#FFBF4D" d="M255.4 308.5c-1 .6.4 5.2 2 8.4 2.2 4.4 6 8.8 7.1 8.2 1.1-.6-.2-5.7-2.4-9.6-2.1-3.9-5.7-7.6-6.7-7" mask="url(#d)"/><path fill="#FFF4DD" d="M264.6 337.2c1 .6-.5 5.2-2 8.4-2.3 4.4-6 8.8-7.2 8.2-1-.5.3-5.7 2.4-9.6 2.2-3.9 5.7-7.6 6.8-7" mask="url(#d)"/><path fill="#FFA331" d="M434.4 97.3c-8-.5-15.5 4.3-18.4 11.8-3.5 9.3-7.7 21.2-8.5 26.6l-26 25.2 4 3.4s25.1-16.3 32.8-23.5c7.6-7.2 16.1-43.5 16.1-43.5" mask="url(#d)"/><path fill="#F6A19E" d="M483 361.5l.3 1-2.5 2.7-2.6-1.2-1-1.4-.3-1.2z" mask="url(#d)"/><path fill="#FFC581" d="M419.6 361.4l.1 1.2-1.2 2-3.5-.4-1-.6-.3-1V361z" mask="url(#d)"/><path fill="#47B27C" d="M453.5 173.2c-.9-.2-1.4-2.3-1-4.1.4-2.6 2.8-4 3.2-4.3.3.8.9 2.2.6 4-.3 2.1-1.8 4.5-2.8 4.4" mask="url(#d)"/><path fill="#47B27C" d="M453.4 172c.2.8-1.5 2.2-3.3 2.6-2.6.6-4.8-1-5.2-1.2.5-.6 1.6-1.7 3.3-2.2 2.1-.7 5-.2 5.2.7" mask="url(#d)"/><path fill="#47B27C" d="M452.2 170.9c-.6.7-2.7 0-4-1a6.8 6.8 0 01-2.2-5c.7 0 2.2.3 3.7 1.3 1.8 1.4 3 3.9 2.5 4.7" mask="url(#d)"/><path fill="#57575E" d="M456.4 78.6h.8c2.5 0 4.5-2 4.5-4.4v-4h-5.3v8.4z" mask="url(#d)"/><path fill="#A29C8F" d="M468.6 162s8.1 15.2 15.4 199.6h-9.2l-33.2-166V162h27z" mask="url(#d)"/><path fill="#A29C8F" d="M423.5 151.7s-18 14.2-18 52.3c.1 17 8.2 157.1 8.2 157.1l5.9.3c10.5-53.3 18.1-105.7 26.8-160 1.2-.2 7.6-.6 8.7-2 2.4-2.8 0-7.7.1-9.9.2-8.7.3-28.7-.3-36-7 .6-24.8-1.2-31.4-1.8" mask="url(#d)"/><path fill="#7F786A" d="M413.7 361.1s-8-140-8.1-157.1c-.1-38.1 18-52.3 18-52.3l4.6.5 4.2 2.7s-12.7 74.6-12.4 119.3V359c0 .7-.2 1.5-.4 2.3l-6-.3z" mask="url(#d)"/><path fill="#FFBF4D" d="M420.5 162.6a5.3 5.3 0 01-4-5.4 235.7 235.7 0 0111.1-62.7l23.3-5.2 18 7a289 289 0 01.8 66.5c-.1 1-.9 1.7-1.8 1.9a121.7 121.7 0 01-47.4-2" mask="url(#d)"/><path fill="#FFA331" d="M418.4 162a2.8 2.8 0 01-2-2.7c.4-13.4 2-28.7 5.8-45.3 1.6-7 2.9-13.6 4.8-19.6l15.6-3.2c1.6.2 6.1-2.8 7.4-.9 1.8 2.5-1.4 9.6-1.7 10.7-1.7 6.2-6.2 30.4-12.3 64.3-6.7-.7-12.6-2-17.6-3.2" mask="url(#d)"/><path fill="#FFE2B7" d="M458.6 78l-1.7 13.7-6.2 2.8-4.9-4 2-14.7z" mask="url(#d)"/><path fill="#FFC581" d="M447.7 75.8l10.9 2.2-.2 1c-1 4.6-5.8 9-10.2 8a6 6 0 01-1.8-.7l1.3-10.5z" mask="url(#d)"/><path fill="#FFE2B7" d="M449 65.2c-.4.2-3.4 2-4.5 5.6-1.4 4.8.9 11.6 5.8 12.6 4.6 1 9.5-3.7 10.4-8.6.7-4.3-1.5-9.7-5.4-10.9-2.8-.8-5.4.8-6.3 1.3" mask="url(#d)"/><path fill="#57575E" d="M444.6 60.7c-1.2 2.2 3.6 6.6 4.1 7 4.1 3.7 10.8 6 12.8 3.9 1.4-1.6.1-5.4-1.6-7.7-4.3-5.5-14-5.8-15.3-3.2" mask="url(#d)"/><path fill="#FFE2B7" d="M462 74.4a2.3 2.3 0 10-4.5-.9 2.3 2.3 0 004.5.9" mask="url(#d)"/><path fill="#FFBF4D" d="M467.4 159.6l-3.8 2.8-.5.3-2.3 1.6-.4-2-.7-4s7.2-11 14.2-20l.5-.7a151.4 151.4 0 015.4-6.4c2.8.4 5.7 1.2 8.6 2 1.7.4 3.3 1 4.8 1.5a112 112 0 01-25.8 24.9" mask="url(#d)"/><path fill="#FFBF4D" d="M479.6 115.8c2.2-2.6 4.6-5.3 6.5-8.2 4.6 3.8 8.5 8 10.5 12.4 2 4.3 0 9.6-3.6 15a39 39 0 01-14-3 35 35 0 014-4s-3.7-3-8.3-7.2c2-1.8 3.6-3.5 4.9-5" mask="url(#d)"/><path fill="#57575E" d="M419.7 362.6s3 2.8 0 5.7h-12.6v-5.7h6.6s3 1.7 6 0" mask="url(#d)"/><path fill="#57575E" d="M412 368.3h-9.9v-1.6c0-2.3 1.9-4.1 4.1-4.1h1.7c2.3 0 4.1 1.8 4.1 4v1.7z" mask="url(#d)"/><path fill="#7F786A" d="M401.7 369.2h18.6v-.9h-18.6z" mask="url(#d)"/><path fill="#57575E" d="M477.2 362.6s-2.9 2.8 0 5.7h15l-.5-5.7h-8.4s-3 1.7-6 0" mask="url(#d)"/><path fill="#7F786A" d="M476.7 369.2h20.5v-.9h-20.5z" mask="url(#d)"/><path fill="#57575E" d="M491.7 362.6a5 5 0 015 5v.7h-5v-5.7z" mask="url(#d)"/><path fill="#FFA331" d="M427 94.4c-6 1.2-10.8 6-12 12l-2 9.8 12.6.4 1.4-22.2z" mask="url(#d)"/><path fill="#FFBF4D" d="M474.7 120.8a59.1 59.1 0 01-14.3-17c-2.6-7.8 3-9.4 3-9.4s12 2.7 22.7 13.2a85.9 85.9 0 01-11.4 13.2m-53.6 5l3.3-15.7-2.3-.5-3.4 15.7z" mask="url(#d)"/><path fill="#7F786A" d="M450.6 94.5l-2.5 2.2 1 3.6L452 98zM449 100.3s-11.8 15.3-2.6 34.1l6-11.5-3.3-22.6z" mask="url(#d)"/><path fill="#FB9C98" d="M380.1 162.6c-4 0-5 .5-5 1s1.4 1.6 3 1.3c1-.3 1.9-1.2 2-2.3" mask="url(#d)"/><path fill="#FFC581" d="M385.2 164l-2.3 2c-.2.5-.7 1.6-1.7 2.5-.4.5-2.4 2.4-4.5 1.8-1.5-.3-2.9-1.8-2.6-2.6 0-.3.4-.4.6-.5l7.3-6.3 3.2 3z" mask="url(#d)"/><path fill="#7F786A" d="M517.2 209.9a8 8 0 115.5-15 8 8 0 01-5.5 15m-177.4-38.2a33.6 33.6 0 0033.6-6.1l140.6 52a16.2 16.2 0 0011.3-30.5l-140.7-52a33.5 33.5 0 00-55.3-20l16 5.9a13.8 13.8 0 018.2 17.7l-1.5 4a13.8 13.8 0 01-17.7 8.2l-16.1-6a33.6 33.6 0 0021.6 26.8" mask="url(#d)"/><path fill="#A29C8F" d="M392.7 151.3a5.5 5.5 0 00-2.7 7.3 5.5 5.5 0 003.1 2.9l99.6 36.7a5.5 5.5 0 007-3.2 5.5 5.5 0 00-3.2-7.1L397 151a5.5 5.5 0 00-4.3.2m98.3 51.5l-99.5-36.7a10.3 10.3 0 01-6.2-13.4 10.3 10.3 0 0113.4-6.2l99.5 36.8a10.3 10.3 0 016.1 13.3 10.3 10.3 0 01-13.3 6.2" mask="url(#d)"/><path fill="#FFE2B7" d="M457.4 160.3c-4.8.1-5.9.6-6 1.1 0 .7 1.7 2 3.5 1.6a3.2 3.2 0 002.5-2.7" mask="url(#d)"/><path fill="#FFE2B7" d="M463.5 162l-2.7 2.3c-.3.8-.9 2-2 3.1-.6.6-3 2.9-5.5 2.2-1.8-.4-3.4-2.2-3.1-3.2.1-.3.4-.5.7-.6l8.8-7.5 3.8 3.7z" mask="url(#d)"/><path fill="#FFC581" d="M99.7 104.2c7.7-.5 14.8 4.1 17.6 11.3 3.3 8.9 7.4 20.2 8.1 25.4 0 0 17.6 17.2 24.8 24l-3.8 3.3s-24-15.6-31.3-22.5c-7.3-6.9-15.4-41.5-15.4-41.5M30.9 358.7l-.4 1 2.4 2.5 2.5-1.1 1-1.4.2-1zm84.2 0l-.1 1 1 1.9 3.5-.3 1-.6.3-1v-1.4z" mask="url(#d)"/><path fill="#47B27C" d="M82.8 179c.8-.1 1.3-2.2 1-3.8a6.4 6.4 0 00-3.1-4.1c-.4.7-.9 2-.7 3.7.3 2.1 1.8 4.4 2.8 4.2" mask="url(#d)"/><path fill="#47B27C" d="M82.9 177.8c-.3.9 1.4 2.2 3 2.6 2.6.6 4.7-1 5-1.2a6.3 6.3 0 00-3-2c-2.1-.7-4.8-.3-5 .6" mask="url(#d)"/><path fill="#47B27C" d="M84 176.8c.5.7 2.6.1 3.9-1 2-1.6 2-4.2 2-4.6-.7 0-2.1.2-3.5 1.2-1.7 1.3-3 3.7-2.4 4.4" mask="url(#d)"/><path fill="#7F786A" d="M80 88.9h-1.5c-2 0-3.5-1.6-3.5-3.5v-4.6h5v8z" mask="url(#d)"/><path fill="#A29C8F" d="M68.4 168.3S54 186.6 29.9 358.7h7.3L94 200.2v-32H68.4z" mask="url(#d)"/><path fill="#A29C8F" d="M111.4 158.5s17.2 13.6 17 50c0 16.2-7.7 149.8-7.7 149.8l-5.6.3c-10-50.9-17.3-100.9-25.6-152.6-1.1-.2-7.2-.6-8.3-1.9-2.3-2.7 0-7.4 0-9.5-.3-8.3-.3-27.3.2-34.4 6.7.6 23.7-1 30-1.7" mask="url(#d)"/><path fill="#7F786A" d="M120.7 358.3s7.7-133.6 7.8-149.9c0-36.3-17.1-49.9-17.1-49.9l-4.5.5-4 2.6s12.1 71.2 11.8 113.8v81l.4 2.2 5.6-.3z" mask="url(#d)"/><path fill="#FFBF4D" d="M114.2 169c2.4-.6 4-2.8 4-5.2a224.8 224.8 0 00-10.8-59.9L85.2 99l-15.6 6.1c-1 .4-1.6 1.3-1.8 2.4a275.6 275.6 0 00-.5 61.6 2 2 0 001.8 1.8 116.1 116.1 0 0045.1-2" mask="url(#d)"/><path fill="#FFA331" d="M116.2 168.4c1.2-.3 2-1.4 2-2.6a225 225 0 00-5.6-43.2c-1.6-6.6-2.7-13-4.6-18.8l-14.8-3c-1.6.2-3.8.9-5 2.7-1.7 2.4-.8 5.6-.5 6.7 1.6 5.9 6 29 11.8 61.4 6.3-.7 12-1.9 16.7-3.2" mask="url(#d)"/><path fill="#FFE2B7" d="M78 88.2l1.9 16.4 10.6-1.2-2.2-17.2z" mask="url(#d)"/><path fill="#FFC581" d="M88.3 86.2l-10.4 2 .1 1c1.1 4.4 5.6 8.6 9.8 7.6.7 0 1.2-.3 1.7-.6l-1.2-10z" mask="url(#d)"/><path fill="#FFE2B7" d="M87 76c.4.2 3.3 2 4.3 5.4 1.4 4.5-.8 11-5.4 12-4.5 1-9.1-3.5-10-8.2-.7-4.1 1.4-9.3 5.1-10.4 2.7-.7 5.2.7 6 1.2" mask="url(#d)"/><path fill="#7F786A" d="M91.3 71.7c1 2.1-3.5 6.3-4 6.7-4 3.5-10.3 5.8-12.2 3.7-1.3-1.5 0-5.2 1.6-7.3 4-5.3 13.3-5.5 14.6-3" mask="url(#d)"/><path fill="#FFE2B7" d="M74.7 84.8A2.2 2.2 0 1179 84a2.2 2.2 0 01-4.3.8m20 16.3l-9.5-2-10.2 4c2 1.6 4.8 3 7.8 3.3 4.5.5 9-1.6 11.8-5.3m-36.3 27.2c-2.6-2.1-5.3-4.2-7.6-6.5-3.6 4.4-6.5 9-7.6 13.5-1 4.4 1.7 9 6 13.3 4.4-.8 9-2.8 12.7-5.2a33.5 33.5 0 00-4.5-3s3-3.7 6.4-8.3a59 59 0 01-5.4-3.8" mask="url(#d)"/><path fill="#7F786A" d="M115 359.7s-2.8 2.7 0 5.5h12v-5.5h-6.2s-3 1.7-5.8 0" mask="url(#d)"/><path fill="#57575E" d="M122.3 365.2h9.5V363c0-1.8-1.5-3.3-3.3-3.3h-2.9a3.3 3.3 0 00-3.3 3.3v2.2zm-7.8.9h17.7v-1h-17.7z" mask="url(#d)"/><path fill="#7F786A" d="M36.3 359.7s2.8 2.7 0 5.5H22l.6-5.5h8s2.8 1.7 5.7 0" mask="url(#d)"/><path fill="#57575E" d="M17.3 366h19.5v-.8H17.3zm5.3-6.3a4.7 4.7 0 00-4.8 4.7v.8h4.8v-5.5z" mask="url(#d)"/><path fill="#FFA331" d="M108 103.8a14.7 14.7 0 0111.5 11.6l1.8 9.3-11.9.4-1.4-21.3z" mask="url(#d)"/><path fill="#FFBF4D" d="M63.7 132a56.4 56.4 0 0010.4-18.5c1-7.8-4.6-8.3-4.6-8.3s-10.7 4.8-18.8 16.6a81.9 81.9 0 0013 10.3" mask="url(#d)"/><path fill="#FFA331" d="M84.3 107.3c-5.5 0-9.6-3.6-9.8-3.7a.7.7 0 111-1s4.3 3.6 9.6 3.2a13 13 0 009-5.1.7.7 0 111 .9 14.4 14.4 0 01-10.8 5.7" mask="url(#d)"/><path fill="#FFC581" d="M146.3 168.1l2.5 1.1c.4.7 1.2 1.7 2.5 2.6.6.4 3.2 2 5.5 1 1.6-.7 2.8-2.7 2.3-3.5-.2-.3-.5-.4-.8-.5l-11.2-7-.8 6.3z" mask="url(#d)"/><path fill="#F7C7BA" d="M14.6 174.2l.2 2.7c.4 3.5 3.5 6 7 5.6l11.3-1-1.6-15.4-11.3 1.1c-3.4.4-6 3.5-5.6 7" mask="url(#d)"/><path fill="#FFDDCF" d="M32.8 178.5l-11.1 1.1a6.3 6.3 0 01-7-5.7l-.1-1.2a6.3 6.3 0 015.6-5.5l11.3-1 1.3 12.3z" mask="url(#d)"/><path fill="#FFA331" d="M23.4 172.3l.5 4.7c.3 3 3 5 5.9 4.8l15.7-1.6-1.6-15.3-15.7 1.5c-3 .3-5 3-4.8 5.9" mask="url(#d)"/><path fill="#57575E" d="M34.4 172.2l.2 2.7c.4 3.5 3.5 6 7 5.7L217.8 163l-1.5-15.3L40 165.3c-3.4.3-6 3.4-5.6 7" mask="url(#d)"/><path fill="#FFBF4D" d="M44 164.9l1 11.5-20.4 2.1-.1-.3-.2-.3v-.2h-.1v-.4H24v-.3H24v-.3l-.1-.3v-.4l-.4-2.7v-.3-.1-.3-.3V171.7l.1-.1v-.2-.1l.1-.2V170.8l.1-.1v-.2l.1-.1v-.1l.1-.2.1-.1v-.2h.1l.1-.2v-.2h.2v-.2l.1-.1.1-.2h.1l.1-.2.1-.1v-.1l.2-.1v-.1l.2-.2h.1l.1-.2h.1l.1-.2h.1l.2-.1v-.1l.2-.1h.1l.2-.2.3-.1.2-.2H27.4v-.1l.3-.1 1.2-.3 15-1.5z" mask="url(#d)"/><path fill="#7F786A" d="M35.5 177.5c-.5-.8-.8-1.6-.9-2.6l-.2-2.7a6.3 6.3 0 015.6-7l176.3-17.5 1 10.8-181.8 19" mask="url(#d)"/><path fill="#FFC581" d="M232.6 153.8l-14.8 9.2a13 13 0 01-3.4-7.6 13 13 0 011.9-7.7l16.3 6" mask="url(#d)"/><path fill="#FFE2B7" d="M216.3 147.7l13.3 5-2.4 1.9-12 4.1a12.4 12.4 0 011-11" mask="url(#d)"/><path fill="#57575E" d="M232.7 153.8l-6.3 3.9a6.6 6.6 0 01-.7-6.5l7 2.6z" mask="url(#d)"/><path fill="#FFE2B7" d="M77.7 167l4 2 .6.2 2.4 1v-5.8s-8.8-9-17-16.2a63 63 0 00-2.8-2.4 82.8 82.8 0 00-4-3.1 90.5 90.5 0 00-12 5.7A106.9 106.9 0 0077.8 167m9.5-1c4.4-.9 5.6-.6 5.8-.1.2.6-1.2 2.2-3 2.1a3 3 0 01-2.8-2.1" mask="url(#d)"/><path fill="#FFE2B7" d="M82.2 169.2l2.5 1c.4.7 1.2 1.8 2.5 2.6.6.4 3.2 2.1 5.5 1 1.6-.7 2.8-2.7 2.3-3.5-.1-.3-.5-.4-.8-.4l-11.1-7-.9 6.3z" mask="url(#d)"/><path fill="#306B34" d="M355.4 259.8s-19 6.4-16.4 28.3c2.6 21.9-1.2 48.6-1.2 48.6h10.9s19.2-26 5-45.5 1.7-31.4 1.7-31.4" mask="url(#d)"/><path fill="#A4B751" d="M353.9 261.2c-3.5 2.9-13.5 13.2-2.7 30.4 12.9 20.4-8.1 45-8.1 45l-5.2-.4v.5h10.8s19.2-26 5-45.5c-11.4-15.6-3.4-26.4.2-30" mask="url(#d)"/><path fill="#4900BC" d="M354.6 260.5l.8-.7s-1.7.6-4 2a24 24 0 013.2-1.3" mask="url(#d)"/><path fill="#619440" d="M334.6 312.5c1-19.5.2-21.9-7.3-28.3-7.6-6.4-18.2-17-18.2-17 7.2 14.4 7.1 21 8.5 31.5 1 8.1 13.3 24.5 18.8 31.4a41 41 0 01-1.8-17.6" mask="url(#d)"/></g><g transform="translate(338 429.8)"><mask id="g" fill="#fff"><use xlink:href="#e"/></mask><path fill="url(#f)" d="M3 3.3L.4.1C1.6 3 3 3.3 3 3.3" mask="url(#g)"/></g><g transform="translate(2 99.8)"><path fill="#306B34" d="M331 303.4a34.5 34.5 0 004.2 27h7.9a35.2 35.2 0 013.5-17 57 57 0 00-3.8-1.7c-14.6-5.6-8-24.4-11.9-8.3"/><path fill="#619440" d="M351.4 307.5c-8 4-5.7 21.4-5.7 21.4l7.6 2.7s-1.4-7.9 3.7-14c5.1-6.3 8.5-3.9 8.5-3.9s-6-10.3-14-6.2m-38.5-8.2c-13.5 0-21 8-21 8s5.2-2.6 14.6-2.2c9.4.3 8.7 8.3 16.2 15.7 7.6 7.4 13.8 8.5 13.8 8.5s-10-14.4-17.3-24.2c-1.2-1.8 0-5.8-6.3-5.8"/><path fill="#FAF9FC" d="M289.4 310.2l-.1.2v-.2"/><path fill="#A4B751" d="M323.9 308c-2.5-3.4 0-11.7-16-9.8-14.6 1.8-18 10.5-18.5 12 .3-1 2.7-5 16.8-8.1 16.2-3.7 7.6 4.7 15 10 7.3 5.3 13.3 15.3 13.3 15.3s4.2 7 3.2 1.1c-1-5.8-11.3-17.2-13.8-20.5m49.7 7.2c-7.3-15-16.2-14-22-10.7-8.5 4.6-7 24-7 24l1.1.4s.2-3.7.9-10.2c.6-6.5 3.8-15.7 14-3 10.2 12.9 24.7 15.1 24.7 15.1s-4.3-.6-11.7-15.6"/><path fill="#A4B751" d="M354.2 296.6a6.3 6.3 0 00-6.4-.7c-2.3 1-4.9.7-7-.6-7.7-4.7-8.3 1.7-8.3 1.7l.2 1.8a16 16 0 0010.1 13l13.5 5.7c-1.6-6.6 2.7-17.5-2-21"/><path fill="#57575E" d="M334 367.4h12.8c4.7 0 8.6-3.9 8.6-8.6v-31.5h-30v31.5c0 4.7 3.8 8.6 8.5 8.6"/><mask id="i" fill="#fff"><use xlink:href="#h"/></mask><path fill="#7F786A" d="M322.4 331.6h36v-4.3h-36z" mask="url(#i)"/><path fill="#FDC854" d="M465.6 326.2h66.7c2.4 0 4.5 2 4.5 4.5v1.8c0 2.5-2 4.5-4.5 4.5h-66.7c-2.4 0-4.5-2-4.5-4.5v-1.8c0-2.5 2-4.5 4.5-4.5" mask="url(#i)"/><path fill="#F89F4F" d="M461.1 335c0 1 1 2 2.1 2h71.5c1.1 0 2-1 2-2v-1.2h-75.6v1.1z" mask="url(#i)"/><path fill="#FDC854" d="M465.6 293.8h66.7c2.4 0 4.5 2 4.5 4.5v1.8c0 2.5-2 4.5-4.5 4.5h-66.7c-2.4 0-4.5-2-4.5-4.5v-1.8c0-2.5 2-4.5 4.5-4.5" mask="url(#i)"/><path fill="#F89F4F" d="M461.1 302.5c0 1.1 1 2 2.1 2h71.5c1.1 0 2-.8 2-2v-1.1h-75.6v1.1z" mask="url(#i)"/><path fill="#FFAC34" d="M588.7 361.2a36 36 0 10-45.6-55.9 36 36 0 0045.6 56" mask="url(#i)"/><path fill="#FFBC3F" d="M583.5 355a28 28 0 10-35.3-43.4 28 28 0 0035.3 43.3" mask="url(#i)"/><path fill="#FFA331" d="M577.2 328.7c.7.4 1.7 0 2.2-.8.6-.9.4-2-.3-2.3l-7.6-4.7-5-3c-.8-.5-1.8-.1-2.3.8-.5.8-.4 1.9.3 2.3l5 3c1.7 1 2.3 3.2 1.8 5.4l-8.7-5.3c-.7-.4-1.7 0-2.2.8-.5.9-.4 2 .3 2.4l8.7 5.2c-1.7 1.5-3.9 2-5.5 1l-5-3.1-.6-.2c-.5 0-.9.1-1.3.5-.3.3-.6.7-.7 1.2v.6l2.5 18.7c.1.5.3.8.7 1 .3.2.7.3 1.1.1.9-.3 1.5-1.3 1.4-2.2l-2-14.7 2 1.2c3 1.9 7.3.7 10-2.5l1.4.9c.7.4 1.7 0 2.2-.8.6-.9.4-2-.3-2.4l-1.4-.8c.5-1.3.7-2.6.7-3.9l2.6 1.6z" mask="url(#i)"/><path fill="#FDC854" d="M469.8 358.6h66.6c2.5 0 4.5 2 4.5 4.5v1.8c0 2.5-2 4.5-4.5 4.5h-66.6c-2.5 0-4.5-2-4.5-4.5V363c0-2.5 2-4.5 4.5-4.5" mask="url(#i)"/><path fill="#F89F4F" d="M465.3 367.3c0 1.2 1 2 2 2h71.5c1.2 0 2.1-.8 2.1-2v-1h-75.6v1z" mask="url(#i)"/><path fill="#FDC854" d="M469.8 347.8h66.6c2.5 0 4.5 2 4.5 4.5v1.8c0 2.5-2 4.5-4.5 4.5h-66.6c-2.5 0-4.5-2-4.5-4.5v-1.8c0-2.5 2-4.5 4.5-4.5" mask="url(#i)"/><path fill="#F89F4F" d="M465.3 356.5c0 1.2 1 2 2 2h71.5c1.2 0 2.1-.8 2.1-2v-1h-75.6v1z" mask="url(#i)"/><path fill="#FDC854" d="M469.8 337h66.6c2.5 0 4.5 2 4.5 4.5v1.8c0 2.5-2 4.5-4.5 4.5h-66.6c-2.5 0-4.5-2-4.5-4.5v-1.8c0-2.5 2-4.5 4.5-4.5" mask="url(#i)"/><path fill="#F89F4F" d="M465.3 345.7c0 1.2 1 2 2 2h71.5c1.2 0 2.1-.8 2.1-2v-1h-75.6v1z" mask="url(#i)"/><path fill="#FDC854" d="M469.8 315.4h66.6c2.5 0 4.5 2 4.5 4.5v1.8c0 2.5-2 4.5-4.5 4.5h-66.6c-2.5 0-4.5-2-4.5-4.5v-1.8c0-2.5 2-4.5 4.5-4.5" mask="url(#i)"/><path fill="#F89F4F" d="M465.3 324.1c0 1.2 1 2 2 2h71.5c1.2 0 2.1-.8 2.1-2V323h-75.6v1.1z" mask="url(#i)"/><path fill="#FDC854" d="M467 304.6h66.6c2.4 0 4.5 2 4.5 4.5v1.8c0 2.5-2 4.5-4.5 4.5H467c-2.5 0-4.6-2-4.6-4.5V309c0-2.5 2-4.5 4.6-4.5" mask="url(#i)"/><path fill="#F89F4F" d="M462.4 313.3c0 1.2 1 2 2.1 2H536c1.1 0 2-.8 2-2v-1.1h-75.6v1.1z" mask="url(#i)"/><path fill="#FDC854" d="M468.4 283H535c2.5 0 4.5 2 4.5 4.5v1.8c0 2.5-2 4.5-4.5 4.5h-66.6c-2.5 0-4.5-2-4.5-4.5v-1.8c0-2.5 2-4.5 4.5-4.5" mask="url(#i)"/><path fill="#F89F4F" d="M464 291.7c0 1.1.8 2 2 2h71.5c1.1 0 2-.9 2-2v-1.1H464v1.1z" mask="url(#i)"/><path fill="#FDC854" d="M469.5 272.2h66.6c2.5 0 4.5 2 4.5 4.5v1.8c0 2.5-2 4.5-4.5 4.5h-66.6c-2.5 0-4.5-2-4.5-4.5v-1.8c0-2.5 2-4.5 4.5-4.5" mask="url(#i)"/><path fill="#F89F4F" d="M465 280.9c0 1.1 1 2 2.1 2h71.5c1.1 0 2-.9 2-2v-1.1H465v1.1z" mask="url(#i)"/></g></g></svg>