<svg xmlns="http://www.w3.org/2000/svg" xmlns:xlink="http://www.w3.org/1999/xlink" width="630" height="480" viewBox="0 0 630 480"><defs><path id="j" d="M.67 16.2a15.88 15.88 0 1031.77 0 15.88 15.88 0 00-31.77 0z"/><path id="h" d="M.67 16.2a15.88 15.88 0 1031.77 0 15.88 15.88 0 00-31.77 0"/></defs><defs><use xlink:href="#h"/><use xlink:href="#j"/><use id="l" xlink:href="#h"/><use id="n" xlink:href="#h"/><use id="p" xlink:href="#h"/><use id="r" xlink:href="#j"/><use id="t" xlink:href="#h"/><use id="v" xlink:href="#h"/><use id="x" xlink:href="#h"/><use id="z" xlink:href="#h"/><use id="B" xlink:href="#j"/><use id="D" xlink:href="#h"/><use id="F" xlink:href="#h"/><use id="H" xlink:href="#h"/><use id="J" xlink:href="#h"/><path id="a" d="M.82.27H631.1V24H.82z"/><path id="c" d="M.48.55h564.5V399.9H.48z"/><path id="e" d="M27.2.68c-6.3 4.09-12 8.95-17.04 14.47-3.29 3.2-6.38 6.6-9.23 10.23-.42.54.39 1.23.81.7.25-.33.52-.63.77-.94.16.03.34 0 .48-.17.56-.66 1.13-1.3 1.7-1.94.16.04.34 0 .47-.18.58-.77 1.18-1.53 1.77-2.28A110.44 110.44 0 0128.16 2.95c.58-.37-.03-1.24-.61-.87l-.69.45a.56.56 0 00-.26-.17l1.2-.81c.48-.31.14-.97-.32-.97-.09 0-.19.03-.29.1"/><linearGradient id="f" x1="341.93%" x2="93.85%" y1="-141.91%" y2="20.69%"><stop offset="0%" stop-color="#FBB62B"/><stop offset="100%" stop-color="#FFCF44"/></linearGradient></defs><g fill="none" fill-rule="evenodd"><g transform="translate(5 455.45)"><mask id="b" fill="#fff"><use xlink:href="#a"/></mask><path fill="#F7E8C8" d="M624.1 12.13C624.1 18.7 484.58 24 312.46 24 140.35 24 .83 18.69.83 12.13.82 5.58 140.34.27 312.45.27 484.58.27 624.1 5.58 624.1 12.13" mask="url(#b)"/></g><g transform="translate(34 65.45)"><mask id="d" fill="#fff"><use xlink:href="#c"/></mask><path fill="#FFF4DD" d="M225.6 68.2c42.49-29.44 87.88-49.46 134.22-59.59a331.1 331.1 0 0171.9-7.7c10.46.03 21.57-1.05 31.84.38 10.84 1.5 21.2 9.72 31.38 14.88 12.55 6.36 24.9 14.18 35.98 25.17 17.59 17.47 32.04 44.79 33.9 76.22 1.84 31.43-12.06 65.5-32.9 70.68-3.91.98-8.36 1.26-11.04 5.64-4.53 7.4.06 19.88 6.15 24.12 6.08 4.24 13.22 4.09 19.28 8.4 12.38 8.8 16.05 34.33 10.87 53.3-5.17 18.97-16.77 32.25-28.66 42.46-56.45 48.46-125.48 45.99-190.54 42.14-3.11-.18-6.45-.48-8.92-3.33-2.47-2.84-3.3-9.23-.8-12-99.14-.32-196.45 68.1-294.58 46.83-12.87-2.79-27.61-9.62-32-27.91-4.06-16.9 2.89-35.02 10.32-49.11 45.78-86.81 118.12-131.52 188.77-164.27 6.2-2.88 12.65-5.89 17.42-12.48 4.76-6.6 7.26-17.94 3.9-26.24-2.79-6.87-8.78-10.07-10.95-17.43-3.7-12.6 6.09-24.37 14.45-30.16" mask="url(#d)"/></g><path fill="#619340" d="M109.6 282.58a6.26 6.26 0 01-1.4-6.6 27.6 27.6 0 001.85-9.99c0-5.96-1.88-11.47-5.07-15.99a6.38 6.38 0 01-.43-6.65 25 25 0 002.93-11.77 25.07 25.07 0 00-24.7-25.15 25.15 25.15 0 00-22.7 36.9 6.39 6.39 0 01-.41 6.67 27.59 27.59 0 00-3.22 25.98c.88 2.27.3 4.84-1.4 6.59a37.86 37.86 0 00-10.63 28.52 38.08 38.08 0 0036.11 35.8 37.96 37.96 0 0029.07-64.31"/><path fill="#316C35" d="M83.56 341.95c2.14-3.16 4.47-6.25 6.9-9.26 2.53-3.15 5.19-6.22 7.96-9.2a158.04 158.04 0 0117.96-16.7 159.08 159.08 0 00-18.3 16.4 168.25 168.25 0 00-14.46 17.14l.6-14.13.36-8.77.09-2.26a116.54 116.54 0 0016.14-13.68 87.16 87.16 0 006.92-8.09 61.12 61.12 0 002.38-3.55v-.25a60.74 60.74 0 01-2.57 3.68 87.16 87.16 0 01-7.07 7.91 116.16 116.16 0 01-15.76 12.89l.05-1.03c.06-1.47.06-2.93.09-4.4l.06-3.82c.02-.05.05-.1.05-.16h-.05l.14-7.9a164.75 164.75 0 0013.6-12.52 97.35 97.35 0 006.12-6.92 58.85 58.85 0 003.76-5.3v-.11a58.32 58.32 0 01-3.95 5.28 98.01 98.01 0 01-6.27 6.75 167.04 167.04 0 01-13.24 11.67l.07-4.51.14-8.78v-.2a137.86 137.86 0 0011.04-14.11 76.22 76.22 0 004.7-7.84 37.9 37.9 0 003.26-8.42 37.92 37.92 0 01-3.47 8.33 76.15 76.15 0 01-4.88 7.7 120.3 120.3 0 01-5.6 7.26c-1.63 1.97-3.32 3.9-5.06 5.78l-.07-7.28-.14-11.98a175.51 175.51 0 008.12-12.95 90.99 90.99 0 003.5-6.76 39.96 39.96 0 002.63-7.08 39.86 39.86 0 01-2.84 7 91.56 91.56 0 01-3.7 6.63c-2.4 3.98-5 7.86-7.73 11.64l-.05-4.04c-.2-4.74-.38-9.47-.6-14.2 1.8-2.68 3.5-5.4 5.06-8.2.78-1.4 1.53-2.83 2.19-4.28a25.07 25.07 0 001.65-4.47 25.1 25.1 0 01-1.81 4.4 59.8 59.8 0 01-2.33 4.19c-1.5 2.48-3.12 4.89-4.8 7.25-.18-3.85-.38-7.7-.64-11.55a49.75 49.75 0 003.62-5.31 30.5 30.5 0 002.69-5.77 30.54 30.54 0 01-3 5.6 50.23 50.23 0 01-3.38 4.5c-.17-2.38-.36-4.76-.58-7.15h-.58c.3 3.44.52 6.87.7 10.31a42.43 42.43 0 01-4.91-5.24 28.29 28.29 0 01-3.97-6.59c.87 2.4 2.17 4.67 3.68 6.78a42.28 42.28 0 005.17 5.93l.08-.09c.26 5.09.44 10.18.61 15.27-.65-.5-1.23-1.12-1.78-1.75a31.36 31.36 0 01-2.01-2.7 72.57 72.57 0 01-3.47-5.8 156.53 156.53 0 01-5.86-12.12c1.68 4.15 3.51 8.25 5.55 12.27a73.1 73.1 0 003.33 5.9c.62.96 1.26 1.9 1.98 2.8.66.8 1.37 1.58 2.29 2.2.08 2.62.16 5.23.26 7.84l.05 16.03a23.17 23.17 0 01-3.38-3.22 41.16 41.16 0 01-3.3-4.41 58.94 58.94 0 01-5.11-9.72c-.76-1.67-1.34-3.4-1.98-5.11-.6-1.73-1.12-3.48-1.67-5.22l-1.38-5.3-1.16-5.34 1.04 5.37c.4 1.78.85 3.55 1.28 5.32.51 1.76.99 3.52 1.56 5.27.61 1.72 1.15 3.48 1.88 5.17a59.3 59.3 0 004.94 9.9c.98 1.58 2.07 3.1 3.27 4.54a22.08 22.08 0 004.01 3.86v.4l.02 8.76-.13 5.35a64.17 64.17 0 01-7.37-8.49 99.8 99.8 0 01-6.27-10.2 130.22 130.22 0 01-8.03-18.77h-.07A133.74 133.74 0 0070 269.18a99.99 99.99 0 006.1 10.37c2.33 3.3 4.91 6.46 7.88 9.31l.05-.05-.06 2.3-.3 12.27-.1-.1a97.88 97.88 0 01-3.26-4.05 235.42 235.42 0 01-11.66-17.22 196.6 196.6 0 01-11.35-21.17h-.06a196.1 196.1 0 0011.02 21.4c2.35 3.97 4.82 7.88 7.4 11.73 1.3 1.92 2.62 3.83 4 5.7a99.95 99.95 0 003.23 4.15c.19.23.39.45.6.67l.15.15-.1 4c-.04 1.46-.06 2.92-.13 4.38l-.22 4.38-.09 1.83-.4-.34c-.43-.38-.85-.78-1.27-1.18a71.96 71.96 0 01-2.4-2.5c-1.58-1.7-3.1-3.45-4.57-5.23a166.85 166.85 0 01-8.36-11.04c-3.18-4.59-6.14-9.33-8.79-14.22h-.2c2.57 4.96 5.48 9.78 8.6 14.46 2.57 3.83 5.3 7.57 8.2 11.2 1.45 1.8 2.94 3.59 4.5 5.33a69.6 69.6 0 003.67 3.8 12.76 12.76 0 00.97.78l-.3 5.87-.76 15.42c-1.6-3.77-3.34-7.48-5.27-11.12-2.26-4.21-14.09-19.54-16.85-23.49-2.76-3.94-5.4-7.96-7.96-12.03a287.2 287.2 0 007.77 12.15c2.7 4 14.23 19.42 16.42 23.66 2.14 4.2 4.06 8.52 5.77 12.9l.01 2.2a138.17 138.17 0 00-12.99-12.23c-4.86-4.06-16.43-12.76-21.54-16.5 5.02 3.85 16.5 12.66 21.27 16.82 4.7 4.11 9.2 8.44 13.27 13.15.11 13.2.2 102.76.42 120.9l2.17-.06c-.51-19.28-1.28-112.4-1.18-120.53a25.97 25.97 0 013.84-3.12 35.4 35.4 0 015.94-3.18c2.1-.84 4.28-1.56 6.51-2.05 1.1-.29 2.25-.42 3.37-.64.52-.08 1.04-.14 1.56-.2v-.05c-.52.04-1.05.08-1.57.14-1.13.19-2.29.28-3.4.54a36.2 36.2 0 00-12.8 4.9c-1.2.76-2.33 1.6-3.4 2.51.04-.83.1-1.67.12-2.5l.08-1.8z"/><path fill="#A4B750" d="M110.2 400.76c2.9-1.68 6.22-.75 6.26-.73a30.07 30.07 0 00-.22-16.05c-4.3 4.14-10.14 5-6.13 2.76 3.03-1.68 4.27-3.34 5.96-4.97-.49-5.72-1.28-10.29-2.13-12.9-.71.66-2.49 3.36-2.49 3.36l.7-5.74c-.92.05-1.92.4-3 1.02l.41 3.09-1.88-2.13a15.62 15.62 0 00-5.22 4.96c.09.35.33.85.92 1.48 1.26 1.36 2.01 2 2.26 2.68.24.7.34 3.23-.04 3.26-.3.02-.2-1.06-.49-1.95-.47-1.45-3.17-3.95-3.8-4.14-1.02.51-1.9 1.73-2.76 2.93.3.28 1.3 2.41 2.57 3.48 2.07 1.74 1.77 2.5 1.77 2.5s-1.63-1.15-2.53-1.62c-.74-.38-3.25-2.1-3.48-2.29a37.8 37.8 0 00-6.54 10.43c.1.16.22.48.22.48.1.9 6 6.88 6.48 8.58.4 1.41-6.17-4.12-6.86-5.3-.67-1.13-.63-1.63-.63-1.63s-.1-.05-.19-.05h-.12a23.37 23.37 0 00-3.53 7.07c.47.5 2.4 2.5 4.65 4 2.42 1.62 3.34 5.32 2.97 5.73 0 0-2.1-3.2-3.1-4-.97-.77-4.32-2.49-5.13-4.51a25.31 25.31 0 00-4.05 9.01c.12.88.84 2.38 3.9 4.01 4.8 2.56 6.02 5.13 6.02 5.13s-2.83-2.98-6.78-3.8c-2.9-.6-3.94-1.7-4.17-2.62-.75 2.04-1.61 3.96-2.07 5.73-.63 2.4-.85 4.66-1.18 6.77.27.08.6.17 1.06.26.97.18 2.36.15 3.59.73 1.07.51 2.01 1.23 2.9 1.79 1.65 1.04 2.87 1.92 2.76 2.6-.2.31 1.62-1.03-.58-2.21-1.03-.55-4.95-1-6.71-1.35a19.4 19.4 0 00-3.23-.38 19.46 19.46 0 00-.38 9.25c.42-.06.83-.14 1.21-.26.78-.26 1.88-.99 3.16-.65 1.12.3 2 .15 2.86.7 1.6 1.05 2.94 1.81 2.91 2.57-.15.34-.98-1.1-3.3-1.87-1.08-.36-2.43 0-4.07.1-1 .05-1.89.3-2.67.64.1 4.12 1.09 7.31 2.67 9.72 2.65-1.4 6.26-2.71 7.57-2.84 1.43-.14-4.33 3.69-6.43 4.83 1.98 3.83 4.63 5 4.77 4.89l2.36-3.02c-1.14 1.42-.86 15.01-.86 15.01l1.4-1.61c-.66-1.73 1.01-16.54 2.18-13.96 1.17 2.59 3.54 4.59 3.54 4.59 2.48-.9 4.69-2.27 6.48-4.39-.23.02-.54.01-.94-.02-2.9-.24-4.56-3.2-5.34-4.13-.79-.92-1.07-4.7.88-.69 1.95 4.02 5.38 3.9 5.38 3.9s.37.22.55.45c3.04-2.1 4.9-5.24 6.56-8.68-.06.03-.13.05-.19.06-1.73.43-4.15-.26-5.8-1.58a9.9 9.9 0 00-3.85-1.72s5.51-.17 8.08 1.41c1.06.65 2.04.37 2.82-.18 2.38-3.15 3.42-6.97 4.21-10.96-.04-.14-.9-1.3-2.74-1.25-4.74.11-2.66-.1-.02-.27l2.81-.2s.18 0 .41.07c.37-.83.64-1.74.71-2.83-4.17.83-10.21-1.44-10.21-1.44 9.37-1.06 8.65.09 10.47.28a30.53 30.53 0 001.9-11.53l-.16.08c-2.18 1-10.77 1-9.64.05 1.13-.95 3-.41 6.01-.46 2.26-.03 3.42-.78 3.96-1.2 1.16-2.9.98-5.5.6-8.02-6.1.54-10.47 2.15-6.21-.31M27.46 444.9a78.36 78.36 0 01-13.22-7.73c-.01-.67 3.66-1.58 3.66-1.58s-3.72.48-5.51.56c-4.78-2.62-8.65-4.5-10.77-5.67.82-.1 3.68 0 3.67 0A88.56 88.56 0 000 429.02c.3-.38.92-.71 1.77-1 .88.36 1.74.73 2.6 1.12l-1.33-1.47c1.41-.45 3.27-.82 5.7-.7.26.16.62.43 1 .91.8 1.03 4.24 3.36 4.35 3.2.1-.12-.82-.5-1.48-.97-1.1-.78-2.47-2.86-2.45-3.2.69-.27 1.92-.23 3.1-.17.16.24 3.77 4.27 3.77 4.27s-.55-1.2-.7-1.8c-.14-.48-.9-2.27-.98-2.44 2.74-.05 5.76.26 9.52 1.3.1.12.3.31.3.31.63.4 3.89 5.87 5.1 6.95.95.85-1.91-4.86-2.6-5.68a4.53 4.53 0 00-1.06-1s-.02-.08 0-.12a.28.28 0 00.03-.05c1.91.2 3.85.76 5.78 1.56.27.45 1.32 2.3 2.02 4.1.74 1.92 1.73 3.32 2.08 3.35 0 0-.43-1.73-.83-2.58-.4-.84-1.03-3.26-2.3-4.59 2.57.46 4.83 1.25 6.9 2.37.58.47 1.48 1.54 2.17 3.83 1.1 3.6 1.03 2.61 1.02.28-.02-1.7-.61-2.75-1.2-3.3 1.49.62 2.89 1.13 4.12 1.75 1.67.86 3.19 1.83 4.61 2.67.03.18.05.39.06.66l.24 4.65.67-4.73a29.19 29.19 0 016.15 4.1c-.07.19-.15.36-.26.5-.23.28-.8.5-.67 1.3.11.7-.05 1.09.27 1.78.6 1.29.88 1.65.5.11-.16-.7.18-1.22.35-2.02.1-.48.34-.82.62-1.06a36.22 36.22 0 016.43 5.52c-1.05.8-3.2 1.99-3.34 2.6-.15.68 2.37-.74 4.68-1.22 2.6 2.52 3.44 4.26 3.36 4.3-.73.04-1.47.07-2.22.09 7.44 2.46 10.12 10.58 9.6 12.29-.4.09-.49.18-.88.26.59-6.16-8.2-12.91-9.17-11.37l2.11 3.9c-.68.94-.5 1.22-2.14 1.32v-.49c-.15-1.57-2.32-3.6-2.96-4.4-.65-.77-3.41-2.52-.54.17 2.9 2.66 2.8 4.33 2.78 4.35 0 0 .16.27.33.46-1.64.74-4.12.42-6.84-.26a.39.39 0 00.06-.07c.4-.7-.04-2.25-.94-3.68-.9-1.44-1.07-2.75-1.07-2.75s.82 5.99.35 6.14c-2.54-.22-5.57-1.52-8.73-3.12-.11-.1-.58-3.4-.94-2.16l-.4 1.31s-.01.1.02.25a11.2 11.2 0 01-2.26-1.1c.18-2.16 1.74-4.86 1.76-4.86-2.87 2.72-2.97 2.94-3.18 4.2-2.68-1.06-8.71-4.9-8.68-4.92 1.08-.54 6.96-4.47 6.09-4.4-.88.05-5.14 1.02-5.6 2.48-.33 1.08-1.4 1.2-1.8 1.24a27.42 27.42 0 01-6.5-3.87c2.35-2.95-.87-.55-.86-.51m102.7 4.17c1.32.85 1.16 2.8 1.15 2.82a41.74 41.74 0 009.86-5.07c-3.27-.95-4.59-3.5-2.66-2.2 1.5 1 2.72 1.14 4.04 1.55 3.56-1.67 6.43-2.79 8.01-3.54-.6-.25-2.7-.67-2.7-.66 1.3-.21 2.6-.37 3.92-.47a3.96 3.96 0 00-1.28-1.29c-.65.19-1.3.4-1.94.61l1.02-1.18a10.89 10.89 0 00-4.18-1.71c-.2.1-.46.3-.75.7-.6.85-.86 1.34-1.25 1.6-.39.25-1.93.88-2 .7-.07-.13.6-.34 1.1-.67a6.4 6.4 0 001.86-2.64c-.5-.4-1.4-.58-2.28-.73-.11.2-1.22 1.13-1.64 1.99-.7 1.4-1.2 1.46-1.2 1.46s.42-1.08.55-1.62c.1-.45.7-2.04.76-2.18a17.9 17.9 0 00-7.02-.48c-.07.1-.23.25-.23.25-.46.26-2.96 4.97-3.87 5.8-.71.65 1.5-4.36 2.02-5.02.52-.66.8-.79.8-.79v-.1l-.02-.07c-1.41-.14-2.85.04-4.28.47-.2.39-1.01 1.98-1.56 3.6-.58 1.72-2.49 3.47-2.74 3.43 0 0 1.5-2.16 1.8-2.92.31-.74.83-2.96 1.78-4.02-1.89-.02-3.56.33-5.11 1.04-.44.35-1.11 1.22-1.66 3.32-.87 3.28-2.16 4.81-2.16 4.8 0 0 1.35-2.46 1.4-4.71.04-1.66.5-2.56.94-3-1.1.34-2.14.58-3.05.97 1.28-.54-.22.07-3.44 1.74-.02.17-.05.37-.06.62-.02.55.09 1.24-.12 2.06-.2.7-.5 1.43-.73 2.06-.43 1.19-.82 2.1-1.19 2.27-.17 0 .5-.8.97-2.3.22-.72.36-1.57.42-2.57.05-.7.03-1.28-.02-1.76a16.05 16.05 0 00-4.59 2.86c.05.2.1.38.19.53.16.3.57.63.46 1.38-.1.66.01 1.06-.23 1.67-.47 1.14-.82 2.06-1.21 2.27-.2.04.53-.83.84-2.25.13-.65-.11-1.22-.22-2.02a2.57 2.57 0 00-.43-1.14 21.73 21.73 0 00-4.83 4.18c.76.96 1.52 2.4 1.62 3.03.1.69-2.03-1.17-2.63-1.94-1.96 1.97-2.61 3.5-2.55 3.56l1.62.48c-5.5 1.04-7.63 8.42-7.28 10.16.3.16.36.26.65.42-.32-6.08 6.26-11.02 6.95-9.35l-1.63 3.39c.49 1.04.34 1.28 1.55 1.68l.01-.48c.14-1.5 1.77-3.07 2.26-3.72.49-.64 2.55-1.83.39.26-2.18 2.05-2.14 3.69-2.13 3.7 0 0-.12.24-.25.39 1.2 1.02 3.03 1.16 5.03.99a.4.4 0 01-.04-.08c-.28-.75.07-2.16.76-3.4.69-1.22.84-2.46.84-2.46s.28 2.74-.56 4.51c-.34.73-.16 1.14.18 1.37 1.88.25 4.13-.45 6.48-1.43.08-.08.7-.9.57-1.82-.32-2.35-.09-1.37.15-.1l.28 1.34s0 .1-.03.24c.5-.1 1.05-.3 1.69-.65-.72-1.8.18-5.65.16-5.65 1.23 4.33.53 4.39.53 5.37a26 26 0 006.9-3.24.93.93 0 01-.07-.06c-.78-.72-1.55-5-.91-4.78.65.22.52 1.34.82 2.83.22 1.11.77 1.42 1.07 1.53 1.84-.48 3.38-1.5 4.85-2.56-1.02-2.81-2.45-4.41-.53-3.17"/><path fill="#A4B750" d="M43.74 408.46s-4.74.53-4.79.16c-1.96-4.07-3.05-9.48-3.93-13.82 1.13.94 2.23 1.1 2.23 1.1s-1.75-1.26-2.4-2a111.11 111.11 0 01-2.32-11.54 9.86 9.86 0 011.21 1.73c-.4-1.54-.77-3.1-1.16-4.64.28-.41.63-.61 1.01-.6.1 1 .2 1.98.33 2.96.04-.92.11-1.86.2-2.82.62.08 1.28.58 2.07 2.08.03.37.04.95-.01 1.8-.1 1.81-.16 2.69-.08 3.41.07.73.63 3 .75 2.86.08-.1-.21-1.01-.33-1.92-.23-1.46.04-4.95.2-5.44.39 0 .87.74 1.4 1.46-.04.41.16 2.83.07 4.33-.16 2.43.16 2.94.16 2.95 0 0 .16-1.68.31-2.49.11-.64.47-3.32.5-3.61a97.36 97.36 0 016.3 6.76c.03.18.12.53.12.53.32.97.47 8.61 1.1 10.14.5 1.44.82-5.82.6-7.3-.22-1.3-.36-1.9-.34-1.92a34.27 34.27 0 015.4 5.14c.02.66-.2 7.36.24 7.62 0 .01 1.42-4.46.75-6.7a45.39 45.39 0 018.2 8.37c.44.9.33 1.7-.04 4.15-.56 3.7 1.06 6.04 1.06 6.06 0 .01-1.47-2.76-.44-5.15.7-1.64 1.1-2.73.71-3.72 1.58 1.85 3.13 3.62 4.36 5.38 1.67 2.4 3.03 4.8 4.35 7.04-.08.13-2.55 6.09-2.1 6.76.27.29 1.07-3.83 1.7-4.41.46-.41.9-.66 1.29-.8 2.42 3.9 3.2 5.43 4.38 8.34-.2-.06-1.25 4.7-.84 5.48.26.36 1.23-4.42 1.73-4.02 2.2 4.7 4.17 10.27 4.67 12.87-2.05-1.89-4.73-3.51-5.6-3.69-.9-.28 4.37 4.2 6.06 5.85.95 4.16-.43 5.11-.57 4.98a292.5 292.5 0 00-2.9-3.64c1.6 1.48 6.42 17.2 6.17 17.35-.63-.73-1.23-1.46-1.82-2.18.34-2.2-6.57-18.94-6.47-16.02a7.25 7.25 0 01-1.14 4.57 28.81 28.81 0 01-6.74-5.03c.2.02 3.42-2.97 3.6-3.88.2-.92-4.12 3.16-4.21 3.37-3.28-2.16-5.99-4.98-8.71-7.8l.19.03c1.74.25 6.58-3.56 6.57-3.56.05-.02-7.54 2.3-8.46 1.9-3.32-2.41-5.7-5.24-7.83-8.2-.02-.13 1.03-.12 2.52-.44 1.18-.24 6.17-1.7-.54-.39-.78.12-1.23.22-2.77.07a10.9 10.9 0 01-1.8-2.48c3.79-.25 7-3.27 6.9-3.3-5.78 2.72-5.77 2.57-7.53 2.47a23.37 23.37 0 01-5.06-8.4l.12.03c1.62.19 6.02-1.69 6.02-1.69s-2.33-.36-4.07.4c-1.3.58-2.2.31-2.6.14-1.47-1.94-1.96-4-2.46-6.07 3.43-.6 4.5-.97 4.5-.97"/><path fill="#FFDDCF" d="M140.57 181.43v30.66h412.65v-30.91L347.15 76.2z"/><path fill="#F7C7BA" d="M148.85 187.23v14.83h395.33v-15.44L347.1 86.24z"/><path fill="#FFDDCF" d="M358.15 130.4c1.28 0 2.32-1.3 2.32-2.88s-1.04-2.87-2.32-2.87h-23.27c-1.28 0-2.32 1.29-2.32 2.87s1.04 2.88 2.32 2.88h9.3c3.04 0 5.6 2.4 6.56 5.74h-15.86c-1.28 0-2.33 1.29-2.33 2.87 0 1.59 1.05 2.87 2.33 2.87h15.86c-.96 3.34-3.52 5.75-6.55 5.75h-9.3c-.31 0-.61.07-.9.21-.57.3-1.02.85-1.26 1.56-.24.7-.24 1.5 0 2.2.12.35.3.67.5.93l18.62 22.97c.45.56 1.05.84 1.64.84.6 0 1.2-.28 1.65-.83.9-1.12.9-2.94 0-4.06l-14.64-18.08h3.69c5.62 0 10.31-4.94 11.4-11.49h2.56c1.28 0 2.32-1.28 2.32-2.87s-1.04-2.87-2.32-2.87h-2.57a15.89 15.89 0 00-2.15-5.75h4.72zM143.04 468.86h403.6V433.9h-403.6z"/><path fill="#EABBAB" d="M138.11 468.87h417.57V451.4H138.11z"/><path fill="#F7C7BA" d="M180.41 433.9h51.96v-13.48H180.4zm0-208.32h51.96V212.1H180.4z"/><path fill="#FFDDCF" d="M185.4 420.41h41.97V225.58h-41.96z"/><path fill="#F7C7BA" d="M185.4 225.58l41.97 10.23v-10.23z"/><path fill="#EABBAB" d="M251.96 433.9h51.95v-13.48h-51.95z"/><path fill="#F7C7BA" d="M251.96 225.58h51.95V212.1h-51.95z"/><path fill="#FFDDCF" d="M256.95 420.41h41.97V225.58h-41.97z"/><path fill="#F7C7BA" d="M256.95 225.58l41.97 10.23v-10.23z"/><path fill="#EABBAB" d="M393 433.9h51.95v-13.48H393z"/><path fill="#F7C7BA" d="M393 225.58h51.95V212.1H393z"/><path fill="#FFDDCF" d="M398 420.41h41.96V225.58h-41.97z"/><path fill="#F7C7BA" d="M398 225.58l41.96 10.23v-10.23z"/><path fill="#EABBAB" d="M461.43 433.9h51.95v-13.48h-51.95z"/><path fill="#F7C7BA" d="M461.43 225.58h51.95V212.1h-51.95z"/><path fill="#FFDDCF" d="M466.42 420.41h41.96V225.58h-41.96z"/><path fill="#F7C7BA" d="M466.42 225.58l41.96 10.23v-10.23z"/><path fill="#619440" d="M487.88 373.63c.8-3.52 2.85-15.24 6.23-16.49a8.5 8.5 0 0110.1 3.86c.8 1.5 1.15 3.27 2.68 4.28.85.56 2.02.57 2.73-.17 1.15-1.2.06-3.05-.88-4.38-1.8-2.54-3.07-5.55-3.08-8.66-.02-3.11 1.38-6.32 4-8 2.62-1.69 6.45-1.5 8.56.8 1.32 1.42 1.88 3.45 3.6 4.57.9.58 2.08.7 2.94.07 1.76-1.26.58-3.97-.61-5.76-1.68-2.53-3.15-5.28-3.6-8.28-.43-3 .3-6.3 2.5-8.4 2.21-2.08 6-2.52 8.29-.51.91.8 1.52 1.9 2.37 2.76 1.02 1.04 2.67 1.76 3.92.65.87-.76 1.01-2.04.58-3.12-.6-1.49-1.8-2.38-2.99-3.3a8.84 8.84 0 01-3.45-5.92c-.83-7.03 6.95-9.74 11.34-6.65 1.23.87 2.46 2.2 3.97 1.77 1.18-.34 1.84-1.59 1.7-2.82-.25-2.42-2.26-3.83-3.32-5.8-1.95-3.6.24-8.75 4.18-9.85 3.02-.84 3.8 3.07 5.17 6.5.32.78 1.47.61 1.56-.23a47.18 47.18 0 012.31-9.85c1.56-4.23 7.9-8.88 10.92-2.78.81 1.63.2 5.83-.85 7-1.48 1.64-5 7.3-5 7.3-.33.64.4 1.32 1.02.93 1.39-.9 2.88-1.6 4.59-1.75.78-.07 1.58 0 2.32.26 4.43 1.53 3.75 6.98.92 9.6-2.36 2.17-5.65 2.91-8.76 3.65-1.62.39-3.36.87-4.16 2.45-.46.89-.35 2.02.41 2.66.88.75 1.89.33 2.86.21 3.17-.4 6.04 2.75 6.01 5.95-.03 3.19-2.37 6.03-5.23 7.44-2.87 1.4-6.18 1.6-9.37 1.43-1.58-.08-3.27-.22-4.52.95-.73.69-.95 1.84-.33 2.64.87 1.13 2.5.62 3.87.55 3.8-.21 6.82 4.01 6.22 7.77-.6 3.76-3.9 6.64-7.54 7.78-4.09 1.28-8.53.73-12.73.14-1-.14-2 .4-2.31 1.35-.43 1.32.78 2.07 1.71 2.75a10.19 10.19 0 013.23 12 10.19 10.19 0 01-11.08 5.65c-2.78-.59-5.32-2.38-8.34-1.47-1.5.45-2.57 1.88-2.28 3.41.36 1.94 2.53 2.5 4.15 3.4 4.5 2.51 5.27 9.31 2.3 13.54-2.95 4.23-12.46 4.36-17.61 4.03-5.15-.32-15.9-.78-21.4-4.28-2.6-1.65-.61-18.11.18-21.63"/><path fill="#306B34" d="M569.6 287.92c.81 1.63.2 5.83-.85 7-1.48 1.64-5 7.3-5 7.3-.33.64.41 1.32 1.02.93 1.39-.9 2.88-1.6 4.59-1.75.78-.07 1.58 0 2.33.26 4.42 1.53 3.74 6.98.9 9.6-2.34 2.17-5.64 2.91-8.75 3.65-1.61.39-3.36.87-4.16 2.44-.46.9-.35 2.03.41 2.67.88.75 1.89.33 2.86.21 3.17-.4 6.05 2.75 6.02 5.95-.03 3.19-2.37 6.03-5.24 7.44-2.87 1.4-6.18 1.6-9.37 1.43-1.58-.08-3.27-.22-4.51.95-.74.69-.96 1.84-.34 2.64.87 1.13 2.5.62 3.88.55 3.8-.21 6.81 4.01 6.21 7.77-.6 3.76-3.9 6.64-7.54 7.78-4.09 1.28-8.53.73-12.73.14-1-.13-2 .4-2.31 1.35-.43 1.32.78 2.07 1.71 2.75a10.19 10.19 0 013.23 12 10.19 10.19 0 01-11.07 5.66c-2.79-.6-5.33-2.4-8.35-1.48-1.5.45-2.57 1.88-2.28 3.41.36 1.94 2.53 2.5 4.15 3.4 4.51 2.51 9.13 12.14 6.17 16.37-2.96 4.23-16.33 1.53-21.48 1.2-4.81-.3-14.49-.71-20.23-3.61-.41-.21-1.17-.67-1.17-.67s28.44-24.71 53.04-57.48c13.66-18.2 25.8-52.68 25.8-52.68s.49.1 1.05.5c.95.67 1.85 2 2.01 2.32"/><path fill="#FFA331" d="M540.71 430.22a3.7 3.7 0 01-3.5-.6 7 7 0 01-2.16-2.97c-1.4-3.3-1.32-7.2.21-10.45.3-.65.68-1.3 1.29-1.67.6-.37 1.42-.33 1.95.14 1.3 1.15 2.96 7.14 2.96 7.14.67 1.44 1.36 2.92 1.41 4.5.05 1.58-.7 3.3-2.16 3.9m9.52-24.47a3.35 3.35 0 011.25-3.67c1.14-.79 2.7-.6 3.88.12.77.47 3.28 1.49 3.28 1.49.99.65 1.68 1.92 1.27 3.03-.46 1.26-1.98 1.71-3.3 1.85a8.53 8.53 0 01-3.75-.3 4.17 4.17 0 01-2.63-2.52m25.44-18.63c-.54-.3-.77-1-.64-1.6.13-.6.57-1.1 1.1-1.43a5.4 5.4 0 011.73-.61c.37-.08.76-.15 1.13-.08.38.06.75.28.9.63.16.38.04.83-.22 1.15l-.25.37a5.17 5.17 0 01-2 1.5c-.56.24-1.23.36-1.75.07m-9.2 1.3c-.63.18-1.35.15-1.9-.22-.87-.57-1.09-1.82-.78-2.82.31-1 .52-1.47 1.04-2.37.47-.82 2.02-2.8 2.02-2.8.53-.55 1.32-.91 2.06-.72.6.16 1.06.65 1.3 1.22.23.56.27 1.2.22 1.8a7.57 7.57 0 01-2.3 4.86c-.48.46-1.03.85-1.66 1.04m-36.01 20.29c-2.2.7-4.6.79-6.83.2a7.52 7.52 0 01-3.05-1.49 4.28 4.28 0 01-1.54-2.95c-.1-2.14 9.42-3.3 11.6-1.9.63.4 1.17.96 1.54 1.62l.05.09a3.1 3.1 0 01-1.77 4.43m2.54-19.6c.35-1.36 1.3-2.84 2.7-2.82.76 0 1.45.47 1.92 1.06.46.59.74 1.3 1.02 2l1.53 2.9c.7 1.28 1.42 2.61 1.52 4.06.1 1.46-.63 3.07-2.01 3.53-1.3.43-2.72-.27-3.75-1.18a9.77 9.77 0 01-2.93-9.55m12.37-1.68c.55 0 1.04.4 1.3.9l.31.5c.52 1.02.78 2.17.76 3.3-.01.82-.22 1.71-.88 2.2-.66.5-1.65.4-2.33-.08a3.13 3.13 0 01-1.15-2.14c-.11-.82.01-1.66.19-2.48.1-.5.23-1.01.52-1.44.29-.43.76-.77 1.28-.76m10.4-5.59c.58-.13 1.2.12 1.64.53.43.42.69.98.86 1.55.55 1.82.15 3.8-.72 5.48a34.3 34.3 0 00-.79 1.87c-.37.61-1.05 1.1-1.77 1.02-.62-.06-1.14-.53-1.41-1.09a4.43 4.43 0 01-.38-1.81 14.3 14.3 0 01.95-5.7c.3-.8.79-1.65 1.62-1.85m9.86 13.02c1.6-.3 3.2.3 4.58 1.16a6.76 6.76 0 012.7 3.28c.03 1.43-1.38 2.55-2.79 2.73-1.41.18-2.81-.33-4.14-.84-1.4-.53-2.98-1.26-3.33-2.71-.2-.85.11-1.77.7-2.42a4.13 4.13 0 012.28-1.2m.84 49.33s-8.74-.67-13.5-7c-4.32-5.73-4.03-12.67-7.35-19.02a7.48 7.48 0 01-1.07-3.05c-.04-1.09.52-2.28 1.56-2.6 1.07-.33 2.24.4 2.82 1.36.57.97.7 2.13.89 3.24a30.78 30.78 0 009.25 17.28c3.3 3.08 7.51 5.48 12.02 5.48 3.45 0 6.79-1.4 9.62-3.37 2.84-1.97 5.24-4.5 7.62-7a32.86 32.86 0 01-30.67-10.82c-1.37-1.62-2.65-3.58-2.17-5.76.31-1.42 1.51-2.57 2.97-2.46 1.46.1 2.2 1.39 2.92 2.52a29.4 29.4 0 0022.95 13.52c2.59.14 5.32-.11 7.47-1.55 3.82-2.55 4.79-8.06 8.63-10.57a32.35 32.35 0 01-32.04-1.36 8 8 0 01-2.76-2.58c-.63-1.1-.73-2.6.07-3.58.98-1.21 2.89-1.21 4.28-.52 1.39.7 2.43 1.9 3.6 2.93 3.16 2.74 7.31 4.14 11.47 4.54 4.16.4 8.35-.13 12.46-.87 2.26-.4 4.76-1.03 6-2.97.69-1.1.85-2.43 1-3.72l1.94-16.86c-.74 2.46-8.32 8.04-13.52 9.04-2.96.57-9.02.24-11.9-.64-.99-.3-2-.61-2.83-1.22-.84-.6-1.49-1.56-1.45-2.59.04-1.12.9-2.08 1.9-2.56 1.01-.48 2.16-.57 3.27-.6 4.75-.15 9.54.49 14.25-.14 4.71-.62 9.58-2.84 11.72-7.09a45.47 45.47 0 01-5.19-22.94c.1-2.36.33-4.92-.95-6.9l-.87 2.14a6.08 6.08 0 01-7.16 2.5c-1.94-.77-3.5-2.58-5.58-2.73-1.47-.1-2.9.69-3.9 1.76-1 1.08-1.67 2.43-2.32 3.75l-5.5 11.25c-.85 1.75-2.3 3.82-4.2 3.39-1.45-.32-2.17-1.94-2.44-3.4-.64-3.48.08-7.2 2-10.18 1.92-2.98 5-5.2 8.43-6.05-1.6-1.27-3.21-2.55-5.09-3.34-1.87-.8-4.07-1.06-5.94-.24-2.5 1.09-3.86 3.79-4.81 6.36a52.38 52.38 0 00-3.12 14.39c-.09 1.2-.14 2.45-.65 3.55-.51 1.1-1.6 2.03-2.82 1.93-1.03-.08-1.9-.9-2.3-1.86a7.13 7.13 0 01-.4-3.06 27.66 27.66 0 019.54-19.73 10.7 10.7 0 00-8.22-1.13 10.7 10.7 0 00-6.5 5.14c-2.03 3.71-1.66 8.22-1.23 12.42l1 9.83c.12 1.23.17 2.66-.73 3.5-.82.78-2.19.72-3.15.13a5.79 5.79 0 01-2.05-2.64c-1.82-4.03-1.72-8.73-.6-13 1.1-4.29 3.17-8.25 5.22-12.18-11.1 4.25-18.5 8.34-26.67 16.96l-3.02 3.1a19.27 19.27 0 009.46 15.77c1.1.63 2.45 1.46 2.32 2.73-.1.9-1 1.55-1.9 1.63-.91.08-1.8-.28-2.6-.7a17.73 17.73 0 01-9.17-17.75 40.9 40.9 0 00-13.29 29.09c-.07 3.2.26 6.45 1.5 9.4 1.24 2.94 3.48 5.56 6.44 6.77 2.96 1.2 6.65.79 8.96-1.43 1.34-1.28 2.14-3.03 3.41-4.37 1.28-1.34 3.86-2.66 4.97-1.18.55.74-1.2 2.45-2.04 3.2-.31.27-.61.57-.87.9-2.65 3.33-3.02 6.67-2.09 10.98 1 4.55 5.18 11.3 8.3 14.77 3.17 3.53 9.62 5.56 13.18 5.8 14.97 1.05 21.22-7.74 21.22-7.74"/><g transform="translate(506 411.45)"><mask id="g" fill="#fff"><use xlink:href="#e"/></mask><path fill="url(#f)" d="M27.2.68c-6.3 4.09-12 8.95-17.04 14.47-3.29 3.2-6.38 6.6-9.23 10.23-.42.54.39 1.23.81.7.25-.33.52-.63.77-.94.16.03.34 0 .48-.17.56-.66 1.13-1.3 1.7-1.94.16.04.34 0 .47-.18.58-.77 1.18-1.53 1.77-2.28A110.44 110.44 0 0128.16 2.95c.58-.37-.03-1.24-.61-.87l-.69.45a.56.56 0 00-.26-.17l1.2-.81c.48-.31.14-.97-.32-.97-.09 0-.19.03-.29.1" mask="url(#g)"/></g><g><path fill="#306B34" d="M573.43 339.17l-.06-.05a4.87 4.87 0 00-6.83.79 4.84 4.84 0 00.88 6.82 4.87 4.87 0 006.83-.79 4.88 4.88 0 00-.82-6.77m-7.3 9.04a6.83 6.83 0 01-1.13-9.5 6.83 6.83 0 019.58-1.13 6.8 6.8 0 011.21 9.57 6.83 6.83 0 01-9.58 1.12l-.08-.06"/><path fill="#FFA331" d="M550.88 281.94a3.85 3.85 0 00-3.89 3.72c-.02 1 .37 1.96 1.08 2.7.73.72 1.7 1.14 2.74 1.16a3.86 3.86 0 003.97-3.72c.02-1.01-.37-1.97-1.09-2.7a3.92 3.92 0 00-2.73-1.16h-.08m0 9.32h-.1a5.65 5.65 0 01-3.95-1.68 5.45 5.45 0 01-1.59-3.95 5.6 5.6 0 015.64-5.44h.1c1.5.03 2.91.63 3.96 1.69a5.45 5.45 0 011.58 3.95 5.6 5.6 0 01-5.63 5.43m-9.75 8.27a7.14 7.14 0 01-7.25 7.04 7.15 7.15 0 01-6.99-7.3 7.14 7.14 0 017.25-7.04 7.15 7.15 0 017 7.3m43.31 35.42a3.98 3.98 0 01-4.04 3.93 3.99 3.99 0 01-3.9-4.07 3.98 3.98 0 014.04-3.93 3.99 3.99 0 013.9 4.07"/><path fill="#A4B750" d="M130.97 398.39c-1.75 0-3.15.39-3.82 1.3-1.92 2.58 1.76 9.43 6.12 13.22 6.36 5.53 14.67 5.14 18.6 4.56-.87-3.98-3.51-12.15-11.06-16.3-3.03-1.68-6.92-2.78-9.84-2.78m16.59 20.76c-4.47 0-10.34-1-15.19-5.21a24.83 24.83 0 01-5.81-7.62c-1.52-3.19-1.7-5.83-.5-7.45 2.54-3.43 10.58-1.56 15.41 1.1 8.52 4.7 11.14 14.1 11.87 17.93l.13.68-.68.12c-1.22.21-3.06.45-5.23.45m-4.97 3.78c-3.14 0-6.58.61-9.87 2.42-4.85 2.66-9.65 7.93-8.57 10.74 1.16 3 8.91 3.57 14.45 1.92 8.07-2.41 12.2-9.64 13.8-13.26a29.2 29.2 0 00-9.8-1.82m-10.56 17.36c-.9 0-1.77-.05-2.6-.15-3.5-.42-5.84-1.68-6.56-3.56-1.53-3.98 4.35-9.77 9.18-12.43 8.53-4.68 17.88-1.85 21.5-.42l.65.25-.27.64c-1.44 3.51-5.8 11.96-14.95 14.7-2.14.63-4.6.97-6.95.97m27-54.78c-3.23 0-6.52 7.05-6.96 12.8-.63 8.4 4.64 14.85 7.45 17.64 2.68-3.07 7.65-10.07 6.48-18.6-.76-5.48-3.96-11.84-6.97-11.84zm.56 32.4l-.5-.48c-2.76-2.6-9.1-9.7-8.38-19.22.45-5.87 3.82-14.06 8.31-14.07h.01c4.26 0 7.57 7.56 8.32 13.02 1.32 9.64-4.66 17.36-7.29 20.23l-.47.51z"/><path fill="#A4B750" d="M175.75 432.35a207.69 207.69 0 01-42.15-28.14l.9-1.03a206.32 206.32 0 0041.87 27.95l-.62 1.22z"/><path fill="#A4B750" d="M134.33 433.4l-.37-1.32c10.3-2.92 22.04-9.94 23.67-10.94.55-1.44 3.79-10.86 1.17-25.33l1.34-.24c2.92 16.11-1.16 25.9-1.33 26.3l-.09.2-.18.12c-.13.08-12.97 8.03-24.21 11.2"/><path fill="#FFF" d="M337.1 345.03h-84.4a14.05 14.05 0 01-14.04-14.05v-25.65c0-7.76 6.29-14.05 14.05-14.05h84.4c7.76 0 14.05 6.3 14.05 14.05v25.65c0 7.76-6.3 14.05-14.05 14.05"/><path fill="#FFBC3F" d="M320.6 325.2l1.65 3.45 3.77.5-2.75 2.64.68 3.75-3.36-1.8-3.35 1.8.68-3.75-2.76-2.64 3.78-.5z"/><path fill="#FFF4DD" d="M281.44 315.65a15.88 15.88 0 10-31.77 0 15.88 15.88 0 0031.77 0"/></g><g transform="translate(249 299.45)"><mask id="i" fill="#fff"><use xlink:href="#h"/></mask><path fill="#FFDDCF" d="M33.18 34.37s-4.52-.78-9.79-6.42c-5.26-5.64-4.91-9.4-3.29-9.73 1.63-.32 2.96-1.58 12.73 11.9 0 0 5.03-4.9 12.47-8.91l.97.19s-8.8 12.36-13.1 12.97" mask="url(#i)"/><mask id="k" fill="#fff"><use xlink:href="#j"/></mask><path fill="#FB9C98" d="M45.68 21.72l.98-.54s.48-.13.9-.6c.09-.08.72-.76.69-1.74-.02-.44-.17-1.07-.44-1.1-.27-.05-.55.32-.73.57-.36.5-.5 1.01-.55 1.36-.54.4-.7 1.14-1.23 1.54l.38.51z" mask="url(#k)"/><mask id="m" fill="#fff"><use xlink:href="#l"/></mask><path fill="#FB9C98" d="M45.9 20.47c-.13-1.38-.01-1.73.13-1.77.2-.05.64.42.58.97a.94.94 0 01-.71.8" mask="url(#m)"/><mask id="o" fill="#fff"><use xlink:href="#n"/></mask><path fill="#57575E" d="M20.03 8.29c-1.68-1.85-5.48-2.09-7.34-.5-1.44 1.23-.62 2.65-1.95 4.07-2.43 2.58-6.92-.18-9.05 1.99-1.7 1.74-1.2 5.95.86 8.07 3.35 3.44 11.03 1.63 14.94-2.55 2.79-2.98 4.88-8.48 2.54-11.08" mask="url(#o)"/><mask id="q" fill="#fff"><use xlink:href="#p"/></mask><path fill="#FFDDCF" d="M14.13 19.54a1.35 1.35 0 00-2.07-.76l-.78.57C6.61 22.93 4.67 28.2 3.83 32.1a4.15 4.15 0 002.08 4.53 115.4 115.4 0 0012.83 5.8c.32-.43-.7-.88-.38-1.3a93.08 93.08 0 00-11.05-8.21c1.62-2.38 2.84-4.14 3.52-5.11 0 0 3.87-4.84 3.4-7.8a5.35 5.35 0 00-.1-.48" mask="url(#q)"/><mask id="s" fill="#fff"><use xlink:href="#r"/></mask><path fill="#FFC581" d="M19.05 18.94l-3.9-.02.38-5.6h3.12z" mask="url(#s)"/><mask id="u" fill="#fff"><use xlink:href="#t"/></mask><path fill="#FFC581" d="M19.04 9.55c.74.81.65 2.15.66 3.17.02 1.24-.64 2.91-2.06 3.08-1.42.17-3.09-1.66-3.13-3.54-.03-1.54 1.02-3.27 2.44-3.46.73-.1 1.57.18 2.1.75" mask="url(#u)"/><mask id="w" fill="#fff"><use xlink:href="#v"/></mask><path fill="#57575E" d="M19.7 9.16a3.84 3.84 0 00-2-1.4v-.01h-.02c-1.34-.36-2.83-.01-2.93.5-.04.22.19.5.56.75a5.44 5.44 0 00-1.82 4.11c1.96.08 3.69-.95 4.3-2.5v-.01c.19-.5.59-.9 1.1-1.07.36-.13.65-.28.81-.37" mask="url(#w)"/><mask id="y" fill="#fff"><use xlink:href="#x"/></mask><path fill="#FFDDCF" d="M25.22 29.7c.3-2.24.02-10.31-4-11.65-.25-.07-.5-.12-.77-.16l-.8-.09a8.11 8.11 0 00-.98 0c-2.49.17-4.51.44-6.1.74-2.55.47-3.46 5.61-2.86 7.99l1.14 6.39c.33 1.34.2 1.88-.24 3.18-.2.61-.94 1.6-.94 1.6 8.24.47 16.5-1.23 16.5-1.23s-1.27-4.39-.95-6.77" mask="url(#y)"/><mask id="A" fill="#fff"><use xlink:href="#z"/></mask><path fill="#F9E0D2" d="M25.22 29.7c.3-2.24.02-10.31-4-11.65-.25-.07-.5-.12-.77-.16l-.13-.02.06.05c5.5 4.46 3.54 12.81 3.31 14.54-.22 1.63.27 4.1.32 4.39 1.36-.22 2.16-.38 2.16-.38s-1.27-4.39-.95-6.77" mask="url(#A)"/><g><mask id="C" fill="#fff"><use xlink:href="#B"/></mask><path fill="#F26D6D" d="M32.66 31.6l-.05-.86c0-.22-.02-.44-.04-.66l.33-.03.05.67.05.85-.34.02z" mask="url(#C)"/></g><g><mask id="E" fill="#fff"><use xlink:href="#D"/></mask><path fill="#F26D6D" d="M6.71 33.68l-.31-.12c.07-.18.16-.37.3-.51a.82.82 0 01.36-.19l.16-.06.15.3a1.3 1.3 0 01-.2.08.53.53 0 00-.23.11c-.1.1-.18.26-.23.4" mask="url(#E)"/></g><g><mask id="G" fill="#fff"><use xlink:href="#F"/></mask><path fill="#FFC581" d="M15.47 12.9a.75.75 0 10-1.5-.01.75.75 0 001.5 0" mask="url(#G)"/></g><g><mask id="I" fill="#fff"><use xlink:href="#H"/></mask><path fill="#FFC581" d="M15.87 20.88c1.83.41 3.93-.85 4.58-3a7.86 7.86 0 00-1.78-.07c-2.2.14-4.05.37-5.55.63a4.14 4.14 0 002.75 2.44" mask="url(#I)"/></g><g><mask id="K" fill="#fff"><use xlink:href="#J"/></mask><path fill="#653087" d="M46.53 20.65a.17.17 0 00-.35 0c0 .09.08.17.18.17.09 0 .17-.08.17-.17" mask="url(#K)"/></g></g><g><path fill="#FFBC3F" d="M316.77 307.62h-20.09c-.16 0-.3-.21-.3-.47s.14-.46.3-.46h20.1c.16 0 .3.2.3.46s-.14.47-.3.47m0 5.43H289.7c-.16 0-.3-.2-.3-.46s.14-.47.3-.47h27.07c.17 0 .3.2.3.47 0 .25-.13.46-.3.46m-21.93 12.16l1.65 3.44 3.78.5-2.75 2.64.68 3.75-3.36-1.8-3.36 1.8.68-3.75-2.75-2.64 3.78-.5zm12.88 0l1.65 3.44 3.78.5-2.76 2.64.68 3.75-3.35-1.8-3.36 1.8.68-3.75-2.76-2.64 3.78-.5zm25.75 0l1.65 3.44 3.78.5-2.75 2.64.68 3.75-3.36-1.8-3.36 1.8.68-3.75-2.75-2.64 3.77-.5zm-7.59-9.33h12.08V303.8h-12.08z"/><path fill="#FFF" d="M330.45 313.05l-2.53-2.52a.55.55 0 01.78-.79l1.75 1.75 4.7-4.7a.55.55 0 11.78.78l-5.48 5.48z"/><path fill="#FFA331" d="M137.78 254.64a14.52 14.52 0 0116.8 4.01c5.04 5.99 11.28 13.71 13.28 17.55 0 0 18.46 8.6 25.92 11.96l-2.08 3.63s-22.98-5.63-30.57-8.99c-7.58-3.35-23.35-28.16-23.35-28.16"/><path fill="#F6A19E" d="M81.13 464.27l-.29.87 1.96 2.04 2.07-.9.77-1.14.22-.9zm69.63-.03l-.12.9.94 1.55 2.78-.26.83-.5.25-.8-.01-1.13z"/><path fill="#47B27C" d="M124.03 315.76c.7-.1 1.1-1.82.84-3.2-.4-2.07-2.26-3.18-2.57-3.36a5.25 5.25 0 00-.52 3.06c.25 1.75 1.47 3.62 2.25 3.5"/><path fill="#47B27C" d="M124.1 314.8c-.19.67 1.21 1.75 2.58 2.08 2.05.5 3.83-.74 4.12-.95a5.27 5.27 0 00-2.57-1.74c-1.7-.5-3.9-.15-4.12.6"/><path fill="#47B27C" d="M125.06 313.96c.42.56 2.12.09 3.2-.8 1.63-1.36 1.7-3.52 1.71-3.88-.63.03-1.81.18-2.93 1.02-1.41 1.06-2.46 3.03-1.98 3.66"/><path fill="#57575E" d="M121.76 241.22a4.17 4.17 0 01-4.17-4.17v-2.46h4.17v6.63z"/><path fill="#A29C8F" d="M112.13 306.93s-11.8 15.1-31.76 157.34l5.97-.03 47.05-130.85v-26.46h-21.26z"/><path fill="#A29C8F" d="M147.66 298.83s14.23 11.19 14.16 41.23c-.03 13.46-6.4 123.94-6.4 123.94l-4.66.24c-8.3-42.06-14.29-83.4-21.13-126.19-.98-.14-6-.5-6.87-1.52-1.9-2.25-.05-6.15-.09-7.87-.16-6.88-.2-22.62.24-28.42 5.51.46 19.58-.9 24.75-1.41"/><path fill="#7F786A" d="M155.43 464s6.36-110.48 6.4-123.94c.06-30.04-14.17-41.23-14.17-41.23l-3.67.4-3.34 2.13s10.06 58.87 9.82 94.07a8448 8448 0 00-.08 66.94l.37 1.87 4.67-.24z"/><path fill="#FFBF4D" d="M150.06 307.44a4.2 4.2 0 003.21-4.26 185.91 185.91 0 00-8.86-49.48l-18.35-4.06-14.2 5.56a228.03 228.03 0 00-.6 52.37 1.7 1.7 0 001.43 1.5 96.07 96.07 0 0037.37-1.63"/><path fill="#FFA331" d="M151.7 307.02a2.2 2.2 0 001.63-2.19 186 186 0 00-4.66-35.72c-1.26-5.48-2.23-10.71-3.78-15.5-3.92-.86-8.32-1.65-12.25-2.51-1.28.2-4.87-2.2-5.9-.68-1.35 1.99 1.16 7.57 1.4 8.43 1.32 4.87 4.86 24 9.7 50.75a96.43 96.43 0 0013.85-2.58"/><path fill="#FFE2B7" d="M120.02 240.69l1.3 10.8 4.9 2.23 3.84-3.2-1.5-11.51z"/><path fill="#FFC581" d="M128.56 239l-8.54 1.69.1.78c.9 3.7 4.58 7.12 8.1 6.36.51-.1.98-.3 1.42-.56l-1.07-8.26z"/><path fill="#FFE2B7" d="M127.53 230.59a8.2 8.2 0 013.58 4.44c1.13 3.76-.7 9.15-4.53 9.98-3.66.8-7.51-2.95-8.2-6.81-.62-3.42 1.12-7.66 4.22-8.57 2.17-.64 4.28.58 4.93.96"/><path fill="#57575E" d="M131.07 227.07c.9 1.73-2.9 5.2-3.28 5.53-3.25 2.9-8.54 4.74-10.07 3.03-1.14-1.25-.1-4.26 1.28-6.04 3.33-4.34 11.01-4.55 12.07-2.52"/><path fill="#FFE2B7" d="M117.33 237.86a1.81 1.81 0 113.56-.67 1.81 1.81 0 01-3.56.67"/><path fill="#FFBF4D" d="M113.09 305.07c1.15.87 2.17 1.6 3 2.2l.39.28c1.13.8 1.8 1.25 1.8 1.25l.28-1.59.55-3.17s-5.69-8.7-11.18-15.81l-.38-.5-1.52-1.9a69.45 69.45 0 00-2.75-3.2 74.79 74.79 0 00-10.56 2.8c4.32 6.47 12.06 13.18 17.9 17.74.87.69 1.7 1.32 2.47 1.9"/><path fill="#FFE2B7" d="M191.7 291.79l2.62 1.17c.39.5 1.1 1.31 2.24 1.91.54.29 2.83 1.49 4.63.44 1.26-.74 2.07-2.47 1.6-3.1-.15-.22-.43-.29-.69-.3l-8.32-3.75-2.07 3.63z"/><path fill="#FFBF4D" d="M103.47 270.53a67.68 67.68 0 01-5.12-6.45c-3.64 2.99-6.74 6.32-8.31 9.8-1.52 3.36-.09 7.5 2.8 11.74 3.64.04 7.68-.9 11.1-2.25a27.6 27.6 0 00-3.23-3.2s3-2.44 6.55-5.7a48.83 48.83 0 01-3.8-3.94"/><path fill="#7F786A" d="M150.64 465.14s-2.31 2.22 0 4.53h10v-4.53h-5.2s-2.39 1.4-4.8 0"/><path fill="#57575E" d="M156.74 469.67h7.8v-.63a3.9 3.9 0 00-7.8 0v.63z"/><path fill="#57575E" d="M150.23 470.4h14.64v-.73h-14.64z"/><path fill="#7F786A" d="M85.64 465.14s2.31 2.22 0 4.53H73.83l.42-4.53h6.59s2.38 1.4 4.8 0"/><path fill="#57575E" d="M69.92 470.4h16.12v-.73H69.92zm4.33-5.26a3.9 3.9 0 00-3.9 3.9v.63h3.9v-4.53z"/><path fill="#FFBF4D" d="M107.26 274.47c4.63-4.25 10.2-9.9 11.33-13.4 2-6.19-2.4-7.46-2.4-7.46s-9.46 2.18-17.85 10.46a67.3 67.3 0 005.12 6.46c1 1.15 2.26 2.5 3.8 3.94"/><path fill="#FFE2B7" d="M120.95 305.63c3.75.08 4.64.5 4.7.88.09.54-1.31 1.61-2.77 1.28a2.53 2.53 0 01-1.93-2.16"/><path fill="#57575E" d="M126.34 253.73l1.93 1.72-.76 2.89-2.3-1.97zm1.17 4.6s9.38 12.06 2.12 26.88l-4.8-9.06 2.69-17.81z"/><path fill="#F7E8C8" d="M219.52 312.2a31.73 31.73 0 1132.06-54.77 31.73 31.73 0 01-32.06 54.77"/><path fill="#FFF4DD" d="M208.17 268.78a31.73 31.73 0 0019.03 46.66l6.6-62.3a31.7 31.7 0 00-25.63 15.65m45.78 41.89l5.01-47.3a31.71 31.71 0 00-15.6-9.33l-6.63 62.48a31.87 31.87 0 0017.22-5.85"/><path fill="#57575E" d="M261.78 300.17a30.43 30.43 0 00-10.87-41.59 30.43 30.43 0 00-41.6 10.88 30.43 30.43 0 0010.88 41.59 30.43 30.43 0 0041.6-10.88m-54.77-32.06a33.1 33.1 0 0145.23-11.83 33.1 33.1 0 0111.83 45.24 33.1 33.1 0 01-45.24 11.83 33.1 33.1 0 01-11.83-45.24"/><path fill="#57575E" d="M206.3 293.24l-89.59 23.04a5.42 5.42 0 01-3.06-3.12c-.68-1.9 0-3.54.16-3.9l91.44-19.6c.1 1.2.97 2.39 1.06 3.58"/><path fill="#FFE2B7" d="M116.1 306.93l2.18 1.87a6.8 6.8 0 001.61 2.46c.44.43 2.3 2.23 4.32 1.73 1.42-.36 2.68-1.8 2.42-2.53-.1-.25-.34-.4-.59-.5l-6.93-5.92-3.01 2.9zm79.93-17.68s1.98-.64 2.3-.55c.34.1 1.93 1.42 1.69 2.6-.24 1.16-2.1-1.24-2.1-1.24l-1.89-.8z"/><path fill="#FDC854" d="M463.89 431.92h54.07a4.5 4.5 0 010 9.01H463.9a4.5 4.5 0 110-9.01"/><path fill="#F89F4F" d="M459.38 439.2c0 .96.77 1.73 1.73 1.73h59.63c.95 0 1.72-.77 1.72-1.72v-.93h-63.08v.93z"/><path fill="#FDC854" d="M463.89 404.88h54.07a4.5 4.5 0 014.5 4.5v.01a4.5 4.5 0 01-4.5 4.5H463.9a4.5 4.5 0 010-9.01"/><path fill="#F89F4F" d="M459.38 412.17c0 .95.77 1.73 1.73 1.73h59.63c.95 0 1.72-.77 1.72-1.73v-.93h-63.08v.93z"/><path fill="#FFAC34" d="M565.75 461.15a30.09 30.09 0 10-38.01-46.63 30.09 30.09 0 0038.01 46.63"/><path fill="#FFBC3F" d="M561.48 455.91a23.32 23.32 0 10-29.47-36.15 23.32 23.32 0 0029.47 36.15"/><path fill="#FFA331" d="M556.21 434.02c.59.36 1.42.06 1.85-.66.44-.72.32-1.6-.26-1.95l-6.36-3.86-4.23-2.57c-.59-.36-1.42-.06-1.86.66-.44.73-.32 1.6.27 1.95l4.24 2.58c1.37.83 1.88 2.63 1.4 4.42l-7.23-4.38c-.58-.36-1.41-.06-1.85.66-.44.72-.32 1.6.26 1.95l7.22 4.38c-1.36 1.26-3.19 1.65-4.57.81l-4.23-2.57c-.14-.08-.3-.13-.47-.15-.34-.02-.7.1-1 .36a1.84 1.84 0 00-.64 1.57l2.13 15.6c.05.38.24.67.52.84.27.16.62.2.98.07a1.8 1.8 0 001.12-1.85l-1.67-12.27 1.68 1.02c2.56 1.55 6.06.6 8.36-2.09l1.17.71c.58.36 1.41.06 1.85-.66.44-.72.32-1.6-.27-1.95l-1.16-.71c.43-1.07.61-2.16.6-3.21l2.15 1.3z"/><path fill="#FDC854" d="M467.34 458.96h54.08a4.5 4.5 0 010 9.01h-54.08a4.5 4.5 0 01-4.5-4.5v-.01a4.5 4.5 0 014.5-4.5"/><path fill="#F89F4F" d="M462.84 466.24c0 .96.77 1.73 1.72 1.73h59.64c.95 0 1.72-.77 1.72-1.73v-.92h-63.08v.92z"/><path fill="#FDC854" d="M467.34 449.94h54.08a4.5 4.5 0 014.5 4.5v.01a4.5 4.5 0 01-4.5 4.5h-54.08a4.5 4.5 0 110-9.01"/><path fill="#F89F4F" d="M462.84 457.23c0 .95.77 1.73 1.72 1.73h59.64c.95 0 1.72-.78 1.72-1.73v-.93h-63.08v.93z"/><path fill="#FDC854" d="M467.34 440.93h54.08a4.5 4.5 0 014.5 4.5v.01a4.5 4.5 0 01-4.5 4.5h-54.08a4.5 4.5 0 110-9.01"/><path fill="#F89F4F" d="M462.84 448.22c0 .95.77 1.72 1.72 1.72h59.64c.95 0 1.72-.77 1.72-1.72v-.93h-63.08v.93z"/><path fill="#FDC854" d="M467.34 422.9h54.08a4.5 4.5 0 010 9.01l-54.08.01a4.5 4.5 0 010-9.01"/><path fill="#F89F4F" d="M462.84 430.2c0 .95.77 1.72 1.72 1.72h59.64c.95 0 1.72-.77 1.72-1.72v-.93h-63.08v.93z"/><path fill="#FDC854" d="M464.98 413.9h54.07a4.5 4.5 0 110 9.01h-54.07a4.5 4.5 0 01-4.5-4.5v-.01a4.5 4.5 0 014.5-4.5"/><path fill="#F89F4F" d="M460.47 421.18c0 .96.77 1.73 1.72 1.73h59.64c.95 0 1.72-.77 1.72-1.73v-.92h-63.08v.92z"/><path fill="#FDC854" d="M466.2 395.87h54.08a4.5 4.5 0 014.5 4.5v.01a4.5 4.5 0 01-4.5 4.5H466.2a4.5 4.5 0 010-9.01"/><path fill="#F89F4F" d="M461.7 403.16c0 .95.77 1.72 1.72 1.72h59.64c.95 0 1.72-.77 1.72-1.72v-.93H461.7v.93z"/><path fill="#FDC854" d="M467.13 386.86h54.08a4.5 4.5 0 110 9.01h-54.08a4.5 4.5 0 010-9.01"/><path fill="#F89F4F" d="M462.63 394.15c0 .95.77 1.72 1.72 1.72h59.64c.95 0 1.72-.77 1.72-1.72v-.93h-63.08v.93z"/><path fill="#FFE2B7" d="M418.68 462.74h6.14v-1.49h-6.14z"/><path fill="#7F786A" d="M424.8 461.25s2.66 2.56 0 5.22h-15.85a4.59 4.59 0 01.5-3.37 4.52 4.52 0 012.23-1.85h7.59s2.74 1.6 5.52 0"/><path fill="#57575E" d="M406.68 467.94h18.58v-1.47h-18.58zm5-6.69a4.5 4.5 0 00-4.5 4.5v.72h2.43a6.22 6.22 0 012.07-5.22"/><path fill="#FFE2B7" d="M419.9 458.45l.17 3.03 4.1-.07.25-3.14z"/><path fill="#A29C8F" d="M419.48 459.6h5.47l23.07-122.48-.82-34.13-18.54-4.78s-11.18 19.48-10.94 42.27c.11 10.05 1.44 98.35 1.76 119.12"/><path fill="#57575E" d="M477.86 467.93h12.1v-1.46h-12.1z"/><path fill="#FFE2B7" d="M480.08 458.46l.64 3.02 4.1-.08-.2-3.13z"/><path fill="#7F786A" d="M485.66 461.25c1.35 0 2.64.66 3.35 1.81l.03.04c.92 1.52.58 3.06.5 3.37H479.2c-1.38-1.38-1.33-2.73-.96-3.72.34-.9 1.21-1.5 2.18-1.5h5.25z"/><path fill="#A29C8F" d="M485.42 459.6c-.56-20.03-3.26-115.42-3.72-127.58-.56-14.67-8.43-29.19-8.43-29.19-5.22.51-23.25.46-28.82 0-.45 5.87 1.34 16.71 1.5 23.67.15 6.09 1.49 5.4 2.07 10.62l31.76 122.49h5.64z"/><path fill="#7F786A" d="M485.42 459.6c-.56-20.03-3.26-115.42-3.72-127.58-.56-14.67-8.43-29.19-8.43-29.19-2.6.26-8.35.37-14.17.37l-1.55.7s8.76 17 10.35 29.59c1.2 9.46 10.56 87.8 15.13 126.12h2.4z"/><path fill="#57575E" d="M415.18 464.3l-1.8-1.8 1.5-1.52 1.8 1.8z"/><path fill="#57575E" d="M417.3 464.3l-1.8-1.8 1.5-1.52 1.8 1.8z"/><path fill="#FFE2B7" d="M389.06 266.43l-3.39.14s-3.99 2.94-9.04-.59c-5.05-3.53.96-3.97.96-3.97l10.77-.47.7 4.89z"/><path fill="#FFE2B7" d="M383.01 262.66c-2.77-3.48-3.8-4.01-4.2-3.8-.56.31-.57 2.4.79 3.53a3 3 0 003.41.27"/><path fill="#FFBF4D" d="M437.39 241.1s-11.53 6.73-20.52 12.8a33.86 33.86 0 01-20.32 5.73c-.95-.04-1.9-.06-2.89-.08-9.05-.11-7.64.7-14.03 2.04l-1.27 5.06s30.54 6.93 52.9-3.08c22.37-10 6.13-22.47 6.13-22.47"/><path fill="#FFA331" d="M430.71 300.91a4.69 4.69 0 01-3.55-4.77 207.11 207.11 0 0110.22-55.05l20.46-4.4 15.77 6.3a253.7 253.7 0 01.3 58.33c-.09.85-.74 1.53-1.59 1.66a106.84 106.84 0 01-41.6-2.07"/><path fill="#FFBF4D" d="M430.71 300.91a4.69 4.69 0 01-3.55-4.77c.55-11.28 3.05-24.03 6.33-37.86 1.45-6.1 3.67-12.2 5.43-17.52l18.92-4.06 15.77 6.29a253.7 253.7 0 01.3 58.33c-.09.85-.74 1.53-1.59 1.66a106.84 106.84 0 01-41.6-2.07"/><path fill="#FFA331" d="M474.12 283.26a30.75 30.75 0 014.8-1.62s-9.57-20.7-8.53-27.86c1.03-7.17 3.22-10.8 3.22-10.8s19.55 22.6 19.07 37.6c-.13 4.1-3.6 7.54-8.55 10.37a34.37 34.37 0 01-10.01-7.69"/><path fill="#FFA331" d="M472.32 302.98c.85-.13 1.5-.8 1.6-1.66a253.86 253.86 0 00-.3-58.33l-15.78-6.3-2.78.6a101.32 101.32 0 016 22.77 102.9 102.9 0 01-3.45 44.06c5.47-.05 10.42-.51 14.71-1.14"/><path fill="#FFA331" d="M454.34 300.48c-1.58.3-2.96.55-4.07.73l-.53.1c-1.53.24-2.42.36-2.42.36l.5-1.72 1-3.44s9.96-5.92 18.93-10.34l.63-.3a77.84 77.84 0 016.76-3.01 83.77 83.77 0 019.2 7.97c-7.5 4.34-18.52 7.26-26.6 8.97l-3.4.69"/><path fill="#57575E" d="M456.06 244.72l4.52 26.25-4.87 18.17-8.5-17.43z"/><path fill="#FFE2B7" d="M464.63 226.76l-1.57 12.32-10.09 1.58 2.15-15.83z"/><path fill="#FFC581" d="M455.12 224.83l9.5 1.93-.1.87c-1.03 4.11-5.16 7.9-9.08 7.03a5.32 5.32 0 01-1.57-.63l1.25-9.2z"/><path fill="#FFE2B7" d="M456 214.77c-2.86 1.55-3.48 4.63-3.68 5.62-.83 4.08.77 10.2 4.97 11.15 3.95.89 8.32-3.19 9.19-7.54.62-3.14-.39-7.43-3.77-9.22a7.2 7.2 0 00-6.72-.01"/><path fill="#57575E" d="M464.76 223.08c.04.45.16 2.35-1.06 3.4-1.54 1.32-4.17.4-4.84.16-1.48-.52-1.69-1.13-2.74-1.25-1.52-.16-2.88.9-3.8 1.82-.04.85.02 2.43 1.04 3.68 1.97 2.41 6.22 2.05 8.81.5 3.44-2.06 5-6.85 3.85-8-.3-.31-.8-.36-1.26-.3m0 0c.08-.32.91-3.65-.83-5.61-.34-.39-1.47-1.65-2.78-1.51-.4.04-.62.2-3.34 2.04-.66.45-1.02.68-1.52.66-.77-.04-1.43-.66-1.74-1.25-.65-1.26.08-2.86.81-3.7 1.26-1.45 3.29-1.45 4.1-1.4l.29.03c2.84.33 6.5 3.7 6.96 7.04.1.75.01 1.26-.12 1.64a3.83 3.83 0 01-1.83 2.05"/><path fill="#FFE2B7" d="M468.37 223.23a2.02 2.02 0 10-3.96-.77 2.02 2.02 0 003.96.78"/><path fill="#FFA331" d="M450.22 238.62c.67-.63 1.42-1.33 2.29-1.25.58.05.7.4 1.63.93.82.46 1.58.65 2.08.74a4.38 4.38 0 01-2.21 4.2 11.45 11.45 0 01-4.82-3.4c.2-.32.54-.77 1.03-1.22M464.13 238.57a4.56 4.56 0 00-1.15-1.02 12.05 12.05 0 00-2.76.38c-1.62.4-3.63 1-4 1.1a11.21 11.21 0 001.73 4.05 15.7 15.7 0 017-2.97 4.54 4.54 0 00-.82-1.54"/><path fill="#57575E" d="M456.39 239.08l1.56 4-1.89 1.64-2.05-1.48z"/><path fill="#FFE2B7" d="M446.44 297.48c-3.23-2.66-4.28-2.96-4.61-2.68-.46.4-.06 2.32 1.41 3.1 1.03.54 2.32.38 3.2-.42m-71.4-34.84c.65-.28 2 .88 2.37 2.26.55 2-1.09 3.98-1.84 3.85-1.15-.2-1.7-5.62-.52-6.11"/><path fill="#FFE2B7" d="M450.45 301.22l-3.13.45c-.6.5-1.54 1.17-2.82 1.68-1.19.47-3.95 1.58-6.19.28-1.56-.91-2.64-2.88-2.16-3.61.53-.79 2.33.57 4.92-.24 1.62-.5 1.8-1.33 3.8-2.25 1.55-.73 2.99-.95 3.95-1.02.53 1.45 1.1 3.25 1.63 4.7"/><path fill="#FFAC34" d="M446.53 276.12a37.16 37.16 0 10-73.6 10.26 37.16 37.16 0 0073.6-10.26"/><path fill="#FFBC3F" d="M438.25 277.27a28.8 28.8 0 10-57.05 7.96 28.8 28.8 0 0057.05-7.96"/><path fill="#FFA331" d="M411.77 268.81c.75-.39.96-1.45.48-2.38-.48-.93-1.48-1.36-2.23-.97l-8.14 4.24-5.43 2.83c-.75.39-.97 1.45-.49 2.38.48.92 1.48 1.36 2.23.97l5.43-2.83c1.77-.92 4-.3 5.57 1.36l-9.25 4.82c-.75.39-.97 1.46-.49 2.38.48.93 1.48 1.36 2.23.97l9.25-4.81c.45 2.23-.3 4.42-2.08 5.34l-5.43 2.82c-.17.1-.33.23-.45.4-.24.34-.34.8-.26 1.29.07.48.31.94.66 1.28.18.17.38.3.58.4l17.84 7.74c.43.2.87.18 1.21 0 .35-.18.61-.53.71-1 .19-.92-.36-1.98-1.23-2.36l-14.04-6.1 2.16-1.12c3.28-1.7 4.52-6.02 3.16-10.17l1.5-.78c.74-.39.96-1.45.48-2.38-.48-.92-1.48-1.36-2.23-.96l-1.5.77a10.47 10.47 0 00-3-2.7l2.75-1.43z"/></g></g></svg>