<svg xmlns="http://www.w3.org/2000/svg" xmlns:xlink="http://www.w3.org/1999/xlink" width="630" height="480" viewBox="0 0 630 480">
    <defs>
        <path id="prefix__a" d="M0.824 0.268L631.099 0.268 631.099 24 0.824 24z"/>
        <path id="prefix__c" d="M0.481 0.546L564.978 0.546 564.978 399.899 0.481 399.899z"/>
        <path id="prefix__e" d="M27.194.675c-6.296 4.093-11.995 8.957-17.029 14.471-3.293 3.197-6.384 6.607-9.236 10.238-.422.538.388 1.229.813.688.249-.318.514-.621.767-.936.165.037.343.001.485-.167.553-.656 1.126-1.292 1.693-1.935.164.039.34-.001.474-.182.575-.776 1.175-1.53 1.773-2.286 6.314-6.73 13.417-12.642 21.225-17.616.579-.368-.031-1.242-.609-.873-.232.147-.458.301-.688.451-.071-.079-.156-.143-.257-.172.399-.269.794-.545 1.198-.808.478-.31.139-.965-.318-.965-.094 0-.193.028-.291.092"/>
        <path id="prefix__h" d="M.671 16.194c0 8.77 7.111 15.882 15.882 15.882s15.881-7.112 15.881-15.882c0-8.772-7.11-15.882-15.881-15.882S.671 7.422.671 16.194"/>
        <path id="prefix__j" d="M.671 16.194c0 8.77 7.111 15.882 15.882 15.882s15.881-7.112 15.881-15.882c0-8.772-7.11-15.882-15.881-15.882S.671 7.422.671 16.194z"/>
        <path id="prefix__l" d="M.671 16.194c0 8.77 7.111 15.882 15.882 15.882s15.881-7.112 15.881-15.882c0-8.772-7.11-15.882-15.881-15.882S.671 7.422.671 16.194"/>
        <path id="prefix__n" d="M.671 16.194c0 8.77 7.111 15.882 15.882 15.882s15.881-7.112 15.881-15.882c0-8.772-7.11-15.882-15.881-15.882S.671 7.422.671 16.194"/>
        <path id="prefix__p" d="M.671 16.194c0 8.77 7.111 15.882 15.882 15.882s15.881-7.112 15.881-15.882c0-8.772-7.11-15.882-15.881-15.882S.671 7.422.671 16.194"/>
        <path id="prefix__r" d="M.671 16.194c0 8.77 7.111 15.882 15.882 15.882s15.881-7.112 15.881-15.882c0-8.772-7.11-15.882-15.881-15.882S.671 7.422.671 16.194z"/>
        <path id="prefix__t" d="M.671 16.194c0 8.77 7.111 15.882 15.882 15.882s15.881-7.112 15.881-15.882c0-8.772-7.11-15.882-15.881-15.882S.671 7.422.671 16.194"/>
        <path id="prefix__v" d="M.671 16.194c0 8.77 7.111 15.882 15.882 15.882s15.881-7.112 15.881-15.882c0-8.772-7.11-15.882-15.881-15.882S.671 7.422.671 16.194"/>
        <path id="prefix__x" d="M.671 16.194c0 8.77 7.111 15.882 15.882 15.882s15.881-7.112 15.881-15.882c0-8.772-7.11-15.882-15.881-15.882S.671 7.422.671 16.194"/>
        <path id="prefix__z" d="M.671 16.194c0 8.77 7.111 15.882 15.882 15.882s15.881-7.112 15.881-15.882c0-8.772-7.11-15.882-15.881-15.882S.671 7.422.671 16.194"/>
        <path id="prefix__B" d="M.671 16.194c0 8.77 7.111 15.882 15.882 15.882s15.881-7.112 15.881-15.882c0-8.772-7.11-15.882-15.881-15.882S.671 7.422.671 16.194z"/>
        <path id="prefix__D" d="M.671 16.194c0 8.77 7.111 15.882 15.882 15.882s15.881-7.112 15.881-15.882c0-8.772-7.11-15.882-15.881-15.882S.671 7.422.671 16.194"/>
        <path id="prefix__F" d="M.671 16.194c0 8.77 7.111 15.882 15.882 15.882s15.881-7.112 15.881-15.882c0-8.772-7.11-15.882-15.881-15.882S.671 7.422.671 16.194"/>
        <path id="prefix__H" d="M.671 16.194c0 8.77 7.111 15.882 15.882 15.882s15.881-7.112 15.881-15.882c0-8.772-7.11-15.882-15.881-15.882S.671 7.422.671 16.194"/>
        <path id="prefix__J" d="M.671 16.194c0 8.77 7.111 15.882 15.882 15.882s15.881-7.112 15.881-15.882c0-8.772-7.11-15.882-15.881-15.882S.671 7.422.671 16.194"/>
        <linearGradient id="prefix__f" x1="341.931%" x2="93.854%" y1="-141.911%" y2="20.69%">
            <stop offset="0%" stop-color="#FBB62B"/>
            <stop offset="100%" stop-color="#FFCF44"/>
        </linearGradient>
    </defs>
    <g fill="none" fill-rule="evenodd">
        <g>
            <g transform="translate(0 65) translate(0 .454) translate(5 390)">
                <mask id="prefix__b" fill="#fff">
                    <use xlink:href="#prefix__a"/>
                </mask>
                <path fill="#F7E8C8" d="M624.104 12.134c0 6.554-139.526 11.866-311.64 11.866C140.35 24 .825 18.688.825 12.134.824 5.58 140.35.268 312.464.268c172.114 0 311.64 5.312 311.64 11.866" mask="url(#prefix__b)"/>
            </g>
            <g transform="translate(0 65) translate(0 .454) translate(34)">
                <mask id="prefix__d" fill="#fff">
                    <use xlink:href="#prefix__c"/>
                </mask>
                <path fill="#FFF4DD" d="M225.592 68.198C268.09 38.764 313.477 18.742 359.82 8.615 383.619 3.414 407.674.82 431.726.903c10.455.036 21.56-1.044 31.836.386 10.833 1.507 21.198 9.72 31.376 14.88 12.55 6.365 24.907 14.178 35.98 25.175 17.59 17.47 32.043 44.783 33.895 76.212 1.852 31.43-12.048 65.508-32.885 70.688-3.92.975-8.364 1.254-11.047 5.636-4.53 7.399.063 19.879 6.146 24.12 6.083 4.24 13.226 4.086 19.286 8.398 12.379 8.809 16.049 34.335 10.872 53.3-5.176 18.967-16.776 32.252-28.664 42.459-56.451 48.466-125.476 45.99-190.537 42.145-3.117-.184-6.456-.483-8.928-3.328-2.47-2.843-3.303-9.237-.79-11.998-99.148-.331-196.46 68.09-294.581 46.824-12.873-2.79-27.618-9.621-32.007-27.913-4.053-16.893 2.888-35.013 10.322-49.111 45.776-86.807 118.119-131.52 188.774-164.271 6.204-2.876 12.65-5.881 17.415-12.48 4.763-6.597 7.266-17.94 3.9-26.238-2.787-6.868-8.783-10.071-10.946-17.423-3.71-12.611 6.083-24.372 14.449-30.166" mask="url(#prefix__d)"/>
            </g>
            <path fill="#619340" d="M109.603 217.124c-1.696-1.753-2.289-4.324-1.408-6.598 1.2-3.099 1.86-6.467 1.86-9.99 0-5.957-1.88-11.472-5.079-15.99-1.379-1.948-1.542-4.54-.423-6.649 1.865-3.51 2.923-7.516 2.923-11.769 0-13.775-10.92-24.904-24.694-25.15-14.1-.25-25.61 11.105-25.61 25.15 0 4.246 1.053 8.245 2.912 11.753 1.122 2.115.97 4.711-.414 6.665-3.197 4.518-5.079 10.033-5.079 15.99 0 3.523.66 6.891 1.861 9.99.88 2.27.295 4.84-1.398 6.587-7.069 7.3-11.234 17.426-10.632 28.521 1.05 19.316 16.785 34.912 36.11 35.801 21.778 1.002 39.75-16.359 39.75-37.917 0-10.257-4.069-19.563-10.679-26.394" transform="translate(0 65) translate(0 .454)"/>
            <path fill="#316C35" d="M83.557 276.501c2.14-3.169 4.476-6.255 6.897-9.263 2.539-3.153 5.193-6.226 7.969-9.202 2.764-2.984 5.636-5.885 8.64-8.662 2.969-2.813 6.126-5.442 9.322-8.029-3.245 2.531-6.456 5.11-9.482 7.875-3.062 2.73-5.996 5.587-8.825 8.531-2.84 2.936-5.563 5.973-8.171 9.094-2.185 2.614-4.29 5.277-6.283 8.033l.587-14.128.364-8.77.094-2.266c2.882-2.004 5.614-4.149 8.27-6.385 2.742-2.318 5.37-4.75 7.872-7.295 2.473-2.569 4.797-5.26 6.92-8.087.835-1.159 1.628-2.342 2.376-3.55v-.25c-.807 1.254-1.663 2.48-2.564 3.676-2.18 2.776-4.552 5.41-7.07 7.917-2.544 2.484-5.213 4.852-7.99 7.104-2.506 2.024-5.096 3.973-7.77 5.782l.044-1.033c.06-1.462.058-2.926.09-4.388l.064-3.827c.023-.053.044-.106.05-.158l-.048-.003.132-7.904c2.388-1.953 4.685-3.975 6.945-6.044 2.28-2.103 4.518-4.247 6.653-6.478 2.129-2.235 4.225-4.504 6.122-6.918 1.344-1.706 2.625-3.46 3.764-5.29v-.118c-1.198 1.834-2.542 3.581-3.947 5.277-1.952 2.363-4.1 4.577-6.276 6.756-2.185 2.175-4.47 4.261-6.793 6.303-2.104 1.837-4.255 3.634-6.45 5.364l.075-4.513.146-8.776-.002-.203c1.953-2.176 3.808-4.408 5.607-6.687 1.898-2.416 3.73-4.878 5.429-7.42 1.695-2.543 3.328-5.128 4.697-7.838 1.37-2.704 2.584-5.496 3.267-8.419-.758 2.908-2.041 5.662-3.474 8.324-1.432 2.668-3.125 5.207-4.877 7.7-1.756 2.492-3.643 4.903-5.593 7.265-1.635 1.97-3.328 3.9-5.07 5.782l-.072-7.279-.14-11.984c1.46-2.106 2.85-4.239 4.209-6.394 1.359-2.159 2.67-4.343 3.915-6.56 1.25-2.214 2.442-4.458 3.498-6.759 1.05-2.298 2.035-4.638 2.629-7.077-.668 2.422-1.722 4.728-2.84 6.99-1.122 2.264-2.38 4.468-3.692 6.641-2.4 3.98-5.008 7.855-7.735 11.637l-.047-4.043c-.207-4.732-.384-9.464-.594-14.195 1.8-2.679 3.496-5.406 5.053-8.208.78-1.4 1.523-2.822 2.186-4.275.659-1.452 1.28-2.93 1.649-4.47-.425 1.528-1.098 2.98-1.807 4.405-.713 1.425-1.504 2.817-2.333 4.187-1.492 2.477-3.113 4.89-4.798 7.251-.176-3.85-.376-7.7-.638-11.546 1.334-1.708 2.528-3.48 3.615-5.318 1.079-1.844 2.03-3.76 2.694-5.764-.773 1.97-1.822 3.824-2.993 5.602-1.037 1.56-2.178 3.064-3.387 4.502-.17-2.386-.357-4.77-.584-7.152h-.58c.299 3.432.524 6.868.71 10.307-1.784-1.6-3.438-3.365-4.92-5.237-1.598-2.03-2.984-4.223-3.968-6.592.875 2.406 2.168 4.67 3.686 6.78 1.526 2.11 3.234 4.094 5.162 5.923l.082-.082c.266 5.084.447 10.174.612 15.264-.65-.498-1.233-1.117-1.776-1.749-.726-.857-1.387-1.77-2.018-2.702-1.257-1.869-2.385-3.818-3.461-5.792-2.14-3.956-4.075-8.014-5.862-12.128 1.679 4.155 3.509 8.258 5.55 12.274 1.028 2.005 2.11 3.987 3.329 5.904.614.956 1.259 1.898 1.982 2.795.658.8 1.37 1.58 2.283 2.205.084 2.613.167 5.224.26 7.834l.053 16.036c-1.222-.924-2.355-2.06-3.376-3.227-1.202-1.397-2.311-2.87-3.312-4.41-2.013-3.074-3.703-6.344-5.103-9.72-.761-1.668-1.334-3.402-1.982-5.11-.601-1.726-1.115-3.478-1.667-5.218l-1.383-5.296-1.156-5.347 1.043 5.37c.402 1.781.849 3.551 1.272 5.328.516 1.754.994 3.52 1.56 5.261.614 1.728 1.153 3.481 1.882 5.171 1.336 3.42 2.967 6.748 4.94 9.9.98 1.58 2.076 3.098 3.273 4.548 1.187 1.4 2.43 2.722 4.013 3.852v.398l.017 8.767-.133 5.351c-2.722-2.605-5.16-5.47-7.371-8.49-2.307-3.275-4.38-6.696-6.27-10.209-1.852-3.529-3.531-7.142-5.048-10.816-1.074-2.622-2.078-5.272-2.981-7.952h-.07c.853 2.703 1.808 5.38 2.834 8.03 1.448 3.705 3.059 7.355 4.85 10.931 1.828 3.558 3.843 7.034 6.105 10.376 2.324 3.303 4.905 6.457 7.869 9.308l.054-.052-.057 2.292-.304 12.284-.09-.096c-.38-.429-.751-.873-1.116-1.32-.73-.897-1.441-1.81-2.14-2.734-1.398-1.844-2.75-3.723-4.074-5.62-2.646-3.794-5.17-7.665-7.582-11.598-4.19-6.854-8.06-13.897-11.366-21.177h-.065c3.185 7.34 6.943 14.457 11.028 21.392 2.349 3.976 4.812 7.893 7.4 11.738 1.296 1.922 2.62 3.827 3.995 5.703.687.938 1.387 1.87 2.11 2.788.362.458.73.914 1.116 1.363.194.224.39.447.6.668.048.05.103.1.152.15l-.098 3.993c-.044 1.461-.055 2.923-.127 4.383l-.218 4.381-.091 1.827c-.136-.11-.273-.219-.407-.336-.43-.378-.85-.776-1.262-1.18-.826-.81-1.626-1.649-2.412-2.498-1.571-1.702-3.085-3.454-4.56-5.236-2.944-3.566-5.73-7.25-8.358-11.033-3.184-4.592-6.147-9.332-8.79-14.225h-.204c2.572 4.966 5.475 9.785 8.604 14.461 2.57 3.831 5.3 7.568 8.197 11.193 1.448 1.812 2.94 3.595 4.493 5.334.778.87 1.57 1.728 2.396 2.563.414.418.834.831 1.277 1.232.222.2.447.398.693.59.087.067.184.134.28.2l-.292 5.871L82 276.125c-1.6-3.773-3.342-7.48-5.268-11.114-2.26-4.219-14.092-19.547-16.85-23.492-2.758-3.947-5.408-7.96-7.96-12.03 2.486 4.106 5.07 8.16 7.767 12.148 2.695 3.99 14.232 19.424 16.42 23.664 2.144 4.202 4.062 8.52 5.769 12.89 0 .236.007 1.004.016 2.207-4.042-4.384-8.434-8.417-12.991-12.23-4.864-4.063-16.437-12.764-21.542-16.506 5.02 3.855 16.505 12.666 21.266 16.828 4.695 4.11 9.205 8.44 13.277 13.146.108 13.2.203 102.764.419 120.908l2.17-.067c-.514-19.276-1.281-112.396-1.183-120.529 1.142-1.15 2.47-2.194 3.843-3.125 1.85-1.248 3.856-2.293 5.939-3.18 2.107-.833 4.273-1.557 6.509-2.043 1.105-.294 2.247-.425 3.372-.647.518-.074 1.038-.134 1.558-.192v-.059c-.525.042-1.05.086-1.574.145-1.132.185-2.285.281-3.405.541-2.265.42-4.474 1.08-6.637 1.856-2.14.832-4.217 1.83-6.154 3.047-1.194.76-2.332 1.586-3.397 2.51.04-.836.09-1.67.117-2.506l.075-1.794z" transform="translate(0 65) translate(0 .454)"/>
            <path fill="#A4B750" d="M110.207 335.304c2.897-1.677 6.211-.75 6.252-.729 1.561-5.756 1.113-11.24-.216-16.048-4.303 4.141-10.142 4.99-6.137 2.763 3.035-1.685 4.27-3.34 5.967-4.977-.49-5.72-1.283-10.285-2.137-12.905-.71.671-2.485 3.365-2.485 3.365l.691-5.733c-.908.048-1.913.401-2.992 1.015l.413 3.09-1.88-2.132c-1.76 1.042-3.664 2.567-5.227 4.96.093.351.334.852.92 1.484 1.26 1.362 2.016 1.99 2.26 2.684.241.694.342 3.224-.039 3.251-.299.022-.199-1.06-.485-1.944-.467-1.452-3.175-3.952-3.806-4.138-1.02.506-1.899 1.725-2.754 2.925.304.282 1.298 2.416 2.57 3.484 2.07 1.74 1.765 2.497 1.765 2.497s-1.63-1.149-2.53-1.618c-.737-.385-3.25-2.1-3.476-2.287-2.419 2.69-4.567 5.93-6.543 10.43.097.16.223.472.223.472.09.906 5.998 6.883 6.482 8.583.403 1.414-6.168-4.122-6.866-5.305-.663-1.124-.623-1.624-.623-1.624s-.106-.052-.194-.046c-.042.003-.082.003-.122.003-1.608 2.152-2.739 4.542-3.53 7.062.471.502 2.406 2.503 4.652 4.004 2.42 1.617 3.34 5.313 2.973 5.724 0 0-2.112-3.206-3.106-4-.962-.77-4.316-2.484-5.125-4.512-2.103 3.101-3.44 6.088-4.047 9.018.117.873.831 2.377 3.898 4.011 4.794 2.554 6.017 5.13 6.017 5.13s-2.829-2.986-6.776-3.8c-2.909-.599-3.944-1.71-4.178-2.626-.745 2.041-1.608 3.96-2.07 5.731-.626 2.401-.845 4.661-1.178 6.766.274.083.61.176 1.063.262.973.185 2.363.15 3.586.733 1.071.512 2.018 1.23 2.902 1.786 1.654 1.042 2.874 1.918 2.763 2.607-.193.31 1.62-1.036-.583-2.215-1.032-.552-4.952-.993-6.709-1.347-1.24-.249-2.315-.357-3.234-.385-.95 3.642-.946 6.683-.373 9.255.417-.062.831-.14 1.21-.266.777-.26 1.88-.982 3.155-.648 1.124.295 2 .152 2.86.71 1.608 1.042 2.947 1.803 2.912 2.558-.146.347-.98-1.095-3.306-1.868-1.07-.356-2.423.01-4.06.096-1.002.053-1.894.3-2.669.641.103 4.125 1.084 7.315 2.67 9.723 2.646-1.394 6.26-2.71 7.568-2.84 1.425-.143-4.337 3.69-6.434 4.83 1.986 3.827 4.631 4.996 4.775 4.89l2.36-3.022c-1.142 1.42-.86 15.017-.86 15.017l1.395-1.615c-.66-1.733 1.016-16.54 2.184-13.956 1.168 2.585 3.54 4.584 3.54 4.584 2.48-.9 4.684-2.265 6.477-4.385-.232.014-.539.01-.942-.024-2.897-.233-4.554-3.205-5.34-4.127-.788-.92-1.065-4.707.884-.687 1.95 4.02 5.373 3.901 5.373 3.901s.371.216.557.441c3.035-2.086 4.904-5.236 6.556-8.673-.062.024-.124.045-.186.06-1.728.427-4.15-.263-5.8-1.579-1.652-1.314-3.85-1.72-3.85-1.72s5.51-.169 8.08 1.412c1.054.648 2.033.37 2.822-.184 2.378-3.155 3.42-6.967 4.206-10.96-.044-.145-.9-1.298-2.737-1.253-4.74.116-2.66-.095-.019-.265l2.806-.205s.176.004.41.077c.368-.83.643-1.74.71-2.833-4.17.83-10.21-1.442-10.21-1.442 9.367-1.056 8.654.086 10.473.281 1.257-3.288 1.97-7.065 1.901-11.533-.05.027-.105.053-.16.08-2.183 1.004-10.774 1.01-9.644.053 1.13-.955 2.993-.414 6.014-.456 2.26-.032 3.418-.78 3.956-1.2 1.164-2.914.98-5.508.595-8.02-6.09.537-10.467 2.148-6.208-.317M27.463 379.442c-4.92-2.186-9.445-5.046-13.225-7.723-.008-.67 3.66-1.584 3.66-1.584s-3.717.484-5.508.565c-4.78-2.621-8.648-4.498-10.765-5.67.814-.111 3.674-.004 3.666.004-1.735-.543-3.498-1.037-5.29-1.478.304-.377.915-.711 1.77-1 .875.359 1.744.732 2.608 1.12-.45-.5-.897-.99-1.343-1.47 1.414-.451 3.275-.82 5.7-.702.268.159.623.433.997.912.806 1.03 4.247 3.357 4.358 3.204.09-.125-.823-.51-1.485-.975-1.09-.776-2.468-2.857-2.45-3.19.69-.274 1.924-.235 3.11-.174.15.232 3.762 4.269 3.76 4.266-.002-.001-.543-1.208-.7-1.793-.136-.491-.887-2.277-.976-2.443 2.738-.055 5.756.257 9.522 1.298.097.113.302.308.302.308.624.394 3.883 5.865 5.093 6.949.954.847-1.908-4.856-2.598-5.675-.688-.811-1.06-1.011-1.062-1.012 0 0-.017-.072.006-.11.012-.017.02-.035.028-.054 1.914.209 3.852.764 5.78 1.563.266.453 1.323 2.299 2.015 4.093.743 1.924 1.733 3.327 2.081 3.356-.005-.004-.43-1.731-.826-2.585-.397-.837-1.032-3.257-2.3-4.582 2.564.459 4.824 1.243 6.906 2.362.577.478 1.473 1.544 2.164 3.839 1.092 3.592 1.026 2.606 1.018.28-.015-1.713-.609-2.754-1.19-3.31 1.481.625 2.877 1.132 4.111 1.76 1.672.852 3.186 1.83 4.611 2.667.025.176.051.387.06.654.02.574.241 4.65.241 4.65s.595-4.253.671-4.725c2.495 1.252 4.481 2.654 6.148 4.104-.07.184-.153.359-.265.493-.23.279-.799.507-.669 1.306.117.704-.045 1.083.277 1.774.602 1.292.872 1.65.501.115-.17-.705.175-1.226.347-2.02.106-.484.335-.825.615-1.066 2.735 1.896 4.831 3.733 6.431 5.523-1.052.792-3.19 1.99-3.339 2.605-.15.68 2.373-.742 4.677-1.227 2.605 2.52 3.448 4.267 3.364 4.31-.735.037-1.473.064-2.216.08 7.435 2.463 10.116 10.586 9.596 12.289-.394.092-.487.18-.883.265.588-6.164-8.2-12.914-9.17-11.371l2.114 3.892c-.685.95-.498 1.229-2.144 1.332.014-.114.015-.273-.003-.493-.143-1.571-2.314-3.602-2.958-4.396-.649-.78-3.406-2.527-.534.169 2.902 2.657 2.792 4.33 2.782 4.342 0 0 .157.275.326.459-1.643.749-4.124.425-6.84-.26.021-.021.04-.044.055-.068.4-.698-.034-2.243-.935-3.678-.9-1.437-1.07-2.748-1.07-2.747.002-.001.818 5.983.353 6.135-2.547-.217-5.578-1.514-8.734-3.122-.109-.094-.575-3.401-.937-2.154l-.402 1.31s-.01.092.024.247c-.676-.235-1.409-.561-2.264-1.09.175-2.172 1.74-4.871 1.757-4.867-2.867 2.72-2.966 2.943-3.18 4.202-2.682-1.065-8.709-4.911-8.68-4.925 1.083-.541 6.961-4.471 6.091-4.407-.883.06-5.143 1.032-5.59 2.486-.335 1.086-1.404 1.199-1.813 1.24-2.476-.96-4.54-2.404-6.5-3.87 2.353-2.952-.87-.544-.852-.512M130.153 383.619c1.328.85 1.171 2.794 1.158 2.822 3.655-1.222 7.032-3.171 9.86-5.076-3.269-.946-4.59-3.493-2.658-2.2 1.49.992 2.72 1.144 4.034 1.549 3.56-1.67 6.436-2.784 8.013-3.534-.595-.256-2.699-.672-2.692-.664 1.285-.21 2.588-.37 3.914-.47-.217-.42-.659-.854-1.282-1.288-.649.187-1.295.39-1.937.61.34-.402.678-.796 1.014-1.181-1.029-.692-2.389-1.388-4.173-1.715-.2.104-.466.306-.75.7-.61.853-.867 1.345-1.254 1.605-.389.252-1.928.876-2.007.707-.063-.137.614-.344 1.11-.674.815-.553 1.866-2.318 1.86-2.644-.502-.391-1.409-.576-2.28-.734-.117.198-1.218 1.129-1.642 1.994-.695 1.4-1.204 1.458-1.202 1.455.001-.002.422-1.071.55-1.611.108-.45.693-2.043.761-2.187-2.01-.552-4.232-.798-7.018-.475-.073.092-.228.243-.228.243-.466.269-2.962 4.975-3.87 5.805-.718.648 1.492-4.355 2.014-5.023.52-.661.8-.786.8-.787 0 0 .012-.067-.004-.108-.008-.02-.013-.04-.019-.058-1.409-.145-2.843.04-4.275.462-.204.39-1.015 1.987-1.557 3.599-.582 1.729-2.489 3.47-2.744 3.436.003-.003 1.501-2.162 1.808-2.917.307-.74.82-2.967 1.776-4.021-1.892-.02-3.567.328-5.118 1.033-.432.358-1.11 1.228-1.66 3.326-.87 3.279-2.159 4.809-2.153 4.807.003 0 1.35-2.472 1.4-4.721.042-1.66.498-2.558.936-2.991-1.1.337-2.135.573-3.053.958 1.28-.536-.212.07-3.437 1.744-.022.166-.045.367-.056.623-.025.552.087 1.239-.126 2.053-.188.714-.493 1.435-.725 2.069-.433 1.185-.823 2.094-1.187 2.268-.172.007.494-.804.966-2.311.221-.707.36-1.557.423-2.56.044-.71.027-1.286-.02-1.757-1.856.759-3.342 1.756-4.593 2.858.05.19.106.375.185.525.163.31.578.636.467 1.386-.1.66.012 1.057-.237 1.669-.467 1.14-.816 2.054-1.21 2.269-.188.034.538-.831.84-2.25.138-.652-.105-1.22-.217-2.018-.068-.49-.23-.862-.43-1.146-2.046 1.339-3.62 2.737-4.829 4.18.757.959 1.525 2.409 1.623 3.032.097.686-2.03-1.167-2.632-1.94-1.96 1.966-2.613 3.505-2.552 3.563.54.17 1.081.33 1.626.482-5.507 1.032-7.63 8.412-7.28 10.156.288.16.354.262.644.417-.316-6.075 6.266-11.016 6.95-9.346 0 0-1.625 3.385-1.627 3.386.485 1.046.342 1.28 1.55 1.679-.009-.113-.006-.267.011-.477.135-1.495 1.768-3.067 2.255-3.72.492-.637 2.55-1.828.39.262-2.182 2.045-2.133 3.686-2.126 3.699 0 0-.12.238-.248.385 1.193 1.024 3.022 1.16 5.03.992-.016-.024-.03-.05-.04-.076-.28-.75.067-2.166.756-3.393.69-1.227.838-2.466.84-2.465-.003-.001.277 2.733-.555 4.508-.34.726-.16 1.137.178 1.369 1.875.253 4.125-.452 6.474-1.435.082-.072.704-.903.577-1.815-.323-2.351-.09-1.375.151-.102l.271 1.344s.007.09-.023.233c.501-.104 1.046-.287 1.684-.642-.716-1.806.181-5.651.168-5.651 1.226 4.332.523 4.383.523 5.369 1.99-.544 4.263-1.58 6.896-3.245-.02-.016-.04-.033-.06-.052-.786-.721-1.552-5.002-.915-4.781.648.219.518 1.34.82 2.828.225 1.113.771 1.417 1.071 1.532 1.836-.48 3.38-1.504 4.847-2.568-1.013-2.808-2.449-4.41-.523-3.162" transform="translate(0 65) translate(0 .454)"/>
            <path fill="#A4B750" d="M43.739 343.004s-4.74.533-4.786.161c-1.962-4.07-3.05-9.482-3.928-13.819 1.125.94 2.23 1.095 2.23 1.095s-1.758-1.259-2.4-1.988c-1.16-4.815-2.02-8.928-2.323-11.549.323.216 1.214 1.728 1.21 1.736-.397-1.547-.775-3.097-1.16-4.64.274-.418.626-.619 1.01-.605.09.996.2 1.982.324 2.96.047-.923.115-1.863.206-2.819.62.08 1.277.581 2.067 2.08.028.37.039.95-.01 1.794-.1 1.817-.156 2.695-.076 3.418.07.728.628 2.99.743 2.857.083-.103-.207-1.01-.33-1.916-.224-1.459.045-4.954.212-5.442.377 0 .858.735 1.395 1.462-.04.407.156 2.827.063 4.323-.157 2.435.166 2.948.162 2.955-.003.005.158-1.678.313-2.488.113-.643.469-3.326.505-3.615 1.52 1.413 3.404 3.455 6.302 6.76.026.187.109.53.109.53.325.971.474 8.616 1.105 10.147.504 1.437.816-5.822.604-7.3-.226-1.3-.367-1.906-.348-1.922 1.786 1.311 3.612 3.077 5.402 5.138.017.661-.194 7.363.237 7.622.003.012 1.427-4.46.753-6.708 2.85 2.126 6.177 5.652 8.196 8.377.439.892.334 1.693-.037 4.152-.556 3.69 1.059 6.036 1.06 6.06.009.008-1.468-2.759-.443-5.153.7-1.637 1.112-2.727.714-3.72 1.58 1.85 3.13 3.62 4.362 5.384 1.67 2.393 3.03 4.79 4.348 7.037-.082.128-2.555 6.087-2.107 6.761.274.287 1.072-3.835 1.712-4.416.45-.409.886-.656 1.284-.794 2.42 3.898 3.21 5.427 4.385 8.342-.205-.069-1.254 4.7-.841 5.48.256.358 1.223-4.427 1.729-4.029 2.205 4.71 4.165 10.278 4.665 12.873-2.045-1.888-4.728-3.509-5.597-3.688-.907-.277 4.367 4.196 6.06 5.848.947 4.16-.432 5.116-.571 4.981-.977-1.244-1.94-2.459-2.9-3.642 1.605 1.481 6.418 17.197 6.168 17.355-.624-.733-1.23-1.46-1.821-2.18.339-2.208-6.57-18.939-6.467-16.025.224 2.678-1.12 4.573-1.135 4.568-2.312-1.24-4.568-2.86-6.748-5.027.207.026 3.426-2.964 3.607-3.875.198-.92-4.12 3.158-4.216 3.368-3.273-2.157-5.983-4.986-8.711-7.809.065.016.129.03.192.04 1.738.248 6.577-3.564 6.575-3.56.043-.026-7.542 2.294-8.463 1.904-3.324-2.417-5.693-5.245-7.834-8.215-.013-.118 1.036-.114 2.526-.427 1.173-.246 6.17-1.706-.544-.395-.776.124-1.224.222-2.77.074-.611-.57-1.365-1.655-1.804-2.48 3.794-.25 6.998-3.273 6.91-3.296-5.785 2.712-5.776 2.562-7.53 2.46-2.15-2.247-3.795-4.929-5.063-8.39l.118.018c1.622.194 6.023-1.686 6.023-1.686s-2.331-.363-4.068.407c-1.301.577-2.2.308-2.612.13-1.467-1.935-1.952-3.992-2.45-6.07 3.432-.598 4.507-.969 4.507-.969" transform="translate(0 65) translate(0 .454)"/>
            <path fill="#FFDDCF" d="M140.573 115.976L140.573 146.639 553.219 146.639 553.219 115.721 347.146 10.755z" transform="translate(0 65) translate(0 .454)"/>
            <path fill="#F7C7BA" d="M148.849 121.777L148.849 136.604 544.178 136.604 544.178 121.17 347.109 20.791z" transform="translate(0 65) translate(0 .454)"/>
            <path fill="#FFDDCF" d="M358.146 64.94c1.285 0 2.327-1.286 2.327-2.871s-1.042-2.872-2.327-2.872h-23.264c-1.284 0-2.327 1.287-2.327 2.872s1.043 2.872 2.327 2.872h9.306c3.03 0 5.588 2.406 6.551 5.744h-15.857c-1.284 0-2.327 1.286-2.327 2.87 0 1.587 1.043 2.873 2.327 2.873h15.857c-.963 3.338-3.522 5.744-6.55 5.744h-9.307c-.303 0-.605.075-.889.218-.568.293-1.024.85-1.26 1.557-.238.7-.238 1.494 0 2.194.116.357.288.672.506.937l18.607 22.969c.456.563 1.052.844 1.647.844.596 0 1.192-.281 1.648-.838.907-1.12.907-2.941 0-4.061l-14.643-18.075h3.69c5.62 0 10.315-4.941 11.395-11.49h2.563c1.285 0 2.327-1.285 2.327-2.871 0-1.585-1.042-2.871-2.327-2.871h-2.563c-.35-2.137-1.122-4.067-2.15-5.744h4.713zM143.036 403.419L546.64 403.419 546.64 368.448 143.036 368.448z" transform="translate(0 65) translate(0 .454)"/>
            <path fill="#EABBAB" d="M138.111 403.419L555.682 403.419 555.682 385.934 138.111 385.934z" transform="translate(0 65) translate(0 .454)"/>
            <path fill="#F7C7BA" d="M180.411 368.449L232.367 368.449 232.367 354.961 180.411 354.961zM180.411 160.127L232.367 160.127 232.367 146.639 180.411 146.639z" transform="translate(0 65) translate(0 .454)"/>
            <path fill="#FFDDCF" d="M185.408 354.96L227.372 354.96 227.372 160.127 185.408 160.127z" transform="translate(0 65) translate(0 .454)"/>
            <path fill="#F7C7BA" d="M185.408 160.127L227.372 170.352 227.372 160.127z" transform="translate(0 65) translate(0 .454)"/>
            <path fill="#EABBAB" d="M251.958 368.449L303.914 368.449 303.914 354.961 251.958 354.961z" transform="translate(0 65) translate(0 .454)"/>
            <path fill="#F7C7BA" d="M251.958 160.127L303.914 160.127 303.914 146.639 251.958 146.639z" transform="translate(0 65) translate(0 .454)"/>
            <path fill="#FFDDCF" d="M256.955 354.96L298.919 354.96 298.919 160.127 256.955 160.127z" transform="translate(0 65) translate(0 .454)"/>
            <path fill="#F7C7BA" d="M256.955 160.127L298.919 170.352 298.919 160.127z" transform="translate(0 65) translate(0 .454)"/>
            <path fill="#EABBAB" d="M392.996 368.449L444.952 368.449 444.952 354.961 392.996 354.961z" transform="translate(0 65) translate(0 .454)"/>
            <path fill="#F7C7BA" d="M392.996 160.127L444.952 160.127 444.952 146.639 392.996 146.639z" transform="translate(0 65) translate(0 .454)"/>
            <path fill="#FFDDCF" d="M397.992 354.96L439.956 354.96 439.956 160.127 397.992 160.127z" transform="translate(0 65) translate(0 .454)"/>
            <path fill="#F7C7BA" d="M397.992 160.127L439.956 170.352 439.956 160.127z" transform="translate(0 65) translate(0 .454)"/>
            <path fill="#EABBAB" d="M461.425 368.449L513.381 368.449 513.381 354.961 461.425 354.961z" transform="translate(0 65) translate(0 .454)"/>
            <path fill="#F7C7BA" d="M461.425 160.127L513.381 160.127 513.381 146.639 461.425 146.639z" transform="translate(0 65) translate(0 .454)"/>
            <path fill="#FFDDCF" d="M466.421 354.96L508.385 354.96 508.385 160.127 466.421 160.127z" transform="translate(0 65) translate(0 .454)"/>
            <path fill="#F7C7BA" d="M466.421 160.127L508.385 170.352 508.385 160.127z" transform="translate(0 65) translate(0 .454)"/>
            <path fill="#619440" d="M487.882 308.173c.794-3.518 2.847-15.24 6.231-16.486 3.691-1.359 8.256.386 10.1 3.86.796 1.5 1.147 3.273 2.674 4.28.853.563 2.026.571 2.73-.17 1.15-1.209.06-3.05-.877-4.38-1.793-2.544-3.07-5.548-3.084-8.662-.013-3.112 1.388-6.319 4.005-8.004 2.618-1.684 6.448-1.49 8.56.796 1.321 1.43 1.878 3.455 3.604 4.575.896.58 2.073.698 2.94.074 1.751-1.259.57-3.966-.618-5.757-1.677-2.529-3.15-5.28-3.59-8.284-.442-3.003.296-6.308 2.501-8.393 2.205-2.085 6.001-2.526 8.28-.52.912.801 1.52 1.896 2.37 2.763 1.022 1.04 2.672 1.76 3.922.655.866-.767 1.01-2.048.58-3.12-.595-1.489-1.796-2.387-2.989-3.303-1.879-1.444-3.176-3.564-3.453-5.917-.827-7.03 6.954-9.74 11.341-6.653 1.231.867 2.462 2.19 3.967 1.765 1.188-.335 1.84-1.586 1.71-2.812-.258-2.425-2.264-3.829-3.33-5.8-1.949-3.605.24-8.757 4.188-9.856 3.02-.84 3.802 3.071 5.17 6.493.314.786 1.47.62 1.558-.223.353-3.352 1.461-7.535 2.31-9.844 1.557-4.235 7.893-8.882 10.92-2.788.812 1.634.195 5.838-.85 7.002-1.478 1.646-4.997 7.301-4.997 7.301-.33.646.404 1.323 1.015.93 1.387-.893 2.876-1.593 4.587-1.749.783-.07 1.585.007 2.328.263 4.428 1.526 3.742 6.98.912 9.591-2.352 2.172-5.644 2.917-8.758 3.658-1.614.384-3.36.873-4.162 2.444-.454.89-.346 2.022.416 2.667.88.748 1.886.331 2.855.208 3.168-.405 6.047 2.75 6.017 5.945-.03 3.193-2.37 6.035-5.239 7.44-2.869 1.403-6.179 1.595-9.369 1.433-1.574-.08-3.269-.215-4.512.95-.734.688-.953 1.843-.338 2.64.876 1.131 2.51.623 3.878.547 3.798-.21 6.815 4.017 6.217 7.774-.599 3.756-3.91 6.64-7.54 7.776-4.089 1.282-8.536.738-12.737.148-.988-.139-2.003.394-2.309 1.345-.424 1.317.78 2.071 1.718 2.752 3.628 2.631 5.046 7.911 3.225 12.006-1.82 4.096-6.69 6.578-11.075 5.648-2.785-.592-5.324-2.386-8.343-1.478-1.495.45-2.57 1.881-2.285 3.416.361 1.936 2.532 2.49 4.157 3.395 4.506 2.515 5.263 9.314 2.302 13.541-2.96 4.227-12.47 4.36-17.62 4.033-5.15-.326-15.899-.777-21.4-4.279-2.592-1.65-.608-18.117.187-21.636" transform="translate(0 65) translate(0 .454)"/>
            <path fill="#306B34" d="M569.603 222.462c.812 1.634.195 5.838-.851 7.002-1.478 1.645-4.997 7.301-4.997 7.301-.33.646.405 1.323 1.015.93 1.388-.893 2.876-1.593 4.588-1.749.783-.07 1.584.007 2.328.263 4.428 1.526 3.742 6.98.912 9.591-2.352 2.172-5.644 2.917-8.758 3.658-1.614.384-3.36.873-4.162 2.443-.454.89-.346 2.023.416 2.668.88.747 1.885.331 2.855.207 3.168-.404 6.047 2.751 6.017 5.946-.03 3.193-2.37 6.035-5.24 7.44-2.87 1.403-6.18 1.595-9.37 1.433-1.572-.08-3.267-.215-4.51.95-.734.688-.953 1.843-.338 2.64.876 1.131 2.51.623 3.878.547 3.798-.21 6.815 4.017 6.217 7.774-.6 3.756-3.911 6.64-7.541 7.776-4.088 1.282-8.536.738-12.736.148-.99-.139-2.003.394-2.31 1.345-.423 1.317.779 2.071 1.718 2.751 3.629 2.632 5.047 7.912 3.226 12.007-1.821 4.096-6.69 6.578-11.075 5.648-2.785-.592-5.324-2.386-8.343-1.478-1.495.45-2.571 1.881-2.285 3.416.36 1.936 2.532 2.49 4.157 3.395 4.506 2.515 9.13 12.145 6.169 16.372-2.961 4.226-16.337 1.53-21.487 1.202-4.806-.305-14.486-.717-20.23-3.616-.411-.208-1.171-.663-1.171-.663s28.442-24.715 53.04-57.479c13.665-18.199 25.814-52.684 25.814-52.684s.48.105 1.036.5c.957.674 1.859 1.995 2.018 2.316" transform="translate(0 65) translate(0 .454)"/>
            <path fill="#FFA331" d="M540.713 364.761c-1.147.47-2.512.15-3.509-.587-.996-.736-1.67-1.836-2.152-2.977-1.397-3.308-1.319-7.207.208-10.456.302-.643.682-1.287 1.286-1.662.603-.375 1.427-.337 1.957.136 1.295 1.154 2.957 7.143 2.957 7.143.673 1.433 1.36 2.917 1.412 4.5.053 1.582-.693 3.303-2.159 3.903m9.514-24.475c-.42-1.32.115-2.884 1.255-3.67 1.14-.789 2.695-.596 3.878.124.768.47 3.278 1.483 3.278 1.483.992.648 1.681 1.924 1.274 3.037-.459 1.252-1.983 1.707-3.309 1.844-1.254.13-2.55.124-3.738-.299-1.187-.422-2.256-1.317-2.638-2.519m25.443-18.633c-.536-.304-.772-1-.64-1.602.13-.602.571-1.103 1.096-1.424.525-.322 1.13-.486 1.733-.613.374-.078.76-.144 1.135-.079.377.065.746.284.896.635.161.376.036.826-.217 1.146l-.254.37c-.53.655-1.225 1.177-2.002 1.504-.557.233-1.222.36-1.747.063m-9.197 1.296c-.63.191-1.35.152-1.9-.21-.875-.577-1.09-1.82-.782-2.82.31-1 .522-1.469 1.04-2.378.466-.817 2.021-2.793 2.021-2.793.526-.553 1.321-.917 2.06-.722.593.156 1.058.65 1.294 1.215.236.566.27 1.198.223 1.81-.137 1.825-.973 3.592-2.299 4.856-.477.455-1.026.852-1.657 1.042m-36.013 20.286c-2.199.704-4.599.788-6.834.203-1.104-.289-2.184-.744-3.047-1.49-.862-.749-1.488-1.813-1.539-2.953-.097-2.138 9.421-3.296 11.598-1.9.633.405 1.168.963 1.54 1.616l.052.092c.941 1.684.067 3.844-1.77 4.432m2.542-19.604c.351-1.36 1.298-2.833 2.704-2.818.753.008 1.444.47 1.912 1.061.467.592.747 1.306 1.021 2.008l1.534 2.901c.703 1.276 1.421 2.604 1.515 4.057.094 1.453-.627 3.068-2.009 3.525-1.303.431-2.718-.273-3.747-1.18-2.629-2.32-3.807-6.16-2.93-9.554m12.364-1.679c.552.008 1.04.41 1.297.897l.317.516c.521 1.014.785 2.158.763 3.297-.015.817-.223 1.707-.879 2.194-.668.495-1.658.406-2.33-.085-.672-.49-1.048-1.31-1.158-2.135-.11-.825.018-1.663.191-2.477.108-.504.238-1.017.524-1.447.286-.43.76-.766 1.275-.76m10.4-5.582c.582-.135 1.208.111 1.64.526.43.416.69.98.862 1.552.548 1.817.154 3.793-.716 5.48-.232.45-.789 1.867-.789 1.867-.375.613-1.054 1.096-1.769 1.023-.619-.063-1.14-.532-1.418-1.088-.278-.557-.348-1.193-.373-1.814-.078-1.938.245-3.89.943-5.7.307-.797.79-1.652 1.62-1.846m9.868 13.02c1.596-.312 3.193.304 4.58 1.153 2.013 1.236 2.692 3.285 2.692 3.285.031 1.424-1.373 2.548-2.786 2.728-1.413.18-2.812-.334-4.144-.84-1.395-.528-2.976-1.26-3.322-2.71-.203-.85.11-1.775.7-2.42.588-.645 1.422-1.03 2.28-1.197m.841 49.326s-8.743-.666-13.513-7.005c-4.31-5.728-4.025-12.66-7.344-19.015-.503-.963-1.017-1.965-1.064-3.05-.046-1.085.516-2.278 1.553-2.599 1.076-.333 2.244.395 2.82 1.363.574.968.71 2.124.893 3.235 1.091 6.562 4.397 12.736 9.255 17.281 3.292 3.08 7.505 5.482 12.013 5.485 3.453.002 6.79-1.405 9.623-3.377 2.835-1.97 5.236-4.49 7.615-6.993-11.159 2.148-23.328-2.149-30.665-10.827-1.37-1.62-2.646-3.58-2.172-5.756.311-1.425 1.515-2.57 2.968-2.462 1.462.11 2.212 1.391 2.92 2.521 4.898 7.821 13.738 13.03 22.954 13.521 2.585.14 5.32-.115 7.472-1.553 3.816-2.55 4.786-8.058 8.63-10.568-9.9 5.26-22.626 4.72-32.046-1.357-1.068-.689-2.126-1.477-2.755-2.58-.63-1.105-.73-2.6.07-3.588.977-1.208 2.888-1.207 4.278-.513 1.39.694 2.435 1.904 3.606 2.925 3.15 2.744 7.305 4.141 11.462 4.541 4.158.4 8.35-.133 12.461-.868 2.264-.405 4.763-1.033 5.995-2.975.693-1.093.857-2.427 1.005-3.713l1.938-16.862c-.734 2.456-8.32 8.04-13.515 9.035-2.962.57-9.019.248-11.903-.634-.987-.3-1.993-.614-2.83-1.217-.837-.604-1.488-1.563-1.448-2.594.044-1.116.893-2.078 1.901-2.56 1.008-.482 2.155-.569 3.271-.605 4.751-.15 9.534.493 14.247-.133 4.711-.626 9.58-2.846 11.721-7.09-3.702-7.015-5.512-15.018-5.189-22.945.096-2.36.331-4.917-.949-6.905l-.873 2.147c-1.423 2.333-4.595 3.507-7.16 2.494-1.943-.766-3.497-2.57-5.58-2.72-1.472-.105-2.893.683-3.9 1.761-1.007 1.077-1.67 2.424-2.318 3.75l-5.498 11.245c-.858 1.754-2.307 3.817-4.212 3.39-1.44-.323-2.16-1.94-2.429-3.39-.647-3.486.082-7.207 1.997-10.189 1.916-2.983 4.996-5.194 8.435-6.055-1.596-1.265-3.216-2.547-5.092-3.34-1.876-.795-4.07-1.053-5.938-.24-2.508 1.093-3.866 3.795-4.817 6.36-1.71 4.618-2.765 9.478-3.12 14.39-.088 1.208-.14 2.454-.649 3.556-.509 1.1-1.606 2.031-2.814 1.932-1.034-.084-1.897-.908-2.302-1.863-.406-.955-.433-2.025-.395-3.062.278-7.51 3.82-14.842 9.528-19.728-2.437-1.46-5.474-1.878-8.214-1.13-2.74.745-5.146 2.647-6.504 5.141-2.024 3.712-1.654 8.215-1.228 12.422l.993 9.823c.124 1.233.182 2.66-.72 3.51-.823.775-2.19.717-3.15.122-.962-.597-1.583-1.61-2.049-2.64-1.823-4.033-1.725-8.724-.61-13.005 1.114-4.282 3.18-8.247 5.226-12.169-11.095 4.248-18.495 8.332-26.669 16.954l-3.02 3.103c.21 6.395 3.913 12.57 9.458 15.764 1.1.632 2.447 1.468 2.318 2.73-.09.903-1.002 1.554-1.906 1.634-.904.08-1.786-.28-2.593-.697-6.308-3.262-10.159-10.72-9.165-17.753-8.13 7.35-13.054 18.13-13.29 29.086-.069 3.196.258 6.455 1.498 9.401 1.242 2.946 3.482 5.564 6.443 6.77 2.961 1.206 6.65.79 8.957-1.422 1.338-1.282 2.137-3.033 3.414-4.375 1.277-1.343 3.86-2.662 4.967-1.178.553.741-1.205 2.447-2.04 3.191-.314.28-.614.578-.874.907-2.648 3.327-3.02 6.668-2.083 10.982.99 4.552 5.175 11.303 8.288 14.768 3.176 3.534 9.626 5.56 13.185 5.807 14.974 1.044 21.227-7.747 21.227-7.747" transform="translate(0 65) translate(0 .454)"/>
        </g>
        <g transform="translate(0 65) translate(506 346.454)">
            <mask id="prefix__g" fill="#fff">
                <use xlink:href="#prefix__e"/>
            </mask>
            <path fill="url(#prefix__f)" d="M27.194.675c-6.296 4.093-11.995 8.957-17.029 14.471-3.293 3.197-6.384 6.607-9.236 10.238-.422.538.388 1.229.813.688.249-.318.514-.621.767-.936.165.037.343.001.485-.167.553-.656 1.126-1.292 1.693-1.935.164.039.34-.001.474-.182.575-.776 1.175-1.53 1.773-2.286 6.314-6.73 13.417-12.642 21.225-17.616.579-.368-.031-1.242-.609-.873-.232.147-.458.301-.688.451-.071-.079-.156-.143-.257-.172.399-.269.794-.545 1.198-.808.478-.31.139-.965-.318-.965-.094 0-.193.028-.291.092" mask="url(#prefix__g)"/>
        </g>
        <g>
            <path fill="#306B34" d="M451.432 59.713l-.058-.046c-2.126-1.664-5.192-1.31-6.835.787-.794 1.015-1.142 2.282-.978 3.57.164 1.29.805 2.437 1.854 3.251 2.126 1.664 5.193 1.311 6.836-.787.794-1.014 1.142-2.282.978-3.568-.16-1.268-.799-2.403-1.797-3.207m-7.3 9.041c-1.396-1.124-2.286-2.712-2.512-4.484-.23-1.809.26-3.592 1.38-5.022 2.307-2.947 6.605-3.45 9.58-1.122 1.444 1.12 2.36 2.741 2.59 4.546.23 1.81-.259 3.593-1.379 5.022-2.307 2.947-6.606 3.451-9.582 1.123l-.078-.063" transform="translate(0 65) translate(122 214.454)"/>
            <path fill="#FFA331" d="M428.883 2.484c-2.115 0-3.854 1.654-3.892 3.72-.019 1.009.366 1.966 1.083 2.693.723.733 1.695 1.147 2.74 1.165 2.125.04 3.925-1.63 3.964-3.721.018-1.007-.367-1.963-1.084-2.691-.723-.733-1.695-1.146-2.739-1.165l-.072-.001m.002 9.325l-.103-.001c-1.503-.027-2.906-.626-3.95-1.685-1.05-1.066-1.614-2.468-1.587-3.951.056-3.016 2.575-5.434 5.638-5.434h.103c1.503.028 2.906.626 3.951 1.686 1.05 1.066 1.613 2.468 1.586 3.95-.056 3.018-2.575 5.435-5.638 5.435M419.141 20.073c-.07 3.96-3.316 7.113-7.248 7.04-3.932-.071-7.06-3.34-6.989-7.301.071-3.961 3.316-7.113 7.248-7.041 3.931.073 7.06 3.34 6.99 7.302M462.463 55.496c-.04 2.21-1.85 3.968-4.042 3.927-2.193-.04-3.938-1.864-3.898-4.072.04-2.209 1.85-3.966 4.042-3.925 2.193.04 3.938 1.862 3.898 4.07" transform="translate(0 65) translate(122 214.454)"/>
            <path fill="#A4B750" d="M8.969 118.932c-1.745 0-3.145.394-3.815 1.298-1.92 2.589 1.758 9.436 6.116 13.224 6.36 5.53 14.674 5.143 18.592 4.558-.863-3.975-3.504-12.142-11.051-16.302-3.033-1.672-6.92-2.778-9.842-2.778m16.588 20.763c-4.462 0-10.334-.994-15.183-5.209-2.328-2.025-4.501-4.874-5.814-7.622-1.522-3.187-1.7-5.832-.503-7.448 2.54-3.427 10.584-1.563 15.413 1.099 8.52 4.696 11.142 14.103 11.874 17.929l.129.68-.682.12c-1.223.215-3.062.451-5.234.451M20.592 143.477c-3.146 0-6.58.612-9.874 2.419-4.849 2.66-9.646 7.932-8.564 10.741 1.16 3.008 8.911 3.568 14.445 1.917 8.075-2.41 12.2-9.64 13.805-13.261-2.155-.79-5.74-1.816-9.812-1.816M10.04 160.84c-.892 0-1.766-.049-2.6-.149-3.507-.422-5.836-1.688-6.558-3.564-1.534-3.98 4.346-9.775 9.18-12.428 8.531-4.68 17.878-1.857 21.501-.425l.644.255-.264.639c-1.447 3.509-5.802 11.963-14.953 14.694-2.14.639-4.605.978-6.95.978M37.04 106.056h-.004c-3.225.007-6.518 7.047-6.954 12.806-.635 8.403 4.643 14.84 7.451 17.632 2.673-3.066 7.645-10.063 6.473-18.6-.752-5.477-3.957-11.838-6.966-11.838zm.563 32.395l-.503-.476c-2.759-2.606-9.099-9.692-8.379-19.217.444-5.867 3.82-14.057 8.312-14.067h.007c4.263 0 7.57 7.556 8.318 13.016 1.323 9.64-4.655 17.361-7.286 20.233l-.469.511z" transform="translate(0 65) translate(122 214.454)"/>
            <path fill="#A4B750" d="M53.754 152.896c-6.375-3.205-12.652-6.78-18.658-10.627-8.2-5.253-16.104-11.144-23.492-17.51l.891-1.034c7.339 6.324 15.191 12.177 23.338 17.394 5.966 3.822 12.202 7.374 18.534 10.557l-.613 1.22z" transform="translate(0 65) translate(122 214.454)"/>
            <path fill="#A4B750" d="M12.33 153.937l-.37-1.314C22.266 149.71 34 142.682 35.63 141.689c.55-1.447 3.785-10.866 1.168-25.328l1.343-.243c2.916 16.109-1.158 25.893-1.333 26.3l-.084.199-.183.114c-.128.08-12.975 8.032-24.212 11.206" transform="translate(0 65) translate(122 214.454)"/>
            <path fill="#FFF" d="M215.106 65.578h-84.397c-7.76 0-14.05-6.29-14.05-14.05v-25.65c0-7.76 6.29-14.05 14.05-14.05h84.397c7.76 0 14.05 6.29 14.05 14.05v25.65c0 7.76-6.29 14.05-14.05 14.05" transform="translate(0 65) translate(122 214.454)"/>
            <path fill="#FFBC3F" d="M198.592 45.755L200.246 49.191 204.024 49.701 201.268 52.336 201.949 56.087 198.592 54.28 195.235 56.087 195.916 52.336 193.16 49.701 196.938 49.191z" transform="translate(0 65) translate(122 214.454)"/>
            <path fill="#FFF4DD" d="M159.435 36.194c0-8.771-7.11-15.882-15.882-15.882-8.771 0-15.882 7.11-15.882 15.882 0 8.77 7.11 15.882 15.882 15.882 8.772 0 15.882-7.111 15.882-15.882" transform="translate(0 65) translate(122 214.454)"/>
        </g>
        <g transform="translate(0 65) translate(249 234.454)">
            <mask id="prefix__i" fill="#fff">
                <use xlink:href="#prefix__h"/>
            </mask>
            <path fill="#FFDDCF" d="M33.179 34.373s-4.523-.783-9.788-6.421c-5.264-5.64-4.915-9.4-3.288-9.728 1.627-.328 2.957-1.58 12.729 11.89 0 0 5.025-4.896 12.464-8.905l.969.19S37.47 33.763 33.179 34.373" mask="url(#prefix__i)"/>
            <mask id="prefix__k" fill="#fff">
                <use xlink:href="#prefix__j"/>
            </mask>
            <path fill="#FB9C98" d="M45.676 21.721l.984-.539s.475-.134.906-.598c.083-.089.714-.763.68-1.745-.016-.44-.17-1.068-.44-1.108-.262-.04-.544.334-.726.583-.362.497-.497 1.011-.552 1.36-.542.403-.69 1.132-1.232 1.534l.38.513z" mask="url(#prefix__k)"/>
            <mask id="prefix__m" fill="#fff">
                <use xlink:href="#prefix__l"/>
            </mask>
            <path fill="#FB9C98" d="M45.898 20.467c-.125-1.38-.009-1.725.13-1.763.193-.052.645.416.583.965-.044.385-.33.705-.712.798" mask="url(#prefix__m)"/>
            <mask id="prefix__o" fill="#fff">
                <use xlink:href="#prefix__n"/>
            </mask>
            <path fill="#57575E" d="M20.026 8.29c-1.672-1.851-5.479-2.088-7.332-.504-1.444 1.234-.62 2.65-1.957 4.072-2.424 2.577-6.915-.178-9.045 1.99-1.71 1.742-1.208 5.955.858 8.076 3.348 3.44 11.034 1.627 14.938-2.552 2.787-2.98 4.883-8.486 2.538-11.082" mask="url(#prefix__o)"/>
            <mask id="prefix__q" fill="#fff">
                <use xlink:href="#prefix__p"/>
            </mask>
            <path fill="#FFDDCF" d="M14.125 19.537c-.234-.9-1.3-1.274-2.068-.752-.261.178-.52.366-.777.564-4.673 3.58-6.612 8.866-7.45 12.763-.387 1.807.455 3.655 2.082 4.53 1.01.543 2.064 1.084 3.156 1.617 3.017 1.471 6.988 3.202 9.672 4.18.318-.43-.697-.876-.378-1.306-1.602-1.392-3.463-2.884-5.403-4.327-1.95-1.453-3.844-2.74-5.646-3.878 1.612-2.374 2.833-4.134 3.513-5.111 0 0 3.878-4.837 3.403-7.791-.028-.17-.063-.334-.104-.49" mask="url(#prefix__q)"/>
            <g>
                <mask id="prefix__s" fill="#fff">
                    <use xlink:href="#prefix__r"/>
                </mask>
                <path fill="#FFC581" d="M19.055 18.939L15.155 18.918 15.53 13.323 18.648 13.323z" mask="url(#prefix__s)"/>
            </g>
            <g>
                <mask id="prefix__u" fill="#fff">
                    <use xlink:href="#prefix__t"/>
                </mask>
                <path fill="#FFC581" d="M19.042 9.555c.737.81.646 2.145.66 3.162.017 1.241-.639 2.917-2.064 3.088-1.419.17-3.084-1.669-3.125-3.544-.034-1.54 1.016-3.275 2.434-3.463.737-.097 1.571.182 2.095.757" mask="url(#prefix__u)"/>
            </g>
            <g>
                <mask id="prefix__w" fill="#fff">
                    <use xlink:href="#prefix__v"/>
                </mask>
                <path fill="#57575E" d="M19.702 9.157c-.286-.38-.823-.967-1.67-1.293-.107-.041-.216-.076-.326-.106 0-.004-.003-.01-.004-.013l-.02.005c-1.338-.365-2.836-.01-2.932.492-.043.224.19.5.555.756-.258.229-.51.499-.746.815-1.024 1.383-1.076 2.825-1.073 3.3 1.966.08 3.69-.95 4.295-2.505l.004-.01c.194-.502.59-.901 1.101-1.073.368-.124.65-.273.816-.368" mask="url(#prefix__w)"/>
            </g>
            <g>
                <mask id="prefix__y" fill="#fff">
                    <use xlink:href="#prefix__x"/>
                </mask>
                <path fill="#FFDDCF" d="M25.216 29.703c.297-2.245.024-10.316-3.996-11.65-.253-.07-.509-.125-.768-.166-.264-.03-.529-.058-.797-.087-.327-.018-.657-.017-.986.005-2.489.163-4.513.439-6.104.733-2.544.473-3.453 5.616-2.854 7.988l1.138 6.393c.333 1.34.201 1.88-.242 3.186-.206.607-.939 1.599-.939 1.599 8.242.47 16.506-1.236 16.506-1.236s-1.273-4.386-.958-6.766" mask="url(#prefix__y)"/>
            </g>
            <g>
                <mask id="prefix__A" fill="#fff">
                    <use xlink:href="#prefix__z"/>
                </mask>
                <path fill="#F9E0D2" d="M25.216 29.703c.297-2.245.024-10.316-3.996-11.65-.253-.07-.509-.125-.768-.166l-.132-.015.064.053c5.5 4.459 3.54 12.808 3.307 14.534-.22 1.627.266 4.105.323 4.39 1.356-.214 2.16-.38 2.16-.38s-1.273-4.386-.958-6.767" mask="url(#prefix__A)"/>
            </g>
            <g>
                <mask id="prefix__C" fill="#fff">
                    <use xlink:href="#prefix__B"/>
                </mask>
                <path fill="#F26D6D" d="M32.664 31.592l-.05-.856c-.013-.217-.026-.436-.049-.654l.335-.036c.024.224.038.447.051.671l.05.855-.337.02z" mask="url(#prefix__C)"/>
            </g>
            <g>
                <mask id="prefix__E" fill="#fff">
                    <use xlink:href="#prefix__D"/>
                </mask>
                <path fill="#F26D6D" d="M6.71 33.684l-.313-.125c.072-.181.16-.367.31-.512.117-.112.242-.152.354-.187.05-.016.103-.031.154-.057l.15.302c-.067.034-.136.056-.203.077-.09.028-.16.051-.221.108-.11.106-.176.259-.231.394" mask="url(#prefix__E)"/>
            </g>
            <g>
                <mask id="prefix__G" fill="#fff">
                    <use xlink:href="#prefix__F"/>
                </mask>
                <path fill="#FFC581" d="M15.466 12.891c0-.413-.334-.747-.747-.747s-.748.334-.748.747.335.747.748.747.747-.334.747-.747" mask="url(#prefix__G)"/>
            </g>
            <g>
                <mask id="prefix__I" fill="#fff">
                    <use xlink:href="#prefix__H"/>
                </mask>
                <path fill="#FFC581" d="M15.871 20.882c1.833.41 3.933-.853 4.58-2.996-.585-.095-1.185-.12-1.782-.08-2.207.143-4.048.377-5.547.634.426 1.045 1.445 2.15 2.75 2.442" mask="url(#prefix__I)"/>
            </g>
            <g>
                <mask id="prefix__K" fill="#fff">
                    <use xlink:href="#prefix__J"/>
                </mask>
                <path fill="#653087" d="M46.526 20.646c0-.095-.077-.171-.17-.171-.096 0-.172.076-.172.17 0 .095.077.17.172.17.093 0 .17-.075.17-.17" mask="url(#prefix__K)"/>
            </g>
        </g>
        <g>
            <path fill="#FFBC3F" d="M247.775 96.165h-20.091c-.163 0-.296-.21-.296-.467s.132-.465.296-.465h20.091c.163 0 .296.207.296.465s-.132.467-.296.467M247.775 101.599h-27.072c-.162 0-.296-.209-.296-.466 0-.258.133-.466.296-.466h27.072c.163 0 .296.208.296.466 0 .257-.132.466-.296.466M225.84 113.755L227.494 117.191 231.272 117.701 228.516 120.336 229.197 124.087 225.84 122.28 222.483 124.087 223.164 120.336 220.408 117.701 224.186 117.191zM238.716 113.755L240.369 117.191 244.148 117.701 241.392 120.336 242.073 124.087 238.716 122.28 235.359 124.087 236.04 120.336 233.283 117.701 237.062 117.191zM264.469 113.755L266.123 117.191 269.901 117.701 267.145 120.336 267.826 124.087 264.469 122.28 261.112 124.087 261.793 120.336 259.037 117.701 262.815 117.191zM256.883 104.428L268.965 104.428 268.965 92.347 256.883 92.347z" transform="translate(0 65) translate(69 146.454)"/>
            <path fill="#FFF" d="M261.449 101.597l-2.525-2.525c-.216-.216-.216-.566 0-.782.215-.214.565-.214.78 0l1.745 1.745 4.695-4.695c.215-.216.565-.216.78 0 .216.216.216.566 0 .781l-5.475 5.476z" transform="translate(0 65) translate(69 146.454)"/>
            <path fill="#FFA331" d="M68.785 43.19c5.87-2.495 12.68-.87 16.79 4.008 5.044 5.984 11.287 13.71 13.286 17.547 0 0 18.457 8.608 25.922 11.964l-2.078 3.623s-22.988-5.625-30.57-8.982c-7.58-3.356-23.35-28.16-23.35-28.16" transform="translate(0 65) translate(69 146.454)"/>
            <path fill="#F6A19E" d="M12.131 252.818L11.84 253.683 13.798 255.728 15.872 254.817 16.638 253.683 16.861 252.79zM81.756 252.786L81.638 253.683 82.583 255.238 85.36 254.976 86.189 254.469 86.436 253.683 86.429 252.544z" transform="translate(0 65) translate(69 146.454)"/>
            <path fill="#47B27C" d="M55.025 104.309c.7-.104 1.107-1.82.843-3.199-.397-2.078-2.254-3.186-2.568-3.366-.279.564-.717 1.674-.521 3.059.248 1.753 1.467 3.622 2.246 3.506" transform="translate(0 65) translate(69 146.454)"/>
            <path fill="#47B27C" d="M55.108 103.34c-.194.681 1.202 1.76 2.567 2.088 2.056.494 3.83-.74 4.126-.952-.4-.487-1.232-1.344-2.573-1.737-1.7-.496-3.906-.157-4.12.601" transform="translate(0 65) translate(69 146.454)"/>
            <path fill="#47B27C" d="M56.056 102.503c.429.562 2.128.091 3.209-.806 1.627-1.35 1.7-3.512 1.708-3.875-.63.03-1.813.181-2.931 1.022-1.416 1.063-2.464 3.033-1.986 3.66" transform="translate(0 65) translate(69 146.454)"/>
            <path fill="#57575E" d="M52.763 29.769c-2.305 0-4.174-1.868-4.174-4.174v-2.46h4.174v6.634z" transform="translate(0 65) translate(69 146.454)"/>
            <path fill="#A29C8F" d="M43.127 95.476s-11.788 15.098-31.762 157.342l5.971-.031L64.39 121.932V95.476H43.127z" transform="translate(0 65) translate(69 146.454)"/>
            <path fill="#A29C8F" d="M78.662 87.373s14.227 11.19 14.16 41.233c-.032 13.456-6.393 123.938-6.393 123.938l-4.673.242c-8.287-42.064-14.283-83.403-21.128-126.185-.98-.14-5.999-.505-6.869-1.528-1.907-2.243-.046-6.15-.086-7.87-.16-6.88-.205-22.615.241-28.415 5.506.457 19.576-.91 24.748-1.415" transform="translate(0 65) translate(69 146.454)"/>
            <path fill="#7F786A" d="M86.43 252.544s6.36-110.48 6.391-123.938c.068-30.043-14.159-41.233-14.159-41.233-1.2.141-2.425.272-3.668.395l-3.347 2.134s10.064 58.873 9.822 94.077c-.135 19.561-.119 46.692-.078 66.941l.365 1.866 4.673-.242z" transform="translate(0 65) translate(69 146.454)"/>
            <path fill="#FFBF4D" d="M81.056 95.986c1.95-.476 3.298-2.254 3.214-4.26-.424-10.133-1.725-21.64-4.595-34.071-1.266-5.483-2.717-10.624-4.267-15.408l-18.35-4.06-14.195 5.56c-1.031 8.109-1.754 17.277-1.817 27.333-.057 9.119.437 17.509 1.22 25.036.08.764.666 1.379 1.426 1.496 4.88.75 10.696 1.26 17.237 1.08 7.789-.215 14.586-1.353 20.127-2.706" transform="translate(0 65) translate(69 146.454)"/>
            <path fill="#FFA331" d="M82.695 95.57c.992-.26 1.67-1.17 1.636-2.194-.348-10.527-1.63-22.611-4.657-35.721-1.266-5.483-2.232-10.71-3.783-15.494-3.921-.867-8.326-1.65-12.247-2.516-1.282.202-4.87-2.191-5.901-.68-1.357 1.989 1.157 7.574 1.39 8.434 1.323 4.867 4.87 23.988 9.706 50.744 5.257-.583 9.915-1.537 13.856-2.572" transform="translate(0 65) translate(69 146.454)"/>
            <path fill="#FFE2B7" d="M51.021 29.233L52.327 40.041 57.219 42.271 61.056 39.072 59.565 27.552z" transform="translate(0 65) translate(69 146.454)"/>
            <path fill="#FFC581" d="M59.565 27.552l-8.544 1.681.093.78c.897 3.697 4.59 7.126 8.108 6.364.508-.11.977-.302 1.413-.557l-1.07-8.268z" transform="translate(0 65) translate(69 146.454)"/>
            <path fill="#FFE2B7" d="M58.532 19.133c.316.183 2.72 1.622 3.576 4.447 1.135 3.753-.703 9.15-4.529 9.978-3.66.792-7.51-2.95-8.203-6.813-.613-3.423 1.126-7.658 4.221-8.569 2.176-.64 4.283.58 4.935.957" transform="translate(0 65) translate(69 146.454)"/>
            <path fill="#57575E" d="M62.074 15.619c.9 1.728-2.91 5.188-3.288 5.525-3.25 2.908-8.533 4.746-10.07 3.036-1.132-1.257-.09-4.264 1.28-6.047 3.334-4.335 11.017-4.55 12.078-2.514" transform="translate(0 65) translate(69 146.454)"/>
            <path fill="#FFE2B7" d="M48.33 26.407c-.186-.982.46-1.93 1.443-2.116.983-.186 1.93.46 2.116 1.443.186.983-.46 1.93-1.443 2.116-.983.186-1.93-.461-2.116-1.443" transform="translate(0 65) translate(69 146.454)"/>
            <path fill="#FFBF4D" d="M44.09 93.615c1.154.868 2.173 1.609 2.995 2.197l.395.282c1.132.803 1.8 1.25 1.8 1.25l.277-1.584.555-3.171s-5.689-8.707-11.182-15.813l-.383-.493c-.51-.653-1.017-1.291-1.517-1.904-.955-1.173-1.882-2.256-2.748-3.195-2.19.37-4.463.98-6.769 1.599-1.349.362-2.615.77-3.798 1.199 4.328 6.459 12.065 13.172 17.9 17.736.873.683 1.703 1.318 2.474 1.897" transform="translate(0 65) translate(69 146.454)"/>
            <path fill="#FFE2B7" d="M122.706 80.332l2.617 1.175c.382.502 1.098 1.31 2.238 1.91.54.284 2.83 1.489 4.627.44 1.265-.737 2.074-2.47 1.61-3.106-.154-.213-.437-.284-.696-.303l-8.318-3.74-2.078 3.624z" transform="translate(0 65) translate(69 146.454)"/>
            <path fill="#FFBF4D" d="M34.465 59.077c-1.797-2.086-3.624-4.21-5.12-6.455-3.64 2.992-6.74 6.324-8.307 9.798-1.516 3.363-.083 7.504 2.798 11.745 3.64.039 7.688-.9 11.11-2.246-1.202-1.354-2.309-2.47-3.24-3.206 0 0 3-2.436 6.556-5.698-1.548-1.436-2.804-2.785-3.797-3.938" transform="translate(0 65) translate(69 146.454)"/>
            <path fill="#7F786A" d="M81.639 253.683s-2.312 2.225 0 4.536h9.998v-4.536h-5.2s-2.384 1.396-4.798 0" transform="translate(0 65) translate(69 146.454)"/>
            <path fill="#57575E" d="M87.735 258.22h7.803v-.636c0-2.154-1.747-3.9-3.902-3.9-2.154 0-3.9 1.746-3.9 3.9v.635z" transform="translate(0 65) translate(69 146.454)"/>
            <path fill="#57575E" d="M81.232 258.946L95.873 258.946 95.873 258.219 81.232 258.219z" transform="translate(0 65) translate(69 146.454)"/>
            <path fill="#7F786A" d="M16.638 253.683s2.312 2.225 0 4.536H4.827l.424-4.536h6.589s2.384 1.396 4.798 0" transform="translate(0 65) translate(69 146.454)"/>
            <path fill="#57575E" d="M.916 258.946L17.045 258.946 17.045 258.219.916 258.219zM5.251 253.683c-2.155 0-3.901 1.746-3.901 3.901v.635h3.901v-4.536z" transform="translate(0 65) translate(69 146.454)"/>
            <path fill="#FFBF4D" d="M38.262 63.014c4.63-4.247 10.204-9.896 11.333-13.396 1.998-6.19-2.4-7.458-2.4-7.458s-9.46 2.172-17.85 10.461c1.496 2.247 3.323 4.37 5.12 6.455.993 1.154 2.25 2.502 3.797 3.938" transform="translate(0 65) translate(69 146.454)"/>
            <path fill="#FFE2B7" d="M51.948 94.181c3.753.078 4.644.491 4.705.878.084.533-1.314 1.61-2.773 1.276-1.021-.233-1.798-1.095-1.932-2.154" transform="translate(0 65) translate(69 146.454)"/>
            <path fill="#57575E" d="M57.343 42.271L59.271 43.999 58.513 46.884 56.201 44.919zM58.514 46.884s9.379 12.056 2.12 26.874L55.829 64.7l2.686-17.815z" transform="translate(0 65) translate(69 146.454)"/>
            <path fill="#F7E8C8" d="M150.518 100.745c-15.124-8.855-20.206-28.291-11.352-43.415 8.853-15.123 28.29-20.206 43.415-11.352 15.123 8.853 20.206 28.29 11.352 43.414-8.854 15.124-28.291 20.207-43.415 11.353" transform="translate(0 65) translate(69 146.454)"/>
            <path fill="#FFF4DD" d="M139.166 57.33c-8.854 15.124-3.771 34.561 11.352 43.416 2.468 1.444 5.052 2.516 7.685 3.235l6.606-62.303c-10.266.573-20.06 6.114-25.643 15.653M184.948 99.223l5.014-47.29c-2.096-2.288-4.564-4.306-7.382-5.955-2.637-1.544-5.407-2.663-8.228-3.38l-6.624 62.476c6.152-.235 12.158-2.254 17.22-5.85" transform="translate(0 65) translate(69 146.454)"/>
            <path fill="#57575E" d="M192.782 88.72c8.468-14.466 3.589-33.123-10.875-41.592-14.465-8.468-33.123-3.589-41.59 10.876-8.47 14.465-3.59 33.122 10.875 41.59 14.465 8.468 33.122 3.59 41.59-10.875m-54.767-32.063c9.21-15.733 29.505-21.04 45.239-11.829 15.734 9.211 21.04 29.505 11.83 45.24-9.212 15.733-29.506 21.04-45.24 11.83-15.733-9.212-21.04-29.507-11.83-45.24" transform="translate(0 65) translate(69 146.454)"/>
            <path fill="#57575E" d="M137.308 81.788L47.713 104.83c-.3-.115-2.278-.921-3.065-3.122-.682-1.906 0-3.545.158-3.9l91.448-19.596c.088 1.195.967 2.383 1.054 3.578" transform="translate(0 65) translate(69 146.454)"/>
            <path fill="#FFE2B7" d="M47.1 95.48l2.18 1.865c.226.588.686 1.566 1.612 2.46.438.427 2.297 2.227 4.315 1.726 1.422-.354 2.685-1.788 2.42-2.53-.089-.246-.34-.394-.584-.486l-6.93-5.927L47.1 95.48zM127.032 77.8s1.98-.642 2.307-.55c.327.09 1.92 1.42 1.68 2.588-.243 1.17-2.1-1.234-2.1-1.234l-1.887-.805z" transform="translate(0 65) translate(69 146.454)"/>
            <path fill="#FDC854" d="M394.886 220.466h54.075c2.487 0 4.504 2.016 4.504 4.503v.005c0 2.487-2.017 4.504-4.504 4.504h-54.075c-2.487 0-4.504-2.017-4.504-4.504v-.004c0-2.488 2.017-4.504 4.504-4.504" transform="translate(0 65) translate(69 146.454)"/>
            <path fill="#F89F4F" d="M390.382 227.754c0 .952.77 1.724 1.723 1.724h59.636c.952 0 1.724-.772 1.724-1.724v-.928h-63.083v.928z" transform="translate(0 65) translate(69 146.454)"/>
            <path fill="#FDC854" d="M394.886 193.43h54.075c2.487 0 4.504 2.017 4.504 4.504v.005c0 2.487-2.017 4.503-4.504 4.503h-54.075c-2.487 0-4.504-2.016-4.504-4.503v-.005c0-2.487 2.017-4.504 4.504-4.504" transform="translate(0 65) translate(69 146.454)"/>
            <path fill="#F89F4F" d="M390.382 200.72c0 .951.77 1.722 1.723 1.722h59.636c.952 0 1.724-.77 1.724-1.723v-.928h-63.083v.928z" transform="translate(0 65) translate(69 146.454)"/>
            <path fill="#FFAC34" d="M496.755 249.7c12.878-10.498 14.808-29.45 4.31-42.327-10.498-12.878-29.449-14.808-42.327-4.31-12.879 10.498-14.808 29.449-4.31 42.327 10.498 12.878 29.45 14.808 42.327 4.31" transform="translate(0 65) translate(69 146.454)"/>
            <path fill="#FFBC3F" d="M492.483 244.457c9.983-8.139 11.478-22.828 3.34-32.813-8.137-9.983-22.828-11.478-32.811-3.339-9.985 8.137-11.48 22.828-3.342 32.811 8.138 9.984 22.83 11.48 32.813 3.341" transform="translate(0 65) translate(69 146.454)"/>
            <path fill="#FFA331" d="M487.212 222.568c.584.355 1.415.058 1.853-.664.438-.723.319-1.596-.267-1.951l-6.356-3.857-4.236-2.571c-.584-.355-1.415-.058-1.853.665-.438.722-.319 1.595.265 1.95l4.238 2.572c1.379.836 1.88 2.639 1.396 4.424l-7.22-4.381c-.584-.355-1.414-.057-1.852.666-.44.72-.32 1.594.264 1.95l7.22 4.38c-1.36 1.254-3.19 1.643-4.57.806l-4.236-2.571c-.139-.084-.296-.134-.466-.147-.339-.023-.7.105-1.003.36-.303.255-.522.615-.606 1-.047.194-.055.386-.029.566l2.125 15.6c.053.383.246.675.517.84.272.164.62.2.982.073.723-.26 1.226-1.09 1.123-1.85l-1.673-12.275 1.68 1.019c2.559 1.553 6.062.6 8.363-2.082l1.167.708c.584.356 1.414.058 1.852-.664.439-.722.32-1.595-.265-1.951l-1.168-.708c.432-1.07.613-2.161.608-3.21l2.147 1.303z" transform="translate(0 65) translate(69 146.454)"/>
            <path fill="#FDC854" d="M398.34 247.501h54.076c2.487 0 4.504 2.017 4.504 4.504v.004c0 2.487-2.017 4.504-4.504 4.504H398.34c-2.488 0-4.504-2.017-4.504-4.504v-.004c0-2.487 2.016-4.504 4.504-4.504" transform="translate(0 65) translate(69 146.454)"/>
            <path fill="#F89F4F" d="M393.837 254.79c0 .951.771 1.723 1.723 1.723h59.636c.952 0 1.724-.772 1.724-1.723v-.928h-63.083v.928z" transform="translate(0 65) translate(69 146.454)"/>
            <path fill="#FDC854" d="M398.34 238.49h54.076c2.487 0 4.504 2.017 4.504 4.504v.004c0 2.487-2.017 4.504-4.504 4.504H398.34c-2.488 0-4.504-2.017-4.504-4.504v-.004c0-2.487 2.016-4.504 4.504-4.504" transform="translate(0 65) translate(69 146.454)"/>
            <path fill="#F89F4F" d="M393.837 245.779c0 .95.771 1.723 1.723 1.723h59.636c.952 0 1.724-.772 1.724-1.723v-.928h-63.083v.928z" transform="translate(0 65) translate(69 146.454)"/>
            <path fill="#FDC854" d="M398.34 229.478h54.076c2.487 0 4.504 2.016 4.504 4.504v.004c0 2.487-2.017 4.504-4.504 4.504H398.34c-2.488 0-4.504-2.017-4.504-4.504v-.004c0-2.488 2.016-4.504 4.504-4.504" transform="translate(0 65) translate(69 146.454)"/>
            <path fill="#F89F4F" d="M393.837 236.767c0 .951.771 1.723 1.723 1.723h59.636c.952 0 1.724-.772 1.724-1.723v-.928h-63.083v.928z" transform="translate(0 65) translate(69 146.454)"/>
            <path fill="#FDC854" d="M398.34 211.453h54.076c2.487 0 4.504 2.017 4.504 4.505v.005c0 2.487-2.017 4.504-4.504 4.504H398.34c-2.488 0-4.504-2.018-4.504-4.505v-.004c0-2.488 2.016-4.505 4.504-4.505" transform="translate(0 65) translate(69 146.454)"/>
            <path fill="#F89F4F" d="M393.837 218.743c0 .952.771 1.724 1.723 1.724h59.636c.952 0 1.724-.772 1.724-1.724v-.928h-63.083v.928z" transform="translate(0 65) translate(69 146.454)"/>
            <path fill="#FDC854" d="M395.975 202.442h54.075c2.488 0 4.504 2.017 4.504 4.504v.005c0 2.487-2.016 4.503-4.504 4.503h-54.075c-2.487 0-4.504-2.016-4.504-4.503v-.005c0-2.487 2.017-4.504 4.504-4.504" transform="translate(0 65) translate(69 146.454)"/>
            <path fill="#F89F4F" d="M391.471 209.73c0 .953.771 1.724 1.723 1.724h59.637c.952 0 1.723-.771 1.723-1.723v-.928h-63.083v.928z" transform="translate(0 65) translate(69 146.454)"/>
            <path fill="#FDC854" d="M397.203 184.418h54.075c2.488 0 4.504 2.017 4.504 4.504v.004c0 2.487-2.016 4.504-4.504 4.504h-54.075c-2.487 0-4.503-2.016-4.503-4.504v-.004c0-2.487 2.016-4.504 4.503-4.504" transform="translate(0 65) translate(69 146.454)"/>
            <path fill="#F89F4F" d="M392.7 191.707c0 .951.77 1.723 1.723 1.723h59.636c.952 0 1.724-.772 1.724-1.723v-.928H392.7v.928z" transform="translate(0 65) translate(69 146.454)"/>
            <path fill="#FDC854" d="M398.13 175.407h54.075c2.488 0 4.504 2.017 4.504 4.504v.004c0 2.487-2.016 4.504-4.504 4.504H398.13c-2.487 0-4.504-2.017-4.504-4.504v-.004c0-2.487 2.017-4.504 4.504-4.504" transform="translate(0 65) translate(69 146.454)"/>
            <path fill="#F89F4F" d="M393.626 182.696c0 .95.771 1.723 1.723 1.723h59.637c.952 0 1.723-.772 1.723-1.723v-.928h-63.083v.928z" transform="translate(0 65) translate(69 146.454)"/>
            <path fill="#FFE2B7" d="M349.681 251.29L355.82 251.29 355.82 249.796 349.681 249.796z" transform="translate(0 65) translate(69 146.454)"/>
            <path fill="#7F786A" d="M355.793 249.796s2.663 2.563 0 5.225h-15.846c-.075-.314-.411-1.853.507-3.373.741-1.227 1.856-1.71 2.224-1.852h7.59s2.746 1.607 5.526 0" transform="translate(0 65) translate(69 146.454)"/>
            <path fill="#57575E" d="M337.684 256.481L356.263 256.481 356.263 255.021 337.684 255.021zM342.677 249.796c-2.482 0-4.494 2.012-4.494 4.493v.732h2.427c-.05-.545-.057-1.39.234-2.359.455-1.513 1.376-2.457 1.833-2.866" transform="translate(0 65) translate(69 146.454)"/>
            <path fill="#FFE2B7" d="M350.897 246.991L351.072 250.029 355.17 249.951 355.423 246.814z" transform="translate(0 65) translate(69 146.454)"/>
            <path fill="#A29C8F" d="M350.48 248.15h5.474l23.07-122.483-.827-34.13-18.54-4.778s-11.179 19.479-10.935 42.265c.108 10.055 1.443 98.356 1.757 119.127" transform="translate(0 65) translate(69 146.454)"/>
            <path fill="#57575E" d="M408.857 256.474L420.958 256.474 420.958 255.021 408.857 255.021z" transform="translate(0 65) translate(69 146.454)"/>
            <path fill="#FFE2B7" d="M411.078 247.009L411.724 250.029 415.821 249.95 415.625 246.814z" transform="translate(0 65) translate(69 146.454)"/>
            <path fill="#7F786A" d="M416.661 249.796c1.353 0 2.643.664 3.354 1.815l.022.037c.92 1.52.583 3.06.507 3.373h-10.357c-1.38-1.38-1.33-2.737-.96-3.72.342-.908 1.215-1.505 2.185-1.505h5.25z" transform="translate(0 65) translate(69 146.454)"/>
            <path fill="#A29C8F" d="M416.42 248.15c-.564-20.031-3.257-115.428-3.719-127.582-.558-14.67-8.427-29.19-8.427-29.19-5.228.51-23.257.462-28.822 0-.452 5.863 1.341 16.71 1.505 23.664.142 6.092 1.48 5.405 2.067 10.625l31.759 122.484h5.637z" transform="translate(0 65) translate(69 146.454)"/>
            <path fill="#7F786A" d="M416.42 248.15c-.564-20.031-3.257-115.428-3.719-127.582-.558-14.67-8.427-29.19-8.427-29.19-2.598.254-8.356.37-14.176.365l-1.548.704s8.762 17.007 10.35 29.587c1.194 9.457 10.555 87.81 15.127 126.117h2.394z" transform="translate(0 65) translate(69 146.454)"/>
            <path fill="#57575E" d="M346.178 252.838L344.376 251.037 345.886 249.527 347.687 251.328z" transform="translate(0 65) translate(69 146.454)"/>
            <path fill="#57575E" d="M348.298 252.838L346.496 251.037 348.006 249.527 349.808 251.328z" transform="translate(0 65) translate(69 146.454)"/>
            <path fill="#FFE2B7" d="M320.06 54.972l-3.388.147s-3.988 2.94-9.04-.589c-5.051-3.53.96-3.978.96-3.978l10.77-.468.699 4.888z" transform="translate(0 65) translate(69 146.454)"/>
            <path fill="#FFE2B7" d="M314.01 51.205c-2.765-3.474-3.792-4.012-4.2-3.792-.56.303-.57 2.39.79 3.52.952.792 2.319.904 3.41.272" transform="translate(0 65) translate(69 146.454)"/>
            <path fill="#FFBF4D" d="M368.39 29.644s-11.528 6.734-20.522 12.805c-5.985 4.038-13.105 6.018-20.32 5.728-.944-.038-1.906-.064-2.883-.077-9.054-.118-7.645.699-14.036 2.035l-1.265 5.059s30.532 6.932 52.898-3.077c22.365-10.01 6.129-22.473 6.129-22.473" transform="translate(0 65) translate(69 146.454)"/>
            <path fill="#FFA331" d="M361.714 89.456c-2.169-.544-3.658-2.534-3.55-4.769.542-11.282 2.07-24.09 5.352-37.917 1.448-6.099 3.1-11.815 4.86-17.132l20.464-4.396 15.773 6.29c1.094 9.04 1.836 19.256 1.837 30.457.001 10.157-.608 19.498-1.533 27.878-.094.85-.75 1.53-1.597 1.655-5.44.803-11.922 1.331-19.206 1.085-8.674-.293-16.237-1.606-22.4-3.151" transform="translate(0 65) translate(69 146.454)"/>
            <path fill="#FFBF4D" d="M361.714 89.456c-2.169-.544-3.658-2.534-3.55-4.769.542-11.282 3.046-24.036 6.33-37.862 1.447-6.099 3.668-12.202 5.428-17.52l18.918-4.063 15.773 6.29c1.094 9.04 1.836 19.256 1.837 30.457.001 10.157-.608 19.498-1.533 27.878-.094.85-.75 1.53-1.597 1.655-5.44.803-11.922 1.331-19.206 1.085-8.674-.293-16.237-1.606-22.4-3.151" transform="translate(0 65) translate(69 146.454)"/>
            <path fill="#FFA331" d="M405.117 71.807c1.865-.765 3.52-1.339 4.812-1.619 0 0-9.575-20.694-8.54-27.866 1.034-7.171 3.225-10.79 3.225-10.79s19.545 22.594 19.068 37.587c-.13 4.107-3.593 7.547-8.553 10.377-3.659-1.744-7.248-4.667-10.012-7.689" transform="translate(0 65) translate(69 146.454)"/>
            <path fill="#FFA331" d="M403.32 91.523c.847-.125 1.503-.806 1.597-1.656.925-8.38 1.534-17.721 1.533-27.878 0-11.2-.743-21.417-1.837-30.457l-15.772-6.29-2.786.598c2.516 6.417 4.765 14.05 6.002 22.77 2.522 17.778-.154 33.084-3.446 44.054 5.472-.047 10.416-.508 14.71-1.141" transform="translate(0 65) translate(69 146.454)"/>
            <path fill="#FFA331" d="M385.34 89.03c-1.58.303-2.962.546-4.073.73-.185.032-.363.06-.532.089-1.527.249-2.415.37-2.415.37l.5-1.722.999-3.444s9.956-5.922 18.933-10.338l.624-.306c.83-.403 1.65-.793 2.45-1.162 1.53-.705 2.989-1.335 4.315-1.85 2.009 1.445 3.983 3.167 5.987 4.917 1.172 1.023 2.24 2.05 3.212 3.06-7.494 4.34-18.523 7.264-26.595 8.97-1.208.256-2.35.485-3.404.687" transform="translate(0 65) translate(69 146.454)"/>
            <path fill="#57575E" d="M387.062 33.267L391.583 59.513 386.708 77.691 378.219 60.254z" transform="translate(0 65) translate(69 146.454)"/>
            <path fill="#FFE2B7" d="M395.627 15.309L394.063 27.625 383.974 29.208 386.122 13.379z" transform="translate(0 65) translate(69 146.454)"/>
            <path fill="#FFC581" d="M386.122 13.38l9.505 1.93-.11.868c-1.023 4.112-5.16 7.905-9.074 7.032-.564-.125-1.087-.343-1.57-.63l1.25-9.2z" transform="translate(0 65) translate(69 146.454)"/>
            <path fill="#FFE2B7" d="M386.993 3.312c-2.851 1.557-3.475 4.633-3.676 5.626-.827 4.08.776 10.19 4.975 11.145 3.944.893 8.32-3.183 9.184-7.533.623-3.14-.385-7.43-3.764-9.228-1.913-1.02-4.528-1.207-6.72-.01" transform="translate(0 65) translate(69 146.454)"/>
            <path fill="#57575E" d="M395.757 11.628c.04.45.166 2.348-1.056 3.396-1.54 1.32-4.174.394-4.84.16-1.483-.522-1.688-1.127-2.74-1.243-1.52-.167-2.884.897-3.793 1.815-.046.852.01 2.43 1.033 3.684 1.965 2.406 6.216 2.05 8.809.498 3.44-2.06 4.994-6.85 3.853-8.007-.304-.308-.794-.352-1.266-.303M395.757 11.628c.082-.309.915-3.639-.825-5.605-.34-.383-1.474-1.648-2.78-1.507-.411.044-.622.204-3.341 2.04-.662.446-1.02.68-1.526.656-.766-.038-1.428-.652-1.735-1.247-.648-1.258.079-2.854.815-3.703 1.256-1.45 3.282-1.45 4.09-1.395 0 0 .149.01.293.027 2.847.337 6.504 3.702 6.96 7.047.103.748.013 1.257-.115 1.637-.401 1.194-1.416 1.821-1.836 2.05" transform="translate(0 65) translate(69 146.454)"/>
            <path fill="#FFE2B7" d="M399.373 11.78c.214-1.092-.5-2.151-1.593-2.365-1.093-.214-2.153.499-2.366 1.593-.214 1.092.5 2.152 1.592 2.366 1.094.214 2.153-.5 2.367-1.593" transform="translate(0 65) translate(69 146.454)"/>
            <path fill="#FFA331" d="M381.218 27.163c.67-.627 1.422-1.329 2.289-1.248.587.055.71.41 1.635.928.819.459 1.578.65 2.078.74.036.39.073 1.348-.457 2.384-.558 1.09-1.416 1.628-1.753 1.816-.77-.285-1.788-.755-2.85-1.543-.861-.638-1.504-1.306-1.966-1.86.205-.313.535-.76 1.024-1.216" transform="translate(0 65) translate(69 146.454)"/>
            <path fill="#FFA331" d="M395.134 27.12c-.41-.51-.85-.83-1.157-1.02-.367.005-.788.03-1.251.085-.657.082-1.153.2-1.503.286-1.628.401-3.638 1.003-4.003 1.113.132.628.35 1.399.722 2.238.32.726.68 1.326 1.01 1.805.812-.611 1.94-1.34 3.388-1.945 1.379-.58 2.63-.872 3.605-1.027-.111-.369-.338-.949-.811-1.536" transform="translate(0 65) translate(69 146.454)"/>
            <path fill="#57575E" d="M387.389 27.625L388.952 31.626 387.062 33.267 385.01 31.782z" transform="translate(0 65) translate(69 146.454)"/>
            <path fill="#FFE2B7" d="M377.439 86.026c-3.226-2.661-4.278-2.958-4.61-2.676-.458.389-.06 2.314 1.414 3.092 1.031.544 2.314.38 3.196-.416M306.045 51.183c.65-.275 1.998.885 2.37 2.266.541 2.001-1.094 3.98-1.844 3.846-1.148-.205-1.703-5.615-.526-6.112" transform="translate(0 65) translate(69 146.454)"/>
            <path fill="#FFE2B7" d="M381.45 89.761l-3.13.458c-.603.495-1.543 1.162-2.817 1.673-1.189.475-3.95 1.583-6.188.28-1.567-.91-2.648-2.873-2.16-3.608.521-.785 2.33.572 4.911-.237 1.627-.509 1.8-1.328 3.8-2.256 1.554-.722 2.99-.944 3.953-1.018.532 1.456 1.098 3.251 1.63 4.708" transform="translate(0 65) translate(69 146.454)"/>
            <path fill="#FFAC34" d="M377.526 64.667c-2.832-20.324-21.604-34.504-41.927-31.672-20.323 2.832-34.504 21.603-31.672 41.927 2.831 20.324 21.603 34.504 41.927 31.672 20.323-2.832 34.504-21.604 31.672-41.927" transform="translate(0 65) translate(69 146.454)"/>
            <path fill="#FFBC3F" d="M369.254 65.82c-2.195-15.755-16.747-26.747-32.502-24.553-15.755 2.196-26.748 16.747-24.552 32.503 2.195 15.755 16.746 26.747 32.502 24.553 15.755-2.196 26.747-16.748 24.552-32.503" transform="translate(0 65) translate(69 146.454)"/>
            <path fill="#FFA331" d="M342.766 57.359c.75-.391.967-1.457.485-2.383-.481-.925-1.48-1.358-2.23-.97l-8.144 4.24-5.43 2.826c-.75.39-.966 1.457-.485 2.382.482.926 1.48 1.359 2.23.969l5.429-2.826c1.768-.92 3.992-.292 5.567 1.363l-9.252 4.815c-.75.39-.967 1.457-.485 2.382.48.925 1.48 1.359 2.229.97l9.253-4.816c.45 2.239-.312 4.42-2.08 5.34l-5.43 2.826c-.175.093-.33.228-.451.398-.242.343-.34.806-.263 1.29.074.482.315.944.666 1.28.176.174.372.306.58.393l17.832 7.752c.437.19.87.174 1.218-.007.347-.181.609-.526.706-.99.189-.928-.363-1.991-1.233-2.37l-14.033-6.1 2.153-1.12c3.28-1.706 4.519-6.014 3.16-10.163l1.496-.78c.75-.39.967-1.456.486-2.381-.482-.924-1.48-1.36-2.23-.968l-1.495.778c-.853-1.141-1.89-2.032-3-2.7l2.75-1.43z" transform="translate(0 65) translate(69 146.454)"/>
        </g>
    </g>
</svg>
