<svg xmlns="http://www.w3.org/2000/svg" xmlns:xlink="http://www.w3.org/1999/xlink" width="263" height="297" viewBox="0 0 263 297">
    <defs>
        <path id="prefix__a" d="M49.325 1.148c-1.857.808-2.862 2.81-3.567 4.708-1.267 3.419-2.046 7.018-2.31 10.652-.065.896-.104 1.818-.48 2.633-.376.816-1.189 1.505-2.084 1.433-.766-.063-1.404-.673-1.704-1.38-.3-.708-.32-1.5-.292-2.268.205-5.56 2.827-10.988 7.053-14.605-1.804-1.08-4.051-1.39-6.08-.837-2.028.552-3.81 1.96-4.816 3.807-1.497 2.748-1.224 6.08-.909 9.196l.736 7.273c.092.913.134 1.968-.534 2.598-.61.573-1.621.531-2.333.09-.71-.44-1.17-1.192-1.516-1.955-1.35-2.985-1.276-6.457-.451-9.627.825-3.17 2.353-6.106 3.869-9.01-8.215 3.146-13.692 6.17-19.744 12.553l-2.236 2.296c.155 4.735 2.897 9.306 7.002 11.67.816.47 1.812 1.088 1.716 2.023-.067.667-.74 1.149-1.41 1.209-.67.059-1.323-.207-1.92-.516-4.67-2.415-7.521-7.938-6.785-13.143C4.512 25.39.866 33.368.692 41.48.64 43.847.88 46.26 1.8 48.44c.918 2.182 2.577 4.12 4.769 5.012 2.191.893 4.922.584 6.632-1.052.99-.95 1.581-2.246 2.526-3.24.946-.993 2.857-1.97 3.677-.872.41.55-.891 1.812-1.51 2.362-.231.208-.454.43-.647.672-1.96 2.463-2.236 4.938-1.542 8.13.732 3.37 3.832 8.368 6.136 10.933 2.352 2.617 7.125 4.116 9.76 4.3.602.041 1.185.062 1.748.063h.112c9.748-.02 13.856-5.798 13.856-5.798s-6.473-.493-10.004-5.186c-3.19-4.241-2.98-9.373-5.437-14.078-.372-.712-.753-1.455-.787-2.258-.035-.803.381-1.686 1.15-1.923.796-.246 1.66.292 2.086 1.008.425.718.526 1.572.662 2.395.807 4.859 3.254 9.43 6.851 12.794 2.438 2.28 5.556 4.058 8.894 4.06 2.557.003 5.025-1.04 7.123-2.499 2.1-1.46 3.877-3.326 5.64-5.178-8.262 1.59-17.272-1.591-22.703-8.015-1.015-1.2-1.959-2.65-1.608-4.262.23-1.054 1.12-1.903 2.197-1.822 1.082.08 1.637 1.03 2.161 1.867 3.627 5.79 10.171 9.644 16.994 10.01 1.914.102 3.938-.086 5.532-1.151 2.824-1.888 3.544-5.965 6.388-7.823-7.33 3.893-16.75 3.493-23.723-1.004-.79-.51-1.575-1.094-2.04-1.911-.467-.818-.54-1.925.052-2.656.723-.894 2.138-.893 3.166-.38 1.03.512 1.804 1.41 2.671 2.166 2.331 2.03 5.408 3.066 8.485 3.362 3.078.296 6.18-.1 9.225-.644 1.676-.3 3.525-.764 4.437-2.202.514-.808.636-1.797.745-2.748l1.435-12.484c-.543 1.82-6.16 5.952-10.005 6.689-2.194.42-6.679.183-8.813-.47-.73-.223-1.476-.453-2.095-.9-.618-.448-1.1-1.158-1.072-1.92.033-.827.662-1.54 1.407-1.896.747-.356 1.596-.421 2.422-.448 1.353-.042 2.708.002 4.063.046 2.17.07 4.337.141 6.485-.145 3.488-.462 7.09-2.107 8.677-5.248-2.741-5.195-4.082-11.119-3.842-16.986.071-1.75.246-3.64-.702-5.113l-.647 1.589c-1.054 1.728-3.402 2.597-5.3 1.848-1.438-.568-2.59-1.904-4.131-2.015-1.09-.077-2.142.506-2.888 1.304S59.234 6.518 58.754 7.5l-4.071 8.325c-.635 1.298-1.707 2.825-3.119 2.51-1.065-.239-1.597-1.437-1.798-2.511-.478-2.58.062-5.334 1.48-7.543 1.417-2.207 3.698-3.844 6.243-4.482-1.18-.938-2.38-1.884-3.769-2.472-.8-.34-1.676-.546-2.54-.546-.638 0-1.27.113-1.855.368M45.909 27.51c-.646-.427-.808-1.347-.579-2.088.23-.74.387-1.087.77-1.76.346-.604 1.497-2.067 1.497-2.067.39-.41.978-.68 1.525-.535.44.116.783.48.958.9.175.419.199.885.165 1.339-.102 1.352-.72 2.659-1.701 3.595-.354.336-.76.631-1.227.772-.18.055-.37.084-.557.084-.302 0-.6-.075-.85-.24m-7.092 3.02c-.458-.047-.845-.393-1.05-.805-.205-.413-.257-.883-.275-1.344-.058-1.434.181-2.88.697-4.22.229-.59.584-1.222 1.2-1.366.43-.1.894.082 1.213.39.318.308.51.724.64 1.15.405 1.345.114 2.807-.531 4.055-.172.334-.584 1.383-.584 1.383-.258.423-.714.762-1.203.762-.036 0-.07-.002-.107-.005m15.307-3.825c-.397-.224-.571-.74-.475-1.185.098-.445.424-.815.813-1.053.388-.24.837-.361 1.282-.455.276-.058.562-.106.84-.058.28.048.554.21.664.47.12.278.027.612-.16.848l-.189.273c-.392.486-.907.872-1.482 1.113-.24.102-.509.177-.768.177-.183 0-.363-.037-.525-.13m-29.42 8.538c-1.945-1.716-2.817-4.56-2.168-7.072.26-1.008.96-2.098 2.001-2.087.558.007 1.07.349 1.416.787.346.437.553.965.756 1.486l1.136 2.148c.52.943 1.052 1.928 1.121 3.003.07 1.076-.463 2.273-1.487 2.61-.2.065-.403.096-.607.096-.78 0-1.563-.438-2.167-.97m6.368-3.268c-.497-.364-.775-.97-.857-1.58-.081-.611.013-1.232.142-1.834.08-.374.175-.754.387-1.07.212-.32.563-.57.945-.564.408.005.77.302.96.663l.234.383c.386.75.581 1.597.565 2.442-.01.604-.165 1.262-.65 1.623-.227.167-.502.244-.782.244-.333 0-.674-.11-.944-.307m15.875 5.142c-1.033-.392-2.205-.934-2.46-2.008-.15-.63.08-1.313.517-1.79.437-.479 1.055-.764 1.69-.886 1.18-.23 2.363.225 3.39.854 1.49.915 1.993 2.43 1.993 2.43.023 1.057-1.016 1.888-2.062 2.02-.146.02-.291.028-.437.028-.897 0-1.783-.326-2.631-.648m-9.706 5.247c-.88-.313-1.672-.975-1.954-1.864-.31-.977.085-2.135.93-2.718.843-.583 1.994-.44 2.87.093.568.346 2.427 1.098 2.427 1.098.734.48 1.244 1.424.943 2.248-.34.927-1.467 1.264-2.45 1.366-.326.032-.655.054-.982.054-.608 0-1.213-.073-1.784-.277m-21.648.469c-.816-.214-1.616-.551-2.255-1.104-.638-.553-1.101-1.341-1.14-2.184-.072-1.585 6.975-2.442 8.587-1.407.468.3.864.712 1.14 1.196.014.022.026.044.039.068.696 1.246.049 2.845-1.31 3.281-.905.29-1.855.437-2.804.437-.76 0-1.521-.095-2.257-.287m10.053 15.352c-.737-.546-1.236-1.36-1.593-2.205-1.035-2.45-.977-5.335.154-7.74.224-.477.504-.953.951-1.231.448-.277 1.057-.25 1.45.101.958.855 2.188 5.288 2.188 5.288.5 1.061 1.007 2.16 1.047 3.33.038 1.173-.514 2.447-1.6 2.89-.273.112-.563.164-.855.164-.616 0-1.241-.227-1.742-.597"/>
        <path id="prefix__c" d="M19.689.38c-4.662 3.03-8.88 6.631-12.607 10.715-2.438 2.366-4.726 4.89-6.838 7.578-.312.398.288.91.603.51.184-.237.38-.46.567-.693.122.027.253 0 .359-.124.409-.486.834-.958 1.254-1.433.12.029.252 0 .35-.135.426-.574.87-1.132 1.313-1.692 4.674-4.982 9.933-9.358 15.714-13.042.427-.272-.024-.919-.451-.647-.172.11-.339.224-.51.334-.052-.058-.115-.105-.19-.126.295-.2.587-.404.888-.598.352-.23.102-.714-.236-.714-.07 0-.144.02-.216.068"/>
        <path id="prefix__e" d="M4.879.376C2.61.376.746 2.166.705 4.399.685 5.496 1.1 6.536 1.88 7.324c.772.784 1.812 1.227 2.925 1.248h.076c2.267 0 4.132-1.79 4.174-4.023.02-1.098-.397-2.136-1.175-2.925C7.106.84 6.068.397 4.955.376H4.88zm-.052 6.903c-.773-.013-1.492-.32-2.028-.863-.53-.539-.816-1.246-.802-1.993.028-1.53 1.316-2.755 2.882-2.755h.052c.773.015 1.493.32 2.029.864.53.539.815 1.246.802 1.993-.029 1.53-1.332 2.754-2.881 2.754h-.054z"/>
        <path id="prefix__h" d="M.083 5.527c-.054 2.933 2.263 5.351 5.174 5.405 2.91.054 5.312-2.28 5.365-5.212C10.676 2.788 8.36.368 5.45.314L5.352.313C2.485.313.135 2.627.082 5.527"/>
        <path id="prefix__k" d="M.938 2.935C.908 4.57 2.2 5.92 3.823 5.95c1.624.029 2.963-1.272 2.993-2.906C6.845 1.407 5.553.059 3.93.028L3.878.027c-1.6 0-2.911 1.29-2.94 2.908"/>
        <path id="prefix__p" d="M0.736 0.449L30.1 0.449 30.1 26.372 0.736 26.372z"/>
        <path id="prefix__r" d="M0.052 0.449L30.168 0.449 30.168 26.372 0.052 26.372z"/>
        <linearGradient id="prefix__f" x1=".002%" x2="99.996%" y1="50.001%" y2="50.001%">
            <stop offset="0%" stop-color="#FFB218"/>
            <stop offset="100%" stop-color="#FFCF44"/>
        </linearGradient>
        <linearGradient id="prefix__i" x1="-.002%" x2="100.005%" y1="50.005%" y2="50.005%">
            <stop offset="0%" stop-color="#FFB218"/>
            <stop offset="100%" stop-color="#FFCF44"/>
        </linearGradient>
        <linearGradient id="prefix__l" x1="-.003%" x2="99.998%" y1="50.005%" y2="50.005%">
            <stop offset="0%" stop-color="#FFB218"/>
            <stop offset="100%" stop-color="#FFCF44"/>
        </linearGradient>
        <linearGradient id="prefix__n" x1="-.009%" x2="99.996%" y1="49.998%" y2="49.998%">
            <stop offset="0%" stop-color="#FFB218"/>
            <stop offset="100%" stop-color="#FFCF44"/>
        </linearGradient>
        <linearGradient id="prefix__o" x1="-.006%" x2="99.995%" y1="49.998%" y2="49.998%">
            <stop offset="0%" stop-color="#FFB218"/>
            <stop offset="100%" stop-color="#FFCF44"/>
        </linearGradient>
    </defs>
    <g fill="none" fill-rule="evenodd">
        <g>
            <g>
                <path fill="#619440" d="M1.094 66.559c.588-2.604 2.107-11.283 4.613-12.206 2.733-1.006 6.111.286 7.477 2.857.589 1.11.849 2.424 1.98 3.17.631.416 1.5.422 2.02-.126.851-.896.044-2.26-.648-3.243-1.328-1.884-2.274-4.107-2.284-6.412-.01-2.305 1.028-4.679 2.965-5.927 1.939-1.246 4.774-1.103 6.337.59.978 1.058 1.39 2.558 2.668 3.386.664.43 1.535.517 2.177.056 1.296-.933.421-2.936-.458-4.262-1.24-1.872-2.332-3.91-2.658-6.133-.327-2.223.22-4.67 1.852-6.213 1.633-1.544 4.442-1.87 6.13-.387.675.595 1.124 1.404 1.755 2.047.756.77 1.978 1.304 2.903.485.641-.567.747-1.516.43-2.31-.441-1.102-1.33-1.768-2.212-2.445-1.392-1.069-2.353-2.638-2.557-4.38-.613-5.206 5.148-7.211 8.395-4.926.912.64 1.824 1.621 2.937 1.307.88-.249 1.362-1.173 1.266-2.082-.19-1.795-1.676-2.835-2.465-4.294-1.443-2.669.177-6.483 3.1-7.296 2.235-.622 2.815 2.273 3.827 4.806.233.582 1.089.459 1.155-.165.26-2.48 1.081-5.578 1.709-7.288 1.153-3.135 5.844-6.574 8.085-2.064.6 1.21.144 4.323-.63 5.184-1.094 1.218-3.7 5.405-3.7 5.405-.244.48.3.98.752.688 1.027-.66 2.13-1.179 3.396-1.293.58-.053 1.173.005 1.724.194 3.279 1.13 2.77 5.167.674 7.1-1.74 1.608-4.178 2.16-6.483 2.708-1.195.285-2.487.647-3.08 1.81-.337.658-.258 1.496.307 1.975.651.552 1.396.244 2.113.153 2.346-.3 4.476 2.036 4.455 4.401-.022 2.364-1.755 4.467-3.879 5.507-2.123 1.039-4.574 1.183-6.936 1.062-1.165-.06-2.42-.159-3.34.704-.544.509-.706 1.364-.25 1.953.649.838 1.859.462 2.871.406 2.812-.156 5.045 2.974 4.602 5.754-.443 2.78-2.895 4.916-5.582 5.758-3.027.949-6.32.546-9.43.11-.73-.103-1.482.292-1.708.994-.314.977.576 1.534 1.27 2.038 2.688 1.949 3.737 5.857 2.389 8.888-1.348 3.032-4.953 4.871-8.199 4.181-2.062-.437-3.941-1.765-6.177-1.092-1.106.333-1.902 1.391-1.691 2.527.267 1.434 1.875 1.842 3.077 2.514 3.336 1.862 3.896 6.896 1.705 10.025-2.193 3.13-9.232 3.227-13.045 2.986-3.813-.242-11.77-.576-15.843-3.17-1.919-1.22-.45-13.412.139-16.015" transform="translate(128.567 162.453) translate(0 3.61)"/>
                <path fill="#306B34" d="M61.593 3.104c.6 1.21.144 4.323-.63 5.184-1.094 1.218-3.7 5.405-3.7 5.405-.244.478.3.98.752.688 1.028-.66 2.129-1.179 3.397-1.293.579-.053 1.173.004 1.723.194 3.278 1.13 2.77 5.167.674 7.1-1.74 1.608-4.177 2.16-6.483 2.708-1.195.285-2.487.647-3.081 1.81-.336.658-.256 1.496.308 1.975.651.552 1.396.244 2.114.153 2.345-.3 4.475 2.036 4.454 4.401-.022 2.364-1.755 4.467-3.878 5.507-2.125 1.039-4.575 1.183-6.937 1.062-1.165-.06-2.42-.159-3.34.704-.544.509-.705 1.364-.25 1.953.649.838 1.858.462 2.871.406 2.81-.156 5.045 2.974 4.602 5.754-.444 2.78-2.894 4.916-5.582 5.758-3.027.949-6.32.546-9.43.11-.731-.103-1.483.292-1.709.994-.314.977.577 1.534 1.272 2.038 2.687 1.949 3.736 5.857 2.388 8.888-1.348 3.032-4.953 4.871-8.199 4.181-2.063-.437-3.941-1.765-6.177-1.092-1.106.333-1.902 1.391-1.691 2.527.267 1.434 1.875 1.842 3.078 2.514 3.335 1.862 6.759 8.992 4.566 12.12-2.192 3.13-12.094 1.132-15.907.891-3.558-.226-10.724-.531-14.976-2.678-.305-.154-.867-.491-.867-.491s21.056-18.297 39.267-42.552C50.338 26.55 59.332 1.02 59.332 1.02s.355.078.767.37c.708.5 1.375 1.478 1.494 1.715" transform="translate(128.567 162.453) translate(0 3.61)"/>
            </g>
            <g transform="translate(128.567 162.453) translate(11.96 53.443)">
                <mask id="prefix__b" fill="#fff">
                    <use xlink:href="#prefix__a"/>
                </mask>
                <path fill="#FBBF00" d="M49.325 1.148c-1.857.808-2.862 2.81-3.567 4.708-1.267 3.419-2.046 7.018-2.31 10.652-.065.896-.104 1.818-.48 2.633-.376.816-1.189 1.505-2.084 1.433-.766-.063-1.404-.673-1.704-1.38-.3-.708-.32-1.5-.292-2.268.205-5.56 2.827-10.988 7.053-14.605-1.804-1.08-4.051-1.39-6.08-.837-2.028.552-3.81 1.96-4.816 3.807-1.497 2.748-1.224 6.08-.909 9.196l.736 7.273c.092.913.134 1.968-.534 2.598-.61.573-1.621.531-2.333.09-.71-.44-1.17-1.192-1.516-1.955-1.35-2.985-1.276-6.457-.451-9.627.825-3.17 2.353-6.106 3.869-9.01-8.215 3.146-13.692 6.17-19.744 12.553l-2.236 2.296c.155 4.735 2.897 9.306 7.002 11.67.816.47 1.812 1.088 1.716 2.023-.067.667-.74 1.149-1.41 1.209-.67.059-1.323-.207-1.92-.516-4.67-2.415-7.521-7.938-6.785-13.143C4.512 25.39.866 33.368.692 41.48.64 43.847.88 46.26 1.8 48.44c.918 2.182 2.577 4.12 4.769 5.012 2.191.893 4.922.584 6.632-1.052.99-.95 1.581-2.246 2.526-3.24.946-.993 2.857-1.97 3.677-.872.41.55-.891 1.812-1.51 2.362-.231.208-.454.43-.647.672-1.96 2.463-2.236 4.938-1.542 8.13.732 3.37 3.832 8.368 6.136 10.933 2.352 2.617 7.125 4.116 9.76 4.3.602.041 1.185.062 1.748.063h.112c9.748-.02 13.856-5.798 13.856-5.798s-6.473-.493-10.004-5.186c-3.19-4.241-2.98-9.373-5.437-14.078-.372-.712-.753-1.455-.787-2.258-.035-.803.381-1.686 1.15-1.923.796-.246 1.66.292 2.086 1.008.425.718.526 1.572.662 2.395.807 4.859 3.254 9.43 6.851 12.794 2.438 2.28 5.556 4.058 8.894 4.06 2.557.003 5.025-1.04 7.123-2.499 2.1-1.46 3.877-3.326 5.64-5.178-8.262 1.59-17.272-1.591-22.703-8.015-1.015-1.2-1.959-2.65-1.608-4.262.23-1.054 1.12-1.903 2.197-1.822 1.082.08 1.637 1.03 2.161 1.867 3.627 5.79 10.171 9.644 16.994 10.01 1.914.102 3.938-.086 5.532-1.151 2.824-1.888 3.544-5.965 6.388-7.823-7.33 3.893-16.75 3.493-23.723-1.004-.79-.51-1.575-1.094-2.04-1.911-.467-.818-.54-1.925.052-2.656.723-.894 2.138-.893 3.166-.38 1.03.512 1.804 1.41 2.671 2.166 2.331 2.03 5.408 3.066 8.485 3.362 3.078.296 6.18-.1 9.225-.644 1.676-.3 3.525-.764 4.437-2.202.514-.808.636-1.797.745-2.748l1.435-12.484c-.543 1.82-6.16 5.952-10.005 6.689-2.194.42-6.679.183-8.813-.47-.73-.223-1.476-.453-2.095-.9-.618-.448-1.1-1.158-1.072-1.92.033-.827.662-1.54 1.407-1.896.747-.356 1.596-.421 2.422-.448 1.353-.042 2.708.002 4.063.046 2.17.07 4.337.141 6.485-.145 3.488-.462 7.09-2.107 8.677-5.248-2.741-5.195-4.082-11.119-3.842-16.986.071-1.75.246-3.64-.702-5.113l-.647 1.589c-1.054 1.728-3.402 2.597-5.3 1.848-1.438-.568-2.59-1.904-4.131-2.015-1.09-.077-2.142.506-2.888 1.304S59.234 6.518 58.754 7.5l-4.071 8.325c-.635 1.298-1.707 2.825-3.119 2.51-1.065-.239-1.597-1.437-1.798-2.511-.478-2.58.062-5.334 1.48-7.543 1.417-2.207 3.698-3.844 6.243-4.482-1.18-.938-2.38-1.884-3.769-2.472-.8-.34-1.676-.546-2.54-.546-.638 0-1.27.113-1.855.368M45.909 27.51c-.646-.427-.808-1.347-.579-2.088.23-.74.387-1.087.77-1.76.346-.604 1.497-2.067 1.497-2.067.39-.41.978-.68 1.525-.535.44.116.783.48.958.9.175.419.199.885.165 1.339-.102 1.352-.72 2.659-1.701 3.595-.354.336-.76.631-1.227.772-.18.055-.37.084-.557.084-.302 0-.6-.075-.85-.24m-7.092 3.02c-.458-.047-.845-.393-1.05-.805-.205-.413-.257-.883-.275-1.344-.058-1.434.181-2.88.697-4.22.229-.59.584-1.222 1.2-1.366.43-.1.894.082 1.213.39.318.308.51.724.64 1.15.405 1.345.114 2.807-.531 4.055-.172.334-.584 1.383-.584 1.383-.258.423-.714.762-1.203.762-.036 0-.07-.002-.107-.005m15.307-3.825c-.397-.224-.571-.74-.475-1.185.098-.445.424-.815.813-1.053.388-.24.837-.361 1.282-.455.276-.058.562-.106.84-.058.28.048.554.21.664.47.12.278.027.612-.16.848l-.189.273c-.392.486-.907.872-1.482 1.113-.24.102-.509.177-.768.177-.183 0-.363-.037-.525-.13m-29.42 8.538c-1.945-1.716-2.817-4.56-2.168-7.072.26-1.008.96-2.098 2.001-2.087.558.007 1.07.349 1.416.787.346.437.553.965.756 1.486l1.136 2.148c.52.943 1.052 1.928 1.121 3.003.07 1.076-.463 2.273-1.487 2.61-.2.065-.403.096-.607.096-.78 0-1.563-.438-2.167-.97m6.368-3.268c-.497-.364-.775-.97-.857-1.58-.081-.611.013-1.232.142-1.834.08-.374.175-.754.387-1.07.212-.32.563-.57.945-.564.408.005.77.302.96.663l.234.383c.386.75.581 1.597.565 2.442-.01.604-.165 1.262-.65 1.623-.227.167-.502.244-.782.244-.333 0-.674-.11-.944-.307m15.875 5.142c-1.033-.392-2.205-.934-2.46-2.008-.15-.63.08-1.313.517-1.79.437-.479 1.055-.764 1.69-.886 1.18-.23 2.363.225 3.39.854 1.49.915 1.993 2.43 1.993 2.43.023 1.057-1.016 1.888-2.062 2.02-.146.02-.291.028-.437.028-.897 0-1.783-.326-2.631-.648m-9.706 5.247c-.88-.313-1.672-.975-1.954-1.864-.31-.977.085-2.135.93-2.718.843-.583 1.994-.44 2.87.093.568.346 2.427 1.098 2.427 1.098.734.48 1.244 1.424.943 2.248-.34.927-1.467 1.264-2.45 1.366-.326.032-.655.054-.982.054-.608 0-1.213-.073-1.784-.277m-21.648.469c-.816-.214-1.616-.551-2.255-1.104-.638-.553-1.101-1.341-1.14-2.184-.072-1.585 6.975-2.442 8.587-1.407.468.3.864.712 1.14 1.196.014.022.026.044.039.068.696 1.246.049 2.845-1.31 3.281-.905.29-1.855.437-2.804.437-.76 0-1.521-.095-2.257-.287m10.053 15.352c-.737-.546-1.236-1.36-1.593-2.205-1.035-2.45-.977-5.335.154-7.74.224-.477.504-.953.951-1.231.448-.277 1.057-.25 1.45.101.958.855 2.188 5.288 2.188 5.288.5 1.061 1.007 2.16 1.047 3.33.038 1.173-.514 2.447-1.6 2.89-.273.112-.563.164-.855.164-.616 0-1.241-.227-1.742-.597" mask="url(#prefix__b)"/>
            </g>
            <g transform="translate(128.567 162.453) translate(14.95 98.292)">
                <mask id="prefix__d" fill="#fff">
                    <use xlink:href="#prefix__c"/>
                </mask>
                <path fill="#FFDE8E" d="M19.689.38c-4.662 3.03-8.88 6.631-12.607 10.715-2.438 2.366-4.726 4.89-6.838 7.578-.312.398.288.91.603.51.184-.237.38-.46.567-.693.122.027.253 0 .359-.124.409-.486.834-.958 1.254-1.433.12.029.252 0 .35-.135.426-.574.87-1.132 1.313-1.692 4.674-4.982 9.933-9.358 15.714-13.042.427-.272-.024-.919-.451-.647-.172.11-.339.224-.51.334-.052-.058-.115-.105-.19-.126.295-.2.587-.404.888-.598.352-.23.102-.714-.236-.714-.07 0-.144.02-.216.068" mask="url(#prefix__d)"/>
            </g>
            <path fill="#306B34" d="M64.428 44.658l-.042-.034c-1.575-1.233-3.844-.97-5.061.582-.588.752-.845 1.69-.725 2.642.123.955.596 1.805 1.374 2.408 1.573 1.232 3.844.97 5.06-.583.589-.751.846-1.69.724-2.641-.12-.939-.59-1.78-1.33-2.374m-5.405 6.693c-1.033-.832-1.692-2.008-1.859-3.32-.17-1.339.191-2.66 1.02-3.718 1.709-2.182 4.891-2.553 7.094-.83 1.068.828 1.746 2.03 1.917 3.366.17 1.34-.192 2.66-1.02 3.717-1.708 2.182-4.89 2.554-7.094.831-.02-.015-.04-.03-.058-.046" transform="translate(128.567 162.453)"/>
            <g transform="translate(128.567 162.453) translate(42.856 .62)">
                <mask id="prefix__g" fill="#fff">
                    <use xlink:href="#prefix__e"/>
                </mask>
                <path fill="url(#prefix__f)" d="M4.879.376C2.61.376.746 2.166.705 4.399.685 5.496 1.1 6.536 1.88 7.324c.772.784 1.812 1.227 2.925 1.248h.076c2.267 0 4.132-1.79 4.174-4.023.02-1.098-.397-2.136-1.175-2.925C7.106.84 6.068.397 4.955.376H4.88zm-.052 6.903c-.773-.013-1.492-.32-2.028-.863-.53-.539-.816-1.246-.802-1.993.028-1.53 1.316-2.755 2.882-2.755h.052c.773.015 1.493.32 2.029.864.53.539.815 1.246.802 1.993-.029 1.53-1.332 2.754-2.881 2.754h-.054z" mask="url(#prefix__g)"/>
            </g>
            <g transform="translate(128.567 162.453) translate(29.9 9.59)">
                <mask id="prefix__j" fill="#fff">
                    <use xlink:href="#prefix__h"/>
                </mask>
                <path fill="url(#prefix__i)" d="M.083 5.527c-.054 2.933 2.263 5.351 5.174 5.405 2.91.054 5.312-2.28 5.365-5.212C10.676 2.788 8.36.368 5.45.314L5.352.313C2.485.313.135 2.627.082 5.527" mask="url(#prefix__j)"/>
            </g>
            <g transform="translate(128.567 162.453) translate(65.779 38.493)">
                <mask id="prefix__m" fill="#fff">
                    <use xlink:href="#prefix__k"/>
                </mask>
                <path fill="url(#prefix__l)" d="M.938 2.935C.908 4.57 2.2 5.92 3.823 5.95c1.624.029 2.963-1.272 2.993-2.906C6.845 1.407 5.553.059 3.93.028L3.878.027c-1.6 0-2.911 1.29-2.94 2.908" mask="url(#prefix__m)"/>
            </g>
        </g>
        <path fill="#306B34" d="M259.701 245.64c0 3.475-2.817 6.292-6.292 6.292-3.476 0-6.293-2.817-6.293-6.292 0-3.475 2.817-6.293 6.293-6.293 3.475 0 6.292 2.818 6.292 6.293"/>
        <path fill="url(#prefix__n)" d="M235.035 237.511c0 2.294 1.858 4.153 4.152 4.153s4.154-1.86 4.154-4.153c0-2.294-1.86-4.154-4.154-4.154-2.294 0-4.152 1.86-4.152 4.154"/>
        <path fill="url(#prefix__o)" d="M246.349 229.632c0 1.604 1.301 2.907 2.907 2.907 1.605 0 2.907-1.303 2.907-2.907 0-1.607-1.302-2.908-2.907-2.908-1.606 0-2.907 1.301-2.907 2.908"/>
        <g>
            <path fill="#F7E8C8" d="M0 261.31c0-3.5 55.64-6.337 124.276-6.337 68.635 0 124.274 2.836 124.274 6.337 0 3.5-55.64 6.337-124.274 6.337C55.64 267.647 0 264.811 0 261.31" transform="translate(6.977 28.903)"/>
            <path fill="#FB8875" d="M112.853 257.516c1.047-.167 1.761-1.152 1.594-2.2l-1.579-9.865c-.167-1.048-1.152-1.762-2.2-1.594-1.048.168-1.76 1.153-1.593 2.201l1.577 9.865c.168 1.048 1.154 1.762 2.201 1.593" transform="translate(6.977 28.903)"/>
            <path fill="#7F786A" d="M100.312 259.866c.012.53.463.948 1.006.934l13.209-.31c.696-.017 1.204-.649 1.05-1.31l-.245-2.332c-.07-.666-.654-1.166-1.341-1.151 0 0-.315 1.033-1.553 1.22-1.003.151-1.36-.649-1.487-1.229-.062-.281-.375-.444-.659-.333l-9.374 3.604c-.375.151-.615.512-.606.907" transform="translate(6.977 28.903)"/>
            <path fill="#FB8875" d="M127.874 257.638c-1.06.044-1.956-.78-2-1.84l-.414-9.982c-.044-1.06.78-1.955 1.84-2 1.06-.043 1.954.78 1.999 1.84l.415 9.983c.043 1.06-.78 1.955-1.84 2" transform="translate(6.977 28.903)"/>
            <path fill="#7F786A" d="M139.89 259.974c-.013.528-.464.947-1.007.934l-13.208-.31c-.697-.017-1.205-.65-1.051-1.31l.245-2.332c.07-.666.654-1.167 1.341-1.151 0 0 .315 1.034 1.553 1.22 1.003.151 1.36-.649 1.487-1.229.062-.281.375-.443.659-.334l9.374 3.605c.375.152.615.512.606.907M100.662 77.265c-11.504 5.135-16.725-2.47-16.769-6.746-.074-7.338 2.136-15.197 4.99-21.909 1.679-3.947 5.122-8.31 7.84-10.734 3.282-2.93 8.957-4.083 14.781-3.76l.468 1.283s.532 36.579-11.31 41.866M119.56 89.908c3.2 4.478-.323 27.317-.323 27.317l-9.471 45.188 5.119 88.162-12.068 1.857S79.311 177.3 79.756 162.518c1.121-37.343 14.224-65.307 21.758-76.427 3.103 1.697 9.022 3.782 18.047 3.817" transform="translate(6.977 28.903)"/>
            <path fill="#A29C8F" d="M135.809 81.645c6.05 7.876 12.644 20.156 14.068 46.133 1.144 20.883-14.34 123.375-14.34 123.375l-11.581-.456-8.432-135.14-.117-27.469s17.808-5.575 20.402-6.443" transform="translate(6.977 28.903)"/>
            <path fill="#E1DCFF" d="M109.442 75.885c0 .945.765 1.711 1.71 1.711s1.711-.766 1.711-1.711c0-.945-.766-1.71-1.711-1.71-.945 0-1.71.765-1.71 1.71" transform="translate(6.977 28.903)"/>
            <path fill="#F5EFE4" d="M94.552 85.48s4.271 3.91 18.496 5.951c13.02 1.87 28.948-1.126 28.948-1.126l8.84-33.907c1.552-8.045 3.92-15.625-11.055-18.666 0 0-23.959-3.902-28.425-4-9.178-.202-13.64 8.049-15.126 17.186-1.439 8.848-1.678 34.562-1.678 34.562" transform="translate(6.977 28.903)"/>
            <path fill="#A29C8F" d="M136.814 86.75s13.004 4.339 16.414 1.351c5.098-4.467 7.276-11.122 5.132-27.91-.61-4.792-1.12-9.807-2.412-13.149-2.03-5.251-6.961-8.174-14.556-8.89l-4.578 48.598z" transform="translate(6.977 28.903)"/>
            <path fill="#FFE2B7" d="M125.22 37.734c1.66.46 3.376-.511 3.837-2.17l1.808-6.507c.46-1.658-.512-3.376-2.17-3.837-1.658-.46-3.376.511-3.836 2.17l-1.807 6.507c-.46 1.658.51 3.377 2.169 3.837" transform="translate(6.977 28.903)"/>
            <path fill="#FFC581" d="M130.69 29.687c.557-2.006-.336-4.007-1.995-4.466-1.658-.46-3.454.791-4.011 2.797l-1.245 4.484c-.304 1.096 1.94 1.454 4.122.219 1.428-.81 2.822-1.928 2.822-1.928l.307-1.106z" transform="translate(6.977 28.903)"/>
            <path fill="#FFE2B7" d="M135.111 18.96c-.49-.226-1.75.114-1.75.114.606-3.988-2.135-7.713-6.122-8.32-3.989-.607-7.08 2.23-7.686 6.218 0 0-.976 5.954-.965 6.722.074 5.027 1.87 6.78 5.563 7.343 3.692.562 7.153-1.749 8.13-5.258.768-.007 1.877-1.156 2.638-2.807.86-1.868.947-3.663.192-4.012" transform="translate(6.977 28.903)"/>
            <path fill="#FFC581" d="M125.113 10.758s-.21.038-.314.061c-2.767.606-4.77 3.026-5.247 6.152 0 0-.976 5.954-.965 6.724.05 3.302.876 5.279 2.483 6.313 1.053.677 2.209.865 2.209.865s-3.321-2.997-1.707-10.984c.968-4.79 3.541-9.13 3.541-9.13" transform="translate(6.977 28.903)"/>
            <g transform="translate(6.977 28.903) translate(110.628 .547)">
                <mask id="prefix__q" fill="#fff">
                    <use xlink:href="#prefix__p"/>
                </mask>
                <path fill="#57575E" d="M21.14 13.299c.429.681-3.294.548-4.074 1.92-.78 1.37 1.951 2.548 2.666 3.669.306.48-.122 2.927.313 2.963.583.047 1.862-2.378 2.625-2.426 1.333-.083-.958 2.623-1.904 5.61-.265.833.318 1.337.318 1.337s4.75-1.003 7.278-5.503c1.737-3.094 2.17-7.081 1.306-9.657-.76-2.266-3.715-2.946-5.52-2.355 0 0-.994-3.285-1.853-3.965-2.05-1.625-8.869-1.11-13.51-1.803C3.8 2.343 1.049.449 1.049.449S-.488 8.076 3.254 11.303c4.186 3.612 8.01 2.715 10.132 2.68 3.489-.059 7.394-1.255 7.753-.684" mask="url(#prefix__q)"/>
            </g>
            <path fill="#FFE2B7" d="M131.984 21.034c-1.17 1.517-1.493 3.23-.718 3.828.773.596 2.374.02 3.544-1.495 1.171-1.518 1.468-3.4.695-3.998-.774-.597-2.35.15-3.52 1.665" transform="translate(6.977 28.903)"/>
            <path fill="#FFE2B7" d="M133.14 24.315s-1.104 2.546-1.694 3.361c-.59.814-1.394-2.062-1.394-2.062l3.088-1.299z" transform="translate(6.977 28.903)"/>
            <g transform="translate(6.977 28.903) translate(111.624 .547)">
                <mask id="prefix__s" fill="#fff">
                    <use xlink:href="#prefix__r"/>
                </mask>
                <path fill="#57575E" d="M20.086 26.372c2.166-.291 4.26-1.292 5.972-2.794 1.705-1.533 2.913-3.622 3.531-5.828.324-1.106.54-2.25.57-3.425.038-1.179-.046-2.36-.45-3.603-.468-1.426-1.73-2.416-2.962-2.86-1.26-.45-2.584-.57-3.974-.16l1.542.803c-.357-1.12-.736-2.156-1.314-3.272-.168-.287-.308-.56-.59-.893-.341-.41-.696-.58-1.018-.78-.643-.295-1.266-.5-1.854-.598-2.365-.407-4.56-.408-6.763-.421-2.197-.035-4.346-.005-6.468-.337C4.18 1.905 2.06 1.368.052.45 1.789 1.845 3.9 2.734 6.054 3.383c2.176.632 4.44.87 6.627 1.067 2.18.233 4.408.3 6.357.773.491.108.914.265 1.268.43.134.1.289.177.288.209.076.084.197.3.3.49.426.84.786 1.886 1.093 2.857l.007.022c.201.636.881.99 1.517.789l.019-.006c.684-.23 1.63-.196 2.399.079.792.272 1.367.786 1.628 1.426.636 1.665.578 3.818.203 5.774-.406 1.988-1.213 3.897-2.547 5.457-1.323 1.573-3.11 2.82-5.127 3.622" mask="url(#prefix__s)"/>
            </g>
            <path fill="#A29C8F" d="M127.28 36.69l-5.186-1.328s-.241 4.565 1.387 4.765c3.438.422 3.8-3.437 3.8-3.437" transform="translate(6.977 28.903)"/>
            <path fill="#A29C8F" d="M124.808 38.78s.905 18.938.482 30.095l-8.443 4.643-4.644-7.659 11.037-27.561 1.568.482z" transform="translate(6.977 28.903)"/>
            <path fill="#E7E1D3" d="M129.593 33.413L124.828 36.006 126.638 40.831 132.186 36.729z" transform="translate(6.977 28.903)"/>
            <path fill="#E7E1D3" d="M123.32 32.87L125.391 36.026 121.29 39.323 120.164 34.98z" transform="translate(6.977 28.903)"/>
            <path fill="#A29C8F" d="M132.186 36.73s-3.74 10.07-6.151 34.557c-2.413 24.487-.966 57.9 4.22 59.708 5.188 1.809 22.999 1.287 22.999 1.287s-.12-23.682-5.79-43.102l-6.192-11.66 4.906-37.956s-1.689-1.447-13.992-2.834" transform="translate(6.977 28.903)"/>
            <path fill="#7F786A" d="M120.164 34.98s-8.122 15.198-11.62 32.448c-3.498 17.248-6.755 55.364-10.976 59.587-4.222 4.222-20.064-3.257-20.064-3.257s2.211-23.593 13.67-39.032c0 0 1.511-20.14 4.906-35.029 1.595-6.997 4.82-12.948 8.483-14.837 0 0 7.197-2.654 15.6.12M126.275 93.24c2.737-5.924 5.208-11.947 7.66-17.978 2.43-6.04 4.705-12.137 6.955-18.245l.008-.02c.16-.436-.035-.916-.44-1.12l-4.138-2.102-.04 1.511c1.641-.78 3.255-1.617 4.88-2.432l.042-.02c.285-.144.42-.466.339-.763-.629-2.29-1.22-4.591-1.88-6.876-.68-2.28-1.313-4.57-2.048-6.837.353 2.356.805 4.69 1.211 7.034.426 2.339.92 4.662 1.376 6.995l.381-.782c-1.672.712-3.355 1.403-5.011 2.15-.422.19-.61.688-.419 1.11.077.173.206.307.36.391l.02.01 4.063 2.242-.432-1.14c-2.333 6.075-4.642 12.16-6.796 18.303-2.131 6.152-4.244 12.312-6.09 18.57" transform="translate(6.977 28.903)"/>
            <path fill="#7F786A" d="M102.433 87.812c.421-6.691.559-13.38.677-20.07.094-6.688.022-13.376-.076-20.063l-.943.93 4.641.022h.022c.464.002.843-.373.846-.837.001-.19-.06-.365-.166-.505-1.083-1.46-2.21-2.886-3.324-4.323l-.158.976c1.935-1.498 3.888-2.969 5.805-4.49 1.902-1.543 3.833-3.044 5.703-4.632-2.102 1.264-4.142 2.614-6.211 3.924-2.055 1.331-4.072 2.712-6.11 4.066-.309.205-.393.623-.187.93l.004.007.026.039c1.022 1.504 2.03 3.017 3.084 4.497l.702-1.343-4.636-.177c-.503-.02-.924.371-.944.873v.058c.009 6.688.044 13.375.246 20.062.225 6.686.47 13.373.999 20.056" transform="translate(6.977 28.903)"/>
            <path fill="#FFE2B7" d="M146.987 69.484s.853-1.997.671-2.73c-.14-.56-1.555-1.708-1.555-1.708s-4.87 1.183-5.537 2.374c-.319.569.02 1.885.343 2.85.214.642.9.995 1.545.794l4.533-1.58z" transform="translate(6.977 28.903)"/>
            <path fill="#FFE2B7" d="M149.422 68.805c-.148.672-.815 1.096-1.487.947l-3.073-.68.27-1.218 4.29.951z" transform="translate(6.977 28.903)"/>
            <path fill="#FFE2B7" d="M150.34 68.683c-.258.638-1.06.915-1.791.618l-3.342-1.353.469-1.155 4.665 1.89z" transform="translate(6.977 28.903)"/>
            <path fill="#FFE2B7" d="M150.89 67.527c-.207.657-.985.998-1.738.762l-3.44-1.083.376-1.19 4.801 1.511z" transform="translate(6.977 28.903)"/>
            <path fill="#FFE2B7" d="M151.464 64.39c.086.683-.62 1.336-1.58 1.458l-4.385.559.712-1.383 5.253-.635zM94.961 59.291L92.403 60.984 96.805 64.306 98.599 61.581z" transform="translate(6.977 28.903)"/>
            <path fill="#A29C8F" d="M95.055 70.645c5.643 13.353 21.848 17.621 33.041 19.46 12.491 2.051 23.906 3.766 27.982-7.01 0 0-13.786-10.838-19.04-12.947-10.524-4.225-37.77-11.568-37.77-11.568s-6.231 7.29-4.213 12.065" transform="translate(6.977 28.903)"/>
            <path fill="#FFE2B7" d="M90.042 60.575s-.737-2.266-.492-2.98c.188-.547 1.7-1.567 1.7-1.567s3.12 2.319 4.07 3.298c.66.681 1.052 1.43.645 2.362-.27.62-.983.911-1.608.655l-4.315-1.768z" transform="translate(6.977 28.903)"/>
            <path fill="#FFE2B7" d="M86.613 59.81c.086.683.709 1.167 1.392 1.081l3.124-.391-.156-1.237-4.36.546z" transform="translate(6.977 28.903)"/>
            <path fill="#FFE2B7" d="M85.386 58.271c.021.689.677 1.227 1.465 1.204l3.604-.107-.037-1.246-5.032.15z" transform="translate(6.977 28.903)"/>
            <path fill="#FFE2B7" d="M85.63 57.204c.02.687.676 1.226 1.465 1.204l3.603-.108-.036-1.247-5.033.15z" transform="translate(6.977 28.903)"/>
            <path fill="#FFE2B7" d="M86.558 55.743c-.045.686.556 1.286 1.343 1.34l3.598.24-.25-1.294-4.69-.286zM137.123 71.24s-.892-2.246-.477-2.831c.594-.834 4.04-.678 4.04-.678l.475 2.83-4.038.68z" transform="translate(6.977 28.903)"/>
            <path fill="#7F786A" d="M139.428 67.9c-2.016-4.132-13.128-7.787-26.783-7.187-13.519.593-33.802 6.777-25.974 15.198 4.5 4.84 20.784 4.654 26.852 4.586 12.155-.138 24.543-1.922 24.543-1.922s3.687-5.91 1.362-10.676" transform="translate(6.977 28.903)"/>
            <path fill="#F9D04E" d="M96.784 116.126c-.812 1.213-1.962 1.45-1.962 1.45.661.505.652.84.69 1.583.725-.299 1.334-.774 1.807-1.458.236-.657.005-1.165-.535-1.575M47.86 117.017c-.812 1.213-1.962 1.449-1.962 1.449.662.505.653.84.69 1.584.725-.3 1.334-.775 1.807-1.458.237-.657.005-1.165-.535-1.575" transform="translate(6.977 28.903)"/>
            <path fill="#B0AFFD" d="M129.007 129.764c-1.21.82-2.363.606-2.363.606.423.717.289 1.024.046 1.728.783-.005 1.526-.217 2.221-.673.467-.52.443-1.079.096-1.661" transform="translate(6.977 28.903)"/>
            <path fill="#F9D04E" d="M114.243 142.565c-1.293-.68-1.65-1.797-1.65-1.797-.432.711-.767.738-1.501.857.373.687.912 1.243 1.642 1.64.679.165 1.16-.12 1.51-.7" transform="translate(6.977 28.903)"/>
            <path fill="#B0AFFD" d="M89.932 133.132c-1.424.318-2.42-.302-2.42-.302.131.82-.106 1.058-.59 1.623.73.283 1.498.358 2.313.19.624-.315.806-.843.697-1.511M49.353 133.353c-.747 1.254-1.882 1.551-1.882 1.551.687.469.696.805.774 1.544.708-.336 1.29-.843 1.726-1.55.201-.67-.057-1.165-.618-1.545M1.883 162.31C1.135 163.566 0 163.863 0 163.863c.688.469.697.805.774 1.544.708-.336 1.29-.843 1.727-1.55.2-.67-.057-1.166-.618-1.545" transform="translate(6.977 28.903)"/>
            <path fill="#F9D04E" d="M9.1 145.52c-.747 1.255-1.882 1.552-1.882 1.552.687.469.696.804.774 1.544.708-.336 1.29-.843 1.726-1.55.202-.67-.057-1.166-.618-1.545M26.974 146.607c-1.45.178-2.38-.538-2.38-.538.05.832-.21 1.044-.746 1.558.7.354 1.458.503 2.284.414.652-.251.885-.758.842-1.434M37.54 180.937c-1.393-.435-1.946-1.472-1.946-1.472-.297.778-.621.864-1.323 1.112.491.61 1.12 1.059 1.91 1.32.697.04 1.119-.326 1.359-.96" transform="translate(6.977 28.903)"/>
            <path fill="#B0AFFD" d="M23.647 123.298c-1.352.552-2.438.104-2.438.104.267.788.071 1.062-.312 1.698.767.159 1.537.105 2.312-.197.564-.413.657-.963.438-1.605" transform="translate(6.977 28.903)"/>
            <path fill="#F9D04E" d="M71.06 123.295c-1.35.556-2.438.112-2.438.112.27.788.075 1.062-.306 1.7.768.156 1.538.1 2.312-.206.562-.414.652-.965.432-1.606M146.667 166.805c-1.35.556-2.437.112-2.437.112.269.787.074 1.062-.307 1.7.768.156 1.538.099 2.312-.205.562-.416.653-.966.432-1.607M129.382 189.074c-.097 1.457-.975 2.237-.975 2.237.827.107.986.4 1.39 1.025.48-.62.768-1.336.837-2.165-.125-.688-.58-1.012-1.252-1.097" transform="translate(6.977 28.903)"/>
            <path fill="#B0AFFD" d="M133.932 155.09c-1.343-.573-1.789-1.66-1.789-1.66-.373.744-.704.799-1.427.974.428.657 1.008 1.165 1.767 1.504.69.11 1.147-.212 1.45-.818M14.933 185.897c-1.442-.23-2.137-1.178-2.137-1.178-.182.813-.49.945-1.15 1.29.574.533 1.26.888 2.079 1.032.697-.06 1.061-.482 1.208-1.144" transform="translate(6.977 28.903)"/>
            <path fill="#FCBA3F" d="M69.172 219.818l-.194-33.895 7.567-.043.175 30.78h.008l-.007.151.015 2.507c.172 4.385 1.268 12.673 7.126 12.64l-21.662.124c5.663-.033 6.79-7.782 6.972-12.264" transform="translate(6.977 28.903)"/>
            <path fill="#FFB127" d="M105.54 151.189c-1.677.886-3.182 2.105-4.425 3.587-3.175 3.836-3.775 8.673-1.576 12.95.854 1.695 2.251 2.944 3.963 3.578.768.313 1.618.47 2.502.5 2.93.078 5.839-1.414 7.217-3.71 1.149-1.945 1.134-4.215-.052-6.258-.781-1.347-2.5-1.804-3.846-1.022-1.33.772-1.803 2.498-1.022 3.846.198.34.145.436.085.557-.29.472-1.25.985-2.202.952-1.019-.037-1.417-.61-1.636-1.024-.037-.065-.075-.13-.097-.204-1.263-2.629-.282-4.825.654-6.127.125-.16.233-.308.351-.442 2.283-2.756 6.228-4.069 9.37-3.137 3.623 1.086 6.013 5.057 6.695 11.168 1.33 11.785-6.965 19.806-12.03 23.525-5.506 4.04-10.975 6.128-14.676 6.887-2.124.45-3.653.47-4.292.192-1.426-.627-3.083.03-3.692 1.447-.393.856-.3 1.8.132 2.546.292.504.73.922 1.299 1.156.649.296 1.425.475 2.27.547 5.535.607 14.801-2.707 22.3-8.25 10.425-7.675 15.492-17.858 14.291-28.675-1.302-11.478-7.248-14.925-10.672-15.93-3.537-1.05-7.538-.507-10.911 1.34" transform="translate(6.977 28.903)"/>
            <path fill="#EDBF5A" d="M86.83 198.454c-.392.856-.3 1.8.133 2.547.292.503.73.92 1.3 1.155.648.296 1.424.475 2.269.548 1.596-1.772 3.003-3.759 4.282-5.889-2.123.452-3.651.47-4.291.191-1.426-.626-3.083.031-3.693 1.448M105.54 151.189c-1.677.886-3.182 2.105-4.425 3.587-3.175 3.836-3.775 8.673-1.576 12.95.854 1.695 2.251 2.944 3.963 3.578.36-2.183.681-4.321.95-6.363-1.264-2.629-.283-4.825.653-6.127.257-3.034.373-5.638.435-7.625" transform="translate(6.977 28.903)"/>
            <path fill="#FFB127" d="M41.031 151.148c1.702.835 3.243 2.01 4.53 3.452 3.29 3.74 4.033 8.557 1.964 12.897-.802 1.72-2.161 3.012-3.853 3.695-.758.337-1.603.52-2.486.576-2.927.166-5.879-1.237-7.326-3.49-1.206-1.911-1.258-4.18-.135-6.259.74-1.37 2.444-1.877 3.814-1.136 1.352.73 1.877 2.443 1.136 3.813-.187.346-.131.44-.068.56.304.463 1.279.947 2.23.886 1.017-.068 1.397-.652 1.603-1.074.036-.067.072-.132.091-.207 1.185-2.665.139-4.83-.837-6.104-.129-.155-.242-.302-.364-.431-2.365-2.686-6.347-3.88-9.46-2.855-3.589 1.195-5.858 5.236-6.357 11.363-.974 11.821 7.557 19.59 12.73 23.154 5.627 3.873 11.155 5.797 14.878 6.445 2.136.386 3.665.36 4.295.061 1.407-.668 3.083-.06 3.734 1.337.419.845.355 1.79-.055 2.55-.276.51-.702.943-1.264 1.193-.64.315-1.41.517-2.253.616-5.514.772-14.875-2.264-22.537-7.58-10.65-7.356-16.02-17.382-15.146-28.232.956-11.51 6.797-15.134 10.19-16.244 3.503-1.155 7.519-.732 10.946 1.014" transform="translate(6.977 28.903)"/>
            <path fill="#EDBF5A" d="M61.15 197.83c.418.846.355 1.792-.056 2.551-.276.51-.702.943-1.264 1.193-.638.315-1.409.517-2.251.616-1.65-1.722-3.115-3.667-4.458-5.758 2.137.387 3.665.361 4.295.062 1.407-.669 3.083-.06 3.735 1.337M41.031 151.148c1.702.835 3.243 2.01 4.53 3.452 3.29 3.74 4.033 8.557 1.964 12.897-.802 1.72-2.161 3.012-3.853 3.695-.426-2.17-.811-4.297-1.14-6.331 1.184-2.665.138-4.83-.838-6.104-.348-3.023-.541-5.624-.663-7.609" transform="translate(6.977 28.903)"/>
            <path fill="#FCBA3F" d="M44.387 147.085s-.016 2.026.156 5.353c.675 13.162 4.303 46.82 23.599 56.38l.94.799c1.189 1.003 2.725 1.52 4.277 1.466l.956-.034c1.358-.05 2.656-.543 3.705-1.39l1.104-.9c18.942-9.666 22.334-42.625 22.924-56.151.152-3.625.114-5.857.114-5.857-.016-3.244-3.816-4.076-3.816-4.076l-50.162.298s-3.813.867-3.797 4.112" transform="translate(6.977 28.903)"/>
            <path fill="#F8BD36" d="M47.346 151.374l51.918-.296c3.177-.018 5.763-2.632 5.744-5.81-.018-3.178-2.632-5.763-5.81-5.745l-51.918.296c-3.178.018-5.762 2.633-5.745 5.81.018 3.178 2.634 5.763 5.811 5.745" transform="translate(6.977 28.903)"/>
            <path fill="#FFD454" d="M44.387 147.085s-.016 2.026.156 5.353c.914.64 2.03.991 3.222.992l51.92-.298c.839-.009 1.643-.194 2.363-.524.152-3.625.114-5.857.114-5.857-.016-3.244-3.816-4.076-3.816-4.076l-50.162.298s-3.813.867-3.797 4.112" transform="translate(6.977 28.903)"/>
            <path fill="#FFB127" d="M47.346 151.374l51.918-.296c3.177-.018 5.763-2.632 5.744-5.81-.018-3.178-2.632-5.763-5.81-5.745l-51.918.296c-3.178.018-5.762 2.633-5.745 5.81.018 3.178 2.634 5.763 5.811 5.745" transform="translate(6.977 28.903)"/>
            <path fill="#FFB127" d="M47.346 151.374l51.918-.296c3.177-.018 5.763-2.632 5.744-5.81-.018-3.178-2.632-5.763-5.81-5.745l-51.918.296c-3.178.018-5.762 2.633-5.745 5.81.018 3.178 2.634 5.763 5.811 5.745" transform="translate(6.977 28.903)"/>
            <path fill="#FCBA3F" d="M48.97 260.894l48.436-.276-.109-19.148c-.02-3.658-3.002-6.607-6.661-6.587l-35.189.202c-3.657.02-6.606 3.003-6.586 6.661l.11 19.148z" transform="translate(6.977 28.903)"/>
            <path fill="#FFB127" d="M46.761 260.905l52.854-.3c.582-.004 1.05-.477 1.048-1.059l-.012-2.035c-.004-.581-.477-1.05-1.059-1.047l-52.855.301c-.58.003-1.049.477-1.046 1.059l.012 2.035c.003.581.477 1.05 1.058 1.046" transform="translate(6.977 28.903)"/>
            <path fill="#FAAA36" d="M46.761 260.905l52.854-.3c.582-.004 1.05-.477 1.048-1.059l-.012-2.035c-.004-.581-.477-1.05-1.059-1.047l-52.855.301c-.58.003-1.049.477-1.046 1.059l.012 2.035c.003.581.477 1.05 1.058 1.046M61.155 253.001l23.978-.136c1.737-.01 3.136-1.425 3.128-3.164l-.035-6.082c-.01-1.737-1.427-3.138-3.164-3.128l-23.978.137c-1.736.011-3.136 1.427-3.126 3.163l.033 6.083c.01 1.737 1.427 3.137 3.164 3.127" transform="translate(6.977 28.903)"/>
            <path fill="#FFB127" d="M61.692 235.05l22.728-.131c.416-.002.752-.342.749-.758l-.008-1.457c-.002-.417-.342-.75-.758-.749l-22.728.13c-.416.002-.752.34-.75.758l.01 1.457c.001.415.341.751.757.75" transform="translate(6.977 28.903)"/>
            <path fill="#FAAA36" d="M61.692 235.05l22.728-.131c.416-.002.752-.342.749-.758l-.008-1.457c-.002-.417-.342-.75-.758-.749l-22.728.13c-.416.002-.752.34-.75.758l.01 1.457c.001.415.341.751.757.75M89.6 158.832c.86 10.064 1.127 32.495-11.19 46.885-.631.737.355 1.756 1.113 1.148 6.79-5.441 15.962-16.045 18.6-34.743 0 0 .914-7.415.388-14.054-.174-2.203-1.961-3.932-4.166-4.077-2.735-.179-4.978 2.111-4.745 4.841M58.71 158.434c-.324 10.095.597 32.508 13.66 46.226.669.703-.263 1.772-1.052 1.206-7.069-5.074-16.79-15.177-20.415-33.71 0 0-1.305-7.355-1.132-14.013.058-2.209 1.751-4.03 3.945-4.292 2.721-.323 5.083 1.844 4.995 4.583" transform="translate(6.977 28.903)"/>
            <path fill="#FCBA3F" d="M80.856 245.626L78.502 246.053 80.273 247.662 79.951 250.033 82.028 248.845 84.184 249.884 83.696 247.542 85.351 245.812 82.973 245.552 81.839 243.445zM72.045 245.626L69.691 246.053 71.462 247.662 71.14 250.033 73.217 248.845 75.373 249.884 74.885 247.542 76.54 245.812 74.162 245.552 73.028 243.445zM63.234 245.626L60.88 246.053 62.651 247.662 62.329 250.033 64.406 248.845 66.561 249.884 66.074 247.542 67.729 245.812 65.351 245.552 64.216 243.445z" transform="translate(6.977 28.903)"/>
        </g>
    </g>
</svg>
