<svg xmlns="http://www.w3.org/2000/svg" xmlns:xlink="http://www.w3.org/1999/xlink" width="155" height="155" viewBox="0 0 155 155">
    <defs>
        <filter id="prefix__a" width="165.2%" height="165.2%" x="-32.6%" y="-19.6%" filterUnits="objectBoundingBox">
            <feOffset dy="15" in="SourceAlpha" result="shadowOffsetOuter1"/>
            <feGaussianBlur in="shadowOffsetOuter1" result="shadowBlurOuter1" stdDeviation="10"/>
            <feColorMatrix in="shadowBlurOuter1" values="0 0 0 0 1 0 0 0 0 0.699027652 0 0 0 0 0.0927210366 0 0 0 0.15 0"/>
        </filter>
        <circle id="prefix__b" cx="57.5" cy="57.5" r="57.5"/>
        <path id="prefix__c" d="M0 0.479L83.493 0.479 83.493 83.972 0 83.972z"/>
    </defs>
    <g fill="none" fill-rule="evenodd" transform="translate(20 5)">
        <use fill="#000" filter="url(#prefix__a)" xlink:href="#prefix__b"/>
        <use fill="#FFF" xlink:href="#prefix__b"/>
        <g>
            <g transform="translate(16 21) translate(0 .522)">
                <mask id="prefix__d" fill="#fff">
                    <use xlink:href="#prefix__c"/>
                </mask>
                <path fill="#D3DCFB" d="M74.01 68.709c5.923-7.206 9.483-16.428 9.483-26.483 0-23.057-18.69-41.747-41.747-41.747C18.69.479 0 19.169 0 42.226 0 52.28 3.559 61.502 9.482 68.709v.007l.068.079.073.092h.007c1.913 2.3 4.072 4.388 6.43 6.233v.016c.07.053.142.1.212.154.047.037.092.077.139.113v-.01c2.272 1.739 4.727 3.248 7.332 4.495v.01c.077.039.155.07.23.106.046.02.088.046.133.066h.015c2.05.956 4.189 1.753 6.404 2.369v.005c.024.007.049.01.073.018.025.007.05.016.075.022v-.004c3.527.968 7.238 1.492 11.073 1.492.117 0 .233-.004.35-.005v-.007c3.709-.031 7.304-.541 10.723-1.48v.004c.025-.006.049-.015.074-.022.025-.007.05-.011.074-.018v-.004c2.215-.617 4.354-1.414 6.404-2.37h.015c.045-.021.089-.046.134-.067.075-.035.153-.066.229-.103v-.011c2.605-1.248 5.06-2.757 7.332-4.495v.01c.047-.036.09-.076.138-.112.069-.054.143-.102.212-.156v-.016c2.359-1.845 4.518-3.932 6.43-6.233h.008c.026-.031.049-.063.075-.093.02-.026.045-.051.067-.077v-.008z" mask="url(#prefix__d)"/>
            </g>
            <path fill="#FDCC9B" d="M36.57 79.228L46.921 79.228 46.921 67.635 36.57 67.635z" transform="translate(16 21)"/>
            <path fill="#816AE2" d="M41.746 74.62c-3.64 0-5.155-1.852-5.172-1.873-5.889.992-11.592 3.5-15.388 6.312.837.476 1.685.933 2.557 1.35v.012c.076.037.155.068.231.104.044.022.087.046.132.067h.015c2.05.956 4.19 1.753 6.404 2.369v.005c.024.007.05.01.073.017l.075.023V83c3.527.969 7.238 1.492 11.073 1.492.117 0 .233-.004.35-.005v-.007c3.71-.031 7.304-.541 10.723-1.48v.005l.074-.023c.024-.007.05-.01.074-.017v-.004c2.215-.617 4.354-1.414 6.404-2.37h.015l.133-.068c.076-.035.154-.066.23-.102v-.012c.872-.418 1.72-.875 2.557-1.351-3.796-2.811-9.499-5.32-15.388-6.312-.017.02-1.53 1.874-5.172 1.874" transform="translate(16 21)"/>
            <path fill="#FCBC85" d="M36.57 69s4.355 2.772 10.352 2.13v-3.496H36.57V69zM21.644 43.894c2.79 0 5.051 2.58 5.051 5.763 0 3.182-2.26 5.762-5.05 5.762s-5.052-2.58-5.052-5.762c0-3.183 2.261-5.763 5.051-5.763M61.849 43.894c2.79 0 5.05 2.58 5.05 5.763 0 3.182-2.26 5.762-5.05 5.762s-5.051-2.58-5.051-5.762c0-3.183 2.26-5.763 5.05-5.763" transform="translate(16 21)"/>
            <path fill="#FDCC9B" d="M61.828 38.65c0-8.488-6.21-14.699-20.082-14.699-13.87 0-20.08 6.211-20.08 14.7 0 8.487-1.45 30.847 20.08 30.847 21.531 0 20.082-22.36 20.082-30.848" transform="translate(16 21)"/>
            <path fill="#3B2519" d="M31.965 45.896c1.201 0 2.174 1.065 2.174 2.381 0 1.314-.973 2.381-2.174 2.381-1.2 0-2.174-1.067-2.174-2.38 0-1.317.973-2.382 2.174-2.382" transform="translate(16 21)"/>
            <path fill="#FFF" d="M31.017 46.576c.36 0 .65.29.65.649 0 .36-.29.65-.65.65-.359 0-.65-.29-.65-.65 0-.358.291-.65.65-.65" transform="translate(16 21)"/>
            <path fill="#7F786A" d="M28.488 42.377c1.027.514 2.678-1.747 6.456.22.69.358 1.1-3.067-2.95-3.067-3.506 0-4.128 2.536-3.506 2.847" transform="translate(16 21)"/>
            <path fill="#3B2519" d="M51.796 45.896c1.201 0 2.174 1.065 2.174 2.381 0 1.314-.973 2.381-2.174 2.381s-2.174-1.067-2.174-2.38c0-1.317.973-2.382 2.174-2.382" transform="translate(16 21)"/>
            <path fill="#FFF" d="M50.848 46.576c.36 0 .65.29.65.649 0 .36-.29.65-.65.65-.359 0-.65-.29-.65-.65 0-.358.291-.65.65-.65" transform="translate(16 21)"/>
            <path fill="#7F786A" d="M55.005 42.377c-1.028.514-2.678-1.747-6.457.22-.688.358-1.099-3.067 2.951-3.067 3.506 0 4.127 2.536 3.506 2.847" transform="translate(16 21)"/>
            <path fill="#FCBC85" d="M41.746 56.651c-2.148 0-3.442-1.604-3.442-.828 0 .776.621 2.252 3.442 2.252s3.442-1.476 3.442-2.252c0-.776-1.294.828-3.442.828M41.746 63.79c-.743 0-1.19-.556-1.19-.287 0 .269.214.779 1.19.779s1.19-.51 1.19-.78c0-.268-.447.288-1.19.288" transform="translate(16 21)"/>
            <path fill="#F7945E" d="M41.746 61.811c-3.405 0-5.456-1.387-5.456-1.035 0 .351.985 1.734 5.456 1.734s5.456-1.383 5.456-1.734c0-.352-2.05 1.035-5.456 1.035" transform="translate(16 21)"/>
            <path fill="#2A428C" d="M46.91 72.756c-.057.07-1.573 1.865-5.164 1.865-3.596 0-5.111-1.801-5.165-1.865-.83.14-1.655.298-2.472.494.017.023 2.787 3.597 7.637 3.597 4.492 0 7.478-3.061 7.91-3.531-.906-.226-1.824-.405-2.745-.56" transform="translate(16 21)"/>
            <path fill="#7F786A" d="M58.257 22.14s-7.453-9.472-22.943-5.9c-15.49 3.57-16.651 12.886-16.185 21.951.466 9.064 1.708 14.382 3.177 13.724 1.469-.657.705-6.64.86-8.02.155-1.382 1.553-7.626 10.974-6.694 9.42.931 17.359-2.485 17.359-2.485s3.196 4.04 5.299 4.814c4.203 1.547 2.824 11.857 4.47 11.857 1.648 0 9.72-23.813-3.011-29.247" transform="translate(16 21)"/>
            <path fill="#FBBF00" d="M58.644 54.517c8.562 0 15.502 6.94 15.502 15.502 0 8.561-6.94 15.502-15.502 15.502-8.562 0-15.502-6.94-15.502-15.502 0-8.562 6.94-15.502 15.502-15.502" transform="translate(16 21)"/>
            <path fill="#FFDB0C" d="M57.131 75.915c-.409 0-.8-.166-1.085-.46l-4.916-5.063c-.588-.594-.583-1.552.011-2.14.594-.587 1.551-.582 2.14.012l.02.02 3.792 3.907 6.86-7.57c.57-.61 1.527-.643 2.137-.073.6.558.645 1.49.105 2.105l-7.94 8.766c-.283.31-.68.489-1.098.496h-.026z" transform="translate(16 21)"/>
        </g>
    </g>
</svg>
