<svg xmlns="http://www.w3.org/2000/svg" xmlns:xlink="http://www.w3.org/1999/xlink" width="364" height="288" viewBox="0 0 364 288">
    <defs>
        <path id="prefix__a" d="M14.76 17.873c-.18.55-.346 1.105-.443 1.673-.339 1.96.194 4.032 1.408 5.481 1.214 1.45 3.086 2.247 4.95 2.109-4.937.788-7.5-1.611-10.826-5.548l-3.33 9.42c-.27.76-.543 1.55-.509 2.35.068 1.556 1.25 2.717 2.348 3.707l-3.984-.394c.136 3.238-1.16 6.385-2.282 9.455-1.123 3.072-2.108 6.42-1.34 9.53.613 2.481 2.266 4.473 3.996 6.227.756.769 1.565 1.523 2.444 2.137 1.49 1.043 3.461 1.082 5.022.024.8-.543 1.826-1.111 2.942-1.419 2.235-.614 1.263 4.686 3.392 5.48 2.13.795 4.507.466 6.784.13 1.696-.252 3.467-.533 4.892-1.587 1.65-1.222 2.553-3.263 3.376-5.201l2.646-6.222c.606-1.425 1.228-2.95 1.027-4.466-.202-1.517-1.597-2.905-2.995-2.425l3.628-1.466.926-12.66c.056-.784.103-1.622-.266-2.284-.683-1.226-2.339-1.218-3.704-1.077-1.366.138-3.03.11-3.671-1.144 2.183-.588 4.562-1.314 5.887-3.275.86-1.272 1.126-2.866 1.243-4.4.59-7.73-3.613-16.885-7.265-20.797C30.758.912 29.634.25 29.634.25 22.776 3.743 17.261 10.278 14.76 17.873"/>
        <path id="prefix__d" d="M16.422 17.873c-.18.55-.346 1.105-.443 1.673-.339 1.96.194 4.032 1.408 5.481 1.214 1.45 3.086 2.247 4.95 2.109-4.936.788-7.5-1.611-10.826-5.548l-3.33 9.42c-.27.76-.543 1.55-.509 2.35.068 1.556 1.25 2.717 2.348 3.707l-3.984-.394c.136 3.238-3.66 7.06-4.783 10.131-1.123 3.07-.956 5.823-.188 8.935.612 2.48 3.615 4.392 5.345 6.146.756.769 1.566 1.523 2.444 2.137 1.49 1.043 3.461 1.082 5.022.024.8-.543 1.826-1.111 2.942-1.419.204-.055.536-.028.536-.028L31.297.25c-6.86 3.493-12.374 10.028-14.875 17.623"/>
        <path id="prefix__g" d="M70.016.537c-1.755.386-3.308 1.4-4.693 2.544-4.034 3.336-6.975 7.974-8.252 13.049-.177.701-.668 1.324-1.37 1.5-1.217.302-1.844-.963-1.714-1.98.108-.846.565-1.601.818-2.414 1.223-3.915-3.181-8.98-8.01-5.4-.878.65-1.586 1.537-1.86 2.594-.312 1.209-.333 2.293-.31 3.545.027 1.576.23 1.85-1.008 2.976-.728.663-1.808.905-2.682.45-1.46-.76-1.557-1.079-1.888-2.62-.69-3.21-4.383-5.42-7.543-4.518-3.467.991-5.491 5.501-3.594 8.694.39.657.57 1.445.356 2.178-.458 1.563-2.043 1.336-2.88.542-.612-.58-.943-1.384-1.341-2.127-1.49-2.78-4.357-4.979-7.516-4.982-3.16-.002-8.059 4.138-9.85 6.736-3.502 5.075-5.252 7.528-6.163 10.758-.656 2.325.703 8.85 2.234 9.974 1.596 1.17 17.514 3.595 27.104 4.793 1.965.246 5.855-.085 7.343-1.392 1.488-1.307 1.948-3.801.676-5.317-1.18-1.404-3.282-2.435-2.15-3.597.718-.735 2.06.186 2.76.784 2.06 1.763 1.715 1.982 3.76 3.763 2.447 2.132 6.37 3.299 8.742.41.745-.905 1.12-2.075 1.133-3.246.017-1.622-.498-3.066-1.3-4.358-.365-.584.282-1.263.872-.908 2.093 1.258 4.243 2.422 6.441 3.486 2.042.99 4.23 1.913 6.494 1.755 2.264-.156 4.586-1.74 4.82-3.996.161-1.525-.676-3.046-1.906-3.965-1.23-.918-2.799-1.294-4.333-1.335-.764-.02-1.55.033-2.273-.212-.723-.245-1.383-.895-1.338-1.657.049-.807.87-1.385 1.673-1.47.805-.088 1.598.187 2.373.414 3.802 1.114 7.917 1.135 11.73.063 1.358-.382 2.715-.923 3.74-1.893 1.024-.97 1.66-2.443 1.321-3.812-.528-2.143-3.111-3.122-5.317-2.99-2.206.133-4.321 1.012-6.53 1.09-1.448.052-3.274-.59-3.066-2.25.103-.822.703-1.502 1.463-1.834 2.862-1.252 6.036-2.494 7.978-5.01 1.7-2.202 2.082-5.679.087-7.618-.952-.927-2.29-1.35-3.632-1.35-.472 0-.944.053-1.399.153"/>
        <path id="prefix__i" d="M55.742.203c-.943.48-2.068.727-3.12.851-1.99.233-4.18.325-5.66 1.675-.599.547-1.026 1.262-1.639 1.791-.613.53-1.543.843-2.231.415-.476-.295-.57-1.023-.319-1.465.165-.286.011-.657-.306-.749-2.282-.663-5.224 1.118-4.912 3.782.067.567.034 1.148-.217 1.66-1.295 2.645-3.52.913-3.536-.748-.009-.9.402-1.726.904-2.496.255-.387.005-.922-.46-.956-2.385-.17-4.897 2.263-4.038 4.767.21.612.309 1.272.152 1.9-.54 2.147-2.903 1.248-3.35-.205-.24-.78-.116-1.592.126-2.385.19-.625-.26-1.282-.915-1.272-1.04.017-2.072.29-2.944.854-1.244.802-2.107 2.227-2.087 3.706.013.975.386 1.903.643 2.841.308 1.125.44 2.4-.371 3.348-.459.535-1.213.785-1.858.498-1.046-.464-1.018-1.754-.886-2.8l.548-4.394c.06-.477-.392-.855-.854-.716-1.878.564-3.746 1.235-5.247 2.478-1.761 1.46-2.895 3.93-2.102 6.076.469 1.27 1.53 2.257 1.965 3.539.133.393.157.84.085 1.267-.213 1.27-1.938 1.505-2.542.367-.87-1.641-1.4-3.462-1.544-5.312-.04-.506-.623-.763-1.013-.438-.814.678-1.577 1.41-2.13 2.305-.77 1.249-1.065 2.895-.36 4.183.87 1.593 2.974 2.207 3.461 4.17.19.766-.15 1.61-.876 1.92-1.198.515-2.224-.764-2.605-1.926-.254-.776-.458-1.659-.92-2.297-.297-.414-.907-.437-1.239-.052-.78.907-1.506 1.87-1.854 3.004-.514 1.673.032 3.834 1.961 4.27.525.118 1.02.37 1.394.757 1.38 1.434-.494 2.76-1.782 2.333-.646-.213-1.146-.68-1.57-1.227-.277-.357-.845-.207-.904.24-.562 4.272.012 8.692 1.66 12.676l.277.977c2.11-.509 4.918-1.002 6.16-2.704.232-.32.17-.762-.1-1.051-.776-.823-1.873-2.31-1.819-3.034.066-.882.784-1.724 1.67-1.763.886-.04 4.166 3.58 4.978 3.932 1.235.536 3.688-2.432 4.81-3.912.29-.381.136-.927-.308-1.105-1.604-.642-4.106-1.969-5.215-2.232-.79-.188-1.717-.494-1.82-1.378-.073-.623.369-1.184.96-1.395 1.05-.374 2.049.136 2.963.628 0 0 4.451 3.115 6.564 3.036 2.485-.092 3.527-.713 5.434-1.933.365-.233.562-.67.471-1.093-.672-3.132-3.841-5.283-6.948-5.074-1.162.078-2.487.414-3.348-.431-.711-.701-.675-1.853-.033-2.617 1.017-1.211 2.774-1.118 4.067-.417 1.095.593 1.939 1.551 2.78 2.47.842.916 1.742 1.838 2.891 2.318 1.707.714 3.717.327 5.331-.574 1.616-.903 2.915-2.264 4.189-3.606.354-.373.735-.819.676-1.33-.076-.68-.848-1.015-1.503-1.216-2.319-.714-4.636-1.43-6.955-2.143-.58-.178-1.17-.363-1.663-.715-.73-.522-1.227-1.493-.544-2.403.325-.432.84-.69 1.378-.749 1.156-.126 2.174.496 3.124 1.096 2.505 1.58 4.687 3.863 7.515 4.74.391.122 2.12-1.177 2.781-1.894 3.015-3.279 4.054-4.497-.283-4.921l-3.782-.806c-.925-.198-2.009-.525-2.198-1.517-.14-.745.34-1.464 1.047-1.737 1.31-.502 2.539.17 3.63.843 1.176.724 2.35 1.489 3.675 1.88 1.323.391 2.85.358 3.975-.441.52-.37.91-.93 1.103-1.536.209-.658-.47-1.215-1.096-.927-.794.365-1.964.102-2.943-.569-.795-.544-1.09-1.666-.537-2.455.206-.292.472-.537.766-.74 2.126-1.46 2.6 1.312 5.141 1.76 1.363.24 2.93-.535 3.394-1.61.268-.62-.383-1.298-1.003-1.028-.45.197-1.006.145-1.363-.312-.378-.487-.403-1.142-.004-1.612.327-.385.849-.626 1.318-.863C54 5.19 55.74 3.345 56.76 1.17c.244-.521-.174-1.05-.677-1.05-.112 0-.227.025-.341.083"/>
        <path id="prefix__k" d="M0.268 0.651L76.873 0.651 76.873 60.833 0.268 60.833z"/>
        <path id="prefix__m" d="M1.634 2.25C.598 3.245.018 4.58-.002 6.007c-.041 2.944 2.346 5.374 5.322 5.417h.079c1.41 0 2.742-.534 3.755-1.508C10.19 8.92 10.77 7.588 10.79 6.16 10.83 3.215 8.443.787 5.468.743L5.366.742c-1.4 0-2.724.54-3.732 1.508m3.708 7.635c-2.127-.032-3.833-1.761-3.804-3.856.014-1.014.427-1.962 1.164-2.67.724-.696 1.677-1.077 2.687-1.077h.058c2.126.03 3.832 1.76 3.802 3.856-.014 1.014-.427 1.962-1.163 2.67-.721.691-1.654 1.077-2.672 1.077h-.072"/>
        <path id="prefix__p" d="M.605 4.04C.477 6.12 2.163 7.91 4.37 8.037c2.207.129 4.1-1.453 4.228-3.533.128-2.08-1.557-3.872-3.765-4C4.75.501 4.666.5 4.583.5 2.485.499.728 2.039.605 4.039"/>
        <path id="prefix__s" d="M2.888.105C1.477.129.354 1.3.38 2.72c.026 1.42 1.19 2.55 2.6 2.524 1.411-.027 2.534-1.198 2.508-2.618C5.463 1.223 4.325.104 2.935.104h-.047"/>
        <linearGradient id="prefix__b" x1="100%" x2="0%" y1="50%" y2="50%">
            <stop offset="0%" stop-color="#FFB218"/>
            <stop offset="100%" stop-color="#FFCF44"/>
        </linearGradient>
        <linearGradient id="prefix__e" x1="55.238%" x2="43.306%" y1="-3.957%" y2="99.994%">
            <stop offset="0%" stop-color="#FFB218"/>
            <stop offset="100%" stop-color="#FFCF44"/>
        </linearGradient>
        <linearGradient id="prefix__n" x1="100.006%" x2=".003%" y1="50.003%" y2="50.003%">
            <stop offset="0%" stop-color="#FFB218"/>
            <stop offset="100%" stop-color="#FFCF44"/>
        </linearGradient>
        <linearGradient id="prefix__q" x1="100%" x2=".001%" y1="49.998%" y2="49.998%">
            <stop offset="0%" stop-color="#FFB218"/>
            <stop offset="100%" stop-color="#FFCF44"/>
        </linearGradient>
        <linearGradient id="prefix__t" x1="100.003%" x2=".004%" y1="49.987%" y2="49.987%">
            <stop offset="0%" stop-color="#FFB218"/>
            <stop offset="100%" stop-color="#FFCF44"/>
        </linearGradient>
    </defs>
    <g fill="none" fill-rule="evenodd">
        <path fill="#FFF4DD" d="M270.049 242.22L307.988 242.22 307.988 138.08 270.049 138.08zM104.403 249.584L300.703 249.584 300.703 242.22 104.403 242.22z" transform="translate(0 .83)"/>
        <path fill="#FFF4DD" d="M97.118 183.247L270.713 183.247 270.713 145.13 97.118 145.13zM97.118 228.316L270.713 228.316 270.713 190.199 97.118 190.199z" transform="translate(0 .83)"/>
        <path fill="#F7E8C8" d="M270.049 183.247L276.612 183.247 276.612 145.13 270.049 145.13zM270.049 228.316L276.612 228.316 276.612 190.199 270.049 190.199z" transform="translate(0 .83)"/>
        <path fill="#FFF4DD" d="M92.063 138.081L270.048 138.081 270.048 131.673 92.063 131.673z" transform="translate(0 .83)"/>
        <path fill="#F7E8C8" d="M270.048 138.081L313.289 138.081 313.289 131.673 270.048 131.673z" transform="translate(0 .83)"/>
        <path fill="#FFF4DD" d="M206.362 112.082L311.932 112.082 311.932 0 206.362 0z" transform="translate(0 .83)"/>
        <path fill="#FFF" d="M215.207 103.25L303.089 103.25 303.089 8.833 215.207 8.833z" transform="translate(0 .83)"/>
        <path fill="#F7E8C8" d="M268.878 66.262L285.674 58.486 285.674 53.592 268.878 45.804 268.878 51.658 279.085 56.049 268.878 60.442zM257.928 43.544L254.858 43.544 260.296 68.537 263.337 68.537zM249.417 60.442L239.21 56.049 249.417 51.659 249.417 45.803 232.621 53.592 232.621 58.487 249.417 66.262z" transform="translate(0 .83)"/>
        <path fill="#FFF4DD" d="M50.78 249.584L56.633 249.584 56.633 59.374 50.78 59.374z" transform="translate(0 .83)"/>
        <g>
            <path fill="#FFF4DD" d="M37.932 235.081l-.16-.815c.063-.013 1.597-.352 2.765-2.416 1.522-2.69 2.446-8.421-1.784-20.443-6.52-18.52-2.628-33.466 5.123-63.242 1.35-5.186 2.88-11.065 4.469-17.411 5.956-23.794.446-38.551-3.981-50.41-3.437-9.205-6.15-16.477-2.677-24.9l.768.317c-3.35 8.121-.686 15.257 2.688 24.293 4.466 11.966 10.026 26.857 4.009 50.9-1.59 6.351-3.121 12.231-4.471 17.42-7.71 29.613-11.579 44.477-5.145 62.758 4.352 12.361 3.327 18.335 1.7 21.169-1.365 2.38-3.226 2.765-3.304 2.78" transform="translate(0 .83) translate(11.635 13.177)"/>
            <path fill="#FFF4DD" d="M31.481 236.407L52.661 236.407 46.772 232.941 37.37 232.941zM.17 70.42L83.973 70.42 74.75.088 9.392.088zM124.465 82.013L169.208 82.013 163.319 118.495 130.354 118.495z" transform="translate(0 .83) translate(11.635 13.177)"/>
            <path fill="#F7E8C8" d="M154.303 81.676c-9.336-6.345-15.953-13.697-5.122-21.446 10.83-7.75 24.183-3.778 32.21 3.422 10.23 9.18 4.326 25.29 4.326 25.29s-22.08-.922-31.414-7.266" transform="translate(0 .83) translate(11.635 13.177)"/>
            <path fill="#FAFAFA" d="M157.547 38.67c-6.486.442-12.1-.537-9.955-7.893 2.146-7.356 9.608-10.298 15.806-9.888 7.901.524 10.963 9.916 10.963 9.916s-10.328 7.424-16.814 7.866" transform="translate(0 .83) translate(11.635 13.177)"/>
        </g>
        <g transform="translate(0 .83) translate(280.064 121.904)">
            <mask id="prefix__c" fill="#fff">
                <use xlink:href="#prefix__a"/>
            </mask>
            <path fill="url(#prefix__b)" d="M14.76 17.873c-.18.55-.346 1.105-.443 1.673-.339 1.96.194 4.032 1.408 5.481 1.214 1.45 3.086 2.247 4.95 2.109-4.937.788-7.5-1.611-10.826-5.548l-3.33 9.42c-.27.76-.543 1.55-.509 2.35.068 1.556 1.25 2.717 2.348 3.707l-3.984-.394c.136 3.238-1.16 6.385-2.282 9.455-1.123 3.072-2.108 6.42-1.34 9.53.613 2.481 2.266 4.473 3.996 6.227.756.769 1.565 1.523 2.444 2.137 1.49 1.043 3.461 1.082 5.022.024.8-.543 1.826-1.111 2.942-1.419 2.235-.614 1.263 4.686 3.392 5.48 2.13.795 4.507.466 6.784.13 1.696-.252 3.467-.533 4.892-1.587 1.65-1.222 2.553-3.263 3.376-5.201l2.646-6.222c.606-1.425 1.228-2.95 1.027-4.466-.202-1.517-1.597-2.905-2.995-2.425l3.628-1.466.926-12.66c.056-.784.103-1.622-.266-2.284-.683-1.226-2.339-1.218-3.704-1.077-1.366.138-3.03.11-3.671-1.144 2.183-.588 4.562-1.314 5.887-3.275.86-1.272 1.126-2.866 1.243-4.4.59-7.73-3.613-16.885-7.265-20.797C30.758.912 29.634.25 29.634.25 22.776 3.743 17.261 10.278 14.76 17.873" mask="url(#prefix__c)"/>
        </g>
        <g transform="translate(0 .83) translate(278.402 121.904)">
            <mask id="prefix__f" fill="#fff">
                <use xlink:href="#prefix__d"/>
            </mask>
            <path fill="url(#prefix__e)" d="M16.422 17.873c-.18.55-.346 1.105-.443 1.673-.339 1.96.194 4.032 1.408 5.481 1.214 1.45 3.086 2.247 4.95 2.109-4.936.788-7.5-1.611-10.826-5.548l-3.33 9.42c-.27.76-.543 1.55-.509 2.35.068 1.556 1.25 2.717 2.348 3.707l-3.984-.394c.136 3.238-3.66 7.06-4.783 10.131-1.123 3.07-.956 5.823-.188 8.935.612 2.48 3.615 4.392 5.345 6.146.756.769 1.566 1.523 2.444 2.137 1.49 1.043 3.461 1.082 5.022.024.8-.543 1.826-1.111 2.942-1.419.204-.055.536-.028.536-.028L31.297.25c-6.86 3.493-12.374 10.028-14.875 17.623" mask="url(#prefix__f)"/>
        </g>
        <g transform="translate(0 .83) translate(276.74 229.8)">
            <mask id="prefix__h" fill="#fff">
                <use xlink:href="#prefix__g"/>
            </mask>
            <path fill="#F7E8C8" d="M70.016.537c-1.755.386-3.308 1.4-4.693 2.544-4.034 3.336-6.975 7.974-8.252 13.049-.177.701-.668 1.324-1.37 1.5-1.217.302-1.844-.963-1.714-1.98.108-.846.565-1.601.818-2.414 1.223-3.915-3.181-8.98-8.01-5.4-.878.65-1.586 1.537-1.86 2.594-.312 1.209-.333 2.293-.31 3.545.027 1.576.23 1.85-1.008 2.976-.728.663-1.808.905-2.682.45-1.46-.76-1.557-1.079-1.888-2.62-.69-3.21-4.383-5.42-7.543-4.518-3.467.991-5.491 5.501-3.594 8.694.39.657.57 1.445.356 2.178-.458 1.563-2.043 1.336-2.88.542-.612-.58-.943-1.384-1.341-2.127-1.49-2.78-4.357-4.979-7.516-4.982-3.16-.002-8.059 4.138-9.85 6.736-3.502 5.075-5.252 7.528-6.163 10.758-.656 2.325.703 8.85 2.234 9.974 1.596 1.17 17.514 3.595 27.104 4.793 1.965.246 5.855-.085 7.343-1.392 1.488-1.307 1.948-3.801.676-5.317-1.18-1.404-3.282-2.435-2.15-3.597.718-.735 2.06.186 2.76.784 2.06 1.763 1.715 1.982 3.76 3.763 2.447 2.132 6.37 3.299 8.742.41.745-.905 1.12-2.075 1.133-3.246.017-1.622-.498-3.066-1.3-4.358-.365-.584.282-1.263.872-.908 2.093 1.258 4.243 2.422 6.441 3.486 2.042.99 4.23 1.913 6.494 1.755 2.264-.156 4.586-1.74 4.82-3.996.161-1.525-.676-3.046-1.906-3.965-1.23-.918-2.799-1.294-4.333-1.335-.764-.02-1.55.033-2.273-.212-.723-.245-1.383-.895-1.338-1.657.049-.807.87-1.385 1.673-1.47.805-.088 1.598.187 2.373.414 3.802 1.114 7.917 1.135 11.73.063 1.358-.382 2.715-.923 3.74-1.893 1.024-.97 1.66-2.443 1.321-3.812-.528-2.143-3.111-3.122-5.317-2.99-2.206.133-4.321 1.012-6.53 1.09-1.448.052-3.274-.59-3.066-2.25.103-.822.703-1.502 1.463-1.834 2.862-1.252 6.036-2.494 7.978-5.01 1.7-2.202 2.082-5.679.087-7.618-.952-.927-2.29-1.35-3.632-1.35-.472 0-.944.053-1.399.153" mask="url(#prefix__h)"/>
        </g>
        <path fill="#619440" d="M303.882 200.208c1.657-10.184 7.245-19.68 15.703-26.422 5.116-4.078 11.216-7.238 17.755-9.062.17-5.577 5.057-10.65 10.68-11.062.115-.59.66-1.098 1.346-1.284.42-.115 1.033-.038 1.28.358.35.562.561 1.107.523 1.758-.03.486-.618.835-1.106.808-.175-.011-.322-.06-.454-.124-.481.09-1.008-.048-1.35-.518-.075-.101-.125-.204-.167-.307-2.427.707-4.68 1.57-6.604 3.378-1.876 1.764-3.022 4.187-3.142 6.736l.02-.006c.037-.044.094-.06.158-.04l.264-.068c1.035-1.636 3.025-3.042 4.553-3.932 1.536-.895 3.336-1.727 5.151-1.926-.014-.382.113-.77.353-1.082.295-.38.942-.436 1.354-.192.034.019.066.044.097.068.426.212.747.73.904 1.084.208.473-.084.99-.576 1.174l-.548.204c-.449.167-.882-.03-1.185-.333-.092-.092-.162-.193-.222-.298-1.78.693-3.57 1.228-5.229 2.294-1.001.644-1.94 1.379-2.776 2.226-.115.117-.22.24-.328.361 2.833-.6 5.73-.948 8.65-1.009.082-.37.33-.69.784-.798.206-.05.415-.038.605.011.2-.01.41.033.598.159.945.632.442 2.05-.637 2.212-.765.116-1.259-.454-1.36-1.072-2.834.272-5.659.723-8.424 1.38 1.006.196 2.011.491 2.916.66 1.934.362 3.987.549 5.893 1.083.045-.09.098-.179.165-.264.2-.253.566-.339.895-.273.037-.002.072-.001.107.008.838.236.936 1.257.562 1.862-.256.414-.892.657-1.341.278-.319-.267-.491-.602-.52-.948-1.89-.048-3.82-.493-5.663-.811-1.057-.181-2.318-.283-3.492-.547.212.247.423.491.65.718.736.74 1.544 1.402 2.411 1.982 1.59 1.061 3.325 1.59 5.035 2.318-.05-.481.44-.923.94-.962.41-.03.738.158.942.44.195.187.332.416.421.665.146.4.027.848-.353 1.099-.355.234-.926.242-1.266-.04-.19-.159-.334-.322-.442-.502-2.076-.118-4.262-1.265-5.917-2.39-1.245-.849-2.915-2.09-3.73-3.556-.159.122-.315.046-.402-.09.008.098.003.193.014.289.334 3.078 2.121 5.732 4.794 7.281 2.042 1.185 4.19 1.52 6.432 1.536-.006-.322.095-.627.341-.854.518-.478 1.434-.435 1.728.269.008.02.011.04.018.058.3.187.555.445.67.75.24.636-.102 1.353-.826 1.525-.713.172-1.376-.317-1.709-.946-5.59 1.208-11.615-3.652-12.407-9.113-.033-.22-.036-.44-.053-.66-1.855.556-3.676 1.196-5.439 1.945-9.725 4.132-17.807 11.133-22.55 19.938-5.008 9.297-6.282 17.239-4.473 27.445.029.168-.228.239-.285.069-1.903-5.59-1.667-9.21-.736-14.938" transform="translate(0 .83)"/>
        <g transform="translate(0 .83) translate(290.037 181.662)">
            <mask id="prefix__j" fill="#fff">
                <use xlink:href="#prefix__i"/>
            </mask>
            <path fill="#FFBF4D" d="M55.742.203c-.943.48-2.068.727-3.12.851-1.99.233-4.18.325-5.66 1.675-.599.547-1.026 1.262-1.639 1.791-.613.53-1.543.843-2.231.415-.476-.295-.57-1.023-.319-1.465.165-.286.011-.657-.306-.749-2.282-.663-5.224 1.118-4.912 3.782.067.567.034 1.148-.217 1.66-1.295 2.645-3.52.913-3.536-.748-.009-.9.402-1.726.904-2.496.255-.387.005-.922-.46-.956-2.385-.17-4.897 2.263-4.038 4.767.21.612.309 1.272.152 1.9-.54 2.147-2.903 1.248-3.35-.205-.24-.78-.116-1.592.126-2.385.19-.625-.26-1.282-.915-1.272-1.04.017-2.072.29-2.944.854-1.244.802-2.107 2.227-2.087 3.706.013.975.386 1.903.643 2.841.308 1.125.44 2.4-.371 3.348-.459.535-1.213.785-1.858.498-1.046-.464-1.018-1.754-.886-2.8l.548-4.394c.06-.477-.392-.855-.854-.716-1.878.564-3.746 1.235-5.247 2.478-1.761 1.46-2.895 3.93-2.102 6.076.469 1.27 1.53 2.257 1.965 3.539.133.393.157.84.085 1.267-.213 1.27-1.938 1.505-2.542.367-.87-1.641-1.4-3.462-1.544-5.312-.04-.506-.623-.763-1.013-.438-.814.678-1.577 1.41-2.13 2.305-.77 1.249-1.065 2.895-.36 4.183.87 1.593 2.974 2.207 3.461 4.17.19.766-.15 1.61-.876 1.92-1.198.515-2.224-.764-2.605-1.926-.254-.776-.458-1.659-.92-2.297-.297-.414-.907-.437-1.239-.052-.78.907-1.506 1.87-1.854 3.004-.514 1.673.032 3.834 1.961 4.27.525.118 1.02.37 1.394.757 1.38 1.434-.494 2.76-1.782 2.333-.646-.213-1.146-.68-1.57-1.227-.277-.357-.845-.207-.904.24-.562 4.272.012 8.692 1.66 12.676l.277.977c2.11-.509 4.918-1.002 6.16-2.704.232-.32.17-.762-.1-1.051-.776-.823-1.873-2.31-1.819-3.034.066-.882.784-1.724 1.67-1.763.886-.04 4.166 3.58 4.978 3.932 1.235.536 3.688-2.432 4.81-3.912.29-.381.136-.927-.308-1.105-1.604-.642-4.106-1.969-5.215-2.232-.79-.188-1.717-.494-1.82-1.378-.073-.623.369-1.184.96-1.395 1.05-.374 2.049.136 2.963.628 0 0 4.451 3.115 6.564 3.036 2.485-.092 3.527-.713 5.434-1.933.365-.233.562-.67.471-1.093-.672-3.132-3.841-5.283-6.948-5.074-1.162.078-2.487.414-3.348-.431-.711-.701-.675-1.853-.033-2.617 1.017-1.211 2.774-1.118 4.067-.417 1.095.593 1.939 1.551 2.78 2.47.842.916 1.742 1.838 2.891 2.318 1.707.714 3.717.327 5.331-.574 1.616-.903 2.915-2.264 4.189-3.606.354-.373.735-.819.676-1.33-.076-.68-.848-1.015-1.503-1.216-2.319-.714-4.636-1.43-6.955-2.143-.58-.178-1.17-.363-1.663-.715-.73-.522-1.227-1.493-.544-2.403.325-.432.84-.69 1.378-.749 1.156-.126 2.174.496 3.124 1.096 2.505 1.58 4.687 3.863 7.515 4.74.391.122 2.12-1.177 2.781-1.894 3.015-3.279 4.054-4.497-.283-4.921l-3.782-.806c-.925-.198-2.009-.525-2.198-1.517-.14-.745.34-1.464 1.047-1.737 1.31-.502 2.539.17 3.63.843 1.176.724 2.35 1.489 3.675 1.88 1.323.391 2.85.358 3.975-.441.52-.37.91-.93 1.103-1.536.209-.658-.47-1.215-1.096-.927-.794.365-1.964.102-2.943-.569-.795-.544-1.09-1.666-.537-2.455.206-.292.472-.537.766-.74 2.126-1.46 2.6 1.312 5.141 1.76 1.363.24 2.93-.535 3.394-1.61.268-.62-.383-1.298-1.003-1.028-.45.197-1.006.145-1.363-.312-.378-.487-.403-1.142-.004-1.612.327-.385.849-.626 1.318-.863C54 5.19 55.74 3.345 56.76 1.17c.244-.521-.174-1.05-.677-1.05-.112 0-.227.025-.341.083" mask="url(#prefix__j)"/>
        </g>
        <g transform="translate(0 .83) translate(286.712 204.9)">
            <mask id="prefix__l" fill="#fff">
                <use xlink:href="#prefix__k"/>
            </mask>
            <path fill="#619440" d="M.268 60.833c4.579-3.204 10.07-9.48 14.639-11.447 1.272-.549 3.678-1.07 4.898-1.726 1.22-.655 2.177-2.013 1.917-3.373-.272-1.419-2.2-2.965-2.211-2.974-1.274-.989-.072-2.998 1.423-2.393l7.373 3.028c1.34.54 2.718 1.091 4.162 1.102 1.445.01 2.989-.64 3.615-1.942.797-1.658-.16-3.651-1.444-4.97-1.525-1.564-3.544-2.676-4.443-4.767-.411-.958-.46-2.083.027-3.006.9-1.708 2.841-1.65 4.248-.914 1.037.544 1.866 1.402 2.744 2.176 2.55 2.248 5.647 3.872 8.95 4.692 1.963.487 4.141.673 5.846-.652.863-.671 1.39-1.762 1.235-2.842-.293-2.038-2.46-2.724-4.177-3.573l-.048-.023c-1.629-.828-.438-3.314 1.258-2.634 4.073 1.636 8.254 3 12.51 4.08 2.07.527 4.325.977 6.236-.26.92-.597 1.545-1.637 1.475-2.73-.108-1.683-1.549-2.393-2.86-2.982l-5.025-2.257c-.925-.416-.708-1.786.3-1.895l3.524-.386c2.586-.282 5.277-.602 7.46-2.014 2.182-1.411 3.662-4.273 2.646-6.664-.698-1.641-2.413-2.687-4.171-2.988-1.76-.302-3.565.037-5.286.513C62.26 8.35 57.806 10.75 53.328 13c-1.309.657-3.242 1.135-3.95-.144-.532-.958.182-2.17 1.093-2.778 1.475-.986 3.474-1.127 4.028-3.522.359-1.547-.01-3.248-1.138-4.366C51.695.536 48.967.266 46.783 1.137c-2.191.875-3.876 2.72-5.05 4.763-1.177 2.044-1.908 4.305-2.72 6.519-.277.76-.588 1.547-1.2 2.078-.61.531-1.615.7-2.212.154-.51-.467-.525-1.18-.473-1.905.084-1.194-.149-2.414-.748-3.45-2.354-4.067-7.427-2.342-8.434.973-.415 1.37-.189 2.846.133 4.24.322 1.394.74 2.791.699 4.22-.048 1.639-.828 3.384-2.478 3.893-1.15.355-2.48-.145-2.899-1.272-.562-1.513.813-2.898 1.173-4.418.475-2.006-1.08-4.15-3.08-4.652-2.003-.502-4.19.436-5.516 2.016-1.327 1.58-1.878 3.696-1.91 5.757-.034 2.062.41 4.098.877 6.105.253 1.09.507 2.276-.077 3.274-.466.797-1.466 1.192-2.215.65-.678-.493-.603-1.455-.983-2.166-.758-1.417-3.059-1.175-4.088.06-1.03 1.236-1.142 2.969-1.21 4.575l-.617 14.887L.268 60.833z" mask="url(#prefix__l)"/>
            <path fill="#306B34" d="M3.668 49.657c.607-.916 6.592-13.083 28.805-25.093C52.08 13.962 77.077 10.735 76.546 9.488c-.698-1.642-2.413-2.688-4.171-2.99-1.76-.3-3.565.038-5.286.514C62.26 8.349 57.806 10.75 53.328 13c-1.309.657-3.242 1.135-3.952-.144-.53-.958.184-2.17 1.095-2.778 1.475-.985 3.474-1.127 4.028-3.522.358-1.547-.01-3.248-1.138-4.366C51.695.535 48.967.266 46.783 1.137c-2.191.875-3.876 2.72-5.051 4.763-1.176 2.044-1.907 4.305-2.718 6.519-.278.76-.59 1.547-1.2 2.078-.61.53-1.616.7-2.213.154-.51-.467-.525-1.18-.473-1.905.084-1.193-.149-2.414-.748-3.45-2.354-4.067-7.427-2.342-8.433.973-.416 1.369-.19 2.846.133 4.24.321 1.394.738 2.791.698 4.22-.048 1.639-.828 3.383-2.478 3.893-1.15.355-2.48-.145-2.898-1.272-.563-1.513.812-2.898 1.172-4.418.475-2.006-1.08-4.15-3.081-4.652-2.002-.502-4.19.436-5.515 2.016-1.327 1.58-1.878 3.696-1.91 5.757-.034 2.06.41 4.098.877 6.105.253 1.09.507 2.276-.077 3.274-.466.797-1.466 1.192-2.214.65-.68-.493-.604-1.455-.984-2.166-.757-1.417-3.059-1.175-4.088.06-1.03 1.236-1.143 2.969-1.21 4.575-.205 4.961-.41 9.925-.617 14.887l-.087 2.22z"/>
        </g>
        <g transform="translate(0 .83) translate(343.224 198.261)">
            <mask id="prefix__o" fill="#fff">
                <use xlink:href="#prefix__m"/>
            </mask>
            <path fill="url(#prefix__n)" d="M1.634 2.25C.598 3.245.018 4.58-.002 6.007c-.041 2.944 2.346 5.374 5.322 5.417h.079c1.41 0 2.742-.534 3.755-1.508C10.19 8.92 10.77 7.588 10.79 6.16 10.83 3.215 8.443.787 5.468.743L5.366.742c-1.4 0-2.724.54-3.732 1.508m3.708 7.635c-2.127-.032-3.833-1.761-3.804-3.856.014-1.014.427-1.962 1.164-2.67.724-.696 1.677-1.077 2.687-1.077h.058c2.126.03 3.832 1.76 3.802 3.856-.014 1.014-.427 1.962-1.163 2.67-.721.691-1.654 1.077-2.672 1.077h-.072" mask="url(#prefix__o)"/>
        </g>
        <path fill="#619440" d="M324.315 177.663c-.161 2.626 1.966 4.887 4.753 5.05 2.787.161 5.177-1.837 5.339-4.463.162-2.625-1.967-4.886-4.753-5.048-2.787-.161-5.177 1.835-5.339 4.461" transform="translate(0 .83)"/>
        <g transform="translate(0 .83) translate(331.589 195.771)">
            <mask id="prefix__r" fill="#fff">
                <use xlink:href="#prefix__p"/>
            </mask>
            <path fill="url(#prefix__q)" d="M.605 4.04C.477 6.12 2.163 7.91 4.37 8.037c2.207.129 4.1-1.453 4.228-3.533.128-2.08-1.557-3.872-3.765-4C4.75.501 4.666.5 4.583.5 2.485.499.728 2.039.605 4.039" mask="url(#prefix__r)"/>
        </g>
        <g transform="translate(0 .83) translate(285.881 133.523)">
            <mask id="prefix__u" fill="#fff">
                <use xlink:href="#prefix__s"/>
            </mask>
            <path fill="url(#prefix__t)" d="M2.888.105C1.477.129.354 1.3.38 2.72c.026 1.42 1.19 2.55 2.6 2.524 1.411-.027 2.534-1.198 2.508-2.618C5.463 1.223 4.325.104 2.935.104h-.047" mask="url(#prefix__u)"/>
        </g>
        <g>
            <path fill="#F7E8C8" d="M322.263 256.193c0 5.19-72.14 9.398-161.131 9.398C72.142 265.59 0 261.384 0 256.193c0-5.19 72.141-9.398 161.132-9.398 88.99 0 161.131 4.207 161.131 9.398" transform="translate(0 .83) translate(0 21.477)"/>
            <path fill="#7F786A" d="M19.446 129.241L301.798 129.241 301.798 119.121 19.446 119.121z" transform="translate(0 .83) translate(0 21.477)"/>
            <path fill="#A29C8F" d="M19.446 129.241L95.011 129.241 95.011 119.121 19.446 119.121z" transform="translate(0 .83) translate(0 21.477)"/>
            <path fill="#7F786A" d="M96.22 129.241L89.644 129.241 93.088 256.04 96.22 256.04 99.353 256.04 102.797 129.241z" transform="translate(0 .83) translate(0 21.477)"/>
            <path fill="#A29C8F" d="M93.088 256.041L96.22 256.041 96.22 131.965 89.75 133.146z" transform="translate(0 .83) translate(0 21.477)"/>
            <path fill="#7F786A" d="M33.913 129.241L27.336 129.241 30.781 256.04 33.913 256.04 37.046 256.04 40.49 129.241z" transform="translate(0 .83) translate(0 21.477)"/>
            <path fill="#A29C8F" d="M30.781 256.041L33.913 256.041 33.913 131.965 27.443 133.146z" transform="translate(0 .83) translate(0 21.477)"/>
            <path fill="#7F786A" d="M287.33 129.241L280.753 129.241 284.198 256.04 287.33 256.04 290.462 256.04 293.907 129.241z" transform="translate(0 .83) translate(0 21.477)"/>
            <path fill="#A29C8F" d="M284.198 256.041L287.33 256.041 287.33 131.965 280.859 133.146z" transform="translate(0 .83) translate(0 21.477)"/>
            <path fill="#7F786A" d="M225.023 129.241L218.446 129.241 221.891 256.04 225.023 256.04 228.155 256.04 231.6 129.241z" transform="translate(0 .83) translate(0 21.477)"/>
            <path fill="#A29C8F" d="M221.891 256.041L225.023 256.041 225.023 131.965 218.552 133.146z" transform="translate(0 .83) translate(0 21.477)"/>
            <path fill="#1A2E35" d="M153.47 64.96H86.292c-2.412 0-3.97 1.97-3.465 4.379l8.947 42.619c.505 2.408 2.892 4.378 5.303 4.378h67.178c2.412 0 3.971-1.97 3.466-4.378l-8.947-42.62c-.506-2.408-2.892-4.378-5.304-4.378" transform="translate(0 .83) translate(0 21.477)"/>
            <path fill="#FFF" d="M97.698 113.904c-1.577 0-3.253-1.395-3.586-2.986l-8.948-42.62c-.138-.656-.027-1.246.311-1.662.317-.39.828-.606 1.438-.606h67.178c1.576 0 3.253 1.396 3.588 2.988l8.947 42.618c.137.657.026 1.248-.31 1.663-.324.396-.82.605-1.44.605H97.698z" transform="translate(0 .83) translate(0 21.477)"/>
            <path fill="#FFF4DD" d="M148.385 110.495l-8.476-40.379c-.215-1.023.566-1.982 1.611-1.982h10.9c.78 0 1.452.545 1.612 1.306l8.476 40.38c.215 1.022-.566 1.982-1.61 1.982h-10.902c-.779 0-1.452-.545-1.611-1.307" transform="translate(0 .83) translate(0 21.477)"/>
            <path fill="#FFAF12" d="M90.76 71.637L90.393 69.886 103.855 69.886 104.223 71.637z" transform="translate(0 .83) translate(0 21.477)"/>
            <path fill="#ECECEC" d="M96.974 75.981L96.607 74.229 120.205 74.229 120.573 75.981zM98.217 80.325L97.85 78.574 124.297 78.574 124.665 80.325zM99.46 84.669L99.093 82.918 120.389 82.918 120.757 84.669z" transform="translate(0 .83) translate(0 21.477)"/>
            <path fill="#FFAF12" d="M94.851 91.719L94.483 89.968 103 89.968 103.367 91.719z" transform="translate(0 .83) translate(0 21.477)"/>
            <path fill="#ECECEC" d="M101.065 96.063L100.698 94.312 111.074 94.312 111.441 96.063zM113.926 96.063L113.559 94.312 123.934 94.312 124.302 96.063zM102.308 100.407L101.94 98.656 137.012 98.656 137.379 100.407zM103.551 104.752L103.184 103 129.923 103 130.292 104.752z" transform="translate(0 .83) translate(0 21.477)"/>
            <path fill="#1A2E35" d="M184.834 116.08H96.44c-2.411 0-3.971 1.368-3.466 3.04h97.164c-.506-1.672-2.892-3.04-5.304-3.04" transform="translate(0 .83) translate(0 21.477)"/>
            <path fill="#FFAF12" d="M91.796 13.154L77.387 13.154 77.064 11.605 91.473 11.605z" transform="translate(0 .83) translate(0 21.477)"/>
            <path fill="#F7E8C8" d="M89.453 15.623L83.67 15.623 83.346 14.075 89.13 14.075zM99.077 15.623L90.165 15.623 89.842 14.075 98.754 14.075zM102.961 18.092L84.185 18.092 83.861 16.544 102.638 16.544zM100.572 20.561L84.7 20.561 84.377 19.013 100.249 19.013zM111.101 46.8L100.998 46.8 101.32 48.348 111.424 48.348z" transform="translate(0 .83) translate(0 21.477)"/>
            <path fill="#FFAF12" d="M98.502 43.41L83.703 43.41 83.38 41.862 98.179 41.862z" transform="translate(0 .83) translate(0 21.477)"/>
            <path fill="#F7E8C8" d="M104.457 49.269L90.693 49.269 91.016 50.817 104.78 50.817zM100.281 46.8L90.178 46.8 90.5 48.348 100.604 48.348zM109.869 44.331L89.662 44.331 89.985 45.879 110.192 45.879z" transform="translate(0 .83) translate(0 21.477)"/>
            <path fill="#FFAF12" d="M91.292 1.636L74.983 1.636 74.66 0.088 90.969 0.088z" transform="translate(0 .83) translate(0 21.477)"/>
            <path fill="#F7E8C8" d="M99.34 7.494L81.36 7.494 81.683 9.043 99.663 9.043zM95.742 5.025L80.844 5.025 81.168 6.574 96.065 6.574zM96.736 2.556L80.329 2.556 80.652 4.104 97.06 4.104z" transform="translate(0 .83) translate(0 21.477)"/>
            <path fill="#FFAF12" d="M91.103 24.578L79.772 24.578 79.449 23.03 90.78 23.03z" transform="translate(0 .83) translate(0 21.477)"/>
            <path fill="#F7E8C8" d="M108.905 30.437L86.762 30.437 87.085 31.985 109.228 31.985zM95.42 27.968L86.246 27.968 86.569 29.517 95.743 29.517zM105.376 27.968L96.202 27.968 96.525 29.517 105.699 29.517zM105.938 25.499L85.731 25.499 86.054 27.047 106.261 27.047zM105.899 37.844L88.308 37.844 88.631 39.393 106.222 39.393zM92.907 35.375L87.792 35.375 88.116 36.923 93.231 36.923zM100.914 35.375L93.612 35.375 93.936 36.923 101.237 36.923zM107.484 32.906L87.277 32.906 87.6 34.454 107.807 34.454zM123.406 32.493L116.165 32.493 115.841 30.944 123.082 30.944zM135.455 32.493L124.299 32.493 123.975 30.944 135.131 30.944zM140.188 34.962L116.68 34.962 116.357 33.413 139.865 33.413zM137.067 37.431L117.196 37.431 116.872 35.883 136.744 35.883zM145.964 22.67L123.453 22.67 123.776 24.217 146.287 24.217zM141.589 20.2L122.938 20.2 123.261 21.749 141.913 21.749z" transform="translate(0 .83) translate(0 21.477)"/>
            <path fill="#FFAF12" d="M138.217 17.731L117.675 17.731 117.998 19.28 138.54 19.28z" transform="translate(0 .83) translate(0 21.477)"/>
            <path fill="#F7E8C8" d="M146.98 47.307L119.257 47.307 119.581 48.855 147.304 48.855zM130.227 44.838L118.742 44.838 119.065 46.386 130.55 46.386zM142.691 44.838L131.206 44.838 131.529 46.386 143.015 46.386zM143.525 42.368L118.226 42.368 118.549 43.917 143.848 43.917zM142.827 54.714L120.803 54.714 121.126 56.262 143.15 56.262zM126.692 52.245L120.288 52.245 120.611 53.793 127.015 53.793zM136.716 52.245L127.574 52.245 127.897 53.793 137.039 53.793zM145.071 49.776L119.772 49.776 120.096 51.324 145.395 51.324zM77.694 56.629L60.462 56.629 60.785 58.177 78.017 58.177zM72.595 54.16L59.946 54.16 60.269 55.708 72.919 55.708zM86.142 54.16L73.493 54.16 73.816 55.708 86.465 55.708zM84.729 51.691L59.43 51.691 59.754 53.239 85.053 53.239zM278.269 103L267.6 103 268.843 119.121 277.026 119.121z" transform="translate(0 .83) translate(0 21.477)"/>
            <path fill="#7F786A" d="M278.269 103L267.6 103 268.843 119.121 277.026 119.121zM45.727 91.804L61.066 91.804 55.83 119.12 40.49 119.12z" transform="translate(0 .83) translate(0 21.477)"/>
            <path fill="#FFAF12" d="M65.264 84.482L43.597 84.482 49.661 119.12 71.328 119.12z" transform="translate(0 .83) translate(0 21.477)"/>
            <path fill="#F7E8C8" d="M42.316 84.482L43.597 84.482 49.661 119.12 48.38 119.12z" transform="translate(0 .83) translate(0 21.477)"/>
            <path fill="#E38601" d="M42.316 84.482L43.597 84.482 49.661 119.12 48.38 119.12z" transform="translate(0 .83) translate(0 21.477)"/>
            <path fill="#FFF" d="M52.776 115.418L48.008 88.184 62.15 88.184 66.916 115.418z" transform="translate(0 .83) translate(0 21.477)"/>
            <path fill="#E38601" d="M66.246 115.418L61.478 88.184 62.149 88.184 66.917 115.418z" transform="translate(0 .83) translate(0 21.477)"/>
            <path fill="#57575E" d="M172.575 40.172c.308.665.205 1.368-.23 1.57-.436.2-1.039-.176-1.347-.841-.308-.665-.205-1.368.23-1.57.436-.2 1.038.176 1.347.84" transform="translate(0 .83) translate(0 21.477)"/>
            <path fill="#FFC581" d="M172.84 41.512s.263 4.536-.546 7.158c1.687.554 3.458-.874 3.458-.874l-2.911-6.284z" transform="translate(0 .83) translate(0 21.477)"/>
            <path fill="#57575E" d="M172.656 34.72c-.068.053-.153.088-.247.093-1.899.107-2.703 1.433-2.736 1.49-.12.203-.384.272-.588.154-.205-.12-.276-.38-.158-.585.042-.074 1.054-1.785 3.434-1.918.237-.012.441.169.454.406.009.144-.055.275-.16.36" transform="translate(0 .83) translate(0 21.477)"/>
            <path fill="#FFC581" d="M197.05 39.17c2.568 8.884 5.432 15.787 8.936 19.705 0 0 .063 6.984-11.849 10.304-13.097 3.652-8.074-4.748-8.074-4.748 6.672-3.698 6.015-9.276 1.013-11.399l9.974-13.862z" transform="translate(0 .83) translate(0 21.477)"/>
            <path fill="#57575E" d="M208.762 57.177c-.236-3.25-.539-6.95-2.547-7.044-2.21-.103-15.004 5.606-17.74 9.632-2.733 4.027 2.605 7.968 2.605 7.968l17.682-10.556z" transform="translate(0 .83) translate(0 21.477)"/>
            <path fill="#FFC581" d="M182.562 107.436l-11.052-.363.197 9.245s9.643-.992 10.068-3.523l.787-5.359z" transform="translate(0 .83) translate(0 21.477)"/>
            <path fill="#FFC581" d="M165.668 111.609L164.509 116.336 171.706 116.318 171.51 107.072z" transform="translate(0 .83) translate(0 21.477)"/>
            <path fill="#F7E8C8" d="M226.927 69.01l-.23 2.372c-.075.763-.182 1.515-.278 2.268-.195 1.507-.432 3.003-.69 4.5-.502 2.994-1.15 5.972-1.891 8.97-.779 2.987-1.636 6-2.763 9.024-.574 1.518-1.17 3.037-1.89 4.583-.713 1.548-1.486 3.1-2.494 4.689-.23.39-.511.797-.782 1.197-.266.398-.545.798-.868 1.21-.32.408-.6.8-.978 1.22l-.542.613c-.176.2-.357.402-.616.644-1.927 1.895-3.902 3.037-5.755 3.865-3.706 1.626-7.07 2.247-10.33 2.612-1.624.193-3.224.268-4.802.303-1.577.044-3.135.01-4.68-.078-1.544-.07-3.077-.22-4.6-.397-1.542-.19-2.997-.424-4.616-.75l.267-8.671c5.336-1.058 10.922-2.146 15.709-3.74 1.2-.386 2.34-.832 3.375-1.296 1.038-.45 1.975-.95 2.677-1.445.698-.498 1.154-.978 1.209-1.179l.246-.382c.098-.123.203-.34.31-.512.107-.168.215-.374.324-.59.109-.212.222-.41.327-.655.871-1.844 1.721-4.161 2.401-6.584.68-2.442 1.326-4.993 1.84-7.616.565-2.608 1.013-5.285 1.47-7.967l.632-4.034.569-3.927 17.45 1.753z" transform="translate(0 .83) translate(0 21.477)"/>
            <path fill="#E38601" d="M226.927 69.01l-.23 2.372c-.075.763-.182 1.515-.278 2.268-.195 1.507-.432 3.003-.69 4.5-.502 2.994-1.15 5.972-1.891 8.97-.779 2.987-1.636 6-2.763 9.024-.574 1.518-1.17 3.037-1.89 4.583-.713 1.548-1.486 3.1-2.494 4.689-.23.39-.511.797-.782 1.197-.266.398-.545.798-.868 1.21-.32.408-.6.8-.978 1.22l-.542.613c-.176.2-.357.402-.616.644-1.927 1.895-3.902 3.037-5.755 3.865-3.706 1.626-7.07 2.247-10.33 2.612-1.624.193-3.224.268-4.802.303-1.577.044-3.135.01-4.68-.078-1.544-.07-3.077-.22-4.6-.397-1.542-.19-2.997-.424-4.616-.75l.267-8.671c5.336-1.058 10.922-2.146 15.709-3.74 1.2-.386 2.34-.832 3.375-1.296 1.038-.45 1.975-.95 2.677-1.445.698-.498 1.154-.978 1.209-1.179l.246-.382c.098-.123.203-.34.31-.512.107-.168.215-.374.324-.59.109-.212.222-.41.327-.655.871-1.844 1.721-4.161 2.401-6.584.68-2.442 1.326-4.993 1.84-7.616.565-2.608 1.013-5.285 1.47-7.967l.632-4.034.569-3.927 17.45 1.753z" transform="translate(0 .83) translate(0 21.477)"/>
            <path fill="#FFAF12" d="M177.855 80.006c2.676 11.106 6.132 29.726 6.923 54.07h48.662c.27-6.008-.747-39.807-5.645-64.289-1.862-9.307-11.004-15.328-20.277-13.248l-.234.052c-6.069 1.381-14.793 3.608-19.923 5.555-.07.028-.14.053-.21.08-7.129 2.736-11.083 10.364-9.296 17.78" transform="translate(0 .83) translate(0 21.477)"/>
            <path fill="#E38601" d="M181.018 95.564c.385 2.33.771 4.8 1.13 7.391 3.982-4.15 5.245-16.866 5.245-16.866l-6.375 9.475z" transform="translate(0 .83) translate(0 21.477)"/>
            <path fill="#FFC581" d="M140.595 108.034l-11.01-1.03-.363 9.24s5.67 1.861 10.263-2.909l1.11-5.3z" transform="translate(0 .83) translate(0 21.477)"/>
            <path fill="#FFC581" d="M124.302 109.731L120.757 116.08 129.222 116.243 129.586 107.003z" transform="translate(0 .83) translate(0 21.477)"/>
            <path fill="#FFAF12" d="M196.114 75.78c-.768 1.459-1.446 2.74-2.21 4.07-.75 1.314-1.502 2.622-2.29 3.91-1.559 2.585-3.185 5.131-4.893 7.644-3.418 5.025-7.088 9.934-11.394 14.643-2.142 2.365-4.49 4.659-7.223 6.857-.327.277-.708.548-1.062.818-.37.274-.672.523-1.21.859-.487.323-.974.613-1.462.871-.492.277-.976.508-1.468.726-1.965.86-3.88 1.387-5.72 1.734-3.692.65-7.123.598-10.406.234-1.641-.219-3.244-.469-4.818-.856-.788-.181-1.568-.387-2.344-.624-.798-.229-1.501-.49-2.395-.801l1.376-8.566c5.217-.708 10.859-1.615 14.748-3.37.971-.413 1.807-.897 2.421-1.39.308-.241.592-.463.785-.693.064-.073.315-.298.514-.48.206-.194.41-.358.62-.574 1.667-1.615 3.348-3.548 4.993-5.601 3.275-4.135 6.377-8.726 9.365-13.416 1.496-2.347 2.955-4.738 4.406-7.134l2.148-3.609 2.07-3.539 15.45 8.287z" transform="translate(0 .83) translate(0 21.477)"/>
            <path fill="#FFC581" d="M182.759 249.026L173.661 249.026 169.088 227.985 178.186 227.985z" transform="translate(0 .83) translate(0 21.477)"/>
            <path fill="#57575E" d="M173.156 247.079h10.22c.372 0 .695.258.775.62l1.797 8.077c.187.837-.473 1.63-1.331 1.616-3.569-.062-5.303-.27-9.798-.27-2.765 0-6.314.286-10.133.286-3.734 0-4.317-3.77-2.754-4.113 7.01-1.53 7.502-3.643 9.747-5.658.404-.363.932-.558 1.477-.558" transform="translate(0 .83) translate(0 21.477)"/>
            <path fill="#FFC581" d="M194.135 28.5c3.281 8.401 5.63 13.152 3.441 19.252-3.293 9.179-15.123 10.102-20.851 2.85-5.156-6.529-9.656-19.171-3.156-26.12 6.405-6.848 17.286-4.383 20.566 4.018" transform="translate(0 .83) translate(0 21.477)"/>
            <path fill="#57575E" d="M178.16 41.083c-1.367 1.83-2.408 3.211-2.408 3.211s-2.801-6.947-1.729-10.131c-1.365-2.699-4.115 1.277-5.153-3.978-1.038-5.254 3.453-10.898 5.153-12.066.24.39.227 1.886.227 1.886s6.722-5.984 16.295-5.145c-.657.656-.913 2.445-.913 2.445s9.864 1.69 12.106 7.237c-1.413-.682-2.485-.876-2.485-.876s2.825 3.502 1.997 8.903c-.828 5.4-1.218 11.366-1.12 13.72.097 2.355-6.382 6.86-10.328 2.043-3.946-4.816-11.643-7.25-11.643-7.25" transform="translate(0 .83) translate(0 21.477)"/>
            <path fill="#FFC581" d="M182.277 39.274c.57 2.056.282 4.27-.42 5.895-1.056 2.443-3.222 1.887-4.3-.281-.97-1.952-1.59-5.575.13-7.311 1.694-1.71 3.94-.654 4.59 1.697" transform="translate(0 .83) translate(0 21.477)"/>
            <path fill="#F7E8C8" d="M199.363 134.076s-42.25 15.298-43.496 35.545c-2.294 37.29 12.98 66.814 12.98 66.814l13.994-1.495s-2.488-12.001-4.348-45.785c-2.336-42.448 69.804.996 54.947-55.079h-34.077z" transform="translate(0 .83) translate(0 21.477)"/>
            <path fill="#A29C8F" d="M199.363 134.076s-42.25 15.298-43.496 35.545c-2.294 37.29 12.98 66.814 12.98 66.814l13.994-1.495s-2.488-12.001-4.348-45.785c-2.336-42.448 69.804.996 54.947-55.079h-34.077z" transform="translate(0 .83) translate(0 21.477)"/>
            <path fill="#7F786A" d="M164.97 231.289c-.067.007 2.226 6.204 2.226 6.204l17.475-1.708-.877-5.646-18.825 1.15z" transform="translate(0 .83) translate(0 21.477)"/>
            <path fill="#FFC581" d="M143.455 250.057L134.357 250.057 131.699 229.015 140.797 229.015z" transform="translate(0 .83) translate(0 21.477)"/>
            <path fill="#57575E" d="M134.285 247.075l9.935-.014c.373 0 .695.258.776.62l1.808 8.074c.188.837-.448 1.632-1.306 1.618-3.585-.056-8.764-.258-13.268-.252-5.267.007-6.277.295-12.453.304-3.736.005-4.777-3.765-3.215-4.108 7.116-1.565 9.388-1.735 15.532-5.531.669-.413 1.406-.709 2.191-.71" transform="translate(0 .83) translate(0 21.477)"/>
            <path fill="#F7E8C8" d="M184.778 134.076s-69.233 6.133-68.486 40.856c.777 36.118 14.288 60.48 14.288 60.48h13.518s-2.562-18.736-2.109-54.296c.137-10.652 21.69-14.172 42.74-15.415 18.183-1.074 35.203-11.424 42.267-28.192l1.446-3.433h-43.664z" transform="translate(0 .83) translate(0 21.477)"/>
            <path fill="#A29C8F" d="M184.778 134.076s-69.233 6.133-68.486 40.856c.777 36.118 14.288 60.48 14.288 60.48h13.518s-2.562-18.736-2.109-54.296c.137-10.652 21.69-14.172 42.74-15.415 18.183-1.074 35.203-11.424 42.267-28.192l1.446-3.433h-43.664z" transform="translate(0 .83) translate(0 21.477)"/>
            <path fill="#7F786A" d="M127.418 231.78c-.062.006 2.317 6.242 2.317 6.242l16.317-1.164-.951-5.649-17.683.572zM202.946 95.048l-8.781 33.806c-2.24 8.623-3.376 17.546-3.376 26.513v15.714c0 3.968 2.929 7.185 6.541 7.185h45.031c3.613 0 6.542-3.217 6.542-7.185v-15.714c0-8.967 1.136-17.89 3.375-26.513l7.758-29.864c1.192-4.588-1.945-9.155-6.29-9.155h-44.51c-2.921 0-5.488 2.127-6.29 5.213" transform="translate(0 .83) translate(0 21.477)"/>
            <path fill="#7F786A" d="M146.944 161.898l1.474 8.383c.776 4.41 4.66 7.985 8.675 7.985h50.055c4.015 0 6.642-3.576 5.866-7.985l-1.474-8.383c-.883-5.018-5.301-9.086-9.87-9.086h-48.051c-4.57 0-7.558 4.068-6.675 9.086" transform="translate(0 .83) translate(0 21.477)"/>
            <path fill="#A29C8F" d="M211.966 186.685L185.745 186.685 183.185 178.265 214.526 178.265z" transform="translate(0 .83) translate(0 21.477)"/>
            <path fill="#7F786A" d="M194.171 249.274L203.54 249.274 203.54 186.685 194.171 186.685z" transform="translate(0 .83) translate(0 21.477)"/>
            <path fill="#A29C8F" d="M203.54 249.274L194.171 249.274 194.171 188.188 203.54 189.14z" transform="translate(0 .83) translate(0 21.477)"/>
            <path fill="#7F786A" d="M201.255 249.274L199.017 249.274 199.017 188.68 201.255 188.908z" transform="translate(0 .83) translate(0 21.477)"/>
            <path fill="#7F786A" d="M220.397 258.946h-43.082c-1.153 0-1.635-1.47-.705-2.151l6.839-5.006c3.282-2.404 7.246-3.7 11.316-3.7h8.182c4.07 0 8.034 1.296 11.316 3.7l6.838 5.006c.93.681.447 2.151-.704 2.151" transform="translate(0 .83) translate(0 21.477)"/>
        </g>
    </g>
</svg>
