<svg xmlns="http://www.w3.org/2000/svg" xmlns:xlink="http://www.w3.org/1999/xlink" width="630" height="480" viewBox="0 0 630 480">
    <defs>
        <path id="prefix__a" d="M0 0.213L571.982 0.213 571.982 15 0 15z"/>
        <path id="prefix__c" d="M4.33 4.707S2.927 3.018.737.246c1.7 3.945 3.593 4.461 3.593 4.461"/>
        <linearGradient id="prefix__d" x1="60.082%" x2="34.731%" y1="73.903%" y2="21.617%">
            <stop offset="0%" stop-color="#DBEBFF"/>
            <stop offset="100%" stop-color="#FFF"/>
        </linearGradient>
    </defs>
    <g fill="none" fill-rule="evenodd">
        <g>
            <path fill="#FFF4DD" d="M339.607 68.202c-41.64-29.434-86.111-49.456-131.518-59.583C184.77 3.418 161.2.825 137.634.907c-10.243.036-21.124-1.044-31.192.386-10.615 1.507-20.771 9.72-30.743 14.88-12.3 6.365-24.405 14.178-35.254 25.175C23.21 58.817 9.049 86.13 7.234 117.56c-1.815 31.43 11.805 65.508 32.22 70.688 3.843.974 8.197 1.254 10.825 5.635 4.439 7.4-.061 19.88-6.021 24.12-5.961 4.24-12.96 4.087-18.897 8.399-12.13 8.808-15.725 34.334-10.653 53.3 5.072 18.966 16.437 32.252 28.085 42.459 55.312 48.466 122.944 45.99 186.69 42.145 3.055-.184 6.327-.484 8.748-3.328 2.422-2.843 3.237-9.237.774-11.998 97.147-.332 192.495 68.09 288.635 46.824 12.614-2.791 27.06-9.621 31.36-27.913 3.972-16.894-2.828-35.013-10.113-49.111-44.852-86.807-115.734-131.52-184.962-164.272-6.08-2.876-12.397-5.881-17.064-12.48-4.667-6.597-7.12-17.938-3.821-26.237 2.73-6.868 8.606-10.071 10.724-17.424 3.635-12.611-5.96-24.371-14.157-30.165" transform="translate(29 74) translate(0 .451)"/>
            <g>
                <path fill="#FFF4DD" d="M0 135.043L127.032 135.043 127.032 0 0 0z" transform="translate(29 74) translate(0 .451) translate(346 58.549)"/>
                <path fill="#FFF" d="M10.643 124.402L116.391 124.402 116.391 10.642 10.643 10.642z" transform="translate(29 74) translate(0 .451) translate(346 58.549)"/>
                <path fill="#F7E8C8" d="M75.226 79.836L95.436 70.468 95.436 64.571 75.226 55.187 75.226 62.241 87.508 67.531 75.226 72.824zM62.049 52.465L58.355 52.465 64.899 82.577 68.558 82.577zM51.808 72.824L39.526 67.531 51.808 62.241 51.808 55.186 31.598 64.571 31.598 70.468 51.808 79.836z" transform="translate(29 74) translate(0 .451) translate(346 58.549)"/>
            </g>
            <path fill="#A4B751" d="M118.67 396.24c-2.535-1.125-11.079-4.384-11.482-7.35-.439-3.233 1.608-6.776 4.531-7.84 1.261-.458 2.66-.513 3.665-1.642.561-.631.755-1.6.306-2.28-.732-1.112-2.3-.455-3.454.142-2.21 1.144-4.688 1.8-7.045 1.398-2.358-.404-4.56-1.99-5.419-4.38-.857-2.39-.1-5.531 1.967-6.974 1.292-.902 2.914-1.094 4.035-2.373.582-.664.86-1.621.525-2.422-.674-1.615-2.91-.998-4.454-.255-2.18 1.05-4.499 1.903-6.84 1.869-2.343-.036-4.726-1.086-5.953-3.188-1.226-2.101-.955-5.3.925-6.918.753-.648 1.678-1.004 2.47-1.594.95-.706 1.757-1.975 1.12-3.156-.442-.818-1.388-1.108-2.269-.895-1.22.294-2.092 1.168-2.975 2.032-1.39 1.362-3.203 2.153-5.027 2.069-5.453-.252-6.262-7.05-3.227-10.266.852-.904 2.05-1.747 1.968-3.047-.064-1.028-.906-1.734-1.856-1.79-1.876-.11-3.258 1.363-4.919 1.982-3.038 1.133-6.587-1.363-6.79-4.775-.155-2.61 2.93-2.737 5.736-3.412.646-.156.704-1.134.08-1.32-2.479-.738-5.468-2.212-7.08-3.221-2.956-1.852-5.463-7.712-.369-9.405 1.365-.453 4.448.616 5.162 1.636 1.01 1.442 4.728 5.105 4.728 5.105.437.36 1.066-.157.866-.714-.454-1.268-.748-2.592-.592-4.03.071-.655.258-1.308.57-1.888 1.86-3.461 5.877-2.167 7.403.52 1.268 2.237 1.307 5.059 1.371 7.734.034 1.385.125 2.895 1.186 3.767.601.494 1.475.556 2.085.012.705-.63.55-1.517.611-2.334.2-2.675 3.046-4.637 5.458-4.187 2.412.45 4.19 2.765 4.794 5.325.605 2.56.223 5.324-.408 7.94-.31 1.292-.683 2.676 0 3.86.403.699 1.243 1.034 1.942.63.997-.574.873-1.993 1.034-3.135.446-3.17 4.126-5.102 6.873-4.107 2.747.995 4.4 4.119 4.682 7.273.318 3.552-.802 7.159-1.918 10.555-.263.799-.02 1.709.65 2.089.93.526 1.691-.368 2.356-1.055 2.57-2.65 6.79-3.121 9.598-1.07 2.81 2.053 3.912 6.41 2.51 9.914-.893 2.226-2.655 4.087-2.448 6.705.102 1.297 1.013 2.377 2.22 2.345 1.522-.04 2.286-1.764 3.231-2.986 2.622-3.393 7.887-3.115 10.613-.102 2.726 3.012 1.312 10.896.244 15.112-1.068 4.217-3.122 13.049-6.649 17.133-1.662 1.925-13.806-1.91-16.34-3.035" transform="translate(29 74) translate(0 .451)"/>
            <path fill="#619440" d="M66.839 317.23c1.365-.454 4.449.615 5.163 1.635 1.009 1.442 4.728 5.105 4.728 5.105.436.361 1.066-.157.865-.715-.454-1.267-.747-2.59-.592-4.028.072-.656.258-1.31.57-1.89 1.861-3.46 5.877-2.167 7.403.522 1.268 2.235 1.307 5.057 1.372 7.732.033 1.386.125 2.896 1.185 3.768.601.494 1.475.556 2.086.012.705-.629.55-1.517.611-2.334.199-2.675 3.045-4.637 5.457-4.187 2.412.45 4.189 2.765 4.794 5.324.606 2.561.224 5.325-.408 7.942-.311 1.291-.683 2.675 0 3.86.404.697 1.243 1.032 1.943.63.996-.575.872-1.994 1.033-3.136.446-3.17 4.126-5.102 6.873-4.107 2.747.995 4.4 4.12 4.682 7.272.318 3.553-.802 7.16-1.918 10.556-.262.8-.02 1.71.65 2.09.929.525 1.691-.369 2.356-1.056 2.57-2.65 6.79-3.12 9.599-1.069 2.808 2.052 3.911 6.41 2.508 9.913-.892 2.225-2.653 4.087-2.447 6.705.102 1.297 1.013 2.377 2.22 2.345 1.522-.04 2.287-1.764 3.231-2.987 2.622-3.392 7.887-3.114 10.613-.1 2.727 3.01 1.312 10.894.244 15.111-.997 3.935-2.852 11.888-5.961 16.252-.223.313-.688.881-.688.881s-14.168-26.818-35.039-51.528c-11.593-13.726-35.751-28.368-35.751-28.368s.157-.382.543-.79c.664-.7 1.807-1.27 2.075-1.36" transform="translate(29 74) translate(0 .451)"/>
            <path fill="#306B34" d="M157.785 367.203c1.223 3.05 2.03 6.244 2.765 9.418.957 4.133.295 5.36-.846 9.105-1.14 3.745-3.733 6.836-7.199 7.748-3.465.91-6.072 2.706-8.665-.644-.366-.473-.912-.115-.952.15-.278 1.875-.349 3.03-1.428 4.324-1.13 1.354-8.081 7.134-16.769.813-4.541-5.854-6.313-12.971-8.522-20.096-.279-.9-.54-1.836-.457-2.727.153-1.641 1.637-2.775 3.134-2.396-1.296.114-2.637-.966-3.409-2.29-.772-1.32-1.094-2.848-1.4-4.333l-3.388-16.46c3.747 1.374 7.776.954 10.82-1.13 0 0-11.792-2.542-11.843-8.378-.037-4.234.061-10.125-.21-14.385-.19-2.981.706-6.165 1.711-8.747.857-2.202 1.419-3.722 3.012-5.268.964-.934 1.978-1.897 3.28-2.171 1.976-.415 4.117.842 5.961 2.202 3.379 2.493 6.481 5.489 9.406 8.665 3.47 3.769 6.71 7.808 9.68 12.066-2.14 5.673-5.736 10.467-10.306 13.738 4.376-1.533 8.307-4.217 11.427-7.802.375-.431.792-.902 1.365-.906 1.141-.01 1.791 1.648 2.129 2.928 1.429 5.413 4.149 10.579 7.777 14.772l-5.077 1.978c2.21-.072 4.419-.146 6.629-.22 0 0 .277 7.308 1.375 10.046" transform="translate(29 74) translate(0 .451)"/>
            <path fill="#A4B751" d="M159.89 368.692c1.222 3.051 1.88 12.54.213 17.677-1.207 3.722-4.013 6.753-7.275 8.235-2.557 1.162-6.395 1.575-8.988-1.774-.366-.473-.913-.116-.952.15-.278 1.875-26.732-82.978-25.469-83.244 1.975-.415 4.117.842 5.961 2.202 3.38 2.492 6.48 5.488 9.406 8.665 3.47 3.769 6.71 7.808 9.68 12.066-2.14 5.672-5.736 10.466-10.306 13.738 4.376-1.533 8.307-4.217 11.426-7.802.376-.432.793-.902 1.366-.906 1.141-.009 1.791 1.647 2.13 2.928 1.428 5.413 4.148 10.579 7.776 14.772l-5.077 1.978 6.63-.219s2.38 8.796 3.478 11.534" transform="translate(29 74) translate(0 .451)"/>
            <g transform="translate(29 74) translate(0 .451) translate(0 389)">
                <mask id="prefix__b" fill="#fff">
                    <use xlink:href="#prefix__a"/>
                </mask>
                <path fill="#F7E8C8" d="M571.982 7.606c0 4.084-128.042 7.394-285.99 7.394C128.041 15 0 11.69 0 7.606 0 3.523 128.042.213 285.991.213c157.95 0 285.991 3.31 285.991 7.393" mask="url(#prefix__b)"/>
            </g>
            <path fill="#E5D4B5" d="M196.173 376.14L506.018 376.14 506.018 308.074 196.173 308.074z" transform="translate(29 74) translate(0 .451)"/>
            <path fill="#E5D4B5" d="M163.873 281.382v88.846c0 3.264 3.13 5.912 6.986 5.912h67.425c3.86 0 6.992-2.647 6.992-5.912V266.185h-66.205c-8.394 0-15.198 6.803-15.198 15.197" transform="translate(29 74) translate(0 .451)"/>
            <path fill="#F7E8C8" d="M379.388 191.795c-.363-.021-.73-.031-1.098-.031H266.428l-14.9 129.64h111.865c8.85 0 16.032-6.07 16.032-13.562l14.248-98.031c1.308-8.996-5.21-17.496-14.285-18.016" transform="translate(29 74) translate(0 .451)"/>
            <path fill="#FFF4DD" d="M351.796 191.795c-.363-.021-.729-.031-1.098-.031h-98.037c-8.855 0-16.033 6.07-16.033 13.564L221.73 307.842c0 7.492 7.18 13.562 16.032 13.562H335.8c8.858 0 16.032-6.07 16.032-13.562l14.25-98.032c1.308-8.996-5.209-17.495-14.285-18.015" transform="translate(29 74) translate(0 .451)"/>
            <path fill="#FFF" d="M344.221 301.152c-57.815-8.146-141.009 0-141.009 0-4.328 1.106-5.653 2.318-7.04 5.209v43.968s-.185 1.835 1.83 1.835h146.22c3.887 0 7.04-2.33 7.04-5.21v-40.593c0-1.939-3.263-4.162-7.04-5.209" transform="translate(29 74) translate(0 .451)"/>
            <path fill="#FFF4DD" d="M341.142 306.811h-144.97v43.518s-.185 1.835 1.83 1.835h146.22c3.888 0 7.04-2.33 7.04-5.21v-30.023c0-5.59-4.53-10.12-10.12-10.12" transform="translate(29 74) translate(0 .451)"/>
            <path fill="#E5D4B5" d="M175.058 395.462L181.856 395.462 193.69 376.211 183.157 376.211zM239.028 395.462L245.821 395.462 257.658 376.211 247.127 376.211z" transform="translate(29 74) translate(0 .451)"/>
            <path fill="#F7E8C8" d="M533.986 191.787c-.312-.016-99.91-.023-99.91-.023-7.348 0-13.528 5.51-14.367 12.81l-11.574 100.717c-.986 8.585 5.727 16.113 14.368 16.113h95.642c8.534 0 15.516-5.644 16.005-12.765.035-.53.064-1.061.14-1.586l14.139-97.278c1.316-9.05-5.31-17.541-14.443-17.988" transform="translate(29 74) translate(0 .451)"/>
            <path fill="#FFF4DD" d="M506.55 191.795c-.363-.021-.73-.031-1.099-.031h-98.036c-8.853 0-16.034 6.07-16.034 13.564l-14.9 102.514c0 7.492 7.18 13.562 16.034 13.562h98.036c8.86 0 16.033-6.07 16.033-13.562l14.248-98.035c1.308-8.994-5.208-17.492-14.282-18.012" transform="translate(29 74) translate(0 .451)"/>
            <path fill="#FFF" d="M500.705 230.021c-7.882 3.69-9.519-.107-36.266 1.066-15.979.702-24.838-1.989-29.363-4.244-1.812-.902-3.974.311-3.971 2.246.005 4.211-.173 11.12-.993 20.952-3.33 39.905-17.033 40.132-9.498 43.692 7.553 3.568 93.1 10.636 82.921 2.017-10.146-8.594 1.602-40.654 4.432-53.247 2.347-10.439-.474-15.659-7.262-12.482" transform="translate(29 74) translate(0 .451)"/>
            <path fill="#E5D4B5" d="M454.728 239.488c-27.789 2.535-55.703.648-66.712-.312-2.6-.227-4.8 1.676-4.866 4.16-.44 16.379-6.977 40.015-9.93 49.922-.743 2.493 1.003 5.1 3.704 5.558 33.158 5.622 58.68 4.82 68.493 4.173 2.381-.157 4.201-2 4.17-4.265-.233-17.293 6.627-42.058 10.154-53.603.915-2.995-1.717-5.934-5.013-5.633" transform="translate(29 74) translate(0 .451)"/>
            <path fill="#FFF" d="M498.974 301.152c-57.816-8.146-141.01 0-141.01 0-4.327 1.106-5.649 2.318-7.04 5.209v40.593s3.59 5.21 5.606 5.21h142.445c3.885 0 7.042-2.33 7.042-5.21v-40.593c0-1.939-3.265-4.162-7.043-5.209" transform="translate(29 74) translate(0 .451)"/>
            <path fill="#FFF4DD" d="M350.925 316.884v29.561c0 3.064 2.41 5.666 5.474 5.718h142.575c3.887 0 7.043-2.33 7.043-5.21v-40.142h-145.02c-5.563 0-10.072 4.51-10.072 10.073" transform="translate(29 74) translate(0 .451)"/>
            <path fill="#E5D4B5" d="M473.389 376.211L485.225 395.462 492.019 395.462 483.921 376.211zM527.554 376.211L539.39 395.462 546.187 395.462 538.085 376.211zM541.058 266.184h-53.282c-7.766 0-14.06 6.295-14.06 14.061v89.982c0 3.266 3.132 5.913 6.988 5.913h67.43c3.857 0 6.985-2.647 6.985-5.913v-89.982c0-7.766-6.296-14.06-14.062-14.06" transform="translate(29 74) translate(0 .451)"/>
            <path fill="#FFF" d="M491.825 266.184h-3.918c-7.838 0-14.192 6.354-14.192 14.192v75.534H196.171v-74.529c0-8.393-6.804-15.197-15.196-15.197h-1.904c-8.394 0-15.198 6.804-15.198 15.198v88.846c0 3.265 3.13 5.912 6.986 5.912H496c5.533 0 10.018-4.486 10.018-10.019v-85.745c0-7.838-6.354-14.192-14.192-14.192" transform="translate(29 74) translate(0 .451)"/>
            <path fill="#57575E" d="M383.422 395.474L387.834 395.474 387.834 241.683 383.422 241.683zM130.206 395.474L134.619 395.474 134.619 317.243 134.619 241.683 130.206 241.683z" transform="translate(29 74) translate(0 .451)"/>
            <path fill="#57575E" d="M114.016 317.243L141.141 317.243 141.141 259.168 114.016 259.168zM338.527 237.924L412.33 237.924 412.33 231.237 338.527 231.237zM322.357 241.679L396.161 241.679 396.161 237.924 322.357 237.924z" transform="translate(29 74) translate(0 .451)"/>
            <path fill="#FFF4DD" d="M96.377 266.342L50.939 266.342 48.041 262.8 37.147 262.8 37.147 314.181 110.17 314.181 110.17 262.8 99.275 262.8z" transform="translate(29 74) translate(0 .451)"/>
            <path fill="#7F786A" d="M.788 237.924L356.553 237.924 356.553 231.237.788 231.237zM16.962 241.679L322.356 241.679 322.356 237.924 16.962 237.924z" transform="translate(29 74) translate(0 .451)"/>
            <path fill="#57575E" d="M306.05 395.474L310.462 395.474 310.462 241.683 306.05 241.683z" transform="translate(29 74) translate(0 .451)"/>
            <path fill="#1D3599" d="M114.016 259.168v1.267l.031 5.908c1.846 0 4.37-1.706 4.37-5.154v-19.51h-4.4v17.489z" transform="translate(29 74) translate(0 .451)"/>
            <path fill="#02126A" d="M141.07 266.337c1.84-.026 4.326-1.728 4.326-5.147v-19.51h-4.325v24.657z" transform="translate(29 74) translate(0 .451)"/>
            <path fill="#E5D4B5" d="M37.147 313.61h73.023V262.8H37.147v50.81zm-3.846 3.633h80.715v-58.075H33.301v58.075z" transform="translate(29 74) translate(0 .451)"/>
            <path fill="#57575E" d="M50.94 266.342L96.378 266.342 99.275 262.8 48.041 262.8zM50.94 286.263L96.378 286.263 99.275 282.72 48.041 282.72zM50.94 301.709L96.378 301.709 99.275 298.168 48.041 298.168zM28.857 395.474L33.269 395.474 33.269 317.243 33.269 241.683 28.857 241.683zM290.325 225.568L266.781 225.568 266.781 231.336 307.169 231.336z" transform="translate(29 74) translate(0 .451)"/>
            <path fill="#57575E" d="M284.361 225.957L290.325 225.957 290.325 208.227 284.361 208.227z" transform="translate(29 74) translate(0 .451)"/>
            <path fill="#A29C8F" d="M286.382 225.568L247.181 225.957 247.181 208.226 286.382 208.226z" transform="translate(29 74) translate(0 .451)"/>
            <path fill="#57575E" d="M247.181 211.994L288.021 211.994 288.021 208.226 247.181 208.226zM351.494 110.249h-6.736v97.978h6.736c.31 0 .561-.252.561-.561V110.81c0-.31-.251-.561-.561-.561" transform="translate(29 74) translate(0 .451)"/>
            <path fill="#E5D4B5" d="M346.408 208.226H187.153c-1.237 0-2.24-1.004-2.24-2.24V112.49c0-1.239 1.004-2.243 2.242-2.243h159.253c1.238 0 2.242 1.004 2.242 2.243v93.493c0 1.238-1.004 2.242-2.242 2.242" transform="translate(29 74) translate(0 .451)"/>
            <path fill="#FFF" d="M187.579 200.973L345.983 200.973 345.983 112.916 187.579 112.916z" transform="translate(29 74) translate(0 .451)"/>
            <path fill="#FFAF12" d="M195.361 146.002L271.536 146.002 271.536 119.789 195.361 119.789z" transform="translate(29 74) translate(0 .451)"/>
            <path fill="#FFF" d="M197.828 143.669h71.241v-21.546h-71.241v21.546zm-.666.667h72.574v-22.88h-72.574v22.88z" transform="translate(29 74) translate(0 .451)"/>
            <path fill="#FFF" d="M197.593 144.32L197.396 143.683 269.304 121.47 269.501 122.107z" transform="translate(29 74) translate(0 .451)"/>
            <path fill="#FFF" d="M269.304 144.32L197.396 122.107 197.593 121.47 269.501 143.683z" transform="translate(29 74) translate(0 .451)"/>
            <path fill="#FFF4DD" d="M263.251 195.695L298.96 195.695 298.96 152.121 263.251 152.121z" transform="translate(29 74) translate(0 .451)"/>
            <path fill="#FFF" d="M265.443 193.404h31.325v-38.992h-31.325v38.992zm-.667.667h32.658v-40.325h-32.658v40.325z" transform="translate(29 74) translate(0 .451)"/>
            <path fill="#FFF" d="M265.369 193.947L264.849 193.529 296.841 153.87 297.36 154.288z" transform="translate(29 74) translate(0 .451)"/>
            <path fill="#FFF" d="M296.841 193.947L264.85 154.288 265.369 153.87 297.361 193.529z" transform="translate(29 74) translate(0 .451)"/>
            <path fill="#FFF4DD" d="M303.715 195.695L339.425 195.695 339.425 152.121 303.715 152.121z" transform="translate(29 74) translate(0 .451)"/>
            <path fill="#FFF" d="M305.907 193.404h31.325v-38.992h-31.325v38.992zm-.666.667h32.658v-40.325h-32.658v40.325z" transform="translate(29 74) translate(0 .451)"/>
            <path fill="#FFF" d="M305.834 193.947L305.314 193.529 337.306 153.87 337.825 154.288z" transform="translate(29 74) translate(0 .451)"/>
            <path fill="#FFF" d="M337.306 193.947L305.315 154.288 305.834 153.87 337.826 193.529z" transform="translate(29 74) translate(0 .451)"/>
            <path fill="#FFAF12" d="M277.694 124.164L305.137 124.164 305.137 121.497 277.694 121.497z" transform="translate(29 74) translate(0 .451)"/>
            <path fill="#ECECEC" d="M277.694 129.383L305.137 129.383 305.137 126.716 277.694 126.716zM277.694 134.603L305.137 134.603 305.137 131.937 277.694 131.937zM277.694 139.823L305.137 139.823 305.137 137.156 277.694 137.156zM277.694 145.043L305.137 145.043 305.137 142.377 277.694 142.377zM194.404 157.383L256.134 157.383 256.134 154.716 194.404 154.716zM194.404 162.603L256.134 162.603 256.134 159.937 194.404 159.937zM194.404 167.823L256.134 167.823 256.134 165.156 194.404 165.156zM194.404 173.043L256.134 173.043 256.134 170.377 194.404 170.377zM194.404 178.263L256.134 178.263 256.134 175.596 194.404 175.596z" transform="translate(29 74) translate(0 .451)"/>
            <path fill="#FFAF12" d="M194.404 186.677L256.134 186.677 256.134 184.01 194.404 184.01zM194.404 191.897L256.134 191.897 256.134 189.23 194.404 189.23zM311.982 124.164L339.425 124.164 339.425 121.497 311.982 121.497z" transform="translate(29 74) translate(0 .451)"/>
            <path fill="#ECECEC" d="M311.982 129.383L339.425 129.383 339.425 126.716 311.982 126.716zM311.982 134.603L339.425 134.603 339.425 131.937 311.982 131.937zM311.982 139.823L339.425 139.823 339.425 137.156 311.982 137.156zM311.982 145.043L339.425 145.043 339.425 142.377 311.982 142.377z" transform="translate(29 74) translate(0 .451)"/>
            <path fill="#02126A" d="M247.18 225.568s-2.166 3.092-21.911 3.092v2.676h41.512v-2.69s17.197-.307 19.6-3.078h-39.2z" transform="translate(29 74) translate(0 .451)"/>
            <path fill="#306B34" d="M468.053 251.878s-26.302 8.836-22.723 39.159c3.58 30.324-1.575 67.274-1.575 67.274h14.994s26.708-36.007 7.028-62.986c-19.68-26.98 2.276-43.447 2.276-43.447" transform="translate(29 74) translate(0 .451)"/>
            <path fill="#A4B751" d="M465.97 253.767c-4.785 3.95-18.709 18.308-3.704 42.075 17.827 28.238-11.235 62.373-11.235 62.373l-7.198-.484-.078.58h14.994s26.708-36.008 7.028-62.986c-15.795-21.655-4.776-36.528.193-41.558" transform="translate(29 74) translate(0 .451)"/>
            <path fill="#4900BC" d="M466.993 252.782c.648-.592 1.06-.904 1.06-.904s-2.364.8-5.573 2.726c2.118-1.027 3.761-1.59 4.513-1.822" transform="translate(29 74) translate(0 .451)"/>
            <path fill="#619440" d="M439.27 324.774c1.405-26.91.32-30.272-10.142-39.159-10.46-8.886-25.202-23.495-25.202-23.495 10.041 19.881 9.84 28.917 11.73 43.543 1.465 11.346 18.51 33.993 26.081 43.583-1.676-3.889-3.165-11.11-2.467-24.472" transform="translate(29 74) translate(0 .451)"/>
        </g>
        <g transform="translate(29 74) translate(441 349.451)">
            <mask id="prefix__e" fill="#fff">
                <use xlink:href="#prefix__c"/>
            </mask>
            <path fill="url(#prefix__d)" d="M4.33 4.707S2.927 3.018.737.246c1.7 3.945 3.593 4.461 3.593 4.461" mask="url(#prefix__e)"/>
        </g>
        <g>
            <path fill="#306B34" d="M373.183 281.257c-5.221 22.356 5.881 37.38 5.881 37.38h10.947c-.038-7.704.516-15.096 4.144-22.569.192-.395.421-.76.667-1.11-1.544-.723-3.261-1.454-5.172-2.188-20.216-7.764-11.246-33.87-16.467-11.513" transform="translate(29 74) translate(61 31.451)"/>
            <path fill="#619440" d="M401.564 286.88c-11.112 5.623-7.899 29.721-7.899 29.721l10.443 3.748s-1.875-10.977 5.221-19.546c7.096-8.568 11.781-5.282 11.781-5.282s-8.434-14.264-19.546-8.642M348.281 275.5c-18.657 0-29.092 11.245-29.092 11.245s7.263-3.69 20.256-3.212c12.992.478 12.05 11.514 22.492 21.822s19.145 11.78 19.145 11.78-13.83-20.002-23.965-33.602c-1.784-2.393-.045-8.032-8.836-8.032" transform="translate(29 74) translate(61 31.451)"/>
            <path fill="#FAF9FC" d="M315.575 290.587c-.077.199-.094.31-.094.31s.03-.113.094-.31" transform="translate(29 74) translate(61 31.451)"/>
            <path fill="#A4B751" d="M363.41 287.55c-3.481-4.687.134-16.2-22.09-13.522-20.298 2.445-25.07 14.488-25.745 16.558.513-1.337 3.76-6.776 23.335-11.204 22.49-5.087 10.576 6.561 20.75 13.925 10.176 7.363 18.477 21.15 18.477 21.15s5.756 9.64 4.417 1.608c-1.34-8.032-15.663-23.83-19.144-28.515M432.356 297.59c-10.175-20.751-22.478-19.4-30.658-14.86-11.608 6.44-9.702 33.335-9.702 33.335l1.67.536s.267-5.221 1.156-14.192c.887-8.969 5.268-21.704 19.46-4.015 14.194 17.686 34.273 20.868 34.273 20.868s-6.024-.92-16.199-21.671" transform="translate(29 74) translate(61 31.451)"/>
            <path fill="#A4B751" d="M405.453 271.757c-3.197-2.346-6.442-1.944-8.95-.9-3.164 1.317-6.73.883-9.654-.884-10.7-6.474-11.52 2.428-11.52 2.428l.29 2.409c.016.015.016.048.016.08.77 4.466 3.278 13.752 14.009 17.88 1.912.74 18.748 8.034 18.748 8.034-2.281-9.238 3.615-24.227-2.94-29.047" transform="translate(29 74) translate(61 31.451)"/>
            <path fill="#57575E" d="M377.305 369.884h17.86c6.566 0 11.888-5.322 11.888-11.887v-43.673h-41.635v43.673c0 6.565 5.322 11.887 11.887 11.887" transform="translate(29 74) translate(61 31.451)"/>
            <path fill="#7F786A" d="M361.358 320.348L411.113 320.348 411.113 314.324 361.358 314.324z" transform="translate(29 74) translate(61 31.451)"/>
            <path fill="#FFF4DD" d="M485.617 97.462L487.66 97.462 487.66 55.93 485.617 55.93zM464.919 364.462L468.188 364.462 468.188 49.884 464.919 49.884z" transform="translate(29 74) translate(61 31.451)"/>
            <path fill="#FFF4DD" d="M451.025 8.611L424.599 58.465 508.508 58.465 482.082 8.611zM486.639 93.716c-2.069 0-3.745 1.678-3.745 3.746 0 2.066 1.676 3.745 3.745 3.745 2.067 0 3.745-1.678 3.745-3.745 0-2.069-1.678-3.746-3.745-3.746" transform="translate(29 74) translate(61 31.451)"/>
            <path fill="#E38601" d="M214.585 200.238c-1.503-6.062-6.966-10.563-13.494-10.563-6.527 0-11.99 4.5-13.492 10.563h26.986z" transform="translate(29 74) translate(61 31.451)"/>
            <path fill="#FFC581" d="M207.77 192.449c-7.359 0-10.482 6.762-16.607 4.08-6.124-2.683-8.966-2.542-8.676-7.643.29-5.1 4.408-4.691 12.75-4.691 8.142 0 23.46 8.254 12.533 8.254M128.987 353.33c-15.031 0-4.844-18.122-1.521-27.643l-14.296-3.362c-3.83 9.536-.831 19.073-8.526 31.694-5.471 8.973.95 10.415.95 10.415h35.987s0-11.104-12.594-11.104" transform="translate(29 74) translate(61 31.451)"/>
            <path fill="#57575E" d="M128.987 353.33c-4.27 0-6.5-1.465-7.436-3.775-2.783-.554-2.668 1.11-4.584 2.523-5.67 4.175-11.483.563-12.323 1.94-5.471 8.974.95 10.416.95 10.416h35.987s0-11.104-12.594-11.104" transform="translate(29 74) translate(61 31.451)"/>
            <path fill="#FFC581" d="M199.738 351.99c-12.082-3.786-20.506-22.211-24.714-32.083l-14.102 5.737c3.207 4.672 11.133 12.206 12.703 28.375 1.118 11.495 4.214 10.414 4.214 10.414h39.085s-5.105-8.656-17.186-12.443" transform="translate(29 74) translate(61 31.451)"/>
            <path fill="#57575E" d="M199.738 351.99c-3.648-1.143-6.958-3.625-9.923-6.797-.892-.98-1.857 3.226-2.886 4.6-2.067 2.756-10.895 3.91-13.564 2.02.133.798.188 1.457.26 2.206 1.118 11.495 4.214 10.414 4.214 10.414h39.085s-5.105-8.656-17.186-12.443" transform="translate(29 74) translate(61 31.451)"/>
            <path fill="#A29C8F" d="M79.048 253.895L74.038 253.895 90.915 364.459 95.924 364.459zM137.983 253.895L132.974 253.895 149.85 364.459 154.859 364.459z" transform="translate(29 74) translate(61 31.451)"/>
            <path fill="#7F786A" d="M142.56 235.342s31.992 82.398 36.359 91.341c0 0-6.22 7.046-14.65 7.292 0 0-46.977-75.198-51.358-83.644-4.38-8.446 29.65-14.989 29.65-14.989" transform="translate(29 74) translate(61 31.451)"/>
            <path fill="#A29C8F" d="M154.86 247.368s-26.467 77.07-29.456 86.564c0 0-9.36.83-15.645-4.795 0 0 9.613-67.705 12.249-76.846 2.637-9.141 32.852-4.923 32.852-4.923" transform="translate(29 74) translate(61 31.451)"/>
            <path fill="#FFE2B7" d="M94.712 108.002s-5.038.642-5.698 4.334c-.659 3.69 1.515 7.223 1.515 7.223s-10.737 2.839-20.318-.854c0 0 4.857-9.572 4.945-19.767.088-10.198 19.556 9.064 19.556 9.064" transform="translate(29 74) translate(61 31.451)"/>
            <path fill="#FFC581" d="M83.966 114.777c.056-4.805 3.913-8.345 8.38-9.011-5.19-4.753-17.12-14.807-17.19-6.83-.088 10.196-4.945 19.769-4.945 19.769 4.717 1.817 9.711 2.051 13.568 1.822.047-1.917.165-3.832.187-5.75" transform="translate(29 74) translate(61 31.451)"/>
            <path fill="#FFE2B7" d="M106.63 77.615s1.045 6.76.532 12.305c-.512 5.545 1.546 12.892-3.788 19.159-5.334 6.266-17.532-.712-20.347-8.293-2.814-7.581-.337-13.532 3.587-17.015 3.925-3.48 20.017-6.156 20.017-6.156" transform="translate(29 74) translate(61 31.451)"/>
            <path fill="#FFC581" d="M97.893 101.528c.096-2.734 3.288-22.851 3.288-22.851-5.051 1.095-12.138 2.94-14.567 5.094-3.924 3.483-6.401 9.434-3.587 17.015 2.664 7.177 13.733 13.805 19.432 9.177-2.811-1.777-4.684-5.061-4.566-8.435" transform="translate(29 74) translate(61 31.451)"/>
            <path fill="#57575E" d="M100.695 82.203s-2.142 2.074-3.074 6.893c-.933 4.816-1.81 7.443-3.448 4.249-1.637-3.196-2.084-8.308-6.25-5.238-2.755 2.03-2.705 6.037-1.863 8.228.843 2.19-1.939 7.018-7.653 5.189-5.713-1.83-9.5-17.275-9.5-17.275s26.143-8.176 31.788-2.046" transform="translate(29 74) translate(61 31.451)"/>
            <path fill="#57575E" d="M103.29 62.789s7.681 1.915 8.393 8.428c.633 5.782-2.492 11.424-12.754 10.969-10.262-.454-10.945 5.94-16.369 7.649-5.424 1.709-10.884.108-13.492-5.24-2.706-5.546-1.866-12.3 4.793-17.79 6.658-5.491 28.714-13.342 29.428-4.016" transform="translate(29 74) translate(61 31.451)"/>
            <path fill="#A29C8F" d="M31.397 205.465c0 12.875-13.742 44.155 13.21 43.858 26.894-.294 109.452 0 109.452 0s5.625-11.073-2.022-18.018c-7.647-6.944-53.944-17.106-59.586-24.172-5.64-7.067-61.054-1.668-61.054-1.668" transform="translate(29 74) translate(61 31.451)"/>
            <path fill="#7F786A" d="M78.343 243.958c-48.17 0-34.537-37.745-35.01-39.455-7.034.485-11.936.963-11.936.963 0 12.875-13.742 44.155 13.21 43.858 19.26-.212 67.063-.12 92.653-.051-2.892-.691-52.366-5.315-58.917-5.315" transform="translate(29 74) translate(61 31.451)"/>
            <path fill="#FFAF12" d="M93.11 118.927c5.341.257 14.193 7.416 14.193 18.328 0 14.416-2.642 34.543-9.147 44.738-6.505 10.198 5.852 22.413-5.047 26.81-10.899 4.394-61.404 5.01-63.338-2.373-1.934-7.384 8.676-57.575 11.691-67.507 2.988-9.844 8.35-17.052 12.393-18.809 4.044-1.758 29.447-1.66 39.254-1.187" transform="translate(29 74) translate(61 31.451)"/>
            <path fill="#E38601" d="M37.078 193.648c-.278-6.217-.84-12.928.54-19.002 9.584-42.227 20.22-46.687 24.477-50.35 5.032-4.33 11.093-1.483 17.796-1.709 9.057-.305 12.43-3.679 12.507-3.692-10.263-.443-34.592-.499-38.542 1.22-4.044 1.757-9.406 8.965-12.395 18.808-3.014 9.932-13.623 60.123-11.69 67.507.848 3.238 11.04 4.937 23.133 5.454-8.575-2.072-15.365-7.956-15.826-18.236" transform="translate(29 74) translate(61 31.451)"/>
            <path fill="#FFF" d="M93.11 118.927c-3.258-1.69-6.105-.46-9.106-3.362-5.37-5.197-13.793-4.058-13.793-4.058l-4.183 7.124s15.75 8.01 27.081.296" transform="translate(29 74) translate(61 31.451)"/>
            <path fill="#FFAF12" d="M91.045 121.007c4.339-3.898 15.91 1.034 23.469 10.703 7.559 9.67 23.32 46.246 27.283 54.575 3.692 7.757-7.56 21.272-19.865 8.788-12.305-12.48-21.613-31.726-26.008-45.439-4.394-13.711-9.587-24.395-4.88-28.626" transform="translate(29 74) translate(61 31.451)"/>
            <path fill="#E5D4B5" d="M85.125 198.52H9.56c-1.733 0-3.264-1.248-3.706-3.02L.52 174.124c-.622-2.494 1.13-4.899 3.568-4.899h75.565c1.733 0 3.264 1.246 3.706 3.02l5.334 21.373c.622 2.494-1.13 4.9-3.568 4.9" transform="translate(29 74) translate(61 31.451)"/>
            <path fill="#A29C8F" d="M82.95 198.52H9.419c-1.687 0-3.155-1.153-3.555-2.792l-4.827-19.754c-.564-2.305 1.182-4.527 3.555-4.527h73.53c1.687 0 3.155 1.152 3.556 2.791l4.827 19.753c.563 2.304-1.182 4.528-3.555 4.528" transform="translate(29 74) translate(61 31.451)"/>
            <path fill="#57575E" d="M100.09 255.257L157.751 255.257 157.751 249.323 100.09 249.323zM88.355 253.895L93.365 253.895 76.489 364.459 71.479 364.459zM29.42 253.895L34.43 253.895 17.554 364.459 12.543 364.459z" transform="translate(29 74) translate(61 31.451)"/>
            <path fill="#A29C8F" d="M23.487 255.257L100.09 255.257 100.09 249.323 23.487 249.323z" transform="translate(29 74) translate(61 31.451)"/>
            <path fill="#F7E8C8" d="M91.973 253.324c-.921 0-1.761-.62-2-1.552l-17.937-69.945c-.283-1.106.384-2.232 1.488-2.515 1.108-.288 2.232.383 2.514 1.489l17.937 69.945c.284 1.105-.383 2.23-1.487 2.514-.173.044-.346.064-.515.064" transform="translate(29 74) translate(61 31.451)"/>
            <path fill="#57575E" d="M89.908 253.324c-.921 0-1.761-.62-2-1.552L69.97 181.827c-.283-1.106.383-2.232 1.488-2.515 1.11-.288 2.23.383 2.514 1.489l17.937 69.945c.283 1.105-.383 2.23-1.488 2.514-.172.044-.345.064-.514.064" transform="translate(29 74) translate(61 31.451)"/>
            <path fill="#F7E8C8" d="M33.487 253.324c-.921 0-1.761-.62-2-1.552L13.55 181.827c-.283-1.106.384-2.232 1.488-2.515 1.108-.288 2.232.383 2.514 1.489l17.937 69.945c.284 1.105-.383 2.23-1.487 2.514-.173.044-.346.064-.515.064" transform="translate(29 74) translate(61 31.451)"/>
            <path fill="#57575E" d="M31.421 253.324c-.921 0-1.761-.62-2-1.552l-17.937-69.945c-.283-1.106.384-2.232 1.488-2.515 1.11-.288 2.231.383 2.515 1.489l17.936 69.945c.283 1.105-.383 2.23-1.487 2.514-.173.044-.345.064-.515.064" transform="translate(29 74) translate(61 31.451)"/>
            <path fill="#FFAF12" d="M131.373 200.15c12.542 1.57 32.708-.002 58.024-.764 0 0 3.01-9.75-.946-16.342 0 0-48.236-2.649-53.378-2.517-5.142.132-16.753 17.986-3.7 19.622M292.846 16.485L310.184 16.485 310.573 14.62 293.235 14.62z" transform="translate(29 74) translate(61 31.451)"/>
            <path fill="#F7E8C8" d="M295.666 19.46L302.625 19.46 303.014 17.595 296.055 17.595zM284.086 19.46L294.809 19.46 295.198 17.595 284.475 17.595zM279.411 22.435L302.005 22.435 302.394 20.569 279.8 20.569zM282.286 25.41L301.385 25.41 301.774 23.544 282.675 23.544zM269.617 57.023L281.775 57.023 281.386 58.889 269.228 58.889z" transform="translate(29 74) translate(61 31.451)"/>
            <path fill="#FFAF12" d="M284.777 52.94L302.584 52.94 302.974 51.074 285.166 51.074z" transform="translate(29 74) translate(61 31.451)"/>
            <path fill="#F7E8C8" d="M277.612 59.999L294.174 59.999 293.785 61.864 277.223 61.864zM282.637 57.023L294.794 57.023 294.406 58.889 282.248 58.889zM271.099 54.048L295.414 54.048 295.026 55.914 270.711 55.914z" transform="translate(29 74) translate(61 31.451)"/>
            <path fill="#FFAF12" d="M293.453 2.607L313.077 2.607 313.466 0.742 293.842 0.742z" transform="translate(29 74) translate(61 31.451)"/>
            <path fill="#F7E8C8" d="M283.769 9.666L305.404 9.666 305.015 11.532 283.38 11.532zM288.099 6.691L306.025 6.691 305.636 8.557 287.71 8.557zM286.902 3.716L306.645 3.716 306.256 5.582 286.513 5.582z" transform="translate(29 74) translate(61 31.451)"/>
            <path fill="#FFAF12" d="M293.68 30.25L307.315 30.25 307.703 28.385 294.069 28.385z" transform="translate(29 74) translate(61 31.451)"/>
            <path fill="#F7E8C8" d="M272.259 37.309L298.904 37.309 298.515 39.174 271.87 39.174zM288.486 34.334L299.525 34.334 299.136 36.2 288.097 36.2zM276.506 34.334L287.545 34.334 287.156 36.2 276.117 36.2zM275.83 31.359L300.145 31.359 299.756 33.225 275.441 33.225zM275.877 46.233L297.044 46.233 296.656 48.099 275.488 48.099zM291.509 43.258L297.664 43.258 297.275 45.124 291.12 45.124zM281.875 43.258L290.661 43.258 290.272 45.124 281.486 45.124zM273.969 40.284L298.284 40.284 297.895 42.149 273.58 42.149zM254.811 39.786L263.524 39.786 263.913 37.92 255.2 37.92zM240.312 39.786L253.736 39.786 254.125 37.92 240.701 37.92zM234.617 42.76L262.904 42.76 263.293 40.895 235.006 40.895zM238.372 45.735L262.283 45.735 262.672 43.87 238.761 43.87zM227.667 27.95L254.753 27.95 254.365 29.815 227.278 29.815zM232.931 24.975L255.374 24.975 254.985 26.84 232.542 26.84z" transform="translate(29 74) translate(61 31.451)"/>
            <path fill="#FFAF12" d="M236.989 22L261.707 22 261.318 23.866 236.6 23.866z" transform="translate(29 74) translate(61 31.451)"/>
            <path fill="#F7E8C8" d="M226.444 57.634L259.803 57.634 259.414 59.5 226.055 59.5zM246.603 54.66L260.423 54.66 260.034 56.525 246.214 56.525zM231.604 54.66L245.424 54.66 245.035 56.525 231.215 56.525zM230.601 51.685L261.043 51.685 260.654 53.55 230.212 53.55zM231.441 66.559L257.942 66.559 257.553 68.424 231.052 68.424zM250.857 63.584L258.563 63.584 258.174 65.45 250.468 65.45zM238.795 63.584L249.795 63.584 249.406 65.45 238.406 65.45zM228.741 60.609L259.183 60.609 258.794 62.475 228.352 62.475zM309.816 68.867L330.552 68.867 330.163 70.732 309.427 70.732zM315.951 65.891L331.172 65.891 330.783 67.757 315.562 67.757zM299.65 65.891L314.871 65.891 314.482 67.757 299.261 67.757zM301.35 62.917L331.792 62.917 331.403 64.783 300.961 64.783z" transform="translate(29 74) translate(61 31.451)"/>
        </g>
    </g>
</svg>
