<svg xmlns="http://www.w3.org/2000/svg" xmlns:xlink="http://www.w3.org/1999/xlink" width="379" height="271" viewBox="0 0 379 271">
    <defs>
        <path id="prefix__a" d="M0 0L366.518 0 366.518 246.232 0 246.232z"/>
        <path id="prefix__c" d="M0.67 0L365.232 0 365.232 21 0.67 21z"/>
        <path id="prefix__e" d="M0 269L377.232 269 377.232 0.261 0 0.261z"/>
        <path id="prefix__g" d="M4.414 62.896C.089 91.727.81 95.331.81 95.331L21.713.188S8.738 34.065 4.414 62.896"/>
        <path id="prefix__j" d="M1 0.5L1.5 0.5 1.5 1 1 1z"/>
        <linearGradient id="prefix__h" x1="0%" x2="99.998%" y1="50.001%" y2="50.001%">
            <stop offset="0%" stop-color="#FBB62B"/>
            <stop offset="100%" stop-color="#FFCF44"/>
        </linearGradient>
    </defs>
    <g fill="none" fill-rule="evenodd">
        <g transform="translate(1 .739)">
            <g transform="translate(0 13)">
                <mask id="prefix__b" fill="#fff">
                    <use xlink:href="#prefix__a"/>
                </mask>
                <path fill="#FFF4DD" d="M327.938 246.232H35.87c-37.518-36.646-39.41-60.854-33.08-76.61 9.516-23.686 38.672-30.93 43.26-59.95 3.306-20.91-10.624-24.78-5.023-42.824 8.064-25.983 43.96-40.537 63.546-48.477 24.63-9.987 81.484-27.666 102.32-12.41 14.85 10.871-5.151 26.343 8.169 43.464 23.35 30.014 110.325 15.263 120.002 37.202 6.435 14.59-28.562 29.217-18.85 46.15 4.85 8.455 15.035 7.568 29.082 19.392 14.39 12.111 19.108 26.006 20.464 32.577 6.499 31.48-30.706 56.938-37.822 61.486" mask="url(#prefix__b)"/>
            </g>
            <g transform="translate(12 248)">
                <mask id="prefix__d" fill="#fff">
                    <use xlink:href="#prefix__c"/>
                </mask>
                <path fill="#F7E8C8" d="M365.233 10.5c0 5.799-81.61 10.5-182.281 10.5S.67 16.299.67 10.5C.67 4.7 82.28 0 182.95 0c100.672 0 182.282 4.7 182.282 10.5" mask="url(#prefix__d)"/>
            </g>
            <path fill="#A4B750" d="M54.212 201.207c-4.614-2.702-25.884-15.786-29.541-39.726-2.19-14.344 1.744-33.884 10.719-35.978 8.752-2.042 20.242 12.986 24.9 25.232 8.728 22.95-3.094 45.195-6.078 50.472"/>
            <path fill="#316C35" d="M74.278 256.53c-.105-.272-10.562-27.416-20.475-55.178-9.92-27.789-15.69-57.826-15.747-58.127l.85-.16c.058.298 5.816 30.273 15.714 57.996 9.908 27.751 20.361 54.886 20.465 55.156l-.807.312z"/>
            <path fill="#316C35" d="M46.652 175.685L45.816 175.459 50.504 158.121 51.34 158.347zM41.526 159.126c-.734-1.67-2.317-2.853-3.714-3.896l-4.898-3.66.52-.692 4.898 3.658c1.408 1.053 3.161 2.362 3.987 4.24l-.793.35zM12.842 186.848c-1.433 0-2.675.328-3.625 1.055-4.7 3.592-1.64 16.22 2.623 23.692 7.55 13.234 22.272 17.353 28.716 18.55.949-6.31 1.818-21.14-8.137-32.257-5.323-5.945-13.931-11.04-19.577-11.04zm28.432 44.305l-.433-.076c-6.312-1.112-21.847-5.192-29.754-19.053-4.325-7.582-7.667-20.78-2.395-24.81 5.126-3.919 17.31 2.21 24.372 10.096 10.442 11.66 9.268 27.248 8.279 33.41l-.07.433z"/>
            <path fill="#316C35" d="M75.201 256.759c-.193-.1-19.489-10.122-34.598-25.809-15.097-15.673-24.248-31.883-24.339-32.045l.756-.424c.09.16 9.19 16.279 24.207 31.87 15.006 15.578 34.18 25.538 34.37 25.637l-.396.77z"/>
            <path fill="#316C35" d="M30.719 219.666L21.35 217.394 21.554 216.552 30.923 218.824zM22.845 207.631L21.982 207.552 22.746 199.228 23.609 199.307z"/>
            <path fill="#FFC581" d="M143.95 32.026c6.712-.44 12.924 3.551 15.317 9.838 2.937 7.714 6.462 17.578 7.115 22.095 0 0 15.375 14.998 21.638 20.938l-3.33 2.883s-20.926-13.607-27.304-19.589c-6.378-5.98-13.437-36.165-13.437-36.165"/>
            <path fill="#F6A19E" d="M82.859 251.741L82.552 252.653 84.618 254.81 86.805 253.849 87.614 252.653 87.849 251.711zM156.292 251.708L156.168 252.653 157.165 254.294 160.093 254.019 160.968 253.481 161.228 252.653 161.22 251.453z"/>
            <path fill="#47B27C" d="M128.1 95.113c.737-.109 1.166-1.92.888-3.374-.419-2.191-2.377-3.36-2.708-3.551-.295.596-.757 1.767-.55 3.227.262 1.849 1.547 3.82 2.37 3.698"/>
            <path fill="#47B27C" d="M128.186 94.092c-.204.718 1.268 1.855 2.708 2.2 2.168.524 4.04-.78 4.35-1.002-.42-.513-1.296-1.418-2.712-1.832-1.792-.523-4.118-.165-4.346.634"/>
            <path fill="#47B27C" d="M129.186 93.209c.452.594 2.245.096 3.384-.851 1.717-1.424 1.794-3.704 1.802-4.086-.664.03-1.913.19-3.09 1.078-1.494 1.122-2.6 3.199-2.096 3.859"/>
            <path fill="#57575E" d="M125.713 16.498h-.928c-1.918 0-3.474-1.555-3.474-3.473V9.5h4.402v6.997z"/>
            <path fill="#A29C8F" d="M115.55 85.798S103.118 101.72 82.051 251.74l6.3-.033L137.975 113.7V85.798H115.55z"/>
            <path fill="#A29C8F" d="M153.028 77.252s15.004 11.8 14.934 43.487c-.033 14.192-6.743 130.714-6.743 130.714l-4.928.255c-8.74-44.363-15.064-87.963-22.283-133.084-1.034-.147-6.327-.533-7.244-1.611-2.012-2.365-.049-6.487-.09-8.301-.17-7.257-.218-23.851.253-29.968 5.807.482 20.646-.96 26.101-1.492"/>
            <path fill="#7F786A" d="M161.22 251.453s6.709-116.522 6.742-130.714c.07-31.686-14.933-43.487-14.933-43.487-1.266.148-2.558.286-3.87.416l-3.53 2.25s10.615 62.093 10.36 99.22c-.143 20.63-.125 49.246-.082 70.6.128.657.255 1.314.385 1.97l4.928-.255z"/>
            <path fill="#F5EFE4" d="M155.553 86.335c2.058-.502 3.478-2.377 3.39-4.493-.448-10.687-1.82-22.823-4.847-35.934-1.335-5.783-2.865-11.204-4.5-16.25l-19.352-4.281-14.972 5.863c-1.088 8.553-1.85 18.222-1.917 28.827-.06 9.618.462 18.466 1.289 26.405.084.806.7 1.454 1.502 1.578 5.148.79 11.28 1.33 18.179 1.139 8.215-.226 15.384-1.427 21.228-2.854"/>
            <path fill="#E7E1D3" d="M157.282 85.896c1.046-.274 1.76-1.233 1.726-2.315-.368-11.102-1.72-23.846-4.912-37.673-1.335-5.783-2.355-11.295-3.99-16.34-4.135-.916-8.781-1.74-12.917-2.655-1.352.214-3.306.76-4.393 2.353-1.431 2.098-.611 4.918-.364 5.825 1.394 5.134 5.136 25.3 10.236 53.52 5.545-.616 10.457-1.623 14.614-2.715"/>
            <path fill="#FFE2B7" d="M123.876 15.932L125.605 30.252 134.829 29.16 132.887 14.16z"/>
            <path fill="#FFC581" d="M132.887 14.16l-9.011 1.772.099.823c.945 3.9 4.84 7.515 8.55 6.713.535-.117 1.032-.32 1.49-.59l-1.128-8.718z"/>
            <path fill="#FFE2B7" d="M131.798 5.28c.333.193 2.869 1.711 3.77 4.691 1.199 3.958-.741 9.649-4.775 10.523-3.86.836-7.921-3.111-8.651-7.186-.647-3.609 1.187-8.076 4.45-9.037 2.297-.675 4.519.612 5.206 1.009"/>
            <path fill="#57575E" d="M135.534 1.573c.949 1.822-3.07 5.473-3.468 5.828-3.43 3.067-9 5.006-10.622 3.201-1.193-1.325-.095-4.496 1.35-6.377 3.518-4.572 11.62-4.798 12.74-2.652"/>
            <path fill="#FFE2B7" d="M121.038 12.952c-.196-1.037.485-2.036 1.521-2.231 1.037-.197 2.036.485 2.232 1.52.196 1.037-.485 2.037-1.522 2.232-1.036.197-2.035-.485-2.23-1.521M116.565 83.834c1.218.916 2.293 1.698 3.16 2.318.145.103.283.203.416.296 1.195.848 1.9 1.32 1.9 1.32l.292-1.671.585-3.345s-6-9.184-11.794-16.677l-.404-.52c-.537-.69-1.072-1.362-1.599-2.008-1.008-1.237-1.985-2.38-2.899-3.37-2.309.39-4.706 1.034-7.138 1.686-1.423.382-2.759.812-4.006 1.265 4.564 6.812 12.725 13.893 18.878 18.705.921.72 1.797 1.39 2.609 2"/>
            <path fill="#FFC581" d="M184.69 87.78l2.196 2.083c.206.632.638 1.686 1.564 2.68.439.471 2.299 2.468 4.452 2.05 1.516-.294 2.925-1.738 2.686-2.531-.08-.265-.338-.435-.59-.546l-6.977-6.619-3.33 2.883z"/>
            <path fill="#FFE2B7" d="M138.43 27.188l-8.186-1.812-8.92 3.494c1.737 1.431 4.159 2.652 6.788 2.927 3.976.417 7.886-1.384 10.319-4.609M106.415 47.408c-1.895-2.2-3.822-4.439-5.399-6.808-3.839 3.156-7.109 6.669-8.762 10.333-1.599 3.547-.087 7.914 2.951 12.387 3.84.041 8.108-.949 11.717-2.369-1.267-1.427-2.435-2.604-3.417-3.38 0 0 3.163-2.569 6.914-6.011-1.632-1.514-2.957-2.936-4.004-4.152"/>
            <path fill="#57575E" d="M156.168 252.653s-2.438 2.347 0 4.784h10.545v-4.784h-5.485s-2.515 1.473-5.06 0"/>
            <path fill="#F9E0D2" d="M162.598 257.437h8.229V255.9c0-1.793-1.453-3.247-3.247-3.247h-1.735c-1.793 0-3.247 1.454-3.247 3.247v1.537z"/>
            <mask id="prefix__f" fill="#fff">
                <use xlink:href="#prefix__e"/>
            </mask>
            <path fill="#F9E0D2" d="M155.739 258.204L171.18 258.204 171.18 257.437 155.739 257.437z" mask="url(#prefix__f)"/>
            <path fill="#57575E" d="M87.613 252.653s2.438 2.347 0 4.784H75.156l.447-4.784h6.95s2.514 1.473 5.06 0M71.032 258.204L88.043 258.204 88.043 257.437 71.032 257.437z" mask="url(#prefix__f)"/>
            <path fill="#7F786A" d="M75.604 252.653c-2.272 0-4.114 1.843-4.114 4.115v.67h4.114v-4.785z" mask="url(#prefix__f)"/>
            <path fill="#E7E1D3" d="M150.106 29.567c5.059 1.042 9.001 5.013 10.007 10.078l1.612 8.12-10.387.327-1.232-18.525z" mask="url(#prefix__f)"/>
            <path fill="#F26D6D" d="M189.88 86.766s2.193.052 2.487.256c.294.205 1.417 2.084.77 3.163-.647 1.078-1.66-1.96-1.66-1.96l-1.597-1.459z" mask="url(#prefix__f)"/>
            <path fill="#F5EFE4" d="M110.42 51.56c4.882-4.479 10.761-10.437 11.953-14.129 2.106-6.528-2.532-7.864-2.532-7.864s-9.977 2.29-18.825 11.033c1.578 2.368 3.504 4.607 5.4 6.808 1.046 1.215 2.37 2.638 4.004 4.152" mask="url(#prefix__f)"/>
            <path fill="#E7E1D3" d="M100.426 40.325L110.219 52.306 111.969 50.486 101.714 39.016zM152.358 46.786L162.417 46.448 162.417 48.534 152.634 48.749zM129.43 34.124c-5.353 0-9.367-3.455-9.544-3.61-.908-.794-1-2.174-.206-3.082.792-.905 2.167-1 3.075-.211.073.06 3.374 2.83 7.32 2.509 2.403-.196 4.652-1.524 6.683-3.945.775-.924 2.152-1.045 3.076-.27.924.775 1.045 2.152.27 3.076-2.823 3.367-6.096 5.216-9.728 5.497-.32.024-.636.036-.947.036" mask="url(#prefix__f)"/>
            <path fill="#FDC854" d="M145.107 242.66h96.34c3.38 0 6.12 2.739 6.12 6.119v3.273c0 3.379-2.74 6.119-6.12 6.119h-96.34c-3.38 0-6.12-2.74-6.12-6.12v-3.272c0-3.38 2.74-6.12 6.12-6.12" mask="url(#prefix__f)"/>
            <path fill="#F89F4F" d="M138.987 255.206c0 1.638 1.328 2.965 2.965 2.965h102.65c1.637 0 2.965-1.327 2.965-2.965v-1.597h-108.58v1.597z" mask="url(#prefix__f)"/>
            <path fill="#FDC854" d="M145.107 227.148h96.34c3.38 0 6.12 2.74 6.12 6.12v3.272c0 3.38-2.74 6.12-6.12 6.12h-96.34c-3.38 0-6.12-2.74-6.12-6.12v-3.272c0-3.38 2.74-6.12 6.12-6.12" mask="url(#prefix__f)"/>
            <path fill="#F89F4F" d="M138.987 239.694c0 1.638 1.328 2.966 2.965 2.966h102.65c1.637 0 2.965-1.328 2.965-2.966v-1.597h-108.58v1.597z" mask="url(#prefix__f)"/>
            <path fill="#FDC854" d="M145.107 211.637h96.34c3.38 0 6.12 2.74 6.12 6.12v3.272c0 3.379-2.74 6.12-6.12 6.12h-96.34c-3.38 0-6.12-2.742-6.12-6.12v-3.273c0-3.38 2.74-6.12 6.12-6.12" mask="url(#prefix__f)"/>
            <path fill="#F89F4F" d="M138.987 224.182c0 1.638 1.328 2.966 2.965 2.966h102.65c1.637 0 2.965-1.328 2.965-2.966v-1.597h-108.58v1.597z" mask="url(#prefix__f)"/>
            <path fill="#FDC854" d="M139.16 196.126h96.34c3.38 0 6.12 2.739 6.12 6.119v3.273c0 3.379-2.74 6.119-6.12 6.119h-96.34c-3.38 0-6.12-2.74-6.12-6.12v-3.272c0-3.38 2.74-6.12 6.12-6.12" mask="url(#prefix__f)"/>
            <path fill="#F89F4F" d="M133.04 208.672c0 1.638 1.328 2.965 2.966 2.965h102.65c1.636 0 2.964-1.327 2.964-2.965v-1.597H133.04v1.597z" mask="url(#prefix__f)"/>
            <path fill="#FDC854" d="M145.107 180.614h96.34c3.38 0 6.12 2.74 6.12 6.12v3.272c0 3.379-2.74 6.12-6.12 6.12h-96.34c-3.38 0-6.12-2.741-6.12-6.12v-3.272c0-3.38 2.74-6.12 6.12-6.12" mask="url(#prefix__f)"/>
            <path fill="#F89F4F" d="M138.987 193.16c0 1.638 1.328 2.966 2.965 2.966h102.65c1.637 0 2.965-1.328 2.965-2.966v-1.597h-108.58v1.597z" mask="url(#prefix__f)"/>
            <path fill="#FDC854" d="M141.036 165.102h96.34c3.38 0 6.12 2.74 6.12 6.12v3.272c0 3.38-2.74 6.12-6.12 6.12h-96.34c-3.38 0-6.12-2.74-6.12-6.12v-3.272c0-3.38 2.74-6.12 6.12-6.12" mask="url(#prefix__f)"/>
            <path fill="#F89F4F" d="M134.916 177.648c0 1.638 1.328 2.966 2.966 2.966H240.53c1.637 0 2.965-1.328 2.965-2.966v-1.597h-108.58v1.597z" mask="url(#prefix__f)"/>
            <path fill="#FDC854" d="M139.16 149.592h96.34c3.38 0 6.12 2.739 6.12 6.119v3.273c0 3.379-2.74 6.119-6.12 6.119h-96.34c-3.38 0-6.12-2.74-6.12-6.12v-3.272c0-3.38 2.74-6.12 6.12-6.12" mask="url(#prefix__f)"/>
            <path fill="#F89F4F" d="M133.04 162.137c0 1.638 1.328 2.965 2.966 2.965h102.65c1.636 0 2.964-1.327 2.964-2.965v-1.596H133.04v1.596z" mask="url(#prefix__f)"/>
            <path fill="#FDC854" d="M143.15 134.08h96.34c3.38 0 6.12 2.74 6.12 6.12v3.272c0 3.379-2.74 6.12-6.12 6.12h-96.34c-3.38 0-6.12-2.741-6.12-6.12V140.2c0-3.38 2.74-6.12 6.12-6.12" mask="url(#prefix__f)"/>
            <path fill="#F89F4F" d="M137.03 146.626c0 1.638 1.328 2.966 2.965 2.966h102.649c1.638 0 2.966-1.328 2.966-2.966v-1.597H137.03v1.597z" mask="url(#prefix__f)"/>
            <path fill="#FDC854" d="M144.744 118.568h96.34c3.38 0 6.12 2.74 6.12 6.12v3.272c0 3.38-2.74 6.12-6.12 6.12h-96.34c-3.38 0-6.12-2.74-6.12-6.12v-3.272c0-3.38 2.74-6.12 6.12-6.12" mask="url(#prefix__f)"/>
            <path fill="#F89F4F" d="M138.625 131.114c0 1.638 1.328 2.966 2.965 2.966h102.649c1.638 0 2.966-1.328 2.966-2.966v-1.597h-108.58v1.597z" mask="url(#prefix__f)"/>
            <path fill="#FDC854" d="M128.509 81.07l102.41-8.732c1.595-.136 2.999 1.046 3.135 2.642l.825 9.678c.136 1.596-1.047 3-2.642 3.135l-102.41 8.733c-1.596.136-3-1.047-3.135-2.643l-.826-9.677c-.135-1.596 1.047-2.999 2.643-3.136" mask="url(#prefix__f)"/>
            <path fill="#F89F4F" d="M126.686 93.817c.14 1.632 1.575 2.842 3.207 2.703l102.277-8.722c1.632-.138 2.842-1.575 2.703-3.207l-.136-1.59-108.187 9.225.136 1.591z" mask="url(#prefix__f)"/>
            <path fill="#FFE2B7" d="M124.854 84.431c3.958.082 4.897.52 4.96.926.09.562-1.384 1.698-2.922 1.346-1.077-.247-1.896-1.156-2.038-2.272" mask="url(#prefix__f)"/>
            <path fill="#FFE2B7" d="M119.74 85.802l2.3 1.966c.238.62.724 1.651 1.7 2.596.463.45 2.423 2.346 4.552 1.819 1.499-.373 2.83-1.887 2.552-2.667-.094-.26-.36-.416-.616-.515l-7.31-6.25-3.177 3.05z" mask="url(#prefix__f)"/>
            <path fill="#7F786A" d="M146.013 200.644c-.001-4.913 3.98-8.896 8.894-8.896h1.133c4.912-.002 8.896 3.98 8.896 8.892.224.137.669.366 1.274.405.813.053 1.415-.27 1.638-.405-.002-6.52-5.288-11.806-11.81-11.805h-1.132c-6.52.002-11.806 5.288-11.805 11.81.214.132.71.4 1.396.414.756.017 1.304-.284 1.516-.415" mask="url(#prefix__f)"/>
            <path fill="#A29C8F" d="M194.951 258.204h-72.256c-7.124 0-12.9-5.775-12.9-12.9v-23.033c0-12.304 9.975-22.28 22.281-22.28h62.875v58.213z" mask="url(#prefix__f)"/>
            <path fill="#7F786A" d="M185.689 212.916v-10.322h-72.983c-.843 0-1.644.17-2.367.476-.348.722-.543 1.532-.543 2.388v28.382c9.638 3.013 21.553 5.564 35.302 6.097 18.135.705 33.707-2.325 45.715-6.044 1.199-.373 2.009-1.43 2.009-2.621v-18.356h-7.133z" mask="url(#prefix__f)"/>
            <path fill="#7F786A" d="M195.87 258.204h-2.993c-1.079 0-1.954-.874-1.954-1.953v-51.326c0-2.733 2.215-4.948 4.947-4.948 1.08 0 1.954.875 1.954 1.955v54.319c0 1.079-.875 1.953-1.954 1.953" mask="url(#prefix__f)"/>
            <path fill="#A29C8F" d="M193.552 204.925c0-2.418-.098-4.43 2.35-4.86v-.074h-83.17c-3.225 0-5.84 2.448-5.84 5.467v22.885c0 1.18.803 2.23 1.998 2.61 9.878 3.137 22.215 5.832 36.518 6.383 18.295.703 34.004-2.326 46.117-6.046 1.21-.372 2.027-1.428 2.027-2.62v-23.745z" mask="url(#prefix__f)"/>
            <path fill="#F89F4F" d="M146.052 242.166h3.548c.797-.001 1.443-.646 1.443-1.444v-7.897c-.002-.797-.648-1.442-1.445-1.442h-3.547c-.798 0-1.444.646-1.444 1.444l.002 7.897c0 .796.646 1.442 1.443 1.442" mask="url(#prefix__f)"/>
            <path fill="#FDC854" d="M145.395 242.166h3.548c.797-.001 1.443-.646 1.443-1.444l-.002-7.897c0-.797-.646-1.442-1.443-1.442h-3.548c-.797 0-1.443.646-1.443 1.444l.001 7.897c.001.796.647 1.442 1.444 1.442" mask="url(#prefix__f)"/>
            <path fill="#FFAC34" d="M279.202 247.446c21.037-17.148 24.188-48.104 7.039-69.141-17.148-21.037-48.104-24.189-69.141-7.04-21.037 17.149-24.19 48.104-7.04 69.142 17.149 21.036 48.105 24.187 69.142 7.039" mask="url(#prefix__f)"/>
            <path fill="#FFBC3F" d="M272.221 238.883c16.308-13.294 18.751-37.29 5.458-53.599-13.294-16.308-37.29-18.75-53.599-5.457-16.309 13.294-18.752 37.292-5.458 53.6 13.294 16.308 37.291 18.75 53.6 5.457" mask="url(#prefix__f)"/>
            <path fill="#FFA331" d="M263.611 203.127c.955.58 2.311.094 3.026-1.086.716-1.18.522-2.606-.434-3.185l-10.382-6.301-6.92-4.2c-.956-.58-2.31-.093-3.027 1.085-.716 1.18-.52 2.607.434 3.187l6.921 4.2c2.253 1.367 3.07 4.312 2.28 7.229l-11.794-7.158c-.955-.58-2.31-.092-3.026 1.086-.716 1.18-.52 2.607.434 3.187l11.794 7.157c-2.223 2.047-5.213 2.682-7.465 1.315l-6.922-4.201c-.225-.135-.483-.216-.759-.238-.555-.038-1.145.17-1.64.589-.493.414-.85 1.003-.99 1.632-.075.317-.09.63-.046.925l3.472 25.482c.085.624.4 1.103.843 1.37.443.27 1.014.329 1.604.12 1.18-.423 2.002-1.777 1.833-3.02l-2.732-20.052 2.744 1.665c4.181 2.537 9.902.982 13.66-3.401l1.907 1.157c.955.58 2.311.094 3.027-1.086.715-1.18.521-2.606-.434-3.186l-1.908-1.157c.706-1.747 1.002-3.531.995-5.242l3.505 2.127z" mask="url(#prefix__f)"/>
        </g>
        <g transform="translate(304 27.739)">
            <mask id="prefix__i" fill="#fff">
                <use xlink:href="#prefix__g"/>
            </mask>
            <path fill="url(#prefix__h)" d="M4.414 62.896C.089 91.727.81 95.331.81 95.331L21.713.188S8.738 34.065 4.414 62.896" mask="url(#prefix__i)"/>
        </g>
        <g>
            <path fill="#A29C8F" d="M367.518 15.305L326.433 13.864 304.81 113.331 273.095 120.9 273.095 249.559 367.518 249.919z" transform="translate(0 9.739)"/>
            <path fill="#7F786A" d="M367.518 249.92L367.518 15.306 343.472 14.462 335.803 116.936 273.095 167.24 273.095 249.56z" transform="translate(0 9.739)"/>
            <path fill="#A29C8F" d="M90.199 18.521l-.166-.56c1.119-.332 2.26-.643 3.393-.924l.14.566c-1.123.28-2.256.588-3.367.918zm-6.595 2.284l-.215-.542c1.09-.432 2.2-.845 3.296-1.224l.19.551c-1.088.377-2.188.786-3.271 1.215zm-6.37 2.851l-.261-.523c1.046-.523 2.115-1.029 3.177-1.504l.239.533c-1.055.472-2.116.974-3.154 1.494zm-6.106 3.38l-.304-.5c.998-.608 2.02-1.202 3.039-1.765l.282.51c-1.01.56-2.026 1.15-3.017 1.754zm-5.807 3.871l-.344-.473c.948-.688 1.918-1.364 2.884-2.009l.323.487c-.96.64-1.922 1.31-2.863 1.995zm-5.476 4.33l-.38-.444c.884-.759 1.797-1.51 2.712-2.234l.362.458c-.91.72-1.815 1.465-2.694 2.22zm-5.113 4.753l-.414-.41c.822-.83 1.672-1.652 2.526-2.446l.397.428c-.848.79-1.692 1.605-2.51 2.428zm-4.72 5.144l-.445-.377c.754-.89 1.536-1.778 2.324-2.636l.43.394c-.783.854-1.56 1.735-2.31 2.62zm-4.295 5.505l-.475-.34c.68-.947 1.389-1.894 2.107-2.814l.46.36c-.713.913-1.417 1.854-2.092 2.794zm-3.84 5.832l-.5-.3c.602-1 1.233-2.002 1.874-2.975l.487.32c-.637.968-1.262 1.962-1.86 2.955zm-3.346 6.126l-.524-.258c.514-1.042 1.059-2.09 1.622-3.119l.51.28c-.556 1.021-1.098 2.063-1.608 3.097zm-2.822 6.384l-.543-.213c.424-1.082.878-2.174 1.352-3.245l.534.236c-.47 1.064-.922 2.148-1.343 3.222zm-2.26 6.602l-.56-.166c.328-1.114.686-2.24 1.066-3.349l.552.188c-.377 1.101-.732 2.22-1.057 3.327zm8.442 7.716c-1.068-.413-2.187-.692-3.32-.825l.068-.58c1.18.14 2.348.43 3.462.86l-.21.545zm-10.104-.944l-.573-.113c.059-.306.122-.612.186-.915.177-.839.37-1.686.575-2.517l.567.14c-.203.824-.395 1.665-.571 2.497-.063.302-.125.604-.184.908zm.038 1.007l-.202-.549c1.137-.42 2.298-.715 3.45-.875l.08.58c-1.11.153-2.23.438-3.328.844zm15.506 3.942c-.667-.888-1.486-1.688-2.435-2.378l.343-.47c.996.721 1.856 1.563 2.559 2.498l-.467.35zm-21.401-.42l-.38-.444c.918-.782 1.885-1.48 2.876-2.078l.3.5c-.962.58-1.903 1.262-2.796 2.022zm4.552 2.375c-.02-1.11.04-2.266.182-3.533l.58.065c-.14 1.242-.197 2.373-.178 3.458l-.584.01zM49.2 93.666c.112-1.17.004-2.297-.32-3.353l.559-.17c.346 1.128.462 2.332.343 3.577l-.582-.054zM21.369 92.07l-.485-.325c.392-.585.803-1.156 1.222-1.694.296-.38.607-.757.925-1.12l.438.385c-.31.354-.613.723-.902 1.094-.411.527-.814 1.086-1.198 1.66zm10.618 4.107c-.222-.449-.416-.913-.578-1.378-.224-.64-.41-1.315-.552-2.006l.572-.118c.137.665.315 1.316.53 1.932.155.442.34.884.552 1.312l-.524.258zm14.805 3.951l-.413-.413c.788-.788 1.436-1.723 1.927-2.78l.53.244c-.52 1.121-1.208 2.113-2.044 2.95zm-28.703-1.939l-.536-.232c.487-1.123 1-2.194 1.523-3.18l.516.274c-.517.973-1.022 2.03-1.503 3.138zm18.699 3.19c-1.012-.573-1.95-1.33-2.788-2.249l.43-.393c.798.874 1.687 1.591 2.645 2.134l-.287.507zm3.41 1.14l.067-.58c.47.054.942.063 1.406.03.648-.048 1.289-.188 1.904-.418l.205.547c-.668.25-1.363.401-2.066.452-.5.037-1.01.027-1.516-.03zm-24.541 2.211l-.555-.183c.403-1.229.779-2.315 1.148-3.32l.548.201c-.367.998-.741 2.078-1.141 3.302zm-2.011 6.693l-.564-.152c.302-1.11.627-2.246.967-3.376l.559.168c-.34 1.125-.662 2.256-.962 3.36zm-1.63 6.796l-.572-.118c.233-1.125.49-2.279.767-3.428l.568.136c-.275 1.144-.532 2.291-.763 3.41zm-1.75 6.808c.069-.527.144-1.057.224-1.584.094-.63.195-1.26.303-1.89l.575.098c-.107.626-.207 1.252-.301 1.88-.08.523-.153 1.048-.223 1.573l-.578-.077zm-.632 7.002c.054-1.153.135-2.333.242-3.508l.58.053c-.105 1.166-.185 2.338-.238 3.482l-.584-.027zm.016 7.034c-.061-1.153-.093-2.337-.095-3.518h.583c.002 1.17.034 2.343.095 3.487l-.583.031zm.762 6.993c-.192-1.142-.353-2.316-.48-3.487l.58-.063c.126 1.161.287 2.322.477 3.454l-.577.096zm1.596 6.854l-.094-.314c-.298-1.008-.57-2.047-.812-3.089l.568-.13c.239 1.03.509 2.057.803 3.054l.093.31-.558.17zm2.546 6.567c-.505-1.06-.975-2.149-1.397-3.235l.544-.212c.416 1.073.88 2.148 1.38 3.196l-.527.251zm3.496 6.115c-.653-.968-1.28-1.975-1.861-2.993l.507-.29c.574 1.005 1.193 2 1.838 2.957l-.484.326zm4.369 5.53c-.79-.856-1.56-1.757-2.29-2.682l.458-.362c.72.913 1.482 1.803 2.26 2.647l-.428.396zm5.189 4.772c-.916-.71-1.822-1.477-2.693-2.279l.395-.43c.859.792 1.753 1.548 2.655 2.247l-.357.462zm5.939 3.8c-1.031-.529-2.06-1.123-3.058-1.764l.315-.49c.983.63 1.996 1.214 3.01 1.735l-.267.52zm6.565 2.572c-1.122-.307-2.25-.683-3.35-1.115l.214-.544c1.08.425 2.189.794 3.29 1.097l-.154.562zm3.73.792l-.277-.043.09-.576.274.042c.685.103 1.376.183 2.055.237l-.048.583c-.692-.056-1.396-.138-2.094-.243z" transform="translate(0 9.739)"/>
            <path fill="#F59015" d="M86.125 16.352L83.701 21.78 88.352 20.671 88.362 18.143z" transform="translate(0 9.739)"/>
            <path fill="#F9DC56" d="M101.114 16.237L83.048 11.811 87.24 19.348z" transform="translate(0 9.739)"/>
            <path fill="#FFB023" d="M101.114 16.237L92.45 26.95 87.24 19.348z" transform="translate(0 9.739)"/>
            <path fill="#FB0" d="M287.07 84.466c-.906 0-1.644.737-1.644 1.645 0 .906.738 1.643 1.644 1.643.907 0 1.644-.737 1.644-1.643 0-.908-.737-1.645-1.644-1.645m0 4.617c-1.639 0-2.973-1.334-2.973-2.972 0-1.64 1.334-2.973 2.973-2.973 1.64 0 2.973 1.333 2.973 2.973 0 1.638-1.333 2.972-2.973 2.972" transform="translate(0 9.739)"/>
            <g transform="translate(0 9.739) translate(0 259)">
                <mask id="prefix__k" fill="#fff">
                    <use xlink:href="#prefix__j"/>
                </mask>
            </g>
            <path fill="#FFA331" d="M265.644 32.35c.295-.093.442-.463.33-.827-.115-.363-.446-.585-.74-.492l-3.205.997-2.136.666c-.295.092-.442.461-.329.825.113.364.444.585.74.493l2.135-.665c.696-.217 1.455.152 1.915.85l-3.64 1.133c-.295.092-.442.462-.329.826.113.364.445.585.74.493l3.64-1.133c.017.835-.398 1.57-1.094 1.786l-2.136.666c-.069.022-.134.06-.188.113-.11.108-.175.27-.179.448-.004.177.053.36.157.504.052.073.114.133.184.178l5.913 3.944c.145.095.302.118.44.075.136-.042.252-.15.317-.31.128-.322-.002-.74-.29-.932l-4.654-3.103.847-.264c1.291-.402 2.015-1.872 1.795-3.452l.588-.183c.295-.092.442-.46.33-.825-.114-.365-.445-.585-.74-.494l-.589.184c-.233-.466-.548-.854-.904-1.165l1.082-.337z" transform="translate(0 9.739)"/>
            <path fill="#7F786A" d="M287.36 23.477c.053-1.04.099-2.083.137-3.125l.01-.295.585.02-.01.296c-.037 1.045-.082 2.09-.137 3.133l-.585-.029zm.276-10.265l.587.004c-.005 1.145-.018 2.287-.038 3.431l-.587-.012c.022-1.14.034-2.28.038-3.423zm-.748 17.092c.1-1.136.189-2.273.267-3.41l.585.038c-.079 1.141-.168 2.281-.267 3.422l-.584-.05zm.684-23.939l.586-.012c.025 1.144.044 2.287.055 3.431l-.586.005c-.012-1.142-.03-2.283-.055-3.424zm-1.416 30.745c.145-1.132.28-2.266.4-3.399l.584.06c-.121 1.138-.255 2.274-.402 3.411l-.582-.072zm-1.024 6.768c.195-1.124.378-2.25.55-3.378l.58.084c-.171 1.131-.356 2.262-.551 3.391l-.58-.097zm-1.332 6.716c.248-1.107.484-2.234.705-3.349l.577.108c-.222 1.12-.46 2.252-.707 3.363l-.575-.122zm-1.654 6.645c.3-1.087.592-2.2.87-3.313l.57.136c-.279 1.116-.572 2.235-.873 3.325l-.567-.148zm-1.995 6.552c.358-1.074.709-2.17 1.041-3.263l.563.163c-.334 1.097-.685 2.2-1.046 3.278l-.558-.178zm-2.355 6.437c.42-1.05.832-2.128 1.225-3.202l.551.192c-.394 1.08-.808 2.162-1.228 3.217l-.548-.207zm-2.73 6.291c.485-1.027.96-2.079 1.415-3.126l.54.223c-.458 1.053-.935 2.11-1.422 3.142l-.532-.239zm-3.123 6.113c.548-.993 1.091-2.012 1.612-3.032l.524.255c-.522 1.024-1.069 2.051-1.62 3.05l-.517-.273zm-3.531 5.9c.615-.954 1.228-1.936 1.817-2.92l.507.287c-.594.991-1.209 1.978-1.827 2.936l-.498-.304zm-3.946 5.64c.685-.906 1.368-1.844 2.025-2.785l.485.321c-.661.95-1.348 1.891-2.038 2.804l-.472-.34zm-4.363 5.343c.407-.46.81-.926 1.207-1.394.346-.41.688-.822 1.027-1.236l.46.356c-.342.417-.686.832-1.034 1.243-.4.472-.804.94-1.215 1.404l-.445-.373zm-4.796 4.976c.832-.794 1.657-1.616 2.452-2.44l.428.392c-.802.831-1.632 1.656-2.47 2.456l-.41-.408zm-5.203 4.57c.897-.727 1.788-1.477 2.65-2.233l.394.424c-.868.762-1.766 1.518-2.67 2.247l-.375-.439zm-5.575 4.13c.954-.648 1.907-1.323 2.832-2.009l.356.455c-.931.691-1.892 1.371-2.853 2.023l-.334-.469zm-5.912 3.656c1.004-.562 2.012-1.157 2.996-1.766l.316.482c-.993.614-2.008 1.213-3.018 1.78l-.294-.496zm-6.215 3.141c1.05-.475 2.108-.98 3.144-1.503l.27.508c-1.043.526-2.11 1.036-3.167 1.512l-.248-.517zm-6.482 2.575c1.092-.377 2.193-.785 3.272-1.214l.221.53c-1.086.431-2.196.843-3.298 1.223l-.196-.539zm-6.706 1.96c1.123-.27 2.258-.572 3.377-.9l.17.548c-1.129.33-2.273.635-3.404.907l-.143-.555zm-6.873 1.29c1.15-.156 2.311-.343 3.454-.559l.113.562c-1.153.217-2.326.405-3.485.561l-.082-.565zm-6.976.563c1.15-.03 2.326-.093 3.496-.188l.05.57c-1.18.095-2.368.158-3.529.19l-.017-.572zm-7.048.368l.05-.569c1 .085 2.022.147 3.035.184l.462.014-.017.572-.466-.015c-1.024-.038-2.054-.1-3.064-.186zm-3.18-.967c.16-1.123.242-2.254.248-3.377l.587.004c-.007 1.148-.091 2.303-.254 3.452l-.58-.079zm-1.159-9.789l.462-.352c.642.796 1.066 1.877 1.296 3.305l-.58.087c-.215-1.327-.6-2.322-1.178-3.04zm-.63 16.325c.432-1.057.803-2.139 1.1-3.216l.566.15c-.302 1.098-.68 2.202-1.121 3.278l-.546-.212zm-1.949-7.166l.255-.514c.93.438 2.03.794 3.269 1.06l-.125.556c-1.282-.274-2.427-.645-3.399-1.102zm-1.343 13.133c.657-.932 1.268-1.906 1.816-2.895l.516.272c-.556 1.008-1.179 2-1.849 2.947l-.482-.324zm-1.923-21.897c.772-1.137 1.844-1.908 2.94-2.11l.112.56c-.942.175-1.876.855-2.561 1.866l-.49-.316zm-1.052 3.395l.587-.012c.013.63.162 1.208.441 1.722.23.422.51.822.833 1.186l-.444.373c-.352-.398-.657-.833-.907-1.293-.323-.593-.494-1.258-.51-1.976zm-1.556 23.642c.844-.772 1.654-1.597 2.405-2.452l.446.372c-.767.87-1.59 1.71-2.45 2.497l-.401-.417zm-5.553 4.076c.99-.572 1.963-1.206 2.89-1.889l.355.456c-.947.695-1.938 1.343-2.946 1.924l-.298-.49zm-6.35 2.733c1.098-.324 2.195-.72 3.258-1.18l.239.522c-1.085.47-2.204.874-3.327 1.204l-.17-.546zm-6.845 1.091c1.148-.03 2.312-.139 3.46-.322l.096.563c-1.175.187-2.365.3-3.538.33l-.017-.57z" transform="translate(0 9.739)"/>
            <path fill="#F59015" d="M293.53 13.425L290.173 18.331 288.683 13.788 290.832 12.456z" transform="translate(0 9.739)"/>
            <path fill="#F9DC56" d="M285.785 0.591L299.009 13.671 290.393 14.042z" transform="translate(0 9.739)"/>
            <path fill="#FFB023" d="M285.785 0.591L281.188 13.579 290.393 14.042z" transform="translate(0 9.739)"/>
        </g>
    </g>
</svg>
