<svg xmlns="http://www.w3.org/2000/svg" xmlns:xlink="http://www.w3.org/1999/xlink" width="284" height="297" viewBox="0 0 284 297">
    <defs>
        <path id="prefix__a" d="M11.094 41.02L6.835 41.02 6.835 31.254 0.446 24.865 0.446 0.556 4.705 0.556 4.705 23.101 11.094 29.49z"/>
        <path id="prefix__c" d="M15.261 41.02L11.001 41.02 11.001 31.254 0.353 20.605 0.353 0.556 4.613 0.556 4.613 18.842 15.261 29.49z"/>
        <path id="prefix__e" d="M19.298 41.02L15.039 41.02 15.039 31.254 0.131 16.347 0.131 0.556 4.39 0.556 4.39 14.583 19.298 29.49z"/>
        <path id="prefix__g" d="M4.76 41.02L0.501 41.02 0.501 29.49 6.89 23.101 6.89 0.556 11.149 0.556 11.149 24.865 4.76 31.254z"/>
        <path id="prefix__i" d="M4.593 41.02L0.334 41.02 0.334 29.49 10.982 18.842 10.982 0.556 15.242 0.556 15.242 20.605 4.593 31.254z"/>
        <path id="prefix__k" d="M4.556 41.02L0.297 41.02 0.297 29.49 15.205 14.583 15.205 0.556 19.464 0.556 19.464 16.347 4.556 31.254z"/>
        <path id="prefix__m" d="M49.868.76C35.273.876 23.464 12.758 23.464 27.381c0 1.853.192 3.663.554 5.409C10.644 33.6.038 44.674.038 58.26c0 14.12 11.435 25.556 25.555 25.556h74.539c12.947 0 23.426-10.477 23.426-23.425s-10.479-23.427-23.426-23.427c-3.855 0-7.498.958-10.692 2.598 0-.149.043-.298.043-.469 0-5.878-4.77-10.648-10.648-10.648-.745 0-1.491.085-2.194.234.021-.425.064-.851.064-1.298C76.705 12.758 64.896.876 50.3.76h-.432z"/>
        <path id="prefix__o" d="M0.175 0.903L99.557 0.903 99.557 46.816 0.175 46.816z"/>
        <path id="prefix__q" d="M.019 3.245S79.598 67.14 81.164 64.91c2.998-4.272 4.313-9.736 3.893-14.851-.638-7.787-4.608-14.891-9.12-21.335-4.677-6.677-10.073-12.97-16.669-17.973C52.672 5.746 44.889 1.399 36.359.995 33.69.869 31.152.813 28.749.813 14.546.813 5.011 2.741.019 3.245"/>
        <path id="prefix__s" d="M.575 3.395c0 1.554 1.26 2.814 2.814 2.814s2.813-1.26 2.813-2.814S4.943.583 3.389.583C1.835.583.575 1.841.575 3.395"/>
        <path id="prefix__v" d="M.6 2.059c0 1.088.881 1.97 1.969 1.97s1.97-.882 1.97-1.97c0-1.089-.882-1.97-1.97-1.97S.6.97.6 2.059"/>
        <path id="prefix__y" d="M23.055.135L7.881.402C-.953.329.111 8.82.798 17.46c0 0 2.32 24.735.355 33.094-.465 1.981 13.497 9.443 24.324 9.732 11.827.316 15.272-3.452 15.272-3.452s1.164-26.777-2.733-38.75C34.818 8.257 28.246.08 23.685.081c-.215 0-.425.018-.63.054"/>
        <linearGradient id="prefix__t" x1="100%" x2=".012%" y1="49.994%" y2="49.994%">
            <stop offset="0%" stop-color="#FFB218"/>
            <stop offset="100%" stop-color="#FFCF44"/>
        </linearGradient>
        <linearGradient id="prefix__w" x1="99.981%" x2="-.005%" y1="49.987%" y2="49.987%">
            <stop offset="0%" stop-color="#FFB218"/>
            <stop offset="100%" stop-color="#FFCF44"/>
        </linearGradient>
    </defs>
    <g fill="none" fill-rule="evenodd">
        <path fill="#FFAF12" d="M219.668 120.26L223.928 120.26 223.928 79.796 219.668 79.796z"/>
        <g transform="translate(232 79.24)">
            <mask id="prefix__b" fill="#fff">
                <use xlink:href="#prefix__a"/>
            </mask>
            <use fill="#FFAF12" xlink:href="#prefix__a"/>
            <path fill="#FFAF12" d="M11.094 41.02L6.835 41.02 6.835 31.254 0.446 24.865 0.446 0.556 4.705 0.556 4.705 23.101 11.094 29.49z" mask="url(#prefix__b)"/>
        </g>
        <g transform="translate(247 79.24)">
            <mask id="prefix__d" fill="#fff">
                <use xlink:href="#prefix__c"/>
            </mask>
            <use fill="#FFAF12" xlink:href="#prefix__c"/>
            <path fill="#FFAF12" d="M15.261 41.02L11.001 41.02 11.001 31.254 0.353 20.605 0.353 0.556 4.613 0.556 4.613 18.842 15.261 29.49z" mask="url(#prefix__d)"/>
        </g>
        <g transform="translate(260 79.24)">
            <mask id="prefix__f" fill="#fff">
                <use xlink:href="#prefix__e"/>
            </mask>
            <use fill="#FFAF12" xlink:href="#prefix__e"/>
            <path fill="#FFAF12" d="M19.298 41.02L15.039 41.02 15.039 31.254 0.131 16.347 0.131 0.556 4.39 0.556 4.39 14.583 19.298 29.49z" mask="url(#prefix__f)"/>
        </g>
        <g transform="translate(200 79.24)">
            <mask id="prefix__h" fill="#fff">
                <use xlink:href="#prefix__g"/>
            </mask>
            <use fill="#FFAF12" xlink:href="#prefix__g"/>
            <path fill="#FFAF12" d="M4.76 41.02L0.501 41.02 0.501 29.49 6.89 23.101 6.89 0.556 11.149 0.556 11.149 24.865 4.76 31.254z" mask="url(#prefix__h)"/>
        </g>
        <g transform="translate(181 79.24)">
            <mask id="prefix__j" fill="#fff">
                <use xlink:href="#prefix__i"/>
            </mask>
            <use fill="#FFAF12" xlink:href="#prefix__i"/>
            <path fill="#FFAF12" d="M4.593 41.02L0.334 41.02 0.334 29.49 10.982 18.842 10.982 0.556 15.242 0.556 15.242 20.605 4.593 31.254z" mask="url(#prefix__j)"/>
        </g>
        <g transform="translate(164 79.24)">
            <mask id="prefix__l" fill="#fff">
                <use xlink:href="#prefix__k"/>
            </mask>
            <use fill="#FFAF12" xlink:href="#prefix__k"/>
            <path fill="#FFAF12" d="M4.556 41.02L0.297 41.02 0.297 29.49 15.205 14.583 15.205 0.556 19.464 0.556 19.464 16.347 4.556 31.254z" mask="url(#prefix__l)"/>
        </g>
        <path fill="#7F786A" d="M179.205 88.316L183.464 88.316 183.464 79.796 179.205 79.796zM191.982 88.316L196.241 88.316 196.241 79.796 191.982 79.796zM206.89 88.316L211.149 88.316 211.149 79.796 206.89 79.796zM219.668 88.316L223.928 88.316 223.928 79.796 219.668 79.796zM232.446 88.316L236.705 88.316 236.705 79.796 232.446 79.796zM247.353 88.316L251.612 88.316 251.612 79.796 247.353 79.796zM260.131 88.316L264.39 88.316 264.39 79.796 260.131 79.796z"/>
        <path fill="#A29C8F" d="M275.039 128.779L279.298 128.779 279.298 124.519 275.039 124.519zM258.001 128.779L262.26 128.779 262.26 124.519 258.001 124.519zM238.835 128.779L243.094 128.779 243.094 124.519 238.835 124.519zM164.297 128.779L168.557 128.779 168.557 124.519 164.297 124.519zM181.334 128.779L185.593 128.779 185.593 124.519 181.334 124.519zM200.501 128.779L204.76 128.779 204.76 124.519 200.501 124.519zM219.668 128.779L223.928 128.779 223.928 124.519 219.668 124.519z"/>
        <g transform="translate(160 .24)">
            <mask id="prefix__n" fill="#fff">
                <use xlink:href="#prefix__m"/>
            </mask>
            <path fill="#FFAF12" d="M49.868.76C35.273.876 23.464 12.758 23.464 27.381c0 1.853.192 3.663.554 5.409C10.644 33.6.038 44.674.038 58.26c0 14.12 11.435 25.556 25.555 25.556h74.539c12.947 0 23.426-10.477 23.426-23.425s-10.479-23.427-23.426-23.427c-3.855 0-7.498.958-10.692 2.598 0-.149.043-.298.043-.469 0-5.878-4.77-10.648-10.648-10.648-.745 0-1.491.085-2.194.234.021-.425.064-.851.064-1.298C76.705 12.758 64.896.876 50.3.76h-.432z" mask="url(#prefix__n)"/>
        </g>
        <g>
            <g transform="translate(0 9.24) translate(184 28)">
                <mask id="prefix__p" fill="#fff">
                    <use xlink:href="#prefix__o"/>
                </mask>
                <path fill="#FFBF4D" d="M1.593 46.816h74.538c12.948 0 23.427-10.478 23.427-23.426 0-10.678-7.133-19.659-16.893-22.487-17.796 26.93-47.992 44.9-82.49 45.841.47.027.94.072 1.418.072" mask="url(#prefix__p)"/>
            </g>
            <path fill="#F9F1E4" d="M214.697 5.328c-1.478-.523-3.03-.79-4.613-.79V.278c2.07 0 4.1.35 6.036 1.035l-1.423 4.015zM196.242 18.38h-4.26c0-7.648 4.85-14.506 12.067-17.066l1.423 4.014c-5.52 1.957-9.23 7.202-9.23 13.053M204.503 44.974h3.59l-1.771-5.516-1.82 5.516zm.193-8.72h3.314l4.958 14.016h-3.175l-.925-2.882h-5.161l-.951 2.882h-3.063l5.003-14.017zM222.314 39.154c-.37-.31-.89-.466-1.558-.466h-2.64v4.126h2.64c.668 0 1.187-.167 1.558-.504.371-.335.557-.868.557-1.596 0-.73-.186-1.249-.557-1.56m2.235 5.05c-.82.683-1.992 1.025-3.515 1.025h-2.918v5.04h-2.909V36.254h6.017c1.388 0 2.494.361 3.32 1.084.824.722 1.236 1.841 1.236 3.356 0 1.654-.41 2.824-1.23 3.51M228.281 50.269L231.19 50.269 231.19 36.253 228.281 36.253z" transform="translate(0 9.24)"/>
            <path fill="#F7E8C8" d="M0 280.844c0-3.4 60.678-6.156 135.527-6.156 74.85 0 135.527 2.756 135.527 6.156S210.377 287 135.527 287C60.678 287 0 284.244 0 280.844" transform="translate(0 9.24)"/>
            <path fill="#619440" d="M76.07 232.517c-28.756 2.775-56.197-63.416-66.712-90.009C2.443 125.02 1.183 105.93 0 87.193 30.04 97.287 66.343 120.51 80.808 148.4c2.402 4.631 4.082 11.975 5.048 17.09 2.022 10.711 3.151 45.48 2.174 56.341-.306 3.4.931 9.441-11.96 10.686" transform="translate(0 9.24)"/>
            <path fill="#306B34" d="M3.562 91.965c.604-.523 1.525-.464 2.054.133 6.603 7.435 12.784 14.88 18.619 22.434 1.49-4.124 2.105-7.527 2.187-11.882.015-.528.454-.951.99-.941.535.01.962.447.953.977-.06 3.044-.377 5.7-1.053 8.425-.417 1.683-.972 3.39-1.684 5.232 4.575 5.995 8.933 12.063 13.107 18.257.239-2.37.644-4.708 1.04-7.001.446-2.567.787-4.368 1.13-6.165.343-1.81.687-3.613 1.132-6.196.09-.526.594-.873 1.122-.783.529.088.884.584.794 1.107-.45 2.595-.795 4.408-1.14 6.226-.34 1.788-.68 3.58-1.123 6.136-.527 3.045-1.07 6.176-1.201 9.299 5.073 7.665 9.873 15.529 14.462 23.685l4.507-14.76c.709-2.325 1.447-4.732 1.522-7.165.023-.521.464-.946.999-.93.537.016.959.458.943.987-.046 1.49-.303 2.93-.652 4.336-.281 1.13-.62 2.236-.954 3.327L56.26 163.26c5.519 9.965 10.738 20.368 15.759 31.387.139.303.16.63.087.93-.103.416-.391.783-.817.972-.735.325-1.596.002-1.926-.724-2.282-5.007-4.607-9.88-6.98-14.648h-.005c-5.201-.686-9.226-1.393-13.12-2.077-3.874-.681-7.878-1.385-13.038-2.065-.532-.07-.906-.551-.835-1.077.07-.515.558-.893 1.09-.823 5.203.685 9.228 1.392 13.122 2.077 3.54.622 7.203 1.265 11.747 1.889-3.057-6.063-6.197-11.952-9.446-17.693-6.262-1.323-11.687-2.502-17.11-3.678-5.59-1.214-11.181-2.428-17.692-3.802-.523-.111-.858-.62-.747-1.138.184-.513.629-.848 1.154-.738 6.515 1.375 12.109 2.59 17.703 3.805 4.928 1.07 9.857 2.139 15.416 3.319-3.775-6.567-7.696-12.95-11.796-19.195-.023-.022-.041-.047-.062-.072-.19.067-.398.078-.604.016-10.604-3.185-18.608-4.893-29.532-6.303-.531-.068-.906-.55-.836-1.074.08-.538.56-.896 1.089-.827 10.54 1.36 18.395 2.998 28.414 5.946-3.775-5.66-7.7-11.213-11.803-16.696-7.623-3.28-11.87-3.872-19.808-3.878-.537-.001-.971-.432-.971-.96-.001-.53.435-.957.97-.96 7.484.007 11.854.646 17.544 2.803-6.175-8.088-12.747-16.041-19.8-23.983-.533-.595-.472-1.504.135-2.03" transform="translate(0 9.24)"/>
            <path fill="#FFDE8E" d="M24.02 211.245c3.733 25.494 25.192 56.173 49.992 66.253 7.92 3.22 17.475 5.087 25.085.907 7.22-3.965 10.599-12.559 9.96-20.347-.638-7.786-4.609-14.89-9.12-21.334-4.677-6.677-10.072-12.969-16.668-17.973-6.598-5.005-14.38-9.352-22.91-9.756-18.455-.875-30.504 1.661-36.34 2.25" transform="translate(0 9.24)"/>
        </g>
        <g transform="translate(24 217.24)">
            <mask id="prefix__r" fill="#fff">
                <use xlink:href="#prefix__q"/>
            </mask>
            <path fill="#FFBF4D" d="M.019 3.245S79.598 67.14 81.164 64.91c2.998-4.272 4.313-9.736 3.893-14.851-.638-7.787-4.608-14.891-9.12-21.335-4.677-6.677-10.073-12.97-16.669-17.973C52.672 5.746 44.889 1.399 36.359.995 33.69.869 31.152.813 28.749.813 14.546.813 5.011 2.741.019 3.245" mask="url(#prefix__r)"/>
        </g>
        <path fill="#306B34" d="M140.493 262.142c0 2.354 1.908 4.262 4.262 4.262 2.354 0 4.263-1.908 4.263-4.262 0-2.354-1.909-4.263-4.263-4.263s-4.262 1.91-4.262 4.263"/>
        <g transform="translate(151 253.24)">
            <mask id="prefix__u" fill="#fff">
                <use xlink:href="#prefix__s"/>
            </mask>
            <path fill="url(#prefix__t)" d="M.575 3.395c0 1.554 1.26 2.814 2.814 2.814s2.813-1.26 2.813-2.814S4.943.583 3.389.583C1.835.583.575 1.841.575 3.395" mask="url(#prefix__u)"/>
        </g>
        <g transform="translate(145 249.24)">
            <mask id="prefix__x" fill="#fff">
                <use xlink:href="#prefix__v"/>
            </mask>
            <path fill="url(#prefix__w)" d="M.6 2.059c0 1.088.881 1.97 1.969 1.97s1.97-.882 1.97-1.97c0-1.089-.882-1.97-1.97-1.97S.6.97.6 2.059" mask="url(#prefix__x)"/>
        </g>
        <g>
            <path fill="#FFE2B7" d="M79.904 242.718c-.997-.217-1.628-1.2-1.411-2.196l2.044-9.384c.217-.996 1.2-1.628 2.197-1.411.996.218 1.628 1.2 1.41 2.197l-2.043 9.383c-.217.997-1.201 1.629-2.197 1.41" transform="translate(25 41.24)"/>
            <path fill="#7F786A" d="M92.027 245.11c-.012.508-.445.91-.968.897l-12.694-.298c-.67-.016-1.158-.624-1.01-1.26l.235-2.24c.068-.64.629-1.12 1.29-1.106 0 0 .302.992 1.492 1.172.964.146 1.307-.624 1.429-1.182.059-.269.36-.425.634-.32l9.009 3.464c.36.146.592.493.583.872M72.74 85.716c-3.233 4.525.328 27.609.328 27.609l10.57 58.52-7.48 64.16 7.886 1.009s24.965-54.267 24.516-69.21c-1.133-37.742-10.97-74.226-18.585-85.466-3.137 1.716-9.333 5.035-17.234 3.378" transform="translate(25 41.24)"/>
            <path fill="#E7E1D3" d="M65.044 23.038s1.092 17.182 7.984 36.72c5.292 15.005 7.896 24.376 15.356 32.815 0 0 5.857.379 13-2.71 6.256-2.704 10.145-6.985 10.145-6.985s-10.7-8.687-15.658-26.721c-4.825-17.55-13.73-32.71-21.263-33.47-7.533-.758-9.564.35-9.564.35" transform="translate(25 41.24)"/>
            <path fill="#7F786A" d="M24.823 240.715c-.15-.321-.313-.607-.492-.83-.795-.987-2.761-.367-3.89.705 0 0-8.418 5.742-7.793 8.276.663 2.692 10.09-2.08 12.62-3.54.494-.285.72-.892.557-1.496-.265-.981-.68-2.421-1.002-3.115" transform="translate(25 41.24)"/>
            <path fill="#FFE2B7" d="M22.12 242.18l-.114-.042c-.96-.352-1.536-1.428-1.287-2.404l2.448-9.62c.248-.977 1.227-1.484 2.187-1.133l.115.042c.959.35 1.536 1.428 1.287 2.404l-2.448 9.62c-.25.977-1.228 1.484-2.187 1.133M161.836 4.704L162.303 7.58 158.893 8.956 157.749 6.353z" transform="translate(25 41.24)"/>
            <path fill="#E7E1D3" d="M156.103 5.781L159.325 4.481 161.598 9.653 158.376 10.953z" transform="translate(25 41.24)"/>
            <path fill="#A29C8F" d="M51.423 75.687c-4.96 8.424-12.877 16.758-16.511 30.072-4.317 15.82-3.954 27.103-7.262 47.12-6.73 40.712-6.425 80.252-6.96 83.33l7.506 3.995s18.293-46.143 24.177-63.312c4.368-12.747 14.727-42.084 18.88-53.943 3.694-10.547 12.199-40.865 12.199-40.865s-29.326-4.745-32.03-6.397" transform="translate(25 41.24)"/>
            <path fill="#FFE2B7" d="M7.376 124.254l-.122.047c-.518.2-1.144-.076-1.398-.617l-1.373-2.92 1.06-.407 1.833 3.897z" transform="translate(25 41.24)"/>
            <path fill="#FFE2B7" d="M4.418 125.079s-2.1.605-2.79.345c-.526-.2-1.008-1.18-.971-1.717.097-1.41.644-4.37 1.789-4.85.547-.228 1.784.25 2.689.672.6.28.783 1.715.576 2.295l-1.293 3.255z" transform="translate(25 41.24)"/>
            <path fill="#FFE2B7" d="M4.037 126.058c.434-.605 1.295-3.53 1.295-3.53l-1.26-.45s-.944 2.923-.964 3.646c-.011.4.68.681.929.334" transform="translate(25 41.24)"/>
            <path fill="#FFE2B7" d="M2.86 126.243c.438-.604 1.301-3.529 1.301-3.529l-1.28-.456s-.947 2.923-.964 3.646c-.01.401.692.685.943.339" transform="translate(25 41.24)"/>
            <path fill="#FFE2B7" d="M1.946 125.713c.41-.612 1.265-3.542 1.265-3.542l-1.144-.407s-.93 2.928-.965 3.646c-.019.398.607.656.843.303" transform="translate(25 41.24)"/>
            <path fill="#FFE2B7" d="M1.138 125.023c.411-.613 1.265-3.542 1.265-3.542l-1.144-.407s-.93 2.928-.964 3.645c-.019.398.607.656.843.304M2.973 116.822L2.441 119.581 5.374 120.395 6.25 117.977z" transform="translate(25 41.24)"/>
            <path fill="#FFF0D2" d="M7.832 115.066L6.809 119.516 1.542 117.811 2.566 113.36z" transform="translate(25 41.24)"/>
            <path fill="#FFE2B7" d="M166.053 2.788s1.19 1.16 1.482 2.4c.142.6.193 2.18.193 2.18s-3.974 1.446-5.057.672c-.516-.37-.943-1.76-1.202-2.817-.173-.703.137-1.371.7-1.505l3.884-.93z" transform="translate(25 41.24)"/>
            <path fill="#FFE2B7" d="M164.48.765l.157.147c.463.434.536 1.149.163 1.595l-2.153 2.58-.996-.93L164.48.765zM169.46 1.525c.282.675-.01 1.412-.657 1.647l-3.259 1.275-.205-1.42 4.12-1.502z" transform="translate(25 41.24)"/>
            <path fill="#FFE2B7" d="M168.177 4.369c.008-.46-.149-1.088-.792-.847l-3.309 1.156.864 1.176s3.225-.788 3.237-1.485" transform="translate(25 41.24)"/>
            <path fill="#FFE2B7" d="M168.35 5.533c-.013-.462-.198-1.084-.827-.81l-3.236 1.327.912 1.136s3.17-.953 3.15-1.653" transform="translate(25 41.24)"/>
            <path fill="#FFE2B7" d="M168.428 6.834c.037-.455-.078-1.09-.74-.896l-3.397.905.788 1.229s3.29-.548 3.349-1.238M164.82 4.308c.231.69 1.046 1.018 1.517.878 0 0 1.408-.316 1.801-.713.186-.186.016-.951-.31-1.056-.167-.052-3.008.89-3.008.89" transform="translate(25 41.24)"/>
            <path fill="#FFE2B7" d="M165.385 5.38c.232.69.96 1.043 1.367.922 0 0 1.22-.264 1.549-.641.155-.177-.026-.94-.317-1.054-.148-.06-2.6.773-2.6.773" transform="translate(25 41.24)"/>
            <path fill="#FFE2B7" d="M166.191 6.44c.208.62.802.953 1.123.856 0 0 .965-.198 1.215-.524.117-.153-.053-.837-.289-.946-.12-.056-2.049.613-2.049.613" transform="translate(25 41.24)"/>
            <path fill="#E7E1D3" d="M125.056 17.153l-6.542 18.284-35.468 5.445c-9.867 1.641-7.66-7.244-10.14-17.772l52.15-5.957z" transform="translate(25 41.24)"/>
            <path fill="#E7E1D3" d="M158.9 15.981c-4.356 13.025-22.195 16.437-32.664 18.378-11.682 2.165-25.975 2.288-28.387-5.728 0 0 9.504-8.097 14.325-10.216 9.659-4.246 44.475-13.776 44.475-13.776s3.81 6.685 2.252 11.342" transform="translate(25 41.24)"/>
        </g>
        <g transform="translate(73 66.24)">
            <mask id="prefix__z" fill="#fff">
                <use xlink:href="#prefix__y"/>
            </mask>
            <path fill="#FFAF12" d="M23.055.135L7.881.402C-.953.329.111 8.82.798 17.46c0 0 2.32 24.735.355 33.094-.465 1.981 13.497 9.443 24.324 9.732 11.827.316 15.272-3.452 15.272-3.452s1.164-26.777-2.733-38.75C34.818 8.257 28.246.08 23.685.081c-.215 0-.425.018-.63.054" mask="url(#prefix__z)"/>
        </g>
        <g>
            <path fill="#F5EFE4" d="M36.736 78.773L21.448 64.52l20.147-27.926c10.115-10.967 12.02-1.587 14.305 6.855L36.736 78.773z" transform="translate(22 37.24)"/>
            <path fill="#A29C8F" d="M75.734 33.57l-.13-.008c-1.088-.055-2.006-1.02-2.054-2.159l-.106-2.563 4.067.205.106 2.562c.047 1.14-.796 2.017-1.883 1.962" transform="translate(22 37.24)"/>
            <path fill="#FFE2B7" d="M73.03 29.102l.142.051c1.108.394 2.24-.206 2.518-1.335l1.433-5.842c.254-1.034-.363-2.165-1.378-2.526l-.73-.26c-1.013-.362-2.042.183-2.296 1.217l-1.375 5.604c-.31 1.26.45 2.651 1.686 3.091" transform="translate(22 37.24)"/>
            <path fill="#FFC581" d="M76.982 22.549c.331-1.35-.386-2.796-1.602-3.23-1.216-.432-2.47.31-2.8 1.66l-.868 3.532c-.18.737 1.558.86 3.091.156 1.004-.461 1.991-1.352 1.991-1.352l.188-.766z" transform="translate(22 37.24)"/>
            <path fill="#57575E" d="M83.627 2.521c-1.663-3.54-4.76.712-12.846 1.422-3.294.29-4.73 2.682-4.417 4.362-.563.2-1.07.481-1.51.825-2.144 1.678-1.737 4.281-.061 6.69 1.969 2.83 7.905 5.408 7.905 5.408l8.052-2.516s-.193-2.883-.501-4.429c-.291-1.463-1.143-2.814-2.283-3.742 6.365-.042 6.735-5.733 5.66-8.02" transform="translate(22 37.24)"/>
            <path fill="#FFE2B7" d="M71.155 14.812c-.225-2.794 1.285-5.134 3.984-5.597 4.391-.754 6.215 6.528 6.335 9.684.133 3.504-.994 4.391-.994 4.391s-2.544.674-4.713-.078c-1.842-.638-3.45-1.074-3.926-3.79-.425-2.426-.591-3.435-.686-4.61" transform="translate(22 37.24)"/>
            <path fill="#FFE2B7" d="M72.01 16.65c.803 1.033 1.032 2.217.511 2.643-.52.425-1.594-.067-2.397-1.1-.803-1.034-1.032-2.217-.511-2.644.52-.425 1.594.067 2.397 1.101" transform="translate(22 37.24)"/>
            <path fill="#57575E" d="M72.26 17.97l-.032.008c-.264.067-.55-.11-.638-.393l-1.429-4.593c-.089-.284.054-.568.318-.635l.032-.008c.264-.066.55.109.638.393l1.43 4.592c.088.284-.055.569-.319.636M71.48 9.896s6.967 1.895 9.113-.29c2.146-2.187-8.128-2.166-9.113.29" transform="translate(22 37.24)"/>
            <path fill="#F5EFE4" d="M72.861 33.656L67.489 28.79 71.597 24.899 75.649 28.953z" transform="translate(22 37.24)"/>
            <path fill="#E7E1D3" d="M78.768 33.245L79.397 30.379 76.051 26.442 75.163 28.645z" transform="translate(22 37.24)"/>
            <path fill="#F5EFE4" d="M1.972 113.197c-4.646-13.53 5.538-32.332 12.19-40.492 2.465-3.025 7.333-8.477 9.36-10.468 4.43-4.353 11.802-1.859 18.34 1.948 0 0-5.64 17.005-7.96 21.78-4.647 9.564-12.574 28.32-22.478 33.96-2.314 1.316-7.79-1.89-9.452-6.728" transform="translate(22 37.24)"/>
            <path fill="#F5EFE4" d="M69.67 26.637s4.9 25.436.282 44.614c-3.546 14.727-9.722 28.162-16.216 36.165 0 0-5.834.012-13.366-3.537-6.598-3.107-11.005-7.65-11.005-7.65S41.1 81.777 45.334 64.416s-4.576-29.756 2.246-32.436c7.46-2.931 22.09-5.342 22.09-5.342" transform="translate(22 37.24)"/>
            <path fill="#A29C8F" d="M67.687 68.68c-.788-2.356-1.502-4.728-2.226-7.096-.71-2.37-1.383-4.75-2.052-7.129-1.313-4.762-2.572-9.535-3.751-14.325l-.002-.008c-.098-.398.117-.776.48-.86 1.056-.243 2.117-.47 3.179-.694l-.16 1.258c-1.2-.944-2.406-1.877-3.594-2.839l-.03-.023c-.26-.212-.326-.59-.148-.844.013-.018.029-.038.044-.054 1.33-1.438 2.683-2.854 4.04-4.264 1.389-1.38 2.737-2.8 4.159-4.148-1.161 1.602-2.397 3.13-3.594 4.7-1.225 1.538-2.457 3.072-3.71 4.584l-.134-.922c1.24.88 2.465 1.787 3.694 2.684.317.231.418.672.225.985-.086.14-.215.228-.36.267l-.025.005c-1.05.267-2.098.532-3.153.78l.479-.869c1.265 4.771 2.45 9.558 3.583 14.356.553 2.4 1.103 4.804 1.614 7.213.499 2.41 1.008 4.82 1.442 7.243M63.212 79.967c-.117.74-.797 1.188-1.52.997-.721-.191-1.212-.947-1.095-1.69.117-.741.797-1.188 1.52-.996.72.19 1.212.947 1.095 1.689M60.79 86.683c-.117.742-.797 1.188-1.518.997-.722-.19-1.213-.947-1.096-1.688.116-.743.796-1.189 1.52-.998.72.191 1.212.947 1.095 1.69M65.844 71.913c-.117.742-.797 1.188-1.52.997-.721-.19-1.212-.947-1.096-1.688.117-.743.798-1.19 1.52-.997.721.19 1.212.947 1.096 1.688" transform="translate(22 37.24)"/>
            <path fill="#7F786A" d="M57.856 58.448l-5.525-2.82 1.07-5.94s8.09-2.552 12.15-5.707c1.578-1.226 4.309-3.407 6.419-6.3 2.223-3.048 3.63-6.13 3.63-6.13s1.37.74 1.333 1.168c-.438 5.063-1.377 11.512-4.224 16.238-4.53 7.517-14.853 9.491-14.853 9.491M72.957 10.188c1.844.565 3.786.937 5.786.825.998-.085 2.005-.248 2.992-.766.938-.659 1.656-1.312 2.23-2.268 1.136-1.866 1.16-4.332.029-6.262-.29-.45-.631-1.048-1.478-1.317-.65-.19-1.255-.133-1.798-.035-1.095.227-2.007.643-2.93 1.183l.126-.062c-2.226.842-4.616 1.487-7.001 1.96-1.134.2-2.614.338-3.653 1.263-1.082.91-1.316 2.44-.896 3.596-.136-1.23.302-2.506 1.284-3.084.999-.587 2.112-.643 3.41-.728 2.518-.227 4.975-.73 7.41-1.567l.043-.014.085-.048c1.413-.805 3.687-1.595 4.048-.329.82 1.392.926 3.281.117 4.766-.37.73-1.034 1.475-1.62 1.974-.684.451-1.598.716-2.5.868-1.833.317-3.763.228-5.684.045" transform="translate(22 37.24)"/>
        </g>
    </g>
</svg>
