<svg xmlns="http://www.w3.org/2000/svg" xmlns:xlink="http://www.w3.org/1999/xlink" width="284" height="297" viewBox="0 0 284 297"><defs/><defs><path id="a" d="M11 41H6.9v-9.7L.4 24.9V.6h4.3V23l6.4 6.4z"/><path id="c" d="M15.3 41H11v-9.7L.4 20.6V.6h4.2v18.2l10.7 10.7z"/><path id="e" d="M19.3 41H15v-9.7L.1 16.3V.6h4.3v14l14.9 14.9z"/><path id="g" d="M4.8 41H.5V29.5L6.9 23V.6H11v24.3l-6.3 6.4z"/><path id="i" d="M4.6 41H.3V29.5L11 18.8V.6h4.2v20L4.6 31.3z"/><path id="k" d="M4.6 41H.3V29.5l14.9-15V.6h4.3v15.8l-15 15z"/><path id="m" d="M49.9.8a26.6 26.6 0 00-25.9 32 25.5 25.5 0 001.6 51H100a23.4 23.4 0 10-10.7-44.2V39a10.7 10.7 0 00-12.8-10.4l.1-1.3A26.6 26.6 0 0050.3.8h-.4z"/><path id="o" d="M.2.9h99.4v46H.2z"/><path id="q" d="M0 3.2s79.6 64 81.2 61.7A23 23 0 0085 50.1a44.6 44.6 0 00-9.2-21.4c-4.6-6.7-10-13-16.6-18A42.3 42.3 0 0028.7.9C14.5.8 5 2.8 0 3.2"/><path id="s" d="M.6 3.4a2.8 2.8 0 105.6 0 2.8 2.8 0 00-5.6 0"/><path id="v" d="M.6 2a2 2 0 104 0 2 2 0 00-4 0"/><path id="y" d="M23 .1L8 .4C-1 .4 0 8.8.8 17.4c0 0 2.3 24.8.4 33.2-.5 2 13.4 9.4 24.3 9.7 11.8.3 15.2-3.5 15.2-3.5S42 30.1 38 18.1C34.8 8.3 28.2 0 23.7 0H23"/><linearGradient id="t" x1="100%" x2="0%" y1="50%" y2="50%"><stop offset="0%" stop-color="#FFB218"/><stop offset="100%" stop-color="#FFCF44"/></linearGradient><linearGradient id="w" x1="100%" x2="0%" y1="50%" y2="50%"><stop offset="0%" stop-color="#FFB218"/><stop offset="100%" stop-color="#FFCF44"/></linearGradient></defs><g fill="none" fill-rule="evenodd"><path fill="#FFAF12" d="M219.7 120.3h4.2V79.8h-4.2z"/><g transform="translate(232 79.2)"><mask id="b" fill="#fff"><use xlink:href="#a"/></mask><use fill="#FFAF12" xlink:href="#a"/><path fill="#FFAF12" d="M11 41H6.9v-9.7L.4 24.9V.6h4.3V23l6.4 6.4z" mask="url(#b)"/></g><g transform="translate(247 79.2)"><mask id="d" fill="#fff"><use xlink:href="#c"/></mask><use fill="#FFAF12" xlink:href="#c"/><path fill="#FFAF12" d="M15.3 41H11v-9.7L.4 20.6V.6h4.2v18.2l10.7 10.7z" mask="url(#d)"/></g><g transform="translate(260 79.2)"><mask id="f" fill="#fff"><use xlink:href="#e"/></mask><use fill="#FFAF12" xlink:href="#e"/><path fill="#FFAF12" d="M19.3 41H15v-9.7L.1 16.3V.6h4.3v14l14.9 14.9z" mask="url(#f)"/></g><g transform="translate(200 79.2)"><mask id="h" fill="#fff"><use xlink:href="#g"/></mask><use fill="#FFAF12" xlink:href="#g"/><path fill="#FFAF12" d="M4.8 41H.5V29.5L6.9 23V.6H11v24.3l-6.3 6.4z" mask="url(#h)"/></g><g transform="translate(181 79.2)"><mask id="j" fill="#fff"><use xlink:href="#i"/></mask><use fill="#FFAF12" xlink:href="#i"/><path fill="#FFAF12" d="M4.6 41H.3V29.5L11 18.8V.6h4.2v20L4.6 31.3z" mask="url(#j)"/></g><g transform="translate(164 79.2)"><mask id="l" fill="#fff"><use xlink:href="#k"/></mask><use fill="#FFAF12" xlink:href="#k"/><path fill="#FFAF12" d="M4.6 41H.3V29.5l14.9-15V.6h4.3v15.8l-15 15z" mask="url(#l)"/></g><path fill="#7F786A" d="M179.2 88.3h4.3v-8.5h-4.3zm12.8 0h4.2v-8.5H192zm14.9 0h4.2v-8.5H207zm12.8 0h4.2v-8.5h-4.2zm12.7 0h4.3v-8.5h-4.3zm15 0h4.2v-8.5h-4.2zm12.7 0h4.3v-8.5H260z"/><path fill="#A29C8F" d="M275 128.8h4.3v-4.3H275zm-17 0h4.3v-4.3H258zm-19.2 0h4.3v-4.3h-4.3zm-74.5 0h4.3v-4.3h-4.3zm17 0h4.3v-4.3h-4.3zm19.2 0h4.3v-4.3h-4.3zm19.2 0h4.2v-4.3h-4.2z"/><g transform="translate(160 .2)"><mask id="n" fill="#fff"><use xlink:href="#m"/></mask><path fill="#FFAF12" d="M49.9.8a26.6 26.6 0 00-25.9 32 25.5 25.5 0 001.6 51H100a23.4 23.4 0 10-10.7-44.2V39a10.7 10.7 0 00-12.8-10.4l.1-1.3A26.6 26.6 0 0050.3.8h-.4z" mask="url(#n)"/></g><g transform="translate(184 37.2)"><mask id="p" fill="#fff"><use xlink:href="#o"/></mask><path fill="#FFBF4D" d="M1.6 46.8H76A23.4 23.4 0 0082.7 1 102 102 0 01.2 46.7l1.4.1" mask="url(#p)"/></g><path fill="#F9F1E4" d="M214.7 14.6c-1.5-.6-3-.8-4.6-.8V9.5c2 0 4 .4 6 1l-1.4 4zm-18.5 13H192c0-7.6 4.8-14.5 12-17l1.5 4c-5.5 2-9.3 7.2-9.3 13m8.3 26.6h3.6l-1.8-5.5-1.8 5.5zm.2-8.7h3.3l5 14h-3.2l-1-2.9h-5l-1 3h-3.1l5-14.1zm17.6 2.9c-.4-.3-.9-.5-1.5-.5H218v4.2h2.7c.6 0 1.1-.2 1.5-.5.4-.4.6-1 .6-1.6 0-.8-.2-1.3-.6-1.6m2.2 5c-.8.7-2 1-3.5 1h-2.9v5.1h-2.9v-14h6c1.4 0 2.5.4 3.3 1 .9.8 1.3 2 1.3 3.4 0 1.7-.4 2.9-1.3 3.5m3.8 6.1h2.9v-14h-3z"/><path fill="#F7E8C8" d="M0 290c0-3.3 60.7-6 135.5-6 74.9 0 135.6 2.7 135.6 6s-60.7 6.2-135.6 6.2C60.7 296.2 0 293.5 0 290.1"/><path fill="#619440" d="M76 241.8c-28.7 2.7-56.1-63.5-66.6-90-7-17.5-8.2-36.6-9.4-55.4 30 10.1 66.3 33.4 80.8 61.2 2.4 4.7 4 12 5 17.1 2 10.7 3.2 45.5 2.2 56.4-.3 3.4 1 9.4-12 10.7"/><path fill="#306B34" d="M3.6 101.2c.6-.5 1.5-.5 2 .1 6.6 7.5 12.8 15 18.6 22.5 1.5-4.2 2.1-7.6 2.2-12a1 1 0 012 .1 37 37 0 01-2.8 13.7c4.6 6 9 12 13.1 18.2l1-7 1.2-6.1 1.1-6.2c.1-.5.6-.9 1.2-.8.5 0 .8.6.8 1.1l-1.2 6.2a348 348 0 00-1.1 6.2c-.5 3-1 6.1-1.2 9.3 5 7.6 9.9 15.5 14.5 23.6l4.5-14.7c.7-2.3 1.4-4.7 1.5-7.2 0-.5.4-1 1-1 .5.1 1 .6 1 1-.1 1.6-.4 3-.7 4.4l-1 3.3-5 16.6A448 448 0 0172 203.9c.2.3.2.6.1 1-.1.3-.4.7-.8.9-.7.3-1.6 0-2-.7-2.2-5-4.5-10-7-14.7l-13-2c-4-.7-8-1.4-13-2.1a1 1 0 01-1-1.1c.2-.5.6-.9 1.2-.8l13.1 2c3.5.7 7.2 1.3 11.7 2-3-6.1-6.2-12-9.4-17.8L34.8 167 17 163.2a1 1 0 01-.8-1.2c.2-.5.7-.8 1.2-.7a2940.8 2940.8 0 0133.1 7.1c-3.8-6.6-7.7-13-11.8-19.2a169 169 0 00-30.1-6.3 1 1 0 11.2-2c10.5 1.4 18.4 3 28.4 6-3.8-5.7-7.7-11.2-11.8-16.7a42 42 0 00-19.8-3.9 1 1 0 01-1-1c0-.5.4-.9 1-.9a44 44 0 0117.5 2.8c-6.1-8-12.7-16-19.8-24-.5-.6-.4-1.5.2-2"/><path fill="#FFDE8E" d="M24 220.5c3.8 25.5 25.2 56.2 50 66.2 8 3.3 17.5 5.1 25.1 1 7.2-4 10.6-12.6 10-20.4a44.6 44.6 0 00-9.2-21.3c-4.6-6.7-10-13-16.6-18-6.6-5-14.4-9.4-23-9.8C42 217.4 30 220 24 220.5"/><g transform="translate(24 217.2)"><mask id="r" fill="#fff"><use xlink:href="#q"/></mask><path fill="#FFBF4D" d="M0 3.2s79.6 64 81.2 61.7A23 23 0 0085 50.1a44.6 44.6 0 00-9.2-21.4c-4.6-6.7-10-13-16.6-18A42.3 42.3 0 0028.7.9C14.5.8 5 2.8 0 3.2" mask="url(#r)"/></g><path fill="#306B34" d="M140.5 262.1a4.3 4.3 0 108.5 0 4.3 4.3 0 00-8.5 0"/><g transform="translate(151 253.2)"><mask id="u" fill="#fff"><use xlink:href="#s"/></mask><path fill="url(#t)" d="M.6 3.4a2.8 2.8 0 105.6 0 2.8 2.8 0 00-5.6 0" mask="url(#u)"/></g><g transform="translate(145 249.2)"><mask id="x" fill="#fff"><use xlink:href="#v"/></mask><path fill="url(#w)" d="M.6 2a2 2 0 104 0 2 2 0 00-4 0" mask="url(#x)"/></g><g><path fill="#FFE2B7" d="M104.9 284c-1-.3-1.6-1.2-1.4-2.2l2-9.4a1.8 1.8 0 113.6.8l-2 9.3c-.2 1-1.2 1.7-2.2 1.5"/><path fill="#7F786A" d="M117 286.4c0 .5-.4.9-1 .8l-12.6-.3a1 1 0 01-1-1.2l.2-2.3c0-.6.6-1 1.3-1 0 0 .3 1 1.5 1.1 1 .2 1.3-.6 1.4-1.2 0-.2.4-.4.6-.3l9 3.5c.4.1.6.5.6.8M97.7 127c-3.2 4.5.4 27.6.4 27.6l10.5 58.5-7.4 64.1 7.8 1s25-54.2 24.6-69.2c-1.2-37.7-11-74.2-18.6-85.4-3.2 1.7-9.4 5-17.3 3.4"/><path fill="#E7E1D3" d="M90 64.3s1.1 17.2 8 36.7c5.3 15 8 24.4 15.4 32.8 0 0 5.8.4 13-2.7 6.2-2.7 10.1-7 10.1-7s-10.7-8.7-15.6-26.7C116 79.8 107 64.7 99.6 63.9c-7.5-.7-9.6.4-9.6.4"/><path fill="#7F786A" d="M49.8 282c-.1-.4-.3-.7-.5-.9-.8-1-2.7-.3-3.9.7 0 0-8.4 5.8-7.8 8.3.7 2.7 10.1-2 12.7-3.5.5-.3.7-1 .5-1.5a25 25 0 00-1-3.1"/><path fill="#FFE2B7" d="M47.1 283.4a2 2 0 01-1.4-2.4l2.5-9.6c.2-1 1.2-1.5 2.2-1.2a2 2 0 011.4 2.5l-2.5 9.6c-.2 1-1.2 1.5-2.2 1.1M186.8 46l.5 3-3.4 1.3-1.2-2.6z"/><path fill="#E7E1D3" d="M181.1 47l3.2-1.3 2.3 5.2-3.2 1.3z"/><path fill="#A29C8F" d="M76.4 117c-5 8.4-12.9 16.7-16.5 30-4.3 15.8-4 27.1-7.2 47.1-6.8 40.7-6.5 80.3-7 83.3l7.5 4s18.3-46.1 24.2-63.3c4.3-12.7 14.7-42 18.9-54 3.6-10.5 12.2-40.8 12.2-40.8s-29.4-4.7-32-6.4"/><path fill="#FFE2B7" d="M32.4 165.5h-.1c-.6.2-1.2 0-1.4-.6l-1.4-2.9 1-.4 1.9 3.9z"/><path fill="#FFE2B7" d="M29.4 166.3s-2 .6-2.8.4c-.5-.2-1-1.2-1-1.8.2-1.4.7-4.3 1.8-4.8.6-.2 1.8.2 2.7.7.6.2.8 1.7.6 2.3l-1.3 3.2z"/><path fill="#FFE2B7" d="M29 167.3c.5-.6 1.3-3.5 1.3-3.5l-1.2-.5s-1 3-1 3.7c0 .4.7.6 1 .3"/><path fill="#FFE2B7" d="M27.9 167.5c.4-.6 1.3-3.5 1.3-3.5l-1.3-.5s-1 3-1 3.6c0 .4.7.7 1 .4"/><path fill="#FFE2B7" d="M27 167c.4-.7 1.2-3.6 1.2-3.6l-1.1-.4s-1 3-1 3.6c0 .4.6.7.8.4"/><path fill="#FFE2B7" d="M26.1 166.3c.4-.7 1.3-3.6 1.3-3.6l-1.1-.4s-1 3-1 3.7c0 .4.6.6.8.3M28 158l-.6 2.7 3 .8.9-2.4z"/><path fill="#FFF0D2" d="M32.8 156.3l-1 4.5-5.3-1.7 1-4.5z"/><path fill="#FFE2B7" d="M191 44s1.2 1.2 1.5 2.4c.2.6.2 2.2.2 2.2s-4 1.5-5 .7c-.5-.4-1-1.8-1.2-2.8-.2-.7.1-1.4.7-1.5l3.9-1z"/><path fill="#FFE2B7" d="M189.5 42l.1.2c.5.4.6 1.1.2 1.5l-2.2 2.6-1-.9 2.9-3.4zm5 .8c.2.6 0 1.4-.7 1.6l-3.3 1.3-.2-1.4 4.2-1.5z"/><path fill="#FFE2B7" d="M193.2 45.6c0-.5-.2-1-.8-.8l-3.3 1.1.8 1.2s3.3-.8 3.3-1.5"/><path fill="#FFE2B7" d="M193.3 46.8c0-.5-.1-1.1-.8-.8l-3.2 1.3.9 1.1s3.2-1 3.1-1.6"/><path fill="#FFE2B7" d="M193.4 48c0-.4 0-1-.7-.8l-3.4.9.8 1.2s3.3-.5 3.3-1.2m-3.6-2.6c.3.7 1 1 1.5 1 0 0 1.4-.4 1.8-.8.2-.2 0-1-.3-1l-3 .8"/><path fill="#FFE2B7" d="M190.4 46.6c.2.7 1 1 1.4 1 0 0 1.2-.3 1.5-.7.2-.2 0-1-.3-1-.2-.1-2.6.7-2.6.7"/><path fill="#FFE2B7" d="M191.2 47.7c.2.6.8 1 1.1.8 0 0 1-.2 1.2-.5.1-.1 0-.8-.3-1l-2 .7"/><path fill="#E7E1D3" d="M150 58.4l-6.5 18.3L108 82c-9.8 1.7-7.6-7.2-10-17.8l52-6z"/><path fill="#E7E1D3" d="M183.9 57.2c-4.4 13-22.2 16.5-32.7 18.4-11.6 2.2-26 2.3-28.4-5.7 0 0 9.6-8.1 14.4-10.2 9.6-4.3 44.4-13.8 44.4-13.8s3.9 6.7 2.3 11.3"/></g><g transform="translate(73 66.2)"><mask id="z" fill="#fff"><use xlink:href="#y"/></mask><path fill="#FFAF12" d="M23 .1L8 .4C-1 .4 0 8.8.8 17.4c0 0 2.3 24.8.4 33.2-.5 2 13.4 9.4 24.3 9.7 11.8.3 15.2-3.5 15.2-3.5S42 30.1 38 18.1C34.8 8.3 28.2 0 23.7 0H23" mask="url(#z)"/></g><g><path fill="#F5EFE4" d="M58.7 116l-15.3-14.2 20.2-28c10.1-11 12-1.6 14.3 6.9L58.7 116z"/><path fill="#A29C8F" d="M97.7 70.8h-.1c-1 0-2-1-2-2.2l-.2-2.5 4.1.2.1 2.5c0 1.2-.8 2-1.9 2"/><path fill="#FFE2B7" d="M95 66.3h.2c1 .5 2.2-.1 2.5-1.2l1.4-5.9c.3-1-.3-2.1-1.4-2.5l-.7-.3c-1-.3-2 .2-2.3 1.2l-1.4 5.7c-.3 1.2.5 2.6 1.7 3"/><path fill="#FFC581" d="M99 59.8c.3-1.4-.4-2.8-1.6-3.2-1.2-.5-2.5.3-2.8 1.6l-.9 3.6c-.2.7 1.6.8 3.1.1 1-.5 2-1.3 2-1.3l.2-.8z"/><path fill="#57575E" d="M105.6 39.8c-1.6-3.6-4.7.7-12.8 1.4-3.3.3-4.7 2.7-4.4 4.3-.6.2-1.1.5-1.5.9-2.2 1.6-1.8 4.3-.1 6.7 2 2.8 7.9 5.4 7.9 5.4l8-2.5s-.1-3-.5-4.5a6.6 6.6 0 00-2.2-3.7c6.3 0 6.7-5.8 5.6-8"/><path fill="#FFE2B7" d="M93.2 52c-.3-2.7 1.2-5 4-5.5 4.3-.8 6.2 6.5 6.3 9.6.1 3.5-1 4.4-1 4.4s-2.6.7-4.7 0c-1.9-.7-3.5-1.1-4-3.8-.4-2.5-.6-3.5-.6-4.6"/><path fill="#FFE2B7" d="M94 53.9c.8 1 1 2.2.5 2.6-.5.5-1.6 0-2.4-1-.8-1.1-1-2.3-.5-2.7.5-.4 1.6 0 2.4 1"/><path fill="#57575E" d="M94.3 55.2c-.3 0-.6 0-.7-.4l-1.4-4.6c-.1-.3 0-.5.3-.6.3 0 .6.1.6.4l1.5 4.6c0 .3 0 .5-.3.6m-.8-8s7 1.8 9-.4c2.2-2.1-8-2.1-9 .3"/><path fill="#F5EFE4" d="M94.9 70.9L89.5 66l4.1-3.9 4 4z"/><path fill="#E7E1D3" d="M100.8 70.5l.6-2.9-3.3-4-1 2.3z"/><path fill="#F5EFE4" d="M24 150.4c-4.7-13.5 5.5-32.3 12.2-40.5 2.4-3 7.3-8.4 9.3-10.4 4.5-4.4 11.8-1.9 18.4 2 0 0-5.7 17-8 21.7-4.6 9.6-12.6 28.3-22.5 34-2.3 1.3-7.8-2-9.4-6.8"/><path fill="#F5EFE4" d="M91.7 63.9s4.9 25.4.3 44.6a96.4 96.4 0 01-16.3 36.2s-5.8 0-13.3-3.6c-6.6-3-11-7.6-11-7.6s11.7-14.5 16-31.8-4.6-29.8 2.2-32.5c7.4-3 22-5.3 22-5.3"/><path fill="#A29C8F" d="M89.7 106l-2.2-7.2a438 438 0 01-5.8-21.4c-.1-.4 0-.8.4-.9l3.2-.7-.1 1.3-3.6-2.9c-.3-.2-.4-.6-.2-.8a296 296 0 014-4.4c1.5-1.3 2.8-2.8 4.2-4.1L86 69.6l-3.7 4.6-.1-1c1.2 1 2.5 1.8 3.7 2.7.3.3.4.7.2 1a179 179 0 01-3.5 1l.4-.8a542.2 542.2 0 015.2 21.6l1.5 7.2m-4.5 11.3c-.1.7-.8 1.2-1.5 1-.7-.2-1.2-1-1.1-1.7.1-.7.8-1.2 1.5-1 .7.2 1.2 1 1.1 1.7m-2.4 6.7c-.1.8-.8 1.2-1.5 1-.7-.2-1.2-1-1.1-1.7 0-.7.8-1.2 1.5-1 .7.2 1.2 1 1 1.7m5.1-14.7c0 .7-.8 1.1-1.5 1-.7-.2-1.2-1-1-1.7 0-.8.7-1.2 1.4-1 .8.2 1.3 1 1.1 1.7"/><path fill="#7F786A" d="M79.9 95.7l-5.6-2.8 1.1-6s8-2.5 12.2-5.7C89 80 91.9 77.8 94 75c2.2-3 3.6-6.1 3.6-6.1s1.4.7 1.3 1.2c-.4 5-1.3 11.5-4.2 16.2-4.5 7.5-14.8 9.5-14.8 9.5m15-48.3c1.9.6 3.8 1 5.8.9 1-.1 2-.3 3-.8 1-.7 1.7-1.3 2.3-2.3a6.2 6.2 0 000-6.2c-.3-.5-.6-1-1.5-1.4h-1.8c-1 .2-2 .6-3 1.2h.2c-2.2.8-4.6 1.4-7 1.9-1.1.2-2.6.3-3.6 1.2-1.1 1-1.4 2.5-1 3.6 0-1.2.4-2.5 1.3-3 1-.6 2.2-.7 3.5-.8 2.5-.2 5-.7 7.4-1.5l.1-.1c1.4-.8 3.7-1.6 4-.3a5 5 0 01.2 4.7 7 7 0 01-1.7 2c-.6.5-1.6.7-2.5.9-1.8.3-3.7.2-5.6 0"/></g></g></svg>