<svg xmlns="http://www.w3.org/2000/svg" xmlns:xlink="http://www.w3.org/1999/xlink" width="343" height="296" viewBox="0 0 343 296">
    <defs>
        <path id="prefix__a" d="M0.062 0.023L325.041 0.023 325.041 13 0.062 13z"/>
        <path id="prefix__c" d="M0 295.24L342.041 295.24 342.041 0 0 0z"/>
    </defs>
    <g fill="none" fill-rule="evenodd">
        <g transform="translate(17 282.24)">
            <mask id="prefix__b" fill="#fff">
                <use xlink:href="#prefix__a"/>
            </mask>
            <path fill="#F7E8C8" d="M.062 6.511c0-3.583 72.75-6.488 162.49-6.488 89.74 0 162.49 2.905 162.49 6.488 0 3.584-72.75 6.489-162.49 6.489C72.812 13 .062 10.095.062 6.511" mask="url(#prefix__b)"/>
        </g>
        <path fill="#306B34" d="M27.922 251.332c1.13-3.411 6.067-19.451-2.705-33.162-5.257-8.215-15.911-16.336-21.372-13.412-5.324 2.851-4.46 15.536-1.38 23.786 5.773 15.459 21.609 21.447 25.457 22.788"/>
        <path fill="#619440" d="M56.527 282.397l1.252-1.695c-.168-.125-17.022-12.681-28.992-29.97-11.999-17.33-18.219-34.222-18.28-34.392l-1.98.722c.062.171 6.376 17.317 18.528 34.87 12.175 17.583 29.301 30.338 29.472 30.465"/>
        <path fill="#619440" d="M19.563 239.719L20.382 237.779 11.7 234.118 10.881 236.059zM14.708 226.454L16.75 218.544 14.71 218.017 12.668 225.928zM44.213 224.31c-4.027-3.33-22.493-19.283-22.269-42.948.135-14.181 6.992-32.412 15.977-33.026 8.763-.597 17.491 15.7 20.064 28.242 4.822 23.504-10.066 43.109-13.772 47.732"/>
        <path fill="#306B34" d="M54.281 280.947l2.063-.434c-.059-.277-5.888-28.082-11.095-56.395-5.194-28.24-6.05-58.012-6.058-58.309l-2.106.057c.008.3.867 30.227 6.092 58.634 5.212 28.34 11.046 56.17 11.104 56.447"/>
        <path fill="#306B34" d="M41.494 198.767L48.733 182.777 46.814 181.909 39.575 197.898zM37.961 181.889l2.04-.527c-.544-2.104-2.094-3.708-3.34-4.997l-4.15-4.297-1.516 1.465 4.151 4.296c1.13 1.169 2.41 2.495 2.815 4.06"/>
        <path fill="#A29C8F" d="M149.769 25.154l-.052-.65c1.3-.106 2.62-.182 3.925-.228l.023.652c-1.294.045-2.604.122-3.896.226zm-7.741.973l-.11-.643c1.293-.22 2.6-.415 3.888-.577l.082.647c-1.278.162-2.577.354-3.86.573zm-7.625 1.645l-.165-.632c1.265-.33 2.55-.635 3.823-.91l.137.638c-1.262.272-2.54.576-3.795.904zm-7.461 2.284l-.216-.615c1.232-.434 2.487-.848 3.73-1.228l.192.623c-1.235.38-2.482.79-3.706 1.22zm-7.246 2.893l-.266-.596c1.195-.535 2.413-1.05 3.618-1.53l.242.605c-1.197.48-2.406.99-3.594 1.521zm-6.99 3.47l-.313-.573c1.143-.626 2.315-1.237 3.483-1.817l.29.585c-1.16.576-2.324 1.183-3.46 1.805zm-6.69 4.017l-.36-.547c1.092-.714 2.212-1.418 3.329-2.088l.336.56c-1.11.666-2.222 1.364-3.305 2.075zm-6.351 4.535l-.401-.515c1.03-.8 2.09-1.59 3.15-2.347l.38.531c-1.052.752-2.106 1.536-3.13 2.331zM93.693 50l-.44-.482c.962-.879 1.956-1.75 2.955-2.59l.42.498c-.991.835-1.98 1.702-2.935 2.574zm-5.546 5.492l-.478-.445c.89-.955 1.81-1.904 2.737-2.82l.459.463c-.921.91-1.835 1.854-2.718 2.802zm-5.078 5.926l-.512-.404c.802-1.02 1.642-2.042 2.494-3.037l.496.425c-.847.988-1.68 2.003-2.478 3.016zm-4.561 6.33l-.545-.359c.714-1.086 1.463-2.173 2.229-3.236l.53.382c-.761 1.055-1.505 2.135-2.214 3.213zm-3.997 6.697l-.575-.31c.616-1.143 1.269-2.292 1.94-3.417l.56.334c-.666 1.117-1.314 2.257-1.925 3.393zm7.449 10.392c-1.073-.699-2.232-1.263-3.44-1.67l.208-.619c1.258.425 2.468 1.013 3.588 1.741l-.356.548zm-10.834-3.369l-.6-.255c.136-.322.275-.64.416-.959.388-.876.794-1.757 1.21-2.62l.588.284c-.412.855-.817 1.73-1.201 2.6-.14.315-.277.631-.413.95zm-.19 1.11l-.094-.647c1.34-.196 2.678-.25 3.974-.159l-.045.652c-1.25-.088-2.54-.037-3.835.154zm16.048 7.896c-.525-1.125-1.235-2.189-2.113-3.163l.483-.436c.922 1.02 1.669 2.14 2.222 3.324l-.592.275zm-23.31-5.406l-.312-.574c1.184-.643 2.404-1.184 3.625-1.608l.214.617c-1.188.412-2.375.94-3.527 1.565zm4.43 3.65c.235-1.219.567-2.469 1.016-3.823l.619.206c-.44 1.325-.765 2.55-.994 3.741l-.641-.124zm19.454 9.146c.392-1.253.535-2.512.425-3.74l.65-.058c.118 1.315-.034 2.657-.452 3.992l-.623-.194zm-30.071-8.18l-.455-.467c.564-.549 1.145-1.079 1.728-1.57.41-.347.838-.687 1.27-1.01l.39.521c-.42.316-.838.648-1.238.987-.572.483-1.142 1-1.695 1.54zm10.664 6.948c-.14-.543-.245-1.096-.314-1.642-.097-.752-.144-1.533-.14-2.32l.653.003c-.004.758.04 1.51.134 2.234.067.52.167 1.046.299 1.563l-.632.162zm15.279 7.743l-.356-.547c1.044-.68 1.969-1.553 2.75-2.597l.523.391c-.827 1.105-1.81 2.031-2.917 2.753zm-30.945-8.756l-.532-.378c.792-1.116 1.6-2.168 2.4-3.125l.5.418c-.79.944-1.585 1.982-2.368 3.085zm19.715 7.81c-.975-.859-1.826-1.904-2.53-3.102l.562-.33c.669 1.138 1.477 2.13 2.399 2.943l-.431.49zm3.465 2.037l.208-.62c.5.168 1.016.288 1.53.358.72.097 1.454.093 2.18-.017l.097.646c-.787.118-1.583.124-2.364.017-.555-.075-1.11-.204-1.651-.384zm-27.352-3.256l-.565-.327c.726-1.25 1.387-2.353 2.024-3.367l.553.347c-.633 1.007-1.291 2.102-2.012 3.347zm-3.747 6.856l-.581-.297c.586-1.144 1.204-2.31 1.838-3.468l.572.313c-.63 1.152-1.246 2.313-1.83 3.452zm-3.353 7.056l-.598-.26c.514-1.178 1.063-2.38 1.63-3.572l.59.28c-.564 1.186-1.11 2.382-1.622 3.552zm-3.488 7.042c.198-.562.402-1.122.61-1.68.25-.669.506-1.335.769-1.998l.607.24c-.261.66-.516 1.321-.764 1.985-.207.555-.41 1.113-.607 1.671l-.615-.218zm-2.31 7.512c.326-1.249.688-2.52 1.076-3.78l.623.191c-.385 1.251-.744 2.514-1.067 3.754l-.632-.165zm-1.608 7.697c.2-1.276.438-2.577.709-3.869l.639.133c-.27 1.282-.506 2.572-.703 3.836l-.645-.1zm-.783 7.825c.055-1.295.149-2.615.28-3.926l.65.066c-.13 1.297-.224 2.605-.277 3.886l-.653-.026zm.16 7.864l-.03-.364c-.092-1.172-.15-2.37-.174-3.566l.653-.012c.023 1.181.08 2.368.172 3.527l.029.36-.65.055zm1.268 7.772c-.307-1.278-.57-2.576-.781-3.863l.644-.104c.208 1.27.468 2.553.772 3.813l-.635.154zm2.409 7.496c-.49-1.21-.942-2.456-1.343-3.704l.622-.2c.396 1.233.842 2.464 1.326 3.66l-.605.244zm3.502 7.056c-.666-1.116-1.301-2.28-1.885-3.46l.584-.292c.578 1.167 1.204 2.316 1.86 3.42l-.56.332zm4.57 6.42c-.837-.987-1.65-2.036-2.418-3.115l.532-.379c.757 1.066 1.559 2.1 2.385 3.072l-.498.422zm5.618 5.53c-1.005-.817-1.992-1.704-2.937-2.636l.459-.464c.929.917 1.902 1.79 2.89 2.594l-.412.506zm6.586 4.331c-1.156-.597-2.302-1.268-3.406-1.994l.36-.545c1.084.714 2.21 1.374 3.345 1.96l-.3.58zm3.897 1.728l-.293-.11.232-.61.289.11c.725.27 1.463.516 2.193.734l-.187.625c-.744-.22-1.496-.473-2.234-.749z"/>
        <path fill="#F59015" d="M145.814 21.839L141.908 27.215 147.251 27.079 147.847 24.316z"/>
        <path fill="#F9DC56" d="M162.236 25.179L143.5 16.162 146.342 25.374z"/>
        <path fill="#FFB023" d="M162.236 25.179L150.284 34.893 146.342 25.374z"/>
        <path fill="#FFC581" d="M242.241 35.51c-7.504-.491-14.449 3.97-17.125 10.999-3.283 8.623-7.223 19.65-7.954 24.7 0 0-17.188 16.768-24.19 23.408l3.723 3.223s23.394-15.211 30.525-21.898c7.129-6.688 15.021-40.431 15.021-40.431"/>
        <path fill="#F6A19E" d="M310.534 281.136L310.877 282.156 308.569 284.567 306.123 283.492 305.22 282.156 304.957 281.102zM228.443 281.099L228.582 282.156 227.467 283.99 224.193 283.681 223.216 283.081 222.924 282.156 222.933 280.814z"/>
        <path fill="#47B27C" d="M259.96 106.037c-.825-.122-1.305-2.146-.994-3.772.468-2.45 2.658-3.756 3.028-3.969.33.666.845 1.974.614 3.607-.293 2.068-1.73 4.271-2.648 4.134"/>
        <path fill="#47B27C" d="M259.863 104.895c.229.803-1.417 2.075-3.026 2.462-2.425.582-4.518-.873-4.865-1.123.471-.573 1.451-1.584 3.033-2.046 2.004-.587 4.604-.187 4.858.707"/>
        <path fill="#47B27C" d="M258.745 103.908c-.506.664-2.51.107-3.784-.95-1.919-1.593-2.006-4.14-2.013-4.569.741.034 2.137.213 3.455 1.205 1.67 1.253 2.905 3.577 2.342 4.314"/>
        <path fill="#57575E" d="M262.627 18.151h.948c2.194 0 3.973-1.778 3.973-3.973V10.33h-4.92v7.821z"/>
        <path fill="#A29C8F" d="M273.988 95.623s13.899 17.8 37.45 185.513l-7.041-.037-55.478-154.284V95.623h25.07zM232.091 86.07s-16.774 13.191-16.694 48.615c.036 15.865 7.536 146.128 7.536 146.128l5.51.285c9.771-49.595 16.84-98.337 24.911-148.778 1.156-.165 7.073-.596 8.098-1.8 2.25-2.645.055-7.253.102-9.28.19-8.113.242-26.664-.284-33.502-6.492.538-23.08-1.073-29.179-1.668"/>
        <path fill="#7F786A" d="M222.933 280.813s-7.5-130.262-7.536-146.127c-.08-35.425 16.694-48.616 16.694-48.616 1.415.166 2.86.32 4.324.466l3.947 2.514s-11.867 69.414-11.58 110.921c.158 23.065.14 55.053.091 78.926l-.43 2.202-5.51-.286z"/>
        <path fill="#FFBC3F" d="M229.269 96.224c-2.3-.561-3.888-2.657-3.79-5.022.5-11.948 2.035-25.515 5.419-40.172 1.493-6.464 3.203-12.526 5.03-18.166l21.635-4.786 16.737 6.554c1.217 9.562 2.069 20.37 2.143 32.227.067 10.752-.516 20.643-1.441 29.518-.093.902-.784 1.626-1.68 1.764-5.754.885-12.61 1.487-20.322 1.274-9.183-.253-17.197-1.595-23.731-3.191"/>
        <path fill="#FFAC34" d="M227.336 95.734c-1.17-.308-1.969-1.38-1.929-2.589.41-12.41 1.921-26.658 5.491-42.116 1.492-6.464 2.632-12.627 4.46-18.268 4.623-1.022 9.817-1.943 14.44-2.966 1.512.24 3.697.85 4.912 2.63 1.6 2.346.682 5.497.406 6.512-1.559 5.74-5.74 28.283-11.443 59.83-6.199-.687-11.69-1.813-16.337-3.033"/>
        <path fill="#FFE2B7" d="M264.681 17.519L262.748 33.529 252.437 32.307 254.607 15.539z"/>
        <path fill="#FFC581" d="M254.608 15.538l10.074 1.98-.111.92c-1.057 4.361-5.411 8.403-9.56 7.504-.596-.129-1.152-.355-1.665-.657l1.262-9.747z"/>
        <path fill="#FFE2B7" d="M255.825 5.611c-.372.215-3.207 1.912-4.215 5.244-1.34 4.425.828 10.787 5.339 11.764 4.315.933 8.855-3.479 9.671-8.033.724-4.036-1.327-9.029-4.977-10.103-2.566-.755-5.049.683-5.818 1.128"/>
        <path fill="#57575E" d="M251.65 1.467c-1.063 2.037 3.431 6.118 3.875 6.515 3.833 3.428 10.061 5.596 11.875 3.579 1.333-1.482.106-5.027-1.51-7.13-3.932-5.11-12.99-5.364-14.24-2.964"/>
        <path fill="#FFE2B7" d="M267.854 14.188c.219-1.16-.542-2.277-1.701-2.495-1.16-.22-2.276.543-2.495 1.7-.22 1.16.543 2.276 1.7 2.495 1.16.22 2.277-.543 2.496-1.7"/>
        <path fill="#F26D6D" d="M196.695 97.84l-2.454 2.328c-.23.706-.713 1.885-1.748 2.996-.49.528-2.57 2.76-4.977 2.292-1.695-.33-3.27-1.942-3.003-2.83.09-.296.377-.486.66-.61l7.8-7.4 3.722 3.224z"/>
        <path fill="#FFE2B7" d="M248.41 30.102l9.153-2.024 9.972 3.905c-1.943 1.6-4.65 2.964-7.59 3.272-4.444.466-8.815-1.549-11.535-5.153M284.201 52.707c2.118-2.461 4.272-4.964 6.036-7.611 4.292 3.527 7.947 7.456 9.795 11.551 1.788 3.966.097 8.848-3.3 13.848-4.29.046-9.063-1.061-13.098-2.648 1.416-1.595 2.722-2.911 3.82-3.78 0 0-3.537-2.872-7.73-6.718 1.826-1.693 3.306-3.283 4.477-4.642"/>
        <path fill="#57575E" d="M228.582 282.155s2.726 2.623 0 5.35h-11.79v-5.35h6.133s2.81 1.646 5.657 0"/>
        <path fill="#A29C8F" d="M221.393 287.504h-9.2v-.75c0-2.54 2.06-4.6 4.6-4.6 2.54 0 4.6 2.06 4.6 4.6v.75z"/>
        <mask id="prefix__d" fill="#fff">
            <use xlink:href="#prefix__c"/>
        </mask>
        <path fill="#57575E" d="M211.799 288.361L229.062 288.361 229.062 287.504 211.799 287.504zM305.22 282.155s-2.726 2.623 0 5.35h13.925l-.5-5.35h-7.767s-2.811 1.646-5.657 0" mask="url(#prefix__d)"/>
        <path fill="#57575E" d="M304.74 288.361L323.757 288.361 323.757 287.504 304.74 287.504z" mask="url(#prefix__d)"/>
        <path fill="#A29C8F" d="M318.646 282.155c2.54 0 4.6 2.06 4.6 4.6v.75h-4.6v-5.35z" mask="url(#prefix__d)"/>
        <path fill="#FFAC34" d="M235.358 32.762c-5.655 1.165-10.063 5.604-11.187 11.267l-1.802 9.078 11.612.365 1.377-20.71z" mask="url(#prefix__d)"/>
        <path fill="#F26D6D" d="M190.894 96.707s-2.452.057-2.781.285c-.328.229-1.584 2.33-.86 3.536.724 1.206 1.856-2.192 1.856-2.192l1.785-1.629z" mask="url(#prefix__d)"/>
        <path fill="#FFBC3F" d="M279.724 57.349c-5.459-5.007-12.03-11.667-13.363-15.795-2.355-7.3 2.831-8.792 2.831-8.792s11.154 2.56 21.045 12.334c-1.763 2.648-3.918 5.15-6.036 7.61-1.17 1.36-2.65 2.95-4.477 4.643" mask="url(#prefix__d)"/>
        <path fill="#FFBC3F" d="M290.897 44.788L279.949 58.183 277.993 56.147 289.457 43.325z" mask="url(#prefix__d)"/>
        <path fill="#FFAC34" d="M232.841 52.011L221.595 51.634 221.595 53.965 232.532 54.205zM258.48 36.865c-.325 0-.655-.012-.99-.039-3.784-.292-7.213-2.24-10.19-5.792-.515-.613-.435-1.527.18-2.042.612-.514 1.526-.434 2.041.18 2.451 2.923 5.2 4.526 8.168 4.762 4.863.37 8.854-3.01 8.894-3.045.605-.522 1.52-.459 2.043.144.525.602.464 1.515-.137 2.04-.186.164-4.402 3.792-10.009 3.792" mask="url(#prefix__d)"/>
        <path fill="#FFE2B7" d="M272.854 93.428c-1.362 1.023-2.563 1.898-3.533 2.592-.16.115-.317.225-.465.33-1.335.949-2.123 1.476-2.123 1.476l-.327-1.87-.654-3.738s6.707-10.266 13.185-18.643l.451-.582c.601-.77 1.2-1.521 1.788-2.245 1.126-1.383 2.22-2.66 3.241-3.766 2.581.436 5.261 1.155 7.98 1.885 1.591.427 3.084.907 4.478 1.414-5.102 7.615-14.226 15.53-21.104 20.91-1.03.806-2.009 1.554-2.917 2.237M263.588 94.097c-4.425.09-5.475.578-5.546 1.034-.1.629 1.548 1.899 3.268 1.505 1.204-.275 2.12-1.292 2.278-2.54" mask="url(#prefix__d)"/>
        <path fill="#FFE2B7" d="M268.915 96.309l-2.182 1.518c-.265.694-.808 1.845-1.9 2.902-.517.502-2.708 2.624-5.088 2.033-1.676-.417-3.165-2.108-2.853-2.981.105-.291.4-.466.689-.576l9.368-8.792 1.966 5.896z" mask="url(#prefix__d)"/>
        <path fill="#FFAC34" d="M254.657 110.106h-76.365c-9.768 0-17.686-7.918-17.686-17.688 0-9.769 7.918-17.688 17.686-17.688h76.365c9.77 0 17.687 7.92 17.687 17.688 0 9.77-7.918 17.688-17.686 17.688" mask="url(#prefix__d)"/>
        <path fill="#FFE2B7" d="M192.583 92.174c.216 0 .424-.016.624-.048s.376-.094.528-.185c.152-.093.274-.223.366-.391.092-.168.138-.388.138-.66s-.046-.491-.138-.66c-.092-.168-.214-.298-.366-.39-.152-.092-.328-.154-.528-.186s-.408-.047-.624-.047h-1.464v2.567h1.464zm.516-4.032c.536 0 .992.078 1.368.234.376.156.682.362.918.618s.408.548.516.876c.108.328.162.668.162 1.02 0 .345-.054.682-.162 1.014-.108.332-.28.626-.516.882s-.542.462-.918.618c-.376.156-.832.234-1.368.234h-1.98v3.072h-1.884v-8.568h3.864zM200.731 93.398l-1.08-3.145h-.024l-1.116 3.145h2.22zm-.108-5.257l3.204 8.57h-1.956l-.648-1.91h-3.204l-.672 1.91h-1.896l3.24-8.57h1.932zM202.759 88.142L204.871 88.142 206.875 91.527 208.867 88.142 210.967 88.142 207.787 93.422 207.787 96.71 205.903 96.71 205.903 93.374zM216.895 88.142L220.471 93.89 220.495 93.89 220.495 88.142 222.259 88.142 222.259 96.71 220.375 96.71 216.811 90.974 216.787 90.974 216.787 96.71 215.023 96.71 215.023 88.142zM225.553 93.512c.084.34.218.646.402.918.184.272.424.49.72.654.296.164.656.246 1.08.246.424 0 .784-.082 1.08-.246.296-.164.536-.382.72-.654.184-.272.318-.577.402-.918.084-.34.126-.69.126-1.05 0-.376-.042-.74-.126-1.092-.084-.352-.218-.666-.402-.942-.184-.275-.424-.496-.72-.66-.296-.163-.656-.246-1.08-.246-.424 0-.784.083-1.08.246-.296.164-.536.385-.72.66-.184.276-.318.59-.402.942-.084.352-.126.716-.126 1.092 0 .36.042.71.126 1.05m-1.722-2.832c.192-.548.468-1.025.828-1.434.36-.408.802-.727 1.326-.96.524-.232 1.114-.348 1.77-.348.664 0 1.256.116 1.776.348.52.233.96.552 1.32.96.36.409.636.886.828 1.434.192.548.288 1.143.288 1.782 0 .624-.096 1.206-.288 1.746-.192.54-.468 1.01-.828 1.41-.36.4-.8.714-1.32.942-.52.228-1.112.343-1.776.343-.656 0-1.246-.115-1.77-.343-.524-.228-.966-.541-1.326-.942-.36-.4-.636-.87-.828-1.41-.192-.54-.288-1.122-.288-1.746 0-.64.096-1.234.288-1.782M239.539 96.71L238.087 90.878 238.063 90.878 236.635 96.71 234.727 96.71 232.459 88.142 234.343 88.142 235.699 93.974 235.723 93.974 237.211 88.142 238.975 88.142 240.439 94.046 240.463 94.046 241.867 88.142 243.715 88.142 241.411 96.71z" mask="url(#prefix__d)"/>
        <path fill="#FB0" d="M322.736 179.958c-1.013 0-1.838.824-1.838 1.838 0 1.013.825 1.838 1.838 1.838 1.013 0 1.838-.825 1.838-1.838 0-1.014-.825-1.838-1.838-1.838m0 5.161c-1.833 0-3.323-1.491-3.323-3.323 0-1.833 1.49-3.323 3.323-3.323s3.323 1.49 3.323 3.323c0 1.832-1.49 3.323-3.323 3.323" mask="url(#prefix__d)"/>
        <path fill="#FFA331" d="M298.783 121.697c.33-.103.494-.516.368-.923-.127-.407-.497-.653-.827-.55l-3.583 1.115-2.388.743c-.329.103-.494.516-.367.924.127.406.497.653.826.55l2.388-.744c.778-.242 1.627.172 2.141.951l-4.07 1.267c-.329.103-.494.517-.367.923.127.407.497.654.826.552l4.07-1.268c.02.934-.445 1.756-1.222 1.998l-2.388.743c-.078.025-.15.068-.21.127-.123.121-.196.3-.2.5-.005.2.058.403.175.564.058.082.128.15.205.2l6.611 4.407c.162.11.337.133.49.085.153-.047.283-.167.355-.347.144-.359 0-.827-.324-1.042l-5.202-3.468.947-.295c1.442-.45 2.252-2.092 2.006-3.859l.658-.205c.33-.102.494-.516.368-.923-.127-.407-.497-.654-.827-.55l-.658.204c-.26-.52-.613-.954-1.01-1.302l1.21-.377z" mask="url(#prefix__d)"/>
        <path fill="#7F786A" d="M323.059 111.78c.06-1.164.11-2.329.152-3.493l.012-.33.655.021-.011.332c-.042 1.168-.093 2.335-.153 3.502l-.655-.033zm.31-11.475l.655.003c-.005 1.281-.02 2.558-.044 3.836l-.655-.012c.024-1.276.038-2.55.044-3.827zm-.837 19.107c.11-1.27.21-2.542.298-3.814l.654.044c-.088 1.276-.187 2.55-.3 3.825l-.652-.055zm.764-26.762l.655-.013c.029 1.28.05 2.556.062 3.835l-.655.005c-.012-1.276-.033-2.552-.062-3.827zm-1.583 34.37c.163-1.266.312-2.533.448-3.8l.652.067c-.136 1.272-.286 2.543-.45 3.813l-.65-.08zm-1.144 7.566c.219-1.257.423-2.516.614-3.777l.648.095c-.191 1.264-.397 2.528-.616 3.79l-.646-.108zm-1.49 7.507c.277-1.238.542-2.498.79-3.745l.643.122c-.247 1.252-.514 2.518-.791 3.76l-.641-.137zm-1.848 7.428c.335-1.215.662-2.46.972-3.703l.637.151c-.311 1.248-.64 2.5-.975 3.718l-.634-.166zM315 156.845c.402-1.2.793-2.427 1.164-3.647l.629.183c-.373 1.225-.766 2.458-1.17 3.664l-.623-.2zm-2.631 7.196c.468-1.173.928-2.378 1.367-3.579l.618.215c-.441 1.207-.903 2.416-1.374 3.596l-.611-.232zm-3.052 7.033c.54-1.148 1.072-2.323 1.58-3.494l.604.25c-.511 1.176-1.045 2.358-1.588 3.512l-.596-.268zm-3.493 6.834c.614-1.11 1.22-2.25 1.802-3.39l.587.285c-.585 1.146-1.194 2.292-1.812 3.41l-.577-.305zm-3.947 6.594c.689-1.066 1.372-2.163 2.032-3.265l.566.323c-.663 1.108-1.35 2.212-2.043 3.282l-.555-.34zm-4.41 6.307c.766-1.014 1.528-2.062 2.263-3.115l.542.36c-.74 1.06-1.506 2.114-2.277 3.134l-.528-.379zm-4.878 5.972c.456-.515.907-1.034 1.35-1.559.387-.458.769-.918 1.147-1.38l.514.396c-.381.467-.766.93-1.155 1.391-.447.527-.9 1.05-1.36 1.57l-.496-.418zm-5.361 5.561c.93-.887 1.85-1.804 2.74-2.725l.478.437c-.895.928-1.823 1.852-2.76 2.746l-.458-.458zm-5.817 5.11c1.003-.812 2-1.65 2.962-2.496l.44.474c-.97.852-1.973 1.697-2.983 2.512l-.42-.49zm-6.231 4.617c1.066-.724 2.13-1.478 3.165-2.245l.397.51c-1.041.77-2.113 1.531-3.187 2.258l-.375-.523zm-6.61 4.087c1.122-.629 2.248-1.293 3.35-1.975l.352.54c-1.11.686-2.244 1.355-3.374 1.99l-.328-.555zm-6.948 3.511c1.174-.53 2.356-1.095 3.514-1.68l.303.567c-1.167.59-2.358 1.16-3.541 1.692l-.276-.579zm-7.246 2.88c1.22-.422 2.452-.879 3.657-1.359l.249.592c-1.215.483-2.455.943-3.686 1.368l-.22-.6zm-7.496 2.19c1.255-.302 2.525-.64 3.776-1.006l.189.612c-1.261.37-2.542.71-3.807 1.014l-.158-.62zm-7.683 1.44c1.285-.172 2.584-.38 3.86-.623l.127.628c-1.29.243-2.6.453-3.896.628l-.091-.633zm-7.798.632c1.285-.034 2.6-.105 3.909-.21l.055.635c-1.321.107-2.648.18-3.945.213l-.02-.638zm-7.88.41l.057-.635c1.118.094 2.259.164 3.392.205l.516.017-.018.638-.521-.017c-1.144-.042-2.297-.11-3.425-.208zm-3.553-1.08c.177-1.256.269-2.52.276-3.776l.655.005c-.006 1.283-.101 2.575-.282 3.86l-.65-.09zm-1.296-10.943l.515-.394c.717.891 1.19 2.1 1.449 3.695l-.648.097c-.24-1.484-.67-2.595-1.316-3.398zm-.706 18.25c.485-1.182.899-2.392 1.23-3.596l.634.166c-.338 1.23-.761 2.462-1.255 3.666l-.61-.237zm-2.177-8.012l.284-.574c1.04.49 2.27.888 3.654 1.184l-.14.624c-1.433-.308-2.712-.722-3.798-1.234zm-1.502 14.681c.735-1.04 1.419-2.129 2.03-3.236l.577.304c-.623 1.126-1.318 2.235-2.066 3.294l-.541-.362zm-2.15-24.478c.864-1.27 2.062-2.132 3.287-2.36l.124.627c-1.053.196-2.096.957-2.863 2.087l-.547-.354zm-1.176 3.795l.656-.012c.016.702.182 1.35.493 1.924.257.472.57.918.93 1.327l-.495.416c-.394-.445-.735-.93-1.014-1.446-.36-.663-.552-1.407-.57-2.209zm-1.74 26.43c.944-.864 1.849-1.786 2.69-2.74l.498.415c-.857.972-1.778 1.911-2.738 2.791l-.45-.466zm-6.207 4.555c1.107-.638 2.193-1.348 3.232-2.11l.395.51c-1.057.776-2.164 1.5-3.292 2.15l-.335-.55zm-7.1 3.055c1.23-.36 2.456-.805 3.644-1.319l.267.584c-1.213.524-2.464.978-3.72 1.347l-.19-.612zm-7.65 1.22c1.282-.033 2.583-.155 3.867-.36l.108.63c-1.314.21-2.644.335-3.955.37l-.02-.64z" mask="url(#prefix__d)"/>
        <path fill="#F59015" d="M329.956 100.542L326.203 106.026 324.538 100.947 326.94 99.459z" mask="url(#prefix__d)"/>
        <path fill="#F9DC56" d="M321.298 86.195L336.081 100.817 326.449 101.231z" mask="url(#prefix__d)"/>
        <path fill="#FFB023" d="M321.298 86.195L316.159 100.715 326.449 101.231z" mask="url(#prefix__d)"/>
        <path fill="#57575E" d="M72.661 282.975s-2.726 2.622 0 5.348H84.45v-5.348h-6.13s-2.812 1.646-5.658 0" mask="url(#prefix__d)"/>
        <path fill="#F9E0D2" d="M79.85 288.322h9.2v-2.1c0-1.795-1.455-3.248-3.248-3.248h-2.706c-1.793 0-3.247 1.453-3.247 3.247v2.101zM72.181 289.18L89.443 289.18 89.443 288.323 72.181 288.323z" mask="url(#prefix__d)"/>
        <path fill="#FDC854" d="M59.575 271.803h109.14c3.38 0 6.12 2.74 6.12 6.12v5.1c0 3.38-2.74 6.12-6.12 6.12H59.575c-3.38 0-6.12-2.74-6.12-6.12v-5.1c0-3.38 2.74-6.12 6.12-6.12" mask="url(#prefix__d)"/>
        <path fill="#F89F4F" d="M53.456 285.827c0 1.831 1.484 3.315 3.315 3.315H171.52c1.83 0 3.315-1.484 3.315-3.315v-1.784H53.455v1.784z" mask="url(#prefix__d)"/>
        <path fill="#FDC854" d="M59.575 254.463h109.14c3.38 0 6.12 2.739 6.12 6.119v5.1c0 3.38-2.74 6.12-6.12 6.12H59.575c-3.38 0-6.12-2.74-6.12-6.12v-5.1c0-3.38 2.74-6.12 6.12-6.12" mask="url(#prefix__d)"/>
        <path fill="#F89F4F" d="M53.456 268.487c0 1.831 1.484 3.315 3.315 3.315H171.52c1.83 0 3.315-1.484 3.315-3.315v-1.785H53.455v1.785z" mask="url(#prefix__d)"/>
        <path fill="#FDC854" d="M59.575 237.123h109.14c3.38 0 6.12 2.74 6.12 6.12v5.1c0 3.38-2.74 6.12-6.12 6.12H59.575c-3.38 0-6.12-2.74-6.12-6.12v-5.1c0-3.38 2.74-6.12 6.12-6.12" mask="url(#prefix__d)"/>
        <path fill="#F89F4F" d="M53.456 251.148c0 1.83 1.484 3.315 3.315 3.315H171.52c1.83 0 3.315-1.484 3.315-3.315v-1.785H53.455v1.785z" mask="url(#prefix__d)"/>
        <path fill="#FDC854" d="M52.928 219.783h109.14c3.38 0 6.12 2.74 6.12 6.12v5.1c0 3.38-2.74 6.12-6.12 6.12H52.927c-3.38 0-6.12-2.74-6.12-6.12v-5.1c0-3.38 2.74-6.12 6.12-6.12" mask="url(#prefix__d)"/>
        <path fill="#F89F4F" d="M46.808 233.808c0 1.83 1.484 3.315 3.315 3.315h114.749c1.83 0 3.315-1.484 3.315-3.315v-1.785H46.807v1.785z" mask="url(#prefix__d)"/>
        <path fill="#FDC854" d="M59.575 202.443h109.14c3.38 0 6.12 2.74 6.12 6.12v5.1c0 3.38-2.74 6.12-6.12 6.12H59.575c-3.38 0-6.12-2.74-6.12-6.12v-5.1c0-3.38 2.74-6.12 6.12-6.12" mask="url(#prefix__d)"/>
        <path fill="#F89F4F" d="M53.456 216.468c0 1.83 1.484 3.315 3.315 3.315H171.52c1.83 0 3.315-1.484 3.315-3.315v-1.785H53.455v1.785z" mask="url(#prefix__d)"/>
        <path fill="#FDC854" d="M55.024 185.102h109.14c3.38 0 6.12 2.74 6.12 6.12v5.101c0 3.38-2.74 6.12-6.12 6.12H55.024c-3.38 0-6.12-2.74-6.12-6.12v-5.1c0-3.38 2.74-6.12 6.12-6.12" mask="url(#prefix__d)"/>
        <path fill="#F89F4F" d="M48.905 199.128c0 1.83 1.484 3.315 3.315 3.315h114.749c1.83 0 3.315-1.484 3.315-3.315v-1.785H48.904v1.785z" mask="url(#prefix__d)"/>
        <path fill="#FDC854" d="M52.928 167.763h109.14c3.38 0 6.12 2.74 6.12 6.12v5.1c0 3.38-2.74 6.12-6.12 6.12H52.927c-3.38 0-6.12-2.74-6.12-6.12v-5.1c0-3.38 2.74-6.12 6.12-6.12" mask="url(#prefix__d)"/>
        <path fill="#F89F4F" d="M46.808 181.788c0 1.831 1.484 3.314 3.315 3.314h114.749c1.83 0 3.315-1.483 3.315-3.314v-1.785H46.807v1.785z" mask="url(#prefix__d)"/>
        <path fill="#FDC854" d="M57.388 150.423h109.14c3.38 0 6.12 2.74 6.12 6.12v5.1c0 3.38-2.74 6.12-6.12 6.12H57.388c-3.38 0-6.12-2.74-6.12-6.12v-5.1c0-3.38 2.74-6.12 6.12-6.12" mask="url(#prefix__d)"/>
        <path fill="#F89F4F" d="M51.268 164.448c0 1.831 1.484 3.314 3.315 3.314h114.749c1.83 0 3.315-1.483 3.315-3.314v-1.785H51.267v1.785z" mask="url(#prefix__d)"/>
        <path fill="#FDC854" d="M59.17 133.083h109.14c3.38 0 6.12 2.74 6.12 6.12v5.101c0 3.38-2.74 6.119-6.12 6.119H59.17c-3.38 0-6.12-2.739-6.12-6.119v-5.101c0-3.38 2.74-6.12 6.12-6.12" mask="url(#prefix__d)"/>
        <path fill="#F89F4F" d="M53.05 147.108c0 1.831 1.485 3.314 3.316 3.314h114.749c1.83 0 3.315-1.483 3.315-3.314v-1.785H53.05v1.785z" mask="url(#prefix__d)"/>
        <path fill="#FFAC34" d="M210.199 277.153c23.517-19.17 27.04-53.775 7.869-77.292-19.17-23.516-53.775-27.04-77.291-7.869-23.517 19.17-27.04 53.774-7.87 77.292 19.17 23.515 53.775 27.04 77.292 7.87" mask="url(#prefix__d)"/>
        <path fill="#FFBC3F" d="M202.396 267.582c18.23-14.861 20.962-41.687 6.1-59.918-14.86-18.23-41.686-20.961-59.916-6.1-18.231 14.861-20.962 41.687-6.101 59.917 14.86 18.23 41.687 20.961 59.917 6.101" mask="url(#prefix__d)"/>
        <path fill="#FFA331" d="M192.77 227.61c1.069.647 2.584.103 3.384-1.215.8-1.317.583-2.913-.485-3.56l-11.606-7.044-7.736-4.696c-1.068-.647-2.584-.104-3.384 1.214-.8 1.32-.582 2.914.485 3.562l7.738 4.695c2.518 1.528 3.43 4.821 2.548 8.081l-13.184-8c-1.068-.648-2.583-.104-3.383 1.214-.8 1.317-.583 2.913.485 3.561l13.184 8.001c-2.484 2.29-5.826 3-8.345 1.47l-7.737-4.695c-.252-.152-.541-.243-.85-.267-.62-.043-1.28.191-1.833.657-.551.463-.95 1.123-1.107 1.825-.083.355-.1.705-.05 1.035l3.88 28.485c.095.698.449 1.233.944 1.533.495.301 1.132.368 1.792.134 1.32-.473 2.239-1.987 2.049-3.376l-3.054-22.417 3.068 1.862c4.673 2.836 11.069 1.097 15.27-3.802l2.132 1.294c1.067.647 2.584.103 3.383-1.214.8-1.318.583-2.914-.485-3.562l-2.131-1.294c.787-1.952 1.119-3.947 1.11-5.86l3.919 2.378z" mask="url(#prefix__d)"/>
    </g>
</svg>
