<svg xmlns="http://www.w3.org/2000/svg" xmlns:xlink="http://www.w3.org/1999/xlink" width="405" height="257" viewBox="0 0 405 257">
    <defs>
        <path id="prefix__a" d="M.429 1.035c4.997 0 6.514 3.144 8.121 6.473 1.786 3.698 3.809 7.891 11.02 7.891 9.033 0 9.395 7.049 9.406 7.348l.599-.04c-.003-.078-.381-7.902-9.984-7.902-6.845 0-8.702-3.846-10.497-7.567C7.48 3.898 5.812.443.449.443l-.02.592z"/>
        <path id="prefix__c" d="M.874 3.487s.104.582.203 1.468l10.472-.233C11.384 1.855 9.855.957 8.002.957 4.893.957.874 3.487.874 3.487"/>
        <path id="prefix__e" d="M.625.444C.512.444.42.534.42.646v.615h5.252V.906c0-.256-.21-.462-.467-.462H.625z"/>
        <path id="prefix__f" d="M.952.444c-.114 0-.206.09-.206.202v.615h5.252V.906c0-.256-.21-.462-.468-.462H.952z"/>
        <path id="prefix__g" d="M.279.444c-.115 0-.207.09-.207.202v.615h5.252V.906c0-.256-.21-.462-.467-.462H.279z"/>
        <path id="prefix__h" d="M.605.444C.49.444.398.534.398.646v.615H5.65V.906c0-.256-.209-.462-.467-.462H.605z"/>
        <path id="prefix__i" d="M1.052.444c-.113 0-.206.09-.206.202v.615h3.07V.906c0-.256-.211-.462-.468-.462H1.052z"/>
        <path id="prefix__j" d="M.783.444c-.115 0-.207.09-.207.202v.615h3.07V.906c0-.256-.21-.462-.468-.462H.783z"/>
        <path id="prefix__k" d="M.293.444c-.115 0-.206.09-.206.202v.615h3.069V.906c0-.256-.209-.462-.468-.462H.293z"/>
        <path id="prefix__l" d="M3.078 3.107S2.114 1.962.61.08c1.168 2.678 2.468 3.027 2.468 3.027"/>
        <linearGradient id="prefix__m" x1="60.333%" x2="34.351%" y1="73.926%" y2="21.606%">
            <stop offset="0%" stop-color="#DBEBFF"/>
            <stop offset="100%" stop-color="#FFF"/>
        </linearGradient>
    </defs>
    <g fill="none" fill-rule="evenodd">
        <path fill="#FFF4DD" d="M234.395 43.537c-28.599-18.942-59.144-31.827-90.33-38.345C128.047 1.846 111.86.177 95.674.229c-7.037.024-14.51-.67-21.426.25-7.29.969-14.266 6.254-21.115 9.576-8.447 4.095-16.76 9.124-24.213 16.2C17.083 37.497 7.357 55.075 6.111 75.3c-1.247 20.227 8.108 42.157 22.13 45.49 2.638.627 5.63.807 7.434 3.627 3.05 4.762-.042 12.794-4.135 15.522-4.094 2.73-8.9 2.63-12.979 5.405-8.33 5.669-10.8 22.096-7.317 34.301 3.484 12.205 11.29 20.755 19.29 27.323 37.99 31.19 84.441 29.598 128.225 27.123 2.098-.118 4.345-.31 6.008-2.141 1.663-1.83 2.223-5.945.532-7.721 66.723-.214 132.211 43.817 198.243 30.132 8.664-1.796 18.587-6.19 21.54-17.963 2.728-10.872-1.943-22.532-6.946-31.604-30.806-55.864-79.49-84.64-127.038-105.717-4.176-1.85-8.515-3.783-11.72-8.029-3.206-4.247-4.89-11.546-2.625-16.888 1.875-4.418 5.911-6.48 7.366-11.212 2.496-8.115-4.094-15.683-9.724-19.412"/>
        <path fill="#A4B751" d="M82.158 250.744c-1.741-.764-7.61-2.977-7.886-4.99-.302-2.196 1.104-4.601 3.112-5.324.865-.31 1.826-.348 2.517-1.115.385-.428.518-1.085.21-1.547-.502-.756-1.58-.309-2.372.096-1.52.777-3.22 1.223-4.84.95-1.618-.275-3.132-1.352-3.72-2.974-.59-1.622-.07-3.755 1.35-4.735.887-.612 2-.742 2.772-1.61.399-.452.589-1.101.36-1.645-.462-1.097-2-.678-3.06-.173-1.497.713-3.09 1.292-4.698 1.267-1.608-.022-3.245-.736-4.087-2.162-.843-1.429-.657-3.6.634-4.697.518-.44 1.153-.682 1.697-1.083.653-.48 1.207-1.34.769-2.143-.303-.554-.953-.752-1.558-.608-.838.2-1.437.794-2.043 1.38-.956.925-2.2 1.462-3.453 1.405-3.745-.171-4.301-4.785-2.217-6.97.586-.614 1.408-1.186 1.352-2.069-.044-.697-.622-1.177-1.275-1.214-1.288-.075-2.237.926-3.378 1.346-2.087.769-4.525-.926-4.664-3.243-.106-1.772 2.012-1.859 3.94-2.315.443-.107.483-.771.055-.897-1.703-.502-3.756-1.501-4.863-2.187-2.03-1.258-3.752-5.235-.254-6.385.938-.307 3.056.418 3.546 1.11.694.98 3.248 3.467 3.248 3.467.3.244.732-.107.594-.486-.312-.86-.513-1.759-.406-2.735.049-.445.177-.888.39-1.283 1.279-2.348 4.038-1.47 5.085.355.872 1.517.898 3.433.943 5.25.023.94.086 1.965.814 2.557.412.335 1.013.378 1.432.008.484-.427.378-1.03.42-1.585.137-1.815 2.092-3.147 3.748-2.841 1.657.304 2.877 1.876 3.293 3.614.416 1.738.154 3.614-.28 5.392-.214.876-.47 1.815 0 2.619.277.474.854.702 1.334.428.684-.389.599-1.353.71-2.127.306-2.153 2.833-3.465 4.72-2.79 1.887.676 3.022 2.798 3.217 4.939.218 2.412-.552 4.86-1.318 7.166-.181.54-.014 1.16.446 1.417.638.357 1.162-.25 1.618-.715 1.765-1.8 4.664-2.12 6.593-.727 1.929 1.393 2.687 4.353 1.723 6.73-.613 1.511-1.823 2.774-1.681 4.553.07.88.696 1.613 1.525 1.592 1.045-.029 1.57-1.197 2.219-2.028 1.8-2.303 5.417-2.115 7.29-.068 1.872 2.044.9 7.396.167 10.259-.733 2.863-2.144 8.858-4.567 11.632-1.141 1.306-9.482-1.297-11.223-2.061"/>
        <path fill="#619440" d="M46.558 197.103c.938-.309 3.056.418 3.546 1.11.693.978 3.247 3.466 3.247 3.466.3.244.732-.108.595-.485-.312-.86-.513-1.76-.407-2.735.049-.446.177-.889.392-1.284 1.277-2.349 4.036-1.47 5.084.356.871 1.517.898 3.432.942 5.248.023.941.086 1.965.814 2.558.413.336 1.014.378 1.433.008.484-.428.377-1.03.419-1.585.138-1.816 2.092-3.146 3.749-2.842 1.657.305 2.877 1.877 3.293 3.616.415 1.737.153 3.614-.28 5.39-.214.877-.47 1.817 0 2.62.277.475.853.702 1.334.428.684-.39.599-1.353.709-2.128.307-2.152 2.834-3.464 4.721-2.788 1.887.676 3.022 2.796 3.216 4.937.218 2.413-.551 4.86-1.318 7.166-.18.542-.013 1.16.447 1.419.638.357 1.161-.25 1.618-.717 1.765-1.799 4.663-2.118 6.592-.725 1.93 1.392 2.687 4.35 1.723 6.73-.612 1.51-1.822 2.774-1.681 4.552.071.879.696 1.613 1.525 1.591 1.046-.027 1.571-1.197 2.22-2.028 1.8-2.303 5.417-2.113 7.289-.068 1.873 2.044.901 7.397.168 10.26-.685 2.671-1.959 8.07-4.094 11.033-.153.213-.473.6-.473.6s-9.731-18.208-24.066-34.984c-7.963-9.32-24.555-19.258-24.555-19.258s.108-.261.373-.537c.456-.477 1.241-.864 1.425-.924"/>
        <path fill="#306B34" d="M109.023 231.03c.84 2.072 1.394 4.238 1.899 6.394.658 2.806.203 3.639-.581 6.182-.783 2.541-2.564 4.64-4.944 5.259-2.38.618-4.171 1.837-5.952-.436-.251-.323-.627-.08-.653.101-.191 1.273-.24 2.056-.982 2.935-.776.92-5.55 4.844-11.517.552-3.12-3.975-4.336-8.805-5.853-13.643-.191-.61-.371-1.246-.314-1.851.105-1.114 1.124-1.884 2.152-1.626-.89.076-1.811-.658-2.341-1.554-.53-.898-.751-1.936-.961-2.944l-2.328-11.173c2.574.932 5.34.647 7.432-.767 0 0-8.1-1.727-8.134-5.69-.026-2.875.042-6.874-.145-9.766-.13-2.022.485-4.185 1.176-5.938.588-1.495.975-2.527 2.069-3.576.66-.635 1.358-1.288 2.252-1.474 1.357-.282 2.828.572 4.095 1.495 2.32 1.692 4.45 3.726 6.46 5.883 2.383 2.558 4.608 5.3 6.649 8.19-1.47 3.852-3.94 7.107-7.08 9.328 3.007-1.04 5.706-2.863 7.849-5.297.258-.292.544-.612.938-.615.784-.006 1.23 1.119 1.462 1.988.98 3.674 2.85 7.183 5.34 10.03l-3.486 1.342 4.554-.149s.19 4.96.944 6.82"/>
        <path fill="#A4B751" d="M110.468 232.04c.84 2.072 1.292 8.514.147 12.002-.829 2.527-2.756 4.584-4.997 5.591-1.756.789-4.392 1.07-6.173-1.205-.25-.321-.627-.078-.654.103-.19 1.272-18.36-56.336-17.493-56.515 1.357-.282 2.828.571 4.094 1.494 2.321 1.691 4.451 3.726 6.461 5.884 2.383 2.558 4.608 5.299 6.648 8.19-1.47 3.851-3.939 7.106-7.078 9.326 3.005-1.039 5.705-2.862 7.848-5.295.258-.294.544-.613.938-.616.783-.006 1.23 1.119 1.462 1.989.981 3.673 2.85 7.181 5.341 10.028-1.162.448-2.324.894-3.487 1.343 1.518-.05 3.036-.099 4.553-.15 0 0 1.636 5.972 2.39 7.831"/>
        <path fill="#F7E8C8" d="M393.507 250.992c0 2.773-87.944 5.02-196.428 5.02-108.485 0-196.428-2.247-196.428-5.02 0-2.773 87.943-5.02 196.428-5.02 108.484 0 196.428 2.247 196.428 5.02"/>
        <path fill="#E5D4B5" d="M135.389 237.096L348.201 237.096 348.201 190.887 135.389 190.887z"/>
        <path fill="#E5D4B5" d="M113.204 172.765v60.317c0 2.219 2.15 4.015 4.799 4.015h46.31c2.65 0 4.802-1.796 4.802-4.015v-70.635h-45.473c-5.764 0-10.438 4.62-10.438 10.318"/>
        <path fill="#F7E8C8" d="M261.227 111.943c-.249-.013-.5-.02-.754-.02h-76.831l-10.233 88.014h76.832c6.079 0 11.011-4.122 11.011-9.208l9.787-66.554c.898-6.108-3.578-11.879-9.812-12.232"/>
        <path fill="#FFF4DD" d="M242.276 111.943c-.25-.013-.5-.02-.754-.02h-67.335c-6.082 0-11.012 4.12-11.012 9.21l-10.233 69.596c0 5.086 4.93 9.208 11.01 9.208h67.337c6.084 0 11.01-4.122 11.01-9.208l9.789-66.555c.897-6.108-3.578-11.879-9.812-12.23"/>
        <path fill="#FFF" d="M237.074 186.187c-39.71-5.53-96.85 0-96.85 0-2.972.751-3.882 1.574-4.835 3.537v29.85s-.128 1.246 1.256 1.246h100.429c2.67 0 4.836-1.583 4.836-3.538v-27.558c0-1.317-2.241-2.826-4.836-3.537"/>
        <path fill="#FFF4DD" d="M234.959 190.029h-99.57v29.545s-.128 1.245 1.256 1.245h100.429c2.67 0 4.836-1.582 4.836-3.537V196.9c0-3.795-3.112-6.871-6.951-6.871"/>
        <path fill="#E5D4B5" d="M120.887 250.215L125.556 250.215 133.684 237.145 126.449 237.145zM164.823 250.215L169.489 250.215 177.619 237.145 170.385 237.145z"/>
        <path fill="#F7E8C8" d="M367.41 111.939c-.214-.011-68.621-.017-68.621-.017-5.047 0-9.292 3.742-9.868 8.698l-7.95 68.377c-.677 5.828 3.934 10.94 9.869 10.94h65.69c5.86 0 10.657-3.833 10.992-8.667.025-.36.045-.72.098-1.077l9.71-66.043c.904-6.143-3.646-11.907-9.92-12.211"/>
        <path fill="#FFF4DD" d="M348.566 111.943c-.25-.013-.501-.02-.754-.02h-67.335c-6.081 0-11.012 4.12-11.012 9.21l-10.234 69.596c0 5.086 4.93 9.208 11.012 9.208h67.335c6.084 0 11.01-4.122 11.01-9.208l9.788-66.557c.898-6.107-3.578-11.877-9.81-12.229"/>
        <path fill="#FFF" d="M344.552 137.896c-5.414 2.505-6.538-.073-24.91.724-10.974.476-17.06-1.351-20.166-2.882-1.245-.612-2.73.21-2.728 1.525.004 2.86-.118 7.55-.682 14.225-2.287 27.091-11.7 27.245-6.523 29.662 5.188 2.423 63.944 7.221 56.953 1.37-6.97-5.836 1.099-27.6 3.044-36.15 1.612-7.088-.326-10.632-4.988-8.474"/>
        <path fill="#E5D4B5" d="M312.974 144.322c-19.087 1.721-38.26.441-45.82-.211-1.787-.154-3.297 1.137-3.343 2.825-.301 11.12-4.792 27.167-6.82 33.891-.51 1.693.689 3.464 2.545 3.774 22.773 3.816 40.302 3.273 47.043 2.833 1.635-.107 2.885-1.358 2.864-2.894-.16-11.741 4.552-28.555 6.974-36.393.628-2.034-1.18-4.028-3.443-3.825"/>
        <path fill="#FFF" d="M343.363 186.187c-39.71-5.53-96.85 0-96.85 0-2.973.751-3.88 1.574-4.836 3.537v27.558s2.465 3.538 3.85 3.538h97.836c2.67 0 4.837-1.583 4.837-3.538v-27.558c0-1.317-2.243-2.826-4.837-3.537"/>
        <path fill="#FFF4DD" d="M241.677 196.868v20.069c0 2.08 1.656 3.847 3.761 3.881l.09.001h97.835c2.67 0 4.837-1.582 4.837-3.537v-27.253h-99.605c-3.82 0-6.918 3.062-6.918 6.839"/>
        <path fill="#E5D4B5" d="M325.79 237.145L333.919 250.215 338.585 250.215 333.024 237.145zM362.992 237.145L371.121 250.215 375.789 250.215 370.225 237.145zM372.267 162.448h-36.596c-5.333 0-9.657 4.273-9.657 9.545v61.09c0 2.217 2.151 4.014 4.8 4.014h46.313c2.649 0 4.797-1.797 4.797-4.014v-61.09c0-5.272-4.324-9.545-9.657-9.545"/>
        <path fill="#FFF" d="M338.453 162.448h-2.691c-5.383 0-9.747 4.313-9.747 9.634v51.28H135.389v-50.597c0-5.698-4.674-10.317-10.438-10.317h-1.308c-5.765 0-10.438 4.619-10.438 10.317v60.318c0 2.217 2.149 4.014 4.798 4.014h223.316c3.8 0 6.882-3.046 6.882-6.802v-58.213c0-5.32-4.365-9.634-9.748-9.634"/>
        <path fill="#FFF4DD" d="M376.085 68.946L377.488 68.946 377.488 40.75 376.085 40.75zM361.869 250.215L364.114 250.215 364.114 36.645 361.869 36.645z"/>
        <path fill="#FFF4DD" d="M352.327 8.625L334.177 42.471 391.808 42.471 373.658 8.625zM376.787 66.404c-1.421 0-2.572 1.137-2.572 2.542 0 1.404 1.151 2.543 2.572 2.543 1.42 0 2.572-1.14 2.572-2.543 0-1.405-1.152-2.542-2.572-2.542"/>
        <path fill="#ECECEC" d="M182.326 113.03L192.575 30.122 315.43 30.122 305.18 113.03z"/>
        <path fill="#FFF" d="M301.81 109.268L186.627 109.268 195.946 33.885 311.128 33.885z"/>
        <path fill="#FFF4DD" d="M290.599 36.688c5.152 0 8.745 4.128 8.026 9.22-.72 5.093-5.48 9.222-10.632 9.222-5.152 0-8.745-4.129-8.026-9.222.72-5.092 5.48-9.22 10.632-9.22"/>
        <path fill="#FFAF12" d="M252.176 45.817h9.248l1.29-9.126c.025 0 .05-.003.076-.003 5.152 0 8.745 4.127 8.026 9.22-.72 5.093-5.479 9.222-10.632 9.222-5.152 0-8.745-4.129-8.026-9.221l.018-.092"/>
        <path fill="#ECECEC" d="M239.767 38.101L239.683 38.694 214.926 38.694 215.009 38.101zM239.346 41.085L239.262 41.678 214.504 41.678 214.588 41.085zM238.924 44.069L238.841 44.661 214.083 44.661 214.167 44.069zM238.503 47.051L238.42 47.644 213.662 47.644 213.745 47.051zM238.081 50.035L237.998 50.627 213.24 50.627 213.323 50.035zM237.66 53.017L237.576 53.61 212.819 53.61 212.902 53.017zM296.539 62.276L296.456 62.868 271.698 62.868 271.781 62.276zM296.202 64.662L296.119 65.254 271.361 65.254 271.444 64.662zM295.865 67.049L295.781 67.642 271.024 67.642 271.107 67.049zM295.527 69.436L295.444 70.029 270.686 70.029 270.769 69.436zM295.19 71.822L295.106 72.415 270.349 72.415 270.432 71.822zM250.766 62.276L250.683 62.868 239.098 62.868 239.182 62.276zM250.429 64.662L250.345 65.254 238.761 65.254 238.845 64.662zM250.092 67.049L250.009 67.642 238.424 67.642 238.508 67.049z"/>
        <path fill="#FFF4DD" d="M212.007 69.871L221.845 63.23 232.629 74.152 244.849 74.152 255.467 87.184 202.873 87.184 207.084 57.379z"/>
        <path fill="#ECECEC" d="M210.971 77.203L215.024 73.374 226.461 79.671 239.154 79.671 255.467 87.184 202.873 87.184 205.301 70.001zM295.215 82.112L291.733 106.761 291.134 106.761 294.616 82.112zM283.945 82.112L280.463 106.761 279.863 106.761 283.346 82.112zM272.675 82.112L269.193 106.761 268.593 106.761 272.075 82.112zM261.405 82.112L257.923 106.761 257.323 106.761 260.806 82.112z"/>
        <path fill="#ECECEC" d="M295.978 83.177L295.895 83.769 259.658 83.769 259.741 83.177zM294.943 90.507L294.86 91.099 258.622 91.099 258.706 90.507zM293.907 97.837L293.824 98.429 257.586 98.429 257.67 97.837zM292.872 105.166L292.788 105.759 256.55 105.759 256.635 105.166z"/>
        <path fill="#E5D4B5" d="M238.778 98.133c.156-1.101 1.188-1.998 2.303-1.998s1.894.897 1.739 1.998c-.156 1.101-1.188 1.998-2.303 1.998-1.114 0-1.895-.897-1.74-1.998m-2.995 0c-.386 2.735 1.55 4.96 4.316 4.96 2.767 0 5.33-2.225 5.719-4.96.385-2.735-1.551-4.96-4.317-4.96s-5.331 2.225-5.718 4.96"/>
        <path fill="#FFF4DD" d="M224.555 98.133c.156-1.101 1.188-1.998 2.303-1.998 1.114 0 1.894.897 1.739 1.998-.156 1.101-1.19 1.998-2.303 1.998-1.114 0-1.895-.897-1.74-1.998m-2.995 0c-.387 2.735 1.55 4.96 4.316 4.96s5.33-2.225 5.718-4.96c.386-2.735-1.55-4.96-4.317-4.96-2.766 0-5.331 2.225-5.717 4.96"/>
        <path fill="#FFAF12" d="M210.331 98.133c.156-1.101 1.188-1.998 2.303-1.998 1.114 0 1.895.897 1.739 1.998-.156 1.101-1.188 1.998-2.303 1.998-1.114 0-1.895-.897-1.739-1.998m-2.996 0c-.386 2.735 1.55 4.96 4.317 4.96 2.766 0 5.331-2.225 5.717-4.96.386-2.735-1.55-4.96-4.316-4.96-2.767 0-5.331 2.225-5.718 4.96"/>
        <g transform="translate(262 83.03)">
            <mask id="prefix__b" fill="#fff">
                <use xlink:href="#prefix__a"/>
            </mask>
            <path d="M.429 1.035c4.997 0 6.514 3.144 8.121 6.473 1.786 3.698 3.809 7.891 11.02 7.891 9.033 0 9.395 7.049 9.406 7.348l.599-.04c-.003-.078-.381-7.902-9.984-7.902-6.845 0-8.702-3.846-10.497-7.567C7.48 3.898 5.812.443.449.443l-.02.592z" mask="url(#prefix__b)"/>
        </g>
        <g>
            <path fill="#D3DDF8" d="M232.207 21.643c2 2.13 4.069 4.332 11.506 4.332 10.302 0 10.843 4.434 10.861 4.622l-.597.079c-.005-.041-.567-4.109-10.284-4.109-7.693 0-9.848-2.294-11.932-4.514-1.79-1.906-3.481-3.707-8.929-3.707l.021-.592c5.703 0 7.476 1.89 9.354 3.889" transform="translate(37 75.123)"/>
            <path fill="#A29C8F" d="M73.207 109.027h23.232c2.299 0 4.431 1.901 4.754 4.237l7.778 60.386h-1.961l-7.737-60.107c-.19-1.368-1.487-2.524-2.834-2.524H73.207c-1.347 0-2.645 1.156-2.833 2.524l-7.739 60.107h-1.959l7.777-60.386c.323-2.336 2.456-4.237 4.754-4.237" transform="translate(37 75.123)"/>
            <path fill="#57575E" d="M70.436 109.027l21.62.086c2.294 0 7.434 1.81 7.773 4.14l7.264 60.397h-2.853l-7.716-60.103c-.198-1.37-3.59-2.528-4.94-2.528l-20.66.009c-1.35 0-1.41 1.377-1.61 2.747l-7.438 59.875H57.89l7.77-60.397c.338-2.33 2.48-4.226 4.775-4.226" transform="translate(37 75.123)"/>
            <path fill="#57575E" d="M24.62 108.891h26.525c2.294 0 5.268 1.961 5.607 4.373l7.259 60.386h-2.852l-7.713-60.082c-.198-1.418-1.506-2.617-2.855-2.617H25.174c-1.35 0-.718.904-.917 2.323L13.08 173.65H9.459l10.386-60.386c.337-2.412 2.48-4.373 4.775-4.373" transform="translate(37 75.123)"/>
            <path fill="#A29C8F" d="M27.39 108.89h25.972c2.295 0 4.434 1.964 4.768 4.377l7.76 60.383h-1.961l-7.718-60.084c-.196-1.417-1.501-2.615-2.85-2.615H27.39c-1.37 0-2.745 1.207-3.005 2.634L14.22 173.65h-1.998l10.257-60.456c.433-2.373 2.635-4.304 4.91-4.304" transform="translate(37 75.123)"/>
            <path fill="#57575E" d="M23.083 106.822h-2.62c-1.645-3.744-4.538-18.023-5.896-28.896-.163-1.305-.291-2.336-.38-2.877l-.16-.982 1.915-.327c1.809 11.34 6.762 32.635 7.14 33.082" transform="translate(37 75.123)"/>
            <path fill="#A29C8F" d="M24.517 106.822H22.46c-1.742-3.524-4.718-17.936-6.142-29.25-.162-1.27-.288-2.273-.374-2.807l1.914-.328c1.23 15.049 6.216 31.784 6.66 32.385" transform="translate(37 75.123)"/>
            <path fill="#001A6C" d="M57.54 77.308c.422 3.163 3.212 18.07 4.136 22.628.752 3.704 1.41 5.752 1.904 6.886h-1.962c-1.628-3.995-4.547-18.364-6-29.245-.151-1.138-.512-3.51-.512-3.51l1.913-.328s.367 2.414.522 3.569" transform="translate(37 75.123)"/>
            <path fill="#2647C8" d="M65.428 106.822H63.42c-1.692-3.652-4.626-18.03-6.018-29.177-.163-1.307-.292-2.339-.38-2.88l1.914-.328c2.084 21.55 6.016 31.58 6.492 32.385" transform="translate(37 75.123)"/>
            <path fill="#7F786A" d="M6.717 34.3h38.86c3.676 0 7.127 2.785 7.666 6.193l5.1 34.962s-12.578 2.37-28.383 2.37-21.767-2.37-21.767-2.37L1.01 40.493C.471 37.085 3.04 34.3 6.717 34.3" transform="translate(37 75.123)"/>
            <path fill="#A29C8F" d="M10.026 34.3h38.86c3.677 0 7.127 2.785 7.666 6.193l7.183 34.962s-14.661 2.37-30.466 2.37c-15.805 0-21.767-2.37-21.767-2.37L4.319 40.493c-.54-3.408 2.028-6.192 5.707-6.192" transform="translate(37 75.123)"/>
            <path fill="#57575E" d="M65.126 106.22c.005.103.022.203.022.309 0 2.48-1.42 4.493-3.17 4.493H21.34c-1.751 0-3.171-2.012-3.171-4.493 0-.106.017-.206.022-.31h46.935z" transform="translate(37 75.123)"/>
            <path fill="#A29C8F" d="M104.91 106.22c.006.103.025.203.025.309 0 2.48-1.616 4.493-3.609 4.493H53.561c-1.993 0-3.609-2.012-3.609-4.493 0-.106.02-.206.024-.31h54.934z" transform="translate(37 75.123)"/>
            <path fill="#FFE2B7" d="M60.367 31.268c5.049 4.54 28.82 12.88 33.583 14.836 5.74 2.357 10.943-3.263 7.989-8.073-2.518-4.098-30.815-18.563-34.511-19.5-6.674-1.689-13.38 7.056-7.061 12.737" transform="translate(37 75.123)"/>
            <path fill="#FFAF12" d="M80.598 43.492c-8.07-3.466-20.842-12.048-23.4-14.35-6.319-5.68.385-14.425 7.06-12.735 2.082.526 14.728 6.107 24.298 11.9 1.358 3.054-1.95 12.573-7.958 15.185" transform="translate(37 75.123)"/>
            <path fill="#FFAF12" d="M44.874 3.488s1.93 10.687-2.893 10.795c-4.822.107-13.732 1.323-16.8 5.535-3.068 4.213-6.715 41.227-2.724 68.139 0 0 32.4 9.938 48.271-6.264 0 0 5.003-53.48.146-60.76-4.051-6.07-13.792-5.57-13.792-5.57s-2.748-2.282-1.798-7.4c2.318-12.492-10.41-4.475-10.41-4.475" transform="translate(37 75.123)"/>
        </g>
        <g transform="translate(81 75.123)">
            <mask id="prefix__d" fill="#fff">
                <use xlink:href="#prefix__c"/>
            </mask>
            <path d="M.874 3.487s.104.582.203 1.468l10.472-.233C11.384 1.855 9.855.957 8.002.957 4.893.957.874 3.487.874 3.487" mask="url(#prefix__d)"/>
        </g>
        <g>
            <path fill="#E38601" d="M54.18 44.53c.632-.866 1.513-1.604 2.55-2.234l9.002 36.562 33.997 27.547c-15.871 16.2-48.272 6.264-48.272 6.264-3.991-26.913-.343-63.926 2.724-68.139" transform="translate(8 50.412)"/>
            <path fill="#FBBCBE" d="M67.145 39.261c3.792 6.672 10.438 10.347 16.313 8.481 3.373-1.068 5.875-3.768 7.24-7.308-2.589-.465-4.617-.359-4.617-.359s-2.745-2.281-1.796-7.4c2.318-12.496-10.413-4.474-10.413-4.474s1.932 10.684-2.89 10.793c-1.102.023-2.422.105-3.837.267" transform="translate(8 50.412)"/>
            <path fill="#FFE2B7" d="M67.145 39.261c3.792 6.672 10.438 10.347 16.313 8.481 3.373-1.068 5.875-3.768 7.24-7.308-2.589-.465-4.617-.359-4.617-.359s-2.745-2.281-1.796-7.4c2.318-12.496-10.413-4.474-10.413-4.474s1.932 10.684-2.89 10.793c-1.102.023-2.422.105-3.837.267" transform="translate(8 50.412)"/>
            <path fill="#FFC581" d="M70.981 38.993c4.823-.108 2.891-10.793 2.891-10.793s.655-.412 1.641-.904l.114 4.98c.156 6.828 5.883 12.238 12.791 12.083-1.322 1.577-2.992 2.76-4.96 3.384-5.875 1.864-12.52-1.81-16.313-8.482 1.415-.162 2.735-.244 3.836-.268" transform="translate(8 50.412)"/>
            <path fill="#57575E" d="M88.937 19.854L88.927 19.447 92.882 19.358 92.891 19.765z" transform="translate(8 50.412)"/>
            <path fill="#FFE2B7" d="M90.455 12l.342 14.926c.1 4.403-3.623 8.056-8.317 8.161-4.693.106-8.581-3.378-8.681-7.781l-.009-.364s-4.87-.23-4.981-5.114c-.112-4.884 3.175-2.964 3.175-2.964l-.148-6.447L90.455 12z" transform="translate(8 50.412)"/>
            <path fill="#FFC581" d="M71.984 18.864l-.147-6.447 6.61-.148c0 .047-.005.095-.004.143l.387 16.894c.068 2.953 2.916 5.286 5.815 5.121.899-.051 1.722-.321 2.438-.747-1.314.85-2.89 1.369-4.602 1.408-4.694.105-8.581-3.379-8.682-7.782l-.008-.363s-4.87-.23-4.982-5.115c-.112-4.884 3.175-2.964 3.175-2.964" transform="translate(8 50.412)"/>
            <path fill="#57575E" d="M72.106 19.022s1.523 4.345 2.35-.99c.828-5.335 2.493-5.138 8.51-4.882 6.018.256 14.427-2.147 11.018-9.395C90.632-3.368 77.892 2.24 77.892 2.24S68.419-.364 67.006 7.017c-1.413 7.381 5.1 12.005 5.1 12.005" transform="translate(8 50.412)"/>
            <path fill="#FFE2B7" d="M53.89 45.971c-4.07 5.416-10.174 30.17-11.672 35.047-1.805 5.879 3.051 10.586 7.6 7.203 3.876-2.881 18.157-33.558 18.733-37.287 1.04-6.732-9.569-11.74-14.662-4.963" transform="translate(8 50.412)"/>
            <path fill="#FFAF12" d="M44.07 67.301c3.006-9.328 7.266-18.747 9.596-21.848 5.537-7.369 16.853-1.243 15.722 6.076-.282 1.83-4.083 11.195-8.173 19.982-7.798.726-16.133-3.11-17.145-4.21" transform="translate(8 50.412)"/>
            <path fill="#FFC581" d="M173.265 142.378l3.021-5.59c5.95 4.167 11.823 6.001 12.778-4.123.44-4.665 6.216-5.3 6.216-5.3l-2.285 24.209s-1.216 2.316-6.615-1.7c-5.864-4.36-13.115-7.496-13.115-7.496" transform="translate(8 50.412)"/>
            <path fill="#57575E" d="M188.542 142.467c-1.284-1.654-4.16-.217-4.08-2.374 2.375-.246 4.119-2.304 4.602-7.428.44-4.665 6.216-5.3 6.216-5.3l-2.284 24.209s-1.142 2.174-6.123-1.343c.239-2.536 3.607-5.268 1.669-7.764" transform="translate(8 50.412)"/>
            <path fill="#A29C8F" d="M51.205 109.556c-2.074 12.534 9.792 22.907 25.786 21.17 15.993-1.738 41.123-13.716 52.637-16.16 0 0 14.632-18.342 4.955-22.397-24.148-10.116-83.378 17.387-83.378 17.387" transform="translate(8 50.412)"/>
            <path fill="#A29C8F" d="M136.362 93.33s37.292 40.589 44.746 44.77c0 0-2.896 7.59-7.853 13.376 0 0-43.697-33.029-48.182-37.138-9.376-8.587 11.29-21.008 11.29-21.008" transform="translate(8 50.412)"/>
            <path fill="#A29C8F" d="M76.991 130.726s35.396 4.703 46.976 3.911c5.583-.381 25.278-5.791 20.247-18.674-5.026-12.87-39.96-3.982-67.223 14.763" transform="translate(8 50.412)"/>
            <path fill="#7F786A" d="M141.302 112.544c-21.647-4.391-32.888 6.278-31.093 12.802 2.8 10.174 18.075 7.783 18.912 8.33-2.106.565-3.953.88-5.154.962-11.58.79-46.976-3.911-46.976-3.911 24.28-16.696 54.2-25.718 64.311-18.183" transform="translate(8 50.412)"/>
            <path fill="#FFC581" d="M165.237 192.287c-7.855-.98-10.056-10.819-11.365-15.629l-7.394 2.796s4.404 8.222 4.064 13.821c-.34 5.6 1.27 5.073 1.27 5.073h23.438s-2.158-5.08-10.013-6.061" transform="translate(8 50.412)"/>
            <path fill="#57575E" d="M165.237 192.287c-2.37-.296-4.819-1.766-6.035-3.312-.788-1.09-4.622.114-5.259 2.225 0 0-1.556 1.107-3.394.937.005.388.015.773-.007 1.138-.34 5.6 1.27 5.073 1.27 5.073h23.438s-2.158-5.08-10.013-6.061" transform="translate(8 50.412)"/>
            <path fill="#A29C8F" d="M144.878 118.292s9.334 48.338 12.817 62.9c0 0-7.46 3.805-12.784 2.996 0 0-25.14-50.856-16.303-58.617 4.963-4.358 16.27-7.279 16.27-7.279" transform="translate(8 50.412)"/>
            <path fill="#FFE2B7" d="M45.51 79.096c8.46-1.388 35.103 2.243 39.718-.285 4.616-2.528 13.25-4.077 16.396-1.471 3.21 2.659 1.035 5.067-2.428 7.023-2.2 1.242-4.77 2.287-10.602 1.593-5.848-.695-30.626 4.544-39.24 4.727-8.537.18-9.567-10.647-3.843-11.587M121.477 61.426c7.281-4.477 30.69-10.106 33.98-14.184 3.29-4.078 8.055-7.7 11.969-6.478 3.995 1.245 5.708 5.268.468 7.407-2.341.956-3.525 3.914-9.184 5.474-5.672 1.564-21.316 13.619-29.207 17.038-7.82 3.389-12.953-6.23-8.026-9.257" transform="translate(8 50.412)"/>
            <path fill="#57575E" d="M80.165 17.542c-.07 0-.139.001-.207.003-1.573.036-3.44.467-3.397 2.316.038 1.663 1.168 4.091 3.47 4.091h.075c1.308-.03 2.103-.805 2.54-1.45.531-.785.835-1.83.813-2.796-.04-1.77-1.767-2.164-3.294-2.164m-.135 6.818c-2.576 0-3.838-2.664-3.88-4.49-.04-1.706 1.31-2.677 3.8-2.732 2.493-.04 3.882.853 3.92 2.56.024 1.044-.306 2.178-.882 3.029-.49.726-1.388 1.6-2.873 1.632h-.084M89.385 17.336c-.07 0-.138 0-.206.003-1.573.035-3.44.466-3.397 2.317.039 1.68 1.19 4.165 3.544 4.089 2.352-.051 3.392-2.563 3.353-4.245-.04-1.77-1.767-2.164-3.294-2.164m-.134 6.817c-2.576 0-3.84-2.664-3.881-4.49-.04-1.704 1.31-2.676 3.8-2.731 2.49-.05 3.882.854 3.922 2.56.042 1.844-1.123 4.603-3.756 4.66l-.085.001" transform="translate(8 50.412)"/>
            <path fill="#57575E" d="M83.636 19.538L83.627 19.13 85.563 19.087 85.572 19.494zM72.566 20.221L72.557 19.813 76.511 19.725 76.521 20.132zM19.673 198.361L24.649 198.361 24.649 99.382 19.673 99.382zM233.276 198.361L228.849 198.361 228.849 145.249 228.849 99.382 233.276 99.382zM13.472 99.38L74.36 99.38 74.36 96.831 13.472 96.831zM74.36 99.38L326.308 99.38 326.308 96.831 74.36 96.831zM82.223 198.361L87.813 198.361 87.813 99.382 82.223 99.382zM316.495 198.361L311.513 198.361 311.513 145.249 311.513 99.382 316.495 99.382zM.133 96.831L61.019 96.831 61.019 92.291.133 92.291z" transform="translate(8 50.412)"/>
            <path fill="#A29C8F" d="M60.68 96.831L339.651 96.831 339.651 92.291 60.68 92.291z" transform="translate(8 50.412)"/>
            <g>
                <path fill="#57575E" d="M53.839 43.762c0 .168-.137.303-.307.303H.613c-.338 0-.613-.271-.613-.606v-1.461h53.839v1.764zM6.913 41.383v.614H5.024v-.817h1.683c.113 0 .206.09.206.203M9.105 41.383v.614H7.216v-.817H8.9c.114 0 .206.09.206.203M11.296 41.383v.614H9.409v-.817h1.683c.114 0 .206.09.206.203M20.428 41.383v.614H18.54v-.817h1.683c.114 0 .206.09.206.203M22.62 41.383v.614h-1.89v-.817h1.684c.114 0 .207.09.207.203M28.348 41.383v.614H26.46v-.817h1.683c.114 0 .206.09.206.203" transform="translate(8 50.412) translate(61 48.226)"/>
                <path fill="#151618" d="M30.54 41.383v.614h-1.89v-.817h1.684c.114 0 .206.09.206.203" transform="translate(8 50.412) translate(61 48.226)"/>
                <path fill="#57575E" d="M18.172 41.383v.614h-6.496v-.817h6.29c.113 0 .206.09.206.203" transform="translate(8 50.412) translate(61 48.226)"/>
                <path fill="#151618" d="M37.655 41.383v.614H31.16v-.817h6.289c.114 0 .206.09.206.203" transform="translate(8 50.412) translate(61 48.226)"/>
                <path fill="#57575E" d="M57.194 2.65C57.657.99 58.897 0 60.836 0L48.81 43.823s-2.33-.657-1.753-2.896c.482-1.87 7.63-29.322 10.138-38.278" transform="translate(8 50.412) translate(61 48.226)"/>
                <path fill="#7F786A" d="M61.062 0h56.363c.788 0 1.366.734 1.172 1.489l-10.374 40.508h-59.25l10.43-40.72C59.596.526 60.279 0 61.062 0" transform="translate(8 50.412) translate(61 48.226)"/>
                <path fill="#ECECEC" d="M93.656 38.873h15.394l1.086-4.346H94.19c-.535 0-1.004.357-1.14.87l-.534 2.017c-.195.738.368 1.459 1.139 1.459" transform="translate(8 50.412) translate(61 48.226)"/>
            </g>
        </g>
        <g transform="translate(23 139.373)"/>
        <g transform="translate(29 139.373)"/>
        <g transform="translate(36 139.373)"/>
        <g transform="translate(42 139.373)"/>
        <g transform="translate(49 139.373)"/>
        <g transform="translate(53 139.373)"/>
        <g transform="translate(57 139.373)"/>
        <g>
            <path fill="#57575E" d="M60.004 91.988c0 .168-.137.303-.307.303H1.54c-.339 0-.613-.272-.613-.607v-1.46h59.077v1.764z" transform="translate(117 50.412)"/>
            <path fill="#FFC581" d="M67.747 87.11c4.815 0 6.859 4.373 10.866 2.637 4.008-1.733 5.867-1.642 5.677-4.942-.189-3.298-2.884-3.034-8.343-3.034-5.327 0-15.349 5.338-8.2 5.338M119.297 191.163c9.834 0 3.17-11.721.995-17.88l9.354-2.174c2.505 6.168.544 12.336 5.58 20.499 3.58 5.804-.623 6.735-.623 6.735h-23.547s0-7.18 8.241-7.18" transform="translate(117 50.412)"/>
            <path fill="#57575E" d="M119.297 191.163c2.793 0 4.253-.948 4.865-2.443 1.821-.357 1.746.72 3 1.633 3.71 2.7 7.513.363 8.063 1.255 3.58 5.804-.622 6.735-.622 6.735h-23.547s0-7.18 8.241-7.18" transform="translate(117 50.412)"/>
            <path fill="#FFC581" d="M73.003 190.296c7.905-2.45 13.418-14.365 16.17-20.75l9.228 3.71c-2.1 3.022-7.285 7.895-8.312 18.352-.731 7.436-2.758 6.735-2.758 6.735H61.757s3.34-5.597 11.246-8.047" transform="translate(117 50.412)"/>
            <path fill="#57575E" d="M73.003 190.296c2.386-.739 4.553-2.344 6.493-4.396.583-.634 1.214 2.086 1.887 2.975 1.353 1.782 7.13 2.53 8.875 1.308-.087.515-.122.94-.17 1.425-.73 7.436-2.757 6.735-2.757 6.735H61.756s3.342-5.597 11.247-8.047" transform="translate(117 50.412)"/>
            <path fill="#A29C8F" d="M151.973 126.85L155.251 126.85 144.208 198.362 140.93 198.362zM113.41 126.85L116.689 126.85 105.646 198.362 102.368 198.362z" transform="translate(117 50.412)"/>
            <path fill="#7F786A" d="M110.415 114.852s-20.933 53.293-23.79 59.077c0 0 4.069 4.556 9.586 4.715 0 0 30.738-48.635 33.604-54.097 2.867-5.464-19.4-9.695-19.4-9.695" transform="translate(117 50.412)"/>
            <path fill="#A29C8F" d="M102.367 122.63s17.318 49.847 19.273 55.987c0 0 6.125.536 10.238-3.102 0 0-6.29-43.79-8.015-49.701-1.726-5.913-21.496-3.185-21.496-3.185" transform="translate(117 50.412)"/>
            <path fill="#FFE2B7" d="M141.723 32.49s3.297.416 3.728 2.804c.432 2.387-.99 4.672-.99 4.672s7.025 1.835 13.294-.552c0 0-3.178-6.192-3.236-12.787-.057-6.594-12.796 5.864-12.796 5.864" transform="translate(117 50.412)"/>
            <path fill="#FFC581" d="M148.755 36.873c-.037-3.107-2.561-5.397-5.483-5.828 3.395-3.074 11.203-9.577 11.247-4.417.058 6.595 3.236 12.786 3.236 12.786-3.086 1.175-6.354 1.326-8.878 1.178-.031-1.24-.108-2.478-.122-3.719" transform="translate(117 50.412)"/>
            <path fill="#FFE2B7" d="M133.925 12.838s-.683 4.372-.348 7.959c.336 3.586-1.011 8.337 2.479 12.391 3.49 4.053 11.472-.46 13.313-5.363 1.842-4.905.22-8.752-2.347-11.005-2.567-2.252-13.097-3.982-13.097-3.982" transform="translate(117 50.412)"/>
            <path fill="#FFC581" d="M139.642 28.304c-.062-1.769-2.152-14.778-2.152-14.778 3.305.708 7.943 1.9 9.532 3.295 2.568 2.251 4.189 6.1 2.347 11.003-1.743 4.642-8.985 8.929-12.715 5.936 1.84-1.15 3.065-3.274 2.988-5.456" transform="translate(117 50.412)"/>
            <path fill="#57575E" d="M137.809 15.805s1.401 1.341 2.012 4.458c.61 3.115 1.185 4.815 2.256 2.748 1.07-2.066 1.363-5.374 4.089-3.388 1.803 1.313 1.77 3.905 1.219 5.322-.552 1.418 1.269 4.54 5.007 3.357 3.739-1.184 6.215-11.174 6.215-11.174s-17.106-5.288-20.798-1.323" transform="translate(117 50.412)"/>
            <path fill="#57575E" d="M136.111 3.25s-5.027 1.238-5.493 5.45c-.414 3.74 1.631 7.387 8.346 7.094 6.714-.293 7.161 3.842 10.71 4.947 3.55 1.105 7.122.07 8.828-3.387 1.77-3.588 1.221-7.957-3.136-11.508-4.357-3.552-18.788-8.63-19.255-2.597" transform="translate(117 50.412)"/>
            <path fill="#A29C8F" d="M183.151 95.528c0 8.327 8.992 28.56-8.643 28.366-17.598-.19-71.617 0-71.617 0s-3.68-7.163 1.322-11.654c5.004-4.491 35.298-11.063 38.99-15.633 3.691-4.57 39.948-1.08 39.948-1.08" transform="translate(117 50.412)"/>
            <path fill="#7F786A" d="M152.434 120.423c31.518 0 22.599-24.412 22.907-25.517 4.603.314 7.81.621 7.81.621 0 8.328 8.992 28.56-8.643 28.368-12.602-.137-43.881-.078-60.624-.033 1.892-.448 34.264-3.439 38.55-3.439" transform="translate(117 50.412)"/>
            <path fill="#FFAF12" d="M142.772 39.558c-3.496.166-9.288 4.797-9.288 11.853 0 9.325 1.73 22.342 5.986 28.937 4.256 6.595-3.83 14.495 3.302 17.338 7.132 2.843 40.178 3.241 41.443-1.534 1.265-4.775-5.677-37.238-7.649-43.661-1.956-6.367-5.464-11.028-8.109-12.166-2.646-1.137-19.268-1.074-25.685-.767" transform="translate(117 50.412)"/>
            <path fill="#E38601" d="M179.434 87.884c.183-4.02.55-8.36-.352-12.29-6.271-27.31-13.231-30.195-16.017-32.564-3.293-2.801-7.258-.96-11.643-1.105-5.927-.198-8.134-2.38-8.185-2.388 6.717-.287 22.635-.323 25.219.788 2.646 1.137 6.155 5.799 8.11 12.165 1.972 6.423 8.915 38.887 7.65 43.662-.555 2.093-7.223 3.194-15.137 3.528 5.61-1.342 10.054-5.146 10.355-11.796" transform="translate(117 50.412)"/>
            <path fill="#FFF" d="M142.772 39.558c2.131-1.094 3.994-.298 5.958-2.175 3.514-3.36 8.535-3.102 8.535-3.102l5.44 5.306s-12.519 4.959-19.933-.03" transform="translate(117 50.412)"/>
            <path fill="#FFAF12" d="M143.77 40.639c-2.84-2.522-10.057.932-15.003 7.187-4.946 6.253-15.26 29.91-17.852 35.296-2.416 5.018 4.946 13.758 12.998 5.685s14.14-20.52 17.017-29.39c2.876-8.868 5.922-16.04 2.84-18.778" transform="translate(117 50.412)"/>
            <path fill="#E5D4B5" d="M147.996 91.035h49.444c1.134 0 2.136-.806 2.425-1.953l3.49-13.824c.407-1.613-.739-3.169-2.334-3.169h-49.444c-1.135 0-2.136.806-2.425 1.953l-3.49 13.824c-.408 1.614.738 3.169 2.334 3.169" transform="translate(117 50.412)"/>
            <path fill="#A29C8F" d="M149.42 91.035h48.113c1.103 0 2.064-.745 2.326-1.805l3.158-12.776c.369-1.491-.773-2.929-2.326-2.929h-48.112c-1.104 0-2.065.746-2.326 1.805l-3.16 12.776c-.368 1.492.774 2.929 2.327 2.929" transform="translate(117 50.412)"/>
            <path fill="#57575E" d="M100.476 127.732L138.205 127.732 138.205 123.895 100.476 123.895z" transform="translate(117 50.412)"/>
            <path fill="#7F786A" d="M145.883 126.85L142.604 126.85 153.647 198.362 156.925 198.362zM184.446 126.85L181.168 126.85 192.21 198.362 195.488 198.362z" transform="translate(117 50.412)"/>
            <path fill="#A29C8F" d="M138.205 127.732L188.328 127.732 188.328 123.895 138.205 123.895z" transform="translate(117 50.412)"/>
            <path fill="#ECECEC" d="M143.516 126.482c.603 0 1.152-.4 1.309-1.005L156.56 80.24c.186-.715-.251-1.443-.973-1.627-.725-.185-1.461.248-1.645.963l-11.737 45.24c-.185.714.25 1.441.974 1.625.112.028.225.042.336.042" transform="translate(117 50.412)"/>
            <path fill="#7F786A" d="M144.867 126.482c.603 0 1.152-.4 1.31-1.005l11.735-45.238c.185-.715-.25-1.443-.973-1.627-.727-.185-1.46.248-1.646.963l-11.736 45.24c-.186.714.251 1.441.973 1.625.113.028.226.042.337.042" transform="translate(117 50.412)"/>
            <path fill="#ECECEC" d="M181.785 126.482c.602 0 1.152-.4 1.308-1.005L194.83 80.24c.185-.715-.251-1.443-.974-1.627-.725-.185-1.46.248-1.645.963l-11.736 45.24c-.186.714.25 1.441.973 1.625.113.028.226.042.337.042" transform="translate(117 50.412)"/>
            <path fill="#7F786A" d="M183.136 126.482c.603 0 1.152-.4 1.309-1.005L196.18 80.24c.186-.715-.251-1.443-.973-1.627-.727-.185-1.46.248-1.645.963l-11.737 45.24c-.185.714.25 1.441.974 1.625.112.028.225.042.336.042" transform="translate(117 50.412)"/>
            <path fill="#FFAF12" d="M117.736 92.09c-8.207 1.015-21.402 0-37.966-.494 0 0-1.97-6.306.618-10.57 0 0 31.562-1.713 34.927-1.628 3.364.085 10.962 11.634 2.42 12.691" transform="translate(117 50.412)"/>
            <path fill="#306B34" d="M258.685 100.036s-18.065 6-15.607 26.586c2.459 20.588-1.081 45.673-1.081 45.673h10.297s18.345-24.446 4.828-42.76c-13.518-18.318 1.563-29.499 1.563-29.499" transform="translate(117 50.412)"/>
            <path fill="#A4B751" d="M257.254 101.32c-3.287 2.682-12.85 12.428-2.544 28.564 12.244 19.172-7.716 42.347-7.716 42.347l-4.945-.33-.053.394h10.298s18.344-24.446 4.827-42.761c-10.848-14.701-3.28-24.8.133-28.215" transform="translate(117 50.412)"/>
            <path fill="#4900BC" d="M257.957 100.65c.445-.4.728-.613.728-.613s-1.624.544-3.828 1.85c1.455-.697 2.583-1.078 3.1-1.237" transform="translate(117 50.412)"/>
            <path fill="#619440" d="M238.916 149.527c.965-18.27.219-20.553-6.966-26.586-7.184-6.032-17.31-15.95-17.31-15.95 6.897 13.496 6.759 19.631 8.056 29.56 1.007 7.705 12.713 23.08 17.914 29.59-1.151-2.64-2.174-7.543-1.694-16.614" transform="translate(117 50.412)"/>
        </g>
        <g transform="translate(357 216.473)">
            <mask id="prefix__n" fill="#fff">
                <use xlink:href="#prefix__l"/>
            </mask>
            <path fill="url(#prefix__m)" d="M3.078 3.107S2.114 1.962.61.08c1.168 2.678 2.468 3.027 2.468 3.027" mask="url(#prefix__n)"/>
        </g>
        <g>
            <path fill="#306B34" d="M40.422 9.563c-3.586 15.178 4.04 25.378 4.04 25.378h7.518c-.026-5.23.354-10.248 2.846-15.322.132-.269.289-.517.458-.754-1.06-.49-2.24-.987-3.552-1.485-13.885-5.271-7.724-22.995-11.31-7.817" transform="translate(312 181.877)"/>
            <path fill="#619440" d="M59.915 13.381c-7.632 3.817-5.425 20.177-5.425 20.177l7.172 2.545s-1.288-7.452 3.586-13.27c4.874-5.816 8.092-3.586 8.092-3.586s-5.793-9.683-13.425-5.866M23.318 5.655c-12.814 0-19.98 7.635-19.98 7.635s4.987-2.506 13.911-2.18c8.923.322 8.276 7.816 15.448 14.814 7.173 6.998 13.15 7.998 13.15 7.998s-9.5-13.58-16.46-22.813c-1.225-1.626-.03-5.454-6.069-5.454" transform="translate(312 181.877)"/>
            <path fill="#FAF9FC" d="M.854 15.898c-.053.135-.064.21-.064.21s.02-.077.064-.21" transform="translate(312 181.877)"/>
            <path fill="#A4B751" d="M33.71 13.836c-2.392-3.182.091-10.999-15.173-9.18C4.595 6.316 1.318 14.492.854 15.898c.353-.909 2.583-4.602 16.027-7.607 15.448-3.454 7.265 4.453 14.253 9.453 6.99 4.999 12.69 14.36 12.69 14.36s3.953 6.544 3.033 1.09C45.938 27.742 36.1 17.017 33.71 13.837M81.064 20.653C74.076 6.564 65.626 7.48 60.007 10.563c-7.972 4.373-6.664 22.631-6.664 22.631l1.147.365s.183-3.545.794-9.635c.61-6.09 3.619-14.736 13.366-2.727 9.749 12.008 23.54 14.168 23.54 14.168s-4.138-.625-11.126-14.712" transform="translate(312 181.877)"/>
            <path fill="#A4B751" d="M62.586 3.113c-2.196-1.591-4.425-1.32-6.146-.61-2.174.894-4.624.6-6.632-.6-7.35-4.395-7.911 1.647-7.911 1.647l.198 1.636c.01.01.01.033.01.053.53 3.034 2.252 9.338 9.623 12.142 1.313.5 12.877 5.452 12.877 5.452-1.567-6.272 2.482-16.447-2.02-19.72" transform="translate(312 181.877)"/>
            <path fill="#57575E" d="M43.253 69.733H55.52c4.51 0 8.165-3.613 8.165-8.07v-29.65H35.088v29.65c0 4.457 3.655 8.07 8.165 8.07" transform="translate(312 181.877)"/>
            <path fill="#7F786A" d="M32.3 36.103L66.473 36.103 66.473 32.012 32.3 32.012z" transform="translate(312 181.877)"/>
        </g>
    </g>
</svg>
