<svg xmlns="http://www.w3.org/2000/svg" xmlns:xlink="http://www.w3.org/1999/xlink" width="405" height="257" viewBox="0 0 405 257"><defs><path id="c" d="M.9 3.5L1 5l10.4-.3C11.4 2 10 1 8 1A17 17 0 00.9 3.5"/><path id="a" d="M.4 1c5 0 6.5 3.2 8.2 6.5 1.7 3.7 3.8 7.9 11 7.9 9 0 9.4 7 9.4 7.3h.6s-.4-7.9-10-7.9c-6.9 0-8.7-3.8-10.5-7.6C7.5 4 5.8.4.4.4V1z"/></defs><defs><use xlink:href="#a"/><use xlink:href="#c"/><linearGradient id="f" x1="60.3%" x2="34.4%" y1="73.9%" y2="21.6%"><stop offset="0%" stop-color="#DBEBFF"/><stop offset="100%" stop-color="#FFF"/></linearGradient><path id="e" d="M3 3.1L.7.1c1.2 2.7 2.5 3 2.5 3"/></defs><g fill="none" fill-rule="evenodd"><path fill="#FFF4DD" d="M234.4 43.5a260.1 260.1 0 00-90.3-38.3c-16-3.4-32.2-5-48.4-5-7 0-14.5-.6-21.5.3-7.2 1-14.2 6.2-21 9.6-8.5 4-16.8 9-24.3 16.2a75.2 75.2 0 00-22.8 49c-1.2 20.2 8.1 42.2 22.1 45.5 2.7.6 5.7.8 7.5 3.6 3 4.8 0 12.8-4.2 15.5-4 2.8-8.9 2.7-13 5.4-8.3 5.7-10.7 22.1-7.3 34.3A55 55 0 0030.5 207c38 31.2 84.5 29.6 128.3 27 2 0 4.3-.2 6-2 1.6-1.9 2.2-6 .5-7.8 66.7-.2 132.2 43.8 198.2 30.2 8.7-1.8 18.6-6.2 21.6-18 2.7-10.9-2-22.5-7-31.6-30.8-55.9-79.5-84.6-127-105.7a27 27 0 01-11.7-8c-3.2-4.3-5-11.6-2.6-17 1.8-4.4 5.9-6.4 7.3-11.2 2.5-8-4-15.6-9.7-19.4"/><path fill="#A4B751" d="M82.2 250.7c-1.8-.7-7.7-3-8-5a5.1 5.1 0 013.2-5.3c.8-.3 1.8-.3 2.5-1 .4-.5.5-1.2.2-1.6-.5-.8-1.6-.3-2.4 0a8 8 0 01-4.8 1 4.8 4.8 0 01-3.7-3c-.6-1.6 0-3.7 1.3-4.7 1-.6 2-.7 2.8-1.6.4-.5.6-1.1.4-1.7-.5-1-2-.6-3.1-.1-1.5.7-3 1.3-4.7 1.2-1.6 0-3.2-.7-4-2.1-1-1.4-.7-3.6.5-4.7l1.7-1.1c.7-.5 1.3-1.3.8-2.1-.3-.6-1-.8-1.5-.6-.9.2-1.5.7-2 1.3-1 1-2.3 1.5-3.5 1.4-3.8-.1-4.3-4.7-2.3-7 .6-.5 1.5-1.1 1.4-2 0-.7-.6-1.2-1.3-1.2-1.3 0-2.2 1-3.4 1.3-2 .8-4.5-.9-4.6-3.2-.1-1.8 2-1.9 4-2.3.4-.1.4-.8 0-1a23 23 0 01-4.9-2.1c-2-1.3-3.7-5.2-.2-6.4.9-.3 3 .4 3.5 1.1.7 1 3.3 3.5 3.3 3.5.3.2.7-.1.5-.5a6 6 0 01-.4-2.7c0-.5.2-1 .4-1.3 1.3-2.4 4-1.5 5.1.3.9 1.5 1 3.5 1 5.3 0 1 0 2 .8 2.5.4.4 1 .4 1.4 0 .5-.4.4-1 .4-1.5.2-1.9 2.1-3.2 3.8-2.9 1.6.3 2.8 1.9 3.3 3.6.4 1.8.1 3.6-.3 5.4-.2.9-.5 1.8 0 2.6.3.5.8.7 1.3.5.7-.4.6-1.4.7-2.2.3-2.1 2.9-3.4 4.7-2.7 2 .6 3 2.8 3.3 4.9.2 2.4-.6 4.9-1.4 7.2-.1.5 0 1.1.5 1.4.6.3 1.2-.3 1.6-.7a5.2 5.2 0 016.6-.8c2 1.4 2.7 4.4 1.7 6.8-.6 1.5-1.8 2.7-1.7 4.5.1.9.7 1.6 1.6 1.6 1 0 1.5-1.2 2.2-2 1.8-2.3 5.4-2.1 7.3 0 1.9 2 .9 7.3.1 10.2-.7 2.8-2.1 8.8-4.5 11.6-1.2 1.3-9.5-1.3-11.2-2"/><path fill="#619440" d="M46.6 197.1c.9-.3 3 .4 3.5 1.1.7 1 3.3 3.5 3.3 3.5.3.2.7-.1.5-.5a6 6 0 01-.4-2.7c0-.5.2-1 .4-1.3 1.3-2.4 4-1.5 5.1.3.9 1.5 1 3.5 1 5.3 0 1 0 2 .8 2.5.4.4 1 .4 1.4 0 .5-.4.4-1 .4-1.5.2-1.9 2.1-3.2 3.8-2.9 1.6.3 2.8 1.9 3.3 3.6.4 1.8.1 3.6-.3 5.4-.2.9-.5 1.8 0 2.6.3.5.8.7 1.3.5.7-.4.6-1.4.7-2.2.3-2.1 2.9-3.4 4.7-2.7 2 .6 3 2.8 3.3 4.9a18 18 0 01-1.4 7.2c-.1.5 0 1.1.5 1.4.6.3 1.2-.3 1.6-.7a5.2 5.2 0 016.6-.8c2 1.4 2.7 4.4 1.7 6.8-.6 1.5-1.8 2.7-1.7 4.5.1.9.7 1.6 1.6 1.6 1 0 1.5-1.2 2.2-2 1.8-2.3 5.4-2.1 7.3 0 1.9 2 .9 7.3.1 10.2-.6 2.6-2 8-4 11l-.5.6s-9.7-18.2-24-35c-8-9.3-24.6-19.2-24.6-19.2l.3-.6c.5-.5 1.3-.8 1.5-.9"/><path fill="#306B34" d="M109 231a43 43 0 012 6.4c.6 2.8.1 3.7-.7 6.2-.7 2.5-2.5 4.6-4.9 5.3-2.4.6-4.2 1.8-6-.5-.2-.3-.6 0-.6.1-.2 1.3-.2 2-1 3-.8.9-5.5 4.8-11.5.5-3.1-4-4.3-8.8-5.9-13.6-.2-.6-.3-1.3-.3-1.9.1-1 1.2-1.9 2.2-1.6-1 0-1.8-.7-2.4-1.6-.5-.9-.7-1.9-1-2.9l-2.3-11.2c2.6 1 5.4.7 7.5-.7 0 0-8.1-1.8-8.2-5.7l-.1-9.8c-.1-2 .5-4.2 1.2-6 .6-1.4 1-2.5 2-3.5.7-.6 1.4-1.3 2.3-1.5 1.4-.3 2.8.6 4 1.5 2.4 1.7 4.5 3.7 6.6 5.9 2.3 2.6 4.6 5.3 6.6 8.2-1.5 3.8-4 7-7 9.3 3-1 5.6-2.9 7.8-5.3.2-.3.5-.6 1-.6.7 0 1.1 1.1 1.4 2 1 3.7 2.8 7.2 5.3 10l-3.5 1.4 4.6-.2s.2 5 1 6.8"/><path fill="#A4B751" d="M110.5 232c.8 2.1 1.3 8.6.1 12a9.5 9.5 0 01-5 5.6c-1.7.8-4.4 1.1-6.2-1.2-.2-.3-.6 0-.6.1A811 811 0 0181.3 192c1.4-.3 2.8.6 4 1.5a78 78 0 0113.1 14c-1.4 4-3.8 7.2-7 9.4 3-1 5.7-2.9 7.9-5.3.2-.3.5-.6 1-.6.7 0 1.1 1.1 1.4 2 1 3.7 2.8 7.2 5.3 10l-3.5 1.4 4.6-.2s1.6 6 2.4 7.8"/><path fill="#F7E8C8" d="M393.5 251c0 2.8-88 5-196.4 5C88.6 256 .7 253.8.7 251s87.9-5 196.4-5 196.4 2.2 196.4 5"/><path fill="#E5D4B5" d="M135.4 237.1h212.8v-46.2H135.4z"/><path fill="#E5D4B5" d="M113.2 172.8V233c0 2.2 2.2 4 4.8 4h46.3c2.7 0 4.8-1.8 4.8-4v-70.7h-45.5c-5.7 0-10.4 4.7-10.4 10.4"/><path fill="#F7E8C8" d="M261.2 112H183.6l-10.2 88h76.8c6.1 0 11-4.2 11-9.3l9.8-66.5c1-6.1-3.5-11.9-9.8-12.3"/><path fill="#FFF4DD" d="M242.3 112h-68.1c-6 0-11 4-11 9.1l-10.3 69.6c0 5.1 5 9.2 11 9.2h67.4c6 0 11-4 11-9.2l9.8-66.5c.9-6.1-3.6-11.9-9.8-12.3"/><path fill="#FFF" d="M237 186.2c-39.6-5.5-96.8 0-96.8 0-3 .7-3.9 1.6-4.8 3.5v29.9s-.1 1.2 1.2 1.2h100.5c2.6 0 4.8-1.6 4.8-3.5v-27.6c0-1.3-2.2-2.8-4.8-3.5"/><path fill="#FFF4DD" d="M235 190h-99.6v29.6s-.1 1.2 1.2 1.2h100.5c2.6 0 4.8-1.6 4.8-3.5v-20.4a7 7 0 00-7-6.9"/><path fill="#E5D4B5" d="M120.9 250.2h4.7l8-13h-7.2zm44 0h4.6l8.1-13h-7.2z"/><path fill="#F7E8C8" d="M367.4 112h-68.6c-5 0-9.3 3.7-9.9 8.6l-8 68.4c-.6 5.8 4 11 10 11h65.6c5.9 0 10.7-3.9 11-8.7l.1-1.1 9.7-66c1-6.2-3.6-12-9.9-12.3"/><path fill="#FFF4DD" d="M348.6 112h-68.1c-6.1 0-11 4-11 9.1l-10.3 69.6c0 5.1 5 9.2 11 9.2h67.4c6 0 11-4 11-9.2l9.8-66.5c.9-6.1-3.6-11.9-9.8-12.3"/><path fill="#FFF" d="M344.6 137.9c-5.5 2.5-6.6 0-25 .7-11 .5-17-1.3-20.1-2.9-1.3-.6-2.8.2-2.8 1.6 0 2.8 0 7.5-.6 14.2-2.3 27-11.7 27.2-6.6 29.6 5.2 2.5 64 7.3 57 1.4-7-5.8 1-27.6 3-36.1 1.7-7.1-.3-10.7-5-8.5"/><path fill="#E5D4B5" d="M313 144.3c-19.1 1.7-38.3.5-45.8-.2a3 3 0 00-3.4 2.8 155 155 0 01-6.8 34c-.5 1.6.7 3.4 2.5 3.7a211 211 0 0047 2.8c1.7 0 3-1.3 3-2.9a140 140 0 017-36.4c.5-2-1.3-4-3.5-3.8"/><path fill="#FFF" d="M343.4 186.2c-39.7-5.5-96.9 0-96.9 0-3 .7-3.9 1.6-4.8 3.5v27.6s2.4 3.5 3.8 3.5h97.9c2.6 0 4.8-1.6 4.8-3.5v-27.6c0-1.3-2.2-2.8-4.8-3.5"/><path fill="#FFF4DD" d="M241.7 196.9v20c0 2.1 1.6 3.9 3.7 4h98c2.6 0 4.8-1.7 4.8-3.6V190h-99.6c-3.8 0-7 3-7 6.9"/><path fill="#E5D4B5" d="M325.8 237.1l8.1 13.1h4.7l-5.6-13zm37.2 0l8.1 13.1h4.7l-5.6-13zm9.3-74.7h-36.6a9.6 9.6 0 00-9.7 9.6v61c0 2.3 2.2 4.1 4.8 4.1h46.3c2.7 0 4.8-1.8 4.8-4V172c0-5.3-4.3-9.6-9.6-9.6"/><path fill="#FFF" d="M338.5 162.4h-2.7a9.7 9.7 0 00-9.8 9.7v51.3H135.4v-50.6c0-5.7-4.7-10.4-10.4-10.4h-1.4c-5.7 0-10.4 4.7-10.4 10.4V233c0 2.2 2.2 4 4.8 4h223.3c3.8 0 6.9-3 6.9-6.8V172c0-5.3-4.4-9.7-9.7-9.7"/><path fill="#FFF4DD" d="M376 69h1.5V40.6H376zM362 250.1h2.2V36.6H362z"/><path fill="#FFF4DD" d="M352.3 8.6l-18.1 33.9h57.6L373.7 8.6zm24.5 57.8a2.6 2.6 0 00-2.6 2.5c0 1.4 1.2 2.6 2.6 2.6 1.4 0 2.6-1.2 2.6-2.6 0-1.4-1.2-2.5-2.6-2.5"/><path fill="#ECECEC" d="M182.3 113l10.3-82.9h122.8l-10.2 83z"/><path fill="#FFF" d="M301.8 109.3H186.6l9.3-75.4h115.2z"/><path fill="#FFF4DD" d="M290.6 36.7c5.2 0 8.7 4.1 8 9.2a11 11 0 01-10.6 9.2 7.9 7.9 0 01-8-9.2 11 11 0 0110.6-9.2"/><path fill="#FFAF12" d="M252.2 45.8h9.2l1.3-9.1c5.2 0 8.8 4.1 8.1 9.2a11 11 0 01-10.6 9.2 7.9 7.9 0 01-8-9.2"/><path fill="#ECECEC" d="M239.8 38.1l-.1.6h-24.8l.1-.6zm-.5 3v.6h-24.8V41zm-.4 3v.6H214V44zm-.4 3v.5h-24.8v-.5zm-.4 3l-.1.5h-24.8l.1-.6zm-.4 3l-.1.5h-24.8l.1-.6zm58.8 9.2v.6h-24.8v-.6zm-.3 2.4v.6h-24.8v-.6zm-.3 2.3l-.1.6H271l.1-.6zm-.4 2.4v.6h-24.8v-.6zm-.3 2.4v.6h-24.9l.1-.6zm-44.4-9.5l-.1.6H239v-.6zm-.4 2.4v.6h-11.6v-.6zm-.3 2.3v.6h-11.7l.1-.6z"/><path fill="#FFF4DD" d="M212 69.9l9.8-6.7 10.8 11h12.2l10.7 13h-52.6l4.2-29.8z"/><path fill="#ECECEC" d="M211 77.2l4-3.8 11.5 6.3h12.7l16.3 7.5h-52.6l2.4-17.2zm84.2 5l-3.5 24.6h-.6l3.5-24.7zm-11.3 0l-3.4 24.6h-.6l3.4-24.7zm-11.2 0l-3.5 24.6h-.6L272 82zm-11.3 0l-3.5 24.6h-.6l3.5-24.7z"/><path fill="#ECECEC" d="M296 83.2l-.1.6h-36.2v-.6zm-1 7.3l-.1.6h-36.3l.1-.6zm-1 7.3l-.2.6h-36.2v-.6zm-1.1 7.4l-.1.6h-36.3l.1-.6z"/><path fill="#E5D4B5" d="M238.8 98.1c.1-1 1.2-2 2.3-2s1.9 1 1.7 2c-.1 1.1-1.2 2-2.3 2-1.1 0-1.9-.9-1.7-2m-3 0c-.4 2.8 1.5 5 4.3 5a6 6 0 005.7-5c.4-2.7-1.5-5-4.3-5s-5.3 2.3-5.7 5"/><path fill="#FFF4DD" d="M224.6 98.1c.1-1 1.1-2 2.3-2 1 0 1.9 1 1.7 2-.2 1.1-1.2 2-2.3 2-1.1 0-1.9-.9-1.7-2m-3 0c-.4 2.8 1.5 5 4.3 5s5.3-2.2 5.7-5c.4-2.7-1.6-5-4.3-5a6 6 0 00-5.7 5"/><path fill="#FFAF12" d="M210.3 98.1c.2-1 1.2-2 2.3-2 1.1 0 2 1 1.8 2-.2 1.1-1.2 2-2.3 2-1.1 0-2-.9-1.8-2m-3 0c-.4 2.8 1.6 5 4.4 5a6 6 0 005.7-5c.4-2.7-1.6-5-4.3-5a6 6 0 00-5.8 5"/><g transform="translate(262 83)"><mask id="b" fill="#fff"><use xlink:href="#a"/></mask><use mask="url(#b)" xlink:href="#a"/></g><path fill="#D3DDF8" d="M269.2 96.8c2 2.1 4 4.3 11.5 4.3 10.3 0 10.9 4.4 10.9 4.6l-.6.1s-.6-4.1-10.3-4.1c-7.7 0-9.9-2.3-12-4.5-1.7-2-3.4-3.7-8.9-3.7v-.6c5.8 0 7.5 1.9 9.4 3.9"/><path fill="#A29C8F" d="M110.2 184.2h23.2a5 5 0 014.8 4.2l7.8 60.4h-2l-7.7-60.1a3 3 0 00-2.9-2.6h-23.2a3 3 0 00-2.8 2.6l-7.8 60h-2l7.9-60.3a5 5 0 014.7-4.3"/><path fill="#57575E" d="M107.4 184.2h21.7c2.3 0 7.4 1.8 7.7 4.2l7.3 60.4h-2.9l-7.7-60.1c-.2-1.4-3.6-2.6-5-2.6H108c-1.3 0-1.4 1.4-1.6 2.8L99 248.8h-4l7.8-60.4a5 5 0 014.7-4.3"/><path fill="#57575E" d="M61.6 184h26.5c2.3 0 5.3 2 5.7 4.4l7.2 60.4h-2.8l-7.8-60.1c-.2-1.4-1.5-2.6-2.8-2.6H62.2c-1.4 0-.7.9-1 2.3l-11.1 60.4h-3.6l10.3-60.4c.4-2.4 2.5-4.4 4.8-4.4"/><path fill="#A29C8F" d="M64.4 184h26c2.3 0 4.4 2 4.7 4.4l7.8 60.4h-2l-7.7-60.1c-.2-1.4-1.5-2.6-2.8-2.6h-26c-1.4 0-2.8 1.2-3 2.6l-10.2 60h-2l10.3-60.4c.4-2.4 2.6-4.3 4.9-4.3"/><path fill="#57575E" d="M60 182h-2.5a165 165 0 01-6-29l-.3-2.8-.2-1 2-.3c1.8 11.3 6.7 32.6 7 33"/><path fill="#A29C8F" d="M61.5 182h-2c-1.8-3.6-4.8-18-6.2-29.3l-.4-2.8 2-.3c1.2 15 6.2 31.7 6.6 32.3"/><path fill="#001A6C" d="M94.5 152.4l4.2 22.7c.7 3.7 1.4 5.7 1.9 6.8h-2c-1.6-4-4.5-18.3-6-29.2l-.5-3.5 2-.3.4 3.5"/><path fill="#2647C8" d="M102.4 182h-2a158.5 158.5 0 01-6.4-32.1l2-.3c2 21.5 6 31.5 6.4 32.3"/><path fill="#7F786A" d="M43.7 109.4h38.9c3.7 0 7.1 2.8 7.6 6.2l5.1 35s-12.5 2.3-28.3 2.3-21.8-2.3-21.8-2.3l-7.2-35c-.5-3.4 2-6.2 5.7-6.2"/><path fill="#A29C8F" d="M47 109.4H86c3.7 0 7.1 2.8 7.7 6.2l7.1 35s-14.6 2.3-30.4 2.3c-15.8 0-21.8-2.3-21.8-2.3l-7.2-35c-.5-3.4 2-6.2 5.7-6.2"/><path fill="#57575E" d="M102.1 181.3v.4c0 2.4-1.4 4.4-3.1 4.4H58.3c-1.7 0-3.1-2-3.1-4.4v-.4h47z"/><path fill="#A29C8F" d="M142 181.3v.4c0 2.4-1.7 4.4-3.7 4.4H90.6c-2 0-3.6-2-3.6-4.4v-.4h55z"/><path fill="#FFE2B7" d="M97.4 106.4c5 4.5 28.8 12.9 33.5 14.8 5.8 2.4 11-3.2 8-8-2.5-4.1-30.8-18.6-34.5-19.5-6.6-1.7-13.4 7-7 12.7"/><path fill="#FFAF12" d="M117.6 118.6c-8-3.5-20.8-12-23.4-14.3-6.3-5.7.4-14.5 7-12.8 2.1.6 14.8 6.1 24.4 12 1.3 3-2 12.5-8 15.1"/><path fill="#FFAF12" d="M81.9 78.6s1.9 10.7-3 10.8c-4.7.1-13.7 1.3-16.7 5.5-3 4.3-6.7 41.3-2.7 68.2 0 0 32.4 10 48.2-6.3 0 0 5-53.5.2-60.7-4-6.1-13.8-5.6-13.8-5.6s-2.8-2.3-1.8-7.4c2.3-12.5-10.4-4.5-10.4-4.5"/><g transform="translate(81 75.1)"><mask id="d" fill="#fff"><use xlink:href="#c"/></mask><use mask="url(#d)" xlink:href="#c"/></g><g><path fill="#E38601" d="M62.2 95c.6-1 1.5-1.7 2.5-2.3l9 36.6 34 27.5c-15.8 16.2-48.2 6.3-48.2 6.3-4-27-.4-64 2.7-68.2"/><path fill="#FBBCBE" d="M75.1 89.7c3.8 6.6 10.5 10.3 16.4 8.5 3.3-1.1 5.8-3.8 7.2-7.4-2.6-.4-4.6-.3-4.6-.3s-2.8-2.3-1.8-7.4c2.3-12.5-10.4-4.5-10.4-4.5s1.9 10.7-3 10.8a42 42 0 00-3.8.3"/><path fill="#FFE2B7" d="M75.1 89.7c3.8 6.6 10.5 10.3 16.4 8.5 3.3-1.1 5.8-3.8 7.2-7.4-2.6-.4-4.6-.3-4.6-.3s-2.8-2.3-1.8-7.4c2.3-12.5-10.4-4.5-10.4-4.5s1.9 10.7-3 10.8a42 42 0 00-3.8.3"/><path fill="#FFC581" d="M79 89.4c4.8-.1 2.9-10.8 2.9-10.8l1.6-.9.1 5c.2 6.8 6 12.2 12.8 12-1.3 1.6-3 2.8-5 3.5-5.8 1.8-12.5-1.9-16.3-8.5l3.9-.3"/><path fill="#57575E" d="M97 70.3v-.4l3.9-.1v.4z"/><path fill="#FFE2B7" d="M98.5 62.4l.3 15c.1 4.3-3.6 8-8.3 8.1-4.7.1-8.6-3.4-8.7-7.8v-.3s-4.9-.3-5-5.2c-.1-4.8 3.2-3 3.2-3l-.2-6.4 18.7-.4z"/><path fill="#FFC581" d="M80 69.3l-.2-6.5 6.6-.1v.1l.4 17c.1 2.9 3 5.2 5.8 5 1 0 1.8-.3 2.5-.7a8.8 8.8 0 01-4.6 1.4c-4.7.1-8.6-3.4-8.7-7.8v-.3s-4.9-.3-5-5.2c-.1-4.8 3.2-3 3.2-3"/><path fill="#57575E" d="M80.1 69.4s1.5 4.4 2.4-1c.8-5.3 2.4-5 8.5-4.8 6 .2 14.4-2.2 11-9.4-3.4-7.2-16.1-1.5-16.1-1.5S76.4 50 75 57.4c-1.4 7.4 5.1 12 5.1 12"/><path fill="#FFE2B7" d="M61.9 96.4c-4 5.4-10.2 30.2-11.7 35-1.8 6 3 10.6 7.6 7.2 3.9-2.8 18.2-33.5 18.8-37.3 1-6.7-9.6-11.7-14.7-5"/><path fill="#FFAF12" d="M52 117.7c3-9.3 7.3-18.7 9.7-21.8 5.5-7.4 16.8-1.3 15.7 6-.3 1.9-4.1 11.2-8.2 20-7.8.7-16.1-3-17.1-4.2"/><path fill="#FFC581" d="M181.3 192.8l3-5.6c6 4.2 11.8 6 12.8-4.1.4-4.7 6.2-5.3 6.2-5.3L201 202s-1.2 2.3-6.6-1.7c-5.9-4.4-13.1-7.5-13.1-7.5"/><path fill="#57575E" d="M196.5 192.9c-1.2-1.7-4.1-.2-4-2.4 2.3-.2 4-2.3 4.6-7.4.4-4.7 6.2-5.3 6.2-5.3L201 202s-1.1 2.2-6.1-1.4c.2-2.5 3.6-5.2 1.6-7.7"/><path fill="#A29C8F" d="M59.2 160c-2 12.5 9.8 22.9 25.8 21.1 16-1.7 41.1-13.7 52.6-16.1 0 0 14.7-18.4 5-22.4-24.2-10.1-83.4 17.4-83.4 17.4"/><path fill="#A29C8F" d="M144.4 143.7s37.3 40.6 44.7 44.8c0 0-2.9 7.6-7.8 13.4 0 0-43.7-33-48.2-37.1-9.4-8.6 11.3-21 11.3-21"/><path fill="#A29C8F" d="M85 181.1s35.4 4.7 47 4c5.5-.4 25.2-5.8 20.2-18.7-5-12.9-40-4-67.2 14.7"/><path fill="#7F786A" d="M149.3 163c-21.6-4.4-32.9 6.2-31 12.8 2.7 10.1 18 7.7 18.8 8.3-2 .6-4 .9-5.1 1-11.6.7-47-4-47-4 24.3-16.7 54.2-25.7 64.3-18.1"/><path fill="#FFC581" d="M173.2 242.7c-7.8-1-10-10.8-11.3-15.6l-7.4 2.8s4.4 8.2 4 13.8c-.3 5.6 1.3 5 1.3 5h23.4s-2.1-5-10-6"/><path fill="#57575E" d="M173.2 242.7a9.9 9.9 0 01-6-3.3c-.8-1.1-4.6.1-5.3 2.2 0 0-1.5 1.1-3.4 1v1c-.3 5.7 1.3 5.2 1.3 5.2h23.4s-2.1-5.1-10-6.1"/><path fill="#A29C8F" d="M152.9 168.7s9.3 48.3 12.8 62.9c0 0-7.5 3.8-12.8 3 0 0-25.1-50.9-16.3-58.6 5-4.4 16.3-7.3 16.3-7.3"/><path fill="#FFE2B7" d="M53.5 129.5c8.5-1.4 35.1 2.3 39.7-.3 4.6-2.5 13.3-4 16.4-1.4 3.2 2.6 1 5-2.4 7-2.2 1.2-4.8 2.3-10.6 1.6-5.9-.7-30.6 4.5-39.2 4.7-8.6.2-9.6-10.7-3.9-11.6m76-17.7c7.3-4.4 30.7-10 34-14.1 3.2-4.1 8-7.7 12-6.5 4 1.2 5.6 5.2.4 7.4-2.3 1-3.5 3.9-9.2 5.5-5.7 1.5-21.3 13.6-29.2 17-7.8 3.4-13-6.2-8-9.3"/><path fill="#57575E" d="M88.2 68H88c-1.6 0-3.5.4-3.4 2.3 0 1.6 1.1 4 3.4 4h.1c1.3 0 2.1-.7 2.5-1.4a5 5 0 00.9-2.8c0-1.8-1.8-2.1-3.3-2.1m-.2 6.8c-2.5 0-3.8-2.7-3.8-4.5 0-1.7 1.3-2.7 3.8-2.8 2.4 0 3.8.9 3.9 2.6 0 1-.3 2.2-1 3-.4.8-1.3 1.6-2.8 1.7m9.3-7h-.2c-1.6 0-3.5.4-3.4 2.3 0 1.6 1.2 4.1 3.5 4 2.4 0 3.4-2.5 3.4-4.2 0-1.8-1.8-2.2-3.3-2.2m-.1 6.9c-2.6 0-3.9-2.7-4-4.5 0-1.7 1.4-2.7 3.9-2.8 2.5 0 3.9.9 3.9 2.6 0 1.8-1.1 4.6-3.8 4.7"/><path fill="#57575E" d="M91.6 70v-.5h2v.4zm-11 .6v-.4h4v.3zm-53 178.2h5v-99h-5zm213.7 0h-4.5v-99.1h4.5zm-219.8-99h60.9v-2.6h-61zm60.9 0h252v-2.6h-252zm7.8 99h5.6v-99h-5.6zm234.3 0h-5v-99.1h5zM8.1 147.2h61v-4.5H8z"/><path fill="#A29C8F" d="M68.7 147.2h279v-4.5h-279z"/><path fill="#57575E" d="M122.8 142.4c0 .2-.1.3-.3.3H69.6a.6.6 0 01-.6-.6v-1.5h53.8v1.8zM76 140v.6H74v-.8h1.7l.2.2m2.2 0v.6h-1.9v-.8H78l.2.2m2.2 0v.6h-1.9v-.8h1.7l.2.2m9.1 0v.6h-1.9v-.8h1.7l.2.2m2.2 0v.6h-1.9v-.8h1.7l.2.2m5.7 0v.6h-1.8v-.8H97c.2 0 .2.1.2.2"/><path fill="#151618" d="M99.5 140v.6h-1.9v-.8h1.7l.2.2"/><path fill="#57575E" d="M87.2 140v.6h-6.5v-.8H87l.2.2"/><path fill="#151618" d="M106.7 140v.6h-6.5v-.8h6.2c.2 0 .3.1.3.2"/><path fill="#57575E" d="M126.2 101.3c.5-1.7 1.7-2.7 3.6-2.7l-12 43.9s-2.3-.7-1.7-3c.4-1.8 7.6-29.3 10.1-38.2"/><path fill="#7F786A" d="M130 98.6h56.4c.8 0 1.4.8 1.2 1.5l-10.4 40.5H118l10.4-40.7c.2-.7.9-1.3 1.7-1.3"/><path fill="#ECECEC" d="M162.7 137.5H178l1-4.3h-16c-.4 0-1 .3-1 .8l-.6 2c-.2.8.4 1.5 1.2 1.5"/></g><g><path fill="#57575E" d="M177 142.4c0 .2-.1.3-.3.3h-58.2a.6.6 0 01-.6-.6v-1.5H177v1.8z"/><path fill="#FFC581" d="M184.7 137.5c4.9 0 7 4.4 11 2.7 4-1.8 5.8-1.7 5.6-5-.2-3.3-2.9-3-8.4-3-5.3 0-15.3 5.3-8.2 5.3m51.6 104c9.8 0 3.2-11.6 1-17.8l9.3-2.2c2.6 6.2.6 12.4 5.6 20.5 3.6 5.8-.6 6.8-.6 6.8h-23.5s0-7.2 8.2-7.2"/><path fill="#57575E" d="M236.3 241.6c2.8 0 4.2-1 4.9-2.5 1.8-.3 1.7.8 3 1.7 3.7 2.7 7.5.3 8 1.2 3.6 5.8-.6 6.8-.6 6.8h-23.5s0-7.2 8.2-7.2"/><path fill="#FFC581" d="M190 240.7c8-2.4 13.4-14.4 16.2-20.7l9.2 3.7c-2.1 3-7.3 7.9-8.3 18.3-.7 7.5-2.8 6.8-2.8 6.8h-25.5s3.3-5.6 11.2-8"/><path fill="#57575E" d="M190 240.7c2.4-.7 4.6-2.3 6.5-4.4.6-.6 1.2 2.1 1.9 3 1.3 1.8 7.1 2.5 8.9 1.3l-.2 1.4c-.7 7.5-2.8 6.8-2.8 6.8h-25.5s3.3-5.6 11.2-8"/><path fill="#A29C8F" d="M269 177.3h3.3l-11 71.5h-3.4zm-38.6 0h3.3l-11 71.5h-3.3z"/><path fill="#7F786A" d="M227.4 165.3s-21 53.3-23.8 59c0 0 4 4.6 9.6 4.8 0 0 30.7-48.7 33.6-54.1 2.9-5.5-19.4-9.7-19.4-9.7"/><path fill="#A29C8F" d="M219.4 173s17.3 49.9 19.2 56c0 0 6.2.6 10.3-3 0 0-6.3-43.9-8-49.8-1.8-5.9-21.5-3.2-21.5-3.2"/><path fill="#FFE2B7" d="M258.7 82.9s3.3.4 3.8 2.8c.4 2.4-1 4.7-1 4.7s7 1.8 13.3-.6c0 0-3.2-6.2-3.3-12.8 0-6.6-12.8 5.9-12.8 5.9"/><path fill="#FFC581" d="M265.8 87.3c0-3.1-2.6-5.4-5.5-5.8 3.4-3.1 11.2-9.6 11.2-4.5 0 6.6 3.3 12.8 3.3 12.8-3.1 1.2-6.4 1.4-9 1.2v-3.7"/><path fill="#FFE2B7" d="M251 63.3s-.8 4.3-.4 8c.3 3.5-1 8.2 2.5 12.3 3.4 4 11.4-.5 13.3-5.4 1.8-4.9.2-8.7-2.4-11-2.5-2.2-13-4-13-4"/><path fill="#FFC581" d="M256.6 78.7c0-1.8-2.1-14.8-2.1-14.8 3.3.7 8 2 9.5 3.3 2.6 2.3 4.2 6.1 2.4 11-1.8 4.7-9 9-12.7 6 1.8-1.2 3-3.3 3-5.5"/><path fill="#57575E" d="M254.8 66.2s1.4 1.4 2 4.5c.6 3 1.2 4.8 2.3 2.7 1-2 1.3-5.4 4-3.4 1.9 1.3 1.8 4 1.3 5.4-.6 1.4 1.3 4.5 5 3.3 3.7-1.2 6.2-11.2 6.2-11.2s-17.1-5.2-20.8-1.3"/><path fill="#57575E" d="M253.1 53.7s-5 1.2-5.5 5.4c-.4 3.8 1.6 7.4 8.4 7.1 6.7-.3 7.1 3.8 10.7 5 3.5 1 7.1 0 8.8-3.4 1.8-3.6 1.2-8-3.1-11.5-4.4-3.6-18.8-8.7-19.3-2.6"/><path fill="#A29C8F" d="M300.2 146c0 8.3 9 28.5-8.7 28.3-17.6-.2-71.6 0-71.6 0s-3.7-7.2 1.3-11.6c5-4.5 35.3-11.1 39-15.7 3.7-4.6 40-1 40-1"/><path fill="#7F786A" d="M269.4 170.8c31.6 0 22.6-24.4 23-25.5l7.8.6c0 8.4 9 28.6-8.7 28.4H231c1.9-.5 34.2-3.5 38.5-3.5"/><path fill="#FFAF12" d="M259.8 90c-3.5.1-9.3 4.8-9.3 11.8 0 9.3 1.7 22.4 6 29 4.2 6.6-3.9 14.5 3.3 17.3 7.1 2.8 40.1 3.2 41.4-1.5 1.3-4.8-5.7-37.3-7.6-43.7-2-6.4-5.5-11-8.1-12.2a140 140 0 00-25.7-.7"/><path fill="#E38601" d="M296.4 138.3c.2-4 .6-8.4-.3-12.3-6.3-27.3-13.2-30.2-16-32.6-3.3-2.8-7.3-1-11.7-1-5.9-.3-8.1-2.4-8.2-2.5 6.8-.2 22.7-.3 25.3.8 2.6 1.2 6.1 5.8 8 12.2 2 6.4 9 38.9 7.7 43.7-.5 2-7.2 3.2-15.1 3.5 5.6-1.4 10-5.2 10.3-11.8"/><path fill="#FFF" d="M259.8 90c2.1-1.1 4-.3 6-2.2 3.4-3.4 8.5-3.1 8.5-3.1l5.4 5.3s-12.5 5-20 0"/><path fill="#FFAF12" d="M260.8 91c-2.9-2.5-10 1-15 7.2-5 6.3-15.3 30-17.9 35.3-2.4 5 5 13.8 13 5.7s14.2-20.5 17-29.4c3-8.8 6-16 2.9-18.7"/><path fill="#E5D4B5" d="M265 141.4h49.4c1.2 0 2.2-.8 2.5-2l3.5-13.7c.4-1.6-.8-3.2-2.4-3.2h-49.4c-1.2 0-2.2.8-2.4 2l-3.5 13.8c-.4 1.6.7 3.1 2.3 3.1"/><path fill="#A29C8F" d="M266.4 141.4h48.1c1.1 0 2.1-.7 2.4-1.8L320 127c.4-1.5-.8-3-2.3-3h-48.1c-1.1 0-2 .8-2.3 1.8l-3.2 12.8c-.4 1.5.8 3 2.3 3"/><path fill="#57575E" d="M217.5 178.1h37.7v-3.8h-37.7z"/><path fill="#7F786A" d="M262.9 177.3h-3.3l11 71.5h3.3zm38.5 0h-3.2l11 71.5h3.3z"/><path fill="#A29C8F" d="M255.2 178.1h50.1v-3.8h-50.1z"/><path fill="#ECECEC" d="M260.5 176.9c.6 0 1.2-.4 1.3-1l11.8-45.2c.1-.8-.3-1.5-1-1.7-.7-.2-1.5.3-1.7 1l-11.7 45.2a1.3 1.3 0 001.3 1.7"/><path fill="#7F786A" d="M261.9 176.9c.6 0 1.1-.4 1.3-1l11.7-45.2c.2-.8-.2-1.5-1-1.7-.7-.2-1.4.3-1.6 1l-11.7 45.2a1.3 1.3 0 001.3 1.7"/><path fill="#ECECEC" d="M298.8 176.9c.6 0 1.1-.4 1.3-1l11.7-45.2c.2-.8-.2-1.5-1-1.7-.7-.2-1.4.3-1.6 1l-11.7 45.2a1.3 1.3 0 001.3 1.7"/><path fill="#7F786A" d="M300.1 176.9c.6 0 1.2-.4 1.3-1l11.8-45.2c.2-.8-.3-1.5-1-1.7-.7-.2-1.5.3-1.6 1l-11.8 45.2a1.3 1.3 0 001.3 1.7"/><path fill="#FFAF12" d="M234.7 142.5c-8.2 1-21.4 0-38-.5 0 0-1.9-6.3.7-10.6 0 0 31.5-1.7 35-1.6 3.3.1 10.9 11.6 2.3 12.7"/><path fill="#306B34" d="M375.7 150.4s-18 6-15.6 26.6c2.4 20.6-1.1 45.7-1.1 45.7h10.3s18.3-24.4 4.8-42.8c-13.5-18.3 1.6-29.5 1.6-29.5"/><path fill="#A4B751" d="M374.3 151.7c-3.3 2.7-12.9 12.5-2.6 28.6 12.3 19.2-7.7 42.3-7.7 42.3l-5-.3v.4h10.3s18.3-24.4 4.8-42.8c-10.8-14.7-3.3-24.8.2-28.2"/><path fill="#4900BC" d="M375 151l.7-.6s-1.6.6-3.8 1.9a23 23 0 013-1.2"/><path fill="#619440" d="M356 200c.9-18.3.1-20.6-7-26.6-7.2-6-17.4-16-17.4-16 7 13.5 6.8 19.6 8.1 29.6 1 7.7 12.7 23 18 29.6a38.2 38.2 0 01-1.8-16.7"/></g><g transform="translate(357 216.5)"><mask id="g" fill="#fff"><use xlink:href="#e"/></mask><path fill="url(#f)" d="M3 3.1L.7.1c1.2 2.7 2.5 3 2.5 3" mask="url(#g)"/></g><g><path fill="#306B34" d="M352.4 191.4a32.1 32.1 0 004 25.4h7.6a32.8 32.8 0 013.3-16l-3.6-1.5c-13.9-5.3-7.7-23-11.3-7.9"/><path fill="#619440" d="M372 195.3c-7.7 3.8-5.5 20.1-5.5 20.1l7.2 2.6s-1.3-7.5 3.5-13.3c5-5.8 8.1-3.6 8.1-3.6s-5.8-9.7-13.4-5.8m-36.6-7.8c-12.8 0-20 7.7-20 7.7s5-2.5 14-2.2c8.9.3 8.2 7.8 15.4 14.8 7.2 7 13.1 8 13.1 8s-9.5-13.6-16.4-22.8c-1.2-1.6 0-5.5-6-5.5"/><path fill="#FAF9FC" d="M312.9 197.8l-.1.2v-.2"/><path fill="#A4B751" d="M345.7 195.7c-2.4-3.2.1-11-15.2-9.2-14 1.7-17.2 9.9-17.6 11.3.3-1 2.5-4.6 16-7.6 15.4-3.5 7.2 4.4 14.2 9.4 7 5 12.7 14.4 12.7 14.4s4 6.5 3 1c-.9-5.4-10.7-16.1-13-19.3m47.3 6.8c-7-14-15.5-13.1-21-10-8 4.3-6.8 22.6-6.8 22.6l1.2.3s.2-3.5.8-9.6c.6-6 3.6-14.7 13.3-2.7 9.8 12 23.6 14.1 23.6 14.1s-4.1-.6-11.1-14.7"/><path fill="#A4B751" d="M374.6 185a6 6 0 00-6.2-.6c-2.1.9-4.6.6-6.6-.6-7.3-4.4-7.9 1.6-7.9 1.6l.2 1.7a15 15 0 009.6 12.2l12.9 5.4c-1.6-6.3 2.5-16.4-2-19.7"/><path fill="#57575E" d="M355.3 251.6h12.2c4.5 0 8.2-3.6 8.2-8v-29.7H347v29.6c0 4.5 3.6 8.1 8.2 8.1"/><path fill="#7F786A" d="M344.3 218h34.2v-4.1h-34.2z"/></g></g></svg>