<svg xmlns="http://www.w3.org/2000/svg" xmlns:xlink="http://www.w3.org/1999/xlink" width="316" height="296" viewBox="0 0 316 296">
    <defs>
        <path id="prefix__a" d="M0 295.24L315.341 295.24 315.341 0 0 0z"/>
    </defs>
    <g fill="none" fill-rule="evenodd">
        <path fill="#F7E8C8" d="M0 289.192c0-3.34 67.806-6.048 151.448-6.048 83.642 0 151.448 2.708 151.448 6.048 0 3.341-67.806 6.048-151.448 6.048C67.806 295.24 0 292.533 0 289.192"/>
        <path fill="#619440" d="M198.997 164.086s52.824-17.343 25.502-35.995c0 0 36.75-46.027 3.935-35.587 0 0-5.01-62.232-37.405-5.928 0 0-19.246-11.532-4.372 27.112 0 0-38.296-6.014 12.34 50.398"/>
        <path fill="#A4B751" d="M179.59 221.744l-.8-.651c.09-.113 9.217-11.692 18.541-52.188 9.353-40.624 8.411-76.241 8.401-76.596l1.031-.031c.011.357.956 36.107-8.427 76.86-4.904 21.299-9.725 34.445-12.906 41.722-3.465 7.929-5.746 10.767-5.84 10.884"/>
        <path fill="#A4B751" d="M204.159 133.161L203.434 132.426 216.638 119.407 217.363 120.141zM205.118 112.986L195.621 100.012 196.453 99.403 205.951 112.377zM203.404 204.149s40.315 7.869 22.414-15.34c0 0 36.788-8.612 19.947-17.096 0 0 16.734-45.534-21.772-6.223 0 0-9.1-11.735-12.269 10.083 0 0-23.88-20.115-8.599 28.849"/>
        <path fill="#619440" d="M185.493 225.522l-.762-.695c13.95-15.286 40.661-48.483 40.93-48.817l.803.647c-.268.334-27 33.555-40.97 48.865"/>
        <path fill="#F7E8C8" d="M7.862 100.118c-2.624 0-4.751 2.127-4.751 4.75v43.705H38.83v-48.455H7.862z"/>
        <path fill="#FFF4DD" d="M21.525 129.355H17.86c-1.6 0-2.896-1.297-2.896-2.896v-26.34h9.456v26.34c0 1.6-1.297 2.896-2.896 2.896"/>
        <path fill="#F7E8C8" d="M29.193 72.248c-2.624 0-4.751 2.127-4.751 4.75v43.704h11.855V72.248h-7.104z"/>
        <path fill="#FFF4DD" d="M141.926 191.063v48.588l-7.725-7.069-7.725 7.07-7.725-7.07-7.724 7.07-7.726-7.07-7.724 7.07-7.724-7.07-7.726 7.07-7.725-7.07-7.726 7.07-7.727-7.07-7.726 7.07-7.728-7.07-7.727 7.07.177-162.653c0-2.624-2.127-4.75-4.751-4.75h107.98c2.625 0 4.752 2.126 4.752 4.75v114.064"/>
        <mask id="prefix__b" fill="#fff">
            <use xlink:href="#prefix__a"/>
        </mask>
        <path fill="#FFBF4D" d="M43.287 124.187L77.832 124.187 77.832 120.363 43.287 120.363zM43.287 142.84L89.004 142.84 89.004 139.016 43.287 139.016zM43.287 159.861L85.385 159.861 85.385 156.037 43.287 156.037zM43.287 176.881L89.004 176.881 89.004 173.057 43.287 173.057zM106.812 124.187L130.438 124.187 130.438 120.363 106.812 120.363zM106.812 142.84L130.438 142.84 130.438 139.016 106.812 139.016zM106.812 159.861L130.438 159.861 130.438 156.037 106.812 156.037zM106.812 176.881L130.438 176.881 130.438 173.057 106.812 173.057z" mask="url(#prefix__b)"/>
        <path fill="#FFA331" d="M106.812 210.353L130.438 210.353 130.438 206.528 106.812 206.528z" mask="url(#prefix__b)"/>
        <path fill="#FFBF4D" d="M43.287 210.353L83.522 210.353 83.522 206.528 43.287 206.528zM139.625 191.923h-1.423c-.475 0-.86-.386-.86-.86 0-.475.385-.86.86-.86h1.423c.475 0 .86.385.86.86 0 .474-.386.86-.86.86M43.335 191.923H40.46c-.475 0-.86-.386-.86-.86 0-.475.385-.86.86-.86h2.875c.475 0 .86.385.86.86 0 .474-.385.86-.86.86m5.75 0H46.21c-.476 0-.86-.386-.86-.86 0-.475.384-.86.86-.86h2.875c.474 0 .859.385.859.86 0 .474-.385.86-.86.86m5.75 0h-2.875c-.475 0-.86-.386-.86-.86 0-.475.385-.86.86-.86h2.875c.475 0 .86.385.86.86 0 .474-.385.86-.86.86m5.75 0h-2.875c-.475 0-.86-.386-.86-.86 0-.475.385-.86.86-.86h2.875c.475 0 .859.385.859.86 0 .474-.384.86-.86.86m5.75 0h-2.875c-.475 0-.86-.386-.86-.86 0-.475.385-.86.86-.86h2.875c.475 0 .86.385.86.86 0 .474-.385.86-.86.86m5.75 0h-2.875c-.476 0-.86-.386-.86-.86 0-.475.384-.86.86-.86h2.875c.475 0 .859.385.859.86 0 .474-.384.86-.86.86m5.75 0h-2.874c-.476 0-.861-.386-.861-.86 0-.475.385-.86.86-.86h2.875c.475 0 .86.385.86.86 0 .474-.385.86-.86.86m5.75 0h-2.875c-.475 0-.86-.386-.86-.86 0-.475.385-.86.86-.86h2.875c.475 0 .859.385.859.86 0 .474-.384.86-.86.86m5.75 0h-2.874c-.476 0-.861-.386-.861-.86 0-.475.385-.86.86-.86h2.875c.475 0 .86.385.86.86 0 .474-.385.86-.86.86m5.75 0h-2.875c-.475 0-.86-.386-.86-.86 0-.475.385-.86.86-.86h2.875c.475 0 .859.385.859.86 0 .474-.384.86-.86.86m5.75 0h-2.874c-.475 0-.861-.386-.861-.86 0-.475.386-.86.86-.86h2.875c.475 0 .86.385.86.86 0 .474-.385.86-.86.86m5.75 0h-2.875c-.475 0-.86-.386-.86-.86 0-.475.385-.86.86-.86h2.875c.475 0 .859.385.859.86 0 .474-.384.86-.86.86m5.75 0h-2.874c-.475 0-.86-.386-.86-.86 0-.475.385-.86.86-.86h2.874c.475 0 .86.385.86.86 0 .474-.385.86-.86.86m5.75 0h-2.875c-.475 0-.86-.386-.86-.86 0-.475.385-.86.86-.86h2.875c.475 0 .86.385.86.86 0 .474-.385.86-.86.86m5.75 0h-2.875c-.475 0-.86-.386-.86-.86 0-.475.385-.86.86-.86h2.875c.474 0 .86.385.86.86 0 .474-.386.86-.86.86m5.749 0h-2.875c-.475 0-.86-.386-.86-.86 0-.475.385-.86.86-.86h2.875c.475 0 .86.385.86.86 0 .474-.385.86-.86.86m5.75 0h-2.875c-.475 0-.86-.386-.86-.86 0-.475.385-.86.86-.86h2.875c.474 0 .86.385.86.86 0 .474-.386.86-.86.86M37.585 191.923h-1.422c-.475 0-.86-.386-.86-.86 0-.475.385-.86.86-.86h1.422c.475 0 .86.385.86.86 0 .474-.385.86-.86.86" mask="url(#prefix__b)"/>
        <path fill="#FFF4DD" d="M10.274 100.118c2.596.032 4.69 2.145 4.69 4.748v-4.748h-4.69z" mask="url(#prefix__b)"/>
        <path fill="#FFBF4D" d="M57.416 98.27L60.416 98.27 60.416 84.624 57.416 84.624zM65.346 88.388v1.376h.058c.344-.572.79-.99 1.338-1.25.547-.26 1.108-.394 1.681-.394.727 0 1.322.1 1.787.297.465.198.832.472 1.1.823.266.35.454.776.563 1.28.108.504.162 1.06.162 1.673v6.077h-2.713v-5.58c0-.817-.128-1.426-.382-1.825-.256-.403-.707-.603-1.357-.603-.74 0-1.275.22-1.606.66-.33.438-.497 1.162-.497 2.168v5.18h-2.713v-9.882h2.58zM76.546 98.27L73.163 88.388 76.01 88.388 78.094 95.135 78.132 95.135 80.215 88.388 82.909 88.388 79.566 98.27zM86.56 94.495c.076.376.207.714.392 1.014.184.299.43.537.735.715.306.179.688.268 1.147.268.458 0 .844-.09 1.156-.268.313-.178.56-.416.745-.715.185-.3.316-.638.392-1.014.077-.375.115-.761.115-1.156 0-.394-.038-.782-.115-1.165-.076-.383-.207-.721-.392-1.013-.185-.293-.432-.532-.745-.717-.312-.185-.698-.277-1.156-.277-.459 0-.84.092-1.147.277-.306.185-.55.424-.735.717-.185.292-.316.63-.393 1.013-.076.383-.114.77-.114 1.165s.038.78.114 1.156m-2.464-3.305c.241-.644.586-1.192 1.031-1.643.446-.453.981-.804 1.605-1.053.624-.248 1.325-.373 2.103-.373.777 0 1.481.125 2.112.373.63.249 1.168.6 1.614 1.053.446.45.791.999 1.032 1.643.242.643.363 1.36.363 2.149 0 .79-.12 1.504-.363 2.14-.24.639-.586 1.182-1.032 1.635-.446.453-.984.799-1.614 1.04-.63.243-1.335.364-2.112.364-.778 0-1.479-.121-2.103-.363-.624-.242-1.159-.588-1.605-1.041-.445-.453-.79-.996-1.03-1.634-.244-.637-.365-1.35-.365-2.141 0-.79.121-1.506.364-2.15M95.791 98.27h2.713v-9.882h-2.713v9.882zm0-11.41h2.713v-2.235h-2.713v2.235zM105.365 90.167c-.434 0-.796.099-1.09.296-.293.198-.532.453-.716.766-.185.31-.316.655-.392 1.03-.076.377-.115.749-.115 1.119 0 .356.039.72.115 1.089.076.369.2.704.373 1.004.172.3.404.544.697.735.294.19.65.286 1.07.286.65 0 1.15-.181 1.5-.545.35-.361.57-.85.66-1.462h2.619c-.18 1.314-.69 2.314-1.53 3.002-.84.688-1.917 1.032-3.23 1.032-.738 0-1.417-.124-2.035-.373-.618-.25-1.143-.595-1.577-1.042-.432-.446-.77-.978-1.012-1.595-.242-.618-.363-1.296-.363-2.036 0-.764.11-1.475.334-2.131.223-.655.55-1.223.984-1.7.434-.478.962-.851 1.586-1.12.624-.267 1.339-.401 2.14-.401.587 0 1.15.077 1.692.23.542.153 1.026.385 1.453.698.426.312.774.702 1.04 1.166.269.465.422 1.016.46 1.653h-2.657c-.178-1.134-.847-1.701-2.006-1.701M117.586 90.702c-.325-.356-.819-.535-1.48-.535-.435 0-.794.073-1.082.22-.286.146-.515.328-.687.544-.172.217-.293.447-.363.688-.07.242-.112.459-.124.65h4.414c-.127-.688-.353-1.21-.678-1.567M114.52 95.9c.407.394.994.59 1.758.59.548 0 1.018-.136 1.414-.41.395-.273.637-.563.726-.868h2.39c-.384 1.183-.97 2.032-1.759 2.54-.79.51-1.746.765-2.867.765-.777 0-1.478-.124-2.102-.373-.625-.248-1.153-.602-1.586-1.06-.433-.458-.768-1.005-1.004-1.643-.236-.637-.353-1.338-.353-2.103 0-.74.121-1.427.363-2.065.242-.635.586-1.187 1.032-1.651.446-.466.977-.832 1.596-1.1.618-.268 1.303-.402 2.054-.402.842 0 1.574.163 2.198.488.624.325 1.138.762 1.54 1.309.4.549.69 1.174.868 1.873.178.7.241 1.433.192 2.198h-7.129c.038.879.26 1.517.67 1.912" mask="url(#prefix__b)"/>
        <path fill="#FFA331" d="M149.042 35.594c-7.523-.493-14.483 3.98-17.167 11.023-3.29 8.645-7.24 19.7-7.972 24.76 0 0-17.229 16.806-24.247 23.462l3.732 3.231s23.45-15.247 30.596-21.95c7.147-6.704 15.058-40.526 15.058-40.526" mask="url(#prefix__b)"/>
        <path fill="#F6A19E" d="M194.252 281.798L194.596 282.82 192.282 285.236 189.83 284.159 188.925 282.82 188.662 281.764z" mask="url(#prefix__b)"/>
        <path fill="#FFC581" d="M135.211 281.76L135.35 282.82 134.233 284.658 130.951 284.349 129.972 283.747 129.68 282.82 129.689 281.475z" mask="url(#prefix__b)"/>
        <path fill="#47B27C" d="M166.802 106.287c-.827-.123-1.308-2.151-.997-3.781.47-2.455 2.665-3.765 3.036-3.98.33.669.847 1.98.615 3.617-.293 2.073-1.734 4.282-2.654 4.144" mask="url(#prefix__b)"/>
        <path fill="#47B27C" d="M166.705 105.142c.23.804-1.42 2.08-3.034 2.467-2.43.585-4.528-.875-4.876-1.124.472-.576 1.454-1.589 3.04-2.053 2.01-.587 4.615-.186 4.87.71" mask="url(#prefix__b)"/>
        <path fill="#47B27C" d="M165.584 104.153c-.507.665-2.516.107-3.792-.952-1.923-1.597-2.01-4.152-2.018-4.58.744.034 2.143.215 3.464 1.207 1.673 1.258 2.91 3.586 2.346 4.325" mask="url(#prefix__b)"/>
        <path fill="#57575E" d="M169.476 18.194h.518c2.438 0 4.415-1.977 4.415-4.414v-3.426h-4.933v7.84z" mask="url(#prefix__b)"/>
        <path fill="#A29C8F" d="M180.864 95.848s7.6 14.226 14.329 186.104l-8.563-.037-30.895-154.8V95.848h25.129z" mask="url(#prefix__b)"/>
        <path fill="#A29C8F" d="M138.868 86.272s-16.813 13.224-16.734 48.73c.037 15.903 7.555 146.473 7.555 146.473l5.522.285c9.794-49.712 16.88-98.568 24.97-149.128 1.159-.166 7.089-.597 8.117-1.805 2.255-2.65.055-7.269.103-9.302.19-8.132.242-26.727-.286-33.58-6.507.54-23.134-1.076-29.247-1.673" mask="url(#prefix__b)"/>
        <path fill="#7F786A" d="M129.689 281.475s-7.518-130.57-7.554-146.473c-.08-35.506 16.733-48.73 16.733-48.73 1.418.166 2.864.321 4.334.467l3.957 2.522s-11.894 69.577-11.608 111.181c.159 23.118.14 55.181.092 79.112-.144.735-.287 1.471-.433 2.206l-5.522-.285z" mask="url(#prefix__b)"/>
        <path fill="#FFBF4D" d="M136.039 96.45c-2.305-.561-3.897-2.663-3.798-5.034.502-11.975 2.038-25.575 5.43-40.266 1.497-6.48 3.21-12.554 5.044-18.21l21.685-4.797 16.776 6.57c1.219 9.585 2.073 20.42 2.148 32.302.068 10.778-.517 20.693-1.444 29.589-.094.904-.786 1.629-1.683 1.768-5.768.887-12.641 1.49-20.371 1.277-9.205-.254-17.238-1.6-23.787-3.198" mask="url(#prefix__b)"/>
        <path fill="#FFA331" d="M134.101 95.96c-1.172-.308-1.974-1.383-1.934-2.595.412-12.44 1.927-26.72 5.505-42.215 1.495-6.48 2.638-12.657 4.47-18.31 4.635-1.026 9.84-1.95 14.475-2.975 1.514.24 5.756-2.59 6.974-.803 1.602 2.35-1.368 8.95-1.644 9.968-1.563 5.752-5.755 28.35-11.47 59.97-6.214-.688-11.718-1.816-16.376-3.04" mask="url(#prefix__b)"/>
        <path fill="#FFE2B7" d="M171.535 17.56L169.993 30.333 164.21 32.969 159.675 29.189 161.438 15.574z" mask="url(#prefix__b)"/>
        <path fill="#FFC581" d="M161.438 15.574l10.097 1.986-.112.922c-1.059 4.37-5.423 8.422-9.58 7.522-.6-.13-1.156-.357-1.67-.66l1.264-9.77z" mask="url(#prefix__b)"/>
        <path fill="#FFE2B7" d="M162.657 5.625c-.373.216-3.214 1.917-4.226 5.256-1.342 4.435.831 10.812 5.352 11.79 4.326.938 8.876-3.485 9.695-8.05.724-4.046-1.33-9.05-4.989-10.127-2.572-.757-5.06.685-5.832 1.13" mask="url(#prefix__b)"/>
        <path fill="#57575E" d="M158.472 1.47c-1.064 2.042 3.44 6.132 3.885 6.53 3.843 3.437 10.085 5.61 11.903 3.588 1.337-1.486.107-5.039-1.514-7.146-3.941-5.123-13.02-5.378-14.274-2.972" mask="url(#prefix__b)"/>
        <path fill="#FFE2B7" d="M174.715 14.22c.219-1.16-.544-2.28-1.706-2.5-1.161-.22-2.281.544-2.5 1.705-.22 1.161.544 2.281 1.705 2.501 1.162.22 2.28-.544 2.5-1.706" mask="url(#prefix__b)"/>
        <path fill="#FFBF4D" d="M179.726 93.648c-1.364 1.025-2.569 1.902-3.54 2.598l-.466.332c-1.34.95-2.129 1.48-2.129 1.48l-.328-1.875-.655-3.748s6.722-10.29 13.215-18.687l.452-.582c.603-.773 1.202-1.527 1.792-2.25 1.13-1.388 2.225-2.667 3.25-3.777 2.588.438 5.273 1.158 7.998 1.89 1.596.428 3.091.908 4.49 1.417-5.115 7.634-14.26 15.566-21.155 20.96-1.031.807-2.013 1.557-2.924 2.242" mask="url(#prefix__b)"/>
        <path fill="#FFBF4D" d="M191.1 52.83c2.124-2.465 4.283-4.974 6.05-7.628 4.303 3.536 7.967 7.474 9.818 11.579 1.793 3.975.098 8.869-3.306 13.88-4.302.047-9.086-1.063-13.13-2.654 1.42-1.6 2.728-2.918 3.83-3.788 0 0-3.546-2.88-7.749-6.735 1.83-1.697 3.314-3.291 4.487-4.653" mask="url(#prefix__b)"/>
        <path fill="#57575E" d="M135.35 282.82s2.732 2.629 0 5.36h-11.816v-5.36h6.146s2.817 1.649 5.67 0" mask="url(#prefix__b)"/>
        <path fill="#A29C8F" d="M128.144 288.181h-9.222v-1.234c0-2.28 1.849-4.127 4.127-4.127h.968c2.28 0 4.127 1.847 4.127 4.127v1.234z" mask="url(#prefix__b)"/>
        <path fill="#57575E" d="M118.528 289.04L135.831 289.04 135.831 288.182 118.528 288.182zM188.926 282.82s-2.732 2.629 0 5.36h13.958l-.501-5.36h-7.787s-2.818 1.649-5.67 0" mask="url(#prefix__b)"/>
        <path fill="#7F786A" d="M188.444 289.04L207.506 289.04 207.506 288.182 188.444 288.182z" mask="url(#prefix__b)"/>
        <path fill="#57575E" d="M202.383 282.82c2.546 0 4.61 2.064 4.61 4.61v.75h-4.61v-5.36z" mask="url(#prefix__b)"/>
        <path fill="#FFA331" d="M142.142 32.84c-5.668 1.166-10.086 5.615-11.213 11.292l-1.806 9.1 11.64.367 1.38-20.76z" mask="url(#prefix__b)"/>
        <path fill="#FFBF4D" d="M186.613 57.484c-5.472-5.02-12.06-11.694-13.394-15.832-2.361-7.316 2.837-8.813 2.837-8.813s11.18 2.566 21.095 12.363c-1.768 2.654-3.927 5.163-6.051 7.629-1.173 1.362-2.657 2.956-4.487 4.653M136.572 62.118L139.693 47.541 137.499 47.071 134.379 61.648z" mask="url(#prefix__b)"/>
        <path fill="#57575E" d="M164.063 32.969L161.785 35.011 162.679 38.421 165.412 36.1zM162.68 38.422s-11.085 14.247-2.508 31.76l5.681-10.707-3.174-21.053z" mask="url(#prefix__b)"/>
        <path fill="#FB9C98" d="M98.397 96.427c-3.697.076-4.574.484-4.634.864-.083.526 1.294 1.586 2.73 1.258 1.007-.23 1.772-1.08 1.904-2.122" mask="url(#prefix__b)"/>
        <path fill="#FFC581" d="M103.17 97.707l-2.147 1.837c-.222.579-.676 1.54-1.587 2.424-.433.419-2.263 2.19-4.25 1.698-1.4-.348-2.644-1.762-2.383-2.49.087-.243.335-.39.575-.481l6.826-5.836 2.966 2.848z" mask="url(#prefix__b)"/>
        <path fill="#FFAC34" d="M170.06 79.748c-3.228-23.177-24.637-39.35-47.814-36.118-23.177 3.229-39.349 24.636-36.12 47.813 3.23 23.178 24.637 39.349 47.815 36.119 23.178-3.23 39.349-24.636 36.12-47.814" mask="url(#prefix__b)"/>
        <path fill="#FFBC3F" d="M160.626 81.063c-2.503-17.968-19.098-30.504-37.066-28-17.968 2.503-30.503 19.098-27.999 37.065 2.502 17.968 19.098 30.504 37.065 28 17.967-2.502 30.504-19.098 28-37.065" mask="url(#prefix__b)"/>
        <path fill="#FFA331" d="M130.419 71.414c.854-.445 1.102-1.662.553-2.717-.55-1.055-1.688-1.551-2.542-1.105l-9.288 4.834-6.193 3.222c-.854.445-1.102 1.662-.553 2.717.549 1.055 1.688 1.55 2.543 1.105l6.19-3.223c2.017-1.05 4.553-.333 6.35 1.554l-10.552 5.49c-.854.446-1.102 1.663-.553 2.718.549 1.054 1.688 1.55 2.543 1.105l10.55-5.491c.516 2.554-.354 5.042-2.37 6.09l-6.191 3.223c-.201.105-.377.259-.516.454-.276.39-.387.92-.3 1.47.085.55.359 1.077.76 1.46.2.198.424.349.662.448l20.335 8.84c.499.218.992.2 1.389-.007.396-.207.695-.6.805-1.128.216-1.06-.414-2.272-1.406-2.703l-16.003-6.957 2.455-1.278c3.74-1.946 5.153-6.858 3.604-11.59l1.706-.887c.855-.445 1.103-1.663.554-2.717-.55-1.055-1.69-1.55-2.543-1.106l-1.706.888c-.972-1.301-2.155-2.317-3.42-3.077l3.137-1.632z" mask="url(#prefix__b)"/>
        <path fill="#FFE2B7" d="M170.439 94.318c-4.436.092-5.487.58-5.56 1.037-.1.63 1.553 1.903 3.276 1.509 1.207-.276 2.125-1.296 2.284-2.546" mask="url(#prefix__b)"/>
        <path fill="#FFE2B7" d="M176.168 95.853l-2.577 2.204c-.266.695-.81 1.85-1.904 2.908-.519.503-2.716 2.63-5.1 2.038-1.68-.417-3.174-2.113-2.86-2.988.104-.292.401-.467.69-.576l8.191-7.004 3.56 3.418z" mask="url(#prefix__b)"/>
        <path fill="#FDC854" d="M165.449 241.402h73.918c2.488 0 4.504 2.016 4.504 4.504v2.839c0 2.487-2.016 4.504-4.504 4.504h-73.918c-2.487 0-4.504-2.017-4.504-4.504v-2.839c0-2.487 2.017-4.504 4.504-4.504" mask="url(#prefix__b)"/>
        <path fill="#F89F4F" d="M160.945 250.983c0 1.251 1.014 2.266 2.265 2.266h78.397c1.25 0 2.264-1.015 2.264-2.266v-1.219h-82.926v1.219z" mask="url(#prefix__b)"/>
        <path fill="#FDC854" d="M165.449 205.862h73.918c2.488 0 4.504 2.017 4.504 4.504v2.839c0 2.487-2.016 4.504-4.504 4.504h-73.918c-2.487 0-4.504-2.017-4.504-4.504v-2.84c0-2.486 2.017-4.503 4.504-4.503" mask="url(#prefix__b)"/>
        <path fill="#F89F4F" d="M160.945 215.444c0 1.25 1.014 2.265 2.265 2.265h78.397c1.25 0 2.264-1.015 2.264-2.265v-1.22h-82.926v1.22z" mask="url(#prefix__b)"/>
        <path fill="#FFAC34" d="M300.78 279.832c16.93-13.801 19.466-38.713 5.665-55.642-13.8-16.93-38.712-19.465-55.64-5.666-16.93 13.8-19.467 38.712-5.667 55.643 13.801 16.929 38.713 19.465 55.642 5.665" mask="url(#prefix__b)"/>
        <path fill="#FFBC3F" d="M295.163 272.941c13.124-10.699 15.09-30.01 4.392-43.135-10.699-13.124-30.01-15.089-43.134-4.39-13.124 10.698-15.09 30.009-4.392 43.133 10.698 13.123 30.01 15.09 43.134 4.392" mask="url(#prefix__b)"/>
        <path fill="#FFA331" d="M288.234 244.166c.769.466 1.86.074 2.436-.874.576-.95.419-2.098-.35-2.564l-8.354-5.071-5.57-3.38c-.77-.466-1.86-.075-2.436.874-.576.95-.42 2.098.35 2.564l5.57 3.38c1.812 1.1 2.47 3.47 1.834 5.818l-9.491-5.76c-.768-.466-1.86-.075-2.435.874-.576.949-.42 2.098.349 2.564l9.49 5.76c-1.788 1.647-4.194 2.159-6.007 1.058l-5.57-3.38c-.181-.11-.39-.175-.611-.192-.446-.031-.921.137-1.32.474-.396.333-.684.807-.797 1.313-.06.255-.071.507-.036.744l2.794 20.507c.068.503.322.888.679 1.103.356.217.815.265 1.29.097.95-.341 1.61-1.43 1.475-2.43l-2.198-16.138 2.208 1.34c3.364 2.042 7.969.79 10.993-2.737l1.535.93c.768.468 1.859.076 2.435-.872.576-.95.42-2.098-.35-2.564l-1.534-.932c.568-1.405.807-2.841.8-4.22l2.82 1.714z" mask="url(#prefix__b)"/>
        <path fill="#FDC854" d="M169.99 276.941h73.92c2.486 0 4.503 2.017 4.503 4.504v2.84c0 2.487-2.017 4.503-4.504 4.503H169.99c-2.487 0-4.503-2.016-4.503-4.503v-2.84c0-2.487 2.016-4.504 4.503-4.504" mask="url(#prefix__b)"/>
        <path fill="#F89F4F" d="M165.487 286.523c0 1.251 1.014 2.265 2.265 2.265h78.396c1.25 0 2.265-1.014 2.265-2.265v-1.22h-82.926v1.22z" mask="url(#prefix__b)"/>
        <path fill="#FDC854" d="M169.99 265.095h73.92c2.486 0 4.503 2.016 4.503 4.503v2.84c0 2.487-2.017 4.503-4.504 4.503H169.99c-2.487 0-4.503-2.016-4.503-4.503v-2.84c0-2.487 2.016-4.503 4.503-4.503" mask="url(#prefix__b)"/>
        <path fill="#F89F4F" d="M165.487 274.676c0 1.251 1.014 2.265 2.265 2.265h78.396c1.25 0 2.265-1.014 2.265-2.265v-1.219h-82.926v1.22z" mask="url(#prefix__b)"/>
        <path fill="#FDC854" d="M169.99 253.249h73.92c2.486 0 4.503 2.016 4.503 4.504v2.839c0 2.487-2.017 4.504-4.504 4.504H169.99c-2.487 0-4.503-2.017-4.503-4.504v-2.84c0-2.487 2.016-4.503 4.503-4.503" mask="url(#prefix__b)"/>
        <path fill="#F89F4F" d="M165.487 262.83c0 1.25 1.014 2.266 2.265 2.266h78.396c1.25 0 2.265-1.015 2.265-2.266v-1.22h-82.926v1.22z" mask="url(#prefix__b)"/>
        <path fill="#FDC854" d="M169.99 229.555h73.92c2.486 0 4.503 2.017 4.503 4.504v2.84c0 2.486-2.017 4.503-4.504 4.503H169.99c-2.487 0-4.503-2.017-4.503-4.504v-2.839c0-2.487 2.016-4.504 4.503-4.504" mask="url(#prefix__b)"/>
        <path fill="#F89F4F" d="M165.487 239.137c0 1.25 1.014 2.265 2.265 2.265h78.396c1.25 0 2.265-1.015 2.265-2.265v-1.22h-82.926v1.22z" mask="url(#prefix__b)"/>
        <path fill="#FDC854" d="M166.88 217.709h73.92c2.487 0 4.504 2.017 4.504 4.504v2.839c0 2.487-2.017 4.504-4.504 4.504h-73.92c-2.486 0-4.503-2.017-4.503-4.504v-2.84c0-2.486 2.017-4.503 4.504-4.503" mask="url(#prefix__b)"/>
        <path fill="#F89F4F" d="M162.377 227.29c0 1.25 1.014 2.266 2.265 2.266h78.397c1.25 0 2.265-1.015 2.265-2.265v-1.22h-82.927v1.22z" mask="url(#prefix__b)"/>
        <path fill="#FDC854" d="M168.496 194.015h73.918c2.488 0 4.504 2.017 4.504 4.504v2.84c0 2.486-2.016 4.503-4.504 4.503h-73.918c-2.487 0-4.504-2.017-4.504-4.504v-2.839c0-2.487 2.017-4.504 4.504-4.504" mask="url(#prefix__b)"/>
        <path fill="#F89F4F" d="M163.992 203.597c0 1.251 1.014 2.265 2.265 2.265h78.397c1.25 0 2.264-1.014 2.264-2.265v-1.22h-82.926v1.22z" mask="url(#prefix__b)"/>
        <path fill="#FDC854" d="M169.713 182.169h73.92c2.486 0 4.503 2.017 4.503 4.504v2.839c0 2.487-2.017 4.504-4.504 4.504h-73.919c-2.487 0-4.504-2.017-4.504-4.504v-2.84c0-2.486 2.017-4.503 4.504-4.503" mask="url(#prefix__b)"/>
        <path fill="#F89F4F" d="M165.21 191.75c0 1.252 1.013 2.266 2.264 2.266h78.398c1.25 0 2.264-1.014 2.264-2.265v-1.22H165.21v1.22z" mask="url(#prefix__b)"/>
    </g>
</svg>
