<svg xmlns="http://www.w3.org/2000/svg" xmlns:xlink="http://www.w3.org/1999/xlink" width="630" height="481" viewBox="0 0 630 481">
    <defs>
        <path id="prefix__a" d="M0 408L593.156 408 593.156 0.482 0 0.482z"/>
        <path id="prefix__c" d="M5.65.848c-1.458.027-2.818.607-3.831 1.635C.801 3.516.255 4.876.281 6.313c.055 2.926 2.497 5.27 5.466 5.27l.101-.001c1.457-.026 2.818-.606 3.831-1.635 1.018-1.033 1.565-2.392 1.538-3.829C11.162 3.192 8.72.848 5.749.848H5.65M1.974 6.282c-.018-.978.354-1.905 1.051-2.61.7-.711 1.643-1.113 2.655-1.131h.069c2.052 0 3.739 1.605 3.775 3.608.019.978-.355 1.905-1.051 2.61-.7.71-1.643 1.112-2.655 1.13l-.073.001c-2.029-.001-3.734-1.605-3.771-3.608"/>
        <path id="prefix__f" d="M6.973.516C3.162.585.127 3.755.197 7.595c.069 3.842 3.215 6.898 7.028 6.829 3.812-.07 6.847-3.24 6.778-7.081C13.934 3.546 10.856.515 7.102.515l-.129.001"/>
        <path id="prefix__i" d="M3.968-.003C1.842.036.15 1.804.189 3.946c.038 2.142 1.793 3.846 3.92 3.807 2.125-.038 3.817-1.807 3.779-3.949C7.849 1.688 6.135-.003 4.041-.003h-.073"/>
        <path id="prefix__l" d="M0.854 0.254L143.156 0.254 143.156 132.37 0.854 132.37z"/>
        <path id="prefix__n" d="M0 0.963L569.334 0.963 569.334 22 0 22z"/>
        <path id="prefix__p" d="M0.166 1.861L1.936 7.064 5.465 5.864 3.695 0.659z"/>
        <path id="prefix__s" d="M0.812 2.983L4.136 7.361 7.106 5.107 3.782 0.729z"/>
        <path id="prefix__v" d="M6.594 1.402l-5.74-.358 5.74.358z"/>
        <path id="prefix__y" d="M1.672.711L1.109.677c.187.016.375.03.563.034"/>
        <linearGradient id="prefix__d" x1="99.999%" x2=".001%" y1="50%" y2="50%">
            <stop offset="0%" stop-color="#FBB62B"/>
            <stop offset="100%" stop-color="#FFCF44"/>
        </linearGradient>
        <linearGradient id="prefix__g" x1="99.993%" x2="-.003%" y1="49.997%" y2="49.997%">
            <stop offset="0%" stop-color="#FBB62B"/>
            <stop offset="100%" stop-color="#FFCF44"/>
        </linearGradient>
        <linearGradient id="prefix__j" x1="100%" x2="-.003%" y1="49.998%" y2="49.998%">
            <stop offset="0%" stop-color="#FBB62B"/>
            <stop offset="100%" stop-color="#FFCF44"/>
        </linearGradient>
        <linearGradient id="prefix__q" x1="-.005%" x2="99.995%" y1="50.006%" y2="50.006%">
            <stop offset="0%" stop-color="#FBC13F"/>
            <stop offset="100%" stop-color="#FF871C"/>
        </linearGradient>
        <linearGradient id="prefix__t" x1=".008%" x2="99.991%" y1="49.999%" y2="49.999%">
            <stop offset="0%" stop-color="#FBC13F"/>
            <stop offset="100%" stop-color="#FF871C"/>
        </linearGradient>
        <linearGradient id="prefix__w" x1="-113.122%" x2="538.645%" y1="49.873%" y2="50.38%">
            <stop offset="0%" stop-color="#FBB62B"/>
            <stop offset="100%" stop-color="#FFCF44"/>
        </linearGradient>
        <linearGradient id="prefix__z" x1="-1181.082%" x2="639.285%" y1="-536.197%" y2="330.575%">
            <stop offset="0%" stop-color="#FBB62B"/>
            <stop offset="100%" stop-color="#FFCF44"/>
        </linearGradient>
    </defs>
    <g fill="none" fill-rule="evenodd">
        <g transform="translate(18 71) translate(0 .518)">
            <path fill="#FFF4DD" d="M356.967 68.134C314.47 38.7 269.082 18.678 222.74 8.55 198.941 3.35 174.886.758 150.833.84c-10.454.035-21.559-1.044-31.835.385-10.833 1.507-21.199 9.72-31.376 14.88C75.07 22.47 62.714 30.285 51.642 41.28 34.052 58.75 19.6 86.063 17.746 117.493c-1.852 31.43 12.05 65.507 32.886 70.687 3.92.974 8.364 1.254 11.046 5.635 4.53 7.4-.063 19.88-6.146 24.12-6.082 4.24-13.225 4.087-19.285 8.399-12.379 8.808-16.049 34.335-10.873 53.3 5.177 18.967 16.776 32.253 28.664 42.459 56.451 48.466 125.476 45.99 190.537 42.145 3.118-.184 6.457-.483 8.928-3.328 2.471-2.843 3.303-9.237.79-11.998 99.148-.331 196.46 68.09 294.581 46.824 12.874-2.79 27.62-9.621 32.008-27.913 4.052-16.893-2.888-35.013-10.322-49.111-45.777-86.807-118.12-131.52-188.774-164.271-6.204-2.876-12.652-5.882-17.415-12.48-4.763-6.597-7.266-17.94-3.9-26.238 2.786-6.868 8.783-10.071 10.945-17.423 3.71-12.611-6.083-24.372-14.449-30.166"/>
            <mask id="prefix__b" fill="#fff">
                <use xlink:href="#prefix__a"/>
            </mask>
            <path fill="#FFF" d="M58.378 320.346L388.795 320.346 388.795 62.129 58.378 62.129z" mask="url(#prefix__b)"/>
            <path fill="#F7E8C8" d="M58.378 61.403L388.795 61.403 388.795 46.129 58.378 46.129z" mask="url(#prefix__b)"/>
            <path fill="#FFF" d="M69.578 53.767c0 1.687-1.372 3.058-3.056 3.058-1.689 0-3.054-1.37-3.054-3.058 0-1.687 1.365-3.05 3.054-3.05 1.684 0 3.056 1.363 3.056 3.05" mask="url(#prefix__b)"/>
            <path fill="#FFC40E" d="M79.25 53.767c0 1.687-1.366 3.058-3.056 3.058-1.687 0-3.054-1.37-3.054-3.058 0-1.687 1.367-3.05 3.054-3.05 1.69 0 3.056 1.363 3.056 3.05" mask="url(#prefix__b)"/>
            <path fill="#619440" d="M88.923 53.767c0 1.687-1.366 3.058-3.055 3.058-1.687 0-3.054-1.37-3.054-3.058 0-1.687 1.367-3.05 3.054-3.05 1.689 0 3.055 1.363 3.055 3.05" mask="url(#prefix__b)"/>
            <path fill="#F7E8C8" d="M108.652 89.204L178.067 89.204 178.067 84.313 108.652 84.313zM114.391 100.304L125.875 100.304 125.875 95.413 114.391 95.413zM114.391 111.403L125.875 111.403 125.875 106.512 114.391 106.512zM114.391 122.504L125.875 122.504 125.875 117.613 114.391 117.613zM148.319 100.304L183.549 100.304 183.549 95.413 148.319 95.413zM148.319 111.403L183.549 111.403 183.549 106.512 148.319 106.512zM148.319 122.504L183.549 122.504 183.549 117.613 148.319 117.613zM130.833 100.304L138.923 100.304 138.923 95.413 130.833 95.413zM130.833 111.403L138.923 111.403 138.923 106.512 130.833 106.512zM130.833 122.504L138.923 122.504 138.923 117.613 130.833 117.613z" mask="url(#prefix__b)"/>
            <path fill="#FFAF12" d="M142.416 100.304L144.567 100.304 144.567 95.413 142.416 95.413zM142.416 111.403L144.567 111.403 144.567 106.512 142.416 106.512zM142.416 122.504L144.567 122.504 144.567 117.613 142.416 117.613zM108.913 100.304L111.067 100.304 111.067 95.413 108.913 95.413zM108.913 111.403L111.067 111.403 111.067 106.512 108.913 106.512zM108.913 122.504L111.067 122.504 111.067 117.613 108.913 117.613z" mask="url(#prefix__b)"/>
            <path fill="#F7E8C8" d="M114.391 144.703L132.138 144.703 132.138 139.812 114.391 139.812zM156.67 144.703L183.549 144.703 183.549 139.812 156.67 139.812zM137.097 144.703L147.274 144.703 147.274 139.812 137.097 139.812z" mask="url(#prefix__b)"/>
            <path fill="#FFAF12" d="M150.764 144.703L152.918 144.703 152.918 139.812 150.764 139.812z" mask="url(#prefix__b)"/>
            <path fill="#F7E8C8" d="M184.592 166.898L267.84 166.898 267.84 162.007 184.592 162.007zM138.139 166.898L178.067 166.898 178.067 162.007 138.139 162.007zM214.863 144.703L241.743 144.703 241.743 139.812 214.863 139.812zM191.116 144.703L205.468 144.703 205.468 139.812 191.116 139.812z" mask="url(#prefix__b)"/>
            <path fill="#FFAF12" d="M208.96 144.703L211.111 144.703 211.111 139.812 208.96 139.812zM244.452 144.703L246.602 144.703 246.602 139.812 244.452 139.812zM108.913 144.703L111.067 144.703 111.067 139.812 108.913 139.812z" mask="url(#prefix__b)"/>
            <path fill="#F7E8C8" d="M114.391 189.098L132.138 189.098 132.138 184.207 114.391 184.207zM108.913 189.098L111.067 189.098 111.067 184.207 108.913 184.207zM135.532 189.098L137.686 189.098 137.686 184.207 135.532 184.207zM100.821 233.496L118.568 233.496 118.568 228.605 100.821 228.605zM95.339 233.496L97.496 233.496 97.496 228.605 95.339 228.605zM121.957 233.496L124.113 233.496 124.113 228.605 121.957 228.605z" mask="url(#prefix__b)"/>
            <path fill="#FFAF12" d="M123.788 177.998L125.942 177.998 125.942 173.107 123.788 173.107z" mask="url(#prefix__b)"/>
            <path fill="#F7E8C8" d="M123.788 155.803L134.225 155.803 134.225 150.912 123.788 150.912z" mask="url(#prefix__b)"/>
            <path fill="#FFAF12" d="M138.139 155.803L178.838 155.803 178.838 150.912 138.139 150.912z" mask="url(#prefix__b)"/>
            <path fill="#F7E8C8" d="M208.341 100.304L243.57 100.304 243.57 95.413 208.341 95.413zM208.341 111.403L243.57 111.403 243.57 106.512 208.341 106.512zM208.341 122.504L243.57 122.504 243.57 117.613 208.341 117.613zM245.398 100.304L306.984 100.304 306.984 95.413 245.398 95.413zM245.399 111.403L329.69 111.403 329.69 106.512 245.399 106.512zM245.398 122.504L344.823 122.504 344.823 117.613 245.398 117.613zM190.855 100.304L198.943 100.304 198.943 95.413 190.855 95.413zM190.855 111.403L198.943 111.403 198.943 106.512 190.855 106.512zM190.855 122.504L198.943 122.504 198.943 117.613 190.855 117.613z" mask="url(#prefix__b)"/>
            <path fill="#FFAF12" d="M202.438 100.304L204.586 100.304 204.586 95.413 202.438 95.413zM202.438 111.403L204.586 111.403 204.586 106.512 202.438 106.512zM202.438 122.504L204.586 122.504 204.586 117.613 202.438 117.613zM315.076 100.304L317.229 100.304 317.229 95.413 315.076 95.413zM335.792 111.403L337.942 111.403 337.942 106.512 335.792 106.512zM349.881 122.504L352.035 122.504 352.035 117.613 349.881 117.613z" mask="url(#prefix__b)"/>
            <path fill="#F7E8C8" d="M108.652 133.601L178.067 133.601 178.067 128.71 108.652 128.71zM100.3 257.1L111.783 257.1 111.783 252.209 100.3 252.209zM127.18 279.296L138.662 279.296 138.662 274.405 127.18 274.405zM161.105 279.296L237.307 279.296 237.307 274.405 161.105 274.405zM109.436 268.195L221.127 268.195 221.127 263.304 109.436 263.304zM143.621 279.296L151.709 279.296 151.709 274.405 143.621 274.405z" mask="url(#prefix__b)"/>
            <path fill="#FFAF12" d="M155.202 279.296L157.356 279.296 157.356 274.405 155.202 274.405zM94.821 257.1L96.969 257.1 96.969 252.209 94.821 252.209zM114.391 257.1L116.545 257.1 116.545 252.209 114.391 252.209z" mask="url(#prefix__b)"/>
            <path fill="#F7E8C8" d="M142.576 290.394L147.793 290.394 147.793 285.503 142.576 285.503z" mask="url(#prefix__b)"/>
            <path fill="#FFAF12" d="M137.097 290.394L139.248 290.394 139.248 285.503 137.097 285.503zM150.407 290.394L152.558 290.394 152.558 285.503 150.407 285.503z" mask="url(#prefix__b)"/>
            <path fill="#F7E8C8" d="M157.189 312.593L162.407 312.593 162.407 307.702 157.189 307.702z" mask="url(#prefix__b)"/>
            <path fill="#FFAF12" d="M151.709 312.593L153.863 312.593 153.863 307.702 151.709 307.702zM165.022 312.593L167.172 312.593 167.172 307.702 165.022 307.702zM121.698 279.296L123.852 279.296 123.852 274.405 121.698 274.405z" mask="url(#prefix__b)"/>
            <path fill="#F7E8C8" d="M151.972 301.493L262.135 301.493 262.135 296.602 151.972 296.602z" mask="url(#prefix__b)"/>
            <path fill="#FFAF12" d="M239.914 279.296L242.07 279.296 242.07 274.405 239.914 274.405z" mask="url(#prefix__b)"/>
            <path fill="#F7E8C8" d="M108.651 200.197L204.165 200.197 204.165 195.306 108.651 195.306zM108.652 211.296L250.096 211.296 250.096 206.405 108.652 206.405zM108.651 222.392L156.67 222.392 156.67 217.501 108.651 217.501z" mask="url(#prefix__b)"/>
            <path fill="#FFAF12" d="M70.55 89.204L75.768 89.204 75.768 84.313 70.55 84.313zM70.55 100.304L75.768 100.304 75.768 95.413 70.55 95.413zM70.55 111.403L75.768 111.403 75.768 106.512 70.55 106.512zM70.55 122.504L75.768 122.504 75.768 117.613 70.55 117.613zM70.55 133.601L75.768 133.601 75.768 128.71 70.55 128.71zM70.55 144.703L75.768 144.703 75.768 139.812 70.55 139.812zM70.55 155.803L75.768 155.803 75.768 150.912 70.55 150.912zM70.55 166.898L75.768 166.898 75.768 162.007 70.55 162.007zM70.55 177.998L75.768 177.998 75.768 173.107 70.55 173.107zM70.55 189.098L75.768 189.098 75.768 184.207 70.55 184.207zM70.55 200.197L75.768 200.197 75.768 195.306 70.55 195.306zM70.55 211.296L75.768 211.296 75.768 206.405 70.55 206.405zM70.55 222.392L75.768 222.392 75.768 217.501 70.55 217.501zM70.55 233.496L75.768 233.496 75.768 228.605 70.55 228.605zM70.55 244.593L75.768 244.593 75.768 239.702 70.55 239.702zM70.55 255.693L75.768 255.693 75.768 250.802 70.55 250.802zM70.55 266.791L75.768 266.791 75.768 261.9 70.55 261.9z" mask="url(#prefix__b)"/>
            <path fill="#306B34" d="M28.504 270.894c-.16 1.247.178 2.476.948 3.46 1.594 2.034 4.567 2.376 6.629.764 1.017-.79 1.638-1.904 1.798-3.155.158-1.247-.18-2.476-.95-3.46-1.592-2.034-4.565-2.376-6.627-.763l-.055.044c-.97.78-1.587 1.88-1.743 3.11m8.746 5.718c-2.886 2.257-7.054 1.769-9.291-1.09-1.085-1.384-1.56-3.114-1.337-4.868.223-1.75 1.11-3.323 2.51-4.408 2.886-2.258 7.054-1.77 9.292 1.088 1.085 1.386 1.56 3.115 1.336 4.869-.218 1.718-1.081 3.258-2.434 4.348l-.076.06" mask="url(#prefix__b)"/>
            <path fill="#619440" d="M102.84 367.45c-.772-3.412-2.76-14.78-6.043-15.987-3.58-1.318-8.004.374-9.793 3.742-.772 1.454-1.113 3.175-2.594 4.151-.826.545-1.963.553-2.647-.165-1.114-1.173-.056-2.96.852-4.248 1.738-2.467 2.977-5.38 2.99-8.398.013-3.018-1.347-6.128-3.885-7.762-2.537-1.633-6.251-1.445-8.299.771-1.28 1.387-1.82 3.352-3.496 4.436-.868.563-2.008.678-2.85.073-1.698-1.22-.552-3.845.6-5.582 1.626-2.453 3.055-5.122 3.481-8.033.428-2.912-.288-6.116-2.425-8.139-2.138-2.02-5.818-2.449-8.028-.506-.886.78-1.474 1.84-2.3 2.682-.99 1.01-2.59 1.706-3.801.634-.84-.742-.98-1.985-.563-3.026.576-1.442 1.742-2.314 2.898-3.202 1.822-1.399 3.08-3.456 3.348-5.737.803-6.818-6.742-9.444-10.996-6.45-1.195.84-2.389 2.122-3.848 1.711-1.152-.325-1.784-1.538-1.658-2.728.25-2.35 2.195-3.713 3.228-5.624 1.89-3.495-.232-8.49-4.06-9.556-2.926-.815-3.687 2.977-5.011 6.295-.305.763-1.426.601-1.512-.216-.343-3.249-1.417-7.306-2.24-9.545-1.51-4.107-7.655-8.612-10.59-2.704-.787 1.585-.188 5.662.826 6.79 1.433 1.595 4.845 7.08 4.845 7.08.32.626-.391 1.283-.984.902-1.346-.866-2.79-1.546-4.448-1.696-.76-.068-1.538.007-2.258.255-4.294 1.48-3.628 6.767-.884 9.301 2.28 2.105 5.473 2.828 8.492 3.545 1.566.373 3.257.847 4.035 2.37.441.863.337 1.961-.403 2.587-.854.724-1.829.32-2.768.201-3.071-.392-5.863 2.668-5.834 5.764.029 3.098 2.298 5.853 5.08 7.214 2.781 1.361 5.991 1.548 9.085 1.391 1.526-.078 3.169-.208 4.375.921.712.667.924 1.787.328 2.558-.85 1.098-2.434.606-3.761.533-3.682-.205-6.608 3.895-6.027 7.538.58 3.641 3.792 6.437 7.31 7.54 3.965 1.242 8.278.714 12.35.143.959-.135 1.943.383 2.239 1.304.412 1.277-.755 2.008-1.665 2.67-3.518 2.551-4.895 7.67-3.128 11.64 1.766 3.972 6.488 6.38 10.739 5.476 2.7-.573 5.163-2.312 8.09-1.432 1.45.437 2.493 1.824 2.216 3.312-.35 1.877-2.455 2.413-4.03 3.292-4.37 2.44-5.105 9.032-2.234 13.131 2.871 4.098 12.093 4.227 17.087 3.91 4.993-.316 15.415-.753 20.75-4.149 2.513-1.6.59-17.569-.181-20.979" mask="url(#prefix__b)"/>
            <path fill="#306B34" d="M23.599 284.337c-.787 1.584-.19 5.663.825 6.79 1.433 1.596 4.845 7.08 4.845 7.08.32.627-.392 1.284-.984.901-1.346-.865-2.79-1.545-4.448-1.695-.76-.069-1.537.007-2.258.255-4.294 1.48-3.628 6.767-.884 9.3 2.28 2.106 5.473 2.828 8.492 3.546 1.565.373 3.258.847 4.036 2.37.44.863.335 1.96-.403 2.587-.854.724-1.83.32-2.768.2-3.073-.39-5.864 2.668-5.835 5.766.028 3.097 2.298 5.852 5.08 7.214 2.782 1.36 5.99 1.548 9.085 1.39 1.526-.079 3.169-.207 4.375.921.712.668.924 1.788.327 2.559-.85 1.097-2.434.606-3.76.531-3.683-.204-6.608 3.897-6.028 7.538.58 3.643 3.792 6.439 7.31 7.54 3.966 1.243 8.279.716 12.352.144.958-.135 1.942.384 2.238 1.305.412 1.276-.754 2.007-1.665 2.668-3.518 2.551-4.894 7.67-3.128 11.642 1.766 3.971 6.488 6.378 10.739 5.476 2.7-.574 5.163-2.314 8.09-1.433 1.45.438 2.493 1.823 2.216 3.313-.35 1.877-2.455 2.413-4.031 3.291-4.37 2.44-8.853 11.777-5.982 15.877 2.872 4.096 15.84 1.481 20.835 1.164 4.66-.294 14.047-.695 19.616-3.507.399-.2 1.136-.642 1.136-.642s-27.58-23.966-51.432-55.735c-13.25-17.647-25.03-51.085-25.03-51.085s-.465.101-1.004.483c-.928.656-1.803 1.935-1.957 2.246" mask="url(#prefix__b)"/>
        </g>
        <g transform="translate(18 71) translate(36 276.518)">
            <mask id="prefix__e" fill="#fff">
                <use xlink:href="#prefix__c"/>
            </mask>
            <path fill="url(#prefix__d)" d="M5.65.848c-1.458.027-2.818.607-3.831 1.635C.801 3.516.255 4.876.281 6.313c.055 2.926 2.497 5.27 5.466 5.27l.101-.001c1.457-.026 2.818-.606 3.831-1.635 1.018-1.033 1.565-2.392 1.538-3.829C11.162 3.192 8.72.848 5.749.848H5.65M1.974 6.282c-.018-.978.354-1.905 1.051-2.61.7-.711 1.643-1.113 2.655-1.131h.069c2.052 0 3.739 1.605 3.775 3.608.019.978-.355 1.905-1.051 2.61-.7.71-1.643 1.112-2.655 1.13l-.073.001c-2.029-.001-3.734-1.605-3.771-3.608" mask="url(#prefix__e)"/>
        </g>
        <g transform="translate(18 71) translate(51 288.518)">
            <mask id="prefix__h" fill="#fff">
                <use xlink:href="#prefix__f"/>
            </mask>
            <path fill="url(#prefix__g)" d="M6.973.516C3.162.585.127 3.755.197 7.595c.069 3.842 3.215 6.898 7.028 6.829 3.812-.07 6.847-3.24 6.778-7.081C13.934 3.546 10.856.515 7.102.515l-.129.001" mask="url(#prefix__h)"/>
        </g>
        <g transform="translate(18 71) translate(9 326.518)">
            <mask id="prefix__k" fill="#fff">
                <use xlink:href="#prefix__i"/>
            </mask>
            <path fill="url(#prefix__j)" d="M3.968-.003C1.842.036.15 1.804.189 3.946c.038 2.142 1.793 3.846 3.92 3.807 2.125-.038 3.817-1.807 3.779-3.949C7.849 1.688 6.135-.003 4.041-.003h-.073" mask="url(#prefix__k)"/>
        </g>
        <g>
            <path fill="#619440" d="M559.15 141.406c-.434-11.97 7.599-23.507 4.914-35.31-1.721-7.564-8.012-12.052-15.161-9.627-9.063 3.074-12.79 12.55-15.966 21.259-2.259 6.19-4.721 11.796-9.447 16.298-4.054 3.863-8.837 6.694-13.194 10.114-7.663 6.017-11.87 13.434-14.125 23.263-2.5 10.9-2.822 23.828-11.531 31.595-7.111 6.342-17.835 8.416-22.014 18.202-4.554 10.664 2.566 26.8-8.008 34.109-4.466 3.088-9.428 4.328-13.457 8.28-3.118 3.058-5.567 6.859-7.272 10.994-3.692 8.954-3.748 19.253.531 27.785.185.368.45.599.743.73 3.21 9.004 7.114 18.25 14.438 24.054 6.483 5.136 15.3 7.198 22.747 2.77 12.674-7.534 14.286-26.01 23.368-36.958 3.233-3.897 7.113-5.975 11.948-6.31 5.293-.367 10.546 1.272 15.764-.52 7.633-2.62 11.792-10.49 13.741-18.373 2.959-11.953.033-25.146 5.286-36.533 4.708-10.207 14.97-15.71 20.06-25.676 9.751-19.097-2.656-40.596-3.365-60.146" transform="translate(18 71) translate(0 47.518)"/>
            <path fill="#496B32" d="M546.075 120.573c-1.861 14.378-8.568 27.516-14.747 40.43-6.096 12.74-12.213 25.47-18.521 38.106-12.511 25.062-25.781 49.803-41.108 73.272-8.551 13.093-17.745 25.768-27.758 37.784-1.023 1.228.736 3.005 1.767 1.768 18.024-21.63 33.4-45.312 47.223-69.803 14.018-24.836 26.49-50.501 38.806-76.21 6.955-14.52 14.744-29.168 16.838-45.347.206-1.591-2.296-1.576-2.5 0" transform="translate(18 71) translate(0 47.518)"/>
            <path fill="#496B32" d="M464.54 286.008c.045-13.557-.155-27.112-.602-40.661-.053-1.605-2.553-1.612-2.5 0 .447 13.549.647 27.104.601 40.66-.005 1.609 2.495 1.61 2.5 0M478.89 266.507c3.748-1.338 7.683-1.312 11.611-1.387 4.201-.08 8.4-.322 12.58-.734 4.141-.408 8.268-.972 12.366-1.695 3.842-.678 7.626-1.571 11.111-3.378 1.43-.742.166-2.9-1.26-2.16-3.502 1.817-7.38 2.59-11.235 3.252-4.12.706-8.268 1.246-12.432 1.617-3.999.356-8.009.547-12.024.613-3.843.062-7.724.156-11.383 1.462-1.504.536-.856 2.953.665 2.41M497.957 232.704c1.375-4.292 1.244-8.804 1.182-13.255-.067-4.777-.045-9.556.067-14.332.223-9.56.809-19.112 1.738-28.63.156-1.6-2.345-1.59-2.5 0-.913 9.354-1.495 18.74-1.726 28.136-.114 4.612-.144 9.226-.092 13.838.052 4.554.33 9.181-1.08 13.578-.491 1.536 1.92 2.194 2.41.665M514.362 200.784c13.595-1.315 26.802-5.125 39.059-11.142 1.444-.709.179-2.865-1.262-2.158-11.835 5.81-24.668 9.53-37.797 10.8-1.587.154-1.603 2.655 0 2.5M532.955 162.836c-2.415-8.524-3.16-17.397-2.295-26.212.157-1.6-2.344-1.589-2.5 0-.885 9.019-.086 18.155 2.384 26.877.438 1.545 2.85.888 2.41-.665" transform="translate(18 71) translate(0 47.518)"/>
            <path fill="#306B34" d="M510.705 192.662c-10.564-7.066-35.906 13.206-48.775 36.83l10.947-36.965c4.228-4.308 11.671-10.437 23.432-15.643 18.291-8.095 36.505-20.2 25.922-27.278-9.918-6.633-32.86 10.829-46.28 32.54l14.06-47.471c2.798-2.54 7.081-5.674 13.253-8.406 11.526-5.102 23.005-12.73 16.336-17.191-5.788-3.872-18.616 5.28-27.198 17.52l4.556-15.386c2.158-4.516 5.226-10.97 10.184-16.973 11.487-13.912 20.03-29.32 10.806-30.973-9.23-1.656-23.472 25.148-25.145 48.746l-2.345 7.918c1.497-17.181-4.797-37.531-12.752-37.824-7.905-.291-2.567 12.82 4.173 23.879 5.131 8.419 6.68 15.237 7.146 18.784l-11.075 37.396c2.3-27.211-7.667-59.321-20.254-59.785-12.542-.462-4.074 20.343 6.622 37.89 8.083 13.26 10.565 24.025 11.324 29.688l-13.28 44.843c1.8-26.862-8.01-58.802-20.372-58.223-9.53.445-6.188 14.795 5.793 34.65 8.142 13.494 10.981 25.858 11.965 32.397l-6.255 21.123c1.176.814 2.385 1.207 3.573 1.165l2.49-8.405c3.74-4.24 11.575-11.525 25.228-17.568 18.29-8.096 36.504-20.2 25.921-27.278" transform="translate(18 71) translate(0 47.518)"/>
            <g transform="translate(18 71) translate(0 47.518) translate(450 216)">
                <mask id="prefix__m" fill="#fff">
                    <use xlink:href="#prefix__l"/>
                </mask>
                <path fill="#FFAF12" d="M74.096 115.522c-5.65-11.962-36.771-8.257-58.867 5.23l26.757-26.156c5.63-1.425 14.853-2.666 27.313-.727 19.377 3.014 40.58 2.499 34.92-9.486-5.304-11.23-33.06-8.65-54.72 2.868l34.363-33.59c3.58-.672 8.702-1.043 15.239-.026 12.212 1.9 25.576 1.575 22.009-5.977-3.096-6.556-18.326-5.647-31.402.288l11.137-10.886c3.967-2.745 9.622-6.675 16.672-9.174 16.336-5.79 30.873-14.503 23.809-21.017-7.07-6.52-31.833 8.98-44.393 28.6l-5.731 5.602c9.38-14.13 13.633-35.307 7.005-39.94-6.585-4.601-8.234 9.748-7.72 23.084.39 10.15-1.51 16.938-2.788 20.281L60.63 70.957C75.429 48.535 82.107 15.1 71.62 7.773 61.17.472 58.554 23.24 59.37 44.398c.616 15.988-2.353 26.726-4.38 32.072L22.53 108.2C36.74 85.806 43.47 52.607 32.683 46.31c-8.315-4.854-12.245 9.476-11.426 33.35.556 16.225-2.864 28.55-5.113 34.785L.853 129.39c.617 1.356 1.46 2.363 2.49 2.98l6.084-5.948c5.18-1.632 15.284-3.665 29.749-1.415 19.376 3.016 40.58 2.498 34.92-9.485" mask="url(#prefix__m)"/>
            </g>
            <g transform="translate(18 71) translate(0 47.518) translate(0 339)">
                <mask id="prefix__o" fill="#fff">
                    <use xlink:href="#prefix__n"/>
                </mask>
                <path fill="#F7E8C8" d="M569.334 11.482c0 5.81-127.45 10.518-284.667 10.518C127.45 22 0 17.291 0 11.482 0 5.672 127.45.962 284.667.962c157.217 0 284.667 4.71 284.667 10.52" mask="url(#prefix__o)"/>
            </g>
            <path fill="#A29C8F" d="M393.313 191.7s15.066 3.277 34.985-2.55c19.92-5.828-18.078-80.858-18.078-80.858l-7.031.728s-12.387 64.104-9.876 82.68" transform="translate(18 71) translate(0 47.518)"/>
            <path fill="#FCC23F" d="M431.533 54.05c.879.462-1.386 4.455 6.44 9.043 3.187 1.869 2.185 5.457 1.209 7.132.486.483.883 1.026 1.188 1.608 1.487 2.833.052 5.465-2.578 7.286-3.09 2.14-9.521 2.552-9.521 2.552l-7.618-6.95s1.33-3.037 2.25-4.568c.869-1.45 2.256-2.512 3.765-2.982-1.665-4.557 4.415-13.355 4.865-13.12" transform="translate(18 71) translate(0 47.518)"/>
            <path fill="#FCDB9A" d="M422.902 70.153c.673-1.486 1.913-2.882 3.596-3.523l-.363.734c-.9-2.37-.328-4.806.445-6.902.807-2.128 1.8-4.145 3.223-5.958l.575-.694c.09-.111.273-.27.41-.394-.072-.092.962-.425 1.2-.155.194.122.428.369.486.514.375 1.144.158 1.379.274 1.937.125.948.365 1.879.877 2.755 1.05 1.712 2.615 3.28 4.348 4.626-2.007-.863-4.038-1.971-5.487-3.861-.717-.924-1.306-2.074-1.464-3.292l-.145-1.297s.108.192.215.213c.127.288 1.006.003.839-.001l-.164.187-.44.59c-1.132 1.727-2.233 3.576-3.058 5.496-.742 1.918-1.49 3.966-1.07 5.848l.026.114c.063.279-.112.557-.39.623-1.441.338-2.92 1.122-3.933 2.44" transform="translate(18 71) translate(0 47.518)"/>
            <path fill="#FC988B" d="M512.544 334.198l2.177-3.07c.086-.122.057-.29-.065-.376l-12.21-8.642c-.122-.086-.29-.058-.377.065l-2.172 3.074c-.086.122-.058.29.064.376l12.207 8.637c.12.086.29.058.376-.064" transform="translate(18 71) translate(0 47.518)"/>
            <path fill="#352E73" d="M512.664 345.99c.575.144 1.162-.217 1.311-.808l3.622-14.349c.191-.757-.34-1.494-1.1-1.528l-2.589-.433c-.74-.124-1.455.356-1.644 1.102 0 0 1.02.65.851 2.043-.137 1.127-1.108 1.273-1.772 1.236-.32-.018-.59.272-.557.612l1.08 11.198c.052.45.37.818.798.926" transform="translate(18 71) translate(0 47.518)"/>
            <path fill="#FC988B" d="M331.046 344.078c.952.711 2.3.515 3.012-.437l6.696-8.968c.711-.953-2.738-3.528-3.449-2.575l-6.696 8.967c-.711.953-.516 2.302.437 3.013" transform="translate(18 71) translate(0 47.518)"/>
            <path fill="#352E73" d="M319.189 338.705c-.306.507-.146 1.165.358 1.47l12.247 7.38c.646.388 1.49.085 1.746-.63l1.174-2.348c.336-.67.103-1.483-.534-1.868 0 0-.907.794-2.15.252-1.007-.44-.852-1.405-.62-2.027.112-.3-.076-.637-.402-.699l-10.721-2.037c-.434-.073-.87.127-1.098.507" transform="translate(18 71) translate(0 47.518)"/>
            <path fill="#7F786A" d="M456.158 177.933c2.017 9.26 2.818 30.663.65 48.974-2.339 19.734 2.614 30.135 2.614 30.135s50.974 68.01 50.343 69.351l-9.048 13.48c-.194.41-58.244-45.147-73.364-69.734-7.134-11.605-14.327-50.242-20.395-83.752-2.053-11.339-3.514-34.444-3.514-34.444s21.672-4.754 35.694 1.96c12.458 5.963 15.057 15.015 17.02 24.03" transform="translate(18 71) translate(0 47.518)"/>
            <path fill="#A29C8F" d="M461.089 207.593c-12.098 27.936-56.63 59.617-56.63 59.617s-11.882 21.175-16.594 28.592c-11.76 18.514-28.406 37.85-37.915 47.465l-17.4-6.289s29.983-59.948 44.517-88.41c5.224-10.235 40.907-65.444 40.907-65.444s-5.178-30.183-2.96-32.677c4.873 0 36.774-3.258 36.774-3.258s21.377 32.512 9.3 60.404" transform="translate(18 71) translate(0 47.518)"/>
            <path fill="#FB8875" d="M474.986 40.032c.327-.118.699-.046 1.009.192.506.388 1.231.994 1.397 1.391.102.244.043.54-.039.77-.084.234-.395.444-.588.563-.765.47-2.926 1.781-4.091 1.471-.254-.068-.427-.372-.575-.769-.467-1.256.044-2.589 1.098-2.97l1.789-.648z" transform="translate(18 71) translate(0 47.518)"/>
            <path fill="#FB8875" d="M474.274 37.885l.105-.027c.527.322.45.911.128 1.438l-.44.532-.597 1.626-1.332.223.917-2.247 1.219-1.545zM477.657 37.25c-.386-.219-.763.108-.995.681-.078.193-.276.733-.276.733l-1.63 1.818 1.332.186 1.395-1.856.174-1.562z" transform="translate(18 71) translate(0 47.518)"/>
            <path fill="#FB8875" d="M480.357 38.187c-.404-.467-1.166-.47-1.701-.007l-2.67 2.333.957.63 3.414-2.956z" transform="translate(18 71) translate(0 47.518)"/>
            <path fill="#FB8875" d="M480.341 39.46c-.338-.409-1.054-.374-1.6.077l-2.49 2.062.611.74 3.48-2.879z" transform="translate(18 71) translate(0 47.518)"/>
            <path fill="#FB8875" d="M480.222 40.979c-.204-.37-.875-.365-1.084-.272-.344.153-2.475 1.442-2.475 1.442l-.002.859 3.56-2.03zM472.219 41.522L473.855 43.741 473.43 46.58 471.368 46.034z" transform="translate(18 71) translate(0 47.518)"/>
            <path fill="#7F786A" d="M381.157 58.85l-9.322 14.533s7.38 17.916 28.992 31.915c9.872 6.394 12.972-7.727 20.238-16.976 0 0-6.857-1.486-8.525-2.58-9.685-6.354-31.383-26.893-31.383-26.893" transform="translate(18 71) translate(0 47.518)"/>
            <path fill="#F5EFE4" d="M403.394 153.582s3.05 2.958 17.882 3.62c17.436.777 33.304-4.446 33.035-6.739-1.473-12.535-2.205-40.4-2.205-40.4-.165-9.537 6.003-19.745-15.717-20.74l-17.593-2.073c-10.248.177-16.094 13.052-17.508 27.905-.965 10.135 2.106 38.427 2.106 38.427" transform="translate(18 71) translate(0 47.518)"/>
            <path fill="#7F786A" d="M481.582 119.846c3.666-2.327-1.899-13.785-1.899-13.785s-23.23-11.502-31.298-14.57c-10.769-4.098-11.717 16.258-11.717 16.258s32.631 19.893 44.914 12.097" transform="translate(18 71) translate(0 47.518)"/>
            <path fill="#FFB68E" d="M420.932 90.1l5.604.712c.338.043.647-.196.689-.535l1.324-10.478c.043-.34-.197-.647-.535-.69l-5.606-.704c-.338-.043-.646.196-.69.534l-1.321 10.472c-.043.338.197.647.535.69" transform="translate(18 71) translate(0 47.518)"/>
            <path fill="#FFA087" d="M421.126 82.113c-.206-1.631.995-3.126 2.682-3.34 1.687-.212 4.441.917 4.647 2.548l-.679 4.287c.112.89-2.275.838-4.186-.332-1.252-.767-2.385-1.946-2.385-1.946l-.079-1.217z" transform="translate(18 71) translate(0 47.518)"/>
            <path fill="#FFB68E" d="M431.917 74.258c.976-3.056.042-6.137-2.614-7.486-4.323-2.196-8.14 5.389-9.104 8.883-1.07 3.878-.145 5.217-.145 5.217s2.44 1.538 4.875 1.365c2.068-.147 3.84-.141 5.053-3.033 1.084-2.584 1.523-3.66 1.935-4.946" transform="translate(18 71) translate(0 47.518)"/>
            <path fill="#7F786A" d="M418.587 93.546l3.855 1.44c.153.056.323-.022.38-.174l1.683-4.51-4.408-1.646-1.683 4.511c-.057.153.02.323.173.38" transform="translate(18 71) translate(0 47.518)"/>
            <path fill="#7F786A" d="M408.238 127.27l4.346 6.082 7.235-5.045 2.34-36.706s-1.353-.556-1.62-.245c-12.892 14.994-12.301 35.914-12.301 35.914" transform="translate(18 71) translate(0 47.518)"/>
            <path fill="#E7E1D3" d="M425.981 95.423L431.168 88.707 427.801 85.714 421.863 89.34z" transform="translate(18 71) translate(0 47.518)"/>
            <path fill="#FFA087" d="M430.468 76.014c-1.182.87-1.738 2.12-1.244 2.792.495.67 1.854.509 3.036-.361 1.18-.871 1.738-2.122 1.244-2.793-.495-.671-1.854-.51-3.036.362" transform="translate(18 71) translate(0 47.518)"/>
            <path fill="#FCC23F" d="M432.553 74.984s-3.016 1.907-2.653 4.051c.389 2.291-1.126 4.062-2.497 4.55-1.373.487-8.837-.609-9.877-2.695-1.041-2.086 2.647-5.143 2.647-5.143s1.194.61 1.525.507c.384-.121.454-.924-1.124-1.767-.636-.34.282-1.168.496-1.237.213-.071 2.707.604 3.417 2.329.71 1.723.779 2.286 1.584 2.258.806-.029 3.587-2.702 6.704-4.113l-.222 1.26z" transform="translate(18 71) translate(0 47.518)"/>
            <path fill="#E1DCFF" d="M475.769 50.804L475.75 45.039 469.13 45.061 469.148 50.825z" transform="translate(18 71) translate(0 47.518)"/>
            <path fill="#FB8875" d="M392.362 4.691c-.25-.241-.62-.327-1-.235-.62.15-1.527.409-1.841.705-.192.182-.258.476-.277.719-.018.248.18.566.309.753.508.74 1.95 2.816 3.142 3.005.259.041.54-.167.837-.469.937-.959 1.012-2.384.203-3.161l-1.373-1.317z" transform="translate(18 71) translate(0 47.518)"/>
            <path fill="#FB8875" d="M393.885 3.018l-.085-.068c-.613.082-.782.65-.7 1.262l.184.665-.113 1.729 1.127.745.073-2.426-.486-1.907zM390.661 1.227c.436-.084.69.347.726.963.013.208.028.783.028.783l.966 2.243-1.323-.249-.73-2.204.333-1.536z" transform="translate(18 71) translate(0 47.518)"/>
            <path fill="#FB8875" d="M389.706.508c.448-.022.675.287.694 1.025.008.248-.042 1.057-.042 1.057l.967 2.711-1.346-.529-.686-2.287.413-1.977z" transform="translate(18 71) translate(0 47.518)"/>
            <path fill="#FB8875" d="M388.714 2.59l.315-.856c.512-.141.287.479.473 1.16l.274 1.072.745 2.032-.927.253-.729-1.975-.151-1.686z" transform="translate(18 71) translate(0 47.518)"/>
            <path fill="#FB8875" d="M388.026 2.905c.388-.163.913.256 1.02.458.175.334 1.046 2.666 1.046 2.666l-.736.277-.757-1.527-.572-1.874zM394.098 8.322L391.537 8.24 389.776 11.61 392.104 12.712z" transform="translate(18 71) translate(0 47.518)"/>
            <path fill="#7F786A" d="M464.649 51.842c-9.902 11.875-6.775 34.21-3.07 45.747 4.136 12.874 12.698 29.568 21.452 21.202 4.636-4.43 4.303-16.14 3.744-22.162-1.12-12.066-1.895-36.956-9.89-47.386-1.868-2.436-8.695-1.648-12.236 2.6" transform="translate(18 71) translate(0 47.518)"/>
            <path fill="#E1DCFF" d="M392.557 15.431L394.201 11.643 388.617 9.219 386.972 13.007z" transform="translate(18 71) translate(0 47.518)"/>
            <path fill="#FFF" d="M470.106 46.544c.03.462.428.81.89.78.46-.03.81-.428.779-.89-.031-.462-.43-.81-.89-.78-.461.031-.81.43-.78.89M388.615 11.124c.03.461.43.811.891.78.46-.03.81-.429.778-.89-.03-.46-.428-.81-.889-.78-.462.031-.81.43-.78.89" transform="translate(18 71) translate(0 47.518)"/>
            <path fill="#FCDB9A" d="M417.526 80.89c-.54-.942-.115-2.124.382-3.012.66-.83 1.436-1.524 2.264-2.131-.718.73-1.358 1.542-1.847 2.408-.59.757-1.162 1.727-.8 2.735" transform="translate(18 71) translate(0 47.518)"/>
            <path fill="#7F786A" d="M383.39 13.348c-13.684 8.09-14.685 28.425-15.578 41.19-.997 14.245 5.333 23.429 11.29 27.768 0 0 8.165-5.207 9.364-11.493 1.87-9.8 4.985-40.071 6.816-52.413.459-3.088-1.692-5.917-4.734-6.225-2.34-.237-5.02-.091-7.157 1.173M430.432 88.164s-5.984 42.84-3.139 72.998c2.847 30.158 5.86 27.588 14.731 27.931 8.873.343 31.22-7.524 31.22-7.524l-12.304-30.13-6.466-56.72s-10.147-6.898-24.042-6.555" transform="translate(18 71) translate(0 47.518)"/>
            <path fill="#A29C8F" d="M428.633 138.13c3.576-11.55 7.706-22.892 11.987-34.18l.443.919-4.006-1.351c-.35-.11-.546-.482-.437-.832.048-.157.165-.292.293-.373l4.72-2.822-.166.84c-2.678-3.863-5.28-7.78-7.812-11.75 2.99 3.636 5.914 7.32 8.759 11.063.192.252.142.612-.11.803l-.056.039-4.631 2.964-.144-1.203 4.029 1.278c.37.117.574.512.457.88l-.013.04c-4.152 11.335-8.456 22.614-13.313 33.686" transform="translate(18 71) translate(0 47.518)"/>
            <path fill="#7F786A" d="M418.796 87.266s-13.598 16.018-17.365 40.057c-3.766 24.038-8.118 64.376-8.118 64.376s-2.93-15.753 3.096-55.908c6.027-40.156 5.855-50.338 22.387-48.525" transform="translate(18 71) translate(0 47.518)"/>
            <path fill="#E7E1D3" d="M417.158 92.406L417.685 87.302 420.825 85.687 422.094 89.316z" transform="translate(18 71) translate(0 47.518)"/>
            <path fill="#FFAF12" d="M253.727 70.239c-12.763-3.55-34.41 14.544-41.112 21.674-7.48 7.956-6.398 15.526-.686 18.669 4.735 2.606 15.73-6.011 19.818-8.641 8.188-5.268 30.138-23.895 30.138-23.895s-3.593-6.538-8.158-7.807" transform="translate(18 71) translate(0 47.518)"/>
            <path fill="#57575E" d="M221.97 87.821s3.314-3.806 5.276 3.797c1.963 7.602-1.397 15.7-1.397 15.7s5.096 22.662-4.383 26.014c-9.48 3.353-24.078-8.568-24.078-8.568l24.583-36.943z" transform="translate(18 71) translate(0 47.518)"/>
            <path fill="#A29C8F" d="M221.97 87.821c.712-.704 1.83-1.104 2.66-.599.799.52 1.242 1.45 1.587 2.356.65 1.868 1.005 3.85 1.056 5.83.064 3.946-.654 7.983-2.09 11.632-.056.143-.066.297-.038.436.908 4.53 1.502 9.195 1.44 13.82-.044 2.306-.263 4.624-.951 6.808-.624 2.168-1.927 4.313-4.168 5.228 2.324-.65 4.018-2.748 4.883-4.966.87-2.254 1.242-4.646 1.437-7.024.192-4.772-.244-9.513-1.232-14.182l-.038.433c1.406-3.946 2.213-8.078 1.832-12.25-.196-2.072-.646-4.127-1.516-6.028-.474-.919-1.054-1.889-2.05-2.392-1.073-.477-2.192.136-2.811.898" transform="translate(18 71) translate(0 47.518)"/>
            <path fill="#FFB68E" d="M192.275 341.144s-3.379-4.856-3.742-7.12c-.063-.393.2-8.671.2-8.671l-2.809 1.087-.744 9.495s4.278 6.114 4.46 6.136c.183.02 2.636-.927 2.636-.927M172.438 166.38c-5.405 3.298-11.97 29.067-11.97 29.067l-15.653 50.549-48.78-15.823-1.712 1.999s43.273 46.536 62.164 33.266c32.77-23.02 37.252-78.527 34.288-93.697-4.05.398-10.799-.1-18.337-5.361" transform="translate(18 71) translate(0 47.518)"/>
            <path fill="#FFB68E" d="M209.833 161.803c-8.17 7.99-11.228 19.118-17.878 38.751-7.722 22.794-6.376 132.46-6.376 132.46l2.881.831s29.355-100.135 31.185-135.503c.43-8.282-3.36-33.215-3.36-33.215s-3.638-1.913-6.452-3.324" transform="translate(18 71) translate(0 47.518)"/>
            <path fill="#7F786A" d="M185.267 334.487s-2.27 1.263-1.864 4.518c.406 3.253.483 5.137.483 5.137l1.214.144.706-3.487s1.187.96 2.42 3.5c.555 1.144 7.176.94 7.176.94s1.448-1.144-.975-2.606c-.602-.362-2.28-1.64-2.28-1.64s-1.113 1.257-2.586-.07c-.66-.595-1.86-2.163-2.686-3.476-1.018-1.617-1.608-2.96-1.608-2.96" transform="translate(18 71) translate(0 47.518)"/>
            <path fill="#FFB68E" d="M86.272 228.493s5.445 1.467 7.11 3.042c.29.275 5.192 4.026 5.192 4.026l.693-3.405s-2.637-1.59-3.258-2.384c-.282-.36-.694-1.69-.694-1.69s-7.357-2.022-7.515-1.927c-.158.093-1.528 2.338-1.528 2.338" transform="translate(18 71) translate(0 47.518)"/>
            <path fill="#7F786A" d="M95.884 229.511s1.034-2.383-1.269-4.719c-2.302-2.336-3.51-3.783-3.51-3.783l-1.05.624 1.561 3.197s-1.525-.039-4.049-1.306c-1.137-.57-6.267 3.621-6.267 3.621s-.455 1.788 2.358 1.473c.698-.078 2.807-.083 2.807-.083s.12-1.676 2.095-1.518c.885.071 2.792.584 4.247 1.123 1.792.664 3.077 1.371 3.077 1.371M185.37 150.376s-14.305 4.422-23.852 20.075c-10.358 16.986-18.29 64.868-18.29 64.868s5.117 3.482 14.005 7.459c2.31 1.034 4.872 2.1 7.666 3.148 1.11.417 11.73-37.56 11.73-37.56s-6.76 39.316-5.977 39.571c12.002 3.894 27.264 6.987 44.404 6.202 0 0 15.464-72.954-2.866-101.23l-26.82-2.532z" transform="translate(18 71) translate(0 47.518)"/>
            <path fill="#E1DCFF" d="M201.083 148.115c-.052.909-.832 1.604-1.74 1.55-.908-.05-1.603-.83-1.551-1.738.052-.91.83-1.604 1.739-1.551.909.052 1.604.83 1.552 1.739" transform="translate(18 71) translate(0 47.518)"/>
            <path fill="#A29C8F" d="M176.628 208.366s-6.76 39.316-5.976 39.571c12.002 3.894 27.264 6.987 44.404 6.202 0 0 15.464-72.955-2.866-101.23l-10.986-1.162s-9.51 7.98-17.506 26.697c-3.036 7.11-7.07 29.922-7.07 29.922" transform="translate(18 71) translate(0 47.518)"/>
            <path fill="#FFB68E" d="M315.65 110.865s1.807 1.283 2.01 1.964c.155.52-.305 1.976-.305 1.976s-4.65 1.734-5.762 1.119c-.53-.293-.887-1.522-1.088-2.463-.132-.624.255-1.258.873-1.428l4.272-1.168z" transform="translate(18 71) translate(0 47.518)"/>
            <path fill="#FFB68E" d="M313.507 109.308c.498.437.548 1.196.111 1.695l-1.998 2.28-.904-.79 2.79-3.185zM319.103 109.752c-.336-.545-1.062-.7-1.623-.345l-2.89 1.748.942.862 3.57-2.265z" transform="translate(18 71) translate(0 47.518)"/>
            <path fill="#FFB68E" d="M320.88 110.039c-.325-.554-1.113-.682-1.76-.287l-2.956 1.807.588 1.002 4.127-2.522z" transform="translate(18 71) translate(0 47.518)"/>
            <path fill="#FFB68E" d="M320.875 110.849c-.393-.507-1.19-.533-1.78-.06l-2.7 2.174.746 1.105 3.734-3.22z" transform="translate(18 71) translate(0 47.518)"/>
            <path fill="#FFB68E" d="M320.542 113.427c-.209-.608-.808-.652-1.517-.39l-.929.427-2.459.542.688 1.013 2.183-.453 2.034-1.14zM310.74 112.942L311.449 115.823 307.714 117.094 307.024 114.198z" transform="translate(18 71) translate(0 47.518)"/>
        </g>
        <g transform="translate(18 71) translate(305 159.518)">
            <mask id="prefix__r" fill="#fff">
                <use xlink:href="#prefix__p"/>
            </mask>
            <path fill="url(#prefix__q)" d="M0.166 1.861L1.936 7.064 5.465 5.864 3.695 0.659z" mask="url(#prefix__r)"/>
        </g>
        <g fill="#FFB68E">
            <path d="M6.905 5.624s-1.687-1.557-2.41-1.63c-.555-.056-1.849 1-1.849 1s-.71 4.658.153 5.65c.413.473 1.716.592 2.698.613.651.013 1.193-.495 1.22-1.145l.188-4.488z" transform="translate(18 71) translate(259 107.518)"/>
            <path d="M9.748 7.065c-.45-.489-1.21-.521-1.698-.072L5.818 9.046l.764 1.562 3.166-3.543zM7.615 2.314c.563.35.737 1.09.387 1.654l-1.6 2.577-1.02-.633 2.233-3.598z" transform="translate(18 71) translate(259 107.518)"/>
            <path d="M6.762.622c.595.295.803 1.086.464 1.767L5.681 5.5l-1.075-.534L6.762.622z" transform="translate(18 71) translate(259 107.518)"/>
            <path d="M5.73.405c.595.295.802 1.086.464 1.767L4.65 5.282 3.573 4.75 5.73.405z" transform="translate(18 71) translate(259 107.518)"/>
            <path d="M4.912 1.075c.576.33.738 1.131.361 1.791l-1.72 3.017-.907-.889 2.266-3.919zM5.696 10.889L3.577 9.016.527 13.092 2.64 14.877z" transform="translate(18 71) translate(259 107.518)"/>
        </g>
        <g transform="translate(18 71) translate(256 117.518)">
            <mask id="prefix__u" fill="#fff">
                <use xlink:href="#prefix__s"/>
            </mask>
            <path fill="url(#prefix__t)" d="M0.812 2.983L4.136 7.361 7.106 5.107 3.782 0.729z" mask="url(#prefix__u)"/>
        </g>
        <g>
            <path fill="#A29C8F" d="M138.357 158.243c-.274.378-.803.462-1.181.187s-.462-.804-.188-1.182c.274-.38.804-.462 1.183-.188.377.276.46.804.186 1.183M89.267 114.06c-.37.286-.9.218-1.187-.152-.286-.37-.217-.902.152-1.187.37-.286.901-.218 1.187.152.285.37.217.9-.152 1.187" transform="translate(18 71) translate(171 6.518)"/>
            <path fill="#FB8875" d="M42.29 141.213c.896 1.423.966 2.989.158 3.499-.81.508-2.19-.234-3.086-1.657-.895-1.424-.966-2.99-.157-3.499.808-.508 2.189.234 3.085 1.656" transform="translate(18 71) translate(171 6.518)"/>
            <path fill="#352E73" d="M42.684 144.631c-.04.694-.634 1.225-1.328 1.185-.694-.04-1.225-.635-1.186-1.329.04-.694.636-1.225 1.33-1.186.693.04 1.224.636 1.184 1.33" transform="translate(18 71) translate(171 6.518)"/>
            <path fill="#FFAF12" d="M135.192 153.316s-35.58 10.374-45.75 13.559c-.377.117-.76.263-1.143.423-7.778-2.286-18.15-5.335-22.936-6.756-4.575-1.357-8.39-2.633-11.245-3.377-14.126-3.683-9.82-.034-15.678 6.374l1.297 1.606s35.28 18.034 48.2 17.531c3.578.359 7.981-.224 13.16-.636 10.637-.849 28.457-5.085 34.666-17.397 2.221-4.403-.57-11.327-.57-11.327" transform="translate(18 71) translate(171 6.518)"/>
            <path fill="#FFB68E" d="M42.616 155.47c-.91-.276-1.423-1.239-1.146-2.148l1.632-5.359c.278-.91 1.24-1.423 2.149-1.145.91.277 1.423 1.238 1.146 2.15l-1.633 5.356c-.276.911-1.24 1.423-2.148 1.146" transform="translate(18 71) translate(171 6.518)"/>
            <path fill="#FFA087" d="M46.412 149.555c.454-1.099.11-2.284-.77-2.647-.879-.363-1.959.234-2.413 1.334l-1.187 2.876c-.248.6 1.191.868 2.483.304.845-.369 1.42-.735 1.42-.735l.467-1.132z" transform="translate(18 71) translate(171 6.518)"/>
            <path fill="#FFAF12" d="M45.782 204.424s-8.491 2.611-21.6-1.834c-12.001-4.069-14.117-9.263-14.117-9.263l6.27-36.796c2.162-6.653 7.563-9.034 17.41-5.835l18.224 5.92c9.256 4.31 4.314 17.34 1.917 24.836-2.32 7.26-8.104 22.972-8.104 22.972" transform="translate(18 71) translate(171 6.518)"/>
            <path fill="#FFB68E" d="M41.844 139.314c.238-3.667 2.522-6.573 5.92-6.89 7.27-.674 6.578 8.234 5.924 12.334-.528 3.31-2.307 6.033-2.307 6.033s-3.724.188-5.99-1.17c-2.037-1.221-3.51-2.402-3.592-5.995-.075-3.207-.055-2.77.045-4.312" transform="translate(18 71) translate(171 6.518)"/>
            <path fill="#57575E" d="M41.151 164.313c3.523-5.748 2.956-20.476 2.194-22.736 6.164-2.771 11.065-10.264 8.583-13.2-1.153-1.364-4.991-3.04-7.161-1.108-1.412-2.256-10.967-6.457-18.131.96-2.964 3.07-9.359 17.11-9.665 18.822-.52-.031-4.823-2.972-12.404 3.398-1.137.956-3.624 5.157-4.208 8.402-.921 5.122.16 12.118 9.112 16.03 4.132 1.807 12.181 4.045 17.994 1.732 5.602-2.222 9.695-5.78 13.686-12.3" transform="translate(18 71) translate(171 6.518)"/>
            <path fill="#A29C8F" d="M9.47 174.88c4.576 2.034 9.62 3.445 14.773 2.947 5.16-.765 9.715-3.676 13.219-7.425 1.724-1.922 3.217-3.973 4.51-6.227 1.258-2.377 1.765-4.932 2.14-7.457.613-5.114.895-10.07-.1-15.366l-.378.866c3.942-1.92 7.224-5.066 8.99-9.14.412-1.026.71-2.174.52-3.403-.14-1.294-1.234-2.302-2.183-2.783-1.875-1.033-4.56-1.653-6.508.022l.716.102c-1.243-1.555-2.903-2.126-4.531-2.693-1.652-.508-3.397-.68-5.106-.542-3.451.23-6.63 1.972-8.895 4.447 2.404-2.351 5.61-3.856 8.924-3.893 1.646-.047 3.288.232 4.837.742 1.488.53 3.135 1.297 3.968 2.443.146.222.445.285.668.139l.049-.037c1.409-1.203 3.689-.718 5.303.256 1.89.889 1.839 2.884 1.05 4.726-1.594 3.625-4.785 6.65-8.38 8.33-.293.137-.448.45-.397.755l.019.113c.766 4.616.582 9.874.04 14.725-.328 2.44-.823 4.916-1.913 7.012-1.187 2.122-2.653 4.188-4.274 6.025-3.191 3.667-7.58 6.629-12.393 7.482-4.896.682-10-.364-14.667-2.165" transform="translate(18 71) translate(171 6.518)"/>
            <path fill="#FFDE8E" d="M338.613 77.245L322.923 107.803 136.059 29.885z" transform="translate(18 71) translate(171 6.518)"/>
            <path fill="#FFDE8E" d="M326.2 83.195c-1.329-.574-3.803-1.644-7.133-1.38-6.693.53-11.574 4.905-11.922 10.662.285.207 1.253.704 2.082 1.093l10.941 5.14 4.954-11.943c.56-1.373 1.148-2.912 1.307-3.472l-.23-.1zm-17.263 10.993c-2.502-1.17-2.492-1.374-2.482-1.609.296-6.176 5.46-10.882 12.557-11.445 3.498-.272 6.075.838 7.458 1.436.171.072.324.14.456.193l.14.063.056.131c.058.141.15.354-1.368 4.07l-5.23 12.603-11.587-5.442z" transform="translate(18 71) translate(171 6.518)"/>
            <path fill="#FFAF12" d="M329.834 74.077l-4.226 8.498c-1.446-.59-3.687-1.329-6.567-1.1-6.003.475-11.18 4.123-12.107 9.841L156.086 30.65l-1.529 3.801 164.544 66.175c.221.088.446.136.672.146.79.036 1.557-.39 1.927-1.134l11.801-23.735-3.667-1.825z" transform="translate(18 71) translate(171 6.518)"/>
            <path fill="#FFAF12" d="M359.656 33.596L353.496 45.126 136.059 29.885 251.737 25.137z" transform="translate(18 71) translate(171 6.518)"/>
            <path fill="#FFDE8E" d="M374.837 6.074L342.26.777 328.84 2.67l37.279 5.254c.671.094 1.252.514 1.551 1.122.3.609.279 1.325-.055 1.916l-12.778 22.554 4.819.079 15.181-27.522z" transform="translate(18 71) translate(171 6.518)"/>
            <path fill="#FFDE8E" d="M349.227 10.32c.01-.214.034-.422.054-.632l-35.105-4.947L136.06 29.884l214.114 3.555 6.621-11.687c-4.599-1.73-7.784-6.256-7.567-11.433" transform="translate(18 71) translate(171 6.518)"/>
            <path fill="#FFAF12" d="M320.289 16.41c-5.158-2.085-11.301 1.073-13.722 7.056-1.28 3.164-1.252 6.478-.188 9.213l9.635.175-3.564-4.67c-.056-.07-.098-.154-.124-.247-.054-.183-.042-.385.033-.56.075-.177.207-.312.366-.378.08-.032.163-.046.245-.041l2.529.15c.824.049 1.556-.525 1.868-1.362l-4.31-.255c-.35-.021-.613-.367-.59-.772.026-.405.328-.717.677-.696l4.31.256c-.211-.868-.87-1.525-1.693-1.574l-2.53-.15c-.35-.02-.612-.366-.588-.771.023-.405.326-.717.675-.696l2.53.15 3.794.225c.349.02.612.366.588.77-.024.407-.326.719-.675.698l-1.282-.076c.254.445.435.95.498 1.502l.697.04c.348.022.613.367.588.772-.024.405-.327.717-.676.697l-.696-.042c-.393 1.656-1.744 2.842-3.271 2.752l-1.003-.06 3.336 4.37 6.497.118c.379-.62.718-1.28 1.002-1.981 2.42-5.983.202-12.525-4.956-14.612" transform="translate(18 71) translate(171 6.518)"/>
            <path fill="#FFDE8E" d="M315.412 28.575c1.527.09 2.878-1.096 3.271-2.75l.697.04c.35.021.652-.29.676-.696.024-.406-.24-.75-.589-.772l-.697-.04c-.062-.553-.243-1.058-.497-1.503l1.281.076c.35.021.652-.29.676-.696.024-.405-.24-.75-.589-.77l-3.794-.226-2.529-.15c-.349-.02-.652.291-.676.695-.024.406.24.751.59.772l2.528.15c.823.05 1.483.705 1.694 1.573l-4.31-.256c-.349-.02-.652.292-.676.697-.024.405.24.75.59.771l4.31.255c-.314.838-1.046 1.411-1.869 1.362l-2.529-.15c-.082-.005-.166.01-.246.042-.158.066-.29.201-.366.377-.075.176-.087.378-.033.561.026.093.068.176.124.247l3.565 4.67 1.731.031-3.336-4.37 1.003.06z" transform="translate(18 71) translate(171 6.518)"/>
            <path fill="#FFAF12" d="M276.131 32.364s-.101-1.006-.172-1.5c-1.11-7.69-5.563-13.784-11.947-15.189-7.909-1.74-16.15 4.293-19.817 13.897-.247.647-.65 2.206-.65 2.206l32.586.586z" transform="translate(18 71) translate(171 6.518)"/>
            <path fill="#FFDE8E" d="M367.67 9.047c-.298-.608-.88-1.028-1.55-1.123l-37.28-5.253-14.664 2.07 35.105 4.947c-.02.21-.046.419-.053.631-.219 5.178 2.967 9.703 7.567 11.433l-6.622 11.687 4.664.078 12.779-22.554c.333-.591.353-1.307.055-1.916" transform="translate(18 71) translate(171 6.518)"/>
            <path fill="#FFAF12" d="M367.67 9.047c-.298-.608-.88-1.028-1.55-1.123l-37.28-5.253-14.664 2.07 35.105 4.947c-.02.21-.046.419-.053.631-.219 5.178 2.967 9.703 7.567 11.433l-6.622 11.687 4.664.078 12.779-22.554c.333-.591.353-1.307.055-1.916" transform="translate(18 71) translate(171 6.518)"/>
            <path fill="#FFDE8E" d="M361.505 59.97c.254-.317.524-.612.803-.896l-15.642-15.845.188-.185-210.795-13.16 204.433 53.81 20.663-9.605c-2.984-4.15-2.996-9.927.35-14.118" transform="translate(18 71) translate(171 6.518)"/>
            <path fill="#FFDE8E" d="M387.945 72.113l-27.63-28.23-7.72-.481 24.47 24.79c.467.475.675 1.146.557 1.803-.119.655-.549 1.212-1.153 1.493l-29.773 13.84 7.431 1.955 33.818-15.17z" transform="translate(18 71) translate(171 6.518)"/>
        </g>
        <g transform="translate(18 71) translate(517 48.518)">
            <mask id="prefix__x" fill="#fff">
                <use xlink:href="#prefix__v"/>
            </mask>
            <path fill="url(#prefix__w)" d="M6.594 1.402l-5.74-.358 5.74.358z" mask="url(#prefix__x)"/>
        </g>
        <g>
            <path fill="#FFDE8E" d="M125.622 32.995c.118-.657-.09-1.328-.558-1.803l-24.47-24.79-5.74-.358-.188.185 15.642 15.845c-.279.284-.549.579-.803.897-3.346 4.19-3.335 9.969-.35 14.118l-20.663 9.606 6.205 1.633 29.773-13.84c.604-.281 1.033-.838 1.152-1.493" transform="translate(18 71) translate(423 43.518)"/>
            <path fill="#FFAF12" d="M125.622 32.995c.118-.657-.09-1.328-.558-1.803l-24.47-24.79-5.74-.358-.188.185 15.642 15.845c-.279.284-.549.579-.803.897-3.346 4.19-3.335 9.969-.35 14.118l-20.663 9.606 6.205 1.633 29.773-13.84c.604-.281 1.033-.838 1.152-1.493M52.595 16.912c-2.638 6.521-.22 13.651 5.402 15.926 5.62 2.275 12.317-1.168 14.956-7.689 2.638-6.52.22-13.652-5.402-15.926-5.622-2.274-12.317 1.168-14.956 7.69" transform="translate(18 71) translate(423 43.518)"/>
            <path fill="#FFDE8E" d="M65.421 17.2c.35.021.652-.29.676-.696.025-.405-.24-.75-.588-.77l-3.794-.226-2.53-.15c-.349-.02-.652.291-.675.696-.026.405.24.75.589.771l2.529.15c.822.05 1.481.705 1.693 1.573l-4.31-.255c-.35-.02-.652.291-.675.696-.024.405.239.751.587.771l4.31.255c-.311.838-1.043 1.412-1.866 1.363l-2.53-.15c-.083-.006-.166.01-.245.041-.158.066-.291.201-.367.377-.075.176-.087.378-.032.561.026.093.068.176.123.247l4.71 6.168c.114.152.272.233.434.243.163.01.328-.053.46-.188.264-.27.293-.737.063-1.038l-3.706-4.854 1.002.06c1.527.091 2.878-1.096 3.271-2.75l.698.04c.349.021.651-.29.674-.696.025-.405-.239-.75-.587-.77l-.697-.043c-.064-.55-.244-1.057-.498-1.502l1.281.076z" transform="translate(18 71) translate(423 43.518)"/>
            <path fill="#FFAF12" d="M.92.028S.883.465.87.682C.32 8.942 3.748 16.248 10.122 18.8 18.678 22.225 29.3 15.788 33.85 4.424c.214-.533.41-1.067.59-1.602.075-.227.218-.682.218-.682L.922.028z" transform="translate(18 71) translate(423 43.518)"/>
        </g>
        <g transform="translate(18 71) translate(484 44.518)">
            <mask id="prefix__A" fill="#fff">
                <use xlink:href="#prefix__y"/>
            </mask>
            <path fill="url(#prefix__z)" d="M1.672.711L1.109.677c.187.016.375.03.563.034" mask="url(#prefix__A)"/>
        </g>
        <g>
            <path fill="#FFAC34" d="M100.578 126.726C96.74 99.175 71.293 79.953 43.742 83.792 16.192 87.63-3.032 113.077.808 140.627c3.838 27.552 29.284 46.774 56.836 42.936 27.55-3.84 46.773-29.286 42.934-56.837" transform="translate(18 71) translate(77 212.518)"/>
            <path fill="#FFBC3F" d="M89.364 128.288c-2.976-21.357-22.702-36.259-44.06-33.283-21.358 2.975-36.259 22.702-33.283 44.06 2.976 21.358 22.702 36.26 44.06 33.284 21.357-2.977 36.26-22.704 33.283-44.06" transform="translate(18 71) translate(77 212.518)"/>
            <path fill="#FFA331" d="M61.648 115.88c1.21 0 2.191-1.138 2.191-2.541s-.982-2.543-2.19-2.543h-21.91c-1.21 0-2.19 1.14-2.19 2.543 0 1.403.98 2.542 2.19 2.542h8.764c2.852 0 5.262 2.13 6.17 5.085H39.738c-1.21 0-2.19 1.139-2.19 2.542 0 1.403.98 2.542 2.19 2.542h14.933c-.907 2.954-3.317 5.085-6.169 5.085H39.74c-.285 0-.57.065-.837.193-.535.259-.964.752-1.188 1.378-.223.62-.223 1.32 0 1.942.11.315.272.595.478.829l17.523 20.333c.43.498.99.748 1.551.748.561 0 1.122-.25 1.551-.743.855-.992.855-2.603 0-3.595l-13.789-16.001h3.475c5.293 0 9.714-4.372 10.73-10.17h2.415c1.21 0 2.191-1.138 2.191-2.541s-.982-2.542-2.19-2.542h-2.416c-.328-1.892-1.055-3.601-2.024-5.085h4.44z" transform="translate(18 71) translate(77 212.518)"/>
            <path fill="#FFAF12" d="M224.965 5.377v35.005c0 2.592 2.102 4.693 4.692 4.693h44.292c2.592 0 4.693-2.102 4.693-4.694V29.91l2.348-2.348 4.692-4.69-4.692-4.69-2.348-2.346V5.375c0-2.59-2.1-4.692-4.692-4.692h-44.292c-2.59 0-4.692 2.101-4.692 4.692" transform="translate(18 71) translate(77 212.518)"/>
            <path fill="#FFF" d="M239.497 22.155L239.497 22.24 246.322 25.114 246.322 28.951 235.858 23.783 235.858 20.527 246.322 15.372 246.322 19.196zM250.612 31.642L247.723 31.642 253.841 9.256 256.758 9.256zM265.437 22.183L265.437 22.098 258.541 19.181 258.541 15.372 269.09 20.526 269.09 23.783 258.541 28.951 258.541 25.142z" transform="translate(18 71) translate(77 212.518)"/>
            <path fill="#FFAF12" d="M231.815 62.406h-27.408c-1.682 0-3.046 1.363-3.046 3.045v21.318c0 1.682 1.364 3.045 3.046 3.045h9.142l1.522 1.523 3.044 3.045 3.044-3.045 1.523-1.523h9.133c1.682 0 3.045-1.363 3.045-3.045V65.45c0-1.682-1.363-3.045-3.045-3.045" transform="translate(18 71) translate(77 212.518)"/>
            <path fill="#FFF" d="M212.863 84.34c-1.023-.337-1.752-.873-2.187-1.608-.436-.735-.652-1.623-.652-2.665v-1.893c0-.6-.104-1.07-.313-1.41-.208-.34-.523-.51-.946-.51v-1.857c.423 0 .738-.168.946-.505.209-.337.313-.809.313-1.415v-1.903c0-1.047.216-1.937.652-2.669.435-.732 1.164-1.267 2.187-1.603l.487 1.442c-.38.19-.643.526-.79 1.007-.148.481-.221 1.09-.221 1.823v1.903c0 .637-.125 1.202-.376 1.695-.252.494-.631.878-1.14 1.153.502.282.88.67 1.135 1.163.254.493.38 1.055.38 1.686v1.893c0 .735.073 1.342.217 1.82.144.477.409.811.795 1.001l-.487 1.452zM222.383 82.889c.38-.19.646-.524.799-1.002.154-.477.23-1.084.23-1.82v-1.892c0-.638.125-1.203.377-1.696.25-.493.637-.877 1.158-1.153-.521-.27-.907-.651-1.158-1.144-.252-.493-.377-1.061-.377-1.705v-1.902c0-.735-.076-1.343-.23-1.824-.153-.481-.42-.816-.8-1.006l.488-1.442c1.017.336 1.744.87 2.182 1.603.438.732.657 1.622.657 2.669v1.902c0 .613.103 1.086.308 1.42.205.334.529.5.97.5v1.857c-.441 0-.765.169-.97.506-.205.337-.308.808-.308 1.415v1.893c0 1.04-.22 1.929-.657 2.664-.438.736-1.165 1.272-2.182 1.609l-.487-1.452z" transform="translate(18 71) translate(77 212.518)"/>
        </g>
    </g>
</svg>
