<svg xmlns="http://www.w3.org/2000/svg" xmlns:xlink="http://www.w3.org/1999/xlink" width="630" height="481" viewBox="0 0 630 481"><defs/><defs><path id="a" d="M0 408h593.2V.5H0z"/><path id="c" d="M5.7.8c-1.5 0-2.9.7-3.9 1.7S.3 4.9.3 6.3c0 3 2.5 5.3 5.4 5.3h.1c1.5 0 2.9-.6 3.9-1.7 1-1 1.5-2.3 1.5-3.8 0-3-2.5-5.3-5.5-5.3M2 6.3c0-1 .3-2 1-2.6.7-.7 1.7-1.1 2.7-1.2 2.1 0 3.8 1.6 3.8 3.6 0 1-.3 2-1 2.7-.7.7-1.7 1-2.7 1-2 0-3.8-1.5-3.8-3.5"/><path id="f" d="M7 .5a7 7 0 00-6.8 7 7 7 0 007 7A7 7 0 0014 7.2 7 7 0 007.1.5H7"/><path id="i" d="M4 0A3.9 3.9 0 00.2 4c0 2 1.8 3.8 4 3.8 2 0 3.7-1.9 3.7-4S6 0 4 0"/><path id="l" d="M.9.3h142.3v132H.9z"/><path id="n" d="M0 1h569.3v21H0z"/><path id="p" d="M.2 1.9L1.9 7l3.6-1.2L3.7.7z"/><path id="s" d="M.8 3l3.3 4.4 3-2.3L3.8.7z"/><path id="v" d="M6.6 1.4L.9 1l5.7.4z"/><path id="y" d="M1.7.7H1h.6"/><linearGradient id="d" x1="100%" x2="0%" y1="50%" y2="50%"><stop offset="0%" stop-color="#FBB62B"/><stop offset="100%" stop-color="#FFCF44"/></linearGradient><linearGradient id="g" x1="100%" x2="0%" y1="50%" y2="50%"><stop offset="0%" stop-color="#FBB62B"/><stop offset="100%" stop-color="#FFCF44"/></linearGradient><linearGradient id="j" x1="100%" x2="0%" y1="50%" y2="50%"><stop offset="0%" stop-color="#FBB62B"/><stop offset="100%" stop-color="#FFCF44"/></linearGradient><linearGradient id="q" x1="0%" x2="100%" y1="50%" y2="50%"><stop offset="0%" stop-color="#FBC13F"/><stop offset="100%" stop-color="#FF871C"/></linearGradient><linearGradient id="t" x1="0%" x2="100%" y1="50%" y2="50%"><stop offset="0%" stop-color="#FBC13F"/><stop offset="100%" stop-color="#FF871C"/></linearGradient><linearGradient id="w" x1="-113.1%" x2="538.6%" y1="49.9%" y2="50.4%"><stop offset="0%" stop-color="#FBB62B"/><stop offset="100%" stop-color="#FFCF44"/></linearGradient><linearGradient id="z" x1="-1181.1%" x2="639.3%" y1="-536.2%" y2="330.6%"><stop offset="0%" stop-color="#FBB62B"/><stop offset="100%" stop-color="#FFCF44"/></linearGradient></defs><g fill="none" fill-rule="evenodd"><g transform="translate(18 71.5)"><path fill="#FFF4DD" d="M357 68.1A377.7 377.7 0 00222.7 8.6 331.2 331.2 0 00150.8.7c-10.4 0-21.5-1-31.8.4-10.8 1.5-21.2 9.7-31.4 15-12.5 6.3-24.9 14-36 25a119 119 0 00-33.9 76.3c-1.8 31.4 12.1 65.5 33 70.7 3.9 1 8.3 1.2 11 5.6 4.5 7.4 0 19.9-6.2 24.1-6 4.3-13.2 4.1-19.3 8.4-12.3 8.8-16 34.4-10.8 53.3A85.4 85.4 0 0054 322.1c56.5 48.5 125.5 46 190.6 42.1 3-.1 6.4-.4 8.9-3.3 2.5-2.8 3.3-9.2.8-12 99.1-.3 196.5 68.1 294.6 46.8 12.8-2.8 27.6-9.6 32-27.9 4-16.9-3-35-10.3-49-45.8-86.9-118.2-131.6-188.8-164.4a40.3 40.3 0 01-17.4-12.4c-4.8-6.6-7.3-18-4-26.3 2.9-6.8 8.9-10 11-17.4 3.7-12.6-6-24.4-14.4-30.2"/><mask id="b" fill="#fff"><use xlink:href="#a"/></mask><path fill="#FFF" d="M58.4 320.3h330.4V62.1H58.4z" mask="url(#b)"/><path fill="#F7E8C8" d="M58.4 61.4h330.4V46.1H58.4z" mask="url(#b)"/><path fill="#FFF" d="M69.6 53.8a3 3 0 11-6.1 0 3 3 0 016 0" mask="url(#b)"/><path fill="#FFC40E" d="M79.3 53.8a3 3 0 11-6.2 0 3 3 0 016.2 0" mask="url(#b)"/><path fill="#619440" d="M89 53.8a3 3 0 11-6.2 0 3 3 0 016.1 0" mask="url(#b)"/><path fill="#F7E8C8" d="M108.7 89.2H178v-4.9h-69.4zm5.7 11.1h11.5v-4.9h-11.5zm0 11.1h11.5v-4.9h-11.5zm0 11.1h11.5v-4.9h-11.5zm34-22.2h35.1v-4.9h-35.2zm0 11.1h35.1v-4.9h-35.2zm0 11.1h35.1v-4.9h-35.2zm-17.6-22.2h8.1v-4.9h-8zm0 11.1h8.1v-4.9h-8zm0 11.1h8.1v-4.9h-8z" mask="url(#b)"/><path fill="#FFAF12" d="M142.4 100.3h2.2v-4.9h-2.2zm0 11.1h2.2v-4.9h-2.2zm0 11.1h2.2v-4.9h-2.2zM109 100.3h2.2v-4.9h-2.2zm0 11.1h2.2v-4.9h-2.2zm0 11.1h2.2v-4.9h-2.2z" mask="url(#b)"/><path fill="#F7E8C8" d="M114.4 144.7H132v-4.9h-17.7zm42.3 0h26.8v-4.9h-26.8zm-19.6 0h10.2v-4.9H137z" mask="url(#b)"/><path fill="#FFAF12" d="M150.8 144.7h2.1v-4.9h-2.1z" mask="url(#b)"/><path fill="#F7E8C8" d="M184.6 166.9h83.2V162h-83.2zm-46.5 0h40V162h-40zm76.8-22.2h26.8v-4.9H215zm-23.8 0h14.4v-4.9H191z" mask="url(#b)"/><path fill="#FFAF12" d="M209 144.7h2.1v-4.9H209zm35.5 0h2.1v-4.9h-2.1zm-135.6 0h2.2v-4.9h-2.2z" mask="url(#b)"/><path fill="#F7E8C8" d="M114.4 189.1H132v-4.9h-17.7zm-5.5 0h2.2v-4.9h-2.2zm26.6 0h2.2v-4.9h-2.2zm-34.7 44.4h17.8v-4.9h-17.8zm-5.5 0h2.2v-4.9h-2.2zm26.7 0h2.1v-4.9H122z" mask="url(#b)"/><path fill="#FFAF12" d="M123.8 178h2.1v-4.9h-2.1z" mask="url(#b)"/><path fill="#F7E8C8" d="M123.8 155.8h10.4v-4.9h-10.4z" mask="url(#b)"/><path fill="#FFAF12" d="M138.1 155.8h40.7v-4.9h-40.7z" mask="url(#b)"/><path fill="#F7E8C8" d="M208.3 100.3h35.3v-4.9h-35.3zm0 11.1h35.3v-4.9h-35.3zm0 11.1h35.3v-4.9h-35.3zm37.1-22.2H307v-4.9h-61.6zm0 11.1h84.3v-4.9h-84.3zm0 11.1h99.4v-4.9h-99.4zm-54.5-22.2h8v-4.9h-8zm0 11.1h8v-4.9h-8zm0 11.1h8v-4.9h-8z" mask="url(#b)"/><path fill="#FFAF12" d="M202.4 100.3h2.2v-4.9h-2.2zm0 11.1h2.2v-4.9h-2.2zm0 11.1h2.2v-4.9h-2.2zm112.7-22.2h2.1v-4.9h-2.1zm20.7 11.1h2.1v-4.9h-2.1zm14 11.1h2.2v-4.9H350z" mask="url(#b)"/><path fill="#F7E8C8" d="M108.7 133.6H178v-4.9h-69.4zm-8.4 123.5h11.5v-4.9h-11.5zm26.9 22.2h11.5v-4.9h-11.5zm33.9 0h76.2v-4.9h-76.2zm-51.7-11.1h111.7v-4.9H109.4zm34.2 11.1h8.1v-4.9h-8z" mask="url(#b)"/><path fill="#FFAF12" d="M155.2 279.3h2.2v-4.9h-2.2zm-60.4-22.2H97v-4.9h-2.2zm19.6 0h2.1v-4.9h-2.1z" mask="url(#b)"/><path fill="#F7E8C8" d="M142.6 290.4h5.2v-4.9h-5.2z" mask="url(#b)"/><path fill="#FFAF12" d="M137.1 290.4h2.1v-4.9h-2.1zm13.3 0h2.2v-4.9h-2.2z" mask="url(#b)"/><path fill="#F7E8C8" d="M157.2 312.6h5.2v-4.9h-5.2z" mask="url(#b)"/><path fill="#FFAF12" d="M151.7 312.6h2.2v-4.9h-2.2zm13.3 0h2.2v-4.9H165zm-43.3-33.3h2.2v-4.9h-2.2z" mask="url(#b)"/><path fill="#F7E8C8" d="M152 301.5H262v-4.9H152z" mask="url(#b)"/><path fill="#FFAF12" d="M240 279.3h2v-4.9h-2z" mask="url(#b)"/><path fill="#F7E8C8" d="M108.7 200.2h95.5v-4.9h-95.5zm0 11.1H250v-4.9H108.7zm0 11h48v-4.8h-48z" mask="url(#b)"/><path fill="#FFAF12" d="M70.5 89.2h5.3v-4.9h-5.3zm0 11.1h5.3v-4.9h-5.3zm0 11.1h5.3v-4.9h-5.3zm0 11.1h5.3v-4.9h-5.3zm0 11.1h5.3v-4.9h-5.3zm0 11.1h5.3v-4.9h-5.3zm0 11.1h5.3v-4.9h-5.3zm0 11.1h5.3V162h-5.3zm0 11.1h5.3v-4.9h-5.3zm0 11.1h5.3v-4.9h-5.3zm0 11.1h5.3v-4.9h-5.3zm0 11.1h5.3v-4.9h-5.3zm0 11h5.3v-4.8h-5.3zm0 11.2h5.3v-4.9h-5.3zm0 11h5.3v-4.8h-5.3zm0 11.2h5.3v-4.9h-5.3zm0 11h5.3V262h-5.3z" mask="url(#b)"/><path fill="#306B34" d="M28.5 270.9c-.2 1.2.2 2.5 1 3.5 1.5 2 4.5 2.3 6.6.7a4.7 4.7 0 00.8-6.6 4.7 4.7 0 00-6.6-.8c-1 .9-1.6 2-1.8 3.2m8.8 5.7a6.6 6.6 0 01-9.3-1 6.6 6.6 0 011.2-9.3 6.5 6.5 0 0110.6 6c-.3 1.6-1.1 3.2-2.5 4.3" mask="url(#b)"/><path fill="#619440" d="M102.8 367.4c-.7-3.4-2.7-14.7-6-16-3.6-1.3-8 .4-9.8 3.8-.8 1.5-1.1 3.2-2.6 4.2-.8.5-2 .5-2.6-.2-1.2-1.2 0-3 .8-4.3a15 15 0 003-8.4c0-3-1.3-6-3.9-7.7-2.5-1.7-6.2-1.5-8.3.8-1.3 1.3-1.8 3.3-3.5 4.4-.8.6-2 .7-2.8 0-1.7-1.2-.6-3.8.6-5.5 1.6-2.5 3-5.1 3.5-8 .4-3-.3-6.2-2.5-8.2-2.1-2-5.8-2.4-8-.5-.9.8-1.5 1.8-2.3 2.7-1 1-2.6 1.7-3.8.6-.8-.7-1-2-.6-3 .6-1.4 1.8-2.3 3-3.2 1.8-1.4 3-3.5 3.3-5.7.8-6.9-6.8-9.5-11-6.5-1.2.8-2.4 2.1-3.9 1.7-1.1-.3-1.7-1.5-1.6-2.7.2-2.4 2.2-3.7 3.2-5.6 1.9-3.5-.2-8.5-4-9.6-3-.8-3.7 3-5 6.3-.4.8-1.5.6-1.6-.2-.3-3.3-1.4-7.3-2.2-9.6-1.5-4-7.7-8.6-10.6-2.7-.8 1.6-.2 5.7.8 6.8 1.5 1.6 4.9 7.1 4.9 7.1.3.6-.4 1.3-1 1a9.8 9.8 0 00-4.5-1.8c-.7 0-1.5 0-2.2.3-4.3 1.4-3.6 6.7-1 9.3 2.4 2 5.6 2.8 8.6 3.5 1.6.4 3.2.9 4 2.4.5.8.4 2-.4 2.6-.8.7-1.8.3-2.7.2-3.1-.4-6 2.6-5.9 5.7 0 3.1 2.3 5.9 5.1 7.2 2.8 1.4 6 1.6 9 1.4 1.6 0 3.3-.2 4.5 1 .7.6.9 1.7.3 2.5-.9 1.1-2.4.6-3.8.6-3.7-.3-6.6 3.8-6 7.5.6 3.6 3.8 6.4 7.3 7.5 4 1.3 8.3.7 12.4.2 1-.2 1.9.4 2.2 1.3.4 1.3-.8 2-1.7 2.6a9.9 9.9 0 00-3.1 11.7c1.8 4 6.5 6.4 10.7 5.5 2.7-.6 5.2-2.3 8.1-1.5 1.5.5 2.5 1.9 2.2 3.3-.3 2-2.4 2.5-4 3.3-4.4 2.5-5 9-2.2 13.2 2.9 4 12 4.2 17 3.9 5-.3 15.5-.8 20.8-4.2 2.5-1.6.6-17.5-.2-21" mask="url(#b)"/><path fill="#306B34" d="M23.6 284.3c-.8 1.6-.2 5.7.8 6.8 1.5 1.6 4.9 7.1 4.9 7.1.3.6-.4 1.3-1 1a9.8 9.8 0 00-4.5-1.8c-.7 0-1.5 0-2.2.3-4.3 1.4-3.6 6.7-1 9.3 2.4 2 5.6 2.8 8.6 3.5 1.6.4 3.2.9 4 2.4.5.8.4 2-.4 2.6-.8.7-1.8.3-2.7.2-3.1-.4-6 2.6-5.9 5.7 0 3.1 2.3 5.9 5.1 7.3 2.8 1.3 6 1.5 9 1.3 1.6 0 3.3-.2 4.5 1 .7.6.9 1.7.3 2.5-.9 1.1-2.5.6-3.8.6-3.7-.3-6.6 3.8-6 7.5.6 3.6 3.8 6.4 7.3 7.5 4 1.3 8.3.7 12.4.2 1-.2 1.9.4 2.2 1.3.4 1.3-.8 2-1.7 2.6a9.9 9.9 0 00-3.1 11.7c1.8 4 6.5 6.4 10.7 5.5 2.7-.6 5.2-2.3 8.1-1.5 1.5.5 2.5 1.9 2.2 3.3-.3 2-2.4 2.5-4 3.3-4.4 2.5-8.8 11.8-6 16 3 4 15.9 1.4 20.9 1 4.6-.2 14-.6 19.6-3.4l1.1-.7s-27.6-24-51.4-55.7c-13.3-17.7-25-51-25-51s-.5 0-1 .4a8 8 0 00-2 2.2" mask="url(#b)"/></g><g transform="translate(54 347.5)"><mask id="e" fill="#fff"><use xlink:href="#c"/></mask><path fill="url(#d)" d="M5.7.8c-1.5 0-2.9.7-3.9 1.7S.3 4.9.3 6.3c0 3 2.5 5.3 5.4 5.3h.1c1.5 0 2.9-.6 3.9-1.7 1-1 1.5-2.3 1.5-3.8 0-3-2.5-5.3-5.5-5.3M2 6.3c0-1 .3-2 1-2.6.7-.7 1.7-1.1 2.7-1.2 2.1 0 3.8 1.6 3.8 3.6 0 1-.3 2-1 2.7-.7.7-1.7 1-2.7 1-2 0-3.8-1.5-3.8-3.5" mask="url(#e)"/></g><g transform="translate(69 359.5)"><mask id="h" fill="#fff"><use xlink:href="#f"/></mask><path fill="url(#g)" d="M7 .5a7 7 0 00-6.8 7 7 7 0 007 7A7 7 0 0014 7.2 7 7 0 007.1.5H7" mask="url(#h)"/></g><g transform="translate(27 397.5)"><mask id="k" fill="#fff"><use xlink:href="#i"/></mask><path fill="url(#j)" d="M4 0A3.9 3.9 0 00.2 4c0 2 1.8 3.8 4 3.8 2 0 3.7-1.9 3.7-4S6 0 4 0" mask="url(#k)"/></g><path fill="#619440" d="M577.1 260c-.4-12 7.6-23.6 5-35.4-1.8-7.6-8-12-15.2-9.6-9 3-12.8 12.5-16 21.2a40.2 40.2 0 01-9.4 16.3c-4 4-8.8 6.7-13.2 10.2a38.6 38.6 0 00-14.1 23.2c-2.5 11-2.9 23.8-11.6 31.6-7 6.4-17.8 8.4-22 18.2-4.5 10.7 2.6 26.8-8 34.1-4.4 3.1-9.4 4.4-13.4 8.3a33 33 0 00-7.3 11c-3.7 9-3.8 19.3.5 27.8.2.4.5.6.8.7 3.2 9 7 18.3 14.4 24 6.5 5.2 15.3 7.3 22.7 2.8 12.7-7.5 14.3-26 23.4-37 3.2-3.8 7.1-5.9 12-6.2 5.3-.4 10.5 1.2 15.7-.5 7.7-2.7 11.8-10.5 13.8-18.4 3-12 0-25.2 5.3-36.6 4.7-10.2 15-15.7 20-25.6 9.8-19.1-2.6-40.6-3.4-60.2"/><path fill="#496B32" d="M564 239c-1.8 14.5-8.5 27.6-14.7 40.5a2534 2534 0 01-18.5 38.1 727.9 727.9 0 01-41.1 73.3c-8.6 13-17.7 25.8-27.8 37.8-1 1.2.8 3 1.8 1.8 18-21.7 33.4-45.4 47.2-69.9 14-24.8 26.5-50.5 38.8-76.2 7-14.5 14.8-29.1 16.9-45.3.2-1.6-2.3-1.6-2.5 0"/><path fill="#496B32" d="M482.5 404.5c0-13.5-.1-27-.6-40.6 0-1.6-2.5-1.6-2.5 0 .5 13.5.7 27 .6 40.6 0 1.6 2.5 1.6 2.5 0M497 385c3.7-1.3 7.7-1.3 11.6-1.4a159.2 159.2 0 0025-2.4c3.8-.7 7.6-1.6 11-3.4 1.5-.7.2-2.9-1.2-2.1a38 38 0 01-11.2 3.2 155.1 155.1 0 01-24.5 2.3c-3.8 0-7.7.1-11.4 1.4-1.5.6-.8 3 .7 2.4m19-33.8c1.4-4.3 1.3-8.8 1.2-13.2a382.5 382.5 0 011.8-43c.2-1.6-2.3-1.6-2.5 0a387.8 387.8 0 00-1.8 42c0 4.5.4 9.2-1 13.6-.5 1.5 1.9 2.2 2.4.6m16.4-31.9c13.6-1.3 26.8-5.1 39-11.1 1.5-.7.2-2.9-1.2-2.2a110 110 0 01-37.8 10.8c-1.6.2-1.6 2.7 0 2.5m18.6-38a70.7 70.7 0 01-2.3-26.2c.1-1.6-2.4-1.5-2.5 0-1 9-.1 18.2 2.3 27 .5 1.5 2.9.8 2.5-.7"/><path fill="#306B34" d="M528.7 311.2c-10.6-7-35.9 13.2-48.8 36.8l11-37a75.2 75.2 0 0123.4-15.6c18.3-8 36.5-20.2 26-27.3-10-6.6-33 10.9-46.3 32.6l14-47.5c2.8-2.5 7-5.7 13.3-8.4 11.5-5.1 23-12.7 16.3-17.2-5.8-3.9-18.6 5.3-27.2 17.5l4.6-15.4c2.1-4.5 5.2-11 10.1-17 11.5-13.9 20-29.3 10.8-31-9.2-1.6-23.4 25.2-25.1 48.8l-2.3 8c1.5-17.2-4.8-37.6-12.8-37.9-7.9-.3-2.6 12.8 4.2 23.9a49 49 0 017.1 18.8l-11 37.4c2.3-27.2-7.7-59.3-20.3-59.8-12.5-.5-4 20.3 6.6 37.9a78 78 0 0111.3 29.7l-13.2 44.8c1.8-26.8-8-58.8-20.4-58.2-9.5.4-6.2 14.8 5.8 34.6a89.7 89.7 0 0112 32.4l-6.3 21.2c1.2.8 2.4 1.2 3.6 1.1l2.5-8.4a72.4 72.4 0 0125.2-17.5c18.3-8.1 36.5-20.2 26-27.3"/><g transform="translate(468 334.5)"><mask id="m" fill="#fff"><use xlink:href="#l"/></mask><path fill="#FFAF12" d="M74.1 115.5c-5.7-12-36.8-8.2-58.9 5.3L42 94.6a68.5 68.5 0 0127.3-.7c19.4 3 40.6 2.5 35-9.5-5.4-11.2-33.1-8.7-54.8 2.9l34.4-33.6a45 45 0 0115.2 0c12.2 1.8 25.6 1.5 22-6-3-6.6-18.3-5.7-31.4.2l11.1-10.8c4-2.8 9.7-6.7 16.7-9.2 16.4-5.8 30.9-14.5 23.8-21-7-6.6-31.8 9-44.4 28.6L91.2 41c9.4-14.2 13.6-35.3 7-40-6.6-4.6-8.2 9.8-7.7 23.1.4 10.2-1.5 17-2.8 20.3L60.7 71C75.3 48.5 82 15 71.6 7.8 61.1.5 58.5 23.2 59.3 44.4c.6 16-2.4 26.7-4.4 32l-32.5 31.8c14.2-22.4 21-55.6 10.2-61.9-8.3-4.8-12.3 9.5-11.4 33.4a94.3 94.3 0 01-5.2 34.7L1 129.4a6.5 6.5 0 002.4 3l6.1-6a65.8 65.8 0 0129.8-1.4c19.4 3 40.6 2.5 34.9-9.5" mask="url(#m)"/></g><g transform="translate(18 457.5)"><mask id="o" fill="#fff"><use xlink:href="#n"/></mask><path fill="#F7E8C8" d="M569.3 11.5C569.3 17.3 442 22 284.7 22 127.4 22 0 17.3 0 11.5S127.5 1 284.7 1s284.6 4.7 284.6 10.5" mask="url(#o)"/></g><path fill="#A29C8F" d="M411.3 310.2s15 3.3 35-2.5c20-5.9-18-80.9-18-80.9l-7.1.7s-12.4 64.1-9.9 82.7"/><path fill="#FCC23F" d="M449.5 172.6c1 .4-1.4 4.4 6.5 9 3.2 1.9 2.2 5.5 1.2 7.1.5.5.9 1 1.2 1.7 1.5 2.8 0 5.4-2.6 7.2-3.1 2.2-9.5 2.6-9.5 2.6l-7.6-7s1.3-3 2.2-4.5a6.8 6.8 0 013.8-3c-1.7-4.6 4.4-13.4 4.8-13.1"/><path fill="#FCDB9A" d="M440.9 188.7c.7-1.5 2-3 3.6-3.6l-.4.8c-.9-2.4-.3-4.8.5-7 .8-2 1.8-4 3.2-5.9l.6-.7.4-.4s1-.4 1.2-.1l.5.5c.3 1.1.1 1.4.2 2 .2.9.4 1.8 1 2.7a18 18 0 004.3 4.6c-2-.9-4-2-5.5-3.8a7 7 0 01-1.5-3.3l-.1-1.3.2.2c.1.3 1 0 .8 0l-.1.2-.5.6a36.5 36.5 0 00-3 5.4c-.8 2-1.5 4-1.1 5.9v.1c0 .3 0 .6-.4.6a7 7 0 00-3.9 2.5"/><path fill="#FC988B" d="M530.5 452.7l2.2-3c.1-.2 0-.3 0-.4l-12.3-8.7h-.3l-2.2 3.2v.3l12.3 8.7h.3"/><path fill="#352E73" d="M530.7 464.5a1 1 0 001.3-.8l3.6-14.3c.2-.8-.3-1.5-1.1-1.6l-2.6-.4c-.7-.1-1.4.3-1.6 1 0 0 1 .7.8 2.1-.1 1.2-1 1.3-1.8 1.3-.3 0-.5.2-.5.6l1 11.2c.1.4.4.8.9 1"/><path fill="#FC988B" d="M349 462.6c1 .7 2.3.5 3-.4l6.8-9c.7-1-2.8-3.5-3.5-2.6l-6.7 9c-.7 1-.5 2.3.4 3"/><path fill="#352E73" d="M337.2 457.2a1 1 0 00.3 1.5l12.3 7.4c.6.4 1.5 0 1.7-.7l1.2-2.3c.4-.7.1-1.5-.5-1.9 0 0-1 .8-2.2.3-1-.5-.8-1.4-.6-2 .1-.3 0-.7-.4-.7l-10.7-2a1 1 0 00-1.1.4"/><path fill="#7F786A" d="M474.2 296.5c2 9.2 2.8 30.6.6 49-2.3 19.7 2.6 30 2.6 30s51 68 50.4 69.4l-9 13.5c-.3.4-58.3-45.2-73.4-69.7-7.2-11.6-14.4-50.3-20.4-83.8-2.1-11.3-3.6-34.4-3.6-34.4s21.7-4.8 35.7 2c12.5 5.9 15 15 17 24"/><path fill="#A29C8F" d="M479 326.1c-12 28-56.5 59.6-56.5 59.6s-12 21.2-16.6 28.6a321.4 321.4 0 01-38 47.5l-17.3-6.3s30-60 44.5-88.4c5.2-10.2 40.9-65.5 40.9-65.5s-5.2-30.1-3-32.6c4.9 0 36.8-3.3 36.8-3.3s21.4 32.5 9.3 60.4"/><path fill="#FB8875" d="M493 158.6c.3-.2.7-.1 1 .1.5.4 1.2 1 1.4 1.4v.8l-.6.6c-.8.4-3 1.7-4.1 1.4-.3 0-.5-.3-.6-.7-.5-1.3 0-2.6 1.1-3l1.8-.6z"/><path fill="#FB8875" d="M492.3 156.4c.6.3.5.9.2 1.4l-.4.5-.6 1.7-1.4.2 1-2.3 1.2-1.5zm3.4-.6c-.4-.3-.8 0-1 .6l-.3.8-1.6 1.8 1.3.2 1.4-1.9.2-1.5z"/><path fill="#FB8875" d="M498.4 156.7c-.4-.5-1.2-.5-1.7 0L494 159l1 .7 3.4-3z"/><path fill="#FB8875" d="M498.3 158c-.3-.4-1-.4-1.6 0l-2.4 2.1.6.8 3.4-3z"/><path fill="#FB8875" d="M498.2 159.5c-.2-.4-.9-.4-1-.3l-2.5 1.5v.8l3.5-2zm-8 .5l1.7 2.3-.5 2.8-2-.5z"/><path fill="#7F786A" d="M399.2 177.4l-9.4 14.5s7.4 18 29 32c9.9 6.3 13-7.8 20.3-17 0 0-6.9-1.5-8.6-2.6a369 369 0 01-31.3-27"/><path fill="#F5EFE4" d="M421.4 272.1s3 3 17.9 3.6c17.4.8 33.3-4.4 33-6.7-1.5-12.6-2.2-40.4-2.2-40.4-.2-9.6 6-19.8-15.7-20.8l-17.6-2c-10.3.1-16.1 13-17.5 27.9-1 10.1 2 38.4 2 38.4"/><path fill="#7F786A" d="M499.6 238.4c3.6-2.4-2-13.8-2-13.8S474.6 213 466.5 210c-10.8-4-11.7 16.3-11.7 16.3s32.6 19.9 44.9 12"/><path fill="#FFB68E" d="M439 208.6l5.5.7c.4 0 .7-.2.7-.5l1.3-10.5c0-.3-.1-.6-.5-.7l-5.6-.7c-.3 0-.6.2-.7.6l-1.3 10.4c0 .4.2.7.5.7"/><path fill="#FFA087" d="M439.1 200.6a3 3 0 012.7-3.3c1.7-.2 4.4 1 4.7 2.5l-.7 4.3c0 1-2.3.9-4.2-.3-1.3-.8-2.4-2-2.4-2v-1.2z"/><path fill="#FFB68E" d="M450 192.8c.9-3 0-6.2-2.7-7.5-4.3-2.2-8.1 5.4-9.1 8.9-1 3.9-.1 5.2-.1 5.2s2.4 1.5 4.8 1.4c2.1-.2 3.9-.2 5-3a59 59 0 002-5"/><path fill="#7F786A" d="M436.6 212l3.8 1.5c.2 0 .4 0 .4-.2l1.7-4.5-4.4-1.6-1.7 4.5c0 .1 0 .3.2.4"/><path fill="#7F786A" d="M426.2 245.8l4.4 6 7.2-5 2.4-36.7s-1.4-.5-1.7-.2c-12.9 15-12.3 35.9-12.3 35.9"/><path fill="#E7E1D3" d="M444 214l5.2-6.8-3.4-3-6 3.7z"/><path fill="#FFA087" d="M448.5 194.5c-1.2.9-1.8 2.2-1.3 2.8.5.7 1.9.5 3-.3 1.2-1 1.8-2.2 1.3-2.8-.5-.7-1.8-.5-3 .3"/><path fill="#FCC23F" d="M450.6 193.5s-3 2-2.7 4c.4 2.3-1.1 4.1-2.5 4.6s-8.8-.6-9.9-2.7c-1-2 2.7-5.1 2.7-5.1s1.2.6 1.5.5c.4-.1.5-1-1.1-1.8-.7-.3.3-1.2.5-1.2.2-.1 2.7.6 3.4 2.3.7 1.7.8 2.3 1.6 2.3s3.6-2.7 6.7-4.2l-.2 1.3z"/><path fill="#E1DCFF" d="M493.8 169.3v-5.7H487v5.7z"/><path fill="#FB8875" d="M410.4 123.2a1 1 0 00-1-.2c-.7.1-1.6.4-1.9.7-.2.2-.2.5-.3.7l.4.8c.5.7 1.9 2.8 3.1 3 .3 0 .5-.2.8-.5 1-1 1-2.4.2-3.2l-1.3-1.3z"/><path fill="#FB8875" d="M411.9 121.5h-.1c-.6 0-.8.6-.7 1.2l.2.7-.1 1.7 1.1.8v-2.5l-.4-1.9zm-3.2-1.8c.4 0 .7.4.7 1v.8l1 2.2-1.3-.2-.8-2.2.4-1.6z"/><path fill="#FB8875" d="M407.7 119c.5 0 .7.3.7 1v1.1l1 2.7-1.4-.5-.7-2.3.4-2z"/><path fill="#FB8875" d="M406.7 121.1l.3-.8c.5-.2.3.4.5 1.1l.3 1 .7 2.1-1 .3-.6-2-.2-1.7z"/><path fill="#FB8875" d="M406 121.4c.4-.1 1 .3 1 .5l1 2.6-.6.3-.8-1.5-.6-1.9zm6.1 5.4h-2.6l-1.7 3.3 2.3 1.1z"/><path fill="#7F786A" d="M482.6 170.4c-9.9 11.8-6.7 34.2-3 45.7 4.1 12.9 12.7 29.6 21.4 21.2 4.7-4.4 4.3-16.1 3.8-22.2-1.1-12-2-37-10-47.3-1.8-2.5-8.6-1.7-12.2 2.6"/><path fill="#E1DCFF" d="M410.6 134l1.6-3.8-5.6-2.5-1.6 3.8z"/><path fill="#FFF" d="M488.1 165a.8.8 0 101.7 0 .8.8 0 00-1.7 0m-81.5-35.4a.8.8 0 101.7 0 .8.8 0 00-1.7 0"/><path fill="#FCDB9A" d="M435.5 199.4c-.5-1 0-2.1.4-3 .7-.8 1.4-1.5 2.3-2.1-.7.7-1.4 1.5-1.9 2.4-.6.7-1.1 1.7-.8 2.7"/><path fill="#7F786A" d="M401.4 131.9c-13.7 8-14.7 28.4-15.6 41.2-1 14.2 5.3 23.4 11.3 27.7 0 0 8.2-5.2 9.4-11.5 1.8-9.8 5-40 6.8-52.4.4-3-1.7-5.9-4.8-6.2-2.3-.2-5-.1-7.1 1.2m47 74.8s-6 42.8-3.1 73c2.8 30.1 5.9 27.6 14.7 28 8.9.3 31.2-7.6 31.2-7.6L479 270l-6.4-56.8s-10.2-6.9-24-6.5"/><path fill="#A29C8F" d="M446.6 256.6c3.6-11.5 7.7-22.8 12-34.1l.5.9-4-1.4a.7.7 0 01-.2-1.2l4.7-2.8-.1.8a367 367 0 01-7.8-11.7c3 3.6 5.9 7.3 8.7 11 .2.3.2.7-.1.9l-4.7 3-.1-1.2 4 1.2c.4.2.6.6.5 1a581.4 581.4 0 01-13.4 33.6"/><path fill="#7F786A" d="M436.8 205.8s-13.6 16-17.4 40c-3.7 24-8 64.4-8 64.4s-3-15.7 3-55.9c6-40.1 5.9-50.3 22.4-48.5"/><path fill="#E7E1D3" d="M435.2 211l.5-5.2 3.1-1.6 1.3 3.6z"/><path fill="#FFAF12" d="M271.7 188.8c-12.7-3.6-34.4 14.5-41 21.6-7.6 8-6.5 15.6-.8 18.7 4.8 2.6 15.8-6 19.8-8.6 8.2-5.3 30.2-24 30.2-24s-3.6-6.5-8.2-7.7"/><path fill="#57575E" d="M240 206.3s3.3-3.8 5.2 3.8c2 7.6-1.4 15.7-1.4 15.7s5.1 22.7-4.3 26c-9.5 3.4-24.1-8.5-24.1-8.5l24.6-37z"/><path fill="#A29C8F" d="M240 206.3c.7-.7 1.8-1 2.6-.6.8.6 1.3 1.5 1.6 2.4.7 1.9 1 3.8 1 5.8a30.7 30.7 0 01-2 12c.9 4.6 1.4 9.3 1.4 14 0 2.2-.3 4.5-1 6.7-.6 2.2-1.9 4.3-4.1 5.3 2.3-.7 4-2.8 4.8-5 1-2.3 1.3-4.7 1.5-7 .2-4.8-.3-9.6-1.2-14.2v.4c1.3-4 2.1-8 1.7-12.2-.1-2.1-.6-4.2-1.5-6-.4-1-1-2-2-2.5-1-.4-2.2.2-2.8 1"/><path fill="#FFB68E" d="M210.3 459.7s-3.4-4.9-3.8-7.2l.2-8.6-2.8 1-.7 9.6s4.3 6 4.4 6c.2.1 2.7-.8 2.7-.8m-19.9-174.8c-5.4 3.3-12 29-12 29l-15.6 50.6-48.8-15.8-1.7 2s43.3 46.5 62.2 33.3c32.8-23 37.2-78.6 34.3-93.7-4 .4-10.8-.1-18.4-5.4"/><path fill="#FFB68E" d="M227.8 280.3c-8.1 8-11.2 19.1-17.8 38.8-7.8 22.8-6.4 132.4-6.4 132.4l2.9.9s29.3-100.2 31.1-135.5c.5-8.3-3.3-33.3-3.3-33.3l-6.5-3.3"/><path fill="#7F786A" d="M203.3 453s-2.3 1.3-1.9 4.5l.5 5.2 1.2.1.7-3.5s1.2 1 2.4 3.5c.6 1.2 7.2 1 7.2 1s1.4-1.2-1-2.6l-2.3-1.7s-1 1.3-2.5 0c-.7-.7-1.9-2.2-2.7-3.5l-1.6-3"/><path fill="#FFB68E" d="M104.3 347s5.4 1.5 7 3l5.3 4 .7-3.3s-2.7-1.6-3.3-2.4c-.3-.4-.7-1.7-.7-1.7s-7.3-2-7.5-2a32 32 0 00-1.5 2.4"/><path fill="#7F786A" d="M113.9 348s1-2.4-1.3-4.7c-2.3-2.3-3.5-3.8-3.5-3.8l-1 .7 1.5 3.1s-1.5 0-4-1.3c-1.2-.5-6.3 3.7-6.3 3.7s-.5 1.8 2.4 1.4h2.8s0-1.7 2-1.6a20.8 20.8 0 017.4 2.5m89.5-79.1s-14.3 4.4-23.9 20c-10.3 17-18.3 65-18.3 65a99.4 99.4 0 0021.7 10.5c1.1.5 11.7-37.5 11.7-37.5s-6.7 39.3-6 39.6c12 3.8 27.3 7 44.5 6.2 0 0 15.4-73-3-101.3l-26.7-2.5z"/><path fill="#E1DCFF" d="M219 266.6a1.6 1.6 0 11-3.2-.2 1.6 1.6 0 013.3.2"/><path fill="#A29C8F" d="M194.6 326.9s-6.7 39.3-6 39.6c12 3.8 27.3 7 44.5 6.2 0 0 15.4-73-3-101.3l-10.9-1.1s-9.5 8-17.5 26.7c-3 7-7 29.9-7 29.9"/><path fill="#FFB68E" d="M333.6 229.4s1.9 1.3 2 2c.2.5-.2 2-.2 2s-4.7 1.7-5.8 1c-.5-.3-.9-1.5-1.1-2.4-.1-.6.3-1.3.9-1.4l4.2-1.2z"/><path fill="#FFB68E" d="M331.5 227.8c.5.5.6 1.2.1 1.7l-2 2.3-.9-.8 2.8-3.2zm5.6.5c-.3-.6-1-.7-1.6-.4l-3 1.8 1 .8 3.6-2.2z"/><path fill="#FFB68E" d="M338.9 228.6c-.3-.6-1.1-.7-1.8-.3l-3 1.8.7 1 4-2.5z"/><path fill="#FFB68E" d="M338.9 229.4c-.4-.5-1.2-.6-1.8 0l-2.7 2 .7 1.2 3.8-3.2z"/><path fill="#FFB68E" d="M338.5 232c-.2-.7-.8-.7-1.5-.4l-.9.4-2.5.5.7 1 2.2-.4 2-1.2zm-9.8-.5l.7 2.8-3.7 1.3-.7-2.9z"/><g transform="translate(323 230.5)"><mask id="r" fill="#fff"><use xlink:href="#p"/></mask><path fill="url(#q)" d="M.2 1.9L1.9 7l3.6-1.2L3.7.7z" mask="url(#r)"/></g><g fill="#FFB68E"><path d="M283.9 184.1s-1.7-1.5-2.4-1.6c-.6 0-1.9 1-1.9 1s-.7 4.7.2 5.7c.4.4 1.7.6 2.7.6.6 0 1.2-.5 1.2-1.2l.2-4.5z"/><path d="M286.7 185.6c-.4-.5-1.2-.5-1.6 0l-2.3 2 .8 1.5 3.1-3.5zm-2-4.8c.5.4.7 1.1.3 1.7l-1.6 2.6-1-.7 2.2-3.6z"/><path d="M283.8 179.1c.6.3.8 1.1.4 1.8l-1.5 3.1-1-.5 2-4.4z"/><path d="M282.7 179c.6.2.8 1 .5 1.7l-1.5 3.1-1.1-.5 2.1-4.4z"/><path d="M282 179.6c.5.3.6 1.1.3 1.8l-1.7 3-1-.9 2.3-4zm.7 9.8l-2.1-1.9-3 4.1 2 1.8z"/></g><g transform="translate(274 188.5)"><mask id="u" fill="#fff"><use xlink:href="#s"/></mask><path fill="url(#t)" d="M.8 3l3.3 4.4 3-2.3L3.8.7z" mask="url(#u)"/></g><g><path fill="#A29C8F" d="M327.4 235.8a.8.8 0 11-1.4-1 .8.8 0 111.4 1m-49.1-44.2a.8.8 0 11-1-1.4.8.8 0 011 1.4"/><path fill="#FB8875" d="M231.3 218.7c.9 1.5 1 3 .1 3.5-.8.5-2.1-.2-3-1.6-1-1.5-1-3-.2-3.5s2.2.2 3 1.6"/><path fill="#352E73" d="M231.7 222.1a1.3 1.3 0 11-2.5 0 1.3 1.3 0 012.5 0"/><path fill="#FFAF12" d="M324.2 230.8s-35.6 10.4-45.8 13.6l-1.1.4-23-6.7c-4.5-1.4-8.3-2.7-11.2-3.4-14.1-3.7-9.8 0-15.7 6.4l1.3 1.6s35.3 18 48.2 17.5c3.6.4 8-.2 13.2-.6 10.6-.9 28.5-5.1 34.7-17.4 2.2-4.4-.6-11.4-.6-11.4"/><path fill="#FFB68E" d="M231.6 233c-.9-.3-1.4-1.3-1.1-2.2l1.6-5.3a1.7 1.7 0 113.3 1l-1.6 5.3c-.3 1-1.3 1.5-2.2 1.2"/><path fill="#FFA087" d="M235.4 227c.5-1 .1-2.2-.8-2.6-.8-.3-2 .3-2.4 1.4l-1.2 2.8c-.2.6 1.2.9 2.5.3.9-.3 1.4-.7 1.4-.7l.5-1.1z"/><path fill="#FFAF12" d="M234.8 282s-8.5 2.6-21.6-1.9c-12-4-14.1-9.3-14.1-9.3l6.2-36.8c2.2-6.6 7.6-9 17.4-5.8l18.3 6c9.2 4.2 4.3 17.3 1.9 24.8-2.3 7.2-8.1 23-8.1 23"/><path fill="#FFB68E" d="M230.8 216.8c.3-3.6 2.6-6.5 6-6.9 7.2-.6 6.5 8.3 5.9 12.4-.5 3.3-2.3 6-2.3 6s-3.7.2-6-1.2c-2-1.2-3.5-2.4-3.6-6v-4.3"/><path fill="#57575E" d="M230.2 241.8c3.5-5.7 3-20.4 2.1-22.7 6.2-2.8 11.1-10.3 8.6-13.2-1.1-1.4-5-3-7.1-1.1-1.4-2.3-11-6.5-18.2 1-3 3-9.3 17-9.6 18.8-.5 0-4.9-3-12.4 3.4-1.2 1-3.7 5.1-4.2 8.4-1 5 .1 12 9 16 4.2 1.8 12.3 4 18 1.7 5.7-2.2 9.8-5.7 13.8-12.3"/><path fill="#A29C8F" d="M198.5 252.4c4.5 2 9.6 3.4 14.7 3a23 23 0 0013.3-7.5c1.7-1.9 3.2-4 4.5-6.2 1.2-2.4 1.7-5 2.1-7.5.6-5 1-10 0-15.3l-.5.8c4-1.9 7.3-5 9-9.1.4-1 .7-2.2.5-3.4-.1-1.3-1.2-2.3-2.1-2.8-2-1-4.6-1.6-6.5 0l.7.1c-1.3-1.5-3-2-4.6-2.7a13.5 13.5 0 00-14 4 13.2 13.2 0 0113.8-3.2c1.5.5 3.1 1.3 4 2.4.1.3.4.3.6.2 1.5-1.3 3.8-.8 5.4.2 1.9.9 1.8 2.9 1 4.7a17.2 17.2 0 01-8.3 8.4c-.3 0-.5.4-.4.7v.1c.7 4.6.6 9.9 0 14.7-.3 2.5-.8 5-1.9 7a35.2 35.2 0 01-4.3 6 22.1 22.1 0 01-12.4 7.6c-4.9.6-10-.4-14.6-2.2"/><path fill="#FFDE8E" d="M527.6 154.8L512 185.3l-186.8-77.9z"/><path fill="#FFDE8E" d="M515.2 160.7c-1.3-.6-3.8-1.6-7.1-1.4-6.7.6-11.6 5-12 10.7l2.1 1 11 5.2 5-12a50 50 0 001.2-3.4h-.2zm-17.3 11c-2.5-1.2-2.5-1.4-2.4-1.6.3-6.2 5.4-10.9 12.5-11.4 3.5-.3 6 .8 7.5 1.4l.4.2h.2v.2c0 .1.2.3-1.3 4l-5.3 12.6-11.6-5.4z"/><path fill="#FFAF12" d="M518.8 151.6l-4.2 8.5a14 14 0 00-6.6-1.1c-6 .5-11.1 4.1-12 9.8l-151-60.6-1.4 3.8L508 178a2 2 0 002.6-1l11.8-23.7-3.7-1.8z"/><path fill="#FFAF12" d="M548.7 111.1l-6.2 11.5-217.4-15.2 115.6-4.7z"/><path fill="#FFDE8E" d="M563.8 83.6l-32.5-5.3-13.5 1.9 37.3 5.2a2 2 0 011.5 3L543.8 111l4.9.1 15.1-27.5z"/><path fill="#FFDE8E" d="M538.2 87.8v-.6l-35-5L325 107.5l214 3.6 6.7-11.7a11.7 11.7 0 01-7.6-11.5"/><path fill="#FFAF12" d="M509.3 94c-5.2-2.2-11.3 1-13.7 7a12.5 12.5 0 00-.2 9.2l9.6.2-3.5-4.7-.2-.2v-.6l.4-.4h.3l2.5.1c.8 0 1.6-.5 1.9-1.3l-4.3-.3c-.4 0-.7-.4-.6-.8 0-.4.3-.7.6-.7l4.4.3c-.3-.9-1-1.5-1.7-1.6l-2.6-.1c-.3 0-.6-.4-.6-.8s.4-.7.7-.7l2.5.2 3.8.2c.4 0 .7.3.6.8 0 .4-.3.7-.6.6h-1.3l.5 1.5h.7c.3 0 .6.4.6.8s-.4.7-.7.7h-.7c-.4 1.6-1.8 2.8-3.3 2.7h-1l3.3 4.3 6.5.1c.4-.6.8-1.3 1-2 2.5-6 .2-12.5-5-14.6"/><path fill="#FFDE8E" d="M504.4 106c1.5.2 2.9-1 3.3-2.7h.7c.3.1.6-.2.7-.6 0-.4-.3-.8-.6-.8h-.7c0-.6-.3-1-.5-1.5h1.3c.3 0 .6-.2.6-.6 0-.5-.2-.8-.6-.8l-3.8-.2-2.5-.2c-.3 0-.6.3-.7.7 0 .4.3.8.6.8l2.6.1c.8 0 1.4.7 1.7 1.6l-4.4-.3c-.3 0-.6.3-.6.7 0 .4.2.8.6.8l4.3.3c-.3.8-1 1.4-1.9 1.3l-2.5-.1h-.3c-.1 0-.3.2-.3.4v.8l3.6 4.7h1.7l-3.3-4.4h1z"/><path fill="#FFAF12" d="M465.1 109.9l-.1-1.5c-1.2-7.7-5.6-13.8-12-15.2-7.9-1.7-16.1 4.3-19.8 13.9-.3.6-.7 2.2-.7 2.2l32.6.6z"/><path fill="#FFDE8E" d="M556.7 86.6a2 2 0 00-1.6-1.2l-37.3-5.2-14.6 2 35 5v.6c-.2 5.2 3 9.7 7.6 11.5l-6.6 11.7h4.6l12.8-22.5a2 2 0 000-2"/><path fill="#FFAF12" d="M556.7 86.6a2 2 0 00-1.6-1.2l-37.3-5.2-14.6 2 35 5v.6c-.2 5.2 3 9.7 7.6 11.5l-6.6 11.7h4.6l12.8-22.5a2 2 0 000-2"/><path fill="#FFDE8E" d="M550.5 137.5l.8-1-15.6-15.8.2-.1L325 107.4l204.4 53.8 20.7-9.6c-3-4.1-3-10 .3-14.1"/><path fill="#FFDE8E" d="M577 149.6l-27.7-28.2-7.7-.5 24.5 24.8a2 2 0 01-.6 3.3l-29.8 13.8 7.4 2 33.8-15.2z"/></g><g transform="translate(535 119.5)"><mask id="x" fill="#fff"><use xlink:href="#v"/></mask><path fill="url(#w)" d="M6.6 1.4L.9 1l5.7.4z" mask="url(#x)"/></g><g><path fill="#FFDE8E" d="M566.6 147.5a2 2 0 00-.5-1.8L541.6 121l-5.7-.3-.2.1 15.6 15.9-.8.9c-3.3 4.2-3.3 10-.3 14.1l-20.7 9.6 6.2 1.6 29.8-13.8a2 2 0 001.1-1.5"/><path fill="#FFAF12" d="M566.6 147.5a2 2 0 00-.5-1.8L541.6 121l-5.7-.3-.2.1 15.6 15.9-.8.9c-3.3 4.2-3.3 10-.3 14.1l-20.7 9.6 6.2 1.6 29.8-13.8a2 2 0 001.1-1.5m-73-16c-2.6 6.5-.2 13.6 5.4 15.9 5.6 2.2 12.3-1.2 15-7.7 2.6-6.6.2-13.7-5.4-16-5.7-2.2-12.4 1.2-15 7.7"/><path fill="#FFDE8E" d="M506.4 131.7c.4 0 .7-.3.7-.7 0-.4-.2-.7-.6-.7l-3.8-.3-2.5-.1c-.4 0-.7.3-.7.7 0 .4.2.7.6.7l2.5.2c.8 0 1.5.7 1.7 1.6l-4.3-.3c-.3 0-.6.3-.7.7 0 .4.3.8.6.8l4.3.2c-.3.9-1 1.4-1.8 1.4l-2.6-.2h-.2l-.4.5a.8.8 0 00.1.8l4.7 6.1c.1.2.3.3.5.3.1 0 .3 0 .4-.2.3-.3.3-.7 0-1l-3.6-4.9h1c1.5.2 2.9-1 3.2-2.7h.7c.4 0 .7-.2.7-.6 0-.4-.2-.8-.6-.8h-.7c0-.6-.2-1.1-.5-1.6l1.3.1z"/><path fill="#FFAF12" d="M442 114.5l-.1.7c-.6 8.3 2.8 15.6 9.2 18.1 8.6 3.4 19.2-3 23.7-14.4.3-.5.5-1 .6-1.6l.3-.6-33.8-2.2z"/></g><g transform="translate(502 115.5)"><mask id="A" fill="#fff"><use xlink:href="#y"/></mask><path fill="url(#z)" d="M1.7.7H1h.6" mask="url(#A)"/></g><g><path fill="#FFAC34" d="M195.6 410.2a50.4 50.4 0 10-99.8 14 50.4 50.4 0 0099.8-14"/><path fill="#FFBC3F" d="M184.4 411.8a39 39 0 10-77.4 10.8 39 39 0 0077.4-10.8"/><path fill="#FFA331" d="M156.6 399.4c1.3 0 2.2-1.1 2.2-2.5s-1-2.6-2.2-2.6h-21.9c-1.2 0-2.2 1.2-2.2 2.6 0 1.4 1 2.5 2.2 2.5h8.8c2.9 0 5.3 2.1 6.2 5h-15c-1.2 0-2.2 1.2-2.2 2.6 0 1.4 1 2.6 2.2 2.6h15c-1 3-3.3 5-6.2 5h-8.8a2 2 0 00-.8.2c-.5.3-1 .8-1.2 1.4-.2.6-.2 1.3 0 2l.5.8 17.5 20.3c.4.5 1 .8 1.6.8a2 2 0 001.5-.8c.9-1 .9-2.6 0-3.6l-13.8-16h3.5c5.3 0 9.7-4.3 10.7-10.1h2.4c1.3 0 2.2-1.2 2.2-2.6s-1-2.5-2.2-2.5h-2.4c-.3-2-1-3.6-2-5.1h4.4z"/><path fill="#FFAF12" d="M320 288.9v35c0 2.6 2 4.7 4.7 4.7h44.2c2.6 0 4.7-2.1 4.7-4.7v-10.5l2.4-2.3 4.7-4.7-4.7-4.7-2.4-2.3v-10.5c0-2.6-2-4.7-4.6-4.7h-44.3a4.7 4.7 0 00-4.7 4.7"/><path fill="#FFF" d="M334.5 305.7l6.8 3v3.8l-10.4-5.2V304l10.4-5.1v3.8zm11.1 9.5h-2.9l6.1-22.4h3zm14.8-9.5l-6.9-3v-3.8l10.6 5.1v3.3l-10.6 5.2v-3.8z"/><path fill="#FFAF12" d="M326.8 346h-27.4a3 3 0 00-3 3v21.3a3 3 0 003 3h9.1l1.6 1.6 3 3 3-3 1.6-1.6h9.1a3 3 0 003-3V349a3 3 0 00-3-3"/><path fill="#FFF" d="M307.9 367.9c-1-.4-1.8-1-2.2-1.6-.5-.8-.7-1.7-.7-2.7v-2c0-.5 0-1-.3-1.3a1 1 0 00-1-.5v-1.9a1 1 0 001-.5c.2-.3.3-.8.3-1.4v-2c0-1 .2-1.8.7-2.6.4-.7 1.1-1.2 2.2-1.6l.5 1.5c-.4.2-.7.5-.8 1-.2.4-.3 1-.3 1.8v1.9c0 .6 0 1.2-.3 1.7s-.7.9-1.2 1.1c.5.3.9.7 1.2 1.2.2.5.3 1 .3 1.7v1.9c0 .7.1 1.3.3 1.8.1.5.4.8.7 1l-.4 1.5zm9.5-1.5c.4-.2.6-.5.8-1l.2-1.8v-2c0-.5.1-1.1.4-1.6.2-.5.6-.9 1.1-1.2-.5-.2-.9-.6-1.1-1.1-.3-.5-.4-1-.4-1.7v-2a6 6 0 00-.2-1.7c-.2-.5-.4-.8-.8-1l.5-1.5c1 .4 1.7.9 2.2 1.6.4.8.6 1.6.6 2.7v1.9c0 .6.1 1 .3 1.4.2.3.5.5 1 .5v1.9c-.5 0-.8.1-1 .5-.2.3-.3.8-.3 1.4v1.9c0 1-.2 2-.6 2.6-.5.8-1.2 1.3-2.2 1.7l-.5-1.5z"/></g></g></svg>