<svg xmlns="http://www.w3.org/2000/svg" xmlns:xlink="http://www.w3.org/1999/xlink" width="115" height="115" viewBox="0 0 115 115">
    <defs>
        <path id="prefix__c" d="M0 0.479L83.493 0.479 83.493 83.971 0 83.971z"/>
        <path id="prefix__e" d="M0.142 -0.005L31.146 -0.005 31.146 31 0.142 31z"/>
        <filter id="prefix__a" width="165.2%" height="165.2%" x="-32.6%" y="-19.6%" filterUnits="objectBoundingBox">
            <feOffset dy="15" in="SourceAlpha" result="shadowOffsetOuter1"/>
            <feGaussianBlur in="shadowOffsetOuter1" result="shadowBlurOuter1" stdDeviation="10"/>
            <feColorMatrix in="shadowBlurOuter1" values="0 0 0 0 1 0 0 0 0 0.699027652 0 0 0 0 0.0927210366 0 0 0 0.15 0"/>
        </filter>
        <circle id="prefix__b" cx="57.5" cy="57.5" r="57.5"/>
    </defs>
    <g fill="none" fill-rule="evenodd">
        <use fill="#000" filter="url(#prefix__a)" xlink:href="#prefix__b"/>
        <use fill="#FFF" xlink:href="#prefix__b"/>
        <g>
            <g transform="translate(16 19) translate(0 .522)">
                <mask id="prefix__d" fill="#fff">
                    <use xlink:href="#prefix__c"/>
                </mask>
                <path fill="#E8F4FC" d="M74.01 68.71c5.923-7.208 9.483-16.43 9.483-26.485C83.493 19.17 64.803.48 41.746.48 18.69.48 0 19.17 0 42.225 0 52.28 3.559 61.502 9.482 68.708v.008l.068.078.073.092h.007c1.913 2.302 4.072 4.388 6.43 6.233v.016c.07.054.142.101.212.155.047.036.092.076.139.113v-.01c2.272 1.738 4.727 3.247 7.332 4.495v.011c.077.037.155.07.23.104.046.021.088.046.133.066h.015c2.05.957 4.189 1.753 6.404 2.37v.004c.024.007.049.011.073.018.025.007.05.016.075.022v-.003c3.527.967 7.238 1.491 11.073 1.491.117 0 .233-.003.35-.004v-.008c3.709-.03 7.304-.54 10.723-1.479v.003c.025-.006.049-.014.074-.022.025-.006.05-.01.074-.018v-.004c2.215-.617 4.354-1.413 6.404-2.37h.015c.045-.02.089-.046.134-.066.075-.036.153-.067.229-.104v-.01c2.605-1.249 5.06-2.758 7.332-4.495v.01c.047-.037.09-.076.138-.113.069-.053.143-.102.212-.155v-.017c2.359-1.844 4.518-3.93 6.43-6.232h.008c.026-.032.049-.064.075-.094.02-.026.045-.05.067-.077v-.007z" mask="url(#prefix__d)"/>
            </g>
            <path fill="#FFC839" d="M22.288 29.159c10.737-10.737 28.146-10.737 38.884 0 10.737 10.737 10.737 28.146 0 38.884-10.738 10.738-28.147 10.738-38.884 0-10.738-10.738-10.738-28.147 0-38.884" transform="translate(16 19)"/>
            <path fill="#816AE2" d="M68.733 21.598l-.26-.258-6.261-6.261h3.875c1.094 0 1.988-.894 1.988-1.987 0-.497-.248-1.044-.596-1.391-.348-.348-.845-.547-1.392-.597H56.05c-.347.05-.547.249-.497.497v10.038c0 1.093.895 1.987 1.988 1.987s1.987-.894 1.987-1.987v-3.876l6.317 6.349.187.186c13.423 13.422 13.422 35.184 0 48.606-13.461 13.461-35.143 13.461-48.605-.001-13.422-13.422-13.422-35.183 0-48.605 3.196-3.196 6.865-5.63 10.782-7.304.894-.382 1.337-1.392.999-2.304l-.067-.18c-.36-.966-1.452-1.446-2.4-1.043-4.364 1.86-8.453 4.57-12.014 8.131C1.67 34.655.084 54.952 9.95 69.773c1.834 2.155 3.879 4.124 6.11 5.868v.016c.069.053.142.101.21.155.048.036.093.076.14.113v-.011c2.272 1.739 4.727 3.247 7.333 4.496v.011c.076.036.154.069.23.104.045.021.087.046.132.066h.015c2.05.957 4.189 1.753 6.404 2.37v.004c.024.007.049.011.073.018l.075.022v-.004c3.528.968 7.239 1.492 11.074 1.492.116 0 .232-.003.349-.004v-.008c3.709-.031 7.304-.541 10.723-1.48v.004l.074-.022c.025-.006.05-.011.074-.018v-.004c2.215-.617 4.354-1.413 6.405-2.37h.014c.045-.02.089-.046.134-.066.075-.036.153-.068.229-.104v-.011c2.605-1.249 5.06-2.757 7.333-4.495v.01c.047-.036.09-.075.137-.112.07-.053.143-.102.212-.155v-.017c2.179-1.703 4.178-3.623 5.979-5.718 10.018-14.851 8.464-35.183-4.677-48.325" transform="translate(16 19)"/>
            <path fill="#FFDE8E" d="M49.922 37.132c.904 0 1.638-.734 1.638-1.639 0-.904-.734-1.638-1.638-1.638H33.538c-.904 0-1.638.734-1.638 1.638 0 .905.734 1.64 1.638 1.64h6.554c2.133 0 3.935 1.372 4.613 3.275H33.538c-.904 0-1.638.735-1.638 1.64 0 .903.734 1.638 1.638 1.638h11.167c-.678 1.903-2.48 3.276-4.613 3.276h-6.554c-.213 0-.426.043-.626.125-.4.167-.72.484-.888.888-.167.4-.167.851 0 1.252.082.203.203.383.357.534l13.104 13.103c.321.322.741.482 1.16.482.42 0 .84-.16 1.16-.479.64-.638.64-1.677 0-2.316L37.493 50.24h2.6c3.957 0 7.263-2.818 8.023-6.553h1.806c.904 0 1.638-.735 1.638-1.639s-.734-1.639-1.638-1.639h-1.806c-.245-1.218-.789-2.319-1.513-3.276h3.32z" transform="translate(16 19)"/>
            <g transform="translate(16 19) translate(43 54.522)">
                <mask id="prefix__f" fill="#fff">
                    <use xlink:href="#prefix__e"/>
                </mask>
                <path fill="#E27A66" d="M15.644-.005c8.562 0 15.502 6.94 15.502 15.502C31.146 24.06 24.206 31 15.644 31 7.082 31 .142 24.06.142 15.497c0-8.562 6.94-15.502 15.502-15.502" mask="url(#prefix__f)"/>
            </g>
            <path fill="#EFCCBF" d="M60.446 70.019l2.717-2.717c.498-.498.498-1.304 0-1.802-.497-.498-1.304-.498-1.801 0l-2.718 2.717-2.718-2.717c-.498-.498-1.303-.498-1.802 0-.497.498-.497 1.304 0 1.802l2.718 2.717-2.718 2.718c-.497.497-.497 1.303 0 1.802.498.498 1.304.498 1.802 0l2.718-2.717 2.718 2.717c.496.498 1.303.498 1.8 0 .498-.499.498-1.305 0-1.802l-2.716-2.718z" transform="translate(16 19)"/>
        </g>
    </g>
</svg>
