<svg xmlns="http://www.w3.org/2000/svg" xmlns:xlink="http://www.w3.org/1999/xlink" width="388" height="269" viewBox="0 0 388 269">
    <defs>
        <path id="prefix__a" d="M0 268.739L387.532 268.739 387.532 0 0 0z"/>
    </defs>
    <g fill="none" fill-rule="evenodd">
        <path fill="#FFF4DD" d="M86.387 254.193c-31.79-39.4-32.708-59.996-27.415-71.556 5.307-11.588 15.732-11.641 22.304-26.485 8.362-18.885-3.78-29.49-.93-53.435 2.444-20.524 15.457-47.104 36.243-54.828 24.818-9.221 40.16 16.073 64.122 6.97 23.388-8.885 17.42-36.265 44.142-49.253 19.693-9.572 47.724-6.75 60.87 7.435 9.741 10.51 5.037 20.497 14.868 35.777 12.574 19.544 30.514 12.733 37.636 26.485 10.37 20.022-21.123 39.328-14.404 68.769 4.981 21.825 24.954 22.885 35.314 47.393 9.31 22.028 3.583 45.79-3.253 63.193l-269.497-.465"/>
        <path fill="#619440" d="M328.664 217.244c-2.167 0-5.902 2.203-8.3 5.122-3.81 4.638-3.514 10.52-3.027 13.524 3.023-.792 8.708-2.959 11.524-8.426 1.814-3.519 2.63-8.73.922-9.923-.29-.202-.67-.297-1.12-.297zm-12.606 20.613l-.166-.81c-.582-2.84-1.433-10.059 3.213-15.715 2.886-3.513 8.7-7.163 11.61-5.128 2.775 1.94 1.548 8.22-.405 12.007-3.415 6.627-10.54 8.83-13.444 9.468l-.808.178zM303.236 215.966c-.226 0-.435.037-.625.116-1.896.792-2.393 6.209-.968 10.538 1.877 5.7 7 8.602 9.799 9.8.95-2.979 2.163-8.941-.943-14.245-1.804-3.079-5.202-6.209-7.263-6.209zm9.183 22.588l-.773-.294c-2.71-1.03-9.262-4.178-11.551-11.13-1.421-4.318-1.391-11.183 1.889-12.551 3.262-1.36 7.85 3.236 9.92 6.773 3.767 6.429 1.812 13.628.797 16.424l-.282.778zM318.841 241.975c2.442 1.952 7.577 5.222 13.641 4.21 3.905-.647 8.572-3.107 8.51-5.19-.063-2.052-4.944-4.454-9.497-4.67-6-.291-10.534 3.465-12.654 5.65m11.352 6.028c-6.172 0-11.087-3.62-13.069-5.338l-.626-.541.551-.617c1.933-2.163 7.213-7.152 14.523-6.81 4.541.216 10.941 2.699 11.048 6.25.106 3.535-5.827 6.175-9.87 6.846-.873.145-1.727.21-2.557.21"/>
        <path fill="#619440" d="M307.6 255.118l-1.475-.69c2.283-4.876 4.846-9.685 7.619-14.292 3.787-6.294 8.062-12.378 12.705-18.082l1.264 1.028c-4.595 5.645-8.825 11.666-12.573 17.893-2.744 4.561-5.28 9.32-7.54 14.143"/>
        <path fill="#619440" d="M324.074 243.376c-6.331 0-10.042-1.427-10.261-1.513l-.238-.094-.141-.214c-.258-.39-6.342-9.63-8.98-18.062l1.556-.485c2.347 7.5 7.682 15.943 8.636 17.422 1.342.451 8.349 2.505 18.825.301l.335 1.595c-3.695.777-6.964 1.05-9.732 1.05"/>
        <path fill="#F7E8C8" d="M323.918 212.5H98.543c-9.343 0-16.917-7.575-16.917-16.919V40.842h259.21v154.74c0 9.343-7.575 16.917-16.918 16.917"/>
        <path fill="#FCBA3F" d="M189.656 189.306h48.053c6.037 0 10.931-4.895 10.931-10.932 0-6.037-4.894-10.931-10.93-10.931h-48.054c-6.037 0-10.932 4.894-10.932 10.93 0 6.038 4.895 10.933 10.932 10.933"/>
        <path fill="#FFF" d="M156.767 158.238H270.6c3.483 0 6.307-2.825 6.307-6.31v-15.453c0-3.484-2.824-6.308-6.307-6.308H156.767c-3.484 0-6.308 2.823-6.308 6.308v15.454c0 3.484 2.824 6.309 6.308 6.309"/>
        <mask id="prefix__b" fill="#fff">
            <use xlink:href="#prefix__a"/>
        </mask>
        <path fill="#FCBA3F" d="M236.428 148.667L238.312 148.667 238.312 140.099 236.428 140.099zM245.992 140.099L245.992 141.683 241.852 141.683 241.852 143.663 245.44 143.663 245.44 145.127 241.852 145.127 241.852 148.667 239.968 148.667 239.968 140.099zM248.524 146.555c.103.2.242.362.413.486.172.124.374.216.606.277.232.059.472.09.72.09.168 0 .349-.014.54-.042.192-.03.373-.082.54-.163.169-.08.309-.19.42-.33.112-.14.168-.318.168-.534 0-.231-.074-.42-.222-.563-.148-.145-.341-.265-.582-.361-.24-.095-.512-.18-.816-.252-.304-.072-.612-.152-.924-.24-.32-.08-.631-.178-.935-.294-.304-.116-.577-.265-.816-.45-.24-.184-.434-.414-.582-.69-.149-.276-.222-.61-.222-1.001 0-.441.094-.823.281-1.147.189-.324.435-.594.738-.81.304-.215.649-.375 1.032-.48.385-.103.768-.156 1.153-.156.447 0 .877.05 1.29.15.412.1.778.262 1.097.487.32.223.575.509.762.857.189.349.282.77.282 1.267h-1.824c-.016-.256-.07-.47-.161-.637-.093-.168-.214-.3-.367-.396-.151-.095-.326-.164-.522-.204-.195-.04-.41-.06-.641-.06-.153 0-.304.016-.457.049-.151.032-.29.087-.413.168-.124.08-.226.179-.306.299-.08.12-.12.273-.12.456 0 .168.031.304.095.409.064.103.19.2.379.288.188.088.447.175.78.263.332.088.766.2 1.302.336.16.032.382.09.666.174.284.084.566.219.846.402.28.184.522.43.726.739.204.307.306.7.306 1.18 0 .393-.077.757-.228 1.093-.153.336-.379.626-.678.87-.3.244-.672.435-1.117.57-.444.136-.958.205-1.542.205-.471 0-.93-.06-1.374-.175-.444-.115-.835-.298-1.175-.546-.34-.247-.61-.563-.81-.947-.2-.385-.296-.841-.288-1.368h1.823c0 .288.053.532.157.73M260.368 142.385c-.112-.18-.252-.338-.42-.474-.168-.135-.358-.242-.57-.318-.212-.076-.434-.114-.666-.114-.425 0-.784.083-1.08.246-.296.164-.536.385-.72.66-.184.276-.318.59-.402.942-.084.352-.126.716-.126 1.092 0 .361.042.71.126 1.05.084.341.218.646.402.918.184.272.424.49.72.654.296.164.655.246 1.08.246.576 0 1.026-.175 1.35-.528.324-.352.522-.815.594-1.392h1.824c-.048.537-.173 1.02-.372 1.453-.2.431-.464.799-.792 1.103-.328.305-.712.536-1.152.696-.44.161-.924.241-1.452.241-.657 0-1.246-.115-1.77-.343-.524-.228-.966-.541-1.326-.942-.36-.4-.636-.87-.828-1.41-.192-.54-.288-1.122-.288-1.746 0-.639.096-1.234.288-1.782.192-.548.468-1.025.828-1.434.36-.408.802-.727 1.326-.96.524-.232 1.113-.348 1.77-.348.472 0 .918.068 1.338.204.42.137.796.335 1.128.595.332.259.606.582.822.965.216.384.352.825.408 1.32h-1.824c-.032-.216-.104-.413-.216-.594" mask="url(#prefix__b)"/>
        <path fill="#FAAA36" d="M231.975 144.948L265.903 144.948 265.903 143.817 231.975 143.817z" mask="url(#prefix__b)"/>
        <path fill="#FFBC3F" d="M199.133 138.652L200.787 142.088 204.565 142.599 201.809 145.233 202.49 148.985 199.133 147.177 195.776 148.985 196.457 145.233 193.701 142.599 197.479 142.088zM173.381 138.652L175.035 142.088 178.813 142.599 176.057 145.233 176.738 148.985 173.381 147.177 170.024 148.985 170.705 145.233 167.949 142.599 171.727 142.088zM186.257 138.652L187.911 142.088 191.689 142.599 188.933 145.233 189.614 148.985 186.257 147.177 182.9 148.985 183.581 145.233 180.825 142.599 184.603 142.088zM212.01 138.652L213.664 142.088 217.442 142.599 214.686 145.233 215.367 148.985 212.01 147.177 208.653 148.985 209.334 145.233 206.578 142.599 210.356 142.088z" mask="url(#prefix__b)"/>
        <path fill="#FCBA3F" d="M328.844 21.474H93.619c-6.624 0-11.993 5.369-11.993 11.992v7.443h259.21v-7.443c0-6.623-5.368-11.992-11.992-11.992" mask="url(#prefix__b)"/>
        <path fill="#FAAA36" d="M329.956 31.19c0-1.865-1.512-3.377-3.378-3.377s-3.379 1.512-3.379 3.378 1.513 3.379 3.38 3.379c1.865 0 3.377-1.513 3.377-3.38M315.844 31.19c0-1.865-1.513-3.377-3.378-3.377-1.867 0-3.38 1.512-3.38 3.378s1.513 3.379 3.38 3.379c1.865 0 3.378-1.513 3.378-3.38M301.731 31.19c0-1.865-1.512-3.377-3.378-3.377-1.867 0-3.379 1.512-3.379 3.378s1.512 3.379 3.379 3.379c1.865 0 3.378-1.513 3.378-3.38M183.878 84.408c-.008 16.446 13.453 29.786 30.066 29.795 16.613.01 30.087-13.318 30.096-29.765.008-16.447-13.453-29.787-30.066-29.796-16.613-.007-30.087 13.32-30.096 29.766" mask="url(#prefix__b)"/>
        <path fill="#FAAA36" d="M188.695 84.41c-.007 13.813 11.298 25.018 25.251 25.024 13.953.007 25.27-11.185 25.277-24.999.008-13.813-11.298-25.016-25.25-25.024-13.954-.007-25.27 11.186-25.278 25" mask="url(#prefix__b)"/>
        <path fill="#FCBA3F" d="M190.115 84.411c-.006 13.037 10.664 23.61 23.832 23.617 13.17.007 23.85-10.556 23.856-23.594.007-13.036-10.663-23.61-23.832-23.617-13.168-.007-23.849 10.557-23.856 23.594" mask="url(#prefix__b)"/>
        <path fill="#FAAA36" d="M222.249 72.56c.876 0 1.587-.825 1.587-1.842 0-1.016-.711-1.842-1.587-1.842H206.38c-.876 0-1.587.826-1.587 1.842 0 1.017.711 1.842 1.587 1.842h6.348c2.066 0 3.812 1.543 4.468 3.683H206.38c-.876 0-1.587.824-1.587 1.84 0 1.017.711 1.842 1.587 1.842h10.816c-.656 2.14-2.402 3.683-4.468 3.683h-6.348c-.206 0-.412.048-.606.14-.387.187-.698.544-.86.998-.162.449-.162.957 0 1.407.08.227.197.43.346.599l12.692 14.728c.311.36.717.54 1.123.54s.813-.18 1.124-.537c.619-.718.619-1.885 0-2.604l-9.988-11.59h2.517c3.834 0 7.036-3.166 7.772-7.364h1.749c.876 0 1.587-.825 1.587-1.842 0-1.016-.711-1.84-1.587-1.84H220.5c-.238-1.37-.765-2.608-1.466-3.683h3.215z" mask="url(#prefix__b)"/>
        <path fill="#F7E8C8" d="M387.532 258.748c0-5.518-86.752-9.99-193.766-9.99S0 253.23 0 258.748s86.752 9.991 193.766 9.991 193.766-4.473 193.766-9.99" mask="url(#prefix__b)"/>
        <path fill="#619440" d="M97.873 195.031c-.61-2.7-2.186-11.698-4.784-12.655-2.833-1.042-6.336.297-7.752 2.963-.61 1.15-.88 2.512-2.053 3.286-.655.431-1.555.438-2.095-.13-.882-.929-.045-2.344.673-3.363 1.376-1.953 2.357-4.258 2.367-6.649.011-2.388-1.065-4.85-3.074-6.144-2.01-1.292-4.949-1.144-6.57.612-1.014 1.097-1.442 2.651-2.767 3.51-.688.446-1.59.536-2.257.057-1.344-.965-.437-3.043.475-4.418 1.287-1.941 2.418-4.053 2.756-6.358.34-2.306-.228-4.843-1.92-6.442-1.693-1.602-4.606-1.94-6.355-.401-.7.615-1.167 1.456-1.82 2.121-.785.8-2.052 1.351-3.01.502-.666-.587-.776-1.57-.446-2.394.457-1.142 1.38-1.831 2.294-2.534 1.442-1.11 2.438-2.737 2.65-4.542.636-5.398-5.337-7.477-8.704-5.108-.945.666-1.89 1.681-3.046 1.356-.912-.258-1.412-1.218-1.312-2.16.198-1.861 1.737-2.94 2.556-4.452 1.496-2.766-.184-6.72-3.214-7.564-2.318-.647-2.92 2.356-3.968 4.983-.242.603-1.129.476-1.198-.172-.27-2.572-1.12-5.784-1.773-7.555-1.195-3.251-6.058-6.819-8.382-2.14-.623 1.254-.149 4.48.653 5.374 1.135 1.263 3.836 5.605 3.836 5.605.254.495-.31 1.016-.78.714-1.064-.685-2.207-1.224-3.52-1.343-.602-.054-1.217.005-1.787.202-3.4 1.172-2.873 5.357-.7 7.362 1.805 1.667 4.332 2.239 6.722 2.808 1.24.294 2.58.67 3.195 1.876.35.681.266 1.552-.32 2.048-.675.572-1.447.251-2.19.159-2.433-.311-4.643 2.11-4.62 4.563.023 2.45 1.82 4.632 4.022 5.71 2.202 1.077 4.743 1.225 7.192 1.1 1.208-.06 2.51-.163 3.463.73.563.529.732 1.415.26 2.025-.673.87-1.927.48-2.977.422-2.916-.162-5.232 3.083-4.772 5.966.46 2.883 3.002 5.096 5.787 5.97 3.14.982 6.553.565 9.777.112.76-.106 1.538.304 1.772 1.034.326 1.01-.597 1.589-1.318 2.113-2.785 2.019-3.874 6.07-2.476 9.216 1.398 3.143 5.135 5.048 8.501 4.334 2.138-.454 4.087-1.83 6.405-1.133 1.147.345 1.973 1.442 1.753 2.62-.276 1.487-1.943 1.91-3.19 2.607-3.459 1.93-4.04 7.15-1.768 10.394 2.273 3.244 9.572 3.347 13.526 3.096 3.953-.25 12.204-.597 16.427-3.286 1.99-1.266.466-13.906-.144-16.607" mask="url(#prefix__b)"/>
        <path fill="#306B34" d="M35.144 129.24c-.623 1.254-.149 4.48.653 5.374 1.135 1.263 3.836 5.605 3.836 5.605.254.495-.31 1.016-.78.714-1.064-.685-2.207-1.224-3.52-1.343-.602-.054-1.217.005-1.787.202-3.4 1.172-2.873 5.357-.7 7.362 1.805 1.667 4.332 2.239 6.722 2.808 1.24.294 2.58.67 3.195 1.876.35.681.266 1.552-.32 2.048-.675.572-1.447.251-2.19.159-2.433-.311-4.643 2.11-4.62 4.563.023 2.45 1.82 4.632 4.022 5.71 2.202 1.077 4.743 1.225 7.192 1.1 1.208-.06 2.51-.163 3.463.73.563.529.732 1.415.26 2.025-.673.87-1.927.48-2.977.42-2.916-.16-5.232 3.085-4.772 5.969.46 2.882 3.002 5.095 5.787 5.968 3.14.983 6.553.566 9.777.113.76-.106 1.538.304 1.772 1.034.326 1.01-.597 1.589-1.318 2.113-2.785 2.019-3.874 6.07-2.476 9.216 1.398 3.143 5.135 5.048 8.501 4.334 2.138-.454 4.087-1.83 6.405-1.133 1.147.345 1.973 1.442 1.753 2.62-.276 1.487-1.943 1.91-3.19 2.607-3.459 1.93-7.009 9.322-4.736 12.567 2.273 3.244 12.54 1.174 16.494.923 3.69-.234 11.12-.55 15.528-2.776.316-.16.9-.51.9-.51s-21.833-18.97-40.715-44.12c-10.489-13.969-19.815-40.44-19.815-40.44s-.368.08-.795.382c-.734.52-1.426 1.534-1.549 1.78" mask="url(#prefix__b)"/>
        <path fill="#FFBF4D" d="M55.662 235.472c.041-1.215.567-2.354 1.084-3.454 0 0 1.276-4.597 2.27-5.483.407-.363 1.04-.392 1.502-.104.463.288.755.782.987 1.275 1.173 2.495 1.232 5.488.16 8.026-.37.877-.887 1.72-1.652 2.286-.766.565-1.813.81-2.693.45-1.126-.46-1.699-1.782-1.658-2.996m-7.67-13.857c-.912.325-1.907.329-2.869.229-1.019-.105-2.188-.454-2.54-1.415-.314-.854.216-1.833.977-2.331 0 0 1.927-.78 2.517-1.138.908-.553 2.102-.702 2.977-.097.875.604 1.285 1.805.962 2.818-.292.922-1.113 1.609-2.024 1.934m-18.846-16.286c-.597-.25-1.13-.651-1.537-1.154l-.195-.284c-.195-.245-.29-.591-.167-.88.115-.268.4-.436.688-.486.29-.05.585 0 .872.06.462.098.927.224 1.33.47.402.248.741.632.841 1.094.101.462-.08.996-.49 1.229-.405.229-.915.13-1.342-.05m7.128.246c-1.017-.971-1.659-2.327-1.764-3.73-.035-.47-.01-.953.171-1.388.181-.433.538-.813.993-.932.567-.15 1.177.13 1.581.554 0 0 1.194 1.517 1.552 2.144.397.698.56 1.058.798 1.825.237.768.071 1.723-.6 2.165-.422.279-.975.308-1.459.16-.484-.145-.906-.45-1.272-.798m27.557 12.968l.04-.07c.286-.501.696-.93 1.182-1.241 1.671-1.071 8.977-.183 8.903 1.46-.04.874-.52 1.69-1.182 2.264-.662.574-1.49.924-2.338 1.146-1.716.448-3.558.384-5.246-.156-1.41-.452-2.08-2.11-1.359-3.403m-2.842-4.312c-.789.696-1.876 1.237-2.876.907-1.06-.352-1.614-1.591-1.542-2.706.072-1.115.624-2.136 1.163-3.114l1.178-2.228c.21-.54.425-1.087.784-1.541.358-.454.89-.808 1.467-.814 1.08-.012 1.806 1.118 2.076 2.163.673 2.605-.232 5.554-2.25 7.333m-6.263-8.038c.22.329.32.722.402 1.11.134.625.232 1.268.148 1.9-.085.634-.374 1.263-.889 1.64-.516.377-1.276.445-1.789.065-.503-.373-.663-1.057-.675-1.683-.017-.875.186-1.753.586-2.531l.243-.397c.197-.375.572-.681.995-.687.397-.006.76.253.98.583m-7.719-3.452c.536 1.389.784 2.888.724 4.376-.019.477-.072.964-.286 1.392-.213.427-.614.786-1.089.835-.549.057-1.07-.314-1.357-.785 0 0-.428-1.087-.606-1.433-.669-1.295-.97-2.812-.549-4.207.132-.44.332-.872.662-1.191.33-.318.811-.508 1.258-.403.638.148 1.007.805 1.243 1.416m-7.067 9.495c.452.496.692 1.205.537 1.857-.266 1.113-1.48 1.676-2.55 2.08-1.022.389-2.097.783-3.182.646-1.084-.138-2.162-1-2.138-2.094 0 0 .522-1.573 2.067-2.522 1.064-.652 2.29-1.124 3.515-.885.66.127 1.3.423 1.751.918m13.898 42.89c2.732-.19 7.682-1.744 10.12-4.457 2.39-2.66 5.603-7.842 6.362-11.336.72-3.311.434-5.876-1.598-8.43-.2-.251-.43-.482-.67-.696-.642-.571-1.992-1.88-1.567-2.45.85-1.138 2.832-.126 3.812.905.98 1.03 1.593 2.374 2.62 3.359 1.773 1.697 4.603 2.016 6.876 1.092 2.273-.926 3.993-2.936 4.945-5.198.953-2.261 1.203-4.762 1.151-7.215-.182-8.412-3.962-16.685-10.202-22.328.763 5.399-2.193 11.123-7.035 13.627-.619.32-1.297.597-1.99.536-.694-.061-1.393-.561-1.463-1.254-.099-.97.935-1.611 1.78-2.096 4.256-2.452 7.1-7.191 7.26-12.101l-2.319-2.381c-6.275-6.618-11.955-9.752-20.47-13.014 1.57 3.01 3.155 6.054 4.011 9.34.855 3.288.93 6.888-.469 9.983-.357.79-.834 1.569-1.572 2.026-.738.457-1.787.502-2.419-.092-.692-.654-.648-1.747-.552-2.695l.762-7.541c.327-3.228.611-6.685-.943-9.535-1.043-1.914-2.889-3.373-4.992-3.946-2.104-.573-4.435-.252-6.305.868 4.381 3.75 7.1 9.379 7.313 15.143.03.795.01 1.618-.303 2.35-.31.735-.973 1.366-1.767 1.43-.928.077-1.77-.638-2.16-1.483-.39-.844-.43-1.801-.498-2.73-.273-3.77-1.082-7.5-2.395-11.044-.73-1.97-1.772-4.044-3.698-4.883-1.433-.624-3.118-.425-4.557.184-1.44.609-2.684 1.593-3.909 2.564 2.64.66 5.004 2.359 6.474 4.648 1.47 2.289 2.03 5.145 1.533 7.82-.206 1.114-.759 2.356-1.864 2.604-1.462.327-2.575-1.256-3.233-2.603l-4.22-8.632c-.498-1.017-1.006-2.051-1.779-2.878-.773-.827-1.865-1.432-2.994-1.351-1.599.114-2.793 1.499-4.284 2.088-1.969.777-4.403-.124-5.495-1.915l-.67-1.648c-.983 1.525-.803 3.487-.729 5.3.248 6.085-1.14 12.227-3.984 17.613 1.645 3.257 5.381 4.96 8.998 5.443 3.617.48 7.29-.015 10.936.1.857.028 1.737.096 2.511.465.773.37 1.425 1.108 1.46 1.965.03.792-.47 1.528-1.113 1.992-.642.463-1.415.702-2.172.934-2.213.677-6.863.922-9.137.487-3.987-.765-9.81-5.051-10.374-6.936l1.488 12.944c.113.986.24 2.01.771 2.849.946 1.49 2.864 1.973 4.602 2.284 3.156.564 6.373.973 9.564.667 3.192-.307 6.382-1.38 8.8-3.486.898-.783 1.7-1.714 2.767-2.246s2.534-.533 3.284.395c.613.758.537 1.905.054 2.753-.484.847-1.296 1.452-2.115 1.98-7.23 4.666-16.999 5.08-24.598 1.043 2.95 1.926 3.695 6.154 6.624 8.11 1.653 1.106 3.751 1.3 5.736 1.195 7.074-.38 13.86-4.376 17.62-10.38.542-.867 1.118-1.851 2.24-1.935 1.116-.084 2.04.796 2.278 1.89.364 1.67-.614 3.174-1.667 4.418-5.632 6.66-14.973 9.959-23.538 8.31 1.826 1.92 3.67 3.856 5.845 5.37 2.176 1.512 4.736 2.593 7.386 2.59 3.461-.002 6.695-1.845 9.222-4.21 3.73-3.488 6.267-8.227 7.104-13.264.142-.853.245-1.741.687-2.484.44-.743 1.337-1.301 2.163-1.046.796.247 1.228 1.162 1.192 1.995-.036.833-.43 1.602-.816 2.34-2.548 4.879-2.329 10.2-5.638 14.598-3.66 4.865-10.373 5.376-10.373 5.376s4.8 6.748 16.295 5.946" mask="url(#prefix__b)"/>
        <path fill="#FFBF4D" d="M82.628 244.08c-.19-.244-.395-.478-.589-.719-.126.028-.263.001-.37-.129-.426-.503-.866-.99-1.302-1.484-.125.03-.26 0-.364-.14-.44-.595-.9-1.175-1.36-1.755-4.847-5.166-10.299-9.704-16.293-13.522-.444-.283.024-.953.468-.67.178.112.352.231.528.346.054-.06.12-.11.198-.132-.307-.206-.61-.418-.92-.62-.442-.287.025-.958.467-.67 4.833 3.141 9.207 6.875 13.072 11.108 2.527 2.453 4.901 5.072 7.09 7.86.324.412-.299.942-.625.526" mask="url(#prefix__b)"/>
        <path fill="#306B34" d="M30.826 171.041c-.126.987.14 1.96.75 2.74 1.262 1.61 3.615 1.88 5.248.604.805-.626 1.296-1.507 1.423-2.497.125-.988-.141-1.96-.751-2.74-1.261-1.61-3.615-1.88-5.247-.603l-.044.034c-.766.618-1.255 1.49-1.38 2.462m6.924 4.526c-2.284 1.787-5.584 1.401-7.355-.86-.86-1.098-1.235-2.467-1.058-3.855.177-1.386.88-2.63 1.988-3.49 2.284-1.788 5.583-1.402 7.355.861.859 1.097 1.234 2.465 1.058 3.854-.174 1.36-.857 2.58-1.928 3.443l-.06.047" mask="url(#prefix__b)"/>
        <path fill="#FFA331" d="M49.458 124.65c-.801.016-1.547.333-2.102.896-.551.558-.846 1.293-.832 2.066.03 1.604 1.412 2.887 3.043 2.855.802-.013 1.548-.331 2.102-.893.552-.56.847-1.293.832-2.067-.03-1.586-1.364-2.856-2.987-2.856h-.056zm-4.273 2.987c-.021-1.137.41-2.215 1.217-3.032.802-.813 1.879-1.273 3.033-1.294l.079-.001c2.35 0 4.284 1.857 4.327 4.172.02 1.138-.411 2.214-1.217 3.032-.802.814-1.88 1.273-3.033 1.294h-.08c-2.35 0-4.283-1.855-4.326-4.171zM56.991 138.152c.055 3.04 2.546 5.46 5.564 5.404 3.018-.054 5.42-2.564 5.365-5.604-.055-3.04-2.546-5.46-5.564-5.404-3.018.054-5.42 2.564-5.365 5.604" mask="url(#prefix__b)"/>
        <path fill="#FFBF4D" d="M23.737 165.343c.03 1.695 1.42 3.045 3.103 3.015 1.683-.032 3.022-1.431 2.992-3.126-.03-1.696-1.42-3.045-3.103-3.015-1.683.031-3.023 1.431-2.992 3.126" mask="url(#prefix__b)"/>
        <path fill="#F2B170" d="M122.653 79.019c-5.19-.34-9.992 2.745-11.843 7.605-2.27 5.964-4.995 13.59-5.5 17.082 0 0-11.886 11.595-16.73 16.188l2.576 2.229s16.178-10.52 21.109-15.144c4.93-4.625 10.388-27.96 10.388-27.96" mask="url(#prefix__b)"/>
        <path fill="#FFC581" d="M169.881 248.88L170.118 249.586 168.522 251.253 166.83 250.51 166.206 249.586 166.024 248.857zM113.111 248.855L113.207 249.586 112.437 250.854 110.172 250.641 109.496 250.226 109.295 249.586 109.301 248.658z" mask="url(#prefix__b)"/>
        <path fill="#47B27C" d="M134.907 127.791c-.571-.085-.903-1.484-.687-2.608.323-1.695 1.837-2.598 2.093-2.746.228.461.585 1.367.425 2.496-.202 1.43-1.196 2.953-1.831 2.858" mask="url(#prefix__b)"/>
        <path fill="#47B27C" d="M134.84 127.001c.157.556-.98 1.435-2.094 1.703-1.677.403-3.124-.604-3.364-.776.326-.398 1.003-1.096 2.097-1.416 1.386-.406 3.184-.128 3.36.49" mask="url(#prefix__b)"/>
        <path fill="#47B27C" d="M134.066 126.32c-.35.459-1.736.074-2.617-.657-1.326-1.102-1.386-2.864-1.392-3.16.513.023 1.478.148 2.39.833 1.154.868 2.008 2.473 1.62 2.984" mask="url(#prefix__b)"/>
        <path fill="#57575E" d="M136.751 67.014c1.879 0 3.403-1.523 3.403-3.402v-2.007h-3.403v5.409z" mask="url(#prefix__b)"/>
        <path fill="#A29C8F" d="M144.608 120.59s9.61 12.31 25.898 128.29l-4.87-.025-38.365-106.694v-21.57h17.337z" mask="url(#prefix__b)"/>
        <path fill="#A29C8F" d="M115.634 113.983s-11.6 9.124-11.544 33.62c.024 10.972 5.21 101.055 5.21 101.055l3.81.197c6.758-34.297 11.647-68.004 17.229-102.887.798-.114 4.89-.412 5.6-1.246 1.555-1.828.037-5.014.07-6.417.132-5.61.167-18.44-.197-23.168-4.49.372-15.961-.742-20.178-1.154" mask="url(#prefix__b)"/>
        <path fill="#7F786A" d="M109.3 248.657s-5.186-90.083-5.21-101.055c-.056-24.496 11.544-33.62 11.544-33.62.979.115 1.977.222 2.99.322l2.73 1.741s-8.206 48.003-8.01 76.706c.11 15.95.098 38.071.064 54.582l-.297 1.521-3.81-.197z" mask="url(#prefix__b)"/>
        <path fill="#FFA331" d="M113.682 121.005c-1.59-.388-2.689-1.838-2.62-3.474.346-8.26 1.406-17.644 3.746-27.78 1.033-4.47 2.215-8.662 3.48-12.562l14.96-3.31 11.575 4.532c.841 6.613 1.431 14.087 1.482 22.286.046 7.436-.357 14.276-.996 20.413-.065.624-.543 1.125-1.162 1.22-3.979.612-8.72 1.03-14.054.882-6.35-.176-11.893-1.103-16.41-2.207" mask="url(#prefix__b)"/>
        <path fill="#FFBF4D" d="M112.346 120.666c-.81-.212-1.362-.954-1.334-1.79.284-8.583 1.329-18.436 3.797-29.125 1.032-4.47 1.82-8.732 3.084-12.633 3.198-.708 6.789-1.345 9.986-2.052 1.046.165 2.557.587 3.397 1.82 1.106 1.622.472 3.801.28 4.503-1.077 3.968-3.97 19.56-7.912 41.375-4.287-.476-8.084-1.254-11.298-2.098" mask="url(#prefix__b)"/>
        <path fill="#FFBF4D" d="M117.893 77.118c-3.91.805-6.959 3.875-7.736 7.791l-1.246 6.277 8.03.253.952-14.32z" mask="url(#prefix__b)"/>
        <path fill="#FFA331" d="M116.152 90.43L108.376 90.169 108.376 91.782 115.939 91.948z" mask="url(#prefix__b)"/>
        <path fill="#EABBAB" d="M102.165 89.77c20.41 0 36.956 16.547 36.956 36.957s-16.546 36.955-36.956 36.955c-20.41 0-36.956-16.545-36.956-36.955 0-20.41 16.546-36.956 36.956-36.956" mask="url(#prefix__b)"/>
        <path fill="#FFDDCF" d="M106.46 126.727l6.478-6.478c1.186-1.186 1.186-3.11 0-4.295-1.186-1.187-3.11-1.187-4.296 0l-6.477 6.477-6.478-6.477c-1.186-1.187-3.109-1.187-4.295 0-1.186 1.186-1.186 3.109 0 4.295l6.477 6.478-6.477 6.478c-1.186 1.185-1.186 3.109 0 4.294 1.186 1.187 3.109 1.187 4.295 0l6.478-6.476 6.477 6.476c1.186 1.187 3.11 1.187 4.296 0 1.186-1.185 1.186-3.11 0-4.294l-6.478-6.478z" mask="url(#prefix__b)"/>
        <path fill="#FFC581" d="M138.171 66.576L136.834 77.647 129.704 76.804 131.205 65.206z" mask="url(#prefix__b)"/>
        <path fill="#F2B170" d="M131.205 65.206l6.966 1.37-.076.637c-.73 3.014-3.742 5.81-6.61 5.19-.414-.09-.798-.247-1.153-.456l.873-6.74z" mask="url(#prefix__b)"/>
        <path fill="#FFC581" d="M132.047 58.342c-.257.149-2.218 1.322-2.915 3.627-.926 3.06.573 7.459 3.692 8.135 2.984.645 6.124-2.406 6.688-5.555.5-2.791-.917-6.244-3.442-6.987-1.773-.522-3.491.472-4.023.78" mask="url(#prefix__b)"/>
        <path fill="#57575E" d="M129.16 55.476c-.735 1.409 2.373 4.23 2.68 4.506 2.651 2.37 6.957 3.87 8.212 2.474.921-1.024.073-3.476-1.045-4.93-2.719-3.534-8.983-3.71-9.848-2.05" mask="url(#prefix__b)"/>
        <path fill="#FFC581" d="M140.366 64.273c.15-.802-.375-1.573-1.177-1.726-.801-.151-1.573.376-1.725 1.177-.152.802.375 1.574 1.176 1.726.802.15 1.574-.375 1.726-1.177M126.919 75.278l6.33-1.4 6.896 2.701c-1.344 1.107-3.216 2.05-5.248 2.264-3.074.322-6.097-1.072-7.978-3.565M151.67 90.911c1.465-1.702 2.955-3.433 4.174-5.264 2.968 2.44 5.496 5.157 6.774 7.99 1.236 2.741.067 6.118-2.282 9.576-2.967.031-6.268-.735-9.058-1.832.98-1.104 1.882-2.014 2.642-2.614 0 0-2.446-1.986-5.346-4.646 1.263-1.17 2.286-2.27 3.096-3.21" mask="url(#prefix__b)"/>
        <path fill="#7F786A" d="M113.207 249.586s1.885 1.813 0 3.698h-8.152v-3.698h4.24s1.944 1.138 3.912 0" mask="url(#prefix__b)"/>
        <path fill="#57575E" d="M108.236 253.284h-6.362v-.518c0-1.756 1.424-3.18 3.18-3.18 1.758 0 3.182 1.424 3.182 3.18v.518zM101.601 253.877L113.539 253.877 113.539 253.284 101.601 253.284z" mask="url(#prefix__b)"/>
        <path fill="#7F786A" d="M166.206 249.586s-1.885 1.813 0 3.698h9.63l-.345-3.698h-5.373s-1.944 1.138-3.912 0" mask="url(#prefix__b)"/>
        <path fill="#57575E" d="M165.874 253.877L179.025 253.877 179.025 253.284 165.874 253.284z" mask="url(#prefix__b)"/>
        <path fill="#57575E" d="M175.49 249.586c1.758 0 3.182 1.424 3.182 3.181v.517h-3.181v-3.698z" mask="url(#prefix__b)"/>
        <path fill="#FFA331" d="M148.575 94.121c-3.775-3.463-8.32-8.068-9.241-10.923-1.63-5.048 1.957-6.08 1.957-6.08s7.714 1.771 14.554 8.53c-1.22 1.83-2.71 3.561-4.174 5.263-.81.94-1.834 2.04-3.096 3.21" mask="url(#prefix__b)"/>
        <path fill="#FFA331" d="M156.301 85.435L148.73 94.698 147.377 93.29 155.305 84.423zM133.882 80.156c-.23 0-.462-.008-.698-.026-2.674-.206-5.092-1.578-7.188-4.078-.426-.509-.36-1.269.15-1.696.51-.428 1.268-.36 1.696.15 1.658 1.977 3.51 3.06 5.507 3.222 3.275.259 5.979-2.035 6.006-2.057.502-.434 1.262-.38 1.697.12.435.5.385 1.258-.114 1.695-.132.114-3.102 2.67-7.056 2.67" mask="url(#prefix__b)"/>
        <path fill="#FFC581" d="M143.823 119.072c-.942.707-1.772 1.311-2.443 1.791l-.322.23c-.923.656-1.468 1.02-1.468 1.02l-.226-1.293-.452-2.585s4.638-7.1 9.118-12.892l.312-.404c.416-.531.83-1.051 1.236-1.552.78-.957 1.535-1.838 2.242-2.605 1.785.303 3.638.8 5.518 1.305 1.1.295 2.133.626 3.097.977-3.529 5.267-9.838 10.74-14.594 14.46-.713.558-1.39 1.076-2.018 1.547M137.416 119.533c-3.06.063-3.786.4-3.835.716-.07.434 1.07 1.313 2.26 1.041.832-.19 1.465-.894 1.575-1.757" mask="url(#prefix__b)"/>
        <path fill="#FFC581" d="M141.1 121.064l-1.51 1.05c-.183.479-.559 1.276-1.313 2.007-.358.346-1.874 1.814-3.519 1.405-1.159-.287-2.19-1.458-1.973-2.061.072-.202.277-.323.476-.398l6.48-6.08 1.358 4.077z" mask="url(#prefix__b)"/>
        <path fill="#619440" d="M278.537 254.298l-1.62-.179c.024-.223 2.578-22.637 12.173-43.092 9.581-20.429 21.89-35.303 22.013-35.45l1.252 1.042c-.122.147-12.3 14.87-21.79 35.1-9.48 20.214-12.004 42.357-12.028 42.58" mask="url(#prefix__b)"/>
        <path fill="#619440" d="M298.518 194.159L297.248 184.265 298.865 184.058 300.134 193.953zM305.486 185.75L305.045 184.182 313.371 181.841 313.812 183.409z" mask="url(#prefix__b)"/>
        <path fill="#619440" d="M290.956 185.97c-2.786 0-4.646.779-5.537 2.32-2.654 4.594 3.137 15.376 5.94 19.71 20.679-3.706 24.436-8.094 24.827-10.393.49-2.873-3.62-5.216-3.66-5.24l-1.226-.688 1.206-.722c9.98-5.964 10.616-8.74 10.426-9.655-.241-1.16-2.272-1.677-2.964-1.767l-.82-.106.116-.817c1.798-12.51-.183-16.257-2.162-17.2-3.93-1.872-11.608 5.115-14.235 7.963l-.696.754-.577-.847c-1.89-2.777-3.54-4.116-4.642-3.768-1.615.505-4.132 6.293-4.015 19.674l.008.878-.876-.057c-.386-.026-.757-.04-1.113-.04zm-.365 23.822l-.295-.442c-.415-.62-10.103-15.272-6.288-21.874 1.245-2.153 3.707-3.204 7.302-3.132.016-1.603.1-5.223.513-8.911.783-6.987 2.3-10.742 4.642-11.475 1.772-.554 3.706.619 5.896 3.586 2.503-2.558 10.402-9.997 15.44-7.603 3.564 1.695 4.607 7.633 3.183 18.139 1.152.293 3.16 1.058 3.542 2.885.563 2.686-2.737 6.197-10.083 10.723 1.479 1.1 3.832 3.342 3.35 6.186-.822 4.872-9.798 8.85-26.678 11.825l-.524.093z" mask="url(#prefix__b)"/>
        <path fill="#FFF" d="M197.877 180.334c.094.181.218.326.373.437.155.113.337.195.546.25.209.053.424.081.648.081.15 0 .313-.013.486-.039.172-.025.334-.074.486-.145.15-.072.276-.172.377-.298.101-.125.151-.286.151-.48 0-.208-.065-.378-.198-.507-.135-.13-.309-.238-.525-.324-.216-.086-.46-.162-.734-.227-.273-.065-.55-.138-.832-.217-.287-.072-.569-.16-.843-.264-.273-.105-.518-.24-.734-.406-.215-.165-.39-.372-.524-.62-.132-.249-.198-.55-.198-.9 0-.398.084-.74.252-1.033.17-.292.392-.535.666-.729.273-.194.583-.339.928-.433.346-.092.69-.14 1.036-.14.404 0 .79.046 1.161.136.371.09.7.235.988.437.288.201.517.46.686.772.17.313.254.693.254 1.14h-1.642c-.013-.23-.063-.423-.144-.573-.083-.15-.194-.27-.33-.356-.138-.086-.294-.148-.47-.184-.177-.036-.37-.054-.579-.054-.137 0-.273.014-.41.043-.137.03-.26.08-.373.152-.11.072-.202.162-.274.27-.072.107-.108.244-.108.41 0 .151.027.273.086.367.058.093.17.18.34.26.17.078.404.157.702.236.298.08.69.181 1.172.303.143.03.344.081.6.156.255.076.508.198.76.363.252.165.47.387.654.664.183.277.275.631.275 1.063 0 .353-.068.681-.205.983-.137.302-.34.563-.61.783-.27.22-.604.392-1.004.514s-.862.183-1.388.183c-.424 0-.837-.053-1.236-.157-.4-.104-.754-.269-1.059-.49-.306-.224-.55-.508-.728-.854-.181-.346-.267-.757-.26-1.23h1.64c0 .258.049.477.142.657M206.803 177.958c-.184-.2-.462-.302-.837-.302-.245 0-.448.041-.61.124-.162.082-.292.186-.389.308-.097.123-.165.252-.205.39-.04.135-.063.258-.07.367h2.495c-.072-.39-.2-.686-.384-.887m-1.733 2.938c.23.223.562.334.994.334.31 0 .575-.077.8-.232.222-.154.358-.317.41-.49h1.35c-.217.67-.548 1.148-.995 1.435-.446.288-.986.433-1.619.433-.44 0-.836-.07-1.189-.21-.352-.142-.65-.342-.896-.6-.245-.26-.434-.569-.567-.929-.133-.36-.2-.756-.2-1.188 0-.418.068-.806.206-1.167.136-.36.331-.67.583-.933.252-.263.552-.47.901-.622.35-.15.737-.227 1.162-.227.475 0 .89.093 1.241.275.353.184.643.431.87.741.226.31.39.662.492 1.057.1.397.136.811.107 1.242h-4.028c.022.497.147.858.378 1.081M213.106 179.503c-.065.058-.147.103-.243.135-.097.033-.202.06-.314.081-.112.021-.228.04-.35.054-.124.014-.246.032-.368.054-.115.021-.228.05-.34.086-.113.036-.21.084-.292.146-.083.061-.15.14-.2.232-.05.094-.076.213-.076.357 0 .136.025.252.077.345.05.093.119.167.204.222.088.054.188.091.302.113.117.022.236.032.357.032.303 0 .536-.05.702-.15.166-.102.288-.222.368-.362.079-.14.127-.283.145-.427.018-.144.028-.259.028-.346v-.572zm-3.542-1.134c.02-.36.11-.659.27-.896.157-.238.358-.429.603-.573.245-.144.521-.247.826-.307.308-.062.614-.093.924-.093.281 0 .565.021.853.06.288.04.552.117.79.232.236.115.43.275.582.481.151.205.226.476.226.815v2.905c0 .252.016.493.044.724.029.23.08.403.151.518h-1.554c-.03-.086-.053-.174-.07-.264-.02-.09-.031-.182-.038-.276-.245.252-.534.428-.864.53-.331.1-.67.151-1.015.151-.268 0-.517-.033-.746-.098-.23-.065-.433-.165-.606-.302-.172-.136-.308-.31-.404-.519-.097-.208-.145-.457-.145-.745 0-.316.055-.577.167-.782.11-.206.256-.369.431-.492.178-.122.379-.214.606-.276.226-.06.454-.109.685-.145.23-.036.458-.066.68-.086.224-.023.421-.055.594-.098.173-.043.31-.105.41-.189.101-.082.149-.203.142-.362 0-.166-.028-.297-.082-.394-.054-.098-.126-.173-.215-.227-.09-.054-.196-.09-.314-.108-.119-.018-.246-.027-.383-.027-.302 0-.54.065-.713.195-.173.13-.274.345-.303.648h-1.532zM217.285 176.652v1.037h.02c.074-.173.17-.333.293-.48.123-.148.263-.274.42-.378.16-.105.329-.186.509-.244.18-.057.367-.086.562-.086.1 0 .212.018.335.054v1.426c-.073-.015-.16-.027-.26-.038-.101-.012-.198-.017-.291-.017-.281 0-.52.047-.713.14-.195.094-.351.223-.47.384-.12.162-.204.35-.254.567-.05.216-.075.45-.075.702v2.517h-1.534v-5.584h1.458zM222.501 177.656c-.245 0-.45.055-.615.167-.166.112-.301.256-.406.433-.104.175-.178.37-.221.583-.043.213-.064.423-.064.63 0 .204.021.409.064.618.043.209.114.397.211.567.097.168.228.308.394.415.166.109.367.162.605.162.367 0 .65-.102.848-.308.198-.204.322-.48.372-.827h1.48c-.101.743-.389 1.308-.864 1.696-.475.39-1.084.584-1.825.584-.418 0-.802-.07-1.15-.21-.35-.142-.647-.338-.892-.59-.245-.251-.435-.552-.572-.901-.137-.35-.205-.733-.205-1.15 0-.433.063-.834.189-1.204.126-.371.311-.691.556-.962.244-.27.543-.48.896-.633.353-.15.757-.226 1.21-.226.331 0 .65.043.956.13.306.088.579.218.821.394.241.178.437.398.588.66.151.262.238.573.26.934h-1.502c-.101-.642-.479-.962-1.134-.962M227.566 174.524v2.906h.032c.195-.325.443-.56.745-.708.303-.147.598-.221.886-.221.41 0 .747.056 1.01.168.263.11.47.266.621.463.151.199.257.44.32.724.06.285.09.6.09.945v3.435h-1.533v-3.153c0-.461-.072-.806-.216-1.033-.144-.226-.4-.34-.768-.34-.417 0-.719.125-.906.373-.188.249-.28.657-.28 1.226v2.927h-1.535v-7.712h1.534z" mask="url(#prefix__b)"/>
    </g>
</svg>
