<svg xmlns="http://www.w3.org/2000/svg" xmlns:xlink="http://www.w3.org/1999/xlink" width="630" height="480" viewBox="0 0 630 480"><defs/><defs><path id="a" d="M.6.5H565v399.3H.6z"/><path id="c" d="M89.6 24.2c.4 10.2-1.5 17-2.7 20.3L59.8 71C74.6 48.5 81.3 15 70.8 7.8 60.3.5 57.8 23.2 58.5 44.4a82 82 0 01-4.4 32l-32.4 31.8c14.2-22.4 21-55.6 10.1-61.9-8.3-4.8-12.2 9.5-11.4 33.4a94.3 94.3 0 01-5.1 34.7L0 129.4a6.5 6.5 0 002.5 3l6-6a65.8 65.8 0 0129.8-1.4c19.4 3 40.6 2.5 35-9.5-5.7-12-36.8-8.2-59 5.3l26.8-26.2a68.5 68.5 0 0127.4-.7c19.3 3 40.5 2.5 34.9-9.5-5.3-11.2-33-8.7-54.7 2.8L83 53.7a45 45 0 0115.3 0c12.2 1.8 25.5 1.5 22-6-3.1-6.6-18.4-5.7-31.4.2L100 37.1c4-2.8 9.6-6.7 16.7-9.2 16.3-5.8 30.8-14.5 23.8-21-7-6.6-31.9 9-44.4 28.6L90.4 41c9.3-14.2 13.6-35.3 7-40-.9-.6-1.7-.8-2.4-.8-4.6 0-5.8 12.3-5.4 24"/><path id="f" d="M0 1h569.3v21H0z"/><path id="h" d="M0 408h582V.5H0z"/><path id="j" d="M44 .8c-7.8.4-21.6 1.5-29 5.3C-.2 13.9 0 28 1.1 38.8l7 37.8s3.8 4.7 24 1C48 74.7 62.7 66.3 62.7 66.3s6-33.3 4.6-45C65.8 9.4 61 .7 46 .7h-2"/><path id="l" d="M.3 17.2l1.2 27.4C1.9 59.3.2 65 .2 65s14.7 14.2 19.4 10.4c6.3-5 7.3-24 6.2-36.8-1.3-15.7-7.6-37-22-37.9C2.9.6 0 5.2.3 17.2"/><linearGradient id="e" x1="-29.6%" x2="95.9%" y1="101.7%" y2="17%"><stop offset="0%" stop-color="#FFB218"/><stop offset="100%" stop-color="#FFCF44"/></linearGradient></defs><g fill="none" fill-rule="evenodd"><g transform="translate(41 70.5)"><mask id="b" fill="#fff"><use xlink:href="#a"/></mask><path fill="#FFF4DD" d="M340 68.1A377.7 377.7 0 00205.7 8.6 331.2 331.2 0 00133.8.8c-10.4 0-21.5-1-31.8.4-10.8 1.5-21.2 9.7-31.4 15-12.5 6.3-24.9 14-36 25A119 119 0 00.7 117.6c-1.8 31.4 12.1 65.5 33 70.7 3.9 1 8.3 1.2 11 5.6 4.5 7.4 0 19.9-6.2 24.1-6 4.3-13.2 4.1-19.3 8.4-12.3 8.8-16 34.4-10.8 53.3A85.4 85.4 0 0037 322.1c56.5 48.5 125.5 46 190.6 42.1 3-.1 6.4-.4 8.9-3.3 2.5-2.8 3.3-9.2.8-12 99.1-.3 196.5 68.1 294.6 46.8 12.8-2.8 27.6-9.6 32-27.9 4-16.9-3-35-10.3-49-45.8-86.9-118.2-131.6-188.8-164.4a40.3 40.3 0 01-17.4-12.4c-4.8-6.6-7.3-18-4-26.3 2.9-6.8 8.9-10 11-17.4 3.7-12.6-6-24.4-14.4-30.2" mask="url(#b)"/><path fill="#619440" d="M527.3 188.4c-.4-12 7.6-23.5 5-35.3-1.8-7.6-8.1-12-15.2-9.6-9.1 3-12.8 12.5-16 21.2a40.3 40.3 0 01-9.5 16.3c-4 3.9-8.8 6.7-13.2 10.1a38.6 38.6 0 00-14 23.3c-2.6 10.9-2.9 23.8-11.6 31.6-7.1 6.3-17.8 8.4-22 18.2-4.6 10.7 2.5 26.8-8 34.1-4.5 3.1-9.5 4.3-13.5 8.3a33 33 0 00-7.3 11c-3.7 9-3.7 19.2.6 27.8.2.3.4.6.7.7 3.2 9 7.1 18.2 14.5 24 6.4 5.2 15.3 7.2 22.7 2.8 12.7-7.5 14.3-26 23.4-37 3.2-3.8 7-6 12-6.2 5.2-.4 10.5 1.2 15.7-.6 7.6-2.6 11.8-10.5 13.7-18.3 3-12 0-25.2 5.3-36.6 4.7-10.2 15-15.7 20-25.6 9.8-19.1-2.6-40.6-3.3-60.2"/><path fill="#496B32" d="M514.2 167.6c-1.8 14.4-8.5 27.5-14.7 40.4-6.1 12.7-12.2 25.5-18.5 38.1a727.6 727.6 0 01-41.1 73.3c-8.6 13-17.8 25.7-27.8 37.8-1 1.2.7 3 1.8 1.7 18-21.6 33.4-45.3 47.2-69.8 14-24.8 26.5-50.5 38.8-76.2 7-14.5 14.7-29.1 16.8-45.3.2-1.6-2.3-1.6-2.5 0"/><path fill="#496B32" d="M432.7 333c0-13.5-.2-27.1-.6-40.7 0-1.6-2.6-1.6-2.5 0 .4 13.6.6 27.2.6 40.7 0 1.6 2.5 1.6 2.5 0m14.3-19.5c3.8-1.3 7.7-1.3 11.7-1.4a158.8 158.8 0 0024.9-2.4c3.8-.7 7.6-1.6 11.1-3.4 1.4-.7.2-2.9-1.2-2.1a38 38 0 01-11.3 3.2 154.6 154.6 0 01-24.4 2.2c-3.9.1-7.8.2-11.4 1.5-1.5.5-.9 3 .6 2.4m19.1-33.8c1.4-4.3 1.3-8.8 1.2-13.3a382.5 382.5 0 011.8-43c.2-1.5-2.3-1.5-2.5 0a387.8 387.8 0 00-1.8 42c0 4.6.3 9.2-1.1 13.6-.5 1.6 2 2.2 2.4.7m16.4-32c13.6-1.2 26.8-5 39-11 1.5-.8.3-3-1.2-2.2a110 110 0 01-37.8 10.8c-1.6.1-1.6 2.6 0 2.5m18.6-38a70.7 70.7 0 01-2.3-26.2c.2-1.6-2.3-1.6-2.5 0-.9 9 0 18.2 2.4 26.9.4 1.5 2.8.9 2.4-.7"/><path fill="#306B34" d="M478.9 239.7c-10.6-7.1-36 13.2-48.8 36.8l11-37a75.2 75.2 0 0123.4-15.6c18.3-8.1 36.5-20.2 25.9-27.3-10-6.6-32.9 10.8-46.3 32.5l14-47.4c2.9-2.6 7.1-5.7 13.3-8.4 11.5-5.1 23-12.8 16.4-17.2-5.8-3.9-18.7 5.3-27.2 17.5l4.5-15.4c2.2-4.5 5.2-11 10.2-17 11.5-13.9 20-29.3 10.8-31-9.2-1.6-23.5 25.2-25.1 48.8l-2.4 8c1.5-17.2-4.8-37.6-12.7-37.9-8-.3-2.6 12.8 4.1 23.9a49 49 0 017.2 18.8L446 209.2c2.3-27.2-7.7-59.4-20.3-59.8-12.5-.5-4 20.3 6.7 37.9a78 78 0 0111.3 29.7l-13.3 44.8c1.8-26.9-8-58.8-20.4-58.2-9.5.4-6.1 14.8 5.8 34.6a89.7 89.7 0 0112 32.4l-6.3 21.1c1.2.9 2.4 1.3 3.6 1.2l2.5-8.4A72.4 72.4 0 01453 267c18.3-8 36.5-20.2 26-27.2"/></g><g transform="translate(460 333.5)"><mask id="d" fill="#fff"><use xlink:href="#c"/></mask><path fill="url(#e)" d="M89.6 24.2c.4 10.2-1.5 17-2.7 20.3L59.8 71C74.6 48.5 81.3 15 70.8 7.8 60.3.5 57.8 23.2 58.5 44.4a82 82 0 01-4.4 32l-32.4 31.8c14.2-22.4 21-55.6 10.1-61.9-8.3-4.8-12.2 9.5-11.4 33.4a94.3 94.3 0 01-5.1 34.7L0 129.4a6.5 6.5 0 002.5 3l6-6a65.8 65.8 0 0129.8-1.4c19.4 3 40.6 2.5 35-9.5-5.7-12-36.8-8.2-59 5.3l26.8-26.2a68.5 68.5 0 0127.4-.7c19.3 3 40.5 2.5 34.9-9.5-5.3-11.2-33-8.7-54.7 2.8L83 53.7a45 45 0 0115.3 0c12.2 1.8 25.5 1.5 22-6-3.1-6.6-18.4-5.7-31.4.2L100 37.1c4-2.8 9.6-6.7 16.7-9.2 16.3-5.8 30.8-14.5 23.8-21-7-6.6-31.9 9-44.4 28.6L90.4 41c9.3-14.2 13.6-35.3 7-40-.9-.6-1.7-.8-2.4-.8-4.6 0-5.8 12.3-5.4 24" mask="url(#d)"/></g><g transform="translate(24 70.5)"><g transform="translate(0 386)"><mask id="g" fill="#fff"><use xlink:href="#f"/></mask><path fill="#F7E8C8" d="M569.3 11.5C569.3 17.3 442 22 284.7 22 127.4 22 0 17.3 0 11.5S127.5 1 284.7 1s284.6 4.7 284.6 10.5" mask="url(#g)"/></g><mask id="i" fill="#fff"><use xlink:href="#h"/></mask><path fill="#A29C8F" d="M367.6 368.1h10.5v-86h-10.5z" mask="url(#i)"/><path fill="#57575E" d="M382.2 368.1h-18v-34c0-3.7 3-6.7 6.7-6.7h4.5c3.8 0 6.8 3 6.8 6.8v34zm45-94.2l-5.8-1c7.6-50.8 12-102.3 22.8-153l7.1 1c3.6.5 6 4 5.2 7.6C445.3 177 435.4 225.4 427 274" mask="url(#i)"/><path fill="#A29C8F" d="M422.3 270.2a226.3 226.3 0 00-68-.2c-3.7-46.8-2.9-98.4 12-144.7a9.4 9.4 0 018.2-6.5c30-2.6 41.9-2.5 69.7 1 3.3.5 5.6 3.7 4.8 7a2428.3 2428.3 0 00-26.7 143.4" mask="url(#i)"/><path fill="#A29C8F" d="M427.4 271.1c0 2-1.5 5.2-4.9 7.8-3.3 2.7-37.2 5.5-66.4 5.5-26.5 0-50.4-1.6-63.2-2.6-5.5-.5-9.7-5.6-9.5-11.7.1-6 4.5-10.8 10-11 14.6-.4 43-1.2 62.7-1.2 39.4 0 71.3 6 71.3 13.2" mask="url(#i)"/><path fill="#57575E" d="M427.4 272.4a7.5 7.5 0 01-7 7c-13.8 1-45.5 3.4-55.5 2.6a10.3 10.3 0 01.5-20.5c10.9-.3 40.2-.7 54.6-1 4.4 0 8 3.7 7.6 8l-.2 3.9zm-101.1 112a2 2 0 01-1.7-3l7.1-12.7c.4-.6 1-1 1.8-1h79a2 2 0 011.7 1l8 12.8a2 2 0 01-3.4 2l-7.3-11.9h-76.9l-6.6 11.8c-.3.7-1 1-1.7 1" mask="url(#i)"/><path fill="#57575E" d="M393.8 384.5a2 2 0 01-2-1.5l-3-11.4h-32l-2.9 11.4a2 2 0 11-3.8-1l3.2-12.8a2 2 0 011.9-1.5h35a2 2 0 012 1.5l3.5 12.8a2 2 0 01-2 2.5m-60.6 4.2a6.8 6.8 0 11-13.6 0 6.8 6.8 0 0113.6 0" mask="url(#i)"/><path fill="#A29C8F" d="M331.5 388.7a5.2 5.2 0 11-10.4 0 5.2 5.2 0 0110.4 0" mask="url(#i)"/><path fill="#57575E" d="M358 388.7a6.8 6.8 0 11-13.6 0 6.8 6.8 0 0113.6 0" mask="url(#i)"/><path fill="#A29C8F" d="M356.4 388.7a5.2 5.2 0 11-10.4 0 5.2 5.2 0 0110.4 0" mask="url(#i)"/><path fill="#57575E" d="M428.2 388.7a6.8 6.8 0 11-13.7 0 6.8 6.8 0 0113.7 0" mask="url(#i)"/><path fill="#A29C8F" d="M426.6 388.7a5.2 5.2 0 11-10.4 0 5.2 5.2 0 0110.4 0" mask="url(#i)"/><path fill="#57575E" d="M400.6 388.7a6.8 6.8 0 11-13.7 0 6.8 6.8 0 0113.7 0" mask="url(#i)"/><path fill="#A29C8F" d="M399 388.7a5.2 5.2 0 11-10.5 0 5.2 5.2 0 0110.5 0" mask="url(#i)"/><path fill="#57575E" d="M410.5 293.2h-.4c-15-5.8-34.6-7.5-34.8-7.5-.7 0-1.2-.7-1.2-1.4.1-.7.7-1.3 1.5-1.2.2 0 20 1.7 35.4 7.6.7.3 1 1 .8 1.7-.3.5-.7.8-1.3.8" mask="url(#i)"/><path fill="#57575E" d="M412.4 296.4l-8.7-3.5c-.9-.3-1.4-1.4-1-2.3l1-2.2c.3-1 1.3-1.4 2.3-1l8.7 3.5a3 3 0 11-2.3 5.5m-71-216.6s-9.7 5.2-9 16.6c.8 12 9.2 23.5 15 30 8.6 10 29.8 26.8 43.5 27 44 1 40.2-34.5 36.8-41C417 93 399 104 395.2 100.2c-5-5-6.8-15.8-12-22.2-13-16-34.6-13.9-41.8 1.9" mask="url(#i)"/><path fill="#A29C8F" d="M383.2 78c-2.8-3.1-6.1-5.8-9.9-7.6a25.2 25.2 0 00-11.8-2.6 20.6 20.6 0 00-19 12.5l-.2.3-.4.2a18.1 18.1 0 00-7.7 9.6c-1.3 4-.7 8.5.4 12.8a69 69 0 0012.7 23.3 59.7 59.7 0 01-14.5-22.8 24 24 0 01-.6-13.9c1.4-4.6 4.5-8.5 8.6-11l-.5.5A22.8 22.8 0 01361.5 66c4.3 0 8.6 1.3 12.3 3.4 3.8 2.1 7 5 9.4 8.4" mask="url(#i)"/><path fill="#FFAF12" d="M279.6 204.1c10.8 8.5 40.7 3 58.3-17.7 5.7-6.8 6.6-14 3.2-19.3-5.2-8.2-17.3-.7-25.7 3-16.8 7.8-38 25.3-38 25.3s1.7 8.3 2.2 8.7" mask="url(#i)"/><path fill="#A29C8F" d="M266 396.8h-7.4v-169H276z" mask="url(#i)"/><path fill="#7F786A" d="M268.6 396.8H266l10.1-169.7h2.6z" mask="url(#i)"/><path fill="#A29C8F" d="M238.4 396.8h-7.5v-169h17.6z" mask="url(#i)"/><path fill="#7F786A" d="M241 396.8h-2.6l10-169.7h2.7z" mask="url(#i)"/><path fill="#7F786A" d="M269.2 376.7h-68.7V228.5l78.7.7z" mask="url(#i)"/><path fill="#A29C8F" d="M171.1 396.8h-7.4l-10.1-169.7H171z" mask="url(#i)"/><path fill="#7F786A" d="M171.1 396.8h2.7V227.1H171z" mask="url(#i)"/><path fill="#A29C8F" d="M239.7 376.7h-68.8V228.5l75.8.7z" mask="url(#i)"/><path fill="#FFB68E" d="M348 179.7c-6.2 6.7-13.4 26.8-13.4 26.8s-17.5 4-29.4 8.9c-23.6 9.8-47.5 19.9-44.6 44.1 3 25 41 81.4 61.4 112.4a99 99 0 0014 17l1.8-3.1s-20.6-67.7-24-90.2c-2.3-15.4-9.4-34.5-9.4-34.5l61.5-18.6 8.7-54.5s-22.6-6.5-26.6-8.3" mask="url(#i)"/><path fill="#7F786A" d="M353.1 386.6s1.4 10.7 3.7 14.8c0 0 4.5 3.2 6.5 3 1.8-.2 4-7.6 3.2-9-2.8-4.2-9.6-10.5-9.6-10.5l-3.8 1.7z" mask="url(#i)"/><path fill="#FFA087" d="M350.6 381s1.8 3.6 2.4 5.2c1.2 3.4 2.7 8.6 3.7 9.9 1.2 1.5 1.8 1.8 2.4 1.7 1.3-.3 3.1-2.5 3-4.2a44 44 0 00-5.7-9.3c-2.3-3-3.5-6.2-3.5-6.2l-2.3 3z" mask="url(#i)"/><path fill="#7F786A" d="M337.4 390.7s4.3 9.8 7.7 13.1c0 0 5.2 1.8 7.1 1 1.7-.6 1.7-8.4.5-9.4-3.8-3.3-12.2-7.4-12.2-7.4l-3.1 2.7z" mask="url(#i)"/><path fill="#FFB68E" d="M333.4 386s2.8 3 3.7 4.4c2.1 2.9 5.1 7.4 6.5 8.3 1.5 1.2 2.1 1.3 2.7 1 1.2-.6 2.3-3.2 1.6-4.8-.3-.8-4.2-4.5-8-7.3-3-2.3-5-5-5-5l-1.5 3.5z" mask="url(#i)"/><path fill="#FFA087" d="M397.2 180.7c4.5 7.7 17.4 37.6 16.2 51C410 269 328.7 264 328.7 264c1.2 0 6.4 5.4 16.2 32.4 7.2 20 9.4 84.6 9.4 84.6l-3 1.6s-68.6-99.8-65.7-123.6c4.6-38 73.2-39.3 73.2-39.3l5.6-35c7.7-.4 20-2.5 32.8-4" mask="url(#i)"/><path fill="#7F786A" d="M346.5 180.6s-10.2 14.4-13 25.4c0 0-36 9-57.7 24l-2.2 1.6s22.3 6.4 43.8 19.7c16.6 10.2 23.7 16.2 27.8 16 12.5-.9 40.6-1.5 58.8-13.4 31.8-20.8-7.7-73.2-7.7-73.2h-49.8z" mask="url(#i)"/><path fill="#7F786A" d="M296.4 240a189 189 0 0021 11.3c16.6 10.2 23.7 16.2 27.8 16 12.5-.9 43.8-.9 62-12.8 31.8-20.8-10.9-73.8-10.9-73.8h-30l-4.8 33.5-31.2 8.3c-20.2 5.2-34 17.5-34 17.5" mask="url(#i)"/><path fill="#FFAF12" d="M324 196.3c-8.3 1.4-9.4-16.4-9.4-16.4s6.3-18.5 9.6-30.8c4.3-16 14.6-29.6 29.3-30.5 0 0-6.2 73.7-29.6 77.7" mask="url(#i)"/></g><g transform="translate(356 184.5)"><mask id="k" fill="#fff"><use xlink:href="#j"/></mask><path fill="#FFAF12" d="M44 .8c-7.8.4-21.6 1.5-29 5.3C-.2 13.9 0 28 1.1 38.8l7 37.8s3.8 4.7 24 1C48 74.7 62.7 66.3 62.7 66.3s6-33.3 4.6-45C65.8 9.4 61 .7 46 .7h-2" mask="url(#k)"/></g><path fill="#FFB68E" d="M382 189.3c-1.5.2-2.9-.8-3.1-2.4l-1.3-9a2.8 2.8 0 015.5-.8l1.3 9c.3 1.6-.8 3-2.3 3.2"/><path fill="#FFA087" d="M377.8 179.4c-.4-2.4.6-4.5 2.1-4.7 1.6-.2 3 1.5 3.4 3.8l1 6.2c.1 1.2-2.3 1-4.2-.8-1.2-1.1-2-2.1-2-2.1l-.3-2.4z"/><path fill="#FFA087" d="M386.8 164.3c-.5 0-.9.3-1.2.8l-.9-2.5c-.2-.7-.5-1.4-.9-2a9.9 9.9 0 00-7.2-5h-.2a9.2 9.2 0 00-1.6 0h-.4a9.7 9.7 0 00-1.6.2h-.1-.1l-.7.3a10 10 0 00-6 12.4l.7 2.5c-.5-.2-1-.2-1.5 0-1 .7-.8 2.5.2 4 1 1.4 2.3 2.2 3.3 1.9v.1c1.9 3.3 5 4.4 8 5.4a6 6 0 004 0 6 6 0 003.2-2.3c2-2.5 3.9-5.2 3.5-9v-.1l.9-.6c.5-.7.8-1.7.7-2.8 0-1.9-1-3.4-2-3.3"/><path fill="#FCBD30" d="M388.6 169.9c3.9-.2 6 5.5 2 7.2-4.1 1.7-6.9-4.4-3.2-6.8.6-.4-.1-.8-.6-.5-2 1.3-3 3.9-1.7 6 1 2 3.4 2.7 5.5 2 5-1.7 3.6-9-1.7-8.7-.5 0-1 .8-.3.8"/><path fill="#FFB68E" d="M374.7 169.6c-3-9.2-1.8-13.8-2-13.8h-.1l-.7.3a10 10 0 00-6 12.4l.7 2.5c-.5-.2-1-.2-1.5 0-.9.7-.8 2.3 0 3.8s1 1.7 2.5 2l.2.1h.8v.1c1.9 3.3 5 4.4 8 5.4a6 6 0 004 0c.7-.3-2.6-2.3-6-12.8"/><path fill="#FFA087" d="M388.2 170.4s.8-.8.7-2.3c0-1.5-1.1 1.4-.7 2.3"/><g transform="translate(405 185.5)"><mask id="m" fill="#fff"><use xlink:href="#l"/></mask><path fill="#FFAF12" d="M.3 17.2l1.2 27.4C1.9 59.3.2 65 .2 65s14.7 14.2 19.4 10.4c6.3-5 7.3-24 6.2-36.8-1.3-15.7-7.6-37-22-37.9C2.9.6 0 5.2.3 17.2" mask="url(#m)"/></g><g><path fill="#FB8875" d="M273.2 278s-2.4-.6-3.1-1.2c-.6-.4-1.3-2.5-1.3-2.5s3.7-2.3 5-2.9c1-.4 2-.4 3 .4.6.6.8 1.5.3 2l-3.9 4.2z"/><path fill="#FB8875" d="M270 281c.7.3 1.6 0 2-.7l2-3.5-1.4-.8-2.7 5zm6-2.2c-.9-.3-1.4-1.1-1.2-2l1-3.8s1.4-.6 1.5-.2c.4 1.3-1.3 6-1.3 6M267 281.7c.8.4 1.8.2 2.4-.7l2.5-3.8-1.3-.8-3.6 5.3z"/><path fill="#FB8875" d="M266.2 280.8c.7.5 1.7.2 2.3-.7l2.5-3.8-1.4-.9-3.4 5.4z"/><path fill="#FB8875" d="M265.3 278.8c.7.5 1.7.3 2.4-.5l2.8-3.5s-1-.7-1.5-.6c-1 .3-3.7 4.6-3.7 4.6"/><path fill="#FCBD30" d="M372 180.4a3 3 0 01-.9 2.4 3 3 0 01-4-.1c-2-1.9-2-5 .5-6.4.6-.3 0-.8-.5-.5-3.2 1.9-3.3 7.1.5 8.4 2.7.8 4.8-1 5.3-3.3a23 23 0 01-.8-.5"/><path fill="#57575E" d="M370.7 154.8c-3 1.2-8.2 3.4-6.5 11.8l.9 3 14.2-4-1.2-6.3 2.7 6 5.2-1.5s-4.6-13.4-15.3-9"/><path fill="#FFAF12" d="M371 277c9.7 3.7 23.8 1.6 39.1-4.3 6.8-2.6 18-10.8 20-23.8 1.6-9.5-10-8-17.3-6.4-11.7 2.6-46.9 24-46.9 24s2.3 9.5 5 10.6"/><path fill="#A29C8F" d="M430.9 467.3h-7.5l-10-169.7h17.5z"/><path fill="#57575E" d="M430.9 467.3h2.6V297.6H431z"/><path fill="#A29C8F" d="M482.7 467.3h-7.4v-169h17.5z"/><path fill="#57575E" d="M485.3 467.3h-2.6l10.1-169.7h2.6z"/><path fill="#57575E" d="M430.9 467.3H484v-9.8H431zm73.2-166H235.7V289H514z"/><path fill="#57575E" d="M439.6 301.3H168l-6.7-12.2H448z"/><path fill="#57575E" d="M367.4 288.5l-53.8 1-22-8 75.7-1.3c1 0 2 .9 2 2v4.3c0 1-.8 2-1.9 2"/><path fill="#57575E" d="M312.7 289l-23-94 9.5-.2c2 0 4 1.5 4.3 3.5L321 289l-8.3.1z"/><path fill="#A29C8F" d="M313.6 289.4l-113 .1c-2 0-3.7-1.3-4.2-3.2l-21.7-84a4.4 4.4 0 014.2-5.4l113.1-2a4 4 0 014.1 3.3l17.5 91.2z"/><path fill="#7F786A" d="M246.3 239.7c-.4 6-4.9 9.4-9.9 7.7-5-1.6-8.7-7.8-8.2-13.8.4-6 4.8-9.4 9.8-7.7 5 1.7 8.8 7.9 8.3 13.8"/><path fill="#57575E" d="M252.3 229.4a7.6 7.6 0 11-15.2.3 7.6 7.6 0 0115.2-.3"/><path fill="#A29C8F" d="M333.3 286.6l-11.2.2v-2.6l11.1-.2zm19.5-.3l-11.1.2v-2.6l11-.2zm7-1.4a1.4 1.4 0 11-2.9 0 1.4 1.4 0 012.9 0"/><path fill="#FFA087" d="M356.4 278.4s-2.7-.7-3.3-1.5c-.5-.6-.5-3-.5-3s5-3.2 7.2-3.5c.9 0 1.4 1.4 2.1 2.5.2.2.1 1.2-.7 2-1.7 1.7-4.9 3.5-4.9 3.5"/><path fill="#FFA087" d="M353.7 280.3c.8.4 1.8 0 2.2-.8l1.7-3.6-1.4-.7-2.5 5z"/><path fill="#FFA087" d="M352.9 281.1c.8.3 1.8-.3 2-1.3l1.3-4.4-1.5-.5-1.8 6.2z"/><path fill="#FFA087" d="M351.3 280.8c.8.3 1.8-.2 2.1-1.2l1.7-4.3-1.5-.6-2.3 6z"/><path fill="#FFA087" d="M347.7 278.9c.6.6 1.8.4 2.7-.5l4-4-2-.3-4.7 4.8zm16.7-6.6l-4 1.3-1-3 4-1.4z"/><path fill="#F4DCBD" d="M369.6 274.2L364 276l-2.2-6.9 5.5-1.8z"/><path fill="#FFF0D2" d="M378.9 186.4s.8 2 2.8 2.7l-1.3 5.9s-5.2-1.7-4.3-6l2.8-2.6z"/><path fill="#F4DCBD" d="M381.2 189.2l4 5.1s2.4-2.2 3-4.7c.7-2.6 0-3.4 0-3.4l-3.9-1.4s0 3.2-3.1 4.4"/><path fill="#A29C8F" d="M370.7 154.8c-1.3.8-2.7 1.5-3.7 2.5s-1.8 2.2-2.2 3.6c-.4 1.3-.4 2.8-.4 4.3.1 1.4.5 2.9.7 4.4-.6-1.4-1.3-2.8-1.5-4.3-.3-1.6-.3-3.2.1-4.7.5-1.6 1.4-3 2.7-4 1.3-.9 2.8-1.4 4.3-1.8m-242-12.2h.1zm6.9-5.2zm1.7 5.2zm-3-5.3v0zm-5.2 5.3h-.2.2zm4.3-16h-.1v.1zm3.7 16h0zm-10.5-2.4v-.2.2zm10.3 2.4h.1zm-.1 0h-.1.1zm.8-4.9zm-1 5v-.1h-.2.2zm-4.2-5.3v-.1s-.1 0 0 0v.1zm-3.3 5.2h.2-.2zm.2 0h.2-.2zm1.7-5.2v-.1h-.1v.1h.1zm-1.5 5.2h.2-.2zm6.7 0h.1zm-1.3-5.2v-.1.1zm-4.5 0v-.1.2zm6 4v0zm-8.8-3.8v-.1.1zm11 .2v-.2.2zm-8.6 4.8h-.2.2zm6 0h-.1.1zM127 126v-.2l-.1.1.1.1zm4.5 11.2v.2c.1 0 .1-.2 0-.2zm6.6.5v-.3.3zm-8.1 4.8h.2-.2zm4.3-11.1v-.2h-.1l.1.2zm2.4.6h-.2l.1.1h.1zm1.4 9.8v.2h.1l-.1-.2zm0 .3c0-.1 0-.2-.2-.2v.1h.2zm-2.5.4h0zm-1.4-10.9v.1h.1v-.1zm-3.7 10.9h-.2.2zm4.3 0c.1.1.1 0 .1 0zm-7.5-16.6l-.1-.2c-.1 0-.1 0 0 .1v.1zm8 16.6h.1zm.6-5.6v-.1-.2.2zm-.8 5.7h.1v-.1h-.1s-.1 0 0 0zm4.2-16.7l-.2-.2.1.2zm-8.8 16.7h.2v-.1h-.2zm-4-18.4H126.8zm4.7 18.2l-.1.1c0 .1 0 0 0 0h.1zm-.3 0l-.1.1h.2zm4.4-5.9l-.2-.2v.1l.2.1zm-3.9 6h.1-.2.1zm-4.5-17l-.3.1c0 .1 0 0 .1 0h.2v-.1zm7.9 5.7v-.2.2zm-4.6 5V136.5zm7.5 5.7l.1.3.1-.1-.2-.2zm-11.3-16l.1-.2c-.1 0-.2.1-.1.2zm11.8 11.8v-.2-.2h-.2c0-.1 0-.1 0 0 .2 0 .2.2.2.4zm-2.1-.3v-.2h-.1v.2zm-6.2-8.3h-.2v.1h.1zm8.3 8.8l.1.2h.1s0-.2-.2-.2zm-8-9.7v.1l.1-.2-.1.1zm3.1 4l.1.1h.1v-.2h-.1v.2zm-4.8 9.7c0-.1 0-.1-.1 0-.1 0-.1 0 0 .1l.1-.1zm9 .1v.2h.1v-.2h-.2zm-3-4.1v-.1l-.2-.2h-.1v.1l.3.1zm2.8 4.4v-.3h-.1v.3zm-1.3-5.8v0zm-8.3 1.3l-.2.1.1.2v-.3zm6-5.8h.1v-.3l-.1.2zm.8 10.5c0 .1.1 0 .1 0h-.1zm-.3 0h-.1.2zm4.3-4.6v.2h.1c.1-.1 0-.2 0-.2zm-11.5-12.3l-.3.1v.1l.3-.1zm1.7 16.3H128.6c.1.1.2.2.3.1zm5.2.5l-.1.1h.1zm-6-.6h-.2c0 .2.1.2.2.2v-.2zm7.8-5.4l.3-.1-.3.1zm-7.5 5.6v-.1-.1h-.1v.2h.1zm3.6.4h-.1l-.1.2h.2l.1-.1h-.1zm-2.8.3v.3h.1v-.2-.1zm1.6-11.6v-.1h-.1v.3h.1v-.2zm5.7 7.2v-.1h-.2l.1.2.1-.1zm-9.7 1.5v.4l.1-.2-.1-.2zM137 143h.1l.2-.2-.1-.1-.1.2zm.9-1.2v-.1-.3s.1 0 0 0v.3zm-7.5-12.6l-.1-.1h-.1v.2h.1zm1.9 13.2h-.1l-.1.1s.2.1.2 0zm7.3-2.8v.4c.2 0 .2-.3 0-.4zm-3.5-8.2h.1v-.2h-.2v.1l.1.1zm-3.6 11.2h.1l.1-.1H132.4l.1.1zm1.3-.2h-.2v.2c.2 0 .2 0 .2-.2zm2.6-10.8v-.1l-.2.1.1.2.1-.2zm-6.7 11.2l-.1-.1V143zm4.5-12.2l-.2-.2V130.9h.1zm2.3 11.7h.1c0-.1 0-.3-.2-.3v.3zm.6-.3v.2h.1v-.1-.1zm-1.4 0V142.4h.2l-.1-.3h-.1zm-5.4-13c.1-.2.1-.4 0-.4 0 0 0-.1 0 0V129zm.2-1.9v.1c0 .1.1.1.2 0v-.2h-.1v.1zm6.4 15l-.1-.1s-.1 0 0 0V142.5h.1v-.1zm1.3-4c0-.2-.1-.3-.3-.3l.2.3h.1zM130 142l-.3.1.3.2v-.3zm-.8-10.3H129.5v-.3h-.1c0 .1 0 .2-.2.3zm4.5 10.7c.2 0 .3 0 .2-.2h-.2v.2zm-3.4-12.3v-.2-.1h-.1v.3zm6.3 12.7v.3l.2-.1v-.1h-.2zm-.4-5.7v.4c.1.1.2.1.2 0l-.1-.4h-.1zm-5.6 5.2v-.3h-.3v.1l.3.2zm3 .2h-.3l-.1.2h.2l.1-.2zm-5-4.7h-.1l-.2.1s-.1.1 0 .2h.1l.1-.3zm7-8.1l.1.3v.1h.2c0-.1 0-.4-.2-.4h-.1zm-5.7 13.1v.3h.2v-.3h-.1zm2-4.9c0 .1 0 0 0 0 .1 0 .2 0 .2-.2l-.3.2zm-2.3 4.3v-.2h.1c0-.1 0-.1-.1 0h-.2v.1c0 .1.1.2.2.1zm3.6.3h-.3l-.1.1v.1h.2c.1 0 .2 0 .2-.2zm-5.2-4.3v-.1l.2-.2H127.9v.2zm7.8-7.6l-.1-.3h-.1v.1c0 .1.1.2 0 .2v.1h.1l.1-.1zm-5.5-2.8v.2h.1v-.1l.1-.1v-.2l-.2.1v.1zm4.4 14.6h.2c0-.2-.2-.3-.2-.3h-.1c0 .1.2.2 0 .3zm.6-15.6v.3h.1l.1-.1v-.2h-.1-.1zm.2 4.5c.1-.2.2-.2.1-.3-.2 0-.2.1-.2.2l.1.1zm-5.2 4.9l.2-.9c-.1.1-.3.6-.2.9zm0-5.7l.2.3h.1l-.1-.3h-.1zm3.2 12l.1-.2-.1-.1h-.1v.2zm-5.6-4.8v-.1-.1l-.1.1-.1.1v.2h.2v-.2zm4.6 4.4h-.2V142.4h.2v-.3zm2.9.3h.2v-.2l-.2-.1h-.1v.3zm-3.5-4.8c-.2 0-.3 0-.4.2v.2h.1s.1 0 0-.1l.2-.2zm-3 .1c-.2 0-.3 0-.3.2v.2h.1l.1-.4zm.5 4.2l-.4.1.1.2h.2l-.1-.1v-.1h.2zm3.5 1.1v.1l.3-.1v-.1h-.3v.1zm.4-.2s-.1 0 0 .2c0 .1 0 .2.1.1.1 0 0 0 0 0v-.2zm-3.2-12.2v-.1c0-.1 0-.2-.2-.3v.5h.2v-.1zm3.8 11.5c0 .1.2.2 0 .3h.3v-.1l-.1-.2h-.2zm-3.4-18.7c0-.2-.2-.5-.4-.4v.1l.1.1.3.2zm.1 19.7v-.2l-.1-.1-.2.1c0 .2.2.2.3.2zm5.4-6.8l-.2-.8v.2c0 .1.1.3 0 .4l.2.2zm-3.2 5.9h-.2s-.1 0 0 .1l.1.2.1-.1v-.2zm-1.7.9l-.1-.3h-.2v.3h.3zm-.3-12l.1.2.1-.2v-.2h-.1v.1l-.1.2zm5.4 12v-.2l-.2-.1v.3h.2zm-3.3-.9v.2h.3v-.1l-.3-.1zm2.5-4.5l.2.3.2.1-.1-.3h-.3zm2 .2l.2.1v.1l.1.1h.1v-.1c0-.2-.2-.3-.3-.2zm-3.2 4.2l.1.2v.1H134.7v-.2l-.2-.1h-.2zm2.1-13.3v-.3-.1-.1c-.1.1-.1.3 0 .4v.1zm-8.3 11.5c-.2 0-.3 0-.4.2l.1.1.2-.1v-.1l.1-.1zm2.3 2v-.2c-.1 0-.1 0 0 0v-.1c0-.1-.1-.1-.2 0v.3h.2zm5.6-.2l.1.1s.1.1 0 .2H136.4v-.2l-.2-.1h-.2zm-3.6 0h-.3-.1V142.5h.2v-.2l.2-.1zm.3.7l-.1.2c0 .1 0 .2.2.1v-.3zm2.3-.7l.1.3h.2v-.2h-.3zm-5.2-4h.2v-.1l.1-.2h.1c0-.1-.1-.1-.2 0l-.2.2zm4.9-.4l.1.2c0 .2.1.2.2.2h.1c0-.2 0-.3-.2-.4h-.2zm1.6.4v-.1l-.1-.2h-.1-.1l.1.2.2.1zm1.3.1l-.2-.3c0-.1-.1 0-.2 0l.1.2c.1.1.2.2.3.1zm-9.8-11.9h-.4a6.5 6.5 0 00-.4.4h.2l.2-.2.3-.1zm1.6 11.5c-.2-.1-.4 0-.4.1v.2l.2-.1.1-.2zm6.2 5.1v.2h.3v-.2h-.2zm-.8-15.6h.2l.1-.2c0-.1 0-.2-.2-.1V127.3zm.3 10.4v.1l.2.3h.2c0-.2 0-.3-.2-.3h-.2zM133 132V132.2h.1l.1-.3-.1-.1v.1zm-1.7-.4v-.3-.1l.1-.1v-.1l-.2.1v.4h.1zm0 11.6s.1 0 0 0v-.2l-.2-.1v.2l.2.1zm-2-5c0-.2.1-.2.2-.3v-.1h-.1l-.2.3v.1zm7.6 0s.1 0 0 0v-.2l-.2-.1V138.1h.2zm-2.3 4.8v.1c0 .2.1.2.2.2l.1-.1v-.2l-.1-.1-.2.1zm-3.2-5.2c-.3 0-.4 0-.4.2v.1h.2v-.2l.2-.1zm-.4 4.3h-.2l-.2.1v.3h.2v-.2l.2-.2zm2.8 1l-.1-.2h-.1c-.1 0-.2 0-.1.1l.1.2.2-.1zm1.1-11.7h.2v-.4-.1h-.1s-.1 0 0 0v.5zm-4.4-2.5l.1-.2.1-.3h-.1c-.1.2-.2.3-.1.4v.1zm1.7 14l-.2.1v.2l.3-.1-.1-.2zm1.8 0h-.1v.3h.3v-.1c0-.1 0-.2-.2-.2zm2.2-5c.2.1.2.2.2.3h.2l-.1-.3h-.3zm-1.2-7.5v.1h.2v.2l.2-.2-.3-.2-.1.1zm-.4 12.7c0-.2 0-.2-.3-.2v.3h.3zm-6.6-5.2c.2 0 .3-.1.3-.2 0-.2-.2-.3-.3-.3l-.1.1v.1s.1-.1.2 0v.1l-.1.2zm7 5V143.1l.3-.1v-.2h-.4zm-3.2.2v-.1l-.3-.1v.2c0 .1 0 .2.2.2l.1-.2zm-3-11.3v-.1l-.1-.2h-.1V131.8h-.1v.2l.2-.1v-.1zm3.5 6v-.2l-.1-.2s0-.1.1 0h.1v0c0-.2 0-.2-.2-.2l-.1.1v.3l.2.1zM130 123h-.1l-.3-.2h-.2v.2h.6zm.7 4.9v-.1l.3-.2v-.1h-.2l-.2.2v.2zm.4 2.4l-.1-.1-.3.2.1.2h.2v-.3zm5.4 1l-.1-.1v-.2-.1c.2-.1.2-.2.1-.3l-.2.4c0 .2 0 .3.2.4zm-.5-2.6c0-.2 0-.3-.2-.3l-.1.1v.2c.1.1.1.2.2.1l.1-.1zm3.3-4h.1c.1 0 .4-.1.4-.3v-.1h-.2l-.1.2-.2.2zm-8.7 5.2v.2h.1l.3-.4v-.1h-.2l-.2.3zm5.8-1.8l.2-.2c0-.1.1-.2 0-.2v-.1l-.2.3v.2zm-2.7-4.5l.2.1c.2 0 .3-.3.2-.4l-.1-.1v.2l-.1.2h-.2zm-3.1 5.9l.2-.3v-.3c-.2 0-.2.2-.3.3v.3zm2.2-5.6h-.1c-.2 0-.3-.2-.3-.3l-.2-.1v.2c.1.2.3.3.6.2zm1.3 7.4c0-.1 0-.2-.2-.3v.5h.2v-.2zm-2.5 10.6h-.5v.4h.2v-.1-.2l.3-.1zm-1.3-4h.1l.1-.2v-.1c-.2 0-.3 0-.4.3h.1zm.3-12.4v-.2l-.2-.4-.2.2v.1c.2 0 .2.1.2.2l.2.1zm.2 12.5h.1l.1-.3v-.1l-.3.1v.1c-.1.1-.1.2 0 .2zm1 4.3c-.1-.1-.1-.2 0-.2l.2-.1v-.1l-.6.2c0 .2.2.3.3.2zm.7-7c-.2.5 0 1 0 1.5v-1.5zm3.4-5.4l.2-.2-.1-.6h-.3l.1.2.1.1v.5zm2.1 11.9h.2l.1-.4v-.1l-.1-.3-.1.2V141.9zm-2.7-12.4v-.1h-.2v.2l.3.4v-.3s-.1-.1 0-.2zm-4.3-2.4l.2-.2v-.3h-.1l-.2.2v.3zm4.6 1.2l.3-.1-.1-.4c-.2 0-.3 0-.2.2v.1c.1 0 .1.1 0 .2zm-6 3h.3l.1-.2v-.1l-.1-.2h-.1v.1c0 .2 0 .3-.2.4zm5.8-2h.1v-.3c0-.1 0-.2-.2-.2h-.1v.2l.2.1v.2zm-5 12.6h.3l.1-.3a.8.8 0 00-.5-.5h-.1l.3.2v.2c.2.1.2.2 0 .3zm7-10.6v.1l.1.1v-.3l.2-.1v-.4l-.2.3c-.1 0-.2.1-.2.3zm-1.5 6v-.2l-.1-.3v-.1h-.2v.2l.2.5c0 .2 0 .2.2.2v-.1l-.1-.1v-.1h.2c0-.1-.1-.1-.2 0zm-.5-8.6l.1-.4c0-.1-.1-.3-.3-.2-.1 0-.1.1 0 .2v.1c.1 0 .2 0 .2.2zm0-1l-.3-.3c-.1 0-.1.1 0 .1v.4h.1c.1 0 0 0 0 0 .2 0 .2 0 .2-.2zm-7.8 1.7v.3l.2.2v.3c.2 0 .3-.1.2-.3v-.1l-.3-.3zm2.5 7.9c0-.2.1-.3.3-.3l.1-.4-.2.2s0 .1-.2 0v.5zm5.7-9.7v-.1l-.4-.3v.1c-.1 0 0 .1 0 .2l.1.2.3-.1zm-8 9.8l.1-.1.2-.2v-.2-.3.1l-.2.4-.2.1h-.1v.1l.2.1zm1.6-7.7c.2 0 .3 0 .4-.2v-.2l-.2-.1v-.1h-.1s-.1 0 0 .1v.4h-.1-.2l.2.1zM127 139v0zm6.4-7.7V131.5l.3.3h.1v-.1h-.1l.1-.2v-.1l-.2-.1h-.2zm-1.4.1v-.1-.2l.1-.1.2-.1v-.3h-.1c0 .2 0 .2-.2.3-.2.2-.2.4 0 .5zm.5-9.5h.1v-.3-.3h-.2l-.1.1v.2l.2.3zm5.4 8.6v-.3-.2h.1v-.4l-.2.2v.7zm-10.4 11.4c.1 0 .2 0 .2-.2v-.5c0-.1 0-.2.2-.2 0 0 .1 0 0-.2h-.2c-.1.2 0 .3 0 .4 0 .3 0 .5-.2.7zm7.3-11.1c.2 0 .2-.2.1-.3a.8.8 0 01-.3-.4v-.2h-.1v.5h.3v.3zm-4.2-6.7v.1c0 .2-.1.2-.3.2-.1 0-.1.1 0 .1l.1.3.1.2h.1v-.3-.2-.4zm.7 3.4v.1l.4-.1c.1 0 .2-.3.1-.4l-.3.1c-.2.1-.2.2-.2.3zm-.7 10.2l.1-.1v-.3-.2c.1 0 .2 0 .2-.2v-.2c.1 0 0 0 0 0l-.1.1v.2l-.2.2h-.2c-.1 0-.2.3 0 .5v-.1-.2c.1-.1.2 0 .2 0v.2zm-1.8-.8c-.1-.2-.3-.2-.4 0v.5h.1l.2-.1v-.1l.1-.3zm9.5-7v.2l-.3.3v.3h.3l-.1-.1v-.2h.1l.2-.3c0-.1 0-.2-.2-.2zm-5 0v.1l.1.2.3.3h.2v-.3l-.5-.2v-.1zm0 1.3l-.1.2-.2.1h-.1c-.2.2-.2.4-.1.5h.1l.1-.2.3-.4v-.2zm-1.6-2.2l-.1-.2h-.1l-.2.2c-.1 0-.2.3-.1.5h.1l.1-.3h.1l.2-.2zm5.6 2.4v-.2-.4h.1v-.3l-.1.1c-.2.2-.3.3-.3.5s.1.3.3.3zm-3.4-9.7v.1s.2.1.2 0l.1-.1a3.5 3.5 0 00.2-.4c0-.1 0-.2-.1-.1h-.2l-.2.5zm-2 8.9l.2-.1.2-.1v-.1-.4h-.1l-.3.4v.3zm.4 1.3v-.1l.1-.4v-.3l-.2.1v.2l-.2.1v.3c0 .1.1.2.3.1zm-2.6-1.4l.2-.3.2-.1v-.3h-.2v.1c0 .1-.1.1-.2 0h-.2v.2c.2.1.2.2.2.3v.1zm8.4 6.8v-.2-.1l-.4-.1c0 .2 0 .4.3.5v.4h.1v-.3-.2zm-3.7-6.3c0 .2.1.3.3.5l.1-.2-.1-.3v-.2l-.3-.2v.4zm2.6-1l-.3.3v.4l.2.2h.1c-.2-.2-.2-.2 0-.4l.1-.2v-.3zm-5-1l.1-.4.1-.2v-.1s-.1-.1-.2 0c-.2 0-.3.4-.2.6h.3zm-.7-.4v-.2c.2 0 .2-.1.3-.2.2 0 .2 0 0-.3-.3 0-.4.2-.5.4v.2l.2.1zm1.3 2c0 .1 0 .2.2.2v-.1l.1-.2.3-.2v-.2-.2c-.1 0-.2 0-.2.2 0 .1 0 .2-.2.2-.1 0-.2.1-.2.3zm5.4 6.2l.2.3v.2l.2.1v.1l.1.1v.3h.1v-.3l.2.1v-.1-.1l-.4-.2v-.2-.1l-.1-.2h-.3zm-1.6-6.2v-.2h-.2c-.1.2-.1.2 0 .4l-.1.1-.2.3v.2l.2-.1.1-.1v-.2s0-.2.2-.3zm.3 1.1c0 .2 0 .3.3.3h.1v.3l.2.1v-.2-.1l.1-.2v-.1h-.3-.2-.1v-.2h.1v-.1-.1l-.2.3zm-5-1.2c0-.2-.1-.2-.3-.2v-.1-.1c.2-.1.2-.2.2-.3l-.1-.1h-.1v.1c-.1.2-.2.3-.1.5h.1V130.6l-.1.2s0 .1 0 0h.1c.2 0 .2-.2.2-.3zm3.3-5.9v-.1h-.1v.1l-.1.1v.1l-.1.2-.2.1s-.1 0 0 .1v.2c.1-.2.2-.2.4-.3l.2-.3v-.2zm2.4 5.7v-.1-.3l.1-.2c.2-.1.2-.3.2-.5v-.2h-.2l-.3.6v.2l.1.2.1.3zm-2.6-2.3v.1h.2v-.3l-.2-.2a.6.6 0 01-.3-.2h-.3v.2l.4.2c.2 0 .2 0 .2.2zm4.7 11v2c.2-.6.2-1.4 0-2zm-6.7-12.5c0 .2-.1.3 0 .4l.2.2H133.2v-.1c-.1-.1-.2-.2-.1-.3v-.2h.1l-.2.2v-.1-.1h-.1l-.1.2v-.2zm3.8.3v.3h.1l.1-.2v-.1l.3-.2.1-.2v-.1h-.1-.2s-.1 0 0 .2h-.1l-.2.2v.1zm1.5 1l.3.2h.1l-.1-.2v-.1-.3H138h-.1v-.3l.1-.3s0-.1-.1 0h-.1l-.1.4c0 .3.2.4.4.3v.2zm-3.6.7a16.8 16.8 0 000 .6h.2l.1.2v.1c0 .1 0 .2.1.1.2 0 .2-.1.2-.3l-.1-.1a.4.4 0 01-.2-.2l-.2-.2-.1-.2zm-8-2.9v.2l-.1.1v.1l.1-.1.2-.1.1-.1.3-.4v-.1h-.1l-.4.2c-.2 0-.3.2-.4.3v.2l.2-.2h.1zm5.9 1.7h-.1a1 1 0 00-.4.6v.2l.2-.1v-.2h.2l.3-.3v-.2h-.2zm1.7-.9v.2c.1.2.1.3 0 .4h.5v-.3-.2h.1v-.1-.2h-.1l-.1.3-.1-.1v.2l-.3-.2zm-.2.3c-.1-.2-.2-.3-.4-.2v.1c.2.1.2.2 0 .2V127l.5-.1v-.5l-.1.2zm-6.8 14.9l.3-.8a9.4 9.4 0 00-.2-2l-.1-.2h-.1v.1l.2.3v2.6zm5.2-12.3v-.3h-.1l-.3.3-.1.3.1.4h.1v-.1-.3l.2-.1.1-.2zm-2.6 1.6l-.1-.1-.2-.2-.2-.1v.1l.2.3v.3h-.1l-.1-.2h-.1V131.5h.3v-.2l.1-.2.2-.3zm1.2 2.6v-.3l.1-.6v-.6-.1h-.1l-.1.3v1.1l.1.2zm4-4.6c.2 0 .3 0 .3-.2v-.2a44.5 44.5 0 00-.7-.4V128.3c.2 0 .3.1.3.2.1 0 .1 0 0 .2v.1zm-.4.6v.2l.3.2v.3l.2-.1.1-.3h-.1l-.2-.2-.1-.2-.2-.2h-.1l.1.3zm2-3.3v.2h.1l.1-.2h.1l.2-.2v-.3h-.1c-.3 0-.5.3-.5.5zm.6 15.8h.2v-.1l.1-.1.2-.5v-.1H137.9v-.1a1 1 0 01-.5 0h-.2l-.1.4s0 .1 0 0v.5zm-8.8-10.8h.2l.1-.3h.1c.2 0 .3-.3.2-.4l-.3-.3v-.1-.2h-.2v.1c0 .2 0 .3.2.4l.1.2v.1h-.4v-.2h-.1v.2l.2.1c.1.1.1.3 0 .4zm5.1-.6l.1.2h.1V131h.1l.2.1v-.1-.3l-.4-.2c-.1-.1-.1 0-.2 0h-.2l-.1.1c0 .2 0 .3-.2.4l.1.3h.1v-.2l.1-.3.2-.1h.1v-.2zm5.8-4.2v-.2h-.1v.1h-.2l.3-.7a1 1 0 00-.2.3l-.2.3c-.1 0 0 .2 0 .2l.3.1h.1l.1.2.2.2v-.1l.3-.2v-.1h-.1l-.2.1v-.1l.1-.1v-.1h-.1l-.1.2v-.1-.1h-.1-.1zm-7 0l-.2-.2V126.4l.1.2v.1c0 .2.2.2.3.3.2 0 .2-.1.2-.2v-.3l.1-.2-.1.2v-.1H132.1v-.2l-.2.1zm-5.2 0v-.3c-.1 0-.2-.1-.2 0-.1 0 0 0 0 .1v.1h-.1l.1.2v.1h.3l.2-.2.2-.1h.2c.1 0 .1-.1 0-.2l-.1-.3-.2-.3h-.1V125.8h.2v.4l-.4.2v-.2.2h-.1zm10-2.1l-.3.2H136.3v.2h-.2v.4h.1c0-.2.1-.2.2-.2h.2l.2-.1.1-.4v-.1zm-3.3 3h-.1c-.1 0-.1 0 0 .1v.2s0 .2.2.3l.2.1c.2 0 .2.2.1.3v.1h.2v-.5c-.2-.1-.3-.2-.3-.4l-.3-.2zm2.3 11.2h-.1v-.1h-.7.1c0 .2 0 .2.2.2v.2h.1V139.4h.1l.2-.1v-.3-.5zm-2-8.8h.1l.2-.1v-.2l-.1-.2-.2-.1-.3-.3h-.1c0-.1 0-.1-.1 0h-.1v.3l.4.2.2.1V129.6zm-6.7 12.3h.1l.1-.3v-.8-1.3-.8l-.1-.2v3.3zm2.7-16.3c.1 0 .2 0 .2-.2v-.2l-.2-.1-.1-.1-.2-.2h-.1v-.2c-.2.2-.2.3-.2.5l.2.2h.2l.2.2v.1zm6.5 0s-.1 0 0 0l.1-.2h.2l.4-.2v-.1l-.1-.2h-.3-.2l-.1.2-.3.2v.2h.1c0 .2 0 .2.2.2zm1.8.2v-.1c0-.1-.1-.2-.2-.1l-.2.2v.2c-.2 0-.3.2-.4.3-.2.2-.2.2-.1.4 0 .1.1.1.2 0 0 0-.1-.2 0-.2l.1-.1.3-.1c.2-.1.2-.3.3-.5zm-5-1.1h-.1l-.2.1v.2c0 .2.1.3.2.3H133.7l.1-.3h-.2v.1l-.2.1v-.1c.1 0 .2 0 .3-.2 0 0 0-.1-.1 0l-.3-.2zm0 3.5c0-.1-.1-.2-.3-.2 0 0-.2.1-.2.3l-.2.2-.2.2v.3l.3.1v-.2c0-.2.2-.3.3-.4.2 0 .3-.1.3-.3zm5.6 13.5v-.7-1.9-.4-.1h-.1v3zm-.4-12.1l.1-.4h.1l.1-.2v-.1h-.2l-.2.2v.1h-.1v-.2l.2-.2v-.4l-.2.1-.2.4v.2l.2.2v.1c0 .1 0 .2.2.2zm-5.8-1.3v-.4h.2l.2-.1c.1-.1.2-.3.1-.5h-.4l-.2.4-.1.2v.3l.2.1zm4.6.4v-.2h-.2v.4h-.2a.2.2 0 01-.1-.2v-.1l.2-.3v-.2h-.2l-.2.4c0 .2 0 .4.2.5.1 0 .1 0 0 .1v.1c0 .1 0 .2.2.3 0 0 .1 0 0 0v-.2l.2-.2.1-.3v-.1zm-9.7 10v1.8l.2-.2v-.1-.2.2h.1l.1-.3v-.5h-.2v.4l-.2-1.2zm1.4-6.2v.5l.1.5v.3h.1l.1-.2v-.6-.2c0-.3 0-.5-.2-.8v.5zm1.7-6.4v-.2l-.2-.1v-.1h-.1-.1v.4s0 .2.2.3V126.8l-.1-.2h-.2v.2c.1.1.2.3.1.4v.2l.1-.1.1-.2c.2 0 .2-.2.1-.3v-.1l.2-.2v-.5h-.1v.2zm5.9 4.3c-.1-.2 0-.3 0-.4h.1l.1-.3v-.3-.1l-.1-.2h-.1l-.1.2v-.2c.1-.1 0-.2 0-.2h-.1c0 .1-.1.1-.2 0-.1.1 0 .1 0 .1V129.3l.1.3h.2v-.2h.1v.2c-.2.2-.3.4-.2.7l.2.1zm-5.2-5.5v-.1-.3h-.1l-.3.2-.2.1c0 .2 0 .3.2.3l.2.3c.2 0 .3 0 .4-.3v-.3-.2h-.1V125zm7.2 16.8v-.4-2.2-.5-.1 3.2zm-3.2-6v.6c0 .1 0 .2.2.2h.2l-.1-1.2v-.3h-.2v.2l-.1.5zm-.3-10.2v.2l.1.2v.2c0-.2 0-.4-.2-.6v.3l-.1-.2v.3l-.2-.1v.2l.1.2v.2h.3v-.2h.2l.1-.1.2-.4v-.3l-.3-.1h-.1l.1.2h-.2zm-3.4.4v-.4l-.1-.1h-.2v.2h-.1l-.3-.2v.1l.3.4.1.3v.2h.4v-.2l.1-.1c.2 0 .2-.1.2-.2v-.1l-.2.1v-.2h-.1v.2zm-.6 8.6v-.1-.1h-.1v.8l-.1.4v.3l-.1.2-.2.4h.4l.1-.2.1-.4v-.3l-.1-.8v-.2zm.7 3c.2 0 .2-.1.2-.2s0-.2-.2-.2l.1-.3.2.2v.5h.1v-.4h.2c.1 0 .2-.1.1-.2h-.2v-.2h-.1v-.3-.1h-.1-.1V136.7H131.6v.1l-.1.4v.1c-.1 0-.2.2-.1.3 0 0 0 .1 0 0h.1v-.1-.1s.1-.1.2 0v.3zm2.6-8.9l-.2-.2c-.1 0-.2 0-.2-.2l-.1-.1-.3-.3h-.1l-.1.1h-.1v.1l.1.3.5.2v.3c0 .1.1.2.2.1l.3-.3zm4.7 10V141.5l.2-1v-.9c0-.3 0-.5-.2-.8v-.3zm-7.2 3.2l-.5-.8h-.2.1l-.2-.7v-.1h-.5v.4s0 .1.1 0v.2l.2.1.3.1v.1l.2.5h.1v.2h.4zm-1.7-14.8v-.1l-.2.3v.3l.1.2v.1h-.1v-.2l-.2.1v.2l.2.2v.2h-.1-.1c-.1 0-.1.1 0 .2.1.2.2.3 0 .5l.1.1h.1v-.3h.1v-.3-.3c.1-.1.2-.2.1-.3v-.2h.1v-.1l.1-.2v-.1l-.2-.3zm5 7.8l.3-.6v-.1-.6l.2-1-.1-.5h-.1v.2l-.1.7v.5l-.1.2v.2l-.1.9v.1zm-6.4-8.3c.3-.1.3-.2.3-.4v-.2l-.1-.1-.2-.3-.2-.1-.2-.1v-.1h-.1v.2h.1l.1.3c.1 0 .2 0 .2.2l.2.1v.4l-.1-.1v-.1l-.3-.2c0-.1-.1 0-.2 0v.1l.2.4c.1 0 .2 0 .3.2v.2s0 .2-.2.3h.3c.2 0 .2-.2.2-.3 0-.2 0-.4-.3-.4zm4.3 2.6l.1.2.2.2c0 .2.1.2.2.3l.4.1v.3c.2 0 .3 0 .3-.2l-.1-.2-.2-.1-.1-.1-.1-.2h-.2a.4.4 0 01-.3-.4v-.1s0-.1 0 0h-.4s-.1 0 0 .1v.2h-.2v.2l-.1.2v.4l.2-.1.1-.3.1-.2.1-.2zm1.7 8v-.1l.2-.1-.1-.2h-.1l-.1.3h-.1v-.2-.2-.3-.2-.1-.2-.1l-.1-.4-.2.6v.1c.1.1.1.2 0 .2v.2l.1.4v0h-.1-.1v.2c.1 0 .1 0 0 .1v.4s0 .1 0 0h.1v-.2h.2v.2l.1-.1v-.3l.1.2v.2s.2.1.2 0v-.1-.1l.1-.1.1.2v.2l.1-.3c0-.1 0-.3-.2-.2h-.2zm3.1-12l-.1-.2v-.1l.3-.3h.1v-.3h-.2l-.1.2-.3.1-.1.2v.2c.1.2.2.3.4.2h.1v.1h-.5-.2l-.1.5c0 .1.1.3.3.2h.1v-.1h-.1c-.1 0-.1-.1 0-.2h.2l.4-.2.1-.2v-.3-.2l-.3.3zm-3.7 7.4v-.1c0-.2 0-.2-.2-.2-.2.1-.3.2-.2.4v.9l.2.7v.2h.1v-.1l.2-1.1v-.4l-.1-.3zm2.8 6.2l.1.2h.1l.1.1c.1 0 .2.2.4.1v.1h-.1V139.9h.5v-1l-.2-.2v.1h-.1l-.3-.3h-.4c0-.1-.1-.1-.2 0v.2h.1v.1zm-7.2-11.9h.2c.1 0 .2-.1.1-.2 0-.2 0-.3-.2-.3l-.3-.1-.2-.1a.5.5 0 010-.5v.1l.1.2h.2l.2.2v.1c0 .1.1.1.2 0 .2 0 .2-.2.2-.3l-.2-.2-.3-.1c-.2 0-.2 0-.3-.2l-.2-.1v.1l-.2.2v.2l.1.3v.2l.4.2h.2V126.9zm4-1c.2 0 .5 0 .5-.3v-.4-.2h-.1l-.1.1-.2.3-.3.2c-.3 0-.5 0-.7-.3l-.1-.2-.1-.1h-.1l-.1.5c0 .2 0 .3.2.4H132.8l.4-.2v.2h.3v-.2h.3l-.2.2zm2.3-1.2c-.2.2-.2.4-.2.6v.2h-.1v.5l-.1.1c-.1.1 0 .3 0 .4l.1.3.1.4v.2l.2.1v.4l.1.1h.1l.2-.4v-.2-.1l-.2.3v.1l-.1-.2v-.1-.2l.1-.1s.1-.1 0-.2l.1-.1s0-.1-.1 0l-.2.2v.1c-.2 0-.1-.4 0-.4l.1-.2v-.2-.3h-.1l-.1.1-.1.4v.1-.6l.2-.5-.3.2c0-.1 0-.2.2-.3v-.2l.1-.4v-.1zm-3.7 9.7v.4l.2-.4.1-.9v-.6-.1l.1-.4-.2-.2h-.3v2.2zm4.6-6.5c0 .1 0 .2.2.3l.1.2.2.2.1.2h.2v.1h.1c0-.2 0-.3.2-.3l.1-.1.1-.2v-.1h-.2l-.3.2-.1.2-.2-.1.1-.3.3-.2v-.2c0-.1-.1 0-.1 0h-.3l-.1.2-.1.2v-.1c-.1 0 0-.1 0-.1l.1-.3.2-.1v-.2-.1l-.3.1h-.2s-.1.1-.1 0l.2-.2.1-.1c0-.1 0-.2-.2-.2-.1 0-.3.1-.3.3v.1l.1.3v.3zm.5 8.8v-.1l-.2-.3v-.2-.2l-.2-.4v-.3-.5a6 6 0 000-2v-.1h-.1v1.3l-.1 1v1.3c.1.3.2.5.5.6-.1-.1-.3-.3-.3-.5l.2.2.2.2zm-7.5-12.3h.2c.1 0 .2 0 .2-.2v-.1c0-.2-.1-.3-.3-.4v-.2h.1l.2.4.1.2h.1v-.4l-.7-.4h-.4V123.6l.1.4h.5l.1.2h-.3-.2-.1l-.1-.2v-.1h-.1V124.5h.2l.1.2h.3v.4c.2 0 .3 0 .3-.2v-.3c-.2 0-.2 0-.2-.2zm-1.6 3.6h.1l.3-.1v-.4l-.2-.1-.1-.2h.1v-.2l-.1-.1h-.2c-.2.2-.2.5 0 .6l.3.2v.2h-.2l-.1-.1-.1-.1h-.1v.2l.2.3.1.2v.1h-.2l-.2-.3h-.2c0 .2 0 .3.2.4v.2l.2.2v.1c0 .1 0 .2-.1.1h-.1v-.1l-.1-.2h-.1c-.1.2 0 .3 0 .4l.3.2v.2h-.1.2v-.2-.2c.2 0 .3-.1.3-.2v-.2h-.2l-.1-.2h.3l.2-.2-.1-.3-.2-.2zm0 13.8l.1.1H130.3c.1 0 .2 0 .2-.2 0-.1 0-.2-.2-.2a9 9 0 00-.3-.1l-.2-.2h-.4-.3v-.1l-.4-.1h-.1l-.4.3h-.1v.2h.1V141.7zm5.2-17.8l.4.2c.3 0 .6-.2.6-.5l-.1-.2h-.1V123.8l-.2.2h-.4c0-.1-.1-.1-.2 0h-.3-.1l-.3-.1v-.1l-.1-.2v-.2h-.1l-.1.1v.2c0 .2.2.2.3.3h.2v.2h-.5c-.1 0-.3 0-.4-.2h-.1c0 .2.2.3.3.3h.3l.5-.1h.1v.1c-.4.2-.7.3-1 .2h-.1l.3.1v.1h-.2v.1c.1.1.2 0 .2 0h.2c.2 0 .3-.2.5-.3l.1-.2h.1l.2.3c.2.1.5.2.7.1.2 0 .4 0 .5-.3l.2-.1V124l-.2.2-.3.2h-.5a.7.7 0 01-.5-.3c.3.2.5.2.8.2.2 0 .4-.1.4-.3v-.1h-.2c-.1.2-.3.3-.4.3l-.3-.1-.2-.2zm-2.4-1v-.1-.1-.2h-.2v.2l-.2.2c0 .2 0 .4.2.4l.2.5c0 .2 0 .2-.1.1l-.1-.2v-.2h-.2v.5c.1 0 .1 0 0 .2v.3l.4-.1.1-.2h.1s.1-.2 0-.2v-.2l-.1-.2v-.5c.1 0 .2-.2.1-.3l.1-.4.3-.3v-.2l-.1-.2v.1c0 .1 0 .2-.2.2v-.2h-.1l.3-.1h.2l.1.2h.1v-.2l-.2-.2h.2l.1.3h.1c0-.2 0-.4-.3-.5h-.3l-.2.1c-.2 0-.4 0-.4.3l.1.2h.1l-.1.3v.1c.1.1.2.2.1.3l-.1.3zm-1.8 4.5h.4c.1-.2.1-.3 0-.4v-.2l-.2-.1h-.2l-.1-.2h-.2l.1.4.1.1.2.1v.2l-.2-.1h-.1l-.2.1v.2l.2.2.2.2v.1h-.2l-.1-.1h-.2v.1c-.1 0-.1.1 0 .2l.2.2.1.2c0 .1 0 .1-.2 0h-.1l-.2.1.1.2.1.2c.1 0 .2.1.1.2v.1h-.2v-.2h-.2s-.1.2 0 .2l.1.3h.3v.4h.1l.2-.2-.1-.2h-.1l-.1-.1.3-.3v-.3l-.2-.1h.2l.2-.3v-.1l-.2-.3h.1l.2-.1.1-.2c0-.1 0-.3-.2-.4h-.1v-.1zm6.3-2.8c0 .1.1 0 .1 0v-.2s.1-.1 0-.2v-.2-.1-.3h-.1v-.2-.5l-.2-.2h-.2v-.1c.2-.2.3-.4.1-.6v-.2l-.2-.1h-.1v.2l.2.1v.2l-.1-.1-.4-.2v-.1l.2-.1.2-.2v-.2h-.3c-.3-.1-.5 0-.6.2v.2h.1v-.1l.4-.2s.1 0 0 .2h-.3v.3l.4.2h.1l.2.1v.7l.3.4-.1.5-.2.5h.1v.2c0-.1-.1-.1-.2 0v.3l.1.2.2.2h.1v-.5.2h.2v-.1-.2zm-4.7 14l.1-.2c.1-.1 0-.2 0-.2h-2V138.6l.1.5.2.4v.2H130l.5.2h.1v-.3h-.1V139.2l.1-.1.1-.2.2-.3s0-.1 0 0zm2.4-.8a2.1 2.1 0 100 4.2 2.1 2.1 0 000-4.2zm-5-14.5h.2l.3.6c0 .2-.1.3-.3.4l-.3.1v.1h.2c.2 0 .2.1.2.3h-.2l.1.3h.2c.1.1.2.2.1.3v.1h.1c.2-.2.2-.5 0-.7h-.1v-.1l-.1-.1.3.1h.2v-.2c0-.1 0-.3-.2-.4h.2v-.2h-.1v-.1c.2 0 .2-.1.2-.3v-.2-.3h-.1l-.1-.2c0-.2 0-.2-.2-.3l-.4.1-.2.2h-.2l-.1-.1h-.1v.1h.1V123c-.1-.2-.4 0-.4 0 0 .2 0 .4.2.5h.2l.3.2s.1.1 0 .2v.2h-.2v.1h.1c.2 0 .4-.1.4-.3 0-.2 0-.5-.3-.6zm8.5.1l-.1.4h-.3l-.2.2-.2.1s-.1 0 0 .2l.1.2.2-.1v-.2h.3s.2 0 .3-.2v-.4-.1s0-.1.1 0c0 0 .1.1 0 .2l.2.2v-.1h.1v.2l-.2.2-.1.4v.1l.3-.1c0-.2 0-.3.3-.4h.2l.1-.2v-.1l.1.2.1-.1v-.1-.1c0-.1 0-.2.2-.1h.1l.3-.1v-.4h-.2v-.1-.1c0 .2-.2.2-.3.2h.1c.1-.2.1-.3 0-.4h-.1a.7.7 0 00-.7 0c-.2 0-.3.2-.4.4v.2l-.3-.1h-.3c-.2 0-.3.2-.5.3v.3h.3c0-.2.2-.2.3-.2l.2-.2zm-9.2 3.5c.1-.3.2-.4.4-.4v-.2c0-.2 0-.3.2-.4v-.2c-.2-.2-.1-.4-.1-.6l.1-.3-.1-.1c0-.2-.2-.4-.4-.4h-.2-.1.1l.4-.1v-.1c.2 0 .2-.1.2-.2l-.1-.1-.2-.1-.3-.2c-.1-.1-.2-.1-.2 0l-.2.2h-.2l-.4.3v.2a3.6 3.6 0 01-.1.3l-.1.2h-.1v.1l-.4.4c0 .2.1.3.3.3.1 0 .2-.1.2-.3 0-.1 0-.2.2-.2s.2-.3.2-.4l-.1-.1v-.2c0-.1 0-.2.2-.3 0 0 .2 0 .2.2h.1l.2.2h-.4l-.1.3v.2l-.3.2h.3c.2-.2.5-.2.7-.2v.1h-.1.5s0-.1 0 0c-.2.3-.3.3-.5.2h-.1l.1.2.1.2.2.2.1.2v.4l-.4.2h-.2l-.1.4.4-.1v-.1.1zm12.3-2.3v.2s-.1 0 0 .2h-.1-.1l-.1-.1v.1l.1.2h.1l.2.1c.1 0 .2 0 .2.2.1.1.2.1.2 0l.1-.2c0-.2-.1-.3-.3-.4l-.2-.3v-.5l-.3-.2a2 2 0 01-.6-.2h-.2-.2l-.1.2h-.2v.5h.4l.3.2v.1h-.2c-.1 0-.3-.1-.4 0-.2 0-.3 0-.2.2v.3c0 .1 0 .2.1.1h.5l-.3.3h-.2l-.2.1v.7c0 .1 0 .2.2.2h.1c.2.1.2.2.3.4 0 .1.1.2.2.1h.2v-.2l-.1-.3-.4-.1a.3.3 0 01-.3-.3s0-.2.2-.2h.1c0-.3 0-.4.2-.5v-.2h.4c.1.2.3.3.3.5v.2l-.2-.4h-.1c0 .2.2.3.3.5 0 .1.1.2.2.1v-.4l-.1-.1.2.2.1.1v-.2l-.2-.2h.1l.2.1.1.2v-.2a.7.7 0 00-.6-.3s-.1 0 0-.1c0-.2 0-.3-.2-.3l-.2-.1v-.2l.2-.3.2-.2c0-.1.2 0 .2 0l.1.2v.2zm-5.5 9.7v1c0 .2 0 .4.2.6v.4l.1.2v.1h.3v.2l.1.2.1.3v.2l.1-.1v.1h.1c.1 0 .1 0 0 0v-.1l.1-.1h.1V137.7s.1 0 0 0v-.3-.1h-.2V137l-.1-.3h-.2v-.2-.2-.1-.1-.2-.4l-.3-.7v-.8c.2-.2.2-.4.3-.7l.1-.6v-.7-.3c-.1-.1-.3-.1-.4 0l-.1.1-.4.2h-.1v.5a58.2 58.2 0 010 1.6l-.2 1.7v.7c-.1 0-.2.2-.1.4l.1-.4.1-.3v-.4l.3-1.3v-.2zm-2.1 1v-.1-.3l-.3-.6v-1-.2-.6l-.1-.4-.2-.2h-.2l-.3-.1-.2.1v.8l.1.5.1.6V136.2l-.1.2h.1c.1 0 .2-.1.2-.3v-.3h.1v.4l-.1.3h-.3V136.9s-.1 0 0 0v.1c.1 0 .2 0 .1.1v.3l-.2-.2-.3.1v.3h.1s.1 0 0 0v-.3h.2s.1.1 0 .2v.2h.2v-.1-.1l.2-.5v-.2l.2-.3v-.7h.1l.1.6c.2 0 .2-.2.2-.3v-.4.1l.1.4v.1l.2-.1v-.4c-.1-.2 0-.4-.2-.6h.1v.2zm-3.7 3.2v-.1-.1h-.1l-.2-.1h-.2v.1l-.1.1v.1l-.1.2v.2l-.1.2v.3h.1c0-.1 0-.2.2-.2v-.1-.3h-.1.1v1l.1.2c-.2.2-.2.3-.2.5v.2c.2 0 .2.1 0 .2h-.2v.3c-.1.2 0 .5.2.6h.2c0-.2-.1-.2-.2-.2v-.1-.2l-.1-.1.1-.2c.2 0 .4 0 .5-.2v-.3-.2l.2.2.3.2.1.2c.1 0 .2 0 .2-.2v-.1h.1c.2.2.4.3.7.3l.3.1.2.2h.1l.2.3v.3h.3v-.2l-.1-.2c-.2 0-.2 0-.2-.2v-.1h-.2l-.2-.2-.1-.2-.1-.3-.1-.2.1-.1h.2l.3-.1.1-.2v-.1-.1-.1c.1-.1.1-.1 0-.2l.1-.1v-.1l.1-.2v-.1c-.1 0-.1 0 0-.1l.1-.2v-.1h-.1l-.1.2-.2.1v.2l-.1.2-.1.1v.6c-.1.1-.3.1-.4 0a.6.6 0 00-.6 0h-.2-.2-.2l.2-.1v-.1h-.2l.2-.2h-.1-.1v-.1l.1-.1h-.2l.1-.1v-.1h-.1v-.1-.1s-.1 0 0 0v-.2-.1h-.1v-.1h-.1l-.1.1zm5-5v-.7s0-.1 0 0h-.2c-.1-.2-.2-.2-.3 0h-.1l-.1-.1-.1.3V134.8a2.4 2.4 0 00-.2 1v.9c.2.2.2.3.1.4v.2l.1.1.1.2h.7l.2-.1v-.5c-.2 0-.2-.2-.2-.3l.2-.4v-.3a6.2 6.2 0 000-.7l-.1-.7v-.4-.7zm-.7-11.7v-.1l.1-.4-.2-.2c-.1 0-.2 0-.2.2l.1.2.1.2v.1l-.6.2-.5.2-.2.3v.4h-.1v.6l.3.2v.5l-.2.1.1.2v.4l.1.2h.3v.2l.2.2c.1-.2.2-.3 0-.4h-.2c-.2-.1-.2-.2-.2-.3v-.3l-.1-.2h.2c0 .1 0 0 0 0v-.1-.3-.2h.1l.1-.2.2-.2c-.1 0-.3 0-.4-.2l-.2-.1h-.1H131.9l.4.1h.4v-.6a.4.4 0 00-.6 0l-.3.2c0-.2.2-.3.4-.4h.6c.2.1.2.2.3.4v.4l-.1.2.3.2h.3l.1-.3-.1-.2v-.3l.3-.3c.2-.2.5-.2.7 0l.2.3-.3-.2-.3-.1c-.2 0-.5.3-.4.5v.2h.3c.3 0 .5 0 .7-.2 0 .2-.3.3-.4.4l.1.2.1.2h.1c0 .1.1.1.1 0l.3-.2c.1-.1.2-.2 0-.4v-.3c-.1-.4-.3-.6-.6-.7l-.7-.3v-.3-.3l-.1-.1h-.2v.7h-.1v-.2-.4h-.1-.2v.3l.1.3h-.3zm4.3 15.2v.1l.2.3V137.6h.2v.1h.2v-.2l-.2-.1a.3.3 0 01-.2-.3v-.3h-.1c-.2 0-.3 0-.4-.2l-.1-.3-.1-.7v-1-.5-.1-.1-.2-.5-.5c0-.3-.1-.5-.4-.6v-.1l-.4-.3-.1-.2h-.1v.5h.1v.4l-.1.5v.5c-.1.1-.1.3 0 .4l-.1.3v.6l.1.2.1.3.1.1.1.3.1.2V136.1l.1.1v.4c.2.1.3.2.3.4a7.4 7.4 0 00.4.6h.2c0-.2.1-.3 0-.4v-.2zm-8.2-.8l.1-.5h.1v.3a22.5 22.5 0 01-.1.5h.1v-.1-.2-.3h.1s.1.2 0 .2v.4h.1l.1-.3.1-.2-.1.7-.4.2h-.2c-.1-.1-.2 0-.2 0v.2l.1.1h-.1l-.2.1v.2h.2v-.1V137.8h.1c.2 0 .2-.1.3-.2l.4-.1.3-.3c-.1 0-.2.2-.4.1l.4-.4v-.2-.2c.2 0 .2-.2.2-.3v-.3l.1-.2.1-.3v.3h.1l.1-.5c0-.1 0-.2.2-.3v-.1c.1-.1.2-.2.1-.3v-.3-.3-.5a32.9 32.9 0 01-.2-1.7l-.1-.2v-.3h-.2v.1l-.2.3h-.2l-.1.2-.2.2c-.2 0-.2 0-.2.2v.1l.1 1.1-.1 1.2a8.2 8.2 0 00-.2.6v.4l-.1.6zm7.1 4.9l-.1.5-.1.2h-.1v.1H136l.2-.4v-.2h.1v-.2l.1-.2v.2h.1v.1l.1.3h-.1l-.1.3v.1h.2l.1-.1v-.1l.1-.5.1-.3c-.1-.1-.1-.1 0-.2l.2-.6v-.1l.1.3c0 .2 0 .3-.2.5h.5c.1 0 .3 0 .4-.2l-.1.1v.4c-.2.1-.4.2-.4.5l-.2.2h.4v-.1c0-.2.2-.4.3-.5v-.2l.2-.1v-.2-.1-.3-.1-.2l-.4-.1h-.2c-.2.1-.2.1-.4-.1v-.2l.2-.2v-.2l-.5.1-.1.1-.3.2h-.1v-.2l.4-.2v-.3-.1-.1l-.1-.1v-.2l-.2-.2v.2c0 .1 0 .2-.2.2-.1 0-.2-.1-.2-.3v-.1l-.1.2c-.1 0-.1.1 0 .2v.1l-.1.3v.2l-.1.1h.2v.2h-.1-.2.3l.3.1H136v.2h.2l-.2.1v.1h.2l-.2.1v.1l.2-.2.4-.3-.5.5h-.1v.1h.1l.3-.3.2-.2-.4.6-.2.1.1.2h.1l.3-.4.2-.3-.5.8h.2v-.1l.2-.3.1-.3v.3c0 .2-.2.3-.3.5l-.2.1-.2-.2-.1-.3-.1-.1v-.5-.2l-.2.8V140.8h-.1l-.1.3-.6.6v.2h-.4 1.2c0-.2 0-.2.2-.2l.1-.1V141.2h.1l.1-.2zm4.6-15.7c0 .4-.4.7-.7 1-.2 0-.3.2-.4.3v.2c-.2 0-.3.2-.4.3l-.1.2-.5-.1v-.2-.1l-.2-.1h-.1v.2l.3.4v.2l.2.2v.2h-.1v.1c.2.2.2.4.1.6.2.3.1.5 0 .8h-.1V130c0 .2 0 .3-.2.4v.5c-.2 0-.2.1-.3.2v.1l-.1.3-.2.3s0 .2-.2.2v.2l-.1.1v.2l-.2.2v1c0 .3 0 .6-.2 1v.2c-.2.2-.2.3 0 .5 0 .2 0 .4.2.6v.4c.1.3.1.3.4.3h.2c.2 0 .4 0 .5.3v.1l.1.1c.2.1.3.4.2.6v.2l.2.1v.2h.1l.2.3.2.3v.5l.2.3.1.2v.1l-.1.3-.1.2v.6l-.2.1v.1l-.1.2-.1.2-.3.3-.6.3-.4.1v.6c-.2.3-.4.4-.6.4H129a1 1 0 01-.5-.2.5.5 0 010-.8h-1l-.2-.2h-.1l-.2-.2-.2-.5v-.3-.6h-.2l-.2-.4c0-.1 0-.3.2-.4v-.4l.1-.5v-.2c0-.1 0-.2.2-.3h.1l.2-.1c0-.2 0-.2.2-.3.1 0 .1 0 0-.2v-.2l.1-.4h.2l.1-.2v-.1c.1-.3.2-.3.5-.3h.2l.2-.1.1-.5v-.3l.1-.7c.1-.3.1-.5 0-.8l-.1-1v-.7-.1-.2h-.1a.3.3 0 01-.2-.3c0-.2 0-.3-.2-.4-.2 0-.2-.2-.2-.3l-.2-.3s-.2-.1-.2-.3l-.2-.2v-.3l-.2-.6v-.3-.4l.1-.2v-.3c0-.2.1-.2.2-.3l.1-.3.1-.2.1-.2v-.4l-.1.1v.1c-.1.2-.4.4-.6.3h-.1a1 1 0 00-.3-.4l-.3-.5c0-.2-.2-.2-.3-.3l-.2-.2c0-.2 0-.2-.2-.2l-.1-.1v-.5c0-.2.1-.3.3-.4l.3-.5c0-.3 0-.4.2-.5h.1l.3-.2c.2 0 .4-.2.4-.4l.3-.4.4-.2h.3c.2-.3.5-.3.8-.2l.2.2.4.2.4.1.2.1h.2v-.3l.2-.2c.1-.1.2-.2.1-.4v-.2-.2-.3c.2-.2.4-.2.6-.2H132l.1-.2H134.5v.1h.6c.2 0 .3.3.3.5l.1.2.1.3v.3l.1.3c.2.1.2.3.3.4 0 .2 0 .2.2.2l.5-.2.3-.1c.2-.3.4-.5.8-.5l.5.1.2.2c.3.1.4.4.5.7l.2.2h.5c.4.2.5.4.5.8l.1.3.3.3.1.3v.1zm-7.2 20.2v-.1h-.3c-.2 0-.3 0-.3.2 0 .1 0 .2.2.2l.3-.1.1-.2zm-1.8 0h.5v-.6h-.5v.6zm-3.8-.6v.5H128.5v-.5h-.6zm2.4 0v.3l-.1.3h-.1v.1c.2.2.5.1.6 0v-.2-.4h-.4zm3.2 1H133l-.2-.3c0-.2 0-.4.3-.4h.4l.1.1v-.4h-1v1.4h-.1c-.1 0-.2-.1-.2-.3v-.3h-.5v.2s-.1.1-.2 0a3.5 3.5 0 01-.3-.2l.1-.2h.1v-.6h-.4v1.5h-.1c-.2-.3-.2-.2-.2-.5h-.5a1 1 0 01-.3-.4h-.4c-.2 0-.3 0-.3.2v.3l.3.2v.1l-.2-.1-.2-.3-.1-.3c0-.1 0-.3.3-.3h.7c.2 0 .2-.3.2-.4h-1.4v1.5a.3.3 0 01-.3-.3v-.4h-.3l-.2-.1-.1-.1-.2.3v.1l.2.2.2.1v.2h-.1l-.2-.3a5 5 0 01-.3-.4l-.1-.2v-.1l.1-.1h.2v-.4h-.4v-.2h6.6v.2h-.2v1.5c-.2-.1-.2-.3-.2-.5zm3.3-1v.4c.1 0 0 0 0 .1h-.1c-.1.1-.1.1 0 .2.2.2.5.1.6 0v-.2-.4h-.5zm-.7 0v1.5l-.2-.2v-.7h-.4v.4c0 .1 0 .2-.2.2l-.3-.1-.4-.6h.1l.1.1c0 .2.1.2.2.3h.2c.1 0 .2 0 .1-.2l-.1-.2h-.1v-.1H136v-.4h-1.3v-.2h4.5v.2h-.2v1.5l-.2-.2v-.6-.1h-.4s-.2 0-.3.2l.1.4.2.1v.1c.1 0 0 0 0 0l-.4-.5-.1-.1c0-.2.1-.4.3-.4h.5v-.4h-1v1.5c-.2 0-.2-.2-.3-.3v-.3c-.2.2-.4.1-.6 0l-.2-.3-.1-.1v-.1h.2c.1 0 .2-.3.1-.4h-.6zm1.8-1l.4.3.3.4-.2-.2c-.1-.1-.2-.2-.3-.1l-.2-.1-.1-.1v-.1m-5.6.7l-.1-.1-.2-.2c0-.1-.1-.2-.3-.1l-.2-.1v-.1c-.1 0 0-.1 0-.1.2 0 .3 0 .5.2l.2.3v.1"/><path fill="#A29C8F" d="M131.8 122.8l.5-.3c.2 0 .3 0 .4.2v.1h-.2c-.1-.2-.2-.2-.3 0h-.2c0 .1-.1.1-.2 0m3 0h-.2-.2-.3l-.1.1h-.1l.2-.3h.4l.2.2m-6 16.5v.4c-.1-.1-.1-.2 0-.2v-.2m.1.2v.3-.3m.1.2v0m-.3-.3l.1-.3-.1.3m-.2-.4v-.2.2m.2 0l-.1.2v-.2m-.1-.4s-.1 0 0 .1h-.1l.1-.1m-.2 0v-.1.2M128 138.6v-.1m8.2.7v-.1c-.1 0-.1 0 0-.1h-.2l.1-.2h.3V139.2c-.1 0-.2.1-.2 0m.7.5v-.1h.1v.1m-3.5.3c0-.2-.1-.3-.3-.3-.1 0-.3.1-.3.3 0 .2.2.3.3.3.2 0 .3-.1.3-.3m.8-1.5l-.8 1.2 1.1-.9c-.1 0-.2 0-.2-.2m-.5-.3l-.5 1.3.9-1s0-.1 0 0c-.2 0-.3-.1-.3-.2v-.1m-1 1.4l-1-1.1c0 .2 0 .3-.2.3l1.1.8m0-1.5l.3 1.4.2-1.4c-.1.1-.3.1-.4 0m1.7.7l-1.2.9 1.4-.6c-.2 0-.3-.1-.2-.2v-.1m-3.3.9l1.4.1-1.3-.6v.4h-.1m2.2.2l1.4-.2c-.1 0-.2-.2-.1-.3v-.1l-1.3.6m-.6-.3l-.5-1.3c0 .2-.2.3-.3.2h-.1l.9 1.2m-1 1.7l1-1.1-1.2.9c.2 0 .3 0 .3.2m1.3-1l.6 1.3c0-.2.2-.3.3-.2l-.9-1.2m1.3.8l-1.2-.8.9 1.1c0-.2 0-.3.2-.3m-1-1l1.3.5v-.3h.1l-1.4-.2m-1.1 1.6l.3-.7.2-.6-.9 1s0 .1.1 0l.3.2v.1m1.4 0l-.6-1.3.2 1.4.3-.1h.1m-2.5-1.5l1.4-.2h-.7l-.7-.2c.1.1.1.3 0 .4m3.6 0v-.4l-1.4.2 1.4.2m-1.9.2l-.5 1.3h.3v.1l.2-1.4m-.2-.2l-1.4.6h.1c.1 0 .2.1.1.2v.1l1.2-.9m-1.4.5l1.3-.6-1.4.2c.2 0 .2.2.1.3v.1m2-2.5l-.2 1.4.6-1.3h-.1-.3v-.1m0 3.6l-.3-1.4-.2 1.4h.4m-.5-2l-.6-.4-.6-.5v.1l-.1.3 1.3.5m-.4-1.5l.6 1.3-.2-1.4c0 .1-.2.2-.3.1m2.1 2.7l.1-.2.1-.1-1.3-.5 1 .9h.1m.5-1.1a2 2 0 11-4 0 2 2 0 014 0m-5-1.5h.1v-.1zm.2 0v-.1zm.2 0v-.1zm-.7 0zm-.2 0zm-.6 0zm.3 0h-.1zm-.3.2zm.5 0h-.1m.1 0h.2-.2zm0 .3h.2-.2zm.3.6v-.1zm0 0h.1v.2h-.1v-.1m.5 0h-.1zm-.1-.7zm.5-.5v-.1h.1zm-1.2 1h.1m-.2-1zm0 1h.1-.1zm.6-.2zm-.5 0h.1m-.1 0h-.1m.5-.6h-.1m-.7.6h.1zm.4-.4v.1h-.1m-.4 0zm.8.3zm0-.3zm.2 0zm0 .7zm-.7-.8v.1h-.1zm0 .6h-.1.1m0-.8h-.1zm.8.8h-.1m0-1.1zm.3.2h.1c-.1.1-.1.1-.1 0m0 0l-.2.1h.1zm-.3.1zm-1.2 3h.1v-.1h-.1zm.4 0v-.1zm-.6.2h.1zm.2 0h.1zm.2 0h.1-.1zm.5 0h.1zm.5 0zm-.8 0zm.2 0zm.3 0h.2-.2zm-.7-.5h.1-.1zm-.2 0h.1-.1zm-.2 0h.1zm-.2.5h.2-.2zm-.2-.5h.1zm-.2 0h.1-.1zm.3.5v-.1m.3-.6h.1v-.1h-.1zm-.2 0h.1-.1zm-.2.4h.1-.1zm.2-.2h.1-.1zm0 .2h.1zm.2 0h.1-.1zm.7-.2h.1zm.7.3zm-.3 0h.2-.2zm-.3-.1zm.1 0h.1m-.6 0h.1-.1zm.1-.2h.2-.2zm6.3.2h.2-.1m.3-.4zm-.3-.3h.1zm-.4 1zm.4-.5zm-.8.6v-.1zm.8-.9h.1zm.2-.4h-.1v-.1zm-.4.5h.1-.1zm-.2.2zm.2 0h.1-.1zm0 .3zm-.4 0zm.3 0h-.1zm-.2.2h-.1m.4 0h.1-.1zm-1.6-16.1v-.1l.2-.4v.3c0 .1 0 .2-.2.2m-1.3-.4v.3h0v-.3m5.1 14.3h.1zm-.7-1.2h-.1zm1 .6zm-.3.2h.1zm0-.2v-.1zm0 .4h.1zm-.3-.7h.1zm0 .3h.1v-.1zm-.3-.3v-.1zm.1.3h.1v-.1zm0-.3h.1v-.1zm-6.5 2.1h.2-.2zm.3 0v-.1zm-.5-.2h.1v-.1zm.2 0h.1v-.2zm0-.3h.1zm-.2 0h.1-.1zm.7 1h.1zm-.2-.9v.1zm2.3-15.4v.2h-.2l-.1-.2h.2m2.1 13.4h.2v-.1h-.2zm.3.7h.1-.1zm0-.7v-.1zm0 .5v-.1zm0-.3zm1.6 2.9v-.1zm0-.3h.1zm0 .4"/><path fill="#A29C8F" d="M133.1 139.9l.2-.2.2.2c0 .1 0 .2-.2.2 0 0-.2 0-.2-.2"/></g><text fill="#a29c8f" font-family="TimesNewRomanPS-BoldMT, 'Times New Roman'" font-size="14.9" font-weight="bold" letter-spacing="0" transform="translate(24 70)"><tspan x="127.1" y="68.8">GOVT OF INDIA</tspan></text><g fill="#A29C8F"><path d="M231 157.3l-1.9-5.3h1l1.4 4.4 1.5-4.4h1l-2 5.3zm7.4-3.7a1.5 1.5 0 00-.8-.8l-.6-.1h-.6l-.4.4c-.2.1-.3.3-.3.5l-.2.5h3v-.5m.1 3.3a2.7 2.7 0 01-2.6.2c-.3 0-.5-.2-.7-.5-.2-.2-.4-.5-.5-.9l-.2-1c0-.5 0-.8.2-1.2l.5-.8a2.3 2.3 0 011.8-.8c.5 0 .8 0 1.1.3.4.2.6.4.8.7l.4 1v1h-3.9l.1.7c0 .2.2.3.3.5l.5.4.8.1c.3 0 .6 0 .9-.2.2-.2.4-.5.4-.8h.9c-.1.6-.4 1-.8 1.3m2.7-4.9v1.1l.8-1a2 2 0 011.2-.2v1h-.9l-.6.5-.3.6-.1 1v2.3h-.9V152h.8zm2.9 5.3h.9V152h-.9v5.3zm0-6.2h.9v-1h-.9v1zm1.9 1.7v-.8h.9v-.8c0-.4 0-.7.3-1 .3-.2.6-.3 1.1-.3a2.1 2.1 0 01.6.1v.8h-.3l-.2-.1-.5.1-.2.5v.7h1v.8h-1v4.5h-.8v-4.5h-1zm5.8 5.2l-.3.6-.4.5-.3.2h-.5a2.2 2.2 0 01-.6 0v-.8a1.5 1.5 0 00.5.1l.4-.1.3-.4.3-.9-2-5.2h1l1.5 4.3 1.4-4.3h1l-2.3 6zm3.2-.7h1V152h-1v5.3zm0-6.2h1v-1h-1v1zm3.3 1v.8c.3-.7 1-1 1.7-1l.9.1a1.4 1.4 0 01.8 1l.1.8v3.5h-.9v-3.6c0-.3 0-.6-.2-.8a1 1 0 00-.8-.2h-.7l-.5.4-.3.5v3.7h-1V152h.9zm7.8 4.3l.5-.5.3-.6a3.2 3.2 0 000-1.4c0-.3-.1-.5-.3-.6 0-.2-.2-.4-.4-.5l-.7-.1-.7.1-.5.4-.3.6v1.5l.2.6.5.5.7.2c.3 0 .5 0 .7-.2m1.1 2.4c-.3.4-1 .6-1.8.6h-.8l-.6-.4c-.2 0-.4-.2-.6-.4l-.2-.8h.9l.1.4c.1.2.2.2.4.3l.4.2h.4l.8-.1.5-.5.2-.6.1-.8v-.3c-.1.3-.4.5-.7.7l-1 .2c-.3 0-.7 0-1-.2a2.2 2.2 0 01-1.1-1.4l-.2-1 .1-1 .4-.9a2.2 2.2 0 012-1l.9.3c.2.2.5.4.6.7v-.8h.8v4.8c0 .9-.2 1.5-.6 2m2 36.8l-.5-1 1.4-.5.4 1zm-12-30l-.8-2 1.4-.5.7 2-1.4.5zm1.5 3.9l-.8-2 1.4-.5.8 1.9-1.4.6zm1.5 3.8l-.7-2 1.3-.5.8 2-1.4.5zm1.6 4l-.8-2 1.4-.6.8 2-1.4.5zm1.5 3.8l-.8-2 1.4-.5.8 2-1.4.5zm1.6 3.9l-.8-2 1.4-.5.8 2-1.4.5zm1.5 3.8l-.8-1.9 1.4-.6.8 2-1.4.5zm1.6 4l-.8-2 1.4-.6.8 2-1.4.5z"/></g></g></svg>