<svg xmlns="http://www.w3.org/2000/svg" xmlns:xlink="http://www.w3.org/1999/xlink" width="533" height="320" viewBox="0 0 533 320">
    <defs>
        <path id="prefix__a" d="M0.723 0.429L442.188 0.429 442.188 307.001 0.723 307.001z"/>
        <path id="prefix__c" d="M0 319.135L532.868 319.135 532.868 0.429 0 0.429z"/>
        <path id="prefix__e" d="M.185 4.746S1.84 4.296 3.323.854C1.41 3.274.185 4.746.185 4.746"/>
        <linearGradient id="prefix__f" x1="39.914%" x2="65.299%" y1="73.916%" y2="21.621%">
            <stop offset="0%" stop-color="#DBEBFF"/>
            <stop offset="100%" stop-color="#FFF"/>
        </linearGradient>
    </defs>
    <g fill="none" fill-rule="evenodd">
        <g transform="translate(0 .436)">
            <path fill="#F7E8C8" d="M0 312.401c0-3.719 116.336-6.734 259.844-6.734 143.507 0 259.842 3.015 259.842 6.734 0 3.72-116.335 6.734-259.842 6.734C116.336 319.135 0 316.12 0 312.401"/>
            <g transform="translate(23.362)">
                <mask id="prefix__b" fill="#fff">
                    <use xlink:href="#prefix__a"/>
                </mask>
                <path fill="#FFF4DD" d="M43.594 306.441c-45.644-47.433-46.96-72.227-39.361-86.143 7.62-13.95 22.587-14.015 32.023-31.884 12.006-22.736-5.427-35.502-1.334-64.329C38.43 99.377 57.113 67.38 86.959 58.08c35.631-11.1 57.659 19.35 92.064 8.391 33.58-10.695 25.011-43.656 63.378-59.293 28.276-11.524 68.521-8.125 87.395 8.95 13.987 12.655 7.232 24.676 21.348 43.072 18.055 23.528 43.812 15.328 54.038 31.884 14.89 24.103-30.328 47.345-20.681 82.787 7.152 26.276 35.828 27.55 50.702 57.056 13.368 26.517 5.146 55.124-4.67 76.075l-386.939-.56" mask="url(#prefix__b)"/>
            </g>
            <path fill="#A4B751" d="M469.883 287.034c3.297-1.956 14.494-7.81 14.566-11.946.08-4.506-3.306-9.037-7.488-10.02-1.806-.425-3.735-.274-5.298-1.66-.873-.774-1.295-2.072-.79-3.078.824-1.644 3.082-.998 4.764-.365 3.221 1.211 6.725 1.711 9.896.775 3.17-.935 5.938-3.469 6.727-6.886.79-3.417-.76-7.605-3.83-9.25-1.92-1.027-4.177-1.027-5.924-2.6-.906-.817-1.442-2.086-1.114-3.238.663-2.326 3.833-1.84 6.073-1.072 3.164 1.087 6.483 1.881 9.692 1.454 3.209-.427 6.31-2.255 7.652-5.338 1.343-3.082.452-7.426-2.39-9.34-1.14-.768-2.467-1.106-3.65-1.785-1.418-.816-2.732-2.426-2.049-4.15.474-1.194 1.727-1.745 2.97-1.597 1.722.206 3.06 1.265 4.412 2.307 2.13 1.644 4.745 2.435 7.236 2.023 7.442-1.23 7.45-10.685 2.763-14.608-1.316-1.1-3.096-2.062-3.195-3.86-.08-1.42.963-2.525 2.257-2.755 2.557-.454 4.692 1.341 7.073 1.922 4.354 1.06 8.82-2.94 8.545-7.653-.21-3.605-4.465-3.28-8.427-3.751-.911-.109-1.149-1.442-.323-1.798 3.282-1.415 7.147-3.92 9.195-5.567 3.757-3.02 6.247-11.464-1.018-12.961-1.948-.402-6.007 1.567-6.82 3.081-1.152 2.141-5.662 7.77-5.662 7.77-.54.565-1.488-.043-1.304-.842.418-1.81.606-3.675.16-5.62-.205-.89-.568-1.755-1.09-2.501-3.114-4.446-8.417-2.02-10.075 1.917-1.379 3.27-.975 7.149-.63 10.829.18 1.907.3 3.992-1.015 5.361-.744.776-1.935 1-2.86.353-1.07-.748-1.001-1.99-1.217-3.102-.709-3.638-4.933-5.867-8.17-4.859-3.238 1.008-5.302 4.471-5.717 8.082-.415 3.611.557 7.34 1.847 10.83.638 1.72 1.373 3.558.627 5.293-.44 1.023-1.538 1.619-2.564 1.18-1.46-.627-1.52-2.594-1.926-4.134-1.127-4.276-6.491-6.331-10.1-4.521-3.608 1.811-5.37 6.364-5.247 10.736.14 4.926 2.263 9.692 4.344 14.17.491 1.055.306 2.342-.552 2.972-1.19.872-2.38-.23-3.405-1.065-3.957-3.221-9.825-3.182-13.348.089-3.522 3.27-4.33 9.427-1.835 14.006 1.585 2.908 4.305 5.176 4.447 8.802.07 1.795-1.006 3.425-2.667 3.576-2.096.191-3.425-2.048-4.92-3.573-4.148-4.229-11.33-2.993-14.583 1.581s-.033 15.16 2.116 20.772c2.15 5.613 6.402 17.396 11.905 22.427 2.593 2.37 18.639-4.858 21.936-6.813"/>
            <path fill="#619440" d="M528.208 170.237c-1.948-.402-6.006 1.567-6.821 3.081-1.152 2.142-5.66 7.771-5.66 7.771-.542.564-1.49-.044-1.305-.842.418-1.812.605-3.676.159-5.621-.204-.89-.566-1.755-1.089-2.501-3.115-4.446-8.417-2.019-10.076 1.916-1.378 3.272-.974 7.15-.628 10.83.178 1.907.298 3.992-1.016 5.361-.745.776-1.935 1.001-2.86.353-1.07-.748-1.001-1.99-1.218-3.103-.707-3.637-4.932-5.865-8.17-4.858-3.237 1.009-5.3 4.471-5.715 8.082-.416 3.611.556 7.34 1.847 10.828.637 1.721 1.372 3.56.626 5.295-.44 1.023-1.538 1.62-2.564 1.18-1.46-.627-1.52-2.594-1.926-4.133-1.127-4.277-6.491-6.332-10.1-4.522-3.608 1.811-5.371 6.364-5.246 10.736.139 4.926 2.261 9.692 4.344 14.17.49 1.055.305 2.342-.553 2.971-1.19.873-2.381-.23-3.405-1.064-3.956-3.221-9.826-3.182-13.348.088-3.522 3.27-4.329 9.429-1.834 14.007 1.584 2.908 4.303 5.176 4.445 8.802.07 1.795-1.004 3.425-2.666 3.576-2.096.191-3.424-2.048-4.92-3.574-4.148-4.228-11.33-2.992-14.583 1.582-3.254 4.575-.033 15.16 2.116 20.772 2.007 5.237 5.842 15.846 10.818 21.33.356.393 1.087 1.097 1.087 1.097s15.096-39.088 39.735-76.371c13.685-20.71 44.467-44.712 44.467-44.712s-.277-.5-.873-.997c-1.024-.854-2.686-1.45-3.068-1.53"/>
            <path fill="#306B34" d="M411.488 253.538c-1.184 4.383-1.773 8.894-2.268 13.368-.643 5.825.465 7.404 2.638 12.354 2.173 4.952 6.232 8.774 11.137 9.463 4.904.687 8.773 2.727 11.789-2.289.426-.707 1.234-.305 1.33.053.686 2.527.97 4.1 2.662 5.7 1.77 1.675 12.248 8.477 23.148-1.604 5.283-8.768 6.561-18.818 8.437-28.95.236-1.279.443-2.606.184-3.817-.476-2.225-2.696-3.54-4.69-2.777 1.798-.055 3.463-1.755 4.309-3.693.845-1.938 1.039-4.087 1.218-6.173l1.981-23.13c-4.92 2.492-10.519 2.569-15.034.205 0 0 15.772-5.4 14.896-13.416-.636-5.814-1.726-13.88-2.045-19.769-.223-4.12-1.969-8.343-3.766-11.722-1.534-2.883-2.553-4.876-4.99-6.74-1.474-1.124-3.022-2.28-4.853-2.445-2.78-.249-5.515 1.822-7.826 3.988-4.233 3.966-8.003 8.58-11.503 13.412-4.152 5.732-7.943 11.798-11.33 18.122 3.857 7.435 9.57 13.429 16.373 17.175-6.255-1.392-12.085-4.437-16.948-8.85-.585-.531-1.234-1.11-2.02-1.022-1.569.173-2.192 2.55-2.448 4.362-1.083 7.657-3.978 15.186-8.278 21.527l7.288 1.89-9.133.775s.804 10.068-.258 14.003"/>
            <path fill="#A4B751" d="M408.841 255.922c-1.183 4.383-.547 17.508 2.574 24.285 2.26 4.912 6.602 8.613 11.32 10.118 3.698 1.181 9.033 1.124 12.049-3.891.425-.707 1.233-.305 1.33.053.686 2.527 23.232-118.172 21.457-118.331-2.78-.25-5.514 1.822-7.825 3.988-4.233 3.966-8.005 8.58-11.504 13.412-4.152 5.732-7.944 11.798-11.329 18.122 3.857 7.435 9.569 13.428 16.373 17.175-6.255-1.392-12.086-4.438-16.948-8.85-.586-.531-1.236-1.109-2.022-1.022-1.567.173-2.19 2.55-2.446 4.362-1.085 7.657-3.98 15.186-8.278 21.527l7.288 1.89-9.134.775s-1.842 12.452-2.905 16.387"/>
            <path fill="#306B34" d="M60.9 256.858c1.203-3.623 6.448-20.662-2.874-35.224-5.587-8.726-16.908-17.352-22.71-14.246-5.659 3.029-4.74 16.502-1.467 25.264 6.134 16.42 22.962 22.782 27.051 24.206"/>
            <path fill="#619440" d="M91.298 289.853l1.33-1.8c-.178-.132-18.088-13.469-30.808-31.833-12.75-18.408-19.361-36.35-19.426-36.529l-2.105.766c.067.182 6.777 18.394 19.69 37.038 12.938 18.677 31.137 32.223 31.32 32.358"/>
            <path fill="#619440" d="M52.018 244.522L52.888 242.46 43.663 238.573 42.793 240.635zM46.859 230.433L49.029 222.03 46.861 221.472 44.691 229.874zM78.212 228.155c-4.28-3.538-23.902-20.483-23.664-45.618.143-15.062 7.43-34.427 16.979-35.078 9.31-.635 18.586 16.675 21.32 29.996 5.124 24.966-10.697 45.789-14.635 50.7"/>
            <path fill="#306B34" d="M88.911 288.314l2.192-.46c-.063-.296-6.256-29.829-11.79-59.903-5.519-29.997-6.428-61.617-6.437-61.933l-2.238.06c.008.318.922 32.106 6.473 62.279 5.539 30.101 11.739 59.66 11.8 59.957"/>
            <path fill="#306B34" d="M75.323 201.024L83.016 184.04 80.977 183.118 73.284 200.102zM71.57 183.096l2.167-.56c-.58-2.233-2.226-3.937-3.549-5.307l-4.41-4.564-1.611 1.555 4.41 4.565c1.201 1.241 2.561 2.65 2.992 4.311"/>
            <path fill="#F6C8B2" d="M236.22 147.48c44.306 0 80.223 35.901 80.223 80.188 0 44.285-35.917 80.186-80.224 80.186-44.305 0-80.222-35.901-80.222-80.186 0-44.287 35.917-80.187 80.222-80.187"/>
            <path fill="#FFF4DD" d="M245.544 227.667l14.061-14.055c2.575-2.573 2.575-6.746 0-9.32s-6.749-2.574-9.323 0l-14.062 14.055-14.062-14.055c-2.575-2.574-6.75-2.574-9.324 0-2.575 2.574-2.575 6.747 0 9.32l14.062 14.055-14.062 14.054c-2.575 2.575-2.575 6.748 0 9.321 2.575 2.575 6.75 2.575 9.324 0l14.062-14.054 14.062 14.054c2.574 2.575 6.748 2.575 9.323 0 2.575-2.573 2.575-6.746 0-9.32l-14.061-14.055z"/>
            <path fill="#57575E" d="M207.841 276.011c-1.715 0-3.373-.559-4.759-1.617-3.443-2.631-4.105-7.573-1.472-11.016l.603.46c-2.38 3.11-1.783 7.576 1.33 9.955 1.508 1.152 3.373 1.646 5.254 1.397 1.881-.251 3.552-1.22 4.705-2.727l.602.46c-1.275 1.667-3.125 2.74-5.206 3.017-.353.048-.706.071-1.057.071"/>
            <path fill="#FFBF4D" d="M128.264 5.505c-1.399-2.282-3.904-2.896-5.28-2.003-1.235.801-1.27 2.63-1.271 2.85-1.289-1.6-3.485-1.548-4.396-.495-.258.298-.42.688-.483 1.118l8.699 12.177c1.13.26 2.213.039 2.853-.561.877-.825 1.033-2.466.42-4.001 1.697-.45 2.644-1.857 2.418-2.987-.18-.907-1.072-1.402-1.276-1.51.965-.903 1.188-2.298.595-3.32-.706-1.22-2.203-1.267-2.28-1.268"/>
            <path fill="#F89F4F" d="M188.961 290.03L207.762 262.552 211.581 256.969 206.441 253.455 183.82 286.517z"/>
            <path fill="#FFC581" d="M117.024 62.882s11.829 19.812 16.803 25.045c4.976 5.231 32.384 25.387 32.384 25.387l3.237-3.53-27.25-31.154-9.788-16.956-15.386 1.208z"/>
            <path fill="#F4CCCC" d="M112.7 31.449c-2.471-.616-5.795-.36-8.712 1.363-2.63 1.552-3.963 3.724-4.507 4.75.14 1.508.425 3.032.888 4.562 0 0 .075.242.202.606 0 0 .233.668.513 1.34.296.715 7.516 11.206 17.723 25.372 2.017-.528 4.337-1.29 6.825-2.405 3.312-1.486 5.996-3.188 8.06-4.71-4.075-7.847-7.895-14.715-11.246-20.51-3.287-5.684-5.544-9.322-9.745-10.368"/>
            <path fill="#FFC581" d="M169.447 109.784l1.451.508s1.496-.238 3.29.495c.344.14 2.967 1.205 4.135 3.974.525 1.247.904 3.186.205 3.647-.756.5-2.82-.709-2.768-.689l-9.57-4.397 3.257-3.538zM134.488 281.699L141.025 281.693 141.024 280.103 134.487 280.108z"/>
            <path fill="#A29C8F" d="M134.514 280.108s-2.833 2.73.005 5.563l16.876-.015c.08-.334.436-1.972-.543-3.59-.79-1.306-1.978-1.82-2.37-1.97l-8.082.007s-2.924 1.715-5.886.005"/>
            <path fill="#57575E" d="M153.806 286.546L134.02 286.563 134.019 285.67 153.805 285.655z"/>
            <path fill="#57575E" d="M148.483 280.096c2.643-.001 4.787 2.138 4.79 4.78v.779l-2.585.003c.053-.582.06-1.482-.25-2.512-.487-1.61-1.47-2.613-1.955-3.05"/>
            <path fill="#FFC581" d="M139.727 274.924L139.542 280.352 135.179 280.273 134.906 276.934z"/>
            <path fill="#57575E" d="M144.749 281.728L143.911 280.404 144.313 280.15 145.151 281.475zM142.999 281.915L142.291 280.503 142.716 280.291 143.424 281.702z"/>
            <path fill="#FFC581" d="M7.797 225.667L11.067 231.325 12.445 230.53 9.175 224.872z"/>
            <path fill="#A29C8F" d="M9.189 224.895s-3.781-1.09-4.819 2.784l8.442 14.605c.33-.097 1.928-.607 2.84-2.263.737-1.337.589-2.621.524-3.036l-4.043-6.995s-2.946-1.676-2.944-5.095"/>
            <path fill="#57575E" d="M13.245 244.817L3.348 227.692 4.121 227.246 14.018 244.371z"/>
            <path fill="#57575E" d="M16.176 236.986c1.322 2.288.538 5.213-1.75 6.536l-.674.389-1.293-2.238c.53-.244 1.312-.688 2.05-1.472 1.153-1.224 1.532-2.576 1.667-3.215"/>
            <path fill="#FFC581" d="M14.385 227.917L11.489 229.371 9.378 225.554 12.136 223.649z"/>
            <path fill="#57575E" d="M13.317 234.789L12.897 234.568 13.626 233.181 14.047 233.402zM12.258 233.407L11.861 233.145 12.73 231.827 13.128 232.089z"/>
            <path fill="#7F786A" d="M67.465 290.56c-.054-9.785-8.033-17.674-17.821-17.62-9.79.053-17.682 8.029-17.628 17.813.053 9.784 8.032 17.673 17.82 17.62 9.79-.054 17.682-8.03 17.629-17.814"/>
            <path fill="#A29C8F" d="M59.971 290.6c-.031-5.647-4.636-10.2-10.286-10.17-5.65.031-10.206 4.635-10.175 10.282.031 5.648 4.636 10.201 10.286 10.17 5.65-.03 10.206-4.635 10.175-10.281"/>
            <path fill="#7F786A" d="M234.259 290.56c-.054-9.785-8.033-17.674-17.822-17.62-9.79.053-17.681 8.029-17.628 17.813.054 9.784 8.033 17.673 17.821 17.62 9.789-.054 17.682-8.03 17.629-17.814"/>
            <path fill="#A29C8F" d="M226.764 290.6c-.031-5.647-4.636-10.2-10.286-10.17-5.65.031-10.206 4.635-10.175 10.282.032 5.648 4.636 10.201 10.287 10.17 5.65-.03 10.205-4.635 10.174-10.281"/>
            <path fill="#7F786A" d="M94.377 99.536s-8.802 19.518-8.802 27.949c0 8.43 5.176 48.69 5.176 48.69L9.873 221.497l4.206 8.29 95.797-32.629c4.964-1.69 8.628-5.928 9.577-11.082 2.433-13.21 6.63-38.567 5.33-50.037-1.8-15.884-30.406-36.502-30.406-36.502"/>
            <path fill="#A29C8F" d="M83.265 99.571s-2.7 2.076 2.433 25.348c3.682 16.7 38.153 57.185 38.153 57.185l8.625 95.3 8.374-.531 7.69-87.016c.741-8.388-.21-16.837-2.798-24.851-6.66-20.62-19.915-60.356-24.356-64.199l-2.275-12.26-35.846 11.024z"/>
            <path fill="#FFE2B7" d="M110.652 26.97c-.279-.432 6.337-7.343 6.337-7.343l6.507 4.97-4.765 9.503s-4.289-1.285-8.079-7.13"/>
            <path fill="#FFC581" d="M115.334 21.602c.07.338.153.671.254.996.86 2.758 2.999 5.303 5.532 6.737l2.376-4.739-6.507-4.969s-.732.858-1.655 1.975"/>
            <path fill="#FFE2B7" d="M125.068 7.253c.445.187 3.838 1.68 5.426 5.246 2.11 4.737.586 12.12-4.298 13.837-4.675 1.644-10.346-2.633-11.892-7.587-1.37-4.39.215-10.233 4.129-11.938 2.75-1.199 5.717.054 6.635.442"/>
            <path fill="#F89F4F" d="M110.725 26.694s-22.528-.967-27.46 72.877l38.808 1.776 4.063-43.45c1.166-12.474-4.794-24.542-15.411-31.203"/>
            <path fill="#A29C8F" d="M83.265 99.571s-9.389 24.13 7.264 39.801c16.653 15.67 3.68-26.818 3.68-26.818L83.264 99.571z"/>
            <path fill="#F89F4F" d="M190.506 287.544H50.507c-1.72 0-3.114 1.393-3.114 3.113 0 1.718 1.393 3.111 3.114 3.111h133.771c3.439 0 6.228-2.786 6.228-6.224M217.313 293.469c1.679-.374 2.738-2.036 2.364-3.714l-25.135-113.021-5.243-23.58-6.08 1.351 30.379 136.601c.373 1.678 2.037 2.737 3.715 2.363"/>
            <path fill="#FFBF4D" d="M180.61 120.08L186.775 147.805 188.028 153.437 184.489 154.224 177.072 120.866z"/>
            <mask id="prefix__d" fill="#fff">
                <use xlink:href="#prefix__c"/>
            </mask>
            <path fill="#FFBF4D" d="M69.473 288.633L195.027 288.633 195.027 286.455 69.473 286.455z" mask="url(#prefix__d)"/>
            <path fill="#FFE2B7" d="M116.094 62.8s10.4 20.598 14.992 26.168c4.592 5.57 37.306 27.358 37.306 27.358l1.662-4.77-29.96-31.27-8.567-17.606-15.433.12z" mask="url(#prefix__d)"/>
            <path fill="#FFBF4D" d="M107.31 15.125c-1.292.45-2.898-.541-3.137-2.008-.224-1.365.8-2.749 2.298-2.926-.165-.19-1.12-1.322-.843-2.554.33-1.459 2.3-2.645 4.65-2.15-.349-1.13.154-2.333 1.135-2.843 1.096-.569 2.542-.14 3.186 1.029-.162-1.579.764-2.924 1.872-3.192 1.354-.327 3.17.907 3.29 2.957.128-.179 1.22-1.646 2.691-1.582 1.639.073 3.321 2.028 3.132 4.698.061.045 1.252.952 1.12 2.355-.112 1.177-1.106 2.182-2.417 2.356.105.207.542 1.128.161 1.971-.472 1.05-2.06 1.645-3.703 1.026-.395 1.605-1.475 2.85-2.67 3.012-1.678.226-3.882-1.652-3.858-4.607.235 1.705-1.036 3.18-2.501 3.266-1.525.09-3.002-1.339-2.855-3.13-.053 1.09-.676 2.017-1.55 2.322" mask="url(#prefix__d)"/>
            <path fill="#FFE2B7" d="M117.62 16.81c0-1.21-.982-2.192-2.192-2.192-1.211 0-2.193.981-2.193 2.191s.982 2.192 2.193 2.192c1.21 0 2.193-.982 2.193-2.192" mask="url(#prefix__d)"/>
            <path fill="#57575E" d="M186.111 153.866l-4.88-21.19c-.07-.3-.355-.503-.67-.46-3.918.486-7.596-2.043-8.544-5.886-.5-2.026-.18-4.125.9-5.912s2.791-3.045 4.819-3.545l.18.735c-1.83.452-3.376 1.588-4.351 3.201-.975 1.614-1.263 3.51-.812 5.34.856 3.47 4.174 5.76 7.716 5.316.7-.086 1.343.362 1.5 1.043l4.88 21.188-.738.17z" mask="url(#prefix__d)"/>
            <path fill="#A29C8F" d="M182.238 117.24c0-2.41-1.955-4.364-4.365-4.364-2.412 0-4.366 1.955-4.366 4.364 0 2.41 1.954 4.364 4.366 4.364 2.41 0 4.365-1.954 4.365-4.364" mask="url(#prefix__d)"/>
            <path fill="#FFE2B7" d="M170.054 111.557l1.606.225s1.303-.77 3.243-.746c.37.005 3.201.035 5.304 2.183.947.967 2.008 2.632 1.528 3.317-.52.742-2.884.375-2.828.373l-10.515-.583 1.662-4.77z" mask="url(#prefix__d)"/>
            <path fill="#57575E" d="M180.051 117.24c0-1.203-.976-2.179-2.18-2.179-1.203 0-2.178.976-2.178 2.179 0 1.203.975 2.179 2.179 2.179 1.203 0 2.18-.976 2.18-2.179" mask="url(#prefix__d)"/>
            <path fill="#FFF" d="M51.528 290.656c0-.579-.47-1.049-1.05-1.049-.579 0-1.049.47-1.049 1.05 0 .579.47 1.049 1.049 1.049.58 0 1.05-.47 1.05-1.05M217.583 290.656c0-.579-.47-1.049-1.05-1.049-.578 0-1.05.47-1.05 1.05 0 .579.472 1.049 1.05 1.049.58 0 1.05-.47 1.05-1.05" mask="url(#prefix__d)"/>
            <path fill="#7F786A" d="M127.745 183.372c-2.044 0-3.967-.884-4.054-.925l.32-.686c.021.009 2.158.986 4.174.837l.056.756c-.165.012-.331.018-.496.018" mask="url(#prefix__d)"/>
            <path fill="#FFC581" d="M132.907 90.503c-.879-.127-1.478-.474-1.784-1.03-.46-.844-.028-1.82-.01-1.86l.691.311c-.003.006-.295.68-.014 1.189.186.334.598.55 1.225.64l-.108.75z" mask="url(#prefix__d)"/>
            <path fill="#FDC343" d="M35.525 9.411l-2.052-.376-.542-.1c-2.474-.452-4.848 1.184-5.303 3.658l-2.707 14.755c-.587 3.192 1.035 6.277 3.78 7.689l-9.45 51.498 66.215 12.14 13.401-73.02c.453-2.473-1.185-4.846-3.658-5.3L35.525 9.41z" mask="url(#prefix__d)"/>
            <path fill="#7F786A" d="M97.578 32.678L31.362 20.538 32.037 16.861 98.253 29.002z" mask="url(#prefix__d)"/>
            <path fill="#F89F4F" d="M67.059 43.651l-11.061-2.029c-2.032-.371-3.377-2.32-3.004-4.35l18.419 3.377c-.373 2.03-2.322 3.375-4.354 3.002" mask="url(#prefix__d)"/>
            <path fill="#7F786A" d="M86.168 94.982L19.953 82.841 20.627 79.165 86.843 91.306zM89.426 29.284L91.2 19.62 87.521 18.945 85.748 28.609zM44.439 21.035L46.222 11.324 42.543 10.65 40.761 20.361z" mask="url(#prefix__d)"/>
            <path fill="#F8963E" d="M28.806 35.064c-.036 0-.072-.003-.108-.01-.322-.058-.536-.368-.476-.69l3.725-20.297c.059-.322.368-.536.69-.476.323.058.536.368.477.69L29.39 34.578c-.053.287-.302.486-.583.486" mask="url(#prefix__d)"/>
            <path fill="#7F786A" d="M86.168 94.982l-1.552-4.07c.1-.131 10.466-12.135 19.462-26.047 16.97-26.238 14.282-30.427 13.92-30.818-6.33-6.835-20.423-1.857-20.565-1.806l-1.316-3.63c.676-.245 16.642-5.903 24.715 2.814 2.306 2.49 1.759 7.218-1.725 14.883-2.467 5.429-6.436 12.384-11.795 20.67-9.08 14.037-21.042 27.873-21.144 28.004" mask="url(#prefix__d)"/>
            <path fill="#FFC581" d="M131.528 62.68l-15.433.12s1.49 2.952 3.592 6.924c1.728-.38 3.64-.905 5.676-1.652 2.797-1.024 5.182-2.222 7.144-3.379l-.98-2.013z" mask="url(#prefix__d)"/>
            <path fill="#FDC343" d="M113.657 29.85c-2.423-.788-5.755-.768-8.788.745l-.082.04c-3.26 1.658-4.998 5.336-4.205 8.905.006.03.012.058.02.088 0 0 .058.247.158.618 0 0 .186.684.417 1.373.245.734 6.705 11.708 15.885 26.56 2.05-.383 4.418-.978 6.978-1.916 3.41-1.25 6.207-2.756 8.373-4.13-3.51-8.115-6.834-15.234-9.768-21.252-2.877-5.902-4.87-9.69-8.988-11.031" mask="url(#prefix__d)"/>
            <path fill="#FFE2B7" d="M388.956 129.252s-17.069 19.29-10.259 61.333c6.809 42.044 17.221 111.105 17.221 111.105h3.645l9.964-138.097s5.969-11.709 6.338-35.529l-26.909 1.188zM394.839 303.127L400.745 303.127 400.745 301.69 394.839 301.69z" mask="url(#prefix__d)"/>
            <path fill="#A29C8F" d="M400.72 301.69s2.561 2.465 0 5.026h-15.247c-.073-.303-.396-1.782.488-3.244l.021-.036c.687-1.113 1.942-1.746 3.25-1.746h6.17s2.643 1.547 5.317 0" mask="url(#prefix__d)"/>
            <path fill="#57575E" d="M385.048 308.351L401.171 308.351 401.171 306.715 385.048 306.715zM391.864 303.408L390.72 302.686 391.476 301.489 392.621 302.21z" mask="url(#prefix__d)"/>
            <path fill="#57575E" d="M393.468 303.536L392.258 302.93 392.896 301.655 394.107 302.26z" mask="url(#prefix__d)"/>
            <path fill="#FFC581" d="M415.859 128.386c-.446-.085-.895-.175-1.342-.262l-17.535.774c-5.915 10.052-12.555 23.837-17.22 39.79-.945 3.23-1.756 6.383-2.462 9.455.237 3.902.685 8.046 1.397 12.443 1.003 6.196 2.085 12.981 3.2 20.044 7.32 2.24 14.79 3.638 21.709 4.928.719.134 1.433.257 2.145.378l3.777-52.343s5.913-11.605 6.33-35.207" mask="url(#prefix__d)"/>
            <path fill="#FFE2B7" d="M432.162 122.242c.96.03 3.695 10.123 4.033 11.218 1.513 4.889 3.416 13.588 3.766 15.508 1.843 10.096-3.792 72.111-17.531 152.722h-3.613c-3.067-45.757-6.447-94.381-9.515-140.138l1.68-39.979 21.18.669" mask="url(#prefix__d)"/>
            <path fill="#B26464" d="M417.644 303.127L423.55 303.127 423.55 301.69 417.644 301.69z" mask="url(#prefix__d)"/>
            <path fill="#A29C8F" d="M417.668 301.69s-2.562 2.465 0 5.026h15.247c.074-.303.396-1.782-.488-3.244l-.021-.036c-.688-1.113-1.941-1.746-3.25-1.746h-6.17s-2.642 1.547-5.318 0" mask="url(#prefix__d)"/>
            <path fill="#57575E" d="M417.217 308.351L433.34 308.351 433.34 306.715 417.217 306.715z" mask="url(#prefix__d)"/>
            <path fill="#DFEDF7" d="M426.523 303.408L425.767 302.21 426.912 301.489 427.668 302.686z" mask="url(#prefix__d)"/>
            <path fill="#DFEDF7" d="M424.92 303.536L424.281 302.26 425.491 301.655 426.13 302.93z" mask="url(#prefix__d)"/>
            <path fill="#FFC581" d="M439.961 148.968c-.35-1.92-2.253-10.619-3.766-15.509-.092-.299-.366-1.278-.733-2.539l-5.138-.548c-.404-.208-1.075-.488-1.946-.567-1.133-.102-2.024.188-2.48.372-4.198-.692-8.513-1.474-12.935-2.356-.753-.15-1.491-.335-2.22-.54-.481 11.424-.96 22.848-1.442 34.272 1.217 18.135 2.482 36.722 3.757 55.4 7.97.877 15.319.933 21.827.552 4.552-37.052 6.197-62.396 5.076-68.537" mask="url(#prefix__d)"/>
            <path fill="#57575E" d="M457.935 65.805c2.382-5.19 3.223-12.837-.77-16.358-3.84-3.384-8.822-.028-12.499-3.45-3.666-3.415.069-8.498-2.591-13.976-4.053-8.345-20.476-13.152-27.698-6.449-3.306 3.069-5.106 8.942-3.276 13.255 2.15 5.064 7.617 3.961 10.904 9.764 3.027 5.34-.246 8.681 2.826 12.275 3.812 4.457 10.208.907 14.152 5.35 3.828 4.314.096 10.752 3.1 12.09 3.43 1.528 12.286-4.733 15.852-12.5" mask="url(#prefix__d)"/>
            <path fill="#FDC343" d="M405.622 41.333c0-3.063 2.485-5.546 5.548-5.546 3.065 0 5.548 2.483 5.548 5.546s-2.483 5.545-5.548 5.545c-3.063 0-5.548-2.482-5.548-5.545" mask="url(#prefix__d)"/>
            <path fill="#FFC581" d="M437.582 131.608s2.293 1.887 2.52 2.885c.227 1 .416 5.113-1.74 6.353-2.159 1.24-1.91-1.733-1.91-1.733l-.007-3.228-2.35-3.866 3.487-.41z" mask="url(#prefix__d)"/>
            <path fill="#FFA331" d="M423.48 71.274c-.262-2.655 2.233-4.72 4.822-4.074.88.22 1.764.466 2.65.74 16.139 4.999 26.608 17.294 32.734 26.954 2.838 4.475 2.408 10.286-1.104 14.255-2.182 2.466-4.478 4.966-6.89 7.485-6.662 6.955-12.493 12.82-18.746 18.12-1.285-.843-1.25-1.907-2.536-2.75 2.93-5.333 5.576-9.609 9.363-15.417 3.809-5.844 7.63-11.188 11.349-16.044-6.698-4.787-11.734-8.312-14.534-10.263 0 0-15.244-9.164-16.898-17.586-.096-.486-.164-.961-.21-1.42" mask="url(#prefix__d)"/>
            <path fill="#FB938E" d="M361.75 74.021c.043-3.842-.351-4.767-.744-4.842-.543-.104-1.692 1.291-1.398 2.794.205 1.054 1.062 1.876 2.141 2.048" mask="url(#prefix__d)"/>
            <path fill="#57575E" d="M363.927 74.05l-5.213.066c-.845.011-1.583-.572-1.769-1.396l-2.919-12.983c-.25-1.108.586-2.166 1.723-2.18l5.214-.065c.845-.011 1.582.571 1.768 1.396l2.92 12.983c.249 1.108-.587 2.165-1.724 2.18" mask="url(#prefix__d)"/>
            <path fill="#A29C8F" d="M359.932 63.341c-.093-.576-.635-.967-1.211-.874-.576.093-.968.635-.875 1.21.093.577.636.968 1.211.874.577-.092.968-.634.875-1.21" mask="url(#prefix__d)"/>
            <path fill="#FFE2B7" d="M359.164 78.873l-1.125-2.713c-.501-.405-1.308-1.164-1.886-2.349-.276-.562-1.44-2.94-.313-4.747.794-1.272 2.592-2.048 3.23-1.556.211.166.276.458.29.724l3.575 8.625-3.77 2.016z" mask="url(#prefix__d)"/>
            <path fill="#FFBF4D" d="M395.473 65.564s-8.495 6.054-11.918 16.01c-3.423 9.954-5.927 17.834-5.927 17.834l-14.849-23.164s-3.074 1.37-3.824 2.448c-.992 1.43 10.946 32.013 14.084 37.614 3.407 6.08 21.182-17.665 23.515-28.125 2.332-10.46-1.081-22.617-1.081-22.617" mask="url(#prefix__d)"/>
            <path fill="#FFE2B7" d="M355.823 69.286s2.34-3.456 5.797-2.616c3.457.84-.648 6.502-.648 6.502l-5.149-3.886z" mask="url(#prefix__d)"/>
            <path fill="#A29C8F" d="M420.071 124.187c-.429-.152-1.13-.34-2.004-.301-1.136.05-1.98.457-2.407.701-4.255-.123-8.635-.32-13.134-.6-4.635-.29-8.92-1.83-13.276-2.252-5.142 11.003-11.21 27.788-14.143 47.198-2.322 15.374-2.163 28.834-1.265 39.332 10.4 2.882 21.34 3.43 31.183 3.92 13.803.688 25.89-.954 35.541-3.17.981-18.119 1.73-32.496 1.85-36.344.825-26.266-5.073-39.17-7.36-44.942-.661-1.667-1.25-3.023-1.65-3.918l-13.335.376" mask="url(#prefix__d)"/>
            <path fill="#7F786A" d="M433.407 123.81c-4.445.126-8.89.25-13.336.377-.338-.12-.849-.261-1.479-.296 2.124 6.211 4.103 12.88 5.818 20.001 6.185 25.676 6.937 48.766 5.826 67.064 3.69-.544 7.145-1.21 10.33-1.94.982-18.12 1.73-32.498 1.851-36.345.824-26.265-5.074-39.171-7.36-44.942-.661-1.667-1.252-3.024-1.65-3.918" mask="url(#prefix__d)"/>
            <path fill="#FFBF4D" d="M433.496 123.814c.893-11.476.939-24.91-.932-39.749-.741-5.88-1.713-11.42-2.827-16.598l-18.8-6.214-15.475 4.31c-1.948 8.387-3.684 17.915-4.825 28.444-1.093 10.097-1.453 19.406-1.387 27.728 5.289 1.45 11.79 2.772 19.28 3.326 9.908.736 18.439-.103 24.966-1.247" mask="url(#prefix__d)"/>
            <path fill="#FFA331" d="M433.496 123.814c.893-11.476.939-24.91-.932-39.749-.741-5.88-1.713-11.42-2.827-16.598l-12.053-3.984c-2.383 1.817-3.223 4.302-1.287 7.695 5.686 9.97 2.684 38.532.483 54.153 6.39-.057 12.005-.709 16.616-1.517" mask="url(#prefix__d)"/>
            <path fill="#FFE2B7" d="M405.928 59.487l-.09-8.71 8.653-.42.11 9.726c.193 1.763 2.34 3.155 4.024 3.71l3.04 1.006c-.318 2.691-3.068 8.822-5.701 9.22-4.99.752-11.168-7.67-13.984-10.271 1.858-.518 3.828-2.338 3.948-4.261" mask="url(#prefix__d)"/>
            <path fill="#FFC581" d="M414.535 54.247l-.044-3.89-8.653.42.063 6.054c.713.493 1.515.82 2.39.918 2.434.273 4.756-1.292 6.244-3.502" mask="url(#prefix__d)"/>
            <path fill="#FFE2B7" d="M405.752 41.446c-.311.226-2.678 1.99-3.273 5.042-.79 4.054 1.715 9.511 5.813 9.97 3.92.44 7.558-3.893 7.87-8.013.279-3.653-1.997-7.904-5.34-8.529-2.349-.437-4.427 1.065-5.07 1.53" mask="url(#prefix__d)"/>
            <path fill="#FFE2B7" d="M418.281 47.71c.09-1.05-.689-1.973-1.738-2.064-1.05-.09-1.975.688-2.065 1.738-.09 1.05.689 1.973 1.74 2.063 1.05.09 1.973-.687 2.063-1.737" mask="url(#prefix__d)"/>
            <path fill="#57575E" d="M403.28 38.55c-.773 1.687.802 4.145 2.25 5.417 3.57 3.136 10.174 2.41 11.23-.057.754-1.759-1.299-4.448-3.202-5.767-3.537-2.452-9.18-1.986-10.277.407" mask="url(#prefix__d)"/>
            <path fill="#FFBF4D" d="M335.847 226.51c-7.742 0-14.018 6.273-14.018 14.012l.066-.018c9.137-2.474 18.767-2.474 27.905 0l.065.018c0-7.739-6.275-14.012-14.018-14.012" mask="url(#prefix__d)"/>
            <path fill="#FFA331" d="M349.866 240.376c0-1.048-6.276-1.898-14.019-1.898-7.742 0-14.018.85-14.018 1.898s6.276 1.897 14.018 1.897c7.743 0 14.019-.849 14.019-1.897M316.868 308.214L312.813 308.228 318.415 298.494 320.89 301.214zM354.944 308.214L359 308.228 353.97 299.401 350.752 300.884z" mask="url(#prefix__d)"/>
            <path fill="#FFBF4D" d="M368.605 273.8c0-18.057-14.644-32.695-32.709-32.695-18.065 0-32.708 14.638-32.708 32.694 0 18.057 14.643 32.695 32.708 32.695 18.065 0 32.709-14.638 32.709-32.695" mask="url(#prefix__d)"/>
            <path fill="#FFF4DD" d="M361.012 273.8c0-13.865-11.245-25.104-25.116-25.104s-25.115 11.24-25.115 25.103c0 13.865 11.244 25.105 25.115 25.105 13.87 0 25.116-11.24 25.116-25.105" mask="url(#prefix__d)"/>
            <path fill="#FFBF4D" d="M338.378 273.8c0-1.37-1.111-2.481-2.482-2.481-1.371 0-2.482 1.11-2.482 2.48 0 1.37 1.11 2.481 2.482 2.481 1.37 0 2.482-1.11 2.482-2.48" mask="url(#prefix__d)"/>
            <path fill="#FFBF4D" d="M328.406 272.778c3.698-.047 7.831.515 7.831 1.021 0 .507-4.133 1.069-7.83 1.022-3.061-.038-5.61-.49-7.418-.92-.106-.025-.106-.177 0-.203 1.809-.43 4.357-.882 7.417-.92" mask="url(#prefix__d)"/>
            <path fill="#FFBF4D" d="M336.918 263.735c.046 4.969-.515 10.524-1.022 10.524s-1.069-5.555-1.022-10.524c.038-4.114.49-7.54.921-9.97.025-.143.177-.143.202 0 .43 2.43.883 5.856.921 9.97" mask="url(#prefix__d)"/>
            <path fill="#FFA331" d="M337.39 273.8c0-.825-.668-1.495-1.495-1.495-.824 0-1.494.67-1.494 1.494 0 .825.67 1.495 1.494 1.495.827 0 1.496-.67 1.496-1.495" mask="url(#prefix__d)"/>
            <path fill="#FDC854" d="M419.665 297.207h69.225c.882 0 1.597.714 1.597 1.596v7.214c0 .88-.715 1.595-1.597 1.595h-69.225c-.882 0-1.596-.714-1.596-1.595v-7.214c0-.882.714-1.596 1.596-1.596" mask="url(#prefix__d)"/>
            <path fill="#F89F4F" d="M420.05 307.612h68.457c1.093 0 1.98-.885 1.98-1.98v-1.186h-72.419v1.187c0 1.094.887 1.98 1.981 1.98" mask="url(#prefix__d)"/>
            <path fill="#FDC854" d="M419.665 286.802h69.225c.882 0 1.597.714 1.597 1.595v7.215c0 .88-.715 1.595-1.597 1.595h-69.225c-.882 0-1.596-.715-1.596-1.595v-7.215c0-.881.714-1.595 1.596-1.595" mask="url(#prefix__d)"/>
            <path fill="#F89F4F" d="M420.05 297.207h68.457c1.093 0 1.98-.886 1.98-1.979v-1.187h-72.419v1.187c0 1.093.887 1.98 1.981 1.98" mask="url(#prefix__d)"/>
            <path fill="#FDC854" d="M419.665 276.396h69.225c.882 0 1.597.715 1.597 1.597v7.214c0 .88-.715 1.594-1.597 1.594h-69.225c-.882 0-1.596-.714-1.596-1.594v-7.214c0-.882.714-1.597 1.596-1.597" mask="url(#prefix__d)"/>
            <path fill="#F89F4F" d="M420.05 286.802h68.457c1.093 0 1.98-.886 1.98-1.98v-1.187h-72.419v1.188c0 1.093.887 1.979 1.981 1.979" mask="url(#prefix__d)"/>
            <path fill="#FDC854" d="M415.591 265.99h69.226c.881 0 1.596.715 1.596 1.597v7.214c0 .88-.715 1.595-1.596 1.595H415.59c-.881 0-1.596-.714-1.596-1.595v-7.214c0-.882.715-1.596 1.596-1.596" mask="url(#prefix__d)"/>
            <path fill="#F89F4F" d="M415.975 276.396h68.458c1.094 0 1.98-.885 1.98-1.979v-1.187h-72.418v1.187c0 1.094.887 1.98 1.98 1.98" mask="url(#prefix__d)"/>
            <path fill="#FDC854" d="M419.665 256.038h69.225c.882 0 1.597.715 1.597 1.596v7.215c0 .88-.715 1.594-1.597 1.594h-69.225c-.882 0-1.596-.714-1.596-1.594v-7.215c0-.881.714-1.596 1.596-1.596" mask="url(#prefix__d)"/>
            <path fill="#F89F4F" d="M420.05 266.444h68.457c1.093 0 1.98-.886 1.98-1.98v-1.188h-72.419v1.188c0 1.094.887 1.98 1.981 1.98" mask="url(#prefix__d)"/>
            <path fill="#FDC854" d="M416.95 245.633h69.224c.882 0 1.597.714 1.597 1.595v7.215c0 .88-.715 1.595-1.597 1.595H416.95c-.881 0-1.596-.714-1.596-1.595v-7.215c0-.88.715-1.595 1.596-1.595" mask="url(#prefix__d)"/>
            <path fill="#F89F4F" d="M417.333 256.038h68.458c1.094 0 1.98-.885 1.98-1.979v-1.187h-72.418v1.187c0 1.094.887 1.98 1.98 1.98" mask="url(#prefix__d)"/>
            <path fill="#FDC854" d="M415.591 235.227h69.226c.881 0 1.596.715 1.596 1.596v7.215c0 .88-.715 1.595-1.596 1.595H415.59c-.881 0-1.596-.715-1.596-1.595v-7.215c0-.881.715-1.596 1.596-1.596" mask="url(#prefix__d)"/>
            <path fill="#F89F4F" d="M415.975 245.633h68.458c1.094 0 1.98-.886 1.98-1.979v-1.187h-72.418v1.187c0 1.093.887 1.979 1.98 1.979" mask="url(#prefix__d)"/>
            <path fill="#FDC854" d="M418.307 224.822h69.225c.882 0 1.597.714 1.597 1.597v7.213c0 .88-.715 1.595-1.597 1.595h-69.225c-.881 0-1.596-.714-1.596-1.595v-7.213c0-.883.715-1.597 1.596-1.597" mask="url(#prefix__d)"/>
            <path fill="#F89F4F" d="M418.691 235.227h68.458c1.094 0 1.98-.885 1.98-1.978v-1.188H416.71v1.188c0 1.093.887 1.978 1.98 1.978" mask="url(#prefix__d)"/>
            <path fill="#FDC854" d="M419.665 214.417h69.225c.882 0 1.597.714 1.597 1.596v7.214c0 .88-.715 1.595-1.597 1.595h-69.225c-.882 0-1.596-.714-1.596-1.595v-7.214c0-.882.714-1.596 1.596-1.596" mask="url(#prefix__d)"/>
            <path fill="#F89F4F" d="M420.05 224.822h68.457c1.093 0 1.98-.886 1.98-1.979v-1.187h-72.419v1.187c0 1.093.887 1.979 1.981 1.979" mask="url(#prefix__d)"/>
            <path fill="#FDC854" d="M526.686 271.457c-.055-19.983-16.307-36.137-36.3-36.083-19.992.056-36.154 16.3-36.099 36.283.056 19.983 16.307 36.138 36.3 36.083 19.992-.056 36.154-16.3 36.099-36.283" mask="url(#prefix__d)"/>
            <path fill="#F89F4F" d="M519.102 271.894c-.044-15.986-13.045-28.911-29.04-28.867-15.993.045-28.923 13.04-28.879 29.027.045 15.986 13.047 28.91 29.04 28.866 15.994-.045 28.923-13.04 28.88-29.026" mask="url(#prefix__d)"/>
            <path fill="#306B34" d="M268.476 178.792s22.965 7.712 19.841 34.177c-3.125 26.466 1.375 58.714 1.375 58.714H276.6s-23.322-31.426-6.138-54.971c17.184-23.549-1.987-37.92-1.987-37.92" mask="url(#prefix__d)"/>
            <path fill="#A4B751" d="M270.295 180.44c4.178 3.448 16.336 15.98 3.234 36.723-15.566 24.645 9.81 54.438 9.81 54.438l6.285-.423.068.505H276.6s-23.323-31.425-6.138-54.972c13.792-18.9 4.17-31.88-.168-36.27" mask="url(#prefix__d)"/>
            <path fill="#4900BC" d="M269.401 179.58c-.565-.516-.925-.788-.925-.788s2.064.698 4.866 2.379c-1.85-.897-3.284-1.388-3.94-1.59" mask="url(#prefix__d)"/>
            <path fill="#619440" d="M293.608 242.414c-1.227-23.486-.278-26.422 8.855-34.178 9.135-7.755 22.007-20.506 22.007-20.506-8.767 17.352-8.592 25.239-10.242 38.004-1.28 9.903-16.162 29.669-22.773 38.038 1.463-3.394 2.763-9.697 2.153-21.358" mask="url(#prefix__d)"/>
        </g>
        <g transform="translate(288.131 263.355)">
            <mask id="prefix__g" fill="#fff">
                <use xlink:href="#prefix__e"/>
            </mask>
            <path fill="url(#prefix__f)" d="M.185 4.746S1.84 4.296 3.323.854C1.41 3.274.185 4.746.185 4.746" mask="url(#prefix__g)"/>
        </g>
        <g>
            <path fill="#306B34" d="M66.16 12.678c4.56 19.513-5.134 32.625-5.134 32.625h-9.559c.034-6.725-.45-13.176-3.618-19.698-.167-.345-.368-.664-.583-.97 1.35-.63 2.848-1.268 4.517-1.908C69.434 15.95 61.602-6.835 66.16 12.678" transform="translate(231.89 219.247)"/>
            <path fill="#619440" d="M41.38 17.586c9.701 4.908 6.896 25.94 6.896 25.94l-9.118 3.27s1.637-9.58-4.559-17.057c-6.196-7.479-10.287-4.612-10.287-4.612s7.364-12.449 17.067-7.54M87.905 7.654c16.29 0 25.402 9.814 25.402 9.814s-6.342-3.22-17.687-2.804c-11.344.417-10.521 10.05-19.64 19.047-9.118 8.996-16.716 10.282-16.716 10.282s12.076-17.46 20.925-29.329c1.558-2.089.04-7.01 7.716-7.01" transform="translate(231.89 219.247)"/>
            <path fill="#FAF9FC" d="M116.463 20.821c.067.174.082.27.082.27s-.026-.098-.082-.27" transform="translate(231.89 219.247)"/>
            <path fill="#A4B751" d="M74.695 18.17c3.04-4.09-.117-14.138 19.288-11.801 17.724 2.133 21.89 12.646 22.48 14.452-.448-1.166-3.283-5.914-20.376-9.778-19.638-4.44-9.234 5.726-18.119 12.153-8.884 6.426-16.132 18.46-16.132 18.46s-5.027 8.413-3.857 1.402c1.169-7.01 13.676-20.798 16.716-24.888M14.492 26.933c8.884-18.11 19.628-16.931 26.77-12.97 10.135 5.623 8.471 29.096 8.471 29.096l-1.457.468s-.234-4.558-1.01-12.387c-.775-7.828-4.6-18.943-16.993-3.505C17.88 43.072.347 45.848.347 45.848s5.26-.803 14.145-18.915" transform="translate(231.89 219.247)"/>
            <path fill="#A4B751" d="M37.984 4.387c2.791-2.047 5.625-1.697 7.814-.786 2.763 1.15 5.877.771 8.43-.77 9.343-5.651 10.058 2.117 10.058 2.117l-.252 2.103c-.014.014-.014.042-.014.07-.674 3.899-2.862 12.002-12.232 15.606-1.67.645-16.37 7.01-16.37 7.01 1.99-8.062-3.157-21.143 2.566-25.35" transform="translate(231.89 219.247)"/>
            <path fill="#57575E" d="M62.561 90.03H46.967c-5.734 0-10.38-4.645-10.38-10.374V41.538h36.355v38.118c0 5.73-4.648 10.374-10.38 10.374" transform="translate(231.89 219.247)"/>
            <path fill="#7F786A" d="M33.042 46.797L76.486 46.797 76.486 41.539 33.042 41.539z" transform="translate(231.89 219.247)"/>
        </g>
        <path fill="#FDC854" d="M497.054 260.916c.758 0 1.373-.714 1.373-1.593s-.615-1.593-1.373-1.593h-13.731c-.758 0-1.373.714-1.373 1.593 0 .88.615 1.593 1.373 1.593h5.493c1.788 0 3.298 1.334 3.866 3.185h-9.359c-.758 0-1.373.713-1.373 1.592 0 .88.615 1.593 1.373 1.593h9.359c-.568 1.85-2.078 3.185-3.866 3.185h-5.493c-.178 0-.356.041-.524.121-.335.162-.604.47-.744.863-.14.388-.14.828 0 1.217.069.196.17.372.3.518l10.981 12.738c.27.311.62.468.972.468.351 0 .703-.157.972-.466.536-.62.536-1.63 0-2.252l-8.642-10.023h2.178c3.317 0 6.088-2.739 6.725-6.37h1.513c.758 0 1.373-.713 1.373-1.592 0-.88-.615-1.592-1.373-1.592h-1.513c-.206-1.185-.662-2.255-1.269-3.185h2.782z"/>
    </g>
</svg>
