<svg xmlns="http://www.w3.org/2000/svg" xmlns:xlink="http://www.w3.org/1999/xlink" width="503" height="297" viewBox="0 0 503 297"><defs/><defs><path id="a" d="M0 .8h502.7V22H0z"/><path id="c" d="M9.7 1.9a38 38 0 00-8.8 25c.2 1.9.5 3.8 1.5 5.3 1.6 2.4 4.5 3.3 7.1 4-.7 1.5-2.7 1.5-4.4 1.3-1.6-.1-3.6-.1-4.4 1.3-.5.8-.4 1.9-.4 2.8l1.1 15.3 4.4 1.7c-1.7-.6-3.4 1.1-3.6 3-.2 1.8.5 3.6 1.2 5.3l3.2 7.5c1 2.4 2.1 4.8 4 6.3 1.8 1.3 4 1.6 6 1.9 2.7.4 5.6.8 8.1-.2 2.6-1 1.4-7.3 4.1-6.6 1.4.4 2.6 1 3.6 1.7a5.3 5.3 0 006 0c1-.7 2-1.6 3-2.6 2-2 4-4.5 4.8-7.5.9-3.7-.3-7.7-1.7-11.4-1.3-3.7-2.9-7.5-2.7-11.4L37 45c1.3-1.2 2.7-2.6 2.8-4.4 0-1-.3-2-.6-2.9l-4-11.3c-4 4.7-7 7.6-13 6.7 2.2.1 4.5-.8 6-2.6a8.3 8.3 0 001.6-6.6A37 37 0 0011.4.7s-1.4.8-1.7 1.2"/><path id="f" d="M17.2 75.8h.6c1.4.4 2.6 1 3.6 1.7a5.3 5.3 0 006 0c1-.7 2-1.6 3-2.6 2-2 5.6-4.4 6.4-7.4.9-3.7 1.1-7-.2-10.7-1.4-3.7-6-8.3-5.8-12.2L26 45c1.3-1.2 2.7-2.5 2.8-4.4 0-1-.3-2-.6-2.9l-4-11.3c-4 4.7-7 7.6-13 6.7 2.2.1 4.5-.8 6-2.6a8.3 8.3 0 001.6-6.6A37 37 0 00.4.7l16.8 75.1z"/><path id="i" d="M7 2.5c-2.4 2.3-2 6.5.1 9.2 2.3 3 6.2 4.5 9.6 6 1 .4 1.6 1.2 1.8 2.2.2 2-2 2.8-3.7 2.7-2.7 0-5.2-1.1-7.9-1.3-2.6-.2-5.7 1-6.4 3.6-.4 1.6.4 3.4 1.6 4.6 1.2 1.2 2.9 1.8 4.5 2.3 4.6 1.3 9.5 1.2 14.1-.1 1-.3 2-.6 2.9-.5 1 .1 2 .8 2 1.8 0 .9-.7 1.7-1.6 2-.9.3-1.8.2-2.8.2a9 9 0 00-5.2 1.6 5.5 5.5 0 00-2.3 4.8c.3 2.7 3.1 4.6 5.8 4.8 2.8.2 5.4-.9 7.9-2L35 40c.7-.4 1.5.4 1 1.1a9.6 9.6 0 00-1.5 5.3c0 1.4.5 2.8 1.4 3.9 2.8 3.4 7.5 2 10.5-.5 2.4-2.2 2-2.4 4.5-4.6.8-.7 2.5-1.8 3.3-1 1.4 1.5-1.1 2.7-2.6 4.4-1.5 1.8-1 4.9.8 6.4 1.8 1.6 6.5 2 8.9 1.7C72.9 55.4 92 52.4 94 51c1.8-1.3 3.5-9.2 2.7-12-1.1-3.9-3.2-6.8-7.4-13-2.2-3-8-8-11.9-8-3.8 0-7.2 2.6-9 6-.5.8-1 1.8-1.6 2.5-1 1-3 1.2-3.5-.7-.3-.8 0-1.8.4-2.6 2.3-3.8-.1-9.3-4.3-10.5a7.5 7.5 0 00-9 5.5c-.5 1.8-.6 2.2-2.4 3.1-1 .6-2.3.3-3.2-.5-1.5-1.3-1.2-1.7-1.2-3.6 0-1.5 0-2.8-.4-4.2A5.8 5.8 0 0041 9.8c-5.8-4.3-11.1 1.8-9.6 6.5.3 1 .8 2 1 3 .1 1.2-.7 2.7-2.1 2.3-.9-.2-1.5-1-1.7-1.8-1.5-6.1-5-11.7-9.9-15.7a13.8 13.8 0 00-5.6-3L11.4.7C9.8.8 8 1.4 7 2.5"/><path id="k" d="M1 1.8c1.2 2.6 3.3 4.8 6 6.1.5.3 1.1.6 1.5 1 .5.7.4 1.4 0 2-.4.6-1.1.6-1.7.4-.7-.3-1.5.5-1.2 1.2.6 1.3 2.5 2.3 4.1 2 3-.6 3.7-3.9 6.2-2.1.4.2.7.5 1 .9.6.9.2 2.3-.7 3-1.2.7-2.6 1-3.6.6-.7-.4-1.5.3-1.3 1.1.3.7.7 1.4 1.4 1.9 1.3 1 3.1 1 4.7.5s3-1.4 4.5-2.3c1.3-.8 2.8-1.6 4.3-1 .9.3 1.5 1.2 1.3 2.1-.2 1.2-1.5 1.6-2.7 1.8l-4.5 1c-5.2.5-4 2-.3 6 .7.8 2.8 2.4 3.3 2.2 3.4-1 6-3.8 9-5.7 1.2-.7 2.4-1.5 3.8-1.3.6 0 1.3.4 1.7.9.8 1 .2 2.3-.7 2.9-.6.4-1.3.6-2 .8l-8.4 2.6c-.8.3-1.7.7-1.8 1.5 0 .6.4 1.1.8 1.6 1.6 1.6 3.1 3.2 5 4.3 2 1.1 4.4 1.6 6.5.7 1.4-.6 2.5-1.7 3.5-2.8 1-1 2-2.2 3.3-3 1.6-.8 3.7-.9 5 .6.7.9.7 2.3-.1 3.1-1 1-2.7.6-4 .5a8.1 8.1 0 00-8.4 6.1c-.1.6.1 1 .5 1.4 2.3 1.4 3.6 2.2 6.6 2.3 2.5 0 7.9-3.7 7.9-3.7 1-.6 2.3-1.2 3.6-.7.7.2 1.2 1 1.1 1.7-.1 1-1.2 1.4-2.2 1.6-1.3.3-4.3 2-6.3 2.7-.5.2-.7.9-.3 1.3 1.3 1.8 4.3 5.4 5.8 4.8 1-.5 4.9-4.8 6-4.8 1 0 1.9 1 2 2.1 0 1-1.3 2.7-2.2 3.7-.4.3-.4.9-.1 1.3 1.4 2 4.8 2.6 7.4 3.2l.3-1.2a30 30 0 002-15.2c0-.6-.8-.7-1-.3a4 4 0 01-2 1.5c-1.5.5-3.8-1.1-2.1-2.9.4-.4 1-.7 1.6-.9 2.4-.5 3-3 2.4-5.1-.4-1.4-1.3-2.5-2.2-3.6a1 1 0 00-1.5 0c-.6.8-.8 1.9-1.1 2.8-.5 1.4-1.7 3-3.2 2.3-.8-.3-1.2-1.4-1-2.3.6-2.4 3.1-3.1 4.2-5 .8-1.6.5-3.5-.5-5-.6-1.1-1.6-2-2.5-2.8a.7.7 0 00-1.3.5c-.1 2.2-.8 4.4-1.8 6.4-.7 1.4-2.8 1-3-.4-.2-.6-.1-1.1 0-1.6.5-1.5 1.8-2.7 2.4-4.2 1-2.6-.4-5.6-2.5-7.4-1.8-1.5-4-2.3-6.4-3a.8.8 0 00-1 1l.7 5.2c.1 1.3.2 2.8-1 3.4-.9.3-1.8 0-2.3-.6-1-1.2-.8-2.7-.5-4 .3-1.2.8-2.3.8-3.5 0-1.8-1-3.5-2.5-4.4-1-.7-2.3-1-3.6-1-.7 0-1.3.7-1 1.5.2 1 .4 1.9.1 2.8-.5 1.8-3.4 2.9-4 .3a4 4 0 01.2-2.3c1-3-2-6-5-5.7-.5 0-.8.6-.5 1.1.6 1 1.1 2 1.1 3 0 2-2.7 4.1-4.2 1-.3-.7-.4-1.4-.3-2 .4-3.3-3.2-5.4-5.9-4.6-.4 0-.6.5-.4.9.3.5.2 1.4-.3 1.7-.9.5-2 .2-2.7-.5-.8-.6-1.3-1.5-2-2.1C11 2 8.4 1.9 6 1.7c-1.3-.2-2.6-.5-3.8-1a.9.9 0 00-.4-.2c-.6 0-1 .7-.8 1.3"/><path id="n" d="M6.7.3C3.1.3.3 3.3.3 6.8c0 1.7.7 3.3 2 4.5a6.5 6.5 0 004.5 1.8H7c3.6 0 6.5-3 6.4-6.5 0-1.7-.7-3.3-2-4.5A6.4 6.4 0 006.8.3M3.5 10c-1-.9-1.4-2-1.4-3.2 0-2.5 2-4.6 4.5-4.7h.1a4.6 4.6 0 014.7 4.5c0 2.6-2 4.7-4.6 4.7h-.1c-1.2 0-2.4-.5-3.2-1.3"/><path id="q" d="M5.5 1A4.7 4.7 0 001 5.8c.1 2.5 2.4 4.4 5 4.3a4.7 4.7 0 004.6-4.9A4.7 4.7 0 005.5 1"/><path id="t" d="M.2 7.3a7 7 0 002 5.1 7.3 7.3 0 005.2 2.2h.2c4 0 7.2-3.1 7.3-7a7 7 0 00-2-5.2A7.4 7.4 0 007.6.3h-.1C3.6.3.3 3.4.2 7.3m7.3 5A5 5 0 013.9 11c-1-1-1.4-2.2-1.4-3.5a5 5 0 015-4.9h.2c1.3 0 2.6.6 3.5 1.5 1 1 1.4 2.2 1.4 3.5a5 5 0 01-5 4.9h-.1"/><path id="w" d="M.7 3.5a3 3 0 003 3.2 3 3 0 003.1-3 3 3 0 00-3-3.2 3 3 0 00-3.1 3"/><path id="z" d="M49 1.1c-1.8.8-2.8 2.8-3.5 4.7-1.3 3.5-2 7-2.3 10.7-.1 1-.2 1.9-.5 2.7-.4.8-1.2 1.5-2.1 1.4-.8 0-1.4-.7-1.7-1.4-.3-.7-.3-1.5-.3-2.3.2-5.5 2.8-11 7-14.6a8 8 0 00-6-.8 8 8 0 00-4.9 3.8c-1.5 2.7-1.2 6-.9 9.2l.7 7.3c.1 1 .2 2-.5 2.6-.6.6-1.6.5-2.3 0a4.3 4.3 0 01-1.5-1.9c-1.4-3-1.3-6.4-.5-9.6.8-3.2 2.4-6.2 3.9-9a47.8 47.8 0 00-19.8 12.5l-2.3 2.3c.2 4.8 3 9.4 7 11.7.9.5 1.9 1.1 1.8 2 0 .7-.8 1.2-1.4 1.3-.7 0-1.4-.2-2-.5-4.7-2.5-7.5-8-6.8-13.2C4.1 25.4.4 33.4.3 41.6c-.1 2.4.1 4.8 1 7 1 2.2 2.7 4.1 4.9 5 2.2.9 4.9.6 6.6-1 1-1 1.6-2.3 2.5-3.3 1-1 3-2 3.7-.9.4.6-.9 1.8-1.5 2.4l-.6.7c-2 2.4-2.3 5-1.6 8.1.8 3.4 3.9 8.4 6.2 11 2.3 2.6 7.1 4.1 9.8 4.3 11 .8 15.7-5.8 15.7-5.8s-6.5-.4-10-5.2c-3.2-4.2-3-9.4-5.5-14-.3-.8-.7-1.5-.7-2.3 0-.9.3-1.7 1.1-2 .8-.2 1.7.3 2.1 1 .4.8.5 1.6.7 2.4.8 5 3.2 9.5 6.8 12.9 2.5 2.3 5.6 4 9 4 2.5 0 5-1 7.1-2.5a38 38 0 005.7-5.2 24.4 24.4 0 01-22.8-8c-1-1.2-2-2.7-1.6-4.3.2-1 1.1-1.9 2.2-1.8 1 0 1.6 1 2.1 1.9a21.8 21.8 0 0017.1 10c2 .1 4 0 5.6-1.1 2.8-2 3.5-6 6.4-7.9a24 24 0 01-23.8-1 6 6 0 01-2-2c-.6-.7-.6-1.8 0-2.6.7-.9 2.1-.9 3.1-.4 1 .6 1.8 1.5 2.7 2.2 2.4 2 5.4 3 8.5 3.4 3.1.3 6.2-.1 9.3-.7 1.7-.3 3.5-.7 4.4-2.2.6-.8.7-1.8.8-2.7l1.4-12.6c-.5 1.9-6.2 6-10 6.8-2.2.4-6.7.1-8.9-.5a7 7 0 01-2-1c-.7-.4-1.2-1-1.1-1.8 0-.9.6-1.6 1.4-2a6 6 0 012.4-.4h4c2.3.1 4.4.2 6.6 0 3.5-.6 7.1-2.2 8.7-5.4-2.7-5.2-4-11.1-3.9-17 .1-1.8.3-3.7-.7-5.1l-.6 1.6a4.5 4.5 0 01-5.3 1.8c-1.5-.6-2.6-1.9-4.2-2-1 0-2.1.5-2.9 1.3a11 11 0 00-1.7 2.8l-4 8.3c-.7 1.3-1.8 2.9-3.2 2.6-1-.3-1.6-1.5-1.8-2.6-.5-2.5 0-5.3 1.5-7.5 1.4-2.2 3.7-3.9 6.2-4.5-1.1-1-2.3-2-3.7-2.5-.8-.3-1.7-.6-2.6-.6-.6 0-1.3.2-1.8.4m-3.5 26.5c-.6-.5-.8-1.4-.6-2.1l.8-1.8 1.5-2c.4-.5 1-.8 1.5-.6.5.1.8.5 1 .9.2.4.2.9.2 1.3a5.6 5.6 0 01-1.7 3.6c-.4.4-.8.7-1.3.8a2 2 0 01-.5.1c-.3 0-.6 0-.9-.2m-7 3c-.5 0-1-.4-1.1-.8-.3-.4-.3-.9-.3-1.4 0-1.4.2-2.9.7-4.2.2-.6.6-1.2 1.2-1.4.4 0 .9.1 1.2.4.3.3.5.8.6 1.2.4 1.3.2 2.8-.5 4l-.6 1.4c-.2.5-.7.8-1.2.8m15.3-3.8c-.4-.3-.6-.8-.5-1.2 0-.5.4-.8.8-1a4 4 0 011.3-.5c.3-.1.6-.2.8-.1.3 0 .6.2.7.5.1.2 0 .6-.2.8l-.1.3c-.4.5-1 .9-1.5 1.1a2 2 0 01-.8.2 1 1 0 01-.5-.1m-29.5 8.5a7.3 7.3 0 01-2.2-7c.2-1 1-2.2 2-2.2.5 0 1 .4 1.4.8.4.5.6 1 .8 1.5l1.1 2.2c.5 1 1 2 1.1 3 .1 1-.4 2.3-1.5 2.6a2 2 0 01-.6.1c-.8 0-1.5-.4-2.1-1m6.3-3.3c-.5-.3-.7-1-.8-1.5-.1-.7 0-1.3.1-1.9l.4-1c.2-.4.6-.6 1-.6s.7.3 1 .6l.2.4c.3.8.5 1.6.5 2.5 0 .6-.1 1.2-.6 1.6-.3.2-.5.3-.8.3-.3 0-.7-.2-1-.4m16 5.2c-1-.4-2.2-1-2.5-2a2 2 0 01.5-1.8 3 3 0 011.7-.9c1.2-.2 2.4.2 3.4.9 1.5.9 2 2.4 2 2.4 0 1-1 1.9-2 2h-.5c-.9 0-1.8-.3-2.6-.6m-9.8 5.3c-.9-.3-1.6-1-2-1.9-.2-1 .2-2.1 1-2.7.8-.6 2-.5 2.9 0l2.4 1.2c.8.5 1.3 1.4 1 2.2-.4 1-1.5 1.3-2.5 1.4h-1c-.6 0-1.2 0-1.8-.2m-21.7.4c-.8-.2-1.6-.5-2.3-1a3.2 3.2 0 01-1.1-2.3c0-1.5 7-2.4 8.6-1.4a3.5 3.5 0 011.2 1.3c.7 1.2 0 2.9-1.3 3.3a9.2 9.2 0 01-5 .1m10 15.4a5.2 5.2 0 01-1.6-2.2c-1-2.4-1-5.3.2-7.7.2-.5.5-1 1-1.3.4-.2 1-.2 1.4.1 1 .9 2.2 5.3 2.2 5.3.5 1.1 1 2.2 1 3.4 0 1.2-.5 2.4-1.6 2.9l-.9.1a3 3 0 01-1.7-.6"/><path id="B" d="M20.3.3c-4.7 3-8.9 6.7-12.6 10.8-2.5 2.4-4.8 4.9-6.9 7.6-.3.4.3 1 .6.5l.6-.7.3-.1L3.6 17c.1 0 .2 0 .3-.2l1.4-1.7A82 82 0 0121 2.1c.5-.3 0-1-.4-.7l-.5.3-.2-.1.9-.6c.3-.2 0-.7-.3-.7h-.2"/><path id="D" d="M4.5.3a4.2 4.2 0 00-4.2 4 4 4 0 001.1 3c.8.8 1.9 1.2 3 1.3 2.3 0 4.2-1.8 4.2-4a4 4 0 00-1.1-3 4.2 4.2 0 00-3-1.3zm-.1 7a3 3 0 01-2-.9c-.6-.5-.8-1.2-.8-2 0-1.5 1.3-2.8 2.9-2.8.8 0 1.5.4 2 1 .6.4.9 1.2.8 1.9C7.3 6 6 7.3 4.5 7.3h-.1z"/><path id="G" d="M.6 5.5C.6 8.5 3 11 5.8 11c3 0 5.4-2.3 5.4-5.2C11.2 2.7 9 .3 6 .3A5.3 5.3 0 00.5 5.5"/><path id="J" d="M.5 4a3 3 0 002.9 3 3 3 0 003-3 3 3 0 00-2.9-3 3 3 0 00-3 3"/><path id="M" d="M1 6.4l1.2 1.2a117 117 0 0044 25A114.4 114.4 0 0059 36l2.2.4 2.5.3h.2a9 9 0 009.8-6.8 8.7 8.7 0 00-9.2-10.5h-3.3A78.6 78.6 0 0150 18 109.8 109.8 0 017.6.8h-.2L1 6.3z"/><path id="P" d="M0 .8l.4 150.9 211-.5h.4L211.5.3.1.8zm1 1l209.6-.5.2 149-209.5.4L1 1.7z"/><path id="S" d="M1 .8h13.7v5.8H.9z"/><path id="U" d="M1.2 17.1c2 6 4.8 17.4 7 23.4 2.6 7.4 3 15.5 1.3 23-1.6 7-5 13.6-5.5 20.6-.8 12.4 5.3 16 18.3 19.1 12.9 3.2 31.2 5.6 37.1-5.5 4.6-8.5-7-27.4-9.1-36.6-4.3-19.4-3.7-28.7-18.5-43-3.8-3.7-8-6.8-12-10.2-2.6-2.1-4.5-6.2-8-6.7A16 16 0 009.3 1C-.3 1-.7 11.3 1.2 17"/><path id="X" d="M1.7 8.4v1.3a118 118 0 01-.8 23l13.7 1.9 2-9c1-5 2-10.1 2.4-15.7A8.6 8.6 0 0010.4.5a8.7 8.7 0 00-8.7 8"/><path id="aa" d="M.4 6.2l-.1.5L13 8.6l1.5-6L1 .8.4 6.2"/><linearGradient id="d" x1="0%" x2="100%" y1="50%" y2="50%"><stop offset="0%" stop-color="#FFB218"/><stop offset="100%" stop-color="#FFCF44"/></linearGradient><linearGradient id="g" x1="44.8%" x2="56.7%" y1="-4%" y2="100%"><stop offset="0%" stop-color="#FFB218"/><stop offset="100%" stop-color="#FFCF44"/></linearGradient><linearGradient id="l" x1="90.3%" x2="10.2%" y1="66.8%" y2="12%"><stop offset="0%" stop-color="#FFB218"/><stop offset="100%" stop-color="#FFCF44"/></linearGradient><linearGradient id="o" x1="0%" x2="100%" y1="50%" y2="50%"><stop offset="0%" stop-color="#FFB218"/><stop offset="100%" stop-color="#FFCF44"/></linearGradient><linearGradient id="r" x1="0%" x2="100%" y1="50%" y2="50%"><stop offset="0%" stop-color="#FFB218"/><stop offset="100%" stop-color="#FFCF44"/></linearGradient><linearGradient id="u" x1="0%" x2="100%" y1="50%" y2="50%"><stop offset="0%" stop-color="#FFB218"/><stop offset="100%" stop-color="#FFCF44"/></linearGradient><linearGradient id="x" x1="0%" x2="100%" y1="50%" y2="50%"><stop offset="0%" stop-color="#FFB218"/><stop offset="100%" stop-color="#FFCF44"/></linearGradient><linearGradient id="E" x1="0%" x2="100%" y1="50%" y2="50%"><stop offset="0%" stop-color="#FFB218"/><stop offset="100%" stop-color="#FFCF44"/></linearGradient><linearGradient id="H" x1="0%" x2="100%" y1="50%" y2="50%"><stop offset="0%" stop-color="#FFB218"/><stop offset="100%" stop-color="#FFCF44"/></linearGradient><linearGradient id="K" x1="0%" x2="100%" y1="50%" y2="50%"><stop offset="0%" stop-color="#FFB218"/><stop offset="100%" stop-color="#FFCF44"/></linearGradient><linearGradient id="N" x1="0%" x2="100%" y1="50%" y2="50%"><stop offset="0%" stop-color="#FFB218"/><stop offset="100%" stop-color="#FFCF44"/></linearGradient><linearGradient id="Q" x1="0%" x2="100%" y1="50%" y2="50%"><stop offset="0%" stop-color="#FFB218"/><stop offset="100%" stop-color="#FFCF44"/></linearGradient><linearGradient id="V" x1="0%" x2="100%" y1="50%" y2="50%"><stop offset="0%" stop-color="#FFB218"/><stop offset="100%" stop-color="#FFCF44"/></linearGradient><linearGradient id="Y" x1="0%" x2="100%" y1="50%" y2="50%"><stop offset="0%" stop-color="#FFB218"/><stop offset="100%" stop-color="#FFCF44"/></linearGradient><linearGradient id="ab" x1="98.8%" x2=".7%" y1="40.1%" y2="58.8%"><stop offset="0%" stop-color="#FFB218"/><stop offset="100%" stop-color="#FFCF44"/></linearGradient></defs><g fill="none" fill-rule="evenodd"><g transform="translate(0 274.2)"><mask id="b" fill="#fff"><use xlink:href="#a"/></mask><path fill="#F7E8C8" d="M502.7 11.4c0 5.9-112.5 10.6-251.4 10.6C112.5 22 0 17.2 0 11.4 0 5.5 112.5.8 251.3.8c138.9 0 251.4 4.7 251.4 10.6" mask="url(#b)"/></g><g transform="translate(89 83.2)"><mask id="e" fill="#fff"><use xlink:href="#c"/></mask><path fill="url(#d)" d="M9.7 1.9a38 38 0 00-8.8 25c.2 1.9.5 3.8 1.5 5.3 1.6 2.4 4.5 3.3 7.1 4-.7 1.5-2.7 1.5-4.4 1.3-1.6-.1-3.6-.1-4.4 1.3-.5.8-.4 1.9-.4 2.8l1.1 15.3 4.4 1.7c-1.7-.6-3.4 1.1-3.6 3-.2 1.8.5 3.6 1.2 5.3l3.2 7.5c1 2.4 2.1 4.8 4 6.3 1.8 1.3 4 1.6 6 1.9 2.7.4 5.6.8 8.1-.2 2.6-1 1.4-7.3 4.1-6.6 1.4.4 2.6 1 3.6 1.7a5.3 5.3 0 006 0c1-.7 2-1.6 3-2.6 2-2 4-4.5 4.8-7.5.9-3.7-.3-7.7-1.7-11.4-1.3-3.7-2.9-7.5-2.7-11.4L37 45c1.3-1.2 2.7-2.6 2.8-4.4 0-1-.3-2-.6-2.9l-4-11.3c-4 4.7-7 7.6-13 6.7 2.2.1 4.5-.8 6-2.6a8.3 8.3 0 001.6-6.6A37 37 0 0011.4.7s-1.4.8-1.7 1.2" mask="url(#e)"/></g><g transform="translate(100 83.2)"><mask id="h" fill="#fff"><use xlink:href="#f"/></mask><path fill="url(#g)" d="M17.2 75.8h.6c1.4.4 2.6 1 3.6 1.7a5.3 5.3 0 006 0c1-.7 2-1.6 3-2.6 2-2 5.6-4.4 6.4-7.4.9-3.7 1.1-7-.2-10.7-1.4-3.7-6-8.3-5.8-12.2L26 45c1.3-1.2 2.7-2.5 2.8-4.4 0-1-.3-2-.6-2.9l-4-11.3c-4 4.7-7 7.6-13 6.7 2.2.1 4.5-.8 6-2.6a8.3 8.3 0 001.6-6.6A37 37 0 00.4.7l16.8 75.1z" mask="url(#h)"/></g><g transform="translate(26 225.2)"><mask id="j" fill="#fff"><use xlink:href="#i"/></mask><path fill="#FBBF00" d="M7 2.5c-2.4 2.3-2 6.5.1 9.2 2.3 3 6.2 4.5 9.6 6 1 .4 1.6 1.2 1.8 2.2.2 2-2 2.8-3.7 2.7-2.7 0-5.2-1.1-7.9-1.3-2.6-.2-5.7 1-6.4 3.6-.4 1.6.4 3.4 1.6 4.6 1.2 1.2 2.9 1.8 4.5 2.3 4.6 1.3 9.5 1.2 14.1-.1 1-.3 2-.6 2.9-.5 1 .1 2 .8 2 1.8 0 .9-.7 1.7-1.6 2-.9.3-1.8.2-2.8.2a9 9 0 00-5.2 1.6 5.5 5.5 0 00-2.3 4.8c.3 2.7 3.1 4.6 5.8 4.8 2.8.2 5.4-.9 7.9-2L35 40c.7-.4 1.5.4 1 1.1a9.6 9.6 0 00-1.5 5.3c0 1.4.5 2.8 1.4 3.9 2.8 3.4 7.5 2 10.5-.5 2.4-2.2 2-2.4 4.5-4.6.8-.7 2.5-1.8 3.3-1 1.4 1.5-1.1 2.7-2.6 4.4-1.5 1.8-1 4.9.8 6.4 1.8 1.6 6.5 2 8.9 1.7C72.9 55.4 92 52.4 94 51c1.8-1.3 3.5-9.2 2.7-12-1.1-3.9-3.2-6.8-7.4-13-2.2-3-8-8-11.9-8-3.8 0-7.2 2.6-9 6-.5.8-1 1.8-1.6 2.5-1 1-3 1.2-3.5-.7-.3-.8 0-1.8.4-2.6 2.3-3.8-.1-9.3-4.3-10.5a7.5 7.5 0 00-9 5.5c-.5 1.8-.6 2.2-2.4 3.1-1 .6-2.3.3-3.2-.5-1.5-1.3-1.2-1.7-1.2-3.6 0-1.5 0-2.8-.4-4.2A5.8 5.8 0 0041 9.8c-5.8-4.3-11.1 1.8-9.6 6.5.3 1 .8 2 1 3 .1 1.2-.7 2.7-2.1 2.3-.9-.2-1.5-1-1.7-1.8-1.5-6.1-5-11.7-9.9-15.7a13.8 13.8 0 00-5.6-3L11.4.7C9.8.8 8 1.4 7 2.5" mask="url(#j)"/></g><path fill="#619440" d="M151.5 180.5c-.6-.2-.9-.9-.8-1.5 0-.7.3-1.2.7-1.8.5-.8 1.2-1.6 2-2 1-.3 2.2 0 2.5 1 0 0 .2.5-.3 1.2l-2.1 2.4c-.5.5-1.3 1-2 .7m6.6-14.7c.2-.7.8-1.3 1.5-1.5.7-.2 1.5-.1 2.2 0 2 .6 3 1 4.5 2.6.8 1 .4 1.7.4 1.7a5.9 5.9 0 01-7.5-.3c-.7-.6-1.3-1.6-1-2.5m4.7-6.2c0-.6.3-1.1.6-1.6 1-1.3 2.8-1.8 4.4-2 1-.2 2.1-.4 3.1-.1 1 .2 2 .9 2.3 1.9 0 0 0 2.7-2.4 4a8 8 0 01-5.3.7c-1.4-.3-2.8-1.1-2.7-3m-14.5 9.8c-.6.2-1.4.8-2.4.8-.7 0-1.6-.2-1.8-1 0-.4.1-.8.4-1a3 3 0 011.2-.7 11 11 0 012.2-.5c.5 0 1-.1 1.3.1.4.3.6.7.5 1.1-.1.4-1 1-1.4 1.2m1-6a7 7 0 01-4-2.5c-1-1.2-1.5-2.7-.3-4a3 3 0 012-1c1.7 0 3 .8 4.3 1.7l1.3 1.2c2.7 2.7 1.4 3.8 1.4 3.8a7 7 0 01-4.7.7m3-13.1c.4-.4 1-.5 1.6-.3.6.2 1 .5 1.5 1 1.6 1.5 3 4 2.2 6-.2.7-1 .9-1 .9-2.6 0-3.8-2.7-4.7-5.2-.2-.8-.3-1.8.4-2.4m8.1-8.2c.5-.8 1.5-1.4 2.4-1.2 1 .2 1.8 1.4 1.8 2.4l-.2 3.1c-.2 1-.6 1.8-1.1 2.5-.3.4-.6.8-1 1-.4.2-1 .3-1.3.1-1-.4-1.2-2-1.2-2.8v-2.7c0-.9.2-1.7.6-2.4m8.9-5.2c.7 0 1.4.6 1.6 1.3a3 3 0 01-.3 2.2 9 9 0 01-1.4 1.8s-.4.6-1.4-1.9c-.3-.7-.4-1.5-.2-2.2.3-.7 1-1.3 1.7-1.2m8 5c.7-.3 1.4-.6 2-.7.7-.2 1.4-.2 1.7.4.2.3 0 .7-.1 1l-.8.8c-.5.3-1 .7-1.6.7 0 0-1 .5-1.8 0a.8.8 0 01-.4-.7c0-.7.6-1.1 1-1.4m-1.4 5.7c.4 1 0 2.1-.8 2.8-1 1-2.6 1.4-4 1-.6-.1-1.3-.5-1.5-1.2-.2-.6.2-1.2.6-1.7 1-1 2.3-1.7 3.7-1.7.6 0 1.2 0 1.7.4l.3.4m-2.5 45.6c1.4-1.2 2.6-2.6 3.7-4-2.7.9-5.8.7-8.4-.5-2.9-1.4-5.1-4-6-7.2-.1-.6 0-1.3.3-1.8.8-1.3 2.3-.8 3 .1.5.7.8 1.5 1.2 2.3 1.3 2.9 4.2 5 7.4 5.3 3.1.3 6.4-1.1 8.3-3.7l1.4-2.2 4.1-7.4c-2 2.4-3.8 1.8-6.9 2.3-3 .5-6.3 0-9-1.6a6 6 0 01-2.6-2.5c-.5-1.2 15.7 1 20.4-.7l.2-2.2a11 11 0 013.2-6.7c-4.4 2.5-9.9 3-14.5 1.2-1-.4-2.1-1-2.8-1.8-.7-.8-1-2-.6-3s1.5-1.6 2.5-1.7c1-.2 2.1.1 3.2.5 3 1 5.9 2.7 9.2 2.5 1.1 0 2.2-.3 3.1-.9 4.5-2.7 1.5-8.2 3.8-11.7a22 22 0 01-12.2 6.2c-2 .3-4.2.2-5.7-1.2a3.3 3.3 0 01-1.1-2.8c.2-1.8 2-2.5 3.5-2.5 1.2 0 2.3.5 3.5.7 4.9 1 10.2-.6 13.7-4.2a7.7 7.7 0 01-1.3-6.6c-3.5 2.8-7.6 5-11.8 6.2a6 6 0 01-2.5.4c-.9-.1-1.7-.6-2-1.4-.3-1 .3-2 1.2-2.6.8-.6 1.8-.8 2.8-1 2.6-.6 5.2-1.6 7.5-3 2.1-1.1 4.2-2.8 4.8-5.1.8-3-1-5.9-2.7-8.4a40.5 40.5 0 01-9.3 13.6c-.8.7-1.6 1.4-2.7 1.7-1 .3-2.2 0-2.8-.9-.4-.7-.3-1.7.2-2.5.4-.7 1.1-1.3 1.8-1.9l8.6-7c.7-.6 1.3-1.4 1.6-2.3.8-2.4-1.3-3.8-2.8-5.2-1.1-1.1-2.1-3-1-4.3-.8 1-2.5 1.1-3.8.8-1.3-.3-2.6-1-4-.8-2 .3-3.5 2.4-3.9 4.5-.3 2.1 0 4.3-.1 6.4-.1 1.2-.4 2.6-1 3.6a1.6 1.6 0 01-3-.5c-1.6-5.9.6-12 5.2-16.2-3-.8-6.3 1-8 3.7a11 11 0 00-.5 9c.8 2.1 2 4.1 1.3 6.4-.3 1.1-1.2 2-2.4 2.1-2 .2-3-2-3.4-3.9-1.1-5.8 0-12 3.2-16.9-2.9-.4-5.8-.8-8.5.4-.7.3-1.3.8-1.8 1.3-2.6 2.7-1.3 6 0 8.9l3.6 8.4c.6 1.4 1.3 2.9 1.3 4.4 0 1.5-.7 3.1-2.1 3.7-1.4.5-3 0-4-1.1a9 9 0 01-2-3.8c-1.7-5.8-1.8-12-.3-18-3.5.8-7.5 1.7-9.5 4.7-2.3 3.3-1.3 7.9.6 11.5 1.8 3.6 3.8 5.8 4.6 9.7.3 1.7 0 2-1.2 3.3-.5.6-1.2 1-2 1-2 .1-3-1.8-3.6-3.5-2.8-7.5-2.3-13-.3-20.8-3 1.7-5.7 3.7-8 6.3-2.4 2.7-3.7 6.2-2.8 9.7.8 3 3.4 11.7 4.9 13 .8.8 4.9 5.3 3.8 5.3-1 0-2.1-.4-3-.9a17 17 0 01-8.8-16.3c-2.5 1-3.8 4-3.4 6.8.4 2.7 2.1 5 4.3 6.7 2 1.7 4.6 2.8 7 4 1.1.6 2.3 1.2 3.1 2 1.2 1.4 1.7 3.6-.2 5-.7.5-1.7.7-2.6.6-2.2-.3-3.8-1.9-5.2-3.5-2.5-3.1-6.3-9-8.2-13.8-3 3.8-5.4 8.1-5.2 13 .2 2.3 1 4.4 2.4 6.2 5.2 6 13.7 1 19.6 5 .6.4 1 1 1.2 1.7.6 2-1.2 3.1-2.8 3.7-3.9 1.3-8.3.6-11.7-1.7.7 2.7 1.4 5.5 3.2 7.7 1.8 2 4.9 3.4 7.5 2.4 1.5-.6 2.7-2 3.6-3.4.9-1.5 1.5-3 2.3-4.6 1.7-3 2.3 2 2 6.7a11.2 11.2 0 0013.4 11.4c-3.6-2.1-5.8-6.6-5.1-10.8.1-1 .4-1.9 1-2.6.6-.7 1.6-1.2 2.5-1.1 1.4.2 2.2 1.6 2.5 3 .2 1.3 0 2.7 0 4 0 2.1.8 4.2 2.3 5.7a7.3 7.3 0 005.6 2.1 9 9 0 005-2.1m-83-13.1A51.6 51.6 0 0071.7 148c-6.1-4.9-13.4-8.7-21.3-10.9-.2-6.7-6.1-12.8-12.9-13.3-.1-.7-.8-1.3-1.6-1.6-.5-.1-1.2 0-1.5.5-.4.6-.7 1.3-.7 2s.8 1.1 1.4 1h.5a1.6 1.6 0 001.8-1c3 .8 5.7 1.8 8 4a12 12 0 013.8 8.1H49l-.4-.1c-1.2-2-3.6-3.7-5.4-4.8-1.9-1-4-2-6.2-2.3 0-.4-.2-1-.5-1.3-.3-.5-1-.5-1.6-.2h-.1c-.5.3-1 1-1 1.4-.3.5 0 1.2.6 1.4l.7.2c.5.2 1 0 1.4-.4l.3-.3c2 .8 4.2 1.4 6.2 2.7 1.2.8 2.4 1.7 3.4 2.7l.4.4c-3.4-.7-7-1.1-10.4-1.2-.1-.4-.4-.8-1-1h-.7c-.2 0-.5.1-.7.3-1.2.7-.6 2.4.7 2.6 1 .2 1.6-.5 1.7-1.3 3.4.4 6.8 1 10.1 1.7l-3.5.8c-2.3.4-4.8.7-7 1.3l-.3-.3c-.2-.3-.7-.4-1-.3h-.2c-1 .3-1.1 1.5-.7 2.2.3.5 1.1.8 1.7.4l.6-1.2c2.3 0 4.6-.6 6.8-1l4.2-.6a15.4 15.4 0 01-3.7 3.2c-1.9 1.3-4 2-6 2.8 0-.6-.6-1.1-1.2-1.1-.5 0-.9.1-1.1.5a2 2 0 00-.5.8c-.2.5 0 1 .4 1.3.4.3 1.1.3 1.5 0l.6-.6c2.5-.2 5-1.6 7-3 1.6-1 3.6-2.4 4.6-4.2.2.1.3 0 .5-.1v.3c-.5 3.7-2.6 7-5.8 8.8a15 15 0 01-7.8 1.9c0-.4 0-.8-.4-1-.6-.6-1.7-.6-2 .3a2 2 0 00-.9 1c-.3.7.1 1.6 1 1.8.9.2 1.7-.4 2-1.2 6.8 1.5 14-4.4 15-11v-.7A55 55 0 0184 164.9c6 11.1 7.6 20.7 5.4 33 0 .2.3.3.4 0 2.2-6.7 2-11 .8-18"/><g transform="translate(38 157.2)"><mask id="m" fill="#fff"><use xlink:href="#k"/></mask><path fill="url(#l)" d="M1 1.8c1.2 2.6 3.3 4.8 6 6.1.5.3 1.1.6 1.5 1 .5.7.4 1.4 0 2-.4.6-1.1.6-1.7.4-.7-.3-1.5.5-1.2 1.2.6 1.3 2.5 2.3 4.1 2 3-.6 3.7-3.9 6.2-2.1.4.2.7.5 1 .9.6.9.2 2.3-.7 3-1.2.7-2.6 1-3.6.6-.7-.4-1.5.3-1.3 1.1.3.7.7 1.4 1.4 1.9 1.3 1 3.1 1 4.7.5s3-1.4 4.5-2.3c1.3-.8 2.8-1.6 4.3-1 .9.3 1.5 1.2 1.3 2.1-.2 1.2-1.5 1.6-2.7 1.8l-4.5 1c-5.2.5-4 2-.3 6 .7.8 2.8 2.4 3.3 2.2 3.4-1 6-3.8 9-5.7 1.2-.7 2.4-1.5 3.8-1.3.6 0 1.3.4 1.7.9.8 1 .2 2.3-.7 2.9-.6.4-1.3.6-2 .8l-8.4 2.6c-.8.3-1.7.7-1.8 1.5 0 .6.4 1.1.8 1.6 1.6 1.6 3.1 3.2 5 4.3 2 1.1 4.4 1.6 6.5.7 1.4-.6 2.5-1.7 3.5-2.8 1-1 2-2.2 3.3-3 1.6-.8 3.7-.9 5 .6.7.9.7 2.3-.1 3.1-1 1-2.7.6-4 .5a8.1 8.1 0 00-8.4 6.1c-.1.6.1 1 .5 1.4 2.3 1.4 3.6 2.2 6.6 2.3 2.5 0 7.9-3.7 7.9-3.7 1-.6 2.3-1.2 3.6-.7.7.2 1.2 1 1.1 1.7-.1 1-1.2 1.4-2.2 1.6-1.3.3-4.3 2-6.3 2.7-.5.2-.7.9-.3 1.3 1.3 1.8 4.3 5.4 5.8 4.8 1-.5 4.9-4.8 6-4.8 1 0 1.9 1 2 2.1 0 1-1.3 2.7-2.2 3.7-.4.3-.4.9-.1 1.3 1.4 2 4.8 2.6 7.4 3.2l.3-1.2a30 30 0 002-15.2c0-.6-.8-.7-1-.3a4 4 0 01-2 1.5c-1.5.5-3.8-1.1-2.1-2.9.4-.4 1-.7 1.6-.9 2.4-.5 3-3 2.4-5.1-.4-1.4-1.3-2.5-2.2-3.6a1 1 0 00-1.5 0c-.6.8-.8 1.9-1.1 2.8-.5 1.4-1.7 3-3.2 2.3-.8-.3-1.2-1.4-1-2.3.6-2.4 3.1-3.1 4.2-5 .8-1.6.5-3.5-.5-5-.6-1.1-1.6-2-2.5-2.8a.7.7 0 00-1.3.5c-.1 2.2-.8 4.4-1.8 6.4-.7 1.4-2.8 1-3-.4-.2-.6-.1-1.1 0-1.6.5-1.5 1.8-2.7 2.4-4.2 1-2.6-.4-5.6-2.5-7.4-1.8-1.5-4-2.3-6.4-3a.8.8 0 00-1 1l.7 5.2c.1 1.3.2 2.8-1 3.4-.9.3-1.8 0-2.3-.6-1-1.2-.8-2.7-.5-4 .3-1.2.8-2.3.8-3.5 0-1.8-1-3.5-2.5-4.4-1-.7-2.3-1-3.6-1-.7 0-1.3.7-1 1.5.2 1 .4 1.9.1 2.8-.5 1.8-3.4 2.9-4 .3a4 4 0 01.2-2.3c1-3-2-6-5-5.7-.5 0-.8.6-.5 1.1.6 1 1.1 2 1.1 3 0 2-2.7 4.1-4.2 1-.3-.7-.4-1.4-.3-2 .4-3.3-3.2-5.4-5.9-4.6-.4 0-.6.5-.4.9.3.5.2 1.4-.3 1.7-.9.5-2 .2-2.7-.5-.8-.6-1.3-1.5-2-2.1C11 2 8.4 1.9 6 1.7c-1.3-.2-2.6-.5-3.8-1a.9.9 0 00-.4-.2c-.6 0-1 .7-.8 1.3" mask="url(#m)"/></g><path fill="#619440" d="M111 269c-5.5-4-12.1-11.5-17.6-13.9-1.6-.6-4.5-1.3-6-2-1.4-.8-2.5-2.5-2.2-4.1.3-1.7 2.6-3.6 2.6-3.6 1.6-1.2.1-3.6-1.7-2.9l-8.9 3.7c-1.6.6-3.2 1.3-5 1.3-1.7 0-3.6-.8-4.3-2.3-1-2 .2-4.4 1.7-6 1.9-2 4.3-3.3 5.4-5.8.5-1.1.5-2.5 0-3.6-1.1-2-3.5-2-5.2-1.1-1.2.7-2.2 1.7-3.3 2.6-3 2.7-6.8 4.7-10.7 5.7-2.4.6-5 .8-7-.8-1.1-.8-1.8-2.1-1.6-3.4.4-2.5 3-3.3 5-4.3h.1c2-1 .5-4-1.5-3.2-4.9 2-10 3.6-15 4.9-2.5.6-5.3 1.1-7.6-.3-1-.8-1.8-2-1.7-3.3.1-2 1.8-3 3.4-3.6l6-2.7c1.2-.5 1-2.2-.3-2.3l-4.2-.5c-3.2-.3-6.4-.7-9-2.4-2.6-1.7-4.4-5.2-3.2-8 .8-2 2.9-3.3 5-3.6 2.1-.4 4.3 0 6.4.6 5.8 1.6 11.1 4.5 16.5 7.2 1.6.8 4 1.4 4.8-.2.6-1.1-.2-2.6-1.3-3.3-1.8-1.2-4.2-1.4-4.9-4.3-.4-1.8 0-3.9 1.4-5.2 2-2 5.3-2.4 8-1.3 2.5 1 4.6 3.3 6 5.7 1.4 2.5 2.3 5.2 3.3 7.9.3.9.7 1.9 1.4 2.5.7.6 2 .8 2.7.2.6-.6.6-1.4.5-2.3 0-1.5.2-3 1-4.2 2.8-4.9 8.9-2.8 10 1.2a10 10 0 010 5.1c-.5 1.7-1 3.4-1 5 .1 2 1 4.2 3 4.8 1.4.4 3-.2 3.5-1.6.7-1.8-1-3.4-1.4-5.3-.5-2.4 1.3-5 3.7-5.6 2.5-.6 5 .5 6.7 2.5a11 11 0 012.3 6.9c0 2.5-.5 5-1 7.3-.4 1.4-.7 2.8 0 4 .6 1 1.8 1.4 2.7.8.8-.6.7-1.8 1.2-2.6.9-1.7 3.6-1.5 4.9 0 1.2 1.5 1.4 3.6 1.4 5.5l.8 18 4.2 16.1z"/><path fill="#306B34" d="M106.9 255.5c-.7-1.1-8-15.8-34.7-30.3-23.6-12.8-53.6-16.6-53-18.1.8-2 2.9-3.3 5-3.6 2.1-.4 4.3 0 6.4.6 5.8 1.6 11.1 4.5 16.5 7.2 1.6.8 4 1.4 4.8-.2.6-1.1-.2-2.6-1.3-3.3-1.8-1.2-4.2-1.4-4.9-4.3-.4-1.8 0-3.9 1.4-5.2 2-2 5.3-2.4 8-1.3 2.5 1 4.6 3.3 6 5.7 1.4 2.5 2.3 5.2 3.3 7.9.3.9.7 1.9 1.4 2.5.7.6 2 .8 2.7.2.6-.6.6-1.4.5-2.3 0-1.5.2-3 1-4.2 2.8-4.9 8.9-2.8 10 1.2a10 10 0 010 5.1c-.5 1.7-1 3.4-1 5 .1 2 1 4.2 3 4.8 1.4.4 3-.2 3.5-1.6.7-1.8-1-3.4-1.4-5.3-.5-2.4 1.3-5 3.7-5.6 2.5-.6 5 .5 6.7 2.5a11 11 0 012.3 6.9c0 2.5-.5 5-1 7.3-.4 1.4-.7 2.8 0 4 .6 1 1.8 1.4 2.7.8.8-.6.7-1.8 1.2-2.6.9-1.7 3.6-1.5 4.9 0 1.2 1.5 1.4 3.6 1.4 5.5l.8 18v2.7z"/><path fill="#619440" d="M82.6 118.6c.5-.5.8-1.3.8-2-.2-1.1-1-2-2.1-2.2-1-.4-2.3-.2-3.3.3s-1.8 1.3-2.6 2.1a21.9 21.9 0 00-3.2 6.5c3-.6 6-1.7 8.6-3.3a7 7 0 001.8-1.4m11 21c1-.6 2-1.5 2-2.6 0-1-.9-1.8-1.8-2.1-1.9-.7-4 .1-5.4 1.4-1.4 1.3-2.3 3-3.2 4.7 2.9.4 5.9 0 8.4-1.5m4.8 8.8c.6-.1 1.3-.4 1.8-.8s1-1 1-1.7-.6-1.4-1.2-1.7a4 4 0 00-2.2-.4 8 8 0 00-7 5.5c2.5.2 5.1-.1 7.6-.9m6.5 6.5c-.5-.5-1.2-.7-2-.9-1.5-.2-3.2.1-4.6 1a6.5 6.5 0 00-2.6 3.6c2.3.4 4.6.4 6.9.1.6 0 1.2-.2 1.8-.5.6-.3 1-.8 1.2-1.4a2 2 0 00-.7-2"/><path fill="#619440" d="M95.6 158.4c-1.7-3.1-3.4-6.1-5.2-9h.2l.1-.2h-.4l-.4-.8-4.7-7.4-6-8.6c3 .6 6.3 0 9-1.8 1.1-.8 2.2-2 2.1-3.5 0-1.1-1-2.1-2.2-2.4-1-.4-2.3-.1-3.3.4a10 10 0 00-2.7 2.3c-1.2 1.5-2.3 3-3.2 4.7a206 206 0 00-6.8-8.6v-.2.1l-1.2-1.3a228 228 0 00-5.8-6.7c2.7-.4 5.2-1.3 7.5-2.7.8-.4 1.6-1 2.2-1.7.6-.7 1-1.7.8-2.6a3 3 0 00-2.3-2.3c-1.2-.3-2.4 0-3.4.6s-1.8 1.5-2.4 2.4a16.4 16.4 0 00-2.6 6 99.7 99.7 0 00-5.3-5.4c-.2-2-.8-4-1.7-5.8a7.5 7.5 0 00-3.1-3.6c-1.4-.7-3.4-.5-4.4.8-.8 1-.7 2.5 0 3.7.6 1 1.7 2 2.8 2.6 1.6 1 3.5 1.8 5.4 2.2l5.6 6c-2.3.2-4.6 1.1-6.3 2.6-1 1-2 2.1-2 3.5-.1 1.4.8 2.9 2.2 3 1.2 0 2.3-.9 3-1.8 1.6-2 2.8-4.3 3.5-6.8a167.7 167.7 0 016.6 7.5c-2 0-4 .6-5.6 1.7a5.7 5.7 0 00-2.5 3c-.4 1.3 0 2.9 1.2 3.5 1.2.6 2.6.2 3.6-.7 1-.9 1.5-2.1 2-3.3l1.7-3.7 6.4 8.2c-2.4-.5-4.9 0-6.8 1.5-1 .7-2 1.7-2.3 3-.2 1.2.3 2.7 1.4 3.2 1 .5 2.3.1 3.1-.5 1-.7 1.5-1.6 2.1-2.6 1-1.4 1.8-2.9 2.7-4.3l.8 1.1 5.3 7.5c-1.6-.1-3.3-.2-4.9.2-1.6.3-3.1 1.3-3.8 2.8-.6 1.5-.1 3.5 1.3 4.2 1 .5 2.2.3 3.2-.2a7 7 0 002.2-2.3c1-1.4 1.6-2.9 2.2-4.4l5 7.9-2.9.3c-1 .2-2.2.3-3.1.7-1 .5-2 1.3-2.2 2.3-.3 1 .2 2.3 1.2 2.7.7.3 1.4.1 2-.2.7-.4 1.2-1 1.7-1.4l3.6-3.8 4.7 8.3a13 13 0 00-4 .3 6.4 6.4 0 00-4 3c-.5.8-.7 1.8-.4 2.7.3.9 1.1 1.6 2 1.7 1.1 0 2-1 2.8-1.8l4-5.1 1 1.8c2.8 5.4 5.2 11 7.8 16.5.2.3.6 0 .5-.2-2.2-6.4-5.2-12.6-8.5-18.6v-.2"/><g transform="translate(30 188.2)"><mask id="p" fill="#fff"><use xlink:href="#n"/></mask><path fill="url(#o)" d="M6.7.3C3.1.3.3 3.3.3 6.8c0 1.7.7 3.3 2 4.5a6.5 6.5 0 004.5 1.8H7c3.6 0 6.5-3 6.4-6.5 0-1.7-.7-3.3-2-4.5A6.4 6.4 0 006.8.3M3.5 10c-1-.9-1.4-2-1.4-3.2 0-2.5 2-4.6 4.5-4.7h.1a4.6 4.6 0 014.7 4.5c0 2.6-2 4.7-4.6 4.7h-.1c-1.2 0-2.4-.5-3.2-1.3" mask="url(#p)"/></g><path fill="#619440" d="M66 152.8a5.9 5.9 0 01-5.7 6c-3.3.3-6.2-2.1-6.4-5.3a5.9 5.9 0 015.7-6c3.4-.3 6.3 2.1 6.5 5.3"/><g transform="translate(46 184.2)"><mask id="s" fill="#fff"><use xlink:href="#q"/></mask><path fill="url(#r)" d="M5.5 1A4.7 4.7 0 001 5.8c.1 2.5 2.4 4.4 5 4.3a4.7 4.7 0 004.6-4.9A4.7 4.7 0 005.5 1" mask="url(#s)"/></g><g transform="translate(198 151.2)"><mask id="v" fill="#fff"><use xlink:href="#t"/></mask><path fill="url(#u)" d="M.2 7.3a7 7 0 002 5.1 7.3 7.3 0 005.2 2.2h.2c4 0 7.2-3.1 7.3-7a7 7 0 00-2-5.2A7.4 7.4 0 007.6.3h-.1C3.6.3.3 3.4.2 7.3m7.3 5A5 5 0 013.9 11c-1-1-1.4-2.2-1.4-3.5a5 5 0 015-4.9h.2c1.3 0 2.6.6 3.5 1.5 1 1 1.4 2.2 1.4 3.5a5 5 0 01-5 4.9h-.1" mask="url(#v)"/></g><g transform="translate(131 107.2)"><mask id="y" fill="#fff"><use xlink:href="#w"/></mask><path fill="url(#x)" d="M.7 3.5a3 3 0 003 3.2 3 3 0 003.1-3 3 3 0 00-3-3.2 3 3 0 00-3.1 3" mask="url(#y)"/></g><path fill="#619440" d="M384.7 223c.5-2.6 2-11.3 4.6-12.3 2.7-1 6.1.3 7.5 3 .6 1 .8 2.3 2 3 .6.5 1.5.5 2 0 .9-1 0-2.3-.6-3.3a11.5 11.5 0 01-2.3-6.4 7 7 0 013-6c1.9-1.2 4.7-1 6.3.6 1 1 1.4 2.6 2.7 3.4.6.4 1.5.5 2.2 0 1.3-.9.4-2.9-.5-4.2-1.2-1.9-2.3-4-2.7-6.2-.3-2.2.2-4.6 1.9-6.2 1.6-1.5 4.4-1.9 6.1-.4.7.6 1.2 1.4 1.8 2 .8.8 2 1.4 3 .6.6-.6.7-1.6.3-2.4-.4-1-1.3-1.7-2.2-2.4a6.6 6.6 0 01-2.5-4.4c-.7-5.2 5.1-7.2 8.4-5 .9.7 1.8 1.7 3 1.4.8-.3 1.3-1.2 1.2-2.1-.2-1.8-1.7-2.9-2.5-4.3-1.4-2.7.2-6.5 3.1-7.4 2.3-.6 2.9 2.3 3.9 4.9.2.6 1 .4 1.1-.2.3-2.5 1.1-5.6 1.7-7.3 1.2-3.2 6-6.6 8.2-2 .6 1.1.1 4.3-.7 5.1a64.6 64.6 0 00-3.7 5.4c-.2.5.3 1 .8.7 1-.6 2.1-1.1 3.4-1.3.6 0 1.2 0 1.7.2 3.3 1.2 2.8 5.2.7 7.2-1.8 1.6-4.2 2.1-6.5 2.7-1.2.3-2.5.6-3.1 1.8-.3.6-.3 1.5.3 2 .7.5 1.4.2 2.1.1 2.4-.3 4.5 2 4.5 4.4 0 2.4-1.8 4.5-3.9 5.6-2.1 1-4.6 1.2-7 1-1.1 0-2.4-.1-3.3.7-.6.5-.7 1.4-.3 2 .7.8 1.9.5 3 .4 2.7-.2 5 3 4.5 5.8-.4 2.8-2.9 5-5.6 5.8-3 1-6.3.5-9.4 0-.8 0-1.5.4-1.7 1-.4 1 .5 1.6 1.2 2.1 2.7 2 3.8 5.9 2.4 9-1.3 3-5 4.8-8.2 4.1-2-.4-4-1.7-6.2-1-1.1.3-2 1.3-1.7 2.5.3 1.4 1.9 1.8 3 2.5 3.4 1.9 4 6.9 1.8 10-2.2 3.2-9.3 3.3-13 3-4-.2-11.9-.5-16-3.1-2-1.3-.4-13.5.2-16.1"/><path fill="#306B34" d="M445.4 159.3c.6 1.2.1 4.4-.7 5.2a64.6 64.6 0 00-3.7 5.4c-.2.5.3 1 .8.7 1-.6 2.1-1.1 3.4-1.3.6 0 1.2 0 1.7.2 3.3 1.2 2.8 5.2.7 7.2-1.8 1.6-4.2 2.1-6.5 2.7-1.2.3-2.5.6-3.1 1.8-.3.6-.3 1.5.3 2 .7.5 1.4.2 2.1.1 2.4-.3 4.5 2 4.5 4.4 0 2.4-1.8 4.5-3.9 5.6-2.1 1-4.6 1.2-7 1-1.1 0-2.4-.1-3.3.7-.6.5-.7 1.4-.3 2 .7.8 1.9.5 3 .4 2.7-.2 5 3 4.5 5.8-.4 2.8-2.9 5-5.6 5.8-3 1-6.3.5-9.4 0-.8 0-1.5.4-1.7 1-.4 1 .5 1.6 1.2 2.1 2.7 2 3.8 5.9 2.4 9-1.3 3-5 4.8-8.2 4.1-2-.4-4-1.7-6.2-1-1.1.3-2 1.3-1.7 2.5.3 1.4 1.9 1.8 3 2.5 3.4 1.9 6.9 9 4.7 12.1-2.2 3.2-12.2 1.2-16 1-3.6-.3-10.7-.6-15-2.7l-.9-.5s21.1-18.4 39.4-42.7c10.2-13.6 19.2-39.2 19.2-39.2l.8.4c.7.5 1.3 1.5 1.5 1.7"/><g transform="translate(396 206.2)"><mask id="A" fill="#fff"><use xlink:href="#z"/></mask><path fill="#FBBF00" d="M49 1.1c-1.8.8-2.8 2.8-3.5 4.7-1.3 3.5-2 7-2.3 10.7-.1 1-.2 1.9-.5 2.7-.4.8-1.2 1.5-2.1 1.4-.8 0-1.4-.7-1.7-1.4-.3-.7-.3-1.5-.3-2.3.2-5.5 2.8-11 7-14.6a8 8 0 00-6-.8 8 8 0 00-4.9 3.8c-1.5 2.7-1.2 6-.9 9.2l.7 7.3c.1 1 .2 2-.5 2.6-.6.6-1.6.5-2.3 0a4.3 4.3 0 01-1.5-1.9c-1.4-3-1.3-6.4-.5-9.6.8-3.2 2.4-6.2 3.9-9a47.8 47.8 0 00-19.8 12.5l-2.3 2.3c.2 4.8 3 9.4 7 11.7.9.5 1.9 1.1 1.8 2 0 .7-.8 1.2-1.4 1.3-.7 0-1.4-.2-2-.5-4.7-2.5-7.5-8-6.8-13.2C4.1 25.4.4 33.4.3 41.6c-.1 2.4.1 4.8 1 7 1 2.2 2.7 4.1 4.9 5 2.2.9 4.9.6 6.6-1 1-1 1.6-2.3 2.5-3.3 1-1 3-2 3.7-.9.4.6-.9 1.8-1.5 2.4l-.6.7c-2 2.4-2.3 5-1.6 8.1.8 3.4 3.9 8.4 6.2 11 2.3 2.6 7.1 4.1 9.8 4.3 11 .8 15.7-5.8 15.7-5.8s-6.5-.4-10-5.2c-3.2-4.2-3-9.4-5.5-14-.3-.8-.7-1.5-.7-2.3 0-.9.3-1.7 1.1-2 .8-.2 1.7.3 2.1 1 .4.8.5 1.6.7 2.4.8 5 3.2 9.5 6.8 12.9 2.5 2.3 5.6 4 9 4 2.5 0 5-1 7.1-2.5a38 38 0 005.7-5.2 24.4 24.4 0 01-22.8-8c-1-1.2-2-2.7-1.6-4.3.2-1 1.1-1.9 2.2-1.8 1 0 1.6 1 2.1 1.9a21.8 21.8 0 0017.1 10c2 .1 4 0 5.6-1.1 2.8-2 3.5-6 6.4-7.9a24 24 0 01-23.8-1 6 6 0 01-2-2c-.6-.7-.6-1.8 0-2.6.7-.9 2.1-.9 3.1-.4 1 .6 1.8 1.5 2.7 2.2 2.4 2 5.4 3 8.5 3.4 3.1.3 6.2-.1 9.3-.7 1.7-.3 3.5-.7 4.4-2.2.6-.8.7-1.8.8-2.7l1.4-12.6c-.5 1.9-6.2 6-10 6.8-2.2.4-6.7.1-8.9-.5a7 7 0 01-2-1c-.7-.4-1.2-1-1.1-1.8 0-.9.6-1.6 1.4-2a6 6 0 012.4-.4h4c2.3.1 4.4.2 6.6 0 3.5-.6 7.1-2.2 8.7-5.4-2.7-5.2-4-11.1-3.9-17 .1-1.8.3-3.7-.7-5.1l-.6 1.6a4.5 4.5 0 01-5.3 1.8c-1.5-.6-2.6-1.9-4.2-2-1 0-2.1.5-2.9 1.3a11 11 0 00-1.7 2.8l-4 8.3c-.7 1.3-1.8 2.9-3.2 2.6-1-.3-1.6-1.5-1.8-2.6-.5-2.5 0-5.3 1.5-7.5 1.4-2.2 3.7-3.9 6.2-4.5-1.1-1-2.3-2-3.7-2.5-.8-.3-1.7-.6-2.6-.6-.6 0-1.3.2-1.8.4m-3.5 26.5c-.6-.5-.8-1.4-.6-2.1l.8-1.8 1.5-2c.4-.5 1-.8 1.5-.6.5.1.8.5 1 .9.2.4.2.9.2 1.3a5.6 5.6 0 01-1.7 3.6c-.4.4-.8.7-1.3.8a2 2 0 01-.5.1c-.3 0-.6 0-.9-.2m-7 3c-.5 0-1-.4-1.1-.8-.3-.4-.3-.9-.3-1.4 0-1.4.2-2.9.7-4.2.2-.6.6-1.2 1.2-1.4.4 0 .9.1 1.2.4.3.3.5.8.6 1.2.4 1.3.2 2.8-.5 4l-.6 1.4c-.2.5-.7.8-1.2.8m15.3-3.8c-.4-.3-.6-.8-.5-1.2 0-.5.4-.8.8-1a4 4 0 011.3-.5c.3-.1.6-.2.8-.1.3 0 .6.2.7.5.1.2 0 .6-.2.8l-.1.3c-.4.5-1 .9-1.5 1.1a2 2 0 01-.8.2 1 1 0 01-.5-.1m-29.5 8.5a7.3 7.3 0 01-2.2-7c.2-1 1-2.2 2-2.2.5 0 1 .4 1.4.8.4.5.6 1 .8 1.5l1.1 2.2c.5 1 1 2 1.1 3 .1 1-.4 2.3-1.5 2.6a2 2 0 01-.6.1c-.8 0-1.5-.4-2.1-1m6.3-3.3c-.5-.3-.7-1-.8-1.5-.1-.7 0-1.3.1-1.9l.4-1c.2-.4.6-.6 1-.6s.7.3 1 .6l.2.4c.3.8.5 1.6.5 2.5 0 .6-.1 1.2-.6 1.6-.3.2-.5.3-.8.3-.3 0-.7-.2-1-.4m16 5.2c-1-.4-2.2-1-2.5-2a2 2 0 01.5-1.8 3 3 0 011.7-.9c1.2-.2 2.4.2 3.4.9 1.5.9 2 2.4 2 2.4 0 1-1 1.9-2 2h-.5c-.9 0-1.8-.3-2.6-.6m-9.8 5.3c-.9-.3-1.6-1-2-1.9-.2-1 .2-2.1 1-2.7.8-.6 2-.5 2.9 0l2.4 1.2c.8.5 1.3 1.4 1 2.2-.4 1-1.5 1.3-2.5 1.4h-1c-.6 0-1.2 0-1.8-.2m-21.7.4c-.8-.2-1.6-.5-2.3-1a3.2 3.2 0 01-1.1-2.3c0-1.5 7-2.4 8.6-1.4a3.5 3.5 0 011.2 1.3c.7 1.2 0 2.9-1.3 3.3a9.2 9.2 0 01-5 .1m10 15.4a5.2 5.2 0 01-1.6-2.2c-1-2.4-1-5.3.2-7.7.2-.5.5-1 1-1.3.4-.2 1-.2 1.4.1 1 .9 2.2 5.3 2.2 5.3.5 1.1 1 2.2 1 3.4 0 1.2-.5 2.4-1.6 2.9l-.9.1a3 3 0 01-1.7-.6" mask="url(#A)"/></g><g transform="translate(398 251.2)"><mask id="C" fill="#fff"><use xlink:href="#B"/></mask><path fill="#F7E8C8" d="M20.3.3c-4.7 3-8.9 6.7-12.6 10.8-2.5 2.4-4.8 4.9-6.9 7.6-.3.4.3 1 .6.5l.6-.7.3-.1L3.6 17c.1 0 .2 0 .3-.2l1.4-1.7A82 82 0 0121 2.1c.5-.3 0-1-.4-.7l-.5.3-.2-.1.9-.6c.3-.2 0-.7-.3-.7h-.2" mask="url(#C)"/></g><path fill="#306B34" d="M448.2 197.4a3.6 3.6 0 00-5.1.5c-.6.8-.9 1.7-.7 2.7 0 1 .6 1.8 1.3 2.4 1.6 1.2 3.9 1 5.1-.6.6-.7.9-1.7.7-2.6 0-1-.6-1.8-1.3-2.4m-5.4 6.7a5 5 0 01-.9-7 5 5 0 017.2-.9 5 5 0 01.9 7.1 5 5 0 01-7.2.9"/><g transform="translate(427 153.2)"><mask id="F" fill="#fff"><use xlink:href="#D"/></mask><path fill="url(#E)" d="M4.5.3a4.2 4.2 0 00-4.2 4 4 4 0 001.1 3c.8.8 1.9 1.2 3 1.3 2.3 0 4.2-1.8 4.2-4a4 4 0 00-1.1-3 4.2 4.2 0 00-3-1.3zm-.1 7a3 3 0 01-2-.9c-.6-.5-.8-1.2-.8-2 0-1.5 1.3-2.8 2.9-2.8.8 0 1.5.4 2 1 .6.4.9 1.2.8 1.9C7.3 6 6 7.3 4.5 7.3h-.1z" mask="url(#F)"/></g><g transform="translate(413 162.2)"><mask id="I" fill="#fff"><use xlink:href="#G"/></mask><path fill="url(#H)" d="M.6 5.5C.6 8.5 3 11 5.8 11c3 0 5.4-2.3 5.4-5.2C11.2 2.7 9 .3 6 .3A5.3 5.3 0 00.5 5.5" mask="url(#I)"/></g><g transform="translate(450 190.2)"><mask id="L" fill="#fff"><use xlink:href="#J"/></mask><path fill="url(#K)" d="M.5 4a3 3 0 002.9 3 3 3 0 003-3 3 3 0 00-2.9-3 3 3 0 00-3 3" mask="url(#L)"/></g><path fill="#7F786A" d="M69.6 282.1c0 1.6-3.5 2.7-7.9 2.6-4.3 0-7.8-1.3-7.7-2.9 0-1.5 3.5-2.6 7.8-2.5 4.4 0 7.8 1.3 7.8 2.8"/><path fill="#FFAED1" d="M190 6.4a102.6 102.6 0 01-30 32.5l6.3 5.7a109.3 109.3 0 0025.9-37.1c.6-1.4-1.5-2.5-2.3-1.1"/><path fill="#FFF0D2" d="M159.7 39a106 106 0 01-53.5 18.5h-4.9c-5 .6-8.7 5.4-7.6 10.5a9 9 0 009.8 6.9h.2l2.5-.4 2.2-.4a93.6 93.6 0 0012.6-3.3 123.7 123.7 0 0044-25l1.3-1.2-6.4-5.8-.2.2"/><path fill="#FFAED1" d="M306 8.6c-1.1-1.3-2.1-2.8-3.1-4.2h-4.1l3.5 6.6c5.3 9 11.9 17.4 19.7 24.7l6.4-5.8c-8.4-5.8-16-13-22.5-21.3"/><g transform="translate(321 29.2)"><mask id="O" fill="#fff"><use xlink:href="#M"/></mask><path fill="url(#N)" d="M1 6.4l1.2 1.2a117 117 0 0044 25A114.4 114.4 0 0059 36l2.2.4 2.5.3h.2a9 9 0 009.8-6.8 8.7 8.7 0 00-9.2-10.5h-3.3A78.6 78.6 0 0150 18 109.8 109.8 0 017.6.8h-.2L1 6.3z" mask="url(#O)"/></g><path fill="#7F786A" d="M323.2 282.6c0 1.5 3.6 2.7 7.9 2.6 4.3 0 7.8-1.4 7.8-2.9s-3.6-2.6-8-2.6c-4.3.1-7.7 1.4-7.7 3"/><path fill="#57575E" d="M104 31.5l1.7-2.5c.7-1.1 1.9-1.7 3.1-1.7h8.9c3 0 4.8 3.3 3.1 5.8l-5.7 8.7c-.7 1-1.9 1.7-3.1 1.7h-7.6l-1.4-5c-.7-2.4-.3-5 1-7"/><path fill="#7F786A" d="M138.6 282.4c0 1.5-3.5 2.7-7.9 2.6-4.3-.1-7.8-1.4-7.7-3 0-1.4 3.5-2.6 7.8-2.5 4.4.1 7.8 1.4 7.8 2.9m294.8 1.8c.4 1.4 4 1.9 8.3 1 4.2-1 7.3-3 7-4.4-.3-1.5-4-2-8.2-1-4.3 1-7.4 2.9-7 4.4"/><path fill="#A29C8F" d="M120.3 137l15.5 37.6 7.8 18.7c3.5 8.4 4 17.6 2 26l-18 62.4c-.6 2-3.7 1.6-3.5-.6l4-64.4c0-5-1.6-9.7-4.3-13.3l-11.4-16.7-22.6-33.4 30.5-16.4z"/><path fill="#7F786A" d="M101.1 136.2l.3 3.3.2 2.9a160.8 160.8 0 01.1 16.9 234.2 234.2 0 01-11.4 64.4 206.8 206.8 0 01-18 39 165 165 0 01-13.6 19.2c-1.5 1.8-4.2 0-3.2-2.1a177.4 177.4 0 0018-60 204.8 204.8 0 00-5-72.5l-.6-2.2-.6-1.8a17.8 17.8 0 1133.3-10.7l.5 3.6z"/><path fill="#F4DCBD" d="M121.9 140c-1.4-4-4-7.4-6.2-11a51.5 51.5 0 01-6.8-32.7c1.1-8.3 14.3-46.6-8.7-42.2 13.8 3.8 3.3 34.8 2.3 42.2a51.5 51.5 0 006.8 32.6c2.2 3.7 4.8 7.2 6.2 11 1.4 4 1.5 8.4-1.3 11.8-3 3.7-8.3 5-13.8 5.3 7.4.3 16-.1 20.2-5.3 2.8-3.4 2.7-7.9 1.3-11.8"/><path fill="#F4DCBD" d="M114.2 151.7c2.8-3.4 2.7-7.9 1.3-11.8-1.4-3.9-4-7.3-6.2-11a51.5 51.5 0 01-6.8-32.6c1-7.4 11.5-38.4-2.3-42.2l-1 .2c-17.3 4-26.7 31.7-30.5 44.4-3 10-4.5 20.3-4.4 30.6.1 5.8.8 12 4.7 16.9 6.5 8.2 19.7 10.2 31.4 10.8 5.5-.3 10.8-1.6 13.8-5.3"/><path fill="#FFB68E" d="M108.7 60.7c-1.2 1.4-4 1-6-1s-3-4.5-1.9-5.8c1.2-1.4 3.9-1 6 1 2.2 1.8 3 4.5 1.9 5.8"/><path fill="#FFB68E" d="M115.4 46.7l1.6-4c.6-2.7.4-5.3-.4-7.3-2.4 2.5-5.4 2-8.7 3 .5 1.7 0 2.7-.8 3.4.2-1.1-.3-2.2-1-2.3-.9-.2-1.8.6-2.1 1.9l-.1 1-.6 2.1-2.8 12 5.1.4L109 51c2.4.1 4.9-1.5 6.5-4.3"/><path fill="#FF881D" d="M109.9 75.3c.5 8-2.2 15.7-4 23.4a126 126 0 00-3.3 40.6c.1 1 .2 2.3-.6 3-.5.4-1.2.6-1.8.7-9.5 1.4-19.3 0-28-4-6-2.6-11.7-7-13.2-13.2a27 27 0 01.5-11.3c2.3-12 4.8-24 10.2-34.9C74.2 70.8 82.1 60 92 56.8c10.1-3.3 17.5 10.2 18 18.5"/><path fill="#FFF0D2" d="M94.7 113.6H72.9c-1 0-2-1-2-2s1-2 2-2h21.8a2 2 0 012 2 2 2 0 01-2 2"/><path fill="#F4DCBD" d="M95.3 121.9l-1.7-1.1-1-.6-.4-.4a5.9 5.9 0 01-1.8-4.2c-.1-1.8.2-4 1-6.1l.5-1.7.7-2 1.3-4.1c3.3-10.8 6.4-21.6 10.5-31.2a8.7 8.7 0 00-5.6-11.8 8.7 8.7 0 00-10.7 6c-3.3 11.7-5 22.8-7 33.8l-.7 4.1-.4 2-.4 2.4c-.4 3.3-.5 7 .4 10.7.5 1.8 1.3 3.7 2.6 5.4 1.2 1.7 2.7 3.2 4.4 4.2l1.3.7 1 .4 1.9 1 .8.4 3.8-7.6-.5-.3z"/><path fill="#FFB68E" d="M127.4 142A1740 1740 0 0199 124.2l-3.1-2-3.8 7.6 3 1.4a1742.6 1742.6 0 0042.7 19.7v-2.8l-10.3-6.1"/><path fill="#FFF" d="M344.3 154l-210.5.5-.2-150L344 4z"/><g transform="translate(133 3.2)"><mask id="R" fill="#fff"><use xlink:href="#P"/></mask><path fill="url(#Q)" d="M0 .8l.4 150.9 211-.5h.4L211.5.3.1.8zm1 1l209.6-.5.2 149-209.5.4L1 1.7z" mask="url(#R)"/></g><g><g transform="translate(294 .2)"><mask id="T" fill="#fff"><use xlink:href="#S"/></mask><path fill="#FFB68E" d="M1 3C1 1.4 4.3.5 8.1.8c3.8.4 6.7 2 6.4 3.5-.2 1.6-3.4 2.5-7.2 2.2C3.6 6 .7 4.5.9 3" mask="url(#T)"/></g><path fill="#FFB68E" d="M184.6 4c0-1.6 3.2-2.9 7-2.9s6.9 1.3 6.8 2.9c0 1.6-3.2 2.8-7 2.8s-6.8-1.2-6.8-2.8m-54.2 141.9c.5-1.5 4-1.7 7.6-.5 3.6 1.1 6 3.3 5.5 4.8-.5 1.4-4 1.7-7.5.5-3.7-1.2-6.2-3.3-5.6-4.8"/><path fill="#FCBD30" d="M157.8 23.7a3.6 3.6 0 11-7.2 0 3.6 3.6 0 017.2 0"/><path fill="#FF881D" d="M170 23.7a3.6 3.6 0 11-7.3 0 3.6 3.6 0 017.3 0"/><path fill="#619440" d="M182 23.7a3.6 3.6 0 11-7.2 0 3.6 3.6 0 017.3 0"/><path fill="#A29C8F" d="M381.7 132l-.7.7-.6.7-1 1.2a109.2 109.2 0 00-5.6 7.2 193.3 193.3 0 00-18 30 217.8 217.8 0 00-20.4 65 208.3 208.3 0 00-1 44.3c.2 2.7 4 2.7 4.3 0A190.3 190.3 0 01348 240a193 193 0 0150-76.2 120.4 120.4 0 015.5-4.7l.8-.6.4-.3 12-6-35-20.1z"/><path fill="#7F786A" d="M399.2 139c2.3 64.4 2.5 86 18.2 107.6l25.8 35c1.7 2.4 5.3.1 4-2.5-30.7-60.4-29-42.4-11.5-138.3l-36.5-1.8z"/></g><g transform="translate(377 47.2)"><mask id="W" fill="#fff"><use xlink:href="#U"/></mask><path fill="url(#V)" d="M1.2 17.1c2 6 4.8 17.4 7 23.4 2.6 7.4 3 15.5 1.3 23-1.6 7-5 13.6-5.5 20.6-.8 12.4 5.3 16 18.3 19.1 12.9 3.2 31.2 5.6 37.1-5.5 4.6-8.5-7-27.4-9.1-36.6-4.3-19.4-3.7-28.7-18.5-43-3.8-3.7-8-6.8-12-10.2-2.6-2.1-4.5-6.2-8-6.7A16 16 0 009.3 1C-.3 1-.7 11.3 1.2 17" mask="url(#W)"/></g><g fill="#FFB68E"><path d="M379.3 60.4c1.6 1.3 4.9-.1 7.5-3.1 2.5-3 3.3-6.6 1.7-7.9-1.5-1.3-4.9.2-7.4 3.2-2.6 3-3.4 6.5-1.8 7.8"/><path d="M376.9 39.5s-2-6.6 1.4-11.2c11 3.2 11 7.4 11 8.7 0 .3 0 .6-.2 1v14.4h-6.8v-7.3c-2.4-.4-4.4-2.6-5.4-5.6"/><path d="M391 36.7c0 1.2-.7 2.1-1.6 2.1s-1.5-1-1.5-2c0-1.2.7-2.2 1.5-2.2s1.6 1 1.6 2.1"/></g><g transform="translate(380 56.2)"><mask id="Z" fill="#fff"><use xlink:href="#X"/></mask><path fill="url(#Y)" d="M1.7 8.4v1.3a118 118 0 01-.8 23l13.7 1.9 2-9c1-5 2-10.1 2.4-15.7A8.6 8.6 0 0010.4.5a8.7 8.7 0 00-8.7 8" mask="url(#Z)"/></g><g transform="translate(380 88.2)"><mask id="ac" fill="#fff"><use xlink:href="#aa"/></mask><path fill="url(#ab)" d="M.4 6.2l-.1.5L13 8.6l1.5-6L1 .8.4 6.2" mask="url(#ac)"/></g><g><path fill="#FFB68E" d="M346.6 149A165.5 165.5 0 00361 138l2.8-2.5a44.1 44.1 0 0014.5-26.4c.7-4.6 1.4-9.4 1.9-14l12.8 1.8c-1.3 5-2.7 9.8-4.2 14.7a53 53 0 01-21.4 28.7l-3.2 2a182.1 182.1 0 01-16.3 9.2c-1.6.7-2.8-1.4-1.4-2.3"/><path fill="#FFB68E" d="M350.5 148.9c-.7-1.4-4-1.2-7.5.5-3.4 1.7-5.6 4.2-4.9 5.5.8 1.4 4.2 1.2 7.6-.5 3.4-1.7 5.6-4.2 4.8-5.5"/><path fill="#57575E" d="M390.3 20.5c0 .1 3-.1 4.4 3 1.3 3.2 2 8.8-3 11.8-3.5 2.2-5.6-1.3-8.7-6 0 0-5.3 2.5-8.1-.2-3.5-3.3-2.8-7.2-2.8-7.2s3.3.6 7.3-.6c3-1 5.7-3.4 7.3-3.4 1 0 2.5 0 3.6 2.6"/><path fill="#57575E" d="M390.3 20.7s1.3-1.8-.4-4.3c0 0 .6 1.7-.7 3-1.2 1.1 1.1 1.3 1.1 1.3"/><path fill="#57575E" d="M389.7 20c0-.4-.4-2.3-3-3.4 0 0 1.3 1.7 1 3.2-.1 1.6 2 1.3 2 .2m.2.9s.6-3.5 3.6-2c.5.3 1 .7 1.1 1.8 0 0-1-1-1.9-.7-1 .3-1.4 1.6-1.4 1.6l-1.4-.7zm-17.8 1c0 1.4.4 2.7 1 4a7.7 7.7 0 002.4 2.8c1 .7 2.3 1 3.5 1 1.3 0 2.7-.3 3.6-.8h.1c.3-.2.6 0 .8.2a55 55 0 003.6 5.4c.5.6 1 1.1 1.7 1.3-.8 0-1.4-.5-2-1-.6-.4-1.1-1-1.6-1.5-1-1.1-2-2.3-2.7-3.6l.8.2c-.7.4-1.4.6-2.1.8a8.7 8.7 0 01-4.4 0c-.7-.2-1.4-.6-2-1a8.2 8.2 0 01-2.7-7.7"/><path fill="#A29C8F" d="M175.8 48.2L174 43h1l1.4 4.3 1.5-4.3h.9l-2 5.2zm7-2.7a1 1 0 01-.4.2h-.5a17.8 17.8 0 00-1.1.3 1 1 0 00-.4.3l-.1.5v.4l.3.2.3.1h1.1l.5-.3.3-.4v-1.3zm1.5 2.7l-.7.1c-.2 0-.4 0-.5-.2l-.2-.6a2 2 0 01-.8.6 2.7 2.7 0 01-1.7.1l-.5-.2-.4-.5-.1-.6.1-.8.4-.4.6-.3a7 7 0 011.3-.2l.6-.1.3-.2.2-.4-.1-.5-.3-.2-.4-.1a3 3 0 00-.4 0l-.9.1c-.2.2-.4.4-.4.8h-.8c0-.3 0-.6.2-.8 0-.2.2-.4.4-.5l.7-.3.9-.1h.7l.6.2.4.5c.2.2.2.4.2.7v3.1l.3.2h.3v.6zM186 43v1.1l.8-1a2 2 0 011.2-.2v.9l-1 .1-.5.4c-.1.2-.3.4-.3.7l-.1.9v2.3h-.9V43h.8zm9.5-1a2 2 0 00-1.2-.3 3 3 0 00-.6 0l-.5.2a1 1 0 00-.4.4v.6l.1.5.5.4.8.2c.2 0 .5 0 .8.2l.8.2c.3 0 .6.2.8.4l.5.5.2 1c0 .3 0 .6-.2 1l-.7.6c-.3.1-.6.3-1 .3a4.4 4.4 0 01-2 0c-.4 0-.7-.2-1-.4-.3-.2-.5-.5-.6-.8-.2-.3-.3-.7-.3-1.2h1l.1.8.5.6.6.3a3.1 3.1 0 002-.2c.2 0 .4-.2.5-.4l.2-.6-.2-.6-.6-.4-.7-.3a114 114 0 01-2.4-.7l-.6-.5-.1-.8a1.9 1.9 0 01.8-1.6l.8-.4a3.7 3.7 0 012 0c.3 0 .6.2.8.4l.6.7.2 1h-.9c0-.5-.2-.9-.6-1.1m6.2 3.5a1 1 0 01-.4.2h-.5a18.2 18.2 0 00-1.1.3 1 1 0 00-.4.3l-.2.5.1.4.3.2.3.1h1.1l.5-.3.3-.4v-1.3zm1.4 2.7l-.6.1c-.2 0-.4 0-.5-.2l-.2-.6a2 2 0 01-.8.6 2.7 2.7 0 01-1.7.1l-.6-.2-.3-.5-.2-.6c0-.3 0-.6.2-.8l.4-.4.6-.3a6.8 6.8 0 011.3-.2l.5-.1.4-.2.2-.4-.1-.5-.3-.2-.4-.1a3 3 0 00-.4 0l-1 .1c-.1.2-.3.4-.3.8h-.9l.2-.8.5-.5c.2-.2.5-.3.7-.3l.8-.1h.7l.7.2.4.5.2.7v3.1c0 .1.1.2.3.2h.2v.6zM205 43v.8c.4-.6 1-1 1.7-1 .4 0 .6.1 1 .3.2.1.4.3.5.7.1-.3.4-.5.7-.7a2 2 0 01.9-.2h.7l.5.3.4.5.1.7v3.8h-.8v-3.4-.5l-.2-.3-.3-.3h-.5c-.5 0-.8 0-1 .3-.3.2-.4.6-.4 1v3.2h-.8v-3.4-.5l-.3-.3-.2-.3h-1.2a1.5 1.5 0 00-.7 1.3v3.2h-.9V43h.8zm12 1.8a2 2 0 00-.3-.6 1.4 1.4 0 00-1.2-.6c-.3 0-.6 0-.8.2l-.5.5-.2.6a3 3 0 000 1.4l.2.7a1.5 1.5 0 001.3.6c.3 0 .6 0 .8-.2l.4-.5c.2-.1.2-.4.3-.6v-.7-.8zm-3.1-1.8v.7c.2-.3.4-.5.7-.6.3-.2.6-.2 1-.2s.7 0 1 .2l.8.6.4.9a3.6 3.6 0 010 2c0 .4-.2.7-.4 1a2 2 0 01-.8.5 2.4 2.4 0 01-1.4.2c-.2 0-.3 0-.5-.2l-.4-.2-.4-.4v2.7h-.9V43h.9zm5.3 5.2h.9V41h-.9zm5.9-3.7l-.3-.4a1.5 1.5 0 00-1-.5c-.3 0-.5 0-.7.2l-.4.3c-.2.1-.3.3-.3.4l-.2.6h3l-.1-.6m.2 3.4c-.4.3-.9.4-1.5.4-.4 0-.7 0-1-.2a2.2 2.2 0 01-1.3-1.4l-.2-1.1.2-1.1.5-.9a2.3 2.3 0 011.8-.7c.4 0 .8 0 1.1.3l.8.7.4 1v1h-3.9l.1.6.3.6.5.3.8.2.9-.3c.2-.1.3-.4.4-.7h.9a2 2 0 01-.8 1.3m3-6.9l3.9 5.8V41h.9v7.2h-1l-3.8-5.8v5.8h-1V41zm9.6 4.5a1 1 0 01-.4.2h-.6a17.8 17.8 0 00-1 .3 1 1 0 00-.4.3l-.2.5.1.4.2.2.3.1h1.1l.5-.3.3-.4.1-.4v-.9zm1.4 2.7l-.6.1c-.2 0-.4 0-.5-.2-.2 0-.2-.3-.2-.6a2 2 0 01-.9.6 2.7 2.7 0 01-1.6.1l-.6-.2-.4-.5V47 46l.5-.4.5-.3a7 7 0 011.3-.2l.6-.1.4-.2.1-.4V44l-.4-.2-.3-.1a3 3 0 00-.4 0l-1 .1c-.2.2-.3.4-.3.8h-.9c0-.3 0-.6.2-.8l.5-.5c.2-.2.4-.3.7-.3l.8-.1h.7l.6.2.5.5.2.7v3.1l.2.2h.3v.6zM241 43v.8c.4-.6 1-1 1.7-1l.9.3c.2.1.4.3.5.7l.7-.7a2 2 0 011-.2h.7l.5.3.4.5v4.5h-.8v-3.4-.5c0-.1 0-.2-.2-.3l-.3-.3h-.5c-.4 0-.7 0-1 .3-.2.2-.3.6-.3 1v3.2h-.9v-3.4-.5l-.2-.3-.3-.3h-.5a1.3 1.3 0 00-1 .4 1.4 1.4 0 00-.3.9v3.2h-.9V43h.8zm11.5 1.5a1.5 1.5 0 00-1.4-.9c-.2 0-.4 0-.6.2-.2 0-.3.1-.5.3l-.3.4v.6h2.9l-.1-.6m.2 3.4c-.4.3-1 .4-1.5.4-.4 0-.8 0-1-.2a2.2 2.2 0 01-1.3-1.4l-.2-1.1c0-.4 0-.8.2-1.1l.5-.9a2.3 2.3 0 011.7-.7c.5 0 .9 0 1.2.3l.7.7.4 1 .1 1h-3.9v.6l.4.6.5.3.7.2c.4 0 .7-.1 1-.3l.4-.7h.8a2 2 0 01-.7 1.3m2.5-.9l.4.4.4.1a2.6 2.6 0 001.3 0l.3-.3.2-.4c0-.2-.1-.4-.3-.5l-.6-.3-.8-.2-.9-.2-.6-.5-.2-.7.1-.7.5-.5.6-.2.7-.1h.8l.7.3.4.5c.2.2.2.5.2.8h-.8l-.1-.4-.3-.3-.4-.1a2 2 0 00-.8 0h-.4l-.2.3-.1.3.1.4.4.2.6.2.6.1.6.2.5.2.4.5.2.6c0 .3 0 .6-.2.8l-.5.5-.7.2a4.3 4.3 0 01-1.7 0 2 2 0 01-.7-.3l-.4-.5c-.2-.2-.2-.5-.2-.8h.8l.1.4m8.6-2.2l-.3-.6a1.4 1.4 0 00-1.2-.6c-.3 0-.6 0-.8.2l-.5.5-.2.6a3 3 0 000 1.4c0 .3.1.5.3.7a1.5 1.5 0 001.2.6c.3 0 .6 0 .8-.2l.4-.5.3-.6v-.7-.8zm-3-1.8v.7c0-.3.3-.5.6-.6.3-.2.6-.2 1-.2s.7 0 1 .2c.3.1.6.3.8.6l.4.9a3.6 3.6 0 010 2c0 .4-.2.7-.4 1a2 2 0 01-.8.5 2.4 2.4 0 01-1.4.2l-.5-.2-.4-.2-.4-.4v2.7h-.8V43h.8zm8.4 2.5a1 1 0 01-.4.2h-.6a17.5 17.5 0 00-1 .3 1 1 0 00-.4.3l-.2.5.1.4.2.2.3.1h1.1l.5-.3.3-.4.1-.4v-.9zm1.4 2.7l-.6.1c-.2 0-.4 0-.5-.2-.2-.1-.2-.3-.2-.6a2 2 0 01-.9.6 2.7 2.7 0 01-1.6.1l-.6-.2-.4-.5V47 46l.5-.4.5-.3a6.9 6.9 0 011.3-.2l.6-.1.4-.2.1-.4V44l-.4-.2-.3-.1a3 3 0 00-.4 0l-1 .1c-.2.2-.3.4-.3.8h-.9c0-.3 0-.6.2-.8l.5-.5c.2-.2.4-.3.7-.3l.8-.1h.7l.6.2.5.5.2.7v3.1l.2.2h.3v.6zm4.1-4.3c-.2-.2-.5-.3-.9-.3-.3 0-.5 0-.7.2l-.5.5c-.2.1-.2.4-.3.6a3.5 3.5 0 000 1.5l.3.6a1.4 1.4 0 001.1.6c.5 0 .8-.1 1-.4.3-.2.4-.5.5-.9h.8c0 .6-.3 1.1-.7 1.5a2.7 2.7 0 01-2.6.3 2 2 0 01-.8-.5l-.4-.9-.2-1c0-.4 0-.8.2-1.1 0-.4.2-.7.4-1l.8-.5 1-.2h.9l.7.4a1.8 1.8 0 01.7 1.4h-.9c0-.4-.2-.6-.4-.8m6 .6a1.5 1.5 0 00-1.4-.9c-.2 0-.4 0-.6.2-.2 0-.3.1-.4.3-.2.1-.3.3-.3.4l-.2.6h3l-.1-.6m.2 3.4c-.4.3-.9.4-1.5.4-.4 0-.8 0-1-.2a2.2 2.2 0 01-1.3-1.4l-.2-1.1c0-.4 0-.8.2-1.1l.5-.9a2.3 2.3 0 011.8-.7c.4 0 .8 0 1.1.3l.8.7c.1.3.3.6.3 1l.1 1h-3.9l.1.6.3.6.5.3.7.2c.4 0 .7-.1 1-.3.2-.1.3-.4.4-.7h.8a2 2 0 01-.7 1.3m4.7-.9h5.1v-.7h-5v.7zm0-2h5.1v-.7h-5v.7zm11.4-3.5h-.2l-.2.2v2.5a1.5 1.5 0 01-.4 1 1.1 1.1 0 01-.6.3l.3.1.3.2a1.4 1.4 0 01.3 1V49l.1.3.2.2h.7v.7h-.7a1 1 0 01-.4-.1 1 1 0 01-.3-.2l-.3-.5V47l-.2-.4-.1-.4-.3-.2-.3-.1v-.7l.3-.1.3-.2.1-.4.1-.5v-1.8l.1-.6c0-.2.2-.3.3-.4l.3-.3h1.1v.6h-.5zM182.3 58.7h.7v-2.6h-.7v2.6zm-1.4 0h.6v-2.6h-.6v2.6zm4 4.6h.9v-5.2h-.9v5.2zm0-6.1h.9v-1h-.9v1zm3.2 1v.8c.4-.7 1-1 1.7-1 .4 0 .7 0 1 .2a1.4 1.4 0 01.8 1v4.1h-.8v-3.5c0-.3-.1-.6-.3-.8a1 1 0 00-.8-.2h-.7l-.4.4-.3.5-.1.7v3h-.9V58h.8zm5 5.1h1v-5.2h-1v5.2zm0-6.1h1v-1h-1v1zm4.7 1v.7h-1v3.6h1v.8h-1.2l-.4-.2a.7.7 0 01-.2-.3l-.1-.6v-3.3h-.9V58h.9v-1.5h.9V58h1zm3 .5h.7v-2.6h-.7v2.6zm-1.4 0h.7v-2.6h-.7v2.6zm7.2 4.6h1.1v-1h-1v1zm0-4h1.1V58h-1v1.1zm5.3-.4V58h.9v-.7c0-.5.1-.8.3-1 .3-.2.6-.3 1.1-.3a2.2 2.2 0 01.6 0v.8h-.3-.7l-.2.5v.7h1v.8h-1v4.4h-.8V59h-.9zm7.2 4.4v-.8a1.8 1.8 0 01-1.7 1l-.9-.2a1.4 1.4 0 01-.8-1l-.1-.7V58h.9v3.6c0 .3 0 .5.2.7.2.2.5.3.8.3l.7-.1.5-.4.3-.5v-3.6h1v5.2h-.9zm3.1-5.2v.9c.4-.7 1-1 1.7-1 .4 0 .6 0 .9.2a1.4 1.4 0 01.8 1l.1.7v3.4h-.8v-3.5c0-.3-.1-.6-.3-.8a1 1 0 00-.8-.2h-.7l-.5.4-.2.5-.1.7v3h-.9V58h.8zm8.1 1c-.2-.2-.5-.3-.9-.3l-.7.1-.5.5-.3.6a3.5 3.5 0 000 1.5l.3.6a1.4 1.4 0 001.1.6c.5 0 .8-.1 1-.3.3-.3.4-.6.5-1h.8c0 .7-.3 1.2-.7 1.5-.4.4-.9.5-1.6.5l-1-.1a2 2 0 01-.8-.6l-.4-.8-.2-1.1c0-.4 0-.8.2-1 0-.4.2-.7.4-1l.8-.6 1-.2.9.1c.3 0 .5.2.7.3l.5.6.2.8h-.9c0-.3-.2-.6-.4-.8m4.7-.9v.8h-1v3.5l.1.1h.9v.8h-.6a3 3 0 01-.6 0l-.4-.2a.7.7 0 01-.2-.3v-3.9h-1V58h1v-1.5h.8V58h1zm1.2 5.2h.9v-5.2h-.9v5.2zm0-6.1h.9v-1h-.9v1zm3.2 4.4l.3.6a1.5 1.5 0 001.2.5l.6-.1.5-.4.3-.6.2-.9c0-.3 0-.6-.2-.8l-.3-.6a1.5 1.5 0 00-1.1-.5 1.5 1.5 0 00-1.2.5l-.3.6-.2.8c0 .4 0 .6.2.9m-1-2l.6-.8.8-.6 1-.2c.5 0 .8 0 1.1.2a2.3 2.3 0 011.3 1.5 3.4 3.4 0 010 2.1c0 .3-.3.6-.5.9-.2.2-.4.4-.8.5-.3.2-.6.2-1 .2-.5 0-.8 0-1.1-.2-.4-.1-.6-.3-.8-.5l-.5-.9-.2-1c0-.4 0-.8.2-1.1m6.9-1.6v.9c.4-.7 1-1 1.7-1 .3 0 .6 0 .9.2a1.4 1.4 0 01.8 1v4.1h-.8v-3.5c0-.3 0-.6-.2-.8a1 1 0 00-.8-.2h-.7l-.5.4-.3.5v3.7h-1V58h.9zm5.7 6.1a9.1 9.1 0 01-.8-2.3 7.6 7.6 0 011.5-6h.6a8.3 8.3 0 00-1.3 4.7 8.7 8.7 0 001.3 4.7h-.6l-.7-1.1m2.4-1.2a9.1 9.1 0 00-1-7h.6a14.6 14.6 0 011.2 2.2 7.7 7.7 0 01.4 2.5 7.6 7.6 0 01-1.6 4.6h-.6c.4-.7.8-1.5 1-2.3m7.5-6.4h-.3l-.1.3-.1.2V59.3a1.5 1.5 0 01-.4 1 1.1 1.1 0 01-.5.3l.2.1.3.3.3.4v2.4l.1.4v.2l.2.2.3.1h.5v.6h-.7a1 1 0 01-.4 0 1 1 0 01-.4-.3l-.2-.4-.1-.6v-1.8l-.1-.5-.2-.4-.3-.2-.3-.1v-.7h.3l.3-.3.2-.4v-2.3l.2-.6.2-.4.4-.2.4-.1h.7v.6h-.5zm8.7 6.7h1.1v-1h-1v1zm-3.3 0h1v-1h-1v1zm-3.4 0h1.1v-1h-1v1zm10 1.4h.2l.1-.3v-.2l.1-.4V62a1.5 1.5 0 01.3-1 1 1 0 01.6-.3l-.3-.1a1 1 0 01-.3-.3l-.2-.4-.1-.6v-1.8-.4l-.1-.2-.1-.2-.3-.1h-.5V56h1.1l.3.3.3.4.1.6v2.3l.3.4.2.2.3.1v.7h-.3l-.2.3-.2.4-.1.5V64l-.1.6-.3.4-.3.2a1 1 0 01-.4.1h-.7v-.6h.5zm4.7-2.5v1c0 .4-.1.7-.3 1-.2.3-.4.5-.8.6v-.5l.3-.2a1 1 0 00.3-.8h-.6v-1h1zM182.3 74h.7v-2.6h-.7v2.6zm-1.4 0h.6v-2.6h-.6v2.6zm4.7 2.7c0 .3.2.5.3.6a1.4 1.4 0 001.2.6l.8-.1.5-.5.2-.6a3 3 0 000-1.5l-.3-.6c0-.2-.3-.3-.5-.4l-.7-.2c-.3 0-.6 0-.8.2-.2 0-.3.2-.4.4a2 2 0 00-.3.7v1.4zm3 1.9v-.7c0 .3-.3.5-.6.6l-1 .2-1-.2-.8-.6-.4-.9a3.6 3.6 0 010-2.1c0-.3.2-.6.4-.9l.8-.5a2.4 2.4 0 011.4-.2 2.3 2.3 0 011 .4l.3.4v-2.7h.8v7.2h-.8zm6-3.7a1.5 1.5 0 00-1.4-.9l-.6.1c-.2 0-.3.2-.5.3l-.3.5-.1.6h3c0-.2 0-.4-.2-.6m.3 3.3a2.7 2.7 0 01-2.6.2A2.2 2.2 0 01191 77l-.2-1c0-.4 0-.8.2-1.1 0-.4.3-.7.5-.9a2.3 2.3 0 011.7-.8c.5 0 .9.1 1.2.3l.7.8.4 1v1h-3.8v.6l.4.5.5.4.7.1c.4 0 .7 0 .9-.2.2-.2.4-.4.5-.8h.8a2 2 0 01-.7 1.3m2.5-.8l.3.3.5.2a2.6 2.6 0 001.3-.1c.2 0 .3-.1.3-.2l.2-.4c0-.3-.1-.4-.3-.5l-.6-.3-.8-.2-.9-.3c-.2 0-.4-.2-.6-.4-.2-.2-.2-.4-.2-.8l.1-.7.5-.4.6-.3h1.5c.3 0 .5.2.7.3l.4.5.2.8h-.8c0-.2 0-.3-.2-.4 0-.2-.1-.2-.2-.3l-.4-.2h-.8l-.4.1-.2.2-.1.4.1.3.4.3.6.1a47.1 47.1 0 011.7.6l.4.4.2.6-.2.8-.5.5c-.3.2-.5.3-.8.3a4.3 4.3 0 01-1.6 0 2 2 0 01-.7-.3l-.5-.6-.2-.8h.9l.1.5m6.8-4v.7h-1v3.5l.1.1.2.1h.7v.8h-.6a3 3 0 01-.6 0l-.4-.2a.7.7 0 01-.2-.4V74h-1v-.7h1v-1.6h.8v1.6h1zm2 0v1c.2-.4.4-.7.7-.9a2 2 0 011.2-.3v1h-.9l-.6.5-.3.7-.1.9v2.3h-.9v-5.2h.9zm3.3 3.4c0 .3.2.5.3.6l.6.4a1.5 1.5 0 001.2 0c.2 0 .4-.2.5-.4.2-.1.3-.3.4-.6l.1-.8-.1-.9-.4-.6a1.5 1.5 0 00-1.1-.5l-.6.1-.6.4-.3.6-.1.9.1.8m-.9-1.9l.5-.9.8-.5c.3-.2.7-.3 1-.3.5 0 .9.1 1.2.3a2.3 2.3 0 011.3 1.4l.1 1-.1 1.1c-.1.4-.3.7-.5.9l-.8.6-1.1.2c-.4 0-.8 0-1-.2a2.2 2.2 0 01-1.4-1.5l-.1-1 .1-1.1m8.2 4.4l-.3.6-.3.4a1 1 0 01-.4.3h-1.1v-.8a1.5 1.5 0 00.5.1l.4-.1.3-.4.3-.9-2-5.1h1l1.4 4.2 1.5-4.2h1l-2.3 5.9zm5-5.3h.7v-2.6h-.7v2.6zm-1.4 0h.7v-2.6h-.7v2.6zm7.2 4.6h1.2v-1.1h-1.2v1zm0-4.1h1.2v-1.1h-1.2v1zm5.3-.4v-.7h.9v-.8c0-.4.1-.8.4-1 .2-.2.6-.3 1-.3a2 2 0 01.6 0v.8h-.3-.7l-.1.5v.8h1v.7h-1v4.5h-.9V74h-.9zm7.2 4.5v-.9a1.8 1.8 0 01-1.7 1c-.3 0-.6 0-.8-.2a1.4 1.4 0 01-.9-1v-4.1h.8v3.5c0 .3 0 .6.3.8l.7.2h.7l.5-.4.3-.5v-3.7h1v5.3h-.9zm3.1-5.2v.8c.4-.6 1-1 1.7-1 .4 0 .7 0 .9.2a1.4 1.4 0 01.8 1l.1.7v3.5h-.8v-3.6c0-.3-.1-.5-.3-.7a1 1 0 00-.8-.3l-.7.1-.4.4c-.2.1-.3.3-.3.5l-.1.6v3h-.9v-5.2h.8zm8.1.9c-.2-.2-.5-.3-.8-.3-.3 0-.6 0-.8.2-.2 0-.4.2-.5.4l-.3.7a3.5 3.5 0 000 1.4c0 .3.2.5.3.6a1.3 1.3 0 001.2.6c.4 0 .7 0 1-.3.2-.2.3-.5.4-1h.9c-.1.7-.4 1.2-.8 1.6-.3.3-.9.5-1.5.5-.4 0-.8 0-1-.2a2 2 0 01-.8-.6l-.5-.8-.2-1c0-.5 0-.8.2-1.2 0-.3.2-.6.4-.8.3-.3.5-.5.8-.6.3-.2.7-.3 1-.3l1 .1.6.4a1.8 1.8 0 01.7 1.3h-.8l-.5-.7m4.7-1v.8h-1v3.5l.1.1.2.1h.7v.8h-.6a3 3 0 01-.6 0l-.4-.2a.7.7 0 01-.2-.4V74h-1v-.7h1v-1.6h.8v1.6h1zm1.2 5.3h.9v-5.2h-.9v5.2zm0-6.2h.9v-1h-.9v1zm3.2 4.4c0 .3.2.5.3.6a1.5 1.5 0 001.2.5 1.5 1.5 0 001.5-1v-1-.8l-.4-.6a1.5 1.5 0 00-1.1-.5l-.7.1-.5.4-.3.6-.1.9v.8m-.8-1.9l.5-.9.8-.5c.3-.2.7-.3 1-.3.5 0 .9.1 1.2.3a2.3 2.3 0 011.2 1.4l.2 1-.2 1.1c0 .4-.2.7-.4.9l-.8.6-1.1.2c-.4 0-.8 0-1.1-.2a2.2 2.2 0 01-1.3-1.5l-.2-1 .2-1.1m7-1.5v.8c.3-.6.9-1 1.6-1 .4 0 .7 0 .9.2a1.4 1.4 0 01.8 1l.1.7v3.5h-.8v-3.6c0-.3-.1-.5-.3-.7a1 1 0 00-.8-.3l-.7.1-.5.4-.2.5-.1.6v3h-.9v-5.2h.8zm5.7 6a8.8 8.8 0 01-.9-2.3 7.6 7.6 0 011.5-6l.7.1a8.3 8.3 0 00-1.4 4.7l.3 2.4 1 2.3h-.6a15 15 0 01-.6-1.2m2.3-1.1a9.2 9.2 0 00-1-7h.6a14.6 14.6 0 011.2 2.2 7.7 7.7 0 01.4 2.4 7.6 7.6 0 01-1.6 4.7h-.6c.5-.8.8-1.6 1-2.3m7.5-6.5h-.3l-.1.3v.3l-.1.3v1.8a1.5 1.5 0 01-.4 1 1.1 1.1 0 01-.5.4h.3l.2.3a1.4 1.4 0 01.4 1V79.7l.2.2h.8v.7h-.7a1 1 0 01-.4-.1 1 1 0 01-.3-.3c-.2-.1-.2-.2-.3-.4l-.1-.6v-1.8-.5l-.3-.4-.2-.2h-.3v-.8h.3l.2-.3.2-.4v-2.3l.2-.5c0-.2.1-.3.3-.5l.3-.2h1.1v.5h-.5zm8.7 6.8h1.2v-1.1h-1.2v1zm-3.3 0h1.1v-1.1h-1.1v1zm-3.4 0h1.2v-1.1h-1.2v1zm10 1.3h.2l.1-.2.1-.3v-2.1a1.5 1.5 0 01.4-1 1.1 1.1 0 01.5-.4l-.2-.1a1 1 0 01-.3-.2l-.3-.4v-2.5l-.1-.3V72l-.2-.2h-.8V71h.7l.4.1.4.2.2.5.1.5v2.4l.3.3.2.3h.4v.7l-.4.1-.2.3-.2.3v2.3l-.2.6-.2.4a1 1 0 01-.4.3 1 1 0 01-.4 0h-.7v-.6h.5zm4.7-2.4v1c0 .3 0 .7-.3 1-.1.2-.4.4-.8.5v-.5l.3-.1a1 1 0 00.3-.8h-.6v-1.1h1.1zM182.3 89h.7v-2.6h-.7V89zm-1.4 0h.6v-2.6h-.6V89zm4.7 2.8l.3.6a1.4 1.4 0 001.2.6c.3 0 .6 0 .8-.2l.5-.5.2-.6a3 3 0 000-1.4c0-.3-.1-.5-.3-.7a1.5 1.5 0 00-1.2-.6c-.3 0-.6 0-.8.2l-.4.5a2 2 0 00-.3.6v1.5zm3 1.8v-.7c0 .3-.3.5-.6.6l-1 .2c-.4 0-.7 0-1-.2l-.8-.6-.4-.9a3.6 3.6 0 010-2c0-.4.2-.7.4-1l.8-.5a2.4 2.4 0 011.4-.2c.2 0 .3 0 .5.2l.4.2.4.4v-2.7h.8v7.2h-.8zm6-3.7a1.5 1.5 0 00-.8-.8h-1.2l-.5.4-.3.4-.1.6h3c0-.2 0-.4-.2-.6m.3 3.4c-.4.3-1 .4-1.5.4-.4 0-.8 0-1.1-.2-.3-.1-.6-.3-.8-.6l-.4-.8-.2-1.1c0-.4 0-.8.2-1.1 0-.3.3-.6.5-.9a2.3 2.3 0 011.7-.7c.5 0 .9 0 1.2.3l.7.7.4 1v1h-3.8v.6l.4.5.5.4.7.2c.4 0 .7-.1.9-.3.2-.2.4-.4.5-.8h.8a2 2 0 01-.7 1.4m1.4-4.1v-.8h.8v-.8c0-.4.1-.7.4-1 .2-.2.6-.3 1-.3a2.2 2.2 0 01.6.1v.8l-.2-.1h-.3l-.4.1c-.2 0-.2.2-.2.5v.7h1v.8h-1v4.4h-.9v-4.4h-.8zm6.9 1.7a1 1 0 01-.4.2h-.6a21.2 21.2 0 00-1.1.3 1 1 0 00-.4.3l-.1.5a.7.7 0 00.3.6l.3.1h1.1l.5-.4.3-.3v-1.3zm1.4 2.7l-.7.1c-.2 0-.3 0-.5-.2l-.2-.6a2 2 0 01-.8.6 2.7 2.7 0 01-1.7.1l-.5-.2-.4-.5-.1-.6.1-.8.4-.4.6-.3a6.9 6.9 0 011.3-.2l.6-.1.3-.2.2-.4-.1-.5-.3-.2-.4-.1h-.4l-.9.1c-.2.2-.4.4-.4.8h-.8c0-.3 0-.6.2-.8l.5-.5.6-.3.9-.1h.7l.6.2.5.5.1.7v3.1l.3.2.3-.1v.7zm4.5 0v-.8l-.8.7a2 2 0 01-1 .2l-.8-.1a1.4 1.4 0 01-.9-1v-4.2h.8v3.5c0 .3.1.6.3.8.2.2.4.3.8.3.2 0 .5 0 .7-.2l.4-.3c.2-.1.3-.3.3-.5l.1-.7v-2.9h.9v5.2h-.8zm2.3 0h.9v-7.2h-.9zm4.6-5.2v.8h-1V92.6l.1.2h.9v.8h-1.2l-.4-.2a.7.7 0 01-.2-.4v-3.8h-1v-.8h1v-1.6h.8v1.6h1zm3 5.2l-2.5-7.2h1l2.1 6.2 2-6.2h1l-2.5 7.2zm7.2-2.7a1 1 0 01-.4.2h-.6a21.2 21.2 0 00-1 .3 1 1 0 00-.5.3l-.1.5a.7.7 0 00.3.6l.3.1h1.1l.5-.4.3-.3v-1.3zm1.4 2.7l-.6.1c-.3 0-.4 0-.6-.2l-.2-.6a2 2 0 01-.8.6 2.7 2.7 0 01-1.7.1l-.5-.2-.4-.5-.1-.6.1-.8.4-.4.6-.3a6.9 6.9 0 011.3-.2l.6-.1.3-.2.2-.4-.1-.5-.3-.2-.4-.1h-.4l-.9.1-.4.8h-.8c0-.3 0-.6.2-.8l.5-.5c.2-.2.4-.3.7-.3l.8-.1h.7l.6.2.5.5.1.7v3.1l.3.2.3-.1v.7zm1 0h.9v-7.2h-.9zm5.9 0v-.8l-.7.7a2 2 0 01-1 .2l-.9-.1a1.4 1.4 0 01-.8-1l-.1-.8v-3.4h.9v3.5c0 .3 0 .6.2.8.2.2.5.3.8.3.3 0 .5 0 .7-.2.2 0 .3-.2.5-.3l.3-.5V88.4h1v5.2h-.9zm5.8-3.7l-.3-.4a1.5 1.5 0 00-2.1 0c-.2.1-.3.3-.3.4l-.2.6h3l-.1-.6m.2 3.4c-.4.3-.9.4-1.5.4-.4 0-.8 0-1-.2-.4-.1-.6-.3-.8-.6l-.5-.8-.2-1.1c0-.4 0-.8.2-1.1l.5-.9a2.3 2.3 0 011.8-.7c.4 0 .8 0 1.1.3.3.2.6.4.7.7.2.3.4.6.4 1l.1 1h-3.9l.1.6a1.5 1.5 0 00.8 1h.7c.4 0 .7 0 1-.2l.4-.8h.8a2 2 0 01-.7 1.4m3.8-4.3h.6v-2.6h-.6V89zm-1.4 0h.6v-2.6h-.6V89zm7.2 4.6h1.1v-1.1H250v1.1zm0-4h1.1v-1.2H250v1.1zm7.6-.6h.7v-2.6h-.7V89zm-1.4 0h.7v-2.6h-.7V89zm11.2 4.6h1.2v-1.1h-1.2v1.1zm-3.3 0h1.1v-1.1h-1.1v1.1zm-3.4 0h1.2v-1.1h-1.2v1.1zm11.7-4.6h.7v-2.6h-.7V89zm-1.4 0h.7v-2.6h-.7V89zm5.3 3.5v1c0 .4 0 .7-.2 1-.2.3-.5.5-.9.6v-.5l.3-.2.2-.3a1 1 0 00.1-.5h-.6v-1.1h1.1zm-88 11.6h.7v-2.6h-.7v2.6zm-1.4 0h.6v-2.6h-.6v2.6zm5.1-2.6l3.8 5.9v-5.9h1v7.2h-1L192 103v5.7h-1v-7.2zm9.8 3.6a1.5 1.5 0 00-1.3-1l-.6.2c-.2 0-.4.2-.5.3l-.3.5-.1.5h3c0-.2 0-.4-.2-.5m.2 3.3c-.3.3-.8.4-1.4.4-.4 0-.8 0-1.1-.2-.3 0-.6-.3-.8-.5l-.4-.9-.2-1c0-.5 0-.8.2-1.2 0-.3.3-.6.5-.8a2.3 2.3 0 011.7-.8 2.1 2.1 0 012 1l.3 1v1H199v.6l.4.6.5.4.7.1c.4 0 .7 0 .9-.3.2-.1.4-.4.5-.7h.8a2 2 0 01-.8 1.3m2.6-.8l.3.3.5.1a2.5 2.5 0 001.3 0l.3-.3.1-.4c0-.2 0-.4-.2-.5l-.6-.3-.9-.1-.8-.3c-.2 0-.4-.2-.6-.4-.2-.2-.3-.5-.3-.8l.2-.7.5-.4.6-.3h1.5l.7.2.4.5.2.8h-.8c0-.1 0-.3-.2-.4l-.2-.2-.4-.2h-.8l-.4.1-.2.2-.1.3.1.4.4.2.6.2a40.6 40.6 0 011.7.6c.2 0 .3.2.4.4l.2.6-.2.8c-.2.2-.3.4-.6.5l-.7.3a4.3 4.3 0 01-1.6 0 2 2 0 01-.7-.3l-.5-.6-.2-.8h.9l.1.5m6.8-4v.7h-1v3.5l.1.1h.9v.8h-.6a3 3 0 01-.6 0l-.4-.2a.7.7 0 01-.2-.3v-3.9h-1v-.8h1V102h.8v1.5h1zm4.7 1.5l-.4-.5a1.5 1.5 0 00-2 0l-.4.5-.1.5h3l-.1-.5m.2 3.3c-.4.3-1 .4-1.5.4-.4 0-.8 0-1-.2-.4 0-.7-.3-.9-.5l-.4-.9-.2-1c0-.5 0-.8.2-1.2 0-.3.3-.6.5-.8a2.3 2.3 0 011.7-.8c.5 0 .9.1 1.2.3l.7.7.4 1v1h-3.8v.6l.4.6.5.4.7.1c.4 0 .7 0 1-.3l.4-.7h.8a2 2 0 01-.7 1.3m2.6-1.5l.3.6a1.4 1.4 0 001.2.6c.3 0 .5 0 .7-.2.2 0 .4-.2.5-.4.2-.2.3-.4.3-.7a3 3 0 000-1.4c0-.2-.1-.5-.3-.6l-.5-.5-.7-.1-.8.1-.5.5a2 2 0 00-.2.6l-.1.8.1.7zm3 1.8v-.7c0 .3-.3.5-.6.7l-1 .1c-.4 0-.8 0-1-.2-.4-.1-.6-.3-.8-.6l-.5-.8-.1-1 .1-1.1c.1-.4.3-.6.5-.9l.7-.6a2.4 2.4 0 011.5-.2 2.2 2.2 0 011 .4l.3.4v-2.7h.8v7.2h-.8zm3.6-7.2l3.8 5.9v-5.9h.9v7.2h-1l-3.8-5.7v5.7h-1v-7.2zm9.5 4.5a1 1 0 01-.4.2l-.5.1a18.2 18.2 0 00-1.1.2 1 1 0 00-.4.3l-.2.5.1.4.2.2.4.1h1.1l.5-.3.2-.4.1-.4v-.9zm1.4 2.7l-.6.1-.5-.1a1 1 0 01-.2-.7 2 2 0 01-.8.7 2.7 2.7 0 01-1.7 0c-.2 0-.4 0-.6-.2l-.3-.4-.2-.7c0-.3 0-.5.2-.7 0-.2.2-.4.4-.5l.5-.3a6.8 6.8 0 011.4-.2l.5-.1.4-.2.1-.4v-.4l-.3-.3-.4-.1h-.4c-.4 0-.7 0-1 .2-.2.1-.3.4-.3.7h-.9l.2-.8.5-.5.7-.3h1.5c.3 0 .5 0 .7.2.2 0 .3.2.4.4l.2.7v3.1c0 .1.1.2.3.2h.2v.6zm1.8-5.2v.8c.4-.6 1-.9 1.7-.9.3 0 .6 0 .9.2.3.1.4.4.6.7.1-.3.4-.5.6-.7a2 2 0 011-.2h.7l.5.4c.2 0 .3.2.4.4l.1.7v3.8h-.8v-3.4-.4l-.2-.4-.3-.2-.5-.1c-.5 0-.8 0-1 .3-.3.3-.4.6-.4 1v3.2h-.9v-3.4-.4c0-.2 0-.3-.2-.4l-.3-.3h-.4l-.7.1a1.5 1.5 0 00-.6.8l-.1.4v3.2h-.9v-5.2h.8zm11.5 1.6c0-.2-.2-.4-.3-.5a1.5 1.5 0 00-2.1 0c-.2.1-.3.3-.3.5l-.2.5h3l-.1-.5m.2 3.3c-.4.3-.9.4-1.5.4-.4 0-.8 0-1-.2-.4 0-.6-.3-.8-.5l-.5-.9-.2-1c0-.5 0-.8.2-1.2l.5-.8a2.3 2.3 0 011.8-.8c.4 0 .8.1 1.1.3l.8.7c.1.3.3.6.3 1l.1 1h-3.9l.1.6.3.6.5.4.8.1c.3 0 .6 0 .8-.3.3-.1.4-.4.5-.7h.8a2 2 0 01-.7 1.3m2.6-.8l.3.3.4.1a2.5 2.5 0 001.4 0l.3-.3v-.4c0-.2 0-.4-.2-.5l-.6-.3-.8-.1-.8-.3c-.3 0-.5-.2-.7-.4l-.2-.8c0-.3 0-.5.2-.7 0-.2.2-.3.4-.4l.6-.3h1.5l.7.2.5.5.2.8h-.9l-.1-.4-.3-.2-.4-.2h-.8l-.3.1-.3.2-.1.3c0 .2 0 .3.2.4l.3.2.6.2a43.7 43.7 0 011.8.6l.4.4.1.6c0 .3 0 .6-.2.8l-.5.5-.7.3a4.3 4.3 0 01-1.6 0 2 2 0 01-.7-.3l-.5-.6-.2-.8h.8c0 .2 0 .3.2.5m8.5-2.2a2 2 0 00-.3-.6 1.4 1.4 0 00-1.2-.6l-.7.1-.5.5-.3.6a3 3 0 000 1.5l.3.6.5.4.7.2c.3 0 .6 0 .8-.2.2 0 .3-.2.5-.4l.2-.7.1-.7-.1-.7zm-3-1.9v.7c0-.3.3-.5.6-.6l1-.2c.4 0 .8 0 1 .2l.8.6.5.9a3.6 3.6 0 010 2l-.5 1-.7.5a2.4 2.4 0 01-1.5.2l-.5-.1a2 2 0 01-.4-.3c-.1 0-.3-.2-.3-.4v2.7h-1v-7.2h1zm8.4 2.5a1 1 0 01-.4.2l-.5.1a17.7 17.7 0 00-1.1.2 1 1 0 00-.4.3l-.2.5.1.4.2.2.4.1h1.1l.5-.3.2-.4.1-.4v-.9zm1.4 2.7l-.6.1-.5-.1-.2-.7a2 2 0 01-.8.7 2.7 2.7 0 01-1.7 0c-.2 0-.4 0-.6-.2l-.3-.4-.2-.7c0-.3 0-.5.2-.7 0-.2.2-.4.4-.5l.5-.3a6.9 6.9 0 011.4-.2l.5-.1.4-.2.1-.4v-.4l-.3-.3-.4-.1h-.4c-.4 0-.7 0-1 .2-.2.1-.3.4-.3.7h-.9l.2-.8.5-.5.7-.3h1.5c.3 0 .5 0 .7.2.2 0 .3.2.4.4l.2.7v3.1c0 .1.1.2.3.2h.2v.6zm4.1-4.3l-.8-.2-.8.1-.5.5-.3.6a3.5 3.5 0 000 1.5l.3.6a1.3 1.3 0 001.2.6c.4 0 .7-.1 1-.3l.4-1h.9a2.3 2.3 0 01-2.3 2l-1-.1a2 2 0 01-.8-.6l-.5-.8-.2-1.1c0-.4 0-.8.2-1.1 0-.3.2-.6.4-.9l.8-.6 1-.2 1 .1.6.3a1.8 1.8 0 01.7 1.4h-.8l-.5-.8m6 .7a1.5 1.5 0 00-1.4-1l-.6.2-.4.3-.3.5-.2.5h3l-.1-.5m.2 3.3c-.4.3-.9.4-1.5.4-.4 0-.7 0-1-.2-.3 0-.6-.3-.8-.5l-.5-.9-.2-1 .2-1.2.5-.8a2.3 2.3 0 011.8-.8c.4 0 .8.1 1.1.3l.8.7.4 1v1H275l.1.6.3.6.5.4.8.1c.3 0 .6 0 .9-.3.2-.1.3-.4.4-.7h.9a2 2 0 01-.8 1.3m3.8-4.3h.7v-2.6h-.7v2.6zm-1.4 0h.7v-2.6h-.7v2.6zm7.2 4.6h1.1v-1h-1v1zm0-4h1.1v-1.2h-1v1.1zm7.8-2.7h-.3l-.1.2v.3l-.1.3v1.9a1.5 1.5 0 01-.4 1 1.1 1.1 0 01-.5.3l.3.1.2.3a1.4 1.4 0 01.4 1V109.8l.2.2.3.1h.5v.6h-.7a1 1 0 01-.7-.3c-.2-.1-.2-.3-.3-.4l-.1-.6v-1.8-.5l-.3-.4-.2-.2-.3-.1v-.7h.3l.2-.3.2-.4v-2.3l.2-.6.2-.4.4-.2.4-.1h.7v.6h-.5zm-107.2 17.3h.7v-2.6h-.7v2.6zm-1.4 0h.6v-2.6h-.6v2.6zm4.8-.6v.7c.4-.6 1-.9 1.7-.9l.9.2c.3.1.4.4.5.7.2-.3.4-.5.7-.6a2 2 0 011-.3l.7.1c.2 0 .4.2.5.3l.4.5v4.5h-.8v-3.4-.5c0-.1 0-.3-.2-.4 0 0-.1-.2-.3-.2l-.5-.1a1.3 1.3 0 00-1.4 1.3v3.3h-.8v-3.4-.5l-.2-.4-.3-.2-.5-.1-.6.1a1.5 1.5 0 00-.7 1.2v3.3h-.9v-5.2h.8zm11.5 1.5a1.5 1.5 0 00-.8-.8l-.6-.1-.6.1c-.2 0-.3.2-.5.3 0 .2-.2.3-.3.5v.6h2.9l-.1-.6m.2 3.3a2.7 2.7 0 01-2.6.2 2.2 2.2 0 01-1.2-1.4l-.2-1c0-.4 0-.8.2-1.1.1-.4.3-.7.5-.9a2.3 2.3 0 011.7-.8 2.1 2.1 0 012 1l.3 1 .1 1h-3.9v.7l.4.5.5.4.7.1c.4 0 .7 0 1-.2l.4-.8h.8a2 2 0 01-.7 1.3m2.7-4.8v.7c.4-.6 1-.9 1.7-.9l.9.2c.3.1.4.4.5.7.2-.3.4-.5.7-.6a2 2 0 011-.3l.7.1c.2 0 .4.2.5.3l.4.5v4.5h-.8v-3.4-.5c0-.1 0-.3-.2-.4 0 0-.1-.2-.3-.2l-.5-.1c-.4 0-.7.1-1 .4s-.3.5-.3 1v3.2h-.9v-3.4-.5l-.2-.4-.3-.2-.5-.1-.6.1a1.5 1.5 0 00-.8 1.2v3.3h-.8v-5.2h.8zm12 1.8l-.4-.6a1.4 1.4 0 00-1.2-.6c-.3 0-.5 0-.7.2-.2 0-.4.2-.5.4l-.3.6a3 3 0 000 1.5l.3.6a1.5 1.5 0 001.3.6l.7-.1.5-.5.2-.6.1-.8v-.7zm-3.1-3.8v2.7c.1-.3.3-.5.6-.7l1-.2c.4 0 .8.1 1 .3.4.1.6.3.8.6l.5.8a3.6 3.6 0 010 2.1c-.1.4-.3.6-.5.9l-.7.6a2.4 2.4 0 01-1.5.1l-.4-.1-.5-.2-.3-.4v.7h-.9v-7.2h.9zm8.7 3.5a1.5 1.5 0 00-.8-.8l-.5-.1-.6.1c-.2 0-.4.2-.5.3l-.3.5-.1.6h3l-.2-.6m.2 3.3c-.4.3-.9.5-1.4.5-.5 0-.8 0-1.1-.2a2.2 2.2 0 01-1.3-1.5l-.1-1 .1-1.1.5-.9a2.3 2.3 0 011.8-.8 2.1 2.1 0 011.9 1l.4 1v1H221v.7l.3.5.6.4.7.1c.3 0 .6 0 .9-.2.2-.2.4-.4.4-.8h.9a2 2 0 01-.8 1.3m2.7-4.8v1l.8-.9a2 2 0 011.2-.3v1h-1l-.5.5c-.2.2-.3.4-.3.7l-.1.8v2.4h-.9v-5.2h.8zm4.7.6h.6v-2.6h-.6v2.6zm-1.4 0h.6v-2.6h-.6v2.6zm7.2 4.6h1.1v-1.2h-1.1v1.2zm0-4.1h1.1v-1.1h-1.1v1zm7.6-.5h.7v-2.6h-.7v2.6zm-1.4 0h.7v-2.6h-.7v2.6zm4.3 4.6h1v-1.2h-1zm3 0h1v-1.2h-1zm3 0h1v-1.2h-1zm4.6-4.6h.7v-2.6h-.7v2.6zm-1.4 0h.7v-2.6h-.7v2.6zm-70.3 21h.3l.1-.2v-.3-2.1a1.5 1.5 0 01.4-1 1 1 0 01.6-.4h-.3a1 1 0 01-.3-.3l-.2-.4-.1-.7v-1.8-.3l-.1-.3-.1-.2h-.8v-.7h.7l.4.1.3.3.3.4.1.6v2.3l.3.4.2.2h.3v.8h-.3l-.2.3-.2.4-.1.4v1.9l-.1.5c0 .2-.2.3-.3.4a1 1 0 01-.3.3 1 1 0 01-.4 0h-.7v-.5h.5zm-32.2-91V44h-1.8v-.7h.7l.6-.2a1.4 1.4 0 00.7-1.1h.7v7.1h-.9zm-2.2 9.4l.5-.8.7-.5 1-.2.9.1.7.4.5.7.1.9a2.2 2.2 0 01-.5 1.4l-.5.6a11.2 11.2 0 01-1.3.8l-.7.4-.4.5-.3.6h3.7v.7h-4.7l.2-1 .5-.8.6-.6.7-.5a18.6 18.6 0 001.4-1l.3-.5.1-.6a1.2 1.2 0 00-.8-1.2l-.5-.1a1.2 1.2 0 00-1.1.5l-.3.6v.6h-.9l.1-1m1.8 16.7h.8l.4-.3a1 1 0 00.4-.9c0-.3-.1-.6-.4-.8-.2-.2-.5-.3-.9-.3l-.6.1-.4.4-.2.5-.1.5h-.9l.2-.9c0-.3.2-.5.4-.7l.7-.5 1-.2c.2 0 .5 0 .8.2.3 0 .5.2.7.3l.4.6c.2.2.2.5.2.9 0 .3 0 .6-.3.8l-.7.6c.5 0 .8.3 1 .6.2.3.3.7.3 1.1 0 .4 0 .7-.2 1a2 2 0 01-.5.6l-.8.5a3.3 3.3 0 01-2 0 2 2 0 01-1.2-1.2l-.1-1h.8c0 .4.2.8.4 1.1.3.3.7.4 1.2.4h.5l.5-.3a1.3 1.3 0 00.5-1l-.1-.6a1.3 1.3 0 00-.8-.7 2 2 0 00-.6-.1h-.5v-.7m1.2 13.3l-2.4 3.5h2.4v-3.5zm1.8 3.5v.7h-1v1.7h-.8V93h-3.1v-.8l3.2-4.6h.7v4.7h1zm-3.4 11.3l-.4 2c.2-.1.4-.3.7-.3l.7-.2c.3 0 .6 0 .9.2a2 2 0 011.2 1.2 3 3 0 010 2 2.2 2.2 0 01-1.2 1.3l-1.1.1h-.9l-.7-.5-.5-.6-.2-.9h.9l.1.5a1.3 1.3 0 00.8.7 1.7 1.7 0 001.2 0l.4-.3.4-.5a2 2 0 000-1.4l-.4-.5c0-.2-.3-.3-.5-.4a1.7 1.7 0 00-1.4 0 2 2 0 00-.5.6h-.8l.7-3.8h3.5v.8h-2.9zm.4 17.7a1.4 1.4 0 00-.7.8 2 2 0 000 1.3c0 .2.1.3.3.5l.4.3.7.1h.6l.4-.4.3-.5v-.6-.7c0-.2-.1-.3-.3-.5a1.3 1.3 0 00-1-.5c-.3 0-.5 0-.7.2m1.6-2.4c-.2-.2-.5-.3-.9-.3-.3 0-.6 0-.8.3-.3.1-.4.4-.5.6-.2.3-.3.6-.3 1v.8c.1-.3.4-.6.7-.7l1-.2c.4 0 .7 0 1 .2.2 0 .4.2.6.4l.4.8a2.7 2.7 0 010 1.7c0 .3-.1.6-.3.8l-.8.6-1 .2c-.6 0-1-.1-1.4-.3l-.7-.9-.4-1a8.3 8.3 0 010-2.7l.5-1.2.8-.8c.4-.3.8-.4 1.3-.4.6 0 1 .2 1.4.5.3.3.5.8.6 1.4h-.9c0-.4-.1-.6-.3-.8m.3 16.2a11.3 11.3 0 00-1.7 5h-1a8.8 8.8 0 011-3.4 10.3 10.3 0 011.8-2.8h-3.7v-.8h4.6v.7l-1 1.3"/></g><g fill="#A29C8F"><path d="M300 134.2v2l8.7 3.4v-2l-6.3-2.4 6.3-2.5v-2zm14.4-7.2l-4.8 12.8h2l4.7-12.8zm2.9 5.7l6.2 2.5-6.2 2.5v1.9l8.6-3.4v-2l-8.6-3.5z"/></g></g></svg>