<svg xmlns="http://www.w3.org/2000/svg" xmlns:xlink="http://www.w3.org/1999/xlink" width="343" height="297" viewBox="0 0 343 297">
    <defs>
        <path id="prefix__a" d="M0.062 0.023L325.041 0.023 325.041 13.043 0.062 13.043z"/>
        <path id="prefix__c" d="M0 296.237L342.041 296.237 342.041 0 0 0z"/>
    </defs>
    <g fill="none" fill-rule="evenodd">
        <g transform="translate(17 283.194)">
            <mask id="prefix__b" fill="#fff">
                <use xlink:href="#prefix__a"/>
            </mask>
            <path fill="#F7E8C8" d="M.062 6.533c0-3.596 72.75-6.51 162.49-6.51 89.74 0 162.49 2.914 162.49 6.51 0 3.597-72.75 6.51-162.49 6.51-89.74 0-162.49-2.913-162.49-6.51" mask="url(#prefix__b)"/>
        </g>
        <path fill="#306B34" d="M27.922 252.181c1.13-3.422 6.067-19.517-2.705-33.274-5.257-8.242-15.911-16.392-21.372-13.457-5.324 2.86-4.46 15.589-1.38 23.866 5.773 15.512 21.609 21.52 25.457 22.865"/>
        <path fill="#619440" d="M56.528 283.35l1.252-1.699c-.17-.125-17.023-12.725-28.992-30.071-12-17.39-18.22-34.34-18.281-34.508l-1.98.723c.062.173 6.376 17.377 18.529 34.988 12.174 17.643 29.3 30.44 29.472 30.568"/>
        <path fill="#619440" d="M19.563 240.529L20.382 238.581 11.7 234.908 10.881 236.857zM14.708 227.219L16.75 219.282 14.71 218.754 12.668 226.691zM44.213 225.067c-4.027-3.34-22.493-19.348-22.269-43.093.135-14.228 6.992-32.52 15.977-33.137 8.763-.599 17.491 15.753 20.064 28.338 4.822 23.582-10.066 43.254-13.772 47.892"/>
        <path fill="#306B34" d="M54.281 281.897l2.063-.436c-.059-.279-5.888-28.176-11.095-56.585-5.194-28.338-6.05-58.208-6.058-58.506l-2.106.056c.008.301.867 30.33 6.092 58.832 5.212 28.436 11.046 56.36 11.104 56.639"/>
        <path fill="#306B34" d="M41.494 199.438L48.733 183.394 46.814 182.523 39.575 198.567zM37.961 182.503l2.04-.53c-.544-2.11-2.094-3.719-3.34-5.012l-4.15-4.312-1.516 1.47 4.151 4.31c1.13 1.173 2.41 2.504 2.815 4.074"/>
        <path fill="#A29C8F" d="M149.769 25.239l-.052-.653c1.3-.105 2.62-.182 3.925-.228l.023.654c-1.294.046-2.604.122-3.896.227zm-7.741.977l-.11-.645c1.293-.222 2.6-.417 3.888-.58l.082.65c-1.278.162-2.577.355-3.86.575zm-7.625 1.65l-.165-.634c1.265-.33 2.55-.638 3.823-.913l.137.64c-1.262.273-2.54.578-3.795.908zm-7.461 2.292l-.216-.618c1.232-.434 2.487-.85 3.73-1.232l.192.626c-1.235.38-2.482.792-3.706 1.224zm-7.246 2.902l-.266-.598c1.195-.536 2.413-1.053 3.618-1.535l.242.608c-1.197.48-2.406.993-3.594 1.525zm-6.99 3.483l-.313-.576c1.143-.627 2.315-1.241 3.483-1.822l.29.586c-1.16.578-2.324 1.188-3.46 1.812zm-6.69 4.03l-.36-.549c1.092-.717 2.212-1.422 3.329-2.096l.336.562c-1.11.67-2.222 1.369-3.305 2.082zm-6.351 4.55l-.401-.516c1.03-.804 2.09-1.595 3.15-2.355l.38.533c-1.052.754-2.106 1.54-3.13 2.339zm-5.972 5.046l-.44-.485c.963-.881 1.956-1.756 2.955-2.599l.42.5c-.991.839-1.98 1.708-2.935 2.584zm-5.546 5.51l-.478-.446c.89-.96 1.81-1.912 2.737-2.832l.459.466c-.921.914-1.835 1.86-2.718 2.811zm-5.078 5.946l-.512-.406c.802-1.023 1.642-2.05 2.494-3.046l.496.426c-.847.99-1.68 2.009-2.478 3.026zm-4.561 6.35l-.545-.36c.714-1.088 1.464-2.18 2.229-3.247l.53.384c-.761 1.058-1.505 2.143-2.214 3.224zm-3.997 6.721l-.575-.31c.616-1.148 1.269-2.303 1.94-3.43l.56.335c-.666 1.12-1.314 2.265-1.925 3.405zm7.449 10.426c-1.073-.7-2.232-1.266-3.44-1.675l.208-.62c1.258.425 2.468 1.015 3.588 1.746l-.356.55zm-10.834-3.38l-.6-.256c.136-.322.275-.643.416-.961.388-.88.794-1.764 1.21-2.63l.588.286c-.412.857-.817 1.735-1.201 2.608-.14.317-.277.634-.413.953zm-.19 1.115l-.094-.65c1.34-.197 2.678-.251 3.974-.159l-.045.653c-1.25-.087-2.54-.036-3.835.156zm16.048 7.922c-.525-1.13-1.235-2.197-2.113-3.173l.483-.439c.922 1.025 1.669 2.147 2.222 3.335l-.592.277zm-23.31-5.425l-.312-.575c1.184-.646 2.404-1.188 3.625-1.613l.214.619c-1.188.413-2.375.942-3.527 1.57zm4.43 3.662c.235-1.222.567-2.476 1.016-3.834l.619.205c-.44 1.33-.765 2.559-.994 3.754l-.641-.125zm19.454 9.177c.392-1.257.535-2.52.425-3.751l.65-.059c.118 1.319-.034 2.666-.452 4.006l-.623-.196zm-30.071-8.207l-.455-.469c.564-.55 1.145-1.082 1.728-1.575.41-.348.838-.69 1.27-1.015l.39.525c-.42.316-.838.65-1.238.99-.572.484-1.142 1.004-1.695 1.544zm10.664 6.971c-.14-.545-.245-1.099-.314-1.646-.097-.756-.144-1.539-.14-2.328l.653.002c-.004.76.04 1.516.134 2.242.067.521.167 1.049.299 1.568l-.632.162zm15.279 7.77l-.356-.549c1.044-.683 1.969-1.559 2.75-2.606l.523.393c-.827 1.109-1.81 2.038-2.917 2.761zM52.485 95.94l-.532-.38c.792-1.12 1.6-2.175 2.4-3.135l.5.42c-.79.948-1.585 1.988-2.368 3.095zm19.715 7.837c-.975-.863-1.826-1.91-2.53-3.113l.563-.331c.669 1.141 1.476 2.137 2.398 2.953l-.431.491zm3.465 2.043l.208-.622c.5.168 1.016.289 1.53.36.72.097 1.454.092 2.18-.017l.097.648c-.787.118-1.583.124-2.364.016-.555-.074-1.11-.204-1.651-.385zm-27.352-3.266l-.565-.33c.726-1.254 1.387-2.36 2.024-3.377l.553.349c-.633 1.01-1.291 2.109-2.012 3.358zm-3.747 6.88l-.581-.299c.586-1.148 1.204-2.319 1.838-3.48l.572.315c-.63 1.154-1.245 2.32-1.83 3.463zm-3.353 7.079l-.598-.263c.514-1.18 1.063-2.387 1.63-3.583l.59.281c-.564 1.191-1.11 2.39-1.622 3.565zm-3.488 7.066c.198-.564.402-1.126.61-1.688.25-.67.506-1.338.769-2.004l.607.241c-.261.662-.516 1.327-.764 1.993-.207.557-.41 1.116-.607 1.677l-.615-.22zm-2.31 7.536c.326-1.252.688-2.528 1.076-3.794l.623.194c-.385 1.255-.744 2.523-1.067 3.767l-.632-.167zm-1.608 7.723c.2-1.28.438-2.586.709-3.88l.639.133c-.27 1.285-.506 2.58-.703 3.848l-.645-.1zm-.783 7.852c.055-1.299.149-2.623.28-3.939l.65.067c-.13 1.301-.224 2.613-.277 3.899l-.653-.027zm.16 7.891l-.03-.365c-.092-1.176-.15-2.38-.174-3.578l.653-.013c.023 1.185.08 2.376.172 3.539l.029.362-.65.055zm1.268 7.798c-.307-1.282-.57-2.584-.781-3.876l.644-.105c.208 1.274.468 2.562.772 3.827l-.635.154zm2.409 7.522c-.49-1.214-.942-2.466-1.343-3.717l.622-.2c.396 1.236.842 2.47 1.326 3.67l-.605.247zm3.502 7.08c-.666-1.121-1.301-2.29-1.885-3.473l.584-.292c.578 1.169 1.204 2.324 1.86 3.43l-.56.335zm4.57 6.441c-.837-.991-1.65-2.043-2.418-3.125l.532-.38c.757 1.068 1.559 2.105 2.385 3.08l-.498.425zm5.618 5.549c-1.005-.82-1.992-1.71-2.937-2.645l.459-.467c.929.92 1.902 1.797 2.89 2.604l-.412.508zm6.586 4.346c-1.156-.6-2.302-1.273-3.406-2.002l.36-.547c1.084.716 2.21 1.379 3.345 1.967l-.3.582zm3.897 1.732l-.293-.11.232-.612.289.11c.725.27 1.463.52 2.193.737l-.187.628c-.744-.222-1.496-.475-2.234-.753z"/>
        <path fill="#F59015" d="M145.814 21.913L141.908 27.307 147.251 27.17 147.847 24.398z"/>
        <path fill="#F9DC56" d="M162.236 25.263L143.5 16.217 146.342 25.46z"/>
        <path fill="#FFB023" d="M162.236 25.263L150.284 35.011 146.342 25.46z"/>
        <path fill="#FFC581" d="M242.241 35.63c-7.504-.492-14.449 3.984-17.125 11.035-3.283 8.653-7.223 19.719-7.954 24.785 0 0-17.188 16.823-24.19 23.487l3.723 3.233s23.394-15.263 30.525-21.972c7.129-6.71 15.021-40.568 15.021-40.568"/>
        <path fill="#F6A19E" d="M310.534 282.086L310.877 283.109 308.569 285.528 306.123 284.45 305.22 283.109 304.957 282.052zM228.443 282.049L228.582 283.109 227.467 284.949 224.193 284.639 223.216 284.037 222.924 283.109 222.933 281.763z"/>
        <path fill="#47B27C" d="M259.96 106.396c-.825-.124-1.305-2.154-.994-3.785.468-2.458 2.658-3.769 3.028-3.982.33.667.845 1.98.614 3.618-.293 2.075-1.73 4.286-2.648 4.149"/>
        <path fill="#47B27C" d="M259.863 105.25c.229.805-1.417 2.08-3.026 2.47-2.425.585-4.518-.876-4.865-1.126.471-.576 1.451-1.59 3.033-2.055 2.004-.587 4.604-.186 4.858.71"/>
        <path fill="#47B27C" d="M258.745 104.26c-.506.665-2.51.106-3.784-.954-1.919-1.599-2.006-4.156-2.013-4.584.741.034 2.137.214 3.455 1.208 1.67 1.258 2.905 3.59 2.342 4.33"/>
        <path fill="#57575E" d="M262.627 18.213h.948c2.194 0 3.973-1.784 3.973-3.986v-3.862h-4.92v7.848z"/>
        <path fill="#A29C8F" d="M273.988 95.946s13.899 17.86 37.45 186.14l-7.041-.037-55.478-154.805V95.946h25.07z"/>
        <path fill="#A29C8F" d="M232.091 86.36s-16.774 13.237-16.694 48.78c.036 15.918 7.536 146.622 7.536 146.622l5.51.286c9.771-49.762 16.84-98.669 24.911-149.28 1.156-.166 7.073-.598 8.098-1.808 2.249-2.652.055-7.276.102-9.31.19-8.14.242-26.755-.284-33.616-6.492.54-23.08-1.077-29.179-1.674"/>
        <path fill="#7F786A" d="M222.933 281.763s-7.5-130.704-7.536-146.622c-.08-35.544 16.694-48.78 16.694-48.78 1.415.165 2.86.32 4.324.466l3.947 2.525S228.496 159 228.782 200.646c.158 23.142.14 55.24.091 79.194l-.43 2.209-5.51-.286z"/>
        <path fill="#FFBC3F" d="M229.269 96.55c-2.3-.565-3.888-2.667-3.79-5.04.5-11.988 2.035-25.602 5.419-40.308 1.493-6.486 3.203-12.568 5.03-18.227l21.635-4.802 16.737 6.576c1.217 9.594 2.069 20.439 2.143 32.335.067 10.788-.516 20.713-1.441 29.618-.093.905-.783 1.631-1.68 1.77-5.754.889-12.61 1.492-20.322 1.278-9.183-.253-17.197-1.6-23.731-3.2"/>
        <path fill="#FFAC34" d="M227.336 96.057c-1.17-.308-1.969-1.383-1.929-2.597.41-12.452 1.921-26.748 5.491-42.258 1.492-6.487 2.632-12.67 4.46-18.33 4.623-1.026 9.817-1.95 14.44-2.976 1.512.24 3.697.851 4.912 2.638 1.6 2.354.682 5.517.406 6.535-1.559 5.758-5.74 28.379-11.443 60.031-6.199-.689-11.69-1.818-16.337-3.043"/>
        <path fill="#FFE2B7" d="M264.681 17.578L262.748 33.641 252.437 32.416 254.608 15.59z"/>
        <path fill="#FFC581" d="M254.608 15.59l10.073 1.988-.11.923c-1.057 4.375-5.41 8.431-9.559 7.53-.598-.131-1.153-.358-1.666-.66l1.262-9.781z"/>
        <path fill="#FFE2B7" d="M255.825 5.63c-.372.216-3.207 1.92-4.215 5.261-1.34 4.44.828 10.824 5.339 11.804 4.315.937 8.855-3.49 9.67-8.059.725-4.05-1.326-9.06-4.976-10.138-2.566-.758-5.05.686-5.818 1.132"/>
        <path fill="#57575E" d="M251.65 1.472c-1.063 2.044 3.431 6.138 3.875 6.537 3.833 3.44 10.061 5.614 11.875 3.591 1.333-1.488.106-5.045-1.51-7.153-3.932-5.13-12.99-5.383-14.24-2.975"/>
        <path fill="#FFE2B7" d="M267.854 14.235c.219-1.162-.542-2.283-1.701-2.503-1.16-.22-2.276.544-2.495 1.707-.22 1.162.543 2.283 1.7 2.503 1.16.22 2.277-.544 2.496-1.707"/>
        <path fill="#F26D6D" d="M196.695 98.17l-2.454 2.336c-.23.71-.713 1.891-1.748 3.006-.49.53-2.57 2.77-4.977 2.3-1.695-.33-3.27-1.948-3.003-2.839.09-.298.377-.488.66-.612l7.8-7.424 3.722 3.233z"/>
        <path fill="#FFE2B7" d="M248.41 30.204c3.05-.678 6.102-1.355 9.153-2.031l9.972 3.918c-1.943 1.604-4.65 2.975-7.59 3.283-4.444.469-8.815-1.553-11.535-5.17M284.201 52.884c2.118-2.468 4.272-4.98 6.036-7.635 4.292 3.539 7.947 7.48 9.795 11.59 1.788 3.978.097 8.878-3.3 13.895-4.29.046-9.063-1.065-13.098-2.657 1.417-1.602 2.722-2.922 3.82-3.793 0 0-3.537-2.882-7.73-6.74 1.826-1.7 3.307-3.296 4.477-4.66"/>
        <path fill="#57575E" d="M228.582 283.109s2.726 2.63 0 5.367h-11.79v-5.367h6.133s2.81 1.651 5.657 0"/>
        <path fill="#A29C8F" d="M221.393 288.476h-9.2v-.752c0-2.549 2.06-4.615 4.6-4.615 2.54 0 4.6 2.066 4.6 4.615v.752z"/>
        <mask id="prefix__d" fill="#fff">
            <use xlink:href="#prefix__c"/>
        </mask>
        <path fill="#57575E" d="M211.799 289.335L229.062 289.335 229.062 288.476 211.799 288.476zM305.22 283.109s-2.726 2.63 0 5.367h13.925l-.5-5.367h-7.767s-2.811 1.651-5.657 0M304.74 289.335L323.757 289.335 323.757 288.476 304.74 288.476z" mask="url(#prefix__d)"/>
        <path fill="#A29C8F" d="M318.646 283.109c2.54 0 4.6 2.067 4.6 4.615v.752h-4.6v-5.367z" mask="url(#prefix__d)"/>
        <path fill="#FFAC34" d="M235.358 32.873c-5.655 1.168-10.063 5.623-11.187 11.305l-1.802 9.108 11.612.367 1.377-20.78z" mask="url(#prefix__d)"/>
        <path fill="#F26D6D" d="M190.894 97.033s-2.452.058-2.781.287c-.328.23-1.584 2.338-.86 3.547.724 1.21 1.856-2.198 1.856-2.198l1.785-1.636z" mask="url(#prefix__d)"/>
        <path fill="#FFBC3F" d="M279.724 57.543c-5.459-5.025-12.03-11.707-13.363-15.849-2.355-7.323 2.831-8.821 2.831-8.821s11.154 2.568 21.045 12.375c-1.763 2.657-3.918 5.168-6.036 7.636-1.17 1.365-2.65 2.96-4.477 4.659" mask="url(#prefix__d)"/>
        <path fill="#FFBC3F" d="M290.897 44.94L279.949 58.379 277.993 56.337 289.457 43.472z" mask="url(#prefix__d)"/>
        <path fill="#FFAC34" d="M232.841 52.187L221.595 51.809 221.595 54.147 232.532 54.388zM258.48 36.99c-.325 0-.655-.013-.99-.039-3.784-.293-7.213-2.248-10.19-5.812-.515-.616-.435-1.533.18-2.048.612-.517 1.526-.437 2.041.18 2.451 2.932 5.2 4.54 8.168 4.778 4.863.37 8.854-3.02 8.894-3.055.605-.525 1.52-.46 2.043.144.525.605.464 1.52-.137 2.047-.186.165-4.402 3.804-10.009 3.804M266.35 66.928c-8.42-.336-18.601-1.454-29.876-4.251-7.835-1.945-14.757-4.341-20.69-6.778-6.028 2.19-13.042 4.297-20.952 5.915-11.38 2.328-21.597 3.025-30.024 3.012-1.104 6.805-5.23 36.964 14.25 64.522 11.842 16.756 26.969 24.85 34.708 28.314 7.876-3.14 23.322-10.602 35.844-26.853 20.594-26.73 17.712-57.034 16.889-63.877" mask="url(#prefix__d)"/>
        <path fill="#FFBC3F" d="M257.324 66.293c-6.336-.64-13.35-1.756-20.85-3.616-7.837-1.945-14.757-4.34-20.69-6.778-6.028 2.19-13.042 4.297-20.951 5.915-11.381 2.328-21.599 3.025-30.025 3.012-1.105 6.804-5.228 36.964 14.25 64.522 7.988 11.301 17.469 18.662 25.17 23.32 7.887-3.15 23.3-10.614 35.798-26.836 17.63-22.88 18.055-48.377 17.298-59.54" mask="url(#prefix__d)"/>
        <path fill="#FFE2B7" d="M272.854 93.744c-1.362 1.026-2.563 1.903-3.533 2.6-.16.116-.317.226-.465.333-1.335.95-2.123 1.48-2.123 1.48l-.327-1.876-.654-3.751s6.707-10.301 13.185-18.707l.451-.583c.601-.773 1.2-1.527 1.788-2.253 1.126-1.388 2.22-2.669 3.241-3.779 2.581.438 5.261 1.16 7.98 1.89 1.591.43 3.084.91 4.478 1.42-5.102 7.641-14.226 15.582-21.104 20.982-1.03.807-2.009 1.558-2.917 2.244M263.588 94.414c-4.425.092-5.475.58-5.546 1.038-.1.63 1.548 1.906 3.268 1.51 1.204-.275 2.12-1.296 2.278-2.548" mask="url(#prefix__d)"/>
        <path fill="#FFE2B7" d="M268.915 96.634l-2.182 1.523c-.265.696-.808 1.852-1.9 2.912-.517.503-2.708 2.632-5.088 2.04-1.676-.418-3.165-2.116-2.853-2.99.105-.294.4-.47.689-.579l9.368-8.822 1.966 5.916z" mask="url(#prefix__d)"/>
        <path fill="#FFF4DD" d="M226.386 85.992c1.249-.002 2.261-1.258 2.259-2.805-.002-1.548-1.018-2.802-2.267-2.8l-13.575.02-9.051.011c-1.248.002-2.261 1.259-2.258 2.806.002 1.547 1.017 2.801 2.266 2.8l9.05-.013c2.947-.004 5.438 2.341 6.38 5.597l-15.422.02c-1.249.002-2.261 1.26-2.259 2.806.002 1.547 1.018 2.8 2.267 2.8l15.422-.021c-.933 3.258-3.418 5.609-6.364 5.613l-9.051.013c-.294 0-.588.073-.864.213-.552.287-.994.831-1.224 1.522-.23.684-.229 1.458.003 2.14.113.348.281.656.494.913l18.127 22.39c.444.55 1.024.822 1.603.822.58-.001 1.158-.276 1.601-.82.881-1.094.879-2.871-.005-3.963l-14.265-17.62 3.588-.005c5.467-.007 10.026-4.834 11.067-11.225l2.494-.003c1.248-.002 2.26-1.26 2.258-2.807-.002-1.546-1.017-2.8-2.266-2.8l-2.494.005c-.342-2.084-1.096-3.966-2.098-5.602l4.584-.007z" mask="url(#prefix__d)"/>
        <path fill="#FB0" d="M322.736 180.565c-1.013 0-1.838.827-1.838 1.845 0 1.017.825 1.844 1.838 1.844 1.013 0 1.838-.827 1.838-1.844 0-1.018-.825-1.845-1.838-1.845m0 5.179c-1.833 0-3.323-1.495-3.323-3.334s1.49-3.335 3.323-3.335 3.323 1.496 3.323 3.335-1.49 3.334-3.323 3.334" mask="url(#prefix__d)"/>
        <path fill="#FFA331" d="M298.783 122.109c.33-.104.494-.519.368-.926-.127-.409-.497-.656-.827-.554l-3.583 1.12-2.388.746c-.329.102-.494.518-.367.926.127.409.497.656.826.552l2.388-.745c.778-.243 1.627.171 2.141.953l-4.07 1.272c-.329.103-.494.518-.367.926.127.409.497.655.827.553l4.07-1.271c.02.937-.446 1.76-1.223 2.004l-2.388.746c-.078.025-.15.068-.21.127-.123.12-.196.302-.2.502-.005.2.058.405.175.566.058.082.128.15.205.2l6.611 4.423c.162.108.337.133.49.085.153-.048.283-.169.355-.348.144-.361 0-.83-.324-1.046l-5.202-3.48.947-.295c1.442-.452 2.252-2.1 2.006-3.874l.658-.204c.33-.104.494-.518.368-.927-.127-.408-.497-.656-.827-.552l-.658.206c-.26-.523-.613-.958-1.01-1.308l1.21-.377z" mask="url(#prefix__d)"/>
        <path fill="#7F786A" d="M323.059 112.157c.06-1.168.11-2.336.152-3.504l.012-.332.655.022-.011.333c-.042 1.173-.093 2.344-.153 3.514l-.655-.033zm.31-11.513l.655.004c-.005 1.284-.02 2.566-.044 3.848l-.655-.011c.024-1.28.038-2.56.044-3.841zm-.837 19.171c.11-1.275.21-2.55.298-3.826l.654.043c-.088 1.28-.187 2.56-.3 3.84l-.652-.057zm.764-26.852l.655-.013c.029 1.283.05 2.565.062 3.848l-.655.005c-.012-1.28-.033-2.56-.062-3.84zm-1.583 34.486c.163-1.27.312-2.542.448-3.813l.652.068c-.136 1.276-.286 2.55-.45 3.826l-.65-.081zm-1.144 7.592c.219-1.26.423-2.525.614-3.79l.648.095c-.191 1.27-.396 2.536-.616 3.804l-.646-.109zm-1.49 7.532c.278-1.241.542-2.506.79-3.757l.643.122c-.247 1.257-.514 2.526-.791 3.772l-.641-.137zm-1.848 7.453c.335-1.22.662-2.468.972-3.715l.637.152c-.311 1.252-.64 2.506-.975 3.73l-.634-.167zm-2.231 7.35c.402-1.205.793-2.436 1.164-3.66l.629.184c-.373 1.228-.766 2.465-1.17 3.675l-.623-.2zm-2.631 7.22c.468-1.178.928-2.386 1.367-3.592l.618.216c-.441 1.21-.903 2.425-1.374 3.608l-.611-.232zm-3.052 7.057c.54-1.153 1.072-2.332 1.58-3.506l.604.25c-.511 1.18-1.045 2.366-1.588 3.524l-.596-.268zm-3.493 6.856c.614-1.113 1.22-2.258 1.802-3.402l.587.287c-.585 1.15-1.194 2.3-1.812 3.42l-.577-.305zm-3.947 6.617c.689-1.07 1.372-2.17 2.032-3.276l.566.323c-.663 1.112-1.35 2.22-2.043 3.294l-.555-.341zm-4.41 6.327c.766-1.016 1.528-2.068 2.263-3.124l.542.361c-.74 1.063-1.506 2.121-2.277 3.145l-.528-.382zm-4.878 5.994c.456-.518.907-1.039 1.35-1.566.387-.46.769-.92 1.147-1.384l.514.398c-.381.467-.766.933-1.155 1.395-.447.53-.9 1.054-1.36 1.575l-.496-.418zm-5.361 5.58c.93-.89 1.85-1.81 2.74-2.736l.478.44c-.895.93-1.823 1.857-2.76 2.754l-.458-.459zm-5.817 5.125c1.003-.814 2-1.656 2.962-2.504l.44.477c-.97.854-1.973 1.701-2.983 2.52l-.42-.493zm-6.231 4.633c1.066-.725 2.13-1.483 3.165-2.252l.397.51c-1.041.774-2.113 1.537-3.187 2.268l-.375-.526zm-6.61 4.102c1.122-.631 2.248-1.298 3.35-1.982l.352.541c-1.11.69-2.244 1.36-3.374 1.997l-.328-.556zm-6.948 3.523c1.174-.533 2.356-1.1 3.514-1.686l.303.57c-1.167.59-2.358 1.162-3.541 1.697l-.276-.581zm-7.246 2.889c1.22-.423 2.452-.881 3.657-1.363l.249.594c-1.215.484-2.455.946-3.686 1.373l-.22-.604zm-7.496 2.198c1.255-.303 2.525-.642 3.776-1.01l.189.615c-1.261.37-2.542.711-3.807 1.016l-.158-.621zm-7.683 1.445c1.285-.174 2.584-.383 3.86-.625l.126.629c-1.29.244-2.6.455-3.895.63l-.091-.634zm-7.798.633c1.285-.034 2.6-.105 3.909-.21l.055.637c-1.321.108-2.648.179-3.945.214l-.02-.641zm-7.88.412l.057-.637c1.118.095 2.259.165 3.392.206l.516.016-.017.641-.522-.018c-1.144-.041-2.297-.111-3.425-.208zm-3.553-1.084c.177-1.26.269-2.528.276-3.788l.655.005c-.006 1.287-.101 2.584-.282 3.871l-.65-.088zm-1.296-10.98l.515-.395c.717.893 1.19 2.106 1.449 3.707l-.648.097c-.24-1.489-.67-2.604-1.316-3.408zm-.706 18.31c.485-1.185.899-2.398 1.23-3.607l.634.168c-.338 1.233-.761 2.47-1.255 3.678l-.61-.239zm-2.177-8.037l.284-.577c1.04.491 2.27.891 3.654 1.188l-.14.626c-1.433-.308-2.712-.724-3.798-1.237zm-1.502 14.73c.735-1.044 1.419-2.136 2.03-3.246l.577.304c-.623 1.13-1.318 2.244-2.066 3.306l-.541-.363zm-2.15-24.56c.864-1.276 2.062-2.139 3.287-2.369l.124.63c-1.053.196-2.096.96-2.863 2.093l-.547-.354zm-1.176 3.807l.656-.012c.016.705.182 1.355.493 1.93.257.474.57.923.93 1.333l-.495.417c-.394-.446-.735-.934-1.014-1.45-.36-.667-.552-1.412-.57-2.218zm-1.74 26.52c.944-.867 1.849-1.793 2.69-2.75l.498.416c-.857.976-1.778 1.919-2.738 2.8l-.45-.466zm-6.207 4.57c1.107-.64 2.193-1.352 3.232-2.117l.395.511c-1.057.779-2.164 1.505-3.292 2.158l-.335-.551zm-7.1 3.066c1.23-.363 2.456-.808 3.644-1.323l.267.585c-1.213.525-2.464.982-3.72 1.352l-.19-.614zm-7.65 1.224c1.282-.034 2.583-.155 3.867-.361l.108.632c-1.314.21-2.644.335-3.955.37l-.02-.64z" mask="url(#prefix__d)"/>
        <path fill="#F59015" d="M329.956 100.882L326.203 106.384 324.538 101.288 326.94 99.794z" mask="url(#prefix__d)"/>
        <path fill="#F9DC56" d="M321.298 86.486L336.081 101.157 326.449 101.574z" mask="url(#prefix__d)"/>
        <path fill="#FFB023" d="M321.298 86.486L316.159 101.055 326.449 101.574z" mask="url(#prefix__d)"/>
        <path fill="#57575E" d="M72.661 283.93s-2.726 2.632 0 5.367H84.45v-5.367h-6.13s-2.812 1.652-5.658 0" mask="url(#prefix__d)"/>
        <path fill="#F9E0D2" d="M79.85 289.297h9.2v-2.11c0-1.798-1.455-3.257-3.248-3.257h-2.706c-1.793 0-3.247 1.459-3.247 3.258v2.109zM72.181 290.157L89.443 290.157 89.443 289.297 72.181 289.297z" mask="url(#prefix__d)"/>
        <path fill="#FDC854" d="M59.575 272.72h109.14c3.38 0 6.12 2.75 6.12 6.141v5.118c0 3.392-2.74 6.14-6.12 6.14H59.575c-3.38 0-6.12-2.748-6.12-6.14v-5.118c0-3.391 2.74-6.14 6.12-6.14" mask="url(#prefix__d)"/>
        <path fill="#F89F4F" d="M53.456 286.793c0 1.837 1.484 3.326 3.315 3.326H171.52c1.83 0 3.315-1.489 3.315-3.326v-1.79H53.455v1.79z" mask="url(#prefix__d)"/>
        <path fill="#FDC854" d="M59.575 255.322h109.14c3.38 0 6.12 2.75 6.12 6.14v5.119c0 3.391-2.74 6.14-6.12 6.14H59.575c-3.38 0-6.12-2.749-6.12-6.14v-5.118c0-3.392 2.74-6.141 6.12-6.141" mask="url(#prefix__d)"/>
        <path fill="#F89F4F" d="M53.456 269.395c0 1.837 1.484 3.325 3.315 3.325H171.52c1.83 0 3.315-1.488 3.315-3.325v-1.791H53.455v1.79z" mask="url(#prefix__d)"/>
        <path fill="#FDC854" d="M59.575 237.924h109.14c3.38 0 6.12 2.749 6.12 6.14v5.118c0 3.392-2.74 6.14-6.12 6.14H59.575c-3.38 0-6.12-2.748-6.12-6.14v-5.118c0-3.391 2.74-6.14 6.12-6.14" mask="url(#prefix__d)"/>
        <path fill="#F89F4F" d="M53.456 251.996c0 1.838 1.484 3.326 3.315 3.326H171.52c1.83 0 3.315-1.488 3.315-3.326v-1.79H53.455v1.79z" mask="url(#prefix__d)"/>
        <path fill="#FDC854" d="M52.928 220.525h109.139c3.381 0 6.12 2.75 6.12 6.14v5.119c0 3.391-2.739 6.14-6.12 6.14H52.928c-3.38 0-6.12-2.749-6.12-6.14v-5.118c0-3.392 2.74-6.14 6.12-6.14" mask="url(#prefix__d)"/>
        <path fill="#F89F4F" d="M46.808 234.598c0 1.836 1.484 3.325 3.315 3.325h114.749c1.83 0 3.315-1.489 3.315-3.325v-1.791H46.807v1.79z" mask="url(#prefix__d)"/>
        <path fill="#FDC854" d="M59.575 203.127h109.14c3.38 0 6.12 2.749 6.12 6.14v5.119c0 3.391-2.74 6.14-6.12 6.14H59.575c-3.38 0-6.12-2.75-6.12-6.141v-5.118c0-3.391 2.74-6.14 6.12-6.14" mask="url(#prefix__d)"/>
        <path fill="#F89F4F" d="M53.456 217.2c0 1.836 1.484 3.325 3.315 3.325H171.52c1.83 0 3.315-1.49 3.315-3.325v-1.792H53.455v1.792z" mask="url(#prefix__d)"/>
        <path fill="#FDC854" d="M55.024 185.728h109.14c3.38 0 6.12 2.75 6.12 6.14v5.118c0 3.392-2.74 6.14-6.12 6.14H55.024c-3.38 0-6.12-2.748-6.12-6.14v-5.117c0-3.391 2.74-6.14 6.12-6.14" mask="url(#prefix__d)"/>
        <path fill="#F89F4F" d="M48.904 199.801c0 1.836 1.484 3.325 3.315 3.325h114.75c1.83 0 3.315-1.489 3.315-3.325v-1.791H48.904v1.791z" mask="url(#prefix__d)"/>
        <path fill="#FDC854" d="M52.928 168.33h109.14c3.38 0 6.12 2.75 6.12 6.14v5.118c0 3.391-2.74 6.14-6.12 6.14H52.927c-3.38 0-6.12-2.749-6.12-6.14v-5.117c0-3.392 2.74-6.141 6.12-6.141" mask="url(#prefix__d)"/>
        <path fill="#F89F4F" d="M46.808 182.403c0 1.836 1.484 3.325 3.315 3.325h114.749c1.83 0 3.315-1.49 3.315-3.325v-1.791H46.807v1.79z" mask="url(#prefix__d)"/>
        <path fill="#FDC854" d="M57.388 150.931h109.14c3.38 0 6.12 2.75 6.12 6.141v5.117c0 3.392-2.74 6.141-6.12 6.141H57.388c-3.38 0-6.12-2.75-6.12-6.14v-5.118c0-3.391 2.74-6.14 6.12-6.14" mask="url(#prefix__d)"/>
        <path fill="#F89F4F" d="M51.268 165.003c0 1.837 1.484 3.326 3.315 3.326h114.749c1.83 0 3.315-1.489 3.315-3.326v-1.79H51.267v1.79z" mask="url(#prefix__d)"/>
        <path fill="#FDC854" d="M59.17 133.533h109.14c3.38 0 6.12 2.75 6.12 6.14v5.118c0 3.391-2.74 6.14-6.12 6.14H59.17c-3.38 0-6.12-2.749-6.12-6.14v-5.117c0-3.392 2.74-6.141 6.12-6.141" mask="url(#prefix__d)"/>
        <path fill="#F89F4F" d="M53.05 147.605c0 1.837 1.485 3.326 3.316 3.326h114.748c1.832 0 3.315-1.489 3.315-3.326v-1.79H53.05v1.79z" mask="url(#prefix__d)"/>
        <path fill="#FFAC34" d="M210.199 278.09c23.517-19.236 27.04-53.957 7.869-77.553-19.17-23.596-53.775-27.131-77.291-7.896-23.517 19.235-27.04 53.956-7.87 77.553 19.17 23.595 53.775 27.13 77.292 7.896" mask="url(#prefix__d)"/>
        <path fill="#FFBC3F" d="M202.396 268.485c18.23-14.91 20.962-41.826 6.1-60.119-14.86-18.292-41.686-21.032-59.916-6.122-18.231 14.913-20.962 41.828-6.101 60.12 14.86 18.292 41.687 21.033 59.917 6.121" mask="url(#prefix__d)"/>
        <path fill="#FFA331" d="M192.77 228.379c1.069.649 2.584.104 3.384-1.218.8-1.323.583-2.924-.485-3.573l-11.606-7.067-7.736-4.712c-1.068-.65-2.584-.104-3.384 1.218-.8 1.324-.582 2.923.485 3.574l7.738 4.711c2.518 1.533 3.43 4.836 2.548 8.108l-13.184-8.028c-1.068-.649-2.583-.103-3.383 1.218-.8 1.323-.583 2.924.485 3.573l13.184 8.028c-2.484 2.298-5.826 3.01-8.345 1.476l-7.737-4.71c-.252-.154-.541-.244-.85-.27-.62-.043-1.28.192-1.833.66-.551.465-.95 1.128-1.107 1.832-.083.355-.1.706-.05 1.037l3.88 28.583c.095.7.449 1.237.944 1.538.495.302 1.132.37 1.792.134 1.32-.474 2.239-1.993 2.049-3.388l-3.054-22.493 3.068 1.87c4.673 2.845 11.069 1.1 15.27-3.815l2.132 1.297c1.067.65 2.584.104 3.383-1.218.8-1.322.583-2.923-.485-3.574l-2.131-1.297c.787-1.96 1.119-3.96 1.11-5.88l3.919 2.386z" mask="url(#prefix__d)"/>
    </g>
</svg>
