<svg xmlns="http://www.w3.org/2000/svg" xmlns:xlink="http://www.w3.org/1999/xlink" width="155" height="155" viewBox="0 0 155 155">
    <defs>
        <path id="prefix__c" d="M0.592 0.953L31.492 0.953 31.492 54.563 0.592 54.563z"/>
        <path id="prefix__e" d="M0 0.953L30.901 0.953 30.901 54.563 0 54.563z"/>
        <path id="prefix__g" d="M0.015 0.507L7.477 0.507 7.477 1.095 0.015 1.095z"/>
        <path id="prefix__i" d="M0.747 0.682L40.316 0.682 40.316 84 0.747 84z"/>
        <filter id="prefix__a" width="165.2%" height="165.2%" x="-32.6%" y="-19.6%" filterUnits="objectBoundingBox">
            <feOffset dy="15" in="SourceAlpha" result="shadowOffsetOuter1"/>
            <feGaussianBlur in="shadowOffsetOuter1" result="shadowBlurOuter1" stdDeviation="10"/>
            <feColorMatrix in="shadowBlurOuter1" values="0 0 0 0 1 0 0 0 0 0.699027652 0 0 0 0 0.0927210366 0 0 0 0.15 0"/>
        </filter>
        <circle id="prefix__b" cx="57.5" cy="57.5" r="57.5"/>
    </defs>
    <g fill="none" fill-rule="evenodd" transform="translate(20 5)">
        <use fill="#000" filter="url(#prefix__a)" xlink:href="#prefix__b"/>
        <use fill="#FFF" xlink:href="#prefix__b"/>
        <g>
            <path fill="#FFDB0C" d="M38.015 1.175H16.95c0 8.158-6.615 14.772-14.773 14.772v13.5C7.352 14.043 21.256 2.66 38.015 1.174M81.316 29.446V15.948c-8.16 0-14.773-6.614-14.773-14.773H45.477c16.76 1.486 30.664 12.87 35.839 28.27" transform="translate(16 20)"/>
            <g transform="translate(16 20) translate(52 28.493)">
                <mask id="prefix__d" fill="#fff">
                    <use xlink:href="#prefix__c"/>
                </mask>
                <path fill="#A8B7EF" d="M29.316.953v1.9c0 21.314-11.101 40.745-28.724 51.71.075-.02.153-.034.227-.054v.004l.074-.022c.024-.007.05-.012.074-.018v-.004c2.215-.617 4.354-1.413 6.405-2.37h.014c.045-.021.088-.045.133-.067.075-.036.154-.067.23-.103v-.012c2.605-1.248 5.06-2.756 7.333-4.494v.009c.045-.036.09-.075.136-.111.07-.054.143-.102.213-.156v-.016c2.36-1.844 4.518-3.931 6.43-6.233h.008l.075-.094c.02-.026.044-.051.067-.077v-.007c5.922-7.207 9.482-16.43 9.482-26.484 0-4.653-.773-9.122-2.177-13.301" mask="url(#prefix__d)"/>
            </g>
            <g transform="translate(16 20) translate(0 28.493)">
                <mask id="prefix__f" fill="#fff">
                    <use xlink:href="#prefix__e"/>
                </mask>
                <path fill="#A8B7EF" d="M2.177 2.854v-1.9C.773 5.131 0 9.6 0 14.253 0 24.308 3.559 33.53 9.482 40.736v.008c.02.026.046.051.068.078l.073.092h.007c1.913 2.301 4.07 4.39 6.43 6.233v.016c.07.053.142.101.212.155.047.036.092.077.139.113v-.01c2.272 1.738 4.727 3.246 7.332 4.495v.011l.23.105c.046.02.088.045.133.065h.014c2.05.957 4.19 1.753 6.405 2.37v.004c.024.007.048.011.073.018l.075.022v-.004c.075.021.152.034.228.055C13.278 43.597 2.177 24.166 2.177 2.854" mask="url(#prefix__f)"/>
            </g>
            <g transform="translate(16 20) translate(38 .493)">
                <mask id="prefix__h" fill="#fff">
                    <use xlink:href="#prefix__g"/>
                </mask>
                <path fill="#A8B7EF" d="M7.477.682C6.247.573 5.004.507 3.747.507c-1.26 0-2.502.066-3.732.175h7.462z" mask="url(#prefix__h)"/>
            </g>
            <path fill="#FFDB0C" d="M81.316 31.347v-1.901C76.14 14.044 62.236 2.66 45.477 1.175h-7.463C21.255 2.66 7.352 14.044 2.176 29.445v1.902c0 21.312 11.101 40.743 28.724 51.709 3.46.929 7.093 1.437 10.846 1.437.116 0 .232-.003.35-.004v-.008c3.628-.03 7.145-.526 10.496-1.425 17.623-10.966 28.724-30.397 28.724-51.71" transform="translate(16 20)"/>
            <path fill="#FBBF00" d="M81.316 29.446V15.948c-8.16 0-14.773-6.614-14.773-14.773H45.477c16.76 1.486 30.664 12.87 35.839 28.27" transform="translate(16 20)"/>
            <g transform="translate(16 20) translate(41 .493)">
                <mask id="prefix__j" fill="#fff">
                    <use xlink:href="#prefix__i"/>
                </mask>
                <path fill="#FBBF00" d="M40.316 30.854v-1.9C35.14 13.55 21.236 2.166 4.477.681H.747V84c.116 0 .233-.003.348-.004v-.008c3.628-.03 7.146-.526 10.497-1.425 17.623-10.966 28.724-30.397 28.724-51.709" mask="url(#prefix__j)"/>
            </g>
            <path fill="#FFF" d="M39.21 54.735c-.691 0-1.354-.28-1.834-.775l-8.31-8.561c-.992-1.003-.985-2.622.02-3.614 1.003-.993 2.622-.986 3.614.018l.035.036 6.41 6.603 11.593-12.793c.964-1.032 2.581-1.088 3.614-.125 1.012.943 1.09 2.52.177 3.558L41.106 53.897c-.475.525-1.146.827-1.855.838h-.043z" transform="translate(16 20)"/>
        </g>
    </g>
</svg>
