<svg xmlns="http://www.w3.org/2000/svg" xmlns:xlink="http://www.w3.org/1999/xlink" width="264" height="297" viewBox="0 0 264 297"><defs/><defs><path id="a" d="M0 .7h249.8v12.8H0z"/><path id="c" d="M.6.2h131.2V216H.6z"/><path id="e" d="M73.3.9c-12.7.6-24.3 7-34 14.5A117.4 117.4 0 0014.5 42 66.2 66.2 0 001 73.7a34.1 34.1 0 005.8 22C9 99 127.2 4.2 127.2 4.2 119.8 3.5 105.6.6 84.5.6c-3.5 0-7.3 0-11.2.3"/><path id="g" d="M.4 5a4.2 4.2 0 108.4 0A4.2 4.2 0 00.4 5"/><path id="j" d="M.4 3.4a3 3 0 105.8 0 3 3 0 00-5.8 0"/><linearGradient id="h" x1="0%" x2="100%" y1="50%" y2="50%"><stop offset="0%" stop-color="#FFB218"/><stop offset="100%" stop-color="#FFCF44"/></linearGradient><linearGradient id="k" x1="0%" x2="100%" y1="50%" y2="50%"><stop offset="0%" stop-color="#FFB218"/><stop offset="100%" stop-color="#FFCF44"/></linearGradient></defs><g fill="none" fill-rule="evenodd"><g transform="translate(0 283.4)"><mask id="b" fill="#fff"><use xlink:href="#a"/></mask><path fill="#F7E8C8" d="M0 7C0 3.7 56 .8 125 .8s124.8 2.9 124.8 6.4c0 3.5-55.9 6.4-124.9 6.4S0 10.6 0 7" mask="url(#b)"/></g><g transform="translate(131.4 .9)"><mask id="d" fill="#fff"><use xlink:href="#c"/></mask><path fill="#619440" d="M18.9 215.8c42.7 4.2 83.4-94 99-133.5C128.2 56.3 130 28 131.8.2c-44.6 15-98.5 49.4-120 90.8-3.5 6.9-6 17.8-7.4 25.4-3 15.9-4.7 67.5-3.3 83.6.5 5-1.3 14 17.8 15.8" mask="url(#d)"/></g><path fill="#306B34" d="M258 8.1c-1-.8-2.3-.7-3.1.2-9.8 11-19 22.1-27.7 33.3A51 51 0 01224 24c0-.8-.7-1.4-1.5-1.4s-1.4.6-1.4 1.4a55 55 0 004 20.3 564.7 564.7 0 00-19.4 27c-.3-3.4-1-6.9-1.5-10.3l-1.7-9.2-1.7-9.1c-.1-.8-.9-1.3-1.6-1.2-.8.1-1.4.9-1.2 1.6.6 3.9 1.2 6.6 1.7 9.3l1.6 9c.8 4.6 1.6 9.2 1.8 13.9-7.5 11.4-14.6 23-21.4 35.1L175 88.5c-1-3.4-2.2-7-2.3-10.6 0-.8-.7-1.4-1.5-1.4s-1.4.7-1.4 1.5c.1 2.2.5 4.3 1 6.4l1.4 5 7.5 24.5c-8.2 14.8-16 30.3-23.4 46.6-.2.5-.2 1-.1 1.4.2.6.6 1.1 1.2 1.4 1.1.5 2.4 0 2.9-1 3.4-7.5 6.8-14.7 10.3-21.8 7.8-1 13.7-2 19.5-3 5.8-1 11.7-2.1 19.4-3.1.7-.1 1.3-.9 1.2-1.6-.1-.8-.8-1.4-1.6-1.3-7.7 1-13.7 2.1-19.5 3.1-5.3 1-10.7 2-17.4 2.8 4.5-9 9.2-17.7 14-26.2a4617.4 4617.4 0 0051.6-11.1c.8-.2 1.3-1 1.1-1.7-.2-.8-.9-1.3-1.7-1.1l-26.2 5.6-23 5c5.7-9.8 11.5-19.3 17.6-28.5v-.1h1a251 251 0 0143.8-9.4 1.4 1.4 0 10-.4-2.8c-15.6 2-27.3 4.5-42.1 8.8 5.6-8.4 11.4-16.6 17.5-24.7a62.5 62.5 0 0129.4-5.8c.8 0 1.4-.6 1.4-1.4 0-.8-.6-1.4-1.4-1.4-11.1 0-17.6 1-26 4.1 9.1-12 18.9-23.8 29.3-35.6.8-.9.7-2.2-.2-3"/><path fill="#FFDE8E" d="M227.6 185.1c-5.6 37.9-37.4 83.4-74.2 98.4-11.8 4.7-26 7.5-37.3 1.3-10.7-5.9-15.7-18.6-14.7-30.2 1-11.5 6.8-22 13.5-31.6 7-10 15-19.3 24.7-26.7a62.9 62.9 0 0134-14.5c27.4-1.3 45.3 2.5 54 3.3"/><g transform="translate(100.4 181)"><mask id="f" fill="#fff"><use xlink:href="#e"/></mask><path fill="#FFBF4D" d="M73.3.9c-12.7.6-24.3 7-34 14.5A117.4 117.4 0 0014.5 42 66.2 66.2 0 001 73.7a34.1 34.1 0 005.8 22C9 99 127.2 4.2 127.2 4.2 119.8 3.5 105.6.6 84.5.6c-3.5 0-7.3 0-11.2.3" mask="url(#f)"/></g><path fill="#306B34" d="M258 247a6.3 6.3 0 11-12.6 0 6.3 6.3 0 0112.7 0"/><g transform="translate(232.8 233.7)"><mask id="i" fill="#fff"><use xlink:href="#g"/></mask><path fill="url(#h)" d="M.4 5a4.2 4.2 0 108.4 0A4.2 4.2 0 00.4 5" mask="url(#i)"/></g><g transform="translate(244.2 227.5)"><mask id="l" fill="#fff"><use xlink:href="#j"/></mask><path fill="url(#k)" d="M.4 3.4a3 3 0 105.8 0 3 3 0 00-5.8 0" mask="url(#l)"/></g><g><path fill="#FCBD30" d="M99.2 37.2c3.4-5.8 5.8-8.8 13.7-8.7l3.3.3c7.9.7 13.4 6.6 14.2 12.9.8 6.2 4.2 6.2 7.1 10.9 3 4.7 3.4 16.3 3.4 16.3l-41.6 2s-6.3-23.2-.1-33.7"/><path fill="#FFE2B7" d="M99.3 71a70.1 70.1 0 01-3.2-13.5c-.6-4.6-.9-9.3 0-14 .3-2.3 1.1-4.7 2.3-6.8 1.2-2 2.4-4 4.3-5.7 1.8-1.6 4.2-2.6 6.6-2.7 2.4-.3 4.7 0 7 .5h-3.5c-1.1 0-2.3.2-3.4.4a10 10 0 00-5.6 3 28 28 0 00-3.8 5.4c-1 2-1.7 4-2 6.2a58 58 0 00-.4 13.5c.2 2.3.4 4.6.8 6.8.2 2.3.6 4.6 1 6.9"/><path fill="#E7E1D3" d="M60.9 140.4c8.6 1.8 17.5-4.5 22.9-15 6-11.7 11.7-22.7 2.9-29.6 0 0-14.2 13.9-18 18.4l-15 18.5s2.2 6.6 7.2 7.7"/><path fill="#D0BDFF" d="M91 107.1L75.4 111s5.6-23.7 6.2-30c.8-8.4 5.4-18.6 15.4-21l-.5 4.9L91 107z"/><path fill="#FFE2B7" d="M48.5 286.3l2.8-6.2 2-7 4.6.5-3.7 6.2s-3.2 7-3.3 7l-2.4-.5"/><path fill="#7F786A" d="M54 279.9s2.2.9 2 3.8c0 2.8-.2 5-.2 5l-1 .1-.7-3.4s-1 1-1.8 3.3c-.4 1-6.1 1.8-6.1 1.8s-1.4-1 .6-2.4c.5-.4 1.8-2 1.8-2s1 1 2.3-.3c.5-.5 1.4-2 2-3.2.8-1.5 1.2-2.7 1.2-2.7"/><path fill="#FFE2B7" d="M113 283.8s3.3-3.7 3.8-5.7l-.7-5.6 3.8 1.8s-.4 2.8-.4 3.8l.4 1.6-4.6 5-2.3-1"/><path fill="#7F786A" d="M119.6 278.4s1.9 1.3 1.3 4l-.8 4.6h-1l-.4-3.1s-1.1.8-2.4 2.9c-.5 1-6.3.3-6.3.3s-1.2-1 1-2.2l2.1-1.3s1 1.2 2.3.1c.6-.4 1.8-1.7 2.6-2.8l1.6-2.5"/><path fill="#A29C8F" d="M105.7 113c3.7 4.8 5.5 35.7 5.5 35.7l-19.7 51.4L60 275.4l-8-.7s9-62.9 12-79.4c7.6-41.4 17.8-74.7 25.7-87.4 3.5 1.8 6 5.4 16 5"/><path fill="#7F786A" d="M123.7 105.5c7.1 8.5 14.5 14 17.2 42.7C143.1 171.3 121 276 121 276l-8.3.2-10-132.1-3.5-30.1 24.5-8.5"/><path fill="#E1DCFF" d="M99.1 99.3a1.6 1.6 0 103.2.1 1.6 1.6 0 00-3.2 0"/><path fill="#F5EFE4" d="M88.2 107s4.2 2.2 17.6 2.7c12.2.5 19.2-3.8 19.2-3.8l1.8-24.7c.7-7.6 4.6-19.5-9.6-20.9 0 0-15.5-.8-19.6-.4-8.6.7-10.3 11-10.8 19.6-.5 8.4 1.4 27.5 1.4 27.5"/><path fill="#A29C8F" d="M124.8 105s-24 5.2-36.7 1l-.2 4.9s8.2 3 18.4 2.7c6.6-.1 14.3-2.2 20.3-5l-1.8-3.6z"/><path fill="#FCC23F" d="M104.5 111c0-1.5-1.1-2.7-2.5-2.8l-5.8-.1.2 4.6c1.1.5 3 .8 5.4.8.7 0 1.4-.2 1.9-.7.5-.5.8-1.2.8-1.9m-2.7 3.5c-2.8 0-4.8-.4-6-1a.5.5 0 01-.3-.3l-.2-5.5.1-.3.3-.1 6.3.1c2 .1 3.5 1.7 3.4 3.6 0 1-.4 1.9-1 2.6a3.5 3.5 0 01-2.6 1"/><path fill="#FCC23F" d="M102 111.6l1.3-.1c.2 0 .4-.3.3-.5 0-.3-.3-.4-.5-.4 0 0-2 .4-4.9-.2-.2 0-.5 0-.5.3s0 .5.3.6c1.7.3 3.1.4 4 .3"/><path fill="#FFF2DC" d="M100.2 129.4L5 130.6l-1.4-99L99 30.2z"/><path fill="#FFF0D2" d="M5.1 32.9l1.3 96.4 92.4-1.3-1.3-96.4L5.1 33zm0 99.1c-.8 0-1.4-.6-1.4-1.3L2.4 31.5c0-.3.1-.7.4-1s.6-.3 1-.3l95-1.3c.4 0 .7.1 1 .4.3.2.4.6.4 1l1.3 99c0 .8-.6 1.4-1.3 1.4L5 132z"/><path fill="#F5EFE4" d="M138.5 105.5s7 3.2 8.6-1c2.4-6 1-13-8-27.4-6.5-10.6-14-17.7-23.5-16.2l23 44.6z"/><path fill="#FFE2B7" d="M107.8 62.4h-.2c-1.1.1-2-.6-2.1-1.7l-.7-8.2c0-1 .7-2 1.8-2l.2-.1c1-.1 2 .7 2 1.7l.8 8.3c0 1-.7 2-1.8 2"/><path fill="#FFC581" d="M105 54c-.2-1.9.6-3.5 1.7-3.6 1.1 0 2.1 1.4 2.3 3.3l.4 4.3c0 1.1-1.4 1.9-2.7.3-.9-1-1.7-2.3-1.7-2.3v-2z"/><path fill="#FFE2B7" d="M115.9 42.9c-.5-.2-1.6.3-1.6.3 0-3.8-3-6.9-6.7-7-3.8 0-6.3 3-6.3 6.8 0 0-.2 5.6 0 6.3.6 4.6 2.5 6 6 6 3.4.1 6.3-2.4 6.8-5.8.7-.1 1.6-1.3 2-3 .6-1.7.5-3.4-.2-3.6"/><path fill="#FFE2B7" d="M107.8 36.3s-1.5 0-2.6.4c-2.5 1-3.9 3.3-4 6.3v6.3c.5 3 1.5 4.7 3 5.5 1.1.5 3.2.6 3.2.6s-1.6-2.4-1.6-10c0-4.5 2-9.1 2-9.1"/><path fill="#FCBD30" d="M117.3 45.1c0 .5-13.3-2.8-13.2-8.3 0-5.6 13.8 2.4 13.2 8.3"/><path fill="#FFE2B7" d="M112.8 50a2.2 2.2 0 104.3-.3 2.2 2.2 0 00-4.3.3"/><path fill="#E7E1D3" d="M105.3 59.2s0 1.1.6 1.8l1.5 1-2 3.2s-1.3-1.3-1.6-1.9c-1.1-2-.7-3.5-.7-3.5l2.2-.6z"/><path fill="#E7E1D3" d="M106.7 61.8l1.9 3.5s2.8-2.9 3-4.5l-2.2-2s-.6 2.5-2.7 3"/><path fill="#FFE2B7" d="M57.3 133.8c.6.3 1.1 1 .7 1.6-.5.8-3.5.7-3.5.7l-.1-2.4s2-.4 3 0"/><path fill="#FFE2B7" d="M51.8 131.3s-2.1.6-2.5 1.2c-.4.4-.4 2.1-.4 2.1s3.5 1.2 4.7 1.4c.9.2 1.7.1 2.2-.7.3-.5.2-1.2-.4-1.6l-3.6-2.4z"/><path fill="#FFE2B7" d="M49.4 129c.6-.2 1.3 0 1.6.6l1.3 2.6-1 .5-1.9-3.6z"/><path fill="#FFE2B7" d="M47.6 129c.5-.4 1.3-.2 1.7.4l1.8 2.9-1 .6-2.5-4z"/><path fill="#FFE2B7" d="M47 129.7c.5-.4 1.2-.1 1.6.5l1.8 2.8-1 .6-2.5-4z"/><path fill="#FFE2B7" d="M46.3 131.2c.5-.4 1.3-.3 1.7.3l2 2.6-1 .5-2.7-3.4zm52.5-58.6s1-1.8 1.7-2c.5-.2 2.2.2 2.2.2s1.7 4.3 1.2 5.5c-.2.5-1.4 1-2.3 1.3-.6.2-1.3-.2-1.5-.8l-1.3-4.2z"/><path fill="#FFE2B7" d="M98 70.4c-.4.4-.4 1.2.1 1.6l2.2 2 .8-1-3-2.6z"/><path fill="#FFE2B7" d="M97.6 69.6c-.3.6-.1 1.3.5 1.7L101 73l.6-1-4-2.5z"/><path fill="#FFE2B7" d="M98.2 68.6c-.4.5-.2 1.2.3 1.7l2.8 2 .6-1-3.7-2.7z"/><path fill="#FFE2B7" d="M100.2 66.4c-.6.3-.7 1.2-.2 2l2 3.6.6-1.3-2.4-4.3zm2.9 9.4l-2.7 1 3.2 4 2.2-2z"/><path fill="#E7E1D3" d="M100.4 85c2.1 11 13.8 17 22 20.2 9.2 3.6 20.2 7.2 24.5-.4 0 0-10.8-10.8-14.5-13.2-7.3-5-26.9-15-26.9-15s-5.9 4.5-5.1 8.4"/><path fill="#FCBD30" d="M22.7 59.2l.7-.1c.3 0 .5-.2.7-.4l.4-.7.1-1.1v-1.1L24 55c-.1-.2-.4-.4-.7-.5l-1-.2H21v5h1.6zm0-6.3c.6 0 1 0 1.5.2A3 3 0 0126 55l.2 1.7c0 .6 0 1-.2 1.6a3 3 0 01-1.7 2c-.4.2-1 .4-1.6.4h-3.3v-7.8h3.3zm6.6 4.8c0 .3.2.6.3.8a1.9 1.9 0 001.7.8c.4 0 .7 0 1-.2l.6-.6.4-.8a4 4 0 00-.4-2.8 1.9 1.9 0 00-1.7-.8 1.8 1.8 0 00-1.6.8c-.2.2-.3.5-.4.9a4.3 4.3 0 000 1.9m-1.5-2.6c.1-.5.4-.9.7-1.3l1.2-.9a4 4 0 011.6-.3 4 4 0 011.6.3c.5.2 1 .5 1.2.9.4.4.6.8.8 1.3a4.7 4.7 0 010 3.2c-.1.5-.4 1-.7 1.3a4 4 0 01-2.8 1.2 4 4 0 01-1.6-.3c-.5-.2-1-.5-1.2-.9-.4-.3-.6-.8-.8-1.3-.2-.4-.3-1-.3-1.5 0-.6.1-1.2.3-1.7m13.7-.3A1.8 1.8 0 0040 54a2 2 0 00-1 .2l-.6.6-.4.9a4.3 4.3 0 000 2l.4.8a1.9 1.9 0 001.7.8c.5 0 1-.2 1.2-.5.3-.3.5-.8.5-1.3h1.7c0 .5-.2 1-.3 1.3l-.8 1a3 3 0 01-1 .7l-1.3.2a4 4 0 01-1.6-.3c-.5-.2-1-.5-1.2-.8-.4-.4-.6-.8-.8-1.3a4.9 4.9 0 010-3.2 3.4 3.4 0 012-2.2 4 4 0 011.5-.4l1.2.2c.4.1.8.3 1 .6a3 3 0 011.2 2h-1.7c0-.2 0-.3-.2-.5m9.1 5c-.6.6-1.4.8-2.4.8s-1.9-.2-2.5-.7c-.6-.5-.8-1.3-.9-2.4v-4.8h1.7v4.8l.1.6.2.6.5.4.9.1c.6 0 1-.1 1.2-.4.3-.3.4-.7.4-1.3v-4.8h1.6v4.8c0 1-.2 1.8-.8 2.3m5-7.2l1.8 5.4 1.7-5.4h2.4v7.7H60v-5.5l-2 5.6h-1.3l-2-5.5.1 5.5h-1.6v-7.8zm13.5-.1v1.4h-4.1v1.7h3.8V57h-3.8v2h4.2v1.4h-5.9v-7.8zm3.1 0l3.3 5.2v-5.3H77v7.8h-1.6L72 55v5.3h-1.6v-7.8zm6 1.4v-1.5h6.4v1.4h-2.3v6.4h-1.7v-6.4zm1.8 24l-56 .7-.1-3.4 56-.6zm.2 13.7l-56.1.6v-3.4l56-.6zm-20.9 13.9l-35.1.3v-3.3l35-.4z"/></g></g></svg>