<svg xmlns="http://www.w3.org/2000/svg" xmlns:xlink="http://www.w3.org/1999/xlink" width="264" height="297" viewBox="0 0 264 297">
    <defs>
        <path id="prefix__a" d="M0 0.711L249.85 0.711 249.85 13.453 0 13.453z"/>
        <path id="prefix__c" d="M0.612 0.177L131.784 0.177 131.784 215.973 0.612 215.973z"/>
        <path id="prefix__e" d="M73.252.877c-12.658.6-24.209 7.05-33.997 14.478-9.79 7.426-17.798 16.763-24.737 26.674C7.82 51.591 1.928 62.134.98 73.69.359 81.282 2.31 89.392 6.76 95.73 9.083 99.04 127.184 4.216 127.184 4.216c-7.408-.75-21.559-3.61-42.635-3.609-3.566 0-7.333.082-11.297.27"/>
        <path id="prefix__g" d="M.418 5.088c0 2.306 1.869 4.175 4.176 4.175 2.305 0 4.174-1.869 4.174-4.175C8.768 2.783 6.9.914 4.594.914 2.287.914.418 2.783.418 5.088"/>
        <path id="prefix__j" d="M.409 3.377c0 1.614 1.308 2.921 2.922 2.921 1.615 0 2.923-1.307 2.923-2.921C6.254 1.762 4.946.454 3.33.454 1.717.454.41 1.762.41 3.377"/>
        <linearGradient id="prefix__h" x1=".003%" x2="99.999%" y1="49.997%" y2="49.997%">
            <stop offset="0%" stop-color="#FFB218"/>
            <stop offset="100%" stop-color="#FFCF44"/>
        </linearGradient>
        <linearGradient id="prefix__k" x1="-.003%" x2="99.998%" y1="50.005%" y2="50.005%">
            <stop offset="0%" stop-color="#FFB218"/>
            <stop offset="100%" stop-color="#FFCF44"/>
        </linearGradient>
    </defs>
    <g fill="none" fill-rule="evenodd">
        <g>
            <g transform="translate(0 .858) translate(0 282.512)">
                <mask id="prefix__b" fill="#fff">
                    <use xlink:href="#prefix__a"/>
                </mask>
                <path fill="#F7E8C8" d="M0 7.082C0 3.564 55.931.712 124.925.712c68.995 0 124.925 2.852 124.925 6.37 0 3.518-55.93 6.371-124.925 6.371C55.931 13.453 0 10.6 0 7.082" mask="url(#prefix__b)"/>
            </g>
            <g transform="translate(0 .858) translate(131.425)">
                <mask id="prefix__d" fill="#fff">
                    <use xlink:href="#prefix__c"/>
                </mask>
                <path fill="#619440" d="M18.893 215.847c42.674 4.12 83.398-94.113 99.003-133.578C128.16 56.314 130.028 27.984 131.785.177 87.202 15.157 33.327 49.62 11.86 91.012c-3.564 6.873-6.058 17.772-7.491 25.363-3.002 15.894-4.678 67.497-3.228 83.614.454 5.045-1.38 14.011 17.752 15.858" mask="url(#prefix__d)"/>
            </g>
            <path fill="#306B34" d="M257.924 7.258c-.898-.777-2.264-.688-3.05.197-9.798 11.035-18.97 22.084-27.63 33.294-2.213-6.119-3.124-11.171-3.246-17.635-.022-.783-.674-1.41-1.47-1.395-.794.015-1.427.663-1.415 1.45.09 4.516.561 8.46 1.564 12.503.619 2.497 1.442 5.032 2.5 7.766-6.79 8.895-13.258 17.902-19.452 27.093-.355-3.517-.955-6.987-1.544-10.39-.661-3.808-1.168-6.483-1.675-9.149-.51-2.684-1.02-5.36-1.682-9.195-.132-.78-.88-1.295-1.665-1.162-.784.132-1.312.867-1.178 1.642.666 3.853 1.18 6.542 1.69 9.24.505 2.655 1.011 5.314 1.667 9.106.784 4.52 1.588 9.167 1.782 13.8-7.527 11.376-14.65 23.048-21.46 35.151l-6.69-21.905c-1.052-3.45-2.147-7.023-2.257-10.634-.036-.772-.69-1.402-1.484-1.379-.797.024-1.423.68-1.4 1.465.068 2.21.45 4.35.968 6.435.416 1.677.92 3.32 1.417 4.937l7.503 24.572c-8.19 14.789-15.936 30.229-23.387 46.581-.207.45-.24.935-.13 1.382.154.617.581 1.16 1.212 1.44 1.091.483 2.37.004 2.859-1.073 3.386-7.43 6.837-14.662 10.358-21.74h.008c7.72-1.016 13.693-2.066 19.471-3.081 5.749-1.012 11.69-2.056 19.35-3.064.788-.104 1.344-.82 1.237-1.598-.102-.765-.827-1.327-1.618-1.224-7.721 1.019-13.694 2.068-19.473 3.084-5.255.923-10.689 1.875-17.433 2.803 4.537-8.997 9.196-17.739 14.018-26.256 9.293-1.966 17.345-3.713 25.393-5.461 8.297-1.802 16.593-3.602 26.256-5.641.776-.166 1.273-.92 1.109-1.69-.274-.762-.933-1.259-1.712-1.094-9.669 2.04-17.97 3.843-26.273 5.646-7.313 1.589-14.628 3.175-22.878 4.927 5.602-9.747 11.422-19.22 17.506-28.488.034-.032.06-.07.092-.105.279.098.59.114.896.023 15.738-4.726 27.617-7.26 43.826-9.354.79-.101 1.346-.816 1.242-1.596-.119-.796-.83-1.327-1.616-1.226-15.644 2.02-27.3 4.449-42.169 8.824 5.603-8.399 11.428-16.64 17.518-24.778 11.312-4.866 17.614-5.746 29.396-5.756.796 0 1.441-.638 1.44-1.425.002-.785-.645-1.42-1.44-1.422-11.106.01-17.59.957-26.036 4.158 9.166-12.003 18.918-23.805 29.384-35.591.792-.884.7-2.233-.2-3.012" transform="translate(0 .858)"/>
            <path fill="#FFDE8E" d="M227.563 184.278c-5.54 37.836-37.388 83.364-74.19 98.324-11.756 4.778-25.937 7.55-37.23 1.345-10.714-5.884-15.729-18.638-14.782-30.194.947-11.556 6.84-22.1 13.536-31.661 6.94-9.911 14.948-19.249 24.738-26.675 9.788-7.427 21.34-13.877 33.997-14.478 27.389-1.298 45.27 2.464 53.931 3.34" transform="translate(0 .858)"/>
        </g>
        <g transform="translate(100.38 180.92)">
            <mask id="prefix__f" fill="#fff">
                <use xlink:href="#prefix__e"/>
            </mask>
            <path fill="#FFBF4D" d="M73.252.877c-12.658.6-24.209 7.05-33.997 14.478-9.79 7.426-17.798 16.763-24.737 26.674C7.82 51.591 1.928 62.134.98 73.69.359 81.282 2.31 89.392 6.76 95.73 9.083 99.04 127.184 4.216 127.184 4.216c-7.408-.75-21.559-3.61-42.635-3.609-3.566 0-7.333.082-11.297.27" mask="url(#prefix__f)"/>
        </g>
        <path fill="#306B34" d="M258.055 246.957c0 3.494-2.833 6.326-6.326 6.326-3.494 0-6.325-2.832-6.325-6.326 0-3.494 2.83-6.325 6.325-6.325 3.493 0 6.326 2.831 6.326 6.325"/>
        <g transform="translate(232.84 233.698)">
            <mask id="prefix__i" fill="#fff">
                <use xlink:href="#prefix__g"/>
            </mask>
            <path fill="url(#prefix__h)" d="M.418 5.088c0 2.306 1.869 4.175 4.176 4.175 2.305 0 4.174-1.869 4.174-4.175C8.768 2.783 6.9.914 4.594.914 2.287.914.418 2.783.418 5.088" mask="url(#prefix__i)"/>
        </g>
        <g transform="translate(244.223 227.489)">
            <mask id="prefix__l" fill="#fff">
                <use xlink:href="#prefix__j"/>
            </mask>
            <path fill="url(#prefix__k)" d="M.409 3.377c0 1.614 1.308 2.921 2.922 2.921 1.615 0 2.923-1.307 2.923-2.921C6.254 1.762 4.946.454 3.33.454 1.717.454.41 1.762.41 3.377" mask="url(#prefix__l)"/>
        </g>
        <g>
            <path fill="#FCBD30" d="M97.12 9.425c3.392-5.775 5.766-8.781 13.682-8.648 1.025.017 2.142.088 3.367.211 7.827.788 13.39 6.676 14.174 12.908.785 6.232 4.145 6.209 7.097 10.917 2.95 4.71 3.354 16.36 3.354 16.36l-41.53 2.03s-6.327-23.252-.145-33.778" transform="translate(2.07 27.764)"/>
            <path fill="#FFE2B7" d="M97.264 43.203c-1.533-4.356-2.566-8.88-3.216-13.475-.625-4.592-.884-9.3-.092-13.997.394-2.342 1.17-4.66 2.355-6.811 1.234-1.947 2.45-4.015 4.306-5.65 1.816-1.679 4.258-2.593 6.604-2.781 2.37-.207 4.677.121 6.948.499-1.157.038-2.304.05-3.444.057-1.137.08-2.273.168-3.362.42-2.204.384-4.216 1.342-5.676 2.924-1.468 1.57-2.62 3.51-3.733 5.497-.976 1.909-1.681 3.99-2.016 6.192-.793 4.378-.611 8.955-.358 13.488.15 2.275.388 4.548.703 6.814.245 2.281.624 4.543.981 6.823" transform="translate(2.07 27.764)"/>
            <path fill="#E7E1D3" d="M58.828 112.613c8.584 1.84 17.482-4.525 22.895-14.986 6.042-11.674 11.67-22.722 2.867-29.597 0 0-14.157 13.862-17.87 18.438-7.441 9.169-15.025 18.502-15.025 18.502s2.096 6.563 7.133 7.643" transform="translate(2.07 27.764)"/>
            <path fill="#D0BDFF" d="M88.883 79.34L73.368 83.19s5.524-23.632 6.144-30.022c.803-8.3 5.39-18.578 15.402-20.978l-.465 4.902-5.566 42.247z" transform="translate(2.07 27.764)"/>
            <path fill="#FFE2B7" d="M46.441 258.5s1.919-4.226 2.753-6.2c.137-.323 2.016-7.019 2.016-7.019l4.617.595-3.746 6.203s-3.104 6.978-3.262 7.012c-.157.034-2.378-.59-2.378-.59" transform="translate(2.07 27.764)"/>
            <path fill="#7F786A" d="M52.011 252.107s2.087.914 2.003 3.79c-.086 2.875-.287 4.947-.287 4.947l-1.047.226-.617-3.407s-.957.936-1.823 3.258c-.39 1.044-6.115 1.767-6.115 1.767s-1.36-.878.636-2.355c.495-.366 1.779-1.975 1.779-1.975s1.077 1.005 2.253-.277c.527-.573 1.446-2.042 2.06-3.256.755-1.497 1.158-2.718 1.158-2.718" transform="translate(2.07 27.764)"/>
            <path fill="#FFE2B7" d="M110.942 255.997s3.302-3.685 3.772-5.639c.082-.34-.66-5.61-.66-5.61l3.812 1.814s-.48 2.821-.433 3.77c.02.418.355 1.64.355 1.64s-4.442 5.006-4.603 5.012c-.162.007-2.243-.987-2.243-.987" transform="translate(2.07 27.764)"/>
            <path fill="#7F786A" d="M117.523 250.649s1.9 1.257 1.325 4.075c-.575 2.82-.77 4.462-.77 4.462l-1.072.044-.382-3.098s-1.103.759-2.353 2.898c-.563.962-6.34.336-6.34.336s-1.19-1.098 1.03-2.212c.55-.275 2.102-1.281 2.102-1.281s.891 1.175 2.269.112c.616-.475 1.772-1.765 2.585-2.857 1-1.345 1.606-2.48 1.606-2.48" transform="translate(2.07 27.764)"/>
            <path fill="#A29C8F" d="M103.588 85.172c3.752 4.83 5.498 35.786 5.498 35.786l-19.688 51.385-31.461 75.339-7.922-.752s8.974-62.879 11.974-79.423c7.502-41.368 17.736-74.662 25.608-87.349 3.524 1.748 5.966 5.377 15.99 5.014" transform="translate(2.07 27.764)"/>
            <path fill="#7F786A" d="M121.679 77.724c7.07 8.478 14.428 13.929 17.166 42.717 2.2 23.144-19.919 127.756-19.919 127.756l-8.271.281-9.996-132.187-3.538-30.06s21.715-7.428 24.558-8.507" transform="translate(2.07 27.764)"/>
            <path fill="#E1DCFF" d="M97.07 71.568c-.032.879.654 1.617 1.532 1.649.879.032 1.617-.654 1.649-1.534.032-.877-.654-1.616-1.533-1.647-.878-.033-1.616.653-1.648 1.532" transform="translate(2.07 27.764)"/>
            <path fill="#F5EFE4" d="M86.146 79.28s4.234 2.141 17.595 2.667c12.231.481 19.153-3.801 19.153-3.801l1.828-24.711c.663-7.595 4.595-19.476-9.558-20.852 0 0-15.538-.823-19.682-.485-8.514.694-10.273 11.076-10.773 19.677-.482 8.328 1.437 27.505 1.437 27.505" transform="translate(2.07 27.764)"/>
            <path fill="#A29C8F" d="M122.69 77.2s-23.918 5.284-36.675.946l-.202 4.972s8.168 2.924 18.455 2.716c6.545-.132 14.29-2.185 20.232-4.967l-1.81-3.667z" transform="translate(2.07 27.764)"/>
            <path fill="#FCC23F" d="M102.454 83.162c.022-1.438-1.13-2.641-2.567-2.682l-5.755-.168.187 4.656c1.107.445 2.965.719 5.404.796.714.03 1.395-.235 1.911-.728.518-.493.808-1.16.82-1.874m-2.76 3.504c-2.791-.09-4.812-.421-6.007-.99-.152-.072-.25-.222-.258-.389l-.217-5.422c-.006-.125.042-.246.129-.335.088-.088.203-.13.334-.134l6.24.182c1.926.056 3.47 1.67 3.44 3.598v.001c-.015.959-.404 1.85-1.098 2.51-.63.601-1.438.944-2.3.978-.087.004-.175.004-.263 0" transform="translate(2.07 27.764)"/>
            <path fill="#FCC23F" d="M99.962 83.854c.754-.03 1.191-.112 1.23-.12.244-.048.403-.285.354-.529-.046-.244-.287-.403-.528-.357-.018.003-1.962.367-4.88-.228-.243-.047-.482.106-.532.35-.05.245.108.483.351.532 1.705.349 3.09.39 4.005.352" transform="translate(2.07 27.764)"/>
            <path fill="#FFF2DC" d="M98.101 101.613L2.997 102.879 1.677 3.764 96.782 2.499z" transform="translate(2.07 27.764)"/>
            <path fill="#FFF0D2" d="M3.057 5.106l1.283 96.393 92.382-1.229-1.283-96.392L3.057 5.106zm-.06 99.134c-.744 0-1.35-.598-1.361-1.344L.317 3.78c-.005-.36.134-.708.386-.967s.596-.407.957-.411l95.105-1.266c.391.03.708.134.968.385.257.253.406.596.41.959l1.318 99.114c.011.752-.59 1.369-1.342 1.378L3.014 104.24h-.017z" transform="translate(2.07 27.764)"/>
            <path fill="#F5EFE4" d="M136.454 77.772s6.936 3.134 8.543-.953c2.402-6.108.971-13-7.92-27.462-6.524-10.615-14.07-17.707-23.53-16.24l22.907 44.655z" transform="translate(2.07 27.764)"/>
            <path fill="#FFE2B7" d="M105.737 34.67l-.254.021c-1.053.086-1.978-.696-2.065-1.75l-.681-8.23c-.087-1.053.696-1.977 1.75-2.064l.253-.022c1.054-.087 1.978.697 2.066 1.75l.68 8.23c.088 1.053-.696 1.978-1.749 2.065" transform="translate(2.07 27.764)"/>
            <path fill="#FFC581" d="M102.868 26.3c-.159-1.93.622-3.571 1.745-3.664 1.124-.093 2.164 1.398 2.324 3.328l.357 4.315c.087 1.053-1.392 1.857-2.685.305-.847-1.015-1.638-2.302-1.638-2.302l-.103-1.982z" transform="translate(2.07 27.764)"/>
            <path fill="#FFE2B7" d="M113.791 15.095c-.48-.148-1.6.323-1.6.323.062-3.753-2.931-6.846-6.686-6.907-3.753-.062-6.249 2.94-6.31 6.693 0 0-.156 5.613-.05 6.32.698 4.627 2.573 6.019 6.048 6.076 3.475.058 6.379-2.506 6.84-5.865.708-.101 1.588-1.3 2.082-2.917.56-1.83.415-3.497-.324-3.723" transform="translate(2.07 27.764)"/>
            <path fill="#FFE2B7" d="M105.733 8.498s-1.547-.05-2.627.393c-2.437 1.001-3.863 3.371-3.912 6.313 0 0-.155 5.613-.048 6.32.457 3.04 1.466 4.76 3.077 5.513 1.055.493 3.157.57 3.157.57s-1.667-2.355-1.656-9.96c.006-4.548 2.009-9.15 2.009-9.15" transform="translate(2.07 27.764)"/>
            <path fill="#FCBD30" d="M115.228 17.358c-.045.45-13.3-2.81-13.23-8.35.07-5.541 13.839 2.433 13.23 8.35" transform="translate(2.07 27.764)"/>
            <path fill="#FFE2B7" d="M110.69 22.22c.083 1.186 1.111 2.081 2.297 2 1.186-.082 2.081-1.11 2-2.297-.082-1.186-1.11-2.08-2.297-2-1.186.083-2.08 1.111-2 2.297" transform="translate(2.07 27.764)"/>
            <path fill="#E7E1D3" d="M103.28 31.435s-.027 1.116.53 1.761c.24.282 1.57.99 1.57.99l-2.062 3.249s-1.3-1.348-1.603-1.874c-1.12-1.942-.7-3.486-.7-3.486l2.265-.64z" transform="translate(2.07 27.764)"/>
            <path fill="#E7E1D3" d="M104.6 34.07l1.918 3.461s2.773-2.888 2.96-4.526l-2.124-1.985s-.58 2.56-2.754 3.05" transform="translate(2.07 27.764)"/>
            <path fill="#FFE2B7" d="M55.256 106.001c.586.322 1.078 1.08.696 1.627-.543.783-3.537.716-3.537.716l-.095-2.365s2.101-.435 2.936.022" transform="translate(2.07 27.764)"/>
            <path fill="#FFE2B7" d="M49.742 103.562s-2.132.615-2.553 1.178c-.323.43-.319 2.125-.319 2.125s3.414 1.194 4.666 1.414c.868.153 1.65.064 2.157-.736.336-.532.188-1.235-.337-1.583l-3.614-2.398z" transform="translate(2.07 27.764)"/>
            <path fill="#FFE2B7" d="M47.36 101.32c.572-.29 1.27-.064 1.56.507l1.332 2.611-1.034.526-1.858-3.644z" transform="translate(2.07 27.764)"/>
            <path fill="#FFE2B7" d="M45.536 101.179c.541-.344 1.299-.12 1.692.498l1.8 2.834-.98.622-2.512-3.954z" transform="translate(2.07 27.764)"/>
            <path fill="#FFE2B7" d="M44.84 101.923c.541-.343 1.299-.12 1.692.5l1.8 2.833-.98.622-2.512-3.955z" transform="translate(2.07 27.764)"/>
            <path fill="#FFE2B7" d="M44.2 103.402c.506-.394 1.281-.244 1.732.334l2.065 2.646-1.127.484-2.67-3.464zM96.772 44.8s1.03-1.737 1.681-2.003c.497-.202 2.137.23 2.137.23s1.788 4.307 1.26 5.463c-.253.553-1.427 1.021-2.33 1.31-.6.19-1.241-.131-1.445-.725L96.772 44.8z" transform="translate(2.07 27.764)"/>
            <path fill="#FFE2B7" d="M95.944 42.599c-.424.481-.377 1.215.105 1.638l2.2 1.934.766-.872-3.071-2.7z" transform="translate(2.07 27.764)"/>
            <path fill="#FFE2B7" d="M95.53 41.842c-.337.544-.104 1.3.52 1.687l2.853 1.765.612-.986-3.984-2.466z" transform="translate(2.07 27.764)"/>
            <path fill="#FFE2B7" d="M96.097 40.795c-.38.516-.208 1.287.383 1.723l2.703 1.988.687-.935-3.773-2.776z" transform="translate(2.07 27.764)"/>
            <path fill="#FFE2B7" d="M98.138 38.64c-.56.31-.663 1.2-.227 1.987l1.989 3.6.647-1.294-2.409-4.294zM100.996 48.035L98.296 48.963 101.487 52.983 103.739 50.946z" transform="translate(2.07 27.764)"/>
            <path fill="#E7E1D3" d="M98.31 57.246c2.167 11.037 13.82 16.937 22.044 20.172 9.178 3.612 20.134 7.263 24.478-.344 0 0-10.833-10.824-14.495-13.286-7.336-4.931-26.898-14.98-26.898-14.98s-5.904 4.491-5.13 8.438" transform="translate(2.07 27.764)"/>
            <path fill="#FCBD30" d="M20.644 31.454c.248-.001.488-.044.72-.125.231-.082.437-.217.618-.404.18-.187.324-.43.43-.73.107-.298.16-.662.156-1.091-.003-.393-.044-.746-.123-1.064-.079-.316-.207-.585-.383-.808-.177-.226-.409-.396-.696-.513-.29-.117-.645-.175-1.066-.172l-1.222.01.039 4.91 1.527-.013zm.07-6.35c.502-.006.97.073 1.404.228.434.156.81.394 1.129.71.319.319.57.717.751 1.195.182.48.277 1.042.282 1.69.004.566-.064 1.092-.206 1.573-.142.48-.358.896-.65 1.248-.292.353-.657.63-1.096.832-.439.204-.956.307-1.552.314l-3.36.025-.063-7.789 3.36-.027zM27.184 29.934c.079.31.203.586.373.832.169.246.388.442.66.59.27.148.597.22.982.215.386-.002.712-.08.98-.232.268-.15.485-.35.65-.599.166-.248.286-.527.36-.837.074-.31.109-.63.106-.956-.002-.342-.044-.673-.122-.992-.079-.32-.203-.604-.373-.853-.169-.25-.389-.448-.66-.596-.27-.145-.597-.218-.982-.216-.386.004-.713.082-.981.232-.267.151-.484.353-.649.606-.166.251-.286.538-.36.859-.073.321-.109.651-.106.994.003.328.044.645.122.953m-1.586-2.562c.17-.499.418-.937.743-1.31.324-.374.723-.667 1.198-.882.475-.215 1.01-.324 1.607-.33.604-.004 1.143.097 1.617.305.475.207.876.494 1.208.863.33.368.584.8.762 1.297.18.497.27 1.037.274 1.618.006.567-.077 1.098-.248 1.59-.17.492-.418.922-.743 1.287-.324.368-.722.655-1.193.865-.47.213-1.008.321-1.612.325-.596.005-1.134-.095-1.612-.298-.478-.203-.882-.485-1.212-.847-.33-.36-.585-.785-.763-1.275-.178-.49-.27-1.017-.274-1.585-.006-.582.077-1.123.248-1.623M39.376 27.034c-.104-.163-.232-.306-.385-.429-.154-.12-.328-.217-.52-.284-.194-.069-.397-.102-.607-.1-.386.003-.713.082-.98.231-.268.152-.484.354-.65.606-.165.253-.286.539-.359.86-.073.32-.11.651-.107.993.004.328.044.646.123.954.078.308.202.586.372.832.169.245.388.442.66.589.27.148.597.22.982.216.524-.004.932-.166 1.225-.49.291-.321.468-.744.53-1.27l1.657-.013c-.04.488-.149.929-.327 1.324-.179.393-.417.73-.712 1.008-.297.28-.643.493-1.043.642-.398.148-.838.224-1.318.227-.596.006-1.133-.095-1.611-.298-.479-.203-.883-.484-1.213-.845-.33-.362-.584-.787-.763-1.277-.178-.489-.27-1.017-.274-1.585-.005-.58.077-1.122.248-1.622.17-.5.418-.937.743-1.31.324-.373.723-.667 1.198-.881.475-.216 1.01-.326 1.608-.331.428-.004.834.056 1.218.176.381.12.725.299 1.03.533.302.233.554.524.754.872.198.348.326.746.38 1.196l-1.658.014c-.031-.197-.098-.376-.201-.538M48.45 32.079c-.585.516-1.398.779-2.438.788-1.055.008-1.873-.241-2.455-.744-.582-.504-.877-1.288-.887-2.351l-.038-4.843 1.713-.015.039 4.846c.001.21.02.418.059.621.038.203.116.383.234.539.117.155.28.28.488.377.208.098.487.144.835.141.612-.005 1.032-.146 1.263-.42.23-.274.344-.702.34-1.284l-.039-4.844 1.713-.014.038 4.844c.008 1.055-.28 1.842-.865 2.359M53.379 24.843L55.244 30.187 55.265 30.187 56.947 24.815 59.357 24.796 59.419 32.585 57.815 32.598 57.772 27.078 57.75 27.078 55.884 32.613 54.565 32.624 52.612 27.174 52.59 27.174 52.634 32.638 51.03 32.653 50.968 24.863zM66.908 24.736L66.919 26.176 62.805 26.209 62.819 27.877 66.594 27.847 66.604 29.179 62.829 29.209 62.845 31.119 67.045 31.085 67.057 32.524 61.144 32.571 61.081 24.782zM70.071 24.71L73.364 29.91 73.386 29.909 73.344 24.685 74.948 24.672 75.009 32.461 73.297 32.475 70.015 27.285 69.994 27.286 70.035 32.501 68.431 32.513 68.369 24.725zM76.072 26.103L76.061 24.662 82.443 24.613 82.454 26.052 80.12 26.071 80.17 32.42 78.458 32.433 78.407 26.084zM77.852 50.217L21.747 50.803 21.712 47.431 77.817 46.843zM77.996 63.854L21.89 64.441 21.855 61.068 77.96 60.48zM57.156 77.711L22.034 78.078 21.997 74.706 57.121 74.337z" transform="translate(2.07 27.764)"/>
        </g>
    </g>
</svg>
