<svg xmlns="http://www.w3.org/2000/svg" xmlns:xlink="http://www.w3.org/1999/xlink" width="329" height="269" viewBox="0 0 329 269">
    <defs>
        <path id="prefix__a" d="M0 0.421L328.995 0.421 328.995 21 0 21z"/>
    </defs>
    <g fill="none" fill-rule="evenodd">
        <path fill="#FFF4DD" d="M287.917 257.21c31.422-36.568 32.328-55.685 27.096-66.413-5.244-10.755-15.548-10.806-22.044-24.583-8.265-17.528 3.736-27.37.92-49.594-3.958-31.209-33.603-49.53-35.824-50.889-5.386-3.296-26.528-16.238-51.182-11.904-30.9 5.433-37.676 32.793-59.679 30.504-17.66-1.838-22.162-20.389-35.884-18.09-12.544 2.1-10.755 17.936-29.084 29.793-18.29 11.834-33.073 4.475-39.1 14.254-7.28 11.817 13.43 23.967 10.1 44.713-3.189 19.879-25.042 22.08-34.903 43.988-9.202 20.446-3.542 42.5 3.214 58.653l266.37-.431"/>
        <g transform="translate(0 247.739)">
            <mask id="prefix__b" fill="#fff">
                <use xlink:href="#prefix__a"/>
            </mask>
            <path fill="#F7E8C8" d="M328.995 10.71c0 5.684-73.648 10.29-164.498 10.29C73.648 21 0 16.394 0 10.71 0 5.029 73.648.42 164.497.42c90.85 0 164.498 4.608 164.498 10.29" mask="url(#prefix__b)"/>
        </g>
        <path fill="#A4B750" d="M270.732 131.676c2.942-1.723 16.502-10.064 18.833-25.327 1.397-9.146-1.111-21.604-6.833-22.939-5.58-1.3-12.906 8.28-15.875 16.087-5.564 14.632 1.973 28.814 3.875 32.18"/>
        <path fill="#316C35" d="M257.94 166.947c.065-.172 6.732-17.48 13.052-35.178 6.325-17.717 10.004-36.867 10.04-37.058l-.542-.104c-.037.192-3.708 19.3-10.018 36.977-6.318 17.692-12.982 34.992-13.049 35.165l.516.198z"/>
        <path fill="#316C35" d="M275.552 115.405L276.085 115.261 273.096 104.207 272.563 104.351zM278.82 104.847c.468-1.064 1.477-1.818 2.368-2.483l3.122-2.333-.33-.443-3.123 2.333c-.898.671-2.016 1.506-2.543 2.704l.506.222zM284.626 129.56c-6.347 7.088-5.793 16.542-5.188 20.565 4.108-.762 13.495-3.388 18.308-11.826 2.718-4.763 4.67-12.814 1.672-15.105-.605-.463-1.397-.672-2.31-.672-3.6 0-9.088 3.248-12.482 7.038zm-5.69 20.932c-.63-3.928-1.378-13.866 5.278-21.3 4.502-5.028 12.271-8.936 15.54-6.437 3.36 2.57 1.23 10.984-1.528 15.818-5.04 8.837-14.945 11.438-18.969 12.147l-.277.05-.044-.278z"/>
        <path fill="#316C35" d="M257.35 167.093c.124-.063 12.425-6.453 22.058-16.454 9.626-9.993 15.46-20.328 15.518-20.432l-.482-.269c-.058.102-5.86 10.38-15.434 20.318-9.567 9.933-21.79 16.283-21.912 16.346l.252.491z"/>
        <path fill="#316C35" d="M285.71 143.445L291.683 141.996 291.553 141.459 285.58 142.908zM290.73 135.772L291.28 135.721 290.792 130.414 290.243 130.464z"/>
        <path fill="#FFDDCF" d="M106.043 258.612L268.026 258.612 268.026 156.628 106.043 156.628z"/>
        <path fill="#FFF" d="M134.743 207.57v-4.476c0-.348.208-.662.53-.797l30.758-12.988c.571-.241 1.202.178 1.202.797v4.105c0 .35-.212.667-.537.8l-23.286 9.556c-.714.294-.716 1.305-.002 1.6l23.291 9.65c.323.134.534.449.534.799v4.1c0 .622-.635 1.04-1.205.796l-30.76-13.146c-.318-.136-.525-.45-.525-.796M177.84 229.327l13.735-48.995c.105-.373.445-.632.833-.632h3.022c.573 0 .988.547.833 1.099l-13.703 48.995c-.104.374-.445.632-.833.632h-3.054c-.573 0-.988-.547-.833-1.1M238.8 208.366l-30.76 13.146c-.571.245-1.205-.174-1.205-.795v-4.101c0-.35.21-.665.534-.8l23.262-9.65c.712-.294.71-1.305-.003-1.6l-23.257-9.555c-.324-.133-.536-.45-.536-.8v-4.105c0-.62.632-1.038 1.202-.797l30.76 12.988c.32.135.528.449.528.798v4.475c0 .347-.207.66-.525.796"/>
        <path fill="#F7C7BA" d="M260.46 146.029H113.607c-4.178 0-7.564 3.387-7.564 7.564v3.035h161.982v-3.035c0-4.177-3.387-7.564-7.565-7.564"/>
        <path fill="#FFF" d="M259.428 150.922c0-1.065-.863-1.93-1.93-1.93-1.065 0-1.93.865-1.93 1.93 0 1.066.864 1.931 1.93 1.931 1.067 0 1.93-.865 1.93-1.93M250.887 150.922c0-1.065-.864-1.93-1.93-1.93-1.066 0-1.93.865-1.93 1.93 0 1.066.864 1.931 1.93 1.931 1.066 0 1.93-.865 1.93-1.93M242.346 150.922c0-1.065-.864-1.93-1.93-1.93-1.066 0-1.93.865-1.93 1.93 0 1.066.864 1.931 1.93 1.931 1.066 0 1.93-.865 1.93-1.93"/>
        <path fill="#FFBF4D" d="M203.408 114.27v12.4c0 .73.59 1.32 1.319 1.32h17.696l4.473 4.472v-4.472h.282c.729 0 1.319-.59 1.319-1.32v-12.4c0-.729-.59-1.318-1.319-1.318h-22.451c-.729 0-1.319.59-1.319 1.318"/>
        <path fill="#FFF4DD" d="M207.048 123.47L224.857 123.47 224.857 121.212 207.048 121.212z"/>
        <path fill="#FFF" d="M224.857 117.685L213.378 117.685"/>
        <path fill="#FFF4DD" d="M213.378 118.665L224.857 118.665 224.857 116.983 213.378 116.983z"/>
        <path fill="#FFA331" d="M153.04 31.859c6.733-.441 12.964 3.56 15.365 9.866 2.945 7.738 6.48 17.63 7.135 22.16 0 0 15.42 15.043 21.703 21l-3.34 2.893S172.915 74.13 166.518 68.13c-6.397-6-13.477-36.272-13.477-36.272"/>
        <path fill="#F6A19E" d="M112.575 252.223L112.266 253.138 114.338 255.301 116.532 254.337 117.343 253.138 117.578 252.193z"/>
        <path fill="#FFC581" d="M165.42 252.19L165.295 253.138 166.295 254.784 169.233 254.507 170.109 253.968 170.371 253.138 170.363 251.934z"/>
        <path fill="#47B27C" d="M137.144 95.132c.74-.11 1.17-1.926.892-3.385-.42-2.197-2.385-3.369-2.717-3.56-.295.597-.758 1.771-.551 3.236.263 1.855 1.552 3.832 2.376 3.71"/>
        <path fill="#47B27C" d="M137.23 94.108c-.204.72 1.272 1.86 2.716 2.208 2.176.523 4.054-.783 4.365-1.007-.423-.514-1.302-1.422-2.721-1.837-1.798-.525-4.131-.166-4.36.636"/>
        <path fill="#47B27C" d="M138.234 93.222c.454.596 2.252.097 3.395-.853 1.72-1.428 1.799-3.714 1.806-4.098-.665.03-1.918.191-3.1 1.08-1.497 1.126-2.606 3.21-2.101 3.871"/>
        <path fill="#57575E" d="M134.75 16.285c-2.437 0-4.414-1.977-4.414-4.414V9.267h4.415v7.018z"/>
        <path fill="#A29C8F" d="M124.558 85.79s-6.804 12.732-12.826 166.572l7.665-.033 27.653-138.555V85.79h-22.492z"/>
        <path fill="#A29C8F" d="M162.147 77.218s15.049 11.836 14.977 43.616c-.032 14.234-6.761 131.1-6.761 131.1l-4.943.256c-8.766-44.495-15.11-88.224-22.35-133.478-1.036-.147-6.345-.534-7.265-1.616-2.017-2.372-.05-6.506-.091-8.325-.171-7.279-.217-23.92.255-30.056 5.824.482 20.707-.963 26.178-1.497"/>
        <path fill="#7F786A" d="M170.363 251.934s6.728-116.866 6.76-131.1c.073-31.78-14.976-43.616-14.976-43.616-1.27.15-2.565.287-3.88.417l-3.541 2.258s10.645 62.275 10.39 99.513c-.144 20.691-.126 49.39-.083 70.81.13.657.257 1.316.387 1.974l4.943-.256z"/>
        <path fill="#FFBF4D" d="M164.679 86.329c2.063-.504 3.488-2.385 3.398-4.507-.447-10.718-1.823-22.89-4.86-36.04-1.339-5.8-2.874-11.237-4.514-16.298l-19.409-4.294-15.016 5.88c-1.09 8.579-1.855 18.277-1.922 28.913-.06 9.646.464 18.52 1.293 26.483.084.808.703 1.459 1.507 1.582 5.162.794 11.314 1.334 18.232 1.143 8.24-.227 15.43-1.431 21.29-2.862"/>
        <path fill="#FFA331" d="M166.412 85.89c1.05-.277 1.767-1.239 1.731-2.323-.369-11.135-1.724-23.917-4.926-37.785-1.339-5.8-2.362-11.329-4.002-16.389-4.147-.918-8.807-1.744-12.955-2.662-1.356.215-5.152-2.319-6.242-.72-1.435 2.105 1.224 8.012 1.471 8.922 1.4 5.15 5.151 25.375 10.266 53.677 5.561-.617 10.488-1.626 14.657-2.72"/>
        <path fill="#FFE2B7" d="M132.908 15.717L134.289 27.15 139.464 29.509 143.523 26.125 141.946 13.94z"/>
        <path fill="#FFC581" d="M141.946 13.94l-9.038 1.777.1.826c.948 3.911 4.854 7.538 8.575 6.732.537-.116 1.035-.319 1.495-.59l-1.132-8.745z"/>
        <path fill="#FFE2B7" d="M140.854 5.034c.334.193 2.877 1.717 3.782 4.705 1.2 3.97-.744 9.678-4.79 10.554-3.871.839-7.945-3.12-8.677-7.206-.65-3.621 1.19-8.101 4.465-9.065 2.302-.676 4.53.614 5.22 1.012"/>
        <path fill="#57575E" d="M144.6 1.316c.952 1.828-3.08 5.488-3.478 5.845-3.439 3.076-9.026 5.02-10.653 3.211-1.197-1.329-.096-4.51 1.355-6.396 3.527-4.586 11.653-4.813 12.776-2.66"/>
        <path fill="#FFE2B7" d="M130.062 12.728c-.197-1.039.487-2.04 1.526-2.238 1.04-.197 2.042.487 2.239 1.526.196 1.04-.487 2.042-1.527 2.238-1.04.197-2.042-.486-2.238-1.526"/>
        <path fill="#FFBF4D" d="M125.576 83.82c1.222.918 2.299 1.703 3.169 2.324.145.105.284.203.417.298 1.199.85 1.905 1.324 1.905 1.324l.294-1.677.586-3.355s-6.017-9.21-11.828-16.726l-.405-.521c-.54-.691-1.076-1.365-1.604-2.015-1.011-1.241-1.992-2.386-2.908-3.38-2.316.393-4.72 1.038-7.16 1.693-1.427.383-2.766.812-4.017 1.267 4.578 6.833 12.762 13.934 18.934 18.76.924.724 1.802 1.396 2.617 2.008"/>
        <path fill="#FFBF4D" d="M115.396 47.287c-1.9-2.207-3.833-4.453-5.416-6.828-3.85 3.164-7.13 6.688-8.787 10.363-1.604 3.558-.088 7.939 2.96 12.424 3.85.04 8.132-.952 11.752-2.376-1.271-1.432-2.443-2.612-3.428-3.391 0 0 3.173-2.577 6.935-6.027-1.638-1.52-2.966-2.945-4.016-4.165"/>
        <path fill="#57575E" d="M165.295 253.138s-2.445 2.353 0 4.798h10.576v-4.798h-5.5s-2.523 1.477-5.076 0"/>
        <path fill="#57575E" d="M171.744 257.936h8.253v-.67c0-2.28-1.847-4.128-4.127-4.128-2.278 0-4.126 1.848-4.126 4.127v.671z"/>
        <path fill="#7F786A" d="M164.865 258.706L180.352 258.706 180.352 257.936 164.865 257.936z"/>
        <path fill="#57575E" d="M117.342 253.138s2.445 2.353 0 4.798h-12.493l.448-4.798h6.97s2.522 1.477 5.075 0"/>
        <path fill="#7F786A" d="M100.712 258.706L117.773 258.706 117.773 257.936 100.712 257.936z"/>
        <path fill="#57575E" d="M105.297 253.138c-2.279 0-4.126 1.848-4.126 4.127v.671h4.126v-4.798z"/>
        <path fill="#FFA331" d="M159.216 29.393c5.074 1.045 9.028 5.027 10.036 10.107l1.617 8.145-10.417.328-1.236-18.58z"/>
        <path fill="#FFBF4D" d="M119.412 51.452c4.897-4.493 10.793-10.468 11.989-14.171 2.113-6.55-2.54-7.888-2.54-7.888s-10.007 2.297-18.881 11.066c1.582 2.375 3.515 4.62 5.416 6.828 1.05 1.22 2.378 2.645 4.016 4.165M164.201 55.598L161.408 42.551 163.371 42.13 166.164 55.178z"/>
        <path fill="#7F786A" d="M139.596 29.509L141.635 31.337 140.834 34.389 138.388 32.311zM140.834 34.39s9.921 12.751 2.243 28.426l-5.084-9.582 2.841-18.845z"/>
        <path fill="#FB9C98" d="M198.37 86.308c3.308.068 4.093.433 4.146.773.075.47-1.157 1.42-2.443 1.125-.9-.206-1.584-.965-1.703-1.898"/>
        <path fill="#FFC581" d="M194.097 87.453l1.922 1.644c.2.518.604 1.379 1.42 2.169.387.375 2.025 1.96 3.804 1.52 1.253-.312 2.367-1.576 2.133-2.23-.078-.216-.3-.347-.515-.428l-6.109-5.224-2.655 2.549z"/>
        <path fill="#7F786A" d="M75.496 121.828c-1.27-3.441.49-7.262 3.931-8.532 3.442-1.271 7.262.489 8.533 3.93 1.27 3.443-.489 7.263-3.93 8.534-3.443 1.27-7.263-.49-8.534-3.932m174.512-50.263l-13.442 4.962c-5.96 2.2-12.578-.847-14.779-6.808l-1.233-3.34c-2.2-5.962.848-12.578 6.81-14.78l13.424-4.956c-7.48-6.563-18.239-8.947-28.2-5.27-9.904 3.657-16.502 12.322-17.988 22.069L77.267 106.759c-7.007 2.587-10.59 10.363-8.003 17.37 2.586 7.007 10.363 10.59 17.37 8.003l117.333-43.317c7.463 6.443 18.11 8.742 28.012 5.086 9.995-3.69 16.623-12.48 18.03-22.336"/>
        <path fill="#A29C8F" d="M185.895 76.459c-.539 0-1.079.096-1.599.288l-83.02 30.649c-1.156.426-2.076 1.277-2.59 2.396-.517 1.118-.566 2.37-.139 3.526.426 1.156 1.277 2.077 2.396 2.59 1.118.518 2.37.566 3.526.139l83.021-30.65c1.155-.425 2.075-1.276 2.591-2.395.515-1.118.564-2.371.137-3.526-.426-1.156-1.277-2.077-2.396-2.591-.615-.284-1.27-.426-1.927-.426M102.868 120.4c-1.237 0-2.469-.267-3.626-.8-2.105-.97-3.705-2.702-4.508-4.875-.802-2.174-.71-4.53.26-6.635.97-2.105 2.7-3.705 4.874-4.508l83.02-30.65c2.174-.801 4.53-.71 6.635.26 2.105.97 3.705 2.702 4.508 4.875.802 2.174.711 4.53-.259 6.635-.97 2.105-2.7 3.705-4.875 4.508l-83.02 30.649c-.979.362-1.996.54-3.009.54"/>
        <path fill="#FFE2B7" d="M133.888 84.42c3.97.081 4.912.52 4.977.927.088.565-1.39 1.705-2.933 1.35-1.08-.246-1.9-1.159-2.044-2.278"/>
        <path fill="#FFE2B7" d="M128.76 85.793l2.308 1.973c.237.622.724 1.655 1.703 2.603.466.45 2.43 2.355 4.566 1.823 1.504-.372 2.84-1.89 2.56-2.672-.094-.263-.36-.418-.618-.516l-7.332-6.27-3.186 3.06z"/>
        <path fill="#7F786A" d="M33.966 54.95c-7.661 0-13.871 6.21-13.871 13.872 0 7.66 6.21 13.87 13.87 13.87 7.662 0 13.872-6.21 13.872-13.87 0-7.661-6.21-13.871-13.871-13.871"/>
        <path fill="#FFBC3F" d="M32.285 72.217c-.262.732-1.068 1.113-1.8.852-.733-.262-1.114-1.068-.852-1.8.261-.733 1.068-1.115 1.8-.853.732.263 1.114 1.07.852 1.801zm3.014-.84c-.03-.369-.108-.728-.228-1.07l1.091-.955-1.11-1.615-1.284.677c-.275-.233-.583-.433-.916-.594l.096-1.445-1.927-.356-.427 1.384c-.368.03-.726.107-1.067.226l-.954-1.09-1.615 1.111.676 1.28c-.235.276-.437.585-.599.92l-1.444-.097-.356 1.928 1.383.427c.03.352.102.695.212 1.023l-1.096.96 1.111 1.615 1.265-.669c.286.248.607.46.955.628l-.095 1.446 1.927.356.427-1.384c.368-.03.727-.108 1.068-.227l.956 1.091 1.615-1.11-.678-1.283c.235-.276.436-.584.597-.918l1.445.096.356-1.927-1.384-.428z"/>
        <path fill="#FFBC3F" d="M39.121 65.251c-.252.578-.924.841-1.5.59-.578-.252-.84-.924-.589-1.501.252-.578.923-.842 1.501-.59.576.252.84.924.588 1.501zm2.481-.51c-.004-.302-.047-.594-.125-.879l.934-.71-.808-1.366-1.074.477c-.21-.203-.447-.383-.707-.532l.157-1.162-1.537-.393-.42 1.094c-.299.003-.593.046-.875.124l-.71-.933-1.366.809.475 1.07c-.205.21-.384.448-.533.71l-1.162-.157-.395 1.537 1.095.421c.004.287.043.567.114.838l-.939.715.81 1.365 1.058-.47c.217.216.464.405.736.56l-.157 1.163 1.537.392.421-1.094c.3-.003.594-.046.876-.123l.712.934 1.365-.808-.476-1.073c.204-.21.384-.448.532-.709l1.162.157.394-1.536-1.094-.422z"/>
        <path fill="#FDC854" d="M49.398 223.823h52.986c2.439 0 4.416 1.978 4.416 4.416 0 2.438-1.977 4.415-4.416 4.415H49.398c-2.438 0-4.416-1.977-4.416-4.415 0-2.438 1.978-4.416 4.416-4.416"/>
        <path fill="#F89F4F" d="M44.982 230.966c0 .932.756 1.687 1.688 1.687h58.441c.933 0 1.688-.755 1.688-1.687v-.909H44.982v.91z"/>
        <path fill="#FDC854" d="M49.398 197.33h52.986c2.439 0 4.416 1.978 4.416 4.416 0 2.439-1.977 4.416-4.416 4.416H49.398c-2.438 0-4.416-1.977-4.416-4.416 0-2.438 1.978-4.415 4.416-4.415"/>
        <path fill="#F89F4F" d="M44.982 204.473c0 .933.756 1.688 1.688 1.688h58.441c.933 0 1.688-.755 1.688-1.688v-.909H44.982v.91z"/>
        <path fill="#FFAC34" d="M149.222 252.47c12.62-10.287 14.511-28.857 4.223-41.478-10.287-12.62-28.858-14.51-41.478-4.223-12.62 10.288-14.51 28.858-4.223 41.478 10.288 12.62 28.858 14.511 41.478 4.223"/>
        <path fill="#FFBC3F" d="M145.035 247.334c9.783-7.975 11.249-22.37 3.274-32.154-7.975-9.784-22.371-11.248-32.154-3.274-9.784 7.976-11.25 22.37-3.274 32.155 7.975 9.783 22.37 11.249 32.154 3.273"/>
        <path fill="#FFA331" d="M139.87 225.883c.573.348 1.386.056 1.815-.65.43-.708.313-1.565-.26-1.913l-6.228-3.78-4.152-2.519c-.573-.348-1.386-.056-1.816.651-.43.708-.312 1.564.26 1.912l4.153 2.52c1.35.82 1.84 2.587 1.368 4.336l-7.076-4.293c-.573-.348-1.386-.056-1.815.651-.43.707-.313 1.564.26 1.911l7.075 4.294c-1.333 1.228-3.126 1.61-4.478.79l-4.152-2.52c-.135-.082-.29-.13-.455-.144-.333-.023-.687.102-.985.353-.295.25-.51.602-.594.98-.045.19-.053.377-.027.554l2.083 15.287c.05.374.24.661.506.822.266.161.607.197.962.072.708-.253 1.2-1.066 1.099-1.812l-1.64-12.029 1.648 1c2.508 1.52 5.94.588 8.195-2.04l1.143.693c.573.348 1.387.056 1.816-.65.429-.709.313-1.566-.26-1.913l-1.144-.695c.423-1.048.6-2.117.596-3.144l2.103 1.276z"/>
        <path fill="#FDC854" d="M52.783 250.316h52.986c2.44 0 4.416 1.978 4.416 4.416 0 2.438-1.977 4.415-4.416 4.415H52.783c-2.438 0-4.416-1.977-4.416-4.415 0-2.438 1.978-4.416 4.416-4.416"/>
        <path fill="#F89F4F" d="M48.368 257.46c0 .932.756 1.687 1.688 1.687h58.44c.934 0 1.689-.755 1.689-1.688v-.909H48.368v.91z"/>
        <path fill="#FDC854" d="M52.783 241.485h52.986c2.44 0 4.416 1.978 4.416 4.416 0 2.438-1.977 4.415-4.416 4.415H52.783c-2.438 0-4.416-1.977-4.416-4.415 0-2.438 1.978-4.416 4.416-4.416"/>
        <path fill="#F89F4F" d="M48.368 248.629c0 .931.756 1.686 1.688 1.686h58.44c.934 0 1.689-.755 1.689-1.686v-.91H48.368v.91z"/>
        <path fill="#FDC854" d="M52.783 232.654h52.986c2.44 0 4.416 1.978 4.416 4.416 0 2.438-1.977 4.415-4.416 4.415H52.783c-2.438 0-4.416-1.977-4.416-4.415 0-2.438 1.978-4.416 4.416-4.416"/>
        <path fill="#F89F4F" d="M48.368 239.797c0 .932.756 1.687 1.688 1.687h58.44c.934 0 1.689-.755 1.689-1.687v-.909H48.368v.91z"/>
        <path fill="#FDC854" d="M52.783 214.993h52.986c2.44 0 4.416 1.977 4.416 4.415 0 2.439-1.977 4.415-4.416 4.415H52.783c-2.438 0-4.416-1.976-4.416-4.415 0-2.438 1.978-4.415 4.416-4.415"/>
        <path fill="#F89F4F" d="M48.368 222.135c0 .932.756 1.687 1.688 1.687h58.44c.934 0 1.689-.755 1.689-1.687v-.909H48.368v.91z"/>
        <path fill="#FDC854" d="M50.466 206.162h52.986c2.439 0 4.416 1.977 4.416 4.415 0 2.439-1.977 4.416-4.416 4.416H50.466c-2.438 0-4.416-1.977-4.416-4.416 0-2.438 1.977-4.415 4.416-4.415"/>
        <path fill="#F89F4F" d="M46.05 213.304c0 .932.756 1.688 1.688 1.688h58.441c.933 0 1.688-.756 1.688-1.688v-.909H46.05v.91z"/>
        <path fill="#FDC854" d="M51.67 188.5h52.985c2.44 0 4.415 1.977 4.415 4.415 0 2.439-1.976 4.416-4.415 4.416H51.67c-2.439 0-4.416-1.977-4.416-4.416 0-2.438 1.977-4.415 4.416-4.415"/>
        <path fill="#F89F4F" d="M47.254 195.642c0 .933.756 1.688 1.688 1.688h58.44c.933 0 1.689-.755 1.689-1.688v-.909H47.254v.91z"/>
        <path fill="#FDC854" d="M52.577 179.668h52.986c2.439 0 4.416 1.977 4.416 4.415 0 2.44-1.977 4.417-4.416 4.417H52.577c-2.438 0-4.416-1.977-4.416-4.417 0-2.438 1.978-4.415 4.416-4.415"/>
        <path fill="#F89F4F" d="M48.161 186.811c0 .933.756 1.688 1.688 1.688h58.441c.933 0 1.688-.755 1.688-1.688v-.909H48.161v.91z"/>
    </g>
</svg>
