<svg xmlns="http://www.w3.org/2000/svg" xmlns:xlink="http://www.w3.org/1999/xlink" width="557" height="373" viewBox="0 0 557 373"><defs/><defs><path id="a" d="M0 1h555.4v24H0z"/><path id="c" d="M0 371h555.4V.7H0z"/><path id="e" d="M2.8 3.8L.2.5c1.2 3 2.6 3.3 2.6 3.3"/><linearGradient id="f" x1="60.1%" x2="34.7%" y1="73.9%" y2="21.6%"><stop offset="0%" stop-color="#DBEBFF"/><stop offset="100%" stop-color="#FFF"/></linearGradient></defs><g fill="none" fill-rule="evenodd"><g transform="translate(1 .3)"><path fill="#FFF4DD" d="M351.3 359H54.1C5 310 0 278.6 6.4 258c10-32.2 42-49 45.9-78.9 3.5-27.5-11.3-32.6-5.4-56.4 8.6-34.2 46.7-53.3 67.5-63.8 26-13.1 86.4-36.4 108.5-16.3 15.8 14.3-5.4 34.7 8.7 57.2 24.8 39.5 117 20.1 127.3 49 6.8 19.2-30.3 38.4-20 60.7 5.2 11.2 16 10 30.9 25.6a83.6 83.6 0 0121.7 42.8c6.9 41.5-32.6 75-40.2 81"/><g transform="translate(0 346)"><mask id="b" fill="#fff"><use xlink:href="#a"/></mask><path fill="#F7E8C8" d="M555.4 13c0 6.6-124.3 12-277.7 12C124.3 25 0 19.6 0 13 0 6.3 124.3 1 277.7 1c153.4 0 277.7 5.3 277.7 12" mask="url(#b)"/></g><path fill="#A4B750" d="M500 256.4c2.3-1.3 13.2-7.6 15.3-19.6 1.3-7.2-.5-17-5-18.3-4.3-1-10.3 6.3-12.8 12.4-4.7 11.5 1 22.8 2.4 25.5m4.3 6.5c2.4 1.3 13.5 7.1 24.8 2.5 6.8-2.8 14.2-9.5 12.8-14-1.4-4.3-10.9-5.3-17.4-4.2-12.2 2.2-18.7 13-20.2 15.7m-11.7-2.2c.4-2.7 1.8-15.2-6.5-24-5-5.4-14-10-17.6-7-3.5 2.8-1.2 12 2.2 17.7 6.4 10.6 19 12.8 22 13.3"/><path fill="#316C35" d="M489 287.8l-1.6-.8a252.4 252.4 0 0018.4-58.7l1.8.3a254.4 254.4 0 01-18.6 59.2"/><path fill="#316C35" d="M497.3 265l-.3-.1a60 60 0 01-21.5-24l1.6-1a60.7 60.7 0 0020.5 23.2c2.4-.3 19-2.6 31-7.8l.6 1.7c-13.1 5.6-31.5 8-31.7 8h-.2z"/><path fill="#FFDDCF" d="M164.2 130.6v24.1h325v-24.3L327 47.7z"/><path fill="#F7C7BA" d="M170.7 135.1v11.7h311.4v-12.1L327 55.6z"/><path fill="#FFDDCF" d="M335.6 90.4c1 0 1.8-1 1.8-2.3 0-1.3-.8-2.3-1.8-2.3h-18.3c-1 0-1.9 1-1.9 2.3 0 1.2.8 2.3 1.9 2.3h7.3c2.4 0 4.4 1.9 5.1 4.5h-12.4c-1 0-1.9 1-1.9 2.2 0 1.3.8 2.3 1.9 2.3h12.4c-.7 2.6-2.7 4.5-5.1 4.5h-7.3c-.3 0-.5 0-.7.2-.5.2-.9.7-1 1.2-.2.6-.2 1.2 0 1.8l.4.7 14.6 18c.4.5.8.8 1.3.8s1-.3 1.3-.7c.7-.9.7-2.3 0-3.2l-11.5-14.2h2.9c4.4 0 8.1-4 9-9h2c1 0 1.8-1.1 1.8-2.4 0-1.2-.8-2.2-1.8-2.2h-2c-.3-1.7-1-3.2-1.7-4.5h3.7z"/><mask id="d" fill="#fff"><use xlink:href="#c"/></mask><path fill="#FFDDCF" d="M166.1 357h318v-27.6H166z" mask="url(#d)"/><path fill="#EABBAB" d="M162.2 357h329v-13.8h-329z" mask="url(#d)"/><path fill="#F7C7BA" d="M195.6 329.4h40.9v-10.6h-41zm0-164h40.9v-10.7h-41z" mask="url(#d)"/><path fill="#FFDDCF" d="M199.5 318.8h33V165.3h-33z" mask="url(#d)"/><path fill="#F7C7BA" d="M199.5 165.3l33 8v-8z" mask="url(#d)"/><path fill="#EABBAB" d="M252 329.4h40.9v-10.6h-41z" mask="url(#d)"/><path fill="#F7C7BA" d="M252 165.3h40.9v-10.6h-41z" mask="url(#d)"/><path fill="#FFDDCF" d="M255.9 318.8h33V165.3h-33z" mask="url(#d)"/><path fill="#F7C7BA" d="M255.9 165.3l33 8v-8z" mask="url(#d)"/><path fill="#EABBAB" d="M363 329.4h41v-10.6h-41z" mask="url(#d)"/><path fill="#F7C7BA" d="M363 165.3h41v-10.6h-41z" mask="url(#d)"/><path fill="#FFDDCF" d="M367 318.8h33V165.3h-33z" mask="url(#d)"/><path fill="#F7C7BA" d="M367 165.3l33 8v-8z" mask="url(#d)"/><path fill="#EABBAB" d="M417 329.4h40.9v-10.6h-41z" mask="url(#d)"/><path fill="#F7C7BA" d="M417 165.3h40.9v-10.6h-41z" mask="url(#d)"/><path fill="#FFDDCF" d="M420.9 318.8h33V165.3h-33z" mask="url(#d)"/><path fill="#F7C7BA" d="M420.9 165.3l33 8v-8z" mask="url(#d)"/><path fill="#EABBAB" d="M301 334.3h53.2v-.4H301zm0 5.4h53.2v-.4H301z" mask="url(#d)"/><path fill="#FFDDCF" d="M301 348.8h53.2v-.4H301zm0 5.4h53.2v-.4H301z" mask="url(#d)"/><path fill="#A4B750" d="M425.5 328.5c.8-2.5 4.4-14.3-2-24.4-3.9-6-11.7-12-15.8-9.9-3.9 2.1-3.3 11.5-1 17.5 4.3 11.4 16 15.8 18.8 16.8" mask="url(#d)"/><path fill="#316C35" d="M446.5 351.4c-.1-.1-12.7-9.5-21.7-22.4a128 128 0 01-13.6-25.7l1.4-.5s4.7 12.5 13.5 25.3c8.8 12.7 21.2 22 21.3 22l-.9 1.3z" mask="url(#d)"/><path fill="#316C35" d="M419.3 320l-6.4-2.7.6-1.5 6.4 2.7zm-3.6-9.8l-1.5-.4 1.5-5.8 1.5.4z" mask="url(#d)"/><path fill="#A4B750" d="M437.5 308.6c-3-2.4-16.6-14.2-16.4-31.6 0-10.4 5.1-23.9 11.7-24.3 6.5-.5 12.9 11.5 14.8 20.8 3.5 17.3-7.4 31.7-10.1 35.1" mask="url(#d)"/><path fill="#316C35" d="M444.9 350.3c0-.2-4.4-20.7-8.2-41.5-3.9-21-4.5-43-4.5-43.2h1.6c0 .2.6 22 4.4 42.9 3.9 20.8 8.1 41.3 8.2 41.5l-1.5.3z" mask="url(#d)"/><path fill="#316C35" d="M435.5 289.8l-1.5-.6 5.4-11.8 1.4.6zm-2.6-12.4a7.4 7.4 0 00-2.1-3l-3-3.2 1-1 3.1 3.1c1 1 2 2.2 2.5 3.7l-1.5.4z" mask="url(#d)"/><path fill="#FDC854" d="M442.5 321.4h54a4.5 4.5 0 010 9h-54a4.5 4.5 0 010-9" mask="url(#d)"/><path fill="#F89F4F" d="M438 328.7c0 1 .7 1.7 1.7 1.7h59.6c1 0 1.7-.8 1.7-1.7v-1h-63v1z" mask="url(#d)"/><path fill="#FDC854" d="M442.5 294.3h54c2.5 0 4.5 2 4.5 4.6 0 2.4-2 4.5-4.5 4.5h-54a4.5 4.5 0 010-9" mask="url(#d)"/><path fill="#F89F4F" d="M438 301.6c0 1 .7 1.8 1.7 1.8h59.6c1 0 1.7-.8 1.7-1.8v-.9h-63v1z" mask="url(#d)"/><path fill="#FFAC34" d="M544.3 350.6a30 30 0 10-38-46.6 30 30 0 0038 46.6" mask="url(#d)"/><path fill="#FFBC3F" d="M540 345.4a23.3 23.3 0 10-29.4-36.2 23.3 23.3 0 0029.5 36.2" mask="url(#d)"/><path fill="#FFA331" d="M534.8 323.5c.6.3 1.4 0 1.8-.7.5-.7.4-1.6-.2-2L530 317l-4.2-2.6c-.6-.3-1.4 0-1.9.7-.4.7-.3 1.6.3 2l4.2 2.5c1.4.9 2 2.7 1.4 4.5l-7.2-4.4c-.6-.4-1.4 0-1.8.6-.5.8-.4 1.6.2 2l7.2 4.4c-1.3 1.2-3.1 1.6-4.5.8l-4.3-2.6a1 1 0 00-.4-.1c-.4 0-.7 0-1 .3-.3.3-.6.6-.6 1v.6l2 15.6c.1.4.3.7.6.8.2.2.6.2 1 .1.7-.3 1.2-1 1-1.9l-1.6-12.2 1.7 1c2.5 1.5 6 .6 8.3-2l1.2.6c.6.4 1.4 0 1.9-.6.4-.8.3-1.6-.3-2l-1.2-.7c.5-1 .6-2.2.6-3.2l2.2 1.3z" mask="url(#d)"/><path fill="#FDC854" d="M446 348.4h54a4.5 4.5 0 010 9h-54a4.5 4.5 0 110-9" mask="url(#d)"/><path fill="#F89F4F" d="M441.4 355.7c0 1 .8 1.7 1.7 1.7h59.7c1 0 1.7-.7 1.7-1.7v-1h-63v1z" mask="url(#d)"/><path fill="#FDC854" d="M446 339.4h54a4.5 4.5 0 010 9h-54a4.5 4.5 0 110-9" mask="url(#d)"/><path fill="#F89F4F" d="M441.4 346.7c0 1 .8 1.7 1.7 1.7h59.7c1 0 1.7-.8 1.7-1.7v-1h-63v1z" mask="url(#d)"/><path fill="#FDC854" d="M446 330.4h54a4.5 4.5 0 010 9h-54a4.5 4.5 0 110-9" mask="url(#d)"/><path fill="#F89F4F" d="M441.4 337.7c0 1 .8 1.7 1.7 1.7h59.7c1 0 1.7-.8 1.7-1.7v-1h-63v1z" mask="url(#d)"/><path fill="#FDC854" d="M446 312.4h54a4.5 4.5 0 010 9h-54a4.5 4.5 0 110-9" mask="url(#d)"/><path fill="#F89F4F" d="M441.4 319.7c0 1 .8 1.7 1.7 1.7h59.7c1 0 1.7-.8 1.7-1.7v-1h-63v1z" mask="url(#d)"/><path fill="#FDC854" d="M443.6 303.4h54a4.5 4.5 0 010 9h-54c-2.5 0-4.6-2-4.6-4.5s2-4.5 4.6-4.5" mask="url(#d)"/><path fill="#F89F4F" d="M439 310.6c0 1 .8 1.8 1.8 1.8h59.6c1 0 1.7-.8 1.7-1.8v-.9h-63v1z" mask="url(#d)"/><path fill="#FDC854" d="M444.8 285.3h54c2.5 0 4.6 2 4.6 4.5s-2 4.5-4.5 4.5h-54.1a4.5 4.5 0 010-9" mask="url(#d)"/><path fill="#F89F4F" d="M440.3 292.6c0 1 .7 1.7 1.7 1.7h59.6c1 0 1.8-.7 1.8-1.7v-.9h-63.1v1z" mask="url(#d)"/><path fill="#FDC854" d="M445.7 276.3h54a4.5 4.5 0 110 9h-54a4.5 4.5 0 010-9" mask="url(#d)"/><path fill="#F89F4F" d="M441.2 283.6c0 1 .8 1.7 1.7 1.7h59.7c1 0 1.7-.7 1.7-1.7v-1h-63.1v1z" mask="url(#d)"/><path fill="#FFE2B7" d="M397.3 352.2h6.1v-1.5h-6.1z" mask="url(#d)"/><path fill="#7F786A" d="M403.4 350.7s2.6 2.6 0 5.2h-15.9c0-.3-.4-1.8.5-3.3a4.5 4.5 0 012.3-1.9h7.5s2.8 1.6 5.6 0" mask="url(#d)"/><path fill="#57575E" d="M385.3 357.4h18.5v-1.5h-18.5zm5-6.7c-2.5 0-4.5 2-4.5 4.5v.7h2.4a6.2 6.2 0 012-5.2" mask="url(#d)"/><path fill="#FFE2B7" d="M398.5 348l.1 3 4.1-.1.3-3.2z" mask="url(#d)"/><path fill="#A29C8F" d="M398 349h5.5l23.1-122.4-.8-34.1-18.6-4.8s-11.1 19.5-10.9 42.2l1.8 119.2" mask="url(#d)"/><path fill="#57575E" d="M456.4 357.4h12.1v-1.5h-12z" mask="url(#d)"/><path fill="#FFE2B7" d="M458.7 348l.6 3 4.1-.1-.2-3.2z" mask="url(#d)"/><path fill="#7F786A" d="M464.2 350.7a4 4 0 013.4 1.8c1 1.6.6 3.1.5 3.4h-10.3c-1.4-1.3-1.4-2.7-1-3.7.3-.9 1.2-1.5 2.2-1.5h5.2z" mask="url(#d)"/><path fill="#A29C8F" d="M464 349l-3.7-127.5c-.6-14.7-8.4-29.2-8.4-29.2-5.3.5-23.3.5-28.9 0-.4 5.9 1.4 16.7 1.5 23.7.2 6 1.5 5.4 2.1 10.6L458.4 349h5.6z" mask="url(#d)"/><path fill="#7F786A" d="M464 349l-3.7-127.5c-.6-14.7-8.4-29.2-8.4-29.2-2.6.3-8.4.4-14.2.4l-1.6.7s8.8 17 10.4 29.6l15.1 126h2.4z" mask="url(#d)"/><path fill="#57575E" d="M393.8 353.8L392 352l1.5-1.6 1.8 1.8z" mask="url(#d)"/><path fill="#57575E" d="M395.9 353.8L394 352l1.5-1.6 1.8 1.8z" mask="url(#d)"/><path fill="#FFE2B7" d="M367.6 155.9l-3.4.1s-4 3-9-.6c-5-3.5 1-4 1-4l10.7-.4.7 4.9z" mask="url(#d)"/><path fill="#FFE2B7" d="M361.6 152.1c-2.8-3.4-3.8-4-4.2-3.8-.6.3-.6 2.4.8 3.6a3 3 0 003.4.2" mask="url(#d)"/><path fill="#FFBF4D" d="M416 130.6s-11.6 6.7-20.6 12.8a33.9 33.9 0 01-23.2 5.6c-9-.1-7.6.7-14 2l-1.3 5.1s30.6 7 53-3c22.3-10 6-22.5 6-22.5" mask="url(#d)"/><path fill="#FFA331" d="M409.3 190.4a4.7 4.7 0 01-3.6-4.8 207.1 207.1 0 0110.3-55l20.4-4.4 15.8 6.2a254 254 0 01.3 58.4c-.1.8-.8 1.5-1.6 1.6a106.7 106.7 0 01-41.6-2" mask="url(#d)"/><path fill="#FFBF4D" d="M409.3 190.4a4.7 4.7 0 01-3.6-4.8c.6-11.3 3-24 6.4-37.9 1.4-6 3.6-12.2 5.4-17.5l19-4 15.7 6.2a254 254 0 01.3 58.4c-.1.8-.8 1.5-1.6 1.6a106.7 106.7 0 01-41.6-2" mask="url(#d)"/><path fill="#FFA331" d="M452.7 172.7c1.9-.7 3.5-1.3 4.8-1.6 0 0-9.6-20.7-8.5-27.9 1-7.1 3.2-10.7 3.2-10.7s19.5 22.5 19 37.5c0 4.1-3.5 7.6-8.5 10.4a34.4 34.4 0 01-10-7.7" mask="url(#d)"/><path fill="#FFA331" d="M450.9 192.4c.8 0 1.5-.8 1.6-1.6a253.9 253.9 0 00-.3-58.4l-15.8-6.2-2.8.6a101.3 101.3 0 012.6 66.8c5.5 0 10.4-.5 14.7-1.2" mask="url(#d)"/><path fill="#FFA331" d="M433 190l-4.2.7h-.5l-2.4.4.5-1.7 1-3.4s10-6 19-10.4a89.5 89.5 0 017.3-3.3c2 1.5 4 3.2 6 5l3.2 3a98.5 98.5 0 01-30 9.6" mask="url(#d)"/><path fill="#57575E" d="M434.6 134.2l4.6 26.2-5 18.2-8.4-17.4z" mask="url(#d)"/><path fill="#FFE2B7" d="M443.2 116.2l-1.6 12.3-10 1.6 2.1-15.8z" mask="url(#d)"/><path fill="#FFC581" d="M433.7 114.3l9.5 2-.1.8c-1 4.1-5.2 7.9-9 7-.6-.1-1.2-.3-1.7-.6l1.3-9.2z" mask="url(#d)"/><path fill="#FFE2B7" d="M434.6 104.2c-2.9 1.6-3.5 4.7-3.7 5.7-.8 4 .8 10.1 5 11.1 4 .9 8.3-3.2 9.2-7.5.6-3.2-.4-7.5-3.8-9.3-2-1-4.5-1.2-6.7 0" mask="url(#d)"/><path fill="#57575E" d="M443.3 112.5c0 .5.2 2.4-1 3.4-1.6 1.4-4.2.4-4.9.2-1.4-.5-1.7-1.1-2.7-1.2-1.5-.2-2.9.9-3.8 1.8 0 .8 0 2.4 1 3.7 2 2.4 6.3 2 8.8.5 3.5-2.1 5-6.9 3.9-8-.3-.4-.8-.4-1.3-.4m0 0c.1-.3 1-3.6-.8-5.6-.3-.3-1.5-1.6-2.8-1.5-.4 0-.6.2-3.3 2-.7.5-1 .8-1.5.7-.8 0-1.5-.6-1.8-1.2-.6-1.3.1-2.9.8-3.7 1.3-1.5 3.3-1.5 4.1-1.4h.3c2.9.3 6.5 3.7 7 7l-.1 1.7a3.8 3.8 0 01-1.9 2" mask="url(#d)"/><path fill="#FFE2B7" d="M447 112.7a2 2 0 10-4-.8 2 2 0 004 .8" mask="url(#d)"/><path fill="#FFA331" d="M428.8 128c.7-.5 1.4-1.2 2.3-1.2.6 0 .7.4 1.6 1 .8.4 1.6.6 2.1.7a4.4 4.4 0 01-2.2 4.2 11.5 11.5 0 01-4.8-3.4c.2-.3.5-.8 1-1.2" mask="url(#d)"/><path fill="#FFA331" d="M442.7 128c-.4-.5-.8-.8-1.1-1a12 12 0 00-2.8.4l-4 1.1a11.1 11.1 0 001.7 4 15.7 15.7 0 017-3c0-.3-.3-.9-.8-1.5" mask="url(#d)"/><path fill="#57575E" d="M435 128.5l1.5 4-1.9 1.7-2-1.5z" mask="url(#d)"/><path fill="#FFE2B7" d="M425 187c-3.2-2.7-4.3-3-4.6-2.7-.5.4 0 2.3 1.4 3 1 .6 2.3.4 3.2-.4m-71.4-34.8c.7-.3 2 .9 2.4 2.3.5 2-1.1 4-1.9 3.8-1.1-.2-1.7-5.6-.5-6.1" mask="url(#d)"/><path fill="#FFE2B7" d="M429 190.7l-3.1.4c-.6.5-1.5 1.2-2.8 1.7-1.2.5-4 1.6-6.2.3-1.6-1-2.7-2.9-2.2-3.6.6-.8 2.4.6 5-.3 1.6-.5 1.7-1.3 3.7-2.2 1.6-.7 3-1 4-1l1.6 4.7" mask="url(#d)"/><path fill="#FFAC34" d="M425.1 165.6a37.2 37.2 0 10-73.6 10.2 37.2 37.2 0 0073.6-10.2" mask="url(#d)"/><path fill="#FFBC3F" d="M416.8 166.7a28.8 28.8 0 10-57 8 28.8 28.8 0 0057-8" mask="url(#d)"/><path fill="#FFA331" d="M390.3 158.3c.8-.4 1-1.5.5-2.4-.5-1-1.5-1.4-2.2-1l-8.1 4.3-5.5 2.8c-.7.4-1 1.4-.5 2.4.5.9 1.5 1.3 2.3 1l5.4-2.9c1.8-1 4-.3 5.6 1.4l-9.3 4.8c-.7.4-1 1.4-.5 2.4.5.9 1.5 1.3 2.3 1l9.2-4.9c.5 2.3-.3 4.4-2 5.4l-5.5 2.8c-.2 0-.3.2-.5.4-.2.3-.3.8-.2 1.3 0 .5.3 1 .7 1.3l.5.4 17.9 7.7c.4.2.8.2 1.2 0 .3-.2.6-.5.7-1 .2-1-.4-2-1.2-2.4l-14-6 2-1.2c3.4-1.7 4.6-6 3.2-10.1l1.5-.8c.8-.4 1-1.5.5-2.4-.5-1-1.5-1.4-2.2-1l-1.5.8c-.9-1.1-1.9-2-3-2.7l2.7-1.4zM212.6 205a51.1 51.1 0 01-33.2-90L247.9 57a42.6 42.6 0 0160.6 59.2l-.5.6v-1.8a41.5 41.5 0 00-59.4-57.1L180 116a50 50 0 1072.6 67.8l54.9-68.3.4-.6v1.8l-54.5 67.8a50.7 50.7 0 01-41 20.6" mask="url(#d)"/><path fill="#FFA331" d="M222.7 160.3a12.8 12.8 0 11-24.2-8.6 12.8 12.8 0 0124.2 8.6zm27.4-7.6c-.3-3.4-1-6.6-2-9.7l9.9-8.7-10.1-14.7-11.7 6.1c-2.5-2-5.3-4-8.4-5.4l1-13.1-17.6-3.3-4 12.6c-3.3.3-6.5 1-9.6 2l-8.7-9.8-14.7 10 6.1 11.7c-2 2.5-4 5.3-5.4 8.4l-13.1-.9-3.3 17.6 12.6 3.8c.3 3.3 1 6.4 2 9.4l-10 8.7 10 14.7 11.6-6c2.6 2.2 5.5 4.1 8.7 5.6l-.9 13.2L210 208l4-12.6c3.3-.3 6.5-1 9.7-2l8.7 9.9 14.7-10.1-6.2-11.7c2.1-2.5 4-5.3 5.4-8.3l13.2.8 3.2-17.5-12.6-3.9z" mask="url(#d)"/><path fill="#FFBC3F" d="M287.2 91.1a10.4 10.4 0 11-19-8.3 10.4 10.4 0 0119 8.3zm22.6-4.6c0-2.7-.4-5.4-1.1-8l8.5-6.5-7.4-12.4L300 64c-1.9-1.8-4-3.4-6.4-4.8l1.4-10.6-14-3.5-3.8 10c-2.7 0-5.4.3-8 1l-6.4-8.5-12.4 7.4 4.3 9.7a32 32 0 00-4.9 6.5l-10.5-1.4-3.6 14 10 3.8c0 2.6.3 5.2 1 7.6l-8.6 6.5 7.4 12.5 9.6-4.3c2 2 4.2 3.7 6.7 5l-1.4 10.6 14 3.6 3.8-10a32 32 0 008-1l6.5 8.4 12.4-7.3-4.4-9.8c1.9-1.9 3.5-4 4.9-6.4l10.6 1.4 3.5-14-10-3.8z" mask="url(#d)"/><path fill="#FFA331" d="M219.4 156a8.8 8.8 0 10-17.6 0 8.8 8.8 0 0017.6 0" mask="url(#d)"/><path fill="#FFBC3F" d="M285 87a7.2 7.2 0 10-14.5 0 7.2 7.2 0 0014.4 0" mask="url(#d)"/><path fill="#57575E" d="M192 63.8h-1.7a2 2 0 01-2.1-2v-3.3h6v3.2c0 1.2-1 2.1-2.2 2.1" mask="url(#d)"/><path fill="#FDC854" d="M213.8 23.2A22.5 22.5 0 10180.5 43a5 5 0 012.6 4.4v11.8a3 3 0 003 3h10.2a3 3 0 003.1-3V47.3A5 5 0 01202 43c7-3.8 11.8-11.2 11.8-19.8" mask="url(#d)"/><path fill="#EFEEFE" d="M184.8 23.2a1 1 0 00-1 .9c0 .5.5 1 1 1h1v-1c0-.5-.5-1-1-1m2.5 37.5c-.9 0-1.5-.7-1.5-1.5V28h-1a4 4 0 010-8 4 4 0 014 4v1h4a1.5 1.5 0 110 3h-4v31c0 .8-.7 1.5-1.5 1.5" mask="url(#d)"/><path fill="#EFEEFE" d="M196.8 25h1a1 1 0 000-1.8 1 1 0 00-1 .9v1zm-1.6 35.6c-.8 0-1.5-.7-1.5-1.5V28h-4a1.5 1.5 0 010-3h4v-1a4 4 0 018 0 4 4 0 01-4 4h-1v31c0 .8-.6 1.5-1.5 1.5z" mask="url(#d)"/><path fill="#7F786A" d="M193.8 62.6h-5.3a6 6 0 01-6-6v-9.4h17.3v9.4a6 6 0 01-6 6" mask="url(#d)"/><path fill="#57575E" d="M200.1 52.9h-18a1.5 1.5 0 010-3h18a1.5 1.5 0 110 3m0 3.7h-18a1.5 1.5 0 010-3h18a1.5 1.5 0 110 3m0 3.7h-18a1.5 1.5 0 010-3h18a1.5 1.5 0 110 3" mask="url(#d)"/><path fill="#A4B750" d="M48.7 312.1s-40.2-16-18-29.2c0 0-26.4-37.7-1.4-28 0 0 7-48.1 29.4-2.7 0 0 15.6-8 2.1 21.3 0 0 30.1-2.8-12 38.6" mask="url(#d)"/><path fill="#316C35" d="M60.6 358.2c-.3-.4-6.8-9.7-12.1-42s-2.8-60.1-2.8-60.4l1.8.2c0 .3-2.5 27.9 2.8 59.9 5.3 31.9 11.7 41.2 11.8 41.3l-1.5 1z" mask="url(#d)"/><path fill="#316C35" d="M45.9 288.1l-9.7-10.7 1.4-1.3 9.6 10.8zm1-15.7l-1.4-1.2 8-9.6 1.4 1.1z" mask="url(#d)"/><path fill="#A4B750" d="M43.3 343s-31.7 4.2-16.6-13c0 0-28.2-8.5-14.7-14.2 0 0-10.8-36.3 17.2-3.8 0 0 7.7-8.7 9 8.4 0 0 19.6-14.5 5.3 22.9" mask="url(#d)"/><path fill="#316C35" d="M55.8 360.9a1134 1134 0 01-29.5-40l1.5-1.1c.2.3 19.4 27.4 29.5 40l-1.5 1.1z" mask="url(#d)"/><path fill="#FFC581" d="M132.9 120.3a16 16 0 0116 10.3c3.1 8.1 6.8 18.4 7.5 23.2l22.7 22-3.5 3s-22-14.3-28.7-20.6c-6.6-6.3-14-38-14-38" mask="url(#d)"/><path fill="#F6A19E" d="M69.8 352.2l-.3 1 2.2 2.2 2.3-1 .8-1.2.2-1zm77 0l-.1 1 1 1.7 3.1-.3 1-.6.2-.8v-1.3z" mask="url(#d)"/><path fill="#47B27C" d="M117.3 188c.7-.2 1.2-2 .9-3.6a5.9 5.9 0 00-2.9-3.7c-.3.6-.7 1.8-.5 3.4.2 2 1.6 4 2.5 3.9" mask="url(#d)"/><path fill="#47B27C" d="M117.3 186.9c-.2.7 1.4 2 2.9 2.3 2.3.5 4.2-.8 4.5-1a5.8 5.8 0 00-2.8-2c-1.9-.5-4.3-.2-4.6.7" mask="url(#d)"/><path fill="#47B27C" d="M118.4 186c.5.6 2.3 0 3.5-1a5.9 5.9 0 002-4.2c-.8 0-2 .2-3.3 1.1-1.6 1.2-2.7 3.4-2.2 4" mask="url(#d)"/><path fill="#57575E" d="M114.8 105.5h-1.4a3.2 3.2 0 01-3.3-3.2v-4.1h4.7v7.3z" mask="url(#d)"/><path fill="#A29C8F" d="M104.1 178.2s-13 16.7-35.1 174h6.6l52-144.8v-29.2h-23.5z" mask="url(#d)"/><path fill="#A29C8F" d="M143.4 169.2s15.7 12.4 15.7 45.6c0 15-7.1 137.1-7.1 137.1l-5.2.3c-9.1-46.6-15.8-92.3-23.3-139.6-1.1-.1-6.7-.5-7.6-1.7-2.2-2.5-.1-6.8-.1-8.7-.2-7.6-.3-25 .2-31.4 6.1.5 21.7-1 27.4-1.6" mask="url(#d)"/><path fill="#7F786A" d="M152 351.9s7-122.2 7-137c.1-33.3-15.6-45.7-15.6-45.7l-4 .5-3.8 2.3s11.2 65.1 10.9 104v74.1c0 .7.2 1.4.3 2l5.2-.2z" mask="url(#d)"/><path fill="#FFBC3F" d="M146 178.8a4.7 4.7 0 003.6-4.8 205.6 205.6 0 00-9.8-54.7l-20.3-4.5-15.7 6.2a252.3 252.3 0 00-.7 57.9c.1.8.8 1.5 1.6 1.7a106.2 106.2 0 0041.3-1.8" mask="url(#d)"/><path fill="#FFA331" d="M147.9 178.3a2.4 2.4 0 001.8-2.4c-.4-11.7-1.8-25-5.2-39.5-1.4-6.1-2.5-11.9-4.2-17.2-4.3-1-9.2-1.8-13.5-2.8-1.4.3-3.5.8-4.6 2.5-1.5 2.2-.7 5.2-.4 6.1 1.5 5.4 5.4 26.5 10.7 56.1 5.8-.6 11-1.7 15.4-2.8" mask="url(#d)"/><path fill="#FFE2B7" d="M112.8 105l1.8 15 9.7-1.2-2-15.7z" mask="url(#d)"/><path fill="#FFC581" d="M122.3 103l-9.5 2 .1.8c1 4 5.1 7.9 9 7 .6 0 1-.3 1.6-.6l-1.2-9.1z" mask="url(#d)"/><path fill="#FFE2B7" d="M121.1 93.8a9 9 0 014 4.9c1.2 4.1-.8 10-5 11-4 .9-8.3-3.3-9-7.5-.8-3.8 1.2-8.5 4.6-9.5 2.4-.7 4.7.6 5.4 1" mask="url(#d)"/><path fill="#57575E" d="M125 89.9c1 1.9-3.2 5.7-3.6 6-3.6 3.3-9.4 5.3-11.1 3.4-1.3-1.4-.1-4.7 1.4-6.6 3.7-4.8 12.2-5 13.4-2.8" mask="url(#d)"/><path fill="#FFE2B7" d="M109.9 101.8a2 2 0 113.9-.7 2 2 0 01-4 .7" mask="url(#d)"/><path fill="#FFF" d="M123.7 106c0 .5-.6 1-1.2 1.1-1 .3-2.3-.3-3-1.5 3.2-.2 4 .1 4.2.5" mask="url(#d)"/><path fill="#FFE2B7" d="M105.2 176.1l3.3 2.5.4.3 2 1.4.3-1.8.6-3.5s-6.3-9.6-12.3-17.5l-.5-.5a129.6 129.6 0 00-4.7-5.7 82.9 82.9 0 00-11.7 3.1 97.7 97.7 0 0022.6 21.7" mask="url(#d)"/><path fill="#FFC581" d="M175.6 178.8l2.3 2.1c.2.7.7 1.8 1.6 2.9.5.4 2.4 2.5 4.7 2.1 1.6-.3 3-1.8 2.8-2.7 0-.2-.3-.4-.6-.5l-7.3-7-3.5 3z" mask="url(#d)"/><path fill="#FFE2B7" d="M128 116.7l-8.5-1.9-9.3 3.7c1.8 1.5 4.3 2.8 7 3a12 12 0 0010.9-4.8M94.5 138c-2-2.3-4-4.6-5.6-7.1-4 3.3-7.5 7-9.2 10.8-1.7 3.8-.1 8.3 3 13 4 0 8.6-1 12.3-2.5a30.5 30.5 0 00-3.5-3.5s3.3-2.7 7.2-6.3a54 54 0 01-4.2-4.4" mask="url(#d)"/><path fill="#57575E" d="M146.7 353.2s-2.6 2.4 0 5h11v-5H152s-2.6 1.5-5.3 0" mask="url(#d)"/><path fill="#7F786A" d="M153.4 358.2h8.7v-.7a4.3 4.3 0 00-8.7 0v.7z" mask="url(#d)"/><path fill="#57575E" d="M146.2 359h16.2v-.8h-16.2zm-71.4-5.8s2.6 2.4 0 5h-13l.4-5h7.3s2.6 1.5 5.3 0M57.4 359h17.9v-.8H57.4z" mask="url(#d)"/><path fill="#7F786A" d="M62.2 353.2c-2.4 0-4.3 1.9-4.3 4.3v.7h4.3v-5z" mask="url(#d)"/><path fill="#FFA331" d="M140.3 119.2c5.3 1.1 9.5 5.3 10.5 10.6l1.7 8.5-10.9.4-1.3-19.5z" mask="url(#d)"/><path fill="#FFBC3F" d="M98.7 142.3c5.1-4.7 11.3-11 12.6-14.8 2.2-6.9-2.7-8.3-2.7-8.3s-10.5 2.4-19.7 11.6c1.6 2.5 3.6 4.8 5.6 7.1 1.1 1.3 2.5 2.8 4.2 4.4" mask="url(#d)"/><path fill="#FFA331" d="M88.2 130.5l10.3 12.6 1.8-2-10.7-12zm54.5 6.8l10.5-.4v2.2l-10.2.2zm-24-14.1c-5.4 0-9.3-3.5-9.5-3.6a1.5 1.5 0 012-2.2s3.7 3.2 8.2 2.8c2.7-.2 5.3-1.7 7.6-4.4a1.5 1.5 0 012.2 1.9 14 14 0 01-10.6 5.5" mask="url(#d)"/><path fill="#57575E" d="M214 156a3.4 3.4 0 10-6.8 0 3.4 3.4 0 006.8 0" mask="url(#d)"/><path fill="#7F786A" d="M191.4 182.7h-76a2.1 2.1 0 110-4.2h74V156c0-1.1.9-2 2-2h19.2a2.1 2.1 0 010 4.1h-17v22.5c0 1.2-1 2.1-2.2 2.1" mask="url(#d)"/><path fill="#57575E" d="M114.7 182.2h74v-3h-74z" mask="url(#d)"/><path fill="#FFE2B7" d="M113.9 176.8c4.1 0 5 .5 5.2 1 0 .5-1.5 1.7-3.1 1.3-1.1-.2-2-1.2-2.1-2.3" mask="url(#d)"/><path fill="#FFE2B7" d="M108.5 178.2l2.4 2c.3.7.8 1.8 1.8 2.8.5.4 2.5 2.4 4.8 1.9 1.5-.4 3-2 2.6-2.8 0-.3-.3-.4-.6-.6l-7.7-6.5-3.3 3.2z" mask="url(#d)"/><path fill="#FFC581" d="M181 177.7s2.3 0 2.6.3c.3.2 1.5 2.2.8 3.3-.6 1.1-1.7-2-1.7-2l-1.7-1.6z" mask="url(#d)"/><path fill="#306B34" d="M188.5 248s-19.3 6.6-16.7 28.8c2.6 22.3-1.2 49.4-1.2 49.4h11s19.6-26.4 5.2-46.2c-14.5-19.8 1.7-32 1.7-32" mask="url(#d)"/><path fill="#A4B751" d="M187 249.5c-3.6 2.9-13.8 13.4-2.8 30.8 13.1 20.8-8.2 45.8-8.2 45.8l-5.3-.3v.4h11s19.5-26.4 5-46.2c-11.5-16-3.4-26.8.2-30.5" mask="url(#d)"/><path fill="#4900BC" d="M187.7 248.7l.8-.6s-1.8.6-4.1 2c1.5-.8 2.7-1.2 3.3-1.4" mask="url(#d)"/><path fill="#619440" d="M167.3 301.6c1-19.8.3-22.2-7.4-28.8-7.7-6.5-18.5-17.2-18.5-17.2 7.4 14.6 7.2 21.2 8.6 32 1 8.3 13.6 24.9 19.2 32a41.7 41.7 0 01-1.9-18" mask="url(#d)"/></g><g transform="translate(170 319.3)"><mask id="g" fill="#fff"><use xlink:href="#e"/></mask><path fill="url(#f)" d="M2.8 3.8L.2.5c1.2 3 2.6 3.3 2.6 3.3" mask="url(#g)"/></g><path fill="#306B34" d="M164.6 292.7a35 35 0 004.3 27.5h8a35.8 35.8 0 013.6-17.4 58 58 0 00-3.8-1.6c-14.8-5.7-8.3-24.9-12-8.5"/><path fill="#619440" d="M185.4 296.9c-8.1 4-5.8 21.8-5.8 21.8l7.7 2.7s-1.4-8 3.8-14.3c5.2-6.3 8.7-3.9 8.7-3.9s-6.2-10.5-14.4-6.3m-39-8.4c-13.8 0-21.4 8.3-21.4 8.3s5.3-2.8 14.8-2.4c9.6.3 8.9 8.4 16.6 16 7.6 7.6 14 8.7 14 8.7s-10.1-14.7-17.6-24.7c-1.3-1.8 0-5.9-6.5-5.9"/><path fill="#FAF9FC" d="M122.3 299.6v0"/><path fill="#A4B751" d="M157.4 297.3c-2.5-3.4.1-11.8-16.2-9.9-14.9 1.8-18.4 10.7-18.9 12.2.4-1 2.8-5 17.2-8.2 16.5-3.8 7.7 4.8 15.2 10.2 7.4 5.4 13.5 15.5 13.5 15.5s4.3 7 3.3 1.2c-1-6-11.5-17.5-14-21m50.5 7.4c-7.4-15.2-16.5-14.2-22.5-10.9-8.5 4.7-7 24.5-7 24.5l1.1.4s.2-3.9.9-10.4c.6-6.6 3.9-16 14.3-3s25.1 15.3 25.1 15.3-4.4-.7-11.9-15.9"/><path fill="#A4B751" d="M188.3 285.8a6.4 6.4 0 00-6.6-.7c-2.3 1-5 .6-7-.7-8-4.7-8.5 1.8-8.5 1.8l.2 1.8c.6 3.3 2.4 10.1 10.3 13.2l13.7 5.9c-1.6-6.8 2.7-17.8-2.1-21.3"/><path fill="#57575E" d="M167.6 357.8h13.1c4.9 0 8.8-4 8.8-8.7V317h-30.6v32c0 4.9 4 8.8 8.7 8.8"/><path fill="#7F786A" d="M156 321.4h36.4V317H156z"/></g></svg>