<svg xmlns="http://www.w3.org/2000/svg" xmlns:xlink="http://www.w3.org/1999/xlink" width="557" height="373" viewBox="0 0 557 373">
    <defs>
        <path id="prefix__a" d="M0 0.957L555.409 0.957 555.409 25 0 25z"/>
        <path id="prefix__c" d="M0 371L555.409 371 555.409 0.664 0 0.664z"/>
        <path id="prefix__e" d="M2.787 3.814S1.757 2.575.15.541c1.248 2.895 2.637 3.273 2.637 3.273"/>
        <linearGradient id="prefix__f" x1="60.097%" x2="34.729%" y1="73.913%" y2="21.61%">
            <stop offset="0%" stop-color="#DBEBFF"/>
            <stop offset="100%" stop-color="#FFF"/>
        </linearGradient>
    </defs>
    <g fill="none" fill-rule="evenodd">
        <g transform="translate(1) translate(0 .336)">
            <path fill="#FFF4DD" d="M351.345 358.979H54.116C4.901 310.147-.064 278.6 6.369 258.129c10.123-32.216 42.088-49.023 45.897-78.914 3.508-27.526-11.272-32.621-5.33-56.372 8.557-34.203 46.643-53.361 67.422-63.814 26.132-13.145 86.454-36.418 108.561-16.336 15.754 14.31-5.466 34.679 8.666 57.216 24.774 39.508 117.054 20.091 127.321 48.97 6.827 19.205-30.304 38.461-19.998 60.751 5.145 11.129 15.95 9.962 30.854 25.526 15.267 15.943 20.273 34.235 21.712 42.884 6.895 41.438-32.579 74.951-40.129 80.939"/>
            <g transform="translate(0 346)">
                <mask id="prefix__b" fill="#fff">
                    <use xlink:href="#prefix__a"/>
                </mask>
                <path fill="#F7E8C8" d="M555.409 12.978c0 6.64-124.333 12.022-277.704 12.022C124.333 25 0 19.618 0 12.978 0 6.339 124.333.957 277.705.957c153.37 0 277.704 5.382 277.704 12.021" mask="url(#prefix__b)"/>
            </g>
            <path fill="#A4B750" d="M499.934 256.412c2.356-1.303 13.225-7.622 15.364-19.626 1.282-7.192-.454-17.077-4.946-18.243-4.379-1.137-10.35 6.284-12.847 12.39-4.68 11.442.993 22.786 2.43 25.479M504.192 262.935c2.362 1.292 13.52 7.086 24.803 2.465 6.761-2.77 14.178-9.529 12.757-13.947-1.385-4.307-10.85-5.376-17.343-4.215-12.169 2.176-18.71 13.041-20.217 15.697M492.53 260.666c.363-2.668 1.787-15.159-6.562-24.044-5.003-5.326-13.968-9.838-17.585-6.932-3.528 2.834-1.144 12.055 2.262 17.706 6.38 10.587 18.867 12.814 21.885 13.27"/>
            <path fill="#316C35" d="M489.032 287.806l-1.664-.756c3.584-7.895 6.792-16.063 9.535-24.276 3.746-11.219 6.727-22.817 8.858-34.472l1.798.33c-2.146 11.738-5.148 23.421-8.922 34.721-2.763 8.272-5.995 16.5-9.605 24.453"/>
            <path fill="#316C35" d="M497.264 264.992l-.255-.135c-.48-.255-11.893-6.452-21.5-24.05l1.604-.875c8.565 15.689 18.813 22.174 20.51 23.172 2.41-.32 18.892-2.638 30.887-7.76l.717 1.68c-13.144 5.614-31.494 7.91-31.677 7.933l-.286.035z"/>
            <path fill="#FFDDCF" d="M164.187 130.561L164.187 154.715 489.249 154.715 489.249 130.361 326.915 47.673z"/>
            <path fill="#F7C7BA" d="M170.706 135.13L170.706 146.81 482.125 146.81 482.125 134.651 326.885 55.578z"/>
            <path fill="#FFDDCF" d="M335.58 90.358c1.012 0 1.833-1.014 1.833-2.263 0-1.248-.821-2.261-1.833-2.261h-18.326c-1.012 0-1.833 1.013-1.833 2.26 0 1.25.82 2.264 1.833 2.264h7.33c2.386 0 4.402 1.896 5.16 4.524h-12.49c-1.012 0-1.833 1.014-1.833 2.263 0 1.249.82 2.263 1.833 2.263h12.49c-.758 2.629-2.774 4.524-5.16 4.524h-7.33c-.24 0-.477.059-.701.172-.447.23-.806.67-.993 1.227-.187.55-.187 1.175 0 1.728.092.28.227.529.4.737l14.657 18.094c.359.444.828.665 1.298.665.469 0 .938-.221 1.297-.66.715-.883.715-2.316 0-3.2l-11.535-14.238h2.907c4.428 0 8.126-3.891 8.976-9.05h2.02c1.012 0 1.833-1.013 1.833-2.262 0-1.25-.821-2.263-1.833-2.263h-2.02c-.274-1.682-.883-3.203-1.693-4.524h3.713z"/>
            <mask id="prefix__d" fill="#fff">
                <use xlink:href="#prefix__c"/>
            </mask>
            <path fill="#FFDDCF" d="M166.126 356.994L484.065 356.994 484.065 329.446 166.126 329.446z" mask="url(#prefix__d)"/>
            <path fill="#EABBAB" d="M162.247 356.994L491.188 356.994 491.188 343.221 162.247 343.221z" mask="url(#prefix__d)"/>
            <path fill="#F7C7BA" d="M195.569 329.446L236.497 329.446 236.497 318.821 195.569 318.821zM195.569 165.341L236.497 165.341 236.497 154.715 195.569 154.715z" mask="url(#prefix__d)"/>
            <path fill="#FFDDCF" d="M199.505 318.821L232.562 318.821 232.562 165.342 199.505 165.342z" mask="url(#prefix__d)"/>
            <path fill="#F7C7BA" d="M199.505 165.341L232.562 173.395 232.562 165.341z" mask="url(#prefix__d)"/>
            <path fill="#EABBAB" d="M251.93 329.446L292.858 329.446 292.858 318.821 251.93 318.821z" mask="url(#prefix__d)"/>
            <path fill="#F7C7BA" d="M251.93 165.341L292.858 165.341 292.858 154.715 251.93 154.715z" mask="url(#prefix__d)"/>
            <path fill="#FFDDCF" d="M255.866 318.821L288.923 318.821 288.923 165.342 255.866 165.342z" mask="url(#prefix__d)"/>
            <path fill="#F7C7BA" d="M255.866 165.341L288.923 173.395 288.923 165.341z" mask="url(#prefix__d)"/>
            <path fill="#EABBAB" d="M363.033 329.446L403.961 329.446 403.961 318.821 363.033 318.821z" mask="url(#prefix__d)"/>
            <path fill="#F7C7BA" d="M363.033 165.341L403.961 165.341 403.961 154.715 363.033 154.715z" mask="url(#prefix__d)"/>
            <path fill="#FFDDCF" d="M366.968 318.821L400.025 318.821 400.025 165.342 366.968 165.342z" mask="url(#prefix__d)"/>
            <path fill="#F7C7BA" d="M366.968 165.341L400.025 173.395 400.025 165.341z" mask="url(#prefix__d)"/>
            <path fill="#EABBAB" d="M416.938 329.446L457.866 329.446 457.866 318.821 416.938 318.821z" mask="url(#prefix__d)"/>
            <path fill="#F7C7BA" d="M416.938 165.341L457.866 165.341 457.866 154.715 416.938 154.715z" mask="url(#prefix__d)"/>
            <path fill="#FFDDCF" d="M420.873 318.821L453.93 318.821 453.93 165.342 420.873 165.342z" mask="url(#prefix__d)"/>
            <path fill="#F7C7BA" d="M420.873 165.341L453.93 173.395 453.93 165.341z" mask="url(#prefix__d)"/>
            <path fill="#EABBAB" d="M301.017 334.311L354.233 334.311 354.233 333.909 301.017 333.909zM301.017 339.714L354.233 339.714 354.233 339.312 301.017 339.312z" mask="url(#prefix__d)"/>
            <path fill="#FFDDCF" d="M301.017 348.824L354.233 348.824 354.233 348.422 301.017 348.422zM301.017 354.228L354.233 354.228 354.233 353.826 301.017 353.826z" mask="url(#prefix__d)"/>
            <path fill="#A4B750" d="M425.461 328.524c.833-2.512 4.468-14.323-1.992-24.418-3.87-6.05-11.715-12.03-15.736-9.876-3.92 2.1-3.285 11.44-1.016 17.514 4.25 11.383 15.911 15.793 18.744 16.78" mask="url(#prefix__d)"/>
            <path fill="#316C35" d="M446.525 351.397c-.126-.094-12.737-9.484-21.701-22.432-8.95-12.923-13.598-25.549-13.644-25.674l1.457-.533c.046.125 4.633 12.573 13.462 25.324 8.814 12.73 21.224 21.975 21.348 22.067l-.922 1.248z" mask="url(#prefix__d)"/>
            <path fill="#316C35" d="M419.306 319.973L412.914 317.278 413.517 315.848 419.909 318.543zM415.732 310.205L414.229 309.817 415.733 303.994 417.235 304.382z" mask="url(#prefix__d)"/>
            <path fill="#A4B750" d="M437.457 308.625c-2.966-2.45-16.562-14.197-16.397-31.623.1-10.44 5.148-23.865 11.764-24.317 6.452-.44 12.88 11.56 14.774 20.794 3.551 17.308-7.412 31.744-10.14 35.147" mask="url(#prefix__d)"/>
            <path fill="#316C35" d="M444.87 350.33c-.041-.204-4.338-20.695-8.175-41.563-3.847-20.917-4.48-42.954-4.486-43.173l1.55-.042c.007.218.637 22.139 4.462 42.934 3.834 20.849 8.126 41.322 8.169 41.526l-1.52.318z" mask="url(#prefix__d)"/>
            <path fill="#316C35" d="M435.455 289.819L434.042 289.179 439.372 277.405 440.785 278.045zM432.854 277.391c-.3-1.154-1.241-2.13-2.073-2.99l-3.057-3.164 1.117-1.078 3.056 3.164c.917.95 2.058 2.13 2.458 3.678l-1.501.39z" mask="url(#prefix__d)"/>
            <path fill="#FDC854" d="M442.462 321.384h54.075c2.487 0 4.504 2.016 4.504 4.504v.004c0 2.487-2.017 4.504-4.504 4.504h-54.075c-2.487 0-4.504-2.017-4.504-4.504v-.004c0-2.488 2.017-4.504 4.504-4.504" mask="url(#prefix__d)"/>
            <path fill="#F89F4F" d="M437.958 328.673c0 .951.771 1.723 1.723 1.723h59.637c.951 0 1.723-.772 1.723-1.723v-.928h-63.083v.928z" mask="url(#prefix__d)"/>
            <path fill="#FDC854" d="M442.462 294.348h54.075c2.487 0 4.504 2.017 4.504 4.504v.005c0 2.487-2.017 4.503-4.504 4.503h-54.075c-2.487 0-4.504-2.016-4.504-4.503v-.005c0-2.487 2.017-4.504 4.504-4.504" mask="url(#prefix__d)"/>
            <path fill="#F89F4F" d="M437.958 301.637c0 .952.771 1.723 1.723 1.723h59.637c.951 0 1.723-.77 1.723-1.723v-.928h-63.083v.928z" mask="url(#prefix__d)"/>
            <path fill="#FFAC34" d="M544.332 350.618c12.878-10.498 14.808-29.448 4.31-42.327-10.499-12.878-29.449-14.808-42.327-4.31-12.879 10.498-14.808 29.449-4.31 42.327 10.498 12.878 29.45 14.808 42.327 4.31" mask="url(#prefix__d)"/>
            <path fill="#FFBC3F" d="M540.059 345.375c9.984-8.137 11.479-22.827 3.34-32.813-8.137-9.983-22.828-11.478-32.811-3.339-9.984 8.137-11.48 22.828-3.341 32.813 8.138 9.983 22.829 11.478 32.812 3.34" mask="url(#prefix__d)"/>
            <path fill="#FFA331" d="M534.788 323.486c.585.355 1.415.058 1.853-.664.438-.723.32-1.596-.266-1.951l-6.356-3.857-4.237-2.571c-.584-.354-1.414-.058-1.852.665-.438.722-.319 1.596.265 1.95l4.237 2.572c1.38.836 1.88 2.639 1.396 4.425l-7.22-4.382c-.584-.354-1.414-.056-1.852.666-.439.72-.32 1.595.265 1.95l7.22 4.382c-1.36 1.252-3.19 1.64-4.57.804l-4.237-2.571c-.138-.084-.296-.133-.465-.147-.339-.023-.7.105-1.004.36-.302.255-.52.615-.606 1-.046.194-.055.386-.028.566l2.125 15.6c.052.383.246.675.517.84.271.164.62.2.982.073.722-.26 1.225-1.088 1.122-1.85l-1.673-12.275 1.68 1.019c2.56 1.553 6.062.602 8.362-2.082l1.168.708c.584.356 1.414.058 1.853-.664.438-.722.32-1.595-.266-1.951l-1.167-.708c.431-1.07.613-2.161.608-3.21l2.146 1.303z" mask="url(#prefix__d)"/>
            <path fill="#FDC854" d="M445.917 348.42h54.075c2.487 0 4.504 2.016 4.504 4.503v.004c0 2.487-2.017 4.504-4.504 4.504h-54.075c-2.488 0-4.504-2.017-4.504-4.504v-.004c0-2.487 2.016-4.504 4.504-4.504" mask="url(#prefix__d)"/>
            <path fill="#F89F4F" d="M441.413 355.709c0 .95.771 1.723 1.723 1.723h59.637c.951 0 1.723-.773 1.723-1.724v-.928h-63.083v.929z" mask="url(#prefix__d)"/>
            <path fill="#FDC854" d="M445.917 339.408h54.075c2.487 0 4.504 2.017 4.504 4.504v.004c0 2.487-2.017 4.504-4.504 4.504h-54.075c-2.488 0-4.504-2.017-4.504-4.504v-.004c0-2.487 2.016-4.504 4.504-4.504" mask="url(#prefix__d)"/>
            <path fill="#F89F4F" d="M441.413 346.697c0 .95.771 1.723 1.723 1.723h59.637c.951 0 1.723-.772 1.723-1.723v-.928h-63.083v.928z" mask="url(#prefix__d)"/>
            <path fill="#FDC854" d="M445.917 330.396h54.075c2.487 0 4.504 2.017 4.504 4.504v.004c0 2.487-2.017 4.504-4.504 4.504h-54.075c-2.488 0-4.504-2.017-4.504-4.504v-.004c0-2.487 2.016-4.504 4.504-4.504" mask="url(#prefix__d)"/>
            <path fill="#F89F4F" d="M441.413 337.685c0 .951.771 1.723 1.723 1.723h59.637c.951 0 1.723-.772 1.723-1.723v-.928h-63.083v.928z" mask="url(#prefix__d)"/>
            <path fill="#FDC854" d="M445.917 312.373h54.075c2.487 0 4.504 2.016 4.504 4.502v.005c0 2.488-2.017 4.505-4.504 4.505h-54.075c-2.488 0-4.504-2.017-4.504-4.505v-.005c0-2.486 2.016-4.502 4.504-4.502" mask="url(#prefix__d)"/>
            <path fill="#F89F4F" d="M441.413 319.66c0 .953.771 1.725 1.723 1.725h59.637c.951 0 1.723-.772 1.723-1.724v-.927h-63.083v.927z" mask="url(#prefix__d)"/>
            <path fill="#FDC854" d="M443.552 303.36h54.075c2.487 0 4.504 2.017 4.504 4.504v.005c0 2.487-2.017 4.504-4.504 4.504h-54.075c-2.487 0-4.504-2.017-4.504-4.504v-.005c0-2.487 2.017-4.504 4.504-4.504" mask="url(#prefix__d)"/>
            <path fill="#F89F4F" d="M439.048 310.649c0 .952.77 1.724 1.723 1.724h59.637c.95 0 1.723-.772 1.723-1.724v-.928h-63.083v.928z" mask="url(#prefix__d)"/>
            <path fill="#FDC854" d="M444.78 285.336h54.075c2.487 0 4.504 2.017 4.504 4.504v.004c0 2.488-2.017 4.504-4.504 4.504H444.78c-2.488 0-4.504-2.016-4.504-4.503v-.005c0-2.487 2.016-4.504 4.504-4.504" mask="url(#prefix__d)"/>
            <path fill="#F89F4F" d="M440.276 292.625c0 .952.771 1.724 1.723 1.724h59.637c.951 0 1.723-.772 1.723-1.724v-.928h-63.083v.928z" mask="url(#prefix__d)"/>
            <path fill="#FDC854" d="M445.707 276.325h54.075c2.487 0 4.504 2.017 4.504 4.504v.004c0 2.488-2.017 4.504-4.504 4.504h-54.075c-2.488 0-4.504-2.016-4.504-4.504v-.004c0-2.487 2.017-4.504 4.504-4.504" mask="url(#prefix__d)"/>
            <path fill="#F89F4F" d="M441.203 283.614c0 .95.77 1.723 1.723 1.723h59.637c.95 0 1.723-.772 1.723-1.723v-.928h-63.083v.928z" mask="url(#prefix__d)"/>
            <path fill="#FFE2B7" d="M397.258 352.208L403.396 352.208 403.396 350.714 397.258 350.714z" mask="url(#prefix__d)"/>
            <path fill="#7F786A" d="M403.37 350.714s2.663 2.563 0 5.225h-15.846c-.076-.314-.412-1.852.507-3.373.741-1.227 1.856-1.71 2.223-1.852h7.59s2.746 1.607 5.526 0" mask="url(#prefix__d)"/>
            <path fill="#57575E" d="M385.26 357.399L403.839 357.399 403.839 355.939 385.26 355.939zM390.254 350.714c-2.482 0-4.494 2.012-4.494 4.494v.731h2.427c-.05-.545-.057-1.39.234-2.359.455-1.513 1.376-2.456 1.833-2.866" mask="url(#prefix__d)"/>
            <path fill="#FFE2B7" d="M398.473 347.909L398.65 350.947 402.746 350.869 403 347.732z" mask="url(#prefix__d)"/>
            <path fill="#A29C8F" d="M398.056 349.069h5.475L426.6 226.585l-.826-34.13-18.54-4.777s-11.18 19.478-10.935 42.264c.108 10.055 1.443 98.356 1.757 119.127" mask="url(#prefix__d)"/>
            <path fill="#57575E" d="M456.434 357.392L468.535 357.392 468.535 355.939 456.434 355.939z" mask="url(#prefix__d)"/>
            <path fill="#FFE2B7" d="M458.654 347.927L459.3 350.947 463.397 350.868 463.201 347.732z" mask="url(#prefix__d)"/>
            <path fill="#7F786A" d="M464.238 350.714c1.353 0 2.643.664 3.354 1.815l.022.037c.919 1.521.583 3.06.507 3.373h-10.357c-1.382-1.38-1.33-2.736-.96-3.72.342-.908 1.215-1.505 2.185-1.505h5.249z" mask="url(#prefix__d)"/>
            <path fill="#A29C8F" d="M463.997 349.069c-.564-20.032-3.258-115.43-3.719-127.583-.558-14.67-8.427-29.19-8.427-29.19-5.228.51-23.258.462-28.823 0-.452 5.863 1.342 16.71 1.504 23.664.143 6.092 1.481 5.405 2.068 10.625l31.76 122.484h5.637z" mask="url(#prefix__d)"/>
            <path fill="#7F786A" d="M463.997 349.069c-.564-20.032-3.258-115.43-3.719-127.583-.558-14.67-8.427-29.19-8.427-29.19-2.598.254-8.357.37-14.177.365l-1.548.705s8.763 17.006 10.351 29.586c1.194 9.458 10.554 87.81 15.127 126.117h2.393z" mask="url(#prefix__d)"/>
            <path fill="#57575E" d="M393.754 353.756L391.952 351.955 393.462 350.445 395.263 352.246z" mask="url(#prefix__d)"/>
            <path fill="#57575E" d="M395.874 353.756L394.072 351.955 395.582 350.445 397.384 352.246z" mask="url(#prefix__d)"/>
            <path fill="#FFE2B7" d="M367.637 155.89l-3.389.147s-3.988 2.94-9.039-.589c-5.052-3.53.959-3.977.959-3.977l10.771-.469.698 4.888z" mask="url(#prefix__d)"/>
            <path fill="#FFE2B7" d="M361.587 152.123c-2.765-3.472-3.792-4.012-4.2-3.792-.56.303-.57 2.39.79 3.52.951.792 2.318.905 3.41.272" mask="url(#prefix__d)"/>
            <path fill="#FFBF4D" d="M415.967 130.562s-11.529 6.734-20.523 12.805c-5.985 4.038-13.105 6.018-20.319 5.728-.945-.038-1.907-.063-2.884-.077-9.054-.118-7.645.699-14.036 2.035l-1.265 5.059s30.532 6.932 52.898-3.077c22.366-10.01 6.13-22.473 6.13-22.473" mask="url(#prefix__d)"/>
            <path fill="#FFA331" d="M409.29 190.374c-2.168-.544-3.656-2.534-3.55-4.768.543-11.284 2.07-24.091 5.353-37.918 1.448-6.099 3.099-11.814 4.859-17.131l20.465-4.396 15.774 6.288c1.093 9.04 1.835 19.257 1.836 30.457 0 10.157-.608 19.5-1.533 27.879-.094.85-.75 1.53-1.597 1.655-5.441.804-11.922 1.332-19.206 1.085-8.674-.292-16.237-1.607-22.4-3.151" mask="url(#prefix__d)"/>
            <path fill="#FFBF4D" d="M409.29 190.374c-2.168-.544-3.656-2.534-3.55-4.768.543-11.284 3.047-24.036 6.33-37.863 1.448-6.099 3.669-12.201 5.429-17.518 6.82-1.466 12.097-2.6 18.918-4.064l15.774 6.288c1.093 9.04 1.835 19.257 1.836 30.457 0 10.157-.608 19.5-1.533 27.879-.094.85-.75 1.53-1.597 1.655-5.441.804-11.922 1.332-19.206 1.085-8.674-.292-16.237-1.607-22.4-3.151" mask="url(#prefix__d)"/>
            <path fill="#FFA331" d="M452.694 172.725c1.865-.765 3.519-1.339 4.812-1.619 0 0-9.575-20.694-8.541-27.866 1.035-7.17 3.226-10.79 3.226-10.79s19.546 22.594 19.069 37.587c-.131 4.107-3.594 7.547-8.554 10.377-3.66-1.744-7.248-4.667-10.012-7.689" mask="url(#prefix__d)"/>
            <path fill="#FFA331" d="M450.897 192.44c.847-.124 1.503-.805 1.597-1.655.925-8.38 1.534-17.721 1.533-27.878 0-11.2-.744-21.417-1.837-30.457l-15.773-6.29c-.957.206-1.88.405-2.786.598 2.516 6.417 4.766 14.05 6.003 22.77 2.522 17.779-.155 33.084-3.447 44.054 5.472-.046 10.416-.508 14.71-1.141" mask="url(#prefix__d)"/>
            <path fill="#FFA331" d="M432.918 189.949c-1.582.303-2.964.545-4.075.73-.185.032-.363.06-.531.088-1.528.249-2.416.37-2.416.37l.5-1.722 1-3.444s9.955-5.922 18.933-10.338c.207-.103.416-.205.623-.306.83-.403 1.65-.793 2.45-1.162 1.531-.705 2.988-1.335 4.315-1.85 2.009 1.445 3.983 3.168 5.988 4.917 1.172 1.024 2.24 2.05 3.212 3.06-7.494 4.34-18.523 7.264-26.595 8.97-1.209.257-2.35.485-3.404.687" mask="url(#prefix__d)"/>
            <path fill="#57575E" d="M434.639 134.185L439.159 160.431 434.285 178.609 425.796 161.172z" mask="url(#prefix__d)"/>
            <path fill="#FFE2B7" d="M443.204 116.227L441.64 128.544 431.551 130.126 433.699 114.297z" mask="url(#prefix__d)"/>
            <path fill="#FFC581" d="M433.699 114.297l9.505 1.93-.11.87c-1.024 4.111-5.16 7.904-9.074 7.032-.564-.126-1.087-.344-1.57-.63l1.249-9.202z" mask="url(#prefix__d)"/>
            <path fill="#FFE2B7" d="M434.57 104.23c-2.852 1.557-3.475 4.633-3.677 5.626-.827 4.08.776 10.192 4.975 11.145 3.944.893 8.321-3.182 9.184-7.533.623-3.14-.385-7.43-3.763-9.228-1.914-1.02-4.528-1.207-6.72-.01" mask="url(#prefix__d)"/>
            <path fill="#57575E" d="M443.334 112.546c.04.45.164 2.348-1.057 3.396-1.54 1.32-4.173.394-4.84.16-1.483-.522-1.688-1.127-2.74-1.243-1.519-.167-2.884.898-3.793 1.815-.046.852.01 2.43 1.034 3.684 1.964 2.406 6.216 2.05 8.809.498 3.44-2.06 4.993-6.85 3.852-8.006-.303-.309-.793-.353-1.265-.304M443.334 112.546c.08-.309.914-3.639-.825-5.605-.34-.382-1.475-1.648-2.78-1.507-.411.044-.623.204-3.341 2.04-.662.446-1.022.68-1.525.656-.767-.038-1.43-.652-1.736-1.247-.649-1.258.078-2.853.815-3.703 1.255-1.45 3.281-1.45 4.09-1.395 0 0 .149.01.293.027 2.846.337 6.504 3.702 6.96 7.047.102.75.012 1.257-.115 1.637-.401 1.194-1.417 1.821-1.837 2.05" mask="url(#prefix__d)"/>
            <path fill="#FFE2B7" d="M446.95 112.699c.214-1.093-.5-2.152-1.593-2.366-1.093-.214-2.153.499-2.366 1.593-.214 1.092.499 2.153 1.592 2.366 1.094.214 2.153-.5 2.367-1.593" mask="url(#prefix__d)"/>
            <path fill="#FFA331" d="M428.794 128.082c.67-.626 1.422-1.33 2.29-1.25.586.056.71.41 1.635.93.818.458 1.578.65 2.077.74.036.388.073 1.346-.457 2.382-.558 1.092-1.416 1.629-1.753 1.817-.768-.284-1.788-.755-2.849-1.542-.862-.64-1.505-1.306-1.967-1.861.205-.313.535-.76 1.024-1.216" mask="url(#prefix__d)"/>
            <path fill="#FFA331" d="M442.71 128.038c-.41-.51-.85-.83-1.156-1.02-.367.006-.788.03-1.251.086-.659.08-1.154.199-1.503.285-1.629.402-3.64 1.003-4.004 1.114.132.628.35 1.398.723 2.237.322.726.68 1.327 1.01 1.805.812-.611 1.94-1.34 3.387-1.945 1.38-.58 2.632-.872 3.606-1.027-.113-.368-.339-.948-.811-1.535" mask="url(#prefix__d)"/>
            <path fill="#57575E" d="M434.966 128.544L436.529 132.544 434.639 134.185 432.586 132.7z" mask="url(#prefix__d)"/>
            <path fill="#FFE2B7" d="M425.015 186.944c-3.226-2.66-4.278-2.958-4.61-2.676-.458.389-.06 2.314 1.414 3.092 1.032.544 2.314.38 3.196-.416M353.62 152.101c.652-.275 1.999.886 2.372 2.266.54 2.001-1.093 3.98-1.844 3.846-1.148-.205-1.703-5.615-.527-6.112" mask="url(#prefix__d)"/>
            <path fill="#FFE2B7" d="M429.026 190.68l-3.13.457c-.602.495-1.542 1.162-2.817 1.673-1.188.475-3.951 1.583-6.188.28-1.566-.91-2.647-2.872-2.16-3.608.522-.785 2.33.572 4.91-.237 1.628-.509 1.8-1.327 3.802-2.256 1.554-.722 2.989-.944 3.952-1.018.533 1.456 1.099 3.251 1.63 4.708" mask="url(#prefix__d)"/>
            <path fill="#FFAC34" d="M425.103 165.585c-2.832-20.324-21.603-34.504-41.927-31.672-20.323 2.832-34.504 21.603-31.672 41.927 2.832 20.324 21.603 34.504 41.927 31.672 20.324-2.832 34.504-21.604 31.672-41.927" mask="url(#prefix__d)"/>
            <path fill="#FFBC3F" d="M416.83 166.738c-2.194-15.755-16.746-26.747-32.501-24.552-15.756 2.195-26.748 16.746-24.552 32.502 2.195 15.755 16.746 26.747 32.502 24.553 15.755-2.195 26.748-16.748 24.552-32.503" mask="url(#prefix__d)"/>
            <path fill="#FFA331" d="M390.342 158.277c.75-.39.967-1.457.485-2.382-.48-.926-1.48-1.36-2.229-.97l-8.145 4.24-5.43 2.825c-.749.39-.966 1.457-.485 2.383.481.925 1.48 1.358 2.23.968l5.43-2.826c1.767-.92 3.991-.292 5.566 1.363l-9.252 4.815c-.75.39-.967 1.457-.485 2.382.481.925 1.48 1.359 2.23.97l9.251-4.816c.452 2.239-.31 4.42-2.078 5.34l-5.43 2.827c-.176.092-.33.227-.452.397-.242.343-.339.807-.263 1.29.074.482.315.944.666 1.28.176.174.372.306.58.393l17.832 7.752c.437.19.87.174 1.218-.007.347-.181.61-.526.706-.99.19-.928-.363-1.991-1.233-2.37l-14.033-6.1 2.153-1.12c3.28-1.706 4.52-6.014 3.16-10.163l1.496-.778c.75-.391.967-1.458.486-2.383-.482-.924-1.48-1.36-2.23-.968l-1.496.778c-.852-1.141-1.889-2.032-2.998-2.698l2.75-1.432zM212.566 205.061c-28.155 0-51.06-22.905-51.06-51.06 0-14.951 6.524-29.103 17.898-38.827l68.465-58.243c7.627-6.362 17.312-9.872 27.262-9.872 23.475 0 42.572 19.098 42.572 42.571 0 9.733-3.195 18.891-9.241 26.488l-.442.55v-1.755c5.625-7.301 8.592-16.026 8.592-25.283 0-22.872-18.608-41.479-41.481-41.479-9.694 0-19.126 3.415-26.559 9.616l-68.46 58.238c-11.132 9.516-17.515 23.365-17.515 37.996 0 27.553 22.416 49.968 49.969 49.968 15.942 0 30.555-7.341 40.093-20.14l54.927-68.363c.146-.183.29-.367.433-.552l-.004 1.761-54.471 67.795c-9.777 13.101-24.701 20.591-40.978 20.591" mask="url(#prefix__d)"/>
            <path fill="#FFA331" d="M222.677 160.34c-2.383 6.665-9.72 10.137-16.384 7.753-6.666-2.383-10.137-9.719-7.753-16.384 2.383-6.665 9.718-10.137 16.383-7.754 6.666 2.384 10.137 9.72 7.754 16.385zm27.435-7.64c-.281-3.36-.988-6.63-2.078-9.744l9.929-8.695-10.108-14.695-11.676 6.167c-2.513-2.125-5.31-3.95-8.34-5.41l.872-13.15-17.54-3.243-3.887 12.591c-3.346.28-6.602.981-9.702 2.063l-8.688-9.92-14.695 10.108 6.149 11.643c-2.14 2.523-3.974 5.332-5.442 8.378l-13.15-.87-3.242 17.538 12.59 3.888c.269 3.205.925 6.328 1.93 9.31l-9.978 8.74 10.109 14.694 11.517-6.083c2.604 2.256 5.52 4.186 8.695 5.717l-.871 13.15 17.538 3.242 3.889-12.59c3.353-.282 6.616-.986 9.723-2.072l8.698 9.934 14.696-10.109-6.164-11.67c2.13-2.517 3.96-5.319 5.425-8.357l13.148.872 3.244-17.539-12.591-3.888z" mask="url(#prefix__d)"/>
            <path fill="#FFBC3F" d="M287.213 91.144c-2.293 5.252-8.41 7.65-13.66 5.357-5.252-2.293-7.65-8.409-5.357-13.661 2.293-5.251 8.409-7.649 13.66-5.356 5.252 2.293 7.65 8.409 5.357 13.66zm22.579-4.654c-.041-2.73-.431-5.409-1.14-7.985l8.5-6.473-7.352-12.426-9.771 4.335c-1.912-1.856-4.07-3.484-6.436-4.83l1.43-10.572-13.986-3.588-3.835 9.954c-2.718.041-5.386.427-7.95 1.131l-6.468-8.493-12.426 7.352 4.323 9.743c-1.867 1.92-3.505 4.087-4.86 6.466l-10.57-1.43-3.588 13.986 9.954 3.836c.039 2.602.397 5.161 1.045 7.626l-8.542 6.505 7.352 12.427 9.637-4.276c1.979 1.966 4.227 3.685 6.707 5.096l-1.43 10.572 13.985 3.589 3.836-9.954c2.724-.042 5.398-.43 7.967-1.136l6.477 8.504 12.426-7.353-4.333-9.765c1.86-1.916 3.492-4.078 4.843-6.45l10.57 1.43 3.589-13.985-9.954-3.836z" mask="url(#prefix__d)"/>
            <path fill="#FFA331" d="M219.367 156.025c0-4.838-3.922-8.76-8.759-8.76-4.838 0-8.759 3.922-8.759 8.76 0 4.837 3.921 8.759 8.759 8.759 4.837 0 8.759-3.922 8.759-8.76" mask="url(#prefix__d)"/>
            <path fill="#FFBC3F" d="M284.928 86.993c0-3.99-3.234-7.224-7.223-7.224-3.99 0-7.224 3.235-7.224 7.224 0 3.989 3.234 7.224 7.224 7.224 3.989 0 7.223-3.235 7.223-7.224" mask="url(#prefix__d)"/>
            <path fill="#57575E" d="M192.05 63.798h-1.789c-1.143 0-2.069-.926-2.069-2.068v-3.219h5.926v3.22c0 1.141-.927 2.067-2.069 2.067" mask="url(#prefix__d)"/>
            <path fill="#FDC854" d="M213.8 23.209c0-12.633-10.392-22.84-23.093-22.538-12.227.288-22.08 10.465-21.998 22.695.058 8.49 4.813 15.864 11.795 19.657 1.608.874 2.606 2.563 2.606 4.393V59.15c0 1.694 1.373 3.067 3.067 3.067h10.154c1.694 0 3.067-1.373 3.067-3.067V47.416c0-1.823.985-3.514 2.588-4.384 7.035-3.815 11.813-11.26 11.813-19.825" mask="url(#prefix__d)"/>
            <path fill="#EFEEFE" d="M184.84 23.172c-.545 0-.959.413-.959.92 0 .507.414.92.92.92h.958v-.92c0-.507-.413-.92-.92-.92m2.43 37.394c-.834 0-1.51-.677-1.51-1.51V28.031h-.958c-2.172 0-3.94-1.767-3.94-3.94s1.768-3.94 3.94-3.94c2.211 0 3.978 1.767 3.978 3.94v.92h4.002c.834 0 1.51.676 1.51 1.51 0 .835-.676 1.51-1.51 1.51h-4.002v31.023c0 .834-.676 1.511-1.51 1.511" mask="url(#prefix__d)"/>
            <path fill="#EFEEFE" d="M196.75 25.012h.957c.508 0 .92-.413.92-.92 0-.507-.412-.92-.92-.92-.544 0-.957.413-.957.92v.92zm-1.51 35.554c-.834 0-1.51-.677-1.51-1.51V28.032h-4.003c-.833 0-1.51-.676-1.51-1.51 0-.835.677-1.51 1.51-1.51h4.003v-.92c0-2.174 1.767-3.94 3.94-3.94 2.21 0 3.978 1.766 3.978 3.94 0 2.172-1.768 3.94-3.941 3.94h-.957v31.022c0 .834-.676 1.511-1.51 1.511z" mask="url(#prefix__d)"/>
            <path fill="#7F786A" d="M193.762 62.588h-5.214c-3.333 0-6.034-2.7-6.034-6.033V47.17h17.281v9.386c0 3.332-2.7 6.033-6.033 6.033" mask="url(#prefix__d)"/>
            <path fill="#57575E" d="M200.137 52.896h-18.086c-.834 0-1.51-.677-1.51-1.511 0-.834.676-1.51 1.51-1.51h18.086c.834 0 1.51.676 1.51 1.51s-.676 1.511-1.51 1.511M200.137 56.577h-18.086c-.834 0-1.51-.676-1.51-1.511 0-.834.676-1.51 1.51-1.51h18.086c.834 0 1.51.676 1.51 1.51 0 .835-.676 1.51-1.51 1.51M200.137 60.258h-18.086c-.834 0-1.51-.677-1.51-1.51 0-.835.676-1.51 1.51-1.51h18.086c.834 0 1.51.675 1.51 1.51 0 .833-.676 1.51-1.51 1.51" mask="url(#prefix__d)"/>
            <path fill="#A4B750" d="M48.74 312.11s-40.253-16.084-18.08-29.258c0 0-26.337-37.617-1.316-27.884 0 0 6.95-48.177 29.397-2.778 0 0 15.54-8.03 2.072 21.31 0 0 30.093-2.801-12.073 38.61" mask="url(#prefix__d)"/>
            <path fill="#316C35" d="M60.597 358.224c-.273-.383-6.767-9.739-12.096-42.067-5.313-32.235-2.819-60.072-2.793-60.349l1.82.17c-.026.274-2.496 27.89 2.776 59.881 5.26 31.911 11.715 41.211 11.78 41.301l-1.487 1.064z" mask="url(#prefix__d)"/>
            <path fill="#316C35" d="M45.858 288.135L36.222 277.358 37.585 276.139 47.221 286.916zM46.876 272.377L45.471 271.206 53.498 261.577 54.901 262.748z" mask="url(#prefix__d)"/>
            <path fill="#A4B750" d="M43.346 343.068s-31.755 4.146-16.688-13.035c0 0-28.203-8.505-14.683-14.28 0 0-10.788-36.251 17.246-3.776 0 0 7.656-8.684 9.052 8.447 0 0 19.569-14.48 5.277 22.87" mask="url(#prefix__d)"/>
            <path fill="#316C35" d="M55.836 360.897c-10.13-12.61-29.311-39.783-29.503-40.057l1.494-1.053c.191.272 19.34 27.399 29.433 39.965l-1.424 1.145z" mask="url(#prefix__d)"/>
            <path fill="#FFC581" d="M132.86 120.294c7.039-.46 13.553 3.724 16.063 10.316 3.08 8.09 6.776 18.434 7.46 23.17 0 0 16.124 15.727 22.69 21.956l-3.491 3.023s-21.943-14.268-28.632-20.54c-6.688-6.274-14.09-37.925-14.09-37.925" mask="url(#prefix__d)"/>
            <path fill="#F6A19E" d="M69.817 352.201L69.495 353.158 71.66 355.42 73.954 354.412 74.802 353.158 75.047 352.17zM146.819 352.166L146.689 353.158 147.734 354.878 150.805 354.589 151.722 354.026 151.995 353.158 151.987 351.899z" mask="url(#prefix__d)"/>
            <path fill="#47B27C" d="M117.255 187.958c.774-.115 1.224-2.013.933-3.538-.44-2.298-2.494-3.524-2.84-3.724-.309.625-.794 1.852-.577 3.383.275 1.94 1.623 4.006 2.484 3.879" mask="url(#prefix__d)"/>
            <path fill="#47B27C" d="M117.347 186.886c-.215.753 1.329 1.945 2.839 2.31 2.274.546 4.237-.82 4.563-1.053-.442-.539-1.36-1.486-2.846-1.92-1.88-.55-4.318-.175-4.556.663" mask="url(#prefix__d)"/>
            <path fill="#47B27C" d="M118.395 185.961c.475.622 2.354.1 3.55-.893 1.8-1.494 1.88-3.883 1.888-4.284-.696.031-2.005.2-3.24 1.13-1.567 1.176-2.726 3.355-2.198 4.047" mask="url(#prefix__d)"/>
            <path fill="#57575E" d="M114.754 105.52h-1.393c-1.78 0-3.223-1.442-3.223-3.223v-4.114h4.616v7.337z" mask="url(#prefix__d)"/>
            <path fill="#A29C8F" d="M104.097 178.189S91.06 194.885 68.969 352.2l6.605-.034 52.039-144.72V178.19h-23.516z" mask="url(#prefix__d)"/>
            <path fill="#A29C8F" d="M143.397 169.228s15.734 12.375 15.66 45.602c-.035 14.881-7.07 137.069-7.07 137.069l-5.168.267c-9.165-46.52-15.797-92.24-23.367-139.554-1.084-.155-6.634-.56-7.596-1.691-2.11-2.479-.051-6.801-.096-8.704-.178-7.609-.227-25.01.267-31.425 6.089.505 21.65-1.005 27.37-1.564" mask="url(#prefix__d)"/>
            <path fill="#7F786A" d="M151.987 351.899s7.035-122.188 7.069-137.07c.075-33.226-15.66-45.601-15.66-45.601-1.326.155-2.68.3-4.055.437l-3.703 2.36s11.13 65.11 10.863 104.043c-.15 21.635-.131 51.64-.086 74.034.135.689.268 1.376.404 2.065l5.168-.268z" mask="url(#prefix__d)"/>
            <path fill="#FFBC3F" d="M146.044 178.752c2.157-.526 3.647-2.492 3.554-4.71-.469-11.207-1.908-23.935-5.082-37.683-1.4-6.063-3.004-11.749-4.719-17.04l-20.293-4.489-15.7 6.15c-1.14 8.967-1.94 19.107-2.01 30.227-.063 10.085.485 19.363 1.352 27.69.088.844.735 1.524 1.575 1.653 5.398.83 11.83 1.394 19.063 1.195 8.614-.237 16.132-1.497 22.26-2.993" mask="url(#prefix__d)"/>
            <path fill="#FFA331" d="M147.857 178.293c1.097-.288 1.847-1.294 1.81-2.428-.386-11.64-1.803-25.006-5.151-39.506-1.4-6.063-2.469-11.843-4.184-17.134-4.336-.96-9.208-1.824-13.544-2.784-1.418.225-3.468.797-4.608 2.468-1.5 2.2-.64 5.156-.381 6.11 1.462 5.381 5.385 26.53 10.734 56.12 5.814-.646 10.965-1.7 15.324-2.846" mask="url(#prefix__d)"/>
            <path fill="#FFE2B7" d="M112.827 104.927L114.64 119.944 124.312 118.798 122.276 103.069z" mask="url(#prefix__d)"/>
            <path fill="#FFC581" d="M122.276 103.069l-9.45 1.858.105.863c.99 4.09 5.075 7.88 8.966 7.039.56-.122 1.082-.334 1.563-.617l-1.184-9.143z" mask="url(#prefix__d)"/>
            <path fill="#FFE2B7" d="M121.134 93.757c.35.202 3.008 1.794 3.954 4.92 1.256 4.15-.777 10.117-5.008 11.033-4.048.877-8.306-3.263-9.072-7.534-.678-3.786 1.245-8.469 4.668-9.477 2.407-.709 4.737.64 5.458 1.058" mask="url(#prefix__d)"/>
            <path fill="#57575E" d="M125.052 89.87c.996 1.91-3.22 5.738-3.636 6.11-3.596 3.217-9.437 5.25-11.14 3.359-1.25-1.391-.098-4.716 1.418-6.688 3.688-4.795 12.184-5.032 13.358-2.781" mask="url(#prefix__d)"/>
            <path fill="#FFE2B7" d="M109.851 101.801c-.206-1.087.51-2.134 1.596-2.34 1.087-.205 2.134.51 2.34 1.596.205 1.087-.509 2.135-1.596 2.341-1.087.205-2.134-.51-2.34-1.597" mask="url(#prefix__d)"/>
            <path fill="#FFF" d="M123.651 106.09c.087.366-.59.875-1.17 1.041-1.014.291-2.26-.313-2.914-1.578 3.166-.137 4 .178 4.084.536" mask="url(#prefix__d)"/>
            <path fill="#FFE2B7" d="M105.16 176.13c1.279.96 2.405 1.78 3.314 2.431l.437.31c1.252.89 1.99 1.385 1.99 1.385l.308-1.754.613-3.508s-6.291-9.629-12.367-17.487l-.423-.545c-.564-.723-1.125-1.428-1.677-2.106-1.057-1.298-2.082-2.496-3.04-3.533-2.422.41-4.935 1.083-7.486 1.768-1.492.4-2.892.851-4.2 1.326 4.786 7.144 13.344 14.567 19.796 19.614.966.756 1.884 1.458 2.736 2.1" mask="url(#prefix__d)"/>
            <path fill="#FFC581" d="M175.582 178.76l2.302 2.184c.216.662.669 1.767 1.639 2.81.46.494 2.41 2.588 4.669 2.15 1.59-.309 3.067-1.823 2.817-2.655-.084-.278-.354-.456-.618-.572l-7.317-6.94-3.492 3.022z" mask="url(#prefix__d)"/>
            <path fill="#FFE2B7" d="M128.09 116.73l-8.585-1.899-9.354 3.663c1.822 1.501 4.362 2.781 7.118 3.07 4.169.437 8.27-1.452 10.82-4.834M94.517 137.933c-1.987-2.308-4.008-4.655-5.662-7.139-4.026 3.31-7.455 6.993-9.187 10.836-1.678 3.72-.092 8.3 3.094 12.99 4.025.042 8.502-.997 12.287-2.485-1.329-1.497-2.553-2.73-3.584-3.545 0 0 3.318-2.694 7.251-6.303-1.712-1.587-3.1-3.079-4.199-4.354" mask="url(#prefix__d)"/>
            <path fill="#57575E" d="M146.689 353.158s-2.557 2.46 0 5.017h11.057v-5.017h-5.751s-2.637 1.544-5.306 0" mask="url(#prefix__d)"/>
            <path fill="#7F786A" d="M153.431 358.174h8.63v-.702c0-2.383-1.932-4.315-4.315-4.315-2.383 0-4.315 1.932-4.315 4.315v.702z" mask="url(#prefix__d)"/>
            <path fill="#57575E" d="M146.239 358.978L162.431 358.978 162.431 358.174 146.239 358.174zM74.801 353.158s2.557 2.46 0 5.017H61.74l.47-5.017h7.286s2.637 1.544 5.306 0" mask="url(#prefix__d)"/>
            <path fill="#57575E" d="M57.414 358.978L75.252 358.978 75.252 358.174 57.414 358.174z" mask="url(#prefix__d)"/>
            <path fill="#7F786A" d="M62.208 353.158c-2.383 0-4.315 1.932-4.315 4.314v.703h4.315v-5.017z" mask="url(#prefix__d)"/>
            <path fill="#FFA331" d="M140.332 119.225c5.305 1.092 9.44 5.256 10.493 10.568l1.691 8.515-10.892.343-1.292-19.426z" mask="url(#prefix__d)"/>
            <path fill="#FFBC3F" d="M98.717 142.288c5.12-4.697 11.285-10.943 12.534-14.815 2.21-6.847-2.655-8.247-2.655-8.247s-10.462 2.4-19.74 11.569c1.654 2.483 3.675 4.83 5.662 7.139 1.098 1.275 2.486 2.766 4.199 4.354" mask="url(#prefix__d)"/>
            <path fill="#FFA331" d="M88.237 130.505L98.507 143.068 100.341 141.16 89.588 129.133zM142.694 137.281L153.242 136.927 153.242 139.114 142.983 139.339zM118.644 123.175c-5.299 0-9.28-3.427-9.456-3.58-.608-.533-.669-1.456-.138-2.064.53-.607 1.451-.669 2.06-.14.036.031 3.75 3.193 8.27 2.832 2.754-.22 5.308-1.712 7.59-4.433.518-.617 1.441-.699 2.06-.18.617.52.698 1.441.18 2.06-2.813 3.353-6.053 5.193-9.63 5.47-.316.023-.629.035-.936.035" mask="url(#prefix__d)"/>
            <path fill="#57575E" d="M214.007 156.025c0-1.877-1.522-3.4-3.4-3.4-1.876 0-3.398 1.523-3.398 3.4s1.522 3.398 3.399 3.398 3.399-1.521 3.399-3.398" mask="url(#prefix__d)"/>
            <path fill="#7F786A" d="M191.428 182.735h-76.086c-1.163 0-2.105-.942-2.105-2.104 0-1.164.942-2.106 2.105-2.106h73.981v-22.5c0-1.163.942-2.105 2.105-2.105h19.18c1.162 0 2.105.942 2.105 2.105 0 1.162-.943 2.105-2.105 2.105h-17.075v22.5c0 1.163-.943 2.105-2.105 2.105" mask="url(#prefix__d)"/>
            <path fill="#57575E" d="M114.718 182.154L188.771 182.154 188.771 179.197 114.718 179.197z" mask="url(#prefix__d)"/>
            <path fill="#FFE2B7" d="M113.852 176.757c4.151.085 5.135.543 5.203.97.093.59-1.453 1.781-3.066 1.412-1.129-.258-1.989-1.212-2.137-2.382" mask="url(#prefix__d)"/>
            <path fill="#FFE2B7" d="M108.49 178.194l2.413 2.063c.249.65.758 1.73 1.78 2.72.487.472 2.542 2.462 4.775 1.908 1.572-.39 2.969-1.978 2.676-2.795-.098-.275-.377-.438-.646-.541l-7.666-6.554-3.331 3.199z" mask="url(#prefix__d)"/>
            <path fill="#FFC581" d="M181.024 177.697s2.3.054 2.607.269c.31.213 1.487 2.184.809 3.316-.68 1.13-1.742-2.057-1.742-2.057l-1.674-1.528z" mask="url(#prefix__d)"/>
            <path fill="#306B34" d="M188.465 248.078s-19.304 6.485-16.678 28.74c2.627 22.257-1.155 49.375-1.155 49.375h11.004s19.602-26.427 5.158-46.227c-14.444-19.802 1.671-31.888 1.671-31.888" mask="url(#prefix__d)"/>
            <path fill="#A4B751" d="M186.936 249.464c-3.512 2.9-13.73 13.437-2.719 30.881 13.084 20.725-8.245 45.778-8.245 45.778l-5.284-.355-.056.425h11.004s19.602-26.427 5.158-46.228c-11.592-15.893-3.505-26.809.142-30.5" mask="url(#prefix__d)"/>
            <path fill="#4900BC" d="M187.687 248.742c.476-.435.778-.664.778-.664s-1.735.588-4.09 2c1.554-.753 2.76-1.166 3.312-1.336" mask="url(#prefix__d)"/>
            <path fill="#619440" d="M167.34 301.58c1.03-19.75.234-22.22-7.443-28.74-7.678-6.523-18.498-17.244-18.498-17.244 7.37 14.59 7.222 21.222 8.609 31.957 1.075 8.328 13.585 24.95 19.143 31.988-1.23-2.855-2.324-8.154-1.811-17.961" mask="url(#prefix__d)"/>
        </g>
        <g transform="translate(1) translate(169 319.336)">
            <mask id="prefix__g" fill="#fff">
                <use xlink:href="#prefix__e"/>
            </mask>
            <path fill="url(#prefix__f)" d="M2.787 3.814S1.757 2.575.15.541c1.248 2.895 2.637 3.273 2.637 3.273" mask="url(#prefix__g)"/>
        </g>
        <g>
            <path fill="#306B34" d="M43.606 10.392c-3.832 16.41 4.317 27.435 4.317 27.435h8.034c-.028-5.655.378-11.079 3.041-16.564.141-.29.309-.558.49-.814-1.134-.53-2.393-1.068-3.796-1.606-14.837-5.699-8.254-24.859-12.086-8.45" transform="translate(1) translate(120 282.336)"/>
            <path fill="#619440" d="M64.436 14.52c-8.156 4.127-5.797 21.813-5.797 21.813l7.664 2.75s-1.376-8.056 3.832-14.344c5.208-6.289 8.647-3.878 8.647-3.878s-6.19-10.469-14.346-6.341M25.33 6.168c-13.694 0-21.352 8.253-21.352 8.253s5.33-2.708 14.867-2.357c9.535.35 8.843 8.45 16.508 16.015 7.664 7.566 14.05 8.648 14.05 8.648s-10.15-14.682-17.588-24.663c-1.31-1.758-.033-5.896-6.485-5.896" transform="translate(1) translate(120 282.336)"/>
            <path fill="#FAF9FC" d="M1.325 17.24c-.056.146-.069.228-.069.228s.022-.083.069-.228" transform="translate(1) translate(120 282.336)"/>
            <path fill="#A4B751" d="M36.433 15.011c-2.555-3.439.098-11.89-16.213-9.925C5.322 6.881 1.82 15.721 1.325 17.24c.376-.98 2.76-4.974 17.126-8.223 16.508-3.734 7.763 4.814 15.231 10.22 7.467 5.403 13.56 15.523 13.56 15.523s4.225 7.075 3.241 1.18c-.982-5.896-11.495-17.49-14.05-20.929M87.036 22.38C79.568 7.15 70.539 8.142 64.535 11.473c-8.52 4.727-7.121 24.467-7.121 24.467l1.225.393s.196-3.832.849-10.416c.652-6.583 3.867-15.93 14.283-2.947 10.417 12.98 25.154 15.315 25.154 15.315s-4.421-.675-11.89-15.905" transform="translate(1) translate(120 282.336)"/>
            <path fill="#A4B751" d="M67.29 3.42c-2.346-1.722-4.729-1.427-6.568-.66-2.323.966-4.94.648-7.087-.65-7.852-4.75-8.453 1.782-8.453 1.782l.212 1.768c.011.012.011.035.011.06.566 3.277 2.406 10.093 10.282 13.123 1.403.542 13.76 5.895 13.76 5.895-1.674-6.78 2.653-17.78-2.157-21.318" transform="translate(1) translate(120 282.336)"/>
            <path fill="#57575E" d="M46.632 75.44H59.74c4.819 0 8.725-3.906 8.725-8.725V34.662H37.907v32.053c0 4.819 3.906 8.725 8.725 8.725" transform="translate(1) translate(120 282.336)"/>
            <path fill="#7F786A" d="M34.927 39.083L71.444 39.083 71.444 34.661 34.927 34.661z" transform="translate(1) translate(120 282.336)"/>
        </g>
    </g>
</svg>
