<svg xmlns="http://www.w3.org/2000/svg" xmlns:xlink="http://www.w3.org/1999/xlink" width="385" height="273" viewBox="0 0 385 273">
    <defs>
        <path id="prefix__a" d="M0 0.025L384.731 0.025 384.731 10 0 10z"/>
        <path id="prefix__c" d="M0.537 0.261L147.907 0.261 147.907 263.895 0.537 263.895z"/>
        <path id="prefix__e" d="M0 271.739L384.731 271.739 384.731 1 0 1z"/>
    </defs>
    <g fill="none" fill-rule="evenodd">
        <path fill="#FFF4DD" d="M304.686 266.71c14.156-34.07 10.449-52.343 3.857-62.825-6.396-10.172-14.005-10.934-19.326-22.95-7.246-16.365 3.275-25.553.805-46.302-2.117-17.785-13.393-40.817-31.404-47.51-21.505-7.99-34.8 13.927-55.563 6.04-20.207-7.677-15.258-32.14-38.25-42.679-14.26-6.535-34.31-5.514-45.544 4.538-11.043 9.88-3.966 21.126-16.608 39.858-10.73 15.897-18.652 12.29-24.325 24.438-9.36 20.04 10.575 33.32 3.887 58.751-5.153 19.598-19.345 20.666-22.464 37.584-2.35 12.751 2.537 29.368 23.76 51.057h221.175z"/>
        <g transform="translate(0 261.739)">
            <mask id="prefix__b" fill="#fff">
                <use xlink:href="#prefix__a"/>
            </mask>
            <path fill="#F7E8C8" d="M0 5.012C0 2.258 86.125.025 192.366.025c106.24 0 192.365 2.233 192.365 4.987 0 2.755-86.125 4.988-192.365 4.988C86.126 10 0 7.767 0 5.012" mask="url(#prefix__b)"/>
        </g>
        <path fill="#A4B751" d="M60.28 245.713c-2.44-1.448-10.73-5.784-10.783-8.847-.058-3.339 2.448-6.693 5.545-7.422 1.336-.315 2.764-.203 3.92-1.229.648-.573.96-1.534.586-2.28-.61-1.217-2.282-.739-3.527-.271-2.384.898-4.98 1.268-7.326.575-2.347-.693-4.395-2.569-4.98-5.1-.584-2.53.562-5.633 2.836-6.851 1.42-.762 3.092-.761 4.385-1.926.67-.605 1.067-1.545.824-2.398-.49-1.723-2.837-1.364-4.495-.794-2.342.806-4.8 1.394-7.175 1.076-2.376-.316-4.671-1.67-5.665-3.953-.994-2.282-.334-5.5 1.77-6.918.843-.568 1.825-.818 2.7-1.322 1.05-.604 2.024-1.797 1.518-3.073-.35-.885-1.278-1.292-2.198-1.183-1.275.152-2.266.937-3.267 1.709-1.577 1.217-3.512 1.803-5.356 1.498-5.51-.91-5.517-7.914-2.046-10.819.974-.816 2.292-1.528 2.365-2.86.058-1.051-.713-1.87-1.671-2.04-1.893-.337-3.474.993-5.236 1.423-3.223.786-6.53-2.177-6.326-5.668.156-2.67 3.305-2.429 6.238-2.778.675-.08.85-1.068.24-1.331-2.431-1.048-5.291-2.904-6.807-4.123-2.782-2.238-4.625-8.492.753-9.601 1.442-.297 4.447 1.161 5.05 2.282.852 1.587 4.19 5.756 4.19 5.756.4.418 1.103-.033.966-.624-.31-1.341-.448-2.722-.117-4.163.15-.659.419-1.3.806-1.852 2.305-3.293 6.23-1.496 7.458 1.419 1.02 2.423.722 5.295.466 8.021-.132 1.413-.221 2.957.752 3.971.55.575 1.432.742 2.118.262.792-.554.74-1.474.9-2.298.525-2.694 3.652-4.345 6.049-3.598 2.397.746 3.924 3.311 4.232 5.985.308 2.674-.412 5.437-1.368 8.02-.471 1.275-1.015 2.637-.463 3.921.326.758 1.138 1.2 1.898.874 1.08-.463 1.125-1.921 1.426-3.061.834-3.167 4.805-4.689 7.477-3.348 2.67 1.34 3.976 4.712 3.884 7.952-.103 3.647-1.675 7.177-3.216 10.495-.363.78-.226 1.734.409 2.2.88.646 1.762-.171 2.52-.788 2.93-2.386 7.275-2.358 9.882.064 2.608 2.423 3.205 6.984 1.359 10.374-1.173 2.155-3.187 3.835-3.292 6.52-.052 1.329.744 2.536 1.974 2.648 1.552.143 2.535-1.516 3.642-2.645 3.072-3.133 8.388-2.218 10.797 1.17 2.408 3.388.024 11.228-1.567 15.386-1.592 4.156-4.74 12.882-8.813 16.61-1.92 1.756-13.8-3.599-16.24-5.047"/>
        <path fill="#619440" d="M17.102 159.207c1.442-.297 4.447 1.161 5.05 2.282.852 1.587 4.19 5.756 4.19 5.756.401.418 1.103-.033.966-.624-.31-1.34-.448-2.723-.118-4.163.151-.659.42-1.3.807-1.853 2.305-3.293 6.23-1.495 7.458 1.42 1.021 2.423.722 5.295.466 8.021-.132 1.413-.22 2.957.752 3.971.551.575 1.432.742 2.117.262.792-.554.742-1.474.902-2.299.524-2.693 3.651-4.344 6.048-3.597 2.397.746 3.924 3.311 4.232 5.985.307 2.674-.412 5.437-1.368 8.02-.472 1.275-1.016 2.636-.463 3.921.325.758 1.138 1.2 1.898.874 1.081-.463 1.125-1.92 1.425-3.06.834-3.168 4.805-4.69 7.477-3.35 2.672 1.341 3.977 4.713 3.885 7.953-.103 3.647-1.675 7.177-3.217 10.495-.362.78-.225 1.734.41 2.2.881.646 1.762-.17 2.521-.788 2.93-2.386 7.273-2.358 9.881.064 2.608 2.423 3.205 6.984 1.358 10.374-1.173 2.155-3.186 3.835-3.29 6.52-.053 1.33.743 2.536 1.973 2.648 1.552.143 2.535-1.516 3.642-2.645 3.071-3.133 8.388-2.218 10.796 1.17 2.41 3.388.025 11.228-1.567 15.385-1.485 3.878-4.325 11.736-8.008 15.798-.264.291-.805.813-.805.813s-11.176-28.95-29.416-56.565c-10.13-15.339-32.92-33.116-32.92-33.116s.205-.37.647-.738c.758-.633 1.988-1.075 2.271-1.134"/>
        <path fill="#306B34" d="M103.512 220.904c.876 3.247 1.312 6.588 1.679 9.901.476 4.315-.345 5.484-1.953 9.151-1.61 3.667-4.614 6.498-8.245 7.008-3.631.51-6.495 2.02-8.728-1.695-.315-.524-.913-.226-.984.038-.508 1.872-.72 3.037-1.971 4.222-1.311 1.241-9.068 6.28-17.136-1.188-3.912-6.493-4.858-13.936-6.246-21.442-.176-.946-.33-1.93-.137-2.826.352-1.648 1.996-2.622 3.47-2.057-1.33-.04-2.562-1.299-3.188-2.735-.625-1.436-.77-3.027-.901-4.572l-1.468-17.132c3.643 1.847 7.788 1.903 11.13.152 0 0-11.676-4-11.027-9.936.47-4.307 1.278-10.28 1.514-14.642.165-3.052 1.458-6.18 2.788-8.682 1.135-2.134 1.89-3.612 3.694-4.99 1.09-.835 2.237-1.69 3.593-1.813 2.057-.185 4.082 1.35 5.793 2.954 3.134 2.937 5.926 6.354 8.517 9.933 3.073 4.246 5.88 8.74 8.387 13.422-2.856 5.507-7.085 9.947-12.121 12.721 4.63-1.03 8.946-3.286 12.546-6.554.434-.393.914-.822 1.497-.758 1.16.128 1.622 1.89 1.81 3.231.804 5.672 2.947 11.248 6.13 15.944l-5.396 1.4 6.762.574s-.596 7.457.19 10.371"/>
        <path fill="#A4B751" d="M105.47 222.67c.877 3.247.406 12.968-1.903 17.987-1.675 3.638-4.89 6.379-8.382 7.494-2.737.874-6.687.833-8.92-2.881-.315-.525-.913-.227-.984.038-.508 1.872-17.2-87.524-15.885-87.642 2.057-.184 4.082 1.35 5.793 2.954 3.134 2.938 5.926 6.355 8.517 9.934 3.073 4.245 5.88 8.738 8.387 13.422-2.856 5.506-7.085 9.946-12.121 12.72 4.63-1.031 8.946-3.286 12.546-6.553.434-.394.914-.823 1.497-.758 1.16.128 1.622 1.889 1.81 3.23.804 5.672 2.947 11.248 6.13 15.945l-5.396 1.399 6.762.574s1.363 9.223 2.15 12.137"/>
        <path fill="#619440" d="M295.194 124.56s39.386-5.108 22.707-21.85c0 0 31.94-27.385 7.518-24.446 0 0 4.803-44.34-25.456-9.16 0 0-11.963-10.664-6.692 18.44 0 0-26.069-9.338 1.923 37.016"/>
        <path fill="#306B34" d="M274.17 162.785c.33-.278 8.224-7.103 20.315-34.58 12.056-27.398 16.18-52.67 16.22-52.922l-1.653-.264c-.04.25-4.135 25.32-16.1 52.511-6.208 14.11-11.277 22.593-14.435 27.227-3.425 5.023-5.406 6.73-5.426 6.746l1.079 1.282z"/>
        <path fill="#306B34" d="M303.211 103.939L314.217 96.568 313.285 95.177 302.279 102.547zM305.896 89.722L307.409 89.003 302.479 78.629 300.966 79.348zM293.921 150.438s27.238 10.91 17.78-7.768c0 0 26.965-1.126 16.282-9.33 0 0 17.83-29.715-14.445-7.278 0 0-4.817-9.45-9.959 5.436 0 0-14.069-17.307-9.89 19.094"/>
        <path fill="#619440" d="M278.777 163.417c11.863-8.885 35.072-28.633 35.305-28.83l-1.085-1.276c-.233.197-23.405 19.912-35.224 28.765l1.004 1.341z"/>
        <g transform="translate(121 .739)">
            <mask id="prefix__d" fill="#fff">
                <use xlink:href="#prefix__c"/>
            </mask>
            <path fill="#7F786A" d="M13.711 263.895h121.021c7.276 0 13.175-5.898 13.175-13.175V13.435c0-7.275-5.899-13.174-13.175-13.174H13.711C6.435.26.537 6.16.537 13.435V250.72c0 7.277 5.898 13.175 13.174 13.175" mask="url(#prefix__d)"/>
        </g>
        <mask id="prefix__f" fill="#fff">
            <use xlink:href="#prefix__e"/>
        </mask>
        <path fill="#FFF4DD" d="M127.358 241.025L263.086 241.025 263.086 24.608 127.358 24.608z" mask="url(#prefix__f)"/>
        <path fill="#A29C8F" d="M208.667 13.902c0-2.332 1.89-4.223 4.224-4.223 2.333 0 4.224 1.89 4.224 4.223s-1.891 4.225-4.224 4.225-4.224-1.892-4.224-4.224M197.972 11.598h-16.245c-1.273 0-2.304 1.03-2.304 2.305 0 1.272 1.03 2.304 2.304 2.304h16.245c1.273 0 2.305-1.032 2.305-2.304 0-1.274-1.032-2.305-2.305-2.305M202.894 245.784H187.55c-3.652 0-6.612 2.96-6.612 6.612s2.96 6.613 6.612 6.613h15.344c3.652 0 6.612-2.96 6.612-6.613 0-3.652-2.96-6.612-6.612-6.612" mask="url(#prefix__f)"/>
        <path fill="#F7E8C8" d="M295.185 86.574h-119.76c-5.563 0-10.073 4.51-10.073 10.072v50.536c0 5.564 4.51 10.074 10.073 10.074h119.76c5.563 0 10.073-4.51 10.073-10.074V96.646c0-5.562-4.51-10.072-10.073-10.072M287.688 167.088c-1.607 0-2.911 1.303-2.911 2.911v26.771h21.88v-29.682h-18.97z" mask="url(#prefix__f)"/>
        <path fill="#FFF4DD" d="M294.935 184.997c-1.6 0-2.896-1.296-2.896-2.896v-15.013h5.792v15.013c0 1.6-1.297 2.896-2.896 2.896" mask="url(#prefix__f)"/>
        <path fill="#F7E8C8" d="M300.755 150.016c-1.608 0-2.911 1.303-2.911 2.91v26.772h7.262v-29.682h-4.351z" mask="url(#prefix__f)"/>
        <path fill="#FFF4DD" d="M369.81 222.798v29.763l-4.732-4.331-4.732 4.33-4.732-4.33-4.732 4.33-4.732-4.33-4.732 4.33-4.732-4.33-4.73 4.33-4.734-4.33-4.733 4.33-4.733-4.33-4.732 4.33-4.734-4.33-4.733 4.33.108-99.633c0-1.608-1.303-2.911-2.91-2.911h66.144c1.608 0 2.911 1.303 2.911 2.91v69.872" mask="url(#prefix__f)"/>
        <path fill="#FFBF4D" d="M309.388 181.832L330.549 181.832 330.549 179.489 309.388 179.489zM309.388 193.259L337.393 193.259 337.393 190.915 309.388 190.915zM309.387 203.685L335.175 203.685 335.175 201.342 309.387 201.342zM309.388 214.11L337.393 214.11 337.393 211.767 309.388 211.767zM348.3 181.832L362.773 181.832 362.773 179.489 348.3 179.489zM348.3 193.259L362.773 193.259 362.773 190.915 348.3 190.915zM348.3 203.685L362.773 203.685 362.773 201.342 348.3 201.342zM348.3 214.11L362.773 214.11 362.773 211.767 348.3 211.767z" mask="url(#prefix__f)"/>
        <path fill="#FFA331" d="M348.3 234.613L362.773 234.613 362.773 232.27 348.3 232.27z" mask="url(#prefix__f)"/>
        <path fill="#FFBF4D" d="M309.388 234.613L334.034 234.613 334.034 232.27 309.388 232.27zM368.4 223.324h-.871c-.291 0-.527-.235-.527-.526 0-.29.236-.528.527-.528h.871c.291 0 .527.237.527.528 0 .291-.236.526-.527.526M309.417 223.324h-1.76c-.292 0-.528-.235-.528-.526 0-.29.236-.528.527-.528h1.761c.291 0 .527.237.527.528 0 .291-.236.526-.527.526m3.522 0h-1.76c-.292 0-.528-.235-.528-.526 0-.29.236-.528.527-.528h1.761c.291 0 .527.237.527.528 0 .291-.236.526-.527.526m3.522 0h-1.76c-.292 0-.528-.235-.528-.526 0-.29.236-.528.527-.528h1.761c.291 0 .527.237.527.528 0 .291-.236.526-.527.526m3.522 0h-1.76c-.292 0-.528-.235-.528-.526 0-.29.236-.528.527-.528h1.761c.291 0 .527.237.527.528 0 .291-.236.526-.527.526m3.522 0h-1.76c-.292 0-.528-.235-.528-.526 0-.29.236-.528.527-.528h1.761c.291 0 .526.237.526.528 0 .291-.235.526-.526.526m3.522 0h-1.76c-.292 0-.528-.235-.528-.526 0-.29.236-.528.527-.528h1.761c.29 0 .526.237.526.528 0 .291-.236.526-.526.526m3.521 0h-1.76c-.29 0-.527-.235-.527-.526 0-.29.236-.528.527-.528h1.76c.291 0 .527.237.527.528 0 .291-.236.526-.527.526m3.522 0h-1.76c-.29 0-.527-.235-.527-.526 0-.29.236-.528.527-.528h1.76c.291 0 .527.237.527.528 0 .291-.236.526-.527.526m3.522 0h-1.76c-.29 0-.527-.235-.527-.526 0-.29.236-.528.527-.528h1.76c.291 0 .527.237.527.528 0 .291-.236.526-.527.526m3.522 0h-1.76c-.29 0-.527-.235-.527-.526 0-.29.236-.528.527-.528h1.76c.291 0 .527.237.527.528 0 .291-.236.526-.527.526m3.522 0h-1.76c-.292 0-.527-.235-.527-.526 0-.29.235-.528.526-.528h1.761c.291 0 .527.237.527.528 0 .291-.236.526-.527.526m3.522 0h-1.76c-.292 0-.527-.235-.527-.526 0-.29.235-.528.526-.528h1.761c.291 0 .527.237.527.528 0 .291-.236.526-.527.526m3.522 0h-1.76c-.292 0-.527-.235-.527-.526 0-.29.235-.528.526-.528h1.761c.291 0 .527.237.527.528 0 .291-.236.526-.527.526m3.522 0h-1.76c-.292 0-.527-.235-.527-.526 0-.29.235-.528.526-.528h1.761c.291 0 .527.237.527.528 0 .291-.236.526-.527.526m3.522 0h-1.76c-.292 0-.527-.235-.527-.526 0-.29.235-.528.526-.528h1.761c.291 0 .527.237.527.528 0 .291-.236.526-.527.526m3.522 0h-1.76c-.292 0-.528-.235-.528-.526 0-.29.236-.528.527-.528h1.761c.291 0 .527.237.527.528 0 .291-.236.526-.527.526m3.522 0h-1.76c-.292 0-.528-.235-.528-.526 0-.29.236-.528.527-.528h1.761c.291 0 .526.237.526.528 0 .291-.235.526-.526.526M305.895 223.324h-.87c-.292 0-.528-.235-.528-.526 0-.29.236-.528.527-.528h.871c.291 0 .527.237.527.528 0 .291-.236.526-.527.526" mask="url(#prefix__f)"/>
        <path fill="#FFF4DD" d="M289.166 167.088c1.59.021 2.874 1.313 2.874 2.909v-2.909h-2.874z" mask="url(#prefix__f)"/>
        <path fill="#FFBF4D" d="M318.042 165.956L319.88 165.956 319.88 157.598 318.042 157.598zM322.9 159.903v.843h.036c.21-.35.484-.607.82-.767.335-.159.679-.24 1.03-.24.445 0 .81.06 1.094.182.284.121.51.29.673.503.163.215.28.476.346.785.065.308.1.65.1 1.024v3.723h-1.663v-3.418c0-.5-.079-.873-.235-1.118-.156-.246-.433-.37-.83-.37-.454 0-.781.135-.983.405-.204.268-.305.712-.305 1.328v3.173h-1.663v-6.053h1.58zM329.761 165.956L327.689 159.903 329.433 159.903 330.709 164.036 330.733 164.036 332.009 159.903 333.659 159.903 331.611 165.956zM335.895 163.644c.047.23.127.437.24.62.113.185.263.33.45.44.188.109.422.164.704.164.28 0 .516-.055.708-.164.19-.11.343-.255.456-.44.113-.183.193-.39.24-.62.047-.23.07-.466.07-.708 0-.241-.023-.48-.07-.714-.047-.234-.127-.441-.24-.62-.113-.18-.265-.326-.456-.44-.192-.113-.428-.17-.708-.17-.282 0-.516.057-.703.17-.188.114-.338.26-.451.44-.113.179-.193.386-.24.62-.046.235-.07.473-.07.714 0 .242.024.479.07.708m-1.51-2.024c.148-.395.359-.731.632-1.007.274-.278.6-.492.983-.645.383-.152.812-.228 1.289-.228.475 0 .907.076 1.293.228.386.153.716.367.989.645.273.276.484.612.632 1.007.149.393.223.833.223 1.316 0 .484-.074.92-.223 1.312-.148.39-.36.723-.632 1-.273.278-.603.49-.99.638-.385.149-.817.223-1.292.223-.477 0-.906-.074-1.29-.223-.381-.148-.708-.36-.982-.638-.273-.277-.484-.61-.632-1-.148-.391-.222-.828-.222-1.312 0-.483.074-.923.222-1.316M341.55 165.956h1.662v-6.053h-1.662v6.053zm-.001-6.989h1.662v-1.369h-1.662v1.369zM347.414 160.992c-.266 0-.488.061-.667.182-.18.121-.327.277-.439.468-.114.191-.194.402-.24.632-.047.231-.07.458-.07.685 0 .22.023.441.07.667.046.226.122.431.228.615.105.184.247.333.427.45.18.117.398.176.656.176.398 0 .704-.11.92-.334.213-.222.348-.52.403-.895h1.604c-.11.804-.422 1.416-.937 1.838-.515.421-1.175.632-1.978.632-.453 0-.869-.076-1.248-.228-.378-.153-.7-.365-.965-.638s-.472-.6-.62-.978c-.149-.378-.223-.793-.223-1.247 0-.467.068-.903.205-1.305.136-.402.337-.749.603-1.04.265-.294.59-.523.971-.687.383-.164.82-.246 1.312-.246.36 0 .704.047 1.035.141.332.093.63.236.89.427.262.192.475.43.638.714.164.285.258.623.281 1.013h-1.627c-.109-.694-.519-1.042-1.229-1.042M354.9 161.32c-.198-.219-.5-.328-.906-.328-.267 0-.487.045-.663.135-.175.09-.316.201-.42.334-.106.132-.18.273-.223.421-.042.148-.068.281-.077.398h2.706c-.08-.422-.218-.74-.416-.96m-1.88 3.185c.25.241.61.362 1.077.362.337 0 .625-.084.866-.252.243-.167.392-.345.445-.532h1.464c-.234.725-.594 1.245-1.077 1.556-.483.313-1.07.47-1.755.47-.476 0-.906-.077-1.288-.229-.383-.153-.707-.37-.972-.65-.266-.28-.47-.616-.615-1.007-.144-.39-.216-.819-.216-1.288 0-.452.074-.874.221-1.264.149-.39.36-.728.634-1.012.272-.285.597-.51.976-.674.38-.164.798-.246 1.26-.246.514 0 .964.1 1.346.3.382.198.697.466.942.801s.423.718.532 1.147c.11.43.149.878.118 1.347h-4.368c.024.538.16.928.41 1.171M299.043 86.574H171.567c-3.432 0-6.215 2.782-6.215 6.215v2.117h139.906V92.79c0-3.433-2.783-6.215-6.215-6.215" mask="url(#prefix__f)"/>
        <path fill="#EFEEFE" d="M301.85 90.74c0-.968-.785-1.753-1.753-1.753-.968 0-1.753.785-1.753 1.753 0 .968.785 1.753 1.753 1.753.968 0 1.753-.785 1.753-1.753M293.378 90.74c0-.968-.785-1.753-1.753-1.753-.968 0-1.753.785-1.753 1.753 0 .968.785 1.753 1.753 1.753.968 0 1.753-.785 1.753-1.753M284.906 90.74c0-.968-.785-1.753-1.753-1.753-.968 0-1.753.785-1.753 1.753 0 .968.785 1.753 1.753 1.753.968 0 1.753-.785 1.753-1.753" mask="url(#prefix__f)"/>
        <path fill="#FFF4DD" d="M290.96 133.978h-68.676c-.683 0-1.236-.554-1.236-1.236 0-.684.553-1.238 1.236-1.238h68.676c.683 0 1.237.554 1.237 1.238 0 .682-.554 1.236-1.237 1.236M241.239 141.825h-18.955c-.683 0-1.236-.554-1.236-1.236 0-.684.553-1.238 1.236-1.238h18.955c.683 0 1.237.554 1.237 1.238 0 .682-.554 1.236-1.237 1.236M200.366 136.556c0-4.144-3.36-7.502-7.502-7.502-4.144 0-7.502 3.358-7.502 7.502s3.358 7.503 7.502 7.503c4.143 0 7.502-3.36 7.502-7.503" mask="url(#prefix__f)"/>
        <path fill="#FFB218" d="M192.863 139.439c-.42 0-.825-.173-1.117-.48l-3.395-3.558c-.589-.617-.565-1.594.052-2.183.617-.588 1.594-.565 2.183.052l2.187 2.294 6.396-7.84c.54-.66 1.512-.76 2.173-.22.66.539.76 1.512.22 2.172l-7.503 9.195c-.279.343-.694.549-1.136.567h-.06M186.485 114.23l.195-.003.275-.006c.096-.001.188-.005.275-.01l.194-.005c.183-.003.36-.01.531-.017.17-.008.332-.034.485-.08.152-.045.296-.117.431-.216.135-.1.258-.24.369-.427l-3.063.06c.048-.124.113-.264.193-.416.08-.153.159-.298.238-.436.09-.16.186-.32.285-.48l2.091-.04c-.001-.055-.029-.118-.083-.19-.056-.071-.126-.14-.213-.204-.086-.064-.18-.118-.281-.161-.101-.043-.196-.063-.286-.061l-2.059.04.143-.218c.062-.093.131-.193.205-.301.075-.108.151-.22.227-.334.077-.115.147-.22.212-.311.064-.093.118-.17.162-.228.043-.06.068-.087.072-.088l5.122-.098c.004.003-.008.043-.036.115l-.107.27c-.042.109-.089.226-.14.353-.051.127-.099.244-.144.35-.044.109-.1.236-.165.382l-.71.013.043.125c.021.057.043.119.065.187.023.068.043.13.061.19.018.06.03.102.035.128l1.676-.032-.761 1.332-.832.016c-.066.343-.177.628-.335.858-.158.228-.346.417-.564.564-.22.147-.457.263-.714.347-.256.084-.516.149-.779.197l2.678 3.543.01.518-1.803.035-3.176-4.065-.022-1.196zM195.697 116.898c.081.395.224.699.433.91.207.211.507.313.9.305.45-.008.791-.174 1.02-.495.23-.323.34-.725.331-1.206-.01-.475-.128-.87-.355-1.194-.228-.322-.576-.478-1.043-.468-.222.004-.412.035-.573.094-.283.108-.494.302-.633.582l-1.636-.047.552-5.133 5.102-.1.03 1.549-3.788.073-.292 2.032c.278-.188.494-.313.651-.376.262-.104.582-.159.961-.167.767-.014 1.44.231 2.02.736.581.505.881 1.25.9 2.235.017.857-.244 1.627-.779 2.312-.537.682-1.352 1.036-2.447 1.056-.88.019-1.61-.205-2.186-.666-.576-.464-.903-1.129-.984-1.997l1.816-.035zM203.62 117.125c.187.562.55.837 1.092.827.54-.01.89-.3 1.048-.868.157-.568.226-1.386.205-2.45-.021-1.118-.122-1.944-.3-2.478-.18-.534-.54-.796-1.081-.785-.541.011-.894.286-1.058.827-.165.54-.237 1.368-.215 2.486.02 1.066.125 1.88.31 2.441m3.443-6.058c.49.823.75 1.998.78 3.53.03 1.53-.183 2.714-.642 3.55-.46.835-1.28 1.265-2.461 1.29-1.181.021-2.017-.376-2.51-1.194-.49-.818-.75-1.992-.78-3.522-.03-1.532.185-2.717.644-3.558.459-.84 1.279-1.27 2.46-1.295 1.18-.022 2.018.377 2.509 1.2M211.167 116.979c.186.562.55.838 1.09.827.543-.011.892-.301 1.049-.868.158-.568.226-1.386.205-2.451-.022-1.117-.122-1.943-.301-2.477-.178-.534-.538-.796-1.08-.785-.541.01-.894.286-1.058.827-.165.54-.237 1.369-.215 2.487.02 1.065.124 1.878.31 2.44m3.443-6.058c.49.823.752 1.998.782 3.53.029 1.53-.185 2.714-.644 3.549-.46.836-1.28 1.266-2.461 1.29-1.181.022-2.017-.375-2.508-1.193-.492-.818-.753-1.993-.782-3.523-.03-1.531.185-2.715.644-3.557.46-.84 1.279-1.271 2.46-1.295 1.18-.022 2.017.377 2.509 1.199" mask="url(#prefix__f)"/>
        <path fill="#FFBF4D" d="M271.843 172.876c-8.7 0-15.753 7.053-15.753 15.753l.074-.02c10.268-2.78 21.091-2.78 31.358 0l.074.02c0-8.7-7.053-15.753-15.753-15.753" mask="url(#prefix__f)"/>
        <path fill="#FFA331" d="M287.597 188.465c0-1.178-7.053-2.133-15.753-2.133-8.701 0-15.753.955-15.753 2.133 0 1.179 7.052 2.134 15.753 2.134 8.7 0 15.753-.955 15.753-2.134M250.515 264.735L245.958 264.751 252.253 253.806 255.035 256.865zM293.304 264.735L297.861 264.751 292.209 254.826 288.593 256.495z" mask="url(#prefix__f)"/>
        <path fill="#FFBF4D" d="M308.656 226.043c0-20.3-16.457-36.757-36.758-36.757-20.3 0-36.757 16.456-36.757 36.757s16.457 36.758 36.757 36.758c20.3 0 36.758-16.457 36.758-36.758" mask="url(#prefix__f)"/>
        <path fill="#FFF4DD" d="M300.123 226.043c0-15.588-12.637-28.225-28.225-28.225-15.588 0-28.224 12.637-28.224 28.225 0 15.588 12.636 28.225 28.224 28.225 15.588 0 28.225-12.637 28.225-28.225" mask="url(#prefix__f)"/>
        <path fill="#FFBF4D" d="M274.688 226.043c0-1.54-1.25-2.789-2.79-2.789s-2.79 1.25-2.79 2.79 1.25 2.79 2.79 2.79 2.79-1.25 2.79-2.79" mask="url(#prefix__f)"/>
        <path fill="#FFBF4D" d="M263.482 224.895c4.155-.052 8.799.579 8.799 1.148 0 .57-4.644 1.202-8.8 1.15-3.438-.043-6.302-.552-8.334-1.035-.12-.03-.12-.2 0-.228 2.032-.484 4.896-.992 8.335-1.035" mask="url(#prefix__f)"/>
        <path fill="#FFBF4D" d="M273.047 214.728c.052 5.587-.579 11.833-1.149 11.833-.569 0-1.201-6.246-1.148-11.833.043-4.625.551-8.477 1.035-11.21.028-.16.199-.16.227 0 .484 2.733.992 6.585 1.035 11.21" mask="url(#prefix__f)"/>
        <path fill="#FFA331" d="M273.578 226.043c0-.928-.752-1.68-1.68-1.68-.927 0-1.68.752-1.68 1.68 0 .928.753 1.68 1.68 1.68.928 0 1.68-.752 1.68-1.68" mask="url(#prefix__f)"/>
        <path fill="#FFC581" d="M54.925 92.787l-.778-.44c-.288-.164-.577-.327-.883-.453-1.11.414-2.475.232-3.5-.364-.419-.242-.79-.557-1.157-.872-.17-.144-.343-.292-.472-.475-.128-.183-.21-.41-.177-.63.045-.3.281-.527.464-.768.183-.24.317-.586.147-.836-.11-.16-.312-.226-.494-.3-.724-.297-1.194-.857-1.48-1.586 1.997.306 3.852.831 5.651 1.75.27-.357.404-.775.261-1.2-.089-.263-.253-.49-.388-.732s-.245-.516-.207-.79c.038-.275.268-.537.545-.526.308.014.504.326.645.601l.714 1.398c.213.417.43.843.504 1.305.037.23.043.474.172.666.113.17.303.268.485.358l1.427.72c-.483 1.05-.995 2.123-1.479 3.174" mask="url(#prefix__f)"/>
        <path fill="#FFA331" d="M115.759 87.145s-12.866 13.632-22.844 19.24c-9.531 5.358-38.255-13.613-38.255-13.613l1.598-3.406s15.983 2.553 30.37 8.513c0 0 11.073-8.933 19.749-19.255l9.382 8.52z" mask="url(#prefix__f)"/>
        <path fill="#F6A19E" d="M63.039 262.255L58.032 260.349 58.497 259.13 63.503 261.036z" mask="url(#prefix__f)"/>
        <path fill="#7F786A" d="M63.482 261.028s1.376 2.917-1.623 4.262l-12.925-4.922c.035-.28.239-1.639 1.46-2.594.987-.77 2.046-.819 2.39-.82l6.19 2.357s1.74 2.165 4.508 1.717" mask="url(#prefix__f)"/>
        <path fill="#7F786A" d="M52.783 256.954c-2.024-.77-4.29.245-5.062 2.27l-.227.596 1.98.754c.128-.46.386-1.152.924-1.85.841-1.094 1.885-1.578 2.385-1.77" mask="url(#prefix__f)"/>
        <path fill="#F6A19E" d="M60.358 257.219L59.559 259.752 62.925 260.961 64.106 258.482z" mask="url(#prefix__f)"/>
        <path fill="#57575E" d="M55.343 259.524L56.371 258.752 55.788 257.976 54.76 258.748zM56.651 260.157L57.605 259.282 56.947 258.567 55.995 259.442z" mask="url(#prefix__f)"/>
        <path fill="#7F786A" d="M119.004 125.477s.056 17.554-2.764 23.865c-2.82 6.312-20.158 34.72-20.158 34.72l-31.823 75.657-4.724-1.801L69.7 188.68c0-.001 18.041-56.85 24.703-68.14 6.66-11.288 24.6 4.936 24.6 4.936" mask="url(#prefix__f)"/>
        <path fill="#F6A19E" d="M108.499 262.483L103.488 262.479 103.489 261.259 108.5 261.264z" mask="url(#prefix__f)"/>
        <path fill="#7F786A" d="M108.48 261.264s2.17 2.094-.005 4.266l-12.936-.012c-.062-.257-.335-1.513.416-2.754.606-1.001 1.517-1.395 1.816-1.51l6.196.006s2.241 1.315 4.512.004" mask="url(#prefix__f)"/>
        <path fill="#7F786A" d="M97.772 261.254c-2.026-.002-3.67 1.639-3.672 3.665l-.001.597 1.982.002c-.041-.446-.046-1.136.192-1.926.373-1.234 1.126-2.004 1.499-2.338" mask="url(#prefix__f)"/>
        <path fill="#F6A19E" d="M103.531 257.45L104.56 261.486 108.119 261.321 107.471 258.165z" mask="url(#prefix__f)"/>
        <path fill="#57575E" d="M100.863 262.651L101.506 261.635 100.738 261.149 100.095 262.166zM102.218 262.771L102.76 261.689 101.949 261.282 101.406 262.364z" mask="url(#prefix__f)"/>
        <path fill="#A29C8F" d="M122.66 128.062s1.671 5.01-.157 13.938c-2.63 12.846-25.91 45.903-25.91 45.903l12.048 70.477-6.159 1.666-24.497-65.175c-1.988-5.29-2.277-11.064-.827-16.525 4.25-16.006 13.426-49.474 16.692-52.757l1.041-9.505 27.768 11.978z" mask="url(#prefix__f)"/>
        <path fill="#57575E" d="M52.434 91.808c.274 0 .551-.073.803-.226.73-.444.96-1.395.516-2.125l-6.147-10.091c-.444-.73-1.395-.961-2.125-.516-.729.443-.96 1.395-.516 2.124l6.147 10.092c.291.478.801.742 1.322.742" mask="url(#prefix__f)"/>
        <path fill="#FFE2B7" d="M47.653 83.804c.502.443 1.054.979 1.613 1.617 1.987 2.267 2.722 4.282 3.353 4.118.753-.195.26-3.203 1.009-3.381.592-.143 1.479 1.603 1.82 2.414.429 1.01.893 2.125.593 3.28l1.065.958-2.424 2.555-1.74-1.595c-1.298-.333-3.253-1.12-4.801-3.002-1.814-2.207-2.068-4.705-1.991-6.321.036-.757.934-1.144 1.503-.643" mask="url(#prefix__f)"/>
        <path fill="#57575E" d="M101.773 59.427c-.128 2.366.917 4.346 2.334 4.423 1.416.076 2.668-1.78 2.796-4.147.128-2.366-.918-4.346-2.334-4.422-1.417-.077-2.669 1.78-2.796 4.146" mask="url(#prefix__f)"/>
        <path fill="#FFBF4D" d="M108.075 71.14c2.334-.76 4.685 1.073 4.615 3.528-.023.834-.07 1.677-.141 2.529-1.303 15.489-10.286 27.329-17.76 34.745-3.461 3.435-8.77 4.198-13.032 1.828-2.65-1.474-5.35-3.041-8.092-4.711-7.57-4.61-13.996-8.69-19.996-13.261.327-.47.655-.94.986-1.411.676-.965 1.353-1.923 2.029-2.873 4.707 2.29 9.597 4.57 14.667 6.825 5.688 2.528 11.25 4.865 16.668 7.025 2.978-6.966 5.15-12.19 6.352-15.091 0 0 5.224-15.511 12.469-18.663.417-.183.83-.337 1.235-.47" mask="url(#prefix__f)"/>
        <path fill="#FFE2B7" d="M107.643 69.06c.254-.311-4.289-6.245-4.289-6.245l-5.478 3.302 2.884 7.789s3.44-.631 6.883-4.845" mask="url(#prefix__f)"/>
        <path fill="#FFC581" d="M104.47 64.49c-.084.257-.177.51-.284.752-.904 2.068-2.783 3.861-4.872 4.758l-1.438-3.884 5.478-3.302s.494.73 1.115 1.676" mask="url(#prefix__f)"/>
        <path fill="#FFE2B7" d="M98.144 52.512c-.36.107-3.124.976-4.663 3.609-2.044 3.498-1.494 9.363 2.15 11.115 3.488 1.676 8.258-1.158 9.882-4.872 1.44-3.292.712-7.966-2.18-9.626-2.033-1.167-4.443-.45-5.189-.226" mask="url(#prefix__f)"/>
        <path fill="#FFBF4D" d="M107.61 68.84s17.572 1.182 15.064 58.952c-8.666 1.66-17.594 1.365-26.132-.865l-4.712-1.14 1.142-34.035c.163-9.788 5.826-18.65 14.639-22.912" mask="url(#prefix__f)"/>
        <path fill="#57575E" d="M102.156 61.765c-1.28-1.058.457-3.487-1.017-5.256-1.604-1.926-4.671-.26-7.413-1.982-1.294-.814-2.72-2.51-3.274-6.397 3.528-2.105 5.637-1.971 6.919-1.436 1.61.674 1.674 1.88 3.64 2.74 2.495 1.093 3.75-.258 5.735.593 2.389 1.023 4.459 4.642 3.367 7.814-1.287 3.74-6.403 5.21-7.957 3.924" mask="url(#prefix__f)"/>
        <path fill="#FFE2B7" d="M103.083 60.988c.104-.939.95-1.617 1.89-1.514.941.104 1.618.951 1.514 1.891-.103.94-.949 1.617-1.89 1.514-.94-.104-1.618-.95-1.514-1.89" mask="url(#prefix__f)"/>
        <path fill="#57575E" d="M93.691 266.199L108.858 266.214 108.858 265.079 93.692 265.065zM46.827 260.348L61.981 266.119 62.424 264.956 47.27 259.185z" mask="url(#prefix__f)"/>
        <path fill="#FFA331" d="M92.232 115.07c.232 0 .467-.066.676-.204.42-.276 10.343-6.876 15.234-17.352.288-.617.021-1.35-.597-1.639-.617-.288-1.35-.023-1.639.595-4.588 9.827-14.256 16.27-14.353 16.333-.57.375-.727 1.14-.353 1.71.237.36.631.556 1.032.556" mask="url(#prefix__f)"/>
        <path fill="#FDC854" d="M30.314 250.906h45.972c2.115 0 3.83 1.715 3.83 3.831 0 2.116-1.715 3.831-3.83 3.831H30.314c-2.116 0-3.831-1.715-3.831-3.83 0-2.117 1.715-3.832 3.83-3.832" mask="url(#prefix__f)"/>
        <path fill="#F89F4F" d="M26.483 257.104c0 .809.655 1.465 1.465 1.465H78.65c.81 0 1.466-.656 1.466-1.465v-.79H26.482v.79z" mask="url(#prefix__f)"/>
        <path fill="#FDC854" d="M30.314 258.568h45.972c2.115 0 3.83 1.716 3.83 3.832 0 2.115-1.715 3.83-3.83 3.83H30.314c-2.116 0-3.831-1.716-3.831-3.83 0-2.116 1.715-3.832 3.83-3.832" mask="url(#prefix__f)"/>
        <path fill="#F89F4F" d="M26.483 264.766c0 .809.655 1.465 1.465 1.465H78.65c.81 0 1.466-.656 1.466-1.465v-.79H26.482v.79z" mask="url(#prefix__f)"/>
        <path fill="#FDC854" d="M30.314 243.244h45.972c2.115 0 3.83 1.716 3.83 3.831 0 2.116-1.715 3.831-3.83 3.831H30.314c-2.116 0-3.831-1.715-3.831-3.83 0-2.116 1.715-3.832 3.83-3.832" mask="url(#prefix__f)"/>
        <path fill="#F89F4F" d="M26.483 249.441c0 .81.655 1.465 1.465 1.465H78.65c.81 0 1.466-.655 1.466-1.465v-.788H26.482v.788z" mask="url(#prefix__f)"/>
        <path fill="#FDC854" d="M27.376 235.582h45.972c2.115 0 3.831 1.716 3.831 3.831 0 2.116-1.716 3.831-3.83 3.831H27.375c-2.116 0-3.83-1.715-3.83-3.83 0-2.116 1.714-3.832 3.83-3.832" mask="url(#prefix__f)"/>
        <path fill="#F89F4F" d="M23.545 241.78c0 .81.656 1.464 1.465 1.464h50.704c.809 0 1.465-.655 1.465-1.465v-.788H23.545v.788z" mask="url(#prefix__f)"/>
        <path fill="#FDC854" d="M30.314 227.921h45.972c2.115 0 3.83 1.715 3.83 3.83v.001c0 2.115-1.715 3.83-3.83 3.83H30.314c-2.116 0-3.831-1.715-3.831-3.83v-.001c0-2.115 1.715-3.83 3.83-3.83" mask="url(#prefix__f)"/>
        <path fill="#F89F4F" d="M26.483 234.117c0 .81.655 1.465 1.465 1.465H78.65c.81 0 1.466-.655 1.466-1.465v-.788H26.482v.788z" mask="url(#prefix__f)"/>
        <path fill="#FDC854" d="M28.302 220.259h45.972c2.115 0 3.831 1.715 3.831 3.83 0 2.116-1.716 3.832-3.83 3.832H28.301c-2.116 0-3.83-1.716-3.83-3.831 0-2.116 1.714-3.831 3.83-3.831" mask="url(#prefix__f)"/>
        <path fill="#F89F4F" d="M24.472 226.456c0 .81.656 1.465 1.464 1.465H76.64c.81 0 1.465-.656 1.465-1.465v-.789H24.472v.79z" mask="url(#prefix__f)"/>
        <path fill="#FDC854" d="M27.376 212.597h45.972c2.115 0 3.831 1.715 3.831 3.83 0 2.116-1.716 3.832-3.83 3.832H27.375c-2.116 0-3.83-1.716-3.83-3.831 0-2.116 1.714-3.831 3.83-3.831" mask="url(#prefix__f)"/>
        <path fill="#F89F4F" d="M23.545 218.794c0 .809.656 1.465 1.465 1.465h50.704c.809 0 1.465-.656 1.465-1.465v-.789H23.545v.789z" mask="url(#prefix__f)"/>
        <path fill="#FDC854" d="M29.347 204.935h45.972c2.115 0 3.83 1.715 3.83 3.83 0 2.117-1.715 3.832-3.83 3.832H29.347c-2.116 0-3.831-1.715-3.831-3.831 0-2.116 1.715-3.831 3.83-3.831" mask="url(#prefix__f)"/>
        <path fill="#F89F4F" d="M25.516 211.132c0 .809.656 1.465 1.465 1.465h50.704c.809 0 1.465-.656 1.465-1.465v-.79H25.516v.79z" mask="url(#prefix__f)"/>
        <path fill="#FDC854" d="M30.134 197.273h45.972c2.115 0 3.831 1.716 3.831 3.83 0 2.117-1.716 3.832-3.83 3.832H30.133c-2.116 0-3.83-1.715-3.83-3.831 0-2.115 1.714-3.831 3.83-3.831" mask="url(#prefix__f)"/>
        <path fill="#F89F4F" d="M26.303 203.47c0 .81.656 1.465 1.465 1.465h50.704c.81 0 1.465-.655 1.465-1.465v-.788H26.303v.788z" mask="url(#prefix__f)"/>
        <path fill="#FFAC34" d="M42.893 260.933c10.391-8.471 11.948-23.762 3.477-34.152-8.47-10.392-23.76-11.95-34.152-3.478-10.392 8.47-11.949 23.76-3.478 34.152s23.762 11.949 34.153 3.478" mask="url(#prefix__f)"/>
        <path fill="#FFBC3F" d="M39.445 256.703c8.055-6.566 9.262-18.42 2.695-26.476-6.566-8.055-18.42-9.26-26.475-2.695-8.055 6.567-9.262 18.42-2.696 26.476 6.567 8.054 18.421 9.261 26.476 2.695" mask="url(#prefix__f)"/>
        <path fill="#FFA331" d="M35.193 239.041c.471.286 1.142.046 1.495-.536.352-.583.256-1.288-.216-1.574l-5.128-3.113-3.419-2.074c-.47-.286-1.14-.046-1.495.536-.352.582-.256 1.287.215 1.574l3.42 2.075c1.111.675 1.515 2.13 1.125 3.571l-5.826-3.536c-.47-.286-1.14-.046-1.495.537-.352.582-.256 1.287.215 1.573l5.826 3.535c-1.098 1.012-2.575 1.326-3.688.651l-3.419-2.075c-.11-.068-.239-.108-.375-.119-.274-.018-.566.084-.81.291-.243.205-.42.496-.488.806-.037.157-.044.312-.023.457l1.715 12.588c.041.308.198.544.416.677.22.133.5.162.793.06.582-.21.989-.879.905-1.493l-1.35-9.905 1.357.822c2.063 1.254 4.89.485 6.746-1.68l.941.573c.473.286 1.142.046 1.496-.537.354-.582.258-1.288-.215-1.574l-.942-.572c.349-.862.495-1.743.492-2.589l1.732 1.051z" mask="url(#prefix__f)"/>
        <path fill="#FDC854" d="M49.403 42.376h20.264c2.677 0 4.849 2.171 4.849 4.85v14.33c0 2.676-2.172 4.847-4.85 4.847h-13.14l-9.56 5.52v-6.177c-1.443-.84-2.413-2.402-2.413-4.19v-14.33c0-2.679 2.172-4.85 4.85-4.85" mask="url(#prefix__f)"/>
        <path fill="#FFF4DD" d="M58.873 55.581h1.671l-.836-1.948-.835 1.948zm5.642 3.73h-2.373l-.664-1.548h-3.54l-.663 1.547h-2.374l4.807-11.215 4.807 11.215z" mask="url(#prefix__f)"/>
    </g>
</svg>
