<svg xmlns="http://www.w3.org/2000/svg" xmlns:xlink="http://www.w3.org/1999/xlink" width="688" height="373" viewBox="0 0 688 373">
    <defs>
        <path id="prefix__a" d="M0.677 0.665L186.441 0.665 186.441 356.022 0.677 356.022z"/>
        <path id="prefix__c" d="M0 371L687.61 371 687.61 0.665 0 0.665z"/>
        <path id="prefix__e" d="M.81.769v9.054c0 3.138 16.758 5.683 37.431 5.683s37.432-2.545 37.432-5.683V.769H.81z"/>
        <path id="prefix__g" d="M.23.542v9.054c0 3.139 16.758 5.683 37.431 5.683s37.432-2.544 37.432-5.683V.542H.23z"/>
        <path id="prefix__i" d="M.148.248v9.053c0 3.139 16.759 5.684 37.431 5.684 20.673 0 37.432-2.545 37.432-5.684V.248H.148z"/>
        <path id="prefix__k" d="M0 371L687.61 371 687.61 0.665 0 0.665z"/>
        <path id="prefix__m" d="M.507 4.866s1.78-.485 3.38-4.199C1.827 3.277.507 4.866.507 4.866"/>
        <path id="prefix__p" d="M0 371L687.61 371 687.61 0.665 0 0.665z"/>
        <linearGradient id="prefix__n" x1="39.922%" x2="65.255%" y1="73.907%" y2="21.628%">
            <stop offset="0%" stop-color="#DBEBFF"/>
            <stop offset="100%" stop-color="#FFF"/>
        </linearGradient>
    </defs>
    <g fill="none" fill-rule="evenodd">
        <g transform="translate(0 .335)">
            <path fill="#FFF4DD" d="M199.398 362.902c-49.198-51.148-50.617-77.885-42.425-92.891 8.212-15.043 24.344-15.113 34.515-34.381 12.941-24.517-5.849-38.282-1.438-69.367 3.781-26.645 23.92-61.15 56.087-71.176 38.406-11.971 62.148 20.864 99.231 9.047 36.195-11.533 26.958-47.077 68.311-63.937 30.477-12.427 73.855-8.763 94.198 9.65 15.076 13.647 7.795 26.61 23.01 46.446 19.46 25.372 47.221 16.53 58.244 34.38 16.048 25.993-32.689 51.056-22.29 89.274 7.708 28.333 38.617 29.708 54.648 61.525 14.408 28.594 5.546 59.442-5.033 82.034l-417.058-.604"/>
            <path fill="#F7E8C8" d="M0 363.739c0-4.011 153.927-7.262 343.805-7.262 189.879 0 343.805 3.25 343.805 7.262 0 4.01-153.926 7.26-343.805 7.26C153.927 371 0 367.75 0 363.74"/>
            <path fill="#A4B751" d="M541.259 342.798c3.553-2.109 15.623-8.423 15.7-12.88.085-4.86-3.563-9.746-8.072-10.807-1.946-.459-4.024-.294-5.71-1.79-.94-.835-1.395-2.234-.851-3.32.888-1.77 3.323-1.075 5.135-.393 3.47 1.306 7.249 1.845 10.666.836 3.417-1.008 6.4-3.74 7.25-7.424.852-3.686-.818-8.202-4.127-9.975-2.07-1.108-4.502-1.107-6.385-2.805-.977-.88-1.554-2.249-1.2-3.49.714-2.509 4.13-1.986 6.545-1.156 3.41 1.172 6.987 2.028 10.446 1.567 3.459-.462 6.8-2.432 8.248-5.756 1.446-3.323.486-8.007-2.578-10.072-1.227-.827-2.657-1.192-3.932-1.926-1.53-.879-2.945-2.615-2.21-4.473.512-1.288 1.862-1.882 3.202-1.722 1.856.222 3.298 1.362 4.755 2.487 2.297 1.773 5.115 2.625 7.8 2.181 8.022-1.325 8.03-11.522 2.978-15.75-1.418-1.188-3.337-2.226-3.444-4.165-.085-1.53 1.038-2.722 2.433-2.97 2.756-.49 5.058 1.446 7.623 2.072 4.693 1.144 9.507-3.169 9.21-8.252-.227-3.888-4.812-3.537-9.082-4.045-.982-.117-1.24-1.554-.35-1.938 3.54-1.525 7.704-4.227 9.912-6.003 4.05-3.257 6.733-12.363-1.097-13.977-2.1-.433-6.474 1.69-7.352 3.323-1.241 2.31-6.101 8.38-6.101 8.38-.584.607-1.605-.049-1.407-.908.452-1.954.653-3.964.172-6.062-.22-.96-.61-1.892-1.174-2.697-3.357-4.794-9.072-2.178-10.86 2.066-1.485 3.53-1.05 7.71-.677 11.678.193 2.057.32 4.306-1.095 5.781-.802.837-2.085 1.08-3.083.382-1.153-.808-1.08-2.147-1.312-3.347-.763-3.92-5.316-6.325-8.806-5.238-3.49 1.087-5.713 4.821-6.161 8.715-.447 3.894.6 7.915 1.992 11.677.686 1.855 1.478 3.838.674 5.708-.474 1.104-1.657 1.747-2.763 1.272-1.574-.675-1.64-2.797-2.076-4.457-1.214-4.61-6.996-6.827-10.886-4.875-3.89 1.952-5.79 6.862-5.656 11.577.15 5.312 2.439 10.451 4.684 15.281.527 1.135.328 2.525-.596 3.203-1.283.941-2.567-.248-3.671-1.148-4.264-3.472-10.59-3.43-14.386.096-3.797 3.525-4.666 10.166-1.978 15.103 1.708 3.136 4.639 5.582 4.792 9.492.076 1.935-1.083 3.692-2.874 3.856-2.26.206-3.691-2.209-5.303-3.852-4.471-4.562-12.211-3.229-15.718 1.704-3.507 4.932-.036 16.347 2.28 22.4 2.319 6.051 6.9 18.757 12.832 24.183 2.795 2.555 20.09-5.239 23.644-7.347"/>
            <path fill="#619440" d="M604.124 216.852c-2.1-.433-6.475 1.69-7.353 3.323-1.24 2.31-6.1 8.38-6.1 8.38-.585.608-1.606-.049-1.407-.908.452-1.954.653-3.964.172-6.062-.22-.96-.61-1.892-1.173-2.697-3.358-4.794-9.074-2.178-10.86 2.067-1.486 3.528-1.05 7.71-.678 11.677.192 2.057.32 4.306-1.096 5.782-.802.836-2.085 1.08-3.082.381-1.154-.807-1.079-2.147-1.313-3.346-.763-3.922-5.316-6.326-8.805-5.239-3.49 1.087-5.713 4.822-6.16 8.715-.448 3.894.6 7.915 1.99 11.677.687 1.855 1.48 3.838.675 5.708-.474 1.105-1.657 1.747-2.764 1.272-1.573-.674-1.638-2.796-2.075-4.457-1.215-4.61-6.997-6.827-10.887-4.875-3.889 1.953-5.788 6.863-5.654 11.578.15 5.311 2.438 10.451 4.683 15.28.528 1.136.327 2.525-.596 3.203-1.284.941-2.567-.248-3.67-1.147-4.265-3.473-10.59-3.43-14.388.095-3.795 3.526-4.665 10.166-1.977 15.104 1.707 3.135 4.64 5.582 4.792 9.491.075 1.936-1.084 3.692-2.875 3.856-2.259.206-3.69-2.209-5.302-3.852-4.471-4.562-12.212-3.229-15.719 1.704-3.505 4.933-.035 16.348 2.282 22.4 2.163 5.646 6.298 17.086 11.66 23 .384.424 1.172 1.183 1.172 1.183s16.272-42.149 42.827-82.354c14.75-22.332 47.93-48.214 47.93-48.214s-.3-.539-.942-1.075c-1.105-.92-2.896-1.565-3.308-1.65"/>
            <path fill="#306B34" d="M478.318 306.678c-1.276 4.728-1.912 9.592-2.444 14.416-.694 6.281.501 7.982 2.843 13.321 2.342 5.34 6.717 9.461 12.003 10.203 5.286.742 9.456 2.942 12.707-2.467.46-.763 1.33-.329 1.434.056.74 2.726 1.046 4.421 2.87 6.147 1.908 1.806 13.201 9.142 24.948-1.729 5.695-9.455 7.072-20.29 9.095-31.218.254-1.378.477-2.81.198-4.115-.512-2.4-2.906-3.818-5.054-2.995 1.936-.058 3.732-1.892 4.643-3.982.911-2.09 1.12-4.408 1.313-6.657l2.135-24.943c-5.303 2.69-11.337 2.772-16.203.223 0 0 16.998-5.824 16.054-14.468-.685-6.27-1.86-14.968-2.203-21.316-.24-4.443-2.123-8.997-4.06-12.64-1.653-3.108-2.75-5.259-5.378-7.268-1.588-1.214-3.257-2.46-5.23-2.637-2.997-.269-5.945 1.965-8.435 4.3-4.563 4.277-8.628 9.251-12.4 14.462-4.475 6.182-8.562 12.722-12.21 19.541 4.157 8.02 10.314 14.482 17.646 18.522-6.74-1.503-13.025-4.785-18.267-9.543-.63-.573-1.33-1.197-2.178-1.104-1.69.187-2.362 2.751-2.638 4.704-1.168 8.258-4.288 16.376-8.922 23.214 2.62.68 5.237 1.36 7.856 2.037-3.282.28-6.563.558-9.845.836 0 0 .867 10.858-.278 15.1"/>
            <path fill="#A4B751" d="M475.466 309.25c-1.276 4.726-.59 18.878 2.773 26.187 2.437 5.296 7.118 9.287 12.203 10.911 3.985 1.272 9.735 1.212 12.986-4.197.458-.762 1.33-.33 1.434.056.739 2.726 25.04-127.427 23.126-127.599-2.995-.268-5.943 1.965-8.434 4.3-4.562 4.279-8.627 9.253-12.4 14.464-4.474 6.181-8.561 12.721-12.21 19.54 4.157 8.02 10.314 14.482 17.647 18.523-6.742-1.503-13.026-4.786-18.267-9.543-.631-.575-1.331-1.199-2.18-1.104-1.688.186-2.36 2.75-2.636 4.703-1.168 8.259-4.29 16.377-8.922 23.214l7.856 2.038-9.845.836s-1.986 13.428-3.131 17.67"/>
            <path fill="#A4B750" d="M82.013 340.633c-2.364-1.05-10.332-4.089-10.708-6.854-.41-3.016 1.5-6.32 4.225-7.312 1.176-.428 2.481-.48 3.418-1.532.524-.588.704-1.492.286-2.127-.682-1.036-2.145-.425-3.22.133-2.064 1.067-4.373 1.68-6.572 1.303-2.199-.376-4.254-1.855-5.054-4.084-.799-2.228-.093-5.159 1.834-6.505 1.206-.84 2.718-1.019 3.764-2.21.543-.622.801-1.514.49-2.26-.629-1.508-2.714-.932-4.154-.239-2.035.98-4.196 1.775-6.38 1.743-2.185-.034-4.407-1.013-5.55-2.973-1.145-1.96-.892-4.943.862-6.452.702-.605 1.564-.937 2.303-1.485.886-.66 1.64-1.843 1.045-2.945-.412-.764-1.295-1.033-2.117-.835-1.138.275-1.95 1.09-2.774 1.896-1.298 1.27-2.987 2.008-4.689 1.928-5.085-.234-5.839-6.573-3.009-9.574.795-.843 1.912-1.628 1.836-2.842-.06-.958-.846-1.616-1.73-1.668-1.75-.102-3.04 1.271-4.589 1.85-2.833 1.055-6.143-1.273-6.332-4.455-.145-2.434 2.732-2.553 5.35-3.183.601-.144.655-1.056.074-1.23-2.312-.689-5.1-2.063-6.603-3.004-2.757-1.728-5.094-7.192-.344-8.77 1.273-.423 4.15.574 4.814 1.525.941 1.345 4.41 4.762 4.41 4.762.407.335.994-.148.807-.668-.424-1.18-.697-2.416-.552-3.756.067-.613.24-1.222.531-1.763 1.736-3.227 5.481-2.02 6.904.487 1.183 2.084 1.22 4.716 1.28 7.21.031 1.293.116 2.701 1.105 3.515.56.461 1.376.518 1.945.01.657-.586.513-1.413.57-2.176.186-2.495 2.84-4.324 5.09-3.904 2.25.42 3.906 2.578 4.471 4.965.564 2.388.208 4.965-.38 7.406-.29 1.204-.638 2.495 0 3.6.376.651 1.158.963 1.811.587.93-.536.813-1.859.963-2.924.417-2.956 3.848-4.758 6.41-3.83 2.562.928 4.104 3.841 4.367 6.783.296 3.313-.748 6.676-1.789 9.843-.245.745-.019 1.594.606 1.95.867.49 1.577-.345 2.197-.985 2.397-2.472 6.333-2.91 8.952-.998 2.62 1.914 3.648 5.98 2.34 9.245-.832 2.076-2.475 3.812-2.283 6.254.096 1.21.945 2.216 2.071 2.187 1.42-.038 2.132-1.645 3.013-2.785 2.445-3.165 7.356-2.905 9.898-.095 2.543 2.808 1.224 10.161.227 14.094-.996 3.932-2.91 12.168-6.2 15.978-1.55 1.795-12.876-1.78-15.24-2.83"/>
            <path fill="#619340" d="M33.675 266.947c1.273-.423 4.149.574 4.814 1.525.942 1.345 4.41 4.762 4.41 4.762.407.335.994-.147.807-.668-.424-1.181-.697-2.416-.552-3.756.067-.612.24-1.221.532-1.762 1.735-3.228 5.48-2.021 6.904.487 1.182 2.084 1.219 4.716 1.279 7.21.03 1.293.117 2.7 1.105 3.515.56.46 1.376.517 1.945.009.658-.586.513-1.413.57-2.176.186-2.495 2.84-4.324 5.09-3.904 2.25.419 3.907 2.578 4.47 4.966.565 2.388.209 4.965-.38 7.405-.29 1.204-.637 2.495 0 3.6.377.65 1.159.964 1.812.588.929-.536.814-1.86.964-2.924.416-2.956 3.848-4.76 6.41-3.831 2.56.929 4.103 3.842 4.366 6.783.297 3.314-.748 6.677-1.79 9.844-.243.745-.018 1.594.607 1.948.867.49 1.577-.344 2.198-.983 2.396-2.473 6.332-2.911 8.952-.998 2.619 1.914 3.648 5.978 2.339 9.245-.831 2.076-2.475 3.81-2.282 6.254.095 1.209.945 2.215 2.07 2.186 1.42-.038 2.132-1.644 3.014-2.785 2.445-3.164 7.355-2.904 9.898-.095 2.542 2.809 1.223 10.16.227 14.094-.93 3.67-2.66 11.086-5.56 15.157-.207.292-.641.822-.641.822s-13.214-25.011-32.678-48.056c-10.812-12.801-33.341-26.456-33.341-26.456s.146-.358.505-.737c.62-.654 1.686-1.186 1.936-1.27"/>
            <path fill="#316C35" d="M118.492 313.552c1.14 2.846 1.893 5.823 2.58 8.784.891 3.854.273 5-.79 8.491-1.064 3.492-3.482 6.375-6.714 7.225-3.232.85-5.663 2.524-8.08-.6-.343-.44-.852-.107-.889.14-.259 1.75-.326 2.826-1.332 4.032-1.054 1.264-7.537 6.655-15.639.76-4.235-5.46-5.888-12.098-7.948-18.743-.26-.838-.503-1.712-.426-2.544.143-1.529 1.527-2.587 2.923-2.233-1.208.106-2.46-.903-3.18-2.135-.719-1.233-1.02-2.657-1.305-4.042l-3.16-15.35c3.495 1.28 7.252.89 10.091-1.054 0 0-10.997-2.372-11.045-7.815-.034-3.948.057-9.442-.196-13.415-.177-2.78.66-5.75 1.596-8.157.8-2.054 1.324-3.472 2.81-4.913.898-.872 1.844-1.77 3.058-2.025 1.843-.387 3.84.785 5.56 2.054 3.15 2.324 6.044 5.118 8.772 8.081 3.236 3.515 6.257 7.281 9.027 11.252-1.996 5.291-5.349 9.762-9.61 12.812 4.08-1.429 7.746-3.932 10.655-7.275.35-.402.74-.842 1.274-.846 1.064-.008 1.67 1.537 1.985 2.731 1.333 5.048 3.87 9.866 7.253 13.777l-4.735 1.844 6.182-.203s.26 6.813 1.283 9.367"/>
            <path fill="#A4B750" d="M120.454 314.94c1.141 2.847 1.754 11.696.2 16.486-1.126 3.473-3.743 6.298-6.785 7.68-2.385 1.085-5.964 1.47-8.382-1.653-.342-.442-.85-.108-.888.139-.259 1.749-24.93-77.386-23.753-77.633 1.843-.388 3.84.785 5.56 2.053 3.151 2.325 6.044 5.118 8.772 8.08 3.236 3.516 6.257 7.283 9.027 11.253-1.996 5.29-5.349 9.762-9.61 12.813 4.08-1.43 7.746-3.933 10.655-7.276.35-.402.74-.841 1.274-.845 1.064-.01 1.67 1.536 1.985 2.73 1.333 5.048 3.87 9.866 7.253 13.778l-4.735 1.843 6.182-.203s2.222 8.202 3.245 10.756"/>
            <path fill="#57575F" d="M60.308 50.933h47.505v-2.74H34.445v-.463h-1.371v.017c-.617-1.016-1.724-1.703-3.001-1.703-1.943 0-3.518 1.576-3.518 3.518 0 1.943 1.575 3.518 3.518 3.518 1.277 0 2.384-.686 3-1.703v.035h1.372v-.479h7.578c1.217.066 43.053 2.605 64.734 28.791l2.112-1.748C95.41 61.721 75.02 54.3 60.308 50.933"/>
            <path fill="#2C3E50" d="M36.081 61.095c-.902 0-1.637.734-1.637 1.637 0 .902.735 1.636 1.637 1.636.903 0 1.637-.734 1.637-1.636 0-.903-.734-1.637-1.637-1.637m0 4.645c-1.658 0-3.008-1.35-3.008-3.008s1.35-3.008 3.008-3.008c1.659 0 3.008 1.35 3.008 3.008s-1.349 3.008-3.008 3.008"/>
            <path fill="#2C3E50" d="M36.081 61.848c-.378 0-.685-.307-.685-.686V48.126c0-.379.307-.685.685-.685.379 0 .686.306.686.685v13.036c0 .38-.307.686-.686.686"/>
            <path fill="#7F786A" d="M6.566 95.21c0 16.3 13.214 29.515 29.515 29.515 16.3 0 29.515-13.215 29.515-29.515S52.381 65.694 36.081 65.694 6.566 78.91 6.566 95.21"/>
            <path fill="#57575F" d="M36.081 66.357C20.172 66.357 7.228 79.3 7.228 95.21c0 15.91 12.944 28.853 28.853 28.853 15.91 0 28.853-12.943 28.853-28.853 0-15.91-12.943-28.853-28.853-28.853m0 59.03c-16.639 0-30.177-13.538-30.177-30.177 0-16.64 13.538-30.176 30.177-30.176 16.64 0 30.177 13.537 30.177 30.176 0 16.639-13.537 30.177-30.177 30.177"/>
            <path fill="#FFAF12" d="M23.359 99.59c0 .146-.006.268-.02.365-.011.098-.03.177-.055.238-.026.06-.057.104-.094.131-.038.028-.08.041-.125.041h-4.896c-.166 0-.305-.048-.418-.146-.113-.098-.17-.258-.17-.479v-8.496c0-.22.057-.38.17-.478.113-.099.252-.148.418-.148h4.866c.045 0 .085.013.12.038.036.026.066.07.09.132.026.063.045.143.057.241.013.098.019.222.019.373 0 .14-.006.26-.02.358-.011.098-.03.177-.055.237-.025.061-.055.105-.091.132-.035.027-.075.041-.12.041h-3.48v2.381H22.5c.046 0 .087.014.125.041.037.027.068.07.094.128.025.058.044.136.056.233.013.1.019.218.019.36 0 .144-.006.264-.02.36-.011.096-.03.172-.055.23-.026.057-.057.1-.094.124-.038.025-.08.038-.125.038h-2.945v2.75h3.51c.045 0 .087.013.125.041.037.027.068.071.094.131.025.061.044.14.056.238.013.097.019.22.019.365M31.238 100.118c0 .05-.014.094-.042.132-.027.037-.077.067-.15.09-.073.023-.172.04-.297.052-.126.013-.29.02-.49.02-.206 0-.373-.005-.501-.016-.128-.01-.233-.026-.316-.05-.083-.021-.147-.052-.192-.092-.046-.04-.086-.093-.121-.158l-2.237-3.541v3.555c0 .05-.015.095-.046.132-.03.038-.081.069-.154.095-.073.024-.17.044-.29.055-.121.013-.273.02-.46.02-.185 0-.338-.007-.46-.02-.12-.011-.216-.031-.29-.055-.072-.026-.123-.057-.153-.095-.03-.037-.045-.081-.045-.132v-9.905c0-.05.015-.096.045-.136.03-.04.08-.074.154-.101.073-.028.17-.05.29-.064.12-.015.274-.023.46-.023s.338.008.459.023c.12.015.217.036.29.064.073.027.125.06.154.1.03.04.046.087.046.137v5.898l1.989-2.674c.04-.06.085-.113.135-.16.05-.044.117-.08.2-.104.083-.025.186-.044.309-.056.123-.012.279-.02.47-.02.186 0 .343.008.47.02.129.012.232.03.31.056.078.025.13.057.162.095.03.037.045.084.045.139 0 .075-.02.156-.056.24-.038.086-.095.176-.17.272L28.79 96.14l2.275 3.518c.06.1.104.188.13.26.029.073.043.139.043.2M36.805 96.758c0-.332-.026-.637-.08-.915-.052-.279-.141-.522-.267-.728-.125-.206-.292-.366-.501-.48-.208-.117-.47-.175-.787-.175-.281 0-.527.052-.738.154-.211.104-.384.254-.52.453-.135.198-.237.436-.305.715-.068.28-.101.596-.101.954 0 .331.027.635.082.915.056.278.145.52.268.726.123.206.29.365.5.48.212.112.473.168.784.168.287 0 .535-.05.746-.155.21-.102.384-.252.52-.448.135-.195.235-.433.3-.712.066-.278.099-.596.099-.952m1.95-.075c0 .572-.075 1.095-.225 1.566-.151.472-.38.88-.685 1.221-.307.341-.691.604-1.153.79-.462.186-1.002.28-1.62.28-.597 0-1.117-.084-1.56-.25-.441-.165-.808-.406-1.1-.722-.29-.317-.506-.706-.647-1.168-.14-.462-.21-.99-.21-1.582 0-.573.076-1.096.229-1.57.153-.475.383-.882.689-1.22.307-.339.69-.602 1.149-.788.46-.186.998-.279 1.616-.279.603 0 1.125.082 1.567.245.442.163.807.404 1.096.72.289.315.503.705.644 1.167.14.462.21.992.21 1.59M42.484 99.282c0 .467-.082.78-.245.94-.163.162-.455.243-.877.243s-.713-.08-.874-.238c-.161-.158-.241-.46-.241-.9 0-.472.082-.788.245-.95.163-.16.458-.241.885-.241.417 0 .706.08.866.238.16.158.24.46.24.908M46.273 100.11c0 .05-.015.095-.045.132-.03.038-.082.069-.155.095-.072.024-.17.044-.29.055-.12.013-.273.02-.46.02-.185 0-.338-.007-.46-.02-.12-.011-.216-.031-.29-.055-.071-.026-.123-.057-.153-.095-.03-.037-.045-.081-.045-.132v-6.704c0-.05.015-.094.045-.132.03-.037.082-.07.154-.098.073-.027.17-.048.29-.064.12-.015.274-.023.46-.023s.339.008.459.023c.12.016.218.037.29.064.073.028.125.06.155.098.03.038.045.082.045.132v6.704zm.143-8.994c0 .382-.078.645-.233.79-.156.146-.445.22-.867.22-.426 0-.714-.071-.862-.211-.148-.141-.223-.395-.223-.761 0-.382.077-.647.23-.795.154-.147.443-.222.87-.222.422 0 .709.072.859.214.15.144.226.399.226.765zM54.581 100.11c0 .05-.015.095-.045.132-.03.038-.08.069-.15.095-.07.024-.168.044-.29.055-.123.013-.275.02-.456.02-.185 0-.34-.007-.464-.02-.123-.011-.22-.031-.29-.055-.07-.026-.12-.057-.15-.095-.03-.037-.045-.081-.045-.132v-3.834c0-.326-.025-.582-.072-.77-.047-.184-.117-.343-.206-.477-.091-.133-.207-.235-.351-.31-.143-.071-.31-.108-.502-.108-.24 0-.483.088-.73.264-.246.175-.502.432-.768.768v4.467c0 .05-.015.095-.045.132-.03.038-.082.069-.155.095-.073.024-.17.044-.29.055-.12.013-.274.02-.46.02s-.339-.007-.459-.02c-.12-.011-.218-.031-.29-.055-.072-.026-.124-.057-.154-.095-.03-.037-.046-.081-.046-.132v-6.72c0-.05.014-.093.039-.131.025-.038.07-.07.135-.094.066-.025.15-.044.252-.056.104-.013.233-.02.389-.02.16 0 .292.007.398.02.105.012.188.03.245.056.057.025.1.056.124.094.026.038.038.08.038.132v.776c.371-.402.75-.703 1.133-.904.385-.201.786-.301 1.203-.301.456 0 .842.075 1.156.226.314.15.567.355.76.613.194.259.334.562.419.909.084.345.127.762.127 1.25v4.15z"/>
            <path fill="#F6C8B2" d="M270.11 19.9v316.887c0 6.918-5.324 12.547-11.871 12.547H108.887c-6.555 0-11.881-5.63-11.881-12.547V19.9c0-6.918 5.326-12.547 11.88-12.547H258.24c6.547 0 11.872 5.629 11.872 12.547"/>
            <path fill="#FFF" d="M97.006 48.345v288.441c0 6.918 5.326 12.547 11.88 12.547H258.24c6.547 0 11.872-5.629 11.872-12.547V48.346H97.006z"/>
            <path fill="#F4E6C6" d="M241.265 209.033h-31.182c-6.454 0-11.735-5.28-11.735-11.734s5.281-11.735 11.735-11.735h31.182c6.454 0 11.735 5.28 11.735 11.735 0 6.454-5.28 11.734-11.735 11.734"/>
            <path fill="#FD9F00" d="M218.84 198.573c0 .334-.062.627-.187.88s-.293.463-.506.632c-.214.169-.463.296-.748.382-.285.084-.59.127-.914.127-.22 0-.424-.02-.613-.054-.189-.036-.355-.08-.499-.13-.144-.052-.264-.106-.36-.16-.098-.056-.168-.106-.21-.148-.043-.043-.073-.104-.09-.184-.019-.08-.029-.196-.029-.347 0-.102.004-.186.01-.256.007-.068.018-.125.032-.167.015-.043.035-.073.06-.091.024-.018.053-.027.086-.027.046 0 .11.027.194.08.083.056.191.114.322.18.131.066.288.126.47.179.182.055.392.082.631.082.158 0 .3-.018.424-.057.124-.037.23-.091.317-.16.087-.07.153-.153.2-.255.045-.102.068-.215.068-.34 0-.144-.039-.268-.118-.37-.079-.105-.182-.195-.308-.276-.126-.081-.27-.156-.43-.226-.16-.07-.326-.145-.497-.225-.17-.078-.336-.167-.496-.267-.162-.1-.305-.22-.43-.36-.127-.138-.23-.303-.308-.494-.079-.19-.118-.418-.118-.683 0-.304.056-.574.17-.804.112-.231.265-.423.457-.575.191-.154.418-.267.678-.343.261-.074.537-.112.83-.112.15 0 .301.01.452.034.15.022.292.054.423.094.13.039.247.083.35.13.1.05.167.092.2.124.033.034.055.062.067.084.011.023.021.054.03.09.008.04.013.087.017.145.003.057.004.128.004.214 0 .094-.002.175-.007.24s-.013.12-.024.162c-.012.043-.028.074-.05.094-.02.02-.05.029-.086.029-.036 0-.093-.022-.172-.068-.079-.046-.175-.096-.29-.151-.115-.053-.248-.102-.398-.147-.15-.044-.317-.067-.498-.067-.14 0-.263.018-.368.052-.105.035-.193.082-.263.144-.07.059-.123.133-.158.219-.034.084-.05.174-.05.27 0 .14.037.263.114.365.077.105.181.196.31.277.13.08.276.155.44.225.164.07.332.146.502.225.17.078.338.167.502.267.164.1.31.22.438.359.128.139.23.304.31.492.078.188.117.41.117.667M223.601 199.974c0 .095-.004.175-.012.238-.009.065-.021.116-.037.156-.017.04-.037.068-.062.085-.024.018-.051.027-.081.027h-3.197c-.108 0-.198-.03-.272-.095-.074-.064-.111-.169-.111-.312v-5.548c0-.145.037-.248.111-.313.074-.063.164-.096.272-.096h3.178c.029 0 .055.008.078.025.023.016.043.045.059.086.016.041.029.094.037.158.008.064.012.145.012.243 0 .092-.004.17-.012.234-.008.063-.021.115-.037.155-.016.04-.036.067-.059.085-.023.018-.049.027-.078.027h-2.273v1.554h1.923c.03 0 .057.01.082.027.024.02.044.046.061.084.016.037.028.09.037.153.008.063.012.141.012.234 0 .095-.004.173-.012.235-.009.063-.021.113-.037.151-.017.037-.037.064-.061.081-.025.016-.052.024-.082.024h-1.923v1.795h2.292c.03 0 .057.01.081.027.025.018.045.047.062.086.016.04.028.091.037.156.008.063.012.142.012.238M229.99 200.028c0 .075-.013.143-.04.202-.025.059-.061.108-.105.148-.044.039-.097.067-.157.086-.061.017-.122.027-.185.027h-.55c-.115 0-.214-.012-.298-.035-.083-.023-.161-.065-.231-.125-.071-.061-.14-.143-.205-.246-.065-.104-.14-.238-.221-.402l-1.583-2.974c-.092-.177-.185-.37-.28-.574-.096-.205-.181-.404-.256-.597h-.01c.013.236.023.47.03.706.006.234.009.476.009.724v3.33c0 .034-.01.063-.027.088-.018.027-.05.05-.093.067-.044.018-.104.032-.18.042-.075.01-.172.014-.29.014-.115 0-.21-.003-.285-.014-.076-.01-.134-.024-.177-.042-.043-.017-.072-.04-.09-.067-.015-.025-.023-.054-.023-.087v-5.72c0-.154.045-.27.135-.347.09-.077.2-.116.332-.116h.694c.124 0 .229.012.314.033.085.02.162.057.229.106.067.049.13.117.189.204.059.087.12.194.182.32l1.239 2.328.215.415c.07.136.138.273.203.408l.192.402c.063.13.123.26.182.392h.005c-.01-.23-.017-.468-.022-.717-.005-.25-.007-.487-.007-.713v-2.986c0-.032.009-.061.029-.088.02-.026.053-.05.099-.07.045-.018.106-.033.182-.041.075-.008.17-.012.29-.012.11 0 .205.004.28.012.076.008.134.023.175.042.04.02.069.043.086.069.016.027.024.056.024.088v5.72zM235.326 197.25c0-.303-.035-.583-.106-.841-.07-.26-.184-.483-.339-.674-.156-.19-.356-.34-.6-.446-.245-.106-.565-.16-.96-.16h-.656v4.329h.674c.354 0 .653-.047.895-.138.242-.091.445-.23.607-.416.163-.184.284-.416.364-.69.081-.276.121-.599.121-.964m1.338-.044c0 .583-.077 1.083-.229 1.496-.152.415-.372.754-.656 1.017-.286.26-.633.454-1.04.578-.409.123-.895.183-1.459.183h-1.52c-.108 0-.199-.031-.272-.094-.074-.065-.11-.17-.11-.314v-5.548c0-.143.036-.248.11-.311.073-.064.164-.097.272-.097h1.633c.567 0 1.048.066 1.444.2.395.132.727.33.998.59.27.26.476.582.617.965.141.385.212.828.212 1.334"/>
            <g transform="translate(90)">
                <mask id="prefix__b" fill="#fff">
                    <use xlink:href="#prefix__a"/>
                </mask>
                <path fill="#57575F" d="M183.276 336.787c0 8.78-6.736 15.892-15.037 15.892H18.887c-8.31 0-15.046-7.111-15.046-15.892V19.9c0-8.772 6.737-15.891 15.046-15.891h149.352c8.3 0 15.037 7.119 15.037 15.89v316.887zM168.239.665H18.887C8.84.665.677 9.294.677 19.9v316.886c0 10.606 8.164 19.235 18.21 19.235h149.352c10.037 0 18.202-8.63 18.202-19.235V19.9c0-10.607-8.165-19.236-18.202-19.236z" mask="url(#prefix__b)"/>
            </g>
            <path fill="#7F786A" d="M270.113 336.785c0 6.916-5.328 12.547-11.875 12.547H108.885c-6.556 0-11.876-5.631-11.876-12.547V19.903c0-6.916 5.32-12.547 11.876-12.547h149.353c6.547 0 11.875 5.63 11.875 12.547v316.882zM258.238 4.009H108.885c-8.307 0-15.043 7.12-15.043 15.894v316.882c0 3.684 1.18 7.063 3.167 9.748 1.588 2.16 3.692 3.88 6.114 4.936 1.776.785 3.724 1.21 5.762 1.21h149.353c8.298 0 15.035-7.112 15.035-15.894V19.903c0-8.774-6.737-15.894-15.035-15.894z"/>
            <mask id="prefix__d" fill="#fff">
                <use xlink:href="#prefix__c"/>
            </mask>
            <path fill="#F3F8F7" d="M109.162 26.365L111.719 26.365 111.719 22.54 109.162 22.54zM112.571 26.365L115.129 26.365 115.129 21.61 112.571 21.61zM115.981 26.365L118.539 26.365 118.539 20.681 115.981 20.681zM119.391 26.365L121.948 26.365 121.948 19.752 119.391 19.752zM255.324 26.365h-9.874c-.805 0-1.457-.651-1.457-1.456v-3.701c0-.804.652-1.456 1.457-1.456h9.874c.804 0 1.457.652 1.457 1.456v3.7c0 .806-.653 1.457-1.457 1.457M257.146 21.724v2.668c.453-.06.81-.63.81-1.334 0-.703-.357-1.273-.81-1.334" mask="url(#prefix__d)"/>
            <path fill="#FFF4DD" d="M160.841 86.124V349.33h-51.956c-6.556 0-11.876-5.63-11.876-12.547V86.124h63.832z" mask="url(#prefix__d)"/>
            <path fill="#D4DAE3" d="M242.155 81.837v7.282c0 6.582 5.247 11.918 11.72 11.918 6.472 0 11.719-5.336 11.719-11.918v-7.282h-23.44z" mask="url(#prefix__d)"/>
            <path fill="#F3F8F7" d="M265.594 81.837L255.448 48.274 234.908 48.274 242.155 81.837z" mask="url(#prefix__d)"/>
            <path fill="#F6C8B2" d="M242.155 81.837L234.908 48.274 214.368 48.274 218.717 81.837z" mask="url(#prefix__d)"/>
            <path fill="#E8BAAA" d="M218.716 81.837v7.282c0 6.582 5.247 11.918 11.72 11.918 6.472 0 11.718-5.336 11.718-11.918v-7.282h-23.438z" mask="url(#prefix__d)"/>
            <path fill="#F3F8F7" d="M218.716 81.837L214.368 48.274 193.828 48.274 195.278 81.837z" mask="url(#prefix__d)"/>
            <path fill="#D4DAE3" d="M195.278 81.837v7.282c0 6.582 5.247 11.918 11.719 11.918 6.473 0 11.719-5.336 11.719-11.918v-7.282h-23.438z" mask="url(#prefix__d)"/>
            <path fill="#F6C8B2" d="M195.278 81.837L193.829 48.274 173.289 48.274 171.84 81.837z" mask="url(#prefix__d)"/>
            <path fill="#E8BAAA" d="M171.84 81.837v7.282c0 6.582 5.246 11.918 11.718 11.918 6.472 0 11.72-5.336 11.72-11.918v-7.282h-23.439z" mask="url(#prefix__d)"/>
            <path fill="#F3F8F7" d="M171.839 81.837L173.288 48.274 152.749 48.274 148.4 81.837z" mask="url(#prefix__d)"/>
            <path fill="#D4DAE3" d="M148.4 81.837v7.282c0 6.582 5.247 11.918 11.72 11.918 6.472 0 11.72-5.336 11.72-11.918v-7.282H148.4z" mask="url(#prefix__d)"/>
            <path fill="#E8BAAA" d="M124.962 81.837v7.282c0 6.582 5.247 11.918 11.719 11.918 6.473 0 11.719-5.336 11.719-11.918v-7.282h-23.438z" mask="url(#prefix__d)"/>
            <path fill="#F6C8B2" d="M148.4 81.837L152.749 48.274 132.209 48.274 124.962 81.837z" mask="url(#prefix__d)"/>
            <path fill="#F3F8F7" d="M124.962 81.837L132.209 48.274 111.67 48.274 101.524 81.837z" mask="url(#prefix__d)"/>
            <path fill="#D4DAE3" d="M101.523 81.837v7.282c0 6.582 5.247 11.918 11.72 11.918 6.471 0 11.718-5.336 11.718-11.918v-7.282h-23.438z" mask="url(#prefix__d)"/>
            <path fill="#E8BAAA" d="M78.085 81.837v7.282c0 6.582 5.247 11.918 11.719 11.918 6.472 0 11.719-5.336 11.719-11.918v-7.282H78.085z" mask="url(#prefix__d)"/>
            <path fill="#F6C8B2" d="M111.669 48.274L91.129 48.274 78.085 81.837 101.523 81.837zM289.032 81.837L275.987 48.274 255.447 48.274 265.594 81.837z" mask="url(#prefix__d)"/>
            <path fill="#E8BAAA" d="M265.594 81.837v7.282c0 6.582 5.247 11.918 11.719 11.918 6.472 0 11.719-5.336 11.719-11.918v-7.282h-23.438z" mask="url(#prefix__d)"/>
            <path fill="#57575F" d="M91.071 48.278L276.046 48.278 276.046 38.721 91.071 38.721z" mask="url(#prefix__d)"/>
            <path fill="#7F786A" d="M91.071 42.623L276.046 42.623 276.046 40.868 91.071 40.868z" mask="url(#prefix__d)"/>
            <path fill="#E59C28" d="M58.45 126.645s2.419-2.512 10.988-2.512c7.42 0 9.532 2.512 9.532 2.512l-9.98 13.102-10.54-13.102z" mask="url(#prefix__d)"/>
            <path fill="#7F786A" d="M33.736 346.412s-3.997 13.472-2.205 13.472h24.185c3.447 0-4.61-5.211-10.735-9.698-3.822-2.8-6.434-5.69-6.434-5.69l-4.811 1.916z" mask="url(#prefix__d)"/>
            <path fill="#57575F" d="M39.16 353.479c.14 0 .277-.067.362-.191 1.408-2.084 3.795-2.89 6.385-2.157.232.067.473-.068.54-.3.065-.232-.07-.473-.302-.54-2.927-.828-5.74.132-7.346 2.507-.136.201-.083.471.117.607.075.051.16.074.244.074M41.837 356.012c.12 0 .238-.049.324-.145 1.962-2.17 4.738-2.812 7.615-1.756.227.083.478-.034.561-.26.083-.226-.034-.477-.26-.56-3.229-1.185-6.35-.459-8.564 1.992-.16.178-.147.455.032.616.083.076.188.113.292.113M31.373 361.28h25.491c.434 0 .786-.264.786-.698 0-.434-.352-.698-.786-.698H31.373c-.434 0-.786.264-.786.698 0 .434.352.699.786.699" mask="url(#prefix__d)"/>
            <path fill="#7F786A" d="M94.636 347.598s-2.167 12.285-.375 12.285h30.67c5.388-3.259-16.474-8.54-22.747-14.627-1.938-.088-7.548 2.342-7.548 2.342" mask="url(#prefix__d)"/>
            <path fill="#57575F" d="M106.563 353.81c.197 0 .376-.136.424-.335.217-.903 1.062-2.639 2.85-3.417.222-.096.323-.353.227-.574-.096-.22-.352-.322-.574-.227-2.105.915-3.097 2.953-3.352 4.013-.056.234.087.471.322.527.035.008.069.012.103.012M110.04 355.638c.183 0 .354-.117.414-.303.196-.6.979-2.63 2.862-3.448.22-.097.322-.353.225-.574-.096-.222-.352-.322-.573-.227-2.219.964-3.12 3.29-3.344 3.981-.075.23.052.475.28.55.046.014.09.021.136.021M93.53 361.28h32.474c.434 0 .785-.264.785-.698 0-.434-.35-.698-.785-.698H93.53c-.434 0-.786.264-.786.698 0 .434.352.699.786.699" mask="url(#prefix__d)"/>
            <path fill="#7F786A" d="M44.963 208.168c19.126 3.237 47.016 1.55 50.84 0 .79 3.328 5.72 60.313 6.685 76.58.558 9.394 3.276 38.54 4.634 61.379.147 2.486-12.693 2.846-13.147 1.986-1.63-3.082-12.488-25.303-16.272-48.241-.602-3.649 2.428-17.853 1.514-21.398-5.815-22.543-7.583-26.972-8.979-32.61-1.804 0-9.892 33.193-12.065 42.78-3.56 15.714-11.29 49.625-12.327 58.296-.15 1.255-14.364 1.628-14.368.488-.015-4.84-4.62-23.875-3.667-48.014.304-7.683 7.347-16.68 7.783-21.291 1.73-18.274 2.463-34.037 4.303-47.417 1.352-9.831 3.828-19.403 5.066-22.537" mask="url(#prefix__d)"/>
            <path fill="#FDBD4E" d="M93.754 177.014c-.855 29.588 7.3 39.776 3.332 44.22-1.908 2.134-49.274 6.204-55.778 1.091-2.834-2.229 4.835-27.024 1.536-47.924l-6.79-33.287c5.18-6.759 23.084-12.296 32.323-11.557 9.284-.74 26.75 6.625 30.38 12.256 2.668 4.14 4.756 9.48 6.255 14.438.002.005.002.01.004.011l-11.262 20.752z" mask="url(#prefix__d)"/>
            <path fill="#FDBD4E" d="M99.464 226.837s-5.53 8.207-23.27 8.828l-2.144-9.39-2.308 9.411c-17.051-.464-31.138-9.544-31.138-9.544l.704-3.819c6.51 5.106 53.68.46 55.778-1.09l2.378 5.604z" mask="url(#prefix__d)"/>
            <path fill="#E59C28" d="M72.107 139.33c-.355 0-.645.29-.645.646 0 .355.29.644.645.644.355 0 .645-.29.645-.644 0-.356-.29-.645-.645-.645M72.107 142.935c-.355 0-.645.29-.645.645 0 .355.29.644.645.644.355 0 .645-.289.645-.644 0-.356-.29-.645-.645-.645M72.107 146.539c-.355 0-.645.289-.645.645 0 .355.29.644.645.644.355 0 .645-.29.645-.644 0-.356-.29-.645-.645-.645" mask="url(#prefix__d)"/>
            <path fill="#57575F" d="M74.295 121.251c1.408-.445 2.858-5.58 3.714-7.744 1.22-3.088 2.904-6.758 1.9-11.654-.341-1.668-1.185-4.69-6.012-5.387-4.531-.655-11.403.788-12.488 5.345-5.2 2.321-1.76 8.396-1.452 11.875.428 4.865 4.24 7.15 6.202 6.69 4.33-1.017 4.722 1.954 8.136.875" mask="url(#prefix__d)"/>
            <path fill="#F3B38C" d="M61.802 113.295c.28 9.246-1.91 15.187-2.3 17.05-.33 1.58 2.599 5.421 9.96 5.421 5.863 0 10.617-2.794 9.749-4.35-1.328-2.38-4.951-9.373-3.45-16.045 1.5-6.672-10.175 1.985-13.96-2.076" mask="url(#prefix__d)"/>
            <path fill="#F3B38C" d="M61.64 110.288c1.773-.18 1.335 3.2 1.685 3.237.804.085 1.298-5.127 1.464-8.228 2.128-3.487 11.064 2.21 13.574-.292.885.97 1.703 14.722-.834 18.579-.907 1.378-3.057 2.84-4.784 2.84-5.786 0-8.277-3.52-8.985-5.214-.733-1.752-.602-4.268-.765-5.001-1.705.097-2.42-5.814-1.354-5.921" mask="url(#prefix__d)"/>
            <path fill="#57575F" d="M76.245 107.116c-1.33 0-3.021-.566-4.774-1.155-2.82-.946-5.735-1.924-6.757-.25l-.421-.256c1.226-2.01 4.332-.97 7.335.039 2.486.834 5.056 1.696 6.132.624l.348.349c-.468.466-1.108.649-1.863.649M63.446 122.158c1.905 4.686 8.407 5.416 12.405 4.267 3.321-.954 4.75-6.26 3.326-8.533-.065-.104-.214-.114-.293-.02-2.2 2.636-8.79 2.419-12.657-.11-2.528-1.652-2.135-5.364-1.904-7.351.231-1.988-1.839-1.217-1.419.949.42 2.165-.47 8.307.542 10.798" mask="url(#prefix__d)"/>
            <path fill="#E59C28" d="M58.451 126.645L53.623 131.841 61.975 139.124 69.186 135.31zM78.97 126.645L83.147 132.121 76.954 138.196 69.387 135.342z" mask="url(#prefix__d)"/>
            <path fill="#FDBD4E" d="M82.138 161.7s-8.615-18.941 3.872-23.618c5.228-1.958 11.378-1.093 16.75 10.893 5.473 12.783 7.351 15.297 7.351 15.297s26.512-3.576 27.537-1.22c0 0 3.735 3.334.992 6.598-5.07 6.04-19.663 15.164-33.579 14.707-12.594-.413-22.923-22.657-22.923-22.657" mask="url(#prefix__d)"/>
            <path fill="#E59C28" d="M93.513 178.583c-.047 0-.095-.008-.142-.025-.212-.08-.322-.314-.244-.528 2.199-5.999 2.849-12.508 1.877-18.825-.034-.224.119-.434.343-.468.224-.035.434.12.469.344.992 6.453.329 13.104-1.918 19.232-.061.166-.218.27-.385.27" mask="url(#prefix__d)"/>
            <path fill="#F4E6C6" d="M134.507 162.87c-.073.122-.16.802-.136 1.813.072 2.978 3.731 4.363 5.771 2.193 3.248-.934 10.485-.808 17.014-4.71 2.255-1.347 3.207-2.88 1.117-3.618-2.617-.925-16.208-1.336-17.359-3.534-.445-.851 1.171-1.872 1.724-2.83.962-1.664.236-3.653-.84-3.518-.818.102-1.04 1.936-1.899 3.195-.772 1.13-3.704 3.003-4.402 4.586-.698 1.584-.01 4.788-.99 6.424" mask="url(#prefix__d)"/>
            <path fill="#F4E6C6" d="M134.82 163.036c-.037.112-.12.669-.097 1.639.03 1.227.763 2.262 1.912 2.702 1.158.443 2.403.158 3.25-.742l.067-.071.093-.027c.944-.271 2.207-.454 3.668-.665 3.65-.527 8.647-1.25 13.262-4.008 1.617-.967 2.147-1.778 2.103-2.216-.037-.38-.522-.627-.923-.768-.89-.316-3.28-.587-5.812-.876-6.39-.728-10.972-1.357-11.74-2.827-.409-.78.315-1.548.953-2.228.298-.316.606-.644.777-.94.566-.98.476-2.071.096-2.644-.118-.178-.316-.385-.587-.35-.284.037-.55.695-.81 1.333-.223.55-.476 1.175-.842 1.71-.34.499-1.007 1.078-1.779 1.748-1.035.898-2.209 1.917-2.592 2.784-.29.658-.319 1.669-.349 2.738-.039 1.347-.079 2.739-.65 3.708zm2.914 5.253c-.449 0-.905-.083-1.35-.254-1.423-.544-2.329-1.825-2.365-3.344-.018-.75.02-1.724.186-2.001.487-.812.524-2.118.56-3.382.033-1.141.064-2.218.41-3.002.446-1.012 1.683-2.085 2.774-3.033.704-.611 1.37-1.19 1.66-1.611.322-.475.56-1.062.77-1.58.365-.9.681-1.68 1.375-1.766.485-.06.944.18 1.262.659.485.73.67 2.102-.073 3.386-.21.366-.548.725-.874 1.072-.477.507-1.018 1.083-.842 1.417.655 1.252 6.998 1.975 11.196 2.454 2.683.305 5.001.57 5.967.91.862.305 1.33.764 1.39 1.364.117 1.175-1.48 2.315-2.443 2.89-4.737 2.832-9.815 3.566-13.523 4.102-1.389.2-2.594.374-3.485.619-.712.72-1.636 1.1-2.595 1.1z" mask="url(#prefix__d)"/>
            <path fill="#FFF4DD" d="M149.393 162.82l-.162-.001c-.195-.003-.35-.163-.348-.357.003-.194.16-.348.352-.348h.006c1.257.016 2.684-.188 3.943-.368 2.161-.311 3.466-.498 3.648.345.042.19-.079.378-.27.419-.183.039-.362-.07-.413-.247-.27-.192-1.767.023-2.865.18-1.231.178-2.62.377-3.891.377M157.95 161.55c-.168 0-.317-.12-.347-.292-.156-.897-3.28-.819-5.56-.762-1.066.027-2.072.052-2.943.011-.194-.009-.344-.174-.335-.368.009-.194.176-.34.368-.336.845.04 1.84.015 2.892-.012 3.092-.077 6.012-.15 6.273 1.346.033.191-.096.374-.287.407-.021.004-.041.006-.061.006" mask="url(#prefix__d)"/>
            <path fill="#FFF4DD" d="M158.812 160.54c-.152 0-.292-.1-.338-.253-.272-.923-3.885-1.098-6.276-1.214-1.187-.057-2.308-.112-3.161-.228-.193-.027-.328-.204-.302-.397.027-.193.205-.328.397-.302.823.113 1.93.166 3.1.223 3.929.19 6.533.413 6.918 1.719.055.186-.051.383-.238.437-.034.01-.067.015-.1.015" mask="url(#prefix__d)"/>
            <path fill="#F4E6C6" d="M141.267 162.15c-.136 0-.266-.078-.323-.211-.078-.18.004-.387.182-.464.19-.083.657-.345.877-.988.264-.773.057-1.812-.598-3.005-.094-.171-.032-.385.139-.478.171-.094.385-.032.478.139.764 1.39.982 2.593.648 3.57-.311.91-.986 1.289-1.263 1.409-.046.019-.093.029-.14.029" mask="url(#prefix__d)"/>
            <path fill="#FFF" d="M46.309 230.867l62.728-11.355c2.712-.492 4.514-3.09 4.023-5.804l-3.28-18.121c-.492-2.714-3.09-4.516-5.803-4.025l-62.729 11.356c-2.712.49-4.515 3.09-4.023 5.803l3.28 18.122c.491 2.713 3.09 4.515 5.803 4.024" mask="url(#prefix__d)"/>
            <path fill="#F4E6C6" d="M104.868 192.057c-.26 0-.524.022-.789.071l-62.728 11.355c-1.16.211-2.17.86-2.844 1.83-.673.971-.927 2.144-.717 3.306l3.28 18.121c.434 2.397 2.737 3.993 5.136 3.561l62.727-11.355c1.162-.21 2.172-.86 2.845-1.83.672-.97.927-2.145.716-3.306l-3.28-18.12c-.386-2.134-2.25-3.633-4.346-3.633m-59.452 39.465c-2.64 0-4.99-1.89-5.477-4.577l-3.28-18.12c-.266-1.465.056-2.945.903-4.167.848-1.222 2.12-2.04 3.584-2.306l62.728-11.356c3.021-.548 5.924 1.466 6.472 4.488l3.28 18.121c.265 1.464-.056 2.943-.904 4.166-.847 1.222-2.12 2.041-3.584 2.306L46.41 231.432c-.333.061-.666.09-.994.09" mask="url(#prefix__d)"/>
            <path fill="#FDBD4E" d="M63.925 194.761c-4.305-3.92-9.538-9.688-14.224-13.554-3.681-3.036-6.268-4.465-6.334-4.904-.476-3.182 5.205-23.788 5.205-23.788l-12.517-11.4c-12.781 15.066-14.068 40.2-12.275 45.574 3.049 9.144 34.957 19.604 39.258 12.45 1.575-.274.887-4.378.887-4.378" mask="url(#prefix__d)"/>
            <path fill="#E59C28" d="M55.044 201.561c-2.667 0-6.854-.329-12.215-1.811-.219-.06-.347-.287-.286-.505.06-.218.287-.347.505-.287 9.29 2.568 15.097 1.592 15.155 1.582.988-.171 3.728-3.513 5.362-5.754-1.265-1.44-7.822-8.838-11.99-12.276-1.977-1.631-4.26-3.085-5.928-4.147-2.2-1.402-2.612-1.68-2.519-2.142 1.06-5.207 5.057-15.223 5.226-15.646.085-.211.324-.313.534-.229.211.084.313.323.23.533-.042.103-4.06 10.175-5.154 15.356.274.257 1.213.855 2.124 1.435 1.685 1.074 3.993 2.544 6.01 4.206 4.658 3.843 12.225 12.529 12.3 12.616l.213.245-.189.263c-.724 1.01-4.42 6.062-6.078 6.349-.105.019-1.257.212-3.3.212" mask="url(#prefix__d)"/>
            <path fill="#FFF4DD" d="M47.194 201.842c4.08 1.984 14.8 5.121 15.43 5.243 1.054.201 4.21-3.103 4.049-5.824-.035-.564-.41-1.575-.973-2.77l-18.506 3.351z" mask="url(#prefix__d)"/>
            <path fill="#F4E6C6" d="M62.954 206.92c1.052.202 7.33-3.103 7.167-5.824-.133-2.234-5.618-11.458-6.834-11.385-4.108.245-9.744 10.303-9.18 11.023 1.328 1.693 8.102 6.043 8.847 6.186" mask="url(#prefix__d)"/>
            <path fill="#FFF4DD" d="M68.374 203.004c-.15 0-.287-.096-.335-.244-.472-1.457-4.668-7.192-6.773-9.032-.148-.128-.163-.35-.035-.497.128-.147.352-.162.497-.034 2.218 1.94 6.476 7.786 6.98 9.345.061.186-.04.385-.225.444-.037.012-.074.018-.11.018M66.326 204.407c-.136 0-.266-.08-.323-.213-.852-1.972-5.058-6.35-7.46-8.058-.159-.113-.196-.333-.083-.492.112-.158.332-.196.491-.083 2.523 1.794 6.791 6.253 7.7 8.354.076.179-.007.387-.185.463-.046.02-.093.029-.14.029M64.242 206.034c-.133 0-.261-.076-.32-.205-.806-1.752-4.565-4.811-6.977-6.422-.161-.108-.205-.327-.097-.49.108-.161.328-.204.489-.096 2.309 1.544 6.313 4.732 7.225 6.713.08.177.004.386-.173.467-.047.022-.097.033-.147.033" mask="url(#prefix__d)"/>
            <path fill="#FFF" d="M75.46 127.212c-4.004 1.262-10.33.056-12.374-4.616-.477-1.092-.903-6.533-.154-6.619.748-.085 1.558 3.787 2.448 3.758 1.525-.052 1.946-1.805-.081-3.139-1.04-.684-1.271-1.897-1.807-3.03-.305-.8-.58-1.517-.778-2.295-.357-1.395.738-.41 1.35.535 1.098 1.693 1.258 1.713 2.64 2.705 1.987 1.424 3.81-.996 6.354-1.08 2.31-.076 5.455.91 6.152 1.561.092.086-.032.5.11.843 1.804 4.33-.533 10.328-3.86 11.377" mask="url(#prefix__d)"/>
            <path fill="#7F786A" d="M57.138 213.697c-.227-.168-.53-.216-.912-.141-.249.048-.447.13-.595.245-.149.117-.26.247-.336.39-.074.146-.118.289-.13.437-.014.147-.014.277 0 .388l2.537-.493c-.15-.383-.337-.657-.564-.826m-1.182 3.33c.278.182.636.23 1.076.146.314-.062.57-.194.767-.395.197-.201.303-.395.32-.581l1.373-.267c-.086.724-.329 1.277-.726 1.658-.397.38-.918.634-1.563.759-.446.088-.863.094-1.25.02-.386-.072-.73-.216-1.029-.432-.302-.216-.555-.492-.762-.833-.206-.34-.352-.73-.437-1.168-.083-.425-.09-.835-.023-1.227.07-.394.205-.748.41-1.066.203-.317.468-.587.794-.81.325-.223.704-.376 1.136-.46.484-.094.923-.082 1.318.035.395.116.74.31 1.03.58.292.27.528.598.71.979.181.383.298.797.355 1.242l-4.098.796c.12.503.32.842.6 1.025M63.438 213.178L63.699 214.519 60.392 215.162 60.131 213.822zM65.74 210.646l.148.769.022-.005c.15-.332.351-.608.61-.826.258-.217.573-.361.948-.433.357-.07.7-.066 1.023.016.324.083.597.284.82.606.118-.283.304-.546.557-.793.252-.247.576-.409.971-.485.301-.059.587-.077.856-.053.272.023.514.099.728.223.214.126.4.31.551.549.154.241.266.543.337.91l.74 3.8-1.562.304-.625-3.219c-.037-.19-.08-.369-.126-.534-.048-.166-.117-.306-.207-.417-.09-.11-.207-.191-.349-.24-.143-.047-.323-.051-.543-.008-.22.043-.388.12-.507.232-.12.109-.206.24-.255.389-.05.152-.073.315-.064.491.007.178.028.354.063.531l.614 3.164-1.56.302-.619-3.186c-.033-.167-.069-.334-.109-.497-.039-.164-.1-.31-.18-.438-.083-.129-.196-.222-.34-.282-.145-.058-.342-.065-.59-.016-.074.014-.168.049-.283.106-.114.057-.219.141-.314.256-.097.113-.168.263-.215.451-.047.188-.044.42.011.7l.64 3.295-1.56.303-1.104-5.679 1.472-.286zM76.308 212.233c.085.209.198.388.34.539.139.15.306.262.502.329.195.069.425.077.688.027.265-.052.476-.146.637-.284.157-.136.275-.301.348-.495.07-.192.11-.4.11-.627.002-.222-.019-.45-.063-.676-.044-.227-.109-.447-.196-.657-.087-.212-.199-.391-.339-.54-.137-.146-.308-.256-.507-.328-.2-.072-.433-.081-.697-.03-.263.052-.472.146-.627.288-.156.14-.27.305-.343.494-.075.189-.112.397-.112.626-.002.228.02.456.064.684.046.226.11.444.195.65m-1.787-1.625c.067-.396.204-.75.41-1.06.207-.31.475-.572.806-.783.33-.213.72-.362 1.166-.45.447-.086.865-.094 1.256-.02.39.07.738.212 1.045.423.308.21.566.487.778.828.21.344.36.743.448 1.197.088.455.098.877.031 1.27-.069.395-.204.746-.41 1.056-.207.309-.478.569-.813.778-.335.21-.727.359-1.172.446-.447.086-.864.094-1.25.025-.386-.07-.733-.21-1.038-.42-.309-.208-.568-.483-.777-.823-.212-.34-.36-.735-.448-1.19-.087-.454-.099-.88-.031-1.277M82.371 207.413l.154.79.033-.006c.133-.368.343-.657.63-.87.285-.21.593-.348.922-.411.418-.081.772-.09 1.06-.03.29.062.531.179.724.349.194.172.349.397.468.673.118.277.21.593.28.944l.678 3.494-1.558.302-.624-3.208c-.092-.467-.233-.803-.425-1.006-.191-.202-.473-.268-.847-.195-.425.083-.707.27-.849.56-.141.288-.155.723-.043 1.302l.578 2.977-1.56.304-1.104-5.68 1.483-.29zM91.095 207.096c-.228-.168-.531-.216-.912-.14-.25.047-.448.13-.596.245-.15.116-.261.247-.335.39-.074.144-.12.29-.132.437-.012.146-.012.275 0 .387l2.539-.494c-.15-.38-.338-.656-.564-.825m-1.183 3.331c.278.182.637.23 1.077.144.314-.06.57-.193.767-.393.197-.203.302-.395.319-.58l1.374-.269c-.086.725-.33 1.277-.727 1.658-.397.38-.918.635-1.562.76-.447.086-.863.093-1.25.02s-.731-.218-1.03-.433c-.301-.215-.554-.492-.761-.832-.206-.339-.352-.729-.438-1.169-.082-.425-.09-.834-.022-1.226.069-.394.205-.749.409-1.066.204-.318.469-.588.795-.81.325-.224.704-.377 1.135-.46.484-.094.924-.082 1.318.033.395.117.739.312 1.03.581.292.27.529.598.71.98.18.382.299.796.356 1.242l-4.1.796c.122.502.32.842.6 1.024M97.24 212.172c-.262.257-.66.437-1.196.54-.16.031-.32.057-.48.076-.16.021-.32.038-.486.055l-.25-1.286.46-.042c.156-.017.311-.043.463-.08.2-.06.337-.172.41-.33.071-.159.09-.323.057-.49-.023-.126-.068-.237-.134-.339l-3.024-4.94 1.66-.323 2.04 3.638.022-.003.485-4.13 1.615-.315-1.132 6.843c-.078.496-.249.87-.51 1.126" mask="url(#prefix__d)"/>
            <path fill="#FD9F00" d="M205.672 348.769v9.054c0 3.138-16.759 5.682-37.432 5.682-20.672 0-37.43-2.544-37.43-5.682v-9.054h74.862z" mask="url(#prefix__d)"/>
        </g>
        <g transform="translate(130 348.335)">
            <mask id="prefix__f" fill="#fff">
                <use xlink:href="#prefix__e"/>
            </mask>
            <path fill="#E38601" d="M73.081 17.762L74.853 17.762 74.853-2.991 73.081-2.991zM68.486 17.762L70.258 17.762 70.258-2.991 68.486-2.991zM63.24 17.762L65.013 17.762 65.013-2.991 63.24-2.991zM56.695 17.762L58.467 17.762 58.467-2.991 56.695-2.991zM49.499 17.762L51.271 17.762 51.271-2.991 49.499-2.991zM41.653 17.762L43.425 17.762 43.425-2.991 41.653-2.991zM1.629 17.762L3.401 17.762 3.401-2.991 1.629-2.991zM6.223 17.762L7.996 17.762 7.996-2.991 6.223-2.991zM11.47 17.762L13.242 17.762 13.242-2.991 11.47-2.991zM18.015 17.762L19.787 17.762 19.787-2.991 18.015-2.991zM25.211 17.762L26.983 17.762 26.983-2.991 25.211-2.991zM33.056 17.762L34.829 17.762 34.829-2.991 33.056-2.991z" mask="url(#prefix__f)"/>
        </g>
        <g>
            <path fill="#FAC61B" d="M.81 10.6c0 3.138 16.758 5.683 37.43 5.683 20.673 0 37.432-2.545 37.432-5.684 0-3.138-16.758-5.683-37.431-5.683C17.566 4.916.81 7.461.81 10.6" transform="translate(130 338.335)"/>
            <path fill="#FD9F00" d="M8.484 10.002c0 1.457 13.323 2.638 29.757 2.638s29.757-1.181 29.757-2.639c0-1.455-13.323-2.636-29.757-2.636S8.484 8.544 8.484 10" transform="translate(130 338.335)"/>
            <path fill="#E38601" d="M66.715 10.769c-3.707-1.083-15.05-1.871-28.475-1.871-13.424 0-24.768.788-28.474 1.871-.83-.243-1.282-.5-1.282-.768 0-1.456 13.322-2.636 29.756-2.636s29.757 1.18 29.757 2.636c0 .268-.45.525-1.282.768" transform="translate(130 338.335)"/>
            <path fill="#FD9F00" d="M81.093.542v9.055c0 3.138-16.759 5.681-37.432 5.681-20.672 0-37.43-2.543-37.43-5.681V.543h74.862z" transform="translate(130 338.335)"/>
        </g>
        <g transform="translate(136 338.335)">
            <mask id="prefix__h" fill="#fff">
                <use xlink:href="#prefix__g"/>
            </mask>
            <path fill="#E38601" d="M72.502 17.536L74.274 17.536 74.274-3.217 72.502-3.217zM67.907 17.536L69.679 17.536 69.679-3.217 67.907-3.217zM62.661 17.536L64.433 17.536 64.433-3.217 62.661-3.217zM56.116 17.536L57.888 17.536 57.888-3.217 56.116-3.217zM48.92 17.536L50.692 17.536 50.692-3.217 48.92-3.217zM41.074 17.536L42.846 17.536 42.846-3.217 41.074-3.217zM1.05 17.536L2.822 17.536 2.822-3.217 1.05-3.217zM5.644 17.536L7.416 17.536 7.416-3.217 5.644-3.217zM10.891 17.536L12.663 17.536 12.663-3.217 10.891-3.217zM17.435 17.536L19.207 17.536 19.207-3.217 17.435-3.217zM24.632 17.536L26.404 17.536 26.404-3.217 24.632-3.217zM32.477 17.536L34.249 17.536 34.249-3.217 32.477-3.217z" mask="url(#prefix__h)"/>
        </g>
        <g>
            <path fill="#FAC61B" d="M6.23 10.373c0 3.139 16.759 5.684 37.432 5.684 20.672 0 37.43-2.545 37.43-5.683 0-3.14-16.758-5.684-37.43-5.684-20.673 0-37.432 2.544-37.432 5.683" transform="translate(130 328.335)"/>
            <path fill="#FD9F00" d="M13.905 9.776c0 1.456 13.323 2.637 29.757 2.637s29.757-1.181 29.757-2.637c0-1.457-13.323-2.64-29.757-2.64S13.905 8.32 13.905 9.777" transform="translate(130 328.335)"/>
            <path fill="#E38601" d="M72.137 10.543C68.43 9.46 57.086 8.671 43.662 8.671c-13.424 0-24.768.787-28.475 1.87-.831-.242-1.282-.5-1.282-.768 0-1.455 13.323-2.636 29.757-2.636s29.757 1.18 29.757 2.636c0 .269-.451.526-1.282.769" transform="translate(130 328.335)"/>
            <path fill="#FD9F00" d="M75.011.248v9.054c0 3.138-16.759 5.683-37.432 5.683C16.907 14.985.15 12.44.15 9.302V.248H75.01z" transform="translate(130 328.335)"/>
        </g>
        <g transform="translate(130 328.335)">
            <mask id="prefix__j" fill="#fff">
                <use xlink:href="#prefix__i"/>
            </mask>
            <path fill="#E38601" d="M72.419 17.242L74.192 17.242 74.192-3.512 72.419-3.512zM67.825 17.242L69.597 17.242 69.597-3.512 67.825-3.512zM62.58 17.242L64.352 17.242 64.352-3.512 62.58-3.512zM56.034 17.242L57.806 17.242 57.806-3.512 56.034-3.512zM48.838 17.242L50.61 17.242 50.61-3.512 48.838-3.512zM40.992 17.242L42.764 17.242 42.764-3.512 40.992-3.512zM.968 17.242L2.74 17.242 2.74-3.512.968-3.512zM5.563 17.242L7.335 17.242 7.335-3.512 5.563-3.512zM10.809 17.242L12.581 17.242 12.581-3.512 10.809-3.512zM17.354 17.242L19.126 17.242 19.126-3.512 17.354-3.512zM24.55 17.242L26.322 17.242 26.322-3.512 24.55-3.512zM32.394 17.242L34.167 17.242 34.167-3.512 32.394-3.512z" mask="url(#prefix__j)"/>
        </g>
        <g transform="translate(0 .335)">
            <path fill="#FAC61B" d="M130.148 328.079c0 3.139 16.758 5.683 37.431 5.683s37.432-2.544 37.432-5.683c0-3.138-16.759-5.683-37.432-5.683-20.673 0-37.43 2.545-37.43 5.683"/>
            <path fill="#FD9F00" d="M137.823 327.481c0 1.457 13.323 2.638 29.757 2.638s29.757-1.181 29.757-2.638c0-1.456-13.323-2.638-29.757-2.638s-29.757 1.182-29.757 2.638"/>
            <path fill="#E38601" d="M196.055 328.248c-3.707-1.082-15.051-1.87-28.475-1.87-13.424 0-24.768.788-28.475 1.87-.831-.243-1.282-.5-1.282-.767 0-1.457 13.323-2.637 29.757-2.637s29.757 1.18 29.757 2.637c0 .267-.451.524-1.282.767"/>
            <path stroke="#FD9F00" stroke-width="1.5" d="M523.714 164.318s-.33-.611-1.015-1.72"/>
            <path stroke="#FD9F00" stroke-dasharray="3.965 3.965" stroke-width="1.5" d="M520.528 159.288c-11.025-15.992-51.827-64.623-140.34-64.623-91.785 0-132.266 52.294-141.44 66.259"/>
            <path stroke="#FD9F00" stroke-width="1.5" d="M237.678 162.6c-.685 1.106-1.015 1.718-1.015 1.718"/>
            <path fill="#FAAA36" d="M194.094 146.2c-.009 17.267 14.123 31.27 31.564 31.28 17.441.009 31.587-13.981 31.596-31.248.01-17.266-14.123-31.271-31.564-31.28-17.44-.01-31.587 13.98-31.596 31.248"/>
            <path fill="#FAAA36" d="M199.15 146.203c-.006 14.502 11.862 26.264 26.51 26.27 14.649.008 26.53-11.742 26.537-26.244.008-14.502-11.861-26.263-26.51-26.271-14.647-.007-26.528 11.743-26.536 26.245"/>
            <path fill="#FCBA3F" d="M200.642 146.203c-.007 13.688 11.194 24.788 25.02 24.795 13.824.007 25.038-11.083 25.044-24.77.008-13.686-11.194-24.787-25.019-24.794-13.825-.007-25.038 11.082-25.045 24.769"/>
            <path fill="#FAAA36" d="M234.377 133.76c.919 0 1.666-.865 1.666-1.933 0-1.067-.747-1.933-1.666-1.933h-16.659c-.92 0-1.666.866-1.666 1.933 0 1.068.746 1.933 1.666 1.933h6.663c2.169 0 4.002 1.62 4.692 3.866h-11.355c-.92 0-1.666.866-1.666 1.934 0 1.067.746 1.932 1.666 1.932h11.355c-.69 2.247-2.523 3.867-4.692 3.867h-6.663c-.217 0-.434.05-.637.147-.406.197-.733.572-.903 1.048-.17.472-.17 1.005 0 1.477.084.24.207.452.364.63l13.324 15.46c.326.38.753.57 1.179.57.427 0 .853-.19 1.18-.566.65-.754.65-1.979 0-2.733l-10.486-12.167h2.642c4.025 0 7.387-3.324 8.16-7.733h1.836c.919 0 1.666-.865 1.666-1.932 0-1.068-.747-1.934-1.666-1.934h-1.836c-.25-1.437-.803-2.737-1.54-3.866h3.376zM327.806 78.027c-8.844 21.783 1.824 46.684 23.827 55.617s47.01-1.484 55.854-23.267c8.844-21.783-1.824-46.683-23.827-55.617-22.003-8.933-47.01 1.484-55.854 23.267"/>
            <path fill="#FAAA36" d="M334.185 80.618c-7.428 18.295 1.531 39.208 20.012 46.71 18.48 7.503 39.483-1.246 46.91-19.541 7.428-18.295-1.532-39.208-20.012-46.711-18.48-7.502-39.482 1.246-46.91 19.542"/>
            <path fill="#FCBA3F" d="M336.066 81.38c-7.01 17.268 1.445 37.005 18.887 44.086 17.441 7.081 37.262-1.177 44.273-18.443 7.01-17.267-1.446-37.004-18.887-44.085-17.44-7.08-37.263 1.175-44.273 18.442"/>
            <path fill="#FAAA36" d="M384.999 82.938c1.16.471 2.545-.241 3.091-1.587.546-1.347.047-2.821-1.113-3.292l-12.613-5.113-8.408-3.408c-1.161-.471-2.546.24-3.092 1.587-.546 1.345-.047 2.82 1.114 3.291l8.408 3.409c2.737 1.109 4.221 4.091 3.942 7.278L362 79.294c-1.161-.47-2.545.241-3.091 1.587-.546 1.347-.047 2.822 1.113 3.291l14.328 5.809c-2.019 2.481-5.16 3.589-7.897 2.478l-8.409-3.408c-.273-.111-.572-.158-.878-.14-.614.041-1.217.347-1.675.86-.456.509-.729 1.182-.756 1.863-.017.346.03.677.136.982l8.904 26.325c.218.644.66 1.102 1.198 1.32.538.218 1.173.198 1.776-.109 1.206-.618 1.833-2.165 1.399-3.448l-7.007-20.717 3.334 1.351c5.079 2.059 11.022-.417 14.252-5.583l2.316.94c1.161.471 2.545-.24 3.091-1.587.546-1.347.048-2.821-1.113-3.292l-2.316-.939c.42-1.943.387-3.865.035-5.666l4.259 1.727z"/>
            <path fill="#FFA986" d="M520.55 107.718c.02-.754 2.433-8.616 1.155-9.183-1.278-.566-1.84-.928-2.261-.38-.423.548-2.31 5.04-2.101 5.584.209.545 3.207 3.98 3.207 3.98"/>
            <path fill="#FFA986" d="M509.23 110.556c-2.565-3.437-2.836-6.048.6-8.613 3.437-2.566 6.192-1.809 8.757 1.628 2.565 3.436 3.239 7.272-.198 9.838-3.436 2.565-6.594.584-9.16-2.853"/>
            <path fill="#FFA986" d="M518.445 103.381c-.337-.55-3.994-10.133-6.154-10.196-2.16-.064-11.86 3.827-10.597 7.764 2.294 2.878 7.184 9.136 7.184 9.136l9.567-6.704z"/>
            <path fill="#E59D29" d="M576.274 154.136c-.415-.13-.84-.243-1.27-.335-.214-.045-.43-.086-.645-.12l-.204-.032-.064-.007-.512-.059c-.34-.039-.543-.083-.823-.118-.26-.023-.535-.11-.804-.163-.274-.07-.533-.089-.825-.194-.574-.195-1.137-.305-1.734-.547l-1.796-.696c-1.213-.595-2.443-1.1-3.666-1.845l-1.843-1.039-1.822-1.193c-.605-.407-1.226-.769-1.823-1.212l-1.79-1.334-1.796-1.332-1.746-1.457-1.749-1.46c-.588-.478-1.168-.972-1.723-1.51l-3.389-3.144c-.574-.512-1.118-1.069-1.66-1.629l-1.635-1.67c-1.08-1.125-2.205-2.198-3.254-3.368l-3.15-3.51c-1.047-1.174-2.122-2.32-3.112-3.559l-3.03-3.657c-1-1.229-2.049-2.414-2.998-3.695l-5.825-7.572-9.692 6.756 5.572 8.206c.906 1.383 1.931 2.696 2.902 4.043l2.95 4.02c.96 1.356 2.03 2.647 3.065 3.958l3.13 3.926c1.042 1.31 2.192 2.555 3.286 3.835l1.662 1.91c.551.638 1.105 1.276 1.706 1.883l3.536 3.693c.578.624 1.197 1.221 1.833 1.81l1.885 1.774 1.894 1.774 2.013 1.695 2.02 1.694c.676.562 1.423 1.076 2.134 1.616l2.164 1.598c.754.51 1.537 1 2.307 1.5 1.502 1.025 3.213 1.904 4.872 2.814.874.424 1.778.825 2.672 1.232.887.41 1.896.733 2.845 1.092.467.186 1.011.313 1.515.467.518.14 1.017.307 1.56.414.516.111 1.105.247 1.566.33l.691.122.087.015.032.006-.087-.01c-.116-.017-.23-.038-.347-.065-.23-.052-.456-.126-.67-.217l5.585-15.434z"/>
            <path fill="#FFC581" d="M647.346 350.245l2.214 6.33s1.726 1.424 4.014 1.424c2.287 0 2.578-1.046 2.613-1.511.036-.465-2.114-7.667-2.114-7.667l-6.727 1.424z"/>
            <path fill="#7F786A" d="M654.83 350.28h-8.298c-13.268-26.774-62.559-116.903-63.037-118.218-.558-1.534 24.914-7.081 24.914-7.081s5.668 8.712 10.466 17.917c5.865 11.25 9.615 44.475 9.615 44.475s17.332 9.07 26.34 62.907"/>
            <path fill="#FFC581" d="M569.823 349.822l-.505 6.308s1.132 1.418 3.45 1.418c2.318 0 3.066-1.042 3.305-1.505.238-.463 1.186-7.64 1.186-7.64l-7.436 1.419z"/>
            <path fill="#7F786A" d="M555.121 363.505h13.38c.408-.16.83-.323 1.327-.45.576-.148 2.808-.248 2.808-.248l.072.698h5.693c.002-1.717-1.165-7.05-1.226-7.44-.073-.46-.627-.575-.81-.46-.183.115-1.874 1.61-3.568 1.61-1.696 0-3.25-1.667-3.719-1.725-.468-.057-1.685.728-1.685.728s-10.19 5.363-11.499 5.822c-1.114.393-.83 1.007-.773 1.465M638.16 362.04c.64-.225 3.404-1.622 6.062-2.99v4.455h-6.834c-.058-.457-.342-1.072.773-1.464"/>
            <path fill="#57575E" d="M578.4 363.505c0-.435-.074-1.1-.186-1.858-1.745.016-4.375-.018-5.485-.018-1.349 0-3.353 1.018-4.549 1.018h-13.079c-.117.291-.012.6.02.858h13.38c.407-.16.831-.323 1.326-.45.576-.148 2.808-.248 2.808-.248l.074.698h5.691z"/>
            <path fill="#7F786A" d="M577.851 350.65l-8.691.22c-.353-16.752-2.617-123.901-2.463-125.318.167-1.54 21.491.156 21.491.156s1.908 8.229 2.339 17.467c.528 11.29-9.701 44.178-9.701 44.178s11.136 10.17-2.975 63.298"/>
            <path fill="#FFBF4D" d="M565.44 226.008c1.12.28-1.4 6.16 13.156 7 14.557.84 28.555-6.439 29.955-8.399 1.4-1.959-3.475-18.718-4.595-24.877-1.12-6.159 7.674-35.87 7.394-39.51-.28-3.64-17.487-8.994-17.487-8.994l-11.417-.525c-4.655-.215-9.29.754-13.472 2.81-1.88.925-3.629 1.803-4.375 2.23-1.959 1.12-.84 29.393-.56 33.872.28 4.48 1.4 36.393 1.4 36.393"/>
            <path fill="#FFC581" d="M579.696 140.12l1.462-6.423 12.083 3.879s0 12.21.636 13.673c-.642 1.742-6.55 5.713-9.246 5.579-5.762-.285-5.33-5.471-5.367-5.652-.063-.318.432-11.056.432-11.056"/>
            <path fill="#FFBC3F" d="M579.696 140.12l1.462-6.423 12.034 3.863c-.09.838-.152 1.37-.152 1.437 0 .074-.183.469-.474 1.047-2.617 5.197-7.224 9.187-12.825 10.766-.188.053-.37.1-.545.143.157-3.843.5-10.833.5-10.833"/>
            <path fill="#FFC581" d="M573.762 121.622c.176 6.893.858 22.297 1.865 23.83.815.653 2.991.775 5.336.683 4.848-.192 9.31-2.793 11.79-6.963.153-.258.242-.43.242-.481 0-.355 1.805-13.382.56-16.408-1.247-3.026-2.375-3.264-2.375-3.264s-1.958-1.661-6.526-1.601c-2.679.034-5.949.517-8.196.912-1.59.279-2.737 1.678-2.696 3.292"/>
            <path fill="#57575E" d="M590.289 136.175l-.862-10.016c-.103-1.194.413-2.36 1.376-3.074 1.743-1.293 4.473-3.056 5.473-2.264 1.516 1.2-2.037 13.678-2.542 14.183-.505.506-3.445 1.171-3.445 1.171"/>
            <path fill="#57575E" d="M590.587 126.765c-.427-.475-.285-3.178-3.414-3.367-3.13-.19-6.212.616-8.63.521-2.418-.094-4.695-1.137-4.837-.237-1.327-4.93-5.026-12.328.237-14.178 5.264-1.849 12.898 2.087 13.988 2.846 1.09.758 3.13 4.693 4.552 5.737 1.423 1.043 4.268 2.75 4.079 3.177-.19.427-2.23 5.026-2.561 5.026-.332 0-3.414.475-3.414.475"/>
            <path fill="#FFC581" d="M590.909 135.138c1.228-1.432 2.428-3.873 4-3.218 1.57.655 1.388 7.531-3.99 5.923-.664-2.014-.01-2.705-.01-2.705"/>
            <path fill="#FFBF4D" d="M596.419 162.325c.042-.061.087-.12.135-.176l.073-.083c.026-.028 0-.003.004-.007l-.035.038-.03.044c-.008.016-.067.064-.098.094-.171.143-.253.275-.482.444l-.621.5c-.2.172-.488.336-.725.507l-.746.516-.848.484c-.567.323-1.107.668-1.75.949l-1.852.899-1.98.795c-1.29.57-2.718.978-4.102 1.447-5.627 1.754-11.65 2.92-17.762 3.762-1.526.22-3.084.335-4.626.509-1.55.14-3.082.367-4.65.438l-4.688.278c-1.564.092-3.125.208-4.704.21l-4.726.089c-1.577.018-3.15.095-4.734.037l-9.5-.174-.652 11.796 9.858.56c1.64.122 3.299.108 4.949.153l4.96.096c1.652.06 3.316.003 4.978-.03l4.989-.106c1.662-.015 3.339-.19 5.009-.277 1.672-.123 3.34-.186 5.019-.361 6.709-.665 13.457-1.677 20.24-3.506 1.698-.497 3.394-.926 5.095-1.58l2.549-.921 2.554-1.111c.848-.344 1.704-.815 2.556-1.26l1.278-.678 1.287-.8c.43-.28.85-.513 1.288-.837l1.304-.966c.426-.305.907-.758 1.35-1.14.116-.107.215-.186.346-.316l.388-.393.383-.401.108-.118.169-.2.328-.408-11.886-8.796z"/>
            <path fill="#7F786A" d="M654.085 360.591s-2.092.785-2.594 1.104c-.432.273-.785.558-1.123.837l-.515.167h-9.47c2.74-2.712 6.681-6.755 6.681-6.755s.916-1.124 1.38-1.213c.462-.09 2.455 1.014 4.067.492 1.613-.524 2.76-2.467 2.898-2.632.138-.166.701-.228.912.187.178.351 2.934 5.064 3.463 6.7l-5.414 1.756-.285-.643z"/>
            <path fill="#57575E" d="M648.473 363.148h-2.78c2.08-.675 3.739-1.214 4.106-1.332 1.137-.37 2.729-1.957 4.012-2.373 1.057-.343 3.569-1.122 5.223-1.676.34.687.617 1.296.75 1.71l-5.413 1.757-.285-.643s-2.092.786-2.594 1.104c-.432.273-.786.558-1.123.838l-1.896.615z"/>
            <path fill="#57575E" d="M637.394 362.647h12.418c-.188.188-2.394.76-2.47.858h-9.928c-.033-.258-.136-.567-.02-.858"/>
            <path fill="#FAAA36" d="M545.203 135.962c-3.49-25.043-26.62-42.516-51.664-39.026-25.042 3.49-42.515 26.62-39.025 51.663 3.488 25.043 26.62 42.515 51.663 39.026 25.042-3.489 42.515-26.62 39.026-51.663"/>
            <path fill="#FCBA3F" d="M535.01 137.383c-2.705-19.414-20.635-32.959-40.05-30.254-19.413 2.704-32.958 20.636-30.253 40.05 2.705 19.414 20.636 32.958 40.05 30.254 19.413-2.706 32.958-20.637 30.253-40.05"/>
            <path fill="#FAAA36" d="M502.37 126.957c.923-.48 1.192-1.795.599-2.935-.594-1.14-1.825-1.675-2.748-1.195l-10.036 5.224-6.69 3.482c-.923.48-1.192 1.794-.599 2.935.594 1.14 1.825 1.675 2.748 1.194l6.69-3.482c2.178-1.133 4.918-.362 6.86 1.677l-11.4 5.935c-.923.48-1.192 1.796-.599 2.935.594 1.14 1.824 1.674 2.748 1.195l11.4-5.934c.556 2.76-.384 5.447-2.56 6.58l-6.692 3.483c-.216.113-.406.28-.557.49-.298.423-.418.994-.323 1.59.09.594.387 1.162.82 1.577.216.214.46.376.714.483l21.973 9.553c.54.233 1.072.214 1.502-.01.426-.222.75-.647.87-1.218.232-1.145-.449-2.454-1.52-2.92l-17.292-7.518 2.654-1.38c4.04-2.103 5.567-7.41 3.893-12.523l1.844-.959c.923-.48 1.192-1.796.598-2.936-.594-1.138-1.825-1.674-2.748-1.194l-1.843.96c-1.05-1.405-2.327-2.504-3.695-3.326l3.39-1.763z"/>
            <path fill="#FFC581" d="M527.928 175.154c-.537-.528-4.64-7.657-5.926-7.108-1.286.547-1.933.71-1.821 1.393.113.684 2.108 5.126 2.65 5.346.542.219 5.097.369 5.097.369"/>
            <path fill="#FFC581" d="M522.28 185.367c-4.263-.47-6.356-2.052-5.888-6.314.47-4.263 2.901-5.761 7.164-5.292 4.263.468 7.527 2.592 7.058 6.855-.469 4.263-4.07 5.22-8.334 4.75"/>
            <path fill="#FFC581" d="M523.32 173.734c-.631-.128-10.132-3.992-11.652-2.456-1.52 1.536-5.294 11.283-1.552 13.045 3.669.286 11.58.979 11.58.979l1.625-11.568z"/>
            <path fill="#57575E" d="M443.026 357.41s-2.542 2.446 0 4.988h10.993v-4.988H448.3s-2.621 1.535-5.275 0"/>
            <path fill="#F9E0D2" d="M449.73 362.398h8.58v-1.741c0-1.793-1.455-3.247-3.248-3.247h-2.086c-1.793 0-3.247 1.454-3.247 3.247v1.74z"/>
            <mask id="prefix__l" fill="#fff">
                <use xlink:href="#prefix__k"/>
            </mask>
            <path fill="#F9E0D2" d="M442.578 363.197L458.677 363.197 458.677 362.398 442.578 362.398z" mask="url(#prefix__l)"/>
            <path fill="#FDC854" d="M431.234 346.99h100.96c3.38 0 6.12 2.74 6.12 6.12v3.933c0 3.38-2.74 6.12-6.12 6.12h-100.96c-3.38 0-6.12-2.74-6.12-6.12v-3.932c0-3.38 2.74-6.12 6.12-6.12" mask="url(#prefix__l)"/>
            <path fill="#F89F4F" d="M425.114 360.07c0 1.708 1.384 3.093 3.092 3.093h107.016c1.708 0 3.092-1.385 3.092-3.092v-1.665h-113.2v1.665z" mask="url(#prefix__l)"/>
            <path fill="#FDC854" d="M431.234 330.82h100.96c3.38 0 6.12 2.74 6.12 6.12v3.932c0 3.38-2.74 6.119-6.12 6.119h-100.96c-3.38 0-6.12-2.74-6.12-6.12v-3.931c0-3.38 2.74-6.12 6.12-6.12" mask="url(#prefix__l)"/>
            <path fill="#F89F4F" d="M425.114 343.9c0 1.707 1.384 3.09 3.092 3.09h107.016c1.708 0 3.092-1.383 3.092-3.09v-1.665h-113.2v1.665z" mask="url(#prefix__l)"/>
            <path fill="#FDC854" d="M431.234 314.648h100.96c3.38 0 6.12 2.74 6.12 6.12v3.932c0 3.38-2.74 6.12-6.12 6.12h-100.96c-3.38 0-6.12-2.74-6.12-6.12v-3.932c0-3.38 2.74-6.12 6.12-6.12" mask="url(#prefix__l)"/>
            <path fill="#F89F4F" d="M425.114 327.728c0 1.707 1.384 3.092 3.092 3.092h107.016c1.708 0 3.092-1.385 3.092-3.092v-1.665h-113.2v1.665z" mask="url(#prefix__l)"/>
            <path fill="#FDC854" d="M425.034 298.477h100.96c3.38 0 6.12 2.74 6.12 6.12v3.932c0 3.38-2.74 6.12-6.12 6.12h-100.96c-3.38 0-6.12-2.74-6.12-6.12v-3.932c0-3.38 2.74-6.12 6.12-6.12" mask="url(#prefix__l)"/>
            <path fill="#F89F4F" d="M418.914 311.557c0 1.707 1.385 3.091 3.091 3.091h107.018c1.707 0 3.091-1.384 3.091-3.09v-1.666h-113.2v1.665z" mask="url(#prefix__l)"/>
            <path fill="#FDC854" d="M431.234 282.305h100.96c3.38 0 6.12 2.74 6.12 6.12v3.932c0 3.38-2.74 6.12-6.12 6.12h-100.96c-3.38 0-6.12-2.74-6.12-6.12v-3.932c0-3.38 2.74-6.12 6.12-6.12" mask="url(#prefix__l)"/>
            <path fill="#F89F4F" d="M425.114 295.385c0 1.707 1.384 3.092 3.092 3.092h107.016c1.708 0 3.092-1.385 3.092-3.092v-1.665h-113.2v1.665z" mask="url(#prefix__l)"/>
            <path fill="#FDC854" d="M426.99 266.134h100.96c3.38 0 6.12 2.74 6.12 6.12v3.932c0 3.38-2.74 6.12-6.12 6.12H426.99c-3.38 0-6.12-2.74-6.12-6.12v-3.932c0-3.38 2.74-6.12 6.12-6.12" mask="url(#prefix__l)"/>
            <path fill="#F89F4F" d="M420.87 279.214c0 1.707 1.384 3.091 3.092 3.091h107.016c1.708 0 3.092-1.384 3.092-3.09v-1.666h-113.2v1.665z" mask="url(#prefix__l)"/>
            <path fill="#FDC854" d="M425.034 249.962h100.96c3.38 0 6.12 2.74 6.12 6.12v3.932c0 3.38-2.74 6.12-6.12 6.12h-100.96c-3.38 0-6.12-2.74-6.12-6.12v-3.932c0-3.38 2.74-6.12 6.12-6.12" mask="url(#prefix__l)"/>
            <path fill="#F89F4F" d="M418.914 263.043c0 1.707 1.385 3.091 3.091 3.091h107.018c1.707 0 3.091-1.385 3.091-3.091v-1.666h-113.2v1.666z" mask="url(#prefix__l)"/>
            <path fill="#FDC854" d="M429.194 233.792h100.96c3.38 0 6.12 2.74 6.12 6.12v3.931c0 3.38-2.74 6.12-6.121 6.12h-100.96c-3.38 0-6.12-2.74-6.12-6.12v-3.931c0-3.38 2.74-6.12 6.12-6.12" mask="url(#prefix__l)"/>
            <path fill="#F89F4F" d="M423.074 246.872c0 1.707 1.384 3.09 3.092 3.09h107.016c1.707 0 3.092-1.383 3.092-3.09v-1.665h-113.2v1.665z" mask="url(#prefix__l)"/>
            <path fill="#FDC854" d="M430.856 217.62h100.96c3.38 0 6.12 2.74 6.12 6.12v3.932c0 3.38-2.74 6.12-6.12 6.12h-100.96c-3.38 0-6.12-2.74-6.12-6.12v-3.932c0-3.38 2.74-6.12 6.12-6.12" mask="url(#prefix__l)"/>
            <path fill="#F89F4F" d="M424.736 230.7c0 1.707 1.384 3.092 3.092 3.092h107.016c1.707 0 3.092-1.385 3.092-3.092v-1.665h-113.2v1.665z" mask="url(#prefix__l)"/>
            <path fill="#FFAC34" d="M571.294 351.981c21.932-17.878 25.218-50.15 7.34-72.083-17.879-21.931-50.152-25.218-72.084-7.339-21.932 17.878-25.217 50.151-7.339 72.083 17.878 21.932 50.151 25.218 72.083 7.339" mask="url(#prefix__l)"/>
            <path fill="#FFBC3F" d="M564.018 343.054c17.001-13.859 19.548-38.877 5.688-55.879-13.859-17.002-38.876-19.549-55.878-5.689-17.002 13.86-19.55 38.877-5.69 55.88 13.86 17.001 38.878 19.548 55.88 5.688" mask="url(#prefix__l)"/>
            <path fill="#FFA331" d="M555.041 305.776c.996.604 2.41.098 3.156-1.132.745-1.23.543-2.717-.453-3.321l-10.824-6.568-7.215-4.38c-.996-.604-2.41-.097-3.156 1.132-.746 1.23-.543 2.718.453 3.322l7.216 4.379c2.348 1.425 3.2 4.496 2.377 7.537l-12.296-7.462c-.996-.605-2.409-.097-3.155 1.132-.746 1.229-.543 2.717.452 3.322l12.296 7.462c-2.317 2.134-5.434 2.796-7.783 1.37l-7.215-4.38c-.235-.141-.505-.225-.792-.247-.579-.04-1.194.177-1.71.613-.514.432-.887 1.046-1.033 1.7-.077.333-.092.659-.047.966l3.619 26.567c.089.65.418 1.149.88 1.429.461.28 1.056.342 1.671.125 1.231-.441 2.088-1.853 1.912-3.15l-2.849-20.905 2.861 1.736c4.359 2.646 10.323 1.024 14.241-3.546l1.989 1.207c.995.605 2.409.097 3.155-1.133.746-1.228.543-2.716-.453-3.321l-1.987-1.206c.734-1.821 1.044-3.681 1.035-5.466l3.655 2.218z" mask="url(#prefix__l)"/>
            <path fill="#306B34" d="M250.12 221.03s24.754 8.316 21.386 36.854c-3.369 28.54 1.482 63.315 1.482 63.315h-14.11s-25.138-33.888-6.616-59.278c18.522-25.393-2.142-40.891-2.142-40.891" mask="url(#prefix__l)"/>
            <path fill="#A4B751" d="M252.08 222.808c4.504 3.718 17.607 17.23 3.486 39.6-16.778 26.575 10.574 58.702 10.574 58.702l6.774-.456.074.545h-14.111s-25.137-33.888-6.615-59.279c14.865-20.38 4.495-34.378-.181-39.112" mask="url(#prefix__l)"/>
            <path fill="#4900BC" d="M251.118 221.88c-.61-.557-.998-.85-.998-.85s2.226.753 5.245 2.565c-1.994-.967-3.539-1.496-4.247-1.715" mask="url(#prefix__l)"/>
            <path fill="#619440" d="M277.21 289.636c-1.324-25.326-.3-28.49 9.543-36.854 9.846-8.364 23.72-22.113 23.72-22.113-9.45 18.71-9.26 27.215-11.039 40.98-1.379 10.68-17.42 31.993-24.547 41.018 1.577-3.66 2.98-10.457 2.322-23.03" mask="url(#prefix__l)"/>
        </g>
        <g transform="translate(271 312.335)">
            <mask id="prefix__o" fill="#fff">
                <use xlink:href="#prefix__m"/>
            </mask>
            <path fill="url(#prefix__n)" d="M.507 4.866s1.78-.485 3.38-4.199C1.827 3.277.507 4.866.507 4.866" mask="url(#prefix__o)"/>
        </g>
        <g transform="translate(0 .335)">
            <path fill="#306B34" d="M281.997 277.855c4.914 21.041-5.535 35.18-5.535 35.18h-10.303c.036-7.251-.485-14.206-3.899-21.241-.181-.372-.397-.715-.628-1.043 1.453-.681 3.068-1.369 4.867-2.06 19.026-7.308 10.584-31.877 15.498-10.836"/>
            <path fill="#619440" d="M255.286 283.147c10.458 5.293 7.434 27.973 7.434 27.973l-9.828 3.526s1.764-10.331-4.914-18.395c-6.678-8.063-11.088-4.972-11.088-4.972s7.938-13.424 18.396-8.132M305.433 272.438c17.56 0 27.38 10.582 27.38 10.582s-6.836-3.473-19.064-3.022c-12.228.449-11.34 10.836-21.168 20.538-9.828 9.701-18.018 11.087-18.018 11.087s13.017-18.827 22.554-31.625c1.679-2.253.043-7.56 8.316-7.56"/>
            <path fill="#FAF9FC" d="M336.215 286.636c.072.187.088.291.088.291s-.027-.105-.088-.29"/>
            <path fill="#A4B751" d="M291.195 283.778c3.276-4.41-.125-15.246 20.79-12.727 19.104 2.3 23.595 13.637 24.23 15.585-.483-1.258-3.54-6.38-21.962-10.545-21.167-4.788-9.954 6.175-19.53 13.105-9.576 6.93-17.388 19.906-17.388 19.906s-5.418 9.072-4.157 1.513c1.26-7.56 14.74-22.427 18.017-26.837M226.306 293.227c9.576-19.529 21.155-18.258 28.854-13.985 10.924 6.061 9.131 31.373 9.131 31.373l-1.57.505s-.253-4.914-1.089-13.357c-.836-8.44-4.959-20.427-18.316-3.779-13.358 16.645-32.256 19.64-32.256 19.64s5.67-.867 15.246-20.397"/>
            <path fill="#A4B751" d="M251.626 268.915c3.01-2.208 6.063-1.83 8.422-.848 2.98 1.24 6.335.832 9.087-.831 10.07-6.092 10.841 2.284 10.841 2.284l-.272 2.268c-.015.016-.015.045-.015.075-.726 4.203-3.084 12.943-13.185 16.828-1.798.697-17.644 7.56-17.644 7.56 2.146-8.693-3.402-22.8 2.766-27.336"/>
            <path fill="#57575E" d="M278.117 361.266h-16.809c-6.179 0-11.188-5.009-11.188-11.188v-41.102h39.185v41.102c0 6.18-5.009 11.188-11.188 11.188"/>
            <mask id="prefix__q" fill="#fff">
                <use xlink:href="#prefix__p"/>
            </mask>
            <path fill="#7F786A" d="M246.299 314.646L293.126 314.646 293.126 308.976 246.299 308.976z" mask="url(#prefix__q)"/>
        </g>
    </g>
</svg>
