<svg xmlns="http://www.w3.org/2000/svg" xmlns:xlink="http://www.w3.org/1999/xlink" width="688" height="373" viewBox="0 0 688 373"><defs><path id="c" d="M0 371h687.61V.67H0z"/></defs><defs><path id="a" d="M.68.67h185.76v355.35H.68z"/><path id="e" d="M.81.77v9.05c0 3.14 16.76 5.69 37.43 5.69s37.43-2.55 37.43-5.69V.77H.81z"/><path id="g" d="M.23.54V9.6c0 3.14 16.76 5.68 37.43 5.68S75.1 12.74 75.1 9.6V.54H.23z"/><path id="i" d="M.15.25V9.3c0 3.14 16.76 5.68 37.43 5.68C58.25 14.98 75 12.45 75 9.3V.25H.15z"/><path id="m" d="M.5 4.87S2.3 4.38 3.9.67C1.83 3.27.5 4.87.5 4.87"/><use xlink:href="#c"/><use id="k" xlink:href="#c"/><use id="p" xlink:href="#c"/><linearGradient id="n" x1="39.92%" x2="65.25%" y1="73.91%" y2="21.63%"><stop offset="0%" stop-color="#DBEBFF"/><stop offset="100%" stop-color="#FFF"/></linearGradient></defs><g fill="none" fill-rule="evenodd"><g transform="translate(0 .34)"><path fill="#FFF4DD" d="M199.4 362.9c-49.2-51.15-50.62-77.88-42.43-92.89 8.22-15.04 24.35-15.11 34.52-34.38 12.94-24.52-5.85-38.28-1.44-69.37 3.78-26.64 23.92-61.15 56.09-71.17 38.4-11.97 62.15 20.86 99.23 9.04 36.2-11.53 26.96-47.07 68.3-63.93 30.49-12.43 73.86-8.77 94.2 9.65 15.08 13.64 7.8 26.6 23.02 46.44 19.46 25.37 47.22 16.53 58.24 34.38 16.05 26-32.69 51.06-22.29 89.28 7.7 28.33 38.62 29.7 54.65 61.52 14.4 28.6 5.55 59.44-5.03 82.04l-417.06-.6"/><path fill="#F7E8C8" d="M0 363.74c0-4.01 153.93-7.26 343.8-7.26 189.88 0 343.81 3.25 343.81 7.26 0 4-153.93 7.26-343.8 7.26C153.93 371 0 367.75 0 363.74"/><path fill="#A4B751" d="M541.26 342.8c3.55-2.11 15.62-8.43 15.7-12.88.08-4.86-3.56-9.75-8.07-10.8-1.95-.47-4.03-.3-5.71-1.8-.94-.83-1.4-2.23-.85-3.32.88-1.77 3.32-1.07 5.13-.4 3.47 1.31 7.25 1.85 10.67.84 3.41-1 6.4-3.74 7.25-7.42.85-3.69-.82-8.2-4.13-9.97-2.07-1.11-4.5-1.11-6.38-2.81-.98-.88-1.56-2.25-1.2-3.49.7-2.5 4.13-1.99 6.54-1.16 3.41 1.18 6.99 2.03 10.45 1.57 3.46-.46 6.8-2.43 8.24-5.76 1.45-3.32.49-8-2.57-10.07-1.23-.82-2.66-1.19-3.94-1.92-1.53-.88-2.94-2.62-2.2-4.48.5-1.28 1.86-1.88 3.2-1.72 1.85.22 3.3 1.36 4.75 2.49a10.18 10.18 0 007.8 2.18c8.02-1.32 8.03-11.52 2.98-15.75-1.42-1.19-3.34-2.23-3.44-4.17a2.88 2.88 0 012.43-2.97c2.75-.49 5.06 1.45 7.62 2.08 4.7 1.14 9.5-3.17 9.21-8.25-.23-3.9-4.81-3.54-9.08-4.05-.98-.12-1.24-1.55-.35-1.94a49.44 49.44 0 009.91-6c4.05-3.26 6.73-12.36-1.1-13.98-2.1-.43-6.47 1.7-7.35 3.33-1.24 2.3-6.1 8.38-6.1 8.38-.58.6-1.6-.05-1.4-.91.45-1.96.65-3.97.17-6.06a7.72 7.72 0 00-1.18-2.7c-3.35-4.8-9.07-2.18-10.86 2.06-1.48 3.53-1.05 7.71-.67 11.68.19 2.06.32 4.3-1.1 5.78a2.37 2.37 0 01-3.08.39c-1.16-.81-1.08-2.15-1.31-3.35-.77-3.92-5.32-6.33-8.81-5.24-3.5 1.09-5.71 4.82-6.16 8.71-.45 3.9.6 7.92 1.99 11.68.69 1.86 1.48 3.84.67 5.71-.47 1.1-1.65 1.75-2.76 1.27-1.57-.67-1.64-2.8-2.07-4.45-1.22-4.61-7-6.83-10.9-4.88-3.88 1.95-5.78 6.86-5.65 11.58.15 5.3 2.44 10.45 4.69 15.28.52 1.13.33 2.52-.6 3.2-1.28.94-2.57-.25-3.67-1.15-4.26-3.47-10.59-3.43-14.39.1-3.8 3.52-4.66 10.16-1.97 15.1 1.7 3.14 4.64 5.58 4.79 9.5.07 1.93-1.08 3.69-2.88 3.85-2.26.2-3.69-2.2-5.3-3.85-4.47-4.56-12.21-3.23-15.72 1.7-3.5 4.93-.03 16.35 2.28 22.4 2.32 6.05 6.9 18.76 12.84 24.19 2.79 2.55 20.09-5.24 23.64-7.35"/><path fill="#619440" d="M604.12 216.85c-2.1-.43-6.47 1.7-7.35 3.33-1.24 2.3-6.1 8.38-6.1 8.38-.58.6-1.6-.05-1.4-.91.45-1.96.65-3.97.17-6.06a7.73 7.73 0 00-1.18-2.7c-3.35-4.8-9.07-2.18-10.86 2.07-1.48 3.52-1.05 7.7-.67 11.67.19 2.06.32 4.3-1.1 5.78a2.37 2.37 0 01-3.08.39c-1.16-.81-1.08-2.15-1.32-3.35-.76-3.92-5.31-6.33-8.8-5.24-3.5 1.09-5.71 4.82-6.16 8.71-.45 3.9.6 7.92 1.99 11.68.69 1.86 1.48 3.84.67 5.71-.47 1.1-1.65 1.75-2.76 1.27-1.57-.67-1.64-2.8-2.07-4.45-1.22-4.61-7-6.83-10.9-4.88-3.88 1.95-5.78 6.86-5.65 11.58.15 5.3 2.44 10.45 4.69 15.28.53 1.13.32 2.52-.6 3.2-1.28.94-2.57-.25-3.67-1.15-4.26-3.47-10.59-3.43-14.39.1-3.8 3.52-4.66 10.16-1.97 15.1 1.7 3.14 4.64 5.58 4.79 9.5.07 1.93-1.09 3.69-2.88 3.85-2.26.2-3.69-2.2-5.3-3.85-4.47-4.56-12.21-3.23-15.72 1.7-3.5 4.93-.03 16.35 2.28 22.4 2.17 5.65 6.3 17.09 11.66 23 .39.43 1.18 1.18 1.18 1.18s16.27-42.14 42.82-82.35c14.75-22.33 47.93-48.21 47.93-48.21s-.3-.54-.94-1.08c-1.1-.92-2.9-1.56-3.3-1.65"/><path fill="#306B34" d="M478.32 306.68c-1.28 4.73-1.91 9.59-2.45 14.41-.69 6.29.5 7.99 2.85 13.33 2.34 5.34 6.71 9.46 12 10.2 5.29.74 9.46 2.94 12.7-2.47.47-.76 1.34-.33 1.44.06.74 2.72 1.05 4.42 2.87 6.14 1.9 1.81 13.2 9.15 24.95-1.73 5.7-9.45 7.07-20.29 9.1-31.21.25-1.38.47-2.81.2-4.12-.52-2.4-2.91-3.82-5.06-3 1.93-.05 3.73-1.89 4.64-3.98.91-2.09 1.12-4.4 1.31-6.65l2.14-24.95c-5.3 2.7-11.34 2.78-16.2.23 0 0 17-5.83 16.05-14.47-.69-6.27-1.86-14.97-2.2-21.32-.24-4.44-2.13-9-4.06-12.64-1.66-3.1-2.75-5.26-5.38-7.26-1.59-1.22-3.26-2.46-5.23-2.64-3-.27-5.95 1.96-8.44 4.3a100.32 100.32 0 00-12.4 14.46 170.55 170.55 0 00-12.2 19.54c4.15 8.02 10.3 14.48 17.64 18.52a40.23 40.23 0 01-18.27-9.54c-.63-.57-1.33-1.2-2.17-1.1-1.7.18-2.37 2.75-2.64 4.7a55.76 55.76 0 01-8.92 23.21l7.85 2.04-9.84.84s.86 10.86-.28 15.1"/><path fill="#A4B751" d="M475.47 309.25c-1.28 4.73-.6 18.88 2.77 26.19a20.67 20.67 0 0012.2 10.9c3.99 1.28 9.74 1.22 12.99-4.19.46-.76 1.33-.33 1.43.06.74 2.72 25.04-127.43 23.13-127.6-3-.27-5.94 1.96-8.44 4.3a100.58 100.58 0 00-12.4 14.46 170.72 170.72 0 00-12.2 19.54c4.15 8.02 10.3 14.48 17.64 18.53a40.23 40.23 0 01-18.27-9.55c-.63-.57-1.33-1.2-2.18-1.1-1.68.18-2.36 2.75-2.63 4.7a55.77 55.77 0 01-8.92 23.21l7.85 2.04-9.84.84s-1.99 13.43-3.13 17.67"/><path fill="#A4B750" d="M82.01 340.63c-2.36-1.05-10.33-4.09-10.7-6.85-.41-3.02 1.5-6.32 4.22-7.31 1.18-.43 2.48-.48 3.42-1.54.52-.58.7-1.49.28-2.12-.68-1.04-2.14-.43-3.22.13-2.06 1.07-4.37 1.68-6.57 1.3a6.5 6.5 0 01-5.05-4.08c-.8-2.23-.1-5.16 1.83-6.5 1.2-.85 2.72-1.02 3.77-2.22.54-.62.8-1.5.49-2.26-.63-1.5-2.72-.93-4.16-.23-2.03.98-4.2 1.77-6.38 1.74-2.18-.03-4.4-1.01-5.55-2.97-1.14-1.96-.89-4.95.86-6.46.7-.6 1.57-.93 2.3-1.48.9-.66 1.65-1.84 1.05-2.95-.41-.76-1.3-1.03-2.11-.83-1.14.27-1.95 1.09-2.78 1.9a6.37 6.37 0 01-4.69 1.92c-5.08-.23-5.84-6.57-3-9.57.79-.84 1.9-1.63 1.83-2.84a1.8 1.8 0 00-1.73-1.67c-1.75-.1-3.04 1.27-4.59 1.85-2.83 1.05-6.14-1.27-6.33-4.46-.15-2.43 2.73-2.55 5.35-3.18.6-.14.65-1.05.07-1.23a31.05 31.05 0 01-6.6-3c-2.76-1.73-5.1-7.2-.34-8.77 1.27-.43 4.15.57 4.8 1.52.95 1.35 4.42 4.76 4.42 4.76.4.34 1-.14.8-.66a8.3 8.3 0 01-.55-3.76c.07-.61.24-1.22.54-1.76 1.73-3.23 5.48-2.02 6.9.48 1.18 2.09 1.22 4.72 1.28 7.21.03 1.3.12 2.7 1.1 3.52.56.46 1.38.52 1.95 0 .66-.58.51-1.4.57-2.17.18-2.5 2.84-4.32 5.09-3.9 2.25.42 3.9 2.58 4.47 4.96.56 2.4.2 4.97-.38 7.41-.29 1.2-.64 2.5 0 3.6.38.65 1.16.96 1.81.59.93-.54.81-1.86.96-2.93.42-2.95 3.85-4.75 6.41-3.83 2.57.93 4.1 3.84 4.37 6.79.3 3.3-.75 6.67-1.79 9.84-.24.74-.02 1.6.6 1.95.87.49 1.58-.35 2.2-.99 2.4-2.47 6.34-2.9 8.96-1 2.62 1.92 3.64 5.99 2.34 9.25-.84 2.08-2.48 3.81-2.29 6.26.1 1.2.95 2.21 2.07 2.18 1.42-.04 2.14-1.64 3.02-2.78 2.44-3.17 7.35-2.9 9.9-.1 2.54 2.81 1.22 10.16.22 14.1-1 3.93-2.9 12.16-6.2 15.97-1.55 1.8-12.87-1.78-15.24-2.83"/><path fill="#619340" d="M33.67 266.95c1.28-.43 4.15.57 4.82 1.52.94 1.35 4.4 4.76 4.4 4.76.42.34 1-.14.82-.66a8.3 8.3 0 01-.56-3.76c.07-.61.24-1.22.54-1.76 1.73-3.23 5.48-2.02 6.9.48 1.18 2.09 1.22 4.72 1.28 7.22.03 1.29.12 2.7 1.1 3.51.56.46 1.38.52 1.95 0 .66-.58.51-1.4.57-2.17.18-2.5 2.84-4.32 5.09-3.9 2.25.42 3.9 2.58 4.47 4.97.56 2.38.2 4.96-.38 7.4-.3 1.2-.64 2.5 0 3.6.38.65 1.16.96 1.81.59.93-.54.81-1.86.96-2.93.42-2.95 3.85-4.76 6.41-3.83 2.56.93 4.1 3.85 4.37 6.79.3 3.31-.75 6.67-1.79 9.84-.24.75-.02 1.6.6 1.95.87.49 1.58-.35 2.2-.98 2.4-2.48 6.34-2.92 8.96-1 2.62 1.91 3.65 5.98 2.34 9.24-.83 2.08-2.48 3.81-2.29 6.26.1 1.2.95 2.21 2.07 2.18 1.42-.04 2.14-1.64 3.02-2.78 2.44-3.17 7.35-2.9 9.9-.1 2.54 2.81 1.22 10.16.22 14.1-.93 3.67-2.66 11.08-5.56 15.15-.2.3-.64.82-.64.82s-13.21-25-32.68-48.05c-10.8-12.8-33.34-26.46-33.34-26.46s.15-.36.5-.73a6.32 6.32 0 011.94-1.27"/><path fill="#316C35" d="M118.5 313.55a59.9 59.9 0 012.57 8.79c.9 3.85.28 5-.79 8.49-1.06 3.49-3.48 6.37-6.71 7.22-3.23.85-5.66 2.53-8.08-.6-.34-.44-.85-.1-.9.14-.25 1.75-.32 2.83-1.32 4.03-1.06 1.27-7.54 6.66-15.64.76-4.24-5.46-5.89-12.1-7.95-18.74a6.75 6.75 0 01-.43-2.54c.15-1.53 1.53-2.59 2.93-2.24-1.21.11-2.46-.9-3.18-2.13a13.17 13.17 0 01-1.3-4.04l-3.17-15.35c3.5 1.28 7.25.89 10.1-1.06 0 0-11-2.37-11.05-7.81-.04-3.95.05-9.44-.2-13.42-.18-2.78.66-5.75 1.6-8.15.8-2.06 1.32-3.48 2.8-4.92.9-.87 1.85-1.77 3.07-2.02 1.84-.39 3.84.78 5.56 2.05a62.87 62.87 0 018.77 8.08c3.23 3.52 6.26 7.28 9.03 11.26-2 5.29-5.35 9.76-9.61 12.8a25.18 25.18 0 0010.65-7.27c.35-.4.74-.84 1.27-.84 1.07-.01 1.67 1.53 1.99 2.73a34.92 34.92 0 007.25 13.77l-4.73 1.85 6.18-.2s.26 6.8 1.28 9.36"/><path fill="#A4B750" d="M120.45 314.94c1.14 2.85 1.76 11.7.2 16.49a12.94 12.94 0 01-6.78 7.68c-2.39 1.08-5.97 1.47-8.38-1.66-.35-.44-.85-.1-.9.14-.25 1.75-24.92-77.38-23.74-77.63 1.84-.39 3.84.78 5.56 2.05a62.93 62.93 0 018.77 8.08c3.23 3.52 6.25 7.29 9.02 11.26-2 5.28-5.34 9.76-9.6 12.8a25.19 25.19 0 0010.65-7.27c.35-.4.74-.84 1.27-.84 1.07-.01 1.67 1.53 1.99 2.73a34.93 34.93 0 007.25 13.77l-4.73 1.85 6.18-.2s2.22 8.2 3.24 10.75"/><path fill="#57575F" d="M60.3 50.93h47.51V48.2H34.45v-.46h-1.38v.02a3.5 3.5 0 00-6.51 1.81 3.52 3.52 0 006.51 1.82v.03h1.38v-.48h7.57c1.22.07 43.06 2.6 64.74 28.8l2.1-1.75C95.42 61.72 75.03 54.3 60.32 50.93"/><path fill="#2C3E50" d="M36.08 61.1a1.64 1.64 0 100 3.27 1.64 1.64 0 000-3.28m0 4.65a3.01 3.01 0 110-6.02 3.01 3.01 0 010 6.02"/><path fill="#2C3E50" d="M36.08 61.85a.69.69 0 01-.68-.69V48.13a.68.68 0 111.37 0v13.03c0 .38-.31.69-.69.69"/><path fill="#7F786A" d="M6.57 95.21a29.52 29.52 0 1059.03 0 29.52 29.52 0 00-59.03 0"/><path fill="#57575F" d="M36.08 66.36A28.89 28.89 0 007.23 95.2a28.89 28.89 0 0028.85 28.85 28.89 28.89 0 0028.85-28.85 28.89 28.89 0 00-28.85-28.85m0 59.03A30.21 30.21 0 015.9 95.2a30.21 30.21 0 0130.18-30.18 30.21 30.21 0 0130.18 30.18 30.21 30.21 0 01-30.18 30.18"/><path fill="#FFAF12" d="M23.36 99.59c0 .15 0 .27-.02.36a.9.9 0 01-.06.24.31.31 0 01-.09.13.2.2 0 01-.13.05h-4.9a.61.61 0 01-.4-.15c-.12-.1-.18-.26-.18-.48v-8.5c0-.22.06-.38.17-.47.11-.1.25-.15.42-.15h4.86a.2.2 0 01.12.04c.04.02.07.07.1.13a2.94 2.94 0 010 1.2.3.3 0 01-.1.14.2.2 0 01-.12.04h-3.48v2.38h2.95c.05 0 .09.02.13.04l.09.13.06.23a2.83 2.83 0 01-.06.95.28.28 0 01-.1.13.22.22 0 01-.12.04h-2.94v2.75h3.5a.2.2 0 01.13.04c.04.02.07.07.1.13a2.85 2.85 0 01.07.6m7.88.53c0 .05-.02.1-.04.13-.03.04-.08.07-.15.09l-.3.05a4.95 4.95 0 01-1.3-.04.45.45 0 01-.2-.1.55.55 0 01-.12-.15l-2.24-3.54v3.55a.2.2 0 01-.04.13.33.33 0 01-.16.1 4.41 4.41 0 01-1.5 0 .34.34 0 01-.15-.1.2.2 0 01-.05-.13v-9.9c0-.05.02-.1.05-.14a.33.33 0 01.15-.1c.08-.03.17-.05.3-.07a3.83 3.83 0 011.2.07c.08.03.13.06.16.1.03.04.04.09.04.14v5.9l2-2.68a.91.91 0 01.13-.16.52.52 0 01.2-.1 4.9 4.9 0 011.56 0c.07.02.13.05.16.09.03.04.04.08.04.14 0 .07-.02.15-.05.24l-.17.27-1.97 2.23 2.27 3.52.13.26c.03.07.05.14.05.2m5.57-3.36c0-.33-.03-.64-.09-.92a2.13 2.13 0 00-.26-.73c-.13-.2-.3-.36-.5-.48-.21-.11-.47-.17-.79-.17-.28 0-.53.05-.74.15-.2.1-.38.26-.52.46-.13.2-.23.43-.3.71a4.75 4.75 0 00-.02 1.87c.05.28.14.52.27.73.12.2.29.36.5.48.2.1.47.16.78.16.29 0 .54-.04.75-.15.2-.1.38-.25.52-.45.13-.2.23-.43.3-.71.06-.28.1-.6.1-.95m1.94-.08c0 .58-.07 1.1-.22 1.57s-.38.88-.69 1.22c-.3.34-.69.6-1.15.79-.46.19-1 .28-1.62.28-.6 0-1.11-.08-1.56-.25a2.81 2.81 0 01-1.74-1.89 5.46 5.46 0 01.01-3.15 3.09 3.09 0 011.84-2c.46-.2 1-.29 1.62-.29.6 0 1.12.08 1.56.25a2.74 2.74 0 011.74 1.88c.14.47.21 1 .21 1.6m3.73 2.6c0 .46-.08.77-.24.93-.16.16-.46.24-.88.24s-.71-.08-.87-.23c-.16-.16-.24-.46-.24-.9 0-.48.08-.8.24-.95.16-.16.46-.24.89-.24.41 0 .7.08.86.23.16.16.24.46.24.91m3.8.83a.2.2 0 01-.05.13.34.34 0 01-.16.1 4.4 4.4 0 01-1.5 0 .34.34 0 01-.15-.1.2.2 0 01-.04-.13v-6.7c0-.05.01-.1.04-.14a.37.37 0 01.15-.1l.3-.06a3.83 3.83 0 011.2.07c.08.02.13.06.16.1a.2.2 0 01.04.13v6.7zm.14-9c0 .39-.08.65-.24.8-.15.14-.44.22-.86.22-.43 0-.72-.07-.87-.21-.14-.15-.22-.4-.22-.77 0-.38.08-.64.23-.8.16-.14.44-.21.87-.21.42 0 .71.07.86.21.15.15.23.4.23.77zm8.16 9a.2.2 0 01-.04.13.33.33 0 01-.15.1 4.44 4.44 0 01-1.5 0 .33.33 0 01-.15-.1.2.2 0 01-.05-.13v-3.83c0-.33-.02-.59-.07-.77a1.55 1.55 0 00-.2-.48.95.95 0 00-.36-.31c-.14-.07-.3-.1-.5-.1-.24 0-.48.08-.73.25-.25.18-.5.44-.77.77v4.47a.2.2 0 01-.04.13.34.34 0 01-.16.1 4.41 4.41 0 01-1.5 0 .34.34 0 01-.15-.1.2.2 0 01-.05-.13v-6.72c0-.05.02-.1.04-.13a.27.27 0 01.14-.1l.25-.05a3.2 3.2 0 011.03.05c.06.03.1.06.12.1.03.04.04.08.04.13v.78c.37-.4.75-.7 1.14-.9.38-.2.78-.3 1.2-.3.46 0 .84.07 1.16.22.3.15.56.35.75.61.2.26.34.56.42.91.09.34.13.76.13 1.25v4.15z"/><path fill="#F6C8B2" d="M270.11 19.9v316.89c0 6.91-5.32 12.54-11.87 12.54H108.89c-6.56 0-11.88-5.63-11.88-12.54V19.9c0-6.92 5.32-12.55 11.88-12.55h149.35c6.55 0 11.87 5.63 11.87 12.55"/><path fill="#FFF" d="M97 48.34V336.8c0 6.91 5.33 12.54 11.89 12.54h149.35c6.55 0 11.87-5.63 11.87-12.54V48.35H97.01z"/><path fill="#F4E6C6" d="M241.26 209.03h-31.18c-6.45 0-11.73-5.28-11.73-11.73s5.28-11.74 11.73-11.74h31.19c6.45 0 11.73 5.28 11.73 11.74 0 6.45-5.28 11.73-11.73 11.73"/><path fill="#FD9F00" d="M218.84 198.57c0 .34-.06.63-.19.88a1.91 1.91 0 01-1.25 1.02 3.22 3.22 0 01-1.53.07 3.55 3.55 0 01-.86-.29c-.1-.06-.16-.1-.2-.15a.36.36 0 01-.1-.18 3 3 0 01.01-.77.18.18 0 01.07-.1.14.14 0 01.08-.02c.05 0 .11.03.2.08a3.06 3.06 0 00.79.36 2.19 2.19 0 001.05.02c.13-.03.23-.09.32-.16a.7.7 0 00.2-.25c.04-.1.07-.22.07-.34a.59.59 0 00-.12-.37c-.08-.1-.18-.2-.3-.28a3.08 3.08 0 00-.44-.22 21.69 21.69 0 01-1-.5c-.15-.1-.3-.21-.42-.35a1.63 1.63 0 01-.43-1.18c0-.3.06-.58.17-.8.11-.24.27-.43.46-.58.2-.15.42-.27.68-.34a3.03 3.03 0 012.05.14c.1.05.17.1.2.13.04.03.06.06.07.08a.5.5 0 01.03.09l.02.15a4.27 4.27 0 01-.03.61.2.2 0 01-.05.1c-.02.02-.05.02-.09.02a.4.4 0 01-.17-.06 4.1 4.1 0 00-.69-.3 1.77 1.77 0 00-.5-.07c-.13 0-.26.02-.36.05-.1.04-.2.09-.27.15a.56.56 0 00-.15.22.71.71 0 00-.05.27c0 .14.03.26.11.36.08.1.18.2.31.28.13.08.28.15.44.22a17.52 17.52 0 011 .5 1.7 1.7 0 01.75.85c.08.18.12.4.12.66m4.76 1.4l-.01.24-.04.16a.19.19 0 01-.06.08.13.13 0 01-.08.03h-3.2a.4.4 0 01-.27-.1c-.07-.06-.11-.16-.11-.3v-5.56c0-.14.04-.24.11-.3a.4.4 0 01.27-.1h3.18c.03 0 .06 0 .08.02l.06.09c.01.04.03.1.03.16a2.02 2.02 0 01-.03.63.2.2 0 01-.06.08.12.12 0 01-.08.03h-2.27v1.55h1.92c.03 0 .06.01.08.03.03.02.05.05.06.08l.04.16a1.9 1.9 0 01-.04.62.2.2 0 01-.06.08.15.15 0 01-.08.02h-1.92v1.8h2.29c.03 0 .06 0 .08.02a.2.2 0 01.06.09l.04.16.01.23m6.39.06c0 .07-.01.14-.04.2a.42.42 0 01-.1.15.43.43 0 01-.16.08.68.68 0 01-.19.03h-.55c-.11 0-.21-.01-.3-.03a.6.6 0 01-.23-.13 1.09 1.09 0 01-.2-.25c-.07-.1-.14-.23-.22-.4l-1.59-2.97a14.86 14.86 0 01-.53-1.17h-.01a27.77 27.77 0 01.04 1.43v3.33l-.03.09a.2.2 0 01-.1.06.75.75 0 01-.17.04 2.3 2.3 0 01-.75-.04.19.19 0 01-.1-.06.17.17 0 01-.02-.1v-5.71c0-.16.05-.27.14-.35a.5.5 0 01.33-.11h.7c.12 0 .22 0 .3.03.1.02.17.06.24.1.06.05.13.12.19.2l.18.33 1.24 2.33.21.41.2.41.2.4.18.4a30.73 30.73 0 01-.03-1.44v-2.98l.03-.09a.25.25 0 01.1-.07.7.7 0 01.18-.04 2.81 2.81 0 01.75.04c.04.02.07.04.09.07l.02.09v5.72zm5.34-2.78c0-.3-.04-.58-.11-.84a1.8 1.8 0 00-.34-.68 1.58 1.58 0 00-.6-.44c-.24-.1-.56-.16-.96-.16h-.65v4.33h.67c.35 0 .65-.05.9-.14.24-.1.44-.23.6-.42.16-.18.29-.41.37-.69.08-.27.12-.6.12-.96m1.33-.04c0 .58-.07 1.08-.22 1.5-.16.4-.38.75-.66 1-.29.27-.63.46-1.04.59-.41.12-.9.18-1.46.18h-1.52a.4.4 0 01-.27-.1c-.08-.06-.11-.16-.11-.3v-5.56c0-.14.03-.24.1-.3a.4.4 0 01.28-.1h1.63c.57 0 1.05.06 1.45.2a2.53 2.53 0 011.61 1.56c.14.38.21.82.21 1.32"/><g transform="translate(90)"><mask id="b" fill="#fff"><use xlink:href="#a"/></mask><path fill="#57575F" d="M183.28 336.79c0 8.78-6.74 15.89-15.04 15.89H18.89c-8.31 0-15.05-7.11-15.05-15.9V19.9C3.84 11.13 10.58 4 18.9 4h149.35c8.3 0 15.04 7.13 15.04 15.9v316.89zM168.24.66H18.89C8.84.67.68 9.3.68 19.9v316.89c0 10.6 8.16 19.23 18.2 19.23h149.36c10.04 0 18.2-8.63 18.2-19.23V19.9c0-10.6-8.16-19.24-18.2-19.24z" mask="url(#b)"/></g><path fill="#7F786A" d="M270.11 336.79c0 6.91-5.33 12.54-11.87 12.54H108.88c-6.55 0-11.87-5.63-11.87-12.54V19.9c0-6.91 5.32-12.54 11.87-12.54h149.36c6.54 0 11.87 5.63 11.87 12.54V336.8zM258.24 4H108.88c-8.3 0-15.04 7.12-15.04 15.9v316.88c0 3.68 1.18 7.06 3.17 9.74a15.14 15.14 0 006.11 4.94 14.2 14.2 0 005.76 1.2h149.36c8.3 0 15.03-7.1 15.03-15.89V19.9c0-8.77-6.73-15.9-15.03-15.9z"/><mask id="d" fill="#fff"><use xlink:href="#c"/></mask><path fill="#F3F8F7" d="M109.16 26.36h2.56v-3.82h-2.56zm3.41 0h2.56v-4.75h-2.56zm3.41 0h2.56v-5.68h-2.56zm3.41 0h2.56v-6.6h-2.56zm135.93 0h-9.87c-.8 0-1.46-.65-1.46-1.45v-3.7c0-.8.66-1.46 1.46-1.46h9.87c.8 0 1.46.65 1.46 1.46v3.7c0 .8-.65 1.45-1.46 1.45m1.83-4.64v2.67c.45-.06.8-.63.8-1.33 0-.7-.35-1.27-.8-1.34" mask="url(#d)"/><path fill="#FFF4DD" d="M160.84 86.12v263.21H108.9c-6.56 0-11.88-5.63-11.88-12.55V86.12h63.83z" mask="url(#d)"/><path fill="#D4DAE3" d="M242.16 81.84v7.28c0 6.58 5.24 11.92 11.72 11.92 6.47 0 11.71-5.34 11.71-11.92v-7.28h-23.44z" mask="url(#d)"/><path fill="#F3F8F7" d="M265.6 81.84l-10.15-33.57H234.9l7.25 33.57z" mask="url(#d)"/><path fill="#F6C8B2" d="M242.16 81.84l-7.25-33.57h-20.54l4.35 33.57z" mask="url(#d)"/><path fill="#E8BAAA" d="M218.72 81.84v7.28c0 6.58 5.24 11.92 11.72 11.92 6.47 0 11.71-5.34 11.71-11.92v-7.28h-23.43z" mask="url(#d)"/><path fill="#F3F8F7" d="M218.72 81.84l-4.35-33.57h-20.54l1.45 33.57z" mask="url(#d)"/><path fill="#D4DAE3" d="M195.28 81.84v7.28c0 6.58 5.24 11.92 11.72 11.92 6.47 0 11.72-5.34 11.72-11.92v-7.28h-23.44z" mask="url(#d)"/><path fill="#F6C8B2" d="M195.28 81.84l-1.45-33.57h-20.54l-1.45 33.57z" mask="url(#d)"/><path fill="#E8BAAA" d="M171.84 81.84v7.28c0 6.58 5.25 11.92 11.72 11.92 6.47 0 11.72-5.34 11.72-11.92v-7.28h-23.44z" mask="url(#d)"/><path fill="#F3F8F7" d="M171.84 81.84l1.45-33.57h-20.54l-4.35 33.57z" mask="url(#d)"/><path fill="#D4DAE3" d="M148.4 81.84v7.28c0 6.58 5.25 11.92 11.72 11.92 6.47 0 11.72-5.34 11.72-11.92v-7.28H148.4z" mask="url(#d)"/><path fill="#E8BAAA" d="M124.96 81.84v7.28c0 6.58 5.25 11.92 11.72 11.92 6.47 0 11.72-5.34 11.72-11.92v-7.28h-23.44z" mask="url(#d)"/><path fill="#F6C8B2" d="M148.4 81.84l4.35-33.57H132.2l-7.25 33.57z" mask="url(#d)"/><path fill="#F3F8F7" d="M124.96 81.84l7.25-33.57h-20.54l-10.15 33.57z" mask="url(#d)"/><path fill="#D4DAE3" d="M101.52 81.84v7.28c0 6.58 5.25 11.92 11.72 11.92 6.47 0 11.72-5.34 11.72-11.92v-7.28h-23.44z" mask="url(#d)"/><path fill="#E8BAAA" d="M78.08 81.84v7.28c0 6.58 5.25 11.92 11.72 11.92 6.48 0 11.72-5.34 11.72-11.92v-7.28H78.08z" mask="url(#d)"/><path fill="#F6C8B2" d="M111.67 48.27H91.13L78.08 81.84h23.44zm177.36 33.57L276 48.27h-20.54l10.14 33.57z" mask="url(#d)"/><path fill="#E8BAAA" d="M265.6 81.84v7.28c0 6.58 5.24 11.92 11.71 11.92 6.47 0 11.72-5.34 11.72-11.92v-7.28H265.6z" mask="url(#d)"/><path fill="#57575F" d="M91.07 48.28h184.98v-9.56H91.07z" mask="url(#d)"/><path fill="#7F786A" d="M91.07 42.62h184.98v-1.75H91.07z" mask="url(#d)"/><path fill="#E59C28" d="M58.45 126.64s2.42-2.5 10.99-2.5c7.42 0 9.53 2.5 9.53 2.5l-9.98 13.1-10.54-13.1z" mask="url(#d)"/><path fill="#7F786A" d="M33.74 346.41s-4 13.47-2.2 13.47h24.18c3.44 0-4.61-5.2-10.74-9.7a47.1 47.1 0 01-6.43-5.68l-4.81 1.91z" mask="url(#d)"/><path fill="#57575F" d="M39.16 353.48c.14 0 .28-.07.36-.2 1.41-2.08 3.8-2.88 6.39-2.15a.44.44 0 10.23-.84c-2.92-.83-5.74.13-7.34 2.5a.44.44 0 00.36.69m2.68 2.53c.12 0 .23-.05.32-.14 1.96-2.17 4.74-2.81 7.62-1.76a.44.44 0 00.3-.82c-3.23-1.18-6.35-.46-8.57 2a.44.44 0 00.33.72m-10.47 5.27h25.5c.43 0 .78-.26.78-.7 0-.43-.35-.7-.79-.7H31.37c-.43 0-.78.27-.78.7 0 .44.35.7.78.7" mask="url(#d)"/><path fill="#7F786A" d="M94.64 347.6s-2.17 12.28-.38 12.28h30.67c5.39-3.26-16.47-8.54-22.75-14.62-1.93-.1-7.54 2.34-7.54 2.34" mask="url(#d)"/><path fill="#57575F" d="M106.56 353.81c.2 0 .38-.14.43-.34a5.26 5.26 0 012.85-3.41.44.44 0 10-.35-.8 6.18 6.18 0 00-3.35 4.01.44.44 0 00.42.54m3.48 1.83c.18 0 .35-.12.41-.3.2-.6.98-2.63 2.87-3.45a.44.44 0 00-.35-.8c-2.22.96-3.12 3.29-3.35 3.98a.44.44 0 00.42.57m-16.51 5.64H126c.44 0 .79-.26.79-.7 0-.43-.35-.7-.79-.7H93.53c-.43 0-.79.27-.79.7 0 .44.36.7.79.7" mask="url(#d)"/><path fill="#7F786A" d="M44.96 208.17c19.13 3.24 47.02 1.55 50.84 0 .8 3.33 5.72 60.31 6.69 76.58.56 9.4 3.27 38.54 4.63 61.38.15 2.48-12.7 2.84-13.15 1.98-1.63-3.08-12.48-25.3-16.27-48.24-.6-3.65 2.43-17.85 1.52-21.4-5.82-22.54-7.59-26.97-8.98-32.6-1.8 0-9.9 33.19-12.07 42.77-3.56 15.72-11.29 49.63-12.32 58.3-.15 1.25-14.37 1.63-14.37.49-.02-4.84-4.62-23.88-3.67-48.02.3-7.68 7.35-16.68 7.78-21.29 1.73-18.27 2.47-34.03 4.3-47.41 1.36-9.84 3.83-19.4 5.07-22.54" mask="url(#d)"/><path fill="#FDBD4E" d="M93.75 177.01c-.85 29.6 7.3 39.78 3.34 44.22-1.91 2.14-49.28 6.2-55.78 1.1-2.84-2.23 4.83-27.03 1.53-47.93l-6.79-33.29c5.18-6.76 23.09-12.3 32.33-11.55 9.28-.74 26.75 6.62 30.38 12.25 2.67 4.14 4.75 9.48 6.25 14.44v.01l-11.26 20.75z" mask="url(#d)"/><path fill="#FDBD4E" d="M99.46 226.84s-5.53 8.2-23.27 8.82l-2.14-9.39-2.3 9.42c-17.06-.47-31.15-9.55-31.15-9.55l.7-3.82c6.52 5.1 53.69.46 55.79-1.09l2.37 5.6z" mask="url(#d)"/><path fill="#E59C28" d="M72.1 139.33a.65.65 0 100 1.29.65.65 0 000-1.29m0 3.6a.65.65 0 100 1.29.65.65 0 000-1.28m0 3.6a.65.65 0 000 1.29.65.65 0 100-1.29" mask="url(#d)"/><path fill="#57575F" d="M74.3 121.25c1.4-.44 2.85-5.58 3.7-7.74 1.23-3.1 2.91-6.76 1.9-11.66-.33-1.66-1.18-4.69-6-5.38-4.53-.66-11.4.78-12.5 5.34-5.2 2.32-1.75 8.4-1.44 11.88.43 4.86 4.24 7.15 6.2 6.69 4.33-1.02 4.72 1.95 8.14.87" mask="url(#d)"/><path fill="#F3B38C" d="M61.8 113.3c.28 9.24-1.9 15.18-2.3 17.05-.33 1.58 2.6 5.42 9.96 5.42 5.87 0 10.62-2.8 9.75-4.35-1.33-2.38-4.95-9.38-3.45-16.05s-10.17 1.99-13.96-2.08" mask="url(#d)"/><path fill="#F3B38C" d="M61.64 110.29c1.77-.18 1.33 3.2 1.69 3.23.8.09 1.3-5.12 1.46-8.22 2.13-3.49 11.06 2.2 13.57-.3.89.97 1.7 14.73-.83 18.58-.9 1.38-3.06 2.84-4.79 2.84-5.78 0-8.27-3.52-8.98-5.21-.73-1.75-.6-4.27-.77-5-1.7.1-2.42-5.81-1.35-5.92" mask="url(#d)"/><path fill="#57575F" d="M76.25 107.12c-1.33 0-3.03-.57-4.78-1.16-2.82-.94-5.73-1.92-6.76-.25l-.42-.25c1.23-2.01 4.33-.97 7.34.03 2.48.84 5.05 1.7 6.13.63l.35.35c-.47.46-1.11.65-1.87.65m-12.8 15.04c1.91 4.68 8.41 5.41 12.41 4.27 3.32-.96 4.75-6.27 3.33-8.54a.18.18 0 00-.3-.02c-2.2 2.64-8.79 2.42-12.65-.1-2.53-1.66-2.14-5.37-1.9-7.36.22-1.99-1.85-1.22-1.43.95.42 2.17-.47 8.3.55 10.8" mask="url(#d)"/><path fill="#E59C28" d="M58.45 126.64l-4.83 5.2 8.36 7.28 7.2-3.81zm20.52 0l4.18 5.48-6.2 6.08-7.56-2.86z" mask="url(#d)"/><path fill="#FDBD4E" d="M82.14 161.7s-8.62-18.94 3.87-23.62c5.23-1.96 11.38-1.1 16.75 10.9 5.47 12.78 7.35 15.3 7.35 15.3s26.51-3.58 27.54-1.23c0 0 3.73 3.34.99 6.6-5.07 6.04-19.66 15.16-33.58 14.7-12.6-.4-22.92-22.65-22.92-22.65" mask="url(#d)"/><path fill="#E59C28" d="M93.51 178.58c-.04 0-.1 0-.14-.02a.41.41 0 01-.24-.53c2.2-6 2.85-12.5 1.87-18.82a.41.41 0 11.82-.13c.99 6.45.33 13.1-1.92 19.23a.41.41 0 01-.39.27" mask="url(#d)"/><path fill="#F4E6C6" d="M134.5 162.87c-.07.12-.15.8-.13 1.81a3.34 3.34 0 005.77 2.2c3.25-.94 10.49-.81 17.02-4.71 2.25-1.35 3.2-2.88 1.11-3.62-2.61-.93-16.2-1.34-17.36-3.54-.44-.85 1.17-1.87 1.73-2.83.96-1.66.23-3.65-.84-3.51-.82.1-1.04 1.93-1.9 3.2-.77 1.12-3.7 3-4.4 4.58-.7 1.58-.01 4.79-1 6.42" mask="url(#d)"/><path fill="#F4E6C6" d="M134.82 163.04c-.04.1-.12.67-.1 1.64a2.93 2.93 0 001.91 2.7c1.16.44 2.4.16 3.25-.74l.07-.08.1-.02c.94-.27 2.2-.46 3.66-.67 3.65-.52 8.65-1.25 13.26-4 1.62-.97 2.15-1.78 2.1-2.22-.03-.38-.51-.63-.91-.77-.9-.32-3.28-.59-5.82-.88-6.39-.72-10.97-1.35-11.74-2.82-.4-.78.32-1.55.96-2.23.3-.32.6-.64.77-.94.57-.98.48-2.07.1-2.64-.12-.18-.32-.39-.59-.35-.28.03-.55.69-.8 1.33-.23.55-.48 1.17-.85 1.7-.34.5-1 1.09-1.78 1.76-1.03.9-2.2 1.91-2.6 2.78a8.17 8.17 0 00-.34 2.74c-.04 1.34-.08 2.74-.65 3.7zm2.91 5.25c-.45 0-.9-.08-1.35-.26a3.62 3.62 0 01-2.36-3.34 5.8 5.8 0 01.18-2c.5-.81.53-2.12.56-3.38.04-1.14.07-2.22.41-3 .45-1.02 1.69-2.09 2.78-3.04.7-.6 1.37-1.19 1.66-1.6.32-.48.56-1.07.77-1.59.36-.9.68-1.68 1.37-1.76.49-.06.95.18 1.27.66.48.73.67 2.1-.08 3.38-.2.37-.55.73-.87 1.07-.48.51-1.02 1.09-.84 1.42.65 1.25 7 1.98 11.2 2.45 2.68.3 5 .57 5.96.91.86.3 1.33.77 1.39 1.37.12 1.17-1.48 2.31-2.44 2.89-4.74 2.83-9.82 3.56-13.53 4.1-1.39.2-2.59.37-3.48.62a3.63 3.63 0 01-2.6 1.1z" mask="url(#d)"/><path fill="#FFF4DD" d="M149.4 162.82h-.17a.35.35 0 010-.7h.01c1.26.01 2.68-.2 3.94-.37 2.16-.32 3.47-.5 3.65.34a.35.35 0 01-.68.17c-.27-.19-1.77.03-2.87.18-1.23.18-2.62.38-3.89.38m8.56-1.27a.35.35 0 01-.35-.3c-.15-.89-3.28-.81-5.56-.75-1.06.02-2.07.05-2.94 0a.35.35 0 01-.34-.36c.01-.2.18-.34.37-.34.85.04 1.84.02 2.9 0 3.09-.09 6-.16 6.27 1.34a.35.35 0 01-.35.41" mask="url(#d)"/><path fill="#FFF4DD" d="M158.81 160.54c-.15 0-.29-.1-.34-.25-.27-.93-3.88-1.1-6.27-1.22-1.19-.05-2.31-.1-3.16-.22a.35.35 0 01.1-.7c.82.1 1.92.16 3.1.22 3.92.19 6.52.41 6.91 1.72a.35.35 0 01-.34.45" mask="url(#d)"/><path fill="#F4E6C6" d="M141.27 162.15a.35.35 0 01-.14-.68c.19-.08.65-.34.87-.98.27-.78.06-1.82-.6-3a.35.35 0 01.14-.49c.17-.09.39-.03.48.14.77 1.4.98 2.6.65 3.57a2.34 2.34 0 01-1.26 1.41.37.37 0 01-.14.03" mask="url(#d)"/><path fill="#FFF" d="M46.3 230.87l62.74-11.36a5 5 0 004.02-5.8l-3.28-18.12a5 5 0 00-5.8-4.03l-62.73 11.36a5 5 0 00-4.02 5.8l3.28 18.12a5 5 0 005.8 4.03" mask="url(#d)"/><path fill="#F4E6C6" d="M104.87 192.06c-.26 0-.53.02-.8.07l-62.72 11.35a4.4 4.4 0 00-3.56 5.14l3.28 18.12c.43 2.4 2.74 4 5.14 3.56l62.72-11.35a4.39 4.39 0 003.56-5.14l-3.28-18.12a4.42 4.42 0 00-4.34-3.63m-59.45 39.46a5.58 5.58 0 01-5.48-4.58l-3.28-18.12a5.53 5.53 0 014.49-6.47L103.87 191a5.58 5.58 0 016.48 4.48l3.28 18.12a5.53 5.53 0 01-4.5 6.48l-62.72 11.35c-.33.06-.67.1-1 .1" mask="url(#d)"/><path fill="#FDBD4E" d="M63.92 194.76c-4.3-3.92-9.53-9.69-14.22-13.55-3.68-3.04-6.27-4.47-6.33-4.9-.48-3.19 5.2-23.8 5.2-23.8l-12.52-11.4C23.27 156.18 22 181.31 23.78 186.7c3.05 9.14 34.96 19.6 39.26 12.45 1.57-.28.88-4.38.88-4.38" mask="url(#d)"/><path fill="#E59C28" d="M55.04 201.56c-2.66 0-6.85-.33-12.21-1.81a.41.41 0 01.22-.8c9.29 2.58 15.1 1.6 15.15 1.59 1-.17 3.73-3.51 5.36-5.75-1.26-1.44-7.82-8.84-11.99-12.28a60.18 60.18 0 00-5.92-4.15c-2.2-1.4-2.62-1.68-2.52-2.14 1.06-5.2 5.05-15.22 5.22-15.64a.41.41 0 01.77.3c-.04.1-4.06 10.17-5.16 15.35.28.26 1.22.86 2.13 1.44 1.68 1.07 4 2.54 6 4.2 4.67 3.85 12.23 12.53 12.3 12.62l.22.25-.19.26c-.72 1.01-4.42 6.06-6.08 6.35-.1.02-1.25.21-3.3.21" mask="url(#d)"/><path fill="#FFF4DD" d="M47.2 201.84c4.07 1.99 14.8 5.12 15.42 5.25 1.06.2 4.21-3.1 4.05-5.83a9.61 9.61 0 00-.97-2.77l-18.5 3.35z" mask="url(#d)"/><path fill="#F4E6C6" d="M62.95 206.92c1.06.2 7.33-3.1 7.17-5.82-.13-2.24-5.62-11.46-6.83-11.39-4.11.25-9.75 10.3-9.18 11.02 1.32 1.7 8.1 6.05 8.84 6.19" mask="url(#d)"/><path fill="#FFF4DD" d="M68.37 203a.35.35 0 01-.33-.24c-.47-1.46-4.67-7.2-6.77-9.03a.35.35 0 11.46-.53c2.22 1.94 6.47 7.78 6.98 9.34a.35.35 0 01-.34.46m-2.04 1.4a.35.35 0 01-.33-.2c-.85-1.98-5.05-6.36-7.46-8.06a.35.35 0 01.41-.58c2.52 1.8 6.8 6.25 7.7 8.36a.35.35 0 01-.32.49m-2.09 1.62a.35.35 0 01-.32-.2c-.8-1.75-4.56-4.81-6.97-6.42a.35.35 0 01.4-.59c2.3 1.54 6.3 4.73 7.21 6.71a.35.35 0 01-.32.5" mask="url(#d)"/><path fill="#FFF" d="M75.46 127.21c-4 1.26-10.33.06-12.37-4.61-.48-1.1-.9-6.54-.16-6.62.75-.09 1.56 3.78 2.45 3.75 1.52-.05 1.95-1.8-.08-3.13-1.04-.69-1.27-1.9-1.8-3.03-.31-.8-.59-1.52-.79-2.3-.35-1.4.74-.4 1.35.54 1.1 1.69 1.26 1.7 2.64 2.7 2 1.42 3.81-1 6.36-1.08 2.3-.08 5.45.91 6.15 1.56.1.09-.03.5.11.84 1.8 4.33-.53 10.33-3.86 11.38" mask="url(#d)"/><path fill="#7F786A" d="M57.14 213.7c-.23-.17-.53-.22-.91-.14-.25.04-.45.13-.6.24a1.17 1.17 0 00-.47.83v.39l2.54-.5a1.83 1.83 0 00-.56-.82m-1.18 3.33c.27.18.63.23 1.07.14.32-.06.57-.2.77-.4.2-.2.3-.39.32-.57l1.37-.27a2.65 2.65 0 01-.72 1.66c-.4.38-.92.63-1.57.76-.44.09-.86.1-1.25.02a2.52 2.52 0 01-1.03-.43c-.3-.22-.55-.5-.76-.84a3.54 3.54 0 01-.46-2.4 2.86 2.86 0 011.2-1.87 3 3 0 011.14-.46c.49-.1.92-.08 1.32.04.4.11.74.3 1.03.58.3.27.53.6.71.98.18.38.3.8.35 1.24l-4.1.8c.13.5.33.84.6 1.02m7.49-3.85l.26 1.34-3.3.64-.27-1.34zm2.3-2.53l.15.76h.02a2.04 2.04 0 011.56-1.26c.35-.07.7-.06 1.02.02.32.08.6.28.82.6.12-.28.3-.54.56-.79.25-.25.57-.4.97-.48.3-.06.59-.08.85-.06.28.02.52.1.73.22.22.13.4.31.55.55.16.24.27.55.34.91l.74 3.8-1.56.3-.63-3.21a6.92 6.92 0 00-.12-.53c-.05-.17-.12-.31-.2-.42a.76.76 0 00-.36-.24 1.08 1.08 0 00-.54-.01 1 1 0 00-.5.23.9.9 0 00-.26.4c-.05.14-.08.3-.07.48.01.18.03.36.07.53l.61 3.17-1.56.3-.62-3.19-.1-.5c-.05-.16-.1-.3-.19-.43a.72.72 0 00-.34-.28 1.06 1.06 0 00-.59-.02c-.07.01-.17.05-.28.1a.97.97 0 00-.32.26c-.1.11-.16.26-.21.45-.05.2-.04.42.01.7l.64 3.3-1.56.3-1.1-5.68 1.47-.28zm10.57 1.58c.08.21.2.4.34.54.14.15.3.26.5.33s.42.08.69.03c.26-.05.47-.15.64-.29.15-.13.27-.3.34-.5.07-.18.11-.4.11-.62a3.39 3.39 0 00-.26-1.33c-.08-.21-.2-.4-.33-.54-.14-.15-.31-.26-.51-.33s-.43-.08-.7-.03c-.26.05-.47.15-.63.29-.15.14-.27.3-.34.5-.07.18-.11.39-.11.62a3.44 3.44 0 00.26 1.33m-1.79-1.62a2.7 2.7 0 011.22-1.84c.33-.22.72-.37 1.16-.45.45-.1.87-.1 1.26-.02a2.65 2.65 0 011.82 1.25c.21.34.36.74.45 1.2.09.45.1.87.03 1.26-.07.4-.2.75-.4 1.06-.22.3-.49.57-.82.78-.34.2-.73.36-1.17.44-.45.09-.87.1-1.25.03a2.64 2.64 0 01-1.82-1.24 3.47 3.47 0 01-.45-1.2c-.08-.45-.1-.87-.03-1.27m7.85-3.2l.15.8.04-.01c.13-.37.34-.66.63-.87a2.73 2.73 0 011.98-.44 1.57 1.57 0 011.2 1.02c.11.27.2.6.27.94l.68 3.5-1.56.3-.62-3.21c-.1-.47-.24-.8-.43-1-.19-.2-.47-.27-.84-.2-.43.08-.71.27-.85.56-.14.29-.16.72-.05 1.3l.58 2.98-1.56.3-1.1-5.68 1.48-.29zm8.72-.31c-.22-.17-.53-.22-.9-.14-.26.04-.46.13-.6.24a1.18 1.18 0 00-.47.83v.39l2.54-.5a1.85 1.85 0 00-.57-.82m-1.18 3.33c.28.18.64.23 1.08.14.31-.06.57-.2.77-.4.2-.2.3-.39.31-.57l1.38-.27a2.65 2.65 0 01-.73 1.66c-.4.38-.92.63-1.56.76-.45.08-.86.09-1.25.02s-.73-.22-1.03-.44c-.3-.21-.55-.49-.76-.83a3.54 3.54 0 01-.46-2.4 2.86 2.86 0 012.34-2.33 2.57 2.57 0 012.35.61c.29.27.52.6.7.98.19.39.3.8.36 1.25l-4.1.8c.12.5.32.83.6 1.02m7.33 1.74a2.3 2.3 0 01-1.2.54 6.64 6.64 0 01-.96.13l-.25-1.28.46-.05c.15-.01.3-.04.46-.08.2-.06.34-.17.41-.33a.8.8 0 00.06-.49.92.92 0 00-.14-.33l-3.02-4.94 1.66-.33 2.04 3.64h.02l.49-4.13 1.61-.32-1.13 6.85c-.08.5-.25.87-.51 1.12" mask="url(#d)"/><path fill="#FD9F00" d="M205.67 348.77v9.05c0 3.14-16.76 5.68-37.43 5.68-20.67 0-37.43-2.54-37.43-5.68v-9.05h74.86z" mask="url(#d)"/></g><g transform="translate(130 348.33)"><mask id="f" fill="#fff"><use xlink:href="#e"/></mask><path fill="#E38601" d="M73.08 17.76h1.77V-2.99h-1.77zm-4.6 0h1.78V-2.99h-1.77zm-5.24 0h1.77V-2.99h-1.77zm-6.55 0h1.78V-2.99H56.7zm-7.2 0h1.78V-2.99H49.5zm-7.84 0h1.77V-2.99h-1.77zm-40.02 0H3.4V-2.99H1.63zm4.6 0H8V-2.99H6.22zm5.24 0h1.77V-2.99h-1.77zm6.54 0h1.78V-2.99h-1.77zm7.2 0h1.77V-2.99h-1.77zm7.85 0h1.77V-2.99h-1.77z" mask="url(#f)"/></g><path fill="#FAC61B" d="M130.81 348.94c0 3.13 16.76 5.68 37.43 5.68 20.67 0 37.43-2.55 37.43-5.69 0-3.13-16.76-5.68-37.43-5.68-20.67 0-37.43 2.55-37.43 5.68"/><path fill="#FD9F00" d="M138.48 348.34c0 1.45 13.33 2.64 29.76 2.64s29.76-1.19 29.76-2.64c0-1.46-13.32-2.64-29.76-2.64s-29.76 1.18-29.76 2.63"/><path fill="#E38601" d="M196.72 349.1c-3.71-1.08-15.05-1.87-28.48-1.87-13.42 0-24.77.8-28.47 1.87-.83-.24-1.29-.5-1.29-.76 0-1.46 13.33-2.64 29.76-2.64s29.76 1.18 29.76 2.64c0 .26-.45.52-1.28.76"/><path fill="#FD9F00" d="M211.1 338.88v9.05c0 3.14-16.77 5.68-37.44 5.68-20.67 0-37.43-2.54-37.43-5.68v-9.05h74.86z"/><g transform="translate(136 338.33)"><mask id="h" fill="#fff"><use xlink:href="#g"/></mask><path fill="#E38601" d="M72.5 17.54h1.77V-3.22H72.5zm-4.6 0h1.78V-3.22H67.9zm-5.24 0h1.77V-3.22h-1.77zm-6.54 0h1.77V-3.22h-1.77zm-7.2 0h1.77V-3.22h-1.77zm-7.85 0h1.78V-3.22h-1.78zm-40.02 0h1.77V-3.22H1.05zm4.6 0h1.77V-3.22H5.64zm5.24 0h1.77V-3.22H10.9zm6.54 0h1.78V-3.22h-1.78zm7.2 0h1.77V-3.22h-1.77zm7.85 0h1.77V-3.22h-1.77z" mask="url(#h)"/></g><path fill="#FAC61B" d="M136.23 338.7c0 3.15 16.76 5.7 37.43 5.7 20.67 0 37.43-2.55 37.43-5.7 0-3.13-16.76-5.67-37.43-5.67-20.67 0-37.43 2.54-37.43 5.68"/><path fill="#FD9F00" d="M143.9 338.11c0 1.46 13.33 2.64 29.76 2.64s29.76-1.18 29.76-2.64c0-1.46-13.32-2.64-29.76-2.64s-29.75 1.18-29.75 2.64"/><path fill="#E38601" d="M202.14 338.88c-3.71-1.09-15.05-1.87-28.48-1.87-13.42 0-24.77.78-28.47 1.87-.83-.25-1.28-.5-1.28-.77 0-1.46 13.32-2.64 29.75-2.64s29.76 1.18 29.76 2.64c0 .27-.45.52-1.28.77"/><path fill="#FD9F00" d="M205.01 328.58v9.06c0 3.13-16.76 5.68-37.43 5.68-20.67 0-37.43-2.55-37.43-5.68v-9.06h74.86z"/><g transform="translate(130 328.33)"><mask id="j" fill="#fff"><use xlink:href="#i"/></mask><path fill="#E38601" d="M72.42 17.24h1.77V-3.5h-1.77zm-4.6 0h1.78V-3.5h-1.77zm-5.24 0h1.77V-3.5h-1.77zm-6.55 0h1.78V-3.5h-1.78zm-7.2 0h1.78V-3.5h-1.77zm-7.84 0h1.77V-3.5H41zm-40.02 0h1.77V-3.5H.97zm4.6 0h1.76V-3.5H5.56zm5.24 0h1.77V-3.5h-1.77zm6.54 0h1.78V-3.5h-1.78zm7.2 0h1.77V-3.5h-1.77zm7.84 0h1.78V-3.5h-1.78z" mask="url(#j)"/></g><g transform="translate(0 .34)"><path fill="#FAC61B" d="M130.15 328.08c0 3.14 16.76 5.68 37.43 5.68s37.43-2.54 37.43-5.68c0-3.14-16.76-5.68-37.43-5.68-20.67 0-37.43 2.54-37.43 5.68"/><path fill="#FD9F00" d="M137.82 327.48c0 1.46 13.33 2.64 29.76 2.64s29.76-1.18 29.76-2.64c0-1.46-13.33-2.64-29.76-2.64s-29.76 1.19-29.76 2.64"/><path fill="#E38601" d="M196.06 328.25c-3.71-1.08-15.06-1.87-28.48-1.87s-24.77.79-28.48 1.87c-.83-.25-1.28-.5-1.28-.77 0-1.46 13.33-2.64 29.76-2.64s29.76 1.18 29.76 2.64c0 .27-.45.52-1.28.77"/><path stroke="#FD9F00" stroke-width="1.5" d="M523.71 164.32s-.33-.61-1.01-1.72"/><path stroke="#FD9F00" stroke-dasharray="3.96 3.96" stroke-width="1.5" d="M520.53 159.29c-11.03-16-51.83-64.62-140.34-64.62-91.79 0-132.27 52.29-141.44 66.25"/><path stroke="#FD9F00" stroke-width="1.5" d="M237.68 162.6c-.69 1.1-1.02 1.72-1.02 1.72"/><path fill="#FAAA36" d="M194.1 146.2c-.02 17.27 14.12 31.27 31.56 31.28 17.44 0 31.58-13.98 31.6-31.25 0-17.26-14.13-31.27-31.57-31.28-17.44 0-31.59 13.98-31.6 31.25"/><path fill="#FAAA36" d="M199.15 146.2c0 14.5 11.86 26.27 26.51 26.27 14.65.01 26.53-11.74 26.54-26.24 0-14.5-11.86-26.26-26.51-26.27-14.65 0-26.53 11.74-26.54 26.24"/><path fill="#FCBA3F" d="M200.64 146.2c0 13.7 11.2 24.8 25.02 24.8 13.83 0 25.04-11.09 25.05-24.77 0-13.69-11.2-24.79-25.02-24.8-13.83 0-25.04 11.09-25.05 24.77"/><path fill="#FAAA36" d="M234.38 133.76c.92 0 1.66-.86 1.66-1.93 0-1.07-.74-1.94-1.66-1.94h-16.66c-.92 0-1.67.87-1.67 1.94 0 1.06.75 1.93 1.67 1.93h6.66c2.17 0 4 1.62 4.7 3.87h-11.36c-.92 0-1.67.86-1.67 1.93 0 1.07.75 1.93 1.67 1.93h11.35c-.69 2.25-2.52 3.87-4.69 3.87h-6.66c-.22 0-.44.05-.64.15-.4.2-.73.57-.9 1.04-.17.48-.17 1 0 1.48.08.24.2.45.36.63l13.33 15.46c.32.38.75.57 1.18.57.42 0 .85-.19 1.18-.57.65-.75.65-1.97 0-2.73l-10.5-12.17h2.65c4.03 0 7.39-3.32 8.16-7.73h1.84c.92 0 1.66-.86 1.66-1.93 0-1.07-.74-1.93-1.66-1.93h-1.84a10.3 10.3 0 00-1.54-3.87h3.38zm93.43-55.73c-8.85 21.78 1.82 46.68 23.82 55.61s47.01-1.48 55.86-23.26c8.84-21.79-1.83-46.69-23.83-55.62s-47.01 1.48-55.85 23.27"/><path fill="#FAAA36" d="M334.19 80.62c-7.43 18.3 1.53 39.2 20 46.7 18.49 7.51 39.49-1.24 46.92-19.53 7.42-18.3-1.54-39.21-20.02-46.71s-39.48 1.24-46.9 19.54"/><path fill="#FCBA3F" d="M336.07 81.38c-7.01 17.27 1.44 37 18.88 44.09 17.44 7.08 37.26-1.18 44.28-18.45 7-17.26-1.45-37-18.9-44.08-17.43-7.08-37.25 1.17-44.26 18.44"/><path fill="#FAAA36" d="M385 82.94c1.16.47 2.54-.24 3.09-1.59.55-1.35.05-2.82-1.11-3.3l-12.62-5.1-8.4-3.41c-1.16-.47-2.55.24-3.1 1.58-.54 1.35-.04 2.82 1.12 3.3l8.4 3.4c2.74 1.11 4.23 4.1 3.95 7.28L362 79.3c-1.16-.48-2.54.23-3.1 1.58-.54 1.35-.04 2.82 1.12 3.3l14.33 5.8c-2.02 2.48-5.16 3.59-7.9 2.48l-8.4-3.4a2.01 2.01 0 00-.88-.15 2.5 2.5 0 00-1.68.86 3 3 0 00-.76 1.86c-.01.35.03.68.14.99l8.9 26.32c.22.64.67 1.1 1.2 1.32.54.22 1.18.2 1.78-.1a2.94 2.94 0 001.4-3.46l-7-20.71 3.33 1.35c5.07 2.06 11.02-.42 14.25-5.59l2.31.94c1.16.48 2.55-.24 3.1-1.58.54-1.35.04-2.82-1.12-3.3l-2.31-.93c.42-1.95.38-3.87.03-5.67l4.26 1.73z"/><path fill="#FFA986" d="M520.55 107.72c.02-.76 2.43-8.62 1.16-9.18-1.28-.57-1.85-.93-2.27-.39-.42.55-2.3 5.04-2.1 5.59.21.54 3.21 3.98 3.21 3.98"/><path fill="#FFA986" d="M509.23 110.56c-2.56-3.44-2.84-6.05.6-8.62 3.44-2.56 6.2-1.8 8.76 1.63 2.56 3.44 3.24 7.27-.2 9.84-3.44 2.56-6.6.58-9.16-2.85"/><path fill="#FFA986" d="M518.45 103.38c-.34-.55-4-10.13-6.16-10.2-2.16-.06-11.86 3.83-10.6 7.77 2.3 2.88 7.19 9.13 7.19 9.13l9.57-6.7z"/><path fill="#E59D29" d="M576.27 154.14a14.18 14.18 0 00-1.91-.46l-.2-.03h-.07l-.51-.07-.82-.12c-.26-.02-.54-.1-.8-.16-.28-.07-.54-.09-.83-.2-.58-.19-1.14-.3-1.74-.54l-1.8-.7c-1.2-.59-2.44-1.1-3.66-1.84l-1.84-1.04-1.82-1.2c-.6-.4-1.23-.76-1.83-1.2l-1.79-1.34-1.8-1.33-1.74-1.46-1.75-1.46c-.59-.48-1.17-.97-1.72-1.5l-3.39-3.15a31.83 31.83 0 01-1.66-1.63l-1.63-1.67c-1.08-1.12-2.21-2.2-3.26-3.37l-3.15-3.5c-1.05-1.18-2.12-2.33-3.11-3.57l-3.03-3.65c-1-1.23-2.05-2.42-3-3.7l-5.82-7.57-9.7 6.76 5.58 8.2c.9 1.38 1.93 2.7 2.9 4.04l2.95 4.02c.96 1.36 2.03 2.65 3.06 3.96l3.13 3.93c1.05 1.3 2.2 2.55 3.29 3.83l1.66 1.91c.55.64 1.1 1.28 1.7 1.89l3.54 3.69c.58.62 1.2 1.22 1.84 1.8l1.88 1.78 1.9 1.78 2 1.7 2.03 1.69c.67.56 1.42 1.07 2.13 1.61l2.17 1.6c.75.51 1.53 1 2.3 1.5 1.5 1.03 3.22 1.9 4.88 2.81.87.43 1.77.83 2.67 1.24.88.4 1.9.73 2.84 1.09.47.18 1.01.31 1.52.47.52.14 1.01.3 1.56.4.51.12 1.1.26 1.56.34l.7.12.08.02h.03-.08a4.3 4.3 0 01-1.02-.29l5.58-15.43z"/><path fill="#FFC581" d="M647.35 350.25l2.21 6.33s1.73 1.42 4.01 1.42c2.3 0 2.58-1.05 2.62-1.51.03-.47-2.12-7.67-2.12-7.67l-6.72 1.42z"/><path fill="#7F786A" d="M654.83 350.28h-8.3c-13.27-26.77-62.56-116.9-63.03-118.22-.56-1.53 24.9-7.08 24.9-7.08s5.68 8.71 10.48 17.92c5.86 11.25 9.61 44.47 9.61 44.47s17.33 9.07 26.34 62.91"/><path fill="#FFC581" d="M569.82 349.82l-.5 6.31s1.13 1.42 3.45 1.42c2.32 0 3.06-1.04 3.3-1.5.24-.47 1.19-7.65 1.19-7.65l-7.44 1.42z"/><path fill="#7F786A" d="M555.12 363.5h13.38c.4-.16.83-.32 1.33-.45.57-.14 2.8-.24 2.8-.24l.08.7h5.7c0-1.72-1.17-7.05-1.24-7.44-.07-.46-.62-.58-.8-.46-.19.11-1.88 1.6-3.57 1.6-1.7 0-3.25-1.66-3.72-1.72-.47-.06-1.69.73-1.69.73s-10.19 5.36-11.5 5.82c-1.11.4-.83 1-.77 1.47m83.04-1.47c.64-.23 3.4-1.62 6.06-2.99v4.46h-6.83c-.06-.46-.34-1.08.77-1.47"/><path fill="#57575E" d="M578.4 363.5c0-.43-.07-1.1-.19-1.85-1.74.01-4.37-.02-5.48-.02-1.35 0-3.35 1.02-4.55 1.02H555.1c-.12.29-.01.6.02.86h13.38c.4-.16.83-.33 1.33-.45.57-.15 2.8-.25 2.8-.25l.08.7h5.69z"/><path fill="#7F786A" d="M577.85 350.65l-8.69.22c-.35-16.75-2.62-123.9-2.46-125.32.16-1.54 21.49.16 21.49.16s1.9 8.23 2.34 17.47c.53 11.29-9.7 44.17-9.7 44.17s11.13 10.17-2.98 63.3"/><path fill="#FFBF4D" d="M565.44 226c1.12.29-1.4 6.17 13.16 7 14.55.85 28.55-6.43 29.95-8.4 1.4-1.95-3.47-18.7-4.6-24.87-1.11-6.16 7.68-35.87 7.4-39.5-.28-3.65-17.49-9-17.49-9l-11.41-.53c-4.66-.21-9.3.76-13.48 2.81-1.88.93-3.62 1.8-4.37 2.23-1.96 1.12-.84 29.4-.56 33.87.28 4.48 1.4 36.4 1.4 36.4"/><path fill="#FFC581" d="M579.7 140.12l1.46-6.42 12.08 3.88s0 12.2.64 13.67c-.65 1.74-6.55 5.71-9.25 5.58-5.76-.29-5.33-5.47-5.37-5.65-.06-.32.44-11.06.44-11.06"/><path fill="#FFBC3F" d="M579.7 140.12l1.46-6.42 12.03 3.86-.15 1.44a20.8 20.8 0 01-13.84 11.96c.15-3.85.5-10.84.5-10.84"/><path fill="#FFC581" d="M573.76 121.62c.18 6.9.86 22.3 1.87 23.83.81.66 2.99.78 5.33.69 4.85-.2 9.31-2.8 11.8-6.97.15-.26.23-.43.23-.48 0-.35 1.81-13.38.56-16.4-1.24-3.03-2.37-3.27-2.37-3.27s-1.96-1.66-6.53-1.6c-2.68.03-5.95.52-8.2.91a3.26 3.26 0 00-2.69 3.3"/><path fill="#57575E" d="M590.29 136.18l-.86-10.02c-.1-1.2.41-2.36 1.37-3.07 1.75-1.3 4.48-3.06 5.48-2.27 1.51 1.2-2.04 13.68-2.55 14.18-.5.51-3.44 1.18-3.44 1.18"/><path fill="#57575E" d="M590.59 126.77c-.43-.48-.29-3.18-3.42-3.37-3.13-.2-6.2.61-8.63.52-2.41-.1-4.7-1.14-4.83-.24-1.33-4.93-5.03-12.33.23-14.18 5.27-1.84 12.9 2.1 14 2.85 1.08.76 3.12 4.7 4.54 5.74 1.43 1.04 4.27 2.75 4.08 3.17-.19.43-2.23 5.03-2.56 5.03-.33 0-3.41.47-3.41.47"/><path fill="#FFC581" d="M590.9 135.14c1.24-1.43 2.44-3.87 4-3.22 1.58.66 1.4 7.53-3.98 5.92-.66-2.01-.01-2.7-.01-2.7"/><path fill="#FFBF4D" d="M596.42 162.32l.13-.17.08-.08c.02-.03 0 0 0-.01l-.03.04-.03.04-.1.1c-.17.14-.25.27-.48.44l-.62.5c-.2.17-.5.33-.73.5l-.75.52-.84.49c-.57.32-1.11.66-1.75.95l-1.86.9-1.98.79c-1.29.57-2.71.98-4.1 1.45a110.86 110.86 0 01-17.76 3.76c-1.53.22-3.08.33-4.63.5-1.55.15-3.08.37-4.65.45l-4.68.27c-1.57.1-3.13.21-4.7.21l-4.73.1c-1.58.01-3.15.09-4.74.03l-9.5-.18-.65 11.8 9.86.56c1.64.12 3.3.1 4.95.15l4.96.1c1.65.06 3.31 0 4.98-.03l4.98-.1c1.67-.02 3.34-.2 5.01-.28 1.68-.13 3.34-.19 5.02-.36a124.2 124.2 0 0020.24-3.51c1.7-.5 3.4-.93 5.1-1.58l2.55-.92 2.55-1.11c.85-.35 1.7-.82 2.56-1.26l1.27-.68 1.3-.8c.42-.28.84-.51 1.28-.84l1.3-.96c.43-.3.91-.76 1.35-1.14l.35-.32.39-.4.38-.4.1-.11.18-.2.33-.4-11.9-8.8z"/><path fill="#7F786A" d="M654.09 360.6s-2.1.78-2.6 1.1c-.43.27-.78.55-1.12.83l-.52.17h-9.47c2.74-2.71 6.68-6.76 6.68-6.76s.92-1.12 1.38-1.2c.47-.1 2.46 1 4.07.48 1.61-.52 2.76-2.46 2.9-2.63.14-.17.7-.23.91.19.18.35 2.93 5.06 3.46 6.7l-5.41 1.75-.28-.64z"/><path fill="#57575E" d="M648.47 363.15h-2.78l4.1-1.33c1.15-.37 2.74-1.96 4.02-2.38 1.06-.34 3.57-1.12 5.22-1.67.34.68.62 1.3.75 1.7l-5.4 1.76-.3-.64s-2.09.79-2.59 1.1c-.43.28-.78.56-1.12.84l-1.9.62z"/><path fill="#57575E" d="M637.4 362.65h12.41c-.19.19-2.4.76-2.47.86h-9.93c-.03-.26-.13-.57-.02-.86"/><path fill="#FAAA36" d="M545.2 135.96a45.78 45.78 0 10-90.69 12.64 45.78 45.78 0 0090.7-12.64"/><path fill="#FCBA3F" d="M535.01 137.38a35.5 35.5 0 10-70.3 9.8 35.5 35.5 0 0070.3-9.8"/><path fill="#FAAA36" d="M502.37 126.96c.92-.48 1.2-1.8.6-2.94s-1.83-1.67-2.75-1.2l-10.04 5.23-6.69 3.48c-.92.48-1.19 1.8-.6 2.94.6 1.14 1.83 1.67 2.75 1.2l6.7-3.49c2.17-1.13 4.91-.36 6.85 1.68l-11.4 5.93c-.92.48-1.19 1.8-.6 2.94.6 1.14 1.83 1.67 2.75 1.2l11.4-5.94c.56 2.76-.38 5.44-2.56 6.58l-6.69 3.48c-.21.11-.4.28-.56.5-.3.41-.41.98-.32 1.58.1.6.39 1.16.82 1.58.22.21.46.37.72.48l21.97 9.55c.54.24 1.07.22 1.5 0 .43-.23.75-.65.87-1.22a2.73 2.73 0 00-1.52-2.92l-17.3-7.52 2.66-1.38c4.04-2.1 5.57-7.41 3.9-12.52l1.84-.96c.92-.48 1.2-1.8.6-2.94s-1.83-1.67-2.75-1.2l-1.84.97a12.87 12.87 0 00-3.7-3.33l3.4-1.76z"/><path fill="#FFC581" d="M527.93 175.15c-.54-.52-4.64-7.65-5.93-7.1-1.28.54-1.93.7-1.82 1.39.11.68 2.1 5.12 2.65 5.34.54.22 5.1.37 5.1.37"/><path fill="#FFC581" d="M522.28 185.37c-4.26-.47-6.36-2.06-5.89-6.32.47-4.26 2.9-5.76 7.17-5.29 4.26.47 7.52 2.6 7.05 6.86-.47 4.26-4.07 5.22-8.33 4.75"/><path fill="#FFC581" d="M523.32 173.73c-.63-.12-10.13-3.99-11.65-2.45-1.52 1.53-5.3 11.28-1.55 13.04 3.67.29 11.58.98 11.58.98l1.62-11.57z"/><path fill="#57575E" d="M443.03 357.41s-2.55 2.45 0 4.99h10.99v-4.99h-5.72s-2.62 1.53-5.28 0"/><path fill="#F9E0D2" d="M449.73 362.4h8.58v-1.74c0-1.8-1.46-3.25-3.25-3.25h-2.08a3.25 3.25 0 00-3.25 3.25v1.74z"/><mask id="l" fill="#fff"><use xlink:href="#k"/></mask><path fill="#F9E0D2" d="M442.58 363.2h16.1v-.8h-16.1z" mask="url(#l)"/><path fill="#FDC854" d="M431.23 346.99H532.2a6.12 6.12 0 016.12 6.12v3.93a6.12 6.12 0 01-6.12 6.12H431.23a6.12 6.12 0 01-6.12-6.12v-3.93a6.12 6.12 0 016.12-6.12" mask="url(#l)"/><path fill="#F89F4F" d="M425.11 360.07a3.1 3.1 0 003.1 3.1h107.01a3.1 3.1 0 003.1-3.1v-1.66h-113.2v1.66z" mask="url(#l)"/><path fill="#FDC854" d="M431.23 330.82H532.2a6.12 6.12 0 016.12 6.12v3.93a6.12 6.12 0 01-6.12 6.12H431.23a6.12 6.12 0 01-6.12-6.12v-3.93a6.12 6.12 0 016.12-6.12" mask="url(#l)"/><path fill="#F89F4F" d="M425.11 343.9a3.1 3.1 0 003.1 3.09h107.01a3.1 3.1 0 003.1-3.09v-1.67h-113.2v1.67z" mask="url(#l)"/><path fill="#FDC854" d="M431.23 314.65H532.2a6.12 6.12 0 016.12 6.12v3.93a6.12 6.12 0 01-6.12 6.12H431.23a6.12 6.12 0 01-6.12-6.12v-3.93a6.12 6.12 0 016.12-6.12" mask="url(#l)"/><path fill="#F89F4F" d="M425.11 327.73a3.1 3.1 0 003.1 3.09h107.01a3.1 3.1 0 003.1-3.1v-1.66h-113.2v1.67z" mask="url(#l)"/><path fill="#FDC854" d="M425.03 298.48H526a6.12 6.12 0 016.12 6.12v3.93a6.12 6.12 0 01-6.12 6.12H425.03a6.12 6.12 0 01-6.12-6.12v-3.93a6.12 6.12 0 016.12-6.12" mask="url(#l)"/><path fill="#F89F4F" d="M418.91 311.56a3.1 3.1 0 003.1 3.09h107.01a3.1 3.1 0 003.1-3.1v-1.66h-113.2v1.67z" mask="url(#l)"/><path fill="#FDC854" d="M431.23 282.3H532.2a6.12 6.12 0 016.12 6.12v3.94a6.12 6.12 0 01-6.12 6.12H431.23a6.12 6.12 0 01-6.12-6.12v-3.93a6.12 6.12 0 016.12-6.12" mask="url(#l)"/><path fill="#F89F4F" d="M425.11 295.38a3.1 3.1 0 003.1 3.1h107.01a3.1 3.1 0 003.1-3.1v-1.66h-113.2v1.66z" mask="url(#l)"/><path fill="#FDC854" d="M426.99 266.13h100.96a6.12 6.12 0 016.12 6.12v3.94a6.12 6.12 0 01-6.12 6.12H426.99a6.12 6.12 0 01-6.12-6.12v-3.94a6.12 6.12 0 016.12-6.12" mask="url(#l)"/><path fill="#F89F4F" d="M420.87 279.21a3.1 3.1 0 003.1 3.1h107a3.1 3.1 0 003.1-3.1v-1.66h-113.2v1.66z" mask="url(#l)"/><path fill="#FDC854" d="M425.03 249.96H526a6.12 6.12 0 016.12 6.12v3.93a6.12 6.12 0 01-6.12 6.12H425.03a6.12 6.12 0 01-6.12-6.12v-3.93a6.12 6.12 0 016.12-6.12" mask="url(#l)"/><path fill="#F89F4F" d="M418.91 263.04a3.1 3.1 0 003.1 3.1h107.01a3.1 3.1 0 003.1-3.1v-1.66h-113.2v1.66z" mask="url(#l)"/><path fill="#FDC854" d="M429.2 233.8h100.95a6.12 6.12 0 016.12 6.11v3.93a6.12 6.12 0 01-6.12 6.12H429.2a6.12 6.12 0 01-6.12-6.12v-3.93a6.12 6.12 0 016.12-6.12" mask="url(#l)"/><path fill="#F89F4F" d="M423.07 246.87a3.1 3.1 0 003.1 3.1h107.01a3.1 3.1 0 003.1-3.1v-1.66h-113.2v1.66z" mask="url(#l)"/><path fill="#FDC854" d="M430.86 217.62h100.96a6.12 6.12 0 016.12 6.12v3.93a6.12 6.12 0 01-6.12 6.12H430.86a6.12 6.12 0 01-6.12-6.12v-3.93a6.12 6.12 0 016.12-6.12" mask="url(#l)"/><path fill="#F89F4F" d="M424.74 230.7a3.1 3.1 0 003.09 3.1h107.01a3.1 3.1 0 003.1-3.1v-1.67h-113.2v1.67z" mask="url(#l)"/><path fill="#FFAC34" d="M571.3 351.98a51.23 51.23 0 10-64.75-79.42 51.23 51.23 0 0064.74 79.42" mask="url(#l)"/><path fill="#FFBC3F" d="M564.02 343.05a39.72 39.72 0 10-50.2-61.56 39.72 39.72 0 0050.2 61.56" mask="url(#l)"/><path fill="#FFA331" d="M555.04 305.78c1 .6 2.41.1 3.16-1.14.74-1.23.54-2.71-.46-3.32l-10.82-6.57-7.21-4.38c-1-.6-2.41-.1-3.16 1.14-.75 1.23-.54 2.72.45 3.32l7.22 4.38c2.35 1.42 3.2 4.5 2.38 7.54l-12.3-7.47c-1-.6-2.41-.1-3.16 1.14-.74 1.22-.54 2.71.46 3.32l12.3 7.46c-2.32 2.13-5.44 2.8-7.8 1.37l-7.2-4.38a1.8 1.8 0 00-.8-.25c-.58-.04-1.2.18-1.7.62a3.15 3.15 0 00-1.04 1.7c-.08.33-.1.65-.05.96l3.62 26.57c.09.65.42 1.15.88 1.43s1.06.34 1.67.12a3.06 3.06 0 001.91-3.15l-2.84-20.9 2.86 1.73c4.35 2.65 10.32 1.03 14.24-3.54l1.99 1.2c1 .6 2.4.1 3.15-1.13s.54-2.71-.45-3.32l-1.99-1.2a14.39 14.39 0 001.04-5.47l3.65 2.22z" mask="url(#l)"/><path fill="#306B34" d="M250.12 221.03s24.75 8.32 21.39 36.85c-3.37 28.54 1.48 63.32 1.48 63.32h-14.11s-25.14-33.89-6.62-59.28c18.52-25.4-2.14-40.89-2.14-40.89" mask="url(#l)"/><path fill="#A4B751" d="M252.08 222.8c4.5 3.73 17.6 17.24 3.49 39.6-16.78 26.58 10.57 58.71 10.57 58.71l6.77-.46.08.55h-14.11s-25.14-33.89-6.62-59.28c14.87-20.38 4.5-34.38-.18-39.11" mask="url(#l)"/><path fill="#4900BC" d="M251.12 221.88c-.61-.56-1-.85-1-.85s2.23.75 5.25 2.56c-2-.96-3.54-1.5-4.25-1.71" mask="url(#l)"/><path fill="#619440" d="M277.21 289.64c-1.32-25.33-.3-28.5 9.54-36.86 9.85-8.36 23.72-22.11 23.72-22.11-9.45 18.7-9.26 27.21-11.04 40.98-1.38 10.68-17.42 32-24.54 41.02 1.57-3.66 2.98-10.46 2.32-23.03" mask="url(#l)"/></g><g transform="translate(271 312.33)"><mask id="o" fill="#fff"><use xlink:href="#m"/></mask><path fill="url(#n)" d="M.5 4.87S2.3 4.38 3.9.67C1.83 3.27.5 4.87.5 4.87" mask="url(#o)"/></g><g transform="translate(0 .34)"><path fill="#306B34" d="M282 277.86c4.91 21.04-5.54 35.18-5.54 35.18h-10.3c.03-7.26-.49-14.21-3.9-21.25-.18-.37-.4-.71-.63-1.04a73.96 73.96 0 014.87-2.06c19.03-7.3 10.58-31.88 15.5-10.83"/><path fill="#619440" d="M255.29 283.15c10.45 5.29 7.43 27.97 7.43 27.97l-9.83 3.53s1.77-10.33-4.91-18.4c-6.68-8.06-11.09-4.97-11.09-4.97s7.94-13.42 18.4-8.13m50.14-10.71c17.56 0 27.38 10.58 27.38 10.58s-6.83-3.47-19.06-3.02c-12.23.45-11.34 10.83-21.17 20.54-9.83 9.7-18.02 11.08-18.02 11.08s13.02-18.82 22.56-31.62c1.68-2.26.04-7.56 8.31-7.56"/><path fill="#FAF9FC" d="M336.21 286.64c.08.18.1.29.1.29l-.1-.3"/><path fill="#A4B751" d="M291.2 283.78c3.27-4.41-.13-15.25 20.79-12.73 19.1 2.3 23.59 13.64 24.23 15.59-.49-1.26-3.54-6.38-21.97-10.55-21.16-4.79-9.95 6.18-19.53 13.1-9.57 6.94-17.38 19.91-17.38 19.91s-5.42 9.07-4.16 1.52c1.26-7.56 14.74-22.43 18.02-26.84m-64.9 9.45c9.58-19.53 21.16-18.26 28.86-13.99 10.92 6.06 9.13 31.37 9.13 31.37l-1.57.51s-.25-4.91-1.09-13.36c-.83-8.44-4.96-20.42-18.31-3.78-13.36 16.65-32.26 19.64-32.26 19.64s5.67-.86 15.25-20.4"/><path fill="#A4B751" d="M251.63 268.92c3-2.21 6.06-1.83 8.42-.85 2.98 1.24 6.33.83 9.08-.83 10.07-6.1 10.85 2.28 10.85 2.28l-.28 2.27-.01.07c-.73 4.2-3.08 12.95-13.19 16.83-1.8.7-17.64 7.56-17.64 7.56 2.15-8.7-3.4-22.8 2.77-27.34"/><path fill="#57575E" d="M278.12 361.27H261.3c-6.18 0-11.19-5.01-11.19-11.2v-41.1h39.19v41.1c0 6.19-5.01 11.2-11.2 11.2"/><mask id="q" fill="#fff"><use xlink:href="#p"/></mask><path fill="#7F786A" d="M246.3 314.65h46.83v-5.67H246.3z" mask="url(#q)"/></g></g></svg>