<svg xmlns="http://www.w3.org/2000/svg" xmlns:xlink="http://www.w3.org/1999/xlink" width="326" height="275" viewBox="0 0 326 275">
    <defs>
        <path id="prefix__a" d="M0 0.02L325.034 0.02 325.034 20 0 20z"/>
        <path id="prefix__c" d="M.303 16.633c0 8.771 7.111 15.881 15.882 15.881 8.772 0 15.882-7.11 15.882-15.881 0-8.77-7.11-15.881-15.882-15.881C7.414.752.303 7.863.303 16.633"/>
        <path id="prefix__e" d="M.303 16.633c0 8.771 7.111 15.881 15.882 15.881 8.772 0 15.882-7.11 15.882-15.881 0-8.77-7.11-15.881-15.882-15.881C7.414.752.303 7.863.303 16.633z"/>
        <path id="prefix__g" d="M.303 16.633c0 8.771 7.111 15.881 15.882 15.881 8.772 0 15.882-7.11 15.882-15.881 0-8.77-7.11-15.881-15.882-15.881C7.414.752.303 7.863.303 16.633"/>
        <path id="prefix__i" d="M.303 16.633c0 8.771 7.111 15.881 15.882 15.881 8.772 0 15.882-7.11 15.882-15.881 0-8.77-7.11-15.881-15.882-15.881C7.414.752.303 7.863.303 16.633"/>
        <path id="prefix__k" d="M.303 16.633c0 8.771 7.111 15.881 15.882 15.881 8.772 0 15.882-7.11 15.882-15.881 0-8.77-7.11-15.881-15.882-15.881C7.414.752.303 7.863.303 16.633"/>
        <path id="prefix__m" d="M.303 16.633c0 8.771 7.111 15.881 15.882 15.881 8.772 0 15.882-7.11 15.882-15.881 0-8.77-7.11-15.881-15.882-15.881C7.414.752.303 7.863.303 16.633z"/>
        <path id="prefix__o" d="M.303 16.633c0 8.771 7.111 15.881 15.882 15.881 8.772 0 15.882-7.11 15.882-15.881 0-8.77-7.11-15.881-15.882-15.881C7.414.752.303 7.863.303 16.633"/>
        <path id="prefix__q" d="M.303 16.633c0 8.771 7.111 15.881 15.882 15.881 8.772 0 15.882-7.11 15.882-15.881 0-8.77-7.11-15.881-15.882-15.881C7.414.752.303 7.863.303 16.633"/>
        <path id="prefix__s" d="M.303 16.633c0 8.771 7.111 15.881 15.882 15.881 8.772 0 15.882-7.11 15.882-15.881 0-8.77-7.11-15.881-15.882-15.881C7.414.752.303 7.863.303 16.633"/>
        <path id="prefix__u" d="M.303 16.633c0 8.771 7.111 15.881 15.882 15.881 8.772 0 15.882-7.11 15.882-15.881 0-8.77-7.11-15.881-15.882-15.881C7.414.752.303 7.863.303 16.633"/>
        <path id="prefix__w" d="M.303 16.633c0 8.771 7.111 15.881 15.882 15.881 8.772 0 15.882-7.11 15.882-15.881 0-8.77-7.11-15.881-15.882-15.881C7.414.752.303 7.863.303 16.633z"/>
        <path id="prefix__y" d="M.303 16.633c0 8.771 7.111 15.881 15.882 15.881 8.772 0 15.882-7.11 15.882-15.881 0-8.77-7.11-15.881-15.882-15.881C7.414.752.303 7.863.303 16.633"/>
        <path id="prefix__A" d="M.303 16.633c0 8.771 7.111 15.881 15.882 15.881 8.772 0 15.882-7.11 15.882-15.881 0-8.77-7.11-15.881-15.882-15.881C7.414.752.303 7.863.303 16.633"/>
        <path id="prefix__C" d="M.303 16.633c0 8.771 7.111 15.881 15.882 15.881 8.772 0 15.882-7.11 15.882-15.881 0-8.77-7.11-15.881-15.882-15.881C7.414.752.303 7.863.303 16.633"/>
        <path id="prefix__E" d="M.303 16.633c0 8.771 7.111 15.881 15.882 15.881 8.772 0 15.882-7.11 15.882-15.881 0-8.77-7.11-15.881-15.882-15.881C7.414.752.303 7.863.303 16.633"/>
        <path id="prefix__G" d="M0 273L325.034 273 325.034 0.978 0 0.978z"/>
    </defs>
    <g fill="none" fill-rule="evenodd">
        <path fill="#F7E8C8" d="M36.678 262.657L311.651 262.657 311.651 239.354 36.678 239.354zM256.723 234.028L291.344 234.028 291.344 226.705 256.723 226.705zM190.144 234.028L224.765 234.028 224.765 226.705 190.144 226.705zM123.564 234.028L158.186 234.028 158.186 226.705 123.564 226.705zM56.984 234.028L91.606 234.028 91.606 226.705 56.984 226.705zM256.723 104.198L291.344 104.198 291.344 96.875 256.723 96.875zM190.144 104.198L224.765 104.198 224.765 96.875 190.144 96.875zM123.564 104.198L158.186 104.198 158.186 96.875 123.564 96.875zM56.984 104.198L91.606 104.198 91.606 96.875 56.984 96.875zM260.052 221.378L288.015 221.378 288.015 109.524 260.052 109.524zM193.473 221.378L221.436 221.378 221.436 109.524 193.473 109.524zM126.894 221.378L154.857 221.378 154.857 109.524 126.894 109.524zM60.314 221.378L88.277 221.378 88.277 109.524 60.314 109.524zM174.331 1L36.678 71.115 36.678 91.549 311.651 91.549 311.651 70.946z"/>
        <g>
            <path fill="#619440" d="M97.873 170.292c-.61-2.7-2.185-11.698-4.783-12.654-2.833-1.043-6.337.296-7.753 2.963-.61 1.15-.88 2.512-2.052 3.285-.655.431-1.556.438-2.096-.13-.882-.929-.045-2.343.673-3.362 1.377-1.955 2.357-4.26 2.368-6.649.01-2.39-1.065-4.85-3.075-6.144-2.01-1.293-4.95-1.145-6.57.61-1.014 1.098-1.441 2.653-2.767 3.512-.688.445-1.591.536-2.257.057-1.343-.967-.436-3.045.475-4.419 1.287-1.942 2.418-4.054 2.756-6.359.339-2.305-.228-4.842-1.92-6.442-1.693-1.6-4.606-1.94-6.355-.4-.701.615-1.166 1.455-1.82 2.121-.784.8-2.051 1.352-3.011.503-.664-.589-.774-1.572-.445-2.396.457-1.142 1.379-1.83 2.294-2.534 1.443-1.108 2.439-2.736 2.65-4.542.636-5.398-5.337-7.477-8.704-5.107-.945.665-1.891 1.681-3.046 1.356-.911-.258-1.412-1.218-1.312-2.16.198-1.86 1.738-2.939 2.556-4.452 1.496-2.767-.184-6.72-3.214-7.565-2.318-.646-2.92 2.357-3.968 4.983-.242.604-1.13.476-1.197-.17-.271-2.573-1.122-5.784-1.773-7.556-1.196-3.25-6.06-6.819-8.383-2.14-.623 1.253-.15 4.48.653 5.374 1.135 1.263 3.836 5.604 3.836 5.604.254.497-.31 1.016-.78.714-1.064-.685-2.207-1.223-3.52-1.342-.601-.054-1.216.005-1.787.202-3.4 1.171-2.872 5.356-.7 7.362 1.805 1.667 4.332 2.238 6.723 2.808 1.238.295 2.578.67 3.194 1.875.349.683.266 1.552-.32 2.048-.675.573-1.446.253-2.19.16-2.433-.31-4.642 2.111-4.62 4.562.024 2.452 1.82 4.633 4.022 5.711 2.203 1.077 4.743 1.225 7.192 1.101 1.208-.062 2.509-.165 3.463.73.564.527.732 1.413.26 2.025-.673.868-1.927.478-2.977.42-2.915-.16-5.231 3.084-4.772 5.967.459 2.884 3.002 5.096 5.788 5.97 3.139.983 6.552.565 9.777.113.758-.107 1.537.303 1.772 1.033.325 1.01-.598 1.588-1.32 2.112-2.784 2.02-3.873 6.072-2.475 9.216 1.398 3.143 5.136 5.05 8.502 4.335 2.137-.455 4.087-1.83 6.404-1.134 1.147.346 1.973 1.443 1.753 2.622-.276 1.485-1.943 1.91-3.19 2.605-3.46 1.932-4.041 7.151-1.768 10.395 2.273 3.244 9.573 3.347 13.526 3.096 3.953-.25 12.204-.597 16.427-3.286 1.989-1.266.466-13.907-.144-16.607" transform="translate(0 29.022)"/>
            <path fill="#306B34" d="M35.144 104.5c-.623 1.254-.149 4.481.653 5.375 1.135 1.263 3.836 5.604 3.836 5.604.254.497-.31 1.016-.78.714-1.064-.685-2.207-1.223-3.52-1.342-.602-.054-1.217.005-1.788.202-3.399 1.171-2.872 5.356-.7 7.362 1.806 1.667 4.333 2.238 6.723 2.808 1.24.295 2.58.67 3.195 1.875.348.683.265 1.552-.32 2.048-.675.573-1.447.253-2.19.16-2.433-.31-4.643 2.111-4.62 4.562.023 2.452 1.82 4.633 4.022 5.711 2.202 1.077 4.743 1.225 7.192 1.101 1.208-.062 2.508-.165 3.463.73.563.527.731 1.413.26 2.025-.674.868-1.928.478-2.978.42-2.915-.16-5.23 3.084-4.77 5.967.458 2.884 3 5.096 5.786 5.97 3.14.983 6.553.565 9.777.113.76-.107 1.537.303 1.772 1.032.326 1.011-.597 1.59-1.318 2.113-2.785 2.02-3.874 6.072-2.476 9.216 1.398 3.143 5.135 5.05 8.501 4.335 2.138-.455 4.087-1.83 6.405-1.134 1.147.345 1.973 1.443 1.753 2.622-.276 1.485-1.943 1.91-3.19 2.605-3.459 1.932-7.009 9.324-4.736 12.568 2.273 3.244 12.54 1.174 16.494.923 3.688-.234 11.12-.55 15.527-2.777.317-.159.9-.509.9-.509s-21.832-18.97-40.715-44.12c-10.488-13.969-19.814-40.44-19.814-40.44s-.368.081-.795.383c-.734.518-1.426 1.532-1.549 1.778" transform="translate(0 29.022)"/>
            <path fill="#FFBF4D" d="M55.662 210.732c.041-1.214.567-2.353 1.084-3.453 0 0 1.275-4.597 2.27-5.483.407-.362 1.04-.392 1.502-.105.463.288.755.782.987 1.275 1.173 2.495 1.232 5.488.16 8.028-.37.875-.887 1.719-1.652 2.285-.766.565-1.813.81-2.694.45-1.125-.46-1.698-1.782-1.657-2.997m-7.67-13.856c-.912.325-1.907.328-2.87.228-1.018-.104-2.188-.453-2.54-1.415-.313-.853.217-1.832.978-2.33 0 0 1.927-.779 2.517-1.139.907-.552 2.101-.7 2.976-.095.875.602 1.286 1.804.963 2.817-.292.922-1.113 1.61-2.025 1.934M29.145 180.59c-.596-.25-1.129-.65-1.536-1.155l-.195-.282c-.195-.246-.29-.593-.167-.88.115-.27.4-.438.688-.487.29-.05.584 0 .872.06.462.097.926.224 1.33.47.402.248.741.631.841 1.094.101.462-.08.996-.492 1.228-.403.23-.913.132-1.34-.048m7.128.244c-1.018-.97-1.659-2.327-1.764-3.728-.035-.47-.01-.953.171-1.388.181-.434.538-.813.993-.933.567-.15 1.177.13 1.581.554 0 0 1.194 1.517 1.552 2.144.397.698.56 1.059.797 1.826.238.767.072 1.721-.599 2.163-.422.28-.975.308-1.459.162-.484-.145-.906-.451-1.272-.8m27.557 12.97l.04-.072c.286-.5.696-.928 1.182-1.24 1.671-1.071 8.977-.182 8.903 1.46-.04.875-.52 1.691-1.182 2.264-.662.575-1.49.923-2.339 1.145-1.715.45-3.558.386-5.246-.154-1.41-.453-2.08-2.112-1.358-3.403m-2.842-4.314c-.79.697-1.876 1.238-2.876.907-1.06-.35-1.614-1.59-1.542-2.706.072-1.114.624-2.135 1.163-3.114l1.178-2.226c.21-.54.424-1.089.783-1.542.36-.454.89-.808 1.468-.815 1.08-.012 1.806 1.119 2.076 2.163.673 2.605-.232 5.554-2.25 7.333m-6.263-8.038c.22.33.32.724.402 1.11.134.625.232 1.27.147 1.901-.084.633-.373 1.263-.888 1.64-.516.377-1.276.445-1.789.065-.503-.373-.663-1.056-.675-1.684-.017-.874.186-1.752.586-2.53l.243-.397c.197-.374.572-.681.995-.688.396-.005.76.255.98.583m-7.719-3.45c.536 1.387.784 2.886.724 4.374-.019.477-.073.965-.286 1.392-.213.428-.614.787-1.089.835-.549.058-1.07-.314-1.358-.785 0 0-.427-1.087-.605-1.433-.669-1.294-.97-2.81-.549-4.206.132-.44.331-.873.662-1.19.33-.32.811-.51 1.258-.405.638.148 1.007.805 1.243 1.417m-7.067 9.495c.452.495.692 1.206.536 1.856-.265 1.114-1.479 1.677-2.549 2.083-1.023.387-2.097.781-3.182.644-1.084-.138-2.162-1-2.138-2.095 0 0 .522-1.573 2.067-2.52 1.064-.653 2.29-1.125 3.515-.887.658.129 1.3.424 1.751.92m13.898 42.89c2.732-.19 7.682-1.745 10.12-4.458 2.39-2.66 5.603-7.841 6.362-11.335.72-3.311.434-5.877-1.598-8.43-.2-.252-.43-.482-.67-.697-.642-.57-1.992-1.88-1.567-2.45.85-1.138 2.832-.125 3.812.905s1.593 2.375 2.62 3.358c1.773 1.697 4.603 2.018 6.876 1.093 2.273-.927 3.993-2.936 4.945-5.198.953-2.26 1.203-4.763 1.151-7.216-.182-8.41-3.962-16.685-10.202-22.327.763 5.398-2.193 11.124-7.035 13.627-.619.32-1.297.598-1.99.537-.694-.063-1.393-.563-1.464-1.254-.099-.97.936-1.612 1.78-2.097 4.256-2.451 7.1-7.191 7.261-12.1l-2.32-2.382c-6.274-6.618-11.954-9.752-20.47-13.014 1.571 3.011 3.156 6.053 4.011 9.341.856 3.287.931 6.887-.468 9.982-.357.79-.835 1.569-1.572 2.026-.738.458-1.787.501-2.419-.093-.693-.653-.648-1.747-.552-2.695l.762-7.54c.326-3.228.611-6.684-.943-9.535-1.043-1.913-2.889-3.374-4.992-3.947-2.104-.572-4.435-.251-6.305.869 4.381 3.75 7.1 9.379 7.313 15.143.03.796.01 1.618-.303 2.35-.31.734-.973 1.365-1.767 1.431-.928.076-1.77-.64-2.16-1.484-.39-.845-.43-1.802-.498-2.73-.273-3.77-1.082-7.5-2.395-11.044-.73-1.97-1.773-4.043-3.698-4.882-1.433-.625-3.118-.427-4.558.184-1.439.609-2.683 1.593-3.908 2.564 2.64.66 5.004 2.358 6.474 4.647 1.47 2.29 2.03 5.145 1.533 7.82-.207 1.114-.759 2.356-1.864 2.603-1.463.328-2.575-1.255-3.233-2.602l-4.22-8.632c-.498-1.017-1.006-2.052-1.779-2.879-.773-.827-1.865-1.43-2.994-1.35-1.599.113-2.793 1.498-4.284 2.087-1.969.778-4.403-.124-5.495-1.913l-.67-1.65c-.983 1.525-.803 3.487-.729 5.301.248 6.084-1.14 12.227-3.984 17.613 1.644 3.257 5.381 4.962 8.998 5.442 3.617.48 7.288-.013 10.935.101.858.028 1.738.095 2.512.465.773.37 1.425 1.107 1.46 1.965.03.791-.47 1.528-1.113 1.992-.642.463-1.415.702-2.172.934-2.213.677-6.864.923-9.137.487-3.987-.766-9.81-5.05-10.374-6.935l1.487 12.944c.114.986.24 2.01.772 2.847.946 1.493 2.864 1.975 4.602 2.286 3.156.564 6.373.973 9.564.666 3.192-.307 6.382-1.38 8.8-3.486.898-.784 1.7-1.713 2.767-2.245s2.534-.534 3.284.394c.613.757.537 1.905.054 2.754-.484.847-1.296 1.452-2.115 1.98-7.23 4.665-16.999 5.078-24.598 1.041 2.95 1.928 3.695 6.154 6.624 8.112 1.653 1.105 3.751 1.3 5.735 1.194 7.074-.38 13.86-4.377 17.62-10.38.543-.867 1.12-1.851 2.241-1.935 1.116-.084 2.04.796 2.278 1.89.364 1.67-.615 3.173-1.667 4.418-5.632 6.661-14.973 9.96-23.539 8.31 1.827 1.92 3.67 3.855 5.846 5.37 2.176 1.512 4.736 2.593 7.386 2.59 3.461-.002 6.695-1.844 9.222-4.21 3.73-3.489 6.267-8.228 7.104-13.264.141-.853.245-1.742.686-2.484.441-.743 1.338-1.3 2.164-1.046.796.248 1.228 1.162 1.191 1.994-.035.833-.43 1.602-.815 2.341-2.548 4.879-2.329 10.2-5.638 14.597-3.66 4.866-10.373 5.377-10.373 5.377s4.8 6.748 16.295 5.947" transform="translate(0 29.022)"/>
            <path fill="#FFBF4D" d="M82.628 219.34c-.19-.243-.394-.477-.588-.718-.126.028-.263 0-.372-.128-.425-.504-.865-.992-1.3-1.484-.126.028-.26-.001-.365-.141-.44-.595-.9-1.174-1.36-1.755-4.847-5.166-10.299-9.703-16.292-13.522-.444-.282.024-.953.467-.67.178.113.352.232.528.346.055-.06.12-.11.198-.131-.307-.207-.61-.42-.92-.621-.442-.286.026-.957.467-.67 4.834 3.14 9.208 6.876 13.072 11.108 2.527 2.454 4.901 5.073 7.09 7.859.324.413-.298.943-.625.528" transform="translate(0 29.022)"/>
            <path fill="#306B34" d="M30.825 146.303c-.125.986.141 1.96.751 2.738 1.261 1.61 3.615 1.882 5.247.605.806-.625 1.297-1.507 1.423-2.497.126-.988-.14-1.96-.75-2.74-1.262-1.61-3.615-1.88-5.247-.603l-.045.035c-.766.617-1.255 1.489-1.379 2.462m6.923 4.525c-2.284 1.787-5.583 1.4-7.355-.861-.859-1.097-1.235-2.466-1.058-3.854.177-1.386.88-2.631 1.988-3.49 2.284-1.787 5.583-1.401 7.355.86.86 1.098 1.235 2.466 1.058 3.856-.173 1.36-.856 2.579-1.927 3.442l-.06.047" transform="translate(0 29.022)"/>
            <path fill="#FFA331" d="M49.458 99.912c-.801.014-1.547.332-2.102.895-.551.558-.846 1.292-.832 2.066.03 1.603 1.412 2.886 3.043 2.855.8-.014 1.548-.332 2.102-.894.55-.559.847-1.293.832-2.067-.03-1.585-1.364-2.856-2.987-2.856l-.056.001m-4.274 2.985c-.021-1.137.412-2.214 1.218-3.032.802-.813 1.879-1.272 3.033-1.294h.079c2.35 0 4.284 1.856 4.327 4.171.02 1.138-.411 2.215-1.217 3.032-.802.814-1.88 1.274-3.033 1.294l-.08.001c-2.35 0-4.283-1.855-4.327-4.172M56.991 113.412c.055 3.04 2.546 5.46 5.563 5.405 3.02-.055 5.42-2.564 5.366-5.605-.055-3.04-2.546-5.46-5.564-5.404-3.018.054-5.42 2.564-5.365 5.604" transform="translate(0 29.022)"/>
            <path fill="#FFBF4D" d="M23.737 140.605c.031 1.695 1.42 3.045 3.103 3.014 1.683-.031 3.022-1.43 2.992-3.126-.031-1.696-1.42-3.045-3.103-3.014-1.683.03-3.022 1.43-2.992 3.126" transform="translate(0 29.022)"/>
            <g transform="translate(0 29.022) translate(0 224)">
                <mask id="prefix__b" fill="#fff">
                    <use xlink:href="#prefix__a"/>
                </mask>
                <path fill="#F7E8C8" d="M325.034 10.01c0-5.518-72.762-9.99-162.517-9.99C72.761.02 0 4.492 0 10.01S72.761 20 162.517 20c89.755 0 162.517-4.472 162.517-9.99" mask="url(#prefix__b)"/>
            </g>
            <path fill="#FFF" d="M170.738 54.018H86.342c-7.76 0-14.05-6.29-14.05-14.05v-25.65c0-7.76 6.29-14.05 14.05-14.05h84.396c7.76 0 14.05 6.29 14.05 14.05v25.65c0 7.76-6.29 14.05-14.05 14.05" transform="translate(0 29.022)"/>
            <path fill="#FFBC3F" d="M154.225 34.195L155.879 37.63 159.657 38.141 156.901 40.776 157.582 44.527 154.225 42.719 150.868 44.527 151.549 40.776 148.793 38.141 152.571 37.63z" transform="translate(0 29.022)"/>
            <path fill="#FFF4DD" d="M115.067 24.633c0-8.771-7.11-15.881-15.882-15.881-8.77 0-15.882 7.11-15.882 15.88 0 8.772 7.111 15.883 15.882 15.883 8.772 0 15.882-7.111 15.882-15.882" transform="translate(0 29.022)"/>
        </g>
        <g transform="translate(83 37.022)">
            <mask id="prefix__d" fill="#fff">
                <use xlink:href="#prefix__c"/>
            </mask>
            <path fill="#FFDDCF" d="M32.811 34.813s-4.523-.784-9.788-6.422c-5.264-5.638-4.915-9.4-3.288-9.727 1.627-.328 2.957-1.58 12.73 11.89 0 0 5.024-4.896 12.463-8.906l.97.19S37.101 34.203 32.81 34.813" mask="url(#prefix__d)"/>
            <mask id="prefix__f" fill="#fff">
                <use xlink:href="#prefix__e"/>
            </mask>
            <path fill="#FB9C98" d="M45.309 22.161l.984-.539s.475-.134.906-.598c.083-.089.714-.764.68-1.745-.016-.442-.17-1.068-.44-1.109-.262-.04-.544.335-.726.584-.362.497-.497 1.011-.552 1.36-.542.402-.69 1.131-1.232 1.533l.38.514z" mask="url(#prefix__f)"/>
            <mask id="prefix__h" fill="#fff">
                <use xlink:href="#prefix__g"/>
            </mask>
            <path fill="#FB9C98" d="M45.53 20.906c-.124-1.38-.008-1.724.13-1.762.193-.052.646.416.583.965-.044.385-.33.705-.712.797" mask="url(#prefix__h)"/>
            <mask id="prefix__j" fill="#fff">
                <use xlink:href="#prefix__i"/>
            </mask>
            <path fill="#57575E" d="M19.658 8.729c-1.672-1.85-5.478-2.087-7.331-.503-1.444 1.234-.62 2.65-1.957 4.072-2.424 2.577-6.915-.178-9.045 1.99-1.711 1.743-1.208 5.955.857 8.077 3.348 3.438 11.034 1.625 14.939-2.552 2.786-2.981 4.882-8.487 2.537-11.084" mask="url(#prefix__j)"/>
            <mask id="prefix__l" fill="#fff">
                <use xlink:href="#prefix__k"/>
            </mask>
            <path fill="#FFDDCF" d="M13.757 19.977c-.234-.9-1.299-1.275-2.068-.751-.261.178-.52.365-.777.563-4.673 3.58-6.612 8.865-7.449 12.764-.388 1.806.454 3.654 2.081 4.529 1.011.544 2.064 1.084 3.156 1.618 3.017 1.47 6.988 3.2 9.672 4.179.318-.43-.697-.875-.378-1.305-1.602-1.392-3.463-2.885-5.403-4.327-1.95-1.453-3.844-2.74-5.646-3.88 1.612-2.373 2.833-4.134 3.513-5.11 0 0 3.878-4.836 3.403-7.791-.028-.17-.063-.334-.104-.49" mask="url(#prefix__l)"/>
            <g>
                <mask id="prefix__n" fill="#fff">
                    <use xlink:href="#prefix__m"/>
                </mask>
                <path fill="#FFC581" d="M18.687 19.379L14.787 19.358 15.162 13.762 18.28 13.762z" mask="url(#prefix__n)"/>
            </g>
            <g>
                <mask id="prefix__p" fill="#fff">
                    <use xlink:href="#prefix__o"/>
                </mask>
                <path fill="#FFC581" d="M18.674 9.995c.738.81.646 2.145.66 3.162.018 1.24-.639 2.917-2.064 3.087-1.418.17-3.083-1.668-3.124-3.543-.035-1.54 1.015-3.276 2.433-3.463.738-.097 1.572.182 2.095.757" mask="url(#prefix__p)"/>
            </g>
            <g>
                <mask id="prefix__r" fill="#fff">
                    <use xlink:href="#prefix__q"/>
                </mask>
                <path fill="#57575E" d="M19.335 9.597c-.286-.38-.823-.967-1.67-1.293-.107-.041-.216-.076-.326-.107l-.004-.012c-.007 0-.015.003-.021.005-1.337-.365-2.835-.01-2.931.492-.043.224.189.5.555.756-.258.229-.511.498-.746.815-1.024 1.383-1.076 2.825-1.073 3.3 1.966.08 3.689-.95 4.295-2.505l.004-.01c.194-.502.59-.902 1.1-1.074.369-.124.65-.272.817-.367" mask="url(#prefix__r)"/>
            </g>
            <g>
                <mask id="prefix__t" fill="#fff">
                    <use xlink:href="#prefix__s"/>
                </mask>
                <path fill="#FFDDCF" d="M24.849 30.142c.297-2.244.024-10.315-3.996-11.65-.253-.07-.51-.123-.768-.165h-.001c-.263-.03-.528-.057-.796-.086-.327-.02-.657-.018-.986.004-2.49.163-4.513.439-6.104.734-2.544.47-3.453 5.616-2.854 7.987l1.138 6.394c.333 1.339.2 1.879-.242 3.185-.206.607-.94 1.599-.94 1.599 8.243.47 16.507-1.236 16.507-1.236s-1.273-4.385-.958-6.766" mask="url(#prefix__t)"/>
            </g>
            <g>
                <mask id="prefix__v" fill="#fff">
                    <use xlink:href="#prefix__u"/>
                </mask>
                <path fill="#F9E0D2" d="M24.849 30.142c.297-2.244.024-10.315-3.996-11.65-.253-.07-.51-.123-.768-.165h-.001l-.131-.015.064.053c5.5 4.459 3.54 12.808 3.307 14.535-.22 1.626.266 4.105.323 4.388 1.356-.214 2.16-.38 2.16-.38s-1.273-4.385-.958-6.766" mask="url(#prefix__v)"/>
            </g>
            <g>
                <mask id="prefix__x" fill="#fff">
                    <use xlink:href="#prefix__w"/>
                </mask>
                <path fill="#F26D6D" d="M32.297 32.032l-.05-.856c-.013-.218-.026-.436-.05-.654l.336-.036c.024.223.038.446.05.67l.05.856-.336.02z" mask="url(#prefix__x)"/>
            </g>
            <g>
                <mask id="prefix__z" fill="#fff">
                    <use xlink:href="#prefix__y"/>
                </mask>
                <path fill="#F26D6D" d="M6.342 34.124l-.312-.126c.072-.18.16-.367.31-.51.116-.114.242-.153.354-.188.05-.016.102-.03.153-.057l.151.301c-.068.034-.136.057-.203.078-.091.028-.161.051-.222.108-.109.105-.176.258-.231.394" mask="url(#prefix__z)"/>
            </g>
            <g>
                <mask id="prefix__B" fill="#fff">
                    <use xlink:href="#prefix__A"/>
                </mask>
                <path fill="#FFC581" d="M15.099 13.331c0-.413-.334-.748-.747-.748s-.748.335-.748.748c0 .412.335.747.748.747s.747-.335.747-.747" mask="url(#prefix__B)"/>
            </g>
            <g>
                <mask id="prefix__D" fill="#fff">
                    <use xlink:href="#prefix__C"/>
                </mask>
                <path fill="#FFC581" d="M15.504 21.322c1.833.41 3.933-.854 4.58-2.996-.585-.095-1.185-.12-1.782-.082-2.207.144-4.048.38-5.547.635.426 1.046 1.445 2.151 2.749 2.443" mask="url(#prefix__D)"/>
            </g>
            <g>
                <mask id="prefix__F" fill="#fff">
                    <use xlink:href="#prefix__E"/>
                </mask>
                <path fill="#653087" d="M46.158 21.085c0-.094-.076-.17-.17-.17-.095 0-.171.076-.171.17 0 .095.076.171.17.171.095 0 .17-.076.17-.17" mask="url(#prefix__F)"/>
            </g>
        </g>
        <g transform="translate(0 .022)">
            <path fill="#FFBC3F" d="M150.408 45.604h-20.092c-.163 0-.295-.208-.295-.466 0-.257.132-.466.295-.466h20.092c.163 0 .295.209.295.466 0 .258-.132.466-.295.466M150.408 51.04h-27.072c-.163 0-.296-.21-.296-.467 0-.258.133-.467.296-.467h27.072c.163 0 .295.21.295.467s-.132.466-.295.466M128.472 63.195L130.126 66.63 133.904 67.141 131.148 69.776 131.829 73.527 128.472 71.719 125.115 73.527 125.796 69.776 123.04 67.141 126.818 66.63zM141.348 63.195L143.002 66.63 146.781 67.141 144.024 69.776 144.705 73.527 141.348 71.719 137.991 73.527 138.672 69.776 135.916 67.141 139.695 66.63zM167.101 63.195L168.755 66.63 172.533 67.141 169.777 69.776 170.458 73.527 167.101 71.719 163.744 73.527 164.425 69.776 161.669 67.141 165.447 66.63z"/>
            <mask id="prefix__H" fill="#fff">
                <use xlink:href="#prefix__G"/>
            </mask>
            <path fill="#FFBC3F" d="M159.515 53.868L171.597 53.868 171.597 41.787 159.515 41.787z" mask="url(#prefix__H)"/>
            <path fill="#FFF" d="M164.081 51.036l-2.525-2.524c-.216-.216-.216-.566 0-.782.215-.215.565-.215.781 0l1.744 1.744 4.695-4.694c.215-.216.565-.216.781 0 .215.216.215.566 0 .781l-5.476 5.475z" mask="url(#prefix__H)"/>
            <path fill="#57575E" d="M155.793 14.848c-6.543-.666-12.409 4.116-13.074 10.659-.666 6.544 4.116 12.408 10.66 13.074 6.542.666 12.407-4.116 13.073-10.66.666-6.542-4.116-12.407-10.659-13.073m-2.52 24.774c-7.118-.723-12.319-7.103-11.595-14.22.724-7.118 7.103-12.32 14.221-11.595 7.117.724 12.318 7.103 11.594 14.22-.724 7.119-7.103 12.32-14.22 11.595" mask="url(#prefix__H)"/>
            <path fill="#57575E" d="M162.359 35.78l22.825 28.227c.007.126.042.963-.616 1.603-.57.554-1.265.577-1.417.578l-21.897-29.45c.412-.226.693-.733 1.105-.959" mask="url(#prefix__H)"/>
            <path fill="#A29C8F" d="M152.381 18.83c-1.292-.84-4.918 1.382-6.124 4.505-.532 1.384-.882 3.7.102 4.352 1.221.81 4.353-1.04 5.718-3.644.942-1.794 1.352-4.532.304-5.213" mask="url(#prefix__H)"/>
            <path fill="#F6A19E" d="M244.174 45.404l.082-7.776-7.726-.376-.096 8.686c-.172 1.572-2.09 2.817-3.593 3.314l-2.714.896c.285 2.403 2.74 7.878 5.09 8.233 4.452.672 9.968-6.849 12.48-9.17-1.657-.463-3.416-2.089-3.523-3.807" mask="url(#prefix__H)"/>
            <path fill="#F9E0D2" d="M232.842 49.252l-2.714.896c.014.121.035.25.06.384h16.217c.486-.524.923-.98 1.292-1.322-1.246-.348-2.549-1.353-3.164-2.56h-8.304c-.561 1.231-2.12 2.183-3.387 2.602" mask="url(#prefix__H)"/>
            <path fill="#FF9549" d="M243.144 47.293h-6.652c-.318 0-.576-.258-.576-.575 0-.318.258-.575.576-.575h6.652c.317 0 .575.257.575.575 0 .317-.258.575-.575.575" mask="url(#prefix__H)"/>
            <path fill="#FFC581" d="M171.913 51.888l-.627-.631c-.232-.233-.465-.468-.724-.671-1.177.098-2.435-.443-3.257-1.29-.336-.345-.607-.747-.875-1.146-.124-.185-.25-.372-.324-.582-.074-.211-.09-.45 0-.653.123-.275.411-.427.651-.61.24-.183.461-.477.365-.762-.063-.184-.238-.301-.392-.421-.407-.316-1.135-1.108-1.602-1.832-.205-.317.155-.696.487-.513 1.725.948 3.823 2.475 5.068 3.625-.045-.196-.135-.486-.322-.798-.208-.345-.464-.595-.58-.707-.426-.41-.64-.447-.659-.657-.018-.225.204-.485.453-.57.427-.142.895.249 1.52.775.408.342.805.68 1.134 1.275.288.518.476.856.427 1.293-.025.222-.102.418-.015.684.064.192.22.337.37.474l1.173 1.072c-.746.876-1.524 1.768-2.27 2.645M261.97 256.559s.114 1.809-.36 3.068c-.472 1.26 3.348 1.484 3.404 1.447.056-.037 1.803-1.447 1.803-1.447s-.527-1.583-.451-3.296M218.552 261.048L224.388 261.048 224.388 259.627 218.552 259.627zM289.623 124.265l.893 2.82s1.08.86 1.69 2.519c.115.317 1.01 2.736-.136 5.225-.516 1.122-1.589 2.567-2.329 2.38-.802-.201-1.257-2.333-1.237-2.285l-2.838-8.964 3.957-1.695z" mask="url(#prefix__H)"/>
            <path fill="#FFC581" d="M286.53 128.663c-1.812 3.42-1.886 4.43-1.568 4.678.438.343 2.11-.376 2.54-1.858.301-1.037-.086-2.169-.972-2.82" mask="url(#prefix__H)"/>
            <path fill="#FFA331" d="M255.183 49.825s23.725 20.128 35.18 74.971l-5.087 1.342s-13.954-29.379-15.82-35.199l-21.758-36.07 7.485-5.044z" mask="url(#prefix__H)"/>
            <path fill="#A29C8F" d="M259.06 100.991s13.38 10.522 13.317 38.778c-.028 12.656-6.011 116.562-6.011 116.562l-4.395.227c-7.793-39.56-13.433-78.439-19.87-118.674-.922-.132-5.642-.476-6.46-1.438-1.794-2.109-.044-5.784-.081-7.4-.152-6.473-.193-21.27.227-26.725 5.178.43 18.41-.855 23.274-1.33" mask="url(#prefix__H)"/>
            <path fill="#A29C8F" d="M219.569 102.848s-6.96 13.383-6.192 37.82c.332 10.609 6.33 116.292 6.33 116.292l2.29.419c.662-.16 1.834.187 1.99-.477 9.47-40.53 15.064-78.127 18.114-119.018-.697-8.614-2.874-26.863-3.57-35.476l-18.963.44z" mask="url(#prefix__H)"/>
            <path fill="#7F786A" d="M259.226 135.454c-2.322 21.227 3.46 87.271 5.053 120.985l2.087-.108s5.982-103.906 6.011-116.562c.064-28.255-13.317-38.778-13.317-38.778-1.956.191-5.267.513-8.86.802 4.48 8.35 10.72 18.172 9.026 33.661" mask="url(#prefix__H)"/>
            <path fill="#FFBF4D" d="M219.569 102.848c-.798-10.247-.838-22.243.832-35.494.544-4.331 1.23-8.456 2.011-12.363.304-1.52 1.404-2.755 2.875-3.242l4.362-1.441c6.554-2.168 13.607-2.335 20.256-.482 2.246.625 3.953 2.445 4.44 4.724 1.398 6.55 2.624 13.802 3.477 21.68.976 9.017 1.298 17.33 1.238 24.762-4.72 1.294-10.522 2.475-17.208 2.97-8.844.656-16.458-.093-22.284-1.114" mask="url(#prefix__H)"/>
            <path fill="#FFA331" d="M254.341 54.534c-.486-2.273-2.196-4.085-4.436-4.709l1.32 3.346c-.153 1.132-.302 2.263-.453 3.395-1.04.576-2.641 1.65-3.792 3.494-3.554 5.702.612 12.976 2.773 22.877.975 4.464 1.929 11.255 1.098 20.096l3.923-.978 4.286-1.064c.06-7.432-.262-15.744-1.238-24.76-.853-7.885-2.082-15.142-3.48-21.697" mask="url(#prefix__H)"/>
            <path fill="#F6A19E" d="M236.508 29.295c-.278.201-2.39 1.777-2.921 4.503-.705 3.619 1.53 8.493 5.188 8.903 3.5.393 6.746-3.476 7.025-7.156.248-3.262-1.782-7.058-4.766-7.615-2.097-.392-3.952.95-4.526 1.365" mask="url(#prefix__H)"/>
            <path fill="#F6A19E" d="M247.691 34.889c.08-.937-.615-1.763-1.552-1.843-.937-.08-1.76.615-1.842 1.552-.08.937.615 1.763 1.552 1.843.937.08 1.762-.615 1.842-1.552" mask="url(#prefix__H)"/>
            <path fill="#57575E" d="M274.724 85.27c4.705-5.431 8.414-14.374 4.832-20.034-3.443-5.441-10.644-3.14-13.877-8.571-3.274-5.5 2.67-10.272 1.794-17.797-1.413-12.134-19.618-23.34-31.11-18.174-6.131 2.756-10.923 10.428-10.037 16.394 1.06 7.146 9.543 7.003 11.073 14.732 1.472 7.434-5.667 11.152-3.39 16.627 2.737 6.577 14.05 3.636 17.683 10.647 3.282 6.333-3.774 12.937-.515 15.698 3.602 3.053 16.504-1.392 23.547-9.522" mask="url(#prefix__H)"/>
            <path fill="#FFBF4D" d="M231.732 62.833s-15.996 9.606-27.066 12.3c-10.574 2.572-33.002-23.33-33.002-23.33l2.446-2.836s14.632 6.744 26.818 16.323c0 0 13.013-5.585 24.102-13.145l6.702 10.688z" mask="url(#prefix__H)"/>
            <path fill="#7F786A" d="M224.364 259.627s2.532 2.437 0 4.97h-15.067c-.072-.3-.391-1.763.483-3.209.704-1.166 1.764-1.626 2.113-1.76h7.216s2.61 1.528 5.255 0" mask="url(#prefix__H)"/>
            <path fill="#57575E" d="M207.145 265.392L224.81 265.392 224.81 264.596 207.145 264.596z" mask="url(#prefix__H)"/>
            <path fill="#57575E" d="M211.893 259.627c-2.36 0-4.273 1.913-4.273 4.273v.696h2.308c-.048-.519-.054-1.323.222-2.243.433-1.439 1.309-2.335 1.743-2.726" mask="url(#prefix__H)"/>
            <path fill="#FFC581" d="M219.707 256.96L219.875 259.849 223.77 259.774 224.012 256.792z" mask="url(#prefix__H)"/>
            <path fill="#57575E" d="M260.495 265.339L267.8 265.339 267.8 264.55 260.495 264.55z" mask="url(#prefix__H)"/>
            <path fill="#7F786A" d="M267.79 262.371c-.128-1.31-.658-2.264-.973-2.744 0 0-2.587 1.515-5.206 0-.304.385-1.01 1.388-1.1 2.838-.054.916.159 1.651.324 2.085h6.77c.134-.493.275-1.256.185-2.179" mask="url(#prefix__H)"/>
            <path fill="#FFA331" d="M199.109 69.108c-.418-1.552-.177-3.227.664-4.597l1.997 1.226c-.497.81-.646 1.843-.398 2.76l-2.263.61z" mask="url(#prefix__H)"/>
            <path fill="#57575E" d="M216.04 261.593L214.058 260.345 214.806 259.159 216.786 260.411z" mask="url(#prefix__H)"/>
            <path fill="#57575E" d="M217.649 261.676L215.552 260.629 216.184 259.366 218.279 260.417z" mask="url(#prefix__H)"/>
            <path fill="#7F786A" d="M218.832 257.151L224.619 257.151 224.619 254.072 218.832 254.072zM261.255 257.151L267.042 257.151 267.042 254.072 261.255 254.072zM222.158 122.769L235.067 122.769 235.067 121.367 222.158 121.367zM236.138 141.185l-.422-3.842c2.322-.255 4.517-1.078 6.84-1.95l1.028-.386.858.687c.969.775 2.537 1.07 4.053 1.354l.535.102-.731 3.795-.517-.098c-1.554-.292-3.278-.615-4.8-1.487-2.156.799-4.394 1.555-6.844 1.825" mask="url(#prefix__H)"/>
            <path fill="#7F786A" d="M237.967 138.982s-.535 17.452.19 38.897c0 0 3.585-31.118 4.331-41.127l-4.521 2.23z" mask="url(#prefix__H)"/>
            <path fill="#FFAC34" d="M70.222 39.336c-1.39-9.979-10.607-16.94-20.587-15.55-9.979 1.39-16.942 10.607-15.552 20.586 1.391 9.98 10.608 16.942 20.588 15.552 9.98-1.39 16.942-10.609 15.551-20.588" mask="url(#prefix__H)"/>
            <path fill="#FFBC3F" d="M66.16 39.903c-1.077-7.736-8.222-13.134-15.958-12.056-7.737 1.076-13.134 8.222-12.056 15.959 1.078 7.736 8.223 13.134 15.959 12.056 7.736-1.079 13.134-8.224 12.056-15.96" mask="url(#prefix__H)"/>
            <path fill="#FFA331" d="M53.154 35.748c.368-.192.475-.716.238-1.17-.236-.454-.727-.668-1.094-.476l-4 2.082-2.666 1.387c-.367.192-.474.715-.237 1.17.235.453.726.667 1.093.476l2.666-1.388c.87-.452 1.96-.144 2.734.67l-4.542 2.363c-.368.192-.475.715-.238 1.17.236.454.727.667 1.094.476l4.543-2.364c.222 1.1-.152 2.17-1.02 2.622l-2.666 1.387c-.087.045-.162.112-.222.196-.12.168-.168.395-.13.633.036.237.155.463.328.63.086.083.182.15.285.192l8.755 3.806c.214.093.427.085.597-.004.172-.088.3-.258.348-.486.092-.456-.178-.977-.606-1.163l-6.89-2.995 1.056-.55c1.611-.839 2.22-2.954 1.553-4.99l.734-.383c.369-.19.476-.716.239-1.17-.236-.454-.727-.667-1.096-.475l-.733.381c-.42-.56-.928-.998-1.474-1.325l1.352-.702z" mask="url(#prefix__H)"/>
            <path fill="#FFAC34" d="M68.487 92.238c1.998-3.407.855-7.788-2.552-9.786-3.407-1.997-7.788-.854-9.785 2.554-1.997 3.406-.855 7.788 2.553 9.785 3.406 1.997 7.787.853 9.784-2.553" mask="url(#prefix__H)"/>
            <path fill="#FFBC3F" d="M67.1 91.425c1.549-2.641.663-6.037-1.978-7.586-2.641-1.548-6.038-.662-7.586 1.98-1.548 2.64-.662 6.037 1.979 7.585 2.64 1.548 6.038.663 7.586-1.98" mask="url(#prefix__H)"/>
            <path fill="#FFA331" d="M64.11 86.987c.16.03.32-.105.357-.303.038-.196-.061-.382-.221-.412l-1.735-.33-1.157-.223c-.16-.03-.32.105-.358.302-.037.197.061.382.221.413l1.157.221c.377.072.638.432.678.87l-1.971-.377c-.16-.03-.32.105-.358.302-.037.197.061.382.221.412l1.972.377c-.199.393-.575.631-.951.56l-1.157-.222c-.038-.008-.077-.006-.116.006-.078.022-.147.081-.194.163-.046.082-.065.18-.052.273.006.047.02.09.041.128l1.768 3.3c.043.08.111.13.185.143.074.014.154-.007.225-.065.139-.118.182-.345.096-.505l-1.391-2.595.458.086c.699.134 1.401-.369 1.69-1.157l.319.061c.16.031.32-.105.357-.302.038-.197-.061-.382-.221-.412l-.318-.06c.007-.275-.043-.534-.131-.766l.586.112z" mask="url(#prefix__H)"/>
            <path fill="#FFAC34" d="M46.533 80.637c.93-5.887-3.09-11.412-8.977-12.341-5.886-.93-11.41 3.09-12.34 8.977-.929 5.886 3.09 11.41 8.976 12.34 5.887.929 11.412-3.09 12.341-8.976" mask="url(#prefix__H)"/>
            <path fill="#FFBC3F" d="M44.137 80.259c.72-4.563-2.395-8.847-6.958-9.567-4.564-.72-8.847 2.395-9.567 6.959-.72 4.563 2.395 8.846 6.96 9.566 4.562.72 8.845-2.396 9.565-6.958" mask="url(#prefix__H)"/>
            <path fill="#FFA331" d="M37.491 75.671c.241-.045.392-.323.336-.621-.056-.298-.296-.503-.538-.457l-2.62.489-1.748.327c-.242.045-.392.324-.336.621.055.298.297.503.537.458l1.748-.327c.57-.106 1.134.256 1.432.849l-2.978.557c-.24.044-.392.323-.336.621.056.297.297.503.538.457l2.978-.557c-.064.66-.46 1.202-1.029 1.309l-1.747.327c-.057.01-.11.035-.159.072-.097.074-.163.195-.182.336-.02.141.007.289.077.412.034.064.077.116.128.158l4.3 3.66c.105.089.227.122.34.101.111-.021.213-.095.28-.216.13-.242.066-.584-.144-.763l-3.384-2.879.693-.129c1.055-.199 1.763-1.29 1.736-2.558l.481-.09c.242-.045.392-.323.336-.621-.055-.298-.296-.503-.537-.458l-.482.091c-.14-.39-.353-.725-.605-1.004l.885-.165z" mask="url(#prefix__H)"/>
        </g>
    </g>
</svg>
