<svg id="Layer_1" data-name="Layer 1" xmlns="http://www.w3.org/2000/svg" viewBox="0 0 383.38 393.38"><defs><style>.cls-1{fill:#f5f5f5;}.cls-2{fill:#ebebeb;}.cls-3{fill:#e0e0e0;}.cls-4{fill:#fff;}.cls-5{opacity:0.5;}.cls-6{fill:#263238;}.cls-7{fill:#a29c8f;}.cls-8{opacity:0.3;}.cls-9{fill:#febe4e;}.cls-10{opacity:0.1;}.cls-11{fill:#f3725f;}.cls-12{opacity:0.2;}.cls-13{fill:none;stroke:#f9f9f9;stroke-miterlimit:10;stroke-width:0.85px;}.cls-14{fill:#7f786a;}.cls-15{fill:#fafbfb;}.cls-16{fill:#fbbf9e;}.cls-17{fill:#f7996e;}.cls-18{fill:#455b64;}.cls-19{opacity:0.6;}</style></defs><path class="cls-1" d="M144.69,39.49A29,29,0,1,1,111.74,15,29.23,29.23,0,0,1,144.69,39.49Z" transform="translate(-8.62 -3.39)"/><path class="cls-2" d="M137.87,40.53a22.08,22.08,0,1,1-25.11-18.7A22.26,22.26,0,0,1,137.87,40.53Z" transform="translate(-8.62 -3.39)"/><path class="cls-3" d="M137.77,39.84a13,13,0,0,1-1-2.57,24,24,0,0,0-3.52-6.38,22.46,22.46,0,0,0-3.49-3.57,21.73,21.73,0,0,0-4.84-3,19,19,0,0,0-2.88-1.06,20,20,0,0,0-3.13-.66,22.51,22.51,0,0,0-3.3-.18,24.51,24.51,0,0,0-3.39.35,23.91,23.91,0,0,0-3.3.89,21.66,21.66,0,0,0-3,1.35,20.05,20.05,0,0,0-2.7,1.73,20.69,20.69,0,0,0-2.32,2,22.2,22.2,0,0,0-3.48,4.53,22.84,22.84,0,0,0-2,4.59,23.88,23.88,0,0,0-1.06,7.23,13.49,13.49,0,0,1,0,2.75,6.41,6.41,0,0,1-.65-2.71,21,21,0,0,1,.57-7.61,22.47,22.47,0,0,1,5.53-9.89,21.79,21.79,0,0,1,2.45-2.22,21.52,21.52,0,0,1,2.89-1.9,22.27,22.27,0,0,1,3.25-1.48,24.43,24.43,0,0,1,3.55-1,25.51,25.51,0,0,1,3.66-.37,23.24,23.24,0,0,1,3.56.22,22.64,22.64,0,0,1,3.37.75,21.28,21.28,0,0,1,3.07,1.2,22,22,0,0,1,5.09,3.33,22.46,22.46,0,0,1,3.55,3.94,20.67,20.67,0,0,1,3.19,6.9A6.79,6.79,0,0,1,137.77,39.84Z" transform="translate(-8.62 -3.39)"/><path class="cls-1" d="M318.36,198.44a17.78,17.78,0,1,1-20.22-15.06A17.93,17.93,0,0,1,318.36,198.44Z" transform="translate(-8.62 -3.39)"/><path class="cls-2" d="M314.18,199.08a13.55,13.55,0,1,1-15.42-11.48A13.68,13.68,0,0,1,314.18,199.08Z" transform="translate(-8.62 -3.39)"/><path class="cls-3" d="M314.11,198.65a7.88,7.88,0,0,1-.6-1.57,14.48,14.48,0,0,0-2.16-3.92,14.16,14.16,0,0,0-2.14-2.19,13.3,13.3,0,0,0-4.74-2.49,13.34,13.34,0,0,0-1.92-.4,13.27,13.27,0,0,0-6.13.65,13,13,0,0,0-1.86.83,12.57,12.57,0,0,0-1.65,1.06,14.46,14.46,0,0,0-1.43,1.24,14.21,14.21,0,0,0-2.13,2.78,14.12,14.12,0,0,0-1.89,7.26,8.31,8.31,0,0,1,0,1.69,4,4,0,0,1-.4-1.67,12.73,12.73,0,0,1,.35-4.66,13.53,13.53,0,0,1,1.19-3,13.87,13.87,0,0,1,2.2-3,14.23,14.23,0,0,1,1.51-1.37,12.86,12.86,0,0,1,1.77-1.16,13.43,13.43,0,0,1,2-.91,13.83,13.83,0,0,1,6.61-.69,13.71,13.71,0,0,1,2.06.46,13,13,0,0,1,1.89.74,14,14,0,0,1,3.12,2,14.19,14.19,0,0,1,2.18,2.42,12.75,12.75,0,0,1,2,4.24A4,4,0,0,1,314.11,198.65Z" transform="translate(-8.62 -3.39)"/><path class="cls-1" d="M67.22,216a24.13,24.13,0,1,1-27.44-20.43A24.34,24.34,0,0,1,67.22,216Z" transform="translate(-8.62 -3.39)"/><path class="cls-2" d="M61.55,216.86a18.39,18.39,0,1,1-20.91-15.57A18.55,18.55,0,0,1,61.55,216.86Z" transform="translate(-8.62 -3.39)"/><path class="cls-3" d="M61.46,216.28a10.7,10.7,0,0,1-.81-2.14,19.82,19.82,0,0,0-2.94-5.31,18.77,18.77,0,0,0-2.9-3,18.53,18.53,0,0,0-4-2.49,16.7,16.7,0,0,0-2.4-.89,17,17,0,0,0-2.61-.54,17.77,17.77,0,0,0-2.75-.15,19.55,19.55,0,0,0-2.82.29,18.13,18.13,0,0,0-5.26,1.86,17.3,17.3,0,0,0-2.25,1.45,17.48,17.48,0,0,0-1.93,1.68,18.55,18.55,0,0,0-2.9,3.77,18.9,18.9,0,0,0-1.67,3.82,19.82,19.82,0,0,0-.88,6,11.73,11.73,0,0,1,0,2.29,5.44,5.44,0,0,1-.54-2.25,17.4,17.4,0,0,1,.47-6.33,18.91,18.91,0,0,1,1.61-4.12,19.48,19.48,0,0,1,3-4.12,18.56,18.56,0,0,1,4.45-3.43A18,18,0,0,1,37,201.49a20.48,20.48,0,0,1,3-.81,19.81,19.81,0,0,1,3-.3,18.58,18.58,0,0,1,5.77.8,17.45,17.45,0,0,1,2.56,1A18.71,18.71,0,0,1,55.56,205a19.21,19.21,0,0,1,2.95,3.28A17.18,17.18,0,0,1,61.17,214,5.68,5.68,0,0,1,61.46,216.28Z" transform="translate(-8.62 -3.39)"/><path class="cls-3" d="M351.52,156,204.25,109.61a7.27,7.27,0,0,1-4.72-9.09l28.32-92a7.16,7.16,0,0,1,9-4.78L384.11,50.1a7.26,7.26,0,0,1,4.71,9.08l-28.31,92A7.17,7.17,0,0,1,351.52,156Z" transform="translate(-8.62 -3.39)"/><path class="cls-4" d="M223.39,73.8l-2.78,9-.92-.29,2.53-8.21-2.11-.66.26-.83Z" transform="translate(-8.62 -3.39)"/><path class="cls-4" d="M230.05,84.91l-.25.82-6.27-2,.2-.66,4.85-2.51c1.32-.69,1.7-1.23,1.89-1.85.32-1-.21-1.92-1.57-2.35a3.18,3.18,0,0,0-2.75.23l-.48-.77a4.15,4.15,0,0,1,3.56-.29c1.82.57,2.68,1.86,2.22,3.37-.27.87-.78,1.56-2.34,2.37l-4,2.06Z" transform="translate(-8.62 -3.39)"/><path class="cls-4" d="M239.94,86.32l-1.79-.56-.73,2.37-.92-.29.73-2.37-5-1.59.21-.67,6.58-4.5,1,.32-6.37,4.4,3.88,1.22.65-2.09.89.28-.65,2.09,1.79.56Z" transform="translate(-8.62 -3.39)"/><path class="cls-4" d="M253.63,90.63l-1.78-.56-.74,2.38-.91-.29.73-2.38-5.05-1.59.21-.67,6.58-4.5,1,.32-6.36,4.4L251.21,89l.64-2.09.89.28-.64,2.09,1.79.57Z" transform="translate(-8.62 -3.39)"/><path class="cls-4" d="M261.53,92.81c-.47,1.53-1.9,2.4-4.08,1.71a4.81,4.81,0,0,1-2.85-2.17l.67-.59a4.08,4.08,0,0,0,2.42,1.91c1.52.48,2.56,0,2.9-1.12s-.14-2.11-2.41-2.82l-1.9-.6,1.85-4.39L263,86.28l-.25.83-4.09-1.29-1.19,2.78,1.15.36C261.33,89.81,262,91.21,261.53,92.81Z" transform="translate(-8.62 -3.39)"/><path class="cls-4" d="M270.38,95.55a2.91,2.91,0,0,1-3.91,1.81c-2.37-.74-3.15-2.81-2.27-5.67.94-3.07,3.09-4.15,5.52-3.39a4.46,4.46,0,0,1,2,1.16l-.6.63a3.33,3.33,0,0,0-1.61-1c-1.92-.6-3.55.26-4.3,2.71a7.4,7.4,0,0,0-.19.75,3,3,0,0,1,3.21-.69A2.88,2.88,0,0,1,270.38,95.55Zm-.92-.26a2.08,2.08,0,0,0-1.65-2.66,2.15,2.15,0,0,0-2.9,1.25,2.2,2.2,0,0,0,1.76,2.69A2.05,2.05,0,0,0,269.46,95.29Z" transform="translate(-8.62 -3.39)"/><path class="cls-4" d="M282.57,99.5c-.47,1.51-1.91,2.33-4.06,1.65A4.8,4.8,0,0,1,275.65,99l.67-.6a4.07,4.07,0,0,0,2.45,1.92c1.48.47,2.51,0,2.85-1.09s-.2-2-1.86-2.56l-.63-.2.21-.68,3.44-2.36L278.21,92l.25-.83L284.21,93l-.2.66L280.49,96C282.37,96.74,283,98.06,282.57,99.5Z" transform="translate(-8.62 -3.39)"/><path class="cls-4" d="M291.56,102.22a2.91,2.91,0,0,1-3.9,1.82c-2.38-.75-3.16-2.82-2.28-5.68.95-3.07,3.1-4.15,5.53-3.39a4.36,4.36,0,0,1,2,1.16l-.6.64a3.23,3.23,0,0,0-1.6-1c-1.93-.6-3.55.26-4.31,2.71a7.58,7.58,0,0,0-.18.75,3,3,0,0,1,3.2-.69A2.87,2.87,0,0,1,291.56,102.22Zm-.91-.26A2.09,2.09,0,0,0,289,99.3a2.15,2.15,0,0,0-2.9,1.26c-.31,1,.22,2.19,1.76,2.68A2.05,2.05,0,0,0,290.65,102Z" transform="translate(-8.62 -3.39)"/><path class="cls-4" d="M301.73,98.47l-.2.66-6.32,7.2-1-.31L300.42,99l-4.6-1.45-.52,1.7-.9-.29.77-2.52Z" transform="translate(-8.62 -3.39)"/><path class="cls-4" d="M314.51,102.49l-.2.66-6.32,7.2-1-.31,6.2-7.06-4.59-1.44-.52,1.69-.91-.29.78-2.52Z" transform="translate(-8.62 -3.39)"/><path class="cls-4" d="M321.29,111.78c-.49,1.6-2.13,2.17-4.27,1.5s-3.14-2.08-2.64-3.68a2.34,2.34,0,0,1,2.4-1.68,2.15,2.15,0,0,1-.79-2.43c.45-1.47,2-2,3.86-1.4s2.87,1.91,2.42,3.38a2.12,2.12,0,0,1-2,1.54A2.39,2.39,0,0,1,321.29,111.78Zm-.93-.31c.34-1.11-.39-2.1-2-2.6s-2.73-.1-3.07,1,.37,2.12,2,2.61S320,112.59,320.36,111.47Zm-1.75-3.34c1.39.44,2.42.07,2.72-.91s-.38-1.92-1.72-2.34-2.4-.08-2.71.93S317.22,107.69,318.61,108.13Z" transform="translate(-8.62 -3.39)"/><path class="cls-4" d="M330.61,112.43c-.94,3.08-3.1,4.16-5.52,3.39a4.28,4.28,0,0,1-2-1.16l.6-.63a3.18,3.18,0,0,0,1.61,1c1.92.61,3.55-.25,4.3-2.7a7.4,7.4,0,0,0,.19-.75,3,3,0,0,1-3.21.69,2.87,2.87,0,0,1-2.17-3.66,2.9,2.9,0,0,1,3.9-1.82C330.71,107.51,331.49,109.58,330.61,112.43Zm-.71-2.19c.31-1-.22-2.19-1.76-2.68a2,2,0,0,0-2.79,1.28,2.07,2.07,0,0,0,1.65,2.65A2.15,2.15,0,0,0,329.9,110.24Z" transform="translate(-8.62 -3.39)"/><path class="cls-4" d="M341,110.84l-2.78,9-.92-.28,2.53-8.22-2.11-.66.26-.83Z" transform="translate(-8.62 -3.39)"/><path class="cls-4" d="M347.7,122l-.25.83-6.27-2,.21-.65,4.84-2.52c1.32-.68,1.7-1.23,1.89-1.85.32-1-.21-1.92-1.57-2.35a3.15,3.15,0,0,0-2.75.24l-.48-.78a4.21,4.21,0,0,1,3.57-.29c1.81.57,2.67,1.86,2.21,3.37-.27.87-.78,1.56-2.34,2.37l-4,2.06Z" transform="translate(-8.62 -3.39)"/><path class="cls-4" d="M356.26,122.71c-.46,1.51-1.9,2.33-4.06,1.65a4.88,4.88,0,0,1-2.86-2.18l.67-.59a4.13,4.13,0,0,0,2.45,1.92c1.48.46,2.51,0,2.86-1.1s-.2-2-1.86-2.56l-.64-.2L353,119l3.44-2.36-4.57-1.44.26-.82,5.74,1.8-.2.66-3.52,2.42C356.07,119.94,356.71,121.26,356.26,122.71Z" transform="translate(-8.62 -3.39)"/><polygon class="cls-4" points="276.16 106.99 274.95 110.91 346.53 133.45 347.74 129.53 276.16 106.99"/><polygon class="cls-4" points="308.62 125.8 307.41 129.73 344.12 141.29 345.33 137.36 308.62 125.8"/><g class="cls-5"><path class="cls-2" d="M246.37,72.49l-22-6.94a4.26,4.26,0,0,1-2.76-5.31l4.5-14.59a4.18,4.18,0,0,1,5.25-2.79l22,6.93a4.26,4.26,0,0,1,2.76,5.32L251.62,69.7A4.2,4.2,0,0,1,246.37,72.49Z" transform="translate(-8.62 -3.39)"/></g><path class="cls-3" d="M222.27,58l.45-1.46,15.46,4.87a3.4,3.4,0,0,0,4.25-2.25,3.44,3.44,0,0,0-2.23-4.29L224.73,50l.45-1.46,15.47,4.87a5,5,0,0,1,3.22,6.2,4.91,4.91,0,0,1-6.14,3.26Z" transform="translate(-8.62 -3.39)"/><polygon class="cls-3" points="234.3 56.73 234.75 55.27 245.37 58.62 244.92 60.07 234.3 56.73"/><polygon class="cls-4" points="303.17 51.68 225.93 27.35 228 20.65 305.23 44.97 303.17 51.68"/><path class="cls-4" d="M363.19,76.2l-10.46-3.29A2.7,2.7,0,0,1,351,69.54L354.24,59a2.65,2.65,0,0,1,3.33-1.77L368,60.48a2.69,2.69,0,0,1,1.75,3.37l-3.25,10.58A2.66,2.66,0,0,1,363.19,76.2Z" transform="translate(-8.62 -3.39)"/><path class="cls-6" d="M392,382.4c0,.13-85.83.23-191.68.23s-191.7-.1-191.7-.23,85.81-.22,191.7-.22S392,382.28,392,382.4Z" transform="translate(-8.62 -3.39)"/><rect class="cls-7" x="11.2" y="261.13" width="132.93" height="117.85" rx="8.76"/><g class="cls-8"><path d="M19.82,341.81H68.24a3.39,3.39,0,0,0,3.37-3.41H20Z" transform="translate(-8.62 -3.39)"/></g><path class="cls-7" d="M69.39,338.82H20.48a4.24,4.24,0,0,1-4.22-4.26V312.5a4.24,4.24,0,0,1,4.22-4.26H69.39a4.24,4.24,0,0,1,4.22,4.26v22.06A4.24,4.24,0,0,1,69.39,338.82Z" transform="translate(-8.62 -3.39)"/><path class="cls-6" d="M69.39,338.82a5,5,0,0,0,1.64-.38,4.24,4.24,0,0,0,1.6-1.26,4.29,4.29,0,0,0,.89-2.6c0-4.32,0-10.53-.07-18.2,0-1,0-1.94,0-2.95a12.41,12.41,0,0,0,0-1.5,4.19,4.19,0,0,0-.47-1.41,4,4,0,0,0-2.3-1.9,4.41,4.41,0,0,0-1.55-.2H67.42l-14.26,0-32.68,0a4,4,0,0,0-4,3.89c0,.7,0,1.43,0,2.14v8.43c0,2.76,0,5.48,0,8.14,0,1.32,0,2.67,0,3.92a4.06,4.06,0,0,0,1.86,3,4,4,0,0,0,1.66.6c.57.06,1.22,0,1.82,0H32.38l12.42,0,18,.08,4.9,0,1.27,0,.43,0a3.62,3.62,0,0,1-.43,0l-1.27,0-4.9,0-18,.07-12.42,0H21.83c-.62,0-1.21,0-1.87,0a4.38,4.38,0,0,1-1.83-.65A4.48,4.48,0,0,1,16.08,335c0-1.35,0-2.63,0-4v-8.14c0-2.76,0-5.58,0-8.43,0-.72,0-1.43,0-2.16A4.45,4.45,0,0,1,20.48,308H53.16l14.26,0h1.66a4.72,4.72,0,0,1,1.66.22,4.43,4.43,0,0,1,3,3.6c.06.54,0,1.05,0,1.55,0,1,0,2,0,2.95,0,7.67-.05,13.88-.07,18.2a4.33,4.33,0,0,1-2.62,3.94,4.14,4.14,0,0,1-1.24.3Z" transform="translate(-8.62 -3.39)"/><g class="cls-8"><ellipse cx="50.85" cy="323.45" rx="8.49" ry="8.59"/></g><ellipse class="cls-2" cx="50.85" cy="320.46" rx="8.49" ry="8.59"/><path class="cls-6" d="M68,323.85a20.16,20.16,0,0,0-.35-2.07,8.51,8.51,0,0,0-3.1-4.63A8.19,8.19,0,0,0,61,315.6a8.33,8.33,0,0,0-4.36.38,7.67,7.67,0,0,0-2.09,1.15,7.59,7.59,0,0,0-1.75,1.78,8.4,8.4,0,0,0,0,9.89,7.59,7.59,0,0,0,1.75,1.78,7.94,7.94,0,0,0,2.09,1.15,8.33,8.33,0,0,0,4.36.38,8.2,8.2,0,0,0,3.5-1.56,8.5,8.5,0,0,0,3.1-4.62,19.55,19.55,0,0,0,.35-2.08,6.67,6.67,0,0,1-.18,2.12,8.56,8.56,0,0,1-3.08,4.83,8.46,8.46,0,0,1-3.63,1.67,8.57,8.57,0,0,1-4.56-.36,8.8,8.8,0,0,1-4-3.05,8.82,8.82,0,0,1,0-10.41,8,8,0,0,1,1.85-1.86,7.73,7.73,0,0,1,2.2-1.19,8.57,8.57,0,0,1,11.27,6.14A6.61,6.61,0,0,1,68,323.85Z" transform="translate(-8.62 -3.39)"/><ellipse class="cls-9" cx="321.85" cy="277.15" rx="29.49" ry="29.82"/><g class="cls-10"><path class="cls-4" d="M319.88,252.7A29.92,29.92,0,0,0,303,291.24s19.67-6.64,21.32-16.33S319.88,252.7,319.88,252.7Z" transform="translate(-8.62 -3.39)"/></g><ellipse class="cls-11" cx="321.24" cy="276.88" rx="22.41" ry="22.67"/><g class="cls-12"><ellipse cx="321.24" cy="276.88" rx="22.41" ry="22.67"/></g><path class="cls-9" d="M351.71,272.78A22.45,22.45,0,0,1,339,301.69a22,22,0,0,1-28.58-12.85,22.46,22.46,0,0,1,12.7-28.91A22,22,0,0,1,351.71,272.78Z" transform="translate(-8.62 -3.39)"/><g class="cls-12"><path class="cls-4" d="M351.07,272.19a22.45,22.45,0,0,1-12.71,28.9,22,22,0,0,1-28.57-12.85,22.43,22.43,0,0,1,12.7-28.9A22,22,0,0,1,351.07,272.19Z" transform="translate(-8.62 -3.39)"/></g><path class="cls-4" d="M312,302.72l-.21-.17-.57-.51c-.25-.22-.55-.49-.88-.84s-.72-.71-1.1-1.17l-.61-.71c-.21-.25-.41-.53-.62-.8-.44-.55-.85-1.18-1.3-1.83a33.34,33.34,0,0,1-2.42-4.55,32.68,32.68,0,0,1-1.6-4.89c-.16-.78-.33-1.51-.42-2.21-.05-.35-.12-.69-.15-1s-.06-.64-.09-.94c-.07-.6-.07-1.14-.09-1.62s0-.88,0-1.22l0-.77a1,1,0,0,1,0-.27,1.52,1.52,0,0,1,0,.27c0,.2,0,.46,0,.77s0,.74,0,1.22,0,1,.12,1.6c0,.3.06.61.1.93s.1.66.16,1c.09.69.27,1.42.44,2.19a34,34,0,0,0,1.6,4.86,34.5,34.5,0,0,0,2.39,4.51c.44.66.84,1.29,1.27,1.83.21.28.41.56.61.81l.6.71c.37.47.75.85,1.07,1.2s.61.63.85.86l.54.54C311.94,302.64,312,302.71,312,302.72Z" transform="translate(-8.62 -3.39)"/><path class="cls-4" d="M323.48,280.29a1.72,1.72,0,0,1-.84-.37,3.61,3.61,0,0,1-1.35-1.77,3.55,3.55,0,0,1,0-2.24,1.85,1.85,0,0,1,.43-.82s-.15.32-.29.86a3.89,3.89,0,0,0,.08,2.12,3.73,3.73,0,0,0,1.23,1.72C323.17,280.13,323.49,280.26,323.48,280.29Z" transform="translate(-8.62 -3.39)"/><path class="cls-4" d="M325.07,270.37a2.16,2.16,0,0,1-.43-.83c-.18-.48-.29-.89-.23-.91s.25.35.43.83S325.13,270.35,325.07,270.37Z" transform="translate(-8.62 -3.39)"/><path class="cls-4" d="M323.5,257.83a6.22,6.22,0,0,1-.68.23c-.22.07-.49.15-.8.27s-.67.22-1,.39-.8.33-1.24.54-.9.45-1.38.71a25.67,25.67,0,0,0-3,2,23.94,23.94,0,0,0-2.63,2.4c-.37.4-.73.78-1,1.17s-.59.73-.84,1.07-.46.65-.64.92-.34.51-.46.71a5.61,5.61,0,0,1-.4.61,3.49,3.49,0,0,1,.32-.65c.11-.21.25-.46.43-.74s.37-.61.62-.94.51-.72.82-1.1.66-.78,1-1.2a24.44,24.44,0,0,1,2.65-2.43,23.53,23.53,0,0,1,3-2c.5-.26,1-.51,1.41-.7s.87-.37,1.26-.52.75-.26,1.06-.36a6.65,6.65,0,0,1,.82-.23A4,4,0,0,1,323.5,257.83Z" transform="translate(-8.62 -3.39)"/><path class="cls-4" d="M343.85,305.63a2.18,2.18,0,0,1-.44.33,14.64,14.64,0,0,1-1.27.77,21.37,21.37,0,0,1-4.55,1.83,21.14,21.14,0,0,1-4.84.74,13.37,13.37,0,0,1-1.48,0,3.37,3.37,0,0,1-.54,0,1.91,1.91,0,0,1,.54,0c.35,0,.85,0,1.48-.06a23.86,23.86,0,0,0,4.79-.79,24.67,24.67,0,0,0,4.53-1.76c.55-.28,1-.53,1.3-.7A2.67,2.67,0,0,1,343.85,305.63Z" transform="translate(-8.62 -3.39)"/><rect class="cls-9" x="301.8" y="308.43" width="62.42" height="12.73" transform="translate(657.4 626.2) rotate(180)"/><path class="cls-6" d="M360.21,308.64a70.75,70.75,0,0,0,0,12.35,70.75,70.75,0,0,0,0-12.35Z" transform="translate(-8.62 -3.39)"/><path class="cls-6" d="M354.42,308.64a70.75,70.75,0,0,0,0,12.35,70.75,70.75,0,0,0,0-12.35Z" transform="translate(-8.62 -3.39)"/><path class="cls-6" d="M348.7,308.64a70.75,70.75,0,0,0,0,12.35,70.75,70.75,0,0,0,0-12.35Z" transform="translate(-8.62 -3.39)"/><path class="cls-6" d="M343,308.64A70.75,70.75,0,0,0,343,321a70.75,70.75,0,0,0,0-12.35Z" transform="translate(-8.62 -3.39)"/><path class="cls-6" d="M337.32,308.64a70.75,70.75,0,0,0,0,12.35,70.75,70.75,0,0,0,0-12.35Z" transform="translate(-8.62 -3.39)"/><path class="cls-6" d="M331.63,308.64a70.75,70.75,0,0,0,0,12.35,70.75,70.75,0,0,0,0-12.35Z" transform="translate(-8.62 -3.39)"/><path class="cls-6" d="M325.94,308.64a70.75,70.75,0,0,0,0,12.35,70.75,70.75,0,0,0,0-12.35Z" transform="translate(-8.62 -3.39)"/><path class="cls-6" d="M320.25,308.64a70.75,70.75,0,0,0,0,12.35,70.75,70.75,0,0,0,0-12.35Z" transform="translate(-8.62 -3.39)"/><path class="cls-6" d="M314.56,308.64a70.75,70.75,0,0,0,0,12.35,70.75,70.75,0,0,0,0-12.35Z" transform="translate(-8.62 -3.39)"/><path class="cls-6" d="M308.87,308.64a70.75,70.75,0,0,0,0,12.35,70.75,70.75,0,0,0,0-12.35Z" transform="translate(-8.62 -3.39)"/><path class="cls-6" d="M303.18,308.64a70.75,70.75,0,0,0,0,12.35,68.23,68.23,0,0,0,0-12.35Z" transform="translate(-8.62 -3.39)"/><g class="cls-8"><path d="M363.22,308.45a225.12,225.12,0,0,1-60.42,0Z" transform="translate(-8.62 -3.39)"/></g><path class="cls-6" d="M301.78,308.47c0,.15,14,.28,31.16.28s31.15-.13,31.15-.28-13.94-.27-31.15-.27S301.78,308.32,301.78,308.47Z" transform="translate(-8.62 -3.39)"/><rect class="cls-9" x="300.4" y="320.95" width="62.42" height="12.73" transform="translate(654.6 651.24) rotate(180)"/><path class="cls-6" d="M358.81,321.16a68.23,68.23,0,0,0,0,12.35,70.75,70.75,0,0,0,0-12.35Z" transform="translate(-8.62 -3.39)"/><path class="cls-6" d="M353,321.16a70.75,70.75,0,0,0,0,12.35,70.75,70.75,0,0,0,0-12.35Z" transform="translate(-8.62 -3.39)"/><path class="cls-6" d="M347.3,321.16a70.75,70.75,0,0,0,0,12.35,70.75,70.75,0,0,0,0-12.35Z" transform="translate(-8.62 -3.39)"/><path class="cls-6" d="M341.61,321.16a70.75,70.75,0,0,0,0,12.35,70.75,70.75,0,0,0,0-12.35Z" transform="translate(-8.62 -3.39)"/><path class="cls-6" d="M335.92,321.16a70.75,70.75,0,0,0,0,12.35,70.75,70.75,0,0,0,0-12.35Z" transform="translate(-8.62 -3.39)"/><path class="cls-6" d="M330.23,321.16a70.75,70.75,0,0,0,0,12.35,70.75,70.75,0,0,0,0-12.35Z" transform="translate(-8.62 -3.39)"/><path class="cls-6" d="M324.54,321.16a70.75,70.75,0,0,0,0,12.35,70.75,70.75,0,0,0,0-12.35Z" transform="translate(-8.62 -3.39)"/><path class="cls-6" d="M318.85,321.16a70.75,70.75,0,0,0,0,12.35,70.75,70.75,0,0,0,0-12.35Z" transform="translate(-8.62 -3.39)"/><path class="cls-6" d="M313.16,321.16a70.75,70.75,0,0,0,0,12.35,70.75,70.75,0,0,0,0-12.35Z" transform="translate(-8.62 -3.39)"/><path class="cls-6" d="M307.47,321.16a70.75,70.75,0,0,0,0,12.35,70.75,70.75,0,0,0,0-12.35Z" transform="translate(-8.62 -3.39)"/><path class="cls-6" d="M301.78,321.16a70.75,70.75,0,0,0,0,12.35,70.75,70.75,0,0,0,0-12.35Z" transform="translate(-8.62 -3.39)"/><g class="cls-8"><path d="M361.81,321a224.71,224.71,0,0,1-60.42,0Z" transform="translate(-8.62 -3.39)"/></g><path class="cls-6" d="M300.38,321c0,.15,13.95.28,31.15.28s31.16-.13,31.16-.28-13.94-.27-31.16-.27S300.38,320.84,300.38,321Z" transform="translate(-8.62 -3.39)"/><rect class="cls-9" x="306.32" y="333.27" width="62.42" height="12.73" transform="translate(666.45 675.88) rotate(180)"/><path class="cls-6" d="M364.73,333.48a70.75,70.75,0,0,0,0,12.35,70.75,70.75,0,0,0,0-12.35Z" transform="translate(-8.62 -3.39)"/><path class="cls-6" d="M358.94,333.48a70.75,70.75,0,0,0,0,12.35,68.23,68.23,0,0,0,0-12.35Z" transform="translate(-8.62 -3.39)"/><path class="cls-6" d="M353.22,333.48a70.75,70.75,0,0,0,0,12.35,70.75,70.75,0,0,0,0-12.35Z" transform="translate(-8.62 -3.39)"/><path class="cls-6" d="M347.53,333.48a70.75,70.75,0,0,0,0,12.35,68.23,68.23,0,0,0,0-12.35Z" transform="translate(-8.62 -3.39)"/><path class="cls-6" d="M341.85,333.48a68.23,68.23,0,0,0,0,12.35,70.75,70.75,0,0,0,0-12.35Z" transform="translate(-8.62 -3.39)"/><path class="cls-6" d="M336.16,333.48a68.23,68.23,0,0,0,0,12.35,70.75,70.75,0,0,0,0-12.35Z" transform="translate(-8.62 -3.39)"/><path class="cls-6" d="M330.47,333.48a70.75,70.75,0,0,0,0,12.35,70.75,70.75,0,0,0,0-12.35Z" transform="translate(-8.62 -3.39)"/><path class="cls-6" d="M324.78,333.48a70.75,70.75,0,0,0,0,12.35,70.75,70.75,0,0,0,0-12.35Z" transform="translate(-8.62 -3.39)"/><path class="cls-6" d="M319.09,333.48a70.75,70.75,0,0,0,0,12.35,70.75,70.75,0,0,0,0-12.35Z" transform="translate(-8.62 -3.39)"/><path class="cls-6" d="M313.4,333.48a70.75,70.75,0,0,0,0,12.35,70.75,70.75,0,0,0,0-12.35Z" transform="translate(-8.62 -3.39)"/><path class="cls-6" d="M307.71,333.48a70.75,70.75,0,0,0,0,12.35,70.75,70.75,0,0,0,0-12.35Z" transform="translate(-8.62 -3.39)"/><g class="cls-8"><path d="M367.74,333.29a225.12,225.12,0,0,1-60.42,0Z" transform="translate(-8.62 -3.39)"/></g><path class="cls-6" d="M306.31,333.31c0,.15,13.95.28,31.15.28s31.16-.13,31.16-.28-13.95-.27-31.16-.27S306.31,333.16,306.31,333.31Z" transform="translate(-8.62 -3.39)"/><rect class="cls-9" x="299.01" y="345.91" width="62.42" height="12.25" transform="translate(651.82 700.67) rotate(180)"/><path class="cls-6" d="M357.42,346.11a65.47,65.47,0,0,0,0,11.88,65.48,65.48,0,0,0,0-11.88Z" transform="translate(-8.62 -3.39)"/><path class="cls-6" d="M351.63,346.11a65.47,65.47,0,0,0,0,11.88,65.48,65.48,0,0,0,0-11.88Z" transform="translate(-8.62 -3.39)"/><path class="cls-6" d="M345.91,346.11a65.47,65.47,0,0,0,0,11.88,65.48,65.48,0,0,0,0-11.88Z" transform="translate(-8.62 -3.39)"/><path class="cls-6" d="M340.22,346.11a65.47,65.47,0,0,0,0,11.88,65.48,65.48,0,0,0,0-11.88Z" transform="translate(-8.62 -3.39)"/><path class="cls-6" d="M334.53,346.11a65.47,65.47,0,0,0,0,11.88,65.48,65.48,0,0,0,0-11.88Z" transform="translate(-8.62 -3.39)"/><path class="cls-6" d="M328.84,346.11a65.47,65.47,0,0,0,0,11.88,65.48,65.48,0,0,0,0-11.88Z" transform="translate(-8.62 -3.39)"/><path class="cls-6" d="M323.15,346.11a65.47,65.47,0,0,0,0,11.88,65.48,65.48,0,0,0,0-11.88Z" transform="translate(-8.62 -3.39)"/><path class="cls-6" d="M317.46,346.11a65.47,65.47,0,0,0,0,11.88,63.15,63.15,0,0,0,0-11.88Z" transform="translate(-8.62 -3.39)"/><path class="cls-6" d="M311.78,346.11a63.15,63.15,0,0,0,0,11.88,65.48,65.48,0,0,0,0-11.88Z" transform="translate(-8.62 -3.39)"/><path class="cls-6" d="M306.09,346.11a65.47,65.47,0,0,0,0,11.88,65.48,65.48,0,0,0,0-11.88Z" transform="translate(-8.62 -3.39)"/><path class="cls-6" d="M300.4,346.11a65.47,65.47,0,0,0,0,11.88,65.48,65.48,0,0,0,0-11.88Z" transform="translate(-8.62 -3.39)"/><g class="cls-8"><path d="M360.43,345.92a176.64,176.64,0,0,1-60.42,0Z" transform="translate(-8.62 -3.39)"/></g><path class="cls-6" d="M299,346c0,.15,13.95.27,31.16.27s31.16-.12,31.16-.27-13.95-.28-31.16-.28S299,345.8,299,346Z" transform="translate(-8.62 -3.39)"/><rect class="cls-9" x="303.02" y="358.16" width="62.42" height="12.25" transform="translate(659.85 725.18) rotate(180)"/><path class="cls-6" d="M361.43,358.37a65.37,65.37,0,0,0,0,11.87,65.37,65.37,0,0,0,0-11.87Z" transform="translate(-8.62 -3.39)"/><path class="cls-6" d="M355.65,358.37a63,63,0,0,0,0,11.87,65.37,65.37,0,0,0,0-11.87Z" transform="translate(-8.62 -3.39)"/><path class="cls-6" d="M349.93,358.37a63,63,0,0,0,0,11.87,65.37,65.37,0,0,0,0-11.87Z" transform="translate(-8.62 -3.39)"/><path class="cls-6" d="M344.24,358.37a63,63,0,0,0,0,11.87,65.37,65.37,0,0,0,0-11.87Z" transform="translate(-8.62 -3.39)"/><path class="cls-6" d="M338.55,358.37a65.37,65.37,0,0,0,0,11.87,65.37,65.37,0,0,0,0-11.87Z" transform="translate(-8.62 -3.39)"/><path class="cls-6" d="M332.86,358.37a65.37,65.37,0,0,0,0,11.87,65.37,65.37,0,0,0,0-11.87Z" transform="translate(-8.62 -3.39)"/><path class="cls-6" d="M327.17,358.37a65.37,65.37,0,0,0,0,11.87,65.37,65.37,0,0,0,0-11.87Z" transform="translate(-8.62 -3.39)"/><path class="cls-6" d="M321.48,358.37a65.37,65.37,0,0,0,0,11.87,65.37,65.37,0,0,0,0-11.87Z" transform="translate(-8.62 -3.39)"/><path class="cls-6" d="M315.79,358.37a65.37,65.37,0,0,0,0,11.87,65.37,65.37,0,0,0,0-11.87Z" transform="translate(-8.62 -3.39)"/><path class="cls-6" d="M310.1,358.37a65.37,65.37,0,0,0,0,11.87,65.37,65.37,0,0,0,0-11.87Z" transform="translate(-8.62 -3.39)"/><path class="cls-6" d="M304.41,358.37a65.37,65.37,0,0,0,0,11.87,65.37,65.37,0,0,0,0-11.87Z" transform="translate(-8.62 -3.39)"/><g class="cls-8"><path d="M364.44,358.18a156.29,156.29,0,0,1-60.42,0Z" transform="translate(-8.62 -3.39)"/></g><path class="cls-6" d="M303,358.2c0,.15,13.95.28,31.15.28s31.16-.13,31.16-.28-13.95-.27-31.16-.27S303,358.05,303,358.2Z" transform="translate(-8.62 -3.39)"/><rect class="cls-9" x="299.46" y="370.24" width="62.42" height="12.25" transform="translate(652.72 749.33) rotate(180)"/><path class="cls-6" d="M357.87,370.44a65.47,65.47,0,0,0,0,11.88,65.48,65.48,0,0,0,0-11.88Z" transform="translate(-8.62 -3.39)"/><path class="cls-6" d="M352.08,370.44a65.47,65.47,0,0,0,0,11.88,65.48,65.48,0,0,0,0-11.88Z" transform="translate(-8.62 -3.39)"/><path class="cls-6" d="M346.36,370.44a65.47,65.47,0,0,0,0,11.88,65.48,65.48,0,0,0,0-11.88Z" transform="translate(-8.62 -3.39)"/><path class="cls-6" d="M340.67,370.44a65.47,65.47,0,0,0,0,11.88,65.48,65.48,0,0,0,0-11.88Z" transform="translate(-8.62 -3.39)"/><path class="cls-6" d="M335,370.44a65.47,65.47,0,0,0,0,11.88,65.48,65.48,0,0,0,0-11.88Z" transform="translate(-8.62 -3.39)"/><path class="cls-6" d="M329.29,370.44a65.47,65.47,0,0,0,0,11.88,65.48,65.48,0,0,0,0-11.88Z" transform="translate(-8.62 -3.39)"/><path class="cls-6" d="M323.6,370.44a65.47,65.47,0,0,0,0,11.88,65.48,65.48,0,0,0,0-11.88Z" transform="translate(-8.62 -3.39)"/><path class="cls-6" d="M317.91,370.44a65.47,65.47,0,0,0,0,11.88,65.48,65.48,0,0,0,0-11.88Z" transform="translate(-8.62 -3.39)"/><path class="cls-6" d="M312.22,370.44a65.47,65.47,0,0,0,0,11.88,65.48,65.48,0,0,0,0-11.88Z" transform="translate(-8.62 -3.39)"/><path class="cls-6" d="M306.53,370.44a65.47,65.47,0,0,0,0,11.88,65.48,65.48,0,0,0,0-11.88Z" transform="translate(-8.62 -3.39)"/><path class="cls-6" d="M300.84,370.44a65.47,65.47,0,0,0,0,11.88,65.48,65.48,0,0,0,0-11.88Z" transform="translate(-8.62 -3.39)"/><g class="cls-8"><path d="M360.88,370.25a176.64,176.64,0,0,1-60.42,0Z" transform="translate(-8.62 -3.39)"/></g><path class="cls-6" d="M299.44,370.28c0,.15,13.95.27,31.16.27s31.15-.12,31.15-.27S347.81,370,330.6,370,299.44,370.13,299.44,370.28Z" transform="translate(-8.62 -3.39)"/><path class="cls-6" d="M361.88,382.49a1,1,0,0,1,0-.21c0-.16,0-.37,0-.62,0-.57,0-1.37,0-2.38,0-2.11,0-5.12-.06-8.87v-.14h3.58l-.15.15c0-3.58,0-7.72,0-12.25l.19.18h-4.21v-.19c0-3.79,0-7.89,0-12.16v-.2h7.52l-.21.2c0-4.53,0-8.88,0-13l.19.19h-6.11V333c0-4.43,0-8.43,0-11.88V321h1.67l-.14.14c0-3.94,0-7.11,0-9.32,0-1.07,0-1.9,0-2.5,0-.27,0-.48,0-.65a2,2,0,0,1,0-.22.68.68,0,0,1,0,.22c0,.17,0,.38,0,.65,0,.6,0,1.43.06,2.5,0,2.21.09,5.38.16,9.32v.14h-1.67l.15-.15c0,3.45,0,7.45,0,11.88l-.18-.19h6.12v.2c0,4.08,0,8.43,0,13v.21h-7.51l.2-.21c0,4.27,0,8.37,0,12.16l-.19-.2h4.2v.19c0,4.53,0,8.67,0,12.25v.15h-.15l-3.44,0,.14-.13c0,3.75,0,6.76-.07,8.87,0,1,0,1.81,0,2.38,0,.25,0,.46,0,.62A1,1,0,0,1,361.88,382.49Z" transform="translate(-8.62 -3.39)"/><path class="cls-9" d="M384.74,202.6a25.68,25.68,0,1,1-26.56-25A25.85,25.85,0,0,1,384.74,202.6Z" transform="translate(-8.62 -3.39)"/><g class="cls-10"><path class="cls-4" d="M358.18,177.55a25.86,25.86,0,0,0-24.77,26.87s18.06.17,22.15-7.33S358.18,177.55,358.18,177.55Z" transform="translate(-8.62 -3.39)"/></g><path class="cls-11" d="M378.17,202.42a19.53,19.53,0,1,1-20.2-19A19.67,19.67,0,0,1,378.17,202.42Z" transform="translate(-8.62 -3.39)"/><g class="cls-12"><path d="M378.17,202.42a19.53,19.53,0,1,1-20.2-19A19.67,19.67,0,0,1,378.17,202.42Z" transform="translate(-8.62 -3.39)"/></g><path class="cls-11" d="M378.75,203.22a19.26,19.26,0,1,1-19.93-18.79A19.39,19.39,0,0,1,378.75,203.22Z" transform="translate(-8.62 -3.39)"/><g class="cls-12"><path class="cls-4" d="M378.75,203.22a19.26,19.26,0,1,1-19.93-18.79A19.39,19.39,0,0,1,378.75,203.22Z" transform="translate(-8.62 -3.39)"/></g><path class="cls-11" d="M354.8,199m2.38-2.33" transform="translate(-8.62 -3.39)"/><path class="cls-6" d="M359.82,223.58l.16,0,.46-.05.76-.08a7.46,7.46,0,0,0,1-.14l1.27-.25a5.28,5.28,0,0,0,.71-.18l.76-.24a7,7,0,0,0,.82-.26l.84-.35c.28-.12.59-.23.88-.38l.9-.48a20.34,20.34,0,0,0,3.71-2.61l.89-.87c.15-.15.31-.3.45-.46l.42-.49c.28-.34.58-.67.84-1l.78-1.12.19-.29c.07-.1.12-.2.18-.3l.34-.62.34-.62c.13-.21.2-.44.31-.66.18-.44.4-.88.57-1.35s.31-.94.46-1.42a19.64,19.64,0,0,0-.42-12.25l-.56-1.38c-.21-.45-.45-.88-.67-1.31-.11-.21-.21-.43-.34-.63l-.39-.6c-.13-.19-.26-.39-.38-.59s-.13-.19-.2-.29l-.21-.27-.85-1.07c-.29-.34-.62-.64-.91-1l-.46-.47-.48-.42-.95-.81a19.92,19.92,0,0,0-3.88-2.34l-.93-.41c-.3-.13-.61-.22-.91-.32l-.86-.29a6.65,6.65,0,0,0-.83-.2l-.78-.18a5.06,5.06,0,0,0-.72-.14l-1.28-.16a7.91,7.91,0,0,0-1-.06l-.76,0-.46,0h-.16s.05,0,.16,0h1.22a6.31,6.31,0,0,1,1,.05l1.29.14a6.6,6.6,0,0,1,.73.13l.79.17c.26.07.55.1.83.2l.87.28c.3.11.61.19.92.32l.94.41a20.17,20.17,0,0,1,3.92,2.33l1,.82c.16.14.33.27.49.42l.45.47c.31.32.63.62.93,1l.86,1.07.22.28.19.29.39.59.39.61a6.37,6.37,0,0,1,.35.63c.22.44.47.87.68,1.32l.56,1.4a19.73,19.73,0,0,1,.43,12.37c-.16.48-.31,1-.47,1.43s-.39.91-.58,1.36c-.1.22-.18.45-.3.66s-.24.42-.35.63l-.35.62c-.06.1-.11.21-.18.31l-.2.28c-.26.39-.52.76-.78,1.14s-.57.69-.85,1l-.43.5c-.14.16-.3.3-.45.45l-.9.88a20.12,20.12,0,0,1-3.76,2.61l-.9.48c-.3.15-.61.25-.9.38l-.85.34c-.27.12-.55.17-.82.26l-.77.22a4.93,4.93,0,0,1-.71.18l-1.28.24a8.84,8.84,0,0,1-1,.12l-.75,0-.47,0Z" transform="translate(-8.62 -3.39)"/><path class="cls-4" d="M337.64,216.46a1.53,1.53,0,0,1-.13-.2l-.33-.58c-.14-.25-.31-.56-.48-.94s-.39-.8-.58-1.29c-.09-.24-.2-.49-.3-.76s-.19-.54-.29-.83c-.21-.58-.37-1.22-.56-1.88a28.64,28.64,0,0,1-.71-4.44,27.7,27.7,0,0,1,.06-4.49c.08-.69.15-1.34.27-1.94.05-.31.1-.6.16-.88s.13-.54.19-.79c.11-.52.26-1,.38-1.36s.24-.73.34-1l.24-.62c.06-.14.09-.22.1-.21a.63.63,0,0,1-.06.22c-.05.17-.12.38-.21.64s-.2.61-.31,1-.25.85-.35,1.36c-.05.25-.11.52-.17.79s-.1.57-.16.87c-.11.6-.17,1.25-.25,1.94a29.88,29.88,0,0,0,0,4.46,28,28,0,0,0,.7,4.4c.17.66.33,1.3.53,1.87.1.29.18.58.28.84l.29.76c.17.49.38.91.55,1.29s.32.7.45,1l.3.59A1.21,1.21,0,0,1,337.64,216.46Z" transform="translate(-8.62 -3.39)"/><path class="cls-4" d="M353.39,201.3a1.74,1.74,0,0,1-.58-.55,3.08,3.08,0,0,1-.62-1.85,3.18,3.18,0,0,1,.62-1.85,1.71,1.71,0,0,1,.59-.55s-.22.23-.48.63a3.43,3.43,0,0,0-.54,1.77,3.26,3.26,0,0,0,.54,1.77C353.18,201.08,353.42,201.27,353.39,201.3Z" transform="translate(-8.62 -3.39)"/><path class="cls-4" d="M357.49,193.59a1.8,1.8,0,0,1-.12-.81,1.86,1.86,0,0,1,.06-.82c.06,0,.11.36.13.81A2,2,0,0,1,357.49,193.59Z" transform="translate(-8.62 -3.39)"/><path class="cls-4" d="M359.72,182.81a4.33,4.33,0,0,1-.63,0c-.2,0-.45,0-.73,0s-.61,0-1,0-.76,0-1.18.09-.86.12-1.33.19a21.3,21.3,0,0,0-3,.76,20.89,20.89,0,0,0-2.84,1.22c-.42.23-.82.44-1.18.66s-.69.44-1,.65-.56.4-.79.57-.42.33-.58.46a4,4,0,0,1-.5.38l.46-.44a5,5,0,0,1,.56-.48,9.49,9.49,0,0,1,.77-.6c.3-.22.62-.45,1-.67s.76-.46,1.18-.69a20,20,0,0,1,2.86-1.24,20.34,20.34,0,0,1,3-.76c.47-.07.92-.14,1.35-.17s.82-.05,1.18-.06.69,0,1,0l.74,0A3.21,3.21,0,0,1,359.72,182.81Z" transform="translate(-8.62 -3.39)"/><path class="cls-4" d="M363.05,228s-.15.07-.45.15-.73.17-1.26.26a18.36,18.36,0,0,1-4.26.21,18.62,18.62,0,0,1-4.19-.79,12,12,0,0,1-1.22-.43,1.59,1.59,0,0,1-.43-.21l.45.14c.29.09.71.23,1.23.37a20.77,20.77,0,0,0,8.4.58c.53-.08,1-.15,1.26-.21Z" transform="translate(-8.62 -3.39)"/><path class="cls-13" d="M221.94,399.88" transform="translate(-8.62 -3.39)"/><path class="cls-14" d="M276.14,382.15l-114.51-.53a25.09,25.09,0,0,1-24.82-25.34L138,65.91a25.09,25.09,0,0,1,25.06-25.13l114.5.54a25.08,25.08,0,0,1,24.83,25.33L301.2,357A25.08,25.08,0,0,1,276.14,382.15Z" transform="translate(-8.62 -3.39)"/><path class="cls-15" d="M277.42,51.34l-22.2-.11-64.84-.3-7.81,0-19.43-.09a17.58,17.58,0,0,0-17.55,17.6l-1.18,283.43a17.57,17.57,0,0,0,17.39,17.74l114.27.54a17.58,17.58,0,0,0,17.55-17.6l1.19-283.43A17.57,17.57,0,0,0,277.42,51.34Z" transform="translate(-8.62 -3.39)"/><path class="cls-6" d="M278.27,77.1a1.43,1.43,0,1,1-1.43-1.46A1.45,1.45,0,0,1,278.27,77.1Z" transform="translate(-8.62 -3.39)"/><path class="cls-6" d="M278.25,82.3a1.43,1.43,0,1,1-2.86,0,1.43,1.43,0,0,1,1.43-1.44A1.44,1.44,0,0,1,278.25,82.3Z" transform="translate(-8.62 -3.39)"/><path class="cls-6" d="M278.23,87.5a1.43,1.43,0,1,1-1.43-1.45A1.43,1.43,0,0,1,278.23,87.5Z" transform="translate(-8.62 -3.39)"/><rect class="cls-2" x="156.5" y="123.09" width="121.81" height="78.17" rx="4.3"/><rect class="cls-3" x="153.15" y="118.02" width="121.81" height="78.17" rx="4.3"/><rect class="cls-9" x="149.29" y="113.8" width="121.81" height="78.17" rx="4.3"/><path class="cls-4" d="M178,135.05c0,1-.79,1.58-2.29,1.58h-3v-5.79h2.8c1.43,0,2.16.61,2.16,1.51a1.38,1.38,0,0,1-.76,1.27A1.43,1.43,0,0,1,178,135.05Zm-3.93-3.2v1.37h1.31c.65,0,1-.24,1-.69s-.35-.68-1-.68Zm2.6,3.06c0-.49-.37-.72-1.06-.72H174v1.43h1.54C176.27,135.62,176.64,135.41,176.64,134.91Z" transform="translate(-8.62 -3.39)"/><path class="cls-4" d="M182.73,135.39h-2.65l-.51,1.24h-1.35l2.55-5.79h1.3l2.56,5.79h-1.39Zm-.41-1-.91-2.21-.91,2.21Z" transform="translate(-8.62 -3.39)"/><path class="cls-4" d="M190.47,130.84v5.79h-1.09l-2.85-3.51v3.51h-1.31v-5.79h1.1l2.84,3.52v-3.52Z" transform="translate(-8.62 -3.39)"/><path class="cls-4" d="M193.9,134.36l-.77.81v1.46h-1.31v-5.79h1.31v2.71l2.53-2.71h1.47l-2.36,2.58,2.5,3.21h-1.54Z" transform="translate(-8.62 -3.39)"/><path class="cls-4" d="M176.9,159.1h-1.05v1.4h-.54v-1.4h-3v-.39l2.78-3.52h.6L173,158.62h2.28v-1.23h.53v1.23h1.05Z" transform="translate(-8.62 -3.39)"/><path class="cls-4" d="M180.75,159c0,.89-.64,1.57-1.9,1.57a2.68,2.68,0,0,1-1.89-.68l.26-.43a2.31,2.31,0,0,0,1.63.61c.87,0,1.35-.41,1.35-1.07s-.45-1.05-1.42-1.05h-.38v-.4l1.46-1.85h-2.69v-.48h3.38v.38l-1.49,1.89C180.19,157.52,180.75,158.12,180.75,159Z" transform="translate(-8.62 -3.39)"/><path class="cls-4" d="M185,158.93c0,.91-.63,1.61-1.91,1.61a2.66,2.66,0,0,1-1.88-.68l.26-.43a2.29,2.29,0,0,0,1.61.61c.9,0,1.37-.44,1.37-1.08s-.42-1.11-1.76-1.11h-1.11l.27-2.66h2.87v.48h-2.4l-.18,1.69h.67C184.4,157.36,185,158,185,158.93Z" transform="translate(-8.62 -3.39)"/><path class="cls-4" d="M189.62,158.91a1.64,1.64,0,0,1-1.79,1.63c-1.39,0-2.15-1-2.15-2.65s1-2.75,2.4-2.75a2.42,2.42,0,0,1,1.24.29l-.22.44a1.84,1.84,0,0,0-1-.25c-1.13,0-1.86.74-1.86,2.18a3.59,3.59,0,0,0,0,.43,1.67,1.67,0,0,1,1.6-.91A1.6,1.6,0,0,1,189.62,158.91Zm-.53,0a1.16,1.16,0,0,0-1.32-1.15,1.22,1.22,0,0,0-1.35,1.16c0,.59.48,1.14,1.39,1.14A1.16,1.16,0,0,0,189.09,158.93Z" transform="translate(-8.62 -3.39)"/><path class="cls-4" d="M201,160.5l-1.25-1.67-1.26,1.67h-.6l1.56-2.05-1.48-1.94h.6l1.18,1.56,1.19-1.56h.58L200,158.45l1.57,2.05Z" transform="translate(-8.62 -3.39)"/><path class="cls-4" d="M205,160.5l-1.25-1.67-1.26,1.67h-.6l1.56-2.05-1.49-1.94h.6l1.19,1.56,1.18-1.56h.59L204,158.45l1.58,2.05Z" transform="translate(-8.62 -3.39)"/><path class="cls-4" d="M209,160.5l-1.25-1.67-1.26,1.67h-.6l1.56-2.05-1.48-1.94h.6l1.18,1.56,1.18-1.56h.59L208,158.45l1.58,2.05Z" transform="translate(-8.62 -3.39)"/><path class="cls-4" d="M213,160.5l-1.26-1.67-1.26,1.67h-.6l1.56-2.05-1.48-1.94h.6l1.18,1.56,1.19-1.56h.58L212,158.45l1.57,2.05Z" transform="translate(-8.62 -3.39)"/><path class="cls-4" d="M226.8,160.5l-1.25-1.67-1.26,1.67h-.6l1.56-2.05-1.49-1.94h.6l1.19,1.56,1.18-1.56h.59l-1.49,1.94,1.58,2.05Z" transform="translate(-8.62 -3.39)"/><path class="cls-4" d="M230.8,160.5l-1.25-1.67-1.26,1.67h-.6l1.56-2.05-1.48-1.94h.6l1.18,1.56,1.19-1.56h.58l-1.48,1.94,1.57,2.05Z" transform="translate(-8.62 -3.39)"/><path class="cls-4" d="M234.81,160.5l-1.25-1.67-1.26,1.67h-.6l1.56-2.05-1.49-1.94h.6l1.19,1.56,1.18-1.56h.59l-1.49,1.94,1.58,2.05Z" transform="translate(-8.62 -3.39)"/><path class="cls-4" d="M238.81,160.5l-1.25-1.67-1.26,1.67h-.6l1.56-2.05-1.48-1.94h.6l1.18,1.56,1.18-1.56h.59l-1.49,1.94,1.58,2.05Z" transform="translate(-8.62 -3.39)"/><path class="cls-4" d="M251.23,155.19v5.31h-.54v-4.83h-1.24v-.48Z" transform="translate(-8.62 -3.39)"/><path class="cls-4" d="M256,159c0,.89-.64,1.57-1.9,1.57a2.68,2.68,0,0,1-1.89-.68l.26-.43a2.31,2.31,0,0,0,1.63.61c.87,0,1.35-.41,1.35-1.07s-.45-1.05-1.42-1.05h-.38v-.4l1.46-1.85h-2.69v-.48h3.38v.38l-1.49,1.89C255.39,157.52,256,158.12,256,159Z" transform="translate(-8.62 -3.39)"/><path class="cls-4" d="M261.17,159.1h-1.05v1.4h-.54v-1.4h-3v-.39l2.78-3.52h.6l-2.68,3.43h2.28v-1.23h.52v1.23h1.05Z" transform="translate(-8.62 -3.39)"/><path class="cls-4" d="M265.22,160v.49h-3.68v-.39l2.18-2.16a1.77,1.77,0,0,0,.7-1.31c0-.62-.42-1-1.22-1a1.79,1.79,0,0,0-1.44.59l-.38-.33a2.36,2.36,0,0,1,1.86-.76c1.06,0,1.74.55,1.74,1.44a2.22,2.22,0,0,1-.86,1.66L262.33,160Z" transform="translate(-8.62 -3.39)"/><path class="cls-4" d="M169.65,171.52a1.37,1.37,0,0,1,2.39-.86l-.37.34a.82.82,0,0,0-.63-.29.81.81,0,0,0,0,1.62.8.8,0,0,0,.63-.3l.37.34a1.28,1.28,0,0,1-1,.46A1.29,1.29,0,0,1,169.65,171.52Z" transform="translate(-8.62 -3.39)"/><path class="cls-4" d="M174,172.24h-1.16l-.22.54h-.6l1.12-2.53h.57l1.12,2.53h-.61Zm-.18-.44-.4-1-.4,1Z" transform="translate(-8.62 -3.39)"/><path class="cls-4" d="M176.72,172.78l-.48-.7h-.53v.7h-.58v-2.53h1.08c.67,0,1.09.35,1.09.92a.82.82,0,0,1-.52.8l.56.81Zm-.54-2.05h-.47v.88h.47c.35,0,.53-.17.53-.44S176.53,170.73,176.18,170.73Z" transform="translate(-8.62 -3.39)"/><path class="cls-4" d="M177.56,172.53l.2-.44a1.44,1.44,0,0,0,.83.27c.34,0,.48-.12.48-.27,0-.48-1.46-.15-1.46-1.09,0-.44.35-.79,1.06-.79a1.66,1.66,0,0,1,.87.22l-.18.45a1.33,1.33,0,0,0-.69-.2c-.35,0-.48.13-.48.29,0,.46,1.46.14,1.46,1.07,0,.43-.35.79-1.07.79A1.76,1.76,0,0,1,177.56,172.53Z" transform="translate(-8.62 -3.39)"/><path class="cls-4" d="M183.36,170.25v2.53h-.58v-1h-1.14v1h-.58v-2.53h.58v1h1.14v-1Z" transform="translate(-8.62 -3.39)"/><path class="cls-4" d="M183.8,171.52a1.37,1.37,0,1,1,1.37,1.31A1.3,1.3,0,0,1,183.8,171.52Zm2.15,0a.78.78,0,1,0-.78.81A.76.76,0,0,0,186,171.52Z" transform="translate(-8.62 -3.39)"/><path class="cls-4" d="M187,170.25h.58v2.06h1.26v.47H187Z" transform="translate(-8.62 -3.39)"/><path class="cls-4" d="M189.15,170.25h1.13a1.27,1.27,0,1,1,0,2.53h-1.13Zm1.1,2.05a.79.79,0,1,0,0-1.57h-.52v1.57Z" transform="translate(-8.62 -3.39)"/><path class="cls-4" d="M194.05,172.31v.47h-1.94v-2.53H194v.47h-1.32v.55h1.16v.46h-1.16v.58Z" transform="translate(-8.62 -3.39)"/><path class="cls-4" d="M196.11,172.78l-.49-.7h-.53v.7h-.58v-2.53h1.08c.67,0,1.09.35,1.09.92a.83.83,0,0,1-.51.8l.56.81Zm-.55-2.05h-.47v.88h.47c.36,0,.54-.17.54-.44S195.92,170.73,195.56,170.73Z" transform="translate(-8.62 -3.39)"/><rect class="cls-4" x="160.45" y="175.69" width="37.16" height="3.25" rx="1.59"/><rect class="cls-4" x="238.38" y="175.69" width="20.64" height="3.25" rx="1.59"/><g class="cls-12"><path class="cls-4" d="M275.69,117.19H161.94a4.06,4.06,0,0,0-4,4.09v20.64c7.19,5.07,17.06,6,25.81,4.11,10.33-2.19,19.67-7.52,29.29-11.9s20.18-7.89,30.58-6.09c9.8,1.7,18.17,7.88,27,12.46a52.93,52.93,0,0,0,9.1,3.71V121.28A4.06,4.06,0,0,0,275.69,117.19Z" transform="translate(-8.62 -3.39)"/></g><rect class="cls-9" x="151.84" y="222.43" width="31.62" height="31.99" rx="8.78"/><ellipse class="cls-11" cx="165.17" cy="245.29" rx="1.29" ry="1.31"/><ellipse class="cls-11" cx="172.35" cy="245.29" rx="1.29" ry="1.31"/><rect class="cls-3" x="193.94" y="228.05" width="64.15" height="7.72" rx="3.77"/><rect class="cls-3" x="193.94" y="243.22" width="32.43" height="7.72" rx="3.77"/><path class="cls-3" d="M293.37,213.77c0,.13-33.38.23-74.55.23s-74.56-.1-74.56-.23,33.38-.22,74.56-.22S293.37,213.65,293.37,213.77Z" transform="translate(-8.62 -3.39)"/><rect class="cls-9" x="162.37" y="267.24" width="97.25" height="33.17" rx="16.21"/><path class="cls-4" d="M217.69,285.64c0,1.67-1.24,2.7-3.21,2.7h-1.27v1.92h-2v-7.33h3.31C216.45,282.93,217.69,284,217.69,285.64Zm-2.07,0c0-.68-.42-1.07-1.27-1.07h-1.14v2.14h1.14C215.2,286.71,215.62,286.31,215.62,285.64Z" transform="translate(-8.62 -3.39)"/><path class="cls-4" d="M223.18,288.83h-3.07l-.57,1.43h-2.08l3.19-7.33h2l3.21,7.33h-2.13Zm-.6-1.52-.93-2.35-.94,2.35Z" transform="translate(-8.62 -3.39)"/><path class="cls-4" d="M229.88,287.63v2.63h-2V287.6l-2.76-4.67h2.16l1.72,2.91,1.72-2.91h2Z" transform="translate(-8.62 -3.39)"/><ellipse class="cls-9" cx="153.77" cy="81.23" rx="6.31" ry="6.38"/><rect class="cls-3" x="186.55" y="77.95" width="47.28" height="5.6" rx="2.74"/><rect class="cls-6" x="167.51" y="309.97" width="96.52" height="6.52"/><path class="cls-15" d="M180.7,316.62c.85.29,12.15.29,12.15,22.87s-.56,50.6,11.31,51.46,74.33,0,74.33,0V334.27a17.09,17.09,0,0,0-16.89-17.18Z" transform="translate(-8.62 -3.39)"/><path class="cls-6" d="M180.7,316.62l47,.14,23.82.09,6.53,0a37.62,37.62,0,0,1,6.75.34,17.07,17.07,0,0,1,6.42,2.68,17.36,17.36,0,0,1,4.93,5.23,17.55,17.55,0,0,1,2.45,7,29.7,29.7,0,0,1,.14,3.77c0,1.26,0,2.52,0,3.8v15.56c0,10.57,0,21.52,0,32.73v3.2h-.22c-21.85.27-42.62.46-61.5.31q-3.54,0-7-.11a66.92,66.92,0,0,1-6.81-.37,7.7,7.7,0,0,1-3.07-1.45,11.69,11.69,0,0,1-2.2-2.52,23.28,23.28,0,0,1-2.52-6,67.35,67.35,0,0,1-2-12.11c-.35-3.93-.5-7.71-.59-11.31-.18-7.2,0-13.72-.12-19.43s-1-10.63-2.73-14.24a15.45,15.45,0,0,0-3-4.31,11.16,11.16,0,0,0-3.19-2.15,16.14,16.14,0,0,0-3.05-.88l.8.12a11.47,11.47,0,0,1,2.29.67,11.76,11.76,0,0,1,3.24,2.14,15.58,15.58,0,0,1,3.08,4.34c1.79,3.63,2.69,8.59,2.82,14.3s0,12.24.19,19.43c.1,3.6.26,7.37.61,11.28a67.11,67.11,0,0,0,2,12.05,22.74,22.74,0,0,0,2.49,5.87,11.16,11.16,0,0,0,2.12,2.43,7.26,7.26,0,0,0,2.9,1.37c2.16.29,4.47.27,6.75.35s4.63.09,7,.1c18.87.13,39.64-.08,61.48-.34l-.21.22V355.24q0-7.94,0-15.56v-3.8a32.69,32.69,0,0,0-.14-3.72A17.11,17.11,0,0,0,271,320.24a16.69,16.69,0,0,0-6.28-2.64,37.18,37.18,0,0,0-6.66-.34l-6.49,0L227.81,317Z" transform="translate(-8.62 -3.39)"/><path class="cls-3" d="M204.44,391s9.77,0,11.87-14.58c2.49-17.37,0-32.59,13.28-33.16s48.9,0,48.9,0V391Z" transform="translate(-8.62 -3.39)"/><path class="cls-15" d="M227.92,343.38s10.72-1.32,10.72,16.69.28,29.92,12.15,31.26,84.79,0,84.79,0S324,385.8,323.14,369.51,318.9,343.27,307.31,343,227.92,343.38,227.92,343.38Z" transform="translate(-8.62 -3.39)"/><path class="cls-6" d="M227.92,343.38l.72,0,2.11-.05,8.12-.12,29.89-.33,20.66-.15h11.52c2,0,4,0,6,.06a17,17,0,0,1,6.12,1.19,12.48,12.48,0,0,1,5,4,21,21,0,0,1,2.94,5.9,58.56,58.56,0,0,1,2.22,13.39c.08,1.15.14,2.31.26,3.46l.17,1.72.32,1.71.16.86.23.84.48,1.69a29.61,29.61,0,0,0,1.34,3.25,23.48,23.48,0,0,0,9.5,10.33l.74.41h-.83l-2,0c-19.57.32-38.21.54-55.17.53-8.48,0-16.54,0-24.08-.36a32.85,32.85,0,0,1-5.55-.61,11,11,0,0,1-4.8-2.45,11.93,11.93,0,0,1-3-4.27,22.59,22.59,0,0,1-1.43-4.79,62.29,62.29,0,0,1-.92-9.22c-.11-2.92-.11-5.68-.11-8.26,0-1.29,0-2.53-.06-3.72,0-.6,0-1.18-.08-1.75s-.14-1.13-.21-1.67c0-.28-.06-.55-.1-.81s-.11-.53-.17-.78q-.17-.76-.33-1.5l-.47-1.39-.23-.66-.3-.62a10.47,10.47,0,0,0-2.81-3.8,8.24,8.24,0,0,0-3-1.68,7.88,7.88,0,0,0-2.1-.39,5.32,5.32,0,0,0-.54,0h-.19a.88.88,0,0,1,.19,0,4.26,4.26,0,0,1,.54,0,8,8,0,0,1,2.12.35,8.21,8.21,0,0,1,3.08,1.67,10.64,10.64,0,0,1,2.87,3.83c1.68,3.27,2.06,7.85,2,13,0,2.58,0,5.33.15,8.25a62.85,62.85,0,0,0,.94,9.17,23.14,23.14,0,0,0,1.42,4.71,11.75,11.75,0,0,0,2.91,4.16,10.91,10.91,0,0,0,4.66,2.36,35,35,0,0,0,5.49.58c7.52.31,15.58.32,24.06.32,16.95,0,35.6-.24,55.16-.57l2,0-.09.42a23.78,23.78,0,0,1-9.7-10.53,30.75,30.75,0,0,1-1.37-3.31l-.48-1.71-.23-.86-.16-.87-.33-1.73-.17-1.75c-.12-1.17-.18-2.32-.26-3.47A58.5,58.5,0,0,0,320.59,354a20.42,20.42,0,0,0-2.87-5.78,12.07,12.07,0,0,0-4.8-3.92,16.59,16.59,0,0,0-6-1.16c-2,0-4-.06-6-.07H289.42l-20.66.09-29.89.19-8.12,0h-2.83Z" transform="translate(-8.62 -3.39)"/><path class="cls-6" d="M230.75,343.35s-.86,0-2.37.18a10.12,10.12,0,0,0-5.68,2.79,16.27,16.27,0,0,0-4.22,8.5c-.77,3.57-.81,7.62-1,11.85a59.88,59.88,0,0,1-1.37,11.89,29.8,29.8,0,0,1-1.75,4.94,18.1,18.1,0,0,1-2.31,3.93,8.88,8.88,0,0,1-5.52,3.37,10.75,10.75,0,0,1-1.77.17,4.09,4.09,0,0,1-.61,0,2.7,2.7,0,0,1,.61-.07,12.75,12.75,0,0,0,1.74-.25,9.89,9.89,0,0,0,2.58-1,9.62,9.62,0,0,0,2.73-2.42,18.11,18.11,0,0,0,2.22-3.88,29.51,29.51,0,0,0,1.69-4.89,61,61,0,0,0,1.32-11.81c.18-4.22.23-8.3,1-11.92a16.49,16.49,0,0,1,4.4-8.63,10.33,10.33,0,0,1,6.9-2.82,5.93,5.93,0,0,1,.75,0A2.5,2.5,0,0,1,230.75,343.35Z" transform="translate(-8.62 -3.39)"/><path class="cls-3" d="M266.31,329.71c0,.12-13.69.22-30.58.22s-30.59-.1-30.59-.22,13.7-.23,30.59-.23S266.31,329.58,266.31,329.71Z" transform="translate(-8.62 -3.39)"/><path class="cls-3" d="M267.58,338.91c0,.12-13.24.22-29.58.22s-29.57-.1-29.57-.22,13.24-.22,29.57-.22S267.58,338.79,267.58,338.91Z" transform="translate(-8.62 -3.39)"/><path class="cls-3" d="M309.28,356.81c0,.12-13.69.22-30.58.22s-30.59-.1-30.59-.22,13.7-.22,30.59-.22S309.28,356.69,309.28,356.81Z" transform="translate(-8.62 -3.39)"/><path class="cls-3" d="M310,367.55c0,.12-12.56.22-28.05.22s-28.06-.1-28.06-.22,12.56-.23,28.06-.23S310,367.42,310,367.55Z" transform="translate(-8.62 -3.39)"/><rect class="cls-4" x="241.69" y="124.64" width="11.28" height="11.41" rx="3.15"/><path class="cls-4" d="M50.56,115.51,45,114.82a21.13,21.13,0,0,1-12.47,3.64,21.69,21.69,0,0,1,1.17-43.37A21.74,21.74,0,0,1,50.5,109.41h0Z" transform="translate(-8.62 -3.39)"/><path class="cls-6" d="M50.56,115.51s0-.15,0-.42,0-.67,0-1.17c0-1-.05-2.56-.09-4.52l.13.07h0a.07.07,0,0,1-.11,0,.09.09,0,0,1,0-.1A21.78,21.78,0,0,0,54.2,99.7,22.41,22.41,0,0,0,54,92.85a21.55,21.55,0,0,0-8.56-13.51,20.72,20.72,0,0,0-8.4-3.67,21.67,21.67,0,0,0-9.72.42,20.84,20.84,0,0,0-8.86,5.1,21.73,21.73,0,0,0-3.35,4.08c-.43.76-.88,1.52-1.24,2.3l-.51,1.19-.25.6-.19.61a22.09,22.09,0,0,0-.88,9.9,21.12,21.12,0,0,0,3.31,8.73,22,22,0,0,0,6,6.13,21.45,21.45,0,0,0,7.1,3.09l1.77.31c.59.09,1.17.1,1.74.16a19.78,19.78,0,0,0,3.28-.07,21.26,21.26,0,0,0,9.65-3.46h0l4.12.55,1.08.15.38.06-.35,0-1.07-.11L45,114.9h0a21.1,21.1,0,0,1-9.71,3.58,19.14,19.14,0,0,1-3.32.09c-.57,0-1.16-.06-1.75-.15l-1.8-.31a21.52,21.52,0,0,1-7.22-3.1,22,22,0,0,1-6.13-6.21,21.4,21.4,0,0,1-3.39-8.86,22.59,22.59,0,0,1,.88-10.08l.2-.63.25-.6c.17-.41.34-.81.52-1.22.37-.8.82-1.56,1.26-2.34a22.49,22.49,0,0,1,3.41-4.15,21.16,21.16,0,0,1,9-5.19,21.9,21.9,0,0,1,9.9-.42,21.1,21.1,0,0,1,8.54,3.75,22.27,22.27,0,0,1,5.86,6.39A21.83,21.83,0,0,1,54.3,92.8a22.27,22.27,0,0,1,.15,6.93,21.78,21.78,0,0,1-3.88,9.73l-.12-.11h0a.08.08,0,0,1,.11,0,.17.17,0,0,1,0,.05c0,2,0,3.51,0,4.56,0,.5,0,.89,0,1.16S50.56,115.51,50.56,115.51Z" transform="translate(-8.62 -3.39)"/><polygon class="cls-9" points="14.99 94.71 17.68 91.8 23.2 96.44 33.38 85.83 36.06 88.56 22.98 101.88 14.99 94.71"/><path class="cls-16" d="M70.9,87.84A16.27,16.27,0,0,1,88.11,74L89,74c9,1.2,13,9.6,11.58,18.66L97.4,124.87l-.15,6.65-21.43,2,.46-14s-8.59-2-8.06-10.8C68.47,104.4,69.7,95.7,70.9,87.84Z" transform="translate(-8.62 -3.39)"/><path class="cls-17" d="M76.21,119.43a20.87,20.87,0,0,0,11.62-2.53s-3,6.34-11.63,4.91Z" transform="translate(-8.62 -3.39)"/><path class="cls-6" d="M74.26,96.6A1.25,1.25,0,0,0,75.37,98a1.19,1.19,0,0,0,1.36-1,1.26,1.26,0,0,0-1.1-1.36A1.21,1.21,0,0,0,74.26,96.6Z" transform="translate(-8.62 -3.39)"/><path class="cls-6" d="M72.46,92.28c.14.17,1.13-.46,2.46-.36s2.27.85,2.42.69-.06-.37-.46-.72A3.44,3.44,0,0,0,75,91.13a3.35,3.35,0,0,0-2,.49C72.55,91.91,72.39,92.2,72.46,92.28Z" transform="translate(-8.62 -3.39)"/><path class="cls-6" d="M86.77,97.81a1.25,1.25,0,0,0,1.1,1.35,1.19,1.19,0,0,0,1.36-1,1.24,1.24,0,0,0-1.1-1.35A1.19,1.19,0,0,0,86.77,97.81Z" transform="translate(-8.62 -3.39)"/><path class="cls-6" d="M85.56,93.49c.14.18,1.13-.45,2.46-.35s2.27.85,2.42.69,0-.37-.46-.72a3.44,3.44,0,0,0-1.92-.76,3.27,3.27,0,0,0-2,.49C85.65,93.13,85.49,93.42,85.56,93.49Z" transform="translate(-8.62 -3.39)"/><path class="cls-6" d="M80,103.15a8.72,8.72,0,0,0-2.14-.56c-.33-.06-.65-.15-.69-.39a1.65,1.65,0,0,1,.3-1c.38-.81.78-1.66,1.19-2.56A45.16,45.16,0,0,0,81.41,92a46.25,46.25,0,0,0-3.28,6.45c-.4.9-.79,1.76-1.16,2.57a2.05,2.05,0,0,0-.27,1.34.86.86,0,0,0,.52.55,2.4,2.4,0,0,0,.58.12A8.71,8.71,0,0,0,80,103.15Z" transform="translate(-8.62 -3.39)"/><path class="cls-6" d="M83.85,104.37c-.21,0-.32,1.44-1.64,2.39s-2.84.67-2.87.87.33.31,1,.38a3.6,3.6,0,0,0,2.39-.65,3.18,3.18,0,0,0,1.28-2C84.09,104.74,84,104.37,83.85,104.37Z" transform="translate(-8.62 -3.39)"/><path class="cls-6" d="M85.59,88.18c.11.38,1.45.3,3,.61s2.79.83,3,.51c.11-.15-.09-.51-.57-.9a5.17,5.17,0,0,0-2.2-1,5.1,5.1,0,0,0-2.39.11C85.86,87.73,85.55,88,85.59,88.18Z" transform="translate(-8.62 -3.39)"/><path class="cls-6" d="M73.23,88.41c.21.32,1.15.07,2.26.14s2,.35,2.27,0c.1-.15,0-.47-.41-.79a3.23,3.23,0,0,0-3.65-.15C73.29,87.94,73.14,88.25,73.23,88.41Z" transform="translate(-8.62 -3.39)"/><path class="cls-16" d="M98.52,101.15A2.37,2.37,0,0,1,101.23,99c1.61.27,3.35,1.34,3,4.71-.63,6-6.45,4.13-6.44,4S98.24,103.65,98.52,101.15Z" transform="translate(-8.62 -3.39)"/><path class="cls-17" d="M99.31,105.59s.1.08.27.18a1,1,0,0,0,.77.1,2.61,2.61,0,0,0,1.42-2.19,3.49,3.49,0,0,0-.14-1.53,1.18,1.18,0,0,0-.69-.88.53.53,0,0,0-.64.22c-.09.16-.07.28-.1.29s-.12-.11,0-.36a.66.66,0,0,1,.27-.35A.76.76,0,0,1,101,101a1.48,1.48,0,0,1,1,1,3.69,3.69,0,0,1,.18,1.71,2.71,2.71,0,0,1-1.77,2.43,1.09,1.09,0,0,1-.93-.26C99.31,105.73,99.29,105.6,99.31,105.59Z" transform="translate(-8.62 -3.39)"/><path class="cls-6" d="M103.27,95c-.49,1.72-.31,4.57-1.83,4.18-3-.77-2.29,5.48-3.74,4.87s-2.69-2.38-2.78-6.22c-.11-4.88,1.83-8.41-.07-14a7.28,7.28,0,0,0-6.09-3.83,7.4,7.4,0,0,0-6.4,3.43c-.27-1.71-1.09-4.27-2.59-5.09a4.31,4.31,0,0,0-4.8.4,3.6,3.6,0,0,0-.62,4.66,1.69,1.69,0,0,1-1.9-.69A2.94,2.94,0,0,0,73.21,85a2.67,2.67,0,0,1-1.53-1.08L72.13,86c-2.54.07-5-2.42-5.74-4.63A11.61,11.61,0,0,1,68,71.63a10.43,10.43,0,0,1,8.66-5.06,8,8,0,0,1,7.75,5c2.26-1.62,6.84-2.18,9.37-1A8.21,8.21,0,0,1,98.41,77a4.82,4.82,0,0,1,4.8.94l.32.29A7.36,7.36,0,0,1,105.64,85c-.19,1-.52,2-.72,2.78C104.34,90.12,103.27,95,103.27,95Z" transform="translate(-8.62 -3.39)"/><path class="cls-18" d="M72.06,82.6s-.08,0-.21-.16a4.3,4.3,0,0,1-.5-.55,5.27,5.27,0,0,1-1-2.56,4.91,4.91,0,0,1,1.18-3.84,5.18,5.18,0,0,1,4.53-1.73,5.87,5.87,0,0,1,2.41.95,8,8,0,0,1,1.77,1.64A9.63,9.63,0,0,1,82.07,80a9.26,9.26,0,0,1,.29,2.73c0,.32,0,.57-.07.74s-.05.26-.05.26A11.86,11.86,0,0,0,81.89,80a9.81,9.81,0,0,0-1.83-3.53A6.64,6.64,0,0,0,76,74a5,5,0,0,0-4.32,1.63,4.77,4.77,0,0,0-1.18,3.66,5.36,5.36,0,0,0,.9,2.52C71.8,82.35,72.08,82.58,72.06,82.6Z" transform="translate(-8.62 -3.39)"/><path class="cls-18" d="M70.89,85.29s-.07-.1-.18-.3-.26-.48-.46-.86a19.41,19.41,0,0,1-1.4-3.35,9.92,9.92,0,0,1-.39-2.49A7.13,7.13,0,0,1,69,75.44,5.5,5.5,0,0,1,71,73a6.65,6.65,0,0,1,3.23-1.08,8,8,0,0,1,3.35.54A10.59,10.59,0,0,1,80.34,74a8.26,8.26,0,0,1,3,4.4,6.09,6.09,0,0,1-.17,3.6,4.78,4.78,0,0,1-.45.89l-.2.27A9.64,9.64,0,0,0,83.07,82a6.06,6.06,0,0,0,.09-3.53,8.17,8.17,0,0,0-3-4.25,9,9,0,0,0-5.94-2,6.35,6.35,0,0,0-3.09,1,5.29,5.29,0,0,0-2,2.33,7,7,0,0,0-.52,2.75A10.1,10.1,0,0,0,69,80.73a21.69,21.69,0,0,0,1.31,3.35l.42.89A1,1,0,0,1,70.89,85.29Z" transform="translate(-8.62 -3.39)"/><path class="cls-18" d="M101.17,91.16s.55-.45,1.27-1.32a9.14,9.14,0,0,0,1.9-3.92,9.24,9.24,0,0,0-.2-4.35c-.32-1.09-.69-1.7-.65-1.72s.12.14.28.42a7.34,7.34,0,0,1,.55,1.24,8.75,8.75,0,0,1,.27,4.47,8.64,8.64,0,0,1-2,4,6.52,6.52,0,0,1-1,.93A1.7,1.7,0,0,1,101.17,91.16Z" transform="translate(-8.62 -3.39)"/><path class="cls-18" d="M95.77,91s.3-.14.77-.46A4.37,4.37,0,0,0,98,88.7l.25-.57,0,.63c-.08.84-.16,1.81-.26,2.87l-.19-.12A7.85,7.85,0,0,0,101,86.43a8.28,8.28,0,0,0,0-2.82,11.53,11.53,0,0,0-.84-2.48s0,.05.11.15a3.67,3.67,0,0,1,.26.45,7.73,7.73,0,0,1,.65,1.84,7.89,7.89,0,0,1,.07,2.9,7.77,7.77,0,0,1-1.35,3.28,8,8,0,0,1-2,2l-.22.15,0-.27c.11-1,.22-2,.3-2.86l.2.05a4.26,4.26,0,0,1-1.62,1.83,3,3,0,0,1-.6.3A1.05,1.05,0,0,1,95.77,91Z" transform="translate(-8.62 -3.39)"/><path class="cls-18" d="M94.12,78.35a5.41,5.41,0,0,0-1.37-1.73,5,5,0,0,0-2.13-1,5.28,5.28,0,0,0-2.86.26,6.1,6.1,0,0,0-2.39,1.64,7.24,7.24,0,0,0-1.29,2,15.44,15.44,0,0,0-.65,2.15,2.54,2.54,0,0,1,0-.61,6.83,6.83,0,0,1,.43-1.61,7.39,7.39,0,0,1,1.28-2.12,6.27,6.27,0,0,1,2.48-1.72,5.46,5.46,0,0,1,3-.25,5.1,5.1,0,0,1,2.21,1.1,4.6,4.6,0,0,1,1,1.3c.08.18.15.32.18.42S94.13,78.34,94.12,78.35Z" transform="translate(-8.62 -3.39)"/><path class="cls-18" d="M92.74,73.77a7.9,7.9,0,0,0-1.64-.64,5.81,5.81,0,0,0-4.07.58,7.41,7.41,0,0,0-2.89,3c-.51,1-.68,1.65-.73,1.63a1.66,1.66,0,0,1,.1-.47A6.3,6.3,0,0,1,84,76.66a7.14,7.14,0,0,1,2.92-3.18A5.76,5.76,0,0,1,91.14,73a4.42,4.42,0,0,1,1.21.52A1.4,1.4,0,0,1,92.74,73.77Z" transform="translate(-8.62 -3.39)"/><path class="cls-6" d="M73.66,356.91l.59,16.45s-16.32,6.13-16.5,9.18l31.56,0,.11-25.66Z" transform="translate(-8.62 -3.39)"/><path class="cls-3" d="M84,372a1.3,1.3,0,0,1,.89,1.49,1.22,1.22,0,0,1-1.44.91,1.38,1.38,0,0,1-.94-1.58,1.28,1.28,0,0,1,1.61-.78" transform="translate(-8.62 -3.39)"/><path class="cls-6" d="M89.31,382.52l-.09-2.59-30.23,1s-1.4.62-1.24,1.62Z" transform="translate(-8.62 -3.39)"/><path class="cls-4" d="M73.74,373.19c0,.16.78.23,1.54.73s1.16,1.16,1.3,1.09-.09-1-1-1.55S73.71,373.05,73.74,373.19Z" transform="translate(-8.62 -3.39)"/><path class="cls-4" d="M70.43,374.58c0,.15.64.42,1.16,1.08s.68,1.35.83,1.34.25-.88-.42-1.69S70.44,374.43,70.43,374.58Z" transform="translate(-8.62 -3.39)"/><path class="cls-4" d="M68.56,378.59c.14,0,.35-.75,0-1.6s-1.11-1.19-1.18-1.06.38.58.7,1.29S68.4,378.58,68.56,378.59Z" transform="translate(-8.62 -3.39)"/><path class="cls-4" d="M74,369.43c.06.14.77-.07,1.64,0s1.55.33,1.63.2-.57-.69-1.6-.75S73.94,369.31,74,369.43Z" transform="translate(-8.62 -3.39)"/><path class="cls-6" d="M109.87,358.42l1.26,19.86-3.48,16a2,2,0,0,0,1.67,2.45h0a2,2,0,0,0,1.74-.59c2.89-3,13.44-14.26,13.26-15.71-.2-1.68.06-21.05.06-21.05Z" transform="translate(-8.62 -3.39)"/><path class="cls-6" d="M109.32,396.74l15-17.64,0,.84a3.1,3.1,0,0,1-.63,2c-1.19,1.54-4.57,5.7-12.55,14.18a2,2,0,0,1-1.8.6Z" transform="translate(-8.62 -3.39)"/><g class="cls-19"><path class="cls-4" d="M120,372.85a1.25,1.25,0,0,0-.26,1.62,1.17,1.17,0,0,0,1.59.29,1.33,1.33,0,0,0,.27-1.73,1.2,1.2,0,0,0-1.68-.1" transform="translate(-8.62 -3.39)"/></g><path class="cls-4" d="M113.46,387.87a6.21,6.21,0,0,0-1.79-1.48,5.94,5.94,0,0,0-2.28-.34c0-.05.22-.22.68-.3a3.18,3.18,0,0,1,3.15,1.41C113.46,387.56,113.51,387.85,113.46,387.87Z" transform="translate(-8.62 -3.39)"/><path class="cls-4" d="M112.17,390.59c-.1.09-.75-.53-1.78-.78a18.8,18.8,0,0,0-1.93-.18,2.25,2.25,0,0,1,2-.25C111.67,389.68,112.27,390.53,112.17,390.59Z" transform="translate(-8.62 -3.39)"/><path class="cls-4" d="M115.93,384.34a20.66,20.66,0,0,0-2.66-1.39,19.75,19.75,0,0,0-3-.57,4.45,4.45,0,0,1,3.09.16A4.5,4.5,0,0,1,115.93,384.34Z" transform="translate(-8.62 -3.39)"/><path class="cls-4" d="M116,378.27c0,.12-1.15-.29-2.56-.28s-2.53.39-2.57.27a5,5,0,0,1,5.13,0Z" transform="translate(-8.62 -3.39)"/><path class="cls-4" d="M115.82,372.43a9.89,9.89,0,0,0-2.67-.37,10.17,10.17,0,0,0-2.58.77s.18-.3.62-.58a4.3,4.3,0,0,1,1.93-.62,4.22,4.22,0,0,1,2,.32C115.61,372.16,115.85,372.39,115.82,372.43Z" transform="translate(-8.62 -3.39)"/><path class="cls-4" d="M113.14,371a1.77,1.77,0,0,1,0-.75,5.16,5.16,0,0,1,.51-2,2.28,2.28,0,0,1,.94-1.14.8.8,0,0,1,.92.14,1.36,1.36,0,0,1,.34.89,2.87,2.87,0,0,1-2.38,2.76,3.28,3.28,0,0,1-3.32-1.61,1.18,1.18,0,0,1-.09-1,.78.78,0,0,1,.81-.46,2.72,2.72,0,0,1,1.32.63,5.68,5.68,0,0,1,1.41,1.49,1.85,1.85,0,0,1,.33.67A9.48,9.48,0,0,0,112,368.7a2.63,2.63,0,0,0-1.17-.52.42.42,0,0,0-.44.25.79.79,0,0,0,.1.63,2.93,2.93,0,0,0,2.89,1.36,2.5,2.5,0,0,0,2.06-2.32,1,1,0,0,0-.22-.63.44.44,0,0,0-.51-.08,2.16,2.16,0,0,0-.81.95A8,8,0,0,0,113.14,371Z" transform="translate(-8.62 -3.39)"/><path class="cls-14" d="M59.83,217.92a71.37,71.37,0,0,0-2,20.75C58.06,243.1,72.11,371,72.11,371L90,369.32,86.9,249.79l.75.68S98.3,300.76,99,308.71c.64,7.14,9.14,64.55,9.14,64.55l17.34-.83-3.93-72.57L116.29,234l-2.1-19.19Z" transform="translate(-8.62 -3.39)"/><path class="cls-18" d="M90.34,239.48a4.07,4.07,0,0,1-.84.46,9.5,9.5,0,0,1-2.49.81,5.15,5.15,0,0,1-1.83,0,3.81,3.81,0,0,1-1.9-1,4.65,4.65,0,0,1-1.11-2.09c-.22-.78-.33-1.6-.48-2.43-.56-3.33-.92-6.37-1.12-8.57-.1-1.1-.16-2-.19-2.61a5.41,5.41,0,0,1,0-1,3.82,3.82,0,0,1,.17.94l.33,2.6c.27,2.19.68,5.21,1.24,8.53.28,1.64.46,3.31,1.45,4.31a4.08,4.08,0,0,0,3.41,1,10.88,10.88,0,0,0,2.46-.67A4.76,4.76,0,0,1,90.34,239.48Z" transform="translate(-8.62 -3.39)"/><path class="cls-18" d="M84.7,223.77s.14-.11.42-.12a1.79,1.79,0,0,1,1.1.39,2,2,0,0,1,.8,1.57,1.86,1.86,0,0,1-1.31,1.7,1.82,1.82,0,0,1-2.07-.5,2,2,0,0,1-.34-1.74,1.89,1.89,0,0,1,.62-1c.23-.16.39-.19.4-.17a2.3,2.3,0,0,0-.73,1.24,1.77,1.77,0,0,0,.34,1.42,1.48,1.48,0,0,0,1.64.35,1.5,1.5,0,0,0,1.07-1.31,1.78,1.78,0,0,0-.61-1.33A2.12,2.12,0,0,0,84.7,223.77Z" transform="translate(-8.62 -3.39)"/><path class="cls-18" d="M116,232.79a2.44,2.44,0,0,1-.68.09,12,12,0,0,1-1.86,0,17.65,17.65,0,0,1-6-1.54,18.17,18.17,0,0,1-5.1-3.47,12,12,0,0,1-1.26-1.4,2.59,2.59,0,0,1-.39-.57c.06-.05.68.7,1.85,1.74a20.11,20.11,0,0,0,5.07,3.31,20.48,20.48,0,0,0,5.82,1.64C115.07,232.74,116,232.71,116,232.79Z" transform="translate(-8.62 -3.39)"/><path class="cls-18" d="M67.86,223.74a8.43,8.43,0,0,1-1.08,2,23,23,0,0,1-8,7.52,8.1,8.1,0,0,1-2.08.93A22,22,0,0,1,58.63,233a28,28,0,0,0,7.91-7.43A21,21,0,0,1,67.86,223.74Z" transform="translate(-8.62 -3.39)"/><path class="cls-16" d="M50.12,151.52c-2.66,7.84-2.36,7.17-7.33,30.6-.92,4.32.7,11.08,4.55,13.16s10.71-.2,13-4L64,156Z" transform="translate(-8.62 -3.39)"/><line class="cls-11" x1="55.41" y1="124.91" x2="55.41" y2="124.91"/><path class="cls-9" d="M114.2,194l-.1-18.63.07-1.83,18.69-4.41s-3.67-12.23-7-25.37c-2-7.59-8.42-11.4-10-12.23h0l-.34-.16h0l-18-7.7c-3.63,3.92-8.93,7.06-14,5.55a15.92,15.92,0,0,1-7.4-5.1L64,128.32h0a15.74,15.74,0,0,0-8.39,6.87C53.05,139.74,44.94,160.56,44.8,161l15,1.37s-2.67,49.26-1.72,58.06c0,0,3.64,2.55,12.84,3,18.66.9,46.43-.45,46.43-.45-.43-2.84-.89-7.59-1.15-10Z" transform="translate(-8.62 -3.39)"/><path class="cls-6" d="M60.33,144c.07,0-.33,11.75-.89,26.24s-1.09,26.23-1.17,26.23.32-11.75.89-26.24S60.25,144,60.33,144Z" transform="translate(-8.62 -3.39)"/><path class="cls-6" d="M112.15,147.32c-.14,0,.24,10.44.84,23.29s1.19,23.27,1.32,23.26-.24-10.43-.84-23.29S112.28,147.32,112.15,147.32Z" transform="translate(-8.62 -3.39)"/><path class="cls-16" d="M133,178c-.61-4.63-1.12-8.72-1.12-8.72l-15,3.51.64,2.44L106,163.37l-1.83.16-5.82,6.12s5.07,10.83,8,15c3.84,5.48,9.87,13.85,18.13,13.14C132.1,197.19,134,186.3,133,178Z" transform="translate(-8.62 -3.39)"/><path class="cls-17" d="M124.85,180.77a13,13,0,0,0-3.29-3.05,12.6,12.6,0,0,0-3.9-2.18c-.07.12,1.65,1.13,3.62,2.58S124.75,180.88,124.85,180.77Z" transform="translate(-8.62 -3.39)"/><path class="cls-16" d="M85.8,147.87l5.13-2.65,6.66,2.14,3.3,3.08L106,163.37l4.07,5.2L102.86,178l-4.54-8.38s-3.85-1.71-5.39-4.16-2.23-3.8-2.23-3.8-2.23-1.08-2.64-2.12a5.15,5.15,0,0,1-.39-1.84l1.12-1.66a4.2,4.2,0,0,1,.34-2.12,2.08,2.08,0,0,1,.89-.72s-.33-1.4.19-1.9a16,16,0,0,1,3.07-1.43h0L91,148.62S86.07,150.18,85.8,147.87Z" transform="translate(-8.62 -3.39)"/><path class="cls-17" d="M93.42,152.57c0,.06-.79.08-1.73.29s-1.67.5-1.69.44a4,4,0,0,1,1.65-.66A3.79,3.79,0,0,1,93.42,152.57Z" transform="translate(-8.62 -3.39)"/><path class="cls-17" d="M91.88,155.47a14.2,14.2,0,0,1-1.48.19c-.82.12-1.46.32-1.48.26a3.29,3.29,0,0,1,1.44-.48A3.13,3.13,0,0,1,91.88,155.47Z" transform="translate(-8.62 -3.39)"/><path class="cls-17" d="M89.71,160c-.06,0-.11-.29-.1-.66s.06-.66.12-.66.11.3.1.67S89.77,160,89.71,160Z" transform="translate(-8.62 -3.39)"/><path class="cls-17" d="M90.69,161.42a3.06,3.06,0,0,0-.47-1.2,3.25,3.25,0,0,0-1-.76s.16,0,.41,0a1.77,1.77,0,0,1,.8.58,1.74,1.74,0,0,1,.36.93C90.77,161.27,90.72,161.42,90.69,161.42Z" transform="translate(-8.62 -3.39)"/><path class="cls-17" d="M94.71,157.27c-.06,0-.28-.55-.9-.89a3.26,3.26,0,0,0-1.22-.3s.14-.1.39-.12a1.73,1.73,0,0,1,.94.23,1.78,1.78,0,0,1,.68.69C94.72,157.1,94.73,157.26,94.71,157.27Z" transform="translate(-8.62 -3.39)"/><path class="cls-17" d="M97.05,154.4a3.64,3.64,0,0,0-.83-.87,4.18,4.18,0,0,0-1.12-.39s.14-.08.37-.07A1.78,1.78,0,0,1,97,154C97.06,154.24,97.07,154.39,97.05,154.4Z" transform="translate(-8.62 -3.39)"/><path class="cls-17" d="M98.61,153a3,3,0,0,1,0-.45,2.15,2.15,0,0,0-.38-.95,2,2,0,0,0-.79-.64c-.24-.11-.41-.14-.4-.18s.18-.05.46,0a1.73,1.73,0,0,1,.91.65,1.76,1.76,0,0,1,.35,1.07C98.71,152.83,98.64,153,98.61,153Z" transform="translate(-8.62 -3.39)"/><path class="cls-17" d="M96.44,149.61c0,.08-1.08.09-2.37.29s-2.28.67-2.31.6a5.55,5.55,0,0,1,2.27-.81,9.4,9.4,0,0,1,1.7-.13A2.21,2.21,0,0,1,96.44,149.61Z" transform="translate(-8.62 -3.39)"/><g class="cls-8"><path d="M81.81,178.8a9.32,9.32,0,0,0-1.26-4.3c-1.51-2.15-4.46-2.6-7-2.47s-5.29.64-7.73-.26l-7.28,21.88a10.89,10.89,0,0,0,6.58-4.84c.74-1.23,1.28-2.65,2.41-3.52,1.55-1.21,3.7-1,5.66-1a22.6,22.6,0,0,0,6-.9,4.06,4.06,0,0,0,2.21-1.28A4.53,4.53,0,0,0,81.81,178.8Z" transform="translate(-8.62 -3.39)"/></g><path class="cls-6" d="M63.06,153.2l2.26,24.34a3.4,3.4,0,0,0,1.49,2.8L81.4,180a5.84,5.84,0,0,0,1.12-4.14l-1.62-23.3c-.1-1.4-.61-2.41-1.24-2.43l-15.37-.35C63.5,149.79,62.9,151.47,63.06,153.2Z" transform="translate(-8.62 -3.39)"/><path class="cls-16" d="M60.93,158.09a2.18,2.18,0,0,1,0-2.64,3.2,3.2,0,0,1,2.5-1.12,7,7,0,0,1,2.74.64,17.87,17.87,0,0,1,3.08,1.65,3,3,0,0,1,1.52,1.87c.12.83-.79,1.74-1.49,1.31a3.5,3.5,0,0,1,2,2.48c.12,1-.44,1.59-1.44,1.86a1.58,1.58,0,0,1,.85,2,1.78,1.78,0,0,1-2.24.64,5.22,5.22,0,0,1-1.9-1.69,6,6,0,0,1,.25,3.7c-2.17-.81-4.32-3.25-3.67-5.58a3.16,3.16,0,0,1-.87-3.77,3.09,3.09,0,0,1-1.76-2.62" transform="translate(-8.62 -3.39)"/><path class="cls-16" d="M60.69,156l-.17,10.41-2.67,4.05L45.61,181.5s1.82,15,7.34,13.39,6.86-2.71,10.13-8.77c1.74-3.25,2.82-8.54,3.83-11.57.59-1.78.07-7.51.07-7.51Z" transform="translate(-8.62 -3.39)"/><path class="cls-17" d="M69.83,164.15a7.39,7.39,0,0,1-.93-.76A6.52,6.52,0,0,0,66.43,162a3.31,3.31,0,0,0-1.53,0,2.78,2.78,0,0,0-1.12.53,3.4,3.4,0,0,0-.74.91s0-.12.09-.32a2.26,2.26,0,0,1,.54-.72,2.87,2.87,0,0,1,1.18-.62,3.46,3.46,0,0,1,1.63,0A6,6,0,0,1,69,163.26,4.85,4.85,0,0,1,69.83,164.15Z" transform="translate(-8.62 -3.39)"/><path class="cls-17" d="M69.68,159.91a4.48,4.48,0,0,1-1.14-.51c-.34-.17-.75-.39-1.21-.57a9.66,9.66,0,0,0-1.57-.45,4.36,4.36,0,0,0-1.6,0,2.8,2.8,0,0,0-1.2.49,3,3,0,0,0-.8.92.78.78,0,0,1,.1-.33,2.21,2.21,0,0,1,.59-.73,2.93,2.93,0,0,1,1.27-.57,4.15,4.15,0,0,1,1.68,0,8.71,8.71,0,0,1,1.61.48,8.92,8.92,0,0,1,1.21.63A8,8,0,0,1,69.68,159.91Z" transform="translate(-8.62 -3.39)"/><path class="cls-17" d="M46.93,187.48a10.49,10.49,0,0,1-.15-3.88,11.8,11.8,0,0,1,1.45-3.93,18.65,18.65,0,0,1,3.23-4c1.32-1.28,2.67-2.41,3.88-3.46a39.45,39.45,0,0,0,3.09-2.95A16.54,16.54,0,0,0,60.21,167a4,4,0,0,0,.51-.93,7.72,7.72,0,0,0-.64.84,22.39,22.39,0,0,1-1.86,2.17c-.84.86-1.91,1.82-3.13,2.86s-2.58,2.15-3.91,3.46a18.68,18.68,0,0,0-3.28,4.11,11.79,11.79,0,0,0-1.4,4.08,8.53,8.53,0,0,0,.09,2.91,5.18,5.18,0,0,0,.23.76C46.88,187.4,46.92,187.49,46.93,187.48Z" transform="translate(-8.62 -3.39)"/></svg>