<svg xmlns="http://www.w3.org/2000/svg" xmlns:xlink="http://www.w3.org/1999/xlink" width="357" height="287" viewBox="0 0 357 287">
    <defs>
        <path id="prefix__a" d="M10.382 1.226c-2.508 1.64-2.824 5.393-1.484 8.072 1.532 3.062 4.63 5.032 7.393 6.946.734.509 1.227 1.352 1.166 2.243-.123 1.798-2.185 2.1-3.705 1.746-2.317-.539-4.371-1.906-6.674-2.501-2.304-.596-5.235-.095-6.237 2.062C.2 21.172.568 22.862 1.45 24.1c.881 1.237 2.203 2.089 3.559 2.773 3.807 1.923 8.16 2.75 12.407 2.357.868-.08 1.762-.207 2.593.05.832.257 1.58 1.04 1.464 1.902-.11.815-.94 1.367-1.756 1.477-.815.11-1.633-.11-2.445-.245-1.63-.275-3.365-.2-4.856.516-1.49.718-2.688 2.155-2.834 3.8-.218 2.432 1.907 4.586 4.266 5.221 2.36.635 4.863.11 7.226-.515 2.542-.672 5.054-1.459 7.526-2.355.697-.255 1.24.595.735 1.139-1.115 1.201-1.959 2.62-2.276 4.34-.229 1.242-.073 2.555.525 3.667 1.91 3.544 6.296 3.12 9.323 1.372 2.53-1.462 2.209-1.765 4.751-3.203.864-.489 2.473-1.187 3.078-.26.957 1.462-1.479 2.12-3.015 3.36-1.658 1.34-1.687 4.073-.386 5.762 1.302 1.69 5.344 2.844 7.471 2.99 10.38.713 27.702 1.437 29.631.529 1.85-.872 4.637-7.492 4.424-10.088-.294-3.603-1.636-6.556-4.285-12.646-1.355-3.117-5.677-8.508-9.015-9.158-3.338-.65-6.824 1.082-8.973 3.715-.574.704-1.09 1.486-1.856 1.972-1.05.667-2.771.58-2.93-1.168-.076-.82.276-1.615.825-2.228 2.665-2.984 1.46-8.173-2-9.937-3.151-1.607-7.51-.032-8.904 3.219-.668 1.56-.837 1.878-2.537 2.381-1.018.3-2.109-.177-2.741-1.029-1.074-1.446-.803-1.695-.447-3.356.282-1.318.483-2.47.403-3.812-.07-1.175-.635-2.258-1.428-3.129-4.361-4.783-10.063-.334-9.58 4.057.098.911.426 1.805.364 2.722-.074 1.101-1 2.31-2.22 1.74-.706-.331-1.096-1.092-1.138-1.87-.298-5.63-2.446-11.142-6.02-15.503-1.226-1.495-2.658-2.888-4.432-3.66C15.1.63 14.164.426 13.239.426c-1.013 0-2.01.247-2.857.8"/>
        <path id="prefix__c" d="M.287 1.124c.627 2.51 2.083 4.822 4.129 6.413.446.346.948.708 1.214 1.184.324.58.162 1.266-.339 1.702-.472.41-1.07.351-1.505.05-.598-.413-1.427.167-1.271.879.267 1.233 1.762 2.377 3.251 2.404 1.04.019 1.842-.367 2.54-.752 1.165-.644 2.041-1.287 3.257-.045.27.273.5.588.656.938.422.948-.122 2.075-1.074 2.485-1.172.507-2.464.542-3.227-.006-.602-.433-1.435.016-1.35.754.078.682.375 1.354.848 1.852 1.023 1.078 2.63 1.43 4.109 1.29 1.48-.142 2.88-.71 4.27-1.23 1.293-.487 2.731-.944 4.012-.142.691.433 1.048 1.294.746 2.051-.405 1.01-1.617 1.132-2.637 1.15l-4.163.073c-4.67-.448-3.823 1.056-1.316 5.144.549.896 2.108 2.626 2.545 2.58 3.172-.346 5.95-2.308 8.922-3.463 1.13-.437 2.334-.884 3.528-.513.556.172 1.047.552 1.302 1.077.533 1.104-.193 2.027-1.072 2.428-.594.272-1.257.345-1.906.413l-7.792.83c-.734.077-1.618.273-1.84.975-.168.528.143 1.079.44 1.546 1.067 1.681 2.16 3.39 3.68 4.677 1.52 1.288 3.561 2.112 5.513 1.71 1.314-.273 2.455-1.06 3.535-1.856 1.08-.797 2.169-1.635 3.45-2.036 1.51-.473 3.386-.21 4.21 1.28.52.942.32 2.168-.576 2.76-1.084.717-2.415.088-3.628-.234-3.24-.863-7.032.757-8.39 3.93-.184.428-.066.931.271 1.254 1.762 1.683 2.736 2.554 5.34 3.166 2.217.52 7.566-1.856 7.566-1.856 1.068-.33 2.23-.662 3.261-.05.582.344.931 1.028.726 1.672-.291.913-1.333 1.045-2.21 1.081-1.226.05-4.143.936-5.972 1.284-.505.096-.78.642-.554 1.104.88 1.797 2.857 5.442 4.273 5.131.931-.205 5.148-3.356 6.074-3.131.927.225 1.513 1.265 1.399 2.211-.092.775-1.558 2.122-2.549 2.832-.344.249-.502.705-.322 1.09.96 2.058 3.824 3.158 5.948 4.133l.495-.978c2.566-3.87 4.087-8.425 4.377-13.06.029-.486-.538-.761-.905-.441-.56.49-1.186.881-1.913.974-1.45.185-3.154-1.606-1.4-2.835.473-.333 1.05-.496 1.629-.513 2.13-.064 3.153-2.236 2.957-4.111-.134-1.271-.703-2.438-1.34-3.558-.27-.477-.92-.578-1.32-.203-.62.582-1.016 1.473-1.447 2.242-.641 1.148-1.99 2.288-3.15 1.498-.703-.48-.887-1.441-.53-2.212.922-1.975 3.272-2.191 4.523-3.695 1.01-1.217 1.04-3.02.482-4.498-.398-1.06-1.052-1.993-1.772-2.878-.343-.423-1.015-.272-1.162.254-.534 1.928-1.471 3.744-2.73 5.3-.873 1.077-2.648.473-2.61-.914.013-.466.13-.935.351-1.323.725-1.265 2.052-2.091 2.81-3.336 1.28-2.104.596-4.953-.964-6.86-1.329-1.624-3.162-2.719-5.031-3.704-.46-.241-1.016.064-1.051.58l-.33 4.762c-.077 1.132-.314 2.502-1.516 2.777-.74.17-1.486-.25-1.86-.91-.66-1.17-.257-2.492.3-3.618.468-.94 1.052-1.844 1.268-2.87.327-1.56-.29-3.244-1.438-4.352-.804-.775-1.84-1.278-2.935-1.51-.688-.145-1.302.456-1.23 1.155.092.89.054 1.775-.36 2.548-.774 1.445-3.457 1.907-3.582-.474-.037-.696.205-1.374.554-1.979 1.425-2.47-.726-5.56-3.282-5.873-.498-.062-.871.453-.683.917.372.917.635 1.874.439 2.825-.36 1.752-3.07 3.126-3.89.06-.16-.593-.074-1.216.113-1.8.88-2.751-1.859-5.243-4.407-5.014-.355.032-.593.392-.48.729.175.52-.076 1.27-.638 1.483-.817.312-1.734-.213-2.273-.9-.538-.686-.842-1.53-1.362-2.231-1.281-1.734-3.578-2.283-5.631-2.941-1.087-.35-2.227-.843-3.123-1.544C1.408.192 1.237.14 1.07.14c-.48 0-.919.44-.783.985"/>
        <path id="prefix__e" d="M1.028 5.061c-.275 1.514.062 3.044.951 4.31.87 1.24 2.165 2.078 3.656 2.37l.084.015c3.153.57 6.178-1.506 6.744-4.629.275-1.513-.064-3.043-.95-4.31C10.624 1.556 9.297.702 7.771.433 7.42.37 7.072.338 6.726.338c-2.75 0-5.195 1.948-5.698 4.723m4.987 5.064c-1.11-.196-2.044-.804-2.678-1.707-.631-.9-.872-1.987-.677-3.062.404-2.222 2.563-3.698 4.817-3.292l.06.012c1.068.208 1.995.809 2.616 1.696.632.899.872 1.985.677 3.06-.357 1.974-2.102 3.36-4.065 3.36-.248 0-.5-.022-.75-.067"/>
        <path id="prefix__h" d="M.974 3.533c-.295 2.226 1.378 4.29 3.737 4.61 2.358.32 4.51-1.226 4.805-3.451C9.81 2.466 8.138.402 5.779.082 5.57.052 5.364.04 5.16.04 3.055.04 1.243 1.504.974 3.533"/>
        <path id="prefix__k" d="M0 0.563L356.666 0.563 356.666 14.544 0 14.544z"/>
        <path id="prefix__m" d="M4.527 70.263C-.276 102.268.526 106.27.526 106.27L23.74.65S9.331 38.257 4.527 70.264"/>
        <path id="prefix__p" d="M0.78 0.191L32.182 0.191 32.182 21.563 0.78 21.563z"/>
        <path id="prefix__r" d="M13.09 17.692S4.935 44.447.16 56.177c-.873 2.145 13.086 11.437 30.167 15.341 14.529 3.321 18.27 1.276 18.27 1.276s10.534-26.542 12.308-36.602c2.602-14.745.343-27.153-9.525-30.061l-17.537-4.3c-3.47-.79-6.29-1.144-8.588-1.144-11.799 0-9.9 9.322-12.165 17.005"/>
        <linearGradient id="prefix__f" x1=".931%" x2="99.07%" y1="40.497%" y2="59.5%">
            <stop offset="0%" stop-color="#FFB218"/>
            <stop offset="100%" stop-color="#FFCF44"/>
        </linearGradient>
        <linearGradient id="prefix__i" x1=".864%" x2="99.134%" y1="40.918%" y2="59.09%">
            <stop offset="0%" stop-color="#FFB218"/>
            <stop offset="100%" stop-color="#FFCF44"/>
        </linearGradient>
        <linearGradient id="prefix__n" x1="-.002%" x2="100.001%" y1="49.999%" y2="49.999%">
            <stop offset="0%" stop-color="#FFB218"/>
            <stop offset="100%" stop-color="#FFCF44"/>
        </linearGradient>
    </defs>
    <g fill="none" fill-rule="evenodd">
        <g transform="translate(166.859 216.998)">
            <mask id="prefix__b" fill="#fff">
                <use xlink:href="#prefix__a"/>
            </mask>
            <path fill="#FFDE8E" d="M10.382 1.226c-2.508 1.64-2.824 5.393-1.484 8.072 1.532 3.062 4.63 5.032 7.393 6.946.734.509 1.227 1.352 1.166 2.243-.123 1.798-2.185 2.1-3.705 1.746-2.317-.539-4.371-1.906-6.674-2.501-2.304-.596-5.235-.095-6.237 2.062C.2 21.172.568 22.862 1.45 24.1c.881 1.237 2.203 2.089 3.559 2.773 3.807 1.923 8.16 2.75 12.407 2.357.868-.08 1.762-.207 2.593.05.832.257 1.58 1.04 1.464 1.902-.11.815-.94 1.367-1.756 1.477-.815.11-1.633-.11-2.445-.245-1.63-.275-3.365-.2-4.856.516-1.49.718-2.688 2.155-2.834 3.8-.218 2.432 1.907 4.586 4.266 5.221 2.36.635 4.863.11 7.226-.515 2.542-.672 5.054-1.459 7.526-2.355.697-.255 1.24.595.735 1.139-1.115 1.201-1.959 2.62-2.276 4.34-.229 1.242-.073 2.555.525 3.667 1.91 3.544 6.296 3.12 9.323 1.372 2.53-1.462 2.209-1.765 4.751-3.203.864-.489 2.473-1.187 3.078-.26.957 1.462-1.479 2.12-3.015 3.36-1.658 1.34-1.687 4.073-.386 5.762 1.302 1.69 5.344 2.844 7.471 2.99 10.38.713 27.702 1.437 29.631.529 1.85-.872 4.637-7.492 4.424-10.088-.294-3.603-1.636-6.556-4.285-12.646-1.355-3.117-5.677-8.508-9.015-9.158-3.338-.65-6.824 1.082-8.973 3.715-.574.704-1.09 1.486-1.856 1.972-1.05.667-2.771.58-2.93-1.168-.076-.82.276-1.615.825-2.228 2.665-2.984 1.46-8.173-2-9.937-3.151-1.607-7.51-.032-8.904 3.219-.668 1.56-.837 1.878-2.537 2.381-1.018.3-2.109-.177-2.741-1.029-1.074-1.446-.803-1.695-.447-3.356.282-1.318.483-2.47.403-3.812-.07-1.175-.635-2.258-1.428-3.129-4.361-4.783-10.063-.334-9.58 4.057.098.911.426 1.805.364 2.722-.074 1.101-1 2.31-2.22 1.74-.706-.331-1.096-1.092-1.138-1.87-.298-5.63-2.446-11.142-6.02-15.503-1.226-1.495-2.658-2.888-4.432-3.66C15.1.63 14.164.426 13.239.426c-1.013 0-2.01.247-2.857.8" mask="url(#prefix__b)"/>
        </g>
        <path fill="#619440" d="M236.059 186.215c.357-11.11-3.584-22.306-11.125-31.183-4.562-5.369-10.354-9.97-16.887-13.25.974-5.932-3.14-12.309-8.995-13.903 0-.65-.471-1.299-1.157-1.637-.42-.207-1.085-.252-1.426.115-.487.523-.823 1.054-.917 1.75-.07.52.48 1.01 1.001 1.083.187.026.352.004.506-.037.49.196 1.074.158 1.534-.27.1-.091.174-.19.24-.29 2.418 1.25 4.62 2.627 6.278 4.937 1.618 2.254 2.328 5.053 1.927 7.772l-.02-.01c-.03-.054-.087-.084-.158-.075l-.266-.127c-.754-1.943-2.567-3.841-3.996-5.097-1.44-1.264-3.168-2.516-5.046-3.102.094-.4.04-.837-.149-1.216-.232-.464-.904-.656-1.391-.484-.04.014-.078.034-.117.054-.493.134-.94.615-1.178.959-.318.457-.117 1.064.365 1.36l.536.328c.44.27.94.15 1.322-.106.117-.078.212-.171.296-.27 1.738 1.1 3.52 2.036 5.05 3.506.926.888 1.765 1.858 2.474 2.928.096.146.184.298.272.449-2.87-1.22-5.859-2.187-8.933-2.854-.01-.409-.206-.799-.661-1.005-.21-.095-.431-.127-.643-.115-.208-.05-.438-.049-.664.045-1.13.474-.89 2.077.214 2.47.786.282 1.425-.22 1.66-.85 2.938.87 5.83 1.932 8.615 3.197-1.102.001-2.227.105-3.218.097-2.118-.017-4.326-.243-6.45-.073-.029-.104-.066-.208-.12-.314-.159-.308-.529-.474-.89-.474-.037-.009-.076-.016-.114-.013-.935.077-1.25 1.137-.98 1.852.186.49.807.88 1.36.573.392-.216.645-.535.745-.896 2.009.34 4.139.268 6.153.314 1.155.025 2.508.178 3.802.141-.274.218-.548.433-.835.627-.93.63-1.921 1.162-2.958 1.596-1.899.795-3.841.995-5.799 1.411.153-.498-.274-1.066-.795-1.21-.426-.12-.812.015-1.086.27-.244.159-.436.371-.583.615-.236.394-.204.892.146 1.236.328.322.93.449 1.346.219.235-.128.42-.272.57-.44 2.22.305 4.767-.456 6.748-1.306 1.49-.638 3.512-1.606 4.677-2.99.143.162.323.117.443-.008-.028.098-.043.201-.074.3-.99 3.186-3.428 5.624-6.572 6.71-2.403.832-4.741.741-7.115.296.073-.34.03-.683-.182-.974-.45-.613-1.426-.755-1.882-.073-.013.019-.02.039-.031.058-.357.135-.68.357-.864.653-.387.625-.172 1.453.558 1.786.718.328 1.52-.053 2-.649 5.658 2.432 13.029-1.462 14.997-7.073.08-.227.13-.459.192-.687 1.845.97 3.637 2.023 5.345 3.179 9.421 6.379 16.512 15.451 19.702 25.74 3.368 10.867 3.07 19.528-.952 29.948-.066.172.191.3.287.132 3.166-5.52 3.667-9.395 3.868-15.645"/>
        <g transform="translate(194.022 157.853)">
            <mask id="prefix__d" fill="#fff">
                <use xlink:href="#prefix__c"/>
            </mask>
            <path fill="#FFBF4D" d="M.287 1.124c.627 2.51 2.083 4.822 4.129 6.413.446.346.948.708 1.214 1.184.324.58.162 1.266-.339 1.702-.472.41-1.07.351-1.505.05-.598-.413-1.427.167-1.271.879.267 1.233 1.762 2.377 3.251 2.404 1.04.019 1.842-.367 2.54-.752 1.165-.644 2.041-1.287 3.257-.045.27.273.5.588.656.938.422.948-.122 2.075-1.074 2.485-1.172.507-2.464.542-3.227-.006-.602-.433-1.435.016-1.35.754.078.682.375 1.354.848 1.852 1.023 1.078 2.63 1.43 4.109 1.29 1.48-.142 2.88-.71 4.27-1.23 1.293-.487 2.731-.944 4.012-.142.691.433 1.048 1.294.746 2.051-.405 1.01-1.617 1.132-2.637 1.15l-4.163.073c-4.67-.448-3.823 1.056-1.316 5.144.549.896 2.108 2.626 2.545 2.58 3.172-.346 5.95-2.308 8.922-3.463 1.13-.437 2.334-.884 3.528-.513.556.172 1.047.552 1.302 1.077.533 1.104-.193 2.027-1.072 2.428-.594.272-1.257.345-1.906.413l-7.792.83c-.734.077-1.618.273-1.84.975-.168.528.143 1.079.44 1.546 1.067 1.681 2.16 3.39 3.68 4.677 1.52 1.288 3.561 2.112 5.513 1.71 1.314-.273 2.455-1.06 3.535-1.856 1.08-.797 2.169-1.635 3.45-2.036 1.51-.473 3.386-.21 4.21 1.28.52.942.32 2.168-.576 2.76-1.084.717-2.415.088-3.628-.234-3.24-.863-7.032.757-8.39 3.93-.184.428-.066.931.271 1.254 1.762 1.683 2.736 2.554 5.34 3.166 2.217.52 7.566-1.856 7.566-1.856 1.068-.33 2.23-.662 3.261-.05.582.344.931 1.028.726 1.672-.291.913-1.333 1.045-2.21 1.081-1.226.05-4.143.936-5.972 1.284-.505.096-.78.642-.554 1.104.88 1.797 2.857 5.442 4.273 5.131.931-.205 5.148-3.356 6.074-3.131.927.225 1.513 1.265 1.399 2.211-.092.775-1.558 2.122-2.549 2.832-.344.249-.502.705-.322 1.09.96 2.058 3.824 3.158 5.948 4.133l.495-.978c2.566-3.87 4.087-8.425 4.377-13.06.029-.486-.538-.761-.905-.441-.56.49-1.186.881-1.913.974-1.45.185-3.154-1.606-1.4-2.835.473-.333 1.05-.496 1.629-.513 2.13-.064 3.153-2.236 2.957-4.111-.134-1.271-.703-2.438-1.34-3.558-.27-.477-.92-.578-1.32-.203-.62.582-1.016 1.473-1.447 2.242-.641 1.148-1.99 2.288-3.15 1.498-.703-.48-.887-1.441-.53-2.212.922-1.975 3.272-2.191 4.523-3.695 1.01-1.217 1.04-3.02.482-4.498-.398-1.06-1.052-1.993-1.772-2.878-.343-.423-1.015-.272-1.162.254-.534 1.928-1.471 3.744-2.73 5.3-.873 1.077-2.648.473-2.61-.914.013-.466.13-.935.351-1.323.725-1.265 2.052-2.091 2.81-3.336 1.28-2.104.596-4.953-.964-6.86-1.329-1.624-3.162-2.719-5.031-3.704-.46-.241-1.016.064-1.051.58l-.33 4.762c-.077 1.132-.314 2.502-1.516 2.777-.74.17-1.486-.25-1.86-.91-.66-1.17-.257-2.492.3-3.618.468-.94 1.052-1.844 1.268-2.87.327-1.56-.29-3.244-1.438-4.352-.804-.775-1.84-1.278-2.935-1.51-.688-.145-1.302.456-1.23 1.155.092.89.054 1.775-.36 2.548-.774 1.445-3.457 1.907-3.582-.474-.037-.696.205-1.374.554-1.979 1.425-2.47-.726-5.56-3.282-5.873-.498-.062-.871.453-.683.917.372.917.635 1.874.439 2.825-.36 1.752-3.07 3.126-3.89.06-.16-.593-.074-1.216.113-1.8.88-2.751-1.859-5.243-4.407-5.014-.355.032-.593.392-.48.729.175.52-.076 1.27-.638 1.483-.817.312-1.734-.213-2.273-.9-.538-.686-.842-1.53-1.362-2.231-1.281-1.734-3.578-2.283-5.631-2.941-1.087-.35-2.227-.843-3.123-1.544C1.408.192 1.237.14 1.07.14c-.48 0-.919.44-.783.985" mask="url(#prefix__d)"/>
        </g>
        <g>
            <path fill="#619440" d="M70.814 74.045c-4.176-4.334-8.679-12.103-13.1-15.128-1.23-.842-3.665-1.89-4.818-2.836-1.155-.946-1.885-2.579-1.328-3.963.58-1.444 2.937-2.681 2.952-2.688 1.55-.782.696-3.156-1.01-2.825l-8.417 1.68c-1.526.294-3.097.591-4.625.305-1.528-.287-3.026-1.295-3.418-2.8-.499-1.917.923-3.829 2.553-4.957 1.937-1.339 4.3-2.098 5.682-4.124.633-.93.917-2.107.594-3.184-.598-1.992-2.661-2.331-4.3-1.843-1.208.36-2.262 1.096-3.35 1.734-3.16 1.85-6.769 2.928-10.426 3.112-2.176.109-4.517-.142-6.044-1.896-.772-.887-1.105-2.15-.717-3.261.732-2.095 3.164-2.372 5.153-2.916.019-.003.037-.008.056-.014 1.892-.54 1.148-3.415-.784-3.045-4.642.89-9.343 1.468-14.063 1.731-2.296.13-4.773.14-6.536-1.564-.848-.82-1.295-2.049-.994-3.19.463-1.758 2.131-2.21 3.64-2.563l5.777-1.35c1.063-.248 1.118-1.74.075-2.065L9.72 15.259c-2.673-.833-5.451-1.726-7.465-3.67C.242 9.644-.73 6.314.839 3.996c1.076-1.593 3.105-2.344 5.026-2.3 1.92.045 3.759.777 5.478 1.634 4.827 2.413 9.037 5.872 13.302 9.176 1.247.964 3.19 1.87 4.206.663.758-.904.254-2.331-.583-3.164-1.354-1.347-3.437-1.91-3.527-4.555-.059-1.711.681-3.432 2.105-4.384 2.103-1.404 5.042-1.126 7.168.247 2.136 1.377 3.534 3.675 4.353 6.08.82 2.404 1.124 4.946 1.523 7.454.137.86.303 1.758.839 2.446.535.687 1.562 1.074 2.306.62.636-.389.798-1.14.894-1.917.158-1.28.656-2.522 1.504-3.494 3.33-3.815 8.332-.944 8.71 2.772.155 1.533-.389 3.047-1.017 4.454-.63 1.409-1.36 2.8-1.612 4.32-.289 1.741.175 3.75 1.812 4.628 1.142.612 2.65.358 3.327-.747.907-1.483-.26-3.233-.325-4.913-.086-2.22 1.998-4.165 4.218-4.284 2.219-.117 4.336 1.327 5.41 3.272 1.075 1.944 1.22 4.295.828 6.482-.391 2.186-1.282 4.247-2.19 6.274-.494 1.1-1.008 2.302-.597 3.477.328.94 1.302 1.565 2.206 1.146.818-.381.938-1.415 1.487-2.087 1.094-1.344 3.476-.612 4.307.907.832 1.52.594 3.376.332 5.087-.81 5.29-1.62 10.58-2.428 15.87l.913 14.885z" transform="translate(167.829 193.728)"/>
            <path fill="#306B34" d="M69.534 61.526c-.452-1.094-4.26-15.197-25.245-32.485C25.765 13.781.02 5.206.84 3.995c1.076-1.592 3.105-2.343 5.025-2.299 1.922.045 3.76.777 5.48 1.634 4.827 2.413 9.035 5.872 13.302 9.176 1.246.964 3.19 1.87 4.204.663.759-.904.255-2.331-.582-3.164-1.354-1.346-3.437-1.908-3.527-4.555-.058-1.712.682-3.433 2.106-4.383 2.103-1.405 5.04-1.127 7.168.246 2.134 1.377 3.532 3.675 4.352 6.08.819 2.403 1.124 4.947 1.523 7.454.137.86.303 1.758.838 2.445.536.688 1.563 1.075 2.307.621.636-.389.798-1.14.894-1.917.158-1.28.656-2.522 1.504-3.494 3.33-3.815 8.332-.944 8.709 2.772.156 1.533-.388 3.047-1.017 4.455-.628 1.408-1.358 2.798-1.611 4.32-.29 1.741.174 3.748 1.812 4.626 1.142.613 2.65.36 3.327-.745.907-1.484-.26-3.233-.325-4.914-.087-2.22 1.998-4.165 4.218-4.284 2.218-.117 4.337 1.327 5.41 3.272 1.075 1.944 1.22 4.295.828 6.481-.392 2.187-1.282 4.248-2.19 6.276-.494 1.1-1.007 2.301-.598 3.476.33.94 1.303 1.565 2.206 1.146.82-.38.938-1.415 1.487-2.087 1.095-1.344 3.476-.612 4.309.907.831 1.52.592 3.376.33 5.087L69.9 59.161l-.366 2.365z" transform="translate(167.829 193.728)"/>
        </g>
        <g transform="translate(179.47 184.032)">
            <mask id="prefix__g" fill="#fff">
                <use xlink:href="#prefix__e"/>
            </mask>
            <path fill="url(#prefix__f)" d="M1.028 5.061c-.275 1.514.062 3.044.951 4.31.87 1.24 2.165 2.078 3.656 2.37l.084.015c3.153.57 6.178-1.506 6.744-4.629.275-1.513-.064-3.043-.95-4.31C10.624 1.556 9.297.702 7.771.433 7.42.37 7.072.338 6.726.338c-2.75 0-5.195 1.948-5.698 4.723m4.987 5.064c-1.11-.196-2.044-.804-2.678-1.707-.631-.9-.872-1.987-.677-3.062.404-2.222 2.563-3.698 4.817-3.292l.06.012c1.068.208 1.995.809 2.616 1.696.632.899.872 1.985.677 3.06-.357 1.974-2.102 3.36-4.065 3.36-.248 0-.5-.022-.75-.067" mask="url(#prefix__g)"/>
        </g>
        <g transform="translate(194.992 184.032)">
            <mask id="prefix__j" fill="#fff">
                <use xlink:href="#prefix__h"/>
            </mask>
            <path fill="url(#prefix__i)" d="M.974 3.533c-.295 2.226 1.378 4.29 3.737 4.61 2.358.32 4.51-1.226 4.805-3.451C9.81 2.466 8.138.402 5.779.082 5.57.052 5.364.04 5.16.04 3.055.04 1.243 1.504.974 3.533" mask="url(#prefix__j)"/>
        </g>
        <g transform="translate(0 272.265)">
            <mask id="prefix__l" fill="#fff">
                <use xlink:href="#prefix__k"/>
            </mask>
            <path fill="#FFDE8E" d="M0 7.554C0 3.694 79.843.563 178.333.563c98.491 0 178.333 3.13 178.333 6.99 0 3.86-79.842 6.99-178.333 6.99C79.843 14.544 0 11.414 0 7.554" mask="url(#prefix__l)"/>
        </g>
        <g transform="translate(270.66 21.14)">
            <mask id="prefix__o" fill="#fff">
                <use xlink:href="#prefix__m"/>
            </mask>
            <path fill="url(#prefix__n)" d="M4.527 70.263C-.276 102.268.526 106.27.526 106.27L23.74.65S9.331 38.257 4.527 70.264" mask="url(#prefix__o)"/>
        </g>
        <g>
            <path fill="#A29C8F" d="M337.925 17.811L292.292 16.211 268.276 126.63 233.051 135.031 233.051 277.857 337.925 278.257z" transform="translate(2.91 .779)"/>
            <path fill="#7F786A" d="M337.925 278.257L337.925 17.811 311.216 16.875 302.699 130.631 233.051 186.473 233.051 277.857z" transform="translate(2.91 .779)"/>
            <path fill="#FFE2B7" d="M111.243 149.873s-.737 1.09-1.378 1.307c-.49.165-2.714-1.186-2.714-1.186s-.673-3.09-.496-4.3c.122-.838.816-1.897 1.701-2.118.587-.147 1.184.2 1.343.783l1.544 5.514z" transform="translate(2.91 .779)"/>
            <path fill="#FFE2B7" d="M107.19 153.078c-.57-.196-.874-.817-.679-1.387l.896-2.607 1.033.354-1.25 3.64z" transform="translate(2.91 .779)"/>
            <path fill="#FFE2B7" d="M108.199 154.669c-.6-.144-.952-.817-.787-1.504l.755-3.137 1.085.26-1.053 4.381z" transform="translate(2.91 .779)"/>
            <path fill="#FFE2B7" d="M109.093 155.112c-.6-.143-.952-.817-.787-1.504l.755-3.136 1.086.26-1.054 4.38z" transform="translate(2.91 .779)"/>
            <path fill="#FFE2B7" d="M110.644 153.87c-.538-.074-.905-.635-.818-1.252l.395-2.819 1.022.074-.599 3.998zM104.858 150.158c.598.148 1.422-.092 1.593-.777l1.082-3.152-.838-.631-1.837 4.56zM106.991 142.062L107.147 144.963 109.512 144.946 109.369 141.844z" transform="translate(2.91 .779)"/>
            <path fill="#E7E1D3" d="M104.067 138.376L105.314 143.7 112.189 142.688 112.916 136.89z" transform="translate(2.91 .779)"/>
            <path fill="#F5EFE4" d="M116.63 137.31c9.896-8.976 3.873-39.04.01-48.617-6.283-15.571-12.284-20.867-18.632-17.274 0 0-.5 20.571-.738 25.788-.381 8.374 1.317 30.61 2.275 39.871.228 2.196 2.857 4.066 5.011 3.866 2.588-.239 10.16-1.897 12.074-3.633" transform="translate(2.91 .779)"/>
            <path fill="#57575E" d="M55.874 16.947c-.633-2.46-1.486-7.984.202-9.918 2.89-3.311 17.71-9.277 14.262-4.297 0 0 9.146-.944 15.968 3.898.493.351.176 1.133-.424 1.055-3.096-.402-8.37-1.15-9.581.33 0 0 3.98.66 6.616 2.256.536.326.285 1.162-.342 1.164-1.529.004-3.665.105-4.748.59-1.991.89-3.656 7.06-6.705 9.539-1.36 1.103-5.523 4.743-8.46 4.26-3.652-.6-6.045-5.988-6.788-8.877" transform="translate(2.91 .779)"/>
            <g transform="translate(2.91 .779) translate(55.296)">
                <mask id="prefix__q" fill="#fff">
                    <use xlink:href="#prefix__p"/>
                </mask>
                <path fill="#57575E" d="M.78 7.028c1.108-1.02 2.449-1.713 3.772-2.394 1.336-.662 2.714-1.24 4.112-1.745 1.388-.52 2.807-.99 4.223-1.27.687-.137 1.462-.218 1.933-.094.224.15-.002-.09.03.074-.029.163-.224.467-.401.723-.226.326-.145.774.182 1 .132.09.284.132.433.128l.052-.001c4.486-.143 9.212.529 13.178 2.605.488.27.99.52 1.442.843l.695.459c.076.062-.093-.08-.094-.165-.026-.103-.016-.18.014-.244.028-.063.094-.128.19-.166.084-.042.257-.004.017-.035l-.875-.105-1.765-.193c-1.187-.111-2.38-.202-3.613-.178-.617.014-1.244.06-1.894.178-.64.152-1.383.301-2.053 1.039-.302.332-.278.845.054 1.146.12.109.261.175.409.199l.047.008c1.974.342 3.994.92 5.781 1.75l.587.3c-.04-.036-.045-.127-.026-.118-.013-.004.087-.039.046-.019l-.804.035c-1.074.065-2.146.152-3.244.427-.51.114-1.198.385-1.623.856-.433.432-.729.9-1.009 1.365-.546.94-.972 1.906-1.429 2.851-.915 1.876-1.806 3.798-3.322 5.276 1.724-1.263 2.824-3.175 3.913-4.96.54-.905 1.072-1.813 1.643-2.654.284-.419.587-.826.92-1.117.308-.301.653-.407 1.165-.51.956-.183 1.996-.215 3.021-.217l.773.012c.49.04 1.103-.342 1.267-.846.215-.479.069-1.185-.404-1.533-.356-.241-.512-.325-.783-.479-1.97-1.074-4.05-1.626-6.2-2.067l.512 1.353c.317-.373 1.63-.556 2.675-.536 1.111-.001 2.256.104 3.399.234l1.724.221.868.121c.046.011.52.093.883-.06.374-.136.662-.421.82-.746.159-.325.215-.71.102-1.096-.08-.37-.454-.745-.625-.837l-.781-.494c-.51-.348-1.064-.614-1.606-.9-2.19-1.11-4.552-1.771-6.926-2.172-2.388-.383-4.771-.53-7.217-.265l.667 1.126c.217-.375.46-.71.57-1.291.058-.258.053-.689-.196-1.046-.253-.345-.586-.477-.85-.546-1.013-.177-1.757.034-2.53.205C11.119.86 9.7 1.417 8.314 2.04 6.936 2.686 5.599 3.404 4.309 4.2 3.031 4.997 1.746 5.861.78 7.028" mask="url(#prefix__q)"/>
            </g>
            <path fill="#FFC581" d="M33.914 276.463c.952.064 1.775-.656 1.84-1.607l.6-8.958c.064-.95-.656-1.774-1.608-1.837-.951-.064-1.775.655-1.84 1.606l-.6 8.958c-.064.952.656 1.775 1.608 1.838" transform="translate(2.91 .779)"/>
            <path fill="#7F786A" d="M45.282 277.967c-.022.521-.444.925-.943.904l-12.102-.522c-.639-.028-1.09-.658-.937-1.306l.273-2.288c.079-.654.624-1.137 1.255-1.11 0 0 .266 1.021 1.399 1.226.914.165 1.259-.618 1.388-1.186.062-.275.352-.429.61-.317l8.52 3.698c.34.155.553.514.537.901" transform="translate(2.91 .779)"/>
            <path fill="#FFC581" d="M73.932 276.102c.954.022 1.745-.732 1.767-1.685l.21-8.976c.022-.954-.733-1.744-1.687-1.765-.953-.023-1.745.73-1.766 1.685l-.21 8.976c-.022.953.733 1.744 1.686 1.765" transform="translate(2.91 .779)"/>
            <path fill="#7F786A" d="M85.276 277.417c-.022.52-.444.924-.943.903l-12.103-.526c-.637-.03-1.09-.66-.935-1.308l.274-2.288c.078-.654.624-1.137 1.255-1.11 0 0 .266 1.021 1.397 1.227.916.165 1.26-.617 1.39-1.185.062-.275.352-.429.611-.317l8.518 3.702c.34.155.553.514.536.902" transform="translate(2.91 .779)"/>
            <path fill="#A29C8F" d="M66.518 95.821c-3.783 5.816 2.241 24.786 2.241 24.786l.229 70.535 1.998 78.03 17.51 1.168s12.266-73.656 13.393-93.24c3.344-58.11-5.62-85.842-7.233-88.611-3.816 2.308-18.197 8.966-28.138 7.332" transform="translate(2.91 .779)"/>
            <path fill="#7F786A" d="M44.942 90.659c-4.058 11.452-15.266 32.35-16.146 47.867-1.493 26.32-1.948 131.265-1.948 131.265l15.963-.964 28.807-127.393 4.055-47.903s-27.356-2.159-30.731-2.872" transform="translate(2.91 .779)"/>
            <path fill="#F5EFE4" d="M99.296 102.692l17.343-13.999s-12.756-34.946-15.615-42.653C97.528 36.625 87.8 30.784 81.465 31.43c0 0 1.345 12.807 3.992 27.204 3.826 20.8 13.839 44.058 13.839 44.058" transform="translate(2.91 .779)"/>
            <path fill="#F5EFE4" d="M96.192 95.11s-11.52 3.928-26.67 3.102c-13.868-.757-25.587-5.027-25.587-5.027s-7.103-28.725-7.917-38.524c-.865-10.42 9.087-23.424 24.608-23.849 5.02-.138 20.355.38 20.355.38 11.34.42 16.972 17.365 16.585 27.816l-1.374 36.103z" transform="translate(2.91 .779)"/>
            <path fill="#E7E1D3" d="M25.977 89.312c-5.256.216-10.382 1.545-9.824-2.442 1.479-10.56 5.646-25.742 10.921-34.272 6.12-9.894 12.083-17.442 26.11-20.45 0 0-9.032 16.53-13.077 32.992C38.206 72.882 37.1 85.57 37.1 85.57s-2.038 3.369-11.123 3.743" transform="translate(2.91 .779)"/>
            <path fill="#FFE2B7" d="M64.19 33.853c1.876.073 3.457-1.39 3.53-3.265l.153-4.004c.072-1.876-1.392-3.457-3.269-3.528-1.877-.072-3.457 1.39-3.529 3.266l-.154 4.003c-.073 1.877 1.39 3.456 3.268 3.528" transform="translate(2.91 .779)"/>
            <path fill="#FFC581" d="M67.89 26.125c.063-1.623-1.408-2.997-3.285-3.069-1.877-.072-3.45 1.185-3.513 2.807l-.163 4.246c-.034.886 2.498.435 4.483-.874 1.3-.858 2.444-2.19 2.444-2.19l.034-.92z" transform="translate(2.91 .779)"/>
            <path fill="#FFE2B7" d="M59.323 15.864c.423-.038.84.485 1.121 1.295l.146-.749c.606-3.112 3.623-5.143 6.738-4.537 3.114.607 5.148 3.621 4.541 6.734 0 0-.478 3.225-1.157 5.033-1.523 4.05-3.587 4.627-6.47 4.065-2.884-.561-4.836-3.188-4.63-6.044-.567-.209-1.084-1.354-1.21-2.777-.142-1.61.27-2.962.92-3.02" transform="translate(2.91 .779)"/>
            <path fill="#FFC581" d="M59.323 15.864c.423-.038.84.485 1.121 1.295l.146-.749c.556-2.85 3.133-4.794 5.955-4.635.133.008-2.187 2.399-2.971 7.686-.926 6.238.307 8.163.238 8.144-2.645-.728-4.395-3.232-4.2-5.944-.567-.209-1.084-1.354-1.21-2.777-.142-1.61.27-2.962.92-3.02" transform="translate(2.91 .779)"/>
            <path fill="#FFE2B7" d="M31.092 135.808L31.145 138.712 28.785 138.863 28.705 135.761z" transform="translate(2.91 .779)"/>
            <path fill="#E7E1D3" d="M33.745 131.921L32.882 137.321 25.953 136.804 24.812 131.073z" transform="translate(2.91 .779)"/>
            <path fill="#E7E1D3" d="M21.138 131.76c-10.514-8.246-8.225-34-5.057-43.83 5.15-15.98 16.867-23.802 23.456-20.672 0 0-2.575 17.927-1.965 23.112.982 8.326.881 30.627.59 39.933-.069 2.207-2.557 4.26-4.721 4.216-2.598-.053-10.27-1.166-12.303-2.76" transform="translate(2.91 .779)"/>
            <path fill="#7F786A" d="M67.732 33.193l-5.542.351s-.552 4.858 2.793 4.963c3.345.106 2.749-5.314 2.749-5.314" transform="translate(2.91 .779)"/>
            <path fill="#7F786A" d="M65.891 36.178s7.39 15.454 9.233 26.727c1.86 11.378 2.392 16.755 2.392 16.755l-7.08 4.723-7.701-4.92L64.4 36.752l1.491-.574z" transform="translate(2.91 .779)"/>
            <path fill="#E7E1D3" d="M61.045 37.33L58.505 30.94 60.973 28.581 64.517 32.851 64.685 34.062z" transform="translate(2.91 .779)"/>
            <path fill="#E7E1D3" d="M69.116 36.617L69.531 30.9 67.78 28.683 64.276 32.941 64.447 33.98z" transform="translate(2.91 .779)"/>
            <path fill="#FFE2B7" d="M34.05 141.944l-.136.093c-.418.285-.99.176-1.275-.242l-1.63-2.394.896-.61 2.146 3.153z" transform="translate(2.91 .779)"/>
            <path fill="#A29C8F" d="M39.121 152.954c-.116.013-.235.01-.355-.006-.842-.112-1.434-.885-1.322-1.727l.834-6.262-17.137-2.282-.834 6.264c-.113.843-.89 1.431-1.728 1.323-.842-.114-1.434-.886-1.322-1.728l1.037-7.788c.054-.403.267-.77.59-1.018.325-.247.735-.356 1.139-.303l20.186 2.686c.842.113 1.433.885 1.32 1.727l-1.035 7.787c-.097.722-.68 1.26-1.373 1.327" transform="translate(2.91 .779)"/>
            <path fill="#FCC23F" d="M16.504 148.37L9.207 147.4 9.435 145.687 16.732 146.657zM48.7 152.654L41.402 151.683 41.63 149.97 48.928 150.941z" transform="translate(2.91 .779)"/>
            <path fill="#A29C8F" d="M44.844 187.756L3.6 182.27c-1.867-.248-3.18-1.963-2.931-3.83l2.657-19.95c.907-6.812 7.169-11.6 13.986-10.694l23.32 3.102c6.817.908 11.608 7.167 10.7 13.98l-2.656 19.95c-.25 1.866-1.965 3.179-3.833 2.93" transform="translate(2.91 .779)"/>
            <path fill="#7F786A" d="M50.515 171.021l-48.007-6.386 2.045-15.351c.248-1.867 1.964-3.18 3.833-2.93l41.241 5.487c1.869.248 3.181 1.962 2.933 3.83l-2.045 15.35z" transform="translate(2.91 .779)"/>
            <path fill="#7F786A" d="M11.055 171.777l-1.1-.145c-.988-.132-1.683-1.04-1.552-2.027l.852-6.392c.13-.988 1.039-1.682 2.027-1.55l1.101.147c.988.13 1.683 1.038 1.55 2.026l-.85 6.39c-.132.989-1.04 1.683-2.028 1.551" transform="translate(2.91 .779)"/>
            <path fill="#FCC23F" d="M9.27 168.172l3.352.445.446-3.349-3.353-.446-.445 3.35zm3.842 1.531c-.038.004-.078.003-.118-.002l-4.368-.58c-.28-.038-.478-.295-.44-.576l.58-4.366c.038-.28.296-.477.577-.44l4.368.58c.28.038.477.296.44.576l-.58 4.366c-.034.24-.228.42-.459.442z" transform="translate(2.91 .779)"/>
            <path fill="#7F786A" d="M42.443 175.954l-1.101-.147c-.988-.132-1.682-1.04-1.55-2.026l.85-6.392c.132-.989 1.04-1.682 2.028-1.551l1.101.147c.988.131 1.682 1.039 1.55 2.027l-.85 6.39c-.131.99-1.04 1.683-2.028 1.552" transform="translate(2.91 .779)"/>
            <path fill="#FCC23F" d="M40.658 172.348l3.351.446.446-3.349-3.351-.447-.446 3.35zm3.842 1.53c-.039.005-.078.004-.118-.001l-4.368-.58c-.28-.039-.477-.296-.44-.577l.58-4.365c.02-.135.09-.257.199-.34.107-.083.243-.118.378-.1l4.367.58c.282.038.479.296.44.577l-.58 4.365c-.032.24-.226.42-.458.442z" transform="translate(2.91 .779)"/>
            <path fill="#FFE2B7" d="M31.28 143.556s-1.8 1.021-2.45.936c-.498-.066-1.056-.852-1.093-1.352-.096-1.31.008-4.134.97-4.826.46-.33 1.627-.168 2.492.015.574.123.946.68.836 1.254l-.756 3.973z" transform="translate(2.91 .779)"/>
            <path fill="#FFE2B7" d="M31.066 144.536c.31-.65.699-3.512.699-3.512l-1.184-.13s-.465 2.88-.39 3.544c.043.367.697.47.875.098" transform="translate(2.91 .779)"/>
            <path fill="#FFE2B7" d="M30.037 144.966c.314-.648.706-3.512.706-3.512l-1.205-.132s-.467 2.88-.388 3.543c.042.369.708.474.887.101" transform="translate(2.91 .779)"/>
            <path fill="#FFE2B7" d="M29.15 144.686c.288-.651.67-3.516.67-3.516l-1.074-.118s-.452 2.882-.389 3.544c.035.367.629.463.794.09" transform="translate(2.91 .779)"/>
            <path fill="#FFE2B7" d="M28.34 144.235c.286-.651.67-3.516.67-3.516l-1.075-.118s-.452 2.882-.39 3.544c.035.368.63.464.794.09" transform="translate(2.91 .779)"/>
            <path fill="#FFF" d="M73.086 19.387l-5.491-1.077s-.399 3.108 2.05 3.677c2.391.555 3.44-2.6 3.44-2.6M60.353 16.932l5.553 1.09s-.809 3.028-3.32 2.622c-2.45-.393-2.233-3.712-2.233-3.712" transform="translate(2.91 .779)"/>
            <path fill="#FFF" d="M72.204 20.884L71.663 19.194 70.134 18.911 71.178 21.83zM70.406 21.889L69.409 18.816 68.821 18.684 69.653 21.935zM65.153 19.661L64.253 17.821 62.724 17.537 63.767 20.457zM62.996 20.515L61.999 17.443 61.411 17.311 62.243 20.561z" transform="translate(2.91 .779)"/>
            <path fill="#57575E" d="M65.976 18.684c.645-.111 1.483.26 1.49.263l.283-.624c-.042-.019-1.036-.46-1.89-.314l.117.675z" transform="translate(2.91 .779)"/>
            <path fill="#57575E" d="M73.016 19.742l-5.49-1.076.425-.286c-.167 1.407.418 3.108 2.015 3.297 1.415.167 2.392-1.275 2.795-2.452.151-.438.798-.112.65.324-.55 1.602-1.988 3.206-3.835 2.793-1.853-.415-2.539-2.39-2.337-4.102.023-.195.246-.322.426-.286 1.83.359 3.66.717 5.49 1.078.458.09.32.8-.139.71M60.423 16.574l5.553 1.09c.183.035.34.237.287.427-.465 1.676-1.867 3.229-3.747 2.91-1.875-.315-2.622-2.337-2.526-4.042.026-.462.753-.522.726-.055-.07 1.27.314 2.922 1.688 3.33 1.55.46 2.766-.924 3.144-2.283.096.142.191.286.287.427l-5.552-1.09c-.46-.089-.32-.805.14-.714" transform="translate(2.91 .779)"/>
            <path fill="#F0A96E" d="M148.506 275.128l-.505-.073c-1.042-.151-1.763-1.119-1.611-2.16l1.693-11.617c.152-1.04 1.12-1.762 2.16-1.61l.505.073c1.041.153 1.762 1.12 1.61 2.16l-1.692 11.617c-.152 1.04-1.12 1.761-2.16 1.61" transform="translate(2.91 .779)"/>
            <path fill="#7F786A" d="M162.324 277.99c-.014.595-.522 1.065-1.132 1.05l-14.854-.357c-.783-.02-1.353-.732-1.18-1.475l.277-2.62c.078-.748.736-1.31 1.51-1.293 0 0 .352 1.161 1.745 1.372 1.127.172 1.53-.729 1.672-1.38.07-.314.422-.497.742-.375l10.54 4.057c.42.172.691.577.68 1.021" transform="translate(2.91 .779)"/>
            <path fill="#F0A96E" d="M165.305 273.923c-1.19.073-2.215-.832-2.288-2.022l-.69-11.209c-.075-1.19 4.239-1.455 4.311-.265l.691 11.21c.074 1.189-.832 2.214-2.024 2.286" transform="translate(2.91 .779)"/>
            <path fill="#7F786A" d="M178.22 275.932c-.023.594-.52 1.058-1.11 1.036l-14.345-.538c-.756-.029-1.297-.747-1.12-1.488l.305-2.616c.087-.747.73-1.302 1.476-1.273 0 0 .325 1.164 1.668 1.392 1.086.185 1.488-.71 1.635-1.36.072-.313.415-.493.722-.366l10.125 4.184c.405.177.66.586.643 1.029" transform="translate(2.91 .779)"/>
            <path fill="#F0A96E" d="M246.156 123.141L244.347 124.623 242.018 122.809 243.365 120.968z" transform="translate(2.91 .779)"/>
            <path fill="#E7E1D3" d="M243.099 119.595L245.299 121.309 242.623 124.969 240.423 123.254z" transform="translate(2.91 .779)"/>
            <path fill="#F0A96E" d="M249.185 125.297s-.328 1.293-1.07 1.995c-.36.339-1.436 1.012-1.436 1.012s-2.605-2.178-2.503-3.24c.048-.508.842-1.363 1.472-1.969.418-.402 1.007-.456 1.327-.12l2.21 2.322z" transform="translate(2.91 .779)"/>
            <path fill="#F0A96E" d="M249.956 123.391l-.038.169c-.115.496-.583.834-1.043.754l-2.658-.456.245-1.065 3.494.598zM251.434 127.153c-.354.468-.985.561-1.409.208l-2.197-1.75.904-.712 2.702 2.254z" transform="translate(2.91 .779)"/>
            <path fill="#F0A96E" d="M248.943 127.408c.323-.18.695-.542.268-.89l-2.134-1.832-.47 1.073s1.847 1.921 2.336 1.649" transform="translate(2.91 .779)"/>
            <path fill="#F0A96E" d="M248.204 127.996c.315-.194.672-.574.229-.9l-2.225-1.712-.422 1.091s1.94 1.817 2.418 1.52" transform="translate(2.91 .779)"/>
            <path fill="#F0A96E" d="M247.332 128.573c.331-.156.724-.492.324-.873l-1.997-1.994-.535 1.042s1.704 2.063 2.208 1.825M247.633 125.053c-.387.439-.285 1.136.001 1.407 0 0 .787.849 1.22.962.204.055.668-.37.609-.64-.03-.136-1.83-1.73-1.83-1.73" transform="translate(2.91 .779)"/>
            <path fill="#F0A96E" d="M247.116 125.877c-.387.439-.338 1.085-.09 1.32 0 0 .675.74 1.069.817.186.035.642-.397.605-.644-.02-.127-1.584-1.493-1.584-1.493" transform="translate(2.91 .779)"/>
            <path fill="#F0A96E" d="M246.705 126.862c-.347.395-.34.94-.144 1.125 0 0 .527.59.854.632.154.02.56-.372.541-.58-.01-.106-1.251-1.177-1.251-1.177" transform="translate(2.91 .779)"/>
            <path fill="#7F786A" d="M222.697 102.622l-15.332 2.819-18.066-22.429c-5.114-6.188 1.945-8.233 8.259-14.19l25.14 33.8z" transform="translate(2.91 .779)"/>
            <path fill="#A29C8F" d="M237.142 125.643c-10.801 2.218-20.355-8.79-25.919-15.277-6.208-7.237-12.05-17.109-7.454-22.01 0 0 9.45 3.337 12.864 5.832 6.838 4.995 27.479 25.327 27.479 25.327s-3.108 5.336-6.97 6.128" transform="translate(2.91 .779)"/>
            <path fill="#A29C8F" d="M212.867 89.302l-15.48 7.1S185.19 51.978 184.17 43.378c-1.536-12.966 13.246-6.088 16.65-2.701 8.315 8.271 12.046 48.625 12.046 48.625" transform="translate(2.91 .779)"/>
            <path fill="#7F786A" d="M189.802 142.41s-15.454-.853-33.173-11.81c-17.72-10.957 39.104-73.375 39.104-73.375l6.608 2.583s-5.144 65.307-12.539 82.603" transform="translate(2.91 .779)"/>
            <path fill="#7F786A" d="M190.081 104.465s4.69 68.746 3.909 78.903c-.782 10.156-25.716 84.808-25.716 84.808l-8.065-.777 21.274-87.156-4.69-78.122 13.288 2.344z" transform="translate(2.91 .779)"/>
            <path fill="#A29C8F" d="M129.114 97.434c-3.907 23.437 22.668 81.247 22.668 81.247l-6.656 88.718 7.284 2.627s32.2-78.846 33.763-84.315c1.563-5.468.782-83.59.782-83.59l-57.84-4.687z" transform="translate(2.91 .779)"/>
        </g>
        <g transform="translate(144.546 30.836)">
            <mask id="prefix__s" fill="#fff">
                <use xlink:href="#prefix__r"/>
            </mask>
            <path fill="#FFAF12" d="M13.09 17.692S4.935 44.447.16 56.177c-.873 2.145 13.086 11.437 30.167 15.341 14.529 3.321 18.27 1.276 18.27 1.276s10.534-26.542 12.308-36.602c2.602-14.745.343-27.153-9.525-30.061l-17.537-4.3c-3.47-.79-6.29-1.144-8.588-1.144-11.799 0-9.9 9.322-12.165 17.005" mask="url(#prefix__s)"/>
        </g>
        <g>
            <path fill="#7F786A" d="M74.136 36.522l-.425.089c-1.16.239-2.296-.507-2.536-1.665l-.606-2.922 4.896.171.335 1.794c.24 1.158-.505 2.293-1.664 2.533" transform="translate(120.293 4.657)"/>
            <path fill="#7F786A" d="M77.048 73.165l-6.07 4.012-4.868-6.666 6.819-35.525s1.464-.117 1.625.262c7.748 18.266 2.494 37.917 2.494 37.917" transform="translate(120.293 4.657)"/>
            <path fill="#A29C8F" d="M75.494 31.798s9.054 18.046 6.274 42.302c-2.78 24.256-9.348 64.432-9.348 64.432s7.045-14.452 11.945-54.9c3.062-25.28 4.347-35.171 1.598-42.248-1.648-4.246-4.287-8.588-10.469-9.586" transform="translate(120.293 4.657)"/>
            <path fill="#FCC23F" d="M71.187 15.377S66.7 8.973 69.839 5.333c0 0 1.593-1.512 3.199-.042 0 0-.19-1.889.874-2.183 1.063-.296 2.42.987 2.553 1.41 0 0 2.447-2.612 6.955-3.301.91-.14 4.301.038 3.864 1.387 0 0 2.108-.994 3.932-.07 1.822.924 1.033 2.653.764 2.839 0 0 3.813-1.71 6.466.938 2.653 2.649-.272 7.737-6.769 9.558-8.719 2.443-20.49-.492-20.49-.492" transform="translate(120.293 4.657)"/>
            <path fill="#FDC68B" d="M71.125 32.75l-.836-.277c-1.726-.573-2.66-2.437-2.087-4.162l2.267-6.82c.574-1.727 2.438-2.66 4.164-2.087l.836.277c1.727.573 2.661 2.436 2.088 4.161l-2.268 6.822c-.573 1.725-2.437 2.66-4.164 2.086" transform="translate(120.293 4.657)"/>
            <path fill="#F0A96E" d="M70.247 22.16c.697-2.096 2.847-3.267 4.805-2.618 1.957.65 2.978 2.876 2.283 4.97l-1.557 4.683c-.38 1.145-2.863.035-4.283-2.42-.93-1.607-1.632-3.46-1.632-3.46l.384-1.156z" transform="translate(120.293 4.657)"/>
            <path fill="#FDC68B" d="M74.656 15.293c-.101 1.815-.934 3.246-1.86 3.194-.928-.051-1.72-1.458-1.618-3.274.1-1.815 1.054-3.353 1.982-3.301.926.05 1.596 1.564 1.496 3.38" transform="translate(120.293 4.657)"/>
            <path fill="#FFF0D2" d="M68.468 27.525L74.553 31.903 70.884 36.468 66.657 33.551 67.051 29.42z" transform="translate(120.293 4.657)"/>
            <path fill="#FFF0D2" d="M74.05 31.873c.094.017 1.204-1.053 1.204-1.053s1.488 3.476 1.565 3.969l-.696 1.994-2.072-4.91z" transform="translate(120.293 4.657)"/>
            <path fill="#FDC68B" d="M73.072 12.063c.507.068 1.348.981 1.348.981 1.54-3.506 5.632-5.099 9.14-3.56 3.508 1.54 4.545 5.387 3.004 8.892 0 0-2.244 5.269-2.644 5.88-2.616 3.991-4.949 4.484-8.196 3.059-3.248-1.426-4.85-5.037-3.848-8.347-.613-.395-.919-1.88-.689-3.591.26-1.934 1.103-3.418 1.885-3.314" transform="translate(120.293 4.657)"/>
            <path fill="#F0A96E" d="M85.263 10.568s.15.138.222.21c1.91 1.89 2.288 4.85 1.079 7.598 0 0-2.244 5.269-2.644 5.88-1.719 2.622-3.386 3.788-5.202 3.8-1.188.008-2.21-.43-2.21-.43s4.187-.716 6.953-7.938c1.658-4.332 1.802-9.12 1.802-9.12" transform="translate(120.293 4.657)"/>
            <path fill="#FCC23F" d="M74.566 12.366c-.077.158-1.444 4.079-2.8 6.33-1.355 2.25-2.049 3.177-1.722 4.112.328.936 3.72 6.05 7.908 6.857 3.039.585 4.23-.705 4.368-.868.008-.01.015-.02.021-.034.126-.305 1.835-4.445 1.997-5.318 0 0-2.447 3.753-2.94 3.208-.494-.544-.255-2.001-.998-1.872-.743.127-2.76.924-3.84.633-1.433-.384-3.509-2.088-3.725-5.224 0 0 4.35-9.809 4.257-10.483-.094-.675-2.526 2.659-2.526 2.659" transform="translate(120.293 4.657)"/>
            <path fill="#7F786A" d="M67.858 28.414s-3 43.409-13.815 71.818c-10.813 28.41-11.17 26.696-19.846 24.658C25.519 122.85.649 109.02.649 109.02l19.754-26.434 18.75-54.19s4.21-1.614 9.848-1.784c5.308-.161 12.381-.157 18.857 1.802" transform="translate(120.293 4.657)"/>
            <path fill="#A29C8F" d="M56.352 78.335c-.887-6-1.556-12.022-2.226-18.043-.557-6.031-1.23-12.051-1.654-18.094l-.001-.018c-.027-.387.265-.723.653-.75l.022-.002 4.242-.16-.46 1.126c-1.236-1.364-2.488-2.712-3.69-4.106l-.024-.027c-.207-.24-.18-.6.06-.807l.028-.024c3.766-2.842 7.545-5.668 11.433-8.359-3.49 3.189-7.09 6.241-10.701 9.277l.065-.857c1.299 1.305 2.548 2.655 3.813 3.99.254.268.242.69-.025.944-.12.113-.27.174-.422.182h-.014l-4.238.238.673-.77c.634 6.023 1.019 12.07 1.52 18.104.388 6.047.776 12.091.946 18.156" transform="translate(120.293 4.657)"/>
            <path fill="#F0A96E" d="M85.495 124.889l-.031.142c-.13.594-.716.97-1.308.84l-3.213-.705.266-1.216 4.286.939z" transform="translate(120.293 4.657)"/>
            <path fill="#F0A96E" d="M84.207 128.743s-.911 2.198-1.561 2.579c-.497.293-1.56-.026-1.947-.455-1.014-1.119-2.918-3.756-2.534-5.064.182-.625 1.357-1.302 2.273-1.746.606-.295 1.336-.054 1.645.546l2.124 4.14z" transform="translate(120.293 4.657)"/>
            <path fill="#F0A96E" d="M84.706 129.782c-.178-.806-1.85-3.681-1.85-3.681l-1.167.72s1.615 2.941 2.155 3.49c.298.303.964-.065.862-.529" transform="translate(120.293 4.657)"/>
            <path fill="#F0A96E" d="M84.078 130.9c-.175-.81-1.845-3.686-1.845-3.686l-1.186.731s1.613 2.944 2.155 3.492c.3.302.977-.073.876-.537" transform="translate(120.293 4.657)"/>
            <path fill="#F0A96E" d="M83.074 131.272c-.2-.794-1.878-3.664-1.878-3.664l-1.06.653s1.63 2.933 2.155 3.49c.292.308.898-.024.783-.48" transform="translate(120.293 4.657)"/>
            <path fill="#F0A96E" d="M82.02 131.436c-.2-.794-1.879-3.664-1.879-3.664l-1.059.654s1.628 2.933 2.154 3.49c.292.308.898-.024.783-.48M76.955 123.864L78.714 126.341 81.255 124.495 79.981 121.983z" transform="translate(120.293 4.657)"/>
            <path fill="#FFF0D2" d="M78.792 118.519L81.522 122.653 76.774 125.786 74.044 121.652z" transform="translate(120.293 4.657)"/>
            <path fill="#7F786A" d="M68.961 123.557c-14.874-4.44-24.65-24.85-27.95-36.552-3.684-13.06-5.785-31.767 6.182-29.626 6.336 1.133 12.555 11.11 15.43 16.457 5.757 10.71 18.918 31.953 18.017 45.107-.211 3.074-6.36 6.2-11.679 4.614" transform="translate(120.293 4.657)"/>
            <path fill="#7F786A" d="M64.493 82.213l-24.795-.61s-1.301-38.588.182-47.12c2.237-12.865 19.174 1.14 19.174 1.14l5.439 46.59z" transform="translate(120.293 4.657)"/>
            <path fill="#FCED97" d="M71.187 15.377c-1.14-1.415-2.03-3.039-2.596-4.822-.273-.895-.406-1.858-.316-2.84.078-.981.456-1.979 1.099-2.783l.033-.036.01-.01c.3-.28.569-.453.903-.62.327-.158.697-.267 1.089-.295.801-.081 1.596.302 2.124.778l-1.227.615c-.046-.58-.034-1.082.143-1.691.127-.574.796-1.41 1.719-1.384.878.04 1.336.472 1.74.786l.54.485.211.182c.039.034.024.012.03.023-.028-.018-.082-.042-.127-.047-.04-.019-.32-.037-.44.052l-.343.293c.74-1.005 1.57-1.655 2.522-2.246.945-.57 1.99-.945 3.048-1.187.542-.122 1.038-.197 1.63-.247.634-.032 1.214.074 1.753.232 1.058.305 2.067.85 2.875 1.327l-.637-.004c.692-.283 1.324-.425 2.028-.46.689-.04 1.41.062 2.077.328.61.257 1.417.746 1.584 1.672.073.428-.01.815-.104 1.134l-.135.435c-.072.126.038.22-.131-.017l-.498-.078c1.187-.44 2.41-.527 3.609-.342 1.199.18 2.303.812 3.046 1.701-.904-.73-1.995-1.153-3.102-1.185-1.098-.047-2.222.251-3.176.666l-.066.03c-.155.067-.33.018-.431-.108-.384-.481-.173-.735-.185-.893l.101-.452c.056-.269.07-.502.019-.676-.078-.328-.464-.572-.959-.74-.484-.145-1.007-.183-1.535-.11-.512.07-1.083.23-1.514.427l-.03.014c-.2.092-.426.078-.607-.017-.95-.508-1.754-.887-2.649-1.114-.432-.104-.86-.167-1.236-.142-.41.043-.914.12-1.355.229-.904.218-1.774.555-2.558 1.029-.774.444-1.544 1.086-2.012 1.704l-.015.02c-.089.117-.205.21-.33.273-.175.088-.515.094-.609.055-.1-.025-.208-.068-.29-.11-.09-.055-.207-.13-.255-.174l-.314-.275-.487-.452c-.294-.268-.629-.453-.699-.44-.045-.001-.133-.022-.257.287-.103.276-.143.716-.127 1.06l.002.036c.02.406-.292.75-.697.77-.203.01-.392-.065-.532-.19-.337-.308-.685-.492-1.076-.495-.381-.023-.878.187-1.204.44l.043-.046c-1.118 1.137-1.282 2.95-.964 4.647.29 1.727 1.006 3.402 1.847 4.998" transform="translate(120.293 4.657)"/>
        </g>
    </g>
</svg>
