<!-- Generated by IcoMoon.io -->
<svg version="1.1" xmlns="http://www.w3.org/2000/svg" width="22" height="28" viewBox="0 0 22 28">
<title>android</title>
<path d="M7.703 7.547c0.344 0 0.609-0.281 0.609-0.609s-0.266-0.609-0.609-0.609c-0.328 0-0.594 0.281-0.594 0.609s0.266 0.609 0.594 0.609zM14.297 7.547c0.328 0 0.594-0.281 0.594-0.609s-0.266-0.609-0.594-0.609c-0.344 0-0.609 0.281-0.609 0.609s0.266 0.609 0.609 0.609zM1.609 10.422c0.875 0 1.594 0.719 1.594 1.594v6.719c0 0.891-0.703 1.609-1.594 1.609s-1.609-0.719-1.609-1.609v-6.719c0-0.875 0.719-1.594 1.609-1.594zM18.172 10.719v10.406c0 0.953-0.766 1.719-1.703 1.719h-1.172v3.547c0 0.891-0.719 1.609-1.609 1.609s-1.609-0.719-1.609-1.609v-3.547h-2.156v3.547c0 0.891-0.719 1.609-1.609 1.609-0.875 0-1.594-0.719-1.594-1.609l-0.016-3.547h-1.156c-0.953 0-1.719-0.766-1.719-1.719v-10.406h14.344zM14.547 4.391c2.188 1.125 3.672 3.281 3.672 5.766h-14.453c0-2.484 1.484-4.641 3.687-5.766l-1.109-2.047c-0.063-0.109-0.031-0.25 0.078-0.313 0.109-0.047 0.25-0.016 0.313 0.094l1.125 2.063c0.953-0.422 2.016-0.656 3.141-0.656s2.188 0.234 3.141 0.656l1.125-2.063c0.063-0.109 0.203-0.141 0.313-0.094 0.109 0.063 0.141 0.203 0.078 0.313zM22 12.016v6.719c0 0.891-0.719 1.609-1.609 1.609-0.875 0-1.594-0.719-1.594-1.609v-6.719c0-0.891 0.719-1.594 1.594-1.594 0.891 0 1.609 0.703 1.609 1.594z"></path>
</svg>
