<?xml version="1.0" encoding="UTF-8"?>
<svg width="20px" height="18px" viewBox="0 0 20 18" version="1.1" xmlns="http://www.w3.org/2000/svg" xmlns:xlink="http://www.w3.org/1999/xlink">
    <title>D5392867-335E-4175-B812-BD1945A016AD</title>
    <defs>
        <polygon id="path-1" points="0.00025 -8.33333333e-05 19.5216667 -8.33333333e-05 19.5216667 17.22575 0.00025 17.22575"></polygon>
    </defs>
    <g id="Page-1" stroke="none" stroke-width="1" fill="none" fill-rule="evenodd">
        <g id="Home-page" transform="translate(-453.000000, -4944.000000)">
            <g id="Group-28" transform="translate(188.000000, 4604.000000)">
                <g id="Group-32-Copy" transform="translate(180.000000, 340.000000)">
                    <g id="Group-2">
                        <g id="next_icon" transform="translate(85.000000, 0.000000)">
                            <g>
                                <mask id="mask-2" fill="white">
                                    <use xlink:href="#path-1"></use>
                                </mask>
                                <g id="Clip-2"></g>
                                <path d="M10.28525,17.22575 C9.88275,17.22575 9.50441667,17.0699167 9.22191667,16.7874167 C8.63608333,16.20075 8.63608333,15.2465833 9.22191667,14.6615833 L13.8735833,10.00825 L1.39525,10.00825 C0.626083333,10.00825 0.00025,9.38241667 0.00025,8.61325 C0.00025,7.84325 0.626083333,7.21741667 1.39525,7.21741667 L13.8735833,7.21741667 L9.22191667,2.56491667 C8.63608333,1.97908333 8.63608333,1.02575 9.22191667,0.439083333 C9.50525,0.15575 9.88275,-8.33333333e-05 10.28525,-8.33333333e-05 C10.6869167,-8.33333333e-05 11.06525,0.15575 11.3469167,0.439083333 L19.5219167,8.61408333 L11.3485833,16.7874167 C11.0660833,17.0699167 10.68775,17.22575 10.28525,17.22575" id="Fill-1" fill="#FFB218" mask="url(#mask-2)"></path>
                            </g>
                        </g>
                    </g>
                </g>
            </g>
        </g>
    </g>
</svg>