<!-- Generated by IcoMoon.io -->
<svg version="1.1" xmlns="http://www.w3.org/2000/svg" width="24" height="28" viewBox="0 0 24 28">
<title>share-alt-square</title>
<path d="M20 18.672c0-1.844-1.5-3.344-3.328-3.344-0.875 0-1.672 0.344-2.266 0.906l-3.766-1.875c0.016-0.125 0.031-0.234 0.031-0.359s-0.016-0.234-0.031-0.359l3.766-1.875c0.594 0.562 1.391 0.906 2.266 0.906 1.828 0 3.328-1.5 3.328-3.344 0-1.828-1.5-3.328-3.328-3.328-1.844 0-3.344 1.5-3.344 3.328 0 0.125 0.016 0.234 0.031 0.359l-3.766 1.875c-0.594-0.547-1.391-0.891-2.266-0.891-1.828 0-3.328 1.484-3.328 3.328s1.5 3.328 3.328 3.328c0.875 0 1.672-0.344 2.266-0.891l3.766 1.875c-0.016 0.125-0.031 0.234-0.031 0.359 0 1.828 1.5 3.328 3.344 3.328 1.828 0 3.328-1.5 3.328-3.328zM24 6.5v15c0 2.484-2.016 4.5-4.5 4.5h-15c-2.484 0-4.5-2.016-4.5-4.5v-15c0-2.484 2.016-4.5 4.5-4.5h15c2.484 0 4.5 2.016 4.5 4.5z"></path>
</svg>
