<svg id="Layer_1" data-name="Layer 1" xmlns="http://www.w3.org/2000/svg" width="264.5" height="277.2" viewBox="0 0 264.5 277.2"><rect x="13.7" y="127.5" width="16.1" height="6.54" style="fill:#ececec"/><rect x="4.7" y="135.8" width="16.1" height="6.54" style="fill:#ececec"/><rect x="22.7" y="135.8" width="16.1" height="6.54" style="fill:#ececec"/><rect x="236" y="135.8" width="16.1" height="6.54" style="fill:#ececec"/><rect x="236" y="43.2" width="16.1" height="6.54" style="fill:#ececec"/><rect x="245" y="51.4" width="16.1" height="6.54" style="fill:#ececec"/><rect x="4.7" y="43.2" width="16.1" height="6.54" style="fill:#ececec"/><rect x="90.4" y="189.7" width="16.1" height="6.54" transform="translate(198.1 386.1) rotate(180)" style="fill:#ececec"/><rect x="99.4" y="181.5" width="16.1" height="6.54" transform="translate(216.1 369.7) rotate(180)" style="fill:#ececec"/><line x1="30.2" y1="80.8" x2="30.2" style="fill:none;stroke:#c8c8c8;stroke-miterlimit:10;stroke-width:0.5957303690998064px"/><polygon points="55.4 104.1 53.3 108.4 7.1 108.4 5.1 104.1 24.8 91 35.7 91 55.4 104.1" style="fill:#ececec"/><polygon points="37 78.4 35.7 91 24.8 91 23.4 78.4 37 78.4" style="fill:#dcdcdc"/><polygon points="55.4 104.1 53.3 108.4 7.1 108.4 5.1 104.1 55.4 104.1" style="fill:#dcdcdc"/><line x1="80.9" y1="55.9" x2="80.9" style="fill:none;stroke:#c8c8c8;stroke-miterlimit:10;stroke-width:0.5957303690998064px"/><polygon points="106 79.2 104 83.5 57.8 83.5 55.8 79.2 75.4 66.1 86.4 66.1 106 79.2" style="fill:#ececec"/><polygon points="87.7 53.4 86.4 66.1 75.4 66.1 74.1 53.4 87.7 53.4" style="fill:#dcdcdc"/><polygon points="106 79.2 104 83.5 57.8 83.5 55.8 79.2 106 79.2" style="fill:#dcdcdc"/><ellipse cx="132.9" cy="261.3" rx="128.9" ry="15.9" style="fill:#ececec"/><polygon points="0 238.4 33.1 238.3 66.1 238.2 132.3 238.1 198.4 238.2 231.5 238.3 264.5 238.4 231.5 238.6 198.4 238.6 132.3 238.7 66.1 238.6 33.1 238.6 0 238.4" style="fill:#1a2e35"/><path d="M232.5,137.5s-14.6-1.9-11.2-19C221.3,118.5,237.7,122,232.5,137.5Z" transform="translate(1.2 0.2)" style="fill:#ffbc2d"/><path d="M232.5,137.5s-14.6-1.9-11.2-19C221.3,118.5,237.7,122,232.5,137.5Z" transform="translate(1.2 0.2)" style="opacity:0.1"/><path d="M231.8,134a27.7,27.7,0,0,0-1-2.6v-.3a1.7,1.7,0,0,1-.1-.7c0-.5-.1-1-.1-1.5s-.1-2.1-.2-3.1h0a16.1,16.1,0,0,0,0,3.1,7.6,7.6,0,0,0,.1,1.5v.3a24.1,24.1,0,0,0-3-4.8l-1.6-2-1.8-1.9s-.1.1,0,.1a23.3,23.3,0,0,1,2.8,3.6l1.3,2H228l-.5-.2-1.2-.5-2.3-.8h-.1l2.3.9,1.2.5.6.2h.3l.9,1.6a30,30,0,0,1,1.8,4.1v.2l-1.2-.5-1.5-.7-3.1-1.4h0l3,1.7,1.5.7a8.4,8.4,0,0,0,1.4.6,13.8,13.8,0,0,1,1,4c.1,1.9.1,3.8.2,5.8h0a48.4,48.4,0,0,0,.3-5.3A15.7,15.7,0,0,0,231.8,134Z" transform="translate(1.2 0.2)" style="fill:#1a2e35"/><path d="M229.5,123.9a15.1,15.1,0,0,0-.1,3h0c.1-1,.1-1.9.2-2.9Z" transform="translate(1.2 0.2)" style="fill:#1a2e35"/><path d="M225.3,124.8a16.3,16.3,0,0,1-1.9-.9h0a11.1,11.1,0,0,0,1.9.9C225.4,124.9,225.4,124.8,225.3,124.8Z" transform="translate(1.2 0.2)" style="fill:#1a2e35"/><path d="M233,164.6c0-1.5,0-3.1-.1-4.7,0-5.2,0-10.3-.1-15.5l-.3-12.4h-.1v-3.4h-.1V132h-.1c-.2,7.4-.4,14.7-.4,22v4.5c-.1,4.8-.1,9.5-.1,14.3v15.4c0,.3.3.4.6.4s.7-.1.7-.4V164.6Z" transform="translate(1.2 0.2)" style="fill:#1a2e35"/><path d="M226.9,159.9s-7.1-5.1-13.8-1.7-7.7,16.6-7.7,16.6,9.8,1.3,16-4.4S226.9,159.9,226.9,159.9Z" transform="translate(1.2 0.2)" style="fill:#ffbc2d"/><path d="M228.8,160.2a8.2,8.2,0,0,0-4.1-.5h-3.9l-4.2-.3h0l4.1.5,2.2.2h-.2a21.5,21.5,0,0,0-3.2,1.3l-1.6.3-2.6.7-5.1,1.4c-.1,0-.1.1,0,.1l5.1-1.2,2.5-.6h.6a20.3,20.3,0,0,0-5,4.2,27,27,0,0,0-3.5,5.3h.1a26.5,26.5,0,0,1,4.2-5.3.4.4,0,0,1-.1.3,5.6,5.6,0,0,1-.4,1.2c-.2.8-.5,1.6-.7,2.4h.1a15.5,15.5,0,0,1,.8-2.3,5.6,5.6,0,0,0,.4-1.2,1.4,1.4,0,0,0,.2-.6c.1-.1.1-.1.1-.2a24.3,24.3,0,0,1,2.5-2,17.6,17.6,0,0,1,3.8-2.1c-.1.1-.1.2-.1.4s-.1.6-.2.9-.3,1.3-.4,1.9-.4,2.7-.7,4h.1c.3-1.3.7-2.6,1-4s.3-1.3.5-1.9a3,3,0,0,1,.2-1,4.3,4.3,0,0,0,.1-.5h.4a10.6,10.6,0,0,1,5.8-.8,5.6,5.6,0,0,1,4.3,3.3.2.2,0,0,0,.3-.1A5.2,5.2,0,0,0,228.8,160.2Z" transform="translate(1.2 0.2)" style="fill:#1a2e35"/><path d="M218,165.8l-.6,2.6a18.4,18.4,0,0,0-.5,2.5h.1l.6-2.5a23.8,23.8,0,0,1,.5-2.6S218,165.7,218,165.8Z" transform="translate(1.2 0.2)" style="fill:#1a2e35"/><path d="M211.2,168l-2.8,1.3h.1l2.7-1.4Z" transform="translate(1.2 0.2)" style="fill:#1a2e35"/><path d="M228.5,150.6s-8.7.6-12.7-4.9-3.1-13.3-3.1-13.3,9.1,1,12.7,5S228.5,150.6,228.5,150.6Z" transform="translate(1.2 0.2)" style="fill:#ffbc2d"/><path d="M232.5,158.8c-.3-.9-.7-1.7-1-2.6a18.9,18.9,0,0,0-1.1-2.5,45.9,45.9,0,0,0-2.6-4.9c-.6-1-1.2-2-1.9-3a.6.6,0,0,0-.1-.4,2.2,2.2,0,0,0-.1-.8l-.3-1.5-.6-3.5h-.1c.2,1.2.3,2.3.5,3.4s.1,1.1.2,1.7a1.3,1.3,0,0,1,.1.6,52.5,52.5,0,0,0-4.3-5.3l-.6-.7c0-.1,0-.1-.1-.2s-.1-.3-.2-.5l-.3-1a14.6,14.6,0,0,1-.7-1.9h-.1l.6,2,.3,1a.1.1,0,0,1,.1.1l-3.4-3.3h-.1a58.2,58.2,0,0,1,6.1,7.2h-.6l-2-.3-4.2-.6c-.1,0-.1.1,0,.1l4,.9,1.8.3,1.6.5.4.5,1.8,2.7h-.9l-2-.4-3.9-.7c-.1,0-.1.1,0,.1l3.9,1,1.9.4,1,.2h.4c1.2,1.9,2.4,4,3.5,6a24.4,24.4,0,0,1,1.4,2.8c.5.9.9,1.9,1.3,2.8S232.6,159,232.5,158.8Z" transform="translate(1.2 0.2)" style="fill:#1a2e35"/><path d="M223.7,139.7c-.2-.8-.4-1.6-.5-2.3h-.1c.1.8.3,1.5.4,2.3s.3,1.6.5,2.3h.1C224,141.3,223.8,140.5,223.7,139.7Z" transform="translate(1.2 0.2)" style="fill:#1a2e35"/><path d="M218.6,139.5l-1.2-.5-.7-.3H216l.4.2h.3l.6.3,1.3.5C218.7,139.6,218.7,139.5,218.6,139.5Z" transform="translate(1.2 0.2)" style="fill:#1a2e35"/><path d="M237.3,144.1s5.2-9.4,13.2-10.9,12.8,6.5,12.8,6.5-5.8,7.1-13.1,8.3S237.3,144.1,237.3,144.1Z" transform="translate(1.2 0.2)" style="fill:#ffbc2d"/><path d="M255.8,137.5a21.5,21.5,0,0,0-6.2,0l.3-.2,1.8-.8c1.2-.6,2.4-1.3,3.7-1.8s0-.1,0-.1l-3.8,1.6-1.8.9-1.2.6a27.6,27.6,0,0,0-5.1,1.6l1-1a25,25,0,0,1,2.3-2.3h-.1l-2.5,2.2-1.1,1.1-.6.6a21,21,0,0,0-8.3,7.9,18.2,18.2,0,0,0-2.3,6h.1a21.3,21.3,0,0,1,5.8-9.5,22.9,22.9,0,0,1,10.6-6,26.2,26.2,0,0,1,7.4-.6C255.9,137.6,255.9,137.5,255.8,137.5Z" transform="translate(1.2 0.2)" style="fill:#1a2e35"/><path d="M263.3,139.7s-5.8,7.1-13.1,8.3c-5.6,1-10.1-1.8-12-3.2l-.4-.6a29.2,29.2,0,0,1,10.9-4.8C255.8,137.6,263.3,139.7,263.3,139.7Z" transform="translate(1.2 0.2)" style="opacity:0.1"/><path d="M251.2,134.1l-1.8,1.1-1.5,1.4h.1l1.6-1.3,1.6-1.1C251.3,134.1,251.2,134.1,251.2,134.1Z" transform="translate(1.2 0.2)" style="fill:#1a2e35"/><path d="M255.6,135.7l-.9.3-.9.4c-.1,0-.1.1,0,.1l.9-.4.9-.3Z" transform="translate(1.2 0.2)" style="fill:#1a2e35"/><path d="M236.3,155.9s1.4,9.3,8.6,12.6,16.2,0,16.2,0S257.6,148.3,236.3,155.9Z" transform="translate(1.2 0.2)" style="fill:#ffbc2d"/><path d="M256.1,162.4a12,12,0,0,1-2-.3h-1.5l-.6-.6a35.8,35.8,0,0,0-4.5-3.1l-2.6-1.3h2.5l4.8.2c.1,0,.1-.1,0-.1l-4.8-.4-2.3-.2h-1.5l-1.3-.4a11.9,11.9,0,0,0-6.2-.4c-1.8.5-3.6,1.6-4.1,3.5h.1c.7-1.6,2.5-2.4,4.1-2.7a12.2,12.2,0,0,1,3.3-.1,5.7,5.7,0,0,0,.4,1.4l.6,2,1.3,3.9c0,.1.1.1,0,0l-.9-3.9c-.2-.7-.3-1.3-.5-2a6.5,6.5,0,0,0-.4-1.3l1.9.4,3.3,1.2c.1.7.3,1.3.4,2s.5,1.6.7,2.4h.1v-.2h0a17.4,17.4,0,0,1-.5-2.2,16.2,16.2,0,0,1-.4-1.9l2.6,1.3c0,.2.1.4.1.6s.1.6.2.9a17.4,17.4,0,0,0,.5,2.2,30.4,30.4,0,0,0,1.2,4h.1c-.3-1.4-.7-2.8-1-4.2s-.3-1.3-.5-2a4.3,4.3,0,0,0-.2-1.1v-.3l2.8,1.8a32.5,32.5,0,0,1,4.4,3.8h.1l-1.8-2.1-1.1-1.1h.1l1,.2,2.1.2Z" transform="translate(1.2 0.2)" style="fill:#1a2e35"/><path d="M251,165.6h0v-.3c0-.1-.1-.2-.1-.3h0a11.6,11.6,0,0,0-.4-1.8h0a6.9,6.9,0,0,0,.5,2.4Z" transform="translate(1.2 0.2)" style="fill:#1a2e35"/><path d="M244.9,165.4h-.1l-.6-2.5a5.9,5.9,0,0,0-.2-1.3c-.1-.2-.1-.5-.2-.7a1.3,1.3,0,0,0-.1-.6h-.1a3,3,0,0,0,.2,1.3l.3,1.3a28.6,28.6,0,0,0,.7,2.8h.1Z" transform="translate(1.2 0.2)" style="fill:#1a2e35"/><path d="M255.4,159.7l-4-.5s-.1.1,0,.1l4,.5C255.5,159.8,255.5,159.8,255.4,159.7Z" transform="translate(1.2 0.2)" style="fill:#1a2e35"/><path d="M232.5,134.1s-4.4-18.9,16.6-26.5C249.1,107.6,254.9,132.4,232.5,134.1Z" transform="translate(1.2 0.2)" style="fill:#ffbc2d"/><path d="M237.1,123.4c0-.1.1-.1.2-.1l1.2-.7,2.4-1.3,4.8-2.6c.1,0,0-.1,0-.1l-4.9,2.5-2.4,1.2-1,.5a28.5,28.5,0,0,1,2.3-3.7c1.1-1.6,2.3-3.2,3.5-4.7.1,0,0-.1-.1-.1a34.2,34.2,0,0,0-4.9,5.8v-4.4h-.1a24.5,24.5,0,0,1-.2,2.7,6.6,6.6,0,0,1-.1,1.4v.8l-1.2,2c-.7,1.2-1.3,2.5-1.9,3.8a6.1,6.1,0,0,0-.1-1.4c0-1.1-.2-2.1-.2-3.1s-.1-.1-.1,0V125a7.6,7.6,0,0,0,.1,1.5v.6a31.3,31.3,0,0,0-1.6,5.2,50.3,50.3,0,0,0-.8,5.6h.1a21.3,21.3,0,0,1,1.1-5,27.6,27.6,0,0,1,.8-2.7l2.6-1.3,2.6-1.4c1.7-.9,3.5-1.9,5.3-2.7.1,0,0-.1,0-.1l-5.5,2.5-2.7,1.3-2.1,1.3.6-1.8A48.1,48.1,0,0,1,237.1,123.4Z" transform="translate(1.2 0.2)" style="fill:#1a2e35"/><path d="M235.3,119.1h-.1c.1,1.1.1,2.1.2,3.2s.1.1.1,0S235.4,120.2,235.3,119.1Z" transform="translate(1.2 0.2)" style="fill:#1a2e35"/><path d="M245.4,122.7l-4,1.5h0l4-1.5Z" transform="translate(1.2 0.2)" style="fill:#1a2e35"/><path d="M247.4,114l-3.8,1.9c0,.1,0,.2.1.1l3.7-1.9C247.5,114.1,247.4,114,247.4,114Z" transform="translate(1.2 0.2)" style="fill:#1a2e35"/><rect x="218" y="174.9" width="30.3" height="30.72" style="fill:#a59c8f"/><rect x="215.9" y="185.8" width="1.5" height="52.62" style="fill:#1a2e35"/><rect x="248.6" y="185.8" width="1.5" height="52.62" style="fill:#1a2e35"/><rect x="233.1" y="185.8" width="1.5" height="52.62" style="fill:#1a2e35"/><rect x="216.7" y="203.7" width="32.7" height="4.25" style="fill:#1a2e35"/><path d="M214.4,27.3H111.7a10.4,10.4,0,0,0-10.4,10.2V240.9A10.3,10.3,0,0,0,111.7,251H214.4a10.3,10.3,0,0,0,10.4-10.1V37.5A10.4,10.4,0,0,0,214.4,27.3Zm3.9,207.3a9.6,9.6,0,0,1-9.3,9.7H117.1a9.6,9.6,0,0,1-9.3-9.7V45.2c0-10.9,4.2-11.4,9.3-11.4h18.4c1.1,0,2,1.1,2,2.6V37c0,3.4,1.9,3.4,4.3,3.4h42.5c2.4,0,4.3,0,4.3-3.4v-.6c0-1.5.9-2.6,2-2.6H209c5.1,0,9.3,1.4,9.3,11.4Z" transform="translate(1.2 0.2)" style="fill:#82796a"/><line x1="109.1" y1="222.8" x2="108.7" y2="222.8" style="fill:none"/><path d="M168.9,36.2H157.3a.8.8,0,0,1-.8-.7h0a.8.8,0,0,1,.8-.7h11.6a.7.7,0,0,1,.7.7h0A.7.7,0,0,1,168.9,36.2Z" transform="translate(1.2 0.2)" style="fill:#fff"/><path d="M185.9,86.5v15.8H107.8V60a5.5,5.5,0,0,1,5.6-5.4h.1a9.2,9.2,0,0,1,9.1-7.5,9.3,9.3,0,0,1,8.1,4.7h1.2a8.1,8.1,0,0,1,4.6,1.4,11.4,11.4,0,0,1,6.6-2.2,10.5,10.5,0,0,1,10.7,10.3,7.1,7.1,0,0,1-.3,2.1,5.4,5.4,0,0,1,2.1,3.1,9.9,9.9,0,0,1,6.3-2.3,9.6,9.6,0,0,1,6.6,2.7h0l1.1,1.2h0c.1.1.1.1.1.2h.1c0,.1.1.1.1.2a4.6,4.6,0,0,1,.7,1.6,5,5,0,0,1,.4,1.3h2.2a8.1,8.1,0,0,1,3.5,1.2h0l.2.2.4.3a5.2,5.2,0,0,1,1.1,1,7.8,7.8,0,0,1,1.9,5.1,4.7,4.7,0,0,1-.2,1.7h.2a5.6,5.6,0,0,1,5.6,5.4Z" transform="translate(1.2 0.2)" style="fill:#fff"/><g style="opacity:0.2"><path d="M185.9,86.5v15.8H107.8V60a5.5,5.5,0,0,1,5.6-5.4h.1a9.2,9.2,0,0,1,9.1-7.5,9.3,9.3,0,0,1,8.1,4.7h1.2a8.1,8.1,0,0,1,4.6,1.4,11.4,11.4,0,0,1,6.6-2.2,10.5,10.5,0,0,1,10.7,10.3,7.1,7.1,0,0,1-.3,2.1,5.4,5.4,0,0,1,2.1,3.1,9.9,9.9,0,0,1,6.3-2.3,9.6,9.6,0,0,1,6.6,2.7h0l1.1,1.2h0c.1.1.1.1.1.2h.1c0,.1.1.1.1.2a4.6,4.6,0,0,1,.7,1.6,5,5,0,0,1,.4,1.3h2.2a8.1,8.1,0,0,1,3.5,1.2h0l.2.2.4.3a5.2,5.2,0,0,1,1.1,1,7.8,7.8,0,0,1,1.9,5.1,4.7,4.7,0,0,1-.2,1.7h.2a5.6,5.6,0,0,1,5.6,5.4Z" transform="translate(1.2 0.2)" style="fill:#ffc800"/></g><path d="M218.3,62.6v39.7H126.5a6,6,0,1,1,0-12h.4a9.2,9.2,0,0,1,7.2-6.1,6.6,6.6,0,0,1,6.4-4.6,6.5,6.5,0,0,1,3.9,1.3l1.1-.7a8.7,8.7,0,0,1,5.8-2.6,9.9,9.9,0,0,1-.2-1.7,8.7,8.7,0,0,1,8.9-8.5,9.1,9.1,0,0,1,6.9,3.2,8,8,0,0,1,9.6-2.8,11,11,0,0,1,6.9-2.5,10.8,10.8,0,0,1,7.5,3.2A10.6,10.6,0,0,1,194,68a4.9,4.9,0,0,1-1.1-3.1,5,5,0,0,1,5-4.8h.3a10.3,10.3,0,0,1,9.9-7.3A10,10,0,0,1,218.3,62.6Z" transform="translate(1.2 0.2)" style="fill:#fff"/><g style="opacity:0.4"><path d="M218.3,62.6v39.7H126.5a6,6,0,1,1,0-12h.4a9.2,9.2,0,0,1,7.2-6.1,6.6,6.6,0,0,1,6.4-4.6,6.5,6.5,0,0,1,3.9,1.3l1.1-.7a8.7,8.7,0,0,1,5.8-2.6,9.9,9.9,0,0,1-.2-1.7,8.7,8.7,0,0,1,8.9-8.5,9.1,9.1,0,0,1,6.9,3.2,8,8,0,0,1,9.6-2.8,11,11,0,0,1,6.9-2.5,10.8,10.8,0,0,1,7.5,3.2A10.6,10.6,0,0,1,194,68a4.9,4.9,0,0,1-1.1-3.1,5,5,0,0,1,5-4.8h.3a10.3,10.3,0,0,1,9.9-7.3A10,10,0,0,1,218.3,62.6Z" transform="translate(1.2 0.2)" style="fill:#ffc800"/></g><path d="M163,111.3a3.5,3.5,0,0,1-3.5,3.4H107.8V92.3a5.8,5.8,0,0,1,11.5-.6,3.2,3.2,0,0,1,1.4-.3,3.5,3.5,0,0,1,3.6,3.4,5.7,5.7,0,0,1,3.2-.9,5.4,5.4,0,0,1,2.2.4,2,2,0,0,1,.8.4l.8.5a5.7,5.7,0,0,1,1.8-.3h.6l1,.3a2.4,2.4,0,0,1,1.1.6,2.3,2.3,0,0,1,.7.7l.2.3c.2-.1.3-.3.5-.5a5.2,5.2,0,0,1,3.5-1.3l1.4.2,1.1.5a4.7,4.7,0,0,1,2.4,4.1v.3a1.7,1.7,0,0,1-.1.7,4.8,4.8,0,0,1,3.3,1.4l.6.4h0a4.1,4.1,0,0,1,2.2-.7,3.7,3.7,0,0,1,3.6,2.6,5.3,5.3,0,0,1,4.1,3.4h.2A3.5,3.5,0,0,1,163,111.3Z" transform="translate(1.2 0.2)" style="fill:#fff"/><g style="opacity:0.4"><path d="M163,111.3a3.5,3.5,0,0,1-3.5,3.4H107.8V92.3a5.8,5.8,0,0,1,11.5-.6,3.2,3.2,0,0,1,1.4-.3,3.5,3.5,0,0,1,3.6,3.4,5.7,5.7,0,0,1,3.2-.9,5.4,5.4,0,0,1,2.2.4,2,2,0,0,1,.8.4l.8.5a5.7,5.7,0,0,1,1.8-.3h.6l1,.3a2.4,2.4,0,0,1,1.1.6,2.3,2.3,0,0,1,.7.7l.2.3c.2-.1.3-.3.5-.5a5.2,5.2,0,0,1,3.5-1.3l1.4.2,1.1.5a4.7,4.7,0,0,1,2.4,4.1v.3a1.7,1.7,0,0,1-.1.7,4.8,4.8,0,0,1,3.3,1.4l.6.4h0a4.1,4.1,0,0,1,2.2-.7,3.7,3.7,0,0,1,3.6,2.6,5.3,5.3,0,0,1,4.1,3.4h.2A3.5,3.5,0,0,1,163,111.3Z" transform="translate(1.2 0.2)" style="fill:#ffc800"/></g><path d="M218.2,91.7h.1v23H138.8a3.6,3.6,0,0,1-3.2-3.5,3.7,3.7,0,0,1,3.8-3.6h.3a4.8,4.8,0,0,1,3.8-1.8h.7a7.1,7.1,0,0,1-.1-1.4,6.9,6.9,0,0,1,13.3-2.5,6.4,6.4,0,0,1,3.6-1.1,6.1,6.1,0,0,1,3,.8,9,9,0,0,1,8.4-5.6,9.1,9.1,0,0,1,7.1,3.3,4.9,4.9,0,0,1,4.3-4.3,6.1,6.1,0,0,1,5.9-4.3,5.9,5.9,0,0,1,6.1,5.8h0l1.6-.2,1.8.2a9.1,9.1,0,0,1,8.2-5.1h1.3a1.7,1.7,0,0,1-.1-.7,4.9,4.9,0,0,1,9.7,0A2.8,2.8,0,0,1,218.2,91.7Z" transform="translate(1.2 0.2)" style="fill:#fff"/><g style="opacity:0.2"><path d="M218.2,91.7h.1v23H138.8a3.6,3.6,0,0,1-3.2-3.5,3.7,3.7,0,0,1,3.8-3.6h.3a4.8,4.8,0,0,1,3.8-1.8h.7a7.1,7.1,0,0,1-.1-1.4,6.9,6.9,0,0,1,13.3-2.5,6.4,6.4,0,0,1,3.6-1.1,6.1,6.1,0,0,1,3,.8,9,9,0,0,1,8.4-5.6,9.1,9.1,0,0,1,7.1,3.3,4.9,4.9,0,0,1,4.3-4.3,6.1,6.1,0,0,1,5.9-4.3,5.9,5.9,0,0,1,6.1,5.8h0l1.6-.2,1.8.2a9.1,9.1,0,0,1,8.2-5.1h1.3a1.7,1.7,0,0,1-.1-.7,4.9,4.9,0,0,1,9.7,0A2.8,2.8,0,0,1,218.2,91.7Z" transform="translate(1.2 0.2)" style="fill:#ffc800"/></g><path d="M165.2,92.2c-.4-.4-5.1-3.6-5.4-3.8h.8S164.9,91.8,165.2,92.2Z" transform="translate(1.2 0.2)" style="fill:#fff"/><path d="M165.2,92.2h0a1.3,1.3,0,0,1-.8.2h-1l-5.5-2.7h-.4l-.9-.5h-.3l3.5-.6,3.2,2.2a.1.1,0,0,1,.1.1l.4.2,1.7,1.3Z" transform="translate(1.2 0.2)" style="fill:#ffc800"/><g style="opacity:0.1"><path d="M165.2,92.2h0a1.3,1.3,0,0,1-.8.2h-1l-5.6-2.7c.3.2,4.8,2.2,5.7,1.2l1.7,1.3Z" transform="translate(1.2 0.2)"/></g><path d="M211.2,95.9h0c0,.4-2.6.6-2.9.5L179.9,85.7l10.3-3.9.3.2h.1l12.5,8.4.3.2.4.3Z" transform="translate(1.2 0.2)" style="fill:#ffc800"/><path d="M211.2,95.9c-2.5-1.8-18.9-12.7-21-14.1l1.3-.5s19,13.9,19.6,14.5A.1.1,0,0,1,211.2,95.9Z" transform="translate(1.2 0.2)" style="fill:#fff"/><g style="opacity:0.5"><path d="M211.2,95.9h0c0,.4-2.6.6-2.9.5L179.9,85.7l10.3-3.9s-2.6,2.8,3.5,7.1c4.1,2.9,8.5,3.5,10.1,2Z" transform="translate(1.2 0.2)" style="opacity:0.1"/></g><path d="M187.8,89.2c-.8.3-1.6.6-1.7-.1s.2-.7,1.5-1.3,1-.4,1.3.2S188.1,89,187.8,89.2Z" transform="translate(1.2 0.2)" style="fill:#fff"/><path d="M194.3,91.7c-.8.4-1.6.7-1.7-.1s.2-.6,1.5-1.2,1-.5,1.3.2S194.6,91.6,194.3,91.7Z" transform="translate(1.2 0.2)" style="fill:#fff"/><path d="M200.8,94.3c-.8.4-1.6.6-1.7-.1s.2-.7,1.5-1.3,1-.4,1.3.2S201.1,94.1,200.8,94.3Z" transform="translate(1.2 0.2)" style="fill:#fff"/><path d="M198.7,87.6c-.8,1.3-2.6,1.8-3.7,2.2-3,1.2-5.1,1.8-6.2-.8l-.3-.9c-.1-2,2-3,3.1-3.5h0l2.9-1.4a4.3,4.3,0,0,1,2.1-.5c.6-.1,2,.1,2.4,2.5A3.1,3.1,0,0,1,198.7,87.6Z" transform="translate(1.2 0.2)" style="fill:#ffc800"/><path d="M198.7,85.7c0,1.5-.9,2.6-2.1,2.6s-2.1-1.1-2.1-2.6.9-2.7,2.1-2.7S198.7,84.2,198.7,85.7Z" transform="translate(1.2 0.2)" style="fill:#1a2e35"/><path d="M198.5,85.7a1.9,1.9,0,1,1-3.8,0,2,2,0,1,1,3.8,0Z" transform="translate(1.2 0.2)" style="fill:#375a64"/><path d="M154.1,85l-.5.2-1.1.3c-1-.4-2.4-.9-3.8-1.6l-9-3.6h1l.8.3h.7l.5.2h.3l4,1.3h.3l1.5.5,2.5.8h.4l1.1.4h.5Z" transform="translate(1.2 0.2)" style="fill:#fff"/><path d="M152.5,85.5l-3,1.1-10.6-4.8h-.1l-1.1-.5-1.7-.9a8.4,8.4,0,0,1,3.6,0h.1l8.6,3.5h.4C150.1,84.6,151.5,85.1,152.5,85.5Z" transform="translate(1.2 0.2)" style="fill:#ffbc2d"/><g style="opacity:0.1"><path d="M152.5,85.5l-3,1.1-10.6-4.8c.7.2,7.4,3.1,9.1,2.7a1.1,1.1,0,0,0,.7-.6C150.1,84.6,151.5,85.1,152.5,85.5Z" transform="translate(1.2 0.2)"/></g><path d="M160.2,81.5l-7.3,3.3s.1-6,.2-10.2v-4c0-1.7.2-2.1.7-1.8a19.4,19.4,0,0,1,3.2,2.8c.5.7,1.7,4.6,2.5,7.3h0c0,.2.1.3.1.5S160.2,81.5,160.2,81.5Z" transform="translate(1.2 0.2)" style="fill:#ffc800"/><g style="opacity:0.1"><path d="M160.2,81.5l-7.3,3.3s.1-6,.2-10.2c1,2.2,3.1,5.4,6.5,4.8C159.9,80.6,160.2,81.5,160.2,81.5Z" transform="translate(1.2 0.2)"/></g><path d="M147.9,88.4c-.8-1.7,2.4-3.4,6-4.9s38.9-16.6,44-17.9,11.1.5,12.1,3.3-4.9,7.8-27.7,16.9c-3,1.2-16.4,4.3-24,4.3S148.3,89.3,147.9,88.4Z" transform="translate(1.2 0.2)" style="fill:#fff"/><path d="M182.3,85.8c-3,1.2-16.4,4.3-24,4.3s-10-.8-10.4-1.7.3-1.8,1.5-2.6a1.1,1.1,0,0,0,.1.5c.4.8,2.2,1.5,9.5,1.5s16.7-5.3,19.4-6.4c20.7-8.3,28.9-9,27.5-12.8-.6-1.7-3.1-3-6.1-3.3,4.6-.6,9.3,1.1,10.2,3.6C211.5,73.1,205.1,76.7,182.3,85.8Z" transform="translate(1.2 0.2)" style="fill:#ececec"/><polygon points="160.3 82.8 161.1 82.4 161.1 83.6 160.3 83.9 160.3 82.8" style="fill:#375a64"/><polygon points="161.8 82.1 162.7 81.8 162.7 82.9 161.8 83.3 161.8 82.1" style="fill:#375a64"/><polygon points="163.3 81.5 164.2 81.1 164.2 82.3 163.3 82.6 163.3 81.5" style="fill:#375a64"/><polygon points="164.9 80.9 165.7 80.5 165.7 81.6 164.9 82 164.9 80.9" style="fill:#375a64"/><polygon points="166.4 80.2 167.3 79.9 167.3 81 166.4 81.4 166.4 80.2" style="fill:#375a64"/><polygon points="167.9 79.6 168.8 79.2 168.8 80.4 167.9 80.7 167.9 79.6" style="fill:#375a64"/><polygon points="169.5 78.9 170.3 78.6 170.3 79.7 169.5 80.1 169.5 78.9" style="fill:#375a64"/><polygon points="171 78.3 171.9 77.9 171.9 79.1 171 79.4 171 78.3" style="fill:#375a64"/><polygon points="172.6 77.7 173.4 77.3 173.4 78.4 172.6 78.8 172.6 77.7" style="fill:#375a64"/><polygon points="174.1 77 175 76.7 175 77.8 174.1 78.2 174.1 77" style="fill:#375a64"/><polygon points="175.6 76.4 176.5 76 176.5 77.2 175.6 77.5 175.6 76.4" style="fill:#375a64"/><polygon points="177.2 75.7 178 75.4 178 76.5 177.2 76.9 177.2 75.7" style="fill:#375a64"/><polygon points="178.7 75.1 179.6 74.7 179.6 75.9 178.7 76.2 178.7 75.1" style="fill:#375a64"/><polygon points="180.2 74.5 181.1 74.1 181.1 75.2 180.2 75.6 180.2 74.5" style="fill:#375a64"/><polygon points="181.8 73.8 182.6 73.5 182.6 74.6 181.8 75 181.8 73.8" style="fill:#375a64"/><polygon points="183.3 73.2 184.2 72.8 184.2 74 183.3 74.3 183.3 73.2" style="fill:#375a64"/><polygon points="184.8 72.5 185.7 72.2 185.7 73.3 184.8 73.7 184.8 72.5" style="fill:#375a64"/><polygon points="186.4 71.9 187.2 71.5 187.2 72.7 186.4 73.1 186.4 71.9" style="fill:#375a64"/><polygon points="187.9 71.3 188.8 70.9 188.8 72 187.9 72.4 187.9 71.3" style="fill:#375a64"/><polygon points="189.4 70.6 190.3 70.3 190.3 71.4 189.4 71.8 189.4 70.6" style="fill:#375a64"/><polygon points="191 70 191.8 69.6 191.8 70.8 191 71.1 191 70" style="fill:#375a64"/><polygon points="193.4 69 193.4 70.1 192.5 70.5 192.5 69.3 193.4 69" style="fill:#375a64"/><polygon points="194.9 68.3 194.9 69.5 194.1 69.9 194.1 68.7 194.9 68.3" style="fill:#375a64"/><polygon points="196.5 67.7 196.5 68.9 195.6 69.2 195.6 68.1 196.5 67.7" style="fill:#375a64"/><polygon points="198 67.1 198 68.2 197.1 68.6 197.1 67.4 198 67.1" style="fill:#375a64"/><path d="M200.8,66.4a2.9,2.9,0,0,1,1.6-.7v.7Z" transform="translate(1.2 0.2)" style="fill:#375a64"/><path d="M204.3,65.5v1h-1.2v-1Z" transform="translate(1.2 0.2)" style="fill:#375a64"/><path d="M208.1,67h-1.9l-1.3-.2V65.5l1.6.5.9.4.4.3Z" transform="translate(1.2 0.2)" style="fill:#375a64"/><path d="M180.5,76.3,170.4,81,142.6,66.6h-.1c-6.2-3.3-10.9-5.8-10.8-5.9s3.3-.2,4.5-.1h.4l31.6,11.2Z" transform="translate(1.2 0.2)" style="fill:#ffbc2d"/><g style="opacity:0.1"><path d="M180.5,76.3,170.4,81,142.6,66.6c.9.4,21.7,10.5,24.4,9,1-.6,1.3-2,1.2-3.7Z" transform="translate(1.2 0.2)"/></g><path d="M182,75.7l-3,1.4c-7.7-3.1-39.9-15.4-42.6-16.4h.2Z" transform="translate(1.2 0.2)" style="fill:#fff"/><path d="M160.2,75.9c-1,.5-2.1.8-2.1-.1s.2-.8,1.8-1.6,1.3-.5,1.6.3S160.6,75.7,160.2,75.9Z" transform="translate(1.2 0.2)" style="fill:#fff"/><path d="M151.6,71.7c-1,.5-2.1.9-2.2-.1s.3-.8,1.9-1.6,1.3-.5,1.6.3S152,71.5,151.6,71.7Z" transform="translate(1.2 0.2)" style="fill:#fff"/><path d="M143,67.5c-1,.4-2,.8-2-.1s.2-.8,1.7-1.5,1.2-.5,1.5.2S143.3,67.3,143,67.5Z" transform="translate(1.2 0.2)" style="fill:#fff"/><path d="M173.1,75c-.8,1.3-2.6,1.8-3.7,2.2-3,1.2-5.2,1.8-6.2-.8a1.9,1.9,0,0,1-.3-.9c-.2-2,2-3,3-3.5h0l2.9-1.4a4.8,4.8,0,0,1,2.2-.5c.6-.1,1.9.1,2.4,2.5A3.6,3.6,0,0,1,173.1,75Z" transform="translate(1.2 0.2)" style="fill:#ffc800"/><ellipse cx="172.2" cy="73.3" rx="2.1" ry="2.7" style="fill:#1a2e35"/><path d="M172.9,73.1a2.1,2.1,0,0,1-1.9,2.3,2.1,2.1,0,0,1-1.9-2.3,2.2,2.2,0,0,1,1.9-2.4A2.2,2.2,0,0,1,172.9,73.1Z" transform="translate(1.2 0.2)" style="fill:#375a64"/><path d="M140.7,80.6h0Z" transform="translate(1.2 0.2)" style="fill:#ffc800"/><path d="M118.2,99.1V94.4a.5.5,0,0,1,.4-.5h1.2a1.6,1.6,0,0,1,1.6,1.5,1.7,1.7,0,0,1-.3,1,1.6,1.6,0,0,1,.8,1.4,1.7,1.7,0,0,1-1.7,1.7h-1.6A.4.4,0,0,1,118.2,99.1Zm.9-3h.7a.7.7,0,0,0,.7-.7.7.7,0,0,0-.7-.6h-.7Zm0,2.5h1.1a.8.8,0,0,0,.8-.8.9.9,0,0,0-.8-.8h-1.1Z" transform="translate(1.2 0.2)" style="fill:#2b454e"/><path d="M123.4,99a2.5,2.5,0,0,1-.5-1.5,2.4,2.4,0,0,1,.5-1.4,2.1,2.1,0,1,1,0,2.9Zm.4-1.5a1.2,1.2,0,0,0,.3.9,1.1,1.1,0,0,0,.8.3.9.9,0,0,0,.7-.3,1,1,0,0,0,.4-.9,1.2,1.2,0,0,0-1.1-1.1,1,1,0,0,0-1.1,1.1Z" transform="translate(1.2 0.2)" style="fill:#2b454e"/><path d="M128.7,99a2,2,0,0,1-.6-1.5,2,2,0,0,1,.6-1.4,2,2,0,0,1,1.4-.6,2.5,2.5,0,0,1,1.4.6,2,2,0,0,1,.6,1.4,2,2,0,0,1-.6,1.5,2.5,2.5,0,0,1-1.4.6A2,2,0,0,1,128.7,99Zm.3-1.5a1.2,1.2,0,0,0,.3.9,1.2,1.2,0,0,0,1.6,0,1.2,1.2,0,0,0,.3-.9,1.1,1.1,0,1,0-2.2,0Z" transform="translate(1.2 0.2)" style="fill:#2b454e"/><path d="M133.5,99.1V94.4a.5.5,0,0,1,.4-.5.5.5,0,0,1,.5.5v2.7l1.7-1.6a.5.5,0,0,1,.7,0,.4.4,0,0,1,0,.6l-1.3,1.2,1.3,1.5a.4.4,0,0,1-.1.6h-.6l-1.2-1.5-.5.5v.7a.5.5,0,0,1-.5.4A.4.4,0,0,1,133.5,99.1Z" transform="translate(1.2 0.2)" style="fill:#2b454e"/><path d="M143.8,95.9V99a1.9,1.9,0,0,1-2,1.9l-.8-.2a.4.4,0,0,1-.3-.6c.1-.2.4-.2.6-.1h.5a1.2,1.2,0,0,0,1.1-.8,1.3,1.3,0,0,1-.8.2,1.7,1.7,0,0,1-1.8-1.7V95.9a.5.5,0,0,1,.5-.4.4.4,0,0,1,.4.4v1.9a.9.9,0,0,0,.9.9.9.9,0,0,0,.8-.9V95.9a.5.5,0,0,1,.5-.4A.4.4,0,0,1,143.8,95.9Z" transform="translate(1.2 0.2)" style="fill:#2b454e"/><path d="M145.7,99a2,2,0,0,1-.6-1.5,2,2,0,0,1,.6-1.4,2.5,2.5,0,0,1,1.4-.6,2,2,0,0,1,1.4.6,2,2,0,0,1,.6,1.4,2.1,2.1,0,0,1-2,2.1A2.5,2.5,0,0,1,145.7,99Zm.3-1.5a1.2,1.2,0,0,0,.3.9,1.3,1.3,0,0,0,.8.3,1.1,1.1,0,0,0,.8-.3,1.2,1.2,0,0,0,.3-.9,1,1,0,0,0-1.1-1.1,1.3,1.3,0,0,0-.8.3A1.1,1.1,0,0,0,146,97.5Z" transform="translate(1.2 0.2)" style="fill:#2b454e"/><path d="M152.1,99.5a1.7,1.7,0,0,1-1.8-1.6v-2a.5.5,0,0,1,.5-.4.4.4,0,0,1,.4.4v2a.9.9,0,0,0,.9.8.9.9,0,0,0,.8-.8v-2a.5.5,0,0,1,.5-.4.4.4,0,0,1,.4.4v2A1.7,1.7,0,0,1,152.1,99.5Z" transform="translate(1.2 0.2)" style="fill:#2b454e"/><path d="M158.1,95.9a.5.5,0,0,1-.4.5h-.6l-.3.4-.4.7v1.5a.4.4,0,0,1-.4.4.5.5,0,0,1-.5-.4V95.9a.5.5,0,0,1,.5-.4.4.4,0,0,1,.4.4h0l.2-.2a2.9,2.9,0,0,1,1.1-.3A.4.4,0,0,1,158.1,95.9Z" transform="translate(1.2 0.2)" style="fill:#2b454e"/><path d="M121.6,106.8v2a.5.5,0,0,1-.5.4.4.4,0,0,1-.4-.4v-2a.9.9,0,0,0-.9-.8.9.9,0,0,0-.8.8v2h0c-.1.2-.2.4-.5.4a.4.4,0,0,1-.4-.4v-3.2a.4.4,0,0,1,.4-.4l.5.2.8-.2A1.7,1.7,0,0,1,121.6,106.8Z" transform="translate(1.2 0.2)" style="fill:#2b454e"/><path d="M122.9,107.2a2,2,0,0,1,2.1-2,2,2,0,0,1,2,1.8h0c-.1.2-.2.4-.5.4h-2.6a.7.7,0,0,0,.3.5c.1.2.5.3.8.3a.8.8,0,0,0,.8-.2h.7a.5.5,0,0,1,0,.5,2.2,2.2,0,0,1-1.5.6A2,2,0,0,1,122.9,107.2Zm.9-.4h2.4a1.5,1.5,0,0,0-1.2-.9A1.2,1.2,0,0,0,123.8,106.8Z" transform="translate(1.2 0.2)" style="fill:#2b454e"/><path d="M131.1,105.9l-1,1.3,1,1.3c.1.2.1.5-.1.6h-.3l-.4-.2-.8-1.1-.8,1.1a.5.5,0,0,1-.4.2h-.2a.4.4,0,0,1-.1-.6l1-1.3-1-1.3a.4.4,0,0,1,.1-.6.5.5,0,0,1,.6.1l.8,1.1.8-1.1a.6.6,0,0,1,.7-.1C131.2,105.4,131.2,105.7,131.1,105.9Z" transform="translate(1.2 0.2)" style="fill:#2b454e"/><path d="M134.7,105.6a.5.5,0,0,1-.5.4H134v2.3a.5.5,0,0,1,.5.4.5.5,0,0,1-.5.5.9.9,0,0,1-.9-.9V106h-.3a.4.4,0,0,1,0-.8h.3V104a.4.4,0,0,1,.4-.4c.3,0,.5.1.5.4v1.2h.2A.5.5,0,0,1,134.7,105.6Z" transform="translate(1.2 0.2)" style="fill:#2b454e"/><path d="M140,104.9h.3a.4.4,0,0,1,.4.4.5.5,0,0,1-.4.5H140v2.8a.5.5,0,0,1-.4.5.5.5,0,0,1-.5-.5v-2.8h-.2a.5.5,0,0,1-.5-.5.5.5,0,0,1,.5-.4h.2a1.1,1.1,0,0,1,.2-.8,1,1,0,0,1,.6-.5h.5a.5.5,0,0,1,.4.5.4.4,0,0,1-.4.4h-.3A.6.6,0,0,0,140,104.9Z" transform="translate(1.2 0.2)" style="fill:#2b454e"/><path d="M142.2,103.6c.2,0,.5.2.5.4v4.7a.5.5,0,0,1-.5.5.5.5,0,0,1-.5-.5V104A.5.5,0,0,1,142.2,103.6Z" transform="translate(1.2 0.2)" style="fill:#2b454e"/><path d="M144.7,104.2a.5.5,0,0,1-.5.4.4.4,0,0,1-.4-.4V104a.4.4,0,0,1,.4-.4c.3,0,.5.1.5.4Zm0,1.4v3.1a.5.5,0,0,1-.5.5.5.5,0,0,1-.4-.5v-3.1a.4.4,0,0,1,.4-.4A.5.5,0,0,1,144.7,105.6Z" transform="translate(1.2 0.2)" style="fill:#2b454e"/><path d="M149.8,107.2v1.5a2,2,0,0,1-2,1.9l-.9-.2a.4.4,0,0,1-.2-.6c.2-.2.4-.3.6-.2h.5a1,1,0,0,0,1.1-.8,2,2,0,0,1-1.1.3,2.1,2.1,0,0,1-2-2,1.7,1.7,0,0,1,.6-1.4,2,2,0,0,1,1.4-.6,1.8,1.8,0,0,1,1.1.3.5.5,0,0,1,.5-.3.4.4,0,0,1,.4.4v1.6Zm-.9,0a1.1,1.1,0,0,0-.3-.8.9.9,0,0,0-.8-.4.8.8,0,0,0-.7.4,1,1,0,0,0,0,1.6.9.9,0,0,0,.7.3,1,1,0,0,0,1.1-1.1Z" transform="translate(1.2 0.2)" style="fill:#2b454e"/><path d="M152.5,108.7a.5.5,0,0,1-.4.5c-.3,0-.4-.2-.5-.4h0V104c0-.3.2-.4.5-.4a.4.4,0,0,1,.4.4v1.4l.9-.2a1.8,1.8,0,0,1,1.8,1.7v1.8a.5.5,0,0,1-.4.5.5.5,0,0,1-.5-.5v-1.8a.9.9,0,0,0-1.8,0Z" transform="translate(1.2 0.2)" style="fill:#2b454e"/><path d="M158.6,105.6a.5.5,0,0,1-.5.4h-.2v2.3a.5.5,0,0,1,.5.4.5.5,0,0,1-.5.5.9.9,0,0,1-.9-.9V106h-.3a.4.4,0,1,1,0-.8h.3V104c0-.3.2-.4.5-.4a.4.4,0,0,1,.4.4v1.2h.2A.5.5,0,0,1,158.6,105.6Z" transform="translate(1.2 0.2)" style="fill:#2b454e"/><path d="M119.6,140.4a.8.8,0,0,1,.9.8h0c0,.1.1.2.1.3a2.3,2.3,0,0,1-.3,1.1,1.4,1.4,0,0,1-1.1.6h0a1.1,1.1,0,0,0,.9-.5,1.4,1.4,0,0,0,.2-.6.9.9,0,0,1-.7.3.9.9,0,1,1,0-1.8Zm.7.9a.7.7,0,0,0-.7-.7.7.7,0,1,0,0,1.4A.7.7,0,0,0,120.3,141.3Z" transform="translate(1.2 0.2)" style="fill:#2b454e"/><path d="M121.6,141.1a.2.2,0,0,1,.2.2l-.2.2-.2-.2A.2.2,0,0,1,121.6,141.1Zm0,1.7.2.2-.2.2-.2-.2Z" transform="translate(1.2 0.2)" style="fill:#2b454e"/><path d="M124,140.6l-.7.7.5.3a.9.9,0,0,1,.3.6.9.9,0,0,1-.3.7,1.1,1.1,0,0,1-.7.3.9.9,0,0,1-.7-.3c-.1,0-.1-.1,0-.1s.1-.1.1,0l.6.2.5-.2a.7.7,0,0,0,.2-.6.6.6,0,0,0-.2-.5l-.5-.2H123c-.1-.1-.1-.2,0-.2l.7-.7h.3Z" transform="translate(1.2 0.2)" style="fill:#2b454e"/><path d="M124.8,141.8a1.7,1.7,0,0,1,.3-1,1.2,1.2,0,0,1,.8-.4,1,1,0,0,1,.7.4,1.8,1.8,0,0,1,0,2,1,1,0,0,1-.7.4,1.2,1.2,0,0,1-.8-.4A1.7,1.7,0,0,1,124.8,141.8Zm.2,0a1.4,1.4,0,0,0,.3.9.6.6,0,0,0,.6.3.5.5,0,0,0,.5-.3,1.5,1.5,0,0,0,0-1.8.5.5,0,0,0-.5-.3.6.6,0,0,0-.6.3A1.4,1.4,0,0,0,125,141.8Z" transform="translate(1.2 0.2)" style="fill:#2b454e"/><path d="M130.8,142.5h-1.3l-.3.6H129l1.1-2.6h.2l1,2.6h-.2Zm-1.2-.2h1.2l-.6-1.5Z" transform="translate(1.2 0.2)" style="fill:#2b454e"/><path d="M134.2,140.8l-.9,1.2h-.2l-1-1.2v2.3h-.2v-2.6h.2l1.1,1.4,1-1.4h.2v2.6h-.2Z" transform="translate(1.2 0.2)" style="fill:#2b454e"/><path d="M118.8,156.9h.9a.8.8,0,0,1,.8.8.7.7,0,0,1-.8.8H119v1.1h-.2Zm.9,1.4a.7.7,0,0,0,.6-.7.6.6,0,0,0-.6-.6H119v1.3Z" transform="translate(1.2 0.2)" style="fill:#c8c8c8"/><path d="M122.9,157.8v1.8h-.2v-.3a1.2,1.2,0,0,1-.8.4,1.1,1.1,0,0,1-1-1,1,1,0,0,1,1-1,.9.9,0,0,1,.8.4v-.3c0-.1,0-.1.1-.1A.1.1,0,0,1,122.9,157.8Zm-.2.9a.8.8,0,0,0-1.6,0,.8.8,0,1,0,1.6,0Z" transform="translate(1.2 0.2)" style="fill:#c8c8c8"/><path d="M123.6,159.2h.1a1.5,1.5,0,0,0,.7.3l.4-.2c.1,0,.1-.1.1-.2s0-.2-.1-.2l-.5-.2h-.4c-.2-.1-.3-.2-.3-.4s.1-.3.3-.4h.5l.6.2h-.1l-.5-.2H124l-.2.2c0,.1.1.1.2.2h.4l.5.2a.5.5,0,0,1,0,.8l-.5.2-.8-.3Z" transform="translate(1.2 0.2)" style="fill:#c8c8c8"/><path d="M125.6,159.2h.2a.9.9,0,0,0,.6.3l.4-.2c.1,0,.1-.1.1-.2s0-.2-.1-.2l-.4-.2h-.5a.5.5,0,0,1,0-.8h.5l.6.2s.1.1,0,.1h-.1l-.5-.2H126c-.1,0-.1.1-.1.2s0,.1.1.2h.4l.5.2a.5.5,0,0,1,0,.8l-.5.2-.8-.3Z" transform="translate(1.2 0.2)" style="fill:#c8c8c8"/><path d="M127.7,158.7a.9.9,0,0,1,1-1,1.1,1.1,0,0,1,1,.9h-1.8a.8.8,0,0,0,.8.8.8.8,0,0,0,.6-.4h.2a1,1,0,0,1-.8.5A1,1,0,0,1,127.7,158.7Zm.2-.2h1.5a.7.7,0,0,0-.7-.6A.8.8,0,0,0,127.9,158.5Z" transform="translate(1.2 0.2)" style="fill:#c8c8c8"/><path d="M131.8,158.5a.6.6,0,0,0-.6-.6.6.6,0,0,0-.6.6v1.1h-.2v-1.1h0v-.7c0-.1,0-.1.1-.1a.1.1,0,0,1,.1.1v.2a.6.6,0,0,1,.6-.3.7.7,0,0,1,.8.8v1.1h-.2Z" transform="translate(1.2 0.2)" style="fill:#c8c8c8"/><path d="M134.7,159.5a.9.9,0,0,1-.9.9h0a.7.7,0,0,0,.7-.7v-.2a.8.8,0,0,1-.7.3.9.9,0,0,1-1-.9.9.9,0,0,1,1-1,.7.7,0,0,1,.7.4v-.3a.1.1,0,0,1,.1-.1c.1,0,.1,0,.1.1Zm-.2-.8a.7.7,0,0,0-.7-.8.7.7,0,0,0-.8.8.8.8,0,0,0,.8.8A.8.8,0,0,0,134.5,158.7Z" transform="translate(1.2 0.2)" style="fill:#c8c8c8"/><path d="M135.5,158.7a1,1,0,0,1,1-1,.9.9,0,0,1,1,.9h-1.7a.8.8,0,0,0,.7.8.8.8,0,0,0,.7-.4h.2a1.1,1.1,0,0,1-.9.5A1.1,1.1,0,0,1,135.5,158.7Zm.3-.2h1.5a.8.8,0,0,0-.8-.6A.7.7,0,0,0,135.8,158.5Z" transform="translate(1.2 0.2)" style="fill:#c8c8c8"/><path d="M138.2,157.8c0-.1,0-.1.1-.1a.1.1,0,0,1,.1.1v.4h0a.8.8,0,0,1,.8-.5c.1,0,.1,0,.1.1h-.1a.7.7,0,0,0-.6.3l-.2.5h0v.9h-.2Z" transform="translate(1.2 0.2)" style="fill:#c8c8c8"/><path d="M139.8,159.2h.2l.6.3.4-.2a.2.2,0,0,0,.2-.2l-.2-.2a.5.5,0,0,0-.4-.2h-.5a.5.5,0,0,1,0-.8h.5a.8.8,0,0,1,.6.2c.1,0,.1.1,0,.1h-.1l-.5-.2h-.4c-.1,0-.1.1-.1.2s0,.1.1.2h.4l.5.2c.2.1.3.2.3.4s-.1.3-.3.4l-.5.2-.7-.3C139.8,159.3,139.8,159.3,139.8,159.2Z" transform="translate(1.2 0.2)" style="fill:#c8c8c8"/><path d="M177,156.9h.2v1.1h1.3c0,.1,0,.1-.1.1h-1.2v1.2H177Z" transform="translate(1.2 0.2)" style="fill:#c8c8c8"/><path d="M179.2,158.7a1,1,0,0,1,1.1-1l.6.2h-.6a.8.8,0,0,0-.9.8.9.9,0,0,0,.9.8l.5-.2h.1a.7.7,0,0,1-.6.3A1.1,1.1,0,0,1,179.2,158.7Z" transform="translate(1.2 0.2)" style="fill:#c8c8c8"/><path d="M182.6,157.7a1,1,0,0,1,1,1,1.1,1.1,0,0,1-1,1,1,1,0,0,1-1-1A.9.9,0,0,1,182.6,157.7Zm0,1.8a.9.9,0,0,0,.8-.8.8.8,0,1,0-1.6,0A.9.9,0,0,0,182.6,159.5Z" transform="translate(1.2 0.2)" style="fill:#c8c8c8"/><path d="M185.8,158.5a.6.6,0,0,0-.6-.6.7.7,0,0,0-.7.6v1.1h-.2v-1.1h0v-.7a.1.1,0,0,1,.1-.1c.1,0,.1,0,.1.1v.2a.9.9,0,0,1,.7-.3.8.8,0,0,1,.8.8v1.1h-.2Z" transform="translate(1.2 0.2)" style="fill:#c8c8c8"/><path d="M187.8,157.7a.9.9,0,0,1,.9,1,1,1,0,0,1-.9,1,1,1,0,0,1-1-1A.9.9,0,0,1,187.8,157.7Zm0,1.8a.8.8,0,0,0,.7-.8.7.7,0,0,0-.7-.8.7.7,0,0,0-.8.8A.8.8,0,0,0,187.8,159.5Z" transform="translate(1.2 0.2)" style="fill:#c8c8c8"/><path d="M192.4,158.5a.6.6,0,0,0-.6-.6.6.6,0,0,0-.6.6v1.1H191v-1.1a.7.7,0,0,0-.7-.6.6.6,0,0,0-.6.6v1.1h-.2v-1.1h0v-.7c0-.1,0-.1.1-.1s.1,0,.1.1v.2a.7.7,0,0,1,.6-.3,1.2,1.2,0,0,1,.8.4.8.8,0,0,1,.7-.4.7.7,0,0,1,.8.8v1.1h-.2Z" transform="translate(1.2 0.2)" style="fill:#c8c8c8"/><path d="M193.2,157.8a.1.1,0,0,1,.1-.1c.1,0,.1,0,.1.1v1a.7.7,0,0,0,.7.7.7.7,0,0,0,.6-.7v-1h.2v1h0v.6a.9.9,0,0,1-1,.9h-.4s-.1-.1,0-.1h.4a.7.7,0,0,0,.8-.7h0l-.6.2a.8.8,0,0,1-.9-.8Z" transform="translate(1.2 0.2)" style="fill:#c8c8c8"/><path d="M198.6,156.8a1.4,1.4,0,0,1,.9.3c.1,0,.1.1,0,.1a.1.1,0,0,1-.1.1,1.1,1.1,0,0,0-.8-.3,1.2,1.2,0,0,0-1.3,1.2,1.3,1.3,0,0,0,1.3,1.3,1.1,1.1,0,0,0,.8-.3h.1c.1,0,.1.1,0,.1a1.5,1.5,0,0,1-.9.4,1.6,1.6,0,0,1-1.6-1.5A1.5,1.5,0,0,1,198.6,156.8Z" transform="translate(1.2 0.2)" style="fill:#c8c8c8"/><path d="M200.3,156.9h.2v2.7h-.2Z" transform="translate(1.2 0.2)" style="fill:#c8c8c8"/><path d="M203,157.8v1.8h-.2v-.3a1.2,1.2,0,0,1-.8.4,1.1,1.1,0,0,1-1-1,1,1,0,0,1,1-1,.9.9,0,0,1,.8.4v-.3c0-.1,0-.1.1-.1A.1.1,0,0,1,203,157.8Zm-.2.9a.8.8,0,1,0-1.6,0,.8.8,0,0,0,1.6,0Z" transform="translate(1.2 0.2)" style="fill:#c8c8c8"/><path d="M203.7,159.2h.2a.9.9,0,0,0,.6.3l.4-.2c.1,0,.1-.1.1-.2s0-.2-.1-.2l-.5-.2H204c-.2-.1-.2-.2-.2-.4s0-.3.2-.4h.5l.6.2H205l-.5-.2h-.4c-.1,0-.1.1-.1.2s0,.1.1.2h.4l.5.2a.5.5,0,0,1,0,.8l-.5.2-.8-.3Z" transform="translate(1.2 0.2)" style="fill:#c8c8c8"/><path d="M205.7,159.2h.2a.9.9,0,0,0,.6.3l.4-.2c.1,0,.1-.1.1-.2s0-.2-.1-.2l-.4-.2H206a.5.5,0,0,1,0-.8h.5a1.1,1.1,0,0,1,.6.2s.1.1,0,.1H207l-.5-.2h-.4c-.1,0-.1.1-.1.2s0,.1.1.2h.4l.5.2a.5.5,0,0,1,0,.8l-.5.2-.8-.3Z" transform="translate(1.2 0.2)" style="fill:#c8c8c8"/><path d="M189.2,140.6l-.7.7.5.3a.9.9,0,0,1,.3.6.9.9,0,0,1-.3.7,1.1,1.1,0,0,1-.7.3.9.9,0,0,1-.7-.3c-.1,0-.1-.1,0-.1s.1-.1.1,0l.6.2.5-.2a.7.7,0,0,0,.2-.6.6.6,0,0,0-.2-.5l-.5-.2h-.1c-.1-.1-.1-.2,0-.2l.7-.7h.3Z" transform="translate(1.2 0.2)" style="fill:#2b454e"/><path d="M190.3,141.1c.2,0,.3.1.3.2s-.1.2-.3.2a.2.2,0,1,1,0-.4Zm0,1.7c.2,0,.3.1.3.2s-.1.2-.3.2a.2.2,0,0,1,0-.4Z" transform="translate(1.2 0.2)" style="fill:#2b454e"/><path d="M191.5,140.7l-.4.2h-.2v-.2l.5-.3h.2v2.6h-.2Z" transform="translate(1.2 0.2)" style="fill:#2b454e"/><path d="M192.5,142.9c-.1,0-.1-.1,0-.1s.1-.1.1,0l.6.2.5-.2a.9.9,0,0,0,.3-.5.9.9,0,0,0-.3-.6l-.5-.2-.6.2c0,.1-.1.1-.1,0h-.1l.2-1.1h.2v.8h.5a1.1,1.1,0,0,1,.7.3.9.9,0,0,1,.3.7.9.9,0,0,1-.3.6,1.1,1.1,0,0,1-.7.3A.9.9,0,0,1,192.5,142.9Z" transform="translate(1.2 0.2)" style="fill:#2b454e"/><path d="M196.4,140.5h.9a.8.8,0,0,1,.9.8.9.9,0,0,1-.9.8h-.7v1.1h-.2Zm.9,1.3a.6.6,0,1,0,0-1.2h-.7v1.2Z" transform="translate(1.2 0.2)" style="fill:#2b454e"/><path d="M201.1,140.8l-.9,1.2H200l-1-1.2v2.3h-.2v-2.6h.2l1.1,1.4,1-1.4h.2v2.6h-.2Z" transform="translate(1.2 0.2)" style="fill:#2b454e"/><path d="M156.6,140.1a.9.9,0,0,1,.3.6.5.5,0,0,1-.3.5c-.1.2-.3.2-.5.2h0a.7.7,0,0,1-.6-.2c-.1,0-.1-.2,0-.2h.9a.5.5,0,0,0,0-.6h-.9v-.9h1.1a.2.2,0,0,1,.2.2h-1v.4h.2Z" transform="translate(1.2 0.2)" style="fill:#2b454e"/><path d="M157.8,141.3h-.3v-1.8c0-.1,0-.2.1-.2l.2.2v.5h.3a.7.7,0,0,1,.7.7v.7h-.3v-.7c0-.2-.2-.3-.4-.3a.3.3,0,0,0-.3.3Z" transform="translate(1.2 0.2)" style="fill:#2b454e"/><path d="M162,140.9h-.3v.3h-.3V141h-1.1c-.1-.1-.1-.2,0-.2l1.1-1.4h.3v1.2h.1A.2.2,0,0,1,162,140.9Zm-.6-.9-.6.7h.6Z" transform="translate(1.2 0.2)" style="fill:#2b454e"/><path d="M163.5,140.1a.9.9,0,0,1,.3.6.5.5,0,0,1-.3.5c-.1.2-.3.2-.5.2h0a.7.7,0,0,1-.6-.2V141h.9a.5.5,0,0,0,0-.6h-.9v-.9h1.1l.2.2h-1v.4h.2Z" transform="translate(1.2 0.2)" style="fill:#2b454e"/><path d="M166.6,140.5h0v.7h-.3v-.7h0a.3.3,0,0,0-.3-.3c-.2,0-.3.2-.3.4v.7h-.4v-.7h0v-.5l.2-.2h.5l.5.2.5-.2a.7.7,0,0,1,.6.7v.7h-.3v-.7c0-.2-.1-.4-.3-.4S166.7,140.4,166.6,140.5Z" transform="translate(1.2 0.2)" style="fill:#2b454e"/><path d="M168.7,139.5l-.2.2-.2-.2h0l.2-.2.2.2Zm0,.6v1.2h-.4v-1.2l.2-.2Z" transform="translate(1.2 0.2)" style="fill:#2b454e"/><path d="M170.5,140.5v.8h-.3v-.8a.3.3,0,0,0-.6,0v.8h-.4v-1.2l.2-.2h.5A.6.6,0,0,1,170.5,140.5Z" transform="translate(1.2 0.2)" style="fill:#2b454e"/><path d="M165.3,132.8l-.2,1.6s.6-.2.7.1-.3.6-.9.9v1h-.1l-.5.4c-.2,0-.3,0-.3-.2l-.4-3-2.7,1.1-.2.3v.9l-.2.2a.1.1,0,0,1-.1.1l-.3-.2-1.2-2.3a.2.2,0,0,1,.1-.3h.3l.9.4h.3l2.5-1.5h0l-2.4-2c-.1-.1-.1-.3.1-.3l.6-.3h.1l1,.5s.8-.5,1.2-.3-.2.8-.2.8l1.3.7c1.3-.6,2.5-1,2.8-.6S166.8,132.1,165.3,132.8Z" transform="translate(1.2 0.2)" style="fill:#2b454e"/><path d="M154.8,134.2a.8.8,0,1,1-.8-.7A.8.8,0,0,1,154.8,134.2Z" transform="translate(1.2 0.2)" style="fill:#2b454e"/><path d="M151.9,134.2a.5.5,0,1,1-.5-.5A.5.5,0,0,1,151.9,134.2Z" transform="translate(1.2 0.2)" style="fill:#2b454e"/><path d="M149.1,134.2a.3.3,0,0,1-.3.3c-.1,0-.2-.1-.2-.3s.1-.3.2-.3A.3.3,0,0,1,149.1,134.2Z" transform="translate(1.2 0.2)" style="fill:#2b454e"/><path d="M171.4,134.2a.7.7,0,0,1,.7-.7.7.7,0,1,1,0,1.4A.7.7,0,0,1,171.4,134.2Z" transform="translate(1.2 0.2)" style="fill:#2b454e"/><path d="M174.2,134.2a.5.5,0,1,1,.5.5A.5.5,0,0,1,174.2,134.2Z" transform="translate(1.2 0.2)" style="fill:#2b454e"/><path d="M177,134.2a.3.3,0,0,1,.3-.3.3.3,0,0,1,0,.6A.3.3,0,0,1,177,134.2Z" transform="translate(1.2 0.2)" style="fill:#2b454e"/><line x1="119.8" y1="152.5" x2="208.8" y2="152.5" style="fill:none;stroke:#dcdcdc;stroke-miterlimit:10;stroke-width:0.5957303690998064px"/><path d="M118.8,185h.7a.7.7,0,0,1,.7.7.8.8,0,0,1-.2.5.8.8,0,0,1-.3,1.6h-.8a.1.1,0,0,1-.1-.1Zm.7,1.2a.5.5,0,0,0,.5-.5.5.5,0,0,0-.5-.5H119v1Zm.2,1.4a.6.6,0,0,0,.6-.6.5.5,0,0,0-.6-.6H119v1.2Z" transform="translate(1.2 0.2)" style="fill:#c8c8c8"/><path d="M122.9,185.9v1.8a.1.1,0,0,1-.1.1h-.1v-.3a1,1,0,0,1-.7.4,1,1,0,0,1-1-1,.9.9,0,0,1,1-1,1,1,0,0,1,.7.4v-.3h.2Zm-.2.9a.7.7,0,0,0-.7-.8.7.7,0,0,0-.8.8.8.8,0,0,0,.8.8A.8.8,0,0,0,122.7,186.8Z" transform="translate(1.2 0.2)" style="fill:#c8c8c8"/><path d="M125.7,187.6a.9.9,0,0,1-.9.9h-.5s.1-.1.1,0h.4a.7.7,0,0,0,.7-.7v-.2a.8.8,0,0,1-.7.4,1,1,0,0,1-1-1,.9.9,0,0,1,1-1,.8.8,0,0,1,.7.4v-.3h.2Zm-.2-.8a.7.7,0,0,0-.7-.8.7.7,0,0,0-.8.8.8.8,0,0,0,.8.8A.8.8,0,0,0,125.5,186.8Z" transform="translate(1.2 0.2)" style="fill:#c8c8c8"/><path d="M128.5,187.6a.9.9,0,0,1-1,.9h-.4s-.1,0,0-.1,0-.1.1,0h.3a.7.7,0,0,0,.8-.7v-.2a1.2,1.2,0,0,1-.8.4,1,1,0,0,1-.9-1,.9.9,0,0,1,.9-1,1.2,1.2,0,0,1,.8.4v-.3h.2Zm-.2-.8a.8.8,0,0,0-.8-.8.7.7,0,0,0-.7.8.8.8,0,0,0,.7.8A.9.9,0,0,0,128.3,186.8Z" transform="translate(1.2 0.2)" style="fill:#c8c8c8"/><path d="M131.2,185.9v1.8h-.1a.1.1,0,0,1-.1-.1v-.3a1.2,1.2,0,0,1-.8.4,1.1,1.1,0,0,1-1-1,1,1,0,0,1,1-1,1.2,1.2,0,0,1,.8.4v-.3h.2Zm-.2.9a.8.8,0,1,0-1.6,0,.8.8,0,0,0,1.6,0Z" transform="translate(1.2 0.2)" style="fill:#c8c8c8"/><path d="M134,187.6a.9.9,0,0,1-1,.9h-.4s-.1,0,0-.1,0-.1.1,0h.3a.8.8,0,0,0,.8-.7v-.2a1.2,1.2,0,0,1-.8.4,1,1,0,0,1-.9-1,.9.9,0,0,1,.9-1,1.2,1.2,0,0,1,.8.4v-.3h.2Zm-.2-.8a.8.8,0,0,0-.8-.8.7.7,0,0,0-.7.8.8.8,0,0,0,.7.8A.9.9,0,0,0,133.8,186.8Z" transform="translate(1.2 0.2)" style="fill:#c8c8c8"/><path d="M134.8,186.8a1,1,0,0,1,1-1,1,1,0,0,1,1,.9h0a.1.1,0,0,1-.1.1H135a.9.9,0,0,0,.8.8,1,1,0,0,0,.7-.4h.1s.1.1,0,.1a.8.8,0,0,1-.8.5A1.1,1.1,0,0,1,134.8,186.8Zm.2-.2h1.6a.8.8,0,0,0-1.6,0Z" transform="translate(1.2 0.2)" style="fill:#c8c8c8"/><path d="M120.8,195.9c0,.2-.1.3-.2.3h-2c-.1-.1,0-.3.1-.4l1.4-1.2a.8.8,0,0,0,.2-.5.4.4,0,0,0-.2-.4l-.4-.2-.4.2h-.2a.3.3,0,0,1-.4-.4h.2a1.1,1.1,0,0,1,.8-.3.9.9,0,0,1,.8.4,1.1,1.1,0,0,1,.3.7,1.6,1.6,0,0,1-.3.9l-1,.8h1.1A.2.2,0,0,1,120.8,195.9Z" transform="translate(1.2 0.2)" style="fill:#2b454e"/><path d="M124.9,194.2l-.6.8.6.8c0,.1,0,.3-.1.3h-.4l-.4-.7-.5.7h-.4c-.1,0-.1-.2,0-.3l.5-.8-.5-.8c-.1,0-.1-.2,0-.3s.3,0,.4.1l.5.6.4-.6c.1-.1.3-.2.4-.1A.5.5,0,0,1,124.9,194.2Z" transform="translate(1.2 0.2)" style="fill:#2b454e"/><path d="M128.2,193.2v2.7a.3.3,0,0,1-.3.3c-.1,0-.2-.1-.2-.3v-2.3h-.4l-.2-.2c-.1-.1,0-.2.1-.3l.6-.4h.4Z" transform="translate(1.2 0.2)" style="fill:#2b454e"/><path d="M130.6,194.2a1.2,1.2,0,0,1-.8,2h0a1.1,1.1,0,0,1-.9-.4.2.2,0,0,1,0-.3h1.3a.6.6,0,0,0,.2-.5c0-.2,0-.3-.2-.4a.4.4,0,0,0-.4-.2c-.2,0-.4,0-.5.2h-.5l.2-1.2h1.7a.3.3,0,0,1,.3.3c0,.1-.1.2-.3.2h-1.2v.5h.4A1.1,1.1,0,0,1,130.6,194.2Z" transform="translate(1.2 0.2)" style="fill:#2b454e"/><path d="M133.4,195.9v-2.7c0-.2.1-.3.2-.3a.3.3,0,0,1,.3.3v1.6l1-1a.3.3,0,1,1,.4.4l-.8.7.8.8c.1.2.1.3,0,.4h-.4l-.7-.9-.3.3v.4a.3.3,0,0,1-.3.3C133.5,196.2,133.4,196.1,133.4,195.9Z" transform="translate(1.2 0.2)" style="fill:#2b454e"/><path d="M138.1,195v.9A1.1,1.1,0,0,1,137,197h-.5c-.2-.1-.2-.2-.2-.3a.4.4,0,0,1,.4-.2h.3a.6.6,0,0,0,.6-.5l-.6.2a1,1,0,0,1-.9-.4,1.2,1.2,0,0,1,0-1.6,1.3,1.3,0,0,1,.9-.4l.6.2c0-.1.1-.2.3-.2s.2.2.2.3v.9Zm-.5,0c0-.2-.1-.3-.2-.5l-.4-.2-.5.2c-.1.2-.2.3-.2.5a.8.8,0,0,0,.2.5l.5.2.4-.2A.8.8,0,0,0,137.6,195Z" transform="translate(1.2 0.2)" style="fill:#2b454e"/><path d="M168.5,194.9h-.6v1a.3.3,0,0,1-.3.3.3.3,0,0,1-.3-.3v-2.7a.3.3,0,0,1,.3-.3h.9a1.1,1.1,0,0,1,1,1A1,1,0,0,1,168.5,194.9Zm-.6-.5h.6a.5.5,0,0,0,0-1h-.6Z" transform="translate(1.2 0.2)" style="fill:#2b454e"/><path d="M171.6,194.1c0,.1-.1.2-.3.2H171l-.2.2c-.1.2-.1.4-.2.4v.9c0,.2-.1.3-.2.3a.3.3,0,0,1-.3-.3v-1.8a.3.3,0,0,1,.3-.3c.1,0,.2.2.2.3h.1l.6-.2A.3.3,0,0,1,171.6,194.1Z" transform="translate(1.2 0.2)" style="fill:#2b454e"/><path d="M172.8,193.3c0,.1-.1.2-.3.2l-.3-.2h0a.3.3,0,0,1,.3-.3.3.3,0,0,1,.3.3Zm0,.8v1.8a.3.3,0,0,1-.3.3.3.3,0,0,1-.3-.3v-1.8l.3-.3A.3.3,0,0,1,172.8,194.1Z" transform="translate(1.2 0.2)" style="fill:#2b454e"/><path d="M173.8,195.8a1.2,1.2,0,0,1,0-1.6,1.3,1.3,0,0,1,.9-.4,1.2,1.2,0,0,1,.8.4,1.2,1.2,0,0,1,0,1.6.9.9,0,0,1-.8.4A1,1,0,0,1,173.8,195.8Zm.2-.8a.8.8,0,0,0,.2.5l.5.2.4-.2a.8.8,0,0,0,.2-.5c0-.2-.1-.3-.2-.5l-.4-.2-.5.2C174.1,194.7,174,194.8,174,195Z" transform="translate(1.2 0.2)" style="fill:#2b454e"/><path d="M178,194.1a.2.2,0,0,1-.2.2h-.3l-.2.2a.6.6,0,0,0-.2.4v.9a.3.3,0,0,1-.6,0v-1.8a.5.5,0,0,1,.3-.3l.3.3h.1l.6-.2C177.9,193.8,178,194,178,194.1Z" transform="translate(1.2 0.2)" style="fill:#2b454e"/><path d="M179.2,193.3c0,.1-.1.2-.3.2l-.2-.2h0c0-.2.1-.3.2-.3a.3.3,0,0,1,.3.3Zm0,.8v1.8a.3.3,0,0,1-.3.3c-.1,0-.2-.1-.2-.3v-1.8c0-.1.1-.3.2-.3A.3.3,0,0,1,179.2,194.1Z" transform="translate(1.2 0.2)" style="fill:#2b454e"/><path d="M181.1,194.1c0,.1-.1.3-.2.3h-.2v1.3c.2,0,.3.1.3.2a.3.3,0,0,1-.3.3.5.5,0,0,1-.5-.5v-1.3h-.1a.3.3,0,0,1,0-.6h.1v-.6a.3.3,0,0,1,.3-.3c.1,0,.2.1.2.3v.6h.2C181,193.8,181.1,194,181.1,194.1Z" transform="translate(1.2 0.2)" style="fill:#2b454e"/><path d="M183.8,194.1v1.8a1.1,1.1,0,0,1-1.1,1.1h-.5c-.2-.1-.2-.2-.2-.4h.7a.8.8,0,0,0,.6-.4h-.5a1,1,0,0,1-1-1v-1.1c0-.2.1-.3.2-.3a.3.3,0,0,1,.3.3v1.1a.5.5,0,0,0,1,0v-1.1c0-.2.1-.3.2-.3A.3.3,0,0,1,183.8,194.1Z" transform="translate(1.2 0.2)" style="fill:#2b454e"/><path d="M186.3,195.9v-2.7a.3.3,0,0,1,.3-.3h.7a.9.9,0,0,1,.9.9c0,.2,0,.4-.2.5a1.1,1.1,0,0,1,.5.9,1,1,0,0,1-1,1h-.9A.3.3,0,0,1,186.3,195.9Zm.6-1.7h.4a.4.4,0,0,0,0-.8h-.4Zm0,1.5h.6a.5.5,0,0,0,.5-.5.5.5,0,0,0-.5-.5h-.6Z" transform="translate(1.2 0.2)" style="fill:#2b454e"/><path d="M189.4,195.8a1.2,1.2,0,0,1,0-1.6,1.2,1.2,0,0,1,.8-.4.9.9,0,0,1,.8.4,1,1,0,0,1,0,1.6c-.1.3-.4.4-.8.4A.9.9,0,0,1,189.4,195.8Zm.2-.8a.8.8,0,0,0,.2.5l.4.2.5-.2a.8.8,0,0,0,.2-.5c0-.2-.1-.3-.2-.5l-.5-.2-.4.2C189.7,194.7,189.6,194.8,189.6,195Z" transform="translate(1.2 0.2)" style="fill:#2b454e"/><path d="M194.3,195v.9a.3.3,0,0,1-.3.3l-.2-.2-.7.2a1.2,1.2,0,0,1-.8-.4,1.2,1.2,0,0,1,0-1.6,1.2,1.2,0,0,1,.8-.4l.7.2.2-.2a.3.3,0,0,1,.3.3Zm-.5,0a.8.8,0,0,0-.2-.5l-.5-.2-.4.2c-.2.1-.2.3-.2.5s0,.4.2.5l.4.2.5-.2A.8.8,0,0,0,193.8,195Z" transform="translate(1.2 0.2)" style="fill:#2b454e"/><path d="M196.7,194.1a.2.2,0,0,1-.2.2h-.3l-.3.2c-.1.2-.1.4-.2.4v.9c0,.2-.1.3-.2.3a.3.3,0,0,1-.3-.3v-1.8a.3.3,0,0,1,.3-.3c.1,0,.2.2.2.3h.2l.6-.2C196.6,193.8,196.7,194,196.7,194.1Z" transform="translate(1.2 0.2)" style="fill:#2b454e"/><path d="M199.4,195.9c0,.2-.1.3-.2.3s-.3-.1-.3-.2l-.6.2a1.2,1.2,0,0,1,0-2.4l.6.2v-.8a.3.3,0,0,1,.3-.3c.1,0,.2.1.2.3V195h0Zm-1.1-1.6-.5.2c-.1.2-.2.3-.2.5a.8.8,0,0,0,.2.5l.5.2.4-.2a.8.8,0,0,0,.2-.5c0-.2-.1-.3-.2-.5Z" transform="translate(1.2 0.2)" style="fill:#2b454e"/><path d="M201,193.3c0,.1-.1.2-.3.2l-.3-.2h0a.3.3,0,0,1,.3-.3.3.3,0,0,1,.3.3Zm0,.8v1.8a.3.3,0,0,1-.3.3.3.3,0,0,1-.3-.3v-1.8l.3-.3A.3.3,0,0,1,201,194.1Z" transform="translate(1.2 0.2)" style="fill:#2b454e"/><path d="M203.8,194.8v1.1c0,.2-.1.3-.2.3a.3.3,0,0,1-.3-.3v-1.1a.5.5,0,0,0-1,0v1.1h0l-.2.2a.3.3,0,0,1-.3-.3v-1.8a.3.3,0,0,1,.3-.3l.2.2.5-.2A1,1,0,0,1,203.8,194.8Z" transform="translate(1.2 0.2)" style="fill:#2b454e"/><path d="M207,195v.9a1.2,1.2,0,0,1-1.2,1.1h-.5c-.1-.1-.2-.2-.1-.3s.2-.2.3-.2h.3a.6.6,0,0,0,.6-.5l-.6.2a.9.9,0,0,1-.8-.4,1.2,1.2,0,0,1,.8-2l.6.2.3-.2a.5.5,0,0,1,.3.3v.9Zm-.6,0a.9.9,0,0,0-.1-.5l-.5-.2-.5.2c-.1.2-.2.3-.2.5a.8.8,0,0,0,.2.5l.5.2.5-.2A.7.7,0,0,0,206.4,195Z" transform="translate(1.2 0.2)" style="fill:#2b454e"/><rect x="164.3" y="213.6" width="45.3" height="11.27" style="fill:#ffc800"/><path d="M120,217.1a.2.2,0,0,1,.2.2h0a.9.9,0,0,1,.7.3.2.2,0,0,1,.2.2c0,.1-.1.2-.3.2h-.1l-.5-.2v.9c.7.2,1,.4,1,.9s-.4.9-1,1v.2c0,.2-.1.2-.2.2s-.2,0-.2-.2v-.2l-1-.4-.2-.2a.3.3,0,0,1,.3-.3h.2l.7.3v-1c-.7-.1-1.1-.4-1.1-.9s.4-.9,1.1-.9h0A.2.2,0,0,1,120,217.1Zm-.2,1.6v-.8c-.3,0-.5.1-.5.4S119.4,218.6,119.8,218.7Zm.4.6v.9a.4.4,0,0,0,.4-.4C120.6,219.6,120.5,219.5,120.2,219.3Z" transform="translate(1.2 0.2)" style="fill:#2b454e"/><path d="M123.5,218.7a1.2,1.2,0,0,1-.8,2h0a1.3,1.3,0,0,1-.9-.4c-.1-.1-.1-.2,0-.4h.4c.1.2.3.2.5.2a.4.4,0,0,0,.4-.2.5.5,0,0,0,.2-.4c0-.2,0-.3-.2-.4a.4.4,0,0,0-.4-.2c-.2,0-.4,0-.5.2h-.5l.2-1.2v-.2h1.6a.3.3,0,0,1,.3.3c0,.1-.2.2-.3.2h-1.2v.5h.4A1.2,1.2,0,0,1,123.5,218.7Z" transform="translate(1.2 0.2)" style="fill:#2b454e"/><path d="M124.7,219a2,2,0,0,1,.3-1.1,1.1,1.1,0,0,1,1.8,0,2,2,0,0,1,.3,1.1,1.8,1.8,0,0,1-.3,1.1,1,1,0,0,1-1.8,0A1.8,1.8,0,0,1,124.7,219Zm1.9,0a1.1,1.1,0,0,0-.3-.8.5.5,0,0,0-.4-.3c-.2,0-.3.1-.5.3a1.9,1.9,0,0,0-.2.8,2,2,0,0,0,.2.9.6.6,0,0,0,.5.2.4.4,0,0,0,.4-.2A1.2,1.2,0,0,0,126.6,219Z" transform="translate(1.2 0.2)" style="fill:#2b454e"/><path d="M128.1,219a2,2,0,0,1,.3-1.1,1.2,1.2,0,0,1,.9-.5,1.1,1.1,0,0,1,.9.5,2.1,2.1,0,0,1,.4,1.1,1.8,1.8,0,0,1-.4,1.1,1.1,1.1,0,0,1-.9.6,1.3,1.3,0,0,1-.9-.6A1.8,1.8,0,0,1,128.1,219Zm1.9,0a1.9,1.9,0,0,0-.2-.8.5.5,0,0,0-.5-.3.5.5,0,0,0-.4.3,1.1,1.1,0,0,0-.3.8,1.2,1.2,0,0,0,.3.9.4.4,0,0,0,.4.2c.2,0,.4,0,.5-.2A2,2,0,0,0,130,219Z" transform="translate(1.2 0.2)" style="fill:#2b454e"/><path d="M131.5,220.6l.8-1.9h.1s.1.1,0,.1l-.8,1.9h-.1Z" transform="translate(1.2 0.2)" style="fill:#2b454e"/><path d="M133.7,220h0v-.6a.1.1,0,0,1,.1-.1h.1v.2a.5.5,0,0,1,.5-.3.8.8,0,0,1,.8.7.9.9,0,0,1-.8.8.9.9,0,0,1-.5-.3v.8h-.1a.1.1,0,0,1-.1-.1Zm.2-.1c0,.4.2.6.5.6a.6.6,0,0,0,.6-.6.6.6,0,0,0-.6-.5.5.5,0,0,0-.5.5Z" transform="translate(1.2 0.2)" style="fill:#2b454e"/><path d="M135.6,219.9a.7.7,0,0,1,1.4,0h-1.3a.6.6,0,0,0,.6.5l.5-.2a.1.1,0,0,1,.1-.1h0a.7.7,0,0,1-.6.4A.8.8,0,0,1,135.6,219.9Zm.1-.1h1.2a.6.6,0,0,0-1.2,0Z" transform="translate(1.2 0.2)" style="fill:#2b454e"/><path d="M137.5,219.3a.1.1,0,0,1,.1-.1h0v.3h0c.2-.2.4-.4.6-.4a.1.1,0,0,1,.1.1h-.1l-.4.2-.2.3h0v.6h-.1Z" transform="translate(1.2 0.2)" style="fill:#2b454e"/><path d="M138.7,220.4h1a.3.3,0,0,0-.1-.2h-.7l-.2-.3.2-.3h.4l.4.2H139v.2h.1c0,.1.1.1.3.1h0l.3.2c.1,0,.2.1.2.3l-.2.2-.3.2-.6-.2Z" transform="translate(1.2 0.2)" style="fill:#2b454e"/><path d="M140.9,219.2a.8.8,0,0,1,.7.7.7.7,0,1,1-1.4,0A.8.8,0,0,1,140.9,219.2Zm0,1.3a.6.6,0,0,0,.6-.6.6.6,0,0,0-.6-.5.5.5,0,0,0-.5.5C140.4,220.3,140.6,220.5,140.9,220.5Z" transform="translate(1.2 0.2)" style="fill:#2b454e"/><path d="M143.3,219.8a.5.5,0,0,0-.5-.4c-.2,0-.5.2-.5.4v.8h-.1v-.8h0v-.5a.1.1,0,0,1,.1-.1h0l.5-.2a.6.6,0,0,1,.6.6v.8h-.1Z" transform="translate(1.2 0.2)" style="fill:#2b454e"/><path d="M169.8,220.4v-2.8c0-.1.1-.2.3-.2h.7a.9.9,0,0,1,.9.9.8.8,0,0,1-.2.5,1.1,1.1,0,0,1,.5.9,1.1,1.1,0,0,1-1.1,1h-.8A.3.3,0,0,1,169.8,220.4Zm.5-1.7h.5c.2,0,.3-.2.3-.4s-.1-.4-.3-.4h-.5Zm0,1.4h.6a.5.5,0,0,0,.5-.4.5.5,0,0,0-.5-.5h-.6Z" transform="translate(1.2 0.2)" style="fill:#2b454e"/><path d="M175.4,217.8a1.7,1.7,0,0,1,.5,1.2,1.8,1.8,0,0,1-.5,1.2,1.7,1.7,0,0,1-2.4,0,1.8,1.8,0,0,1-.5-1.2,1.7,1.7,0,0,1,2.9-1.2Zm-.1,1.2a1.1,1.1,0,0,0-.3-.8,1,1,0,0,0-1.6,0,1.1,1.1,0,1,0,1.9.8Z" transform="translate(1.2 0.2)" style="fill:#2b454e"/><path d="M179.4,217.8a1.7,1.7,0,0,1,.5,1.2,1.8,1.8,0,0,1-.5,1.2,1.4,1.4,0,0,1-1.1.5,1.7,1.7,0,0,1-1.2-.5,1.8,1.8,0,0,1-.5-1.2,1.7,1.7,0,0,1,1.7-1.7A1.4,1.4,0,0,1,179.4,217.8Zm0,1.2a1.1,1.1,0,0,0-.3-.8c-.3-.2-.5-.4-.8-.4a1.2,1.2,0,0,0-.8.4,1.1,1.1,0,0,0,.8,1.9,1.3,1.3,0,0,0,.8-.3A1.1,1.1,0,0,0,179.4,219Z" transform="translate(1.2 0.2)" style="fill:#2b454e"/><path d="M180.7,220.4v-2.7a.3.3,0,0,1,.3-.3.3.3,0,0,1,.3.3V219l1.6-1.5h.3a.3.3,0,0,1,0,.4l-1,1,1,1.3a.3.3,0,0,1,0,.4h-.4l-1-1.4-.5.5v.7a.3.3,0,0,1-.3.3Z" transform="translate(1.2 0.2)" style="fill:#2b454e"/><path d="M186.2,220.4c0,.1-.1.3-.2.3a.3.3,0,0,1-.3-.3v-2.7h0c0-.1,0-.2.1-.2h.4l1.5,2.1v-1.9a.3.3,0,0,1,.3-.3l.3.3v2.7l-.3.3h-.2l-1.6-2Z" transform="translate(1.2 0.2)" style="fill:#2b454e"/><path d="M191.9,217.8a1.7,1.7,0,0,1,.5,1.2,1.7,1.7,0,0,1-1.7,1.7,1.7,1.7,0,0,1-1.2-.5,1.8,1.8,0,0,1-.5-1.2,1.7,1.7,0,0,1,1.7-1.7A1.8,1.8,0,0,1,191.9,217.8Zm-.1,1.2a1.1,1.1,0,0,0-.3-.8,1,1,0,0,0-1.6,0,1.1,1.1,0,1,0,1.9.8Z" transform="translate(1.2 0.2)" style="fill:#2b454e"/><path d="M197.6,217.8l-1.2,2.7h-.5l-.6-1.4-.6,1.4h-.5l-1.2-2.7c-.1-.1,0-.3.1-.4l.4.2.9,2.1.7-1.4c0-.1.1-.1.2-.1h.3l.6,1.4.9-2.1.4-.2C197.6,217.5,197.7,217.7,197.6,217.8Z" transform="translate(1.2 0.2)" style="fill:#2b454e"/><polygon points="203.1 220.4 203.1 218.2 205.1 219.3 203.1 220.4" style="fill:#2b454e"/><line x1="119.8" y1="180.6" x2="208.8" y2="180.6" style="fill:none;stroke:#dcdcdc;stroke-miterlimit:10;stroke-width:0.5957303690998064px"/><g id="u5Zjqx"><path d="M132.4,38c-.1.1-.2.1-.2.2h-.1a2.3,2.3,0,0,0-1.7-.7,2.1,2.1,0,0,0-1.7.7h-.1c-.1-.1-.2-.1-.2-.2h0l.2-.2.5-.3.7-.2h.9l.6.2.5.2.4.2a.2.2,0,0,0,.2.2Z" transform="translate(1.2 0.2)" style="fill:#a8a8a8"/><path d="M129.2,38.8l-.3-.3a2.6,2.6,0,0,1,1.2-.5,2.1,2.1,0,0,1,1.7.5l-.3.3a1.5,1.5,0,0,0-1.1-.4A1.6,1.6,0,0,0,129.2,38.8Z" transform="translate(1.2 0.2)" style="fill:#a8a8a8"/><path d="M131.2,39.1l-.2.3a.9.9,0,0,0-.6-.3.7.7,0,0,0-.6.3l-.3-.3A1.1,1.1,0,0,1,131.2,39.1Z" transform="translate(1.2 0.2)" style="fill:#a8a8a8"/><path d="M130.6,39.6a.2.2,0,0,1-.2.2c-.2,0-.3-.1-.3-.2s.1-.2.3-.2A.2.2,0,0,1,130.6,39.6Z" transform="translate(1.2 0.2)" style="fill:#a8a8a8"/></g><path d="M115,38.5a.8.8,0,0,1,.8-.7.7.7,0,1,1,0,1.4A.8.8,0,0,1,115,38.5Z" transform="translate(1.2 0.2)" style="fill:#a8a8a8"/><path d="M117.3,38.5a.8.8,0,0,1,.8-.7.7.7,0,0,1,0,1.4A.8.8,0,0,1,117.3,38.5Z" transform="translate(1.2 0.2)" style="fill:#a8a8a8"/><path d="M119.6,38.5a.8.8,0,0,1,.8-.7.7.7,0,1,1,0,1.4A.8.8,0,0,1,119.6,38.5Z" transform="translate(1.2 0.2)" style="fill:#a8a8a8"/><path d="M122,38.5a.7.7,0,1,1,.7.7A.7.7,0,0,1,122,38.5Z" transform="translate(1.2 0.2)" style="fill:#a8a8a8"/><path d="M124.3,38.5a.7.7,0,1,1,.7.7A.7.7,0,0,1,124.3,38.5Z" transform="translate(1.2 0.2)" style="fill:#a8a8a8"/><path d="M210,40.1h-6V37.4h6Zm-5.6-.3h5.3V37.7h-5.3Z" transform="translate(1.2 0.2)" style="fill:#a8a8a8"/><rect x="205.8" y="38.1" width="3.8" height="1.75" style="fill:#a8a8a8"/><rect x="211.2" y="38.2" width="0.5" height="1.42" style="fill:#a8a8a8"/><polygon points="119.5 56 116.3 53.1 119.5 50.1 120 50.7 117.4 53.1 120 55.5 119.5 56" style="fill:#a8a8a8"/><text transform="translate(120.8 127.2) scale(1.06 1)" style="font-size:5.531606197357178px;font-family:MyriadPro-Regular, Myriad Pro"><tspan style="letter-spacing:0.0040034237527096em">D</tspan><tspan x="3.7" y="0">elhi</tspan></text><text transform="translate(186.4 127.3) scale(1.06 1)" style="font-size:5.531606197357178px;font-family:MyriadPro-Regular, Myriad Pro"><tspan style="letter-spacing:0.0030025678145322em">M</tspan><tspan x="4.5" y="0">umbai</tspan></text><text transform="translate(119.4 167.5) scale(1.06 1)" style="font-size:4.090754508972168px;font-family:MyriadPro-Regular, Myriad Pro;letter-spacing:0.010037560306918067em">H<tspan x="2.7" y="0" style="letter-spacing:-0.00011278157648222546em">imanshu</tspan></text><text transform="translate(119.8 175.9) scale(1.06 1)" style="font-size:4.090754508972168px;font-family:MyriadPro-Regular, Myriad Pro">Jitin</text><text transform="translate(189 167.5) scale(1.06 1)" style="font-size:4.090754508972168px;font-family:MyriadPro-Regular, Myriad Pro">18A</text><text transform="translate(189 174.1) scale(1.06 1)" style="font-size:4.090754508972168px;font-family:MyriadPro-Regular, Myriad Pro">18B</text><rect x="37.4" y="142.4" width="4" height="93.45" style="fill:#dcdcdc"/><rect x="36" y="140.4" width="5.4" height="5.83" style="fill:#c8c8c8"/><path d="M40.9,254.5H3.2V179.2a7.2,7.2,0,0,1,7.3-7H41Z" transform="translate(1.2 0.2)" style="fill:#ffbc2d"/><polygon points="42.2 174 42.2 254.7 25.1 254.6 42.2 174" style="opacity:0.1"/><rect x="21.8" y="172.2" width="1.9" height="82.66" style="fill:#1a2e35"/><rect x="24.2" y="172.2" width="1.9" height="82.66" style="fill:#1a2e35"/><rect x="28.1" y="202.3" width="4.2" height="22.37" style="fill:#1a2e35"/><rect x="28.1" y="188.5" width="4.2" height="9.94" style="fill:#1a2e35"/><path d="M3.2,247.4c0,2,4.1,2.8,7.7,2.8s1.3,4.2,3.2,4.2H3.2Z" transform="translate(1.2 0.2)" style="fill:#1a2e35"/><path d="M40.9,247.5c0,1.9-4,2.7-7.7,2.7s-1.3,4.2-3.1,4.2H40.9Z" transform="translate(1.2 0.2)" style="fill:#1a2e35"/><rect x="7.7" y="254.7" width="4.5" height="8.43" style="fill:#1a2e35"/><rect x="34.4" y="254.7" width="4.5" height="8.43" style="fill:#1a2e35"/><path d="M45,165.4c-9.9,6.8-13.9,20.5-6.3,34.1s23.3,18,32.2,14,11.5-14.9,6.5-20.7S65.3,186,62.9,180.7c-1.2-2.6-.7-7.3-2.2-11.1S51.3,161,45,165.4Z" transform="translate(1.2 0.2)" style="fill:#1a2e35"/><path d="M61.1,215.3a29.9,29.9,0,0,1-13.8-5,31.7,31.7,0,0,1-9.8-10.8,25.9,25.9,0,0,1-3.6-13.8,26.2,26.2,0,0,1,4.5-13.5,25.7,25.7,0,0,0-3.1,20.5,31.6,31.6,0,0,0,2.7,6.6,38.8,38.8,0,0,0,4.2,5.8,30.9,30.9,0,0,0,5.4,4.8,33.3,33.3,0,0,0,6.4,3.5A29.9,29.9,0,0,0,61.1,215.3Z" transform="translate(1.2 0.2)" style="fill:#1a2e35"/><path d="M79,194.1a12,12,0,0,0-2.8-3.5,16.1,16.1,0,0,0-3.6-2.7l-3.9-2.4a15.9,15.9,0,0,1-3.5-2.9,6.5,6.5,0,0,1-1.5-1.8,6.7,6.7,0,0,1-.9-2.1,31.1,31.1,0,0,1-.8-4.4,16.6,16.6,0,0,0-1.2-4.2,9.8,9.8,0,0,0-2.5-3.6,10.6,10.6,0,0,1,2.8,3.5,13.3,13.3,0,0,1,1.3,4.3c.3,1.4.5,2.9.9,4.3a12.1,12.1,0,0,0,.9,2,20.9,20.9,0,0,0,1.4,1.7c2,2.1,4.7,3.6,7.3,5.2a19.9,19.9,0,0,1,3.6,2.9A13.4,13.4,0,0,1,79,194.1Z" transform="translate(1.2 0.2)" style="fill:#1a2e35"/><path d="M86.8,170l-4.4,19.6c-.2.6.1,1.1.7,1l10.4-.3a1.6,1.6,0,0,0,1.4-1.1l4.5-19.6a.7.7,0,0,0-.7-1l-10.5.3A1.7,1.7,0,0,0,86.8,170Z" transform="translate(1.2 0.2)" style="fill:#a8a8a8"/><path d="M88.1,170l-4.5,19.6a.7.7,0,0,0,.7,1l10.5-.3a1.7,1.7,0,0,0,1.4-1.1l4.4-19.6c.2-.6-.1-1.1-.7-1l-10.4.3A1.6,1.6,0,0,0,88.1,170Z" transform="translate(1.2 0.2)" style="fill:#c8c8c8"/><path d="M91,170.8a.9.9,0,0,1-1.8,0,.9.9,0,0,1,1.8,0Z" transform="translate(1.2 0.2)" style="fill:#1a2e35"/><path d="M54.2,201c6.2,12,19.8,27.4,25.3,27.3,2.6,0,7.3.5,10.6-2.4,7.4-6.5,13.3-18.7,14.4-25.6.4-2.5-12.1-7.5-13.9-5.5-4.2,4.8-8.9,14.1-9.7,14-2.8-.1-14-8.7-21.8-14.7C49.6,186.8,51.7,196.2,54.2,201Z" transform="translate(1.2 0.2)" style="fill:#ffb27b"/><path d="M104.5,187.6c-1.4-4.9-2.6-6-1.5-10.8.8-3.1-1-4.9-3.3-2.4-3.6,4.2-3.2,11-2.3,13.3Z" transform="translate(1.2 0.2)" style="fill:#ffb27b"/><path d="M104,202.4s2.1-7,1.1-12.4c-.6-3.7-3.1-11.7-14.1-15.7-2.6-1-7.1-.5-3.4,2.5s5,2.8,6.3,4.3-5.6,1.2-6.5,3.8a45.2,45.2,0,0,0-1.8,6.8l1.3.5s-.6,2.4,1.3,5.8Z" transform="translate(1.2 0.2)" style="fill:#ffb27b"/><path d="M103.9,186.5a33.3,33.3,0,0,0-8.7-5c-4-1.3-12.1-2.8-13,0s2.3,3,2.3,3-3.5,0-3.7,2.1,2.2,2.3,2.2,2.3-2.1.4-2,2.2,4.6,1,6.8,3.1C88.3,194.6,103.9,186.5,103.9,186.5Z" transform="translate(1.2 0.2)" style="fill:#ffb27b"/><path d="M94.5,185.8a18.1,18.1,0,0,0-10-1.4s-.1.1,0,.1a44.8,44.8,0,0,1,10,1.3Z" transform="translate(1.2 0.2)" style="fill:#1a2e35"/><path d="M93,189.6a21.1,21.1,0,0,0-10-.8c-.1.1-.1.1,0,.1a44.7,44.7,0,0,1,10,.8Z" transform="translate(1.2 0.2)" style="fill:#1a2e35"/><path d="M59.9,211.9l10.3-10.4s-7.7-6.8-13.4-9.4-6.6.8-4.2,6.3A132.3,132.3,0,0,0,59.9,211.9Z" transform="translate(1.2 0.2)" style="fill:#ececec"/><path d="M67.1,199.9a77.9,77.9,0,0,0-8.9,8.7h0c2.6-2.2,7.4-7,9-8.6Z" transform="translate(1.2 0.2)" style="fill:#1a2e35"/><path d="M211.5,261.7c-1.6.5-47.6,1.3-49.4.4-.2-.2-.1-2.1-.8-7.2a18.3,18.3,0,0,0-2.7-2.5C152.4,247.5,138,237,138,237l22.9-19.2,22.3,21.1,5.8,5.4s18.8,9.8,20.6,11.1S213.1,261.1,211.5,261.7Z" transform="translate(1.2 0.2)" style="fill:#ffb27b"/><path d="M211.5,261.6c-1.6.6-47.6,1.4-49.4.5-.2-.2-.1-2.1-.8-7.2,7.2,1.1,39.5,1.7,42.8.5s-2.7-4.5-3.9-5.2c4.4,2.4,8.6,4.6,9.4,5.2S213.1,261.1,211.5,261.6Z" transform="translate(1.2 0.2)" style="fill:#ffc800"/><path d="M178.3,231.5l-24.4,20.8s-25.5-24.9-30.7-25c-2.6-.1-44.8,22.5-64.7,24.5-14.1,1.4-22.7-15.9-22.7-15.9L67,224.3c21.8-10.4,46.4-29,61.2-27.2S178.3,231.5,178.3,231.5Z" transform="translate(1.2 0.2)" style="fill:#a59c8f"/><path d="M170.5,228.5l-6.9,5.9c-1.9,1.7-11.7,10.1-13.2,12h.1c2-1.3,11.6-10,13.5-11.8,3.9-3.5,2.7-2.5,6.6-6.1Z" transform="translate(1.2 0.2)" style="fill:#1a2e35"/><path d="M150.1,245.3l-24.4-20.6a12.7,12.7,0,0,0-1.9-1.3,1.9,1.9,0,0,0-1.8.1l-2.5,1.2-4.9,2.3-19.1,8.9a179.5,179.5,0,0,1-18.8,7.5A95,95,0,0,1,56.9,248l-2.4.2c-.1,0-.1.1,0,.1a79.9,79.9,0,0,0,19.4-3.5,139.1,139.1,0,0,0,18.6-7c6.3-2.7,12.4-5.7,18.6-8.7l9.8-4.7c.8-.3,1.8-1.1,2.7-.7l.9.7,1.1.9L150,245.4C150.1,245.4,150.2,245.4,150.1,245.3Z" transform="translate(1.2 0.2)" style="fill:#1a2e35"/><path d="M123.1,227.3c-3.4.3-44.8,22.5-64.6,24.5-14.1,1.4-22.7-15.9-22.7-15.9l10.7-4Z" transform="translate(1.2 0.2)" style="fill:#1a2e35"/><path d="M36.8,230.9s-3.4,18.9,6.4,26.3,81.6,6.5,92.5,3.2,11.3-20.4-.6-24.3-59.6-5.5-60.8-6,4.3-2.7,4.3-2.9l-11-3.2Z" transform="translate(1.2 0.2)" style="fill:#a59c8f"/><path d="M51.6,230.5h-.1a9,9,0,0,1-2.3,6c-1.6,1.8-4.1,2.9-6.3,4-.2.1-.1.4.1.3a19.7,19.7,0,0,0,4-1.6,8.5,8.5,0,0,0,2.9-2.4A7.7,7.7,0,0,0,51.6,230.5Z" transform="translate(1.2 0.2)" style="fill:#1a2e35"/><path d="M73.5,228.1,72,226.3c-1.3-1.4-2.5-2.8-3.8-4.1s-.4,0-.2.2l2.6,3.2,1.4,1.6a6.5,6.5,0,0,1,1.3,1.6c.4.6-.1,1.1-.7,1.2a3.1,3.1,0,0,1-1.6-.6,16.6,16.6,0,0,1-2.6-2.7L66.8,225l-1.7-1.7c0-.1-.1,0-.1,0a24.3,24.3,0,0,1,1.4,2l1.5,1.9,1.5,1.8a6.1,6.1,0,0,0,1.5,1.2c.9.6,2.5.7,3-.5S73.9,228.6,73.5,228.1Z" transform="translate(1.2 0.2)" style="fill:#1a2e35"/><path d="M134.2,260.4l-11.2.4H111.8c-7.5,0-14.9-.3-22.4-.8s-15.7-1.2-23.2-2.2c-3.6-.5-7.2-.9-10.7-1.6A18,18,0,0,1,47,252c-4.9-4.5-6.8-11.2-7.5-17.5l-.3-2.6h-.1c.5,6.5,1.5,13.3,5.8,18.5a16,16,0,0,0,6.9,5.2c3.4,1.3,7.1,1.6,10.6,2.1,7.6,1,15.7,1.7,23.3,2.3s15.2.9,22.9,1,15.2,0,22.8-.3l2.8-.2C134.3,260.5,134.3,260.4,134.2,260.4Z" transform="translate(1.2 0.2)" style="fill:#1a2e35"/><path d="M110.6,232.7c-2.4-.4-4.7-.7-7.1-.9l-7.2-.7c-4.8-.4-9.5-.7-14.3-.9H73.9c-.1,0-.1.1,0,.1l14.3,1c4.7.3,9.5.7,14.2,1.2l8.1.6C110.7,233,110.8,232.7,110.6,232.7Z" transform="translate(1.2 0.2)" style="fill:#1a2e35"/><path d="M79.1,227a27.7,27.7,0,0,0-5.4,2.8,34.8,34.8,0,0,0-5.1,3.4c-.1,0,0,.1.1.1l5.4-2.9a54.3,54.3,0,0,0,5.1-3.2C79.4,227.1,79.3,226.9,79.1,227Z" transform="translate(1.2 0.2)" style="fill:#1a2e35"/><path d="M67.4,263.3H99.7c8.7,0,7.3-6.7,5.2-13.8s-5.2-17.7-13-17.7H75.1c-7.8,0-10.9,10.7-12.9,17.7S58.7,263.3,67.4,263.3Z" transform="translate(1.2 0.2)" style="fill:#ffbc2d"/><path d="M93.1,231.7c.2,0,.3.2.3.4a.3.3,0,1,1-.6,0C92.8,231.9,92.9,231.7,93.1,231.7Zm-5.8.4a.3.3,0,1,0,.3-.3A.3.3,0,0,0,87.3,232.1Zm-5.5,0a.3.3,0,1,0,.3-.3A.3.3,0,0,0,81.8,232.1Zm-5.5,0a.3.3,0,1,0,.3-.3A.3.3,0,0,0,76.3,232.1Zm22,6.8.3.3a.4.4,0,0,0,.4-.4.4.4,0,1,0-.7.1Zm-5.5,0a.3.3,0,0,0,.3.3.4.4,0,0,0,.4-.3.4.4,0,0,0-.4-.4C92.9,238.5,92.8,238.7,92.8,238.9Zm-5.5,0a.3.3,0,0,0,.3.3c.2,0,.4-.1.4-.3s-.2-.3-.4-.3A.3.3,0,0,0,87.3,238.9Zm-5.5,0a.3.3,0,0,0,.3.3c.2,0,.4-.1.4-.3s-.2-.3-.4-.3A.3.3,0,0,0,81.8,238.9Zm-5.5,0a.3.3,0,0,0,.3.3c.2,0,.4-.1.4-.3s-.2-.3-.4-.3A.3.3,0,0,0,76.3,238.9Zm-5.5,0c0,.2.1.4.3.3s.4-.1.4-.3a.4.4,0,0,0-.4-.3A.3.3,0,0,0,70.8,238.9Zm24.7-3.5a.4.4,0,0,0,.4.3.3.3,0,0,0,.3-.3c0-.2-.1-.4-.3-.4A.4.4,0,0,0,95.5,235.4Zm-5.5,0c0,.2.2.3.4.3a.3.3,0,0,0,0-.6C90.2,235.1,90,235.2,90,235.4Zm-5.5,0c0,.2.2.3.4.3a.3.3,0,0,0,.3-.3.3.3,0,0,0-.3-.3C84.7,235.1,84.5,235.2,84.5,235.4Zm-5.5,0c0,.2.2.3.4.3a.3.3,0,0,0,0-.6C79.2,235.1,79,235.2,79,235.4Zm-5.5,0a.4.4,0,0,0,.4.4.4.4,0,0,0,.3-.4l-.3-.3A.4.4,0,0,0,73.5,235.4Zm-5.4.2c0,.1.1.2.3.2a.4.4,0,0,0,.3-.4l-.2-.3Zm30.2,10.1a.4.4,0,1,0,.4-.4A.4.4,0,0,0,98.3,245.7Zm-5.5,0c0,.2.2.3.4.3a.5.5,0,0,0,.3-.3.3.3,0,0,0-.3-.3C93,245.4,92.8,245.5,92.8,245.7Zm-5.5,0c0,.2.2.3.4.3a.3.3,0,0,0,.3-.3c0-.2-.2-.3-.4-.3A.3.3,0,0,0,87.3,245.7Zm-5.5,0a.3.3,0,0,0,.3.3c.2,0,.4-.1.4-.3s-.2-.3-.4-.3A.3.3,0,0,0,81.8,245.7Zm-5.5,0a.3.3,0,0,0,.3.3c.2,0,.4-.1.4-.3s-.2-.3-.4-.3A.3.3,0,0,0,76.3,245.7Zm-5.5,0a.4.4,0,0,0,.3.4.4.4,0,0,0,.4-.4.4.4,0,0,0-.4-.3Zm-5.5.1.3.3a.4.4,0,0,0,.4-.3.4.4,0,0,0-.4-.4C65.4,245.4,65.3,245.6,65.3,245.8Zm35.8-3.6a.3.3,0,0,0,.6,0c0-.2-.1-.4-.3-.4S101.1,242,101.1,242.2Zm-5.5,0a.3.3,0,1,0,.3-.3A.3.3,0,0,0,95.6,242.2Zm-5.5,0a.3.3,0,1,0,.3-.3A.3.3,0,0,0,90.1,242.2Zm-5.5,0a.3.3,0,1,0,.3-.3A.3.3,0,0,0,84.6,242.2Zm-5.6,0c.1.2.2.3.4.3a.3.3,0,0,0,0-.6C79.2,241.9,79,242,79,242.2Zm-5.5,0a.4.4,0,0,0,.4.4c.2,0,.3-.2.3-.4a.3.3,0,0,0-.3-.3A.4.4,0,0,0,73.5,242.2Zm-5.5.1a.4.4,0,0,0,.4.3.3.3,0,0,0,.3-.3c0-.2-.1-.4-.3-.4A.4.4,0,0,0,68,242.3Zm35.8,10.1a.4.4,0,0,0,.4.4c.2,0,.3-.2.3-.4a.3.3,0,0,0-.3-.3A.4.4,0,0,0,103.8,252.4Zm-5.5.1a.4.4,0,0,0,.4.3.3.3,0,0,0,.3-.3c0-.2-.1-.4-.3-.4A.4.4,0,0,0,98.3,252.5Zm-5.5,0c0,.2.2.3.4.3a.3.3,0,1,0,0-.6C93,252.2,92.8,252.3,92.8,252.5Zm-5.5,0c0,.2.2.3.4.3a.3.3,0,1,0,0-.6C87.5,252.2,87.3,252.3,87.3,252.5Zm-5.5,0c0,.2.2.3.4.3a.3.3,0,1,0,0-.6C82,252.2,81.8,252.3,81.8,252.5Zm-5.5,0c0,.2.2.3.4.3a.3.3,0,1,0,0-.6A.4.4,0,0,0,76.3,252.5Zm-5.5,0a.4.4,0,0,0,.4.4.4.4,0,0,0,.3-.4l-.3-.3A.4.4,0,0,0,70.8,252.5Zm-5.5.1a.4.4,0,0,0,.4.3l.3-.3a.4.4,0,0,0-.3-.4A.4.4,0,0,0,65.3,252.6Zm35.8-3.6a.3.3,0,0,0,.3.3.4.4,0,0,0,.4-.3.4.4,0,0,0-.4-.4C101.2,248.6,101.1,248.8,101.1,249Zm-5.5,0a.3.3,0,1,0,.3-.3A.3.3,0,0,0,95.6,249Zm-5.5,0a.3.3,0,1,0,.3-.3A.3.3,0,0,0,90.1,249Zm-5.5,0a.3.3,0,1,0,.3-.3A.3.3,0,0,0,84.6,249Zm-5.5,0c0,.2.1.4.3.4s.3-.2.3-.4a.3.3,0,0,0-.6,0Zm-5.5,0c0,.2.1.4.3.4s.3-.2.3-.4a.3.3,0,0,0-.6,0Zm-5.5.1a.3.3,0,0,0,.6,0c0-.2-.1-.4-.3-.4S68.1,248.9,68.1,249.1Zm-5.5,0a.3.3,0,1,0,.3-.3A.3.3,0,0,0,62.6,249.1Zm41.3,10.2a.3.3,0,1,0,.6,0c0-.2-.1-.4-.3-.4S103.9,259.1,103.9,259.3Zm-5.5,0a.3.3,0,0,0,.3.3.3.3,0,0,0,.3-.3.3.3,0,1,0-.6,0Zm-5.5,0a.3.3,0,1,0,.3-.3A.3.3,0,0,0,92.9,259.3Zm-5.5,0a.3.3,0,1,0,.3-.3A.3.3,0,0,0,87.4,259.3Zm-5.5,0a.3.3,0,1,0,.3-.3A.3.3,0,0,0,81.9,259.3Zm-5.5,0c0,.2.1.4.3.4s.3-.2.3-.4a.3.3,0,1,0-.6,0Zm-5.6.1a.4.4,0,0,0,.4.3.3.3,0,0,0,.3-.3c0-.2-.1-.4-.3-.4A.4.4,0,0,0,70.8,259.4Zm-5.5,0a.4.4,0,0,0,.4.3.3.3,0,0,0,.3-.3c0-.2-.1-.4-.3-.4A.4.4,0,0,0,65.3,259.4Zm35.8-3.6a.3.3,0,0,0,.3.3.4.4,0,0,0,.4-.3c0-.2-.2-.3-.4-.3A.3.3,0,0,0,101.1,255.8Zm-5.5,0a.3.3,0,0,0,.3.3c.2,0,.4-.1.4-.3s-.2-.3-.4-.3A.3.3,0,0,0,95.6,255.8Zm-5.5,0a.3.3,0,0,0,.3.3c.2,0,.4-.1.4-.3s-.2-.3-.4-.3A.3.3,0,0,0,90.1,255.8Zm-5.5,0a.3.3,0,0,0,.3.3c.2,0,.4-.1.4-.3s-.2-.3-.4-.3A.3.3,0,0,0,84.6,255.8Zm-5.5,0c0,.2.1.4.3.4a.4.4,0,0,0,.4-.4.4.4,0,0,0-.4-.3A.3.3,0,0,0,79.1,255.8Zm-5.5.1a.3.3,0,0,0,.3.3.4.4,0,0,0,.4-.3.4.4,0,0,0-.4-.4C73.7,255.5,73.6,255.7,73.6,255.9Zm-5.5,0a.3.3,0,0,0,.3.3.4.4,0,0,0,.4-.3.4.4,0,0,0-.4-.4C68.2,255.5,68.1,255.7,68.1,255.9Zm-5.5,0a.3.3,0,1,0,.3-.3A.3.3,0,0,0,62.6,255.9Zm38.5,6.7c0,.2.2.3.4.3a.3.3,0,1,0,0-.6C101.3,262.3,101.1,262.4,101.1,262.6Zm-5.5,0c0,.2.2.3.4.3a.3.3,0,1,0,0-.6C95.8,262.3,95.6,262.4,95.6,262.6Zm-5.5,0c0,.2.2.3.4.3a.3.3,0,1,0,0-.6C90.3,262.3,90.1,262.4,90.1,262.6Zm-5.5,0c0,.2.2.3.4.3a.3.3,0,0,0,.3-.3.4.4,0,0,0-.7,0Zm-5.5,0a.4.4,0,0,0,.3.4.4.4,0,0,0,.4-.4.4.4,0,0,0-.7,0Zm-5.5.1a.4.4,0,0,0,.7,0,.4.4,0,0,0-.4-.4A.4.4,0,0,0,73.6,262.7Zm-5.5,0a.3.3,0,0,0,.3.3c.2,0,.4-.1.4-.3s-.2-.3-.4-.3A.3.3,0,0,0,68.1,262.7Zm-5.1-.3h0Z" transform="translate(1.2 0.2)" style="fill:#fff"/><path d="M89.7,235.4a2.6,2.6,0,0,0,2.7,2.6,2.7,2.7,0,0,0,2.7-2.6,2.5,2.5,0,0,0-2.7-2.5A2.6,2.6,0,0,0,89.7,235.4Z" transform="translate(1.2 0.2)" style="opacity:0.1"/><path d="M71.9,235.5a2.7,2.7,0,0,0,2.7,2.6,2.6,2.6,0,0,0,2.6-2.6,2.7,2.7,0,0,0-5.3,0Z" transform="translate(1.2 0.2)" style="opacity:0.1"/><path d="M90.6,235.4a1.8,1.8,0,1,0,3.6,0,1.8,1.8,0,0,0-3.6,0Z" transform="translate(1.2 0.2)" style="fill:#1a2e35"/><path d="M72.8,235.5a1.8,1.8,0,0,0,3.6,0,1.8,1.8,0,0,0-3.6,0Z" transform="translate(1.2 0.2)" style="fill:#1a2e35"/><path d="M74.6,234.9a1,1,0,0,1,1,.9,46.1,46.1,0,0,0,1.5,9.3c1,3.7,2.9,8.1,6.1,8.1,5.9,0,8.2-14.4,8.2-17.3a1.1,1.1,0,0,1,1-1,1,1,0,0,1,1,1c0,.2-1.3,19.3-10.2,19.3s-9.7-19.2-9.7-19.4A1,1,0,0,1,74.6,234.9Z" transform="translate(1.2 0.2)" style="fill:#fff"/><path d="M74.2,235.2a1,1,0,0,1,1.1.9,46.1,46.1,0,0,0,1.5,9.3c1,3.7,2.9,8.1,6.1,8.1,5.9,0,8.2-14.4,8.2-17.3a1,1,0,0,1,2,0c0,.2-1.3,19.3-10.2,19.3s-9.7-19.2-9.7-19.4A1,1,0,0,1,74.2,235.2Z" transform="translate(1.2 0.2)" style="fill:#fff;opacity:0.1"/><path d="M73.7,228.4c-.5,1.6-38.4,8.6-39.8,8.2s1.4-18.5,5.1-33.4S51.9,190,55.3,192s12.6,12.2,13.4,14.2-1,7.7-1,7.7Z" transform="translate(1.2 0.2)" style="fill:#ececec"/><path d="M69.1,207a9,9,0,0,0-1.7-3,33.6,33.6,0,0,0-2.4-2.9h-.1l-.2-.4a2.1,2.1,0,0,0-.4-.6l-.9-1.3h-.1l.9,1.4.2.3a19.7,19.7,0,0,0-2.5-2.5h0c1.5,1.9,3.2,3.7,4.7,5.7a17.5,17.5,0,0,1,1.8,2.9,6.9,6.9,0,0,1,.4,3.5,13.3,13.3,0,0,1-.5,1.9,11.8,11.8,0,0,1-.7,2h.1a15.1,15.1,0,0,0,1.4-3.5A6,6,0,0,0,69.1,207Z" transform="translate(1.2 0.2)" style="fill:#1a2e35"/><path d="M42,196.6c-7.3,11-13.6,30.9-8.2,34.1,7.4,4.3,21.6,5.9,38.7,4.4,2.3-.2,4-18,1.5-17.9s-25.4,1.5-26.1.9.5-9.3.6-18.5S44,193.5,42,196.6Z" transform="translate(1.2 0.2)" style="fill:#ffb27b"/><path d="M72.2,217.3s7.1-1,11.8-1.4c2.7-.2,7.2-.3,9.2.4s14.9,7,13.4,9.8-10.8-3.9-10.8-3.9,10.2,5.7,8,8.5-11.9-5.9-11.9-5.9,10.4,6.1,7.7,8.6S88.2,228,88.2,228s8.9,5.2,6.8,7.3-11.2-4-11.2-4c-6.1,4.4-10.8,4.1-14.2,3.5C68.8,234.6,72.2,217.3,72.2,217.3Z" transform="translate(1.2 0.2)" style="fill:#ffb27b"/><path d="M92.4,220.1,96,222a41.5,41.5,0,0,1,3.4,2.4,20.1,20.1,0,0,1,3.9,3.6,49.4,49.4,0,0,0-7.5-5.7l-3.5-2.2Z" transform="translate(1.2 0.2)" style="fill:#1a2e35"/><path d="M89.6,224.1a40.4,40.4,0,0,1,4.5,2.6c1.5.9,2.9,1.9,4.3,2.9h-.1l-4.4-2.7-4.3-2.8Z" transform="translate(1.2 0.2)" style="fill:#1a2e35"/><path d="M86.5,227.1a37.4,37.4,0,0,1,6.7,4.5h-.1c-2.2-1.5-3.9-2.8-6.6-4.4C86.4,227.1,86.5,227.1,86.5,227.1Z" transform="translate(1.2 0.2)" style="fill:#1a2e35"/><path d="M69.2,217.5l3.3-.5,3.3-.4,3.3-.3,3.3-.2-3.3.6-3.3.4-3.3.2Z" transform="translate(1.2 0.2)" style="fill:#1a2e35"/><path d="M34.3,209.8l14.8,1.8s1.1-10-.1-15.9-4.6-4.6-7.8.4A151.4,151.4,0,0,0,34.3,209.8Z" transform="translate(1.2 0.2)" style="fill:#ececec"/><path d="M48.7,208.9a106.7,106.7,0,0,0-12.6-1.4s-.1.1,0,.1c3.4.6,10.3,1.3,12.6,1.5Z" transform="translate(1.2 0.2)" style="fill:#1a2e35"/><path d="M50.2,203.4h-.1l-.3,1.5c0-1.1,0-2.2-.1-3.3h-.1c-.2,3.2-.5,6.4-.6,9.7h.3a54.8,54.8,0,0,0,.5-5.7c.1-.3.1-.6.2-.9S50.1,203.9,50.2,203.4Z" transform="translate(1.2 0.2)" style="fill:#1a2e35"/><path d="M46.7,192.4c.2.7,4,4.8,7.2,4.4,1.1-.2.5-5.7.5-5.7v-.4l.7-5.8-7.4-3.7-1-.5s-.1,1.6-.2,3.6v1.5c0,.3-.1.5-.1.7v.8A34.1,34.1,0,0,0,46.7,192.4Z" transform="translate(1.2 0.2)" style="fill:#ffb27b"/><path d="M46.6,184.3a12.2,12.2,0,0,0,7.9,6.4l.7-5.8-7.4-3.7-1-.5S46.7,182.3,46.6,184.3Z" transform="translate(1.2 0.2)" style="fill:#1a2e35"/><path d="M63.5,175.2c1.6,10.2-4.5,12.3-6.8,12.7s-9.2,1.1-12-8.9,1.7-13.9,6.4-14.9S61.8,165,63.5,175.2Z" transform="translate(1.2 0.2)" style="fill:#ffb27b"/><path d="M61.2,173.9h-.7c-.3-.1-.5-.1-.7-.3s-.2-.3-.1-.4.6-.3.9-.3a1.3,1.3,0,0,1,1,.4A.4.4,0,0,1,61.2,173.9Z" transform="translate(1.2 0.2)" style="fill:#1a2e35"/><path d="M54.2,174.7l.7-.2a.9.9,0,0,0,.7-.3.4.4,0,0,0,0-.5,1.1,1.1,0,0,0-1-.1,1.6,1.6,0,0,0-.8.6C53.6,174.4,53.9,174.8,54.2,174.7Z" transform="translate(1.2 0.2)" style="fill:#1a2e35"/><path d="M55.9,177.2h-.1c.1.7.1,1.5-.5,1.8h0C56.1,178.9,56.1,177.9,55.9,177.2Z" transform="translate(1.2 0.2)" style="fill:#1a2e35"/><path d="M55.2,176.6c-1.2,0-1,2.3,0,2.2S56.1,176.5,55.2,176.6Z" transform="translate(1.2 0.2)" style="fill:#1a2e35"/><path d="M54.7,176.7c-.2.2-.4.4-.6.4s-.5-.1-.7-.4-.1,0-.1.1a.8.8,0,1,0,1.6.1Z" transform="translate(1.2 0.2)" style="fill:#1a2e35"/><path d="M60.1,176.6h0c.1.7.2,1.5.9,1.7h0C60.2,178.4,60,177.3,60.1,176.6Z" transform="translate(1.2 0.2)" style="fill:#1a2e35"/><path d="M60.7,175.9c1.1-.2,1.4,2.1.3,2.2S59.7,176,60.7,175.9Z" transform="translate(1.2 0.2)" style="fill:#1a2e35"/><path d="M61.2,176c.2.1.4.3.6.2s.4-.2.6-.5h0a.9.9,0,0,1-.5,1.1c-.3.1-.7-.3-.8-.7S61.1,175.9,61.2,176Z" transform="translate(1.2 0.2)" style="fill:#1a2e35"/><path d="M56.3,182.6c.2.2.4.4.6.4l.8-.2h0a1.1,1.1,0,0,1-.9.4,1.2,1.2,0,0,1-.6-.6Z" transform="translate(1.2 0.2)" style="fill:#1a2e35"/><path d="M59.1,179.8a9.1,9.1,0,0,1,.3,1.6h-.3a2.6,2.6,0,0,1-2.5-.7.1.1,0,0,1,.1-.1,3.7,3.7,0,0,0,2.3.4,13.6,13.6,0,0,1-.4-1.7c.3-.1.8.1,1.2.1-.5-2.1-1.3-4.2-1.7-6.4h.2a33.1,33.1,0,0,1,2,6.8C60.4,180.2,59.3,179.9,59.1,179.8Z" transform="translate(1.2 0.2)" style="fill:#1a2e35"/><path d="M45.6,179.4c2.5-.3,1.9-4.1,1.9-4.1s2.8-.6,2.4-5.1a7.1,7.1,0,0,0,5.7,2.6c.8,0-2.2-1.7-2.2-1.7s3.7,2.4,9.6.5c.4-.1-1.4-6.2-6.4-7.6s-9.3.2-11.8,3.5c0,0-3.3,2-3.2,5.3S44.6,179.5,45.6,179.4Z" transform="translate(1.2 0.2)" style="fill:#1a2e35"/><path d="M46.6,179.6s-2.6-3.1-4.1-2.2.7,5.5,2.5,6a1.9,1.9,0,0,0,2.4-1.1Z" transform="translate(1.2 0.2)" style="fill:#ffb27b"/><path d="M43.2,178.7h0a4.6,4.6,0,0,1,2.5,2.6,1,1,0,0,0-1.5-.1h.1a1.3,1.3,0,0,1,1.2.3l.7.9c0,.1.2.1.2-.1h0C46.3,180.8,44.9,178.7,43.2,178.7Z" transform="translate(1.2 0.2)" style="fill:#1a2e35"/></svg>