<svg id="Layer_1" data-name="Layer 1" xmlns="http://www.w3.org/2000/svg" viewBox="0 0 545.31 297.7"><defs><style>.cls-1{fill:#fff7e9;}.cls-2{fill:#f6fbff;}.cls-3{opacity:0.5;}.cls-4{fill:#9db83c;}.cls-5{fill:#096d2c;}.cls-6{fill:#ffd283;}.cls-7{fill:#0b3563;}.cls-8{fill:#ffb900;}.cls-9{fill:#fff;}.cls-10{fill:#807868;}.cls-11{fill:#d2d0cc;}.cls-12{fill:#a8ccff;}.cls-13{fill:#d5e9ff;}.cls-14{fill:#e9f1ff;}.cls-15{fill:#b2ada4;}.cls-16{opacity:0.3;}.cls-17{fill:#6b98f6;}.cls-18{fill:#10477b;}.cls-19{fill:#d44c10;}.cls-20{fill:#ff912b;}.cls-21{fill:#fc7600;}.cls-22{fill:#ffae73;}.cls-23{fill:#fc9f38;}.cls-24{fill:#e65f00;}.cls-25{fill:#f5eee2;}.cls-26{fill:#c8c8c8;}.cls-27{fill:#a29b8c;}.cls-28{fill:#1e3865;}.cls-29{fill:#f48f4e;}.cls-30{fill:#ffc90d;}.cls-31{fill:#9bd399;}.cls-32{fill:#25468f;}.cls-33{fill:#254c82;}.cls-34{fill:#f9924f;}.cls-35{fill:#0d458e;}.cls-36{fill:#79afff;}</style></defs><path class="cls-1" d="M70.6,306.27s-50.68-31.78-14.14-99.4c24.15-44.71,50.74-39.64,46.39-127.5C99.12,4.18,234.55-2.31,277.36,19.5s38.8,38.55,127.2,30.13c61.52-5.85,92.63,75,69.64,111.9-32.62,52.39,67.86,89.92,29.27,144.74Z" transform="translate(23.34 -8.57)"/><path class="cls-2" d="M355.42,85.68s4.92-7.79,16.67-6.93c0,0,17.05-13,35.24-1.73,0,0,19.34-2.79,33.66,2.42,9.55,3.47,12.7,7.11,12.7,7.11Z" transform="translate(23.34 -8.57)"/><g class="cls-3"><path class="cls-4" d="M229.79,127.4s-4.35-18.88-16.25-29.4c-1.58-1.4-4.23-.22-4,1.77a.38.38,0,0,0,0,.1C210,103.26,223.5,116.65,229.79,127.4Z" transform="translate(23.34 -8.57)"/></g><g class="cls-3"><path class="cls-4" d="M231.63,132.75s-13.06-23-32.45-32.08a2.67,2.67,0,0,0-3.34.85c-.42.68-.55,1.71.15,3.24C197.86,108.83,219.72,121.33,231.63,132.75Z" transform="translate(23.34 -8.57)"/></g><g class="cls-3"><path class="cls-4" d="M388.9,212.88s8.22-17.78,22.1-26.09c1.84-1.1,4.2.51,3.55,2.43l0,.09C413.35,192.56,397.32,203.41,388.9,212.88Z" transform="translate(23.34 -8.57)"/></g><g class="cls-3"><path class="cls-4" d="M386,217.83s17.63-20.34,38.57-26a2.59,2.59,0,0,1,3.1,1.4c.28.75.18,1.78-.82,3.16C424.13,200.12,400.06,208.65,386,217.83Z" transform="translate(23.34 -8.57)"/></g><path class="cls-5" d="M464.8,218.47c-4.85-12.5-28.3-6.93-28.3-6.93s-14.32,23.39-19,24.23,7.94-22.16,7.94-22.16c-9.17-.19-31.53,11.45-31.53,11.45s3.59,25.93-1.15,25.71-1.88-23.11-1.88-23.11c-8.61,3-16.07,12.82-16.07,12.82-9,15.83,13.87,25.52,13.87,25.52s1,9-4.29,19.78h0a29.34,29.34,0,0,0-2.38,5.35l2.4-.16c.15-.6.32-1.17.51-1.73h0v0l.59-1.45h0c.63-1.35,1-2.34,1.3-3.06h0c1.87-4.23,4.6-9.75,6.62-11a4.18,4.18,0,0,1-.59-1c.19.31.38.63.59,1,4.76,7.7,25.41,7.66,36.68,4.77s6.05-5.48-.5-9.81-19.36-2.22-23.33-3.83,1.46-3.83,9.13-3.81,12.06,6.68,24.47,6.92S460,246.56,460,246.56c-8.32,3-23.93-.28-24.73-2.89s21.82-3.86,25.27-4.89S469.65,231,464.8,218.47Z" transform="translate(23.34 -8.57)"/><path class="cls-4" d="M139.41,116.21c4.67-12,27.24-6.67,27.24-6.67s13.78,22.51,18.26,23.32-7.63-21.32-7.63-21.32c8.81-.19,30.34,11,30.34,11s-3.45,25,1.11,24.75,1.81-22.24,1.81-22.24C218.83,127.93,226,137.4,226,137.4c8.7,15.23-13.36,24.56-13.36,24.56s-1,8.67,4.13,19h0a28.28,28.28,0,0,1,2.3,5.15l-2.31-.16c-.15-.57-.31-1.13-.5-1.66h0v0c-.13-.33-.32-.8-.56-1.38h0c-.61-1.3-1-2.25-1.26-2.94h0c-1.79-4.06-4.42-9.38-6.37-10.59a4.11,4.11,0,0,0,.57-.92l-.57.92c-4.58,7.41-24.45,7.37-35.3,4.59s-5.82-5.27.48-9.44,18.63-2.14,22.45-3.68-1.4-3.69-8.79-3.67-11.6,6.42-23.54,6.65S144,143.25,144,143.25c8,2.84,23-.27,23.8-2.79s-21-3.71-24.32-4.7S134.74,128.24,139.41,116.21Z" transform="translate(23.34 -8.57)"/><rect class="cls-6" x="279.35" y="79.24" width="143.17" height="217.83"/><rect class="cls-7" x="422.52" y="106" width="11.98" height="0.5"/><rect class="cls-7" x="422.52" y="159.02" width="11.98" height="0.5"/><rect class="cls-8" x="433.87" y="96.89" width="18.48" height="76.01" rx="9.24"/><path class="cls-9" d="M416.83,114.12h1.25v2.68h3.39v-2.68h1.25v6.44h-1.25v-2.71h-3.39v2.71h-1.25Z" transform="translate(23.34 -8.57)"/><path class="cls-9" d="M416.06,130a3.74,3.74,0,1,1,3.71,3.32A3.45,3.45,0,0,1,416.06,130Zm6.12,0a2.41,2.41,0,1,0-2.39,2.29A2.29,2.29,0,0,0,422.18,130Z" transform="translate(23.34 -8.57)"/><path class="cls-9" d="M419.15,140.42h-2.26v-1h5.77v1h-2.25v5.39h-1.26Z" transform="translate(23.34 -8.57)"/><path class="cls-9" d="M417.29,152h5.27v1h-4v1.67h3.56v1h-3.56v1.73h4.07v1h-5.32Z" transform="translate(23.34 -8.57)"/><path class="cls-9" d="M417.55,164.62h1.25V170h3.74v1h-5Z" transform="translate(23.34 -8.57)"/><rect class="cls-10" x="380.35" y="98.98" width="27.42" height="35.94"/><path class="cls-11" d="M369.65,107.56s.29,12-12.63,21.28V107.56Z" transform="translate(23.34 -8.57)"/><path class="cls-11" d="M372.35,107.56s-.28,12,12.09,21.28V107.56Z" transform="translate(23.34 -8.57)"/><rect class="cls-9" x="394.06" y="98.98" width="0.69" height="35.94"/><rect class="cls-9" x="380.35" y="109.62" width="27.42" height="0.5"/><rect class="cls-9" x="380.35" y="122.65" width="27.42" height="0.5"/><path class="cls-9" d="M385.06,144.06H356.39V107h28.67Zm-27.42-1.13h26.17V108.12H357.64Z" transform="translate(23.34 -8.57)"/><rect class="cls-10" x="337.22" y="98.98" width="27.42" height="35.94"/><path class="cls-11" d="M326.51,107.56s.3,12-12.62,21.28V107.56Z" transform="translate(23.34 -8.57)"/><path class="cls-11" d="M329.22,107.56s-.28,12,12.09,21.28V107.56Z" transform="translate(23.34 -8.57)"/><rect class="cls-9" x="350.93" y="98.98" width="0.69" height="35.94"/><rect class="cls-9" x="337.22" y="109.62" width="27.42" height="0.5"/><rect class="cls-9" x="337.22" y="122.65" width="27.42" height="0.5"/><path class="cls-9" d="M341.93,144.06H313.26V107h28.67Zm-27.42-1.13h26.17V108.12H314.51Z" transform="translate(23.34 -8.57)"/><rect class="cls-10" x="294.09" y="98.98" width="27.42" height="35.94"/><path class="cls-11" d="M283.38,107.56s.29,12-12.63,21.28V107.56Z" transform="translate(23.34 -8.57)"/><path class="cls-11" d="M286.09,107.56s-.28,12,12.08,21.28V107.56Z" transform="translate(23.34 -8.57)"/><rect class="cls-9" x="307.8" y="98.98" width="0.69" height="35.94"/><rect class="cls-9" x="294.09" y="109.62" width="27.42" height="0.5"/><rect class="cls-9" x="294.09" y="122.65" width="27.42" height="0.5"/><path class="cls-9" d="M298.8,144.06H270.13V107H298.8Zm-27.42-1.13h26.17V108.12H271.38Z" transform="translate(23.34 -8.57)"/><rect class="cls-10" x="380.35" y="152.96" width="27.42" height="35.94"/><path class="cls-11" d="M369.65,161.53s.29,12-12.63,21.28V161.53Z" transform="translate(23.34 -8.57)"/><path class="cls-11" d="M372.35,161.53s-.28,12,12.09,21.28V161.53Z" transform="translate(23.34 -8.57)"/><rect class="cls-9" x="394.06" y="152.96" width="0.69" height="35.94"/><rect class="cls-9" x="380.35" y="163.6" width="27.42" height="0.5"/><rect class="cls-9" x="380.35" y="176.63" width="27.42" height="0.5"/><path class="cls-9" d="M385.06,198H356.39V161h28.67Zm-27.42-1.13h26.17V162.1H357.64Z" transform="translate(23.34 -8.57)"/><rect class="cls-10" x="337.22" y="152.96" width="27.42" height="35.94"/><path class="cls-11" d="M326.51,161.53s.3,12-12.62,21.28V161.53Z" transform="translate(23.34 -8.57)"/><path class="cls-11" d="M329.22,161.53s-.28,12,12.09,21.28V161.53Z" transform="translate(23.34 -8.57)"/><rect class="cls-9" x="350.93" y="152.96" width="0.69" height="35.94"/><rect class="cls-9" x="337.22" y="163.6" width="27.42" height="0.5"/><rect class="cls-9" x="337.22" y="176.63" width="27.42" height="0.5"/><path class="cls-9" d="M341.93,198H313.26V161h28.67Zm-27.42-1.13h26.17V162.1H314.51Z" transform="translate(23.34 -8.57)"/><rect class="cls-12" x="294.09" y="152.96" width="27.42" height="35.94"/><path class="cls-13" d="M283.38,161.53s.29,12-12.63,21.28V161.53Z" transform="translate(23.34 -8.57)"/><path class="cls-13" d="M286.09,161.53s-.28,12,12.08,21.28V161.53Z" transform="translate(23.34 -8.57)"/><rect class="cls-9" x="307.8" y="152.96" width="0.69" height="35.94"/><rect class="cls-9" x="294.09" y="163.6" width="27.42" height="0.5"/><rect class="cls-9" x="294.09" y="176.63" width="27.42" height="0.5"/><path class="cls-9" d="M298.8,198H270.13V161H298.8Zm-27.42-1.13h26.17V162.1H271.38Z" transform="translate(23.34 -8.57)"/><rect class="cls-10" x="337.22" y="206.93" width="27.42" height="35.94"/><path class="cls-11" d="M326.51,215.51s.3,12-12.62,21.28V215.51Z" transform="translate(23.34 -8.57)"/><path class="cls-11" d="M329.22,215.51s-.28,12,12.09,21.28V215.51Z" transform="translate(23.34 -8.57)"/><rect class="cls-9" x="350.93" y="206.93" width="0.69" height="35.94"/><rect class="cls-9" x="337.22" y="217.57" width="27.42" height="0.5"/><rect class="cls-9" x="337.22" y="230.6" width="27.42" height="0.5"/><path class="cls-9" d="M341.93,252H313.26V214.94h28.67Zm-27.42-1.13h26.17V216.07H314.51Z" transform="translate(23.34 -8.57)"/><rect class="cls-12" x="294.09" y="206.93" width="27.42" height="35.94"/><path class="cls-13" d="M283.38,215.51s.29,12-12.63,21.28V215.51Z" transform="translate(23.34 -8.57)"/><path class="cls-13" d="M286.09,215.51s-.28,12,12.08,21.28V215.51Z" transform="translate(23.34 -8.57)"/><rect class="cls-9" x="307.8" y="206.93" width="0.69" height="35.94"/><rect class="cls-9" x="294.09" y="217.57" width="27.42" height="0.5"/><rect class="cls-9" x="294.09" y="230.6" width="27.42" height="0.5"/><path class="cls-9" d="M298.8,252H270.13V214.94H298.8Zm-27.42-1.13h26.17V216.07H271.38Z" transform="translate(23.34 -8.57)"/><rect class="cls-10" x="277.74" y="267.28" width="147.11" height="29.79"/><path class="cls-8" d="M302.36,131.47l-.07,163.24c0,5.36-4.8,9.71-10.73,9.71l-94.28,0c-5.93,0-10.73-4.35-10.73-9.72l.06-163.24c0-5.36,4.81-9.7,10.74-9.7l94.28,0C297.56,121.76,302.36,126.11,302.36,131.47Z" transform="translate(23.34 -8.57)"/><path class="cls-10" d="M291.56,305.64l-94.28,0c-6.66,0-12.08-4.91-12.07-10.94l.06-163.24c0-6,5.42-10.92,12.08-10.92l94.28,0c6.66,0,12.08,4.9,12.07,10.93l-.06,163.24C303.64,300.74,298.22,305.64,291.56,305.64ZM197.35,123c-5.18,0-9.39,3.8-9.39,8.48l-.06,163.25c0,4.68,4.2,8.49,9.38,8.49l94.28,0c5.18,0,9.39-3.81,9.39-8.49L301,131.47c0-4.68-4.2-8.49-9.38-8.49Z" transform="translate(23.34 -8.57)"/><path class="cls-14" d="M292.14,225.93v60.41c0,4-3.59,7.25-8,7.25H206.49c-4.43,0-8-3.24-8-7.25V225.93c0-4,3.59-7.26,8-7.26h77.64a8.57,8.57,0,0,1,1.69.17A7.46,7.46,0,0,1,292.14,225.93Z" transform="translate(23.34 -8.57)"/><rect class="cls-14" x="221.81" y="169.43" width="93.67" height="34.59" rx="17.3"/><path class="cls-10" d="M254.67,191.55h-22.6a.48.48,0,0,1-.5-.46h0a.48.48,0,0,1,.5-.46h22.6a.49.49,0,0,1,.51.46h0A.49.49,0,0,1,254.67,191.55Z" transform="translate(23.34 -8.57)"/><path class="cls-10" d="M269.8,194.86H232.07a.48.48,0,0,1-.5-.46h0a.48.48,0,0,1,.5-.46H269.8a.49.49,0,0,1,.5.46h0A.49.49,0,0,1,269.8,194.86Z" transform="translate(23.34 -8.57)"/><rect class="cls-15" x="228.29" y="177.75" width="21.61" height="19.56"/><polygon class="cls-10" points="232.3 192.19 237.02 184.49 240.5 188.78 242.23 187.06 245.9 192.19 232.3 192.19"/><path class="cls-10" d="M215.94,192a1.23,1.23,0,1,1,1.22,1.1A1.17,1.17,0,0,1,215.94,192Z" transform="translate(23.34 -8.57)"/><rect class="cls-10" x="254.84" y="177.75" width="38.09" height="2" rx="1"/><polygon class="cls-8" points="260.37 191.84 263.49 192.25 261.24 194.24 261.77 197.04 258.98 195.72 256.2 197.05 256.73 194.24 254.47 192.25 257.59 191.84 258.98 189.29 260.37 191.84"/><polygon class="cls-8" points="271.15 191.84 274.27 192.25 272.02 194.24 272.55 197.04 269.77 195.72 266.98 197.05 267.51 194.24 265.26 192.25 268.37 191.84 269.76 189.29 271.15 191.84"/><polygon class="cls-8" points="281.94 191.84 285.05 192.25 282.8 194.24 283.34 197.04 280.55 195.72 277.77 197.05 278.3 194.24 276.04 192.25 279.15 191.84 280.54 189.29 281.94 191.84"/><polygon class="cls-8" points="292.72 191.84 295.83 192.25 293.58 194.24 294.12 197.04 291.33 195.72 288.55 197.05 289.08 194.24 286.82 192.25 289.94 191.84 291.33 189.29 292.72 191.84"/><polygon class="cls-8" points="303.5 191.84 306.62 192.25 304.37 194.24 304.9 197.04 302.12 195.72 299.33 197.05 299.86 194.24 297.61 192.25 300.72 191.84 302.11 189.29 303.5 191.84"/><rect class="cls-14" x="221.81" y="129.35" width="93.67" height="34.59" rx="17.3"/><path class="cls-10" d="M254.67,151.47h-22.6a.48.48,0,0,1-.5-.46h0a.48.48,0,0,1,.5-.46h22.6a.49.49,0,0,1,.51.46h0A.49.49,0,0,1,254.67,151.47Z" transform="translate(23.34 -8.57)"/><path class="cls-10" d="M269.8,154.77H232.07a.47.47,0,0,1-.5-.45h0a.48.48,0,0,1,.5-.46H269.8a.48.48,0,0,1,.5.46h0A.48.48,0,0,1,269.8,154.77Z" transform="translate(23.34 -8.57)"/><rect class="cls-15" x="228.29" y="137.67" width="21.61" height="19.56"/><polygon class="cls-10" points="232.3 152.11 237.02 144.41 240.5 148.69 242.23 146.98 245.9 152.11 232.3 152.11"/><path class="cls-10" d="M215.94,151.88a1.23,1.23,0,1,1,1.22,1.1A1.17,1.17,0,0,1,215.94,151.88Z" transform="translate(23.34 -8.57)"/><rect class="cls-10" x="254.84" y="137.67" width="38.09" height="2" rx="1"/><polygon class="cls-8" points="260.37 151.76 263.49 152.16 261.24 154.15 261.77 156.96 258.98 155.64 256.2 156.97 256.73 154.16 254.47 152.17 257.59 151.76 258.98 149.21 260.37 151.76"/><polygon class="cls-8" points="271.15 151.76 274.27 152.16 272.02 154.15 272.55 156.96 269.77 155.64 266.98 156.97 267.51 154.16 265.26 152.17 268.37 151.76 269.76 149.21 271.15 151.76"/><polygon class="cls-8" points="281.94 151.76 285.05 152.16 282.8 154.15 283.34 156.96 280.55 155.64 277.77 156.97 278.3 154.16 276.04 152.17 279.15 151.76 280.54 149.21 281.94 151.76"/><polygon class="cls-8" points="292.72 151.76 295.83 152.16 293.58 154.15 294.12 156.96 291.33 155.64 288.55 156.97 289.08 154.16 286.82 152.17 289.94 151.76 291.33 149.21 292.72 151.76"/><polygon class="cls-8" points="303.5 151.76 306.62 152.16 304.37 154.15 304.9 156.96 302.12 155.64 299.33 156.97 299.86 154.16 297.61 152.17 300.72 151.76 302.11 149.21 303.5 151.76"/><g class="cls-16"><path class="cls-10" d="M233.48,241.71a14.48,14.48,0,0,0-1.88-.12h-.31c-7.67.15-13.83,5.82-13.83,12.79a10.91,10.91,0,0,0,.17,2c1,6,6.73,10.67,13.66,10.81h.31a16.51,16.51,0,0,0,1.88-.11c6.2-.75,11.13-5.13,12.09-10.7a11.88,11.88,0,0,0,.17-2C245.74,247.9,240.4,242.54,233.48,241.71Zm0,21.13a10.6,10.6,0,0,1-1.88.17h-.31a9.35,9.35,0,0,1-9-6.63,7.7,7.7,0,0,1-.26-2c0-4.66,4.1-8.46,9.22-8.61h.31a10.6,10.6,0,0,1,1.88.17c4.36.79,7.64,4.28,7.64,8.45a8.16,8.16,0,0,1-.25,2A9.16,9.16,0,0,1,233.48,262.84Z" transform="translate(23.34 -8.57)"/><path class="cls-10" d="M222.07,254.39a7.7,7.7,0,0,0,.26,2H204.8v-2Z" transform="translate(23.34 -8.57)"/><path class="cls-10" d="M285.82,254.39v2H240.87a8.16,8.16,0,0,0,.25-2Z" transform="translate(23.34 -8.57)"/><path class="cls-10" d="M233.48,221.41v24.53a10.6,10.6,0,0,0-1.88-.17h-.31V221.41Z" transform="translate(23.34 -8.57)"/><path class="cls-10" d="M233.48,262.84v26.53h-2.19V263h.31A10.6,10.6,0,0,0,233.48,262.84Z" transform="translate(23.34 -8.57)"/><polygon class="cls-10" points="306.96 212.83 306.96 247.17 306.96 249.03 309.15 249.03 309.15 247.17 309.15 212.99 306.96 212.83"/><rect class="cls-10" x="282.17" y="212.83" width="2.2" height="67.96"/><rect class="cls-10" x="259.7" y="215.35" width="10.86" height="15.27"/><rect class="cls-10" x="228.13" y="226.84" width="10.59" height="10.97"/><rect class="cls-10" x="228.13" y="215.35" width="21.31" height="9.58"/><rect class="cls-10" x="272.39" y="215.35" width="7.6" height="9.49"/><rect class="cls-17" x="272.39" y="226.84" width="7.6" height="15.86"/><rect class="cls-17" x="272.39" y="249.69" width="7.6" height="9.39"/><rect class="cls-10" x="289.25" y="215.35" width="6.13" height="27.35"/><rect class="cls-10" x="297.37" y="215.35" width="7.6" height="27.35"/><rect class="cls-10" x="288.08" y="250.69" width="21.07" height="30.11"/><rect class="cls-10" x="259.02" y="269.41" width="20.97" height="11.39"/><rect class="cls-10" x="259.02" y="261.23" width="20.97" height="6.04"/><rect class="cls-10" x="228.13" y="261.23" width="18.83" height="19.57"/><rect class="cls-10" x="228.13" y="248.87" width="7.93" height="10.54"/></g><rect class="cls-7" x="179.55" y="289.09" width="3.55" height="4.37"/><rect class="cls-7" x="199.61" y="289.09" width="3.55" height="4.37"/><path class="cls-18" d="M155.47,302.7A2.53,2.53,0,1,1,158,305,2.41,2.41,0,0,1,155.47,302.7Z" transform="translate(23.34 -8.57)"/><path class="cls-7" d="M156.46,302.7a1.54,1.54,0,1,1,1.53,1.39A1.46,1.46,0,0,1,156.46,302.7Z" transform="translate(23.34 -8.57)"/><path class="cls-18" d="M175.52,302.7a2.54,2.54,0,1,1,2.53,2.28A2.41,2.41,0,0,1,175.52,302.7Z" transform="translate(23.34 -8.57)"/><path class="cls-7" d="M176.51,302.7a1.54,1.54,0,1,1,1.54,1.39A1.47,1.47,0,0,1,176.51,302.7Z" transform="translate(23.34 -8.57)"/><path class="cls-19" d="M166.81,285h49a0,0,0,0,1,0,0v0a6.52,6.52,0,0,1-6.52,6.52H173.34a6.52,6.52,0,0,1-6.52-6.52v0A0,0,0,0,1,166.81,285Z"/><path class="cls-20" d="M194.14,238.83v52.91a7.56,7.56,0,0,1-.23,1.85h-6.85a5.67,5.67,0,0,0-2.89.77,5,5,0,0,0-1.35,1.11,4.55,4.55,0,0,0-1.14,3v1.65H154.82v-1.65a4.77,4.77,0,0,0-2.42-4.07,5.24,5.24,0,0,0-1.35-.58,5.7,5.7,0,0,0-1.61-.23H142a7.56,7.56,0,0,1-.23-1.85V238.83c0-4.63,4.14-8.38,9.25-8.38h33.84C190,230.45,194.14,234.2,194.14,238.83Z" transform="translate(23.34 -8.57)"/><path class="cls-7" d="M177.82,230.42a30.78,30.78,0,0,0-14.92-1.65,19.69,19.69,0,0,0-5.74,1.63l-.44-.69a20.48,20.48,0,0,1,6-1.72,31.87,31.87,0,0,1,15.44,1.69Z" transform="translate(23.34 -8.57)"/><path class="cls-21" d="M152.4,230.45V294.4a5.24,5.24,0,0,0-1.35-.58V230.45Z" transform="translate(23.34 -8.57)"/><rect class="cls-21" x="185.18" y="221.88" width="1.35" height="69.67"/><rect class="cls-21" x="195.25" y="221.88" width="1.35" height="69.67"/><path class="cls-21" d="M184.17,230.45v63.91a5,5,0,0,0-1.35,1.11v-65Z" transform="translate(23.34 -8.57)"/><path class="cls-22" d="M112.56,203.06c0-.09,1.48-2.86,1-3.07s-1.31-.18-1.41.3A15.24,15.24,0,0,0,112.56,203.06Z" transform="translate(23.34 -8.57)"/><path class="cls-22" d="M113.12,204.71c0-.28-.35-4.41-1.12-5.24s-2.34-2-2.84-1.95-2.43,2.36-1.85,4.14,3,4.2,3,4.2Z" transform="translate(23.34 -8.57)"/><path class="cls-23" d="M116.06,199.69l-4.49,1.22a.28.28,0,0,1-.35-.17L108.65,193a.26.26,0,0,1,.19-.32l4.49-1.22a.29.29,0,0,1,.35.17l2.56,7.75A.24.24,0,0,1,116.06,199.69Z" transform="translate(23.34 -8.57)"/><path class="cls-24" d="M114.89,200l-4.07,1.1a.5.5,0,0,1-.62-.3l-2.44-7.37a.45.45,0,0,1,.33-.56l4.07-1.1a.5.5,0,0,1,.62.3l2.44,7.37A.44.44,0,0,1,114.89,200Z" transform="translate(23.34 -8.57)"/><path class="cls-22" d="M108.7,197.82s1.87-2.6,2.32-2.46c.65.21-1.69,3.51-1.69,3.51s1.74-2.47,2-2.28c.62.42-.37,2-1.34,3.16,0,0,1.74-1.45,1.8-1.19.2.91-1.92,3.13-1.92,3.13l-1.18-2.45Z" transform="translate(23.34 -8.57)"/><path class="cls-22" d="M107.3,200.23c.09-.31.54-6.53.74-5.94s.66,3.85.66,3.85Z" transform="translate(23.34 -8.57)"/><path class="cls-25" d="M137.12,198.52a42.17,42.17,0,0,1-2.35,12.21c-1.7,4.31-4.62,7.8-9.63,6.51-.52-.13-1-.27-1.49-.42h0c-10.18-3.21-13.48-10.56-13.48-10.56.76-1.13,3-1.54,3-1.54,2,.1,11.06,3.56,11.63,3.66,2.09.38,3.77-10,5.13-13.57s6.9-5.2,6.9-5.2Z" transform="translate(23.34 -8.57)"/><path class="cls-26" d="M135,205.86l-.2,4.87c-1.7,4.31-4.62,7.8-9.63,6.51-.52-.13-1-.27-1.49-.42.16,0,3.22.39,4.51-.77s1.18-5.16,3.61-7.8S135,205.86,135,205.86Z" transform="translate(23.34 -8.57)"/><path d="M135.25,294.9s2.5,2.07,2,3.54-2.75,2.45-3,4.25-1.53,2.78-2.63,2.78h-5.25s-.81-1.26,1.15-1.65,2.69-2.49,2.57-4.45a32,32,0,0,1,.18-4.58l4.16-.87Z" transform="translate(23.34 -8.57)"/><path d="M107.63,305.09h15.45a1.08,1.08,0,0,0,1.12-1,6.57,6.57,0,0,0-.55-3c-.83-1.66-1.35-2,2.13-6.76-1,1-3.87.53-6.25.24-.29.43-4.71,6.61-5.69,7.24S108,302.27,107.63,305.09Z" transform="translate(23.34 -8.57)"/><path class="cls-10" d="M131.7,227.58s-11.2,19.12-14.24,29.65c-2.36,8.17,12,39.8,12,39.8a12.58,12.58,0,0,0,3.1-.75,4.76,4.76,0,0,0,2.61-2.48s-.86-22.61-3.77-33.55c-.66-2.46,3.17-10.38,9.63-14.71s9.15-18.3,5.3-19.24S131.7,227.58,131.7,227.58Z" transform="translate(23.34 -8.57)"/><path class="cls-27" d="M141.29,222.15s-11.77,39-15.35,47.82-9.23,27.39-9.23,27.39a16.32,16.32,0,0,0,8.16.8s17.22-22.82,18-32.91c.34-4.66,17.66-23.15,15.73-35.2Z" transform="translate(23.34 -8.57)"/><path class="cls-25" d="M158.54,234.33a21.93,21.93,0,0,1-6.93,1.48h0c-5.07.39-12.66-.29-21.91-4.95,0,0-2.58-1.92.59-10.11,2.4-6.19,3.57-19.25,6.5-31.15,0,0,9.49-2.7,17.12-.37,5.82,1.78,5.24,9.87,6.32,18.29.1.79.21,1.58.35,2.37C162.16,219.11,158.54,234.33,158.54,234.33Z" transform="translate(23.34 -8.57)"/><path class="cls-28" d="M133.43,172s6.48-9.56,11.5-4.64c0,0,3.28.76,5.16,5.38s-1.07,8.89-3.06,8.22c-1.28-.43-1.88,1.56-1.88,1.56Z" transform="translate(23.34 -8.57)"/><path class="cls-28" d="M143.94,166.59s.44-4,6.83-3.57c0,0-3,0-3.67,1.19,0,0,2.2-1.29,3.8-.66s2.28,3.33,2.19,4.2-1.32,3.56-2.39,3.7a5.41,5.41,0,0,1-2.49-.55Z" transform="translate(23.34 -8.57)"/><path class="cls-22" d="M147.15,189a24.89,24.89,0,0,1-2.21-7.59l-.38.13-6.44,2.05s.45,1.87.74,3.65c.11.73.2,2,.25,3.16s1.32,1.27,2.6,1.21C145.12,191.46,147,190.31,147.15,189Z" transform="translate(23.34 -8.57)"/><path class="cls-29" d="M138.12,183.58s.45,1.87.74,3.65c3.69-.58,5.17-3.9,5.7-5.7Z" transform="translate(23.34 -8.57)"/><path class="cls-30" d="M145.14,180.78a16.56,16.56,0,0,0,1.59-5.47c.06-1.75-1.89-7.92-8.74-6.1a10.05,10.05,0,0,0-3.72,1.86c-1.37,1.13-3.24,3.42.08,8.59l.93,1.78Z" transform="translate(23.34 -8.57)"/><path class="cls-22" d="M137.14,185.43s8.81-1,8-6-.18-8.42-5.83-8-6.45,2.47-6.63,4.18S134.83,185.56,137.14,185.43Z" transform="translate(23.34 -8.57)"/><path class="cls-28" d="M135.32,171.88s3.33,5.5,7.16,5.87,5.28-.72,5.28-.72a9.9,9.9,0,0,1-4.31-5.15S136.69,168.88,135.32,171.88Z" transform="translate(23.34 -8.57)"/><path class="cls-28" d="M136,172.27a7.11,7.11,0,0,0-1.83,2.85c-.23,1.32,0,3.94-.87,4,0,0-2.44-3.71-.76-6.21C134.31,170.22,136,172.27,136,172.27Z" transform="translate(23.34 -8.57)"/><path class="cls-28" d="M135.69,172.51s2.68,5.86,7.65,7.2c0,0-5.26-3.13-6.29-7.09S135.69,172.51,135.69,172.51Z" transform="translate(23.34 -8.57)"/><path class="cls-26" d="M158.54,234.33a21.93,21.93,0,0,1-6.93,1.48h0a6.52,6.52,0,0,1,.43-8.75c4.06-4.63-.32-13.17,2.8-17.81,2.18-3.23,4.3-2.48,5.39-1.73.1.79.21,1.58.35,2.37C162.16,219.11,158.54,234.33,158.54,234.33Z" transform="translate(23.34 -8.57)"/><path class="cls-22" d="M174.52,227.47s.54,1.14,1.29,1.21a17.06,17.06,0,0,1,3.94,1.26c1,.54.93,2.93-.06,3.16s-1.5-1.79-4.62-2.33c-1.06-.18-2.6.48-3.22-1.81Z" transform="translate(23.34 -8.57)"/><path class="cls-25" d="M153.9,189.23c9.06,3,9.4,17.55,13.44,24a164.06,164.06,0,0,1,8.23,15.29s-.08.26-1.63.66a7.25,7.25,0,0,1-2.24.16s-8.56-7-10.89-9.77S153,203.92,153,203.92,150.3,188,153.9,189.23Z" transform="translate(23.34 -8.57)"/><path class="cls-22" d="M172.07,229.53a3.13,3.13,0,0,0,1.56,1.76c1.34.79,2.41,1.58,2.54,1.1s-.75-1-.95-1.92S172.07,229.53,172.07,229.53Z" transform="translate(23.34 -8.57)"/><polygon class="cls-10" points="427.89 86.86 274.7 86.86 282.87 54.01 419.73 54.01 427.89 86.86"/><rect class="cls-10" x="302.54" y="63.76" width="14.05" height="12.72"/><path class="cls-11" d="M278.56,71.75V85.64h15.35V71.75Zm14.05,12.71H279.86V72.92h12.75Z" transform="translate(23.34 -8.57)"/><rect class="cls-11" x="279.88" y="78.05" width="12.72" height="1.27" transform="translate(388.26 -216.12) rotate(90)"/><rect class="cls-11" x="299.1" y="60.79" width="20.34" height="2.67"/><rect class="cls-10" x="344.36" y="63.76" width="14.05" height="12.72"/><path class="cls-11" d="M320.37,71.75V85.64h15.35V71.75Zm14.05,12.71H321.67V72.92h12.75Z" transform="translate(23.34 -8.57)"/><rect class="cls-11" x="321.69" y="78.05" width="12.72" height="1.27" transform="translate(430.07 -257.93) rotate(90)"/><rect class="cls-11" x="340.76" y="60.79" width="20.34" height="2.67"/><rect class="cls-10" x="386.02" y="63.76" width="14.05" height="12.72"/><path class="cls-11" d="M362,71.75V85.64h15.35V71.75Zm14.05,12.71H363.33V72.92h12.75Z" transform="translate(23.34 -8.57)"/><rect class="cls-11" x="363.35" y="78.05" width="12.72" height="1.27" transform="translate(471.73 -299.59) rotate(90)"/><rect class="cls-11" x="382.42" y="60.79" width="20.34" height="2.67"/><path class="cls-31" d="M77.6,305.41h20c1.07-.83-.74-2.7-2.64-2.82a13,13,0,0,0-3,.32c-.28-3.31-1.85-18.19-7.78-17.59-6.66.67,0,6.56,1.89,10a81.93,81.93,0,0,1,3.54,8l-1.68.31c-.88-2.45-4.17-10.71-8.35-10.23-4.9.56-2.93,3.87.55,5.84,2.55,1.44,5.68,3.5,7.17,4.49a22.86,22.86,0,0,1-3.91.28C79.92,304,78.25,304.91,77.6,305.41Z" transform="translate(23.34 -8.57)"/><path class="cls-31" d="M489.52,305.11H474.44c-.81-.62.56-2,2-2.12a9.41,9.41,0,0,1,2.3.25c.21-2.5,1.39-13.71,5.86-13.26,5,.5,0,4.94-1.42,7.56a60.37,60.37,0,0,0-2.67,6l1.26.23c.67-1.85,3.14-8.07,6.29-7.71,3.7.43,2.21,2.92-.41,4.4-1.92,1.09-4.28,2.64-5.4,3.38a17.81,17.81,0,0,0,2.95.22A6.82,6.82,0,0,1,489.52,305.11Z" transform="translate(23.34 -8.57)"/><g id="man"><path class="cls-22" d="M329.63,187.17c.71,1.72,1.94,3.72,3.22,4.22a4.91,4.91,0,0,1,2.07,1.36l1.18-.62,1.41-.74s0-.15-.1-.38-.18-.55-.32-.9a1.15,1.15,0,0,1-.17-1.13,2.37,2.37,0,0,0-.24-2.2c-.45-.6-.88-2.06-1.16-2-.65.11.33,2.12.05,2.49a.53.53,0,0,1-.64.2h0c-1.84-.73-4.09-4.7-5.08-4.16C329.47,183.48,329.33,186.43,329.63,187.17Z" transform="translate(23.34 -8.57)"/><path class="cls-32" d="M336,189.57,333.71,191a.4.4,0,0,1-.51-.08l-5.93-7.64a.31.31,0,0,1,.09-.45l2.32-1.48a.39.39,0,0,1,.5.08l5.93,7.64A.32.32,0,0,1,336,189.57Z" transform="translate(23.34 -8.57)"/><path class="cls-28" d="M333.9,190.91l-1.35.87a.3.3,0,0,1-.39-.06l-6-7.77a.25.25,0,0,1,.07-.35l1.36-.86a.29.29,0,0,1,.38.06l6,7.76A.23.23,0,0,1,333.9,190.91Z" transform="translate(23.34 -8.57)"/><path class="cls-25" d="M369.22,178.61s-11.78,18.59-16.05,22l-15.66-10.57a5.63,5.63,0,0,0-3.27,2.7s12,17.55,18.88,18.28c9.33,1,22.51-21,22.51-21Z" transform="translate(23.34 -8.57)"/><path class="cls-33" d="M391.22,305.34H398a3.69,3.69,0,0,0,1.86-2.82c.34-2,2.79-3.06,3.32-4.69s-2.19-3.9-2.19-3.9l-.45-.53-.48-.55-4.51,1s-.11,1-.18,2.21a24.45,24.45,0,0,0,0,2.84c.13,2.16-.67,4.49-2.79,4.91C391,304.08,391.08,304.92,391.22,305.34Z" transform="translate(23.34 -8.57)"/><path class="cls-33" d="M356.38,305h15.56c.75-.83.47-3.88.36-4.87,0-.2,0-.32,0-.32s-5.31-3.84-6-.9c0,.09-.05.18-.08.27-.92,2.76-5.05,4-7.43,4.36A2.65,2.65,0,0,0,356.38,305Z" transform="translate(23.34 -8.57)"/><path class="cls-27" d="M359.35,226.43s.8,9.11,1.75,20.06c1.29,14.88,2.84,33.15,3,36.61.27,6,1.33,15.62,1.33,15.62s2.52,2.29,7.57,1.33a144,144,0,0,0,5.78-28.25l.06-.72c1.2-14.78,3.06-45.91,3.06-45.91Z" transform="translate(23.34 -8.57)"/><path class="cls-10" d="M359.35,226.43s.8,9.11,1.75,20.06l17.67,25.31.06-.72c1.2-14.78,3.06-45.91,3.06-45.91Z" transform="translate(23.34 -8.57)"/><path class="cls-27" d="M363.29,225s12.19,33.66,20.6,49.61S395,295,395,295s5.48-1.71,6.06-3c0,0-2.92-28-8.73-35.6-3.29-4.3-5.5-18.93-5.43-23.26s-.47-12.93-.47-12.93Z" transform="translate(23.34 -8.57)"/><path class="cls-22" d="M366.65,179.42c5.68,1.62,15.51-2.76,15.51-2.76a13,13,0,0,1-5-10.95l-4.39,3.2-3,2.18a28.63,28.63,0,0,0,.34,3.53v0a3,3,0,0,1-1.34,2.93A11.81,11.81,0,0,0,366.65,179.42Z" transform="translate(23.34 -8.57)"/><path class="cls-34" d="M369.82,171.09a28.63,28.63,0,0,0,.34,3.53c3.31-.52,7.06-5.35,7.06-5.35a11.64,11.64,0,0,0-4.41-.36Z" transform="translate(23.34 -8.57)"/><path class="cls-22" d="M368.08,171s9.39,1.42,10.27-3.89,2.69-8.69-3.27-9.82-7.46.74-8.23,2.45S365.66,170.46,368.08,171Z" transform="translate(23.34 -8.57)"/><path class="cls-25" d="M358.72,227.19a1,1,0,0,0,.6.21c2.13,0,8.35,1,13.62.55a42.22,42.22,0,0,0,12.58-3.28c.56-.23,1.85-.85,1.82-1.42s-.08-1.52-.17-2.65a128,128,0,0,1-.31-18.54c.09-1.46.14-2.91.14-4.33.05-10.6-2.27-19.92-6.94-23.07-.4-.26-2.85.82-5.09,1.82a8.71,8.71,0,0,1-5.64.66l-2.44,1.58a17.62,17.62,0,0,0-6.15,8.89c-1,3.53-1.54,9.89-1.85,16.48-.14,3-.26,6-.29,8.86v.1c0,.29,0,.59,0,.88C358.46,221.27,358.58,227.09,358.72,227.19Z" transform="translate(23.34 -8.57)"/><path class="cls-26" d="M387.17,220.6a128,128,0,0,1-.31-18.54c.09-1.46.14-2.91.14-4.33-1.94-4.27-3.53-7.36-3.53-7.36h-4.9S375,212.58,387.17,220.6Z" transform="translate(23.34 -8.57)"/><path class="cls-10" d="M378.36,166.56a1.06,1.06,0,0,1-.81-1.34c.15-1.21.15-2.77-.93-2.48s-1.13,1.07-1.57.62-.45-2.38-3.66-2.52-4.52.88-6,.29-1.57-2.64-1.57-2.64a2.46,2.46,0,0,0,1.07,1s-2.49-3.08.39-5.2,5.82-.73,7.49-.63c3.68.2,6.05.4,7.25,2.58S380.72,164.46,378.36,166.56Z" transform="translate(23.34 -8.57)"/><path class="cls-35" d="M449.84,301.33c-.29,1.65,1.07,3.56,3.05,4.26s3.81-.07,4.1-1.72-1.07-3.56-3-4.26S450.13,299.68,449.84,301.33Z" transform="translate(23.34 -8.57)"/><path class="cls-35" d="M424.75,301.37c-.29,1.65,1.07,3.56,3.05,4.26s3.81-.06,4.1-1.71-1.07-3.56-3-4.26S425,299.72,424.75,301.37Z" transform="translate(23.34 -8.57)"/><path class="cls-17" d="M457,300.91l-4.51,1.67a4.25,4.25,0,0,1-1.5.25l-28.29-.21-4.43-4.74Z" transform="translate(23.34 -8.57)"/><path class="cls-35" d="M428,246l-10.83-14.35,0,0c-.06-.12-1.79-3.19-10.95-4h-.05l-7.54-.93c-1-.16-3.8-.44-5.05.14a1,1,0,0,0-.64,1.29c.24,1.19,7.44,10.49,12.21,16.46l-1.42.32c-1.22-1.53-12-15-12.35-16.73a1.74,1.74,0,0,1,1.16-2c2.05-1,6-.36,6.42-.29l7.44.9c9.87.91,12,4.29,12.26,4.68l10.79,14.3Z" transform="translate(23.34 -8.57)"/><path class="cls-17" d="M409.42,243.2,395,246.05s-4,1.69-1,8.91c2.58,6.36,16.09,42,16.09,42s2.82,7.42,19.28,5.24Z" transform="translate(23.34 -8.57)"/><path class="cls-36" d="M403.76,253,419.19,293a12.12,12.12,0,0,0,3,4.35,13.47,13.47,0,0,0,9,3.81l14.15.05h.35l8.86,0a9.31,9.31,0,0,0,2.48-.31c.18,0,.35-.1.52-.15a6.48,6.48,0,0,0,4.56-6.12,8.81,8.81,0,0,0-.85-3.86l-17.25-38.21A13.63,13.63,0,0,0,433.1,245l-2.56-.21-.61-.05h0l-.51-.05-8.55-.72-1.05-.09-8.25-.7a9.58,9.58,0,0,0-3.53.32l-.21.06-.42.15C403.83,245.07,402.13,248.79,403.76,253Z" transform="translate(23.34 -8.57)"/><g class="cls-3"><path class="cls-17" d="M422.15,297.32a13.47,13.47,0,0,0,9,3.81l14.15.05h.35l8.86,0a9.31,9.31,0,0,0,2.48-.31c.18,0,.35-.1.52-.15a6.91,6.91,0,0,0,4.36-8.05s-30-.31-36,.6C422.78,293.78,422.41,295.87,422.15,297.32Z" transform="translate(23.34 -8.57)"/></g><path class="cls-17" d="M429.42,244.67c.07,0,7.67,3.73,9.46,7s18.81,42.34,19,42.74a7.09,7.09,0,0,1-1.32,6.61l.42-.1c.18,0,.35-.1.52-.15a6.62,6.62,0,0,0,.89-6.43c-.7-1.61-17.16-39.42-19-42.79-1.61-2.95-7.07-5.89-8.82-6.77l-.61-.05h0Z" transform="translate(23.34 -8.57)"/><path class="cls-17" d="M419.82,243.86a17.68,17.68,0,0,1,7.53,7.81c2.46,5.49,17.29,45.41,17.44,45.81v0l0,0s1.13,2.17.1,3.64h.7c.94-1.57-.15-3.49-.32-3.76-.46-1.24-15-40.38-17.45-45.83a18.07,18.07,0,0,0-7-7.64Z" transform="translate(23.34 -8.57)"/><path class="cls-17" d="M407.41,243.69a17,17,0,0,1,3.12,2,15.83,15.83,0,0,1,4.53,5.82c2.46,5.49,16.54,45.28,16.68,45.68v0l0,0s.82,2.45-.21,3.92h.89c.73-1.34,0-3.76-.2-4-.45-1.27-14.24-40.25-16.68-45.7a16.81,16.81,0,0,0-7.53-7.91l-.21.06Z" transform="translate(23.34 -8.57)"/><path class="cls-22" d="M397.12,218.92s.63,4.07.68,4.6c.29,3.58-.27,3.93,1.89,4.56a3.4,3.4,0,0,0,3.15-.86s-1.51-.08-1.25-2.05c.3-2.27.15-1.63-1.37-3.47l-.35-3.41Z" transform="translate(23.34 -8.57)"/><path class="cls-25" d="M399.17,222.37a18.05,18.05,0,0,1-3.68.19s-5.24-14.65-5.91-16S374,189.4,374,189.4l6.2-14s16.1,24.34,17.74,27.76c2.7,5.65,3.63,18.32,3.63,18.32A7,7,0,0,1,399.17,222.37Z" transform="translate(23.34 -8.57)"/><path class="cls-22" d="M397.8,223.52a5.43,5.43,0,0,0-.4,1.31c0,1.35-.45,2-.19,2.09.55.25,1.09-.8,1.3-1.72A2,2,0,0,0,397.8,223.52Z" transform="translate(23.34 -8.57)"/></g><path class="cls-10" d="M288,133a1.22,1.22,0,0,0-2.43,0,1.22,1.22,0,0,0,2.43,0Z" transform="translate(23.34 -8.57)"/><path class="cls-10" d="M288.94,131.83a.42.42,0,0,1-.28-.1,2.85,2.85,0,0,0-2-.78,2.92,2.92,0,0,0-1.78.76.44.44,0,0,1-.57,0,.34.34,0,0,1,0-.52,3.74,3.74,0,0,1,2.34-1,3.65,3.65,0,0,1,2.56,1,.34.34,0,0,1,0,.52A.44.44,0,0,1,288.94,131.83Z" transform="translate(23.34 -8.57)"/><path class="cls-10" d="M290.2,130.25a.48.48,0,0,1-.28-.1,4.75,4.75,0,0,0-3.28-1.31,5,5,0,0,0-3,1.28.43.43,0,0,1-.57,0,.35.35,0,0,1,0-.52,5.77,5.77,0,0,1,3.54-1.52,5.6,5.6,0,0,1,3.87,1.5.34.34,0,0,1,0,.52A.42.42,0,0,1,290.2,130.25Z" transform="translate(23.34 -8.57)"/><path class="cls-10" d="M291.52,128.7a.38.38,0,0,1-.27-.1,6.3,6.3,0,0,0-8.91,0,.43.43,0,0,1-.57,0,.34.34,0,0,1,0-.51,7.74,7.74,0,0,1,4.8-2.07,7.57,7.57,0,0,1,5.27,2,.34.34,0,0,1,0,.51A.42.42,0,0,1,291.52,128.7Z" transform="translate(23.34 -8.57)"/><path class="cls-10" d="M208.91,128.36H201a.5.5,0,0,1-.53-.47h0a.51.51,0,0,1,.53-.48h7.9a.51.51,0,0,1,.53.48h0A.5.5,0,0,1,208.91,128.36Z" transform="translate(23.34 -8.57)"/><path class="cls-10" d="M208.91,130.47H201a.51.51,0,0,1-.53-.48h0a.5.5,0,0,1,.53-.47h7.9a.5.5,0,0,1,.53.47h0A.51.51,0,0,1,208.91,130.47Z" transform="translate(23.34 -8.57)"/><path class="cls-10" d="M208.91,132.72H201a.51.51,0,0,1-.53-.48h0a.5.5,0,0,1,.53-.47h7.9a.5.5,0,0,1,.53.47h0A.51.51,0,0,1,208.91,132.72Z" transform="translate(23.34 -8.57)"/><path class="cls-2" d="M114.17,66.1s2.89-4.69,9.82-4.17c0,0,10.07-7.83,20.8-1,0,0,11.4-1.68,19.85,1.46,5.63,2.09,7.49,4.29,7.49,4.29Z" transform="translate(23.34 -8.57)"/><path class="cls-2" d="M161.55,46.22s6.45-10.46,21.89-9.3c0,0,22.41-17.44,46.31-2.32,0,0,25.41-3.75,44.22,3.24,12.55,4.66,16.69,9.54,16.69,9.54Z" transform="translate(23.34 -8.57)"/><path class="cls-2" d="M139.93,85.68s4.91-7.79,16.66-6.93c0,0,17.06-13,35.25-1.73,0,0,19.34-2.79,33.66,2.42,9.54,3.47,12.7,7.11,12.7,7.11Z" transform="translate(23.34 -8.57)"/><ellipse class="cls-14" cx="274.91" cy="236" rx="12.86" ry="11.64"/><path class="cls-8" d="M232.28,246.21c.37,10,19.62,25.49,19.62,25.49s18.07-16.6,17.7-26.63a18.59,18.59,0,0,0-19.34-17.59A18.28,18.28,0,0,0,232.28,246.21Zm7.62-1.3c-.2-5.48,4.57-10.1,10.63-10.29s11.16,4.14,11.36,9.62-4.54,10.1-10.62,10.29S240.11,250.42,239.9,244.91Z" transform="translate(23.34 -8.57)"/><rect class="cls-10" y="296.44" width="545.31" height="1.26" rx="0.63"/></svg>