<?xml version="1.0" encoding="utf-8"?>
<!-- Generator: Adobe Illustrator 25.4.1, SVG Export Plug-In . SVG Version: 6.00 Build 0)  -->
<svg version="1.0" id="Layer_1" xmlns="http://www.w3.org/2000/svg" xmlns:xlink="http://www.w3.org/1999/xlink" x="0px" y="0px"
	 width="547px" height="306px" viewBox="0 0 547 306" enable-background="new 0 0 547 306" xml:space="preserve">
<g>
	<g>
		<path fill-rule="evenodd" clip-rule="evenodd" fill="#FFF4DD" d="M439.6,140.9c-3.4-23.1-21-44.8-44.1-61.4
			c-9.4-6.8-20-13-32.6-16.1c-12.6-3.1-27.4-2.7-38.1,3c-8,4.2-12.8,10.9-20,15.8c-14.8,10.2-37.6,11.7-57.9,9.4
			c-20.2-2.4-39.5-8.1-59.7-10.5c-20.2-2.4-43-0.8-57.8,9.5c-17.2,11.9-18.3,31.5-14.1,48.4c1.4,5.7,3.3,11.7,0.7,17.3
			c-3.9,8.3-16.2,12.6-26.1,17.7c-24.7,12.8-38.4,35.8-34.1,57.4c4.8,23.8,29.5,43.8,59.3,54.8c29.8,11,64,14,97.5,14.1
			c14.3,0.1,28.5-0.4,42.7-1.8c41-4.3,79.5-17.2,113.5-34.2c19-9.5,36.9-20.4,50.4-33.9C444.8,204.8,451.2,171,439.6,140.9"/>
		<path fill-rule="evenodd" clip-rule="evenodd" fill="#619440" d="M89.2,227.7c-0.6-2.6-2.1-11.3-4.6-12.2c-2.7-1-6.1,0.3-7.5,2.9
			c-0.6,1.1-0.8,2.4-2,3.2c-0.6,0.4-1.5,0.4-2-0.1c-0.9-0.9,0-2.3,0.7-3.2c1.3-1.9,2.3-4.1,2.3-6.4c0-2.3-1-4.7-3-5.9
			c-1.9-1.2-4.8-1.1-6.3,0.6c-1,1.1-1.4,2.6-2.7,3.4c-0.7,0.4-1.5,0.5-2.2,0.1c-1.3-0.9-0.4-2.9,0.5-4.3c1.2-1.9,2.3-3.9,2.7-6.1
			c0.3-2.2-0.2-4.7-1.9-6.2c-1.6-1.5-4.4-1.9-6.1-0.4c-0.7,0.6-1.1,1.4-1.8,2.1c-0.8,0.8-2,1.3-2.9,0.5c-0.6-0.6-0.7-1.5-0.4-2.3
			c0.4-1.1,1.3-1.8,2.2-2.4c1.4-1.1,2.4-2.6,2.6-4.4c0.6-5.2-5.2-7.2-8.4-4.9c-0.9,0.6-1.8,1.6-2.9,1.3c-0.9-0.2-1.4-1.2-1.3-2.1
			c0.2-1.8,1.7-2.8,2.5-4.3c1.4-2.7-0.2-6.5-3.1-7.3c-2.2-0.6-2.8,2.3-3.8,4.8c-0.2,0.6-1.1,0.5-1.2-0.2c-0.3-2.5-1.1-5.6-1.7-7.3
			c-1.2-3.1-5.9-6.6-8.1-2.1c-0.6,1.2-0.1,4.3,0.6,5.2c1.1,1.2,3.7,5.4,3.7,5.4c0.2,0.5-0.3,1-0.8,0.7c-1-0.7-2.1-1.2-3.4-1.3
			c-0.6-0.1-1.2,0-1.7,0.2c-3.3,1.1-2.8,5.2-0.7,7.1c1.7,1.6,4.2,2.2,6.5,2.7c1.2,0.3,2.5,0.6,3.1,1.8c0.3,0.7,0.3,1.5-0.3,2
			c-0.7,0.6-1.4,0.2-2.1,0.2c-2.3-0.3-4.5,2-4.5,4.4c0,2.4,1.8,4.5,3.9,5.5c2.1,1,4.6,1.2,6.9,1.1c1.2-0.1,2.4-0.2,3.3,0.7
			c0.5,0.5,0.7,1.4,0.2,2c-0.7,0.8-1.9,0.5-2.9,0.4c-2.8-0.2-5.1,3-4.6,5.8c0.4,2.8,2.9,4.9,5.6,5.8c3,1,6.3,0.5,9.4,0.1
			c0.7-0.1,1.5,0.3,1.7,1c0.3,1-0.6,1.5-1.3,2c-2.7,2-3.7,5.9-2.4,8.9c1.3,3,5,4.9,8.2,4.2c2.1-0.4,3.9-1.8,6.2-1.1
			c1.1,0.3,1.9,1.4,1.7,2.5c-0.3,1.4-1.9,1.8-3.1,2.5c-3.3,1.9-3.9,6.9-1.7,10c2.2,3.1,9.2,3.2,13.1,3c3.8-0.2,11.8-0.6,15.9-3.2
			C91.2,242.5,89.8,230.3,89.2,227.7"/>
		<path fill-rule="evenodd" clip-rule="evenodd" fill="#306B34" d="M28.6,164.1c-0.6,1.2-0.1,4.3,0.6,5.2c1.1,1.2,3.7,5.4,3.7,5.4
			c0.2,0.5-0.3,1-0.8,0.7c-1-0.7-2.1-1.2-3.4-1.3c-0.6-0.1-1.2,0-1.7,0.2c-3.3,1.1-2.8,5.2-0.7,7.1c1.7,1.6,4.2,2.2,6.5,2.7
			c1.2,0.3,2.5,0.6,3.1,1.8c0.3,0.7,0.3,1.5-0.3,2c-0.7,0.6-1.4,0.2-2.1,0.2c-2.3-0.3-4.5,2-4.5,4.4c0,2.4,1.8,4.5,3.9,5.5
			c2.1,1,4.6,1.2,6.9,1.1c1.2-0.1,2.4-0.2,3.3,0.7c0.5,0.5,0.7,1.4,0.2,2c-0.6,0.8-1.9,0.5-2.9,0.4c-2.8-0.2-5.1,3-4.6,5.8
			s2.9,4.9,5.6,5.8c3,1,6.3,0.5,9.4,0.1c0.7-0.1,1.5,0.3,1.7,1c0.3,1-0.6,1.5-1.3,2c-2.7,2-3.7,5.9-2.4,8.9c1.4,3,5,4.9,8.2,4.2
			c2.1-0.4,3.9-1.8,6.2-1.1c1.1,0.3,1.9,1.4,1.7,2.5c-0.3,1.4-1.9,1.8-3.1,2.5c-3.3,1.9-6.8,9-4.6,12.1c2.2,3.1,12.1,1.1,15.9,0.9
			c3.6-0.2,10.7-0.5,15-2.7c0.3-0.2,0.9-0.5,0.9-0.5S68.2,225.4,50,201.1C39.9,187.6,30.9,162,30.9,162s-0.4,0.1-0.8,0.4
			C29.4,162.9,28.7,163.9,28.6,164.1"/>
	</g>
	<g transform="translate(0 2) translate(0 209.532)">
		<defs>
			<filter id="Adobe_OpacityMaskFilter" filterUnits="userSpaceOnUse" x="0" y="0.5" width="78.1" height="73.8">
				<feColorMatrix  type="matrix" values="1 0 0 0 0  0 1 0 0 0  0 0 1 0 0  0 0 0 1 0"/>
			</filter>
		</defs>
		
			<mask maskUnits="userSpaceOnUse" x="0" y="0.5" width="78.1" height="73.8" id="prefix__b_00000021801635983604823600000009220230989444885936_">
			<g filter="url(#Adobe_OpacityMaskFilter)">
				
					<path id="prefix__a_00000094590408754040706890000000782365223594566565_" fill-rule="evenodd" clip-rule="evenodd" fill="#FFFFFF" d="
					M24.5,1c-1.4,0.6-2.6,1.5-3.8,2.5c2.6,0.6,4.9,2.3,6.3,4.5c1.4,2.2,2,5,1.5,7.5c-0.2,1.1-0.7,2.3-1.8,2.5
					c-1.4,0.3-2.5-1.2-3.1-2.5l-4.1-8.3c-0.5-1-1-2-1.7-2.8c-0.8-0.8-1.8-1.4-2.9-1.3c-1.6,0.1-2.7,1.4-4.2,2C8.7,5.8,6.3,5,5.2,3.3
					L4.6,1.7C3.6,3.1,3.8,5,3.9,6.8C4.1,12.6,2.8,18.5,0,23.7c1.6,3.1,5.2,4.8,8.8,5.2c2.2,0.3,4.4,0.2,6.5,0.1c1.4,0,2.7-0.1,4.1,0
					c0.8,0,1.7,0.1,2.4,0.4c0.8,0.4,1.4,1.1,1.4,1.9c0,0.8-0.5,1.5-1.1,1.9c-0.6,0.4-1.4,0.7-2.1,0.9c-2.2,0.7-6.7,0.9-8.9,0.5
					C7.3,33.9,1.6,29.8,1.1,28l1.5,12.5c0.1,1,0.2,1.9,0.8,2.7c0.9,1.4,2.8,1.9,4.5,2.2c3.1,0.5,6.2,0.9,9.3,0.6
					c3.1-0.3,6.2-1.3,8.6-3.4c0.9-0.8,1.7-1.6,2.7-2.2c1-0.5,2.5-0.5,3.2,0.4c0.6,0.7,0.5,1.8,0.1,2.6s-1.3,1.4-2.1,1.9
					c-7,4.5-16.6,4.9-24,1c2.9,1.9,3.6,5.9,6.5,7.8c1.6,1.1,3.7,1.2,5.6,1.1c6.9-0.4,13.5-4.2,17.2-10c0.5-0.8,1.1-1.8,2.2-1.9
					c1.1-0.1,2,0.8,2.2,1.8c0.4,1.6-0.6,3.1-1.6,4.2c-5.5,6.4-14.6,9.6-22.9,8c1.8,1.8,3.6,3.7,5.7,5.2c2.1,1.5,4.6,2.5,7.2,2.5
					c3.4,0,6.5-1.8,9-4c3.6-3.4,6.1-7.9,6.9-12.8c0.1-0.8,0.2-1.7,0.7-2.4c0.4-0.7,1.3-1.3,2.1-1c0.8,0.2,1.2,1.1,1.2,1.9
					c0,0.8-0.4,1.5-0.8,2.3c-2.5,4.7-2.3,9.8-5.5,14C37.5,67.9,31,68.4,31,68.4s4.7,6.5,15.9,5.7c2.7-0.2,7.5-1.7,9.9-4.3
					c2.3-2.6,5.5-7.5,6.2-10.9c0.7-3.2,0.4-5.7-1.6-8.1c-0.2-0.2-0.4-0.5-0.7-0.7c-0.6-0.5-1.9-1.8-1.5-2.4c0.8-1.1,2.8-0.1,3.7,0.9
					c1,1,1.6,2.3,2.6,3.2c1.7,1.6,4.5,1.9,6.7,1s3.9-2.8,4.8-5c0.9-2.2,1.2-4.6,1.1-6.9c-0.2-8.1-3.9-16-9.9-21.5
					c0.7,5.2-2.1,10.7-6.9,13.1c-0.6,0.3-1.3,0.6-1.9,0.5C58.7,33.1,58,32.6,58,32c-0.1-0.9,0.9-1.5,1.7-2c4.2-2.4,6.9-6.9,7.1-11.6
					L64.5,16c-6.1-6.4-11.7-9.4-20-12.5c1.5,2.9,3.1,5.8,3.9,9c0.8,3.2,0.9,6.6-0.5,9.6c-0.3,0.8-0.8,1.5-1.5,1.9
					c-0.7,0.4-1.7,0.5-2.4-0.1c-0.7-0.6-0.6-1.7-0.5-2.6l0.7-7.3c0.3-3.1,0.6-6.4-0.9-9.2c-1-1.8-2.8-3.2-4.9-3.8
					c-2-0.5-4.3-0.2-6.1,0.8c4.3,3.6,6.9,9,7.1,14.6c0,0.8,0,1.6-0.3,2.3c-0.3,0.7-1,1.3-1.7,1.4c-0.9,0.1-1.7-0.6-2.1-1.4
					C35,18,35,17,34.9,16.1c-0.3-3.6-1.1-7.2-2.3-10.6c-0.7-1.9-1.7-3.9-3.6-4.7c-0.6-0.3-1.2-0.4-1.9-0.4C26.2,0.5,25.3,0.7,24.5,1
					 M31,27.3c-0.5-0.1-0.9-0.4-1.2-0.8c-1-0.9-1.6-2.2-1.7-3.6c0-0.5,0-0.9,0.2-1.3c0.2-0.4,0.5-0.8,1-0.9c0.6-0.1,1.1,0.1,1.5,0.5
					c0,0,1.2,1.5,1.5,2.1c0.4,0.7,0.5,1,0.8,1.8c0.2,0.7,0.1,1.7-0.6,2.1c-0.3,0.2-0.6,0.2-0.9,0.2C31.4,27.3,31.2,27.3,31,27.3
					 M38.3,29.4c0,0-0.4-1-0.6-1.4c-0.7-1.2-0.9-2.7-0.5-4c0.1-0.4,0.3-0.8,0.6-1.1c0.3-0.3,0.8-0.5,1.2-0.4c0.6,0.1,1,0.8,1.2,1.4
					c0.5,1.3,0.8,2.8,0.7,4.2c0,0.5-0.1,0.9-0.3,1.3c-0.2,0.4-0.6,0.8-1.1,0.8c0,0-0.1,0-0.1,0C39,30.1,38.5,29.8,38.3,29.4
					 M22.8,26.3c-0.6-0.2-1.1-0.6-1.5-1.1l-0.2-0.3c-0.2-0.2-0.3-0.6-0.2-0.8c0.1-0.3,0.4-0.4,0.7-0.5c0.3,0,0.6,0,0.9,0.1
					c0.5,0.1,0.9,0.2,1.3,0.5c0.4,0.2,0.7,0.6,0.8,1c0.1,0.4-0.1,1-0.5,1.2c-0.2,0.1-0.3,0.1-0.5,0.1C23.3,26.4,23,26.4,22.8,26.3
					 M51,35.7c-1-0.3-1.6-1.5-1.5-2.6c0.1-1.1,0.6-2.1,1.1-3l1.1-2.1c0.2-0.5,0.4-1,0.8-1.5c0.3-0.4,0.9-0.8,1.4-0.8
					c1.1,0,1.8,1.1,2,2.1c0.7,2.5-0.2,5.3-2.2,7.1c-0.6,0.5-1.4,1-2.2,1C51.4,35.8,51.2,35.8,51,35.7 M45.7,31.6
					c-0.5-0.4-0.6-1-0.7-1.6c0-0.8,0.2-1.7,0.6-2.4l0.2-0.4c0.2-0.4,0.6-0.7,1-0.7c0.4,0,0.7,0.2,1,0.6c0.2,0.3,0.3,0.7,0.4,1.1
					c0.1,0.6,0.2,1.2,0.1,1.8c-0.1,0.6-0.4,1.2-0.9,1.6c-0.3,0.2-0.6,0.3-1,0.3C46.2,31.9,45.9,31.8,45.7,31.6 M28.3,37.3
					c-1.1-0.1-2.1-1-2.1-2c0,0,0.5-1.5,2-2.4c1-0.6,2.2-1.1,3.4-0.9c0.6,0.1,1.3,0.4,1.7,0.9c0.4,0.5,0.7,1.2,0.5,1.8
					c-0.3,1.1-1.4,1.6-2.5,2c-0.9,0.3-1.8,0.6-2.7,0.6C28.6,37.3,28.4,37.3,28.3,37.3 M38.4,42.1c-1-0.1-2.1-0.4-2.5-1.4
					c-0.3-0.8,0.2-1.8,1-2.2c0,0,1.9-0.7,2.5-1.1c0.9-0.5,2-0.7,2.9-0.1c0.9,0.6,1.3,1.7,0.9,2.7c-0.3,0.9-1.1,1.5-2,1.9
					c-0.6,0.2-1.2,0.3-1.8,0.3C39,42.2,38.7,42.2,38.4,42.1 M57.9,42.2c-1.4-0.4-2-2-1.3-3.3l0-0.1c0.3-0.5,0.7-0.9,1.2-1.2
					c1.6-1,8.8-0.2,8.7,1.4c0,0.8-0.5,1.6-1.2,2.2c-0.6,0.5-1.5,0.9-2.3,1.1c-0.7,0.2-1.5,0.3-2.3,0.3
					C59.8,42.7,58.9,42.5,57.9,42.2 M50.3,58.1c-1.1-0.4-1.7-1.7-1.6-2.9c0-1.2,0.6-2.3,1.1-3.3c0,0,1.2-4.4,2.2-5.3
					c0.4-0.3,1-0.4,1.5-0.1c0.5,0.3,0.7,0.8,1,1.2c1.1,2.4,1.2,5.3,0.2,7.7c-0.4,0.8-0.9,1.7-1.6,2.2c-0.5,0.4-1.1,0.6-1.8,0.6
					C50.8,58.3,50.5,58.2,50.3,58.1"/>
			</g>
		</mask>
		
			<path mask="url(#prefix__b_00000021801635983604823600000009220230989444885936_)" fill-rule="evenodd" clip-rule="evenodd" fill="#FBBF00" d="
			M24.5,1c-1.4,0.6-2.6,1.5-3.8,2.5c2.6,0.6,4.9,2.3,6.3,4.5c1.4,2.2,2,5,1.5,7.5c-0.2,1.1-0.7,2.3-1.8,2.5
			c-1.4,0.3-2.5-1.2-3.1-2.5l-4.1-8.3c-0.5-1-1-2-1.7-2.8c-0.8-0.8-1.8-1.4-2.9-1.3c-1.6,0.1-2.7,1.4-4.2,2C8.7,5.8,6.3,5,5.2,3.3
			L4.6,1.7C3.6,3.1,3.8,5,3.9,6.8C4.1,12.6,2.8,18.5,0,23.7c1.6,3.1,5.2,4.8,8.8,5.2c2.2,0.3,4.4,0.2,6.5,0.1c1.4,0,2.7-0.1,4.1,0
			c0.8,0,1.7,0.1,2.4,0.4c0.8,0.4,1.4,1.1,1.4,1.9c0,0.8-0.5,1.5-1.1,1.9c-0.6,0.4-1.4,0.7-2.1,0.9c-2.2,0.7-6.7,0.9-8.9,0.5
			C7.3,33.9,1.6,29.8,1.1,28l1.5,12.5c0.1,1,0.2,1.9,0.8,2.7c0.9,1.4,2.8,1.9,4.5,2.2c3.1,0.5,6.2,0.9,9.3,0.6
			c3.1-0.3,6.2-1.3,8.6-3.4c0.9-0.8,1.7-1.6,2.7-2.2c1-0.5,2.5-0.5,3.2,0.4c0.6,0.7,0.5,1.8,0.1,2.6s-1.3,1.4-2.1,1.9
			c-7,4.5-16.6,4.9-24,1c2.9,1.9,3.6,5.9,6.5,7.8c1.6,1.1,3.7,1.2,5.6,1.1c6.9-0.4,13.5-4.2,17.2-10c0.5-0.8,1.1-1.8,2.2-1.9
			c1.1-0.1,2,0.8,2.2,1.8c0.4,1.6-0.6,3.1-1.6,4.2c-5.5,6.4-14.6,9.6-22.9,8c1.8,1.8,3.6,3.7,5.7,5.2c2.1,1.5,4.6,2.5,7.2,2.5
			c3.4,0,6.5-1.8,9-4c3.6-3.4,6.1-7.9,6.9-12.8c0.1-0.8,0.2-1.7,0.7-2.4c0.4-0.7,1.3-1.3,2.1-1c0.8,0.2,1.2,1.1,1.2,1.9
			c0,0.8-0.4,1.5-0.8,2.3c-2.5,4.7-2.3,9.8-5.5,14C37.5,67.9,31,68.4,31,68.4s4.7,6.5,15.9,5.7c2.7-0.2,7.5-1.7,9.9-4.3
			c2.3-2.6,5.5-7.5,6.2-10.9c0.7-3.2,0.4-5.7-1.6-8.1c-0.2-0.2-0.4-0.5-0.7-0.7c-0.6-0.5-1.9-1.8-1.5-2.4c0.8-1.1,2.8-0.1,3.7,0.9
			c1,1,1.6,2.3,2.6,3.2c1.7,1.6,4.5,1.9,6.7,1s3.9-2.8,4.8-5c0.9-2.2,1.2-4.6,1.1-6.9c-0.2-8.1-3.9-16-9.9-21.5
			c0.7,5.2-2.1,10.7-6.9,13.1c-0.6,0.3-1.3,0.6-1.9,0.5C58.7,33.1,58,32.6,58,32c-0.1-0.9,0.9-1.5,1.7-2c4.2-2.4,6.9-6.9,7.1-11.6
			L64.5,16c-6.1-6.4-11.7-9.4-20-12.5c1.5,2.9,3.1,5.8,3.9,9c0.8,3.2,0.9,6.6-0.5,9.6c-0.3,0.8-0.8,1.5-1.5,1.9
			c-0.7,0.4-1.7,0.5-2.4-0.1c-0.7-0.6-0.6-1.7-0.5-2.6l0.7-7.3c0.3-3.1,0.6-6.4-0.9-9.2c-1-1.8-2.8-3.2-4.9-3.8
			c-2-0.5-4.3-0.2-6.1,0.8c4.3,3.6,6.9,9,7.1,14.6c0,0.8,0,1.6-0.3,2.3c-0.3,0.7-1,1.3-1.7,1.4c-0.9,0.1-1.7-0.6-2.1-1.4
			C35,18,35,17,34.9,16.1c-0.3-3.6-1.1-7.2-2.3-10.6c-0.7-1.9-1.7-3.9-3.6-4.7c-0.6-0.3-1.2-0.4-1.9-0.4C26.2,0.5,25.3,0.7,24.5,1
			 M31,27.3c-0.5-0.1-0.9-0.4-1.2-0.8c-1-0.9-1.6-2.2-1.7-3.6c0-0.5,0-0.9,0.2-1.3c0.2-0.4,0.5-0.8,1-0.9c0.6-0.1,1.1,0.1,1.5,0.5
			c0,0,1.2,1.5,1.5,2.1c0.4,0.7,0.5,1,0.8,1.8c0.2,0.7,0.1,1.7-0.6,2.1c-0.3,0.2-0.6,0.2-0.9,0.2C31.4,27.3,31.2,27.3,31,27.3
			 M38.3,29.4c0,0-0.4-1-0.6-1.4c-0.7-1.2-0.9-2.7-0.5-4c0.1-0.4,0.3-0.8,0.6-1.1c0.3-0.3,0.8-0.5,1.2-0.4c0.6,0.1,1,0.8,1.2,1.4
			c0.5,1.3,0.8,2.8,0.7,4.2c0,0.5-0.1,0.9-0.3,1.3c-0.2,0.4-0.6,0.8-1.1,0.8c0,0-0.1,0-0.1,0C39,30.1,38.5,29.8,38.3,29.4
			 M22.8,26.3c-0.6-0.2-1.1-0.6-1.5-1.1l-0.2-0.3c-0.2-0.2-0.3-0.6-0.2-0.8c0.1-0.3,0.4-0.4,0.7-0.5c0.3,0,0.6,0,0.9,0.1
			c0.5,0.1,0.9,0.2,1.3,0.5c0.4,0.2,0.7,0.6,0.8,1c0.1,0.4-0.1,1-0.5,1.2c-0.2,0.1-0.3,0.1-0.5,0.1C23.3,26.4,23,26.4,22.8,26.3
			 M51,35.7c-1-0.3-1.6-1.5-1.5-2.6c0.1-1.1,0.6-2.1,1.1-3l1.1-2.1c0.2-0.5,0.4-1,0.8-1.5c0.3-0.4,0.9-0.8,1.4-0.8
			c1.1,0,1.8,1.1,2,2.1c0.7,2.5-0.2,5.3-2.2,7.1c-0.6,0.5-1.4,1-2.2,1C51.4,35.8,51.2,35.8,51,35.7 M45.7,31.6
			c-0.5-0.4-0.6-1-0.7-1.6c0-0.8,0.2-1.7,0.6-2.4l0.2-0.4c0.2-0.4,0.6-0.7,1-0.7c0.4,0,0.7,0.2,1,0.6c0.2,0.3,0.3,0.7,0.4,1.1
			c0.1,0.6,0.2,1.2,0.1,1.8c-0.1,0.6-0.4,1.2-0.9,1.6c-0.3,0.2-0.6,0.3-1,0.3C46.2,31.9,45.9,31.8,45.7,31.6 M28.3,37.3
			c-1.1-0.1-2.1-1-2.1-2c0,0,0.5-1.5,2-2.4c1-0.6,2.2-1.1,3.4-0.9c0.6,0.1,1.3,0.4,1.7,0.9c0.4,0.5,0.7,1.2,0.5,1.8
			c-0.3,1.1-1.4,1.6-2.5,2c-0.9,0.3-1.8,0.6-2.7,0.6C28.6,37.3,28.4,37.3,28.3,37.3 M38.4,42.1c-1-0.1-2.1-0.4-2.5-1.4
			c-0.3-0.8,0.2-1.8,1-2.2c0,0,1.9-0.7,2.5-1.1c0.9-0.5,2-0.7,2.9-0.1c0.9,0.6,1.3,1.7,0.9,2.7c-0.3,0.9-1.1,1.5-2,1.9
			c-0.6,0.2-1.2,0.3-1.8,0.3C39,42.2,38.7,42.2,38.4,42.1 M57.9,42.2c-1.4-0.4-2-2-1.3-3.3l0-0.1c0.3-0.5,0.7-0.9,1.2-1.2
			c1.6-1,8.8-0.2,8.7,1.4c0,0.8-0.5,1.6-1.2,2.2c-0.6,0.5-1.5,0.9-2.3,1.1c-0.7,0.2-1.5,0.3-2.3,0.3C59.8,42.7,58.9,42.5,57.9,42.2
			 M50.3,58.1c-1.1-0.4-1.7-1.7-1.6-2.9c0-1.2,0.6-2.3,1.1-3.3c0,0,1.2-4.4,2.2-5.3c0.4-0.3,1-0.4,1.5-0.1c0.5,0.3,0.7,0.8,1,1.2
			c1.1,2.4,1.2,5.3,0.2,7.7c-0.4,0.8-0.9,1.7-1.6,2.2c-0.5,0.4-1.1,0.6-1.8,0.6C50.8,58.3,50.5,58.2,50.3,58.1"/>
	</g>
	<g transform="translate(0 2) translate(53.39 253.856)">
		<defs>
			
				<filter id="Adobe_OpacityMaskFilter_00000111905035872780157990000017434899909519205031_" filterUnits="userSpaceOnUse" x="0.6" y="1" width="20.6" height="19.2">
				<feColorMatrix  type="matrix" values="1 0 0 0 0  0 1 0 0 0  0 0 1 0 0  0 0 0 1 0"/>
			</filter>
		</defs>
		
			<mask maskUnits="userSpaceOnUse" x="0.6" y="1" width="20.6" height="19.2" id="prefix__e_00000020385845280341449780000007748673490852533179_">
			<g filter="url(#Adobe_OpacityMaskFilter_00000111905035872780157990000017434899909519205031_)">
				
					<path id="prefix__c_00000170261617871200509080000001468789823473095593_" fill-rule="evenodd" clip-rule="evenodd" fill="#FFFFFF" d="
					M1,1.7c0.3,0.2,0.6,0.4,0.9,0.6c-0.1,0-0.1,0.1-0.2,0.1C1.6,2.3,1.4,2.2,1.2,2.1C0.8,1.8,0.3,2.5,0.8,2.8
					c5.8,3.7,11.2,8.1,15.9,13.2c0.4,0.6,0.9,1.1,1.3,1.7c0.1,0.1,0.2,0.2,0.4,0.1c0.4,0.5,0.9,1,1.3,1.4c0.1,0.1,0.2,0.2,0.4,0.1
					c0.2,0.2,0.4,0.5,0.6,0.7c0.3,0.4,0.9-0.1,0.6-0.5c-2.1-2.7-4.4-5.3-6.9-7.7c-3.8-4.1-8-7.8-12.7-10.8C1.4,1,1.4,1,1.3,1
					C0.9,1,0.7,1.5,1,1.7"/>
			</g>
		</mask>
		
			<linearGradient id="SVGID_1_" gradientUnits="userSpaceOnUse" x1="79.3099" y1="37.2906" x2="81.7907" y2="35.6646" gradientTransform="matrix(20.6389 0 0 -19.2207 -1686.2111 690.4865)">
			<stop  offset="0" style="stop-color:#A8F2FF"/>
			<stop  offset="1" style="stop-color:#8595F9"/>
		</linearGradient>
		
			<path mask="url(#prefix__e_00000020385845280341449780000007748673490852533179_)" fill-rule="evenodd" clip-rule="evenodd" fill="url(#SVGID_1_)" d="
			M1,1.7c0.3,0.2,0.6,0.4,0.9,0.6c-0.1,0-0.1,0.1-0.2,0.1C1.6,2.3,1.4,2.2,1.2,2.1C0.8,1.8,0.3,2.5,0.8,2.8
			c5.8,3.7,11.2,8.1,15.9,13.2c0.4,0.6,0.9,1.1,1.3,1.7c0.1,0.1,0.2,0.2,0.4,0.1c0.4,0.5,0.9,1,1.3,1.4c0.1,0.1,0.2,0.2,0.4,0.1
			c0.2,0.2,0.4,0.5,0.6,0.7c0.3,0.4,0.9-0.1,0.6-0.5c-2.1-2.7-4.4-5.3-6.9-7.7c-3.8-4.1-8-7.8-12.7-10.8C1.4,1,1.4,1,1.3,1
			C0.9,1,0.7,1.5,1,1.7"/>
	</g>
	<path fill-rule="evenodd" clip-rule="evenodd" fill="#306B34" d="M23.6,204.1c-0.1,0.9,0.1,1.9,0.7,2.6c1.2,1.6,3.5,1.8,5,0.6
		c0.8-0.6,1.2-1.4,1.4-2.4c0.1-0.9-0.1-1.9-0.7-2.6c-1.2-1.6-3.5-1.8-5-0.6c0,0,0,0,0,0C24.2,202.3,23.8,203.1,23.6,204.1z
		 M30.3,208.4c-2.2,1.7-5.4,1.3-7.1-0.8c-0.8-1.1-1.2-2.4-1-3.7c0.2-1.3,0.8-2.5,1.9-3.4c2.2-1.7,5.4-1.3,7.1,0.8
		c0.8,1.1,1.2,2.4,1,3.7C32,206.4,31.4,207.6,30.3,208.4L30.3,208.4L30.3,208.4z"/>
	<g transform="translate(0 2) translate(37.273 156.142)">
		<defs>
			
				<filter id="Adobe_OpacityMaskFilter_00000134215751181705418980000014552201696148358826_" filterUnits="userSpaceOnUse" x="0.2" y="0.1" width="8.4" height="8.3">
				<feColorMatrix  type="matrix" values="1 0 0 0 0  0 1 0 0 0  0 0 1 0 0  0 0 0 1 0"/>
			</filter>
		</defs>
		
			<mask maskUnits="userSpaceOnUse" x="0.2" y="0.1" width="8.4" height="8.3" id="prefix__h_00000155109292030989486330000015595399707923521720_">
			<g filter="url(#Adobe_OpacityMaskFilter_00000134215751181705418980000014552201696148358826_)">
				
					<path id="prefix__f_00000096755862051190440940000012476896048338955656_" fill-rule="evenodd" clip-rule="evenodd" fill="#FFFFFF" d="
					M4.3,0.1c-1.1,0-2.2,0.5-3,1.3c-0.8,0.8-1.2,1.8-1.2,3c0,2.3,1.9,4.1,4.2,4.1c0,0,0.1,0,0.1,0c1.1,0,2.2-0.5,3-1.3
					c0.8-0.8,1.2-1.8,1.2-3C8.6,1.9,6.7,0.1,4.3,0.1L4.3,0.1 M1.5,4.2c0-0.8,0.3-1.5,0.8-2c0.5-0.5,1.3-0.9,2-0.9l0.1,0
					c1.6,0,2.9,1.2,2.9,2.8c0,0.8-0.3,1.5-0.8,2C5.9,6.7,5.2,7,4.4,7L4.4,7C2.8,7,1.5,5.8,1.5,4.2"/>
			</g>
		</mask>
		
			<linearGradient id="SVGID_00000008129823335879216990000018247873809978863239_" gradientUnits="userSpaceOnUse" x1="88.9049" y1="134.0478" x2="87.9049" y2="134.0478" gradientTransform="matrix(8.4413 0 0 -8.285 -741.8745 1114.7786)">
			<stop  offset="0" style="stop-color:#FFB218"/>
			<stop  offset="1" style="stop-color:#FFCF44"/>
		</linearGradient>
		
			<path mask="url(#prefix__h_00000155109292030989486330000015595399707923521720_)" fill-rule="evenodd" clip-rule="evenodd" fill="url(#SVGID_00000008129823335879216990000018247873809978863239_)" d="
			M4.3,0.1c-1.1,0-2.2,0.5-3,1.3c-0.8,0.8-1.2,1.8-1.2,3c0,2.3,1.9,4.1,4.2,4.1c0,0,0.1,0,0.1,0c1.1,0,2.2-0.5,3-1.3
			c0.8-0.8,1.2-1.8,1.2-3C8.6,1.9,6.7,0.1,4.3,0.1L4.3,0.1 M1.5,4.2c0-0.8,0.3-1.5,0.8-2c0.5-0.5,1.3-0.9,2-0.9l0.1,0
			c1.6,0,2.9,1.2,2.9,2.8c0,0.8-0.3,1.5-0.8,2C5.9,6.7,5.2,7,4.4,7L4.4,7C2.8,7,1.5,5.8,1.5,4.2"/>
	</g>
	<g transform="translate(0 2) translate(48.354 165.2)">
		<defs>
			
				<filter id="Adobe_OpacityMaskFilter_00000035507007350538299280000017476833860163063681_" filterUnits="userSpaceOnUse" x="0.6" y="0" width="10.7" height="10.7">
				<feColorMatrix  type="matrix" values="1 0 0 0 0  0 1 0 0 0  0 0 1 0 0  0 0 0 1 0"/>
			</filter>
		</defs>
		
			<mask maskUnits="userSpaceOnUse" x="0.6" y="0" width="10.7" height="10.7" id="prefix__j_00000070095647852341828970000014091515949050606218_">
			<g filter="url(#Adobe_OpacityMaskFilter_00000035507007350538299280000017476833860163063681_)">
				
					<path id="prefix__i_00000139288211377366419990000013234467192072606600_" fill-rule="evenodd" clip-rule="evenodd" fill="#FFFFFF" d="
					M5.8,0C2.9,0.1,0.5,2.5,0.6,5.5s2.5,5.3,5.4,5.3c2.9-0.1,5.3-2.5,5.2-5.5C11.2,2.3,8.8,0,5.8,0L5.8,0"/>
			</g>
		</mask>
		
			<path mask="url(#prefix__j_00000070095647852341828970000014091515949050606218_)" fill-rule="evenodd" clip-rule="evenodd" fill="#FFAF12" d="
			M5.8,0C2.9,0.1,0.5,2.5,0.6,5.5s2.5,5.3,5.4,5.3c2.9-0.1,5.3-2.5,5.2-5.5C11.2,2.3,8.8,0,5.8,0L5.8,0"/>
	</g>
	<g transform="translate(0 2) translate(17.125 193.414)">
		<defs>
			
				<filter id="Adobe_OpacityMaskFilter_00000171690595749489091230000004582694747763799476_" filterUnits="userSpaceOnUse" x="0.4" y="0.7" width="5.9" height="6">
				<feColorMatrix  type="matrix" values="1 0 0 0 0  0 1 0 0 0  0 0 1 0 0  0 0 0 1 0"/>
			</filter>
		</defs>
		
			<mask maskUnits="userSpaceOnUse" x="0.4" y="0.7" width="5.9" height="6" id="prefix__m_00000136385178301651937910000008963446458926036905_">
			<g filter="url(#Adobe_OpacityMaskFilter_00000171690595749489091230000004582694747763799476_)">
				
					<path id="prefix__k_00000148642397803305231360000000669074025718291593_" fill-rule="evenodd" clip-rule="evenodd" fill="#FFFFFF" d="
					M3.3,0.7c-1.6,0-2.9,1.4-2.9,3c0,1.7,1.4,3,3,2.9c1.6,0,2.9-1.4,2.9-3C6.3,2,5,0.7,3.3,0.7L3.3,0.7"/>
			</g>
		</mask>
		
			<linearGradient id="SVGID_00000027592316276890665790000005187084498044665260_" gradientUnits="userSpaceOnUse" x1="101.9774" y1="97.4246" x2="100.9774" y2="97.4246" gradientTransform="matrix(5.942 0 0 -5.9865 -599.6035 586.935)">
			<stop  offset="0" style="stop-color:#FFB218"/>
			<stop  offset="1" style="stop-color:#FFCF44"/>
		</linearGradient>
		
			<path mask="url(#prefix__m_00000136385178301651937910000008963446458926036905_)" fill-rule="evenodd" clip-rule="evenodd" fill="url(#SVGID_00000027592316276890665790000005187084498044665260_)" d="
			M3.3,0.7c-1.6,0-2.9,1.4-2.9,3c0,1.7,1.4,3,3,2.9c1.6,0,2.9-1.4,2.9-3C6.3,2,5,0.7,3.3,0.7L3.3,0.7"/>
	</g>
	<g transform="translate(0 2) translate(284.077 147.076)">
		<defs>
			
				<filter id="Adobe_OpacityMaskFilter_00000022532982938545999720000005116332762420266655_" filterUnits="userSpaceOnUse" x="0.4" y="0.7" width="78.7" height="111.2">
				<feColorMatrix  type="matrix" values="1 0 0 0 0  0 1 0 0 0  0 0 1 0 0  0 0 0 1 0"/>
			</filter>
		</defs>
		
			<mask maskUnits="userSpaceOnUse" x="0.4" y="0.7" width="78.7" height="111.2" id="prefix__p_00000031913657716847157440000007431105990772993191_">
			<g filter="url(#Adobe_OpacityMaskFilter_00000022532982938545999720000005116332762420266655_)">
				
					<path id="prefix__n_00000005236001670260355140000005411226173577209994_" fill-rule="evenodd" clip-rule="evenodd" fill="#FFFFFF" d="
					M56.4,2.4c-1.8,1.8-3.1,4.8-4.1,7.1c-0.5,1.1-1.4,5.4-2.3,7.2c-2.5,1.4-4.9,3-7.3,4.6c0.7-1.1,1.2-2.4,1.7-3.5
					c1.1-2.5,2.9-4.6,4.3-7c0.6-1.1,3.2-5.4,1.8-6.6c-1.2-1-3.5,1.1-4.1,2c-1.5,2.1-2.3,5.2-3,7.7c-0.3,1.2-0.6,6.1-1.2,7.8
					c-0.9,0.7-1.9,1.4-2.8,2.1C35.7,27,32.2,30.3,29,34c0-0.8,0-1.6,0-2.4c0.1-2.8,0.9-5.4,1.3-8.2c0.2-1.2,0.8-6.2-0.9-6.8
					c-1.5-0.5-2.7,2.4-3,3.4c-0.6,2.5-0.1,5.7,0.2,8.3c0.1,1,1.3,4.2,1.7,6.4c-3.1,3.6-5.8,7.4-8.3,11.4c0.1-0.9,0.2-1.9,0.3-2.7
					c0.4-2.1,0.8-4.3,1.3-6.4c0.9-3.3,2.1-6.5,3.9-9.4c0.9-1.5-0.7-3.2-2.3-2.5l-0.2,0.1c-2.5,1.4-3.3,4.4-3.9,7.2
					c-0.4,2.1-2.8,13.5-0.7,16.3c-2.6,4.7-4.8,9.6-6.6,14.7c0.1-2.7,0.9-5.3,1.2-7.9c0.2-1.2,0.8-6.2-0.9-6.8
					c-1.5-0.5-2.7,2.4-3,3.4c-0.6,2.5-0.1,5.7,0.3,8.3c0.1,0.9,1,3.6,1.6,5.7c-1.3,4.1-2.3,8.3-3.1,12.5c-0.1-0.5-0.3-1-0.4-1.6
					c-0.6-2.7-0.5-5.5-0.8-8.2c-0.1-1.2-0.8-6.3-2.6-6.3c-1.6-0.1-2.1,3-2,4.1c0,2.6,1.4,5.6,2.3,8c0.4,1,2.3,3.8,3.3,5.8
					c-0.5,3.2-0.9,6.5-1.1,9.8c-0.6-2.4-0.8-4.8-1.3-7.3C5,81.6,4,76.6,2.1,76.7c-1.6,0.1-1.8,3.1-1.7,4.2c0.3,2.6,1.8,5.5,2.9,7.8
					c0.4,0.8,1.8,2.6,3,4.3c-0.2,6.2-5.1,12.8-4.2,18.9c-0.2-5.4,5.1-11.3,5.5-16.7c0.1,0.3,0.2,0.6,0.2,0.8c0.1-0.6,0-1.2-0.1-1.8
					c0.4-4.9,1.2-9.8,2.2-14.6c0.2-1,0.4-1.9,0.7-2.9c2-1.2,7.1-2.7,8.3-3.4c2.6-1.5,6-3.2,8-5.5c0.8-1,2.6-4.1,1.1-5.2
					c-1.7-1.3-6,2.8-7,3.8c-2.3,2.2-4.3,4.9-6.8,6.8c-1.2,0.9-2.5,1.7-3.5,2.8c1.1-4.3,2.4-8.5,4-12.7c1.9-1.2,7.2-2.7,8.5-3.4
					c2.6-1.5,6-3.2,8-5.5c0.8-1,2.6-4.1,1.1-5.2c-1.7-1.3-6,2.8-7,3.8c-2.3,2.2-4.3,4.9-6.8,6.8c-1.2,0.9-2.4,1.7-3.4,2.7
					c1.7-4.4,3.7-8.6,6-12.7c1.6-2.8,3.3-5.5,5.2-8.1c2.5-0.3,6.1-0.5,7.2-0.7c2.9-0.7,6.7-1.5,9.2-3.2c1-0.7,3.6-3.2,2.5-4.7
					c-1.3-1.7-6.5,1.1-7.8,1.8c-2.8,1.6-5.4,3.6-8.4,4.8c-0.5,0.2-1.1,0.4-1.6,0.6c2.6-3.5,5.4-6.8,8.4-9.9c1.1,0,2.2-0.1,3.3-0.2
					c2.8-0.2,5.5,0.4,8.3,0.5c1.3,0.1,6.3,0.2,6.7-1.5c0.3-1.5-2.7-2.5-3.8-2.7c-2.6-0.4-5.8,0.4-8.3,1c-0.9,0.2-3.4,1.3-5.4,2
					c1.4-1.4,2.9-2.8,4.5-4.2c2.5-2.1,5-4.1,7.7-5.9c1.3,0.2,2.7,0,4.1-0.1c2.8-0.2,5.5,0.4,8.3,0.5c1.3,0.1,6.3,0.2,6.7-1.5
					c0.3-1.5-2.7-2.5-3.8-2.7c-2.6-0.4-5.8,0.4-8.3,1c-1.1,0.2-4.2,1.7-6.3,2.3c3.6-2.4,7.3-4.6,11.3-6.5c1.2,0,2.4-0.2,3.5-0.2
					c2.8-0.2,5.6,0.3,8.3,0.4c1.3,0,6.4,0.1,6.6-1.7c0.3-1.6-2.7-2.4-3.8-2.6c-2.6-0.3-5.7,0.5-8.2,1.1c-0.3,0.1-0.9,0.3-1.5,0.5
					c-2.2,0.6-4.3,1.4-6.4,2.2c0,0-0.1,0-0.1,0c0,0,0.1,0,0.1,0c-2.8,1.1-5.6,2.4-8.3,3.9c0.7-0.8,1.2-1.8,1.8-2.8
					c1.5-2.3,3.6-4.1,5.4-6.3c0.8-1,4-4.9,2.8-6.2c-0.3-0.3-0.6-0.4-1-0.4C58.6,0.7,57,1.8,56.4,2.4"/>
			</g>
		</mask>
		
			<linearGradient id="SVGID_00000109030926171516247670000015359188821908117172_" gradientUnits="userSpaceOnUse" x1="-143.6143" y1="141.5688" x2="-143.168" y2="141.4996" gradientTransform="matrix(78.6885 0 0 -111.191 11322.2412 15795.3652)">
			<stop  offset="0" style="stop-color:#FFB218"/>
			<stop  offset="1" style="stop-color:#FFCF44"/>
		</linearGradient>
		
			<path mask="url(#prefix__p_00000031913657716847157440000007431105990772993191_)" fill-rule="evenodd" clip-rule="evenodd" fill="url(#SVGID_00000109030926171516247670000015359188821908117172_)" d="
			M56.4,2.4c-1.8,1.8-3.1,4.8-4.1,7.1c-0.5,1.1-1.4,5.4-2.3,7.2c-2.5,1.4-4.9,3-7.3,4.6c0.7-1.1,1.2-2.4,1.7-3.5
			c1.1-2.5,2.9-4.6,4.3-7c0.6-1.1,3.2-5.4,1.8-6.6c-1.2-1-3.5,1.1-4.1,2c-1.5,2.1-2.3,5.2-3,7.7c-0.3,1.2-0.6,6.1-1.2,7.8
			c-0.9,0.7-1.9,1.4-2.8,2.1C35.7,27,32.2,30.3,29,34c0-0.8,0-1.6,0-2.4c0.1-2.8,0.9-5.4,1.3-8.2c0.2-1.2,0.8-6.2-0.9-6.8
			c-1.5-0.5-2.7,2.4-3,3.4c-0.6,2.5-0.1,5.7,0.2,8.3c0.1,1,1.3,4.2,1.7,6.4c-3.1,3.6-5.8,7.4-8.3,11.4c0.1-0.9,0.2-1.9,0.3-2.7
			c0.4-2.1,0.8-4.3,1.3-6.4c0.9-3.3,2.1-6.5,3.9-9.4c0.9-1.5-0.7-3.2-2.3-2.5l-0.2,0.1c-2.5,1.4-3.3,4.4-3.9,7.2
			c-0.4,2.1-2.8,13.5-0.7,16.3c-2.6,4.7-4.8,9.6-6.6,14.7c0.1-2.7,0.9-5.3,1.2-7.9c0.2-1.2,0.8-6.2-0.9-6.8c-1.5-0.5-2.7,2.4-3,3.4
			c-0.6,2.5-0.1,5.7,0.3,8.3c0.1,0.9,1,3.6,1.6,5.7c-1.3,4.1-2.3,8.3-3.1,12.5c-0.1-0.5-0.3-1-0.4-1.6c-0.6-2.7-0.5-5.5-0.8-8.2
			c-0.1-1.2-0.8-6.3-2.6-6.3c-1.6-0.1-2.1,3-2,4.1c0,2.6,1.4,5.6,2.3,8c0.4,1,2.3,3.8,3.3,5.8c-0.5,3.2-0.9,6.5-1.1,9.8
			c-0.6-2.4-0.8-4.8-1.3-7.3C5,81.6,4,76.6,2.1,76.7c-1.6,0.1-1.8,3.1-1.7,4.2c0.3,2.6,1.8,5.5,2.9,7.8c0.4,0.8,1.8,2.6,3,4.3
			c-0.2,6.2-5.1,12.8-4.2,18.9c-0.2-5.4,5.1-11.3,5.5-16.7c0.1,0.3,0.2,0.6,0.2,0.8c0.1-0.6,0-1.2-0.1-1.8c0.4-4.9,1.2-9.8,2.2-14.6
			c0.2-1,0.4-1.9,0.7-2.9c2-1.2,7.1-2.7,8.3-3.4c2.6-1.5,6-3.2,8-5.5c0.8-1,2.6-4.1,1.1-5.2c-1.7-1.3-6,2.8-7,3.8
			c-2.3,2.2-4.3,4.9-6.8,6.8c-1.2,0.9-2.5,1.7-3.5,2.8c1.1-4.3,2.4-8.5,4-12.7c1.9-1.2,7.2-2.7,8.5-3.4c2.6-1.5,6-3.2,8-5.5
			c0.8-1,2.6-4.1,1.1-5.2c-1.7-1.3-6,2.8-7,3.8c-2.3,2.2-4.3,4.9-6.8,6.8c-1.2,0.9-2.4,1.7-3.4,2.7c1.7-4.4,3.7-8.6,6-12.7
			c1.6-2.8,3.3-5.5,5.2-8.1c2.5-0.3,6.1-0.5,7.2-0.7c2.9-0.7,6.7-1.5,9.2-3.2c1-0.7,3.6-3.2,2.5-4.7c-1.3-1.7-6.5,1.1-7.8,1.8
			c-2.8,1.6-5.4,3.6-8.4,4.8c-0.5,0.2-1.1,0.4-1.6,0.6c2.6-3.5,5.4-6.8,8.4-9.9c1.1,0,2.2-0.1,3.3-0.2c2.8-0.2,5.5,0.4,8.3,0.5
			c1.3,0.1,6.3,0.2,6.7-1.5c0.3-1.5-2.7-2.5-3.8-2.7c-2.6-0.4-5.8,0.4-8.3,1c-0.9,0.2-3.4,1.3-5.4,2c1.4-1.4,2.9-2.8,4.5-4.2
			c2.5-2.1,5-4.1,7.7-5.9c1.3,0.2,2.7,0,4.1-0.1c2.8-0.2,5.5,0.4,8.3,0.5c1.3,0.1,6.3,0.2,6.7-1.5c0.3-1.5-2.7-2.5-3.8-2.7
			c-2.6-0.4-5.8,0.4-8.3,1c-1.1,0.2-4.2,1.7-6.3,2.3c3.6-2.4,7.3-4.6,11.3-6.5c1.2,0,2.4-0.2,3.5-0.2c2.8-0.2,5.6,0.3,8.3,0.4
			c1.3,0,6.4,0.1,6.6-1.7c0.3-1.6-2.7-2.4-3.8-2.6c-2.6-0.3-5.7,0.5-8.2,1.1c-0.3,0.1-0.9,0.3-1.5,0.5c-2.2,0.6-4.3,1.4-6.4,2.2
			c0,0-0.1,0-0.1,0c0,0,0.1,0,0.1,0c-2.8,1.1-5.6,2.4-8.3,3.9c0.7-0.8,1.2-1.8,1.8-2.8c1.5-2.3,3.6-4.1,5.4-6.3c0.8-1,4-4.9,2.8-6.2
			c-0.3-0.3-0.6-0.4-1-0.4C58.6,0.7,57,1.8,56.4,2.4"/>
	</g>
	<g>
		<path fill-rule="evenodd" clip-rule="evenodd" fill="#F7E8C8" d="M490.2,290.3c-0.1,7.8-106.6,13.3-238.1,12.3
			c-57-0.5-109.4-2.1-150.4-4.4c-33.3-3.2-45.9-3.2-62.3-5.1c-3.9-0.4,3.3,0.4,0,0c-16.1-2-25.2-4.3-25.2-6.6
			c0.1-7.8,106.6-13.3,238-12.3C383.8,275.3,490.3,282.5,490.2,290.3"/>
		<path fill-rule="evenodd" clip-rule="evenodd" fill="#704D3E" d="M240.1,69.6c0,0,0.8,4.3,0.8,5.3c0,1.1,0.5,4,0.5,4
			s1.2-3.3,1.3-3.5c0.1-0.2,1.4-5.5,1.4-5.9c0-0.4,0.9-0.5-0.3-0.5C242.5,69.1,240.1,69.6,240.1,69.6"/>
		<path fill-rule="evenodd" clip-rule="evenodd" fill="#FFBD9E" d="M244,67.9c-3.8,4.2-3,17.4-1.9,23c0.4,2.1,5.1,8.3,8,8.5
			c4.5,0.3,12.3-4,13.8-7c0.7-1.5,4.1-16,2.1-20.6c-2-4.6-12.5-8-16.9-7.2C245.1,65.4,246,65.7,244,67.9"/>
		<path fill-rule="evenodd" clip-rule="evenodd" fill="#F7A37C" d="M259.2,95c-2.6,1.8-5.2,3.5-8.3,4.4c-0.5,0.1-0.2,0.9,0.3,0.7
			c3.1-0.9,5.8-2.7,8.4-4.5C260.1,95.3,259.6,94.7,259.2,95"/>
		<path fill-rule="evenodd" clip-rule="evenodd" fill="#FFF1ED" d="M251,103.5c0,0-13,5.4-15.9,7.9c-2.9,2.5-1.5,19.3,0,28.6
			c1.5,9.3,2.7,13.8,2.8,18.5c0.1,4.7-1.9,7.2,1.3,8.2s4.2,1.4,15,2.1c10.8,0.7,14.2-0.4,17.4,0c3.3,0.4,5.3-1.5,5.4-4.2
			c0.1-2.7,7.5-42.6,7-47.6c-0.5-5-4.3-6.7-8.7-9.2c-4.3-2.5-10.4-4.3-10.4-4.3s-3.6,3.9-7,4C254.6,107.6,251,103.5,251,103.5"/>
		<path fill-rule="evenodd" clip-rule="evenodd" fill="#F7A37C" d="M259.2,95c-2.6,1.8-5.2,3.5-8.3,4.4c-0.5,0.1-0.2,0.9,0.3,0.7
			c3.1-0.9,5.8-2.7,8.4-4.5C260.1,95.3,259.6,94.7,259.2,95"/>
		<path fill-rule="evenodd" clip-rule="evenodd" fill="#FFF1ED" d="M251,103.5c0,0-13,5.4-15.9,7.9c-2.9,2.5-1.5,19.3,0,28.6
			c1.5,9.3,2.7,13.8,2.8,18.5c0.1,4.7-1.9,7.2,1.3,8.2s4.2,1.4,15,2.1c10.8,0.7,14.2-0.4,17.4,0c3.3,0.4,5.3-1.5,5.4-4.2
			c0.1-2.7,7.5-42.6,7-47.6c-0.5-5-4.3-6.7-8.7-9.2c-4.3-2.5-10.4-4.3-10.4-4.3s-3.6,3.9-7,4C254.6,107.6,251,103.5,251,103.5"/>
		<path fill-rule="evenodd" clip-rule="evenodd" fill="#F7A37C" d="M259.2,95c-2.6,1.8-5.2,3.5-8.3,4.4c-0.5,0.1-0.2,0.9,0.3,0.7
			c3.1-0.9,5.8-2.7,8.4-4.5C260.1,95.3,259.6,94.7,259.2,95"/>
		<path fill-rule="evenodd" clip-rule="evenodd" fill="#FFF1ED" d="M251,103.5c0,0-13,5.4-15.9,7.9c-2.9,2.5-1.5,19.3,0,28.6
			c1.5,9.3,2.7,13.8,2.8,18.5c0.1,4.7-1.9,7.2,1.3,8.2s4.2,1.4,15,2.1c10.8,0.7,14.2-0.4,17.4,0c3.3,0.4,5.3-1.5,5.4-4.2
			c0.1-2.7,7.5-42.6,7-47.6c-0.5-5-4.3-6.7-8.7-9.2c-4.3-2.5-10.4-4.3-10.4-4.3s-3.6,3.9-7,4C254.6,107.6,251,103.5,251,103.5"/>
		<path fill-rule="evenodd" clip-rule="evenodd" fill="#7D6D6C" d="M271.7,110.3c0.7-0.4,18.7-0.2,21.3,4.2c2.6,4.4,0.9,32.5,0,41.4
			c-0.9,9-1.6,16.4-1.6,16.4l-50.6-1.2l-13.1-3.1l6.6-53.5C234.3,114.5,271.7,110.3,271.7,110.3z"/>
		<path fill-rule="evenodd" clip-rule="evenodd" fill="#FFBD9E" d="M249.6,96l2.1,11.1l4.1,7.3l9.7-4.2l-1.4-20.5c0,0-6,2.5-7.1,3
			C255.9,93.1,249.6,96,249.6,96"/>
		<path fill-rule="evenodd" clip-rule="evenodd" fill="#F7A37C" d="M259.2,95c-2.6,1.8-5.2,3.5-8.3,4.4c-0.5,0.1-0.2,0.9,0.3,0.7
			c3.1-0.9,5.8-2.7,8.4-4.5C260.1,95.3,259.6,94.7,259.2,95"/>
		<path fill-rule="evenodd" clip-rule="evenodd" fill="#FFF1ED" d="M251,103.5c0,0-13,5.4-15.9,7.9c-2.9,2.5-1.5,19.3,0,28.6
			c1.5,9.3,2.7,13.8,2.8,18.5c0.1,4.7-1.9,7.2,1.3,8.2s4.2,1.4,15,2.1c10.8,0.7,14.2-0.4,17.4,0c3.3,0.4,5.3-1.5,5.4-4.2
			c0.1-2.7,7.5-42.6,7-47.6c-0.5-5-4.3-6.7-8.7-9.2c-4.3-2.5-10.4-4.3-10.4-4.3l-7.2,6.9c-1,1-2.7,0.7-3.4-0.5L251,103.5L251,103.5z
			"/>
		<path fill-rule="evenodd" clip-rule="evenodd" fill="#FFF1ED" d="M281.1,111.4c0,0,5.1,3.5,7.2,8.3c2.1,4.8,1.3,31.8,0.9,36.7
			c-0.8,10.2-23.2,7.7-23.2,7.7l3.1-45.7C269.1,118.4,281.1,111.4,281.1,111.4z M235.1,111.4c0,0-2.9,1.3-5.4,8.1
			c-2.4,6.6-6.4,27.1-8.9,32.1l-22.2,6.7c0,0,6.1,7.3,7,7.9c0.9,0.6,21,2,22.1,2c1.1,0,9.8-5.4,12.3-29.7
			C242.5,114.2,235.1,111.4,235.1,111.4"/>
		<path fill-rule="evenodd" clip-rule="evenodd" fill="#F5D7D1" d="M255,111.9c-0.6,0.9-1.3,1.7-2,2.5c-0.2,0.2-0.3,0.4-0.5,0.5
			c-0.8,0.5-1.3,0.7-2.2-0.5c-0.3-0.2-0.4-1.2-0.5-1.5c-0.8-2.3-1.3-4.7-0.9-7.1c0.1-0.4-0.6-0.6-0.7-0.2c-0.3,1.8-0.1,3.5,0.3,5.3
			c0.3,1.4,0.7,3.7,1.7,4.8c2,2.1,4.5-2.1,5.4-3.4C255.8,111.9,255.2,111.6,255,111.9 M267.3,106.9c-1.3,2.4-2.4,5.3-4.3,7.3
			c-0.9,1-2.8,3.3-3.9,1.4c-0.7-1.2-1.1-2.8-1.5-4.1c-0.1-0.4-0.8-0.3-0.7,0.2c0.4,1.4,1.6,7,4.2,5.4c3.4-2.2,5-6.4,6.8-9.8
			C268.1,106.8,267.5,106.5,267.3,106.9"/>
		<path fill-rule="evenodd" clip-rule="evenodd" fill="#57575E" d="M239.6,67.4c-1.2,1.2,0.6,4.8,2.3,5.2c2.1,0.5,4.6,0.7,6.9,0.8
			c4.6,0.1,9-0.7,10-0.6c1,0.1,1.5,5,1.5,6.7c0,1.7,1.3,0.5,2.7,1.5c1.4,1.1,1.1,10.4,1.1,10.4s1.4-2.2,2.1-5.6
			c1-5.2,1.6-10,1.7-13.5c0.3-8.4-5.8-10.6-11.5-10.2c-5.5,0.3-8.8-0.4-12.5,1.3C243,63.9,241,66,239.6,67.4"/>
		<path fill-rule="evenodd" clip-rule="evenodd" fill="#DB5449" d="M256.1,118.4h-0.8c-0.9,0-1.6-0.8-1.5-1.7l0.2-1.3
			c0.1-0.7,0.7-1.3,1.5-1.3h0.4c0.7,0,1.4,0.5,1.5,1.3l0.2,1.3C257.8,117.6,257.1,118.4,256.1,118.4"/>
		<path fill-rule="evenodd" clip-rule="evenodd" fill="#DB5449" d="M254.7,117.3c0,0-3.1,24.7-3.5,28.4c-0.4,3.7,2.4,11.1,3.5,11.7
			c1.1,0.6,3.1-5,3.8-9.4c0.7-4.4-1.8-30.2-1.8-30.2L254.7,117.3z"/>
		<path fill-rule="evenodd" clip-rule="evenodd" fill="#FFBD9E" d="M203.8,159c-1.4-1-5.1-1.5-7.7-0.8c-3.5,1-4.6,3.8-4.8,4.2
			c-0.2,0.4,12,1.5,12,1.5h3.4C206.7,163.9,205.8,160.3,203.8,159 M251.7,159.1c-1.4-1-5.3-1.4-7.9-0.7c-3.5,1-5.2,5-5.4,5.4
			c-0.2,0.4,13.3,0.1,13.3,0.1h3.4C255.1,163.9,253.7,160.5,251.7,159.1"/>
		<path fill-rule="evenodd" clip-rule="evenodd" fill="#7D6D6C" d="M209.4,165.7h-37.5V162h34.6c1.6,0,2.9,1.3,2.9,2.9L209.4,165.7
			L209.4,165.7z"/>
		<path fill-rule="evenodd" clip-rule="evenodd" fill="#57575E" d="M218.4,151.7H161c-3.7,0-6.7-3-6.7-6.7v-24.4
			c0-3.7,3-6.7,6.7-6.7h57.4c3.7,0,6.7,3,6.7,6.7V145C225,148.7,222,151.7,218.4,151.7"/>
		<path fill-rule="evenodd" clip-rule="evenodd" fill="#7D6D6C" d="M185.4,163.9h8.6v-19.2h-8.6V163.9z"/>
		<path fill-rule="evenodd" clip-rule="evenodd" fill="#A29C8F" d="M191.4,127.1c0,1-0.8,1.7-1.7,1.7c-1,0-1.7-0.8-1.7-1.7
			c0-1,0.8-1.7,1.7-1.7C190.6,125.4,191.4,126.2,191.4,127.1"/>
		<path fill-rule="evenodd" clip-rule="evenodd" fill="#F5D7D1" d="M282.2,116.7c-5.4,2.5-6.7,8.6-7.5,13.9c-1,6.6-2.3,13.3-2.2,20
			c0,0.5,0.7,0.5,0.7,0c-0.1-6.2,1.1-12.4,2-18.6c0.8-5.5,1.7-12.2,7.4-14.8C283,117.1,282.6,116.5,282.2,116.7 M271.8,151.1
			c-3.1,1.6-6.1,3.3-9.2,4.8c-2.7,1.3-5.8,1.5-8.5,3.1c-0.4,0.2,0,0.8,0.4,0.6c1.3-0.8,2.7-1.2,4.2-1.6c0,0.1,0,0.2,0,0.2
			c0.9,1.5,1.4,3.1,1.7,4.9c0.1,0.4,0.7,0.3,0.7-0.2c-0.3-1.8-0.8-3.5-1.7-5c0,0,0,0-0.1-0.1c1.3-0.4,2.5-0.7,3.7-1.3
			c3.1-1.5,6.2-3.2,9.2-4.8C272.5,151.5,272.2,150.9,271.8,151.1 M284.9,153c-2.1-0.5-4-1.5-6.2-1.8c-2-0.3-3.9-0.2-5.9,0.1
			c-0.4,0.1-0.3,0.8,0.2,0.7c2.3-0.4,4.5-0.4,6.8,0.1c1.7,0.4,3.2,1.2,4.9,1.6C285.2,153.7,285.4,153.1,284.9,153 M236.9,111.4
			c-1.3,6-1.3,12.1-1.2,18.2c0.1,6.6,0.3,13.2,0.5,19.8c0,0.5,0.7,0.5,0.7,0c-0.2-6.4-0.3-12.8-0.5-19.1c-0.1-6.3-0.1-12.5,1.2-18.7
			C237.7,111.2,237,111,236.9,111.4 M228,156.4c-1.7-1.9-3.8-3.3-6.2-4.1c-0.4-0.1-0.6,0.5-0.2,0.7c2.3,0.8,4.3,2.1,5.9,3.9
			C227.8,157.3,228.3,156.8,228,156.4"/>
		<path fill-rule="evenodd" clip-rule="evenodd" fill="#A29C8F" d="M194.5,289.9h-5.2v-119h12.3L194.5,289.9z"/>
		<path fill-rule="evenodd" clip-rule="evenodd" fill="#7F786A" d="M196.3,289.9h-1.8l7.1-119.5h1.8L196.3,289.9z"/>
		<path fill-rule="evenodd" clip-rule="evenodd" fill="#A29C8F" d="M175.1,289.9h-5.2v-119h12.3L175.1,289.9z"/>
		<path fill-rule="evenodd" clip-rule="evenodd" fill="#7F786A" d="M176.9,289.9h-1.8l7.1-119.5h1.8L176.9,289.9z"/>
		<path fill-rule="evenodd" clip-rule="evenodd" fill="#7F786A" d="M196.7,275.7h-48.3V171.4l55.3,0.5L196.7,275.7z"/>
		<path fill-rule="evenodd" clip-rule="evenodd" fill="#A29C8F" d="M127.8,289.9h-5.2l-7.1-119.5h12.3V289.9z"/>
		<path fill-rule="evenodd" clip-rule="evenodd" fill="#7F786A" d="M127.8,289.9h1.8V170.4h-1.8V289.9z"/>
		<path fill-rule="evenodd" clip-rule="evenodd" fill="#A29C8F" d="M176,275.7h-48.3V171.4l53.3,0.5L176,275.7z"/>
		<path fill-rule="evenodd" clip-rule="evenodd" fill="#A29C8F" d="M293.4,289.9H176.9l-1.8-119.5h118.3V289.9z"/>
		<path fill-rule="evenodd" clip-rule="evenodd" fill="#57575E" d="M293.4,289.9h1.8V170.4h-1.8V289.9z"/>
		<path fill-rule="evenodd" clip-rule="evenodd" fill="#A29C8F" d="M329.8,289.9h-5.2v-119h12.3L329.8,289.9z"/>
		<path fill-rule="evenodd" clip-rule="evenodd" fill="#57575E" d="M331.6,289.9h-1.8l7.1-119.5h1.8L331.6,289.9z"/>
		<path fill-rule="evenodd" clip-rule="evenodd" fill="#57575E" d="M293.4,289.9h37.3V283h-37.3V289.9z M344.8,173H156.3v-8.6h195.4
			L344.8,173z"/>
		<path fill-rule="evenodd" clip-rule="evenodd" fill="#57575E" d="M299.5,173H108.7l-4.7-8.6h201.4L299.5,173z"/>
		<path fill-rule="evenodd" clip-rule="evenodd" fill="#FFBD9E" d="M215.1,270.5l0.2,10.4l7.9-0.2l0.7-10.4L215.1,270.5z"/>
		<path fill-rule="evenodd" clip-rule="evenodd" fill="#7F786A" d="M215.3,279.2c0,0-1.1,2.8-1.1,5.5c0,2.1,0.2,4.4,0.7,4.9
			c0.5,0.5,19,0.2,19.6,0.1c0.6-0.1,1.1-4.4-1.6-6c-2.8-1.6-7.8-2.2-8.4-2.6c-0.6-0.3-1.2-1.2-1.2-1.2L215.3,279.2L215.3,279.2z"/>
		<path fill-rule="evenodd" clip-rule="evenodd" fill="#FFBD9E" d="M215.3,279.2c0,0,1.7,2.4,3.9,2.7c2.2,0.3,4.1-1.9,4.1-1.9
			l-2.2-1.3l-2.5,0.1C217.9,278.8,215.3,279.2,215.3,279.2 M182,270.4l0.1,10.4l7.9-0.1l0.7-10.4L182,270.4z"/>
		<path fill-rule="evenodd" clip-rule="evenodd" fill="#7F786A" d="M182.2,279.1c0,0-1.2,2.8-1.1,5.5c0,2.1,0.1,4.4,0.7,4.9
			c0.5,0.5,18.9,0.3,19.6,0.2c0.6-0.1,1.2-4.4-1.6-6.1c-2.7-1.6-7.7-2.3-8.4-2.6c-0.6-0.3-1.2-1.2-1.2-1.2L182.2,279.1L182.2,279.1z
			"/>
		<path fill-rule="evenodd" clip-rule="evenodd" fill="#FFBD9E" d="M182.2,279.1c0,0,1.7,2.4,3.9,2.7c2.2,0.4,4.1-1.9,4.1-1.9
			l-2.2-1.3c0,0-1.9,0-2.5,0C184.8,278.8,182.2,279.1,182.2,279.1 M195.9,143.6l1.8-2.3c0,0,0.3-5,0.5-6.5c0.3-1.5,1.9-6.3,3.1-6.4
			c1.2-0.1-0.2,4.9,0.4,5.5c0.6,0.6,6.6-3.1,8.1-4.7c1.6-1.5,4.4-2.2,5.1-1.7c0.7,0.5,0.1,6.9-0.4,8.4c-0.5,1.5-4.3,5-5.6,5.8
			c-2.6,1.5-5.5,2.8-6.3,3.4c-0.8,0.6-1.4,2-1.4,2L195.9,143.6L195.9,143.6z"/>
		<path fill-rule="evenodd" clip-rule="evenodd" fill="#FFF1ED" d="M192,145.2c0,0,2-3.8,3.8-4.3c1.8-0.5,4.9,1.1,6.9,3
			c2,1.8,2.1,3.3,1.5,4.4s-2.1,3.1-2.1,3.1L192,145.2z"/>
		<path fill-rule="evenodd" clip-rule="evenodd" fill="#FFBD9E" d="M134.2,112.3l-1,15.9h-15l2-17.9L134.2,112.3z"/>
		<path fill-rule="evenodd" clip-rule="evenodd" fill="#FFBD9E" d="M141.6,100.6c0,6.2-0.9,12.8-2.6,13.6c-1.8,0.7-9.4-0.7-9.4-0.7
			V84.8c0,0,7.5-0.6,9.4,0C140.9,85.3,141.6,92.5,141.6,100.6"/>
		<path fill-rule="evenodd" clip-rule="evenodd" fill="#57575E" d="M139.7,85c0,0,2.2-0.4,2.8-2.3c0.6-1.9-0.5-7.3-6.1-7.9
			c-5.6-0.6-7.2,1.5-10.4,1.5s-6.1-2.2-10.3,0.8c-3.1,2.2-5.1,5-4.9,8.5c0.3,4.3-1,5.8-0.4,9.9c0.7,4.1,3.5,7.6,5.4,12.3
			c2,4.9,4.3,9,6.5,9c2.6,0,4.4-0.4,6.5-2.4c2.1-1.9,8-8.3,7.2-12.5c-0.7-4.2-0.9-9.5,2.3-11.7C141.5,87.9,139.7,85,139.7,85"/>
		<path fill-rule="evenodd" clip-rule="evenodd" fill="#FFF1ED" d="M113.3,124.3c0,0,3.7-5.2,11.7-5.2c8,0,12.6,6,12.6,6
			S113.3,124.3,113.3,124.3z"/>
		<path fill-rule="evenodd" clip-rule="evenodd" fill="#7F786A" d="M95.2,148.2c0,0-1.4-15.1,3.3-20.2s20.4-6.3,29.3-5.4
			c9,0.8,19.8,2.9,24.4,7c4.6,4,5,42.9,5,42.9s-18.1,5.9-26.3,5c-8.3-0.9-27-1.9-30.2-5c-3.2-3.1-5-12.3-5.6-13.5
			C94.3,157.7,95.2,148.2,95.2,148.2"/>
		<path fill-rule="evenodd" clip-rule="evenodd" fill="#7F786A" d="M98.6,128c0,0-3.7,2-5.2,6.3c-1.5,4.3-2,11.2-2,11.2l3.8,3.5
			c0,0,2.1-3,3.4-7.2c1.3-4.2,2.9-9.9,2.6-10.9C100.9,130,98.6,128,98.6,128 M148.8,127.4c0,0,7,1.8,11.7,12.8
			c4.7,11,12,18.4,13,18.3c2.6-0.2,16.2-14.7,18-16.2c1.9-1.5,14.4,7.4,13.2,9c-5.2,7.1-8,9.8-12.8,15.2c-3.9,4.4-12.5,10.4-16.5,12
			c-4,1.5-8.8,1.4-15-5.4c-6.2-6.8-12-12.2-11.5-12.6c0.5-0.4-9.5-25.6-9.5-25.6S148.8,127.4,148.8,127.4z"/>
		<path fill-rule="evenodd" clip-rule="evenodd" fill="#7F786A" d="M160.4,169.6c0,0,12.2,25.3,14.1,31.6c2,6.2-1.9,15.1-2.4,15.9
			c-0.5,0.7-7.6,4.9-10.8,1.9c-3.3-3.1-19.1-15.1-19-24c0.1-8.9,5.1-31,5.1-31L160.4,169.6L160.4,169.6z"/>
		<path fill-rule="evenodd" clip-rule="evenodd" fill="#7F786A" d="M133.8,199c1.2-0.2,46.3,8.9,54.7,11.1
			c8.4,2.2,7.2,34.1,7.2,48.2c0,16.6-1.7,15.7-4.3,16.3c-2.7,0.6-11.6,1.7-13.1-1.8c-0.9-2-4.7-41.8-8-44.2
			c-3.3-2.5-32.2-3.9-33.6-4.2c-1.4-0.4-21.1-4-21.1-7.3c0-3.3,6-18.1,6-18.1L133.8,199L133.8,199z"/>
		<path fill-rule="evenodd" clip-rule="evenodd" fill="#7F786A" d="M167.2,195c1.2,1.8,41.7,4.9,51.8,10.4
			c7.6,4.2,8.8,36.3,9.3,52.9c0.5,13.6-0.9,16.1-4.9,16c-2.8-0.1-10.3,1.4-11.5-1.4c-0.9-2-4-41.9-7.3-44.4
			c-3.3-2.5-33.5-3.9-34.9-4.2c-1.4-0.4-21.1-4-21.1-7.3s6-20.1,6-20.1L167.2,195L167.2,195z"/>
		<path fill-rule="evenodd" clip-rule="evenodd" fill="#A29C8F" d="M150.3,128.5c-3.4,2.6-5.4,6.6-5.1,10.9c0,0.4,0.7,0.5,0.7,0
			c-0.2-4,1.5-7.9,4.8-10.3C151,128.8,150.6,128.2,150.3,128.5 M179.6,164.3c-1.5-2-3.1-3.8-5-5.5c-0.3-0.3-0.8,0.2-0.5,0.5
			c1.8,1.6,3.5,3.4,4.9,5.3C179.2,165,179.9,164.6,179.6,164.3 M175.4,202.7c-0.2,3.4-1.5,6.5-3.7,9.1c-0.3,0.3,0.2,0.8,0.5,0.5
			c2.4-2.7,3.7-6,3.9-9.6C176.2,202.3,175.5,202.3,175.4,202.7 M218.8,214.9c-0.6,0.8-1.3,1.5-2,2.1c-0.4,0.3-0.8,0.7-1.2,1
			c-0.2,0.2-0.4,0.3-0.7,0.5c-0.1,0.1-0.2,0.1-0.3,0.2c-0.1,0-0.1,0.1-0.1,0.1c-0.1-0.2-0.4-0.4-0.6-0.2c-0.2,0.2-0.3,0.6,0,0.8
			c0.4,0.4,1,0,1.3-0.3c1.5-1,2.9-2.2,4-3.6C219.5,215,219,214.5,218.8,214.9 M219,218.6c-0.7,0.8-1.7,1.3-2.8,1.4
			c-0.4,0-0.5,0.7,0,0.7c1.3-0.1,2.4-0.6,3.2-1.6C219.8,218.8,219.3,218.3,219,218.6 M98,129.7c-1.1,2.6-1.3,5.2-0.7,7.9
			c0.1,0.4,0.8,0.3,0.7-0.2c-0.6-2.6-0.3-5.1,0.7-7.6C98.9,129.5,98.2,129.3,98,129.7 M187.6,217h5.9V197h-5.9V217z"/>
		<path fill-rule="evenodd" clip-rule="evenodd" fill="#7F786A" d="M147.3,238.9l-16.7-9.7H164L147.3,238.9z"/>
		<path fill-rule="evenodd" clip-rule="evenodd" fill="#7F786A" d="M143.2,288h8.2v-59.5h-8.2V288z"/>
		<path fill-rule="evenodd" clip-rule="evenodd" fill="#A29C8F" d="M73.6,149.8c0,9.5,15,63.7,23,71.1c8.7,8,26.2,8.5,55,8.8
			c28.4,0.2,50.4-0.7,55.5-1.2c9.7-0.9,8-12.1,2.8-12.2c-4.3-0.1-32,0.7-39.5-3.1c-7.5-3.8-12.6-61.2-20.6-69.2
			C142.7,137,73.7,135.4,73.6,149.8"/>
		<path fill-rule="evenodd" clip-rule="evenodd" fill="#7F786A" d="M146.7,274.6L122.3,287c-1.4,0.7-0.9,2.7,0.7,2.7h48.7
			c1.5,0,2-2.1,0.7-2.8L148,274.6C147.6,274.4,147.1,274.4,146.7,274.6 M163.7,188.6c0.4,0,35.6-0.7,38.4,1
			c2.8,1.8,4.9,10.9-2.2,11.7c-7.1,0.7-28.2-0.5-35,0C159.6,201.7,158.6,188.3,163.7,188.6 M156.4,176.6c-1.6,3.3-5.6,3-8.7,3
			c-3.1,0-6.3,0-9.4,0.1c-6.3,0-12.6,0-18.9-0.1c-12.9-0.2-25.7-0.6-38.5-1.3c-0.5,0-0.5,0.7,0,0.7c13.8,0.7,27.6,1.2,41.3,1.3
			c6.7,0.1,13.3,0.1,20,0c3.3,0,6.8,0.3,10-0.2c2-0.3,3.9-1.3,4.8-3.2C157.2,176.5,156.6,176.2,156.4,176.6"/>
		<path fill-rule="evenodd" clip-rule="evenodd" fill="#7F786A" d="M147.1,161.9c-1.5-5.4-3.4-12.5-0.6-17.8
			c0.2-0.4-0.4-0.8-0.6-0.4c-2.6,5-1.3,11.4,0,16.6c1.6,6.1,3.9,11.9,5,18.1c0.1,0.4,0.8,0.3,0.7-0.2
			C150.6,172.6,148.6,167.3,147.1,161.9 M169.7,215.8c-0.7,1.3-2.4,4-4.1,3.9c-1.7-0.1-2.8-2.9-3.5-4.2c-1.7-3.5-3.2-7.2-4.5-10.9
			c-2.5-7.1-4.3-14.5-5.3-21.9c-0.1-0.4-0.7-0.3-0.7,0.2c1.3,9.2,3.6,18.2,7.1,26.8c1.4,3.4,2.7,7.6,5.4,10.2
			c1.1,1.1,1.7,1.1,2.9,0.2c1.4-1,2.5-2.4,3.3-3.9C170.5,215.8,169.9,215.4,169.7,215.8 M211.3,222.2c-7.5,0.8-15,0.8-22.5,0.8
			c-7.4,0-14.9-0.1-22.2-1.7c-0.4-0.1-0.6,0.6-0.2,0.7c7.1,1.6,14.4,1.8,21.7,1.7c7.7,0,15.5-0.1,23.2-0.8
			C211.7,222.9,211.8,222.2,211.3,222.2"/>
		<path fill-rule="evenodd" clip-rule="evenodd" fill="#FD9F00" d="M117.7,275.2v9.6c0,3.3-17.8,6-39.7,6c-21.9,0-39.7-2.7-39.7-6
			v-9.6H117.7L117.7,275.2z"/>
	</g>
	<g transform="translate(0 2) translate(37.273 271.989)">
		<defs>
			
				<filter id="Adobe_OpacityMaskFilter_00000102513751998455886010000010633639185102953652_" filterUnits="userSpaceOnUse" x="1.3" y="-3.3" width="78.5" height="22.3">
				<feColorMatrix  type="matrix" values="1 0 0 0 0  0 1 0 0 0  0 0 1 0 0  0 0 0 1 0"/>
			</filter>
		</defs>
		
			<mask maskUnits="userSpaceOnUse" x="1.3" y="-3.3" width="78.5" height="22.3" id="prefix__r_00000123436199229839610580000015679771654378287767_">
			<g filter="url(#Adobe_OpacityMaskFilter_00000102513751998455886010000010633639185102953652_)">
				
					<path id="prefix__q_00000057835874957007478040000003684999169939336583_" fill-rule="evenodd" clip-rule="evenodd" fill="#FFFFFF" d="
					M0.4,0.8v9.7c0,3.4,18,6.1,40.1,6.1s40.1-2.7,40.1-6.1V0.8L0.4,0.8L0.4,0.8z"/>
			</g>
		</mask>
		
			<path mask="url(#prefix__r_00000123436199229839610580000015679771654378287767_)" fill-rule="evenodd" clip-rule="evenodd" fill="#E38601" d="
			M77.9,19h1.9V-3.3h-1.9V19z M73,19h1.9V-3.3H73V19z M67.3,19h1.9V-3.3h-1.9V19z M60.3,19h1.9V-3.3h-1.9V19z M52.6,19h1.9V-3.3
			h-1.9V19z M44.2,19h1.9V-3.3h-1.9V19z M1.3,19h1.9V-3.3H1.3V19z M6.2,19h1.9V-3.3H6.2V19z M11.8,19h1.9V-3.3h-1.9V19z M18.9,19
			h1.9V-3.3h-1.9V19z M26.6,19h1.9V-3.3h-1.9V19z M35,19h1.9V-3.3H35V19z"/>
	</g>
	<g>
		<path fill-rule="evenodd" clip-rule="evenodd" fill="#FAC61B" d="M37.7,275.6c0,3.4,18,6.1,40.1,6.1s40.1-2.7,40.1-6.1
			c0-3.4-18-6.1-40.1-6.1S37.7,272.2,37.7,275.6"/>
		<path fill-rule="evenodd" clip-rule="evenodd" fill="#FD9F00" d="M45.9,274.9c0,1.6,14.3,2.8,31.9,2.8s31.9-1.3,31.9-2.8
			c0-1.6-14.3-2.8-31.9-2.8S45.9,273.4,45.9,274.9"/>
		<path fill-rule="evenodd" clip-rule="evenodd" fill="#E38601" d="M108.3,275.8c-4-1.2-16.1-2-30.5-2c-14.4,0-26.6,0.8-30.5,2
			c-0.9-0.3-1.4-0.5-1.4-0.8c0-1.6,14.3-2.8,31.9-2.8s31.9,1.3,31.9,2.8C109.7,275.2,109.2,275.5,108.3,275.8"/>
		<path fill-rule="evenodd" clip-rule="evenodd" fill="#FD9F00" d="M123.8,264.8v9.7c0,3.4-18,6.1-40.1,6.1s-40.1-2.7-40.1-6.1v-9.7
			H123.8z"/>
	</g>
	<g transform="translate(0 2) translate(43.317 261.915)">
		<defs>
			
				<filter id="Adobe_OpacityMaskFilter_00000048459065629537338780000014769337018334168982_" filterUnits="userSpaceOnUse" x="1" y="-3.2" width="78.5" height="22.3">
				<feColorMatrix  type="matrix" values="1 0 0 0 0  0 1 0 0 0  0 0 1 0 0  0 0 0 1 0"/>
			</filter>
		</defs>
		
			<mask maskUnits="userSpaceOnUse" x="1" y="-3.2" width="78.5" height="22.3" id="prefix__t_00000164486299430335974450000012998053399600163209_">
			<g filter="url(#Adobe_OpacityMaskFilter_00000048459065629537338780000014769337018334168982_)">
				
					<path id="prefix__s_00000069369447292767231460000002786044318220120465_" fill-rule="evenodd" clip-rule="evenodd" fill="#FFFFFF" d="
					M0.2,0.9v9.7c0,3.4,18,6.1,40.1,6.1c22.2,0,40.1-2.7,40.1-6.1V0.9H0.2z"/>
			</g>
		</mask>
		
			<path mask="url(#prefix__t_00000164486299430335974450000012998053399600163209_)" fill-rule="evenodd" clip-rule="evenodd" fill="#E38601" d="
			M77.7,19.1h1.9V-3.2h-1.9V19.1z M72.7,19.1h1.9V-3.2h-1.9V19.1z M67.1,19.1H69V-3.2h-1.9V19.1z M60.1,19.1H62V-3.2h-1.9V19.1z
			 M52.4,19.1h1.9V-3.2h-1.9V19.1z M44,19.1h1.9V-3.2H44V19.1z M1,19.1h1.9V-3.2H1V19.1z M6,19.1h1.9V-3.2H6V19.1z M11.6,19.1h1.9
			V-3.2h-1.9V19.1z M18.6,19.1h1.9V-3.2h-1.9V19.1z M26.3,19.1h1.9V-3.2h-1.9V19.1z M34.7,19.1h1.9V-3.2h-1.9V19.1z"/>
	</g>
	<g>
		<path fill-rule="evenodd" clip-rule="evenodd" fill="#FAC61B" d="M43.5,264.6c0,3.4,18,6.1,40.1,6.1s40.1-2.7,40.1-6.1
			s-18-6.1-40.1-6.1C61.5,258.5,43.5,261.2,43.5,264.6"/>
		<path fill-rule="evenodd" clip-rule="evenodd" fill="#FD9F00" d="M51.7,264c0,1.6,14.3,2.8,31.9,2.8s31.9-1.3,31.9-2.8
			c0-1.6-14.3-2.8-31.9-2.8S51.7,262.4,51.7,264"/>
		<path fill-rule="evenodd" clip-rule="evenodd" fill="#E38601" d="M114.2,264.8c-4-1.2-16.1-2-30.5-2s-26.6,0.8-30.5,2
			c-0.9-0.3-1.4-0.5-1.4-0.8c0-1.6,14.3-2.8,31.9-2.8s31.9,1.3,31.9,2.8C115.5,264.3,115,264.5,114.2,264.8"/>
		<path fill-rule="evenodd" clip-rule="evenodd" fill="#FD9F00" d="M117.2,253.8v9.7c0,3.4-18,6.1-40.1,6.1
			c-22.2,0-40.1-2.7-40.1-6.1v-9.7H117.2z"/>
	</g>
	<g transform="translate(0 2) translate(36.265 250.834)">
		<defs>
			
				<filter id="Adobe_OpacityMaskFilter_00000013903635961905193100000014683975891568356999_" filterUnits="userSpaceOnUse" x="1.6" y="-3.1" width="78.5" height="22.3">
				<feColorMatrix  type="matrix" values="1 0 0 0 0  0 1 0 0 0  0 0 1 0 0  0 0 0 1 0"/>
			</filter>
		</defs>
		
			<mask maskUnits="userSpaceOnUse" x="1.6" y="-3.1" width="78.5" height="22.3" id="prefix__v_00000137846983638238639200000000277324608951933603_">
			<g filter="url(#Adobe_OpacityMaskFilter_00000013903635961905193100000014683975891568356999_)">
				
					<path id="prefix__u_00000104673034120634102420000008682440554654786211_" fill-rule="evenodd" clip-rule="evenodd" fill="#FFFFFF" d="
					M0.7,0.9v9.7c0,3.4,18,6.1,40.1,6.1S81,14,81,10.6V0.9H0.7z"/>
			</g>
		</mask>
		
			<path mask="url(#prefix__v_00000137846983638238639200000000277324608951933603_)" fill-rule="evenodd" clip-rule="evenodd" fill="#E38601" d="
			M78.2,19.1h1.9V-3.1h-1.9V19.1z M73.3,19.1h1.9V-3.1h-1.9V19.1z M67.6,19.1h1.9V-3.1h-1.9V19.1z M60.6,19.1h1.9V-3.1h-1.9V19.1z
			 M52.9,19.1h1.9V-3.1h-1.9V19.1z M44.5,19.1h1.9V-3.1h-1.9V19.1z M1.6,19.1h1.9V-3.1H1.6V19.1z M6.5,19.1h1.9V-3.1H6.5V19.1z
			 M12.1,19.1H14V-3.1h-1.9V19.1z M19.1,19.1H21V-3.1h-1.9V19.1z M26.9,19.1h1.9V-3.1h-1.9V19.1z M35.3,19.1h1.9V-3.1h-1.9V19.1z"/>
	</g>
	<g>
		<path fill-rule="evenodd" clip-rule="evenodd" fill="#FAC61B" d="M37,253.4c0,3.3,17.8,6,39.8,6c22,0,39.8-2.7,39.8-6
			c0-3.3-17.8-6-39.8-6S37,250.1,37,253.4"/>
		<path fill-rule="evenodd" clip-rule="evenodd" fill="#FD9F00" d="M45.1,252.8c0,1.5,14.2,2.8,31.7,2.8c17.5,0,31.7-1.2,31.7-2.8
			c0-1.5-14.2-2.8-31.7-2.8C59.3,250,45.1,251.3,45.1,252.8"/>
		<path fill-rule="evenodd" clip-rule="evenodd" fill="#E38601" d="M107.1,253.6c-3.9-1.1-16-2-30.3-2c-14.3,0-26.4,0.8-30.3,2
			c-0.9-0.3-1.4-0.5-1.4-0.8c0-1.5,14.2-2.8,31.7-2.8c17.5,0,31.7,1.2,31.7,2.8C108.4,253.1,108,253.3,107.1,253.6"/>
		<path fill-rule="evenodd" clip-rule="evenodd" fill="#FFB127" d="M349.3,278.2v8.9c0,3.1,16.6,5.6,37.2,5.6
			c20.5,0,37.2-2.5,37.2-5.6v-8.9L349.3,278.2L349.3,278.2z"/>
	</g>
	<g transform="translate(0 2) translate(348.549 275.011)">
		<defs>
			
				<filter id="Adobe_OpacityMaskFilter_00000151539437749146483950000002598145492990963365_" filterUnits="userSpaceOnUse" x="1" y="-2.9" width="73.3" height="20.8">
				<feColorMatrix  type="matrix" values="1 0 0 0 0  0 1 0 0 0  0 0 1 0 0  0 0 0 1 0"/>
			</filter>
		</defs>
		
			<mask maskUnits="userSpaceOnUse" x="1" y="-2.9" width="73.3" height="20.8" id="prefix__x_00000098922772952271731040000012299935939860515519_">
			<g filter="url(#Adobe_OpacityMaskFilter_00000151539437749146483950000002598145492990963365_)">
				
					<path id="prefix__w_00000047778942840962669350000010846925149733201549_" fill-rule="evenodd" clip-rule="evenodd" fill="#FFFFFF" d="
					M0.2,0.8v9.1c0,3.1,16.8,5.7,37.5,5.7c20.7,0,37.5-2.5,37.5-5.7V0.8L0.2,0.8L0.2,0.8z"/>
			</g>
		</mask>
		
			<path mask="url(#prefix__x_00000098922772952271731040000012299935939860515519_)" fill-rule="evenodd" clip-rule="evenodd" fill="#E38601" d="
			M1,17.9h1.8V-2.9H1V17.9z M5.6,17.9h1.8V-2.9H5.6V17.9z M10.8,17.9h1.8V-2.9h-1.8V17.9z M17.4,17.9h1.8V-2.9h-1.8V17.9z
			 M24.6,17.9h1.8V-2.9h-1.8V17.9z M32.4,17.9h1.8V-2.9h-1.8V17.9z M72.5,17.9h1.8V-2.9h-1.8V17.9z M67.9,17.9h1.8V-2.9h-1.8V17.9z
			 M62.7,17.9h1.8V-2.9h-1.8V17.9z M56.1,17.9h1.8V-2.9h-1.8V17.9z M48.9,17.9h1.8V-2.9h-1.8V17.9z M41.1,17.9h1.8V-2.9h-1.8V17.9z"
			/>
	</g>
	<g>
		<path fill-rule="evenodd" clip-rule="evenodd" fill="#FAC61B" d="M423.7,278.7c0,3.1-16.8,5.7-37.5,5.7c-20.7,0-37.5-2.5-37.5-5.7
			c0-3.1,16.8-5.7,37.5-5.7C406.9,273,423.7,275.5,423.7,278.7"/>
		<path fill-rule="evenodd" clip-rule="evenodd" fill="#FD9F00" d="M416,278.1c0,1.5-13.3,2.6-29.8,2.6c-16.5,0-29.8-1.2-29.8-2.6
			c0-1.5,13.3-2.6,29.8-2.6C402.6,275.4,416,276.6,416,278.1"/>
		<path fill-rule="evenodd" clip-rule="evenodd" fill="#E38601" d="M357.7,278.9c3.7-1.1,15.1-1.9,28.5-1.9s24.8,0.8,28.5,1.9
			c0.8-0.2,1.3-0.5,1.3-0.8c0-1.5-13.3-2.6-29.8-2.6c-16.5,0-29.8,1.2-29.8,2.6C356.4,278.4,356.8,278.6,357.7,278.9"/>
		<path fill-rule="evenodd" clip-rule="evenodd" fill="#FFB127" d="M343.3,268.6v9.1c0,3.1,16.8,5.7,37.5,5.7
			c20.7,0,37.5-2.5,37.5-5.7v-9.1L343.3,268.6L343.3,268.6z"/>
	</g>
	<g transform="translate(0 2) translate(342.505 265.945)">
		<defs>
			
				<filter id="Adobe_OpacityMaskFilter_00000090281139220905409850000015080588584299512707_" filterUnits="userSpaceOnUse" x="1.6" y="-3.1" width="73.3" height="20.8">
				<feColorMatrix  type="matrix" values="1 0 0 0 0  0 1 0 0 0  0 0 1 0 0  0 0 0 1 0"/>
			</filter>
		</defs>
		
			<mask maskUnits="userSpaceOnUse" x="1.6" y="-3.1" width="73.3" height="20.8" id="prefix__z_00000016795643499926653980000002389984949583326654_">
			<g filter="url(#Adobe_OpacityMaskFilter_00000090281139220905409850000015080588584299512707_)">
				
					<path id="prefix__y_00000127004991345425672970000005248230853480575894_" fill-rule="evenodd" clip-rule="evenodd" fill="#FFFFFF" d="
					M0.8,0.7v9.1c0,3.1,16.8,5.7,37.5,5.7c20.7,0,37.5-2.5,37.5-5.7V0.7H0.8z"/>
			</g>
		</mask>
		
			<path mask="url(#prefix__z_00000016795643499926653980000002389984949583326654_)" fill-rule="evenodd" clip-rule="evenodd" fill="#E38601" d="
			M1.6,17.7h1.8V-3.1H1.6V17.7z M6.2,17.7H8V-3.1H6.2V17.7z M11.4,17.7h1.8V-3.1h-1.8V17.7z M18,17.7h1.8V-3.1H18V17.7z M25.2,17.7
			H27V-3.1h-1.8V17.7z M33.1,17.7h1.8V-3.1h-1.8V17.7z M73.1,17.7h1.8V-3.1h-1.8V17.7z M68.5,17.7h1.8V-3.1h-1.8V17.7z M63.3,17.7
			h1.8V-3.1h-1.8V17.7z M56.7,17.7h1.8V-3.1h-1.8V17.7z M49.5,17.7h1.8V-3.1h-1.8V17.7z M41.7,17.7h1.8V-3.1h-1.8V17.7z"/>
	</g>
	<g>
		<path fill-rule="evenodd" clip-rule="evenodd" fill="#FAC61B" d="M418.2,268.4c0,3.1-16.8,5.7-37.5,5.7s-37.5-2.5-37.5-5.7
			s16.8-5.7,37.5-5.7S418.2,265.3,418.2,268.4"/>
		<path fill-rule="evenodd" clip-rule="evenodd" fill="#FD9F00" d="M410.6,267.8c0,1.5-13.3,2.6-29.8,2.6c-16.5,0-29.8-1.2-29.8-2.6
			c0-1.5,13.3-2.6,29.8-2.6C397.2,265.2,410.6,266.4,410.6,267.8"/>
		<path fill-rule="evenodd" clip-rule="evenodd" fill="#E38601" d="M352.2,268.6c3.7-1.1,15.1-1.9,28.5-1.9
			c13.4,0,24.8,0.8,28.5,1.9c0.8-0.2,1.3-0.5,1.3-0.8c0-1.5-13.3-2.6-29.8-2.6c-16.5,0-29.8,1.2-29.8,2.6
			C351,268.1,351.4,268.4,352.2,268.6"/>
		<path fill-rule="evenodd" clip-rule="evenodd" fill="#FFB127" d="M349.4,258.3v9.1c0,3.1,16.8,5.7,37.5,5.7
			c20.7,0,37.5-2.5,37.5-5.7v-9.1H349.4z"/>
	</g>
	<g transform="translate(0 2) translate(348.549 255.871)">
		<defs>
			
				<filter id="Adobe_OpacityMaskFilter_00000017495777784103697500000015446993475386786704_" filterUnits="userSpaceOnUse" x="1.6" y="-3.3" width="73.3" height="20.8">
				<feColorMatrix  type="matrix" values="1 0 0 0 0  0 1 0 0 0  0 0 1 0 0  0 0 0 1 0"/>
			</filter>
		</defs>
		
			<mask maskUnits="userSpaceOnUse" x="1.6" y="-3.3" width="73.3" height="20.8" id="prefix__B_00000084491626374292485800000017501427989281351608_">
			<g filter="url(#Adobe_OpacityMaskFilter_00000017495777784103697500000015446993475386786704_)">
				
					<path id="prefix__A_00000164495250478757253270000017248937715485196728_" fill-rule="evenodd" clip-rule="evenodd" fill="#FFFFFF" d="
					M0.8,0.4v9.1c0,3.1,16.8,5.7,37.5,5.7s37.5-2.5,37.5-5.7V0.4H0.8z"/>
			</g>
		</mask>
		
			<path mask="url(#prefix__B_00000084491626374292485800000017501427989281351608_)" fill-rule="evenodd" clip-rule="evenodd" fill="#E38601" d="
			M1.6,17.5h1.8V-3.3H1.6V17.5z M6.2,17.5H8V-3.3H6.2V17.5z M11.5,17.5h1.8V-3.3h-1.8V17.5z M18,17.5h1.8V-3.3H18V17.5z M25.3,17.5
			H27V-3.3h-1.8V17.5z M33.1,17.5h1.8V-3.3h-1.8V17.5z M73.2,17.5H75V-3.3h-1.8V17.5z M68.6,17.5h1.8V-3.3h-1.8V17.5z M63.3,17.5
			h1.8V-3.3h-1.8V17.5z M56.8,17.5h1.8V-3.3h-1.8V17.5z M49.6,17.5h1.8V-3.3h-1.8V17.5z M41.7,17.5h1.8V-3.3h-1.8V17.5z"/>
	</g>
	<g>
		<path fill-rule="evenodd" clip-rule="evenodd" fill="#FAC61B" d="M424.3,258.1c0,3.1-16.8,5.7-37.5,5.7c-20.7,0-37.5-2.5-37.5-5.7
			c0-3.1,16.8-5.7,37.5-5.7S424.3,255,424.3,258.1"/>
		<path fill-rule="evenodd" clip-rule="evenodd" fill="#FD9F00" d="M416.6,257.5c0,1.5-13.3,2.6-29.8,2.6c-16.5,0-29.8-1.2-29.8-2.6
			s13.3-2.6,29.8-2.6S416.6,256.1,416.6,257.5"/>
		<path fill-rule="evenodd" clip-rule="evenodd" fill="#E38601" d="M358.3,258.3c3.7-1.1,15.1-1.9,28.5-1.9s24.8,0.8,28.5,1.9
			c0.8-0.2,1.3-0.5,1.3-0.8c0-1.5-13.3-2.6-29.8-2.6c-16.5,0-29.8,1.2-29.8,2.6C357.1,257.8,357.5,258.1,358.3,258.3"/>
		<path fill-rule="evenodd" clip-rule="evenodd" fill="#FFB127" d="M352,247.9v9.1c0,3.1,16.8,5.7,37.5,5.7s37.5-2.5,37.5-5.7v-9.1
			H352z"/>
	</g>
	<g transform="translate(0 2) translate(351.57 245.797)">
		<defs>
			
				<filter id="Adobe_OpacityMaskFilter_00000172421167403597346150000001387236964202567842_" filterUnits="userSpaceOnUse" x="1.3" y="-3.7" width="73.3" height="20.8">
				<feColorMatrix  type="matrix" values="1 0 0 0 0  0 1 0 0 0  0 0 1 0 0  0 0 0 1 0"/>
			</filter>
		</defs>
		
			<mask maskUnits="userSpaceOnUse" x="1.3" y="-3.7" width="73.3" height="20.8" id="prefix__D_00000168099093405807717650000006039631527889937027_">
			<g filter="url(#Adobe_OpacityMaskFilter_00000172421167403597346150000001387236964202567842_)">
				
					<path id="prefix__C_00000179616552760745522390000012810836892274393496_" fill-rule="evenodd" clip-rule="evenodd" fill="#FFFFFF" d="
					M0.4,0.1v9.1c0,3.1,16.8,5.7,37.5,5.7c20.7,0,37.5-2.5,37.5-5.7V0.1H0.4z"/>
			</g>
		</mask>
		
			<path mask="url(#prefix__D_00000168099093405807717650000006039631527889937027_)" fill-rule="evenodd" clip-rule="evenodd" fill="#E38601" d="
			M1.3,17.1H3V-3.7H1.3V17.1z M5.9,17.1h1.8V-3.7H5.9V17.1z M11.1,17.1h1.8V-3.7h-1.8V17.1z M17.7,17.1h1.8V-3.7h-1.8V17.1z
			 M24.9,17.1h1.8V-3.7h-1.8V17.1z M32.7,17.1h1.8V-3.7h-1.8V17.1z M72.8,17.1h1.8V-3.7h-1.8V17.1z M68.2,17.1H70V-3.7h-1.8V17.1z
			 M62.9,17.1h1.8V-3.7h-1.8V17.1z M56.4,17.1h1.8V-3.7h-1.8V17.1z M49.2,17.1H51V-3.7h-1.8V17.1z M41.3,17.1h1.8V-3.7h-1.8V17.1z"
			/>
	</g>
	<g>
		<path fill-rule="evenodd" clip-rule="evenodd" fill="#FAC61B" d="M427,247.7c0,3.1-16.8,5.7-37.5,5.7s-37.5-2.5-37.5-5.7
			c0-3.1,16.8-5.7,37.5-5.7S427,244.6,427,247.7"/>
		<path fill-rule="evenodd" clip-rule="evenodd" fill="#FD9F00" d="M419.3,247.1c0,1.5-13.3,2.6-29.8,2.6c-16.5,0-29.8-1.2-29.8-2.6
			c0-1.5,13.3-2.6,29.8-2.6C405.9,244.5,419.3,245.6,419.3,247.1"/>
		<path fill-rule="evenodd" clip-rule="evenodd" fill="#E38601" d="M361,247.9c3.7-1.1,15.1-1.9,28.5-1.9s24.8,0.8,28.5,1.9
			c0.8-0.2,1.3-0.5,1.3-0.8c0-1.5-13.3-2.6-29.8-2.6c-16.5,0-29.8,1.2-29.8,2.6C359.7,247.4,360.1,247.6,361,247.9"/>
		<path fill-rule="evenodd" clip-rule="evenodd" fill="#FFB127" d="M343.1,237.6v9.1c0,3.1,16.8,5.7,37.5,5.7
			c20.7,0,37.5-2.5,37.5-5.7v-9.1H343.1z"/>
	</g>
	<g transform="translate(0 2) translate(342.505 234.716)">
		<defs>
			
				<filter id="Adobe_OpacityMaskFilter_00000001624084796295957900000014458753558134703523_" filterUnits="userSpaceOnUse" x="1.4" y="-2.9" width="73.3" height="20.8">
				<feColorMatrix  type="matrix" values="1 0 0 0 0  0 1 0 0 0  0 0 1 0 0  0 0 0 1 0"/>
			</filter>
		</defs>
		
			<mask maskUnits="userSpaceOnUse" x="1.4" y="-2.9" width="73.3" height="20.8" id="prefix__F_00000026157283719025668950000006360992166391445640_">
			<g filter="url(#Adobe_OpacityMaskFilter_00000001624084796295957900000014458753558134703523_)">
				
					<path id="prefix__E_00000147186144296882252720000002589041285557253823_" fill-rule="evenodd" clip-rule="evenodd" fill="#FFFFFF" d="
					M0.6,0.9v9.1c0,3.1,16.8,5.7,37.5,5.7s37.5-2.5,37.5-5.7V0.9H0.6z"/>
			</g>
		</mask>
		
			<path mask="url(#prefix__F_00000026157283719025668950000006360992166391445640_)" fill-rule="evenodd" clip-rule="evenodd" fill="#E38601" d="
			M1.4,17.9h1.8V-2.9H1.4V17.9z M6,17.9h1.8V-2.9H6V17.9z M11.2,17.9H13V-2.9h-1.8V17.9z M17.8,17.9h1.8V-2.9h-1.8V17.9z M25,17.9
			h1.8V-2.9H25V17.9z M32.8,17.9h1.8V-2.9h-1.8V17.9z M72.9,17.9h1.8V-2.9h-1.8V17.9z M68.3,17.9h1.8V-2.9h-1.8V17.9z M63.1,17.9
			h1.8V-2.9h-1.8V17.9z M56.5,17.9h1.8V-2.9h-1.8V17.9z M49.3,17.9h1.8V-2.9h-1.8V17.9z M41.5,17.9h1.8V-2.9h-1.8V17.9z"/>
	</g>
	<g>
		<path fill-rule="evenodd" clip-rule="evenodd" fill="#FAC61B" d="M418,237.4c0,3.1-16.8,5.7-37.5,5.7c-20.7,0-37.5-2.5-37.5-5.7
			c0-3.1,16.8-5.7,37.5-5.7C401.2,231.7,418,234.3,418,237.4"/>
		<path fill-rule="evenodd" clip-rule="evenodd" fill="#FD9F00" d="M410.3,236.8c0,1.5-13.3,2.6-29.8,2.6c-16.5,0-29.8-1.2-29.8-2.6
			c0-1.5,13.3-2.6,29.8-2.6C397,234.2,410.3,235.3,410.3,236.8"/>
		<path fill-rule="evenodd" clip-rule="evenodd" fill="#E38601" d="M352,237.6c3.7-1.1,15.1-1.9,28.5-1.9c13.4,0,24.8,0.8,28.5,1.9
			c0.8-0.2,1.3-0.5,1.3-0.8c0-1.5-13.3-2.6-29.8-2.6c-16.5,0-29.8,1.2-29.8,2.6C350.7,237.1,351.2,237.3,352,237.6"/>
		<path fill-rule="evenodd" clip-rule="evenodd" fill="#FFB127" d="M350.3,227.3v9.1c0,3.1,16.8,5.7,37.5,5.7s37.5-2.5,37.5-5.7
			v-9.1H350.3z"/>
	</g>
	<g transform="translate(0 2) translate(349.556 224.643)">
		<defs>
			
				<filter id="Adobe_OpacityMaskFilter_00000180340490274829708890000017907847853953251744_" filterUnits="userSpaceOnUse" x="1.6" y="-3.1" width="73.3" height="20.8">
				<feColorMatrix  type="matrix" values="1 0 0 0 0  0 1 0 0 0  0 0 1 0 0  0 0 0 1 0"/>
			</filter>
		</defs>
		
			<mask maskUnits="userSpaceOnUse" x="1.6" y="-3.1" width="73.3" height="20.8" id="prefix__H_00000060015451290902913470000000861927002821462158_">
			<g filter="url(#Adobe_OpacityMaskFilter_00000180340490274829708890000017907847853953251744_)">
				
					<path id="prefix__G_00000145036587882760707410000003396746997871844240_" fill-rule="evenodd" clip-rule="evenodd" fill="#FFFFFF" d="
					M0.7,0.6v9.1c0,3.1,16.8,5.7,37.5,5.7c20.7,0,37.5-2.6,37.5-5.7V0.6H0.7z"/>
			</g>
		</mask>
		
			<path mask="url(#prefix__H_00000060015451290902913470000000861927002821462158_)" fill-rule="evenodd" clip-rule="evenodd" fill="#E38601" d="
			M1.6,17.6h1.8V-3.1H1.6V17.6z M6.2,17.6h1.8V-3.1H6.2V17.6z M11.4,17.6h1.8V-3.1h-1.8V17.6z M18,17.6h1.8V-3.1H18V17.6z
			 M25.2,17.6h1.8V-3.1h-1.8V17.6z M33,17.6h1.8V-3.1H33V17.6z M73.1,17.6h1.8V-3.1h-1.8V17.6z M68.5,17.6h1.8V-3.1h-1.8V17.6z
			 M63.2,17.6H65V-3.1h-1.8V17.6z M56.7,17.6h1.8V-3.1h-1.8V17.6z M49.5,17.6h1.8V-3.1h-1.8V17.6z M41.6,17.6h1.8V-3.1h-1.8V17.6z"
			/>
	</g>
	<g>
		<path fill-rule="evenodd" clip-rule="evenodd" fill="#FAC61B" d="M425.2,226.1c0,3.1-16.8,5.7-37.5,5.7c-20.7,0-37.5-2.5-37.5-5.7
			c0-3.1,16.8-5.7,37.5-5.7C408.5,220.4,425.2,222.9,425.2,226.1"/>
		<path fill-rule="evenodd" clip-rule="evenodd" fill="#FD9F00" d="M417.6,225.5c0,1.5-13.3,2.6-29.8,2.6c-16.5,0-29.8-1.2-29.8-2.6
			c0-1.5,13.3-2.6,29.8-2.6C404.2,222.8,417.6,224,417.6,225.5"/>
		<path fill-rule="evenodd" clip-rule="evenodd" fill="#E38601" d="M359.3,226.3c3.7-1.1,15.1-1.9,28.5-1.9s24.8,0.8,28.5,1.9
			c0.8-0.2,1.3-0.5,1.3-0.8c0-1.5-13.3-2.6-29.8-2.6c-16.5,0-29.8,1.2-29.8,2.6C358,225.8,358.4,226,359.3,226.3"/>
		<path fill-rule="evenodd" clip-rule="evenodd" fill="#FFB127" d="M343.8,215.9v9.1c0,3.1,16.8,5.7,37.5,5.7
			c20.7,0,37.5-2.5,37.5-5.7v-9.1H343.8z"/>
	</g>
	<g transform="translate(0 2) translate(343.512 213.562)">
		<defs>
			
				<filter id="Adobe_OpacityMaskFilter_00000127042208249294749630000003801465104065180073_" filterUnits="userSpaceOnUse" x="1.1" y="-3.4" width="73.3" height="20.8">
				<feColorMatrix  type="matrix" values="1 0 0 0 0  0 1 0 0 0  0 0 1 0 0  0 0 0 1 0"/>
			</filter>
		</defs>
		
			<mask maskUnits="userSpaceOnUse" x="1.1" y="-3.4" width="73.3" height="20.8" id="prefix__J_00000005950913426759972460000006945300074510086334_">
			<g filter="url(#Adobe_OpacityMaskFilter_00000127042208249294749630000003801465104065180073_)">
				
					<path id="prefix__I_00000119816689225402307240000009718599594545746097_" fill-rule="evenodd" clip-rule="evenodd" fill="#FFFFFF" d="
					M0.3,0.4v9.1c0,3.1,16.8,5.7,37.5,5.7c20.7,0,37.5-2.5,37.5-5.7V0.4H0.3z"/>
			</g>
		</mask>
		
			<path mask="url(#prefix__J_00000005950913426759972460000006945300074510086334_)" fill-rule="evenodd" clip-rule="evenodd" fill="#E38601" d="
			M1.1,17.4h1.8V-3.4H1.1V17.4z M5.7,17.4h1.8V-3.4H5.7V17.4z M11,17.4h1.8V-3.4H11V17.4z M17.5,17.4h1.8V-3.4h-1.8V17.4z
			 M24.7,17.4h1.8V-3.4h-1.8V17.4z M32.6,17.4h1.8V-3.4h-1.8V17.4z M72.7,17.4h1.8V-3.4h-1.8V17.4z M68.1,17.4h1.8V-3.4h-1.8V17.4z
			 M62.8,17.4h1.8V-3.4h-1.8V17.4z M56.2,17.4H58V-3.4h-1.8V17.4z M49,17.4h1.8V-3.4H49V17.4z M41.2,17.4H43V-3.4h-1.8V17.4z"/>
	</g>
	<g>
		<path fill-rule="evenodd" clip-rule="evenodd" fill="#FAC61B" d="M418.8,216.7c0,3.1-16.8,5.6-37.5,5.6s-37.5-2.5-37.5-5.6
			s16.8-5.6,37.5-5.6S418.8,213.6,418.8,216.7"/>
		<path fill-rule="evenodd" clip-rule="evenodd" fill="#FFB127" d="M411.1,216.1c0,1.4-13.3,2.6-29.8,2.6c-16.5,0-29.8-1.2-29.8-2.6
			s13.3-2.6,29.8-2.6C397.7,213.5,411.1,214.7,411.1,216.1"/>
		<path fill-rule="evenodd" clip-rule="evenodd" fill="#E38601" d="M352.8,216.9c3.7-1.1,15.1-1.9,28.5-1.9
			c13.4,0,24.8,0.8,28.5,1.9c0.8-0.2,1.3-0.5,1.3-0.8c0-1.4-13.3-2.6-29.8-2.6c-16.5,0-29.8,1.2-29.8,2.6
			C351.5,216.4,351.9,216.6,352.8,216.9"/>
		<path fill-rule="evenodd" clip-rule="evenodd" fill="#B5905C" d="M370.4,292.2c-3.6-4.8-5.9-14-6.2-20.5
			c-1.1-24,10.5-40,29.8-44.3l7.3-1.7l15.1,64.7c-6.8,1.4-8,15.1-12.8,14.1C398.8,303.6,370.4,292.2,370.4,292.2"/>
		<path fill-rule="evenodd" clip-rule="evenodd" fill="#FD9F00" d="M400.5,225.8l7.3-1.7l18.4,79l-7.2,1.7
			c-19.3,4.4-39.1-9.7-44.1-31.6C369.7,251.4,381.2,230.2,400.5,225.8"/>
	</g>
	<g transform="translate(0 2) translate(373.733 220.613)">
		<defs>
			
				<filter id="Adobe_OpacityMaskFilter_00000016777348350010069620000015236214520271591577_" filterUnits="userSpaceOnUse" x="4.8" y="79.8" width="47.1" height="12.9">
				<feColorMatrix  type="matrix" values="1 0 0 0 0  0 1 0 0 0  0 0 1 0 0  0 0 0 1 0"/>
			</filter>
		</defs>
		
			<mask maskUnits="userSpaceOnUse" x="4.8" y="79.8" width="47.1" height="12.9" id="prefix__L_00000127002019389373478690000011018109152334242198_">
			<g filter="url(#Adobe_OpacityMaskFilter_00000016777348350010069620000015236214520271591577_)">
				
					<path id="prefix__K_00000007412115756075090020000001410799859404563337_" fill-rule="evenodd" clip-rule="evenodd" fill="#FFFFFF" d="
					M27.3,2.3C8.3,6.8-3,28.3,2,50.3s24.4,36.3,43.3,31.9l7.1-1.7l-18-79.8C34.4,0.7,27.3,2.3,27.3,2.3z"/>
			</g>
		</mask>
		
			<path mask="url(#prefix__L_00000127002019389373478690000011018109152334242198_)" fill-rule="evenodd" clip-rule="evenodd" fill="#E38601" d="
			M5.3,92.7l-0.4-2l46.7-10.9l0.4,2L5.3,92.7z"/>
		<defs>
			
				<filter id="Adobe_OpacityMaskFilter_00000181805149608284420890000002216961485766315953_" filterUnits="userSpaceOnUse" x="3.7" y="74.6" width="47.1" height="12.9">
				<feColorMatrix  type="matrix" values="1 0 0 0 0  0 1 0 0 0  0 0 1 0 0  0 0 0 1 0"/>
			</filter>
		</defs>
		
			<mask maskUnits="userSpaceOnUse" x="3.7" y="74.6" width="47.1" height="12.9" id="prefix__N_00000117645346897576429590000001287304004402921871_">
			<g filter="url(#Adobe_OpacityMaskFilter_00000181805149608284420890000002216961485766315953_)">
				
					<path id="prefix__M_00000172400652113017768840000001699386236962760604_" fill-rule="evenodd" clip-rule="evenodd" fill="#FFFFFF" d="
					M27.3,2.3C8.3,6.8-3,28.3,2,50.3s24.4,36.3,43.3,31.9l7.1-1.7l-18-79.8C34.4,0.7,27.3,2.3,27.3,2.3z"/>
			</g>
		</mask>
		
			<path mask="url(#prefix__N_00000117645346897576429590000001287304004402921871_)" fill-rule="evenodd" clip-rule="evenodd" fill="#E38601" d="
			M4.1,87.5l-0.4-2l46.7-10.9l0.4,2L4.1,87.5z"/>
		<defs>
			
				<filter id="Adobe_OpacityMaskFilter_00000031929624956464653280000016867948913869983888_" filterUnits="userSpaceOnUse" x="2.3" y="68.8" width="47.1" height="12.9">
				<feColorMatrix  type="matrix" values="1 0 0 0 0  0 1 0 0 0  0 0 1 0 0  0 0 0 1 0"/>
			</filter>
		</defs>
		
			<mask maskUnits="userSpaceOnUse" x="2.3" y="68.8" width="47.1" height="12.9" id="prefix__P_00000165943986440094457220000010969203265320854429_">
			<g filter="url(#Adobe_OpacityMaskFilter_00000031929624956464653280000016867948913869983888_)">
				
					<path id="prefix__O_00000159438136632227108020000010301368469527919522_" fill-rule="evenodd" clip-rule="evenodd" fill="#FFFFFF" d="
					M27.3,2.3C8.3,6.8-3,28.3,2,50.3s24.4,36.3,43.3,31.9l7.1-1.7l-18-79.8C34.4,0.7,27.3,2.3,27.3,2.3z"/>
			</g>
		</mask>
		
			<path mask="url(#prefix__P_00000165943986440094457220000010969203265320854429_)" fill-rule="evenodd" clip-rule="evenodd" fill="#E38601" d="
			M2.8,81.7l-0.4-2L49,68.8l0.4,2L2.8,81.7z"/>
		<defs>
			
				<filter id="Adobe_OpacityMaskFilter_00000155857366736412430970000000117738328547169688_" filterUnits="userSpaceOnUse" x="0.7" y="61.4" width="47.1" height="12.9">
				<feColorMatrix  type="matrix" values="1 0 0 0 0  0 1 0 0 0  0 0 1 0 0  0 0 0 1 0"/>
			</filter>
		</defs>
		
			<mask maskUnits="userSpaceOnUse" x="0.7" y="61.4" width="47.1" height="12.9" id="prefix__R_00000062164212852408297900000003036577051397257655_">
			<g filter="url(#Adobe_OpacityMaskFilter_00000155857366736412430970000000117738328547169688_)">
				
					<path id="prefix__Q_00000137103340885064592950000017347196886392663715_" fill-rule="evenodd" clip-rule="evenodd" fill="#FFFFFF" d="
					M27.3,2.3C8.3,6.8-3,28.3,2,50.3s24.4,36.3,43.3,31.9l7.1-1.7l-18-79.8C34.4,0.7,27.3,2.3,27.3,2.3z"/>
			</g>
		</mask>
		
			<path mask="url(#prefix__R_00000062164212852408297900000003036577051397257655_)" fill-rule="evenodd" clip-rule="evenodd" fill="#E38601" d="
			M1.1,74.3l-0.4-2l46.6-10.9l0.4,2L1.1,74.3z"/>
		<g>
			<defs>
				
					<filter id="Adobe_OpacityMaskFilter_00000091715198846481506790000013923752330035730355_" filterUnits="userSpaceOnUse" x="-1.1" y="53.4" width="47.1" height="12.9">
					<feColorMatrix  type="matrix" values="1 0 0 0 0  0 1 0 0 0  0 0 1 0 0  0 0 0 1 0"/>
				</filter>
			</defs>
			
				<mask maskUnits="userSpaceOnUse" x="-1.1" y="53.4" width="47.1" height="12.9" id="prefix__T_00000042716205490980764660000015401708318421852600_">
				<g filter="url(#Adobe_OpacityMaskFilter_00000091715198846481506790000013923752330035730355_)">
					
						<path id="prefix__S_00000124124458590582932390000017738831472175934623_" fill-rule="evenodd" clip-rule="evenodd" fill="#FFFFFF" d="
						M27.3,2.3C8.3,6.8-3,28.3,2,50.3s24.4,36.3,43.3,31.9l7.1-1.7l-18-79.8C34.4,0.7,27.3,2.3,27.3,2.3z"/>
				</g>
			</mask>
			
				<path mask="url(#prefix__T_00000042716205490980764660000015401708318421852600_)" fill-rule="evenodd" clip-rule="evenodd" fill="#E38601" d="
				M-0.7,66.3l-0.4-2l46.6-10.9l0.4,2L-0.7,66.3z"/>
		</g>
		<g>
			<defs>
				
					<filter id="Adobe_OpacityMaskFilter_00000124161551905575330640000005814619016456473267_" filterUnits="userSpaceOnUse" x="-3.1" y="44.6" width="47.1" height="12.9">
					<feColorMatrix  type="matrix" values="1 0 0 0 0  0 1 0 0 0  0 0 1 0 0  0 0 0 1 0"/>
				</filter>
			</defs>
			
				<mask maskUnits="userSpaceOnUse" x="-3.1" y="44.6" width="47.1" height="12.9" id="prefix__V_00000058557541045933241480000010344131351254433416_">
				<g filter="url(#Adobe_OpacityMaskFilter_00000124161551905575330640000005814619016456473267_)">
					
						<path id="prefix__U_00000166674495800713821770000010203666804448803741_" fill-rule="evenodd" clip-rule="evenodd" fill="#FFFFFF" d="
						M27.3,2.3C8.3,6.8-3,28.3,2,50.3s24.4,36.3,43.3,31.9l7.1-1.7l-18-79.8C34.4,0.7,27.3,2.3,27.3,2.3z"/>
				</g>
			</mask>
			
				<path mask="url(#prefix__V_00000058557541045933241480000010344131351254433416_)" fill-rule="evenodd" clip-rule="evenodd" fill="#E38601" d="
				M-2.7,57.5l-0.4-2l46.7-10.9l0.4,2L-2.7,57.5z"/>
		</g>
		<g>
			<defs>
				
					<filter id="Adobe_OpacityMaskFilter_00000089533544696126750540000013089311173172479674_" filterUnits="userSpaceOnUse" x="-13.2" y="-0.2" width="47.1" height="12.9">
					<feColorMatrix  type="matrix" values="1 0 0 0 0  0 1 0 0 0  0 0 1 0 0  0 0 0 1 0"/>
				</filter>
			</defs>
			
				<mask maskUnits="userSpaceOnUse" x="-13.2" y="-0.2" width="47.1" height="12.9" id="prefix__X_00000075137646632349652790000004989077306811838655_">
				<g filter="url(#Adobe_OpacityMaskFilter_00000089533544696126750540000013089311173172479674_)">
					
						<path id="prefix__W_00000066507476380826162410000005818252843403557012_" fill-rule="evenodd" clip-rule="evenodd" fill="#FFFFFF" d="
						M27.3,2.3C8.3,6.8-3,28.3,2,50.3s24.4,36.3,43.3,31.9l7.1-1.7l-18-79.8C34.4,0.7,27.3,2.3,27.3,2.3z"/>
				</g>
			</mask>
			
				<path mask="url(#prefix__X_00000075137646632349652790000004989077306811838655_)" fill-rule="evenodd" clip-rule="evenodd" fill="#E38601" d="
				M33.9,1.8l-46.7,10.9l-0.4-2L33.4-0.2L33.9,1.8z"/>
		</g>
		<g>
			<defs>
				
					<filter id="Adobe_OpacityMaskFilter_00000005244274696618012140000015284622865614189219_" filterUnits="userSpaceOnUse" x="-12.1" y="4.9" width="47.1" height="12.9">
					<feColorMatrix  type="matrix" values="1 0 0 0 0  0 1 0 0 0  0 0 1 0 0  0 0 0 1 0"/>
				</filter>
			</defs>
			
				<mask maskUnits="userSpaceOnUse" x="-12.1" y="4.9" width="47.1" height="12.9" id="prefix__Z_00000157302719231250046690000009426890423510936467_">
				<g filter="url(#Adobe_OpacityMaskFilter_00000005244274696618012140000015284622865614189219_)">
					
						<path id="prefix__Y_00000065055358599947433800000005358707795124974526_" fill-rule="evenodd" clip-rule="evenodd" fill="#FFFFFF" d="
						M27.3,2.3C8.3,6.8-3,28.3,2,50.3s24.4,36.3,43.3,31.9l7.1-1.7l-18-79.8C34.4,0.7,27.3,2.3,27.3,2.3z"/>
				</g>
			</mask>
			
				<path mask="url(#prefix__Z_00000157302719231250046690000009426890423510936467_)" fill-rule="evenodd" clip-rule="evenodd" fill="#E38601" d="
				M-11.6,17.9l-0.4-2L34.6,4.9l0.4,2L-11.6,17.9z"/>
		</g>
		<g>
			<defs>
				
					<filter id="Adobe_OpacityMaskFilter_00000057837649640065780270000014592149141409678240_" filterUnits="userSpaceOnUse" x="-10.7" y="10.8" width="47.1" height="12.9">
					<feColorMatrix  type="matrix" values="1 0 0 0 0  0 1 0 0 0  0 0 1 0 0  0 0 0 1 0"/>
				</filter>
			</defs>
			
				<mask maskUnits="userSpaceOnUse" x="-10.7" y="10.8" width="47.1" height="12.9" id="prefix__ab_00000135675948031908399510000002520707038379790997_">
				<g filter="url(#Adobe_OpacityMaskFilter_00000057837649640065780270000014592149141409678240_)">
					
						<path id="prefix__aa_00000181795928133745856160000010938133318186669741_" fill-rule="evenodd" clip-rule="evenodd" fill="#FFFFFF" d="
						M27.3,2.3C8.3,6.8-3,28.3,2,50.3s24.4,36.3,43.3,31.9l7.1-1.7l-18-79.8C34.4,0.7,27.3,2.3,27.3,2.3z"/>
				</g>
			</mask>
			
				<path mask="url(#prefix__ab_00000135675948031908399510000002520707038379790997_)" fill-rule="evenodd" clip-rule="evenodd" fill="#E38601" d="
				M-10.3,23.7l-0.4-2l46.7-10.9l0.4,2L-10.3,23.7z"/>
		</g>
		<g>
			<defs>
				
					<filter id="Adobe_OpacityMaskFilter_00000041297761207498752150000003975768886148893616_" filterUnits="userSpaceOnUse" x="-9.1" y="18.1" width="47.1" height="12.9">
					<feColorMatrix  type="matrix" values="1 0 0 0 0  0 1 0 0 0  0 0 1 0 0  0 0 0 1 0"/>
				</filter>
			</defs>
			
				<mask maskUnits="userSpaceOnUse" x="-9.1" y="18.1" width="47.1" height="12.9" id="prefix__ad_00000154422137469175569770000004483158152214152867_">
				<g filter="url(#Adobe_OpacityMaskFilter_00000041297761207498752150000003975768886148893616_)">
					
						<path id="prefix__ac_00000175304150984670384020000011652912362498403210_" fill-rule="evenodd" clip-rule="evenodd" fill="#FFFFFF" d="
						M27.3,2.3C8.3,6.8-3,28.3,2,50.3s24.4,36.3,43.3,31.9l7.1-1.7l-18-79.8C34.4,0.7,27.3,2.3,27.3,2.3z"/>
				</g>
			</mask>
			
				<path mask="url(#prefix__ad_00000154422137469175569770000004483158152214152867_)" fill-rule="evenodd" clip-rule="evenodd" fill="#E38601" d="
				M-8.6,31.1l-0.4-2l46.7-10.9l0.4,2L-8.6,31.1z"/>
		</g>
		<g>
			<defs>
				
					<filter id="Adobe_OpacityMaskFilter_00000032617193364659377790000014967249530201355196_" filterUnits="userSpaceOnUse" x="-7.3" y="26.2" width="47.1" height="12.9">
					<feColorMatrix  type="matrix" values="1 0 0 0 0  0 1 0 0 0  0 0 1 0 0  0 0 0 1 0"/>
				</filter>
			</defs>
			
				<mask maskUnits="userSpaceOnUse" x="-7.3" y="26.2" width="47.1" height="12.9" id="prefix__af_00000152260020805878963310000000210087765531749036_">
				<g filter="url(#Adobe_OpacityMaskFilter_00000032617193364659377790000014967249530201355196_)">
					
						<path id="prefix__ae_00000088848297273627397210000003776222098032750265_" fill-rule="evenodd" clip-rule="evenodd" fill="#FFFFFF" d="
						M27.3,2.3C8.3,6.8-3,28.3,2,50.3s24.4,36.3,43.3,31.9l7.1-1.7l-18-79.8C34.4,0.7,27.3,2.3,27.3,2.3z"/>
				</g>
			</mask>
			
				<path mask="url(#prefix__af_00000152260020805878963310000000210087765531749036_)" fill-rule="evenodd" clip-rule="evenodd" fill="#E38601" d="
				M-6.8,39.1l-0.4-2l46.7-10.9l0.4,2L-6.8,39.1z"/>
		</g>
		<g>
			<defs>
				
					<filter id="Adobe_OpacityMaskFilter_00000158711491962863087940000008371817938334599576_" filterUnits="userSpaceOnUse" x="-5.3" y="35" width="47.1" height="12.9">
					<feColorMatrix  type="matrix" values="1 0 0 0 0  0 1 0 0 0  0 0 1 0 0  0 0 0 1 0"/>
				</filter>
			</defs>
			
				<mask maskUnits="userSpaceOnUse" x="-5.3" y="35" width="47.1" height="12.9" id="prefix__ah_00000152259468511960818800000000337710190030477953_">
				<g filter="url(#Adobe_OpacityMaskFilter_00000158711491962863087940000008371817938334599576_)">
					
						<path id="prefix__ag_00000009548389194528982270000004187006967348717228_" fill-rule="evenodd" clip-rule="evenodd" fill="#FFFFFF" d="
						M27.3,2.3C8.3,6.8-3,28.3,2,50.3s24.4,36.3,43.3,31.9l7.1-1.7l-18-79.8C34.4,0.7,27.3,2.3,27.3,2.3z"/>
				</g>
			</mask>
			
				<path mask="url(#prefix__ah_00000152259468511960818800000000337710190030477953_)" fill-rule="evenodd" clip-rule="evenodd" fill="#E38601" d="
				M-4.8,47.9l-0.4-2L41.4,35l0.4,2L-4.8,47.9z"/>
		</g>
	</g>
	<g>
		<path fill-rule="evenodd" clip-rule="evenodd" fill="#FFD454" d="M384.3,271.4c5,21.9,24.6,36,43.7,31.6
			c19.1-4.4,30.5-25.7,25.5-47.5c-5-21.9-24.6-36-43.7-31.6C390.7,228.2,379.2,249.5,384.3,271.4"/>
		<path fill-rule="evenodd" clip-rule="evenodd" fill="#FDE571" d="M452.4,257c-5-21.9-24.6-36-43.7-31.6c-8,1.8-14.6,6.6-19.2,13.1
			c4.7-7.3,11.7-12.7,20.3-14.7c19.1-4.4,38.6,9.8,43.7,31.6c2.9,12.7,0.3,25.3-6.3,34.4C452.9,280.9,455.1,269.1,452.4,257"/>
		<path fill-rule="evenodd" clip-rule="evenodd" fill="#FDE571" d="M425.8,295.1c14.2-3.3,22.6-19.7,18.7-36.7
			c-3.9-17-18.6-28.1-32.9-24.8c-14.2,3.3-22.6,19.7-18.7,36.7C396.8,287.2,411.5,298.3,425.8,295.1"/>
		<path fill-rule="evenodd" clip-rule="evenodd" fill="#FFB127" d="M425.9,294.2c14.2-3.3,22.6-19.7,18.7-36.7
			c-3.9-17-18.6-28.1-32.9-24.8c-14.2,3.3-22.6,19.7-18.7,36.7C396.9,286.3,411.7,297.5,425.9,294.2"/>
		<path fill-rule="evenodd" clip-rule="evenodd" fill="#E38601" d="M410.3,266.2c0.1,0.2,0.3,0.4,0.5,0.6l17.7,12.4
			c0.4,0.3,0.9,0.4,1.4,0.3c0.4-0.1,0.8-0.4,1.1-0.9c0.5-0.9,0.1-2.2-0.7-2.8l-13.9-9.7l2.7-0.7c4.1-1.1,6.7-5.4,6.3-10.1l1.9-0.5
			c0.9-0.2,1.5-1.3,1.2-2.4c-0.3-1.1-1.3-1.8-2.2-1.5l-1.9,0.5c-0.6-1.4-1.5-2.6-2.6-3.6l3.5-0.9c0.9-0.2,1.5-1.3,1.2-2.4
			c-0.3-1.1-1.3-1.8-2.2-1.5l-10.2,2.6l-6.8,1.8c-0.9,0.2-1.5,1.3-1.2,2.4c0.3,1.1,1.3,1.8,2.2,1.5l6.8-1.8c2.2-0.6,4.5,0.6,5.8,2.7
			l-11.6,3c-0.9,0.2-1.5,1.3-1.2,2.4c0.3,1.1,1.3,1.8,2.2,1.5l11.6-3c-0.1,2.5-1.6,4.6-3.8,5.2l-6.8,1.8c-0.2,0.1-0.4,0.2-0.6,0.3"
			/>
		<path fill-rule="evenodd" clip-rule="evenodd" fill="#FFD454" d="M425.9,246.1c0.9-0.2,1.5-1.3,1.2-2.4c-0.3-1.1-1.3-1.8-2.2-1.5
			l-10.2,2.6l-6.8,1.8c-0.9,0.2-1.5,1.3-1.2,2.4c0.3,1.1,1.3,1.8,2.2,1.5l6.8-1.8c2.2-0.6,4.5,0.6,5.8,2.7l-11.6,3
			c-0.9,0.2-1.5,1.3-1.2,2.4c0.3,1.1,1.3,1.8,2.2,1.5l11.6-3c-0.1,2.5-1.6,4.6-3.8,5.2l-6.8,1.8c-0.2,0.1-0.4,0.2-0.6,0.3
			c-0.4,0.3-0.6,0.8-0.6,1.3c0,0.5,0.1,1.1,0.4,1.5c0.1,0.2,0.3,0.4,0.5,0.6l17.7,12.4c0.4,0.3,0.9,0.4,1.4,0.3
			c0.4-0.1,0.8-0.4,1.1-0.9c0.5-0.9,0.1-2.2-0.7-2.8l-13.9-9.7l2.7-0.7c4.1-1.1,6.7-5.4,6.3-10.1l1.9-0.5c0.9-0.2,1.5-1.3,1.2-2.4
			c-0.3-1.1-1.3-1.8-2.2-1.5l-1.9,0.5c-0.6-1.4-1.5-2.6-2.6-3.6L425.9,246.1L425.9,246.1z"/>
		<path fill-rule="evenodd" clip-rule="evenodd" fill="#E38601" d="M422.8,293.2c14.2-3.3,22.6-19.7,18.7-36.7
			c-2.6-11.4-10.2-20.2-19.2-23.7c10.4,2.5,19.4,12,22.3,24.7c3.9,17-4.5,33.4-18.7,36.7c-4.6,1.1-9.3,0.6-13.7-1.1
			C415.7,293.9,419.3,294,422.8,293.2"/>
		<g transform="translate(0 2) translate(215.576) translate(308.48 138.716)">
			<defs>
				
					<filter id="Adobe_OpacityMaskFilter_00000176045380618681431360000012301062812945075084_" filterUnits="userSpaceOnUse" x="0.1" y="0.6" width="21.3" height="11.8">
					<feColorMatrix  type="matrix" values="1 0 0 0 0  0 1 0 0 0  0 0 1 0 0  0 0 0 1 0"/>
				</filter>
			</defs>
			
				<mask maskUnits="userSpaceOnUse" x="0.1" y="0.6" width="21.3" height="11.8" id="prefix__aj_00000033336573473393605720000000204623152557255557_">
				<g filter="url(#Adobe_OpacityMaskFilter_00000176045380618681431360000012301062812945075084_)">
					
						<path id="prefix__ai_00000075876326072147011040000009741621532874063493_" fill-rule="evenodd" clip-rule="evenodd" fill="#FFFFFF" d="
						M0.1,0.6h21.3v11.8H0.1V0.6z"/>
				</g>
			</mask>
			
				<path mask="url(#prefix__aj_00000033336573473393605720000000204623152557255557_)" fill-rule="evenodd" clip-rule="evenodd" fill="#FFE1BD" d="
				M19.3,11c0.7-0.3,0.1-1.1-0.6-1.2c-0.1,0-0.3,0-0.5,0c1.2-0.3,2.1-0.5,2.4-0.6c0.6-0.3,0.2-1-0.5-1.2c0.5-0.1,0.8-0.2,1-0.3
				c0.8-0.3,0.2-1.1-0.6-1.2c-0.2,0-0.6,0.1-1.2,0.1c0.3-0.1,0.5-0.1,0.7-0.2c0.7-0.3,0.3-1-0.4-1.1c-0.2,0-0.6,0-1.4,0.2
				c-0.7,0.1-1.6,0.1-2.3,0.2c-0.7,0.1-3.9,0.2-4.7-1.2c-1.2-2.2,3.3-1.9,3.7-3.8c0.1-0.6-3.1-0.2-4.9,0.2C8.1,1.6,7.2,1.9,6.2,2.3
				c-1,0.4-2.3,1.4-3,1.5C2.6,4,0.8,3.8,0.8,3.8l-0.6,6c0,0,3.6,0.2,4.6,0.6c2.3,1.3,4.6,2,7.3,2c1.7,0,3.3-0.4,4.9-0.7
				C16.9,11.7,19.1,11,19.3,11"/>
		</g>
		<path fill-rule="evenodd" clip-rule="evenodd" fill="#FFE2B7" d="M449.8,278.9c0,0,3.6,5.1,5.3,6.7c1.7,1.5,7.1-3.3,6.9-4.7
			c-0.2-1.4-7-9.3-7-9.3"/>
		<path fill-rule="evenodd" clip-rule="evenodd" fill="#7F786A" d="M464.7,281c1.6,1.7,4.4,5.2,4.4,5.2l-4.5,5.8l-1.5-0.4
			c0,0-0.5,2.6-1.8,4.4c-1,1.4-3.5,3.7-4.9,4.7c-4.9,3.3-9.3,4.3-10,3.8c-3-2.4,3.5-6.9,4.6-8c3.4-3.1,3.7-7.7,2.9-10.1
			c-0.6-1.8-1.1-1.9-0.2-2.3c0,0,0.8-0.4,1.9-0.1c1.7,0.6,3.7,0.2,4.8-1.2c0.6-0.8,1.1-1.8,1.1-2.9
			C461.5,279.9,463.1,279.3,464.7,281"/>
		<path fill-rule="evenodd" clip-rule="evenodd" fill="#FFE2B7" d="M359.2,283.7c0,0-1.6,6.1-1.8,8.3c-0.1,2.3,7,3.4,8,2.3
			c1-1.1,2.8-11.3,2.8-11.3"/>
		<path fill-rule="evenodd" clip-rule="evenodd" fill="#7F786A" d="M367,296.6c-0.3,2.3-1.3,6.7-1.3,6.7l-7.3,0.2l-0.6-1.4
			c0,0-2.3,1.3-4.6,1.4c-1.7,0.1-5.1-0.3-6.7-0.8c-5.7-1.7-9.2-4.4-9.2-5.3c0-3.8,7.5-1.7,9.1-1.5c4.5,0.6,8.3-2,9.7-4.2
			c1-1.6,0.7-2,1.6-1.6c0,0,0.8,0.3,1.2,1.4c0.7,1.7,2.2,3,4,2.9c1,0,2.1-0.3,3-1C365.8,293.4,367.3,294.2,367,296.6 M391.5,154.4
			c0,0-20.7,52.8-23.2,64.1C365.7,229.8,356,287,356,287s9.1,2.6,12.4,1.4c2.3-9.4,25.7-81.9,41-101.4
			C424.7,167.6,391.5,154.4,391.5,154.4"/>
		<path fill-rule="evenodd" clip-rule="evenodd" fill="#7F786A" d="M406.1,183.5c0,0-4.7,25.6,11.1,51.7
			c15.7,26,31.9,45.5,31.9,45.5s6.8-3.3,9.4-7c-4.8-6.6-26.3-43.8-26.3-58.4c0-14.6,5.6-49.1,5.6-49.1l-23.9-5.7L406.1,183.5
			L406.1,183.5z"/>
		<path fill-rule="evenodd" clip-rule="evenodd" fill="#FFE2B7" d="M524.4,150.4c0,0-27.3,1.3-41.3-2.6c-14-3.9-38-21-38-21
			L417,105.1c-7.2-9.1-16.4-34.8-17.8-39.4c-1.4-4.7-6.6-36.7-6.6-36.7l6-0.6c0,0,6.9,22.7,10.5,35.5c3.3,12,21.7,28.4,26.2,32.5
			l0,0c0.3,0.3,0.6,0.5,0.7,0.6c2.8,2.4,0.6,6.9,0.6,6.9l4.8,1.8c0,0,5.2-2.7,8.4,0.2c0.3,0.2,0.6,0.6,1.1,1.1
			c4.4,4.8,15.2,21.9,37.1,30.6c15.9,3.9,33.5,6.8,37.8,6.8C524.8,148.7,524.4,150.4,524.4,150.4"/>
		<path fill-rule="evenodd" clip-rule="evenodd" fill="#FFE2B7" d="M450.8,107.1c-0.9,1.6-6.7,5.5-11.7,3.5
			c-9.9-4.5-4.2-13.6-3.9-14.1c0.3,0.3,0.6,0.5,0.7,0.6c2.8,2.4,4.8-3.3,4.8-3.3l10,5.5c0,0-4.3,3.9-1,6.8
			C450,106.3,450.4,106.7,450.8,107.1"/>
		<path fill-rule="evenodd" clip-rule="evenodd" fill="#A29C8F" d="M451.8,138.1c0,0-8.8,20.4-12.2,34.3
			c-24.5,5.9-40.6-5.5-47.9-12.7c-3.1-3-4.6-5.3-4.6-5.3s6.6-12,10.6-20.9c4-8.9,10-20.6,14.4-28.4c0.2-1.3-3.8-7.4-7.8-16.2
			c5.5-2.3,14.4-11.2,14.4-11.2l16.8,18.9c0,0-5.1,8.3,1.5,12.7c6.5,4.4,10.8,0.6,14.1-2.1c2.6,3.6,16.7,16.2,25.2,22.1l-11,18.5
			C465,147.8,455.3,142.2,451.8,138.1"/>
		<path fill-rule="evenodd" clip-rule="evenodd" fill="#FCBD30" d="M447.4,68.2c-1.4-0.3-3,0.3-4,1.4c-1,1.1-1.3,2.7-0.9,4.1
			c-1.1-0.6-2.6,0.1-3.1,1.3c-0.5,1.1-0.4,2.5-0.1,3.7c0.3,1.4,0.7,2.9,2,3.7c0.9,0.6,2,0.6,3,0.5c0.7-0.1,1.5-0.4,2.1-0.8
			c0.7-0.5,1.2-1.2,1.7-1.9c1.8-2.4,3.6-4.8,5.4-7.1c0.4-0.5,0.7-1.1,0.6-1.6"/>
		<path fill-rule="evenodd" clip-rule="evenodd" fill="#FFE2B7" d="M460.7,95.6c-1.4,1.4-2.9,2.7-4.5,3.9c-2.4,1.8-4.9,2.2-7.5,0.8
			c-3-1.5-6.3-3.1-8.9-5.4c-2.9-2.5-3.3-4.9-1.7-8.4c1-2.2,1.9-4.3,2.9-6.5c2.1-4.6,4.5-9,7.3-13.2c0.6-1,1.4-2.4,2.8-1.8
			c4.4,1.9,8.7,4.2,12.7,6.9c2.8,1.9,5.7,4.1,6.8,7.3c1.2,3.2,0.5,6.8-0.3,10.1c-0.1,0.5-0.4,1.2-0.9,1.2"/>
		<path fill-rule="evenodd" clip-rule="evenodd" fill="#FCBD30" d="M460.3,88.4c0.8-0.8,2.4,0.1,2.6,1.2c0.2,1.2-0.4,2.3-1,3.3
			c-0.7,1.3-2.1,2.1-3.4,2.8c-1.3,0.6-2.7,0.6-3-0.8c-1.2,1.8-0.7,4.1,0.5,5c1.2,0.9,3,0.8,4.1-0.2c4.2,5.4,10.9-1.4,13.7-5.1
			c2.2-2.9,3.5-7.3,3.5-11c0-2-0.7-4-2.1-5.5c1.1-2.1,0.7-4.8-0.4-6.8c-1.1-2.1-2.4-3.5-4.1-5.2c-1.1-1-4.9-2.2-6.3-1.3
			C462.9,62,460,62,458,61c-2-0.9-5.1-0.5-5.4,1.7c-2.3-2.7-7.5-1.4-8.5,2.1c-0.9,3.4,2.5,7.2,6.1,6.7c-0.3,2.4,1.1,4.8,3.2,6.2
			c2.1,1.3,4.6,1.7,7,1.6c-1.3,0.7-2.4,2.1-2.6,3.7c-0.2,1.6-0.3,2.8,1.8,3.6c0,0-2,2.8-1.1,2.9C459.3,89.5,460.3,88.4,460.3,88.4"
			/>
		<path fill-rule="evenodd" clip-rule="evenodd" fill="#FFE2B7" d="M388.9,11.4c0.2-0.7,1.1-0.2,1.2,0.4c0,0.1,0,0.3,0.1,0.5
			c0.1-1.2,0.2-2.2,0.2-2.4c0.2-0.7,1-0.3,1.2,0.3c0-0.5,0.1-0.8,0.1-1c0.2-0.9,1.1-0.4,1.2,0.4c0,0.2,0,0.6,0,1.3
			c0-0.3,0.1-0.6,0.1-0.7c0.2-0.7,1-0.4,1.1,0.2c0.1,0.2,0,0.6,0,1.4c0,0.7,0.1,1.6,0.1,2.3c0,0.7,0.3,3.9,1.9,4.5
			c2.3,0.8,1.4-3.5,3.2-4.2c0.6-0.2,0.7,3.1,0.5,4.9c-0.2,1.8-0.3,2.7-0.6,3.8c-0.3,1.1-1.1,2.5-1.1,3.2c0,0.7,0.5,2.5,0.5,2.5
			l-5.8,1.5c0,0-0.7-3.6-1.3-4.5c-1.6-2.1-2.7-4.3-3-6.9c-0.2-1.6-0.1-3.3,0-5C388.5,13.9,388.8,11.7,388.9,11.4"/>
		<path fill-rule="evenodd" clip-rule="evenodd" fill="#7F786A" d="M439.5,172.4c-24.5,5.9-40.6-5.5-47.9-12.7
			c25.6,19.6,42.6,10.7,45.3,10.1c0.8-6,12.5-34.2,12.5-34.2s1.9,2.3,2.4,2.5C451.8,138.1,443,158.5,439.5,172.4"/>
		<path fill-rule="evenodd" clip-rule="evenodd" fill="#A29C8F" d="M392.7,192.5c0,0-0.6,6.2-0.7,10.2c-1.4,2.5-2.5,4.4-2.5,4.4
			S390.1,200.5,392.7,192.5"/>
		<path fill-rule="evenodd" clip-rule="evenodd" fill="#57575E" d="M223.3,24.6h106.6c4.1,0,7.4-2.4,7.4-5.3V7.4
			c0-2.9-3.3-5.3-7.4-5.3H223.3c-4.1,0-7.4,2.4-7.4,5.3v11.9C215.9,22.2,219.2,24.6,223.3,24.6"/>
	</g>
</g>
<text transform="matrix(1 0 0 1 223.5034 18.8281)" fill="#FFF4DD" font-family="'MyriadPro-Regular'" font-size="18px">Travel Agency</text>
</svg>
