<svg xmlns="http://www.w3.org/2000/svg" xmlns:xlink="http://www.w3.org/1999/xlink" width="372" height="255" viewBox="0 0 372 255"><defs/><defs><path id="a" d="M26 1.3C24.4 2 23.1 3 22 4c2.6.6 5 2.3 6.5 4.6a11 11 0 011.5 7.9c-.2 1-.8 2.3-1.9 2.6-1.4.3-2.5-1.3-3.2-2.6l-4.2-8.7c-.5-1-1-2-1.8-2.9a3.9 3.9 0 00-3-1.3c-1.6.1-2.8 1.5-4.3 2-2 .9-4.4 0-5.5-1.8L5.5 2c-1 1.5-.8 3.5-.8 5.3C5 13.4 3.6 19.5.7 25c1.7 3.3 5.4 5 9 5.5 2.3.3 4.5.2 6.8.1h4.2c.8 0 1.7 0 2.5.4s1.4 1.2 1.5 2c0 .8-.5 1.5-1.2 2-.6.5-1.4.7-2.1 1-2.2.6-6.9.9-9.2.4-4-.7-9.8-5-10.3-7l1.5 13c0 1 .2 2 .7 2.9 1 1.5 2.9 2 4.6 2.3 3.2.5 6.4 1 9.6.6 3.2-.3 6.4-1.4 8.8-3.5.9-.7 1.7-1.7 2.8-2.2 1-.5 2.5-.5 3.2.4.7.7.6 1.9 0 2.7-.4.9-1.2 1.5-2 2-7.3 4.7-17 5.1-24.6 1 3 2 3.7 6.2 6.6 8.2a9.4 9.4 0 005.7 1.2c7.1-.4 13.9-4.4 17.7-10.4.5-.9 1-1.9 2.2-2 1.1 0 2 .9 2.3 2 .3 1.6-.6 3.1-1.7 4.4-5.6 6.6-15 10-23.5 8.3 1.8 1.9 3.6 3.8 5.8 5.3 2.2 1.6 4.8 2.6 7.4 2.6a14 14 0 009.2-4.2c3.8-3.5 6.3-8.2 7.1-13.2.2-.9.3-1.8.7-2.5.5-.8 1.4-1.3 2.2-1 .8.2 1.2 1 1.2 2 0 .8-.5 1.5-.8 2.3-2.6 4.8-2.4 10.2-5.7 14.6-3.6 4.8-10.4 5.3-10.4 5.3s4.8 6.8 16.3 6c2.8-.2 7.7-1.8 10.2-4.5 2.3-2.6 5.6-7.8 6.3-11.3.7-3.3.5-5.9-1.6-8.4l-.6-.7c-.7-.6-2-2-1.6-2.5.8-1.1 2.8-.1 3.8 1 1 1 1.6 2.3 2.6 3.3 1.8 1.7 4.6 2 6.9 1 2.3-.9 4-2.9 5-5.1.9-2.3 1.1-4.8 1-7.2 0-8.5-3.9-16.7-10.1-22.4.8 5.4-2.2 11.2-7 13.7-.7.3-1.3.6-2 .5-.7 0-1.4-.6-1.5-1.3-.1-1 1-1.6 1.8-2 4.2-2.5 7-7.2 7.2-12.2L67 17c-6.3-6.7-12-9.8-20.5-13 1.6 3 3.2 6 4 9.3 1 3.3 1 6.9-.4 10-.4.8-.8 1.5-1.6 2-.7.5-1.8.5-2.4 0-.7-.7-.6-1.8-.5-2.8l.7-7.5c.3-3.3.6-6.7-1-9.6-1-1.9-2.8-3.3-5-4a8.2 8.2 0 00-6.2 1c4.4 3.7 7 9.3 7.3 15.1 0 .8 0 1.6-.3 2.4-.3.7-1 1.3-1.8 1.4-1 0-1.8-.7-2.1-1.5-.4-.8-.5-1.8-.5-2.7-.3-3.8-1.1-7.5-2.4-11-.8-2-1.8-4.1-3.7-5a6.8 6.8 0 00-4.6.2m6.6 27.3c-.4-.1-.9-.4-1.2-.8-1-1-1.7-2.3-1.8-3.7 0-.5 0-1 .2-1.4.2-.4.5-.8 1-1 .5 0 1.2.2 1.6.6l1.5 2.2c.4.7.6 1 .8 1.8.2.8 0 1.7-.6 2.2l-.9.2a2 2 0 01-.6 0m7.5 2.1l-.6-1.4c-.7-1.3-1-2.8-.6-4.2.2-.5.4-.9.7-1.2.3-.3.8-.5 1.3-.4.6.1 1 .8 1.2 1.4.5 1.4.8 2.9.7 4.4 0 .5 0 1-.3 1.4-.2.4-.6.8-1 .8h-.2c-.5 0-1-.3-1.2-.8m-15.9-3.2a4 4 0 01-1.5-1.2l-.2-.2c-.2-.3-.3-.6-.2-1 .2-.2.4-.4.7-.4h1l1.2.5c.4.3.8.6.9 1.1 0 .5-.1 1-.5 1.2a1 1 0 01-.6.2l-.8-.2m29 9.8c-1-.4-1.6-1.6-1.5-2.7 0-1.1.6-2.1 1.1-3.1l1.2-2.2c.2-.6.4-1.1.8-1.6a2 2 0 011.5-.8c1 0 1.8 1.1 2 2.2.7 2.6-.2 5.5-2.2 7.3-.6.5-1.4 1-2.3 1a2 2 0 01-.6-.1m-5.5-4.2c-.5-.4-.7-1-.7-1.7 0-.9.2-1.8.6-2.5l.3-.4c.1-.4.5-.7 1-.7.3 0 .7.2 1 .6l.3 1c.2.7.3 1.3.2 2-.1.6-.4 1.2-1 1.6-.2.2-.5.3-.9.3-.3 0-.6 0-.8-.2M29.7 39c-1-.2-2.1-1-2-2.1 0 0 .4-1.6 2-2.5 1-.7 2.3-1.2 3.5-1 .6.2 1.3.5 1.7 1 .5.5.7 1.2.6 1.9-.3 1-1.5 1.6-2.6 2a8 8 0 01-2.7.7h-.5m10.4 5c-1-.1-2.2-.4-2.5-1.4-.3-.9.2-1.8 1-2.3 0 0 1.9-.8 2.5-1.2.9-.5 2-.7 3 0 .8.5 1.2 1.7 1 2.7-.4 1-1.2 1.7-2.1 2-.6.2-1.2.3-1.9.3l-1-.1m20 .1c-1.3-.4-2-2.1-1.3-3.4.4-.6.8-1 1.3-1.3 1.6-1 9-.2 8.9 1.5 0 .8-.6 1.6-1.2 2.2-.7.6-1.5 1-2.4 1.2a9.2 9.2 0 01-5.2-.2m-7.9 16.5c-1.1-.4-1.7-1.8-1.6-3a9 9 0 011-3.4s1.3-4.6 2.3-5.5c.4-.4 1-.4 1.5-.1.5.3.8.8 1 1.3a10 10 0 01.2 8c-.4.9-1 1.7-1.7 2.3-.5.4-1.2.6-1.8.6-.3 0-.6 0-.9-.2"/><path id="c" d="M.6 1.5l1 .6-.3.2-.5-.4c-.4-.3-.9.4-.5.7a84.8 84.8 0 0118 15.4l1.4 1.5.3.1.6.7c.4.5 1 0 .7-.5a78.6 78.6 0 00-7.1-7.8A67.5 67.5 0 00.9.8c-.4 0-.6.5-.3.7"/><path id="f" d="M4.4.6c-1.1 0-2.2.5-3 1.3-.8.8-1.2 1.9-1.2 3 0 2.3 2 4.2 4.3 4.2 1.2 0 2.3-.5 3.1-1.3.8-.8 1.3-2 1.2-3 0-2.4-2-4.2-4.3-4.2zM1.5 4.9c0-.8.3-1.5.9-2a3 3 0 012-1h.1a3 3 0 013 2.9c0 .7-.3 1.5-.8 2a3 3 0 01-5.1-2z"/><path id="i" d="M6.4.8C3.4.8.9 3.4 1 6.4a5.5 5.5 0 1011-.2C11.8 3.2 9.3.8 6.4.8h-.1"/><path id="l" d="M3.7.5a3 3 0 00-3 3.1 3 3 0 003.1 3 3 3 0 003-3.1 3 3 0 00-3-3"/><path id="o" d="M0 0h371.1v20H0z"/><path id="q" d="M15.8 1.6A22.6 22.6 0 001.4 30.1c4 11.8 16.8 18 28.7 14a22.6 22.6 0 0014.3-28.4 22.5 22.5 0 00-28.6-14"/><path id="s" d="M24.9 68.3c-1.5-4.7-6.2-7.1-11.3-6.8-2.4.1-4.2 1-5.3 1.7l-4.5-6.6-2.9 2L13.5 77a1.7 1.7 0 002.3.5L145.4 3l-1.8-3L25 68.3z"/><path id="u" d="M89.2 9.6L.2 29.3l6.4 8.9L186.3.1z"/><path id="w" d="M4 1.4C0 3.7-1.2 9.4 1.6 14l1 1.6 5.4-.9 2.3-4-.8.1c-1.3.3-2.6-.5-3-1.9l-.7.1c-.2.1-.5-.1-.6-.5 0-.3.1-.6.4-.7h.6c0-.6 0-1 .2-1.4l-1 .2c-.3 0-.6-.1-.7-.5 0-.3.1-.6.4-.7l3.2-.6 2-.4c.3-.1.6.1.7.5 0 .3-.1.6-.4.7L8.5 6c-.7.1-1.2.7-1.2 1.5l3.5-.7c.3 0 .6.1.7.5 0 .3-.1.6-.4.7l-3.6.7c.4.7 1 1 1.7 1l2.1-.5h.2c.2 0 .3.1.4.3v.7l-2.4 4.3 8-1.3c.6-2.4.2-5.2-1.2-7.7C14.3 2.3 11 .4 7.8.4 6.5.4 5.2.7 4 1.4"/><path id="y" d="M8.8 1.2C3.7 3 .7 8.7.7 15.2v1.3l27.1-4.3-.8-1.7c-3.4-6.2-9-10-14.4-10-1.2 0-2.5.2-3.8.7"/><path id="A" d="M1.8 9.6a1.7 1.7 0 00-1 2.7l13.4 17.4L18 29l-6.8-9c3.6-2 5.7-6.1 5-10.4L16 9 44.7 1H32.2L1.8 9.6z"/><path id="C" d="M.2 1.7l4.7-1-4.7 1z"/><path id="F" d="M18.2 1.7L.7 25.2a1.7 1.7 0 00.9 2.7l26.4 8 5-2-18.4-5.6A9.8 9.8 0 0012 15.9L23.1.9 23 .6l-4.7 1z"/><path id="H" d="M5 1.1C.8 3.7-.4 10 2.5 15.1c3 5.1 9 7.2 13.4 4.6 4.4-2.5 5.6-8.8 2.7-13.9A11 11 0 009.2.1C7.8 0 6.4.4 5.1 1"/><path id="J" d="M.7 6.4a47.4 47.4 0 001 1.8c5 9 14.7 13 21.4 9.2 5-2.8 7-9.3 5.6-16.2l-.1-.5L.7 6.4z"/><path id="L" d="M.3 1.3h.4-.4z"/><path id="O" d="M16.8.6L5.8.8C-.5.8.2 6.8.8 13c0 0 1.6 17.9.2 24-.4 1.4 9.7 6.8 17.6 7 8.5.2 11-2.5 11-2.5s.8-19.4-2-28c-2.3-7.2-7-13-10.3-13h-.5"/><linearGradient id="d" x1="-241.9%" x2="6.1%" y1="-141.9%" y2="20.7%"><stop offset="0%" stop-color="#A8F2FF"/><stop offset="100%" stop-color="#8595F9"/></linearGradient><linearGradient id="g" x1="100%" x2="0%" y1="50%" y2="50%"><stop offset="0%" stop-color="#FFB218"/><stop offset="100%" stop-color="#FFCF44"/></linearGradient><linearGradient id="j" x1="100%" x2="0%" y1="50%" y2="50%"><stop offset="0%" stop-color="#FFB218"/><stop offset="100%" stop-color="#FFCF44"/></linearGradient><linearGradient id="m" x1="100%" x2="0%" y1="50%" y2="50%"><stop offset="0%" stop-color="#FFB218"/><stop offset="100%" stop-color="#FFCF44"/></linearGradient><linearGradient id="D" x1="214.4%" x2="-442.6%" y1="45%" y2="65%"><stop offset="0%" stop-color="#FFB218"/><stop offset="100%" stop-color="#FFCF44"/></linearGradient><linearGradient id="M" x1="1008.5%" x2="-408.9%" y1="-582.8%" y2="352.9%"><stop offset="0%" stop-color="#FFB218"/><stop offset="100%" stop-color="#FFCF44"/></linearGradient></defs><g fill="none" fill-rule="evenodd"><path fill="#619440" d="M97.9 179.6c-.6-2.7-2.2-11.7-4.8-12.7-2.8-1-6.3.3-7.8 3-.6 1.1-.8 2.5-2 3.3-.7.4-1.6.4-2.1-.2-.9-.9 0-2.3.7-3.3 1.3-2 2.3-4.3 2.3-6.7 0-2.4-1-4.8-3-6.1-2-1.3-5-1.2-6.6.6-1 1.1-1.5 2.7-2.8 3.5-.7.5-1.6.6-2.2 0-1.4-.9-.5-3 .4-4.3 1.3-2 2.5-4.1 2.8-6.4.3-2.3-.2-4.8-2-6.4-1.6-1.6-4.5-2-6.3-.4-.7.6-1.2 1.4-1.8 2-.8.9-2 1.4-3 .6-.7-.6-.8-1.6-.5-2.4.5-1.2 1.4-1.9 2.3-2.6a6.8 6.8 0 002.7-4.5c.6-5.4-5.4-7.5-8.7-5.1-1 .7-2 1.7-3 1.4-1-.3-1.5-1.3-1.4-2.2.2-1.9 1.8-3 2.6-4.5 1.5-2.7-.2-6.7-3.2-7.5-2.4-.7-3 2.3-4 5-.2.6-1.1.4-1.2-.2-.3-2.6-1.1-5.8-1.8-7.6-1.2-3.2-6-6.8-8.4-2.1-.6 1.2-.1 4.5.7 5.4 1.1 1.2 3.8 5.6 3.8 5.6.3.5-.3 1-.7.7-1.1-.7-2.3-1.2-3.6-1.4-.6 0-1.2 0-1.8.2-3.4 1.2-2.8 5.4-.7 7.4 1.9 1.7 4.4 2.2 6.8 2.8 1.2.3 2.5.7 3.2 1.9.3.7.2 1.5-.4 2-.6.6-1.4.3-2.1.2-2.5-.3-4.7 2.1-4.7 4.6 0 2.4 1.9 4.6 4 5.7 2.3 1 4.8 1.2 7.2 1 1.3 0 2.6 0 3.5.8.6.5.7 1.4.3 2-.7.9-2 .5-3 .4-3-.1-5.2 3.1-4.8 6 .5 2.9 3 5.1 5.8 6 3.1 1 6.6.5 9.8.1.7-.1 1.5.3 1.8 1 .3 1-.6 1.6-1.4 2.1-2.7 2-3.8 6.1-2.4 9.3 1.4 3.1 5.1 5 8.5 4.3 2.1-.5 4-1.8 6.4-1.1 1.1.3 2 1.4 1.7 2.6-.3 1.5-2 1.9-3.2 2.6-3.4 2-4 7.1-1.7 10.4 2.2 3.2 9.5 3.3 13.5 3 4-.2 12.2-.5 16.4-3.2 2-1.3.5-14-.1-16.6"/><path fill="#306B34" d="M35.1 113.8c-.6 1.2-.1 4.5.7 5.4 1.1 1.2 3.8 5.6 3.8 5.6.3.5-.3 1-.7.7-1.1-.7-2.3-1.2-3.6-1.4-.6 0-1.2 0-1.8.2-3.4 1.2-2.8 5.4-.7 7.4 1.9 1.7 4.4 2.2 6.8 2.8 1.2.3 2.5.7 3.2 1.9.3.7.2 1.5-.4 2-.6.6-1.4.3-2.1.2-2.5-.3-4.7 2.1-4.7 4.6 0 2.4 1.9 4.6 4 5.7 2.3 1 4.8 1.2 7.2 1 1.3 0 2.6 0 3.5.8.6.5.7 1.4.3 2-.7.9-2 .5-3 .4-3-.1-5.2 3.1-4.8 6 .5 2.9 3 5.1 5.8 6 3.1 1 6.6.5 9.8.1.7-.1 1.5.3 1.8 1 .3 1-.6 1.6-1.4 2.1-2.7 2-3.8 6.1-2.4 9.3 1.4 3.1 5.1 5 8.5 4.3 2.1-.5 4-1.8 6.4-1.1 1.1.3 2 1.4 1.7 2.6-.3 1.5-2 1.9-3.2 2.6-3.4 2-7 9.3-4.7 12.6 2.3 3.2 12.5 1.1 16.5.9 3.7-.3 11.1-.6 15.5-2.8l1-.5s-22-19-40.8-44.1c-10.5-14-19.8-40.5-19.8-40.5l-.8.4c-.7.5-1.4 1.5-1.6 1.8"/><g transform="translate(5 162.3)"><mask id="b" fill="#fff"><use xlink:href="#a"/></mask><path fill="#FBBF00" d="M26 1.3C24.4 2 23.1 3 22 4c2.6.6 5 2.3 6.5 4.6a11 11 0 011.5 7.9c-.2 1-.8 2.3-1.9 2.6-1.4.3-2.5-1.3-3.2-2.6l-4.2-8.7c-.5-1-1-2-1.8-2.9a3.9 3.9 0 00-3-1.3c-1.6.1-2.8 1.5-4.3 2-2 .9-4.4 0-5.5-1.8L5.5 2c-1 1.5-.8 3.5-.8 5.3C5 13.4 3.6 19.5.7 25c1.7 3.3 5.4 5 9 5.5 2.3.3 4.5.2 6.8.1h4.2c.8 0 1.7 0 2.5.4s1.4 1.2 1.5 2c0 .8-.5 1.5-1.2 2-.6.5-1.4.7-2.1 1-2.2.6-6.9.9-9.2.4-4-.7-9.8-5-10.3-7l1.5 13c0 1 .2 2 .7 2.9 1 1.5 2.9 2 4.6 2.3 3.2.5 6.4 1 9.6.6 3.2-.3 6.4-1.4 8.8-3.5.9-.7 1.7-1.7 2.8-2.2 1-.5 2.5-.5 3.2.4.7.7.6 1.9 0 2.7-.4.9-1.2 1.5-2 2-7.3 4.7-17 5.1-24.6 1 3 2 3.7 6.2 6.6 8.2a9.4 9.4 0 005.7 1.2c7.1-.4 13.9-4.4 17.7-10.4.5-.9 1-1.9 2.2-2 1.1 0 2 .9 2.3 2 .3 1.6-.6 3.1-1.7 4.4-5.6 6.6-15 10-23.5 8.3 1.8 1.9 3.6 3.8 5.8 5.3 2.2 1.6 4.8 2.6 7.4 2.6a14 14 0 009.2-4.2c3.8-3.5 6.3-8.2 7.1-13.2.2-.9.3-1.8.7-2.5.5-.8 1.4-1.3 2.2-1 .8.2 1.2 1 1.2 2 0 .8-.5 1.5-.8 2.3-2.6 4.8-2.4 10.2-5.7 14.6-3.6 4.8-10.4 5.3-10.4 5.3s4.8 6.8 16.3 6c2.8-.2 7.7-1.8 10.2-4.5 2.3-2.6 5.6-7.8 6.3-11.3.7-3.3.5-5.9-1.6-8.4l-.6-.7c-.7-.6-2-2-1.6-2.5.8-1.1 2.8-.1 3.8 1 1 1 1.6 2.3 2.6 3.3 1.8 1.7 4.6 2 6.9 1 2.3-.9 4-2.9 5-5.1.9-2.3 1.1-4.8 1-7.2 0-8.5-3.9-16.7-10.1-22.4.8 5.4-2.2 11.2-7 13.7-.7.3-1.3.6-2 .5-.7 0-1.4-.6-1.5-1.3-.1-1 1-1.6 1.8-2 4.2-2.5 7-7.2 7.2-12.2L67 17c-6.3-6.7-12-9.8-20.5-13 1.6 3 3.2 6 4 9.3 1 3.3 1 6.9-.4 10-.4.8-.8 1.5-1.6 2-.7.5-1.8.5-2.4 0-.7-.7-.6-1.8-.5-2.8l.7-7.5c.3-3.3.6-6.7-1-9.6-1-1.9-2.8-3.3-5-4a8.2 8.2 0 00-6.2 1c4.4 3.7 7 9.3 7.3 15.1 0 .8 0 1.6-.3 2.4-.3.7-1 1.3-1.8 1.4-1 0-1.8-.7-2.1-1.5-.4-.8-.5-1.8-.5-2.7-.3-3.8-1.1-7.5-2.4-11-.8-2-1.8-4.1-3.7-5a6.8 6.8 0 00-4.6.2m6.6 27.3c-.4-.1-.9-.4-1.2-.8-1-1-1.7-2.3-1.8-3.7 0-.5 0-1 .2-1.4.2-.4.5-.8 1-1 .5 0 1.2.2 1.6.6l1.5 2.2c.4.7.6 1 .8 1.8.2.8 0 1.7-.6 2.2l-.9.2a2 2 0 01-.6 0m7.5 2.1l-.6-1.4c-.7-1.3-1-2.8-.6-4.2.2-.5.4-.9.7-1.2.3-.3.8-.5 1.3-.4.6.1 1 .8 1.2 1.4.5 1.4.8 2.9.7 4.4 0 .5 0 1-.3 1.4-.2.4-.6.8-1 .8h-.2c-.5 0-1-.3-1.2-.8m-15.9-3.2a4 4 0 01-1.5-1.2l-.2-.2c-.2-.3-.3-.6-.2-1 .2-.2.4-.4.7-.4h1l1.2.5c.4.3.8.6.9 1.1 0 .5-.1 1-.5 1.2a1 1 0 01-.6.2l-.8-.2m29 9.8c-1-.4-1.6-1.6-1.5-2.7 0-1.1.6-2.1 1.1-3.1l1.2-2.2c.2-.6.4-1.1.8-1.6a2 2 0 011.5-.8c1 0 1.8 1.1 2 2.2.7 2.6-.2 5.5-2.2 7.3-.6.5-1.4 1-2.3 1a2 2 0 01-.6-.1m-5.5-4.2c-.5-.4-.7-1-.7-1.7 0-.9.2-1.8.6-2.5l.3-.4c.1-.4.5-.7 1-.7.3 0 .7.2 1 .6l.3 1c.2.7.3 1.3.2 2-.1.6-.4 1.2-1 1.6-.2.2-.5.3-.9.3-.3 0-.6 0-.8-.2M29.7 39c-1-.2-2.1-1-2-2.1 0 0 .4-1.6 2-2.5 1-.7 2.3-1.2 3.5-1 .6.2 1.3.5 1.7 1 .5.5.7 1.2.6 1.9-.3 1-1.5 1.6-2.6 2a8 8 0 01-2.7.7h-.5m10.4 5c-1-.1-2.2-.4-2.5-1.4-.3-.9.2-1.8 1-2.3 0 0 1.9-.8 2.5-1.2.9-.5 2-.7 3 0 .8.5 1.2 1.7 1 2.7-.4 1-1.2 1.7-2.1 2-.6.2-1.2.3-1.9.3l-1-.1m20 .1c-1.3-.4-2-2.1-1.3-3.4.4-.6.8-1 1.3-1.3 1.6-1 9-.2 8.9 1.5 0 .8-.6 1.6-1.2 2.2-.7.6-1.5 1-2.4 1.2a9.2 9.2 0 01-5.2-.2m-7.9 16.5c-1.1-.4-1.7-1.8-1.6-3a9 9 0 011-3.4s1.3-4.6 2.3-5.5c.4-.4 1-.4 1.5-.1.5.3.8.8 1 1.3a10 10 0 01.2 8c-.4.9-1 1.7-1.7 2.3-.5.4-1.2.6-1.8.6-.3 0-.6 0-.9-.2" mask="url(#b)"/></g><g transform="translate(62 208.3)"><mask id="e" fill="#fff"><use xlink:href="#c"/></mask><path fill="url(#d)" d="M.6 1.5l1 .6-.3.2-.5-.4c-.4-.3-.9.4-.5.7a84.8 84.8 0 0118 15.4l1.4 1.5.3.1.6.7c.4.5 1 0 .7-.5a78.6 78.6 0 00-7.1-7.8A67.5 67.5 0 00.9.8c-.4 0-.6.5-.3.7" mask="url(#e)"/></g><path fill="#306B34" d="M30.8 155.6a3.7 3.7 0 006 3.3 3.7 3.7 0 00.7-5.2 3.7 3.7 0 00-5.3-.6c-.8.6-1.2 1.5-1.4 2.5m7 4.5a5.2 5.2 0 01-7.4-.8 5.2 5.2 0 011-7.3 5.2 5.2 0 017.3.8 5.3 5.3 0 01-.9 7.3"/><g transform="translate(45 107.3)"><mask id="h" fill="#fff"><use xlink:href="#f"/></mask><path fill="url(#g)" d="M4.4.6c-1.1 0-2.2.5-3 1.3-.8.8-1.2 1.9-1.2 3 0 2.3 2 4.2 4.3 4.2 1.2 0 2.3-.5 3.1-1.3.8-.8 1.3-2 1.2-3 0-2.4-2-4.2-4.3-4.2zM1.5 4.9c0-.8.3-1.5.9-2a3 3 0 012-1h.1a3 3 0 013 2.9c0 .7-.3 1.5-.8 2a3 3 0 01-5.1-2z" mask="url(#h)"/></g><g transform="translate(56 116.3)"><mask id="k" fill="#fff"><use xlink:href="#i"/></mask><path fill="url(#j)" d="M6.4.8C3.4.8.9 3.4 1 6.4a5.5 5.5 0 1011-.2C11.8 3.2 9.3.8 6.4.8h-.1" mask="url(#k)"/></g><g transform="translate(23 146.3)"><mask id="n" fill="#fff"><use xlink:href="#l"/></mask><path fill="url(#m)" d="M3.7.5a3 3 0 00-3 3.1 3 3 0 003.1 3 3 3 0 003-3.1 3 3 0 00-3-3" mask="url(#n)"/></g><g transform="translate(0 233.3)"><mask id="p" fill="#fff"><use xlink:href="#o"/></mask><path fill="#F7E8C8" d="M371.1 10c0-5.5-83-10-185.5-10S0 4.5 0 10s83 10 185.6 10C288 20 371 15.5 371 10" mask="url(#p)"/></g><path fill="#FFA087" d="M152.5 85.4c.5 0 .9-.3 1-.7l.4-2.3h-.8l-.6 3z"/><path fill="#FFBF4D" d="M112.8 118.3a28.5 28.5 0 0036.2 17.8c15-5 23-21.2 18-36a28.5 28.5 0 00-36-17.7c-15 5-23.2 21-18.2 36"/><path fill="#FEBF00" d="M117.2 116.9a24 24 0 0030.3 14.9 24 24 0 0015.2-30.2 24 24 0 00-30.3-15 24 24 0 00-15.2 30.3"/><g transform="translate(117 86.3)"><mask id="r" fill="#fff"><use xlink:href="#q"/></mask><path fill="#FFAF12" d="M15.8 1.6A22.6 22.6 0 001.4 30.1c4 11.8 16.8 18 28.7 14a22.6 22.6 0 0014.3-28.4 22.5 22.5 0 00-28.6-14" mask="url(#r)"/></g><g fill="#FFDE8E"><path d="M143.8 96c.8-.3 1.2-1.2.9-2.1-.3-1-1.2-1.5-2-1.2l-8.6 2.9-5.7 1.9c-.8.3-1.2 1.2-.9 2.1.3 1 1.2 1.5 2 1.2l5.7-2c1.9-.5 4 .3 5.2 2l-9.8 3.3c-.8.3-1.2 1.3-.9 2.2.4.9 1.2 1.4 2 1.1l9.8-3.2c0 2-1 4-3 4.6l-5.6 2c-.2 0-.4.1-.5.3-.3.3-.5.7-.5 1.1 0 .5.1 1 .4 1.3l.5.4 16 9.5c.3.2.7.2 1 .1.5-.1.8-.4 1-.8a2 2 0 00-.9-2.4l-12.5-7.4 2.3-.7c3.5-1.2 5.4-5 4.8-9l1.5-.6c.8-.2 1.2-1.2 1-2.1-.4-1-1.3-1.5-2-1.2l-1.6.5a9.3 9.3 0 00-2.5-2.8l3-1zm9 124.5l16.7 23.7 146.8-86.8z"/><path d="M163.7 224.2l1.5 2.7 5.5 9.4 8.5-5.6 1.6-1.1c-1-4.8-5.5-7.9-11.2-7.5-2.8.1-4.7 1.3-5.7 2h-.2zm6.8 13l-5.8-10c-1.7-3-1.7-3.1-1.6-3.2v-.1l.1-.1.4-.2c1-.7 3-2 6-2.1 6-.4 10.9 3 11.8 8 0 .3 0 .4-1.9 1.7l-9 6z"/></g><g transform="translate(156 160.3)"><mask id="t" fill="#fff"><use xlink:href="#s"/></mask><path fill="#FFAF12" d="M24.9 68.3c-1.5-4.7-6.2-7.1-11.3-6.8-2.4.1-4.2 1-5.3 1.7l-4.5-6.6-2.9 2L13.5 77a1.7 1.7 0 002.3.5L145.4 3l-1.8-3L25 68.3z" mask="url(#t)"/></g><g transform="translate(130 157.3)"><mask id="v" fill="#fff"><use xlink:href="#u"/></mask><path fill="#FFAF12" d="M89.2 9.6L.2 29.3l6.4 8.9L186.3.1z" mask="url(#v)"/></g><g fill="#FFDE8E"><path d="M114.3 165.4l26.5-8.2h11.4l-30.4 8.7a1.7 1.7 0 00-1 2.7l13.4 17.4-4 .6-16-21.2z"/><path d="M136.1 166v-.6l28.6-8.2 151.6.2-178.3 28-6.8-9c3.6-2 5.7-6.2 5-10.4"/></g><g transform="translate(157 166.3)"><mask id="x" fill="#fff"><use xlink:href="#w"/></mask><path fill="#FFAF12" d="M4 1.4C0 3.7-1.2 9.4 1.6 14l1 1.6 5.4-.9 2.3-4-.8.1c-1.3.3-2.6-.5-3-1.9l-.7.1c-.2.1-.5-.1-.6-.5 0-.3.1-.6.4-.7h.6c0-.6 0-1 .2-1.4l-1 .2c-.3 0-.6-.1-.7-.5 0-.3.1-.6.4-.7l3.2-.6 2-.4c.3-.1.6.1.7.5 0 .3-.1.6-.4.7L8.5 6c-.7.1-1.2.7-1.2 1.5l3.5-.7c.3 0 .6.1.7.5 0 .3-.1.6-.4.7l-3.6.7c.4.7 1 1 1.7 1l2.1-.5h.2c.2 0 .3.1.4.3v.7l-2.4 4.3 8-1.3c.6-2.4.2-5.2-1.2-7.7C14.3 2.3 11 .4 7.8.4 6.5.4 5.2.7 4 1.4" mask="url(#x)"/></g><path fill="#FFDE8E" d="M166.5 177.2c-1.3.3-2.6-.5-3-1.9l-.7.1c-.2.1-.5-.1-.6-.5 0-.3.1-.6.4-.7h.6c0-.6 0-1 .2-1.4l-1 .2c-.3 0-.6-.2-.7-.5 0-.3.1-.6.4-.7l3.2-.6 2-.5c.3 0 .6.2.7.5 0 .4-.1.7-.4.8l-2.1.4c-.7.1-1.2.7-1.2 1.5l3.5-.7c.3 0 .6.1.7.5 0 .3-.1.6-.4.7l-3.6.7c.4.7 1 1 1.7 1l2.1-.5h.2c.2 0 .3.1.4.3a.7.7 0 010 .7l-2.4 4.3-1.5.2 2.3-4-.8.1z"/><g transform="translate(199 159.3)"><mask id="z" fill="#fff"><use xlink:href="#y"/></mask><path fill="#FFAF12" d="M8.8 1.2C3.7 3 .7 8.7.7 15.2v1.3l27.1-4.3-.8-1.7c-3.4-6.2-9-10-14.4-10-1.2 0-2.5.2-3.8.7" mask="url(#z)"/></g><path fill="#FFDE8E" d="M120.6 167c.2-.5.6-1 1.2-1l30.4-8.8h12.5l-28.7 8.2.1.6a9.9 9.9 0 01-5 10.4l7 9-4 .6-13.2-17.4c-.4-.4-.5-1-.3-1.6"/><g transform="translate(120 156.3)"><mask id="B" fill="#fff"><use xlink:href="#A"/></mask><path fill="#FFAF12" d="M1.8 9.6a1.7 1.7 0 00-1 2.7l13.4 17.4L18 29l-6.8-9c3.6-2 5.7-6.1 5-10.4L16 9 44.7 1H32.2L1.8 9.6z" mask="url(#B)"/></g><g fill="#FFDE8E"><path d="M131.7 208.8l-.8-.6 11.2-15-.2-.2 174.4-35.6L152 226l-18.4-5.6c2-3.8 1.4-8.6-2-11.7"/><path d="M111 222l19.8-26.8 6.4-1.3-17.5 23.6a1.7 1.7 0 00.9 2.7l26.4 8-6 2.5-30-8.7z"/></g><g transform="translate(137 192.3)"><mask id="E" fill="#fff"><use xlink:href="#C"/></mask><path fill="url(#D)" d="M.2 1.7l4.7-1-4.7 1z" mask="url(#E)"/></g><path fill="#FFDE8E" d="M119.4 219c-.2-.5 0-1 .3-1.5l17.5-23.6 4.7-1 .2.2-11.2 15 .8.7c3.3 3.1 4 8 2 11.7l18.3 5.6-5 2.1-26.4-8c-.6-.2-1-.6-1.2-1.1"/><g transform="translate(119 192.3)"><mask id="G" fill="#fff"><use xlink:href="#F"/></mask><path fill="#FFAF12" d="M18.2 1.7L.7 25.2a1.7 1.7 0 00.9 2.7l26.4 8 5-2-18.4-5.6A9.8 9.8 0 0012 15.9L23.1.9 23 .6l-4.7 1z" mask="url(#G)"/></g><g transform="translate(160 191.3)"><mask id="I" fill="#fff"><use xlink:href="#H"/></mask><path fill="#FFAF12" d="M5 1.1C.8 3.7-.4 10 2.5 15.1c3 5.1 9 7.2 13.4 4.6 4.4-2.5 5.6-8.8 2.7-13.9A11 11 0 009.2.1C7.8 0 6.4.4 5.1 1" mask="url(#I)"/></g><path fill="#FFDE8E" d="M173.8 198.8c.2.1.5-.1.6-.5 0-.3-.1-.6-.4-.7l-3.1-.6-2.1-.4c-.3 0-.6.1-.7.5 0 .3.1.6.4.7l2.1.4c.7.2 1.2.8 1.2 1.5l-3.5-.7c-.3 0-.6.2-.7.5 0 .3.1.7.4.7l3.6.7c-.4.7-1 1-1.7 1l-2.1-.5h-.2c-.2 0-.3.2-.4.3a.7.7 0 000 .7l3.2 5.7.4.2h.4c.2-.3.3-.6.1-1l-2.5-4.4.8.2c1.3.2 2.6-.6 3-2l.7.2c.3 0 .5-.2.6-.5 0-.4-.1-.7-.4-.7l-.6-.2c0-.4 0-.9-.2-1.3l1 .2z"/><g transform="translate(191 176.3)"><mask id="K" fill="#fff"><use xlink:href="#J"/></mask><path fill="#FFAF12" d="M.7 6.4a47.4 47.4 0 001 1.8c5 9 14.7 13 21.4 9.2 5-2.8 7-9.3 5.6-16.2l-.1-.5L.7 6.4z" mask="url(#K)"/></g><g transform="translate(168 184.3)"><mask id="N" fill="#fff"><use xlink:href="#L"/></mask><path fill="url(#M)" d="M.3 1.3h.4-.4z" mask="url(#N)"/></g><g><path fill="#7F786A" d="M211.5 20.3s.8 12.5 5.7 26.6c3.9 10.8 5.7 17.6 11.1 23.7 0 0 4.3.3 9.4-2 4.6-1.9 7.4-5 7.4-5s-7.8-6.3-11.3-19.3c-3.5-12.7-10-23.7-15.4-24.2-5.5-.6-7 .2-7 .2"/><path fill="#FFA087" d="M249.8 165.5c-.6-.1-1-.7-1-1.3l1.1-7.7c.1-.6.6-1 1.2-.8.6.1 1 .7 1 1.3l-1.1 7.7c-.1.6-.6 1-1.2.8"/><path fill="#7F786A" d="M258.8 165.4c.1.3-.1.7-.5.8l-9 1.6c-.4.1-.9-.3-.9-.8l-.3-1.7c0-.5.2-1 .7-1 0 0 .4.7 1.3.6.7 0 .8-.6.7-1 0-.3.2-.4.4-.4l7 1.3c.3 0 .5.3.6.6M213.5 61.2c-3 3-7.6 28-7.6 28l37.4 10.7 4.1 61.4 7.1.8s15-65.5 4.2-77.6c-10.9-12.3-29.8-20.2-30.4-22.2-2.7.8-8.8 1.7-14.8-1m-31.1 116.4a3 3 0 00-.4-.6c-.5-.7-2-.2-2.8.5 0 0-6 4.2-5.6 6 .5 2 7.3-1.5 9.1-2.6.4-.2.5-.6.4-1a18 18 0 00-.7-2.3"/><path fill="#FFA087" d="M180.4 178.8c-.7-.3-1.2-1-1-1.8l1.8-7c.2-.7.9-1 1.6-.8.7.3 1.2 1 1 1.8l-1.8 7c-.2.7-.9 1-1.6.8"/><path fill="#FFB68E" d="M281.4 7l.4 2.2-2.5 1-.8-2z"/><path fill="#FFF0D2" d="M277.3 7.9l2.3-1 1.7 3.8-2.4 1z"/><path fill="#A29C8F" d="M201.6 58.4c-3.6 6.1-9.3 12.1-12 21.8-3 11.4-2.8 19.5-5.2 34-4.8 29.4-4.6 58-5 60.3l5.4 2.8s13.3-33.3 17.5-45.7l13.7-39c2.6-7.6 8.8-29.6 8.8-29.6s-21.2-3.4-23.2-4.6"/><path fill="#FFA087" d="M152.3 85.2s-1.6.1-2-.2c-.4-.2-.6-1-.4-1.4.3-1 1.2-3 2-3 .5-.1 1.3.4 1.8.9.4.3.3 1.3 0 1.7l-1.4 2z"/><path fill="#FFA087" d="M151.8 85.9c.4-.4 1.5-2.3 1.5-2.3l-.8-.5s-1.1 1.9-1.3 2.4c0 .2.4.6.6.4"/><path fill="#FFA087" d="M151 85.8c.4-.4 1.5-2.3 1.5-2.3l-.8-.5s-1.2 1.9-1.3 2.4c-.1.3.3.6.6.4"/><path fill="#FFA087" d="M150.4 85.3c.4-.4 1.5-2.3 1.5-2.3l-.7-.5s-1.2 2-1.3 2.4c-.1.3.3.6.5.4"/><path fill="#FFA087" d="M150 84.6c.4-.3 1.5-2.2 1.5-2.2l-.8-.5s-1.1 1.9-1.3 2.4c0 .3.3.5.6.3m2.7-5.4l-.9 1.8 2 1.1 1-1.5z"/><path fill="#FFF0D2" d="M156.4 78.8l-1.5 3-3.4-2.2 1.5-2.9z"/><path fill="#FFB68E" d="M284.5 5.7s.9.8 1 1.7c.2.5.2 1.6.2 1.6s-2.9 1-3.7.5c-.3-.3-.6-1.3-.8-2-.2-.5 0-1 .5-1.1l2.8-.7z"/><path fill="#FFB68E" d="M283.4 4.2v.2c.4.3.5.8.2 1.1L282 7.4l-.7-.7 2-2.5zm3.6.6c.2.5 0 1-.5 1.2L284 7l-.1-1.1 3-1.1z"/><path fill="#FFB68E" d="M286 6.9c0-.4 0-.8-.5-.7l-2.4.9.6.8s2.3-.5 2.3-1"/><path fill="#FFB68E" d="M286.1 7.7c0-.3 0-.8-.5-.6l-2.4 1 .7.8s2.3-.7 2.3-1.2"/><path fill="#FFB68E" d="M286.2 8.6c0-.3 0-.8-.5-.6l-2.5.6.6 1s2.4-.5 2.4-1"/><path fill="#FFA087" d="M283.6 6.8c.2.5.8.7 1 .6 0 0 1.1-.2 1.4-.5.1-.1 0-.7-.2-.7l-2.2.6"/><path fill="#FFA087" d="M284 7.6c.2.5.7.7 1 .6 0 0 .9-.1 1.1-.4.1-.1 0-.7-.2-.8l-1.9.6"/><path fill="#FFA087" d="M284.6 8.3c.1.5.6.7.8.7 0 0 .7-.2.9-.4 0-.1 0-.6-.2-.7l-1.5.4"/><path fill="#7F786A" d="M254.9 16L250 29.4l-25.6 4c-7.2 1.1-5.6-5.3-7.4-12.9l37.8-4.3z"/><path fill="#7F786A" d="M279.3 15.2c-3.1 9.5-16 12-23.6 13.3-8.4 1.6-18.8 1.7-20.5-4.1 0 0 6.9-5.9 10.3-7.4 7-3 32.2-10 32.2-10s2.7 4.9 1.6 8.2"/></g><g transform="translate(199 21.3)"><mask id="P" fill="#fff"><use xlink:href="#O"/></mask><path fill="#FFAF12" d="M16.8.6L5.8.8C-.5.8.2 6.8.8 13c0 0 1.6 17.9.2 24-.4 1.4 9.7 6.8 17.6 7 8.5.2 11-2.5 11-2.5s.8-19.4-2-28c-2.3-7.2-7-13-10.3-13h-.5" mask="url(#P)"/></g><g><path fill="#7F786A" d="M181.5 55l-8.2-12.6 19-16.2c9-6 8.7 1 8.8 7.3L181.5 55z"/><path fill="#A29C8F" d="M217 25c-.9 0-1.5-.7-1.6-1.5v-1.8l3 .1v1.9c0 .8-.6 1.4-1.4 1.4"/><path fill="#FFB68E" d="M215 21.8h.2c.8.4 1.6 0 1.8-.9l1-4.2c.2-.8-.2-1.6-1-1.8l-.5-.2c-.7-.3-1.5.1-1.7.9l-1 4a2 2 0 001.3 2.2"/><path fill="#FFA087" d="M218 17.1c.2-1-.4-2-1.2-2.3-1-.3-1.8.2-2 1.2l-.7 2.5c-.1.6 1.1.6 2.3.1.7-.3 1.4-1 1.4-1l.1-.5z"/><path fill="#57575E" d="M222.7 2.6c-1.2-2.5-3.4.5-9.3 1-2.3.3-3.4 2-3.1 3.2l-1.1.6c-1.6 1.2-1.3 3.1 0 4.8 1.3 2 5.6 4 5.6 4l5.9-1.9-.4-3.2c-.2-1-.8-2-1.7-2.7 4.6 0 5-4.1 4.1-5.8"/><path fill="#FFB68E" d="M213.7 11.5c-.1-2 1-3.7 2.9-4 3.2-.6 4.5 4.7 4.6 7 0 2.5-.7 3.1-.7 3.1s-1.9.5-3.5 0c-1.3-.5-2.4-.8-2.8-2.8l-.5-3.3"/><path fill="#FFB68E" d="M214.3 12.8c.6.8.8 1.6.4 2-.4.3-1.1-.1-1.7-.8-.6-.8-.8-1.6-.4-2 .4-.3 1.2 0 1.7.8"/><path fill="#57575E" d="M214.5 13.8c-.2 0-.4 0-.5-.3l-1-3.3c0-.2 0-.4.2-.5.2 0 .4.1.5.3l1 3.3c.1.2 0 .4-.2.5M214 8s5 1.3 6.5-.3c1.6-1.5-5.8-1.5-6.5.3"/><path fill="#FFF0D2" d="M215 25.1l-4-3.5 3-2.8 3 3z"/><path fill="#FFF0D2" d="M219.2 24.8l.5-2-2.4-2.9-.7 1.6z"/><path fill="#7F786A" d="M151.2 73.2c-1-10.3 9.5-21.8 15.5-26.4 2.3-1.7 6.7-4.6 8.4-5.7 3.9-2.3 8.6.7 12.6 4.5 0 0-7 11-9.4 14-5 5.9-13.7 17.7-21.6 20-1.9.4-5.2-2.8-5.5-6.4M212.6 20s3.6 18.3.2 32.2a69.7 69.7 0 01-11.7 26.2s-4.2 0-9.6-2.6c-4.8-2.2-8-5.5-8-5.5s8.5-10.5 11.5-23c3.1-12.6-3.3-21.5 1.7-23.5 5.4-2.1 16-3.8 16-3.8"/><path fill="#A29C8F" d="M211.2 50.5l-1.6-5.2a307.6 307.6 0 01-4.2-15.5c0-.3 0-.6.3-.6l2.3-.5v.9l-2.7-2c-.2-.2-.2-.5-.1-.7l3-3.1 3-3-2.6 3.4-2.7 3.3-.1-.7 2.7 2c.2.1.3.5.1.7l-.2.2-2.3.6.3-.7a393.3 393.3 0 013.8 15.6l1 5.3m-3.2 8.1c-.1.5-.6.9-1.1.7-.5-.1-.9-.7-.8-1.2 0-.5.6-.8 1-.7.6.1 1 .7.9 1.2m-1.8 4.9c0 .5-.6.8-1 .7-.6-.1-1-.7-.9-1.2.1-.6.6-.9 1.1-.8.6.2 1 .7.8 1.3m3.7-10.7c-.1.5-.6.8-1.1.7-.5-.1-.9-.7-.8-1.2 0-.5.6-.9 1-.7.6.1 1 .7.9 1.2"/><path fill="#A29C8F" d="M204.1 43l-4-2 .8-4.3s5.8-1.8 8.8-4.1c1.1-.9 3-2.5 4.6-4.6 1.6-2.2 2.6-4.4 2.6-4.4s1 .5 1 .9c-.3 3.6-1 8.3-3 11.7C211.5 41.6 204 43 204 43"/><path fill="#57575E" d="M215 8.2c1.3.4 2.8.6 4.2.6.7-.1 1.4-.2 2.2-.6.6-.5 1.2-1 1.6-1.6.8-1.4.8-3.2 0-4.6-.2-.3-.5-.7-1-1h-1.4c-.8.2-1.4.5-2 1v-.1a32 32 0 01-5 1.4c-.9.1-2 .2-2.7 1-.8.6-1 1.7-.7 2.5 0-.9.3-1.8 1-2.2.7-.4 1.5-.5 2.4-.5 1.9-.2 3.6-.6 5.4-1.2 1.1-.6 2.8-1.2 3-.3.6 1 .7 2.4.1 3.5a5 5 0 01-1.2 1.4c-.5.3-1.1.5-1.8.6-1.3.3-2.7.2-4 0"/></g></g></svg>