<svg xmlns="http://www.w3.org/2000/svg" xmlns:xlink="http://www.w3.org/1999/xlink" width="155" height="155" viewBox="0 0 155 155">
    <defs>
        <path id="prefix__c" d="M0 0.758L87.242 0.758 87.242 88 0 88z"/>
        <path id="prefix__e" d="M0.299 0.046L34.943 0.046 34.943 13 0.299 13z"/>
        <path id="prefix__g" d="M0.621 0.046L17.943 0.046 17.943 13 0.621 13z"/>
        <filter id="prefix__a" width="165.2%" height="165.2%" x="-32.6%" y="-19.6%" filterUnits="objectBoundingBox">
            <feOffset dy="15" in="SourceAlpha" result="shadowOffsetOuter1"/>
            <feGaussianBlur in="shadowOffsetOuter1" result="shadowBlurOuter1" stdDeviation="10"/>
            <feColorMatrix in="shadowBlurOuter1" values="0 0 0 0 1 0 0 0 0 0.699027652 0 0 0 0 0.0927210366 0 0 0 0.15 0"/>
        </filter>
        <circle id="prefix__b" cx="57.5" cy="57.5" r="57.5"/>
    </defs>
    <g fill="none" fill-rule="evenodd" transform="translate(20 5)">
        <use fill="#000" filter="url(#prefix__a)" xlink:href="#prefix__b"/>
        <use fill="#FFF" xlink:href="#prefix__b"/>
        <g>
            <g transform="translate(13 13) translate(0 .242)">
                <mask id="prefix__d" fill="#fff">
                    <use xlink:href="#prefix__c"/>
                </mask>
                <path fill="#D3DCFB" d="M87.242 44.38c0 3.877-.506 7.636-1.456 11.214-.307 1.155-.66 2.293-1.056 3.41-3.26 9.163-9.5 16.917-17.552 22.093-1.746 1.124-3.578 2.126-5.484 2.995-.852.388-1.72.751-2.601 1.084-2.142.813-4.364 1.462-6.65 1.932h-.002c-2.21.454-4.481.741-6.8.845-.67.03-1.343.047-2.02.047-.641 0-1.28-.015-1.914-.043-4.608-.197-9.03-1.11-13.16-2.632-1.055-.387-2.09-.815-3.104-1.28-1.925-.886-3.775-1.904-5.536-3.05-1.173-.76-2.305-1.575-3.397-2.442-6.04-4.795-10.777-11.158-13.6-18.476-.387-1-.736-2.019-1.05-3.055C.65 53.022 0 48.775 0 44.38c0-5.533 1.03-10.829 2.91-15.7l.03-.074c1.727-4.449 4.159-8.54 7.162-12.143.082-.099.164-.196.248-.294C18.35 6.74 30.287.758 43.62.758c24.092 0 43.622 19.53 43.622 43.621" mask="url(#prefix__d)"/>
            </g>
            <path fill="#816AE2" d="M45.762 26.069L45.758 26.069 41.484 26.069 41.48 26.069 41.475 26.069 41.475 29.162 45.767 29.162 45.767 26.069z" transform="translate(13 13)"/>
            <path fill="#816AE2" d="M41.484 26.07H41.475v3.092h2.146V26.07h-2.137zM45.762 26.07c1.183-.003 2.141-.963 2.141-2.147 0-1.184-.96-2.145-2.145-2.145h-2.137v4.291h2.141z" transform="translate(13 13)"/>
            <path fill="#A8B7EF" d="M39.338 23.925c0 1.183.958 2.143 2.141 2.145h2.142v-4.291h-2.137c-1.185 0-2.146.96-2.146 2.146" transform="translate(13 13)"/>
            <path fill="#BEC8F7" d="M43.621 26.07H41.48h2.141z" transform="translate(13 13)"/>
            <path fill="#969287" d="M43.621 26.07h2.141-2.141z" transform="translate(13 13)"/>
            <path fill="#FFB332" d="M58.797 15H28.445c-1.186 0-2.146.96-2.146 2.147 0 1.184.96 2.145 2.146 2.145h.392v9.87h4.292v-9.87h20.985v9.87h4.292v-9.87h.39c1.185 0 2.147-.961 2.147-2.145 0-1.186-.962-2.146-2.146-2.146" transform="translate(13 13)"/>
            <path fill="#FFC839" d="M28.445 15c-1.185 0-2.146.96-2.146 2.147 0 1.184.96 2.145 2.146 2.145h.392v9.87h4.29v-9.87h10.494V15H28.445z" transform="translate(13 13)"/>
            <g transform="translate(13 13) translate(26 75.242)">
                <mask id="prefix__f" fill="#fff">
                    <use xlink:href="#prefix__e"/>
                </mask>
                <path fill="#FFC839" d="M32.797.046H2.445C1.26.046.3 1.007.3 2.192v8.663C.3 12.04 1.26 13 2.444 13h30.352c1.185 0 2.147-.96 2.147-2.145V2.192c0-1.185-.962-2.146-2.146-2.146" mask="url(#prefix__f)"/>
            </g>
            <g transform="translate(13 13) translate(43 75.242)">
                <mask id="prefix__h" fill="#fff">
                    <use xlink:href="#prefix__g"/>
                </mask>
                <path fill="#FFB332" d="M15.797.046H.621V13h15.176c1.185 0 2.146-.96 2.146-2.145V2.192c0-1.185-.96-2.146-2.146-2.146" mask="url(#prefix__h)"/>
            </g>
            <path fill="#FFC839" d="M58.09 27.594H29.151c-6.232 0-11.284 5.052-11.284 11.284v29.418c0 6.233 5.052 11.284 11.285 11.284H58.09c6.232 0 11.284-5.051 11.284-11.284V38.878c0-6.232-5.052-11.284-11.284-11.284" transform="translate(13 13)"/>
            <path fill="#FFB332" d="M58.09 27.594H43.621V79.58h14.47c6.231 0 11.283-5.051 11.283-11.284V38.878c0-6.232-5.052-11.284-11.284-11.284" transform="translate(13 13)"/>
            <path fill="#816AE2" d="M52.913 52.474l-7.563-10.31c-.403-.55-1.046-.877-1.73-.877-.682 0-1.325.327-1.728.877l-7.563 10.31c-1.903 2.594-2.64 5.887-2.026 9.036.617 3.164 2.553 5.953 5.313 7.655 1.852 1.142 3.928 1.712 6.005 1.712 2.078 0 4.154-.57 6.005-1.712 2.76-1.702 4.697-4.492 5.314-7.656.614-3.148-.124-6.441-2.027-9.035" transform="translate(13 13)"/>
            <path fill="#A8B7EF" d="M49.741 59.024l-4.39-5.985c-.404-.55-1.047-.877-1.73-.877-.684 0-1.326.326-1.73.877l-4.39 5.985c-1.254 1.708-1.74 3.877-1.336 5.951.407 2.083 1.681 3.92 3.496 5.038 1.222.753 2.591 1.13 3.96 1.13 1.37 0 2.738-.377 3.96-1.13 1.814-1.118 3.09-2.955 3.495-5.038.405-2.074-.082-4.243-1.335-5.95" transform="translate(13 13)"/>
            <path fill="#A8B7EF" d="M36.166 64.975c-.405-2.073.082-4.242 1.334-5.95l4.39-5.986c.405-.552 1.048-.877 1.73-.877V41.29c-.682 0-1.325.325-1.73.874l-7.561 10.31c-1.903 2.595-2.641 5.888-2.027 9.037.618 3.164 2.554 5.953 5.313 7.655.876.54 1.8.95 2.754 1.234-.241-.114-.476-.243-.707-.386-1.815-1.119-3.09-2.955-3.496-5.038" transform="translate(13 13)"/>
            <path fill="#F6DE41" d="M43.621 70.878c-1.095 0-2.19-.16-3.253-.48 1.032.498 2.142.746 3.253.746v-.266zM43.621 71.144c1.11 0 2.221-.249 3.252-.744-1.062.317-2.157.477-3.252.477v.267z" transform="translate(13 13)"/>
            <path fill="#BEC8F7" d="M43.621 70.878V52.162c-.683 0-1.326.326-1.73.877l-4.39 5.985c-1.253 1.708-1.74 3.877-1.335 5.952.406 2.083 1.68 3.919 3.495 5.038.231.142.467.27.707.385 1.063.319 2.158.479 3.253.479" transform="translate(13 13)"/>
        </g>
    </g>
</svg>
