<svg xmlns="http://www.w3.org/2000/svg" xmlns:xlink="http://www.w3.org/1999/xlink" width="630" height="480" viewBox="0 0 630 480">
    <defs>
        <path id="prefix__a" d="M0 0.213L622.845 0.213 622.845 15 0 15z"/>
        <path id="prefix__c" d="M4.306 4.816S2.903 3.126.714.354C2.415 4.3 4.306 4.816 4.306 4.816"/>
        <linearGradient id="prefix__d" x1="60.083%" x2="34.75%" y1="73.898%" y2="21.624%">
            <stop offset="0%" stop-color="#DBEBFF"/>
            <stop offset="100%" stop-color="#FFF"/>
        </linearGradient>
    </defs>
    <g fill="none" fill-rule="evenodd">
        <g>
            <path fill="#FFF4DD" d="M283.172 172.424l.002.02c-.628.814-1.378 1.6-2.257 2.282l-21.629 16.567L77.006 330.925l-.997.101c-1.798.181-3.566.084-5.259-.258-.241-.035-.483-.089-.706-.146-2.954-.688-5.648-2.135-7.864-4.122-.216-.195-.414-.392-.634-.607-.612-.59-1.172-1.244-1.697-1.942-.182-.238-.343-.459-.506-.699-.162-.24-.326-.5-.469-.742-1.371-2.232-2.282-4.786-2.563-7.563L31.002 64.849c-.105-1.036-.13-2.061-.053-3.056.069-1.073.238-2.137.508-3.172.788-3.14 2.416-5.992 4.675-8.255.018-.021.053-.064.109-.089l.846-.817c2.703-2.367 6.139-3.938 9.99-4.328l4.086-.414 20.293 9.855 187.037 90.803 7.021 3.417 13.438 6.521c.996.471 1.888 1.091 2.667 1.763l.002.021c4.345 3.904 5.028 10.649 1.551 15.326" transform="translate(4 54) translate(0 10.661)"/>
            <path fill="#FFF4DD" d="M508.639 16.513l25.31 250.099c.029.293.06.606.073.92.014.137.01.296.005.434.014.138.025.275.025.433.005.058-.01.119-.003.177-.01.1-.002.178-.012.279.003.217-.015.435-.032.654 0 .198-.017.417-.054.638l.01.097c-.014.06-.026.142-.04.202.009.078-.001.178-.014.239-.01.099-.037.22-.047.32-.021.18-.062.362-.101.564.002.019.008.078-.01.099-.066.323-.13.665-.217.97l.005.059c-.042.163-.087.305-.13.467-.025.14-.07.285-.115.427l-.047.123c-.136.408-.251.835-.428 1.229-.047.123-.092.265-.156.41-.065.145-.131.27-.178.393-.066.125-.111.269-.177.393-.133.25-.264.52-.396.77-.082.167-.166.314-.25.46-.22.359-.423.696-.647 1.015-.153.252-.326.486-.5.722-.155.232-.35.45-.525.665-.067.125-.176.216-.264.323-.068.106-.158.194-.248.282-.088.108-.195.217-.303.326-.015.042-.072.067-.088.108-.25.263-.52.527-.79.77l-.071.088c-.218.18-.436.379-.673.562l-.218.199c-.11.09-.237.183-.367.274-.09.088-.182.158-.293.228-.111.07-.221.16-.332.23-.754.55-1.574 1.03-2.423 1.43-.056.026-.113.052-.15.075-.057.026-.133.054-.19.078-.187.099-.395.199-.606.259-.34.154-.701.289-1.045.403-.19.079-.381.137-.553.194-.115.03-.251.064-.365.097-.135.033-.288.087-.442.123l-.04.004c-.134.034-.248.085-.365.096-.06.006-.115.03-.174.037-.096.03-.191.06-.31.072-.058.005-.114.03-.192.039-.213.04-.446.085-.661.106-.311.05-.641.104-.954.136l-.978.099-206.56-100.282-24.51-11.897c-.997-.492-1.91-1.111-2.65-1.786l-.001-.02c-4.384-3.901-5.063-10.606-1.551-15.326l-.002-.021c.59-.81 1.359-1.598 2.24-2.26l11.82-9.076 6.214-4.757L466.946 14.55 484.853.829l4.086-.413c.43-.044.862-.068 1.276-.071.077-.026.157-.016.237-.003.413-.022.829-.006 1.227.014.097-.01.196 0 .277.01.357.024.718.067 1.058.11.08.014.177.003.26.034.44.054.863.13 1.267.228.403.077.807.174 1.173.276.55.16 1.082.345 1.598.569.286.089.576.218.846.348.495.207.974.455 1.436.725l1.01.628c.042.015.085.05.126.066.255.172.49.346.746.537.17.12.362.259.534.4.538.439 1.059.9 1.544 1.404.22.216.44.449.643.685.845.942 1.603 1.99 2.233 3.132.167.299.338.617.51.955l.005.039c.268.506.48 1.038.673 1.572.107.285.19.534.278.8.06.212.119.404.182.634l.002.02c.06.212.12.402.162.616.064.25.13.519.176.77.04.215.085.448.107.662.05.31.082.625.114.937" transform="translate(4 54) translate(0 10.661)"/>
            <path fill="#E5D4B5" d="M520.537 285.822c-.035.013-.073.021-.108.03-.146.034-.288.074-.44.104-.271.064-.552.12-.832.172-.01 0-.021.005-.035.005-.267.046-.543.09-.82.125-.02 0-.042.003-.063.007l-.367.04-.987.1-275.38 27.868-80.58 8.154-83.918 8.495-.988.1c-.293.03-.586.051-.88.064-.146.008-.288.012-.435.017-9.344.238-17.473-7.097-18.47-16.95l-.141-1.394-.03-.314-.091-.893 104.025-84.599 58.942-47.938 7.685-6.248 23.35-18.99 9.65-7.849 8.482-6.899c6.585-5.36 15.567-6.266 23.092-2.337l9.689 5.058 37.73 19.69 8.776 4.582 186.21 97.187.008.005.09.896.182 1.79c.013.13.022.254.03.384.004.013.004.025.004.034.695 9.16-5.062 17.321-13.38 19.504" transform="translate(4 54) translate(0 10.661)"/>
            <path fill="#FFF4DD" d="M534.047 268.53v.186c0 .043 0 .085-.01.137 0 .114-.005.23-.012.344-.006.184-.017.367-.031.55l-.014.154c-.008.101-.014.202-.024.302 0 .035-.005.073-.009.108-.005.065-.013.13-.021.194v.004c-.005.061-.013.121-.022.177-.009.052-.013.108-.021.16-.009.056-.018.112-.023.16-.012.09-.024.18-.043.271-.016.112-.034.224-.056.332-.003.013-.003.03-.007.043-.01.058-.025.114-.037.171-.024.125-.05.25-.077.375-.034.162-.063.324-.102.484-.022.082-.043.17-.065.25-.025.082-.047.17-.07.255-.043.155-.09.315-.137.47-.06.207-.13.414-.198.617-.009.022-.014.043-.021.061l-.168.461c-.032.082-.062.16-.096.241 0 .005 0 .005-.005.01-.067.171-.138.343-.21.511-.062.13-.116.26-.173.385-.016.043-.038.081-.057.12-.034.07-.063.138-.098.203l-.13.26c-.068.128-.134.258-.197.383-.044.077-.087.16-.13.241-.07.116-.134.233-.202.35-.005.008-.01.012-.014.016-.105.171-.207.336-.312.498-.139.221-.282.44-.43.654-.062.09-.126.18-.19.267-.08.111-.154.224-.236.332-.048.061-.091.121-.143.177-.094.13-.193.255-.298.38-.051.064-.107.13-.163.193-.048.057-.096.113-.142.173-.03.03-.057.065-.087.095-.072.086-.15.173-.233.255-.051.064-.111.13-.176.19-.018.025-.043.051-.074.076-.005.014-.012.022-.025.031-.184.194-.38.385-.58.572-.073.071-.142.147-.218.217-.066.06-.134.121-.198.181-.023.017-.043.038-.066.056-.21.19-.43.375-.65.552-.07.056-.139.112-.207.164-.077.064-.16.125-.237.181l-.165.125c-.025.022-.051.04-.077.056-.108.07-.212.155-.32.22-.138.103-.284.203-.427.293-.288.194-.586.376-.884.553-.236.133-.477.266-.723.391-.182.096-.363.186-.548.273-.108.046-.216.098-.324.146-.098.047-.202.091-.301.134-.488.207-.984.396-1.493.56-.107.035-.21.07-.318.1-.11.033-.222.06-.333.091-.123.032-.259.076-.399.11-.108.028-.212.061-.32.087-.035.01-.074.018-.108.022-.082.021-.168.04-.25.056-.077.022-.152.034-.229.052-.173.034-.35.068-.526.1-.009 0-.022.004-.035.004-.266.046-.542.09-.82.125-.02 0-.043.003-.063.007l-.368.04-.986.1-275.38 27.868-80.58 8.154-83.919 8.495-.987.1c-.294.03-.587.051-.88.064-.146.008-.288.012-.435.017-.534.018-1.07.01-1.6-.026-.203-.009-.406-.026-.608-.047-.01 0-.017 0-.03-.005-.703-.064-1.397-.172-2.078-.323-.118-.022-.234-.052-.346-.082-.184-.043-.367-.09-.552-.138-.18-.048-.361-.099-.543-.155-.169-.052-.332-.104-.496-.159l-.081-.027c-.139-.047-.273-.094-.41-.146-.091-.034-.185-.07-.276-.108-.385-.146-.76-.31-1.126-.483-.12-.056-.246-.116-.367-.177-.242-.12-.483-.246-.72-.38-.099-.055-.198-.11-.297-.168-.605-.353-1.19-.74-1.747-1.16-.133-.098-.263-.198-.392-.302-.146-.116-.288-.232-.431-.353-.142-.12-.28-.24-.419-.362-.056-.052-.111-.099-.163-.15-.31-.28-.608-.579-.892-.88-.036-.035-.07-.07-.1-.104-.126-.134-.245-.268-.363-.405-.142-.164-.28-.329-.418-.496-.218-.267-.425-.543-.629-.824-.04-.054-.08-.112-.118-.168-.976-1.38-1.762-2.903-2.319-4.54-.051-.16-.108-.32-.154-.479-.053-.159-.1-.323-.144-.484-.085-.3-.158-.603-.227-.909-.014-.039-.023-.082-.026-.125-.035-.142-.064-.285-.09-.427-.023-.12-.049-.246-.066-.37l-.051-.307c-.043-.298-.082-.595-.112-.897l-.078-.785-.142-1.393-.03-.314 105.09-82.11 62.258-48.647 7.97-6.226 23.082-18.037 11.052-8.633 3.315-2.592c6.607-5.162 15.589-6.07 23.096-2.337l3.76 1.871 38.814 19.301 9.046 4.502 190.147 94.57.009.003.18 1.79.07.702c.013.156.03.307.038.462.014.164.026.327.03.487l.014.2v.024c.004.125.013.25.013.371v.384" transform="translate(4 54) translate(0 10.661)"/>
            <path fill="#E5D4B5" d="M509.464 17.062c-.087-.288-.171-.536-.282-.841-.197-.573-.41-1.124-.683-1.67l-.004-.038c-.173-.357-.346-.695-.517-1.014-.635-1.2-1.399-2.307-2.25-3.308-.204-.255-.445-.487-.666-.722-.488-.523-1.012-1.023-1.553-1.482-.173-.16-.365-.3-.536-.42-.257-.211-.495-.404-.749-.576-.04-.015-.084-.05-.125-.066l-1.015-.668c-.483-.287-.964-.553-1.462-.78-.27-.131-.562-.28-.846-.37-.52-.242-1.052-.426-1.603-.608-.365-.1-.791-.215-1.195-.292-.406-.098-.83-.193-1.27-.248-.082-.031-.18-.021-.26-.033-.34-.044-.701-.106-1.06-.13-.08-.01-.178-.02-.277-.01-.397-.02-.832-.035-1.245-.013-.08-.013-.16-.024-.236.005-.416.002-.847.026-1.277.069L46.379 48.777c-3.87.39-7.32 2.024-10.03 4.51l-.841.856c-.058.025-.093.069-.11.09-2.25 2.36-3.88 5.37-4.654 8.667-.264 1.094-.427 2.216-.49 3.349l2.314 1.384 227.869 136.184 14.885 8.92c7.505 4.475 17.142 3.5 23.579-2.385l12.815-11.725L507.682 19.552l1.971-1.8v-.018c-.067-.25-.126-.442-.189-.672" transform="translate(4 54) translate(0 10.661)"/>
            <path fill="#FFF4DD" d="M508.08 13.508v.02L310.332 186.127l-12.813 11.172c-6.422 5.627-16.02 6.598-23.46 2.374l-14.77-8.38-228.34-129.5c.07-1.073.237-2.137.508-3.172.788-3.14 2.416-5.992 4.675-8.255.017-.021.052-.064.11-.089l.845-.817c2.703-2.367 6.138-3.938 9.99-4.328L488.938.416c.431-.044.863-.068 1.277-.071.076-.026.156-.016.237-.003.412-.022.83-.006 1.226.014.097-.01.197 0 .277.011.358.023.718.066 1.058.11.081.012.178.002.26.033.441.054.863.13 1.267.227.403.078.808.175 1.174.277.55.161 1.081.345 1.598.569.286.089.575.218.845.348.495.207.974.455 1.436.724l1.012.628c.041.016.084.051.125.067.254.172.49.345.745.537.171.121.363.259.535.4.538.439 1.06.9 1.544 1.404.22.215.441.449.642.685.846.942 1.604 1.991 2.233 3.132.168.299.34.617.511.955l.004.039c.27.506.481 1.038.673 1.571.107.286.192.535.278.802.061.211.12.403.185.633" transform="translate(4 54) translate(0 10.661)"/>
            <path fill="#A4B751" d="M555.957 398.587c2.535-1.126 11.078-4.385 11.481-7.35.44-3.234-1.607-6.778-4.53-7.84-1.26-.459-2.659-.514-3.665-1.643-.562-.63-.755-1.6-.307-2.28.732-1.113 2.3-.456 3.455.141 2.211 1.145 4.688 1.802 7.045 1.4 2.357-.405 4.561-1.99 5.418-4.38.858-2.39.101-5.532-1.966-6.975-1.292-.902-2.914-1.094-4.035-2.373-.583-.664-.859-1.62-.526-2.422.674-1.616 2.911-.998 4.455-.255 2.181 1.05 4.5 1.903 6.841 1.87 2.342-.037 4.725-1.087 5.951-3.189 1.227-2.1.956-5.3-.924-6.918-.753-.648-1.678-1.005-2.47-1.594-.95-.706-1.758-1.975-1.12-3.156.441-.818 1.388-1.108 2.27-.895 1.22.294 2.09 1.168 2.973 2.032 1.392 1.362 3.203 2.153 5.028 2.068 5.452-.25 6.262-7.049 3.227-10.266-.852-.903-2.05-1.746-1.969-3.047.064-1.028.907-1.733 1.857-1.788 1.875-.11 3.258 1.362 4.92 1.981 3.037 1.133 6.586-1.363 6.79-4.775.154-2.61-2.93-2.738-5.738-3.412-.645-.156-.703-1.134-.08-1.32 2.48-.738 5.47-2.212 7.08-3.22 2.957-1.853 5.463-7.713.37-9.406-1.366-.454-4.449.616-5.163 1.636-1.009 1.442-4.728 5.105-4.728 5.105-.436.361-1.065-.158-.865-.715.454-1.267.747-2.59.592-4.028-.072-.657-.258-1.309-.57-1.89-1.86-3.46-5.877-2.166-7.403.522-1.268 2.236-1.307 5.057-1.372 7.733-.033 1.385-.125 2.894-1.185 3.767-.6.494-1.475.556-2.086.011-.705-.629-.55-1.516-.61-2.334-.2-2.675-3.046-4.636-5.459-4.186-2.412.451-4.188 2.764-4.794 5.325-.605 2.56-.223 5.324.41 7.941.31 1.291.682 2.675 0 3.858-.405.7-1.244 1.035-1.944.631-.996-.574-.872-1.993-1.033-3.135-.446-3.169-4.126-5.102-6.873-4.107-2.747.995-4.4 4.118-4.683 7.273-.317 3.552.803 7.16 1.92 10.555.261.8.02 1.71-.65 2.09-.93.525-1.692-.369-2.357-1.056-2.569-2.65-6.79-3.12-9.599-1.069-2.809 2.052-3.91 6.41-2.508 9.913.892 2.225 2.653 4.087 2.447 6.705-.102 1.296-1.013 2.377-2.22 2.345-1.522-.04-2.286-1.764-3.23-2.986-2.623-3.393-7.888-3.115-10.615-.103-2.726 3.013-1.31 10.897-.243 15.113 1.068 4.217 3.122 13.048 6.65 17.133 1.66 1.924 13.804-1.909 16.34-3.035" transform="translate(4 54) translate(0 10.661)"/>
            <path fill="#619440" d="M607.788 319.575c-1.366-.454-4.449.616-5.163 1.636-1.009 1.442-4.728 5.105-4.728 5.105-.436.361-1.066-.158-.865-.716.454-1.266.747-2.59.591-4.027-.07-.657-.257-1.31-.569-1.89-1.86-3.46-5.877-2.167-7.403.522-1.268 2.235-1.307 5.057-1.372 7.732-.033 1.386-.125 2.895-1.185 3.768-.6.494-1.475.556-2.086.011-.705-.629-.55-1.516-.61-2.334-.2-2.675-3.047-4.636-5.459-4.186-2.412.45-4.188 2.764-4.794 5.324-.605 2.561-.223 5.325.41 7.942.31 1.291.682 2.675 0 3.858-.405.7-1.244 1.034-1.944.631-.996-.574-.872-1.993-1.033-3.135-.446-3.17-4.126-5.102-6.873-4.107-2.747.995-4.4 4.118-4.683 7.272-.317 3.553.803 7.16 1.92 10.556.261.8.02 1.71-.65 2.09-.93.525-1.692-.369-2.357-1.056-2.569-2.65-6.79-3.12-9.599-1.069-2.809 2.052-3.91 6.41-2.508 9.913.892 2.224 2.653 4.087 2.447 6.705-.102 1.296-1.013 2.377-2.22 2.345-1.522-.04-2.287-1.764-3.23-2.987-2.623-3.392-7.888-3.114-10.615-.102-2.726 3.012-1.31 10.896-.243 15.113.996 3.935 2.851 11.887 5.961 16.252.222.314.688.881.688.881s14.168-26.817 35.04-51.528c11.591-13.727 35.75-28.368 35.75-28.368s-.157-.382-.543-.79c-.664-.702-1.807-1.272-2.075-1.36" transform="translate(4 54) translate(0 10.661)"/>
            <path fill="#306B34" d="M516.842 369.549c-1.223 3.051-2.03 6.244-2.765 9.418-.957 4.133-.295 5.361.846 9.105 1.14 3.745 3.733 6.836 7.199 7.748 3.466.911 6.072 2.706 8.665-.644.366-.473.912-.115.952.15.278 1.875.349 3.03 1.428 4.324 1.13 1.354 8.08 7.134 16.769.812 4.54-5.853 6.313-12.97 8.522-20.096.279-.898.54-1.836.457-2.727-.153-1.64-1.637-2.774-3.134-2.395 1.296.114 2.638-.967 3.41-2.289.77-1.321 1.093-2.849 1.399-4.334l3.389-16.461c-3.748 1.375-7.777.955-10.821-1.128 0 0 11.792-2.543 11.843-8.379.037-4.234-.061-10.125.21-14.385.19-2.981-.706-6.165-1.71-8.747-.857-2.202-1.42-3.722-3.013-5.268-.963-.934-1.978-1.897-3.28-2.171-1.975-.415-4.117.842-5.961 2.202-3.38 2.493-6.481 5.489-9.406 8.665-3.47 3.769-6.71 7.807-9.68 12.066 2.14 5.673 5.736 10.467 10.306 13.737-4.376-1.532-8.307-4.216-11.426-7.801-.376-.431-.793-.902-1.366-.907-1.141-.008-1.791 1.649-2.13 2.929-1.428 5.413-4.147 10.579-7.776 14.772l5.077 1.978-6.63-.219s-.276 7.307-1.374 10.045" transform="translate(4 54) translate(0 10.661)"/>
            <path fill="#A4B751" d="M514.738 371.038c-1.223 3.051-1.88 12.54-.214 17.677 1.207 3.722 4.013 6.752 7.276 8.235 2.556 1.162 6.394 1.575 8.987-1.774.366-.473.912-.116.952.15.278 1.875 26.73-82.979 25.469-83.244-1.975-.415-4.117.842-5.961 2.202-3.38 2.492-6.481 5.488-9.406 8.665-3.47 3.77-6.71 7.807-9.68 12.066 2.14 5.672 5.736 10.466 10.306 13.737-4.376-1.532-8.307-4.216-11.426-7.8-.376-.433-.793-.903-1.366-.908-1.141-.008-1.791 1.648-2.13 2.93-1.428 5.412-4.147 10.578-7.776 14.771l5.077 1.978-6.63-.219s-2.38 8.796-3.478 11.534" transform="translate(4 54) translate(0 10.661)"/>
            <g transform="translate(4 54) translate(0 10.661) translate(0 399)">
                <mask id="prefix__b" fill="#fff">
                    <use xlink:href="#prefix__a"/>
                </mask>
                <path fill="#F7E8C8" d="M622.845 7.607c0 4.083-139.428 7.394-311.422 7.394C139.428 15 0 11.69 0 7.607S139.428.213 311.423.213c171.994 0 311.422 3.31 311.422 7.394" mask="url(#prefix__b)"/>
            </g>
        </g>
        <g>
            <path fill="#57575E" d="M114.613 105.174H92.707c-3.665 0-6.79-2.11-8.154-5.51-1.37-3.4-.582-7.086 2.057-9.629l26.464-25.418c.439-.412 1.116-.401 1.534.033.412.433.396 1.115-.032 1.533L88.112 91.601c-2.38 2.284-2.364 5.245-1.555 7.254.809 2.009 2.85 4.151 6.15 4.151h21.906c.598 0 1.084.486 1.084 1.084 0 .598-.486 1.084-1.084 1.084M178.545 104.969l-44.753.183c-.598 0-1.084-.487-1.084-1.083 0-.598.486-1.084 1.084-1.084l44.73-.183c.597-.007 1.088.474 1.095 1.07.007.599-.474 1.09-1.072 1.097" transform="translate(4 54) translate(188 143.661)"/>
            <path fill="#A29C8F" d="M101.58 42.19l12.31 48.465c1.158 4.562 5.774 7.329 10.337 6.219l-16.53-65.081c-4.538 1.202-7.275 5.835-6.116 10.397" transform="translate(4 54) translate(188 143.661)"/>
            <path fill="#57575E" d="M126.268 96.36l-16.531-65.09-1.954.495c-.03.008-.056.02-.085.027l16.529 65.082c.029-.007.058-.01.086-.017l1.955-.498zM360.266 276.432L361.625 276.432 331.816 171.601 327.245 171.601zM318.624 276.432L319.983 276.432 309.813 171.601 305.242 171.601zM238.692 276.432L237.333 276.432 267.142 171.601 271.714 171.601zM287.117 276.432L285.758 276.432 289.237 171.601 293.808 171.601z" transform="translate(4 54) translate(188 143.661)"/>
            <path fill="#A29C8F" d="M311.675 165.412l17.98-37.268c4.16-8.623 12.888-14.102 22.462-14.102h15.377l-14.184 41.463c-3.786 11.068-14.192 18.506-25.89 18.506h-29.442c5.839 0 11.16-3.342 13.697-8.599" transform="translate(4 54) translate(188 143.661)"/>
            <path fill="#7F786A" d="M267.068 113.376h5.52c20.273 0 39.351-9.594 51.44-25.869 4.344-4.798 10.517-7.535 16.99-7.535h5.886c10.483 0 23.226 1.49 25.752 18.888l1.462 14.516h-22.873c-9.575 0-18.303 5.48-22.464 14.103l-17.98 37.267c-2.536 5.257-7.858 8.6-13.695 8.6h-57.523v-6.84c0-19.989 13.94-53.13 27.485-53.13" transform="translate(4 54) translate(188 143.661)"/>
            <path fill="#57575E" d="M240.376 175.384H297.9c6.6 0 12.722-3.717 15.59-9.47l17.98-36.044c3.785-7.586 11.857-12.49 20.567-12.49h22.875c1.163 0 2.104-.91 2.104-2.034 0-1.125-.941-2.035-2.104-2.035h-22.875c-10.315 0-19.876 5.805-24.356 14.79l-17.98 36.046c-2.172 4.354-6.806 7.167-11.801 7.167h-57.524c-1.163 0-1.163 4.07 0 4.07" transform="translate(4 54) translate(188 143.661)"/>
            <path fill="#EABBAB" d="M145.89 219.607l-2.518 8.574c-1.905 6.508-6.049 24.347-12.097 26.733-1.175.779 12.247 11.834 13.123 11.148.2-.156 6.128-18.928 6.224-19.143l4.484-11.374c1.285-3.272 2.702-6.496 4.248-9.666l2.9-6.272H145.89z" transform="translate(4 54) translate(188 143.661)"/>
            <path fill="#57575E" d="M132.885 252.816s-7.066 5.682-7.998 6.632c-.853.869-6.444 2.279-10.402 3.275-5.8 1.46-6.888 4.043-7.382 5.008-.268.006-.48.238-.473.519l.026 1.015s16.652.745 23.38.087c0 0 5.485-3.672 5.836-.093l13.612.067-.099-3.916-.68-.105c.358-2.115.513-6.106-.262-9.717l-.659-.185s.438 1.858-4.487 2.259c-4.927.4-7.512-.122-7.95-.983-.44-.861-.292-.502-.292-.502s.361-2.257-2.17-3.361" transform="translate(4 54) translate(188 143.661)"/>
            <path fill="#7F786A" d="M280.488 167.807l-3.134-34.282-102.653 12.658c-3.175.762-8.64 4.087-10.341 10.179 0 0-28.099 89.04-29.688 93.836l7.248 2.585 10.623-2.666c12.124-19.46 21.42-39.735 28.445-60.664 1.977-4.458 3.21-9.174 3.657-13.986l.766-8.235 95.077.575z" transform="translate(4 54) translate(188 143.661)"/>
            <path fill="#EABBAB" d="M205.348 237.91c-.33-3.475-.52-6.959-.567-10.446l-.338-9.666h-16.442l3.392 18.203c1.245 6.648 4.788 22.975-.972 26.39-.635 1.213-17.328 8.685-15.918 9.881 1.406 1.193 33.968-3.776 34.388-4.773.095-.228-2.399-17.27-2.41-17.502l-1.133-12.087z" transform="translate(4 54) translate(188 143.661)"/>
            <path fill="#57575E" d="M192.67 257.621s-6.435 6.312-7.263 7.345c-.758.944-6.174 2.868-10.007 4.227-5.619 1.993-6.43 4.664-6.82 5.671-.267.03-.453.281-.417.56l.132 1.008s16.65-.808 23.274-2.09c0 0 5.074-4.163 5.8-.636l13.551-1.2-.509-3.888-.689-.04c.135-2.139-.129-6.125-1.279-9.645l-.676-.124s.632 1.81-4.228 2.666c-4.86.857-7.487.578-8.015-.238-.526-.816-.34-.47-.34-.47s.12-2.282-2.514-3.146" transform="translate(4 54) translate(188 143.661)"/>
            <path fill="#A29C8F" d="M302.606 148.945c-.979-9.827-1.425-13.129-6.317-27.81l-37.055 3.195 1.07 10.551c-25.46 2.544-50.459 6.12-73.529 11.819-5.917 1.462-12.458 9.69-11.4 15.365 0 0 15.785 87.885 16.281 91.406l7.023 2.921 10.215-2.702c1.161-25.188-.41-53.575-3.542-83.787 18.296.893 46.283 1.865 75.736.258 17.413 0 21.984-16.178 21.518-21.216" transform="translate(4 54) translate(188 143.661)"/>
            <path fill="#F7C8B3" d="M275.868 57.117L262.771 61.58 254.464 39.583 266.13 36.255z" transform="translate(4 54) translate(188 143.661)"/>
            <path fill="#EF5A29" d="M257.307 47.111c1.033-.585 1.998-1.203 2.874-1.86.69 2.199-.271 8.752-.271 8.752l-2.603-6.892z" transform="translate(4 54) translate(188 143.661)"/>
            <path fill="#F7C8B3" d="M241.393 42.819c1.048 1.861 1.854 4.02 3.845 6.325 1.235 1.427 4.025 1.206 6.455.392 5.359-1.794 8.84-4.116 11.663-7.202 1.957-2.138 3.597-4.643 5.323-7.594 1.409-2.409 4.28-11.697-.591-21.108-5.767-11.14-27.18-5.813-31.805 5.34-.241.577-.624 3.137 0 6.494l.054.276c.5 2.494 1.56 5.4 3.639 8.25.432.593.598 1.338.282 1.998-.625 1.303-1.907 3.075-2.733 3.966-1.155 1.247 3.868 2.862 3.868 2.862" transform="translate(4 54) translate(188 143.661)"/>
            <path fill="#57575E" d="M232.837 23.439c-1.975-.138-4.185-2.61-4.611-5.463-.293-1.958 1.365-4.47 3.413-4.761-1.9-4.211 2.523-7.352 5.914-6.873.623-2.257 2.51-3.24 4.79-3.656 2.28-.416 4.205.317 5.97 1.819.554-1.393 2.18-2.266 3.649-1.957.346.074.688.204 1.04.174.676-.056 1.147-.66 1.65-1.112 1.818-1.637 4.773-1.556 6.625.134 1.748-1.68 6.204-1.223 7.712 1.048 1.268-.643 5.815 1.423 6.096 5.177 1.972-.085 3.987.648 5.373 2.056 1.384 1.407 2.087 3.485 1.74 5.43 1.013.182 1.799 1.04 2.182 1.995.384.955.745 2.735-.273 3.684 3.027 1.316 3.742 6.18 1.58 8.674 1.799 1.874 2.043 5.043.553 7.17-1.491 2.127-4.553 2.979-6.928 1.927-1.916 1.85-5.103 2.215-7.386.84-1.217.808-2.857.676-4.181.028-1.788-.561-4.067-1.8-4.51-3.344 3.886-1.888 4.333-7.357.789-9.378-3.014-1.718-5.216 2.414-5 3.836l-2.196-.535s-.376-1.8-.723-2.12c-1.17-1.078-2.995-1.558-3.576-2.177 2.826-2.092-2.222-2.033-2.603-2.593-.626-.918-1.737-1.355-2.826-1.135-4.12.83-9.023-.466-9.872-2.052-.46.939-1.787 4.873.58 10.016-1.813 2.18-4.66-.226-3.601-2.451-1.542.527-3.622-2.866-1.37-4.401" transform="translate(4 54) translate(188 143.661)"/>
            <path fill="#57575E" d="M238.397 27.534c.918-.733 2.716-.782 3.266-.744.553.037 1.1.154 1.62.326.524.173.996.46 1.439.754l-.046.08c-.495-.183-.987-.344-1.501-.389-.503-.072-1.01-.09-1.511-.037-.504.043-2.488.326-3.062.295l-.205-.285z" transform="translate(4 54) translate(188 143.661)"/>
            <path fill="#E1786E" d="M243.375 43.094l.647-.234 3.053-1.11s1.617 3.533.036 4.342c-1.58.81-3.736-2.998-3.736-2.998" transform="translate(4 54) translate(188 143.661)"/>
            <path fill="#57575E" d="M241.55 33.282c.463.84 1.294 1.27 1.855.96.562-.31.642-1.24.18-2.08-.463-.84-1.293-1.27-1.855-.96-.561.31-.642 1.241-.18 2.08" transform="translate(4 54) translate(188 143.661)"/>
            <path fill="#E6A38C" d="M281.18 54.502c-3.75-4.029-12.249.235-18.247 4.087l-9.57 5.712-22.88 15.02-49.72 7.576-17.87 4.643-18.186 8.438 3-.004 14.912-2.846 8.96-.012 7.225-3.125 52.8-.464c15.938-6.273 28.227-11.112 46.341-24.47 5.074-3.426 6.892-10.625 3.235-14.555" transform="translate(4 54) translate(188 143.661)"/>
            <path fill="#EA6C20" d="M281.18 54.502c-3.75-4.029-15.002.122-19.507 4.287l-8.31 5.512-22.888 14.68-42.84 6.528.224 9.78 43.777-.386c15.938-6.273 28.195-12.488 46.31-25.847 5.073-3.425 6.891-10.624 3.234-14.554" transform="translate(4 54) translate(188 143.661)"/>
            <path fill="#EEF2FE" d="M190.743 95.59L183.648 95.709 183.42 85.765 190.494 84.786z" transform="translate(4 54) translate(188 143.661)"/>
            <path fill="#FFBF4D" d="M297.782 129.884c-2.084 1.035-8.878 1.155-11.57 2.217-.013 0-.026.012-.052.025-8.777 3.456-19.74 5.943-26.162.57-1.19-8.984-6.29-36.57-7.469-44.816-1.346-9.424-.57-14.187 2.744-21.126 1.01-2.11 2.123-4.103 3.275-5.954 5.761-9.18 12.803-14.77 16.052-13.373 5.23 2.253 14.058 8.22 14.822 21.347 2.99 23.663 3.068 33.295 8.7 54.058.685 2.51 1.991 5.887-.34 7.052" transform="translate(4 54) translate(188 143.661)"/>
            <path fill="#EA6C20" d="M274.369 47.316L258.713 60.624 255.563 54.012 271.522 41.751zM286.212 132.1c-.013 0-.026.014-.052.026-8.777 3.456-19.74 5.943-26.16.57-1.192-8.984-6.293-36.57-7.47-44.816-1.347-9.424 31.512-28.474 32.042-25.367.951 5.576-5.79 13.653-8.704 16.346-2.925 2.692-4.996 6.16-8.284 8.388-1.333.879-2.394 2.692-2.654 4.27-.375 2.254.841 2.592.79 4.868-.069 3.074-1.683 2.99-2.809 6.719-2.498 8.13.323 9.696.712 11.133.557 1.993-1.087 4.142-.44 6.096.582 1.748-1.088 8.35-.13 9.256.958.907 5.001 2.72 6.295 2.966 2.745.519 16.864-.454 16.864-.454" transform="translate(4 54) translate(188 143.661)"/>
            <path fill="#F4FAFC" d="M274.369 47.316L258.713 60.624 256.782 51.877 271.522 41.751z" transform="translate(4 54) translate(188 143.661)"/>
            <path fill="#EABBAB" d="M282.837 58.44c-3.682-4.173-16.276-1.986-21.178 1.997l-8.241 6.695-24.568 14.104-52.055 5.607-18.81 3.935-19.341 7.712 3.116.114 15.644-2.255 9.308.34 7.672-2.835 54.876 1.617c16.89-5.637 29.914-9.988 49.442-22.62 5.454-3.222 7.724-10.341 4.135-14.41" transform="translate(4 54) translate(188 143.661)"/>
            <path fill="#FFBF4D" d="M282.837 58.44c-3.682-4.173-16.276-1.986-21.178 1.997l-8.241 6.695-24.558 13.764-44.852 4.83-.286 9.779 41.684.582c3.98.055 7.937-.601 11.616-1.916 13.842-4.946 24.47-10.187 41.68-21.32 5.454-3.222 7.724-10.342 4.135-14.41" transform="translate(4 54) translate(188 143.661)"/>
            <path fill="#EEF2FE" d="M186.701 95.92L179.325 95.76 179.616 85.817 187.017 85.117z" transform="translate(4 54) translate(188 143.661)"/>
            <path fill="#F6F7FB" d="M66.565 104.7H195.51c.617 0 1.134 1.431 1.312 3.395H65.253c.178-1.964.695-3.396 1.312-3.396" transform="translate(4 54) translate(188 143.661)"/>
            <path fill="#57575E" d="M196.821 108.096c.042.468.071.957.071 1.475 0 2.69-.619 4.872-1.383 4.872H66.565c-.765 0-1.384-2.181-1.384-4.872 0-.518.03-1.007.071-1.475h131.57z" transform="translate(4 54) translate(188 143.661)"/>
            <path fill="#A29C8F" d="M77.603 125.224l2.959 142.71c.043 2.054 1.502 3.678 3.26 3.629 1.704-.05 3.063-1.661 3.107-3.63l2.959-142.71c.082-3.961-2.601-7.252-5.994-7.348-3.393-.095-6.21 3.038-6.291 7-.002.109-.002.243 0 .349" transform="translate(4 54) translate(188 143.661)"/>
            <path fill="#306B34" d="M65.03 124.987s-26.302 8.835-22.724 39.159c3.58 30.324-1.574 67.274-1.574 67.274h14.993s26.71-36.007 7.03-62.986c-19.682-26.98 2.275-43.447 2.275-43.447" transform="translate(4 54) translate(188 143.661)"/>
            <path fill="#A4B751" d="M62.947 126.876c-4.785 3.95-18.709 18.307-3.704 42.074 17.827 28.238-11.235 62.374-11.235 62.374l-7.198-.484-.078.58h14.993s26.71-36.008 7.03-62.986c-15.796-21.655-4.777-36.528.192-41.558" transform="translate(4 54) translate(188 143.661)"/>
            <path fill="#4900BC" d="M63.97 125.89c.648-.591 1.06-.903 1.06-.903s-2.364.8-5.573 2.725c2.118-1.027 3.76-1.59 4.513-1.822" transform="translate(4 54) translate(188 143.661)"/>
            <path fill="#619440" d="M36.247 197.883c1.405-26.91.32-30.272-10.142-39.16C15.645 149.838.903 135.23.903 135.23c10.041 19.88 9.84 28.917 11.73 43.542 1.465 11.347 18.51 33.994 26.081 43.584-1.676-3.89-3.166-11.112-2.467-24.472" transform="translate(4 54) translate(188 143.661)"/>
        </g>
        <g transform="translate(4 54) translate(226 365.661)">
            <mask id="prefix__e" fill="#fff">
                <use xlink:href="#prefix__c"/>
            </mask>
            <path fill="url(#prefix__d)" d="M4.306 4.816S2.903 3.126.714.354C2.415 4.3 4.306 4.816 4.306 4.816" mask="url(#prefix__e)"/>
        </g>
        <g>
            <path fill="#306B34" d="M156.16 328.365c-5.221 22.356 5.88 37.38 5.88 37.38h10.949c-.04-7.705.515-15.096 4.143-22.568.192-.396.42-.762.667-1.11-1.544-.723-3.261-1.455-5.172-2.188-20.216-7.765-11.246-33.87-16.467-11.514" transform="translate(4 54) translate(63 .661)"/>
            <path fill="#619440" d="M184.541 333.988c-11.112 5.623-7.899 29.722-7.899 29.722l10.443 3.747s-1.875-10.978 5.221-19.546c7.095-8.568 11.781-5.283 11.781-5.283s-8.434-14.263-19.546-8.64M131.258 322.608c-18.657 0-29.092 11.245-29.092 11.245s7.263-3.69 20.256-3.212c12.992.477 12.049 11.514 22.492 21.822 10.443 10.308 19.145 11.781 19.145 11.781s-13.831-20.003-23.965-33.603c-1.783-2.394-.045-8.033-8.836-8.033" transform="translate(4 54) translate(63 .661)"/>
            <path fill="#FAF9FC" d="M98.552 337.695c-.077.199-.094.31-.094.31s.03-.113.094-.31" transform="translate(4 54) translate(63 .661)"/>
            <path fill="#A4B751" d="M146.387 334.657c-3.481-4.686.134-16.199-22.09-13.52-20.3 2.444-25.07 14.488-25.745 16.557.513-1.336 3.76-6.776 23.335-11.203 22.49-5.088 10.576 6.561 20.75 13.924 10.176 7.363 18.477 21.151 18.477 21.151s5.756 9.64 4.417 1.607c-1.34-8.032-15.664-23.829-19.144-28.516M215.333 344.698c-10.175-20.75-22.478-19.4-30.658-14.86-11.608 6.441-9.702 33.335-9.702 33.335l1.67.537s.267-5.222 1.156-14.192c.888-8.97 5.268-21.705 19.46-4.016 14.194 17.686 34.273 20.868 34.273 20.868s-6.024-.92-16.199-21.672" transform="translate(4 54) translate(63 .661)"/>
            <path fill="#A4B751" d="M188.43 318.865c-3.197-2.346-6.442-1.944-8.95-.9-3.164 1.317-6.73.883-9.654-.883-10.7-6.474-11.52 2.427-11.52 2.427l.29 2.41c.016.015.016.047.016.078.77 4.467 3.277 13.753 14.009 17.882 1.912.74 18.748 8.032 18.748 8.032-2.281-9.237 3.615-24.227-2.94-29.046" transform="translate(4 54) translate(63 .661)"/>
            <path fill="#57575E" d="M160.282 416.992h17.86c6.566 0 11.888-5.322 11.888-11.888v-43.672h-41.636v43.672c0 6.566 5.323 11.888 11.888 11.888" transform="translate(4 54) translate(63 .661)"/>
            <path fill="#7F786A" d="M144.335 367.457L194.09 367.457 194.09 361.433 144.335 361.433z" transform="translate(4 54) translate(63 .661)"/>
            <path fill="#FFF" d="M236.488 153.9L91.34 173.888c-2.067.284-3.991-1.174-4.276-3.241l-8.12-58.96c-.284-2.067 1.175-3.991 3.242-4.275l145.148-19.99c2.067-.283 3.99 1.175 4.275 3.242l8.119 58.96c.285 2.068-1.173 3.992-3.24 4.276" transform="translate(4 54) translate(63 .661)"/>
            <path fill="#E5D4B5" d="M217.458 111.203l-63.34 8.723c-1.634.224-3.156-.929-3.38-2.564l-.021-.148c-.225-1.635.928-3.157 2.563-3.38l63.339-8.724c1.634-.224 3.156.93 3.38 2.563l.022.15c.225 1.634-.93 3.155-2.563 3.38" transform="translate(4 54) translate(63 .661)"/>
            <path fill="#FFF4DD" d="M221.117 130.346l-63.339 8.722c-1.635.225-3.156-.928-3.38-2.563l-.022-.15c-.225-1.633.928-3.155 2.563-3.38l63.34-8.722c1.634-.225 3.155.928 3.38 2.563l.021.148c.225 1.635-.928 3.156-2.563 3.382M222.947 143.634l-63.339 8.723c-1.635.224-3.156-.93-3.38-2.563l-.022-.15c-.225-1.634.928-3.156 2.563-3.38l63.34-8.723c1.633-.224 3.155.929 3.38 2.563l.021.149c.225 1.635-.928 3.156-2.563 3.38M145.234 132.612c1.543 9.684-2.042 19-8.75 25.183-3.94 3.632-8.96 6.183-14.65 7.09-5.906.942-11.673-.024-16.68-2.444-8.024-3.876-14.085-11.487-15.594-20.956-2.451-15.374 8.026-29.823 23.399-32.273 15.374-2.452 29.824 8.025 32.275 23.4" transform="translate(4 54) translate(63 .661)"/>
            <path fill="#FED843" d="M131.274 129.368h-5.532l6.653-11.176c.242-.405.248-.907.016-1.317-.232-.409-.666-.662-1.137-.662h-15.682c-.599 0-1.12.408-1.267.99l-5.227 20.996c-.098.391-.01.804.238 1.12.247.318.627.503 1.03.503h5.954l-7.179 19.23c-.229.612.03 1.3.605 1.61.578.31 1.294.144 1.676-.383l9.397-13.009 11.512-15.827c.29-.397.33-.923.108-1.362-.223-.438-.674-.713-1.165-.713" transform="translate(4 54) translate(63 .661)"/>
            <path fill="#FABE2C" d="M132.44 130.081c-.224-.437-.675-.713-1.166-.713h-5.532l6.653-11.176c.242-.405.248-.907.016-1.317-.232-.409-.666-.662-1.137-.662H120.82v31.057l11.512-15.827c.29-.397.33-.923.108-1.362" transform="translate(4 54) translate(63 .661)"/>
            <path fill="#FFBF4D" d="M135.183 278.42L30.506 293.217c-13.176 1.863-25.48-7.393-27.342-20.569l-2.62-18.533c-1.862-13.175 7.393-25.478 20.568-27.342l104.678-14.798c13.175-1.863 25.478 7.393 27.34 20.568l2.62 18.533c1.864 13.176-7.392 25.48-20.567 27.342" transform="translate(4 54) translate(63 .661)"/>
            <path fill="#E59D29" d="M136.954 230.566l-64.857 9.169c-1.208.17-2.335-.677-2.506-1.885l-.24-1.698c-.17-1.208.677-2.335 1.885-2.506l64.857-9.17c1.208-.17 2.336.678 2.506 1.886l.24 1.698c.171 1.208-.677 2.335-1.885 2.506" transform="translate(4 54) translate(63 .661)"/>
            <path fill="#FFCB80" d="M140.326 248.656l-63.308 8.95c-1.633.232-3.159-.917-3.39-2.55l-.02-.149c-.232-1.634.916-3.159 2.55-3.39l63.307-8.95c1.634-.23 3.16.916 3.39 2.55l.022.15c.231 1.632-.917 3.16-2.55 3.39M142.204 261.939l-63.308 8.95c-1.633.23-3.159-.917-3.39-2.551l-.02-.148c-.232-1.634.916-3.16 2.55-3.391l63.307-8.95c1.634-.23 3.16.917 3.39 2.55l.021.149c.231 1.634-.916 3.16-2.55 3.39" transform="translate(4 54) translate(63 .661)"/>
            <path fill="#F9F9F9" d="M64.045 254.607c1.231 8.744-1.68 17.117-7.24 23.133-4.266 4.616-10.092 7.846-16.802 8.79-5.973.842-11.773-.25-16.766-2.801-7.928-4.043-13.823-11.76-15.158-21.241-2.177-15.454 8.588-29.747 24.043-31.924 15.454-2.176 29.747 8.588 31.923 24.043" transform="translate(4 54) translate(63 .661)"/>
            <path fill="#6A675F" d="M35.654 245.339l-.004.001-2.51.378-.002.001h-.003l.273 1.817 2.521-.38-.273-1.817h-.002z" transform="translate(4 54) translate(63 .661)"/>
            <path fill="#969287" d="M33.14 245.719L33.138 245.719 33.135 245.719 33.409 247.536 34.669 247.346 34.395 245.53zM35.654 245.339c.694-.105 1.172-.755 1.067-1.45-.104-.696-.754-1.175-1.45-1.071l-1.255.19.38 2.521 1.258-.19z" transform="translate(4 54) translate(63 .661)"/>
            <path fill="#AEAA9C" d="M31.69 244.648c.104.695.752 1.175 1.447 1.07l1.258-.188-.38-2.522-1.255.19c-.696.104-1.176.754-1.07 1.45" transform="translate(4 54) translate(63 .661)"/>
            <path fill="#969287" d="M34.395 245.529L34.395 245.529 33.137 245.718 33.14 245.718zM34.395 245.53l1.255-.19h.003l-1.258.19z" transform="translate(4 54) translate(63 .661)"/>
            <path fill="#EABBAB" d="M42.332 237.682l-17.833 2.688c-.696.104-1.176.753-1.071 1.45.105.696.755 1.175 1.45 1.07l.23-.034.875 5.8 2.52-.38-.873-5.8 12.33-1.857.874 5.798 2.522-.38-.874-5.798.23-.036c.696-.104 1.175-.753 1.07-1.45-.104-.696-.754-1.175-1.45-1.071" transform="translate(4 54) translate(63 .661)"/>
            <path fill="#F7C8B3" d="M24.499 240.37c-.696.103-1.176.753-1.071 1.45.105.695.755 1.175 1.45 1.07l.23-.035.875 5.8 2.52-.38-.873-5.8 6.165-.928-.38-2.522-8.916 1.344zM47.669 273.104l-17.833 2.687c-.696.104-1.175.754-1.07 1.45l.766 5.09c.105.696.755 1.175 1.45 1.07l17.834-2.687c.696-.104 1.175-.754 1.07-1.45l-.766-5.09c-.105-.696-.755-1.175-1.451-1.07" transform="translate(4 54) translate(63 .661)"/>
            <path fill="#EABBAB" d="M47.67 273.103l-8.918 1.344 1.147 7.61 8.916-1.343c.697-.104 1.176-.754 1.071-1.451l-.766-5.09c-.105-.695-.755-1.174-1.45-1.07" transform="translate(4 54) translate(63 .661)"/>
            <path fill="#F7C8B3" d="M43.031 245.144l-17.003 2.562c-3.66.55-6.182 3.967-5.63 7.628l2.604 17.285c.552 3.662 3.967 6.182 7.63 5.63l17.001-2.562c3.662-.551 6.183-3.967 5.631-7.628l-2.604-17.284c-.552-3.661-3.967-6.183-7.629-5.631" transform="translate(4 54) translate(63 .661)"/>
            <path fill="#EABBAB" d="M43.031 245.144l-8.5 1.28 4.601 30.544 8.501-1.281c3.662-.551 6.183-3.967 5.631-7.628l-2.604-17.284c-.552-3.661-3.967-6.183-7.629-5.631" transform="translate(4 54) translate(63 .661)"/>
            <path fill="#E69323" d="M42.192 260.22l-5.355-5.388c-.287-.288-.693-.422-1.095-.361-.401.06-.75.308-.938.668l-3.53 6.726c-.889 1.692-1.031 3.693-.392 5.489.643 1.804 2.028 3.272 3.8 4.027 1.189.507 2.46.658 3.68.475 1.22-.184 2.39-.703 3.377-1.538 1.471-1.244 2.361-3.055 2.444-4.968.082-1.905-.644-3.775-1.991-5.13" transform="translate(4 54) translate(63 .661)"/>
            <path fill="#F4B545" d="M40.909 264.35l-3.11-3.13c-.286-.286-.692-.421-1.094-.36-.401.06-.75.308-.94.668l-2.048 3.905c-.585 1.114-.68 2.433-.258 3.615.424 1.188 1.335 2.154 2.5 2.65.784.335 1.622.435 2.427.314.804-.121 1.575-.464 2.226-1.015.967-.818 1.554-2.01 1.608-3.27.054-1.254-.424-2.484-1.311-3.377" transform="translate(4 54) translate(63 .661)"/>
            <path fill="#EAA827" d="M33.46 269.048c-.422-1.183-.329-2.501.256-3.615l2.05-3.906c.19-.359.538-.607.94-.667l-.964-6.389c-.4.06-.75.307-.939.668l-3.53 6.725c-.888 1.693-1.03 3.694-.39 5.49.642 1.803 2.027 3.271 3.8 4.027.561.239 1.141.398 1.726.481-.152-.045-.302-.101-.45-.164-1.166-.497-2.077-1.463-2.5-2.65" transform="translate(4 54) translate(63 .661)"/>
            <path fill="#F6DE41" d="M38.362 271.856c-.644.097-1.301.1-1.953.007.65.2 1.324.247 1.976.148l-.023-.155z" transform="translate(4 54) translate(63 .661)"/>
            <path fill="#F6DE41" d="M38.385 272.012c.652-.1 1.283-.343 1.845-.725-.596.28-1.225.472-1.868.569l.023.156z" transform="translate(4 54) translate(63 .661)"/>
            <path fill="#FFBF4D" d="M38.362 271.856l-1.657-10.996c-.401.06-.75.308-.939.668l-2.05 3.905c-.584 1.114-.678 2.433-.257 3.615.424 1.188 1.335 2.154 2.5 2.65.149.064.299.119.45.165.652.093 1.309.09 1.953-.007M391.032 49.785c-.839 0-1.632-.505-1.959-1.332-.428-1.082.102-2.306 1.184-2.733.577-.229 2.18-.844 4.587-1.629 1.105-.363 2.294.243 2.655 1.35.361 1.105-.243 2.294-1.349 2.655-2.297.75-3.803 1.328-4.344 1.542-.254.1-.517.147-.774.147M423.45 42.729c-1.102 0-2.028-.856-2.1-1.971-.075-1.161.806-2.163 1.967-2.237 3.315-.214 6.598-.256 9.733-.126 1.163.049 2.066 1.03 2.017 2.192-.048 1.163-1.033 2.05-2.192 2.017-2.987-.124-6.12-.083-9.288.12-.046.003-.092.005-.137.005zm-18.794 2.895c-.953 0-1.816-.651-2.047-1.617-.271-1.132.427-2.268 1.558-2.54 3.167-.757 6.365-1.388 9.502-1.877 1.146-.18 2.227.608 2.406 1.757.179 1.15-.608 2.227-1.758 2.405-3.026.47-6.112 1.08-9.17 1.813-.164.04-.33.059-.491.059zm46.999.236c-.22 0-.442-.035-.661-.108-2.821-.932-5.823-1.672-8.923-2.198-1.147-.195-1.918-1.282-1.724-2.43.195-1.146 1.28-1.917 2.429-1.723 3.308.56 6.518 1.352 9.54 2.35 1.104.367 1.704 1.558 1.339 2.663-.293.884-1.116 1.446-2 1.446zm16.65 9c-.465 0-.934-.153-1.324-.47-2.346-1.9-4.898-3.596-7.586-5.04-1.025-.551-1.408-1.828-.858-2.852.55-1.026 1.827-1.41 2.852-.86 2.92 1.57 5.693 3.413 8.244 5.479.903.732 1.043 2.058.31 2.963-.416.513-1.024.78-1.638.78zm12.746 14.028c-.716 0-1.414-.364-1.808-1.022-1.486-2.474-3.331-4.906-5.483-7.225-.791-.853-.742-2.185.11-2.976.853-.791 2.186-.743 2.978.11 2.35 2.534 4.37 5.199 6.006 7.923.599.997.276 2.29-.721 2.889-.34.204-.714.3-1.082.3zM467.04 83.063c-.273 0-.55-.054-.817-.166-2.9-1.222-5.8-2.051-8.62-2.466-1.15-.17-1.946-1.24-1.777-2.39.17-1.151 1.242-1.944 2.39-1.778 3.17.467 6.415 1.392 9.642 2.75 1.072.453 1.575 1.688 1.124 2.76-.34.806-1.12 1.29-1.942 1.29zm-26.84 2.145c-.542 0-1.084-.208-1.496-.624-.818-.826-.813-2.16.014-2.978.122-.121.244-.24.368-.356 2.447-2.3 5.435-3.876 8.882-4.69 1.13-.268 2.266.434 2.534 1.565.267 1.132-.434 2.267-1.567 2.535-2.72.642-5.062 1.873-6.963 3.659-.097.09-.193.184-.29.279-.41.407-.946.61-1.482.61zm45.995 1.757c-1.16 0-2.1-.936-2.106-2.096-.002-.44-.011-.873-.028-1.303-.096-2.54-.504-5.066-1.211-7.514-.323-1.117.322-2.285 1.439-2.608 1.116-.321 2.285.32 2.608 1.439.802 2.775 1.264 5.642 1.374 8.523.018.48.029.967.03 1.444.006 1.163-.933 2.11-2.096 2.115h-.01zm-52.144 15.69c-1.107 0-2.036-.863-2.101-1.983-.03-.52-.046-1.045-.045-1.56 0-2.948.475-5.848 1.412-8.615.373-1.103 1.57-1.694 2.67-1.32 1.103.373 1.693 1.569 1.32 2.67-.778 2.299-1.19 4.812-1.19 7.266 0 .435.013.876.038 1.313.068 1.16-.817 2.157-1.98 2.226-.041.003-.082.004-.124.004zm55.056 9.089c-1.046 0-1.952-.78-2.087-1.843-.351-2.792-.983-5.466-1.88-7.961-.3.773-.618 1.534-.957 2.28-.481 1.059-1.73 1.527-2.788 1.047-1.06-.48-1.53-1.73-1.048-2.788 1.192-2.626 2.12-5.463 2.76-8.437-.876.426-1.962.195-2.582-.61-.866-1.12-1.821-2.183-2.84-3.161-1.067-1.026-2.273-2.025-3.583-2.97-.944-.678-1.158-1.995-.478-2.94.68-.944 1.996-1.156 2.94-.477 1.47 1.059 2.83 2.186 4.04 3.349 1.168 1.12 2.263 2.342 3.255 3.626.356.462.49 1.024.42 1.56.408-.2.882-.27 1.36-.168 1.139.24 1.867 1.359 1.626 2.497-.26 1.228-.565 2.437-.913 3.622 1.005-.232 2.052.303 2.434 1.293 1.172 3.028 1.983 6.295 2.414 9.712.145 1.154-.672 2.207-1.827 2.352-.09.012-.178.017-.266.017zm-46.36 7.109c-.414 0-.833-.123-1.2-.377-1.818-1.265-3.43-2.801-4.791-4.567-.785-1.02-1.49-2.117-2.092-3.264-.54-1.03-.143-2.304.887-2.845 1.028-.54 2.302-.143 2.843.886.49.933 1.06 1.825 1.698 2.65 1.097 1.425 2.396 2.664 3.86 3.68.955.665 1.19 1.978.527 2.933-.41.589-1.065.904-1.731.904zm27.233.717c-.74 0-1.457-.39-1.842-1.082-.566-1.017-.201-2.3.815-2.865 2.465-1.373 4.714-3.25 6.683-5.58.75-.888 2.08-1 2.968-.25.889.752 1 2.082.249 2.969-2.298 2.72-4.94 4.92-7.85 6.54-.325.182-.676.268-1.023.268zm-13.4 3.262c-1.863 0-3.696-.163-5.448-.481-1.144-.21-1.903-1.306-1.695-2.45.209-1.145 1.302-1.901 2.45-1.695 2.776.506 5.833.544 8.799.118 1.148-.168 2.22.633 2.386 1.784.166 1.15-.634 2.219-1.785 2.385-1.558.224-3.142.339-4.706.339zm31.05 7.769c-.186 0-.375-.024-.564-.077-1.121-.312-1.777-1.473-1.466-2.593.816-2.938 1.354-5.954 1.599-8.965.094-1.16 1.118-2.02 2.27-1.928 1.159.094 2.023 1.11 1.928 2.27-.266 3.275-.851 6.556-1.738 9.75-.26.933-1.106 1.543-2.028 1.543zm-8.632 16.809c-.474 0-.951-.16-1.344-.485-.895-.743-1.02-2.07-.277-2.967 1.556-1.875 2.95-3.907 4.143-6.036.279-.497.55-1.006.808-1.514.527-1.037 1.795-1.451 2.832-.925 1.038.526 1.45 1.794.925 2.832-.284.559-.583 1.119-.89 1.666-1.317 2.352-2.857 4.594-4.575 6.667-.417.502-1.017.762-1.622.762zm-14.841 11.71c-.766 0-1.504-.418-1.877-1.147-.53-1.035-.12-2.305.916-2.834 2.762-1.412 5.347-3.056 7.683-4.884.915-.715 2.239-.554 2.956.362.717.916.556 2.24-.361 2.957-2.547 1.993-5.36 3.78-8.36 5.315-.307.157-.635.232-.957.232zM450.708 163.876c-.982 0-1.861-.69-2.062-1.69-.23-1.14.509-2.252 1.649-2.48 1.412-.285 2.888-.662 4.389-1.122 1.11-.339 2.29.285 2.63 1.397.34 1.113-.284 2.291-1.397 2.631-1.632.5-3.244.911-4.791 1.222-.14.03-.28.042-.418.042" transform="translate(4 54) translate(63 .661)"/>
            <path fill="#E5D4B5" d="M530.817 98.036H413.85c-5.305 0-9.606 4.301-9.606 9.605v15.005c0 5.305 4.301 9.605 9.606 9.605h.652c-.209 2.473-1.066 5.76-4.006 7.161 0 0 8.534 1.314 10.156-7.16h110.165c5.305 0 9.605-4.3 9.605-9.606v-15.005c0-5.304-4.3-9.605-9.605-9.605" transform="translate(4 54) translate(63 .661)"/>
            <path fill="#FFF" d="M428.214 111.192L428.214 112.776 423.69 112.776 423.69 114.612 427.842 114.612 427.842 116.078 423.69 116.078 423.69 118.177 428.31 118.177 428.31 119.76 421.807 119.76 421.807 111.192zM431.466 111.192L431.466 118.177 435.642 118.177 435.642 119.76 429.582 119.76 429.582 111.192zM443.106 111.192L443.106 112.776 438.582 112.776 438.582 114.612 442.734 114.612 442.734 116.078 438.582 116.078 438.582 118.177 443.202 118.177 443.202 119.76 436.698 119.76 436.698 111.192zM449.97 113.479c-.111-.18-.251-.338-.42-.474-.167-.135-.357-.242-.57-.318-.211-.076-.433-.114-.665-.114-.425 0-.784.083-1.08.246-.296.164-.536.385-.72.66-.184.276-.318.59-.402.942-.084.352-.126.716-.126 1.092 0 .36.042.71.126 1.05.084.34.218.646.402.918.184.272.424.49.72.654.296.164.655.246 1.08.246.576 0 1.026-.175 1.35-.528.324-.352.522-.815.594-1.392h1.824c-.048.537-.173 1.02-.372 1.453-.2.43-.464.799-.792 1.103-.328.305-.712.536-1.152.696-.44.16-.924.24-1.452.24-.656 0-1.246-.114-1.77-.342-.524-.228-.966-.541-1.326-.942-.36-.4-.636-.87-.828-1.41-.192-.54-.288-1.122-.288-1.746 0-.64.096-1.234.288-1.782.192-.548.468-1.025.828-1.434.36-.408.802-.727 1.326-.96.524-.232 1.114-.348 1.77-.348.472 0 .918.068 1.338.204.42.137.796.335 1.128.595.332.259.606.582.822.965.216.384.352.825.408 1.32h-1.824c-.032-.216-.104-.413-.216-.594M452.694 112.776L452.694 111.192 459.714 111.192 459.714 112.776 457.146 112.776 457.146 119.76 455.262 119.76 455.262 112.776zM464.646 115.069c.432 0 .756-.097.972-.288.216-.192.324-.505.324-.937 0-.415-.108-.716-.324-.905-.216-.188-.54-.281-.972-.281h-2.064v2.41h2.064zm.672-3.877c.384 0 .73.064 1.038.188.308.124.572.293.792.508.22.216.388.466.504.75.116.284.174.59.174.918 0 .505-.106.942-.318 1.309-.212.368-.558.648-1.038.84v.023c.232.066.424.163.576.294.152.132.276.288.372.47.096.18.166.377.21.593.044.216.074.431.09.648.008.136.016.295.024.48.008.184.022.373.042.564.02.192.052.373.096.546.044.173.11.318.198.438h-1.884c-.104-.271-.168-.596-.192-.971-.024-.377-.06-.738-.108-1.08-.064-.45-.2-.777-.408-.985-.208-.209-.548-.311-1.02-.311h-1.884v3.346h-1.884v-8.568h4.62zM469.362 119.761L471.246 119.761 471.246 111.193 469.362 111.193zM478.398 113.479c-.112-.18-.252-.338-.42-.474-.168-.135-.358-.242-.57-.318-.212-.076-.434-.114-.666-.114-.425 0-.784.083-1.08.246-.296.164-.536.385-.72.66-.184.276-.318.59-.402.942-.084.352-.126.716-.126 1.092 0 .36.042.71.126 1.05.084.34.218.646.402.918.184.272.424.49.72.654.296.164.655.246 1.08.246.576 0 1.026-.175 1.35-.528.324-.352.522-.815.594-1.392h1.824c-.048.537-.173 1.02-.372 1.453-.2.43-.464.799-.792 1.103-.328.305-.712.536-1.152.696-.44.16-.924.24-1.452.24-.657 0-1.246-.114-1.77-.342-.524-.228-.966-.541-1.326-.942-.36-.4-.636-.87-.828-1.41-.192-.54-.288-1.122-.288-1.746 0-.64.096-1.234.288-1.782.192-.548.468-1.025.828-1.434.36-.408.802-.727 1.326-.96.524-.232 1.113-.348 1.77-.348.472 0 .918.068 1.338.204.42.137.796.335 1.128.595.332.259.606.582.822.965.216.384.352.825.408 1.32h-1.824c-.032-.216-.104-.413-.216-.594M481.794 119.761L483.678 119.761 483.678 111.193 481.794 111.193zM484.662 112.776L484.662 111.192 491.682 111.192 491.682 112.776 489.114 112.776 489.114 119.76 487.23 119.76 487.23 112.776zM491.742 111.192L493.854 111.192 495.858 114.578 497.85 111.192 499.95 111.192 496.77 116.472 496.77 119.76 494.886 119.76 494.886 116.424zM507.906 118.297c.184 0 .36-.019.528-.054.168-.036.316-.096.444-.18.128-.084.23-.199.306-.342.076-.144.114-.328.114-.552 0-.44-.124-.754-.372-.942-.248-.188-.576-.283-.984-.283h-2.052v2.353h2.016zm-.108-3.636c.336 0 .612-.08.828-.24.216-.16.324-.42.324-.78 0-.2-.036-.365-.108-.492-.072-.128-.168-.228-.288-.3-.12-.073-.258-.122-.414-.15-.156-.028-.318-.042-.486-.042h-1.764v2.004h1.908zm.24-3.468c.408 0 .78.036 1.116.108.336.072.624.19.864.353.24.164.426.383.558.655.132.272.198.608.198 1.008 0 .432-.098.792-.294 1.08-.196.288-.486.524-.87.708.528.152.922.418 1.182.797.26.381.39.839.39 1.374 0 .433-.084.807-.252 1.123-.168.316-.394.574-.678.774-.284.2-.608.348-.972.444-.364.096-.738.144-1.122.144h-4.152v-8.568h4.032zM512.454 119.761L514.338 119.761 514.338 111.193 512.454 111.193zM517.878 111.192L517.878 118.177 522.054 118.177 522.054 119.76 515.994 119.76 515.994 111.192zM524.993 111.192L524.993 118.177 529.169 118.177 529.169 119.76 523.109 119.76 523.109 111.192z" transform="translate(4 54) translate(63 .661)"/>
            <path fill="#FFBF4D" d="M411.425 56.102c-5.894 24.189-30.28 39.02-54.47 33.126-24.19-5.895-39.02-30.282-33.126-54.471 5.894-24.19 30.282-39.02 54.471-33.126 24.188 5.895 39.02 30.282 33.125 54.47" transform="translate(4 54) translate(63 .661)"/>
            <path fill="#FFF" d="M360.447 72.987c-1.485-.361-2.666-1.16-3.54-2.392-.875-1.233-1.1-2.713-.679-4.444.374-1.534 1.225-2.694 2.552-3.48 1.327-.788 2.77-.99 4.33-.61 1.535.373 2.698 1.212 3.491 2.515.791 1.303 1.001 2.722.627 4.257-.415 1.704-1.29 2.912-2.623 3.62-1.335.706-2.72.885-4.158.534m-8.074-44.398c.564-2.314 1.88-4.48 3.944-6.492 2.065-2.014 4.713-3.453 7.943-4.317 3.23-.864 6.747-.835 10.547.092 3.532.86 6.493 2.273 8.878 4.236 2.387 1.962 4.044 4.242 4.973 6.843.927 2.6 1.07 5.218.43 7.847-.505 2.072-1.368 3.785-2.588 5.139-1.22 1.355-2.547 2.457-3.98 3.309-1.434.85-3.976 2.25-7.626 4.2-1.012.553-1.838 1.056-2.476 1.507-.639.45-1.139.883-1.498 1.3-.36.416-.664.843-.914 1.286-.249.444-.654 1.228-1.213 2.356-1.08 2.421-2.838 3.334-5.274 2.74-1.267-.307-2.233-.98-2.895-2.02-.664-1.038-.796-2.375-.398-4.007.498-2.047 1.246-3.741 2.246-5.085.997-1.346 2.16-2.456 3.483-3.334 1.323-.877 3.064-1.879 5.223-3.005 1.891-.983 3.27-1.74 4.133-2.262.863-.527 1.637-1.157 2.32-1.894.683-.737 1.145-1.605 1.39-2.605.474-1.949.15-3.77-.973-5.463-1.124-1.694-2.83-2.82-5.12-3.377-2.68-.653-4.818-.457-6.415.587-1.597 1.042-3.153 2.773-4.672 5.19-1.499 2.551-3.406 3.546-5.72 2.98-1.365-.332-2.399-1.093-3.102-2.285-.703-1.19-.919-2.346-.646-3.466" transform="translate(4 54) translate(63 .661)"/>
        </g>
    </g>
</svg>
