<svg xmlns="http://www.w3.org/2000/svg" xmlns:xlink="http://www.w3.org/1999/xlink" width="280" height="297" viewBox="0 0 280 297">
    <defs>
        <linearGradient id="prefix__d" x1="341.934%" x2="93.855%" y1="-141.904%" y2="20.691%">
            <stop offset="0%" stop-color="#A8F2FF"/>
            <stop offset="100%" stop-color="#8595F9"/>
        </linearGradient>
        <linearGradient id="prefix__g" x1=".002%" x2="99.996%" y1="50.001%" y2="50.001%">
            <stop offset="0%" stop-color="#FFB218"/>
            <stop offset="100%" stop-color="#FFCF44"/>
        </linearGradient>
        <linearGradient id="prefix__j" x1="-.002%" x2="100.005%" y1="50.005%" y2="50.005%">
            <stop offset="0%" stop-color="#FFB218"/>
            <stop offset="100%" stop-color="#FFCF44"/>
        </linearGradient>
        <linearGradient id="prefix__m" x1="-.003%" x2="99.998%" y1="50.005%" y2="50.005%">
            <stop offset="0%" stop-color="#FFB218"/>
            <stop offset="100%" stop-color="#FFCF44"/>
        </linearGradient>
        <linearGradient id="prefix__o" x1="100%" x2="-.004%" y1="49.998%" y2="49.998%">
            <stop offset="0%" stop-color="#FFB218"/>
            <stop offset="100%" stop-color="#FFCF44"/>
        </linearGradient>
        <linearGradient id="prefix__p" x1="99.993%" x2="-.008%" y1="49.998%" y2="49.998%">
            <stop offset="0%" stop-color="#FFB218"/>
            <stop offset="100%" stop-color="#FFCF44"/>
        </linearGradient>
        <path id="prefix__a" d="M49.491 1.152c-1.863.811-2.872 2.819-3.579 4.724-1.271 3.43-2.053 7.041-2.318 10.688-.065.899-.104 1.824-.482 2.641-.377.819-1.192 1.511-2.09 1.438-.769-.063-1.409-.675-1.71-1.385-.302-.71-.322-1.504-.293-2.275.206-5.578 2.836-11.025 7.077-14.654-1.81-1.084-4.065-1.395-6.101-.84-2.035.554-3.822 1.966-4.832 3.82-1.502 2.757-1.228 6.101-.912 9.227l.738 7.297c.093.916.135 1.975-.535 2.607-.612.575-1.627.533-2.341.09-.713-.442-1.175-1.196-1.521-1.961-1.354-2.995-1.281-6.479-.453-9.66.828-3.181 2.361-6.126 3.882-9.04-8.242 3.157-13.738 6.191-19.81 12.595l-2.244 2.304c.156 4.751 2.907 9.337 7.026 11.709.818.471 1.818 1.092 1.722 2.03-.068.669-.743 1.153-1.416 1.213-.671.059-1.327-.208-1.926-.518-4.685-2.423-7.546-7.964-6.808-13.187C4.527 25.476.869 33.481.694 41.621c-.052 2.374.19 4.794 1.113 6.982.921 2.189 2.586 4.134 4.785 5.029 2.199.896 4.939.586 6.654-1.056.994-.953 1.587-2.253 2.535-3.25.949-.997 2.867-1.978 3.689-.875.412.551-.894 1.818-1.515 2.37-.232.208-.455.431-.649.674-1.967 2.471-2.243 4.954-1.547 8.158.734 3.381 3.845 8.395 6.157 10.969 2.359 2.626 7.149 4.13 9.793 4.314.603.042 1.188.063 1.753.064h.113c9.78-.021 13.902-5.818 13.902-5.818s-6.494-.495-10.037-5.203c-3.202-4.256-2.991-9.405-5.456-14.126-.373-.714-.755-1.46-.789-2.265-.035-.806.382-1.692 1.153-1.93.799-.247 1.666.293 2.094 1.012.426.72.527 1.577.664 2.403.81 4.875 3.265 9.461 6.874 12.837 2.446 2.288 5.575 4.071 8.924 4.074 2.565.002 5.042-1.044 7.147-2.508 2.107-1.465 3.89-3.337 5.658-5.195-8.289 1.595-17.329-1.597-22.779-8.042-1.018-1.205-1.965-2.66-1.613-4.277.231-1.057 1.124-1.909 2.204-1.828 1.086.081 1.643 1.034 2.169 1.873 3.639 5.809 10.205 9.677 17.051 10.044 1.92.102 3.951-.086 5.55-1.155 2.834-1.894 3.556-5.985 6.41-7.849-7.354 3.906-16.807 3.505-23.803-1.008-.793-.512-1.58-1.097-2.047-1.917-.468-.821-.542-1.931.052-2.665.726-.897 2.146-.896 3.177-.381 1.033.514 1.81 1.415 2.68 2.173 2.339 2.037 5.426 3.076 8.514 3.373 3.088.297 6.201-.099 9.256-.646 1.681-.3 3.537-.766 4.452-2.209.515-.811.638-1.803.747-2.757l1.44-12.526c-.545 1.825-6.181 5.972-10.039 6.711-2.201.422-6.701.184-8.842-.471-.732-.224-1.481-.455-2.102-.904-.621-.449-1.105-1.161-1.076-1.926.033-.83.664-1.545 1.412-1.902.749-.358 1.601-.423 2.43-.45 1.357-.042 2.717.002 4.077.046 2.177.071 4.351.142 6.506-.145 3.5-.464 7.115-2.114 8.707-5.266-2.751-5.212-4.096-11.156-3.855-17.043.071-1.755.246-3.653-.705-5.13l-.649 1.594c-1.057 1.734-3.413 2.606-5.318 1.854-1.443-.57-2.598-1.91-4.145-2.021-1.093-.078-2.149.507-2.897 1.308-.749.801-1.24 1.801-1.721 2.785l-4.085 8.353c-.637 1.303-1.713 2.835-3.129 2.518-1.069-.239-1.603-1.441-1.804-2.519-.48-2.588.062-5.352 1.484-7.568 1.422-2.215 3.711-3.857 6.265-4.497-1.185-.941-2.389-1.891-3.782-2.481-.802-.34-1.682-.547-2.549-.547-.64 0-1.273.113-1.861.369m-3.427 26.45c-.649-.429-.811-1.352-.581-2.095.231-.742.388-1.091.773-1.767.346-.605 1.501-2.073 1.501-2.073.391-.411.982-.682 1.53-.537.441.116.786.482.962.903.175.42.199.888.165 1.343-.102 1.357-.723 2.668-1.707 3.608-.355.337-.763.633-1.231.774-.18.055-.37.084-.559.084-.303 0-.602-.075-.853-.24m-7.115 3.03c-.46-.047-.848-.395-1.054-.808-.206-.414-.258-.886-.276-1.348-.058-1.439.182-2.891.7-4.234.229-.592.586-1.227 1.203-1.371.433-.101.898.082 1.218.391.319.309.512.727.641 1.153.407 1.35.115 2.817-.532 4.07-.173.335-.586 1.387-.586 1.387-.259.425-.716.765-1.207.765-.036 0-.071-.002-.107-.005m15.358-3.838c-.398-.225-.573-.742-.476-1.189.098-.447.425-.818.815-1.057.39-.24.84-.362 1.287-.456.277-.058.564-.107.843-.058.28.048.555.21.666.471.12.279.027.614-.161.851l-.189.274c-.394.488-.91.875-1.487 1.117-.242.102-.511.177-.771.177-.184 0-.364-.037-.527-.13m-29.518 8.567c-1.952-1.722-2.827-4.575-2.176-7.096.261-1.012.964-2.105 2.008-2.094.56.007 1.074.35 1.42.789.348.439.555.969.759 1.491l1.14 2.156c.521.946 1.055 1.934 1.125 3.013.07 1.079-.465 2.28-1.492 2.618-.201.066-.405.097-.61.097-.782 0-1.568-.44-2.174-.974m6.39-3.278c-.499-.366-.778-.974-.86-1.586-.082-.613.013-1.236.142-1.84.08-.375.176-.756.389-1.074.212-.32.564-.571.948-.565.409.005.772.303.963.665l.235.384c.387.753.583 1.603.567 2.45-.011.606-.166 1.267-.653 1.629-.227.167-.503.245-.784.245-.334 0-.676-.11-.947-.308m15.928 5.159c-1.036-.393-2.212-.937-2.468-2.015-.151-.631.081-1.317.519-1.796.438-.48 1.058-.766 1.695-.889 1.185-.231 2.371.226 3.401.857 1.496.918 2 2.439 2 2.439.023 1.06-1.019 1.894-2.069 2.027-.146.019-.292.027-.438.027-.9 0-1.789-.327-2.64-.65m-9.739 5.265c-.882-.314-1.677-.979-1.96-1.871-.312-.98.085-2.142.932-2.727.847-.585 2.002-.442 2.881.094.57.347 2.435 1.101 2.435 1.101.736.482 1.248 1.429.946 2.256-.341.93-1.472 1.268-2.459 1.37-.326.033-.656.055-.985.055-.61 0-1.217-.074-1.79-.278m-21.72.47c-.819-.215-1.622-.553-2.263-1.107-.64-.555-1.105-1.346-1.143-2.192-.073-1.59 6.998-2.45 8.615-1.412.47.301.867.715 1.144 1.2l.039.069c.698 1.25.049 2.854-1.315 3.292-.907.29-1.861.438-2.813.438-.763 0-1.526-.095-2.264-.288m10.086 15.404c-.739-.548-1.24-1.364-1.598-2.213-1.038-2.457-.98-5.352.155-7.766.224-.478.505-.956.954-1.235.449-.278 1.06-.25 1.454.102.962.857 2.196 5.305 2.196 5.305.501 1.065 1.01 2.167 1.05 3.342.039 1.177-.515 2.455-1.604 2.9-.275.112-.566.164-.859.164-.618 0-1.245-.228-1.748-.599"/>
        <path id="prefix__c" d="M19.755.382c-4.677 3.039-8.91 6.653-12.649 10.75-2.446 2.374-4.742 4.907-6.861 7.604-.313.399.289.912.605.511.184-.237.381-.461.569-.695.122.027.254 0 .36-.124.41-.488.837-.961 1.258-1.438.121.029.253 0 .352-.135.427-.576.873-1.136 1.317-1.698 4.69-4.999 9.966-9.39 15.767-13.086.428-.273-.024-.922-.453-.649-.172.11-.34.225-.511.335-.053-.058-.116-.105-.192-.127.297-.2.59-.405.892-.6.353-.23.102-.716-.237-.716-.07 0-.144.02-.217.068"/>
        <path id="prefix__f" d="M4.895.377C2.62.377.749 2.173.707 4.414c-.02 1.101.398 2.144 1.179 2.935.775.786 1.818 1.231 2.935 1.252h.076c2.275 0 4.146-1.796 4.188-4.037.02-1.101-.398-2.143-1.178-2.935C7.13.843 6.088.398 4.972.377h-.077zm-.052 6.927c-.775-.014-1.497-.322-2.035-.866-.532-.541-.818-1.251-.804-2 .028-1.535 1.32-2.764 2.891-2.764h.053c.775.015 1.498.321 2.035.867.533.54.818 1.25.805 1.999-.029 1.535-1.336 2.764-2.891 2.764h-.054z"/>
        <path id="prefix__i" d="M.083 5.546c-.054 2.942 2.271 5.369 5.192 5.423 2.92.054 5.33-2.287 5.383-5.23.054-2.942-2.271-5.37-5.191-5.424L5.37.314C2.493.314.135 2.636.083 5.546"/>
        <path id="prefix__l" d="M.941 2.945C.911 4.585 2.207 5.94 3.836 5.97c1.629.029 2.973-1.276 3.003-2.916C6.868 1.412 5.572.059 3.943.028L3.891.027C2.286.027.97 1.322.941 2.945"/>
        <path id="prefix__q" d="M0.738 0.325L33.103 0.325 33.103 29.268 0.738 29.268z"/>
    </defs>
    <g fill="none" fill-rule="evenodd">
        <g>
            <g>
                <path fill="#619440" d="M1.097 66.783c.59-2.613 2.115-11.321 4.63-12.247 2.741-1.01 6.131.287 7.501 2.867.591 1.114.852 2.432 1.987 3.18.633.418 1.504.424 2.027-.126.854-.9.044-2.267-.65-3.254-1.333-1.89-2.282-4.121-2.292-6.434-.01-2.312 1.031-4.694 2.975-5.946 1.945-1.251 4.79-1.107 6.358.592.981 1.06 1.395 2.566 2.677 3.397.666.432 1.54.519 2.184.056 1.301-.936.423-2.946-.459-4.276-1.245-1.88-2.34-3.923-2.667-6.154-.328-2.23.22-4.685 1.858-6.234 1.64-1.55 4.457-1.877 6.15-.388.678.597 1.13 1.409 1.762 2.054.758.772 1.984 1.308 2.912.486.644-.57.75-1.521.431-2.318-.442-1.105-1.334-1.773-2.219-2.453-1.396-1.072-2.36-2.647-2.565-4.395-.615-5.223 5.165-7.235 8.423-4.942.915.643 1.83 1.627 2.947 1.31.883-.248 1.367-1.176 1.27-2.088-.19-1.801-1.68-2.844-2.473-4.308-1.448-2.678.178-6.505 3.11-7.321 2.243-.624 2.825 2.28 3.84 4.823.234.584 1.093.46 1.16-.166.261-2.49 1.084-5.597 1.714-7.312 1.157-3.146 5.864-6.597 8.112-2.071.603 1.214.145 4.337-.632 5.2-1.098 1.223-3.712 5.424-3.712 5.424-.245.48.3.983.754.69 1.031-.662 2.137-1.182 3.408-1.297.582-.053 1.177.005 1.73.195 3.29 1.134 2.778 5.184.676 7.124-1.747 1.613-4.192 2.167-6.505 2.717-1.199.286-2.496.649-3.09 1.815-.339.66-.259 1.502.307 1.983.654.553 1.401.244 2.121.153 2.353-.3 4.491 2.043 4.47 4.416-.022 2.372-1.76 4.482-3.892 5.525-2.13 1.043-4.59 1.187-6.96 1.066-1.169-.06-2.428-.16-3.35.706-.547.51-.709 1.369-.252 1.96.651.84 1.865.464 2.881.407 2.821-.156 5.062 2.984 4.617 5.774-.444 2.79-2.904 4.932-5.6 5.777-3.038.952-6.34.548-9.462.11-.733-.103-1.487.293-1.714.998-.315.98.578 1.539 1.275 2.045 2.696 1.955 3.75 5.876 2.396 8.918-1.352 3.042-4.969 4.887-8.226 4.195-2.069-.44-3.955-1.771-6.198-1.096-1.11.334-1.909 1.396-1.697 2.536.268 1.438 1.881 1.848 3.088 2.522 3.347 1.868 3.91 6.919 1.71 10.059-2.2 3.14-9.263 3.238-13.089 2.996-3.825-.243-11.81-.578-15.896-3.18-1.925-1.225-.45-13.458.14-16.07" transform="matrix(-1 0 0 1 153 161) translate(0 3.623)"/>
                <path fill="#306B34" d="M61.8 3.115c.603 1.214.145 4.337-.632 5.2-1.098 1.223-3.712 5.424-3.712 5.424-.245.48.3.983.754.69 1.031-.662 2.136-1.182 3.408-1.297.581-.053 1.177.004 1.73.195 3.288 1.134 2.778 5.184.676 7.124-1.747 1.613-4.192 2.167-6.505 2.717-1.199.286-2.496.649-3.092 1.815-.337.66-.257 1.502.31 1.983.653.553 1.4.244 2.12.153 2.353-.3 4.491 2.043 4.47 4.416-.023 2.372-1.76 4.482-3.892 5.525-2.132 1.043-4.59 1.187-6.96 1.066-1.169-.06-2.428-.16-3.35.706-.547.51-.709 1.369-.252 1.96.651.84 1.864.464 2.881.407 2.82-.156 5.062 2.984 4.617 5.774-.445 2.79-2.904 4.932-5.6 5.777-3.038.952-6.342.548-9.462.11-.734-.103-1.488.293-1.715.998-.315.98.58 1.539 1.276 2.045 2.696 1.955 3.75 5.876 2.396 8.918-1.352 3.042-4.969 4.887-8.226 4.195-2.07-.44-3.955-1.771-6.198-1.096-1.11.334-1.909 1.396-1.697 2.536.268 1.438 1.881 1.848 3.088 2.522 3.347 1.868 6.782 9.022 4.582 12.16-2.2 3.14-12.135 1.137-15.96.895-3.57-.227-10.76-.533-15.027-2.687-.306-.155-.87-.493-.87-.493s21.127-18.358 39.4-42.695C50.507 26.638 59.53 1.023 59.53 1.023s.357.078.77.37c.71.502 1.38 1.484 1.5 1.722" transform="matrix(-1 0 0 1 153 161) translate(0 3.623)"/>
            </g>
            <g transform="matrix(-1 0 0 1 153 161) translate(12 53.623)">
                <mask id="prefix__b" fill="#fff">
                    <use xlink:href="#prefix__a"/>
                </mask>
                <path fill="#FBBF00" d="M49.491 1.152c-1.863.811-2.872 2.819-3.579 4.724-1.271 3.43-2.053 7.041-2.318 10.688-.065.899-.104 1.824-.482 2.641-.377.819-1.192 1.511-2.09 1.438-.769-.063-1.409-.675-1.71-1.385-.302-.71-.322-1.504-.293-2.275.206-5.578 2.836-11.025 7.077-14.654-1.81-1.084-4.065-1.395-6.101-.84-2.035.554-3.822 1.966-4.832 3.82-1.502 2.757-1.228 6.101-.912 9.227l.738 7.297c.093.916.135 1.975-.535 2.607-.612.575-1.627.533-2.341.09-.713-.442-1.175-1.196-1.521-1.961-1.354-2.995-1.281-6.479-.453-9.66.828-3.181 2.361-6.126 3.882-9.04-8.242 3.157-13.738 6.191-19.81 12.595l-2.244 2.304c.156 4.751 2.907 9.337 7.026 11.709.818.471 1.818 1.092 1.722 2.03-.068.669-.743 1.153-1.416 1.213-.671.059-1.327-.208-1.926-.518-4.685-2.423-7.546-7.964-6.808-13.187C4.527 25.476.869 33.481.694 41.621c-.052 2.374.19 4.794 1.113 6.982.921 2.189 2.586 4.134 4.785 5.029 2.199.896 4.939.586 6.654-1.056.994-.953 1.587-2.253 2.535-3.25.949-.997 2.867-1.978 3.689-.875.412.551-.894 1.818-1.515 2.37-.232.208-.455.431-.649.674-1.967 2.471-2.243 4.954-1.547 8.158.734 3.381 3.845 8.395 6.157 10.969 2.359 2.626 7.149 4.13 9.793 4.314.603.042 1.188.063 1.753.064h.113c9.78-.021 13.902-5.818 13.902-5.818s-6.494-.495-10.037-5.203c-3.202-4.256-2.991-9.405-5.456-14.126-.373-.714-.755-1.46-.789-2.265-.035-.806.382-1.692 1.153-1.93.799-.247 1.666.293 2.094 1.012.426.72.527 1.577.664 2.403.81 4.875 3.265 9.461 6.874 12.837 2.446 2.288 5.575 4.071 8.924 4.074 2.565.002 5.042-1.044 7.147-2.508 2.107-1.465 3.89-3.337 5.658-5.195-8.289 1.595-17.329-1.597-22.779-8.042-1.018-1.205-1.965-2.66-1.613-4.277.231-1.057 1.124-1.909 2.204-1.828 1.086.081 1.643 1.034 2.169 1.873 3.639 5.809 10.205 9.677 17.051 10.044 1.92.102 3.951-.086 5.55-1.155 2.834-1.894 3.556-5.985 6.41-7.849-7.354 3.906-16.807 3.505-23.803-1.008-.793-.512-1.58-1.097-2.047-1.917-.468-.821-.542-1.931.052-2.665.726-.897 2.146-.896 3.177-.381 1.033.514 1.81 1.415 2.68 2.173 2.339 2.037 5.426 3.076 8.514 3.373 3.088.297 6.201-.099 9.256-.646 1.681-.3 3.537-.766 4.452-2.209.515-.811.638-1.803.747-2.757l1.44-12.526c-.545 1.825-6.181 5.972-10.039 6.711-2.201.422-6.701.184-8.842-.471-.732-.224-1.481-.455-2.102-.904-.621-.449-1.105-1.161-1.076-1.926.033-.83.664-1.545 1.412-1.902.749-.358 1.601-.423 2.43-.45 1.357-.042 2.717.002 4.077.046 2.177.071 4.351.142 6.506-.145 3.5-.464 7.115-2.114 8.707-5.266-2.751-5.212-4.096-11.156-3.855-17.043.071-1.755.246-3.653-.705-5.13l-.649 1.594c-1.057 1.734-3.413 2.606-5.318 1.854-1.443-.57-2.598-1.91-4.145-2.021-1.093-.078-2.149.507-2.897 1.308-.749.801-1.24 1.801-1.721 2.785l-4.085 8.353c-.637 1.303-1.713 2.835-3.129 2.518-1.069-.239-1.603-1.441-1.804-2.519-.48-2.588.062-5.352 1.484-7.568 1.422-2.215 3.711-3.857 6.265-4.497-1.185-.941-2.389-1.891-3.782-2.481-.802-.34-1.682-.547-2.549-.547-.64 0-1.273.113-1.861.369m-3.427 26.45c-.649-.429-.811-1.352-.581-2.095.231-.742.388-1.091.773-1.767.346-.605 1.501-2.073 1.501-2.073.391-.411.982-.682 1.53-.537.441.116.786.482.962.903.175.42.199.888.165 1.343-.102 1.357-.723 2.668-1.707 3.608-.355.337-.763.633-1.231.774-.18.055-.37.084-.559.084-.303 0-.602-.075-.853-.24m-7.115 3.03c-.46-.047-.848-.395-1.054-.808-.206-.414-.258-.886-.276-1.348-.058-1.439.182-2.891.7-4.234.229-.592.586-1.227 1.203-1.371.433-.101.898.082 1.218.391.319.309.512.727.641 1.153.407 1.35.115 2.817-.532 4.07-.173.335-.586 1.387-.586 1.387-.259.425-.716.765-1.207.765-.036 0-.071-.002-.107-.005m15.358-3.838c-.398-.225-.573-.742-.476-1.189.098-.447.425-.818.815-1.057.39-.24.84-.362 1.287-.456.277-.058.564-.107.843-.058.28.048.555.21.666.471.12.279.027.614-.161.851l-.189.274c-.394.488-.91.875-1.487 1.117-.242.102-.511.177-.771.177-.184 0-.364-.037-.527-.13m-29.518 8.567c-1.952-1.722-2.827-4.575-2.176-7.096.261-1.012.964-2.105 2.008-2.094.56.007 1.074.35 1.42.789.348.439.555.969.759 1.491l1.14 2.156c.521.946 1.055 1.934 1.125 3.013.07 1.079-.465 2.28-1.492 2.618-.201.066-.405.097-.61.097-.782 0-1.568-.44-2.174-.974m6.39-3.278c-.499-.366-.778-.974-.86-1.586-.082-.613.013-1.236.142-1.84.08-.375.176-.756.389-1.074.212-.32.564-.571.948-.565.409.005.772.303.963.665l.235.384c.387.753.583 1.603.567 2.45-.011.606-.166 1.267-.653 1.629-.227.167-.503.245-.784.245-.334 0-.676-.11-.947-.308m15.928 5.159c-1.036-.393-2.212-.937-2.468-2.015-.151-.631.081-1.317.519-1.796.438-.48 1.058-.766 1.695-.889 1.185-.231 2.371.226 3.401.857 1.496.918 2 2.439 2 2.439.023 1.06-1.019 1.894-2.069 2.027-.146.019-.292.027-.438.027-.9 0-1.789-.327-2.64-.65m-9.739 5.265c-.882-.314-1.677-.979-1.96-1.871-.312-.98.085-2.142.932-2.727.847-.585 2.002-.442 2.881.094.57.347 2.435 1.101 2.435 1.101.736.482 1.248 1.429.946 2.256-.341.93-1.472 1.268-2.459 1.37-.326.033-.656.055-.985.055-.61 0-1.217-.074-1.79-.278m-21.72.47c-.819-.215-1.622-.553-2.263-1.107-.64-.555-1.105-1.346-1.143-2.192-.073-1.59 6.998-2.45 8.615-1.412.47.301.867.715 1.144 1.2l.039.069c.698 1.25.049 2.854-1.315 3.292-.907.29-1.861.438-2.813.438-.763 0-1.526-.095-2.264-.288m10.086 15.404c-.739-.548-1.24-1.364-1.598-2.213-1.038-2.457-.98-5.352.155-7.766.224-.478.505-.956.954-1.235.449-.278 1.06-.25 1.454.102.962.857 2.196 5.305 2.196 5.305.501 1.065 1.01 2.167 1.05 3.342.039 1.177-.515 2.455-1.604 2.9-.275.112-.566.164-.859.164-.618 0-1.245-.228-1.748-.599" mask="url(#prefix__b)"/>
            </g>
            <g transform="matrix(-1 0 0 1 153 161) translate(15 98.623)">
                <mask id="prefix__e" fill="#fff">
                    <use xlink:href="#prefix__c"/>
                </mask>
                <path fill="url(#prefix__d)" d="M19.755.382c-4.677 3.039-8.91 6.653-12.649 10.75-2.446 2.374-4.742 4.907-6.861 7.604-.313.399.289.912.605.511.184-.237.381-.461.569-.695.122.027.254 0 .36-.124.41-.488.837-.961 1.258-1.438.121.029.253 0 .352-.135.427-.576.873-1.136 1.317-1.698 4.69-4.999 9.966-9.39 15.767-13.086.428-.273-.024-.922-.453-.649-.172.11-.34.225-.511.335-.053-.058-.116-.105-.192-.127.297-.2.59-.405.892-.6.353-.23.102-.716-.237-.716-.07 0-.144.02-.217.068" mask="url(#prefix__e)"/>
            </g>
            <path fill="#306B34" d="M64.645 44.808l-.042-.034c-1.58-1.237-3.857-.974-5.078.584-.59.754-.848 1.695-.727 2.651.123.958.598 1.811 1.378 2.416 1.579 1.236 3.857.974 5.077-.585.59-.754.849-1.695.727-2.65-.12-.942-.593-1.785-1.335-2.382m-5.423 6.716c-1.036-.835-1.698-2.015-1.865-3.33-.171-1.345.192-2.67 1.024-3.732 1.714-2.189 4.907-2.562 7.117-.833 1.072.831 1.752 2.036 1.924 3.377.17 1.344-.193 2.67-1.024 3.73-1.714 2.19-4.907 2.563-7.118.834-.02-.015-.04-.03-.058-.046" transform="matrix(-1 0 0 1 153 161)"/>
            <g transform="matrix(-1 0 0 1 153 161) translate(43 .623)">
                <mask id="prefix__h" fill="#fff">
                    <use xlink:href="#prefix__f"/>
                </mask>
                <path fill="url(#prefix__g)" d="M4.895.377C2.62.377.749 2.173.707 4.414c-.02 1.101.398 2.144 1.179 2.935.775.786 1.818 1.231 2.935 1.252h.076c2.275 0 4.146-1.796 4.188-4.037.02-1.101-.398-2.143-1.178-2.935C7.13.843 6.088.398 4.972.377h-.077zm-.052 6.927c-.775-.014-1.497-.322-2.035-.866-.532-.541-.818-1.251-.804-2 .028-1.535 1.32-2.764 2.891-2.764h.053c.775.015 1.498.321 2.035.867.533.54.818 1.25.805 1.999-.029 1.535-1.336 2.764-2.891 2.764h-.054z" mask="url(#prefix__h)"/>
            </g>
            <g transform="matrix(-1 0 0 1 153 161) translate(30 9.623)">
                <mask id="prefix__k" fill="#fff">
                    <use xlink:href="#prefix__i"/>
                </mask>
                <path fill="url(#prefix__j)" d="M.083 5.546c-.054 2.942 2.271 5.369 5.192 5.423 2.92.054 5.33-2.287 5.383-5.23.054-2.942-2.271-5.37-5.191-5.424L5.37.314C2.493.314.135 2.636.083 5.546" mask="url(#prefix__k)"/>
            </g>
            <g transform="matrix(-1 0 0 1 153 161) translate(66 38.623)">
                <mask id="prefix__n" fill="#fff">
                    <use xlink:href="#prefix__l"/>
                </mask>
                <path fill="url(#prefix__m)" d="M.941 2.945C.911 4.585 2.207 5.94 3.836 5.97c1.629.029 2.973-1.276 3.003-2.916C6.868 1.412 5.572.059 3.943.028L3.891.027C2.286.027.97 1.322.941 2.945" mask="url(#prefix__n)"/>
            </g>
        </g>
        <path fill="#306B34" d="M3.146 246.467c0 3.487 2.827 6.313 6.314 6.313 3.486 0 6.313-2.826 6.313-6.313 0-3.487-2.826-6.314-6.313-6.314-3.488 0-6.315 2.827-6.315 6.314"/>
        <path fill="url(#prefix__o)" d="M19.562 238.311c0 2.301 1.865 4.167 4.166 4.167 2.303 0 4.168-1.866 4.168-4.167 0-2.302-1.865-4.168-4.168-4.168-2.301 0-4.166 1.866-4.166 4.168"/>
        <path fill="url(#prefix__p)" d="M10.71 230.405c0 1.61 1.306 2.917 2.917 2.917 1.611 0 2.917-1.307 2.917-2.917 0-1.612-1.306-2.918-2.917-2.918-1.611 0-2.917 1.306-2.917 2.918"/>
        <g>
            <path fill="#FCBD30" d="M141.51 3.89s-15.796-4.323-18.772 10.756c-1.36 6.888-3.742 21.53-17.876 21.64 0 0 3.27 13.931 20.712 16.084 19.036 2.35 31.593-20.909 28.772-32.237C151.525 8.805 141.51 3.89 141.51 3.89" transform="translate(7 24)"/>
            <path fill="#FCBD30" d="M137.387 3.806S142.265.901 144.712 2c3.91 1.76 2.364 6.991 2.364 6.991l-9.69-5.185z" transform="translate(7 24)"/>
            <g transform="translate(7 24) translate(122 .675)">
                <mask id="prefix__r" fill="#fff">
                    <use xlink:href="#prefix__q"/>
                </mask>
                <path fill="#E7E1D3" d="M.738 13.971c.509-1.7 1.097-3.367 2.017-4.849.943-1.457 2.13-2.729 3.549-3.665 2.859-1.894 6.424-2.305 9.818-2.059.13.01.264-.023.372-.076 1.013-.506 2.067-.947 3.126-1.232 1.048-.277 2.164-.414 2.9-.002 1.826.84 2.382 3.112 2.02 5.262-.041.243.049.481.214.64 2.84 2.68 5.093 5.972 6.507 9.63.719 1.842 1.123 3.732 1.16 5.716.054 1.976-.216 3.964-.608 5.932.666-1.896 1.09-3.885 1.239-5.918.197-2.035-.2-4.134-.812-6.068-1.196-3.933-3.54-7.479-6.48-10.339l.214.638c.199-1.235.229-2.538-.17-3.826-.373-1.285-1.36-2.49-2.61-3.04C21.79.05 20.399.371 19.23.68c-1.196.35-2.305.842-3.376 1.401l.37-.076c-3.611-.254-7.483.424-10.466 2.674C4.27 5.773 3.078 7.23 2.265 8.847c-.807 1.626-1.26 3.373-1.527 5.124" mask="url(#prefix__r)"/>
            </g>
            <path fill="#F7E8C8" d="M249.387 266.316c0-3.513-55.827-6.359-124.694-6.359-68.865 0-124.692 2.846-124.692 6.36 0 3.511 55.827 6.357 124.692 6.357 68.867 0 124.694-2.846 124.694-6.358" transform="translate(7 24)"/>
            <path fill="#E7E1D3" d="M188.602 116.52c-8.568 1.835-17.449-4.518-22.853-14.96-6.029-11.652-11.647-22.68-2.86-29.542 0 0 14.13 13.837 17.837 18.404 7.427 9.152 14.996 18.47 14.996 18.47s-2.092 6.55-7.12 7.627" transform="translate(7 24)"/>
            <path fill="#E7E1D3" d="M158.604 83.307l15.486 3.844s-5.515-23.588-6.132-29.967c-.803-8.283-5.381-18.543-15.374-20.938l.463 4.893 5.557 42.168z" transform="translate(7 24)"/>
            <path fill="#FFE2B7" d="M200.967 262.135s-1.915-4.219-2.748-6.188c-.136-.322-2.012-7.007-2.012-7.007l-4.608.594 3.738 6.192s3.099 6.966 3.256 7c.157.034 2.374-.59 2.374-.59" transform="translate(7 24)"/>
            <path fill="#7F786A" d="M195.407 255.754s-2.083.913-1.998 3.783c.085 2.87.285 4.94.285 4.94l1.046.224.615-3.4s.955.933 1.82 3.25c.39 1.044 6.104 1.766 6.104 1.766s1.357-.877-.635-2.351c-.494-.366-1.776-1.972-1.776-1.972s-1.076 1.003-2.249-.275c-.526-.573-1.443-2.04-2.055-3.252-.754-1.494-1.157-2.713-1.157-2.713" transform="translate(7 24)"/>
            <path fill="#FFE2B7" d="M136.585 259.637s-3.296-3.679-3.765-5.63c-.082-.339.66-5.599.66-5.599l-3.806 1.812s.48 2.816.432 3.762c-.02.418-.354 1.637-.354 1.637s4.434 4.996 4.595 5.004c.161.007 2.238-.986 2.238-.986" transform="translate(7 24)"/>
            <path fill="#7F786A" d="M130.017 254.299s-1.896 1.255-1.323 4.068c.575 2.815.77 4.454.77 4.454l1.068.043.38-3.091s1.102.756 2.35 2.89c.562.963 6.329.337 6.329.337s1.187-1.096-1.027-2.208c-.55-.275-2.1-1.278-2.1-1.278s-.89 1.172-2.263.112c-.616-.474-1.77-1.762-2.58-2.852-1-1.343-1.604-2.475-1.604-2.475" transform="translate(7 24)"/>
            <path fill="#A29C8F" d="M143.926 89.129c-3.746 4.82-5.488 35.72-5.488 35.72l19.652 51.29 31.402 75.199 7.907-.751s-8.957-62.763-11.95-79.274c-7.489-41.292-17.705-74.525-25.563-87.188-3.516 1.744-5.954 5.366-15.96 5.004" transform="translate(7 24)"/>
            <path fill="#7F786A" d="M125.868 81.694c-7.056 8.464-14.4 13.903-17.134 42.64-2.196 23.1 19.882 127.518 19.882 127.518l8.256.28 9.976-131.942 3.532-30.004s-21.675-7.414-24.512-8.492" transform="translate(7 24)"/>
            <path fill="#E1DCFF" d="M150.432 75.55c.032.877-.653 1.614-1.53 1.647-.877.03-1.614-.654-1.646-1.532-.032-.877.654-1.613 1.53-1.645.877-.031 1.614.654 1.646 1.53" transform="translate(7 24)"/>
            <path fill="#F5EFE4" d="M161.335 83.249s-4.225 2.137-17.562 2.66c-12.209.48-19.118-3.792-19.118-3.792l-1.825-24.665c-.662-7.582-4.585-19.44 9.541-20.814 0 0 15.51-.822 19.645-.485 8.498.694 10.255 11.057 10.753 19.642.483 8.312-1.434 27.454-1.434 27.454" transform="translate(7 24)"/>
            <path fill="#A29C8F" d="M124.86 81.173s23.873 5.274 36.606.943l.201 4.962s-8.153 2.919-18.42 2.712c-6.534-.133-14.264-2.18-20.195-4.958l1.807-3.66z" transform="translate(7 24)"/>
            <path fill="#FCC23F" d="M145.058 87.123c.011.714.301 1.378.817 1.87.517.49 1.196.757 1.91.727 2.433-.076 4.287-.351 5.393-.794l.186-4.65-5.745.17c-1.434.04-2.583 1.242-2.56 2.677m2.491 3.496c-.86-.034-1.667-.375-2.295-.975-.693-.66-1.082-1.55-1.097-2.505v-.001c-.029-1.925 1.512-3.536 3.435-3.592l6.227-.182c.131.004.246.045.333.133.088.089.135.21.13.335l-.217 5.41c-.007.168-.106.319-.257.39-1.193.568-3.21.899-5.997.988-.087.003-.175.003-.262-.001" transform="translate(7 24)"/>
            <path fill="#FCC23F" d="M147.545 87.814c-.753-.03-1.189-.113-1.228-.12-.243-.048-.402-.284-.354-.528.047-.245.288-.403.527-.356.02.002 1.96.365 4.872-.229.243-.047.481.107.531.35.05.243-.108.482-.35.53-1.703.35-3.084.39-3.998.353" transform="translate(7 24)"/>
            <path fill="#F5EFE4" d="M111.12 81.743s-6.922 3.128-8.526-.95c-2.398-6.1-.97-12.98 7.904-27.412 6.513-10.595 14.045-17.675 23.487-16.21L111.12 81.744z" transform="translate(7 24)"/>
            <path fill="#FFE2B7" d="M141.72 38.716l.375.03c1.018.085 1.911-.672 1.995-1.69l.69-8.335c.084-1.02-.673-1.912-1.69-1.996l-.375-.031c-1.018-.084-1.912.672-1.996 1.69l-.69 8.336c-.084 1.017.673 1.91 1.691 1.996" transform="translate(7 24)"/>
            <path fill="#FFC581" d="M144.644 30.366c.16-1.927-.62-3.564-1.742-3.657-1.12-.093-2.16 1.394-2.319 3.321l-.356 4.308c-.087 1.052 1.39 1.852 2.68.304.844-1.013 1.635-2.297 1.635-2.297l.102-1.979z" transform="translate(7 24)"/>
            <path fill="#FFE2B7" d="M133.742 19.181c.478-.146 1.597.323 1.597.323-.061-3.747 2.927-6.834 6.673-6.895 3.746-.06 6.238 2.936 6.3 6.682 0 0 .154 5.602.048 6.308-.696 4.618-2.568 6.008-6.037 6.064-3.468.057-6.365-2.5-6.827-5.853-.707-.102-1.584-1.299-2.078-2.913-.559-1.826-.415-3.49.323-3.716" transform="translate(7 24)"/>
            <path fill="#FCBD30" d="M145.692 8.892s1.19 7.173-4.21 11.582c-2.267 1.851-7.166 2.901-11.436 3.234C115.6 24.833 134.44 4.26 145.692 8.892" transform="translate(7 24)"/>
            <path fill="#E7E1D3" d="M145.934 7.658c-.132 2.26-.498 4.44-1.195 6.445-.742 1.95-1.779 3.869-3.278 5.097-1.5 1.31-3.506 2.124-5.535 2.86-2.06.693-4.219 1.205-6.434 1.707 2.258.375 4.56.264 6.84-.133 2.272-.413 4.565-1.227 6.5-2.83 1.928-1.684 3.005-3.953 3.468-6.277.435-2.322.368-4.696-.366-6.87" transform="translate(7 24)"/>
            <path fill="#FFE2B7" d="M136.836 26.294c-.082 1.184-1.108 2.077-2.292 1.996-1.183-.082-2.077-1.108-1.995-2.292.081-1.183 1.107-2.077 2.291-1.995 1.184.08 2.078 1.107 1.996 2.29" transform="translate(7 24)"/>
            <path fill="#E7E1D3" d="M144.233 35.492s.027 1.114-.528 1.758c-.24.28-1.568.988-1.568.988l2.058 3.242s1.298-1.343 1.601-1.87c1.116-1.937.698-3.478.698-3.478l-2.26-.64z" transform="translate(7 24)"/>
            <path fill="#E7E1D3" d="M142.916 38.122L141 41.576s-2.766-2.883-2.953-4.518l2.12-1.981s.58 2.556 2.75 3.045" transform="translate(7 24)"/>
            <path fill="#FFE2B7" d="M192.168 109.92c-.584.32-1.075 1.077-.694 1.624.543.78 3.53.714 3.53.714l.096-2.36s-2.098-.435-2.932.022" transform="translate(7 24)"/>
            <path fill="#FFE2B7" d="M197.672 107.484s2.127.615 2.548 1.176c.322.43.318 2.122.318 2.122s-3.408 1.191-4.658 1.411c-.866.152-1.646.064-2.152-.735-.335-.53-.187-1.232.336-1.578l3.608-2.396z" transform="translate(7 24)"/>
            <path fill="#FFE2B7" d="M200.05 105.247c-.57-.29-1.269-.063-1.559.507l-1.328 2.604 1.032.527 1.854-3.638z" transform="translate(7 24)"/>
            <path fill="#FFE2B7" d="M201.87 105.105c-.54-.343-1.296-.119-1.689.5l-1.796 2.826.978.621 2.507-3.947z" transform="translate(7 24)"/>
            <path fill="#FFE2B7" d="M202.565 105.85c-.54-.344-1.296-.12-1.69.498l-1.795 2.827.978.621 2.507-3.947z" transform="translate(7 24)"/>
            <path fill="#FFE2B7" d="M203.203 107.325c-.504-.394-1.279-.244-1.729.334l-2.06 2.64 1.124.483 2.665-3.457zM137.261 104.697l2.58 1.574c.064-.095.131-.178.207-.235 1.02-.754 5.595.105 5.595.105l.036.074.065-.051 4.689 1.468c-.187.611-1.035.894-1.894.631l-2.321-.71c.033.117.059.225.075.326l2.456 2.191c-.366.409-.991.439-1.509.137l.603.631c-.355.339-.899.37-1.363.128-.354.128-.758.102-1.082-.14l-.802-.6-4.34-.383c-.434-.053-.769-.348-.919-.728l-3.602-1.799 1.526-2.619z" transform="translate(7 24)"/>
            <path fill="#E7E1D3" d="M132.226 111.297c-11.225.157-19.388-10.008-24.243-17.374-5.418-8.22-11.24-18.168-4.705-23.978 0 0 12.802 8.352 15.961 11.42 6.328 6.149 20.171 23.186 20.171 23.186s-3.17 6.69-7.184 6.746" transform="translate(7 24)"/>
            <path fill="#FAAA36" d="M148.801 254.614c0 1.105 1.131 2.162 3.173 3.133.691.33 1.478.649 2.372.958.381.131.777.26 1.192.386 1.807.552 3.946 1.062 6.353 1.524 2.782.534 5.925 1.002 9.366 1.389.775.087 1.57.169 2.372.248.395.038.79.077 1.192.113 2.038.186 4.16.346 6.353.475 3.002.177 6.134.299 9.366.36.785.015 1.576.026 2.373.033.394.004.793.005 1.191.007.353.001.703.005 1.057.005 1.792.001 3.557-.02 5.296-.056 3.235-.067 6.367-.197 9.366-.381.801-.049 1.592-.102 2.373-.16.398-.029.798-.057 1.191-.089 2.213-.174 4.333-.382 6.353-.616 3.454-.401 6.602-.884 9.366-1.434.827-.165 1.617-.336 2.372-.512.408-.096.806-.192 1.192-.29 2.69-.686 4.841-1.447 6.353-2.266 1.62-.876 2.51-1.814 2.511-2.793l-.005 7.465h-.007c-.026.961-.912 1.883-2.499 2.744-1.51.819-3.663 1.582-6.353 2.268-.386.098-.784.195-1.192.291-.756.177-1.545.347-2.372.512-2.763.552-5.912 1.035-9.366 1.435-2.02.234-4.14.441-6.353.617-.393.031-.793.06-1.19.089-.782.058-1.573.11-2.374.16-2.999.185-6.13.314-9.366.381-1.74.036-3.508.057-5.3.056-.354 0-.702-.004-1.053-.005-.398-.002-.797-.002-1.19-.006-.798-.008-1.589-.019-2.374-.033-3.232-.061-6.364-.184-9.366-.361-2.194-.129-4.315-.289-6.353-.474l-1.192-.113c-.803-.08-1.597-.162-2.372-.248-3.442-.387-6.584-.856-9.366-1.39-2.407-.461-4.546-.972-6.353-1.524-.416-.127-.81-.256-1.192-.387-.893-.308-1.682-.627-2.372-.956-2.015-.958-3.144-2-3.173-3.089h-.005l.005-7.466z" transform="translate(7 24)"/>
            <path fill="#FAAA36" d="M148.798 253.674c-.003 4.757 20.753 8.62 46.36 8.63 25.608.01 46.37-3.84 46.373-8.597.004-4.757-20.753-8.621-46.36-8.63-25.608-.01-46.369 3.839-46.373 8.597" transform="translate(7 24)"/>
            <path fill="#FAAA36" d="M195.17 248.378c-21.608-.008-39.315 2.543-41.011 5.792-.088-.17-.145-.34-.145-.511.001-3.49 18.428-6.311 41.155-6.302 22.728.007 41.15 2.843 41.147 6.332 0 .17-.056.34-.144.509-1.696-3.25-19.398-5.812-41.002-5.82" transform="translate(7 24)"/>
            <path fill="#FCBA3F" d="M195.16 259.991c-21.604-.008-39.306-2.57-41.002-5.821 1.696-3.249 19.403-5.8 41.011-5.792 21.605.008 39.306 2.57 41.002 5.82-1.696 3.25-19.403 5.801-41.01 5.793" transform="translate(7 24)"/>
            <path fill="#FAAA36" d="M241.534 253.724l-.005 7.465h-.006c-.027.961-.913 1.883-2.5 2.744v-7.416c1.62-.875 2.51-1.814 2.511-2.793M194.104 269.737c-.397-.002-.796-.002-1.191-.006v-7.42l1.191.005v7.421zM213.387 269.056c-.393.031-.792.061-1.191.09v-7.422c.398-.028.798-.058 1.191-.088v7.42zM232.67 266.202c-.386.098-.783.194-1.191.29v-7.42c.407-.094.805-.19 1.191-.29v7.42zM148.801 253.69c0 1.105 1.131 2.162 3.173 3.134v7.422c-2.015-.959-3.144-2-3.173-3.09h-.005l.005-7.466zM155.538 265.589c-.415-.127-.811-.256-1.191-.388v-7.42c.38.13.776.26 1.19.387v7.42zM173.63 261.328c.395.039.79.077 1.19.113 2.04.187 4.16.346 6.354.476 3.002.177 6.135.3 9.366.36v7.42c-3.231-.06-6.364-.181-9.366-.36-2.193-.13-4.314-.288-6.353-.474-.401-.036-.796-.075-1.191-.113-.804-.08-1.598-.16-2.373-.248-3.441-.387-6.583-.856-9.366-1.39v-7.421c2.782.534 5.926 1.002 9.366 1.389.776.088 1.569.169 2.373.248" transform="translate(7 24)"/>
            <path fill="#FCBA3F" d="M229.106 259.585c.827-.164 1.617-.335 2.373-.512v7.419c-.757.177-1.546.348-2.373.514-2.763.55-5.912 1.033-9.366 1.433-2.02.235-4.14.443-6.353.618v-7.42c2.213-.176 4.333-.383 6.353-.617 3.454-.401 6.602-.884 9.366-1.435M239.023 263.933c-1.51.82-3.663 1.582-6.353 2.27v-7.42c2.689-.686 4.842-1.448 6.353-2.266v7.416zM200.457 262.265c3.235-.067 6.368-.196 9.366-.38.801-.05 1.592-.103 2.373-.16v7.42c-.78.057-1.572.11-2.373.16-2.998.185-6.13.314-9.366.381-1.74.036-3.507.057-5.3.057-.354 0-.702-.004-1.053-.006v-7.42c.353 0 .703.004 1.057.004 1.792.001 3.557-.02 5.296-.056M192.913 269.731c-.796-.008-1.587-.019-2.373-.033v-7.42c.786.014 1.577.024 2.373.032v7.421zM161.89 267.113c-2.406-.462-4.544-.973-6.352-1.524v-7.421c1.808.551 3.947 1.061 6.353 1.523v7.422zM154.347 257.781v7.42c-.893-.308-1.682-.627-2.373-.955v-7.422c.692.329 1.478.649 2.373.957" transform="translate(7 24)"/>
            <path fill="#FAAA36" d="M164.802 241.579c0 1.105 1.131 2.162 3.173 3.133.691.33 1.478.649 2.372.958.381.13.777.26 1.192.386 1.807.552 3.946 1.062 6.353 1.524 2.782.534 5.925 1.002 9.366 1.389.775.087 1.57.169 2.372.248.395.038.79.077 1.192.113 2.038.186 4.16.346 6.353.475 3.002.177 6.134.299 9.366.36.785.015 1.576.026 2.373.033.394.004.793.005 1.191.007.353 0 .703.005 1.057.005 1.792 0 3.557-.02 5.296-.056 3.235-.067 6.367-.197 9.366-.381.801-.05 1.592-.102 2.373-.16.398-.03.798-.057 1.191-.09 2.213-.173 4.333-.381 6.353-.615 3.454-.401 6.602-.884 9.366-1.434.827-.165 1.617-.336 2.372-.512.408-.096.806-.192 1.192-.29 2.69-.686 4.841-1.447 6.353-2.266 1.62-.876 2.51-1.814 2.511-2.793l-.005 7.465h-.007c-.026.96-.912 1.883-2.499 2.744-1.51.819-3.663 1.582-6.353 2.268-.386.098-.784.195-1.192.29-.756.178-1.545.348-2.372.513-2.763.552-5.912 1.035-9.366 1.435-2.02.234-4.14.44-6.353.617l-1.19.089c-.782.058-1.573.11-2.374.16-2.999.185-6.13.314-9.366.38-1.74.037-3.508.058-5.3.057-.354 0-.702-.004-1.053-.005-.398-.002-.797-.002-1.19-.006-.798-.008-1.589-.02-2.374-.033-3.232-.061-6.364-.184-9.366-.361-2.194-.13-4.315-.29-6.353-.474l-1.192-.113c-.803-.08-1.597-.162-2.372-.248-3.442-.387-6.584-.856-9.366-1.39-2.407-.461-4.546-.972-6.353-1.524-.416-.127-.81-.256-1.192-.387-.893-.308-1.682-.627-2.372-.956-2.015-.958-3.144-2-3.173-3.09h-.005l.005-7.465z" transform="translate(7 24)"/>
            <path fill="#FAAA36" d="M164.8 240.638c-.003 4.757 20.753 8.621 46.36 8.631 25.608.01 46.369-3.84 46.373-8.598.003-4.757-20.753-8.62-46.36-8.63-25.608-.009-46.37 3.84-46.373 8.597" transform="translate(7 24)"/>
            <path fill="#FAAA36" d="M211.17 235.343c-21.607-.008-39.314 2.543-41.01 5.792-.088-.17-.145-.34-.145-.511.002-3.49 18.428-6.311 41.156-6.303 22.727.007 41.15 2.844 41.147 6.333 0 .17-.058.34-.146.508-1.695-3.25-19.397-5.811-41.001-5.82" transform="translate(7 24)"/>
            <path fill="#FCBA3F" d="M211.161 246.956c-21.604-.008-39.306-2.57-41.002-5.821 1.696-3.25 19.403-5.8 41.011-5.792 21.605.008 39.306 2.57 41.002 5.82-1.696 3.25-19.403 5.8-41.01 5.793" transform="translate(7 24)"/>
            <path fill="#FAAA36" d="M257.535 240.69l-.005 7.464h-.006c-.027.961-.913 1.883-2.5 2.744v-7.416c1.62-.875 2.51-1.814 2.511-2.793M210.105 256.702c-.397-.002-.796-.002-1.191-.006v-7.421c.395.003.794.004 1.191.006v7.42zM229.388 256.021c-.393.031-.792.061-1.191.09v-7.422c.398-.028.798-.058 1.191-.088v7.42zM248.67 253.167c-.385.098-.782.194-1.19.29v-7.42c.407-.094.805-.19 1.19-.29v7.42zM164.802 240.655c0 1.105 1.131 2.162 3.173 3.134v7.422c-2.015-.959-3.144-2-3.173-3.09h-.005l.005-7.466zM171.54 252.554c-.417-.127-.812-.256-1.192-.388v-7.42c.38.13.776.26 1.191.386v7.422zM189.63 248.293c.396.039.79.077 1.192.113 2.039.187 4.16.346 6.353.476 3.002.177 6.135.3 9.366.36v7.42c-3.231-.06-6.364-.181-9.366-.36-2.193-.13-4.314-.288-6.353-.474-.401-.036-.796-.075-1.191-.113-.803-.08-1.598-.16-2.373-.248-3.441-.387-6.583-.856-9.366-1.39v-7.421c2.782.534 5.926 1.002 9.366 1.389.776.088 1.569.169 2.373.248" transform="translate(7 24)"/>
            <path fill="#FCBA3F" d="M245.107 246.55c.827-.164 1.617-.335 2.373-.512v7.419c-.757.177-1.545.348-2.373.514-2.763.55-5.912 1.033-9.366 1.433-2.02.235-4.14.443-6.353.618v-7.42c2.213-.176 4.333-.383 6.353-.617 3.454-.401 6.602-.884 9.366-1.435M255.024 250.898c-1.51.82-3.663 1.582-6.353 2.27v-7.42c2.689-.686 4.842-1.448 6.353-2.266v7.416zM216.458 249.23c3.236-.067 6.368-.196 9.366-.38.801-.05 1.592-.103 2.373-.16v7.42c-.781.057-1.572.11-2.373.16-2.998.185-6.13.314-9.366.381-1.741.036-3.507.057-5.301.057-.353 0-.701-.004-1.052-.006v-7.42c.353 0 .703.004 1.057.004 1.792.001 3.557-.02 5.296-.056M208.914 256.696c-.796-.008-1.587-.019-2.373-.033v-7.421c.786.015 1.577.025 2.373.033v7.421zM177.892 254.078c-2.407-.462-4.545-.973-6.353-1.524v-7.421c1.808.55 3.947 1.06 6.353 1.523v7.422zM170.348 244.746v7.42c-.893-.308-1.682-.627-2.373-.955v-7.422c.692.329 1.478.649 2.373.957" transform="translate(7 24)"/>
            <path fill="#FAAA36" d="M148.801 228.544c0 1.105 1.131 2.162 3.173 3.133.691.33 1.478.649 2.372.958.381.13.777.26 1.192.386 1.807.552 3.946 1.062 6.353 1.524 2.782.534 5.925 1.002 9.366 1.389.775.087 1.57.169 2.372.248.395.038.79.077 1.192.113 2.038.186 4.16.346 6.353.475 3.002.177 6.134.299 9.366.36.785.015 1.576.026 2.373.033.394.004.793.005 1.191.006.353.002.703.006 1.057.006 1.792 0 3.557-.02 5.296-.056 3.235-.067 6.367-.197 9.366-.381.801-.05 1.592-.102 2.373-.16.398-.03.798-.057 1.191-.09 2.213-.173 4.333-.381 6.353-.615 3.454-.401 6.602-.884 9.366-1.434.827-.165 1.617-.336 2.372-.512.408-.096.806-.192 1.192-.29 2.69-.686 4.841-1.447 6.353-2.266 1.62-.876 2.51-1.814 2.511-2.793l-.005 7.465h-.007c-.026.96-.912 1.883-2.499 2.744-1.51.819-3.663 1.582-6.353 2.268-.386.098-.784.195-1.192.29-.756.178-1.545.348-2.372.513-2.763.552-5.912 1.035-9.366 1.435-2.02.234-4.14.44-6.353.617l-1.19.089c-.782.058-1.573.11-2.374.16-2.999.185-6.13.314-9.366.38-1.74.037-3.508.058-5.3.057-.354 0-.702-.004-1.053-.005-.398-.002-.797-.002-1.19-.006-.798-.008-1.589-.02-2.374-.033-3.232-.061-6.364-.184-9.366-.361-2.194-.13-4.315-.29-6.353-.474l-1.192-.113c-.803-.08-1.597-.162-2.372-.248-3.442-.387-6.584-.856-9.366-1.39-2.407-.461-4.546-.972-6.353-1.524-.416-.127-.81-.256-1.192-.387-.893-.308-1.682-.627-2.372-.956-2.015-.96-3.144-2-3.173-3.09h-.005l.005-7.465z" transform="translate(7 24)"/>
            <path fill="#FAAA36" d="M148.798 227.603c-.003 4.757 20.753 8.621 46.36 8.631 25.608.01 46.37-3.84 46.373-8.598.004-4.757-20.753-8.62-46.36-8.63-25.608-.009-46.369 3.84-46.373 8.597" transform="translate(7 24)"/>
            <path fill="#FAAA36" d="M195.17 222.307c-21.608-.008-39.315 2.543-41.011 5.792-.088-.169-.145-.339-.145-.51.001-3.49 18.428-6.312 41.155-6.303 22.728.007 41.15 2.843 41.147 6.332 0 .171-.056.341-.144.51-1.696-3.25-19.398-5.813-41.002-5.82" transform="translate(7 24)"/>
            <path fill="#FCBA3F" d="M195.16 233.92c-21.604-.007-39.306-2.57-41.002-5.82 1.696-3.25 19.403-5.8 41.011-5.792 21.605.008 39.306 2.57 41.002 5.82-1.696 3.25-19.403 5.8-41.01 5.793" transform="translate(7 24)"/>
            <path fill="#FAAA36" d="M241.534 227.654l-.005 7.465h-.006c-.027.961-.913 1.883-2.5 2.744v-7.416c1.62-.875 2.51-1.814 2.511-2.793M194.104 243.667c-.397-.002-.796-.002-1.191-.006v-7.421c.395.003.794.004 1.191.006v7.42zM213.387 242.986c-.393.031-.792.061-1.191.09v-7.422c.398-.028.798-.058 1.191-.088v7.42zM232.67 240.132c-.386.098-.783.194-1.191.29v-7.42c.407-.094.805-.19 1.191-.29v7.42zM148.801 227.62c0 1.105 1.131 2.162 3.173 3.134v7.422c-2.015-.96-3.144-2-3.173-3.09h-.005l.005-7.466zM155.538 239.518c-.415-.127-.811-.256-1.191-.388v-7.42c.38.131.776.26 1.19.387v7.421zM173.63 235.258c.395.039.79.077 1.19.113 2.04.187 4.16.346 6.354.476 3.002.177 6.135.3 9.366.36v7.42c-3.231-.06-6.364-.181-9.366-.36-2.193-.13-4.314-.288-6.353-.474-.401-.036-.796-.075-1.191-.113-.804-.08-1.598-.16-2.373-.248-3.441-.387-6.583-.856-9.366-1.39v-7.421c2.782.534 5.926 1.002 9.366 1.389.776.088 1.569.169 2.373.248" transform="translate(7 24)"/>
            <path fill="#FCBA3F" d="M229.106 233.514c.827-.164 1.617-.335 2.373-.512v7.42c-.757.176-1.546.347-2.373.513-2.763.551-5.912 1.033-9.366 1.433-2.02.235-4.14.443-6.353.618v-7.42c2.213-.176 4.333-.383 6.353-.617 3.454-.4 6.602-.884 9.366-1.435M239.023 237.863c-1.51.819-3.663 1.582-6.353 2.269v-7.419c2.689-.686 4.842-1.448 6.353-2.266v7.416zM200.457 236.195c3.235-.067 6.368-.196 9.366-.38.801-.05 1.592-.103 2.373-.16v7.42c-.78.057-1.572.11-2.373.16-2.998.185-6.13.314-9.366.381-1.74.036-3.507.057-5.3.057-.354 0-.702-.004-1.053-.006v-7.42c.353 0 .703.004 1.057.004 1.792.001 3.557-.02 5.296-.056M192.913 243.66c-.796-.007-1.587-.018-2.373-.032v-7.421c.786.015 1.577.025 2.373.033v7.42zM161.89 241.043c-2.406-.462-4.544-.973-6.352-1.524v-7.421c1.808.55 3.947 1.06 6.353 1.523v7.422zM154.347 231.71v7.42c-.893-.307-1.682-.626-2.373-.954v-7.422c.692.329 1.478.649 2.373.957" transform="translate(7 24)"/>
            <path fill="#FAAA36" d="M148.801 215.508c0 1.105 1.131 2.161 3.173 3.133.691.33 1.478.65 2.372.959.381.13.777.26 1.192.386 1.807.552 3.946 1.062 6.353 1.524 2.782.534 5.925 1.002 9.366 1.389.775.087 1.57.168 2.372.248.395.038.79.077 1.192.113 2.038.186 4.16.346 6.353.475 3.002.176 6.134.298 9.366.36.785.014 1.576.025 2.373.032.394.004.793.005 1.191.006.353.002.703.006 1.057.006 1.792.001 3.557-.02 5.296-.056 3.235-.066 6.367-.196 9.366-.38.801-.05 1.592-.102 2.373-.16.398-.03.798-.058 1.191-.09 2.213-.173 4.333-.382 6.353-.615 3.454-.401 6.602-.885 9.366-1.434.827-.166 1.617-.337 2.372-.512.408-.096.806-.192 1.192-.29 2.69-.686 4.841-1.447 6.353-2.267 1.62-.876 2.51-1.814 2.511-2.793l-.005 7.465h-.007c-.026.962-.912 1.883-2.499 2.744-1.51.82-3.663 1.582-6.353 2.268-.386.099-.784.195-1.192.291-.756.178-1.545.347-2.372.512-2.763.553-5.912 1.035-9.366 1.435-2.02.234-4.14.441-6.353.618l-1.19.089c-.782.058-1.573.11-2.374.16-2.999.185-6.13.314-9.366.38-1.74.037-3.508.058-5.3.057-.354 0-.702-.005-1.053-.006-.398-.001-.797-.001-1.19-.006-.798-.007-1.589-.019-2.374-.032-3.232-.061-6.364-.184-9.366-.362-2.194-.129-4.315-.288-6.353-.474l-1.192-.113c-.803-.08-1.597-.162-2.372-.248-3.442-.386-6.584-.856-9.366-1.39-2.407-.46-4.546-.972-6.353-1.524-.416-.126-.81-.256-1.192-.387-.893-.308-1.682-.626-2.372-.956-2.015-.958-3.144-2-3.173-3.088h-.005l.005-7.466z" transform="translate(7 24)"/>
            <path fill="#FAAA36" d="M148.798 214.568c-.003 4.757 20.753 8.621 46.36 8.631 25.608.01 46.37-3.84 46.373-8.598.004-4.757-20.753-8.62-46.36-8.63-25.608-.009-46.369 3.84-46.373 8.597" transform="translate(7 24)"/>
            <path fill="#FAAA36" d="M195.17 209.272c-21.608-.008-39.315 2.543-41.011 5.792-.088-.169-.145-.339-.145-.51.001-3.49 18.428-6.312 41.155-6.303 22.728.007 41.15 2.843 41.147 6.332 0 .171-.056.341-.144.51-1.696-3.25-19.398-5.813-41.002-5.82" transform="translate(7 24)"/>
            <path fill="#FCBA3F" d="M195.16 220.886c-21.604-.008-39.306-2.57-41.002-5.821 1.696-3.25 19.403-5.8 41.011-5.793 21.605.008 39.306 2.57 41.002 5.82-1.696 3.25-19.403 5.801-41.01 5.794" transform="translate(7 24)"/>
            <path fill="#FAAA36" d="M241.534 214.619l-.005 7.465h-.006c-.027.96-.913 1.883-2.5 2.744v-7.416c1.62-.875 2.51-1.814 2.511-2.793M194.104 230.632c-.397-.002-.796-.002-1.191-.006v-7.421c.395.003.794.004 1.191.006v7.42zM213.387 229.95c-.393.032-.792.062-1.191.09v-7.421c.398-.028.798-.058 1.191-.088v7.42zM232.67 227.096c-.386.098-.783.194-1.191.29v-7.419c.407-.095.805-.19 1.191-.29v7.42zM148.801 214.585c0 1.105 1.131 2.162 3.173 3.134v7.422c-2.015-.96-3.144-2-3.173-3.09h-.005l.005-7.466zM155.538 226.483c-.415-.127-.811-.256-1.191-.388v-7.42c.38.131.776.26 1.19.387v7.421zM173.63 222.222c.395.04.79.077 1.19.113 2.04.187 4.16.346 6.354.476 3.002.177 6.135.3 9.366.36v7.421c-3.231-.06-6.364-.182-9.366-.36-2.193-.13-4.314-.289-6.353-.475-.401-.036-.796-.075-1.191-.113-.804-.079-1.598-.16-2.373-.248-3.441-.387-6.583-.856-9.366-1.389v-7.422c2.782.534 5.926 1.002 9.366 1.39.776.087 1.569.168 2.373.247" transform="translate(7 24)"/>
            <path fill="#FCBA3F" d="M229.106 220.48c.827-.165 1.617-.336 2.373-.513v7.42c-.757.176-1.546.347-2.373.513-2.763.551-5.912 1.033-9.366 1.433-2.02.235-4.14.443-6.353.618v-7.42c2.213-.176 4.333-.383 6.353-.617 3.454-.4 6.602-.884 9.366-1.435M239.023 224.828c-1.51.819-3.663 1.582-6.353 2.269v-7.42c2.689-.685 4.842-1.447 6.353-2.265v7.416zM200.457 223.16c3.235-.067 6.368-.196 9.366-.381.801-.05 1.592-.102 2.373-.16v7.42c-.78.058-1.572.11-2.373.16-2.998.186-6.13.315-9.366.382-1.74.036-3.507.057-5.3.056-.354 0-.702-.003-1.053-.005v-7.421c.353 0 .703.005 1.057.005 1.792 0 3.557-.02 5.296-.056M192.913 230.626c-.796-.008-1.587-.02-2.373-.033v-7.421c.786.015 1.577.025 2.373.033v7.42zM161.89 228.008c-2.406-.462-4.544-.973-6.352-1.524v-7.421c1.808.55 3.947 1.06 6.353 1.523v7.422zM154.347 218.675v7.42c-.893-.308-1.682-.626-2.373-.954v-7.422c.692.329 1.478.649 2.373.957" transform="translate(7 24)"/>
            <path fill="#FAAA36" d="M137.853 202.473c0 1.105 1.132 2.161 3.173 3.133.691.33 1.478.65 2.373.958.38.131.776.26 1.191.386 1.807.552 3.946 1.062 6.353 1.524 2.782.534 5.925 1.002 9.366 1.39.775.086 1.57.168 2.373.247.394.038.79.077 1.191.113 2.038.187 4.16.346 6.353.475 3.002.177 6.134.3 9.366.36.785.015 1.576.026 2.373.033.395.004.794.005 1.191.006.353.002.703.006 1.057.006 1.792.001 3.557-.02 5.296-.056 3.235-.067 6.367-.197 9.366-.38.801-.05 1.592-.103 2.373-.16.398-.03.798-.058 1.191-.09 2.213-.174 4.333-.382 6.353-.616 3.454-.4 6.602-.884 9.366-1.434.827-.165 1.617-.336 2.373-.512.407-.096.805-.192 1.191-.29 2.69-.686 4.841-1.447 6.353-2.266 1.62-.876 2.51-1.814 2.511-2.793l-.005 7.465h-.006c-.027.961-.913 1.883-2.5 2.744-1.51.82-3.663 1.582-6.353 2.268-.386.098-.784.195-1.19.291-.758.177-1.546.347-2.374.512-2.763.552-5.912 1.035-9.366 1.435-2.02.234-4.14.441-6.353.617-.393.031-.793.06-1.19.09-.782.057-1.573.11-2.374.16-2.998.184-6.13.313-9.366.38-1.74.036-3.507.057-5.3.056-.354 0-.702-.004-1.053-.005-.397-.002-.796-.002-1.19-.006-.798-.008-1.589-.019-2.374-.033-3.232-.06-6.364-.184-9.366-.36-2.193-.13-4.315-.29-6.353-.475l-1.19-.113c-.805-.08-1.599-.162-2.374-.248-3.442-.387-6.584-.856-9.366-1.39-2.407-.46-4.546-.972-6.353-1.524-.415-.127-.81-.256-1.19-.387-.895-.308-1.684-.627-2.374-.956-2.015-.959-3.143-2-3.172-3.089h-.006l.005-7.466z" transform="translate(7 24)"/>
            <path fill="#FAAA36" d="M137.85 201.533c-.003 4.757 20.753 8.62 46.36 8.63 25.608.01 46.37-3.84 46.373-8.597.004-4.757-20.753-8.621-46.36-8.63-25.608-.01-46.37 3.839-46.373 8.597" transform="translate(7 24)"/>
            <path fill="#FAAA36" d="M184.221 196.237c-21.608-.008-39.315 2.543-41.01 5.792-.089-.169-.146-.339-.146-.511.002-3.489 18.429-6.311 41.156-6.302 22.728.007 41.15 2.843 41.148 6.332 0 .171-.058.341-.145.509-1.696-3.25-19.397-5.812-41.002-5.82" transform="translate(7 24)"/>
            <path fill="#FCBA3F" d="M184.212 207.85c-21.605-.008-39.306-2.57-41.002-5.82 1.696-3.25 19.403-5.8 41.011-5.793 21.605.008 39.306 2.57 41.002 5.82-1.696 3.25-19.403 5.801-41.01 5.793" transform="translate(7 24)"/>
            <path fill="#FAAA36" d="M230.586 201.584l-.005 7.465h-.006c-.027.96-.913 1.883-2.5 2.744v-7.416c1.62-.875 2.51-1.814 2.511-2.793M183.156 217.596c-.397-.002-.796-.002-1.191-.006v-7.42l1.191.005v7.421zM202.439 216.916l-1.191.089v-7.421c.398-.028.798-.058 1.191-.088v7.42zM221.722 214.061c-.386.098-.784.194-1.191.29v-7.419c.407-.095.805-.19 1.191-.29v7.42zM137.853 201.55c0 1.105 1.132 2.161 3.173 3.133v7.423c-2.015-.96-3.143-2-3.172-3.09h-.006l.005-7.466zM144.59 213.448c-.415-.127-.811-.256-1.191-.388v-7.42c.38.131.776.26 1.19.387v7.421zM162.682 209.187c.395.04.79.077 1.19.113 2.04.187 4.16.346 6.354.476 3.002.177 6.135.3 9.366.36v7.421c-3.231-.06-6.364-.182-9.366-.36-2.193-.13-4.314-.289-6.353-.475-.401-.036-.797-.075-1.191-.113-.804-.079-1.598-.16-2.373-.248-3.441-.387-6.584-.856-9.366-1.389v-7.422c2.782.534 5.925 1.002 9.366 1.39.776.087 1.569.168 2.373.247" transform="translate(7 24)"/>
            <path fill="#FCBA3F" d="M218.158 207.444c.827-.164 1.617-.335 2.373-.512v7.42c-.757.176-1.545.347-2.373.513-2.763.551-5.912 1.033-9.366 1.434-2.02.234-4.14.442-6.353.617v-7.42c2.213-.176 4.333-.383 6.353-.617 3.454-.4 6.602-.884 9.366-1.435M228.075 211.793c-1.51.819-3.663 1.582-6.353 2.269v-7.42c2.689-.685 4.841-1.447 6.353-2.265v7.416zM189.509 210.125c3.236-.067 6.368-.196 9.366-.381.8-.05 1.592-.102 2.373-.16v7.42c-.781.058-1.572.11-2.373.16-2.998.186-6.13.315-9.366.382-1.74.036-3.507.057-5.301.056-.353 0-.701-.003-1.052-.005v-7.421c.353 0 .703.005 1.058.005 1.79 0 3.556-.02 5.295-.056M181.965 217.59c-.796-.007-1.588-.018-2.373-.032v-7.421c.785.015 1.577.025 2.373.033v7.42zM150.943 214.972c-2.407-.462-4.545-.973-6.353-1.524v-7.42c1.808.55 3.947 1.06 6.353 1.522v7.422zM143.399 205.64v7.42c-.893-.308-1.682-.627-2.373-.955v-7.422c.692.33 1.478.648 2.373.957" transform="translate(7 24)"/>
            <path fill="#FAAA36" d="M148.801 189.438c0 1.105 1.131 2.161 3.173 3.133.691.33 1.478.65 2.372.958.381.131.777.26 1.192.386 1.807.552 3.946 1.062 6.353 1.524 2.782.534 5.925 1.002 9.366 1.39.775.086 1.57.168 2.372.247.395.038.79.077 1.192.113 2.038.186 4.16.346 6.353.475 3.002.177 6.134.3 9.366.36.785.015 1.576.026 2.373.033.394.004.793.005 1.191.006.353.002.703.006 1.057.006 1.792.001 3.557-.02 5.296-.056 3.235-.067 6.367-.197 9.366-.38.801-.05 1.592-.103 2.373-.16.398-.03.798-.058 1.191-.09 2.213-.174 4.333-.382 6.353-.616 3.454-.4 6.602-.884 9.366-1.434.827-.166 1.617-.336 2.372-.512.408-.096.806-.192 1.192-.29 2.69-.686 4.841-1.447 6.353-2.266 1.62-.876 2.51-1.814 2.511-2.793l-.005 7.465h-.007c-.026.961-.912 1.883-2.499 2.744-1.51.82-3.663 1.582-6.353 2.268-.386.098-.784.195-1.192.291-.756.177-1.545.347-2.372.512-2.763.552-5.912 1.035-9.366 1.435-2.02.234-4.14.441-6.353.617-.393.031-.793.06-1.19.09-.782.057-1.573.11-2.374.16-2.999.184-6.13.313-9.366.38-1.74.036-3.508.057-5.3.056-.354 0-.702-.004-1.053-.005-.398-.002-.797-.002-1.19-.006-.798-.008-1.589-.019-2.374-.033-3.232-.06-6.364-.184-9.366-.36-2.194-.13-4.315-.29-6.353-.475l-1.192-.113c-.803-.08-1.597-.162-2.372-.248-3.442-.387-6.584-.856-9.366-1.39-2.407-.46-4.546-.972-6.353-1.524-.416-.127-.81-.256-1.192-.387-.893-.308-1.682-.627-2.372-.956-2.015-.959-3.144-2-3.173-3.089h-.005l.005-7.466z" transform="translate(7 24)"/>
            <path fill="#FAAA36" d="M148.798 188.498c-.003 4.757 20.753 8.62 46.36 8.63 25.608.01 46.37-3.84 46.373-8.597.004-4.757-20.753-8.621-46.36-8.63-25.608-.01-46.369 3.839-46.373 8.597" transform="translate(7 24)"/>
            <path fill="#FAAA36" d="M195.17 183.202c-21.608-.008-39.315 2.543-41.011 5.792-.088-.17-.145-.34-.145-.511.001-3.49 18.428-6.311 41.155-6.302 22.728.007 41.15 2.842 41.147 6.332 0 .17-.056.34-.144.509-1.696-3.25-19.398-5.812-41.002-5.82" transform="translate(7 24)"/>
            <path fill="#FCBA3F" d="M195.16 194.815c-21.604-.008-39.306-2.57-41.002-5.82 1.696-3.25 19.403-5.8 41.011-5.793 21.605.008 39.306 2.57 41.002 5.82-1.696 3.25-19.403 5.801-41.01 5.793" transform="translate(7 24)"/>
            <path fill="#FAAA36" d="M241.534 188.549l-.005 7.465h-.006c-.027.96-.913 1.883-2.5 2.744v-7.416c1.62-.876 2.51-1.814 2.511-2.793M194.104 204.561c-.397-.002-.796-.002-1.191-.006v-7.42l1.191.005v7.421zM213.387 203.88c-.393.032-.792.062-1.191.09v-7.421c.398-.028.798-.058 1.191-.088v7.42zM232.67 201.025c-.386.1-.783.195-1.191.291v-7.419c.407-.095.805-.19 1.191-.29v7.418zM148.801 188.514c0 1.105 1.131 2.162 3.173 3.134v7.422c-2.015-.959-3.144-2-3.173-3.09h-.005l.005-7.466zM155.538 200.413c-.415-.127-.811-.256-1.191-.388v-7.42c.38.13.776.26 1.19.387v7.42zM173.63 196.152c.395.04.79.077 1.19.113 2.04.187 4.16.346 6.354.476 3.002.177 6.135.3 9.366.36v7.421c-3.231-.06-6.364-.182-9.366-.36-2.193-.13-4.314-.289-6.353-.475-.401-.036-.796-.075-1.191-.113-.804-.079-1.598-.16-2.373-.248-3.441-.387-6.583-.856-9.366-1.389v-7.422c2.782.534 5.926 1.002 9.366 1.39.776.087 1.569.168 2.373.247" transform="translate(7 24)"/>
            <path fill="#FCBA3F" d="M229.106 194.409c.827-.164 1.617-.335 2.373-.512v7.419c-.757.177-1.546.348-2.373.514-2.763.55-5.912 1.033-9.366 1.433-2.02.235-4.14.443-6.353.618v-7.42c2.213-.176 4.333-.383 6.353-.617 3.454-.401 6.602-.884 9.366-1.435M239.023 198.758c-1.51.819-3.663 1.582-6.353 2.268v-7.418c2.689-.686 4.842-1.448 6.353-2.266v7.416zM200.457 197.09c3.235-.067 6.368-.196 9.366-.381.801-.05 1.592-.102 2.373-.16v7.42c-.78.058-1.572.11-2.373.16-2.998.186-6.13.315-9.366.382-1.74.036-3.507.057-5.3.056-.354 0-.702-.003-1.053-.005v-7.421c.353 0 .703.005 1.057.005 1.792 0 3.557-.02 5.296-.056M192.913 204.555c-.796-.008-1.587-.019-2.373-.033v-7.42c.786.014 1.577.024 2.373.032v7.421zM161.89 201.937c-2.406-.462-4.544-.973-6.352-1.524v-7.42c1.808.55 3.947 1.06 6.353 1.522v7.422zM154.347 192.605v7.42c-.893-.308-1.682-.627-2.373-.955v-7.422c.692.33 1.478.648 2.373.957" transform="translate(7 24)"/>
            <path fill="#FAAA36" d="M148.801 176.403c0 1.105 1.131 2.161 3.173 3.133.691.33 1.478.65 2.372.958.381.131.777.26 1.192.386 1.807.552 3.946 1.062 6.353 1.524 2.782.534 5.925 1.002 9.366 1.39.775.086 1.57.168 2.372.247.395.038.79.077 1.192.113 2.038.186 4.16.346 6.353.475 3.002.177 6.134.3 9.366.36.785.015 1.576.026 2.373.033.394.004.793.005 1.191.006.353.002.703.006 1.057.006 1.792.001 3.557-.02 5.296-.056 3.235-.067 6.367-.197 9.366-.38.801-.05 1.592-.103 2.373-.16.398-.03.798-.058 1.191-.09 2.213-.174 4.333-.382 6.353-.616 3.454-.4 6.602-.884 9.366-1.434.827-.166 1.617-.336 2.372-.512.408-.096.806-.192 1.192-.29 2.69-.686 4.841-1.447 6.353-2.266 1.62-.876 2.51-1.814 2.511-2.793l-.005 7.465h-.007c-.026.961-.912 1.883-2.499 2.744-1.51.82-3.663 1.582-6.353 2.268-.386.098-.784.195-1.192.291-.756.177-1.545.347-2.372.512-2.763.552-5.912 1.035-9.366 1.435-2.02.234-4.14.441-6.353.617-.393.031-.793.06-1.19.09-.782.057-1.573.11-2.374.16-2.999.184-6.13.313-9.366.38-1.74.036-3.508.057-5.3.056-.354 0-.702-.004-1.053-.005-.398-.002-.797-.002-1.19-.006-.798-.008-1.589-.019-2.374-.033-3.232-.06-6.364-.184-9.366-.36-2.194-.13-4.315-.29-6.353-.475l-1.192-.113c-.803-.08-1.597-.162-2.372-.248-3.442-.387-6.584-.856-9.366-1.39-2.407-.46-4.546-.972-6.353-1.524-.416-.127-.81-.256-1.192-.387-.893-.308-1.682-.627-2.372-.956-2.015-.959-3.144-2-3.173-3.089h-.005l.005-7.466z" transform="translate(7 24)"/>
            <path fill="#FAAA36" d="M148.798 175.463c-.003 4.757 20.753 8.62 46.36 8.63 25.608.01 46.37-3.84 46.373-8.597.004-4.757-20.753-8.621-46.36-8.63-25.608-.01-46.369 3.839-46.373 8.597" transform="translate(7 24)"/>
            <path fill="#FAAA36" d="M195.17 170.167c-21.608-.008-39.315 2.543-41.011 5.792-.088-.17-.145-.34-.145-.511.001-3.49 18.428-6.311 41.155-6.302 22.728.007 41.15 2.842 41.147 6.332 0 .17-.056.34-.144.509-1.696-3.25-19.398-5.812-41.002-5.82" transform="translate(7 24)"/>
            <path fill="#FCBA3F" d="M195.16 181.78c-21.604-.008-39.306-2.57-41.002-5.821 1.696-3.249 19.403-5.8 41.011-5.792 21.605.008 39.306 2.57 41.002 5.82-1.696 3.25-19.403 5.801-41.01 5.793" transform="translate(7 24)"/>
            <path fill="#FAAA36" d="M206.36 173.355c1.208 0 2.19-.178 2.19-.397 0-.219-.982-.398-2.19-.398h-21.91c-1.21 0-2.19.18-2.19.398 0 .22.98.397 2.19.397h8.763c2.853 0 5.263.334 6.17.796H184.45c-1.21 0-2.19.178-2.19.397 0 .22.98.398 2.19.398h14.933c-.907.462-3.317.795-6.17.795h-8.763c-.285 0-.57.01-.837.03-.535.041-.964.118-1.188.216-.223.097-.223.206 0 .304.11.048.272.092.478.128l17.523 3.181c.43.077.99.116 1.551.116.561 0 1.122-.039 1.551-.116.855-.154.855-.406 0-.56l-13.789-2.504h3.474c5.294 0 9.715-.684 10.732-1.59h2.414c1.21 0 2.191-.179 2.191-.398 0-.219-.982-.397-2.19-.397h-2.415c-.329-.296-1.056-.564-2.025-.796h4.44zM241.534 175.513l-.005 7.465h-.006c-.027.961-.913 1.883-2.5 2.744v-7.416c1.62-.876 2.51-1.814 2.511-2.793M194.104 191.526c-.397-.002-.796-.002-1.191-.006v-7.42l1.191.005v7.421zM213.387 190.845c-.393.031-.792.061-1.191.09v-7.422c.398-.028.798-.058 1.191-.088v7.42zM232.67 187.99c-.386.099-.783.195-1.191.291v-7.419c.407-.095.805-.191 1.191-.29v7.418zM148.801 175.48c0 1.104 1.131 2.161 3.173 3.133v7.422c-2.015-.959-3.144-2-3.173-3.09h-.005l.005-7.466zM155.538 187.378c-.415-.127-.811-.256-1.191-.388v-7.42c.38.13.776.26 1.19.387v7.42zM173.63 183.117c.395.039.79.077 1.19.113 2.04.187 4.16.346 6.354.476 3.002.177 6.135.3 9.366.36v7.42c-3.231-.06-6.364-.181-9.366-.36-2.193-.13-4.314-.288-6.353-.474-.401-.036-.796-.075-1.191-.113-.804-.08-1.598-.16-2.373-.248-3.441-.387-6.583-.856-9.366-1.39v-7.421c2.782.534 5.926 1.002 9.366 1.389.776.088 1.569.169 2.373.248" transform="translate(7 24)"/>
            <path fill="#FCBA3F" d="M229.106 181.374c.827-.164 1.617-.335 2.373-.512v7.419c-.757.177-1.546.348-2.373.514-2.763.55-5.912 1.033-9.366 1.433-2.02.235-4.14.443-6.353.618v-7.42c2.213-.176 4.333-.383 6.353-.617 3.454-.401 6.602-.884 9.366-1.435M239.023 185.722c-1.51.82-3.663 1.582-6.353 2.268v-7.418c2.689-.686 4.842-1.448 6.353-2.266v7.416zM200.457 184.054c3.235-.067 6.368-.196 9.366-.38.801-.05 1.592-.103 2.373-.16v7.42c-.78.057-1.572.11-2.373.16-2.998.185-6.13.314-9.366.381-1.74.036-3.507.057-5.3.056-.354 0-.702-.003-1.053-.005v-7.42c.353 0 .703.004 1.057.004 1.792.001 3.557-.02 5.296-.056M192.913 191.52c-.796-.008-1.587-.019-2.373-.033v-7.42c.786.014 1.577.024 2.373.032v7.421zM161.89 188.902c-2.406-.462-4.544-.973-6.352-1.524v-7.42c1.808.55 3.947 1.06 6.353 1.522v7.422zM154.347 179.57v7.42c-.893-.308-1.682-.627-2.373-.955v-7.422c.692.33 1.478.648 2.373.957" transform="translate(7 24)"/>
            <path fill="#FAAA36" d="M182.901 135.445c-.012 22.708 18.573 41.126 41.51 41.138 22.938.011 41.542-18.388 41.553-41.096.012-22.708-18.573-41.125-41.51-41.137-22.938-.01-41.54 18.387-41.553 41.095" transform="translate(7 24)"/>
            <path fill="#FAAA36" d="M189.551 135.449c-.01 19.071 15.6 34.54 34.865 34.55 19.263.01 34.889-15.444 34.899-34.515.009-19.072-15.6-34.541-34.864-34.55-19.264-.009-34.89 15.443-34.9 34.515" transform="translate(7 24)"/>
            <path fill="#FCBA3F" d="M191.512 135.45c-.009 18 14.722 32.599 32.904 32.607 18.181.01 32.928-14.574 32.937-32.574.01-18-14.722-32.598-32.903-32.608-18.182-.01-32.929 14.575-32.938 32.575" transform="translate(7 24)"/>
            <path fill="#FAAA36" d="M235.878 119.087c1.209 0 2.191-1.14 2.191-2.543 0-1.403-.982-2.542-2.191-2.542h-21.909c-1.21 0-2.191 1.139-2.191 2.542 0 1.403.981 2.543 2.191 2.543h8.763c2.853 0 5.263 2.13 6.17 5.084h-14.933c-1.21 0-2.191 1.14-2.191 2.543 0 1.403.981 2.542 2.191 2.542h14.933c-.907 2.954-3.317 5.084-6.17 5.084h-8.763c-.285 0-.57.066-.837.193-.535.26-.964.753-1.188 1.378-.223.62-.223 1.322 0 1.943.11.315.272.594.478.829l17.523 20.333c.43.498.99.747 1.551.747.561 0 1.122-.25 1.551-.742.855-.992.855-2.604 0-3.595l-13.789-16.001h3.474c5.294 0 9.715-4.373 10.732-10.17h2.414c1.209 0 2.191-1.138 2.191-2.541s-.982-2.543-2.191-2.543h-2.414c-.329-1.892-1.056-3.6-2.025-5.084h4.439z" transform="translate(7 24)"/>
        </g>
    </g>
</svg>
