<svg xmlns="http://www.w3.org/2000/svg" xmlns:xlink="http://www.w3.org/1999/xlink" width="383" height="260" viewBox="0 0 383 260">
    <defs>
        <path id="prefix__a" d="M0 259L382.633 259 382.633 0.389 0 0.389z"/>
        <path id="prefix__c" d="M.738 3.601s94.01 75.481 95.86 72.848c3.541-5.047 5.095-11.502 4.6-17.545-.754-9.199-5.445-17.592-10.775-25.203-5.525-7.889-11.9-15.322-19.692-21.234C62.939 6.555 53.744 1.42 43.668.943 40.51.793 37.511.728 34.67.728 17.896.728 6.634 3.005.738 3.601"/>
        <path id="prefix__e" d="M.557 4.307c0 1.835 1.489 3.323 3.324 3.323 1.835 0 3.324-1.488 3.324-3.323 0-1.836-1.489-3.323-3.324-3.323C2.046.984.557 2.471.557 4.307"/>
        <path id="prefix__h" d="M.498 3.002c0 1.284 1.042 2.327 2.326 2.327 1.285 0 2.327-1.043 2.327-2.327 0-1.285-1.042-2.327-2.327-2.327C1.54.675.498 1.717.498 3.002"/>
        <path id="prefix__k" d="M7.94 14.689C-4.377 30.61-1.409 53.737 14.571 66.343c15.98 12.607 38.92 9.921 51.237-6 12.318-15.921 9.349-39.047-6.63-51.655C52.398 3.339 44.365.743 36.422.743 25.645.744 15.031 5.523 7.94 14.689"/>
        <linearGradient id="prefix__f" x1="99.991%" x2=".011%" y1="49.997%" y2="49.997%">
            <stop offset="0%" stop-color="#FFB218"/>
            <stop offset="100%" stop-color="#FFCF44"/>
        </linearGradient>
        <linearGradient id="prefix__i" x1="99.996%" x2=".003%" y1="49.995%" y2="49.995%">
            <stop offset="0%" stop-color="#FFB218"/>
            <stop offset="100%" stop-color="#FFCF44"/>
        </linearGradient>
    </defs>
    <g fill="none" fill-rule="evenodd">
        <g transform="translate(0 .611)">
            <path fill="#FFDE8E" d="M302.88 221.738c.039-.284.306-.486.583-.446 1.744.226 2.95.856 3.585 1.868.45.719.503 1.47.46 1.998 3.7-.248 4.946-2.673 4.999-2.78.06-.126.172-.222.305-.266.134-.044.278-.032.404.032.53.28.888.722 1.038 1.281.247.926-.115 1.998-.441 2.7.125.005.248.006.368.006 5.45 0 7.427-3.605 7.512-3.767.096-.185.297-.294.506-.276.208.018.386.16.449.36.48 1.522-.562 3.804-1.245 5.056 5.737-.594 6.398-4.125 6.424-4.281.035-.23.22-.408.45-.436.235-.024.452.102.54.315.813 1.948-.483 4.81-1.246 6.222 8.878-.699 8.837-8.75 8.83-9.105-.005-.285.223-.523.509-.528.286.028.523.222.529.507.004.17.055 4.183-2.802 7.155-1.884 1.96-4.57 2.988-7.984 3.053l-.01.001c-.188 0-.361-.103-.452-.267-.094-.166-.088-.371.016-.532.499-.778 1.482-2.621 1.76-4.258-1.003 1.406-3.111 3.078-7.488 3.26-.222.006-.376-.092-.472-.26-.096-.167-.091-.374.013-.537.433-.678 1.313-2.288 1.613-3.646-1.3 1.403-3.984 3.36-8.705 2.945-.18-.017-.34-.124-.42-.286-.08-.162-.07-.356.028-.508.277-.438.946-1.763.715-2.625-.032-.12-.08-.226-.147-.319-.691.96-2.517 2.843-6.216 2.843-.167 0-.324-.082-.421-.217-.098-.135-.124-.309-.071-.466.003-.01.302-.977-.228-1.823-.461-.738-1.417-1.205-2.84-1.39-.284-.037-.484-.298-.447-.583m-19.534 11.458c.02-1.915.976-2.278.976-2.278-.2 2.594 1.995 5.189 1.995 5.189.2-1.995 1.397-2.911 1.397-2.911-.282 2.845 2.993 5.904 2.993 5.904-.997-6.785 1.537-11.808 1.537-11.808.9 2.2 1.432 4.41 1.828 6.624-.097.496-.244.917-.471 1.192l2.128 9.304c-.272 1.138-.134 2.222.403 3.195.593 1.38 1.62 1.936 1.62 1.936 3.319 1.064 6.857.267 6.857.267l-.1-.508c-.162-2.517-2.1-3.913-2.175-3.968-.454-.563-.898-1.132-1.271-1.744-1.451-2.385-1.308-5.524.286-7.745.896-.593 1.68-1.172 2.378-1.734l1.58 6.909c-.271 1.138-.134 2.222.404 3.195.593 1.38 1.619 1.935 1.619 1.935 3.32 1.065 6.858.267 6.858.267l-.1-.506c-.163-2.52-2.1-3.915-2.176-3.97-.453-.561-.897-1.13-1.27-1.744-.615-1.01-.925-2.154-.975-3.305-.057-1.407.273-2.808.994-4l2.296 1.119c.236.181.398.358.509.529.004.004.735.633.412 2.222 2.558-.262 3.37-1.304 3.37-1.304.119 1.403-1.297 2.445-1.297 2.445 3.89-.4 4.589-1.496 4.589-1.496-.006 1.017-.798 2.094-.798 2.094 2.53-.885 4.332-1.799 5.617-2.64 1.13 2.232 2.247 4.482 3.15 6.81.359.922.255 2.095.124 3.124-.261 2.056.579 3.703 1.854 5.107.56.618 1.538 1.067 2.38 1.177 1.475.191 2.992.082 4.49.054.329-.007.654-.203 1.133-.36-1.105-1.445-2.087-2.757-3.101-4.047-.931-1.181-1.266-2.538-1.294-4.008-.017-.916.048-1.796.179-2.653 1.422.989 1.333 2.89 1.333 2.89 1.183-1.108 2.187-2.762 3.016-4.556.102.249.218.493.315.744.359.922.254 2.095.124 3.124-.261 2.055.578 3.702 1.853 5.107.562.618 1.538 1.067 2.38 1.177 1.475.193 2.993.083 4.492.054.328-.006.652-.201 1.13-.36-1.103-1.445-2.085-2.757-3.1-4.046-.93-1.183-1.265-2.538-1.293-4.01-.032-1.65.189-3.2.634-4.665 1.448.984 1.357 2.909 1.357 2.909 4.125-3.858 6.067-14.346 6.067-14.346h-.003c.149-.504.228-1.034.26-1.581.076-1.225-.211-3.204.688-4.174.857-.927 2.615-.612 3.609-.123.55.27 1.289.8 1.368 1.464.082.691-.61 1.227-.992 1.683-.034.04-.311.446-.351.447 1.534-.05 2.746-.47 3.625-.924 1.1.207.23 1.989.23 1.989 1.096-.287 2.023-.655 2.81-1.064 1.482.8.616 2.925.616 2.925 2.992-1.37 3.998-2.43 4.332-3.033l4.348-.025c4.124.399 3.592-3.46 3.592-3.46l-1.746-3.237c-.317-.808-.714-1.593-1.075-2.394l-.24-.54.667-3.141-.66-2.306c-.222 1.386-.77 3.062-2.058 4.35-.076.076-.178.117-.282.117-.051 0-.103-.01-.153-.03-.15-.061-.246-.208-.246-.369 0-.024-.018-2.244-1.485-2.806-.066.856-.566 2.418-3.191 3.19-.128.038-.263.009-.365-.075-.102-.083-.157-.21-.146-.34.002-.03.187-2.572-1.326-3.572.14 1.025.024 2.77-1.964 3.948-.121.07-.272.072-.396.005-.124-.069-.203-.197-.207-.338-.003-.15-.13-3.657-2.746-4.006-.22-.03-.372-.23-.343-.448.029-.219.23-.374.448-.343 2.262.302 3.147 2.5 3.376 4.064 1.67-1.398.927-3.33.89-3.42-.055-.14-.027-.3.073-.413.1-.113.257-.16.402-.121 2.227.6 2.566 2.988 2.599 4.117 2.408-.929 2.11-2.6 2.095-2.674-.027-.125.008-.256.095-.352.088-.095.218-.144.343-.127 1.604.194 2.304 1.582 2.543 2.746 1.467-2.041 1.41-4.778 1.37-5.463l-.057-.203c.335-.877.828-1.7 1.53-2.476 2.586-2.855 4.629-6.054 4.23-10.155-.273-2.815-1.517-5.2-3.493-7.173-.412-.41-2.23-1.75-1.841-.175.216.872.772 1.626 1.156 2.427.57 1.19 1.198 2.492 1.337 3.822.147 1.775-.326 3.488-1.325 5.101-.81 1.308-1.963 1.995-3.325 2.12-.398-.052-6.172-2.987-11.534-1.242-.188.061-.717-.308-.86-.417-.224-.173-.392-.397-.564-.62-.383-.494-.724-1.024-1.012-1.578-1.59-3.058-.927-6.475 1.257-9.064.367-.433.766-.844 1.198-1.213.362-.309 1.155-1.224.169-1.322-1.508-.151-2.77.817-3.82 1.78-2.354 2.161-3.745 5.308-3.333 8.524.039.306.128 1.64.4 1.8-3.907-2.306-10.866-4.449-21.883-1.568l-7.383 2.794c-3.75 1.42-9.122 1.12-13.086 1.606-5.681.696-12.908.069-17.152 4.647-2.633 2.84-3.448 6.234-4.82 9.721-1.327 3.38-3.511 5.528-5.43 8.311-5.418 7.864 0 12.516 0 12.516"/>
            <mask id="prefix__b" fill="#fff">
                <use xlink:href="#prefix__a"/>
            </mask>
            <path fill="#FFDE8E" d="M100.295 246.162L282.317 246.162 282.317 233.562 100.295 233.562zM130.214 190.939h.03c5.088-6.463 9.605-3.577 11.716-1.484v30.705h-11.746v-29.221zm15.662 0h.045c5.075-6.447 9.584-3.591 11.701-1.5v30.72h-11.746v-29.22zm15.662 0h.06c5.063-6.432 9.562-3.604 11.686-1.515v30.736h-11.746v-29.221zm15.662-.097c5.147-6.445 9.697-3.362 11.746-1.275v30.593H177.2v-29.318zm15.662-.083c5.176-6.402 9.74-3.2 11.746-1.122v30.523h-11.746v-29.401zm15.662.004c5.175-6.404 9.738-3.207 11.746-1.13v30.527h-11.746v-29.397zm15.662-.323c5.308-6.255 9.933-2.522 11.746-.52v30.24h-11.746v-29.72zm15.662.499c5.113-6.494 9.648-3.55 11.746-1.454v30.675h-11.746v-29.221zm-127.489 41.82h156.286v-12.6H255.51v-36.993H126.298v36.994H112.36v12.599zM257.029 182.182L190.949 182.182 124.869 182.182 120.758 178.429 190.949 178.429 261.139 178.429zM120.401 177.402L126.701 172.778 191.038 172.778 255.376 172.778 261.676 177.402 191.038 177.402zM253.187 171.817H128.8s-1.608-6.434-3.753-8.042H256.939c-2.144 1.608-3.752 8.042-3.752 8.042M161.078 69.538l.545.396c6.54 3.567 3.37 5.648 3.37 5.648.891.396 0 1.09 0 1.09l4.953 2.576-.594 1.883 2.08 2.081 3.086.944c1.19.663.67 1.575.25 2.062l-2.444 2.443h-.694v.991l-.693.792h-3.072v2.28h-1.09V114.226h-2.378V96.588h-.495v-1.09h-1.784l-1.387-1.685v-.792H157.66v.792l-1.388 1.685h-1.783v1.09h-.496v17.638h-2.378V92.724h-1.09v-2.28h-3.07l-.695-.792v-.99h-.693l-2.444-2.444c-.42-.487-.94-1.399.25-2.062l3.085-.944 2.081-2.08-.595-1.884 4.955-2.576s-.892-.694 0-1.09c0 0-3.17-2.08 3.37-5.648l.544-.396s-1.288-.248-.793-.99c0 0 .05-1.04 1.04-.695l.744-1.586s-.545-.495 0-.693c0 0-.694-.693 0-1.188 0 0-.248-.595.297-.744 0 0 .05-.792.594-.842.545.05.595.842.595.842.545.15.297.744.297.744.694.495 0 1.188 0 1.188.545.198 0 .693 0 .693l.743 1.586c.991-.346 1.04.694 1.04.694.496.743-.792.991-.792.991" mask="url(#prefix__b)"/>
            <path fill="#FFDE8E" d="M206.63 84.156c1.19.663.669 1.575.249 2.063l-2.443 2.443h-.694v.99l-.694.793h-3.071v2.279h-1.09V114.226h-2.378V96.587h-.495v-1.09h-1.784l-1.387-1.684v-.792h-3.072v.791l-1.387 1.686H186.6v1.09h-.495v17.636h-2.378V92.725h-1.09v-2.28h-3.072l-.693-.791v-.992h-.694l-2.443-2.442c-.42-.487-.941-1.4.249-2.063l3.086-.944 2.08-2.08-.594-1.883 4.954-2.576s-.891-.695 0-1.09c0 0-3.17-2.082 3.369-5.648l.545-.397s-1.288-.248-.793-.99c0 0 .05-1.04 1.04-.695l.744-1.585s-.545-.496 0-.694c0 0-.693-.692 0-1.189 0 0-.248-.594.297-.743 0 0 .05-.793.595-.842.545.05.594.843.594.843.545.148.298.742.298.742.693.496 0 1.19 0 1.19.545.197 0 .692 0 .692l.743 1.587c.99-.347 1.04.694 1.04.694.496.742-.792.99-.792.99l.544.397c6.54 3.566 3.369 5.647 3.369 5.647.892.397 0 1.09 0 1.09l4.955 2.577-.595 1.883 2.08 2.08 3.087.944z" mask="url(#prefix__b)"/>
            <path fill="#FFDE8E" d="M219.67 69.436l.006.014c-2.555 1.526-3.83 3.028-3.894 4.576-.027.67.18 1.202.431 1.598-.026.09-.042.172-.05.24-.015.126-.014.245 0 .358l-3.992 2.075c-.46.24-.684.778-.527 1.275l.398 1.26-1.43 1.433-2.832.866c-.072.023-.142.052-.208.089-.076.042-.142.088-.21.132-.068-.044-.134-.09-.21-.132-.067-.037-.137-.066-.209-.09l-2.83-.865-1.432-1.432.398-1.261c.157-.497-.065-1.034-.527-1.275l-3.99-2.075c.013-.113.014-.232 0-.357-.01-.07-.025-.151-.052-.241.253-.396.46-.928.431-1.598-.063-1.548-1.339-3.05-3.894-4.576l.006-.014c.101-.241.213-.693-.034-1.226-.13-.703-.62-1.35-1.419-1.477l-.182-.388c.083-.218.125-.473.07-.756-.005-.025-.01-.05-.017-.073.077-.217.124-.467.102-.74-.022-.262-.107-.511-.247-.734-.006-.2-.048-.42-.155-.64-.08-.163-.188-.307-.319-.43-.209-.62-.688-1.171-1.449-1.24-.032-.002-.064-.004-.097-.004-.032 0-.064.002-.097.005-.76.068-1.24.619-1.449 1.24-.13.122-.239.266-.319.43-.107.22-.149.439-.155.639-.14.223-.225.472-.246.735-.023.272.024.522.101.739-.006.024-.012.048-.016.073-.056.283-.014.538.07.756l-.183.388c-.799.127-1.288.774-1.419 1.477-.246.533-.135.985-.034 1.226l.006.014c-2.555 1.526-3.83 3.028-3.894 4.576-.027.67.178 1.202.431 1.598-.026.09-.042.172-.05.24-.016.126-.014.245 0 .358l-3.99 2.075c-.463.24-.686.778-.529 1.275l.398 1.26-1.43 1.433-2.832.866c-.072.023-.142.052-.208.089-.076.042-.143.088-.21.132-.068-.044-.134-.09-.21-.132-.067-.037-.137-.066-.209-.09l-2.83-.865-1.432-1.432.4-1.261c.155-.497-.067-1.034-.529-1.275l-3.99-2.075c.013-.113.014-.232-.002-.357-.008-.07-.023-.151-.05-.241.253-.396.458-.928.431-1.598-.06-1.488-1.256-2.935-3.618-4.402l.031-.658s2.255-21.255 14.815-30.917l-.765-2.576s-1.058-1.324.363-1.7c.41-.568 1.235-1.318 2.837-1.5 0 0-.483-.725.061-1.51 0 0-.846-3.864 1.69-5.434 0 0 1.148 0 1.208 1.992 0 0 1.087-3.442 3.08-5.374v-.906s-1.63-.121-1.57-.966c0 0-1.148-.604-.06-1.51 0 0-.303-1.207 1.147-1.147 0 0 .483-.906 1.57-.604l.664-1.51.302-.302-1.51-1.026s-1.449-1.872 0-2.415c0 0 .181-1.33 1.63-.544l.121-.543s-1.479-1.872.302-3.2l-.332-.393s-.18-.604.664-.755l.665-1.086-.363-.363s-.21-.423.483-.604l.604-.815v-.392s-.876-.363-.543-1.571c0 0 .181-.876 1.238-.906 1.056.03 1.238.906 1.238.906.332 1.208-.544 1.57-.544 1.57v.393l.604.815c.694.18.483.604.483.604l-.363.363.665 1.086c.845.15.664.755.664.755l-.332.393c1.781 1.328.302 3.2.302 3.2l.121.543c1.45-.785 1.63.544 1.63.544 1.45.543 0 2.415 0 2.415l-1.51 1.026.302.302.665 1.51c1.086-.302 1.57.604 1.57.604 1.45-.06 1.147 1.147 1.147 1.147 1.087.906-.06 1.51-.06 1.51.06.845-1.57.966-1.57.966v.906c1.992 1.932 3.08 5.374 3.08 5.374.06-1.992 1.207-1.992 1.207-1.992 2.536 1.57 1.691 5.434 1.691 5.434.543.785.06 1.51.06 1.51 1.602.182 2.428.932 2.837 1.5 1.421.376.363 1.7.363 1.7l-.765 2.576c11.052 8.502 14.124 25.977 14.703 30.052-.009.036-.02.072-.028.109-.246.533-.134.986-.034 1.226" mask="url(#prefix__b)"/>
            <path fill="#FFDE8E" d="M236.546 88.661h-.694v.991l-.693.792h-3.072v2.28h-1.09v21.501h-2.378V96.588h-.495v-1.09h-1.784l-1.387-1.685v-.792h-3.072v.792l-1.387 1.685h-1.783v1.09h-.496v17.637h-2.378V92.723h-1.09v-2.279h-3.07l-.695-.792v-.99h-.694l-2.443-2.444c-.42-.487-.94-1.399.25-2.062l3.085-.944 2.081-2.08-.594-1.884 4.954-2.576s-.892-.694 0-1.09c0 0-3.17-2.08 3.37-5.648l.544-.396s-1.288-.248-.793-.99c0 0 .05-1.04 1.04-.695l.743-1.586s-.544-.495 0-.693c0 0-.693-.693 0-1.188 0 0-.247-.595.298-.744 0 0 .05-.793.594-.842.545.05.595.842.595.842.545.15.297.744.297.744.694.495 0 1.188 0 1.188.545.198 0 .693 0 .693l.743 1.586c.991-.346 1.041.694 1.041.694.495.743-.793.991-.793.991l.545.396c6.54 3.567 3.37 5.648 3.37 5.648.891.396 0 1.09 0 1.09l4.953 2.576-.594 1.883 2.08 2.081 3.087.944c1.19.663.67 1.575.248 2.062l-2.443 2.443zM257.777 134.363h-.762v1.089l-.762.87h-3.375v2.505h-1.198v23.625h-2.613v-19.38h-.544v-1.197h-1.96l-1.524-1.85v-.871h-3.375v.87l-1.524 1.851h-1.96v1.197h-.544v19.38h-2.613v-23.625h-1.197v-2.505h-3.375l-.763-.87v-1.09h-.762l-2.684-2.683c-.462-.536-1.034-1.537.273-2.266l3.391-1.038 2.287-2.285-.654-2.07 5.444-2.83s-.98-.763 0-1.197c0 0-3.484-2.287 3.701-6.206l.6-.437s-1.416-.271-.872-1.088c0 0 .055-1.142 1.143-.761l.817-1.743s-.599-.543 0-.761c0 0-.762-.763 0-1.308 0 0-.272-.652.326-.815 0 0 .055-.871.654-.926.598.055.653.926.653.926.6.163.326.816.326.816.763.544 0 1.306 0 1.306.6.219 0 .763 0 .763l.817 1.742c1.09-.382 1.143.76 1.143.76.545.818-.87 1.09-.87 1.09l.598.436c7.186 3.918 3.702 6.206 3.702 6.206.98.434 0 1.197 0 1.197l5.443 2.83-.653 2.07 2.286 2.285 3.391 1.038c1.307.728.735 1.73.273 2.266l-2.684 2.684z" mask="url(#prefix__b)"/>
            <path fill="#FFDE8E" d="M199.741 162.451v-23.625h-1.198v-2.504h-3.375l-.762-.87v-1.09h-.762l-2.684-2.683c-.462-.536-1.034-1.538.273-2.266l3.391-1.038 2.286-2.286-.653-2.07 5.444-2.83s-.98-.76 0-1.197c0 0-3.484-2.287 3.701-6.206l.6-.436s-1.416-.272-.872-1.088c0 0 .055-1.143 1.143-.762l.817-1.742s-.599-.544 0-.762c0 0-.762-.763 0-1.307 0 0-.272-.653.326-.816 0 0 .055-.87.654-.926.598.055.653.926.653.926.6.163.327.816.327.816.762.544 0 1.307 0 1.307.598.218 0 .762 0 .762l.816 1.742c1.09-.38 1.143.762 1.143.762.545.816-.87 1.088-.87 1.088l.598.436c7.185 3.92 3.702 6.206 3.702 6.206.98.436 0 1.197 0 1.197l5.443 2.83-.653 2.07 2.286 2.286 3.391 1.038c1.307.728.735 1.73.273 2.266l-2.684 2.683h-.762v1.09l-.762.87h-3.375v2.504h-1.198V162.452h-2.613v-19.38h-.544v-1.197h-1.96l-1.524-1.85v-.872h-3.375v.871l-1.524 1.851h-1.96v1.197h-.544v19.38h-2.613z" mask="url(#prefix__b)"/>
            <path fill="#FFDE8E" d="M170.12 113.786l.6-.436s-1.417-.272-.872-1.088c0 0 .054-1.143 1.143-.762l.816-1.742s-.598-.544 0-.762c0 0-.762-.763 0-1.307 0 0-.272-.653.327-.816 0 0 .054-.87.653-.926.6.055.654.926.654.926.598.163.326.816.326.816.762.544 0 1.307 0 1.307.6.218 0 .762 0 .762l.817 1.742c1.088-.38 1.143.762 1.143.762.544.816-.87 1.088-.87 1.088l.597.436c7.186 3.92 3.702 6.206 3.702 6.206.98.436 0 1.197 0 1.197l5.444 2.83-.654 2.07 2.287 2.286 3.391 1.038c1.307.728.735 1.73.273 2.266l-2.684 2.683h-.762v1.09l-.763.87h-3.375v2.504h-1.197V162.452h-2.613v-19.38h-.544v-1.197H176l-1.524-1.85v-.872H171.1v.871l-1.524 1.851h-1.96v1.197h-.545v19.38h-2.612V138.825h-1.198v-2.504h-3.375l-.762-.87v-1.09h-.762l-2.684-2.683c-.463-.536-1.034-1.538.273-2.266l3.391-1.038 2.286-2.286-.653-2.07 5.443-2.83s-.979-.76 0-1.197c0 0-3.484-2.287 3.702-6.206M204.858 142.947c.321 0 .624-.143.828-.39l1.524-1.85c.115-.14.192-.306.225-.481h1.27c.032.174.11.34.224.48l1.524 1.85c.204.248.508.391.828.391h.888v.125c0 .4.22.75.544.934v18.446c0 .153.033.298.091.43h-9.468c.057-.132.09-.278.09-.43v-18.446c.325-.185.545-.534.545-.934v-.125h.887z" mask="url(#prefix__b)"/>
            <path fill="#FFDE8E" d="M169.576 142.947c.32 0 .624-.143.828-.39l1.524-1.85c.115-.14.192-.306.225-.481h1.269c.033.174.11.34.225.48l1.524 1.85c.204.248.508.391.828.391h.888v.125c0 .4.219.75.544.934v18.446c0 .153.033.298.09.43h-9.467c.057-.132.09-.278.09-.43v-18.446c.325-.185.545-.534.545-.934v-.125h.887zM161.096 113.912l.83-17.363c.063.011.127.021.192.021h.712v.018c0 .38.197.714.495.904v16.733c0 .592.48 1.073 1.072 1.073h1.695c-1.02.992-1.547 1.982-1.588 2.988-.028.695.194 1.282.486 1.731-.038.113-.058.214-.068.298-.019.155-.014.301.01.44l-4.452 2.313c-.462.241-.684.78-.528 1.275l.458 1.448-1.637 1.637-3.136.96c-.072.022-.142.051-.208.088-.103.057-.195.118-.283.177-.088-.059-.18-.12-.282-.177-.067-.037-.136-.066-.208-.088l-3.136-.96-1.637-1.637.457-1.448c.157-.496-.066-1.034-.528-1.275l-1.353-.703v-8.453h2.084v.313c0 .592.48 1.073 1.072 1.073h2.378c.592 0 1.072-.48 1.072-1.073v-.313h6.031zM182.189 162.451v-22.553h.125c.593 0 1.073-.479 1.073-1.072v-1.432h2.302c.31 0 .603-.133.806-.366l.762-.87c.172-.196.267-.447.267-.707v-.062c.166-.05.321-.142.447-.268l2.458-2.458 2.458 2.458c.125.126.28.218.447.268v.062c0 .26.095.511.266.706l.762.871c.203.233.498.366.806.366h2.303v1.432c0 .593.48 1.072 1.072 1.072h.125v22.553c0 .153.034.298.091.43h-16.661c.057-.132.09-.277.09-.43M152.689 135.121l2.458-2.458 2.458 2.458c.125.126.28.218.447.268v.062c0 .26.095.511.266.706l.762.871c.203.233.498.366.807.366h2.302v1.432c0 .593.48 1.072 1.073 1.072h.125v22.553c0 .153.033.298.09.43H148.46v-25.487h1.947c.309 0 .603-.133.807-.366l.762-.87c.17-.196.265-.447.265-.707v-.062c.168-.05.322-.142.448-.268M230.974 125.791l-1.637 1.637-3.135.96c-.073.022-.142.051-.209.09-.102.055-.194.116-.282.175-.088-.059-.18-.12-.283-.176-.066-.038-.136-.067-.208-.089l-3.135-.96-1.637-1.637.457-1.448c.157-.496-.066-1.033-.528-1.275l-4.45-2.314c.022-.138.027-.284.008-.439-.01-.084-.03-.185-.068-.297.292-.45.514-1.037.486-1.732-.069-1.679-1.48-3.316-4.309-4.99.016-.032.031-.066.045-.099.104-.249.22-.718-.04-1.27-.137-.755-.665-1.45-1.53-1.562l-.244-.519c.096-.233.148-.509.088-.815-.007-.035-.015-.07-.025-.104.087-.233.141-.503.117-.799-.023-.28-.116-.547-.27-.784-.003-.213-.045-.45-.162-.689-.085-.176-.203-.329-.346-.458-.214-.658-.713-1.245-1.51-1.317-.032-.003-.065-.005-.097-.005-.033 0-.065.002-.097.005-.798.072-1.297.66-1.51 1.317-.144.13-.26.282-.347.458-.116.238-.158.476-.16.69-.155.236-.248.503-.272.783-.024.296.03.566.118.8-.01.033-.018.068-.025.103-.06.306-.009.582.088.815l-.244.52c-.866.111-1.394.806-1.529 1.56-.26.553-.146 1.022-.042 1.271.014.033.03.067.045.098-2.828 1.675-4.24 3.312-4.308 4.991-.029.695.193 1.282.485 1.732-.038.112-.058.213-.068.297-.019.155-.013.301.01.44l-4.452 2.313c-.462.242-.684.78-.528 1.275l.458 1.448-1.637 1.637-3.135.96c-.073.022-.142.051-.208.09-.103.055-.195.116-.283.176-.088-.06-.18-.12-.283-.177-.066-.038-.136-.067-.208-.089l-3.136-.96-1.637-1.637.457-1.448c.157-.496-.065-1.033-.527-1.275l-4.45-2.314c.022-.138.027-.284.008-.439-.01-.084-.03-.185-.068-.297.292-.45.514-1.037.486-1.732-.069-1.679-1.48-3.316-4.309-4.99.016-.032.031-.066.045-.099.104-.249.22-.718-.04-1.27-.137-.755-.665-1.45-1.53-1.562l-.244-.519c.096-.233.148-.509.087-.815-.006-.035-.015-.07-.025-.104.087-.233.142-.503.117-.799-.023-.28-.116-.547-.27-.783-.003-.214-.045-.452-.16-.69-.086-.175-.204-.329-.347-.458-.214-.658-.713-1.245-1.51-1.317-.033-.003-.065-.005-.098-.005-.032 0-.064.002-.097.005-.798.072-1.296.66-1.51 1.317-.143.13-.26.282-.346.458-.116.238-.158.476-.16.69-.155.236-.248.503-.272.784-.024.295.03.565.117.798l-.025.104c-.06.306-.008.582.088.815l-.243.52c-.866.111-1.394.806-1.53 1.56-.26.553-.145 1.022-.04 1.271.013.033.028.067.044.098-.343.203-.664.406-.965.607V93.796h.017c.592 0 1.072-.48 1.072-1.072v-1.207h2c.31 0 .603-.133.807-.367l.694-.792c.168-.192.262-.438.265-.694.141-.053.271-.136.38-.245l2.168-2.168 2.17 2.168c.107.11.237.192.378.245.003.256.097.502.265.694l.694.793c.204.233.498.366.807.366h2v1.207c0 .592.48 1.072 1.071 1.072h.018v20.43c0 .591.48 1.072 1.072 1.072h2.378c.593 0 1.073-.48 1.073-1.072V97.492c.297-.19.495-.524.495-.904v-.018h.711c.321 0 .624-.143.828-.39l1.387-1.685c.098-.118.168-.256.208-.4h1.001c.04.144.11.282.208.4l1.387 1.685c.204.247.507.39.828.39h.711v.018c0 .38.197.714.495.904v16.734c0 .591.48 1.072 1.072 1.072h2.38c.591 0 1.071-.48 1.071-1.072v-20.43h.017c.592 0 1.073-.48 1.073-1.072v-1.207h2c.308 0 .602-.133.806-.366l.693-.793c.17-.192.263-.438.266-.694.141-.053.271-.136.38-.245l2.168-2.168 2.17 2.168c.107.11.237.192.378.245.003.256.097.502.265.694l.694.792c.203.234.498.367.807.367h2v1.207c0 .592.48 1.072 1.072 1.072h.017v20.43c0 .591.48 1.072 1.073 1.072h2.377c.593 0 1.073-.48 1.073-1.072V97.492c.298-.19.495-.524.495-.904v-.018h.712c.24 0 .471-.08.657-.225l.84 17.567h5.555v.314c0 .591.48 1.072 1.072 1.072h2.378c.593 0 1.073-.48 1.073-1.072v-.314h.743v8.237l-1.768.92c-.462.241-.685.778-.528 1.274l.457 1.448zM228.617 135.389v.062c0 .26.094.51.264.707l.762.87c.204.233.499.367.808.367h2.303v1.432c0 .119.024.23.06.338v23.716H217.38c.058-.132.09-.276.09-.43v-22.552h.126c.593 0 1.072-.48 1.072-1.072v-1.432h2.303c.31 0 .603-.134.806-.366l.764-.871c.17-.196.264-.447.264-.707v-.062c.167-.05.322-.142.448-.268l2.458-2.458 2.457 2.458c.126.126.28.218.448.268" mask="url(#prefix__b)"/>
            <path fill="#FFDE8E" d="M139.574 113.35l.599.437c7.185 3.918 3.702 6.206 3.702 6.206.979.435 0 1.197 0 1.197l5.443 2.83-.653 2.069 2.286 2.286 3.391 1.038c1.307.729.735 1.73.273 2.266l-2.684 2.684h-.762v1.089l-.762.87h-3.375v2.505h-1.198v23.625h-2.613v-19.38h-.544v-1.197h-1.96l-1.524-1.85v-.871h-3.375v.87l-1.524 1.85h-1.96v1.199h-.544v19.379h-2.613v-23.625h-1.198v-2.504h-3.375l-.762-.871v-1.09h-.762l-2.684-2.683c-.462-.535-1.034-1.537.273-2.266l3.391-1.038 2.286-2.286-.653-2.07 5.443-2.83s-.979-.761 0-1.196c0 0-3.483-2.288 3.702-6.206l.599-.436s-1.415-.272-.871-1.09c0 0 .054-1.141 1.143-.761l.817-1.742s-.599-.544 0-.761c0 0-.763-.763 0-1.307 0 0-.273-.653.326-.817 0 0 .055-.871.653-.925.599.054.654.925.654.925.598.164.326.817.326.817.762.544 0 1.307 0 1.307.599.217 0 .76 0 .76l.817 1.743c1.088-.38 1.143.762 1.143.762.544.817-.871 1.089-.871 1.089" mask="url(#prefix__b)"/>
            <path fill="#F7E8C8" d="M382.633 250.307c0-4.801-85.655-8.692-191.316-8.692C85.655 241.615 0 245.505 0 250.307c0 4.8 85.655 8.693 191.317 8.693 105.66 0 191.316-3.892 191.316-8.693" mask="url(#prefix__b)"/>
            <path fill="#619440" d="M97.227 190.73c-33.97 3.28-66.387-74.916-78.81-106.332C10.25 63.738 8.762 41.186 7.363 19.05c35.489 11.925 78.375 39.36 95.463 72.308 2.838 5.47 4.822 14.146 5.964 20.189 2.389 12.653 3.723 53.729 2.569 66.559-.362 4.016 1.099 11.152-14.131 12.623" mask="url(#prefix__b)"/>
            <path fill="#306B34" d="M11.57 24.688c.714-.618 1.802-.548 2.427.157 7.8 8.783 15.102 17.579 21.995 26.503 1.76-4.871 2.486-8.892 2.584-14.038.018-.623.536-1.122 1.17-1.11.632.01 1.136.527 1.126 1.154-.071 3.595-.446 6.734-1.245 9.953-.493 1.987-1.148 4.005-1.99 6.18 5.405 7.082 10.554 14.252 15.485 21.567.282-2.798.76-5.561 1.229-8.27.526-3.032.929-5.16 1.334-7.283.405-2.136.812-4.267 1.338-7.32.106-.62.7-1.03 1.325-.924.625.105 1.045.69.938 1.307-.53 3.067-.94 5.208-1.345 7.355-.402 2.114-.805 4.23-1.328 7.249-.623 3.598-1.263 7.296-1.418 10.986 5.992 9.055 11.662 18.346 17.083 27.98l5.325-17.436c.838-2.746 1.709-5.591 1.798-8.466.028-.614.549-1.116 1.18-1.098.635.02 1.133.54 1.114 1.166-.054 1.76-.358 3.462-.77 5.123-.331 1.334-.732 2.642-1.127 3.93l-5.974 19.56c6.52 11.772 12.686 24.063 18.617 37.08.165.359.192.744.103 1.1-.121.49-.462.923-.965 1.147-.868.384-1.885.002-2.275-.855-2.695-5.915-5.442-11.672-8.246-17.305h-.005c-6.145-.81-10.9-1.645-15.5-2.454-4.576-.804-9.306-1.636-15.403-2.438-.627-.083-1.07-.652-.985-1.272.082-.61.659-1.056 1.289-.973 6.145.808 10.9 1.644 15.5 2.454 4.183.734 8.509 1.493 13.877 2.23-3.611-7.162-7.32-14.12-11.158-20.9-7.398-1.563-13.808-2.956-20.214-4.347-6.604-1.434-13.208-2.867-20.901-4.49-.618-.132-1.013-.733-.882-1.345.218-.607.743-1.003 1.363-.872 7.696 1.625 14.305 3.06 20.913 4.495 5.822 1.264 11.645 2.528 18.212 3.92-4.46-7.757-9.091-15.296-13.934-22.675-.027-.026-.05-.056-.074-.083-.223.077-.47.09-.713.017-12.528-3.762-21.984-5.78-34.888-7.445-.628-.082-1.07-.651-.988-1.271.095-.634.66-1.056 1.287-.975 12.452 1.606 21.73 3.54 33.567 7.024-4.46-6.686-9.097-13.247-13.944-19.724-9.005-3.874-14.022-4.575-23.4-4.582-.635-.001-1.148-.51-1.147-1.134-.002-.626.514-1.131 1.146-1.133 8.84.008 14.003.763 20.726 3.31-7.296-9.554-15.06-18.95-23.391-28.332-.63-.703-.558-1.777.159-2.397" mask="url(#prefix__b)"/>
            <path fill="#FFDE8E" d="M35.738 165.6c4.409 30.118 29.76 66.36 59.058 78.269 9.357 3.803 20.646 6.009 29.636 1.07 8.528-4.684 12.52-14.836 11.766-24.035-.754-9.2-5.445-17.591-10.775-25.202-5.525-7.89-11.9-15.323-19.692-21.235-7.792-5.912-16.987-11.047-27.063-11.524-21.802-1.034-36.036 1.962-42.93 2.658" mask="url(#prefix__b)"/>
        </g>
        <g transform="translate(35 162.611)">
            <mask id="prefix__d" fill="#fff">
                <use xlink:href="#prefix__c"/>
            </mask>
            <path fill="#FFBF4D" d="M.738 3.601s94.01 75.481 95.86 72.848c3.541-5.047 5.095-11.502 4.6-17.545-.754-9.199-5.445-17.592-10.775-25.203-5.525-7.889-11.9-15.322-19.692-21.234C62.939 6.555 53.744 1.42 43.668.943 40.51.793 37.511.728 34.67.728 17.896.728 6.634 3.005.738 3.601" mask="url(#prefix__d)"/>
        </g>
        <path fill="#306B34" d="M11.466 215.423c0 2.78 2.254 5.035 5.035 5.035 2.78 0 5.036-2.254 5.036-5.035s-2.255-5.035-5.036-5.035c-2.781 0-5.035 2.254-5.035 5.035"/>
        <g transform="translate(24 204.611)">
            <mask id="prefix__g" fill="#fff">
                <use xlink:href="#prefix__e"/>
            </mask>
            <path fill="url(#prefix__f)" d="M.557 4.307c0 1.835 1.489 3.323 3.324 3.323 1.835 0 3.324-1.488 3.324-3.323 0-1.836-1.489-3.323-3.324-3.323C2.046.984.557 2.471.557 4.307" mask="url(#prefix__g)"/>
        </g>
        <g transform="translate(17 199.611)">
            <mask id="prefix__j" fill="#fff">
                <use xlink:href="#prefix__h"/>
            </mask>
            <path fill="url(#prefix__i)" d="M.498 3.002c0 1.284 1.042 2.327 2.326 2.327 1.285 0 2.327-1.043 2.327-2.327 0-1.285-1.042-2.327-2.327-2.327C1.54.675.498 1.717.498 3.002" mask="url(#prefix__j)"/>
        </g>
        <g>
            <path fill="#FCBD30" d="M93.833 12.332s1.144 6.056 1.979 7.283c.836 1.228 5.155 5.692 10.687 6.437 5.532.744 2.986-20.91 2.986-20.91l-15.652 7.19z" transform="translate(38 17.611)"/>
            <path fill="#E7E1D3" d="M138.442 79.625c3.855.48 10.074-3.524 9.974-5.956-.565-13.813-8.319-20.886-13.7-26.966-6.912-7.812-18.498-19.264-26.748-14.942l1.615 2.764s15.13 43.387 28.86 45.1" transform="translate(38 17.611)"/>
            <path fill="#FFE2B7" d="M3.847 199.022c-.16-1.041.555-2.016 1.597-2.175l9.812-1.504c1.042-.16 2.017.555 2.176 1.597.16 1.042-.555 2.017-1.597 2.176l-9.812 1.504c-1.042.16-2.016-.556-2.176-1.598" transform="translate(38 17.611)"/>
            <path fill="#7F786A" d="M.938 210.451c-.523-.05-.906-.526-.854-1.064l1.257-13.066c.066-.689.73-1.146 1.374-.947l2.292.41c.655.117 1.109.731 1.044 1.412 0 0-1.046.237-1.322 1.451-.221.983.548 1.394 1.112 1.562.273.081.412.403.284.677l-4.244 9.03c-.179.36-.552.573-.944.535" transform="translate(38 17.611)"/>
            <path fill="#FFE2B7" d="M167.481 231.595c-.927.503-2.085.16-2.588-.766l-4.738-8.723c-.503-.926-.16-2.085.766-2.588.926-.503 2.085-.16 2.588.766l4.738 8.723c.503.926.16 2.085-.766 2.588" transform="translate(38 17.611)"/>
            <path fill="#7F786A" d="M95.702 87.276c-4.23 4.562-6.771 39.59-6.771 39.59l29.49 36.719 42.317 61.61 18.333-7.624s-12.28-33.35-23.717-58.152c-10.768-23.351-34.284-81.41-35.285-84.103-3.724 1.459-14.183 10.339-24.367 11.96" transform="translate(38 17.611)"/>
            <path fill="#A29C8F" d="M85.198 83.495c-5.989 8.157-15.013 16.178-20.15 29.135-6.103 15.394-9.211 59.045-9.211 59.045l-44.139 21.703 3.548 16.772s53.991 9.771 74.72-35.398c2.55-5.558 12.89-26.178 18.807-46.175 6.99-23.623 9.464-46.635 9.464-46.635s-30.429 3.211-33.039 1.553" transform="translate(38 17.611)"/>
            <path fill="#7F786A" d="M178.987 230.83c.143.506-.147 1.031-.65 1.174l-12.2 3.46c-.644.182-1.294-.275-1.348-.946l-.457-2.283c-.131-.652.258-1.293.893-1.473 0 0 .59.89 1.78.716.965-.14 1.057-1.003 1.004-1.589-.025-.285.214-.528.507-.505l9.65.757c.388.038.714.311.82.69" transform="translate(38 17.611)"/>
            <path fill="#F5EFE4" d="M124.932 83.267s-4.617 3.809-16.77 3.798c-11.126-.011-24.8-3.343-25.284-5.332-1.87-7.688-2.718-31.052-2.718-31.052-.14-8.458-5.584-19.687 3.447-20.723 5.228-.6 26.17.584 26.17.584 9.087-.151 14.748 13.553 15.928 23.87.964 8.423-.773 28.855-.773 28.855" transform="translate(38 17.611)"/>
            <path fill="#FFE2B7" d="M108.068 33.11c-1.686-.03-3.027-1.421-2.997-3.106l.08-4.354c.03-1.685 1.421-3.027 3.107-2.997 1.685.03 3.027 1.422 2.997 3.107l-.08 4.354c-.03 1.685-1.42 3.027-3.107 2.997" transform="translate(38 17.611)"/>
            <path fill="#FFC581" d="M105.158 25.237c.027-1.457 1.414-2.614 3.1-2.584 1.686.03 3.031 1.237 3.004 2.695l-.069 3.815c-.014.796-2.26.262-3.972-1.012-1.121-.834-2.078-2.087-2.078-2.087l.015-.827z" transform="translate(38 17.611)"/>
            <path fill="#FFE2B7" d="M103.817 16.79c-.149-3.528 1.734-6.539 4.947-7.189 6.876-1.393 7.078 8.083 7.087 12.072.01 4.427-1.36 5.58-1.36 5.58s-3.698.693-6.23-.197c-2.153-.757-3.377-1.033-3.826-4.455-.4-3.057-.555-4.328-.618-5.812" transform="translate(38 17.611)"/>
            <path fill="#FFE2B7" d="M104.465 19.093c1.002 1.267 1.23 2.756.51 3.324-.72.57-2.115.003-3.117-1.264-1.002-1.268-1.23-2.756-.51-3.326.72-.568 2.115-.002 3.117 1.266" transform="translate(38 17.611)"/>
            <path fill="#352E73" d="M61.467 85.913c1.652.304 3.238-.789 3.542-2.44l1.245-6.772c.304-1.65-.79-3.237-2.441-3.542-1.652-.304-3.238.79-3.542 2.441l-1.245 6.771c-.304 1.652.789 3.238 2.44 3.542" transform="translate(38 17.611)"/>
            <path fill="#FF881D" d="M59.334 81.816L64.919 82.843 65.946 77.258 60.361 76.231z" transform="translate(38 17.611)"/>
            <path fill="#FF881D" d="M65.177 77.787L60.89 77l-.788 4.285 4.285.788.788-4.286zm-6.494 3.908l1.029-5.584c.066-.359.41-.596.768-.53l5.586 1.026c.171.033.325.13.424.276.1.143.138.322.106.494l-1.028 5.585c-.067.36-.41.596-.77.53l-5.584-1.027c-.051-.01-.1-.025-.145-.045-.276-.12-.442-.417-.386-.725z" transform="translate(38 17.611)"/>
            <path fill="#FCC23F" d="M60.785 83.987L62.789 84.355 63.394 81.069 61.39 80.7z" transform="translate(38 17.611)"/>
            <path fill="#FCC23F" d="M62.625 81.599l-.705-.13-.365 1.987.704.129.366-1.986zm-2.383 2.763c-.1-.145-.138-.323-.106-.494l.604-3.288c.032-.171.13-.325.275-.423.144-.1.322-.14.495-.107l2.004.368c.17.034.325.13.424.276.1.144.138.322.106.494l-.605 3.287c-.066.359-.41.597-.77.53l-2.003-.368c-.05-.01-.1-.024-.145-.045-.112-.05-.21-.128-.28-.23z" transform="translate(38 17.611)"/>
            <path fill="#FCBD30" d="M113.276 11.023c.185.108 2.323-2.427 1.132-6.351-1.19-3.923-8.75-5.644-14.284-.051-5.047 5.099-6.994 1.738-6.781.323 0 0-1.621 1.14-.653 2.96 0 0-2.142-.213-1.611-2.673 0 0-4.38 3.443-.13 6.746 0 0-1.043.192-1.862-.777 0 0-.325 2.095.866 3.209 1.257 1.175 2.385 1.206 3.867.653 1.377-.515 2.649-2.547 4.953-1.888 2.305.66 3.352 3.852 7.813-1.307 0 0 3.162-2.917 6.69-.844" transform="translate(38 17.611)"/>
            <path fill="#FFE2B7" d="M114.408 4.672c-.78-2.08-2.994-3.123-5.042-3.313-1.042-.129-2.108-.074-3.129.167-1.029.208-2.008.615-2.923 1.118-.448.27-.905.525-1.31.861-.433.295-.828.638-1.204 1.004-.769.705-1.557 1.533-2.481 2.154-.909.614-2.003 1.216-3.292 1.046-.635-.09-1.238-.476-1.602-.998-.364-.523-.579-1.134-.504-1.83l.666.41c-.153.115-.339.307-.465.491-.133.191-.228.398-.279.613-.111.427-.015.888.204 1.318l.012.024c.099.195.022.432-.172.531-.076.04-.159.05-.238.04-.386-.06-.69-.175-1.004-.363-.302-.187-.578-.454-.751-.78-.173-.324-.264-.68-.279-1.023-.02-.345.027-.673.09-.992l.61.381c-.933.788-1.748 1.91-1.853 3.096-.054.59.074 1.198.408 1.72.122.283.369.5.549.755.22.227.467.435.698.657l.034.032c.107.102.111.27.009.376-.044.047-.102.073-.162.08-.436.05-.811-.028-1.178-.186-.36-.16-.672-.414-.914-.709l.414-.117c-.081.585-.069 1.222.069 1.806.134.597.441 1.114.93 1.508.463.407 1.026.71 1.645.773.618.071 1.253-.065 1.856-.26-.585.24-1.211.442-1.868.411-.658-.027-1.289-.317-1.801-.716-.536-.372-.956-.974-1.133-1.614-.197-.645-.234-1.304-.165-1.98.013-.127.126-.22.253-.206.06.006.111.034.148.075l.013.015c.213.237.468.428.753.542.277.115.618.157.878.116l-.119.488c-.261-.228-.536-.443-.787-.686-.219-.278-.494-.509-.659-.837-.409-.592-.613-1.353-.571-2.09.033-.744.317-1.44.689-2.044.384-.607.83-1.133 1.391-1.606.16-.135.398-.114.533.045.075.09.102.202.083.308l-.005.03c-.048.265-.082.53-.063.782.014.253.083.482.19.683.109.202.28.362.482.486.196.121.465.21.668.236l-.398.594c-.292-.542-.459-1.234-.298-1.89.074-.325.213-.63.394-.896.188-.27.382-.49.669-.712.183-.14.445-.107.585.075.066.087.094.19.085.291l-.004.045c-.072.803.533 1.79 1.406 1.89.881.141 1.871-.313 2.709-.883.875-.575 1.59-1.31 2.415-2.05.795-.77 1.726-1.397 2.707-1.909.987-.497 2.037-.887 3.13-1.066 1.084-.213 2.207-.23 3.295-.054 1.083.185 2.15.548 3.058 1.173.905.615 1.653 1.51 1.925 2.564" transform="translate(38 17.611)"/>
            <path fill="#5F5EAA" d="M109.938 37.041c-1.258.067-2.332-.897-2.4-2.155l-.132-2.458c-.006-.116.084-.215.198-.22l4.136-.223c.116-.006.215.082.22.2l.133 2.457c.066 1.257-.898 2.332-2.156 2.4" transform="translate(38 17.611)"/>
            <path fill="#E7E1D3" d="M106.416 37.015s-2.66-2.5-3.304-3.407c-.608-.853-1.671-3.517-1.671-3.517l3.645-2.51s1.325 1.858 1.88 2.372c.76.704 3.44 2.317 3.44 2.317l-3.99 4.745z" transform="translate(38 17.611)"/>
            <path fill="#E7E1D3" d="M114.006 35.814l.138-4.614-2.931-2.397s-.061 1.253-.225 1.63c-.23.525-1.13 1.925-1.13 1.925l4.148 3.456z" transform="translate(38 17.611)"/>
            <path fill="#FFBF4D" d="M113.259 113.553c-15.353 19.843-43.945 23.191-63.862 7.479-19.916-15.713-23.616-44.538-8.263-64.381 15.352-19.843 43.944-23.192 63.86-7.479 19.918 15.713 23.618 44.537 8.265 64.381" transform="translate(38 17.611)"/>
        </g>
        <g transform="translate(79 64.611)">
            <mask id="prefix__l" fill="#fff">
                <use xlink:href="#prefix__k"/>
            </mask>
            <path fill="#FFBF4D" d="M7.94 14.689C-4.377 30.61-1.409 53.737 14.571 66.343c15.98 12.607 38.92 9.921 51.237-6 12.318-15.921 9.349-39.047-6.63-51.655C52.398 3.339 44.365.743 36.422.743 25.645.744 15.031 5.523 7.94 14.689" mask="url(#prefix__l)"/>
        </g>
        <g>
            <path fill="#FFDE8E" d="M58.46 46.144c1.047.927 2.825.629 3.968-.664 1.143-1.292 1.221-3.093.174-4.02L51.221 31.395l-7.587-6.712c-1.047-.926-2.825-.628-3.968.664-1.144 1.293-1.222 3.094-.175 4.02l7.588 6.712c2.469 2.184 2.82 5.992 1.199 9.407L35.349 34.049c-1.047-.926-2.825-.63-3.968.663-1.144 1.293-1.222 3.094-.175 4.02l12.929 11.436c-3.192 2.027-7.014 2.143-9.484-.042l-7.587-6.711c-.247-.217-.547-.375-.882-.462-.674-.171-1.448-.045-2.151.359-.699.4-1.27 1.047-1.582 1.789-.162.374-.25.756-.262 1.129l-1.395 32.148c-.034.787.249 1.447.734 1.876.486.43 1.174.63 1.948.504 1.548-.26 2.861-1.743 2.929-3.31l1.097-25.3 3.009 2.662c4.583 4.054 11.973 3.412 17.576-1.148l2.09 1.848c1.047.927 2.825.629 3.968-.663 1.143-1.293 1.222-3.094.174-4.02l-2.09-1.85c1.256-1.992 2.019-4.123 2.39-6.232l3.843 3.399z" transform="translate(79 46.611)"/>
            <path fill="#FF881D" d="M8.207 32.563l2.244-2.758c.817-.857 1.675-1.677 2.514-2.52.893-.781 1.848-1.491 2.77-2.241.967-.691 1.99-1.3 2.985-1.956 4.11-2.407 8.735-3.927 13.478-4.534 4.75-.554 9.627-.175 14.234 1.185 1.132.4 2.279.758 3.395 1.193 1.088.51 2.193.98 3.262 1.523 1.028.623 2.069 1.22 3.08 1.86l2.877 2.157c-3.852-2.844-8.186-4.985-12.753-6.211-4.563-1.23-9.344-1.605-14.003-1.008-4.666.539-9.198 2.038-13.302 4.307-4.11 2.268-7.762 5.356-10.781 9.003" transform="translate(79 46.611)"/>
            <path fill="#FFAF12" d="M59.325 26.693c2.805 2.283 5.38 4.867 7.507 7.82 2.065 2.987 3.767 6.228 4.969 9.667 1.121 3.463 1.777 7.063 1.955 10.694.09 3.634-.333 7.26-1.209 10.777-.939 3.505-2.434 6.826-4.29 9.923-1.043 1.472-1.992 3.017-3.228 4.337l-.88 1.026c-.149.169-.288.348-.445.509l-.489.466-1.959 1.863c-2.759 2.316-5.798 4.3-9.094 5.774-3.319 1.412-6.821 2.372-10.407 2.849-3.6.365-7.241.24-10.819-.362-3.572-.67-7.022-1.894-10.285-3.505l-2.372-1.356-.593-.34c-.193-.12-.373-.26-.56-.39l-1.114-.794c-1.533-.995-2.845-2.276-4.229-3.463-2.585-2.577-4.877-5.453-6.674-8.64-1.739-3.21-3.067-6.63-3.899-10.178C.465 59.805.191 56.16.403 52.542.7 48.927 1.532 45.388 2.78 42.014c1.317-3.356 3.163-6.458 5.307-9.321-2.099 2.899-3.888 6.023-5.145 9.385C1.753 45.458.985 48.984.748 52.57c-.171 3.588.128 7.189.897 10.705.854 3.498 2.194 6.86 3.935 10.009 1.802 3.119 4.078 5.93 6.621 8.462 1.366 1.162 2.658 2.42 4.169 3.392l1.097.778c.184.127.361.265.552.382l.583.333 2.335 1.325c3.211 1.572 6.602 2.764 10.109 3.412 3.515.58 7.088.69 10.619.325 3.519-.46 6.958-1.391 10.221-2.766 3.24-1.437 6.229-3.377 8.948-5.643l1.93-1.825.482-.456c.155-.16.292-.333.439-.5l.868-1.006c1.22-1.293 2.156-2.812 3.187-4.255 1.827-3.045 3.326-6.296 4.285-9.74.894-3.455 1.344-7.03 1.287-10.621-.143-3.588-.764-7.152-1.837-10.594-1.137-3.425-2.775-6.67-4.783-9.675-2.07-2.972-4.597-5.591-7.367-7.92" transform="translate(79 46.611)"/>
            <path fill="#F5EFE4" d="M14.157 31.711S5.544 24.172 6.58 20.896C9.65 11.19 33.229.782 43.987.96c16.22.27 12.096 13.184 12.096 13.184L14.157 31.711z" transform="translate(79 46.611)"/>
            <path fill="#FFC581" d="M38.716 70.645c-.146.707-.838 1.16-1.545 1.015l-3.231-.67.265-1.28 4.51.935zM39.608 74.844c-.319.551-1.025.739-1.576.42l-2.988-1.732.578-.998 3.986 2.31z" transform="translate(79 46.611)"/>
            <path fill="#FFC581" d="M36.422 73.252s-1.176 1.891-1.866 2.277c-.528.296-1.538.163-1.866-.137-.86-.789-2.409-2.702-1.866-3.809.26-.528 1.504-1.218 2.464-1.686.636-.31 1.327-.202 1.556.25l1.578 3.105z" transform="translate(79 46.611)"/>
            <path fill="#FFC581" d="M36.809 75.376c-.562-.65-3.49-2.554-3.49-2.554l-.686 1.113s2.912 1.985 3.667 2.26c.419.153.832-.446.509-.819" transform="translate(79 46.611)"/>
            <path fill="#FFC581" d="M37.86 75.07c-.562-.65-3.49-2.554-3.49-2.554l-.686 1.114s2.912 1.985 3.667 2.259c.419.153.832-.445.509-.82M35.672 75.866c-.358-.468-2.337-1.542-2.337-1.542l-.58 1.171s1.96 1.153 2.486 1.233c.293.045.637-.594.431-.862" transform="translate(79 46.611)"/>
            <path fill="#7F786A" d="M31.623 15.545c1.193-1.753 1.931-3.606 2.378-5.934 2.828.373 3.404.543 6.62.48 3.63 6.633 21.377 8.862 27.7-3.569.004.014 1.528-.11 1.474.242-.843 9.138-10.179 16.283-19.614 17.151-14.53 1.337-18.565-8.36-18.558-8.37" transform="translate(79 46.611)"/>
            <path fill="#FFC581" d="M54.381 43.566L54.498 40.643 57.189 40.751 57.072 43.673z" transform="translate(79 46.611)"/>
            <path fill="#E7E1D3" d="M56.299 44.518L56.602 39.866 59.919 40.081 59.615 44.734z" transform="translate(79 46.611)"/>
            <path fill="#FFC581" d="M50.798 40.566s-1.178 1.382-1.212 1.957c-.026.439.663 1.545.663 1.545s3.89.299 4.645-.416c.361-.341.414-1.375.4-2.15-.01-.516-.429-.928-.944-.93l-3.552-.006z" transform="translate(79 46.611)"/>
            <path fill="#FFC581" d="M51.757 38.854l-.102.188c-.194.358-.062.804.295.999l2.296 1.247s.609-.171.542-.4c-.238-.802-3.031-2.034-3.031-2.034M47.943 40.355c.197-.486.75-.722 1.237-.524l2.224.897-.356.882-3.105-1.255z" transform="translate(79 46.611)"/>
            <path fill="#FFC581" d="M46.646 41.754c.073-.52.615-.873 1.21-.789l2.72.382-.132.941-3.798-.534z" transform="translate(79 46.611)"/>
            <path fill="#FFC581" d="M46.74 42.583c.074-.52.616-.873 1.21-.789l2.72.383-.131.94-3.798-.534z" transform="translate(79 46.611)"/>
            <path fill="#FFC581" d="M47.379 43.922c.024-.523.53-.927 1.13-.899l2.745.126-.07.92-3.805-.147z" transform="translate(79 46.611)"/>
            <path fill="#E7E1D3" d="M59.25 48.359c-.769-2.057-.905-8.883-.905-8.883s15.355-3.531 29.351-3.521c7.016.006 13.178.913 17.576 2.703 2.303.937 4.167 8.639-1.05 11-18.626 8.43-41.822 7.129-44.972-1.3" transform="translate(79 46.611)"/>
            <path fill="#FFC581" d="M33.89 70.695L30.846 72.027 29.932 69.94 32.976 68.608z" transform="translate(79 46.611)"/>
            <path fill="#F5EFE4" d="M33.71 69.093L29.393 70.854 28.138 67.777 32.455 66.016z" transform="translate(79 46.611)"/>
            <path fill="#F5EFE4" d="M14.368 15.516c-11.88-.458-10.83 20.65-6.25 34.757 4.895 15.082 13.101 19.804 20.13 18.81 3.645-.515 5.981-1.863 5.981-1.863s-6.824-27.674-12.75-42.808c-2.438-6.224-6.584-8.875-7.11-8.896" transform="translate(79 46.611)"/>
            <path fill="#7F786A" d="M240.001 176.294c-7.15 0-12.947-5.797-12.947-12.947 0-7.151 5.797-12.948 12.947-12.948 7.15 0 12.947 5.797 12.947 12.948 0 7.15-5.797 12.947-12.947 12.947m0-38.905c-13.808 0-25.001 11.193-25.001 25.001 0 7.416 3.471 14.954 6.888 20.92 2.87 5.009 8.932 13.529 13.252 19.449 2.405 3.296 7.317 3.296 9.722 0 4.32-5.92 10.382-14.44 13.252-19.449 3.417-5.966 6.888-13.504 6.888-20.92 0-13.808-11.193-25.001-25.001-25.001" transform="translate(79 46.611)"/>
        </g>
    </g>
</svg>
