<svg xmlns="http://www.w3.org/2000/svg" xmlns:xlink="http://www.w3.org/1999/xlink" width="728" height="480" viewBox="0 0 728 480"><defs/><defs><path id="a" d="M0 419h710.7V.8H0z"/><path id="c" d="M.8.2v10.3C.8 14.1 20.1 17 44 17s43-3 43-6.5V.2H1z"/><path id="e" d="M.6.3v10.3C.6 14 20 17 43.8 17c23.8 0 43-2.9 43-6.4V.3H.7z"/><path id="g" d="M0 .2v10.3C0 14.1 19.5 17 43.3 17s43.1-3 43.1-6.5V.2H.1z"/></defs><g fill="none" fill-rule="evenodd" transform="translate(9 61)"><path fill="#F7E8C8" d="M703.1 406.2c0 7-151.7 12.8-339 12.8-187.2 0-339-5.7-339-12.8 0-7 151.8-12.8 339-12.8 187.3 0 339 5.8 339 12.8"/><path fill="#FFF4DD" d="M0 406.9l125.7-152.8 48.6 32.3 34-38.5 17.5 17.4 23.3-53.4 12.6 6.2 18.5-28.6 31 17.4 88.5-141.6L425 64l27.2-39.7 17.5 12.4 13.6-16.1 134 119.2"/><path fill="#FFF" d="M311.3 206.9l69.4 49.5L474.2 372 369.5 264.2l-66-37.7 43.7 131.2-64-126 10.1 132.5L249.1 212l12.6 6.2 18.5-28.6zm-85.5 58.4l-41.2 125L209 270.6l-58 104 57.3-126.8zm-125.6 48.3l-7 49.3 41.6-61-10.2 76.6 22.4-74-21.3-50.4zm502-163.7l23.4 133.8-69-140.3-45.8-7.8-28.5-65L461 265.5V90l-67 109.1 75.7-162.5 13.6-16.1 134 119.2M425 64l-54.4 135.2 29.1-134z"/><path fill="#F4E6C6" d="M674.8 370.3L566.8 268l-26.4-83.4 4.4 91.9 30 61.8-8-52.5 43 70.4z"/><path fill="#A4B750" d="M359 306a3.4 3.4 0 00-2.4-.3c-.6-2.2-.4-4.3.1-6.2 1.7 1.6 4 2 2.4 1-1.2-.6-1.7-1.2-2.3-1.9.2-2.2.5-4 .8-5l1 1.3-.3-2.2c.3 0 .7.1 1.2.4l-.2 1.2.7-.8a6 6 0 012 1.9c0 .1 0 .3-.3.6-.5.5-.8.7-.9 1v1.3c.2 0 .1-.4.2-.8.2-.6 1.3-1.5 1.5-1.6.4.2.7.7 1 1.1 0 .2-.4 1-1 1.4-.7.7-.6 1-.6 1l1-.7 1.3-.9c1 1 1.8 2.4 2.6 4.1l-.1.2c0 .3-2.4 2.7-2.5 3.3-.2.6 2.4-1.6 2.6-2l.3-.7c.7.8 1.2 1.8 1.5 2.8-.2.2-1 1-1.8 1.5-1 .6-1.3 2-1.2 2.2 0 0 .8-1.2 1.2-1.5.4-.3 1.7-1 2-1.8a9.8 9.8 0 011.6 3.5c0 .4-.4 1-1.5 1.6-2 1-2.4 2-2.4 2s1.1-1.2 2.6-1.5c1.2-.2 1.6-.7 1.7-1l.8 2.2.4 2.6a4 4 0 01-.4.2c-.4 0-.9 0-1.4.2l-1.1.7c-.6.4-1.1.8-1 1 0 .2.3-.4 1.1-.8a7.5 7.5 0 012.9-.7c.4 1.4.4 2.6.2 3.6a3 3 0 01-.5-.1c-.3-.1-.7-.4-1.2-.2-.5 0-.8 0-1.1.2-.7.4-1.2.7-1.2 1 0 .2.4-.4 1.3-.7.4-.1 1 0 1.6 0 .4 0 .7.2 1 .3a7 7 0 01-1 3.8c-1-.6-2.4-1-3-1.1-.5-.1 1.7 1.4 2.5 1.8-.7 1.5-1.8 2-1.8 2l-1-1.2c.5.5.4 5.8.4 5.8l-.5-.6c.2-.7-.4-6.5-.9-5.5-.4 1-1.4 1.8-1.4 1.8-1-.3-1.8-.9-2.5-1.7h.4c1.1 0 1.8-1.2 2-1.6.4-.3.5-1.8-.3-.3-.7 1.6-2 1.6-2 1.6l-.3.1c-1.2-.8-1.9-2-2.5-3.3.7.1 1.7-.1 2.3-.6.6-.5 1.5-.7 1.5-.7s-2.1 0-3.1.5c-.5.3-.8.2-1.1 0-1-1.2-1.4-2.7-1.7-4.3 0 0 .4-.5 1-.5h.1l-1-.2h-.3l-.2-1c1.6.3 4-.6 4-.6-3.7-.4-3.4 0-4.1.1a12 12 0 01-.8-4.5h.1c.8.5 4.2.5 3.7 0-.4-.3-1.1 0-2.3 0-.9-.1-1.3-.4-1.5-.5a5.6 5.6 0 01-.3-3.2c2.4.2 4.1.9 2.4 0m32.4 17c2-.8 3.7-1.9 5.1-3 0-.2-1.4-.6-1.4-.6l2.2.3 4.1-2.2H400l2-.6c0-.2-.3-.3-.6-.4l-1 .4.5-.5c-.6-.2-1.3-.4-2.2-.3l-.4.3c-.3.4-1.7 1.4-1.7 1.3l.6-.4c.4-.3 1-1.1 1-1.2h-1.3l-1.4 1.6.2-.7.4-1c-1 0-2.2.1-3.7.5l-.1.1c-.2.2-1.5 2.3-2 2.7-.3.4.8-1.8 1-2.2l.4-.4c-.7 0-1.5.3-2.2.6l-.8 1.6c-.3.7-.7 1.3-.8 1.3l.3-1c.2-.3.4-1.3 1-1.8a9 9 0 00-2.8 1c-.2.1 1.8.9 1.5 1.8-.4 1.4-2.7.6-2.7-.3 0-.6.2-1 .5-1.3l-1.6.7-1.8 1v.3l-.1 1.8-.3-1.8c-1 .5-1.7 1-2.4 1.6l.1.2c.1 0 .3.2.3.5l-.1.7c-.3.5-.4.6-.2 0l-.2-.8-.2-.4a14 14 0 00-2.5 2.2c.4.3 1.2.7 1.3 1 0 .2-1-.3-1.8-.5-1 1-1.4 1.6-1.3 1.7h.8c-2.9 1-3.9 4.1-3.7 4.8h.4c-.3-2.3 3.1-5 3.5-4.3l-.8 1.5c.3.3.2.4.8.5v-.2c0-.6 1-1.4 1.2-1.7.2-.3 1.3-1 .2 0s-1.1 1.7-1.1 1.7l-.1.2c.6.3 1.6.2 2.6 0v-.1c-.2-.3 0-.9.4-1.4l.4-1.1s-.3 2.3-.2 2.4c1-.1 2.2-.6 3.4-1.2 0 0 .3-1.4.4-.9l.2.5v.1l.8-.4c0-.8-.6-1.9-.7-1.9 1.2 1 1.2 1.2 1.3 1.6 1-.4 3.4-1.9 3.3-1.9-.4-.2-1.4-1.7-1-1.7.3 0 .7.4.9 1 0 .4.5.5.7.5 1-.4 1.7-1 2.5-1.5-1-1.2.3-.2.3-.2m-40 1.6c-.6.3-.5 1-.5 1-1.5-.4-2.8-1.1-3.9-1.9 1.3-.4 1.8-1.3 1-.8l-1.5.6-3.1-1.4 1-.3-1.5-.2.5-.5.8.3-.4-.5c.4-.2.9-.5 1.6-.6 0 0 .2 0 .3.2.2.4.3.6.5.7l.7.2-.4-.2c-.3-.2-.7-1-.7-1 .2-.2.5-.3.9-.3l.6.7c.3.6.5.6.5.6l-.2-.6-.3-.9a7 7 0 012.7-.2v.1c.3.1 1.2 2 1.6 2.3.3.2-.6-1.7-.8-2l-.3-.3c.5-.1 1.1 0 1.7.1l.6 1.4c.2.7 1 1.4 1 1.4l-.7-1.2c0-.2-.3-1.1-.7-1.5.8 0 1.4.1 2 .4.2.1.5.5.7 1.3.3 1.2.8 1.8.8 1.8s-.5-1-.5-1.8c0-.6-.2-1-.4-1.2l1.2.4 1.3.7v1l.4.8.4 1-.3-1a4.2 4.2 0 01-.2-1.7c.7.3 1.3.7 1.8 1.2v.2c-.2 0-.3.2-.3.5l.1.6.5 1-.3-1v-.7l.2-.5c.8.5 1.4 1 1.9 1.6l-.6 1.2c0 .3.7-.4 1-.7.7.7 1 1.3 1 1.4l-.7.1c2.2.4 3 3.3 2.9 4-.1 0-.2 0-.3.2.1-2.4-2.4-4.3-2.7-3.7l.7 1.3c-.2.4-.2.5-.7.7v-.2c0-.6-.6-1.2-.8-1.4-.2-.3-1-.8-.2 0 .9.9.8 1.5.8 1.5l.1.1c-.4.4-1.1.5-2 .4h.1c.1-.3 0-.8-.3-1.3s-.3-1-.3-1-.1 1 .2 1.8v.5c-.8.1-1.7-.2-2.6-.5 0 0-.3-.4-.2-.8.1-.9 0-.5 0 0l-.2.5v.1c-.2 0-.4 0-.6-.2.3-.7 0-2.2 0-2.2-.6 1.7-.3 1.7-.3 2a10 10 0 01-2.7-1.2c.4-.3.7-2 .4-1.9-.2.1-.2.5-.3 1.1 0 .5-.3.6-.4.6-.7-.2-1.3-.6-1.9-1 .4-1 1-1.7.2-1.2"/><path fill="#A4B750" d="M385.6 309s1.8.2 1.8 0c.8-1.5 1.2-3.6 1.6-5.3-.5.4-.9.4-.9.4l1-.8.8-4.4-.4.6.4-1.8-.4-.2-.1 1.1v-1c-.3 0-.6.2-.9.8v2l-.2 1v-.7c.2-.5 0-1.9 0-2l-.5.5v1.7l-.1 1.1-.1-1-.2-1.3c-.6.5-1.4 1.3-2.5 2.6v.2c-.2.4-.2 3.3-.5 4-.1.5-.3-2.3-.2-2.9.1-.5.2-.7.1-.8-.6.6-1.4 1.2-2 2l-.1 3s-.6-1.7-.3-2.6c-1.1.8-2.4 2.2-3.2 3.3-.2.3-.1.6 0 1.6l.3 2.3s-.1-1-.5-2c-.3-.6-.5-1-.3-1.4l-1.7 2-1.7 2.8s1 2.4.8 2.6c0 .1-.4-1.5-.6-1.7l-.5-.3c-1 1.5-1.3 2.1-1.7 3.3 0 0 .4 1.8.3 2-.1.2-.5-1.6-.7-1.5-.8 1.8-1.6 4-1.8 5 .8-.7 1.8-1.3 2.2-1.4.3-.1-1.7 1.6-2.4 2.3-.3 1.6.2 2 .2 1.9l1.2-1.4c-.7.6-2.5 6.7-2.4 6.7l.7-.8c-.2-.9 2.5-7.4 2.5-6.2-.1 1 .4 1.7.4 1.7 1-.5 1.8-1 2.6-2 0 0-1.3-1-1.4-1.4 0-.4 1.6 1.2 1.7 1.3 1.3-.9 2.3-2 3.4-3h-.1c-.7 0-2.6-1.4-2.6-1.4s3 .9 3.3.7c1.3-1 2.2-2 3-3.2l-1-.1c-.4-.1-2.3-.7.3-.2h1c.3-.2.6-.6.8-1a4.7 4.7 0 01-2.7-1.2c2.2 1 2.2 1 3 1 .7-1 1.4-2 1.9-3.3-.7 0-2.4-.7-2.4-.7s.9-.1 1.6.2c.5.2.8.1 1 0 .6-.7.7-1.5 1-2.3l-1.8-.4"/><path fill="#619340" d="M338.6 310c-1.8-1.1-4-.5-4-.5-1-3.7-.7-7.3.1-10.4 2.8 2.7 6.6 3.3 4 1.8-2-1-2.7-2.1-3.8-3.2.3-3.7.8-6.7 1.3-8.3.5.4 1.6 2.1 1.6 2.1l-.4-3.7c.6 0 1.2.3 2 .7l-.3 2 1.2-1.4a10 10 0 013.4 3.2l-.6 1c-.9.8-1.3 1.3-1.5 1.7-.2.5-.2 2 0 2.1.2 0 .2-.7.3-1.3a7 7 0 012.5-2.6c.7.3 1.2 1 1.8 1.9-.2.1-.9 1.5-1.7 2.2-1.3 1.1-1.1 1.6-1.1 1.6l1.6-1 2.3-1.5c1.5 1.7 2.9 3.8 4.2 6.8l-.2.3c0 .5-3.8 4.4-4.2 5.5-.2 1 4-2.7 4.5-3.4.4-.7.4-1 .4-1l.1-.1c1.1 1.4 1.9 3 2.4 4.6a19 19 0 01-3 2.6c-1.6 1-2.2 3.4-2 3.7 0 0 1.4-2.1 2-2.6.7-.5 2.8-1.6 3.4-3 1.3 2 2.2 4 2.6 5.9-.1.6-.6 1.5-2.5 2.6-3.1 1.6-4 3.3-4 3.3s1.9-2 4.4-2.5c2-.3 2.6-1 2.7-1.7l1.4 3.7c.4 1.6.5 3 .7 4.4l-.6.2c-.7.1-1.6 0-2.4.5l-1.8 1.1c-1.1.7-1.9 1.3-1.8 1.7.1.2.6-.7 2-1.4a12.6 12.6 0 014.8-1.1c.6 2.3.6 4.3.2 6l-.8-.2c-.5-.2-1.2-.7-2-.4-.7.1-1.3 0-1.8.4-1 .7-2 1.2-2 1.7.2.2.7-.7 2.2-1.2.7-.3 1.6 0 2.6 0a5 5 0 011.8.4c-.1 2.7-.7 4.8-1.8 6.3-1.7-.9-4-1.7-4.9-1.8-.9-.1 2.8 2.4 4.2 3.1-1.3 2.5-3 3.2-3 3.2l-1.6-2c.7 1 .5 9.7.5 9.7l-.9-1c.5-1.1-.6-10.7-1.4-9-.7 1.6-2.3 3-2.3 3-1.6-.7-3-1.5-4.1-3h.6c1.8 0 3-2 3.4-2.6.5-.6.7-3-.5-.4-1.3 2.6-3.5 2.5-3.5 2.5l-.4.3c-2-1.4-3.1-3.4-4.2-5.6h.1c1.1.3 2.7-.2 3.8-1 1-.9 2.4-1.1 2.4-1.1s-3.5-.1-5.2.9c-.7.4-1.3.2-1.8-.1-1.5-2-2.2-4.5-2.7-7.1 0-.1.6-.9 1.7-.8 3.1 0 1.8-.1 0-.2l-1.7-.1h-.3c-.3-.5-.4-1.1-.5-1.8 2.7.5 6.6-1 6.6-1-6-.6-5.6 0-6.7.2-.9-2.1-1.3-4.5-1.3-7.4h.1c1.4.7 7 .7 6.3 0-.8-.6-2-.2-4-.2a4 4 0 01-2.5-.8 9.4 9.4 0 01-.4-5.2c4 .3 6.8 1.4 4-.2m53.9 28.5c3.2-1.4 6-3.2 8.5-5 0-.4-2.3-1-2.3-1l3.5.4 7-3.7h-2.4l3.4-1-1.1-.6-1.7.7.9-1c-1-.2-2.1-.4-3.7-.4l-.7.6c-.5.7-2.7 2.2-2.8 2l1-.5c.7-.5 1.6-1.9 1.6-2.1-.5-.2-1.3-.2-2-.1l-2.5 2.7.5-1.1c0-.3.6-1.5.6-1.6-1.7 0-3.7.2-6.1.8l-.2.2c-.4.3-2.5 3.8-3.3 4.5-.6.6 1.2-3.1 1.7-3.6l.6-.7c-1.2 0-2.5.4-3.7 1-.2.2-.9 1.4-1.3 2.6-.5 1.2-1.1 2.1-1.4 2.1l.6-1.6c.2-.6.6-2.1 1.5-3-1.7.3-3.1.8-4.5 1.5-.4.3-1 1-1.4 2.5-.7 2.3-.7 1.7-.7.2 0-1.1.4-1.8.8-2.1l-2.6 1-3 1.8v.4l-.2 3-.4-3c-1.7.8-3 1.7-4 2.6 0 .2 0 .3.2.4.1.1.5.3.4.8 0 .5 0 .7-.2 1.2-.4.8-.6 1-.3 0 .1-.4-.1-.8-.2-1.3l-.4-.7a23.4 23.4 0 00-4.2 3.6c.7.5 2 1.3 2.2 1.7 0 .4-1.6-.5-3-.8-1.7 1.6-2.3 2.8-2.2 2.8h1.4c-4.8 1.6-6.5 6.9-6.2 8l.6.2c-.4-4 5.3-8.4 5.9-7.4l-1.4 2.5c.5.6.4.8 1.4.9v-.3c.1-1 1.5-2.4 2-2.9.4-.5 2.1-1.6.3.1-1.9 1.7-1.8 2.8-1.8 2.8l-.2.3c1 .5 2.6.3 4.4-.1-.3-.5 0-1.5.6-2.5.5-.9.6-1.7.6-1.7s-.5 3.8-.2 4c1.7-.2 3.6-1 5.7-2 0-.1.3-2.3.6-1.5l.2.9v.1c.4-.1 1-.3 1.5-.7a9 9 0 00-1.2-3.1c1.9 1.7 2 1.9 2 2.7 1.8-.7 5.7-3.2 5.7-3.2-.7-.3-2.4-2.9-1.9-2.8.6 0 1.3.6 1.6 1.6.2.7.9.7 1.1.8 1.6-.7 3-1.6 4.2-2.5-1.5-2 .6-.4.6-.4"/><path fill="#619340" d="M327 341.2c-.8.6-.7 1.8-.7 1.9a27 27 0 01-6.4-3.3c2.1-.6 3-2.3 1.7-1.4-1 .6-1.7.7-2.6 1L314 337c.3-.2 1.7-.5 1.7-.5l-2.5-.3.8-.8 1.2.4-.6-.8a7 7 0 012.7-1c.1 0 .3.1.5.4.4.5.5.8.8 1 .2.2 1.2.6 1.3.5l-.7-.5a4.1 4.1 0 01-1.2-1.7c.3-.2.9-.3 1.4-.4.1 0 .8.7 1.1 1.2.4 1 .8 1 .8 1l-.4-1c0-.4-.4-1.4-.5-1.5 1.3-.3 2.8-.5 4.6-.3l.1.2c.3.1 2 3.2 2.5 3.7.5.4-1-2.8-1.3-3.2l-.5-.5v-.1c1-.1 1.8 0 2.8.3l1 2.3c.3 1.1 1.6 2.2 1.7 2.2 0 0-1-1.4-1.1-1.9-.2-.5-.6-1.9-1.2-2.6 1.2 0 2.3.2 3.3.7.3.2.7.8 1.1 2.1.6 2.2 1.4 3.2 1.4 3.2a8 8 0 01-1-3.1c0-1-.2-1.7-.5-2l2 .7 2.2 1.1v.4l.1 1.3.5 1.4c.2.7.5 1.3.7 1.4l-.6-1.4a7.1 7.1 0 01-.3-2.8c1.2.5 2.2 1.1 3 1.8l-.1.4c-.1.2-.4.4-.3.8l.1 1.1c.3.8.6 1.4.8 1.5.1 0-.3-.5-.5-1.5-.1-.4 0-.7.1-1.3 0-.3.2-.5.3-.7a14 14 0 013.1 2.7 6 6 0 00-1 2c0 .4 1.3-.8 1.7-1.3a6.2 6.2 0 011.6 2.3l-1 .3c3.5.7 4.9 5.5 4.7 6.6-.2 0-.3.2-.4.3.2-4-4-7.2-4.5-6l1 2.1c-.3.7-.2.8-1 1v-.2c0-1-1.1-2-1.4-2.4-.4-.4-1.7-1.2-.3.1 1.4 1.4 1.4 2.4 1.4 2.4l.1.3c-.7.6-2 .7-3.2.6.2-.5 0-1.4-.5-2.2-.4-.8-.5-1.6-.5-1.6s-.2 1.8.3 2.9c.3.5.1.7 0 .9-1.3.2-2.7-.3-4.3-1 0 0-.4-.5-.3-1.1.2-1.5 0-.9-.1 0l-.2.8v.1c-.3 0-.7-.1-1-.4.4-1.1-.2-3.6-.2-3.6-.8 2.8-.3 2.8-.3 3.4-1.3-.3-2.8-1-4.5-2 .6-.6 1-3.3.7-3.2-.5.2-.4.9-.6 1.8-.1.8-.5 1-.7 1-1.2-.3-2.1-1-3.1-1.6.7-1.8 1.6-2.9.3-2m57-26.3s3.1.3 3.2 0c1.2-2.6 2-6 2.5-8.9-.7.6-1.4.7-1.4.7l1.5-1.2c.8-3.2 1.3-5.8 1.5-7.5-.2.1-.8 1.1-.8 1.1l.8-3c-.2-.3-.4-.4-.7-.4 0 .7 0 1.3-.2 2l-.1-1.9c-.4 0-.8.4-1.3 1.4V300.6c0 .5-.4 2-.5 1.9l.2-1.3c.2-1 0-3.2 0-3.5-.3 0-.6.5-1 1v2.8l-.1 1.9-.2-1.6-.4-2.4-4 4.4-.1.3c-.2.7-.3 5.6-.7 6.6-.3 1-.5-3.8-.4-4.7l.2-1.3c-1.1.9-2.3 2-3.5 3.4 0 .4.2 4.7-.1 4.9 0 0-1-2.9-.5-4.4-1.9 1.4-4 3.7-5.3 5.5-.3.5-.2 1 0 2.6l.6 4s-.3-1.8-1-3.4c-.4-1-.7-1.7-.4-2.4l-2.9 3.5-2.8 4.6s1.7 3.9 1.4 4.3c-.2.2-.7-2.4-1.1-2.8l-.8-.5c-1.6 2.5-2.1 3.5-2.9 5.4.2 0 .8 3 .6 3.5-.2.2-.8-2.9-1.1-2.6a45 45 0 00-3 8.3 12 12 0 013.6-2.4c.5-.1-2.9 2.8-4 3.8-.6 2.7.3 3.3.4 3.2l1.9-2.3c-1 1-4.2 11.1-4 11.2l1.2-1.4c-.2-1.4 4.2-12.2 4.2-10.4-.2 1.8.7 3 .7 3 1.5-.8 3-1.9 4.3-3.3 0 0-2.2-1.9-2.3-2.5-.1-.6 2.7 2 2.7 2.2 2.2-1.4 3.9-3.2 5.7-5h-.2c-1 .1-4.2-2.3-4.2-2.3s4.9 1.5 5.5 1.2c2.1-1.5 3.6-3.4 5-5.3 0 0-.7 0-1.6-.3-.8-.1-4-1 .3-.2h1.8c.4-.3 1-1 1.2-1.6-2.5-.1-5.8-2.1-5.7-2.1 3.7 1.7 5 1.6 6 1.6 1.5-1.5 2.5-3.2 3.4-5.5h-.1c-1 .2-3.9-1-3.9-1s1.5-.3 2.6.2c.9.4 1.4.2 1.7.1 1-1.2 1.3-2.6 1.6-4l-3-.5m-226.2-5.2c.9-.9 1.2-2.1.7-3.3a13.9 13.9 0 011.6-13c.7-1 .8-2.3.3-3.4a12.6 12.6 0 0111-18.6 12.6 12.6 0 0111.3 18.6c-.6 1-.5 2.4.2 3.4a13.9 13.9 0 011.6 13c-.4 1.2-.1 2.4.7 3.3a19 19 0 11-27.4 0"/><path fill="#316C35" d="M170.9 339.7a69.9 69.9 0 00-11.8-13.7 78.4 78.4 0 004.5 4.2 84.3 84.3 0 017.3 8.7l-.3-7.1-.2-4.5v-1a57.4 57.4 0 01-12.8-12.8v-.1a29.8 29.8 0 004.8 5.8 58.4 58.4 0 008 6.5l-.1-.6V321h-.1v-4a82.6 82.6 0 01-10-9.8l-1.8-2.7a29 29 0 005.1 6 74 74 0 006.6 5.9v-6.8a71.3 71.3 0 01-8-11 19 19 0 01-1.6-4.3 19 19 0 001.7 4.2 38.9 38.9 0 005.3 7.5l2.5 3v-3.7l.1-6a87.5 87.5 0 01-5.8-10c-.5-1-1-2.3-1.3-3.5.3 1.2.9 2.4 1.4 3.5a85.5 85.5 0 005.7 9.2v-2l.4-7.2a57.8 57.8 0 01-3.7-6.2l-.8-2.3a29.9 29.9 0 002 4.3l2.5 3.7c0-2 .2-3.9.3-5.8a24.9 24.9 0 01-3.1-5.6 25.3 25.3 0 003.2 5l.3-3.5h.2l-.3 5.2c.9-.8 1.7-1.7 2.5-2.7.8-1 1.5-2 2-3.3a21.3 21.3 0 01-4.4 6.4h-.1c-.2 2.5-.3 5-.3 7.6l.8-.8 1-1.4 1.8-3a78 78 0 00-2.5 4.5c-.3.4-.7.8-1.2 1.1v4l-.1 8c.6-.4 1.2-1 1.7-1.6l1.6-2.2c1-1.5 1.9-3.2 2.6-4.9l1-2.6.8-2.6.7-2.6.6-2.7-.5 2.7-.7 2.7-.7 2.6-1 2.6a29.9 29.9 0 01-4.1 7.3 11 11 0 01-2 1.9V312.4a32.3 32.3 0 006.9-9.4 65.4 65.4 0 004-9.4 65.3 65.3 0 01-6.9 14.7 32 32 0 01-4 4.7v1.1l.2 6.2a24 24 0 001.7-2.1 89.7 89.7 0 005.9-8.7 98.5 98.5 0 01-7.4 11.3l-.1.1v4.2l.2 2.2v1l.2-.2a16.8 16.8 0 001.9-1.9 62.8 62.8 0 006.5-8.1 75.3 75.3 0 01-8.4 10.6h-.2l.2 3 .4 7.8c.8-2 1.7-3.8 2.6-5.6 1.2-2.1 7.1-9.8 8.5-11.8-1.3 2-7 9.8-8.2 12a72 72 0 00-2.9 6.4v1.1c2-2.2 4.3-4.2 6.6-6.1 2.4-2 8.2-6.4 10.8-8.3l-10.7 8.4c-2.4 2.1-4.6 4.3-6.7 6.7 0 6.6 0 51.6-.2 60.7h-1c.2-9.7.6-56.5.5-60.6a17.7 17.7 0 00-8.2-4.2l-1.6-.3-.8-.1h.8l1.7.3a21.5 21.5 0 016.4 2.5c.6.3 1.2.8 1.7 1.2v-1.2l-.1-1z"/><path fill="#A4B750" d="M157.5 369.2a4.4 4.4 0 00-3.1-.3c-.8-3-.6-5.7 0-8.1 2.3 2 5.2 2.5 3.2 1.4-1.5-.9-2.2-1.7-3-2.5.2-2.9.6-5.2 1-6.5.4.3 1.3 1.7 1.3 1.7l-.3-2.9c.4 0 1 .2 1.5.5l-.3 1.6 1-1.1c.9.5 1.8 1.3 2.6 2.5l-.4.7c-.7.7-1 1-1.2 1.4-.1.3-.2 1.6 0 1.6s.1-.5.3-1c.2-.7 1.6-2 1.9-2 .5.2 1 .8 1.4 1.4-.2.2-.7 1.2-1.3 1.8-1 .9-.9 1.2-.9 1.2l1.3-.8 1.7-1.1a19 19 0 013.3 5.2l-.1.3c0 .4-3 3.4-3.3 4.3-.2.7 3.1-2.1 3.5-2.7l.3-.8h.1c.9 1 1.4 2.2 1.8 3.5a15 15 0 01-2.3 2c-1.2.8-1.7 2.7-1.5 2.9 0 0 1-1.6 1.6-2 .4-.4 2.1-1.3 2.5-2.3 1 1.6 1.8 3 2 4.6 0 .4-.4 1.2-1.9 2-2.4 1.3-3 2.6-3 2.6s1.4-1.6 3.4-2c1.4-.3 2-.8 2-1.3.5 1 .9 2 1.1 2.9l.6 3.4-.5.1c-.5.1-1.2.1-1.8.4l-1.5.9c-.8.5-1.4 1-1.4 1.3.1.2-.8-.5.3-1.1.5-.3 2.5-.5 3.4-.7l1.6-.2c.5 1.9.5 3.4.2 4.7-.2 0-.4 0-.6-.2-.4 0-1-.4-1.6-.3-.6.2-1 .1-1.4.4-.8.5-1.5.9-1.5 1.3 0 .1.5-.6 1.7-1 .5-.2 1.2 0 2 0 .5.1 1 .2 1.3.4 0 2-.5 3.7-1.3 4.9a15 15 0 00-3.8-1.4c-.7-.1 2.2 1.8 3.2 2.4-1 1.9-2.3 2.5-2.4 2.4l-1.1-1.5c.5.7.4 7.6.4 7.6l-.7-.8c.3-1-.5-8.4-1.1-7a7.6 7.6 0 01-1.8 2.2 7.5 7.5 0 01-3.2-2.2h.4c1.5 0 2.3-1.6 2.7-2 .4-.5.6-2.4-.4-.4s-2.7 2-2.7 2l-.3.2c-1.5-1-2.5-2.6-3.3-4.4h.1c.9.3 2 0 3-.7.7-.7 1.8-.9 1.8-.9s-2.7 0-4 .7c-.5.3-1 .2-1.4 0a13 13 0 01-2.1-5.6s.4-.6 1.3-.6c2.4 0 1.4 0 0-.2h-1.4-.2a4 4 0 01-.3-1.4c2 .4 5.1-.8 5.1-.8-4.7-.5-4.3 0-5.3.2-.6-1.7-1-3.6-1-5.8h.2c1 .5 5.4.5 4.8 0-.6-.4-1.5-.2-3-.2-1.1 0-1.7-.4-2-.6a7.3 7.3 0 01-.3-4c3 .3 5.3 1 3.1-.2m41.6 22.2c2.4-1 4.7-2.5 6.6-3.9 0-.3-1.8-.8-1.8-.8l2.7.3 5.4-2.8h-1.8l2.6-.8a2 2 0 00-.9-.5l-1.3.6.7-.8a8 8 0 00-2.8-.3c-.2 0-.4.2-.5.5-.5.5-2.2 1.6-2.2 1.6l.7-.5c.6-.4 1.2-1.5 1.2-1.6-.3-.2-1-.1-1.5-.1l-2 2.1s.4-.6.4-.9l.5-1.2c-1.3 0-2.9.1-4.7.7l-.2.1c-.3.2-2 3-2.6 3.5-.4.4 1-2.4 1.4-2.9l.5-.5c-1 0-2 .3-3 .7 0 .3-.6 1.2-1 2.1-.3 1-.8 1.7-1 1.7l.4-1.3c.2-.4.5-1.7 1.2-2.3-1.3.2-2.4.6-3.5 1.2-.3.2-.7.7-1 1.9-.6 1.8-.6 1.3-.6.1 0-.8.3-1.3.6-1.6-.7.3-1.4.5-2 .9l-2.4 1.3v.3l-.1 2.4-.4-2.4c-1.2.6-2.2 1.3-3 2v.3c.2.1.5.3.4.7l-.1.8c-.3.7-.4.9-.3.1.1-.3 0-.6-.1-1a1 1 0 00-.3-.5c-1.4 1-2.5 1.8-3.3 2.7.6.4 1.6 1 1.7 1.3 0 .4-1.2-.3-2.3-.6-1.4 1.3-1.8 2.2-1.7 2.2h1c-3.7 1.3-5 5.4-4.7 6.2l.4.1c-.3-3 4.1-6.4 4.6-5.7l-1 2c.3.5.2.6 1 .7v-.3c.1-.8 1.2-1.8 1.5-2.2.3-.4 1.7-1.3.3 0-1.5 1.4-1.4 2.3-1.4 2.3l-.2.2c.8.4 2 .2 3.5-.1-.3-.4 0-1.2.4-2 .4-.6.5-1.3.5-1.3s-.4 3-.1 3a13 13 0 004.3-1.5s.3-1.7.5-1l.2.6v.1l1.1-.5a7 7 0 00-.8-2.5c1.4 1.4 1.4 1.5 1.5 2.1 1.4-.5 4.4-2.4 4.4-2.4a14 14 0 01-3-2.3c.4 0 2.5.6 2.8 1.3.1.5.7.6.9.6 1.2-.5 2.2-1.2 3.2-2-1.2-1.4.5-.2.5-.2m-51.6 2.1c-.7.4-.6 1.4-.6 1.4a21 21 0 01-5-2.5c1.7-.5 2.4-1.8 1.4-1.1-.7.5-1.4.5-2 .7l-4-1.7a11 11 0 011.3-.4l-2-.2.7-.6 1 .3-.5-.6c.5-.4 1.2-.7 2-.9.2 0 .3.2.4.4l.7.8 1 .3-.6-.3c-.4-.3-1-1.2-1-1.3l1.2-.4.8 1c.4.7.7.7.7.7s-.3-.5-.3-.8l-.4-1a9 9 0 013.5-.3h.1c.3.2 1.5 2.6 2 3 .3.3-.8-2.2-1-2.5l-.4-.4v-.1c.7 0 1.4 0 2.1.2l.8 1.8c.3 1 1.2 1.8 1.4 1.8l-1-1.5c0-.4-.3-1.5-.8-2 1 0 1.8.2 2.5.5.3.2.6.6.9 1.7.4 1.6 1 2.4 1 2.4s-.6-1.2-.6-2.4c0-.8-.3-1.3-.5-1.5l1.5.5 1.7.9v.3l.1 1 .4 1c.2.7.4 1.1.6 1.2 0 0-.3-.4-.5-1.2a5.6 5.6 0 01-.2-2.1 8 8 0 012.3 1.4v.3c-.2.1-.4.3-.3.7l.1.8c.2.6.4 1 .6 1.1.1 0-.3-.4-.4-1l.1-1.1.2-.6a11 11 0 012.4 2.1l-.8 1.5c0 .4 1-.5 1.3-1 1 1 1.4 1.8 1.3 1.9l-.8.2c2.8.5 3.8 4.2 3.7 5.1l-.4.2c.2-3-3.1-5.5-3.4-4.7l.8 1.7c-.3.5-.2.7-.8.9v-.3c0-.7-.9-1.5-1.1-1.8-.3-.4-1.3-1-.2 0 1 1.1 1 2 1 2l.2.1c-.6.6-1.6.6-2.6.5.2-.4 0-1-.3-1.7-.4-.6-.5-1.2-.5-1.2s0 1.3.3 2.2c.2.4.1.6 0 .7-1 .1-2.1-.2-3.3-.7 0 0-.4-.5-.3-1 .2-1.1 0-.6 0 0l-.2.7v.1a3 3 0 01-.9-.3c.4-1 0-2.8 0-2.8-.6 2.1-.3 2.2-.3 2.7a13 13 0 01-3.5-1.7c.5-.4.9-2.5.5-2.4-.3.1-.2.7-.4 1.4 0 .6-.4.7-.5.8-1-.3-1.7-.8-2.5-1.3.6-1.4 1.3-2.2.3-1.6"/><path fill="#A4B750" d="M190.9 373.1s2.4.3 2.4 0c1-2 1.5-4.7 2-6.9-.6.5-1.2.6-1.2.6l1.2-1c.6-2.4 1-4.5 1.2-5.8a5 5 0 00-.6.8l.6-2.3c-.2-.2-.3-.3-.5-.3l-.2 1.5v-1.4c-.4 0-.7.3-1.1 1v2.6c0 .4-.3 1.6-.4 1.5l.2-1c.1-.7 0-2.5-.1-2.7-.2 0-.4.4-.7.7v2.2l-.1 1.5s0-.9-.2-1.3l-.2-1.8a49.3 49.3 0 00-3.2 3.7c-.2.5-.3 4.3-.6 5-.2.8-.4-2.8-.3-3.6l.2-1c-1 .7-1.8 1.6-2.7 2.6 0 .4 0 3.7-.2 3.9 0 0-.7-2.3-.3-3.4-1.5 1-3.1 2.8-4.1 4.2-.3.4-.2.8 0 2 .3 2-.6 3.1-.6 3.1s.8-1.4.3-2.6c-.4-.8-.6-1.3-.4-1.8-.8.9-1.6 1.8-2.2 2.7l-2.2 3.5s1.3 3 1 3.4c0 .2-.4-2-.8-2.2l-.6-.4c-1.2 2-1.6 2.7-2.2 4.2a7 7 0 01.4 2.7c-.1.2-.6-2.2-.9-2a35 35 0 00-2.3 6.5c1-1 2.4-1.8 2.8-1.9.5-.1-2.2 2.1-3 3-.5 2 .2 2.5.3 2.5l1.4-1.9c-.8.8-3.2 8.7-3 8.8l.8-1.1c-.1-1.1 3.3-9.6 3.3-8-.1 1.3.5 2.2.5 2.2 1.2-.6 2.3-1.4 3.4-2.5 0 0-1.7-1.5-1.8-2 0-.4 2 1.6 2.1 1.7 1.7-1 3-2.5 4.4-3.9-1 .1-3.4-1.8-3.4-1.8s3.8 1.2 4.3 1c1.6-1.2 2.8-2.6 3.9-4.1l-1.3-.3c-.6 0-3-.8.3-.2.4.1.6.2 1.4 0 .3-.2.7-.7.9-1.2a6 6 0 01-3.5-1.6c3 1.3 3 1.3 3.8 1.2 1-1.1 2-2.5 2.5-4.2-.8.1-3-.8-3-.8s1.1-.2 2 .2c.7.3 1.1.1 1.3 0 .8-1 1-2 1.2-3l-2.2-.5"/><path fill="#A19B8E" d="M154.4 291.7h232l-61.7-28H216.1z"/><path fill="#7F786A" d="M154.4 291.7h232l-40 9.8h-152z"/><mask id="b" fill="#fff"><use xlink:href="#a"/></mask><path fill="#A19B8E" d="M194.4 322.4h152v-21h-152zm-62 26.5h276l-62-26.5h-152z" mask="url(#b)"/><path fill="#7F786A" d="M132.5 349h275.9l-44 11.7h-188z" mask="url(#b)"/><path fill="#A19B8E" d="M176.4 402.2h188v-41.5h-188zm5-164.6h178l-51.7-23h-74.5z" mask="url(#b)"/><path fill="#7F786A" d="M181.4 237.6h178l-34.7 8.5H216.1z" mask="url(#b)"/><path fill="#A19B8E" d="M216.1 263.7h108.6v-17.6H216.1zm85.6-41.3h3.1v-13h-3z" mask="url(#b)"/><path fill="#57575F" d="M303.3 197s6.3 10.6 0 10.6 0-10.7 0-10.7" mask="url(#b)"/><path fill="#57575F" d="M301.5 207.2h3.5a1.3 1.3 0 010 2.6h-3.5c-.7 0-1.2-.6-1.2-1.3 0-.7.5-1.3 1.2-1.3" mask="url(#b)"/><path fill="#A19B8E" d="M288.6 222.4h3.1v-13h-3.1z" mask="url(#b)"/><path fill="#57575F" d="M290.1 197s6.3 10.6 0 10.6 0-10.7 0-10.7" mask="url(#b)"/><path fill="#57575F" d="M288.4 207.2h3.5a1.3 1.3 0 010 2.6h-3.5c-.7 0-1.3-.6-1.3-1.3 0-.7.6-1.3 1.3-1.3" mask="url(#b)"/><path fill="#A19B8E" d="M275.4 222.4h3.2v-13h-3.2z" mask="url(#b)"/><path fill="#57575F" d="M277 197s6.3 10.6 0 10.6 0-10.7 0-10.7" mask="url(#b)"/><path fill="#57575F" d="M275.3 207.2h3.4a1.3 1.3 0 010 2.6h-3.4c-.8 0-1.3-.6-1.3-1.3 0-.7.5-1.3 1.3-1.3" mask="url(#b)"/><path fill="#A19B8E" d="M262.3 222.4h3.1v-13h-3.1z" mask="url(#b)"/><path fill="#57575F" d="M263.8 197s6.3 10.6 0 10.6c-6.2 0 0-10.7 0-10.7" mask="url(#b)"/><path fill="#57575F" d="M262.1 207.2h3.5a1.3 1.3 0 010 2.6H262c-.7 0-1.3-.6-1.3-1.3 0-.7.6-1.3 1.3-1.3" mask="url(#b)"/><path fill="#A19B8E" d="M249.1 222.4h3.2v-13H249z" mask="url(#b)"/><path fill="#57575F" d="M250.7 197s6.3 10.6 0 10.6 0-10.7 0-10.7" mask="url(#b)"/><path fill="#57575F" d="M249 207.2h3.4a1.3 1.3 0 010 2.6H249c-.8 0-1.3-.6-1.3-1.3 0-.7.5-1.3 1.3-1.3" mask="url(#b)"/><path fill="#A19B8E" d="M236 222.4h3.1v-13H236z" mask="url(#b)"/><path fill="#57575F" d="M237.6 197s6.2 10.6 0 10.6 0-10.7 0-10.7" mask="url(#b)"/><path fill="#57575F" d="M235.8 207.2h3.5a1.3 1.3 0 010 2.6h-3.5c-.7 0-1.3-.6-1.3-1.3 0-.7.6-1.3 1.3-1.3M345 384.7h11.7v-16.3H345zm-18.8 0H338v-16.3h-11.7zm-18.8 0h11.7v-16.3h-11.7zm-18.8 0h11.7v-16.3h-11.7zm-104.4 0h11.6v-16.3h-11.6zm18.8 0h11.6v-16.3H203zm18.8 0h11.6v-16.3h-11.6zm18.8 0h11.6v-16.3h-11.6zm18.9 17.5h21.9v-34.8h-22zm74-84.1h8.2v-11.6h-8.3zm-16.9 0h8.3v-11.6h-8.3zm-16.8 0h8.4v-11.6h-8.4zm-16.7 0h8.3v-11.6H283zm-16.8 0h8.3v-11.6h-8.3zm-16.8 0h8.3v-11.6h-8.3zm-16.8 0h8.3v-11.6h-8.3zm-16.8 0h8.3v-11.6H216zm-16.8 0h8.3v-11.6h-8.3zM314 260.6h7.9v-11h-7.9zm-15.8 0h7.9v-11H298zm-15.8 0h7.8v-11h-7.8zm-15.8 0h7.8v-11h-7.8zm-15.8 0h7.8v-11h-7.8zm-15.8 0h7.8v-11H235zm-15.8 0h7.8v-11h-7.8zm438.9 132v9.6M229.7 282.3l4-10 3.9 10h.1l-4-10.3-4.2 10.3z" mask="url(#b)"/><path fill="#E59C28" d="M233.6 272.2l2.1 11.9h-4.1zm-3.6 23.4h7.2v-4.5H230z" mask="url(#b)"/><path fill="#FFAF12" d="M230 295.6h7.2v-1.3H230z" mask="url(#b)"/><path fill="#E59C28" d="M228.8 299.5h9.6V295h-9.6z" mask="url(#b)"/><path fill="#FFAF12" d="M228.8 299.5h9.6v-1.4h-9.6z" mask="url(#b)"/><path fill="#E59C28" d="M228.2 303.6H239V299h-11z" mask="url(#b)"/><path fill="#FFAF12" d="M228.2 303.6H239v-1.4h-11z" mask="url(#b)"/><path fill="#E59C28" d="M227.2 307.7H240V303h-12.8z" mask="url(#b)"/><path fill="#FFAF12" d="M227.2 307.7H240v-1.4h-12.8z" mask="url(#b)"/><path fill="#E59C28" d="M226.3 311.7H241v-4.5h-14.6z" mask="url(#b)"/><path fill="#FFAF12" d="M226.3 311.7H241v-1.3h-14.6z" mask="url(#b)"/><path fill="#E59C28" d="M225.4 315.6h16.5v-4.5h-16.5z" mask="url(#b)"/><path fill="#FFAF12" d="M225.4 315.6h16.5v-1.3h-16.5z" mask="url(#b)"/><path fill="#E59C28" d="M224.3 319.7H243v-4.5h-18.7z" mask="url(#b)"/><path fill="#FFAF12" d="M224.3 319.7H243v-1.3h-18.7z" mask="url(#b)"/><path fill="#E59C28" d="M223.2 323.8H244v-4.5h-20.8z" mask="url(#b)"/><path fill="#FFAF12" d="M223.2 323.8H244v-1.4h-20.8z" mask="url(#b)"/><path fill="#E59C28" d="M222.2 327.9H245v-4.5h-23z" mask="url(#b)"/><path fill="#FFAF12" d="M222.2 327.9H245v-1.4h-23z" mask="url(#b)"/><path fill="#E59C28" d="M221.4 350.2h24.5V335h-24.5zm0-19h24.5v-3.6h-24.5z" mask="url(#b)"/><path fill="#FFAF12" d="M221.4 336.8h24.5V335h-24.5z" mask="url(#b)"/><path fill="#FFF4DD" d="M221.5 346.7h24.2c16.4 6.4 37.5 21 37.5 37.8H184c0-16.9 21-31.4 37.5-37.8" mask="url(#b)"/><path fill="#F4E6C6" d="M233.6 375.8a152 152 0 0044.5-5.8c3.2 4.5 5.1 9.4 5.1 14.5H184c0-5 2-10 5.1-14.5 11 3.6 27 5.8 44.5 5.8" mask="url(#b)"/><path fill="#FFF4DD" d="M173 388.8h121.3v-5.3H173z" mask="url(#b)"/><path fill="#F4E6C6" d="M167 393.7h133.2v-5.3H167z" mask="url(#b)"/><path fill="#FFF4DD" d="M156.8 402.2h153.7v-9.3H156.8z" mask="url(#b)"/><path fill="#7F786A" d="M217.5 402.2h32.3v-9.3h-32.3z" mask="url(#b)"/><path fill="#F4E6C6" d="M221.9 402.2h23.5v-9.3h-23.5z" mask="url(#b)"/><path fill="#7F786A" d="M221.9 395.4h23.5v-1h-23.5zm0 2.7h23.5v-1h-23.5zm0 2.7h23.5v-1h-23.5z" mask="url(#b)"/><path fill="#A19B8E" d="M219.5 335.7h28.3v-5.2h-28.3z" mask="url(#b)"/><path fill="#7F786A" d="M219.5 332.1h28.3v-.6h-28.3z" mask="url(#b)"/><path fill="#57575F" d="M219.5 334.1h28.3V333h-28.3z" mask="url(#b)"/><path fill="#A19B8E" d="M228.3 291.6H239v-10.3h-10.6z" mask="url(#b)"/><path fill="#7F786A" d="M228.3 289.9H239v-3h-10.6z" mask="url(#b)"/><path fill="#57575F" d="M228.3 286H239v-.6h-10.6zm0 5H239v-.5h-10.6zm0-6.7H239v-2.1h-10.6z" mask="url(#b)"/><path fill="#E59C28" d="M423.6 60l-3-4.7 6.6-4L430 56z" mask="url(#b)"/><path fill="#FFAF12" d="M427.9 66.8l-3-4.6 6.5-4.1 3 4.6z" mask="url(#b)"/><path fill="#E59C28" d="M432.3 73.6l-3-4.7 6.3-4 3 4.5z" mask="url(#b)"/><path fill="#F4E6C6" d="M436.7 80.3l-3-4.6 6.3-4.2 3 4.6z" mask="url(#b)"/><path fill="#E59C28" d="M441.4 87.4l-3-4.6 6.3-4.3 3 4.6z" mask="url(#b)"/><path fill="#FFAF12" d="M446 94l-3.2-4.5 6.3-4.3 3.1 4.5z" mask="url(#b)"/><path fill="#E59C28" d="M450.5 100.6l-3.1-4.5 6.2-4.3 3.2 4.5z" mask="url(#b)"/><path fill="#F4E6C6" d="M455.1 107.2l-3.2-4.5 6.3-4.4 3.1 4.5z" mask="url(#b)"/><path fill="#E59C28" d="M460 114.2l-3.2-4.6 6.3-4.4 3.2 4.5z" mask="url(#b)"/><path fill="#FFAF12" d="M464.8 120.7l-3.3-4.5 6.2-4.5 3.2 4.5z" mask="url(#b)"/><path fill="#E59C28" d="M469.5 127.2l-3.3-4.5 6.2-4.5 3.2 4.4z" mask="url(#b)"/><path fill="#F4E6C6" d="M474.3 133.6l-3.3-4.4 6.1-4.6 3.3 4.5z" mask="url(#b)"/><path fill="#E59C28" d="M479.4 140.4L476 136l6.1-4.6 3.4 4.4z" mask="url(#b)"/><path fill="#FFAF12" d="M484.2 146.8l-3.3-4.4 6-4.6 3.4 4.4z" mask="url(#b)"/><path fill="#E59C28" d="M489.1 153.2l-3.4-4.4 6-4.6 3.5 4.3z" mask="url(#b)"/><path fill="#F4E6C6" d="M494 159.5l-3.3-4.3 6-4.7 3.4 4.3z" mask="url(#b)"/><path fill="#E59C28" d="M499.3 166.2L496 162l6-4.7 3.4 4.3z" mask="url(#b)"/><path fill="#FFAF12" d="M504.3 172.5l-3.4-4.3 6-4.8 3.4 4.3z" mask="url(#b)"/><path fill="#E59C28" d="M509.4 178.7l-3.5-4.3 6-4.8c1 1.5 2.2 2.9 3.4 4.3l-6 4.8z" mask="url(#b)"/><path fill="#F4E6C6" d="M514.5 185l-3.5-4.3 5.9-4.9 3.5 4.3-6 4.9z" mask="url(#b)"/><path fill="#E59C28" d="M520 191.5c-1.3-1.4-2.5-2.8-3.6-4.3l5.8-4.8a463 463 0 003.6 4.2l-5.9 5z" mask="url(#b)"/><path fill="#FFAF12" d="M525 197.7l-3.5-4.3 5.8-4.9 3.6 4.2-5.8 5z" mask="url(#b)"/><path fill="#E59C28" d="M530.3 203.8l-3.6-4.2 5.8-5 3.6 4.2z" mask="url(#b)"/><path fill="#F4E6C6" d="M535.5 209.9l-3.6-4.2 5.8-5 3.6 4.2z" mask="url(#b)"/><path fill="#E59C28" d="M541.1 216.3l-3.7-4.2 5.8-5 3.6 4.2z" mask="url(#b)"/><path fill="#FFAF12" d="M546.4 222.3l-3.7-4.1 5.8-5 3.6 4z" mask="url(#b)"/><path fill="#E59C28" d="M551.8 228.3l-3.7-4.1 5.6-5.1a422 422 0 003.7 4.1l-5.6 5.1z" mask="url(#b)"/><path fill="#F4E6C6" d="M557.2 234.3l-3.8-4.2 5.7-5 3.7 4z" mask="url(#b)"/><path fill="#E59C28" d="M563 240.5l-3.8-4 5.6-5.2 3.7 4z" mask="url(#b)"/><path fill="#FFAF12" d="M568.4 246.4l-3.8-4 5.6-5.2 3.7 4z" mask="url(#b)"/><path fill="#E59C28" d="M573.9 252.3l-3.8-4 5.5-5.3 3.8 4-5.5 5.3z" mask="url(#b)"/><path fill="#F4E6C6" d="M579.4 258c-1.3-1.2-2.5-2.6-3.8-4l5.5-5.2 3.8 4-5.5 5.3z" mask="url(#b)"/><path fill="#E59C28" d="M585.3 264.2l-3.8-4 5.5-5.3 3.8 4z" mask="url(#b)"/><path fill="#FFAF12" d="M591 270l-4-4 5.5-5.4 3.9 4z" mask="url(#b)"/><path fill="#E59C28" d="M596.6 275.6l-3.9-4 5.4-5.3 4 4z" mask="url(#b)"/><path fill="#F4E6C6" d="M602.3 281.3l-3.9-4 5.4-5.3 3.9 3.8-5.4 5.5z" mask="url(#b)"/><path fill="#E59C28" d="M608.4 287.2l-4-3.8 5.4-5.5 4 3.9z" mask="url(#b)"/><path fill="#FFAF12" d="M614.2 292.8l-4-3.8 5.3-5.5 4 3.8z" mask="url(#b)"/><path fill="#E59C28" d="M620 298.3l-4-3.8 5.3-5.5 4 3.8-5.2 5.5z" mask="url(#b)"/><path fill="#F4E6C6" d="M626 303.8l-4.1-3.8 5.2-5.5 4 3.7-5.2 5.6z" mask="url(#b)"/><path fill="#E59C28" d="M632.2 309.6l-4.1-3.8 5.2-5.6 4 3.8z" mask="url(#b)"/><path fill="#FFAF12" d="M638.1 315l-4-3.7 5-5.7 4.1 3.7z" mask="url(#b)"/><path fill="#E59C28" d="M644.1 320.3l-4.1-3.7 5-5.6 4.2 3.6-5 5.7z" mask="url(#b)"/><path fill="#F4E6C6" d="M650.2 325.7L646 322l5-5.7" mask="url(#b)"/><path fill="#E59C28" d="M639 305.7A1208 1208 0 01524 184.9 1320 1320 0 01451 88.2c-16.6-24.3-25.6-39.5-25.7-39.6l.3-.2c.1.1 9.1 15.3 25.7 39.6 15.3 22.4 40.5 57.3 73.1 96.7 36.8 44.2 75.4 84.8 114.8 120.7" mask="url(#b)"/><path fill="#E59C28" d="M420.3 54.7a324 324 0 01-2.2-5l7-3 2.2 5-7 3z" mask="url(#b)"/><path fill="#FFAF12" d="M423.5 61.8l-2.2-4.9 7-3.1 2.1 4.8z" mask="url(#b)"/><path fill="#E59C28" d="M426.8 68.8l-2.3-4.8 7-3.2 2.2 4.7-6.9 3.4z" mask="url(#b)"/><path fill="#F4E6C6" d="M430.2 75.8L428 71l6.8-3.3 2.4 4.8-6.9 3.3z" mask="url(#b)"/><path fill="#E59C28" d="M434 83.2l-2.5-4.8 6.8-3.4 2.4 4.7z" mask="url(#b)"/><path fill="#FFAF12" d="M437.5 90.1l-2.5-4.8 6.8-3.4 2.5 4.7z" mask="url(#b)"/><path fill="#E59C28" d="M441.1 97l-2.5-4.8 6.8-3.5 2.5 4.7z" mask="url(#b)"/><path fill="#F4E6C6" d="M444.8 103.8l-1.3-2.3-1.2-2.4 6.7-3.6 1.2 2.3 1.3 2.3z" mask="url(#b)"/><path fill="#E59C28" d="M448.8 111l-2.6-4.7 6.7-3.7 2.6 4.7z" mask="url(#b)"/><path fill="#FFAF12" d="M452.7 117.8L450 113l6.6-3.7 2.7 4.6z" mask="url(#b)"/><path fill="#E59C28" d="M456.5 124.5l-2.6-4.6 6.5-3.9 2.7 4.6-6.6 3.9z" mask="url(#b)"/><path fill="#F4E6C6" d="M460.5 131.2l-2.7-4.6 6.5-3.9 2.7 4.6z" mask="url(#b)"/><path fill="#E59C28" d="M464.7 138.2l-2.8-4.6 6.6-3.9 2.7 4.6-6.5 4z" mask="url(#b)"/><path fill="#FFAF12" d="M468.8 144.9l-2.8-4.6 6.5-4 2.8 4.5z" mask="url(#b)"/><path fill="#E59C28" d="M473 151.4l-3-4.5 6.5-4 2.9 4.5z" mask="url(#b)"/><path fill="#F4E6C6" d="M477 158l-2.8-4.5 6.4-4.1 2.9 4.5z" mask="url(#b)"/><path fill="#E59C28" d="M481.6 164.9l-3-4.5 6.4-4.2 3 4.5z" mask="url(#b)"/><path fill="#FFAF12" d="M485.8 171.4l-3-4.5 6.4-4.2 3 4.4z" mask="url(#b)"/><path fill="#E59C28" d="M490.2 177.8l-3-4.4 6.3-4.3 3 4.4z" mask="url(#b)"/><path fill="#F4E6C6" d="M494.6 184.2l-3-4.4 6.2-4.3 3 4.3z" mask="url(#b)"/><path fill="#E59C28" d="M499.3 191l-3.1-4.4 6.2-4.4 3.1 4.3z" mask="url(#b)"/><path fill="#FFAF12" d="M503.8 197.3l-3.1-4.4 6.2-4.4 3 4.3z" mask="url(#b)"/><path fill="#E59C28" d="M508.3 203.5l-3.1-4.3 6.2-4.5 3 4.3-6 4.5z" mask="url(#b)"/><path fill="#F4E6C6" d="M513 209.8l-3.2-4.3 6.1-4.5 3.2 4.2z" mask="url(#b)"/><path fill="#E59C28" d="M517.9 216.4l-3.2-4.3 6-4.6 3.2 4.3-6 4.6z" mask="url(#b)"/><path fill="#FFAF12" d="M522.6 222.5l-3.3-4.2 6-4.6 3.3 4.2z" mask="url(#b)"/><path fill="#E59C28" d="M527.3 228.7l-3.2-4.3 6-4.6 3.2 4.2z" mask="url(#b)"/><path fill="#F4E6C6" d="M532.2 234.8l-3.4-4.2 6-4.7 3.3 4.1z" mask="url(#b)"/><path fill="#E59C28" d="M537.3 241.2L534 237l5.9-4.8 3.3 4.2z" mask="url(#b)"/><path fill="#FFAF12" d="M542.2 247.2l-3.4-4.2 6-4.8 3.3 4.1-5.9 4.9z" mask="url(#b)"/><path fill="#E59C28" d="M547.2 253.1l-3.4-4 5.8-5 3.4 4.1z" mask="url(#b)"/><path fill="#F4E6C6" d="M552.2 259l-3.4-4 5.8-5 3.4 4.1z" mask="url(#b)"/><path fill="#E59C28" d="M557.6 265.3l-3.5-4 5.7-5 3.5 4z" mask="url(#b)"/><path fill="#FFAF12" d="M562.7 271.1l-3.5-4 5.7-5 3.5 4z" mask="url(#b)"/><path fill="#E59C28" d="M567.9 277l-1.8-2-1.8-2 5.7-5.1 1.7 2 1.8 2z" mask="url(#b)"/><path fill="#F4E6C6" d="M573.1 282.7l-3.6-4 5.6-5.1 3.6 3.9z" mask="url(#b)"/><path fill="#E59C28" d="M578.7 288.7l-3.6-4 5.5-5.1 3.6 4z" mask="url(#b)"/><path fill="#FFAF12" d="M584 294.4l-3.7-4 5.6-5.1 3.6 3.8z" mask="url(#b)"/><path fill="#E59C28" d="M589.4 300l-3.7-4 5.5-5.2 3.7 3.8z" mask="url(#b)"/><path fill="#F4E6C6" d="M594.8 305.5l-3.7-3.8 5.4-5.3 3.7 3.8z" mask="url(#b)"/><path fill="#E59C28" d="M600.6 311.3l-3.8-3.7 5.4-5.4 3.8 3.7z" mask="url(#b)"/><path fill="#FFAF12" d="M606.1 316.8l-3.8-3.8 5.4-5.4 3.8 3.8z" mask="url(#b)"/><path fill="#E59C28" d="M611.7 322.2l-2-1.8-1.9-1.9 5.3-5.5 2 1.9 1.9 1.8-5.3 5.5z" mask="url(#b)"/><path fill="#F4E6C6" d="M617.3 327.6l-3.9-3.7 5.3-5.5 3.9 3.6z" mask="url(#b)"/><path fill="#E59C28" d="M623.3 333.2l-3.9-3.7 5.2-5.5 3.9 3.6z" mask="url(#b)"/><path fill="#FFAF12" d="M629 338.4l-4-3.6 5.2-5.6 4 3.6-5.2 5.6z" mask="url(#b)"/><path fill="#E59C28" d="M634.8 343.6l-4-3.6 5.1-5.6 4 3.5z" mask="url(#b)"/><path fill="#F4E6C6" d="M640.6 348.8l-4-3.6 5-5.7 4 3.6z" mask="url(#b)"/><path fill="#E59C28" d="M646.8 354.2l-4-3.5 5-5.7 4 3.4-5 5.8z" mask="url(#b)"/><path fill="#FFAF12" d="M652.8 359.2l-4.1-3.5 5-5.8" mask="url(#b)"/><path fill="#E59C28" d="M589.7 289a932 932 0 01-94.2-117.1c-48.4-71-70.7-125-71-125.6l.4-.1c.3.5 22.6 54.4 70.9 125.5 28.4 41.7 60 81 94.1 117M395 58.2l3-4.8-6.6-4-2.8 4.7z" mask="url(#b)"/><path fill="#FFAF12" d="M390.7 65l3-4.7-6.4-4-3 4.6z" mask="url(#b)"/><path fill="#E59C28" d="M386.3 71.7l3-4.6-6.3-4.2-3 4.7z" mask="url(#b)"/><path fill="#F4E6C6" d="M382 78.5l3-4.7-6.4-4.2-3 4.6z" mask="url(#b)"/><path fill="#E59C28" d="M377.2 85.5l3-4.6-6.2-4.2-3.1 4.6z" mask="url(#b)"/><path fill="#FFAF12" d="M372.7 92.2l3-4.6-6.2-4.3-3.1 4.5z" mask="url(#b)"/><path fill="#E59C28" d="M368 98.8l3.3-4.6L365 90l-3.2 4.5z" mask="url(#b)"/><path fill="#F4E6C6" d="M363.5 105.4l3.2-4.6-6.3-4.4-3.1 4.6z" mask="url(#b)"/><path fill="#E59C28" d="M358.5 112.3l3.3-4.5-6.2-4.4-3.2 4.5z" mask="url(#b)"/><path fill="#FFAF12" d="M353.9 118.8l3.2-4.5-6.2-4.4-3.2 4.4z" mask="url(#b)"/><path fill="#E59C28" d="M349.1 125.3l3.3-4.5-6.2-4.5-3.2 4.5z" mask="url(#b)"/><path fill="#F4E6C6" d="M344.3 131.8l3.3-4.5-6-4.5-3.4 4.4z" mask="url(#b)"/><path fill="#E59C28" d="M339.2 138.6l3.4-4.5-6.1-4.5-3.3 4.4z" mask="url(#b)"/><path fill="#FFAF12" d="M334.4 145l3.3-4.4-6-4.7-3.4 4.4z" mask="url(#b)"/><path fill="#E59C28" d="M329.5 151.3l3.4-4.4-6-4.6-3.4 4.4z" mask="url(#b)"/><path fill="#F4E6C6" d="M324.5 157.7l3.5-4.4-6-4.7-3.4 4.4z" mask="url(#b)"/><path fill="#E59C28" d="M319.3 164.3l3.4-4.3-6-4.7-3.4 4.3z" mask="url(#b)"/><path fill="#FFAF12" d="M314.3 170.6l3.4-4.3-6-4.8-3.4 4.3z" mask="url(#b)"/><path fill="#E59C28" d="M309.2 176.9l3.5-4.3-6-4.8-3.4 4.3 6 4.8z" mask="url(#b)"/><path fill="#F4E6C6" d="M304.1 183l3.5-4.2-5.8-4.8-3.5 4.2 5.8 4.9z" mask="url(#b)"/><path fill="#E59C28" d="M298.7 189.6l3.5-4.2-5.8-4.9-3.5 4.3 5.8 4.8z" mask="url(#b)"/><path fill="#FFAF12" d="M293.5 195.8l3.6-4.2-5.8-5-3.6 4.3 5.8 4.9z" mask="url(#b)"/><path fill="#E59C28" d="M288.3 202l3.6-4.3-5.8-5-3.5 4.3z" mask="url(#b)"/><path fill="#F4E6C6" d="M283.1 208l3.6-4.2-5.8-5-3.6 4.2z" mask="url(#b)"/><path fill="#E59C28" d="M277.5 214.4l3.7-4.2-5.8-5-3.6 4.2z" mask="url(#b)"/><path fill="#FFAF12" d="M272.2 220.4l3.7-4.1-5.7-5-3.7 4z" mask="url(#b)"/><path fill="#E59C28" d="M266.8 226.4l3.7-4.1-5.6-5-3.7 4 5.6 5.1z" mask="url(#b)"/><path fill="#F4E6C6" d="M261.5 232.4l3.7-4.1-5.7-5.1-3.7 4z" mask="url(#b)"/><path fill="#E59C28" d="M255.7 238.7l3.8-4.1-5.7-5.2-3.7 4z" mask="url(#b)"/><path fill="#FFAF12" d="M250.2 244.5l3.8-4-5.6-5.2-3.7 4z" mask="url(#b)"/><path fill="#E59C28" d="M244.7 250.4l3.8-4-5.5-5.3-3.8 4 5.5 5.3z" mask="url(#b)"/><path fill="#F4E6C6" d="M239.2 256.2l3.8-4-5.5-5.3-3.8 4 5.5 5.3z" mask="url(#b)"/><path fill="#E59C28" d="M233.3 262.3l3.8-4-5.5-5.3-3.8 4z" mask="url(#b)"/><path fill="#FFAF12" d="M227.6 268l4-3.9-5.5-5.3-3.9 3.9z" mask="url(#b)"/><path fill="#E59C28" d="M222 273.7l3.9-3.9-5.4-5.4-4 4z" mask="url(#b)"/><path fill="#F4E6C6" d="M216.3 279.4l3.9-3.9-5.4-5.4-3.9 3.9 5.4 5.4z" mask="url(#b)"/><path fill="#E59C28" d="M210.2 285.4l4-4-5.4-5.4-4 3.9z" mask="url(#b)"/><path fill="#FFAF12" d="M204.4 291l4-4-5.3-5.4-4 3.8z" mask="url(#b)"/><path fill="#E59C28" d="M198.6 296.5l4-3.9-5.3-5.5-4 3.8 5.3 5.6z" mask="url(#b)"/><path fill="#F4E6C6" d="M192.7 302l4-3.8-5.2-5.6-4 3.8 5.2 5.6z" mask="url(#b)"/><path fill="#E59C28" d="M186.4 307.7l4.1-3.7-5.1-5.6-4.1 3.7z" mask="url(#b)"/><path fill="#FFAF12" d="M180.5 313.1l4.1-3.7-5.1-5.6-4.1 3.6z" mask="url(#b)"/><path fill="#E59C28" d="M174.5 318.5l4.1-3.7-5-5.7-4.2 3.7 5 5.7z" mask="url(#b)"/><path fill="#F4E6C6" d="M168.5 323.8l4.1-3.7-5-5.7-4.1 3.6z" mask="url(#b)"/><path fill="#E59C28" d="M162 329.3l4.2-3.6-5-5.7-4.1 3.6z" mask="url(#b)"/><path fill="#FFAF12" d="M155.9 334.6l4.2-3.6-5-5.8-4.1 3.5 4.9 5.9z" mask="url(#b)"/><path fill="#E59C28" d="M149.7 339.7l4.3-3.5-5-5.9-4.1 3.5 4.8 6z" mask="url(#b)"/><path fill="#F4E6C6" d="M143.5 344.8l4.3-3.5-4.8-5.9-4.3 3.5z" mask="url(#b)"/><path fill="#E59C28" d="M136.9 350.2l4.3-3.5-4.8-6-4.3 3.5z" mask="url(#b)"/><path fill="#FFAF12" d="M130.6 355.2c1.5-1.2 3-2.3 4.3-3.5l-4.7-6-4.3 3.5 4.7 6z" mask="url(#b)"/><path fill="#E59C28" d="M124.3 360.1l4.3-3.4-4.7-6-4.3 3.4z" mask="url(#b)"/><path fill="#F4E6C6" d="M117.9 365l4.4-3.4-4.6-6-4.4 3.3z" mask="url(#b)"/><path fill="#E59C28" d="M111 370.1c1.6-1 3-2.2 4.5-3.3l-4.6-6-4.4 3.2 4.6 6.1z" mask="url(#b)"/><path fill="#FFAF12" d="M104.6 375l4.5-3.4-4.6-6.1-4.4 3.2z" mask="url(#b)"/><path fill="#E59C28" d="M98 379.6l4.6-3.2-4.5-6.2-4.5 3.2z" mask="url(#b)"/><path fill="#F4E6C6" d="M91.5 384.3l4.6-3.2-4.5-6.3-4.5 3.2 4.4 6.3z" mask="url(#b)"/><path fill="#E59C28" d="M84.5 389.1l4.6-3.1-4.4-6.3-4.5 3.1z" mask="url(#b)"/><path fill="#FFAF12" d="M77.9 393.6l4.6-3-4.3-6.4-4.6 3z" mask="url(#b)"/><path fill="#E59C28" d="M71.2 398l4.6-3-4.2-6.3-4.6 3 4.2 6.4z" mask="url(#b)"/><path fill="#F4E6C6" d="M64.4 402.5l4.7-3-4.2-6.4-4.6 3z" mask="url(#b)"/><path fill="#E59C28" d="M57.2 407l4.7-3-4-6.4-4.7 3z" mask="url(#b)"/><path fill="#FFAF12" d="M50.4 411.3l4.7-3-4-6.4-4.7 2.9z" mask="url(#b)"/><path fill="#E59C28" d="M32.7 413.4a839.7 839.7 0 00147-109.6c39.4-35.9 78-76.5 114.8-120.8a1320 1320 0 0073.1-96.7c16.6-24.3 25.6-39.5 25.7-39.6l-.3-.2c-.1.1-9.1 15.3-25.7 39.6a1318.6 1318.6 0 01-73.1 96.7 1207.4 1207.4 0 01-114.8 120.8A839.4 839.4 0 0132.5 413l.2.3z" mask="url(#b)"/><path fill="#E59C28" d="M397.6 54.7l2.2-5-7-3-2.2 5 7 3z" mask="url(#b)"/><path fill="#FFAF12" d="M394.4 61.8l2.2-4.9-7-3.1-2.1 4.8z" mask="url(#b)"/><path fill="#E59C28" d="M391 68.8l2.4-4.8-7-3.2-2.2 4.7L391 69z" mask="url(#b)"/><path fill="#F4E6C6" d="M387.6 75.8L390 71l-6.9-3.3-2.3 4.8 6.8 3.3z" mask="url(#b)"/><path fill="#E59C28" d="M384 83.2l2.4-4.8-6.9-3.4-2.3 4.7z" mask="url(#b)"/><path fill="#FFAF12" d="M380.4 90.1l2.4-4.8-6.7-3.4-2.5 4.7z" mask="url(#b)"/><path fill="#E59C28" d="M376.7 97l2.6-4.8-6.8-3.5-2.5 4.7z" mask="url(#b)"/><path fill="#F4E6C6" d="M373 103.8l1.3-2.3 1.3-2.4-6.7-3.6-1.2 2.3-1.3 2.3z" mask="url(#b)"/><path fill="#E59C28" d="M369 111l2.7-4.7-6.7-3.7-2.6 4.7z" mask="url(#b)"/><path fill="#FFAF12" d="M365.2 117.8l2.7-4.7-6.6-3.7-2.7 4.6z" mask="url(#b)"/><path fill="#E59C28" d="M361.4 124.5l2.6-4.6-6.6-3.9-2.6 4.6 6.6 3.9z" mask="url(#b)"/><path fill="#F4E6C6" d="M357.4 131.2l2.7-4.6-6.5-3.9-2.7 4.6z" mask="url(#b)"/><path fill="#E59C28" d="M353.2 138.2l2.7-4.6-6.5-3.9-2.7 4.6 6.5 4z" mask="url(#b)"/><path fill="#FFAF12" d="M349.1 144.9l2.8-4.6-6.5-4-2.8 4.5z" mask="url(#b)"/><path fill="#E59C28" d="M345 151.4l2.8-4.5-6.4-4-2.9 4.5z" mask="url(#b)"/><path fill="#F4E6C6" d="M340.8 158l2.9-4.5-6.4-4.1-2.9 4.5z" mask="url(#b)"/><path fill="#E59C28" d="M336.3 164.9l3-4.5-6.4-4.2-3 4.5z" mask="url(#b)"/><path fill="#FFAF12" d="M332 171.4l3-4.5-6.4-4.2-2.9 4.4z" mask="url(#b)"/><path fill="#E59C28" d="M327.7 177.8l3-4.4-6.3-4.3-3 4.4z" mask="url(#b)"/><path fill="#F4E6C6" d="M323.3 184.2l3-4.4-6.2-4.3-3 4.3z" mask="url(#b)"/><path fill="#E59C28" d="M318.6 191l3.1-4.4-6.2-4.4-3.1 4.3z" mask="url(#b)"/><path fill="#FFAF12" d="M314.1 197.3l3.1-4.4-6.2-4.4-3 4.3z" mask="url(#b)"/><path fill="#E59C28" d="M309.6 203.5l3.1-4.3-6.2-4.5-3 4.3 6 4.5z" mask="url(#b)"/><path fill="#F4E6C6" d="M305 209.8l3.1-4.3-6.1-4.5-3.2 4.2z" mask="url(#b)"/><path fill="#E59C28" d="M300 216.4l3.2-4.3-6-4.6-3.2 4.3 6 4.6z" mask="url(#b)"/><path fill="#FFAF12" d="M295.3 222.5l3.3-4.2-6.1-4.6-3.2 4.2z" mask="url(#b)"/><path fill="#E59C28" d="M290.6 228.7l3.2-4.3-6-4.6-3.2 4.2z" mask="url(#b)"/><path fill="#F4E6C6" d="M285.7 234.8l3.4-4.2-6-4.7-3.3 4.1z" mask="url(#b)"/><path fill="#E59C28" d="M280.6 241.2l3.3-4.2-6-4.8-3.2 4.2z" mask="url(#b)"/><path fill="#FFAF12" d="M275.7 247.2l3.4-4.2-6-4.8-3.3 4.1 5.9 4.9z" mask="url(#b)"/><path fill="#E59C28" d="M270.7 253.1l3.4-4-5.8-5-3.4 4.1z" mask="url(#b)"/><path fill="#F4E6C6" d="M265.7 259l3.4-4-5.8-5-3.4 4.1z" mask="url(#b)"/><path fill="#E59C28" d="M260.3 265.3l3.5-4-5.8-5-3.4 4z" mask="url(#b)"/><path fill="#FFAF12" d="M255.2 271.1l3.5-4-5.7-5-3.5 4z" mask="url(#b)"/><path fill="#E59C28" d="M250 277l1.8-2 1.8-2-5.7-5.1-1.7 2-1.8 2z" mask="url(#b)"/><path fill="#F4E6C6" d="M244.8 282.7l3.6-4-5.6-5.1-3.6 3.9z" mask="url(#b)"/><path fill="#E59C28" d="M239.2 288.7l3.6-4-5.6-5.1-3.5 4z" mask="url(#b)"/><path fill="#FFAF12" d="M233.9 294.4l3.7-4-5.6-5.1-3.6 3.8z" mask="url(#b)"/><path fill="#E59C28" d="M228.5 300l3.7-4-5.5-5.2-3.7 3.8z" mask="url(#b)"/><path fill="#F4E6C6" d="M223.1 305.5l3.7-3.8-5.4-5.3-3.7 3.8z" mask="url(#b)"/><path fill="#E59C28" d="M217.3 311.3l3.8-3.7-5.4-5.4-3.8 3.7z" mask="url(#b)"/><path fill="#FFAF12" d="M211.8 316.8l3.8-3.8-5.4-5.4-3.8 3.8z" mask="url(#b)"/><path fill="#E59C28" d="M206.2 322.2l2-1.8 1.9-1.9-5.4-5.5-1.8 1.9-2 1.8 5.3 5.5z" mask="url(#b)"/><path fill="#F4E6C6" d="M200.6 327.6l3.9-3.7-5.3-5.5-3.9 3.6z" mask="url(#b)"/><path fill="#E59C28" d="M194.6 333.2l3.9-3.7-5.2-5.5-3.9 3.6z" mask="url(#b)"/><path fill="#FFAF12" d="M188.9 338.4l4-3.6-5.2-5.6-4 3.6 5.2 5.6z" mask="url(#b)"/><path fill="#E59C28" d="M183 343.6l4-3.6-5-5.6-4 3.5z" mask="url(#b)"/><path fill="#F4E6C6" d="M177.3 348.8l4-3.6-5-5.7-4 3.6z" mask="url(#b)"/><path fill="#E59C28" d="M171 354.2l4.1-3.5-5-5.7-4 3.4 5 5.8z" mask="url(#b)"/><path fill="#FFAF12" d="M165.1 359.2l4.1-3.5-5-5.8-4 3.5z" mask="url(#b)"/><path fill="#E59C28" d="M159.2 364.2l4-3.5-4.8-5.8-4 3.4z" mask="url(#b)"/><path fill="#F4E6C6" d="M153.2 369.1l4.2-3.3-4.9-6-4.1 3.4z" mask="url(#b)"/><path fill="#E59C28" d="M146.7 374.2l4.2-3.3-4.7-6-4.2 3.4z" mask="url(#b)"/><path fill="#FFAF12" d="M140.7 379l4.2-3.3-4.8-6-4.1 3.4z" mask="url(#b)"/><path fill="#E59C28" d="M134.5 383.8l4.3-3.2-4.7-6-4.2 3.1z" mask="url(#b)"/><path fill="#F4E6C6" d="M128.3 388.5l4.3-3.3-4.6-6-4.3 3.2z" mask="url(#b)"/><path fill="#E59C28" d="M121.7 393.4l4.3-3.2-4.5-6.1-4.3 3.2z" mask="url(#b)"/><path fill="#FFAF12" d="M115.4 398l4.4-3.2-4.5-6.1-4.3 3z" mask="url(#b)"/><path fill="#E59C28" d="M109 402.4l4.5-3-4.5-6.3-4.3 3z" mask="url(#b)"/><path fill="#F4E6C6" d="M102.7 406.9l4.4-3.1-4.3-6.3-4.4 3.1z" mask="url(#b)"/><path fill="#E59C28" d="M90 406.7A839.8 839.8 0 00228.1 289a932 932 0 0094.2-117.1c48.4-71 70.7-125 70.9-125.6l-.4-.1a771 771 0 01-70.8 125.5c-28.4 41.7-60 81-94.1 117A839.3 839.3 0 0189.7 406.4l.2.3zm306.7-374L409 2l12.2 30.9.4-.2L409 .8l-12.5 31.8z" mask="url(#b)"/><path fill="#FFD18D" d="M409 1.4l6.4 36.7h-12.9zm-11.2 72.4H420v-14h-22.2z" mask="url(#b)"/><path fill="#FCBA3F" d="M397.8 73.8H420v-4.2h-22.2z" mask="url(#b)"/><path fill="#FFD18D" d="M394.2 85.7h29.5v-14h-29.5z" mask="url(#b)"/><path fill="#FCBA3F" d="M394.2 85.7h29.5v-4.2h-29.5z" mask="url(#b)"/><path fill="#FFD18D" d="M392.1 98.3h33.7v-14H392z" mask="url(#b)"/><path fill="#FCBA3F" d="M392.1 98.3h33.7V94H392z" mask="url(#b)"/><path fill="#FFD18D" d="M389.3 110.8h39.3V97h-39.3z" mask="url(#b)"/><path fill="#FCBA3F" d="M389.3 110.8h39.3v-4.2h-39.3z" mask="url(#b)"/><path fill="#FFD18D" d="M386.4 123.4h45.1v-14h-45.1z" mask="url(#b)"/><path fill="#FCBA3F" d="M386.4 123.4h45.1v-4.2h-45.1z" mask="url(#b)"/><path fill="#FFD18D" d="M383.5 135.5h50.9v-14h-51z" mask="url(#b)"/><path fill="#FCBA3F" d="M383.5 135.5h50.9v-4.2h-51z" mask="url(#b)"/><path fill="#FFD18D" d="M380 148H438v-13.9H380z" mask="url(#b)"/><path fill="#FCBA3F" d="M380 148H438v-4.2H380z" mask="url(#b)"/><path fill="#FFD18D" d="M376.9 160.6H441v-14H377z" mask="url(#b)"/><path fill="#FCBA3F" d="M376.9 160.6H441v-4.2H377z" mask="url(#b)"/><path fill="#FFD18D" d="M373.7 173.2h70.5v-14h-70.5z" mask="url(#b)"/><path fill="#FCBA3F" d="M373.7 173.2h70.5V169h-70.5z" mask="url(#b)"/><path fill="#FFD18D" d="M371.2 242h75.5v-46.8h-75.5zm0-58.3h75.5v-11.4h-75.5z" mask="url(#b)"/><path fill="#FCBA3F" d="M371.2 200.7h75.5v-5.5h-75.5z" mask="url(#b)"/><path fill="#F4E6C6" d="M371.6 231.3H446C497 251 562 295.8 562 348H256c0-52.2 64.5-97 115.6-116.7" mask="url(#b)"/><path fill="#A19B8E" d="M409 321c54.2 0 103-6.8 137.2-17.9 9.7 14 15.7 29 15.7 44.9H256c0-15.8 6-31 15.6-44.9 34.1 11 83 18 137.3 18" mask="url(#b)"/><path fill="#F4E6C6" d="M222 361.2h374v-16.4H222z" mask="url(#b)"/><path fill="#A19B8E" d="M203.6 376.2h410.7v-16.4H203.6z" mask="url(#b)"/><path fill="#FFF4DD" d="M172 402.3h474v-28.4H172z" mask="url(#b)"/><path fill="#A19B8E" d="M359.2 402.3h99.5v-28.4h-99.5z" mask="url(#b)"/><path fill="#A19B8E" d="M372.6 402.3h72.7v-28.4h-72.7z" mask="url(#b)"/><path fill="#F4E6C6" d="M372.6 381.3h72.7v-3.1h-72.7zm0 8.3h72.7v-3h-72.7zm0 8.4h72.7v-3.2h-72.7z" mask="url(#b)"/><path fill="#FAAA36" d="M365.3 197.4h87.3v-16h-87.3z" mask="url(#b)"/><path fill="#FCBA3F" d="M365.3 186.4h87.3v-2h-87.3z" mask="url(#b)"/><path fill="#FFD18D" d="M365.3 192.5h87.3v-4h-87.3z" mask="url(#b)"/><path fill="#FCBA3F" d="M392.6 61.4h32.7v-32h-32.7z" mask="url(#b)"/><path fill="#FFD18D" d="M392.6 56h32.7v-9.3h-32.7z" mask="url(#b)"/><path fill="#57575F" d="M392.6 43.8h32.7v-1.7h-32.7zm0 15.8h32.7v-1.7h-32.7z" mask="url(#b)"/><path fill="#FFD18D" d="M392.6 38.8h32.7v-6.5h-32.7z" mask="url(#b)"/><path fill="#FFAF12" d="M430.2 211s-6.7 6.2-14.4 3c0 0-3.2-2-4.7-.1 0 0 1-6.4 6.3-4.9 0 0 2 1.1 4.4 0 0 0 2.5-1.7 5.2.3a8 8 0 003.2 1.8" mask="url(#b)"/><path fill="#57575F" d="M411.1 213.9s1.1-2 3.4-.8c0 0 7.2 4.3 15.7-2 0 0-7.5 7.5-15.9 2.5 0 0-1.7-1-3.2.3" mask="url(#b)"/><path fill="#FFF" d="M414.4 211.6c0 1.4 2.5 2.7 5.6 2.7 3.1 0 5.6-1.3 5.6-2.7 0-1.5-2.5-2.8-5.6-2.8s-5.6 1.3-5.6 2.8" mask="url(#b)"/><path fill="#E59C28" d="M417.6 211.3a2.5 2.5 0 104.9 0 2.5 2.5 0 00-5 0" mask="url(#b)"/><path fill="#FFF" d="M418.5 211.3a1.5 1.5 0 103 0 1.5 1.5 0 00-3 0" mask="url(#b)"/><path fill="#E59C28" d="M419.2 211.3a.8.8 0 10.8-.8c-.4 0-.8.4-.8.8" mask="url(#b)"/><path fill="#57575F" d="M411.1 213.9s1-7.8 6.7-5.8c0 0 1.6 1 4.1 0 0 0 2.9-1.5 7 1.8 0 0 2 1.5 4.2 1 0 0-1.6 2-7.2-1.6 0 0-1.3-1-3.5.1 0 0-2.4 1.4-5.5 0 0 0-4.1-1.4-5.8 4.5" mask="url(#b)"/><path fill="#FFAF12" d="M417.1 206.9s2.4 1.5 5.1 0c.8-.3 1.6-.4 2.4-.4.9 0 1.6.5 2.3 1 .8.4 1.6.8 2.4 1 1 .4 2 .6 3 .5l.8-.3-.6.4c-.7.3-1.5.2-2.3 0-.8-.1-1.7-.5-2.5-1-.8-.4-1.6-1-2.5-1.3-1-.2-2 0-2.8.5 0 0-2.4 1.4-5.5-.1 0 0-3.5-1.6-5.8 4.5 0 0 1.8-6.6 6-4.8" mask="url(#b)"/><path fill="#57575F" d="M410.6 212.4l.2-.6a12 12 0 011.3-3.2 9 9 0 013.4-3.4c2-1.1 4.4-1.2 6.7-.8 1.6.2 3.2.8 4.8 1.4.8.4 1.7.9 2.6 1.1a3 3 0 002.1-.2c.2 0 .4-.3.5-.3-1.2.4-2.7.3-3.8-.4l-1.8-1a18 18 0 00-6-2 8 8 0 00-6 1.5c-2.4 1.9-3.4 5-4 7.9" mask="url(#b)"/><path fill="#FFAF12" d="M387.6 211s6.8 6.2 14.5 3c0 0 3.2-2 4.6-.1 0 0-.9-6.4-6.2-4.9 0 0-2 1.1-4.4 0 0 0-2.5-1.7-5.2.3 0 0-1.8 1.6-3.3 1.8" mask="url(#b)"/><path fill="#57575F" d="M406.7 213.9s-1-2-3.3-.8c0 0-7.2 4.3-15.8-2 0 0 7.6 7.5 16 2.5 0 0 1.7-1 3.1.3" mask="url(#b)"/><path fill="#FFF" d="M403.5 211.6c0 1.4-2.5 2.7-5.6 2.7-3.1 0-5.6-1.3-5.6-2.7 0-1.5 2.5-2.8 5.6-2.8 3 0 5.6 1.3 5.6 2.8" mask="url(#b)"/><path fill="#E59C28" d="M400.3 211.3a2.5 2.5 0 11-4.9 0 2.5 2.5 0 015 0" mask="url(#b)"/><path fill="#FFF" d="M399.3 211.3a1.5 1.5 0 11-2.9 0 1.5 1.5 0 013 0" mask="url(#b)"/><path fill="#E59C28" d="M398.7 211.3a.8.8 0 11-.8-.8c.4 0 .8.4.8.8" mask="url(#b)"/><path fill="#57575F" d="M406.7 213.9s-.8-7.8-6.6-5.8c0 0-1.6 1-4.1 0 0 0-2.9-1.5-7.1 1.8 0 0-2 1.5-4 1 0 0 1.5 2 7-1.6 0 0 1.4-1 3.6.1 0 0 2.4 1.4 5.5 0 0 0 4.1-1.4 5.7 4.5" mask="url(#b)"/><path fill="#FFAF12" d="M400.8 206.9s-2.4 1.5-5.2 0c-.7-.3-1.5-.4-2.3-.4-.9 0-1.6.5-2.4 1-.7.4-1.5.8-2.3 1-1 .4-2 .6-3 .5l-.8-.3.6.4c.7.3 1.5.2 2.2 0 1-.1 1.8-.5 2.6-1 .8-.4 1.6-1 2.5-1.3 1-.2 2 0 2.8.5 0 0 2.4 1.4 5.5-.1 0 0 3.5-1.6 5.7 4.5 0 0-1.7-6.6-5.9-4.8" mask="url(#b)"/><path fill="#57575F" d="M407.3 212.4l-.2-.6a12 12 0 00-1.3-3.2 9 9 0 00-3.4-3.4c-2-1.1-4.4-1.2-6.7-.8-1.6.2-3.2.8-4.8 1.4-.8.4-1.7.9-2.6 1.1a3 3 0 01-2.1-.2l-.6-.3c1.3.4 2.8.3 3.9-.4l1.8-1c1.9-1 4-1.8 6-2a8 8 0 016 1.5c2.3 1.9 3.4 5 4 7.9m-.3-4.4a1.9 1.9 0 103.8 0 1.9 1.9 0 00-3.8 0" mask="url(#b)"/><path fill="#FAAA36" d="M407.6 208a1.3 1.3 0 102.7 0 1.3 1.3 0 00-2.7 0" mask="url(#b)"/><path fill="#FFF" d="M408.7 227c.4 0 .9-.3 1-.8.2-.4 1.5-4 1-6.8.4-.3.7-.6.9-1 .5-1.4 0-2.9-1.2-3.6-.4-.2-.9-.4-1.4-.4-.9 0-1.7.4-2.2 1-.6.9-.8 2-.6 3.1l.6 1.5.2.7c.6 1.6.6 3.4.5 5a1.1 1.1 0 001.2 1.3" mask="url(#b)"/><path fill="#57575F" d="M408.5 218.5a1 1 0 01-.3-.8c.1-.3.4-.6.7-.7.3 0 .6 0 .8.2a.2.2 0 11-.2.2h-.5c-.2 0-.4.1-.4.4l.1.5.6.3c.5 0 .9-.3 1-.8.3-.6 0-1.5-.6-1.8-.6-.4-1.4-.3-1.9.3-.4.5-.5 1.2-.3 2l.5 1.2c0 .3.2.5.3.8.5 1.4.5 3 .5 4.4.5-1.5 1-4.1.4-5.8-.3 0-.5-.2-.7-.4m.1 7.5l-.1-.2c0-1.8 0-3.7-.6-5.4 0-.3-.2-.5-.3-.7l-.4-1.4c-.2-.9-.1-1.7.3-2.2.6-.7 1.7-.9 2.4-.4a2 2 0 01.8 2.2c-.2.5-.6.9-1.1 1 .9 2.5-.7 6.8-.8 7h-.1" mask="url(#b)"/><path fill="#A4B750" d="M686.4 377.3c2-2.2 9.1-9 8.3-12.1-1-3.4-4.5-6-7.8-5.9-1.4 0-2.8.6-4.3 0-.8-.5-1.4-1.4-1.3-2.2.3-1.4 2.1-1.4 3.5-1.3 2.7.2 5.4-.2 7.6-1.6a7.5 7.5 0 003.5-6.6c-.1-2.7-2.2-5.5-4.8-6.1-1.7-.4-3.4.1-5-.7-.9-.4-1.6-1.2-1.6-2.2 0-1.8 2.5-2.2 4.3-2 2.6 0 5.3 0 7.6-1s4.2-3.1 4.6-5.7c.3-2.6-1.3-5.7-3.8-6.5-1-.3-2.1-.3-3.1-.6-1.3-.3-2.6-1.2-2.5-2.6.1-1 1-1.7 1.9-1.9 1.3-.2 2.6.3 3.8.8 2 .8 4 .8 5.8 0 5.3-2.6 3.3-9.7-1-11.6-1.3-.5-2.8-.9-3.3-2.2a2 2 0 011.1-2.5c1.8-1 3.8 0 5.7-.1 3.5-.2 6-4.1 4.8-7.6-1-2.7-4-1.5-7.1-1-.7.1-1.2-.8-.7-1.3 2.2-1.7 4.5-4.4 5.7-6.1 2.2-3.1 2.2-10-3.6-9.5-1.5.1-4.1 2.5-4.4 3.8-.4 1.8-2.5 7-2.5 7-.3.6-1.2.3-1.2-.3 0-1.5-.3-3-1.1-4.3-.3-.6-.8-1.2-1.4-1.6-3.2-2.7-6.7.3-7 3.6-.4 2.7.7 5.6 1.8 8.2.5 1.4 1 3 .4 4.3-.4.7-1.2 1.2-2 .9-1-.4-1.2-1.3-1.7-2.1-1.3-2.6-5-3.3-7.1-1.9-2.2 1.5-3 4.5-2.5 7.3.4 2.8 2 5.4 3.7 7.7.8 1.2 1.8 2.4 1.6 3.9-.1.8-.8 1.5-1.7 1.4-1.2-.2-1.7-1.6-2.3-2.7-1.8-3-6.2-3.3-8.5-1.2-2.3 2.2-2.7 6-1.6 9.2a29 29 0 006.3 9.7c.6.7.7 1.7.2 2.3-.7 1-1.8.4-2.8 0a8 8 0 00-10 3c-1.9 3.1-1.1 8 1.7 10.8 1.8 1.8 4.4 3 5.2 5.6.5 1.4 0 2.8-1.2 3.3-1.5.6-3-.8-4.4-1.6-4-2.3-9.1.2-10.6 4.3-1.4 4.1 3.3 11.4 6 15.1 2.9 3.8 8.6 11.7 13.8 14.2 2.5 1.3 13-7.6 15-9.8" mask="url(#b)"/><path fill="#619340" d="M704.7 277.2c-1.5.1-4.1 2.5-4.4 3.8-.4 1.8-2.5 7-2.5 7-.3.6-1.2.3-1.2-.3 0-1.5-.3-3-1.1-4.3-.3-.6-.8-1.2-1.4-1.6-3.2-2.7-6.7.3-7 3.6-.4 2.7.7 5.6 1.8 8.2.5 1.4 1 3 .4 4.3-.4.7-1.2 1.1-2 .9-1-.4-1.2-1.3-1.7-2.1-1.3-2.6-5-3.3-7.1-1.9-2.2 1.5-3 4.5-2.5 7.3.4 2.8 2 5.4 3.7 7.7.8 1.2 1.8 2.4 1.6 3.9-.1.8-.8 1.5-1.7 1.4-1.2-.2-1.7-1.6-2.3-2.7-1.8-3-6.2-3.3-8.5-1.2-2.3 2.2-2.7 6-1.6 9.2a29 29 0 006.3 9.7c.6.7.7 1.7.2 2.3-.7 1-1.8.4-2.8 0a8 8 0 00-10 3c-1.9 3.1-1.1 8 1.7 10.8 1.8 1.8 4.4 3 5.2 5.6.5 1.4 0 2.8-1.2 3.3-1.5.6-3-.8-4.4-1.6-4-2.3-9.1.2-10.6 4.3-1.4 4.1 3.3 11.4 6 15.1 2.7 3.5 7.9 10.6 12.8 13.7l1 .5s2.9-32.5 13.2-65.8c5.8-18.4 23.6-43 23.6-43l-.8-.6c-1-.4-2.4-.5-2.7-.5" mask="url(#b)"/><path fill="#316C35" d="M635.5 364.8c0 3.6.6 7 1.2 10.5.7 4.5 1.9 5.5 4.6 8.7 2.7 3.3 6.6 5.2 10.4 4.7 3.8-.6 7.1.1 8.3-4.3.2-.6.8-.5 1-.2 1 1.7 1.6 2.8 3.2 3.7 1.7.8 11 3.7 17-6.2 2-7.7.8-15.5 0-23.5 0-1-.2-2-.7-3-.8-1.5-2.7-2-4-1 1.3-.4 2.1-2 2.4-3.7.2-1.6-.1-3.3-.5-4.9L675 328c-3.1 2.9-7.3 4.2-11.2 3.4 0 0 10.7-7.5 8.3-13.3-1.8-4.2-4.3-10-5.8-14.4-1-3-3.3-5.8-5.4-8-1.8-1.8-3-3-5.2-4-1.3-.4-2.7-1-4.1-.7-2.2.4-3.8 2.6-5 4.7a72.6 72.6 0 00-5.7 12.5c-1.9 5.2-3.4 10.6-4.6 16 4.5 4.8 10 8 16 9.4-5 .3-10-.7-14.6-3-.6-.3-1.2-.6-1.7-.3-1.2.4-1.1 2.4-1 3.8 1 6 .4 12.2-1.5 17.9l5.9-.2-6.7 2.6s2.8 7.3 2.9 10.5" mask="url(#b)"/><path fill="#A4B750" d="M634 367.2c0 3.5 3.4 13.2 7.2 17.6a15 15 0 0010.6 5.2c3 0 7-1.2 8.2-5.6.2-.6.8-.5 1-.2 1 1.7-8.2-93.6-9.5-93.3-2.2.4-3.8 2.6-5 4.7a72.6 72.6 0 00-5.7 12.5c-1.9 5.2-3.4 10.6-4.6 16 4.5 4.8 10 8 16 9.4-5 .3-10-.7-14.6-3-.6-.3-1.2-.6-1.7-.3-1.2.4-1.1 2.4-1 3.8 1 6 .4 12.2-1.5 17.9l5.9-.2-6.7 2.6s1.3 9.7 1.4 12.9" mask="url(#b)"/><path fill="#E59C28" d="M630.7 134.6s-2.8-2.9-12.7-2.9c-8.5 0-11 3-11 3l11.5 15 12.2-15z" mask="url(#b)"/><path fill="#7F786A" d="M659.2 388.4s4.6 15.6 2.6 15.6h-28c-4 0 5.4-6 12.4-11.2 4.4-3.2 7.5-6.6 7.5-6.6l5.5 2.2z" mask="url(#b)"/><path fill="#57575F" d="M653 396.6c-.2 0-.4 0-.5-.2-1.6-2.4-4.3-3.4-7.3-2.5-.3 0-.6-.1-.7-.4 0-.2.1-.5.4-.6 3.4-1 6.6.2 8.5 3a.5.5 0 01-.4.7m-3.1 3c-.2 0-.3-.1-.4-.3a7.7 7.7 0 00-8.8-2 .5.5 0 01-.3-1 8.7 8.7 0 019.8 2.4.5.5 0 01-.3.8m12 6.1h-29.4c-.5 0-.9-.3-.9-.8s.4-.8 1-.8h29.3c.5 0 1 .3 1 .8s-.5.8-1 .8" mask="url(#b)"/><path fill="#7F786A" d="M589 389.8s2.5 14.2.4 14.2H554c-6.2-3.8 19-9.9 26.3-17 2.2 0 8.7 2.8 8.7 2.8" mask="url(#b)"/><path fill="#57575F" d="M575.2 397a.5.5 0 01-.5-.4 6 6 0 00-3.3-4 .5.5 0 01.4-1c2.5 1.2 3.6 3.5 3.9 4.7a.5.5 0 01-.5.7m-4 2a.5.5 0 01-.5-.3c-.2-.7-1.1-3-3.3-4a.5.5 0 01.4-1c2.6 1.2 3.6 4 3.9 4.7a.5.5 0 01-.5.7m19 6.5h-37.4c-.5 0-1-.3-1-.8s.5-.8 1-.8h37.4c.5 0 1 .3 1 .8s-.5.8-1 .8" mask="url(#b)"/><path fill="#7F786A" d="M646.3 228.8c-22.1 3.7-54.3 1.8-58.7 0-.9 3.8-6.6 69.6-7.7 88.4-.6 10.9-3.8 44.5-5.3 70.9-.2 2.9 14.6 3.3 15.1 2.3a214 214 0 0018.8-55.7c.7-4.2-2.8-20.6-1.7-24.7 6.7-26 8.7-31.2 10.3-37.7 2 0 11.4 38.3 14 49.4 4 18.2 13 57.3 14.1 67.3.2 1.5 16.6 2 16.6.6 0-5.6 5.3-27.6 4.2-55.5-.3-8.8-8.4-19.2-9-24.5-2-21.1-2.8-39.4-4.9-54.8a145.1 145.1 0 00-5.8-26" mask="url(#b)"/><path fill="#FDBD4E" d="M590 192.8c1 34.2-8.4 46-3.9 51 2.2 2.5 56.9 7.2 64.4 1.3 3.2-2.6-5.6-31.2-1.8-55.3l7.8-38.5c-6-7.8-26.6-14.2-37.2-13.3-10.8-.9-30.9 7.6-35 14.1-3.2 4.8-5.6 11-7.3 16.7l13 24z" mask="url(#b)"/><path fill="#FDBD4E" d="M583.4 250.3s6.4 9.5 26.8 10.2l2.5-10.8 2.7 10.8c19.6-.5 35.9-11 35.9-11l-.8-4.4c-7.5 6-62 .5-64.4-1.2l-2.7 6.4z" mask="url(#b)"/><path fill="#E59C28" d="M614.2 150a.7.7 0 101.5 0 .7.7 0 00-1.5 0m0 4.2c0 .4.3.7.8.7a.7.7 0 10-.8-.7m0 4.1c0 .4.3.8.8.8a.7.7 0 10-.8-.8" mask="url(#b)"/><path fill="#57575F" d="M612.4 128.4c-1.6-.5-3.3-6.5-4.3-9-1.4-3.5-3.3-7.8-2.1-13.4.3-2 1.3-5.4 6.9-6.2 5.2-.8 13.1.9 14.4 6.1 6 2.7 2 9.7 1.7 13.7-.5 5.7-5 8.3-7.2 7.8-5-1.2-5.4 2.2-9.4 1" mask="url(#b)"/><path fill="#F3B38C" d="M626.8 119.2c-.3 10.7 2.2 17.5 2.7 19.7.4 1.8-3 6.2-11.5 6.2-6.8 0-12.2-3.2-11.2-5 1.5-2.7 5.7-10.8 4-18.5-1.8-7.7 11.7 2.3 16-2.4" mask="url(#b)"/><path fill="#F3B38C" d="M627 115.7c-2-.2-1.5 3.7-2 3.8-.8 0-1.4-6-1.6-9.5-2.5-4-12.8 2.5-15.7-.4-1 1.1-2 17 1 21.5 1 1.6 3.5 3.3 5.5 3.3 6.7 0 9.6-4.1 10.4-6 .8-2 .7-5 .9-5.8 2 0 2.8-6.8 1.5-6.9" mask="url(#b)"/><path fill="#57575F" d="M610.2 112c1.5 0 3.5-.6 5.5-1.3 3.2-1 6.6-2.2 7.8-.3l.5-.3c-1.5-2.3-5-1-8.5 0-2.9 1-5.8 2-7 .8l-.5.4c.6.5 1.3.8 2.2.8m14.7 17.3c-2.2 5.4-9.7 6.3-14.3 5-3.8-1.1-5.4-7.3-3.8-9.9h.3c2.6 3 10.2 2.8 14.6-.2 3-1.9 2.5-6.1 2.2-8.4-.2-2.3 2.1-1.4 1.7 1-.5 2.6.5 9.6-.7 12.5" mask="url(#b)"/><path fill="#E59C28" d="M630.7 134.6l5.6 6-9.7 8.4-8.3-4.4zm-23.7 0l-4.8 6.3 7.2 7 8.7-3.2z" mask="url(#b)"/><path fill="#FDBD4E" d="M603.4 175s10-21.8-4.5-27.2c-6-2.2-13.1-1.2-19.3 12.6-6.3 14.8-8.5 17.7-8.5 17.7s-30.6-4.2-31.7-1.4c0 0-4.3 3.8-1.2 7.6 5.9 7 22.7 17.5 38.7 17 14.6-.5 26.5-26.2 26.5-26.2" mask="url(#b)"/><path fill="#E59C28" d="M590.3 194.6h.1c.3-.1.4-.4.3-.6a44 44 0 01-2.2-21.8.5.5 0 10-.9-.1 45 45 0 002.2 22.2c0 .2.3.3.5.3" mask="url(#b)"/><path fill="#F4E6C6" d="M543 176.4c0 .2.2 1 .1 2.1 0 3.5-4.3 5-6.6 2.6-3.8-1.1-12.1-1-19.6-5.5-2.6-1.5-3.7-3.3-1.3-4.1 3-1.1 18.7-1.6 20-4.1.5-1-1.4-2.2-2-3.3-1.1-2-.3-4.2 1-4 1 0 1.2 2.2 2.2 3.6.9 1.3 4.2 3.5 5 5.3.8 1.9 0 5.6 1.2 7.4" mask="url(#b)"/><path fill="#F4E6C6" d="M541.9 172.4c0-1.3-.1-2.4-.4-3.2-.5-1-1.8-2.2-3-3.2-1-.8-1.7-1.5-2-2-.5-.7-.8-1.4-1-2-.3-.8-.7-1.5-1-1.6-.3 0-.5.2-.7.4-.4.7-.5 2 .2 3.1l.8 1c.8.9 1.6 1.8 1.2 2.7-1 1.7-6.2 2.4-13.6 3.2-3 .4-5.7.7-6.7 1-.5.2-1 .5-1 1-.1.4.5 1.4 2.4 2.5 5.3 3.2 11 4 15.3 4.6l4.2.8h.1c1 1.1 2.5 1.5 3.8 1a3.4 3.4 0 002.2-3.2 8 8 0 000-1.9 9.3 9.3 0 01-.8-4.2zm-5.6 9a36 36 0 00-4-.7c-4.3-.6-10.2-1.4-15.7-4.7-1-.7-2.9-2-2.8-3.4.1-.6.6-1.2 1.6-1.5 1.2-.4 3.8-.7 7-1 4.8-.6 12-1.5 12.8-3 .2-.3-.4-1-1-1.6l-1-1.2c-.8-1.5-.6-3 0-3.9.3-.6.9-.8 1.4-.8.8.1 1.2 1 1.6 2 .3.7.5 1.4.9 1.9.3.5 1.1 1.2 2 1.9 1.2 1 2.6 2.3 3.1 3.5.4.9.4 2.1.5 3.4 0 1.5 0 3 .6 4 .2.3.3 1.4.2 2.2 0 1.8-1 3.3-2.7 4l-1.5.2c-1.1 0-2.2-.4-3-1.3z" mask="url(#b)"/><path fill="#FFF4DD" d="M525.8 176.4h.2c.2 0 .4-.2.4-.4 0-.3-.2-.4-.4-.4-1.5 0-3.1-.2-4.6-.5-2.5-.3-4-.5-4.2.4a.4.4 0 00.8.2c.3-.2 2 0 3.3.3 1.4.2 3 .4 4.5.4m-9.9-1.5c.2 0 .4-.1.4-.3.2-1 3.8-1 6.5-.9h3.3c.3 0 .4-.2.4-.4s-.2-.4-.4-.4h-3.3c-3.6-.1-7-.2-7.3 1.5a.4.4 0 00.4.5" mask="url(#b)"/><path fill="#FFF4DD" d="M515 173.8l.3-.3c.4-1.1 4.5-1.3 7.3-1.4l3.6-.3a.4.4 0 000-.8l-3.7.2c-4.5.3-7.5.5-8 2a.4.4 0 00.4.6" mask="url(#b)"/><path fill="#F4E6C6" d="M535.2 175.6c.1 0 .3 0 .4-.2 0-.2 0-.5-.3-.6-.2 0-.7-.4-1-1.1-.3-.9 0-2.1.7-3.5.1-.2 0-.4-.1-.5a.4.4 0 00-.6.1c-.9 1.6-1.1 3-.7 4.2.3 1 1.1 1.4 1.4 1.6h.2" mask="url(#b)"/><path fill="#FDBD4E" d="M624.4 213.3c5-4.5 11-11.2 16.4-15.7 4.2-3.5 7.2-5.1 7.3-5.6.5-3.7-6-27.5-6-27.5l14.4-13.2a73.8 73.8 0 0114.2 52.7c-3.5 10.5-40.3 22.6-45.3 14.3-1.8-.3-1-5-1-5" mask="url(#b)"/><path fill="#E59C28" d="M634.6 221.1c3.1 0 8-.3 14.1-2a.5.5 0 00-.2-1A44 44 0 01631 220c-1.2-.2-4.3-4.1-6.2-6.7 1.5-1.7 9-10.2 13.8-14.2 2.3-1.9 5-3.5 6.9-4.8 2.5-1.6 3-1.9 2.9-2.4-1.2-6-5.9-17.6-6-18.1a.5.5 0 00-.9.4s4.6 11.7 6 17.7l-2.5 1.6c-2 1.3-4.6 3-7 4.9-5.3 4.4-14 14.5-14.2 14.6l-.2.3.2.3c.8 1.1 5.1 7 7 7.3.1 0 1.5.2 3.8.2" mask="url(#b)"/><path fill="#FFF4DD" d="M643.7 221.5c-4.7 2.2-17 5.9-17.8 6-1.2.2-4.9-3.6-4.7-6.7 0-.7.5-1.8 1.1-3.2l21.4 3.9z" mask="url(#b)"/><path fill="#F4E6C6" d="M625.5 227.3c-1.2.3-8.4-3.6-8.3-6.7.2-2.6 6.5-13.2 8-13.2 4.7.3 11.2 12 10.5 12.8-1.5 2-9.3 7-10.2 7.1" mask="url(#b)"/><path fill="#FFF4DD" d="M619.3 222.8a45.4 45.4 0 018.2-10.7.4.4 0 00-.6-.6c-2.5 2.2-7.4 9-8 10.8-.1.2 0 .4.2.5h.2m2.3 1.6c.2 0 .3 0 .4-.2 1-2.3 5.8-7.4 8.6-9.3a.4.4 0 00-.5-.7c-2.9 2-7.8 7.2-8.9 9.6a.4.4 0 00.4.6m2.4 1.9c.2 0 .3 0 .4-.2 1-2 5.3-5.6 8-7.5a.4.4 0 00-.4-.6 29.6 29.6 0 00-8.3 7.7.4.4 0 00.3.6" mask="url(#b)"/><path fill="#FAAA36" d="M469.2 121.5c0 29.5 24 53.3 53.7 53.4a53.5 53.5 0 0053.8-53.3c0-29.5-24-53.3-53.7-53.3a53.5 53.5 0 00-53.8 53.2" mask="url(#b)"/><path fill="#FAAA36" d="M477.8 121.5a45 45 0 0045.1 44.8 45 45 0 0045.2-44.7A45 45 0 00523 76.8a45 45 0 00-45.2 44.7" mask="url(#b)"/><path fill="#FCBA3F" d="M480.3 121.5c0 23.4 19 42.3 42.6 42.3a42.4 42.4 0 0042.7-42.2c0-23.4-19-42.3-42.6-42.3a42.4 42.4 0 00-42.7 42.2" mask="url(#b)"/><path fill="#FAAA36" d="M537.8 100.3c1.5 0 2.8-1.5 2.8-3.3 0-1.8-1.3-3.3-2.8-3.3h-28.4c-1.6 0-2.8 1.5-2.8 3.3 0 1.8 1.2 3.3 2.8 3.3h11.4c3.6 0 6.8 2.8 8 6.6h-19.4c-1.6 0-2.8 1.5-2.8 3.3 0 1.8 1.2 3.3 2.8 3.3h19.3c-1.1 3.8-4.3 6.6-8 6.6h-11.3c-.4 0-.7 0-1 .2-.8.4-1.3 1-1.6 1.8a3.8 3.8 0 00.6 3.6l22.7 26.4c.5.6 1.3 1 2 1s1.4-.4 2-1a3.7 3.7 0 000-4.7l-17.8-20.7h4.5c6.8 0 12.5-5.7 13.8-13.2h3.2c1.5 0 2.8-1.5 2.8-3.3 0-1.8-1.3-3.3-2.8-3.3h-3.2c-.4-2.4-1.3-4.7-2.6-6.6h5.8z" mask="url(#b)"/><path fill="#F6C8B2" d="M282.2 123.6v267.3c0 5.9-4.5 10.6-10 10.6H146.4c-5.5 0-10-4.7-10-10.6V123.6c0-5.8 4.5-10.6 10-10.6h125.8c5.5 0 10 4.8 10 10.6" mask="url(#b)"/><path fill="#FFF" d="M136.4 147.6v243.3c0 5.9 4.5 10.6 10 10.6h125.8c5.5 0 10-4.7 10-10.6V147.6H136.4z" mask="url(#b)"/><path fill="#FFF4DD" d="M282.7 179.5v222H239c-5.6 0-10-4.7-10-10.6V179.5h53.7zm-111.5 68.3h-18.8a2.5 2.5 0 010-5h18.8a2.5 2.5 0 010 5m38.3 15.5h-57.1a2.5 2.5 0 010-4.9h57.1a2.5 2.5 0 010 5m0 12.3h-57.1a2.5 2.5 0 010-5h57.1a2.5 2.5 0 010 5" mask="url(#b)"/><path fill="#F4E6C6" d="M203 306.8h-28.6c-4.8 0-8.7-4-8.7-8.8v-2.3c0-4.8 4-8.7 8.7-8.7H203c4.8 0 8.7 3.9 8.7 8.7v2.3c0 4.8-3.9 8.8-8.7 8.8" mask="url(#b)"/><path fill="#E59C28" d="M183 298c0 .2 0 .5-.2.7l-.4.5c-.2.1-.4.3-.7.3a2.6 2.6 0 01-1.2 0 2.6 2.6 0 01-.8-.2h-.1l-.1-.2v-.3a2.5 2.5 0 010-.4H179.8a2.8 2.8 0 00.6.3 1.8 1.8 0 001 0l.2-.1.2-.2v-.3-.3l-.3-.3-.4-.2a23 23 0 01-.8-.4c-.2 0-.3-.2-.4-.3l-.3-.4v-.6-.7l.5-.4c.1-.2.3-.3.6-.3a2.5 2.5 0 011.9.2v.1a1.2 1.2 0 010 .3 2.3 2.3 0 010 .4h-.2a4 4 0 00-.6-.2h-.4a1 1 0 00-.3 0h-.3l-.1.3v.5l.3.2.4.2a12.7 12.7 0 01.8.4l.4.4a1.4 1.4 0 01.4 1m4 1.1V299.4l-.1.1H184h-.2l-.1-.3v-4.7-.2l.3-.1H187v.2a1.5 1.5 0 010 .4v.2h-2.1v1.3h1.7l.1.1v.2a1.6 1.6 0 010 .5H184.9v1.6h2v.4m5.5 0v.2a.3.3 0 01-.3.2H191.5a1 1 0 01-.3 0h-.2l-.1-.3-.2-.3-1.4-2.5a11 11 0 01-.4-1 24 24 0 010 1.2v2.9h-.2a1.8 1.8 0 01-.7 0V294.6v-.3l.3-.1H189.4l.1.3.2.2 1 2 .2.3a12.3 12.3 0 01.5 1 35.1 35.1 0 010-1.1v-2.6-.1h.2a2.3 2.3 0 01.7 0v5zm4.4-2.3v-.7l-.3-.6c-.2-.1-.3-.3-.5-.3a2 2 0 00-.8-.2h-.6v3.7h.6l.7-.1.5-.4c.2-.1.3-.3.3-.6l.1-.8m1.2 0c0 .5 0 .9-.2 1.2-.1.4-.3.7-.6.9l-.8.5-1.3.1h-1.3-.2v-5-.2l.2-.1h1.4l1.2.1c.4.1.7.3.9.5.2.3.4.5.5.9l.2 1" mask="url(#b)"/><path fill="#7F786A" d="M284.9 391a13 13 0 01-12.7 13.3H146.4c-7 0-12.7-6-12.7-13.4V123.6a13 13 0 0112.7-13.4h125.8c7 0 12.7 6 12.7 13.4v267.3zm-12.7-283.6H146.4c-8.5 0-15.3 7.2-15.3 16.2v267.3c0 9 6.8 16.3 15.3 16.3h125.8c8.5 0 15.4-7.3 15.4-16.3V123.6c0-9-7-16.2-15.4-16.2z" mask="url(#b)"/><path fill="#7F786A" d="M282.2 391c0 5.8-4.5 10.5-10 10.5H146.4c-5.5 0-10-4.7-10-10.6V123.6c0-5.8 4.5-10.6 10-10.6h125.8c5.5 0 10 4.8 10 10.6v267.3zm-10-280.8H146.4c-7 0-12.7 6-12.7 13.4v267.3c0 3.1 1 6 2.7 8.2a12 12 0 0010 5.2h125.8c7 0 12.7-6 12.7-13.4V123.6a13 13 0 00-12.7-13.4z" mask="url(#b)"/><path fill="#F3F8F7" d="M146.6 129h2.2v-3.2h-2.2zm2.9 0h2.2v-4h-2.2zm2.9 0h2.1v-4.7h-2.1zm2.8 0h2.2v-5.5h-2.2zm114.2 0h-7.6c-.9 0-1.6-.7-1.6-1.5V125c0-.8.7-1.5 1.6-1.5h7.6c.9 0 1.6.7 1.6 1.5v2.5c0 .8-.7 1.5-1.6 1.5m1.9-3.9v2.3c.4 0 .7-.6.7-1.1 0-.6-.3-1.1-.7-1.2" mask="url(#b)"/><path fill="#D4DAE3" d="M258.7 175.8v6.2a10 10 0 009.8 10 10 10 0 0010-10v-6.2h-19.8z" mask="url(#b)"/><path fill="#F3F8F7" d="M278.4 175.8l-8.5-28.3h-17.3l6 28.3z" mask="url(#b)"/><path fill="#F6C8B2" d="M258.7 175.8l-6.1-28.3h-17.3l3.6 28.3z" mask="url(#b)"/><path fill="#E8BAAA" d="M239 175.8v6.2a10 10 0 009.8 10 10 10 0 009.9-10v-6.2h-19.8z" mask="url(#b)"/><path fill="#F3F8F7" d="M239 175.8l-3.7-28.3H218l1.2 28.3z" mask="url(#b)"/><path fill="#D4DAE3" d="M219.2 175.8v6.2a10 10 0 009.9 10 10 10 0 009.8-10v-6.2h-19.7z" mask="url(#b)"/><path fill="#F6C8B2" d="M219.2 175.8l-1.2-28.3h-17.3l-1.3 28.3z" mask="url(#b)"/><path fill="#E8BAAA" d="M199.4 175.8v6.2a10 10 0 009.9 10 10 10 0 009.9-10v-6.2h-19.8z" mask="url(#b)"/><path fill="#F3F8F7" d="M199.4 175.8l1.3-28.3h-17.4l-3.6 28.3z" mask="url(#b)"/><path fill="#D4DAE3" d="M179.7 175.8v6.2a10 10 0 009.9 10 10 10 0 009.8-10v-6.2h-19.7z" mask="url(#b)"/><path fill="#E8BAAA" d="M160 175.8v6.2a10 10 0 009.8 10 10 10 0 009.9-10v-6.2h-19.8z" mask="url(#b)"/><path fill="#F6C8B2" d="M179.7 175.8l3.6-28.3H166l-6 28.3z" mask="url(#b)"/><path fill="#F3F8F7" d="M160 175.8l6-28.3h-17.3l-8.5 28.3z" mask="url(#b)"/><path fill="#D4DAE3" d="M140.2 175.8v6.2a10 10 0 009.9 10 10 10 0 009.8-10v-6.2h-19.7z" mask="url(#b)"/><path fill="#E8BAAA" d="M120.4 175.8v6.2a10 10 0 1019.7 0v-6.2h-19.7z" mask="url(#b)"/><path fill="#F6C8B2" d="M148.7 147.5h-17.3l-11 28.3h19.8zm149.5 28.3l-11-28.3h-17.3l8.5 28.3z" mask="url(#b)"/><path fill="#E8BAAA" d="M278.4 175.8v6.2a10 10 0 009.9 10 10 10 0 009.9-10v-6.2h-19.8z" mask="url(#b)"/><path fill="#7F786A" d="M131.4 147.5h155.8v-8H131.4z" mask="url(#b)"/><path fill="#7F786A" d="M131.4 142.8h155.8v-1.5H131.4z" mask="url(#b)"/><path fill="#FD9F00" d="M316.3 392.3v10.5c0 3.6-19.3 6.5-43.2 6.5-23.8 0-43.1-2.9-43.1-6.5v-10.5h86.3z" mask="url(#b)"/><g transform="translate(229 392)"><mask id="d" fill="#fff"><use xlink:href="#c"/></mask><path fill="#E38601" d="M84 19.5h2V-4h-2zm-5.3 0h2V-4h-2zm-6 0h2V-4h-2zm-7.5 0h2V-4h-2zm-8.3 0h2V-4h-2zm-9 0h2V-4h-2zm-46.1 0h2V-4h-2zm5.3 0h2V-4h-2zm6 0h2V-4h-2zm7.5 0h2V-4h-2zm8.3 0h2V-4h-2zm9 0h2V-4h-2z" mask="url(#d)"/></g><path fill="#FAC61B" d="M229.8 392.7c0 3.5 19.5 6.4 43.4 6.4 24 0 43.4-2.9 43.4-6.4 0-3.6-19.4-6.5-43.4-6.5s-43.4 2.9-43.4 6.5"/><path fill="#FD9F00" d="M238.7 392c0 1.6 15.5 3 34.5 3s34.5-1.4 34.5-3c0-1.7-15.4-3-34.5-3s-34.5 1.3-34.5 3"/><path fill="#E38601" d="M306.2 392.8a176 176 0 00-33-2 176 176 0 00-33 2c-1-.2-1.5-.5-1.5-.8 0-1.7 15.5-3 34.5-3s34.5 1.3 34.5 3c0 .3-.5.6-1.5.8"/><path fill="#FD9F00" d="M322.9 381.3v10.2c0 3.6-19.5 6.5-43.4 6.5-24 0-43.4-3-43.4-6.5v-10.2H323z"/><g transform="translate(236 381)"><mask id="f" fill="#fff"><use xlink:href="#e"/></mask><path fill="#E38601" d="M83.9 19.6h2V-4h-2zm-5.3 0h2V-4h-2zm-6 0h2V-4h-2zm-7.6 0h2V-4h-2zm-8.3 0h2V-4h-2zm-9 0h2V-4h-2zm-46.1 0h2V-4h-2zm5.3 0h2V-4H7zm6 0h2V-4h-2zm7.6 0h2V-4h-2zm8.2 0h2V-4h-2zm9 0h2.1V-4h-2z" mask="url(#f)"/></g><g><path fill="#FAC61B" d="M236.1 380.7c0 3.5 19.4 6.4 43.4 6.4s43.4-2.9 43.4-6.4c0-3.6-19.5-6.4-43.4-6.4-24 0-43.4 2.8-43.4 6.4"/><path fill="#FD9F00" d="M245 380c0 1.7 15.5 3 34.5 3s34.5-1.3 34.5-3c0-1.6-15.5-3-34.5-3s-34.5 1.4-34.5 3"/><path fill="#E38601" d="M312.5 380.9c-4.3-1.2-17.5-2.1-33-2.1-15.6 0-28.7.9-33 2-1-.2-1.5-.5-1.5-.8 0-1.6 15.5-3 34.5-3s34.5 1.4 34.5 3c0 .3-.6.6-1.5.9"/><path fill="#FD9F00" d="M315.8 369.2v10.3c0 3.5-19.4 6.4-43.4 6.4s-43.3-2.9-43.3-6.4v-10.3h86.7z"/></g><g transform="translate(229 369)"><mask id="h" fill="#fff"><use xlink:href="#g"/></mask><path fill="#E38601" d="M83.3 19.5h2V-4h-2zm-5.3 0h2V-4h-2zm-6 0h2V-4h-2zm-7.6 0h2V-4h-2zm-8.2 0h2V-4h-2zm-9 0h2V-4h-2zM1 19.5h2V-4H1zm5.3 0h2V-4h-2zm6 0h2.1V-4h-2zm7.6 0h2V-4h-2zm8.3 0h2V-4h-2zm9 0h2V-4h-2z" mask="url(#h)"/></g><g><path fill="#FAC61B" d="M229 368.5c0 3.6 19.4 6.6 43.2 6.6 23.8 0 43.1-3 43.1-6.6 0-3.6-19.3-6.5-43.1-6.5s-43.1 3-43.1 6.5"/><path fill="#FD9F00" d="M238 367.9c0 1.6 15.3 3 34.2 3 19 0 34.3-1.4 34.3-3 0-1.7-15.4-3-34.3-3-19 0-34.3 1.3-34.3 3"/><path fill="#E38601" d="M305 368.7c-4.3-1.2-17.3-2.1-32.8-2.1-15.5 0-28.5.9-32.8 2.1-1-.2-1.5-.5-1.5-.8 0-1.7 15.4-3 34.3-3 19 0 34.3 1.3 34.3 3 0 .3-.6.6-1.5.8"/></g></g></svg>