<svg xmlns="http://www.w3.org/2000/svg" xmlns:xlink="http://www.w3.org/1999/xlink" width="665" height="344" viewBox="0 0 665 344">
    <defs>
        <path id="prefix__a" d="M0.995 0.653L645.951 0.653 645.951 328.522 0.995 328.522z"/>
        <path id="prefix__c" d="M3.531 3.373S2.501 2.12.894.061C2.142 2.99 3.531 3.373 3.531 3.373"/>
        <path id="prefix__f" d="M1 0.378L1.534 0.378 1.534 1.39 1 1.39z"/>
        <linearGradient id="prefix__d" x1="59.852%" x2="35.087%" y1="73.915%" y2="21.627%">
            <stop offset="0%" stop-color="#DBEBFF"/>
            <stop offset="100%" stop-color="#FFF"/>
        </linearGradient>
    </defs>
    <g fill="none" fill-rule="evenodd">
        <g>
            <path fill="#F7E8C8" d="M653.356 329.824c0 6.719-146.179 12.163-326.5 12.163S.356 336.543.356 329.824c0-6.717 146.179-12.162 326.5-12.162s326.5 5.445 326.5 12.162" transform="translate(4 .36)"/>
            <g transform="translate(4 .36) translate(15)">
                <mask id="prefix__b" fill="#fff">
                    <use xlink:href="#prefix__a"/>
                </mask>
                <path fill="#FFF4DD" d="M460.482 47.186c-15.585 0-30.718 1.466-45.182 4.212C371.3 19.937 311.998.652 246.754.652 111.024.652.994 84.104.994 187.047c0 56.592 33.255 107.29 85.749 141.475H460.482c102.432 0 185.469-62.979 185.469-140.669 0-77.688-83.037-140.667-185.47-140.667" mask="url(#prefix__b)"/>
            </g>
            <path fill="#619340" d="M580.894 132.436c-1.696-1.773-2.29-4.374-1.408-6.676 1.2-3.136 1.86-6.544 1.86-10.11 0-6.025-1.881-11.605-5.08-16.177-1.377-1.97-1.541-4.593-.421-6.727 1.864-3.553 2.922-7.605 2.922-11.908 0-13.938-10.92-25.197-24.694-25.447-14.101-.253-25.611 11.236-25.611 25.446 0 4.297 1.055 8.344 2.914 11.894 1.12 2.139.968 4.766-.415 6.742-3.197 4.572-5.08 10.152-5.08 16.178 0 3.566.662 6.973 1.862 10.109.879 2.297.295 4.896-1.398 6.665-7.07 7.385-11.234 17.632-10.632 28.857 1.049 19.544 16.785 35.324 36.109 36.223 21.779 1.014 39.75-16.552 39.75-38.364 0-10.378-4.067-19.794-10.678-26.705" transform="translate(4 .36)"/>
            <path fill="#316C35" d="M554.847 192.514c2.141-3.207 4.476-6.33 6.897-9.373 2.54-3.19 5.193-6.3 7.97-9.31 2.764-3.019 5.636-5.954 8.64-8.764 2.968-2.847 6.126-5.507 9.322-8.124-3.245 2.56-6.457 5.169-9.482 7.968-3.062 2.761-5.996 5.652-8.826 8.63-2.84 2.972-5.563 6.044-8.17 9.202-2.185 2.645-4.29 5.34-6.284 8.128l.587-14.294.365-8.875.093-2.29c2.882-2.03 5.615-4.199 8.272-6.461 2.741-2.347 5.37-4.808 7.87-7.382 2.473-2.599 4.797-5.322 6.92-8.183.835-1.171 1.63-2.37 2.376-3.592v-.252c-.806 1.268-1.663 2.509-2.564 3.72-2.179 2.809-4.552 5.472-7.069 8.01-2.545 2.513-5.214 4.908-7.99 7.188-2.506 2.047-5.097 4.019-7.769 5.85l.043-1.046c.06-1.48.058-2.96.09-4.44l.063-3.872c.023-.054.044-.107.051-.16l-.049-.003.132-7.996c2.388-1.976 4.686-4.023 6.945-6.116 2.28-2.128 4.518-4.296 6.653-6.555 2.13-2.261 4.226-4.557 6.122-7 1.344-1.726 2.625-3.5 3.765-5.353v-.117c-1.199 1.854-2.542 3.622-3.948 5.338-1.95 2.392-4.098 4.631-6.276 6.836-2.185 2.201-4.469 4.311-6.793 6.377-2.104 1.859-4.255 3.677-6.449 5.428l.075-4.567.145-8.878-.002-.206c1.953-2.202 3.808-4.46 5.608-6.766 1.897-2.444 3.73-4.936 5.428-7.51 1.695-2.571 3.328-5.186 4.697-7.929 1.37-2.736 2.584-5.56 3.267-8.518-.758 2.942-2.04 5.729-3.474 8.422-1.432 2.7-3.125 5.269-4.877 7.791-1.756 2.521-3.642 4.96-5.593 7.35-1.635 1.993-3.328 3.947-5.069 5.851l-.073-7.365-.139-12.124c1.46-2.131 2.85-4.29 4.208-6.47 1.36-2.185 2.67-4.395 3.915-6.638 1.25-2.24 2.442-4.51 3.498-6.839 1.051-2.325 2.036-4.693 2.63-7.16-.669 2.45-1.723 4.783-2.84 7.072-1.123 2.29-2.38 4.522-3.693 6.72-2.4 4.026-5.007 7.947-7.735 11.775l-.046-4.092c-.208-4.788-.385-9.576-.594-14.362 1.8-2.711 3.495-5.47 5.052-8.305.781-1.418 1.523-2.855 2.187-4.326.658-1.469 1.28-2.964 1.65-4.523-.427 1.547-1.1 3.015-1.808 4.457-.713 1.443-1.505 2.85-2.333 4.238-1.493 2.506-3.114 4.946-4.799 7.335-.175-3.895-.376-7.79-.638-11.682 1.334-1.728 2.53-3.52 3.615-5.38 1.08-1.866 2.031-3.806 2.694-5.833-.773 1.993-1.822 3.87-2.993 5.67-1.036 1.577-2.178 3.099-3.387 4.554-.169-2.415-.356-4.827-.583-7.237h-.58c.3 3.474.523 6.95.71 10.429-1.784-1.62-3.438-3.405-4.919-5.299-1.599-2.055-2.986-4.273-3.97-6.67.875 2.436 2.168 4.726 3.686 6.86 1.527 2.136 3.234 4.144 5.162 5.994l.082-.084c.267 5.145.447 10.294.613 15.444-.65-.503-1.234-1.13-1.776-1.768-.727-.867-1.388-1.792-2.019-2.735-1.256-1.89-2.385-3.863-3.46-5.86-2.14-4.003-4.076-8.11-5.862-12.272 1.68 4.204 3.51 8.356 5.55 12.42 1.027 2.028 2.11 4.033 3.328 5.973.614.967 1.26 1.921 1.983 2.829.657.808 1.37 1.596 2.282 2.23.084 2.644.168 5.285.26 7.926l.054 16.225c-1.223-.934-2.355-2.084-3.377-3.265-1.202-1.413-2.31-2.903-3.31-4.462-2.015-3.11-3.704-6.418-5.104-9.834-.76-1.687-1.334-3.442-1.982-5.172-.6-1.745-1.116-3.518-1.668-5.278l-1.383-5.358-1.155-5.41 1.042 5.434c.402 1.8.85 3.593 1.272 5.39.517 1.774.995 3.562 1.561 5.324.613 1.747 1.152 3.52 1.881 5.23 1.337 3.462 2.967 6.828 4.94 10.017.981 1.598 2.076 3.135 3.274 4.602 1.186 1.416 2.43 2.755 4.012 3.899l.001.401.016 8.87-.133 5.415c-2.722-2.635-5.16-5.534-7.37-8.591-2.308-3.312-4.38-6.774-6.269-10.328-1.854-3.572-3.533-7.226-5.05-10.944-1.074-2.653-2.078-5.335-2.98-8.046h-.07c.852 2.736 1.807 5.442 2.833 8.123 1.448 3.75 3.06 7.444 4.851 11.061 1.827 3.6 3.843 7.117 6.104 10.499 2.324 3.342 4.906 6.533 7.87 9.418l.053-.052-.056 2.318-.305 12.43c-.029-.034-.06-.065-.089-.097-.38-.435-.75-.883-1.116-1.337-.73-.906-1.44-1.832-2.14-2.765-1.399-1.867-2.75-3.768-4.075-5.686-2.645-3.84-5.17-7.757-7.58-11.735-4.192-6.936-8.062-14.062-11.368-21.428h-.065c3.186 7.427 6.943 14.628 11.028 21.644 2.35 4.024 4.813 7.987 7.401 11.878 1.296 1.945 2.62 3.871 3.994 5.77.687.948 1.387 1.891 2.111 2.82.362.465.73.925 1.115 1.38.194.227.39.452.6.675.048.05.103.101.153.152l-.099 4.04c-.044 1.478-.055 2.957-.126 4.436l-.219 4.431-.09 1.849c-.137-.112-.274-.222-.408-.339-.43-.383-.849-.786-1.262-1.195-.826-.82-1.626-1.668-2.412-2.527-1.57-1.722-3.085-3.495-4.558-5.297-2.945-3.61-5.73-7.337-8.36-11.164-3.184-4.647-6.147-9.442-8.79-14.393h-.204c2.573 5.025 5.475 9.9 8.604 14.631 2.57 3.878 5.301 7.659 8.197 11.327 1.45 1.833 2.94 3.637 4.493 5.396.78.879 1.571 1.748 2.396 2.593.414.423.835.84 1.277 1.246.222.203.447.403.694.597.086.068.184.136.28.202l-.293 5.94-.767 15.6c-1.6-3.817-3.34-7.57-5.268-11.245-2.259-4.27-14.092-19.777-16.848-23.77-2.759-3.992-5.41-8.054-7.96-12.173 2.484 4.157 5.07 8.257 7.765 12.294 2.695 4.035 14.232 19.652 16.421 23.943 2.143 4.25 4.061 8.619 5.77 13.041 0 .24.005 1.016.014 2.233-4.042-4.436-8.434-8.516-12.99-12.374-4.865-4.111-16.437-12.915-21.543-16.7 5.021 3.9 16.505 12.815 21.266 17.026 4.695 4.16 9.205 8.54 13.277 13.302.108 13.354.203 103.976.42 122.334l2.17-.068c-.515-19.504-1.282-113.723-1.184-121.95 1.143-1.166 2.472-2.221 3.844-3.163 1.85-1.263 3.855-2.32 5.938-3.218 2.107-.843 4.274-1.575 6.51-2.067 1.105-.298 2.247-.43 3.371-.654.518-.075 1.038-.136 1.558-.195v-.06c-.525.043-1.05.087-1.574.147-1.132.187-2.285.285-3.405.548-2.264.424-4.473 1.091-6.637 1.877-2.14.842-4.216 1.852-6.154 3.083-1.194.77-2.332 1.605-3.397 2.54.042-.845.09-1.69.118-2.536l.074-1.814z" transform="translate(4 .36)"/>
            <path fill="#A4B750" d="M581.498 252.01c2.897-1.696 6.21-.76 6.252-.738 1.561-5.824 1.113-11.373-.216-16.236-4.303 4.19-10.142 5.047-6.137 2.795 3.035-1.705 4.27-3.379 5.967-5.036-.49-5.788-1.283-10.407-2.137-13.057-.71.678-2.485 3.404-2.485 3.404l.691-5.8c-.908.048-1.913.405-2.992 1.026l.412 3.127-1.879-2.157c-1.76 1.054-3.664 2.598-5.228 5.018.094.355.335.863.92 1.503 1.26 1.377 2.017 2.012 2.26 2.714.242.703.343 3.263-.039 3.29-.298.022-.199-1.072-.484-1.967-.467-1.47-3.175-3.999-3.806-4.187-1.02.512-1.899 1.745-2.755 2.96.305.285 1.3 2.444 2.57 3.526 2.071 1.76 1.766 2.525 1.766 2.525s-1.632-1.162-2.53-1.636c-.737-.39-3.25-2.127-3.477-2.315-2.418 2.722-4.566 6-6.542 10.554.097.16.223.478.223.478.09.915 5.998 6.963 6.482 8.684.403 1.43-6.168-4.17-6.866-5.369-.663-1.136-.623-1.643-.623-1.643s-.106-.052-.194-.045c-.042.003-.082.003-.123.002-1.607 2.177-2.738 4.596-3.53 7.145.472.509 2.407 2.533 4.652 4.051 2.421 1.636 3.34 5.376 2.974 5.792 0 0-2.112-3.243-3.106-4.047-.963-.78-4.316-2.514-5.126-4.566-2.102 3.138-3.439 6.16-4.046 9.126.117.882.83 2.404 3.898 4.057 4.794 2.584 6.016 5.19 6.016 5.19s-2.828-3.02-6.775-3.844c-2.909-.605-3.944-1.73-4.178-2.657-.745 2.065-1.609 4.006-2.07 5.798-.626 2.43-.845 4.716-1.178 6.846.274.084.61.178 1.062.265.974.189 2.364.152 3.587.743 1.071.517 2.018 1.243 2.902 1.807 1.654 1.053 2.873 1.94 2.763 2.637-.193.315 1.62-1.047-.583-2.24-1.032-.56-4.952-1.006-6.709-1.363-1.24-.253-2.315-.361-3.234-.39-.95 3.684-.946 6.761-.374 9.364.418-.063.831-.142 1.21-.27.778-.262 1.881-.993 3.156-.654 1.124.297 2 .153 2.86.717 1.608 1.055 2.946 1.824 2.912 2.588-.146.352-.98-1.108-3.307-1.89-1.069-.359-2.422.01-4.06.098-1 .053-1.894.303-2.668.648.103 4.174 1.084 7.401 2.67 9.839 2.646-1.412 6.26-2.743 7.568-2.876 1.425-.144-4.338 3.735-6.435 4.89 1.987 3.871 4.632 5.053 4.776 4.946l2.36-3.058c-1.142 1.436-.86 15.194-.86 15.194l1.394-1.634c-.66-1.752 1.017-16.736 2.185-14.12 1.168 2.615 3.54 4.639 3.54 4.639 2.48-.913 4.684-2.293 6.477-4.438-.233.014-.539.01-.942-.024-2.897-.236-4.554-3.243-5.34-4.176-.788-.93-1.065-4.762.884-.695 1.95 4.066 5.373 3.948 5.373 3.948s.371.217.556.445c3.035-2.11 4.905-5.298 6.557-8.775-.062.024-.124.046-.187.06-1.727.433-4.15-.266-5.8-1.596-1.65-1.33-3.849-1.741-3.849-1.741s5.51-.171 8.08 1.428c1.054.656 2.033.375 2.822-.186 2.378-3.192 3.42-7.05 4.206-11.09-.045-.145-.9-1.312-2.737-1.267-4.74.117-2.66-.096-.019-.268l2.806-.208s.176.004.41.078c.368-.84.643-1.761.71-2.866-4.17.84-10.21-1.46-10.21-1.46 9.367-1.068 8.654.088 10.473.285 1.256-3.327 1.97-7.147 1.901-11.668-.05.026-.105.053-.162.08-2.182 1.016-10.772 1.021-9.642.055 1.13-.968 2.993-.42 6.014-.463 2.26-.032 3.418-.789 3.956-1.213 1.164-2.948.98-5.574.594-8.116-6.089.545-10.466 2.175-6.207-.32M498.755 296.67c-4.92-2.214-9.445-5.107-13.226-7.816-.007-.677 3.66-1.603 3.66-1.603s-3.716.49-5.507.572c-4.781-2.652-8.649-4.55-10.766-5.737.815-.112 3.675-.004 3.666.004-1.734-.548-3.498-1.049-5.29-1.495.305-.382.916-.72 1.77-1.01.875.361 1.745.74 2.608 1.132-.45-.506-.897-1.001-1.343-1.488 1.414-.455 3.274-.829 5.7-.71.269.16.624.439.998.922.805 1.044 4.247 3.398 4.358 3.242.09-.126-.823-.516-1.486-.986-1.09-.784-2.467-2.89-2.45-3.227.69-.278 1.923-.238 3.11-.177.15.236 3.762 4.32 3.76 4.316-.002 0-.543-1.22-.7-1.814-.137-.497-.887-2.303-.976-2.47 2.738-.057 5.756.258 9.522 1.313.096.113.303.31.303.31.623.4 3.882 5.935 5.092 7.032.954.857-1.907-4.914-2.597-5.742-.689-.82-1.063-1.023-1.063-1.024 0 0-.017-.072.006-.11.012-.02.02-.037.029-.057 1.913.213 3.85.774 5.78 1.582.265.458 1.322 2.327 2.014 4.142.744 1.946 1.734 3.366 2.08 3.395-.004-.004-.429-1.75-.825-2.616-.397-.846-1.032-3.294-2.3-4.636 2.565.465 4.825 1.258 6.907 2.391.576.483 1.473 1.561 2.164 3.884 1.09 3.634 1.025 2.636 1.017.285-.014-1.736-.608-2.788-1.19-3.351 1.481.633 2.877 1.145 4.111 1.781 1.671.861 3.187 1.851 4.611 2.698.025.178.052.391.06.663.02.58.242 4.703.242 4.703s.593-4.303.67-4.78c2.495 1.266 4.481 2.685 6.149 4.152-.072.187-.154.363-.266.499-.23.282-.8.513-.668 1.321.116.714-.046 1.096.275 1.795.603 1.309.874 1.67.502.117-.17-.714.176-1.24.348-2.043.106-.49.333-.836.615-1.08 2.736 1.919 4.83 3.777 6.43 5.588-1.052.802-3.19 2.014-3.338 2.637-.15.688 2.372-.75 4.676-1.242 2.606 2.55 3.449 4.317 3.364 4.362-.735.037-1.472.063-2.216.08 7.436 2.492 10.116 10.71 9.596 12.433-.394.094-.486.183-.882.269.587-6.236-8.2-13.067-9.17-11.506 0 0 2.112 3.937 2.114 3.938-.687.963-.499 1.245-2.144 1.35.014-.116.014-.277-.004-.5-.142-1.59-2.313-3.645-2.957-4.449-.65-.789-3.406-2.556-.535.171 2.903 2.689 2.793 4.382 2.783 4.394 0 0 .156.279.325.464-1.642.758-4.123.43-6.84-.263.021-.02.04-.044.054-.069.4-.706-.033-2.27-.933-3.721-.903-1.454-1.07-2.78-1.072-2.78.004 0 .82 6.054.355 6.208-2.548-.219-5.579-1.532-8.736-3.16-.109-.094-.574-3.44-.936-2.179l-.402 1.327s-.011.093.024.249c-.675-.238-1.409-.567-2.264-1.101.176-2.2 1.74-4.93 1.758-4.926-2.869 2.752-2.966 2.977-3.18 4.251-2.684-1.077-8.71-4.968-8.68-4.983 1.083-.547 6.96-4.523 6.09-4.458-.883.06-5.143 1.043-5.59 2.514-.334 1.1-1.404 1.214-1.813 1.257-2.476-.972-4.54-2.434-6.5-3.918 2.353-2.987-.87-.55-.851-.517M601.444 300.894c1.327.861 1.172 2.827 1.159 2.856 3.654-1.237 7.032-3.209 9.859-5.136-3.269-.957-4.59-3.534-2.659-2.224 1.49 1.003 2.721 1.155 4.035 1.565 3.56-1.689 6.437-2.817 8.014-3.576-.596-.259-2.7-.68-2.693-.671 1.284-.212 2.588-.373 3.914-.474-.217-.426-.66-.866-1.281-1.304-.65.188-1.296.394-1.938.616.34-.406.678-.804 1.014-1.195-1.03-.7-2.389-1.403-4.173-1.735-.2.105-.466.31-.75.71-.61.861-.867 1.359-1.254 1.622-.39.256-1.928.887-2.007.715-.063-.138.615-.348 1.11-.682.816-.558 1.866-2.345 1.86-2.675-.502-.395-1.409-.583-2.28-.742-.116.2-1.217 1.142-1.642 2.017-.694 1.417-1.203 1.475-1.202 1.472.002 0 .423-1.083.55-1.63.108-.454.693-2.067.761-2.213-2.01-.558-4.231-.807-7.018-.48-.072.094-.227.246-.227.246-.466.272-2.962 5.033-3.873 5.874-.716.655 1.494-4.407 2.017-5.083.52-.668.798-.795.798-.796 0 0 .014-.068-.003-.11l-.019-.058c-1.41-.147-2.842.041-4.274.468-.204.395-1.015 2.01-1.558 3.64-.582 1.75-2.488 3.513-2.743 3.477.002-.003 1.5-2.187 1.808-2.951.307-.748.818-3.002 1.775-4.068-1.891-.02-3.567.331-5.117 1.045-.433.363-1.112 1.242-1.662 3.365-.87 3.318-2.158 4.865-2.152 4.863.004 0 1.35-2.5 1.4-4.775.042-1.679.498-2.588.936-3.028-1.1.341-2.135.58-3.053.97 1.28-.543-.212.072-3.437 1.764-.021.168-.044.372-.056.63-.024.56.087 1.255-.125 2.079-.189.721-.494 1.45-.726 2.092-.433 1.2-.822 2.119-1.187 2.296-.172.006.495-.814.966-2.34.22-.715.358-1.575.423-2.59.044-.716.027-1.3-.02-1.777-1.856.768-3.342 1.777-4.593 2.892.05.192.106.379.186.53.163.315.577.645.466 1.403-.1.67.012 1.07-.236 1.689-.468 1.155-.817 2.078-1.213 2.297-.185.033.54-.842.843-2.278.136-.659-.106-1.233-.218-2.042-.067-.495-.23-.87-.431-1.16-2.046 1.357-3.619 2.771-4.827 4.231.756.97 1.524 2.436 1.622 3.067.097.695-2.03-1.18-2.631-1.962-1.962 1.99-2.614 3.545-2.553 3.605.54.171 1.082.333 1.626.487-5.506 1.045-7.63 8.512-7.28 10.277.288.161.355.265.644.421-.316-6.147 6.266-11.147 6.95-9.456l-1.626 3.425c.485 1.058.341 1.297 1.548 1.7-.007-.114-.005-.27.013-.483.135-1.513 1.767-3.104 2.255-3.764.491-.645 2.55-1.85.39.264-2.183 2.07-2.134 3.73-2.126 3.743 0 0-.12.24-.249.39 1.192 1.036 3.021 1.175 5.029 1.003-.014-.023-.029-.05-.038-.077-.28-.756.067-2.191.755-3.433.69-1.241.839-2.494.84-2.493-.004-.002.278 2.765-.554 4.56-.341.736-.162 1.151.178 1.386 1.875.257 4.125-.458 6.473-1.452.082-.072.703-.914.577-1.837-.322-2.377-.09-1.39.152-.103l.27 1.36s.007.091-.023.236c.501-.105 1.047-.29 1.684-.65-.715-1.827.182-5.717.168-5.716 1.226 4.383.524 4.434.524 5.43 1.99-.55 4.263-1.596 6.896-3.282-.02-.017-.042-.034-.062-.053-.784-.729-1.552-5.061-.913-4.837.648.221.517 1.355.818 2.86.226 1.127.773 1.436 1.072 1.552 1.837-.487 3.38-1.522 4.846-2.598-1.011-2.842-2.447-4.462-.522-3.2" transform="translate(4 .36)"/>
            <path fill="#A4B750" d="M515.03 259.8s-4.74.541-4.786.165c-1.962-4.118-3.05-9.595-3.928-13.983 1.125.95 2.231 1.108 2.231 1.108s-1.759-1.274-2.401-2.012c-1.159-4.872-2.019-9.033-2.323-11.684.323.218 1.214 1.747 1.209 1.755-.396-1.565-.774-3.133-1.159-4.695.274-.422.626-.626 1.01-.611.091 1.007.199 2.005.324 2.994.047-.933.114-1.884.206-2.852.62.081 1.276.588 2.067 2.105.028.374.039.96-.01 1.815-.1 1.838-.156 2.727-.077 3.46.072.735.629 3.023.744 2.889.082-.104-.207-1.022-.329-1.939-.225-1.476.044-5.012.211-5.506.377 0 .858.745 1.394 1.48-.039.411.157 2.86.064 4.373-.158 2.464.166 2.983.162 2.99-.003.005.158-1.697.312-2.516.114-.652.47-3.366.506-3.658 1.52 1.429 3.404 3.496 6.302 6.838.026.19.109.536.109.536.325.984.473 8.719 1.104 10.269.505 1.453.817-5.892.605-7.388-.226-1.315-.367-1.928-.348-1.944 1.786 1.327 3.612 3.113 5.402 5.199.017.669-.194 7.45.237 7.712.002.013 1.427-4.512.753-6.787 2.851 2.15 6.176 5.718 8.196 8.475.439.903.334 1.713-.037 4.202-.557 3.733 1.059 6.107 1.06 6.13.009.009-1.468-2.79-.443-5.213.7-1.655 1.112-2.76.714-3.764 1.58 1.871 3.129 3.663 4.362 5.449 1.671 2.42 3.031 4.845 4.348 7.12-.082.128-2.555 6.159-2.108 6.84.275.29 1.073-3.88 1.713-4.468.45-.414.885-.663 1.284-.804 2.42 3.944 3.21 5.492 4.385 8.44-.205-.07-1.254 4.755-.841 5.545.256.362 1.223-4.48 1.729-4.076 2.205 4.765 4.164 10.399 4.665 13.024-2.045-1.909-4.728-3.549-5.598-3.731-.906-.28 4.368 4.245 6.061 5.917.946 4.208-.432 5.177-.571 5.04-.977-1.258-1.939-2.487-2.899-3.685 1.604 1.5 6.417 17.4 6.167 17.56-.624-.742-1.229-1.478-1.821-2.207.339-2.233-6.57-19.162-6.468-16.213.225 2.71-1.118 4.627-1.134 4.623-2.312-1.256-4.569-2.895-6.748-5.088.207.027 3.426-2.999 3.607-3.92.198-.93-4.12 3.195-4.216 3.407-3.273-2.182-5.984-5.043-8.711-7.9.065.015.129.03.192.039 1.738.252 6.577-3.605 6.575-3.602.043-.026-7.542 2.322-8.463 1.927-3.324-2.444-5.693-5.306-7.834-8.312-.013-.12 1.036-.115 2.526-.432 1.173-.249 6.17-1.725-.544-.4-.776.127-1.224.225-2.769.075-.612-.576-1.366-1.674-1.805-2.51 3.794-.253 6.998-3.31 6.91-3.333-5.786 2.743-5.776 2.591-7.53 2.488-2.149-2.273-3.796-4.987-5.064-8.489.039.006.078.013.119.018 1.622.198 6.023-1.705 6.023-1.705s-2.331-.368-4.068.411c-1.301.584-2.2.313-2.612.132-1.467-1.958-1.952-4.04-2.45-6.142 3.431-.605 4.507-.98 4.507-.98" transform="translate(4 .36)"/>
            <path fill="#306B34" d="M64.209 218.141s-19.304 6.562-16.678 29.08c2.628 22.519-1.155 49.957-1.155 49.957H57.38s19.602-26.739 5.159-46.773c-14.445-20.035 1.67-32.264 1.67-32.264" transform="translate(4 .36)"/>
            <path fill="#A4B751" d="M62.68 219.544c-3.512 2.933-13.731 13.596-2.718 31.246 13.083 20.97-8.246 46.318-8.246 46.318l-5.283-.36-.057.43H57.38s19.602-26.738 5.158-46.773c-11.592-16.08-3.504-27.125.142-30.86" transform="translate(4 .36)"/>
            <path fill="#4900BC" d="M63.43 218.813c.477-.44.779-.672.779-.672s-1.736.595-4.091 2.025c1.555-.763 2.76-1.18 3.313-1.353" transform="translate(4 .36)"/>
            <path fill="#619440" d="M43.084 272.274c1.03-19.983.234-22.48-7.443-29.079-7.678-6.6-18.497-17.447-18.497-17.447 7.369 14.762 7.22 21.473 8.608 32.335 1.076 8.425 13.585 25.243 19.143 32.364-1.23-2.888-2.324-8.25-1.811-18.173" transform="translate(4 .36)"/>
        </g>
        <g transform="translate(48 290.746)">
            <mask id="prefix__e" fill="#fff">
                <use xlink:href="#prefix__c"/>
            </mask>
            <path fill="url(#prefix__d)" d="M3.531 3.373S2.501 2.12.894.061C2.142 2.99 3.531 3.373 3.531 3.373" mask="url(#prefix__e)"/>
        </g>
        <g>
            <path fill="#306B34" d="M43.35 255.98c-3.832 16.601 4.317 27.758 4.317 27.758H55.7c-.028-5.723.378-11.21 3.04-16.76.142-.294.31-.565.49-.824-1.132-.537-2.392-1.08-3.795-1.625-14.837-5.766-8.254-25.152-12.086-8.55" transform="translate(0 7.36)"/>
            <path fill="#619440" d="M64.18 260.155c-8.155 4.176-5.797 22.07-5.797 22.07l7.664 2.783s-1.376-8.151 3.832-14.513 8.647-3.924 8.647-3.924-6.19-10.591-14.346-6.416M25.073 251.704c-13.693 0-21.352 8.35-21.352 8.35s5.331-2.74 14.867-2.384c9.535.354 8.843 8.55 16.507 16.205 7.665 7.655 14.052 8.749 14.052 8.749s-10.15-14.856-17.589-24.954c-1.309-1.778-.033-5.966-6.485-5.966" transform="translate(0 7.36)"/>
            <g transform="translate(0 7.36) translate(0 262.139)">
                <mask id="prefix__g" fill="#fff">
                    <use xlink:href="#prefix__f"/>
                </mask>
                <path fill="#FAF9FC" d="M1.069.768C1.012.916 1 1 1 1s.022-.083.069-.23" mask="url(#prefix__g)"/>
            </g>
            <path fill="#A4B751" d="M36.177 260.652c-2.555-3.48.098-12.03-16.213-10.04-14.898 1.814-18.4 10.759-18.895 12.296.377-.993 2.76-5.033 17.127-8.32 16.507-3.779 7.762 4.871 15.23 10.34 7.467 5.467 13.56 15.706 13.56 15.706s4.225 7.159 3.24 1.194c-.981-5.965-11.494-17.696-14.05-21.176M86.78 268.108c-7.468-15.41-16.498-14.406-22.502-11.035-8.519 4.782-7.12 24.755-7.12 24.755l1.225.398s.196-3.877.849-10.539c.651-6.66 3.866-16.118 14.283-2.982 10.417 13.134 25.154 15.496 25.154 15.496s-4.422-.683-11.889-16.093" transform="translate(0 7.36)"/>
            <path fill="#A4B751" d="M67.034 248.925c-2.346-1.743-4.728-1.444-6.568-.67-2.323.98-4.94.657-7.086-.655-7.853-4.808-8.454 1.802-8.454 1.802l.212 1.789c.01.012.01.035.01.06.568 3.316 2.407 10.213 10.283 13.279 1.403.548 13.76 5.964 13.76 5.964-1.674-6.86 2.654-17.99-2.157-21.57" transform="translate(0 7.36)"/>
            <path fill="#57575E" d="M46.376 321.794h13.108c4.819 0 8.725-3.952 8.725-8.828v-32.431H37.65v32.431c0 4.876 3.906 8.828 8.725 8.828" transform="translate(0 7.36)"/>
            <path fill="#7F786A" d="M34.671 285.008L71.188 285.008 71.188 280.534 34.671 280.534z" transform="translate(0 7.36)"/>
            <path fill="#FFDDCF" d="M212.01 91.945L212.01 116.384 537.072 116.384 537.072 91.742 374.738 8.079z" transform="translate(0 7.36)"/>
            <path fill="#F7C7BA" d="M218.53 96.569L218.53 108.387 529.949 108.387 529.949 96.084 374.709 16.078z" transform="translate(0 7.36)"/>
            <path fill="#FFDDCF" d="M383.403 51.268c1.012 0 1.833-1.026 1.833-2.29 0-1.263-.821-2.287-1.833-2.287h-18.327c-1.011 0-1.832 1.024-1.832 2.287 0 1.264.821 2.29 1.832 2.29h7.331c2.386 0 4.402 1.918 5.161 4.577h-12.492c-1.011 0-1.832 1.026-1.832 2.29s.821 2.29 1.832 2.29h12.492c-.759 2.659-2.775 4.577-5.161 4.577h-7.331c-.238 0-.476.06-.699.174-.448.234-.807.678-.994 1.24-.187.56-.187 1.19 0 1.75.092.283.228.534.4.746l14.657 18.307c.359.45.829.673 1.298.673.469 0 .938-.223 1.297-.668.715-.893.715-2.343 0-3.236L369.501 69.58h2.906c4.428 0 8.126-3.938 8.976-9.156h2.02c1.012 0 1.833-1.026 1.833-2.29s-.821-2.29-1.833-2.29h-2.02c-.274-1.701-.883-3.24-1.693-4.577h3.713zM213.949 321.05L531.888 321.05 531.888 293.177 213.949 293.177z" transform="translate(0 7.36)"/>
            <path fill="#EABBAB" d="M210.07 321.05L539.011 321.05 539.011 307.113 210.07 307.113z" transform="translate(0 7.36)"/>
            <path fill="#F7C7BA" d="M243.393 293.177L284.321 293.177 284.321 282.425 243.393 282.425zM243.393 127.135L284.321 127.135 284.321 116.385 243.393 116.385z" transform="translate(0 7.36)"/>
            <path fill="#FFDDCF" d="M247.328 282.425L280.385 282.425 280.385 127.135 247.328 127.135z" transform="translate(0 7.36)"/>
            <path fill="#F7C7BA" d="M247.329 127.135L280.386 135.285 280.386 127.135z" transform="translate(0 7.36)"/>
            <path fill="#EABBAB" d="M299.754 293.177L340.682 293.177 340.682 282.425 299.754 282.425z" transform="translate(0 7.36)"/>
            <path fill="#F7C7BA" d="M299.754 127.135L340.682 127.135 340.682 116.385 299.754 116.385z" transform="translate(0 7.36)"/>
            <path fill="#FFDDCF" d="M303.69 282.425L336.747 282.425 336.747 127.135 303.69 127.135z" transform="translate(0 7.36)"/>
            <path fill="#F7C7BA" d="M303.69 127.135L336.747 135.285 336.747 127.135z" transform="translate(0 7.36)"/>
            <path fill="#EABBAB" d="M410.856 293.177L451.784 293.177 451.784 282.425 410.856 282.425z" transform="translate(0 7.36)"/>
            <path fill="#F7C7BA" d="M410.856 127.135L451.784 127.135 451.784 116.385 410.856 116.385z" transform="translate(0 7.36)"/>
            <path fill="#FFDDCF" d="M414.792 282.425L447.849 282.425 447.849 127.135 414.792 127.135z" transform="translate(0 7.36)"/>
            <path fill="#F7C7BA" d="M414.792 127.135L447.849 135.285 447.849 127.135z" transform="translate(0 7.36)"/>
            <path fill="#EABBAB" d="M464.761 293.177L505.689 293.177 505.689 282.425 464.761 282.425z" transform="translate(0 7.36)"/>
            <path fill="#F7C7BA" d="M464.761 127.135L505.689 127.135 505.689 116.385 464.761 116.385z" transform="translate(0 7.36)"/>
            <path fill="#FFDDCF" d="M468.697 282.425L501.754 282.425 501.754 127.135 468.697 127.135z" transform="translate(0 7.36)"/>
            <path fill="#F7C7BA" d="M468.696 127.135L501.753 135.285 501.753 127.135z" transform="translate(0 7.36)"/>
            <path fill="#EABBAB" d="M348.841 298.1L402.057 298.1 402.057 297.693 348.841 297.693zM348.841 303.567L402.057 303.567 402.057 303.16 348.841 303.16z" transform="translate(0 7.36)"/>
            <path fill="#FFDDCF" d="M348.841 312.783L402.057 312.783 402.057 312.377 348.841 312.377zM348.841 318.252L402.057 318.252 402.057 317.845 348.841 317.845z" transform="translate(0 7.36)"/>
            <path fill="#EABBAB" d="M233.115 199.736c32.8 0 59.39 26.903 59.39 60.091 0 33.187-26.59 60.091-59.39 60.091s-59.39-26.904-59.39-60.09c0-33.189 26.59-60.092 59.39-60.092" transform="translate(0 7.36)"/>
            <path fill="#FFDDCF" d="M240.018 259.827l10.41-10.533c1.906-1.928 1.906-5.056 0-6.984-1.906-1.93-4.996-1.93-6.902 0l-10.41 10.532-10.41-10.532c-1.907-1.93-4.997-1.93-6.903 0-1.907 1.928-1.907 5.056 0 6.984l10.41 10.533-10.41 10.532c-1.907 1.928-1.907 5.056 0 6.984 1.906 1.93 4.996 1.93 6.903 0l10.41-10.531 10.41 10.531c1.906 1.93 4.996 1.93 6.902 0 1.906-1.928 1.906-5.056 0-6.984l-10.41-10.532z" transform="translate(0 7.36)"/>
            <path fill="#FFAC34" d="M189.78 311.436c18.083-14.916 20.793-41.84 6.05-60.137-14.74-18.297-41.35-21.039-59.434-6.123-18.084 14.915-20.793 41.839-6.052 60.136 14.742 18.297 41.352 21.039 59.436 6.124" transform="translate(0 7.36)"/>
            <path fill="#FFBC3F" d="M183.78 303.989c14.018-11.564 16.118-32.435 4.69-46.62-11.427-14.183-32.055-16.307-46.074-4.745-14.019 11.561-16.119 32.434-4.692 46.618 11.428 14.184 32.057 16.31 46.075 4.747" transform="translate(0 7.36)"/>
            <path fill="#FFA331" d="M176.378 272.889c.821.503 1.987.08 2.602-.945.615-1.025.448-2.268-.373-2.772l-8.925-5.48-5.95-3.652c-.82-.504-1.986-.081-2.6.944-.616 1.026-.449 2.267.372 2.771l5.95 3.654c1.936 1.189 2.64 3.75 1.96 6.287l-10.139-6.225c-.82-.504-1.986-.082-2.6.944-.616 1.026-.449 2.267.372 2.77l10.138 6.226c-1.91 1.781-4.48 2.334-6.417 1.145l-5.95-3.654c-.193-.118-.416-.19-.652-.207-.477-.034-.985.147-1.41.512-.424.359-.732.872-.852 1.418-.064.277-.076.549-.039.806l2.984 22.163c.073.543.345.96.726 1.193.381.234.87.285 1.378.104 1.015-.368 1.721-1.547 1.576-2.627l-2.349-17.44 2.36 1.447c3.593 2.207 8.511.854 11.742-2.957l1.64 1.005c.82.505 1.986.081 2.601-.944.615-1.026.448-2.267-.374-2.771l-1.639-1.007c.606-1.519.861-3.07.855-4.559l3.013 1.85z" transform="translate(0 7.36)"/>
            <path fill="#FFC581" d="M206.006 315.411L212.579 315.411 212.579 313.792 206.006 313.792z" transform="translate(0 7.36)"/>
            <path fill="#A29C8F" d="M206.034 313.792s-2.851 2.777 0 5.661h16.969c.08-.34.44-2.007-.543-3.655-.794-1.329-1.988-1.853-2.381-2.006h-8.127s-2.941 1.743-5.918 0" transform="translate(0 7.36)"/>
            <path fill="#57575E" d="M205.531 321.297L225.426 321.297 225.426 319.453 205.531 319.453zM220.08 313.792c2.657 0 4.811 2.18 4.811 4.87v.791h-2.599c.054-.59.061-1.507-.25-2.555-.487-1.64-1.474-2.662-1.963-3.106" transform="translate(0 7.36)"/>
            <path fill="#FFC581" d="M211.278 310.753L211.68 313.793 206.702 313.959 206.43 310.562z" transform="translate(0 7.36)"/>
            <path fill="#57575E" d="M215.447 316.011L214.605 314.661 216.763 313.284 217.604 314.632z" transform="translate(0 7.36)"/>
            <path fill="#57575E" d="M213.636 316.107L212.926 314.67 215.208 313.515 215.918 314.952z" transform="translate(0 7.36)"/>
            <path fill="#7F786A" d="M211.492 310.866s-5.96-48.078-12.642-85.116c-1.297-7.19-8.418-12.454-15.461-14.087-12.436-2.884-30.774-6.53-42.495-7.207 0 0-.052-9.914-7.447-23.552l-30.991 4.956s-8.916 16.676-8.657 21.807c0 0-4.341 44.236 61.01 32.327l22.462-3.704c7.87 25.9 22.62 59.801 29.184 74.576h5.037z" transform="translate(0 7.36)"/>
            <path fill="#57575E" d="M205.21 311.837L212.209 311.837 212.209 309.286 205.21 309.286z" transform="translate(0 7.36)"/>
            <path fill="#F26D6D" d="M187.344 195.612l1.078.074c.399.029.799.056 1.192.133.846 1.17 2.344 1.903 3.775 1.985.584.034 1.168-.038 1.748-.11.235-.03.449-.09.792-.17.638-.145 1.164-.285 1.339-.332.965-.271 2.905-.816 3.364-2.202.045-.134.42-.74.085-.867-2.244-.838-5.314-1.556-7.36-1.786-.034-.546.109-1.063.536-1.401.264-.208.582-.331.879-.488.298-.156.59-.361.735-.667.144-.304.087-.728-.201-.903-.32-.194-.726-.006-1.05.179l-1.652.947c-.492.282-.994.572-1.377.994-.19.208-.358.455-.616.563-.227.097-.484.069-.728.04l-1.92-.227c-.21 1.398-.41 2.84-.62 4.238" transform="translate(0 7.36)"/>
            <path fill="#FFBF4D" d="M131.96 148.368s1.656 23.105 7.993 35.55c6.054 11.888 47.669 11.857 47.669 11.857l.655-4.554s-17.832-8.155-36.318-11.757c0 0-2.504-18.293-7.467-34.097-.904-2.878-4.406-3.905-6.691-1.963l-5.84 4.964z" transform="translate(0 7.36)"/>
            <path fill="#FFA331" d="M150.17 184.108l-1.233-1.889c1.031-.69 1.774-1.838 1.987-3.07l2.205.389c-.317 1.835-1.423 3.543-2.959 4.57" transform="translate(0 7.36)"/>
            <path fill="#A29C8F" d="M171.381 211.045c-12.219-2.31-28.869-4.166-39.524-4.748 0 0-1.848-16.91-4.205-24.058l-29.367 5.186s-10.47 16.408-10.212 21.53c0 0-2.104 21.46 18.72 30.43h53.341l2.66-.438.08.439c2.386 13.083 12.935 68.217 14.174 74.007l3.97-3.623s3.828-56.158 4.738-70.384c.44-6.866.806-6.06 1.049-12.323.342-8.825-6.844-14.395-15.424-16.018" transform="translate(0 7.36)"/>
            <path fill="#57575E" d="M104.612 184.045c-6.679-4.826-13.194-13.867-10.734-21.196 2.365-7.046 10.977-6.414 13.111-13.392 2.129-6.959-6.16-10.673-6.76-19.508-.915-13.459 16.118-31.397 29.914-28.161 6.315 1.48 12.758 7.59 13.559 14.354.979 8.257-7.196 11.158-6.611 20.204.59 9.135 9.243 11.233 8.219 17.76-1.276 8.13-14.625 7.895-16.78 16.755-1.947 8.006 7.657 13.51 4.779 17.497-3.182 4.406-18.698 2.911-28.697-4.313" transform="translate(0 7.36)"/>
            <path fill="#FFBF4D" d="M140.484 199.854c0-18.703 3.31-32.273 5.5-40.37.48-1.767.389-5.805.473-10.909.064-3.95-2.016-7.618-5.413-9.565l-12.148-6.965-10.63.813c-2.487.191-4.86 1.172-6.732 2.84l-.043.04c-4.34 3.898-7.155 30.633-7.155 30.633-.57 5.41-2.123 13.242-6.728 22.59 4.21 2.452 9.629 5.103 16.192 7.186 9.344 2.966 20.616 3.659 26.684 3.707" transform="translate(0 7.36)"/>
            <path fill="#FFE2B7" d="M124.238 129.249l1.642-8.833 8.736 1.314-1.824 9.868c-.158 1.821 1.713 3.663 3.285 4.565l2.841 1.628c.058 5.327-.26 12.087-2.508 12.63-1.334.323-2.793-1.678-5.027-4.445-2.622-3.246-6.55-7.84-11.939-13.207 1.96-.151 4.292-1.597 4.794-3.52" transform="translate(0 7.36)"/>
            <path fill="#FFC581" d="M131.845 129.9c.432.037.856.015 1.27-.056l1.502-8.113-8.737-1.316-.323 1.741c.368 3.715 2.882 7.452 6.288 7.745" transform="translate(0 7.36)"/>
            <path fill="#FFE2B7" d="M136.414 112.716c.267.29 2.282 2.553 2.27 5.761-.016 4.262-3.605 9.282-7.795 8.924-4.008-.344-6.783-5.46-6.277-9.695.45-3.752 3.57-7.597 7.036-7.557 2.436.027 4.216 1.967 4.766 2.567" transform="translate(0 7.36)"/>
            <path fill="#57575E" d="M140.074 109.096c.38 2.083-4.625 4.463-5.118 4.693-4.255 1.985-10.258 2.21-11.299-.057-.766-1.667 1.251-4.46 3.221-5.875 4.791-3.44 12.748-1.215 13.196 1.239" transform="translate(0 7.36)"/>
            <path fill="#FFC581" d="M175.716 315.322L182.161 315.322 182.161 313.545 175.716 313.545z" transform="translate(0 7.36)"/>
            <path fill="#FFBF4D" d="M113.79 196.217c9.343 2.966 20.625 3.589 26.693 3.638.521-5.269 0-6.586-.965-10.465-3.578-2.322-19.687-8.705-22.337-10.15-3.15-1.72 1.557-14.924-.849-16.986-1.86-1.594-5.163-10.124-10.237-8.61-1.134 6.756-1.77 12.797-1.77 12.797-.57 5.41-2.123 13.241-6.728 22.59 4.21 2.452 9.63 5.103 16.193 7.186" transform="translate(0 7.36)"/>
            <path fill="#57575E" d="M175.644 311.137L181.604 311.137 181.604 308.586 175.644 308.586z" transform="translate(0 7.36)"/>
            <path fill="#A29C8F" d="M175.715 313.545s-2.995 2.917 0 5.948h12.956v-5.948h-6.738s-3.09 1.83-6.218 0" transform="translate(0 7.36)"/>
            <path fill="#57575E" d="M183.615 319.493h10.11v-.832c0-2.825-2.263-5.116-5.055-5.116s-5.055 2.291-5.055 5.116v.832z" transform="translate(0 7.36)"/>
            <path fill="#57575E" d="M175.188 321.297L194.158 321.297 194.158 319.492 175.188 319.492z" transform="translate(0 7.36)"/>
            <path fill="#FFC581" d="M176.082 313.702L181.221 313.702 181.221 311.138 176.082 311.138z" transform="translate(0 7.36)"/>
            <path fill="#57575E" d="M184.23 316.082l-2.206-1.298c.511-.89 1.251-1.622 2.14-2.119l1.234 2.258c-.478.268-.893.68-1.168 1.159" transform="translate(0 7.36)"/>
            <path fill="#57575E" d="M182.452 315.687l-2.03-1.566c.557-.738 1.27-1.377 2.063-1.844l1.284 2.23c-.505.3-.962.706-1.317 1.18" transform="translate(0 7.36)"/>
            <path fill="#FFE2B7" d="M122.64 116.536c.12-1.08 1.082-1.859 2.149-1.738 1.068.12 1.837 1.093 1.719 2.174-.12 1.08-1.081 1.86-2.15 1.738-1.067-.12-1.836-1.093-1.717-2.174" transform="translate(0 7.36)"/>
            <path fill="#FFA331" d="M123.945 118.232c.062-.433-.234-.833-.661-.897-.427-.062-.824.238-.886.669-.062.433.234.835.661.897.428.063.824-.236.886-.67" transform="translate(0 7.36)"/>
            <path fill="#7F786A" d="M163.484 239.644L161.738 237.761 164.453 235.182 166.201 237.063z" transform="translate(0 7.36)"/>
            <path fill="#FFA331" d="M136.074 151.431c-.403 0-.812-.106-1.182-.33-1.498-.901-2.698-2.285-3.663-3.397l-12.6-14.528 1.682-1.494 12.6 14.528c.906 1.043 1.932 2.226 3.126 2.945.379-.415.622-.87.792-1.355.296-.841.383-1.81.468-2.745l.683-7.512 2.229.208-.683 7.51c-.093 1.025-.198 2.188-.587 3.297-.248.704-.6 1.365-1.05 1.964-.443.593-1.122.91-1.815.91" transform="translate(0 7.36)"/>
            <path fill="#7F786A" d="M123.165 207.82l-.507-2.53c3.09-.633 6.242-.765 9.369-.388l-.301 2.563c-2.857-.342-5.737-.223-8.561.355" transform="translate(0 7.36)"/>
            <path fill="#FB9C98" d="M154.025 201.135c-.54-.657-.413-1.912.548-2.709.61-.12 1.496-.252 2.567-.249 3.145.008 5.477 1.163 7.024 1.95.825.42 1.878 1.03 3.023 1.897.593.45.196 1.408-.537 1.295l-11.05-1.683c-.079.01-1.054.131-1.575-.501" transform="translate(0 7.36)"/>
            <path fill="#FFBF4D" d="M119.056 134.361c-4.382-2.41-9.818.22-10.749 5.176-2.076 11.056-5.35 31.867-2.316 39.78 4.218 10.998 48.112 21.644 48.112 21.644l.785-2.65-36.75-22.454s5.994-38.638 1.066-41.413l-.148-.083" transform="translate(0 7.36)"/>
            <path fill="#FFA331" d="M139.035 189.074l-16.165-9.417c-1.394-.81-3.302-1.922-4.243-3.823-.865-1.75-.716-3.718-.596-5.299l1.267-16.682 2.231.174-1.267 16.682c-.103 1.37-.22 2.922.367 4.111.591 1.195 1.87 2.008 3.358 2.876l16.165 9.416-1.117 1.962z" transform="translate(0 7.36)"/>
            <path fill="#EABBAB" d="M129.817 205.753l20.037.053 37.817-38.068c.396-.399.933-.622 1.491-.621l32.271.084c1.857.005 2.8 2.262 1.509 3.613l-36.619 38.33-56.514-.147.008-3.244z" transform="translate(0 7.36)"/>
            <path fill="#EABBAB" d="M186.323 209.143l-56.515-.146.01-3.244 20.036.051 37.817-38.067c.396-.397.932-.62 1.491-.62l1.78.005-.574 37.787-4.045 4.234z" transform="translate(0 7.36)"/>
            <path fill="#FFF4DD" d="M188.385 186.652c2.528-2.063 5.695-2.334 7.075-.604s.449 4.805-2.078 6.87c-2.528 2.063-5.695 2.334-7.075.604s-.45-4.805 2.078-6.87" transform="translate(0 7.36)"/>
            <path fill="#FDC854" d="M66.168 312.476h75.682c2.36 0 4.273 1.935 4.273 4.323 0 2.388-1.914 4.323-4.273 4.323H66.168c-2.36 0-4.272-1.935-4.272-4.323 0-2.388 1.912-4.323 4.272-4.323" transform="translate(0 7.36)"/>
            <path fill="#FDC854" d="M67.928 300.225h72.163c3.33 0 6.032 2.733 6.032 6.103v.045c0 3.37-2.701 6.103-6.032 6.103H67.928c-3.332 0-6.032-2.733-6.032-6.103v-.045c0-3.37 2.7-6.103 6.032-6.103" transform="translate(0 7.36)"/>
            <path fill="#F89F4F" d="M64.199 312.476h79.62c1.273 0 2.304-1.043 2.304-2.33v-1.4H61.896v1.4c0 1.287 1.03 2.33 2.303 2.33" transform="translate(0 7.36)"/>
            <path fill="#FDC854" d="M67.928 287.975h72.163c3.33 0 6.032 2.733 6.032 6.103v.043c0 3.372-2.701 6.104-6.032 6.104H67.928c-3.332 0-6.032-2.732-6.032-6.104v-.043c0-3.37 2.7-6.103 6.032-6.103" transform="translate(0 7.36)"/>
            <path fill="#F89F4F" d="M64.199 300.225h79.62c1.273 0 2.304-1.043 2.304-2.33v-1.398H61.896v1.398c0 1.287 1.03 2.33 2.303 2.33" transform="translate(0 7.36)"/>
            <path fill="#FDC854" d="M63.19 275.724h72.163c3.331 0 6.032 2.732 6.032 6.104v.043c0 3.371-2.7 6.103-6.032 6.103H63.19c-3.332 0-6.032-2.732-6.032-6.103v-.043c0-3.372 2.7-6.104 6.032-6.104" transform="translate(0 7.36)"/>
            <path fill="#F89F4F" d="M59.461 287.975h79.621c1.272 0 2.303-1.043 2.303-2.33v-1.399H57.158v1.399c0 1.287 1.031 2.33 2.303 2.33" transform="translate(0 7.36)"/>
            <path fill="#FDC854" d="M67.928 264.007h72.163c3.33 0 6.032 2.732 6.032 6.103v.043c0 3.37-2.701 6.104-6.032 6.104H67.928c-3.332 0-6.032-2.733-6.032-6.104v-.043c0-3.371 2.7-6.103 6.032-6.103" transform="translate(0 7.36)"/>
            <path fill="#F89F4F" d="M64.199 276.257h79.62c1.273 0 2.304-1.043 2.304-2.331v-1.397H61.896v1.397c0 1.288 1.03 2.331 2.303 2.331" transform="translate(0 7.36)"/>
            <path fill="#FDC854" d="M64.77 251.755h72.162c3.331 0 6.032 2.733 6.032 6.104v.044c0 3.37-2.7 6.103-6.032 6.103H64.77c-3.332 0-6.032-2.733-6.032-6.103v-.043c0-3.372 2.7-6.105 6.032-6.105" transform="translate(0 7.36)"/>
            <path fill="#F89F4F" d="M61.04 264.007h79.621c1.272 0 2.303-1.043 2.303-2.331v-1.399H58.737v1.399c0 1.288 1.031 2.33 2.303 2.33" transform="translate(0 7.36)"/>
            <path fill="#FDC854" d="M63.19 239.505h72.163c3.331 0 6.032 2.733 6.032 6.103v.044c0 3.371-2.7 6.103-6.032 6.103H63.19c-3.332 0-6.032-2.732-6.032-6.103v-.044c0-3.37 2.7-6.103 6.032-6.103" transform="translate(0 7.36)"/>
            <path fill="#F89F4F" d="M59.461 251.755h79.621c1.272 0 2.303-1.042 2.303-2.33v-1.398H57.158v1.398c0 1.288 1.031 2.33 2.303 2.33" transform="translate(0 7.36)"/>
            <path fill="#FDC854" d="M490.286 285.02h54.075c2.487 0 4.504 2.04 4.504 4.557v.005c0 2.516-2.017 4.557-4.504 4.557h-54.075c-2.488 0-4.504-2.041-4.504-4.557v-.005c0-2.517 2.017-4.558 4.504-4.558" transform="translate(0 7.36)"/>
            <path fill="#F89F4F" d="M485.782 292.394c0 .964.77 1.745 1.723 1.745h59.636c.952 0 1.724-.781 1.724-1.745v-.939h-63.083v.94z" transform="translate(0 7.36)"/>
            <path fill="#FDC854" d="M490.286 257.665h54.075c2.487 0 4.504 2.041 4.504 4.557v.004c0 2.518-2.017 4.558-4.504 4.558h-54.075c-2.488 0-4.504-2.04-4.504-4.558v-.004c0-2.516 2.016-4.557 4.504-4.557" transform="translate(0 7.36)"/>
            <path fill="#F89F4F" d="M485.782 265.04c0 .964.77 1.744 1.723 1.744h59.636c.952 0 1.724-.78 1.724-1.744v-.939h-63.083v.94z" transform="translate(0 7.36)"/>
            <path fill="#FFAC34" d="M592.155 314.599c12.879-10.622 14.808-29.797 4.31-42.827-10.498-13.03-29.449-14.982-42.327-4.36-12.879 10.621-14.808 29.796-4.31 42.826 10.499 13.03 29.45 14.983 42.327 4.36" transform="translate(0 7.36)"/>
            <path fill="#FFBC3F" d="M587.883 309.295c9.982-8.235 11.478-23.098 3.34-33.2-8.137-10.101-22.828-11.614-32.811-3.379-9.985 8.233-11.48 23.097-3.343 33.198 8.14 10.102 22.83 11.616 32.814 3.38" transform="translate(0 7.36)"/>
            <path fill="#FFA331" d="M582.611 287.147c.585.359 1.416.058 1.854-.673.438-.73.318-1.614-.267-1.973l-6.356-3.903-4.236-2.601c-.585-.36-1.414-.059-1.852.672-.438.731-.32 1.615.264 1.974l4.238 2.602c1.379.846 1.88 2.67 1.396 4.476l-7.22-4.432c-.586-.36-1.416-.058-1.854.673-.438.73-.318 1.613.267 1.974l7.22 4.432c-1.362 1.268-3.192 1.662-4.57.815l-4.237-2.602c-.139-.085-.297-.135-.466-.148-.339-.024-.7.106-1.004.365-.302.257-.52.621-.606 1.01-.046.197-.054.391-.028.573l2.125 15.784c.053.388.246.683.518.85.27.166.62.204.981.074.722-.263 1.226-1.102 1.122-1.872l-1.673-12.42 1.68 1.032c2.56 1.57 6.063.608 8.363-2.107l1.168.716c.585.36 1.414.06 1.852-.672.439-.73.32-1.613-.265-1.973l-1.168-.717c.432-1.081.614-2.186.609-3.247l2.145 1.318z" transform="translate(0 7.36)"/>
            <path fill="#FDC854" d="M493.74 312.374h54.075c2.488 0 4.504 2.041 4.504 4.558v.004c0 2.516-2.016 4.557-4.504 4.557H493.74c-2.487 0-4.503-2.041-4.503-4.557v-.004c0-2.517 2.016-4.558 4.503-4.558" transform="translate(0 7.36)"/>
            <path fill="#F89F4F" d="M489.237 319.75c0 .962.771 1.743 1.723 1.743h59.636c.952 0 1.724-.781 1.724-1.743v-.94h-63.083v.94z" transform="translate(0 7.36)"/>
            <path fill="#FDC854" d="M493.74 303.256h54.075c2.488 0 4.504 2.04 4.504 4.558v.004c0 2.516-2.016 4.557-4.504 4.557H493.74c-2.487 0-4.503-2.041-4.503-4.557v-.004c0-2.518 2.016-4.558 4.503-4.558" transform="translate(0 7.36)"/>
            <path fill="#F89F4F" d="M489.237 310.632c0 .962.771 1.743 1.723 1.743h59.636c.952 0 1.724-.781 1.724-1.743v-.94h-63.083v.94z" transform="translate(0 7.36)"/>
            <path fill="#FDC854" d="M493.74 294.138h54.075c2.488 0 4.504 2.04 4.504 4.557v.005c0 2.516-2.016 4.557-4.504 4.557H493.74c-2.487 0-4.503-2.041-4.503-4.557v-.005c0-2.517 2.016-4.557 4.503-4.557" transform="translate(0 7.36)"/>
            <path fill="#F89F4F" d="M489.237 301.513c0 .963.771 1.744 1.723 1.744h59.636c.952 0 1.724-.781 1.724-1.744v-.94h-63.083v.94z" transform="translate(0 7.36)"/>
            <path fill="#FDC854" d="M493.74 275.901h54.075c2.488 0 4.504 2.041 4.504 4.557v.006c0 2.516-2.016 4.556-4.504 4.556H493.74c-2.487 0-4.503-2.04-4.503-4.556v-.006c0-2.516 2.016-4.557 4.503-4.557" transform="translate(0 7.36)"/>
            <path fill="#F89F4F" d="M489.237 283.276c0 .964.771 1.744 1.723 1.744h59.636c.952 0 1.724-.78 1.724-1.744v-.939h-63.083v.94z" transform="translate(0 7.36)"/>
            <path fill="#FDC854" d="M491.375 266.783h54.075c2.488 0 4.504 2.041 4.504 4.557v.005c0 2.517-2.016 4.557-4.504 4.557h-54.075c-2.487 0-4.504-2.04-4.504-4.558v-.004c0-2.516 2.017-4.557 4.504-4.557" transform="translate(0 7.36)"/>
            <path fill="#F89F4F" d="M486.871 274.158c0 .964.771 1.744 1.723 1.744h59.637c.952 0 1.723-.78 1.723-1.744v-.939h-63.083v.94z" transform="translate(0 7.36)"/>
            <path fill="#FDC854" d="M492.603 248.547h54.075c2.488 0 4.504 2.04 4.504 4.557v.004c0 2.517-2.016 4.557-4.504 4.557h-54.075c-2.487 0-4.503-2.04-4.503-4.557v-.004c0-2.516 2.016-4.557 4.503-4.557" transform="translate(0 7.36)"/>
            <path fill="#F89F4F" d="M488.1 255.922c0 .962.77 1.744 1.723 1.744h59.636c.952 0 1.724-.782 1.724-1.744v-.939H488.1v.94z" transform="translate(0 7.36)"/>
            <path fill="#FDC854" d="M493.53 239.43h54.075c2.487 0 4.504 2.04 4.504 4.556v.004c0 2.517-2.017 4.557-4.504 4.557H493.53c-2.487 0-4.504-2.04-4.504-4.557v-.004c0-2.516 2.017-4.557 4.504-4.557" transform="translate(0 7.36)"/>
            <path fill="#F89F4F" d="M489.026 246.804c0 .962.771 1.743 1.723 1.743h59.637c.951 0 1.723-.78 1.723-1.743v-.939h-63.083v.94z" transform="translate(0 7.36)"/>
            <path fill="#FFE2B7" d="M445.081 316.208L451.22 316.208 451.22 314.697 445.081 314.697z" transform="translate(0 7.36)"/>
            <path fill="#7F786A" d="M451.193 314.696s2.663 2.593 0 5.287h-15.846c-.075-.319-.411-1.875.507-3.413.742-1.242 1.857-1.73 2.224-1.874h7.589s2.747 1.626 5.526 0" transform="translate(0 7.36)"/>
            <path fill="#57575E" d="M433.084 321.46L451.663 321.46 451.663 319.983 433.084 319.983zM438.077 314.696c-2.482 0-4.494 2.036-4.494 4.546v.741h2.427c-.05-.552-.057-1.407.234-2.387.455-1.53 1.376-2.486 1.833-2.9" transform="translate(0 7.36)"/>
            <path fill="#FFE2B7" d="M446.296 311.858L446.473 314.932 450.569 314.853 450.823 311.679z" transform="translate(0 7.36)"/>
            <path fill="#A29C8F" d="M445.88 313.032h5.474l23.07-123.93-.827-34.531-18.54-4.836s-11.179 19.71-10.935 42.764c.108 10.174 1.443 99.516 1.757 120.533" transform="translate(0 7.36)"/>
            <path fill="#57575E" d="M504.257 321.453L516.358 321.453 516.358 319.983 504.257 319.983z" transform="translate(0 7.36)"/>
            <path fill="#FFE2B7" d="M506.478 311.876L507.124 314.932 511.221 314.852 511.025 311.679z" transform="translate(0 7.36)"/>
            <path fill="#7F786A" d="M512.061 314.696c1.353 0 2.643.672 3.354 1.836l.022.038c.92 1.538.583 3.095.507 3.413h-10.357c-1.382-1.397-1.33-2.77-.96-3.764.342-.918 1.215-1.523 2.185-1.523h5.25z" transform="translate(0 7.36)"/>
            <path fill="#A29C8F" d="M511.82 313.032c-.563-20.269-3.257-116.791-3.72-129.089-.557-14.842-8.425-29.533-8.425-29.533-5.228.515-23.259.466-28.824 0-.45 5.93 1.342 16.906 1.505 23.942.142 6.164 1.48 5.469 2.067 10.75l31.76 123.93h5.637z" transform="translate(0 7.36)"/>
            <path fill="#7F786A" d="M511.82 313.032c-.563-20.269-3.257-116.791-3.72-129.089-.557-14.842-8.425-29.533-8.425-29.533-2.599.256-8.358.373-14.178.368l-1.548.712s8.763 17.208 10.351 29.936c1.193 9.569 10.554 88.848 15.127 127.606h2.393z" transform="translate(0 7.36)"/>
            <path fill="#57575E" d="M441.578 317.774L439.776 315.952 441.286 314.424 443.087 316.247z" transform="translate(0 7.36)"/>
            <path fill="#57575E" d="M443.698 317.774L441.896 315.952 443.406 314.424 445.208 316.247z" transform="translate(0 7.36)"/>
            <path fill="#FFE2B7" d="M415.46 117.573l-3.388.15s-3.988 2.973-9.04-.598c-5.051-3.57.96-4.024.96-4.024l10.77-.473.699 4.945z" transform="translate(0 7.36)"/>
            <path fill="#FFE2B7" d="M409.41 113.761c-2.765-3.514-3.792-4.059-4.2-3.836-.56.306-.571 2.418.79 3.562.952.802 2.319.914 3.41.274" transform="translate(0 7.36)"/>
            <path fill="#FFBF4D" d="M463.79 91.946s-11.528 6.814-20.522 12.956c-5.985 4.086-13.105 6.09-20.32 5.796-.944-.038-1.906-.065-2.883-.078-9.054-.12-7.645.707-14.036 2.06l-1.265 5.118s30.532 7.013 52.898-3.113c22.365-10.128 6.129-22.739 6.129-22.739" transform="translate(0 7.36)"/>
            <path fill="#FFA331" d="M457.114 152.464c-2.17-.55-3.657-2.563-3.55-4.825.542-11.416 2.07-24.375 5.352-38.365 1.448-6.17 3.099-11.953 4.859-17.333l20.465-4.448 15.774 6.363c1.093 9.147 1.835 19.484 1.836 30.817 0 10.276-.608 19.729-1.532 28.207-.094.86-.75 1.549-1.598 1.675-5.44.813-11.921 1.347-19.206 1.098-8.673-.297-16.237-1.626-22.4-3.19" transform="translate(0 7.36)"/>
            <path fill="#FFBF4D" d="M457.114 152.464c-2.17-.55-3.657-2.563-3.55-4.825.542-11.416 3.047-24.32 6.329-38.31 1.448-6.17 3.669-12.344 5.429-17.725l18.918-4.11 15.774 6.362c1.093 9.147 1.835 19.484 1.836 30.817 0 10.276-.608 19.729-1.532 28.206-.094.862-.75 1.55-1.598 1.676-5.44.813-11.921 1.347-19.206 1.098-8.674-.297-16.237-1.626-22.4-3.19" transform="translate(0 7.36)"/>
            <path fill="#FFA331" d="M500.517 134.607c1.864-.775 3.52-1.355 4.812-1.638 0 0-9.575-20.94-8.54-28.195 1.034-7.255 3.225-10.917 3.225-10.917s19.546 22.86 19.068 38.03c-.13 4.156-3.593 7.636-8.553 10.5-3.659-1.765-7.248-4.722-10.012-7.78" transform="translate(0 7.36)"/>
            <path fill="#FFA331" d="M498.72 154.556c.847-.127 1.503-.816 1.597-1.677.925-8.477 1.534-17.93 1.533-28.206 0-11.332-.743-21.67-1.837-30.816l-15.773-6.364-2.785.605c2.516 6.492 4.765 14.216 6.002 23.038 2.522 17.988-.154 33.475-3.447 44.574 5.473-.048 10.417-.514 14.71-1.154" transform="translate(0 7.36)"/>
            <path fill="#FFA331" d="M480.74 152.034c-1.58.305-2.962.551-4.073.739l-.532.089c-1.527.252-2.415.374-2.415.374l.5-1.742.999-3.485s9.956-5.992 18.933-10.46l.624-.31c.83-.408 1.65-.802 2.45-1.175 1.53-.714 2.989-1.351 4.315-1.871 2.009 1.46 3.983 3.203 5.987 4.974 1.172 1.035 2.24 2.074 3.212 3.096-7.494 4.392-18.523 7.35-26.595 9.077-1.208.258-2.35.49-3.404.694" transform="translate(0 7.36)"/>
            <path fill="#57575E" d="M482.462 95.612L486.983 122.168 482.108 140.56 473.619 122.918z" transform="translate(0 7.36)"/>
            <path fill="#FFE2B7" d="M491.027 77.442L489.463 89.904 479.374 91.505 481.522 75.49z" transform="translate(0 7.36)"/>
            <path fill="#FFC581" d="M481.522 75.49l9.505 1.953-.11.878c-1.023 4.161-5.16 8-9.074 7.116-.564-.127-1.087-.347-1.57-.639l1.25-9.308z" transform="translate(0 7.36)"/>
            <path fill="#FFE2B7" d="M482.393 65.304c-2.851 1.575-3.475 4.686-3.676 5.692-.827 4.13.776 10.311 4.975 11.276 3.944.904 8.32-3.22 9.184-7.621.623-3.177-.385-7.517-3.764-9.338-1.913-1.031-4.528-1.221-6.72-.01" transform="translate(0 7.36)"/>
            <path fill="#57575E" d="M491.157 73.717c.04.456.166 2.377-1.056 3.436-1.541 1.337-4.174.4-4.84.163-1.483-.528-1.688-1.14-2.74-1.258-1.52-.17-2.884.908-3.794 1.837-.045.862.01 2.459 1.034 3.727 1.965 2.435 6.216 2.075 8.809.504 3.44-2.086 4.994-6.93 3.853-8.101-.304-.312-.794-.356-1.266-.308M491.157 73.717c.082-.311.915-3.68-.825-5.67-.34-.387-1.474-1.667-2.78-1.525-.411.045-.622.207-3.341 2.064-.662.452-1.02.688-1.526.664-.766-.038-1.43-.66-1.735-1.261-.648-1.273.079-2.888.815-3.748 1.256-1.466 3.282-1.466 4.09-1.41 0 0 .149.01.293.027 2.847.34 6.504 3.745 6.96 7.13.103.757.013 1.272-.115 1.656-.401 1.208-1.416 1.843-1.836 2.073" transform="translate(0 7.36)"/>
            <path fill="#FFE2B7" d="M494.773 73.872c.214-1.105-.5-2.177-1.593-2.393-1.093-.217-2.153.504-2.366 1.611-.214 1.105.5 2.178 1.592 2.394 1.094.217 2.153-.505 2.367-1.612" transform="translate(0 7.36)"/>
            <path fill="#FFA331" d="M476.618 89.437c.67-.635 1.422-1.345 2.289-1.264.587.055.71.415 1.635.94.818.463 1.578.658 2.078.749.036.393.073 1.363-.457 2.41-.558 1.104-1.416 1.648-1.753 1.838-.77-.287-1.788-.763-2.85-1.561-.861-.646-1.504-1.321-1.966-1.882.205-.316.535-.768 1.024-1.23M490.534 89.392c-.41-.515-.85-.84-1.157-1.032-.367.006-.788.03-1.251.087-.658.082-1.153.202-1.503.289-1.628.406-3.638 1.014-4.003 1.126.132.636.35 1.415.722 2.264.32.735.68 1.343 1.01 1.826.812-.618 1.94-1.354 3.388-1.967 1.379-.586 2.63-.883 3.605-1.04-.111-.372-.338-.959-.811-1.553" transform="translate(0 7.36)"/>
            <path fill="#57575E" d="M482.789 89.904L484.352 93.952 482.462 95.613 480.41 94.11z" transform="translate(0 7.36)"/>
            <path fill="#FFE2B7" d="M472.839 148.994c-3.226-2.693-4.277-2.993-4.61-2.708-.458.394-.06 2.341 1.413 3.128 1.033.55 2.315.385 3.197-.42M401.444 113.74c.651-.279 1.998.895 2.372 2.292.541 2.025-1.094 4.027-1.845 3.892-1.148-.208-1.703-5.681-.527-6.184" transform="translate(0 7.36)"/>
            <path fill="#FFE2B7" d="M476.85 152.773l-3.13.463c-.603.5-1.543 1.176-2.817 1.692-1.189.482-3.95 1.603-6.188.284-1.567-.921-2.648-2.906-2.16-3.65.521-.794 2.33.579 4.911-.24 1.627-.515 1.798-1.344 3.8-2.282 1.554-.731 2.99-.956 3.953-1.03.531 1.473 1.098 3.289 1.63 4.763" transform="translate(0 7.36)"/>
            <path fill="#FFAC34" d="M472.926 127.383C470.094 106.82 451.322 92.472 431 95.337c-20.323 2.866-34.504 21.858-31.672 42.422 2.831 20.564 21.603 34.911 41.927 32.046 20.323-2.866 34.504-21.859 31.672-42.422" transform="translate(0 7.36)"/>
            <path fill="#FFBC3F" d="M464.654 128.55c-2.195-15.942-16.747-27.063-32.502-24.844-15.755 2.222-26.748 16.945-24.552 32.887 2.195 15.94 16.746 27.063 32.502 24.843 15.755-2.222 26.747-16.946 24.552-32.887" transform="translate(0 7.36)"/>
            <path fill="#FFA331" d="M438.166 119.988c.749-.395.967-1.474.485-2.41-.481-.937-1.48-1.375-2.23-.981l-8.144 4.289-5.43 2.86c-.75.394-.966 1.473-.485 2.41.48.936 1.48 1.374 2.23.98l5.429-2.86c1.768-.93 3.992-.295 5.567 1.38l-9.252 4.871c-.75.395-.967 1.474-.485 2.41.48.936 1.48 1.375 2.229.982l9.253-4.873c.45 2.265-.312 4.473-2.08 5.404l-5.43 2.858c-.175.093-.33.231-.451.403-.242.347-.34.816-.263 1.306.074.487.315.954.666 1.295.176.175.372.309.58.397l17.832 7.843c.437.193.87.175 1.218-.007.347-.183.609-.532.706-1.001.189-.94-.363-2.015-1.233-2.397l-14.033-6.172 2.153-1.133c3.28-1.728 4.519-6.086 3.16-10.284l1.496-.789c.75-.394.967-1.474.486-2.41-.482-.935-1.48-1.375-2.23-.98l-1.496.788c-.852-1.154-1.89-2.056-2.998-2.73l2.75-1.449z" transform="translate(0 7.36)"/>
            <path fill="#A29C8F" d="M165.717 10.419l.062-.673c1.331.124 2.676.282 4 .468l-.092.67c-1.313-.185-2.649-.341-3.97-.465zm-7.98-.388l.001-.676c1.343.005 2.697.04 4.024.105l-.032.676c-1.317-.065-2.66-.099-3.994-.105zm-7.985.319l-.055-.674c1.335-.112 2.686-.195 4.017-.248l.026.675c-1.32.053-2.663.135-3.988.247zm-7.929 1l-.11-.666c1.32-.225 2.66-.422 3.981-.59l.083.672c-1.313.166-2.643.362-3.954.584zm-7.82 1.66l-.164-.657c1.3-.332 2.62-.64 3.92-.916l.137.662c-1.292.274-2.602.58-3.894.91zm-7.665 2.295l-.215-.642c1.263-.434 2.553-.85 3.834-1.232l.19.648c-1.272.38-2.554.792-3.809 1.226zm-7.458 2.905l-.266-.62c1.227-.535 2.48-1.053 3.726-1.539l.24.63c-1.237.483-2.482.998-3.7 1.53zm-7.208 3.497l-.313-.598c1.181-.632 2.39-1.25 3.593-1.832l.29.609c-1.196.58-2.397 1.193-3.57 1.821zm-6.91 4.067l-.359-.571c1.125-.725 2.282-1.438 3.437-2.117l.336.585c-1.147.676-2.296 1.382-3.415 2.103zm-6.565 4.615l-.403-.539c1.065-.816 2.161-1.62 3.257-2.39l.382.555c-1.089.765-2.177 1.564-3.236 2.374zm-6.167 5.143l-.447-.502c.99-.898 2.017-1.791 3.052-2.655l.425.522c-1.028.857-2.048 1.744-3.03 2.635zm-5.719 5.648l-.487-.463c.912-.98 1.86-1.958 2.82-2.906l.467.485c-.953.94-1.895 1.91-2.8 2.884zm-5.214 6.124l-.525-.42c.823-1.057 1.684-2.114 2.56-3.14l.506.44c-.869 1.02-1.724 2.07-2.54 3.12zM86.78 59.24c-.96-.905-2.03-1.688-3.177-2.32l.32-.593c1.193.658 2.311 1.474 3.313 2.417l-.456.496zm-10.336-5.373l-.56-.367c.193-.304.39-.606.588-.905.545-.825 1.111-1.652 1.683-2.457l.543.393c-.567.8-1.129 1.621-1.67 2.44-.197.297-.392.596-.584.896zm-.387 1.1l.018-.677c1.388.039 2.746.222 4.038.547l-.16.656c-1.246-.312-2.557-.49-3.896-.526zm14.797 10.924c-.33-1.242-.86-2.456-1.574-3.606l.565-.36c.75 1.207 1.306 2.482 1.654 3.79l-.645.176zM68.29 56.214l-.213-.642c1.308-.444 2.634-.78 3.941-.993l.107.666c-1.27.21-2.562.536-3.835.969zm3.826 4.516c.452-1.203 1.008-2.419 1.7-3.72l.588.32c-.678 1.274-1.222 2.466-1.663 3.641l-.625-.24zM90.13 73.538c.616-1.21.983-2.47 1.088-3.742l.666.057c-.113 1.363-.503 2.706-1.16 3.994l-.594-.31zM61.235 59.822l-.377-.56c.665-.46 1.345-.894 2.02-1.293.476-.281.967-.552 1.46-.805l.302.603c-.48.247-.96.512-1.425.786-.662.39-1.328.817-1.98 1.269zm9.532 8.995c-.044-.58-.053-1.163-.027-1.732.036-.786.126-1.59.27-2.394l.657.12c-.138.773-.225 1.549-.259 2.305-.024.542-.016 1.097.026 1.648l-.667.053zm14.05 10.63l-.263-.622c1.173-.508 2.26-1.233 3.233-2.159l.458.492c-1.03.981-2.183 1.75-3.428 2.29zm-29.676-14.46l-.47-.48c.996-.998 1.997-1.928 2.973-2.762l.432.516c-.964.824-1.95 1.74-2.935 2.726zm18.513 11.49c-.832-1.05-1.507-2.269-2.005-3.617l.626-.237c.473 1.282 1.113 2.437 1.901 3.433l-.522.422zm3.137 2.697l.318-.595c.476.261.975.476 1.482.639.71.229 1.45.354 2.202.372l-.017.676c-.815-.02-1.619-.156-2.388-.404-.547-.175-1.084-.407-1.597-.688zm-27.02-8.202l-.513-.436c.952-1.149 1.814-2.155 2.635-3.075l.497.452c-.816.916-1.673 1.915-2.62 3.059zm-4.99 6.33l-.534-.408c.793-1.064 1.622-2.144 2.465-3.213l.523.422c-.84 1.064-1.665 2.14-2.455 3.199zm-4.628 6.604l-.557-.374c.726-1.11 1.492-2.239 2.275-3.355l.545.39c-.779 1.112-1.54 2.235-2.263 3.339zm-4.76 6.565c.298-.538.603-1.073.911-1.608.37-.637.746-1.271 1.128-1.9l.57.353c-.38.627-.754 1.256-1.12 1.89-.308.53-.61 1.063-.908 1.596l-.582-.33zm-3.655 7.256c.547-1.216 1.137-2.45 1.75-3.668l.596.308c-.609 1.208-1.195 2.433-1.739 3.641l-.607-.281zm-2.98 7.569c.425-1.266.896-2.552 1.397-3.823l.62.251c-.496 1.259-.963 2.535-1.385 3.79l-.633-.218zm-2.17 7.847c.282-1.31.61-2.641.975-3.956l.643.183c-.36 1.302-.685 2.62-.966 3.918l-.653-.145zm-1.226 8.057l.034-.376c.113-1.213.266-2.447.453-3.672l.66.104c-.185 1.21-.335 2.432-.448 3.632l-.034.373-.665-.06zm-.092 8.16c-.085-1.358-.12-2.731-.107-4.081l.67.007c-.016 1.335.02 2.69.104 4.031l-.667.044zm1.11 8.083c-.283-1.324-.519-2.676-.703-4.022l.662-.092c.182 1.328.415 2.665.693 3.971l-.653.143zm2.286 7.827c-.474-1.259-.909-2.56-1.29-3.869l.64-.192c.377 1.292.806 2.578 1.275 3.821l-.625.24zm3.48 7.37c-.67-1.158-1.307-2.374-1.89-3.613l.603-.29c.575 1.22 1.202 2.419 1.864 3.56l-.577.343zm4.692 6.647c-.87-1.014-1.71-2.096-2.498-3.216l.544-.392c.776 1.102 1.603 2.167 2.46 3.163l-.506.445zm5.88 5.595c-1.06-.816-2.098-1.704-3.084-2.643l.46-.493c.967.923 1.986 1.797 3.028 2.599l-.404.537zm3.627 2.46l-.276-.165.341-.582.273.164c.683.404 1.384.789 2.082 1.142l-.298.604c-.71-.358-1.426-.75-2.122-1.162z" transform="translate(0 7.36)"/>
            <path fill="#F59015" d="M162.312 6.33L157.423 11.12 162.838 11.934 163.926 9.22z" transform="translate(0 7.36)"/>
            <path fill="#F9DC56" d="M178.29 12.668L160.978 0.122 162.221 10.033z" transform="translate(0 7.36)"/>
            <path fill="#FFB023" d="M178.29 12.668L164.519 20.452 162.221 10.033z" transform="translate(0 7.36)"/>
            <path fill="#FB0" d="M627.19 254.003c-1.037 0-1.881.855-1.881 1.906 0 1.05.844 1.904 1.882 1.904 1.038 0 1.882-.854 1.882-1.904 0-1.05-.844-1.906-1.882-1.906m0 5.349c-1.876 0-3.403-1.544-3.403-3.443 0-1.9 1.527-3.445 3.403-3.445 1.877 0 3.404 1.545 3.404 3.445 0 1.899-1.527 3.443-3.404 3.443" transform="translate(0 7.36)"/>
            <path fill="#FFA331" d="M602.66 193.63c.336-.105.505-.534.375-.956-.129-.42-.509-.677-.846-.57l-3.669 1.155-2.446.771c-.337.106-.506.535-.376.956.13.422.51.678.846.57l2.446-.77c.796-.25 1.666.178 2.192.985l-4.168 1.314c-.337.107-.506.534-.376.956.13.422.51.678.846.571l4.168-1.313c.02.967-.455 1.82-1.252 2.07l-2.446.771c-.079.025-.152.07-.215.13-.125.126-.2.312-.204.52-.005.205.06.417.18.583.06.086.13.155.21.207l6.77 4.568c.166.112.345.138.502.088.156-.05.29-.174.364-.359.147-.373-.002-.857-.332-1.08l-5.328-3.595.97-.305c1.477-.465 2.307-2.168 2.054-4l.674-.211c.338-.106.506-.535.376-.957-.129-.421-.508-.677-.846-.57l-.674.212c-.266-.54-.628-.989-1.035-1.35l1.24-.39z" transform="translate(0 7.36)"/>
            <path fill="#7F786A" d="M627.522 183.353c.062-1.205.113-2.413.156-3.619l.012-.343.67.023-.011.344c-.043 1.211-.095 2.42-.157 3.63l-.67-.035zm.317-11.89l.672.004c-.006 1.325-.02 2.65-.045 3.974l-.672-.013c.025-1.322.04-2.643.045-3.965zm-.857 19.798c.114-1.315.216-2.632.306-3.95l.67.045c-.091 1.322-.192 2.643-.307 3.964l-.67-.059zm.783-27.73l.67-.013c.03 1.323.052 2.649.065 3.972l-.672.006c-.013-1.322-.034-2.643-.063-3.966zm-1.621 35.614c.167-1.31.319-2.623.459-3.935l.668.068c-.14 1.319-.293 2.635-.461 3.951l-.666-.084zm-1.172 7.842c.224-1.302.433-2.608.629-3.914l.664.098c-.196 1.31-.407 2.62-.632 3.928l-.661-.112zm-1.525 7.78c.283-1.283.554-2.589.807-3.88l.66.125c-.254 1.298-.527 2.608-.81 3.896l-.657-.141zm-1.894 7.696c.344-1.258.678-2.548.995-3.836l.653.156c-.318 1.294-.655 2.59-1 3.852l-.648-.172zm-2.284 7.59c.41-1.243.812-2.514 1.192-3.778l.644.188c-.382 1.27-.785 2.547-1.198 3.796l-.638-.205zm-2.695 7.457c.479-1.216.95-2.464 1.4-3.71l.632.224c-.452 1.25-.925 2.504-1.406 3.727l-.626-.241zm-3.126 7.289c.553-1.19 1.098-2.408 1.618-3.622l.619.258c-.523 1.22-1.071 2.445-1.627 3.64l-.61-.276zm-3.577 7.081c.629-1.15 1.25-2.332 1.845-3.513l.6.297c-.598 1.187-1.222 2.375-1.855 3.531l-.59-.315zm-4.043 6.833c.706-1.104 1.405-2.241 2.08-3.382l.58.334c-.678 1.148-1.382 2.291-2.091 3.401l-.57-.353zm-4.517 6.535c.785-1.05 1.565-2.137 2.318-3.226l.555.373c-.758 1.097-1.542 2.19-2.332 3.247l-.541-.394zm-4.996 6.19c.467-.535.929-1.073 1.383-1.616.396-.475.788-.95 1.175-1.431l.526.412c-.39.483-.784.963-1.183 1.44-.457.547-.921 1.09-1.392 1.627l-.51-.432zm-5.49 5.763c.952-.92 1.896-1.87 2.806-2.825l.49.453c-.917.962-1.868 1.92-2.826 2.845l-.47-.473zm-5.958 5.292c1.028-.84 2.049-1.709 3.034-2.585l.45.493c-.992.881-2.02 1.756-3.055 2.602l-.43-.51zm-6.382 4.787c1.092-.75 2.183-1.533 3.242-2.327l.407.527c-1.067.8-2.165 1.589-3.265 2.343l-.384-.543zm-6.77 4.236c1.149-.652 2.304-1.341 3.432-2.046l.36.558c-1.136.712-2.298 1.404-3.455 2.061l-.336-.573zm-7.115 3.637c1.202-.55 2.413-1.134 3.599-1.741l.31.589c-1.195.61-2.415 1.2-3.627 1.752l-.282-.6zm-7.422 2.984c1.25-.436 2.51-.91 3.746-1.407l.255.614c-1.244.5-2.515.977-3.776 1.417l-.225-.624zm-7.677 2.27c1.285-.312 2.586-.662 3.867-1.042l.194.635c-1.292.382-2.603.735-3.898 1.05l-.163-.643zm-7.87 1.493c1.317-.18 2.647-.397 3.956-.646l.128.65c-1.32.252-2.662.471-3.99.652l-.093-.656zm-7.985.655c1.316-.036 2.663-.11 4.003-.218l.057.659c-1.353.11-2.712.184-4.04.22l-.02-.66zm-8.07.424l.058-.657c1.144.098 2.313.169 3.474.212l.528.017-.018.662-.534-.018c-1.172-.044-2.352-.116-3.507-.216zm-3.64-1.119c.182-1.302.276-2.611.283-3.912l.672.005c-.007 1.33-.105 2.668-.29 3.998l-.665-.09zm-1.327-11.34l.528-.407c.734.922 1.219 2.174 1.483 3.828l-.663.1c-.246-1.537-.686-2.69-1.348-3.521zm-.723 18.91c.497-1.223.92-2.476 1.26-3.724l.648.172c-.346 1.273-.778 2.552-1.284 3.8l-.624-.247zm-2.23-8.3l.29-.596c1.067.507 2.326.92 3.743 1.227l-.143.647c-1.468-.318-2.777-.748-3.89-1.278zm-1.538 15.212c.753-1.077 1.453-2.206 2.079-3.352l.592.315c-.638 1.167-1.351 2.317-2.118 3.415l-.553-.378zm-2.201-25.365c.884-1.317 2.11-2.208 3.366-2.445l.127.65c-1.08.203-2.148.991-2.932 2.162l-.561-.367zm-1.205 3.933l.67-.013c.017.729.188 1.4.507 1.994.262.489.583.952.953 1.374l-.508.432c-.403-.46-.753-.964-1.04-1.497-.367-.688-.564-1.458-.582-2.29zM510.93 322.3c.966-.896 1.893-1.852 2.755-2.842l.509.432c-.877 1.007-1.82 1.98-2.804 2.892l-.46-.482zm-6.357 4.72c1.133-.661 2.246-1.398 3.309-2.188l.406.53c-1.084.804-2.218 1.554-3.372 2.228l-.343-.57zm-7.271 3.167c1.259-.376 2.513-.836 3.73-1.367l.274.604c-1.243.542-2.524 1.013-3.808 1.395l-.196-.632zm-7.836 1.262c1.313-.034 2.645-.16 3.96-.373l.11.654c-1.345.216-2.707.346-4.05.381l-.02-.662z" transform="translate(0 7.36)"/>
            <path fill="#F59015" d="M634.586 171.709L630.742 177.391 629.037 172.129 631.498 170.586z" transform="translate(0 7.36)"/>
            <path fill="#F9DC56" d="M625.718 156.841L640.858 171.994 630.994 172.423z" transform="translate(0 7.36)"/>
            <path fill="#FFB023" d="M625.718 156.841L620.455 171.886 630.994 172.423z" transform="translate(0 7.36)"/>
        </g>
    </g>
</svg>
