<svg xmlns="http://www.w3.org/2000/svg" xmlns:xlink="http://www.w3.org/1999/xlink" width="372" height="249" viewBox="0 0 372 249">
    <defs>
        <path id="prefix__a" d="M50.649 1.14c-1.925.839-2.969 2.914-3.698 4.882-1.314 3.544-2.123 7.276-2.395 11.045-.068.928-.109 1.885-.499 2.729-.39.846-1.232 1.56-2.16 1.485-.794-.064-1.455-.697-1.767-1.431-.311-.733-.332-1.555-.303-2.35.214-5.765 2.932-11.393 7.314-15.143-1.871-1.121-4.202-1.442-6.305-.868-2.103.572-3.95 2.032-4.993 3.946-1.553 2.85-1.269 6.306-.943 9.536l.763 7.541c.095.946.14 2.04-.553 2.693-.632.595-1.681.55-2.418.093-.738-.457-1.215-1.236-1.572-2.027-1.4-3.095-1.325-6.694-.469-9.981s2.44-6.33 4.012-9.341c-8.517 3.261-14.197 6.396-20.471 13.013l-2.319 2.383c.16 4.908 3.004 9.648 7.26 12.099.845.486 1.879 1.128 1.781 2.096-.072.694-.77 1.193-1.464 1.255-.694.061-1.371-.215-1.991-.535-4.842-2.504-7.797-8.23-7.035-13.627C4.184 26.276.404 34.548.223 42.959c-.053 2.454.198 4.955 1.151 7.217.952 2.262 2.672 4.271 4.944 5.196 2.273.926 5.104.606 6.876-1.092 1.027-.984 1.64-2.327 2.62-3.358.98-1.03 2.963-2.045 3.813-.904.424.568-.925 1.878-1.566 2.449-.241.215-.47.445-.671.697-2.032 2.552-2.318 5.118-1.598 8.429.758 3.495 3.972 8.676 6.362 11.336 2.437 2.712 7.388 4.267 10.119 4.458 11.495.802 16.295-5.947 16.295-5.947s-6.711-.512-10.373-5.376c-3.309-4.399-3.089-9.718-5.637-14.597-.385-.738-.781-1.508-.817-2.341-.035-.833.396-1.748 1.192-1.995.826-.255 1.723.304 2.165 1.046.441.744.544 1.632.685 2.484.837 5.037 3.375 9.776 7.104 13.264 2.528 2.365 5.762 4.208 9.222 4.21 2.651.002 5.21-1.078 7.387-2.591 2.176-1.513 4.018-3.448 5.845-5.368-8.565 1.648-17.906-1.65-23.538-8.311-1.053-1.245-2.032-2.748-1.668-4.419.238-1.092 1.163-1.973 2.279-1.89 1.121.084 1.697 1.069 2.24 1.936 3.76 6.004 10.546 10.001 17.62 10.379 1.984.106 4.082-.089 5.736-1.193 2.929-1.958 3.674-6.185 6.624-8.111-7.6 4.036-17.368 3.623-24.598-1.042-.82-.529-1.632-1.134-2.115-1.981-.484-.848-.56-1.996.054-2.754.749-.927 2.216-.925 3.283-.394 1.067.532 1.869 1.462 2.768 2.245 2.418 2.108 5.607 3.179 8.799 3.487 3.191.306 6.409-.103 9.565-.667 1.738-.311 3.656-.793 4.602-2.284.532-.838.658-1.863.771-2.849l1.488-12.944c-.564 1.886-6.388 6.171-10.375 6.936-2.273.436-6.923.19-9.136-.487-.757-.232-1.53-.471-2.173-.935-.642-.463-1.142-1.199-1.111-1.991.034-.856.685-1.595 1.459-1.965.773-.37 1.654-.436 2.511-.463 1.404-.045 2.812.001 4.219.046 2.246.074 4.492.147 6.716-.149 3.617-.481 7.354-2.185 8.998-5.441-2.842-5.386-4.231-11.53-3.984-17.614.075-1.814.255-3.774-.728-5.3l-.67 1.648c-1.092 1.791-3.527 2.692-5.496 1.914-1.491-.588-2.685-1.974-4.284-2.088-1.128-.08-2.22.525-2.993 1.353-.773.827-1.282 1.86-1.779 2.877l-4.221 8.633c-.658 1.346-1.77 2.929-3.232 2.601-1.106-.247-1.658-1.49-1.864-2.603-.498-2.675.062-5.531 1.532-7.82 1.471-2.289 3.835-3.986 6.475-4.648-1.225-.971-2.47-1.955-3.909-2.564-.828-.351-1.738-.565-2.634-.565-.661 0-1.315.117-1.923.381m-3.542 27.333c-.67-.443-.837-1.397-.599-2.165.237-.767.4-1.127.798-1.825.357-.627 1.552-2.143 1.552-2.143.403-.426 1.014-.705 1.581-.555.454.119.812.498.993.933.181.434.206.919.171 1.389-.106 1.402-.747 2.757-1.765 3.726-.366.351-.788.655-1.271.801-.186.057-.383.087-.578.087-.312 0-.622-.077-.882-.248m-7.352 3.131c-.475-.048-.876-.408-1.089-.836-.213-.426-.266-.915-.285-1.391-.061-1.489.188-2.987.723-4.376.236-.612.606-1.268 1.243-1.416.448-.105.928.083 1.258.403.331.319.531.751.663 1.19.421 1.396.119 2.913-.549 4.207-.178.347-.606 1.434-.606 1.434-.268.439-.74.791-1.248.791-.036 0-.073-.002-.11-.006m15.871-3.966c-.411-.232-.592-.768-.492-1.229.1-.461.439-.845.842-1.093.403-.246.867-.372 1.33-.47.287-.06.583-.11.872-.061.289.05.572.219.688.488.123.288.027.634-.168.879l-.194.284c-.407.503-.941.903-1.537 1.154-.25.106-.528.182-.796.182-.191 0-.377-.039-.545-.134m-30.502 8.853c-2.019-1.781-2.923-4.728-2.25-7.333.27-1.045.996-2.175 2.075-2.163.579.006 1.109.361 1.468.814.359.455.574 1.002.784 1.541l1.178 2.227c.539.98 1.09 1.999 1.163 3.114.072 1.116-.482 2.356-1.543 2.706-.207.069-.419.1-.63.1-.808 0-1.62-.454-2.245-1.006m6.602-3.388c-.516-.378-.804-1.005-.889-1.639-.085-.633.013-1.277.148-1.901.081-.388.181-.781.401-1.11.22-.33.583-.589.979-.584.423.006.798.314.996.688l.243.397c.399.778.603 1.656.585 2.531-.012.626-.171 1.309-.675 1.683-.234.174-.519.254-.809.254-.346 0-.698-.114-.979-.319m16.458 5.332c-1.07-.407-2.284-.969-2.549-2.082-.156-.652.084-1.362.536-1.857.452-.495 1.093-.791 1.752-.919 1.224-.237 2.45.234 3.514.887 1.545.947 2.067 2.522 2.067 2.522.024 1.092-1.053 1.955-2.138 2.093-.151.019-.302.028-.452.028-.931 0-1.849-.339-2.73-.672m-10.062 5.441c-.912-.324-1.733-1.012-2.026-1.934-.323-1.014.088-2.214.964-2.818.874-.605 2.068-.456 2.976.096.589.36 2.516 1.138 2.516 1.138.762.499 1.291 1.477.978 2.331-.352.962-1.522 1.311-2.54 1.416-.337.035-.678.057-1.018.057-.631 0-1.259-.075-1.85-.286m-22.446.485c-.846-.221-1.675-.571-2.338-1.145-.661-.573-1.142-1.39-1.181-2.264-.074-1.643 7.231-2.531 8.902-1.46.486.311.897.739 1.183 1.241l.04.07c.721 1.294.051 2.952-1.359 3.403-.937.3-1.922.453-2.906.453-.789 0-1.577-.098-2.341-.298m10.423 15.918c-.765-.567-1.281-1.41-1.651-2.286-1.073-2.539-1.014-5.531.159-8.026.232-.494.524-.988.987-1.276.463-.287 1.096-.257 1.503.104.994.888 2.269 5.483 2.269 5.483.517 1.101 1.043 2.239 1.085 3.454.04 1.215-.533 2.538-1.658 2.997-.283.116-.584.169-.887.169-.638 0-1.287-.236-1.807-.619"/>
        <path id="prefix__c" d="M21.021.845C16.187 3.987 11.814 7.721 7.95 11.954c-2.528 2.454-4.901 5.072-7.09 7.859-.324.413.298.943.624.528.192-.245.394-.477.589-.718.126.028.263 0 .371-.129.425-.504.865-.991 1.301-1.484.125.028.261-.001.364-.14.442-.597.901-1.176 1.36-1.755 4.847-5.166 10.299-9.704 16.293-13.523.444-.283-.024-.953-.468-.671-.177.114-.351.232-.528.347-.054-.059-.12-.109-.197-.131.307-.207.61-.42.92-.621.366-.238.106-.741-.245-.741-.072 0-.148.021-.223.07"/>
        <path id="prefix__f" d="M.272 4.743C.251 5.881.683 6.957 1.489 7.774c.802.815 1.879 1.274 3.033 1.294.026.002.053.002.08.002 2.35 0 4.283-1.856 4.327-4.173.02-1.137-.412-2.214-1.217-3.031C6.909 1.051 5.833.592 4.679.572L4.6.571C2.249.571.315 2.427.272 4.743m4.274 2.986c-.801-.014-1.548-.333-2.103-.895-.551-.559-.846-1.292-.831-2.066.029-1.586 1.364-2.857 2.988-2.857l.055.001c.801.013 1.548.332 2.102.894.551.559.846 1.293.832 2.067-.03 1.586-1.38 2.856-2.988 2.856h-.055"/>
        <path id="prefix__i" d="M.193 6.213c-.055 3.04 2.347 5.548 5.365 5.604 3.018.056 5.509-2.364 5.564-5.405.054-3.04-2.348-5.549-5.365-5.604L5.656.807C2.684.807.247 3.206.193 6.213"/>
        <path id="prefix__l" d="M.281 3.493C.25 5.188 1.59 6.588 3.272 6.618c1.684.031 3.073-1.318 3.104-3.014.03-1.695-1.31-3.095-2.993-3.125L3.327.478C1.669.478.311 1.815.281 3.493"/>
        <path id="prefix__o" d="M0 0.02L371.113 0.02 371.113 20 0 20z"/>
        <path id="prefix__q" d="M0.201 2.198L2.934 3.497 2.934 0.899z"/>
        <linearGradient id="prefix__d" x1="341.931%" x2="93.854%" y1="-141.915%" y2="20.691%">
            <stop offset="0%" stop-color="#A8F2FF"/>
            <stop offset="100%" stop-color="#8595F9"/>
        </linearGradient>
        <linearGradient id="prefix__g" x1="-.002%" x2="99.999%" y1="49.996%" y2="49.996%">
            <stop offset="0%" stop-color="#FFB218"/>
            <stop offset="100%" stop-color="#FFCF44"/>
        </linearGradient>
        <linearGradient id="prefix__j" x1="-.002%" x2="99.995%" y1="50%" y2="50%">
            <stop offset="0%" stop-color="#FFB218"/>
            <stop offset="100%" stop-color="#FFCF44"/>
        </linearGradient>
        <linearGradient id="prefix__m" x1="-.004%" x2="99.993%" y1="50.003%" y2="50.003%">
            <stop offset="0%" stop-color="#FFB218"/>
            <stop offset="100%" stop-color="#FFCF44"/>
        </linearGradient>
        <linearGradient id="prefix__r" x1=".013%" x2="100.009%" y1="50.011%" y2="50.011%">
            <stop offset="0%" stop-color="#FFB218"/>
            <stop offset="100%" stop-color="#FFCF44"/>
        </linearGradient>
    </defs>
    <g fill="none" fill-rule="evenodd">
        <g>
            <path fill="#619440" d="M22.958 96.75c-2.407-16.592 1.608-34.035 11.409-48.608 5.928-8.816 13.828-16.687 23.06-22.702-2.46-8.727 2.63-18.975 11.132-22.352-.11-.973.487-2.026 1.458-2.65.594-.38 1.58-.56 2.155-.067.817.7 1.409 1.44 1.668 2.47.192.766-.55 1.596-1.318 1.79-.276.07-.526.066-.762.03-.702.377-1.585.416-2.344-.143-.165-.122-.293-.257-.41-.396-3.41 2.279-6.477 4.715-8.571 8.456-2.043 3.65-2.634 7.964-1.576 11.972l.028-.02c.037-.085.116-.138.224-.137.126-.08.25-.158.377-.235.802-3.04 3.198-6.19 5.127-8.312 1.942-2.137 4.322-4.305 7.035-5.5-.21-.583-.201-1.248.019-1.847.269-.734 1.244-1.135 2-.96.063.015.124.038.185.06.762.12 1.51.766 1.927 1.24.553.63.354 1.576-.32 2.1l-.746.582c-.613.478-1.382.383-1.997.064-.188-.098-.345-.221-.49-.355-2.417 1.94-4.928 3.644-6.974 6.105-1.235 1.486-2.33 3.082-3.211 4.806-.12.234-.224.476-.331.717 4.093-2.311 8.407-4.262 12.899-5.781-.055-.614.173-1.231.82-1.62.298-.176.625-.261.944-.276.304-.115.649-.15 1.003-.045 1.772.519 1.684 2.96.095 3.738-1.13.553-2.171-.092-2.628-.998-4.255 1.802-8.408 3.88-12.366 6.245 1.65-.185 3.352-.22 4.836-.397 3.17-.382 6.438-1.094 9.649-1.195.025-.162.064-.326.127-.491.186-.49.71-.8 1.252-.86.055-.02.112-.037.17-.038 1.413-.043 2.062 1.492 1.779 2.61-.195.767-1.06 1.454-1.94 1.088-.624-.26-1.055-.695-1.268-1.218-2.951.847-6.154 1.098-9.163 1.505-1.725.233-3.726.69-5.671.854.447.279.895.555 1.355.796 1.5.788 3.075 1.42 4.7 1.896 2.98.87 5.923.844 8.925 1.139-.312-.723.23-1.647.988-1.951.618-.248 1.219-.113 1.67.224.394.195.718.483.979.824.419.55.455 1.303-.011 1.876-.436.536-1.316.828-1.98.556-.372-.153-.673-.337-.928-.564-3.271.829-7.216.12-10.327-.82-2.34-.706-5.532-1.816-7.51-3.692-.186.266-.464.226-.664.059.058.146.097.295.16.44 2.02 4.608 6.083 7.849 10.977 8.949 3.739.84 7.225.31 10.707-.756-.167-.497-.161-1.02.109-1.49.568-.993 2.008-1.373 2.806-.427.022.027.037.056.057.082.557.143 1.077.42 1.403.834.684.87.502 2.149-.534 2.77-1.021.612-2.286.176-3.107-.635-8.064 4.597-19.762.003-23.655-8.075-.157-.327-.271-.665-.404-.998-2.6 1.765-5.107 3.646-7.47 5.666-13.036 11.146-22.13 25.937-25.173 41.896-3.214 16.853-1.31 29.783 6.472 44.72.129.248-.234.482-.407.247-5.673-7.737-7.076-13.461-8.43-22.795" transform="translate(272 62.268)"/>
            <path fill="#619440" d="M1.24 112.293c.61-2.7 2.185-11.7 4.783-12.655 2.834-1.043 6.337.297 7.753 2.963.61 1.15.88 2.512 2.053 3.285.654.432 1.555.438 2.095-.13.882-.93.045-2.343-.673-3.362-1.376-1.954-2.357-4.26-2.367-6.65-.011-2.388 1.065-4.85 3.074-6.143 2.009-1.293 4.949-1.145 6.57.61 1.014 1.099 1.442 2.653 2.767 3.512.688.445 1.59.536 2.257.057 1.344-.966.436-3.044-.475-4.42-1.287-1.94-2.418-4.053-2.756-6.358-.34-2.305.228-4.842 1.92-6.442 1.693-1.6 4.606-1.94 6.355-.401.7.616 1.166 1.457 1.82 2.123.785.798 2.05 1.35 3.01.502.665-.588.775-1.572.446-2.396-.457-1.141-1.38-1.831-2.294-2.534-1.443-1.108-2.438-2.736-2.651-4.542-.635-5.397 5.338-7.476 8.705-5.107.945.665 1.89 1.68 3.046 1.356.91-.257 1.412-1.218 1.312-2.16-.198-1.861-1.738-2.94-2.556-4.452-1.496-2.766.184-6.721 3.214-7.565 2.318-.645 2.919 2.357 3.968 4.983.242.605 1.129.477 1.197-.171.27-2.572 1.122-5.783 1.773-7.555 1.196-3.251 6.059-6.818 8.383-2.141.623 1.255.149 4.482-.653 5.375-1.135 1.263-3.836 5.605-3.836 5.605-.254.496.31 1.015.779.713 1.065-.685 2.208-1.223 3.522-1.341.6-.055 1.216.004 1.786.202 3.4 1.17 2.872 5.356.7 7.36-1.805 1.668-4.332 2.24-6.722 2.809-1.24.295-2.58.67-3.195 1.876-.35.682-.266 1.55.319 2.048.676.573 1.448.252 2.192.158 2.432-.31 4.64 2.112 4.619 4.564-.023 2.45-1.82 4.632-4.022 5.71-2.202 1.078-4.743 1.226-7.192 1.1-1.208-.061-2.51-.164-3.463.73-.563.529-.732 1.415-.26 2.026.673.869 1.927.478 2.977.42 2.916-.161 5.23 3.084 4.772 5.967-.46 2.884-3.002 5.097-5.788 5.97-3.138.983-6.552.566-9.776.113-.76-.106-1.538.303-1.772 1.033-.326 1.01.597 1.589 1.318 2.112 2.785 2.02 3.874 6.072 2.476 9.216-1.398 3.144-5.136 5.049-8.501 4.335-2.138-.454-4.087-1.83-6.405-1.133-1.147.345-1.973 1.443-1.753 2.62.276 1.487 1.943 1.91 3.19 2.607 3.459 1.93 4.04 7.15 1.768 10.394-2.273 3.245-9.572 3.347-13.526 3.097-3.953-.251-12.204-.597-16.427-3.286-1.99-1.266-.466-13.907.144-16.607" transform="translate(272 62.268)"/>
            <path fill="#306B34" d="M63.968 46.5c.623 1.255.15 4.482-.653 5.375-1.134 1.263-3.836 5.604-3.836 5.604-.253.497.311 1.016.78.714 1.065-.685 2.207-1.223 3.521-1.341.601-.055 1.216.004 1.787.202 3.4 1.17 2.872 5.356.7 7.36-1.806 1.668-4.332 2.24-6.723 2.809-1.239.295-2.579.67-3.194 1.876-.349.682-.266 1.55.32 2.047.675.574 1.446.253 2.19.159 2.432-.31 4.642 2.112 4.62 4.564-.024 2.45-1.82 4.632-4.023 5.71-2.202 1.078-4.743 1.226-7.192 1.1-1.207-.061-2.508-.164-3.463.73-.563.529-.73 1.415-.259 2.026.673.869 1.927.478 2.977.42 2.915-.161 5.231 3.084 4.772 5.967-.46 2.884-3.002 5.097-5.788 5.97-3.139.983-6.552.566-9.777.113-.759-.106-1.537.303-1.772 1.033-.326 1.01.597 1.589 1.318 2.112 2.786 2.02 3.874 6.072 2.476 9.216-1.397 3.144-5.135 5.049-8.5 4.335-2.139-.455-4.088-1.83-6.405-1.133-1.147.345-1.973 1.443-1.754 2.62.277 1.487 1.944 1.91 3.19 2.607 3.46 1.93 7.01 9.323 4.736 12.567-2.273 3.245-12.54 1.174-16.493.924-3.689-.235-11.12-.552-15.528-2.777-.316-.16-.9-.51-.9-.51s21.832-18.97 40.715-44.12c10.488-13.97 19.814-40.44 19.814-40.44s.37.08.795.383c.735.518 1.427 1.532 1.55 1.778" transform="translate(272 62.268)"/>
        </g>
        <g transform="translate(285 157.268)">
            <mask id="prefix__b" fill="#fff">
                <use xlink:href="#prefix__a"/>
            </mask>
            <path fill="#FBBF00" d="M50.649 1.14c-1.925.839-2.969 2.914-3.698 4.882-1.314 3.544-2.123 7.276-2.395 11.045-.068.928-.109 1.885-.499 2.729-.39.846-1.232 1.56-2.16 1.485-.794-.064-1.455-.697-1.767-1.431-.311-.733-.332-1.555-.303-2.35.214-5.765 2.932-11.393 7.314-15.143-1.871-1.121-4.202-1.442-6.305-.868-2.103.572-3.95 2.032-4.993 3.946-1.553 2.85-1.269 6.306-.943 9.536l.763 7.541c.095.946.14 2.04-.553 2.693-.632.595-1.681.55-2.418.093-.738-.457-1.215-1.236-1.572-2.027-1.4-3.095-1.325-6.694-.469-9.981s2.44-6.33 4.012-9.341c-8.517 3.261-14.197 6.396-20.471 13.013l-2.319 2.383c.16 4.908 3.004 9.648 7.26 12.099.845.486 1.879 1.128 1.781 2.096-.072.694-.77 1.193-1.464 1.255-.694.061-1.371-.215-1.991-.535-4.842-2.504-7.797-8.23-7.035-13.627C4.184 26.276.404 34.548.223 42.959c-.053 2.454.198 4.955 1.151 7.217.952 2.262 2.672 4.271 4.944 5.196 2.273.926 5.104.606 6.876-1.092 1.027-.984 1.64-2.327 2.62-3.358.98-1.03 2.963-2.045 3.813-.904.424.568-.925 1.878-1.566 2.449-.241.215-.47.445-.671.697-2.032 2.552-2.318 5.118-1.598 8.429.758 3.495 3.972 8.676 6.362 11.336 2.437 2.712 7.388 4.267 10.119 4.458 11.495.802 16.295-5.947 16.295-5.947s-6.711-.512-10.373-5.376c-3.309-4.399-3.089-9.718-5.637-14.597-.385-.738-.781-1.508-.817-2.341-.035-.833.396-1.748 1.192-1.995.826-.255 1.723.304 2.165 1.046.441.744.544 1.632.685 2.484.837 5.037 3.375 9.776 7.104 13.264 2.528 2.365 5.762 4.208 9.222 4.21 2.651.002 5.21-1.078 7.387-2.591 2.176-1.513 4.018-3.448 5.845-5.368-8.565 1.648-17.906-1.65-23.538-8.311-1.053-1.245-2.032-2.748-1.668-4.419.238-1.092 1.163-1.973 2.279-1.89 1.121.084 1.697 1.069 2.24 1.936 3.76 6.004 10.546 10.001 17.62 10.379 1.984.106 4.082-.089 5.736-1.193 2.929-1.958 3.674-6.185 6.624-8.111-7.6 4.036-17.368 3.623-24.598-1.042-.82-.529-1.632-1.134-2.115-1.981-.484-.848-.56-1.996.054-2.754.749-.927 2.216-.925 3.283-.394 1.067.532 1.869 1.462 2.768 2.245 2.418 2.108 5.607 3.179 8.799 3.487 3.191.306 6.409-.103 9.565-.667 1.738-.311 3.656-.793 4.602-2.284.532-.838.658-1.863.771-2.849l1.488-12.944c-.564 1.886-6.388 6.171-10.375 6.936-2.273.436-6.923.19-9.136-.487-.757-.232-1.53-.471-2.173-.935-.642-.463-1.142-1.199-1.111-1.991.034-.856.685-1.595 1.459-1.965.773-.37 1.654-.436 2.511-.463 1.404-.045 2.812.001 4.219.046 2.246.074 4.492.147 6.716-.149 3.617-.481 7.354-2.185 8.998-5.441-2.842-5.386-4.231-11.53-3.984-17.614.075-1.814.255-3.774-.728-5.3l-.67 1.648c-1.092 1.791-3.527 2.692-5.496 1.914-1.491-.588-2.685-1.974-4.284-2.088-1.128-.08-2.22.525-2.993 1.353-.773.827-1.282 1.86-1.779 2.877l-4.221 8.633c-.658 1.346-1.77 2.929-3.232 2.601-1.106-.247-1.658-1.49-1.864-2.603-.498-2.675.062-5.531 1.532-7.82 1.471-2.289 3.835-3.986 6.475-4.648-1.225-.971-2.47-1.955-3.909-2.564-.828-.351-1.738-.565-2.634-.565-.661 0-1.315.117-1.923.381m-3.542 27.333c-.67-.443-.837-1.397-.599-2.165.237-.767.4-1.127.798-1.825.357-.627 1.552-2.143 1.552-2.143.403-.426 1.014-.705 1.581-.555.454.119.812.498.993.933.181.434.206.919.171 1.389-.106 1.402-.747 2.757-1.765 3.726-.366.351-.788.655-1.271.801-.186.057-.383.087-.578.087-.312 0-.622-.077-.882-.248m-7.352 3.131c-.475-.048-.876-.408-1.089-.836-.213-.426-.266-.915-.285-1.391-.061-1.489.188-2.987.723-4.376.236-.612.606-1.268 1.243-1.416.448-.105.928.083 1.258.403.331.319.531.751.663 1.19.421 1.396.119 2.913-.549 4.207-.178.347-.606 1.434-.606 1.434-.268.439-.74.791-1.248.791-.036 0-.073-.002-.11-.006m15.871-3.966c-.411-.232-.592-.768-.492-1.229.1-.461.439-.845.842-1.093.403-.246.867-.372 1.33-.47.287-.06.583-.11.872-.061.289.05.572.219.688.488.123.288.027.634-.168.879l-.194.284c-.407.503-.941.903-1.537 1.154-.25.106-.528.182-.796.182-.191 0-.377-.039-.545-.134m-30.502 8.853c-2.019-1.781-2.923-4.728-2.25-7.333.27-1.045.996-2.175 2.075-2.163.579.006 1.109.361 1.468.814.359.455.574 1.002.784 1.541l1.178 2.227c.539.98 1.09 1.999 1.163 3.114.072 1.116-.482 2.356-1.543 2.706-.207.069-.419.1-.63.1-.808 0-1.62-.454-2.245-1.006m6.602-3.388c-.516-.378-.804-1.005-.889-1.639-.085-.633.013-1.277.148-1.901.081-.388.181-.781.401-1.11.22-.33.583-.589.979-.584.423.006.798.314.996.688l.243.397c.399.778.603 1.656.585 2.531-.012.626-.171 1.309-.675 1.683-.234.174-.519.254-.809.254-.346 0-.698-.114-.979-.319m16.458 5.332c-1.07-.407-2.284-.969-2.549-2.082-.156-.652.084-1.362.536-1.857.452-.495 1.093-.791 1.752-.919 1.224-.237 2.45.234 3.514.887 1.545.947 2.067 2.522 2.067 2.522.024 1.092-1.053 1.955-2.138 2.093-.151.019-.302.028-.452.028-.931 0-1.849-.339-2.73-.672m-10.062 5.441c-.912-.324-1.733-1.012-2.026-1.934-.323-1.014.088-2.214.964-2.818.874-.605 2.068-.456 2.976.096.589.36 2.516 1.138 2.516 1.138.762.499 1.291 1.477.978 2.331-.352.962-1.522 1.311-2.54 1.416-.337.035-.678.057-1.018.057-.631 0-1.259-.075-1.85-.286m-22.446.485c-.846-.221-1.675-.571-2.338-1.145-.661-.573-1.142-1.39-1.181-2.264-.074-1.643 7.231-2.531 8.902-1.46.486.311.897.739 1.183 1.241l.04.07c.721 1.294.051 2.952-1.359 3.403-.937.3-1.922.453-2.906.453-.789 0-1.577-.098-2.341-.298m10.423 15.918c-.765-.567-1.281-1.41-1.651-2.286-1.073-2.539-1.014-5.531.159-8.026.232-.494.524-.988.987-1.276.463-.287 1.096-.257 1.503.104.994.888 2.269 5.483 2.269 5.483.517 1.101 1.043 2.239 1.085 3.454.04 1.215-.533 2.538-1.658 2.997-.283.116-.584.169-.887.169-.638 0-1.287-.236-1.807-.619" mask="url(#prefix__b)"/>
        </g>
        <g transform="translate(287 203.268)">
            <mask id="prefix__e" fill="#fff">
                <use xlink:href="#prefix__c"/>
            </mask>
            <path fill="url(#prefix__d)" d="M21.021.845C16.187 3.987 11.814 7.721 7.95 11.954c-2.528 2.454-4.901 5.072-7.09 7.859-.324.413.298.943.624.528.192-.245.394-.477.589-.718.126.028.263 0 .371-.129.425-.504.865-.991 1.301-1.484.125.028.261-.001.364-.14.442-.597.901-1.176 1.36-1.755 4.847-5.166 10.299-9.704 16.293-13.523.444-.283-.024-.953-.468-.671-.177.114-.351.232-.528.347-.054-.059-.12-.109-.197-.131.307-.207.61-.42.92-.621.366-.238.106-.741-.245-.741-.072 0-.148.021-.223.07" mask="url(#prefix__e)"/>
        </g>
        <path fill="#306B34" d="M338.908 148.109l-.044-.035c-1.632-1.277-3.986-1.006-5.247.604-.61.779-.876 1.75-.751 2.74.127.99.618 1.87 1.424 2.496 1.632 1.277 3.986 1.006 5.247-.604.61-.78.876-1.752.75-2.74-.123-.972-.613-1.844-1.38-2.461m-5.603 6.939c-1.071-.862-1.754-2.081-1.927-3.441-.177-1.39.198-2.758 1.058-3.854 1.77-2.263 5.07-2.65 7.355-.862 1.108.859 1.81 2.104 1.987 3.489.177 1.389-.2 2.758-1.058 3.855-1.771 2.263-5.071 2.648-7.355.862-.02-.015-.04-.032-.06-.05"/>
        <g transform="translate(317 102.268)">
            <mask id="prefix__h" fill="#fff">
                <use xlink:href="#prefix__f"/>
            </mask>
            <path fill="url(#prefix__g)" d="M.272 4.743C.251 5.881.683 6.957 1.489 7.774c.802.815 1.879 1.274 3.033 1.294.026.002.053.002.08.002 2.35 0 4.283-1.856 4.327-4.173.02-1.137-.412-2.214-1.217-3.031C6.909 1.051 5.833.592 4.679.572L4.6.571C2.249.571.315 2.427.272 4.743m4.274 2.986c-.801-.014-1.548-.333-2.103-.895-.551-.559-.846-1.292-.831-2.066.029-1.586 1.364-2.857 2.988-2.857l.055.001c.801.013 1.548.332 2.102.894.551.559.846 1.293.832 2.067-.03 1.586-1.38 2.856-2.988 2.856h-.055" mask="url(#prefix__h)"/>
        </g>
        <g transform="translate(303 111.268)">
            <mask id="prefix__k" fill="#fff">
                <use xlink:href="#prefix__i"/>
            </mask>
            <path fill="url(#prefix__j)" d="M.193 6.213c-.055 3.04 2.347 5.548 5.365 5.604 3.018.056 5.509-2.364 5.564-5.405.054-3.04-2.348-5.549-5.365-5.604L5.656.807C2.684.807.247 3.206.193 6.213" mask="url(#prefix__k)"/>
        </g>
        <g transform="translate(341 141.268)">
            <mask id="prefix__n" fill="#fff">
                <use xlink:href="#prefix__l"/>
            </mask>
            <path fill="url(#prefix__m)" d="M.281 3.493C.25 5.188 1.59 6.588 3.272 6.618c1.684.031 3.073-1.318 3.104-3.014.03-1.695-1.31-3.095-2.993-3.125L3.327.478C1.669.478.311 1.815.281 3.493" mask="url(#prefix__n)"/>
        </g>
        <g>
            <g transform="translate(0 4.268) translate(0 224)">
                <mask id="prefix__p" fill="#fff">
                    <use xlink:href="#prefix__o"/>
                </mask>
                <path fill="#F7E8C8" d="M0 10.01C0 4.492 83.076.02 185.556.02c102.48 0 185.557 4.472 185.557 9.99S288.036 20 185.556 20C83.076 20 0 15.528 0 10.01" mask="url(#prefix__p)"/>
            </g>
            <path fill="#FCBD30" d="M280.173 8.948c3.073-5.232 5.224-7.957 12.396-7.836.929.016 1.942.079 3.052.19 7.09.715 12.13 6.05 12.842 11.696.71 5.646 3.755 5.626 6.429 9.892 2.673 4.266 3.039 14.822 3.039 14.822l-37.627 1.84s-5.732-21.068-.131-30.604" transform="translate(0 4.268)"/>
            <path fill="#FFE2B7" d="M280.304 39.552c-1.39-3.947-2.325-8.047-2.914-12.21-.567-4.16-.8-8.426-.083-12.681.356-2.122 1.06-4.222 2.133-6.171 1.117-1.763 2.22-3.637 3.902-5.118 1.645-1.521 3.858-2.35 5.983-2.52 2.147-.188 4.238.109 6.296.45-1.049.036-2.088.048-3.121.053-1.03.073-2.06.153-3.047.382-1.996.347-3.819 1.214-5.141 2.649-1.331 1.42-2.375 3.18-3.383 4.979-.884 1.73-1.523 3.615-1.827 5.61-.718 3.967-.553 8.115-.323 12.222.135 2.059.35 4.12.637 6.173.221 2.067.565 4.117.888 6.182" transform="translate(0 4.268)"/>
            <path fill="#E7E1D3" d="M245.48 102.438c7.778 1.667 15.839-4.1 20.744-13.578 5.474-10.577 10.573-20.588 2.597-26.816 0 0-12.826 12.56-16.191 16.706-6.742 8.306-13.612 16.763-13.612 16.763s1.899 5.946 6.463 6.925" transform="translate(0 4.268)"/>
            <path fill="#D0BDFF" d="M272.71 72.292l-14.057 3.489s5.006-21.411 5.567-27.201c.728-7.518 4.883-16.832 13.955-19.006l-.422 4.442-5.043 38.276z" transform="translate(0 4.268)"/>
            <path fill="#FFE2B7" d="M234.257 234.615s1.738-3.83 2.494-5.618c.124-.292 1.827-6.36 1.827-6.36l4.183.54-3.394 5.62s-2.812 6.322-2.955 6.353c-.143.03-2.155-.535-2.155-.535" transform="translate(0 4.268)"/>
            <path fill="#7F786A" d="M239.304 228.822s1.89.828 1.814 3.434c-.077 2.606-.26 4.483-.26 4.483l-.948.204-.56-3.087s-.866.848-1.651 2.951c-.353.947-5.541 1.602-5.541 1.602s-1.231-.796.577-2.134c.448-.332 1.612-1.79 1.612-1.79s.977.911 2.04-.249c.479-.52 1.312-1.85 1.867-2.952.684-1.357 1.05-2.462 1.05-2.462" transform="translate(0 4.268)"/>
            <path fill="#FFE2B7" d="M292.697 232.345s2.992-3.338 3.418-5.107c.074-.31-.6-5.083-.6-5.083l3.455 1.643s-.434 2.558-.392 3.416c.019.379.32 1.486.32 1.486s-4.024 4.536-4.17 4.542c-.145.005-2.031-.897-2.031-.897" transform="translate(0 4.268)"/>
            <path fill="#7F786A" d="M298.659 227.5s1.722 1.14 1.2 3.694c-.521 2.554-.698 4.042-.698 4.042l-.97.039-.346-2.806s-1 .687-2.132 2.626c-.51.872-5.744.304-5.744.304s-1.078-.995.932-2.004c.499-.25 1.906-1.161 1.906-1.161s.807 1.065 2.054.103c.559-.431 1.607-1.6 2.342-2.59.906-1.22 1.456-2.246 1.456-2.246" transform="translate(0 4.268)"/>
            <path fill="#A29C8F" d="M286.033 77.575c3.4 4.377 4.982 32.423 4.982 32.423l-17.838 46.556-28.505 68.259-7.177-.681s8.13-56.97 10.848-71.958c6.797-37.481 16.07-67.646 23.202-79.141 3.193 1.584 5.405 4.871 14.488 4.542" transform="translate(0 4.268)"/>
            <path fill="#7F786A" d="M302.424 70.827c6.405 7.683 13.072 12.62 15.552 38.703 1.994 20.969-18.046 115.75-18.046 115.75l-7.494.254-9.056-119.764-3.206-27.235s19.675-6.729 22.25-7.708" transform="translate(0 4.268)"/>
            <path fill="#E1DCFF" d="M280.128 65.25c-.03.797.593 1.465 1.389 1.494.796.029 1.465-.593 1.494-1.39.028-.794-.593-1.463-1.39-1.493-.795-.028-1.464.593-1.493 1.389" transform="translate(0 4.268)"/>
            <path fill="#F5EFE4" d="M270.23 72.238s3.836 1.94 15.942 2.416c11.082.436 17.354-3.443 17.354-3.443l1.656-22.389c.6-6.882 4.162-17.646-8.66-18.894 0 0-14.078-.745-17.832-.439-7.714.63-9.31 10.036-9.761 17.828-.438 7.546 1.302 24.921 1.302 24.921" transform="translate(0 4.268)"/>
            <path fill="#A29C8F" d="M303.34 70.353s-21.67 4.788-33.228.856l-.183 4.504s7.401 2.651 16.72 2.462c5.931-.12 12.947-1.979 18.331-4.5l-1.64-3.322z" transform="translate(0 4.268)"/>
            <path fill="#FCC23F" d="M285.006 75.755c.02-1.302-1.023-2.393-2.325-2.43l-5.215-.153.169 4.219c1.004.403 2.687.652 4.897.72.647.028 1.263-.212 1.732-.66.468-.445.732-1.048.742-1.696m-2.5 3.175c-2.529-.081-4.361-.382-5.444-.898-.137-.064-.227-.201-.233-.352l-.197-4.912c-.004-.114.039-.223.118-.304.079-.08.183-.117.302-.121l5.653.165c1.746.05 3.145 1.513 3.117 3.26-.013.869-.366 1.677-.995 2.275-.57.545-1.303.855-2.083.886-.079.003-.158.003-.238 0" transform="translate(0 4.268)"/>
            <path fill="#FCC23F" d="M282.748 76.382c.684-.027 1.08-.103 1.114-.11.221-.042.365-.256.322-.478-.043-.222-.26-.365-.478-.323-.018.003-1.779.332-4.423-.208-.22-.042-.436.098-.482.318-.045.22.098.438.32.482 1.544.316 2.797.352 3.627.319" transform="translate(0 4.268)"/>
            <path fill="#FFF2DC" d="M281.278 92.472L210.206 93.618 209.221 3.818 280.292 2.671z" transform="translate(0 4.268)"/>
            <path fill="#FFF0D2" d="M210.25 5.034l.96 87.334 69.037-1.113-.958-87.334-69.038 1.113zm-.044 89.817c-.555 0-1.01-.542-1.017-1.217l-.985-89.8c-.004-.326.099-.642.287-.877.189-.234.446-.368.716-.372l71.073-1.146c.292.027.529.121.723.349.193.228.304.54.307.867l.985 89.8c.008.682-.441 1.24-1.004 1.249L210.22 94.85l-.014.001z" transform="translate(0 4.268)"/>
            <path fill="#F5EFE4" d="M315.81 70.87s6.285 2.84 7.74-.861c2.178-5.535.88-11.781-7.173-24.882-5.912-9.617-12.75-16.043-21.32-14.714l20.754 40.458z" transform="translate(0 4.268)"/>
            <path fill="#FFE2B7" d="M287.866 31.829c-1.018.084-1.911-.673-1.996-1.69l-.598-7.227c-.084-1.018.673-1.911 1.69-1.995 1.019-.084 1.913.673 1.997 1.69l.597 7.227c.085 1.017-.672 1.91-1.69 1.995" transform="translate(0 4.268)"/>
            <path fill="#FFC581" d="M285.382 24.237c-.145-1.75.563-3.236 1.58-3.32 1.019-.084 1.962 1.265 2.106 3.014l.324 3.91c.079.956-1.262 1.682-2.433.277-.767-.92-1.485-2.086-1.485-2.086l-.092-1.795z" transform="translate(0 4.268)"/>
            <path fill="#FFE2B7" d="M295.278 14.084c-.435-.133-1.45.293-1.45.293.055-3.4-2.656-6.202-6.057-6.258-3.4-.056-5.662 2.664-5.718 6.066 0 0-.14 5.084-.045 5.725.632 4.192 2.331 5.453 5.48 5.504 3.148.052 5.78-2.27 6.197-5.312.641-.093 1.438-1.18 1.886-2.645.508-1.658.376-3.168-.293-3.373" transform="translate(0 4.268)"/>
            <path fill="#FFE2B7" d="M287.977 8.107s-1.402-.046-2.38.356c-2.208.907-3.5 3.054-3.544 5.721 0 0-.141 5.084-.044 5.726.415 2.754 1.329 4.312 2.789 4.994.955.446 2.859.515 2.859.515s-1.51-2.132-1.5-9.023c.006-4.119 1.82-8.289 1.82-8.289" transform="translate(0 4.268)"/>
            <path fill="#FCBD30" d="M296.58 16.136c-.042.405-12.05-2.547-11.986-7.566.063-5.021 12.537 2.204 11.986 7.566" transform="translate(0 4.268)"/>
            <path fill="#FFE2B7" d="M292.469 20.54c.074 1.074 1.006 1.886 2.08 1.812 1.075-.075 1.886-1.006 1.812-2.081-.075-1.074-1.006-1.885-2.08-1.811-1.075.074-1.886 1.006-1.812 2.08" transform="translate(0 4.268)"/>
            <path fill="#E7E1D3" d="M285.755 28.89s-.025 1.01.479 1.595c.219.255 1.423.896 1.423.896l-1.868 2.944s-1.178-1.22-1.453-1.698c-1.013-1.759-.633-3.158-.633-3.158l2.052-.58z" transform="translate(0 4.268)"/>
            <path fill="#E7E1D3" d="M286.95 31.276l1.739 3.136s2.51-2.617 2.68-4.102l-1.923-1.798s-.526 2.32-2.496 2.764" transform="translate(0 4.268)"/>
            <path fill="#FFE2B7" d="M242.244 96.447c.531.291.976.978.63 1.475-.493.71-3.204.648-3.204.648l-.087-2.143s1.904-.395 2.661.02" transform="translate(0 4.268)"/>
            <path fill="#FFE2B7" d="M237.248 94.237s-1.931.558-2.313 1.067c-.292.39-.288 1.926-.288 1.926s3.093 1.081 4.227 1.281c.787.138 1.494.058 1.954-.668.304-.48.17-1.117-.305-1.432l-3.275-2.174z" transform="translate(0 4.268)"/>
            <path fill="#FFE2B7" d="M235.09 92.206c.517-.264 1.15-.058 1.414.46l1.205 2.364-.936.478-1.683-3.302z" transform="translate(0 4.268)"/>
            <path fill="#FFE2B7" d="M233.437 92.078c.49-.312 1.177-.108 1.533.453l1.63 2.566-.887.564-2.276-3.583z" transform="translate(0 4.268)"/>
            <path fill="#FFE2B7" d="M232.807 92.753c.49-.312 1.177-.108 1.533.453l1.63 2.567-.887.563-2.276-3.583z" transform="translate(0 4.268)"/>
            <path fill="#FFE2B7" d="M232.227 94.093c.458-.357 1.161-.222 1.57.303l1.87 2.396-1.02.439-2.42-3.138zM279.858 40.998s.934-1.573 1.523-1.814c.451-.184 1.936.208 1.936.208s1.62 3.902 1.141 4.95c-.228.5-1.292.925-2.11 1.185-.543.173-1.125-.118-1.309-.657l-1.181-3.872z" transform="translate(0 4.268)"/>
            <path fill="#FFE2B7" d="M279.108 39.004c-.384.436-.341 1.1.094 1.483l1.995 1.753.693-.79-2.782-2.446z" transform="translate(0 4.268)"/>
            <path fill="#FFE2B7" d="M278.733 38.317c-.305.494-.094 1.18.47 1.528l2.587 1.6.552-.894-3.608-2.234z" transform="translate(0 4.268)"/>
            <path fill="#FFE2B7" d="M279.246 37.369c-.344.468-.189 1.167.347 1.56l2.45 1.802.622-.846-3.419-2.516z" transform="translate(0 4.268)"/>
            <path fill="#FFE2B7" d="M281.096 35.417c-.508.28-.601 1.087-.206 1.8l1.802 3.262.586-1.172-2.182-3.89zM283.685 43.928L281.239 44.77 284.131 48.411 286.171 46.566z" transform="translate(0 4.268)"/>
            <path fill="#E7E1D3" d="M281.251 52.274c1.964 10 12.521 15.345 19.973 18.277 8.315 3.272 18.242 6.58 22.178-.313 0 0-9.816-9.806-13.134-12.037-6.646-4.469-24.37-13.572-24.37-13.572s-5.349 4.07-4.647 7.645" transform="translate(0 4.268)"/>
            <path fill="#FFB218" d="M245.96 64.807l.18-.003.251-.005.252-.008c.08-.004.14-.005.178-.006.167-.003.33-.008.486-.015.156-.008.304-.032.444-.073.14-.042.272-.109.395-.199.123-.09.236-.22.338-.39l-2.806.054c.044-.114.103-.242.177-.38.073-.142.146-.275.218-.4.083-.147.17-.293.261-.439l1.916-.037c0-.05-.027-.11-.077-.175-.05-.066-.115-.128-.194-.187-.08-.059-.165-.108-.258-.147-.093-.039-.18-.059-.262-.057l-1.886.037c.03-.048.074-.114.131-.199.057-.085.12-.178.188-.276l.208-.306c.07-.105.134-.2.193-.285.06-.085.11-.154.15-.208.04-.054.061-.08.065-.08l4.692-.092c.004.004-.007.04-.033.106l-.098.25-.129.321-.13.321c-.042.1-.092.215-.152.35l-.65.011.04.115.058.172.057.174c.016.054.027.093.031.117l1.536-.03-.698 1.22-.76.015c-.062.314-.164.576-.309.786-.144.21-.316.382-.517.516-.2.135-.418.242-.653.318-.235.077-.473.137-.714.181l2.453 3.245.01.475-1.652.032-2.909-3.723-.02-1.096zM254.4 67.252c.074.362.206.64.396.834.19.193.465.286.824.279.413-.008.725-.16.936-.454.21-.296.31-.664.302-1.105-.008-.434-.116-.797-.324-1.092-.21-.295-.528-.44-.956-.43-.203.004-.378.032-.525.086-.26.099-.452.277-.58.533l-1.498-.042.505-4.704 4.674-.091.027 1.418-3.47.068-.267 1.863c.255-.173.453-.288.596-.346.24-.094.534-.145.88-.152.703-.014 1.32.21 1.852.674.532.462.806 1.144.824 2.047.015.785-.223 1.49-.714 2.117-.492.627-1.24.95-2.242.97-.807.015-1.474-.19-2.002-.612-.528-.424-.828-1.033-.902-1.83l1.664-.031zM261.659 67.46c.17.515.502.767.999.758.495-.01.815-.276.96-.796.144-.521.207-1.27.188-2.245-.02-1.024-.111-1.78-.275-2.27-.165-.488-.495-.727-.99-.718-.496.009-.82.262-.97.757-.15.495-.217 1.254-.197 2.278.02.976.114 1.72.284 2.236m3.154-5.55c.45.754.688 1.83.716 3.234.027 1.4-.17 2.486-.59 3.252-.42.766-1.173 1.16-2.255 1.18-1.08.022-1.846-.343-2.296-1.092-.45-.75-.69-1.825-.716-3.227-.029-1.402.168-2.488.59-3.258.42-.77 1.171-1.166 2.252-1.186 1.083-.022 1.85.344 2.3 1.097M268.571 67.326c.17.515.503.767 1 .757.496-.01.815-.275.96-.795.144-.521.207-1.27.187-2.245-.02-1.024-.11-1.78-.275-2.269-.164-.489-.494-.729-.99-.719-.496.009-.819.262-.969.757-.15.495-.217 1.254-.197 2.278.02.976.114 1.721.284 2.236m3.154-5.55c.45.753.69 1.831.716 3.234.027 1.401-.169 2.485-.59 3.252-.42.765-1.173 1.159-2.254 1.18-1.082.021-1.848-.344-2.298-1.093-.45-.749-.689-1.825-.716-3.226-.028-1.402.17-2.488.59-3.259.421-.769 1.172-1.165 2.254-1.186 1.081-.021 1.848.345 2.298 1.098M235.787 68.066l-10.368.056c-1.489.007-2.703-1.193-2.71-2.682-.008-1.489 1.192-2.703 2.681-2.71l10.369-.058c1.489-.007 2.703 1.194 2.71 2.683.008 1.49-1.192 2.703-2.681 2.711M260.13 52.218l-38.899.21c-1.489.008-2.703-1.193-2.711-2.683-.008-1.49 1.193-2.702 2.682-2.711l38.899-.21c1.489-.007 2.703 1.194 2.711 2.683.008 1.489-1.193 2.703-2.682 2.71M223.023 24.799c.46-.008.802-.115 1.028-.323.225-.21.334-.542.326-1-.007-.443-.128-.762-.36-.957-.234-.197-.58-.29-1.039-.283l-2.193.04.045 2.56 2.193-.037zm.642-4.13c.408-.007.777.052 1.107.178.33.126.613.302.85.527.238.226.421.487.55.787.128.3.195.624.202.973.01.536-.096 1-.314 1.395-.218.396-.58.7-1.087.912v.026c.248.063.454.164.618.3.163.138.298.303.403.492.106.189.184.398.235.627.05.228.086.457.107.686.011.145.023.315.035.51.012.196.03.395.055.599.024.203.062.396.112.578.05.183.123.336.218.462l-2 .035c-.117-.287-.19-.63-.223-1.03s-.078-.78-.135-1.145c-.076-.474-.227-.82-.452-1.038-.225-.217-.588-.321-1.089-.312l-2.002.035.062 3.556-2.002.036-.159-9.103 4.91-.086zM235.025 20.471L235.054 22.152 230.248 22.236 230.282 24.188 234.693 24.11 234.72 25.666 230.309 25.742 230.348 27.974 235.256 27.889 235.286 29.573 228.376 29.692 228.217 20.588zM242.616 22.766c-.123-.188-.274-.354-.455-.495-.181-.14-.385-.25-.612-.328-.226-.076-.463-.113-.71-.109-.45.008-.831.103-1.142.283-.312.18-.563.418-.753.713-.191.298-.327.633-.41 1.01-.082.374-.12.762-.113 1.162.006.382.058.753.153 1.113.096.36.244.682.444.967.2.287.46.513.777.683.318.168.702.248 1.152.24.612-.01 1.087-.205 1.425-.585.338-.38.539-.877.605-1.49l1.938-.034c-.041.57-.164 1.087-.368 1.55-.204.462-.478.858-.821 1.187-.343.33-.747.583-1.211.761-.465.18-.977.272-1.538.282-.698.012-1.327-.098-1.887-.33-.561-.232-1.037-.559-1.427-.976-.39-.418-.692-.914-.906-1.484-.214-.569-.326-1.186-.338-1.849-.012-.68.079-1.313.273-1.9.194-.585.478-1.098.853-1.538.375-.44.839-.788 1.39-1.045.554-.256 1.178-.39 1.875-.402.502-.009.977.055 1.426.192.449.137.85.34 1.209.61.358.27.655.607.89 1.011.238.404.39.87.459 1.396l-1.938.033c-.038-.229-.118-.439-.24-.628M253.245 20.152L253.274 21.835 248.468 21.919 248.502 23.869 252.913 23.793 252.94 25.347 248.529 25.424 248.568 27.656 253.476 27.57 253.506 29.254 246.596 29.374 246.437 20.271zM256.955 20.088L257.114 29.191 255.112 29.226 254.954 20.123zM262.6 24.274c.23-.005.45-.025.663-.062.212-.039.398-.107.558-.208.16-.1.287-.24.382-.42.094-.182.139-.416.134-.706-.005-.289-.058-.52-.16-.698-.1-.177-.232-.312-.395-.408-.163-.095-.352-.157-.565-.187-.213-.03-.434-.043-.664-.04l-1.555.028.048 2.727 1.555-.026zm.475-4.294c.569-.01 1.055.065 1.457.223.403.16.732.372.987.64.256.268.444.575.565.921.12.347.184.707.19 1.081.007.366-.044.726-.153 1.08-.108.356-.286.671-.531.947-.247.277-.568.501-.964.674-.397.172-.88.263-1.45.273l-2.103.037.057 3.265-2.002.034-.16-9.103 4.107-.072zM267.043 21.595L267.014 19.912 274.473 19.782 274.502 21.463 271.774 21.512 271.904 28.933 269.901 28.968 269.772 21.547z" transform="translate(0 4.268)"/>
            <path fill="#57575E" d="M169.662 49.626h-37.667c-2.931 0-5.306-2.376-5.306-5.306V33.408c0-2.93 2.375-5.305 5.306-5.305h37.667c2.93 0 5.306 2.376 5.306 5.305V44.32c0 2.93-2.376 5.306-5.306 5.306" transform="translate(0 4.268)"/>
            <path fill="#F6F7FB" d="M32.606 81.98h112.305c.538 0 .988.841 1.143 1.995H31.464c.154-1.154.604-1.996 1.142-1.996" transform="translate(0 4.268)"/>
            <path fill="#57575E" d="M146.055 83.975c.037.274.062.562.062.866 0 1.58-.54 2.862-1.205 2.862H32.607c-.666 0-1.206-1.282-1.206-2.862 0-.304.026-.592.063-.866h114.59zM63.895 82.039h61.707c1.201 0 3.716-.705 4.164-1.782H59.731c.448 1.077 2.963 1.782 4.164 1.782" transform="translate(0 4.268)"/>
            <path fill="#5F7DFC" d="M94.281 48.657c0 .259.21.468.468.468s.467-.209.467-.468c0-.258-.209-.468-.467-.468-.259 0-.468.21-.468.468" transform="translate(0 4.268)"/>
            <path fill="#5F7DFC" d="M94.433 48.973c.46.354.986-.17.632-.632-.46-.354-.986.171-.632.632" transform="translate(0 4.268)"/>
            <path fill="#A29C8F" d="M67.518 47.299h54.462c.703 0 1.274.57 1.274 1.273v31.685h-57.01V48.572c0-.703.57-1.273 1.274-1.273" transform="translate(0 4.268)"/>
            <path fill="#FFF" d="M68.57 78.219L120.927 78.219 120.927 49.625 68.57 49.625z" transform="translate(0 4.268)"/>
            <path fill="#FFDE8E" d="M109.802 61.629L110.717 61.629 118.594 61.629 118.594 72.833 110.717 72.833 109.802 72.833 104.543 72.833 104.543 61.629z" transform="translate(0 4.268)"/>
            <path fill="#F7F8FC" d="M107.378 69.801L115.759 69.801 115.759 64.66 107.378 64.66z" transform="translate(0 4.268)"/>
        </g>
        <g transform="translate(110 69.268)">
            <mask id="prefix__s" fill="#fff">
                <use xlink:href="#prefix__q"/>
            </mask>
            <path fill="url(#prefix__r)" d="M0.201 2.198L2.934 3.497 2.934 0.899z" mask="url(#prefix__s)"/>
        </g>
        <g>
            <path fill="#FFDE8E" d="M37.194 65.629L47.094 65.629 47.094 70.692 37.194 70.692zM26.762 69.23L36.662 69.23 36.662 64.166 26.762 64.166zM16.33 69.23L26.23 69.23 26.23 64.166 16.33 64.166zM14.308 62.911L65.19 62.911 65.19 54.575 14.308 54.575z" transform="translate(55 .268)"/>
            <path fill="#F7F8FC" d="M55.834 60.466L62.151 60.466 62.151 57.195 55.834 57.195z" transform="translate(55 .268)"/>
            <path fill="#FFFEFF" d="M44.665 58.743L49.62 58.743 49.62 57.482 44.665 57.482zM16.02 58.743L43.832 58.743 43.832 57.482 16.02 57.482zM16.02 60.753L49.62 60.753 49.62 60.473 16.02 60.473z" transform="translate(55 .268)"/>
            <path fill="#EABBAB" d="M43.005 19.681c1.178 4.384.608 10.152-.73 11.857-.047.061-3.47.66-6.03 1.212l-10.027-.699c-.002-.085-.008-.169-.015-.25-.146-1.532-1.25-2.56-3.59-3.972 0 0-4.569-2.768-5.7-8.95-1.13-6.182.552-12.24 9.43-13.796 8.87-1.554 13.564.744 14.482 2.227 1.335 5.576 1.252 8.651 1.273 9.275 0 0 .74 2.474.907 3.096" transform="translate(55 .268)"/>
            <path fill="#EABBAB" d="M34.547 40.054c.953-2.76 2.065-6.064 2.49-7.64-.748-.3-9.275-3.622-9.275-3.622-1.623 4.547-3.394 7.658-4.88 9.725l11.665 1.537z" transform="translate(55 .268)"/>
            <path fill="#57575E" d="M36.005 18.945c.22 1.365.341 3.288.341 3.288l-.804.933-2.1-1.103s-.794 7.228-1.662 7.99c-2.107 1.851-5.515 1.038-5.515 1.038-2.005-1.414-8.4-4.72-9.974-12.319-.787-3.8-.565-9.62 2.721-12.84C24.239.808 31.882-.105 36.701 1.364c5.561 1.694 5.706 5.537 6.709 8.687 0 0 .24 4.224-7.405 8.893" transform="translate(55 .268)"/>
            <path fill="#EABBAB" d="M32.78 23.896c.422 2.154 1.388 4.727 3.063 4.812.31.043.446-5.4.318-6.518-2.057-3.659-3.81-.489-3.38 1.706M20.942 230.254v-6.741l4.594-43.334h-12.41c-.253 13.59.117 41.779.117 41.779s-.94 6.849-1.507 8.296h9.206z" transform="translate(55 .268)"/>
            <path fill="#7F786A" d="M10.644 232.836s-1.09-1.71.82-6.203c.895-2.108 2.712-1.973 4.29-1.943 1.636.032 3.286.234 4.13 1.736 1.083 1.93 1.317.319 1.885 3.918.235 1.492.101 2.713-.23 2.618l.047 1.764h-11.36l-.054-1.728.472-.162z" transform="translate(55 .268)"/>
            <path fill="#A29C8F" d="M8.699 111.03l4.006 36.491c-.107 1.813-.228 3.625-.367 5.434-.871 11.29.223 31.343-.313 47.791h12.302l5.737-53.225 2.986-35.452-24.351-1.04z" transform="translate(55 .268)"/>
            <path fill="#7F786A" d="M22.925 205.623L16.183 205.993 11.105 204.007 11.257 193.969 26.193 195.898 24.991 203.447z" transform="translate(55 .268)"/>
            <path fill="#EABBAB" d="M42.386 179.26l7.946 3.23c0-.032.39-2.127.39-2.16.018-3.212 2.173-7.606 3.123-9.87 2.823-6.726 8.765-22.244 13.74-34.83l-12.29-4.382-12.91 48.013z" transform="translate(55 .268)"/>
            <path fill="#7F786A" d="M43.244 175.03l-2.351 6.197-.188-.079-.612 1.861 7.607 3.026.278-.844.239.59c.143.35.41.623.737.753l6.489 2.582.355-1.077c-.094-.045-.316-.102-.256-.304.125-.49.02-1.838-.556-2.677-.922-1.342-2.348-3.615-2.851-4.723-.503-1.108-.642-2.004-.642-2.004s-.815-.106-.888.625c-.075.744-1.36.507-2.634-.287-.714-.445-1.425-2.45-1.425-2.45-.344-1.145-2.928-2.479-3.302-1.189" transform="translate(55 .268)"/>
            <path fill="#A29C8F" d="M16.512 118.917l42.359-1.06c-1.896 3.362-2.865 5.994-3.691 8.779-1.18 3.982-2.102 7.678-2.905 11.086-1.151 4.864-2.04 9.132-3.036 12.765l11.643 4.906c6.768-12.152 17.17-36.721 18.759-46.963 1.117-7.178-6.75-11.12-12.697-12.202-6.87-1.26-29.343-1.675-29.012-1.675v-.085l-.894-2.421V88.97H4.714c-.786 2.847-1.264 5.616-1.452 8.254-.832 11.906 4.244 21.242 13.25 21.692" transform="translate(55 .268)"/>
            <path fill="#7F786A" d="M59.397 158.8L52.179 157.176 47.698 153.872 50.006 144.133 64.786 150.359 61.863 157.238zM52.275 137.721c3.828-7.433 9.904-14.764 17.407-22.03l-10.812 2.166c-1.895 3.362-2.864 5.993-3.69 8.778-1.18 3.983-2.102 7.68-2.905 11.086" transform="translate(55 .268)"/>
            <path fill="#EABBAB" d="M86.39 14.578s3.187-5.468 1.94-7.634c-.664-1.151-3.034 7.322-3.034 7.322l1.095.312zM88.45 21.03s-3.044-5.232-5.026-4.97c-1.012.135 1.998 3.044 2.608 5.633l2.418-.663zM88.894 14.958s3.593-1.016 3.662-2.397c.033-.666-4.382 1.23-4.382 1.23l.72 1.167z" transform="translate(55 .268)"/>
            <path fill="#EEC9BC" d="M72.672 38.404c5.313-4.268 10.19-8.74 12.98-12.643l-.566-11.13 2.048-2.827 4.134-3.674c1.987 1.173-2.928 4.753-2.928 4.753s3.954-2.285 4.3-2.12c1.153.547-3.384 3.344-3.384 3.344-.394 3.951 3.044 10.345 2.393 12.438-.44 1.414-1.907 2.24-2.663 2.604-2.92 4.622-6.633 8.773-10.16 12.8l-6.154-3.545z" transform="translate(55 .268)"/>
            <path fill="#F7F8FC" d="M14.259 41.427L.819 69.54c-1.657 3.468.42 7.566 4.197 8.278l23.569 4.442-14.326-40.834z" transform="translate(55 .268)"/>
            <path fill="#DDC4AF" d="M14.259 41.427s-13.02 35.68-9.243 36.392l23.569 4.442-14.326-40.834z" transform="translate(55 .268)"/>
            <path fill="#EAD5C1" d="M2.84 94.85c.678 2.756 15.512 4.157 26.882 1.998 2.974-.569 5.714-1.379 7.896-2.473l6.027-38.044 22.989-1.698c2.619-.839 4.02-1.379 6.038-3.248 6.492-7.554 11.885-14.663 16.826-22.46l-5-2.314C80.277 31.24 73.495 36.745 65.94 42.515c-5.466 2.266-21.811-1.767-23.685-2.609l-5.97-2.65-11.114-1.293c-8.705.433-14.174 6.887-15.404 18.007-.467 4.233-.421 19.688-6.927 40.88" transform="translate(55 .268)"/>
            <path fill="#FFF" d="M37.038 37.549L23.328 36.076 24.279 33.404 37.038 36.222z" transform="translate(55 .268)"/>
            <path fill="#DDC4AF" d="M28.918 96.994l.804-.146c2.973-.57 5.713-1.378 7.895-2.472l6.028-38.044c-3.884.107-7.038-.093-9.757-.982-.182 3.873 1.966 8.069 3.726 11.909 2.33 5.08.385 5.647-.675 7.578-1.059 1.926-.974 3.988-.729 6.09.24 2.1.895 1.646 0 5.104-.9 3.457 1.52 4.793-2.512 6.494-4.557 1.922-5.092 4.237-4.78 4.469" transform="translate(55 .268)"/>
            <path fill="#7F786A" d="M8.223 183.756l4.846-33.086h9.751v33.086H8.223zm17.19-33.086h9.751l4.846 33.086H25.415V150.67zM3.148 214.729v22.679h1.788V214.04c0-7.041.503-14.072 1.505-21.042l1.07-7.455h15.067v51.864H25.657v-51.864h15.065l1.072 7.455c1 6.97 1.504 14 1.504 21.042v23.367h1.788v-22.68c0-7.26-.53-14.578-1.578-21.753l-6.431-44.093H25.414v-20.566H22.82v20.566H11.156l-6.431 44.093c-1.046 7.175-1.578 14.494-1.578 21.754z" transform="translate(55 .268)"/>
            <path fill="#57575E" d="M46.874 121.162v4.917c0 2.717-2.202 4.919-4.92 4.919H7.092c-2.71 0-4.927-2.218-4.927-4.928v-4.908h44.71z" transform="translate(55 .268)"/>
            <path fill="#F7F8FC" d="M46.874 119.205v1.957H2.164v-1.957c0-.4.326-.726.726-.726h43.258c.4 0 .726.327.726.726" transform="translate(55 .268)"/>
            <path fill="#FFE2B7" d="M82.213 44.362c.05.354.149.62.296.796.269.32.73.48 1.383.48.392 0 .71-.043.954-.127.462-.162.694-.462.694-.902 0-.256-.114-.455-.34-.596-.228-.136-.587-.257-1.08-.363l-.84-.184c-.828-.184-1.397-.382-1.706-.597-.523-.359-.785-.919-.785-1.682 0-.696.255-1.274.769-1.735.511-.46 1.264-.69 2.257-.69.83 0 1.537.216 2.123.651.584.433.891 1.064.92 1.89h-1.56c-.03-.467-.239-.799-.627-.997-.26-.13-.583-.195-.969-.195-.428 0-.77.085-1.026.253-.257.17-.385.404-.385.707 0 .277.127.485.38.622.161.092.505.2 1.031.322l1.365.322c.598.14 1.046.33 1.345.564.462.365.694.895.694 1.587 0 .71-.274 1.3-.823 1.77-.55.47-1.325.704-2.328.704-1.022 0-1.828-.232-2.413-.694-.587-.463-.88-1.097-.88-1.906h1.55zM88.451 46.761L88.451 38.989 90.065 38.989 90.065 41.952 93.086 41.952 93.086 38.989 94.7 38.989 94.7 46.761 93.086 46.761 93.086 43.291 90.065 43.291 90.065 46.761zM101.447 44.89c.378-.476.567-1.15.567-2.026 0-.871-.19-1.545-.567-2.022-.378-.477-.888-.715-1.532-.715-.643 0-1.156.237-1.54.712-.383.474-.574 1.15-.574 2.026 0 .874.19 1.55.574 2.024.384.475.897.712 1.54.712.644 0 1.154-.236 1.532-.712m1.015 1.181c-.587.605-1.436.907-2.547.907-1.111 0-1.96-.302-2.547-.906-.787-.742-1.181-1.811-1.181-3.206 0-1.425.394-2.494 1.18-3.207.588-.605 1.437-.907 2.548-.907 1.11 0 1.96.303 2.547.907.784.713 1.176 1.782 1.176 3.206 0 1.396-.392 2.465-1.176 3.207M109.072 40.596c-.206-.171-.494-.258-.865-.258h-1.463v2.288h1.463c.371 0 .66-.093.865-.279.206-.187.308-.48.308-.886 0-.404-.102-.692-.308-.864m1.24 2.8c-.455.38-1.105.57-1.95.57h-1.618v2.794h-1.614v-7.773h3.338c.77 0 1.383.2 1.84.602.457.4.686 1.02.686 1.86 0 .917-.227 1.567-.682 1.947" transform="translate(55 .268)"/>
        </g>
    </g>
</svg>
