<svg xmlns="http://www.w3.org/2000/svg" xmlns:xlink="http://www.w3.org/1999/xlink" width="105" height="68" viewBox="0 0 105 68">
    <defs>
        <path id="prefix__a" d="M0 0.635L9.852 0.635 9.852 7.904 0 7.904z"/>
    </defs>
    <g fill="none" fill-rule="evenodd">
        <path fill="#D42531" d="M26.762 52.154c1.103-1.328 2.192-2.522 3.317-3.683 2.371-2.445 4.854-4.762 7.794-6.53 1.936-1.163 3.934-2.198 6.181-2.606 3.185-.578 5.835.36 7.875 2.911.35.437.655.908 1.066 1.292.562.525 1.195.863 1.993.71.596-.115.95-.52 1.003-1.123.066-.721-.079-1.411-.364-2.064-1.514-3.468-4.12-5.469-7.908-5.94-3.028-.377-5.8.412-8.47 1.729-3.647 1.8-6.829 4.261-9.809 6.997-2.674 2.454-5.128 5.11-7.26 8.053-.109.151-.217.253-.427.252-1.647-.008-3.296-.004-4.938-.004-.08-.109.01-.172.056-.237 3.371-4.57 6.997-8.915 11.328-12.622 3.707-3.171 7.745-5.796 12.433-7.292 3.131-.998 6.327-1.376 9.575-.696 4.152.87 7.028 3.398 8.934 7.098 1.662 3.224 2.451 6.686 2.68 10.29.063 1.014.072 2.028.065 3.044-.002.314-.075.437-.419.429-1.09-.022-2.18-.018-3.268-.002-.29.005-.372-.082-.372-.371-.003-1.251-.047-2.5-.337-3.726-.085-.359-.2-.708-.38-1.03-.534-.95-1.709-.98-2.296-.056-.392.618-.469 1.326-.503 2.032-.044.925-.06 1.853-.065 2.779-.002.29-.089.377-.379.372-1.045-.016-2.09-.016-3.135 0-.317.006-.392-.085-.368-.402.124-1.711.102-3.41-.57-5.035-.653-1.577-1.687-2.725-3.452-3.009-1.267-.204-2.489.051-3.679.482-2.257.819-4.207 2.15-6.033 3.676-1.427 1.193-2.71 2.531-3.893 3.964-.199.24-.4.328-.709.325-1.719-.014-3.438-.007-5.266-.007"/>
        <path fill="#D42531" d="M70.14 49.325c0 .838-.007 1.676.004 2.515.003.254-.093.321-.338.318-1.133-.01-2.267-.013-3.4.001-.289.004-.339-.117-.339-.366 0-1.869-.093-3.735-.283-5.594-.426-4.146-1.34-8.148-3.566-11.746-2.959-4.783-7.264-7.444-12.84-8.079-4.026-.457-7.875.291-11.617 1.732-4.24 1.633-8.029 4.026-11.546 6.877-1.429 1.16-2.74 2.454-4.158 3.627-.613.507-1.25.982-1.95 1.361-.552.297-1.132.471-1.704.067-.403-.284-.492-.99-.25-1.68.282-.815.847-1.438 1.405-2.064 4.691-5.26 10.224-9.359 16.756-12.057 3.374-1.393 6.886-2.228 10.548-2.234 8.055-.013 14.278 3.466 18.84 10.028 1.98 2.852 3.042 6.074 3.704 9.447.508 2.591.727 5.211.734 7.847"/>
        <path fill="#D42531" d="M20.909 28.125c1.983-2.54 4.226-4.8 6.757-6.772 4.118-3.209 8.674-5.537 13.813-6.564 8.674-1.733 16.744-.333 23.94 4.998 4.727 3.503 7.942 8.173 10.072 13.615 1.38 3.527 2.17 7.191 2.509 10.96.172 1.91.213 3.82.163 5.731-.028 1.073-.608 1.82-1.516 2.014-.736.158-1.303-.105-1.655-.77-.268-.51-.335-1.063-.334-1.626.005-4.445-.661-8.786-2.064-13.006-1.392-4.186-3.41-8.023-6.35-11.348-3.42-3.869-7.703-6.192-12.746-7.179-3.391-.665-6.804-.828-10.235-.422-4.353.516-8.446 1.882-12.345 3.858-3.414 1.731-6.557 3.87-9.505 6.301-.234.193-.234.193-.504.21"/>
        <path fill="#F8B517" d="M64.88 14.786c.603.222 1.215.42 1.806.67 12.706 5.393 20.76 14.768 24.065 28.176.653 2.648.924 5.357.953 8.088.004.353-.093.444-.44.442-2.311-.014-4.623-.017-6.935.002-.374.003-.43-.129-.42-.456.133-4.529-.373-8.985-1.61-13.347-2.24-7.899-6.48-14.532-12.69-19.906-.756-.655-1.533-1.287-2.343-1.875-.797-.578-1.604-1.14-2.406-1.71l.02-.084M52.061 0c.671 1.24 1.747 2.003 2.751 2.835 1.613 1.338 3.013 2.843 3.854 4.8.268.623.456 1.267.61 1.927.085.361.038.471-.355.403-1.434-.25-2.88-.398-4.335-.48-2.856-.16-5.702-.06-8.535.345-.405.057-.809.118-1.26.184.162-1.288.616-2.432 1.246-3.515.856-1.47 2.046-2.64 3.344-3.718.981-.813 2.027-1.565 2.68-2.78M24.005 15.416c.003-1.387.42-2.985.99-4.554.431-1.183.982-2.335.973-3.636 0-.12.029-.224.177-.141 1.506.846 3.226.835 4.846 1.218 2.328.549 4.4 1.54 6.017 3.36.275.31.223.389-.146.528-4.306 1.636-8.25 3.905-11.813 6.828-.297.243-.428.266-.537-.146-.117-.44-.262-.872-.34-1.321-.105-.61-.174-1.221-.168-2.136M78.151 6.986c-.038 1.314.427 2.417.849 3.53.697 1.841 1.208 3.714 1.102 5.711-.048.901-.215 1.774-.485 2.634-.112.357-.194.441-.527.168-2.657-2.186-5.547-4.01-8.655-5.49-1.061-.505-2.138-.977-3.245-1.373-.306-.11-.346-.197-.118-.456 1.558-1.763 3.535-2.793 5.791-3.332.699-.167 1.408-.297 2.118-.417 1.072-.18 2.144-.353 3.17-.976M92.221 37.332c-.553-1.446-1.156-2.863-1.848-4.241-1.428-2.85-3.149-5.511-5.176-7.97-.234-.285-.236-.382.132-.505 2.373-.79 4.718-.6 7.06.143 1.23.39 2.4.962 3.677 1.219.364.074.73.066 1.155.1-.399.726-.65 1.48-.796 2.275-.23 1.27-.4 2.554-.782 3.793-.578 1.875-1.512 3.533-2.982 4.862-.098.089-.2.174-.303.256-.033.026-.077.039-.137.068M11.85 37.33c-1.35-1.066-2.275-2.44-2.945-4.002-.644-1.501-.877-3.103-1.155-4.693-.139-.8-.324-1.582-.72-2.3-.084-.15-.152-.275.116-.273 1.21.012 2.29-.478 3.39-.887 1.76-.655 3.553-1.14 5.455-1.065.944.037 1.865.202 2.767.494.377.122.427.213.161.532-2.026 2.443-3.729 5.097-5.156 7.93-.628 1.246-1.185 2.524-1.688 3.827-.057.146-.074.315-.226.438"/>
        <path fill="#D62733" d="M38.654 61.886c0 1.014.018 2.028-.01 3.041-.01.36.117.441.443.451.427.013.853 0 1.275-.054 1.425-.179 2.476-1.08 2.795-2.388.158-.65.174-1.313.082-1.97-.18-1.294-.988-2.145-2.267-2.443-.638-.148-1.282-.116-1.93-.093-.297.011-.402.105-.396.414.02 1.014.008 2.028.008 3.042m-2.438.012c0-1.574.006-3.149-.005-4.722-.002-.276.036-.419.357-.454 1.76-.19 3.52-.319 5.274.026 2.652.522 4.126 2.424 4.006 5.131-.131 2.937-1.734 4.736-4.643 5.211-1.508.246-3.02.181-4.534.074-.386-.028-.47-.178-.463-.544.02-1.574.008-3.148.008-4.722"/>
        <path fill="#D42532" d="M57.416 61.934c0 1.604-.01 3.207.008 4.81.003.323-.071.443-.413.424-.53-.03-1.061-.026-1.59-.001-.318.016-.43-.061-.423-.406.023-1.191-.007-2.383.019-3.574.007-.362-.11-.431-.442-.425-1.103.02-2.208.022-3.311-.001-.341-.008-.412.098-.408.42.02 1.206-.002 2.412.016 3.618.004.3-.092.377-.375.367-.573-.02-1.148-.017-1.722 0-.254.007-.324-.08-.324-.328.007-3.295.007-6.591 0-9.885 0-.244.062-.34.32-.332.588.017 1.178.02 1.766-.001.294-.012.335.11.332.363-.012 1.074.018 2.148-.016 3.222-.013.41.125.48.495.472 1.058-.024 2.12-.032 3.178.003.427.015.498-.135.49-.515-.025-1.06.003-2.118-.016-3.177-.005-.296.085-.378.37-.368.544.02 1.09.025 1.634-.001.33-.017.424.082.42.416-.018 1.633-.008 3.266-.008 4.899"/>
        <path fill="#D62733" d="M86.046 59.858c0 .38-.002.762.002 1.144.001.109-.035.27.14.269.77-.004 1.566.127 2.254-.373.458-.334.622-.804.549-1.352-.075-.564-.404-.931-.942-1.103-.588-.188-1.19-.1-1.79-.083-.213.006-.213.158-.213.31v1.188m3.455 2.333c.801.384 1.158 1.045 1.384 1.798.282.943.543 1.89.835 2.83.096.305-.007.352-.278.346-.587-.013-1.177-.02-1.765.004-.279.01-.392-.114-.478-.345-.254-.691-.418-1.407-.606-2.116-.053-.2-.106-.398-.178-.59-.336-.901-1.308-1.372-2.218-1.092-.22.068-.138.235-.139.36-.007 1.119-.015 2.238.003 3.356.005.318-.063.447-.41.428-.557-.031-1.12-.02-1.677-.004-.257.007-.324-.086-.324-.332.006-3.252.005-6.505 0-9.757 0-.211.044-.316.277-.344 1.744-.208 3.49-.356 5.224.048 2.599.606 2.752 3.412 1.514 4.644-.327.325-.714.549-1.164.766M64.56 58.38c-.333 1.422-.7 2.719-1.084 4.01-.073.246.09.227.24.227.573 0 1.148-.011 1.721.005.293.008.382-.038.28-.363-.39-1.246-.749-2.502-1.157-3.88m.128-1.753c.412 0 .824.013 1.235-.005.244-.011.362.067.44.309 1.067 3.309 2.142 6.614 3.224 9.918.083.255.04.326-.234.319-.66-.017-1.324-.021-1.985.002-.27.009-.354-.115-.419-.335-.205-.688-.434-1.371-.63-2.061-.076-.266-.186-.382-.483-.374-.808.022-1.618.02-2.426 0-.292-.006-.406.099-.475.377-.172.683-.397 1.352-.57 2.034-.067.256-.159.368-.44.358-.603-.021-1.207-.023-1.809 0-.339.013-.349-.095-.259-.378 1.046-3.285 2.083-6.572 3.114-9.861.075-.237.19-.321.438-.31.425.022.852.007 1.28.007M17.138 58.447c-.375 1.341-.738 2.65-1.105 3.956-.059.209.064.214.21.214.616-.002 1.232-.005 1.848.003.223.003.277-.058.21-.282-.392-1.282-.769-2.568-1.163-3.892m.08-1.82c.426 0 .854.017 1.278-.006.26-.014.36.095.432.323 1.064 3.294 2.135 6.586 3.211 9.877.083.254.08.36-.24.349-.648-.025-1.296-.023-1.943 0-.279.01-.38-.106-.453-.35-.2-.69-.429-1.371-.63-2.062-.07-.239-.162-.366-.447-.359-.838.022-1.677.016-2.516.004-.235-.005-.336.08-.396.302-.193.724-.417 1.439-.605 2.162-.06.231-.166.305-.396.3-.632-.013-1.265-.011-1.897-.001-.246.003-.298-.05-.218-.302 1.053-3.313 2.097-6.629 3.138-9.946.066-.209.164-.309.402-.297.426.02.852.006 1.28.006M76.145 58.385c-.34 1.405-.694 2.706-1.087 3.997-.068.227.07.236.234.235.59-.003 1.178-.014 1.767.005.322.01.317-.105.238-.363-.382-1.249-.747-2.504-1.152-3.874m.133-1.76c.427 0 .853.01 1.28-.004.211-.007.31.07.374.273 1.073 3.322 2.151 6.642 3.238 9.96.094.284.004.315-.244.31-.66-.01-1.324-.013-1.985.002-.236.005-.335-.087-.399-.302-.21-.718-.447-1.428-.657-2.146-.068-.236-.18-.323-.433-.318-.824.016-1.648.016-2.47 0-.27-.006-.389.08-.457.342-.184.71-.408 1.41-.593 2.12-.059.23-.158.308-.39.303-.634-.013-1.267-.01-1.899 0-.232.002-.31-.032-.226-.295 1.061-3.326 2.111-6.655 3.156-9.986.066-.21.176-.268.382-.263.44.012.881.004 1.323.004M28.7 58.373c-.325 1.411-.684 2.696-1.074 3.972-.07.225.024.278.235.275.588-.01 1.178-.012 1.767.001.266.005.324-.062.242-.33-.39-1.262-.758-2.53-1.17-3.918m.102-1.748c.426 0 .854.018 1.279-.006.26-.015.358.097.432.322 1.064 3.294 2.13 6.587 3.208 9.877.085.263.07.36-.244.35-.646-.023-1.294-.023-1.94 0-.283.01-.382-.113-.452-.355-.202-.69-.433-1.37-.631-2.062-.071-.249-.175-.358-.453-.352-.823.02-1.648.02-2.471 0-.28-.006-.381.1-.447.353-.183.696-.402 1.381-.582 2.077-.061.237-.148.345-.41.337-.632-.018-1.265-.014-1.898 0-.255.004-.288-.063-.212-.303 1.053-3.313 2.098-6.628 3.139-9.945.067-.214.168-.308.402-.298.426.018.853.005 1.28.005"/>
        <path fill="#F8B517" d="M104.078 52.156c-2.941 0-5.882-.005-8.823.006-.303 0-.403-.075-.402-.39.01-2.178-.19-4.343-.552-6.49-.077-.458.107-.4.39-.34 1.784.368 3.33 1.205 4.708 2.377.957.814 1.75 1.78 2.546 2.744.636.77 1.285 1.523 2.133 2.093"/>
        <g transform="translate(0 44.26)">
            <mask id="prefix__b" fill="#fff">
                <use xlink:href="#prefix__a"/>
            </mask>
            <path fill="#F8B517" d="M0 7.842c1.462-.874 2.317-2.296 3.41-3.492C5.024 2.584 6.9 1.25 9.277.719c.086-.02.176-.025.26-.051.294-.093.349.015.299.296-.381 2.163-.541 4.347-.578 6.54-.004.247-.014.4-.346.4-2.93-.014-5.86-.01-8.79-.01-.022 0-.046-.02-.122-.052" mask="url(#prefix__b)"/>
        </g>
        <path fill="#D62733" d="M37.095 52.14c1.75-1.73 3.417-3.369 5.712-4.142.304-.103.624-.173.943-.215 1.534-.202 2.596.6 2.855 2.136.111.66.088 1.316.012 1.977-.024.218-.123.262-.314.261-.897-.003-1.795.005-2.692.006-.11 0-.226.031-.278-.136-.123-.402-.453-.423-.789-.369-.216.034-.454.073-.629.19-.475.321-1 .291-1.528.292h-3.292"/>
        <path fill="#D72532" d="M13.296 45.558c.006-.588.222-1.118.47-1.634.304-.637.7-1.22 1.146-1.767.316-.384.692-.687 1.201-.752 1.067-.138 1.857.845 1.579 1.968-.056.225-.14.456-.265.647-.566.865-1.226 1.648-2.04 2.292-.136.108-.29.2-.447.277-.998.492-1.66.076-1.644-1.03"/>
    </g>
</svg>
