<svg xmlns="http://www.w3.org/2000/svg" viewBox="0 0 433.8 140.2">
  <path d="M87 114.4a8 8 0 0 0-4.9-2.3c-2-.1-4.4.5-7.1 2a39.2 39.2 0 0 1-11.8 4.4c-3.7.8-7.5 1.2-11.3 1.2-9.6 0-17-2.5-21.8-7.7A29 29 0 0 1 23 94.5h58c3 0 5.3-.6 6.8-1.8s2.5-3 2.5-5.2c0-7.4-1-14-3-19.8A37.6 37.6 0 0 0 65 43.4a47 47 0 0 0-18-3.2 47 47 0 0 0-24.3 6.2c-7 4-12.8 10-16.7 17.2-4 7.3-6 15.8-6 25.6s2 18.6 6.2 26A42.3 42.3 0 0 0 24 132a59 59 0 0 0 27.5 6c5.5-.1 11-.8 16.3-2.1a49.3 49.3 0 0 0 15.4-6.3c2.4-1.3 4-3 5-5a9.9 9.9 0 0 0 1-5.6c-.2-1.8-1-3.4-2.2-4.7ZM34.3 60.2c3.8-2.5 8.4-3.7 13.8-3.7 4.9 0 9 1 12.2 3.1 3.3 2.2 5.8 5.2 7.5 9.2a34 34 0 0 1 2.5 12H23c.3-3.5 1.2-6.8 2.6-10 2-4.5 4.8-8 8.6-10.5Zm163.4 7.6c1.1 0 2-1 2.1-2.2l2-24.3c0-1.3-1-2.4-2.2-2.6h-4c-1.3 0-2.4 1-2.4 2.4v.2l2 24.3c0 1.3 1.2 2.3 2.5 2.2Zm-18.9-22.5L189 67.5c.6 1.2 2 1.7 3 1.2a2.3 2.3 0 0 0 1.4-2.8l-6.5-23.5c-.4-1.3-1.7-2-3-1.7h-.1l-3.7 1.4a2.4 2.4 0 0 0-1.3 3v.2ZM166.7 54l17.1 17.5c1 1 2.4 1 3.4 0 .8-.8 1-2 .3-3l-14.3-20c-.7-1-2.2-1.3-3.3-.5v.1l-3 2.5c-1 .8-1.2 2.3-.3 3.3l.1.2ZM158 66.3h.3l22 10.6c1.2.6 2.6 0 3.2-1.1.5-1 .2-2.3-.8-3L162.5 59c-1-.7-2.5-.4-3.3.6v.2l-2 3.3c-.6 1.1-.2 2.6.9 3.2Zm-3.6 14.5h.2l24.3 2.5c1.3.1 2.4-.7 2.6-2 .3-1.3-.6-2.5-1.8-2.7L156 72.5c-1.2-.4-2.5.4-2.8 1.7v.1l-.7 3.8c-.3 1.3.6 2.5 1.9 2.7Zm49-11.9c1.1.3 2.3-.2 2.8-1.3l10.2-22.2c.5-1.2 0-2.6-1.1-3.1l-.3-.1-3.6-1.3c-1.2-.5-2.6.2-3 1.4v.2L201.8 66c-.3 1.2.4 2.5 1.6 2.9Zm4.9 2.9c1 .7 2.2.5 3-.3L228.6 54c1-1 .9-2.4 0-3.3l-.2-.1-2.9-2.5c-1-.8-2.5-.7-3.3.3l-.1.1-14.2 20c-.8 1-.6 2.5.5 3.3ZM212 76c.6 1 1.8 1.4 2.9.9l22-10.5c1.2-.6 1.7-2 1.1-3.2V63l-2-3.3c-.6-1.1-2-1.5-3.2-.9l-.1.1-20.2 13.9c-1 .7-1.3 2.2-.5 3.3Zm1.7 5.4c.3 1.2 1.4 2 2.6 1.9l24.3-2.4a2.4 2.4 0 0 0 2.2-2.6v-.2l-.7-3.8a2.4 2.4 0 0 0-3-1.8l-23.6 6.1a2.3 2.3 0 0 0-1.8 2.8Zm19.9 4.7a8.6 8.6 0 0 0-8.3 9.3 28.2 28.2 0 0 1-56.2 0v-.9a8.5 8.5 0 0 0-17 0 45.2 45.2 0 0 0 90.3 0c-.2-4.8-4-8.5-8.8-8.4Zm43.8-4.2 2.8-2.5 36.3-34.2c1.9-1.8 3.9-3.4 6.6-3.9a8 8 0 0 1 6 1.3c6.8 4.7 6.9 12.4 1.6 17.2L304.4 84c-.8.8-.8 1.2 0 2l30.4 34c3.7 4 4.3 9.2 1.2 13s-6.9 5.8-12 4.8a9 9 0 0 1-4.8-2.8l-32-34c-.8-.8-1.2-.8-2 0l-7.3 6.3c-.5.4-.7.9-.6 1.5v18.3c0 4.5-2 8-6 9.9a10.9 10.9 0 0 1-15.7-10.3V15.4c0-3.7 1.3-6.8 4.4-9 3.7-2.7 7.7-2.9 11.7-.9 3.9 2 5.7 5.4 5.7 9.7v66.7ZM385 137.7c-6.7 0-12.6-1.3-17.8-3.8-5.2-2.6-9.3-6-12.3-10.5-3-4.4-4.4-9.4-4.4-14.9a23 23 0 0 1 5.3-16c3.5-4 9.2-6.9 17.1-8.7 8-1.7 18.6-2.6 31.9-2.6h9.4v13.6H405c-7.8 0-14 .3-18.7 1-4.7.8-8 2.1-9.9 4a10 10 0 0 0-3 7.6c0 4.1 1.5 7.5 4.4 10.2 3 2.6 7 4 12 4a20.8 20.8 0 0 0 18.7-11c2-3.4 2.9-7.3 2.9-11.7V77.2c0-6.3-1.4-10.8-4.2-13.5-2.7-2.8-7.4-4.2-14-4.2a57.7 57.7 0 0 0-25 5.8c-2.4 1.2-4.5 1.5-6.3 1a7 7 0 0 1-4.2-3.1c-1-1.6-1.6-3.3-1.6-5.2s.5-3.7 1.6-5.6a9 9 0 0 1 5-4 85.9 85.9 0 0 1 31.3-6.6 54 54 0 0 1 22.4 4.1c5.8 2.8 10.2 7 13 12.6a47 47 0 0 1 4.4 21.5v45.3c0 3.9-1 6.9-2.8 9s-4.6 3-8.1 3-6.3-1-8.2-3c-2-2.1-3-5.1-3-9v-9h1.6a26 26 0 0 1-15 18.8 32.2 32.2 0 0 1-13.3 2.6Zm-254.2 2.5c-10.7 0-18.8-3-24.2-9.2-5.5-6.1-8.2-15.1-8.2-27V12.2c0-4 1-7 3.1-9.1s5-3.1 9-3.1 6.8 1 9 3.1c2 2 3.2 5.1 3.2 9.1v90.6c0 6 1.2 10.3 3.7 13.2 2.6 2.8 6.1 4.2 10.8 4.2a38.1 38.1 0 0 0 5.6-.3c1.8-.3 3 .2 3.7 1.4.7 1.2 1 3.7 1 7.5 0 3.2-.7 5.7-2 7.5a8.5 8.5 0 0 1-6.4 3.3 449.1 449.1 0 0 1-8.3.6Z" style="fill:#fbb11b"/>
</svg>