<svg xmlns="http://www.w3.org/2000/svg" xmlns:xlink="http://www.w3.org/1999/xlink" width="250" height="287" viewBox="0 0 250 287">
    <defs>
        <path id="prefix__a" d="M51.525.83c-1.959.853-3.02 2.964-3.763 4.968-1.337 3.608-2.16 7.404-2.438 11.242-.068.945-.11 1.918-.507 2.779-.397.859-1.254 1.587-2.198 1.509-.808-.065-1.482-.708-1.799-1.456-.317-.746-.338-1.581-.308-2.392.217-5.867 2.983-11.595 7.444-15.413C46.051.927 43.679.6 41.538 1.183c-2.14.584-4.02 2.07-5.082 4.017-1.581 2.901-1.292 6.42-.96 9.706l.777 7.674c.097.964.142 2.078-.563 2.742-.643.607-1.71.561-2.461.095-.751-.465-1.237-1.257-1.6-2.062-1.424-3.15-1.348-6.815-.477-10.16.87-3.345 2.483-6.442 4.083-9.507-8.668 3.319-14.449 6.51-20.836 13.245l-2.36 2.425c.163 4.997 3.058 9.82 7.39 12.315.859.496 1.912 1.147 1.811 2.134-.072.706-.782 1.214-1.489 1.277-.706.062-1.396-.22-2.025-.546-4.929-2.548-7.937-8.376-7.162-13.869C4.234 26.411.385 34.833.202 43.393c-.054 2.498.201 5.043 1.17 7.344.97 2.303 2.721 4.348 5.034 5.291 2.313.942 5.194.616 6.998-1.112 1.045-1.001 1.669-2.369 2.667-3.418.998-1.049 3.015-2.081 3.88-.92.432.58-.941 1.912-1.594 2.492-.244.218-.478.453-.683.709-2.069 2.6-2.359 5.211-1.627 8.581.773 3.556 4.044 8.83 6.476 11.537 2.481 2.761 7.52 4.343 10.3 4.538 11.7.815 16.585-6.053 16.585-6.053s-6.831-.521-10.557-5.472c-3.368-4.476-3.145-9.892-5.738-14.857-.392-.752-.795-1.536-.832-2.384-.036-.847.404-1.778 1.215-2.029.839-.26 1.752.307 2.201 1.064.449.757.555 1.661.699 2.528.852 5.127 3.435 9.951 7.231 13.501 2.572 2.407 5.863 4.283 9.385 4.286 2.698.002 5.304-1.098 7.519-2.639 2.215-1.54 4.09-3.509 5.949-5.464-8.719 1.678-18.225-1.678-23.958-8.458-1.071-1.267-2.068-2.798-1.697-4.498.242-1.112 1.184-2.008 2.32-1.922 1.141.084 1.727 1.086 2.279 1.968 3.828 6.112 10.734 10.18 17.935 10.565 2.019.108 4.155-.09 5.837-1.214 2.982-1.993 3.74-6.296 6.743-8.256-7.735 4.108-17.677 3.687-25.037-1.061-.834-.538-1.661-1.153-2.153-2.016s-.569-2.03.056-2.803c.763-.944 2.256-.943 3.341-.4 1.087.542 1.903 1.488 2.818 2.285 2.46 2.144 5.707 3.235 8.955 3.548 3.248.312 6.522-.105 9.735-.679 1.769-.316 3.721-.807 4.684-2.324.541-.854.67-1.896.786-2.901l1.514-13.173c-.574 1.918-6.501 6.281-10.559 7.058-2.314.444-7.047.195-9.3-.495-.771-.236-1.557-.479-2.211-.951-.654-.472-1.163-1.221-1.132-2.027.035-.872.698-1.622 1.485-2 .788-.377 1.684-.445 2.556-.472 1.431-.045 2.866.001 4.301.048 2.284.074 4.567.148 6.83-.152 3.681-.489 7.484-2.224 9.158-5.539-2.893-5.481-4.307-11.734-4.054-17.926.074-1.846.258-3.843-.742-5.396l-.682 1.678c-1.113 1.822-3.59 2.739-5.595 1.947-1.517-.598-2.732-2.008-4.359-2.125-1.149-.081-2.26.535-3.047 1.377-.786.842-1.304 1.893-1.81 2.928l-4.296 8.788c-.671 1.37-1.802 2.981-3.29 2.647-1.125-.252-1.688-1.516-1.899-2.648-.505-2.723.064-5.631 1.561-7.961 1.497-2.33 3.903-4.058 6.59-4.73-1.247-.989-2.513-1.99-3.978-2.61-.843-.357-1.769-.575-2.682-.575-.673 0-1.338.119-1.958.389m-3.604 27.819c-.682-.45-.852-1.422-.61-2.204.243-.781.407-1.147.812-1.857.365-.638 1.58-2.183 1.58-2.183.411-.432 1.032-.715 1.609-.564.463.123.827.508 1.011.951.184.44.209.934.174 1.412-.108 1.427-.76 2.807-1.796 3.794-.373.356-.802.666-1.294.814-.19.058-.391.089-.59.089-.318 0-.632-.078-.896-.252m-7.483 3.188c-.483-.051-.891-.417-1.108-.851-.217-.435-.271-.932-.291-1.418-.061-1.514.191-3.04.737-4.454.24-.622.616-1.289 1.265-1.441.455-.107.944.086 1.281.411.336.325.539.765.674 1.212.428 1.42.121 2.964-.56 4.282-.181.352-.616 1.458-.616 1.458-.272.448-.754.806-1.27.806-.037 0-.074-.002-.112-.005M56.592 27.8c-.418-.238-.604-.781-.501-1.252.103-.47.447-.86.858-1.112.409-.251.882-.379 1.352-.479.293-.061.594-.112.888-.061.294.05.583.221.7.496.126.293.029.644-.17.894l-.198.289c-.414.513-.957.921-1.564 1.176-.255.107-.538.185-.81.185-.195 0-.384-.039-.555-.136m-31.046 9.01c-2.054-1.812-2.976-4.812-2.29-7.464.275-1.064 1.014-2.214 2.113-2.202.588.006 1.128.367 1.494.829.365.462.584 1.02.797 1.569l1.199 2.267c.549.996 1.109 2.034 1.183 3.169.074 1.135-.489 2.397-1.569 2.754-.212.07-.427.102-.642.102-.822 0-1.648-.462-2.285-1.024m6.72-3.448c-.524-.384-.819-1.025-.905-1.669-.086-.644.014-1.299.15-1.935.084-.395.186-.795.409-1.13.224-.336.593-.599.996-.594.431.006.813.319 1.013.7l.248.404c.407.792.614 1.687.597 2.576-.013.638-.175 1.333-.687 1.713-.239.177-.53.259-.826.259-.351 0-.71-.116-.995-.324m16.752 5.425c-1.089-.413-2.325-.984-2.596-2.118-.158-.664.087-1.386.547-1.89.459-.504 1.112-.805 1.782-.935 1.247-.243 2.494.238 3.578.902 1.572.965 2.103 2.567 2.103 2.567.025 1.112-1.072 1.991-2.176 2.13-.155.02-.309.029-.463.029-.947 0-1.88-.344-2.775-.685m-10.243 5.54c-.927-.331-1.763-1.031-2.061-1.969-.329-1.032.09-2.253.98-2.869.89-.615 2.106-.463 3.03.099.601.366 2.561 1.159 2.561 1.159.775.506 1.314 1.502.995 2.373-.358.978-1.549 1.333-2.585 1.44-.344.035-.691.058-1.037.058-.642 0-1.28-.077-1.883-.291m-22.845.494c-.862-.226-1.706-.583-2.379-1.166-.674-.584-1.163-1.415-1.204-2.305-.075-1.672 7.361-2.576 9.063-1.485.494.317.911.752 1.203 1.262l.04.072c.736 1.316.052 3.003-1.383 3.463-.954.306-1.957.462-2.959.462-.803 0-1.604-.1-2.381-.303m10.609 16.201c-.779-.576-1.305-1.435-1.682-2.328-1.09-2.584-1.03-5.629.163-8.167.236-.503.533-1.006 1.005-1.299.471-.293 1.115-.263 1.53.106 1.011.901 2.309 5.58 2.309 5.58.527 1.121 1.062 2.28 1.103 3.516.042 1.236-.541 2.582-1.686 3.05-.289.118-.595.172-.903.172-.65 0-1.311-.24-1.839-.63"/>
        <path id="prefix__c" d="M21.406.349c-4.92 3.199-9.372 6.998-13.304 11.307-2.573 2.498-4.989 5.162-7.216 7.999-.331.419.303.959.635.537.194-.248.402-.486.599-.731.128.027.268 0 .378-.132.432-.512.881-1.008 1.324-1.51.127.029.265 0 .37-.143.449-.606.918-1.196 1.385-1.786C10.51 10.632 16.06 6.013 22.16 2.126c.452-.287-.024-.97-.476-.682-.181.115-.358.236-.538.353-.055-.06-.122-.112-.2-.134.312-.211.62-.427.937-.632.372-.242.108-.753-.25-.753-.074 0-.151.021-.227.071"/>
        <path id="prefix__e" d="M5.227.27C2.834.27.866 2.157.822 4.515.8 5.673 1.24 6.769 2.061 7.601c.816.828 1.912 1.296 3.087 1.317h.08c2.393 0 4.361-1.887 4.404-4.245.022-1.158-.418-2.254-1.239-3.086C7.577.758 6.481.292 5.307.27h-.08zm-.056 7.284c-.815-.015-1.575-.338-2.139-.91-.561-.569-.861-1.316-.847-2.103.03-1.615 1.389-2.908 3.042-2.908l.056.001c.814.015 1.575.338 2.139.91.561.568.861 1.315.847 2.104-.03 1.613-1.404 2.907-3.039 2.906h-.059z"/>
        <path id="prefix__h" d="M.492 6.171c-.056 3.095 2.388 5.649 5.46 5.705 3.072.057 5.607-2.407 5.663-5.501C11.671 3.281 9.226.726 6.154.671L6.052.67C3.027.67.547 3.112.492 6.171"/>
        <path id="prefix__k" d="M.258 3.937C.227 5.663 1.591 7.088 3.304 7.12c1.713.03 3.126-1.342 3.158-3.068C6.493 2.325 5.129.902 3.416.87H3.36C1.672.87.289 2.231.258 3.937"/>
        <path id="prefix__n" d="M0 0.022L249.388 0.022 249.388 12.74 0 12.74z"/>
        <path id="prefix__p" d="M0.647 0.151L46.538 0.151 46.538 65.356 0.647 65.356z"/>
        <path id="prefix__r" d="M2.493 17.256C-2.463 30.36 4.144 45.003 17.25 49.958c13.105 4.956 27.747-1.65 32.703-14.756 4.956-13.105-1.65-27.748-14.756-32.704C32.242 1.381 29.21.851 26.228.851 15.983.852 6.332 7.105 2.493 17.256"/>
        <linearGradient id="prefix__f" x1="-.006%" x2="100.008%" y1="49.999%" y2="49.999%">
            <stop offset="0%" stop-color="#FFB218"/>
            <stop offset="100%" stop-color="#FFCF44"/>
        </linearGradient>
        <linearGradient id="prefix__i" x1="-.005%" x2="99.999%" y1="49.998%" y2="49.998%">
            <stop offset="0%" stop-color="#FFB218"/>
            <stop offset="100%" stop-color="#FFCF44"/>
        </linearGradient>
        <linearGradient id="prefix__l" x1=".005%" x2="99.997%" y1="49.993%" y2="49.993%">
            <stop offset="0%" stop-color="#FFB218"/>
            <stop offset="100%" stop-color="#FFCF44"/>
        </linearGradient>
    </defs>
    <g fill="none" fill-rule="evenodd">
        <g>
            <path fill="#619440" d="M2.005 69.269c.62-2.748 2.224-11.907 4.869-12.881 2.883-1.06 6.449.302 7.89 3.017.622 1.17.897 2.556 2.09 3.343.666.44 1.582.447 2.131-.132.899-.945.047-2.384-.684-3.422-1.4-1.988-2.4-4.335-2.41-6.768-.01-2.431 1.085-4.937 3.13-6.254 2.044-1.315 5.037-1.164 6.688.622 1.03 1.118 1.465 2.7 2.816 3.575.7.453 1.619.545 2.296.058 1.369-.984.444-3.098-.484-4.498-1.31-1.976-2.46-4.127-2.805-6.472-.345-2.346.233-4.928 1.956-6.557 1.723-1.63 4.688-1.974 6.468-.408.712.628 1.186 1.482 1.852 2.16.798.812 2.087 1.375 3.063.512.677-.6.79-1.6.453-2.44-.463-1.161-1.402-1.863-2.334-2.58-1.468-1.126-2.482-2.783-2.698-4.622-.647-5.493 5.433-7.61 8.86-5.197.962.676 1.925 1.71 3.1 1.379.928-.262 1.438-1.24 1.335-2.198-.2-1.894-1.768-2.991-2.6-4.531-1.523-2.816.186-6.842 3.27-7.7 2.36-.657 2.973 2.399 4.04 5.072.245.614 1.149.484 1.219-.174.276-2.618 1.14-5.886 1.803-7.69 1.217-3.31 6.167-6.94 8.532-2.18.635 1.278.153 4.563-.665 5.472-1.155 1.285-3.904 5.704-3.904 5.704-.257.505.317 1.034.794.727 1.084-.698 2.247-1.246 3.583-1.367.612-.054 1.238.006 1.82.206 3.46 1.192 2.922 5.453.713 7.494-1.838 1.696-4.41 2.278-6.843 2.857-1.261.3-2.625.683-3.252 1.909-.355.695-.27 1.58.325 2.084.688.584 1.474.258 2.23.162 2.477-.315 4.725 2.15 4.701 4.645-.022 2.495-1.851 4.716-4.092 5.812-2.242 1.097-4.829 1.247-7.32 1.12-1.23-.062-2.555-.168-3.526.743-.573.538-.745 1.44-.264 2.06.685.886 1.961.488 3.03.43 2.968-.164 5.325 3.138 4.858 6.073-.468 2.936-3.056 5.188-5.892 6.076-3.194 1-6.669.576-9.951.115-.773-.108-1.564.309-1.803 1.05-.331 1.03.608 1.619 1.34 2.152 2.836 2.055 3.945 6.179 2.522 9.379-1.424 3.2-5.227 5.14-8.654 4.413-2.175-.462-4.16-1.864-6.517-1.154-1.168.35-2.01 1.469-1.787 2.668.282 1.513 1.98 1.945 3.248 2.653 3.521 1.965 4.112 7.277 1.8 10.579-2.314 3.302-9.742 3.407-13.767 3.15-4.023-.254-12.421-.606-16.72-3.343-2.025-1.29-.475-14.154.147-16.903" transform="translate(145 145.849)"/>
            <path fill="#306B34" d="M65.851 2.304c.634 1.276.152 4.562-.665 5.471-1.154 1.285-3.903 5.704-3.903 5.704-.259.505.315 1.034.793.726 1.084-.697 2.247-1.245 3.584-1.366.611-.055 1.237.006 1.818.206 3.46 1.192 2.924 5.452.713 7.493-1.838 1.697-4.409 2.279-6.842 2.858-1.262.3-2.625.682-3.252 1.909-.355.695-.27 1.58.325 2.084.688.584 1.473.258 2.23.162 2.476-.315 4.725 2.149 4.701 4.645-.023 2.495-1.852 4.715-4.093 5.812-2.242 1.097-4.827 1.247-7.32 1.12-1.23-.062-2.554-.168-3.525.742-.573.538-.745 1.441-.264 2.062.685.885 1.962.487 3.03.429 2.967-.164 5.324 3.138 4.857 6.073-.468 2.935-3.055 5.187-5.89 6.076-3.195 1.001-6.67.576-9.952.115-.772-.108-1.565.309-1.804 1.051-.33 1.029.608 1.618 1.342 2.15 2.835 2.056 3.943 6.18 2.52 9.38-1.423 3.2-5.227 5.14-8.653 4.412-2.176-.461-4.16-1.863-6.518-1.153-1.168.351-2.008 1.469-1.785 2.668.282 1.513 1.978 1.944 3.247 2.652 3.521 1.966 7.134 9.49 4.821 12.791-2.314 3.303-12.764 1.196-16.788.94-3.755-.238-11.318-.561-15.805-2.825-.32-.163-.915-.519-.915-.519s22.221-19.309 41.44-44.906C53.974 27.047 63.465.104 63.465.104s.376.083.81.389c.747.529 1.452 1.56 1.576 1.811" transform="translate(145 145.849)"/>
        </g>
        <g transform="translate(159 197.849)">
            <mask id="prefix__b" fill="#fff">
                <use xlink:href="#prefix__a"/>
            </mask>
            <path fill="#FBBF00" d="M51.525.83c-1.959.853-3.02 2.964-3.763 4.968-1.337 3.608-2.16 7.404-2.438 11.242-.068.945-.11 1.918-.507 2.779-.397.859-1.254 1.587-2.198 1.509-.808-.065-1.482-.708-1.799-1.456-.317-.746-.338-1.581-.308-2.392.217-5.867 2.983-11.595 7.444-15.413C46.051.927 43.679.6 41.538 1.183c-2.14.584-4.02 2.07-5.082 4.017-1.581 2.901-1.292 6.42-.96 9.706l.777 7.674c.097.964.142 2.078-.563 2.742-.643.607-1.71.561-2.461.095-.751-.465-1.237-1.257-1.6-2.062-1.424-3.15-1.348-6.815-.477-10.16.87-3.345 2.483-6.442 4.083-9.507-8.668 3.319-14.449 6.51-20.836 13.245l-2.36 2.425c.163 4.997 3.058 9.82 7.39 12.315.859.496 1.912 1.147 1.811 2.134-.072.706-.782 1.214-1.489 1.277-.706.062-1.396-.22-2.025-.546-4.929-2.548-7.937-8.376-7.162-13.869C4.234 26.411.385 34.833.202 43.393c-.054 2.498.201 5.043 1.17 7.344.97 2.303 2.721 4.348 5.034 5.291 2.313.942 5.194.616 6.998-1.112 1.045-1.001 1.669-2.369 2.667-3.418.998-1.049 3.015-2.081 3.88-.92.432.58-.941 1.912-1.594 2.492-.244.218-.478.453-.683.709-2.069 2.6-2.359 5.211-1.627 8.581.773 3.556 4.044 8.83 6.476 11.537 2.481 2.761 7.52 4.343 10.3 4.538 11.7.815 16.585-6.053 16.585-6.053s-6.831-.521-10.557-5.472c-3.368-4.476-3.145-9.892-5.738-14.857-.392-.752-.795-1.536-.832-2.384-.036-.847.404-1.778 1.215-2.029.839-.26 1.752.307 2.201 1.064.449.757.555 1.661.699 2.528.852 5.127 3.435 9.951 7.231 13.501 2.572 2.407 5.863 4.283 9.385 4.286 2.698.002 5.304-1.098 7.519-2.639 2.215-1.54 4.09-3.509 5.949-5.464-8.719 1.678-18.225-1.678-23.958-8.458-1.071-1.267-2.068-2.798-1.697-4.498.242-1.112 1.184-2.008 2.32-1.922 1.141.084 1.727 1.086 2.279 1.968 3.828 6.112 10.734 10.18 17.935 10.565 2.019.108 4.155-.09 5.837-1.214 2.982-1.993 3.74-6.296 6.743-8.256-7.735 4.108-17.677 3.687-25.037-1.061-.834-.538-1.661-1.153-2.153-2.016s-.569-2.03.056-2.803c.763-.944 2.256-.943 3.341-.4 1.087.542 1.903 1.488 2.818 2.285 2.46 2.144 5.707 3.235 8.955 3.548 3.248.312 6.522-.105 9.735-.679 1.769-.316 3.721-.807 4.684-2.324.541-.854.67-1.896.786-2.901l1.514-13.173c-.574 1.918-6.501 6.281-10.559 7.058-2.314.444-7.047.195-9.3-.495-.771-.236-1.557-.479-2.211-.951-.654-.472-1.163-1.221-1.132-2.027.035-.872.698-1.622 1.485-2 .788-.377 1.684-.445 2.556-.472 1.431-.045 2.866.001 4.301.048 2.284.074 4.567.148 6.83-.152 3.681-.489 7.484-2.224 9.158-5.539-2.893-5.481-4.307-11.734-4.054-17.926.074-1.846.258-3.843-.742-5.396l-.682 1.678c-1.113 1.822-3.59 2.739-5.595 1.947-1.517-.598-2.732-2.008-4.359-2.125-1.149-.081-2.26.535-3.047 1.377-.786.842-1.304 1.893-1.81 2.928l-4.296 8.788c-.671 1.37-1.802 2.981-3.29 2.647-1.125-.252-1.688-1.516-1.899-2.648-.505-2.723.064-5.631 1.561-7.961 1.497-2.33 3.903-4.058 6.59-4.73-1.247-.989-2.513-1.99-3.978-2.61-.843-.357-1.769-.575-2.682-.575-.673 0-1.338.119-1.958.389m-3.604 27.819c-.682-.45-.852-1.422-.61-2.204.243-.781.407-1.147.812-1.857.365-.638 1.58-2.183 1.58-2.183.411-.432 1.032-.715 1.609-.564.463.123.827.508 1.011.951.184.44.209.934.174 1.412-.108 1.427-.76 2.807-1.796 3.794-.373.356-.802.666-1.294.814-.19.058-.391.089-.59.089-.318 0-.632-.078-.896-.252m-7.483 3.188c-.483-.051-.891-.417-1.108-.851-.217-.435-.271-.932-.291-1.418-.061-1.514.191-3.04.737-4.454.24-.622.616-1.289 1.265-1.441.455-.107.944.086 1.281.411.336.325.539.765.674 1.212.428 1.42.121 2.964-.56 4.282-.181.352-.616 1.458-.616 1.458-.272.448-.754.806-1.27.806-.037 0-.074-.002-.112-.005M56.592 27.8c-.418-.238-.604-.781-.501-1.252.103-.47.447-.86.858-1.112.409-.251.882-.379 1.352-.479.293-.061.594-.112.888-.061.294.05.583.221.7.496.126.293.029.644-.17.894l-.198.289c-.414.513-.957.921-1.564 1.176-.255.107-.538.185-.81.185-.195 0-.384-.039-.555-.136m-31.046 9.01c-2.054-1.812-2.976-4.812-2.29-7.464.275-1.064 1.014-2.214 2.113-2.202.588.006 1.128.367 1.494.829.365.462.584 1.02.797 1.569l1.199 2.267c.549.996 1.109 2.034 1.183 3.169.074 1.135-.489 2.397-1.569 2.754-.212.07-.427.102-.642.102-.822 0-1.648-.462-2.285-1.024m6.72-3.448c-.524-.384-.819-1.025-.905-1.669-.086-.644.014-1.299.15-1.935.084-.395.186-.795.409-1.13.224-.336.593-.599.996-.594.431.006.813.319 1.013.7l.248.404c.407.792.614 1.687.597 2.576-.013.638-.175 1.333-.687 1.713-.239.177-.53.259-.826.259-.351 0-.71-.116-.995-.324m16.752 5.425c-1.089-.413-2.325-.984-2.596-2.118-.158-.664.087-1.386.547-1.89.459-.504 1.112-.805 1.782-.935 1.247-.243 2.494.238 3.578.902 1.572.965 2.103 2.567 2.103 2.567.025 1.112-1.072 1.991-2.176 2.13-.155.02-.309.029-.463.029-.947 0-1.88-.344-2.775-.685m-10.243 5.54c-.927-.331-1.763-1.031-2.061-1.969-.329-1.032.09-2.253.98-2.869.89-.615 2.106-.463 3.03.099.601.366 2.561 1.159 2.561 1.159.775.506 1.314 1.502.995 2.373-.358.978-1.549 1.333-2.585 1.44-.344.035-.691.058-1.037.058-.642 0-1.28-.077-1.883-.291m-22.845.494c-.862-.226-1.706-.583-2.379-1.166-.674-.584-1.163-1.415-1.204-2.305-.075-1.672 7.361-2.576 9.063-1.485.494.317.911.752 1.203 1.262l.04.072c.736 1.316.052 3.003-1.383 3.463-.954.306-1.957.462-2.959.462-.803 0-1.604-.1-2.381-.303m10.609 16.201c-.779-.576-1.305-1.435-1.682-2.328-1.09-2.584-1.03-5.629.163-8.167.236-.503.533-1.006 1.005-1.299.471-.293 1.115-.263 1.53.106 1.011.901 2.309 5.58 2.309 5.58.527 1.121 1.062 2.28 1.103 3.516.042 1.236-.541 2.582-1.686 3.05-.289.118-.595.172-.903.172-.65 0-1.311-.24-1.839-.63" mask="url(#prefix__b)"/>
        </g>
        <g transform="translate(161 244.849)">
            <mask id="prefix__d" fill="#fff">
                <use xlink:href="#prefix__c"/>
            </mask>
            <path fill="#FFDE8E" d="M21.406.349c-4.92 3.199-9.372 6.998-13.304 11.307-2.573 2.498-4.989 5.162-7.216 7.999-.331.419.303.959.635.537.194-.248.402-.486.599-.731.128.027.268 0 .378-.132.432-.512.881-1.008 1.324-1.51.127.029.265 0 .37-.143.449-.606.918-1.196 1.385-1.786C10.51 10.632 16.06 6.013 22.16 2.126c.452-.287-.024-.97-.476-.682-.181.115-.358.236-.538.353-.055-.06-.122-.112-.2-.134.312-.211.62-.427.937-.632.372-.242.108-.753-.25-.753-.074 0-.151.021-.227.071" mask="url(#prefix__d)"/>
        </g>
        <path fill="#306B34" d="M213.843 188.195l-.045-.036c-1.66-1.3-4.057-1.025-5.34.615-.62.793-.892 1.782-.764 2.788.128 1.008.628 1.904 1.448 2.54 1.661 1.3 4.057 1.025 5.341-.614.62-.793.892-1.783.764-2.788-.126-.99-.624-1.877-1.404-2.505m-5.705 7.063c-1.089-.877-1.785-2.12-1.96-3.502-.18-1.415.202-2.808 1.076-3.924 1.803-2.303 5.161-2.696 7.486-.877 1.128.874 1.843 2.14 2.023 3.552.18 1.414-.202 2.807-1.077 3.923-1.803 2.302-5.16 2.696-7.486.877l-.062-.05"/>
        <g transform="translate(191 141.849)">
            <mask id="prefix__g" fill="#fff">
                <use xlink:href="#prefix__e"/>
            </mask>
            <path fill="url(#prefix__f)" d="M5.227.27C2.834.27.866 2.157.822 4.515.8 5.673 1.24 6.769 2.061 7.601c.816.828 1.912 1.296 3.087 1.317h.08c2.393 0 4.361-1.887 4.404-4.245.022-1.158-.418-2.254-1.239-3.086C7.577.758 6.481.292 5.307.27h-.08zm-.056 7.284c-.815-.015-1.575-.338-2.139-.91-.561-.569-.861-1.316-.847-2.103.03-1.615 1.389-2.908 3.042-2.908l.056.001c.814.015 1.575.338 2.139.91.561.568.861 1.315.847 2.104-.03 1.613-1.404 2.907-3.039 2.906h-.059z" mask="url(#prefix__g)"/>
        </g>
        <g transform="translate(177 150.849)">
            <mask id="prefix__j" fill="#fff">
                <use xlink:href="#prefix__h"/>
            </mask>
            <path fill="url(#prefix__i)" d="M.492 6.171c-.056 3.095 2.388 5.649 5.46 5.705 3.072.057 5.607-2.407 5.663-5.501C11.671 3.281 9.226.726 6.154.671L6.052.67C3.027.67.547 3.112.492 6.171" mask="url(#prefix__j)"/>
        </g>
        <g transform="translate(216 180.849)">
            <mask id="prefix__m" fill="#fff">
                <use xlink:href="#prefix__k"/>
            </mask>
            <path fill="url(#prefix__l)" d="M.258 3.937C.227 5.663 1.591 7.088 3.304 7.12c1.713.03 3.126-1.342 3.158-3.068C6.493 2.325 5.129.902 3.416.87H3.36C1.672.87.289 2.231.258 3.937" mask="url(#prefix__m)"/>
        </g>
        <g>
            <g transform="translate(0 .849) translate(0 269)">
                <mask id="prefix__o" fill="#fff">
                    <use xlink:href="#prefix__n"/>
                </mask>
                <path fill="#FFDE8E" d="M0 6.381C0 2.87 55.827.022 124.694.022c68.866 0 124.694 2.847 124.694 6.36 0 3.512-55.828 6.358-124.694 6.358C55.827 12.74 0 9.894 0 6.381" mask="url(#prefix__o)"/>
            </g>
            <path fill="#57575E" d="M78.304 45.663c.82-11.157 17.01-14.938 16.602-17.94-1.242-9.119-3.851-16.837.794-22.578 5.405-6.68 16.288-4.449 18.48-2.672 3.753-1.268 6.989.42 9.358 3.385 1.6 2.004 2.276 3.5 2.954 7.681.738-.463 7.908.522 13.68 8.668 2.608 3.68 3.62 8.353 3.43 11.792-.297 5.43-2.148 9.336-14.592 14.912-5.745 2.575-21.174 20.19-36.362 16.444-11.874-2.928-14.855-12.735-14.344-19.692" transform="translate(0 .849)"/>
            <path fill="#E7E1D3" d="M67.061 93.813c2.116-14.448 20.49-20.854 31-25.85 11.727-5.575 13.008 2.338 14.635 5.997 0 0-8.13 8.842-16.059 14.738-6.308 4.69-23.376 13.449-23.376 13.449s-6.956-3.167-6.2-8.334" transform="translate(0 .849)"/>
            <path fill="#E7E1D3" d="M111.78 76.737l-15.176-4.064s.526-9.953.605-18.276c.103-10.805 2.767-19.797 12.747-23.601l1.067 1.736.758 44.206z" transform="translate(0 .849)"/>
            <g transform="translate(0 .849) translate(77)">
                <mask id="prefix__q" fill="#fff">
                    <use xlink:href="#prefix__p"/>
                </mask>
                <path fill="#57575E" d="M15.648 65.356c-1.934-.461-3.87-1.036-5.636-2.015-1.764-.966-3.394-2.207-4.758-3.72-2.753-3.03-4.21-7.086-4.54-11.144-.153-2.016-.08-4.148.627-6.156.705-1.99 1.92-3.751 3.341-5.24 2.854-3.001 6.448-5.03 9.801-7.081.825-.516 1.665-1.056 2.264-1.64.136-.143.252-.285.311-.397.03-.054.024-.083.046-.113-.028-.037.02.054-.014-.123l-.216-1.465-.934-5.894c-.3-1.98-.569-3.986-.618-6.034-.04-2.04.122-4.157.866-6.144.735-1.982 1.995-3.771 3.643-5.09C21.473 1.774 23.45.938 25.462.52c2.02-.421 4.087-.46 6.108-.222 1.01.123 2.013.315 2.992.605.979.295 1.943.65 2.824 1.317l-.31-.055c1.758-.557 3.724-.496 5.39.256 1.678.734 3.015 2.018 4.072 3.439-1.158-1.343-2.578-2.485-4.207-3.106-1.63-.627-3.444-.574-5.046.029-.095.036-.196.02-.274-.031l-.037-.025c-.738-.5-1.693-.815-2.627-1.037-.939-.244-1.904-.396-2.873-.48-1.936-.163-3.9-.055-5.764.4-1.861.453-3.622 1.279-5.037 2.508-1.402 1.23-2.527 2.789-3.148 4.554-1.24 3.575-.66 7.585-.05 11.454l1.002 5.892.212 1.49c.023.069.026.41 0 .62-.049.205-.12.423-.209.584-.181.328-.393.563-.602.779-.843.795-1.712 1.308-2.573 1.843-3.44 2.045-6.894 3.966-9.588 6.74-1.342 1.368-2.435 2.957-3.102 4.713-.685 1.74-.828 3.674-.747 5.62.173 3.86 1.458 7.727 3.935 10.75 1.224 1.517 2.73 2.804 4.404 3.846 1.68 1.039 3.544 1.747 5.44 2.354" mask="url(#prefix__q)"/>
            </g>
            <path fill="#7F786A" d="M142.563 64.711s15.228 21.57 20.497 39.672c5.269 18.102-.678 58.386-.678 58.386l-7.033.94s-41.422 4.065-62.433-3.693c0 0-.254-65.94 22.409-92.155l27.238-3.15z" transform="translate(0 .849)"/>
            <path fill="#A29C8F" d="M112.648 163.467c-10.05-.296-9.572.267-18.212-2.925 0 0-2.384-66.162 20.278-92.376l8.64 1.118s.177 30.599-1.355 53.8c-1.328 20.091-9.064 40.392-9.35 40.383" transform="translate(0 .849)"/>
            <path fill="#F0AEAE" d="M60.304 184.715s-25.81-31.583-15.999-47.494c5.648-9.159 36.18 11.14 36.18 11.14s-13.956 13.192-20.18 36.354M146.782 276.214c5.832.523 10.984-3.78 11.507-9.612l2.236-24.927c.524-5.832-3.78-10.983-9.612-11.507-5.832-.522-10.983 3.78-11.506 9.612l-2.237 24.927c-.523 5.832 3.78 10.984 9.612 11.507M68.796 275.832c5.603 1.695 11.52-1.475 13.215-7.079l7.245-23.955c1.695-5.605-1.475-11.523-7.08-13.217-5.605-1.694-11.522 1.475-13.216 7.08l-7.244 23.955c-1.694 5.605 1.475 11.522 7.08 13.216" transform="translate(0 .849)"/>
            <path fill="#FFBFBF" d="M42.636 201.983c-.625 37.525 32.944 68.514 74.98 69.214 42.037.7 76.621-29.151 77.246-66.677.625-37.525-32.945-68.514-74.98-69.214-42.037-.701-76.62 29.152-77.246 66.677" transform="translate(0 .849)"/>
            <path fill="#F0AEAE" d="M30.074 200.791c-1.16 11.078 6.675 20.977 17.5 22.11 10.825 1.133 20.54-6.928 21.7-18.006 1.16-11.078-6.675-20.977-17.5-22.11-10.825-1.134-20.54 6.928-21.7 18.006M96.653 193.807c-.096 0-.194-.005-.292-.017-1.322-.16-2.264-1.362-2.104-2.683.494-4.084-1.919-7.851-5.739-8.956-3.599-1.046-7.438.578-9.347 3.94-.658 1.158-2.132 1.563-3.287.906-1.158-.657-1.564-2.13-.906-3.287 3.016-5.313 9.143-7.861 14.883-6.191 6.1 1.767 9.962 7.725 9.183 14.166-.148 1.225-1.188 2.122-2.39 2.122M77.912 210.693c-.093 5.566 7.535 10.207 17.036 10.365 9.501.158 17.28-4.225 17.372-9.792.092-5.566-7.535-10.207-17.036-10.366-9.5-.158-17.279 4.227-17.372 9.793" transform="translate(0 .849)"/>
            <path fill="#FFBFBF" d="M28.258 201.254c-1.08 10.311 5.995 19.501 15.8 20.527 9.806 1.027 18.63-6.499 19.71-16.809 1.08-10.31-5.994-19.5-15.801-20.528-9.805-1.026-18.63 6.5-19.71 16.81" transform="translate(0 .849)"/>
            <path fill="#F0AEAE" d="M47.233 200.742c-.054 3.238 1.069 5.884 2.509 5.908 1.44.024 2.65-2.583 2.704-5.82.054-3.24-1.069-5.886-2.508-5.91-1.44-.024-2.651 2.583-2.705 5.822M35.07 200.027c-.055 3.239 1.068 5.885 2.508 5.908 1.44.025 2.65-2.582 2.704-5.821.054-3.24-1.069-5.884-2.509-5.908-1.439-.024-2.65 2.582-2.704 5.82M150.221 146.233s-9.994-2.73-24.75-2.996c-7.224-.131-17.256 2.846-28.027 8.59-5.275 2.813-11.389 3.263-17.236 2.024l-.19-.04c-1.88-.361-2.434-2.758-.863-3.852 5.096-3.552 13.317-7.43 25.231-9.93 5.64-1.183 14.597-1.538 19.914-1.091 13.937 1.172 25.921 7.295 25.921 7.295" transform="translate(0 .849)"/>
            <path fill="#F0AEAE" d="M131.459 196.261s17.002-39.851 1.257-53.973c-9.064-8.13-34.848 21.121-34.848 21.121s8.358 1.328 20.326 13.98c4.762 5.034 8.519 11.369 13.265 18.872" transform="translate(0 .849)"/>
            <path fill="#F0A96E" d="M125.944 103.323L127.72 105.546 130.889 103.011 129.113 100.79z" transform="translate(0 .849)"/>
            <path fill="#E7E1D3" d="M136.346 105.825c14.572-.927 20.072-11.017 25.913-21.082 6.516-11.231 5.602-22.11-2.982-29.597 0 0-1.551 4.5-5.458 8.81-6.576 7.25-21.431 27.87-26.014 34.28-.834 1.166-.696 2.776.346 3.763 1.83 1.732 4.912 4.034 8.195 3.826" transform="translate(0 .849)"/>
            <path fill="#E1DCFF" d="M126.107 63.199c0 .936.759 1.694 1.695 1.694s1.694-.758 1.694-1.694c0-.938-.758-1.694-1.694-1.694-.936 0-1.695.756-1.695 1.694" transform="translate(0 .849)"/>
            <path fill="#F5EFE4" d="M109.952 74.773s2.826 3.264 16.872.949c12.857-2.12 18.429-7.047 18.429-7.047l-1.355-24.392c-1.078-7.114-6.853-18.571-17.38-16.974l-14.614 2.673c-10.114 2.822-10.64 8.13-9.464 16.138 1.138 7.754 7.512 28.653 7.512 28.653" transform="translate(0 .849)"/>
            <path fill="#FDC68B" d="M117.733 29.438l-.925.403c-.64.28-1.387-.013-1.666-.655l-2.703-6.206c-.279-.641.013-1.386.653-1.666l.926-.404c.641-.28 1.387.013 1.666.654l2.704 6.207c.279.64-.014 1.387-.655 1.667" transform="translate(0 .849)"/>
            <path fill="#F0A96E" d="M113.011 24.294c-.596-1.367-.352-2.792.544-3.183.897-.39 2.106.402 2.702 1.77l1.345 3.112c.326.746-1.479 1.021-2.392.69-.998-.365-1.586-.983-1.586-.983l-.613-1.406z" transform="translate(0 .849)"/>
            <path fill="#FDC68B" d="M104.964 18.545c.25-.187.586-.212.946-.104-.313-.86-.55-1.528-.55-1.528-.167-.448-.276-.907-.34-1.366-.309-1.947.337-3.902 1.67-5.284l.07-.073c.102-.102.208-.2.318-.295.054-.048.11-.096.167-.143.093-.075.19-.147.286-.218.07-.05.14-.098.212-.146.103-.068.21-.132.317-.194.067-.038.134-.076.203-.11.132-.07.267-.135.406-.195.023-.01.045-.023.068-.032.014-.006.028-.009.042-.014.135-.057.272-.11.413-.157 3.196-1.07 6.657.7 7.84 3.855 0 0 .261.66.591 1.518.2-.323.473-.529.785-.55.711-.054 1.358.855 1.445 2.031.08 1.054-.32 1.961-.917 2.175.01.045.02.085.024.114.328 2.323-.806 4.09-1.917 5.756-.482.724-1.18 1.237-1.965 1.502-.766.317-1.63.388-2.469.16-1.933-.527-3.948-1.113-5.227-3.08-.016-.024-.036-.06-.057-.1-.192.072-.416.077-.652.021-.49-.116-1.037-.493-1.463-1.062-.706-.943-.816-2.054-.246-2.48" transform="translate(0 .849)"/>
            <path fill="#F0A96E" d="M108.67 8.889c.022-.01.043-.022.067-.032.014-.006.029-.01.043-.014.135-.057.272-.11.412-.157 3.197-1.07 6.658.699 7.84 3.855 0 0 .261.66.592 1.518.2-.322.473-.528.785-.551.71-.053 1.357.857 1.444 2.032.08 1.054-.32 1.96-.916 2.175.01.045.02.085.023.114.329 2.324-.805 4.09-1.916 5.756-.483.724-1.18 1.238-1.965 1.502-.415.172-2.658-1.77-5.087-8.274-2.12-5.674-1.386-7.896-1.323-7.924" transform="translate(0 .849)"/>
            <path fill="#FCC23F" d="M118.722 16.932c-1.19.84-1.775 2.372-1.106 3.739.647 1.323 2.23 1.866 3.583 1.349 3.18-1.22 2.156-6.015-1.317-5.556-.3.04-.644.654-.201.595 1.072-.142 2.085.318 2.58 1.295.613 1.208.128 2.722-1.211 3.148-2.51.8-4.17-2.683-2.03-4.197.378-.266.073-.636-.298-.373" transform="translate(0 .849)"/>
            <path fill="#F0A96E" d="M119.833 15.341s.231 1.37-.5 2.104l-.05-1.023.55-1.08z" transform="translate(0 .849)"/>
            <path fill="#FDC68B" d="M118.15 27.78L118.087 31.498 116.624 31.654 115.352 29.357z" transform="translate(0 .849)"/>
            <path fill="#E7E1D3" d="M121.889 34.42L121.868 28.321 117.961 26.774 117.105 31.586zM113.975 36.435L111.822 30.032 114.579 27.935 117.105 31.586zM149.488 70.504s15.422.484 16.092-3.862c.825-5.353-9.766-17.105-13.887-24.435-5.353-9.517-13.961-16.355-23.38-15l.305.325 20.87 42.972z" transform="translate(0 .849)"/>
            <path fill="#A29C8F" d="M116.533 36.415c.175.92 1.062 1.522 1.98 1.348.92-.175 1.524-1.063 1.35-1.982-.176-.919-1.063-1.522-1.982-1.347-.92.174-1.523 1.062-1.348 1.981M117.706 44.747c.175.92 1.062 1.522 1.98 1.348.92-.175 1.524-1.063 1.35-1.982-.176-.92-1.063-1.523-1.982-1.347-.92.174-1.523 1.061-1.348 1.981M119.316 53.5c.175.92 1.062 1.522 1.982 1.348.919-.175 1.522-1.063 1.348-1.982-.176-.92-1.062-1.523-1.982-1.347-.919.174-1.523 1.061-1.348 1.981" transform="translate(0 .849)"/>
            <path fill="#FCC23F" d="M125.468 127.944c-6.177 16.334-24.426 24.568-40.761 18.39-16.334-6.176-24.57-24.425-18.391-40.76 6.177-16.334 24.426-24.568 40.76-18.392 16.335 6.178 24.569 24.427 18.392 40.762" transform="translate(0 .849)"/>
        </g>
        <g transform="translate(70 90.849)">
            <mask id="prefix__s" fill="#fff">
                <use xlink:href="#prefix__r"/>
            </mask>
            <path fill="#FFBF4D" d="M2.493 17.256C-2.463 30.36 4.144 45.003 17.25 49.958c13.105 4.956 27.747-1.65 32.703-14.756 4.956-13.105-1.65-27.748-14.756-32.704C32.242 1.381 29.21.851 26.228.851 15.983.852 6.332 7.105 2.493 17.256" mask="url(#prefix__s)"/>
        </g>
        <g>
            <path fill="#FFE2B7" d="M34.64 98.413c.74-.339 1.002-1.355.584-2.27-.418-.915-1.358-1.38-2.1-1.043l-8.051 3.682-5.37 2.455c-.74.34-1.001 1.356-.583 2.271.418.914 1.359 1.382 2.1 1.043l5.368-2.455c1.747-.799 3.858-.086 5.294 1.585l-9.147 4.183c-.741.338-1.003 1.356-.584 2.27.418.915 1.359 1.382 2.099 1.043l9.147-4.183c.325 2.18-.516 4.242-2.263 5.041l-5.37 2.455c-.173.08-.328.203-.454.36-.25.32-.366.761-.316 1.231.047.467.257.925.579 1.266.16.174.343.311.539.406l16.793 8.342c.41.204.829.21 1.173.052.343-.157.612-.476.729-.919.228-.884-.253-1.935-1.072-2.34l-13.215-6.566 2.129-.973c3.242-1.483 4.647-5.57 3.542-9.632l1.479-.677c.74-.339 1.003-1.356.585-2.27-.42-.915-1.36-1.382-2.1-1.044l-1.48.677c-.764-1.14-1.72-2.05-2.754-2.746l2.719-1.244z" transform="translate(64 5.849)"/>
            <path fill="#FF881D" d="M8.645 102.115l.932-2.292c.367-.738.77-1.461 1.157-2.194.434-.704.924-1.374 1.384-2.064.5-.66 1.056-1.278 1.582-1.92 2.238-2.454 4.992-4.432 8.009-5.832 3.033-1.368 6.336-2.144 9.658-2.218.83.026 1.66.022 2.486.073.823.108 1.649.185 2.465.319.806.194 1.614.37 2.412.579l2.336.819c-3.12-1.068-6.418-1.568-9.686-1.416-3.267.15-6.506.91-9.47 2.287-2.98 1.338-5.677 3.281-7.938 5.644-2.264 2.362-4.062 5.171-5.327 8.215" transform="translate(64 5.849)"/>
            <path fill="#FCD24F" d="M41.295 87.47c2.315.917 4.538 2.08 6.538 3.582 1.965 1.536 3.743 3.317 5.228 5.335 1.438 2.05 2.594 4.288 3.441 6.647.789 2.381 1.237 4.864 1.363 7.37.082 2.511-.24 5.019-.847 7.455-.396 1.19-.713 2.411-1.266 3.543l-.376.863c-.065.143-.122.29-.193.43l-.23.41-.922 1.642c-1.361 2.111-2.974 4.061-4.86 5.728-1.913 1.631-4.038 3.003-6.315 4.073-2.309 1-4.744 1.685-7.233 2.04-2.497.311-5.027.23-7.51-.146l-1.841-.396-.461-.098c-.152-.04-.299-.094-.449-.14l-.896-.29c-1.214-.334-2.34-.903-3.494-1.395-2.228-1.157-4.323-2.573-6.151-4.298-1.795-1.752-3.36-3.731-4.623-5.898-1.209-2.196-2.122-4.545-2.708-6.978-.529-2.449-.689-4.96-.54-7.452.199-2.493.797-4.928 1.641-7.27-.807 2.355-1.364 4.795-1.521 7.279-.108 2.482.091 4.972.654 7.389.607 2.404 1.528 4.719 2.742 6.878 1.267 2.13 2.83 4.067 4.614 5.778 1.819 1.68 3.889 3.056 6.08 4.191 1.137.48 2.244 1.039 3.44 1.362l.882.282c.147.045.292.099.441.137l.454.095 1.811.384c2.44.362 4.923.434 7.375.122 2.442-.356 4.828-1.037 7.092-2.022 2.236-1.044 4.326-2.384 6.209-3.979 1.856-1.632 3.444-3.542 4.788-5.611l.912-1.611.227-.403c.071-.137.127-.282.191-.422l.372-.848c.547-1.111.862-2.31 1.255-3.48.598-2.394.937-4.857.881-7.333-.103-2.468-.522-4.923-1.28-7.282-.815-2.339-1.942-4.56-3.343-6.607-1.439-2.022-3.175-3.819-5.107-5.38-1.966-1.526-4.164-2.722-6.465-3.676" transform="translate(64 5.849)"/>
            <path fill="#FCC23F" d="M46.51 19.644c-1.522 3.362-6.253-.35-3.641-2.775.33-.308.04-.69-.3-.373-1.338 1.243-1.57 3.419.06 4.569 1.653 1.167 3.733.217 4.505-1.487.18-.401-.501-.205-.624.066" transform="translate(64 5.849)"/>
            <path fill="#FDC68B" d="M45.787 19.28s1.316.595 1.8.63c.366.026.064-1.273.064-1.273s-1.84.537-1.864.642" transform="translate(64 5.849)"/>
            <path fill="#57575E" d="M38.795 16.766s6.423-5.216 6.76-10.702c.326-5.32-1.46-6.151-4.016-4.76-2.557 1.393-3.668 9.208-2.744 15.462" transform="translate(64 5.849)"/>
            <path fill="#57575E" d="M41.694 1.091s5.704 7.16 12.126 6.733C60.243 7.4 50.587.026 50.587.026l-8.893 1.065z" transform="translate(64 5.849)"/>
            <path fill="#F0A96E" d="M4.332 99.744s-1.45.808-2.121.69c-.514-.088-1.64-1.289-1.64-1.289s2.08-3.758 2.862-4.713c.44-.538.616-.534 1.507-.305.592.151.896.761.767 1.856l-1.375 3.761z" transform="translate(64 5.849)"/>
            <path fill="#F0A96E" d="M6.206 99.077l-.318.043c-.44.06-.847-.25-.907-.69l-.426-3.134 1.116-.153.535 3.934zM3.69 102.816c.618-.071 1.06-.63.99-1.248l-.326-2.824-1.12.13.455 3.942z" transform="translate(64 5.849)"/>
            <path fill="#F0A96E" d="M2.287 104.015c.622.015 1.14-.551 1.157-1.263l.078-3.256-1.126-.026-.11 4.545z" transform="translate(64 5.849)"/>
            <path fill="#F0A96E" d="M1.335 103.743c.622.016 1.14-.55 1.157-1.263l.078-3.255-1.126-.027-.109 4.545z" transform="translate(64 5.849)"/>
            <path fill="#F0A96E" d="M.99 103.368c.619-.058 1.067-.68 1-1.389l-.301-3.242-1.117.408.418 4.223zM5.145 95.664l-1.708-.59.732-1.647c.506-1.138 1.64-1.635 2.776-1.129l-1.8 3.366zM57.937 101.31s.352 2.335.886 2.858c.408.4 2.198.633 2.198.633s3.495-3.525 3.438-4.878c-.026-.645-.995-1.58-1.77-2.226-.513-.43-1.274-.371-1.715.134l-3.037 3.479z" transform="translate(64 5.849)"/>
            <path fill="#F0A96E" d="M57.421 97.733l.002.03c.045.664.62 1.165 1.284 1.12l3.142-.213-.084-1.232-4.344.295zM55.239 103.509c-.228-.643.11-1.349.753-1.576l2.94-1.039.412 1.165-4.105 1.45z" transform="translate(64 5.849)"/>
            <path fill="#F0A96E" d="M54.834 105.414c-.287-.618.055-1.387.764-1.716l3.24-1.503.52 1.121-4.524 2.098z" transform="translate(64 5.849)"/>
            <path fill="#F0A96E" d="M55.523 106.253c-.287-.619.055-1.388.764-1.716l3.24-1.503.52 1.121-4.524 2.098z" transform="translate(64 5.849)"/>
            <path fill="#F0A96E" d="M56.994 107.135c-.346-.588-.08-1.386.595-1.781l3.08-1.809.353 1.256-4.028 2.334z" transform="translate(64 5.849)"/>
            <path fill="#FFD0D0" d="M26.927 257.581l5.248 20.593s5.432 3.687 10.58.801c7.671-4.304 7.328-22.06 7.328-22.06s-3.3 2.352-11.924 2.382c-7.957.027-11.232-1.716-11.232-1.716" transform="translate(64 5.849)"/>
            <path fill="#FFD0D0" d="M25.796 257.978l3.587 14.077c.447 1.75.626 4.832 1.623 6.366.911 1.404 3.378 2.014 4.91 2.319 13.01 2.59 15.476-14.797 15.335-23.99-.014-.86-1.208-.891-1.748-.526-2.966 2.009-7.627 2.137-11.022 2.16-3.404.024-7.599.017-10.724-1.562-.965-.488-2.857.914-1.66 1.519 3.868 1.955 9.026 1.976 13.209 1.84 3.601-.116 8.235-.462 11.357-2.576l-1.747-.527c.057 3.737-.321 7.578-1.152 11.216-.632 2.766-1.534 5.72-3.322 7.973-2.227 2.804-8.636 4.342-11.343 1.208.33.382-.465-2.333-.613-2.916l-1.706-6.692-2.722-10.683c-.284-1.115-2.553-.348-2.262.794M93.49 250.4l11.855 15.97s6.015 1.264 9.446-3.063c5.116-6.45-1.485-21.705-1.485-21.705s-2.022 3.208-9.48 6.296c-6.881 2.849-10.336 2.502-10.336 2.502" transform="translate(64 5.849)"/>
            <path fill="#FFD0D0" d="M92.651 251.145l8.104 10.917c1.008 1.357 2.258 3.963 3.666 4.937 1.287.892 3.64.544 5.075.265 12.185-2.376 8.148-18.308 4.762-26.22-.316-.74-1.362-.342-1.7.165-1.856 2.793-5.846 4.559-8.779 5.785-2.939 1.228-6.574 2.712-9.84 2.454-1.01-.08-2.15 1.805-.899 1.904 4.044.32 8.518-1.493 12.092-3.095 3.078-1.38 6.967-3.324 8.921-6.263l-1.7.164c1.376 3.216 2.412 6.675 2.984 10.122.435 2.619.703 5.498-.046 8.084-.932 3.218-5.937 6.825-9.394 5.073.421.213-1.23-1.855-1.566-2.308l-3.853-5.19-6.15-8.284c-.642-.865-2.335.604-1.677 1.49" transform="translate(64 5.849)"/>
        </g>
    </g>
</svg>
