<svg xmlns="http://www.w3.org/2000/svg" xmlns:xlink="http://www.w3.org/1999/xlink" width="630" height="480" viewBox="0 0 630 480">
    <defs>
        <path id="prefix__a" d="M6.01.598c-1.457.028-2.818.607-3.83 1.635C1.161 3.266.615 4.626.642 6.063c.054 2.926 2.497 5.27 5.466 5.27l.1-.001c1.458-.026 2.818-.607 3.831-1.634 1.019-1.034 1.566-2.394 1.538-3.83C11.523 2.942 9.08.598 6.111.598H6.01M2.335 6.032c-.019-.978.354-1.905 1.05-2.61.701-.711 1.644-1.113 2.655-1.131h.071c2.05 0 3.737 1.604 3.774 3.608.018.978-.355 1.905-1.051 2.611-.7.71-1.643 1.111-2.655 1.129l-.072.001c-2.03-.001-3.736-1.605-3.772-3.608"/>
        <path id="prefix__d" d="M7.334.266C3.522.335.488 3.505.557 7.346c.07 3.841 3.216 6.897 7.028 6.828 3.813-.07 6.847-3.24 6.777-7.08C14.294 3.297 11.217.265 7.463.265l-.129.001"/>
        <path id="prefix__g" d="M4.329.747C2.203.786.511 2.554.55 4.696c.039 2.142 1.793 3.846 3.919 3.808 2.126-.04 3.818-1.807 3.779-3.949C8.21 2.437 6.495.747 4.401.747h-.072"/>
        <path id="prefix__j" d="M90.487 24.214c.391 10.151-1.51 16.938-2.788 20.282L60.63 70.956C75.428 48.533 82.107 15.1 71.62 7.773 61.17.47 58.554 23.239 59.369 44.398c.617 15.989-2.352 26.726-4.38 32.072L22.531 108.2c14.208-22.393 20.937-55.593 10.152-61.889-8.316-4.855-12.247 9.476-11.428 33.349.557 16.225-2.863 28.551-5.113 34.784L.854 129.389c.616 1.356 1.459 2.364 2.489 2.981l6.084-5.948c5.181-1.632 15.284-3.664 29.748-1.414 19.377 3.014 40.581 2.498 34.921-9.486-5.649-11.962-36.771-8.255-58.867 5.229l26.757-26.155c5.629-1.425 14.853-2.665 27.313-.727 19.376 3.015 40.58 2.499 34.92-9.485C98.915 73.153 71.16 75.733 49.5 87.25l34.361-33.589c3.581-.671 8.702-1.042 15.24-.025 12.212 1.899 25.575 1.574 22.008-5.979-3.096-6.555-18.325-5.645-31.401.289l11.137-10.887c3.966-2.744 9.622-6.673 16.672-9.172 16.335-5.792 30.872-14.504 23.809-21.018-7.07-6.52-31.833 8.979-44.392 28.601l-5.733 5.602c9.382-14.131 13.634-35.308 7.006-39.94-.858-.6-1.633-.878-2.33-.878-4.649 0-5.837 12.364-5.39 23.96"/>
        <path id="prefix__m" d="M0 0.963L569.334 0.963 569.334 22 0 22z"/>
        <path id="prefix__o" d="M0.166 1.861L1.936 7.064 5.465 5.864 3.695 0.659z"/>
        <path id="prefix__r" d="M0.812 2.983L4.136 7.361 7.106 5.107 3.782 0.729z"/>
        <path id="prefix__u" d="M6.595 1.402L.854 1.044l5.741.358z"/>
        <path id="prefix__x" d="M1.672.711L1.109.677c.187.016.375.03.563.034"/>
        <linearGradient id="prefix__b" x1="100.004%" x2="-.002%" y1="50%" y2="50%">
            <stop offset="0%" stop-color="#FBB62B"/>
            <stop offset="100%" stop-color="#FFCF44"/>
        </linearGradient>
        <linearGradient id="prefix__e" x1="100.005%" x2=".002%" y1="49.998%" y2="49.998%">
            <stop offset="0%" stop-color="#FBB62B"/>
            <stop offset="100%" stop-color="#FFCF44"/>
        </linearGradient>
        <linearGradient id="prefix__h" x1="100.007%" x2="-.008%" y1="49.992%" y2="49.992%">
            <stop offset="0%" stop-color="#FBB62B"/>
            <stop offset="100%" stop-color="#FFCF44"/>
        </linearGradient>
        <linearGradient id="prefix__k" x1="-29.605%" x2="95.851%" y1="101.708%" y2="17.018%">
            <stop offset="0%" stop-color="#FBB62B"/>
            <stop offset="100%" stop-color="#FFCF44"/>
        </linearGradient>
        <linearGradient id="prefix__p" x1="-.005%" x2="99.995%" y1="50.006%" y2="50.006%">
            <stop offset="0%" stop-color="#FBC13F"/>
            <stop offset="100%" stop-color="#FF871C"/>
        </linearGradient>
        <linearGradient id="prefix__s" x1=".008%" x2="99.991%" y1="49.999%" y2="49.999%">
            <stop offset="0%" stop-color="#FBC13F"/>
            <stop offset="100%" stop-color="#FF871C"/>
        </linearGradient>
        <linearGradient id="prefix__v" x1="-113.102%" x2="538.551%" y1="49.873%" y2="50.38%">
            <stop offset="0%" stop-color="#FBB62B"/>
            <stop offset="100%" stop-color="#FFCF44"/>
        </linearGradient>
        <linearGradient id="prefix__y" x1="-1181.082%" x2="639.285%" y1="-536.197%" y2="330.575%">
            <stop offset="0%" stop-color="#FBB62B"/>
            <stop offset="100%" stop-color="#FFCF44"/>
        </linearGradient>
    </defs>
    <g fill="none" fill-rule="evenodd">
        <g>
            <path fill="#FFF4DD" d="M339.967 68.134C297.471 38.7 252.083 18.678 205.74 8.55 181.94 3.35 157.885.758 133.832.84 123.38.875 112.275-.204 102 1.225c-10.834 1.507-21.2 9.72-31.376 14.88C58.07 22.47 45.714 30.285 34.643 41.28 17.052 58.75 2.599 86.063.745 117.493c-1.851 31.43 12.05 65.507 32.886 70.687 3.92.975 8.364 1.254 11.047 5.635 4.53 7.4-.064 19.88-6.147 24.12-6.082 4.24-13.224 4.087-19.284 8.399-12.38 8.808-16.05 34.335-10.874 53.3 5.178 18.966 16.777 32.252 28.665 42.459 56.45 48.466 125.475 45.992 190.536 42.145 3.118-.184 6.457-.483 8.929-3.327 2.47-2.844 3.303-9.237.79-12 99.148-.33 196.46 68.09 294.58 46.825 12.875-2.791 27.62-9.621 32.007-27.913 4.053-16.894-2.886-35.013-10.322-49.11-45.775-86.808-118.118-131.52-188.772-164.272-6.204-2.876-12.652-5.882-17.415-12.48-4.764-6.597-7.267-17.94-3.9-26.238 2.786-6.868 8.783-10.071 10.945-17.423 3.709-12.611-6.083-24.372-14.45-30.166" transform="translate(18 70) translate(17 .518)"/>
            <path fill="#619440" d="M96.2 301.199c-.77-3.411-2.76-14.778-6.043-15.986-3.579-1.317-8.004.374-9.793 3.743-.77 1.453-1.112 3.174-2.593 4.15-.827.546-1.964.553-2.647-.165-1.114-1.172-.057-2.96.85-4.247 1.74-2.468 2.978-5.38 2.991-8.398.013-3.02-1.346-6.13-3.884-7.762-2.538-1.634-6.252-1.446-8.3.77-1.28 1.388-1.82 3.353-3.495 4.437-.869.563-2.01.677-2.85.072-1.698-1.22-.552-3.845.6-5.581 1.624-2.453 3.054-5.122 3.481-8.033.428-2.912-.288-6.117-2.426-8.14-2.139-2.021-5.819-2.448-8.028-.505-.885.779-1.473 1.84-2.299 2.68-.99 1.01-2.59 1.708-3.803.636-.84-.743-.979-1.986-.562-3.027.576-1.442 1.741-2.313 2.898-3.201 1.822-1.4 3.08-3.456 3.348-5.738.803-6.818-6.743-9.444-10.996-6.451-1.194.84-2.388 2.123-3.847 1.712-1.152-.324-1.785-1.537-1.658-2.728.25-2.35 2.195-3.712 3.228-5.623 1.89-3.495-.232-8.491-4.06-9.557-2.927-.815-3.687 2.978-5.013 6.296-.305.762-1.426.6-1.512-.216-.342-3.25-1.416-7.306-2.239-9.545-1.51-4.107-7.654-8.613-10.589-2.704-.787 1.584-.189 5.66.824 6.79 1.434 1.595 4.846 7.079 4.846 7.079.321.627-.392 1.284-.984.902-1.346-.866-2.789-1.545-4.448-1.696-.76-.068-1.537.008-2.257.256-4.295 1.479-3.629 6.766-.885 9.3 2.281 2.105 5.473 2.828 8.493 3.546 1.564.372 3.257.847 4.035 2.37.44.862.336 1.96-.404 2.587-.853.724-1.828.319-2.768.2-3.072-.391-5.863 2.668-5.834 5.765.03 3.097 2.298 5.852 5.08 7.214 2.782 1.36 5.992 1.548 9.085 1.39 1.526-.077 3.17-.208 4.375.922.711.667.924 1.787.327 2.558-.849 1.097-2.434.605-3.76.532-3.683-.204-6.608 3.896-6.028 7.538.581 3.642 3.792 6.437 7.312 7.54 3.964 1.243 8.276.715 12.35.143.958-.135 1.942.383 2.238 1.304.412 1.278-.754 2.008-1.665 2.669-3.518 2.552-4.894 7.67-3.128 11.642 1.766 3.97 6.488 6.379 10.74 5.476 2.7-.574 5.162-2.313 8.09-1.432 1.45.436 2.492 1.823 2.215 3.31-.35 1.879-2.456 2.414-4.03 3.294-4.37 2.439-5.105 9.032-2.233 13.13 2.871 4.098 12.091 4.228 17.086 3.91 4.993-.316 15.416-.753 20.751-4.15 2.513-1.6.59-17.567-.182-20.978" transform="translate(18 70) translate(17 .518)"/>
            <path fill="#306B34" d="M16.96 218.088c-.788 1.584-.19 5.662.824 6.79 1.433 1.595 4.845 7.079 4.845 7.079.321.626-.392 1.284-.984.901-1.346-.864-2.789-1.544-4.448-1.695-.759-.069-1.537.007-2.257.255-4.295 1.48-3.628 6.767-.885 9.3 2.281 2.107 5.473 2.829 8.493 3.548 1.564.371 3.257.846 4.035 2.369.44.863.336 1.96-.403 2.587-.854.724-1.829.32-2.768.2-3.073-.392-5.864 2.667-5.835 5.764.03 3.097 2.3 5.852 5.08 7.215 2.782 1.36 5.992 1.548 9.085 1.39 1.526-.077 3.17-.209 4.375.921.712.668.925 1.788.327 2.559-.849 1.097-2.434.604-3.76.531-3.683-.204-6.608 3.897-6.028 7.538.581 3.644 3.792 6.438 7.312 7.54 3.965 1.243 8.277.716 12.35.144.958-.135 1.942.382 2.24 1.305.41 1.276-.756 2.007-1.667 2.668-3.518 2.551-4.893 7.67-3.128 11.642 1.766 3.97 6.488 6.378 10.74 5.476 2.7-.574 5.163-2.314 8.09-1.433 1.45.436 2.492 1.823 2.215 3.313-.349 1.877-2.455 2.413-4.03 3.291-4.37 2.44-8.854 11.777-5.983 15.875 2.872 4.1 15.841 1.483 20.836 1.166 4.66-.296 14.046-.695 19.615-3.507.4-.2 1.136-.642 1.136-.642s-27.579-23.966-51.432-55.735c-13.249-17.646-25.03-51.085-25.03-51.085s-.465.101-1.004.482c-.928.656-1.803 1.936-1.957 2.248M11.504 270.894c-.16 1.247.178 2.476.948 3.46 1.593 2.034 4.567 2.376 6.628.764 1.018-.79 1.639-1.904 1.799-3.155.158-1.247-.18-2.476-.95-3.46-1.592-2.034-4.565-2.376-6.627-.763l-.055.044c-.97.78-1.587 1.88-1.743 3.11m8.746 5.718c-2.886 2.257-7.054 1.769-9.291-1.09-1.085-1.384-1.56-3.114-1.337-4.868.223-1.75 1.11-3.323 2.51-4.408 2.886-2.258 7.054-1.77 9.292 1.088 1.085 1.386 1.56 3.115 1.336 4.869-.218 1.718-1.081 3.258-2.434 4.348l-.076.06" transform="translate(18 70) translate(17 .518)"/>
        </g>
        <g transform="translate(18 70) translate(46 210.518)">
            <mask id="prefix__c" fill="#fff">
                <use xlink:href="#prefix__a"/>
            </mask>
            <path fill="url(#prefix__b)" d="M6.01.598c-1.457.028-2.818.607-3.83 1.635C1.161 3.266.615 4.626.642 6.063c.054 2.926 2.497 5.27 5.466 5.27l.1-.001c1.458-.026 2.818-.607 3.831-1.634 1.019-1.034 1.566-2.394 1.538-3.83C11.523 2.942 9.08.598 6.111.598H6.01M2.335 6.032c-.019-.978.354-1.905 1.05-2.61.701-.711 1.644-1.113 2.655-1.131h.071c2.05 0 3.737 1.604 3.774 3.608.018.978-.355 1.905-1.051 2.611-.7.71-1.643 1.111-2.655 1.129l-.072.001c-2.03-.001-3.736-1.605-3.772-3.608" mask="url(#prefix__c)"/>
        </g>
        <g transform="translate(18 70) translate(61 222.518)">
            <mask id="prefix__f" fill="#fff">
                <use xlink:href="#prefix__d"/>
            </mask>
            <path fill="url(#prefix__e)" d="M7.334.266C3.522.335.488 3.505.557 7.346c.07 3.841 3.216 6.897 7.028 6.828 3.813-.07 6.847-3.24 6.777-7.08C14.294 3.297 11.217.265 7.463.265l-.129.001" mask="url(#prefix__f)"/>
        </g>
        <g transform="translate(18 70) translate(19 259.518)">
            <mask id="prefix__i" fill="#fff">
                <use xlink:href="#prefix__g"/>
            </mask>
            <path fill="url(#prefix__h)" d="M4.329.747C2.203.786.511 2.554.55 4.696c.039 2.142 1.793 3.846 3.919 3.808 2.126-.04 3.818-1.807 3.779-3.949C8.21 2.437 6.495.747 4.401.747h-.072" mask="url(#prefix__i)"/>
        </g>
        <g>
            <path fill="#619440" d="M128.15 78.406c-.434-11.97 7.599-23.507 4.915-35.31-1.722-7.565-8.013-12.052-15.162-9.627-9.062 3.074-12.79 12.55-15.966 21.259-2.258 6.19-4.721 11.796-9.446 16.298-4.055 3.863-8.838 6.694-13.194 10.114-7.664 6.017-11.871 13.434-14.126 23.263-2.5 10.9-2.821 23.828-11.531 31.595-7.111 6.342-17.835 8.416-22.014 18.202-4.554 10.664 2.566 26.8-8.008 34.109-4.466 3.088-9.427 4.328-13.457 8.28-3.117 3.058-5.566 6.859-7.271 10.994-3.693 8.955-3.748 19.254.53 27.785.186.367.45.599.744.73 3.21 9.004 7.114 18.25 14.437 24.053 6.483 5.137 15.299 7.199 22.747 2.772 12.675-7.535 14.286-26.01 23.368-36.958 3.233-3.9 7.114-5.977 11.949-6.311 5.292-.367 10.545 1.272 15.763-.52 7.633-2.62 11.79-10.49 13.742-18.373 2.958-11.953.032-25.146 5.285-36.533 4.709-10.207 14.97-15.71 20.06-25.676 9.752-19.097-2.656-40.596-3.365-60.146" transform="translate(18 70) translate(431 110.518)"/>
            <path fill="#496B32" d="M115.075 57.573c-1.861 14.378-8.568 27.516-14.748 40.43-6.095 12.74-12.212 25.47-18.521 38.106-12.51 25.062-25.78 49.803-41.107 73.272-8.551 13.093-17.745 25.768-27.758 37.784-1.023 1.228.736 3.006 1.767 1.768 18.024-21.63 33.4-45.312 47.223-69.803 14.018-24.836 26.49-50.501 38.806-76.21 6.955-14.52 14.744-29.168 16.838-45.347.206-1.591-2.296-1.576-2.5 0" transform="translate(18 70) translate(431 110.518)"/>
            <path fill="#496B32" d="M33.54 223.007c.045-13.556-.155-27.112-.602-40.66-.053-1.606-2.553-1.612-2.5 0 .447 13.548.647 27.104.601 40.66-.005 1.61 2.495 1.611 2.5 0M47.89 203.507c3.748-1.337 7.683-1.313 11.611-1.387 4.201-.078 8.398-.322 12.58-.735 4.141-.408 8.268-.971 12.366-1.694 3.842-.678 7.626-1.57 11.111-3.378 1.43-.742.166-2.9-1.26-2.16-3.502 1.817-7.38 2.59-11.235 3.252-4.12.706-8.268 1.246-12.432 1.617-4 .356-8.009.548-12.024.613-3.843.063-7.724.156-11.383 1.46-1.504.538-.856 2.954.665 2.412M66.957 169.704c1.375-4.292 1.244-8.804 1.182-13.255-.067-4.777-.045-9.556.067-14.332.223-9.56.809-19.112 1.738-28.63.156-1.6-2.345-1.59-2.5 0-.913 9.354-1.495 18.74-1.726 28.136-.114 4.612-.144 9.225-.092 13.838.052 4.554.33 9.181-1.08 13.578-.492 1.536 1.92 2.194 2.41.665M83.362 137.784c13.595-1.315 26.802-5.125 39.059-11.142 1.444-.709.179-2.865-1.262-2.158-11.835 5.81-24.668 9.53-37.797 10.8-1.587.154-1.603 2.655 0 2.5M101.955 99.836c-2.415-8.524-3.16-17.397-2.295-26.212.157-1.6-2.344-1.589-2.5 0-.885 9.019-.086 18.155 2.384 26.877.438 1.545 2.85.888 2.41-.665" transform="translate(18 70) translate(431 110.518)"/>
            <path fill="#306B34" d="M79.705 129.662c-10.563-7.066-35.905 13.206-48.775 36.83l10.947-36.965c4.228-4.308 11.672-10.437 23.433-15.643 18.29-8.095 36.504-20.2 25.92-27.278-9.917-6.633-32.86 10.829-46.278 32.54L59.01 71.675c2.8-2.54 7.083-5.674 13.254-8.406C83.79 58.167 95.27 50.539 88.6 46.078c-5.788-3.872-18.616 5.28-27.198 17.52l4.557-15.386c2.157-4.516 5.225-10.97 10.183-16.973C87.629 17.327 96.17 1.919 86.949.266 77.717-1.39 63.476 25.414 61.803 49.012l-2.345 7.918c1.497-17.181-4.797-37.531-12.752-37.824-7.904-.291-2.567 12.82 4.174 23.879 5.13 8.419 6.679 15.237 7.145 18.784L46.95 99.165c2.298-27.211-7.668-59.321-20.254-59.785-12.543-.462-4.074 20.343 6.62 37.89 8.084 13.26 10.567 24.025 11.325 29.688L31.362 151.8c1.8-26.863-8.011-58.802-20.372-58.223-9.53.445-6.187 14.795 5.793 34.65 8.142 13.494 10.982 25.858 11.966 32.397l-6.255 21.123c1.175.814 2.385 1.207 3.573 1.165l2.489-8.405c3.74-4.24 11.575-11.525 25.228-17.568 18.29-8.096 36.504-20.2 25.92-27.278" transform="translate(18 70) translate(431 110.518)"/>
        </g>
        <g transform="translate(18 70) translate(450 263.518)">
            <mask id="prefix__l" fill="#fff">
                <use xlink:href="#prefix__j"/>
            </mask>
            <path fill="url(#prefix__k)" d="M90.487 24.214c.391 10.151-1.51 16.938-2.788 20.282L60.63 70.956C75.428 48.533 82.107 15.1 71.62 7.773 61.17.47 58.554 23.239 59.369 44.398c.617 15.989-2.352 26.726-4.38 32.072L22.531 108.2c14.208-22.393 20.937-55.593 10.152-61.889-8.316-4.855-12.247 9.476-11.428 33.349.557 16.225-2.863 28.551-5.113 34.784L.854 129.389c.616 1.356 1.459 2.364 2.489 2.981l6.084-5.948c5.181-1.632 15.284-3.664 29.748-1.414 19.377 3.014 40.581 2.498 34.921-9.486-5.649-11.962-36.771-8.255-58.867 5.229l26.757-26.155c5.629-1.425 14.853-2.665 27.313-.727 19.376 3.015 40.58 2.499 34.92-9.485C98.915 73.153 71.16 75.733 49.5 87.25l34.361-33.589c3.581-.671 8.702-1.042 15.24-.025 12.212 1.899 25.575 1.574 22.008-5.979-3.096-6.555-18.325-5.645-31.401.289l11.137-10.887c3.966-2.744 9.622-6.673 16.672-9.172 16.335-5.792 30.872-14.504 23.809-21.018-7.07-6.52-31.833 8.979-44.392 28.601l-5.733 5.602c9.382-14.131 13.634-35.308 7.006-39.94-.858-.6-1.633-.878-2.33-.878-4.649 0-5.837 12.364-5.39 23.96" mask="url(#prefix__l)"/>
        </g>
        <g>
            <g transform="translate(18 70) translate(0 47.518) translate(0 339)">
                <mask id="prefix__n" fill="#fff">
                    <use xlink:href="#prefix__m"/>
                </mask>
                <path fill="#F7E8C8" d="M569.334 11.482C569.334 17.29 441.884 22 284.667 22 127.45 22 0 17.29 0 11.48S127.45.964 284.667.964c157.217 0 284.667 4.709 284.667 10.519" mask="url(#prefix__n)"/>
            </g>
            <path fill="#A29C8F" d="M393.313 191.7s15.066 3.277 34.985-2.55c19.92-5.828-18.078-80.858-18.078-80.858l-7.031.728s-12.387 64.104-9.876 82.68" transform="translate(18 70) translate(0 47.518)"/>
            <path fill="#FCC23F" d="M431.533 54.05c.879.462-1.386 4.455 6.44 9.043 3.187 1.869 2.185 5.457 1.209 7.132.486.483.883 1.026 1.188 1.608 1.487 2.833.052 5.465-2.578 7.286-3.09 2.14-9.521 2.552-9.521 2.552l-7.618-6.95s1.33-3.037 2.25-4.568c.869-1.45 2.255-2.512 3.765-2.982-1.665-4.557 4.415-13.355 4.865-13.12" transform="translate(18 70) translate(0 47.518)"/>
            <path fill="#FCDB9A" d="M422.902 70.153c.673-1.486 1.913-2.882 3.596-3.523l-.363.734c-.9-2.37-.328-4.806.445-6.902.807-2.128 1.8-4.145 3.223-5.958l.575-.694c.09-.111.273-.27.41-.394-.072-.092.962-.425 1.2-.155.194.122.428.369.486.514.375 1.144.158 1.379.274 1.937.125.948.365 1.879.877 2.755 1.05 1.712 2.615 3.28 4.348 4.626-2.007-.863-4.038-1.971-5.487-3.861-.717-.924-1.306-2.074-1.464-3.292l-.145-1.297s.108.192.215.213c.127.288 1.006.003.839-.001l-.164.187-.44.59c-1.132 1.727-2.233 3.576-3.058 5.496-.742 1.918-1.49 3.966-1.07 5.848l.026.114c.063.279-.112.557-.39.623-1.441.338-2.92 1.122-3.933 2.44" transform="translate(18 70) translate(0 47.518)"/>
            <path fill="#FC988B" d="M512.543 334.198l2.177-3.07c.086-.122.057-.29-.064-.376l-12.21-8.642c-.123-.086-.29-.057-.377.065l-2.173 3.074c-.086.121-.057.29.064.376l12.207 8.637c.122.086.29.058.376-.064" transform="translate(18 70) translate(0 47.518)"/>
            <path fill="#352E73" d="M512.664 345.99c.575.144 1.162-.217 1.311-.808l3.622-14.35c.191-.756-.34-1.494-1.1-1.527l-2.589-.433c-.74-.125-1.455.356-1.644 1.102 0 0 1.02.65.851 2.043-.137 1.127-1.108 1.273-1.772 1.236-.32-.017-.59.272-.557.611l1.08 11.2c.052.45.37.817.798.925" transform="translate(18 70) translate(0 47.518)"/>
            <path fill="#FC988B" d="M331.046 344.078c.952.71 2.3.516 3.012-.437l6.696-8.968c.711-.952-2.738-3.527-3.449-2.575l-6.696 8.968c-.71.953-.516 2.3.437 3.012" transform="translate(18 70) translate(0 47.518)"/>
            <path fill="#352E73" d="M319.189 338.705c-.306.508-.146 1.165.358 1.469l12.247 7.38c.646.389 1.49.086 1.746-.628l1.174-2.348c.336-.671.103-1.484-.535-1.868 0 0-.906.793-2.15.252-1.006-.44-.851-1.405-.62-2.028.113-.301-.075-.637-.401-.698l-10.721-2.037c-.434-.074-.87.127-1.098.506" transform="translate(18 70) translate(0 47.518)"/>
            <path fill="#7F786A" d="M456.158 177.933c2.017 9.26 2.818 30.663.65 48.974-2.339 19.734 2.614 30.135 2.614 30.135s50.974 68.01 50.343 69.351l-9.048 13.48c-.194.41-58.244-45.147-73.364-69.735-7.134-11.604-14.327-50.24-20.395-83.75-2.053-11.34-3.514-34.445-3.514-34.445s21.672-4.754 35.694 1.96c12.458 5.963 15.057 15.015 17.02 24.03" transform="translate(18 70) translate(0 47.518)"/>
            <path fill="#A29C8F" d="M461.089 207.593c-12.097 27.936-56.63 59.616-56.63 59.616s-11.881 21.176-16.593 28.593c-11.761 18.515-28.406 37.851-37.915 47.465l-17.401-6.289s29.983-59.947 44.517-88.41c5.225-10.236 40.908-65.444 40.908-65.444s-5.178-30.183-2.961-32.677c4.874 0 36.774-3.258 36.774-3.258s21.378 32.512 9.3 60.404" transform="translate(18 70) translate(0 47.518)"/>
            <path fill="#FB8875" d="M474.986 40.032c.326-.118.699-.046 1.009.192.506.388 1.231.994 1.397 1.391.102.244.042.54-.039.77-.084.234-.395.444-.588.563-.765.47-2.926 1.781-4.091 1.471-.254-.068-.427-.372-.575-.769-.467-1.256.044-2.589 1.098-2.97l1.789-.648z" transform="translate(18 70) translate(0 47.518)"/>
            <path fill="#FB8875" d="M474.274 37.885l.105-.027c.527.322.45.911.128 1.438l-.44.532-.597 1.626-1.332.223.917-2.247 1.219-1.545zM477.657 37.25c-.386-.219-.763.108-.995.681-.078.193-.276.733-.276.733l-1.63 1.818 1.332.186 1.395-1.856.174-1.562z" transform="translate(18 70) translate(0 47.518)"/>
            <path fill="#FB8875" d="M480.357 38.187c-.404-.467-1.166-.471-1.701-.007l-2.67 2.333.957.63 3.414-2.956z" transform="translate(18 70) translate(0 47.518)"/>
            <path fill="#FB8875" d="M480.341 39.46c-.338-.409-1.053-.374-1.6.077l-2.49 2.062.612.74 3.478-2.879z" transform="translate(18 70) translate(0 47.518)"/>
            <path fill="#FB8875" d="M480.222 40.979c-.204-.37-.875-.365-1.084-.272-.344.153-2.475 1.442-2.475 1.442l-.002.858 3.56-2.028zM472.219 41.522L473.855 43.741 473.43 46.58 471.368 46.034z" transform="translate(18 70) translate(0 47.518)"/>
            <path fill="#7F786A" d="M381.157 58.85l-9.322 14.533s7.38 17.916 28.991 31.915c9.873 6.394 12.973-7.727 20.24-16.976 0 0-6.858-1.486-8.526-2.58-9.685-6.355-31.383-26.893-31.383-26.893" transform="translate(18 70) translate(0 47.518)"/>
            <path fill="#F5EFE4" d="M403.394 153.582s3.05 2.958 17.881 3.62c17.437.778 33.305-4.446 33.036-6.738-1.473-12.535-2.205-40.401-2.205-40.401-.165-9.536 6.003-19.744-15.718-20.74l-17.592-2.073c-10.248.177-16.094 13.052-17.508 27.906-.965 10.134 2.106 38.426 2.106 38.426" transform="translate(18 70) translate(0 47.518)"/>
            <path fill="#7F786A" d="M481.582 119.846c3.666-2.327-1.899-13.785-1.899-13.785s-23.23-11.502-31.298-14.57c-10.769-4.098-11.717 16.258-11.717 16.258s32.631 19.893 44.914 12.097" transform="translate(18 70) translate(0 47.518)"/>
            <path fill="#FFB68E" d="M420.931 90.1l5.604.712c.338.043.647-.196.69-.535l1.324-10.478c.042-.34-.198-.647-.536-.69l-5.605-.704c-.338-.043-.647.196-.69.534l-1.322 10.472c-.043.338.197.647.535.69" transform="translate(18 70) translate(0 47.518)"/>
            <path fill="#FFA087" d="M421.126 82.113c-.206-1.631.995-3.126 2.683-3.34 1.687-.212 4.44.917 4.646 2.548l-.68 4.287c.113.89-2.273.838-4.184-.332-1.253-.767-2.386-1.946-2.386-1.946l-.08-1.217z" transform="translate(18 70) translate(0 47.518)"/>
            <path fill="#FFB68E" d="M431.916 74.258c.976-3.056.043-6.137-2.613-7.486-4.324-2.196-8.14 5.389-9.105 8.883-1.07 3.878-.145 5.217-.145 5.217s2.442 1.538 4.875 1.365c2.068-.147 3.84-.141 5.054-3.033 1.083-2.584 1.523-3.66 1.934-4.946" transform="translate(18 70) translate(0 47.518)"/>
            <path fill="#7F786A" d="M418.587 93.546l3.855 1.44c.153.056.323-.022.38-.174l1.683-4.51-4.408-1.646-1.683 4.511c-.057.153.02.323.173.38" transform="translate(18 70) translate(0 47.518)"/>
            <path fill="#7F786A" d="M408.238 127.27l4.345 6.082 7.236-5.045L422.16 91.6s-1.354-.556-1.621-.246c-12.893 14.995-12.301 35.915-12.301 35.915" transform="translate(18 70) translate(0 47.518)"/>
            <path fill="#E7E1D3" d="M425.981 95.423L431.168 88.707 427.801 85.714 421.863 89.34z" transform="translate(18 70) translate(0 47.518)"/>
            <path fill="#FFA087" d="M430.467 76.014c-1.18.87-1.738 2.12-1.243 2.792.495.67 1.853.509 3.036-.362 1.182-.87 1.738-2.121 1.243-2.792-.493-.671-1.852-.51-3.036.362" transform="translate(18 70) translate(0 47.518)"/>
            <path fill="#FCC23F" d="M432.553 74.984s-3.016 1.907-2.653 4.051c.389 2.291-1.126 4.062-2.498 4.55-1.372.487-8.836-.609-9.876-2.695-1.041-2.086 2.647-5.143 2.647-5.143s1.194.61 1.525.507c.384-.121.454-.924-1.124-1.767-.636-.34.282-1.168.496-1.237.213-.071 2.707.604 3.417 2.329.71 1.723.779 2.286 1.584 2.258.806-.029 3.587-2.702 6.704-4.113l-.222 1.26z" transform="translate(18 70) translate(0 47.518)"/>
            <path fill="#E1DCFF" d="M475.769 50.804L475.75 45.039 469.13 45.061 469.148 50.825z" transform="translate(18 70) translate(0 47.518)"/>
            <path fill="#FB8875" d="M392.362 4.691c-.25-.241-.619-.327-.999-.235-.62.15-1.528.409-1.842.705-.192.182-.258.476-.277.719-.018.248.18.566.309.753.508.74 1.951 2.816 3.142 3.005.259.041.541-.167.837-.469.937-.959 1.012-2.384.203-3.161l-1.373-1.317z" transform="translate(18 70) translate(0 47.518)"/>
            <path fill="#FB8875" d="M393.885 3.018l-.085-.068c-.613.082-.783.65-.702 1.262l.186.665-.113 1.729 1.127.745.073-2.426-.486-1.907zM390.661 1.227c.436-.084.69.347.726.963.012.208.028.783.028.783l.966 2.243-1.323-.249-.73-2.204.333-1.536z" transform="translate(18 70) translate(0 47.518)"/>
            <path fill="#FB8875" d="M389.706.508c.448-.022.675.287.694 1.025.008.248-.042 1.057-.042 1.057l.967 2.711-1.346-.529-.686-2.287.413-1.977z" transform="translate(18 70) translate(0 47.518)"/>
            <path fill="#FB8875" d="M388.714 2.59l.315-.857c.512-.14.287.48.473 1.162l.275 1.07.745 2.033-.927.253-.73-1.975-.151-1.686z" transform="translate(18 70) translate(0 47.518)"/>
            <path fill="#FB8875" d="M388.027 2.905c.388-.163.913.256 1.019.458.176.334 1.047 2.666 1.047 2.666l-.736.277-.757-1.527-.573-1.874zM394.097 8.322L391.536 8.24 389.776 11.61 392.103 12.711z" transform="translate(18 70) translate(0 47.518)"/>
            <path fill="#7F786A" d="M464.649 51.842c-9.902 11.875-6.775 34.21-3.07 45.747 4.136 12.874 12.698 29.568 21.452 21.202 4.636-4.43 4.303-16.14 3.744-22.162-1.12-12.066-1.895-36.956-9.89-47.386-1.868-2.436-8.695-1.648-12.236 2.6" transform="translate(18 70) translate(0 47.518)"/>
            <path fill="#E1DCFF" d="M392.557 15.431L394.201 11.643 388.617 9.219 386.972 13.006z" transform="translate(18 70) translate(0 47.518)"/>
            <path fill="#FFF" d="M470.105 46.544c.031.462.43.81.89.78.461-.03.81-.428.78-.89-.03-.462-.43-.81-.89-.78-.462.031-.81.43-.78.89M388.615 11.124c.03.461.43.81.891.78.46-.03.81-.429.778-.89-.03-.46-.428-.81-.889-.78-.462.031-.81.43-.78.89" transform="translate(18 70) translate(0 47.518)"/>
            <path fill="#FCDB9A" d="M417.526 80.89c-.54-.942-.115-2.124.383-3.013.66-.828 1.435-1.523 2.264-2.13-.718.73-1.358 1.542-1.847 2.408-.591.757-1.164 1.727-.8 2.735" transform="translate(18 70) translate(0 47.518)"/>
            <path fill="#7F786A" d="M383.39 13.348c-13.684 8.09-14.685 28.425-15.578 41.19-.997 14.245 5.333 23.429 11.29 27.768 0 0 8.164-5.207 9.364-11.493 1.87-9.8 4.985-40.071 6.816-52.413.459-3.088-1.692-5.917-4.734-6.225-2.34-.237-5.02-.091-7.157 1.173M430.432 88.164s-5.984 42.839-3.139 72.999c2.847 30.158 5.86 27.587 14.731 27.93 8.872.343 31.22-7.523 31.22-7.523l-12.304-30.131-6.466-56.72s-10.148-6.898-24.042-6.555" transform="translate(18 70) translate(0 47.518)"/>
            <path fill="#A29C8F" d="M428.633 138.131c3.576-11.55 7.706-22.893 11.987-34.18l.443.918-4.006-1.351c-.351-.11-.546-.482-.438-.832.049-.157.166-.292.294-.373l4.72-2.822-.166.84c-2.678-3.863-5.28-7.78-7.812-11.749 2.991 3.635 5.914 7.32 8.759 11.062.192.252.142.611-.11.803l-.056.039-4.631 2.964-.144-1.203 4.029 1.278c.369.117.574.512.457.881l-.013.039c-4.152 11.335-8.456 22.614-13.313 33.686" transform="translate(18 70) translate(0 47.518)"/>
            <path fill="#7F786A" d="M418.796 87.266s-13.598 16.018-17.365 40.057c-3.766 24.038-8.118 64.376-8.118 64.376s-2.93-15.753 3.096-55.908c6.027-40.156 5.855-50.338 22.387-48.525" transform="translate(18 70) translate(0 47.518)"/>
            <path fill="#E7E1D3" d="M417.158 92.406L417.685 87.302 420.825 85.687 422.094 89.316z" transform="translate(18 70) translate(0 47.518)"/>
            <path fill="#FCBD30" d="M253.727 70.239c-12.763-3.55-34.41 14.544-41.112 21.674-7.48 7.956-6.398 15.526-.686 18.669 4.735 2.606 15.73-6.011 19.818-8.641 8.188-5.27 30.138-23.895 30.138-23.895s-3.593-6.538-8.158-7.807" transform="translate(18 70) translate(0 47.518)"/>
            <path fill="#57575E" d="M221.97 87.821s3.313-3.806 5.276 3.797c1.962 7.602-1.397 15.7-1.397 15.7s5.095 22.662-4.384 26.014c-9.479 3.352-24.078-8.568-24.078-8.568l24.583-36.943z" transform="translate(18 70) translate(0 47.518)"/>
            <path fill="#A29C8F" d="M221.97 87.821c.711-.704 1.831-1.104 2.66-.599.8.52 1.242 1.45 1.586 2.356.651 1.868 1.005 3.85 1.057 5.83.064 3.946-.655 7.983-2.09 11.632-.057.143-.067.296-.039.436.908 4.53 1.503 9.195 1.441 13.82-.045 2.306-.263 4.624-.952 6.808-.623 2.168-1.927 4.313-4.168 5.228 2.325-.65 4.018-2.748 4.883-4.966.87-2.253 1.243-4.646 1.437-7.024.192-4.772-.244-9.513-1.232-14.182l-.038.433c1.407-3.946 2.214-8.078 1.833-12.25-.197-2.072-.647-4.127-1.517-6.028-.473-.919-1.053-1.889-2.049-2.392-1.073-.477-2.193.136-2.812.898" transform="translate(18 70) translate(0 47.518)"/>
            <path fill="#FFB68E" d="M192.276 341.144s-3.38-4.857-3.742-7.119c-.063-.394.2-8.673.2-8.673l-2.81 1.087-.743 9.496s4.277 6.114 4.46 6.135c.182.021 2.635-.926 2.635-.926M172.438 166.38c-5.406 3.298-11.97 29.067-11.97 29.067l-15.653 50.549-48.78-15.823-1.712 1.999s43.273 46.536 62.164 33.266c32.77-23.02 37.252-78.527 34.288-93.697-4.05.398-10.8-.101-18.337-5.361" transform="translate(18 70) translate(0 47.518)"/>
            <path fill="#FFB68E" d="M209.833 161.803c-8.17 7.99-11.228 19.118-17.878 38.751-7.722 22.793-6.376 132.46-6.376 132.46l2.881.831s29.354-100.135 31.185-135.503c.43-8.282-3.36-33.215-3.36-33.215s-3.638-1.913-6.452-3.324" transform="translate(18 70) translate(0 47.518)"/>
            <path fill="#7F786A" d="M185.267 334.487s-2.27 1.263-1.864 4.517c.406 3.254.483 5.138.483 5.138l1.214.144.706-3.487s1.187.96 2.42 3.5c.555 1.144 7.176.94 7.176.94s1.448-1.144-.975-2.606c-.602-.36-2.28-1.64-2.28-1.64s-1.113 1.257-2.586-.07c-.66-.596-1.86-2.163-2.686-3.476-1.018-1.618-1.608-2.96-1.608-2.96" transform="translate(18 70) translate(0 47.518)"/>
            <path fill="#FFB68E" d="M86.272 228.493s5.445 1.467 7.11 3.042c.29.274 5.192 4.026 5.192 4.026l.693-3.405s-2.637-1.59-3.259-2.384c-.28-.36-.693-1.69-.693-1.69s-7.357-2.022-7.515-1.927c-.158.093-1.528 2.338-1.528 2.338" transform="translate(18 70) translate(0 47.518)"/>
            <path fill="#7F786A" d="M95.884 229.511s1.034-2.383-1.269-4.719c-2.302-2.336-3.509-3.783-3.509-3.783l-1.05.624 1.561 3.197s-1.525-.039-4.05-1.306c-1.137-.57-6.267 3.621-6.267 3.621s-.454 1.788 2.359 1.473c.697-.078 2.806-.083 2.806-.083s.12-1.676 2.096-1.518c.885.071 2.792.584 4.246 1.123 1.793.664 3.077 1.371 3.077 1.371M185.37 150.377s-14.305 4.42-23.852 20.074c-10.359 16.986-18.29 64.868-18.29 64.868s5.116 3.482 14.005 7.459c2.31 1.034 4.872 2.1 7.666 3.148 1.11.417 11.728-37.56 11.728-37.56s-6.759 39.317-5.975 39.572c12.001 3.894 27.264 6.987 44.404 6.202 0 0 15.464-72.955-2.866-101.23l-26.82-2.533z" transform="translate(18 70) translate(0 47.518)"/>
            <path fill="#E1DCFF" d="M201.082 148.115c-.052.909-.83 1.604-1.74 1.55-.908-.05-1.602-.83-1.55-1.738.052-.91.83-1.604 1.74-1.551.907.052 1.602.83 1.55 1.739" transform="translate(18 70) translate(0 47.518)"/>
            <path fill="#A29C8F" d="M176.628 208.366s-6.76 39.316-5.975 39.571c12 3.894 27.264 6.987 44.404 6.202 0 0 15.464-72.955-2.866-101.23l-10.986-1.162s-9.512 7.98-17.506 26.697c-3.037 7.11-7.071 29.922-7.071 29.922" transform="translate(18 70) translate(0 47.518)"/>
            <path fill="#FFB68E" d="M315.65 110.865s1.806 1.283 2.01 1.964c.156.52-.304 1.976-.304 1.976s-4.65 1.734-5.763 1.119c-.53-.293-.886-1.522-1.087-2.463-.132-.624.253-1.258.872-1.428l4.271-1.168z" transform="translate(18 70) translate(0 47.518)"/>
            <path fill="#FFB68E" d="M313.506 109.308c.499.437.55 1.196.112 1.695l-1.998 2.28-.904-.79 2.79-3.185zM319.103 109.752c-.336-.545-1.063-.7-1.623-.345l-2.89 1.748.942.862 3.57-2.265z" transform="translate(18 70) translate(0 47.518)"/>
            <path fill="#FFB68E" d="M320.88 110.039c-.325-.554-1.112-.682-1.76-.287l-2.955 1.807.587 1.002 4.128-2.522z" transform="translate(18 70) translate(0 47.518)"/>
            <path fill="#FFB68E" d="M320.875 110.849c-.393-.507-1.19-.533-1.78-.06l-2.7 2.174.746 1.105 3.734-3.22z" transform="translate(18 70) translate(0 47.518)"/>
            <path fill="#FFB68E" d="M320.542 113.427c-.209-.608-.808-.652-1.517-.39l-.929.427-2.459.542.688 1.013 2.183-.453 2.034-1.14zM310.74 112.941L311.448 115.823 307.714 117.093 307.024 114.199z" transform="translate(18 70) translate(0 47.518)"/>
        </g>
        <g transform="translate(18 70) translate(305 159.518)">
            <mask id="prefix__q" fill="#fff">
                <use xlink:href="#prefix__o"/>
            </mask>
            <path fill="url(#prefix__p)" d="M0.166 1.861L1.936 7.064 5.465 5.864 3.695 0.659z" mask="url(#prefix__q)"/>
        </g>
        <g fill="#FFB68E">
            <path d="M6.905 5.624s-1.687-1.558-2.41-1.63c-.554-.056-1.849 1-1.849 1s-.711 4.657.154 5.65c.413.473 1.716.592 2.697.613.652.013 1.194-.495 1.22-1.145l.189-4.488z" transform="translate(18 70) translate(259 107.518)"/>
            <path d="M9.748 7.065c-.45-.489-1.21-.521-1.698-.072L5.818 9.046l.764 1.562 3.166-3.543zM7.615 2.314c.563.35.737 1.09.387 1.654l-1.6 2.577-1.02-.633 2.233-3.598z" transform="translate(18 70) translate(259 107.518)"/>
            <path d="M6.762.622c.595.295.802 1.086.464 1.766L5.681 5.5l-1.076-.534L6.762.622z" transform="translate(18 70) translate(259 107.518)"/>
            <path d="M5.73.405c.594.295.802 1.086.464 1.767L4.65 5.282 3.573 4.75 5.73.405z" transform="translate(18 70) translate(259 107.518)"/>
            <path d="M4.912 1.075c.576.33.738 1.131.361 1.791L3.551 5.883l-.905-.889 2.266-3.919zM5.696 10.889L3.578 9.016.528 13.092 2.64 14.877z" transform="translate(18 70) translate(259 107.518)"/>
        </g>
        <g transform="translate(18 70) translate(256 117.518)">
            <mask id="prefix__t" fill="#fff">
                <use xlink:href="#prefix__r"/>
            </mask>
            <path fill="url(#prefix__s)" d="M0.812 2.983L4.136 7.361 7.106 5.107 3.782 0.729z" mask="url(#prefix__t)"/>
        </g>
        <g>
            <path fill="#A29C8F" d="M138.358 158.243c-.275.378-.804.462-1.182.187-.378-.275-.462-.804-.188-1.182.275-.38.805-.462 1.183-.188.377.276.46.804.187 1.183M89.267 114.06c-.37.286-.9.218-1.187-.152-.286-.37-.217-.902.152-1.187.37-.286.901-.218 1.187.152.285.37.217.9-.152 1.187" transform="translate(18 70) translate(171 6.518)"/>
            <path fill="#FB8875" d="M42.29 141.213c.896 1.423.966 2.989.158 3.499-.81.508-2.19-.234-3.086-1.657-.895-1.424-.966-2.99-.157-3.499.808-.508 2.189.234 3.085 1.656" transform="translate(18 70) translate(171 6.518)"/>
            <path fill="#352E73" d="M42.684 144.631c-.04.694-.634 1.225-1.329 1.185-.693-.04-1.224-.635-1.185-1.329.04-.694.636-1.225 1.33-1.186.693.04 1.224.636 1.184 1.33" transform="translate(18 70) translate(171 6.518)"/>
            <path fill="#FCBD30" d="M135.192 153.316s-35.58 10.374-45.75 13.559c-.377.117-.76.263-1.144.423-7.776-2.286-18.149-5.335-22.934-6.756-4.576-1.357-8.39-2.633-11.246-3.377-14.126-3.683-9.82-.034-15.678 6.374l1.297 1.606s35.28 18.034 48.2 17.531c3.577.359 7.982-.224 13.16-.636 10.636-.849 28.456-5.085 34.666-17.397 2.221-4.403-.57-11.327-.57-11.327" transform="translate(18 70) translate(171 6.518)"/>
            <path fill="#FFB68E" d="M42.615 155.47c-.909-.276-1.422-1.239-1.145-2.148l1.632-5.359c.277-.91 1.24-1.423 2.15-1.145.91.277 1.421 1.238 1.144 2.148l-1.632 5.358c-.277.911-1.239 1.423-2.149 1.146" transform="translate(18 70) translate(171 6.518)"/>
            <path fill="#FFA087" d="M46.412 149.555c.454-1.099.108-2.284-.77-2.647-.879-.363-1.959.234-2.413 1.334l-1.187 2.876c-.248.6 1.191.868 2.482.304.846-.369 1.421-.736 1.421-.736l.467-1.13z" transform="translate(18 70) translate(171 6.518)"/>
            <path fill="#FCBD30" d="M45.782 204.424s-8.491 2.611-21.6-1.834c-12.001-4.069-14.117-9.263-14.117-9.263l6.27-36.796c2.162-6.653 7.563-9.035 17.41-5.835l18.224 5.92c9.256 4.31 4.313 17.34 1.917 24.836-2.32 7.26-8.104 22.972-8.104 22.972" transform="translate(18 70) translate(171 6.518)"/>
            <path fill="#FFB68E" d="M41.844 139.314c.238-3.667 2.522-6.573 5.92-6.89 7.27-.674 6.578 8.234 5.924 12.334-.528 3.31-2.308 6.033-2.308 6.033s-3.723.188-5.99-1.17c-2.037-1.221-3.508-2.402-3.592-5.995-.074-3.207-.054-2.77.046-4.312" transform="translate(18 70) translate(171 6.518)"/>
            <path fill="#57575E" d="M41.151 164.313c3.523-5.748 2.955-20.476 2.194-22.737 6.164-2.77 11.065-10.263 8.583-13.2-1.153-1.363-4.99-3.038-7.16-1.107-1.413-2.256-10.968-6.457-18.132.96-2.964 3.07-9.359 17.11-9.665 18.822-.52-.031-4.823-2.972-12.404 3.398-1.138.956-3.624 5.157-4.208 8.402-.92 5.122.16 12.118 9.112 16.03 4.132 1.807 12.181 4.045 17.994 1.732 5.602-2.222 9.694-5.78 13.686-12.3" transform="translate(18 70) translate(171 6.518)"/>
            <path fill="#A29C8F" d="M9.47 174.881c4.576 2.033 9.62 3.444 14.773 2.946 5.16-.765 9.715-3.676 13.219-7.425 1.724-1.922 3.217-3.973 4.51-6.227 1.258-2.377 1.765-4.932 2.14-7.457.613-5.114.895-10.069-.1-15.366l-.378.866c3.942-1.921 7.224-5.066 8.99-9.14.412-1.026.71-2.174.52-3.403-.14-1.294-1.234-2.302-2.183-2.783-1.875-1.033-4.56-1.653-6.508.022l.715.102c-1.242-1.555-2.902-2.126-4.53-2.693-1.652-.508-3.397-.679-5.106-.542-3.451.231-6.63 1.972-8.895 4.447 2.404-2.351 5.61-3.856 8.924-3.893 1.646-.047 3.288.232 4.837.742 1.488.53 3.135 1.297 3.968 2.443.146.222.445.285.668.139l.049-.037c1.409-1.204 3.689-.718 5.303.256 1.89.889 1.839 2.884 1.05 4.726-1.594 3.625-4.785 6.65-8.38 8.33-.293.137-.448.45-.397.755l.018.113c.767 4.616.583 9.874.042 14.725-.33 2.44-.824 4.916-1.914 7.012-1.187 2.122-2.653 4.188-4.274 6.025-3.191 3.667-7.58 6.629-12.393 7.482-4.896.682-10-.364-14.667-2.165" transform="translate(18 70) translate(171 6.518)"/>
            <path fill="#FFDE8E" d="M338.613 77.245L322.923 107.803 136.06 29.885z" transform="translate(18 70) translate(171 6.518)"/>
            <path fill="#FFDE8E" d="M326.2 83.195c-1.329-.574-3.803-1.644-7.133-1.38-6.693.53-11.574 4.905-11.922 10.661.285.208 1.253.705 2.082 1.094l10.941 5.14 4.954-11.943c.56-1.373 1.148-2.912 1.307-3.472l-.23-.1zm-17.263 10.993c-2.502-1.17-2.492-1.374-2.482-1.609.296-6.176 5.46-10.882 12.557-11.445 3.498-.272 6.075.838 7.458 1.436.171.072.324.14.456.193l.14.063.055.131c.06.141.15.354-1.368 4.07l-5.229 12.603-11.587-5.442z" transform="translate(18 70) translate(171 6.518)"/>
            <path fill="#FAAA36" d="M329.834 74.077l-4.226 8.498c-1.446-.59-3.687-1.329-6.567-1.1-6.003.475-11.18 4.123-12.107 9.841L156.086 30.648l-1.529 3.802 164.544 66.175c.22.088.446.136.672.146.79.036 1.557-.39 1.927-1.134l11.801-23.735-3.667-1.825z" transform="translate(18 70) translate(171 6.518)"/>
            <path fill="#FAAA36" d="M359.656 33.596L353.496 45.126 136.059 29.885 251.737 25.136z" transform="translate(18 70) translate(171 6.518)"/>
            <path fill="#FFDE8E" d="M374.837 6.074L342.26.777 328.84 2.67l37.279 5.254c.67.094 1.252.514 1.55 1.122.3.609.279 1.325-.054 1.916l-12.78 22.554 4.82.079 15.18-27.522z" transform="translate(18 70) translate(171 6.518)"/>
            <path fill="#FFDE8E" d="M349.227 10.32c.01-.214.034-.422.054-.632l-35.105-4.947L136.06 29.884l214.114 3.555 6.621-11.687c-4.599-1.73-7.784-6.256-7.567-11.433" transform="translate(18 70) translate(171 6.518)"/>
            <path fill="#FAAA36" d="M320.289 16.41c-5.158-2.085-11.301 1.073-13.722 7.056-1.28 3.164-1.252 6.478-.19 9.213l9.637.175-3.565-4.67c-.055-.07-.097-.154-.123-.247-.054-.183-.042-.385.033-.56.075-.177.207-.312.366-.378.08-.032.163-.046.245-.041l2.529.15c.824.049 1.556-.525 1.868-1.362l-4.31-.255c-.35-.021-.613-.367-.59-.772.025-.405.328-.717.677-.696l4.31.256c-.211-.868-.87-1.525-1.693-1.574l-2.53-.15c-.35-.02-.612-.366-.588-.771.023-.405.326-.717.675-.696l2.53.15 3.794.225c.349.02.612.366.588.77-.024.407-.326.718-.675.698l-1.282-.077c.254.446.435.95.497 1.503l.697.04c.349.022.614.367.589.772-.024.405-.327.717-.676.697l-.696-.042c-.393 1.656-1.744 2.842-3.271 2.752l-1.003-.06 3.336 4.37 6.497.118c.379-.62.718-1.28 1.002-1.981 2.42-5.983.202-12.525-4.956-14.612" transform="translate(18 70) translate(171 6.518)"/>
            <path fill="#FFDE8E" d="M315.412 28.575c1.527.09 2.878-1.096 3.271-2.75l.697.04c.35.021.652-.29.676-.696.024-.406-.24-.75-.589-.772l-.697-.04c-.063-.553-.243-1.058-.497-1.503l1.281.076c.35.02.652-.29.676-.696.024-.405-.24-.75-.589-.77l-3.794-.226-2.529-.15c-.349-.02-.652.291-.676.695-.024.406.24.751.59.772l2.528.15c.823.05 1.483.705 1.694 1.573l-4.31-.256c-.349-.02-.652.292-.676.697-.024.405.24.75.59.771l4.31.255c-.314.837-1.046 1.411-1.869 1.362l-2.529-.15c-.082-.005-.166.01-.246.042-.158.065-.29.201-.366.377-.075.176-.087.378-.033.561.026.093.068.176.124.247l3.565 4.67 1.731.031-3.336-4.37 1.003.06z" transform="translate(18 70) translate(171 6.518)"/>
            <path fill="#FAAA36" d="M276.131 32.364s-.101-1.006-.172-1.5c-1.11-7.69-5.563-13.784-11.947-15.189-7.91-1.74-16.15 4.293-19.817 13.897-.247.647-.65 2.206-.65 2.206l32.586.586z" transform="translate(18 70) translate(171 6.518)"/>
            <path fill="#FFDE8E" d="M367.67 9.047c-.298-.608-.88-1.028-1.55-1.123l-37.28-5.253-14.664 2.07 35.105 4.947c-.02.21-.045.419-.053.631-.218 5.178 2.968 9.703 7.567 11.433l-6.621 11.687 4.664.078 12.778-22.554c.333-.591.354-1.307.055-1.916" transform="translate(18 70) translate(171 6.518)"/>
            <path fill="#FAAA36" d="M367.67 9.047c-.298-.608-.88-1.028-1.55-1.123l-37.28-5.253-14.664 2.07 35.105 4.947c-.02.21-.045.419-.053.631-.218 5.178 2.968 9.703 7.567 11.433l-6.621 11.687 4.664.078 12.778-22.554c.333-.591.354-1.307.055-1.916" transform="translate(18 70) translate(171 6.518)"/>
            <path fill="#FFDE8E" d="M361.505 59.97c.253-.317.524-.612.803-.896l-15.642-15.845.188-.185-210.795-13.16 204.433 53.81 20.663-9.605c-2.984-4.15-2.996-9.927.35-14.118" transform="translate(18 70) translate(171 6.518)"/>
            <path fill="#FFDE8E" d="M387.945 72.113l-27.629-28.23-7.722-.481 24.471 24.79c.467.475.675 1.146.557 1.803-.118.655-.548 1.212-1.152 1.493l-29.774 13.839 7.432 1.956 33.817-15.17z" transform="translate(18 70) translate(171 6.518)"/>
        </g>
        <g transform="translate(18 70) translate(517 48.518)">
            <mask id="prefix__w" fill="#fff">
                <use xlink:href="#prefix__u"/>
            </mask>
            <path fill="url(#prefix__v)" d="M6.595 1.402L.854 1.044l5.741.358z" mask="url(#prefix__w)"/>
        </g>
        <g>
            <path fill="#FFDE8E" d="M125.622 32.995c.118-.657-.09-1.328-.558-1.803l-24.47-24.79-5.74-.358-.188.185 15.642 15.845c-.279.284-.55.579-.803.897-3.346 4.19-3.335 9.969-.35 14.118l-20.663 9.606 6.204 1.633 29.774-13.84c.604-.281 1.033-.838 1.152-1.493" transform="translate(18 70) translate(423 43.518)"/>
            <path fill="#FAAA36" d="M125.622 32.995c.118-.657-.09-1.328-.558-1.803l-24.47-24.79-5.74-.358-.188.185 15.642 15.845c-.279.284-.55.579-.803.897-3.346 4.19-3.335 9.969-.35 14.118l-20.663 9.606 6.204 1.633 29.774-13.84c.604-.281 1.033-.838 1.152-1.493M52.595 16.912c-2.638 6.521-.22 13.651 5.4 15.926 5.623 2.274 12.319-1.168 14.958-7.689 2.638-6.52.22-13.652-5.402-15.926-5.622-2.274-12.317 1.168-14.956 7.69" transform="translate(18 70) translate(423 43.518)"/>
            <path fill="#FFDE8E" d="M65.421 17.2c.35.021.652-.29.676-.696.024-.405-.239-.75-.589-.77l-3.794-.226-2.529-.15c-.349-.02-.652.291-.676.696-.024.405.24.75.59.771l2.528.15c.824.05 1.482.705 1.694 1.573l-4.31-.255c-.349-.02-.652.291-.676.696-.024.405.24.75.59.771l4.31.255c-.314.838-1.045 1.412-1.869 1.363l-2.529-.15c-.083-.006-.166.01-.245.041-.159.066-.29.201-.366.377-.076.176-.087.378-.034.561.027.093.07.176.124.247l4.71 6.168c.115.152.272.233.434.243.162.01.328-.053.461-.188.263-.27.291-.737.061-1.038l-3.706-4.854 1.003.06c1.528.09 2.88-1.096 3.271-2.75l.697.04c.35.021.652-.29.676-.696.024-.405-.24-.75-.589-.77l-.697-.043c-.062-.55-.243-1.057-.497-1.502l1.281.076z" transform="translate(18 70) translate(423 43.518)"/>
            <path fill="#FAAA36" d="M.92.028S.885.465.87.682C.32 8.942 3.749 16.248 10.123 18.8 18.677 22.225 29.3 15.788 33.85 4.424c.213-.533.409-1.067.589-1.603.076-.226.219-.68.219-.68L.92.027z" transform="translate(18 70) translate(423 43.518)"/>
        </g>
        <g transform="translate(18 70) translate(484 44.518)">
            <mask id="prefix__z" fill="#fff">
                <use xlink:href="#prefix__x"/>
            </mask>
            <path fill="url(#prefix__y)" d="M1.672.711L1.109.677c.187.016.375.03.563.034" mask="url(#prefix__z)"/>
        </g>
        <g>
            <path fill="#FAAA36" d="M11.726 160.784c0 1.105 1.131 2.162 3.173 3.133.691.33 1.478.65 2.372.958.381.131.777.26 1.192.386 1.807.552 3.946 1.063 6.353 1.524 2.782.534 5.925 1.002 9.366 1.39.775.086 1.57.168 2.373.247.394.038.79.077 1.191.113 2.038.186 4.16.346 6.353.475 3.002.177 6.134.3 9.366.36.785.015 1.576.026 2.372.034.395.003.794.004 1.192.005.353.002.702.006 1.057.006 1.792.001 3.557-.02 5.296-.056 3.235-.067 6.367-.197 9.366-.38.801-.05 1.592-.103 2.373-.16.398-.03.798-.058 1.191-.089 2.213-.175 4.333-.383 6.352-.617 3.455-.4 6.603-.884 9.367-1.434.827-.165 1.617-.336 2.373-.512.407-.095.805-.192 1.191-.29 2.69-.685 4.841-1.447 6.353-2.265 1.62-.876 2.51-1.815 2.511-2.794l-.005 7.466h-.006c-.027.96-.913 1.882-2.5 2.743-1.51.82-3.663 1.582-6.353 2.268-.386.098-.784.196-1.19.291-.758.177-1.547.348-2.374.513-2.763.551-5.912 1.034-9.367 1.435-2.019.234-4.139.441-6.352.616-.393.031-.793.06-1.19.09-.782.056-1.573.11-2.374.16-2.999.183-6.13.313-9.366.38-1.74.037-3.508.057-5.3.056-.354 0-.702-.004-1.053-.005-.398-.002-.797-.003-1.192-.006-.796-.007-1.587-.019-2.372-.033-3.232-.06-6.364-.183-9.366-.36-2.193-.13-4.315-.29-6.353-.475l-1.19-.113c-.805-.08-1.599-.16-2.374-.248-3.442-.387-6.584-.855-9.366-1.39-2.407-.46-4.546-.972-6.353-1.524-.416-.127-.81-.256-1.192-.387-.893-.308-1.682-.627-2.372-.956-2.015-.959-3.144-2-3.173-3.089h-.005l.005-7.466z" transform="translate(18 70) translate(48 220.518)"/>
            <path fill="#FAAA36" d="M11.723 159.844c-.003 4.757 20.753 8.622 46.36 8.63 25.608.01 46.37-3.84 46.373-8.596.004-4.758-20.753-8.622-46.36-8.631-25.608-.01-46.37 3.84-46.373 8.597" transform="translate(18 70) translate(48 220.518)"/>
            <path fill="#FAAA36" d="M58.094 154.548c-21.608-.008-39.315 2.543-41.01 5.792-.089-.168-.146-.338-.146-.511.002-3.489 18.428-6.311 41.156-6.302 22.728.008 41.15 2.843 41.147 6.332 0 .172-.057.341-.145.51-1.696-3.25-19.397-5.813-41.002-5.821" transform="translate(18 70) translate(48 220.518)"/>
            <path fill="#FCBA3F" d="M58.086 166.161c-21.605-.008-39.306-2.57-41.002-5.82 1.696-3.25 19.403-5.8 41.01-5.793 21.606.008 39.307 2.571 41.003 5.821-1.696 3.25-19.403 5.8-41.011 5.792" transform="translate(18 70) translate(48 220.518)"/>
            <path fill="#FAAA36" d="M104.46 159.895l-.006 7.465h-.006c-.027.96-.913 1.883-2.5 2.744v-7.416c1.62-.876 2.511-1.814 2.511-2.793M57.029 175.907c-.397 0-.796-.002-1.191-.006v-7.42c.395.003.794.003 1.191.005v7.421zM76.312 175.227l-1.19.089v-7.421c.397-.028.797-.057 1.19-.088v7.42zM95.595 172.372c-.386.099-.784.195-1.191.29v-7.418c.407-.096.805-.192 1.19-.29v7.418zM11.726 159.86c0 1.106 1.131 2.163 3.173 3.134v7.422c-2.015-.96-3.144-2-3.173-3.09h-.005l.005-7.465zM18.463 171.759c-.416-.127-.81-.256-1.19-.387v-7.421c.38.13.775.26 1.19.387v7.42zM36.555 167.498c.395.04.79.077 1.19.114 2.039.186 4.16.345 6.354.474 3.002.178 6.135.3 9.366.361v7.422c-3.231-.06-6.364-.184-9.366-.36-2.193-.13-4.315-.29-6.353-.476-.401-.036-.796-.075-1.191-.113-.804-.079-1.598-.16-2.373-.248-3.441-.386-6.584-.855-9.366-1.389v-7.42c2.782.532 5.925 1.001 9.366 1.387.775.087 1.569.17 2.373.248" transform="translate(18 70) translate(48 220.518)"/>
            <path fill="#FCBA3F" d="M92.031 165.756c.827-.166 1.617-.335 2.373-.512v7.418c-.756.177-1.545.349-2.373.513-2.763.551-5.912 1.034-9.366 1.434-2.02.236-4.14.442-6.353.617v-7.42c2.213-.175 4.333-.383 6.353-.616 3.454-.4 6.602-.883 9.366-1.434M101.948 170.104c-1.51.819-3.663 1.582-6.353 2.268v-7.418c2.689-.685 4.841-1.448 6.353-2.266v7.416zM63.382 168.436c3.235-.067 6.368-.197 9.366-.38.801-.05 1.592-.104 2.373-.16v7.42c-.781.057-1.572.11-2.373.16-2.998.184-6.13.314-9.366.381-1.741.036-3.507.057-5.301.056-.353 0-.701-.004-1.052-.006v-7.42l1.058.005c1.791 0 3.556-.02 5.295-.056M55.838 175.901c-.796-.007-1.587-.018-2.373-.032v-7.423c.786.016 1.577.026 2.373.035v7.42zM24.816 173.283c-2.407-.462-4.545-.972-6.353-1.524v-7.42c1.808.55 3.946 1.061 6.353 1.523v7.421zM17.272 163.951v7.42c-.893-.307-1.682-.627-2.373-.955v-7.422c.692.33 1.478.65 2.373.957" transform="translate(18 70) translate(48 220.518)"/>
            <path fill="#FAAA36" d="M27.727 147.75c0 1.104 1.131 2.161 3.173 3.132.691.33 1.478.65 2.372.958.38.131.777.26 1.192.386 1.807.552 3.946 1.063 6.353 1.524 2.782.534 5.925 1.002 9.366 1.39.775.086 1.57.168 2.373.247.394.038.79.077 1.191.113 2.038.186 4.16.346 6.353.475 3.002.177 6.134.3 9.366.36.785.015 1.576.026 2.373.034.394.003.793.004 1.191.005.353.002.702.006 1.057.006 1.792.001 3.557-.02 5.296-.056 3.235-.067 6.367-.197 9.366-.38.801-.05 1.592-.103 2.373-.16.398-.03.798-.058 1.191-.089 2.213-.175 4.333-.383 6.353-.617 3.454-.4 6.602-.884 9.366-1.434.827-.165 1.617-.336 2.373-.512.407-.095.805-.192 1.191-.29 2.69-.685 4.841-1.447 6.353-2.265 1.62-.876 2.51-1.815 2.511-2.794l-.005 7.466h-.006c-.027.96-.913 1.882-2.5 2.743-1.51.82-3.663 1.582-6.353 2.268-.386.098-.784.196-1.19.291-.758.177-1.547.348-2.374.513-2.763.551-5.912 1.034-9.366 1.435-2.02.234-4.14.441-6.353.616-.393.031-.793.06-1.19.09-.782.056-1.573.11-2.374.16-2.999.183-6.13.313-9.366.38-1.74.037-3.508.057-5.3.056-.354 0-.702-.004-1.053-.005-.398-.002-.797-.003-1.19-.006-.798-.007-1.589-.019-2.374-.033-3.232-.06-6.364-.183-9.366-.36-2.193-.13-4.315-.29-6.353-.475l-1.19-.113c-.805-.08-1.599-.16-2.374-.248-3.442-.387-6.584-.855-9.366-1.39-2.407-.46-4.546-.972-6.353-1.524-.416-.127-.81-.256-1.192-.387-.893-.308-1.682-.627-2.372-.956-2.015-.959-3.144-2-3.173-3.089h-.005l.005-7.466z" transform="translate(18 70) translate(48 220.518)"/>
            <path fill="#FAAA36" d="M27.724 146.809c-.003 4.757 20.753 8.622 46.36 8.63 25.608.01 46.37-3.84 46.373-8.596.004-4.758-20.753-8.622-46.36-8.631-25.607-.01-46.37 3.84-46.373 8.597" transform="translate(18 70) translate(48 220.518)"/>
            <path fill="#FAAA36" d="M74.095 141.513c-21.608-.008-39.315 2.543-41.01 5.792-.089-.168-.146-.338-.146-.511.002-3.49 18.428-6.311 41.156-6.302 22.728.008 41.15 2.843 41.147 6.332 0 .172-.057.34-.145.51-1.696-3.25-19.397-5.813-41.002-5.821" transform="translate(18 70) translate(48 220.518)"/>
            <path fill="#FCBA3F" d="M74.087 153.126c-21.605-.008-39.306-2.57-41.002-5.82 1.696-3.25 19.403-5.8 41.01-5.793 21.606.008 39.307 2.571 41.003 5.821-1.696 3.25-19.403 5.8-41.011 5.792" transform="translate(18 70) translate(48 220.518)"/>
            <path fill="#FAAA36" d="M120.46 146.86l-.005 7.464h-.006c-.027.962-.913 1.883-2.5 2.744v-7.416c1.62-.875 2.511-1.813 2.511-2.792M73.03 162.872c-.397 0-.796-.002-1.191-.006v-7.42c.395.003.794.003 1.191.005v7.421zM92.313 162.191c-.393.031-.792.06-1.19.09v-7.422c.397-.028.797-.056 1.19-.088v7.42zM111.596 159.337c-.386.099-.783.195-1.191.29v-7.419c.407-.095.805-.191 1.19-.29v7.418zM27.727 146.826c0 1.105 1.131 2.162 3.173 3.133v7.422c-2.015-.96-3.144-2-3.173-3.09h-.005l.005-7.465zM34.464 158.724c-.416-.127-.81-.256-1.19-.387v-7.421c.378.13.775.26 1.19.387v7.42zM52.556 154.463c.395.039.79.077 1.19.114 2.039.186 4.16.345 6.354.474 3.002.178 6.135.3 9.366.361v7.422c-3.231-.061-6.364-.184-9.366-.361-2.193-.13-4.315-.289-6.353-.475-.401-.036-.796-.075-1.191-.113-.804-.079-1.598-.161-2.373-.248-3.441-.386-6.584-.855-9.366-1.389v-7.421c2.782.533 5.925 1.002 9.366 1.388.775.087 1.569.169 2.373.248" transform="translate(18 70) translate(48 220.518)"/>
            <path fill="#FCBA3F" d="M108.032 152.72c.827-.165 1.617-.335 2.373-.512v7.42c-.756.175-1.545.347-2.373.512-2.763.551-5.912 1.034-9.366 1.434-2.02.235-4.14.442-6.353.617v-7.42c2.213-.175 4.333-.383 6.353-.616 3.454-.4 6.602-.884 9.366-1.435M117.949 157.069c-1.51.819-3.663 1.582-6.353 2.268v-7.418c2.689-.686 4.84-1.449 6.353-2.267v7.417zM79.383 155.401c3.235-.067 6.368-.197 9.366-.381.801-.05 1.592-.103 2.373-.16v7.421c-.781.057-1.572.11-2.373.16-2.998.184-6.13.314-9.366.381-1.741.036-3.507.057-5.301.056-.353 0-.701-.004-1.052-.006v-7.421c.353.002.703.005 1.058.006 1.791 0 3.556-.02 5.295-.056M71.84 162.866c-.797-.007-1.588-.018-2.374-.033v-7.422c.786.015 1.577.026 2.373.034v7.421zM40.817 160.248c-2.407-.462-4.545-.972-6.353-1.524v-7.42c1.808.55 3.946 1.061 6.353 1.523v7.421zM33.273 150.916v7.42c-.893-.307-1.682-.627-2.373-.955v-7.423c.692.33 1.478.65 2.373.958" transform="translate(18 70) translate(48 220.518)"/>
            <path fill="#FAAA36" d="M11.726 134.714c0 1.105 1.131 2.162 3.173 3.133.691.329 1.478.65 2.372.958.381.131.777.26 1.192.386 1.807.552 3.946 1.063 6.353 1.524 2.782.534 5.925 1.002 9.366 1.389.775.087 1.57.169 2.373.248.394.038.79.077 1.191.113 2.038.186 4.16.346 6.353.475 3.002.177 6.134.3 9.366.36.785.015 1.576.026 2.372.034.395.003.794.004 1.192.005.353.002.702.006 1.057.006 1.792.001 3.557-.02 5.296-.056 3.235-.067 6.367-.197 9.366-.381.801-.049 1.592-.102 2.373-.16.398-.029.798-.057 1.191-.088 2.213-.175 4.333-.383 6.352-.617 3.455-.401 6.603-.884 9.367-1.434.827-.165 1.617-.336 2.373-.512.407-.095.805-.192 1.191-.29 2.69-.685 4.841-1.447 6.353-2.265 1.62-.876 2.51-1.815 2.511-2.794l-.005 7.466h-.006c-.027.96-.913 1.882-2.5 2.743-1.51.819-3.663 1.582-6.353 2.268-.386.098-.784.196-1.19.291-.758.177-1.547.348-2.374.513-2.763.551-5.912 1.034-9.367 1.435-2.019.234-4.139.441-6.352.616-.393.031-.793.06-1.19.089-.782.057-1.573.11-2.374.16-2.999.184-6.13.314-9.366.381-1.74.037-3.508.057-5.3.056-.354 0-.702-.004-1.053-.005-.398-.002-.797-.003-1.192-.006-.796-.007-1.587-.019-2.372-.033-3.232-.061-6.364-.183-9.366-.361-2.193-.129-4.315-.289-6.353-.474l-1.19-.113c-.805-.08-1.599-.161-2.374-.248-3.442-.387-6.584-.855-9.366-1.39-2.407-.461-4.546-.972-6.353-1.524-.416-.127-.81-.256-1.192-.387-.893-.308-1.682-.627-2.372-.956-2.015-.959-3.144-2-3.173-3.089h-.005l.005-7.466z" transform="translate(18 70) translate(48 220.518)"/>
            <path fill="#FAAA36" d="M11.723 133.774c-.003 4.756 20.753 8.621 46.36 8.63 25.608.01 46.37-3.84 46.373-8.596.004-4.758-20.753-8.622-46.36-8.632-25.608-.008-46.37 3.84-46.373 8.598" transform="translate(18 70) translate(48 220.518)"/>
            <path fill="#FAAA36" d="M58.094 128.478c-21.608-.008-39.315 2.543-41.01 5.792-.089-.168-.146-.338-.146-.511.002-3.49 18.428-6.311 41.156-6.302 22.728.008 41.15 2.843 41.147 6.332 0 .172-.057.34-.145.51-1.696-3.25-19.397-5.813-41.002-5.821" transform="translate(18 70) translate(48 220.518)"/>
            <path fill="#FCBA3F" d="M58.086 140.09c-21.605-.007-39.306-2.57-41.002-5.82 1.696-3.25 19.403-5.8 41.01-5.792 21.606.008 39.307 2.57 41.003 5.82-1.696 3.25-19.403 5.8-41.011 5.793" transform="translate(18 70) translate(48 220.518)"/>
            <path fill="#FAAA36" d="M104.46 133.824l-.006 7.465h-.006c-.027.961-.913 1.883-2.5 2.744v-7.416c1.62-.876 2.511-1.814 2.511-2.793M57.029 149.837c-.397-.001-.796-.002-1.191-.006v-7.421c.395.004.794.004 1.191.006v7.421zM76.312 149.156c-.393.031-.793.06-1.19.09v-7.422c.397-.028.797-.057 1.19-.088v7.42zM95.595 146.301c-.386.1-.784.195-1.191.291v-7.419c.407-.096.805-.192 1.19-.29v7.418zM11.726 133.79c0 1.106 1.131 2.163 3.173 3.134v7.422c-2.015-.96-3.144-2-3.173-3.09h-.005l.005-7.465zM18.463 145.689c-.416-.127-.81-.256-1.19-.387v-7.421c.38.13.775.26 1.19.387v7.42zM36.555 141.428c.395.039.79.077 1.19.114 2.039.186 4.16.345 6.354.474 3.002.178 6.135.3 9.366.36v7.422c-3.231-.06-6.364-.183-9.366-.36-2.193-.13-4.315-.29-6.353-.475-.401-.036-.796-.075-1.191-.113-.804-.08-1.598-.161-2.373-.248-3.441-.386-6.584-.855-9.366-1.39v-7.42c2.782.533 5.925 1.002 9.366 1.388.775.087 1.569.169 2.373.248" transform="translate(18 70) translate(48 220.518)"/>
            <path fill="#FCBA3F" d="M92.031 139.685c.827-.165 1.617-.335 2.373-.512v7.42c-.756.175-1.545.347-2.373.512-2.763.551-5.912 1.034-9.366 1.434-2.02.235-4.14.442-6.353.617v-7.42c2.213-.175 4.333-.383 6.353-.616 3.454-.4 6.602-.884 9.366-1.435M101.948 144.033c-1.51.82-3.663 1.582-6.353 2.268v-7.418c2.689-.685 4.841-1.448 6.353-2.266v7.416zM63.382 142.366c3.235-.067 6.368-.197 9.366-.381.801-.05 1.592-.103 2.373-.16v7.42c-.781.058-1.572.11-2.373.16-2.998.185-6.13.315-9.366.382-1.741.036-3.507.057-5.301.056-.353 0-.701-.004-1.052-.006v-7.421c.353.002.703.005 1.058.006 1.791 0 3.556-.02 5.295-.056M55.838 149.831c-.796-.007-1.587-.018-2.373-.033v-7.422c.786.015 1.577.026 2.373.034v7.421zM24.816 147.213c-2.407-.462-4.545-.972-6.353-1.524v-7.421c1.808.551 3.946 1.062 6.353 1.524v7.421zM17.272 137.881v7.42c-.893-.307-1.682-.627-2.373-.955v-7.423c.692.33 1.478.65 2.373.958" transform="translate(18 70) translate(48 220.518)"/>
            <path fill="#FAAA36" d="M11.726 121.679c0 1.105 1.131 2.162 3.173 3.133.691.329 1.478.65 2.372.958.381.13.777.26 1.192.386 1.807.552 3.946 1.063 6.353 1.524 2.782.534 5.925 1.002 9.366 1.389.775.087 1.57.169 2.373.248.394.038.79.077 1.191.113 2.038.186 4.16.346 6.353.475 3.002.177 6.134.3 9.366.36.785.015 1.576.026 2.372.034.395.003.794.004 1.192.005.353.002.702.006 1.057.006 1.792 0 3.557-.02 5.296-.056 3.235-.067 6.367-.197 9.366-.381.801-.05 1.592-.102 2.373-.16.398-.03.798-.057 1.191-.088 2.213-.175 4.333-.383 6.352-.617 3.455-.401 6.603-.884 9.367-1.434.827-.165 1.617-.336 2.373-.512.407-.095.805-.192 1.191-.29 2.69-.685 4.841-1.447 6.353-2.265 1.62-.876 2.51-1.815 2.511-2.794l-.005 7.466h-.006c-.027.96-.913 1.882-2.5 2.743-1.51.819-3.663 1.582-6.353 2.268-.386.098-.784.196-1.19.29-.758.178-1.547.349-2.374.514-2.763.55-5.912 1.034-9.367 1.435-2.019.234-4.139.44-6.352.616l-1.19.089c-.782.057-1.573.11-2.374.16-2.999.184-6.13.314-9.366.38-1.74.038-3.508.058-5.3.057-.354 0-.702-.004-1.053-.005-.398-.002-.797-.003-1.192-.006-.796-.007-1.587-.02-2.372-.033-3.232-.061-6.364-.183-9.366-.361-2.193-.13-4.315-.29-6.353-.474l-1.19-.113c-.805-.08-1.599-.161-2.374-.248-3.442-.387-6.584-.855-9.366-1.39-2.407-.461-4.546-.972-6.353-1.524-.416-.127-.81-.256-1.192-.387-.893-.308-1.682-.627-2.372-.956-2.015-.96-3.144-2-3.173-3.09h-.005l.005-7.465z" transform="translate(18 70) translate(48 220.518)"/>
            <path fill="#FAAA36" d="M11.723 120.738c-.003 4.757 20.753 8.622 46.36 8.631 25.608.01 46.37-3.84 46.373-8.597.004-4.758-20.753-8.622-46.36-8.63-25.608-.01-46.37 3.84-46.373 8.596" transform="translate(18 70) translate(48 220.518)"/>
            <path fill="#FAAA36" d="M58.094 115.442c-21.608-.007-39.315 2.544-41.01 5.793-.089-.168-.146-.338-.146-.511.002-3.49 18.428-6.312 41.156-6.303 22.728.008 41.15 2.843 41.147 6.332 0 .172-.057.341-.145.51-1.696-3.25-19.397-5.813-41.002-5.82" transform="translate(18 70) translate(48 220.518)"/>
            <path fill="#FCBA3F" d="M58.086 127.056c-21.605-.008-39.306-2.57-41.002-5.821 1.696-3.25 19.403-5.8 41.01-5.792 21.606.008 39.307 2.57 41.003 5.82-1.696 3.25-19.403 5.8-41.011 5.793" transform="translate(18 70) translate(48 220.518)"/>
            <path fill="#FAAA36" d="M104.46 120.79l-.006 7.464h-.006c-.027.961-.913 1.883-2.5 2.744v-7.416c1.62-.876 2.511-1.814 2.511-2.793M57.029 136.802c-.397-.001-.796-.002-1.191-.006v-7.421c.395.004.794.004 1.191.006v7.42zM76.312 136.121c-.393.031-.793.06-1.19.09v-7.422c.397-.028.797-.057 1.19-.088v7.42zM95.595 133.266c-.386.1-.784.195-1.191.291v-7.419c.407-.096.805-.192 1.19-.29v7.418zM11.726 120.755c0 1.106 1.131 2.163 3.173 3.133v7.422c-2.015-.959-3.144-2-3.173-3.09h-.005l.005-7.465zM18.463 132.653c-.416-.127-.81-.256-1.19-.387v-7.42c.38.13.775.26 1.19.386v7.421zM36.555 128.393c.395.039.79.077 1.19.114 2.039.186 4.16.345 6.354.474 3.002.178 6.135.3 9.366.36v7.422c-3.231-.06-6.364-.183-9.366-.36-2.193-.13-4.315-.29-6.353-.475-.401-.036-.796-.075-1.191-.113-.804-.08-1.598-.161-2.373-.248-3.441-.386-6.584-.855-9.366-1.39v-7.42c2.782.533 5.925 1.002 9.366 1.388.775.087 1.569.169 2.373.248" transform="translate(18 70) translate(48 220.518)"/>
            <path fill="#FCBA3F" d="M92.031 126.65c.827-.165 1.617-.335 2.373-.512v7.419c-.756.176-1.545.348-2.373.513-2.763.551-5.912 1.034-9.366 1.434-2.02.235-4.14.442-6.353.617v-7.42c2.213-.175 4.333-.383 6.353-.616 3.454-.401 6.602-.884 9.366-1.435M101.948 130.998c-1.51.82-3.663 1.582-6.353 2.268v-7.418c2.689-.685 4.841-1.448 6.353-2.266v7.416zM63.382 129.33c3.235-.066 6.368-.196 9.366-.38.801-.05 1.592-.103 2.373-.16v7.42c-.781.058-1.572.11-2.373.16-2.998.185-6.13.315-9.366.382-1.741.036-3.507.057-5.301.056-.353 0-.701-.004-1.052-.006v-7.421c.353.002.703.005 1.058.006 1.791 0 3.556-.02 5.295-.056M55.838 136.796c-.796-.007-1.587-.018-2.373-.033v-7.422c.786.015 1.577.026 2.373.034v7.421zM24.816 134.178c-2.407-.462-4.545-.972-6.353-1.524v-7.421c1.808.55 3.946 1.062 6.353 1.524v7.42zM17.272 124.846v7.42c-.893-.307-1.682-.627-2.373-.955v-7.423c.692.33 1.478.65 2.373.958" transform="translate(18 70) translate(48 220.518)"/>
            <path fill="#FAAA36" d="M.778 108.644c0 1.105 1.132 2.162 3.173 3.133.691.329 1.478.65 2.373.958.38.13.776.26 1.191.386 1.807.552 3.946 1.063 6.353 1.524 2.782.534 5.925 1.002 9.366 1.389.775.087 1.569.169 2.373.248.395.038.79.077 1.191.113 2.039.186 4.16.346 6.353.475 3.002.177 6.134.3 9.366.36.785.015 1.576.026 2.373.034.395.003.794.004 1.191.005.353.002.703.006 1.057.006 1.792 0 3.557-.02 5.296-.056 3.236-.067 6.367-.197 9.366-.381.801-.05 1.592-.102 2.373-.16.398-.03.798-.057 1.191-.088 2.213-.175 4.333-.383 6.353-.617 3.454-.401 6.602-.884 9.366-1.434.827-.165 1.617-.336 2.373-.512.407-.095.805-.192 1.191-.29 2.689-.686 4.841-1.447 6.353-2.265 1.619-.876 2.51-1.815 2.511-2.794l-.005 7.466H93.5c-.027.96-.912 1.882-2.5 2.743-1.51.819-3.663 1.582-6.353 2.268-.386.098-.784.196-1.191.29-.757.178-1.545.349-2.373.514-2.763.55-5.912 1.034-9.366 1.435-2.02.234-4.14.44-6.353.616l-1.191.089c-.781.057-1.572.11-2.373.16-2.998.184-6.13.314-9.366.38-1.74.038-3.507.058-5.301.057-.353 0-.701-.004-1.052-.005-.397-.002-.796-.003-1.191-.006-.797-.007-1.588-.02-2.373-.033-3.232-.061-6.364-.183-9.366-.361-2.193-.13-4.314-.29-6.353-.474-.401-.037-.797-.075-1.191-.113-.804-.08-1.598-.161-2.373-.248-3.441-.387-6.584-.855-9.366-1.39-2.407-.461-4.546-.972-6.353-1.524-.415-.127-.811-.256-1.191-.387-.894-.308-1.683-.627-2.373-.956-2.014-.96-3.143-2-3.172-3.09H.773l.005-7.465z" transform="translate(18 70) translate(48 220.518)"/>
            <path fill="#FAAA36" d="M.776 107.703c-.003 4.757 20.753 8.622 46.36 8.631 25.608.01 46.369-3.84 46.373-8.597.003-4.758-20.753-8.622-46.36-8.63-25.608-.01-46.37 3.84-46.373 8.596" transform="translate(18 70) translate(48 220.518)"/>
            <path fill="#FAAA36" d="M47.147 102.407C25.539 102.4 7.832 104.95 6.136 108.2c-.088-.168-.146-.338-.145-.51.002-3.49 18.428-6.312 41.156-6.303 22.728.008 41.149 2.843 41.147 6.332 0 .172-.058.341-.146.51-1.695-3.25-19.397-5.813-41.001-5.82" transform="translate(18 70) translate(48 220.518)"/>
            <path fill="#FCBA3F" d="M47.137 114.02c-21.604-.007-39.306-2.57-41-5.82 1.694-3.25 19.401-5.8 41.01-5.792 21.604.008 39.305 2.57 41.001 5.82-1.696 3.25-19.403 5.8-41.01 5.793" transform="translate(18 70) translate(48 220.518)"/>
            <path fill="#FAAA36" d="M93.51 107.754l-.004 7.465H93.5c-.027.961-.912 1.883-2.5 2.744v-7.416c1.619-.876 2.51-1.814 2.51-2.793M46.08 123.767c-.396-.001-.795-.002-1.19-.006v-7.421c.395.004.794.004 1.19.006v7.42zM65.364 123.086c-.393.031-.792.06-1.191.089v-7.421c.398-.028.798-.057 1.191-.088v7.42zM84.647 120.231c-.386.1-.784.195-1.19.291v-7.419c.406-.096.804-.192 1.19-.29v7.418zM.778 107.72c0 1.105 1.132 2.162 3.173 3.133v7.422c-2.014-.959-3.143-2-3.172-3.09H.773l.005-7.465zM7.515 119.618c-.415-.127-.811-.256-1.191-.387v-7.42c.38.13.776.26 1.19.386v7.421zM25.607 115.358l1.19.114c2.04.186 4.16.345 6.354.474 3.002.178 6.135.3 9.367.36v7.422c-3.232-.06-6.365-.183-9.367-.36-2.193-.13-4.314-.29-6.353-.475-.4-.037-.796-.076-1.191-.114-.804-.078-1.598-.16-2.373-.248-3.441-.386-6.584-.855-9.366-1.389v-7.42c2.782.532 5.926 1.002 9.366 1.388.776.087 1.569.168 2.373.248" transform="translate(18 70) translate(48 220.518)"/>
            <path fill="#FCBA3F" d="M81.083 113.615c.827-.165 1.617-.335 2.373-.512v7.419c-.757.176-1.545.348-2.373.513-2.763.55-5.913 1.034-9.366 1.434-2.02.235-4.14.442-6.353.617v-7.42c2.213-.175 4.333-.383 6.353-.616 3.454-.401 6.602-.884 9.366-1.435M91 117.963c-1.51.819-3.663 1.582-6.353 2.268v-7.418c2.689-.685 4.842-1.448 6.353-2.266v7.416zM52.434 116.296c3.236-.068 6.368-.198 9.366-.382.8-.05 1.592-.103 2.373-.16v7.421c-.781.058-1.572.11-2.373.16-2.998.184-6.13.315-9.366.382-1.74.035-3.507.056-5.301.056-.352 0-.701-.004-1.052-.007v-7.42l1.058.005c1.792 0 3.556-.02 5.295-.055M44.89 123.76c-.796-.006-1.587-.017-2.373-.032v-7.422c.786.015 1.577.026 2.373.034v7.42zM13.868 121.143c-2.407-.462-4.545-.972-6.353-1.524v-7.421c1.808.55 3.946 1.062 6.353 1.524v7.42zM6.324 111.81v7.42c-.894-.306-1.683-.626-2.373-.954v-7.423c.69.33 1.478.65 2.373.958" transform="translate(18 70) translate(48 220.518)"/>
            <path fill="#FAAA36" d="M11.726 95.609c0 1.105 1.131 2.162 3.173 3.133.691.328 1.478.65 2.372.957.381.132.777.26 1.192.386 1.807.553 3.946 1.064 6.353 1.525 2.782.534 5.925 1.002 9.366 1.389.775.087 1.57.169 2.373.248.394.037.79.076 1.191.112 2.038.187 4.16.347 6.353.476 3.002.177 6.134.3 9.366.36.785.015 1.576.026 2.372.034l1.192.005c.353.002.702.006 1.057.006 1.792 0 3.557-.02 5.296-.056 3.235-.067 6.367-.197 9.366-.382.801-.049 1.592-.102 2.373-.16.398-.028.798-.056 1.191-.087 2.213-.176 4.333-.384 6.352-.618 3.455-.4 6.603-.883 9.367-1.433.827-.166 1.617-.337 2.373-.513.407-.094.805-.192 1.191-.29 2.69-.685 4.841-1.447 6.353-2.264 1.62-.876 2.51-1.816 2.511-2.794l-.005 7.465h-.006c-.027.96-.913 1.882-2.5 2.743-1.51.82-3.663 1.582-6.353 2.269-.386.097-.784.195-1.19.29-.758.178-1.547.349-2.374.514-2.763.55-5.912 1.033-9.367 1.434-2.019.234-4.139.441-6.352.617l-1.19.089c-.782.057-1.573.11-2.374.16-2.999.183-6.13.313-9.366.38-1.74.037-3.508.058-5.3.057-.354 0-.702-.005-1.053-.005l-1.192-.007c-.796-.008-1.587-.019-2.372-.032-3.232-.062-6.364-.184-9.366-.362-2.193-.129-4.315-.288-6.353-.474l-1.19-.113c-.805-.08-1.599-.16-2.374-.248-3.442-.386-6.584-.855-9.366-1.39-2.407-.46-4.546-.972-6.353-1.523-.416-.128-.81-.257-1.192-.388-.893-.308-1.682-.626-2.372-.956-2.015-.959-3.144-2-3.173-3.088h-.005l.005-7.466z" transform="translate(18 70) translate(48 220.518)"/>
            <path fill="#FAAA36" d="M11.723 94.668c-.003 4.757 20.753 8.622 46.36 8.631 25.608.01 46.37-3.84 46.373-8.597.004-4.758-20.753-8.622-46.36-8.63-25.608-.01-46.37 3.84-46.373 8.596" transform="translate(18 70) translate(48 220.518)"/>
            <path fill="#FAAA36" d="M58.094 89.372c-21.608-.008-39.315 2.543-41.01 5.792-.089-.168-.146-.338-.146-.51.002-3.49 18.428-6.312 41.156-6.303 22.728.008 41.15 2.843 41.147 6.332 0 .172-.057.341-.145.51-1.696-3.25-19.397-5.813-41.002-5.82" transform="translate(18 70) translate(48 220.518)"/>
            <path fill="#FCBA3F" d="M58.086 100.986c-21.605-.008-39.306-2.57-41.002-5.822 1.696-3.249 19.403-5.8 41.01-5.792 21.606.008 39.307 2.572 41.003 5.822-1.696 3.248-19.403 5.8-41.011 5.792" transform="translate(18 70) translate(48 220.518)"/>
            <path fill="#FAAA36" d="M104.46 94.719l-.006 7.465h-.006c-.027.96-.913 1.883-2.5 2.744v-7.416c1.62-.876 2.511-1.814 2.511-2.793M57.029 110.732c-.397-.001-.796-.002-1.191-.006v-7.421c.395.004.794.004 1.191.006v7.42zM76.312 110.05c-.393.032-.793.06-1.19.09v-7.421c.397-.028.797-.057 1.19-.088v7.42zM95.595 107.196c-.386.099-.784.195-1.191.29v-7.418c.407-.096.805-.192 1.19-.29v7.418zM11.726 94.685c0 1.105 1.131 2.162 3.173 3.133v7.422c-2.015-.959-3.144-2-3.173-3.09h-.005l.005-7.465zM18.463 106.583c-.416-.127-.81-.256-1.19-.387v-7.42c.38.13.775.26 1.19.386v7.421zM36.555 102.322c.395.04.79.077 1.19.114 2.039.186 4.16.345 6.354.474 3.002.178 6.135.3 9.366.361v7.421c-3.231-.06-6.364-.183-9.366-.36-2.193-.13-4.315-.289-6.353-.475-.401-.036-.796-.075-1.191-.113-.804-.079-1.598-.16-2.373-.248-3.441-.386-6.584-.855-9.366-1.389v-7.42c2.782.532 5.925 1.001 9.366 1.387.775.087 1.569.17 2.373.248" transform="translate(18 70) translate(48 220.518)"/>
            <path fill="#FCBA3F" d="M92.031 100.58c.827-.165 1.617-.335 2.373-.512v7.419c-.756.176-1.545.348-2.373.513-2.763.55-5.912 1.034-9.366 1.434-2.02.235-4.14.442-6.353.617v-7.42c2.213-.175 4.333-.383 6.353-.616 3.454-.401 6.602-.884 9.366-1.435M101.948 104.928c-1.51.819-3.663 1.582-6.353 2.268v-7.418c2.689-.685 4.841-1.448 6.353-2.266v7.416zM63.382 103.26c3.235-.067 6.368-.197 9.366-.38.801-.05 1.592-.104 2.373-.16v7.42c-.781.057-1.572.11-2.373.16-2.998.184-6.13.314-9.366.381-1.741.036-3.507.057-5.301.056-.353 0-.701-.004-1.052-.006v-7.42c.353.001.703.004 1.058.004 1.791.001 3.556-.019 5.295-.055M55.838 110.726c-.796-.007-1.587-.018-2.373-.033v-7.422c.786.015 1.577.026 2.373.034v7.42zM24.816 108.108c-2.407-.463-4.545-.973-6.353-1.525v-7.42c1.808.55 3.946 1.062 6.353 1.523v7.421zM17.272 98.775v7.42c-.893-.306-1.682-.626-2.373-.954v-7.424c.692.33 1.478.65 2.373.959" transform="translate(18 70) translate(48 220.518)"/>
            <path fill="#FAAA36" d="M11.726 82.573c0 1.105 1.131 2.162 3.173 3.133.691.33 1.478.65 2.372.958.381.131.777.26 1.192.386 1.807.552 3.946 1.063 6.353 1.524 2.782.534 5.925 1.002 9.366 1.39.775.086 1.57.168 2.373.247.394.038.79.077 1.191.113 2.038.186 4.16.346 6.353.475 3.002.177 6.134.3 9.366.36.785.015 1.576.026 2.372.034.395.003.794.004 1.192.005.353.002.702.006 1.057.006 1.792 0 3.557-.02 5.296-.056 3.235-.067 6.367-.197 9.366-.38.801-.05 1.592-.103 2.373-.16.398-.03.798-.058 1.191-.089 2.213-.175 4.333-.383 6.352-.617 3.455-.4 6.603-.884 9.367-1.434.827-.165 1.617-.336 2.373-.512.407-.095.805-.192 1.191-.29 2.69-.686 4.841-1.447 6.353-2.265 1.62-.876 2.51-1.815 2.511-2.794l-.005 7.465h-.006c-.027.961-.913 1.883-2.5 2.744-1.51.82-3.663 1.582-6.353 2.268-.386.098-.784.196-1.19.291-.758.177-1.547.348-2.374.513-2.763.551-5.912 1.034-9.367 1.435-2.019.234-4.139.441-6.352.616-.393.031-.793.06-1.19.09-.782.056-1.573.11-2.374.16-2.999.183-6.13.313-9.366.38-1.74.037-3.508.057-5.3.056-.354 0-.702-.004-1.053-.005-.398-.002-.797-.003-1.192-.006-.796-.008-1.587-.019-2.372-.033-3.232-.06-6.364-.183-9.366-.36-2.193-.13-4.315-.29-6.353-.475l-1.19-.113c-.805-.08-1.599-.16-2.374-.248-3.442-.387-6.584-.855-9.366-1.39-2.407-.46-4.546-.972-6.353-1.524-.416-.127-.81-.256-1.192-.387-.893-.308-1.682-.627-2.372-.956-2.015-.959-3.144-2-3.173-3.089h-.005l.005-7.466z" transform="translate(18 70) translate(48 220.518)"/>
            <path fill="#FAAA36" d="M11.723 81.633c-.003 4.757 20.753 8.622 46.36 8.63 25.608.01 46.37-3.84 46.373-8.596.004-4.758-20.753-8.622-46.36-8.631-25.608-.01-46.37 3.84-46.373 8.597" transform="translate(18 70) translate(48 220.518)"/>
            <path fill="#FAAA36" d="M58.094 76.337c-21.608-.008-39.315 2.543-41.01 5.792-.089-.168-.146-.338-.146-.511.002-3.489 18.428-6.311 41.156-6.302 22.728.008 41.15 2.843 41.147 6.332 0 .172-.057.341-.145.51-1.696-3.25-19.397-5.813-41.002-5.821" transform="translate(18 70) translate(48 220.518)"/>
            <path fill="#FCBA3F" d="M58.086 87.95c-21.605-.008-39.306-2.57-41.002-5.82 1.696-3.25 19.403-5.8 41.01-5.793 21.606.008 39.307 2.571 41.003 5.821-1.696 3.25-19.403 5.8-41.011 5.792" transform="translate(18 70) translate(48 220.518)"/>
            <path fill="#FAAA36" d="M69.284 79.526c1.21 0 2.191-.178 2.191-.397 0-.22-.982-.398-2.19-.398h-21.91c-1.21 0-2.19.178-2.19.398 0 .219.98.397 2.19.397h8.763c2.853 0 5.263.333 6.17.795H47.375c-1.21 0-2.19.178-2.19.398 0 .219.98.397 2.19.397h14.933c-.907.462-3.317.795-6.17.795h-8.763c-.285 0-.57.011-.837.031-.535.04-.964.117-1.188.215-.223.097-.223.207 0 .304.11.049.272.093.478.129l17.523 3.181c.43.077.99.116 1.551.116.561 0 1.122-.039 1.551-.116.854-.155.854-.407 0-.562l-13.79-2.502h3.475c5.293 0 9.715-.684 10.731-1.591h2.415c1.21 0 2.191-.178 2.191-.397 0-.22-.982-.398-2.19-.398h-2.416c-.328-.295-1.056-.563-2.024-.795h4.44zM104.46 81.684l-.006 7.465h-.006c-.027.96-.913 1.883-2.5 2.744v-7.416c1.62-.876 2.511-1.814 2.511-2.793M57.029 97.696c-.397 0-.796-.002-1.191-.006v-7.42c.395.003.794.003 1.191.005v7.421zM76.312 97.016l-1.19.089v-7.421c.397-.03.797-.057 1.19-.088v7.42zM95.595 94.16c-.386.1-.784.196-1.191.292v-7.42c.407-.095.805-.191 1.19-.29v7.419zM11.726 81.65c0 1.105 1.131 2.162 3.173 3.133v7.422c-2.015-.959-3.144-2-3.173-3.09h-.005l.005-7.465zM18.463 93.548c-.416-.127-.81-.256-1.19-.387V85.74c.38.131.775.26 1.19.387v7.421zM36.555 89.287c.395.04.79.077 1.19.114 2.039.186 4.16.345 6.354.474 3.002.178 6.135.3 9.366.361v7.421c-3.231-.06-6.364-.183-9.366-.36-2.193-.13-4.315-.289-6.353-.475-.401-.036-.796-.075-1.191-.113-.804-.079-1.598-.16-2.373-.248-3.441-.386-6.584-.855-9.366-1.389v-7.42c2.782.532 5.925 1.001 9.366 1.387.775.087 1.569.17 2.373.248" transform="translate(18 70) translate(48 220.518)"/>
            <path fill="#FCBA3F" d="M92.031 87.544c.827-.165 1.617-.334 2.373-.511v7.418c-.756.177-1.545.349-2.373.514-2.763.55-5.912 1.034-9.366 1.433-2.02.236-4.14.443-6.353.618v-7.42c2.213-.175 4.333-.383 6.353-.617 3.454-.4 6.602-.883 9.366-1.434M101.948 91.893c-1.51.819-3.663 1.582-6.353 2.268v-7.418c2.689-.685 4.841-1.448 6.353-2.266v7.416zM63.382 90.225c3.235-.067 6.368-.197 9.366-.38.801-.05 1.592-.104 2.373-.16v7.42c-.781.057-1.572.11-2.373.16-2.998.184-6.13.314-9.366.381-1.741.036-3.507.057-5.301.056-.353 0-.701-.004-1.052-.006v-7.42c.353.001.703.004 1.058.004 1.791.001 3.556-.019 5.295-.055M55.838 97.69c-.796-.007-1.587-.017-2.373-.032v-7.422c.786.014 1.577.025 2.373.033v7.421zM24.816 95.072c-2.407-.462-4.545-.972-6.353-1.524v-7.42c1.808.55 3.946 1.061 6.353 1.523v7.421zM17.272 85.74v7.42c-.893-.307-1.682-.627-2.373-.956v-7.422c.692.33 1.478.65 2.373.958" transform="translate(18 70) translate(48 220.518)"/>
            <path fill="#FAAA36" d="M45.826 41.616c-.012 22.708 18.573 41.126 41.51 41.137 22.938.012 41.542-18.387 41.553-41.095C128.901 18.95 110.316.532 87.38.52 64.441.509 45.84 18.908 45.826 41.616" transform="translate(18 70) translate(48 220.518)"/>
            <path fill="#FAAA36" d="M52.477 41.62c-.01 19.071 15.599 34.54 34.863 34.55 19.265.01 34.89-15.444 34.9-34.516.009-19.072-15.6-34.54-34.864-34.55-19.264-.01-34.89 15.443-34.9 34.515" transform="translate(18 70) translate(48 220.518)"/>
            <path fill="#FCBA3F" d="M54.437 41.62c-.009 18 14.723 32.6 32.904 32.608 18.181.01 32.928-14.575 32.937-32.575.01-18-14.722-32.599-32.903-32.608C69.193 9.036 54.446 23.62 54.437 41.62" transform="translate(18 70) translate(48 220.518)"/>
            <path fill="#FAAA36" d="M98.803 25.257c1.209 0 2.19-1.14 2.19-2.542 0-1.404-.981-2.542-2.19-2.542H76.894c-1.21 0-2.191 1.138-2.191 2.542 0 1.403.98 2.542 2.19 2.542h8.764c2.853 0 5.263 2.13 6.17 5.084H76.894c-1.21 0-2.191 1.139-2.191 2.542 0 1.404.98 2.543 2.19 2.543h14.934c-.907 2.954-3.317 5.084-6.17 5.084h-8.763c-.285 0-.57.067-.837.194-.535.259-.964.752-1.188 1.378-.223.62-.223 1.32 0 1.942.11.315.272.595.478.829L92.87 65.186c.43.498.99.747 1.55.747.562 0 1.123-.25 1.552-.742.855-.992.855-2.603 0-3.595l-13.79-16.001h3.475c5.294 0 9.715-4.373 10.732-10.17h2.414c1.209 0 2.19-1.138 2.19-2.542 0-1.403-.981-2.542-2.19-2.542h-2.414c-.33-1.891-1.056-3.6-2.024-5.084h4.438z" transform="translate(18 70) translate(48 220.518)"/>
        </g>
    </g>
</svg>
