<svg xmlns="http://www.w3.org/2000/svg" xmlns:xlink="http://www.w3.org/1999/xlink" width="630" height="480" viewBox="0 0 630 480">
    <defs>
        <path id="prefix__a" d="M90.888 24.54c.396 10.226-1.53 17.065-2.825 20.435l-27.427 26.66C75.63 49.043 82.396 15.358 71.77 7.975c-10.588-7.357-13.24 15.583-12.413 36.9.624 16.11-2.385 26.928-4.438 32.314l-32.891 31.969c14.397-22.562 21.217-56.011 10.287-62.356-8.426-4.89-12.408 9.549-11.578 33.601.564 16.348-2.902 28.765-5.181 35.046L.065 130.507c.623 1.365 1.478 2.38 2.522 3.003l6.165-5.992c5.25-1.645 15.488-3.692 30.144-1.425 19.634 3.036 41.12 2.516 35.383-9.557-5.725-12.053-37.259-8.32-59.648 5.268L41.743 95.45c5.705-1.435 15.05-2.684 27.676-.73 19.634 3.038 41.12 2.517 35.384-9.557-5.375-11.316-33.499-8.715-55.445 2.886l34.817-33.841c3.628-.676 8.818-1.05 15.441-.026 12.374 1.915 25.916 1.586 22.302-6.024-3.138-6.602-18.57-5.685-31.82.293l11.286-10.97c4.02-2.764 9.75-6.722 16.893-9.24 13.592-4.791 25.954-11.567 25.98-17.47v-.038c-.007-1.273-.587-2.506-1.855-3.668C135.237.497 110.146 16.11 97.42 35.88l-5.808 5.644c9.507-14.238 13.813-35.575 7.1-40.24-.87-.604-1.656-.884-2.362-.884-4.711 0-5.915 12.456-5.462 24.14"/>
        <path id="prefix__d" d="M4.075 40.9C-8.19 73.33 8.158 109.56 40.586 121.822c32.429 12.262 68.659-4.084 80.922-36.512 12.263-32.429-4.083-68.658-36.513-80.921C77.685 1.623 70.182.313 62.802.313 37.45.313 13.572 15.783 4.075 40.9"/>
        <path id="prefix__f" d="M4.542 2.072s5.473 23.965 6.13 29.015C11.547 37.785.498 42.843.498 42.843c1.592 4.93 20.932 1.315 22.149-3.341.633-2.42 1.127-5.132.049-7.327-1.297-2.643-2.286-5.414-2.873-8.279L15.069.7 4.542 2.072z"/>
        <path id="prefix__i" d="M3.935 2.072s5.244 23.965 5.876 29.015C10.648 37.785.059 42.843.059 42.843c1.526 4.93 20.06 1.315 21.226-3.341.606-2.42 1.079-5.132.046-7.327-1.243-2.643-2.19-5.414-2.753-8.279L14.024.7 3.935 2.072z"/>
        <path id="prefix__l" d="M4.589 5.036c-1.332 3.101 4.172.568 4.172.568s-14.564 9.58-4.406 8.844c10.252-.744 15.315-9.88 15.315-9.88L16.423.439S5.921 1.934 4.589 5.036"/>
        <path id="prefix__o" d="M3.481.956L.908 22.502c-.152 1.279-.317 2.755.39 3.79 4.362 6.394 11.388 4.628 15.427 2.403 1.303-.718 2.072-2.221 1.954-3.795L16.798.021 3.481.956z"/>
        <path id="prefix__r" d="M10.669 1.785s-.225.438-.62 1.215c-.793 1.591-1.327 5.192-3.846 8.251-.64.778-1.835.144-2.1.778-.709 1.693-.11 4.561-.773 6.373-2.977 8.143-4.976 16.74-1.415 19.234 4.602 3.235 11.826-.241 17.625-5.266 2.554-2.211 4.823-4.713 6.478-7.084.555-.783 1.03-1.551 1.43-2.282C31.303 15.918 28.939.893 16.37.894c-1.708 0-3.605.278-5.7.891"/>
        <path id="prefix__u" d="M.58 4.781C-.116 17.18 9.636 24.506 9.636 24.506l5.246-3.325s-.13-12.802-3.5-14.827c-3.369-2.024-1.285 4.926-1.285 4.926S5.085.613 2.32.614C1.415.614.75 1.754.58 4.78"/>
        <linearGradient id="prefix__b" x1="-29.605%" x2="95.852%" y1="101.121%" y2="17.391%">
            <stop offset="0%" stop-color="#FFB218"/>
            <stop offset="100%" stop-color="#FFCF44"/>
        </linearGradient>
        <linearGradient id="prefix__g" x1="33.884%" x2="61.051%" y1="54.062%" y2="47.164%">
            <stop offset="0%" stop-color="#FBB59E"/>
            <stop offset="100%" stop-color="#FFEBD1"/>
        </linearGradient>
        <linearGradient id="prefix__j" x1="35.199%" x2="60.149%" y1="54.062%" y2="47.164%">
            <stop offset="0%" stop-color="#FBB59E"/>
            <stop offset="100%" stop-color="#FFEBD1"/>
        </linearGradient>
        <linearGradient id="prefix__m" x1="80.74%" x2="8.102%" y1="83.99%" y2="18.055%">
            <stop offset="0%" stop-color="#FBB59E"/>
            <stop offset="100%" stop-color="#FFEBD1"/>
        </linearGradient>
        <linearGradient id="prefix__p" x1="22635.265%" x2="22635.954%" y1="4969.309%" y2="4969.459%">
            <stop offset="0%" stop-color="#FBB59E"/>
            <stop offset="100%" stop-color="#FFEBD1"/>
        </linearGradient>
        <linearGradient id="prefix__s" x1="80.559%" x2="19.065%" y1="77.378%" y2="30.337%">
            <stop offset="0%" stop-color="#FBB59E"/>
            <stop offset="100%" stop-color="#FFEBD1"/>
        </linearGradient>
        <linearGradient id="prefix__v" x1="22.812%" x2="76.592%" y1="75.068%" y2="15.763%">
            <stop offset="0%" stop-color="#FBB59E"/>
            <stop offset="100%" stop-color="#FFEBD1"/>
        </linearGradient>
    </defs>
    <g fill="none" fill-rule="evenodd">
        <g>
            <path fill="#FFF4DD" d="M400.655 130.705c-3.513-37.821-21.913-73.356-45.907-100.588C344.97 19.02 333.922 8.8 320.832 3.672c-13.091-5.126-28.576-4.44-39.702 4.896-8.29 6.955-13.327 17.78-20.798 25.837-15.462 16.673-39.214 19.244-60.296 15.325-21.082-3.92-41.143-13.292-62.23-17.179-21.085-3.888-44.843-1.24-60.245 15.505-17.946 19.511-19.037 51.585-14.682 79.303 1.476 9.388 3.41 19.23.718 28.267-4.056 13.613-16.871 20.627-27.191 29.001C10.642 205.531-3.58 243.26.926 278.757c4.953 39.019 30.782 71.834 61.812 89.789 31.03 17.954 66.713 22.874 101.567 23.086 14.855.092 29.74-.623 44.441-3.03 42.693-6.995 82.872-28.217 118.265-56.11 19.768-15.578 38.413-33.504 52.525-55.59 26.547-41.547 33.12-96.98 21.119-146.197" transform="translate(37 73) translate(45 14)"/>
            <path fill="#619440" d="M477.18 167.833c-.439-12.062 7.678-23.688 4.965-35.582-1.74-7.622-8.096-12.145-15.32-9.701-9.157 3.097-12.922 12.646-16.133 21.423-2.281 6.238-4.77 11.887-9.543 16.423-4.097 3.893-8.93 6.745-13.332 10.192-7.744 6.065-11.994 13.538-14.273 23.443-2.526 10.984-2.851 24.011-11.65 31.84-7.186 6.39-18.022 8.48-22.244 18.34-4.601 10.748 2.592 27.007-8.091 34.373-4.514 3.112-9.526 4.361-13.598 8.345-3.149 3.08-5.624 6.91-7.346 11.077-3.732 9.025-3.787 19.403.536 28 .186.37.454.604.751.735 3.243 9.073 7.188 18.391 14.587 24.239 6.55 5.177 15.459 7.253 22.984 2.793 12.807-7.593 14.435-26.21 23.61-37.243 3.268-3.929 7.19-6.023 12.075-6.36 5.347-.37 10.654 1.282 15.927-.522 7.712-2.642 11.914-10.571 13.886-18.516 2.987-12.045.032-25.34 5.34-36.815 4.757-10.286 15.127-15.831 20.269-25.874 9.853-19.244-2.685-40.909-3.4-60.61" transform="translate(37 73) translate(45 14)"/>
            <path fill="#496B32" d="M463.969 146.84c-1.88 14.49-8.658 27.728-14.902 40.742-6.159 12.838-12.34 25.666-18.714 38.4-12.64 25.254-26.05 50.187-41.535 73.836-8.64 13.194-17.931 25.967-28.048 38.076-1.034 1.236.744 3.029 1.786 1.78 18.212-21.795 33.748-45.66 47.715-70.34 14.164-25.027 26.766-50.89 39.21-76.798 7.028-14.632 14.897-29.392 17.014-45.697.208-1.603-2.32-1.587-2.526 0" transform="translate(37 73) translate(45 14)"/>
            <path fill="#496B32" d="M381.584 313.55c.046-13.66-.156-27.32-.608-40.974-.053-1.618-2.58-1.624-2.526 0 .452 13.654.654 27.313.608 40.974-.006 1.621 2.52 1.623 2.526 0M396.083 293.9c3.788-1.349 7.764-1.324 11.733-1.398 4.244-.08 8.486-.326 12.71-.74 4.185-.412 8.355-.98 12.495-1.708 3.882-.683 7.707-1.583 11.227-3.404 1.444-.748.168-2.922-1.274-2.177-3.537 1.831-7.455 2.611-11.351 3.276-4.163.713-8.353 1.257-12.56 1.63-4.042.359-8.094.552-12.15.619-3.883.062-7.804.156-11.502 1.472-1.52.541-.865 2.976.672 2.43M415.35 259.836c1.388-4.325 1.256-8.873 1.193-13.357-.067-4.814-.045-9.63.068-14.443.225-9.634.818-19.259 1.756-28.851.158-1.612-2.37-1.602-2.526 0-.922 9.427-1.51 18.884-1.745 28.354-.114 4.646-.144 9.296-.092 13.944.053 4.59.333 9.252-1.091 13.683-.497 1.548 1.941 2.21 2.436.67M431.925 227.67c13.737-1.325 27.082-5.164 39.466-11.228 1.46-.714.18-2.888-1.275-2.176-11.958 5.855-24.925 9.604-38.19 10.885-1.604.154-1.62 2.675 0 2.52M450.711 189.43c-2.44-8.59-3.193-17.533-2.319-26.415.159-1.612-2.368-1.601-2.526 0-.894 9.089-.087 18.295 2.41 27.083.442 1.558 2.88.896 2.435-.669" transform="translate(37 73) translate(45 14)"/>
            <path fill="#306B34" d="M428.23 219.484c-10.673-7.12-36.28 13.308-49.283 37.115l11.06-37.25c4.273-4.342 11.794-10.517 23.678-15.763 18.48-8.159 36.884-20.356 26.191-27.49-10.021-6.684-33.202 10.913-46.761 32.791l14.204-47.837c2.83-2.56 7.157-5.718 13.392-8.47 11.646-5.141 23.245-12.829 16.507-17.324-5.849-3.902-18.81 5.32-27.482 17.655l4.604-15.505c2.18-4.55 5.28-11.053 10.29-17.104 11.606-14.019 20.237-29.545 10.918-31.212-9.327-1.668-23.716 25.343-25.407 49.123l-2.369 7.978c1.513-17.312-4.847-37.82-12.885-38.115-7.986-.294-2.594 12.92 4.217 24.063 5.185 8.484 6.75 15.355 7.22 18.929l-11.19 37.684c2.323-27.42-7.747-59.778-20.464-60.245-12.674-.466-4.118 20.499 6.69 38.181 8.167 13.363 10.676 24.212 11.442 29.917l-13.419 45.19c1.82-27.071-8.094-59.256-20.584-58.673-9.63.448-6.251 14.91 5.854 34.917 8.226 13.6 11.095 26.059 12.09 32.648l-6.321 21.285c1.188.82 2.41 1.216 3.611 1.175l2.515-8.47c3.778-4.273 11.696-11.615 25.49-17.704 18.481-8.158 36.885-20.356 26.192-27.489" transform="translate(37 73) translate(45 14)"/>
        </g>
        <g transform="translate(37 73) translate(412 258)">
            <mask id="prefix__c" fill="#fff">
                <use xlink:href="#prefix__a"/>
            </mask>
            <path fill="url(#prefix__b)" d="M90.888 24.54c.396 10.226-1.53 17.065-2.825 20.435l-27.427 26.66C75.63 49.043 82.396 15.358 71.77 7.975c-10.588-7.357-13.24 15.583-12.413 36.9.624 16.11-2.385 26.928-4.438 32.314l-32.891 31.969c14.397-22.562 21.217-56.011 10.287-62.356-8.426-4.89-12.408 9.549-11.578 33.601.564 16.348-2.902 28.765-5.181 35.046L.065 130.507c.623 1.365 1.478 2.38 2.522 3.003l6.165-5.992c5.25-1.645 15.488-3.692 30.144-1.425 19.634 3.036 41.12 2.516 35.383-9.557-5.725-12.053-37.259-8.32-59.648 5.268L41.743 95.45c5.705-1.435 15.05-2.684 27.676-.73 19.634 3.038 41.12 2.517 35.384-9.557-5.375-11.316-33.499-8.715-55.445 2.886l34.817-33.841c3.628-.676 8.818-1.05 15.441-.026 12.374 1.915 25.916 1.586 22.302-6.024-3.138-6.602-18.57-5.685-31.82.293l11.286-10.97c4.02-2.764 9.75-6.722 16.893-9.24 13.592-4.791 25.954-11.567 25.98-17.47v-.038c-.007-1.273-.587-2.506-1.855-3.668C135.237.497 110.146 16.11 97.42 35.88l-5.808 5.644c9.507-14.238 13.813-35.575 7.1-40.24-.87-.604-1.656-.884-2.362-.884-4.711 0-5.915 12.456-5.462 24.14" mask="url(#prefix__c)"/>
        </g>
        <g>
            <path fill="#F7E8C8" d="M462.964 384.753c0 11.734-97.951 21.247-218.779 21.247s-218.778-9.513-218.778-21.247 97.95-21.246 218.778-21.246c120.828 0 218.779 9.512 218.779 21.246" transform="translate(37 73) translate(0 1)"/>
            <path fill="#FB8875" d="M84.758 382.072c1.33.234 2.6-.653 2.836-1.982l2.216-12.516c.235-1.33-.652-2.599-1.983-2.834-1.33-.235-2.6.651-2.836 1.982l-2.215 12.517c-.236 1.33.652 2.598 1.982 2.833" transform="translate(37 73) translate(0 1)"/>
            <path fill="#141623" d="M100.759 383.88c.02.736-.536 1.35-1.243 1.368l-17.154.46c-.905.023-1.606-.823-1.452-1.754l.16-3.26c.046-.93.77-1.667 1.662-1.69 0 0 .48 1.415 2.098 1.592 1.31.144 1.718-.995 1.845-1.812.06-.393.456-.64.832-.508l12.405 4.383c.496.186.833.671.847 1.22" transform="translate(37 73) translate(0 1)"/>
            <path fill="#FB8875" d="M3.869 382.072c1.33.234 2.6-.653 2.835-1.982l2.217-12.516c.235-1.33-.652-2.599-1.983-2.834-1.33-.235-2.6.651-2.836 1.982l-2.216 12.517c-.235 1.33.652 2.598 1.983 2.833" transform="translate(37 73) translate(0 1)"/>
            <path fill="#141623" d="M19.87 383.88c.02.736-.537 1.35-1.242 1.368l-17.154.46c-.905.023-1.607-.823-1.452-1.754l.159-3.26c.046-.93.769-1.667 1.661-1.69 0 0 .48 1.415 2.098 1.592 1.311.144 1.72-.995 1.846-1.812.06-.393.456-.64.832-.508l12.405 4.383c.495.186.832.671.847 1.22" transform="translate(37 73) translate(0 1)"/>
            <path fill="#726C62" d="M209.605 94.256c12.955 19.413-9.522 37.107-20.866 45.93-18.446 14.348-33.42 8.798-38.76.028 0 0 6.307-8.005 9.603-14.45 5.291-10.35 18.507-24.816 30.356-35.417 5.411-4.841 17.656.896 19.667 3.909" transform="translate(37 73) translate(0 1)"/>
            <path fill="#FCBD30" d="M82.356 22.079c-.695-3.529-1.457-11.407 1.088-14.005 4.354-4.447 25.796-11.685 20.518-4.923 0 0 13.01-.596 22.267 6.801.668.534.156 1.615-.685 1.458-4.347-.82-11.744-2.303-13.578-.307 0 0 5.577 1.25 9.174 3.722.732.503.31 1.666-.577 1.617-2.161-.117-5.191-.147-6.763.45-2.886 1.097-5.74 9.687-10.253 12.944-2.011 1.451-8.193 6.26-12.308 5.34-5.116-1.144-8.066-8.952-8.883-13.097" transform="translate(37 73) translate(0 1)"/>
            <path fill="#726C62" d="M42.22 131.35c-5.248 8.305-3.71 18.08-5.395 34.794-3.746 37.14 38.105 1.255 38.105 1.255l3.995 100.459 1.72 109.148 15.175-1.453s30.81-108.061 33.512-134.32c7.162-69.587-10.223-115.424-12.557-119.315-5.364 3.343-60.444 11.557-74.554 9.432" transform="translate(37 73) translate(0 1)"/>
            <path fill="#7F786A" d="M39.813 131.126c-1.579 15.45-17.672 32.52-20.177 54.385-4.251 37.085-17.09 188.379-17.09 188.379l15.648.424 58.094-178.241 9.627-67.39s-41.388 3.725-46.102 2.443" transform="translate(37 73) translate(0 1)"/>
            <path fill="#F5EFE4" d="M112.233 138.916s-18.52 3.6-39.709.001c-19.395-3.296-35.2-11.188-35.2-11.188l-.414-64.655c2.23-14.639 18.548-25.903 34.44-23.487l27.967 5.234c15.893 2.416 26.783 16.832 24.553 31.471l-11.637 62.624z" transform="translate(37 73) translate(0 1)"/>
            <path fill="#726C62" d="M168.535 143.821l7.133-27.297S142.848 72.25 134.68 61.52c-9.979-13.11-29.21-19.064-31.564-4.95 0 0 5.747 12.43 17.275 33.49 16.656 30.428 48.144 53.762 48.144 53.762" transform="translate(37 73) translate(0 1)"/>
            <path fill="#A29C8F" d="M85.85 42.171S74.047 144.44 47.033 178.252l-36.676-16.396s13.395-30.925 21.207-61.31c7.812-30.384 6.605-60.699 19.984-62.313 13.38-1.614 34.3 3.938 34.3 3.938" transform="translate(37 73) translate(0 1)"/>
            <path fill="#FFE2B7" d="M93.11 48.255c-2.623-.446-4.388-2.931-3.942-5.553l.952-5.592c.446-2.621 2.935-4.384 5.558-3.939 2.623.446 4.388 2.933 3.943 5.553l-.952 5.593c-.446 2.62-2.934 4.383-5.559 3.938" transform="translate(37 73) translate(0 1)"/>
            <path fill="#FFC581" d="M90.23 36.469c.384-2.267 2.825-3.743 5.448-3.298 2.623.447 4.438 2.645 4.052 4.911l-1.01 5.932c-.21 1.237-3.59-.123-5.96-2.516-1.552-1.565-2.75-3.745-2.75-3.745l.22-1.284z" transform="translate(37 73) translate(0 1)"/>
            <path fill="#FFE2B7" d="M87.736 22.363c.597-.077 1.217.64 1.66 1.77l.164-1.067c.684-4.438 4.84-7.482 9.283-6.798 4.443.684 7.49 4.835 6.806 9.273 0 0-.496 4.59-1.356 7.185-1.927 5.816-4.816 6.747-8.93 6.114-4.112-.633-7.022-4.239-6.89-8.293-.815-.262-1.611-1.853-1.87-3.86-.292-2.27.215-4.207 1.133-4.324" transform="translate(37 73) translate(0 1)"/>
            <path fill="#FFE2B7" d="M87.736 22.363c.597-.077 1.217.64 1.66 1.77l.164-1.067c.684-4.438 4.84-7.482 9.283-6.798 4.443.684.634 23.205-3.48 22.572-4.112-.633-7.022-4.239-6.89-8.293-.815-.262-1.611-1.853-1.87-3.86-.292-2.27.215-4.207 1.133-4.324" transform="translate(37 73) translate(0 1)"/>
            <path fill="#7F786A" d="M100.762 45.022s-14.735 93.465-.428 134.3l25.743-.658s-9.552-31.588-6.871-62.844c2.68-31.257 14.34-58.94 2.248-64.882-12.093-5.942-20.692-5.916-20.692-5.916" transform="translate(37 73) translate(0 1)"/>
            <path fill="#A29C8F" d="M88.948 52.198L85.707 42.274 89.664 39.369 93.488 46.364 93.111 48.255z" transform="translate(37 73) translate(0 1)"/>
            <path fill="#A29C8F" d="M96.244 53.956L101.024 45.224 99.291 41.617 93.126 46.414 93.04 47.902z" transform="translate(37 73) translate(0 1)"/>
            <path fill="#FCC23F" d="M238.586 194.547c-15.207 40.171-60.13 60.422-100.342 45.23-40.21-15.192-60.48-60.072-45.274-100.246 15.206-40.171 60.13-60.422 100.34-45.23 40.212 15.192 60.482 60.074 45.276 100.246" transform="translate(37 73) translate(0 1)"/>
        </g>
        <g transform="translate(37 73) translate(104 104)">
            <mask id="prefix__e" fill="#fff">
                <use xlink:href="#prefix__d"/>
            </mask>
            <path fill="#FFBF4D" d="M4.075 40.9C-8.19 73.33 8.158 109.56 40.586 121.822c32.429 12.262 68.659-4.084 80.922-36.512 12.263-32.429-4.083-68.658-36.513-80.921C77.685 1.623 70.182.313 62.802.313 37.45.313 13.572 15.783 4.075 40.9" mask="url(#prefix__e)"/>
        </g>
        <g>
            <path fill="#FFAF12" d="M179.758 143.613c2.03.492 4.172-1.142 4.78-3.647.607-2.506-.548-4.938-2.579-5.43l-22.071-5.346-14.714-3.565c-2.032-.492-4.173 1.142-4.78 3.648-.608 2.504.546 4.937 2.578 5.43l14.714 3.564c4.79 1.16 7.914 5.943 8.158 11.587l-25.073-6.074c-2.032-.492-4.172 1.142-4.78 3.647-.608 2.506.547 4.938 2.578 5.43l25.074 6.074c-2.802 4.906-7.77 7.729-12.561 6.568l-14.714-3.564c-.479-.116-.986-.114-1.49.004-1.01.246-1.944.95-2.59 1.978-.644 1.016-.947 2.268-.841 3.466.048.608.2 1.174.444 1.675l20.618 43.427c.505 1.065 1.339 1.738 2.281 1.966.942.228 1.991.011 2.926-.695 1.864-1.422 2.561-4.3 1.556-6.418l-16.226-34.175 5.835 1.414c8.888 2.152 18.204-3.856 22.42-13.79l4.054.981c2.03.492 4.172-1.142 4.78-3.648.607-2.505-.548-4.937-2.579-5.43l-4.053-.981c.267-3.51-.214-6.856-1.198-9.9l7.453 1.804z" transform="translate(37 73) translate(13)"/>
            <path fill="#FF881D" d="M96.428 144.408l2.294-5.643c.906-1.816 1.9-3.593 2.85-5.398 1.068-1.73 2.274-3.379 3.407-5.076 1.231-1.623 2.598-3.144 3.895-4.724 5.508-6.041 12.29-10.908 19.718-14.352 7.466-3.363 15.599-5.274 23.776-5.455 2.043.063 4.089.05 6.123.178 2.024.266 4.057.457 6.066.784 1.983.477 3.974.91 5.939 1.424l5.751 2.013c-7.68-2.622-15.8-3.854-23.848-3.478-8.04.367-16.015 2.235-23.31 5.622-7.337 3.295-13.98 8.077-19.545 13.891-5.575 5.814-10 12.723-13.116 20.214" transform="translate(37 73) translate(13)"/>
            <path fill="#FCD24F" d="M176.812 108.372c5.699 2.255 11.17 5.118 16.095 8.813 4.84 3.78 9.215 8.164 12.872 13.128 3.54 5.043 6.386 10.55 8.471 16.356 1.943 5.857 3.046 11.968 3.356 18.135.202 6.179-.592 12.349-2.087 18.343-.972 2.93-1.754 5.932-3.116 8.717l-.926 2.124c-.158.352-.298.714-.474 1.056l-.567 1.01-2.27 4.043c-3.351 5.193-7.322 9.991-11.963 14.093-4.71 4.014-9.941 7.388-15.548 10.023-5.685 2.46-11.679 4.145-17.807 5.02-6.15.764-12.375.564-18.489-.36l-4.534-.973-1.134-.244c-.374-.096-.737-.231-1.106-.345l-2.206-.712c-2.99-.822-5.76-2.222-8.601-3.432-5.486-2.847-10.642-6.331-15.143-10.574-4.42-4.313-8.273-9.183-11.383-14.515-2.976-5.404-5.222-11.182-6.665-17.171-1.303-6.026-1.696-12.205-1.33-18.333.488-6.136 1.96-12.13 4.04-17.892-1.987 5.797-3.358 11.798-3.745 17.91-.266 6.108.223 12.236 1.61 18.181 1.495 5.918 3.762 11.615 6.75 16.926 3.12 5.24 6.967 10.008 11.359 14.218 4.477 4.134 9.574 7.518 14.969 10.315 2.8 1.179 5.526 2.551 8.469 3.349l2.17.695c.364.11.721.242 1.088.335l1.116.236 4.458.943c6.009.89 12.123 1.067 18.158.302 6.012-.879 11.887-2.554 17.46-4.977 5.506-2.57 10.65-5.866 15.288-9.791 4.567-4.014 8.479-8.715 11.788-13.806l2.242-3.966.562-.99c.173-.337.31-.693.468-1.038l.916-2.086c1.35-2.734 2.123-5.685 3.091-8.564 1.471-5.893 2.307-11.952 2.168-18.042-.252-6.077-1.284-12.115-3.151-17.919-2.007-5.756-4.781-11.224-8.229-16.26-3.545-4.974-7.816-9.395-12.574-13.236-4.842-3.754-10.252-6.698-15.916-9.045" transform="translate(37 73) translate(13)"/>
            <path fill="#FB8875" d="M86.817 122.117l-1.965 2.434c-.495.614-.47 1.496.061 2.079.72.792 2 .667 2.553-.25l1.197-1.984-1.846-2.279z" transform="translate(37 73) translate(13)"/>
            <path fill="#FFE2B7" d="M93.302 123.78s1.223-2.47 1.061-3.329c-.123-.656-1.682-2.075-1.682-2.075s-3.96 2.13-5.213 3.093c-.868.668-1.442 1.458-1.133 2.595.206.753.974 1.207 1.732 1.018l5.235-1.302z" transform="translate(37 73) translate(13)"/>
            <path fill="#FFE2B7" d="M97.356 123.476c-.212.768-1.007 1.218-1.774 1.006l-3.511-.969.384-1.39 4.901 1.353z" transform="translate(37 73) translate(13)"/>
            <path fill="#FFE2B7" d="M98.417 121.847c-.139.784-.98 1.29-1.879 1.132l-4.109-.726.252-1.42 5.736 1.014z" transform="translate(37 73) translate(13)"/>
            <path fill="#FFE2B7" d="M98.918 120.66c-.139.784-.98 1.29-1.879 1.131l-4.108-.725.251-1.42 5.736 1.013z" transform="translate(37 73) translate(13)"/>
            <path fill="#FFE2B7" d="M97.58 118.848c-.063.794-.852 1.38-1.762 1.308l-4.158-.326 1.005-1.412 4.914.43z" transform="translate(37 73) translate(13)"/>
            <path fill="#FFE2B7" d="M93.01 117.022c.417.68.123 1.616-.656 2.092l-3.558 2.177-.695-.234 4.91-4.035z" transform="translate(37 73) translate(13)"/>
            <path fill="#A29C8F" d="M81.805 135.55c-14.197 12.232-52.647 3.923-65.095-3.267C-3.534 120.59-.765 97.521 5.363 89.277c0 0 17.26 15.025 24.479 15.654 11.59 1.01 41.855 7.497 54.414 10.551 2.98.724 5.87 4.107 5.194 7.095-.813 3.587-4.9 10.606-7.645 12.972" transform="translate(37 73) translate(13)"/>
            <path fill="#A29C8F" d="M12.676 115.52c-7.407.82-10.144-.352-11.38-5.917-2.972-13.38 10.41-39.426 15.469-51.928C22.948 42.4 34.264 36.285 51.39 39.209c0 0-5.765 19.472-13.331 42.265-3.209 9.669-5.508 28.77-5.508 28.77s-7.071 3.859-19.875 5.275" transform="translate(37 73) translate(13)"/>
            <path fill="#FFE2B7" d="M182.474 98.377c-.024.891 1.496 1.624 2.367 2.241.666.47 2.688.535 2.688.535s.823-.665.949-2.295c.087-1.132-4.569-4.632-4.988-3.977 0 0-.976 2.046-1.016 3.496" transform="translate(37 73) translate(13)"/>
            <path fill="#FFE2B7" d="M184.644 104.69c.763.319 1.68-.13 2.047-1.004l1.678-3.997-1.384-.58-2.341 5.58zM179.682 94.206c-.109.82.565 1.586 1.506 1.71l4.298.571s-.351-.772-.53-.979c-.953-1.116-5.274-1.302-5.274-1.302" transform="translate(37 73) translate(13)"/>
            <path fill="#FFE2B7" d="M181.477 104.136c.625.542 1.636.403 2.259-.314l2.844-3.27-1.774-.314-3.329 3.898z" transform="translate(37 73) translate(13)"/>
            <path fill="#FFE2B7" d="M179.739 103.34c.585.586 1.604.519 2.275-.151l3.07-3.063-1.747-.438-3.598 3.652zM179.337 101.386c.585.587 1.603.519 2.274-.151l3.07-3.063-1.746-.437-3.598 3.651zM74.07 32.371c-1.337-1.615-2.346-3.497-3.16-5.446-.84-1.937-1.402-4.033-1.703-6.125-.32-2.096-.52-4.215-.448-6.383.035-1.08.138-2.183.446-3.289.27-1.067.882-2.324 1.817-3.128 1.74-1.529 3.63-2.496 5.549-3.444 1.925-.916 3.885-1.733 5.898-2.425 2.018-.678 4.064-1.27 6.235-1.618C89.814.381 90.877.17 92.33.61c.368.148.86.416 1.14.968.146.286.215.568.198.815.014.28-.03.498-.094.672-.233.783-.612 1.216-.96 1.702l-.82-1.583c4.128-.018 8.087.74 11.934 1.936 3.831 1.209 7.44 3.193 10.382 5.849-1.679-1.06-3.361-2.073-5.182-2.807-1.808-.743-3.66-1.357-5.548-1.823-1.887-.467-3.806-.8-5.737-.994-1.92-.18-3.896-.264-5.759-.2-.545.017-1-.409-1.02-.954-.007-.22.06-.428.18-.598l.021-.033c.251-.358.523-.774.559-1.008.033-.072.03-.11.015-.094.018-.02 0 .019.022.07.057.075.058.069-.05.021-.56-.154-1.64-.082-2.576.076-1.949.335-3.921.922-5.847 1.595-3.81 1.345-7.79 2.967-10.837 5.276-1.267 1.013-1.652 3.078-1.879 5.039-.198 1.997-.144 4.06.033 6.104.36 4.059 1.45 8.12 3.564 11.733" transform="translate(37 73) translate(13)"/>
            <path fill="#7F786A" d="M381.269 385.712L449.363 385.712 449.363 223.533 381.269 223.533z" transform="translate(37 73) translate(13)"/>
            <path fill="#A29C8F" d="M320.742 385.712L381.269 385.712 381.269 223.533 320.742 223.533z" transform="translate(37 73) translate(13)"/>
            <path fill="#7F786A" d="M184.555 223.533L458.82 223.533 458.82 212.19 184.555 212.19z" transform="translate(37 73) translate(13)"/>
            <path fill="#A29C8F" d="M95.655 223.533L184.555 223.533 184.555 212.19 95.655 212.19z" transform="translate(37 73) translate(13)"/>
            <path fill="#7783BB" d="M108.498 238.657L118.674 238.657 122.136 223.533 111.506 223.533z" transform="translate(37 73) translate(13)"/>
            <path fill="#7F786A" d="M381.269 223.533L320.742 276.467 320.742 223.533z" transform="translate(37 73) translate(13)"/>
            <path fill="#57575E" d="M194.031 374.771L193.653 372.881 167.002 238.657 163.995 223.533 153.364 223.533 156.826 238.657 187.62 372.881 188.054 374.771 190.229 385.756 195.904 385.756zM111.506 223.533L108.498 238.657 81.848 372.881 81.469 374.771 79.1 385.712 84.775 385.712 87.446 374.771 87.881 372.881 118.674 238.657 122.136 223.533z" transform="translate(37 73) translate(13)"/>
            <path fill="#7F786A" d="M277.149 212.446h-66.757c-2.801 0-5.07-2.269-5.07-5.068h71.827v5.068zM277.149 212.446v-5.068h66.89c2.727 0 4.938 2.21 4.938 4.935v.133" transform="translate(37 73) translate(13)"/>
            <path fill="#A29C8F" d="M285.6 207.378h-78.88c-3.158 0-5.768-2.461-5.953-5.612l-2.513-42.992c-.227-3.873 2.855-7.138 6.737-7.138h70.983c3.574 0 6.528 2.786 6.738 6.35l2.887 49.392z" transform="translate(37 73) translate(13)"/>
            <path fill="#F5EFE4" d="M283.057 200.987c.127 2.093-1.57 3.857-3.71 3.857h-73.043c-1.338 0-2.443-1.009-2.522-2.3l-2.68-44.355c-.13-2.181 1.662-4.02 3.92-4.02h71.082c2.316 0 4.23 1.748 4.366 3.985l2.587 42.833z" transform="translate(37 73) translate(13)"/>
            <path fill="#A29C8F" d="M276.404 201.211h-65.5c-.66 0-1.228-.537-1.266-1.198l-2.36-41.111c-.038-.661.467-1.198 1.13-1.198h65.498c.662 0 1.23.537 1.268 1.198l2.36 41.11c.038.662-.468 1.199-1.13 1.199" transform="translate(37 73) translate(13)"/>
            <path fill="#FFF" d="M210.033 159.21c.021.376-.267.683-.645.683s-.703-.307-.724-.684c-.021-.378.268-.685.645-.685.378 0 .703.307.724.685M212.087 159.21c.02.376-.267.683-.646.683-.378 0-.702-.307-.723-.684-.022-.378.267-.685.645-.685s.702.307.724.685M214.14 159.21c.02.376-.267.683-.645.683-.379 0-.703-.307-.724-.684-.022-.378.267-.685.645-.685s.702.307.724.685" transform="translate(37 73) translate(13)"/>
            <path fill="#DDD6FF" d="M273.791 161.051L274.022 165.071 209.001 165.071 208.77 161.051z" transform="translate(37 73) translate(13)"/>
            <path fill="#FFF" d="M225.729 199.574L210.982 199.574 209 165.07 223.748 165.07zM268.849 188.76h-16.775c-.422 0-.783-.34-.808-.763l-.314-5.476c-.024-.421.298-.764.72-.764h16.775c.422 0 .783.343.807.764l.315 5.476c.024.422-.299.764-.72.764" transform="translate(37 73) translate(13)"/>
            <path fill="#CAE5FF" d="M267.455 186.045L253.156 186.045 253.14 185.76 267.439 185.76zM262.406 187.76L253.254 187.76 253.238 187.474 262.389 187.474z" transform="translate(37 73) translate(13)"/>
            <path fill="#EDBACB" d="M255.026 183.759c.033.552-.39 1-.943 1-.553 0-1.027-.448-1.058-1-.032-.553.39-1 .943-1 .553 0 1.027.447 1.058 1M259.19 184.045h-2.86c-.158 0-.293-.129-.303-.286-.009-.158.112-.286.27-.286h2.86c.158 0 .293.128.302.286.009.157-.111.286-.27.286" transform="translate(37 73) translate(13)"/>
            <path fill="#FFF" d="M268.406 181.043H251.63c-.421 0-.783-.342-.808-.763l-.313-5.477c-.024-.421.297-.763.72-.763h16.776c.421 0 .782.342.806.763l.315 5.477c.024.421-.298.763-.72.763" transform="translate(37 73) translate(13)"/>
            <path fill="#CAE5FF" d="M267.012 178.328L252.713 178.328 252.696 178.042 266.996 178.042zM261.963 180.042L252.811 180.042 252.795 179.757 261.947 179.757z" transform="translate(37 73) translate(13)"/>
            <path fill="#EDBACB" d="M254.584 176.041c.031.553-.392 1-.944 1-.553 0-1.027-.447-1.058-1-.033-.553.39-1 .943-1 .553 0 1.027.447 1.059 1M258.747 176.327h-2.86c-.158 0-.294-.128-.303-.286-.009-.157.111-.285.27-.285h2.86c.158 0 .293.128.303.285.008.158-.113.286-.27.286" transform="translate(37 73) translate(13)"/>
            <path fill="#FFF" d="M267.963 173.326h-16.775c-.422 0-.784-.342-.808-.764l-.315-5.475c-.024-.423.299-.764.72-.764h16.776c.423 0 .783.341.808.764l.314 5.475c.024.422-.298.764-.72.764" transform="translate(37 73) translate(13)"/>
            <path fill="#CAE5FF" d="M266.569 170.611L252.269 170.611 252.253 170.325 266.552 170.325zM266.618 171.468L252.319 171.468 252.303 171.182 266.602 171.182zM261.519 172.326L252.368 172.326 252.352 172.04 261.503 172.04z" transform="translate(37 73) translate(13)"/>
            <path fill="#EDBACB" d="M254.14 168.324c.033.553-.39 1-.943 1-.553 0-1.027-.447-1.058-1-.032-.552.39-1 .943-1 .553 0 1.027.448 1.058 1M258.304 168.61h-2.86c-.158 0-.293-.128-.303-.286-.009-.157.112-.285.27-.285h2.86c.158 0 .293.128.303.285.008.158-.112.285-.27.285" transform="translate(37 73) translate(13)"/>
            <path fill="#FFF" d="M248.872 168.52l1.028 17.906c.066 1.17-.793 2.127-1.944 2.193-.043.003-.085.005-.129.005h-17.915c-1.214 0-2.256-.983-2.325-2.198l-1.029-17.905c-.07-1.213.86-2.198 2.073-2.198h17.915c1.215 0 2.256.985 2.326 2.198" transform="translate(37 73) translate(13)"/>
            <path fill="#EDBACB" d="M235.483 181.752l-.075-.001c-.76-.04-1.46-.661-2.08-1.85-.544-1.041-1.115-1.58-1.697-1.6l-.036-.001c-.844 0-1.534 1.052-1.77 1.456-.05.087-.161.116-.254.066-.102-.055-.141-.18-.086-.275.269-.466 1.07-1.675 2.138-1.636.741.027 1.43.641 2.048 1.826.547 1.047 1.13 1.593 1.734 1.623 1.036.055 1.879-1.399 1.953-1.534.032-.082.2-.506.477-.937.425-.663.885-1.005 1.369-1.014.601-.01 1.177.497 1.713 1.51.485.918 1.01 1.403 1.557 1.438.97.065 1.766-1.272 1.773-1.284l.007-.01c1.266-1.88 1.981-3.097 2.635-4.49l.355.182c-.662 1.41-1.383 2.64-2.66 4.532-.066.112-.892 1.462-2.02 1.462l-.093-.003c-.7-.046-1.338-.604-1.898-1.661-.31-.588-.792-1.286-1.328-1.286h-.011c-.721.013-1.337 1.251-1.514 1.727l-.004.012-.006.012c-.038.072-.95 1.736-2.227 1.736" transform="translate(37 73) translate(13)"/>
            <path fill="#EDBACB" d="M247.599 175.007c.015.254-.18.46-.435.46-.254 0-.472-.206-.487-.46-.014-.255.18-.46.435-.46.254 0 .473.205.487.46M239.741 178.033c.015.255-.18.461-.434.461s-.473-.206-.488-.46c-.014-.255.181-.461.435-.461.255 0 .473.206.487.46M243.001 180.929c.016.253-.18.46-.433.46-.255 0-.474-.207-.488-.46-.015-.255.18-.461.434-.461.255 0 .473.206.487.46M235.86 181.52c.015.255-.18.461-.435.461-.253 0-.472-.206-.487-.46-.014-.255.18-.461.435-.461s.472.206.487.46M232.04 178.033c.014.255-.18.461-.436.461-.253 0-.472-.206-.487-.46-.014-.255.18-.461.435-.461s.472.206.487.46M230.308 168.194c.037.636-.448 1.151-1.085 1.151-.636 0-1.181-.515-1.218-1.151-.036-.637.45-1.152 1.086-1.152.636 0 1.181.515 1.217 1.152M214.134 212.228L229.036 212.228 229.036 191.376 214.134 191.376z" transform="translate(37 73) translate(13)"/>
            <path fill="#EDBACB" d="M228.835 195.344c-3.674 0-6.662 2.988-6.662 6.66s2.988 6.659 6.662 6.659 6.664-2.987 6.664-6.66c0-3.671-2.99-6.66-6.664-6.66m0 14.651c-4.409 0-7.996-3.585-7.996-7.99 0-4.408 3.587-7.992 7.996-7.992 4.41 0 7.996 3.584 7.996 7.992 0 4.405-3.587 7.99-7.996 7.99" transform="translate(37 73) translate(13)"/>
        </g>
        <g transform="translate(37 73) translate(292 337)">
            <mask id="prefix__h" fill="#fff">
                <use xlink:href="#prefix__f"/>
            </mask>
            <path fill="url(#prefix__g)" d="M4.542 2.072s5.473 23.965 6.13 29.015C11.547 37.785.498 42.843.498 42.843c1.592 4.93 20.932 1.315 22.149-3.341.633-2.42 1.127-5.132.049-7.327-1.297-2.643-2.286-5.414-2.873-8.279L15.069.7 4.542 2.072z" mask="url(#prefix__h)"/>
        </g>
        <g>
            <path fill="#7F786A" d="M13.933 164.914h37.644V151.01c0-.522-.432-.94-.954-.92l-12.423.473s-6.015 6.353-11.72 7.497c-4.981.998-9.948 1.124-11.894 4.932-.29.561-.508 1.196-.653 1.923" transform="translate(37 73) translate(264 220)"/>
            <path fill="#A29C8F" d="M13.933 164.914h37.644v-1.923H14.586c-.29.561-.508 1.196-.653 1.923" transform="translate(37 73) translate(264 220)"/>
            <path fill="#7F786A" d="M77.146.087l-71.02 17.28c-4.15 1.04-6.613 5.32-5.434 9.44l32.47 114.807 16.205-.772s-10.184-76.133-14.87-94.294c-.636-2.468 1.2-4.876 3.743-4.898l50.86-.439c15.27-1.461 23.453-17.516 25.856-41.124h-37.81z" transform="translate(37 73) translate(264 220)"/>
        </g>
        <g transform="translate(37 73) translate(271 337)">
            <mask id="prefix__k" fill="#fff">
                <use xlink:href="#prefix__i"/>
            </mask>
            <path fill="url(#prefix__j)" d="M3.935 2.072s5.244 23.965 5.876 29.015C10.648 37.785.059 42.843.059 42.843c1.526 4.93 20.06 1.315 21.226-3.341.606-2.42 1.079-5.132.046-7.327-1.243-2.643-2.19-5.414-2.753-8.279L14.024.7 3.935 2.072z" mask="url(#prefix__k)"/>
        </g>
        <g>
            <path fill="#7F786A" d="M12.57 164.914h37.845V151c0-.523-.435-.94-.96-.92l-12.489.473s-6.047 6.356-11.783 7.502c-5.007.998-10.001 1.124-11.957 4.935-.291.561-.51 1.196-.656 1.924" transform="translate(37 73) translate(243 221)"/>
            <path fill="#A29C8F" d="M12.57 164.914h37.845v-1.924h-37.19c-.29.561-.51 1.196-.655 1.924M135.947.057c-2.42 23.618-22.256 41.648-46.064 41.85l-51.13.44c-2.553.023-4.399 2.43-3.763 4.906 4.095 15.779 13.195 82.105 14.754 94.347.21 1.633-15.84 1.571-16.29 0L2.532 32.806l-.318-1.091-1.21-4.218c-1.187-4.124 1.295-8.403 5.46-9.448l2.685-.596 3.956-.882L84.453.7l51.494-.643z" transform="translate(37 73) translate(243 221)"/>
            <path fill="#7F786A" d="M10.957 22.816c0 4.851-3.903 8.798-8.744 8.9l-1.21-4.218c-1.187-4.125 1.296-8.404 5.462-9.45l2.684-.595c1.132 1.486 1.808 3.343 1.808 5.363" transform="translate(37 73) translate(243 221)"/>
        </g>
        <g transform="translate(37 73) translate(333 207)">
            <mask id="prefix__n" fill="#fff">
                <use xlink:href="#prefix__l"/>
            </mask>
            <path fill="url(#prefix__m)" d="M4.589 5.036c-1.332 3.101 4.172.568 4.172.568s-14.564 9.58-4.406 8.844c10.252-.744 15.315-9.88 15.315-9.88L16.423.439S5.921 1.934 4.589 5.036" mask="url(#prefix__n)"/>
        </g>
        <path fill="#FFAF12" d="M347.72 140.31c-.989 1.422-1.668 3.18-1.717 5.34-.071 3.049 1.222 5.976 3.364 8.173l29.291 30.073-31.6 23.895 5.427 6.209 40.46-26.192c2.072-1.342 3.247-3.697 3.03-6.132-.126-1.39-.497-2.717-1.152-3.604-6.466-8.743-20.633-31.086-32.162-39.887-4.683-3.575-11.59-2.692-14.942 2.126" transform="translate(37 73)"/>
        <g transform="translate(37 73) translate(317 118)">
            <mask id="prefix__q" fill="#fff">
                <use xlink:href="#prefix__o"/>
            </mask>
            <path fill="url(#prefix__p)" d="M3.481.956L.908 22.502c-.152 1.279-.317 2.755.39 3.79 4.362 6.394 11.388 4.628 15.427 2.403 1.303-.718 2.072-2.221 1.954-3.795L16.798.021 3.481.956z" mask="url(#prefix__q)"/>
        </g>
        <g transform="translate(37 73) translate(300 97)">
            <mask id="prefix__t" fill="#fff">
                <use xlink:href="#prefix__r"/>
            </mask>
            <path fill="url(#prefix__s)" d="M10.669 1.785s-.225.438-.62 1.215c-.793 1.591-1.327 5.192-3.846 8.251-.64.778-1.835.144-2.1.778-.709 1.693-.11 4.561-.773 6.373-2.977 8.143-4.976 16.74-1.415 19.234 4.602 3.235 11.826-.241 17.625-5.266 2.554-2.211 4.823-4.713 6.478-7.084.555-.783 1.03-1.551 1.43-2.282C31.303 15.918 28.939.893 16.37.894c-1.708 0-3.605.278-5.7.891" mask="url(#prefix__t)"/>
        </g>
        <g>
            <path fill="#57575E" d="M49.698 25.968c-4.682 10.73-16.012 21.46-20.337 10.855-.467-1.135-.853-2.515-1.141-4.172 0 0 3.703-7.425-1.48-7.425-5.185 0-4.075 7.796-4.075 10.023 0 1.106-.71 4.124-.185 7.369.145.901-.173 1.813-.883 2.385-5.66 4.546-12.343 7.42-16.706 4.354-3.614-2.532-1.585-11.256 1.437-19.52.525 2.48 2.882 2.894 5.933 2.894 5.925 0 10.774-9.733 10.774-9.733s-6.102-3.98-9.886-8.79c-2.111-2.68-3.118-5.545-2.703-8.288 1.851-12.25 8.94-.306 18.075 2.746 11.612 3.881 26.361 5.422 21.177 17.302" transform="translate(37 73) translate(297 85)"/>
            <path fill="#BC8877" d="M11.862 21.213c-.189.422-.551.667-.81.546-.257-.12-.313-.562-.124-.985.19-.423.552-.667.81-.545.258.12.314.56.124.984" transform="translate(37 73) translate(297 85)"/>
            <path fill="#FFAF12" d="M20.973 50.64s15.024-10.395 18.726-5.94c3.703 4.455 8.887 8.91 4.444 9.653-4.444.743-23.382 1.484-23.17-3.712" transform="translate(37 73) translate(297 85)"/>
            <path fill="#BF830E" d="M30.96 136.772h-4.473c-2.259 0-4.25-1.507-4.866-3.69L.343 58.095c-1.066-3.742 1.734-7.454 5.607-7.454h2.036c-1.643 1.455-2.465 3.786-1.791 6.132l21.737 76.605c.443 1.583 1.584 2.807 3.028 3.394" transform="translate(37 73) translate(297 85)"/>
            <path fill="#FFAF12" d="M78.566 136.772H30.96c-1.443-.587-2.584-1.811-3.029-3.394L6.195 56.773c-.675-2.346.147-4.677 1.792-6.132H57.18c1.489 0 2.798.99 3.205 2.427l22.226 78.336c.762 2.687-1.252 5.368-4.044 5.368" transform="translate(37 73) translate(297 85)"/>
            <g>
                <path fill="#D42531" d="M9.253 19.541c.314-.505.629-.959.959-1.401.693-.93 1.432-1.814 2.357-2.494.608-.447 1.245-.847 2-1.015 1.07-.238 2.034.09 2.87 1.02.142.159.273.331.435.47.22.19.457.31.725.247.2-.047.3-.2.288-.423-.015-.267-.101-.522-.233-.76-.702-1.273-1.705-1.996-3.037-2.143-1.065-.118-1.981.193-2.834.702-1.167.696-2.14 1.634-3.029 2.678-.799.936-1.511 1.948-2.097 3.064-.03.058-.063.097-.135.099-.57.011-1.14.026-1.707.041-.034-.04-.005-.064.008-.088.932-1.738 1.962-3.39 3.27-4.805 1.117-1.21 2.376-2.214 3.917-2.803 1.03-.392 2.112-.552 3.268-.32 1.478.294 2.601 1.21 3.451 2.564.742 1.179 1.194 2.452 1.46 3.781.075.373.13.748.182 1.123.015.115-.004.162-.122.162-.378 0-.755.013-1.131.027-.1.004-.132-.027-.148-.133-.066-.463-.146-.924-.31-1.375-.047-.132-.105-.26-.184-.377-.234-.347-.641-.35-.796-.002-.104.232-.093.494-.068.756.032.342.075.686.121 1.029.014.106-.012.14-.111.14-.362.004-.724.012-1.084.028-.11.004-.14-.028-.148-.146-.045-.635-.142-1.264-.457-1.861-.307-.579-.723-.996-1.349-1.088-.447-.065-.856.039-1.245.208-.738.323-1.343.833-1.895 1.416-.432.455-.807.964-1.142 1.508-.056.091-.122.124-.228.127-.595.01-1.188.027-1.82.044" transform="translate(37 73) translate(297 85) translate(28.916 70.848)"/>
                <path fill="#D42531" d="M24.097 18.12c.043.31.085.617.133.927.015.093-.016.118-.1.12-.392.005-.784.015-1.175.03-.1.003-.123-.04-.136-.132-.099-.69-.227-1.377-.39-2.062-.364-1.526-.888-2.996-1.843-4.308-1.27-1.748-2.892-2.706-4.849-2.907-1.412-.146-2.7.156-3.918.715-1.379.634-2.564 1.55-3.632 2.638-.434.443-.82.936-1.25 1.384-.186.193-.382.376-.604.523-.176.116-.368.185-.585.039-.154-.104-.22-.368-.172-.627.055-.307.22-.544.38-.782 1.352-1.998 3.05-3.562 5.166-4.606 1.092-.537 2.26-.868 3.522-.89 2.776-.05 5.104 1.201 7.018 3.595.833 1.039 1.367 2.22 1.772 3.458.31.95.523 1.914.663 2.885" transform="translate(37 73) translate(297 85) translate(28.916 70.848)"/>
                <path fill="#D42531" d="M6.006 10.616c.555-.961 1.213-1.819 1.985-2.569 1.257-1.217 2.707-2.108 4.426-2.516 2.9-.684 5.753-.203 8.51 1.73 1.812 1.266 3.164 2.968 4.185 4.957.66 1.29 1.125 2.63 1.44 4.013.16.7.274 1.401.357 2.105.047.394-.114.673-.418.754-.246.064-.456-.029-.612-.27-.12-.185-.172-.388-.2-.595-.232-1.635-.69-3.228-1.394-4.77-.7-1.533-1.597-2.935-2.783-4.143-1.381-1.409-2.979-2.244-4.768-2.584-1.203-.23-2.388-.272-3.549-.103-1.475.214-2.815.744-4.059 1.502-1.088.664-2.064 1.481-2.957 2.408-.07.073-.07.073-.163.08" transform="translate(37 73) translate(297 85) translate(28.916 70.848)"/>
                <path fill="#F5EFE4" d="M20.48 5.418c.22.08.441.15.658.238 4.66 1.924 7.931 5.32 9.78 10.21.365.964.602 1.954.756 2.954.02.129-.01.163-.129.165-.8.014-1.598.033-2.397.06-.128.004-.155-.044-.169-.163-.191-1.664-.601-3.295-1.257-4.888-1.188-2.886-3-5.3-5.42-7.246-.296-.237-.597-.466-.906-.678-.304-.21-.612-.415-.917-.622 0-.009 0-.019.002-.03M15.299 0c.296.458.705.737 1.093 1.041.625.49 1.184 1.041 1.576 1.762.125.23.223.467.31.71.049.133.037.174-.101.15-.507-.086-1.012-.133-1.518-.159-.993-.047-1.967.002-2.922.165l-.425.074c-.01-.48.087-.906.248-1.31.22-.55.569-.988.96-1.393.295-.304.617-.586.779-1.04M6.427 5.851c-.07-.519-.007-1.117.11-1.705.087-.443.218-.876.15-1.36-.007-.045-.003-.085.053-.055.562.309 1.153.299 1.732.435.829.194 1.593.553 2.244 1.225.111.113.097.143-.024.197-1.4.628-2.642 1.494-3.721 2.603-.09.092-.135.102-.194-.051-.063-.165-.134-.325-.183-.492-.068-.227-.122-.455-.167-.797M24.644 2.488c.057.484.274.886.478 1.293.337.674.611 1.361.68 2.096.03.33.018.653-.03.97-.02.132-.044.164-.172.064-1.03-.79-2.122-1.447-3.27-1.979-.392-.181-.787-.35-1.19-.491-.111-.04-.13-.072-.064-.167.444-.658 1.071-1.046 1.82-1.254.232-.064.47-.114.708-.162.36-.07.72-.138 1.04-.37M31.092 13.547c-.267-.525-.55-1.04-.861-1.541-.644-1.034-1.377-2-2.206-2.89-.096-.103-.101-.138.02-.186.776-.303 1.593-.247 2.44.013.446.136.88.338 1.333.425.13.025.256.02.404.03-.1.269-.146.546-.154.836-.014.467-.003.938-.07 1.392-.1.69-.334 1.304-.771 1.8-.03.033-.06.065-.092.096-.01.01-.024.014-.043.025M3.347 14.122c-.52-.39-.909-.898-1.22-1.478-.297-.56-.459-1.158-.635-1.753-.088-.3-.191-.592-.364-.857-.037-.056-.066-.103.026-.104.418-.003.765-.193 1.124-.353.574-.256 1.169-.449 1.829-.431.327.008.652.063.978.168.137.043.16.076.083.197-.575.926-1.028 1.93-1.376 3-.153.472-.282.955-.389 1.446-.012.055-.009.118-.056.165" transform="translate(37 73) translate(297 85) translate(28.916 70.848)"/>
                <path fill="#D62733" d="M13.864 23.052c.051.377.11.753.153 1.13.015.134.063.163.176.163.149 0 .295-.009.438-.033.485-.08.8-.427.844-.914.022-.242-.007-.49-.073-.732-.128-.48-.452-.787-.91-.885-.227-.05-.449-.03-.672-.016-.102.006-.133.042-.115.158.059.375.106.753.159 1.13m-.842.028c-.081-.586-.16-1.171-.245-1.756-.014-.102-.01-.156.1-.172.6-.088 1.2-.152 1.825-.039.943.17 1.552.86 1.65 1.865.106 1.091-.355 1.774-1.337 1.98-.51.107-1.037.1-1.566.074-.135-.006-.171-.06-.188-.197-.073-.584-.158-1.17-.24-1.755" transform="translate(37 73) translate(297 85) translate(28.916 70.848)"/>
                <path fill="#D42532" d="M20.356 22.887c.083.592.164 1.185.252 1.778.018.119-.001.164-.12.16-.185-.005-.37.002-.552.017-.108.01-.15-.019-.167-.147-.053-.44-.126-.88-.179-1.322-.015-.133-.06-.157-.175-.152-.38.018-.762.03-1.145.031-.118.001-.137.04-.119.16.07.447.124.894.192 1.34.018.11-.012.141-.11.14-.2 0-.398.005-.596.017-.087.005-.116-.025-.129-.117-.168-1.221-.338-2.442-.51-3.664-.014-.09.003-.126.092-.125.205 0 .41-.004.61-.017.103-.007.123.038.135.131.052.398.117.796.161 1.193.017.153.068.177.195.17.366-.018.731-.033 1.1-.029.149.001.165-.054.142-.194-.063-.392-.109-.785-.17-1.176-.017-.11.01-.14.109-.14.189.003.378 0 .564-.015.114-.009.151.027.168.15.078.604.167 1.207.252 1.81" transform="translate(37 73) translate(297 85) translate(28.916 70.848)"/>
                <path fill="#D62733" d="M30.147 21.851l.061.42c.006.039.002.099.063.097.266-.01.549.031.76-.158.14-.126.171-.301.117-.502-.054-.205-.188-.337-.383-.394-.213-.065-.417-.026-.623-.015-.074.005-.065.061-.057.116l.062.436m1.318.823c.297.131.456.37.574.644.147.343.288.688.438 1.028.05.11.016.128-.077.13-.205 0-.41.004-.61.018-.097.007-.143-.038-.185-.121-.125-.25-.219-.511-.32-.77-.03-.071-.059-.144-.094-.213-.163-.327-.524-.49-.824-.379-.073.027-.035.087-.03.133.057.411.113.821.179 1.23.018.117 0 .164-.12.161-.195-.005-.388.004-.58.016-.089.005-.117-.029-.13-.12-.17-1.193-.34-2.386-.513-3.577-.011-.08-.001-.118.077-.13.592-.092 1.188-.163 1.808-.03.93.2 1.132 1.224.769 1.687-.095.123-.218.209-.362.293M22.641 21.507c-.042.528-.1 1.01-.166 1.49-.012.091.042.082.095.081.199-.006.396-.015.595-.015.103 0 .13-.017.078-.137-.2-.456-.39-.915-.602-1.419m-.047-.65c.142-.002.286-.001.427-.011.084-.006.128.021.168.11.541 1.209 1.086 2.418 1.633 3.623.042.094.03.12-.065.121-.23 0-.46.004-.686.02-.093.006-.128-.038-.163-.118-.107-.252-.221-.502-.326-.754-.04-.098-.084-.14-.185-.133-.28.015-.56.023-.84.024-.101 0-.135.04-.145.144-.024.253-.067.502-.09.755-.011.096-.037.138-.134.137-.21 0-.42.004-.626.018-.117.01-.126-.031-.11-.136.191-1.224.38-2.447.564-3.671.014-.089.049-.12.135-.118.149.004.296-.006.443-.01M6.247 21.978c-.062.506-.12.998-.182 1.49-.009.079.034.08.084.079.213-.007.427-.015.64-.018.077-.001.092-.025.058-.107-.2-.476-.397-.953-.6-1.444m-.065-.68c.148-.005.295-.003.442-.016.088-.006.129.033.165.118.536 1.22 1.074 2.438 1.614 3.656.041.094.045.134-.066.133-.225-.002-.449.005-.671.02-.096.006-.138-.035-.175-.125-.105-.255-.218-.508-.323-.764-.037-.088-.075-.135-.173-.13-.289.017-.58.023-.87.027-.082 0-.112.033-.122.117-.03.273-.071.542-.1.815-.009.088-.041.115-.12.116-.22.002-.44.01-.658.02-.084.004-.105-.016-.09-.111.196-1.25.389-2.5.58-3.752.012-.078.04-.117.124-.115.148.003.295-.006.443-.01M26.647 21.402c-.044.52-.098 1-.166 1.48-.012.084.036.086.093.084.203-.007.407-.017.611-.015.113 0 .104-.042.063-.135-.197-.457-.39-.914-.601-1.414m-.047-.65c.148-.002.296-.003.443-.011.072-.004.11.023.143.096.546 1.212 1.092 2.42 1.643 3.628.048.103.018.116-.068.117-.23.002-.458.008-.686.019-.082.005-.12-.027-.154-.106-.111-.261-.23-.52-.34-.782-.036-.086-.08-.117-.167-.113-.283.015-.569.023-.854.024-.094 0-.13.034-.14.13-.026.264-.068.523-.094.787-.01.084-.039.115-.12.115-.22.002-.438.009-.656.019-.08.004-.109-.008-.094-.106.193-1.235.382-2.47.568-3.705.012-.078.048-.1.119-.1.153 0 .305-.006.457-.011M10.241 21.841c-.04.53-.098 1.011-.169 1.491-.012.084.023.103.096.1.203-.009.407-.016.612-.017.092 0 .109-.027.066-.126-.199-.465-.391-.935-.605-1.448m-.055-.652c.148-.003.297-.002.443-.014.089-.009.128.032.166.115.536 1.217 1.075 2.433 1.615 3.647.044.096.044.132-.066.131-.224 0-.449.006-.67.02-.099.007-.14-.038-.176-.127-.105-.255-.22-.506-.324-.761-.037-.093-.079-.132-.174-.127-.284.016-.57.024-.855.025-.097.001-.128.042-.137.136-.027.261-.069.519-.095.78-.009.09-.033.13-.124.13-.221 0-.44.009-.657.02-.088.004-.104-.02-.09-.11.196-1.247.388-2.494.579-3.74.012-.082.042-.117.123-.115.148.002.296-.006.442-.01" transform="translate(37 73) translate(297 85) translate(28.916 70.848)"/>
                <path fill="#F5EFE4" d="M35.972 18.874c-1.016.024-2.032.049-3.049.077-.104.003-.142-.023-.159-.14-.112-.796-.295-1.586-.534-2.368-.05-.168.016-.148.117-.128.635.122 1.214.415 1.751.832.375.29.7.636 1.026.982.26.275.525.545.848.745M0 19.76c.462-.34.685-.883 1.003-1.341.469-.676 1.049-1.193 1.843-1.411.029-.008.06-.011.087-.021.098-.039.122.003.119.108-.022.814.032 1.633.131 2.455.011.092.016.15-.1.152-1.013.023-2.025.05-3.038.076-.008.001-.018-.006-.045-.018" transform="translate(37 73) translate(297 85) translate(28.916 70.848)"/>
                <path fill="#D62733" d="M12.824 19.444c.516-.658 1.008-1.282 1.76-1.587.1-.04.208-.07.315-.087.52-.088.928.2 1.097.767.073.244.098.488.106.734.003.08-.029.098-.095.099-.31.007-.62.017-.93.025-.038.001-.077.015-.102-.047-.064-.148-.18-.153-.293-.13-.073.014-.153.031-.207.076-.148.124-.331.117-.513.122l-1.138.028" transform="translate(37 73) translate(297 85) translate(28.916 70.848)"/>
                <path fill="#D72532" d="M4.264 17.191c-.028-.22.02-.42.08-.615.073-.241.179-.462.306-.67.09-.147.204-.262.377-.292.361-.059.683.302.645.724-.008.085-.026.171-.059.244-.15.328-.34.628-.588.874-.043.042-.09.077-.14.108-.32.193-.57.041-.621-.373" transform="translate(37 73) translate(297 85) translate(28.916 70.848)"/>
            </g>
        </g>
        <g transform="translate(37 73) translate(251 114)">
            <mask id="prefix__w" fill="#fff">
                <use xlink:href="#prefix__u"/>
            </mask>
            <path fill="url(#prefix__v)" d="M.58 4.781C-.116 17.18 9.636 24.506 9.636 24.506l5.246-3.325s-.13-12.802-3.5-14.827c-3.369-2.024-1.285 4.926-1.285 4.926S5.085.613 2.32.614C1.415.614.75 1.754.58 4.78" mask="url(#prefix__w)"/>
        </g>
        <g>
            <path fill="#FFAF12" d="M59.854 8.197C57.134 1.343 47.712.71 44.189 7.186L28.646 35.738c-.045.083-.167.074-.199-.015L15.967.885c-.148-.414-.62-.608-1.017-.42L8.604 3.504c-.298.142-.466.461-.412.787.956 5.76 9.224 55 9.224 55 .923 5.853 8.47 7.628 11.893 2.8l29.67-38.1c3.156-4.247 3.162-10.026.875-15.794" transform="translate(37 73) translate(251 133)"/>
            <path fill="#57575E" d="M9.419 132.773L.407 251.82 5.323 251.82 15.974 132.773zM77.422 132.773L86.434 251.82 81.519 251.82 70.867 132.773zM151.16 132.773L160.172 251.82 155.257 251.82 144.606 132.773z" transform="translate(37 73) translate(251 133)"/>
            <path fill="#57575E" d="M169.931 58.596l-8.61 68.35c-.656 5.205-5.08 9.112-10.316 9.112H4.92c-2.04 0-3.694-1.659-3.694-3.703 0-2.037 1.646-3.694 3.678-3.702l65.063-.337c5.931-.033 10.937-4.417 11.764-10.305l8.547-60.557c.524-3.695 3.326-6.567 6.849-7.274.606-.131 1.237-.188 1.884-.172l64.676 1.338c3.81.082 6.72 3.456 6.244 7.25" transform="translate(37 73) translate(251 133)"/>
            <path fill="#7F786A" d="M169.931 58.596l-8.61 68.35c-.656 5.205-5.08 9.112-10.316 9.112H80.479c3.252-2.046 5.62-5.805 6.168-10.328l8.546-70.493c.663-4.154 3.171-5.245 3.818-5.23l64.676 1.34c3.81.081 6.72 3.455 6.244 7.249" transform="translate(37 73) translate(251 133)"/>
        </g>
    </g>
</svg>
