<svg xmlns="http://www.w3.org/2000/svg" xmlns:xlink="http://www.w3.org/1999/xlink" width="262" height="297" viewBox="0 0 262 297">
    <defs>
        <path id="prefix__a" d="M49.303 1.148c-1.856.808-2.861 2.81-3.566 4.708-1.266 3.419-2.045 7.018-2.309 10.652-.065.896-.103 1.818-.48 2.633-.375.816-1.187 1.505-2.082 1.433-.766-.063-1.404-.673-1.703-1.38-.301-.708-.321-1.5-.292-2.268.205-5.56 2.825-10.988 7.05-14.605-1.803-1.08-4.05-1.39-6.078-.837-2.027.552-3.808 1.96-4.814 3.807-1.496 2.748-1.223 6.08-.908 9.196l.735 7.273c.093.913.134 1.968-.533 2.598-.61.573-1.62.531-2.332.09-.71-.44-1.17-1.192-1.515-1.955-1.35-2.985-1.276-6.457-.452-9.627.825-3.17 2.352-6.106 3.868-9.01-8.211 3.146-13.686 6.17-19.735 12.553l-2.236 2.296c.156 4.735 2.896 9.306 7 11.67.815.47 1.81 1.088 1.715 2.023-.068.667-.74 1.149-1.41 1.209-.669.059-1.322-.207-1.92-.516-4.666-2.415-7.516-7.938-6.781-13.143C4.51 25.39.865 33.368.69 41.48c-.051 2.366.19 4.778 1.11 6.959.917 2.182 2.575 4.12 4.766 5.012 2.19.893 4.92.584 6.629-1.052.99-.95 1.58-2.246 2.525-3.24.945-.993 2.856-1.97 3.675-.872.41.55-.89 1.812-1.51 2.362-.23.208-.453.43-.646.672-1.96 2.463-2.234 4.938-1.54 8.13.73 3.37 3.83 8.368 6.133 10.933 2.35 2.617 7.121 4.116 9.755 4.3.601.041 1.184.062 1.747.063h.112c9.743-.02 13.85-5.798 13.85-5.798s-6.47-.493-10-5.186c-3.19-4.241-2.979-9.373-5.435-14.078-.371-.712-.752-1.455-.786-2.258-.034-.803.38-1.686 1.149-1.923.796-.246 1.66.292 2.086 1.008.424.718.525 1.572.662 2.395.806 4.859 3.252 9.43 6.847 12.794 2.437 2.28 5.554 4.058 8.89 4.06 2.556.003 5.023-1.04 7.12-2.499 2.1-1.46 3.875-3.326 5.637-5.178-8.258 1.59-17.263-1.591-22.693-8.015-1.014-1.2-1.957-2.65-1.606-4.262.23-1.054 1.12-1.903 2.195-1.822 1.082.08 1.637 1.03 2.16 1.867 3.626 5.79 10.167 9.644 16.987 10.01 1.913.102 3.936-.086 5.529-1.151 2.823-1.888 3.542-5.965 6.386-7.823-7.326 3.893-16.744 3.493-23.713-1.004-.79-.51-1.574-1.094-2.04-1.911-.465-.818-.54-1.925.053-2.656.723-.894 2.138-.893 3.165-.38 1.029.512 1.803 1.41 2.67 2.166 2.33 2.03 5.405 3.066 8.481 3.362 3.076.296 6.177-.1 9.22-.644 1.675-.3 3.524-.764 4.436-2.202.513-.808.635-1.797.744-2.748l1.435-12.484c-.543 1.82-6.158 5.952-10.001 6.689-2.193.42-6.676.183-8.809-.47-.729-.223-1.475-.453-2.094-.9-.618-.448-1.1-1.158-1.072-1.92.033-.827.662-1.54 1.407-1.896.746-.356 1.595-.421 2.42-.448 1.353-.042 2.708.002 4.062.046 2.17.07 4.335.141 6.482-.145 3.486-.462 7.088-2.107 8.674-5.248-2.741-5.195-4.08-11.119-3.84-16.986.07-1.75.244-3.64-.703-5.113l-.647 1.589c-1.053 1.728-3.4 2.597-5.297 1.848-1.438-.568-2.589-1.904-4.13-2.015-1.089-.077-2.14.506-2.886 1.304S59.207 6.518 58.728 7.5l-4.07 8.325c-.634 1.298-1.706 2.825-3.117 2.51-1.065-.239-1.597-1.437-1.797-2.511-.478-2.58.062-5.334 1.478-7.543 1.417-2.207 3.697-3.844 6.242-4.482-1.18-.938-2.38-1.884-3.768-2.472-.799-.34-1.676-.546-2.54-.546-.637 0-1.267.113-1.853.368M45.889 27.51c-.647-.427-.808-1.347-.579-2.088.23-.74.387-1.087.77-1.76.345-.604 1.495-2.067 1.495-2.067.39-.41.979-.68 1.525-.535.439.116.783.48.958.9.174.419.198.885.164 1.339-.101 1.352-.72 2.659-1.7 3.595-.354.336-.76.631-1.227.772-.179.055-.368.084-.556.084-.302 0-.6-.075-.85-.24M38.8 30.53c-.458-.047-.845-.393-1.05-.805-.205-.413-.257-.883-.275-1.344-.058-1.434.181-2.88.697-4.22.228-.59.584-1.222 1.199-1.366.431-.1.894.082 1.213.39.318.308.51.724.639 1.15.405 1.345.114 2.807-.53 4.055-.173.334-.584 1.383-.584 1.383-.258.423-.713.762-1.203.762-.035 0-.07-.002-.106-.005m15.3-3.825c-.397-.224-.571-.74-.475-1.185.098-.445.424-.815.812-1.053.389-.24.837-.361 1.282-.455.276-.058.562-.106.84-.058.28.048.553.21.664.47.12.278.026.612-.16.848l-.19.273c-.392.486-.906.872-1.48 1.113-.242.102-.51.177-.768.177-.184 0-.363-.037-.525-.13m-29.406 8.538c-1.945-1.716-2.817-4.56-2.168-7.072.26-1.008.96-2.098 2-2.087.558.007 1.07.349 1.415.787.347.437.553.965.756 1.486l1.136 2.148c.519.943 1.05 1.928 1.12 3.003.07 1.076-.463 2.273-1.486 2.61-.2.065-.403.096-.608.096-.779 0-1.562-.438-2.165-.97m6.365-3.268c-.497-.364-.775-.97-.856-1.58-.082-.611.013-1.232.141-1.834.08-.374.176-.754.388-1.07.21-.32.562-.57.944-.564.408.005.77.302.96.663l.234.383c.385.75.58 1.597.564 2.442-.01.604-.165 1.262-.65 1.623-.226.167-.501.244-.781.244-.333 0-.674-.11-.944-.307m15.868 5.142c-1.032-.392-2.204-.934-2.459-2.008-.15-.63.081-1.313.517-1.79.437-.479 1.054-.764 1.689-.886 1.18-.23 2.362.225 3.388.854 1.49.915 1.992 2.43 1.992 2.43.023 1.057-1.015 1.888-2.06 2.02-.146.02-.292.028-.437.028-.897 0-1.782-.326-2.63-.648m-9.702 5.247c-.879-.313-1.67-.975-1.953-1.864-.31-.977.085-2.135.929-2.718.844-.583 1.994-.44 2.87.093.568.346 2.426 1.098 2.426 1.098.733.48 1.243 1.424.942 2.248-.34.927-1.466 1.264-2.45 1.366-.324.032-.653.054-.98.054-.609 0-1.213-.073-1.784-.277m-21.637.469c-.816-.214-1.616-.551-2.255-1.104-.637-.553-1.1-1.341-1.139-2.184-.072-1.585 6.972-2.442 8.583-1.407.468.3.863.712 1.14 1.196l.038.068c.696 1.246.049 2.845-1.31 3.281-.903.29-1.854.437-2.802.437-.76 0-1.52-.095-2.255-.287m10.047 15.352c-.736-.546-1.235-1.36-1.592-2.205-1.034-2.45-.976-5.335.155-7.74.223-.477.503-.953.95-1.231.447-.277 1.056-.25 1.448.101.959.855 2.188 5.288 2.188 5.288.5 1.061 1.006 2.16 1.046 3.33.039 1.173-.513 2.447-1.598 2.89-.274.112-.564.164-.855.164-.616 0-1.24-.227-1.742-.597"/>
        <path id="prefix__c" d="M19.68.38c-4.66 3.03-8.876 6.631-12.601 10.715-2.437 2.366-4.724 4.89-6.835 7.578-.312.398.288.91.603.51.183-.237.38-.46.567-.693.121.027.253 0 .358-.124.409-.486.834-.958 1.253-1.433.121.029.252 0 .351-.135.425-.574.87-1.132 1.312-1.692 4.672-4.982 9.928-9.358 15.707-13.042.427-.272-.024-.919-.451-.647-.171.11-.339.224-.51.334-.052-.058-.115-.105-.19-.126.295-.2.587-.404.888-.598.352-.23.102-.714-.236-.714-.07 0-.143.02-.216.068"/>
        <path id="prefix__e" d="M4.876.376C2.61.376.746 2.166.704 4.399c-.02 1.097.397 2.137 1.175 2.925.772.784 1.81 1.227 2.924 1.248h.075c2.267 0 4.13-1.79 4.172-4.023.02-1.098-.396-2.136-1.173-2.925C7.103.84 6.065.397 4.953.376h-.077zm-.051 6.903c-.772-.013-1.492-.32-2.028-.863-.53-.539-.815-1.246-.8-1.993.027-1.53 1.314-2.755 2.88-2.755h.052c.772.015 1.492.32 2.027.864.531.539.815 1.246.802 1.993-.029 1.53-1.33 2.754-2.88 2.754h-.053z"/>
        <path id="prefix__h" d="M.083 5.527c-.054 2.933 2.262 5.351 5.172 5.405 2.909.054 5.31-2.28 5.362-5.212.054-2.932-2.262-5.352-5.17-5.406L5.35.313C2.484.313.134 2.627.083 5.527"/>
        <path id="prefix__k" d="M.937 2.935C.907 4.57 2.2 5.92 3.821 5.95c1.623.029 2.962-1.272 2.992-2.906C6.842 1.407 5.551.059 3.928.028L3.876.027C2.277.027.966 1.317.937 2.935"/>
        <path id="prefix__p" d="M0.736 0.449L30.086 0.449 30.086 26.372 0.736 26.372z"/>
        <path id="prefix__r" d="M0.052 0.449L30.154 0.449 30.154 26.372 0.052 26.372z"/>
        <linearGradient id="prefix__f" x1=".002%" x2="99.996%" y1="50.001%" y2="50.001%">
            <stop offset="0%" stop-color="#FFB218"/>
            <stop offset="100%" stop-color="#FFCF44"/>
        </linearGradient>
        <linearGradient id="prefix__i" x1="-.002%" x2="100.005%" y1="50.005%" y2="50.005%">
            <stop offset="0%" stop-color="#FFB218"/>
            <stop offset="100%" stop-color="#FFCF44"/>
        </linearGradient>
        <linearGradient id="prefix__l" x1="-.003%" x2="99.998%" y1="50.005%" y2="50.005%">
            <stop offset="0%" stop-color="#FFB218"/>
            <stop offset="100%" stop-color="#FFCF44"/>
        </linearGradient>
        <linearGradient id="prefix__n" x1="-.009%" x2="99.996%" y1="49.998%" y2="49.998%">
            <stop offset="0%" stop-color="#FFB218"/>
            <stop offset="100%" stop-color="#FFCF44"/>
        </linearGradient>
        <linearGradient id="prefix__o" x1="-.006%" x2="99.995%" y1="49.998%" y2="49.998%">
            <stop offset="0%" stop-color="#FFB218"/>
            <stop offset="100%" stop-color="#FFCF44"/>
        </linearGradient>
    </defs>
    <g fill="none" fill-rule="evenodd">
        <g>
            <g>
                <path fill="#619440" d="M1.093 66.559c.588-2.604 2.107-11.283 4.611-12.206 2.732-1.006 6.11.286 7.474 2.857.589 1.11.849 2.424 1.98 3.17.63.416 1.498.422 2.019-.126.85-.896.043-2.26-.649-3.243-1.327-1.884-2.272-4.107-2.282-6.412-.01-2.305 1.027-4.679 2.964-5.927 1.937-1.246 4.771-1.103 6.333.59.978 1.058 1.39 2.558 2.667 3.386.664.43 1.534.517 2.176.056 1.296-.933.421-2.936-.457-4.262-1.24-1.872-2.332-3.91-2.657-6.133-.327-2.223.219-4.67 1.85-6.213 1.633-1.544 4.44-1.87 6.127-.387.676.595 1.125 1.404 1.756 2.047.755.77 1.976 1.304 2.9.485.642-.567.748-1.516.43-2.31-.44-1.102-1.329-1.768-2.21-2.445-1.391-1.069-2.352-2.638-2.556-4.38-.613-5.206 5.145-7.211 8.391-4.926.912.64 1.823 1.621 2.936 1.307.88-.249 1.362-1.173 1.265-2.082-.19-1.795-1.675-2.835-2.464-4.294-1.442-2.669.178-6.483 3.099-7.296 2.234-.622 2.814 2.273 3.825 4.806.233.582 1.089.459 1.155-.165.26-2.48 1.08-5.578 1.708-7.288 1.153-3.135 5.842-6.574 8.081-2.064.6 1.21.145 4.323-.63 5.184-1.093 1.218-3.697 5.405-3.697 5.405-.244.48.299.98.75.688 1.028-.66 2.13-1.179 3.396-1.293.58-.053 1.172.005 1.722.194 3.278 1.13 2.769 5.167.675 7.1-1.74 1.608-4.176 2.16-6.48 2.708-1.195.285-2.487.647-3.08 1.81-.336.658-.257 1.496.307 1.975.652.552 1.396.244 2.113.153 2.344-.3 4.474 2.036 4.453 4.401-.022 2.364-1.754 4.467-3.877 5.507-2.123 1.039-4.573 1.183-6.934 1.062-1.164-.06-2.418-.159-3.338.704-.544.509-.705 1.364-.25 1.953.648.838 1.858.462 2.87.406 2.81-.156 5.043 2.974 4.6 5.754-.443 2.78-2.893 4.916-5.58 5.758-3.026.949-6.316.546-9.425.11-.73-.103-1.482.292-1.708.994-.314.977.576 1.534 1.27 2.038 2.686 1.949 3.735 5.857 2.387 8.888-1.347 3.032-4.95 4.871-8.194 4.181-2.062-.437-3.94-1.765-6.175-1.092-1.106.333-1.902 1.391-1.69 2.527.267 1.434 1.873 1.842 3.076 2.514 3.334 1.862 3.894 6.896 1.703 10.025-2.191 3.13-9.227 3.227-13.039 2.986-3.81-.242-11.765-.576-15.835-3.17-1.918-1.22-.45-13.412.138-16.015" transform="translate(128.51 162.453) translate(0 3.61)"/>
                <path fill="#306B34" d="M61.565 3.104c.601 1.21.145 4.323-.63 5.184-1.093 1.218-3.697 5.405-3.697 5.405-.244.478.299.98.751.688 1.027-.66 2.128-1.179 3.395-1.293.579-.053 1.173.004 1.722.194 3.277 1.13 2.769 5.167.675 7.1-1.74 1.608-4.176 2.16-6.48 2.708-1.195.285-2.487.647-3.08 1.81-.336.658-.257 1.496.307 1.975.652.552 1.396.244 2.113.153 2.344-.3 4.474 2.036 4.452 4.401-.022 2.364-1.753 4.467-3.876 5.507-2.124 1.039-4.573 1.183-6.934 1.062-1.164-.06-2.418-.159-3.338.704-.544.509-.705 1.364-.25 1.953.649.838 1.857.462 2.87.406 2.81-.156 5.043 2.974 4.6 5.754-.444 2.78-2.893 4.916-5.58 5.758-3.026.949-6.317.546-9.425.11-.731-.103-1.483.292-1.709.994-.313.977.577 1.534 1.272 2.038 2.685 1.949 3.734 5.857 2.386 8.888-1.346 3.032-4.95 4.871-8.194 4.181-2.062-.437-3.94-1.765-6.175-1.092-1.106.333-1.902 1.391-1.69 2.527.267 1.434 1.874 1.842 3.076 2.514 3.334 1.862 6.756 8.992 4.565 12.12-2.192 3.13-12.09 1.132-15.9.891-3.557-.226-10.72-.531-14.97-2.678-.304-.154-.866-.491-.866-.491S22 64.278 40.204 40.023C50.315 26.55 59.304 1.02 59.304 1.02s.357.078.768.37c.707.5 1.375 1.478 1.493 1.715" transform="translate(128.51 162.453) translate(0 3.61)"/>
            </g>
            <g transform="translate(128.51 162.453) translate(11.954 53.443)">
                <mask id="prefix__b" fill="#fff">
                    <use xlink:href="#prefix__a"/>
                </mask>
                <path fill="#FBBF00" d="M49.303 1.148c-1.856.808-2.861 2.81-3.566 4.708-1.266 3.419-2.045 7.018-2.309 10.652-.065.896-.103 1.818-.48 2.633-.375.816-1.187 1.505-2.082 1.433-.766-.063-1.404-.673-1.703-1.38-.301-.708-.321-1.5-.292-2.268.205-5.56 2.825-10.988 7.05-14.605-1.803-1.08-4.05-1.39-6.078-.837-2.027.552-3.808 1.96-4.814 3.807-1.496 2.748-1.223 6.08-.908 9.196l.735 7.273c.093.913.134 1.968-.533 2.598-.61.573-1.62.531-2.332.09-.71-.44-1.17-1.192-1.515-1.955-1.35-2.985-1.276-6.457-.452-9.627.825-3.17 2.352-6.106 3.868-9.01-8.211 3.146-13.686 6.17-19.735 12.553l-2.236 2.296c.156 4.735 2.896 9.306 7 11.67.815.47 1.81 1.088 1.715 2.023-.068.667-.74 1.149-1.41 1.209-.669.059-1.322-.207-1.92-.516-4.666-2.415-7.516-7.938-6.781-13.143C4.51 25.39.865 33.368.69 41.48c-.051 2.366.19 4.778 1.11 6.959.917 2.182 2.575 4.12 4.766 5.012 2.19.893 4.92.584 6.629-1.052.99-.95 1.58-2.246 2.525-3.24.945-.993 2.856-1.97 3.675-.872.41.55-.89 1.812-1.51 2.362-.23.208-.453.43-.646.672-1.96 2.463-2.234 4.938-1.54 8.13.73 3.37 3.83 8.368 6.133 10.933 2.35 2.617 7.121 4.116 9.755 4.3.601.041 1.184.062 1.747.063h.112c9.743-.02 13.85-5.798 13.85-5.798s-6.47-.493-10-5.186c-3.19-4.241-2.979-9.373-5.435-14.078-.371-.712-.752-1.455-.786-2.258-.034-.803.38-1.686 1.149-1.923.796-.246 1.66.292 2.086 1.008.424.718.525 1.572.662 2.395.806 4.859 3.252 9.43 6.847 12.794 2.437 2.28 5.554 4.058 8.89 4.06 2.556.003 5.023-1.04 7.12-2.499 2.1-1.46 3.875-3.326 5.637-5.178-8.258 1.59-17.263-1.591-22.693-8.015-1.014-1.2-1.957-2.65-1.606-4.262.23-1.054 1.12-1.903 2.195-1.822 1.082.08 1.637 1.03 2.16 1.867 3.626 5.79 10.167 9.644 16.987 10.01 1.913.102 3.936-.086 5.529-1.151 2.823-1.888 3.542-5.965 6.386-7.823-7.326 3.893-16.744 3.493-23.713-1.004-.79-.51-1.574-1.094-2.04-1.911-.465-.818-.54-1.925.053-2.656.723-.894 2.138-.893 3.165-.38 1.029.512 1.803 1.41 2.67 2.166 2.33 2.03 5.405 3.066 8.481 3.362 3.076.296 6.177-.1 9.22-.644 1.675-.3 3.524-.764 4.436-2.202.513-.808.635-1.797.744-2.748l1.435-12.484c-.543 1.82-6.158 5.952-10.001 6.689-2.193.42-6.676.183-8.809-.47-.729-.223-1.475-.453-2.094-.9-.618-.448-1.1-1.158-1.072-1.92.033-.827.662-1.54 1.407-1.896.746-.356 1.595-.421 2.42-.448 1.353-.042 2.708.002 4.062.046 2.17.07 4.335.141 6.482-.145 3.486-.462 7.088-2.107 8.674-5.248-2.741-5.195-4.08-11.119-3.84-16.986.07-1.75.244-3.64-.703-5.113l-.647 1.589c-1.053 1.728-3.4 2.597-5.297 1.848-1.438-.568-2.589-1.904-4.13-2.015-1.089-.077-2.14.506-2.886 1.304S59.207 6.518 58.728 7.5l-4.07 8.325c-.634 1.298-1.706 2.825-3.117 2.51-1.065-.239-1.597-1.437-1.797-2.511-.478-2.58.062-5.334 1.478-7.543 1.417-2.207 3.697-3.844 6.242-4.482-1.18-.938-2.38-1.884-3.768-2.472-.799-.34-1.676-.546-2.54-.546-.637 0-1.267.113-1.853.368M45.889 27.51c-.647-.427-.808-1.347-.579-2.088.23-.74.387-1.087.77-1.76.345-.604 1.495-2.067 1.495-2.067.39-.41.979-.68 1.525-.535.439.116.783.48.958.9.174.419.198.885.164 1.339-.101 1.352-.72 2.659-1.7 3.595-.354.336-.76.631-1.227.772-.179.055-.368.084-.556.084-.302 0-.6-.075-.85-.24M38.8 30.53c-.458-.047-.845-.393-1.05-.805-.205-.413-.257-.883-.275-1.344-.058-1.434.181-2.88.697-4.22.228-.59.584-1.222 1.199-1.366.431-.1.894.082 1.213.39.318.308.51.724.639 1.15.405 1.345.114 2.807-.53 4.055-.173.334-.584 1.383-.584 1.383-.258.423-.713.762-1.203.762-.035 0-.07-.002-.106-.005m15.3-3.825c-.397-.224-.571-.74-.475-1.185.098-.445.424-.815.812-1.053.389-.24.837-.361 1.282-.455.276-.058.562-.106.84-.058.28.048.553.21.664.47.12.278.026.612-.16.848l-.19.273c-.392.486-.906.872-1.48 1.113-.242.102-.51.177-.768.177-.184 0-.363-.037-.525-.13m-29.406 8.538c-1.945-1.716-2.817-4.56-2.168-7.072.26-1.008.96-2.098 2-2.087.558.007 1.07.349 1.415.787.347.437.553.965.756 1.486l1.136 2.148c.519.943 1.05 1.928 1.12 3.003.07 1.076-.463 2.273-1.486 2.61-.2.065-.403.096-.608.096-.779 0-1.562-.438-2.165-.97m6.365-3.268c-.497-.364-.775-.97-.856-1.58-.082-.611.013-1.232.141-1.834.08-.374.176-.754.388-1.07.21-.32.562-.57.944-.564.408.005.77.302.96.663l.234.383c.385.75.58 1.597.564 2.442-.01.604-.165 1.262-.65 1.623-.226.167-.501.244-.781.244-.333 0-.674-.11-.944-.307m15.868 5.142c-1.032-.392-2.204-.934-2.459-2.008-.15-.63.081-1.313.517-1.79.437-.479 1.054-.764 1.689-.886 1.18-.23 2.362.225 3.388.854 1.49.915 1.992 2.43 1.992 2.43.023 1.057-1.015 1.888-2.06 2.02-.146.02-.292.028-.437.028-.897 0-1.782-.326-2.63-.648m-9.702 5.247c-.879-.313-1.67-.975-1.953-1.864-.31-.977.085-2.135.929-2.718.844-.583 1.994-.44 2.87.093.568.346 2.426 1.098 2.426 1.098.733.48 1.243 1.424.942 2.248-.34.927-1.466 1.264-2.45 1.366-.324.032-.653.054-.98.054-.609 0-1.213-.073-1.784-.277m-21.637.469c-.816-.214-1.616-.551-2.255-1.104-.637-.553-1.1-1.341-1.139-2.184-.072-1.585 6.972-2.442 8.583-1.407.468.3.863.712 1.14 1.196l.038.068c.696 1.246.049 2.845-1.31 3.281-.903.29-1.854.437-2.802.437-.76 0-1.52-.095-2.255-.287m10.047 15.352c-.736-.546-1.235-1.36-1.592-2.205-1.034-2.45-.976-5.335.155-7.74.223-.477.503-.953.95-1.231.447-.277 1.056-.25 1.448.101.959.855 2.188 5.288 2.188 5.288.5 1.061 1.006 2.16 1.046 3.33.039 1.173-.513 2.447-1.598 2.89-.274.112-.564.164-.855.164-.616 0-1.24-.227-1.742-.597" mask="url(#prefix__b)"/>
            </g>
            <g transform="translate(128.51 162.453) translate(14.943 98.292)">
                <mask id="prefix__d" fill="#fff">
                    <use xlink:href="#prefix__c"/>
                </mask>
                <path fill="#FFDE8E" d="M19.68.38c-4.66 3.03-8.876 6.631-12.601 10.715-2.437 2.366-4.724 4.89-6.835 7.578-.312.398.288.91.603.51.183-.237.38-.46.567-.693.121.027.253 0 .358-.124.409-.486.834-.958 1.253-1.433.121.029.252 0 .351-.135.425-.574.87-1.132 1.312-1.692 4.672-4.982 9.928-9.358 15.707-13.042.427-.272-.024-.919-.451-.647-.171.11-.339.224-.51.334-.052-.058-.115-.105-.19-.126.295-.2.587-.404.888-.598.352-.23.102-.714-.236-.714-.07 0-.143.02-.216.068" mask="url(#prefix__d)"/>
            </g>
            <path fill="#306B34" d="M64.399 44.658l-.042-.034c-1.574-1.233-3.842-.97-5.059.582-.587.752-.845 1.69-.724 2.642.123.955.596 1.805 1.373 2.408 1.573 1.232 3.842.97 5.057-.583.59-.751.846-1.69.725-2.641-.12-.939-.591-1.78-1.33-2.374m-5.403 6.693c-1.032-.832-1.691-2.008-1.857-3.32-.17-1.339.19-2.66 1.02-3.718 1.707-2.182 4.888-2.553 7.09-.83 1.067.828 1.745 2.03 1.916 3.366.17 1.34-.192 2.66-1.02 3.717-1.707 2.182-4.888 2.554-7.09.831l-.059-.046" transform="translate(128.51 162.453)"/>
            <g transform="translate(128.51 162.453) translate(42.837 .62)">
                <mask id="prefix__g" fill="#fff">
                    <use xlink:href="#prefix__e"/>
                </mask>
                <path fill="url(#prefix__f)" d="M4.876.376C2.61.376.746 2.166.704 4.399c-.02 1.097.397 2.137 1.175 2.925.772.784 1.81 1.227 2.924 1.248h.075c2.267 0 4.13-1.79 4.172-4.023.02-1.098-.396-2.136-1.173-2.925C7.103.84 6.065.397 4.953.376h-.077zm-.051 6.903c-.772-.013-1.492-.32-2.028-.863-.53-.539-.815-1.246-.8-1.993.027-1.53 1.314-2.755 2.88-2.755h.052c.772.015 1.492.32 2.027.864.531.539.815 1.246.802 1.993-.029 1.53-1.33 2.754-2.88 2.754h-.053z" mask="url(#prefix__g)"/>
            </g>
            <g transform="translate(128.51 162.453) translate(29.886 9.59)">
                <mask id="prefix__j" fill="#fff">
                    <use xlink:href="#prefix__h"/>
                </mask>
                <path fill="url(#prefix__i)" d="M.083 5.527c-.054 2.933 2.262 5.351 5.172 5.405 2.909.054 5.31-2.28 5.362-5.212.054-2.932-2.262-5.352-5.17-5.406L5.35.313C2.484.313.134 2.627.083 5.527" mask="url(#prefix__j)"/>
            </g>
            <g transform="translate(128.51 162.453) translate(65.749 38.493)">
                <mask id="prefix__m" fill="#fff">
                    <use xlink:href="#prefix__k"/>
                </mask>
                <path fill="url(#prefix__l)" d="M.937 2.935C.907 4.57 2.2 5.92 3.821 5.95c1.623.029 2.962-1.272 2.992-2.906C6.842 1.407 5.551.059 3.928.028L3.876.027C2.277.027.966 1.317.937 2.935" mask="url(#prefix__m)"/>
            </g>
        </g>
        <path fill="#306B34" d="M259.585 245.64c0 3.475-2.816 6.292-6.29 6.292s-6.29-2.817-6.29-6.292c0-3.475 2.816-6.293 6.29-6.293s6.29 2.818 6.29 6.293"/>
        <path fill="url(#prefix__n)" d="M234.93 237.511c0 2.294 1.857 4.153 4.15 4.153s4.152-1.86 4.152-4.153c0-2.294-1.86-4.154-4.153-4.154-2.292 0-4.15 1.86-4.15 4.154"/>
        <path fill="url(#prefix__o)" d="M246.238 229.632c0 1.604 1.301 2.907 2.906 2.907 1.605 0 2.906-1.303 2.906-2.907 0-1.607-1.301-2.908-2.906-2.908-1.605 0-2.906 1.301-2.906 2.908"/>
        <g>
            <path fill="#F7E8C8" d="M0 261.31c0-3.5 55.615-6.337 124.22-6.337 68.604 0 124.219 2.836 124.219 6.337 0 3.5-55.615 6.337-124.219 6.337C55.615 267.647 0 264.811 0 261.31" transform="translate(6.973 28.903)"/>
            <path fill="#FB8875" d="M112.802 257.516c1.047-.167 1.76-1.152 1.593-2.2l-1.578-9.865c-.167-1.048-1.151-1.762-2.198-1.594-1.048.168-1.76 1.153-1.593 2.201l1.577 9.865c.167 1.048 1.152 1.762 2.2 1.593" transform="translate(6.973 28.903)"/>
            <path fill="#7F786A" d="M100.267 259.866c.012.53.463.948 1.006.934l13.203-.31c.695-.017 1.203-.649 1.05-1.31l-.246-2.332c-.07-.666-.653-1.166-1.34-1.151 0 0-.315 1.033-1.552 1.22-1.003.151-1.36-.649-1.487-1.229-.062-.281-.374-.444-.658-.333l-9.37 3.604c-.375.151-.615.512-.606.907" transform="translate(6.973 28.903)"/>
            <path fill="#FB8875" d="M127.816 257.638c-1.06.044-1.954-.78-1.998-1.84l-.414-9.982c-.044-1.06.779-1.955 1.839-2 1.06-.043 1.953.78 1.998 1.84l.414 9.983c.044 1.06-.78 1.955-1.839 2" transform="translate(6.973 28.903)"/>
            <path fill="#7F786A" d="M139.827 259.974c-.012.528-.464.947-1.007.934l-13.201-.31c-.697-.017-1.205-.65-1.051-1.31l.245-2.332c.07-.666.653-1.167 1.34-1.151 0 0 .315 1.034 1.553 1.22 1.002.151 1.36-.649 1.486-1.229.062-.281.375-.443.659-.334l9.37 3.605c.374.152.614.512.606.907M100.617 77.265c-11.499 5.135-16.718-2.47-16.761-6.746-.074-7.338 2.134-15.197 4.987-21.909 1.678-3.947 5.12-8.31 7.837-10.734 3.28-2.93 8.952-4.083 14.774-3.76l.467 1.283s.532 36.579-11.304 41.866M119.507 89.908c3.198 4.478-.323 27.317-.323 27.317l-9.467 45.188 5.116 88.162-12.062 1.857s-23.495-75.131-23.05-89.914c1.12-37.343 14.217-65.307 21.747-76.427 3.102 1.697 9.019 3.782 18.04 3.817" transform="translate(6.973 28.903)"/>
            <path fill="#A29C8F" d="M135.748 81.645c6.047 7.876 12.639 20.156 14.061 46.133 1.144 20.883-14.333 123.375-14.333 123.375l-11.576-.456-8.428-135.14-.117-27.469s17.8-5.575 20.393-6.443" transform="translate(6.973 28.903)"/>
            <path fill="#E1DCFF" d="M109.393 75.885c0 .945.765 1.711 1.709 1.711.944 0 1.71-.766 1.71-1.711 0-.945-.766-1.71-1.71-1.71s-1.71.765-1.71 1.71" transform="translate(6.973 28.903)"/>
            <path fill="#F5EFE4" d="M94.51 85.48s4.27 3.91 18.487 5.951c13.014 1.87 28.935-1.126 28.935-1.126l8.837-33.907c1.55-8.045 3.917-15.625-11.051-18.666 0 0-23.948-3.902-28.412-4-9.174-.202-13.634 8.049-15.119 17.186C94.75 59.766 94.51 85.48 94.51 85.48" transform="translate(6.973 28.903)"/>
            <path fill="#A29C8F" d="M136.753 86.75s12.998 4.339 16.406 1.351c5.096-4.467 7.273-11.122 5.13-27.91-.61-4.792-1.12-9.807-2.41-13.149-2.03-5.251-6.959-8.174-14.55-8.89l-4.576 48.598z" transform="translate(6.973 28.903)"/>
            <path fill="#FFE2B7" d="M125.165 37.734c1.657.46 3.374-.511 3.834-2.17l1.807-6.507c.46-1.658-.51-3.376-2.169-3.837-1.657-.46-3.374.511-3.834 2.17l-1.806 6.507c-.46 1.658.51 3.377 2.168 3.837" transform="translate(6.973 28.903)"/>
            <path fill="#FFC581" d="M130.631 29.687c.557-2.006-.336-4.007-1.993-4.466-1.658-.46-3.453.791-4.01 2.797l-1.244 4.484c-.304 1.096 1.94 1.454 4.12.219 1.428-.81 2.82-1.928 2.82-1.928l.307-1.106z" transform="translate(6.973 28.903)"/>
            <path fill="#FFE2B7" d="M135.05 18.96c-.488-.226-1.75.114-1.75.114.607-3.988-2.132-7.713-6.118-8.32-3.987-.607-7.076 2.23-7.683 6.218 0 0-.975 5.954-.964 6.722.073 5.027 1.87 6.78 5.56 7.343 3.69.562 7.15-1.749 8.127-5.258.768-.007 1.876-1.156 2.636-2.807.86-1.868.947-3.663.193-4.012" transform="translate(6.973 28.903)"/>
            <path fill="#FFC581" d="M125.057 10.758s-.21.038-.314.061c-2.766.606-4.768 3.026-5.244 6.152 0 0-.976 5.954-.965 6.724.05 3.302.876 5.279 2.482 6.313 1.052.677 2.207.865 2.207.865s-3.319-2.997-1.705-10.984c.967-4.79 3.54-9.13 3.54-9.13" transform="translate(6.973 28.903)"/>
            <g transform="translate(6.973 28.903) translate(110.578 .547)">
                <mask id="prefix__q" fill="#fff">
                    <use xlink:href="#prefix__p"/>
                </mask>
                <path fill="#57575E" d="M21.13 13.299c.43.681-3.292.548-4.072 1.92-.78 1.37 1.95 2.548 2.665 3.669.306.48-.121 2.927.313 2.963.583.047 1.86-2.378 2.624-2.426 1.332-.083-.957 2.623-1.904 5.61-.264.833.318 1.337.318 1.337s4.749-1.003 7.275-5.503c1.737-3.094 2.17-7.081 1.305-9.657-.76-2.266-3.713-2.946-5.517-2.355 0 0-.994-3.285-1.852-3.965-2.049-1.625-8.865-1.11-13.504-1.803C3.798 2.343 1.048.449 1.048.449S-.488 8.076 3.252 11.303c4.185 3.612 8.007 2.715 10.128 2.68 3.487-.059 7.39-1.255 7.75-.684" mask="url(#prefix__q)"/>
            </g>
            <path fill="#FFE2B7" d="M131.925 21.034c-1.17 1.517-1.492 3.23-.718 3.828.773.596 2.373.02 3.542-1.495 1.171-1.518 1.468-3.4.695-3.998-.773-.597-2.348.15-3.519 1.665" transform="translate(6.973 28.903)"/>
            <path fill="#FFE2B7" d="M133.08 24.315s-1.103 2.546-1.692 3.361c-.59.814-1.394-2.062-1.394-2.062l3.086-1.299z" transform="translate(6.973 28.903)"/>
            <g transform="translate(6.973 28.903) translate(111.574 .547)">
                <mask id="prefix__s" fill="#fff">
                    <use xlink:href="#prefix__r"/>
                </mask>
                <path fill="#57575E" d="M20.077 26.372c2.165-.291 4.257-1.292 5.97-2.794 1.703-1.533 2.91-3.622 3.53-5.828.323-1.106.54-2.25.569-3.425.038-1.179-.047-2.36-.45-3.603-.468-1.426-1.729-2.416-2.96-2.86-1.261-.45-2.584-.57-3.973-.16l1.541.803c-.356-1.12-.736-2.156-1.314-3.272-.167-.287-.307-.56-.59-.893-.34-.41-.695-.58-1.017-.78-.642-.295-1.265-.5-1.852-.598-2.364-.407-4.558-.408-6.76-.421-2.196-.035-4.345-.005-6.466-.337C4.178 1.905 2.06 1.368.052.45 1.788 1.845 3.899 2.734 6.05 3.383c2.176.632 4.44.87 6.625 1.067 2.177.233 4.405.3 6.353.773.492.108.914.265 1.268.43.134.1.289.177.288.209.075.084.197.3.3.49.426.84.785 1.886 1.092 2.857l.007.022c.201.636.88.99 1.516.789l.02-.006c.683-.23 1.63-.196 2.397.079.792.272 1.367.786 1.628 1.426.636 1.665.578 3.818.202 5.774-.405 1.988-1.212 3.897-2.545 5.457-1.323 1.573-3.11 2.82-5.125 3.622" mask="url(#prefix__s)"/>
            </g>
            <path fill="#A29C8F" d="M127.224 36.69l-5.185-1.328s-.24 4.565 1.387 4.765c3.436.422 3.798-3.437 3.798-3.437" transform="translate(6.973 28.903)"/>
            <path fill="#A29C8F" d="M124.752 38.78s.904 18.938.482 30.095l-8.44 4.643-4.641-7.659 11.032-27.561 1.567.482z" transform="translate(6.973 28.903)"/>
            <path fill="#E7E1D3" d="M129.534 33.413L124.772 36.006 126.581 40.831 132.127 36.729z" transform="translate(6.973 28.903)"/>
            <path fill="#E7E1D3" d="M123.265 32.87L125.335 36.026 121.236 39.323 120.11 34.98z" transform="translate(6.973 28.903)"/>
            <path fill="#A29C8F" d="M132.127 36.73s-3.738 10.07-6.149 34.557c-2.412 24.487-.965 57.9 4.219 59.708 5.185 1.809 22.988 1.287 22.988 1.287s-.12-23.682-5.787-43.102l-6.19-11.66 4.904-37.956s-1.687-1.447-13.985-2.834" transform="translate(6.973 28.903)"/>
            <path fill="#7F786A" d="M120.11 34.98s-8.118 15.198-11.615 32.448c-3.496 17.248-6.752 55.364-10.97 59.587-4.22 4.222-20.055-3.257-20.055-3.257s2.21-23.593 13.664-39.032c0 0 1.51-20.14 4.903-35.029 1.594-6.997 4.818-12.948 8.48-14.837 0 0 7.193-2.654 15.593.12M126.219 93.24c2.735-5.924 5.205-11.947 7.657-17.978 2.428-6.04 4.702-12.137 6.951-18.245l.008-.02c.16-.436-.035-.916-.44-1.12l-4.137-2.102-.04 1.511c1.641-.78 3.254-1.617 4.879-2.432l.042-.02c.285-.144.42-.466.339-.763-.63-2.29-1.22-4.591-1.88-6.876-.68-2.28-1.312-4.57-2.047-6.837.353 2.356.805 4.69 1.21 7.034.426 2.339.92 4.662 1.377 6.995l.38-.782c-1.671.712-3.353 1.403-5.009 2.15-.421.19-.61.688-.418 1.11.077.173.205.307.359.391l.02.01 4.062 2.242-.432-1.14c-2.333 6.075-4.64 12.16-6.793 18.303-2.13 6.152-4.242 12.312-6.088 18.57" transform="translate(6.973 28.903)"/>
            <path fill="#7F786A" d="M102.387 87.812c.421-6.691.558-13.38.677-20.07.094-6.688.022-13.376-.076-20.063l-.943.93 4.64.022h.021c.464.002.843-.373.846-.837 0-.19-.06-.365-.166-.505-1.082-1.46-2.209-2.886-3.323-4.323l-.157.976c1.933-1.498 3.886-2.969 5.802-4.49 1.901-1.543 3.831-3.044 5.7-4.632-2.101 1.264-4.14 2.614-6.208 3.924-2.054 1.331-4.07 2.712-6.107 4.066-.309.205-.393.623-.187.93l.004.007.026.039c1.022 1.504 2.03 3.017 3.083 4.497l.701-1.343-4.634-.177c-.502-.02-.924.371-.944.873v.058c.01 6.688.044 13.375.246 20.062.226 6.686.47 13.373.999 20.056" transform="translate(6.973 28.903)"/>
            <path fill="#FFE2B7" d="M146.922 69.484s.851-1.997.67-2.73c-.14-.56-1.554-1.708-1.554-1.708s-4.868 1.183-5.535 2.374c-.319.569.02 1.885.343 2.85.214.642.9.995 1.544.794l4.532-1.58z" transform="translate(6.973 28.903)"/>
            <path fill="#FFE2B7" d="M149.355 68.805c-.148.672-.815 1.096-1.486.947l-3.072-.68.27-1.218 4.288.951z" transform="translate(6.973 28.903)"/>
            <path fill="#FFE2B7" d="M150.273 68.683c-.259.638-1.06.915-1.79.618l-3.341-1.353.468-1.155 4.663 1.89z" transform="translate(6.973 28.903)"/>
            <path fill="#FFE2B7" d="M150.822 67.527c-.206.657-.984.998-1.737.762l-3.437-1.083.374-1.19 4.8 1.511z" transform="translate(6.973 28.903)"/>
            <path fill="#FFE2B7" d="M151.396 64.39c.087.683-.62 1.336-1.58 1.458l-4.382.559.712-1.383 5.25-.635zM94.919 59.291L92.361 60.984 96.761 64.306 98.555 61.581z" transform="translate(6.973 28.903)"/>
            <path fill="#A29C8F" d="M95.012 70.645c5.64 13.353 21.839 17.621 33.027 19.46 12.485 2.051 23.895 3.766 27.97-7.01 0 0-13.781-10.838-19.032-12.947-10.52-4.225-37.753-11.568-37.753-11.568s-6.23 7.29-4.212 12.065" transform="translate(6.973 28.903)"/>
            <path fill="#FFE2B7" d="M90.002 60.575s-.737-2.266-.492-2.98c.188-.547 1.698-1.567 1.698-1.567s3.12 2.319 4.07 3.298c.658.681 1.05 1.43.644 2.362-.27.62-.983.911-1.607.655l-4.313-1.768z" transform="translate(6.973 28.903)"/>
            <path fill="#FFE2B7" d="M86.574 59.81c.086.683.708 1.167 1.392 1.081l3.122-.391-.155-1.237-4.359.546z" transform="translate(6.973 28.903)"/>
            <path fill="#FFE2B7" d="M85.348 58.271c.021.689.677 1.227 1.465 1.204l3.602-.107-.037-1.246-5.03.15z" transform="translate(6.973 28.903)"/>
            <path fill="#FFE2B7" d="M85.591 57.204c.021.687.677 1.226 1.465 1.204l3.602-.108-.037-1.247-5.03.15z" transform="translate(6.973 28.903)"/>
            <path fill="#FFE2B7" d="M86.52 55.743c-.046.686.555 1.286 1.342 1.34l3.596.24-.25-1.294-4.688-.286zM137.061 71.24s-.891-2.246-.476-2.831c.594-.834 4.038-.678 4.038-.678l.475 2.83-4.037.68z" transform="translate(6.973 28.903)"/>
            <path fill="#7F786A" d="M139.365 67.9c-2.014-4.132-13.122-7.787-26.77-7.187-13.513.593-33.788 6.777-25.963 15.198 4.498 4.84 20.775 4.654 26.84 4.586 12.15-.138 24.532-1.922 24.532-1.922s3.685-5.91 1.361-10.676" transform="translate(6.973 28.903)"/>
            <path fill="#F9D04E" d="M96.74 116.126c-.811 1.213-1.96 1.45-1.96 1.45.66.505.652.84.69 1.583.724-.299 1.332-.774 1.806-1.458.236-.657.005-1.165-.535-1.575M47.839 117.017c-.812 1.213-1.962 1.449-1.962 1.449.662.505.653.84.69 1.584.725-.3 1.333-.775 1.807-1.458.236-.657.005-1.165-.535-1.575" transform="translate(6.973 28.903)"/>
            <path fill="#B0AFFD" d="M128.949 129.764c-1.208.82-2.362.606-2.362.606.423.717.289 1.024.046 1.728.783-.005 1.526-.217 2.22-.673.467-.52.443-1.079.096-1.661" transform="translate(6.973 28.903)"/>
            <path fill="#F9D04E" d="M114.192 142.565c-1.292-.68-1.65-1.797-1.65-1.797-.431.711-.766.738-1.5.857.374.687.911 1.243 1.642 1.64.678.165 1.158-.12 1.508-.7" transform="translate(6.973 28.903)"/>
            <path fill="#B0AFFD" d="M89.892 133.132c-1.423.318-2.42-.302-2.42-.302.132.82-.105 1.058-.59 1.623.73.283 1.499.358 2.313.19.623-.315.806-.843.697-1.511M49.331 133.353c-.747 1.254-1.882 1.551-1.882 1.551.688.469.697.805.774 1.544.708-.336 1.29-.843 1.726-1.55.201-.67-.057-1.165-.618-1.545M1.882 162.31C1.135 163.566 0 163.863 0 163.863c.687.469.696.805.774 1.544.707-.336 1.29-.843 1.725-1.55.202-.67-.056-1.166-.617-1.545" transform="translate(6.973 28.903)"/>
            <path fill="#F9D04E" d="M9.096 145.52c-.747 1.255-1.882 1.552-1.882 1.552.688.469.697.804.774 1.544.708-.336 1.29-.843 1.726-1.55.201-.67-.057-1.166-.618-1.545M26.962 146.607c-1.449.178-2.379-.538-2.379-.538.05.832-.21 1.044-.746 1.558.7.354 1.457.503 2.283.414.652-.251.885-.758.842-1.434M37.523 180.937c-1.393-.435-1.944-1.472-1.944-1.472-.297.778-.622.864-1.323 1.112.49.61 1.12 1.059 1.908 1.32.698.04 1.119-.326 1.36-.96" transform="translate(6.973 28.903)"/>
            <path fill="#B0AFFD" d="M23.637 123.298c-1.352.552-2.437.104-2.437.104.266.788.07 1.062-.313 1.698.767.159 1.537.105 2.311-.197.564-.413.657-.963.439-1.605" transform="translate(6.973 28.903)"/>
            <path fill="#F9D04E" d="M71.028 123.295c-1.35.556-2.436.112-2.436.112.269.788.074 1.062-.306 1.7.767.156 1.537.1 2.31-.206.562-.414.652-.965.432-1.606M146.602 166.805c-1.35.556-2.437.112-2.437.112.269.787.075 1.062-.307 1.7.768.156 1.538.099 2.311-.205.562-.416.653-.966.433-1.607M129.324 189.074c-.097 1.457-.974 2.237-.974 2.237.826.107.985.4 1.39 1.025.478-.62.767-1.336.835-2.165-.124-.688-.578-1.012-1.25-1.097" transform="translate(6.973 28.903)"/>
            <path fill="#B0AFFD" d="M133.872 155.09c-1.343-.573-1.788-1.66-1.788-1.66-.373.744-.704.799-1.427.974.428.657 1.008 1.165 1.767 1.504.69.11 1.146-.212 1.448-.818M14.926 185.897c-1.441-.23-2.136-1.178-2.136-1.178-.182.813-.49.945-1.15 1.29.575.533 1.261.888 2.079 1.032.696-.06 1.06-.482 1.207-1.144" transform="translate(6.973 28.903)"/>
            <path fill="#FCBA3F" d="M69.14 219.818l-.193-33.895 7.564-.043.175 30.78h.008l-.007.151.015 2.507c.171 4.385 1.267 12.673 7.123 12.64l-21.653.124c5.66-.033 6.786-7.782 6.969-12.264" transform="translate(6.973 28.903)"/>
            <path fill="#FFB127" d="M105.492 151.189c-1.675.886-3.18 2.105-4.423 3.587-3.173 3.836-3.772 8.673-1.575 12.95.854 1.695 2.25 2.944 3.961 3.578.768.313 1.618.47 2.502.5 2.929.078 5.835-1.414 7.213-3.71 1.149-1.945 1.134-4.215-.052-6.258-.78-1.347-2.498-1.804-3.844-1.022-1.33.772-1.802 2.498-1.021 3.846.197.34.144.436.085.557-.29.472-1.25.985-2.202.952-1.018-.037-1.416-.61-1.635-1.024-.037-.065-.074-.13-.096-.204-1.264-2.629-.282-4.825.653-6.127.125-.16.233-.308.35-.442 2.283-2.756 6.226-4.069 9.367-3.137 3.621 1.086 6.01 5.057 6.691 11.168 1.33 11.785-6.96 19.806-12.024 23.525-5.504 4.04-10.97 6.128-14.67 6.887-2.123.45-3.65.47-4.29.192-1.425-.627-3.081.03-3.69 1.447-.393.856-.3 1.8.132 2.546.292.504.73.922 1.298 1.156.649.296 1.425.475 2.27.547 5.532.607 14.794-2.707 22.29-8.25 10.42-7.675 15.485-17.858 14.284-28.675-1.3-11.478-7.244-14.925-10.667-15.93-3.536-1.05-7.534-.507-10.907 1.34" transform="translate(6.973 28.903)"/>
            <path fill="#EDBF5A" d="M86.791 198.454c-.392.856-.3 1.8.133 2.547.292.503.729.92 1.299 1.155.648.296 1.423.475 2.268.548 1.596-1.772 3.002-3.759 4.28-5.889-2.122.452-3.65.47-4.289.191-1.425-.626-3.081.031-3.69 1.448M105.492 151.189c-1.675.886-3.18 2.105-4.423 3.587-3.173 3.836-3.772 8.673-1.575 12.95.854 1.695 2.25 2.944 3.961 3.578.36-2.183.682-4.321.95-6.363-1.264-2.629-.282-4.825.653-6.127.257-3.034.373-5.638.434-7.625" transform="translate(6.973 28.903)"/>
            <path fill="#FFB127" d="M41.013 151.148c1.701.835 3.241 2.01 4.528 3.452 3.288 3.74 4.031 8.557 1.963 12.897-.802 1.72-2.16 3.012-3.851 3.695-.758.337-1.603.52-2.486.576-2.925.166-5.875-1.237-7.322-3.49-1.205-1.911-1.258-4.18-.135-6.259.74-1.37 2.442-1.877 3.812-1.136 1.352.73 1.876 2.443 1.136 3.813-.188.346-.132.44-.068.56.304.463 1.278.947 2.229.886 1.017-.068 1.396-.652 1.602-1.074.036-.067.072-.132.091-.207 1.185-2.665.139-4.83-.837-6.104-.128-.155-.242-.302-.363-.431-2.364-2.686-6.345-3.88-9.456-2.855-3.588 1.195-5.856 5.236-6.354 11.363-.974 11.821 7.553 19.59 12.724 23.154 5.624 3.873 11.15 5.797 14.872 6.445 2.134.386 3.663.36 4.292.061 1.407-.668 3.081-.06 3.733 1.337.418.845.355 1.79-.056 2.55-.276.51-.701.943-1.263 1.193-.64.315-1.41.517-2.251.616-5.512.772-14.87-2.264-22.527-7.58-10.647-7.356-16.014-17.382-15.14-28.232.956-11.51 6.794-15.134 10.186-16.244 3.501-1.155 7.515-.732 10.94 1.014" transform="translate(6.973 28.903)"/>
            <path fill="#EDBF5A" d="M61.124 197.83c.417.846.353 1.792-.057 2.551-.276.51-.702.943-1.263 1.193-.639.315-1.41.517-2.25.616-1.65-1.722-3.114-3.667-4.457-5.758 2.136.387 3.663.361 4.294.062 1.405-.669 3.081-.06 3.733 1.337M41.013 151.148c1.701.835 3.241 2.01 4.528 3.452 3.288 3.74 4.031 8.557 1.963 12.897-.802 1.72-2.16 3.012-3.851 3.695-.427-2.17-.811-4.297-1.141-6.331 1.185-2.665.139-4.83-.837-6.104-.347-3.023-.54-5.624-.662-7.609" transform="translate(6.973 28.903)"/>
            <path fill="#FCBA3F" d="M44.367 147.085s-.016 2.026.156 5.353c.675 13.162 4.3 46.82 23.588 56.38l.94.799c1.188 1.003 2.724 1.52 4.275 1.466l.956-.034c1.357-.05 2.655-.543 3.703-1.39l1.103-.9c18.934-9.666 22.324-42.625 22.914-56.151.152-3.625.114-5.857.114-5.857-.015-3.244-3.814-4.076-3.814-4.076l-50.14.298s-3.811.867-3.795 4.112" transform="translate(6.973 28.903)"/>
            <path fill="#F8BD36" d="M47.325 151.374l51.895-.296c3.176-.018 5.76-2.632 5.74-5.81-.017-3.178-2.63-5.763-5.806-5.745l-51.895.296c-3.177.018-5.76 2.633-5.742 5.81.018 3.178 2.632 5.763 5.808 5.745" transform="translate(6.973 28.903)"/>
            <path fill="#FFD454" d="M44.367 147.085s-.016 2.026.156 5.353c.914.64 2.029.991 3.221.992l51.896-.298c.839-.009 1.643-.194 2.362-.524.152-3.625.114-5.857.114-5.857-.015-3.244-3.814-4.076-3.814-4.076l-50.14.298s-3.811.867-3.795 4.112" transform="translate(6.973 28.903)"/>
            <path fill="#FFB127" d="M47.325 151.374l51.895-.296c3.176-.018 5.76-2.632 5.74-5.81-.017-3.178-2.63-5.763-5.806-5.745l-51.895.296c-3.177.018-5.76 2.633-5.742 5.81.018 3.178 2.632 5.763 5.808 5.745" transform="translate(6.973 28.903)"/>
            <path fill="#FFB127" d="M47.325 151.374l51.895-.296c3.176-.018 5.76-2.632 5.74-5.81-.017-3.178-2.63-5.763-5.806-5.745l-51.895.296c-3.177.018-5.76 2.633-5.742 5.81.018 3.178 2.632 5.763 5.808 5.745" transform="translate(6.973 28.903)"/>
            <path fill="#FCBA3F" d="M48.948 260.894l48.414-.276-.108-19.148c-.021-3.658-3.002-6.607-6.659-6.587l-35.172.202c-3.656.02-6.604 3.003-6.583 6.661l.108 19.148z" transform="translate(6.973 28.903)"/>
            <path fill="#FFB127" d="M46.74 260.905l52.83-.3c.583-.004 1.05-.477 1.048-1.059l-.012-2.035c-.004-.581-.477-1.05-1.058-1.047l-52.832.301c-.58.003-1.049.477-1.046 1.059l.012 2.035c.003.581.478 1.05 1.058 1.046" transform="translate(6.973 28.903)"/>
            <path fill="#FAAA36" d="M46.74 260.905l52.83-.3c.583-.004 1.05-.477 1.048-1.059l-.012-2.035c-.004-.581-.477-1.05-1.058-1.047l-52.832.301c-.58.003-1.049.477-1.046 1.059l.012 2.035c.003.581.478 1.05 1.058 1.046M61.127 253.001l23.968-.136c1.736-.01 3.135-1.425 3.126-3.164l-.035-6.082c-.01-1.737-1.425-3.138-3.162-3.128l-23.967.137c-1.736.011-3.135 1.427-3.125 3.163l.033 6.083c.01 1.737 1.426 3.137 3.162 3.127" transform="translate(6.973 28.903)"/>
            <path fill="#FFB127" d="M61.664 235.05l22.718-.131c.416-.002.752-.342.749-.758l-.008-1.457c-.002-.417-.342-.75-.758-.749l-22.718.13c-.415.002-.75.34-.749.758l.009 1.457c.002.415.342.751.757.75" transform="translate(6.973 28.903)"/>
            <path fill="#FAAA36" d="M61.664 235.05l22.718-.131c.416-.002.752-.342.749-.758l-.008-1.457c-.002-.417-.342-.75-.758-.749l-22.718.13c-.415.002-.75.34-.749.758l.009 1.457c.002.415.342.751.757.75M89.56 158.832c.859 10.064 1.127 32.495-11.185 46.885-.631.737.355 1.756 1.112 1.148 6.787-5.441 15.955-16.045 18.592-34.743 0 0 .914-7.415.388-14.054-.174-2.203-1.96-3.932-4.164-4.077-2.734-.179-4.976 2.111-4.743 4.841M58.685 158.434c-.325 10.095.595 32.508 13.652 46.226.669.703-.263 1.772-1.05 1.206-7.067-5.074-16.784-15.177-20.407-33.71 0 0-1.305-7.355-1.131-14.013.057-2.209 1.75-4.03 3.943-4.292 2.72-.323 5.08 1.844 4.993 4.583" transform="translate(6.973 28.903)"/>
            <path fill="#FCBA3F" d="M80.82 245.626L78.467 246.053 80.237 247.662 79.915 250.033 81.991 248.845 84.146 249.884 83.659 247.542 85.313 245.812 82.936 245.552 81.802 243.445zM72.013 245.626L69.66 246.053 71.43 247.662 71.108 250.033 73.184 248.845 75.339 249.884 74.852 247.542 76.505 245.812 74.128 245.552 72.995 243.445zM63.205 245.626L60.852 246.053 62.623 247.662 62.301 250.033 64.377 248.845 66.532 249.884 66.045 247.542 67.698 245.812 65.321 245.552 64.188 243.445z" transform="translate(6.973 28.903)"/>
        </g>
    </g>
</svg>
