<svg xmlns="http://www.w3.org/2000/svg" xmlns:xlink="http://www.w3.org/1999/xlink" width="392" height="245" viewBox="0 0 392 245">
    <defs>
        <path id="prefix__a" d="M0 0.614L382.633 0.614 382.633 18 0 18z"/>
        <path id="prefix__c" d="M0.003 3.558L2.736 2.26 0.003 0.961z"/>
        <path id="prefix__f" d="M6.94.957C2.352 2.503-.298 7.296.832 12.005 4.2 23.712 16.517 34.219 27.799 43.146c.81.642 1.986.505 2.628-.305.641-.81.505-1.986-.305-2.628-10.828-8.569-22.634-18.6-25.694-29.241-.856-2.982.865-6.092 3.846-6.949 2.981-.856 6.092.866 6.949 3.847 2.043 7.109 12.201 15.894 21.866 23.542.81.642 1.987.506 2.628-.304.642-.81.506-1.987-.305-2.629-5.103-4.029-18.618-14.723-20.62-21.645-1.316-3.905-4.959-6.37-8.863-6.37-.991 0-1.998.159-2.989.493"/>
        <path id="prefix__i" d="M24.1 1.04C11.189 4.746 3.725 18.215 7.43 31.126l.008.028c3.072 10.672-3.513 13.631-5.613 14.282-.986.31-1.533 1.36-1.223 2.346.309.985 1.361 1.534 2.346 1.224 5.721-1.789 11.277-7.806 8.086-18.888C7.887 19.196 14.19 7.791 25.112 4.645l.017-.005c10.798-3.034 22.049 3.085 25.368 13.799.044.147.107.286.187.416.195.322.595.999 12.621 10.758.802.651 1.98.53 2.632-.272.652-.802.53-1.98-.271-2.633-4.371-3.547-10.757-8.818-11.692-9.698C50.617 6.721 41.056.126 30.721.125c-2.19 0-4.413.296-6.621.915"/>
        <path id="prefix__l" d="M20.161 1.236C11.39 3.944 6.298 13.072 8.603 21.958c3.779 17.211.954 21.185-6.798 23.609-.986.311-1.534 1.361-1.224 2.346.31.986 1.36 1.534 2.346 1.224 10.832-3.367 13.186-10.447 9.354-27.984-1.862-6.954 2.074-14.143 8.935-16.322 6.952-1.973 14.194 2.039 16.205 8.981.749 2.551 2.735 6.054 18.058 18.18.81.642 1.987.505 2.629-.305.641-.81.505-1.986-.305-2.628-13.908-11-16.288-14.483-16.811-16.295C38.855 5.386 32.117.584 24.797.584c-1.532 0-3.09.211-4.636.652"/>
        <path id="prefix__o" d="M2.268.661C1.304.956.748 1.962 1.009 2.935c2.948 10.26 14.166 18.769 20.867 23.854 1.362.98 2.673 2.029 3.929 3.143.743.718 1.927.697 2.646-.046.7-.726.7-1.875 0-2.599-1.371-1.241-2.81-2.402-4.312-3.481-6.33-4.804-16.927-12.841-19.535-21.904C4.358 1.097 3.617.579 2.816.579c-.182 0-.366.026-.548.082"/>
        <path id="prefix__r" d="M.2 13.462c-.064 1.03.72 1.918 1.75 1.982h.121c.989.003 1.809-.767 1.87-1.754.236-3.854 1.71-9.467 3.742-9.467 2.772 0 4.741 2.672 6.319 4.816.522.743 1.094 1.451 1.71 2.118.744.718 1.928.697 2.646-.046.7-.725.7-1.874 0-2.599-.484-.535-.933-1.099-1.344-1.692C15.124 3.312 11.641.946 7.683.482 1.322.482.338 11.295.2 13.462"/>
        <path id="prefix__u" d="M9.718.436c-.914.331-1.422 1.307-1.17 2.246 1.602 5.002-1.546 14.82-6.279 16.358-.985.309-1.534 1.358-1.227 2.344.309.986 1.36 1.535 2.345 1.226l.039-.012c7.199-2.32 10.671-14.824 8.687-21.039-.275-.762-.994-1.235-1.759-1.235-.211 0-.426.036-.636.112"/>
        <path id="prefix__x" d="M.008 32.419c0 1.033.837 1.871 1.87 1.871 1.034 0 1.871-.838 1.871-1.871C3.766 16.927 16.32 4.373 31.812 4.356c15.18 0 20.498 8.583 24.77 15.483 2.515 4.06 4.684 7.566 8.329 8.748.98.33 2.041-.197 2.371-1.175.329-.979-.197-2.04-1.176-2.37l-.038-.013-.005-.004c-2.338-.748-4.176-3.741-6.304-7.157C55.254 10.586 49.076.615 31.812.615 14.256.635.029 14.863.008 32.419"/>
        <path id="prefix__A" d="M.008 1.902c.3 2.257 1.001 4.441 2.069 6.452.317.632.964 1.032 1.672 1.032 1.034 0 1.871-.838 1.871-1.871 0-.291-.068-.578-.198-.838C4.624 5.18 4.059 3.57 3.749 1.902 3.749.869 2.911.031 1.878.031S.008.869.008 1.902"/>
        <path id="prefix__D" d="M1.148 12.258c-.534.883-.253 2.031.628 2.566.883.539 2.034.26 2.572-.622l.003-.006c1.624-2.679 9.623-10.324 24.59-10.324 14.383 0 24.617 7.286 26.462 10.324.535.884 1.686 1.165 2.57.628.883-.535 1.165-1.686.629-2.57C56.035 8.026 44.701.131 28.941.131 12.182.131 3.198 8.883 1.148 12.258"/>
        <path id="prefix__G" d="M18.941.648C9.048.648 6.572 1.92 3.429 3.532c-.633.326-1.306.671-2.092 1.022-.96.382-1.429 1.469-1.047 2.43.381.96 1.468 1.429 2.429 1.047.049-.019.097-.04.144-.065h-.011c.857-.373 1.583-.748 2.271-1.122 2.814-1.418 4.838-2.455 13.818-2.455 6.063-.334 12.129.637 17.784 2.848.715.266 1.434.531 2.185.79.196.067.403.102.61.104 1.034.002 1.872-.834 1.874-1.867.002-.801-.506-1.514-1.263-1.773-.727-.251-1.415-.505-2.104-.749C32.679 1.656 26.994.589 21.266.589c-.775 0-1.549.019-2.325.059"/>
        <path id="prefix__J" d="M1.762.39C.881.932.606 2.083 1.148 2.964c1.393 2.242 2.583 4.603 3.555 7.057.351.972 1.424 1.474 2.396 1.122.913-.33 1.422-1.306 1.17-2.245C7.207 6.15 5.89 3.506 4.336 1.003 3.982.429 3.368.112 2.74.112c-.334 0-.673.09-.978.278"/>
        <path id="prefix__M" d="M7.745.726C2.721 1.932-.374 6.981.832 12.005 4.2 23.712 16.506 34.215 27.787 43.146c.33.262.739.404 1.16.404l-.03-.003c.573.001 1.115-.26 1.469-.709.642-.81.505-1.988-.305-2.628-10.825-8.569-22.63-18.601-25.69-29.242-.857-2.979.864-6.09 3.844-6.947 2.979-.855 6.09.865 6.947 3.845 2.039 7.113 12.205 15.895 21.87 23.542.029.026.059.049.09.072.829.616 2.001.442 2.617-.387.615-.83.443-2.002-.387-2.618-5.074-4.025-18.589-14.724-20.58-21.641C17.486 2.958 13.865.466 9.934.466c-.724 0-1.457.084-2.189.26"/>
        <path id="prefix__P" d="M24.1 1.041l-.02.006C11.171 4.759 3.718 18.234 7.43 31.143 10.495 41.81 3.909 44.77 1.818 45.425c-.779.245-1.309.966-1.31 1.781-.002 1.033.835 1.872 1.868 1.875.192 0 .384-.028.568-.087 5.725-1.788 11.278-7.808 8.09-18.888l-.001-.004C7.894 19.179 14.205 7.779 25.129 4.64c10.8-3.037 22.053 3.083 25.372 13.799.045.145.106.283.183.412.195.323.595.999 12.625 10.762.786.599 1.904.483 2.55-.265.676-.782.589-1.964-.192-2.639-4.371-3.548-10.758-8.823-11.69-9.699C50.621 6.719 41.063.123 30.726.124c-2.19 0-4.417.297-6.626.917"/>
        <path id="prefix__S" d="M20.157 1.236C11.388 3.946 6.296 13.072 8.6 21.958c3.779 17.204.957 21.185-6.795 23.609-.779.245-1.309.966-1.311 1.782-.002 1.033.834 1.872 1.868 1.874.182.001.364-.025.539-.078 10.85-3.383 13.205-10.443 9.354-27.985-1.873-6.959 2.062-14.159 8.931-16.339 6.954-1.986 14.204 2.031 16.209 8.98.73 2.544 2.717 6.05 18.058 18.181.029.024.059.048.09.071.829.615 2.001.443 2.617-.388.616-.829.443-2.001-.387-2.617-13.885-10.993-16.261-14.477-16.781-16.284C38.848 5.386 32.109.586 24.787.587c-1.53 0-3.086.21-4.63.649"/>
        <path id="prefix__V" d="M2.253.599C1.266.901.71 1.947 1.012 2.935c2.949 10.26 14.166 18.769 20.868 23.854 1.361.982 2.673 2.032 3.928 3.146.352.35.829.548 1.325.547.494-.001.967-.197 1.317-.547.731-.729.733-1.914.004-2.646-1.372-1.241-2.812-2.404-4.315-3.483-6.33-4.805-16.911-12.842-19.531-21.904l-.017-.062C4.344 1.034 3.603.516 2.802.517c-.182 0-.366.026-.549.082"/>
        <path id="prefix__Y" d="M.2 13.465c-.064 1.032.72 1.919 1.75 1.984h.121c.989.002 1.809-.768 1.87-1.755.236-3.858 1.714-9.471 3.741-9.471 2.778 0 4.745 2.672 6.339 4.827.52.744 1.092 1.451 1.71 2.115.725.7 1.875.7 2.599 0 .744-.718.764-1.903.046-2.646-.483-.533-.93-1.098-1.339-1.691C15.141 3.314 11.649.946 7.683.485 1.322.485.334 11.299.2 13.465"/>
        <path id="prefix__ab" d="M9.625.279c-.965.37-1.447 1.453-1.077 2.418 1.579 5.002-1.549 14.82-6.279 16.358-.775.249-1.299.97-1.298 1.785.002 1.033.841 1.868 1.874 1.866.195.006.39-.019.576-.074 7.192-2.349 10.676-14.843 8.689-21.058-.019-.074-.042-.146-.069-.217-.285-.745-.994-1.202-1.747-1.202-.222 0-.449.04-.669.124"/>
        <path id="prefix__ae" d="M.008 32.419c0 1.033.837 1.871 1.87 1.871 1.034 0 1.871-.838 1.871-1.871C3.766 16.927 16.32 4.373 31.812 4.357c15.18 0 20.497 8.583 24.77 15.479 2.515 4.059 4.684 7.565 8.329 8.748l.038.012c.987.309 2.036-.241 2.345-1.226.308-.987-.241-2.036-1.227-2.345-2.338-.759-4.176-3.727-6.304-7.157C55.254 10.586 49.076.615 31.812.615 14.256.635.029 14.863.008 32.419"/>
        <path id="prefix__ah" d="M1.152 12.254c-.024.038-.049.077-.07.117-.505.902-.182 2.041.72 2.545.901.504 2.041.182 2.546-.72 1.627-2.679 9.627-10.324 24.593-10.324 14.383 0 24.62 7.286 26.462 10.324.339.56.946.902 1.601.902.341-.001.675-.093.967-.271.883-.534 1.166-1.686.631-2.569C56.035 8.026 44.702.131 28.942.131c-16.76 0-25.744 8.752-27.79 12.123"/>
        <path id="prefix__ak" d="M18.942.648c-9.89 0-12.37 1.272-15.491 2.881-.636.325-1.306.669-2.095 1.025-.947.418-1.375 1.525-.957 2.472.419.947 1.526 1.374 2.472.956.853-.397 1.583-.767 2.271-1.123 2.795-1.433 4.82-2.47 13.799-2.47 6.063-.331 12.126.641 17.78 2.852.716.262 1.441.531 2.19.789.196.068.402.101.609.101.826.015 1.564-.513 1.817-1.299.316-.983-.226-2.037-1.21-2.353-.725-.235-1.415-.493-2.103-.748C32.682 1.651 27.007.588 21.288.588c-.781 0-1.564.02-2.346.06"/>
        <path id="prefix__an" d="M1.765.374C.885.916.61 2.068 1.151 2.949c1.394 2.247 2.583 4.614 3.555 7.072.248.775.968 1.302 1.781 1.302.193 0 .385-.03.568-.088.984-.314 1.528-1.367 1.214-2.351C7.207 6.135 5.893 3.492 4.339.988 3.986.414 3.372.097 2.744.097c-.335 0-.673.09-.979.277"/>
        <path id="prefix__aq" d="M.738 3.601s94.01 75.482 95.86 72.847c3.541-5.046 5.095-11.501 4.6-17.544-.753-9.199-5.445-17.592-10.775-25.203-5.525-7.89-11.9-15.322-19.692-21.234C62.939 6.555 53.745 1.42 43.668.943c-3.156-.15-6.154-.215-8.994-.215C17.898.728 6.634 3.005.738 3.601"/>
        <path id="prefix__as" d="M.557 4.307c0 1.836 1.489 3.323 3.324 3.323 1.835 0 3.323-1.487 3.323-3.323 0-1.836-1.488-3.323-3.323-3.323S.557 2.471.557 4.307"/>
        <path id="prefix__av" d="M.498 3.002c0 1.284 1.042 2.327 2.326 2.327 1.285 0 2.327-1.043 2.327-2.327 0-1.285-1.042-2.326-2.327-2.326C1.54.676.498 1.717.498 3.002"/>
        <path id="prefix__ay" d="M7.94 14.689c-12.317 15.922-9.349 39.048 6.63 51.654 15.981 12.607 38.921 9.92 51.238-6 12.318-15.921 9.349-39.047-6.63-51.655C52.397 3.339 44.366.743 36.422.744c-10.777 0-21.391 4.78-28.482 13.945"/>
        <linearGradient id="prefix__d" x1="100.018%" x2=".021%" y1="50.008%" y2="50.008%">
            <stop offset="0%" stop-color="#FFB218"/>
            <stop offset="100%" stop-color="#FFCF44"/>
        </linearGradient>
        <linearGradient id="prefix__g" x1="0%" x2="100%" y1="50.001%" y2="50.001%">
            <stop offset="0%" stop-color="#FFB218"/>
            <stop offset="100%" stop-color="#FFCF44"/>
        </linearGradient>
        <linearGradient id="prefix__j" x1="0%" x2="100.001%" y1="50%" y2="50%">
            <stop offset="0%" stop-color="#FFB218"/>
            <stop offset="100%" stop-color="#FFCF44"/>
        </linearGradient>
        <linearGradient id="prefix__m" x1="0%" x2="100%" y1="50.001%" y2="50.001%">
            <stop offset="0%" stop-color="#FFB218"/>
            <stop offset="100%" stop-color="#FFCF44"/>
        </linearGradient>
        <linearGradient id="prefix__p" x1="-.002%" x2="99.998%" y1="49.999%" y2="49.999%">
            <stop offset="0%" stop-color="#FFB218"/>
            <stop offset="100%" stop-color="#FFCF44"/>
        </linearGradient>
        <linearGradient id="prefix__s" x1="-.002%" x2="100.002%" y1="50.001%" y2="50.001%">
            <stop offset="0%" stop-color="#FFB218"/>
            <stop offset="100%" stop-color="#FFCF44"/>
        </linearGradient>
        <linearGradient id="prefix__v" x1="0%" x2="100.001%" y1="50.001%" y2="50.001%">
            <stop offset="0%" stop-color="#FFB218"/>
            <stop offset="100%" stop-color="#FFCF44"/>
        </linearGradient>
        <linearGradient id="prefix__y" x1="0%" x2="100%" y1="49.999%" y2="49.999%">
            <stop offset="0%" stop-color="#FFB218"/>
            <stop offset="100%" stop-color="#FFCF44"/>
        </linearGradient>
        <linearGradient id="prefix__B" x1="-.007%" x2="100.003%" y1="50.001%" y2="50.001%">
            <stop offset="0%" stop-color="#FFB218"/>
            <stop offset="100%" stop-color="#FFCF44"/>
        </linearGradient>
        <linearGradient id="prefix__E" x1="0%" x2="100%" y1="50%" y2="50%">
            <stop offset="0%" stop-color="#FFB218"/>
            <stop offset="100%" stop-color="#FFCF44"/>
        </linearGradient>
        <linearGradient id="prefix__H" x1="-.001%" x2="100.002%" y1="50.001%" y2="50.001%">
            <stop offset="0%" stop-color="#FFB218"/>
            <stop offset="100%" stop-color="#FFCF44"/>
        </linearGradient>
        <linearGradient id="prefix__K" x1=".002%" x2="99.992%" y1="50.001%" y2="50.001%">
            <stop offset="0%" stop-color="#FFB218"/>
            <stop offset="100%" stop-color="#FFCF44"/>
        </linearGradient>
        <linearGradient id="prefix__N" x1=".001%" x2="100%" y1="50%" y2="50%">
            <stop offset="0%" stop-color="#FFB218"/>
            <stop offset="100%" stop-color="#FFCF44"/>
        </linearGradient>
        <linearGradient id="prefix__Q" x1="0%" x2="100%" y1="50%" y2="50%">
            <stop offset="0%" stop-color="#FFB218"/>
            <stop offset="100%" stop-color="#FFCF44"/>
        </linearGradient>
        <linearGradient id="prefix__T" x1=".001%" x2="100%" y1="50%" y2="50%">
            <stop offset="0%" stop-color="#FFB218"/>
            <stop offset="100%" stop-color="#FFCF44"/>
        </linearGradient>
        <linearGradient id="prefix__W" x1=".001%" x2="100.001%" y1="49.998%" y2="49.998%">
            <stop offset="0%" stop-color="#FFB218"/>
            <stop offset="100%" stop-color="#FFCF44"/>
        </linearGradient>
        <linearGradient id="prefix__Z" x1="-.002%" x2="100.002%" y1="49.999%" y2="49.999%">
            <stop offset="0%" stop-color="#FFB218"/>
            <stop offset="100%" stop-color="#FFCF44"/>
        </linearGradient>
        <linearGradient id="prefix__ac" x1="0%" x2="99.998%" y1="50.002%" y2="50.002%">
            <stop offset="0%" stop-color="#FFB218"/>
            <stop offset="100%" stop-color="#FFCF44"/>
        </linearGradient>
        <linearGradient id="prefix__af" x1="0%" x2="100%" y1="49.999%" y2="49.999%">
            <stop offset="0%" stop-color="#FFB218"/>
            <stop offset="100%" stop-color="#FFCF44"/>
        </linearGradient>
        <linearGradient id="prefix__ai" x1="-.001%" x2="100%" y1="50.002%" y2="50.002%">
            <stop offset="0%" stop-color="#FFB218"/>
            <stop offset="100%" stop-color="#FFCF44"/>
        </linearGradient>
        <linearGradient id="prefix__al" x1="0%" x2="99.999%" y1="49.998%" y2="49.998%">
            <stop offset="0%" stop-color="#FFB218"/>
            <stop offset="100%" stop-color="#FFCF44"/>
        </linearGradient>
        <linearGradient id="prefix__ao" x1=".002%" x2="99.992%" y1="50.001%" y2="50.001%">
            <stop offset="0%" stop-color="#FFB218"/>
            <stop offset="100%" stop-color="#FFCF44"/>
        </linearGradient>
        <linearGradient id="prefix__at" x1="100.006%" x2=".011%" y1="49.997%" y2="49.997%">
            <stop offset="0%" stop-color="#FFB218"/>
            <stop offset="100%" stop-color="#FFCF44"/>
        </linearGradient>
        <linearGradient id="prefix__aw" x1="99.996%" x2=".003%" y1="49.984%" y2="49.984%">
            <stop offset="0%" stop-color="#FFB218"/>
            <stop offset="100%" stop-color="#FFCF44"/>
        </linearGradient>
    </defs>
    <g fill="none" fill-rule="evenodd">
        <g>
            <g transform="translate(0 32.207) translate(0 194)">
                <mask id="prefix__b" fill="#fff">
                    <use xlink:href="#prefix__a"/>
                </mask>
                <path fill="#F7E8C8" d="M382.633 9.307c0-4.801-85.655-8.693-191.316-8.693C85.655.614 0 4.506 0 9.307 0 14.107 85.655 18 191.317 18c105.66 0 191.316-3.892 191.316-8.693" mask="url(#prefix__b)"/>
            </g>
            <path fill="#57575E" d="M253.276 21.687h37.667c2.931 0 5.306-2.375 5.306-5.306V5.471c0-2.932-2.375-5.307-5.306-5.307h-37.667c-2.93 0-5.306 2.375-5.306 5.306v10.911c0 2.931 2.376 5.306 5.306 5.306" transform="translate(0 32.207)"/>
            <path fill="#F6F7FB" d="M390.332 54.041H278.026c-.538 0-.988.841-1.143 1.995h114.59c-.154-1.154-.604-1.995-1.142-1.995" transform="translate(0 32.207)"/>
            <path fill="#57575E" d="M276.883 56.036c-.037.275-.062.562-.062.866 0 1.581.539 2.862 1.205 2.862h112.305c.666 0 1.206-1.28 1.206-2.862 0-.304-.026-.59-.062-.866H276.883zM359.043 54.1h-61.708c-1.2 0-3.715-.705-4.163-1.782h70.035c-.45 1.077-2.964 1.782-4.164 1.782" transform="translate(0 32.207)"/>
            <path fill="#5F7DFC" d="M328.656 20.719c0 .258-.209.467-.468.467-.258 0-.467-.21-.467-.467 0-.258.21-.468.467-.468.26 0 .468.21.468.468" transform="translate(0 32.207)"/>
            <path fill="#5F7DFC" d="M328.505 21.034c-.46.354-.986-.17-.632-.63.46-.355.986.17.632.63" transform="translate(0 32.207)"/>
            <path fill="#A29C8F" d="M355.42 19.36h-54.462c-.703 0-1.273.57-1.273 1.274v31.684h57.008V20.634c0-.704-.57-1.274-1.273-1.274" transform="translate(0 32.207)"/>
            <path fill="#FFF" d="M302.01 50.279L354.367 50.279 354.367 21.686 302.01 21.686z" transform="translate(0 32.207)"/>
            <path fill="#FFDE8E" d="M313.136 33.69L312.221 33.69 304.344 33.69 304.344 44.894 312.221 44.894 313.136 44.894 318.395 44.894 318.395 33.69z" transform="translate(0 32.207)"/>
            <path fill="#F7F8FC" d="M307.179 41.862L315.56 41.862 315.56 36.722 307.179 36.722z" transform="translate(0 32.207)"/>
        </g>
        <g transform="translate(310 69.207)">
            <mask id="prefix__e" fill="#fff">
                <use xlink:href="#prefix__c"/>
            </mask>
            <path fill="url(#prefix__d)" d="M0.003 3.558L2.736 2.26 0.003 0.961z" mask="url(#prefix__e)"/>
        </g>
        <g>
            <path fill="#FFDE8E" d="M64.844 65.69L74.744 65.69 74.744 70.754 64.844 70.754zM75.275 69.292L85.175 69.292 85.175 64.228 75.275 64.228zM85.707 69.292L95.607 69.292 95.607 64.228 85.707 64.228zM46.748 62.972L97.63 62.972 97.63 54.637 46.748 54.637z" transform="translate(256 .207)"/>
            <path fill="#F7F8FC" d="M49.788 60.528L56.104 60.528 56.104 57.257 49.788 57.257z" transform="translate(256 .207)"/>
            <path fill="#FFFEFF" d="M62.318 58.805L67.273 58.805 67.273 57.544 62.318 57.544zM68.106 58.805L95.918 58.805 95.918 57.544 68.106 57.544zM62.318 60.815L95.918 60.815 95.918 60.534 62.318 60.534z" transform="translate(256 .207)"/>
            <path fill="#EABBAB" d="M68.933 19.743c-1.178 4.383-.61 10.152.73 11.857.048.06 3.47.658 6.03 1.212l10.027-.699c.002-.085.007-.169.016-.25.146-1.532 1.25-2.56 3.588-3.972 0 0 4.57-2.768 5.7-8.95 1.132-6.183-.55-12.24-9.43-13.797-8.87-1.553-13.563.745-14.48 2.228-1.336 5.575-1.254 8.651-1.274 9.274 0 0-.74 2.474-.907 3.097" transform="translate(256 .207)"/>
            <path fill="#EABBAB" d="M77.391 40.116c-.953-2.76-2.065-6.065-2.49-7.642.748-.3 9.275-3.62 9.275-3.62 1.623 4.546 3.394 7.658 4.88 9.725L77.39 40.116z" transform="translate(256 .207)"/>
            <path fill="#57575E" d="M75.933 19.006c-.22 1.366-.341 3.288-.341 3.288l.804.933 2.1-1.102s.794 7.227 1.662 7.99c2.108 1.85 5.515 1.037 5.515 1.037 2.005-1.414 8.4-4.72 9.974-12.319.787-3.798.565-9.62-2.721-12.84-5.227-5.122-12.87-6.036-17.69-4.567-5.56 1.694-5.705 5.537-6.708 8.688 0 0-.24 4.223 7.405 8.892" transform="translate(256 .207)"/>
            <path fill="#EABBAB" d="M79.158 23.957c-.422 2.155-1.388 4.727-3.063 4.813-.31.043-.446-5.4-.318-6.519 2.057-3.659 3.81-.489 3.38 1.706M90.996 230.316v-6.741L86.4 180.24h12.41c.254 13.59-.116 41.779-.116 41.779s.94 6.848 1.507 8.296h-9.206z" transform="translate(256 .207)"/>
            <path fill="#7F786A" d="M101.294 232.897s1.09-1.71-.82-6.203c-.895-2.108-2.712-1.972-4.29-1.943-1.636.032-3.286.234-4.13 1.736-1.083 1.93-1.317.32-1.885 3.918-.235 1.492-.101 2.713.23 2.617l-.047 1.765h11.36l.054-1.728-.472-.162z" transform="translate(256 .207)"/>
            <path fill="#A29C8F" d="M103.24 111.09l-4.007 36.492c.107 1.813.228 3.626.367 5.435.871 11.29-.222 31.342.313 47.79H87.611l-5.737-53.225-2.986-35.452 24.351-1.04z" transform="translate(256 .207)"/>
            <path fill="#7F786A" d="M89.013 205.684L95.755 206.054 100.832 204.068 100.681 194.03 85.745 195.959 86.947 203.508z" transform="translate(256 .207)"/>
            <path fill="#EABBAB" d="M69.552 179.322l-7.946 3.23c0-.032-.39-2.129-.39-2.16-.018-3.212-2.173-7.607-3.123-9.87-2.823-6.727-8.765-22.244-13.74-34.832l12.29-4.38 12.91 48.012z" transform="translate(256 .207)"/>
            <path fill="#7F786A" d="M68.694 175.092l2.351 6.197.188-.079.612 1.86-7.607 3.026-.277-.844-.24.589c-.143.351-.41.624-.737.754l-6.489 2.582-.355-1.076c.094-.046.316-.102.256-.304-.125-.492-.02-1.838.556-2.677.922-1.343 2.348-3.615 2.851-4.724.504-1.108.642-2.004.642-2.004s.815-.105.888.625c.075.745 1.359.507 2.634-.287.714-.444 1.425-2.451 1.425-2.451.344-1.144 2.928-2.477 3.302-1.187" transform="translate(256 .207)"/>
            <path fill="#A29C8F" d="M95.427 118.978l-42.36-1.06c1.897 3.362 2.865 5.994 3.691 8.78 1.18 3.981 2.102 7.678 2.905 11.084 1.152 4.865 2.04 9.132 3.037 12.766l-11.645 4.905c-6.767-12.15-17.169-36.72-18.758-46.962-1.116-7.178 6.75-11.12 12.698-12.202 6.87-1.259 29.343-1.675 29.01-1.675v-.086l.895-2.42V89.031h32.325c.785 2.848 1.264 5.616 1.452 8.254.831 11.905-4.245 21.242-13.25 21.692" transform="translate(256 .207)"/>
            <path fill="#7F786A" d="M52.541 158.861L59.759 157.237 64.24 153.933 61.933 144.194 47.152 150.42 50.075 157.299zM59.663 137.782c-3.829-7.432-9.904-14.763-17.407-22.03l10.811 2.166c1.897 3.362 2.865 5.993 3.691 8.78 1.18 3.98 2.102 7.678 2.905 11.084" transform="translate(256 .207)"/>
            <path fill="#EABBAB" d="M25.547 14.64s-3.186-5.469-1.939-7.635c.663-1.152 3.034 7.322 3.034 7.322l-1.095.312zM23.488 21.092s3.044-5.233 5.025-4.97c1.013.135-1.997 3.044-2.607 5.633l-2.418-.663zM23.044 15.02s-3.593-1.017-3.662-2.398c-.033-.666 4.382 1.23 4.382 1.23l-.72 1.167z" transform="translate(256 .207)"/>
            <path fill="#EEC9BC" d="M39.266 38.465c-5.313-4.267-10.19-8.742-12.98-12.643l.566-11.13-2.048-2.826L20.67 8.19c-1.987 1.173 2.928 4.753 2.928 4.753s-3.954-2.285-4.3-2.12c-1.152.549 3.384 3.345 3.384 3.345.394 3.95-3.044 10.343-2.393 12.436.44 1.415 1.907 2.24 2.663 2.607 2.92 4.62 6.633 8.771 10.16 12.799l6.154-3.546z" transform="translate(256 .207)"/>
            <path fill="#F7F8FC" d="M97.679 41.489l13.44 28.114c1.657 3.468-.42 7.565-4.197 8.276l-23.57 4.442L97.68 41.49z" transform="translate(256 .207)"/>
            <path fill="#DDC4AF" d="M97.679 41.489s13.02 35.679 9.243 36.39l-23.57 4.442L97.68 41.49z" transform="translate(256 .207)"/>
            <path fill="#EAD5C1" d="M109.098 94.91c-.678 2.757-15.512 4.16-26.882 2-2.973-.57-5.714-1.379-7.896-2.473l-6.027-38.044-22.989-1.699c-2.619-.838-4.02-1.378-6.038-3.247-6.492-7.554-11.885-14.663-16.825-22.46l4.998-2.315C31.662 31.3 38.444 36.806 46 42.577c5.465 2.265 21.81-1.767 23.684-2.61l5.97-2.649 11.114-1.293c8.705.433 14.174 6.887 15.404 18.007.467 4.232.422 19.687 6.927 40.878" transform="translate(256 .207)"/>
            <path fill="#FFF" d="M74.9 37.611L88.61 36.138 87.66 33.465 74.9 36.282z" transform="translate(256 .207)"/>
            <path fill="#DDC4AF" d="M83.02 97.055l-.804-.146c-2.973-.569-5.713-1.378-7.895-2.472l-6.028-38.044c3.884.108 7.038-.093 9.757-.982.182 3.874-1.966 8.07-3.726 11.91-2.33 5.08-.385 5.646.675 7.577 1.059 1.926.974 3.988.729 6.09-.24 2.102-.894 1.646 0 5.104.9 3.458-1.52 4.793 2.512 6.494 4.557 1.923 5.092 4.237 4.78 4.47" transform="translate(256 .207)"/>
            <path fill="#7F786A" d="M89.117 183.817v-33.085h9.752l4.846 33.085H89.117zm-2.592 0H71.927l4.846-33.085h9.752v33.085zm20.687 9.22l-6.431-44.094H89.117v-20.566h-2.592v20.566H74.86l-6.432 44.093c-1.046 7.175-1.577 14.493-1.577 21.754v22.68h1.789v-23.368c0-7.04.502-14.072 1.504-21.04l1.07-7.456h15.066v51.863H89.36v-51.863h15.066l1.07 7.455c1.003 6.97 1.505 14.001 1.505 21.041v23.367h1.789V214.79c0-7.26-.531-14.579-1.578-21.754z" transform="translate(256 .207)"/>
            <path fill="#57575E" d="M65.064 121.223v4.917c0 2.717 2.202 4.919 4.919 4.919h34.864c2.71 0 4.927-2.217 4.927-4.927v-4.91h-44.71z" transform="translate(256 .207)"/>
            <path fill="#F7F8FC" d="M65.064 119.266v1.957h44.71v-1.957c0-.4-.326-.726-.726-.726H65.79c-.4 0-.726.327-.726.726" transform="translate(256 .207)"/>
            <path fill="#FFE2B7" d="M2.494 44.423c.05.355.15.621.296.796.27.32.73.48 1.384.48.391 0 .71-.042.953-.126.463-.162.694-.463.694-.902 0-.257-.113-.456-.34-.596-.227-.137-.586-.258-1.079-.364l-.842-.184c-.826-.183-1.395-.382-1.704-.596-.524-.359-.786-.92-.786-1.682 0-.697.256-1.275.77-1.736.511-.46 1.264-.69 2.257-.69.83 0 1.536.217 2.122.651.585.434.892 1.064.921 1.89H5.58c-.03-.467-.239-.799-.628-.996-.26-.13-.582-.195-.968-.195-.429 0-.77.084-1.027.253-.256.168-.384.404-.384.706 0 .278.126.486.378.623.163.091.507.198 1.033.321l1.364.322c.598.141 1.046.329 1.345.565.463.365.695.894.695 1.586 0 .711-.275 1.301-.824 1.77-.549.469-1.324.704-2.327.704-1.023 0-1.828-.231-2.414-.694-.586-.462-.88-1.097-.88-1.906h1.551zM8.732 46.822L8.732 39.05 10.346 39.05 10.346 42.014 13.367 42.014 13.367 39.05 14.981 39.05 14.981 46.822 13.367 46.822 13.367 43.352 10.346 43.352 10.346 46.822zM21.729 44.95c.378-.475.567-1.149.567-2.025 0-.872-.19-1.546-.567-2.022-.378-.476-.89-.715-1.532-.715-.643 0-1.157.238-1.54.712-.384.475-.576 1.15-.576 2.025 0 .876.192 1.55.576 2.025.383.475.896.712 1.54.712.643 0 1.154-.237 1.532-.712m1.015 1.181c-.587.605-1.436.907-2.547.907-1.111 0-1.96-.302-2.547-.907-.787-.742-1.181-1.81-1.181-3.206 0-1.424.393-2.493 1.18-3.206.587-.605 1.436-.907 2.547-.907 1.111 0 1.96.302 2.547.907.785.713 1.177 1.782 1.177 3.206 0 1.396-.393 2.464-1.177 3.206M29.354 40.658c-.206-.172-.494-.258-.864-.258h-1.464v2.288h1.463c.37 0 .659-.093.864-.28.206-.186.31-.481.31-.885 0-.405-.104-.693-.31-.865m1.24 2.8c-.454.38-1.105.57-1.95.57h-1.617v2.795h-1.614V39.05h3.338c.768 0 1.383.2 1.84.6.457.402.686 1.022.686 1.862 0 .918-.227 1.566-.683 1.946" transform="translate(256 .207)"/>
        </g>
        <g transform="translate(230 151.207)">
            <mask id="prefix__h" fill="#fff">
                <use xlink:href="#prefix__f"/>
            </mask>
            <path fill="url(#prefix__g)" d="M6.94.957C2.352 2.503-.298 7.296.832 12.005 4.2 23.712 16.517 34.219 27.799 43.146c.81.642 1.986.505 2.628-.305.641-.81.505-1.986-.305-2.628-10.828-8.569-22.634-18.6-25.694-29.241-.856-2.982.865-6.092 3.846-6.949 2.981-.856 6.092.866 6.949 3.847 2.043 7.109 12.201 15.894 21.866 23.542.81.642 1.987.506 2.628-.304.642-.81.506-1.987-.305-2.629-5.103-4.029-18.618-14.723-20.62-21.645-1.316-3.905-4.959-6.37-8.863-6.37-.991 0-1.998.159-2.989.493" mask="url(#prefix__h)"/>
        </g>
        <g transform="translate(209 136.207)">
            <mask id="prefix__k" fill="#fff">
                <use xlink:href="#prefix__i"/>
            </mask>
            <path fill="url(#prefix__j)" d="M24.1 1.04C11.189 4.746 3.725 18.215 7.43 31.126l.008.028c3.072 10.672-3.513 13.631-5.613 14.282-.986.31-1.533 1.36-1.223 2.346.309.985 1.361 1.534 2.346 1.224 5.721-1.789 11.277-7.806 8.086-18.888C7.887 19.196 14.19 7.791 25.112 4.645l.017-.005c10.798-3.034 22.049 3.085 25.368 13.799.044.147.107.286.187.416.195.322.595.999 12.621 10.758.802.651 1.98.53 2.632-.272.652-.802.53-1.98-.271-2.633-4.371-3.547-10.757-8.818-11.692-9.698C50.617 6.721 41.056.126 30.721.125c-2.19 0-4.413.296-6.621.915" mask="url(#prefix__k)"/>
        </g>
        <g transform="translate(215 143.207)">
            <mask id="prefix__n" fill="#fff">
                <use xlink:href="#prefix__l"/>
            </mask>
            <path fill="url(#prefix__m)" d="M20.161 1.236C11.39 3.944 6.298 13.072 8.603 21.958c3.779 17.211.954 21.185-6.798 23.609-.986.311-1.534 1.361-1.224 2.346.31.986 1.36 1.534 2.346 1.224 10.832-3.367 13.186-10.447 9.354-27.984-1.862-6.954 2.074-14.143 8.935-16.322 6.952-1.973 14.194 2.039 16.205 8.981.749 2.551 2.735 6.054 18.058 18.18.81.642 1.987.505 2.629-.305.641-.81.505-1.986-.305-2.628-13.908-11-16.288-14.483-16.811-16.295C38.855 5.386 32.117.584 24.797.584c-1.532 0-3.09.211-4.636.652" mask="url(#prefix__n)"/>
        </g>
        <g transform="translate(237 158.207)">
            <mask id="prefix__q" fill="#fff">
                <use xlink:href="#prefix__o"/>
            </mask>
            <path fill="url(#prefix__p)" d="M2.268.661C1.304.956.748 1.962 1.009 2.935c2.948 10.26 14.166 18.769 20.867 23.854 1.362.98 2.673 2.029 3.929 3.143.743.718 1.927.697 2.646-.046.7-.726.7-1.875 0-2.599-1.371-1.241-2.81-2.402-4.312-3.481-6.33-4.804-16.927-12.841-19.535-21.904C4.358 1.097 3.617.579 2.816.579c-.182 0-.366.026-.548.082" mask="url(#prefix__q)"/>
        </g>
        <g transform="translate(234 188.207)">
            <mask id="prefix__t" fill="#fff">
                <use xlink:href="#prefix__r"/>
            </mask>
            <path fill="url(#prefix__s)" d="M.2 13.462c-.064 1.03.72 1.918 1.75 1.982h.121c.989.003 1.809-.767 1.87-1.754.236-3.854 1.71-9.467 3.742-9.467 2.772 0 4.741 2.672 6.319 4.816.522.743 1.094 1.451 1.71 2.118.744.718 1.928.697 2.646-.046.7-.725.7-1.874 0-2.599-.484-.535-.933-1.099-1.344-1.692C15.124 3.312 11.641.946 7.683.482 1.322.482.338 11.295.2 13.462" mask="url(#prefix__t)"/>
        </g>
        <g transform="translate(222 177.207)">
            <mask id="prefix__w" fill="#fff">
                <use xlink:href="#prefix__u"/>
            </mask>
            <path fill="url(#prefix__v)" d="M9.718.436c-.914.331-1.422 1.307-1.17 2.246 1.602 5.002-1.546 14.82-6.279 16.358-.985.309-1.534 1.358-1.227 2.344.309.986 1.36 1.535 2.345 1.226l.039-.012c7.199-2.32 10.671-14.824 8.687-21.039-.275-.762-.994-1.235-1.759-1.235-.211 0-.426.036-.636.112" mask="url(#prefix__w)"/>
        </g>
        <g transform="translate(208 128.207)">
            <mask id="prefix__z" fill="#fff">
                <use xlink:href="#prefix__x"/>
            </mask>
            <path fill="url(#prefix__y)" d="M.008 32.419c0 1.033.837 1.871 1.87 1.871 1.034 0 1.871-.838 1.871-1.871C3.766 16.927 16.32 4.373 31.812 4.356c15.18 0 20.498 8.583 24.77 15.483 2.515 4.06 4.684 7.566 8.329 8.748.98.33 2.041-.197 2.371-1.175.329-.979-.197-2.04-1.176-2.37l-.038-.013-.005-.004c-2.338-.748-4.176-3.741-6.304-7.157C55.254 10.586 49.076.615 31.812.615 14.256.635.029 14.863.008 32.419" mask="url(#prefix__z)"/>
        </g>
        <g transform="translate(208 166.207)">
            <mask id="prefix__C" fill="#fff">
                <use xlink:href="#prefix__A"/>
            </mask>
            <path fill="url(#prefix__B)" d="M.008 1.902c.3 2.257 1.001 4.441 2.069 6.452.317.632.964 1.032 1.672 1.032 1.034 0 1.871-.838 1.871-1.871 0-.291-.068-.578-.198-.838C4.624 5.18 4.059 3.57 3.749 1.902 3.749.869 2.911.031 1.878.031S.008.869.008 1.902" mask="url(#prefix__C)"/>
        </g>
        <g transform="translate(209 121.207)">
            <mask id="prefix__F" fill="#fff">
                <use xlink:href="#prefix__D"/>
            </mask>
            <path fill="url(#prefix__E)" d="M1.148 12.258c-.534.883-.253 2.031.628 2.566.883.539 2.034.26 2.572-.622l.003-.006c1.624-2.679 9.623-10.324 24.59-10.324 14.383 0 24.617 7.286 26.462 10.324.535.884 1.686 1.165 2.57.628.883-.535 1.165-1.686.629-2.57C56.035 8.026 44.701.131 28.941.131 12.182.131 3.198 8.883 1.148 12.258" mask="url(#prefix__F)"/>
        </g>
        <g transform="translate(219 113.207)">
            <mask id="prefix__I" fill="#fff">
                <use xlink:href="#prefix__G"/>
            </mask>
            <path fill="url(#prefix__H)" d="M18.941.648C9.048.648 6.572 1.92 3.429 3.532c-.633.326-1.306.671-2.092 1.022-.96.382-1.429 1.469-1.047 2.43.381.96 1.468 1.429 2.429 1.047.049-.019.097-.04.144-.065h-.011c.857-.373 1.583-.748 2.271-1.122 2.814-1.418 4.838-2.455 13.818-2.455 6.063-.334 12.129.637 17.784 2.848.715.266 1.434.531 2.185.79.196.067.403.102.61.104 1.034.002 1.872-.834 1.874-1.867.002-.801-.506-1.514-1.263-1.773-.727-.251-1.415-.505-2.104-.749C32.679 1.656 26.994.589 21.266.589c-.775 0-1.549.019-2.325.059" mask="url(#prefix__I)"/>
        </g>
        <g transform="translate(267 136.207)">
            <mask id="prefix__L" fill="#fff">
                <use xlink:href="#prefix__J"/>
            </mask>
            <path fill="url(#prefix__K)" d="M1.762.39C.881.932.606 2.083 1.148 2.964c1.393 2.242 2.583 4.603 3.555 7.057.351.972 1.424 1.474 2.396 1.122.913-.33 1.422-1.306 1.17-2.245C7.207 6.15 5.89 3.506 4.336 1.003 3.982.429 3.368.112 2.74.112c-.334 0-.673.09-.978.278" mask="url(#prefix__L)"/>
        </g>
        <g transform="translate(230 151.207)">
            <mask id="prefix__O" fill="#fff">
                <use xlink:href="#prefix__M"/>
            </mask>
            <path fill="url(#prefix__N)" d="M7.745.726C2.721 1.932-.374 6.981.832 12.005 4.2 23.712 16.506 34.215 27.787 43.146c.33.262.739.404 1.16.404l-.03-.003c.573.001 1.115-.26 1.469-.709.642-.81.505-1.988-.305-2.628-10.825-8.569-22.63-18.601-25.69-29.242-.857-2.979.864-6.09 3.844-6.947 2.979-.855 6.09.865 6.947 3.845 2.039 7.113 12.205 15.895 21.87 23.542.029.026.059.049.09.072.829.616 2.001.442 2.617-.387.615-.83.443-2.002-.387-2.618-5.074-4.025-18.589-14.724-20.58-21.641C17.486 2.958 13.865.466 9.934.466c-.724 0-1.457.084-2.189.26" mask="url(#prefix__O)"/>
        </g>
        <g transform="translate(209 136.207)">
            <mask id="prefix__R" fill="#fff">
                <use xlink:href="#prefix__P"/>
            </mask>
            <path fill="url(#prefix__Q)" d="M24.1 1.041l-.02.006C11.171 4.759 3.718 18.234 7.43 31.143 10.495 41.81 3.909 44.77 1.818 45.425c-.779.245-1.309.966-1.31 1.781-.002 1.033.835 1.872 1.868 1.875.192 0 .384-.028.568-.087 5.725-1.788 11.278-7.808 8.09-18.888l-.001-.004C7.894 19.179 14.205 7.779 25.129 4.64c10.8-3.037 22.053 3.083 25.372 13.799.045.145.106.283.183.412.195.323.595.999 12.625 10.762.786.599 1.904.483 2.55-.265.676-.782.589-1.964-.192-2.639-4.371-3.548-10.758-8.823-11.69-9.699C50.621 6.719 41.063.123 30.726.124c-2.19 0-4.417.297-6.626.917" mask="url(#prefix__R)"/>
        </g>
        <g transform="translate(215 143.207)">
            <mask id="prefix__U" fill="#fff">
                <use xlink:href="#prefix__S"/>
            </mask>
            <path fill="url(#prefix__T)" d="M20.157 1.236C11.388 3.946 6.296 13.072 8.6 21.958c3.779 17.204.957 21.185-6.795 23.609-.779.245-1.309.966-1.311 1.782-.002 1.033.834 1.872 1.868 1.874.182.001.364-.025.539-.078 10.85-3.383 13.205-10.443 9.354-27.985-1.873-6.959 2.062-14.159 8.931-16.339 6.954-1.986 14.204 2.031 16.209 8.98.73 2.544 2.717 6.05 18.058 18.181.029.024.059.048.09.071.829.615 2.001.443 2.617-.388.616-.829.443-2.001-.387-2.617-13.885-10.993-16.261-14.477-16.781-16.284C38.848 5.386 32.109.586 24.787.587c-1.53 0-3.086.21-4.63.649" mask="url(#prefix__U)"/>
        </g>
        <g transform="translate(237 158.207)">
            <mask id="prefix__X" fill="#fff">
                <use xlink:href="#prefix__V"/>
            </mask>
            <path fill="url(#prefix__W)" d="M2.253.599C1.266.901.71 1.947 1.012 2.935c2.949 10.26 14.166 18.769 20.868 23.854 1.361.982 2.673 2.032 3.928 3.146.352.35.829.548 1.325.547.494-.001.967-.197 1.317-.547.731-.729.733-1.914.004-2.646-1.372-1.241-2.812-2.404-4.315-3.483-6.33-4.805-16.911-12.842-19.531-21.904l-.017-.062C4.344 1.034 3.603.516 2.802.517c-.182 0-.366.026-.549.082" mask="url(#prefix__X)"/>
        </g>
        <g transform="translate(234 188.207)">
            <mask id="prefix__aa" fill="#fff">
                <use xlink:href="#prefix__Y"/>
            </mask>
            <path fill="url(#prefix__Z)" d="M.2 13.465c-.064 1.032.72 1.919 1.75 1.984h.121c.989.002 1.809-.768 1.87-1.755.236-3.858 1.714-9.471 3.741-9.471 2.778 0 4.745 2.672 6.339 4.827.52.744 1.092 1.451 1.71 2.115.725.7 1.875.7 2.599 0 .744-.718.764-1.903.046-2.646-.483-.533-.93-1.098-1.339-1.691C15.141 3.314 11.649.946 7.683.485 1.322.485.334 11.299.2 13.465" mask="url(#prefix__aa)"/>
        </g>
        <g transform="translate(222 177.207)">
            <mask id="prefix__ad" fill="#fff">
                <use xlink:href="#prefix__ab"/>
            </mask>
            <path fill="url(#prefix__ac)" d="M9.625.279c-.965.37-1.447 1.453-1.077 2.418 1.579 5.002-1.549 14.82-6.279 16.358-.775.249-1.299.97-1.298 1.785.002 1.033.841 1.868 1.874 1.866.195.006.39-.019.576-.074 7.192-2.349 10.676-14.843 8.689-21.058-.019-.074-.042-.146-.069-.217-.285-.745-.994-1.202-1.747-1.202-.222 0-.449.04-.669.124" mask="url(#prefix__ad)"/>
        </g>
        <g transform="translate(208 128.207)">
            <mask id="prefix__ag" fill="#fff">
                <use xlink:href="#prefix__ae"/>
            </mask>
            <path fill="url(#prefix__af)" d="M.008 32.419c0 1.033.837 1.871 1.87 1.871 1.034 0 1.871-.838 1.871-1.871C3.766 16.927 16.32 4.373 31.812 4.357c15.18 0 20.497 8.583 24.77 15.479 2.515 4.059 4.684 7.565 8.329 8.748l.038.012c.987.309 2.036-.241 2.345-1.226.308-.987-.241-2.036-1.227-2.345-2.338-.759-4.176-3.727-6.304-7.157C55.254 10.586 49.076.615 31.812.615 14.256.635.029 14.863.008 32.419" mask="url(#prefix__ag)"/>
        </g>
        <g transform="translate(209 121.207)">
            <mask id="prefix__aj" fill="#fff">
                <use xlink:href="#prefix__ah"/>
            </mask>
            <path fill="url(#prefix__ai)" d="M1.152 12.254c-.024.038-.049.077-.07.117-.505.902-.182 2.041.72 2.545.901.504 2.041.182 2.546-.72 1.627-2.679 9.627-10.324 24.593-10.324 14.383 0 24.62 7.286 26.462 10.324.339.56.946.902 1.601.902.341-.001.675-.093.967-.271.883-.534 1.166-1.686.631-2.569C56.035 8.026 44.702.131 28.942.131c-16.76 0-25.744 8.752-27.79 12.123" mask="url(#prefix__aj)"/>
        </g>
        <g transform="translate(219 113.207)">
            <mask id="prefix__am" fill="#fff">
                <use xlink:href="#prefix__ak"/>
            </mask>
            <path fill="url(#prefix__al)" d="M18.942.648c-9.89 0-12.37 1.272-15.491 2.881-.636.325-1.306.669-2.095 1.025-.947.418-1.375 1.525-.957 2.472.419.947 1.526 1.374 2.472.956.853-.397 1.583-.767 2.271-1.123 2.795-1.433 4.82-2.47 13.799-2.47 6.063-.331 12.126.641 17.78 2.852.716.262 1.441.531 2.19.789.196.068.402.101.609.101.826.015 1.564-.513 1.817-1.299.316-.983-.226-2.037-1.21-2.353-.725-.235-1.415-.493-2.103-.748C32.682 1.651 27.007.588 21.288.588c-.781 0-1.564.02-2.346.06" mask="url(#prefix__am)"/>
        </g>
        <g transform="translate(267 136.207)">
            <mask id="prefix__ap" fill="#fff">
                <use xlink:href="#prefix__an"/>
            </mask>
            <path fill="url(#prefix__ao)" d="M1.765.374C.885.916.61 2.068 1.151 2.949c1.394 2.247 2.583 4.614 3.555 7.072.248.775.968 1.302 1.781 1.302.193 0 .385-.03.568-.088.984-.314 1.528-1.367 1.214-2.351C7.207 6.135 5.893 3.492 4.339.988 3.986.414 3.372.097 2.744.097c-.335 0-.673.09-.979.277" mask="url(#prefix__ap)"/>
        </g>
        <g>
            <path fill="#619440" d="M90.227 171.73c-33.97 3.28-66.387-74.916-78.81-106.332C3.25 44.737 1.762 22.187.363.05 35.85 11.976 78.737 39.41 95.825 72.358c2.838 5.472 4.822 14.148 5.964 20.19 2.389 12.653 3.723 53.728 2.569 66.559-.362 4.016 1.099 11.153-14.131 12.623" transform="translate(7 4.207)"/>
            <path fill="#306B34" d="M4.57 5.688c.714-.618 1.801-.547 2.427.157 7.8 8.783 15.102 17.579 21.995 26.503 1.761-4.871 2.486-8.892 2.584-14.037.018-.623.536-1.123 1.17-1.111.632.01 1.136.528 1.126 1.154-.071 3.595-.446 6.734-1.245 9.953-.493 1.987-1.148 4.006-1.99 6.18 5.405 7.082 10.554 14.252 15.484 21.568.283-2.8.761-5.562 1.23-8.27.526-3.033.929-5.161 1.334-7.284.405-2.136.811-4.267 1.338-7.32.105-.62.701-1.03 1.325-.924.625.105 1.045.69.938 1.307-.531 3.067-.939 5.208-1.345 7.355-.402 2.114-.805 4.23-1.328 7.249-.624 3.598-1.263 7.297-1.419 10.986 5.993 9.055 11.663 18.346 17.084 27.98l5.324-17.437c.839-2.745 1.71-5.59 1.798-8.465.028-.615.549-1.116 1.181-1.097.635.019 1.133.54 1.114 1.166-.054 1.76-.358 3.462-.77 5.122-.332 1.335-.732 2.642-1.128 3.93l-5.973 19.56c6.52 11.773 12.686 24.063 18.617 37.08.165.359.191.744.103 1.1-.122.49-.462.923-.965 1.147-.868.384-1.885.002-2.275-.854-2.695-5.915-5.442-11.673-8.246-17.306h-.005c-6.146-.81-10.9-1.645-15.5-2.454-4.576-.804-9.306-1.636-15.403-2.438-.627-.083-1.07-.652-.985-1.273.082-.608.658-1.056 1.288-.973 6.146.81 10.901 1.646 15.501 2.454 4.183.736 8.509 1.494 13.877 2.23-3.611-7.161-7.32-14.118-11.159-20.9-7.397-1.563-13.807-2.955-20.213-4.346-6.604-1.434-13.208-2.867-20.901-4.49-.618-.132-1.013-.733-.882-1.345.218-.607.742-1.002 1.363-.871 7.696 1.624 14.305 3.059 20.913 4.494 5.822 1.265 11.645 2.528 18.212 3.922-4.459-7.76-9.091-15.3-13.935-22.677-.027-.026-.048-.056-.073-.084-.223.078-.471.09-.714.019-12.527-3.763-21.983-5.781-34.887-7.446-.628-.082-1.071-.65-.988-1.27.095-.635.661-1.057 1.287-.977 12.452 1.607 21.73 3.542 33.567 7.025-4.46-6.686-9.097-13.247-13.945-19.725-9.004-3.873-14.021-4.573-23.399-4.581-.635-.001-1.148-.51-1.147-1.134-.002-.626.513-1.131 1.146-1.133 8.841.008 14.003.763 20.725 3.31-7.295-9.554-15.058-18.95-23.39-28.331-.631-.704-.558-1.777.159-2.398" transform="translate(7 4.207)"/>
            <path fill="#FFDE8E" d="M28.738 146.6c4.409 30.118 29.76 66.36 59.058 78.269 9.357 3.803 20.646 6.009 29.636 1.07 8.528-4.683 12.52-14.836 11.766-24.035-.753-9.198-5.445-17.591-10.775-25.203-5.525-7.89-11.9-15.322-19.692-21.234-7.792-5.911-16.987-11.047-27.062-11.524-21.803-1.034-36.037 1.96-42.931 2.658" transform="translate(7 4.207)"/>
        </g>
        <g transform="translate(35 147.207)">
            <mask id="prefix__ar" fill="#fff">
                <use xlink:href="#prefix__aq"/>
            </mask>
            <path fill="#FFBF4D" d="M.738 3.601s94.01 75.482 95.86 72.847c3.541-5.046 5.095-11.501 4.6-17.544-.753-9.199-5.445-17.592-10.775-25.203-5.525-7.89-11.9-15.322-19.692-21.234C62.939 6.555 53.745 1.42 43.668.943c-3.156-.15-6.154-.215-8.994-.215C17.898.728 6.634 3.005.738 3.601" mask="url(#prefix__ar)"/>
        </g>
        <path fill="#306B34" d="M11.466 200.019c0 2.78 2.254 5.035 5.035 5.035 2.78 0 5.036-2.254 5.036-5.035s-2.255-5.036-5.036-5.036c-2.781 0-5.035 2.255-5.035 5.036"/>
        <g transform="translate(24 189.207)">
            <mask id="prefix__au" fill="#fff">
                <use xlink:href="#prefix__as"/>
            </mask>
            <path fill="url(#prefix__at)" d="M.557 4.307c0 1.836 1.489 3.323 3.324 3.323 1.835 0 3.323-1.487 3.323-3.323 0-1.836-1.488-3.323-3.323-3.323S.557 2.471.557 4.307" mask="url(#prefix__au)"/>
        </g>
        <g transform="translate(17 184.207)">
            <mask id="prefix__ax" fill="#fff">
                <use xlink:href="#prefix__av"/>
            </mask>
            <path fill="url(#prefix__aw)" d="M.498 3.002c0 1.284 1.042 2.327 2.326 2.327 1.285 0 2.327-1.043 2.327-2.327 0-1.285-1.042-2.326-2.327-2.326C1.54.676.498 1.717.498 3.002" mask="url(#prefix__ax)"/>
        </g>
        <g>
            <path fill="#FCBD30" d="M93.833 12.332s1.144 6.056 1.979 7.284c.836 1.228 5.155 5.692 10.687 6.436 5.532.745 2.986-20.91 2.986-20.91l-15.652 7.19z" transform="translate(38 2.207)"/>
            <path fill="#E7E1D3" d="M138.443 79.625c3.855.481 10.073-3.524 9.974-5.956-.565-13.813-8.32-20.886-13.7-26.966-6.913-7.812-18.498-19.263-26.748-14.943l1.615 2.765s15.129 43.387 28.859 45.1" transform="translate(38 2.207)"/>
            <path fill="#FFE2B7" d="M3.847 199.022c-.16-1.042.555-2.016 1.597-2.176l9.812-1.504c1.042-.159 2.017.556 2.176 1.598.16 1.042-.555 2.016-1.597 2.176l-9.812 1.503c-1.042.16-2.016-.555-2.176-1.597" transform="translate(38 2.207)"/>
            <path fill="#7F786A" d="M.937 210.452c-.523-.05-.906-.527-.854-1.065l1.257-13.065c.066-.69.73-1.147 1.374-.948l2.292.41c.655.118 1.11.732 1.044 1.413 0 0-1.046.237-1.32 1.45-.223.983.546 1.395 1.111 1.562.273.08.412.404.283.678l-4.244 9.03c-.178.36-.552.573-.943.535" transform="translate(38 2.207)"/>
            <path fill="#FFE2B7" d="M167.48 231.595c-.925.503-2.084.16-2.587-.766l-4.738-8.723c-.503-.927-.16-2.085.766-2.588.927-.503 2.085-.16 2.588.766l4.738 8.723c.503.926.16 2.085-.766 2.588" transform="translate(38 2.207)"/>
            <path fill="#7F786A" d="M95.702 87.276c-4.23 4.562-6.771 39.59-6.771 39.59l29.49 36.719 42.317 61.61 18.333-7.625s-12.28-33.348-23.717-58.151c-10.768-23.352-34.284-81.41-35.285-84.102-3.724 1.458-14.183 10.338-24.367 11.959" transform="translate(38 2.207)"/>
            <path fill="#A29C8F" d="M85.198 83.496c-5.989 8.156-15.014 16.177-20.15 29.135-6.104 15.394-9.21 59.045-9.21 59.045l-44.14 21.702 3.548 16.772s53.991 9.77 74.72-35.398c2.55-5.558 12.89-26.178 18.807-46.174 6.99-23.624 9.464-46.635 9.464-46.635s-30.429 3.21-33.039 1.553" transform="translate(38 2.207)"/>
            <path fill="#7F786A" d="M178.987 230.83c.144.506-.148 1.031-.65 1.173l-12.2 3.461c-.644.182-1.294-.275-1.347-.946l-.458-2.283c-.131-.652.257-1.293.893-1.473 0 0 .59.89 1.78.716.965-.14 1.056-1.003 1.004-1.59-.025-.283.214-.527.507-.504l9.65.757c.388.038.714.312.82.69" transform="translate(38 2.207)"/>
            <path fill="#F5EFE4" d="M124.933 83.267s-4.618 3.809-16.772 3.798c-11.124-.011-24.799-3.343-25.282-5.332-1.872-7.688-2.719-31.052-2.719-31.052-.141-8.458-5.584-19.687 3.448-20.723 5.227-.6 26.168.584 26.168.584 9.089-.151 14.75 13.553 15.93 23.87.963 8.423-.773 28.855-.773 28.855" transform="translate(38 2.207)"/>
            <path fill="#FFE2B7" d="M108.068 33.11c-1.686-.03-3.027-1.421-2.997-3.107l.08-4.354c.03-1.684 1.421-3.027 3.107-2.997 1.685.031 3.027 1.422 2.996 3.108l-.079 4.353c-.03 1.686-1.42 3.028-3.107 2.998" transform="translate(38 2.207)"/>
            <path fill="#FFC581" d="M105.158 25.237c.026-1.458 1.414-2.615 3.1-2.584 1.685.031 3.03 1.237 3.004 2.695l-.069 3.814c-.015.796-2.26.263-3.972-1.011-1.12-.835-2.078-2.087-2.078-2.087l.015-.827z" transform="translate(38 2.207)"/>
            <path fill="#FFE2B7" d="M103.817 16.79c-.149-3.527 1.734-6.54 4.947-7.19 6.876-1.392 7.078 8.084 7.087 12.073.01 4.427-1.36 5.58-1.36 5.58s-3.698.694-6.23-.197c-2.154-.756-3.377-1.032-3.826-4.455-.4-3.057-.555-4.327-.618-5.811" transform="translate(38 2.207)"/>
            <path fill="#FFE2B7" d="M104.465 19.093c1.002 1.267 1.23 2.756.51 3.325-.72.569-2.115.003-3.117-1.264-1.002-1.268-1.23-2.758-.51-3.326.72-.57 2.116-.003 3.117 1.265" transform="translate(38 2.207)"/>
            <path fill="#352E73" d="M61.467 85.913c1.652.304 3.238-.789 3.542-2.44l1.245-6.77c.304-1.654-.79-3.24-2.441-3.543-1.652-.304-3.238.79-3.542 2.441l-1.245 6.77c-.304 1.652.789 3.238 2.44 3.542" transform="translate(38 2.207)"/>
            <path fill="#FF881D" d="M59.334 81.815L64.919 82.842 65.946 77.257 60.361 76.23z" transform="translate(38 2.207)"/>
            <path fill="#FF881D" d="M65.177 77.788L60.89 77l-.788 4.285 4.285.788.788-4.285zm-6.494 3.908l1.029-5.585c.066-.36.41-.596.768-.53l5.586 1.027c.172.032.325.13.424.275.1.144.138.322.106.494l-1.028 5.585c-.067.36-.41.597-.77.53l-5.584-1.027c-.051-.01-.1-.024-.145-.044-.276-.12-.442-.417-.386-.725z" transform="translate(38 2.207)"/>
            <path fill="#FCC23F" d="M60.785 83.987L62.789 84.356 63.394 81.069 61.389 80.7z" transform="translate(38 2.207)"/>
            <path fill="#FCC23F" d="M62.625 81.599l-.705-.13-.365 1.987.704.13.366-1.987zm-2.383 2.763c-.1-.144-.138-.323-.106-.495l.604-3.287c.032-.171.13-.325.275-.424.144-.1.323-.138.495-.106l2.004.369c.17.033.326.13.424.275.1.144.138.322.106.494l-.605 3.287c-.066.359-.41.597-.77.53l-2.003-.368c-.05-.01-.1-.025-.145-.045-.112-.05-.21-.128-.28-.23z" transform="translate(38 2.207)"/>
            <path fill="#FCBD30" d="M113.276 11.023c.185.108 2.323-2.427 1.133-6.35-1.191-3.924-8.75-5.645-14.285-.053-5.047 5.1-6.994 1.739-6.781.324 0 0-1.621 1.14-.653 2.96 0 0-2.142-.213-1.611-2.673 0 0-4.38 3.443-.13 6.746 0 0-1.043.192-1.862-.777 0 0-.325 2.095.867 3.209 1.256 1.175 2.384 1.206 3.866.653 1.377-.514 2.649-2.547 4.953-1.887 2.305.659 3.352 3.85 7.813-1.308 0 0 3.162-2.917 6.69-.844" transform="translate(38 2.207)"/>
            <path fill="#FFE2B7" d="M114.408 4.673c-.78-2.08-2.994-3.124-5.042-3.314-1.042-.13-2.108-.074-3.13.168-1.028.207-2.007.614-2.922 1.117-.448.27-.905.526-1.31.86-.433.296-.828.639-1.204 1.005-.77.705-1.557 1.533-2.481 2.155-.91.614-2.003 1.216-3.292 1.045-.635-.09-1.238-.475-1.602-.997-.364-.524-.58-1.134-.504-1.831l.666.41c-.153.116-.34.308-.465.492-.132.19-.228.397-.28.612-.11.427-.014.888.205 1.319l.012.024c.099.194.022.432-.172.53-.076.039-.16.05-.238.039-.386-.058-.69-.173-1.004-.361-.302-.188-.578-.454-.751-.78-.173-.325-.264-.681-.28-1.024-.02-.344.028-.672.09-.991l.61.38c-.931.789-1.747 1.91-1.852 3.096-.053.589.074 1.199.408 1.72.122.284.369.5.55.755.219.228.466.436.697.657l.035.033c.106.1.11.269.008.376-.044.046-.102.073-.162.08-.436.05-.811-.03-1.178-.187-.36-.16-.671-.414-.914-.708l.414-.117c-.081.585-.07 1.222.069 1.805.135.597.44 1.115.93 1.508.463.408 1.026.709 1.645.774.618.07 1.253-.066 1.856-.261-.585.24-1.211.443-1.868.41-.657-.026-1.288-.315-1.801-.715-.536-.372-.955-.973-1.133-1.614-.197-.644-.234-1.304-.165-1.98.013-.126.126-.22.253-.206.06.007.112.034.148.076l.013.015c.213.237.468.427.754.542.276.115.618.156.877.116l-.12.488c-.26-.228-.535-.443-.786-.687-.22-.278-.494-.51-.66-.836-.408-.592-.612-1.354-.57-2.091.033-.743.317-1.441.689-2.044.384-.606.83-1.133 1.39-1.606.16-.134.399-.114.534.045.075.089.102.202.083.309l-.005.028c-.047.266-.082.53-.063.783.014.253.083.483.19.684.109.202.28.36.482.486.196.12.465.208.668.236l-.398.593c-.292-.542-.46-1.234-.297-1.89.073-.324.212-.63.393-.895.188-.271.382-.492.669-.713.183-.14.445-.107.585.076.067.086.094.19.085.29l-.004.045c-.072.803.533 1.79 1.406 1.89.88.142 1.87-.312 2.709-.882.875-.576 1.59-1.31 2.415-2.051.795-.77 1.726-1.397 2.707-1.91.987-.496 2.037-.885 3.13-1.064 1.084-.213 2.207-.231 3.295-.054 1.083.185 2.15.548 3.058 1.173.905.614 1.653 1.509 1.925 2.564" transform="translate(38 2.207)"/>
            <path fill="#5F5EAA" d="M109.938 37.041c-1.258.067-2.332-.897-2.4-2.155l-.131-2.458c-.006-.116.082-.215.198-.22l4.135-.223c.115-.006.214.083.22.198l.133 2.46c.067 1.256-.898 2.33-2.155 2.398" transform="translate(38 2.207)"/>
            <path fill="#E7E1D3" d="M106.417 37.015s-2.661-2.5-3.306-3.407c-.607-.854-1.671-3.517-1.671-3.517l3.647-2.51s1.323 1.857 1.878 2.371c.762.705 3.44 2.317 3.44 2.317l-3.988 4.746z" transform="translate(38 2.207)"/>
            <path fill="#E7E1D3" d="M114.006 35.814l.138-4.615-2.931-2.396s-.061 1.253-.225 1.63c-.23.524-1.13 1.925-1.13 1.925l4.148 3.456z" transform="translate(38 2.207)"/>
            <path fill="#FFBF4D" d="M113.258 113.552c-15.352 19.844-43.944 23.192-63.86 7.48-19.918-15.713-23.618-44.538-8.265-64.38 15.352-19.845 43.944-23.193 63.861-7.48 19.918 15.713 23.618 44.537 8.264 64.38" transform="translate(38 2.207)"/>
        </g>
        <g transform="translate(79 49.207)">
            <mask id="prefix__az" fill="#fff">
                <use xlink:href="#prefix__ay"/>
            </mask>
            <path fill="#FFBF4D" d="M7.94 14.689c-12.317 15.922-9.349 39.048 6.63 51.654 15.981 12.607 38.921 9.92 51.238-6 12.318-15.921 9.349-39.047-6.63-51.655C52.397 3.339 44.366.743 36.422.744c-10.777 0-21.391 4.78-28.482 13.945" mask="url(#prefix__az)"/>
        </g>
        <g>
            <path fill="#FFDE8E" d="M58.46 46.144c1.047.926 2.825.629 3.968-.664 1.143-1.292 1.22-3.093.174-4.02L51.22 31.395l-7.587-6.711c-1.047-.927-2.825-.63-3.968.663-1.144 1.293-1.222 3.093-.175 4.02l7.588 6.71c2.469 2.186 2.82 5.994 1.199 9.409l-12.93-11.436c-1.046-.926-2.824-.63-3.967.664-1.144 1.292-1.222 3.093-.175 4.019l12.93 11.436c-3.193 2.027-7.015 2.143-9.485-.041l-7.587-6.712c-.247-.218-.547-.375-.882-.462-.674-.171-1.448-.046-2.151.359-.7.4-1.27 1.047-1.582 1.79-.162.374-.25.755-.262 1.128l-1.394 32.148c-.035.788.248 1.447.733 1.876.486.43 1.175.63 1.948.505 1.548-.26 2.86-1.744 2.929-3.311l1.098-25.3 3.008 2.662c4.583 4.054 11.973 3.412 17.576-1.148l2.09 1.849c1.047.926 2.825.629 3.968-.664 1.143-1.293 1.222-3.094.174-4.02l-2.09-1.85c1.257-1.992 2.019-4.123 2.39-6.232l3.843 3.399z" transform="translate(79 31.207)"/>
            <path fill="#FF881D" d="M8.207 32.563l2.244-2.757c.816-.858 1.675-1.678 2.514-2.521.893-.781 1.848-1.491 2.77-2.241.966-.691 1.99-1.3 2.985-1.955 4.11-2.408 8.735-3.928 13.478-4.535 4.75-.554 9.627-.174 14.233 1.184 1.133.4 2.28.759 3.396 1.194 1.088.51 2.193.98 3.262 1.523 1.028.623 2.069 1.22 3.08 1.86l2.877 2.157c-3.852-2.844-8.186-4.985-12.754-6.211-4.562-1.23-9.343-1.605-14.002-1.007-4.666.539-9.198 2.037-13.302 4.306-4.11 2.268-7.762 5.355-10.781 9.003" transform="translate(79 31.207)"/>
            <path fill="#FFAF12" d="M59.325 26.692c2.805 2.284 5.38 4.868 7.507 7.821 2.065 2.986 3.767 6.228 4.969 9.667 1.12 3.463 1.777 7.062 1.955 10.693.09 3.635-.333 7.261-1.21 10.777-.937 3.505-2.433 6.827-4.29 9.924-1.042 1.471-1.991 3.016-3.227 4.336l-.88 1.027c-.15.17-.288.347-.445.51l-.49.465-1.958 1.863c-2.76 2.316-5.797 4.3-9.094 5.773-3.32 1.412-6.821 2.372-10.407 2.85-3.6.365-7.241.24-10.82-.363-3.571-.669-7.021-1.893-10.284-3.504l-2.372-1.356-.593-.339c-.193-.12-.373-.262-.56-.39l-1.114-.795c-1.533-.995-2.845-2.276-4.23-3.463-2.584-2.577-4.876-5.454-6.673-8.639-1.74-3.21-3.067-6.63-3.898-10.179C.465 59.805.19 56.16.403 52.542.7 48.927 1.532 45.388 2.78 42.014c1.317-3.357 3.163-6.458 5.307-9.32-2.1 2.898-3.888 6.022-5.145 9.383C1.752 45.457.985 48.984.748 52.57c-.171 3.588.128 7.19.897 10.706.854 3.498 2.194 6.861 3.935 10.008 1.802 3.12 4.079 5.93 6.62 8.463 1.367 1.162 2.659 2.42 4.17 3.392l1.097.778c.184.127.362.265.552.382l.584.331 2.334 1.327c3.21 1.571 6.602 2.764 10.109 3.411 3.515.581 7.088.691 10.619.325 3.519-.459 6.958-1.39 10.22-2.765 3.24-1.437 6.23-3.377 8.949-5.644l1.93-1.825.482-.456c.155-.158.292-.333.439-.499l.868-1.007c1.22-1.293 2.156-2.812 3.187-4.255 1.827-3.044 3.326-6.296 4.285-9.739.894-3.456 1.344-7.029 1.288-10.62-.144-3.589-.765-7.154-1.838-10.596-1.137-3.425-2.775-6.67-4.783-9.675-2.07-2.972-4.597-5.59-7.367-7.919" transform="translate(79 31.207)"/>
            <path fill="#F5EFE4" d="M14.157 31.711S5.545 24.172 6.58 20.896C9.65 11.19 33.229.782 43.987.961c16.22.27 12.096 13.183 12.096 13.183L14.157 31.711z" transform="translate(79 31.207)"/>
            <path fill="#FFC581" d="M38.716 70.645c-.146.707-.838 1.162-1.545 1.015l-3.231-.67.265-1.28 4.511.935zM39.608 74.844c-.319.55-1.025.739-1.576.419l-2.988-1.731.578-.998 3.986 2.31z" transform="translate(79 31.207)"/>
            <path fill="#FFC581" d="M36.422 73.252s-1.176 1.89-1.866 2.278c-.528.296-1.538.162-1.866-.138-.86-.788-2.409-2.702-1.866-3.808.26-.53 1.504-1.218 2.464-1.686.636-.312 1.327-.202 1.556.248l1.578 3.106z" transform="translate(79 31.207)"/>
            <path fill="#FFC581" d="M36.809 75.376c-.563-.65-3.49-2.554-3.49-2.554l-.687 1.113s2.913 1.985 3.668 2.26c.419.153.832-.445.509-.819" transform="translate(79 31.207)"/>
            <path fill="#FFC581" d="M37.86 75.07c-.562-.651-3.49-2.554-3.49-2.554l-.686 1.113s2.912 1.985 3.667 2.26c.419.153.832-.445.509-.819M35.672 75.866c-.358-.467-2.337-1.542-2.337-1.542l-.58 1.17s1.96 1.155 2.487 1.235c.292.045.636-.594.43-.863" transform="translate(79 31.207)"/>
            <path fill="#7F786A" d="M31.623 15.546c1.193-1.753 1.93-3.607 2.378-5.934 2.829.372 3.405.543 6.62.479 3.63 6.633 21.377 8.863 27.7-3.57.004.015 1.529-.11 1.475.243-.844 9.139-10.18 16.283-19.615 17.152-14.53 1.337-18.564-8.36-18.558-8.37" transform="translate(79 31.207)"/>
            <path fill="#FFC581" d="M54.381 43.566L54.497 40.643 57.189 40.751 57.072 43.673z" transform="translate(79 31.207)"/>
            <path fill="#E7E1D3" d="M56.299 44.518L56.603 39.866 59.919 40.082 59.615 44.734z" transform="translate(79 31.207)"/>
            <path fill="#FFC581" d="M50.798 40.566s-1.178 1.382-1.212 1.957c-.026.439.663 1.545.663 1.545s3.89.299 4.645-.416c.361-.341.415-1.375.4-2.151-.01-.515-.428-.927-.944-.928l-3.552-.007z" transform="translate(79 31.207)"/>
            <path fill="#FFC581" d="M51.757 38.854l-.102.188c-.194.357-.063.804.294.998l2.297 1.248s.61-.171.541-.4c-.237-.802-3.03-2.034-3.03-2.034M47.943 40.355c.197-.487.75-.722 1.237-.525l2.224.898-.356.881-3.105-1.254z" transform="translate(79 31.207)"/>
            <path fill="#FFC581" d="M46.646 41.754c.073-.52.615-.873 1.21-.79l2.72.383-.132.941-3.798-.534z" transform="translate(79 31.207)"/>
            <path fill="#FFC581" d="M46.74 42.583c.074-.52.616-.873 1.21-.789l2.72.382-.131.941-3.798-.534z" transform="translate(79 31.207)"/>
            <path fill="#FFC581" d="M47.379 43.923c.024-.524.53-.927 1.13-.9l2.745.126-.07.92-3.805-.146z" transform="translate(79 31.207)"/>
            <path fill="#E7E1D3" d="M59.25 48.358c-.768-2.056-.905-8.882-.905-8.882s15.356-3.532 29.351-3.52c7.016.004 13.178.911 17.576 2.702 2.303.937 4.167 8.638-1.05 11-18.626 8.43-41.822 7.13-44.972-1.3" transform="translate(79 31.207)"/>
            <path fill="#FFC581" d="M33.89 70.695L30.846 72.028 29.932 69.939 32.977 68.608z" transform="translate(79 31.207)"/>
            <path fill="#F5EFE4" d="M33.71 69.094L29.393 70.855 28.138 67.778 32.455 66.016z" transform="translate(79 31.207)"/>
            <path fill="#F5EFE4" d="M14.368 15.516c-11.88-.458-10.83 20.65-6.25 34.757 4.895 15.082 13.102 19.804 20.13 18.81 3.645-.516 5.981-1.863 5.981-1.863s-6.824-27.674-12.75-42.808c-2.438-6.225-6.583-8.875-7.11-8.896" transform="translate(79 31.207)"/>
        </g>
    </g>
</svg>
