<svg xmlns="http://www.w3.org/2000/svg" xmlns:xlink="http://www.w3.org/1999/xlink" width="411" height="245" viewBox="0 0 411 245">
    <defs>
        <path id="prefix__a" d="M0 0.871L104.417 0.871 104.417 172.65 0 172.65z"/>
        <path id="prefix__c" d="M.375 3.421s94.012 75.481 95.861 72.847c3.541-5.046 5.095-11.501 4.6-17.545-.754-9.198-5.445-17.591-10.776-25.203-5.524-7.888-11.899-15.321-19.691-21.234C62.576 6.374 53.382 1.24 43.306.762 40.15.612 37.152.547 34.312.547 17.536.547 6.272 2.824.375 3.421"/>
        <path id="prefix__e" d="M.195 4.126c0 1.836 1.488 3.324 3.324 3.324 1.835 0 3.323-1.488 3.323-3.324C6.842 2.29 5.354.804 3.519.804 1.683.804.195 2.29.195 4.126"/>
        <path id="prefix__h" d="M.136 2.821c0 1.285 1.041 2.327 2.326 2.327 1.285 0 2.327-1.042 2.327-2.327 0-1.284-1.042-2.326-2.327-2.326S.136 1.537.136 2.821"/>
        <path id="prefix__k" d="M25.325.575L2.58.893C1.552.906.734 1.767.753 2.816l.592 32.397c.02 1.049.868 1.887 1.897 1.873l22.745-.318c1.029-.014 1.847-.875 1.828-1.924l-.593-32.397c-.019-1.04-.855-1.872-1.871-1.872h-.026"/>
        <path id="prefix__m" d="M5.743 1.264C2.095 2.495-.011 6.304.887 10.048c2.678 9.308 12.471 17.661 21.439 24.759.645.51 1.58.402 2.09-.243.51-.643.402-1.579-.242-2.089C15.565 25.662 6.18 17.688 3.746 9.226c-.681-2.369.688-4.842 3.058-5.524 2.37-.681 4.843.688 5.524 3.059 1.625 5.652 9.701 12.636 17.385 18.717.644.51 1.579.401 2.089-.243.511-.644.403-1.579-.242-2.09-4.058-3.203-14.802-11.705-16.394-17.209C14.12 2.832 11.224.873 8.119.873c-.788 0-1.588.126-2.376.391"/>
        <path id="prefix__p" d="M19.69 1.406C9.426 4.351 3.492 15.06 6.438 25.325c.001.007.003.015.006.021C8.886 33.83 3.65 36.185 1.982 36.702c-.784.246-1.22 1.081-.973 1.864.246.784 1.082 1.22 1.865.974 4.548-1.422 8.965-6.207 6.428-15.018-2.502-8.683 2.51-17.749 11.193-20.25l.013-.005c8.585-2.413 17.53 2.453 20.169 10.971.035.116.086.228.149.331.155.256.473.794 10.034 8.552.637.518 1.574.421 2.092-.216.519-.637.422-1.574-.216-2.092-3.474-2.82-8.551-7.011-9.296-7.711C40.773 5.922 33.173.678 24.956.678c-1.741 0-3.51.235-5.266.728"/>
        <path id="prefix__s" d="M16.329 1.126C9.356 3.279 5.308 10.536 7.14 17.6c3.005 13.685.759 16.844-5.405 18.77-.784.248-1.219 1.083-.973 1.866.246.784 1.082 1.22 1.866.974 8.612-2.679 10.483-8.306 7.436-22.249-1.479-5.529 1.649-11.244 7.104-12.976 5.528-1.569 11.284 1.621 12.883 7.139.596 2.029 2.176 4.813 14.357 14.454.645.511 1.58.402 2.09-.242.51-.644.401-1.579-.243-2.089C35.199 14.5 33.306 11.731 32.89 10.292 31.191 4.426 25.834.609 20.015.608c-1.218 0-2.456.167-3.686.518"/>
        <path id="prefix__v" d="M1.594.594C.827.83.386 1.628.593 2.403c2.344 8.156 11.262 14.921 16.59 18.964 1.083.779 2.126 1.613 3.124 2.498.59.571 1.532.555 2.103-.036.557-.576.557-1.491 0-2.067-1.09-.985-2.233-1.909-3.427-2.766C13.949 15.176 5.525 8.787 3.452 1.581 3.256.941 2.667.529 2.03.529c-.144 0-.291.021-.436.065"/>
        <path id="prefix__y" d="M.565 10.622c-.051.82.572 1.526 1.391 1.577h.096c.787.002 1.439-.609 1.487-1.395.188-3.064 1.36-7.526 2.975-7.526 2.204 0 3.769 2.124 5.025 3.828.415.592.868 1.155 1.359 1.684.591.571 1.532.554 2.103-.036.557-.577.557-1.49 0-2.067-.384-.424-.742-.873-1.067-1.344C12.43 2.554 9.661.673 6.514.304 1.457.304.675 8.9.565 10.622"/>
        <path id="prefix__B" d="M7.591.522c-.726.262-1.13 1.038-.929 1.784C7.935 6.284 5.433 14.089 1.67 15.312c-.784.245-1.221 1.079-.975 1.863.245.785 1.08 1.221 1.864.976l.03-.01c5.723-1.844 8.483-11.786 6.908-16.728-.22-.604-.79-.981-1.399-.981-.168 0-.339.029-.507.09"/>
        <path id="prefix__E" d="M.741 25.992c0 .822.667 1.488 1.488 1.488s1.487-.666 1.487-1.488C3.73 13.675 13.711 3.694 26.027 3.681c12.068 0 16.296 6.825 19.693 12.31 1.999 3.227 3.724 6.015 6.621 6.955.78.261 1.623-.156 1.885-.935.263-.778-.156-1.622-.934-1.884-.01-.003-.021-.008-.031-.01l-.003-.003c-1.859-.595-3.32-2.975-5.013-5.691C44.663 8.635 39.752.706 26.027.706 12.069.724.758 12.034.741 25.992"/>
        <path id="prefix__H" d="M.741 1.942c.239 1.793.796 3.531 1.645 5.128.253.503.768.822 1.33.822.822 0 1.487-.666 1.487-1.488 0-.231-.054-.46-.157-.666-.635-1.191-1.083-2.47-1.33-3.796 0-.822-.666-1.487-1.487-1.487-.821 0-1.488.665-1.488 1.487"/>
        <path id="prefix__K" d="M.443 10.398c-.425.702-.201 1.615.5 2.041.701.428 1.616.206 2.044-.496l.003-.004c1.29-2.129 7.651-8.207 19.549-8.207 11.436 0 19.572 5.792 21.038 8.207.427.702 1.342.926 2.044.5.702-.426.926-1.341.499-2.043C44.08 7.034 35.069.757 22.539.757 9.216.757 2.074 7.715.443 10.398"/>
        <path id="prefix__N" d="M15.539.808c-7.865 0-9.834 1.011-12.333 2.294-.502.258-1.038.531-1.662.811C.78 4.217.407 5.082.71 5.845c.304.763 1.168 1.137 1.932.832.039-.015.077-.032.115-.051h-.009c.681-.297 1.258-.595 1.805-.892C6.791 4.606 8.4 3.782 15.539 3.782c4.821-.265 9.643.507 14.139 2.264.568.212 1.14.423 1.737.628.156.055.321.082.486.083.821.001 1.488-.664 1.49-1.485.001-.637-.403-1.203-1.005-1.41-.577-.199-1.125-.401-1.672-.595C26.461 1.609 21.941.761 17.388.761c-.616 0-1.232.015-1.849.047"/>
        <path id="prefix__Q" d="M1.043.889c-.7.43-.919 1.346-.488 2.045 1.107 1.783 2.053 3.66 2.826 5.612.279.771 1.132 1.171 1.904.892.727-.263 1.131-1.039.93-1.785-.843-2.185-1.89-4.287-3.126-6.278C2.808.919 2.32.667 1.821.667c-.266 0-.535.072-.778.222"/>
        <path id="prefix__T" d="M6.383 1.081C2.39 2.038-.071 6.053.887 10.048c2.678 9.308 12.462 17.657 21.43 24.759.263.207.588.321.923.321l-.024-.003c.455.001.885-.207 1.168-.564.51-.645.401-1.58-.242-2.09C15.535 25.659 6.15 17.684 3.716 9.223c-.68-2.368.688-4.84 3.057-5.522 2.369-.681 4.842.687 5.523 3.056C13.917 12.413 22 19.394 29.683 25.475c.023.02.048.038.072.057.66.49 1.591.352 2.081-.309.489-.659.352-1.591-.308-2.08-4.034-3.201-14.779-11.706-16.361-17.207C14.128 2.855 11.249.874 8.123.874c-.575 0-1.159.067-1.74.207"/>
        <path id="prefix__W" d="M19.69 1.406l-.015.004C9.412 4.362 3.486 15.075 6.438 25.338c2.436 8.481-2.8 10.833-4.463 11.354-.619.196-1.04.768-1.041 1.417-.002.822.664 1.489 1.484 1.49.154.001.306-.022.453-.068 4.551-1.423 8.966-6.209 6.431-15.017l-.001-.003C6.806 15.826 11.823 6.764 20.508 4.267c8.586-2.415 17.533 2.452 20.172 10.972.036.114.085.223.146.327.155.256.473.794 10.037 8.556.625.476 1.513.383 2.027-.212.538-.621.468-1.561-.153-2.097-3.475-2.82-8.552-7.014-9.293-7.711C40.776 5.921 33.176.677 24.959.677c-1.742 0-3.512.236-5.269.729"/>
        <path id="prefix__Z" d="M16.326 1.126C9.353 3.28 5.307 10.536 7.137 17.6c3.005 13.678.762 16.844-5.402 18.77-.619.196-1.041.769-1.042 1.418-.001.821.664 1.488 1.485 1.49.145 0 .29-.02.429-.063 8.626-2.689 10.497-8.302 7.437-22.249-1.49-5.532 1.639-11.257 7.101-12.99 5.528-1.578 11.292 1.615 12.886 7.139.58 2.024 2.16 4.81 14.356 14.455.024.019.047.038.072.056.659.49 1.591.352 2.08-.308.49-.659.352-1.591-.307-2.08-11.04-8.74-12.929-11.51-13.342-12.946C31.186 4.426 25.828.61 20.007.61c-1.216 0-2.453.167-3.681.516"/>
        <path id="prefix__ac" d="M1.583.545C.798.786.356 1.617.596 2.403c2.344 8.156 11.263 14.921 16.59 18.964 1.083.781 2.126 1.617 3.124 2.502.28.278.658.435 1.053.435.392-.002.768-.158 1.047-.435.582-.58.583-1.522.003-2.104-1.091-.986-2.236-1.911-3.43-2.769C13.949 15.176 5.537 8.787 3.455 1.581c-.005-.016-.009-.033-.015-.049C3.244.892 2.655.479 2.018.479c-.144 0-.291.021-.435.066"/>
        <path id="prefix__af" d="M.565 10.626c-.051.819.572 1.525 1.391 1.576h.096c.787.002 1.439-.61 1.487-1.394.188-3.068 1.363-7.53 2.975-7.53 2.208 0 3.772 2.124 5.039 3.837.414.59.869 1.153 1.36 1.68.576.558 1.49.558 2.066 0 .592-.569.608-1.511.037-2.102-.385-.424-.74-.873-1.064-1.345C12.443 2.555 9.668.673 6.514.307 1.457.307.672 8.903.565 10.626"/>
        <path id="prefix__ai" d="M7.518.397c-.767.294-1.151 1.154-.856 1.921 1.255 3.978-1.233 11.783-4.993 13.006-.615.198-1.033.771-1.031 1.419.001.821.669 1.486 1.489 1.484.156.004.31-.015.459-.059 5.717-1.869 8.486-11.801 6.907-16.743-.014-.058-.032-.116-.054-.172C9.212.661 8.648.298 8.05.298c-.177 0-.357.032-.532.099"/>
        <path id="prefix__al" d="M.741 25.992c0 .822.667 1.488 1.488 1.488s1.487-.666 1.487-1.488C3.73 13.675 13.71 3.695 26.027 3.681c12.068 0 16.296 6.825 19.693 12.307 1.999 3.228 3.724 6.014 6.621 6.955l.031.01c.784.245 1.619-.191 1.864-.975.246-.784-.191-1.619-.975-1.864-1.859-.604-3.32-2.963-5.013-5.691C44.663 8.635 39.752.706 26.027.706 12.069.724.758 12.034.741 25.992"/>
        <path id="prefix__ao" d="M.446 10.396c-.02.029-.038.06-.056.092-.401.717-.144 1.623.572 2.023.717.402 1.624.145 2.024-.572C4.28 9.81 10.641 3.732 22.539 3.732c11.436 0 19.575 5.792 21.038 8.207.27.446.752.717 1.273.717.271 0 .537-.074.769-.215.703-.425.927-1.34.501-2.043C44.08 7.034 35.069.757 22.539.757 9.216.757 2.074 7.715.446 10.396"/>
        <path id="prefix__ar" d="M15.539.808c-7.862 0-9.834 1.011-12.315 2.29-.506.259-1.038.533-1.666.815-.752.332-1.093 1.213-.76 1.964.332.754 1.213 1.094 1.965.762.678-.316 1.258-.611 1.805-.893C6.791 4.606 8.4 3.782 15.539 3.782c4.82-.264 9.641.509 14.137 2.267.568.209 1.145.422 1.739.627.157.054.321.081.486.081.657.012 1.242-.407 1.443-1.033.251-.782-.179-1.619-.961-1.87-.577-.187-1.125-.393-1.672-.596C26.465 1.605 21.953.76 17.407.76c-.622 0-1.245.016-1.868.048"/>
        <path id="prefix__au" d="M1.046.877C.345 1.306.128 2.223.558 2.923c1.108 1.786 2.053 3.668 2.826 5.623.197.616.769 1.034 1.415 1.035.153 0 .306-.025.452-.071.782-.25 1.214-1.087.964-1.869-.842-2.185-1.888-4.286-3.123-6.277-.28-.457-.768-.709-1.267-.709-.266 0-.536.072-.779.222"/>
        <linearGradient id="prefix__f" x1="100.003%" x2=".008%" y1="49.993%" y2="49.993%">
            <stop offset="0%" stop-color="#FFB218"/>
            <stop offset="100%" stop-color="#FFCF44"/>
        </linearGradient>
        <linearGradient id="prefix__i" x1="99.991%" x2="-.002%" y1="49.999%" y2="49.999%">
            <stop offset="0%" stop-color="#FFB218"/>
            <stop offset="100%" stop-color="#FFCF44"/>
        </linearGradient>
        <linearGradient id="prefix__n" x1=".001%" x2="100%" y1="50%" y2="50%">
            <stop offset="0%" stop-color="#FFB218"/>
            <stop offset="100%" stop-color="#FFCF44"/>
        </linearGradient>
        <linearGradient id="prefix__q" x1="0%" x2="100%" y1="49.999%" y2="49.999%">
            <stop offset="0%" stop-color="#FFB218"/>
            <stop offset="100%" stop-color="#FFCF44"/>
        </linearGradient>
        <linearGradient id="prefix__t" x1="0%" x2="100%" y1="49.999%" y2="49.999%">
            <stop offset="0%" stop-color="#FFB218"/>
            <stop offset="100%" stop-color="#FFCF44"/>
        </linearGradient>
        <linearGradient id="prefix__w" x1="-.001%" x2="99.999%" y1="50.001%" y2="50.001%">
            <stop offset="0%" stop-color="#FFB218"/>
            <stop offset="100%" stop-color="#FFCF44"/>
        </linearGradient>
        <linearGradient id="prefix__z" x1="-.002%" x2="100.001%" y1="49.996%" y2="49.996%">
            <stop offset="0%" stop-color="#FFB218"/>
            <stop offset="100%" stop-color="#FFCF44"/>
        </linearGradient>
        <linearGradient id="prefix__C" x1="-.001%" x2="100%" y1="50.001%" y2="50.001%">
            <stop offset="0%" stop-color="#FFB218"/>
            <stop offset="100%" stop-color="#FFCF44"/>
        </linearGradient>
        <linearGradient id="prefix__F" x1=".001%" x2="100%" y1="50%" y2="50%">
            <stop offset="0%" stop-color="#FFB218"/>
            <stop offset="100%" stop-color="#FFCF44"/>
        </linearGradient>
        <linearGradient id="prefix__I" x1=".004%" x2="100.008%" y1="49.99%" y2="49.99%">
            <stop offset="0%" stop-color="#FFB218"/>
            <stop offset="100%" stop-color="#FFCF44"/>
        </linearGradient>
        <linearGradient id="prefix__L" x1="0%" x2="100%" y1="49.999%" y2="49.999%">
            <stop offset="0%" stop-color="#FFB218"/>
            <stop offset="100%" stop-color="#FFCF44"/>
        </linearGradient>
        <linearGradient id="prefix__O" x1=".001%" x2="99.999%" y1="49.997%" y2="49.997%">
            <stop offset="0%" stop-color="#FFB218"/>
            <stop offset="100%" stop-color="#FFCF44"/>
        </linearGradient>
        <linearGradient id="prefix__R" x1="0%" x2="100.009%" y1="50.001%" y2="50.001%">
            <stop offset="0%" stop-color="#FFB218"/>
            <stop offset="100%" stop-color="#FFCF44"/>
        </linearGradient>
        <linearGradient id="prefix__U" x1=".001%" x2="99.999%" y1="50%" y2="50%">
            <stop offset="0%" stop-color="#FFB218"/>
            <stop offset="100%" stop-color="#FFCF44"/>
        </linearGradient>
        <linearGradient id="prefix__X" x1="0%" x2="100%" y1="50%" y2="50%">
            <stop offset="0%" stop-color="#FFB218"/>
            <stop offset="100%" stop-color="#FFCF44"/>
        </linearGradient>
        <linearGradient id="prefix__aa" x1=".001%" x2="100.001%" y1="50%" y2="50%">
            <stop offset="0%" stop-color="#FFB218"/>
            <stop offset="100%" stop-color="#FFCF44"/>
        </linearGradient>
        <linearGradient id="prefix__ad" x1="-.001%" x2="99.999%" y1="49.999%" y2="49.999%">
            <stop offset="0%" stop-color="#FFB218"/>
            <stop offset="100%" stop-color="#FFCF44"/>
        </linearGradient>
        <linearGradient id="prefix__ag" x1="-.002%" x2="99.999%" y1="49.995%" y2="49.995%">
            <stop offset="0%" stop-color="#FFB218"/>
            <stop offset="100%" stop-color="#FFCF44"/>
        </linearGradient>
        <linearGradient id="prefix__aj" x1="-.005%" x2="100.006%" y1="50.001%" y2="50.001%">
            <stop offset="0%" stop-color="#FFB218"/>
            <stop offset="100%" stop-color="#FFCF44"/>
        </linearGradient>
        <linearGradient id="prefix__am" x1=".001%" x2="100%" y1="50%" y2="50%">
            <stop offset="0%" stop-color="#FFB218"/>
            <stop offset="100%" stop-color="#FFCF44"/>
        </linearGradient>
        <linearGradient id="prefix__ap" x1="0%" x2="100%" y1="50.001%" y2="50.001%">
            <stop offset="0%" stop-color="#FFB218"/>
            <stop offset="100%" stop-color="#FFCF44"/>
        </linearGradient>
        <linearGradient id="prefix__as" x1=".001%" x2="100.001%" y1="49.994%" y2="49.994%">
            <stop offset="0%" stop-color="#FFB218"/>
            <stop offset="100%" stop-color="#FFCF44"/>
        </linearGradient>
        <linearGradient id="prefix__av" x1="-.005%" x2="100.01%" y1="49.999%" y2="49.999%">
            <stop offset="0%" stop-color="#FFB218"/>
            <stop offset="100%" stop-color="#FFCF44"/>
        </linearGradient>
    </defs>
    <g fill="none" fill-rule="evenodd">
        <g transform="translate(0 4.207)">
            <mask id="prefix__b" fill="#fff">
                <use xlink:href="#prefix__a"/>
            </mask>
            <path fill="#619440" d="M89.865 172.55c-33.97 3.278-66.387-74.917-78.81-106.333C2.887 45.558 1.4 23.008 0 .871c35.49 11.925 78.376 39.358 95.464 72.308 2.838 5.47 4.822 14.145 5.964 20.189 2.388 12.653 3.722 53.727 2.569 66.559-.362 4.016 1.099 11.151-14.131 12.623" mask="url(#prefix__b)"/>
            <path fill="#306B34" d="M4.208 6.508c.714-.62 1.8-.548 2.427.157 7.8 8.782 15.102 17.579 21.995 26.502 1.76-4.87 2.486-8.892 2.584-14.038.018-.623.536-1.122 1.17-1.11.632.012 1.136.529 1.126 1.155-.071 3.595-.446 6.733-1.245 9.953-.493 1.986-1.148 4.006-1.99 6.18 5.405 7.081 10.554 14.252 15.484 21.566.283-2.797.76-5.56 1.23-8.268.526-3.033.929-5.161 1.334-7.284.405-2.136.81-4.267 1.338-7.32.105-.62.7-1.03 1.325-.924.625.104 1.045.69.938 1.306-.531 3.067-.94 5.209-1.345 7.355-.402 2.114-.805 4.23-1.328 7.25-.624 3.596-1.263 7.295-1.42 10.986 5.994 9.054 11.664 18.346 17.085 27.98l5.324-17.436c.839-2.746 1.71-5.591 1.798-8.467.028-.614.549-1.116 1.18-1.098.636.02 1.134.541 1.115 1.166-.054 1.761-.358 3.463-.77 5.124-.332 1.334-.732 2.642-1.128 3.93l-5.973 19.56c6.52 11.771 12.686 24.063 18.617 37.08.165.358.19.743.103 1.1-.122.49-.462.922-.965 1.147-.868.383-1.885.001-2.275-.856-2.695-5.915-5.442-11.672-8.246-17.305h-.005c-6.146-.808-10.9-1.645-15.5-2.454-4.576-.803-9.306-1.635-15.403-2.438-.627-.083-1.07-.651-.985-1.272.082-.61.658-1.055 1.288-.972 6.146.807 10.9 1.643 15.5 2.453 4.184.735 8.51 1.494 13.878 2.23-3.611-7.162-7.32-14.12-11.16-20.9-7.396-1.563-13.806-2.956-20.212-4.347-6.604-1.433-13.208-2.867-20.901-4.49-.618-.132-1.013-.733-.882-1.344.218-.608.742-1.003 1.363-.872 7.696 1.625 14.305 3.06 20.913 4.495 5.822 1.263 11.645 2.528 18.212 3.92-4.46-7.758-9.091-15.296-13.935-22.675-.027-.026-.048-.056-.073-.084-.223.078-.471.09-.714.017-12.527-3.761-21.983-5.778-34.887-7.444-.628-.083-1.071-.651-.988-1.272.095-.634.66-1.056 1.287-.976 12.452 1.608 21.73 3.543 33.567 7.025-4.46-6.686-9.097-13.247-13.945-19.724-9.004-3.873-14.021-4.575-23.4-4.581-.634-.002-1.147-.51-1.146-1.135-.002-.625.513-1.13 1.146-1.133 8.84.008 14.003.762 20.725 3.31-7.295-9.553-15.058-18.948-23.39-28.33-.631-.705-.558-1.779.159-2.399"/>
            <path fill="#FFDE8E" d="M28.375 147.42c4.41 30.118 29.761 66.36 59.058 78.269 9.357 3.803 20.646 6.009 29.636 1.07 8.528-4.684 12.52-14.836 11.766-24.035-.752-9.2-5.445-17.591-10.775-25.203-5.525-7.89-11.898-15.322-19.692-21.234-7.791-5.912-16.986-11.047-27.061-11.524-21.803-1.034-36.038 1.96-42.931 2.658"/>
        </g>
        <g transform="translate(28 148.207)">
            <mask id="prefix__d" fill="#fff">
                <use xlink:href="#prefix__c"/>
            </mask>
            <path fill="#FFBF4D" d="M.375 3.421s94.012 75.481 95.861 72.847c3.541-5.046 5.095-11.501 4.6-17.545-.754-9.198-5.445-17.591-10.776-25.203-5.524-7.888-11.899-15.321-19.691-21.234C62.576 6.374 53.382 1.24 43.306.762 40.15.612 37.152.547 34.312.547 17.536.547 6.272 2.824.375 3.421" mask="url(#prefix__d)"/>
        </g>
        <path fill="#306B34" d="M4.104 200.839c0 2.78 2.253 5.035 5.035 5.035 2.78 0 5.036-2.255 5.036-5.035 0-2.781-2.256-5.035-5.037-5.035-2.78 0-5.034 2.254-5.034 5.035"/>
        <g transform="translate(17 190.207)">
            <mask id="prefix__g" fill="#fff">
                <use xlink:href="#prefix__e"/>
            </mask>
            <path fill="url(#prefix__f)" d="M.195 4.126c0 1.836 1.488 3.324 3.324 3.324 1.835 0 3.323-1.488 3.323-3.324C6.842 2.29 5.354.804 3.519.804 1.683.804.195 2.29.195 4.126" mask="url(#prefix__g)"/>
        </g>
        <g transform="translate(10 185.207)">
            <mask id="prefix__j" fill="#fff">
                <use xlink:href="#prefix__h"/>
            </mask>
            <path fill="url(#prefix__i)" d="M.136 2.821c0 1.285 1.041 2.327 2.326 2.327 1.285 0 2.327-1.042 2.327-2.327 0-1.284-1.042-2.326-2.327-2.326S.136 1.537.136 2.821" mask="url(#prefix__j)"/>
        </g>
        <g>
            <path fill="#F7E8C8" d="M.016 233.79c0-5.085 83.898-9.207 187.391-9.207-3.174 0 187.39 4.122 187.39 9.208S290.9 243 187.407 243C83.914 243 .017 238.877.017 233.79" transform="translate(36 1.207)"/>
            <path fill="#FCBD30" d="M83.782 14.52s-1.227-7.793.52-9.431c2.986-2.802 17.208-6.907 13.542-2.603 0 0 8.504.02 14.296 5.21.418.374.047 1.073-.496.942-2.808-.681-7.582-1.898-8.844-.636 0 0 3.597 1.006 5.86 2.755.46.357.147 1.112-.43 1.052-1.407-.147-3.382-.263-4.425.082-1.92.634-4.065 6.225-7.116 8.235-3.05 2.01-13.391-.578-12.906-5.605" transform="translate(36 1.207)"/>
            <path fill="#E7E1D3" d="M105.338 73.544c2.298 1.457 10.691-2.041 10.691-2.041s-5.728-19.317-6.95-25.911c-1.589-8.56-5.178-14.845-14.28-16.453l-.622 1.058s1.71 37.355 11.161 43.347" transform="translate(36 1.207)"/>
            <path fill="#F5EFE4" d="M38.933 53.416L32.43 40.47s8.503-7.048 23.877-10.41c11.285-2.468 24.115-3.32 25.969 3.528l-6.242 7.944-37.102 11.884z" transform="translate(36 1.207)"/>
            <path fill="#FFE2B7" d="M91.012 231.328c-1.016-.222-1.66-1.225-1.439-2.24l2.084-9.567c.221-1.016 1.224-1.66 2.24-1.44 1.016.223 1.66 1.226 1.44 2.24l-2.085 9.569c-.22 1.015-1.224 1.659-2.24 1.438" transform="translate(36 1.207)"/>
            <path fill="#7F786A" d="M103.373 233.766c-.012.52-.454.928-.987.916l-12.943-.306c-.682-.015-1.18-.635-1.03-1.284l.24-2.284c.069-.652.642-1.144 1.315-1.127 0 0 .309 1.012 1.522 1.195.983.15 1.332-.636 1.457-1.205.06-.274.367-.433.646-.327l9.186 3.532c.367.15.603.502.594.89" transform="translate(36 1.207)"/>
            <path fill="#FFE2B7" d="M74.295 231.11c1.124.045 2.073-.828 2.119-1.95l.44-10.583c.046-1.124-.827-2.072-1.95-2.119-1.124-.047-2.073.826-2.12 1.95l-.44 10.582c-.046 1.123.827 2.072 1.95 2.12" transform="translate(36 1.207)"/>
            <path fill="#7F786A" d="M61.558 233.585c.013.56.49 1.004 1.067.99l14-.33c.739-.016 1.277-.687 1.115-1.39l-.26-2.47c-.074-.705-.693-1.237-1.422-1.22 0 0-.334 1.096-1.646 1.294-1.063.16-1.441-.688-1.576-1.303-.065-.297-.397-.47-.7-.354l-9.936 3.82c-.397.162-.652.544-.642.963M83.709 71.25c-3.297 4.615.334 28.15.334 28.15l10.777 59.667-7.626 65.417 8.039 1.028s25.455-55.33 24.997-70.565c-1.156-38.482-11.185-75.68-18.949-87.14-3.199 1.75-9.516 5.134-17.572 3.444" transform="translate(36 1.207)"/>
            <path fill="#A29C8F" d="M69.088 67.27c-6.234 8.116-12.996 16.185-15.067 35.898-2.252 21.436 16.033 121.207 16.033 121.207l8.666.072 8.52-125.046 2.08-26.927s-17.56-4.309-20.232-5.205" transform="translate(36 1.207)"/>
            <path fill="#F5EFE4" d="M102.818 69.646s-2.323 3.84-14.719 3.896c-11.349.054-21.79-2.212-21.79-2.212l-4.23-35.533c-.11-6.264 5.427-7.723 14.698-7.885 0 0 11.27.165 15.095.556 7.863.805 11.93 4.343 12.085 11.39.152 6.824-1.139 29.788-1.139 29.788" transform="translate(36 1.207)"/>
            <path fill="#E7E1D3" d="M138.467 45.694c2.039 5.881-1.51 15.323-8.027 23.084-7.128 8.489-18.571 10.44-26.105 3.986 0 0 10.133-11.096 13.353-15.007 6.452-7.832 15.792-16.575 15.792-16.575s4.078 1.889 4.987 4.512" transform="translate(36 1.207)"/>
            <path fill="#FFE2B7" d="M107.251 58.113l22.745-.317c1.028-.015 1.847-.875 1.827-1.924l-.592-32.397c-.02-1.049-.869-1.886-1.897-1.872l-22.745.317c-1.029.014-1.847.876-1.828 1.923l.593 32.398c.02 1.048.868 1.887 1.897 1.872" transform="translate(36 1.207)"/>
        </g>
        <g transform="translate(142 22.207)">
            <mask id="prefix__l" fill="#fff">
                <use xlink:href="#prefix__k"/>
            </mask>
            <path fill="#FFBF4D" d="M25.325.575L2.58.893C1.552.906.734 1.767.753 2.816l.592 32.397c.02 1.049.868 1.887 1.897 1.873l22.745-.318c1.029-.014 1.847-.875 1.828-1.924l-.593-32.397c-.019-1.04-.855-1.872-1.871-1.872h-.026" mask="url(#prefix__l)"/>
        </g>
        <g>
            <path fill="#FFE2B7" d="M102.064 30.46c.777-.01 1.396-.662 1.38-1.454l-.065-3.59c-.014-.793-.657-1.427-1.434-1.416-.777.011-1.395.662-1.381 1.454l.066 3.591c.014.792.656 1.426 1.434 1.415" transform="translate(65 .207)"/>
            <path fill="#7F786A" d="M101.099 25.624c.009.493.409.887.892.88.484-.006.869-.412.86-.904-.01-.494-.408-.888-.892-.88-.484.006-.87.411-.86.904M101.135 27.604c.009.493.409.887.893.88.483-.006.868-.412.859-.904-.01-.494-.408-.888-.892-.88-.484.006-.87.411-.86.904M77.19 30.497l-.083-4.52c-.452.007-.813.386-.804.847l.052 2.85c.008.46.382.83.835.823M77.292 36.054l-.083-4.52c-.452.007-.813.386-.804.847l.052 2.85c.008.461.382.83.835.823" transform="translate(65 .207)"/>
            <path fill="#FFE2B7" d="M94.474 31.707c.029 1.595-.988 2.902-2.272 2.92-1.284.018-2.35-1.26-2.378-2.855-.03-1.595.988-2.902 2.272-2.92 1.284-.018 2.349 1.26 2.378 2.855" transform="translate(65 .207)"/>
            <path fill="#7F786A" d="M91.569 30.431c.018.995-.758 1.812-1.734 1.826-.976.013-1.782-.782-1.8-1.777-.018-.994.758-1.81 1.734-1.825.976-.014 1.782.782 1.8 1.776" transform="translate(65 .207)"/>
            <path fill="#FFE2B7" d="M39.306 75.156s.168-2.05-.18-2.6c-.267-.421-1.738-.975-1.738-.975s-3.665 2.29-3.888 3.448c-.106.553.528 1.538 1.056 2.24.35.468 1.007.57 1.48.23l3.27-2.343z" transform="translate(65 .207)"/>
            <path fill="#FFE2B7" d="M42.388 73.805c.061.592-.369 1.12-.96 1.181l-2.702.278-.11-1.07 3.772-.389zM42.4 71.476c.213.555-.13 1.202-.765 1.446L38.73 74.04l-.385-1.005 4.054-1.558z" transform="translate(65 .207)"/>
            <path fill="#FFE2B7" d="M42.065 70.425c.257.535-.033 1.209-.646 1.502l-2.806 1.345-.465-.97 3.917-1.877z" transform="translate(65 .207)"/>
            <path fill="#FFE2B7" d="M40.714 70.01c.257.534-.032 1.208-.646 1.502l-2.804 1.347.081-1.266 3.37-1.584zM35.438 75.013L35.038 77.63 30.843 75.387 32.327 72.994zM60.185 31.22c-1.248-.115-2.165-1.22-2.049-2.468l.43-4.614c.115-1.247 1.221-2.165 2.468-2.048 1.248.115 2.165 1.22 2.05 2.468l-.43 4.614c-.116 1.248-1.22 2.165-2.469 2.049" transform="translate(65 .207)"/>
            <path fill="#FFC581" d="M58.53 24.53c.135-1.464 1.257-2.557 2.504-2.44 1.248.115 2.15 1.396 2.013 2.86l-.356 3.83c-.075.8-1.919.254-3.087-1.113-.764-.896-1.215-1.631-1.215-1.631l.14-1.506z" transform="translate(65 .207)"/>
            <path fill="#FFE2B7" d="M68.668 18.79c-.249-.106-.54-.058-.821.11.085-.794.145-1.408.145-1.408.049-.414.046-.825.005-1.226-.146-1.71-1.1-3.229-2.515-4.12l-.075-.047c-.107-.065-.218-.126-.33-.184-.056-.029-.113-.058-.171-.085-.094-.044-.19-.085-.288-.124-.069-.028-.138-.055-.209-.08-.101-.036-.205-.068-.309-.098-.064-.018-.129-.036-.195-.052-.125-.03-.254-.057-.383-.079-.022-.004-.042-.01-.064-.013l-.039-.004c-.126-.019-.253-.035-.382-.046-2.925-.237-5.483 1.98-5.825 4.894 0 0-.083.614-.184 1.408-.236-.23-.51-.348-.778-.303-.613.104-.97 1.008-.799 2.02.154.908.681 1.592 1.23 1.648 0 .04.001.076.004.101.206 2.033 1.534 3.291 2.82 4.468.559.511 1.256.801 1.976.861.714.108 1.459-.013 2.12-.38 1.525-.849 3.106-1.765 3.778-3.695.008-.024.017-.059.027-.097.177.021.368-.02.556-.117.391-.2.774-.633 1.016-1.204.4-.944.262-1.907-.31-2.149" transform="translate(65 .207)"/>
            <path fill="#FFE2B7" d="M63.522 11.397c-.022-.003-.042-.01-.064-.013l-.04-.004c-.125-.019-.252-.035-.381-.045-2.925-.238-5.483 1.98-5.824 4.894 0 0-.084.613-.184 1.407-.237-.23-.51-.348-.78-.302-.611.103-.97 1.007-.797 2.02.153.907.68 1.591 1.229 1.647 0 .041 0 .076.004.102.207 2.032 1.534 3.29 2.82 4.467.559.511 1.256.801 1.976.861.386.058 1.878-2.052 2.575-8.058.609-5.24-.474-6.966-.534-6.976" transform="translate(65 .207)"/>
            <path fill="#FFE2B7" d="M55.428 19.18s.09 1.208.861 1.675l-.172-.875-.69-.8zM66.7 22.426s.585-.175.94-.93c.35-.739-.93.428-.94.93M104.54 43.317s1.68.865 2.093.404c.591-.656-.522-4.48-.522-4.48l-1.758.548.186 3.528z" transform="translate(65 .207)"/>
            <path fill="#FFE2B7" d="M101.746 36.838s.625-1.959 1.156-2.336c.407-.288 1.978-.24 1.978-.24s1.02 3.193 1.192 4.36c.12.807.018 1.53-.737 1.978-.501.3-1.148.143-1.457-.35l-2.132-3.412z" transform="translate(65 .207)"/>
            <path fill="#FFE2B7" d="M99.729 34.574c-.284.521-.092 1.175.43 1.46l2.385 1.298.515-.945-3.33-1.813z" transform="translate(65 .207)"/>
            <path fill="#FFE2B7" d="M99.644 32.88c-.332.493-.144 1.2.42 1.581l2.58 1.74.6-.893-3.6-2.428z" transform="translate(65 .207)"/>
            <path fill="#FFE2B7" d="M100.352 32.254c-.332.493-.144 1.2.42 1.58l2.58 1.74.6-.892-3.6-2.428z" transform="translate(65 .207)"/>
            <path fill="#FFE2B7" d="M101.738 31.698c-.378.458-.259 1.181.266 1.614l2.4 1.98.476-1.03-3.142-2.564zM54.782 15.52c-.513-2.147-.876-4.336-.852-6.606.025-.571.054-1.144.194-1.74.054-.296.168-.6.311-.904.146-.29.427-.656.643-.825.93-.805 1.923-1.344 2.941-1.841 2.032-.993 4.145-1.732 6.336-2.29 1.102-.268 2.207-.494 3.432-.52.308-.003.627.008.981.07.35.099.785.114 1.245.695.197.29.27.668.227.939-.027.29-.121.468-.203.666-.175.342-.385.592-.588.837l-.602-1.31c1.384.069 2.67.256 3.975.532 1.291.294 2.566.668 3.794 1.157 2.46.963 4.742 2.426 6.522 4.316-1.08-.726-2.144-1.437-3.316-1.953-1.163-.52-2.34-.993-3.562-1.326-1.216-.347-2.447-.633-3.696-.813-1.234-.19-2.521-.322-3.721-.323-.439 0-.794-.356-.794-.794 0-.178.06-.343.16-.476l.03-.04c.138-.185.266-.37.343-.518.067-.15 0-.155.094.042.13.114-.028.003-.198-.013-.19-.03-.421-.04-.661-.031-.975.03-2.036.26-3.07.487-2.072.507-4.142 1.18-6.11 2.01-.968.429-1.96.884-2.74 1.467-.627.418-.843 1.553-1 2.573-.267 2.12-.204 4.334-.114 6.533" transform="translate(65 .207)"/>
            <path fill="#E7E1D3" d="M104.43 41.448l2.623.262.21 2.256s-1.679.42-2.728-.052l-.105-2.466z" transform="translate(65 .207)"/>
            <path fill="#F5EFE4" d="M32.449 72.542L33.988 73.766 32.169 77.089 29.336 75.41z" transform="translate(65 .207)"/>
            <path fill="#F5EFE4" d="M24.23 78.208C18.466 76.632 15.121 73.63 9.365 68.1 3.01 61.992-3.626 48.442 3.43 41.47c0 0 10.88 6.447 13.721 9.182 5.692 5.48 15.718 21.959 15.718 21.959s-6.024 6.312-8.639 5.597" transform="translate(65 .207)"/>
            <path fill="#141623" d="M57.736 31.313l4.318.274s.429 3.787-2.177 3.87c-2.606.082-2.141-4.144-2.141-4.144" transform="translate(65 .207)"/>
            <path fill="#7F786A" d="M60.307 33.463s2.986 13.015 2.468 21.905c-.523 8.971-1.034 13.153-1.034 13.153l-6.188 2.387-5.017-5.053 8.54-32.209 1.231-.183z" transform="translate(65 .207)"/>
            <path fill="#E7E1D3" d="M62.946 34.539L64.793 29.775 62.852 27.571 60.241 31.047 60.109 31.992z" transform="translate(65 .207)"/>
            <path fill="#E7E1D3" d="M56.657 33.983L55.639 29.119 58.236 27.545 60.428 31.118 60.295 31.927z" transform="translate(65 .207)"/>
            <path fill="#FFB218" d="M100.293 176.247v2.76h2.513c.45 0 .799-.061 1.049-.183.453-.224.68-.655.68-1.292 0-.538-.22-.908-.66-1.11-.245-.112-.59-.17-1.034-.175h-2.547zm0-3.995v2.282h2.516c.45 0 .815-.086 1.096-.257.278-.171.42-.473.42-.91 0-.481-.187-.8-.556-.954-.32-.107-.728-.161-1.224-.161h-2.252zm5.62-.695c.318.439.475.966.475 1.58 0 .63-.16 1.139-.479 1.523-.178.215-.442.412-.79.59.528.192.927.496 1.197.913.269.416.403.922.403 1.517 0 .613-.153 1.163-.462 1.65-.195.322-.439.594-.733.814-.33.253-.72.426-1.168.52-.45.094-.938.14-1.463.14H98.23v-10.35h5.001c1.263.019 2.157.386 2.683 1.103zM112.961 177.083c-.128.079-.258.144-.388.192-.13.05-.31.095-.538.138l-.455.084c-.427.075-.734.166-.92.273-.315.183-.473.466-.473.85 0 .342.096.589.29.74.191.154.425.23.702.23.437 0 .84-.127 1.208-.38.368-.252.56-.714.574-1.383v-.744zm-1.224-.935c.372-.046.64-.105.8-.174.287-.122.431-.312.431-.57 0-.313-.11-.53-.33-.65-.222-.118-.545-.178-.973-.178-.479 0-.818.117-1.017.35-.143.175-.238.408-.285.703h-1.93c.041-.67.23-1.22.563-1.65.531-.674 1.444-1.011 2.736-1.011.842 0 1.59.166 2.243.499.653.332.98.959.98 1.882v3.51c0 .244.005.538.014.885.014.262.054.44.12.533.065.094.163.17.294.233v.295h-2.176c-.06-.156-.103-.3-.127-.436-.023-.136-.042-.29-.056-.464-.278.3-.598.555-.96.766-.434.248-.924.372-1.469.372-.697 0-1.273-.197-1.727-.594-.455-.395-.682-.956-.682-1.681 0-.941.366-1.623 1.097-2.043.4-.23.99-.394 1.768-.492l.686-.085zM117.033 180.804L119.034 180.804 119.034 170.453 117.033 170.453zM125.53 177.083c-.128.079-.258.144-.388.192-.131.05-.31.095-.538.138l-.455.084c-.427.075-.734.166-.92.273-.315.183-.473.466-.473.85 0 .342.096.589.289.74.192.154.426.23.703.23.437 0 .839-.127 1.208-.38.368-.252.559-.714.574-1.383v-.744zm-1.224-.935c.372-.046.639-.105.8-.174.287-.122.43-.312.43-.57 0-.313-.11-.53-.33-.65-.221-.118-.544-.178-.972-.178-.48 0-.818.117-1.017.35-.143.175-.238.408-.285.703H121c.042-.67.23-1.22.564-1.65.53-.674 1.444-1.011 2.736-1.011.842 0 1.589.166 2.243.499.654.332.98.959.98 1.882v3.51c0 .244.005.538.014.885.014.262.054.44.119.533.066.094.165.17.295.233v.295h-2.176c-.061-.156-.103-.3-.127-.436-.023-.136-.042-.29-.056-.464-.278.3-.598.555-.961.766-.433.248-.923.372-1.468.372-.697 0-1.273-.197-1.727-.594-.455-.395-.682-.956-.682-1.681 0-.941.366-1.623 1.097-2.043.4-.23.99-.394 1.768-.492l.686-.085zM135.732 173.589c.5.415.751 1.101.751 2.061v5.154h-2.05v-4.655c0-.404-.053-.712-.16-.928-.196-.393-.567-.59-1.115-.59-.674 0-1.137.288-1.387.864-.131.304-.195.694-.195 1.166v4.143h-2.002v-7.64h1.938v1.117c.256-.394.499-.677.727-.85.41-.31.93-.464 1.56-.464.787 0 1.431.207 1.933.621M143.21 175.895c-.037-.285-.134-.543-.288-.77-.226-.31-.576-.465-1.049-.465-.676 0-1.138.335-1.387 1.004-.13.355-.197.826-.197 1.415 0 .56.066 1.01.197 1.351.24.637.69.955 1.351.955.47 0 .803-.126 1-.379.197-.253.317-.58.36-.983h2.042c-.046.608-.267 1.185-.66 1.727-.628.875-1.558 1.314-2.79 1.314-1.233 0-2.14-.365-2.72-1.096-.582-.73-.873-1.677-.873-2.84 0-1.313.321-2.335.963-3.065.643-.73 1.528-1.096 2.657-1.096.961 0 1.747.216 2.358.647.612.43.974 1.191 1.087 2.281h-2.05zM148.91 175.034c-.282.292-.46.687-.532 1.185h3.448c-.037-.532-.215-.935-.533-1.21-.32-.275-.715-.412-1.187-.412-.514 0-.912.145-1.195.437m2.994-1.73c.534.24.975.618 1.323 1.133.313.455.516.983.61 1.583.053.352.075.858.065 1.519h-5.574c.03.767.298 1.306.8 1.615.306.192.674.288 1.104.288.456 0 .826-.117 1.11-.351.156-.126.294-.302.412-.527h2.044c-.054.454-.302.915-.742 1.383-.686.745-1.646 1.117-2.88 1.117-1.018 0-1.917-.314-2.696-.941-.778-.628-1.168-1.651-1.168-3.065 0-1.326.352-2.342 1.055-3.05.703-.707 1.615-1.061 2.737-1.061.666 0 1.266.119 1.8.358M98.763 195.978h1.004c.206 0 .401-.002.589-.007.187-.005.326-.007.416-.007.392 0 .771-.005 1.135-.013.365-.009.713-.059 1.04-.15.328-.093.638-.24.93-.445.291-.205.56-.504.808-.896h-6.552c.11-.264.254-.558.431-.88.178-.326.354-.633.527-.925.2-.338.41-.675.63-1.012h4.47c0-.119-.056-.256-.17-.41-.115-.155-.261-.304-.445-.445-.181-.14-.38-.26-.594-.356-.215-.096-.418-.143-.61-.143H97.97c.074-.11.178-.262.315-.458.136-.196.286-.409.45-.636.166-.228.332-.463.5-.705.169-.24.324-.46.466-.656.14-.196.26-.356.355-.479.095-.123.147-.185.157-.185h10.954c.01.01-.019.092-.081.246-.064.156-.143.347-.24.576l-.314.745-.322.745c-.1.227-.224.497-.368.807h-1.52c.02.054.05.143.09.266.04.123.085.258.13.403.046.147.087.283.124.412.035.128.058.218.067.273h3.584l-1.683 2.817h-1.777c-.155.73-.406 1.336-.752 1.82-.347.482-.758.877-1.231 1.182-.476.305-.988.542-1.54.711-.55.17-1.11.298-1.674.39l5.58 7.686v1.108h-3.858l-6.618-8.82v-2.559zM115.666 193.694v-2.653c1.227-.055 2.087-.137 2.578-.245.782-.174 1.419-.521 1.91-1.04.336-.357.59-.831.764-1.423.1-.356.15-.619.15-.792h3.255v19.83h-3.993v-13.677h-4.664zM131.652 203.472c.557-1.32 1.87-2.722 3.94-4.198 1.795-1.285 2.957-2.206 3.486-2.763.812-.866 1.217-1.813 1.217-2.845 0-.839-.232-1.536-.697-2.092-.465-.556-1.13-.834-1.997-.834-1.185 0-1.992.443-2.42 1.326-.246.511-.393 1.323-.438 2.435h-3.788c.063-1.686.37-3.05.917-4.09 1.04-1.978 2.89-2.967 5.544-2.967 2.1 0 3.77.581 5.011 1.744 1.241 1.162 1.862 2.7 1.862 4.615 0 1.468-.439 2.773-1.316 3.912-.575.756-1.52 1.6-2.836 2.53l-1.562 1.108c-.977.693-1.646 1.194-2.006 1.504-.36.31-.664.67-.909 1.081h8.656v3.432h-13.58c.036-1.422.342-2.72.916-3.898M151.414 202.878c.374 1.209 1.14 1.812 2.297 1.812 1.158 0 1.918-.603 2.278-1.812.36-1.208.54-2.952.54-5.231 0-2.39-.18-4.158-.54-5.307-.36-1.148-1.12-1.722-2.278-1.722-1.157 0-1.923.574-2.297 1.722-.374 1.149-.56 2.918-.56 5.307 0 2.279.186 4.023.56 5.23m7.611-12.807c1.016 1.778 1.525 4.304 1.525 7.577 0 3.273-.509 5.794-1.525 7.563-1.017 1.769-2.788 2.653-5.314 2.653-2.525 0-4.296-.884-5.313-2.653-1.016-1.77-1.524-4.29-1.524-7.563 0-3.273.508-5.8 1.524-7.577 1.017-1.777 2.788-2.667 5.313-2.667 2.526 0 4.297.89 5.314 2.667M167.552 202.878c.374 1.209 1.138 1.812 2.297 1.812 1.157 0 1.918-.603 2.278-1.812.36-1.208.54-2.952.54-5.231 0-2.39-.18-4.158-.54-5.307-.36-1.148-1.12-1.722-2.279-1.722-1.158 0-1.923.574-2.297 1.722-.373 1.149-.56 2.918-.56 5.307 0 2.279.186 4.023.56 5.23m7.612-12.807c1.016 1.778 1.524 4.304 1.524 7.577 0 3.273-.508 5.794-1.525 7.563-1.017 1.769-2.787 2.653-5.314 2.653-2.525 0-4.296-.884-5.313-2.653-1.016-1.77-1.523-4.29-1.523-7.563 0-3.273.507-5.8 1.524-7.577 1.017-1.777 2.787-2.667 5.313-2.667s4.297.89 5.314 2.667M183.689 202.878c.374 1.209 1.139 1.812 2.297 1.812 1.158 0 1.918-.603 2.278-1.812.36-1.208.54-2.952.54-5.231 0-2.39-.18-4.158-.54-5.307-.36-1.148-1.12-1.722-2.278-1.722s-1.923.574-2.297 1.722c-.374 1.149-.56 2.918-.56 5.307 0 2.279.186 4.023.56 5.23m7.61-12.807c1.017 1.778 1.526 4.304 1.526 7.577 0 3.273-.51 5.794-1.525 7.563-1.017 1.769-2.788 2.653-5.314 2.653-2.525 0-4.296-.884-5.313-2.653-1.016-1.77-1.524-4.29-1.524-7.563 0-3.273.508-5.8 1.524-7.577 1.017-1.777 2.788-2.667 5.313-2.667 2.526 0 4.297.89 5.314 2.667" transform="translate(65 .207)"/>
        </g>
        <g transform="translate(179 119.207)">
            <mask id="prefix__o" fill="#fff">
                <use xlink:href="#prefix__m"/>
            </mask>
            <path fill="url(#prefix__n)" d="M5.743 1.264C2.095 2.495-.011 6.304.887 10.048c2.678 9.308 12.471 17.661 21.439 24.759.645.51 1.58.402 2.09-.243.51-.643.402-1.579-.242-2.089C15.565 25.662 6.18 17.688 3.746 9.226c-.681-2.369.688-4.842 3.058-5.524 2.37-.681 4.843.688 5.524 3.059 1.625 5.652 9.701 12.636 17.385 18.717.644.51 1.579.401 2.089-.243.511-.644.403-1.579-.242-2.09-4.058-3.203-14.802-11.705-16.394-17.209C14.12 2.832 11.224.873 8.119.873c-.788 0-1.588.126-2.376.391" mask="url(#prefix__o)"/>
        </g>
        <g transform="translate(162 107.207)">
            <mask id="prefix__r" fill="#fff">
                <use xlink:href="#prefix__p"/>
            </mask>
            <path fill="url(#prefix__q)" d="M19.69 1.406C9.426 4.351 3.492 15.06 6.438 25.325c.001.007.003.015.006.021C8.886 33.83 3.65 36.185 1.982 36.702c-.784.246-1.22 1.081-.973 1.864.246.784 1.082 1.22 1.865.974 4.548-1.422 8.965-6.207 6.428-15.018-2.502-8.683 2.51-17.749 11.193-20.25l.013-.005c8.585-2.413 17.53 2.453 20.169 10.971.035.116.086.228.149.331.155.256.473.794 10.034 8.552.637.518 1.574.421 2.092-.216.519-.637.422-1.574-.216-2.092-3.474-2.82-8.551-7.011-9.296-7.711C40.773 5.922 33.173.678 24.956.678c-1.741 0-3.51.235-5.266.728" mask="url(#prefix__r)"/>
        </g>
        <g transform="translate(167 113.207)">
            <mask id="prefix__u" fill="#fff">
                <use xlink:href="#prefix__s"/>
            </mask>
            <path fill="url(#prefix__t)" d="M16.329 1.126C9.356 3.279 5.308 10.536 7.14 17.6c3.005 13.685.759 16.844-5.405 18.77-.784.248-1.219 1.083-.973 1.866.246.784 1.082 1.22 1.866.974 8.612-2.679 10.483-8.306 7.436-22.249-1.479-5.529 1.649-11.244 7.104-12.976 5.528-1.569 11.284 1.621 12.883 7.139.596 2.029 2.176 4.813 14.357 14.454.645.511 1.58.402 2.09-.242.51-.644.401-1.579-.243-2.089C35.199 14.5 33.306 11.731 32.89 10.292 31.191 4.426 25.834.609 20.015.608c-1.218 0-2.456.167-3.686.518" mask="url(#prefix__u)"/>
        </g>
        <g transform="translate(185 125.207)">
            <mask id="prefix__x" fill="#fff">
                <use xlink:href="#prefix__v"/>
            </mask>
            <path fill="url(#prefix__w)" d="M1.594.594C.827.83.386 1.628.593 2.403c2.344 8.156 11.262 14.921 16.59 18.964 1.083.779 2.126 1.613 3.124 2.498.59.571 1.532.555 2.103-.036.557-.576.557-1.491 0-2.067-1.09-.985-2.233-1.909-3.427-2.766C13.949 15.176 5.525 8.787 3.452 1.581 3.256.941 2.667.529 2.03.529c-.144 0-.291.021-.436.065" mask="url(#prefix__x)"/>
        </g>
        <g transform="translate(182 149.207)">
            <mask id="prefix__A" fill="#fff">
                <use xlink:href="#prefix__y"/>
            </mask>
            <path fill="url(#prefix__z)" d="M.565 10.622c-.051.82.572 1.526 1.391 1.577h.096c.787.002 1.439-.609 1.487-1.395.188-3.064 1.36-7.526 2.975-7.526 2.204 0 3.769 2.124 5.025 3.828.415.592.868 1.155 1.359 1.684.591.571 1.532.554 2.103-.036.557-.577.557-1.49 0-2.067-.384-.424-.742-.873-1.067-1.344C12.43 2.554 9.661.673 6.514.304 1.457.304.675 8.9.565 10.622" mask="url(#prefix__A)"/>
        </g>
        <g transform="translate(173 140.207)">
            <mask id="prefix__D" fill="#fff">
                <use xlink:href="#prefix__B"/>
            </mask>
            <path fill="url(#prefix__C)" d="M7.591.522c-.726.262-1.13 1.038-.929 1.784C7.935 6.284 5.433 14.089 1.67 15.312c-.784.245-1.221 1.079-.975 1.863.245.785 1.08 1.221 1.864.976l.03-.01c5.723-1.844 8.483-11.786 6.908-16.728-.22-.604-.79-.981-1.399-.981-.168 0-.339.029-.507.09" mask="url(#prefix__D)"/>
        </g>
        <g transform="translate(161 101.207)">
            <mask id="prefix__G" fill="#fff">
                <use xlink:href="#prefix__E"/>
            </mask>
            <path fill="url(#prefix__F)" d="M.741 25.992c0 .822.667 1.488 1.488 1.488s1.487-.666 1.487-1.488C3.73 13.675 13.711 3.694 26.027 3.681c12.068 0 16.296 6.825 19.693 12.31 1.999 3.227 3.724 6.015 6.621 6.955.78.261 1.623-.156 1.885-.935.263-.778-.156-1.622-.934-1.884-.01-.003-.021-.008-.031-.01l-.003-.003c-1.859-.595-3.32-2.975-5.013-5.691C44.663 8.635 39.752.706 26.027.706 12.069.724.758 12.034.741 25.992" mask="url(#prefix__G)"/>
        </g>
        <g transform="translate(161 131.207)">
            <mask id="prefix__J" fill="#fff">
                <use xlink:href="#prefix__H"/>
            </mask>
            <path fill="url(#prefix__I)" d="M.741 1.942c.239 1.793.796 3.531 1.645 5.128.253.503.768.822 1.33.822.822 0 1.487-.666 1.487-1.488 0-.231-.054-.46-.157-.666-.635-1.191-1.083-2.47-1.33-3.796 0-.822-.666-1.487-1.487-1.487-.821 0-1.488.665-1.488 1.487" mask="url(#prefix__J)"/>
        </g>
        <g transform="translate(163 95.207)">
            <mask id="prefix__M" fill="#fff">
                <use xlink:href="#prefix__K"/>
            </mask>
            <path fill="url(#prefix__L)" d="M.443 10.398c-.425.702-.201 1.615.5 2.041.701.428 1.616.206 2.044-.496l.003-.004c1.29-2.129 7.651-8.207 19.549-8.207 11.436 0 19.572 5.792 21.038 8.207.427.702 1.342.926 2.044.5.702-.426.926-1.341.499-2.043C44.08 7.034 35.069.757 22.539.757 9.216.757 2.074 7.715.443 10.398" mask="url(#prefix__M)"/>
        </g>
        <g transform="translate(170 89.207)">
            <mask id="prefix__P" fill="#fff">
                <use xlink:href="#prefix__N"/>
            </mask>
            <path fill="url(#prefix__O)" d="M15.539.808c-7.865 0-9.834 1.011-12.333 2.294-.502.258-1.038.531-1.662.811C.78 4.217.407 5.082.71 5.845c.304.763 1.168 1.137 1.932.832.039-.015.077-.032.115-.051h-.009c.681-.297 1.258-.595 1.805-.892C6.791 4.606 8.4 3.782 15.539 3.782c4.821-.265 9.643.507 14.139 2.264.568.212 1.14.423 1.737.628.156.055.321.082.486.083.821.001 1.488-.664 1.49-1.485.001-.637-.403-1.203-1.005-1.41-.577-.199-1.125-.401-1.672-.595C26.461 1.609 21.941.761 17.388.761c-.616 0-1.232.015-1.849.047" mask="url(#prefix__P)"/>
        </g>
        <g transform="translate(209 107.207)">
            <mask id="prefix__S" fill="#fff">
                <use xlink:href="#prefix__Q"/>
            </mask>
            <path fill="url(#prefix__R)" d="M1.043.889c-.7.43-.919 1.346-.488 2.045 1.107 1.783 2.053 3.66 2.826 5.612.279.771 1.132 1.171 1.904.892.727-.263 1.131-1.039.93-1.785-.843-2.185-1.89-4.287-3.126-6.278C2.808.919 2.32.667 1.821.667c-.266 0-.535.072-.778.222" mask="url(#prefix__S)"/>
        </g>
        <g transform="translate(179 119.207)">
            <mask id="prefix__V" fill="#fff">
                <use xlink:href="#prefix__T"/>
            </mask>
            <path fill="url(#prefix__U)" d="M6.383 1.081C2.39 2.038-.071 6.053.887 10.048c2.678 9.308 12.462 17.657 21.43 24.759.263.207.588.321.923.321l-.024-.003c.455.001.885-.207 1.168-.564.51-.645.401-1.58-.242-2.09C15.535 25.659 6.15 17.684 3.716 9.223c-.68-2.368.688-4.84 3.057-5.522 2.369-.681 4.842.687 5.523 3.056C13.917 12.413 22 19.394 29.683 25.475c.023.02.048.038.072.057.66.49 1.591.352 2.081-.309.489-.659.352-1.591-.308-2.08-4.034-3.201-14.779-11.706-16.361-17.207C14.128 2.855 11.249.874 8.123.874c-.575 0-1.159.067-1.74.207" mask="url(#prefix__V)"/>
        </g>
        <g transform="translate(162 107.207)">
            <mask id="prefix__Y" fill="#fff">
                <use xlink:href="#prefix__W"/>
            </mask>
            <path fill="url(#prefix__X)" d="M19.69 1.406l-.015.004C9.412 4.362 3.486 15.075 6.438 25.338c2.436 8.481-2.8 10.833-4.463 11.354-.619.196-1.04.768-1.041 1.417-.002.822.664 1.489 1.484 1.49.154.001.306-.022.453-.068 4.551-1.423 8.966-6.209 6.431-15.017l-.001-.003C6.806 15.826 11.823 6.764 20.508 4.267c8.586-2.415 17.533 2.452 20.172 10.972.036.114.085.223.146.327.155.256.473.794 10.037 8.556.625.476 1.513.383 2.027-.212.538-.621.468-1.561-.153-2.097-3.475-2.82-8.552-7.014-9.293-7.711C40.776 5.921 33.176.677 24.959.677c-1.742 0-3.512.236-5.269.729" mask="url(#prefix__Y)"/>
        </g>
        <g transform="translate(167 113.207)">
            <mask id="prefix__ab" fill="#fff">
                <use xlink:href="#prefix__Z"/>
            </mask>
            <path fill="url(#prefix__aa)" d="M16.326 1.126C9.353 3.28 5.307 10.536 7.137 17.6c3.005 13.678.762 16.844-5.402 18.77-.619.196-1.041.769-1.042 1.418-.001.821.664 1.488 1.485 1.49.145 0 .29-.02.429-.063 8.626-2.689 10.497-8.302 7.437-22.249-1.49-5.532 1.639-11.257 7.101-12.99 5.528-1.578 11.292 1.615 12.886 7.139.58 2.024 2.16 4.81 14.356 14.455.024.019.047.038.072.056.659.49 1.591.352 2.08-.308.49-.659.352-1.591-.307-2.08-11.04-8.74-12.929-11.51-13.342-12.946C31.186 4.426 25.828.61 20.007.61c-1.216 0-2.453.167-3.681.516" mask="url(#prefix__ab)"/>
        </g>
        <g transform="translate(185 125.207)">
            <mask id="prefix__ae" fill="#fff">
                <use xlink:href="#prefix__ac"/>
            </mask>
            <path fill="url(#prefix__ad)" d="M1.583.545C.798.786.356 1.617.596 2.403c2.344 8.156 11.263 14.921 16.59 18.964 1.083.781 2.126 1.617 3.124 2.502.28.278.658.435 1.053.435.392-.002.768-.158 1.047-.435.582-.58.583-1.522.003-2.104-1.091-.986-2.236-1.911-3.43-2.769C13.949 15.176 5.537 8.787 3.455 1.581c-.005-.016-.009-.033-.015-.049C3.244.892 2.655.479 2.018.479c-.144 0-.291.021-.435.066" mask="url(#prefix__ae)"/>
        </g>
        <g transform="translate(182 149.207)">
            <mask id="prefix__ah" fill="#fff">
                <use xlink:href="#prefix__af"/>
            </mask>
            <path fill="url(#prefix__ag)" d="M.565 10.626c-.051.819.572 1.525 1.391 1.576h.096c.787.002 1.439-.61 1.487-1.394.188-3.068 1.363-7.53 2.975-7.53 2.208 0 3.772 2.124 5.039 3.837.414.59.869 1.153 1.36 1.68.576.558 1.49.558 2.066 0 .592-.569.608-1.511.037-2.102-.385-.424-.74-.873-1.064-1.345C12.443 2.555 9.668.673 6.514.307 1.457.307.672 8.903.565 10.626" mask="url(#prefix__ah)"/>
        </g>
        <g transform="translate(173 140.207)">
            <mask id="prefix__ak" fill="#fff">
                <use xlink:href="#prefix__ai"/>
            </mask>
            <path fill="url(#prefix__aj)" d="M7.518.397c-.767.294-1.151 1.154-.856 1.921 1.255 3.978-1.233 11.783-4.993 13.006-.615.198-1.033.771-1.031 1.419.001.821.669 1.486 1.489 1.484.156.004.31-.015.459-.059 5.717-1.869 8.486-11.801 6.907-16.743-.014-.058-.032-.116-.054-.172C9.212.661 8.648.298 8.05.298c-.177 0-.357.032-.532.099" mask="url(#prefix__ak)"/>
        </g>
        <g transform="translate(161 101.207)">
            <mask id="prefix__an" fill="#fff">
                <use xlink:href="#prefix__al"/>
            </mask>
            <path fill="url(#prefix__am)" d="M.741 25.992c0 .822.667 1.488 1.488 1.488s1.487-.666 1.487-1.488C3.73 13.675 13.71 3.695 26.027 3.681c12.068 0 16.296 6.825 19.693 12.307 1.999 3.228 3.724 6.014 6.621 6.955l.031.01c.784.245 1.619-.191 1.864-.975.246-.784-.191-1.619-.975-1.864-1.859-.604-3.32-2.963-5.013-5.691C44.663 8.635 39.752.706 26.027.706 12.069.724.758 12.034.741 25.992" mask="url(#prefix__an)"/>
        </g>
        <g transform="translate(163 95.207)">
            <mask id="prefix__aq" fill="#fff">
                <use xlink:href="#prefix__ao"/>
            </mask>
            <path fill="url(#prefix__ap)" d="M.446 10.396c-.02.029-.038.06-.056.092-.401.717-.144 1.623.572 2.023.717.402 1.624.145 2.024-.572C4.28 9.81 10.641 3.732 22.539 3.732c11.436 0 19.575 5.792 21.038 8.207.27.446.752.717 1.273.717.271 0 .537-.074.769-.215.703-.425.927-1.34.501-2.043C44.08 7.034 35.069.757 22.539.757 9.216.757 2.074 7.715.446 10.396" mask="url(#prefix__aq)"/>
        </g>
        <g transform="translate(170 89.207)">
            <mask id="prefix__at" fill="#fff">
                <use xlink:href="#prefix__ar"/>
            </mask>
            <path fill="url(#prefix__as)" d="M15.539.808c-7.862 0-9.834 1.011-12.315 2.29-.506.259-1.038.533-1.666.815-.752.332-1.093 1.213-.76 1.964.332.754 1.213 1.094 1.965.762.678-.316 1.258-.611 1.805-.893C6.791 4.606 8.4 3.782 15.539 3.782c4.82-.264 9.641.509 14.137 2.267.568.209 1.145.422 1.739.627.157.054.321.081.486.081.657.012 1.242-.407 1.443-1.033.251-.782-.179-1.619-.961-1.87-.577-.187-1.125-.393-1.672-.596C26.465 1.605 21.953.76 17.407.76c-.622 0-1.245.016-1.868.048" mask="url(#prefix__at)"/>
        </g>
        <g transform="translate(209 107.207)">
            <mask id="prefix__aw" fill="#fff">
                <use xlink:href="#prefix__au"/>
            </mask>
            <path fill="url(#prefix__av)" d="M1.046.877C.345 1.306.128 2.223.558 2.923c1.108 1.786 2.053 3.668 2.826 5.623.197.616.769 1.034 1.415 1.035.153 0 .306-.025.452-.071.782-.25 1.214-1.087.964-1.869-.842-2.185-1.888-4.286-3.123-6.277-.28-.457-.768-.709-1.267-.709-.266 0-.536.072-.779.222" mask="url(#prefix__aw)"/>
        </g>
        <g>
            <path fill="#57575E" d="M25.68 104.128H12.814c-2.153 0-3.988-1.24-4.789-3.235-.804-1.997-.342-4.162 1.208-5.656l15.543-14.928c.258-.243.655-.237.901.018.242.255.233.655-.019.9L10.115 96.157c-1.398 1.342-1.388 3.08-.913 4.26.475 1.18 1.674 2.439 3.612 2.439H25.68c.351 0 .636.286.636.636 0 .352-.285.637-.636.637M63.23 104.007l-26.286.108c-.35 0-.637-.286-.637-.636 0-.352.286-.638.637-.638l26.271-.106c.351-.004.64.278.644.629.004.35-.279.64-.63.643" transform="translate(231 30.207)"/>
            <path fill="#A29C8F" d="M18.026 67.135L25.255 95.6c.68 2.68 3.392 4.304 6.072 3.652l-9.708-38.224c-2.666.706-4.274 3.427-3.593 6.107" transform="translate(231 30.207)"/>
            <path fill="#57575E" d="M32.525 98.95l-9.709-38.228-1.148.29c-.017.005-.033.012-.049.016l9.707 38.225.051-.01 1.148-.292zM169.96 204.714L170.758 204.714 153.251 143.143 150.566 143.143zM145.502 204.714L146.3 204.714 140.327 143.143 137.643 143.143zM98.556 204.714L97.758 204.714 115.265 143.143 117.95 143.143zM126.997 204.714L126.199 204.714 128.242 143.143 130.927 143.143z" transform="translate(231 30.207)"/>
            <path fill="#A29C8F" d="M141.42 139.507l10.56-21.888c2.444-5.064 7.57-8.282 13.193-8.282h9.032l-8.33 24.353c-2.225 6.5-8.336 10.869-15.207 10.869h-17.292c3.43 0 6.554-1.964 8.044-5.052" transform="translate(231 30.207)"/>
            <path fill="#7F786A" d="M115.222 108.945h3.242c11.907 0 23.112-5.635 30.212-15.193 2.552-2.819 6.176-4.426 9.98-4.426h3.455c6.158 0 13.642.875 15.125 11.094l.86 8.525H164.661c-5.623 0-10.75 3.219-13.193 8.283l-10.56 21.888c-1.49 3.088-4.616 5.051-8.044 5.051H99.08v-4.017c0-11.74 8.187-31.205 16.143-31.205" transform="translate(231 30.207)"/>
            <path fill="#57575E" d="M99.544 145.364h33.787c3.876 0 7.472-2.183 9.156-5.561l10.56-21.17c2.224-4.456 6.964-7.335 12.08-7.335h13.434c.683 0 1.237-.536 1.237-1.196 0-.661-.554-1.195-1.237-1.195h-13.435c-6.058 0-11.674 3.409-14.305 8.686l-10.56 21.17c-1.275 2.559-3.998 4.21-6.93 4.21H99.544c-.683 0-.683 2.39 0 2.39" transform="translate(231 30.207)"/>
            <path fill="#EABBAB" d="M44.05 171.338l-1.48 5.036c-1.117 3.822-3.551 14.3-7.103 15.7-.691.458 7.193 6.95 7.708 6.549.117-.093 3.598-11.117 3.655-11.243l2.633-6.681c.755-1.922 1.587-3.815 2.495-5.676l1.703-3.685H44.05z" transform="translate(231 30.207)"/>
            <path fill="#57575E" d="M36.412 190.843s-4.15 3.337-4.698 3.895c-.5.51-3.784 1.339-6.109 1.923-3.407.858-4.045 2.375-4.335 2.941-.158.005-.283.14-.278.304l.014.597s9.781.439 13.732.052c0 0 3.222-2.156 3.428-.055l7.995.04-.058-2.302-.4-.06c.21-1.243.302-3.587-.153-5.708l-.388-.107s.258 1.09-2.635 1.327c-2.893.234-4.412-.073-4.669-.578-.258-.505-.17-.294-.17-.294s.21-1.328-1.276-1.976" transform="translate(231 30.207)"/>
            <path fill="#7F786A" d="M123.103 140.915l-1.84-20.136-60.292 7.435c-1.864.447-5.073 2.4-6.073 5.978 0 0-16.504 52.296-17.437 55.114l4.258 1.517 6.239-1.565c7.12-11.43 12.58-23.338 16.707-35.631 1.16-2.617 1.885-5.388 2.147-8.214l.45-4.836 55.841.338z" transform="translate(231 30.207)"/>
            <path fill="#EABBAB" d="M78.972 182.088c-.194-2.04-.305-4.087-.333-6.135l-.198-5.678h-9.657l1.992 10.692c.73 3.905 2.812 13.494-.571 15.5-.373.713-10.177 5.1-9.35 5.804.827.7 19.95-2.218 20.198-2.804.056-.134-1.41-10.143-1.415-10.28l-.666-7.1z" transform="translate(231 30.207)"/>
            <path fill="#57575E" d="M71.525 193.666s-3.779 3.707-4.266 4.313c-.445.555-3.625 1.685-5.877 2.484-3.3 1.17-3.776 2.739-4.006 3.33-.156.018-.266.165-.245.328l.078.593s9.778-.475 13.67-1.228c0 0 2.98-2.445 3.406-.374l7.96-.704-.3-2.284-.405-.023c.08-1.256-.076-3.597-.75-5.665l-.398-.073s.371 1.063-2.483 1.566c-2.854.504-4.398.34-4.707-.14-.31-.48-.2-.277-.2-.277s.07-1.34-1.477-1.846" transform="translate(231 30.207)"/>
            <path fill="#A29C8F" d="M136.095 129.836c-.576-5.771-.838-7.71-3.71-16.333l-21.764 1.876.629 6.197c-14.954 1.494-29.638 3.594-43.186 6.942-3.476.858-7.317 5.69-6.696 9.024 0 0 9.27 51.617 9.562 53.687l4.124 1.714 6-1.586c.683-14.794-.24-31.466-2.08-49.211 10.745.524 27.183 1.095 44.483.15 10.227.002 12.912-9.5 12.638-12.46" transform="translate(231 30.207)"/>
            <path fill="#F7C8B3" d="M120.391 75.903L112.698 78.524 107.819 65.604 114.672 63.65z" transform="translate(231 30.207)"/>
            <path fill="#EF5A29" d="M109.489 70.026c.606-.345 1.173-.707 1.688-1.094.406 1.292-.16 5.141-.16 5.141l-1.528-4.047z" transform="translate(231 30.207)"/>
            <path fill="#F7C8B3" d="M100.142 67.505c.616 1.094 1.089 2.362 2.259 3.715.725.838 2.364.709 3.79.23 3.148-1.053 5.193-2.418 6.85-4.23 1.15-1.255 2.113-2.727 3.127-4.46.828-1.414 2.514-6.87-.347-12.398-3.387-6.543-15.963-3.413-18.68 3.137-.141.34-.367 1.843 0 3.815.01.053.02.107.032.162.294 1.465.916 3.172 2.136 4.844.254.349.352.787.166 1.174-.366.766-1.12 1.807-1.605 2.329-.678.734 2.272 1.682 2.272 1.682" transform="translate(231 30.207)"/>
            <path fill="#57575E" d="M95.117 56.122c-1.16-.08-2.458-1.532-2.708-3.208-.172-1.15.802-2.625 2.004-2.796-1.115-2.474 1.482-4.318 3.474-4.037.366-1.325 1.475-1.903 2.813-2.147 1.339-.245 2.47.186 3.506 1.068.326-.818 1.282-1.331 2.144-1.15.203.043.404.12.61.103.397-.033.674-.388.97-.653 1.068-.962 2.803-.914 3.89.078 1.027-.986 3.644-.718 4.53.616.745-.378 3.415.836 3.58 3.04 1.159-.05 2.343.38 3.156 1.208.813.826 1.226 2.047 1.022 3.189.595.107 1.057.61 1.282 1.17.225.563.437 1.609-.161 2.165 1.778.773 2.198 3.63.929 5.095 1.056 1.1 1.199 2.962.324 4.21-.875 1.25-2.674 1.75-4.07 1.133-1.124 1.088-2.996 1.3-4.337.494-.715.474-1.678.397-2.456.016-1.05-.33-2.388-1.056-2.648-1.964 2.282-1.11 2.544-4.321.463-5.508-1.77-1.01-3.064 1.418-2.937 2.253l-1.29-.314s-.22-1.058-.424-1.246c-.687-.633-1.76-.915-2.1-1.278 1.66-1.228-1.305-1.194-1.53-1.523-.367-.538-1.02-.796-1.66-.667-2.42.488-5.3-.274-5.797-1.204-.27.55-1.05 2.86.34 5.88-1.064 1.283-2.736-.131-2.115-1.438-.905.31-2.127-1.684-.804-2.585" transform="translate(231 30.207)"/>
            <path fill="#57575E" d="M98.382 58.528c.54-.431 1.595-.46 1.918-.437.325.022.646.09.952.191.307.101.585.27.844.443l-.026.047c-.29-.107-.58-.202-.882-.228-.295-.042-.593-.054-.887-.022-.296.025-1.462.192-1.799.173l-.12-.167z" transform="translate(231 30.207)"/>
            <path fill="#E1786E" d="M101.306 67.667l.38-.14 1.793-.65s.95 2.076.022 2.55c-.93.475-2.195-1.76-2.195-1.76" transform="translate(231 30.207)"/>
            <path fill="#57575E" d="M100.235 61.904c.272.493.76.745 1.089.563.33-.182.377-.729.106-1.221-.272-.493-.76-.745-1.09-.564-.33.182-.377.729-.105 1.222" transform="translate(231 30.207)"/>
            <path fill="#E6A38C" d="M123.51 74.367c-2.203-2.367-7.194.139-10.717 2.4l-5.62 3.355-13.439 8.822-29.203 4.449-10.495 2.728-10.68 4.955 1.76-.002 8.76-1.672 5.263-.007 4.242-1.835 31.013-.272c9.36-3.685 16.578-6.526 27.216-14.373 2.98-2.012 4.049-6.24 1.9-8.548" transform="translate(231 30.207)"/>
            <path fill="#EA6C20" d="M123.51 74.367c-2.203-2.367-8.81.07-11.457 2.518l-4.88 3.237-13.444 8.623-25.162 3.833.133 5.744 25.712-.226c9.36-3.685 16.56-7.334 27.198-15.181 2.98-2.012 4.049-6.24 1.9-8.548" transform="translate(231 30.207)"/>
            <path fill="#EEF2FE" d="M70.394 98.499L66.227 98.569 66.093 92.728 70.248 92.153z" transform="translate(231 30.207)"/>
            <path fill="#FFBF4D" d="M133.262 118.641c-1.225.607-5.214.678-6.796 1.302-.007 0-.015.007-.03.014-5.156 2.031-11.596 3.491-15.367.335-.698-5.276-3.695-21.478-4.386-26.322-.79-5.534-.335-8.332 1.611-12.407.594-1.239 1.248-2.41 1.925-3.498 3.383-5.39 7.519-8.675 9.427-7.854 3.072 1.324 8.257 4.828 8.705 12.537 1.756 13.9 1.803 19.555 5.11 31.75.402 1.476 1.17 3.458-.2 4.143" transform="translate(231 30.207)"/>
            <path fill="#EA6C20" d="M119.51 70.145L110.314 77.961 108.464 74.079 117.838 66.876zM126.466 119.943c-.008 0-.015.007-.031.015-5.154 2.03-11.594 3.49-15.365.335-.7-5.277-3.695-21.479-4.387-26.323-.791-5.534 18.508-16.723 18.82-14.898.558 3.274-3.402 8.018-5.112 9.6-1.718 1.582-2.935 3.619-4.866 4.926-.783.517-1.406 1.581-1.56 2.509-.22 1.323.495 1.522.465 2.859-.04 1.805-.988 1.756-1.65 3.946-1.467 4.774.19 5.694.419 6.539.327 1.171-.64 2.432-.26 3.581.343 1.026-.638 4.903-.075 5.435.563.533 2.937 1.598 3.697 1.743 1.612.304 9.905-.267 9.905-.267" transform="translate(231 30.207)"/>
            <path fill="#F4FAFC" d="M119.51 70.145L110.314 77.961 109.18 72.825 117.838 66.876z" transform="translate(231 30.207)"/>
            <path fill="#EABBAB" d="M124.483 76.68c-2.162-2.452-9.56-1.168-12.439 1.172l-4.84 3.932-14.429 8.284-30.573 3.293-11.048 2.311-11.36 4.53 1.83.067 9.188-1.325 5.467.201 4.506-1.666 32.231.95c9.92-3.312 17.57-5.866 29.038-13.285 3.204-1.893 4.537-6.074 2.43-8.465" transform="translate(231 30.207)"/>
            <path fill="#FFBF4D" d="M124.483 76.68c-2.162-2.452-9.56-1.168-12.439 1.172l-4.84 3.932-14.423 8.084-26.343 2.837-.169 5.744 24.483.341c2.338.033 4.662-.352 6.822-1.125 8.13-2.905 14.373-5.983 24.48-12.52 3.204-1.894 4.537-6.075 2.43-8.466" transform="translate(231 30.207)"/>
            <path fill="#EEF2FE" d="M68.02 98.693L63.687 98.598 63.858 92.759 68.206 92.348z" transform="translate(231 30.207)"/>
            <path fill="#57575E" d="M119.754 22.31h37.667c2.93 0 5.306-2.375 5.306-5.306V6.094c0-2.93-2.375-5.307-5.306-5.307h-37.667c-2.93 0-5.306 2.376-5.306 5.306v10.911c0 2.931 2.376 5.306 5.306 5.306" transform="translate(231 30.207)"/>
            <path fill="#FFE2B7" d="M124.972 13.047c.05.355.149.62.296.796.269.32.73.48 1.384.48.39 0 .709-.042.953-.127.463-.161.695-.462.695-.901 0-.257-.114-.456-.34-.596-.228-.137-.587-.258-1.08-.364l-.841-.184c-.827-.184-1.396-.382-1.705-.597-.524-.358-.786-.92-.786-1.682 0-.696.257-1.274.769-1.735.512-.46 1.265-.691 2.258-.691.829 0 1.537.218 2.122.652.586.434.892 1.064.92 1.89h-1.56c-.03-.467-.238-.8-.627-.997-.26-.13-.582-.194-.968-.194-.43 0-.771.084-1.027.252-.256.169-.384.405-.384.707 0 .278.126.485.379.623.162.09.506.198 1.032.32l1.364.323c.598.14 1.046.329 1.345.564.463.366.695.895.695 1.587 0 .71-.275 1.3-.824 1.77-.55.469-1.324.704-2.326.704-1.024 0-1.828-.231-2.415-.694-.586-.462-.88-1.097-.88-1.906h1.55zM131.21 15.446L131.21 7.673 132.824 7.673 132.824 10.636 135.845 10.636 135.845 7.673 137.459 7.673 137.459 15.446 135.845 15.446 135.845 11.976 132.824 11.976 132.824 15.446zM144.206 13.574c.378-.475.567-1.15.567-2.025 0-.872-.189-1.546-.567-2.022-.378-.477-.889-.715-1.532-.715s-1.157.237-1.54.712c-.383.474-.575 1.15-.575 2.025s.192 1.55.575 2.025c.383.475.897.712 1.54.712s1.154-.237 1.532-.712m1.015 1.18c-.587.606-1.436.908-2.547.908-1.11 0-1.96-.302-2.547-.907-.788-.742-1.18-1.81-1.18-3.206 0-1.424.392-2.493 1.18-3.206.587-.605 1.436-.908 2.547-.908 1.111 0 1.96.303 2.547.908.784.713 1.176 1.782 1.176 3.206 0 1.396-.392 2.464-1.176 3.206M151.831 9.28c-.206-.171-.494-.257-.864-.257h-1.464v2.288h1.464c.37 0 .658-.093.864-.28.206-.186.31-.48.31-.885 0-.404-.104-.693-.31-.865m1.24 2.8c-.455.38-1.105.57-1.95.57h-1.618v2.795h-1.614V7.673h3.338c.77 0 1.383.2 1.84.6.458.402.686 1.022.686 1.862 0 .918-.227 1.567-.682 1.946" transform="translate(231 30.207)"/>
            <path fill="#F6F7FB" d="M1.804 105.585h75.733c.362 0 .666.84.77 1.995H1.033c.105-1.154.408-1.995.771-1.995" transform="translate(231 30.207)"/>
            <path fill="#57575E" d="M78.307 107.58c.025.274.042.562.042.866 0 1.58-.364 2.862-.813 2.862H1.804c-.449 0-.813-1.282-.813-2.862 0-.304.017-.592.042-.866h77.274z" transform="translate(231 30.207)"/>
        </g>
    </g>
</svg>
