<svg xmlns="http://www.w3.org/2000/svg" xmlns:xlink="http://www.w3.org/1999/xlink" width="184" height="185" viewBox="0 0 184 185">
    <defs>
        <path id="prefix__a" d="M0 0.454L183.544 0.454 183.544 183.999 0 183.999z"/>
    </defs>
    <g fill="none" fill-rule="evenodd">
        <g transform="translate(0 .546)">
            <mask id="prefix__b" fill="#fff">
                <use xlink:href="#prefix__a"/>
            </mask>
            <path fill="#282972" d="M154.48 92.223c0 34.631-28.075 62.71-62.704 62.71-34.63 0-62.706-28.079-62.706-62.71 0-34.628 28.076-62.703 62.706-62.703s62.703 28.075 62.703 62.703M91.776.453C41.086.453 0 41.538 0 92.223 0 142.913 41.086 184 91.776 184c50.683 0 91.768-41.086 91.768-91.776 0-50.685-41.085-91.77-91.768-91.77" mask="url(#prefix__b)"/>
        </g>
        <path fill="#FEFEFE" d="M48.254 152.31c-2.134-1.565-3.298-2.505-5.343-4.294-.53-.464-1.046-.937-1.562-1.419-.204-1.729-.294-2.833-.405-4.765-.531-.013-.795-.02-1.33-.045.113 1.415.207 2.388.339 3.486-1.812-1.77-3.542-3.62-5.268-5.508-.362.338-.54.508-.903.848 1.012 1.158 1.526 1.727 2.572 2.83l-1.773 1.83c-.231-.239-.341-.362-.574-.603-.462-.499-.963-.818-1.502-.965-.634-.169-1.185-.04-1.636.391-.414.395-.613.88-.575 1.451.04.593.34 1.202.888 1.79 1.264 1.357 2.399 1.516 3.337.508.16-.17.237-.258.398-.427.817.828 1.229 1.233 2.066 2.03-.904 1.028-1.35 1.55-2.253 2.578.514.494.775.733 1.296 1.21 1.862-2.218 2.796-3.323 4.66-5.539.577.52.864.785 1.444 1.296.863.751 1.37 1.174 2.313 1.944-.48.642-.725.963-1.204 1.606-.464.625-.918.72-1.33.41-.052-.042-.091-.077-.087-.09-.077-.512-.12-.767-.195-1.276-.583-.056-.87-.085-1.454-.153.328 2.842.542 4.271 1.092 7.142.604.041.907.058 1.499.087-.37-1.702-.536-2.55-.826-4.246.514.417 1.068.445 1.657.087.32-.189.69-.589 1.117-1.175.396-.556.598-.833.995-1.383.748.581 1.165.898 1.845 1.397.292.215.446.326.737.538-1.608 2.426-2.412 3.636-4.023 6.055.56.406.842.604 1.409 1 1.565-2.456 2.349-3.68 3.918-6.132.62.43.93.64 1.559 1.054.265-.43.392-.64.652-1.072-1.437-.947-2.147-1.443-3.55-2.477m-15.04-5.627c-.336.35-.734.286-1.186-.198-.177-.197-.272-.414-.28-.624-.008-.216.06-.4.213-.546.327-.328.782-.17 1.384.465.14.157.218.235.362.391-.2.205-.293.305-.493.512m4.593 1.82c-.824-.78-1.231-1.18-2.037-1.998.692-.748 1.045-1.117 1.738-1.867.786.792 1.179 1.18 1.983 1.943-.674.771-1.007 1.152-1.684 1.922m40.839 16.873c-3.743-.74-5.671-1.24-9.196-2.394v-.002c-1.52-.488-2.316-.77-3.743-1.316-3.904-1.599-7.578-3.333-11.31-5.33-.235.45-.35.667-.582 1.115.98.56 1.479.835 2.476 1.355-.41.857-.618 1.28-1.027 2.133-.174.35-.676.62-.802.527-.13-.098-.262-.73-.382-1.039-.508.11-.76.161-1.27.262.438 1.686.822 2.767 1.082 3.236.615 1.11 1.543 2.002 2.784 2.591 1.175.552 2.27.764 3.277.643-.197.491-.272.632-.47 1.13.623.26.926.387 1.547.64 1.03-2.74 1.522-4.003 2.546-6.747.679.277 1.026.417 1.713.677.204.074.358.134.61.224-.956 2.772-1.431 3.944-2.383 6.714.628.231.944.342 1.576.563.904-2.786 1.355-3.967 2.259-6.755.546.193.883.308 1.342.46 2.56.841 3.85 1.214 6.459 1.843l-.443 1.954c-1.421-.346-2.132-.53-3.543-.936-.842-.244-1.543-.215-2.127.07-.588.293-.99.804-1.204 1.518-.298.977.214 2.397 1.644 4.22.562-.199.837-.306 1.394-.518-.71-.943-1.082-1.495-1.16-1.638-.342-.6-.456-1.154-.316-1.65.09-.344.292-.574.585-.706.289-.124.639-.133 1.04-.02 1.36.382 2.04.56 3.409.896-.357 1.587-.537 2.162-.892 3.751.646.157.97.234 1.616.375.592-2.875.892-4.099 1.485-6.977.609.137.957.211 1.496.317.344.072.514.104.864.17-.516 2.893-.776 4.125-1.287 7.015.65.126.97.183 1.626.295.466-2.9.702-4.135 1.158-7.039.722.125 1.077.184 1.797.29.07-.504.103-.753.17-1.253-1.546-.23-2.371-.373-3.818-.664m-17.771-.574c-.48.057-.95-.024-1.424-.235-.29-.13-.517-.334-.678-.603-.15-.238-.174-.48-.068-.72.112-.26.289-.427.529-.497.24-.073.528-.039.816.094.139.068.32.178.55.33.17-.419.253-.628.422-1.04-.277-.23-.502-.38-.678-.46-.63-.287-1.218-.319-1.78-.109-.52.195-.912.546-1.14 1.064-.262.58-.228 1.17.096 1.746.3.54.787.97 1.458 1.272.512.23 1.009.292 1.483.205-.018.044-.031.072-.052.118-.925.18-2.008-.01-3.235-.59-.618-.29-1.134-.692-1.557-1.207-.39-.467-.856-1.34-.805-1.41.023-.027 1.007-.057 1.31-.289.218-.169.442-.508.684-1.015.354-.776.53-1.163.89-1.934 1.76.882 2.65 1.295 4.454 2.064-.51 1.286-.77 1.933-1.275 3.216m52.799-.189c-.141-.489-.212-.73-.35-1.215-2.526.776-5.086 1.425-7.674 1.947l-.001-.025c-2.664.478-4.071.67-6.631.901-1.565.148-2.394.207-3.878.274-.037 0-.072 0-.106.003-.05 0-.1.004-.156.007v.001c-1.92.082-2.973.092-4.976.051l-.023 1.27c.793.013 1.188.016 1.979.013 0 1.036.006 1.561.01 2.6-1.04.004-1.558-.006-2.598-.03.015-.72.023-1.083.043-1.803.019-.844-.078-1.479-.288-1.896-.308-.623-.914-.955-1.804-.998-.597-.034-1.105.12-1.514.456-.422.33-.648.781-.695 1.37-.036.516.126.95.474 1.301.34.347.854.552 1.529.585.023-.448.036-.67.057-1.124-.497-.019-.732-.246-.706-.675.027-.4.288-.587.787-.56.425.022.614.393.583 1.118-.037.865-.058 1.3-.093 2.163-.174-.007-.261-.007-.438-.019-1.696-.084-2.606.512-2.708 1.876-.041.543.138 1.014.53 1.41.4.407.92.636 1.57.674.847.046 1.517-.116 1.98-.489.416-.329.626-.772.642-1.34.009-.309.009-.468.019-.78 1.055.03 1.584.036 2.638.031.003 1.39.029 1.9.034 3.29.66 0 .993-.004 1.652-.022-.064-2.94-.12-4.222-.186-7.156.73-.02 1.087-.033 1.815-.067.196-.006.364-.013.614-.026.143 2.935.157 4.24.298 7.177.66-.037.989-.055 1.648-.1-.193-2.937-.237-4.239-.43-7.174.667-.052 1.034-.074 1.655-.137 1.22-.113 1.922-.185 3.213-.359.158 1.27.24 1.906.392 3.175.05.372.038.632-.021.788-.09.223-.286.358-.623.397-.165.018-.32-.012-.454-.11-.138-.093-.213-.229-.235-.397-.017-.154.037-.31.16-.414.138-.13.363-.217.642-.249-.053-.46-.082-.688-.133-1.149-.67.085-1.152.312-1.447.606-.422.404-.676.861-.631 1.351.058.596.297 1.044.723 1.346.417.29.932.401 1.52.323.999-.117 1.663-.49 1.952-1.095.179-.37.222-.912.119-1.62-.172-1.239-.26-1.878-.432-3.095.97-.166 1.452-.257 2.42-.46.21-.035.45.067.72.313.269.24.429.478.478.703.072.38.004.7-.213.968-.211.268-.535.451-.976.536-.231.044-.714-.055-.846.018-.156.082-.498.804-.48.921.144.826 3.012 2.05 4.589 1.687.949-.213 1.694-.63 2.219-1.209.21.876.297 1.212.513 2.087.64-.162.963-.254 1.604-.437-.744-2.836-1.098-4.156-1.836-6.99.7-.203 1.056-.302 1.76-.517m-26.107 7.601c-.028.647-.332.956-.912.924-.204-.01-.361-.104-.49-.257-.131-.157-.193-.343-.178-.563.018-.319.13-.523.326-.622.16-.08.437-.117.832-.094.179.006.265.013.447.02-.013.238-.013.357-.025.592m21.569-1.874c-.383.087-.818.1-1.283.007-.463-.09-.976-.254-.974-.259 0 0 1.18-.493 1.597-1.062.416-.57.55-1.182.407-1.818-.117-.55-.411-.907-.872-1.078.969-.22 1.45-.345 2.42-.596.344 1.406.51 2.106.85 3.511-.58.67-1.301 1.1-2.145 1.295m44.565-23.763c.475-.537.714-.806 1.183-1.357l-5.283-4.908c.51-.605.763-.91 1.268-1.525-.373-.326-.553-.493-.926-.823-1.101 1.343-1.695 2.044-2.794 3.256-2.342 2.586-4.826 5.028-7.45 7.301-1.077.933-1.748 1.49-2.872 2.37-1.606 1.268-2.425 1.874-4.086 3.025.269.421.409.635.68 1.053.545-.376.818-.57 1.356-.96.88 1.313 1.318 1.97 2.195 3.281-.272.7-.748 1.28-1.423 1.748-.384.26-.793.45-1.2.524-.373.065-.667-.072-.866-.399-.124-.208-.096-.437.084-.685.007-.016.26-.283.737-.796-.26-.408-.392-.613-.65-1.024-.391.474-.79.834-1.186 1.092-.368.245-.772.338-1.212.284-.443-.055-.757-.257-.951-.597-.17-.286-.23-.615-.186-.972.037-.328.207-.594.489-.779.342-.216.602-.2.763.068.056.096.068.196.03.311-.03.111-.141.232-.32.347.227.376.335.56.558.936 1.122-.722 1.402-1.528.875-2.36-.256-.41-.627-.645-1.113-.696-.484-.05-.946.075-1.412.373-.692.443-1.11 1.001-1.263 1.681-.137.622-.04 1.262.322 1.903.599 1.083 2.988.866 3.056.952 0 0-.207.741-.007 1.088.345.596.97.885 1.866.816.738-.062 1.445-.32 2.103-.772.884-.607 1.446-1.234 1.69-1.874.423.64.639.96 1.066 1.602.562-.407.84-.609 1.392-1.027-1.662-2.387-2.495-3.583-4.155-5.972.606-.453.908-.687 1.505-1.16h-.001c.16-.124.296-.233.5-.394 1.729 2.338 2.59 3.508 4.32 5.842.543-.434.81-.655 1.345-1.1-1.771-2.303-2.655-3.455-4.428-5.756.579-.479.868-.726 1.426-1.21 1.938-1.685 2.974-2.66 4.88-4.61.543.574.814.863 1.36 1.437-1.103 1.122-1.658 1.668-2.796 2.725-.678.631-1.052 1.28-1.143 1.96-.097.685.086 1.321.552 1.892.634.791 2.083 1.095 4.393.773.149-.616.222-.922.366-1.536-1.18.142-1.838.185-2 .181-.688-.016-1.207-.207-1.535-.598-.22-.268-.3-.572-.244-.908.059-.328.256-.648.575-.952 1.089-1.028 1.623-1.549 2.682-2.625 1.094 1.17 1.647 1.754 2.744 2.925.497-.508.74-.768 1.23-1.286-2.015-2.073-3.02-3.105-5.044-5.174.54-.568.805-.858 1.332-1.443h-.003l.433-.477c2.072 2.004 3.109 3.007 5.193 5.01m-24.858 11.314c-.237-.443-.357-.66-.591-1.104-.73.418-1.37.782-1.971 1.117-1.613-.229-2.877-.39-3.82-.427-1.715-.073-3.128.112-4.26.595-.85.366-1.468.821-1.87 1.384-.457.651-.557 1.381-.273 2.17.119.35.29.595.508.731l-.672.254.417 1.191c.618-.23.925-.348 1.539-.592 1.013 2.752 1.498 3.997 2.517 6.745.622-.242.93-.369 1.55-.628-1.065-2.73-1.572-3.968-2.636-6.69l1.316-.566c2.127-.933 3.179-1.436 5.247-2.52.712 1.443 1.062 2.173 1.769 3.62-.397.8-.972 1.388-1.708 1.747-.39.193-.778.236-1.158.147-.386-.094-.641-.308-.78-.624-.141-.328-.134-.654.007-.996.143-.336.396-.593.745-.763.206-.103.52-.202.937-.314l-.575-1.225c-.37.104-.647.191-.806.27-.765.371-1.236.92-1.483 1.438-.367.76-.575 1.52-.295 2.19.299.721.836 1.178 1.616 1.363.743.176 1.522.07 2.312-.318.869-.428 1.478-.978 1.814-1.63.324.664.485.997.813 1.661.598-.32.897-.474 1.496-.805-1.332-2.605-1.992-3.907-3.318-6.509.648-.353.967-.54 1.613-.912m-8.368 2.856c-.93.412-1.395.61-2.327.99-.35-.035-.595-.228-.726-.578-.158-.424-.071-.812.247-1.17.269-.304.666-.567 1.18-.785 1.183-.51 3.018-.563 5.626-.333-1.21.62-2.412 1.175-4 1.876M91.777 30.067c-34.631 0-62.706 28.074-62.706 62.703 0 34.63 28.075 62.709 62.706 62.709 34.628 0 62.703-28.08 62.703-62.71 0-34.628-28.075-62.702-62.703-62.702zM21.844 84.522l-10.286-1.296c.145-1.175.23-2.033.41-3.186-.877-.19-1.385-.281-2.266-.472-1.15 7.222-1.26 13.944-.627 21.466.889-.04 1.073.046 1.959.01-.062-1.354-.216-1.991-.238-3.317l4.006-.014c1.173-.01 2.908-.511 3.188-2.821l1.714 4.836c.74-.622 1.109-.926 1.863-1.513l-3.215-10.1 3.11.332c.125-1.515.2-2.45.382-3.925zm-7.028 8.87c-1.603-.083-2.402-.122-4.004-.206.06-2.44.12-3.64.31-5.983 2.053.256 3.084.39 5.136.648.286 1.44.444 2.16.782 3.598.065 1.473-1.17 1.997-2.224 1.944zM19.788 55.2c1.704-3.393 3.655-6.66 5.843-9.754.798.623 1.195.94 1.99 1.564-1.725 2.454-3.31 5.016-4.728 7.665-.301.563-.216 1.21.164 1.417 1.1.605 3.666-.131 4.35-1.295.423-.71.036-1.791-.824-2.421 1.025-1.683 1.562-2.498 2.678-4.083 1.816 1.42 3.087 2.468 4.899 3.887.716-1.013 1.237-1.697 1.992-2.67-2.635-2.247-5.792-4.645-8.427-6.891.44-.567.725-.925 1.089-1.371.019-.023.039-.047.056-.065.12-.144.244-.298.39-.473h-.002c.54-.655.939-1.117 1.61-1.868 1.067 1.019 1.6 1.533 2.668 2.554-.237.273-.352.404-.592.674-.502.58-.621 1.303-.283 1.585.995.836 4.26.406 5.316-.733.426-.452.478-1.124.146-1.516-.292-.3-.435-.453-.725-.751 1.296-1.326 1.965-1.967 3.334-3.2 1.15 1.345 2.024 2.297 3.17 3.643.895-.798 1.606-1.392 2.523-2.144-2.155-2.743-4.861-5.562-7.022-8.302.594-.485.954-.771 1.462-1.166 2.414-1.881 4.937-3.615 7.555-5.198.475.803.716 1.203 1.193 2.003-1.605.07-3.09.543-4.192 1.298-1.13.77-2.067 1.893-2.681 3.23.903.312 1.353.474 2.244.81.57-1.026 1.386-1.91 2.335-2.542.859-.578 2.132-1.001 3.613-1.14-1.557 2.62-2.26 3.95-3.495 6.646.946.28 1.425.427 2.357.74.863-1.915 1.336-2.865 2.372-4.747l1.619 2.85c1.01-.611 1.689-1.054 2.729-1.62l-5.001-9.21c.825-.456 1.067-.674 1.912-1.104-.006 0-.006-.004-.006-.01.372-.2.605-.343 1.195-.63l4.772 9.418c.968-.466 1.904-.877 2.886-1.31l-4.568-9.494c.86-.377 1.299-.562 2.168-.914-.351-.865-.528-1.296-.878-2.162-.898.362-1.342.553-2.228.939-2.03-2.676-5.69-3.786-8.67-2.242-2.935 1.524-4.068 3.953-2.96 5.765.372.605 1.17 1.153 1.998 1.483-2.502 1.518-4.924 3.174-7.25 4.96h-.001c-.058.039-.113.086-.165.13l-.252.188c0 .003 0 .004.004.007-4.305 3.384-8.213 7.208-11.917 11.542-.004-.008-.008-.008-.01-.016-.113.134-.22.272-.327.405-.043.054-.09.1-.13.152 0 0 0 .003.003.005-3.438 4.184-6.32 8.662-8.925 13.66-.004-.004-.004-.004-.013-.006-.062.13-.126.264-.192.394-.051.092-.1.182-.147.277.003 0 .007.002.007.006-1.146 2.279-2.181 4.616-3.103 6.997-.004-.002-.004-.002-.01-.002-1.22 3.132-1.758 4.757-2.692 8.128.854.298 1.28.453 2.13.75.193-.695.293-1.044.499-1.733 2.076.788 3.115 1.176 5.19 1.963.257.874.445 1.872.319 3.034-.188 1.735-1.34 2.79-1.804 2.669-.734-.19-1.13-2.296-.771-4.007-.798-.131-1.197-.191-1.996-.316-.016.648-.116 1.347-.304 2.144-.453 1.905-1.55 3.303-2.502 3.052-.6-.153-.936-1.013-.74-1.93.112-.52.507-.844.84-.728.158.057.354.234.566.539.55-.826.819-1.227 1.383-2.015-.285-.911-.857-1.307-1.334-1.487-1.296-.498-2.805.792-3.313 3.167-.585 2.743.605 5.293 2.25 5.502 3.007.37 3.35-2.43 3.538-2.416 0 0 .495 1.387 1.649 1.499 4.74.464 4.63-6.895 4.548-7.828.799.3 1.578.536 2.38.842.394-1.314.816-2.441 1.287-3.631l-9.991-3.73c.263-.74.435-1.207.653-1.793.045-.11.083-.21.118-.307.048-.128.103-.26.158-.404.222-.577.408-1.035.7-1.744l10.01 4.033c.507-1.216.77-1.843 1.32-3.015l-9.814-4.426c.325-.684.533-1.118.805-1.656zm29.297-38.251c1.208-.65 3.248.02 4.95 1.648-.92.444-1.378.672-2.287 1.149 0 .003.004.003.004.003-.55.287-1.098.577-1.64.879-.81-.204-1.676-.784-2.088-1.513-.373-.67.11-1.654 1.06-2.166zM36.818 32.87c.96 1.126 1.442 1.69 2.402 2.819-1.407 1.268-2.097 1.924-3.43 3.29-1.028-1.067-1.541-1.6-2.566-2.667 1.396-1.43 2.116-2.117 3.594-3.442zm-.638-7.372c-1.176.102-1.76.162-2.943.316-.352 1.165-.522 1.748-.83 2.915 1.134-.213 1.7-.313 2.826-.483.354-1.103.542-1.653.947-2.748zm29.502-9.114c4.393-1.371 8.74-2.438 13.257-3.262l.26 1.678c-2.591.412-3.881.674-6.434 1.296.17.738.26 1.112.43 1.853 1.228.164 2.102.769 2.245 1.466.125.593-.268 1.18-.86 1.308-1.486.313-3.684-1.192-5.437-3.791-.756.668-1.126 1.014-1.851 1.704 1.597 2.829 4.707 5.426 7.89 4.774 2.084-.424 3.635-2.128 3.362-3.748-.162-.911-.611-1.67-1.275-2.105.916-.173 1.374-.255 2.292-.402.416 2.669.446 3.553.862 6.228 1.163-.188 2.107-.348 3.272-.486l-1.441-10.233c.68-.08 1.115-.131 1.664-.184 3.542-.268 7.005-.386 10.558-.37-.022 1.065-.033 1.594-.062 2.65-3.363-.091-5.045-.055-8.395.197-.588.045-1.018.474-.964.933.16 1.314 2.119 3.188 3.369 3.142.763-.035 1.36-.983 1.354-2.1 1.834-.048 2.753-.048 4.585 0l-.226 5.562c1.177.033 2.099.084 3.27.16l.413-10.374c.938.062 1.404.099 2.335.19.085-.956.13-1.436.213-2.401-5.513-.43-10.508-.535-16.003-.045v-.005c-.12.01-.248.025-.378.039l-.302.023c0 .003 0 .005.004.005-6.327.653-12.548 2.075-18.74 4.005.294.917.44 1.373.733 2.293zm109.213 75.357h.012c-.017-.246-.03-.495-.044-.742-.003-.06-.003-.11-.006-.164-.393-6.643-1.057-12.831-2.895-19.625-1.74-6.75-4.581-13.8-8.302-20.164-.008 0-.01.003-.012.003-.41-.717-.828-1.43-1.253-2.137.463-1.606.669-2.49 1.069-4.141.54-2.132.403-4.054-.283-5.042-.783-1.07-1.184-1.6-2.006-2.632-.628.548-.941.819-1.573 1.366.336.423.503.636.83 1.068.552.714.756 1.807.533 2.848-.194 1.363-.303 2.102-.55 3.434-.34-.51-.698-1.016-1.048-1.515.002 0 .004-.005.004-.005-.037-.052-.071-.097-.106-.148-.106-.146-.21-.3-.312-.445-.011.002-.016.01-.02.012-3.286-4.35-6.79-8.285-10.753-12.046-.604.706-.91 1.059-1.514 1.762.832.756 1.24 1.138 2.046 1.924.172.523.033 1.069-.336 1.46-.558.6-2.714-.736-3.052-.663-.438.093-2.31 7.386 3.104 9.806l-2.467 2.028c.782.939 1.286 1.615 2.032 2.597 2.658-2.214 5.442-4.64 8.108-6.855.593.784.884 1.184 1.452 1.995.004-.005.004-.005.007-.005.334.475.593.855 1.002 1.459-2.763 2.072-5.426 4.495-8.19 6.567.697 1.032 1.033 1.56 1.69 2.638 2.84-1.952 5.584-4.244 8.425-6.188.512.848.77 1.286 1.25 2.146 2.565 4.588 4.599 9.047 6.249 13.848-.62.24-.93.365-1.55.602-.986-2.867-1.536-4.254-2.756-6.93-.678.33-1.01.495-1.686.832.14 1.373-.231 2.45-.871 2.745-.541.255-1.2-.073-1.464-.703-.66-1.575.248-4.25 2.317-6.645-.84-.682-1.26-1.01-2.113-1.644-2.47 2.432-3.991 6.238-2.644 9.466.927 2.216 2.903 3.647 4.397 3.033.837-.347 1.46-.993 1.73-1.817.38.993.557 1.494.906 2.514l-5.968 2.018c.435 1.282.69 2.123 1.076 3.45 3.346-1.135 6.45-2.07 9.797-3.198.225.774.364 1.265.53 1.9 1.107 4.202 1.798 8.44 2.357 12.74-1.016.154-1.53.229-2.541.387-.46-3.451-1.031-6.807-1.756-10.215-.158-.678-.657-1.113-1.084-.964-1.217.418-2.62 3.065-2.328 4.567.177.918 1.195 1.464 2.264 1.266.398 2.216.559 3.256.819 5.566l-5.6.602c.167 1.475.146 2.225.25 3.75l10.35-.677c.086 1.212.11 1.825.16 3.064.036.847.06 1.616.074 2.553l-10.518-.034c.022 1.57-.124 2.259-.174 3.874l10.628.187c-.038 1.289-.22 2.114-.3 3.43.93.047 1.26.104 2.188.155.3-3.654.56-6.707.419-10.318zm-24.41-47.647c-.834-.09-1.705-.602-2.395-1.372-.887-.99-1.118-3.23-.883-3.318.215-.081 2.72 1.182 3.795-1.72 1.199 1.285 1.789 1.943 2.92 3.302-1.374 1.245-2.061 1.862-3.437 3.108zm-35.718-25.21s-1.434.336-1.68 1.465c-1.006 4.655 6.316 5.399 7.254 5.426-.396.755-.75 1.377-1.147 2.139 1.26.54 1.897.84 3.107 1.432l4.867-9.243c.404.198.794.39 1.182.583 3.148 1.703 6.135 3.485 9.133 5.459-.576.844-.86 1.267-1.433 2.114-2.795-1.93-4.25-2.818-7.22-4.423-.511-.28-1.11-.161-1.3.235-.557 1.166.127 3.744 1.215 4.383.66.393 1.663-.06 2.243-.967 1.583.956 2.357 1.458 3.882 2.51l-3.336 4.676c.975.675 1.716 1.266 2.662 1.986 2.075-2.813 4.057-5.524 6.129-8.332.755.572 1.032.666 1.767 1.262.576-.733.859-1.1 1.435-1.833-4.17-3.336-8.27-6.027-13.051-8.561-2.533-1.4-4.151-2.08-7.117-3.288-.398.812-.597 1.22-.996 2.029.67.274 1.003.413 1.664.7-1.017 1.97-1.525 2.958-2.544 4.926-.898.155-1.914.222-3.06-.038-1.696-.384-2.61-1.654-2.437-2.096.275-.712 2.413-.858 4.07-.307.22-.777.328-1.165.542-1.943-.637-.09-1.322-.274-2.094-.551-1.833-.67-3.098-1.918-2.74-2.838.224-.577 1.108-.814 2.004-.513.503.172.783.603.624.922-.072.146-.271.325-.603.499.756.634 1.127.954 1.844 1.607.94-.176 1.396-.704 1.634-1.155.639-1.225-.464-2.876-2.763-3.654-2.656-.9-5.331-.015-5.723 1.595-.721 2.944 2.023 3.61 1.986 3.795zm-6.142-2.216c-2.198-.64-3.18-.79-5.454-1.13l-.353 2.459c2.055.346 3.368.512 5.393 1.12l.414-2.45z"/>
        <path fill="#F79737" d="M100.496 48.256c-.801 5.348-4.606 9.214-8.497 8.633-3.888-.585-6.395-5.393-5.593-10.744.798-5.351 4.607-9.22 8.496-8.636 3.887.582 6.396 5.395 5.594 10.747M66.458 47.819s10.813 9.036 20.963 12.78l1.91 7.208s-11.89-2.874-22.873-19.988M117.714 47.694s-10.862 8.978-21.025 12.676l-1.951 7.198s11.902-2.82 22.976-19.874"/>
        <path fill="#1C8942" d="M57.77 63.267c4.21 3.398 5.627 8.634 3.162 11.696-2.472 3.064-7.89 2.796-12.106-.596-4.208-3.4-5.626-8.636-3.158-11.7 2.47-3.065 7.887-2.791 12.102.6M39.953 92.382s13.258-4.774 21.62-11.637l7.185 1.995s-8.49 8.807-28.805 9.642M66.081 48.086s2.162 13.928.146 24.547l5.19 5.352s3.662-11.67-5.336-29.9M135.192 74.638c-4.315 3.269-9.738 3.37-12.112.23-2.376-3.135-.803-8.327 3.512-11.588 4.315-3.267 9.738-3.37 12.11-.232 2.378 3.136.801 8.326-3.51 11.59M118.367 48.22s-2.394 13.893-.553 24.552l-5.277 5.27s-3.471-11.736 5.83-29.823M143.755 92.693s-13.216-4.884-21.513-11.824l-7.205 1.927s8.414 8.883 28.718 9.897"/>
        <path fill="#F79737" d="M48.936 107.924c5-1.981 10.214-.646 11.644 2.97 1.431 3.62-1.459 8.155-6.457 10.136-5 1.979-10.213.646-11.645-2.972-1.432-3.62 1.46-8.16 6.458-10.134M65.595 137.717s2.366-13.891.499-24.543l5.264-5.28s3.498 11.72-5.763 29.823M39.792 93.285s13.22 4.888 21.516 11.825l7.203-1.926s-8.415-8.885-28.719-9.899M129.274 121.161c-4.978-2.007-7.832-6.558-6.377-10.172 1.455-3.608 6.67-4.913 11.645-2.907 4.977 2.005 7.836 6.556 6.38 10.167-1.456 3.609-6.668 4.913-11.648 2.912M143.748 93.549s-13.231 4.859-21.55 11.777l-7.194-1.943s8.434-8.866 28.744-9.834M117.746 137.793s-2.357-13.896-.486-24.547l-5.261-5.283s-3.504 11.72 5.747 29.83"/>
        <path fill="#1C8942" d="M86.079 139.556c-.861-5.306 1.582-10.12 5.469-10.756 3.883-.63 7.734 3.161 8.595 8.471.866 5.305-1.585 10.125-5.47 10.755-3.882.63-7.734-3.163-8.594-8.47M117.522 138.1s-10.816-9.096-20.973-12.816l-1.96-7.11s11.897 2.842 22.933 19.925M66.073 137.844s10.872-8.973 21.032-12.666l1.949-7.197s-11.903 2.814-22.981 19.863"/>
        <path fill="#282972" d="M95.548 94.925l.048-5.74 12.256-.038-1.866-3.842-10.357-.012.035-3.975 9.223-.03-1.865-3.841-25.227-.035 1.37 3.954 12.537-.036-.023 3.954-10.923-.014 1.372 3.959 9.525-.033-.028 4.776c-1.536-.068-6.13-.036-6.13-.036-2.383.399-.953 2.742-.953 2.742l14.085 15.374c.925-.632 1.692-1.452 1.692-1.452l-8.51-9.895c4.346-1.318 3.739-5.78 3.739-5.78"/>
    </g>
</svg>
