<svg xmlns="http://www.w3.org/2000/svg" xmlns:xlink="http://www.w3.org/1999/xlink" width="381" height="245" viewBox="0 0 381 245">
    <defs>
        <path id="prefix__a" d="M58.21.917c-10.075.477-19.27 5.613-27.062 11.524-7.793 5.912-14.168 13.345-19.692 21.235C6.125 41.287 1.435 49.679.68 58.878c-.494 6.044 1.059 12.499 4.601 17.545 1.85 2.634 95.86-72.848 95.86-72.848C95.244 2.979 83.978.702 67.199.702c-2.838 0-5.835.065-8.989.215"/>
        <path id="prefix__c" d="M.674 4.281c0 1.836 1.488 3.324 3.323 3.324 1.836 0 3.324-1.488 3.324-3.324 0-1.835-1.488-3.323-3.324-3.323C2.162.958.674 2.446.674 4.281"/>
        <path id="prefix__f" d="M.728 2.977c0 1.284 1.042 2.326 2.326 2.326 1.285 0 2.327-1.042 2.327-2.326C5.381 1.691 4.339.65 3.054.65 1.77.65.728 1.691.728 2.977"/>
        <path id="prefix__i" d="M5.671.634C2.022 1.864-.084 5.674.814 9.417c2.678 9.309 12.471 17.662 21.439 24.759.645.512 1.581.403 2.09-.242.51-.643.401-1.578-.242-2.09C15.492 25.032 6.106 17.057 3.673 8.597c-.681-2.371.688-4.843 3.058-5.524 2.371-.682 4.844.688 5.524 3.058 1.625 5.652 9.701 12.637 17.384 18.718.645.509 1.58.401 2.09-.244.511-.644.403-1.579-.242-2.09-4.057-3.203-14.802-11.704-16.394-17.209C14.047 2.202 11.15.243 8.046.243c-.787 0-1.588.126-2.375.391"/>
        <path id="prefix__l" d="M19.617.776C9.352 3.722 3.419 14.431 6.365 24.695l.006.022c2.441 8.484-2.794 10.837-4.462 11.354-.784.247-1.22 1.082-.973 1.865.246.785 1.082 1.22 1.864.974 4.549-1.422 8.967-6.206 6.429-15.018C6.728 15.21 11.738 6.143 20.422 3.641l.013-.003c8.585-2.414 17.53 2.451 20.169 10.97.035.116.086.228.149.331.154.256.473.794 10.034 8.552.637.518 1.574.422 2.092-.216.519-.636.422-1.574-.215-2.093-3.475-2.819-8.553-7.011-9.296-7.71C40.7 5.291 33.099.048 24.882.048c-1.741 0-3.509.235-5.265.728"/>
        <path id="prefix__o" d="M16.256 1.496c-6.973 2.153-11.021 9.41-9.189 16.475 3.005 13.683.759 16.843-5.406 18.77-.783.247-1.218 1.082-.972 1.865.246.785 1.081 1.22 1.865.973 8.612-2.677 10.483-8.304 7.437-22.248-1.48-5.529 1.649-11.243 7.104-12.975 5.527-1.57 11.284 1.621 12.884 7.139.595 2.028 2.175 4.813 14.356 14.454.644.51 1.58.402 2.09-.242.51-.645.401-1.58-.242-2.09-11.058-8.746-12.95-11.516-13.366-12.955C31.118 4.796 25.761.978 19.942.978c-1.218 0-2.456.167-3.686.518"/>
        <path id="prefix__r" d="M1.521.965C.755 1.199.312 1.999.52 2.773c2.344 8.157 11.262 14.921 16.59 18.964 1.083.779 2.126 1.614 3.124 2.499.59.571 1.533.554 2.103-.037.556-.577.556-1.49 0-2.066-1.09-.986-2.234-1.91-3.427-2.767C13.876 15.547 5.452 9.157 3.379 1.952 3.183 1.312 2.594.9 1.957.9c-.144 0-.291.021-.436.065"/>
        <path id="prefix__u" d="M.492 10.993c-.052.819.572 1.526 1.392 1.576h.095c.787.002 1.439-.609 1.487-1.395.188-3.064 1.36-7.526 2.976-7.526 2.204 0 3.768 2.124 5.023 3.829.415.591.869 1.154 1.36 1.683.591.571 1.532.555 2.103-.036.557-.576.557-1.491 0-2.067-.384-.424-.741-.873-1.068-1.344-1.504-2.789-4.272-4.67-7.418-5.04-5.057 0-5.84 8.597-5.95 10.32"/>
        <path id="prefix__x" d="M7.518.891c-.726.264-1.13 1.039-.93 1.785C7.862 6.654 5.36 14.46 1.597 15.682c-.784.246-1.22 1.079-.976 1.864.246.784 1.08 1.22 1.864.976.011-.004.021-.008.031-.01C8.239 16.667 11 6.725 9.423 1.784c-.219-.606-.79-.981-1.399-.981-.168-.001-.339.028-.506.088"/>
        <path id="prefix__A" d="M.669 25.362c0 .822.666 1.488 1.486 1.488.822 0 1.488-.666 1.488-1.488.013-12.317 9.994-22.298 22.311-22.31 12.069 0 16.295 6.824 19.693 12.309 1.999 3.227 3.724 6.015 6.622 6.955.779.262 1.622-.156 1.884-.934.263-.778-.156-1.623-.934-1.886l-.031-.008-.003-.004c-1.859-.594-3.32-2.975-5.013-5.69C44.59 8.004 39.679.077 25.954.077 11.996.093.685 11.404.669 25.362"/>
        <path id="prefix__D" d="M.669 2.313c.238 1.792.795 3.529 1.644 5.127.253.503.767.822 1.33.822.822 0 1.488-.666 1.488-1.488 0-.231-.054-.46-.158-.667-.635-1.189-1.083-2.47-1.33-3.794 0-.823-.666-1.489-1.488-1.489-.82 0-1.486.666-1.486 1.489"/>
        <path id="prefix__G" d="M.369 9.768c-.423.702-.2 1.615.501 2.041.701.428 1.616.205 2.044-.496l.002-.003c1.291-2.13 7.651-8.207 19.55-8.207 11.436 0 19.572 5.79 21.038 8.207.426.702 1.342.925 2.044.499.702-.426.926-1.342.499-2.044C44.007 6.404 34.996.126 22.466.126 9.143.126 2 7.085.369 9.768"/>
        <path id="prefix__J" d="M15.466.177c-7.865 0-9.834 1.012-12.332 2.294-.504.26-1.039.532-1.664.812C.707 3.587.334 4.452.637 5.215c.304.763 1.168 1.136 1.932.833.039-.016.078-.032.115-.052h-.009c.681-.297 1.259-.595 1.806-.892 2.236-1.128 3.846-1.952 10.985-1.952 4.821-.266 9.643.507 14.139 2.263.569.213 1.14.423 1.737.629.157.054.321.082.485.082.822.003 1.489-.662 1.491-1.484.001-.636-.403-1.203-1.006-1.41-.576-.199-1.125-.401-1.672-.595C26.389.979 21.868.131 17.315.131c-.616 0-1.232.015-1.849.046"/>
        <path id="prefix__M" d="M.97.258C.27.689.051 1.606.482 2.304c1.107 1.784 2.053 3.66 2.826 5.612.279.771 1.132 1.171 1.904.891.727-.262 1.132-1.037.931-1.783C5.299 4.838 4.252 2.736 3.016.746 2.735.29 2.247.038 1.748.038c-.266 0-.535.071-.778.22"/>
        <path id="prefix__P" d="M6.311.451C2.316 1.409-.144 5.423.814 9.417c2.678 9.309 12.462 17.659 21.431 24.759.262.208.587.322.922.322l-.024-.003c.456.001.886-.207 1.168-.563.51-.645.401-1.581-.243-2.09C15.463 25.029 6.077 17.055 3.644 8.594c-.681-2.37.687-4.841 3.056-5.522 2.369-.682 4.841.686 5.523 3.056 1.621 5.655 9.703 12.637 17.388 18.717.022.02.047.039.071.057.659.489 1.591.351 2.081-.309.489-.659.352-1.59-.308-2.081-4.034-3.2-14.779-11.705-16.361-17.206C14.054 2.226 11.175.244 8.05.244c-.575 0-1.158.067-1.739.207"/>
        <path id="prefix__S" d="M19.617.776l-.015.004C9.339 3.732 3.412 14.445 6.365 24.708c2.436 8.481-2.8 10.834-4.463 11.354-.618.195-1.04.768-1.041 1.418-.002.82.663 1.487 1.485 1.488.153.001.305-.021.452-.067 4.551-1.423 8.966-6.208 6.431-15.018l-.001-.002C6.733 15.196 11.751 6.134 20.435 3.638c8.586-2.416 17.533 2.451 20.172 10.971.036.114.084.224.146.327.154.256.473.794 10.037 8.555.625.478 1.513.385 2.027-.21.537-.622.468-1.561-.153-2.098-3.475-2.82-8.553-7.014-9.293-7.711C40.702 5.291 33.102.047 24.884.047c-1.741 0-3.511.236-5.267.729"/>
        <path id="prefix__V" d="M16.253 1.496C9.281 3.65 5.234 10.906 7.064 17.971c3.004 13.677.762 16.843-5.402 18.77-.619.195-1.04.768-1.042 1.417-.001.821.663 1.488 1.485 1.49.145 0 .29-.02.429-.062 8.626-2.69 10.497-8.303 7.436-22.25-1.489-5.531 1.64-11.256 7.101-12.989 5.529-1.579 11.293 1.614 12.887 7.138.58 2.024 2.159 4.811 14.356 14.455l.072.057c.66.489 1.591.352 2.081-.309.489-.659.351-1.591-.309-2.08-11.039-8.74-12.928-11.51-13.341-12.946C31.113 4.795 25.755.98 19.934.981c-1.216 0-2.454.166-3.681.515"/>
        <path id="prefix__Y" d="M1.51.915C.725 1.156.283 1.987.523 2.773c2.344 8.157 11.263 14.921 16.591 18.964 1.081.781 2.124 1.616 3.123 2.502.279.278.658.435 1.053.434.392 0 .768-.157 1.046-.434.583-.58.583-1.521.004-2.103-1.091-.987-2.236-1.912-3.43-2.77C13.876 15.547 5.464 9.156 3.381 1.952l-.014-.05C3.171 1.262 2.582.849 1.945.849c-.144 0-.29.021-.435.066"/>
        <path id="prefix__ab" d="M.492 10.996c-.052.819.572 1.525 1.392 1.576h.095c.787.002 1.439-.61 1.487-1.394.188-3.068 1.363-7.53 2.975-7.53 2.207 0 3.772 2.124 5.04 3.837.413.591.867 1.154 1.359 1.681.576.556 1.49.556 2.066 0 .591-.57.608-1.512.037-2.102-.385-.424-.741-.874-1.065-1.346C12.371 2.925 9.594 1.043 6.442.675 1.385.675.599 9.273.492 10.996"/>
        <path id="prefix__ae" d="M7.444.767c-.767.295-1.15 1.155-.856 1.921 1.256 3.978-1.231 11.784-4.991 13.006-.617.199-1.033.772-1.032 1.419.001.822.668 1.486 1.49 1.484.155.005.309-.015.458-.059C8.23 16.669 11 6.737 9.421 1.796c-.016-.058-.034-.116-.055-.172-.227-.592-.791-.955-1.389-.955-.177 0-.358.031-.533.098"/>
        <path id="prefix__ah" d="M.669 25.362c0 .822.666 1.488 1.486 1.488.822 0 1.488-.666 1.488-1.488.013-12.317 9.994-22.297 22.311-22.31 12.069 0 16.295 6.824 19.693 12.306 1.999 3.228 3.724 6.015 6.622 6.955l.03.01c.785.245 1.619-.191 1.865-.974.244-.785-.192-1.619-.976-1.865-1.859-.603-3.32-2.963-5.013-5.69C44.59 8.004 39.679.077 25.954.077 11.996.093.685 11.404.669 25.362"/>
        <path id="prefix__ak" d="M.373 9.765c-.02.031-.039.061-.057.093-.4.717-.144 1.624.574 2.023.716.402 1.622.145 2.023-.571 1.294-2.13 7.654-8.207 19.553-8.207 11.436 0 19.574 5.79 21.038 8.207.27.444.752.716 1.273.716.271 0 .537-.074.769-.215.703-.426.927-1.339.501-2.043C44.007 6.404 34.996.126 22.466.126 9.143.126 2 7.085.373 9.765"/>
        <path id="prefix__an" d="M15.466.177c-7.861 0-9.834 1.012-12.315 2.292-.505.258-1.038.532-1.665.814C.732 3.616.392 4.496.725 5.248c.333.752 1.212 1.093 1.965.76.678-.315 1.258-.61 1.805-.892 2.222-1.14 3.832-1.964 10.971-1.964 4.821-.264 9.641.51 14.137 2.268.568.208 1.145.422 1.74.626.156.054.32.081.484.08.657.014 1.243-.406 1.444-1.032.251-.782-.179-1.62-.961-1.87-.577-.187-1.125-.393-1.671-.595C26.392.975 21.88.13 17.333.13c-.621 0-1.244.016-1.867.047"/>
        <path id="prefix__aq" d="M.972.247c-.7.43-.918 1.347-.487 2.045 1.107 1.787 2.053 3.669 2.826 5.624.197.616.769 1.034 1.415 1.035.154 0 .306-.025.452-.071.782-.249 1.214-1.086.965-1.869C5.3 4.826 4.254 2.724 3.019.734 2.738.278 2.25.026 1.751.026c-.266 0-.535.071-.779.221"/>
        <linearGradient id="prefix__d" x1=".006%" x2="100.001%" y1="49.996%" y2="49.996%">
            <stop offset="0%" stop-color="#FFB218"/>
            <stop offset="100%" stop-color="#FFCF44"/>
        </linearGradient>
        <linearGradient id="prefix__g" x1="0%" x2="99.993%" y1="49.994%" y2="49.994%">
            <stop offset="0%" stop-color="#FFB218"/>
            <stop offset="100%" stop-color="#FFCF44"/>
        </linearGradient>
        <linearGradient id="prefix__j" x1=".001%" x2="99.999%" y1="50%" y2="50%">
            <stop offset="0%" stop-color="#FFB218"/>
            <stop offset="100%" stop-color="#FFCF44"/>
        </linearGradient>
        <linearGradient id="prefix__m" x1="0%" x2="100%" y1="49.999%" y2="49.999%">
            <stop offset="0%" stop-color="#FFB218"/>
            <stop offset="100%" stop-color="#FFCF44"/>
        </linearGradient>
        <linearGradient id="prefix__p" x1="0%" x2="100%" y1="50%" y2="50%">
            <stop offset="0%" stop-color="#FFB218"/>
            <stop offset="100%" stop-color="#FFCF44"/>
        </linearGradient>
        <linearGradient id="prefix__s" x1="0%" x2="100.002%" y1="49.999%" y2="49.999%">
            <stop offset="0%" stop-color="#FFB218"/>
            <stop offset="100%" stop-color="#FFCF44"/>
        </linearGradient>
        <linearGradient id="prefix__v" x1="-.002%" x2="100.001%" y1="50.001%" y2="50.001%">
            <stop offset="0%" stop-color="#FFB218"/>
            <stop offset="100%" stop-color="#FFCF44"/>
        </linearGradient>
        <linearGradient id="prefix__y" x1="0%" x2="100.001%" y1="49.998%" y2="49.998%">
            <stop offset="0%" stop-color="#FFB218"/>
            <stop offset="100%" stop-color="#FFCF44"/>
        </linearGradient>
        <linearGradient id="prefix__B" x1="-.001%" x2="100%" y1="49.999%" y2="49.999%">
            <stop offset="0%" stop-color="#FFB218"/>
            <stop offset="100%" stop-color="#FFCF44"/>
        </linearGradient>
        <linearGradient id="prefix__E" x1="-.02%" x2="99.984%" y1="49.999%" y2="49.999%">
            <stop offset="0%" stop-color="#FFB218"/>
            <stop offset="100%" stop-color="#FFCF44"/>
        </linearGradient>
        <linearGradient id="prefix__H" x1="0%" x2="100%" y1="50.006%" y2="50.006%">
            <stop offset="0%" stop-color="#FFB218"/>
            <stop offset="100%" stop-color="#FFCF44"/>
        </linearGradient>
        <linearGradient id="prefix__K" x1="0%" x2="99.999%" y1="50%" y2="50%">
            <stop offset="0%" stop-color="#FFB218"/>
            <stop offset="100%" stop-color="#FFCF44"/>
        </linearGradient>
        <linearGradient id="prefix__N" x1="-.001%" x2="99.992%" y1="50%" y2="50%">
            <stop offset="0%" stop-color="#FFB218"/>
            <stop offset="100%" stop-color="#FFCF44"/>
        </linearGradient>
        <linearGradient id="prefix__Q" x1=".001%" x2="99.999%" y1="50%" y2="50%">
            <stop offset="0%" stop-color="#FFB218"/>
            <stop offset="100%" stop-color="#FFCF44"/>
        </linearGradient>
        <linearGradient id="prefix__T" x1="0%" x2="100.001%" y1="50.001%" y2="50.001%">
            <stop offset="0%" stop-color="#FFB218"/>
            <stop offset="100%" stop-color="#FFCF44"/>
        </linearGradient>
        <linearGradient id="prefix__W" x1=".001%" x2="100%" y1="49.999%" y2="49.999%">
            <stop offset="0%" stop-color="#FFB218"/>
            <stop offset="100%" stop-color="#FFCF44"/>
        </linearGradient>
        <linearGradient id="prefix__Z" x1="-.001%" x2="100%" y1="50.002%" y2="50.002%">
            <stop offset="0%" stop-color="#FFB218"/>
            <stop offset="100%" stop-color="#FFCF44"/>
        </linearGradient>
        <linearGradient id="prefix__ac" x1="-.002%" x2="100%" y1="50.005%" y2="50.005%">
            <stop offset="0%" stop-color="#FFB218"/>
            <stop offset="100%" stop-color="#FFCF44"/>
        </linearGradient>
        <linearGradient id="prefix__af" x1="-.005%" x2="99.995%" y1="49.998%" y2="49.998%">
            <stop offset="0%" stop-color="#FFB218"/>
            <stop offset="100%" stop-color="#FFCF44"/>
        </linearGradient>
        <linearGradient id="prefix__ai" x1="-.001%" x2="99.999%" y1="49.999%" y2="49.999%">
            <stop offset="0%" stop-color="#FFB218"/>
            <stop offset="100%" stop-color="#FFCF44"/>
        </linearGradient>
        <linearGradient id="prefix__al" x1="0%" x2="100%" y1="50.006%" y2="50.006%">
            <stop offset="0%" stop-color="#FFB218"/>
            <stop offset="100%" stop-color="#FFCF44"/>
        </linearGradient>
        <linearGradient id="prefix__ao" x1=".001%" x2="100.001%" y1="50.002%" y2="50.002%">
            <stop offset="0%" stop-color="#FFB218"/>
            <stop offset="100%" stop-color="#FFCF44"/>
        </linearGradient>
        <linearGradient id="prefix__ar" x1=".002%" x2="99.999%" y1="49.996%" y2="49.996%">
            <stop offset="0%" stop-color="#FFB218"/>
            <stop offset="100%" stop-color="#FFCF44"/>
        </linearGradient>
    </defs>
    <g fill="none" fill-rule="evenodd">
        <g>
            <path fill="#619440" d="M39.652 171.704c33.969 3.28 66.387-74.915 78.809-106.331 8.169-20.661 9.657-43.212 11.056-65.348-35.489 11.925-78.375 39.36-95.463 72.308-2.838 5.47-4.822 14.147-5.964 20.189-2.389 12.653-3.723 53.729-2.569 66.559.362 4.017-1.099 11.153 14.131 12.623" transform="translate(251 8.207)"/>
            <path fill="#306B34" d="M125.309 5.662c-.714-.618-1.802-.547-2.427.157-7.8 8.783-15.102 17.579-21.995 26.503-1.761-4.871-2.486-8.891-2.584-14.037-.018-.624-.536-1.123-1.17-1.111-.632.01-1.136.528-1.126 1.154.071 3.596.446 6.734 1.244 9.953.494 1.987 1.149 4.006 1.99 6.18-5.404 7.083-10.553 14.252-15.484 21.568-.282-2.8-.76-5.562-1.229-8.27-.526-3.033-.929-5.161-1.334-7.284-.405-2.136-.812-4.266-1.338-7.32-.106-.62-.701-1.03-1.325-.924-.625.105-1.045.69-.938 1.307.53 3.067.939 5.208 1.345 7.355.402 2.114.805 4.23 1.328 7.249.623 3.598 1.263 7.297 1.418 10.986-5.992 9.055-11.662 18.346-17.083 27.98l-5.325-17.436c-.838-2.746-1.709-5.59-1.798-8.465-.028-.615-.549-1.116-1.181-1.098-.634.019-1.132.54-1.113 1.166.054 1.76.358 3.462.77 5.122.331 1.335.732 2.642 1.127 3.93l5.974 19.56c-6.52 11.773-12.686 24.063-18.617 37.08-.165.359-.192.745-.103 1.1.121.49.462.923.965 1.147.868.385 1.885.003 2.275-.854 2.695-5.915 5.442-11.673 8.246-17.306h.005c6.145-.81 10.9-1.645 15.5-2.454 4.576-.803 9.306-1.636 15.403-2.438.627-.082 1.07-.652.985-1.272-.082-.61-.659-1.056-1.289-.973-6.145.809-10.9 1.645-15.5 2.454-4.183.734-8.509 1.493-13.877 2.23 3.611-7.162 7.32-14.12 11.158-20.9 7.398-1.563 13.808-2.955 20.214-4.347 6.604-1.433 13.208-2.867 20.901-4.49.618-.132 1.013-.733.882-1.345-.218-.606-.743-1.002-1.363-.871-7.697 1.624-14.305 3.06-20.913 4.494-5.822 1.265-11.645 2.528-18.212 3.922 4.459-7.758 9.091-15.298 13.934-22.677.027-.026.049-.056.074-.083.223.077.47.09.713.018 12.528-3.763 21.984-5.78 34.888-7.446.628-.081 1.07-.65.988-1.27-.095-.635-.661-1.057-1.287-.976-12.452 1.606-21.73 3.54-33.567 7.024 4.46-6.685 9.097-13.247 13.944-19.724 9.005-3.874 14.022-4.574 23.4-4.581.635-.001 1.148-.51 1.147-1.135.002-.625-.514-1.13-1.146-1.132-8.841.007-14.003.762-20.726 3.309 7.296-9.554 15.059-18.95 23.391-28.331.63-.704.558-1.777-.159-2.398" transform="translate(251 8.207)"/>
            <path fill="#FFDE8E" d="M101.141 146.575c-4.409 30.117-29.761 66.359-59.058 78.268-9.357 3.803-20.646 6.009-29.636 1.072C3.919 221.23-.073 211.077.681 201.879c.754-9.2 5.445-17.592 10.775-25.203 5.525-7.89 11.899-15.323 19.692-21.235 7.792-5.911 16.987-11.047 27.063-11.524 21.802-1.033 36.036 1.962 42.93 2.658" transform="translate(251 8.207)"/>
        </g>
        <g transform="translate(251 151.207)">
            <mask id="prefix__b" fill="#fff">
                <use xlink:href="#prefix__a"/>
            </mask>
            <path fill="#FFBF4D" d="M58.21.917c-10.075.477-19.27 5.613-27.062 11.524-7.793 5.912-14.168 13.345-19.692 21.235C6.125 41.287 1.435 49.679.68 58.878c-.494 6.044 1.059 12.499 4.601 17.545 1.85 2.634 95.86-72.848 95.86-72.848C95.244 2.979 83.978.702 67.199.702c-2.838 0-5.835.065-8.989.215" mask="url(#prefix__b)"/>
        </g>
        <path fill="#306B34" d="M376.413 203.993c0 2.78-2.254 5.035-5.035 5.035s-5.036-2.254-5.036-5.035 2.255-5.035 5.036-5.035c2.781 0 5.035 2.254 5.035 5.035"/>
        <g transform="translate(356 193.207)">
            <mask id="prefix__e" fill="#fff">
                <use xlink:href="#prefix__c"/>
            </mask>
            <path fill="url(#prefix__d)" d="M.674 4.281c0 1.836 1.488 3.324 3.323 3.324 1.836 0 3.324-1.488 3.324-3.324 0-1.835-1.488-3.323-3.324-3.323C2.162.958.674 2.446.674 4.281" mask="url(#prefix__e)"/>
        </g>
        <g transform="translate(365 188.207)">
            <mask id="prefix__h" fill="#fff">
                <use xlink:href="#prefix__f"/>
            </mask>
            <path fill="url(#prefix__g)" d="M.728 2.977c0 1.284 1.042 2.326 2.326 2.326 1.285 0 2.327-1.042 2.327-2.326C5.381 1.691 4.339.65 3.054.65 1.77.65.728 1.691.728 2.977" mask="url(#prefix__h)"/>
        </g>
        <g>
            <path fill="#F7E8C8" d="M.702 234.01c0-5.518 71.76-9.99 160.282-9.99 88.52 0 160.282 4.472 160.282 9.99S249.505 244 160.984 244C72.463 244 .702 239.528.702 234.01" transform="translate(1 .207)"/>
            <path fill="#FCBD30" d="M259.6 8.948c3.073-5.233 5.224-7.957 12.396-7.836.929.016 1.942.08 3.052.19 7.091.715 12.13 6.05 12.841 11.696.711 5.646 3.756 5.626 6.43 9.892 2.673 4.266 3.039 14.822 3.039 14.822l-37.627 1.84s-5.732-21.068-.131-30.604" transform="translate(1 .207)"/>
            <path fill="#FFE2B7" d="M259.731 39.552c-1.39-3.947-2.325-8.047-2.914-12.21-.567-4.16-.8-8.426-.083-12.681.356-2.122 1.06-4.222 2.133-6.171 1.118-1.763 2.221-3.637 3.902-5.118 1.645-1.521 3.858-2.35 5.983-2.52 2.147-.188 4.238.109 6.296.45-1.049.036-2.088.048-3.12.053-1.03.073-2.06.153-3.048.382-1.996.347-3.819 1.214-5.14 2.649-1.332 1.42-2.375 3.18-3.384 4.979-.884 1.73-1.523 3.615-1.827 5.61-.718 3.967-.553 8.115-.323 12.222.135 2.059.35 4.12.637 6.173.221 2.067.565 4.117.888 6.182" transform="translate(1 .207)"/>
            <path fill="#E7E1D3" d="M224.908 102.438c7.777 1.667 15.839-4.1 20.743-13.578 5.474-10.577 10.573-20.588 2.598-26.816 0 0-12.827 12.56-16.192 16.706-6.741 8.306-13.612 16.763-13.612 16.763s1.899 5.946 6.463 6.925" transform="translate(1 .207)"/>
            <path fill="#D0BDFF" d="M252.137 72.292L238.08 75.78s5.006-21.411 5.567-27.201c.728-7.518 4.883-16.832 13.955-19.006l-.42 4.442-5.045 38.276z" transform="translate(1 .207)"/>
            <path fill="#FFE2B7" d="M213.685 234.615s1.738-3.83 2.494-5.618c.124-.292 1.827-6.36 1.827-6.36l4.182.54-3.393 5.62s-2.813 6.322-2.955 6.353c-.143.03-2.155-.535-2.155-.535" transform="translate(1 .207)"/>
            <path fill="#7F786A" d="M218.731 228.822s1.891.828 1.814 3.434c-.077 2.606-.259 4.483-.259 4.483l-.949.204-.559-3.087s-.867.848-1.652 2.951c-.353.947-5.54 1.602-5.54 1.602s-1.232-.796.576-2.134c.448-.332 1.612-1.79 1.612-1.79s.977.911 2.041-.249c.478-.52 1.31-1.85 1.866-2.952.684-1.357 1.05-2.462 1.05-2.462" transform="translate(1 .207)"/>
            <path fill="#FFE2B7" d="M272.124 232.345s2.992-3.338 3.417-5.107c.075-.31-.598-5.083-.598-5.083l3.454 1.643s-.435 2.558-.392 3.416c.019.379.32 1.486.32 1.486s-4.024 4.536-4.17 4.542c-.145.005-2.031-.897-2.031-.897" transform="translate(1 .207)"/>
            <path fill="#7F786A" d="M278.086 227.5s1.722 1.14 1.2 3.694c-.521 2.554-.698 4.042-.698 4.042l-.97.039-.346-2.806s-1 .687-2.132 2.626c-.51.872-5.744.304-5.744.304s-1.078-.995.932-2.004c.499-.25 1.906-1.161 1.906-1.161s.807 1.065 2.054.103c.559-.431 1.607-1.6 2.343-2.59.905-1.22 1.455-2.246 1.455-2.246" transform="translate(1 .207)"/>
            <path fill="#A29C8F" d="M265.46 77.575c3.4 4.377 4.982 32.423 4.982 32.423l-17.838 46.556-28.504 68.259-7.178-.681s8.131-56.97 10.85-71.958c6.795-37.481 16.068-67.646 23.201-79.141 3.192 1.584 5.404 4.871 14.487 4.542" transform="translate(1 .207)"/>
            <path fill="#7F786A" d="M281.851 70.827c6.405 7.683 13.072 12.62 15.552 38.703 1.994 20.969-18.046 115.75-18.046 115.75l-7.494.254-9.056-119.764-3.206-27.235s19.675-6.729 22.25-7.708" transform="translate(1 .207)"/>
            <path fill="#E1DCFF" d="M259.555 65.25c-.03.797.593 1.465 1.389 1.494.796.029 1.465-.593 1.494-1.39.029-.794-.593-1.463-1.39-1.493-.795-.028-1.464.593-1.493 1.389" transform="translate(1 .207)"/>
            <path fill="#F5EFE4" d="M249.658 72.238s3.835 1.94 15.941 2.416c11.082.436 17.354-3.443 17.354-3.443l1.656-22.389c.601-6.882 4.162-17.646-8.66-18.894 0 0-14.078-.745-17.832-.439-7.714.63-9.309 10.036-9.76 17.828-.439 7.546 1.301 24.921 1.301 24.921" transform="translate(1 .207)"/>
            <path fill="#A29C8F" d="M282.767 70.353s-21.67 4.788-33.227.856l-.183 4.504s7.4 2.651 16.72 2.462c5.93-.12 12.947-1.979 18.33-4.5l-1.64-3.322z" transform="translate(1 .207)"/>
            <path fill="#FCC23F" d="M264.433 75.755c.02-1.302-1.023-2.393-2.325-2.43l-5.215-.153.169 4.219c1.004.403 2.687.652 4.897.72.647.028 1.263-.212 1.732-.66.468-.445.732-1.048.742-1.696m-2.5 3.175c-2.529-.081-4.361-.382-5.444-.898-.137-.064-.226-.201-.233-.352l-.197-4.912c-.004-.114.039-.223.118-.304.079-.08.183-.117.303-.121l5.652.165c1.746.05 3.145 1.513 3.118 3.26-.014.869-.367 1.677-.995 2.275-.571.545-1.304.855-2.084.886-.079.003-.158.003-.238 0" transform="translate(1 .207)"/>
            <path fill="#FCC23F" d="M262.175 76.382c.684-.027 1.08-.103 1.114-.11.221-.042.365-.256.322-.478-.043-.222-.26-.365-.478-.323-.018.003-1.779.332-4.423-.208-.22-.042-.436.098-.48.318-.047.22.096.438.317.482 1.545.316 2.798.352 3.628.319" transform="translate(1 .207)"/>
            <path fill="#FFF2DC" d="M260.489 92.472L174.323 93.618 173.128 3.818 259.294 2.671z" transform="translate(1 .207)"/>
            <path fill="#FFF0D2" d="M174.377 5.034l1.162 87.334 83.7-1.113-1.16-87.334-83.702 1.113zm-.054 89.817c-.674 0-1.224-.542-1.233-1.217l-1.195-89.8c-.005-.326.121-.642.35-.877.227-.234.54-.368.866-.372l86.167-1.146c.355.027.642.12.877.349.234.228.368.54.372.867l1.194 89.8c.01.682-.534 1.24-1.216 1.249L174.34 94.85l-.016.001z" transform="translate(1 .207)"/>
            <path fill="#F5EFE4" d="M295.238 70.87s6.284 2.84 7.74-.861c2.177-5.535.88-11.781-7.175-24.882-5.911-9.617-12.75-16.043-21.32-14.714l20.755 40.458z" transform="translate(1 .207)"/>
            <path fill="#FFE2B7" d="M267.293 31.829c-1.018.084-1.911-.673-1.996-1.69l-.598-7.227c-.083-1.018.673-1.911 1.69-1.995 1.019-.084 1.913.673 1.997 1.69l.598 7.227c.084 1.017-.673 1.91-1.691 1.995" transform="translate(1 .207)"/>
            <path fill="#FFC581" d="M264.809 24.236c-.145-1.749.563-3.235 1.58-3.319 1.019-.084 1.962 1.265 2.106 3.014l.324 3.91c.079.956-1.262 1.682-2.433.277-.767-.92-1.484-2.086-1.484-2.086l-.093-1.796z" transform="translate(1 .207)"/>
            <path fill="#FFE2B7" d="M274.705 14.084c-.435-.133-1.45.293-1.45.293.055-3.4-2.656-6.202-6.057-6.258-3.4-.056-5.662 2.664-5.718 6.066 0 0-.14 5.084-.045 5.725.632 4.192 2.331 5.453 5.48 5.504 3.148.052 5.78-2.27 6.197-5.312.641-.093 1.438-1.18 1.886-2.645.508-1.658.377-3.168-.293-3.373" transform="translate(1 .207)"/>
            <path fill="#FFE2B7" d="M267.404 8.107s-1.402-.046-2.38.356c-2.208.907-3.5 3.054-3.544 5.721 0 0-.141 5.084-.044 5.726.414 2.754 1.329 4.312 2.789 4.994.955.446 2.859.515 2.859.515s-1.51-2.132-1.5-9.023c.005-4.119 1.82-8.289 1.82-8.289" transform="translate(1 .207)"/>
            <path fill="#FCBD30" d="M276.007 16.136c-.042.406-12.05-2.547-11.987-7.566.063-5.021 12.538 2.205 11.987 7.566" transform="translate(1 .207)"/>
            <path fill="#FFE2B7" d="M271.896 20.54c.074 1.074 1.005 1.886 2.08 1.812 1.075-.075 1.886-1.006 1.811-2.081-.074-1.074-1.005-1.885-2.08-1.811-1.074.074-1.885 1.006-1.81 2.08" transform="translate(1 .207)"/>
            <path fill="#E7E1D3" d="M265.182 28.89s-.025 1.01.479 1.595c.219.255 1.423.896 1.423.896l-1.868 2.944s-1.178-1.22-1.453-1.698c-1.013-1.759-.633-3.158-.633-3.158l2.052-.58z" transform="translate(1 .207)"/>
            <path fill="#E7E1D3" d="M266.377 31.276l1.74 3.136s2.51-2.617 2.68-4.102l-1.924-1.798s-.526 2.32-2.496 2.764" transform="translate(1 .207)"/>
            <path fill="#FFE2B7" d="M221.671 96.447c.531.291.976.978.63 1.475-.493.71-3.204.648-3.204.648l-.087-2.143s1.904-.395 2.661.02" transform="translate(1 .207)"/>
            <path fill="#FFE2B7" d="M216.675 94.237s-1.931.558-2.313 1.067c-.292.39-.29 1.926-.29 1.926s3.095 1.081 4.229 1.281c.786.138 1.494.058 1.953-.668.305-.48.17-1.117-.304-1.432l-3.275-2.174z" transform="translate(1 .207)"/>
            <path fill="#FFE2B7" d="M214.517 92.206c.517-.264 1.151-.058 1.414.46l1.205 2.364-.936.478-1.683-3.302z" transform="translate(1 .207)"/>
            <path fill="#FFE2B7" d="M212.864 92.078c.49-.312 1.177-.108 1.533.452l1.63 2.567-.887.564-2.276-3.583z" transform="translate(1 .207)"/>
            <path fill="#FFE2B7" d="M212.234 92.753c.49-.312 1.177-.108 1.533.453l1.63 2.567-.887.563-2.276-3.583z" transform="translate(1 .207)"/>
            <path fill="#FFE2B7" d="M211.654 94.093c.458-.357 1.161-.222 1.57.303l1.87 2.396-1.02.439-2.42-3.138zM259.285 40.998s.934-1.573 1.523-1.814c.451-.184 1.936.208 1.936.208s1.62 3.902 1.141 4.95c-.228.5-1.292.925-2.11 1.185-.543.173-1.125-.118-1.309-.657l-1.181-3.872z" transform="translate(1 .207)"/>
            <path fill="#FFE2B7" d="M258.535 39.004c-.384.436-.341 1.1.095 1.483l1.993 1.753.695-.79-2.783-2.446z" transform="translate(1 .207)"/>
            <path fill="#FFE2B7" d="M258.16 38.317c-.306.494-.095 1.18.471 1.528l2.586 1.6.553-.894-3.61-2.234z" transform="translate(1 .207)"/>
            <path fill="#FFE2B7" d="M258.673 37.369c-.344.468-.188 1.167.348 1.561l2.448 1.801.623-.846-3.418-2.516z" transform="translate(1 .207)"/>
            <path fill="#FFE2B7" d="M260.523 35.417c-.508.28-.6 1.087-.207 1.8l1.803 3.262.586-1.172-2.182-3.89zM263.112 43.928L260.665 44.77 263.557 48.411 265.597 46.566z" transform="translate(1 .207)"/>
            <path fill="#E7E1D3" d="M260.679 52.274c1.963 10 12.52 15.345 19.973 18.277 8.315 3.272 18.24 6.58 22.177-.313 0 0-9.815-9.806-13.133-12.037-6.646-4.469-24.371-13.572-24.371-13.572s-5.348 4.07-4.646 7.645" transform="translate(1 .207)"/>
            <path fill="#FFB218" d="M189.694 17.644l2.597-.037.121 8.637-1.682.023-.082-5.842c-.002-.168-.004-.403-.004-.706 0-.303-.002-.536-.004-.7l-1.534 7.271-1.754.024-1.727-7.225c.002.164.007.398.016.701.008.302.013.538.015.706l.082 5.84-1.681.025-.121-8.637 2.626-.037 1.667 6.77 1.465-6.813zM194.12 19.832l1.693-.023.09 6.386-1.693.024-.09-6.387zm1.683-.785l-1.693.023-.022-1.541 1.693-.023.022 1.54zM202.825 20.077c.423.34.64.91.651 1.711l.061 4.3-1.71.024-.056-3.885c-.004-.336-.052-.592-.144-.771-.168-.325-.48-.485-.938-.479-.562.008-.945.253-1.147.737-.105.256-.155.58-.15.974l.05 3.457-1.67.024-.09-6.375 1.617-.023.013.932c.21-.331.408-.57.597-.717.34-.263.77-.398 1.296-.405.657-.01 1.197.156 1.62.496M205.263 19.677l1.693-.024.09 6.386-1.693.024-.09-6.386zm1.683-.786l-1.693.024-.022-1.541 1.693-.024.022 1.54zM185.55 38.074c.062.395.176.687.342.881.305.35.82.521 1.546.512.434-.006.786-.059 1.056-.156.512-.187.765-.525.758-1.013-.004-.286-.133-.504-.387-.657-.254-.148-.656-.277-1.205-.386l-.938-.193c-.921-.19-1.556-.402-1.903-.635-.587-.39-.887-1.009-.9-1.857-.01-.773.266-1.42.828-1.94.562-.519 1.395-.786 2.498-.802.922-.013 1.71.217 2.367.69.658.473 1.008 1.168 1.053 2.086l-1.734.025c-.04-.52-.276-.885-.712-1.098-.291-.141-.65-.208-1.078-.202-.477.007-.856.106-1.138.298-.282.191-.42.455-.415.791.004.308.148.537.43.685.18.099.565.213 1.152.341l1.52.337c.667.147 1.168.349 1.503.606.52.399.786.983.797 1.752.01.789-.285 1.449-.888 1.979-.602.529-1.46.803-2.573.818-1.137.016-2.036-.228-2.694-.733-.658-.504-.993-1.206-1.006-2.105l1.722-.024zM191.668 35.516l-.017-1.189.891-.013-.025-1.78 1.652-.025.025 1.781 1.037-.014.017 1.19-1.037.014.047 3.375c.004.262.04.424.106.487.068.064.271.094.611.09l.161-.007c.057-.002.112-.006.167-.01l.017 1.247-.79.041c-.788.04-1.329-.09-1.623-.388-.19-.189-.288-.482-.293-.88l-.055-3.932-.89.013zM200.138 37.43c-.106.069-.213.123-.32.166-.11.043-.259.084-.449.12l-.378.076c-.355.069-.61.148-.764.24-.26.157-.389.394-.385.714.004.285.087.49.25.615.162.126.358.186.588.183.365-.006.7-.115 1.004-.331.305-.215.458-.602.463-1.162l-.009-.62zm-1.03-.764c.308-.043.53-.094.663-.155.24-.105.356-.266.353-.48-.003-.261-.098-.441-.283-.538-.186-.098-.457-.144-.813-.139-.4.007-.682.108-.845.306-.117.146-.193.342-.229.589l-1.61.023c.026-.56.176-1.021.45-1.384.435-.569 1.193-.86 2.271-.877.702-.01 1.328.12 1.877.392.55.269.83.788.84 1.558l.041 2.928c.003.203.01.45.022.738.015.22.05.367.106.445.056.078.14.14.25.19l.002.245-1.816.026c-.053-.127-.09-.248-.11-.361-.022-.113-.039-.242-.053-.386-.229.252-.493.47-.793.65-.358.212-.765.32-1.22.328-.582.008-1.065-.15-1.448-.477-.385-.323-.58-.79-.589-1.395-.01-.785.286-1.358.891-1.717.332-.195.822-.34 1.47-.43l.572-.08zM202.817 35.36l-.017-1.189.891-.013-.025-1.78 1.652-.025.025 1.781 1.037-.013.017 1.19-1.038.013.048 3.375c.003.262.039.425.106.488.068.064.271.093.611.088.051 0 .105-.003.161-.005.056-.003.112-.007.167-.012l.017 1.248-.79.041c-.789.04-1.33-.09-1.623-.387-.19-.19-.288-.483-.293-.88l-.055-3.933-.891.013zM209.376 35.592c-.232.247-.375.578-.43.995l2.876-.04c-.036-.442-.19-.777-.459-1.003-.269-.225-.6-.336-.995-.33-.429.006-.76.132-.992.378m2.478-1.477c.45.194.821.503 1.117.929.267.376.443.814.528 1.314.048.293.072.714.072 1.266l-4.65.065c.034.64.263 1.087.685 1.339.258.156.566.232.925.227.38-.006.688-.107.922-.307.13-.106.241-.254.338-.444l1.705-.023c-.039.38-.24.767-.603 1.163-.563.629-1.36.95-2.39.965-.85.012-1.603-.24-2.26-.754-.657-.515-.993-1.363-1.01-2.543-.016-1.107.266-1.96.844-2.558.578-.598 1.335-.904 2.271-.917.556-.008 1.058.085 1.506.278M222.573 33.858c.275.106.526.294.752.564.183.22.308.492.375.816.042.214.066.528.072.942l.044 4.025-1.711.024-.056-4.066c-.004-.242-.046-.44-.126-.596-.153-.295-.428-.439-.827-.434-.46.006-.776.203-.947.588-.087.204-.128.45-.124.735l.053 3.801-1.681.024-.053-3.802c-.005-.379-.048-.654-.13-.825-.144-.307-.422-.457-.832-.45-.476.006-.794.165-.954.475-.087.177-.13.44-.124.787l.054 3.843-1.694.025-.09-6.375 1.624-.023.013.932c.203-.335.395-.574.576-.718.32-.254.739-.385 1.255-.393.488-.006.884.096 1.187.306.245.196.433.45.562.761.214-.379.48-.657.803-.838.34-.18.723-.274 1.145-.28.28-.004.559.047.834.152M227.198 35.343c-.232.247-.376.578-.43.995l2.876-.04c-.037-.443-.19-.777-.459-1.004-.269-.225-.6-.335-.995-.33-.429.006-.76.133-.992.379m2.478-1.478c.448.194.82.503 1.117.93.266.376.443.814.527 1.314.05.292.073.713.072 1.265l-4.65.066c.035.64.264 1.086.686 1.338.258.157.566.232.925.227.38-.005.688-.107.922-.306.128-.107.241-.255.338-.444l1.705-.024c-.04.38-.24.767-.603 1.163-.564.63-1.36.95-2.39.966-.85.01-1.603-.24-2.26-.754-.658-.516-.994-1.364-1.01-2.544-.016-1.106.266-1.958.844-2.557.578-.6 1.335-.904 2.271-.918.556-.008 1.057.085 1.506.278M237.581 33.991c.423.34.64.91.651 1.711l.06 4.301-1.71.023-.055-3.884c-.005-.336-.052-.592-.144-.771-.168-.326-.48-.485-.938-.48-.562.008-.945.254-1.147.738-.105.255-.155.58-.149.974l.048 3.457-1.67.024-.089-6.375 1.618-.023.012.932c.21-.331.408-.57.597-.718.34-.263.77-.397 1.296-.405.657-.009 1.197.156 1.62.496M239.357 34.848l-.017-1.189.89-.013-.024-1.78 1.652-.024.025 1.781 1.037-.014.017 1.19-1.037.014.047 3.374c.004.262.039.425.107.488.067.064.27.093.61.088.05 0 .105-.003.162-.005.056-.003.112-.007.166-.012l.018 1.248-.791.041c-.788.04-1.33-.09-1.623-.387-.19-.19-.288-.483-.293-.88l-.055-3.933-.891.013zM225.387 58.807l.18-.003.251-.005.252-.008c.08-.004.14-.005.178-.006.167-.003.33-.008.486-.015.156-.008.304-.032.444-.073.14-.042.272-.109.395-.199.123-.09.236-.22.338-.39l-2.806.054c.044-.114.103-.242.177-.38.073-.142.146-.275.218-.4.083-.147.17-.293.261-.439l1.916-.037c0-.05-.027-.11-.077-.175-.05-.066-.115-.128-.194-.187-.08-.059-.165-.108-.258-.147-.093-.039-.18-.059-.262-.057l-1.886.037c.03-.048.074-.114.131-.199.057-.085.12-.178.188-.276l.208-.306c.07-.105.134-.2.193-.285.06-.085.11-.154.15-.208.04-.054.061-.08.065-.08l4.692-.092c.004.004-.007.04-.033.106l-.098.25-.129.321-.13.321c-.042.1-.092.215-.152.35l-.65.011.04.115.058.172.057.174c.016.054.027.093.031.117l1.536-.03-.698 1.22-.76.015c-.062.314-.164.576-.309.786-.144.21-.316.382-.517.516-.2.135-.418.242-.653.318-.235.077-.473.137-.714.181l2.453 3.245.01.475-1.652.032-2.909-3.723-.02-1.096zM233.827 61.252c.074.362.206.64.396.834.19.193.465.286.824.279.413-.008.725-.16.936-.454.21-.296.31-.664.302-1.105-.008-.434-.116-.797-.324-1.092-.21-.295-.528-.44-.956-.43-.203.004-.378.032-.525.086-.26.099-.452.277-.58.533l-1.498-.042.505-4.704 4.674-.091.027 1.418-3.47.068-.267 1.863c.255-.173.453-.288.596-.346.24-.094.534-.145.88-.152.703-.014 1.32.21 1.852.674.532.462.806 1.144.824 2.047.015.785-.223 1.49-.714 2.117-.492.627-1.24.95-2.242.97-.807.015-1.474-.19-2.002-.612-.528-.424-.828-1.033-.902-1.83l1.664-.031zM241.086 61.46c.17.515.503.767.999.758.496-.01.816-.276.96-.796.145-.521.208-1.27.188-2.245-.02-1.024-.111-1.78-.275-2.27-.164-.488-.494-.727-.99-.718-.496.009-.82.262-.97.757-.15.495-.216 1.254-.196 2.278.019.976.114 1.72.284 2.236m3.154-5.55c.45.754.688 1.83.716 3.234.027 1.4-.17 2.486-.59 3.252-.421.766-1.173 1.16-2.255 1.18-1.081.022-1.847-.343-2.297-1.092-.45-.75-.69-1.825-.716-3.227-.028-1.402.169-2.488.59-3.258.42-.77 1.172-1.166 2.253-1.186 1.082-.022 1.849.344 2.299 1.097M247.998 61.326c.17.515.503.767 1 .757.496-.01.815-.275.96-.795.144-.521.207-1.27.187-2.245-.02-1.024-.11-1.78-.275-2.269-.164-.489-.494-.729-.99-.719-.496.009-.819.262-.969.757-.15.495-.217 1.254-.197 2.278.02.976.114 1.721.284 2.236m3.154-5.55c.45.753.69 1.831.716 3.234.027 1.401-.169 2.485-.59 3.252-.42.765-1.173 1.159-2.254 1.18-1.082.021-1.848-.344-2.298-1.093-.45-.749-.689-1.825-.716-3.226-.028-1.402.17-2.488.59-3.259.421-.769 1.172-1.165 2.254-1.186 1.081-.021 1.848.345 2.298 1.098M232.807 74.93l.179-.004.252-.005.252-.008c.079-.004.139-.004.178-.005.167-.004.329-.008.486-.016.156-.007.304-.031.444-.072.14-.042.272-.11.395-.2.123-.09.236-.22.338-.39l-2.806.054c.044-.114.103-.242.177-.38.073-.141.146-.275.218-.4.083-.147.17-.293.26-.439l1.917-.037c-.001-.05-.027-.11-.077-.175-.05-.066-.115-.127-.194-.186-.08-.06-.165-.109-.258-.148-.093-.038-.18-.059-.262-.056l-1.886.037c.03-.049.074-.115.13-.2.058-.084.12-.177.189-.275l.208-.306c.07-.105.134-.2.193-.285l.149-.209c.04-.053.062-.08.066-.08l4.692-.091c.004.004-.007.038-.033.105-.026.067-.06.15-.098.25-.04.097-.082.206-.13.322-.045.116-.09.223-.13.32-.041.1-.091.215-.151.35l-.651.011.04.115c.019.052.039.11.059.172l.057.175c.016.053.027.093.03.117l1.537-.031-.698 1.22-.761.015c-.061.315-.163.577-.308.787-.144.21-.316.382-.517.516-.2.134-.418.242-.653.317-.235.078-.473.138-.714.181l2.453 3.246.01.474-1.652.033-2.91-3.724-.02-1.096zM241.699 78.068c.252.285.567.423.946.416.37-.008.66-.152.868-.437.207-.283.307-.647.298-1.092-.01-.496-.138-.873-.385-1.132-.248-.259-.547-.385-.898-.379-.286.006-.536.097-.751.272-.323.261-.48.674-.468 1.241.009.457.139.827.39 1.111zm1.888-4.824c-.003-.137-.058-.286-.167-.448-.185-.262-.46-.39-.823-.383-.543.01-.923.323-1.141.936-.12.338-.195.836-.23 1.493.203-.25.439-.434.71-.552.272-.119.583-.182.935-.189.754-.014 1.376.23 1.869.732.492.503.746 1.152.76 1.948.016.793-.206 1.497-.667 2.111-.461.614-1.19.932-2.185.951-1.07.021-1.867-.41-2.393-1.296-.408-.69-.623-1.589-.644-2.694-.013-.648.005-1.177.05-1.584.085-.724.263-1.329.535-1.815.234-.415.545-.75.933-1.009.387-.258.854-.392 1.4-.402.79-.015 1.423.174 1.899.57.477.394.75.928.822 1.6l-1.663.031zM248.505 77.582c.17.515.503.767.999.758.496-.01.816-.276.96-.796.145-.521.208-1.27.188-2.245-.02-1.024-.111-1.78-.275-2.27-.164-.488-.494-.727-.99-.718-.496.009-.819.262-.969.757-.151.495-.217 1.254-.197 2.278.019.976.114 1.72.284 2.236m3.154-5.55c.45.754.688 1.83.716 3.234.027 1.4-.17 2.486-.59 3.252-.421.766-1.173 1.16-2.255 1.18-1.081.022-1.847-.343-2.297-1.092-.45-.75-.689-1.825-.716-3.227-.028-1.402.169-2.488.59-3.258.42-.77 1.172-1.166 2.253-1.186 1.082-.022 1.849.344 2.299 1.097M215.215 62.066l-26.658.144c-1.49.007-2.703-1.193-2.711-2.682-.008-1.489 1.193-2.703 2.682-2.71l26.658-.146c1.489-.007 2.703 1.194 2.71 2.683.009 1.49-1.192 2.703-2.681 2.711M215.306 79.11l-26.657.144c-1.49.007-2.703-1.194-2.712-2.682-.008-1.489 1.194-2.703 2.682-2.712l26.659-.144c1.489-.007 2.703 1.194 2.71 2.682v.001c.008 1.488-1.192 2.702-2.681 2.711" transform="translate(1 .207)"/>
        </g>
        <g transform="translate(173 156.207)">
            <mask id="prefix__k" fill="#fff">
                <use xlink:href="#prefix__i"/>
            </mask>
            <path fill="url(#prefix__j)" d="M5.671.634C2.022 1.864-.084 5.674.814 9.417c2.678 9.309 12.471 17.662 21.439 24.759.645.512 1.581.403 2.09-.242.51-.643.401-1.578-.242-2.09C15.492 25.032 6.106 17.057 3.673 8.597c-.681-2.371.688-4.843 3.058-5.524 2.371-.682 4.844.688 5.524 3.058 1.625 5.652 9.701 12.637 17.384 18.718.645.509 1.58.401 2.09-.244.511-.644.403-1.579-.242-2.09-4.057-3.203-14.802-11.704-16.394-17.209C14.047 2.202 11.15.243 8.046.243c-.787 0-1.588.126-2.375.391" mask="url(#prefix__k)"/>
        </g>
        <g transform="translate(156 144.207)">
            <mask id="prefix__n" fill="#fff">
                <use xlink:href="#prefix__l"/>
            </mask>
            <path fill="url(#prefix__m)" d="M19.617.776C9.352 3.722 3.419 14.431 6.365 24.695l.006.022c2.441 8.484-2.794 10.837-4.462 11.354-.784.247-1.22 1.082-.973 1.865.246.785 1.082 1.22 1.864.974 4.549-1.422 8.967-6.206 6.429-15.018C6.728 15.21 11.738 6.143 20.422 3.641l.013-.003c8.585-2.414 17.53 2.451 20.169 10.97.035.116.086.228.149.331.154.256.473.794 10.034 8.552.637.518 1.574.422 2.092-.216.519-.636.422-1.574-.215-2.093-3.475-2.819-8.553-7.011-9.296-7.71C40.7 5.291 33.099.048 24.882.048c-1.741 0-3.509.235-5.265.728" mask="url(#prefix__n)"/>
        </g>
        <g transform="translate(161 149.207)">
            <mask id="prefix__q" fill="#fff">
                <use xlink:href="#prefix__o"/>
            </mask>
            <path fill="url(#prefix__p)" d="M16.256 1.496c-6.973 2.153-11.021 9.41-9.189 16.475 3.005 13.683.759 16.843-5.406 18.77-.783.247-1.218 1.082-.972 1.865.246.785 1.081 1.22 1.865.973 8.612-2.677 10.483-8.304 7.437-22.248-1.48-5.529 1.649-11.243 7.104-12.975 5.527-1.57 11.284 1.621 12.884 7.139.595 2.028 2.175 4.813 14.356 14.454.644.51 1.58.402 2.09-.242.51-.645.401-1.58-.242-2.09-11.058-8.746-12.95-11.516-13.366-12.955C31.118 4.796 25.761.978 19.942.978c-1.218 0-2.456.167-3.686.518" mask="url(#prefix__q)"/>
        </g>
        <g transform="translate(179 161.207)">
            <mask id="prefix__t" fill="#fff">
                <use xlink:href="#prefix__r"/>
            </mask>
            <path fill="url(#prefix__s)" d="M1.521.965C.755 1.199.312 1.999.52 2.773c2.344 8.157 11.262 14.921 16.59 18.964 1.083.779 2.126 1.614 3.124 2.499.59.571 1.533.554 2.103-.037.556-.577.556-1.49 0-2.066-1.09-.986-2.234-1.91-3.427-2.767C13.876 15.547 5.452 9.157 3.379 1.952 3.183 1.312 2.594.9 1.957.9c-.144 0-.291.021-.436.065" mask="url(#prefix__t)"/>
        </g>
        <g transform="translate(176 185.207)">
            <mask id="prefix__w" fill="#fff">
                <use xlink:href="#prefix__u"/>
            </mask>
            <path fill="url(#prefix__v)" d="M.492 10.993c-.052.819.572 1.526 1.392 1.576h.095c.787.002 1.439-.609 1.487-1.395.188-3.064 1.36-7.526 2.976-7.526 2.204 0 3.768 2.124 5.023 3.829.415.591.869 1.154 1.36 1.683.591.571 1.532.555 2.103-.036.557-.576.557-1.491 0-2.067-.384-.424-.741-.873-1.068-1.344-1.504-2.789-4.272-4.67-7.418-5.04-5.057 0-5.84 8.597-5.95 10.32" mask="url(#prefix__w)"/>
        </g>
        <g transform="translate(167 176.207)">
            <mask id="prefix__z" fill="#fff">
                <use xlink:href="#prefix__x"/>
            </mask>
            <path fill="url(#prefix__y)" d="M7.518.891c-.726.264-1.13 1.039-.93 1.785C7.862 6.654 5.36 14.46 1.597 15.682c-.784.246-1.22 1.079-.976 1.864.246.784 1.08 1.22 1.864.976.011-.004.021-.008.031-.01C8.239 16.667 11 6.725 9.423 1.784c-.219-.606-.79-.981-1.399-.981-.168-.001-.339.028-.506.088" mask="url(#prefix__z)"/>
        </g>
        <g transform="translate(155 138.207)">
            <mask id="prefix__C" fill="#fff">
                <use xlink:href="#prefix__A"/>
            </mask>
            <path fill="url(#prefix__B)" d="M.669 25.362c0 .822.666 1.488 1.486 1.488.822 0 1.488-.666 1.488-1.488.013-12.317 9.994-22.298 22.311-22.31 12.069 0 16.295 6.824 19.693 12.309 1.999 3.227 3.724 6.015 6.622 6.955.779.262 1.622-.156 1.884-.934.263-.778-.156-1.623-.934-1.886l-.031-.008-.003-.004c-1.859-.594-3.32-2.975-5.013-5.69C44.59 8.004 39.679.077 25.954.077 11.996.093.685 11.404.669 25.362" mask="url(#prefix__C)"/>
        </g>
        <g transform="translate(155 167.207)">
            <mask id="prefix__F" fill="#fff">
                <use xlink:href="#prefix__D"/>
            </mask>
            <path fill="url(#prefix__E)" d="M.669 2.313c.238 1.792.795 3.529 1.644 5.127.253.503.767.822 1.33.822.822 0 1.488-.666 1.488-1.488 0-.231-.054-.46-.158-.667-.635-1.189-1.083-2.47-1.33-3.794 0-.823-.666-1.489-1.488-1.489-.82 0-1.486.666-1.486 1.489" mask="url(#prefix__F)"/>
        </g>
        <g transform="translate(157 132.207)">
            <mask id="prefix__I" fill="#fff">
                <use xlink:href="#prefix__G"/>
            </mask>
            <path fill="url(#prefix__H)" d="M.369 9.768c-.423.702-.2 1.615.501 2.041.701.428 1.616.205 2.044-.496l.002-.003c1.291-2.13 7.651-8.207 19.55-8.207 11.436 0 19.572 5.79 21.038 8.207.426.702 1.342.925 2.044.499.702-.426.926-1.342.499-2.044C44.007 6.404 34.996.126 22.466.126 9.143.126 2 7.085.369 9.768" mask="url(#prefix__I)"/>
        </g>
        <g transform="translate(164 126.207)">
            <mask id="prefix__L" fill="#fff">
                <use xlink:href="#prefix__J"/>
            </mask>
            <path fill="url(#prefix__K)" d="M15.466.177c-7.865 0-9.834 1.012-12.332 2.294-.504.26-1.039.532-1.664.812C.707 3.587.334 4.452.637 5.215c.304.763 1.168 1.136 1.932.833.039-.016.078-.032.115-.052h-.009c.681-.297 1.259-.595 1.806-.892 2.236-1.128 3.846-1.952 10.985-1.952 4.821-.266 9.643.507 14.139 2.263.569.213 1.14.423 1.737.629.157.054.321.082.485.082.822.003 1.489-.662 1.491-1.484.001-.636-.403-1.203-1.006-1.41-.576-.199-1.125-.401-1.672-.595C26.389.979 21.868.131 17.315.131c-.616 0-1.232.015-1.849.046" mask="url(#prefix__L)"/>
        </g>
        <g transform="translate(203 144.207)">
            <mask id="prefix__O" fill="#fff">
                <use xlink:href="#prefix__M"/>
            </mask>
            <path fill="url(#prefix__N)" d="M.97.258C.27.689.051 1.606.482 2.304c1.107 1.784 2.053 3.66 2.826 5.612.279.771 1.132 1.171 1.904.891.727-.262 1.132-1.037.931-1.783C5.299 4.838 4.252 2.736 3.016.746 2.735.29 2.247.038 1.748.038c-.266 0-.535.071-.778.22" mask="url(#prefix__O)"/>
        </g>
        <g transform="translate(173 156.207)">
            <mask id="prefix__R" fill="#fff">
                <use xlink:href="#prefix__P"/>
            </mask>
            <path fill="url(#prefix__Q)" d="M6.311.451C2.316 1.409-.144 5.423.814 9.417c2.678 9.309 12.462 17.659 21.431 24.759.262.208.587.322.922.322l-.024-.003c.456.001.886-.207 1.168-.563.51-.645.401-1.581-.243-2.09C15.463 25.029 6.077 17.055 3.644 8.594c-.681-2.37.687-4.841 3.056-5.522 2.369-.682 4.841.686 5.523 3.056 1.621 5.655 9.703 12.637 17.388 18.717.022.02.047.039.071.057.659.489 1.591.351 2.081-.309.489-.659.352-1.59-.308-2.081-4.034-3.2-14.779-11.705-16.361-17.206C14.054 2.226 11.175.244 8.05.244c-.575 0-1.158.067-1.739.207" mask="url(#prefix__R)"/>
        </g>
        <g transform="translate(156 144.207)">
            <mask id="prefix__U" fill="#fff">
                <use xlink:href="#prefix__S"/>
            </mask>
            <path fill="url(#prefix__T)" d="M19.617.776l-.015.004C9.339 3.732 3.412 14.445 6.365 24.708c2.436 8.481-2.8 10.834-4.463 11.354-.618.195-1.04.768-1.041 1.418-.002.82.663 1.487 1.485 1.488.153.001.305-.021.452-.067 4.551-1.423 8.966-6.208 6.431-15.018l-.001-.002C6.733 15.196 11.751 6.134 20.435 3.638c8.586-2.416 17.533 2.451 20.172 10.971.036.114.084.224.146.327.154.256.473.794 10.037 8.555.625.478 1.513.385 2.027-.21.537-.622.468-1.561-.153-2.098-3.475-2.82-8.553-7.014-9.293-7.711C40.702 5.291 33.102.047 24.884.047c-1.741 0-3.511.236-5.267.729" mask="url(#prefix__U)"/>
        </g>
        <g transform="translate(161 149.207)">
            <mask id="prefix__X" fill="#fff">
                <use xlink:href="#prefix__V"/>
            </mask>
            <path fill="url(#prefix__W)" d="M16.253 1.496C9.281 3.65 5.234 10.906 7.064 17.971c3.004 13.677.762 16.843-5.402 18.77-.619.195-1.04.768-1.042 1.417-.001.821.663 1.488 1.485 1.49.145 0 .29-.02.429-.062 8.626-2.69 10.497-8.303 7.436-22.25-1.489-5.531 1.64-11.256 7.101-12.989 5.529-1.579 11.293 1.614 12.887 7.138.58 2.024 2.159 4.811 14.356 14.455l.072.057c.66.489 1.591.352 2.081-.309.489-.659.351-1.591-.309-2.08-11.039-8.74-12.928-11.51-13.341-12.946C31.113 4.795 25.755.98 19.934.981c-1.216 0-2.454.166-3.681.515" mask="url(#prefix__X)"/>
        </g>
        <g transform="translate(179 161.207)">
            <mask id="prefix__aa" fill="#fff">
                <use xlink:href="#prefix__Y"/>
            </mask>
            <path fill="url(#prefix__Z)" d="M1.51.915C.725 1.156.283 1.987.523 2.773c2.344 8.157 11.263 14.921 16.591 18.964 1.081.781 2.124 1.616 3.123 2.502.279.278.658.435 1.053.434.392 0 .768-.157 1.046-.434.583-.58.583-1.521.004-2.103-1.091-.987-2.236-1.912-3.43-2.77C13.876 15.547 5.464 9.156 3.381 1.952l-.014-.05C3.171 1.262 2.582.849 1.945.849c-.144 0-.29.021-.435.066" mask="url(#prefix__aa)"/>
        </g>
        <g transform="translate(176 185.207)">
            <mask id="prefix__ad" fill="#fff">
                <use xlink:href="#prefix__ab"/>
            </mask>
            <path fill="url(#prefix__ac)" d="M.492 10.996c-.052.819.572 1.525 1.392 1.576h.095c.787.002 1.439-.61 1.487-1.394.188-3.068 1.363-7.53 2.975-7.53 2.207 0 3.772 2.124 5.04 3.837.413.591.867 1.154 1.359 1.681.576.556 1.49.556 2.066 0 .591-.57.608-1.512.037-2.102-.385-.424-.741-.874-1.065-1.346C12.371 2.925 9.594 1.043 6.442.675 1.385.675.599 9.273.492 10.996" mask="url(#prefix__ad)"/>
        </g>
        <g transform="translate(167 176.207)">
            <mask id="prefix__ag" fill="#fff">
                <use xlink:href="#prefix__ae"/>
            </mask>
            <path fill="url(#prefix__af)" d="M7.444.767c-.767.295-1.15 1.155-.856 1.921 1.256 3.978-1.231 11.784-4.991 13.006-.617.199-1.033.772-1.032 1.419.001.822.668 1.486 1.49 1.484.155.005.309-.015.458-.059C8.23 16.669 11 6.737 9.421 1.796c-.016-.058-.034-.116-.055-.172-.227-.592-.791-.955-1.389-.955-.177 0-.358.031-.533.098" mask="url(#prefix__ag)"/>
        </g>
        <g transform="translate(155 138.207)">
            <mask id="prefix__aj" fill="#fff">
                <use xlink:href="#prefix__ah"/>
            </mask>
            <path fill="url(#prefix__ai)" d="M.669 25.362c0 .822.666 1.488 1.486 1.488.822 0 1.488-.666 1.488-1.488.013-12.317 9.994-22.297 22.311-22.31 12.069 0 16.295 6.824 19.693 12.306 1.999 3.228 3.724 6.015 6.622 6.955l.03.01c.785.245 1.619-.191 1.865-.974.244-.785-.192-1.619-.976-1.865-1.859-.603-3.32-2.963-5.013-5.69C44.59 8.004 39.679.077 25.954.077 11.996.093.685 11.404.669 25.362" mask="url(#prefix__aj)"/>
        </g>
        <g transform="translate(157 132.207)">
            <mask id="prefix__am" fill="#fff">
                <use xlink:href="#prefix__ak"/>
            </mask>
            <path fill="url(#prefix__al)" d="M.373 9.765c-.02.031-.039.061-.057.093-.4.717-.144 1.624.574 2.023.716.402 1.622.145 2.023-.571 1.294-2.13 7.654-8.207 19.553-8.207 11.436 0 19.574 5.79 21.038 8.207.27.444.752.716 1.273.716.271 0 .537-.074.769-.215.703-.426.927-1.339.501-2.043C44.007 6.404 34.996.126 22.466.126 9.143.126 2 7.085.373 9.765" mask="url(#prefix__am)"/>
        </g>
        <g transform="translate(164 126.207)">
            <mask id="prefix__ap" fill="#fff">
                <use xlink:href="#prefix__an"/>
            </mask>
            <path fill="url(#prefix__ao)" d="M15.466.177c-7.861 0-9.834 1.012-12.315 2.292-.505.258-1.038.532-1.665.814C.732 3.616.392 4.496.725 5.248c.333.752 1.212 1.093 1.965.76.678-.315 1.258-.61 1.805-.892 2.222-1.14 3.832-1.964 10.971-1.964 4.821-.264 9.641.51 14.137 2.268.568.208 1.145.422 1.74.626.156.054.32.081.484.08.657.014 1.243-.406 1.444-1.032.251-.782-.179-1.62-.961-1.87-.577-.187-1.125-.393-1.671-.595C26.392.975 21.88.13 17.333.13c-.621 0-1.244.016-1.867.047" mask="url(#prefix__ap)"/>
        </g>
        <g transform="translate(203 144.207)">
            <mask id="prefix__as" fill="#fff">
                <use xlink:href="#prefix__aq"/>
            </mask>
            <path fill="url(#prefix__ar)" d="M.972.247c-.7.43-.918 1.347-.487 2.045 1.107 1.787 2.053 3.669 2.826 5.624.197.616.769 1.034 1.415 1.035.154 0 .306-.025.452-.071.782-.249 1.214-1.086.965-1.869C5.3 4.826 4.254 2.724 3.019.734 2.738.278 2.25.026 1.751.026c-.266 0-.535.071-.779.221" mask="url(#prefix__as)"/>
        </g>
        <g>
            <path fill="#57575E" d="M154.118 94.61h12.866c2.152 0 3.988-1.24 4.789-3.236.804-1.997.342-4.162-1.208-5.656L155.022 70.79c-.258-.243-.656-.237-.901.018-.242.255-.233.655.018.901l15.544 14.928c1.398 1.342 1.388 3.081.913 4.261-.475 1.18-1.674 2.438-3.612 2.438h-12.866c-.351 0-.637.286-.637.636 0 .352.286.637.637.637M116.568 94.49l26.285.106c.351 0 .637-.285.637-.636 0-.35-.286-.637-.637-.637l-26.27-.106c-.352-.004-.64.278-.645.628-.004.351.28.64.63.644" transform="translate(0 40.207)"/>
            <path fill="#A29C8F" d="M161.772 57.617l-7.23 28.465c-.68 2.68-3.391 4.305-6.071 3.652l9.708-38.224c2.666.706 4.273 3.427 3.593 6.107" transform="translate(0 40.207)"/>
            <path fill="#57575E" d="M147.272 89.432l9.71-38.229 1.147.291c.017.004.033.011.05.015l-9.708 38.225-.05-.01-1.149-.292zM9.838 195.195L9.04 195.195 26.547 133.624 29.232 133.624zM34.295 195.195L33.497 195.195 39.47 133.624 42.155 133.624zM81.241 195.195L82.039 195.195 64.532 133.624 61.847 133.624zM52.8 195.195L53.598 195.195 51.555 133.624 48.87 133.624z" transform="translate(0 40.207)"/>
            <path fill="#A29C8F" d="M38.377 129.99L27.817 108.1c-2.443-5.064-7.57-8.283-13.193-8.283H5.592l8.331 24.353c2.224 6.501 8.335 10.87 15.206 10.87h17.292c-3.429 0-6.554-1.964-8.044-5.052" transform="translate(0 40.207)"/>
            <path fill="#7F786A" d="M64.575 99.427h-3.24c-11.909 0-23.114-5.635-30.214-15.193-2.552-2.82-6.176-4.426-9.978-4.426h-3.457c-6.158 0-13.642.876-15.125 11.094l-.86 8.525H15.136c5.623 0 10.75 3.219 13.193 8.283l10.56 21.889c1.49 3.087 4.616 5.05 8.044 5.05h33.785v-4.017c0-11.74-8.187-31.205-16.143-31.205" transform="translate(0 40.207)"/>
            <path fill="#57575E" d="M80.253 135.845H46.467c-3.876 0-7.472-2.183-9.156-5.56l-10.56-21.17c-2.224-4.456-6.964-7.335-12.08-7.335H1.236c-.683 0-1.236-.537-1.236-1.197s.553-1.195 1.236-1.195h13.435c6.058 0 11.674 3.41 14.305 8.688l10.56 21.17c1.276 2.558 3.998 4.208 6.931 4.208h33.786c.683 0 .683 2.391 0 2.391" transform="translate(0 40.207)"/>
            <path fill="#EABBAB" d="M135.748 161.82l1.479 5.035c1.119 3.822 3.552 14.3 7.104 15.701.69.457-7.193 6.95-7.708 6.548-.117-.092-3.598-11.117-3.655-11.243l-2.633-6.68c-.755-1.923-1.587-3.816-2.495-5.677l-1.703-3.685h9.61z" transform="translate(0 40.207)"/>
            <path fill="#57575E" d="M143.385 181.324s4.15 3.338 4.698 3.896c.5.51 3.784 1.338 6.11 1.923 3.406.858 4.044 2.374 4.334 2.942.158.003.283.139.28.303l-.016.597s-9.78.438-13.732.051c0 0-3.222-2.156-3.428-.055l-7.995.04.058-2.301.4-.06c-.21-1.243-.302-3.587.153-5.708l.388-.108s-.258 1.091 2.635 1.327c2.893.235 4.412-.073 4.67-.577.257-.506.17-.295.17-.295s-.21-1.327 1.275-1.975" transform="translate(0 40.207)"/>
            <path fill="#7F786A" d="M56.694 131.396l1.84-20.136 60.292 7.435c1.865.447 5.074 2.4 6.074 5.978 0 0 16.503 52.296 17.436 55.114l-4.257 1.517-6.239-1.565c-7.121-11.43-12.581-23.338-16.707-35.63-1.161-2.618-1.885-5.389-2.148-8.214l-.449-4.837-55.842.338z" transform="translate(0 40.207)"/>
            <path fill="#EABBAB" d="M100.826 172.57c.194-2.04.305-4.088.333-6.136l.198-5.677h9.657l-1.992 10.692c-.731 3.904-2.812 13.494.57 15.5.374.712 10.179 5.1 9.35 5.803-.826.701-19.95-2.218-20.197-2.804-.056-.134 1.409-10.143 1.415-10.279l.666-7.099z" transform="translate(0 40.207)"/>
            <path fill="#57575E" d="M108.272 184.147s3.78 3.707 4.266 4.313c.445.555 3.625 1.685 5.877 2.484 3.3 1.17 3.776 2.74 4.006 3.33.156.018.266.165.245.328l-.078.593s-9.778-.475-13.67-1.228c0 0-2.979-2.445-3.406-.373l-7.959-.705.3-2.284.404-.023c-.08-1.256.076-3.597.751-5.665l.397-.073s-.37 1.063 2.483 1.566c2.854.504 4.398.34 4.707-.14.31-.479.201-.277.201-.277s-.07-1.339 1.476-1.846" transform="translate(0 40.207)"/>
            <path fill="#A29C8F" d="M43.703 120.317c.575-5.77.837-7.71 3.71-16.333l21.764 1.876-.629 6.197c14.954 1.494 29.637 3.594 43.186 6.942 3.476.858 7.317 5.691 6.696 9.024 0 0-9.271 51.617-9.562 53.687l-4.125 1.714-6-1.586c-.682-14.793.241-31.466 2.081-49.21-10.746.523-27.184 1.095-44.483.15-10.227.001-12.912-9.5-12.638-12.46" transform="translate(0 40.207)"/>
            <path fill="#F7C8B3" d="M59.407 66.385L67.099 69.006 71.978 56.086 65.126 54.132z" transform="translate(0 40.207)"/>
            <path fill="#EF5A29" d="M70.309 60.508c-.606-.344-1.173-.707-1.688-1.094-.405 1.292.16 5.14.16 5.14l1.528-4.046z" transform="translate(0 40.207)"/>
            <path fill="#F7C8B3" d="M79.656 57.986c-.616 1.094-1.09 2.362-2.26 3.715-.724.838-2.363.71-3.79.23-3.147-1.053-5.192-2.418-6.85-4.229-1.15-1.256-2.112-2.728-3.126-4.46-.828-1.415-2.514-6.87.347-12.399 3.387-6.543 15.963-3.413 18.68 3.137.142.34.367 1.843 0 3.815l-.032.162c-.294 1.465-.916 3.172-2.136 4.844-.254.35-.352.787-.166 1.174.367.766 1.119 1.807 1.605 2.33.678.733-2.272 1.681-2.272 1.681" transform="translate(0 40.207)"/>
            <path fill="#57575E" d="M84.68 46.604c1.16-.08 2.459-1.533 2.709-3.209.172-1.15-.802-2.625-2.004-2.796 1.115-2.474-1.482-4.318-3.474-4.037-.366-1.325-1.475-1.903-2.813-2.147-1.34-.245-2.47.186-3.506 1.068-.326-.818-1.282-1.33-2.143-1.15-.204.043-.405.121-.612.103-.396-.033-.673-.387-.97-.653-1.066-.962-2.802-.914-3.89.078-1.026-.986-3.643-.718-4.53.616-.744-.378-3.414.836-3.58 3.041-1.158-.05-2.342.38-3.155 1.207-.813.826-1.226 2.047-1.022 3.19-.595.106-1.057.61-1.282 1.17-.225.562-.437 1.608.16 2.165-1.777.772-2.197 3.63-.928 5.094-1.056 1.101-1.2 2.962-.324 4.211.875 1.25 2.674 1.75 4.069 1.132 1.125 1.088 2.997 1.301 4.338.494.715.474 1.678.397 2.456.016 1.05-.329 2.388-1.056 2.648-1.964-2.282-1.109-2.544-4.32-.463-5.508 1.77-1.01 3.064 1.418 2.937 2.253l1.289-.314s.22-1.057.425-1.246c.687-.632 1.759-.915 2.1-1.278-1.66-1.228 1.306-1.194 1.529-1.522.368-.539 1.02-.797 1.66-.668 2.42.488 5.3-.274 5.798-1.204.27.551 1.05 2.861-.341 5.881 1.065 1.282 2.737-.132 2.116-1.438.905.31 2.127-1.685.804-2.585" transform="translate(0 40.207)"/>
            <path fill="#57575E" d="M81.415 49.01c-.539-.431-1.595-.46-1.918-.437-.325.022-.646.09-.952.19-.307.102-.585.27-.844.444l.026.047c.291-.107.58-.202.882-.228.295-.042.593-.054.888-.022.295.026 1.461.192 1.798.173l.12-.167z" transform="translate(0 40.207)"/>
            <path fill="#E1786E" d="M78.492 58.148l-.38-.139-1.793-.65s-.95 2.075-.022 2.55c.929.474 2.195-1.76 2.195-1.76" transform="translate(0 40.207)"/>
            <path fill="#57575E" d="M79.563 52.386c-.272.493-.76.745-1.09.563-.33-.182-.376-.73-.105-1.221.272-.493.76-.745 1.09-.564.329.182.377.729.105 1.222" transform="translate(0 40.207)"/>
            <path fill="#E6A38C" d="M56.287 64.848c2.203-2.367 7.194.14 10.717 2.4l5.621 3.355 13.438 8.822 29.203 4.45 10.495 2.727 10.681 4.955-1.761-.002-8.759-1.672-5.263-.007-4.243-1.835-31.012-.272c-9.36-3.685-16.578-6.526-27.217-14.373-2.98-2.012-4.047-6.24-1.9-8.548" transform="translate(0 40.207)"/>
            <path fill="#EA6C20" d="M56.287 64.848c2.203-2.367 8.811.072 11.457 2.52l4.881 3.235 13.443 8.623 25.162 3.833-.132 5.744-25.712-.226c-9.361-3.684-16.56-7.334-27.199-15.18-2.98-2.013-4.047-6.24-1.9-8.549" transform="translate(0 40.207)"/>
            <path fill="#EEF2FE" d="M109.403 88.98L113.57 89.05 113.706 83.209 109.549 82.635z" transform="translate(0 40.207)"/>
            <path fill="#FFBF4D" d="M46.536 109.123c1.224.607 5.214.678 6.796 1.302.007 0 .015.007.03.014 5.155 2.03 11.595 3.49 15.366.335.699-5.276 3.695-21.478 4.387-26.321.79-5.535.334-8.333-1.612-12.408-.593-1.24-1.247-2.41-1.924-3.498-3.383-5.391-7.519-8.675-9.427-7.854-3.072 1.324-8.257 4.828-8.706 12.537-1.756 13.899-1.802 19.555-5.109 31.75-.403 1.476-1.17 3.458.199 4.143" transform="translate(0 40.207)"/>
            <path fill="#EA6C20" d="M60.287 60.628L69.483 68.444 71.333 64.561 61.959 57.358zM53.332 110.425c.008 0 .015.007.03.015 5.155 2.03 11.595 3.49 15.366.335.699-5.277 3.695-21.48 4.387-26.322.79-5.535-18.51-16.724-18.82-14.9-.558 3.275 3.402 8.019 5.112 9.6 1.718 1.583 2.935 3.62 4.866 4.927.783.517 1.406 1.58 1.558 2.509.22 1.323-.494 1.522-.464 2.859.04 1.805.989 1.756 1.65 3.946 1.468 4.775-.19 5.695-.418 6.539-.327 1.17.639 2.432.259 3.58-.342 1.027.638 4.904.076 5.436-.563.533-2.937 1.598-3.698 1.743-1.612.304-9.904-.267-9.904-.267" transform="translate(0 40.207)"/>
            <path fill="#F4FAFC" d="M60.287 60.628L69.483 68.444 70.617 63.307 61.959 57.358z" transform="translate(0 40.207)"/>
            <path fill="#EABBAB" d="M55.314 67.162c2.162-2.452 9.56-1.168 12.44 1.172l4.84 3.932 14.428 8.284 30.573 3.293 11.048 2.31 11.36 4.53-1.83.068-9.188-1.325-5.467.2-4.506-1.665-32.23.95c-9.92-3.312-17.57-5.866-29.039-13.285-3.204-1.893-4.537-6.074-2.429-8.464" transform="translate(0 40.207)"/>
            <path fill="#FFBF4D" d="M55.314 67.162c2.162-2.452 9.56-1.168 12.44 1.172l4.84 3.932 14.422 8.084 26.343 2.837.17 5.744-24.484.34c-2.338.034-4.662-.351-6.822-1.124-8.13-2.905-14.373-5.983-24.48-12.521-3.204-1.893-4.537-6.074-2.429-8.464" transform="translate(0 40.207)"/>
            <path fill="#EEF2FE" d="M111.778 89.175L116.111 89.08 115.939 83.241 111.591 82.83z" transform="translate(0 40.207)"/>
            <path fill="#57575E" d="M7.173 21.589H44.84c2.93 0 5.306-2.375 5.306-5.306V5.372c0-2.93-2.376-5.306-5.306-5.306H7.173c-2.931 0-5.306 2.376-5.306 5.306v10.91c0 2.932 2.375 5.307 5.306 5.307" transform="translate(0 40.207)"/>
            <path fill="#FFE2B7" d="M12.39 12.325c.05.355.15.62.297.796.269.32.73.48 1.384.48.39 0 .709-.042.953-.127.463-.161.694-.462.694-.901 0-.257-.113-.455-.34-.596-.227-.137-.586-.258-1.08-.364l-.841-.184c-.826-.183-1.395-.382-1.704-.596-.524-.359-.786-.92-.786-1.683 0-.696.256-1.274.769-1.734.512-.461 1.265-.692 2.258-.692.829 0 1.536.217 2.122.652.585.434.892 1.064.92 1.89h-1.56c-.03-.467-.238-.799-.627-.997-.26-.13-.582-.194-.968-.194-.43 0-.771.084-1.027.253-.256.169-.384.404-.384.706 0 .278.126.485.379.623.162.091.506.198 1.032.321l1.364.322c.598.14 1.046.329 1.345.564.463.366.695.895.695 1.588 0 .71-.275 1.3-.824 1.769-.55.469-1.324.704-2.327.704-1.023 0-1.828-.232-2.414-.694-.586-.462-.88-1.097-.88-1.906h1.55zM18.629 14.724L18.629 6.951 20.243 6.951 20.243 9.914 23.264 9.914 23.264 6.951 24.878 6.951 24.878 14.724 23.264 14.724 23.264 11.254 20.243 11.254 20.243 14.724zM31.625 12.852c.378-.475.567-1.149.567-2.025 0-.87-.189-1.546-.567-2.023-.378-.475-.889-.714-1.532-.714s-1.156.238-1.54.712c-.383.475-.574 1.15-.574 2.025 0 .876.191 1.55.574 2.025.384.475.897.712 1.54.712s1.154-.237 1.532-.712m1.015 1.182c-.587.604-1.436.906-2.547.906-1.11 0-1.96-.302-2.547-.906-.787-.743-1.18-1.81-1.18-3.207 0-1.424.393-2.493 1.18-3.206.587-.605 1.436-.908 2.547-.908 1.111 0 1.96.303 2.547.908.784.713 1.176 1.782 1.176 3.206 0 1.396-.392 2.464-1.176 3.207M39.25 8.56c-.206-.173-.494-.259-.865-.259h-1.463v2.288h1.463c.371 0 .66-.093.865-.279.206-.187.308-.48.308-.886 0-.404-.102-.692-.308-.865m1.24 2.801c-.455.38-1.105.57-1.95.57h-1.618v2.794h-1.614V6.951h3.338c.77 0 1.382.201 1.84.601.457.401.686 1.022.686 1.861 0 .918-.228 1.567-.682 1.947" transform="translate(0 40.207)"/>
        </g>
    </g>
</svg>
