<svg xmlns="http://www.w3.org/2000/svg" xmlns:xlink="http://www.w3.org/1999/xlink" width="409" height="244" viewBox="0 0 409 244">
    <defs>
        <path id="prefix__a" d="M.186 3.522s94.011 75.482 95.86 72.847c3.542-5.045 5.095-11.5 4.6-17.544-.754-9.199-5.445-17.591-10.775-25.203-5.525-7.889-11.899-15.322-19.692-21.234C62.387 6.477 53.193 1.341 43.116.864c-3.153-.15-6.15-.215-8.988-.215C17.349.649 6.083 2.926.186 3.522"/>
        <path id="prefix__c" d="M.875 4.228c0 1.835 1.488 3.323 3.323 3.323 1.836 0 3.324-1.488 3.324-3.323S6.034.904 4.198.904C2.363.904.875 2.393.875 4.228"/>
        <path id="prefix__f" d="M.816 2.923c0 1.285 1.041 2.326 2.325 2.326 1.285 0 2.327-1.041 2.327-2.326 0-1.285-1.042-2.326-2.327-2.326C1.857.597.816 1.638.816 2.923"/>
        <path id="prefix__i" d="M7.022.524C2.326 2.106-.387 7.012.77 11.832 4.217 23.816 16.825 34.57 28.372 43.708c.829.657 2.034.518 2.691-.311.656-.829.517-2.034-.312-2.691C19.667 31.935 7.583 21.667 4.45 10.775c-.876-3.052.887-6.236 3.938-7.112 3.051-.877 6.235.885 7.112 3.936 2.091 7.278 12.49 16.27 22.382 24.099.83.657 2.034.517 2.691-.313.657-.829.517-2.033-.313-2.69-5.223-4.125-19.057-15.071-21.106-22.156C17.807 2.542 14.078.02 10.082.02c-1.015 0-2.046.162-3.06.504"/>
        <path id="prefix__l" d="M25.091 1.256C11.876 5.048 4.236 18.835 8.028 32.051l.008.028c3.145 10.923-3.596 13.953-5.744 14.62-1.009.316-1.57 1.392-1.253 2.401.318 1.009 1.392 1.569 2.401 1.252 5.856-1.831 11.543-7.99 8.276-19.334-3.22-11.179 3.231-22.852 14.41-26.073l.018-.005c11.053-3.106 22.57 3.158 25.967 14.125.045.149.11.292.192.425.199.33.609 1.023 12.918 11.011.82.667 2.027.543 2.694-.278.668-.821.544-2.027-.277-2.694-4.473-3.631-11.012-9.027-11.968-9.927C52.234 7.07 42.449.319 31.87.318c-2.242 0-4.518.303-6.779.938"/>
        <path id="prefix__o" d="M20.201 1.62C11.223 4.393 6.012 13.735 8.37 22.831c3.869 17.617.977 21.685-6.958 24.167-1.009.317-1.57 1.393-1.253 2.402.318 1.009 1.392 1.568 2.401 1.252 11.088-3.447 13.497-10.693 9.575-28.645-1.905-7.117 2.123-14.475 9.146-16.706 7.116-2.02 14.528 2.088 16.588 9.192.766 2.612 2.8 6.197 18.483 18.61.829.656 2.034.517 2.69-.312.657-.83.518-2.034-.311-2.691-14.236-11.26-16.672-14.825-17.208-16.679C39.336 5.869 32.438.954 24.947.953c-1.569 0-3.163.216-4.746.667"/>
        <path id="prefix__r" d="M1.405.386C.419.688-.152 1.717.116 2.714c3.018 10.501 14.5 19.211 21.36 24.416 1.393 1.004 2.736 2.078 4.021 3.217.76.735 1.973.714 2.707-.047.717-.741.717-1.919 0-2.661-1.402-1.269-2.875-2.458-4.412-3.562-6.48-4.917-17.326-13.144-19.996-22.42C3.545.832 2.785.302 1.966.301c-.186 0-.374.028-.561.085"/>
        <path id="prefix__u" d="M.217 14.196c-.065 1.056.736 1.964 1.792 2.031h.123c1.013.001 1.852-.786 1.915-1.797.241-3.946 1.75-9.69 3.83-9.69 2.838 0 4.852 2.735 6.468 4.929.535.761 1.119 1.486 1.751 2.168.76.735 1.973.714 2.708-.047.716-.742.716-1.918 0-2.661-.496-.546-.955-1.125-1.375-1.731C15.493 3.807 11.928 1.385 7.877.91 1.366.91.359 11.979.217 14.196"/>
        <path id="prefix__x" d="M9.677.604C8.742.943 8.22 1.941 8.48 2.902c1.638 5.12-1.583 15.171-6.427 16.745-1.01.316-1.572 1.389-1.256 2.399.316 1.009 1.391 1.571 2.4 1.256l.039-.013c7.368-2.375 10.923-15.174 8.893-21.536-.282-.78-1.018-1.264-1.801-1.264-.217 0-.436.037-.651.115"/>
        <path id="prefix__A" d="M.407 33.186c0 1.057.858 1.914 1.915 1.914 1.058 0 1.916-.857 1.916-1.914.017-15.858 12.867-28.708 28.724-28.725 15.538 0 20.981 8.785 25.355 15.848 2.573 4.155 4.794 7.744 8.525 8.954 1.002.338 2.088-.201 2.426-1.203.337-1.002-.201-2.089-1.203-2.426l-.04-.013-.004-.004c-2.393-.766-4.274-3.83-6.453-7.326C56.957 10.837 50.633.631 32.962.631 14.991.652.428 15.215.407 33.186"/>
        <path id="prefix__D" d="M.407 2.845c.308 2.31 1.025 4.546 2.118 6.603.325.648.988 1.057 1.713 1.057 1.057 0 1.915-.858 1.914-1.915 0-.297-.069-.592-.203-.857C5.132 6.2 4.554 4.552 4.238 2.845c0-1.058-.858-1.914-1.916-1.914-1.057 0-1.915.856-1.915 1.914"/>
        <path id="prefix__G" d="M.598 13.384c-.547.903-.259 2.078.643 2.627.904.551 2.082.265 2.633-.638l.002-.005c1.663-2.743 9.851-10.567 25.171-10.567 14.722 0 25.197 7.457 27.085 10.567.549.904 1.727 1.192 2.632.643.903-.549 1.191-1.727.643-2.631C56.779 9.052 45.178.97 29.047.97 11.893.97 2.697 9.929.598 13.384"/>
        <path id="prefix__J" d="M20.047.311C9.921.311 7.386 1.614 4.168 3.263c-.647.334-1.336.686-2.141 1.047C1.044 4.701.564 5.814.955 6.797c.391.982 1.504 1.462 2.487 1.072.05-.02.1-.043.147-.067h-.01c.876-.383 1.62-.766 2.324-1.148 2.88-1.452 4.952-2.513 14.144-2.513 6.206-.342 12.414.651 18.203 2.915.732.272 1.467.544 2.238.808.2.069.411.105.623.106 1.058.003 1.917-.853 1.919-1.911.001-.819-.519-1.549-1.294-1.815-.744-.256-1.448-.517-2.153-.766C34.11 1.343 28.291.251 22.429.251c-.794 0-1.588.02-2.382.06"/>
        <path id="prefix__M" d="M1.594.59C.693 1.143.412 2.323.966 3.224c1.426 2.295 2.644 4.712 3.638 7.223.36.995 1.458 1.51 2.453 1.15.936-.34 1.456-1.338 1.198-2.298C7.167 6.486 5.82 3.779 4.23 1.218 3.867.629 3.239.305 2.596.305c-.342 0-.689.092-1.002.285"/>
        <path id="prefix__P" d="M7.846.287C2.703 1.521-.465 6.69.77 11.832c3.447 11.984 16.044 22.735 27.591 31.876.338.268.757.414 1.188.414l-.031-.004c.586.001 1.14-.267 1.503-.726.657-.829.517-2.034-.312-2.69-11.08-8.77-23.163-19.039-26.296-29.931-.877-3.049.884-6.234 3.934-7.11 3.05-.878 6.234.885 7.111 3.935 2.087 7.281 12.493 16.27 22.386 24.098.03.025.061.049.093.073.848.63 2.048.453 2.678-.397.63-.849.453-2.048-.397-2.678C35.025 24.57 21.191 13.62 19.154 6.539 17.817 2.572 14.11.021 10.086.021c-.74 0-1.491.086-2.24.266"/>
        <path id="prefix__S" d="M25.091 1.256c-.006.002-.013.003-.019.006-13.213 3.8-20.843 17.592-17.044 30.806 3.138 10.919-3.603 13.948-5.744 14.619-.797.25-1.34.988-1.341 1.823-.002 1.058.854 1.916 1.911 1.919.198.001.394-.029.582-.088 5.86-1.832 11.544-7.993 8.28-19.334v-.004C8.503 19.822 14.963 8.153 26.144 4.94c11.055-3.109 22.574 3.156 25.972 14.125.045.148.108.289.187.422.199.329.609 1.022 12.922 11.014.806.614 1.949.495 2.611-.271.691-.8.602-2.009-.198-2.701-4.473-3.63-11.011-9.03-11.965-9.927C52.238 7.068 42.453.317 31.873.317c-2.242.001-4.521.304-6.782.939"/>
        <path id="prefix__V" d="M20.197 1.62C11.221 4.394 6.01 13.735 8.367 22.831c3.868 17.61.98 21.685-6.955 24.167-.797.251-1.34.989-1.341 1.823-.002 1.057.854 1.917 1.911 1.919.187.001.373-.026.552-.08 11.106-3.463 13.515-10.69 9.574-28.645C10.191 14.892 14.22 7.522 21.25 5.29c7.119-2.032 14.54 2.079 16.592 9.191.747 2.605 2.781 6.193 18.483 18.611l.093.073c.849.63 2.048.452 2.678-.397.631-.85.453-2.049-.396-2.679-14.212-11.252-16.645-14.818-17.177-16.668C39.329 5.868 32.43.956 24.936.956c-1.566 0-3.159.215-4.739.664"/>
        <path id="prefix__Y" d="M1.391.322C.379.632-.19 1.703.12 2.714c3.017 10.501 14.5 19.211 21.359 24.416 1.395 1.006 2.736 2.08 4.022 3.22.36.36.847.561 1.356.56.505-.002.99-.202 1.347-.559.749-.747.751-1.96.005-2.709-1.404-1.27-2.879-2.46-4.417-3.565-6.48-4.917-17.311-13.144-19.991-22.42l-.019-.064C3.529.768 2.771.238 1.951.238c-.185 0-.374.027-.56.084"/>
        <path id="prefix__ab" d="M.217 14.2c-.065 1.055.736 1.964 1.792 2.03h.123c1.013.002 1.852-.786 1.915-1.796.241-3.95 1.754-9.694 3.829-9.694 2.842 0 4.858 2.735 6.488 4.941.533.76 1.118 1.484 1.751 2.163.742.718 1.919.718 2.66 0 .762-.734.782-1.946.048-2.708-.496-.545-.954-1.123-1.372-1.73-1.94-3.597-5.515-6.021-9.574-6.492C1.366.914.355 11.982.217 14.2"/>
        <path id="prefix__ae" d="M9.581.443c-.987.379-1.48 1.486-1.102 2.474 1.616 5.121-1.586 15.171-6.426 16.745-.794.255-1.331.994-1.33 1.827.002 1.057.862 1.913 1.919 1.911.2.005.399-.021.59-.077 7.361-2.405 10.927-15.193 8.893-21.555-.018-.075-.042-.149-.07-.221-.292-.762-1.019-1.231-1.79-1.231-.227 0-.459.041-.684.127"/>
        <path id="prefix__ah" d="M.407 33.186c0 1.057.858 1.914 1.915 1.914 1.058 0 1.916-.857 1.916-1.914.016-15.858 12.867-28.708 28.724-28.725 15.538 0 20.981 8.786 25.354 15.845 2.574 4.155 4.795 7.744 8.526 8.954l.039.013c1.009.316 2.084-.247 2.4-1.256.315-1.01-.247-2.083-1.256-2.399-2.394-.778-4.274-3.815-6.454-7.327C56.957 10.837 50.633.631 32.962.631 14.991.652.429 15.215.407 33.186"/>
        <path id="prefix__ak" d="M.602 13.38c-.025.039-.05.079-.073.119-.515.923-.185 2.09.737 2.606.924.516 2.09.186 2.607-.737 1.666-2.743 9.854-10.567 25.174-10.567 14.722 0 25.201 7.457 27.085 10.567.348.573.97.923 1.64.922.348 0 .69-.095.989-.276.905-.548 1.194-1.726.646-2.63C56.779 9.052 45.179.97 29.047.97 11.893.97 2.697 9.929.602 13.38"/>
        <path id="prefix__an" d="M20.047.311C9.924.311 7.386 1.614 4.191 3.261c-.651.333-1.337.685-2.144 1.049-.97.428-1.408 1.561-.979 2.529.428.969 1.561 1.407 2.53.979.872-.407 1.619-.785 2.324-1.149 2.861-1.467 4.933-2.528 14.125-2.528 6.205-.34 12.412.655 18.2 2.918.731.269 1.475.544 2.241.809.2.068.411.103.623.102.845.016 1.601-.523 1.86-1.328.323-1.008-.232-2.085-1.239-2.409-.742-.242-1.447-.505-2.153-.766C34.114 1.338 28.306.25 22.454.25c-.802 0-1.605.02-2.407.061"/>
        <path id="prefix__aq" d="M1.598.574C.697 1.128.415 2.308.97 3.209c1.425 2.3 2.643 4.722 3.639 7.238.252.794.99 1.332 1.822 1.333.197 0 .393-.03.581-.091 1.008-.32 1.564-1.398 1.243-2.406C7.169 6.47 5.823 3.765 4.233 1.202 3.872.614 3.243.29 2.6.29c-.342 0-.689.092-1.002.284"/>
        <path id="prefix__at" d="M0.889 0.335L17.994 0.335 17.994 19.622 0.889 19.622z"/>
        <path id="prefix__av" d="M16.491.317L1.878.437C1.217.443.683.993.686 1.667l.081 20.817c.003.673.541 1.215 1.201 1.209l14.613-.12c.661-.006 1.194-.557 1.192-1.23l-.081-20.816c-.002-.67-.535-1.21-1.191-1.21h-.01"/>
        <linearGradient id="prefix__d" x1="99.994%" x2="-.001%" y1="50.009%" y2="50.009%">
            <stop offset="0%" stop-color="#FFB218"/>
            <stop offset="100%" stop-color="#FFCF44"/>
        </linearGradient>
        <linearGradient id="prefix__g" x1="100%" x2="-.015%" y1="50.001%" y2="50.001%">
            <stop offset="0%" stop-color="#FFB218"/>
            <stop offset="100%" stop-color="#FFCF44"/>
        </linearGradient>
        <linearGradient id="prefix__j" x1="0%" x2="99.999%" y1="50%" y2="50%">
            <stop offset="0%" stop-color="#FFB218"/>
            <stop offset="100%" stop-color="#FFCF44"/>
        </linearGradient>
        <linearGradient id="prefix__m" x1="0%" x2="100%" y1="50%" y2="50%">
            <stop offset="0%" stop-color="#FFB218"/>
            <stop offset="100%" stop-color="#FFCF44"/>
        </linearGradient>
        <linearGradient id="prefix__p" x1="0%" x2="100%" y1="50.001%" y2="50.001%">
            <stop offset="0%" stop-color="#FFB218"/>
            <stop offset="100%" stop-color="#FFCF44"/>
        </linearGradient>
        <linearGradient id="prefix__s" x1="0%" x2="100.002%" y1="50.001%" y2="50.001%">
            <stop offset="0%" stop-color="#FFB218"/>
            <stop offset="100%" stop-color="#FFCF44"/>
        </linearGradient>
        <linearGradient id="prefix__v" x1="0%" x2="100.002%" y1="49.997%" y2="49.997%">
            <stop offset="0%" stop-color="#FFB218"/>
            <stop offset="100%" stop-color="#FFCF44"/>
        </linearGradient>
        <linearGradient id="prefix__y" x1="0%" x2="100%" y1="50.001%" y2="50.001%">
            <stop offset="0%" stop-color="#FFB218"/>
            <stop offset="100%" stop-color="#FFCF44"/>
        </linearGradient>
        <linearGradient id="prefix__B" x1=".001%" x2="100%" y1="50%" y2="50%">
            <stop offset="0%" stop-color="#FFB218"/>
            <stop offset="100%" stop-color="#FFCF44"/>
        </linearGradient>
        <linearGradient id="prefix__E" x1=".003%" x2="100.002%" y1="49.997%" y2="49.997%">
            <stop offset="0%" stop-color="#FFB218"/>
            <stop offset="100%" stop-color="#FFCF44"/>
        </linearGradient>
        <linearGradient id="prefix__H" x1=".001%" x2="100.001%" y1="50.002%" y2="50.002%">
            <stop offset="0%" stop-color="#FFB218"/>
            <stop offset="100%" stop-color="#FFCF44"/>
        </linearGradient>
        <linearGradient id="prefix__K" x1="0%" x2="100%" y1="49.999%" y2="49.999%">
            <stop offset="0%" stop-color="#FFB218"/>
            <stop offset="100%" stop-color="#FFCF44"/>
        </linearGradient>
        <linearGradient id="prefix__N" x1="0%" x2="99.993%" y1="49.999%" y2="49.999%">
            <stop offset="0%" stop-color="#FFB218"/>
            <stop offset="100%" stop-color="#FFCF44"/>
        </linearGradient>
        <linearGradient id="prefix__Q" x1=".001%" x2="100.001%" y1="50%" y2="50%">
            <stop offset="0%" stop-color="#FFB218"/>
            <stop offset="100%" stop-color="#FFCF44"/>
        </linearGradient>
        <linearGradient id="prefix__T" x1="0%" x2="100%" y1="50%" y2="50%">
            <stop offset="0%" stop-color="#FFB218"/>
            <stop offset="100%" stop-color="#FFCF44"/>
        </linearGradient>
        <linearGradient id="prefix__W" x1="0%" x2="100%" y1="50%" y2="50%">
            <stop offset="0%" stop-color="#FFB218"/>
            <stop offset="100%" stop-color="#FFCF44"/>
        </linearGradient>
        <linearGradient id="prefix__Z" x1="0%" x2="100.001%" y1="50%" y2="50%">
            <stop offset="0%" stop-color="#FFB218"/>
            <stop offset="100%" stop-color="#FFCF44"/>
        </linearGradient>
        <linearGradient id="prefix__ac" x1="-.001%" x2="100%" y1="49.998%" y2="49.998%">
            <stop offset="0%" stop-color="#FFB218"/>
            <stop offset="100%" stop-color="#FFCF44"/>
        </linearGradient>
        <linearGradient id="prefix__af" x1=".004%" x2="99.999%" y1="50.001%" y2="50.001%">
            <stop offset="0%" stop-color="#FFB218"/>
            <stop offset="100%" stop-color="#FFCF44"/>
        </linearGradient>
        <linearGradient id="prefix__ai" x1=".001%" x2="100%" y1="50%" y2="50%">
            <stop offset="0%" stop-color="#FFB218"/>
            <stop offset="100%" stop-color="#FFCF44"/>
        </linearGradient>
        <linearGradient id="prefix__al" x1="0%" x2="100%" y1="50.003%" y2="50.003%">
            <stop offset="0%" stop-color="#FFB218"/>
            <stop offset="100%" stop-color="#FFCF44"/>
        </linearGradient>
        <linearGradient id="prefix__ao" x1="0%" x2="99.999%" y1="49.998%" y2="49.998%">
            <stop offset="0%" stop-color="#FFB218"/>
            <stop offset="100%" stop-color="#FFCF44"/>
        </linearGradient>
        <linearGradient id="prefix__ar" x1=".002%" x2="99.995%" y1="50.002%" y2="50.002%">
            <stop offset="0%" stop-color="#FFB218"/>
            <stop offset="100%" stop-color="#FFCF44"/>
        </linearGradient>
        <linearGradient id="prefix__aw" x1=".001%" x2="99.999%" y1="50%" y2="50%">
            <stop offset="0%" stop-color="#FFB218"/>
            <stop offset="100%" stop-color="#FFCF44"/>
        </linearGradient>
    </defs>
    <g fill="none" fill-rule="evenodd">
        <g>
            <path fill="#619440" d="M90.675 172.651c-33.969 3.28-66.387-74.916-78.809-106.332C3.697 45.66 2.21 23.107.81.972 36.3 12.897 79.185 40.332 96.273 73.28c2.838 5.472 4.822 14.147 5.964 20.19 2.39 12.652 3.723 53.728 2.57 66.558-.363 4.017 1.098 11.153-14.132 12.624" transform="translate(204 4.665)"/>
            <path fill="#306B34" d="M5.018 6.61c.714-.62 1.801-.549 2.427.156 7.8 8.783 15.102 17.58 21.995 26.503 1.761-4.87 2.486-8.892 2.584-14.038.018-.623.536-1.123 1.17-1.11.632.011 1.136.527 1.126 1.154-.07 3.595-.446 6.734-1.245 9.953-.493 1.987-1.148 4.005-1.99 6.18C36.49 42.49 41.64 49.66 46.57 56.975c.283-2.798.761-5.562 1.23-8.27.526-3.032.93-5.16 1.334-7.283.405-2.137.811-4.267 1.338-7.319.105-.62.701-1.03 1.325-.926.624.105 1.045.691.938 1.307-.53 3.067-.939 5.21-1.345 7.356-.402 2.114-.805 4.23-1.328 7.25-.624 3.596-1.264 7.295-1.419 10.984 5.993 9.055 11.663 18.346 17.084 27.981l5.324-17.437c.838-2.746 1.71-5.59 1.798-8.465.028-.615.55-1.116 1.181-1.098.635.02 1.133.541 1.114 1.166-.054 1.761-.358 3.462-.77 5.123-.332 1.334-.732 2.641-1.128 3.93l-5.973 19.56c6.52 11.772 12.686 24.063 18.617 37.08.165.358.191.744.103 1.1-.122.491-.462.923-.965 1.146-.868.385-1.885.003-2.275-.854-2.695-5.915-5.442-11.672-8.246-17.305h-.005c-6.146-.809-10.9-1.645-15.5-2.454-4.576-.804-9.306-1.636-15.403-2.438-.628-.083-1.07-.652-.985-1.273.082-.609.658-1.056 1.288-.973 6.146.81 10.9 1.645 15.501 2.454 4.183.735 8.51 1.494 13.877 2.231-3.61-7.162-7.32-14.12-11.159-20.9-7.397-1.564-13.807-2.956-20.213-4.347-6.604-1.434-13.209-2.867-20.9-4.49-.619-.132-1.014-.733-.883-1.345.218-.607.742-1.003 1.363-.872 7.696 1.625 14.305 3.06 20.913 4.495 5.822 1.264 11.645 2.528 18.212 3.921-4.459-7.758-9.092-15.298-13.935-22.676-.027-.026-.048-.056-.073-.084-.223.077-.47.091-.714.018-12.527-3.762-21.983-5.78-34.887-7.446-.628-.08-1.07-.65-.988-1.27.095-.635.661-1.057 1.287-.976 12.452 1.607 21.73 3.542 33.567 7.024-4.46-6.685-9.097-13.246-13.945-19.724-9.004-3.873-14.02-4.574-23.399-4.58-.635-.002-1.148-.51-1.147-1.136-.002-.625.513-1.13 1.146-1.132 8.841.008 14.003.762 20.725 3.31-7.295-9.555-15.058-18.95-23.39-28.332-.63-.704-.558-1.777.16-2.397" transform="translate(204 4.665)"/>
            <path fill="#FFDE8E" d="M29.186 147.522c4.41 30.118 29.761 66.359 59.058 78.268 9.357 3.803 20.646 6.009 29.636 1.071 8.528-4.684 12.52-14.837 11.766-24.036-.754-9.199-5.445-17.591-10.775-25.203-5.525-7.889-11.899-15.322-19.692-21.234-7.792-5.911-16.987-11.047-27.062-11.524-21.803-1.034-36.037 1.961-42.93 2.658" transform="translate(204 4.665)"/>
        </g>
        <g transform="translate(233 148.665)">
            <mask id="prefix__b" fill="#fff">
                <use xlink:href="#prefix__a"/>
            </mask>
            <path fill="#FFBF4D" d="M.186 3.522s94.011 75.482 95.86 72.847c3.542-5.045 5.095-11.5 4.6-17.544-.754-9.199-5.445-17.591-10.775-25.203-5.525-7.889-11.899-15.322-19.692-21.234C62.387 6.477 53.193 1.341 43.116.864c-3.153-.15-6.15-.215-8.988-.215C17.349.649 6.083 2.926.186 3.522" mask="url(#prefix__b)"/>
        </g>
        <path fill="#306B34" d="M370.783 201.398c0 2.78 2.254 5.036 5.035 5.036s5.036-2.255 5.036-5.036c0-2.781-2.255-5.035-5.036-5.035-2.781 0-5.035 2.254-5.035 5.035"/>
        <g transform="translate(383 190.665)">
            <mask id="prefix__e" fill="#fff">
                <use xlink:href="#prefix__c"/>
            </mask>
            <path fill="url(#prefix__d)" d="M.875 4.228c0 1.835 1.488 3.323 3.323 3.323 1.836 0 3.324-1.488 3.324-3.323S6.034.904 4.198.904C2.363.904.875 2.393.875 4.228" mask="url(#prefix__e)"/>
        </g>
        <g transform="translate(376 185.665)">
            <mask id="prefix__h" fill="#fff">
                <use xlink:href="#prefix__f"/>
            </mask>
            <path fill="url(#prefix__g)" d="M.816 2.923c0 1.285 1.041 2.326 2.325 2.326 1.285 0 2.327-1.041 2.327-2.326 0-1.285-1.042-2.326-2.327-2.326C1.857.597.816 1.638.816 2.923" mask="url(#prefix__h)"/>
        </g>
        <g transform="translate(172 148.665)">
            <mask id="prefix__k" fill="#fff">
                <use xlink:href="#prefix__i"/>
            </mask>
            <path fill="url(#prefix__j)" d="M7.022.524C2.326 2.106-.387 7.012.77 11.832 4.217 23.816 16.825 34.57 28.372 43.708c.829.657 2.034.518 2.691-.311.656-.829.517-2.034-.312-2.691C19.667 31.935 7.583 21.667 4.45 10.775c-.876-3.052.887-6.236 3.938-7.112 3.051-.877 6.235.885 7.112 3.936 2.091 7.278 12.49 16.27 22.382 24.099.83.657 2.034.517 2.691-.313.657-.829.517-2.033-.313-2.69-5.223-4.125-19.057-15.071-21.106-22.156C17.807 2.542 14.078.02 10.082.02c-1.015 0-2.046.162-3.06.504" mask="url(#prefix__k)"/>
        </g>
        <g transform="translate(150 132.665)">
            <mask id="prefix__n" fill="#fff">
                <use xlink:href="#prefix__l"/>
            </mask>
            <path fill="url(#prefix__m)" d="M25.091 1.256C11.876 5.048 4.236 18.835 8.028 32.051l.008.028c3.145 10.923-3.596 13.953-5.744 14.62-1.009.316-1.57 1.392-1.253 2.401.318 1.009 1.392 1.569 2.401 1.252 5.856-1.831 11.543-7.99 8.276-19.334-3.22-11.179 3.231-22.852 14.41-26.073l.018-.005c11.053-3.106 22.57 3.158 25.967 14.125.045.149.11.292.192.425.199.33.609 1.023 12.918 11.011.82.667 2.027.543 2.694-.278.668-.821.544-2.027-.277-2.694-4.473-3.631-11.012-9.027-11.968-9.927C52.234 7.07 42.449.319 31.87.318c-2.242 0-4.518.303-6.779.938" mask="url(#prefix__n)"/>
        </g>
        <g transform="translate(157 139.665)">
            <mask id="prefix__q" fill="#fff">
                <use xlink:href="#prefix__o"/>
            </mask>
            <path fill="url(#prefix__p)" d="M20.201 1.62C11.223 4.393 6.012 13.735 8.37 22.831c3.869 17.617.977 21.685-6.958 24.167-1.009.317-1.57 1.393-1.253 2.402.318 1.009 1.392 1.568 2.401 1.252 11.088-3.447 13.497-10.693 9.575-28.645-1.905-7.117 2.123-14.475 9.146-16.706 7.116-2.02 14.528 2.088 16.588 9.192.766 2.612 2.8 6.197 18.483 18.61.829.656 2.034.517 2.69-.312.657-.83.518-2.034-.311-2.691-14.236-11.26-16.672-14.825-17.208-16.679C39.336 5.869 32.438.954 24.947.953c-1.569 0-3.163.216-4.746.667" mask="url(#prefix__q)"/>
        </g>
        <g transform="translate(180 155.665)">
            <mask id="prefix__t" fill="#fff">
                <use xlink:href="#prefix__r"/>
            </mask>
            <path fill="url(#prefix__s)" d="M1.405.386C.419.688-.152 1.717.116 2.714c3.018 10.501 14.5 19.211 21.36 24.416 1.393 1.004 2.736 2.078 4.021 3.217.76.735 1.973.714 2.707-.047.717-.741.717-1.919 0-2.661-1.402-1.269-2.875-2.458-4.412-3.562-6.48-4.917-17.326-13.144-19.996-22.42C3.545.832 2.785.302 1.966.301c-.186 0-.374.028-.561.085" mask="url(#prefix__t)"/>
        </g>
        <g transform="translate(176 185.665)">
            <mask id="prefix__w" fill="#fff">
                <use xlink:href="#prefix__u"/>
            </mask>
            <path fill="url(#prefix__v)" d="M.217 14.196c-.065 1.056.736 1.964 1.792 2.031h.123c1.013.001 1.852-.786 1.915-1.797.241-3.946 1.75-9.69 3.83-9.69 2.838 0 4.852 2.735 6.468 4.929.535.761 1.119 1.486 1.751 2.168.76.735 1.973.714 2.708-.047.716-.742.716-1.918 0-2.661-.496-.546-.955-1.125-1.375-1.731C15.493 3.807 11.928 1.385 7.877.91 1.366.91.359 11.979.217 14.196" mask="url(#prefix__w)"/>
        </g>
        <g transform="translate(164 174.665)">
            <mask id="prefix__z" fill="#fff">
                <use xlink:href="#prefix__x"/>
            </mask>
            <path fill="url(#prefix__y)" d="M9.677.604C8.742.943 8.22 1.941 8.48 2.902c1.638 5.12-1.583 15.171-6.427 16.745-1.01.316-1.572 1.389-1.256 2.399.316 1.009 1.391 1.571 2.4 1.256l.039-.013c7.368-2.375 10.923-15.174 8.893-21.536-.282-.78-1.018-1.264-1.801-1.264-.217 0-.436.037-.651.115" mask="url(#prefix__z)"/>
        </g>
        <g transform="translate(149 124.665)">
            <mask id="prefix__C" fill="#fff">
                <use xlink:href="#prefix__A"/>
            </mask>
            <path fill="url(#prefix__B)" d="M.407 33.186c0 1.057.858 1.914 1.915 1.914 1.058 0 1.916-.857 1.916-1.914.017-15.858 12.867-28.708 28.724-28.725 15.538 0 20.981 8.785 25.355 15.848 2.573 4.155 4.794 7.744 8.525 8.954 1.002.338 2.088-.201 2.426-1.203.337-1.002-.201-2.089-1.203-2.426l-.04-.013-.004-.004c-2.393-.766-4.274-3.83-6.453-7.326C56.957 10.837 50.633.631 32.962.631 14.991.652.428 15.215.407 33.186" mask="url(#prefix__C)"/>
        </g>
        <g transform="translate(149 162.665)">
            <mask id="prefix__F" fill="#fff">
                <use xlink:href="#prefix__D"/>
            </mask>
            <path fill="url(#prefix__E)" d="M.407 2.845c.308 2.31 1.025 4.546 2.118 6.603.325.648.988 1.057 1.713 1.057 1.057 0 1.915-.858 1.914-1.915 0-.297-.069-.592-.203-.857C5.132 6.2 4.554 4.552 4.238 2.845c0-1.058-.858-1.914-1.916-1.914-1.057 0-1.915.856-1.915 1.914" mask="url(#prefix__F)"/>
        </g>
        <g transform="translate(151 116.665)">
            <mask id="prefix__I" fill="#fff">
                <use xlink:href="#prefix__G"/>
            </mask>
            <path fill="url(#prefix__H)" d="M.598 13.384c-.547.903-.259 2.078.643 2.627.904.551 2.082.265 2.633-.638l.002-.005c1.663-2.743 9.851-10.567 25.171-10.567 14.722 0 25.197 7.457 27.085 10.567.549.904 1.727 1.192 2.632.643.903-.549 1.191-1.727.643-2.631C56.779 9.052 45.178.97 29.047.97 11.893.97 2.697 9.929.598 13.384" mask="url(#prefix__I)"/>
        </g>
        <g transform="translate(160 109.665)">
            <mask id="prefix__L" fill="#fff">
                <use xlink:href="#prefix__J"/>
            </mask>
            <path fill="url(#prefix__K)" d="M20.047.311C9.921.311 7.386 1.614 4.168 3.263c-.647.334-1.336.686-2.141 1.047C1.044 4.701.564 5.814.955 6.797c.391.982 1.504 1.462 2.487 1.072.05-.02.1-.043.147-.067h-.01c.876-.383 1.62-.766 2.324-1.148 2.88-1.452 4.952-2.513 14.144-2.513 6.206-.342 12.414.651 18.203 2.915.732.272 1.467.544 2.238.808.2.069.411.105.623.106 1.058.003 1.917-.853 1.919-1.911.001-.819-.519-1.549-1.294-1.815-.744-.256-1.448-.517-2.153-.766C34.11 1.343 28.291.251 22.429.251c-.794 0-1.588.02-2.382.06" mask="url(#prefix__L)"/>
        </g>
        <g transform="translate(210 132.665)">
            <mask id="prefix__O" fill="#fff">
                <use xlink:href="#prefix__M"/>
            </mask>
            <path fill="url(#prefix__N)" d="M1.594.59C.693 1.143.412 2.323.966 3.224c1.426 2.295 2.644 4.712 3.638 7.223.36.995 1.458 1.51 2.453 1.15.936-.34 1.456-1.338 1.198-2.298C7.167 6.486 5.82 3.779 4.23 1.218 3.867.629 3.239.305 2.596.305c-.342 0-.689.092-1.002.285" mask="url(#prefix__O)"/>
        </g>
        <g transform="translate(172 148.665)">
            <mask id="prefix__R" fill="#fff">
                <use xlink:href="#prefix__P"/>
            </mask>
            <path fill="url(#prefix__Q)" d="M7.846.287C2.703 1.521-.465 6.69.77 11.832c3.447 11.984 16.044 22.735 27.591 31.876.338.268.757.414 1.188.414l-.031-.004c.586.001 1.14-.267 1.503-.726.657-.829.517-2.034-.312-2.69-11.08-8.77-23.163-19.039-26.296-29.931-.877-3.049.884-6.234 3.934-7.11 3.05-.878 6.234.885 7.111 3.935 2.087 7.281 12.493 16.27 22.386 24.098.03.025.061.049.093.073.848.63 2.048.453 2.678-.397.63-.849.453-2.048-.397-2.678C35.025 24.57 21.191 13.62 19.154 6.539 17.817 2.572 14.11.021 10.086.021c-.74 0-1.491.086-2.24.266" mask="url(#prefix__R)"/>
        </g>
        <g transform="translate(150 132.665)">
            <mask id="prefix__U" fill="#fff">
                <use xlink:href="#prefix__S"/>
            </mask>
            <path fill="url(#prefix__T)" d="M25.091 1.256c-.006.002-.013.003-.019.006-13.213 3.8-20.843 17.592-17.044 30.806 3.138 10.919-3.603 13.948-5.744 14.619-.797.25-1.34.988-1.341 1.823-.002 1.058.854 1.916 1.911 1.919.198.001.394-.029.582-.088 5.86-1.832 11.544-7.993 8.28-19.334v-.004C8.503 19.822 14.963 8.153 26.144 4.94c11.055-3.109 22.574 3.156 25.972 14.125.045.148.108.289.187.422.199.329.609 1.022 12.922 11.014.806.614 1.949.495 2.611-.271.691-.8.602-2.009-.198-2.701-4.473-3.63-11.011-9.03-11.965-9.927C52.238 7.068 42.453.317 31.873.317c-2.242.001-4.521.304-6.782.939" mask="url(#prefix__U)"/>
        </g>
        <g transform="translate(157 139.665)">
            <mask id="prefix__X" fill="#fff">
                <use xlink:href="#prefix__V"/>
            </mask>
            <path fill="url(#prefix__W)" d="M20.197 1.62C11.221 4.394 6.01 13.735 8.367 22.831c3.868 17.61.98 21.685-6.955 24.167-.797.251-1.34.989-1.341 1.823-.002 1.057.854 1.917 1.911 1.919.187.001.373-.026.552-.08 11.106-3.463 13.515-10.69 9.574-28.645C10.191 14.892 14.22 7.522 21.25 5.29c7.119-2.032 14.54 2.079 16.592 9.191.747 2.605 2.781 6.193 18.483 18.611l.093.073c.849.63 2.048.452 2.678-.397.631-.85.453-2.049-.396-2.679-14.212-11.252-16.645-14.818-17.177-16.668C39.329 5.868 32.43.956 24.936.956c-1.566 0-3.159.215-4.739.664" mask="url(#prefix__X)"/>
        </g>
        <g transform="translate(180 155.665)">
            <mask id="prefix__aa" fill="#fff">
                <use xlink:href="#prefix__Y"/>
            </mask>
            <path fill="url(#prefix__Z)" d="M1.391.322C.379.632-.19 1.703.12 2.714c3.017 10.501 14.5 19.211 21.359 24.416 1.395 1.006 2.736 2.08 4.022 3.22.36.36.847.561 1.356.56.505-.002.99-.202 1.347-.559.749-.747.751-1.96.005-2.709-1.404-1.27-2.879-2.46-4.417-3.565-6.48-4.917-17.311-13.144-19.991-22.42l-.019-.064C3.529.768 2.771.238 1.951.238c-.185 0-.374.027-.56.084" mask="url(#prefix__aa)"/>
        </g>
        <g transform="translate(176 185.665)">
            <mask id="prefix__ad" fill="#fff">
                <use xlink:href="#prefix__ab"/>
            </mask>
            <path fill="url(#prefix__ac)" d="M.217 14.2c-.065 1.055.736 1.964 1.792 2.03h.123c1.013.002 1.852-.786 1.915-1.796.241-3.95 1.754-9.694 3.829-9.694 2.842 0 4.858 2.735 6.488 4.941.533.76 1.118 1.484 1.751 2.163.742.718 1.919.718 2.66 0 .762-.734.782-1.946.048-2.708-.496-.545-.954-1.123-1.372-1.73-1.94-3.597-5.515-6.021-9.574-6.492C1.366.914.355 11.982.217 14.2" mask="url(#prefix__ad)"/>
        </g>
        <g transform="translate(164 174.665)">
            <mask id="prefix__ag" fill="#fff">
                <use xlink:href="#prefix__ae"/>
            </mask>
            <path fill="url(#prefix__af)" d="M9.581.443c-.987.379-1.48 1.486-1.102 2.474 1.616 5.121-1.586 15.171-6.426 16.745-.794.255-1.331.994-1.33 1.827.002 1.057.862 1.913 1.919 1.911.2.005.399-.021.59-.077 7.361-2.405 10.927-15.193 8.893-21.555-.018-.075-.042-.149-.07-.221-.292-.762-1.019-1.231-1.79-1.231-.227 0-.459.041-.684.127" mask="url(#prefix__ag)"/>
        </g>
        <g transform="translate(149 124.665)">
            <mask id="prefix__aj" fill="#fff">
                <use xlink:href="#prefix__ah"/>
            </mask>
            <path fill="url(#prefix__ai)" d="M.407 33.186c0 1.057.858 1.914 1.915 1.914 1.058 0 1.916-.857 1.916-1.914.016-15.858 12.867-28.708 28.724-28.725 15.538 0 20.981 8.786 25.354 15.845 2.574 4.155 4.795 7.744 8.526 8.954l.039.013c1.009.316 2.084-.247 2.4-1.256.315-1.01-.247-2.083-1.256-2.399-2.394-.778-4.274-3.815-6.454-7.327C56.957 10.837 50.633.631 32.962.631 14.991.652.429 15.215.407 33.186" mask="url(#prefix__aj)"/>
        </g>
        <g transform="translate(151 116.665)">
            <mask id="prefix__am" fill="#fff">
                <use xlink:href="#prefix__ak"/>
            </mask>
            <path fill="url(#prefix__al)" d="M.602 13.38c-.025.039-.05.079-.073.119-.515.923-.185 2.09.737 2.606.924.516 2.09.186 2.607-.737 1.666-2.743 9.854-10.567 25.174-10.567 14.722 0 25.201 7.457 27.085 10.567.348.573.97.923 1.64.922.348 0 .69-.095.989-.276.905-.548 1.194-1.726.646-2.63C56.779 9.052 45.179.97 29.047.97 11.893.97 2.697 9.929.602 13.38" mask="url(#prefix__am)"/>
        </g>
        <g transform="translate(160 109.665)">
            <mask id="prefix__ap" fill="#fff">
                <use xlink:href="#prefix__an"/>
            </mask>
            <path fill="url(#prefix__ao)" d="M20.047.311C9.924.311 7.386 1.614 4.191 3.261c-.651.333-1.337.685-2.144 1.049-.97.428-1.408 1.561-.979 2.529.428.969 1.561 1.407 2.53.979.872-.407 1.619-.785 2.324-1.149 2.861-1.467 4.933-2.528 14.125-2.528 6.205-.34 12.412.655 18.2 2.918.731.269 1.475.544 2.241.809.2.068.411.103.623.102.845.016 1.601-.523 1.86-1.328.323-1.008-.232-2.085-1.239-2.409-.742-.242-1.447-.505-2.153-.766C34.114 1.338 28.306.25 22.454.25c-.802 0-1.605.02-2.407.061" mask="url(#prefix__ap)"/>
        </g>
        <g transform="translate(210 132.665)">
            <mask id="prefix__as" fill="#fff">
                <use xlink:href="#prefix__aq"/>
            </mask>
            <path fill="url(#prefix__ar)" d="M1.598.574C.697 1.128.415 2.308.97 3.209c1.425 2.3 2.643 4.722 3.639 7.238.252.794.99 1.332 1.822 1.333.197 0 .393-.03.581-.091 1.008-.32 1.564-1.398 1.243-2.406C7.169 6.47 5.823 3.765 4.233 1.202 3.872.614 3.243.29 2.6.29c-.342 0-.689.092-1.002.284" mask="url(#prefix__as)"/>
        </g>
        <g>
            <path fill="#F7E8C8" d="M.701 233.749c0-5.109 91.174-9.25 203.643-9.25 112.468 0 203.642 4.141 203.642 9.25S316.812 243 204.344 243C91.875 243 .701 238.858.701 233.749" transform="translate(1 .665)"/>
            <path fill="#FCBD30" d="M338.259 14.106c.419-5.394-2.248-6.093-3.822-6.118.359-1.035.555-2.447-.442-3.474-1.336-1.375-4.958-1.376-6.586.446-1.24-1.91-2.718-5.635-7.123-3.563-6.088 2.864-1.003 9.709.442 10.338 0 0-1.926.67-1.37 2.875.38 1.509 1.62 1.651 1.659 1.532-.078.314.487 2.88 1.939 3.48 1.532.633 7.253 1.457 7.253 1.457s7.599-1.173 8.05-6.973" transform="translate(1 .665)"/>
            <g transform="translate(1 .665) translate(316)">
                <mask id="prefix__au" fill="#fff">
                    <use xlink:href="#prefix__at"/>
                </mask>
                <path fill="#FFE2B7" d="M17.994 4.514c-.942-.769-2.209-.896-3.35-.773-1.142.15-2.287.592-2.998 1.43-.112.132-.308.148-.44.036-.023-.019-.042-.04-.058-.065l-.006-.009c-.997-1.518-1.91-3.188-3.448-3.717C6.195.881 4.372 1.72 3.145 2.74 1.843 3.79 1.615 5.583 2.12 7.205c.505 1.574 1.554 3.271 2.77 4.16l.07.051c.18.13.218.381.088.56-.049.066-.114.114-.187.14-.352.128-.744.405-.965.743-.239.338-.33.767-.305 1.21.032.446.144.901.392 1.254.124.177.28.327.458.444.09.054.183.11.28.14.047.017.1.032.14.038l.055.007c.006.033.026-.075-.104.122l.415.12c-.02.2.052.615.13.918.081.328.19.651.324.962.274.612.652 1.221 1.275 1.548-.662-.242-1.153-.829-1.488-1.443-.17-.31-.314-.635-.432-.97-.107-.362-.239-.626-.229-1.119l.415.12c-.17.247-.22.144-.273.182-.049.005-.095.005-.132.001-.082-.004-.153-.019-.225-.037-.144-.032-.275-.09-.404-.154-.252-.135-.468-.329-.645-.55-.352-.45-.515-.99-.585-1.528-.065-.543.02-1.152.33-1.652.31-.506.741-.872 1.308-1.119l-.028.751c-.997-.55-1.513-1.296-2.077-2.07-.53-.784-.968-1.633-1.276-2.545C.918 6.574.792 5.565.971 4.566c.146-1.013.75-1.944 1.513-2.57C3.227 1.32 4.124.926 5.03.6 5.943.295 7.021.21 7.992.576c.982.346 1.726 1.08 2.263 1.851.558.77.967 1.6 1.42 2.36l-.504-.04c.923-.962 2.22-1.352 3.446-1.383 1.211-.02 2.54.244 3.377 1.15" mask="url(#prefix__au)"/>
            </g>
            <path fill="#FFE2B7" d="M287.476 231.362c.776.161 1.536-.338 1.697-1.115l1.511-7.312c.161-.777-.339-1.536-1.115-1.697-.777-.16-1.536.34-1.697 1.116l-1.51 7.312c-.162.776.337 1.536 1.114 1.696" transform="translate(1 .665)"/>
            <path fill="#7F786A" d="M279.123 232.865c.01.396.328.707.706.696l9.193-.27c.485-.014.835-.488.725-.982l-.184-1.74c-.052-.498-.462-.87-.94-.857 0 0-.214.772-1.075.916-.696.116-.95-.482-1.041-.915-.045-.209-.264-.33-.461-.247l-6.506 2.72c-.26.115-.426.384-.417.68" transform="translate(1 .665)"/>
            <path fill="#FFE2B7" d="M339.716 232.594c-.788-.086-1.358-.794-1.272-1.583l.808-7.422c.086-.788.795-1.358 1.583-1.272.788.086 1.358.794 1.272 1.582l-.808 7.424c-.086.788-.795 1.357-1.583 1.271" transform="translate(1 .665)"/>
            <path fill="#7F786A" d="M316.25 82.246c-3.073 4.882-2.163 10.623-3.138 20.442-2.17 21.817 20.56 1.09 20.56 1.09l4.227 58.618.495 65.866 9.377-.013s18.12-66.106 19.685-81.532c4.146-40.878-6.092-67.788-7.466-70.07-3.144 1.966-35.458 6.836-43.74 5.6" transform="translate(1 .665)"/>
            <path fill="#A29C8F" d="M314.836 82.117c-.913 9.076-10.344 19.116-11.796 31.96-2.464 21.786-15.777 111.046-15.777 111.046l11.053.766 36.426-111.684-1.618-31.864s-15.52.526-18.288-.224" transform="translate(1 .665)"/>
            <path fill="#F5EFE4" d="M358.917 79.997s-10.113 4.506-22.703 5.245c-11.526.675-21.605-1.754-21.605-1.754l-8.783-36.947c-.661-8.672 7.18-17.274 16.585-17.99l16.683-.699c9.405-.716 17.538 6.096 18.198 14.77l1.625 37.375z" transform="translate(1 .665)"/>
            <path fill="#7F786A" d="M348.246 234.152c0 .395-.306.716-.685.716l-9.197.006c-.485 0-.849-.463-.753-.96l.131-1.746c.037-.498.435-.883.914-.884 0 0 .236.766 1.101.884.7.095.936-.51 1.014-.946.038-.21.254-.337.453-.261l6.585 2.524c.263.107.437.372.437.667M296.779 79.182c-4.018.625-5.982-8.689-5.982-8.689l12.532-31.88c4.512-9.425 10.512-10.147 18.964-7.51 0 0 .274 44.07-25.514 48.08" transform="translate(1 .665)"/>
            <path fill="#7F786A" d="M326.36 28.34s-1.609 56.496-12.585 79.415l-14.486-1.818s7.983-18.825 8.434-37.245c.45-18.421-4.248-35.61 3.188-38.301 7.436-2.691 15.448-2.05 15.448-2.05" transform="translate(1 .665)"/>
            <path fill="#FFE2B7" d="M331.479 29.371l-.301.018c-1.558.091-2.897-1.099-2.988-2.658l-.388-6.626c-.092-1.559 1.098-2.897 2.657-2.988l.3-.018c1.559-.092 2.897 1.098 2.989 2.656l.388 6.627c.092 1.56-1.098 2.897-2.657 2.99" transform="translate(1 .665)"/>
            <path fill="#FFC581" d="M327.832 20.621c-.108-1.844 1.135-3.417 2.777-3.514 1.642-.096 3.06 1.321 3.169 3.165l.283 4.826c.059 1.007-2.174.513-3.956-.96-1.166-.965-2.212-2.47-2.212-2.47l-.061-1.047z" transform="translate(1 .665)"/>
            <path fill="#A29C8F" d="M391.518 62.686s4.466-11.21 2.233-15.212c-3.465-6.209-17.918-12.958-27.83-16.087-3.088-.975-14.987-3.957-18.007-3.851-5.98.21-2.46 4.129-5.539 9.773l49.143 25.377z" transform="translate(1 .665)"/>
            <path fill="#A29C8F" d="M336.236 27.934s.735 58.575 14.313 80.055l17.918-11.726S362.45 84.1 359.85 65.858c-2.6-18.24.057-35.862-7.643-37.666-7.7-1.803-15.972-.258-15.972-.258M328.526 32.63L326.364 28.426 328.401 26.262 330.351 28.692 330.385 29.824z" transform="translate(1 .665)"/>
            <path fill="#A29C8F" d="M332.269 32.563L336.236 27.934 333.973 25.177 330.13 28.654 330.097 29.689z" transform="translate(1 .665)"/>
            <path fill="#7F786A" d="M280.89 39.942c-6.69 8.239-3.49 25.652 1.122 32.064 7.5 10.426 18.566 7.659 23.188 3.968 0 0-4.95-3.173-5.554-7.052-1.209-7.77-10.716-31.128-10.716-31.128s-5.648-.798-8.04 2.148" transform="translate(1 .665)"/>
            <path fill="#FFE2B7" d="M333.693 14.476c-.395-.066-1.231.421-1.231.421-.34-2.973-3.024-5.108-5.997-4.769-2.973.34-4.636 2.97-4.296 5.943 0 0 .456 4.451.613 5 1.028 3.584 2.655 4.49 5.407 4.176 2.752-.313 4.782-2.639 4.8-5.34.549-.154 1.12-1.193 1.344-2.522.254-1.504-.033-2.806-.64-2.909" transform="translate(1 .665)"/>
            <path fill="#FFE2B7" d="M324.944 10.544s-.144.068-.214.104c-1.863.97-2.828 3.092-2.562 5.423 0 0 .456 4.452.614 4.999.675 2.355 1.651 3.61 3.002 4.039.884.28 1.748.19 1.748.19s-2.958-1.501-3.352-7.532c-.236-3.616.764-7.223.764-7.223M331.625 17.24c-.267 1.396.091 2.638.803 2.774.712.138 1.58-.779 1.848-2.174.269-1.396-.163-2.742-.875-2.879-.713-.137-1.507.883-1.776 2.28" transform="translate(1 .665)"/>
            <path fill="#FCBD30" d="M332.603 14.25s-1.199 4.931-.103 6.283c1.172 1.446-.002 2.886-.768 3.766-.765.88-5.066 3.713-7.83 2.768-1.489-.509-1.018-3.583-.896-4.41.02-.14.138-.244.28-.248.487-.014 1.557-.062 1.703-.217.221-.235-.088-1.133-1.478-.791-.913.225-.04 1.149-.128 1.43-.17.55-.514 1.496-.49 1.318.021-.164-.408-2.522-.29-3.269.05-.318-.02-.461.695-.679.172-.053 2.198-.5 3.371.423 1.174.923 1.443 1.289 1.993.952.551-.336 1.987-6.018 3.607-8.228l.334.902z" transform="translate(1 .665)"/>
            <path fill="#FCBD30" d="M322.177 9.672s6.45 5.514 10.96 3.609c4.513-1.905-8.02-6.751-10.96-3.61" transform="translate(1 .665)"/>
            <path fill="#FFE2B7" d="M366.216 82.385l.998.762c.215.164.268.458.123.68-.236.366-1.672 1.616-2.117 1.557-.719-.096-1.02-1.633-1.02-1.633l2.016-1.366z" transform="translate(1 .665)"/>
            <path fill="#A29C8F" d="M365.643 82.136L367.555 84.486 369.783 83.198 367.194 80.366z" transform="translate(1 .665)"/>
            <path fill="#A29C8F" d="M366.571 74.862c-1.346 3.421-.382 8.677 6.408 9.677 11.524 1.697 18.097-10.039 20.227-14.587 3.646-7.787 11.368-19.645-6.877-29.45-1.41-.758-4.234 6.994-6.854 13.702-3.239 8.292-12.082 18.57-12.904 20.658" transform="translate(1 .665)"/>
            <path fill="#FFE2B7" d="M361.768 83.169s.199-1.642.563-2.02c.278-.287 1.526-.486 1.526-.486s2.096 2.503 2.084 3.45c-.006.452-.245 1.02-.774 1.489-.351.31-.885.285-1.203-.06l-2.196-2.373z" transform="translate(1 .665)"/>
            <path fill="#FFE2B7" d="M359.56 81.606c-.145.456.108.941.564 1.085l2.083.656.26-.825-2.908-.916zM359.926 79.77c-.257.402-.092.968.369 1.263l2.106 1.348.466-.728-2.94-1.883z" transform="translate(1 .665)"/>
            <path fill="#FFE2B7" d="M360.36 78.996c-.289.381-.17.958.266 1.288l1.992 1.513.523-.689-2.78-2.112z" transform="translate(1 .665)"/>
            <path fill="#FFE2B7" d="M361.491 78.888c-.288.38-.17.957.266 1.288l1.99 1.514.142-1.01-2.398-1.792zM303.86 44.562l-14.613.12c-.66.005-1.199-.536-1.2-1.209l-.082-20.817c-.003-.673.531-1.223 1.192-1.229l14.612-.12c.661-.006 1.2.536 1.202 1.209l.081 20.817c.002.673-.53 1.223-1.192 1.229" transform="translate(1 .665)"/>
        </g>
        <g transform="translate(287 21.665)">
            <mask id="prefix__ax" fill="#fff">
                <use xlink:href="#prefix__av"/>
            </mask>
            <path fill="url(#prefix__aw)" d="M16.491.317L1.878.437C1.217.443.683.993.686 1.667l.081 20.817c.003.673.541 1.215 1.201 1.209l14.613-.12c.661-.006 1.194-.557 1.192-1.23l-.081-20.816c-.002-.67-.535-1.21-1.191-1.21h-.01" mask="url(#prefix__ax)"/>
        </g>
        <g>
            <path fill="#FFE2B7" d="M289.158 4.499c-.5.004-.906-.405-.908-.915l-.009-2.308c-.002-.509.401-.925.901-.929.5-.003.906.405.908.915l.01 2.308c.001.509-.402.925-.902.929" transform="translate(0 22.665)"/>
            <path fill="#A29C8F" d="M289.709 1.378c.001.317-.25.576-.561.578-.311.003-.564-.252-.565-.569-.001-.317.25-.575.561-.578.311-.002.564.252.565.57M289.714 2.65c0 .317-.25.577-.561.579-.311.003-.564-.252-.565-.57-.001-.316.25-.574.56-.577.312-.003.565.252.566.569M305.134 4.168l-.01-2.905c.29-.001.526.238.528.534l.007 1.83c.001.296-.234.538-.525.54M305.148 7.738l-.011-2.904c.291-.002.527.236.529.532l.007 1.831c.001.296-.234.54-.525.541" transform="translate(0 22.665)"/>
            <path fill="#FFE2B7" d="M294.05 5.19c.005 1.025.677 1.85 1.502 1.844.825-.007 1.49-.843 1.487-1.868-.004-1.024-.676-1.85-1.501-1.843-.825.007-1.491.843-1.487 1.868" transform="translate(0 22.665)"/>
            <path fill="#A29C8F" d="M295.898 4.33c.002.64.513 1.154 1.14 1.148.627-.004 1.133-.527 1.131-1.166-.003-.64-.513-1.153-1.14-1.148-.627.006-1.133.528-1.131 1.167" transform="translate(0 22.665)"/>
            <path fill="#FFE2B7" d="M289.45 13.83s-.624-1.492-1.066-1.751c-.339-.198-1.567-.055-1.567-.055s-.582 2.574-.638 3.499c-.038.642.091 1.2.713 1.502.413.2.91.034 1.118-.375l1.44-2.82z" transform="translate(0 22.665)"/>
            <path fill="#FFE2B7" d="M290.876 11.919c.258.39.152.915-.238 1.173l-1.78 1.18-.469-.705 2.487-1.648z" transform="translate(0 22.665)"/>
            <path fill="#FFE2B7" d="M290.563 10.822c.294.364.195.93-.222 1.268l-1.903 1.539-.533-.658 2.658-2.15z" transform="translate(0 22.665)"/>
            <path fill="#FFE2B7" d="M290.23 10.143c.294.363.195.93-.222 1.268l-1.903 1.539-.533-.66 2.658-2.147z" transform="translate(0 22.665)"/>
            <path fill="#FFE2B7" d="M288.912 10.037c.328.333.283.908-.099 1.284l-1.746 1.715-.238-.989 2.083-2.01z" transform="translate(0 22.665)"/>
            <path fill="#FFE2B7" d="M286.344 11.356c.461.078.763.569.674 1.097l-.406 2.414-.371.217.103-3.728z" transform="translate(0 22.665)"/>
            <path fill="#57575E" d="M154.118 111.69h12.865c2.154 0 3.988-1.239 4.79-3.236.804-1.997.341-4.16-1.208-5.655L155.022 87.87c-.258-.242-.656-.236-.901.02-.243.254-.234.654.018.9l15.543 14.928c1.399 1.342 1.389 3.081.913 4.261-.475 1.18-1.673 2.438-3.612 2.438h-12.865c-.351 0-.637.285-.637.636 0 .351.286.637.637.637M116.568 111.57l26.285.107c.351 0 .637-.286.637-.636 0-.35-.286-.637-.637-.637l-26.27-.107c-.352-.004-.64.278-.644.63-.004.35.278.64.63.643" transform="translate(0 22.665)"/>
            <path fill="#A29C8F" d="M161.772 74.698l-7.23 28.464c-.68 2.68-3.391 4.305-6.071 3.653l9.708-38.224c2.666.706 4.273 3.427 3.593 6.107" transform="translate(0 22.665)"/>
            <path fill="#57575E" d="M147.272 106.514l9.71-38.23 1.147.292c.017.004.033.01.05.015l-9.708 38.225-.05-.01-1.149-.292zM9.837 212.276L9.039 212.276 26.547 150.705 29.232 150.705zM34.295 212.276L33.497 212.276 39.47 150.705 42.155 150.705zM81.242 212.276L82.04 212.276 64.531 150.705 61.847 150.705zM52.801 212.276L53.599 212.276 51.556 150.705 48.871 150.705z" transform="translate(0 22.665)"/>
            <path fill="#A29C8F" d="M38.377 147.07l-10.56-21.888c-2.443-5.065-7.57-8.283-13.193-8.283H5.592l8.331 24.352c2.224 6.501 8.335 10.87 15.206 10.87h17.292c-3.429 0-6.554-1.963-8.044-5.05" transform="translate(0 22.665)"/>
            <path fill="#7F786A" d="M64.576 116.508h-3.242c-11.908 0-23.113-5.635-30.213-15.193-2.551-2.82-6.176-4.426-9.979-4.426h-3.456c-6.158 0-13.642.875-15.125 11.094l-.86 8.525H15.136c5.623 0 10.75 3.218 13.194 8.283l10.56 21.888c1.49 3.088 4.614 5.05 8.044 5.05h33.785v-4.016c0-11.741-8.188-31.205-16.143-31.205" transform="translate(0 22.665)"/>
            <path fill="#57575E" d="M80.253 152.927H46.467c-3.876 0-7.471-2.183-9.156-5.561l-10.56-21.17c-2.223-4.456-6.964-7.336-12.08-7.336H1.236c-.683 0-1.236-.535-1.236-1.195 0-.661.553-1.196 1.236-1.196h13.435c6.058 0 11.674 3.41 14.305 8.687l10.56 21.17c1.276 2.559 3.998 4.21 6.931 4.21h33.786c.683 0 .683 2.39 0 2.39" transform="translate(0 22.665)"/>
            <path fill="#EABBAB" d="M135.748 178.9l1.479 5.036c1.118 3.822 3.552 14.3 7.104 15.701.69.457-7.193 6.95-7.708 6.548-.117-.093-3.598-11.117-3.655-11.243l-2.634-6.68c-.754-1.923-1.586-3.816-2.494-5.678l-1.704-3.684h9.612z" transform="translate(0 22.665)"/>
            <path fill="#57575E" d="M143.386 198.405s4.15 3.337 4.697 3.896c.5.51 3.785 1.338 6.11 1.923 3.406.858 4.044 2.375 4.334 2.94.159.005.284.14.279.306l-.016.597s-9.78.437-13.73.05c0 0-3.222-2.156-3.43-.054l-7.993.039.058-2.3.4-.061c-.212-1.243-.303-3.586.153-5.708l.388-.108s-.258 1.09 2.635 1.327c2.893.235 4.412-.072 4.669-.578.257-.505.17-.294.17-.294s-.21-1.326 1.275-1.975" transform="translate(0 22.665)"/>
            <path fill="#7F786A" d="M56.694 148.477l1.84-20.135 60.292 7.434c1.865.448 5.074 2.401 6.074 5.978 0 0 16.502 52.297 17.436 55.114l-4.257 1.517-6.239-1.565c-7.12-11.429-12.58-23.338-16.708-35.63-1.16-2.618-1.885-5.388-2.147-8.214l-.449-4.837-55.842.338z" transform="translate(0 22.665)"/>
            <path fill="#EABBAB" d="M100.826 189.65c.194-2.04.305-4.086.333-6.135l.198-5.677h9.658l-1.993 10.69c-.731 3.906-2.812 13.496.57 15.5.374.714 10.179 5.102 9.35 5.805-.825.7-19.95-2.218-20.197-2.804-.056-.133 1.409-10.143 1.415-10.28l.666-7.098z" transform="translate(0 22.665)"/>
            <path fill="#57575E" d="M108.272 201.228s3.78 3.708 4.266 4.313c.445.555 3.626 1.685 5.877 2.484 3.3 1.17 3.776 2.739 4.006 3.33.157.018.266.165.245.329l-.078.592s-9.778-.475-13.669-1.228c0 0-2.98-2.445-3.407-.373l-7.959-.705.299-2.284.405-.023c-.079-1.256.076-3.597.751-5.665l.397-.072s-.371 1.062 2.483 1.565c2.854.504 4.398.34 4.707-.139.31-.48.201-.278.201-.278s-.071-1.339 1.476-1.846" transform="translate(0 22.665)"/>
            <path fill="#A29C8F" d="M43.703 137.398c.575-5.772.837-7.71 3.71-16.333l21.763 1.876-.628 6.197c14.954 1.494 29.637 3.594 43.186 6.941 3.475.86 7.317 5.692 6.696 9.025 0 0-9.27 51.617-9.563 53.686l-4.124 1.715-6-1.586c-.682-14.794.241-31.467 2.081-49.212-10.746.524-27.184 1.096-44.483.152-10.227 0-12.912-9.502-12.638-12.46" transform="translate(0 22.665)"/>
            <path fill="#F7C8B3" d="M59.407 83.465L67.099 86.086 71.979 73.167 65.126 71.212z" transform="translate(0 22.665)"/>
            <path fill="#EF5A29" d="M70.309 77.588c-.606-.344-1.173-.707-1.688-1.093-.405 1.292.16 5.14.16 5.14l1.528-4.047z" transform="translate(0 22.665)"/>
            <path fill="#F7C8B3" d="M79.656 75.067c-.616 1.094-1.09 2.362-2.26 3.715-.724.838-2.362.709-3.79.23-3.147-1.053-5.192-2.417-6.85-4.23-1.15-1.255-2.112-2.726-3.126-4.46-.828-1.414-2.514-6.87.348-12.398 3.386-6.542 15.963-3.413 18.679 3.138.142.339.367 1.842 0 3.814l-.032.162c-.294 1.465-.916 3.172-2.136 4.845-.254.348-.352.786-.166 1.174.367.765 1.12 1.806 1.605 2.329.678.733-2.272 1.68-2.272 1.68" transform="translate(0 22.665)"/>
            <path fill="#57575E" d="M84.681 63.685c1.16-.081 2.458-1.533 2.708-3.208.172-1.15-.802-2.625-2.004-2.796 1.115-2.474-1.482-4.32-3.474-4.037-.366-1.326-1.475-1.903-2.813-2.148-1.339-.244-2.47.187-3.507 1.069-.325-.818-1.281-1.331-2.143-1.15-.203.043-.404.12-.611.103-.396-.034-.673-.388-.969-.654-1.068-.961-2.803-.913-3.891.079-1.027-.986-3.643-.718-4.529.616-.745-.378-3.416.835-3.58 3.04-1.159-.05-2.343.38-3.156 1.208-.813.826-1.226 2.046-1.022 3.189-.595.107-1.057.61-1.282 1.17-.225.562-.437 1.608.161 2.165-1.778.773-2.199 3.63-.929 5.095-1.056 1.1-1.199 2.962-.324 4.21.875 1.25 2.674 1.75 4.069 1.133 1.125 1.087 2.997 1.3 4.337.494.716.474 1.679.397 2.456.016 1.05-.33 2.389-1.056 2.649-1.964-2.282-1.11-2.544-4.322-.463-5.508 1.77-1.01 3.064 1.418 2.936 2.253l1.29-.314s.221-1.058.425-1.246c.687-.633 1.759-.915 2.1-1.278-1.66-1.23 1.305-1.195 1.529-1.523.367-.54 1.021-.796 1.66-.667 2.42.488 5.299-.274 5.798-1.205.27.552 1.05 2.862-.341 5.882 1.065 1.282 2.737-.132 2.115-1.44.906.31 2.128-1.683.805-2.584" transform="translate(0 22.665)"/>
            <path fill="#57575E" d="M81.415 66.09c-.539-.43-1.595-.459-1.918-.437-.325.022-.646.091-.952.191-.307.102-.585.271-.845.443l.027.047c.291-.107.58-.202.882-.228.295-.042.593-.054.887-.02.296.024 1.461.19 1.8.171l.12-.167z" transform="translate(0 22.665)"/>
            <path fill="#E1786E" d="M78.492 75.229l-.38-.138-1.793-.652s-.95 2.076-.022 2.551c.928.475 2.195-1.761 2.195-1.761" transform="translate(0 22.665)"/>
            <path fill="#57575E" d="M79.563 69.466c-.272.493-.76.745-1.09.563-.33-.182-.376-.729-.105-1.22.272-.494.76-.746 1.09-.565.33.182.377.73.105 1.222" transform="translate(0 22.665)"/>
            <path fill="#E6A38C" d="M56.287 81.93c2.203-2.367 7.194.138 10.717 2.4l5.62 3.355 13.439 8.822 29.203 4.449 10.495 2.727 10.68 4.956-1.76-.002-8.76-1.672-5.262-.007-4.243-1.835-31.012-.273c-9.36-3.684-16.578-6.526-27.217-14.372-2.98-2.012-4.047-6.24-1.9-8.548" transform="translate(0 22.665)"/>
            <path fill="#EA6C20" d="M56.287 81.93c2.203-2.367 8.81.072 11.458 2.518l4.88 3.236 13.443 8.623 25.162 3.833-.132 5.745-25.712-.226c-9.361-3.685-16.56-7.335-27.2-15.181-2.98-2.012-4.046-6.24-1.9-8.548" transform="translate(0 22.665)"/>
            <path fill="#EEF2FE" d="M109.404 106.061L113.571 106.132 113.705 100.29 109.55 99.716z" transform="translate(0 22.665)"/>
            <path fill="#FFBF4D" d="M46.536 126.204c1.224.608 5.214.678 6.796 1.302.007 0 .015.007.03.015 5.155 2.03 11.595 3.49 15.366.334.7-5.276 3.695-21.478 4.387-26.321.79-5.535.334-8.333-1.612-12.408-.593-1.24-1.247-2.41-1.924-3.498-3.383-5.39-7.519-8.674-9.428-7.854-3.07 1.324-8.256 4.828-8.705 12.538-1.756 13.898-1.802 19.555-5.109 31.75-.403 1.475-1.17 3.457.2 4.142" transform="translate(0 22.665)"/>
            <path fill="#EA6C20" d="M60.287 77.708L69.482 85.524 71.333 81.641 61.959 74.439zM53.332 127.505c.008 0 .015.007.03.015 5.155 2.03 11.595 3.49 15.366.335.699-5.277 3.695-21.479 4.387-26.322.79-5.535-18.508-16.724-18.82-14.899-.558 3.275 3.402 8.02 5.112 9.6 1.718 1.582 2.935 3.62 4.866 4.927.783.516 1.406 1.581 1.558 2.51.22 1.321-.494 1.52-.463 2.857.04 1.806.988 1.757 1.649 3.946 1.468 4.775-.19 5.695-.418 6.54-.327 1.17.639 2.432.259 3.58-.342 1.026.638 4.904.076 5.436-.563.532-2.937 1.598-3.697 1.742-1.612.304-9.905-.267-9.905-.267" transform="translate(0 22.665)"/>
            <path fill="#F4FAFC" d="M60.287 77.708L69.482 85.524 70.616 80.387 61.959 74.439z" transform="translate(0 22.665)"/>
            <path fill="#EABBAB" d="M55.314 84.242c2.162-2.45 9.56-1.167 12.44 1.172l4.84 3.933 14.428 8.284 30.574 3.293 11.047 2.311 11.36 4.53-1.83.066-9.188-1.324-5.467.2-4.506-1.666-32.23.95c-9.92-3.31-17.57-5.866-29.039-13.285-3.204-1.892-4.537-6.074-2.429-8.464" transform="translate(0 22.665)"/>
            <path fill="#FFBF4D" d="M55.314 84.242c2.162-2.45 9.56-1.167 12.44 1.172l4.84 3.933 14.422 8.084 26.343 2.837.17 5.744-24.484.341c-2.338.033-4.662-.353-6.822-1.125-8.13-2.905-14.372-5.984-24.48-12.522-3.204-1.892-4.537-6.074-2.429-8.464" transform="translate(0 22.665)"/>
            <path fill="#EEF2FE" d="M111.778 106.255L116.11 106.161 115.939 100.321 111.592 99.911z" transform="translate(0 22.665)"/>
            <path fill="#57575E" d="M7.173 34.69H44.84c2.93 0 5.306-2.375 5.306-5.306V18.473c0-2.931-2.375-5.306-5.306-5.306H7.173c-2.931 0-5.306 2.375-5.306 5.306v10.91c0 2.932 2.375 5.307 5.306 5.307" transform="translate(0 22.665)"/>
            <path fill="#FFE2B7" d="M12.39 25.426c.05.355.15.62.297.796.269.32.73.48 1.384.48.39 0 .709-.042.953-.127.463-.161.695-.462.695-.901 0-.257-.114-.456-.34-.596-.228-.137-.587-.258-1.08-.364l-.841-.184c-.827-.183-1.396-.382-1.705-.596-.524-.36-.786-.92-.786-1.683 0-.696.257-1.274.769-1.735.512-.46 1.265-.691 2.258-.691.829 0 1.536.218 2.122.652.585.434.892 1.064.92 1.89h-1.56c-.03-.467-.238-.8-.627-.996-.26-.131-.582-.195-.968-.195-.43 0-.771.084-1.027.253-.256.168-.384.404-.384.706 0 .278.126.485.379.623.162.09.506.198 1.032.32l1.364.323c.598.14 1.046.329 1.345.564.463.366.695.895.695 1.587 0 .71-.275 1.3-.824 1.77-.55.469-1.324.704-2.326.704-1.024 0-1.828-.231-2.415-.694-.586-.462-.88-1.097-.88-1.906h1.55zM18.629 27.825L18.629 20.052 20.243 20.052 20.243 23.015 23.264 23.015 23.264 20.052 24.878 20.052 24.878 27.825 23.264 27.825 23.264 24.355 20.243 24.355 20.243 27.825zM31.625 25.953c.378-.475.567-1.149.567-2.025 0-.872-.189-1.546-.567-2.022-.378-.477-.888-.715-1.532-.715-.643 0-1.156.238-1.54.712-.383.475-.574 1.15-.574 2.025 0 .876.191 1.55.574 2.025.384.475.897.712 1.54.712.644 0 1.154-.237 1.532-.712m1.015 1.181c-.587.605-1.436.907-2.547.907-1.111 0-1.96-.302-2.547-.907-.787-.742-1.181-1.81-1.181-3.206 0-1.424.394-2.493 1.181-3.206.587-.605 1.436-.907 2.547-.907 1.111 0 1.96.302 2.547.907.784.713 1.176 1.782 1.176 3.206 0 1.396-.392 2.464-1.176 3.206M39.25 21.66c-.206-.171-.494-.257-.865-.257h-1.463v2.288h1.463c.371 0 .66-.093.865-.28.206-.186.31-.481.31-.885 0-.405-.104-.693-.31-.865m1.24 2.8c-.455.38-1.105.57-1.95.57h-1.618v2.795h-1.614v-7.773h3.338c.77 0 1.383.2 1.84.6.457.402.686 1.022.686 1.862 0 .918-.227 1.566-.682 1.946" transform="translate(0 22.665)"/>
            <path fill="#F6F7FB" d="M177.994 113.147H102.26c-.362 0-.666.841-.771 1.995h77.275c-.105-1.154-.408-1.995-.771-1.995" transform="translate(0 22.665)"/>
            <path fill="#57575E" d="M101.49 115.142c-.025.275-.042.562-.042.866 0 1.581.364 2.862.813 2.862h75.733c.449 0 .812-1.28.812-2.862 0-.304-.017-.59-.042-.866H101.49z" transform="translate(0 22.665)"/>
        </g>
    </g>
</svg>
