<svg xmlns="http://www.w3.org/2000/svg" xmlns:xlink="http://www.w3.org/1999/xlink" width="547" height="306" viewBox="0 0 547 306">
    <defs>
        <path id="prefix__a" d="M24.52.997c-1.403.585-2.616 1.532-3.81 2.466 2.572.635 4.878 2.269 6.312 4.47 1.433 2.202 1.978 4.95 1.494 7.523-.202 1.07-.74 2.265-1.818 2.503-1.426.314-2.51-1.207-3.15-2.502l-4.116-8.304c-.484-.979-.98-1.973-1.734-2.769-.753-.795-1.818-1.377-2.918-1.299-1.558.11-2.722 1.442-4.175 2.008-1.92.748-4.293-.118-5.359-1.84l-.652-1.586c-.958 1.467-.782 3.354-.71 5.098C4.124 12.616 2.77 18.526 0 23.705c1.603 3.133 5.245 4.773 8.772 5.234 2.167.286 4.355.214 6.546.145 1.371-.044 2.744-.089 4.114-.046.836.027 1.693.09 2.448.447.754.356 1.39 1.065 1.422 1.889.03.76-.458 1.47-1.085 1.916-.625.445-1.379.676-2.116.898-2.158.651-6.69.888-8.907.469-3.888-.736-9.565-4.859-10.113-6.672l1.45 12.45c.11.95.234 1.934.752 2.742.922 1.433 2.792 1.897 4.486 2.195 3.076.544 6.213.937 9.324.641 3.112-.294 6.22-1.326 8.578-3.352.875-.753 1.658-1.647 2.697-2.16 1.04-.511 2.47-.513 3.202.38.598.73.523 1.832.052 2.647-.471.815-1.263 1.397-2.062 1.907-7.048 4.486-16.571 4.884-23.98 1.002 2.877 1.851 3.603 5.919 6.459 7.801 1.61 1.063 3.657 1.25 5.59 1.148 6.897-.364 13.512-4.208 17.178-9.984.528-.834 1.09-1.78 2.183-1.86 1.088-.081 1.99.765 2.222 1.817.354 1.606-.6 3.054-1.626 4.25-5.49 6.407-14.596 9.579-22.946 7.993 1.781 1.847 3.577 3.709 5.699 5.164 2.121 1.455 4.616 2.494 7.2 2.492 3.373-.002 6.526-1.774 8.99-4.05 3.635-3.355 6.109-7.912 6.925-12.758.138-.82.239-1.674.669-2.388.43-.716 1.304-1.252 2.11-1.006.776.236 1.196 1.116 1.162 1.918-.037.801-.42 1.541-.796 2.253-2.484 4.691-2.27 9.81-5.496 14.039-3.57 4.68-10.112 5.171-10.112 5.171s4.68 6.49 15.885 5.72c2.662-.183 7.49-1.68 9.866-4.288 2.329-2.559 5.462-7.542 6.201-10.902.701-3.185.423-5.653-1.558-8.11-.196-.242-.42-.464-.655-.67-.624-.549-1.94-1.807-1.526-2.355.829-1.096 2.761-.121 3.717.87.955.99 1.553 2.284 2.554 3.23 1.727 1.633 4.487 1.94 6.703 1.05 2.216-.89 3.892-2.823 4.82-4.998.929-2.175 1.173-4.58 1.122-6.941-.177-8.09-3.862-16.049-9.945-21.474.744 5.192-2.138 10.697-6.859 13.106-.603.308-1.263.575-1.939.515-.677-.06-1.358-.54-1.427-1.206-.096-.932.912-1.55 1.735-2.017 4.15-2.358 6.921-6.915 7.077-11.638l-2.26-2.29C58.386 9.674 52.85 6.657 44.548 3.521c1.532 2.896 3.076 5.824 3.91 8.986.834 3.16.907 6.622-.456 9.6-.349.76-.815 1.509-1.532 1.948-.72.442-1.743.483-2.358-.09-.675-.626-.633-1.679-.54-2.59l.744-7.253c.318-3.106.594-6.43-.919-9.17C42.38 3.11 40.58 1.706 38.53 1.155c-2.05-.55-4.324-.242-6.147.835 4.272 3.608 6.921 9.022 7.13 14.565.03.765.009 1.555-.295 2.261-.303.706-.95 1.313-1.724 1.375-.903.073-1.724-.613-2.104-1.427-.38-.812-.421-1.732-.487-2.625-.265-3.626-1.053-7.214-2.334-10.624-.712-1.893-1.728-3.888-3.605-4.694-.593-.255-1.23-.368-1.875-.368-.873 0-1.76.207-2.569.544m6.474 26.268c-.472-.142-.884-.435-1.24-.77-.992-.934-1.617-2.237-1.72-3.586-.034-.451-.01-.917.167-1.335.175-.418.524-.783.967-.897.553-.144 1.149.124 1.543.533 0 0 1.162 1.459 1.512 2.062.387.67.546 1.018.777 1.755.233.739.07 1.657-.583 2.083-.253.164-.554.238-.858.238-.192 0-.383-.029-.565-.083m7.266 2.1s-.417-1.045-.592-1.377c-.65-1.246-.944-2.704-.534-4.047.13-.423.324-.839.645-1.145.323-.307.791-.49 1.227-.388.62.142.982.774 1.211 1.361.523 1.337.765 2.778.706 4.21-.019.458-.07.928-.279 1.338-.207.412-.598.757-1.06.804-.036.004-.071.006-.106.006-.496 0-.956-.339-1.218-.761M22.804 26.26c-.583-.24-1.102-.626-1.498-1.11l-.19-.274c-.19-.236-.284-.568-.164-.846.113-.26.39-.421.671-.469.282-.046.57.001.85.059.452.093.904.216 1.296.453.394.237.724.606.822 1.05.098.445-.08.96-.48 1.183-.163.092-.344.129-.53.129-.262 0-.534-.074-.777-.175m28.238 9.432c-1.034-.338-1.573-1.53-1.503-2.603.07-1.072.608-2.052 1.134-2.996l1.147-2.14c.205-.52.416-1.046.765-1.484.35-.437.866-.777 1.43-.783 1.052-.01 1.76 1.076 2.024 2.08.657 2.506-.226 5.343-2.193 7.055-.61.53-1.403.968-2.19.968-.206 0-.411-.03-.614-.097m-5.377-4.068c-.49-.359-.646-1.017-.657-1.618-.016-.842.181-1.686.571-2.435l.238-.38c.191-.363.557-.658.97-.663.386-.005.74.244.953.56.216.319.312.695.393 1.07.13.6.226 1.219.143 1.827-.083.61-.365 1.215-.866 1.576-.273.198-.618.308-.955.308-.283 0-.561-.077-.79-.245m-17.401 5.686c-1.058-.134-2.108-.964-2.085-2.014 0 0 .508-1.513 2.015-2.425 1.037-.628 2.232-1.082 3.426-.853.643.123 1.267.408 1.708.883.44.476.675 1.16.523 1.787-.26 1.07-1.443 1.611-2.487 2.001-.857.322-1.753.647-2.661.647-.146 0-.293-.008-.44-.026m10.116 4.833c-.994-.1-2.134-.436-2.476-1.36-.306-.823.21-1.764.953-2.242 0 0 1.877-.749 2.452-1.095.886-.532 2.05-.673 2.903-.094.852.582 1.253 1.737.939 2.712-.287.887-1.086 1.548-1.975 1.86-.576.202-1.187.274-1.8.274-.332 0-.667-.021-.996-.055m19.562.097c-1.374-.433-2.028-2.028-1.325-3.272l.04-.067c.277-.482.677-.894 1.152-1.193 1.629-1.032 8.752-.177 8.678 1.403-.038.84-.507 1.626-1.151 2.179-.646.55-1.455.888-2.28 1.101-.743.192-1.512.287-2.28.287-.96 0-1.92-.149-2.834-.438m-7.673 15.894c-1.096-.443-1.656-1.714-1.615-2.883.04-1.167.554-2.263 1.057-3.322 0 0 1.244-4.42 2.212-5.273.397-.349 1.013-.377 1.465-.1.452.276.736.752.961 1.227 1.144 2.399 1.202 5.277.157 7.72-.361.842-.865 1.653-1.61 2.197-.507.37-1.14.596-1.762.596-.295 0-.588-.05-.865-.162"/>
        <path id="prefix__c" d="M1.04 1.716c.304.197.599.403.898.605-.074.021-.139.07-.192.128-.172-.112-.342-.227-.515-.338-.432-.277-.888.378-.455.654 5.841 3.722 11.157 8.146 15.882 13.183.447.564.895 1.128 1.326 1.71.1.135.233.164.354.135.425.482.854.957 1.268 1.449.107.125.24.152.362.125.19.235.388.462.574.699.319.406.925-.111.61-.514-2.135-2.717-4.447-5.269-6.913-7.661-3.765-4.126-8.03-7.766-12.741-10.83-.074-.047-.147-.068-.218-.068-.342 0-.596.49-.24.723"/>
        <path id="prefix__f" d="M4.301.051C3.177.071 2.127.52 1.345 1.313.559 2.109.138 3.159.158 4.268.2 6.527 2.085 8.335 4.377 8.335c.025 0 .051 0 .077-.002 1.125-.02 2.174-.466 2.956-1.261.787-.796 1.207-1.846 1.188-2.955C8.556 1.86 6.67.05 4.379.05l-.078.001M1.464 4.244c-.013-.753.275-1.47.812-2.014.54-.549 1.268-.859 2.049-.872l.054-.001c1.582 0 2.884 1.238 2.912 2.785.014.753-.274 1.47-.81 2.014-.54.549-1.269.857-2.05.872l-.054.001c-1.567 0-2.884-1.24-2.913-2.785"/>
        <path id="prefix__i" d="M5.818-.004C2.875.051.535 2.496.588 5.46c.053 2.964 2.481 5.323 5.423 5.27 2.942-.055 5.284-2.5 5.23-5.464-.053-2.93-2.427-5.27-5.324-5.27l-.1.001"/>
        <path id="prefix__k" d="M3.323.706C1.683.736.377 2.101.406 3.753c.03 1.653 1.384 2.97 3.025 2.939 1.64-.03 2.947-1.394 2.916-3.048C6.318 2.01 4.994.706 3.38.706h-.057"/>
        <path id="prefix__n" d="M56.407 2.423c-1.845 1.814-3.078 4.809-4.14 7.13-.51 1.112-1.39 5.394-2.26 7.218-2.505 1.41-4.934 2.957-7.265 4.644.747-1.052 1.17-2.355 1.712-3.548 1.138-2.503 2.924-4.65 4.336-7.01.636-1.066 3.164-5.425 1.757-6.565-1.241-1.003-3.465 1.123-4.104 1.987-1.539 2.077-2.291 5.228-2.978 7.687-.35 1.25-.56 6.106-1.217 7.824-.943.692-1.876 1.395-2.784 2.13-3.791 3.031-7.288 6.416-10.493 10.057.028-.79 0-1.594.021-2.379.074-2.756.88-5.428 1.26-8.154.172-1.23.8-6.238-.934-6.756-1.53-.458-2.747 2.362-3 3.406-.607 2.514-.073 5.722.25 8.266.133 1.043 1.26 4.225 1.72 6.385-3.057 3.56-5.82 7.372-8.268 11.377.09-.931.16-1.865.298-2.715.351-2.145.776-4.28 1.34-6.377.885-3.278 2.112-6.48 3.868-9.384.891-1.477-.716-3.25-2.282-2.505l-.18.09c-2.49 1.352-3.333 4.433-3.893 7.198-.426 2.104-2.82 13.51-.714 16.323-2.626 4.706-4.83 9.632-6.605 14.706.113-2.661.865-5.251 1.23-7.89.17-1.231.796-6.237-.94-6.756-1.53-.457-2.744 2.366-2.996 3.41-.606 2.513-.069 5.721.257 8.265.12.935 1.04 3.588 1.564 5.683-1.295 4.09-2.327 8.258-3.072 12.474-.136-.52-.28-1.038-.4-1.554-.625-2.694-.521-5.489-.842-8.23-.145-1.239-.801-6.255-2.608-6.329-1.593-.065-2.054 2.975-2.034 4.053.047 2.59 1.372 5.573 2.327 7.963.392.98 2.285 3.797 3.277 5.78-.528 3.231-.897 6.486-1.107 9.75-.614-2.375-.787-4.844-1.265-7.252-.241-1.225-1.293-6.18-3.098-6.112-1.592.059-1.812 3.13-1.706 4.202.253 2.583 1.808 5.454 2.95 7.764.378.765 1.825 2.647 2.973 4.346-.224 6.155-5.09 12.779-4.245 18.86-.206-5.433 5.083-11.311 5.53-16.689.144.329.228.604.204.788.077-.608.019-1.208-.104-1.807.446-4.906 1.157-9.773 2.168-14.57.209-.975.442-1.942.674-2.91 2.014-1.191 7.071-2.652 8.347-3.357 2.629-1.452 6.03-3.169 7.987-5.481.813-.96 2.64-4.06 1.147-5.188-1.69-1.28-5.989 2.777-7.034 3.79-2.316 2.245-4.283 4.854-6.84 6.83-1.163.901-2.471 1.706-3.457 2.766 1.063-4.3 2.38-8.53 3.951-12.66 1.932-1.201 7.157-2.704 8.455-3.422 2.63-1.453 6.031-3.168 7.988-5.482.813-.96 2.639-4.06 1.148-5.187-1.691-1.28-5.99 2.777-7.034 3.79-2.316 2.245-4.286 4.855-6.84 6.831-1.153.892-2.446 1.69-3.43 2.736 1.696-4.355 3.667-8.596 5.97-12.659 1.57-2.8 3.308-5.505 5.17-8.127 2.55-.34 6.067-.456 7.187-.73 2.928-.718 6.674-1.485 9.179-3.203 1.04-.713 3.626-3.22 2.48-4.695-1.298-1.669-6.531 1.119-7.81 1.824-2.834 1.56-5.43 3.558-8.423 4.797-.533.22-1.083.422-1.63.63 2.569-3.481 5.385-6.781 8.42-9.875 1.09.031 2.21-.121 3.305-.19 2.773-.172 5.545.384 8.326.515 1.253.06 6.348.233 6.677-1.525.289-1.55-2.678-2.498-3.754-2.655-2.59-.373-5.75.44-8.268.986-.907.198-3.385 1.298-5.41 2.004 1.449-1.439 2.932-2.846 4.474-4.188 2.454-2.117 5.037-4.095 7.712-5.948 1.33.191 2.73-.044 4.091-.13 2.774-.173 5.546.384 8.324.515 1.255.06 6.35.234 6.679-1.525.289-1.55-2.678-2.498-3.755-2.654-2.59-.374-5.75.438-8.267.985-1.053.229-4.222 1.672-6.34 2.304 3.582-2.428 7.342-4.612 11.277-6.487 1.16.046 2.353-.153 3.52-.248 2.77-.226 5.551.28 8.333.358 1.254.036 6.351.113 6.645-1.651.26-1.556-2.725-2.447-3.803-2.583-2.596-.326-5.74.546-8.246 1.141-.33.076-.871.282-1.517.544-2.156.63-4.28 1.364-6.37 2.197-.04-.003-.082-.006-.12-.012.034.005.067.01.1.02-2.844 1.133-5.623 2.445-8.314 3.918.686-.846 1.219-1.848 1.822-2.764 1.516-2.295 3.615-4.142 5.38-6.255.795-.954 3.972-4.869 2.756-6.207-.256-.282-.596-.396-.976-.396-1.206 0-2.81 1.155-3.394 1.73"/>
        <path id="prefix__q" d="M.4.758v9.709c0 3.364 17.97 6.093 40.138 6.093s40.137-2.729 40.137-6.093V.757H.4z"/>
        <path id="prefix__s" d="M.17.873v9.71c0 3.364 17.97 6.092 40.136 6.092 22.167 0 40.136-2.728 40.136-6.093V.873H.17z"/>
        <path id="prefix__u" d="M.7.917v9.707c0 3.365 17.97 6.094 40.137 6.094s40.136-2.729 40.136-6.094V.917H.7z"/>
        <path id="prefix__w" d="M.16.834v9.064c0 3.144 16.779 5.691 37.476 5.691 20.699 0 37.477-2.547 37.477-5.69V.833H.16z"/>
        <path id="prefix__y" d="M.776.67v9.064c0 3.142 16.778 5.69 37.477 5.69 20.698 0 37.477-2.548 37.477-5.69V.67H.776z"/>
        <path id="prefix__A" d="M.821.436v9.065c0 3.142 16.779 5.69 37.477 5.69 20.698 0 37.477-2.548 37.477-5.69V.436H.821z"/>
        <path id="prefix__C" d="M.435.073v9.065c0 3.142 16.78 5.69 37.477 5.69 20.699 0 37.477-2.548 37.477-5.69V.073H.435z"/>
        <path id="prefix__E" d="M.557.85v9.066c0 3.141 16.78 5.69 37.478 5.69s37.477-2.549 37.477-5.69V.85H.557z"/>
        <path id="prefix__G" d="M.738.619v9.064c0 3.14 16.78 5.69 37.477 5.69 20.699 0 37.478-2.55 37.478-5.69V.619H.738z"/>
        <path id="prefix__I" d="M.291.385v9.064c0 3.142 16.779 5.69 37.477 5.69 20.699 0 37.477-2.548 37.477-5.69V.385H.291z"/>
        <path id="prefix__K" d="M27.276 2.335C8.333 6.774-2.988 28.252 1.99 50.308c4.978 22.056 24.371 36.339 43.314 31.9l7.114-1.723L34.402.665l-7.126 1.67z"/>
        <path id="prefix__M" d="M27.276 2.335C8.333 6.774-2.988 28.252 1.99 50.308c4.978 22.056 24.371 36.339 43.314 31.9l7.114-1.723L34.402.665l-7.126 1.67z"/>
        <path id="prefix__O" d="M27.276 2.335C8.333 6.774-2.988 28.252 1.99 50.308c4.978 22.056 24.371 36.339 43.314 31.9l7.114-1.723L34.402.665l-7.126 1.67z"/>
        <path id="prefix__Q" d="M27.276 2.335C8.333 6.774-2.988 28.252 1.99 50.308c4.978 22.056 24.371 36.339 43.314 31.9l7.114-1.723L34.402.665l-7.126 1.67z"/>
        <path id="prefix__S" d="M27.276 2.335C8.333 6.774-2.988 28.252 1.99 50.308c4.978 22.056 24.371 36.339 43.314 31.9l7.114-1.723L34.402.665l-7.126 1.67z"/>
        <path id="prefix__U" d="M27.276 2.335C8.333 6.774-2.988 28.252 1.99 50.308c4.978 22.056 24.371 36.339 43.314 31.9l7.114-1.723L34.402.665l-7.126 1.67z"/>
        <path id="prefix__W" d="M27.276 2.335C8.333 6.774-2.988 28.252 1.99 50.308c4.978 22.056 24.371 36.339 43.314 31.9l7.114-1.723L34.402.665l-7.126 1.67z"/>
        <path id="prefix__Y" d="M27.276 2.335C8.333 6.774-2.988 28.252 1.99 50.308c4.978 22.056 24.371 36.339 43.314 31.9l7.114-1.723L34.402.665l-7.126 1.67z"/>
        <path id="prefix__aa" d="M27.276 2.335C8.333 6.774-2.988 28.252 1.99 50.308c4.978 22.056 24.371 36.339 43.314 31.9l7.114-1.723L34.402.665l-7.126 1.67z"/>
        <path id="prefix__ac" d="M27.276 2.335C8.333 6.774-2.988 28.252 1.99 50.308c4.978 22.056 24.371 36.339 43.314 31.9l7.114-1.723L34.402.665l-7.126 1.67z"/>
        <path id="prefix__ae" d="M27.276 2.335C8.333 6.774-2.988 28.252 1.99 50.308c4.978 22.056 24.371 36.339 43.314 31.9l7.114-1.723L34.402.665l-7.126 1.67z"/>
        <path id="prefix__ag" d="M27.276 2.335C8.333 6.774-2.988 28.252 1.99 50.308c4.978 22.056 24.371 36.339 43.314 31.9l7.114-1.723L34.402.665l-7.126 1.67z"/>
        <path id="prefix__ai" d="M0.14 0.623L21.444 0.623 21.444 12.388 0.14 12.388z"/>
        <linearGradient id="prefix__d" x1="-241.934%" x2="6.145%" y1="-141.913%" y2="20.692%">
            <stop offset="0%" stop-color="#A8F2FF"/>
            <stop offset="100%" stop-color="#8595F9"/>
        </linearGradient>
        <linearGradient id="prefix__g" x1="99.996%" x2=".001%" y1="50%" y2="50%">
            <stop offset="0%" stop-color="#FFB218"/>
            <stop offset="100%" stop-color="#FFCF44"/>
        </linearGradient>
        <linearGradient id="prefix__l" x1="99.999%" x2="-.002%" y1="49.995%" y2="49.995%">
            <stop offset="0%" stop-color="#FFB218"/>
            <stop offset="100%" stop-color="#FFCF44"/>
        </linearGradient>
        <linearGradient id="prefix__o" x1="26.854%" x2="71.488%" y1="47.275%" y2="54.194%">
            <stop offset="0%" stop-color="#FFB218"/>
            <stop offset="100%" stop-color="#FFCF44"/>
        </linearGradient>
    </defs>
    <g fill="none" fill-rule="evenodd">
        <g>
            <path fill="#FFF4DD" d="M415.456 79.502c-3.37-23.08-21.034-44.766-44.065-61.384-9.386-6.773-19.991-13.01-32.557-16.138-12.564-3.13-27.428-2.71-38.107 2.986-7.959 4.245-12.793 10.851-19.965 15.768-14.841 10.174-37.64 11.744-57.876 9.351-20.236-2.391-39.493-8.111-59.732-10.483-20.241-2.372-43.045-.757-57.83 9.463C88.099 40.972 87.05 60.544 91.232 77.46c1.416 5.73 3.274 11.736.688 17.251-3.893 8.308-16.193 12.587-26.1 17.698-24.73 12.757-38.38 35.781-34.055 57.443 4.752 23.812 29.546 43.838 59.331 54.795 29.785 10.956 64.036 13.958 97.493 14.088 14.258.056 28.546-.38 42.658-1.849 40.98-4.268 79.546-17.22 113.52-34.242 18.975-9.505 36.872-20.445 50.417-33.924 25.481-25.353 31.792-59.183 20.272-89.217" transform="translate(0 2) translate(24.177 59.435)"/>
            <path fill="#619440" d="M65.002 166.278c-.588-2.61-2.11-11.309-4.618-12.233-2.736-1.008-6.12.287-7.486 2.864-.59 1.112-.85 2.43-1.983 3.177-.631.418-1.5.424-2.022-.127-.852-.897-.044-2.264.65-3.25 1.328-1.888 2.275-4.117 2.285-6.427.01-2.31-1.028-4.69-2.968-5.94-1.941-1.249-4.78-1.105-6.344.591-.98 1.061-1.392 2.564-2.672 3.395-.664.43-1.536.518-2.179.054-1.298-.934-.422-2.941.458-4.27 1.243-1.877 2.335-3.92 2.661-6.148.328-2.228-.22-4.68-1.854-6.228-1.635-1.546-4.447-1.874-6.136-.387-.677.596-1.127 1.408-1.758 2.052-.757.772-1.98 1.306-2.906.485-.643-.568-.748-1.519-.43-2.316.441-1.103 1.331-1.77 2.214-2.449 1.393-1.072 2.355-2.645 2.56-4.391.613-5.217-5.154-7.228-8.405-4.936-.913.642-1.826 1.624-2.94 1.31-.882-.25-1.365-1.177-1.268-2.087.19-1.8 1.677-2.842 2.468-4.305 1.445-2.674-.178-6.497-3.103-7.312-2.239-.624-2.82 2.279-3.832 4.817-.234.584-1.09.46-1.156-.165-.262-2.486-1.083-5.592-1.712-7.305-1.154-3.142-5.851-6.59-8.094-2.069-.602 1.213-.145 4.332.63 5.197 1.096 1.22 3.704 5.417 3.704 5.417.245.48-.299.982-.752.69-1.029-.663-2.132-1.183-3.4-1.298-.581-.051-1.175.006-1.726.196-3.283 1.132-2.773 5.179-.675 7.117 1.743 1.61 4.183 2.163 6.49 2.714 1.197.284 2.491.647 3.085 1.812.337.66.257 1.501-.308 1.98-.652.554-1.397.245-2.116.154-2.348-.3-4.481 2.041-4.46 4.41.022 2.371 1.757 4.48 3.883 5.521 2.127 1.042 4.58 1.185 6.945 1.065 1.167-.06 2.423-.159 3.344.705.545.51.706 1.367.25 1.957-.65.84-1.86.464-2.874.408-2.815-.156-5.051 2.98-4.607 5.767.443 2.787 2.897 4.927 5.588 5.771 3.03.951 6.327.548 9.44.11.732-.104 1.485.292 1.711.997.314.978-.577 1.537-1.272 2.042-2.69 1.953-3.74 5.87-2.39 8.91 1.348 3.038 4.957 4.881 8.207 4.189 2.065-.439 3.947-1.77 6.185-1.095 1.107.334 1.904 1.395 1.693 2.534-.267 1.436-1.877 1.847-3.081 2.519-3.34 1.867-3.9 6.911-1.707 10.048 2.196 3.137 9.243 3.236 13.06 2.993 3.817-.242 11.785-.576 15.862-3.176 1.92-1.223.45-13.443-.139-16.054" transform="translate(0 2) translate(24.177 59.435)"/>
            <path fill="#306B34" d="M4.432 102.678c-.602 1.213-.145 4.332.63 5.197 1.096 1.22 3.704 5.417 3.704 5.417.245.48-.299.982-.752.69-1.029-.663-2.131-1.183-3.4-1.298-.58-.051-1.175.005-1.726.196-3.282 1.132-2.773 5.178-.675 7.117 1.743 1.61 4.183 2.163 6.49 2.714 1.197.284 2.491.647 3.086 1.812.336.66.256 1.501-.309 1.98-.652.554-1.398.245-2.116.154-2.348-.3-4.481 2.041-4.46 4.41.023 2.371 1.757 4.48 3.883 5.521 2.128 1.042 4.58 1.185 6.945 1.065 1.167-.06 2.423-.159 3.344.705.545.51.706 1.367.25 1.957-.65.84-1.86.464-2.874.408-2.814-.156-5.051 2.98-4.607 5.767.444 2.787 2.897 4.927 5.588 5.771 3.03.951 6.328.548 9.44.11.733-.104 1.485.292 1.712.997.314.978-.578 1.537-1.273 2.042-2.69 1.953-3.741 5.87-2.391 8.91 1.35 3.038 4.958 4.881 8.208 4.189 2.066-.439 3.946-1.77 6.185-1.095 1.107.334 1.904 1.395 1.693 2.534-.268 1.436-1.877 1.847-3.081 2.519-3.34 1.867-6.768 9.013-4.572 12.149 2.195 3.137 12.108 1.135 15.926.892 3.562-.227 10.736-.533 14.993-2.684.305-.154.868-.492.868-.492s-21.08-18.338-39.313-42.65C15.7 126.177 6.696 100.588 6.696 100.588s-.356.08-.768.37c-.709.502-1.377 1.482-1.496 1.72" transform="translate(0 2) translate(24.177 59.435)"/>
        </g>
        <g transform="translate(0 2) translate(0 209.532)">
            <mask id="prefix__b" fill="#fff">
                <use xlink:href="#prefix__a"/>
            </mask>
            <path fill="#FBBF00" d="M24.52.997c-1.403.585-2.616 1.532-3.81 2.466 2.572.635 4.878 2.269 6.312 4.47 1.433 2.202 1.978 4.95 1.494 7.523-.202 1.07-.74 2.265-1.818 2.503-1.426.314-2.51-1.207-3.15-2.502l-4.116-8.304c-.484-.979-.98-1.973-1.734-2.769-.753-.795-1.818-1.377-2.918-1.299-1.558.11-2.722 1.442-4.175 2.008-1.92.748-4.293-.118-5.359-1.84l-.652-1.586c-.958 1.467-.782 3.354-.71 5.098C4.124 12.616 2.77 18.526 0 23.705c1.603 3.133 5.245 4.773 8.772 5.234 2.167.286 4.355.214 6.546.145 1.371-.044 2.744-.089 4.114-.046.836.027 1.693.09 2.448.447.754.356 1.39 1.065 1.422 1.889.03.76-.458 1.47-1.085 1.916-.625.445-1.379.676-2.116.898-2.158.651-6.69.888-8.907.469-3.888-.736-9.565-4.859-10.113-6.672l1.45 12.45c.11.95.234 1.934.752 2.742.922 1.433 2.792 1.897 4.486 2.195 3.076.544 6.213.937 9.324.641 3.112-.294 6.22-1.326 8.578-3.352.875-.753 1.658-1.647 2.697-2.16 1.04-.511 2.47-.513 3.202.38.598.73.523 1.832.052 2.647-.471.815-1.263 1.397-2.062 1.907-7.048 4.486-16.571 4.884-23.98 1.002 2.877 1.851 3.603 5.919 6.459 7.801 1.61 1.063 3.657 1.25 5.59 1.148 6.897-.364 13.512-4.208 17.178-9.984.528-.834 1.09-1.78 2.183-1.86 1.088-.081 1.99.765 2.222 1.817.354 1.606-.6 3.054-1.626 4.25-5.49 6.407-14.596 9.579-22.946 7.993 1.781 1.847 3.577 3.709 5.699 5.164 2.121 1.455 4.616 2.494 7.2 2.492 3.373-.002 6.526-1.774 8.99-4.05 3.635-3.355 6.109-7.912 6.925-12.758.138-.82.239-1.674.669-2.388.43-.716 1.304-1.252 2.11-1.006.776.236 1.196 1.116 1.162 1.918-.037.801-.42 1.541-.796 2.253-2.484 4.691-2.27 9.81-5.496 14.039-3.57 4.68-10.112 5.171-10.112 5.171s4.68 6.49 15.885 5.72c2.662-.183 7.49-1.68 9.866-4.288 2.329-2.559 5.462-7.542 6.201-10.902.701-3.185.423-5.653-1.558-8.11-.196-.242-.42-.464-.655-.67-.624-.549-1.94-1.807-1.526-2.355.829-1.096 2.761-.121 3.717.87.955.99 1.553 2.284 2.554 3.23 1.727 1.633 4.487 1.94 6.703 1.05 2.216-.89 3.892-2.823 4.82-4.998.929-2.175 1.173-4.58 1.122-6.941-.177-8.09-3.862-16.049-9.945-21.474.744 5.192-2.138 10.697-6.859 13.106-.603.308-1.263.575-1.939.515-.677-.06-1.358-.54-1.427-1.206-.096-.932.912-1.55 1.735-2.017 4.15-2.358 6.921-6.915 7.077-11.638l-2.26-2.29C58.386 9.674 52.85 6.657 44.548 3.521c1.532 2.896 3.076 5.824 3.91 8.986.834 3.16.907 6.622-.456 9.6-.349.76-.815 1.509-1.532 1.948-.72.442-1.743.483-2.358-.09-.675-.626-.633-1.679-.54-2.59l.744-7.253c.318-3.106.594-6.43-.919-9.17C42.38 3.11 40.58 1.706 38.53 1.155c-2.05-.55-4.324-.242-6.147.835 4.272 3.608 6.921 9.022 7.13 14.565.03.765.009 1.555-.295 2.261-.303.706-.95 1.313-1.724 1.375-.903.073-1.724-.613-2.104-1.427-.38-.812-.421-1.732-.487-2.625-.265-3.626-1.053-7.214-2.334-10.624-.712-1.893-1.728-3.888-3.605-4.694-.593-.255-1.23-.368-1.875-.368-.873 0-1.76.207-2.569.544m6.474 26.268c-.472-.142-.884-.435-1.24-.77-.992-.934-1.617-2.237-1.72-3.586-.034-.451-.01-.917.167-1.335.175-.418.524-.783.967-.897.553-.144 1.149.124 1.543.533 0 0 1.162 1.459 1.512 2.062.387.67.546 1.018.777 1.755.233.739.07 1.657-.583 2.083-.253.164-.554.238-.858.238-.192 0-.383-.029-.565-.083m7.266 2.1s-.417-1.045-.592-1.377c-.65-1.246-.944-2.704-.534-4.047.13-.423.324-.839.645-1.145.323-.307.791-.49 1.227-.388.62.142.982.774 1.211 1.361.523 1.337.765 2.778.706 4.21-.019.458-.07.928-.279 1.338-.207.412-.598.757-1.06.804-.036.004-.071.006-.106.006-.496 0-.956-.339-1.218-.761M22.804 26.26c-.583-.24-1.102-.626-1.498-1.11l-.19-.274c-.19-.236-.284-.568-.164-.846.113-.26.39-.421.671-.469.282-.046.57.001.85.059.452.093.904.216 1.296.453.394.237.724.606.822 1.05.098.445-.08.96-.48 1.183-.163.092-.344.129-.53.129-.262 0-.534-.074-.777-.175m28.238 9.432c-1.034-.338-1.573-1.53-1.503-2.603.07-1.072.608-2.052 1.134-2.996l1.147-2.14c.205-.52.416-1.046.765-1.484.35-.437.866-.777 1.43-.783 1.052-.01 1.76 1.076 2.024 2.08.657 2.506-.226 5.343-2.193 7.055-.61.53-1.403.968-2.19.968-.206 0-.411-.03-.614-.097m-5.377-4.068c-.49-.359-.646-1.017-.657-1.618-.016-.842.181-1.686.571-2.435l.238-.38c.191-.363.557-.658.97-.663.386-.005.74.244.953.56.216.319.312.695.393 1.07.13.6.226 1.219.143 1.827-.083.61-.365 1.215-.866 1.576-.273.198-.618.308-.955.308-.283 0-.561-.077-.79-.245m-17.401 5.686c-1.058-.134-2.108-.964-2.085-2.014 0 0 .508-1.513 2.015-2.425 1.037-.628 2.232-1.082 3.426-.853.643.123 1.267.408 1.708.883.44.476.675 1.16.523 1.787-.26 1.07-1.443 1.611-2.487 2.001-.857.322-1.753.647-2.661.647-.146 0-.293-.008-.44-.026m10.116 4.833c-.994-.1-2.134-.436-2.476-1.36-.306-.823.21-1.764.953-2.242 0 0 1.877-.749 2.452-1.095.886-.532 2.05-.673 2.903-.094.852.582 1.253 1.737.939 2.712-.287.887-1.086 1.548-1.975 1.86-.576.202-1.187.274-1.8.274-.332 0-.667-.021-.996-.055m19.562.097c-1.374-.433-2.028-2.028-1.325-3.272l.04-.067c.277-.482.677-.894 1.152-1.193 1.629-1.032 8.752-.177 8.678 1.403-.038.84-.507 1.626-1.151 2.179-.646.55-1.455.888-2.28 1.101-.743.192-1.512.287-2.28.287-.96 0-1.92-.149-2.834-.438m-7.673 15.894c-1.096-.443-1.656-1.714-1.615-2.883.04-1.167.554-2.263 1.057-3.322 0 0 1.244-4.42 2.212-5.273.397-.349 1.013-.377 1.465-.1.452.276.736.752.961 1.227 1.144 2.399 1.202 5.277.157 7.72-.361.842-.865 1.653-1.61 2.197-.507.37-1.14.596-1.762.596-.295 0-.588-.05-.865-.162" mask="url(#prefix__b)"/>
        </g>
        <g transform="translate(0 2) translate(53.39 253.856)">
            <mask id="prefix__e" fill="#fff">
                <use xlink:href="#prefix__c"/>
            </mask>
            <path fill="url(#prefix__d)" d="M1.04 1.716c.304.197.599.403.898.605-.074.021-.139.07-.192.128-.172-.112-.342-.227-.515-.338-.432-.277-.888.378-.455.654 5.841 3.722 11.157 8.146 15.882 13.183.447.564.895 1.128 1.326 1.71.1.135.233.164.354.135.425.482.854.957 1.268 1.449.107.125.24.152.362.125.19.235.388.462.574.699.319.406.925-.111.61-.514-2.135-2.717-4.447-5.269-6.913-7.661-3.765-4.126-8.03-7.766-12.741-10.83-.074-.047-.147-.068-.218-.068-.342 0-.596.49-.24.723" mask="url(#prefix__e)"/>
        </g>
        <path fill="#306B34" d="M23.635 202.074c-.122.95.135 1.888.721 2.639 1.211 1.551 3.473 1.813 5.04.581.775-.601 1.246-1.45 1.368-2.406.12-.95-.136-1.888-.722-2.639-1.212-1.552-3.472-1.812-5.04-.581-.014.01-.028.02-.042.033-.737.595-1.206 1.436-1.325 2.373zm6.65 4.362c-2.194 1.72-5.364 1.348-7.065-.83-.825-1.059-1.187-2.378-1.017-3.717.17-1.334.846-2.534 1.91-3.363 2.194-1.721 5.364-1.349 7.065.831.826 1.058 1.186 2.376 1.017 3.715-.166 1.31-.823 2.485-1.852 3.317l-.057.047z" transform="translate(0 2)"/>
        <g transform="translate(0 2) translate(37.273 156.142)">
            <mask id="prefix__h" fill="#fff">
                <use xlink:href="#prefix__f"/>
            </mask>
            <path fill="url(#prefix__g)" d="M4.301.051C3.177.071 2.127.52 1.345 1.313.559 2.109.138 3.159.158 4.268.2 6.527 2.085 8.335 4.377 8.335c.025 0 .051 0 .077-.002 1.125-.02 2.174-.466 2.956-1.261.787-.796 1.207-1.846 1.188-2.955C8.556 1.86 6.67.05 4.379.05l-.078.001M1.464 4.244c-.013-.753.275-1.47.812-2.014.54-.549 1.268-.859 2.049-.872l.054-.001c1.582 0 2.884 1.238 2.912 2.785.014.753-.274 1.47-.81 2.014-.54.549-1.269.857-2.05.872l-.054.001c-1.567 0-2.884-1.24-2.913-2.785" mask="url(#prefix__h)"/>
        </g>
        <g transform="translate(0 2) translate(48.354 165.2)">
            <mask id="prefix__j" fill="#fff">
                <use xlink:href="#prefix__i"/>
            </mask>
            <path fill="#FFAF12" d="M5.818-.004C2.875.051.535 2.496.588 5.46c.053 2.964 2.481 5.323 5.423 5.27 2.942-.055 5.284-2.5 5.23-5.464-.053-2.93-2.427-5.27-5.324-5.27l-.1.001" mask="url(#prefix__j)"/>
        </g>
        <g transform="translate(0 2) translate(17.125 193.414)">
            <mask id="prefix__m" fill="#fff">
                <use xlink:href="#prefix__k"/>
            </mask>
            <path fill="url(#prefix__l)" d="M3.323.706C1.683.736.377 2.101.406 3.753c.03 1.653 1.384 2.97 3.025 2.939 1.64-.03 2.947-1.394 2.916-3.048C6.318 2.01 4.994.706 3.38.706h-.057" mask="url(#prefix__m)"/>
        </g>
        <g transform="translate(0 2) translate(284.077 147.076)">
            <mask id="prefix__p" fill="#fff">
                <use xlink:href="#prefix__n"/>
            </mask>
            <path fill="url(#prefix__o)" d="M56.407 2.423c-1.845 1.814-3.078 4.809-4.14 7.13-.51 1.112-1.39 5.394-2.26 7.218-2.505 1.41-4.934 2.957-7.265 4.644.747-1.052 1.17-2.355 1.712-3.548 1.138-2.503 2.924-4.65 4.336-7.01.636-1.066 3.164-5.425 1.757-6.565-1.241-1.003-3.465 1.123-4.104 1.987-1.539 2.077-2.291 5.228-2.978 7.687-.35 1.25-.56 6.106-1.217 7.824-.943.692-1.876 1.395-2.784 2.13-3.791 3.031-7.288 6.416-10.493 10.057.028-.79 0-1.594.021-2.379.074-2.756.88-5.428 1.26-8.154.172-1.23.8-6.238-.934-6.756-1.53-.458-2.747 2.362-3 3.406-.607 2.514-.073 5.722.25 8.266.133 1.043 1.26 4.225 1.72 6.385-3.057 3.56-5.82 7.372-8.268 11.377.09-.931.16-1.865.298-2.715.351-2.145.776-4.28 1.34-6.377.885-3.278 2.112-6.48 3.868-9.384.891-1.477-.716-3.25-2.282-2.505l-.18.09c-2.49 1.352-3.333 4.433-3.893 7.198-.426 2.104-2.82 13.51-.714 16.323-2.626 4.706-4.83 9.632-6.605 14.706.113-2.661.865-5.251 1.23-7.89.17-1.231.796-6.237-.94-6.756-1.53-.457-2.744 2.366-2.996 3.41-.606 2.513-.069 5.721.257 8.265.12.935 1.04 3.588 1.564 5.683-1.295 4.09-2.327 8.258-3.072 12.474-.136-.52-.28-1.038-.4-1.554-.625-2.694-.521-5.489-.842-8.23-.145-1.239-.801-6.255-2.608-6.329-1.593-.065-2.054 2.975-2.034 4.053.047 2.59 1.372 5.573 2.327 7.963.392.98 2.285 3.797 3.277 5.78-.528 3.231-.897 6.486-1.107 9.75-.614-2.375-.787-4.844-1.265-7.252-.241-1.225-1.293-6.18-3.098-6.112-1.592.059-1.812 3.13-1.706 4.202.253 2.583 1.808 5.454 2.95 7.764.378.765 1.825 2.647 2.973 4.346-.224 6.155-5.09 12.779-4.245 18.86-.206-5.433 5.083-11.311 5.53-16.689.144.329.228.604.204.788.077-.608.019-1.208-.104-1.807.446-4.906 1.157-9.773 2.168-14.57.209-.975.442-1.942.674-2.91 2.014-1.191 7.071-2.652 8.347-3.357 2.629-1.452 6.03-3.169 7.987-5.481.813-.96 2.64-4.06 1.147-5.188-1.69-1.28-5.989 2.777-7.034 3.79-2.316 2.245-4.283 4.854-6.84 6.83-1.163.901-2.471 1.706-3.457 2.766 1.063-4.3 2.38-8.53 3.951-12.66 1.932-1.201 7.157-2.704 8.455-3.422 2.63-1.453 6.031-3.168 7.988-5.482.813-.96 2.639-4.06 1.148-5.187-1.691-1.28-5.99 2.777-7.034 3.79-2.316 2.245-4.286 4.855-6.84 6.831-1.153.892-2.446 1.69-3.43 2.736 1.696-4.355 3.667-8.596 5.97-12.659 1.57-2.8 3.308-5.505 5.17-8.127 2.55-.34 6.067-.456 7.187-.73 2.928-.718 6.674-1.485 9.179-3.203 1.04-.713 3.626-3.22 2.48-4.695-1.298-1.669-6.531 1.119-7.81 1.824-2.834 1.56-5.43 3.558-8.423 4.797-.533.22-1.083.422-1.63.63 2.569-3.481 5.385-6.781 8.42-9.875 1.09.031 2.21-.121 3.305-.19 2.773-.172 5.545.384 8.326.515 1.253.06 6.348.233 6.677-1.525.289-1.55-2.678-2.498-3.754-2.655-2.59-.373-5.75.44-8.268.986-.907.198-3.385 1.298-5.41 2.004 1.449-1.439 2.932-2.846 4.474-4.188 2.454-2.117 5.037-4.095 7.712-5.948 1.33.191 2.73-.044 4.091-.13 2.774-.173 5.546.384 8.324.515 1.255.06 6.35.234 6.679-1.525.289-1.55-2.678-2.498-3.755-2.654-2.59-.374-5.75.438-8.267.985-1.053.229-4.222 1.672-6.34 2.304 3.582-2.428 7.342-4.612 11.277-6.487 1.16.046 2.353-.153 3.52-.248 2.77-.226 5.551.28 8.333.358 1.254.036 6.351.113 6.645-1.651.26-1.556-2.725-2.447-3.803-2.583-2.596-.326-5.74.546-8.246 1.141-.33.076-.871.282-1.517.544-2.156.63-4.28 1.364-6.37 2.197-.04-.003-.082-.006-.12-.012.034.005.067.01.1.02-2.844 1.133-5.623 2.445-8.314 3.918.686-.846 1.219-1.848 1.822-2.764 1.516-2.295 3.615-4.142 5.38-6.255.795-.954 3.972-4.869 2.756-6.207-.256-.282-.596-.396-.976-.396-1.206 0-2.81 1.155-3.394 1.73" mask="url(#prefix__p)"/>
        </g>
        <g>
            <path fill="#F7E8C8" d="M476.142 228.888c-.063 7.827-106.644 13.32-238.065 12.265-57.047-.46-109.395-2.077-150.369-4.4-33.33-3.188-45.882-3.169-62.289-5.13-3.941-.406 3.35.425 0 0C9.302 229.583.237 227.35.255 225.065c.063-7.828 106.643-13.321 238.049-12.267 131.421 1.057 237.9 8.262 237.838 16.09" transform="translate(0 2) translate(14.103 59.435)"/>
            <path fill="#704D3E" d="M225.981 8.178s.751 4.284.751 5.34c0 1.055.533 3.99.533 3.99s1.22-3.287 1.283-3.463c.063-.175 1.377-5.514 1.377-5.867 0-.351.91-.527-.296-.527-1.207 0-3.648.527-3.648.527" transform="translate(0 2) translate(14.103 59.435)"/>
            <path fill="#FFBD9E" d="M229.873 6.448c-3.824 4.182-3.012 17.368-1.92 22.97.41 2.098 5.089 8.285 8.038 8.509 4.527.344 12.347-3.977 13.771-7.002.696-1.477 4.145-15.996 2.128-20.616-2.017-4.62-12.487-8.028-16.906-7.163-4.036.789-3.119 1.124-5.111 3.302" transform="translate(0 2) translate(14.103 59.435)"/>
            <path fill="#F7A37C" d="M245.111 33.525c-2.598 1.768-5.22 3.484-8.256 4.386-.486.144-.165.867.317.724 3.1-.92 5.778-2.687 8.429-4.49.421-.286-.071-.905-.49-.62" transform="translate(0 2) translate(14.103 59.435)"/>
            <path fill="#FFF1ED" d="M236.861 42.038s-12.952 5.414-15.878 7.925c-2.926 2.51-1.522 19.29 0 28.56 1.523 9.27 2.692 13.847 2.751 18.539.059 4.693-1.931 7.158 1.346 8.214s4.213 1.408 14.98 2.112c10.769.704 14.163-.351 17.44 0 3.277.352 5.266-1.525 5.384-4.224.116-2.7 7.49-42.593 7.022-47.64-.468-5.045-4.331-6.687-8.66-9.152-4.332-2.464-10.355-4.334-10.355-4.334s-3.574 3.865-6.967 3.982c-3.395.119-7.063-3.982-7.063-3.982" transform="translate(0 2) translate(14.103 59.435)"/>
            <path fill="#F7A37C" d="M245.111 33.525c-2.598 1.768-5.22 3.484-8.256 4.386-.486.144-.165.867.317.724 3.1-.92 5.778-2.687 8.429-4.49.421-.286-.071-.905-.49-.62" transform="translate(0 2) translate(14.103 59.435)"/>
            <path fill="#FFF1ED" d="M236.861 42.038s-12.952 5.414-15.878 7.925c-2.926 2.51-1.522 19.29 0 28.56 1.523 9.27 2.692 13.847 2.751 18.539.059 4.693-1.931 7.158 1.346 8.214s4.213 1.408 14.98 2.112c10.769.704 14.163-.351 17.44 0 3.277.352 5.266-1.525 5.384-4.224.116-2.7 7.49-42.593 7.022-47.64-.468-5.045-4.331-6.687-8.66-9.152-4.332-2.464-10.355-4.334-10.355-4.334s-3.574 3.865-6.967 3.982c-3.395.119-7.063-3.982-7.063-3.982" transform="translate(0 2) translate(14.103 59.435)"/>
            <path fill="#F7A37C" d="M245.111 33.525c-2.598 1.768-5.22 3.484-8.256 4.386-.486.144-.165.867.317.724 3.1-.92 5.778-2.687 8.429-4.49.421-.286-.071-.905-.49-.62" transform="translate(0 2) translate(14.103 59.435)"/>
            <path fill="#FFF1ED" d="M236.861 42.038s-12.952 5.414-15.878 7.925c-2.926 2.51-1.522 19.29 0 28.56 1.523 9.27 2.692 13.847 2.751 18.539.059 4.693-1.931 7.158 1.346 8.214s4.213 1.408 14.98 2.112c10.769.704 14.163-.351 17.44 0 3.277.352 5.266-1.525 5.384-4.224.116-2.7 7.49-42.593 7.022-47.64-.468-5.045-4.331-6.687-8.66-9.152-4.332-2.464-10.355-4.334-10.355-4.334s-3.574 3.865-6.967 3.982c-3.395.119-7.063-3.982-7.063-3.982" transform="translate(0 2) translate(14.103 59.435)"/>
            <path fill="#7D6D6C" d="M257.617 48.906c.702-.428 18.726-.18 21.301 4.174 2.575 4.352.937 32.455 0 41.411-.936 8.956-1.638 16.417-1.638 16.417l-50.616-1.243-13.054-3.11 6.554-53.475 37.453-4.174z" transform="translate(0 2) translate(14.103 59.435)"/>
            <path fill="#FFBD9E" d="M235.448 34.556l2.1 11.122 4.135 7.266 9.656-4.233-1.378-20.549s-5.99 2.463-7.053 2.993c-1.063.53-7.46 3.401-7.46 3.401" transform="translate(0 2) translate(14.103 59.435)"/>
            <path fill="#F7A37C" d="M245.111 33.525c-2.598 1.768-5.22 3.484-8.256 4.386-.486.144-.165.867.317.724 3.1-.92 5.778-2.687 8.429-4.49.421-.286-.071-.905-.49-.62" transform="translate(0 2) translate(14.103 59.435)"/>
            <path fill="#FFF1ED" d="M236.861 42.038s-12.952 5.414-15.878 7.925c-2.926 2.51-1.522 19.29 0 28.56 1.523 9.27 2.692 13.847 2.751 18.539.059 4.693-1.931 7.158 1.346 8.214s4.213 1.408 14.98 2.112c10.769.704 14.163-.351 17.44 0 3.277.352 5.266-1.525 5.384-4.224.116-2.7 7.49-42.593 7.022-47.64-.468-5.045-4.331-6.687-8.66-9.152-4.332-2.464-10.355-4.334-10.355-4.334l-7.175 6.852c-1.027.98-2.702.72-3.386-.525l-3.469-6.327z" transform="translate(0 2) translate(14.103 59.435)"/>
            <path fill="#FFF1ED" d="M267.003 49.963s5.127 3.45 7.233 8.261c2.107 4.81 1.336 31.764.936 36.727-.823 10.237-23.243 7.677-23.243 7.677l3.112-45.694 11.962-6.971zM220.983 49.963s-2.925 1.338-5.383 8.143c-2.393 6.626-6.443 27.075-8.896 32.144l-22.212 6.695s6.105 7.274 7.041 7.861c.937.587 21.024 1.995 22.076 1.995 1.054 0 9.83-5.416 12.286-29.703 2.455-24.29-4.912-27.135-4.912-27.135" transform="translate(0 2) translate(14.103 59.435)"/>
            <path fill="#F5D7D1" d="M240.875 50.495c-.612.866-1.26 1.701-1.978 2.48-.164.184-.333.363-.51.535-.784.548-1.281.724-2.159-.5-.292-.247-.422-1.2-.537-1.544-.773-2.32-1.324-4.668-.94-7.123.07-.444-.607-.635-.677-.188-.282 1.799-.146 3.53.285 5.295.334 1.366.71 3.724 1.71 4.782 1.956 2.073 4.494-2.083 5.412-3.382.262-.371-.347-.722-.606-.355M253.196 45.424c-1.282 2.434-2.387 5.262-4.269 7.293-.922.995-2.837 3.267-3.95 1.437-.734-1.21-1.115-2.786-1.48-4.138-.118-.437-.795-.251-.677.187.383 1.42 1.644 7.014 4.156 5.391 3.37-2.177 5.042-6.429 6.826-9.815.21-.4-.395-.755-.606-.355" transform="translate(0 2) translate(14.103 59.435)"/>
            <path fill="#57575E" d="M225.485 6.008c-1.166 1.21.58 4.848 2.272 5.227 2.09.466 4.626.7 6.925.757 4.619.118 8.97-.74 9.972-.623 1.001.117 1.545 5.024 1.545 6.725 0 1.702 1.293.452 2.744 1.517 1.45 1.064 1.14 10.375 1.14 10.375s1.43-2.182 2.083-5.556c1.01-5.225 1.551-10.038 1.67-13.493.289-8.361-5.82-10.593-11.454-10.249-5.472.334-8.809-.4-12.509 1.288-1.022.466-2.98 2.568-4.388 4.032" transform="translate(0 2) translate(14.103 59.435)"/>
            <path fill="#DB5449" d="M242.047 56.97h-.816c-.92 0-1.621-.826-1.474-1.737l.218-1.343c.117-.724.742-1.257 1.473-1.257h.381c.732 0 1.356.533 1.474 1.257l.217 1.343c.148.91-.553 1.736-1.473 1.736" transform="translate(0 2) translate(14.103 59.435)"/>
            <path fill="#DB5449" d="M240.575 55.887s-3.13 24.676-3.48 28.364c-.352 3.688 2.398 11.081 3.48 11.697 1.083.616 3.122-5.016 3.815-9.417.692-4.4-1.795-30.184-1.795-30.184l-2.02-.46z" transform="translate(0 2) translate(14.103 59.435)"/>
            <path fill="#FFBD9E" d="M189.73 97.532c-1.43-.97-5.113-1.462-7.694-.756-3.541.968-4.56 3.835-4.753 4.188-.194.352 11.966 1.496 11.966 1.496h3.357s-.93-3.609-2.877-4.928M237.628 97.708c-1.429-.97-5.319-1.391-7.9-.685-3.541.967-5.19 5.027-5.385 5.378-.193.353 13.312.059 13.312.059h3.357s-1.438-3.432-3.384-4.752" transform="translate(0 2) translate(14.103 59.435)"/>
            <path fill="#7D6D6C" d="M195.26 104.22h-37.528v-3.638h34.64c1.595 0 2.887 1.297 2.887 2.896v.742z" transform="translate(0 2) translate(14.103 59.435)"/>
            <path fill="#57575E" d="M204.249 90.25h-57.376c-3.694 0-6.688-3.002-6.688-6.705V59.113c0-3.704 2.994-6.704 6.688-6.704h57.376c3.693 0 6.688 3 6.688 6.705v24.431c0 3.703-2.995 6.705-6.688 6.705" transform="translate(0 2) translate(14.103 59.435)"/>
            <path fill="#7D6D6C" d="M171.26 102.46L179.863 102.46 179.863 83.276 171.26 83.276z" transform="translate(0 2) translate(14.103 59.435)"/>
            <path fill="#A29C8F" d="M177.283 65.699c0 .953-.77 1.727-1.722 1.727-.951 0-1.722-.774-1.722-1.727 0-.953.77-1.727 1.722-1.727.951 0 1.722.774 1.722 1.727" transform="translate(0 2) translate(14.103 59.435)"/>
            <path fill="#F5D7D1" d="M268.121 55.25c-5.39 2.481-6.701 8.586-7.497 13.921-.985 6.62-2.287 13.315-2.21 20.032.004.451.706.452.701 0-.07-6.237 1.091-12.418 1.998-18.566.812-5.506 1.689-12.166 7.363-14.781.41-.188.054-.795-.355-.607M257.655 89.626c-3.075 1.605-6.117 3.317-9.249 4.807-2.735 1.3-5.842 1.532-8.467 3.073-.39.23-.037.838.354.608 1.304-.765 2.735-1.206 4.179-1.618-.02.077-.015.162.034.25.865 1.523 1.41 3.139 1.66 4.87.064.448.741.258.678-.186-.259-1.79-.84-3.468-1.731-5.04-.015-.026-.036-.04-.054-.061 1.26-.356 2.519-.721 3.702-1.288 3.128-1.5 6.173-3.2 9.248-4.807.401-.21.047-.817-.354-.608M270.833 91.525c-2.116-.486-4.017-1.503-6.193-1.834-1.971-.298-3.938-.227-5.898.101-.445.074-.256.753.187.678 2.26-.378 4.534-.365 6.777.134 1.703.378 3.249 1.21 4.94 1.6.44.1.628-.577.187-.68M222.793 50.007C221.531 56 221.47 62.114 221.6 68.214c.142 6.603.327 13.207.491 19.81.012.452.714.454.703 0-.16-6.382-.33-12.765-.477-19.148-.144-6.255-.142-12.53 1.153-18.682.093-.442-.583-.63-.677-.187M213.932 95.01c-1.684-1.906-3.784-3.284-6.194-4.089-.43-.143-.614.536-.186.68 2.297.766 4.28 2.092 5.884 3.908.3.34.794-.16.496-.498" transform="translate(0 2) translate(14.103 59.435)"/>
            <path fill="#A29C8F" d="M180.36 228.447L175.125 228.447 175.125 109.467 187.439 109.467z" transform="translate(0 2) translate(14.103 59.435)"/>
            <path fill="#7F786A" d="M182.206 228.447L180.36 228.447 187.439 108.955 189.286 108.955z" transform="translate(0 2) translate(14.103 59.435)"/>
            <path fill="#A29C8F" d="M160.95 228.447L155.715 228.447 155.715 109.467 168.03 109.467z" transform="translate(0 2) translate(14.103 59.435)"/>
            <path fill="#7F786A" d="M162.796 228.447L160.949 228.447 168.03 108.955 169.875 108.955z" transform="translate(0 2) translate(14.103 59.435)"/>
            <path fill="#7F786A" d="M182.617 214.28L134.318 214.28 134.318 109.968 189.614 110.42z" transform="translate(0 2) translate(14.103 59.435)"/>
            <path fill="#A29C8F" d="M113.718 228.447L108.483 228.447 101.403 108.955 113.718 108.955z" transform="translate(0 2) translate(14.103 59.435)"/>
            <path fill="#7F786A" d="M113.718 228.447L115.565 228.447 115.565 108.955 113.718 108.955z" transform="translate(0 2) translate(14.103 59.435)"/>
            <path fill="#A29C8F" d="M161.853 214.28L113.554 214.28 113.554 109.968 166.818 110.42z" transform="translate(0 2) translate(14.103 59.435)"/>
            <path fill="#A29C8F" d="M279.278 228.447L162.796 228.447 160.95 108.955 279.278 108.955z" transform="translate(0 2) translate(14.103 59.435)"/>
            <path fill="#57575E" d="M279.278 228.447L281.124 228.447 281.124 108.955 279.278 108.955z" transform="translate(0 2) translate(14.103 59.435)"/>
            <path fill="#A29C8F" d="M315.676 228.447L310.441 228.447 310.441 109.467 322.756 109.467z" transform="translate(0 2) translate(14.103 59.435)"/>
            <path fill="#57575E" d="M317.522 228.447L315.676 228.447 322.756 108.955 324.602 108.955z" transform="translate(0 2) translate(14.103 59.435)"/>
            <path fill="#57575E" d="M279.293 228.447L316.599 228.447 316.599 221.521 279.293 221.521zM330.688 111.52L142.227 111.52 142.227 102.954 337.594 102.954z" transform="translate(0 2) translate(14.103 59.435)"/>
            <path fill="#57575E" d="M285.428 111.52L94.606 111.52 89.887 102.954 291.328 102.954z" transform="translate(0 2) translate(14.103 59.435)"/>
            <path fill="#FFBD9E" d="M201.012 209.047L201.218 219.429 209.098 219.272 209.77 208.872z" transform="translate(0 2) translate(14.103 59.435)"/>
            <path fill="#7F786A" d="M201.185 217.758s-1.147 2.805-1.09 5.538c.045 2.112.16 4.427.681 4.944.522.518 18.953.24 19.566.138.613-.1 1.141-4.424-1.613-6.042-2.754-1.616-7.755-2.221-8.384-2.56-.629-.34-1.2-1.226-1.2-1.226l-7.96-.792z" transform="translate(0 2) translate(14.103 59.435)"/>
            <path fill="#FFBD9E" d="M201.185 217.758s1.74 2.36 3.899 2.704c2.157.344 4.06-1.912 4.06-1.912l-2.236-1.259-2.501.05c-.57.012-3.222.417-3.222.417M167.944 208.997L168.092 219.382 175.973 219.268 176.704 208.872z" transform="translate(0 2) translate(14.103 59.435)"/>
            <path fill="#7F786A" d="M168.068 217.709s-1.162 2.799-1.12 5.531c.031 2.113.134 4.429.653 4.948.518.522 18.95.346 19.564.25.613-.097 1.167-4.418-1.578-6.05-2.745-1.634-7.744-2.267-8.37-2.61-.627-.343-1.193-1.231-1.193-1.231l-7.956-.838z" transform="translate(0 2) translate(14.103 59.435)"/>
            <path fill="#FFBD9E" d="M168.068 217.709s1.727 2.37 3.884 2.727c2.156.355 4.072-1.89 4.072-1.89l-2.23-1.272s-1.93.03-2.501.037c-.57.007-3.225.398-3.225.398M181.818 82.137l1.814-2.347s.26-4.986.54-6.454c.28-1.466 1.86-6.335 3.088-6.393 1.229-.06-.175 4.927.41 5.514.586.587 6.554-3.142 8.134-4.652 1.58-1.508 4.389-2.213 5.091-1.684.703.528.059 6.923-.409 8.448-.468 1.526-4.259 4.953-5.619 5.75-2.625 1.539-5.488 2.764-6.255 3.406-.766.642-1.41 1.991-1.41 1.991l-5.384-3.579z" transform="translate(0 2) translate(14.103 59.435)"/>
            <path fill="#FFF1ED" d="M177.903 83.813s2.02-3.784 3.775-4.312c1.755-.529 4.915 1.144 6.934 2.992 2.02 1.847 2.107 3.256 1.493 4.4-.614 1.144-2.107 3.144-2.107 3.144l-10.095-6.224z" transform="translate(0 2) translate(14.103 59.435)"/>
            <path fill="#FFBD9E" d="M120.079 50.854L119.069 66.718 104.045 66.718 106.065 48.785z" transform="translate(0 2) translate(14.103 59.435)"/>
            <path fill="#FFBD9E" d="M127.469 39.13c-.039 6.177-.868 12.831-2.625 13.565-1.758.736-9.377-.734-9.377-.734V23.318s7.472-.588 9.377 0c1.904.588 2.675 7.716 2.625 15.812" transform="translate(0 2) translate(14.103 59.435)"/>
            <path fill="#57575E" d="M125.62 23.614s2.158-.441 2.798-2.328c.641-1.886-.51-7.32-6.115-7.949-5.604-.629-7.22 1.463-10.423 1.463-3.203 0-6.096-2.235-10.28.798-3.097 2.247-5.133 5.049-4.935 8.476.252 4.348-1.008 5.837-.358 9.917s3.485 7.593 5.426 12.285c2.028 4.901 4.302 8.998 6.477 8.988 2.572-.011 4.433-.436 6.515-2.362 2.082-1.927 7.955-8.267 7.206-12.472-.749-4.206-.937-9.535 2.265-11.735 3.203-2.2 1.423-5.081 1.423-5.081" transform="translate(0 2) translate(14.103 59.435)"/>
            <path fill="#FFF1ED" d="M99.197 62.873s3.713-5.166 11.704-5.164c7.99.002 12.64 5.981 12.64 5.981l-24.344-.817z" transform="translate(0 2) translate(14.103 59.435)"/>
            <path fill="#7F786A" d="M81.121 86.815s-1.405-15.08 3.335-20.224 20.366-6.285 29.32-5.45c8.953.834 19.76 2.946 24.363 6.994 4.604 4.049 4.955 42.895 4.955 42.895s-18.083 5.86-26.334 4.98c-8.252-.881-27.037-1.863-30.197-4.98-3.16-3.118-4.953-12.27-5.636-13.501-.683-1.233.194-10.714.194-10.714" transform="translate(0 2) translate(14.103 59.435)"/>
            <path fill="#7F786A" d="M84.457 66.591s-3.703 1.953-5.224 6.295c-1.522 4.341-1.99 11.169-1.99 11.169l3.812 3.509s2.071-3.018 3.402-7.206c1.33-4.187 2.851-9.936 2.617-10.875-.234-.939-2.617-2.892-2.617-2.892M134.717 65.947s7.015 1.82 11.696 12.827c4.682 11.009 12.003 18.374 12.992 18.283 2.574-.234 16.152-14.667 18.024-16.192 1.872-1.526 14.35 7.371 13.152 8.994-5.221 7.084-8.002 9.78-12.8 15.178-3.932 4.42-12.524 10.443-16.504 11.968-3.98 1.526-8.818 1.408-15.021-5.397-6.202-6.807-11.999-12.204-11.539-12.556.46-.352-9.487-25.58-9.487-25.58l9.487-7.525z" transform="translate(0 2) translate(14.103 59.435)"/>
            <path fill="#7F786A" d="M146.256 108.205s12.17 25.316 14.122 31.55c1.953 6.233-1.901 15.15-2.432 15.854-.531.704-7.553 4.943-10.83 1.886-3.277-3.06-19.09-15.072-19.026-23.967.065-8.896 5.118-30.956 5.118-30.956l13.048 5.633z" transform="translate(0 2) translate(14.103 59.435)"/>
            <path fill="#7F786A" d="M119.673 137.54c1.17-.236 46.256 8.917 54.683 11.087 8.427 2.172 7.153 34.087 7.17 48.235.018 16.594-1.698 15.714-4.307 16.32-2.656.614-11.553 1.684-13.073-1.837-.85-1.965-4.722-41.773-8.018-44.237-3.297-2.464-32.241-3.872-33.646-4.223-1.405-.353-21.067-3.991-21.067-7.276 0-3.286 5.969-18.077 5.969-18.077l12.29.007z" transform="translate(0 2) translate(14.103 59.435)"/>
            <path fill="#7F786A" d="M153.085 133.528c1.17 1.76 41.688 4.891 51.754 10.391 7.64 4.174 8.756 36.33 9.34 52.942.48 13.598-.935 16.122-4.916 16.009-2.81-.08-10.299 1.38-11.527-1.408-.864-1.958-4-41.89-7.296-44.354-3.297-2.464-33.492-3.871-34.897-4.224-1.405-.352-21.067-3.99-21.067-7.275s5.968-20.07 5.968-20.07l12.64-2.011z" transform="translate(0 2) translate(14.103 59.435)"/>
            <path fill="#A29C8F" d="M136.157 67.048c-3.443 2.554-5.354 6.569-5.104 10.866.026.45.728.453.702 0-.234-4.03 1.512-7.85 4.756-10.26.36-.265.01-.877-.354-.606M165.481 102.836c-1.458-2.009-3.12-3.83-4.997-5.454-.341-.294-.84.202-.497.498 1.83 1.583 3.465 3.352 4.888 5.311.263.364.872.012.606-.355M161.332 141.296c-.194 3.423-1.46 6.542-3.706 9.128-.296.34.198.84.496.497 2.37-2.728 3.707-6.013 3.913-9.625.025-.453-.677-.451-.703 0M204.66 153.424c-.612.76-1.274 1.472-2.003 2.119-.383.339-.782.658-1.195.96-.217.16-.442.311-.667.46-.09.06-.182.117-.274.174-.06.02-.089.061-.123.1-.05-.25-.362-.44-.577-.197-.219.247-.264.553-.008.8.41.395.972-.032 1.336-.271 1.525-.995 2.865-2.23 4.008-3.647.282-.35-.212-.85-.496-.498M204.876 157.201c-.71.823-1.663 1.319-2.75 1.39-.449.028-.452.733 0 .704 1.265-.082 2.414-.631 3.247-1.596.294-.34-.2-.84-.497-.498M83.896 68.255c-1.068 2.55-1.296 5.232-.713 7.93.095.444.773.256.677-.186-.558-2.582-.305-5.126.713-7.558.175-.415-.504-.598-.677-.186M173.449 155.609L179.301 155.609 179.301 135.544 173.449 135.544z" transform="translate(0 2) translate(14.103 59.435)"/>
            <path fill="#7F786A" d="M133.207 177.434L116.471 167.694 149.944 167.694z" transform="translate(0 2) translate(14.103 59.435)"/>
            <path fill="#7F786A" d="M129.131 226.614L137.285 226.614 137.285 167.109 129.131 167.109z" transform="translate(0 2) translate(14.103 59.435)"/>
            <path fill="#A29C8F" d="M59.538 88.383c-.006 9.46 15.002 63.74 23.02 71.128 8.694 8.012 26.168 8.536 54.961 8.77 28.37.232 50.366-.679 55.477-1.173 9.713-.94 7.958-12.086 2.77-12.175-4.271-.074-32.03.676-39.521-3.078-7.49-3.756-12.64-61.25-20.6-69.23-7.023-7.042-76.095-8.7-76.107 5.758" transform="translate(0 2) translate(14.103 59.435)"/>
            <path fill="#7F786A" d="M132.55 213.187l-24.36 12.423c-1.359.693-.867 2.749.657 2.749h48.72c1.524 0 2.016-2.056.658-2.75l-24.36-12.422c-.414-.21-.902-.21-1.315 0M149.573 127.125c.351.02 35.58-.748 38.39 1.047 2.808 1.794 4.915 10.914-2.224 11.661-7.14.748-28.155-.515-34.995 0-5.267.397-6.203-13.002-1.17-12.708M142.28 115.147c-1.615 3.275-5.635 2.979-8.739 2.998-3.129.02-6.259.043-9.387.055-6.31.022-12.62-.012-18.93-.106-12.853-.188-25.7-.624-38.537-1.29-.452-.023-.451.68 0 .704 13.77.715 27.553 1.162 41.341 1.327 6.674.081 13.348.087 20.021.047 3.28-.019 6.777.283 10.027-.218 2.026-.314 3.873-1.261 4.81-3.163.2-.404-.405-.76-.606-.354" transform="translate(0 2) translate(14.103 59.435)"/>
            <path fill="#7F786A" d="M132.993 100.436c-1.537-5.432-3.352-12.522-.566-17.826.21-.4-.396-.757-.606-.355-2.613 4.972-1.328 11.388.005 16.565 1.561 6.062 3.91 11.897 5.033 18.075.081.444.76.256.678-.188-1.013-5.562-3.01-10.847-4.544-16.271M155.612 154.395c-.738 1.338-2.384 3.991-4.11 3.94-1.67-.05-2.827-2.882-3.488-4.24-1.721-3.539-3.222-7.19-4.534-10.901-2.514-7.113-4.27-14.47-5.297-21.944-.062-.448-.738-.257-.677.187 1.262 9.185 3.638 18.188 7.133 26.773 1.376 3.38 2.715 7.607 5.35 10.238 1.15 1.147 1.654 1.147 2.935.183 1.386-1.043 2.46-2.367 3.294-3.881.218-.397-.388-.752-.606-.355M197.199 160.809c-7.473.757-14.988.79-22.492.832-7.425.043-14.878-.064-22.157-1.692-.44-.1-.628.58-.186.679 7.119 1.592 14.409 1.754 21.675 1.721 7.726-.035 15.466-.057 23.16-.837.446-.045.45-.75 0-.703" transform="translate(0 2) translate(14.103 59.435)"/>
            <path fill="#FD9F00" d="M103.55 213.724v9.635c0 3.339-17.786 6.047-39.727 6.047-21.942 0-39.728-2.708-39.728-6.047v-9.635h79.456z" transform="translate(0 2) translate(14.103 59.435)"/>
        </g>
        <g transform="translate(0 2) translate(37.273 271.989)">
            <mask id="prefix__r" fill="#fff">
                <use xlink:href="#prefix__q"/>
            </mask>
            <path fill="#E38601" d="M77.895 18.98L79.796 18.98 79.796-3.274 77.895-3.274zM72.968 18.98L74.868 18.98 74.868-3.274 72.968-3.274zM67.343 18.98L69.244 18.98 69.244-3.274 67.343-3.274zM60.325 18.98L62.226 18.98 62.226-3.274 60.325-3.274zM52.609 18.98L54.51 18.98 54.51-3.274 52.609-3.274zM44.196 18.98L46.097 18.98 46.097-3.274 44.196-3.274zM1.28 18.98L3.18 18.98 3.18-3.274 1.28-3.274zM6.206 18.98L8.107 18.98 8.107-3.274 6.206-3.274zM11.832 18.98L13.732 18.98 13.732-3.274 11.832-3.274zM18.85 18.98L20.751 18.98 20.751-3.274 18.85-3.274zM26.565 18.98L28.466 18.98 28.466-3.274 26.565-3.274zM34.978 18.98L36.879 18.98 36.879-3.274 34.978-3.274z" mask="url(#prefix__r)"/>
        </g>
        <g>
            <path fill="#FAC61B" d="M.401 11.658c0 3.365 17.97 6.093 40.137 6.093s40.136-2.728 40.136-6.093c0-3.366-17.969-6.094-40.136-6.094S.4 8.292.4 11.658" transform="translate(0 2) translate(37.273 261.915)"/>
            <path fill="#FD9F00" d="M8.63 11.016c0 1.563 14.286 2.829 31.908 2.829s31.907-1.266 31.907-2.829c0-1.562-14.285-2.828-31.907-2.828S8.63 9.454 8.63 11.016" transform="translate(0 2) translate(37.273 261.915)"/>
            <path fill="#E38601" d="M71.07 11.839c-3.974-1.16-16.138-2.006-30.532-2.006-14.395 0-26.558.845-30.533 2.006-.891-.26-1.375-.536-1.375-.822 0-1.562 14.286-2.829 31.908-2.829s31.907 1.267 31.907 2.829c0 .286-.483.562-1.375.822" transform="translate(0 2) translate(37.273 261.915)"/>
            <path fill="#FD9F00" d="M86.487.874v9.708c0 3.365-17.97 6.093-40.137 6.093S6.214 13.947 6.214 10.582V.874h80.273z" transform="translate(0 2) translate(37.273 261.915)"/>
        </g>
        <g transform="translate(0 2) translate(43.317 261.915)">
            <mask id="prefix__t" fill="#fff">
                <use xlink:href="#prefix__s"/>
            </mask>
            <path fill="#E38601" d="M77.663 19.095L79.564 19.095 79.564-3.159 77.663-3.159zM72.736 19.095L74.637 19.095 74.637-3.159 72.736-3.159zM67.112 19.095L69.013 19.095 69.013-3.159 67.112-3.159zM60.094 19.095L61.994 19.095 61.994-3.159 60.094-3.159zM52.377 19.095L54.278 19.095 54.278-3.159 52.377-3.159zM43.964 19.095L45.865 19.095 45.865-3.159 43.964-3.159zM1.049 19.095L2.949 19.095 2.949-3.159 1.049-3.159zM5.976 19.095L7.876 19.095 7.876-3.159 5.976-3.159zM11.6 19.095L13.501 19.095 13.501-3.159 11.6-3.159zM18.618 19.095L20.519 19.095 20.519-3.159 18.618-3.159zM26.334 19.095L28.234 19.095 28.234-3.159 26.334-3.159zM34.746 19.095L36.647 19.095 36.647-3.159 34.746-3.159z" mask="url(#prefix__t)"/>
        </g>
        <g>
            <path fill="#FAC61B" d="M7.221 11.773c0 3.366 17.97 6.093 40.137 6.093s40.136-2.727 40.136-6.093-17.97-6.094-40.136-6.094C25.19 5.68 7.22 8.407 7.22 11.773" transform="translate(0 2) translate(36.265 250.834)"/>
            <path fill="#FD9F00" d="M15.45 11.133c0 1.56 14.286 2.828 31.908 2.828s31.907-1.267 31.907-2.828c0-1.563-14.285-2.83-31.907-2.83S15.45 9.57 15.45 11.134" transform="translate(0 2) translate(36.265 250.834)"/>
            <path fill="#E38601" d="M77.89 11.955c-3.975-1.16-16.138-2.006-30.532-2.006-14.394 0-26.558.845-30.533 2.006-.89-.261-1.374-.536-1.374-.822 0-1.563 14.285-2.829 31.907-2.829s31.907 1.266 31.907 2.829c0 .286-.483.561-1.375.822" transform="translate(0 2) translate(36.265 250.834)"/>
            <path fill="#FD9F00" d="M80.973.916v9.708c0 3.366-17.97 6.095-40.136 6.095C18.669 16.719.7 13.989.7 10.624V.916h80.273z" transform="translate(0 2) translate(36.265 250.834)"/>
        </g>
        <g transform="translate(0 2) translate(36.265 250.834)">
            <mask id="prefix__v" fill="#fff">
                <use xlink:href="#prefix__u"/>
            </mask>
            <path fill="#E38601" d="M78.194 19.138L80.095 19.138 80.095-3.116 78.194-3.116zM73.267 19.138L75.168 19.138 75.168-3.116 73.267-3.116zM67.642 19.138L69.543 19.138 69.543-3.116 67.642-3.116zM60.623 19.138L62.524 19.138 62.524-3.116 60.623-3.116zM52.908 19.138L54.809 19.138 54.809-3.116 52.908-3.116zM44.494 19.138L46.395 19.138 46.395-3.116 44.494-3.116zM1.579 19.138L3.479 19.138 3.479-3.116 1.579-3.116zM6.506 19.138L8.406 19.138 8.406-3.116 6.506-3.116zM12.13 19.138L14.031 19.138 14.031-3.116 12.13-3.116zM19.148 19.138L21.049 19.138 21.049-3.116 19.148-3.116zM26.864 19.138L28.765 19.138 28.765-3.116 26.864-3.116zM35.276 19.138L37.177 19.138 37.177-3.116 35.276-3.116z" mask="url(#prefix__v)"/>
        </g>
        <g>
            <path fill="#FAC61B" d="M.695 6.635c0 3.294 17.83 5.964 39.826 5.964 21.995 0 39.826-2.67 39.826-5.964 0-3.294-17.83-5.964-39.826-5.964C18.525.671.695 3.341.695 6.635" transform="translate(0 2) translate(36.265 244.79)"/>
            <path fill="#FD9F00" d="M8.86 6.007c0 1.53 14.175 2.769 31.66 2.769 17.486 0 31.661-1.24 31.661-2.769 0-1.528-14.175-2.768-31.66-2.768-17.486 0-31.66 1.24-31.66 2.768" transform="translate(0 2) translate(36.265 244.79)"/>
            <path fill="#E38601" d="M70.817 6.812C66.873 5.677 54.803 4.85 40.52 4.85c-14.282 0-26.352.828-30.296 1.963-.884-.254-1.364-.524-1.364-.804 0-1.528 14.175-2.769 31.66-2.769 17.487 0 31.66 1.24 31.66 2.769 0 .28-.48.55-1.363.804" transform="translate(0 2) translate(36.265 244.79)"/>
            <path fill="#FFB127" d="M313.026 31.38v8.872c0 3.076 16.649 5.569 37.187 5.569 20.539 0 37.187-2.493 37.187-5.569v-8.871h-74.374z" transform="translate(0 2) translate(36.265 244.79)"/>
        </g>
        <g transform="translate(0 2) translate(348.549 275.011)">
            <mask id="prefix__x" fill="#fff">
                <use xlink:href="#prefix__w"/>
            </mask>
            <path fill="#E38601" d="M.979 17.85L2.754 17.85 2.754-2.93.979-2.93zM5.58 17.85L7.355 17.85 7.355-2.93 5.58-2.93zM10.832 17.85L12.607 17.85 12.607-2.93 10.832-2.93zM17.385 17.85L19.16 17.85 19.16-2.93 17.385-2.93zM24.59 17.85L26.365 17.85 26.365-2.93 24.59-2.93zM32.445 17.85L34.22 17.85 34.22-2.93 32.445-2.93zM72.518 17.85L74.293 17.85 74.293-2.93 72.518-2.93zM67.918 17.85L69.693 17.85 69.693-2.93 67.918-2.93zM62.666 17.85L64.441 17.85 64.441-2.93 62.666-2.93zM56.112 17.85L57.887 17.85 57.887-2.93 56.112-2.93zM48.908 17.85L50.683 17.85 50.683-2.93 48.908-2.93zM41.052 17.85L42.827 17.85 42.827-2.93 41.052-2.93z" mask="url(#prefix__x)"/>
        </g>
        <g>
            <path fill="#FAC61B" d="M81.157 10.739c0 3.142-16.778 5.69-37.477 5.69-20.698 0-37.477-2.548-37.477-5.69 0-3.142 16.78-5.69 37.477-5.69 20.699 0 37.477 2.548 37.477 5.69" transform="translate(0 2) translate(342.505 265.945)"/>
            <path fill="#FD9F00" d="M73.474 10.14c0 1.459-13.34 2.641-29.794 2.641-16.453 0-29.793-1.182-29.793-2.64 0-1.459 13.34-2.641 29.793-2.641 16.454 0 29.794 1.182 29.794 2.64" transform="translate(0 2) translate(342.505 265.945)"/>
            <path fill="#E38601" d="M15.171 10.908c3.711-1.084 15.07-1.873 28.51-1.873 13.44 0 24.798.79 28.509 1.873.832-.243 1.283-.5 1.283-.767 0-1.46-13.338-2.642-29.792-2.642-16.455 0-29.793 1.183-29.793 2.642 0 .267.451.524 1.283.767" transform="translate(0 2) translate(342.505 265.945)"/>
            <path fill="#FFB127" d="M.776.67v9.064c0 3.143 16.78 5.69 37.477 5.69 20.698 0 37.477-2.547 37.477-5.69V.669H.776z" transform="translate(0 2) translate(342.505 265.945)"/>
        </g>
        <g transform="translate(0 2) translate(342.505 265.945)">
            <mask id="prefix__z" fill="#fff">
                <use xlink:href="#prefix__y"/>
            </mask>
            <path fill="#E38601" d="M1.597 17.684L3.372 17.684 3.372-3.095 1.597-3.095zM6.196 17.684L7.971 17.684 7.971-3.095 6.196-3.095zM11.449 17.684L13.224 17.684 13.224-3.095 11.449-3.095zM18.003 17.684L19.778 17.684 19.778-3.095 18.003-3.095zM25.206 17.684L26.981 17.684 26.981-3.095 25.206-3.095zM33.062 17.684L34.837 17.684 34.837-3.095 33.062-3.095zM73.136 17.684L74.911 17.684 74.911-3.095 73.136-3.095zM68.535 17.684L70.309 17.684 70.309-3.095 68.535-3.095zM63.283 17.684L65.058 17.684 65.058-3.095 63.283-3.095zM56.729 17.684L58.504 17.684 58.504-3.095 56.729-3.095zM49.525 17.684L51.299 17.684 51.299-3.095 49.525-3.095zM41.67 17.684L43.445 17.684 43.445-3.095 41.67-3.095z" mask="url(#prefix__z)"/>
        </g>
        <g>
            <path fill="#FAC61B" d="M75.73 10.574c0 3.142-16.779 5.69-37.477 5.69-20.698 0-37.477-2.548-37.477-5.69 0-3.142 16.779-5.69 37.477-5.69 20.698 0 37.477 2.548 37.477 5.69" transform="translate(0 2) translate(342.505 255.871)"/>
            <path fill="#FD9F00" d="M68.046 9.976c0 1.457-13.339 2.64-29.793 2.64-16.455 0-29.793-1.183-29.793-2.64 0-1.46 13.338-2.642 29.793-2.642 16.454 0 29.793 1.183 29.793 2.642" transform="translate(0 2) translate(342.505 255.871)"/>
            <path fill="#E38601" d="M9.744 10.743c3.71-1.084 15.068-1.873 28.51-1.873 13.44 0 24.796.789 28.509 1.873.832-.243 1.283-.5 1.283-.769 0-1.457-13.339-2.64-29.793-2.64S8.46 8.517 8.46 9.974c0 .268.452.526 1.284.769" transform="translate(0 2) translate(342.505 255.871)"/>
            <path fill="#FFB127" d="M6.865.436v9.065c0 3.142 16.779 5.689 37.477 5.689 20.699 0 37.477-2.547 37.477-5.689V.436H6.865z" transform="translate(0 2) translate(342.505 255.871)"/>
        </g>
        <g transform="translate(0 2) translate(348.549 255.871)">
            <mask id="prefix__B" fill="#fff">
                <use xlink:href="#prefix__A"/>
            </mask>
            <path fill="#E38601" d="M1.641 17.452L3.416 17.452 3.416-3.328 1.641-3.328zM6.242 17.452L8.017 17.452 8.017-3.328 6.242-3.328zM11.494 17.452L13.269 17.452 13.269-3.328 11.494-3.328zM18.048 17.452L19.823 17.452 19.823-3.328 18.048-3.328zM25.252 17.452L27.027 17.452 27.027-3.328 25.252-3.328zM33.107 17.452L34.881 17.452 34.881-3.328 33.107-3.328zM73.18 17.452L74.955 17.452 74.955-3.328 73.18-3.328zM68.579 17.452L70.354 17.452 70.354-3.328 68.579-3.328zM63.327 17.452L65.102 17.452 65.102-3.328 63.327-3.328zM56.774 17.452L58.549 17.452 58.549-3.328 56.774-3.328zM49.569 17.452L51.344 17.452 51.344-3.328 49.569-3.328zM41.715 17.452L43.49 17.452 43.49-3.328 41.715-3.328z" mask="url(#prefix__B)"/>
        </g>
        <g>
            <path fill="#FAC61B" d="M75.775 10.34c0 3.142-16.78 5.69-37.477 5.69C17.6 16.03.821 13.482.821 10.34.821 7.2 17.6 4.65 38.298 4.65c20.698 0 37.477 2.549 37.477 5.69" transform="translate(0 2) translate(348.549 245.797)"/>
            <path fill="#FD9F00" d="M68.091 9.742c0 1.458-13.34 2.64-29.793 2.64-16.454 0-29.793-1.182-29.793-2.64 0-1.458 13.339-2.64 29.793-2.64s29.793 1.182 29.793 2.64" transform="translate(0 2) translate(348.549 245.797)"/>
            <path fill="#E38601" d="M9.788 10.51c3.713-1.084 15.07-1.873 28.51-1.873 13.44 0 24.798.789 28.51 1.873.831-.243 1.283-.5 1.283-.768 0-1.459-13.339-2.641-29.793-2.641S8.505 8.283 8.505 9.742c0 .267.451.525 1.283.768" transform="translate(0 2) translate(348.549 245.797)"/>
            <path fill="#FFB127" d="M3.457.073v9.064c0 3.142 16.78 5.69 37.478 5.69s37.477-2.548 37.477-5.69V.073H3.457z" transform="translate(0 2) translate(348.549 245.797)"/>
        </g>
        <g transform="translate(0 2) translate(351.57 245.797)">
            <mask id="prefix__D" fill="#fff">
                <use xlink:href="#prefix__C"/>
            </mask>
            <path fill="#E38601" d="M1.256 17.087L3.031 17.087 3.031-3.692 1.256-3.692zM5.857 17.087L7.632 17.087 7.632-3.692 5.857-3.692zM11.108 17.087L12.883 17.087 12.883-3.692 11.108-3.692zM17.662 17.087L19.437 17.087 19.437-3.692 17.662-3.692zM24.867 17.087L26.642 17.087 26.642-3.692 24.867-3.692zM32.721 17.087L34.496 17.087 34.496-3.692 32.721-3.692zM72.795 17.087L74.57 17.087 74.57-3.692 72.795-3.692zM68.195 17.087L69.97 17.087 69.97-3.692 68.195-3.692zM62.942 17.087L64.717 17.087 64.717-3.692 62.942-3.692zM56.389 17.087L58.163 17.087 58.163-3.692 56.389-3.692zM49.185 17.087L50.96 17.087 50.96-3.692 49.185-3.692zM41.329 17.087L43.104 17.087 43.104-3.692 41.329-3.692z" mask="url(#prefix__D)"/>
        </g>
        <g>
            <path fill="#FAC61B" d="M84.456 10.984c0 3.143-16.779 5.69-37.477 5.69-20.698 0-37.477-2.547-37.477-5.69 0-3.142 16.779-5.689 37.477-5.689 20.698 0 37.477 2.547 37.477 5.689" transform="translate(0 2) translate(342.505 234.716)"/>
            <path fill="#FD9F00" d="M76.772 10.386c0 1.458-13.338 2.64-29.793 2.64-16.454 0-29.793-1.182-29.793-2.64 0-1.459 13.34-2.642 29.793-2.642 16.455 0 29.793 1.183 29.793 2.642" transform="translate(0 2) translate(342.505 234.716)"/>
            <path fill="#E38601" d="M18.47 11.154C22.18 10.07 33.539 9.28 46.979 9.28s24.798.79 28.51 1.874c.832-.244 1.283-.5 1.283-.769 0-1.458-13.339-2.64-29.793-2.64s-29.793 1.182-29.793 2.64c0 .268.451.525 1.284.77" transform="translate(0 2) translate(342.505 234.716)"/>
            <path fill="#FFB127" d="M.557.85v9.066c0 3.141 16.78 5.69 37.477 5.69 20.699 0 37.477-2.549 37.477-5.69V.85H.557z" transform="translate(0 2) translate(342.505 234.716)"/>
        </g>
        <g transform="translate(0 2) translate(342.505 234.716)">
            <mask id="prefix__F" fill="#fff">
                <use xlink:href="#prefix__E"/>
            </mask>
            <path fill="#E38601" d="M1.378 17.866L3.153 17.866 3.153-2.913 1.378-2.913zM5.979 17.866L7.754 17.866 7.754-2.913 5.979-2.913zM11.23 17.866L13.005 17.866 13.005-2.913 11.23-2.913zM17.784 17.866L19.559 17.866 19.559-2.913 17.784-2.913zM24.989 17.866L26.764 17.866 26.764-2.913 24.989-2.913zM32.844 17.866L34.619 17.866 34.619-2.913 32.844-2.913zM72.917 17.866L74.692 17.866 74.692-2.913 72.917-2.913zM68.317 17.866L70.092 17.866 70.092-2.913 68.317-2.913zM63.064 17.866L64.839 17.866 64.839-2.913 63.064-2.913zM56.511 17.866L58.286 17.866 58.286-2.913 56.511-2.913zM49.307 17.866L51.082 17.866 51.082-2.913 49.307-2.913zM41.451 17.866L43.226 17.866 43.226-2.913 41.451-2.913z" mask="url(#prefix__F)"/>
        </g>
        <g>
            <path fill="#FAC61B" d="M75.512 10.755c0 3.143-16.779 5.69-37.477 5.69-20.699 0-37.477-2.547-37.477-5.69 0-3.142 16.778-5.689 37.477-5.689 20.698 0 37.477 2.547 37.477 5.689" transform="translate(0 2) translate(342.505 224.643)"/>
            <path fill="#FD9F00" d="M67.828 10.157c0 1.458-13.339 2.64-29.793 2.64-16.455 0-29.793-1.182-29.793-2.64 0-1.46 13.338-2.64 29.793-2.64 16.454 0 29.793 1.18 29.793 2.64" transform="translate(0 2) translate(342.505 224.643)"/>
            <path fill="#E38601" d="M9.525 10.924c3.711-1.083 15.068-1.872 28.51-1.872 13.44 0 24.798.789 28.51 1.872.831-.242 1.283-.5 1.283-.768 0-1.458-13.339-2.64-29.793-2.64-16.455 0-29.793 1.182-29.793 2.64 0 .268.451.526 1.283.768" transform="translate(0 2) translate(342.505 224.643)"/>
            <path fill="#FFB127" d="M7.79.618v9.064c0 3.142 16.779 5.69 37.477 5.69 20.698 0 37.477-2.548 37.477-5.69V.618H7.79z" transform="translate(0 2) translate(342.505 224.643)"/>
        </g>
        <g transform="translate(0 2) translate(349.556 224.643)">
            <mask id="prefix__H" fill="#fff">
                <use xlink:href="#prefix__G"/>
            </mask>
            <path fill="#E38601" d="M1.558 17.632L3.333 17.632 3.333-3.147 1.558-3.147zM6.159 17.632L7.934 17.632 7.934-3.147 6.159-3.147zM11.411 17.632L13.186 17.632 13.186-3.147 11.411-3.147zM17.965 17.632L19.74 17.632 19.74-3.147 17.965-3.147zM25.169 17.632L26.944 17.632 26.944-3.147 25.169-3.147zM33.024 17.632L34.798 17.632 34.798-3.147 33.024-3.147zM73.098 17.632L74.873 17.632 74.873-3.147 73.098-3.147zM68.498 17.632L70.272 17.632 70.272-3.147 68.498-3.147zM63.245 17.632L65.019 17.632 65.019-3.147 63.245-3.147zM56.692 17.632L58.466 17.632 58.466-3.147 56.692-3.147zM49.487 17.632L51.262 17.632 51.262-3.147 49.487-3.147zM41.632 17.632L43.407 17.632 43.407-3.147 41.632-3.147z" mask="url(#prefix__H)"/>
        </g>
        <g>
            <path fill="#FAC61B" d="M81.737 10.522c0 3.143-16.779 5.69-37.477 5.69-20.699 0-37.477-2.547-37.477-5.69 0-3.142 16.778-5.69 37.477-5.69 20.698 0 37.477 2.548 37.477 5.69" transform="translate(0 2) translate(343.512 213.562)"/>
            <path fill="#FD9F00" d="M74.053 9.923c0 1.46-13.339 2.64-29.793 2.64s-29.793-1.18-29.793-2.64c0-1.458 13.339-2.64 29.793-2.64s29.793 1.182 29.793 2.64" transform="translate(0 2) translate(343.512 213.562)"/>
            <path fill="#E38601" d="M15.75 10.692c3.712-1.084 15.07-1.873 28.51-1.873 13.44 0 24.798.789 28.509 1.873.832-.243 1.283-.5 1.283-.769 0-1.459-13.338-2.641-29.793-2.641-16.454 0-29.792 1.182-29.792 2.641 0 .268.45.526 1.283.769" transform="translate(0 2) translate(343.512 213.562)"/>
            <path fill="#FFB127" d="M.291.385v9.064c0 3.142 16.779 5.69 37.477 5.69 20.699 0 37.477-2.548 37.477-5.69V.385H.291z" transform="translate(0 2) translate(343.512 213.562)"/>
        </g>
        <g transform="translate(0 2) translate(343.512 213.562)">
            <mask id="prefix__J" fill="#fff">
                <use xlink:href="#prefix__I"/>
            </mask>
            <path fill="#E38601" d="M1.111 17.399L2.886 17.399 2.886-3.38 1.111-3.38zM5.712 17.399L7.487 17.399 7.487-3.38 5.712-3.38zM10.964 17.399L12.739 17.399 12.739-3.38 10.964-3.38zM17.517 17.399L19.292 17.399 19.292-3.38 17.517-3.38zM24.722 17.399L26.497 17.399 26.497-3.38 24.722-3.38zM32.577 17.399L34.352 17.399 34.352-3.38 32.577-3.38zM72.65 17.399L74.425 17.399 74.425-3.38 72.65-3.38zM68.05 17.399L69.825 17.399 69.825-3.38 68.05-3.38zM62.797 17.399L64.572 17.399 64.572-3.38 62.797-3.38zM56.244 17.399L58.019 17.399 58.019-3.38 56.244-3.38zM49.04 17.399L50.815 17.399 50.815-3.38 49.04-3.38zM41.184 17.399L42.959 17.399 42.959-3.38 41.184-3.38z" mask="url(#prefix__J)"/>
        </g>
        <g>
            <path fill="#FAC61B" d="M75.245 6.194c0 3.11-16.779 5.63-37.477 5.63-20.698 0-37.477-2.52-37.477-5.63S17.07.564 37.768.564c20.698 0 37.477 2.52 37.477 5.63" transform="translate(0 2) translate(343.512 208.525)"/>
            <path fill="#FFB127" d="M67.561 5.602c0 1.443-13.34 2.614-29.792 2.614-16.456 0-29.794-1.17-29.794-2.614s13.338-2.613 29.794-2.613c16.453 0 29.792 1.17 29.792 2.613" transform="translate(0 2) translate(343.512 208.525)"/>
            <path fill="#E38601" d="M9.259 6.362c3.71-1.072 15.068-1.853 28.51-1.853 13.44 0 24.797.78 28.509 1.853.832-.241 1.283-.495 1.283-.76 0-1.444-13.339-2.613-29.793-2.613S7.975 4.159 7.975 5.602c0 .265.452.519 1.284.76" transform="translate(0 2) translate(343.512 208.525)"/>
            <path fill="#B5905C" d="M26.841 81.697c-3.602-4.788-5.869-13.967-6.154-20.493-1.05-23.962 10.525-39.952 29.826-44.344l7.26-1.652L72.826 79.93C66 81.317 64.83 95.007 60.053 94.06c-4.779-.948-33.212-12.364-33.212-12.364" transform="translate(0 2) translate(343.512 208.525)"/>
            <path fill="#FD9F00" d="M57.004 15.27l7.261-1.652 18.356 78.987-7.248 1.706c-19.3 4.392-39.06-9.74-44.131-31.567-5.072-21.827 6.462-43.082 25.762-47.474" transform="translate(0 2) translate(343.512 208.525)"/>
        </g>
        <g transform="translate(0 2) translate(373.733 220.613)">
            <mask id="prefix__L" fill="#fff">
                <use xlink:href="#prefix__K"/>
            </mask>
            <path fill="#E38601" d="M5.279 92.678L4.831 90.694 51.481 79.764 51.929 81.746z" mask="url(#prefix__L)"/>
            <mask id="prefix__N" fill="#fff">
                <use xlink:href="#prefix__M"/>
            </mask>
            <path fill="#E38601" d="M4.118 87.535L3.67 85.551 50.32 74.621 50.769 76.604z" mask="url(#prefix__N)"/>
            <mask id="prefix__P" fill="#fff">
                <use xlink:href="#prefix__O"/>
            </mask>
            <path fill="#E38601" d="M2.793 81.665L2.345 79.681 48.995 68.751 49.443 70.734z" mask="url(#prefix__P)"/>
            <mask id="prefix__R" fill="#fff">
                <use xlink:href="#prefix__Q"/>
            </mask>
            <path fill="#E38601" d="M1.139 74.34L0.692 72.356 47.342 61.425 47.79 63.409z" mask="url(#prefix__R)"/>
            <g>
                <mask id="prefix__T" fill="#fff">
                    <use xlink:href="#prefix__S"/>
                </mask>
                <path fill="#E38601" d="M-0.678 66.288L-1.126 64.303 45.524 53.373 45.973 55.356z" mask="url(#prefix__T)"/>
            </g>
            <g>
                <mask id="prefix__V" fill="#fff">
                    <use xlink:href="#prefix__U"/>
                </mask>
                <path fill="#E38601" d="M-2.66 57.507L-3.108 55.523 43.542 44.593 43.99 46.576z" mask="url(#prefix__V)"/>
            </g>
            <g>
                <mask id="prefix__X" fill="#fff">
                    <use xlink:href="#prefix__W"/>
                </mask>
                <path fill="#E38601" d="M33.881 1.785L-12.77 12.717 -13.217 10.732 33.433 -0.199z" mask="url(#prefix__X)"/>
            </g>
            <g>
                <mask id="prefix__Z" fill="#fff">
                    <use xlink:href="#prefix__Y"/>
                </mask>
                <path fill="#E38601" d="M-11.609 17.858L-12.057 15.875 34.593 4.944 35.041 6.927z" mask="url(#prefix__Z)"/>
            </g>
            <g>
                <mask id="prefix__ab" fill="#fff">
                    <use xlink:href="#prefix__aa"/>
                </mask>
                <path fill="#E38601" d="M-10.284 23.729L-10.732 21.745 35.918 10.815 36.367 12.798z" mask="url(#prefix__ab)"/>
            </g>
            <g>
                <mask id="prefix__ad" fill="#fff">
                    <use xlink:href="#prefix__ac"/>
                </mask>
                <path fill="#E38601" d="M-8.631 31.054L-9.079 29.07 37.572 18.139 38.019 20.123z" mask="url(#prefix__ad)"/>
            </g>
            <g>
                <mask id="prefix__af" fill="#fff">
                    <use xlink:href="#prefix__ae"/>
                </mask>
                <path fill="#E38601" d="M-6.813 39.107L-7.261 37.122 39.389 26.192 39.837 28.176z" mask="url(#prefix__af)"/>
            </g>
            <g>
                <mask id="prefix__ah" fill="#fff">
                    <use xlink:href="#prefix__ag"/>
                </mask>
                <path fill="#E38601" d="M-4.832 47.887L-5.279 45.902 41.371 34.972 41.819 36.955z" mask="url(#prefix__ah)"/>
            </g>
        </g>
        <g>
            <path fill="#FFD454" d="M168.686 269.376c5.02 21.85 24.572 35.999 43.67 31.602 19.1-4.396 30.513-25.676 25.494-47.525-5.02-21.851-24.571-35.998-43.67-31.601-19.099 4.396-30.513 25.673-25.494 47.524" transform="translate(0 2) translate(215.576)"/>
            <path fill="#FDE571" d="M236.781 255.035c-5.019-21.85-24.57-35.999-43.67-31.602-7.963 1.834-14.584 6.609-19.24 13.13 4.684-7.33 11.714-12.733 20.309-14.711 19.099-4.397 38.65 9.75 43.67 31.6 2.927 12.74.26 25.278-6.252 34.396 5.726-8.958 7.945-20.796 5.183-32.813" transform="translate(0 2) translate(215.576)"/>
            <path fill="#FDE571" d="M210.18 293.062c14.226-3.275 22.627-19.743 18.73-36.71-3.898-16.967-18.642-28.106-32.868-24.83-14.225 3.275-22.626 19.742-18.73 36.708 3.898 16.968 18.642 28.107 32.867 24.832" transform="translate(0 2) translate(215.576)"/>
            <path fill="#FFB127" d="M210.337 292.185c14.226-3.275 22.627-19.742 18.73-36.71-3.898-16.967-18.642-28.105-32.868-24.83-14.225 3.275-22.626 19.742-18.73 36.71 3.898 16.966 18.643 28.106 32.868 24.83" transform="translate(0 2) translate(215.576)"/>
            <path fill="#E38601" d="M194.771 264.184c.149.224.331.41.538.552l17.723 12.365c.435.303.922.385 1.36.273.437-.113.824-.418 1.06-.89.468-.944.147-2.203-.718-2.805l-13.947-9.732 2.708-.695c4.127-1.058 6.701-5.355 6.335-10.082l1.884-.484c.943-.242 1.48-1.327 1.2-2.422-.281-1.095-1.273-1.788-2.216-1.546l-1.883.483c-.633-1.411-1.542-2.599-2.594-3.564l3.46-.888c.944-.242 1.481-1.328 1.201-2.422-.28-1.096-1.273-1.788-2.216-1.546l-10.249 2.63-6.833 1.75c-.943.243-1.48 1.33-1.2 2.424.28 1.096 1.273 1.787 2.216 1.546l6.833-1.753c2.224-.57 4.528.61 5.826 2.735l-11.643 2.987c-.942.241-1.48 1.327-1.2 2.422.28 1.095 1.273 1.788 2.215 1.546l11.644-2.986c-.118 2.487-1.571 4.632-3.795 5.202l-6.833 1.753c-.222.056-.43.165-.614.318" transform="translate(0 2) translate(215.576)"/>
            <path fill="#FFD454" d="M210.337 244.093c.943-.241 1.48-1.327 1.2-2.423-.28-1.095-1.273-1.788-2.216-1.546l-10.248 2.629-6.833 1.753c-.943.242-1.481 1.327-1.2 2.422.28 1.095 1.273 1.789 2.216 1.547l6.833-1.753c2.223-.57 4.528.61 5.825 2.734l-11.642 2.987c-.943.242-1.481 1.327-1.2 2.423.28 1.095 1.273 1.787 2.216 1.546l11.642-2.987c-.117 2.488-1.57 4.632-3.794 5.202l-6.834 1.753c-.22.058-.43.166-.613.32-.365.308-.6.779-.65 1.311-.05.53.09 1.076.387 1.516.149.224.331.41.539.551l17.724 12.367c.433.303.92.385 1.358.272.438-.111.825-.419 1.06-.889.47-.944.147-2.202-.717-2.806l-13.948-9.731 2.71-.695c4.127-1.059 6.7-5.356 6.335-10.083l1.882-.483c.943-.242 1.48-1.327 1.2-2.423-.28-1.095-1.273-1.787-2.216-1.545l-1.882.482c-.634-1.41-1.543-2.599-2.594-3.563l3.46-.888z" transform="translate(0 2) translate(215.576)"/>
            <path fill="#E38601" d="M207.216 291.191c14.226-3.275 22.628-19.742 18.73-36.71-2.629-11.443-10.194-20.228-19.203-23.734 10.35 2.53 19.396 11.984 22.324 24.728 3.898 16.968-4.505 33.435-18.73 36.71-4.631 1.066-9.314.597-13.664-1.097 3.43.839 7.002.917 10.543.103" transform="translate(0 2) translate(215.576)"/>
            <g transform="translate(0 2) translate(215.576) translate(308.48 138.716)">
                <mask id="prefix__aj" fill="#fff">
                    <use xlink:href="#prefix__ai"/>
                </mask>
                <path fill="#FFE1BD" d="M19.279 10.956c.68-.281.074-1.088-.575-1.151-.088-.01-.28-.001-.538.018 1.182-.258 2.143-.481 2.367-.574.646-.268.152-1.033-.456-1.167.472-.118.826-.214.971-.271.834-.329.21-1.139-.564-1.164-.173-.006-.64.051-1.245.14.311-.077.548-.14.651-.184.68-.282.262-1.039-.386-1.102-.212-.02-.57.04-1.435.155-.737.1-1.553.122-2.292.235-.67.103-3.93.216-4.685-1.204-1.156-2.176 3.291-1.858 3.73-3.75.137-.594-3.142-.247-4.92.22-1.777.464-2.665.708-3.658 1.171-1 .442-2.307 1.436-2.96 1.538-.654.1-2.533-.114-2.533-.114l-.61 5.99s3.639.152 4.589.645c2.278 1.272 4.604 2.046 7.251 2 1.658-.031 3.307-.35 4.925-.684 0 0 2.15-.654 2.373-.747" mask="url(#prefix__aj)"/>
            </g>
            <path fill="#FFE2B7" d="M234.229 276.905s3.64 5.12 5.306 6.664c1.668 1.544 7.058-3.257 6.87-4.689-.186-1.433-6.971-9.336-6.971-9.336" transform="translate(0 2) translate(215.576)"/>
            <path fill="#7F786A" d="M249.163 279.041c1.61 1.729 4.358 5.225 4.358 5.225l-4.51 5.792-1.49-.422s-.479 2.608-1.835 4.435c-1.007 1.356-3.48 3.728-4.877 4.675-4.888 3.315-9.263 4.336-9.974 3.763-2.973-2.396 3.479-6.86 4.647-7.952 3.355-3.131 3.678-7.693 2.882-10.137-.577-1.773-1.123-1.85-.212-2.266 0 0 .75-.448 1.88-.071 1.734.578 3.68.233 4.782-1.228.63-.837 1.118-1.83 1.132-2.91 0 0 1.607-.633 3.217 1.096" transform="translate(0 2) translate(215.576)"/>
            <path fill="#FFE2B7" d="M143.595 281.678s-1.643 6.065-1.778 8.334c-.133 2.27 6.993 3.394 7.981 2.34.987-1.053 2.782-11.318 2.782-11.318" transform="translate(0 2) translate(215.576)"/>
            <path fill="#7F786A" d="M151.422 294.587c-.313 2.344-1.267 6.689-1.267 6.689l-7.334.185-.62-1.42s-2.316 1.285-4.588 1.394c-1.686.081-5.086-.326-6.704-.806-5.661-1.678-9.226-4.416-9.234-5.33-.037-3.82 7.504-1.662 9.087-1.45 4.547.609 8.273-2.036 9.655-4.202 1.003-1.572.716-2.044 1.615-1.604 0 0 .822.296 1.248 1.409.655 1.71 2.157 2.998 3.983 2.922 1.044-.043 2.12-.295 2.964-.97 0 0 1.508.84 1.195 3.183M175.97 152.378s-20.69 52.77-23.244 64.116c-2.556 11.348-12.255 68.485-12.255 68.485s9.079 2.577 12.414 1.43c2.284-9.395 25.69-81.896 40.97-101.375 15.281-19.48-17.885-32.656-17.885-32.656" transform="translate(0 2) translate(215.576)"/>
            <path fill="#7F786A" d="M190.496 181.5s-4.669 25.62 11.08 51.657c15.749 26.038 31.95 45.524 31.95 45.524s6.811-3.338 9.36-6.996c-4.803-6.578-26.309-43.832-26.3-58.39.007-14.558 5.601-49.09 5.601-49.09l-23.938-5.723-7.753 23.019z" transform="translate(0 2) translate(215.576)"/>
            <path fill="#FFE2B7" d="M308.845 148.439s-27.269 1.292-41.262-2.62c-13.993-3.911-37.957-21.048-37.957-21.048l-28.24-21.637c-7.237-9.073-16.398-34.765-17.843-39.428-1.434-4.69-6.59-36.682-6.59-36.682l5.997-.585s6.945 22.672 10.491 35.489c3.34 12.008 21.74 28.422 26.202 32.536l-.011.028c.325.261.564.489.74.624 2.786 2.36.562 6.925.562 6.925l4.801 1.804s5.174-2.664 8.416.207c.297.25.644.62 1.055 1.08 4.424 4.79 15.203 21.874 37.108 30.579 15.944 3.894 33.52 6.785 37.81 6.843-.921 4.15-1.279 5.885-1.279 5.885" transform="translate(0 2) translate(215.576)"/>
            <path fill="#FFE2B7" d="M235.206 105.13c-.894 1.591-6.658 5.5-11.722 3.487-9.869-4.514-4.243-13.555-3.853-14.124.325.261.564.488.742.623 2.785 2.36 4.83-3.33 4.83-3.33l9.962 5.504s-4.256 3.892-1.014 6.763c.296.25.644.618 1.055 1.078" transform="translate(0 2) translate(215.576)"/>
            <path fill="#A29C8F" d="M236.222 136.129s-8.812 20.4-12.248 34.299c-24.55 5.938-40.614-5.455-47.944-12.72-3.088-3.006-4.619-5.296-4.619-5.296s6.635-12.001 10.568-20.922c3.971-8.938 9.993-20.558 14.372-28.444.235-1.259-3.783-7.404-7.837-16.202 5.536-2.252 14.367-11.237 14.367-11.237l16.75 18.885s-5.07 8.305 1.45 12.709c6.509 4.432 10.778.556 14.125-2.07 2.647 3.623 16.657 16.212 25.216 22.119l-11.022 18.5s-9.711-5.574-13.178-9.621" transform="translate(0 2) translate(215.576)"/>
            <path fill="#FCBD30" d="M231.776 66.192c-1.434-.254-2.984.281-3.956 1.368-.972 1.087-1.335 2.688-.924 4.089-1.084-.636-2.56.137-3.093 1.275-.533 1.138-.374 2.47-.132 3.701.279 1.418.743 2.943 1.95 3.733.872.57 1.99.644 3.014.453.733-.135 1.45-.401 2.057-.835.688-.495 1.209-1.184 1.717-1.863 1.788-2.38 3.574-4.76 5.361-7.142.364-.485.749-1.056.62-1.648" transform="translate(0 2) translate(215.576)"/>
            <path fill="#FFE2B7" d="M245.115 93.584c-1.413 1.407-2.924 2.717-4.518 3.913-2.376 1.783-4.87 2.163-7.545.786-2.994-1.54-6.251-3.09-8.864-5.362-2.902-2.522-3.302-4.856-1.74-8.355.968-2.168 1.903-4.35 2.915-6.498 2.147-4.558 4.5-9.027 7.263-13.244.642-.981 1.399-2.421 2.804-1.82 4.424 1.892 8.672 4.194 12.674 6.868 2.826 1.889 5.664 4.14 6.837 7.332 1.182 3.214.465 6.778-.267 10.124-.117.538-.366 1.195-.915 1.225" transform="translate(0 2) translate(215.576)"/>
            <path fill="#FCBD30" d="M244.683 86.413c.841-.823 2.393.05 2.622 1.205.228 1.155-.38 2.295-.965 3.316-.728 1.267-2.127 2.142-3.438 2.783-1.31.643-2.66.64-3.013-.778-1.208 1.764-.669 4.137.542 5.008 1.212.87 3.018.789 4.147-.188 4.2 5.434 10.88-1.392 13.69-5.14 2.202-2.937 3.534-7.35 3.478-11.019-.031-1.999-.677-4.047-2.084-5.466 1.091-2.114.698-4.75-.421-6.849-1.12-2.098-2.409-3.54-4.134-5.176-1.066-1.008-4.94-2.2-6.341-1.343-1.483-2.792-4.352-2.802-6.328-3.74-1.977-.939-5.096-.52-5.36 1.655-2.337-2.69-7.536-1.364-8.483 2.074-.947 3.438 2.53 7.19 6.058 6.7-.338 2.423 1.148 4.844 3.212 6.154 2.063 1.31 4.597 1.67 7.04 1.635-1.254.704-2.354 2.055-2.573 3.653-.218 1.598-.329 2.815 1.75 3.59 0 0-1.962 2.772-1.143 2.908.82.138 1.744-.982 1.744-.982" transform="translate(0 2) translate(215.576)"/>
            <path fill="#FFE2B7" d="M173.305 9.417c.182-.714 1.066-.228 1.22.407.022.085.04.277.058.536.087-1.209.173-2.193.233-2.427.172-.678 1-.297 1.217.285.05-.484.097-.848.133-1 .206-.872 1.095-.37 1.23.394.03.172.04.642.037 1.254.032-.319.062-.563.09-.671.183-.714.99-.408 1.145.226.05.208.042.57.049 1.445.006.744.1 1.556.092 2.304-.007.678.343 3.925 1.854 4.473 2.316.838 1.371-3.525 3.181-4.227.568-.22.69 3.078.48 4.906-.21 1.828-.324 2.742-.641 3.792-.296 1.051-1.094 2.49-1.102 3.151-.008.662.47 2.494.47 2.494l-5.837 1.453s-.664-3.587-1.286-4.458c-1.58-2.077-2.676-4.273-3.003-6.903-.205-1.646-.124-3.325-.022-4.977 0 0 .342-2.223.402-2.457" transform="translate(0 2) translate(215.576)"/>
            <path fill="#7F786A" d="M223.974 170.428c-24.55 5.939-40.614-5.455-47.944-12.72 25.59 19.598 42.59 10.653 45.287 10.077.755-6.022 12.505-34.16 12.505-34.16s1.887 2.3 2.4 2.504c0 0-8.813 20.4-12.248 34.299" transform="translate(0 2) translate(215.576)"/>
            <path fill="#A29C8F" d="M177.146 190.542s-.558 6.178-.692 10.173c-1.443 2.498-2.488 4.4-2.488 4.4s.51-6.646 3.18-14.573" transform="translate(0 2) translate(215.576)"/>
            <path fill="#57575E" d="M5.64 22.566h76.724c2.92 0 5.29-2.37 5.29-5.296V5.42c0-2.925-2.37-5.296-5.29-5.296H5.64C2.72.124.351 2.495.351 5.42v11.85c0 2.925 2.369 5.296 5.29 5.296" transform="translate(0 2) translate(215.576)"/>
            <path fill="#FFE2B7" d="M14.269 7.114L16.246 12.933 16.27 12.933 18.14 7.114 20.757 7.114 20.757 15.575 19.016 15.575 19.016 9.58 18.992 9.58 16.921 15.575 15.489 15.575 13.417 9.638 13.393 9.638 13.393 15.575 11.653 15.575 11.653 7.114zM22.627 15.576L24.485 15.576 24.485 7.114 22.627 7.114zM28.203 7.114L31.731 12.79 31.755 12.79 31.755 7.114 33.496 7.114 33.496 15.575 31.637 15.575 28.121 9.912 28.097 9.912 28.097 15.575 26.356 15.575 26.356 7.114zM35.366 15.576L37.225 15.576 37.225 7.114 35.366 7.114zM46.47 14.13c.182 0 .355-.017.52-.053.166-.036.313-.094.44-.177.125-.084.226-.197.301-.338.075-.143.112-.325.112-.546 0-.435-.122-.744-.367-.93-.244-.186-.568-.279-.97-.279h-2.024v2.324h1.988zm-.106-3.591c.332 0 .604-.079.816-.238.213-.156.32-.414.32-.769 0-.198-.035-.36-.107-.487-.07-.126-.165-.225-.284-.295-.118-.072-.254-.121-.408-.15-.154-.026-.313-.04-.48-.04h-1.74v1.979h1.883zm.236-3.425c.403 0 .77.036 1.101.107.332.07.617.188.853.349.236.163.42.378.551.647.13.268.194.6.194.995 0 .427-.096.782-.29 1.066-.192.285-.48.518-.857.7.52.15.91.413 1.165.787.257.377.385.829.385 1.359 0 .426-.083.795-.248 1.107-.166.312-.389.567-.669.764-.28.197-.6.344-.96.439-.359.094-.728.142-1.105.142h-4.097V7.114H46.6zM55.516 12.305L54.45 9.201h-.024l-1.1 3.104h2.19zm-.107-5.191l3.16 8.462H56.64L56 13.692h-3.16l-.664 1.884h-1.87l3.196-8.462h1.907zM61.387 7.114L64.915 12.79 64.939 12.79 64.939 7.114 66.678 7.114 66.678 15.575 64.82 15.575 61.304 9.912 61.28 9.912 61.28 15.575 59.54 15.575 59.54 7.114zM70.408 7.114L70.408 10.622 73.711 7.114 76.031 7.114 72.729 10.457 76.351 15.575 74.02 15.575 71.474 11.771 70.408 12.85 70.408 15.575 68.55 15.575 68.55 7.114z" transform="translate(0 2) translate(215.576)"/>
        </g>
    </g>
</svg>
