<svg xmlns="http://www.w3.org/2000/svg" xmlns:xlink="http://www.w3.org/1999/xlink" width="433" height="245" viewBox="0 0 433 245">
    <defs>
        <path id="prefix__a" d="M50.472 13.727c.219 5.688-.846 9.491-1.562 11.365L33.741 39.919c8.293-12.564 12.035-31.3 6.158-35.406-5.855-4.092-7.322 8.667-6.864 20.524.344 8.96-1.319 14.976-2.456 17.972L12.391 60.79c7.962-12.548 11.733-31.153 5.688-34.681-4.659-2.721-6.861 5.31-6.402 18.689.311 9.091-1.606 15.998-2.866 19.492L.243 72.664c.346.76.818 1.325 1.395 1.671l3.409-3.333c2.905-.915 8.566-2.054 16.671-.793 10.859 1.689 22.74 1.4 19.569-5.315-3.166-6.704-20.606-4.627-32.988 2.93l14.994-14.657c3.155-.799 8.323-1.494 15.305-.407 10.859 1.689 22.741 1.399 19.569-5.316-2.972-6.293-18.525-4.847-30.663 1.606l19.255-18.822c2.007-.376 4.877-.585 8.54-.014 6.844 1.065 14.331.882 12.333-3.351-1.735-3.672-10.269-3.163-17.596.162l6.24-6.1c2.223-1.538 5.392-3.74 9.343-5.141 9.154-3.244 17.3-8.127 13.342-11.777C74.999.354 61.123 9.039 54.084 20.034l-3.211 3.139C56.13 15.254 58.512 3.387 54.798.792 54.318.456 53.883.3 53.493.3c-2.606-.001-3.271 6.928-3.021 13.427"/>
        <path id="prefix__d" d="M0.005 0.036L114.72 0.036 114.72 3.764 0.005 3.764z"/>
        <path id="prefix__f" d="M0.187 3.558L2.921 2.259 0.187 0.961z"/>
        <path id="prefix__i" d="M38.011 5.043C6.868 17.829-8.012 53.441 4.775 84.583c12.786 31.142 48.397 46.024 79.54 33.236 31.143-12.787 46.022-48.398 33.235-79.54C107.875 14.713 85.129.459 61.14.459c-7.712 0-15.553 1.473-23.129 4.584"/>
        <linearGradient id="prefix__b" x1="-29.604%" x2="95.851%" y1="101.706%" y2="17.018%">
            <stop offset="0%" stop-color="#FFB218"/>
            <stop offset="100%" stop-color="#FFCF44"/>
        </linearGradient>
        <linearGradient id="prefix__g" x1="99.966%" x2=".006%" y1="50.008%" y2="50.008%">
            <stop offset="0%" stop-color="#FFB218"/>
            <stop offset="100%" stop-color="#FFCF44"/>
        </linearGradient>
    </defs>
    <g fill="none" fill-rule="evenodd">
        <g>
            <path fill="#619440" d="M71.93 44.357c-.243-6.708 4.258-13.173 2.754-19.787-.964-4.24-4.49-6.754-8.496-5.395-5.078 1.723-7.167 7.033-8.947 11.913-1.266 3.469-2.646 6.61-5.293 9.133-2.272 2.165-4.953 3.75-7.394 5.668-4.295 3.372-6.652 7.528-7.916 13.036-1.401 6.108-1.581 13.353-6.461 17.705-3.985 3.554-9.995 4.716-12.337 10.2-2.552 5.976 1.438 15.018-4.487 19.114-2.503 1.73-5.283 2.425-7.541 4.64-1.747 1.713-3.119 3.844-4.075 6.16-2.069 5.019-2.1 10.79.298 15.57.104.207.252.336.416.41 1.799 5.045 3.987 10.227 8.09 13.479 3.633 2.879 8.574 4.033 12.747 1.553 7.103-4.222 8.006-14.576 13.095-20.711 1.812-2.184 3.986-3.35 6.696-3.536 2.966-.206 5.909.713 8.833-.291 4.277-1.468 6.608-5.878 7.701-10.296 1.657-6.698.018-14.091 2.962-20.472 2.638-5.72 8.389-8.804 11.241-14.388 5.465-10.702-1.489-22.75-1.886-33.705" transform="translate(122 77.207)"/>
            <path fill="#496B32" d="M64.054 32.682c-1.062 8.021-4.827 15.351-8.275 22.56-3.397 7.097-6.807 14.19-10.322 21.23-6.99 14.001-14.405 27.822-22.964 40.936-4.778 7.322-9.917 14.407-15.512 21.128-1.022 1.23.737 3.006 1.768 1.768 10.11-12.144 18.751-25.418 26.512-39.163 7.915-14.017 14.95-28.506 21.9-43.018 3.912-8.166 8.19-16.352 9.393-25.44.21-1.59-2.292-1.575-2.5 0" transform="translate(122 77.207)"/>
            <path fill="#496B32" d="M19.462 125.388c.025-7.597-.087-15.193-.337-22.785-.053-1.605-2.553-1.612-2.5 0 .25 7.592.362 15.188.337 22.785-.005 1.609 2.495 1.611 2.5 0M27.1 114.99c2.224-.767 4.519-.711 6.839-.767 2.308-.055 4.615-.201 6.912-.436 4.369-.447 9.127-.867 13.093-2.883 1.435-.73.17-2.887-1.261-2.16-1.952.993-4.093 1.414-6.234 1.78-2.328.397-4.672.695-7.026.898-2.21.19-4.422.285-6.638.322-2.152.037-4.297.128-6.35.836-1.511.522-.861 2.937.665 2.41M38.169 95.664c.715-2.3.725-4.692.689-7.077-.04-2.755-.036-5.508.025-8.262.12-5.448.453-10.887.98-16.31.155-1.6-2.346-1.59-2.5 0-.511 5.261-.84 10.538-.97 15.822-.062 2.6-.078 5.2-.048 7.8.03 2.48.159 4.964-.587 7.362-.478 1.54 1.934 2.2 2.41.665M46.832 78.18c7.727-.756 15.193-2.906 22.165-6.318 1.445-.707.18-2.864-1.262-2.158-6.549 3.206-13.642 5.266-20.903 5.977-1.587.154-1.603 2.657 0 2.5M57.781 56.22c-1.34-4.734-1.746-9.647-1.267-14.542.066-.673-.62-1.25-1.25-1.25-.73 0-1.184.575-1.25 1.25-.499 5.1-.04 10.275 1.356 15.207.438 1.545 2.85.888 2.411-.665" transform="translate(122 77.207)"/>
            <path fill="#306B34" d="M44.783 73.08c-5.92-3.96-20.12 7.4-27.333 20.638l6.135-20.715c2.37-2.414 6.54-5.848 13.131-8.765 10.25-4.537 20.456-11.32 14.526-15.286-5.558-3.718-18.414 6.068-25.934 18.234l7.878-26.602c1.57-1.423 3.97-3.179 7.427-4.71 6.46-2.859 12.892-7.134 9.154-9.633-3.243-2.17-10.432 2.958-15.24 9.817l2.552-8.622c1.21-2.53 2.93-6.147 5.707-9.51C49.223 10.128 54.01 1.495 48.842.567c-5.173-.927-13.154 14.093-14.09 27.317l-1.315 4.436c.84-9.627-2.688-21.03-7.146-21.195-4.429-.163-1.439 7.184 2.34 13.381 2.874 4.718 3.742 8.54 4.003 10.527L26.428 55.99c1.288-15.248-4.297-33.242-11.35-33.502-7.028-.259-2.283 11.4 3.711 21.233 4.53 7.43 5.92 13.463 6.346 16.636l-7.442 25.13c1.008-15.054-4.49-32.952-11.416-32.628-5.34.25-3.468 8.291 3.246 19.418 4.562 7.561 6.154 14.49 6.705 18.154l-3.506 11.837c.66.456 1.337.676 2.003.653l1.395-4.71c2.096-2.376 6.486-6.459 14.137-9.845 10.25-4.537 20.456-11.32 14.526-15.286" transform="translate(122 77.207)"/>
        </g>
        <g transform="translate(133 163.207)">
            <mask id="prefix__c" fill="#fff">
                <use xlink:href="#prefix__a"/>
            </mask>
            <path fill="url(#prefix__b)" d="M50.472 13.727c.219 5.688-.846 9.491-1.562 11.365L33.741 39.919c8.293-12.564 12.035-31.3 6.158-35.406-5.855-4.092-7.322 8.667-6.864 20.524.344 8.96-1.319 14.976-2.456 17.972L12.391 60.79c7.962-12.548 11.733-31.153 5.688-34.681-4.659-2.721-6.861 5.31-6.402 18.689.311 9.091-1.606 15.998-2.866 19.492L.243 72.664c.346.76.818 1.325 1.395 1.671l3.409-3.333c2.905-.915 8.566-2.054 16.671-.793 10.859 1.689 22.74 1.4 19.569-5.315-3.166-6.704-20.606-4.627-32.988 2.93l14.994-14.657c3.155-.799 8.323-1.494 15.305-.407 10.859 1.689 22.741 1.399 19.569-5.316-2.972-6.293-18.525-4.847-30.663 1.606l19.255-18.822c2.007-.376 4.877-.585 8.54-.014 6.844 1.065 14.331.882 12.333-3.351-1.735-3.672-10.269-3.163-17.596.162l6.24-6.1c2.223-1.538 5.392-3.74 9.343-5.141 9.154-3.244 17.3-8.127 13.342-11.777C74.999.354 61.123 9.039 54.084 20.034l-3.211 3.139C56.13 15.254 58.512 3.387 54.798.792 54.318.456 53.883.3 53.493.3c-2.606-.001-3.271 6.928-3.021 13.427" mask="url(#prefix__c)"/>
        </g>
        <g>
            <path fill="#F7E8C8" d="M382.816 203.307c0-4.801-85.655-8.693-191.316-8.693-105.662 0-191.317 3.892-191.317 8.693S85.838 212 191.5 212c105.661 0 191.316-3.892 191.316-8.693" transform="translate(41 32.207)"/>
            <path fill="#57575E" d="M253.46 21.687h37.667c2.93 0 5.306-2.375 5.306-5.306V5.471c0-2.932-2.375-5.307-5.306-5.307H253.46c-2.931 0-5.306 2.375-5.306 5.306v10.911c0 2.931 2.375 5.306 5.306 5.306" transform="translate(41 32.207)"/>
            <path fill="#F6F7FB" d="M390.515 54.041H278.21c-.538 0-.988.841-1.143 1.995h114.591c-.155-1.154-.605-1.995-1.143-1.995" transform="translate(41 32.207)"/>
            <g transform="translate(41 32.207) translate(277 56)">
                <mask id="prefix__e" fill="#fff">
                    <use xlink:href="#prefix__d"/>
                </mask>
                <path fill="#57575E" d="M.067.036C.03.313.005.6.005.903c0 1.58.539 2.861 1.205 2.861h112.305c.666 0 1.206-1.28 1.206-2.861 0-.304-.026-.592-.063-.867H.067z" mask="url(#prefix__e)"/>
            </g>
            <path fill="#57575E" d="M359.226 54.1h-61.707c-1.201 0-3.716-.705-4.164-1.781h70.035c-.448 1.076-2.963 1.78-4.164 1.78" transform="translate(41 32.207)"/>
            <path fill="#5F7DFC" d="M328.84 20.719c0 .258-.209.468-.468.468-.258 0-.468-.21-.468-.468s.21-.467.468-.467c.26 0 .468.209.468.467" transform="translate(41 32.207)"/>
            <path fill="#5F7DFC" d="M328.688 21.035c-.46.354-.985-.172-.632-.631.46-.355.986.17.632.63" transform="translate(41 32.207)"/>
            <path fill="#A29C8F" d="M355.603 19.36h-54.462c-.703 0-1.273.57-1.273 1.273v31.685h57.008V20.633c0-.703-.57-1.273-1.273-1.273" transform="translate(41 32.207)"/>
            <path fill="#FFF" d="M302.194 50.28L354.551 50.28 354.551 21.687 302.194 21.687z" transform="translate(41 32.207)"/>
            <path fill="#FFDE8E" d="M313.32 33.69L312.405 33.69 304.528 33.69 304.528 44.894 312.405 44.894 313.32 44.894 318.579 44.894 318.579 33.69z" transform="translate(41 32.207)"/>
            <path fill="#F7F8FC" d="M307.363 41.862L315.744 41.862 315.744 36.722 307.363 36.722z" transform="translate(41 32.207)"/>
        </g>
        <g transform="translate(351 69.207)">
            <mask id="prefix__h" fill="#fff">
                <use xlink:href="#prefix__f"/>
            </mask>
            <path fill="url(#prefix__g)" d="M0.187 3.558L2.921 2.259 0.187 0.961z" mask="url(#prefix__h)"/>
        </g>
        <g>
            <path fill="#FFDE8E" d="M362.028 65.69L371.927 65.69 371.927 70.754 362.028 70.754zM372.459 69.292L382.359 69.292 382.359 64.228 372.459 64.228zM382.892 69.292L392.791 69.292 392.791 64.228 382.892 64.228zM343.932 62.972L394.814 62.972 394.814 54.636 343.932 54.636z" transform="translate(0 .207)"/>
            <path fill="#F7F8FC" d="M346.971 60.528L353.287 60.528 353.287 57.257 346.971 57.257z" transform="translate(0 .207)"/>
            <path fill="#FFFEFF" d="M359.501 58.805L364.456 58.805 364.456 57.544 359.501 57.544zM365.29 58.805L393.102 58.805 393.102 57.544 365.29 57.544zM359.502 60.814L393.102 60.814 393.102 60.533 359.502 60.533z" transform="translate(0 .207)"/>
            <path fill="#EABBAB" d="M366.116 19.744c-1.179 4.383-.608 10.151.731 11.857.047.06 3.47.657 6.03 1.212l10.027-.7c.001-.084.006-.168.015-.25.146-1.532 1.25-2.56 3.59-3.971 0 0 4.568-2.768 5.7-8.951 1.13-6.182-.552-12.24-9.43-13.796-8.87-1.553-13.565.745-14.482 2.228-1.336 5.574-1.253 8.65-1.274 9.274 0 0-.74 2.474-.907 3.097" transform="translate(0 .207)"/>
            <path fill="#EABBAB" d="M374.575 40.117c-.953-2.761-2.065-6.066-2.491-7.642.749-.3 9.276-3.62 9.276-3.62 1.623 4.546 3.395 7.658 4.879 9.723l-11.664 1.538z" transform="translate(0 .207)"/>
            <path fill="#57575E" d="M373.116 19.006c-.22 1.366-.34 3.288-.34 3.288l.803.933 2.1-1.102s.794 7.227 1.663 7.99c2.107 1.85 5.514 1.037 5.514 1.037 2.005-1.414 8.4-4.72 9.974-12.319.788-3.799.566-9.62-2.72-12.84-5.228-5.122-12.87-6.035-17.69-4.567-5.56 1.695-5.706 5.537-6.709 8.688 0 0-.24 4.223 7.405 8.892" transform="translate(0 .207)"/>
            <path fill="#EABBAB" d="M376.341 23.957c-.42 2.155-1.388 4.727-3.063 4.813-.31.043-.446-5.4-.317-6.519 2.056-3.659 3.81-.489 3.38 1.706M388.18 230.316v-6.741l-4.596-43.335h12.411c.252 13.59-.118 41.78-.118 41.78s.941 6.848 1.508 8.296h-9.205z" transform="translate(0 .207)"/>
            <path fill="#7F786A" d="M398.477 232.897s1.091-1.71-.819-6.204c-.896-2.107-2.713-1.972-4.29-1.942-1.637.032-3.287.234-4.13 1.735-1.084 1.931-1.318.32-1.886 3.92-.235 1.491-.1 2.711.23 2.616l-.047 1.764h11.36l.054-1.727-.472-.162z" transform="translate(0 .207)"/>
            <path fill="#A29C8F" d="M400.423 111.09l-4.005 36.492c.107 1.813.227 3.626.366 5.434.87 11.29-.222 31.343.313 47.791h-12.301l-5.738-53.225-2.986-35.452 24.35-1.04z" transform="translate(0 .207)"/>
            <path fill="#7F786A" d="M386.196 205.684L392.938 206.054 398.015 204.068 397.864 194.03 382.928 195.959 384.13 203.508z" transform="translate(0 .207)"/>
            <path fill="#EABBAB" d="M366.736 179.323l-7.946 3.229c0-.031-.39-2.128-.39-2.16-.018-3.212-2.173-7.606-3.123-9.87-2.823-6.726-8.765-22.243-13.741-34.831l12.29-4.381 12.91 48.013z" transform="translate(0 .207)"/>
            <path fill="#7F786A" d="M365.878 175.092l2.35 6.197.189-.078.612 1.859-7.607 3.027-.277-.844-.24.589c-.143.35-.41.624-.737.754l-6.49 2.58-.354-1.075c.094-.046.316-.102.256-.304-.125-.491-.02-1.838.556-2.677.922-1.342 2.348-3.615 2.85-4.723.504-1.108.643-2.005.643-2.005s.815-.105.888.626c.075.744 1.359.506 2.634-.287.714-.445 1.425-2.451 1.425-2.451.344-1.145 2.927-2.478 3.302-1.188" transform="translate(0 .207)"/>
            <path fill="#A29C8F" d="M392.61 118.978l-42.36-1.06c1.898 3.361 2.866 5.993 3.692 8.78 1.179 3.981 2.102 7.678 2.905 11.084 1.15 4.865 2.039 9.132 3.036 12.766l-11.643 4.905c-6.768-12.15-17.17-36.72-18.76-46.962-1.116-7.178 6.752-11.12 12.698-12.202 6.87-1.259 29.344-1.675 29.012-1.675v-.086l.894-2.42V89.031h32.324c.786 2.847 1.265 5.616 1.452 8.254.832 11.905-4.244 21.242-13.25 21.692" transform="translate(0 .207)"/>
            <path fill="#7F786A" d="M349.724 158.861L356.942 157.237 361.423 153.933 359.116 144.194 344.336 150.42 347.259 157.299zM356.847 137.782c-3.829-7.431-9.905-14.763-17.407-22.03l10.81 2.166c1.897 3.361 2.866 5.993 3.692 8.78 1.179 3.98 2.102 7.678 2.905 11.085" transform="translate(0 .207)"/>
            <path fill="#EABBAB" d="M322.73 14.639s-3.185-5.467-1.938-7.633c.664-1.152 3.034 7.321 3.034 7.321l-1.095.312zM320.672 21.092s3.043-5.233 5.025-4.97c1.013.135-1.998 3.044-2.608 5.633l-2.417-.663zM320.228 15.02s-3.593-1.017-3.662-2.398c-.033-.666 4.382 1.23 4.382 1.23l-.72 1.167z" transform="translate(0 .207)"/>
            <path fill="#EEC9BC" d="M336.45 38.466c-5.313-4.268-10.19-8.742-12.98-12.643l.566-11.131-2.047-2.826-4.135-3.674c-1.987 1.173 2.928 4.753 2.928 4.753s-3.954-2.285-4.301-2.12c-1.151.547 3.385 3.344 3.385 3.344.394 3.95-3.044 10.344-2.393 12.437.44 1.415 1.907 2.24 2.663 2.606 2.919 4.62 6.633 8.772 10.159 12.799l6.155-3.545z" transform="translate(0 .207)"/>
            <path fill="#F7F8FC" d="M394.863 41.489l13.439 28.114c1.658 3.468-.42 7.565-4.196 8.277l-23.57 4.442 14.327-40.833z" transform="translate(0 .207)"/>
            <path fill="#DDC4AF" d="M394.863 41.489s13.02 35.679 9.243 36.39l-23.57 4.443 14.327-40.833z" transform="translate(0 .207)"/>
            <path fill="#EAD5C1" d="M406.282 94.91c-.678 2.758-15.512 4.159-26.882 2-2.973-.57-5.714-1.379-7.895-2.472l-6.028-38.044-22.99-1.7c-2.618-.838-4.02-1.378-6.037-3.247-6.492-7.553-11.885-14.663-16.826-22.46l4.999-2.314c4.223 4.628 11.005 10.134 18.559 15.905 5.466 2.264 21.81-1.768 23.685-2.61l5.97-2.65 11.114-1.292c8.705.431 14.174 6.885 15.404 18.006.468 4.233.422 19.688 6.927 40.879" transform="translate(0 .207)"/>
            <path fill="#FFF" d="M372.084 37.611L385.794 36.137 384.843 33.466 372.084 36.283z" transform="translate(0 .207)"/>
            <path fill="#DDC4AF" d="M380.204 97.055l-.805-.146c-2.973-.569-5.714-1.378-7.894-2.472l-6.029-38.043c3.885.107 7.038-.093 9.757-.983.183 3.874-1.966 8.07-3.726 11.91-2.33 5.08-.385 5.647.675 7.578 1.06 1.924.974 3.987.73 6.09-.24 2.102-.895 1.645 0 5.103.9 3.459-1.52 4.793 2.512 6.495 4.557 1.921 5.091 4.236 4.78 4.468" transform="translate(0 .207)"/>
            <path fill="#7F786A" d="M386.3 183.817v-33.085h9.753l4.845 33.085H386.3zm-2.591 0H369.11l4.846-33.085h9.752v33.085zm20.687 9.218l-6.432-44.092H386.3v-20.566h-2.592v20.566h-11.664l-6.432 44.092c-1.046 7.176-1.577 14.494-1.577 21.755v22.68h1.788v-23.368c0-7.04.503-14.072 1.504-21.04l1.072-7.457h15.065v51.864H386.544v-51.864h15.066l1.07 7.456c1.002 6.97 1.505 14.001 1.505 21.041v23.367h1.788V214.79c0-7.26-.53-14.579-1.577-21.755z" transform="translate(0 .207)"/>
            <path fill="#57575E" d="M362.247 121.223v4.917c0 2.717 2.202 4.919 4.92 4.919h34.863c2.71 0 4.927-2.217 4.927-4.927v-4.909h-44.71z" transform="translate(0 .207)"/>
            <path fill="#F7F8FC" d="M362.247 119.266v1.957h44.71v-1.957c0-.4-.326-.726-.726-.726h-43.258c-.399 0-.726.327-.726.726" transform="translate(0 .207)"/>
            <path fill="#FFE2B7" d="M299.678 44.423c.05.355.149.621.296.796.269.32.73.48 1.384.48.39 0 .709-.042.953-.127.463-.16.695-.462.695-.9 0-.258-.114-.457-.341-.597-.227-.137-.586-.258-1.08-.364l-.841-.184c-.827-.183-1.395-.382-1.704-.596-.524-.359-.786-.92-.786-1.683 0-.696.257-1.274.769-1.735.512-.46 1.265-.69 2.258-.69.829 0 1.537.217 2.122.651.586.434.892 1.064.92 1.89h-1.56c-.03-.467-.238-.799-.627-.996-.26-.13-.582-.195-.968-.195-.43 0-.771.084-1.027.253-.256.168-.384.404-.384.706 0 .278.126.485.379.623.162.091.506.198 1.032.321l1.364.322c.598.141 1.046.33 1.345.564.463.366.695.895.695 1.587 0 .711-.275 1.3-.824 1.77-.55.47-1.324.704-2.326.704-1.024 0-1.828-.23-2.415-.694-.586-.462-.88-1.097-.88-1.906h1.55zM305.916 46.823L305.916 39.05 307.53 39.05 307.53 42.013 310.551 42.013 310.551 39.05 312.165 39.05 312.165 46.823 310.551 46.823 310.551 43.353 307.53 43.353 307.53 46.823zM318.912 44.95c.378-.475.567-1.149.567-2.025 0-.871-.189-1.545-.567-2.021-.378-.478-.889-.716-1.532-.716s-1.156.238-1.54.712c-.383.476-.574 1.15-.574 2.026 0 .875.191 1.55.574 2.024.384.475.897.712 1.54.712s1.154-.236 1.532-.712m1.015 1.181c-.587.605-1.436.907-2.547.907-1.111 0-1.96-.301-2.547-.906-.788-.742-1.181-1.81-1.181-3.206 0-1.425.393-2.494 1.181-3.207.587-.605 1.436-.907 2.547-.907 1.111 0 1.96.303 2.547.907.784.713 1.176 1.782 1.176 3.206 0 1.397-.392 2.465-1.176 3.207M326.537 40.658c-.206-.172-.494-.258-.864-.258h-1.464v2.288h1.464c.37 0 .658-.093.864-.28.206-.186.309-.481.309-.885 0-.405-.103-.693-.309-.865m1.24 2.8c-.455.38-1.105.57-1.949.57h-1.619v2.795h-1.614V39.05h3.338c.769 0 1.383.2 1.84.601.458.401.686 1.021.686 1.861 0 .918-.227 1.566-.682 1.946" transform="translate(0 .207)"/>
            <path fill="#FCC23F" d="M5.714 187.537c15.937 38.815 60.322 57.362 99.137 41.425 38.815-15.937 57.362-60.322 41.425-99.137C130.339 91.01 85.954 72.463 47.138 88.4c-38.815 15.937-57.362 60.323-41.424 99.137" transform="translate(0 .207)"/>
        </g>
        <g transform="translate(14 96.207)">
            <mask id="prefix__j" fill="#fff">
                <use xlink:href="#prefix__i"/>
            </mask>
            <path fill="#FFBF4D" d="M38.011 5.043C6.868 17.829-8.012 53.441 4.775 84.583c12.786 31.142 48.397 46.024 79.54 33.236 31.143-12.787 46.022-48.398 33.235-79.54C107.875 14.713 85.129.459 61.14.459c-7.712 0-15.553 1.473-23.129 4.584" mask="url(#prefix__j)"/>
        </g>
        <g>
            <path fill="#FFDE8E" d="M71.351 128.868c1.85-.742 2.653-3.086 1.792-5.232-.86-2.147-3.06-3.287-4.91-2.545l-20.107 8.063-13.404 5.376c-1.85.741-2.653 3.086-1.792 5.232.86 2.147 3.06 3.287 4.91 2.545l13.405-5.376c4.363-1.75 9.356.031 12.555 3.993l-22.84 9.16c-1.85.742-2.653 3.086-1.793 5.232.861 2.147 3.061 3.286 4.911 2.545l22.841-9.16c.425 5.075-1.955 9.812-6.318 11.562l-13.405 5.375c-.435.174-.83.45-1.16.809-.66.724-1.014 1.742-.972 2.836.038 1.085.47 2.159 1.191 2.97.361.415.781.744 1.24.975l39.273 20.352c.962.499 1.973.536 2.831.192.858-.344 1.563-1.069 1.918-2.087.698-2.041-.29-4.506-2.206-5.498l-30.906-16.016 5.315-2.132c8.096-3.247 12.176-12.647 10.176-22.136l3.693-1.481c1.85-.741 2.652-3.086 1.791-5.232-.86-2.147-3.06-3.287-4.91-2.545l-3.693 1.481c-1.663-2.692-3.823-4.859-6.215-6.535l6.79-2.723z" transform="translate(13 .207)"/>
            <path fill="#FF881D" d="M118.179 133.954l-2.392-5.445c-.933-1.748-1.952-3.455-2.928-5.19-1.09-1.66-2.311-3.237-3.464-4.862-1.245-1.55-2.621-2.998-3.928-4.504-5.54-5.747-12.29-10.31-19.63-13.47-7.376-3.078-15.361-4.72-23.344-4.674-1.992.12-3.987.163-5.968.342-1.967.315-3.946.557-5.896.931-1.922.521-3.852.997-5.755 1.553l-5.556 2.122c7.422-2.769 15.309-4.194 23.17-4.048 7.854.138 15.685 1.745 22.895 4.85 7.247 3.015 13.859 7.501 19.447 13.023 5.598 5.522 10.104 12.146 13.349 19.372" transform="translate(13 .207)"/>
            <path fill="#FCD24F" d="M38.773 100.982c-5.498 2.357-10.757 5.3-15.46 9.042-4.618 3.823-8.767 8.22-12.198 13.166-3.315 5.02-5.941 10.473-7.816 16.197-1.735 5.77-2.643 11.765-2.778 17.792-.028 6.038.917 12.039 2.539 17.847 1.029 2.834 1.874 5.743 3.279 8.424l.96 2.048c.166.339.31.689.493 1.019l.58.97 2.326 3.884c3.41 4.976 7.416 9.55 12.057 13.428 4.705 3.788 9.9 6.939 15.442 9.357 5.614 2.246 11.508 3.727 17.51 4.413 6.019.578 12.088.212 18.025-.858l4.398-1.075 1.099-.268c.362-.104.713-.246 1.07-.366l2.133-.756c2.894-.884 5.558-2.328 8.297-3.586 5.273-2.93 10.208-6.471 14.482-10.736 4.195-4.33 7.82-9.19 10.707-14.48 2.756-5.356 4.789-11.057 6.032-16.941 1.107-5.917 1.32-11.96.795-17.932-.643-5.974-2.245-11.786-4.431-17.354 2.097 5.605 3.599 11.426 4.145 17.382.427 5.952.116 11.946-1.073 17.789-1.296 5.816-3.352 11.438-6.123 16.705-2.9 5.2-6.521 9.96-10.69 14.189-4.256 4.157-9.135 7.6-14.321 10.477-2.7 1.228-5.32 2.643-8.17 3.5l-2.1.739c-.35.118-.695.257-1.051.358l-1.082.26-4.323 1.043c-5.837 1.03-11.797 1.374-17.705.79-5.89-.692-11.667-2.165-17.17-4.38-5.442-2.356-10.55-5.432-15.182-9.136-4.567-3.794-8.511-8.274-11.88-13.153l-2.295-3.81-.575-.952c-.178-.324-.322-.667-.485-1l-.95-2.011c-1.392-2.63-2.227-5.49-3.25-8.274-1.597-5.711-2.58-11.602-2.61-17.551.08-5.938.92-11.86 2.583-17.577 1.8-5.673 4.357-11.085 7.583-16.095 3.322-4.952 7.368-9.385 11.904-13.264 4.62-3.797 9.817-6.82 15.279-9.264" transform="translate(13 .207)"/>
            <path fill="#7F786A" d="M158.422 44.485s9.25 16.81 11.943 37.765c2.067 16.089 5.309 26.05 9.298 34.777 0 0-7.571 2.715-16.464 2.964-7.79.219-12.876-4.114-12.876-4.114s3.697-8.125-.231-26.858c-3.822-18.23-6.59-35.667.182-40.576 6.184-4.481 8.148-3.958 8.148-3.958" transform="translate(13 .207)"/>
            <path fill="#EABBAB" d="M287.383 212.178l.523-3.021c.028-.16-.078-.31-.236-.336l-15.624-2.688c-.159-.027-.309.079-.336.237l-.522 3.022c-.027.158.08.308.237.336l15.623 2.687c.158.027.308-.08.335-.237" transform="translate(13 .207)"/>
            <path fill="#7F786A" d="M289.909 224.56c.629-.001 1.137-.518 1.136-1.154l-.038-15.453c-.002-.815-.742-1.424-1.53-1.261l-2.775.229c-.793.065-1.402.736-1.4 1.54 0 0 1.217.394 1.41 1.847.154 1.175-.806 1.574-1.498 1.708-.334.065-.536.427-.413.763l4.046 11.05c.17.442.593.732 1.062.73M200.572 91.817c5.616 7.524 10.9 13.582 15.761 25.565 5.774 14.238 17.031 52.027 17.031 52.027l47.151 36.637-1.099 8.574s-55.14-10.3-76.937-34.073c-4.088-4.459-18.579-33.01-27.305-50.279-10.669-21.114-14.14-31.274-14.14-31.274s37.13-5.619 39.538-7.177" transform="translate(13 .207)"/>
            <path fill="#EABBAB" d="M183.477 230.564l2.914-.954c.152-.05.235-.214.186-.367l-4.929-15.067c-.05-.153-.214-.236-.366-.186l-2.914.955c-.153.05-.236.214-.186.367l4.928 15.066c.05.153.215.236.367.186" transform="translate(13 .207)"/>
            <path fill="#7F786A" d="M169.955 233.324c.038.627.591 1.104 1.236 1.066l15.666-.945c.827-.05 1.402-.824 1.191-1.602l-.393-2.757c-.112-.787-.827-1.356-1.642-1.307 0 0-.329 1.239-1.79 1.516-1.184.224-1.643-.712-1.82-1.395-.085-.33-.464-.51-.796-.368l-10.972 4.688c-.438.197-.708.635-.68 1.104M128.04 72.178s-9.157 14.2-5.298 16.297c8.045 4.372 33.31-22.438 33.31-22.438 2.265-1.61 1.586-7.85-6.87-16.481L128.04 72.178z" transform="translate(13 .207)"/>
            <path fill="#A29C8F" d="M195.58 83.192c5.053 2.79 25.607 22.682 17.526 39.92-6.992 14.916-52.537 48.006-52.537 48.006l26.238 52.888-9.623 2.494s-42.841-36.183-41.967-61.508c.386-11.189 36.939-55.707 36.939-55.707s-7.564-13.044-6.84-14.84c3.705.203 20.82-9.72 30.264-11.253" transform="translate(13 .207)"/>
            <path fill="#F5EFE4" d="M161.035 98.995s7.238 1.974 17.63-3.443c9.153-4.77 14.299-12.276 14.328-14.175.11-7.362-8.633-28.612-8.633-28.612-2.889-7.298-10.938-12.784-19.045-10.459-4.692 1.347-9.326.768-12.2 3.405-6 5.502-3.68 18.864-1.952 25.993 2.731 11.262 9.871 27.29 9.871 27.29" transform="translate(13 .207)"/>
            <path fill="#7F786A" d="M159.012 43.048s.742 27.477 10.111 46.87c7.787 16.12 13.187 28.173 23.901 32.853 0 0 15.828-8.901 21.78-15.522 5.21-5.8 6.217-10.292 6.217-10.292s-9.26-8.068-21.252-24.868c-10.05-14.083-17.507-28.483-25.65-30.442-8.693-2.091-15.107 1.4-15.107 1.4" transform="translate(13 .207)"/>
            <path fill="#7F786A" d="M135.54 78.725s10.426 8.545 14.654 8.269c10.249-.67 27.036-28.37 27.036-28.37 3.887-7.166 2.702-12.535-2.826-13.415-3.915-.624-7.802.759-10.337 3.664L135.54 78.725z" transform="translate(13 .207)"/>
            <path fill="#FFA087" d="M83.224 86.053s-.526-2.43-.197-3.144c.254-.546.523-.898.835-.95 1.723-.286 5.847 1.672 6.297 3.023.215.645-.39 1.926-.91 2.852-.346.614-1.117.84-1.737.509l-4.288-2.29z" transform="translate(13 .207)"/>
            <path fill="#FFA087" d="M79.295 85.29c.073.714.71 1.234 1.425 1.162l3.265-.333-.13-1.293-4.56.464z" transform="translate(13 .207)"/>
            <path fill="#FFA087" d="M78.597 84.886c.197.69.998 1.067 1.789.842L84 84.696l-.356-1.25-5.047 1.44z" transform="translate(13 .207)"/>
            <path fill="#FFA087" d="M78.118 83.512c.09.713.825 1.207 1.64 1.104l3.73-.47-.162-1.29-5.207.656z" transform="translate(13 .207)"/>
            <path fill="#FFA087" d="M79.563 83.04c.17.698.954 1.107 1.753.913l3.655-.883-1.11-1.112-4.298 1.082zM88.288 85.13L88.64 88.309 93.869 86.576 92.841 83.385z" transform="translate(13 .207)"/>
            <path fill="#A29C8F" d="M184.243 96.468c-.513.238-.721.866-.425 1.348.958 1.567 2.97 4.588 4.13 4.422 5.71-.819 13.454-7.26 13.621-9.002.126-1.313-2.477-3.922-3.763-5.124-.367-.342-.93-.315-1.26.06-1.258 1.421-4.796 4.822-12.303 8.296" transform="translate(13 .207)"/>
            <path fill="#EAD5C1" d="M94.923 81.508L90.607 83.16 92.344 88.073 96.832 86.856z" transform="translate(13 .207)"/>
            <path fill="#7F786A" d="M96.069 90.097c8.033 5.502 15.98 1.62 24.134-.036 11.058-2.247 17.114-8.685 14.084-17.276 0 0 .463-4.082-4.401-3.41-7.795 1.076-26.775 7.916-34.06 10.612-1.99.736-3.166 2.784-2.8 4.874.322 1.837 1.13 3.926 3.043 5.236" transform="translate(13 .207)"/>
            <path fill="#FFB68E" d="M89.393 92.076s-.98-2.285-.79-3.049c.144-.585 1.617-1.784 1.617-1.784s5.079 1.22 5.778 2.461c.334.592-.016 1.965-.351 2.973-.222.669-.935 1.038-1.608.831l-4.646-1.432z" transform="translate(13 .207)"/>
            <path fill="#FFB68E" d="M85.344 91.71c.157.7.852 1.142 1.553.984l3.203-.716-.284-1.27-4.472 1.002zM84.437 89.045c-.031.718.609 1.329 1.43 1.364l3.757.165.057-1.3-5.244-.23z" transform="translate(13 .207)"/>
            <path fill="#FFB68E" d="M84.417 87.711c-.088.713.501 1.373 1.317 1.475l3.731.464.16-1.289-5.208-.65z" transform="translate(13 .207)"/>
            <path fill="#FFB68E" d="M85.806 86.718c-.088.712.5 1.373 1.317 1.475l3.73.467-.578-1.42-4.469-.522zM95.735 89.807L94.857 93.12 100.777 92.911 99.29 89.85z" transform="translate(13 .207)"/>
            <path fill="#EAD5C1" d="M100.892 89.07L97.096 89.785 98.692 96.497 103.604 96.359z" transform="translate(13 .207)"/>
            <path fill="#7F786A" d="M100.727 87.365c3.925-5.437 19.631-7.824 29.134-10.115 11.623-2.803 31.4-6.167 28.926 3.929-.669 2.729-15.935 12.799-29.298 18.112-13.603 5.409-21.843 7.309-26.62.695-1.73-2.392-3.684-10.485-2.142-12.621" transform="translate(13 .207)"/>
            <path fill="#57575E" d="M157.002 27.072c-2.618-3.217-5.703-2.255-7.174-1.27-.332-1.188-.37-1.971-1.816-2.678-1.031-.504-4.381-.435-5.131 2.31-2.371-.971-7.585-3.638-10.33 1.102-3.795 6.55 8.26 9.017 10 8.673 0 0 3.58 6.11 5.307 5.736.974-.212 1.929-.404 3.686-1.223 2.785-1.295 4.198-2.16 5.572-4.905 1.012-2.02 1.538-5.714-.114-7.745" transform="translate(13 .207)"/>
            <path fill="#A29C8F" d="M151.543 39.722c1.833-.674 3.806-1.499 5.101-3.216 1.254-1.631 2.03-3.714 2.115-5.833.247-2.143-.984-4.558-2.882-5.714-1.919-1.342-4.693-1.205-6.53.125l1.312.486c-.196-.642-.38-1.81-1.29-2.55-.74-.672-1.892-1.011-2.793-.931-1.792-.029-3.969 1.138-4.363 3.162l.93-.458c-1.784-.662-3.724-1.434-5.796-1.419-2.126-.015-4.016 1.391-4.797 3.161 1.085-1.65 2.951-2.562 4.772-2.277 1.835.146 3.533.979 5.296 1.816.328.156.721.016.877-.312l.03-.075.023-.071c.406-1.245 1.645-1.958 3.052-1.938.724-.015 1.203.175 1.68.591.397.317.491.881.715 1.765.115.454.577.73 1.032.614.09-.023.172-.059.245-.106l.036-.023c1.428-.913 3.264-1.133 4.69-.193 1.542.94 2.357 2.462 2.36 4.341.074 1.855-.416 3.713-1.449 5.331-.908 1.676-2.625 2.773-4.366 3.724" transform="translate(13 .207)"/>
            <path fill="#FFB68E" d="M157.124 45.957s1.3-2.027.258-2.923l-4.774-4.11c-1.04-.897-2.61-.779-3.507.262l-.203.236c-.896 1.04-.779 2.611.262 3.507l4.635 3.888 3.33-.86z" transform="translate(13 .207)"/>
            <path fill="#FFA087" d="M152.285 38.467c-1.191-1.025-2.792-.677-3.745.43-.952 1.105-.758 2.832.431 3.858l3.346 2.848c.65.56 1.352-1.699 1.382-2.905.024-.95-.166-2.966-.166-2.966l-1.248-1.265z" transform="translate(13 .207)"/>
            <path fill="#FFB68E" d="M150.964 33.92c-1.127-2.597-3.539-4.11-6.085-3.455-5.448 1.402-2.277 8.31-.888 11.19.971 2.012 1.881 2.897 2.423 3.278.283.198.638.24.966.132.878-.29 2.825-1.025 3.972-2.183 1.287-1.299 2.073-1.926 1.2-4.553-.78-2.345-1.114-3.316-1.588-4.409" transform="translate(13 .207)"/>
            <path fill="#57575E" d="M149.67 32.42c.432.39-1.431.554-1.708 1.66-.277 1.105 1.853 1.396 2.568 2.036.305.275.482 2.062.792 2.002.415-.08.38-2.049.903-2.23.912-.317 3.02.86 3.619-2.448.857-4.74-14.785-10.288-20.014-3.5-.9 1.166 2.467 7.345 9.339 4.544 2.335-.952 4.14-2.392 4.502-2.065" transform="translate(13 .207)"/>
            <path fill="#FFB68E" d="M151.875 36.47c-.279 1.265.103 2.543.821 2.702.72.158 1.527-.74 1.806-2.004.28-1.265-.077-2.42-.795-2.578-.719-.158-1.553.615-1.832 1.88" transform="translate(13 .207)"/>
            <path fill="#E7E1D3" d="M157.78 50.39l1.287-7.325-3.587-1.666s.404 1.506.012 2.818c-.524 1.754-1.368 2.23-1.368 2.23l3.657 3.944z" transform="translate(13 .207)"/>
            <path fill="#E7E1D3" d="M153.597 51.496l-2.002-3.986.744-1.898s.624.451.858.557c.684.308 1.243.242 1.243.242l-.843 5.085z" transform="translate(13 .207)"/>
            <path fill="#FFDB0C" d="M225.575 63.155c17.015-6.365 28.292-22.623 28.292-40.79v-11.01c-5.834 0-10.563-4.729-10.563-10.562h-35.458c0 5.833-4.73 10.562-10.563 10.562v11.01c0 18.167 11.277 34.425 28.292 40.79" transform="translate(13 .207)"/>
            <path fill="#FBBF00" d="M225.575 63.155c17.015-6.365 28.292-22.623 28.292-40.79v-11.01c-5.834 0-10.563-4.729-10.563-10.562h-17.73v62.362z" transform="translate(13 .207)"/>
            <path fill="#FFF" d="M223.761 39.088c-.495 0-.968-.2-1.312-.555l-5.94-6.12c-.71-.718-.704-1.875.013-2.585.718-.71 1.875-.704 2.585.013l.025.026 4.583 4.72 8.29-9.145c.688-.738 1.844-.778 2.583-.09.722.674.778 1.8.126 2.544l-9.596 10.593c-.34.374-.82.59-1.326.599h-.03z" transform="translate(13 .207)"/>
        </g>
    </g>
</svg>
