<svg xmlns="http://www.w3.org/2000/svg" xmlns:xlink="http://www.w3.org/1999/xlink" width="668" height="343" viewBox="0 0 668 343">
    <defs>
        <path id="prefix__a" d="M0 0.851L626.07 0.851 626.07 35.102 0 35.102z"/>
        <path id="prefix__c" d="M0 342.444L667.402 342.444 667.402 0 0 0z"/>
    </defs>
    <g fill="none" fill-rule="evenodd">
        <g transform="translate(0 307.342)">
            <mask id="prefix__b" fill="#fff">
                <use xlink:href="#prefix__a"/>
            </mask>
            <path fill="#F7E8C8" d="M626.07 17.977c0 9.459-140.15 17.125-313.035 17.125C140.15 35.102 0 27.436 0 17.977S140.15.851 313.035.851C485.92.851 626.07 8.518 626.07 17.977" mask="url(#prefix__b)"/>
        </g>
        <path fill="#FFF4DD" d="M481.933 46.125c-15.586 0-30.718 1.453-45.182 4.175C392.75 19.115 333.448 0 268.205 0c-135.73 0-245.76 82.72-245.76 184.76 0 56.095 33.255 106.35 85.748 140.234h373.74c102.432 0 185.469-62.427 185.469-139.434 0-77.008-83.037-139.435-185.47-139.435"/>
        <path fill="#F7E8C8" d="M515.355 314.762L566.2 150.628s-50.05 47.01-74.677 164.134h23.833z"/>
        <path fill="#B7CAE5" d="M501.79 314.762s19.597-138.85 9.534-198.205c0 0-42.372 138.636-37.076 198.205h27.542z"/>
        <path fill="#F7E8C8" d="M507.616 314.762c.53-3.645 76.8-112.084 76.8-112.084s-38.665 82.263-45.02 112.084h-31.78z"/>
        <path fill="#A4B751" d="M543.512 314.175c2.535-1.129 11.079-4.398 11.48-7.372.44-3.243-1.606-6.797-4.53-7.862-1.26-.46-2.658-.516-3.664-1.648-.561-.633-.755-1.605-.306-2.288.73-1.115 2.299-.456 3.454.143 2.21 1.148 4.688 1.807 7.045 1.403 2.357-.405 4.56-1.995 5.418-4.392.858-2.397.1-5.548-1.966-6.995-1.292-.905-2.914-1.098-4.035-2.38-.583-.666-.86-1.627-.525-2.43.673-1.62 2.91-1.001 4.454-.255 2.18 1.053 4.499 1.908 6.84 1.873 2.343-.035 4.726-1.088 5.952-3.196 1.227-2.107.956-5.316-.924-6.938-.753-.65-1.678-1.008-2.47-1.599-.95-.708-1.758-1.98-1.12-3.165.44-.821 1.388-1.111 2.269-.898 1.22.295 2.09 1.172 2.975 2.038 1.39 1.366 3.202 2.159 5.027 2.074 5.453-.251 6.262-7.07 3.227-10.296-.852-.906-2.05-1.75-1.968-3.056.064-1.03.906-1.738 1.856-1.793 1.875-.111 3.258 1.366 4.919 1.987 3.038 1.136 6.587-1.368 6.79-4.789.155-2.618-2.93-2.746-5.737-3.422-.645-.156-.703-1.137-.08-1.324 2.48-.74 5.469-2.218 7.08-3.23 2.957-1.858 5.463-7.735.37-9.433-1.365-.455-4.45.618-5.163 1.641-1.01 1.446-4.728 5.12-4.728 5.12-.436.362-1.065-.159-.865-.717.454-1.27.747-2.599.592-4.04-.071-.659-.258-1.313-.57-1.895-1.861-3.47-5.877-2.173-7.403.523-1.268 2.243-1.307 5.072-1.372 7.756-.033 1.389-.125 2.902-1.185 3.778-.601.495-1.475.557-2.085.01-.706-.63-.551-1.52-.612-2.34-.2-2.683-3.045-4.65-5.457-4.198-2.412.451-4.19 2.772-4.795 5.34-.605 2.568-.223 5.34.409 7.964.31 1.295.683 2.683 0 3.87-.404.702-1.243 1.038-1.943.633-.996-.576-.872-2-1.033-3.145-.446-3.178-4.126-5.117-6.873-4.119-2.747.998-4.4 4.13-4.682 7.295-.318 3.562.802 7.18 1.918 10.586.263.8.02 1.714-.65 2.095-.93.527-1.691-.37-2.356-1.058-2.57-2.66-6.79-3.13-9.6-1.073-2.808 2.057-3.91 6.43-2.507 9.942.892 2.232 2.653 4.1 2.447 6.725-.102 1.3-1.013 2.383-2.22 2.352-1.522-.041-2.286-1.77-3.231-2.995-2.622-3.403-7.887-3.124-10.614-.103-2.726 3.022-1.311 10.929-.243 15.157 1.068 4.23 3.122 13.086 6.649 17.183 1.66 1.93 13.806-1.914 16.34-3.044"/>
        <path fill="#619440" d="M595.343 234.932c-1.365-.455-4.45.618-5.163 1.641-1.01 1.446-4.728 5.12-4.728 5.12-.436.362-1.066-.158-.865-.718.454-1.27.747-2.598.59-4.039-.07-.659-.256-1.314-.568-1.896-1.861-3.47-5.877-2.173-7.403.524-1.268 2.242-1.307 5.072-1.372 7.755-.033 1.39-.125 2.903-1.185 3.779-.601.495-1.475.558-2.085.01-.706-.63-.551-1.52-.612-2.34-.2-2.683-3.045-4.65-5.457-4.198-2.412.45-4.19 2.772-4.795 5.34-.605 2.568-.223 5.34.409 7.965.31 1.294.683 2.682 0 3.869-.404.701-1.243 1.037-1.943.633-.996-.576-.872-1.999-1.033-3.144-.446-3.18-4.126-5.117-6.873-4.12-2.747.999-4.4 4.13-4.682 7.294-.318 3.563.802 7.18 1.918 10.587.263.801.02 1.714-.65 2.095-.93.527-1.691-.37-2.356-1.058-2.57-2.659-6.79-3.13-9.6-1.072-2.808 2.057-3.91 6.428-2.507 9.942.892 2.23 2.653 4.099 2.447 6.724-.102 1.3-1.013 2.383-2.22 2.352-1.522-.041-2.287-1.77-3.231-2.996-2.622-3.402-7.887-3.123-10.614-.102-2.726 3.02-1.311 10.928-.243 15.157.997 3.947 2.852 11.922 5.96 16.3.223.314.689.883.689.883s14.168-26.896 35.039-51.678c11.593-13.767 35.75-28.451 35.75-28.451s-.156-.383-.542-.794c-.664-.703-1.807-1.274-2.075-1.364"/>
        <path fill="#306B34" d="M504.397 285.052c-1.223 3.06-2.03 6.262-2.765 9.446-.958 4.145-.295 5.376.846 9.131 1.14 3.755 3.732 6.856 7.198 7.771 3.466.914 6.073 2.714 8.666-.646.366-.474.912-.115.951.15.278 1.881.35 3.04 1.43 4.337 1.13 1.358 8.08 7.155 16.768.815 4.541-5.871 6.313-13.008 8.522-20.155.28-.9.54-1.841.457-2.735-.153-1.645-1.637-2.783-3.135-2.402 1.296.114 2.638-.97 3.41-2.296.772-1.326 1.094-2.857 1.4-4.346 1.13-5.504 2.26-11.006 3.388-16.51-3.747 1.38-7.777.958-10.82-1.13 0 0 11.791-2.551 11.843-8.404.037-4.248-.06-10.155.21-14.427.19-2.99-.706-6.183-1.71-8.773-.858-2.208-1.42-3.734-3.013-5.283-.964-.937-1.979-1.903-3.28-2.178-1.976-.416-4.117.845-5.962 2.209-3.378 2.5-6.48 5.505-9.405 8.69-3.47 3.78-6.71 7.83-9.68 12.101 2.14 5.69 5.736 10.498 10.306 13.777-4.377-1.536-8.308-4.228-11.427-7.823-.375-.433-.793-.905-1.365-.91-1.142-.009-1.79 1.654-2.129 2.938-1.429 5.428-4.149 10.61-7.777 14.815 1.692.66 3.385 1.323 5.077 1.984l-6.629-.22s-.277 7.328-1.375 10.074"/>
        <path fill="#A4B751" d="M502.293 286.546c-1.223 3.06-1.88 12.576-.214 17.728 1.207 3.733 4.013 6.772 7.276 8.26 2.556 1.165 6.394 1.58 8.987-1.78.366-.474.913-.116.952.15.278 1.881 26.732-83.22 25.47-83.487-1.976-.416-4.118.845-5.962 2.209-3.38 2.5-6.481 5.504-9.406 8.69-3.47 3.78-6.71 7.83-9.68 12.101 2.14 5.69 5.736 10.497 10.306 13.778-4.376-1.537-8.307-4.229-11.426-7.824-.376-.433-.793-.905-1.366-.91-1.141-.009-1.791 1.653-2.13 2.938-1.428 5.429-4.147 10.61-7.775 14.815 1.692.66 3.384 1.322 5.076 1.984l-6.63-.22s-2.38 8.822-3.478 11.568"/>
        <path fill="#7F786A" d="M522.304 52.237V327.99H113.597V52.237c0-5.176 3.638-9.375 8.128-9.375H514.18c4.485 0 8.123 4.199 8.123 9.375"/>
        <mask id="prefix__d" fill="#fff">
            <use xlink:href="#prefix__c"/>
        </mask>
        <path fill="#FFF" d="M126.164 317.647L510.619 317.647 510.619 65.91 126.164 65.91z" mask="url(#prefix__d)"/>
        <path fill="#FFF4DD" d="M273.974 229.61h-80.19c-15.3 0-27.818-12.555-27.818-27.899V172.54c0-15.345 12.518-27.9 27.818-27.9h80.19c15.3 0 27.817 12.555 27.817 27.9v29.171c0 15.344-12.517 27.898-27.817 27.898M380.262 160.212h-34.75c-2.489 0-4.525-2.042-4.525-4.538 0-2.497 2.036-4.539 4.525-4.539h34.75c2.488 0 4.524 2.042 4.524 4.54 0 2.495-2.036 4.537-4.524 4.537M451.09 186.107H345.511c-2.488 0-4.524-2.042-4.524-4.538 0-2.497 2.036-4.539 4.524-4.539h105.577c2.49 0 4.526 2.042 4.526 4.54 0 2.495-2.036 4.537-4.526 4.537M451.09 204.587H345.511c-2.488 0-4.524-2.042-4.524-4.537 0-2.497 2.036-4.54 4.524-4.54h105.577c2.49 0 4.526 2.043 4.526 4.54 0 2.495-2.036 4.537-4.526 4.537" mask="url(#prefix__d)"/>
        <path fill="#A29C8F" d="M322.826 54.732c0 2.712-2.192 4.91-4.896 4.91-2.703 0-4.895-2.198-4.895-4.91 0-2.71 2.192-4.91 4.895-4.91 2.704 0 4.896 2.2 4.896 4.91" mask="url(#prefix__d)"/>
        <path fill="#FFF4DD" d="M224.273 251.236c0 2.152-1.74 3.896-3.885 3.896-2.146 0-3.885-1.744-3.885-3.896s1.739-3.896 3.885-3.896 3.885 1.744 3.885 3.896" mask="url(#prefix__d)"/>
        <path fill="#F7E8C8" d="M239.267 251.236c0 2.152-1.739 3.896-3.884 3.896-2.146 0-3.886-1.744-3.886-3.896s1.74-3.896 3.886-3.896c2.145 0 3.884 1.744 3.884 3.896" mask="url(#prefix__d)"/>
        <path fill="#FFF4DD" d="M254.262 251.236c0 2.152-1.739 3.896-3.885 3.896-2.145 0-3.885-1.744-3.885-3.896s1.74-3.896 3.885-3.896c2.146 0 3.885 1.744 3.885 3.896" mask="url(#prefix__d)"/>
        <path fill="#F7E8C8" d="M436.898 254.755h-48.512c-10.04 0-18.256-8.24-18.256-18.31 0-10.07 8.215-18.309 18.256-18.309h48.512c10.041 0 18.255 8.24 18.255 18.309v.002c0 10.069-8.214 18.308-18.255 18.308" mask="url(#prefix__d)"/>
        <path fill="#FFF" d="M402.486 236.417c.338 0 .663-.025.976-.075.313-.05.588-.147.826-.292.237-.144.428-.348.572-.612.144-.262.216-.608.216-1.035 0-.427-.072-.77-.216-1.035-.144-.263-.335-.467-.572-.611-.238-.145-.513-.242-.826-.292-.313-.05-.638-.076-.976-.076h-2.29v4.028h2.29zm.807-6.324c.838 0 1.551.122 2.139.368.588.244 1.067.567 1.436.968.369.403.638.86.807 1.374.169.515.253 1.048.253 1.6 0 .54-.084 1.07-.253 1.591-.169.52-.438.982-.807 1.383-.369.401-.848.725-1.436.97-.588.244-1.301.366-2.139.366h-3.097v4.819h-2.946v-13.44h6.043zM415.23 238.337l-1.69-4.931h-.038l-1.745 4.931h3.472zm-.17-8.244l5.011 13.44h-3.059l-1.014-2.995h-5.01l-1.05 2.994h-2.967l5.068-13.44h3.021zM418.401 230.093L421.704 230.093 424.837 235.401 427.952 230.093 431.236 230.093 426.264 238.374 426.264 243.531 423.317 243.531 423.317 238.3z" mask="url(#prefix__d)"/>
        <path fill="#3D3D3D" d="M522.304 86.183v18.603l-34.516.025-49.324.03-49.318.038-49.318.03-49.32.036-49.317.031-49.32.031-49.317.036-28.957.02V79.382l5.985-7.554c.885-1.114 2.2-1.763 3.592-1.763l40.949-.026 43.142-.03 43.143-.026 43.143-.032 43.148-.03 43.143-.026 43.142-.03 43.143-.032 40.404-.025c1.737 0 3.38.804 4.485 2.194l11.288 14.181z" mask="url(#prefix__d)"/>
        <path fill="#FFF" d="M145.314 96.176l-49.32.033 26.35-33.246c.884-1.116 2.2-1.763 3.59-1.764l40.95-.027-21.57 35.004z" mask="url(#prefix__d)"/>
        <path fill="#F7C8B3" d="M194.632 96.143L145.313 96.176 166.883 61.172 210.027 61.144z" mask="url(#prefix__d)"/>
        <path fill="#FFF" d="M243.951 96.11L194.632 96.143 210.027 61.144 253.171 61.114z" mask="url(#prefix__d)"/>
        <path fill="#F7C8B3" d="M293.271 96.077L243.951 96.11 253.171 61.115 296.314 61.084z" mask="url(#prefix__d)"/>
        <path fill="#FFF" d="M342.59 96.043L293.271 96.076 296.315 61.085 339.458 61.056z" mask="url(#prefix__d)"/>
        <path fill="#F7C8B3" d="M391.909 96.01L342.59 96.043 339.458 61.056 382.602 61.027z" mask="url(#prefix__d)"/>
        <path fill="#FFF" d="M441.228 95.977L391.909 96.01 382.602 61.027 425.746 60.998z" mask="url(#prefix__d)"/>
        <path fill="#F7C8B3" d="M490.548 95.944L441.228 95.976 425.747 60.997 468.889 60.968z" mask="url(#prefix__d)"/>
        <path fill="#FFF" d="M539.867 95.91l-49.32.034-21.657-34.976 40.403-.026c1.736-.001 3.382.803 4.488 2.192l26.086 32.777z" mask="url(#prefix__d)"/>
        <path fill="#DAE3EF" d="M120.679 124.06c-13.611.008-24.654-9.642-24.674-21.561l-.011-6.289 49.32-.033.01 6.251c.02 11.934-11.018 21.621-24.645 21.631" mask="url(#prefix__d)"/>
        <path fill="#EABBAB" d="M169.998 124.026c-13.61.01-24.654-9.641-24.674-21.56l-.01-6.29 49.32-.032.01 6.251c.02 11.934-11.019 21.621-24.646 21.631" mask="url(#prefix__d)"/>
        <path fill="#DAE3EF" d="M219.317 123.993c-13.611.009-24.654-9.641-24.674-21.561l-.01-6.288 49.319-.033.011 6.25c.019 11.935-11.018 21.623-24.646 21.632" mask="url(#prefix__d)"/>
        <path fill="#EABBAB" d="M268.637 123.96c-13.611.009-24.655-9.642-24.674-21.561l-.011-6.289 49.319-.033.01 6.251c.02 11.934-11.017 21.622-24.644 21.632" mask="url(#prefix__d)"/>
        <path fill="#DAE3EF" d="M317.956 123.926c-13.611.01-24.654-9.64-24.674-21.56l-.011-6.289 49.32-.033.01 6.251c.02 11.935-11.018 21.622-24.645 21.631" mask="url(#prefix__d)"/>
        <path fill="#EABBAB" d="M367.274 123.893c-13.61.009-24.654-9.64-24.673-21.561l-.01-6.288 49.318-.032.012 6.25c.019 11.935-11.019 21.622-24.647 21.63" mask="url(#prefix__d)"/>
        <path fill="#DAE3EF" d="M416.594 123.86c-13.611.009-24.654-9.64-24.674-21.561l-.01-6.288 49.319-.033.01 6.25c.02 11.935-11.018 21.623-24.645 21.632" mask="url(#prefix__d)"/>
        <path fill="#EABBAB" d="M465.913 123.826c-13.61.01-24.654-9.64-24.674-21.56l-.01-6.288 49.32-.033.01 6.25c.02 11.935-11.019 21.622-24.646 21.631" mask="url(#prefix__d)"/>
        <path fill="#DAE3EF" d="M515.232 123.793c-13.61.01-24.654-9.64-24.674-21.56l-.01-6.288 49.32-.033.01 6.251c.02 11.934-11.018 21.621-24.646 21.63" mask="url(#prefix__d)"/>
        <path fill="#F7E8C8" d="M607.85 120.728c0 6.277-5.072 11.364-11.33 11.364-6.257 0-11.33-5.087-11.33-11.364 0-6.276 5.073-11.364 11.33-11.364 6.258 0 11.33 5.088 11.33 11.364M277.5 191.884c0 3.89-.505 7.66-1.457 11.248-.306 1.158-.658 2.3-1.055 3.42-3.26 9.19-9.499 16.967-17.552 22.157-1.747 1.128-3.579 2.133-5.483 3.004-.853.39-1.72.753-2.602 1.087-2.142.816-4.364 1.467-6.65 1.938-2.21.455-4.483.743-6.8.848-.67.03-1.345.047-2.022.047-.64 0-1.28-.015-1.914-.043-4.608-.198-9.03-1.114-13.159-2.64-1.056-.388-2.09-.818-3.105-1.285-1.925-.887-3.775-1.908-5.536-3.058-1.173-.762-2.305-1.58-3.397-2.449-6.039-4.809-10.777-11.19-13.599-18.53-.388-1.004-.737-2.025-1.05-3.064-1.21-4.012-1.86-8.271-1.86-12.68 0-5.549 1.03-10.86 2.91-15.746l.03-.074c1.726-4.462 4.158-8.566 7.161-12.178.082-.1.164-.197.248-.295 8.001-9.456 19.937-15.455 33.271-15.455 24.091 0 43.621 19.587 43.621 43.748" mask="url(#prefix__d)"/>
        <path fill="#FFC839" d="M236.021 173.278L236.016 173.278 231.743 173.278 231.738 173.278 231.734 173.278 231.734 176.38 236.025 176.38 236.025 173.278z" mask="url(#prefix__d)"/>
        <path fill="#FFB332" d="M231.742 173.28l-.004-.002h-.005v3.102h2.146v-3.1h-2.137zM236.02 173.278c1.184-.002 2.142-.965 2.142-2.152 0-1.188-.96-2.151-2.146-2.151h-2.137v4.303h2.142z" mask="url(#prefix__d)"/>
        <path fill="#FFC839" d="M229.597 171.127c0 1.188.958 2.15 2.14 2.152h2.142v-4.304h-2.136c-1.186 0-2.146.963-2.146 2.152" mask="url(#prefix__d)"/>
        <path fill="#BEC8F7" d="M233.879 173.28v-.002h-2.141l.004.001h2.137z" mask="url(#prefix__d)"/>
        <path fill="#969287" d="M233.879 173.28h2.137l.005-.002h-2.142v.001z" mask="url(#prefix__d)"/>
        <path fill="#FFB332" d="M249.055 162.177h-30.352c-1.185 0-2.146.963-2.146 2.153 0 1.188.96 2.151 2.146 2.151h.392v9.899h4.292v-9.899h20.985v9.899h4.292v-9.899h.39c1.186 0 2.147-.963 2.147-2.151 0-1.19-.961-2.153-2.146-2.153" mask="url(#prefix__d)"/>
        <path fill="#FFC839" d="M218.703 162.177c-1.185 0-2.146.963-2.146 2.153 0 1.188.96 2.151 2.146 2.151h.392v9.899h4.292v-9.899h10.492v-4.304h-15.176zM249.055 222.64h-30.352c-1.185 0-2.146.965-2.146 2.153v8.688c0 1.188.96 2.152 2.146 2.152h30.352c1.185 0 2.146-.964 2.146-2.152v-8.688c0-1.188-.961-2.152-2.146-2.152" mask="url(#prefix__d)"/>
        <path fill="#FFB332" d="M249.055 222.64H233.88v12.993h15.176c1.185 0 2.146-.964 2.146-2.152v-8.688c0-1.188-.96-2.152-2.146-2.152" mask="url(#prefix__d)"/>
        <path fill="#FFC839" d="M248.348 174.807H219.41c-6.23 0-11.284 5.068-11.284 11.317v29.504c0 6.251 5.053 11.317 11.285 11.317h28.938c6.232 0 11.284-5.066 11.284-11.317v-29.504c0-6.25-5.052-11.317-11.284-11.317" mask="url(#prefix__d)"/>
        <path fill="#FFB332" d="M248.348 174.807H233.88v52.138h14.47c6.231 0 11.283-5.066 11.283-11.317v-29.504c0-6.25-5.052-11.317-11.284-11.317" mask="url(#prefix__d)"/>
        <path fill="#E59D29" d="M243.17 199.76l-7.561-10.34c-.404-.552-1.047-.88-1.73-.88s-1.325.328-1.73.88l-7.561 10.34c-1.903 2.601-2.642 5.905-2.028 9.063.618 3.172 2.553 5.97 5.314 7.676 1.852 1.147 3.929 1.718 6.005 1.718 2.078 0 4.154-.571 6.006-1.718 2.76-1.706 4.696-4.504 5.313-7.676.614-3.158-.125-6.462-2.028-9.063" mask="url(#prefix__d)"/>
        <path fill="#FFB332" d="M240 206.33l-4.391-6.003c-.403-.553-1.046-.88-1.73-.88-.683 0-1.325.327-1.73.88l-4.39 6.003c-1.253 1.713-1.74 3.888-1.335 5.968.407 2.089 1.68 3.931 3.496 5.053 1.222.756 2.59 1.133 3.959 1.133 1.37 0 2.739-.377 3.96-1.133 1.815-1.122 3.09-2.964 3.496-5.053.404-2.08-.082-4.255-1.335-5.968" mask="url(#prefix__d)"/>
        <path fill="#FFB332" d="M226.424 212.298c-.405-2.08.082-4.255 1.334-5.968l4.391-6.004c.404-.552 1.047-.878 1.73-.878v-10.906c-.683 0-1.326.326-1.73.877l-7.562 10.34c-1.903 2.602-2.642 5.906-2.027 9.064.618 3.172 2.554 5.97 5.313 7.676.875.542 1.801.954 2.754 1.24-.241-.115-.476-.245-.707-.388-1.815-1.122-3.089-2.964-3.496-5.053" mask="url(#prefix__d)"/>
        <path fill="#F6DE41" d="M233.879 218.218c-1.095 0-2.19-.16-3.252-.48 1.031.498 2.141.746 3.252.746v-.266zM233.879 218.484c1.11 0 2.221-.249 3.252-.745-1.062.318-2.157.478-3.252.478v.267z" mask="url(#prefix__d)"/>
        <path fill="#FFC839" d="M233.879 218.218v-18.771c-.683 0-1.326.327-1.73.88l-4.39 6.002c-1.253 1.713-1.74 3.888-1.335 5.97.407 2.089 1.681 3.93 3.496 5.052.23.143.466.272.707.387 1.062.32 2.157.48 3.252.48" mask="url(#prefix__d)"/>
        <path fill="#57575E" d="M614.551 237.829h-13.394c-2.39 0-4.33-1.944-4.33-4.343v-56.447c0-2.399 1.94-4.342 4.33-4.342h3.363c7.931 0 14.362 6.447 14.362 14.403v46.386c0 2.399-1.939 4.343-4.33 4.343M627.194 245.337l-.773-1.443c8.258-4.448 12.685-9.98 13.157-16.44 1.113-15.224-19.823-31.017-20.035-31.174l.974-1.316c.055.041 5.511 4.133 10.743 10.12 7.098 8.124 10.444 15.691 9.947 22.491-.515 7.055-5.23 13.031-14.013 17.762M575.557 317.535s1.41 6.157.244 6.157h-19.954c-3.506-1.595 11.533-5.518 14.8-7.327 1.26-.044 4.91 1.17 4.91 1.17" mask="url(#prefix__d)"/>
        <path fill="#FFF" d="M576.498 324.313h-21.31c-.27 0-.49-.22-.49-.491 0-.272.22-.49.49-.49h21.31c.27 0 .49.218.49.49s-.22.491-.49.491" mask="url(#prefix__d)"/>
        <path fill="#57575E" d="M616.896 316.941s2.6 6.75 1.435 6.75h-15.735c-2.243 0 2.512-2.924 6.498-5.17 2.486-1.401 4.673-2.539 4.673-2.539l3.129.96z" mask="url(#prefix__d)"/>
        <path fill="#FFF" d="M618.852 324.183h-17.083c-.27 0-.49-.22-.49-.491 0-.272.22-.492.49-.492h17.083c.27 0 .49.22.49.492 0 .27-.22.49-.49.49" mask="url(#prefix__d)"/>
        <path fill="#FFBF4D" d="M601.046 178.922c3.422-.073 13.912 2.944 17.195 5.849 3.82 3.38 2.513 14.658 1.727 16.736-1.13 2.987-3.352 4.468-6.272 4.356 1.032 7.267 1.781 15.397.799 18.472-.292 3.696-21.122 8.837-32.11 3.327-1.206-.605 1.068-18.372.954-21.8-.01-.292-.232-.534-.521-.568-2.418-.281-8.244 5.639-7.172 1.953 1.358-4.67 1.529-21.21 5.044-23.262 3.856-2.25 7.041-2.994 10.554-3.881 5.464-1.377 9.802-1.182 9.802-1.182" mask="url(#prefix__d)"/>
        <path fill="#FFBF4D" d="M613.041 182.062c-9.23 4.615-5.226 42.718 1.494 41.726 3.706 6.986 1.54 15.781.83 20.798-.829 5.856-23.942-6.687-23.942-6.687s-11.123-1.756-10.723-3.784c.401-2.027 1.153-9.87 1.153-9.87s1.32-39.179 4.217-42.685c.715-.864 5.525-1.704 5.173-1.46-1.797 1.246-4.009 14.644-3.05 16.221.96 1.577 11.006 1.878 12.803 1.202 1.797-.676 2.462-13.525 7.893-16.958.848-.536 4.691 1.228 4.152 1.497" mask="url(#prefix__d)"/>
        <path fill="#FFBF4D" d="M581.707 225.795l32.828-2.007c1.27 6.086.452 45.065 1.938 49.866 1.566 5.058 3.783 7.807 4.837 10.946 3.683 10.962-.903 24.688-3.052 32.273-.218.77-8.716.638-8.716-.562 0-13.31-5.799-32.685-7.526-37.507-1.23-3.432-5.5-25.75-5.5-25.75l-8.904 22.652c-.394 1.002-.524 2.09-.376 3.156.458 3.3 1.376 10.776.757 13.649-1.522 7.053-7.366 21.753-10.923 26.058-1.37 1.659-8.449-1.408-8.209-2.634 2.296-11.729 3.78-26.857 4.991-38.63 1.44-13.984 7.19-48.322 7.855-51.51" mask="url(#prefix__d)"/>
        <path fill="#E59D29" d="M610.675 243.113c-.076 0-.153-.021-.221-.066-1.678-1.086-5.644-5.537-5.5-10.105.008-.226.198-.401.422-.396.225.008.403.196.395.423-.135 4.237 3.562 8.377 5.126 9.39.189.122.244.375.12.566-.077.121-.208.188-.342.188M596.395 252.799c-.191 0-.362-.135-.4-.33-1.596-8.126-2.315-11.853-2.361-12.466-.017-.225.152-.423.377-.439.224-.019.42.153.438.379.046.616 1.045 5.736 2.347 12.368.044.221-.1.437-.321.48-.027.006-.054.008-.08.008M594.205 251.731c-.042 0-.085-.007-.127-.02-.215-.07-.331-.302-.261-.517.264-.807.462-1.476.589-1.991.054-.22.276-.353.494-.299.22.053.353.276.299.496-.132.534-.335 1.224-.606 2.05-.056.172-.216.281-.388.281zm-1.407 3.969c-.048 0-.096-.009-.143-.026-.211-.08-.32-.316-.24-.528.264-.707.506-1.37.72-1.971.077-.213.31-.325.523-.248.213.077.323.31.247.524-.216.604-.46 1.271-.724 1.982-.062.165-.218.267-.383.267zm-1.501 3.932c-.05 0-.1-.009-.15-.027-.21-.082-.313-.32-.231-.531.259-.665.512-1.321.757-1.962.08-.212.317-.317.528-.236.21.082.315.318.234.529-.245.643-.5 1.3-.758 1.967-.063.161-.217.26-.38.26zm-1.537 3.919c-.05 0-.101-.01-.151-.028-.21-.083-.312-.321-.23-.532l.772-1.958c.083-.211.32-.313.53-.23.21.082.313.32.23.53l-.771 1.96c-.064.16-.218.258-.38.258zm-1.547 3.915c-.05 0-.101-.009-.15-.029-.21-.082-.313-.32-.23-.53.252-.641.51-1.296.773-1.958.084-.21.32-.314.53-.23.21.083.313.321.23.53l-.773 1.959c-.064.161-.218.258-.38.258zm-1.531 3.923c-.05 0-.1-.01-.146-.028-.211-.082-.316-.318-.235-.529.239-.624.495-1.28.762-1.966.082-.21.319-.314.529-.231.21.083.314.32.232.531-.267.681-.522 1.338-.761 1.96-.062.162-.217.263-.381.263zm-1.448 3.954c-.042 0-.086-.007-.13-.02-.212-.072-.33-.304-.257-.518.178-.54.41-1.194.708-2 .079-.21.314-.32.525-.24.212.078.319.314.24.526-.294.797-.522 1.44-.698 1.972-.057.172-.217.28-.388.28zm-.352 4.152c-.218 0-.4-.172-.408-.393-.03-.739-.06-1.506-.07-2.11-.003-.228.176-.415.402-.417.224-.007.41.175.415.402.01.597.039 1.357.069 2.092.01.225-.166.416-.391.426h-.017zm.16 4.202c-.22 0-.4-.177-.407-.398-.018-.622-.041-1.288-.074-2.097-.008-.225.167-.416.392-.425.226-.007.416.167.425.393.032.81.056 1.48.074 2.105.006.226-.171.415-.397.422h-.012zm.024 4.203h-.012c-.225-.006-.403-.196-.396-.42.013-.464.02-.974.02-1.517l-.002-.57c-.002-.227.179-.412.405-.414.226-.006.41.18.412.408l.002.576c0 .55-.007 1.068-.021 1.54-.006.222-.188.397-.408.397zm-.523 4.164c-.033 0-.067-.004-.102-.013-.218-.056-.35-.28-.293-.498.118-.46.205-.846.259-1.146.047-.255.088-.544.122-.863.024-.225.225-.39.45-.363.224.024.386.225.362.45-.037.339-.08.649-.13.923-.058.319-.15.724-.272 1.202-.047.186-.213.308-.396.308zm-1.193 4.039c-.042 0-.084-.007-.125-.02-.215-.07-.333-.3-.265-.515.23-.724.44-1.398.622-2.004.064-.216.292-.339.508-.273.217.064.339.291.274.508-.182.612-.393 1.29-.626 2.019-.055.174-.216.285-.388.285zm-1.328 3.996c-.044 0-.088-.008-.132-.023-.214-.073-.327-.307-.254-.52.233-.68.458-1.346.673-1.991.07-.216.302-.33.516-.26.214.072.33.304.258.519-.215.648-.441 1.316-.674 1.998-.06.17-.217.277-.387.277zm-1.394 3.973c-.046 0-.092-.008-.138-.025-.213-.076-.323-.311-.246-.524.237-.664.473-1.325.703-1.981.075-.214.308-.326.52-.251.214.075.325.31.25.523-.231.657-.466 1.321-.705 1.986-.06.167-.217.272-.384.272zm-1.45 3.953c-.047 0-.095-.01-.142-.027-.212-.08-.32-.315-.24-.527.243-.648.487-1.308.73-1.972.078-.212.313-.32.525-.243.212.078.32.314.242.526-.244.666-.488 1.327-.732 1.977-.061.163-.217.266-.382.266zm-1.508 3.93c-.05 0-.1-.009-.15-.028-.21-.083-.312-.323-.23-.533.248-.627.503-1.282.762-1.958.08-.211.318-.316.528-.235.21.081.315.318.234.53-.26.677-.515 1.334-.764 1.965-.063.16-.217.259-.38.259zm-1.605 3.892c-.055 0-.11-.01-.164-.034-.206-.091-.3-.333-.21-.541.247-.563.522-1.213.817-1.929.086-.21.324-.31.533-.224.208.087.308.326.222.535-.297.724-.574 1.379-.824 1.949-.067.153-.216.244-.374.244zm-1.252 2.514c-.081 0-.162-.024-.233-.074-.185-.129-.231-.384-.103-.57.09-.129.2-.318.33-.565.106-.2.353-.276.552-.17.2.106.276.354.17.553-.147.28-.271.493-.381.65-.08.114-.206.176-.335.176z" mask="url(#prefix__d)"/>
        <path fill="#FFF" d="M613.899 228.675c-.188 0-.357-.131-.399-.323-.073-.34-.154-.678-.241-1.002-.058-.219.072-.444.289-.501.218-.06.442.07.5.29.09.336.174.686.25 1.04.048.221-.092.438-.313.486-.028.007-.058.01-.086.01" mask="url(#prefix__d)"/>
        <path fill="#E59D29" d="M614.45 232.738c-.212 0-.392-.166-.406-.382-.048-.695-.115-1.372-.2-2.016-.03-.224.127-.43.35-.46.224-.029.429.128.459.352.088.66.157 1.356.206 2.067.015.227-.155.422-.38.438h-.028zm.073 4.102h-.01c-.226-.006-.404-.195-.398-.42.012-.452.018-.898.018-1.325 0-.236-.002-.472-.006-.71-.003-.227.177-.414.402-.416h.006c.223 0 .405.179.409.402.004.243.006.484.006.724 0 .435-.006.887-.02 1.345-.004.223-.186.4-.407.4zm-.237 4.098l-.033-.001c-.225-.02-.392-.217-.374-.443.062-.757.109-1.405.147-2.038.013-.225.208-.397.432-.385.225.014.396.208.383.434-.037.63-.086 1.303-.148 2.057-.017.214-.196.376-.407.376zm-.292 4.094h-.01c-.225-.005-.404-.193-.398-.419l.012-.488c.014-.46.059-1.034.105-1.587.019-.224.217-.393.442-.373.224.02.39.217.372.443-.043.514-.09 1.1-.102 1.542l-.013.482c-.005.224-.187.4-.408.4zm-.074 4.107h-.007c-.225-.003-.405-.19-.402-.416.01-.755.023-1.446.033-2.053.004-.226.189-.406.416-.403.225.004.405.192.4.417l-.032 2.052c-.003.225-.186.403-.408.403zm-.05 4.106h-.002c-.226-.002-.407-.186-.405-.413l.02-2.054c.004-.225.194-.405.415-.404.225.002.406.188.403.414-.008.656-.015 1.343-.021 2.052-.002.226-.184.405-.41.405zm-.023 4.107h-.002c-.226 0-.408-.184-.407-.41.002-.695.005-1.38.009-2.055.002-.225.184-.407.409-.407h.002c.226.002.407.186.406.412l-.01 2.052c0 .226-.183.408-.407.408zm.002 4.108c-.225 0-.407-.182-.41-.408-.002-.683-.004-1.37-.004-2.056 0-.226.183-.41.409-.41.225 0 .408.184.408.41 0 .684.002 1.37.005 2.052 0 .226-.181.411-.406.412h-.002zm.04 4.105c-.222 0-.404-.177-.408-.402-.01-.67-.02-1.358-.026-2.056-.002-.225.179-.411.404-.413h.005c.223 0 .406.18.408.405.007.696.015 1.381.026 2.05.004.227-.176.413-.402.416h-.007zm.105 4.106c-.218 0-.4-.173-.407-.393-.024-.636-.046-1.329-.064-2.058-.005-.226.173-.414.398-.42.234-.01.413.173.419.4.018.726.039 1.414.063 2.046.008.227-.167.416-.393.425h-.016zm.264 4.098c-.205 0-.382-.153-.405-.363-.063-.554-.12-1.25-.17-2.069-.012-.224.16-.42.385-.432.226-.011.419.158.432.383.048.803.103 1.485.164 2.026.026.226-.135.428-.36.453-.015.002-.031.002-.046.002zm1.336 3.856c-.154 0-.301-.088-.371-.236-.375-.806-.646-1.404-.851-1.884-.09-.207.006-.449.214-.538.206-.089.447.006.536.214.203.473.47 1.063.84 1.86.097.205.009.45-.196.545-.056.025-.115.039-.172.039zm1.747 3.716c-.154 0-.302-.088-.371-.236-.291-.627-.586-1.251-.872-1.857-.096-.204-.01-.448.195-.545.203-.098.447-.01.544.194.286.607.582 1.233.873 1.862.096.204.007.448-.197.543-.056.026-.115.04-.172.04zm1.66 3.755c-.162 0-.314-.096-.38-.254-.224-.556-.486-1.169-.801-1.876-.092-.207 0-.448.206-.54.206-.094.447 0 .54.206.319.715.584 1.337.813 1.9.085.21-.015.449-.224.534-.051.02-.103.03-.154.03zm1.154 3.929c-.197 0-.371-.144-.403-.345-.104-.654-.23-1.239-.374-1.738l-.062-.206c-.067-.216.054-.445.269-.512.216-.067.445.054.512.27l.065.219c.154.533.287 1.15.397 1.837.036.224-.116.435-.34.47-.021.003-.042.005-.064.005zm.354 4.087c-.22 0-.401-.176-.408-.397-.023-.712-.061-1.395-.113-2.028-.018-.225.149-.424.373-.442.227-.018.423.149.44.374.054.647.093 1.344.116 2.07.008.226-.17.415-.395.422h-.013zm-.02 4.104h-.016c-.225-.01-.4-.199-.392-.426.026-.693.04-1.38.045-2.039 0-.225.184-.406.408-.406h.003c.226.001.407.185.406.411-.004.668-.02 1.363-.046 2.065-.008.221-.19.395-.408.395zm-.264 4.096l-.037-.001c-.225-.02-.39-.22-.37-.445.062-.683.115-1.368.158-2.037.015-.225.209-.395.434-.38.226.012.396.209.38.433-.043.676-.096 1.367-.158 2.057-.02.213-.198.373-.407.373zm-.467 4.076c-.018 0-.037 0-.057-.003-.223-.032-.38-.238-.348-.462.093-.67.18-1.352.257-2.027.026-.224.227-.387.452-.359.224.025.385.228.36.453-.078.681-.166 1.37-.26 2.045-.028.206-.203.353-.404.353zm-.666 4.052c-.026 0-.052-.002-.078-.007-.221-.042-.366-.258-.324-.48.126-.655.246-1.332.357-2.011.037-.223.247-.374.47-.338.222.037.373.248.336.471-.112.686-.234 1.37-.36 2.032-.038.197-.21.333-.401.333zm-.888 4.008c-.033 0-.067-.004-.101-.013-.218-.056-.35-.279-.295-.499.164-.64.322-1.307.47-1.984.05-.22.268-.36.488-.31.22.048.36.267.31.487-.15.686-.311 1.362-.476 2.01-.047.186-.213.309-.396.309z" mask="url(#prefix__d)"/>
        <path fill="#FFF" d="M617.366 316.392c-.041 0-.083-.007-.124-.02-.215-.069-.334-.3-.265-.515.102-.32.204-.655.305-.995.063-.216.29-.34.507-.278.216.066.34.292.276.51-.102.346-.206.687-.31 1.013-.055.173-.216.285-.39.285" mask="url(#prefix__d)"/>
        <path fill="#FFBF4D" d="M588.957 171.63c-1.309-1.446-3.458-10.07-1.713-13.269 1.225-2.247 6.04-6.283 12.401-2.185 5.265 5.46 4.515 11.436 1.74 14.912-1.794 2.249-12.428.543-12.428.543" mask="url(#prefix__d)"/>
        <path fill="#FFBF4D" d="M599.789 167.355c.156 7.373 3.706 11.268 4.952 11.928.984.52-3.705 4.56-6.102 4.907-7.288 1.054-9.933-3.579-8.771-3.972 1.16-.391 2.648-1.616 1.984-8.575 4.766-.994 7.937-4.288 7.937-4.288" mask="url(#prefix__d)"/>
        <path fill="#FFF" d="M593.227 175.79c7.618-.55 5.107-8.6 4.817-8.797-.041-.027-.074-.147-.103-.336v-.001c-.175-1.16-.172-4.905-.605-5.666-.354-.626-9.52-1.788-9.234 2.007.123 1.629.27 4.382.424 5.86.43 4.087 1.365 7.173 4.7 6.932" mask="url(#prefix__d)"/>
        <path fill="#FFBF4D" d="M593.382 176.492c7.618-.549 9.03-7.302 9.11-8.43 0 0-3.46.341-3.604-1.64-.102.234-.555.767-.845.57-.04-.026-.074-.146-.103-.336-.503 1.35-3.504 1.528-5.587 1.408-1.3-.075-2.848.414-3.827.792.43 4.088 1.52 7.876 4.856 7.636" mask="url(#prefix__d)"/>
        <path fill="#FFF" d="M593.382 176.9c-.212 0-.392-.164-.407-.38-.016-.225.153-.42.378-.436 3.092-.223 5.472-1.509 7.075-3.824 1.241-1.79 1.616-3.658 1.655-4.227.016-.226.211-.396.436-.38.225.016.395.21.38.437-.148 2.118-2.208 8.286-9.488 8.81h-.029" mask="url(#prefix__d)"/>
        <path fill="#FFBF4D" d="M569.686 216.96s3.778-6.212 7.21-11.726c3.43-5.515 6.205-4.468 6.002-1.35-.204 3.117 5.267 9.793-6.003 19.053-11.27 9.26-7.209-5.977-7.209-5.977" mask="url(#prefix__d)"/>
        <path fill="#FFBF4D" d="M570.174 214.496c2.586-.236 8.232 7.79 8.222 8.858-.006.654-5.263 2.1-5.844 3.223-.582 1.122-2.736 5.782-4.7 6.86-3.022 1.655-12.5-3.18-10.87-5.766 2.122-3.367 7.907-6.172 9.083-7.25 1.175-1.08 2.874-5.813 4.11-5.925" mask="url(#prefix__d)"/>
        <path fill="#57575E" d="M605.88 250.579c-4.072 0-8.168-.678-12.232-2.028-4.793-1.593-9.553-4.12-14.149-7.51-7.806-5.759-12.37-11.933-12.562-12.194l1.317-.97c.045.063 4.635 6.26 12.25 11.872 6.98 5.14 18.014 10.83 30.954 8.744 15.069-2.43 19.437-8.228 19.479-8.287l1.327.954c-.184.26-4.705 6.396-20.547 8.95-1.937.312-3.885.469-5.837.469M565.967 220.529L536.558 229.266 535.749 226.526 565.158 217.789z" mask="url(#prefix__d)"/>
        <path fill="#57575E" d="M569.757 221.855L551.928 227.152 549.725 219.692 567.554 214.396z" mask="url(#prefix__d)"/>
        <path fill="#57575E" d="M570.653 229.279L567.746 231.478 560.435 221.753 563.343 219.555zM534.983 231.027L533.409 225.699 537.839 227.281z" mask="url(#prefix__d)"/>
        <path fill="#FFBF4D" d="M620.937 214.37c-2.906 6.275 1.975 14.891 3.405 20.801.212.874 4.906 2.381 5.072 1.024.262-2.139 5.066-15.826-.462-23.551-1.338-1.869-2.955-4.87-4.268-4.986-3.854-.341-3.747 6.713-3.747 6.713" mask="url(#prefix__d)"/>
        <path fill="#FFBF4D" d="M622.609 231.743c1.363-2.038 10.57-1.422 11.344-.78.474.392-1.589 5.11-1.115 6.202.474 1.094 1.848 4.354 1.771 6.467-.078 2.118-9.259 6.438-10.321 4.837-2.283-3.444-1.084-8.44-1.174-9.943-.09-1.503-1.155-5.81-.505-6.783M620.242 216.542c-1.174-3.317-7.97-11.51-8.615-15.201-.534-3.051 4.583-18.905 6.615-16.57 3.577 4.11 10.667 24.167 11.02 28.33.112 1.318-8.57 4.713-9.02 3.44" mask="url(#prefix__d)"/>
        <path fill="#FFF" d="M606.382 224.535c-.203 0-.379-.151-.405-.359-.027-.225.132-.43.356-.456.676-.084 1.354-.177 2.015-.278.223-.034.431.12.465.344.034.223-.119.432-.343.466-.668.101-1.354.196-2.038.28-.016.002-.033.003-.05.003m-18.38.234l-.04-.002c-1.295-.122-2.025-.225-2.055-.229-.223-.032-.379-.239-.347-.463.032-.225.24-.38.462-.348.007 0 .743.105 2.016.224.224.021.39.222.368.447-.019.211-.197.37-.405.37m14.308.16c-.212 0-.39-.165-.406-.382-.016-.226.153-.421.378-.437.68-.048 1.362-.105 2.03-.169.224-.023.423.144.445.368.021.226-.144.426-.368.448-.674.064-1.364.122-2.049.17l-.03.001m-10.225.12h-.018c-.688-.032-1.379-.07-2.053-.115-.225-.015-.396-.21-.38-.436.015-.226.212-.395.435-.381.668.045 1.352.083 2.034.113.225.01.4.203.39.428-.01.22-.19.392-.408.392m6.138.068c-.22 0-.403-.179-.408-.4-.005-.227.173-.415.4-.42.681-.016 1.366-.038 2.034-.07.228-.004.417.165.427.391.01.226-.164.417-.389.429-.675.03-1.366.053-2.055.069h-.009m-2.046.024c-.683 0-1.375-.008-2.056-.023-.225-.005-.404-.193-.399-.42.005-.225.19-.397.417-.4.676.015 1.361.023 2.037.023.226 0 .41.184.41.41 0 .226-.183.41-.409.41" mask="url(#prefix__d)"/>
        <path fill="#57575E" d="M594.595 172.696c0 1.04-.84 1.885-1.879 1.885-1.038 0-1.878-.845-1.878-1.885s.84-1.884 1.878-1.884c1.038 0 1.88.843 1.88 1.884M613.041 182.062s-1.566-2.503-4.152-1.497c-2.586 1.006-6.312 7.895-5.348 17.476.965 9.58 11.078 15.58 11.078 15.58l-.562-5.078s-6.774-5.018-6.774-13.865c0-8.848 5.758-12.616 5.758-12.616M589.867 180.218s-3.01-.572-3.797 1.342c-.786 1.915-5.293 10.295-2.904 27.844 0 0 3.142-23.407 6.701-29.186M508.853 230.792c-.301 0-.568-.215-.624-.523-.062-.346.167-.677.512-.74l18.775-3.396c.345-.062.675.167.737.513.062.346-.167.677-.512.74l-18.775 3.396c-.037.007-.075.01-.113.01M504.036 242.34c-.258 0-.5-.158-.595-.414-.122-.33.046-.696.375-.818l25.845-9.596c.329-.122.694.046.815.376.122.33-.046.695-.375.819l-25.845 9.594c-.072.027-.147.04-.22.04M518.97 247.354c-.212 0-.418-.104-.539-.297-.187-.297-.097-.69.2-.878l15.327-9.681c.297-.189.688-.1.875.198.187.298.098.691-.199.878l-15.328 9.682c-.105.067-.222.098-.337.098" mask="url(#prefix__d)"/>
        <path fill="#7F786A" d="M499.5 323.082c-2.187-.313-4.836-.088-6.787.953.363 2.51-1.017 5.179-3.272 6.33-.983.5-2.08.723-3.131 1.06-1.052.335-2.11.823-2.787 1.696-.677.874-.96 2.326-.244 3.17 5.628.65 11.42.417 16.94-.869-1.188-3.984-1.436-8.246-.718-12.34M536.873 324.816c2.172 3.633 3.217 7.933 2.958 12.161-4.263.267-8.335.316-12.577-.184-.484-2.001.418-4.03 1.187-5.939.77-1.91 2.046-3.947 1.674-5.973 2.408-.087 4.352-.209 6.758-.065" mask="url(#prefix__d)"/>
        <path fill="#A29C8F" d="M490.178 328.094l10.74-.117 6.694-28.7 10.507-45.044.084 2.615 6.523 42.75 4.284 28.075 9.336-.104s-.327-13.682.241-30.585c.611-17.962 1.311-64.7 1.322-64.916-7.198-2.266-13.66-3.533-22.189-3.533-6.667 0-10.778.775-16.686 2.194-.02.5-5.143 43.853-7.01 65.31-1.543 17.697-3.846 32.055-3.846 32.055" mask="url(#prefix__d)"/>
        <path fill="#7F786A" d="M500.92 327.98L518.12 254.232 510.756 250.356 500.138 327.988z" mask="url(#prefix__d)"/>
        <path fill="#FFB332" d="M529.256 187.09s-4.71-2.264-11.582.096l-1.56 3.02 3.86 2.403 9.445-2.032-.163-3.487z" mask="url(#prefix__d)"/>
        <path fill="#311649" d="M517.72 254.232l.084 2.615c.05-1.047.025-1.926-.084-2.615" mask="url(#prefix__d)"/>
        <path fill="#703CD5" d="M540.311 244.084l-.126.22.13-.046-.004-.174z" mask="url(#prefix__d)"/>
        <path fill="#FFBF4D" d="M546.705 211.3c-.091.686-.197 1.396-.324 2.124 0 0-2.652.666-6.348.305l.083 8.038.09 9.134.115 11.127c-.31.098-.62.197-.937.294-5.085 1.537-10.533 2.247-15.991 2.143-1.466-.026-2.935-.111-4.395-.257-6.46-.64-12.793-2.418-18.407-5.307-.272-.139-.536-.28-.806-.423l.934-7.485.946-7.9 1.368-10.943c.01-.086.02-.175.026-.26l-.3.239c-.178-.089-.354-.177-.525-.27-8.056-4.28-8.844-13.45-8.844-13.45.853-.967 1.748-1.84 2.672-2.633 6.319-5.42 14.014-6.994 18.635-7.43.768-.076 1.45-.115 2.029-.138 1.299-.05 2.067-.003 2.067-.003.148.15.288.3.418.455.176-.044.35-.088.524-.127.1-.03.202-.055.303-.078.099-.027.197-.048.296-.074l.742-.184c.59.3 1.222.614 1.86.939h.005c.047.024.088.047.135.074.013.004.029.009.039.015.223.116.449.228.677.343.179.091.358.18.53.266l.062.034.22-.07c.07-.025.143-.045.208-.072.132-.044.259-.093.386-.142.112-.041.218-.088.325-.133.109-.047.21-.09.31-.138l.154-.065c.156-.068.306-.133.467-.2.049-.024.1-.044.156-.065.054-.019.109-.039.168-.062.109-.042.226-.082.345-.123l.187-.06c.016.008.029.01.044.02.018.011.044.021.065.027.124.057.37.159.72.3.2-.247.427-.49.676-.73 0 0 .446-.013 1.229.022.247.01.524.025.833.048h.013c.563.04 1.23.1 1.977.196 1.152.142 2.499.367 3.967.708 5.266 1.781 11.835 6.975 9.87 21.97" mask="url(#prefix__d)"/>
        <path fill="#FFE2B7" d="M528.766 188.175c-.937 1.691-3.383 4.724-8.792 4.433-2.534-.754-2.657-3.074-2.496-4.422.348-.005.634-.004.852.003.006-.017.012-.026.015-.034v-.002c.187-.31.36-.627.522-.948.092-.18.182-.367.266-.554.368-.803.66-1.632.857-2.475 3.09-.72 5.95-2.049 8.424-4.04-.403 2.277-.37 4.626.084 6.894 0 .015.003.029.008.04.073.37.162.739.26 1.105" mask="url(#prefix__d)"/>
        <path fill="#57575E" d="M522.024 168.627c-1.406 1.633-1.984 3.948-1.51 6.051.854-1.156 1.693-2.34 2.547-3.497.261-.354.533-.739.536-1.18.002-.41-.241-.791-.556-1.053-.315-.261-.64-.163-1.017-.321" mask="url(#prefix__d)"/>
        <path fill="#FFC581" d="M519.134 186.651c.171.123.347.24.528.351 1.327.815 2.876 1.269 4.433 1.278.41.003.818-.026 1.223-.085.12-.018.24-.036.358-.059.996-.186 1.957-.548 2.83-1.067-.004-.012-.007-.025-.007-.039-.457-2.268-.489-4.618-.084-6.894-2.475 1.99-5.337 3.32-8.424 4.039-.199.843-.49 1.674-.857 2.476" mask="url(#prefix__d)"/>
        <path fill="#FFE2B7" d="M531.476 173.577c-.745 2.781-1.946 5.444-3.536 7.839-.07.107-.143.213-.213.32-1.294 1.891-2.93 3.685-5.092 4.44-.384.134-.78.231-1.186.291-1.614.234-3.323-.138-4.61-1.137-1.609-1.25-2.44-3.49-1.878-5.452.38-1.324 1.312-2.414 2.332-3.332.124-.112.25-.222.376-.33h.003c.915-.786 1.894-1.502 2.74-2.361.962-.983 2.036-2.456 2.166-3.824l.19-.017c3.405-.261 6.57.875 8.708 3.563" mask="url(#prefix__d)"/>
        <path fill="#57575E" d="M529.609 179.588c-.647-.913-.924-2.082-.758-3.19.166-1.108.775-2.143 1.661-2.826-2.085-.302-4.18-.75-6.046-1.731-1.865-.981-3.446-2.773-3.588-4.881-.058-.845.127-1.72.61-2.414.805-1.158 2.383-1.65 3.748-1.312 1.367.337 2.489 1.41 3.059 2.7.343.779.514 1.648 1.029 2.325.549.723 1.408 1.12 2.206 1.548.798.43 1.616.97 1.945 1.816.252.646.175 1.384-.068 2.034-.242.65-.637 1.23-1.028 1.801-.901 1.317-1.869 2.814-2.77 4.13" mask="url(#prefix__d)"/>
        <path fill="#FFB332" d="M529.256 187.09s-1.82 5.918-9.283 5.519l2.076 4.715s7.628-2.322 8.827-8.9l-1.62-1.334zM517.673 187.186l-2.504 1.116c-1.675 4.475 1.382 7.81 1.382 7.81l3.422-3.503c-3.646-1.089-2.3-5.423-2.3-5.423M540.206 230.901c-2.203-.072-4.4.008-6.553.442-3.533.716-6.989 2.499-9 5.499-1.476 2.203-1.992 5.12-1.26 7.623-1.467-.026-2.935-.112-4.395-.257l-2.935-11.615c-.428-1.689-.79-3.685.34-5.01.672-.788 1.723-1.123 2.72-1.415 6.872-1.997 13.896-3.47 20.992-4.401l.091 9.134z" mask="url(#prefix__d)"/>
        <path fill="#FFBF4D" d="M490.808 152.832l-20.682 3.221-.195-5.641-.52-15.056c2.584-.662 5.252-1.214 7.998-1.641 2.444-.38 4.863-.649 7.244-.811l.569-.04 5.586 19.968z" mask="url(#prefix__d)"/>
        <path fill="#E59D29" d="M490.808 152.832l-20.682 3.221-.195-5.641c1.996.053 3.987-.02 5.945-.403 3.302-.646 6.546-2.296 8.407-5.104 1.302-1.968 1.839-4.393 1.704-6.752-.105-1.811-.59-3.59-1.334-5.25l.569-.038 5.586 19.967z" mask="url(#prefix__d)"/>
        <path fill="#FFB332" d="M495.948 149.65l3.117 20.125-31.683 4.936-3.107-20.069c4.86-1.79 10.152-3.175 15.747-4.047 5.486-.853 10.843-1.15 15.926-.945" mask="url(#prefix__d)"/>
        <path fill="#E59D29" d="M481.952 138.318c.314 2.032-1.073 3.934-3.098 4.25-2.026.315-3.923-1.076-4.237-3.107-.315-2.032 1.072-3.934 3.098-4.25 2.025-.315 3.922 1.076 4.237 3.107" mask="url(#prefix__d)"/>
        <path fill="#FFF4DD" d="M510.423 169.402l13.33 86.08c.572 3.701-1.699 7.25-5.293 8.269-6.45 1.827-13.22 3.313-20.234 4.405-7.014 1.094-13.916 1.736-20.613 1.957-3.733.123-6.97-2.57-7.543-6.27l-13.33-86.08c-.077-.5-.103-.994-.08-1.48.141-3.128 2.261-5.907 5.373-6.786 6.45-1.827 13.22-3.316 20.233-4.409 7.014-1.092 13.916-1.732 20.614-1.954 3.733-.124 6.97 2.567 7.543 6.268" mask="url(#prefix__d)"/>
        <path fill="#E59D29" d="M466.423 240.296l-6.39-41.264c8.48-2.318 17.443-4.246 26.759-5.696 9.21-1.435 18.229-2.323 26.92-2.698l6.39 41.264c-8.692.375-17.711 1.263-26.921 2.696-9.316 1.452-18.278 3.378-26.758 5.698" mask="url(#prefix__d)"/>
        <path fill="#F7E8C8" d="M510.423 169.402l7.44 48.046c-.818-2.49-1.684-4.965-2.596-7.422-2.597-6.992-5.606-13.9-9.907-19.991-4.298-6.091-9.98-11.362-16.851-14.23-10.018-4.187-21.437-2.874-31.85.479.142-3.13 2.262-5.908 5.374-6.787 6.45-1.827 13.22-3.316 20.233-4.409 7.014-1.092 13.916-1.732 20.614-1.954 3.733-.124 6.97 2.567 7.543 6.268" mask="url(#prefix__d)"/>
        <path fill="#E59D29" d="M505.325 161.942L459.342 169.105 461.631 163.516 481.251 158.531 501.454 157.314z" mask="url(#prefix__d)"/>
        <path fill="#FFBF4D" d="M507.83 165.247c-.155.024-.316.033-.48.022-28.891-1.764-48.877 7.51-49.076 7.604-1.112.526-2.44.05-2.964-1.065-.525-1.114-.051-2.445 1.06-2.973.215-.101 5.377-2.53 14.297-4.74 8.185-2.027 21.242-4.243 36.955-3.283 1.227.074 2.162 1.133 2.087 2.365-.065 1.067-.867 1.913-1.88 2.07" mask="url(#prefix__d)"/>
        <path fill="#FFBF4D" d="M460.108 165.091c-.993.155-2-.385-2.399-1.358-.468-1.14.075-2.446 1.212-2.915.734-.302 18.265-7.406 43.871-6.861 1.23.027 2.205 1.047 2.179 2.28-.026 1.233-1.044 2.212-2.274 2.186-24.686-.526-41.911 6.455-42.082 6.526-.166.069-.337.116-.507.142" mask="url(#prefix__d)"/>
        <path fill="#FFF" d="M461.623 159.914c1.019-.314 2.487-.782 4.328-1.275 3.67-1.013 8.816-2.15 14.562-3.009 5.75-.835 11.004-1.246 14.81-1.399l1.359-.073c.428-.02.833-.024 1.212-.036l1.94-.062c1.067-.041 1.658-.083 1.658-.124 0-.04-.59-.074-1.657-.102l-1.947-.036c-.38-.003-.786-.015-1.216-.009l-1.362.033c-3.821.048-9.104.395-14.881 1.235-5.773.864-10.932 2.07-14.591 3.19-.317.093-.618.186-.913.279-.011-.189-.038-.475-.08-.855-.076-.689-.202-1.677-.367-2.902 3.157-1.046 7.954-2.397 13.407-3.425 4.925-.962 9.454-1.39 12.736-1.542l2.217-.08c.653-.01 1.216.002 1.676-.004.92-.007 1.432-.028 1.434-.068.003-.04-.505-.094-1.427-.158-.461-.028-1.025-.073-1.682-.093l-2.231-.006c-3.303.05-7.877.414-12.831 1.381-2.828.534-5.472 1.174-7.802 1.829.015-.224.024-.572.029-1.042.01-.852.004-2.083-.014-3.604-.038-3.042-.131-7.244-.268-11.884l-.015-.496c4.196-1.122 8.074-1.76 10.88-2.14 1.432-.185 2.59-.31 3.392-.393.802-.079 1.245-.14 1.243-.18-.002-.04-.448-.051-1.256-.04-.81.016-1.98.08-3.424.214-2.888.285-6.872.872-11.21 2.04l-.216.059.007.227.02.727c.139 4.64.295 8.84.438 11.878.07 1.52.139 2.75.199 3.599.034.486.066.844.094 1.063-2.213.626-4.141 1.263-5.663 1.837l-.144.054.026.148c.225 1.291.414 2.323.555 3.031.077.386.139.671.185.854-1.364.431-2.477.837-3.285 1.146-.996.391-1.53.651-1.515.69.016.036.575-.153 1.59-.477M504.255 160.533c-1.238-.08-3.029-.243-5.25-.23-.556-.005-1.137-.01-1.742-.017l-.927-.007-.962.031-2.022.075-1.057.04c-.358.014-.721.023-1.086.058l-2.247.18c-.384.03-.771.061-1.162.094-.391.029-.785.063-1.182.116-.793.096-1.6.192-2.419.292l-1.238.15c-.414.065-.83.13-1.248.197l-2.479.393c-.813.14-1.609.308-2.394.456-1.573.285-3.07.655-4.502.978-2.852.702-5.4 1.417-7.508 2.117-2.115.68-3.794 1.324-4.943 1.794-.573.24-1.015.432-1.31.575-.296.14-.444.23-.437.248.018.038.657-.207 1.827-.612 1.17-.404 2.863-.988 4.985-1.614 2.115-.647 4.663-1.318 7.508-1.988 1.428-.308 2.921-.664 4.488-.94.782-.145 1.575-.309 2.384-.445l2.467-.39 1.242-.195 1.231-.153c.816-.1 1.618-.2 2.407-.298.394-.055.786-.092 1.176-.123l1.154-.101c.762-.068 1.508-.133 2.236-.199.364-.039.724-.05 1.08-.069l1.052-.053 2.012-.102c.324-.016.643-.031.957-.048l.923-.01 1.736-.02c2.212-.066 4 .035 5.239.047 1.238.02 1.925.012 1.928-.027.002-.04-.68-.109-1.917-.2" mask="url(#prefix__d)"/>
        <path fill="#FFE2B7" d="M545.916 213.523c-.296 1.86-.724 3.77-1.352 5.683-.788 2.444-1.829 4.897-3.134 7.28l-.384.697c-.409.747-.975 1.38-1.65 1.862-.288.207-.596.384-.923.532-.433.198-.892.341-1.372.421-.737.126-1.479.251-2.227.376-2.685.392-5.325.602-7.878.624-.639.008-1.27-.014-1.897-.024l-.93-.023-.924-.058c-.61-.044-1.215-.077-1.81-.134-.596-.069-1.185-.133-1.763-.2-.58-.061-1.149-.16-1.71-.25-.56-.097-1.115-.18-1.654-.29-.54-.114-1.072-.228-1.594-.34-.262-.06-.52-.115-.776-.177l-.757-.202-1.466-.402c-.477-.141-.942-.3-1.396-.447-.453-.155-.897-.297-1.328-.455-.425-.167-.843-.33-1.25-.493-.405-.164-.802-.317-1.18-.49-.379-.176-.745-.347-1.103-.516-.353-.17-.695-.339-1.027-.505-.328-.177-.64-.354-.942-.526-1.212-.677-2.2-1.377-2.973-2-.392-.305-.716-.625-.989-.914-.275-.294-.493-.567-.653-.819-.322-.508-.418-.937-.275-1.283.142-.345.516-.591 1.087-.748.285-.077.62-.132 1-.168.377-.036.8-.042 1.275-.057.944-.024 2.052.044 3.323.101.314.024.638.044.976.067l1.035.052 1.084.074c.371.026.752.034 1.141.057.384.02.781.044 1.184.068l1.237.046c.42.013.843.041 1.277.052.433.008.876.02 1.325.027.223.004.446.012.675.017h.687c.46.003.927.003 1.401.005.472 0 .955-.022 1.44-.028.485-.01.976-.008 1.471-.04.495-.02.996-.04 1.504-.064.507-.031 1.017-.065 1.534-.101l.633-.04c.278-.022.555-.049.833-.073.555-.059 1.115-.094 1.678-.155 1.557-.167 3.142-.385 4.75-.643.216-.999.4-1.983.563-2.948.18-1.014.311-2.013.42-2.991.06-.51.112-1.015.161-1.513 2.727 1.434 5.435 2.055 7.74 2.282 2.78.274 4.97-.036 5.883-.206" mask="url(#prefix__d)"/>
        <path fill="#FFC581" d="M545.916 213.523c-.296 1.86-.724 3.77-1.352 5.683-.788 2.444-1.829 4.897-3.134 7.28l-.384.697c-.409.747-.975 1.38-1.65 1.862-.288.207-.596.384-.923.532 1.121-2.458 1.473-5.276.882-7.92-.854-3.825-3.65-7.135-7.223-8.697.06-.51.112-1.015.161-1.513 2.727 1.434 5.435 2.055 7.74 2.282 2.78.274 4.97-.036 5.883-.206" mask="url(#prefix__d)"/>
        <path fill="#FFE2B7" d="M504.836 218.73c-.568-.81-1.111-1.838-1.66-2.816-.285-.508-1.057-.315-1.07.269-.022 1.029-.05 2.098-.053 2.962l-5.1-1.72c-.45-.152-.922-.305-1.387-.215-.657.128-1.146.742-1.284 1.398-.14.657.017 1.344.267 1.966.91 2.265 3.147 3.932 5.572 4.151 1.944.175 5.295-.805 6.017-2.913.394-1.148-.698-2.22-1.302-3.082M460.033 199.033s-5.342 8.51 1.922 12.414c0 0 4.088-7.466-1.922-12.414" mask="url(#prefix__d)"/>
        <path fill="#FFF" d="M529.62 178.826c-.076-.048-.17-.103-.282-.162-.115-.05-.252-.092-.404-.141-.608-.188-1.525-.223-2.456.036-.928.267-1.687.699-2.184 1.068-.139.103-.257.201-.357.29-.286-1.159-.766-2.328-1.705-3.057-.767-.596-1.766-.83-2.739-.835-.612-.003-1.219.078-1.82.19h-.004c-.127.11-.252.219-.376.33-1.02.92-1.953 2.009-2.332 3.334-.563 1.961.27 4.2 1.878 5.45 1.243.965 2.881 1.34 4.447 1.154l.087.002c.16-.01.341-.035.543-.061.802-.115 1.883-.505 2.91-1.193 1.022-.693 1.8-1.498 2.297-2.122.497-.629.722-1.078.656-1.123-.129-.102-1.335 1.443-3.276 2.763-.888.595-1.775.992-2.48 1.214.23-.214.452-.436.661-.673.747-.84 1.331-1.86 1.474-2.975.086-.697 0-1.402-.148-2.09.136-.066.304-.15.5-.25.53-.267 1.27-.613 2.121-.857.853-.234 1.65-.264 2.221-.194l.39.048c.112.03.21.05.294.063.166.028.27.027.286-.009.017-.036-.054-.104-.203-.2" mask="url(#prefix__d)"/>
        <path fill="#FFE2B7" d="M528.774 179.207c.275-.218.554-.439.874-.583.32-.144.692-.204 1.024-.09.606.206.9.946.794 1.578-.106.633-.515 1.17-.952 1.64-.336.36-.703.706-1.14.938-.436.23-.953.34-1.431.216-.48-.123-.902-.508-.99-.996.748-.847 1.417-1.645 1.82-2.703" mask="url(#prefix__d)"/>
        <path fill="#E59D29" d="M114.086 173.202s1.633-1.7 7.417-1.7c5.01 0 6.436 1.7 6.436 1.7l-6.738 8.87-7.115-8.87z" mask="url(#prefix__d)"/>
        <path fill="#7F786A" d="M97.4 322.003s-2.698 9.121-1.488 9.121h16.327c2.327 0-3.112-3.528-7.248-6.566-2.58-1.896-4.343-3.853-4.343-3.853l-3.248 1.298z" mask="url(#prefix__d)"/>
        <path fill="#57575E" d="M101.062 326.788c.095 0 .187-.046.244-.13.951-1.41 2.562-1.956 4.311-1.46.157.045.32-.047.364-.203.044-.157-.047-.32-.203-.365-1.977-.562-3.877.09-4.96 1.697-.09.135-.056.319.08.41.05.034.107.051.164.051M102.87 328.503c.08 0 .16-.033.219-.098 1.324-1.47 3.198-1.904 5.14-1.189.154.056.323-.023.379-.176.056-.153-.022-.323-.175-.38-2.18-.802-4.288-.31-5.782 1.35-.11.12-.1.307.02.417.058.051.129.076.199.076M95.805 332.07h17.21c.292 0 .53-.18.53-.473 0-.294-.238-.473-.53-.473h-17.21c-.293 0-.53.179-.53.473s.237.473.53.473" mask="url(#prefix__d)"/>
        <path fill="#7F786A" d="M138.515 322.806s-1.463 8.318-.253 8.318h20.705c3.638-2.206-11.121-5.783-15.356-9.904-1.308-.059-5.096 1.586-5.096 1.586" mask="url(#prefix__d)"/>
        <path fill="#57575E" d="M146.566 327.011c.133 0 .254-.09.287-.226.146-.612.717-1.786 1.924-2.313.15-.066.218-.24.153-.39-.065-.148-.238-.218-.387-.152-1.421.62-2.091 2-2.264 2.717-.038.159.06.317.218.355.023.006.047.01.069.01M148.914 328.25c.124 0 .24-.08.28-.205.132-.407.66-1.78 1.93-2.335.15-.065.219-.24.154-.389-.065-.15-.238-.219-.387-.152-1.498.651-2.106 2.226-2.257 2.693-.051.157.034.323.189.372.03.011.06.015.09.015M137.767 332.07h21.924c.293 0 .531-.18.531-.473 0-.294-.238-.473-.53-.473h-21.925c-.293 0-.53.179-.53.473s.237.473.53.473" mask="url(#prefix__d)"/>
        <path fill="#7F786A" d="M104.98 228.4c12.913 2.192 31.742 1.049 34.323 0 .533 2.253 3.86 40.837 4.513 51.851.376 6.36 2.212 26.096 3.128 41.56.1 1.682-8.57 1.926-8.875 1.344-1.1-2.088-8.431-17.133-10.985-32.664-.407-2.47 1.639-12.088 1.022-14.487-3.926-15.265-5.12-18.264-6.062-22.08-1.218 0-6.68 22.473-8.145 28.965-2.403 10.64-7.622 33.6-8.323 39.472-.101.85-9.697 1.102-9.7.33-.01-3.277-3.12-16.166-2.475-32.51.205-5.201 4.96-11.293 5.254-14.415 1.168-12.374 1.663-23.046 2.905-32.106.913-6.657 2.585-13.138 3.42-15.26" mask="url(#prefix__d)"/>
        <path fill="#FFBF4D" d="M137.92 207.306c-.578 20.034 4.928 26.933 2.249 29.94-1.288 1.446-33.266 4.2-37.656.74-1.914-1.51 3.264-18.298 1.037-32.45l-4.584-22.538c3.496-4.576 15.584-8.325 21.822-7.825 6.267-.501 18.059 4.486 20.509 8.299 1.802 2.803 3.21 6.42 4.224 9.776 0 .003 0 .006.002.007l-7.603 14.051z" mask="url(#prefix__d)"/>
        <path fill="#FFBF4D" d="M141.774 241.04s-3.734 5.557-15.71 5.978l-1.447-6.359-1.559 6.374c-11.511-.315-21.021-6.463-21.021-6.463l.475-2.586c4.395 3.456 36.24.312 37.657-.738l1.605 3.794z" mask="url(#prefix__d)"/>
        <path fill="#E59D29" d="M123.305 181.791c-.24 0-.436.196-.436.437 0 .24.196.436.436.436s.435-.196.435-.436c0-.241-.195-.437-.435-.437M123.305 184.23c-.24 0-.436.196-.436.438 0 .24.196.436.436.436s.435-.195.435-.436c0-.242-.195-.437-.435-.437M123.305 186.672c-.24 0-.436.195-.436.436 0 .24.196.436.436.436s.435-.195.435-.436c0-.24-.195-.436-.435-.436" mask="url(#prefix__d)"/>
        <path fill="#57575E" d="M124.782 169.55c.95-.301 1.93-3.779 2.507-5.244.824-2.09 1.96-4.576 1.284-7.89-.231-1.131-.801-3.176-4.06-3.648-3.06-.444-7.698.533-8.43 3.618-3.511 1.572-1.187 5.686-.981 8.042.29 3.294 2.864 4.84 4.188 4.529 2.923-.688 3.187 1.324 5.492.593" mask="url(#prefix__d)"/>
        <path fill="#F5B48D" d="M116.348 164.163c.19 6.26-1.29 10.283-1.552 11.544-.223 1.07 1.754 3.671 6.724 3.671 3.957 0 7.167-1.892 6.58-2.947-.896-1.611-3.342-6.345-2.328-10.862 1.014-4.518-6.87 1.343-9.424-1.406" mask="url(#prefix__d)"/>
        <path fill="#F5B48D" d="M116.239 162.126c1.196-.12.9 2.167 1.137 2.193.543.057.876-3.472.988-5.571 1.437-2.362 7.47 1.496 9.165-.199.597.657 1.149 9.968-.564 12.58-.612.932-2.064 1.924-3.23 1.924-3.905 0-5.587-2.384-6.065-3.531-.495-1.187-.407-2.89-.517-3.387-1.151.065-1.633-3.936-.914-4.009" mask="url(#prefix__d)"/>
        <path fill="#57575E" d="M126.098 159.979c-.898 0-2.04-.385-3.223-.782-1.903-.64-3.872-1.303-4.562-.17l-.284-.173c.828-1.362 2.924-.656 4.952.026 1.678.565 3.413 1.15 4.14.423l.235.236c-.316.316-.748.44-1.258.44M117.458 170.164c1.286 3.172 5.676 3.666 8.375 2.889 2.242-.647 3.206-4.238 2.245-5.778-.044-.07-.144-.077-.197-.014-1.487 1.785-5.935 1.638-8.546-.073-1.706-1.12-1.44-3.633-1.285-4.979.156-1.346-1.242-.823-.958.643.284 1.467-.318 5.625.366 7.312" mask="url(#prefix__d)"/>
        <path fill="#E59D29" d="M114.086 173.202L110.827 176.72 116.465 181.651 121.334 179.069zM127.938 173.202L130.758 176.909 126.577 181.023 121.468 179.091z" mask="url(#prefix__d)"/>
        <path fill="#FFBF4D" d="M130.077 196.937s-5.816-12.825 2.614-15.992c3.53-1.327 7.681-.74 11.308 7.376 3.695 8.655 4.962 10.357 4.962 10.357s17.9-2.421 18.592-.826c0 0 2.521 2.257.67 4.468-3.424 4.089-13.276 10.267-22.67 9.958-8.503-.28-15.476-15.341-15.476-15.341" mask="url(#prefix__d)"/>
        <path fill="#E59D29" d="M137.756 208.368c-.032 0-.064-.005-.095-.017-.144-.053-.218-.213-.165-.356 1.485-4.063 1.923-8.47 1.267-12.747-.024-.151.08-.293.232-.316.151-.025.292.08.316.231.67 4.369.222 8.873-1.295 13.022-.041.113-.147.183-.26.183" mask="url(#prefix__d)"/>
        <path fill="#F7E8C8" d="M165.432 197.73c-.049.082-.108.542-.092 1.227.05 2.015 2.52 2.953 3.896 1.484 2.194-.632 7.08-.547 11.487-3.19 1.521-.91 2.165-1.949.753-2.45-1.766-.625-10.942-.903-11.718-2.391-.3-.577.79-1.267 1.163-1.916.65-1.127.16-2.474-.567-2.383-.552.07-.702 1.312-1.282 2.164-.52.765-2.5 2.033-2.972 3.106-.47 1.07-.006 3.241-.668 4.348" mask="url(#prefix__d)"/>
        <path fill="#F7E8C8" d="M165.642 197.842c-.024.075-.08.452-.064 1.109.02.831.515 1.531 1.291 1.83.781.3 1.622.106 2.194-.503l.045-.048.063-.017c.637-.185 1.49-.308 2.476-.452 2.463-.357 5.837-.845 8.953-2.714 1.092-.654 1.45-1.203 1.42-1.5-.025-.257-.353-.424-.623-.52-.6-.213-2.215-.398-3.923-.592-4.314-.494-7.408-.919-7.927-1.915-.276-.527.213-1.048.644-1.508.201-.215.41-.437.524-.637.382-.662.322-1.401.065-1.79-.079-.12-.213-.261-.396-.237-.192.025-.372.47-.547.903-.15.372-.32.795-.569 1.158-.229.337-.679.73-1.2 1.182-.699.61-1.49 1.3-1.75 1.886-.196.445-.216 1.13-.236 1.853-.026.913-.053 1.856-.44 2.512zm1.97 3.556c-.305 0-.613-.056-.913-.172-.96-.369-1.572-1.235-1.597-2.264-.012-.508.014-1.168.126-1.355.33-.55.354-1.434.378-2.29.022-.773.043-1.502.277-2.034.301-.684 1.136-1.41 1.873-2.052.475-.414.925-.805 1.12-1.09.218-.322.38-.719.52-1.07.247-.61.46-1.137.93-1.196.326-.04.636.122.851.446.327.494.451 1.423-.05 2.293-.142.247-.37.491-.59.725-.322.344-.687.733-.569.96.443.848 4.725 1.337 7.56 1.661 1.811.207 3.375.385 4.028.617.582.206.897.517.938.923.08.795-1 1.568-1.649 1.957-3.198 1.917-6.627 2.415-9.13 2.777-.937.136-1.75.254-2.352.42-.48.486-1.105.744-1.752.744z" mask="url(#prefix__d)"/>
        <path fill="#FFF4DD" d="M175.482 197.695l-.11-.001c-.131-.002-.236-.11-.234-.242.002-.13.108-.235.238-.235h.003c.849.01 1.813-.127 2.662-.25 1.459-.21 2.34-.337 2.464.236.027.128-.054.255-.183.282-.124.026-.244-.047-.278-.167-.183-.13-1.194.016-1.935.122-.831.12-1.77.255-2.627.255M181.258 196.835c-.114 0-.214-.081-.234-.198-.106-.607-2.214-.554-3.754-.515-.72.018-1.399.035-1.987.008-.13-.007-.232-.118-.226-.25.006-.132.12-.231.25-.227.57.027 1.241.01 1.951-.008 2.088-.053 4.06-.102 4.234.911.023.13-.064.254-.193.276l-.04.003" mask="url(#prefix__d)"/>
        <path fill="#FFF4DD" d="M181.84 196.151c-.102 0-.197-.067-.227-.171-.184-.625-2.624-.743-4.238-.821-.8-.04-1.558-.077-2.133-.156-.13-.018-.222-.137-.204-.269.017-.13.138-.221.267-.203.556.076 1.303.112 2.094.15 2.651.13 4.41.28 4.67 1.164.038.126-.035.26-.161.296-.022.007-.045.01-.067.01" mask="url(#prefix__d)"/>
        <path fill="#F7E8C8" d="M169.996 197.243c-.092 0-.18-.055-.218-.145-.053-.12.003-.26.123-.313.128-.057.444-.233.592-.67.178-.523.038-1.226-.404-2.034-.063-.116-.021-.26.094-.325.115-.062.26-.02.323.096.516.941.663 1.755.437 2.418-.21.616-.666.87-.852.951-.031.015-.063.022-.095.022" mask="url(#prefix__d)"/>
        <path fill="#FFF" d="M105.888 243.769l42.348-7.689c1.833-.333 3.049-2.092 2.717-3.93l-2.214-12.269c-.332-1.837-2.086-3.057-3.918-2.725l-42.35 7.689c-1.831.333-3.047 2.092-2.715 3.93l2.214 12.269c.332 1.837 2.086 3.058 3.918 2.725" mask="url(#prefix__d)"/>
        <path fill="#F7E8C8" d="M145.423 217.491c-.177 0-.355.016-.534.048l-42.348 7.689c-.784.142-1.465.582-1.92 1.24-.453.655-.625 1.45-.483 2.238l2.213 12.268c.293 1.623 1.849 2.704 3.468 2.411l42.348-7.688c.785-.142 1.465-.583 1.92-1.24.455-.655.627-1.45.484-2.237l-2.214-12.27c-.262-1.443-1.52-2.459-2.934-2.459m-40.138 26.722c-1.781 0-3.368-1.28-3.697-3.1l-2.214-12.27c-.18-.99.038-1.992.61-2.82.572-.827 1.431-1.382 2.419-1.562l42.348-7.688c2.04-.371 4 .993 4.37 3.039l2.214 12.27c.178.99-.037 1.991-.61 2.819-.572.828-1.431 1.383-2.42 1.562l-42.348 7.689c-.225.04-.45.06-.671.06" mask="url(#prefix__d)"/>
        <path fill="#FFBF4D" d="M117.78 219.323c-2.905-2.654-6.437-6.56-9.602-9.177-2.485-2.056-4.231-3.023-4.275-3.322-.322-2.153 3.513-16.106 3.513-16.106l-8.45-7.72c-8.63 10.202-9.497 27.219-8.288 30.86 2.059 6.19 23.6 13.272 26.504 8.427 1.064-.184.599-2.962.599-2.962" mask="url(#prefix__d)"/>
        <path fill="#E59D29" d="M111.786 223.927c-1.801 0-4.627-.224-8.246-1.227-.148-.04-.234-.193-.193-.342.04-.148.193-.235.34-.193 6.272 1.738 10.193 1.077 10.23 1.07.669-.117 2.519-2.38 3.62-3.896-.853-.974-5.28-5.984-8.093-8.312-1.335-1.104-2.877-2.088-4.002-2.808-1.486-.949-1.763-1.137-1.7-1.45.715-3.526 3.413-10.307 3.528-10.594.057-.142.218-.212.36-.155.142.057.21.219.155.361-.028.07-2.741 6.89-3.48 10.397.186.174.82.58 1.435.972 1.137.728 2.696 1.723 4.057 2.848 3.145 2.602 8.253 8.483 8.304 8.543l.144.165-.127.178c-.49.684-2.985 4.104-4.104 4.298-.071.013-.85.145-2.228.145" mask="url(#prefix__d)"/>
        <path fill="#FFF4DD" d="M106.486 224.117c2.754 1.344 9.992 3.467 10.417 3.55.711.137 2.843-2.102 2.733-3.944-.024-.38-.276-1.066-.656-1.875l-12.494 2.269z" mask="url(#prefix__d)"/>
        <path fill="#F7E8C8" d="M117.126 227.556c.71.136 4.949-2.102 4.839-3.945-.09-1.511-3.794-7.758-4.614-7.708-2.774.166-6.58 6.976-6.198 7.463.896 1.148 5.47 4.092 5.973 4.19" mask="url(#prefix__d)"/>
        <path fill="#FFF4DD" d="M120.785 224.903c-.101 0-.194-.064-.227-.165-.318-.986-3.15-4.87-4.572-6.115-.1-.087-.11-.238-.023-.337.087-.098.237-.11.336-.022 1.497 1.312 4.37 5.272 4.712 6.326.04.126-.028.261-.153.301-.024.008-.05.012-.073.012M119.403 225.853c-.093 0-.18-.054-.22-.144-.574-1.335-3.414-4.3-5.036-5.456-.107-.076-.132-.226-.056-.333.077-.107.226-.133.333-.056 1.702 1.214 4.583 4.233 5.197 5.656.053.12-.003.262-.124.313-.031.013-.064.02-.094.02M117.995 226.954c-.09 0-.176-.051-.216-.138-.545-1.186-3.082-3.257-4.71-4.349-.11-.073-.139-.22-.066-.33.073-.11.221-.14.33-.066 1.56 1.045 4.262 3.203 4.878 4.545.055.12.003.262-.117.317-.032.014-.066.021-.099.021" mask="url(#prefix__d)"/>
        <path fill="#7F786A" d="M118.316 231.664c-.062-.36-.167-.675-.311-.944-.145-.27-.323-.488-.536-.656-.213-.169-.455-.283-.73-.344-.272-.062-.57-.065-.888-.008-.32.055-.598.159-.836.308-.238.152-.43.342-.574.574-.145.23-.24.498-.287.8-.047.302-.04.634.024.994.062.36.167.674.313.943.146.269.326.486.54.653.214.166.458.28.733.341.274.062.572.064.89.008.32-.056.599-.158.835-.309.237-.15.426-.34.57-.57.143-.228.237-.494.283-.797.045-.303.036-.634-.026-.993m1.248-.22c.084.482.08.941-.007 1.379-.09.438-.252.831-.49 1.182-.236.35-.544.645-.922.884-.378.238-.814.4-1.308.487-.495.087-.961.082-1.398-.014-.438-.096-.83-.269-1.172-.518-.343-.247-.63-.563-.861-.944-.231-.382-.388-.814-.472-1.295-.084-.48-.081-.94.007-1.378.089-.437.252-.831.49-1.18.24-.352.55-.646.929-.885.379-.24.816-.402 1.31-.489.495-.087.96-.08 1.397.017.437.099.825.271 1.166.518.342.248.628.562.859.943.23.382.389.814.472 1.294M121.783 231.075l.914-.159c.223-.04.412-.101.568-.187.157-.085.28-.188.37-.311.09-.124.15-.265.178-.425.028-.158.026-.33-.006-.515-.03-.176-.085-.33-.164-.462-.08-.133-.181-.24-.307-.32-.126-.08-.277-.133-.452-.157-.175-.024-.374-.016-.597.022l-.914.16.41 2.354zm.166.953l.4 2.309-1.215.213-1.141-6.559 2.13-.373c.437-.076.825-.09 1.162-.044.337.047.626.144.866.292.24.149.433.343.577.582.144.24.243.512.296.817.055.318.053.619-.007.902-.06.283-.178.537-.356.764-.178.229-.416.422-.714.584-.298.161-.66.28-1.085.354l-.913.16zM129.73 226.287L129.899 227.258 127 227.765 127.316 229.584 129.6 229.185 129.764 230.123 127.48 230.523 127.802 232.378 130.701 231.87 130.871 232.846 126.747 233.568 125.606 227.009zM131.558 225.975c.037-.002.07 0 .102.01.03.009.063.023.094.044.032.02.068.05.108.086l4.196 3.785c-.031-.102-.057-.205-.08-.306-.021-.1-.04-.194-.055-.283l-.694-3.985 1.072-.189 1.14 6.56-.628.109c-.096.017-.178.016-.247-.002-.07-.02-.14-.063-.214-.132l-4.18-3.77c.027.096.05.19.072.284.02.095.038.182.052.26l.7 4.028-1.071.187-1.141-6.558.637-.111c.054-.01.1-.016.137-.017" mask="url(#prefix__d)"/>
        <path fill="#FFF" d="M125.569 173.586c-2.704.854-6.974.038-8.355-3.125-.32-.74-.608-4.424-.103-4.482.504-.059 1.051 2.564 1.652 2.544 1.03-.035 1.314-1.223-.053-2.125-.703-.463-.86-1.284-1.221-2.052-.207-.542-.392-1.026-.525-1.554-.24-.944.498-.277.912.363.74 1.146.849 1.16 1.781 1.832 1.342.963 2.573-.675 4.29-.733 1.56-.05 3.682.617 4.154 1.059.061.058-.023.337.075.57 1.217 2.93-.361 6.993-2.607 7.703M91.192 88.358c-.57.034-.716.409-.865.93-.477.152-2.207.557-6.162.12-.23-2.802-1.098-5.585-2.637-8.127 4.704-4.492 7.358-5.694 8.134-5.975.725.537 1.3.884 2.09.35.999-.68.824-1.745.147-2.747-.677-1.002-1.6-1.56-2.599-.882-.787.536-.68 1.2-.451 2.074-.549.619-2.65 2.649-8.568 5.367-.945-1.217-2.019-2.278-3.181-3.194 1.058-1.561 1.782-2.207 2.059-2.42.508.174.898.267 1.25-.182.444-.567.152-1.14-.413-1.588-.567-.446-1.192-.594-1.637-.028-.352.448-.17.807.119 1.262-.141.318-.602 1.182-1.863 2.58-1.294-.952-2.692-1.726-4.157-2.307 1.127-4.375 2.248-5.989 2.584-6.399.537.054.94.056 1.183-.461.306-.658-.11-1.153-.763-1.462-.656-.308-1.302-.312-1.609.344-.242.52.017.828.401 1.208-.102.528-.636 2.467-3.36 6.23-2.553-.76-5.256-.969-7.916-.594-.688-2.67-.688-4.083-.648-4.603l.052-.03c.404-.218.805-.537.721-1.225-.053-.441-.273-.771-.639-.956-.294-.15-.672-.198-1.12-.144-.316.038-.589.118-.81.239-.477.26-.703.704-.637 1.248.087.732.605.927 1.049 1.036.163.504.504 1.904.46 4.727-2.262.522-4.465 1.477-6.486 2.89-.214.151-.422.306-.629.462-3.945-4.284-5.038-6.722-5.305-7.46.537-.728.882-1.305.349-2.095-.678-1.002-1.74-.826-2.74-.148-.998.679-1.556 1.603-.878 2.605.534.79 1.197.683 2.068.454.593.528 2.48 2.49 5.029 7.898-1.858 1.747-3.292 3.816-4.279 6.057-6.934-.475-9.54-1.74-10.164-2.11-.038-.675-.114-1.172-.797-1.372-.864-.254-1.393.355-1.645 1.224-.254.868-.134 1.667.731 1.92.684.2 1.014-.18 1.407-.728.72.024 3.554.356 9.56 3.622-.294 1.062-.488 2.148-.592 3.244-1.81-.124-2.704-.416-3.021-.543-.11-.529-.229-.913-.792-.988-.714-.097-1.058.447-1.154 1.163-.096.715.093 1.332.808 1.428.563.076.778-.263 1.023-.743.34-.039 1.292-.08 3.085.284-.078 1.24-.035 2.493.137 3.735-4.428 2.024-6.51 2.154-7.056 2.144-.291-.456-.54-.773-1.096-.642-.705.167-.834.802-.668 1.508.166.706.563 1.216 1.267 1.05.556-.132.638-.528.696-1.066.482-.253 2.384-1.06 7.186-1.234.476 2.007 1.295 3.964 2.468 5.787-4.934 4.786-7.707 6.042-8.504 6.33-.724-.537-1.3-.884-2.087-.349-1 .68-.825 1.744-.148 2.746.676 1.002 1.599 1.56 2.597.882.788-.535.681-1.2.452-2.073.566-.638 2.776-2.771 9.106-5.612.875 1.044 1.85 1.964 2.893 2.77-.738.733-1.23 1.067-1.451 1.197-.484-.235-.86-.374-1.264.027-.51.509-.29 1.114.218 1.628.507.511 1.109.737 1.62.229.404-.402.267-.78.035-1.267.136-.225.483-.732 1.255-1.496 1.194.87 2.477 1.586 3.82 2.142-.578 4.166-1.432 5.913-1.726 6.41-.672.036-1.168.112-1.367.798-.252.867.355 1.397 1.22 1.65.866.254 1.662.135 1.915-.734.2-.685-.178-1.016-.726-1.41.02-.572.232-2.479 1.942-6.246 1.654.55 3.38.86 5.12.932 1.522 5.73 1.209 8.152 1.083 8.736-.5.198-.859.38-.838.949.026.721.62.97 1.338.945.72-.026 1.293-.317 1.268-1.04-.02-.568-.39-.724-.902-.885-.169-.573-.653-2.957.447-8.757 1.188-.106 2.374-.324 3.537-.661 4.472 5.17 5.409 7.873 5.588 8.573-.45.502-.747.908-.404 1.534.433.792 1.237.736 2.026.301.791-.434 1.27-1.083.837-1.876-.343-.626-.843-.591-1.507-.482-.483-.518-2.194-2.685-4.092-8.956 1.046-.47 2.062-1.045 3.035-1.726 1.916-1.34 3.501-2.977 4.742-4.804 3.95.92 5.618 1.889 6.135 2.25l-.002.059c-.017.46.053.968.688 1.245.406.178.802.155 1.146-.067.278-.18.51-.48.69-.895.128-.293.197-.57.206-.822.017-.544-.248-.966-.75-1.184-.672-.295-1.103.052-1.421.382-.603-.133-2.374-.676-5.582-2.824.703-1.35 1.233-2.776 1.589-4.243 1.828.245 2.713.597 3.023.747.075.534.167.924.724 1.037.708.143 1.086-.378 1.229-1.085.141-.708-.007-1.336-.713-1.478-.556-.112-.793.212-1.07.674-.342.018-1.297-.005-3.067-.486.279-1.327.42-2.68.407-4.04 3.888-.904 5.659-.706 6.15-.611.209.5.398.854.969.821.722-.043.958-.645.915-1.37-.043-.724-.347-1.294-1.07-1.252" mask="url(#prefix__d)"/>
        <g mask="url(#prefix__d)">
            <g>
                <path fill="#FFAC34" d="M19.023 27.436l.425-3.17c-7.134.847-9.83.012-10.434-.233-.11-.527-.228-.911-.79-.987-.715-.097-1.06.448-1.156 1.164-.096.715.093 1.33.807 1.428.563.075.78-.264 1.023-.743.646-.075 3.467-.166 10.125 2.541M26.567 36.467l-2.247-2.27c-3.68 6.189-5.983 7.824-6.544 8.155-.483-.235-.86-.375-1.264.027-.51.508-.29 1.114.218 1.627.506.512 1.108.738 1.62.23.403-.402.266-.78.035-1.268.335-.558 1.983-2.857 8.181-6.5M32.574 43.282l-3.188.115c2.038 6.91 1.672 9.717 1.535 10.354-.501.197-.858.379-.838.948.026.723.619.971 1.339.945.719-.026 1.293-.317 1.267-1.039-.02-.568-.39-.725-.903-.885-.183-.626-.75-3.4.788-10.438M41.95 27.465l-.63 3.135c7.175-.38 9.812.63 10.398.913.075.534.168.925.725 1.037.706.144 1.085-.378 1.228-1.085.142-.708-.007-1.336-.713-1.477-.556-.113-.794.212-1.07.674-.648.033-3.47-.061-9.937-3.197M36.154 16.142l2.507 1.976c2.895-6.594 4.982-8.5 5.497-8.898.51.173.899.266 1.25-.182.446-.567.153-1.141-.413-1.588-.566-.446-1.191-.596-1.636-.028-.351.448-.17.805.119 1.26-.264.598-1.618 3.082-7.324 7.46" transform="translate(35 64.634)"/>
                <path fill="#FCBD30" d="M10.716 4.369c.534.79 1.197.683 2.068.453.593.528 2.481 2.492 5.03 7.898-1.858 1.747-3.293 3.816-4.279 6.058-6.935-.475-9.54-1.741-10.165-2.111-.037-.674-.112-1.172-.796-1.371-.865-.254-1.394.355-1.646 1.223-.253.868-.133 1.666.732 1.92.683.2 1.014-.179 1.406-.727.72.024 3.555.356 9.56 3.621-.678 2.454-.856 5.036-.505 7.58-4.429 2.024-6.509 2.155-7.057 2.145-.29-.457-.54-.774-1.096-.642-.704.166-.833.801-.667 1.507.166.706.563 1.217 1.268 1.05.555-.131.636-.527.694-1.066.483-.253 2.385-1.059 7.187-1.233.476 2.006 1.295 3.963 2.468 5.786-4.935 4.786-7.708 6.042-8.504 6.331-.724-.539-1.3-.885-2.088-.35-.999.68-.824 1.745-.148 2.747.677 1.002 1.6 1.56 2.598.882.788-.535.681-1.2.452-2.074.565-.637 2.775-2.77 9.106-5.61 1.975 2.355 4.432 4.114 7.125 5.228-.578 4.167-1.432 5.913-1.724 6.41-.673.037-1.169.112-1.368.797-.253.869.355 1.398 1.221 1.652.865.254 1.661.135 1.914-.735.2-.684-.179-1.015-.726-1.41.02-.572.232-2.478 1.942-6.245 3.54 1.174 7.4 1.278 11.052.217 4.473 5.172 5.41 7.874 5.59 8.574-.45.503-.748.909-.406 1.535.433.792 1.237.736 2.027.3.791-.434 1.27-1.082.836-1.876-.342-.626-.843-.591-1.507-.481-.482-.519-2.193-2.685-4.09-8.956 1.044-.472 2.06-1.045 3.035-1.727 1.915-1.34 3.5-2.976 4.741-4.803 3.95.918 5.617 1.888 6.135 2.25l-.003.058c-.016.46.054.968.69 1.246.404.178.8.154 1.144-.067.278-.18.511-.482.692-.897.127-.293.196-.568.204-.82.018-.545-.248-.966-.749-1.186-.673-.294-1.103.054-1.422.384-.602-.134-2.373-.677-5.582-2.825 1.428-2.743 2.153-5.798 2.123-8.874 3.887-.903 5.658-.706 6.15-.61.208.5.4.854.968.821.723-.043.958-.645.915-1.37-.042-.724-.347-1.295-1.069-1.253-.57.034-.717.41-.866.931-.476.152-2.207.557-6.16.12-.232-2.803-1.099-5.586-2.638-8.127 4.704-4.492 7.358-5.695 8.134-5.976.725.538 1.3.885 2.09.35.998-.679.823-1.745.146-2.747-.677-1.002-1.598-1.56-2.598-.881-.788.535-.68 1.2-.452 2.074-.548.619-2.649 2.649-8.567 5.366-2.105-2.71-4.826-4.687-7.824-5.877 1.128-4.374 2.248-5.988 2.584-6.398.538.054.941.056 1.183-.463.307-.657-.109-1.151-.763-1.46-.655-.308-1.3-.312-1.608.344-.243.52.016.827.401 1.208-.1.528-.636 2.468-3.36 6.229-2.554-.76-5.256-.968-7.916-.594-.688-2.67-.688-4.082-.649-4.602l.053-.03c.403-.22.804-.537.721-1.225-.053-.441-.274-.771-.638-.957-.296-.15-.673-.197-1.12-.143-.317.038-.589.118-.81.238-.478.261-.705.704-.639 1.25.088.73.605.926 1.05 1.034.164.504.503 1.905.46 4.727-2.263.522-4.465 1.477-6.486 2.891-.214.15-.423.305-.629.462-3.946-4.284-5.039-6.722-5.305-7.461.536-.727.881-1.304.348-2.094-.677-1.002-1.74-.827-2.739-.149-.999.68-1.556 1.604-.879 2.606" transform="translate(35 64.634)"/>
                <path fill="#FFAC34" d="M29.428 38.449c1.403.25 2.405 1.213 2.239 2.152-.167.938-1.44 1.495-2.842 1.245-1.403-.251-2.405-1.214-2.24-2.153.167-.937 1.44-1.495 2.843-1.244M32.23 25.288c.954 1.371.824 3.115-.291 3.896-1.115.78-2.792.3-3.746-1.071-.954-1.371-.824-3.115.29-3.895 1.116-.78 2.793-.3 3.747 1.07M40.396 29.292c.463-1.352 1.566-2.196 2.465-1.887.9.31 1.252 1.657.79 3.008-.464 1.352-1.568 2.198-2.466 1.888-.899-.31-1.252-1.656-.789-3.009M23.48 12.447c1.401-.263 2.678.284 2.853 1.222.174.935-.82 1.908-2.22 2.171-1.402.263-2.679-.284-2.854-1.221-.174-.937.82-1.909 2.221-2.172M40.344 15.255c.844.614 1.197 1.569.79 2.133-.41.564-1.425.524-2.268-.09-.844-.615-1.197-1.57-.789-2.134.41-.563 1.424-.523 2.267.091M19.812 32.079c.455 1.146.207 2.321-.555 2.625-.76.305-1.748-.377-2.203-1.522-.455-1.147-.207-2.322.554-2.627.762-.304 1.748.378 2.204 1.524" transform="translate(35 64.634)"/>
            </g>
        </g>
        <path fill="#FFF" d="M58.211 138.427c-.416.025-.523.3-.632.68-.347.11-1.61.406-4.494.088-.169-2.045-.802-4.076-1.925-5.93 3.432-3.278 5.37-4.155 5.935-4.36.53.392.95.646 1.524.255.728-.495.601-1.273.107-2.003-.494-.732-1.166-1.139-1.895-.644-.575.39-.496.875-.33 1.513-.4.451-1.933 1.933-6.25 3.916-.689-.888-1.474-1.661-2.322-2.33.772-1.14 1.301-1.61 1.502-1.765.372.126.656.194.912-.134.325-.414.112-.833-.3-1.158-.414-.325-.87-.434-1.195-.02-.256.327-.124.589.087.92-.103.232-.439.862-1.359 1.882-.944-.695-1.964-1.259-3.033-1.683.822-3.192 1.64-4.37 1.885-4.668.392.04.686.042.863-.337.224-.48-.08-.841-.557-1.066-.478-.225-.949-.227-1.173.251-.177.378.011.605.292.882-.073.385-.463 1.8-2.452 4.543-1.862-.554-3.834-.706-5.774-.432-.502-1.948-.502-2.978-.474-3.36l.04-.02c.293-.16.586-.391.525-.894-.038-.32-.199-.562-.465-.697-.216-.11-.49-.145-.818-.105-.23.027-.43.086-.59.174-.349.19-.514.514-.467.911.064.533.442.676.766.755.12.367.368 1.39.336 3.45-1.65.38-3.258 1.076-4.73 2.107-.158.11-.31.223-.46.337-2.88-3.125-3.677-4.904-3.87-5.443.39-.53.642-.951.252-1.528-.493-.731-1.269-.603-1.998-.108-.728.496-1.134 1.17-.64 1.901.39.577.872.498 1.508.33.432.386 1.81 1.818 3.67 5.763-1.355 1.276-2.403 2.783-3.122 4.419-5.06-.346-6.96-1.27-7.417-1.54-.026-.492-.08-.854-.58-1-.63-.185-1.017.26-1.2.893-.185.633-.098 1.216.533 1.4.5.147.74-.131 1.026-.53.526.018 2.593.26 6.975 2.642-.214.775-.356 1.567-.43 2.366-1.322-.091-1.975-.303-2.206-.396-.08-.385-.166-.665-.577-.721-.52-.07-.772.327-.842.85-.07.521.068.97.59 1.042.41.055.566-.193.745-.542.248-.03.944-.06 2.252.207-.057.905-.026 1.818.1 2.724-3.232 1.477-4.75 1.572-5.149 1.565-.213-.333-.394-.566-.8-.47-.513.122-.607.584-.486 1.1.121.515.411.889.924.767.406-.096.465-.385.507-.778.352-.184 1.74-.771 5.243-.9.348 1.465.945 2.89 1.801 4.223-3.6 3.49-5.623 4.407-6.204 4.617-.529-.392-.949-.645-1.524-.255-.729.496-.6 1.274-.107 2.004.493.731 1.166 1.138 1.895.644.575-.391.496-.876.33-1.513.411-.466 2.024-2.022 6.642-4.094.64.762 1.351 1.433 2.112 2.02-.539.535-.898.779-1.059.874-.353-.171-.628-.274-.922.02-.373.37-.212.813.158 1.187.37.374.81.538 1.182.167.295-.293.195-.569.027-.924.098-.164.352-.534.915-1.09.871.634 1.807 1.156 2.786 1.56-.422 3.04-1.044 4.315-1.258 4.677-.49.027-.853.083-.998.582-.184.634.26 1.02.891 1.206.631.184 1.212.097 1.396-.537.145-.5-.13-.741-.529-1.028.014-.418.17-1.81 1.417-4.556 1.207.399 2.464.628 3.734.679 1.11 4.18.882 5.947.791 6.373-.366.144-.626.277-.61.692.018.528.45.708.975.69.525-.02.944-.231.925-.758-.015-.415-.285-.53-.659-.647-.122-.418-.475-2.157.327-6.39.867-.076 1.731-.235 2.58-.48 3.263 3.771 3.946 5.743 4.077 6.253-.328.368-.545.663-.295 1.12.316.578.902.537 1.48.22.575-.317.925-.79.61-1.369-.25-.456-.617-.432-1.1-.352-.352-.378-1.6-1.958-2.985-6.533.762-.344 1.504-.763 2.214-1.26 1.397-.978 2.554-2.172 3.46-3.504 2.881.67 4.097 1.377 4.475 1.64 0 .015 0 .03-.002.043-.01.336.04.707.503.91.295.128.584.112.835-.05.203-.13.373-.35.504-.653.093-.214.144-.415.15-.599.013-.398-.18-.704-.547-.865-.49-.215-.805.039-1.037.28-.439-.097-1.732-.494-4.073-2.06.513-.984.9-2.026 1.16-3.096 1.333.178 1.98.436 2.205.545.055.39.123.675.53.756.514.105.791-.276.895-.791.104-.518-.005-.975-.519-1.078-.407-.082-.58.153-.78.491-.25.013-.948-.004-2.238-.355.202-.967.306-1.956.296-2.947 2.836-.66 4.128-.515 4.486-.445.153.364.292.624.708.6.527-.032.698-.472.667-1-.03-.528-.253-.946-.78-.915" mask="url(#prefix__d)"/>
        <g mask="url(#prefix__d)">
            <g>
                <path fill="#FFAC34" d="M14.093 20.338l.311-2.313c-5.206.618-7.173.009-7.613-.17-.08-.384-.167-.665-.577-.72-.52-.07-.772.327-.843.849-.07.522.068.971.59 1.042.41.056.567-.192.745-.542.471-.054 2.53-.121 7.387 1.854M19.597 26.927l-1.64-1.656c-2.683 4.515-4.364 5.708-4.773 5.948-.353-.171-.628-.272-.921.02-.374.372-.213.813.157 1.187.37.374.81.54 1.182.167.295-.292.195-.568.027-.923.244-.408 1.446-2.085 5.968-4.743M23.98 31.898l-2.325.085c1.486 5.04 1.219 7.087 1.119 7.553-.365.144-.626.278-.611.693.019.526.452.708.977.689.525-.02.943-.23.924-.758-.015-.416-.284-.529-.66-.646-.132-.457-.545-2.48.576-7.616M30.82 20.358l-.46 2.288c5.235-.276 7.159.46 7.586.667.055.389.124.675.53.756.514.105.79-.275.895-.792.104-.516-.005-.974-.52-1.078-.406-.082-.58.154-.78.492-.473.025-2.532-.044-7.25-2.333M26.592 12.098l1.829 1.442c2.112-4.81 3.634-6.201 4.01-6.491.372.126.657.193.912-.134.325-.414.112-.833-.301-1.158-.413-.325-.87-.435-1.194-.021-.256.327-.124.589.087.92-.193.436-1.18 2.247-5.343 5.442" transform="translate(17 120.798)"/>
                <path fill="#FCBD30" d="M8.033 3.509c.39.577.873.497 1.51.33.431.386 1.81 1.818 3.668 5.763-1.355 1.276-2.402 2.784-3.12 4.419-5.06-.346-6.96-1.27-7.418-1.54-.027-.492-.08-.854-.58-1-.63-.185-1.017.259-1.2.893-.185.633-.098 1.215.533 1.4.5.146.74-.131 1.026-.53.525.017 2.593.26 6.975 2.642-.495 1.79-.625 3.674-.369 5.53-3.23 1.477-4.749 1.572-5.149 1.565-.212-.333-.394-.565-.799-.47-.514.122-.608.584-.487 1.1.121.515.411.888.925.767.405-.096.464-.385.507-.778.352-.184 1.74-.772 5.243-.9.347 1.464.944 2.891 1.8 4.222-3.6 3.49-5.623 4.408-6.204 4.618-.528-.391-.948-.645-1.523-.255-.729.495-.6 1.274-.108 2.004.494.731 1.166 1.138 1.895.644.576-.391.497-.876.33-1.514.412-.465 2.024-2.02 6.643-4.094 1.442 1.72 3.235 3.002 5.198 3.816-.42 3.04-1.044 4.314-1.257 4.676-.49.027-.853.082-.998.582-.184.634.26 1.02.891 1.205.631.185 1.212.098 1.396-.536.145-.5-.13-.741-.53-1.028.015-.417.17-1.81 1.417-4.556 2.582.855 5.398.931 8.064.158 3.263 3.773 3.946 5.744 4.077 6.254-.328.367-.545.663-.295 1.12.316.58.901.538 1.48.22.575-.317.925-.79.608-1.369-.25-.456-.615-.432-1.099-.352-.352-.378-1.6-1.959-2.985-6.533.763-.344 1.504-.763 2.215-1.26 1.397-.978 2.554-2.172 3.46-3.504 2.881.67 4.097 1.377 4.474 1.64v.043c-.012.336.038.707.501.91.296.13.585.112.835-.05.204-.13.374-.35.505-.653.093-.213.143-.416.15-.6.013-.397-.182-.703-.547-.865-.49-.213-.805.04-1.037.281-.439-.097-1.732-.493-4.073-2.06 1.042-2.002 1.571-4.231 1.55-6.476 2.835-.659 4.127-.514 4.485-.444.153.364.292.624.708.599.526-.031.698-.47.667-1-.03-.528-.253-.945-.78-.914-.416.025-.524.3-.632.68-.347.11-1.61.405-4.495.087-.169-2.045-.8-4.075-1.924-5.929 3.432-3.278 5.37-4.155 5.935-4.36.528.393.948.646 1.523.255.73-.495.602-1.274.108-2.004s-1.167-1.138-1.895-.644c-.575.392-.497.876-.33 1.514-.4.451-1.933 1.933-6.25 3.915-1.536-1.976-3.522-3.42-5.709-4.287.823-3.193 1.641-4.37 1.886-4.668.392.04.686.041.862-.337.224-.48-.079-.841-.556-1.066-.478-.225-.95-.228-1.174.25-.176.379.012.606.293.882-.073.386-.464 1.8-2.452 4.544-1.862-.553-3.834-.706-5.774-.433-.502-1.947-.502-2.977-.474-3.358l.04-.02c.293-.16.586-.393.525-.895-.039-.321-.2-.563-.466-.697-.216-.11-.49-.146-.818-.105-.23.028-.429.086-.59.174-.348.19-.514.514-.466.91.064.533.442.677.766.756.12.367.368 1.389.335 3.449-1.65.38-3.257 1.077-4.73 2.108-.157.11-.31.223-.46.337-2.879-3.125-3.677-4.904-3.87-5.444.39-.53.643-.95.253-1.527-.493-.731-1.269-.603-1.998-.109-.728.497-1.135 1.17-.64 1.902" transform="translate(17 120.798)"/>
                <path fill="#FFAC34" d="M21.685 28.373c1.023.182 1.755.885 1.633 1.57-.121.683-1.05 1.09-2.073.908-1.024-.183-1.755-.886-1.634-1.57.122-.685 1.05-1.092 2.074-.908M23.729 18.771c.696 1 .6 2.273-.212 2.842-.814.568-2.038.22-2.733-.78-.697-1-.601-2.274.212-2.843.813-.57 2.037-.22 2.733.781M29.687 21.692c.337-.986 1.143-1.603 1.798-1.376.656.226.913 1.207.576 2.193-.338.987-1.143 1.604-1.8 1.377-.654-.224-.912-1.208-.574-2.194M17.345 9.403c1.022-.191 1.954.207 2.081.89.127.684-.598 1.393-1.62 1.584-1.022.192-1.954-.206-2.08-.89-.129-.684.597-1.393 1.62-1.584M29.649 11.451c.615.448.873 1.146.575 1.557-.298.41-1.038.382-1.654-.066-.615-.449-.873-1.145-.575-1.557.298-.412 1.038-.381 1.654.066M14.67 23.725c.331.836.15 1.693-.405 1.916-.556.222-1.276-.275-1.608-1.111-.332-.836-.15-1.694.405-1.916.555-.222 1.275.276 1.607 1.111" transform="translate(17 120.798)"/>
            </g>
        </g>
        <path fill="#FFF" d="M66.925 178.204c-.183.01-.23.131-.278.298-.153.049-.708.179-1.977.039-.075-.901-.353-1.794-.847-2.61 1.51-1.441 2.362-1.827 2.61-1.918.234.173.418.284.67.113.322-.218.266-.56.049-.882-.218-.322-.514-.5-.834-.284-.253.173-.22.385-.145.667-.176.199-.851.85-2.75 1.722-.304-.39-.65-.73-1.022-1.025.339-.501.572-.708.66-.777.164.056.29.085.402-.058.143-.183.049-.366-.132-.51-.182-.143-.383-.19-.526-.009-.112.145-.054.26.038.406-.045.102-.192.378-.598.827-.415-.306-.863-.554-1.334-.74.362-1.404.722-1.923.829-2.054.173.017.302.018.38-.149.099-.21-.035-.37-.245-.469-.21-.098-.417-.1-.516.111-.078.167.005.265.128.387-.032.17-.203.793-1.078 2-.82-.243-1.687-.31-2.541-.19-.221-.857-.221-1.31-.208-1.478l.016-.009c.13-.07.259-.172.232-.394-.017-.14-.088-.247-.205-.307-.094-.047-.216-.063-.36-.046-.101.012-.19.038-.26.077-.153.084-.225.226-.204.4.028.236.194.299.337.333.052.161.16.611.147 1.518-.726.168-1.433.474-2.082.928-.068.048-.135.097-.202.147-1.266-1.375-1.617-2.157-1.702-2.395.172-.232.282-.418.11-.67-.216-.324-.557-.267-.878-.049-.321.218-.5.515-.282.837.17.253.384.218.663.145.19.17.797.8 1.615 2.535-.596.561-1.057 1.225-1.373 1.945-2.226-.152-3.062-.56-3.264-.678-.011-.217-.035-.376-.255-.44-.278-.081-.447.114-.528.392-.081.28-.043.536.235.618.219.063.325-.058.45-.235.232.008 1.142.114 3.07 1.162-.094.341-.156.69-.19 1.042-.581-.04-.868-.133-.97-.174-.035-.17-.073-.293-.254-.317-.23-.031-.34.143-.37.373-.031.23.03.427.259.458.18.026.25-.084.328-.237.109-.013.415-.026.99.091-.024.397-.01.8.045 1.199-1.422.65-2.09.692-2.266.689-.093-.148-.173-.25-.351-.207-.226.052-.268.256-.215.483.054.227.182.391.407.337.179-.042.205-.17.223-.342.156-.08.766-.34 2.307-.396.153.644.416 1.273.792 1.858-1.584 1.536-2.474 1.94-2.73 2.032-.231-.172-.416-.284-.67-.112-.32.218-.264.56-.047.882.217.32.513.5.834.283.253-.173.218-.386.145-.666.18-.205.89-.889 2.923-1.802.28.335.594.631.929.89-.237.235-.395.342-.466.384-.155-.075-.276-.12-.405.01-.164.163-.094.356.069.52.163.165.356.238.52.074.129-.128.086-.25.012-.406.043-.073.155-.235.402-.48.384.28.796.509 1.226.687-.185 1.338-.46 1.899-.553 2.058-.216.012-.375.036-.44.256-.08.279.115.448.393.53.277.08.533.043.614-.235.064-.22-.057-.326-.233-.452.006-.185.075-.797.623-2.006.532.175 1.085.277 1.644.299.488 1.839.388 2.617.348 2.804-.161.064-.276.122-.27.305.009.232.199.312.43.304.23-.01.415-.103.407-.334-.006-.183-.125-.233-.29-.284-.054-.185-.208-.95.144-2.812.38-.034.762-.104 1.135-.212 1.436 1.66 1.737 2.527 1.794 2.752-.144.161-.24.292-.13.492.14.255.397.237.65.098.255-.14.408-.35.269-.603-.11-.202-.27-.19-.484-.156-.154-.165-.703-.86-1.313-2.874.336-.15.662-.335.975-.555.615-.43 1.124-.954 1.522-1.541 1.268.295 1.803.607 1.969.722l-.001.02c-.005.148.018.31.222.4.129.055.257.048.367-.023.09-.057.164-.154.222-.288.04-.094.063-.181.066-.263.006-.174-.08-.31-.241-.38-.216-.095-.354.017-.456.123-.193-.042-.762-.217-1.792-.907.226-.433.396-.89.51-1.362.587.078.87.192.97.24.024.171.055.297.233.333.227.046.349-.121.394-.348.046-.228-.002-.43-.228-.474-.18-.037-.255.067-.343.216-.11.005-.417-.002-.985-.157.089-.426.135-.86.13-1.297 1.248-.29 1.817-.226 1.974-.196.068.16.129.275.312.264.23-.014.307-.207.293-.44-.013-.232-.111-.415-.343-.401" mask="url(#prefix__d)"/>
        <g mask="url(#prefix__d)">
            <g>
                <path fill="#FFAC34" d="M5.993 9.453l.136-1.018c-2.29.273-3.156.004-3.349-.074-.035-.17-.073-.293-.254-.316-.229-.032-.34.142-.37.373-.032.23.03.427.258.458.181.025.25-.084.33-.237.206-.025 1.112-.054 3.25.814M8.415 12.353l-.721-.73c-1.181 1.988-1.921 2.512-2.101 2.619-.155-.075-.276-.12-.405.009-.164.163-.094.357.069.521.163.165.356.237.52.073.13-.128.086-.25.012-.406.107-.18.636-.916 2.626-2.086M10.343 14.54l-1.023.037c.653 2.218.536 3.118.492 3.324-.16.063-.275.122-.269.304.008.233.2.312.43.304.231-.01.415-.103.407-.334-.007-.183-.125-.232-.29-.284-.059-.2-.24-1.091.253-3.35M13.353 9.463l-.202 1.006c2.303-.122 3.15.202 3.337.294.024.171.054.297.233.333.227.046.348-.122.394-.35.046-.226-.002-.428-.228-.473-.179-.037-.255.067-.344.216-.208.01-1.114-.02-3.19-1.026M11.492 5.828l.805.634c.93-2.117 1.6-2.729 1.764-2.856.164.056.29.085.402-.058.143-.183.05-.367-.133-.51-.182-.143-.382-.191-.525-.009-.113.145-.055.259.038.404-.084.193-.519.99-2.35 2.395" transform="translate(49 169.941)"/>
                <path fill="#FCBD30" d="M3.327 2.049c.17.254.384.22.664.146.19.169.796.799 1.614 2.535-.596.56-1.057 1.225-1.373 1.944-2.226-.152-3.062-.558-3.263-.677-.012-.216-.036-.376-.256-.441-.278-.081-.447.114-.528.393-.081.279-.043.536.235.617.219.063.325-.058.45-.234.232.007 1.143.115 3.07 1.163-.217.787-.275 1.616-.162 2.433-1.422.65-2.09.692-2.265.689-.094-.148-.174-.249-.352-.207-.226.053-.268.257-.214.484.053.226.18.39.406.337.179-.043.205-.17.224-.342.155-.082.765-.34 2.307-.397.152.645.415 1.273.792 1.858-1.584 1.537-2.474 1.94-2.73 2.033-.232-.173-.417-.284-.67-.112-.321.217-.265.559-.048.881.218.322.514.5.834.284.253-.173.219-.386.145-.666.182-.206.89-.89 2.923-1.801.635.756 1.423 1.32 2.287 1.679-.185 1.337-.46 1.897-.553 2.057-.216.012-.375.036-.44.255-.08.28.115.449.393.53.278.082.533.043.614-.235.064-.22-.057-.326-.233-.452.006-.185.075-.797.624-2.006 1.136.377 2.375.41 3.547.07 1.437 1.661 1.737 2.529 1.794 2.752-.144.163-.24.292-.13.494.14.254.398.235.65.096.255-.14.409-.348.269-.602-.11-.201-.27-.19-.483-.156-.155-.166-.704-.86-1.313-2.875.335-.15.66-.335.974-.554.615-.43 1.124-.955 1.522-1.542 1.268.295 1.803.607 1.969.722l-.001.02c-.004.148.018.31.222.4.13.057.257.049.367-.022.09-.058.164-.155.223-.288.04-.094.062-.182.065-.263.006-.175-.08-.31-.241-.38-.216-.096-.354.016-.456.122-.193-.042-.762-.217-1.792-.906.459-.88.692-1.862.682-2.849 1.247-.29 1.816-.227 1.973-.196.068.161.129.274.312.263.23-.013.307-.206.293-.439-.013-.233-.111-.415-.343-.402-.182.01-.23.131-.278.298-.153.049-.708.18-1.978.039-.074-.9-.352-1.793-.846-2.609 1.51-1.442 2.362-1.828 2.61-1.917.234.171.418.284.67.111.322-.218.266-.56.049-.882-.218-.32-.513-.5-.834-.282-.253.172-.22.385-.145.666-.176.198-.85.849-2.75 1.723-.676-.871-1.55-1.506-2.512-1.887.362-1.405.722-1.923.83-2.055.172.018.3.018.379-.148.099-.21-.035-.37-.245-.469-.21-.099-.417-.1-.516.11-.078.167.005.266.129.389-.033.17-.204.792-1.08 1.999-.818-.243-1.686-.311-2.54-.191-.221-.856-.221-1.31-.208-1.477l.017-.01c.129-.07.258-.172.232-.393-.018-.14-.088-.248-.206-.306-.094-.049-.215-.065-.36-.048-.101.014-.188.039-.26.078-.152.083-.225.226-.204.4.028.236.194.298.337.333.052.161.16.61.147 1.517-.726.168-1.433.475-2.081.928-.07.048-.136.098-.203.147C4.813 2.951 4.462 2.17 4.377 1.932c.172-.233.283-.418.11-.672C4.272.94 3.93.995 3.61 1.212c-.321.219-.5.516-.282.837" transform="translate(49 169.941)"/>
                <path fill="#FFAC34" d="M9.333 12.989c.451.08.772.39.72.69-.054.302-.463.48-.913.4-.45-.08-.773-.39-.719-.691.053-.3.462-.48.912-.4M10.232 8.764c.307.44.266 1-.092 1.25-.359.251-.898.098-1.204-.344-.306-.439-.264-1 .094-1.25.357-.25.897-.096 1.203.344M12.854 10.05c.148-.435.503-.705.792-.606.288.1.401.531.252.965-.148.434-.502.706-.79.606-.289-.1-.402-.531-.254-.965M7.424 4.642c.45-.084.86.092.916.392.056.3-.264.613-.713.697-.45.085-.86-.09-.916-.392-.056-.3.263-.613.713-.697M12.838 5.543c.27.197.384.504.253.685-.131.18-.457.169-.728-.029-.27-.197-.383-.504-.253-.685.13-.181.457-.167.728.03M6.247 10.944c.146.368.066.745-.178.843-.245.098-.561-.121-.708-.488-.146-.37-.066-.746.178-.844.245-.098.562.122.708.489" transform="translate(49 169.941)"/>
            </g>
        </g>
        <path fill="#FFE2B7" d="M287.421 252.535s.464.69.869.826c.308.105 1.71-.75 1.71-.75s.424-1.954.313-2.72c-.078-.529-.515-1.199-1.073-1.34-.369-.091-.745.127-.846.496l-.973 3.488z" mask="url(#prefix__d)"/>
        <path fill="#FFE2B7" d="M289.975 254.562c.36-.123.551-.517.428-.877l-.564-1.65-.65.225.786 2.302z" mask="url(#prefix__d)"/>
        <path fill="#FFE2B7" d="M289.34 255.569c.377-.091.6-.518.496-.951l-.476-1.985-.685.165.664 2.77z" mask="url(#prefix__d)"/>
        <path fill="#FFE2B7" d="M288.776 255.849c.378-.091.6-.518.496-.95l-.476-1.986-.684.165.664 2.77z" mask="url(#prefix__d)"/>
        <path fill="#FFE2B7" d="M287.798 255.063c.34-.047.57-.402.517-.792l-.25-1.782-.644.046.377 2.528zM291.445 252.715c-.377.094-.896-.058-1.004-.49l-.683-1.994.53-.4 1.157 2.884zM290.101 247.595L290.003 249.43 288.513 249.418 288.602 247.457z" mask="url(#prefix__d)"/>
        <path fill="#E7E1D3" d="M291.944 245.263L291.158 248.631 286.825 247.991 286.367 244.324z" mask="url(#prefix__d)"/>
        <path fill="#F5EFE4" d="M284.025 244.59c-6.237-5.678-2.441-24.693-.005-30.75 3.96-9.849 7.742-13.199 11.743-10.926 0 0 .315 13.011.465 16.31.24 5.297-.83 19.361-1.434 25.22-.143 1.387-1.8 2.57-3.159 2.444-1.63-.151-6.403-1.2-7.61-2.298" mask="url(#prefix__d)"/>
        <path fill="#57575E" d="M322.32 168.46c.398-1.555.937-5.048-.127-6.273-1.822-2.093-11.163-5.866-8.99-2.717 0 0-5.764-.598-10.065 2.466-.31.222-.11.716.267.667 1.953-.254 5.276-.727 6.04.209 0 0-2.51.416-4.17 1.427-.338.206-.18.734.215.735.964.003 2.31.067 2.993.373 1.255.564 2.304 4.467 4.226 6.034.857.698 3.481 3 5.332 2.696 2.302-.38 3.811-3.788 4.28-5.617" mask="url(#prefix__d)"/>
        <path fill="#57575E" d="M322.193 162.187c-.698-.645-1.543-1.083-2.377-1.513-.843-.42-1.711-.786-2.593-1.103-.875-.33-1.768-.627-2.661-.805-.432-.086-.922-.137-1.219-.06-.14.095.002-.055-.019.047.018.104.141.296.253.457.143.207.092.49-.114.633-.083.058-.179.085-.273.082l-.033-.001c-2.828-.092-5.806.335-8.306 1.647-.308.172-.624.33-.909.534l-.438.29c-.048.039.058-.05.059-.105.016-.065.01-.114-.009-.154-.018-.04-.059-.081-.12-.104-.053-.027-.161-.003-.01-.023l.551-.067 1.113-.12c.748-.072 1.501-.128 2.277-.114.389.009.785.039 1.194.112.403.096.871.19 1.294.658.191.21.175.534-.035.725-.074.068-.164.11-.257.126l-.03.005c-1.244.215-2.517.582-3.643 1.106l-.37.191c.026-.024.028-.082.016-.076.008-.002-.055-.024-.029-.011l.507.022c.677.041 1.352.096 2.044.27.322.071.756.244 1.023.541.273.273.46.57.636.864.345.595.613 1.204.901 1.803.577 1.187 1.139 2.401 2.094 3.337-1.087-.8-1.781-2.009-2.466-3.137-.341-.572-.676-1.147-1.036-1.68-.179-.263-.37-.522-.58-.705-.194-.19-.412-.258-.734-.323-.602-.116-1.258-.136-1.904-.137l-.487.007c-.309.025-.696-.216-.799-.535-.136-.303-.044-.748.255-.97.224-.152.322-.205.493-.303 1.242-.679 2.553-1.028 3.908-1.307l-.322.856c-.201-.236-1.029-.352-1.687-.34-.7 0-1.422.067-2.142.15l-1.087.139-.547.076c-.029.007-.329.058-.556-.038-.236-.086-.418-.266-.517-.471-.1-.205-.136-.45-.065-.693.051-.235.286-.472.395-.53l.491-.313c.322-.22.671-.387 1.013-.569 1.379-.702 2.869-1.12 4.365-1.374 1.506-.241 3.008-.335 4.549-.167l-.42.712c-.137-.238-.29-.448-.36-.817-.036-.163-.033-.435.124-.661.16-.219.37-.302.536-.346.638-.112 1.107.022 1.594.13.953.25 1.846.604 2.721.997.868.41 1.711.863 2.523 1.367.806.504 1.616 1.05 2.225 1.788" mask="url(#prefix__d)"/>
        <path fill="#FFC581" d="M336.162 332.602c-.6.04-1.119-.415-1.159-1.017l-.379-5.665c-.04-.602.413-1.122 1.013-1.163.6-.04 1.12.415 1.16 1.016l.378 5.667c.041.6-.413 1.12-1.013 1.162" mask="url(#prefix__d)"/>
        <path fill="#7F786A" d="M328.997 333.553c.014.329.28.585.594.57l7.629-.328c.402-.017.687-.416.59-.827l-.172-1.447c-.05-.413-.393-.719-.791-.702 0 0-.168.646-.881.775-.577.105-.794-.39-.875-.749-.04-.174-.223-.273-.386-.2l-5.37 2.338c-.214.098-.348.325-.338.57" mask="url(#prefix__d)"/>
        <path fill="#FFC581" d="M310.938 332.374c-.6.014-1.1-.464-1.114-1.066l-.132-5.678c-.014-.602.462-1.102 1.063-1.116.601-.015 1.1.463 1.114 1.066l.132 5.677c.014.602-.462 1.102-1.063 1.117" mask="url(#prefix__d)"/>
        <path fill="#7F786A" d="M303.788 333.205c.014.33.28.584.594.57l7.63-.333c.401-.016.686-.416.59-.825l-.174-1.448c-.05-.413-.394-.719-.79-.7 0 0-.169.644-.882.774-.577.104-.795-.39-.876-.75-.039-.173-.222-.271-.385-.2l-5.369 2.342c-.214.098-.349.325-.338.57" mask="url(#prefix__d)"/>
        <path fill="#A29C8F" d="M315.611 218.348c2.386 3.678-1.412 15.677-1.412 15.677l-.144 44.612-1.26 49.354-11.038.739s-7.73-46.588-8.44-58.974c-2.108-36.754 3.543-54.294 4.558-56.046 2.406 1.46 11.47 5.671 17.736 4.638" mask="url(#prefix__d)"/>
        <path fill="#7F786A" d="M329.211 215.083c2.558 7.243 9.622 20.46 10.177 30.275.941 16.647 1.227 83.024 1.227 83.024l-10.06-.61-18.158-80.575-2.556-30.297s17.243-1.366 19.37-1.817" mask="url(#prefix__d)"/>
        <path fill="#F5EFE4" d="M294.951 222.694l-10.932-8.854s8.04-22.104 9.843-26.978c2.203-5.954 8.335-9.65 12.328-9.24 0 0-.848 8.1-2.517 17.205-2.41 13.156-8.722 27.867-8.722 27.867" mask="url(#prefix__d)"/>
        <path fill="#F5EFE4" d="M296.907 217.898s7.261 2.485 16.811 1.962c8.741-.478 16.127-3.18 16.127-3.18s4.478-18.167 4.99-24.365c.546-6.591-5.727-14.815-15.51-15.084-3.164-.087-12.83.239-12.83.239-7.148.266-10.697 10.985-10.453 17.594l.865 22.834z" mask="url(#prefix__d)"/>
        <path fill="#E7E1D3" d="M341.165 214.231c3.313.137 6.544.977 6.192-1.544-.932-6.68-3.558-16.281-6.883-21.677-3.857-6.258-7.616-11.031-16.457-12.935 0 0 5.692 10.456 8.24 20.868 1.2 4.897 1.897 12.92 1.897 12.92s1.285 2.132 7.01 2.368" mask="url(#prefix__d)"/>
        <path fill="#FFE2B7" d="M317.08 179.155c-1.184.045-2.18-.88-2.225-2.067l-.097-2.532c-.046-1.186.877-2.186 2.06-2.231 1.183-.045 2.179.88 2.225 2.066l.097 2.531c.045 1.188-.877 2.186-2.06 2.233" mask="url(#prefix__d)"/>
        <path fill="#FFC581" d="M314.746 174.266c-.039-1.026.888-1.896 2.071-1.941 1.183-.045 2.175.75 2.214 1.776l.103 2.686c.022.56-1.575.274-2.826-.554-.819-.542-1.54-1.385-1.54-1.385l-.022-.582z" mask="url(#prefix__d)"/>
        <path fill="#FFE2B7" d="M320.147 167.776c-.267-.023-.53.308-.707.82l-.091-.473c-.383-1.97-2.285-3.255-4.248-2.872-1.963.385-3.245 2.292-2.862 4.26 0 0 .3 2.04.729 3.183.96 2.562 2.26 2.927 4.078 2.572 1.818-.356 3.048-2.017 2.918-3.825.358-.131.683-.854.763-1.755.09-1.019-.17-1.874-.58-1.91" mask="url(#prefix__d)"/>
        <path fill="#FFC581" d="M320.147 167.776c-.267-.023-.53.308-.707.82l-.091-.473c-.351-1.804-1.975-3.034-3.754-2.933-.084.004 1.378 1.518 1.873 4.861.583 3.946-.194 5.162-.151 5.15 1.668-.459 2.77-2.044 2.647-3.76.358-.131.683-.854.763-1.755.09-1.019-.17-1.874-.58-1.91" mask="url(#prefix__d)"/>
        <path fill="#FFE2B7" d="M337.941 243.64L337.908 245.476 339.395 245.572 339.446 243.609z" mask="url(#prefix__d)"/>
        <path fill="#E7E1D3" d="M336.269 241.181L336.813 244.596 341.18 244.269 341.899 240.645z" mask="url(#prefix__d)"/>
        <path fill="#E7E1D3" d="M344.216 241.078c6.626-5.215 5.183-21.503 3.186-27.72-3.246-10.109-10.63-15.055-14.784-13.077 0 0 1.623 11.34 1.238 14.619-.618 5.266-.555 19.372-.371 25.258.042 1.396 1.611 2.694 2.976 2.665 1.637-.034 6.472-.736 7.755-1.745" mask="url(#prefix__d)"/>
        <path fill="#7F786A" d="M314.846 178.736l3.493.223s.347 3.072-1.76 3.14c-2.109.065-1.733-3.363-1.733-3.363" mask="url(#prefix__d)"/>
        <path fill="#7F786A" d="M316.007 180.624s-4.659 9.775-5.82 16.905c-1.173 7.196-1.509 10.597-1.509 10.597l4.464 2.987 4.855-3.111-1.052-27.015-.938-.363z" mask="url(#prefix__d)"/>
        <path fill="#E7E1D3" d="M319.061 181.353L320.662 177.313 319.106 175.819 316.873 178.52 316.767 179.286z" mask="url(#prefix__d)"/>
        <path fill="#E7E1D3" d="M313.974 180.902L313.712 177.287 314.816 175.884 317.025 178.577 316.917 179.234z" mask="url(#prefix__d)"/>
        <path fill="#FFE2B7" d="M336.076 247.52c.312.213.736.132.948-.18l.969-1.429-.564-.384-1.353 1.993z" mask="url(#prefix__d)"/>
        <path fill="#A29C8F" d="M332.88 254.485c.073.007.148.006.224-.005.531-.07.903-.559.833-1.093l-.526-3.96 10.802-1.442.526 3.961c.071.533.561.905 1.089.836.531-.072.904-.56.833-1.093l-.654-4.925c-.034-.256-.168-.487-.372-.644-.204-.156-.463-.225-.716-.191l-12.725 1.698c-.53.07-.903.56-.833 1.093l.654 4.924c.061.457.428.797.865.84" mask="url(#prefix__d)"/>
        <path fill="#FCC23F" d="M347.136 251.585L351.735 250.971 351.592 249.888 346.992 250.501zM326.843 254.294L331.442 253.68 331.299 252.597 326.699 253.21z" mask="url(#prefix__d)"/>
        <path fill="#A29C8F" d="M330.628 276.315l23.286-3.11c1.925-.255 3.278-2.03 3.022-3.962l-.836-6.3c-.935-7.047-7.39-12-14.417-11.061l-4.812.642c-7.027.937-11.965 7.411-11.03 14.459l.836 6.301c.257 1.93 2.026 3.289 3.95 3.03" mask="url(#prefix__d)"/>
        <path fill="#7F786A" d="M325.698 265.911l30.26-4.04-1.109-8.35c-.256-1.93-2.026-3.288-3.95-3.032l-23.287 3.11c-1.925.256-3.279 2.03-3.022 3.962l1.108 8.35z" mask="url(#prefix__d)"/>
        <path fill="#7F786A" d="M350.917 266.343c.814-.108 1.387-.858 1.278-1.675l-.444-3.348c-.108-.817-.856-1.391-1.67-1.282-.815.108-1.388.859-1.279 1.676l.444 3.348c.11.816.857 1.39 1.671 1.281" mask="url(#prefix__d)"/>
        <path fill="#FCC23F" d="M351.414 261.99l-2.112.282.281 2.119 2.112-.282-.28-2.12zm-2.429 2.808l-.366-2.76c-.024-.18.1-.342.277-.365l2.753-.368c.177-.023.34.101.363.279l.367 2.76c.023.178-.1.342-.278.365l-2.753.367c-.026.003-.05.004-.075 0-.146-.013-.268-.126-.288-.278z" mask="url(#prefix__d)"/>
        <path fill="#7F786A" d="M331.133 268.984c.814-.108 1.387-.859 1.278-1.676l-.444-3.347c-.108-.816-.856-1.39-1.671-1.281-.814.108-1.387.858-1.278 1.675l.444 3.347c.109.817.857 1.39 1.67 1.282" mask="url(#prefix__d)"/>
        <path fill="#FCC23F" d="M331.63 264.631l-2.112.282.281 2.12 2.112-.284-.281-2.118zm-2.429 2.808l-.366-2.76c-.024-.18.1-.342.277-.365l2.753-.369c.085-.01.171.012.239.066.068.052.113.129.124.214l.366 2.761c.024.177-.1.341-.277.364l-2.753.367c-.025.003-.05.004-.075.001-.146-.015-.268-.127-.288-.28z" mask="url(#prefix__d)"/>
        <path fill="#FFE2B7" d="M337.823 248.54s1.134.645 1.544.591c.313-.04.665-.538.688-.854.06-.829-.004-2.615-.611-3.053-.29-.21-1.026-.106-1.571.01-.362.077-.595.43-.527.793l.477 2.514z" mask="url(#prefix__d)"/>
        <path fill="#FFE2B7" d="M337.957 249.16c-.195-.41-.44-2.222-.44-2.222l.746-.082s.293 1.822.245 2.241c-.027.233-.439.298-.55.063" mask="url(#prefix__d)"/>
        <path fill="#FFE2B7" d="M338.606 249.432c-.197-.41-.444-2.222-.444-2.222l.758-.083s.295 1.821.246 2.242c-.028.232-.447.297-.56.063" mask="url(#prefix__d)"/>
        <path fill="#FFE2B7" d="M339.165 249.254c-.181-.412-.423-2.224-.423-2.224l.678-.074s.285 1.822.245 2.241c-.022.233-.396.293-.5.057" mask="url(#prefix__d)"/>
        <path fill="#FFE2B7" d="M339.676 248.97c-.181-.413-.423-2.225-.423-2.225l.678-.074s.285 1.822.245 2.241c-.021.233-.396.293-.5.057" mask="url(#prefix__d)"/>
        <path fill="#FFF" d="M315.037 175.818c1.692.37 4.245-.363 4.91-2.365.156-.467.128-2.725-.182-2.733-.311-.007-.5 1.619-.866 1.64-.63.036-.867-.67-.084-1.296.4-.321.45-.828.629-1.317.095-.34.18-.646.234-.974.094-.587-.318-.141-.535.271-.387.738-.452.753-.983 1.214-.763.66-1.602-.27-2.65-.208-.952.055-2.207.58-2.47.874-.034.039.032.204-.014.352-.578 1.85.606 4.234 2.01 4.542" mask="url(#prefix__d)"/>
    </g>
</svg>
