<svg xmlns="http://www.w3.org/2000/svg" xmlns:xlink="http://www.w3.org/1999/xlink" width="408" height="255" viewBox="0 0 408 255">
    <defs>
        <path id="prefix__a" d="M0.08 0.285L1.08 0.285 1.08 1 0.08 1z"/>
        <path id="prefix__c" d="M0.875 0.16L1.875 0.16 1.875 1 0.875 1z"/>
        <path id="prefix__e" d="M1 0.947L1.531 0.947 1.531 1.947 1 1.947z"/>
        <path id="prefix__g" d="M0.652 0.034L1.652 0.034 1.652 1 0.652 1z"/>
        <path id="prefix__i" d="M0.487 0.607L2.317 0.607 2.317 1.536 0.487 1.536z"/>
        <path id="prefix__k" d="M0.861 0.607L1.395 0.607 1.395 1.119 0.861 1.119z"/>
        <path id="prefix__m" d="M0.391 0.455L1.391 0.455 1.391 1 0.391 1z"/>
        <path id="prefix__o" d="M0.539 0.607L1.395 0.607 1.395 1.41 0.539 1.41z"/>
        <path id="prefix__q" d="M0.822 0.607L1.395 0.607 1.395 1.133 0.822 1.133z"/>
        <path id="prefix__s" d="M0.487 0.607L2.395 0.607 2.395 1.635 0.487 1.635z"/>
        <path id="prefix__u" d="M0 0.499L407.285 0.499 407.285 19 0 19z"/>
        <path id="prefix__w" d="M3.149 3.533S2.209 2.401.741.543c1.14 2.645 2.408 2.99 2.408 2.99"/>
        <linearGradient id="prefix__x" x1="60.084%" x2="34.727%" y1="73.921%" y2="21.619%">
            <stop offset="0%" stop-color="#DBEBFF"/>
            <stop offset="100%" stop-color="#FFF"/>
        </linearGradient>
    </defs>
    <g fill="none" fill-rule="evenodd">
        <g opacity=".3">
            <path fill="#306B34" d="M56.609 22.292c.162.456.337.918.536 1.387-.2-.469-.374-.93-.536-1.387M57.164 23.724c.191.449.403.906.63 1.367-.226-.461-.439-.918-.63-1.367M56.175 20.932c.092.319.194.644.304.97-.11-.326-.213-.651-.304-.97M55.543 17.956c.054.405.125.82.208 1.237-.083-.418-.154-.832-.208-1.237M55.83 19.562c.068.31.143.622.227.937-.084-.315-.16-.627-.226-.937M58.026 25.541c.172.337.353.676.545 1.018-.192-.342-.373-.68-.545-1.018" transform="translate(97 103)"/>
            <g transform="translate(97 103) translate(48 47.393)">
                <mask id="prefix__b" fill="#fff">
                    <use xlink:href="#prefix__a"/>
                </mask>
                <path fill="#306B34" d="M.81.91C.657.826.496.747.35.66c.146.088.304.166.457.25H.81z" mask="url(#prefix__b)"/>
            </g>
            <path fill="#306B34" d="M58.867 27.074c.202.346.417.694.64 1.045-.223-.35-.438-.699-.64-1.045M60.487 29.582v-.006c-.23-.329-.465-.658-.678-.982.215.326.445.657.678.988M55.42 16.706c.027.407.065.818.12 1.24-.055-.422-.093-.833-.12-1.24" transform="translate(97 103)"/>
            <path fill="#306B34" d="M47.16 27.254c.233 1.977.41 3.995.541 6.028.363.183.744.39 1.148.634 1.96 1.186 4.352 1.476 6.473.592 1.463-.608 3.3-.889 5.165.085v-.299c-.532-1.284-1.178-2.561-1.972-3.818-9.571-15.16-1.589-24.606 1.972-27.769v-.679c-.511.2-1.13.461-1.828.799.68-.407 1.293-.732 1.828-.997v-.004c-4.491 2.216-15.234 9.269-13.327 25.428" transform="translate(97 103)"/>
            <path fill="#306B34" d="M55.406 16.416c-.016-.303-.025-.604-.025-.898 0 .294.01.594.025.898M59.291 4.236c-.076.1-.15.202-.227.306.076-.104.151-.206.227-.306M57.877 6.356c-.096.165-.19.333-.283.504.093-.171.187-.34.283-.504M58.344 5.59c-.108.169-.215.34-.322.519.105-.178.215-.35.322-.52M58.867 4.813c-.138.194-.276.396-.414.605.138-.21.276-.41.414-.605M60.063 3.284c-.04.045-.076.088-.115.134l.115-.134M59.702 3.716c-.061.075-.122.15-.183.228.061-.078.122-.153.183-.228M55.553 12.966c-.05.35-.087.708-.116 1.072.029-.364.066-.722.116-1.072M55.98 10.895c-.07.257-.131.519-.19.785.058-.266.122-.528.19-.785M55.741 11.897c-.072.349-.136.703-.187 1.066.051-.363.115-.717.187-1.066M55.418 14.33c-.018.277-.03.56-.035.845.005-.285.017-.568.035-.846M57.062 7.915c-.13.278-.254.563-.374.857.119-.294.245-.579.374-.857M56.275 9.908c-.077.232-.15.47-.218.71.069-.24.14-.478.218-.71M57.456 7.118c-.101.194-.2.393-.297.596.097-.203.196-.402.297-.596M56.665 8.831c-.108.271-.21.55-.31.832.1-.283.202-.56.31-.832" transform="translate(97 103)"/>
            <path fill="#A4B751" d="M57.159 7.714l-.097.201.097-.201M55.54 17.945c0 .004.002.007.003.011l-.002-.01M57.594 6.86l-.138.258.138-.259M55.437 14.038c-.008.096-.013.194-.02.291.007-.097.012-.195.02-.29M56.688 8.773l-.023.059.023-.06M58.453 5.418c-.037.056-.072.115-.108.172.036-.057.07-.116.108-.172M55.553 12.963v0M59.064 4.542l-.197.271c.066-.093.131-.18.197-.27M55.79 11.68l-.05.217.05-.217M56.356 9.663c-.028.081-.054.163-.081.245l.08-.245M56.056 10.618l-.077.276.077-.276M55.406 16.416c.005.097.007.192.014.29-.007-.098-.009-.193-.014-.29M58.021 6.109c-.049.08-.096.163-.144.247.048-.082.096-.167.144-.247M58.571 26.559c.096.172.195.344.296.516-.1-.172-.2-.344-.296-.516M57.794 25.09c.073.15.154.302.231.45-.077-.148-.158-.3-.23-.45M55.751 19.194c.024.12.053.245.08.367-.027-.122-.056-.247-.08-.367M59.507 28.12c.101.157.197.314.302.474-.105-.16-.2-.317-.302-.475M57.144 23.679l.02.045-.02-.045M55.38 15.518c0-.115.002-.23.004-.343-.002.114-.003.228-.003.343M59.52 3.943c-.077.097-.152.193-.229.294.076-.1.152-.197.228-.294M59.948 3.418c-.082.096-.164.196-.246.298.082-.1.165-.202.246-.298M56.056 20.5c.038.143.077.286.12.432-.043-.146-.082-.289-.12-.433M56.479 21.902c.043.13.083.258.13.39-.047-.132-.087-.26-.13-.39M60.063 3.284c.145-.168.286-.327.424-.478-.138.15-.28.31-.424.478" transform="translate(97 103)"/>
            <path fill="#A4B751" d="M59.809 28.594c-.105-.16-.201-.316-.302-.475-.222-.35-.438-.7-.64-1.045-.101-.171-.2-.343-.296-.515-.192-.342-.373-.681-.545-1.018-.077-.15-.158-.301-.232-.45-.226-.461-.438-.918-.63-1.367-.005-.015-.013-.03-.02-.045-.198-.47-.374-.931-.535-1.387-.047-.132-.087-.26-.13-.39-.11-.327-.212-.651-.304-.97-.041-.146-.081-.29-.118-.433-.084-.315-.16-.628-.226-.937-.026-.123-.056-.247-.08-.368-.083-.418-.154-.832-.208-1.238l-.002-.01c-.056-.421-.094-.832-.121-1.24-.007-.097-.01-.193-.014-.29-.015-.303-.025-.603-.025-.898 0-.115 0-.23.003-.343.005-.285.016-.567.034-.846.006-.096.01-.195.019-.291.029-.364.066-.722.116-1.072v-.003c.052-.363.116-.718.188-1.066.015-.074.033-.145.049-.217.059-.267.12-.528.19-.785.025-.093.05-.185.077-.277.068-.241.14-.477.218-.71l.08-.245c.099-.283.202-.561.31-.832l.023-.058c.12-.294.245-.58.374-.858l.097-.201c.097-.203.196-.401.297-.596l.138-.258c.093-.171.188-.34.283-.504l.144-.247c.107-.178.215-.35.324-.52.036-.056.07-.115.108-.171.138-.21.276-.411.414-.605.066-.093.13-.181.197-.271.076-.103.152-.206.227-.305.077-.101.152-.198.228-.293.06-.078.122-.153.183-.228.083-.101.165-.202.246-.298l.115-.134c.145-.17.286-.328.424-.478v-.1c-3.561 3.164-11.543 12.61-1.972 27.77.794 1.258 1.44 2.534 1.972 3.818v-4.712c-.233-.331-.463-.662-.678-.988" transform="translate(97 103)"/>
            <path fill="#4900BC" d="M58.658 2.827c.7-.338 1.317-.6 1.83-.799V1.83c-.536.265-1.15.59-1.83.997" transform="translate(97 103)"/>
            <path fill="#619440" d="M41.935 39.73l.016.052-.016-.051M42.442 41.132c.033.08.065.16.1.242-.035-.081-.067-.161-.1-.242M42.16 40.398c.02.056.038.11.059.165l-.059-.165M43.192 42.705c.061.112.124.224.188.335-.064-.11-.127-.223-.188-.335M42.785 41.906c.046.1.093.196.143.296-.05-.1-.097-.197-.143-.296M33.134 45.7c.456.613 1.193 1.517 2.083 2.603h3.556c.074-2.133.351-4.414.913-6.822 1.603-6.86 1.214-6.906 1.618-4.448l-.178-1.49s.182-1.95 1.68-2.81c-.889-3.887-2.836-5.994-6.508-9.114-7.014-5.958-16.897-15.752-16.897-15.752 6.732 13.328 6.597 19.387 7.863 29.193 4.973 1.752 4.191 6.38 5.87 8.64" transform="translate(97 103)"/>
            <path fill="#306B34" d="M43.177 48.303h4.767l.011-.5c-.029-.02-.058-.04-.087-.058-.183-.118-.37-.235-.543-.358-.156-.111-.3-.23-.449-.343-.158-.124-.32-.246-.47-.373-.144-.122-.278-.248-.415-.374-.136-.126-.274-.251-.403-.38-.133-.133-.257-.267-.382-.402-.116-.127-.233-.253-.343-.381-.122-.143-.236-.286-.35-.43-.098-.124-.195-.248-.287-.374-.111-.15-.216-.301-.319-.453-.081-.12-.16-.24-.236-.36-.1-.156-.195-.314-.287-.471-.042 1.578-.112 3.317-.207 5.257" transform="translate(97 103)"/>
            <g transform="translate(97 103) translate(47 47.393)">
                <mask id="prefix__d" fill="#fff">
                    <use xlink:href="#prefix__c"/>
                </mask>
                <path fill="#306B34" d="M.944.91h.862C1.654.826 1.496.747 1.35.66 1.213.58 1.087.493.955.41l-.01.5" mask="url(#prefix__d)"/>
            </g>
            <path fill="#306B34" d="M43.384 43.046l-.003-.006c-.065-.111-.128-.223-.189-.335-.092-.168-.18-.336-.265-.503-.049-.099-.096-.197-.143-.296-.084-.178-.166-.355-.242-.532-.035-.081-.067-.161-.1-.242-.079-.191-.155-.381-.224-.568l-.058-.165c-.075-.209-.146-.416-.21-.618l-.015-.05c-.298-.956-.485-1.826-.605-2.519 0-.021 0-.042-.01-.054l-.016-.125c-.404-2.458-.015-2.413-1.618 4.449-.562 2.408-.839 4.688-.913 6.821h4.404c.095-1.941.165-3.679.207-5.257" transform="translate(97 103)"/>
            <path fill="#619440" d="M16.708 40.225C9.506 41.854 5.604 43.687 3.49 45.158l-.004.003s4.87-2.474 13.58-2.153c4.587.168 6.582 2.308 8.466 5.295h3.705c-4.281-4.878 1.323-11.211-12.53-8.078" transform="translate(97 103)"/>
            <g transform="translate(97 103) translate(0 46.393)">
                <mask id="prefix__f" fill="#fff">
                    <use xlink:href="#prefix__e"/>
                </mask>
                <path fill="#FAF9FC" d="M1.063 1.343c-.051.134-.063.208-.063.208s.02-.076.063-.208" mask="url(#prefix__f)"/>
            </g>
            <path fill="#A4B751" d="M18.323 36.635C4.715 38.274 1.515 46.349 1.063 47.737c.155-.405.688-1.37 2.426-2.58.034-.037 7.024-7.535 19.502-7.535 5.893 0 4.729 3.78 5.925 5.386.325.438.66.889.995 1.345-1.4-2.757-2.388-5.288-2.646-7.292-1.942-.684-4.759-.93-8.942-.426" transform="translate(97 103)"/>
            <path fill="#A4B751" d="M33.134 45.7c-1.679-2.26-.897-6.888-5.87-8.64.26 2.004 1.247 4.536 2.648 7.292.938 1.27 1.91 2.6 2.887 3.951h2.418c-.89-1.086-1.627-1.99-2.083-2.603" transform="translate(97 103)"/>
            <path fill="#A4B751" d="M29.912 44.353c-.336-.456-.67-.907-.997-1.345-1.195-1.605-.03-5.385-5.924-5.385-12.478 0-19.467 7.498-19.501 7.535 2.114-1.471 6.016-3.304 13.218-4.933 13.85-3.133 8.247 3.2 12.529 8.078h2.862c-.8-1.346-1.537-2.672-2.187-3.95" transform="translate(97 103)"/>
            <path fill="#A4B751" d="M32.099 48.303h.7c-.978-1.351-1.95-2.681-2.887-3.95.65 1.278 1.388 2.604 2.187 3.95M43.384 43.046c.091.157.187.314.287.471.076.12.155.24.236.36.102.151.208.303.32.453.091.126.188.25.286.374.113.144.228.287.35.43.11.128.227.254.343.381.125.135.25.269.382.402.13.129.267.254.403.38.137.126.271.252.415.374.15.127.311.249.47.373.148.114.293.231.45.343.172.123.36.24.542.358l.087.056c.106-4.681.061-9.642-.254-14.519-2.395-1.2-3.923-1.106-4.896-.549.566 2.474.702 5.675.58 10.313" transform="translate(97 103)"/>
            <path fill="#A4B751" d="M47.955 47.8c.132.085.257.173.394.254.147.087.308.166.46.249h5.49c.984-2.523 2.415-4.675 4.505-5.834.536-.297 1.098-.573 1.683-.817v-7.06c-1.865-.973-3.703-.692-5.165-.084-2.122.884-4.513.594-6.473-.592-.405-.244-.785-.451-1.148-.634.315 4.877.36 9.838.254 14.519M41.126 35.543l.179 1.49c.118.722.304 1.653.63 2.697l.016.051c.063.201.135.41.209.617.02.056.038.11.059.166.069.187.145.377.223.568.033.081.065.161.1.242.076.176.158.354.243.532.046.1.093.197.142.296.084.167.174.335.265.503.06.112.124.224.189.335l.003.006c.123-4.638-.013-7.839-.578-10.313-1.497.86-1.68 2.81-1.68 2.81M45.992 46.297c.136.126.27.252.415.374-.144-.122-.28-.248-.415-.374" transform="translate(97 103)"/>
            <path fill="#A4B751" d="M47.955 47.8c-.029-.018-.059-.036-.087-.055l.087.058V47.8zM43.67 43.517c-.1-.156-.194-.313-.286-.471.092.158.187.315.287.47M45.588 45.917c-.132-.133-.257-.268-.381-.402.124.134.249.27.38.402M43.907 43.877c.103.151.208.303.319.453-.111-.15-.216-.302-.319-.453M46.876 47.044c.148.114.292.231.45.343-.158-.112-.302-.229-.45-.343M44.513 44.704c.114.144.229.287.35.43-.121-.143-.237-.286-.35-.43" transform="translate(97 103)"/>
            <g transform="translate(97 103) translate(47 47.393)">
                <mask id="prefix__h" fill="#fff">
                    <use xlink:href="#prefix__g"/>
                </mask>
                <path fill="#A4B751" d="M1.35.66C1.211.58 1.086.491.954.407V.41c.131.084.257.17.394.25" mask="url(#prefix__h)"/>
            </g>
            <path fill="#A4B751" d="M42.219 40.564c.069.187.145.377.224.568-.08-.19-.155-.381-.224-.568M41.95 39.781c.063.202.136.408.21.617-.074-.208-.146-.416-.21-.617M42.927 42.202c.084.167.173.335.265.503-.092-.168-.181-.336-.265-.503M42.542 41.374c.076.177.158.354.242.532-.084-.178-.166-.356-.242-.532M43.384 43.046l-.003-.006.003.006M41.33 37.212c.12.693.307 1.562.604 2.519-.325-1.045-.51-1.976-.63-2.698l.015.125c.011.012.011.033.011.054M56.624 48.303h3.863v-1.065c-1.663-.524-2.923-.013-3.863 1.065M58.715 45.251c.604-.305 1.194-.515 1.772-.657v-2.943c-.584.245-1.147.521-1.682.818-2.09 1.16-3.522 3.311-4.505 5.834h1.277c.785-1.303 1.806-2.377 3.138-3.052" transform="translate(97 103)"/>
            <path fill="#A4B751" d="M58.715 45.251c-1.332.675-2.353 1.75-3.138 3.052h1.047c.94-1.078 2.2-1.589 3.863-1.066v-2.643c-.578.142-1.168.352-1.772.657" transform="translate(97 103)"/>
            <g transform="translate(97 103) translate(60 .393)">
                <mask id="prefix__j" fill="#fff">
                    <use xlink:href="#prefix__i"/>
                </mask>
                <path fill="#F7E8C8" d="M2.317.634c-.21.076-.88.331-1.83.8v.003c.94-.464 1.614-.725 1.83-.803" mask="url(#prefix__j)"/>
            </g>
            <path fill="#F7E8C8" d="M60.869 30.129c-.136-.187-.251-.368-.382-.553v.006c.129.183.248.363.382.547M60.487 34.294v.299c.048.025.097.058.146.085-.05-.128-.093-.256-.146-.384" transform="translate(97 103)"/>
            <g transform="translate(97 103) translate(61 .393)">
                <mask id="prefix__l" fill="#fff">
                    <use xlink:href="#prefix__k"/>
                </mask>
                <path fill="#F7E8C8" d="M1.327.631c.042-.016.068-.024.068-.024s-.026.008-.068.024" mask="url(#prefix__l)"/>
            </g>
            <path fill="#F7E8C8" d="M60.487 2.707c.18-.16.353-.31.508-.437.258-.26.49-.483.688-.664-.256.08-.669.217-1.196.422v.68z" transform="translate(97 103)"/>
            <g transform="translate(97 103) translate(48 47.393)">
                <mask id="prefix__n" fill="#fff">
                    <use xlink:href="#prefix__m"/>
                </mask>
                <path fill="#F7E8C8" d="M.976 1L.81.91H.807L.976 1" mask="url(#prefix__n)"/>
            </g>
            <path fill="#F7E8C8" d="M60.487 2.807c.177-.193.35-.377.511-.54l-.003.003c-.16.163-.33.343-.508.536z" transform="translate(97 103)"/>
            <path fill="#F7E8C8" d="M60.487 2.806c.177-.193.347-.373.508-.536-.155.128-.328.277-.508.437v.099z" transform="translate(97 103)"/>
            <g transform="translate(97 103) translate(61 .393)">
                <mask id="prefix__p" fill="#fff">
                    <use xlink:href="#prefix__o"/>
                </mask>
                <path fill="#F7E8C8" d="M.684 1.212c.435-.396.711-.605.711-.605s-.277.21-.712.606h.001" mask="url(#prefix__p)"/>
            </g>
            <g transform="translate(97 103) translate(61 .393)">
                <mask id="prefix__r" fill="#fff">
                    <use xlink:href="#prefix__q"/>
                </mask>
                <path fill="#F7E8C8" d="M1.317.634l.01-.003-.01.003" mask="url(#prefix__r)"/>
            </g>
            <g transform="translate(97 103) translate(60 .393)">
                <mask id="prefix__t" fill="#fff">
                    <use xlink:href="#prefix__s"/>
                </mask>
                <path fill="#F7E8C8" d="M.487 1.635c.527-.205.94-.343 1.196-.422.435-.396.712-.606.712-.606s-.026.008-.068.024l-.01.003c-.216.078-.89.34-1.83.803v.198z" mask="url(#prefix__t)"/>
            </g>
        </g>
        <g>
            <g transform="translate(0 .859) translate(0 235)">
                <mask id="prefix__v" fill="#fff">
                    <use xlink:href="#prefix__u"/>
                </mask>
                <path fill="#F7E8C8" d="M0 9.75C0 4.64 91.174.499 203.643.499c112.468 0 203.642 4.142 203.642 9.25 0 5.109-91.174 9.25-203.642 9.25C91.173 19 0 14.859 0 9.75" mask="url(#prefix__v)"/>
            </g>
            <path fill="#A4B751" d="M351.5 236.34c1.7-.756 7.428-2.94 7.698-4.929.295-2.167-1.078-4.543-3.037-5.256-.846-.306-1.784-.344-2.458-1.1-.376-.424-.506-1.073-.205-1.53.49-.745 1.542-.305 2.316.095 1.482.768 3.143 1.208 4.723.939 1.581-.272 3.058-1.334 3.633-2.938.575-1.6.067-3.709-1.318-4.675-.867-.605-1.954-.733-2.706-1.59-.39-.446-.576-1.088-.352-1.624.452-1.083 1.951-.67 2.986-.172 1.463.704 3.017 1.275 4.587 1.252 1.57-.024 3.168-.728 3.99-2.137.822-1.409.641-3.554-.62-4.638-.505-.434-1.125-.674-1.655-1.067-.638-.475-1.179-1.326-.75-2.117.294-.549.93-.743 1.52-.6.818.197 1.402.783 1.994 1.362.933.913 2.147 1.444 3.371 1.386 3.656-.168 4.198-4.725 2.163-6.882-.57-.606-1.374-1.172-1.319-2.043.043-.689.607-1.162 1.244-1.2 1.257-.072 2.184.915 3.298 1.33 2.037.758 4.417-.915 4.552-3.202.104-1.75-1.964-1.835-3.845-2.287-.433-.106-.472-.762-.054-.886 1.662-.494 3.666-1.482 4.747-2.16 1.982-1.24 3.663-5.17.247-6.304-.915-.304-2.982.413-3.46 1.097-.678.966-3.17 3.423-3.17 3.423-.293.24-.715-.107-.58-.482.304-.847.5-1.737.396-2.7-.048-.44-.173-.878-.382-1.267-1.248-2.32-3.94-1.452-4.963.35-.85 1.498-.877 3.391-.92 5.184-.023.93-.084 1.941-.795 2.526-.403.332-.989.374-1.398.008-.473-.422-.369-1.017-.41-1.565-.134-1.792-2.042-3.108-3.659-2.805-1.617.3-2.808 1.852-3.214 3.569-.406 1.716-.15 3.57.273 5.323.21.867.46 1.794 0 2.588-.27.468-.833.694-1.302.422-.668-.385-.585-1.337-.692-2.1-.3-2.125-2.767-3.421-4.609-2.754-1.84.667-2.95 2.76-3.139 4.876-.213 2.381.538 4.8 1.286 7.077.176.535.014 1.144-.435 1.4-.623.352-1.134-.248-1.58-.708-1.723-1.776-4.553-2.093-6.436-.716-1.883 1.375-2.623 4.298-1.682 6.645.6 1.492 1.78 2.74 1.642 4.496-.069.87-.68 1.594-1.489 1.572-1.02-.026-1.533-1.181-2.167-2.002-1.757-2.275-5.287-2.089-7.115-.069-1.828 2.02-.88 7.306-.164 10.133.716 2.827 2.094 8.749 4.458 11.487 1.114 1.29 9.256-1.28 10.956-2.036" transform="translate(0 .859)"/>
            <path fill="#619440" d="M386.25 183.367c-.915-.305-2.981.413-3.46 1.097-.677.966-3.17 3.423-3.17 3.423-.293.24-.715-.107-.58-.481.304-.85.5-1.737.396-2.7-.047-.441-.173-.878-.382-1.268-1.247-2.32-3.94-1.452-4.963.35-.85 1.499-.877 3.392-.92 5.184-.022.93-.084 1.942-.795 2.527-.402.33-.988.373-1.397.008-.474-.422-.37-1.017-.41-1.566-.134-1.793-2.042-3.107-3.66-2.805-1.616.3-2.808 1.852-3.214 3.569-.405 1.717-.15 3.569.274 5.324.209.865.458 1.794 0 2.587-.271.469-.833.693-1.302.423-.668-.385-.585-1.337-.693-2.102-.3-2.125-2.766-3.421-4.608-2.754-1.842.667-2.95 2.762-3.14 4.876-.213 2.382.538 4.8 1.287 7.078.176.535.013 1.145-.436 1.4-.623.352-1.134-.247-1.58-.707-1.723-1.777-4.552-2.093-6.435-.717-1.883 1.375-2.623 4.298-1.682 6.646.598 1.492 1.779 2.74 1.64 4.496-.068.869-.68 1.592-1.488 1.57-1.02-.025-1.532-1.181-2.166-2.001-1.758-2.274-5.288-2.088-7.116-.068-1.828 2.019-.88 7.305-.163 10.132.668 2.638 1.912 7.97 3.996 10.897.149.21.46.59.46.59s9.5-17.98 23.494-34.547c7.772-9.203 23.969-19.02 23.969-19.02s-.105-.256-.364-.53c-.445-.47-1.211-.851-1.391-.911" transform="translate(0 .859)"/>
            <path fill="#306B34" d="M325.276 216.872c-.82 2.045-1.361 4.186-1.854 6.314-.642 2.77-.197 3.594.567 6.105.765 2.51 2.503 4.583 4.827 5.193 2.323.612 4.07 1.815 5.81-.43.245-.318.61-.078.637.1.187 1.257.235 2.03.958 2.899.758.908 5.418 4.784 11.243.545 3.044-3.925 4.232-8.696 5.713-13.473.187-.603.363-1.232.307-1.83-.103-1.1-1.098-1.86-2.102-1.605.869.077 1.769-.648 2.287-1.535.517-.886.733-1.91.938-2.905l2.272-11.036c-2.513.92-5.214.639-7.254-.757 0 0 7.905-1.705 7.939-5.618.025-2.84-.04-6.788.14-9.645.129-1.998-.472-4.134-1.146-5.864-.574-1.477-.951-2.496-2.02-3.532-.645-.626-1.325-1.272-2.2-1.455-1.323-.28-2.76.564-3.996 1.476-2.265 1.67-4.344 3.68-6.306 5.81-2.326 2.526-4.498 5.234-6.49 8.089 1.435 3.803 3.846 7.017 6.91 9.21-2.934-1.027-5.57-2.827-7.661-5.23-.251-.29-.531-.605-.915-.608-.765-.005-1.201 1.105-1.428 1.964-.958 3.629-2.781 7.092-5.214 9.904l3.404 1.325-4.444-.146s-.186 4.899-.922 6.735" transform="translate(0 .859)"/>
            <path fill="#A4B751" d="M323.865 217.87c-.82 2.046-1.26 8.407-.144 11.852.81 2.496 2.691 4.527 4.878 5.52 1.714.78 4.287 1.057 6.026-1.188.245-.318.612-.078.638.1.186 1.257 17.922-55.634 17.076-55.811-1.325-.28-2.76.564-3.997 1.476-2.265 1.67-4.345 3.68-6.306 5.81-2.326 2.526-4.499 5.234-6.49 8.089 1.435 3.803 3.846 7.017 6.91 9.21-2.934-1.027-5.57-2.827-7.66-5.23-.253-.29-.533-.605-.917-.608-.764-.005-1.2 1.105-1.427 1.964-.958 3.628-2.78 7.092-5.214 9.904l3.404 1.325-4.444-.146s-1.597 5.897-2.333 7.733" transform="translate(0 .859)"/>
            <path fill="#FFF" d="M226.406 243.921L324.363 243.921 324.363 9.291 226.406 9.291z" transform="translate(0 .859)"/>
            <path fill="#F7E8C8" d="M226.406 243.921L226.406 9.291 324.363 9.291 324.363 243.921 333.709 243.921 333.709 0.571 217.06 0.571 217.06 243.921z" transform="translate(0 .859)"/>
            <path fill="#F7E8C8" d="M226.406 243.921L324.363 243.921 324.363 9.291 226.406 9.291z" transform="translate(0 .859)"/>
            <path fill="#A29C8F" d="M226.4 10.177L324.548 10.177 324.548 9.29 226.4 9.29z" transform="translate(0 .859)"/>
            <path fill="#A29C8F" d="M226.406 243.921L227.327 243.921 227.327 9.291 226.406 9.291zM323.902 243.921L324.823 243.921 324.823 9.291 323.902 9.291z" transform="translate(0 .859)"/>
            <path fill="#A29C8F" d="M334.169 243.921L333.248 243.921 333.248 1 217.06 1.001 217.06 0.142 334.169 0.141z" transform="translate(0 .859)"/>
            <path fill="#FCBD30" d="M313.136 36.436c.398-5.124-2.136-5.787-3.631-5.812.34-.983.527-2.324-.42-3.299-1.27-1.307-4.71-1.307-6.256.423-1.177-1.814-2.582-5.353-6.766-3.384-5.783 2.72-.952 9.221.42 9.82 0 0-1.83.637-1.301 2.731.362 1.433 1.538 1.568 1.576 1.455-.075.298.462 2.736 1.84 3.305 1.457.602 6.89 1.385 6.89 1.385s7.219-1.114 7.648-6.624" transform="translate(0 .859)"/>
            <path fill="#FFE2B7" d="M309.085 27.325c-.895-.73-2.1-.852-3.182-.734-1.086.142-2.173.563-2.848 1.359-.106.124-.293.14-.418.034-.022-.018-.04-.04-.055-.062l-.006-.01c-.947-1.441-1.814-3.027-3.275-3.53-1.424-.508-3.155.289-4.321 1.256-1.237 1-1.454 2.703-.974 4.244.479 1.495 1.475 3.107 2.63 3.95l.067.05c.17.123.207.36.083.53-.046.064-.108.109-.177.135-.334.122-.707.384-.917.705-.227.32-.313.728-.29 1.148.03.425.138.857.373 1.193.118.168.266.31.435.42.085.053.174.105.266.134.045.017.093.03.133.036l.052.007c.006.03.025-.071-.1.115l.396.115c-.02.19.049.585.122.872.078.31.18.618.308.914.26.58.62 1.159 1.212 1.47-.63-.23-1.096-.787-1.413-1.371-.163-.294-.3-.603-.412-.921-.1-.343-.226-.594-.216-1.063l.394.114c-.161.235-.21.138-.26.173-.046.005-.09.005-.125 0-.078-.003-.146-.016-.214-.034-.137-.031-.261-.086-.383-.146-.24-.13-.446-.313-.613-.523-.335-.428-.49-.94-.556-1.451-.062-.516.018-1.095.312-1.57.296-.48.706-.828 1.244-1.062l-.027.714c-.946-.524-1.437-1.232-1.973-1.968-.503-.744-.92-1.55-1.211-2.418-.282-.868-.402-1.827-.231-2.775.138-.963.71-1.847 1.436-2.442.707-.642 1.558-1.016 2.418-1.326.869-.29 1.893-.371 2.815-.022.933.329 1.639 1.025 2.149 1.759.53.73.918 1.519 1.35 2.24l-.48-.037c.877-.913 2.109-1.284 3.274-1.314 1.15-.02 2.413.232 3.208 1.092M264.897 242.808c.737.152 1.459-.32 1.61-1.06l1.437-6.945c.153-.737-.321-1.459-1.06-1.61-.737-.154-1.458.32-1.611 1.057l-1.436 6.947c-.152.737.322 1.46 1.06 1.611" transform="translate(0 .859)"/>
            <path fill="#7F786A" d="M256.962 244.236c.01.376.312.672.67.661l8.733-.256c.46-.013.793-.465.688-.933l-.174-1.655c-.05-.471-.438-.826-.893-.812 0 0-.203.733-1.021.87-.662.11-.902-.458-.99-.869-.041-.198-.25-.314-.437-.235l-6.18 2.583c-.247.11-.404.366-.396.646" transform="translate(0 .859)"/>
            <path fill="#FFE2B7" d="M314.52 243.978c-.75-.08-1.29-.754-1.208-1.503l.767-7.05c.082-.75.755-1.29 1.502-1.209.75.081 1.29.754 1.21 1.503l-.769 7.051c-.082.75-.753 1.29-1.502 1.208" transform="translate(0 .859)"/>
            <path fill="#7F786A" d="M292.229 101.163c-2.92 4.638-2.054 10.09-2.981 19.418-2.06 20.725 19.53 1.035 19.53 1.035l4.015 55.682.47 62.566 8.908-.013s17.212-62.794 18.699-77.448c3.938-38.83-5.787-64.39-7.092-66.56-2.987 1.87-33.682 6.495-41.55 5.32" transform="translate(0 .859)"/>
            <path fill="#A29C8F" d="M290.886 101.04c-.868 8.62-9.825 18.158-11.205 30.359-2.34 20.695-14.986 105.483-14.986 105.483l10.5.727 34.6-106.09-1.536-30.266s-14.744.499-17.373-.213" transform="translate(0 .859)"/>
            <path fill="#F5EFE4" d="M332.759 99.026s-9.606 4.281-21.566 4.982c-10.948.642-20.522-1.666-20.522-1.666l-8.344-35.095c-.627-8.239 6.82-16.409 15.755-17.089l15.847-.664c8.934-.68 16.659 5.791 17.287 14.028l1.543 35.504z" transform="translate(0 .859)"/>
            <path fill="#7F786A" d="M322.623 245.458c0 .376-.291.68-.65.68l-8.738.007c-.46 0-.805-.441-.716-.913l.125-1.658c.036-.473.414-.84.868-.84 0 0 .226.728 1.048.839.664.09.887-.484.962-.897.036-.2.24-.322.43-.248l6.255 2.397c.25.102.416.353.416.633M273.733 98.253c-3.817.593-5.682-8.254-5.682-8.254l11.904-30.284c4.285-8.951 9.986-9.637 18.014-7.134 0 0 .26 41.862-24.236 45.672" transform="translate(0 .859)"/>
            <path fill="#7F786A" d="M301.832 49.958s-1.528 53.665-11.953 75.436l-13.76-1.727s7.583-17.882 8.01-35.38c.428-17.497-4.034-33.825 3.029-36.382 7.064-2.555 14.674-1.947 14.674-1.947" transform="translate(0 .859)"/>
            <path fill="#FFE2B7" d="M306.796 50.93l-.487.03c-1.425.083-2.648-1.005-2.732-2.43l-.381-6.496c-.084-1.425 1.004-2.649 2.429-2.732l.488-.029c1.425-.084 2.648 1.004 2.73 2.428l.382 6.498c.084 1.424-1.004 2.648-2.43 2.731" transform="translate(0 .859)"/>
            <path fill="#FFC581" d="M303.23 42.626c-.103-1.752 1.08-3.246 2.638-3.338 1.56-.092 2.908 1.255 3.01 3.006l.27 4.584c.055.957-2.066.488-3.758-.911-1.109-.917-2.1-2.348-2.1-2.348l-.06-.993z" transform="translate(0 .859)"/>
            <path fill="#A29C8F" d="M363.726 82.583s4.243-10.65 2.122-14.45c-3.291-5.9-17.02-12.31-26.435-15.281-2.935-.926-14.238-3.758-17.106-3.658-5.68.2-2.339 3.922-5.262 9.284l46.681 24.105z" transform="translate(0 .859)"/>
            <path fill="#A29C8F" d="M311.214 49.572s.698 55.64 13.596 76.044l17.02-11.14s-5.715-11.552-8.184-28.881c-2.47-17.327.054-34.065-7.26-35.778-7.314-1.713-15.172-.245-15.172-.245M303.891 54.033L301.837 50.04 303.771 47.984 305.624 50.292 305.657 51.367z" transform="translate(0 .859)"/>
            <path fill="#A29C8F" d="M307.446 53.969L311.214 49.572 309.065 46.953 305.414 50.254 305.383 51.239z" transform="translate(0 .859)"/>
            <path fill="#7F786A" d="M258.641 60.978c-6.355 7.825-3.315 24.367 1.065 30.458 7.124 9.903 17.637 7.274 22.027 3.77 0 0-4.702-3.016-5.276-6.7-1.149-7.38-10.179-29.569-10.179-29.569s-5.365-.758-7.637 2.041" transform="translate(0 .859)"/>
            <path fill="#FFE2B7" d="M308.798 36.788c-.375-.062-1.17.4-1.17.4-.322-2.824-2.872-4.852-5.696-4.53-2.824.322-4.403 2.82-4.08 5.646 0 0 .432 4.227.582 4.748.976 3.405 2.521 4.266 5.135 3.968 2.615-.298 4.543-2.506 4.561-5.074.521-.145 1.064-1.132 1.276-2.394.241-1.43-.03-2.666-.608-2.764" transform="translate(0 .859)"/>
            <path fill="#FFE2B7" d="M300.488 33.052s-.136.064-.203.1c-1.77.921-2.686 2.936-2.434 5.151 0 0 .434 4.228.583 4.748.642 2.237 1.569 3.43 2.852 3.837.84.267 1.66.181 1.66.181s-2.81-1.427-3.184-7.156c-.224-3.434.726-6.86.726-6.86M306.834 39.414c-.255 1.325.086 2.506.763 2.636.676.13 1.5-.74 1.755-2.067.254-1.325-.156-2.604-.832-2.734-.676-.13-1.43.839-1.686 2.165" transform="translate(0 .859)"/>
            <path fill="#FCBD30" d="M307.763 36.573s-1.139 4.684-.097 5.969c1.113 1.373-.003 2.74-.73 3.577-.727.836-4.813 3.527-7.438 2.629-1.415-.484-.967-3.404-.85-4.19.018-.132.13-.231.264-.234.463-.014 1.48-.06 1.62-.207.21-.223-.085-1.076-1.405-.751-.868.214-.039 1.092-.122 1.358-.162.523-.488 1.42-.466 1.253.02-.156-.387-2.396-.275-3.105.047-.303-.02-.438.661-.646.163-.05 2.087-.475 3.202.402 1.115.877 1.37 1.224 1.893.905.523-.32 1.887-5.718 3.426-7.816l.317.856z" transform="translate(0 .859)"/>
            <path fill="#FCBD30" d="M297.859 32.224s6.127 5.237 10.412 3.43c4.286-1.81-7.62-6.414-10.412-3.43" transform="translate(0 .859)"/>
            <path fill="#FFE2B7" d="M339.692 101.295l.948.724c.205.155.255.435.117.647-.224.347-1.588 1.533-2.01 1.478-.684-.091-.971-1.552-.971-1.552l1.916-1.297z" transform="translate(0 .859)"/>
            <path fill="#A29C8F" d="M339.148 101.058L340.964 103.289 343.08 102.066 340.621 99.376z" transform="translate(0 .859)"/>
            <path fill="#A29C8F" d="M340.03 94.15c-1.28 3.248-.363 8.24 6.086 9.19 10.947 1.613 17.19-9.536 19.214-13.855 3.464-7.397 10.799-18.66-6.532-27.975-1.341-.72-4.022 6.644-6.511 13.016-3.076 7.876-11.476 17.64-12.257 19.623" transform="translate(0 .859)"/>
            <path fill="#FFE2B7" d="M335.467 102.039s.189-1.56.534-1.917c.264-.274 1.45-.463 1.45-.463s1.99 2.378 1.98 3.277c-.006.43-.233.97-.736 1.415-.333.294-.84.27-1.143-.056l-2.085-2.256z" transform="translate(0 .859)"/>
            <path fill="#FFE2B7" d="M333.369 100.555c-.136.433.104.894.537 1.03l1.978.623.247-.783-2.762-.87zM333.718 98.811c-.245.382-.088.92.35 1.2l2 1.28.443-.692-2.793-1.788z" transform="translate(0 .859)"/>
            <path fill="#FFE2B7" d="M334.13 98.076c-.274.36-.162.909.252 1.224l1.893 1.436.497-.654-2.642-2.006z" transform="translate(0 .859)"/>
            <path fill="#FFE2B7" d="M335.204 97.972c-.274.361-.162.91.252 1.224l1.891 1.438.134-.959-2.277-1.703zM280.46 65.366l-13.88.115c-.628.005-1.14-.51-1.142-1.15l-.077-19.773c-.002-.64.505-1.162 1.132-1.168l13.881-.114c.628-.005 1.14.51 1.141 1.15l.077 19.773c.002.64-.505 1.162-1.132 1.167" transform="translate(0 .859)"/>
            <path fill="#FCBA3F" d="M279.245 65.377l-13.88.114c-.628.005-1.139-.51-1.14-1.15l-.079-19.773c-.002-.64.505-1.162 1.133-1.167l13.88-.114c.628-.006 1.14.509 1.141 1.149l.077 19.773c.003.64-.504 1.162-1.132 1.168" transform="translate(0 .859)"/>
            <path fill="#FFE2B7" d="M265.545 48.208c-.475.004-.861-.385-.862-.868l-.01-2.192c-.001-.484.382-.878.857-.882.474-.004.86.384.862.868l.008 2.192c.002.484-.38.878-.855.882" transform="translate(0 .859)"/>
            <path fill="#A29C8F" d="M266.068 45.245c0 .3-.237.547-.532.549-.296.002-.536-.24-.537-.54-.001-.302.237-.547.532-.55.296-.002.536.239.537.54M266.073 46.453c0 .3-.237.547-.533.549-.295.003-.535-.24-.536-.54-.001-.301.237-.547.532-.55.295-.002.536.24.537.54M280.72 47.894l-.01-2.759c.276-.002.501.225.502.506l.007 1.738c.001.283-.223.512-.499.515M280.733 51.286l-.01-2.76c.276-.001.501.226.502.507l.007 1.739c.001.282-.223.512-.499.514" transform="translate(0 .859)"/>
            <path fill="#FFE2B7" d="M270.192 48.866c.003.973.642 1.757 1.426 1.75.783-.006 1.416-.8 1.412-1.773-.004-.974-.642-1.757-1.426-1.751-.784.006-1.416.8-1.412 1.774" transform="translate(0 .859)"/>
            <path fill="#A29C8F" d="M271.947 48.048c.002.606.487 1.096 1.083 1.09.595-.005 1.076-.5 1.074-1.107-.003-.608-.488-1.096-1.083-1.09-.595.003-1.076.5-1.074 1.107" transform="translate(0 .859)"/>
            <path fill="#FFE2B7" d="M265.821 57.073s-.592-1.42-1.012-1.665c-.32-.188-1.488-.052-1.488-.052s-.553 2.446-.606 3.324c-.037.61.086 1.14.677 1.426.393.19.864.032 1.062-.355l1.367-2.678z" transform="translate(0 .859)"/>
            <path fill="#FFE2B7" d="M267.177 55.257c.246.37.144.869-.226 1.114l-1.692 1.121-.444-.67 2.362-1.566z" transform="translate(0 .859)"/>
            <path fill="#FFE2B7" d="M266.879 54.215c.279.345.185.884-.21 1.203l-1.81 1.462-.504-.625 2.524-2.04z" transform="translate(0 .859)"/>
            <path fill="#FFE2B7" d="M266.563 53.569c.279.346.185.885-.211 1.205l-1.808 1.461-.505-.625 2.524-2.041z" transform="translate(0 .859)"/>
            <path fill="#FFE2B7" d="M265.311 53.47c.312.315.27.861-.093 1.218l-1.659 1.63-.227-.94 1.979-1.909z" transform="translate(0 .859)"/>
            <path fill="#FFE2B7" d="M262.872 54.722c.438.073.724.54.64 1.041l-.387 2.293-.351.207.098-3.54z" transform="translate(0 .859)"/>
            <path fill="#FAAA36" d="M282.73 237.91c0 .74.758 1.449 2.127 2.1.464.222.991.436 1.591.643.255.088.521.174.8.259 1.211.37 2.645.712 4.258 1.02 1.865.36 3.973.673 6.28.933.52.059 1.051.113 1.59.166.265.025.53.052.8.076 1.366.125 2.788.232 4.26.319 2.011.119 4.111.2 6.278.24.526.01 1.057.018 1.591.023.264.003.532.003.8.004.235 0 .47.004.708.004 1.201 0 2.384-.014 3.55-.037 2.17-.046 4.27-.132 6.28-.256.536-.033 1.066-.068 1.59-.107.267-.02.536-.038.8-.06 1.483-.117 2.904-.256 4.258-.413 2.316-.268 4.427-.593 6.28-.962.554-.11 1.084-.224 1.591-.343.273-.064.54-.13.798-.194 1.803-.46 3.246-.971 4.26-1.52 1.085-.586 1.683-1.216 1.683-1.872l-.004 5.005h-.003c-.019.644-.612 1.262-1.676 1.84-1.013.549-2.456 1.06-4.26 1.52-.259.066-.525.132-.798.195-.508.119-1.036.233-1.59.345-1.854.369-3.965.692-6.28.96-1.355.158-2.776.298-4.26.415l-.799.059c-.524.038-1.054.075-1.59.108-2.01.123-4.11.21-6.28.255-1.167.024-2.352.038-3.554.038-.237 0-.47-.003-.705-.004-.267-.001-.535-.001-.799-.004-.534-.005-1.065-.012-1.59-.023-2.168-.04-4.268-.122-6.28-.241-1.47-.087-2.893-.193-4.26-.318l-.799-.076c-.539-.053-1.07-.108-1.59-.166-2.308-.26-4.414-.574-6.28-.932-1.614-.31-3.047-.651-4.259-1.021-.279-.085-.544-.172-.799-.26-.599-.206-1.128-.42-1.59-.641-1.352-.642-2.108-1.341-2.128-2.071h-.004l.004-5.006z" transform="translate(0 .859)"/>
            <path fill="#FAAA36" d="M282.728 237.28c-.002 3.189 13.914 5.78 31.084 5.786 17.167.007 31.087-2.574 31.09-5.764.002-3.19-13.913-5.78-31.082-5.787-17.17-.006-31.09 2.576-31.091 5.765" transform="translate(0 .859)"/>
            <path fill="#FAAA36" d="M313.818 233.73c-14.487-.007-26.359 1.704-27.496 3.883-.059-.113-.098-.228-.098-.344.002-2.339 12.356-4.23 27.594-4.226 15.238.006 27.59 1.908 27.587 4.247 0 .115-.038.228-.097.341-1.137-2.178-13.005-3.897-27.49-3.902" transform="translate(0 .859)"/>
            <path fill="#FCBA3F" d="M313.812 241.515c-14.485-.005-26.353-1.724-27.49-3.902 1.137-2.179 13.009-3.89 27.496-3.884 14.485.005 26.353 1.724 27.49 3.902-1.137 2.18-13.009 3.89-27.496 3.884" transform="translate(0 .859)"/>
            <path fill="#FAAA36" d="M344.904 237.314l-.004 5.005h-.004c-.018.643-.612 1.262-1.676 1.84v-4.973c1.086-.587 1.684-1.217 1.684-1.872M313.104 248.05c-.267-.002-.534-.002-.8-.005v-4.974l.8.002v4.976zM326.032 247.593c-.264.021-.53.04-.799.06v-4.976c.267-.02.536-.038.8-.06v4.976zM338.96 245.68c-.259.064-.525.13-.798.193V240.9c.273-.065.54-.129.798-.195v4.974zM282.73 237.29c0 .742.758 1.45 2.127 2.102v4.976c-1.35-.642-2.107-1.341-2.127-2.071h-.004l.004-5.006zM287.247 245.268c-.278-.085-.543-.172-.799-.26v-4.974c.255.088.521.173.799.258v4.976zM299.377 242.412c.265.025.529.052.798.076 1.367.125 2.789.232 4.26.319 2.012.119 4.113.2 6.279.24v4.976c-2.166-.04-4.267-.122-6.28-.241-1.47-.087-2.892-.193-4.26-.318l-.797-.076c-.54-.053-1.071-.108-1.591-.166-2.307-.26-4.414-.574-6.28-.932v-4.976c1.866.359 3.973.672 6.28.932.52.059 1.052.113 1.59.166" transform="translate(0 .859)"/>
            <path fill="#FCBA3F" d="M336.571 241.243c.554-.11 1.084-.225 1.591-.343v4.974c-.508.118-1.036.233-1.59.345-1.854.369-3.965.692-6.28.96-1.355.158-2.776.296-4.26.415v-4.976c1.484-.117 2.905-.256 4.26-.413 2.315-.27 4.426-.593 6.28-.962M343.22 244.158c-1.013.55-2.456 1.062-4.26 1.52v-4.972c1.803-.46 3.246-.971 4.26-1.52v4.972zM317.363 243.04c2.17-.045 4.27-.132 6.28-.255.536-.033 1.067-.07 1.59-.107v4.975c-.523.038-1.054.075-1.59.108-2.01.123-4.11.21-6.28.255-1.167.024-2.352.038-3.554.038-.237 0-.47-.003-.705-.004v-4.976c.236 0 .471.004.71.004 1.2 0 2.383-.014 3.55-.037M312.305 248.046c-.534-.005-1.064-.013-1.59-.022v-4.976c.526.01 1.056.018 1.59.022v4.976zM291.506 246.29c-1.614-.31-3.047-.651-4.259-1.021v-4.976c1.212.37 2.646.712 4.26 1.02v4.977zM286.448 240.034v4.975c-.599-.206-1.128-.421-1.59-.641v-4.977c.463.22.99.436 1.59.643" transform="translate(0 .859)"/>
            <path fill="#FAAA36" d="M293.458 229.17c0 .742.758 1.45 2.127 2.102.463.22.991.435 1.591.642.255.087.52.174.8.259 1.211.37 2.645.712 4.258 1.02 1.865.36 3.973.673 6.28.932.52.059 1.051.113 1.59.167.265.025.53.052.8.076 1.366.124 2.788.232 4.258.319 2.013.118 4.113.2 6.28.24.526.01 1.057.018 1.591.023l.8.004c.235 0 .47.003.708.004 1.201 0 2.384-.014 3.55-.038 2.17-.045 4.27-.132 6.28-.255.536-.033 1.066-.07 1.59-.107.267-.02.535-.038.8-.06 1.482-.117 2.904-.256 4.258-.413 2.316-.268 4.427-.593 6.28-.962.554-.11 1.084-.224 1.591-.344.273-.063.54-.128.798-.193 1.803-.46 3.246-.971 4.26-1.52 1.085-.586 1.683-1.216 1.683-1.873l-.004 5.006h-.003c-.019.644-.612 1.262-1.677 1.839-1.012.55-2.455 1.06-4.259 1.522-.259.065-.525.13-.798.194-.508.118-1.036.233-1.59.344-1.854.37-3.965.693-6.28.962-1.355.157-2.777.296-4.26.414l-.799.059c-.524.038-1.054.075-1.59.107-2.01.124-4.11.21-6.28.256-1.167.024-2.352.038-3.554.038-.237 0-.47-.003-.705-.004l-.799-.004c-.534-.005-1.065-.013-1.59-.023-2.168-.04-4.268-.123-6.28-.241-1.47-.087-2.893-.194-4.26-.318l-.799-.076c-.539-.053-1.07-.108-1.59-.166-2.308-.26-4.415-.574-6.28-.932-1.614-.31-3.047-.651-4.259-1.021-.279-.085-.544-.172-.799-.26-.599-.206-1.128-.421-1.59-.641-1.352-.643-2.108-1.341-2.128-2.071h-.004l.004-5.006z" transform="translate(0 .859)"/>
            <path fill="#FAAA36" d="M293.457 228.54c-.002 3.19 13.913 5.78 31.082 5.787 17.168.006 31.089-2.574 31.09-5.764.003-3.19-13.913-5.78-31.082-5.787-17.169-.006-31.089 2.575-31.09 5.764" transform="translate(0 .859)"/>
            <path fill="#FAAA36" d="M324.546 224.99c-14.487-.006-26.359 1.704-27.496 3.883-.059-.113-.098-.227-.098-.343.002-2.34 12.356-4.23 27.594-4.226 15.238.006 27.59 1.907 27.587 4.247 0 .115-.039.228-.097.34-1.137-2.178-13.005-3.896-27.49-3.901" transform="translate(0 .859)"/>
            <path fill="#FCBA3F" d="M324.54 232.776c-14.485-.006-26.353-1.724-27.49-3.903 1.137-2.179 13.009-3.889 27.496-3.883 14.485.005 26.353 1.723 27.49 3.902-1.137 2.179-13.009 3.889-27.496 3.884" transform="translate(0 .859)"/>
            <path fill="#FAAA36" d="M355.632 228.574l-.004 5.006h-.004c-.018.643-.612 1.262-1.676 1.839v-4.972c1.085-.587 1.684-1.217 1.684-1.873M323.832 239.31c-.267 0-.534-.002-.799-.004v-4.975l.799.003v4.976zM336.76 238.854c-.264.021-.53.04-.799.06v-4.976c.267-.02.535-.039.8-.06v4.976zM349.688 236.94c-.259.065-.525.13-.798.194v-4.974c.273-.064.54-.128.798-.195v4.974zM293.458 228.551c0 .741.758 1.45 2.127 2.101v4.976c-1.35-.643-2.107-1.34-2.127-2.072h-.004l.004-5.005zM297.975 236.529c-.278-.085-.543-.172-.799-.26v-4.975c.255.088.521.174.799.259v4.976zM310.105 233.672l.798.077c1.367.124 2.789.232 4.26.317 2.012.12 4.113.202 6.279.243v4.975c-2.166-.04-4.267-.123-6.28-.242-1.47-.087-2.892-.194-4.26-.317-.267-.025-.533-.052-.797-.076-.54-.054-1.071-.108-1.591-.167-2.307-.26-4.414-.573-6.28-.931v-4.976c1.866.359 3.973.672 6.28.93.52.06 1.052.114 1.59.167" transform="translate(0 .859)"/>
            <path fill="#FCBA3F" d="M347.3 232.504c.553-.11 1.083-.225 1.59-.344v4.975c-.508.118-1.036.233-1.59.344-1.854.369-3.965.693-6.28.962-1.355.157-2.777.295-4.26.414v-4.976c1.483-.117 2.905-.256 4.26-.413 2.315-.27 4.426-.593 6.28-.962M353.948 235.419c-1.012.55-2.456 1.06-4.26 1.52v-4.973c1.803-.46 3.247-.97 4.26-1.52v4.973zM328.091 234.3c2.17-.045 4.27-.132 6.28-.255.536-.033 1.067-.069 1.59-.107v4.975c-.523.038-1.054.074-1.59.107-2.01.124-4.11.211-6.28.256-1.167.024-2.352.038-3.554.038-.237 0-.47-.003-.705-.004v-4.976c.236.001.471.003.71.003 1.2.001 2.383-.013 3.55-.037M323.033 239.306c-.534-.005-1.064-.013-1.59-.022v-4.976c.526.01 1.056.018 1.59.022v4.976zM302.234 237.55c-1.614-.31-3.047-.65-4.259-1.02v-4.977c1.212.37 2.646.712 4.26 1.021v4.976zM297.176 231.294v4.976c-.599-.207-1.128-.421-1.59-.641v-4.977c.463.22.99.436 1.59.642" transform="translate(0 .859)"/>
            <path fill="#FAAA36" d="M282.73 220.431c0 .741.758 1.45 2.127 2.101.464.22.991.435 1.591.641.255.088.521.175.8.26 1.211.37 2.645.712 4.258 1.021 1.865.358 3.973.672 6.28.931.52.06 1.051.113 1.59.166.265.026.53.052.8.076 1.366.125 2.788.232 4.26.32 2.011.118 4.111.2 6.278.241.526.01 1.057.017 1.591.022l.8.004c.235.001.47.003.708.003 1.201.001 2.384-.013 3.55-.037 2.17-.045 4.27-.132 6.28-.255.536-.033 1.066-.069 1.59-.107.267-.02.536-.039.8-.06 1.483-.117 2.904-.257 4.258-.413 2.316-.269 4.427-.593 6.28-.962.554-.11 1.084-.225 1.591-.344.273-.063.54-.128.798-.194 1.803-.459 3.246-.97 4.26-1.518 1.085-.587 1.683-1.217 1.683-1.874l-.004 5.005h-.003c-.019.645-.612 1.263-1.676 1.84-1.013.55-2.456 1.061-4.26 1.521-.259.066-.525.131-.798.195-.508.118-1.036.233-1.59.344-1.854.37-3.965.693-6.28.962-1.355.157-2.776.296-4.26.413-.264.021-.53.041-.799.06-.524.038-1.054.074-1.59.107-2.01.124-4.11.211-6.28.256-1.167.024-2.352.038-3.554.037-.237 0-.47-.002-.705-.003l-.799-.004c-.534-.005-1.065-.013-1.59-.023-2.168-.04-4.268-.123-6.28-.24-1.47-.088-2.893-.195-4.26-.319l-.799-.076c-.539-.053-1.07-.108-1.59-.166-2.308-.26-4.414-.574-6.28-.932-1.614-.31-3.047-.65-4.259-1.02-.279-.087-.544-.173-.799-.26-.599-.208-1.128-.422-1.59-.643-1.352-.642-2.108-1.34-2.128-2.07h-.004l.004-5.006z" transform="translate(0 .859)"/>
            <path fill="#FAAA36" d="M282.728 219.8c-.002 3.19 13.914 5.78 31.084 5.787 17.167.006 31.087-2.575 31.09-5.765.002-3.189-13.913-5.78-31.082-5.786-17.17-.006-31.09 2.575-31.091 5.764" transform="translate(0 .859)"/>
            <path fill="#FAAA36" d="M313.818 216.25c-14.487-.005-26.359 1.705-27.496 3.884-.059-.113-.098-.228-.098-.343.002-2.34 12.356-4.231 27.594-4.226 15.238.006 27.59 1.907 27.587 4.246 0 .116-.038.229-.097.342-1.137-2.18-13.005-3.897-27.49-3.903" transform="translate(0 .859)"/>
            <path fill="#FCBA3F" d="M313.812 224.036c-14.485-.005-26.353-1.723-27.49-3.902 1.137-2.18 13.009-3.89 27.496-3.884 14.485.006 26.353 1.724 27.49 3.903-1.137 2.179-13.009 3.889-27.496 3.883" transform="translate(0 .859)"/>
            <path fill="#FAAA36" d="M344.904 219.835l-.004 5.005h-.004c-.018.644-.612 1.263-1.676 1.84v-4.972c1.086-.587 1.684-1.217 1.684-1.873M313.104 230.571c-.267-.002-.534-.002-.8-.005v-4.975l.8.004v4.976zM326.032 230.114l-.799.06v-4.975l.8-.06v4.975zM338.96 228.2c-.259.066-.525.13-.798.195v-4.974c.273-.064.54-.128.798-.195v4.974zM282.73 219.812c0 .741.758 1.45 2.127 2.101v4.975c-1.35-.642-2.107-1.34-2.127-2.07h-.004l.004-5.006zM287.247 227.789c-.278-.085-.543-.171-.799-.26v-4.974c.255.088.521.174.799.258v4.976zM299.377 224.932c.265.026.529.052.798.076 1.367.125 2.789.232 4.26.32 2.012.118 4.113.2 6.279.241v4.975c-2.166-.04-4.267-.123-6.28-.242-1.47-.087-2.892-.193-4.26-.318l-.797-.075c-.54-.053-1.071-.109-1.591-.166-2.307-.26-4.414-.575-6.28-.932v-4.976c1.866.358 3.973.672 6.28.931.52.06 1.052.113 1.59.166" transform="translate(0 .859)"/>
            <path fill="#FCBA3F" d="M336.571 223.764c.554-.11 1.084-.226 1.591-.344v4.975c-.508.118-1.036.233-1.59.344-1.854.37-3.965.693-6.28.962-1.355.157-2.776.295-4.26.413v-4.975c1.484-.117 2.905-.257 4.26-.413 2.315-.27 4.426-.593 6.28-.962M343.22 226.68c-1.013.548-2.456 1.06-4.26 1.52v-4.974c1.803-.459 3.246-.97 4.26-1.519v4.972zM317.363 225.561c2.17-.045 4.27-.132 6.28-.256.536-.033 1.067-.068 1.59-.106v4.974c-.523.04-1.054.075-1.59.108-2.01.124-4.11.211-6.28.256-1.167.024-2.352.038-3.554.037-.237 0-.47-.002-.705-.003v-4.976c.236.001.471.003.71.003 1.2.001 2.383-.013 3.55-.037M312.305 230.566c-.534-.005-1.064-.012-1.59-.02v-4.977c.526.01 1.056.017 1.59.021v4.976zM291.506 228.811c-1.614-.31-3.047-.652-4.259-1.022v-4.976c1.212.37 2.646.713 4.26 1.022v4.976zM286.448 222.554v4.976c-.599-.207-1.128-.42-1.59-.642v-4.976c.463.221.99.436 1.59.642" transform="translate(0 .859)"/>
            <path fill="#FAAA36" d="M282.73 211.692c0 .741.758 1.449 2.127 2.101.464.22.991.435 1.591.641.255.088.521.174.8.259 1.211.37 2.645.713 4.258 1.022 1.865.358 3.973.672 6.28.931.52.059 1.051.113 1.59.166.265.026.53.052.8.076 1.366.125 2.788.232 4.26.319 2.011.119 4.111.201 6.278.242.526.01 1.057.016 1.591.021.264.003.532.003.8.004.235.002.47.004.708.004 1.201.001 2.384-.013 3.55-.037 2.17-.045 4.27-.132 6.28-.256.536-.033 1.066-.068 1.59-.106.267-.02.536-.039.8-.06 1.483-.118 2.904-.257 4.258-.414 2.316-.268 4.427-.592 6.28-.961.554-.11 1.084-.225 1.591-.344.273-.063.54-.128.798-.194 1.803-.459 3.246-.971 4.26-1.518 1.085-.588 1.683-1.217 1.683-1.874l-.004 5.005h-.003c-.019.645-.612 1.263-1.676 1.84-1.013.549-2.456 1.061-4.26 1.521-.259.066-.525.131-.798.195-.508.118-1.036.233-1.59.344-1.854.369-3.965.692-6.28.962-1.355.157-2.776.296-4.26.413-.264.021-.53.04-.799.059-.524.039-1.054.075-1.59.108-2.01.124-4.11.211-6.28.256-1.167.024-2.352.038-3.554.037-.237 0-.47-.002-.705-.004-.267-.001-.535-.001-.799-.004-.534-.005-1.065-.012-1.59-.022-2.168-.041-4.268-.123-6.28-.242-1.47-.087-2.893-.193-4.26-.318l-.799-.075c-.539-.054-1.07-.109-1.59-.166-2.308-.26-4.414-.575-6.28-.932-1.614-.31-3.047-.652-4.259-1.022-.279-.085-.544-.172-.799-.26-.599-.206-1.128-.42-1.59-.641-1.352-.642-2.108-1.341-2.128-2.071h-.004l.004-5.005z" transform="translate(0 .859)"/>
            <path fill="#FAAA36" d="M282.728 211.061c-.002 3.19 13.914 5.78 31.084 5.786 17.167.007 31.087-2.574 31.09-5.764.002-3.189-13.913-5.78-31.082-5.786-17.17-.007-31.09 2.575-31.091 5.764" transform="translate(0 .859)"/>
            <path fill="#FAAA36" d="M313.818 207.51c-14.487-.005-26.359 1.705-27.496 3.884-.059-.113-.098-.228-.098-.343.002-2.34 12.356-4.23 27.594-4.226 15.238.005 27.59 1.907 27.587 4.246 0 .115-.038.23-.097.341-1.137-2.178-13.005-3.896-27.49-3.902" transform="translate(0 .859)"/>
            <path fill="#FCBA3F" d="M313.812 215.297c-14.485-.005-26.353-1.725-27.49-3.903 1.137-2.179 13.009-3.888 27.496-3.884 14.485.007 26.353 1.725 27.49 3.903-1.137 2.178-13.009 3.888-27.496 3.884" transform="translate(0 .859)"/>
            <path fill="#FAAA36" d="M344.904 211.095l-.004 5.005h-.004c-.018.643-.612 1.262-1.676 1.84v-4.972c1.086-.588 1.684-1.217 1.684-1.873M313.104 221.83c-.267 0-.534 0-.8-.003v-4.975c.266.002.533.002.8.003v4.976zM326.032 221.375l-.799.06v-4.976c.267-.02.536-.038.8-.06v4.976zM338.96 219.46c-.259.066-.525.132-.798.195v-4.973c.273-.064.54-.13.798-.195v4.974zM282.73 211.073c0 .74.758 1.449 2.127 2.1v4.976c-1.35-.642-2.107-1.341-2.127-2.071h-.004l.004-5.005zM287.247 219.05c-.278-.086-.543-.173-.799-.26v-4.975c.255.089.521.173.799.258v4.976zM299.377 216.193c.265.026.529.052.798.076 1.367.125 2.789.232 4.26.319 2.012.119 4.113.201 6.279.241v4.976c-2.166-.041-4.267-.123-6.28-.242-1.47-.087-2.892-.193-4.26-.318l-.797-.076c-.54-.053-1.071-.108-1.591-.166-2.307-.259-4.414-.574-6.28-.931v-4.976c1.866.358 3.973.671 6.28.931.52.059 1.052.113 1.59.166" transform="translate(0 .859)"/>
            <path fill="#FCBA3F" d="M336.571 215.025c.554-.11 1.084-.226 1.591-.344v4.974c-.508.12-1.036.233-1.59.345-1.854.37-3.965.692-6.28.962-1.355.156-2.776.295-4.26.413V216.4c1.484-.118 2.905-.257 4.26-.414 2.315-.269 4.426-.592 6.28-.96M343.22 217.94c-1.013.55-2.456 1.061-4.26 1.521v-4.974c1.803-.46 3.246-.97 4.26-1.519v4.972zM317.363 216.822c2.17-.045 4.27-.132 6.28-.256.536-.033 1.067-.068 1.59-.107v4.975c-.523.038-1.054.075-1.59.108-2.01.124-4.11.21-6.28.256-1.167.024-2.352.037-3.554.037-.237 0-.47-.003-.705-.004v-4.976c.236 0 .471.004.71.004 1.2 0 2.383-.013 3.55-.037M312.305 221.827c-.534-.005-1.064-.012-1.59-.021v-4.977c.526.01 1.056.018 1.59.022v4.976zM291.506 220.072c-1.614-.31-3.047-.652-4.259-1.022v-4.976c1.212.37 2.646.712 4.26 1.022v4.976zM286.448 213.815v4.975c-.599-.206-1.128-.42-1.59-.64v-4.977c.463.221.99.435 1.59.642" transform="translate(0 .859)"/>
            <path fill="#FAAA36" d="M275.39 202.952c0 .74.76 1.449 2.127 2.102.464.22.991.434 1.591.64.255.089.521.175.8.26 1.211.37 2.645.712 4.258 1.02 1.865.36 3.973.673 6.28.933.52.059 1.051.113 1.59.166.265.025.53.052.8.076 1.366.125 2.788.232 4.26.319 2.011.119 4.111.2 6.278.24.527.01 1.057.018 1.591.023.265.003.532.003.8.004.235 0 .47.004.708.004 1.201 0 2.384-.014 3.55-.037 2.17-.045 4.27-.132 6.28-.256.537-.033 1.066-.068 1.59-.107.268-.02.536-.038.8-.06 1.483-.117 2.904-.256 4.26-.413 2.314-.268 4.425-.593 6.278-.962.555-.11 1.084-.224 1.591-.343.273-.063.54-.13.798-.194 1.803-.46 3.246-.971 4.26-1.52 1.085-.586 1.683-1.216 1.683-1.872l-.003 5.005h-.004c-.018.644-.612 1.262-1.676 1.84-1.012.549-2.456 1.06-4.26 1.52-.258.066-.525.132-.798.195-.507.119-1.036.233-1.59.345-1.854.369-3.965.692-6.28.96-1.355.158-2.776.298-4.26.415l-.799.059c-.524.038-1.053.075-1.59.108-2.01.123-4.11.21-6.28.256-1.167.023-2.35.037-3.554.037-.237 0-.47-.003-.705-.004-.267-.001-.534-.001-.799-.004-.534-.005-1.064-.012-1.59-.023-2.168-.04-4.268-.122-6.28-.241-1.47-.087-2.893-.193-4.26-.318l-.799-.076c-.539-.053-1.07-.108-1.59-.166-2.308-.26-4.414-.574-6.28-.932-1.613-.31-3.047-.651-4.259-1.021-.279-.085-.544-.172-.799-.26-.599-.206-1.128-.42-1.59-.641-1.35-.642-2.108-1.341-2.128-2.071h-.003l.003-5.006z" transform="translate(0 .859)"/>
            <path fill="#FAAA36" d="M275.388 202.322c-.002 3.189 13.914 5.78 31.083 5.786 17.168.007 31.088-2.574 31.09-5.764.003-3.19-13.913-5.78-31.082-5.787-17.169-.006-31.089 2.576-31.09 5.765" transform="translate(0 .859)"/>
            <path fill="#FAAA36" d="M306.478 198.771c-14.487-.006-26.359 1.705-27.496 3.884-.059-.113-.097-.228-.097-.344.001-2.339 12.355-4.23 27.593-4.226 15.238.006 27.589 1.908 27.587 4.247 0 .115-.038.23-.097.341-1.137-2.178-13.005-3.897-27.49-3.902" transform="translate(0 .859)"/>
            <path fill="#FCBA3F" d="M306.472 206.557c-14.485-.005-26.354-1.724-27.49-3.902 1.137-2.179 13.01-3.89 27.496-3.884 14.485.005 26.353 1.724 27.49 3.902-1.137 2.18-13.009 3.89-27.496 3.884" transform="translate(0 .859)"/>
            <path fill="#FAAA36" d="M337.563 202.356l-.003 5.005h-.005c-.017.643-.61 1.262-1.676 1.84v-4.973c1.086-.587 1.684-1.217 1.684-1.872M305.764 213.091c-.267 0-.534 0-.8-.004v-4.974l.8.002v4.976zM318.692 212.635c-.263.021-.531.04-.798.06v-4.976c.267-.02.535-.038.798-.06v4.976zM331.62 210.721c-.259.065-.524.131-.798.194v-4.973c.272-.065.54-.129.798-.195v4.974zM275.39 202.333c0 .74.76 1.449 2.127 2.1v4.977c-1.35-.642-2.107-1.341-2.127-2.071h-.003l.003-5.006zM279.907 210.31c-.278-.085-.543-.172-.798-.26v-4.974c.254.088.52.173.798.258v4.976zM292.037 207.454c.265.025.53.052.799.076 1.367.125 2.789.232 4.259.319 2.013.119 4.113.2 6.279.24v4.976c-2.166-.04-4.266-.122-6.28-.241-1.47-.087-2.891-.193-4.258-.318l-.8-.076c-.538-.053-1.07-.108-1.59-.166-2.307-.26-4.414-.574-6.28-.932v-4.976c1.866.359 3.973.672 6.28.932.52.059 1.052.113 1.59.166" transform="translate(0 .859)"/>
            <path fill="#FCBA3F" d="M329.23 206.285c.556-.11 1.085-.225 1.592-.343v4.974c-.507.118-1.036.233-1.591.345-1.853.369-3.964.692-6.28.96-1.354.158-2.775.297-4.26.415v-4.976c1.485-.117 2.906-.256 4.26-.413 2.317-.27 4.427-.593 6.28-.962M335.88 209.2c-1.012.55-2.456 1.062-4.26 1.52v-4.972c1.803-.46 3.246-.971 4.26-1.52v4.972zM310.023 208.083c2.169-.046 4.27-.133 6.28-.256.537-.033 1.067-.07 1.59-.107v4.975c-.523.038-1.053.075-1.59.108-2.01.123-4.111.21-6.28.255-1.167.024-2.351.038-3.554.038-.237 0-.47-.003-.705-.004v-4.976c.236 0 .47.004.709.004 1.2 0 2.384-.014 3.55-.037M304.965 213.088c-.534-.005-1.064-.013-1.591-.022v-4.976c.527.01 1.057.018 1.59.022v4.976zM284.166 211.332c-1.613-.31-3.047-.651-4.259-1.021v-4.976c1.212.37 2.646.712 4.259 1.02v4.977zM279.108 205.076v4.975c-.599-.206-1.128-.421-1.59-.641v-4.977c.463.22.99.436 1.59.643" transform="translate(0 .859)"/>
            <path fill="#FAAA36" d="M282.73 194.213c0 .74.758 1.449 2.127 2.1.464.22.991.436 1.591.643.255.087.521.174.8.259 1.211.37 2.645.712 4.258 1.02 1.865.36 3.973.673 6.28.932.52.059 1.051.113 1.59.167.265.025.53.052.8.076 1.366.124 2.788.232 4.26.319 2.011.118 4.111.2 6.278.24.526.01 1.057.018 1.591.023l.8.004c.235 0 .47.003.708.004 1.201 0 2.384-.014 3.55-.038 2.17-.045 4.27-.132 6.28-.255.536-.033 1.066-.07 1.59-.107.267-.02.536-.038.8-.06 1.483-.117 2.904-.256 4.258-.413 2.316-.268 4.427-.593 6.28-.962.554-.11 1.084-.224 1.591-.343.273-.064.54-.13.798-.194 1.803-.46 3.246-.971 4.26-1.52 1.085-.586 1.683-1.216 1.683-1.873l-.004 5.006h-.003c-.019.644-.612 1.262-1.676 1.839-1.013.55-2.456 1.06-4.26 1.522-.259.065-.525.13-.798.194-.508.118-1.036.233-1.59.344-1.854.37-3.965.693-6.28.962-1.355.157-2.776.296-4.26.414l-.799.059c-.524.038-1.054.075-1.59.108-2.01.123-4.11.21-6.28.255-1.167.024-2.352.038-3.554.038-.237 0-.47-.003-.705-.004l-.799-.004c-.534-.005-1.065-.013-1.59-.023-2.168-.04-4.268-.123-6.28-.241-1.47-.087-2.893-.194-4.26-.318l-.799-.076c-.539-.053-1.07-.108-1.59-.166-2.308-.26-4.414-.574-6.28-.932-1.614-.31-3.047-.651-4.259-1.021-.279-.085-.544-.172-.799-.26-.599-.206-1.128-.421-1.59-.641-1.352-.643-2.108-1.341-2.128-2.071h-.004l.004-5.006z" transform="translate(0 .859)"/>
            <path fill="#FAAA36" d="M282.728 193.582c-.002 3.19 13.914 5.78 31.084 5.787 17.167.006 31.087-2.574 31.09-5.764.002-3.19-13.913-5.78-31.082-5.787-17.17-.006-31.09 2.575-31.091 5.764" transform="translate(0 .859)"/>
            <path fill="#FAAA36" d="M313.818 190.032c-14.487-.006-26.359 1.704-27.496 3.883-.059-.113-.098-.227-.098-.343.002-2.34 12.356-4.23 27.594-4.226 15.238.006 27.59 1.907 27.587 4.247 0 .115-.038.228-.097.34-1.137-2.178-13.005-3.896-27.49-3.901" transform="translate(0 .859)"/>
            <path fill="#FCBA3F" d="M313.812 197.818c-14.485-.006-26.353-1.724-27.49-3.903 1.137-2.179 13.009-3.889 27.496-3.883 14.485.005 26.353 1.723 27.49 3.902-1.137 2.179-13.009 3.889-27.496 3.884" transform="translate(0 .859)"/>
            <path fill="#FAAA36" d="M344.904 193.616l-.004 5.006h-.004c-.018.643-.612 1.262-1.676 1.839v-4.972c1.086-.587 1.684-1.217 1.684-1.873M313.104 204.352c-.267 0-.534-.002-.8-.004v-4.975l.8.003v4.976zM326.032 203.896c-.264.021-.53.04-.799.06v-4.976c.267-.02.536-.038.8-.06v4.976zM338.96 201.981c-.259.066-.525.131-.798.195v-4.974c.273-.064.54-.128.798-.195v4.974zM282.73 193.593c0 .741.758 1.45 2.127 2.101v4.976c-1.35-.643-2.107-1.34-2.127-2.072h-.004l.004-5.005zM287.247 201.571c-.278-.085-.543-.172-.799-.26v-4.975c.255.088.521.174.799.259v4.976zM299.377 198.714l.798.077c1.367.124 2.789.232 4.26.319 2.012.117 4.113.2 6.279.24v4.976c-2.166-.04-4.267-.124-6.28-.242-1.47-.087-2.892-.194-4.26-.317l-.797-.077c-.54-.053-1.071-.107-1.591-.166-2.307-.26-4.414-.573-6.28-.931v-4.976c1.866.359 3.973.672 6.28.93.52.06 1.052.114 1.59.167" transform="translate(0 .859)"/>
            <path fill="#FCBA3F" d="M336.571 197.546c.554-.11 1.084-.225 1.591-.344v4.975c-.508.118-1.036.233-1.59.344-1.854.37-3.965.693-6.28.962-1.355.157-2.776.295-4.26.414v-4.976c1.484-.117 2.905-.256 4.26-.413 2.315-.27 4.426-.593 6.28-.962M343.22 200.46c-1.013.55-2.456 1.062-4.26 1.522v-4.974c1.803-.46 3.246-.97 4.26-1.52v4.973zM317.363 199.342c2.17-.045 4.27-.132 6.28-.255.536-.033 1.067-.069 1.59-.107v4.975c-.523.038-1.054.074-1.59.107-2.01.124-4.11.211-6.28.256-1.167.024-2.352.038-3.554.038-.237 0-.47-.003-.705-.004v-4.976c.236.001.471.003.71.003 1.2.001 2.383-.013 3.55-.037M312.305 204.348c-.534-.005-1.064-.013-1.59-.022v-4.976c.526.01 1.056.018 1.59.022v4.976zM291.506 202.592c-1.614-.31-3.047-.65-4.259-1.02v-4.977c1.212.37 2.646.712 4.26 1.021v4.976zM286.448 196.336v4.976c-.599-.207-1.128-.421-1.59-.641v-4.977c.463.22.99.436 1.59.642" transform="translate(0 .859)"/>
            <path fill="#FAAA36" d="M282.73 185.473c0 .741.758 1.45 2.127 2.101.464.22.991.435 1.591.641.255.088.521.175.8.26 1.211.37 2.645.712 4.258 1.021 1.865.358 3.973.672 6.28.931.52.06 1.051.113 1.59.166.265.026.53.052.8.076 1.366.125 2.788.232 4.26.32 2.011.118 4.111.2 6.278.241.526.01 1.057.017 1.591.022l.8.004c.235.001.47.003.708.003 1.201.001 2.384-.013 3.55-.037 2.17-.045 4.27-.132 6.28-.255.536-.033 1.066-.069 1.59-.107.267-.02.536-.039.8-.06 1.483-.117 2.904-.257 4.258-.413 2.316-.269 4.427-.593 6.28-.962.554-.11 1.084-.225 1.591-.344.273-.063.54-.128.798-.194 1.803-.459 3.246-.97 4.26-1.518 1.085-.587 1.683-1.217 1.683-1.874l-.004 5.005h-.003c-.019.645-.612 1.263-1.676 1.84-1.013.55-2.456 1.061-4.26 1.521-.259.066-.525.131-.798.195-.508.118-1.036.233-1.59.344-1.854.37-3.965.693-6.28.962-1.355.157-2.776.296-4.26.413-.264.021-.53.041-.799.06-.524.038-1.054.074-1.59.107-2.01.124-4.11.211-6.28.256-1.167.024-2.352.038-3.554.037-.237 0-.47-.002-.705-.003-.267 0-.535-.002-.799-.004-.534-.005-1.065-.013-1.59-.023-2.168-.04-4.268-.123-6.28-.24-1.47-.088-2.893-.195-4.26-.319l-.799-.076c-.539-.053-1.07-.108-1.59-.166-2.308-.26-4.414-.574-6.28-.932-1.614-.31-3.047-.65-4.259-1.02-.279-.086-.544-.173-.799-.26-.599-.208-1.128-.422-1.59-.642-1.352-.643-2.108-1.342-2.128-2.072h-.004l.004-5.005z" transform="translate(0 .859)"/>
            <path fill="#FAAA36" d="M282.728 184.842c-.002 3.19 13.914 5.78 31.084 5.787 17.167.006 31.087-2.574 31.09-5.765.002-3.189-13.913-5.78-31.082-5.786-17.17-.006-31.09 2.575-31.091 5.764" transform="translate(0 .859)"/>
            <path fill="#FAAA36" d="M313.818 181.292c-14.487-.005-26.359 1.705-27.496 3.884-.059-.113-.098-.228-.098-.343.002-2.34 12.356-4.231 27.594-4.226 15.238.006 27.59 1.907 27.587 4.246 0 .116-.038.229-.097.342-1.137-2.18-13.005-3.897-27.49-3.903" transform="translate(0 .859)"/>
            <path fill="#FCBA3F" d="M313.812 189.078c-14.485-.005-26.353-1.723-27.49-3.902 1.137-2.18 13.009-3.89 27.496-3.884 14.485.006 26.353 1.724 27.49 3.903-1.137 2.179-13.009 3.889-27.496 3.883" transform="translate(0 .859)"/>
            <path fill="#FAAA36" d="M321.32 183.43c.811 0 1.47-.12 1.47-.267 0-.147-.659-.266-1.47-.266h-14.689c-.81 0-1.469.12-1.469.266 0 .147.658.267 1.47.267h5.875c1.912 0 3.528.223 4.136.533h-10.012c-.81 0-1.469.12-1.469.267 0 .146.658.266 1.47.266h10.011c-.608.31-2.224.533-4.136.533h-5.876c-.19 0-.382.007-.56.02-.359.027-.647.08-.797.145-.15.065-.15.138 0 .204.073.033.182.062.32.087l11.748 2.132c.288.051.664.078 1.04.078s.752-.027 1.04-.078c.573-.104.573-.273 0-.377l-9.245-1.678h2.33c3.548 0 6.513-.458 7.194-1.066h1.62c.81 0 1.468-.12 1.468-.266 0-.148-.658-.267-1.469-.267h-1.619c-.22-.198-.708-.378-1.357-.533h2.976zM344.904 184.877l-.004 5.005h-.004c-.018.644-.612 1.263-1.676 1.84v-4.972c1.086-.587 1.684-1.217 1.684-1.873M313.104 195.613c-.267-.002-.534-.002-.8-.005v-4.975l.8.004v4.976zM326.032 195.156l-.799.06v-4.975l.8-.06v4.975zM338.96 193.242c-.259.066-.525.13-.798.195v-4.974c.273-.064.54-.128.798-.195v4.974zM282.73 184.854c0 .741.758 1.45 2.127 2.101v4.975c-1.35-.642-2.107-1.34-2.127-2.07h-.004l.004-5.006zM287.247 192.832c-.278-.086-.543-.172-.799-.26v-4.975c.255.088.521.174.799.258v4.977zM299.377 189.974c.265.026.529.052.798.076 1.367.125 2.789.232 4.26.32 2.012.118 4.113.2 6.279.241v4.975c-2.166-.04-4.267-.123-6.28-.242-1.47-.086-2.892-.193-4.26-.318l-.797-.075c-.54-.053-1.071-.108-1.591-.166-2.307-.26-4.414-.575-6.28-.932v-4.976c1.866.358 3.973.672 6.28.931.52.06 1.052.113 1.59.166" transform="translate(0 .859)"/>
            <path fill="#FCBA3F" d="M336.571 188.806c.554-.11 1.084-.226 1.591-.344v4.975c-.508.118-1.036.233-1.59.344-1.854.37-3.965.693-6.28.962-1.355.157-2.776.295-4.26.413v-4.975c1.484-.117 2.905-.257 4.26-.413 2.315-.27 4.426-.593 6.28-.962M343.22 191.721c-1.013.55-2.456 1.061-4.26 1.521v-4.974c1.803-.459 3.246-.97 4.26-1.519v4.972zM317.363 190.603c2.17-.045 4.27-.132 6.28-.256.536-.033 1.067-.068 1.59-.106v4.974c-.523.04-1.054.075-1.59.108-2.01.124-4.11.211-6.28.256-1.167.024-2.352.038-3.554.037-.237 0-.47-.002-.705-.003v-4.976c.236.001.471.003.71.003 1.2.001 2.383-.013 3.55-.037M312.305 195.608c-.534-.005-1.064-.012-1.59-.02v-4.977c.526.01 1.056.017 1.59.021v4.976zM291.506 193.853c-1.614-.31-3.047-.652-4.259-1.02v-4.978c1.212.37 2.646.713 4.26 1.022v4.976zM286.448 187.596v4.976c-.599-.207-1.128-.42-1.59-.642v-4.976c.463.221.99.436 1.59.642" transform="translate(0 .859)"/>
            <path fill="#FAAA36" d="M305.593 158.013c-.008 15.225 12.453 27.572 27.83 27.58 15.379.008 27.853-12.328 27.86-27.553.008-15.224-12.452-27.572-27.831-27.58-15.378-.008-27.851 12.328-27.86 27.553" transform="translate(0 .859)"/>
            <path fill="#FAAA36" d="M310.052 158.015c-.007 12.787 10.458 23.158 23.375 23.164 12.916.007 23.39-10.353 23.397-23.14.007-12.788-10.458-23.159-23.374-23.165-12.916-.006-23.392 10.354-23.398 23.141" transform="translate(0 .859)"/>
            <path fill="#FCBA3F" d="M311.366 158.016c-.006 12.067 9.871 21.855 22.061 21.862 12.19.006 22.077-9.772 22.083-21.84.006-12.068-9.87-21.856-22.06-21.863-12.19-.006-22.078 9.773-22.084 21.841" transform="translate(0 .859)"/>
            <path fill="#FAAA36" d="M341.111 147.045c.811 0 1.47-.764 1.47-1.704 0-.941-.659-1.704-1.47-1.704h-14.689c-.81 0-1.469.763-1.469 1.704 0 .94.658 1.704 1.47 1.704h5.875c1.912 0 3.528 1.429 4.136 3.409h-10.012c-.81 0-1.469.764-1.469 1.705 0 .94.658 1.704 1.47 1.704h10.011c-.608 1.98-2.224 3.41-4.136 3.41h-5.876c-.19 0-.382.043-.56.128-.359.174-.647.505-.797.924-.15.416-.15.887 0 1.303.073.21.182.398.32.556l11.748 13.632c.288.334.665.5 1.04.5.376 0 .752-.166 1.041-.497.572-.665.572-1.745 0-2.41l-9.246-10.728h2.33c3.548 0 6.513-2.932 7.194-6.818h1.62c.81 0 1.468-.763 1.468-1.704s-.658-1.705-1.469-1.705h-1.619c-.22-1.267-.708-2.413-1.357-3.41h2.976z" transform="translate(0 .859)"/>
            <path fill="#306B34" d="M223.385 144.261s-17.634 5.925-15.235 26.255c2.4 20.331-1.056 45.103-1.056 45.103h10.053s17.906-24.14 4.712-42.228c-13.195-18.089 1.526-29.13 1.526-29.13" transform="translate(0 .859)"/>
            <path fill="#A4B751" d="M221.988 145.529c-3.208 2.648-12.543 12.273-2.483 28.209 11.952 18.933-7.533 41.818-7.533 41.818l-4.826-.324-.052.388h10.053s17.906-24.141 4.712-42.229c-10.59-14.518-3.202-24.49.129-27.862" transform="translate(0 .859)"/>
            <path fill="#4900BC" d="M222.674 144.868c.435-.396.71-.606.71-.606s-1.585.537-3.736 1.828c1.42-.69 2.522-1.066 3.026-1.222" transform="translate(0 .859)"/>
            <path fill="#619440" d="M204.087 193.135c.942-18.042.214-20.296-6.8-26.254-7.013-5.958-16.897-15.753-16.897-15.753 6.732 13.33 6.597 19.388 7.864 29.194.982 7.607 12.41 22.791 17.487 29.22-1.124-2.607-2.123-7.449-1.654-16.407" transform="translate(0 .859)"/>
        </g>
        <g transform="translate(205 209.859)">
            <mask id="prefix__y" fill="#fff">
                <use xlink:href="#prefix__w"/>
            </mask>
            <path fill="url(#prefix__x)" d="M3.149 3.533S2.209 2.401.741.543c1.14 2.645 2.408 2.99 2.408 2.99" mask="url(#prefix__y)"/>
        </g>
        <g>
            <path fill="#306B34" d="M149.676 183.743c-3.5 14.989 3.943 25.062 3.943 25.062h7.34c-.026-5.166.345-10.121 2.778-15.131.128-.265.282-.51.447-.744-1.035-.485-2.186-.975-3.467-1.467-13.554-5.206-7.54-22.71-11.041-7.72" transform="translate(51 1.859)"/>
            <path fill="#619440" d="M168.704 187.513c-7.45 3.77-5.295 19.927-5.295 19.927l7.001 2.512s-1.257-7.36 3.5-13.104c4.757-5.744 7.899-3.542 7.899-3.542s-5.655-9.564-13.105-5.793M132.98 179.883c-12.509 0-19.505 7.54-19.505 7.54s4.87-2.475 13.581-2.154c8.711.32 8.078 7.72 15.08 14.631 7.001 6.911 12.835 7.898 12.835 7.898s-9.273-13.41-16.067-22.529c-1.195-1.605-.03-5.386-5.924-5.386" transform="translate(51 1.859)"/>
            <path fill="#FAF9FC" d="M111.052 189.999c-.052.133-.063.207-.063.207s.02-.075.063-.207" transform="translate(51 1.859)"/>
            <path fill="#A4B751" d="M143.124 187.962c-2.334-3.141.09-10.86-14.811-9.065-13.608 1.639-16.808 9.714-17.26 11.102.343-.896 2.52-4.544 15.645-7.512 15.079-3.411 7.09 4.399 13.912 9.335 6.821 4.937 12.387 14.182 12.387 14.182s3.86 6.462 2.961 1.077c-.898-5.386-10.501-15.976-12.834-19.12M189.349 194.694c-6.822-13.913-15.07-13.007-20.555-9.964-7.782 4.319-6.505 22.351-6.505 22.351l1.12.359s.179-3.501.775-9.515c.595-6.013 3.532-14.551 13.047-2.692 9.516 11.857 22.979 13.99 22.979 13.99s-4.039-.616-10.861-14.529" transform="translate(51 1.859)"/>
            <path fill="#A4B751" d="M171.311 177.374c-2.144-1.572-4.319-1.303-6-.604-2.122.884-4.513.593-6.474-.591-7.173-4.341-7.722 1.627-7.722 1.627l.194 1.615c.01.01.01.032.01.054.517 2.994 2.198 9.219 9.393 11.988 1.281.495 12.57 5.386 12.57 5.386-1.53-6.194 2.423-16.244-1.97-19.475" transform="translate(51 1.859)"/>
            <path fill="#57575E" d="M152.44 243.164h11.975c4.4 0 7.97-3.568 7.97-7.97v-29.28H144.47v29.28c0 4.402 3.568 7.97 7.97 7.97" transform="translate(51 1.859)"/>
            <path fill="#7F786A" d="M141.748 209.953L175.106 209.953 175.106 205.914 141.748 205.914z" transform="translate(51 1.859)"/>
            <path fill="#A29C8F" d="M10.272 45.9L105.081 45.9 105.081 45.014 10.272 45.014zM10.272 65.9L105.081 65.9 105.081 65.014 10.272 65.014z" transform="translate(51 1.859)"/>
            <path fill="#F7E8C8" d="M106.279 100.854l-.001.001c-.2.181-.431.402-.688.663l.003-.003c-.161.163-.334.347-.511.54v26.77c.13.184.245.366.382.552-.135-.183-.254-.364-.382-.546v4.711c.052.128.095.256.145.384-.05-.026-.097-.059-.145-.085V147.551H93.404l.167.091c-.057-.03-.114-.059-.17-.09H10.273V45.457h94.809v55.617c.949-.468 1.619-.723 1.83-.799.004 0 .006-.002.01-.003.04-.016.068-.024.068-.024s-.276.21-.711.605zM.592 35.034v122.942h87.127l.034.055-.005-.055H114.762V35.033H.592zM23.196 179.883L45.704 179.883 45.704 167.916 23.196 167.916zM10.627 193.861L33.135 193.861 33.135 181.894 10.627 181.894zM35.442 193.861L57.95 193.861 57.95 181.894 35.442 181.894zM106.139 12.493L128.647 12.493 128.647.525 106.139.525zM93.57 26.469L116.078 26.469 116.078 14.502 93.57 14.502zM118.385 26.469L140.893 26.469 140.893 14.502 118.385 14.502z" transform="translate(51 1.859)"/>
        </g>
    </g>
</svg>
