<svg xmlns="http://www.w3.org/2000/svg" xmlns:xlink="http://www.w3.org/1999/xlink" width="377" height="250" viewBox="0 0 377 250">
    <defs>
        <path id="prefix__a" d="M7.441 2.085C3.604 2.085.436 1.447.065.839c-.025.31-.037.626-.037.944 0 3.365 1.416 6.511 3.539 8.286v.003c.122.099.247.198.373.292.631.29 1.962.49 3.5.49 1.523 0 2.843-.195 3.481-.484.136-.096.268-.201.397-.309.659-.555 1.25-1.239 1.751-2.023 1.639-.669 3.831-1.961 3.699-4.057-.051-.809-.298-1.334-.735-1.558-.363-.185-.793-.109-1.209.076.014-.238.022-.476.022-.716 0-.318-.011-.634-.037-.944-.401.727-3.53 1.246-7.368 1.246m7.278 1.425c.408-.253.802-.401 1.036-.28.21.108.278.505.298.819.072 1.15-1.058 2.079-2.298 2.728.464-1.002.797-2.107.964-3.267"/>
        <path id="prefix__d" d="M0 249L375.398 249 375.398 0.47 0 0.47z"/>
        <path id="prefix__f" d="M2.134 2.85S1.316 1.865.039.249C1.03 2.548 2.134 2.85 2.134 2.85"/>
        <path id="prefix__i" d="M1 0.716L1.527 0.716 1.527 1.716 1 1.716z"/>
        <path id="prefix__k" d="M1 249L376.398 249 376.398 0.47 1 0.47z"/>
        <path id="prefix__m" d="M45.61.34c-1.703.743-2.626 2.578-3.272 4.32-1.162 3.137-1.878 6.438-2.12 9.775-.059.82-.096 1.667-.441 2.415-.344.747-1.09 1.38-1.911 1.313-.703-.056-1.288-.616-1.564-1.266-.276-.648-.294-1.376-.268-2.08.189-5.101 2.595-10.082 6.472-13.4-1.655-.993-3.719-1.276-5.58-.769-1.86.507-3.495 1.8-4.418 3.493-1.374 2.522-1.123 5.58-.834 8.438l.675 6.672c.084.838.124 1.808-.489 2.385-.559.527-1.488.486-2.141.082-.653-.405-1.075-1.093-1.391-1.793-1.238-2.739-1.171-5.925-.414-8.833.757-2.91 2.159-5.602 3.55-8.267-7.537 2.887-12.564 5.66-18.116 11.518l-2.052 2.107c.142 4.345 2.659 8.538 6.425 10.707.747.431 1.662.998 1.575 1.856-.063.613-.68 1.056-1.294 1.109-.615.055-1.214-.19-1.762-.474-4.285-2.216-6.901-7.282-6.227-12.058C4.492 22.583 1.147 29.904.986 37.348c-.046 2.171.175 4.385 1.018 6.385.844 2.001 2.366 3.779 4.376 4.599 2.012.819 4.516.536 6.085-.966.909-.87 1.452-2.06 2.318-2.971.868-.913 2.622-1.81 3.375-.801.375.504-.819 1.663-1.386 2.168-.213.189-.416.393-.594.616-1.799 2.259-2.051 4.529-1.414 7.46.671 3.092 3.515 7.678 5.63 10.031 2.157 2.4 6.539 3.776 8.956 3.945 10.172.709 14.419-5.263 14.419-5.263s-5.939-.451-9.179-4.757c-2.929-3.892-2.734-8.6-4.989-12.918-.341-.653-.69-1.335-.722-2.071-.032-.738.349-1.548 1.054-1.766.731-.225 1.525.269 1.915.926.391.658.482 1.443.608 2.198.741 4.457 2.986 8.651 6.286 11.738 2.237 2.093 5.099 3.724 8.161 3.725 2.345.003 4.61-.954 6.536-2.292 1.926-1.339 3.556-3.052 5.174-4.751-7.58 1.459-15.848-1.46-20.831-7.355-.931-1.101-1.797-2.432-1.475-3.909.211-.969 1.028-1.746 2.016-1.673.993.074 1.502.944 1.983 1.712 3.327 5.314 9.332 8.851 15.592 9.186 1.756.093 3.614-.08 5.076-1.056 2.592-1.733 3.252-5.474 5.862-7.179-6.725 3.573-15.369 3.206-21.768-.921-.725-.468-1.444-1.004-1.871-1.753-.428-.75-.496-1.766.047-2.437.664-.82 1.961-.82 2.906-.349.944.471 1.654 1.294 2.449 1.987 2.139 1.865 4.963 2.813 7.787 3.085 2.824.272 5.671-.091 8.464-.59 1.538-.274 3.236-.701 4.072-2.02.471-.743.582-1.649.683-2.522l1.317-11.454c-.499 1.668-5.652 5.46-9.181 6.137-2.012.385-6.127.169-8.086-.431-.67-.206-1.353-.417-1.922-.827-.568-.41-1.011-1.062-.984-1.762.03-.759.607-1.411 1.292-1.74.684-.326 1.463-.386 2.222-.409 1.244-.04 2.491.001 3.738.041 1.987.065 3.971.129 5.939-.132 3.201-.425 6.508-1.934 7.963-4.816-2.516-4.765-3.745-10.202-3.526-15.587.065-1.604.226-3.34-.645-4.69l-.592 1.458c-.967 1.585-3.121 2.383-4.864 1.694-1.319-.52-2.376-1.746-3.79-1.848-1-.071-1.966.466-2.65 1.197-.684.732-1.134 1.646-1.574 2.547l-3.735 7.64c-.582 1.191-1.566 2.591-2.861 2.302-.977-.22-1.466-1.318-1.65-2.303-.44-2.367.056-4.896 1.357-6.921 1.301-2.025 3.393-3.528 5.729-4.113-1.084-.86-2.184-1.73-3.458-2.269-.733-.311-1.539-.5-2.332-.5-.585 0-1.164.103-1.702.337m-3.133 24.187c-.594-.39-.741-1.236-.532-1.915.211-.678.355-.997.707-1.615.317-.555 1.373-1.898 1.373-1.898.358-.376.898-.622 1.4-.49.402.106.718.442.878.825.161.385.183.814.151 1.229-.092 1.241-.66 2.441-1.561 3.3-.323.309-.698.578-1.125.707-.165.05-.339.077-.512.077-.276 0-.55-.068-.779-.22m-6.507 2.771c-.42-.042-.775-.361-.963-.739-.189-.377-.236-.81-.253-1.232-.053-1.316.167-2.643.64-3.872.208-.541.536-1.122 1.1-1.253.396-.093.822.075 1.114.356.293.284.468.665.586 1.055.373 1.235.106 2.576-.486 3.722-.158.306-.536 1.269-.536 1.269-.237.388-.654.7-1.103.7-.032 0-.065-.002-.099-.006m14.045-3.508c-.364-.206-.524-.68-.436-1.088.089-.409.389-.749.745-.967.357-.218.768-.331 1.178-.417.253-.052.515-.097.771-.053.256.044.507.193.609.431.109.255.025.561-.148.778l-.172.251c-.361.446-.833.801-1.36 1.022-.222.093-.468.161-.706.161-.168 0-.333-.034-.481-.118m-26.994 7.833c-1.785-1.574-2.586-4.183-1.99-6.489.239-.925.882-1.925 1.837-1.914.512.006.981.319 1.299.721.318.402.507.886.694 1.364l1.041 1.97c.478.867.966 1.769 1.03 2.756.064.987-.426 2.084-1.365 2.395-.183.06-.37.088-.557.088-.715 0-1.435-.402-1.989-.891m5.844-2.998c-.456-.334-.712-.89-.787-1.45-.075-.561.013-1.129.13-1.683.074-.343.162-.69.356-.983.195-.291.516-.52.866-.515.375.005.707.277.881.608l.215.351c.354.689.534 1.466.519 2.24-.011.554-.152 1.159-.597 1.49-.207.153-.46.224-.717.224-.306 0-.618-.1-.866-.282m14.565 4.718c-.947-.358-2.022-.856-2.257-1.842-.137-.577.075-1.206.475-1.643.4-.438.967-.7 1.55-.814 1.084-.21 2.168.207 3.11.785 1.368.839 1.829 2.231 1.829 2.231.021.968-.932 1.732-1.891 1.854-.133.017-.266.025-.398.025-.825 0-1.638-.3-2.418-.596m-8.906 4.815c-.806-.286-1.533-.895-1.792-1.711-.285-.896.078-1.959.853-2.494.773-.535 1.83-.403 2.634.086.522.318 2.226 1.007 2.226 1.007.675.441 1.143 1.306.865 2.063-.311.851-1.346 1.159-2.247 1.252-.298.031-.6.051-.901.051-.558 0-1.114-.068-1.638-.254m-19.862.43c-.75-.195-1.483-.505-2.069-1.012-.585-.508-1.011-1.232-1.046-2.005-.066-1.454 6.4-2.24 7.879-1.292.43.277.793.654 1.045 1.098l.036.062c.639 1.145.045 2.612-1.202 3.011-.83.266-1.702.401-2.573.401-.697 0-1.395-.087-2.07-.263m9.224 14.086c-.678-.501-1.135-1.248-1.462-2.022-.949-2.247-.897-4.895.142-7.102.205-.438.463-.875.873-1.13.409-.255.969-.228 1.329.093.88.784 2.009 4.851 2.009 4.851.457.974.923 1.982.959 3.057.036 1.075-.47 2.245-1.467 2.653-.25.102-.516.148-.784.148-.565.001-1.14-.209-1.599-.548"/>
        <path id="prefix__p" d="M18.162.787c-4.278 2.781-8.148 6.084-11.568 9.83-2.237 2.172-4.337 4.489-6.274 6.956-.287.364.264.833.553.466.169-.216.349-.422.52-.636.112.025.233.001.329-.113.377-.446.766-.878 1.152-1.315.11.026.23 0 .322-.123.389-.528.797-1.04 1.204-1.554 4.288-4.571 9.113-8.586 14.418-11.966.392-.25-.022-.844-.415-.593-.158.1-.311.205-.467.307-.048-.053-.106-.097-.175-.116.272-.184.54-.371.815-.55.324-.211.094-.655-.217-.655-.063 0-.131.018-.197.062"/>
        <path id="prefix__s" d="M.348 3.856C.329 4.862.712 5.815 1.426 6.539c.709.719 1.662 1.127 2.683 1.144l.071.001c2.079 0 3.791-1.641 3.829-3.691.019-1.007-.364-1.96-1.077-2.684C6.222.589 5.268.184 4.248.165l-.07-.001C2.097.164.386 1.806.348 3.856M4.13 6.498c-.709-.013-1.37-.294-1.86-.791-.487-.495-.749-1.145-.737-1.829.027-1.404 1.208-2.527 2.645-2.527h.048c.709.012 1.37.293 1.861.792.487.494.748 1.143.736 1.828-.026 1.403-1.221 2.527-2.643 2.527h-.05"/>
        <path id="prefix__v" d="M.889 5.121c-.049 2.69 2.077 4.911 4.747 4.96 2.671.049 4.875-2.093 4.924-4.783.049-2.691-2.077-4.912-4.748-4.96L5.723.337C3.093.337.937 2.461.889 5.121"/>
        <path id="prefix__y" d="M.594 3.263c-.026 1.5 1.159 2.738 2.648 2.765 1.49.027 2.719-1.166 2.746-2.667C6.015 1.861 4.83.623 3.34.596h-.051C1.823.596.621 1.779.594 3.263"/>
        <path id="prefix__B" d="M0.08 0.47L39.979 0.47 39.979 57.161 0.08 57.161z"/>
        <path id="prefix__D" d="M0.57 0.267L22.778 0.267 22.778 22 0.57 22z"/>
        <linearGradient id="prefix__b" x1="-.004%" x2="100.002%" y1="49.999%" y2="49.999%">
            <stop offset="0%" stop-color="#FBB62B"/>
            <stop offset="100%" stop-color="#FFCF44"/>
        </linearGradient>
        <linearGradient id="prefix__g" x1="60.082%" x2="34.735%" y1="73.889%" y2="21.615%">
            <stop offset="0%" stop-color="#DBEBFF"/>
            <stop offset="100%" stop-color="#FFF"/>
        </linearGradient>
        <linearGradient id="prefix__n" x1="41.919%" x2="59.494%" y1="14.209%" y2="74.333%">
            <stop offset="0%" stop-color="#FBB62B"/>
            <stop offset="100%" stop-color="#FFCF44"/>
        </linearGradient>
        <linearGradient id="prefix__q" x1="341.925%" x2="93.853%" y1="-141.898%" y2="20.692%">
            <stop offset="0%" stop-color="#A8F2FF"/>
            <stop offset="100%" stop-color="#8595F9"/>
        </linearGradient>
        <linearGradient id="prefix__t" x1="-.001%" x2="99.998%" y1="50.006%" y2="50.006%">
            <stop offset="0%" stop-color="#FBB62B"/>
            <stop offset="100%" stop-color="#FFCF44"/>
        </linearGradient>
        <linearGradient id="prefix__w" x1="-.003%" x2="99.999%" y1="50.001%" y2="50.001%">
            <stop offset="0%" stop-color="#FBB62B"/>
            <stop offset="100%" stop-color="#FFCF44"/>
        </linearGradient>
        <linearGradient id="prefix__z" x1=".008%" x2="100.001%" y1="49.994%" y2="49.994%">
            <stop offset="0%" stop-color="#FBB62B"/>
            <stop offset="100%" stop-color="#FFCF44"/>
        </linearGradient>
    </defs>
    <g fill="none" fill-rule="evenodd">
        <path fill="#A29C8F" d="M158.792 175.699L208.681 175.699 208.681 172.852 158.792 172.852z"/>
        <path fill="#FF881D" d="M186.81 163.37c0 .687-3.3 1.245-7.373 1.245-4.07 0-7.372-.558-7.372-1.245 0-.688 3.301-1.246 7.372-1.246 4.072 0 7.372.558 7.372 1.246"/>
        <g transform="translate(172 162.53)">
            <mask id="prefix__c" fill="#fff">
                <use xlink:href="#prefix__a"/>
            </mask>
            <path fill="url(#prefix__b)" d="M7.441 2.085C3.604 2.085.436 1.447.065.839c-.025.31-.037.626-.037.944 0 3.365 1.416 6.511 3.539 8.286v.003c.122.099.247.198.373.292.631.29 1.962.49 3.5.49 1.523 0 2.843-.195 3.481-.484.136-.096.268-.201.397-.309.659-.555 1.25-1.239 1.751-2.023 1.639-.669 3.831-1.961 3.699-4.057-.051-.809-.298-1.334-.735-1.558-.363-.185-.793-.109-1.209.076.014-.238.022-.476.022-.716 0-.318-.011-.634-.037-.944-.401.727-3.53 1.246-7.368 1.246m7.278 1.425c.408-.253.802-.401 1.036-.28.21.108.278.505.298.819.072 1.15-1.058 2.079-2.298 2.728.464-1.002.797-2.107.964-3.267" mask="url(#prefix__c)"/>
        </g>
        <g transform="translate(1 .53)">
            <path fill="#FF881D" d="M177.21 172.364c-.126-.095-.252-.192-.374-.293v-.002c-2.062-1.724-3.505-5.087-3.584-8.34-1.233-.319-2.006-.406-2.187-.889-.025.31-.038.625-.038.943 0 3.364 1.417 6.511 3.54 8.286v.002c.122.101.247.198.373.293.631.29 1.962.49 3.5.49.395 0 .776-.014 1.135-.039-1.04-.07-1.897-.235-2.366-.45"/>
            <path fill="#FFF" d="M187.946 140.733c-.004-.1-.013-.246-.05-.43-.03-.185-.098-.406-.211-.647-.12-.236-.297-.489-.547-.707-.25-.217-.564-.4-.915-.529-.35-.133-.734-.216-1.133-.266-.4-.054-.811-.058-1.215-.094-.203-.018-.406-.046-.602-.093-.197-.046-.392-.11-.554-.22-.08-.058-.155-.126-.203-.204-.028-.037-.052-.079-.067-.13l-.026-.07-.014-.073c-.014-.098-.011-.196.026-.282.037-.087.107-.156.19-.21.167-.109.364-.174.554-.25.19-.079.376-.146.56-.216.371-.134.733-.25 1.073-.378.34-.13.657-.258.945-.39.291-.129.55-.267.775-.393.226-.128.415-.26.57-.36.287-.233.445-.375.445-.375.004-.004.005-.01.001-.017-.004-.006-.012-.008-.018-.004l-.129.08c-.085.05-.205.133-.363.227-.166.08-.35.195-.583.3-.234.101-.492.225-.785.34-.286.125-.607.241-.94.381-.334.136-.682.297-1.043.46l-.544.26c-.181.087-.38.152-.561.267-.091.057-.178.136-.226.241-.05.105-.056.223-.043.332l.01.082.024.081c.011.05.034.101.064.154.056.106.136.186.222.258.358.281.802.364 1.215.428.42.054.825.07 1.206.134.382.057.748.14 1.078.253.33.116.624.266.863.45.238.185.409.406.543.614.125.213.207.418.258.591.058.173.085.314.1.411l.03.148c.002.006.008.012.014.011.006 0 .012-.006.012-.013l-.006-.152"/>
            <path fill="#A29C8F" d="M211.676 25.946L165.599 26.606 165.599 143.262 211.676 143.262z"/>
            <mask id="prefix__e" fill="#fff">
                <use xlink:href="#prefix__d"/>
            </mask>
            <path fill="#FFFCF8" d="M165.453 140.559L208.873 140.559 208.873 27.809 165.453 27.809z" mask="url(#prefix__e)"/>
            <path fill="#A29C8F" d="M167.34 140.337h41.117V69.772H167.34v70.565zm0-73.437h41.117V29.995H167.34V66.9zm-2.302 74.642h44.469V27.588h-44.469v113.954z" mask="url(#prefix__e)"/>
            <path fill="#F7E8C8" d="M166.605 139.356h41.117V68.79h-41.117v70.566zm0-73.438h41.117V29.013h-41.117v36.905zm-2.303 75.846h45.723V26.607h-45.723v115.157zM6.449 239.768c0-3.054 82.592-5.529 184.475-5.529 101.882 0 184.475 2.475 184.475 5.529 0 3.053-82.593 5.529-184.475 5.529-101.883 0-184.475-2.476-184.475-5.53" mask="url(#prefix__e)"/>
            <path fill="#306B34" d="M53.38 151.491s-15.332 5.15-13.246 22.826c2.086 17.677-.918 39.216-.918 39.216h8.74s15.569-20.989 4.097-36.716c-11.472-15.727 1.327-25.326 1.327-25.326" mask="url(#prefix__e)"/>
            <path fill="#A4B751" d="M52.166 152.592c-2.79 2.303-10.906 10.672-2.16 24.527 10.392 16.46-6.548 36.359-6.548 36.359l-4.196-.282-.046.337h8.74s15.569-20.99 4.097-36.715c-9.207-12.623-2.783-21.293.113-24.226" mask="url(#prefix__e)"/>
            <path fill="#4900BC" d="M52.762 152.018c.378-.345.618-.526.618-.526s-1.378.466-3.25 1.588c1.236-.599 2.194-.927 2.632-1.063" mask="url(#prefix__e)"/>
            <path fill="#619440" d="M36.601 193.984c.82-15.687.186-17.647-5.912-22.827-6.097-5.18-14.69-13.696-14.69-13.696 5.852 11.588 5.735 16.856 6.836 25.381.855 6.616 10.79 19.817 15.204 25.407-.977-2.267-1.845-6.477-1.438-14.265" mask="url(#prefix__e)"/>
        </g>
        <g transform="translate(39 208.53)">
            <mask id="prefix__h" fill="#fff">
                <use xlink:href="#prefix__f"/>
            </mask>
            <path fill="url(#prefix__g)" d="M2.134 2.85S1.316 1.865.039.249C1.03 2.548 2.134 2.85 2.134 2.85" mask="url(#prefix__h)"/>
        </g>
        <g transform="translate(0 .53)">
            <path fill="#306B34" d="M34.636 186.687c-3.043 13.032 3.428 21.79 3.428 21.79h6.382c-.023-4.492.3-8.8 2.415-13.156.112-.23.246-.444.389-.648-.9-.42-1.901-.847-3.015-1.275-11.784-4.526-6.556-19.744-9.6-6.71"/>
            <path fill="#619440" d="M51.18 189.965c-6.478 3.278-4.604 17.325-4.604 17.325l6.087 2.185s-1.093-6.4 3.043-11.394c4.137-4.994 6.868-3.08 6.868-3.08s-4.916-8.313-11.394-5.036M20.12 183.332c-10.875 0-16.958 6.554-16.958 6.554s4.233-2.151 11.808-1.872c7.573.278 7.024 6.712 13.11 12.72 6.088 6.009 11.16 6.868 11.16 6.868s-8.062-11.661-13.97-19.588c-1.04-1.396-.025-4.682-5.15-4.682"/>
            <g transform="translate(0 191)">
                <mask id="prefix__j" fill="#fff">
                    <use xlink:href="#prefix__i"/>
                </mask>
                <path fill="#FAF9FC" d="M1.055 1.126c-.045.116-.055.18-.055.18s.017-.066.055-.18" mask="url(#prefix__j)"/>
            </g>
            <path fill="#A4B751" d="M28.939 190.355c-2.03-2.73.078-9.443-12.877-7.882-11.832 1.425-14.613 8.445-15.007 9.653.299-.78 2.192-3.952 13.603-6.532 13.11-2.966 6.165 3.824 12.096 8.116 5.93 4.293 10.77 12.331 10.77 12.331s3.355 5.62 2.575.936c-.781-4.682-9.131-13.89-11.16-16.622M69.13 196.208c-5.931-12.096-13.103-11.31-17.872-8.662-6.767 3.755-5.656 19.432-5.656 19.432l.974.312s.155-3.043.673-8.272c.518-5.23 3.072-12.652 11.344-2.341 8.275 10.31 19.98 12.164 19.98 12.164s-3.512-.536-9.444-12.633"/>
            <path fill="#A4B751" d="M53.447 181.15c-1.864-1.368-3.755-1.134-5.217-.525-1.845.767-3.924.514-5.628-.515-6.237-3.774-6.715 1.414-6.715 1.414l.169 1.404c.009.01.009.03.009.047.45 2.604 1.91 8.017 8.166 10.423 1.114.432 10.929 4.683 10.929 4.683-1.33-5.385 2.107-14.122-1.713-16.932"/>
            <path fill="#57575E" d="M37.039 238.35H47.45c3.827 0 6.929-3.102 6.929-6.93v-25.457H30.11v25.458c0 3.827 3.102 6.93 6.929 6.93"/>
            <mask id="prefix__l" fill="#fff">
                <use xlink:href="#prefix__k"/>
            </mask>
            <path fill="#7F786A" d="M27.743 209.475L56.746 209.475 56.746 205.963 27.743 205.963z" mask="url(#prefix__l)"/>
            <path fill="#619440" d="M287.382 186.634c.54-2.39 1.934-10.353 4.233-11.2 2.507-.921 5.608.263 6.86 2.623.541 1.018.78 2.223 1.817 2.908.58.382 1.376.388 1.854-.116.781-.821.041-2.072-.596-2.976-1.217-1.728-2.085-3.768-2.094-5.883-.01-2.114.943-4.293 2.72-5.437 1.779-1.145 4.38-1.013 5.815.54.897.972 1.275 2.348 2.448 3.107.609.395 1.408.475 1.997.05 1.19-.854.387-2.692-.419-3.91-1.139-1.717-2.14-3.587-2.44-5.627-.299-2.04.202-4.284 1.7-5.7 1.498-1.417 4.076-1.717 5.624-.355.62.545 1.032 1.289 1.61 1.878.694.707 1.815 1.196 2.664.445.588-.521.686-1.391.394-2.12-.404-1.01-1.22-1.622-2.03-2.243-1.277-.98-2.157-2.421-2.345-4.02-.563-4.776 4.723-6.615 7.703-4.52.836.59 1.673 1.489 2.695 1.2.807-.227 1.249-1.077 1.161-1.911-.175-1.646-1.538-2.6-2.262-3.94-1.324-2.447.163-5.947 2.845-6.693 2.051-.572 2.583 2.086 3.511 4.41.214.534.999.42 1.059-.152.241-2.276.993-5.118 1.57-6.686 1.057-2.877 5.362-6.033 7.417-1.895.552 1.11.133 3.966-.577 4.757-1.004 1.117-3.395 4.959-3.395 4.959-.225.44.275.9.69.632.942-.606 1.954-1.082 3.116-1.188.532-.047 1.076.005 1.581.179 3.009 1.036 2.542 4.74.62 6.515-1.598 1.475-3.834 1.98-5.95 2.484-1.096.262-2.282.594-2.826 1.66-.309.605-.236 1.374.282 1.813.598.507 1.281.224 1.939.14 2.153-.274 4.108 1.869 4.088 4.039-.021 2.17-1.611 4.099-3.559 5.053-1.949.954-4.198 1.084-6.365.974-1.069-.054-2.22-.146-3.065.645-.498.468-.647 1.252-.229 1.793.595.769 1.705.424 2.634.372 2.58-.142 4.63 2.73 4.223 5.282-.406 2.55-2.656 4.509-5.122 5.282-2.777.87-5.798.5-8.652.1-.671-.094-1.36.268-1.568.914-.288.894.529 1.406 1.167 1.869 2.464 1.788 3.428 5.373 2.191 8.155-1.237 2.782-4.545 4.47-7.523 3.837-1.892-.402-3.617-1.62-5.668-1.003-1.015.305-1.746 1.277-1.552 2.319.245 1.316 1.72 1.69 2.824 2.307 3.061 1.708 3.576 6.327 1.564 9.198-2.011 2.87-8.471 2.962-11.969 2.74-3.499-.222-10.8-.528-14.537-2.908-1.761-1.12-.413-12.306.127-14.696" mask="url(#prefix__l)"/>
            <path fill="#306B34" d="M342.893 128.411c.551 1.11.132 3.966-.578 4.757-1.004 1.117-3.394 4.959-3.394 4.959-.225.439.275.899.69.632.942-.607 1.953-1.082 3.115-1.188.533-.048 1.077.005 1.582.179 3.008 1.036 2.542 4.74.62 6.515-1.598 1.475-3.834 1.981-5.95 2.484-1.096.262-2.282.594-2.827 1.66-.308.605-.235 1.374.283 1.813.598.506 1.281.223 1.94.14 2.151-.274 4.106 1.868 4.086 4.038-.02 2.17-1.61 4.1-3.559 5.054-1.948.954-4.197 1.084-6.364.974-1.069-.054-2.22-.146-3.065.645-.498.468-.647 1.252-.229 1.793.595.769 1.705.424 2.634.372 2.58-.142 4.63 2.73 4.223 5.281-.407 2.551-2.657 4.509-5.122 5.283-2.777.87-5.798.501-8.652.099-.67-.094-1.36.269-1.568.914-.288.895.53 1.407 1.167 1.869 2.464 1.789 3.428 5.373 2.191 8.156-1.237 2.782-4.545 4.469-7.523 3.837-1.892-.403-3.617-1.62-5.668-1.003-1.015.304-1.746 1.277-1.552 2.319.245 1.315 1.72 1.69 2.824 2.307 3.061 1.708 6.202 8.25 4.191 11.121-2.012 2.871-11.098 1.039-14.597.816-3.264-.207-9.839-.487-13.74-2.457-.28-.14-.797-.45-.797-.45s19.321-16.788 36.03-39.044c9.282-12.362 17.535-35.788 17.535-35.788s.326.072.703.339c.65.46 1.263 1.356 1.371 1.574" mask="url(#prefix__l)"/>
        </g>
        <g transform="translate(297 172.53)">
            <mask id="prefix__o" fill="#fff">
                <use xlink:href="#prefix__m"/>
            </mask>
            <path fill="url(#prefix__n)" d="M45.61.34c-1.703.743-2.626 2.578-3.272 4.32-1.162 3.137-1.878 6.438-2.12 9.775-.059.82-.096 1.667-.441 2.415-.344.747-1.09 1.38-1.911 1.313-.703-.056-1.288-.616-1.564-1.266-.276-.648-.294-1.376-.268-2.08.189-5.101 2.595-10.082 6.472-13.4-1.655-.993-3.719-1.276-5.58-.769-1.86.507-3.495 1.8-4.418 3.493-1.374 2.522-1.123 5.58-.834 8.438l.675 6.672c.084.838.124 1.808-.489 2.385-.559.527-1.488.486-2.141.082-.653-.405-1.075-1.093-1.391-1.793-1.238-2.739-1.171-5.925-.414-8.833.757-2.91 2.159-5.602 3.55-8.267-7.537 2.887-12.564 5.66-18.116 11.518l-2.052 2.107c.142 4.345 2.659 8.538 6.425 10.707.747.431 1.662.998 1.575 1.856-.063.613-.68 1.056-1.294 1.109-.615.055-1.214-.19-1.762-.474-4.285-2.216-6.901-7.282-6.227-12.058C4.492 22.583 1.147 29.904.986 37.348c-.046 2.171.175 4.385 1.018 6.385.844 2.001 2.366 3.779 4.376 4.599 2.012.819 4.516.536 6.085-.966.909-.87 1.452-2.06 2.318-2.971.868-.913 2.622-1.81 3.375-.801.375.504-.819 1.663-1.386 2.168-.213.189-.416.393-.594.616-1.799 2.259-2.051 4.529-1.414 7.46.671 3.092 3.515 7.678 5.63 10.031 2.157 2.4 6.539 3.776 8.956 3.945 10.172.709 14.419-5.263 14.419-5.263s-5.939-.451-9.179-4.757c-2.929-3.892-2.734-8.6-4.989-12.918-.341-.653-.69-1.335-.722-2.071-.032-.738.349-1.548 1.054-1.766.731-.225 1.525.269 1.915.926.391.658.482 1.443.608 2.198.741 4.457 2.986 8.651 6.286 11.738 2.237 2.093 5.099 3.724 8.161 3.725 2.345.003 4.61-.954 6.536-2.292 1.926-1.339 3.556-3.052 5.174-4.751-7.58 1.459-15.848-1.46-20.831-7.355-.931-1.101-1.797-2.432-1.475-3.909.211-.969 1.028-1.746 2.016-1.673.993.074 1.502.944 1.983 1.712 3.327 5.314 9.332 8.851 15.592 9.186 1.756.093 3.614-.08 5.076-1.056 2.592-1.733 3.252-5.474 5.862-7.179-6.725 3.573-15.369 3.206-21.768-.921-.725-.468-1.444-1.004-1.871-1.753-.428-.75-.496-1.766.047-2.437.664-.82 1.961-.82 2.906-.349.944.471 1.654 1.294 2.449 1.987 2.139 1.865 4.963 2.813 7.787 3.085 2.824.272 5.671-.091 8.464-.59 1.538-.274 3.236-.701 4.072-2.02.471-.743.582-1.649.683-2.522l1.317-11.454c-.499 1.668-5.652 5.46-9.181 6.137-2.012.385-6.127.169-8.086-.431-.67-.206-1.353-.417-1.922-.827-.568-.41-1.011-1.062-.984-1.762.03-.759.607-1.411 1.292-1.74.684-.326 1.463-.386 2.222-.409 1.244-.04 2.491.001 3.738.041 1.987.065 3.971.129 5.939-.132 3.201-.425 6.508-1.934 7.963-4.816-2.516-4.765-3.745-10.202-3.526-15.587.065-1.604.226-3.34-.645-4.69l-.592 1.458c-.967 1.585-3.121 2.383-4.864 1.694-1.319-.52-2.376-1.746-3.79-1.848-1-.071-1.966.466-2.65 1.197-.684.732-1.134 1.646-1.574 2.547l-3.735 7.64c-.582 1.191-1.566 2.591-2.861 2.302-.977-.22-1.466-1.318-1.65-2.303-.44-2.367.056-4.896 1.357-6.921 1.301-2.025 3.393-3.528 5.729-4.113-1.084-.86-2.184-1.73-3.458-2.269-.733-.311-1.539-.5-2.332-.5-.585 0-1.164.103-1.702.337m-3.133 24.187c-.594-.39-.741-1.236-.532-1.915.211-.678.355-.997.707-1.615.317-.555 1.373-1.898 1.373-1.898.358-.376.898-.622 1.4-.49.402.106.718.442.878.825.161.385.183.814.151 1.229-.092 1.241-.66 2.441-1.561 3.3-.323.309-.698.578-1.125.707-.165.05-.339.077-.512.077-.276 0-.55-.068-.779-.22m-6.507 2.771c-.42-.042-.775-.361-.963-.739-.189-.377-.236-.81-.253-1.232-.053-1.316.167-2.643.64-3.872.208-.541.536-1.122 1.1-1.253.396-.093.822.075 1.114.356.293.284.468.665.586 1.055.373 1.235.106 2.576-.486 3.722-.158.306-.536 1.269-.536 1.269-.237.388-.654.7-1.103.7-.032 0-.065-.002-.099-.006m14.045-3.508c-.364-.206-.524-.68-.436-1.088.089-.409.389-.749.745-.967.357-.218.768-.331 1.178-.417.253-.052.515-.097.771-.053.256.044.507.193.609.431.109.255.025.561-.148.778l-.172.251c-.361.446-.833.801-1.36 1.022-.222.093-.468.161-.706.161-.168 0-.333-.034-.481-.118m-26.994 7.833c-1.785-1.574-2.586-4.183-1.99-6.489.239-.925.882-1.925 1.837-1.914.512.006.981.319 1.299.721.318.402.507.886.694 1.364l1.041 1.97c.478.867.966 1.769 1.03 2.756.064.987-.426 2.084-1.365 2.395-.183.06-.37.088-.557.088-.715 0-1.435-.402-1.989-.891m5.844-2.998c-.456-.334-.712-.89-.787-1.45-.075-.561.013-1.129.13-1.683.074-.343.162-.69.356-.983.195-.291.516-.52.866-.515.375.005.707.277.881.608l.215.351c.354.689.534 1.466.519 2.24-.011.554-.152 1.159-.597 1.49-.207.153-.46.224-.717.224-.306 0-.618-.1-.866-.282m14.565 4.718c-.947-.358-2.022-.856-2.257-1.842-.137-.577.075-1.206.475-1.643.4-.438.967-.7 1.55-.814 1.084-.21 2.168.207 3.11.785 1.368.839 1.829 2.231 1.829 2.231.021.968-.932 1.732-1.891 1.854-.133.017-.266.025-.398.025-.825 0-1.638-.3-2.418-.596m-8.906 4.815c-.806-.286-1.533-.895-1.792-1.711-.285-.896.078-1.959.853-2.494.773-.535 1.83-.403 2.634.086.522.318 2.226 1.007 2.226 1.007.675.441 1.143 1.306.865 2.063-.311.851-1.346 1.159-2.247 1.252-.298.031-.6.051-.901.051-.558 0-1.114-.068-1.638-.254m-19.862.43c-.75-.195-1.483-.505-2.069-1.012-.585-.508-1.011-1.232-1.046-2.005-.066-1.454 6.4-2.24 7.879-1.292.43.277.793.654 1.045 1.098l.036.062c.639 1.145.045 2.612-1.202 3.011-.83.266-1.702.401-2.573.401-.697 0-1.395-.087-2.07-.263m9.224 14.086c-.678-.501-1.135-1.248-1.462-2.022-.949-2.247-.897-4.895.142-7.102.205-.438.463-.875.873-1.13.409-.255.969-.228 1.329.093.88.784 2.009 4.851 2.009 4.851.457.974.923 1.982.959 3.057.036 1.075-.47 2.245-1.467 2.653-.25.102-.516.148-.784.148-.565.001-1.14-.209-1.599-.548" mask="url(#prefix__o)"/>
        </g>
        <g transform="translate(300 212.53)">
            <mask id="prefix__r" fill="#fff">
                <use xlink:href="#prefix__p"/>
            </mask>
            <path fill="url(#prefix__q)" d="M18.162.787c-4.278 2.781-8.148 6.084-11.568 9.83-2.237 2.172-4.337 4.489-6.274 6.956-.287.364.264.833.553.466.169-.216.349-.422.52-.636.112.025.233.001.329-.113.377-.446.766-.878 1.152-1.315.11.026.23 0 .322-.123.389-.528.797-1.04 1.204-1.554 4.288-4.571 9.113-8.586 14.418-11.966.392-.25-.022-.844-.415-.593-.158.1-.311.205-.467.307-.048-.053-.106-.097-.175-.116.272-.184.54-.371.815-.55.324-.211.094-.655-.217-.655-.063 0-.131.018-.197.062" mask="url(#prefix__r)"/>
        </g>
        <path fill="#306B34" d="M345.495 163.756c-.013-.012-.026-.022-.04-.031-1.443-1.13-3.526-.892-4.642.534-.54.689-.776 1.55-.665 2.425.112.876.547 1.655 1.26 2.209 1.444 1.13 3.527.89 4.643-.535.54-.69.776-1.55.665-2.423-.11-.863-.543-1.633-1.221-2.18m-4.96 6.143c-.947-.764-1.552-1.844-1.705-3.047-.157-1.23.176-2.44.936-3.41 1.568-2.002 4.488-2.345 6.509-.763.98.76 1.602 1.862 1.759 3.088.156 1.228-.176 2.44-.936 3.41-1.568 2.003-4.488 2.345-6.51.764-.017-.014-.035-.03-.052-.042"/>
        <g transform="translate(326 123.53)">
            <mask id="prefix__u" fill="#fff">
                <use xlink:href="#prefix__s"/>
            </mask>
            <path fill="url(#prefix__t)" d="M.348 3.856C.329 4.862.712 5.815 1.426 6.539c.709.719 1.662 1.127 2.683 1.144l.071.001c2.079 0 3.791-1.641 3.829-3.691.019-1.007-.364-1.96-1.077-2.684C6.222.589 5.268.184 4.248.165l-.07-.001C2.097.164.386 1.806.348 3.856M4.13 6.498c-.709-.013-1.37-.294-1.86-.791-.487-.495-.749-1.145-.737-1.829.027-1.404 1.208-2.527 2.645-2.527h.048c.709.012 1.37.293 1.861.792.487.494.748 1.143.736 1.828-.026 1.403-1.221 2.527-2.643 2.527h-.05" mask="url(#prefix__u)"/>
        </g>
        <g transform="translate(313 131.53)">
            <mask id="prefix__x" fill="#fff">
                <use xlink:href="#prefix__v"/>
            </mask>
            <path fill="url(#prefix__w)" d="M.889 5.121c-.049 2.69 2.077 4.911 4.747 4.96 2.671.049 4.875-2.093 4.924-4.783.049-2.691-2.077-4.912-4.748-4.96L5.723.337C3.093.337.937 2.461.889 5.121" mask="url(#prefix__x)"/>
        </g>
        <g transform="translate(347 157.53)">
            <mask id="prefix__A" fill="#fff">
                <use xlink:href="#prefix__y"/>
            </mask>
            <path fill="url(#prefix__z)" d="M.594 3.263c-.026 1.5 1.159 2.738 2.648 2.765 1.49.027 2.719-1.166 2.746-2.667C6.015 1.861 4.83.623 3.34.596h-.051C1.823.596.621 1.779.594 3.263" mask="url(#prefix__A)"/>
        </g>
        <g>
            <path fill="#57575E" d="M193.65 40.04c.713-9.7 14.79-12.987 14.434-15.6-1.08-7.925-3.347-14.637.691-19.628 4.7-5.81 14.161-3.868 16.067-2.324 3.263-1.102 6.077.364 8.137 2.944 1.392 1.743 1.978 3.043 2.569 6.678.642-.403 6.875.453 11.894 7.536 2.267 3.199 3.147 7.263 2.982 10.252-.258 4.72-1.868 8.119-12.688 12.966-4.994 2.238-18.41 17.555-31.614 14.297-10.325-2.546-12.917-11.072-12.472-17.121" transform="translate(34 .53)"/>
            <path fill="#FCBD30" d="M183.876 81.903c1.839-12.562 17.814-18.13 26.952-22.475 10.197-4.846 11.31 2.033 12.725 5.214 0 0-7.07 7.688-13.962 12.814-5.485 4.078-20.325 11.693-20.325 11.693s-6.048-2.754-5.39-7.246" transform="translate(34 .53)"/>
            <path fill="#FCBD30" d="M222.757 67.058l-13.196-3.535s.458-8.654.526-15.889c.089-9.395 2.406-17.212 11.083-20.52l.927 1.508.66 38.436z" transform="translate(34 .53)"/>
            <g transform="translate(34 .53) translate(193)">
                <mask id="prefix__C" fill="#fff">
                    <use xlink:href="#prefix__B"/>
                </mask>
                <path fill="#57575E" d="M13.122 57.161c-1.68-.399-3.365-.9-4.901-1.751-1.532-.84-2.95-1.919-4.135-3.234C1.69 49.542.424 46.015.139 42.486c-.135-1.753-.071-3.606.544-5.352.613-1.731 1.669-3.262 2.905-4.555 2.482-2.61 5.607-4.374 8.522-6.158.717-.448 1.447-.917 1.968-1.425.118-.124.218-.249.27-.346.025-.047.022-.071.04-.098-.025-.033.018.046-.012-.107l-.188-1.273-.813-5.125c-.26-1.722-.493-3.466-.536-5.246-.035-1.773.105-3.614.752-5.343.639-1.723 1.736-3.277 3.167-4.424 1.428-1.154 3.147-1.881 4.898-2.245C23.412.423 25.209.39 26.965.597c.879.106 1.75.273 2.603.525.85.257 1.688.565 2.454 1.145l-.27-.048c1.529-.484 3.239-.431 4.686.223 1.459.638 2.623 1.755 3.54 2.99-1.006-1.167-2.24-2.161-3.657-2.7-1.417-.546-2.994-.499-4.387.025-.082.031-.17.018-.238-.028l-.032-.02c-.642-.435-1.472-.71-2.285-.902-.815-.213-1.655-.344-2.497-.418-1.684-.141-3.391-.048-5.011.348-1.62.394-3.15 1.112-4.38 2.18-1.22 1.07-2.198 2.426-2.738 3.961-1.077 3.107-.573 6.594-.043 9.958l.87 5.122.187 1.296c.02.059.022.356 0 .54-.043.177-.105.367-.183.508-.158.283-.34.488-.522.675-.734.692-1.49 1.138-2.238 1.603-2.991 1.779-5.995 3.449-8.336 5.86-1.167 1.19-2.118 2.572-2.698 4.097-.595 1.516-.72 3.196-.648 4.887.149 3.358 1.268 6.718 3.42 9.347 1.065 1.319 2.374 2.439 3.829 3.343 1.46.903 3.082 1.52 4.73 2.047" mask="url(#prefix__C)"/>
            </g>
            <path fill="#7F786A" d="M249.52 56.602s13.24 18.753 17.821 34.492c4.581 15.739-.589 50.763-.589 50.763l-6.115.817s-36.014 3.534-54.282-3.21c0 0-.22-57.332 19.483-80.124l23.682-2.739z" transform="translate(34 .53)"/>
            <path fill="#A29C8F" d="M223.51 142.464c-8.736-.257-8.321.23-15.834-2.542 0 0-2.072-57.525 17.632-80.316l7.51.97s.156 26.606-1.177 46.778c-1.154 17.468-7.881 35.118-8.13 35.11" transform="translate(34 .53)"/>
            <path fill="#F0AEAE" d="M178 160.938s-22.44-27.46-13.91-41.294c4.91-7.964 31.457 9.685 31.457 9.685S183.413 140.8 178 160.94M253.189 240.492c5.07.454 9.549-3.287 10.004-8.357l1.945-21.673c.454-5.07-3.287-9.549-8.358-10.004-5.07-.455-9.55 3.286-10.004 8.356l-1.944 21.673c-.455 5.07 3.287 9.55 8.357 10.005M185.383 240.16c4.873 1.474 10.018-1.282 11.492-6.155l6.298-20.828c1.474-4.873-1.282-10.018-6.155-11.492-4.874-1.472-10.018 1.283-11.492 6.156l-6.298 20.828c-1.472 4.873 1.282 10.017 6.155 11.491" transform="translate(34 .53)"/>
            <path fill="#FFBFBF" d="M162.64 175.952c-.545 32.626 28.643 59.568 65.19 60.178 36.55.608 66.618-25.347 67.161-57.973.544-32.626-28.644-59.568-65.19-60.178-36.55-.609-66.619 25.346-67.162 57.973" transform="translate(34 .53)"/>
            <path fill="#F0AEAE" d="M151.717 174.916c-1.008 9.632 5.804 18.238 15.215 19.224 9.412.985 17.859-6.025 18.868-15.656 1.008-9.631-5.804-18.238-15.216-19.223-9.411-.986-17.86 6.023-18.867 15.655M209.605 168.844c-.083 0-.17-.005-.254-.016-1.15-.138-1.97-1.183-1.83-2.332.43-3.55-1.668-6.826-4.99-7.788-3.128-.91-6.466.503-8.126 3.428-.572 1.006-1.854 1.357-2.858.787-1.006-.572-1.36-1.851-.788-2.858 2.622-4.62 7.95-6.835 12.94-5.383 5.303 1.535 8.662 6.716 7.985 12.316-.13 1.065-1.033 1.846-2.08 1.846M193.31 183.524c-.08 4.84 6.551 8.874 14.812 9.012 8.26.137 15.022-3.674 15.103-8.514.081-4.84-6.55-8.874-14.81-9.012-8.262-.137-15.024 3.674-15.105 8.514" transform="translate(34 .53)"/>
            <path fill="#FFBFBF" d="M150.138 175.318c-.938 8.964 5.212 16.954 13.738 17.847 8.525.892 16.198-5.65 17.136-14.615.938-8.964-5.212-16.955-13.738-17.847-8.526-.893-16.198 5.651-17.136 14.615" transform="translate(34 .53)"/>
            <path fill="#F0AEAE" d="M166.636 174.873c-.047 2.816.93 5.116 2.182 5.137 1.25.02 2.304-2.245 2.35-5.062.048-2.816-.93-5.116-2.18-5.137-1.252-.02-2.305 2.246-2.352 5.062M156.06 174.25c-.047 2.817.93 5.117 2.181 5.138 1.252.02 2.305-2.245 2.352-5.061.047-2.816-.93-5.116-2.182-5.138-1.25-.02-2.304 2.246-2.35 5.062M256.179 127.48s-8.69-2.374-21.52-2.605c-6.28-.114-15.002 2.474-24.367 7.468-4.586 2.446-9.902 2.837-14.986 1.76-.055-.012-.11-.022-.166-.033-1.634-.316-2.115-2.4-.75-3.35 4.432-3.09 11.58-6.462 21.938-8.635 4.903-1.028 12.69-1.336 17.313-.948 12.119 1.02 22.538 6.342 22.538 6.342" transform="translate(34 .53)"/>
            <path fill="#F0AEAE" d="M239.866 170.976s14.782-34.647 1.093-46.925c-7.88-7.069-30.3 18.364-30.3 18.364s7.268 1.153 17.673 12.154c4.14 4.377 7.408 9.885 11.534 16.407" transform="translate(34 .53)"/>
            <path fill="#F0A96E" d="M235.071 90.172L236.615 92.104 239.37 89.901 237.826 87.97z" transform="translate(34 .53)"/>
            <path fill="#FCBD30" d="M244.114 92.347c12.67-.805 17.452-9.577 22.53-18.328 5.666-9.767 4.871-19.225-2.593-25.734 0 0-1.348 3.914-4.745 7.66-5.717 6.303-18.633 24.232-22.617 29.804-.726 1.015-.606 2.414.3 3.272 1.592 1.506 4.271 3.508 7.125 3.326" transform="translate(34 .53)"/>
            <path fill="#E1DCFF" d="M235.213 55.286c0 .813.66 1.473 1.473 1.473.814 0 1.473-.66 1.473-1.473 0-.814-.659-1.474-1.473-1.474-.813 0-1.473.66-1.473 1.474" transform="translate(34 .53)"/>
            <path fill="#FCBD30" d="M221.167 65.35s2.457 2.837 14.668.824c11.179-1.843 16.024-6.127 16.024-6.127L250.68 38.84c-.937-6.184-5.958-16.146-15.11-14.759l-12.707 2.326c-8.793 2.453-9.251 7.067-8.23 14.03.99 6.742 6.533 24.913 6.533 24.913" transform="translate(34 .53)"/>
            <path fill="#FDC68B" d="M227.78 25.999l-.5.218c-.642.28-1.388-.014-1.667-.655l-2.219-5.092c-.279-.641.014-1.387.654-1.666l.502-.22c.641-.28 1.387.014 1.666.654l2.22 5.094c.278.64-.015 1.387-.656 1.667" transform="translate(34 .53)"/>
            <path fill="#F0A96E" d="M223.826 21.46c-.518-1.187-.306-2.427.474-2.766.78-.34 1.831.349 2.35 1.538l1.168 2.707c.283.648-1.285.886-2.08.597-.868-.315-1.379-.852-1.379-.852l-.533-1.223z" transform="translate(34 .53)"/>
            <path fill="#FDC68B" d="M216.83 16.462c.217-.162.51-.184.823-.09-.273-.748-.478-1.328-.478-1.328-.146-.391-.24-.79-.297-1.187-.268-1.694.293-3.394 1.453-4.595l.061-.064c.088-.09.181-.173.276-.257l.145-.124c.081-.065.164-.127.25-.19.06-.042.121-.085.184-.126.09-.06.181-.114.275-.168.058-.033.117-.066.177-.098.114-.06.232-.116.352-.168.021-.008.04-.02.06-.028l.036-.013c.118-.048.237-.094.36-.135 2.778-.93 5.787.607 6.815 3.35 0 0 .227.575.515 1.32.174-.28.411-.458.682-.478.618-.046 1.181.745 1.257 1.767.068.917-.279 1.705-.798 1.89.01.04.017.075.02.1.286 2.019-.7 3.556-1.666 5.005-.419.629-1.025 1.076-1.709 1.305-.666.276-1.417.337-2.146.139-1.68-.458-3.433-.968-4.544-2.678-.015-.021-.03-.052-.05-.087-.167.063-.362.067-.567.019-.427-.101-.9-.43-1.272-.924-.614-.82-.71-1.785-.214-2.157" transform="translate(34 .53)"/>
            <path fill="#F0A96E" d="M220.051 8.067c.021-.009.04-.02.06-.028l.036-.013c.117-.049.237-.095.36-.136 2.778-.929 5.787.608 6.815 3.352 0 0 .227.574.515 1.32.173-.28.411-.46.682-.479.618-.046 1.18.745 1.257 1.766.067.917-.28 1.705-.798 1.892.01.04.017.073.02.098.286 2.02-.7 3.556-1.666 5.005-.419.63-1.026 1.077-1.709 1.306-.36.15-2.31-1.539-4.422-7.194-1.842-4.934-1.205-6.866-1.15-6.889" transform="translate(34 .53)"/>
            <path fill="#FCC23F" d="M228.792 15.06c-1.034.73-1.543 2.062-.962 3.25.563 1.15 1.94 1.623 3.115 1.174 2.766-1.06 1.875-5.23-1.145-4.83-.26.034-.56.566-.175.515.933-.123 1.814.278 2.245 1.127.532 1.05.11 2.367-1.055 2.738-2.182.696-3.624-2.333-1.763-3.65.327-.23.063-.553-.26-.325" transform="translate(34 .53)"/>
            <path fill="#F0A96E" d="M229.758 13.677s.201 1.19-.436 1.828l-.043-.888.479-.94z" transform="translate(34 .53)"/>
            <path fill="#FDC68B" d="M228.295 24.492L228.239 27.724 226.967 27.86 225.861 25.862z" transform="translate(34 .53)"/>
            <path fill="#FF881D" d="M231.546 30.265L231.527 24.962 228.131 23.616 227.386 27.8zM224.665 32.017L222.793 26.45 225.19 24.625 227.386 27.8z" transform="translate(34 .53)"/>
            <path fill="#FCBD30" d="M255.541 61.638s13.41.422 13.991-3.357c.717-4.655-8.49-14.872-12.074-21.246-4.654-8.274-12.138-14.22-20.327-13.041l.265.283 18.145 37.36z" transform="translate(34 .53)"/>
            <path fill="#A29C8F" d="M226.888 31.999c.152.8.924 1.324 1.723 1.172.8-.151 1.324-.923 1.172-1.723-.152-.8-.924-1.324-1.723-1.172-.799.153-1.324.924-1.172 1.723M227.908 39.244c.152.799.923 1.323 1.723 1.171.8-.151 1.324-.923 1.172-1.723-.153-.799-.924-1.324-1.723-1.172-.799.153-1.324.924-1.172 1.724M229.308 46.853c.152.8.924 1.324 1.723 1.172.8-.152 1.324-.924 1.172-1.723-.152-.8-.924-1.324-1.723-1.172-.799.153-1.324.924-1.172 1.723" transform="translate(34 .53)"/>
            <path fill="#FFAC34" d="M234.657 111.578c-5.37 14.202-21.238 21.361-35.44 15.99-14.202-5.37-21.36-21.237-15.99-35.439 5.37-14.202 21.237-21.362 35.44-15.99 14.201 5.371 21.361 21.237 15.99 35.439" transform="translate(34 .53)"/>
            <path fill="#FFBC3F" d="M229.862 109.195c-4.309 11.395-17.04 17.14-28.434 12.83-11.395-4.309-17.138-17.04-12.829-28.434 4.308-11.395 17.039-17.139 28.433-12.83 11.395 4.31 17.139 17.04 12.83 28.434" transform="translate(34 .53)"/>
            <path fill="#FFAC34" d="M211.331 90.25c.644-.294.872-1.178.508-1.973-.363-.795-1.18-1.201-1.825-.907l-7 3.202-4.668 2.134c-.644.295-.872 1.179-.509 1.974.364.796 1.182 1.202 1.826.907l4.667-2.135c1.52-.694 3.355-.074 4.603 1.379l-7.953 3.637c-.644.295-.87 1.179-.508 1.973.364.795 1.182 1.202 1.826.908l7.953-3.637c.282 1.894-.449 3.688-1.969 4.383l-4.667 2.135c-.152.069-.286.175-.395.312-.218.277-.319.66-.276 1.07.042.407.223.804.503 1.1.14.152.3.27.47.354l14.6 7.252c.357.178.721.183 1.02.046.298-.136.532-.414.633-.8.2-.768-.219-1.681-.93-2.035l-11.49-5.707 1.85-.846c2.82-1.29 4.041-4.844 3.08-8.375l1.286-.588c.644-.295.871-1.18.508-1.975-.364-.795-1.182-1.201-1.826-.906l-1.285.588c-.665-.991-1.495-1.782-2.396-2.388l2.364-1.081z" transform="translate(34 .53)"/>
            <path fill="#FF881D" d="M188.73 93.47l.81-1.994c.32-.642.67-1.27 1.007-1.907.377-.612.803-1.195 1.203-1.794.435-.574.918-1.111 1.376-1.67 1.945-2.134 4.34-3.854 6.963-5.071 2.637-1.188 5.509-1.863 8.397-1.927.72.022 1.444.018 2.162.063.715.094 1.433.16 2.142.277.7.169 1.404.322 2.098.502l2.03.712c-2.712-.926-5.58-1.362-8.421-1.23-2.84.13-5.656.79-8.232 1.988-2.591 1.164-4.937 2.854-6.903 4.908-1.968 2.054-3.531 4.496-4.632 7.143" transform="translate(34 .53)"/>
            <path fill="#FCD24F" d="M217.118 80.736c2.013.797 3.945 1.81 5.684 3.114 1.71 1.336 3.254 2.885 4.546 4.64 1.25 1.78 2.255 3.726 2.992 5.778.686 2.07 1.075 4.23 1.185 6.407.072 2.184-.21 4.365-.737 6.482-.344 1.035-.62 2.097-1.101 3.08l-.327.751c-.056.124-.105.252-.167.373l-.2.357-.802 1.43c-1.183 1.833-2.586 3.528-4.225 4.98-1.663 1.417-3.511 2.61-5.491 3.54-2.007.87-4.125 1.464-6.288 1.774-2.172.27-4.371.2-6.53-.128l-1.601-.344-.4-.086c-.132-.034-.261-.082-.391-.122l-.78-.252c-1.055-.29-2.034-.785-3.037-1.212-1.937-1.005-3.758-2.237-5.348-3.736-1.561-1.524-2.921-3.245-4.02-5.129-1.05-1.91-1.844-3.95-2.353-6.067-.461-2.129-.6-4.313-.47-6.479.172-2.167.693-4.285 1.427-6.32-.702 2.047-1.186 4.168-1.323 6.328-.094 2.157.079 4.322.569 6.424.527 2.09 1.328 4.104 2.384 5.98 1.102 1.851 2.46 3.537 4.01 5.024 1.583 1.46 3.382 2.656 5.287 3.644.989.417 1.952.903 2.99 1.184l.768.245c.128.04.254.086.384.12l.394.082 1.575.333c2.122.315 4.28.378 6.412.107 2.123-.31 4.198-.902 6.166-1.758 1.945-.908 3.76-2.073 5.399-3.46 1.613-1.418 2.995-3.079 4.163-4.878l.792-1.4.198-.352c.062-.118.11-.244.165-.366l.324-.737c.477-.966.75-2.009 1.09-3.026.52-2.082.817-4.223.768-6.375-.09-2.147-.454-4.28-1.113-6.332-.71-2.034-1.69-3.966-2.906-5.745-1.252-1.758-2.761-3.32-4.441-4.677-1.71-1.327-3.621-2.367-5.621-3.196" transform="translate(34 .53)"/>
            <path fill="#FCC23F" d="M221.651 21.765c-1.323 2.922-5.437-.305-3.166-2.413.288-.268.036-.6-.259-.325-1.163 1.081-1.365 2.973.052 3.973 1.436 1.015 3.246.19 3.917-1.294.157-.348-.436-.177-.543.059" transform="translate(34 .53)"/>
            <path fill="#FDC68B" d="M221.023 21.448s1.145.518 1.565.548c.318.023.055-1.107.055-1.107s-1.599.466-1.62.56" transform="translate(34 .53)"/>
            <path fill="#57575E" d="M214.945 19.263s5.584-4.535 5.876-9.305c.285-4.624-1.27-5.347-3.492-4.137-2.222 1.21-3.189 8.005-2.385 13.442" transform="translate(34 .53)"/>
            <path fill="#57575E" d="M217.465 5.634s4.959 6.226 10.543 5.854c5.584-.37-2.811-6.78-2.811-6.78l-7.732.926z" transform="translate(34 .53)"/>
            <path fill="#F0A96E" d="M184.98 91.407s-1.26.703-1.844.602c-.447-.078-1.426-1.123-1.426-1.123s1.81-3.266 2.49-4.096c.382-.468.534-.465 1.31-.266.513.132.778.661.665 1.613l-1.195 3.27z" transform="translate(34 .53)"/>
            <path fill="#F0A96E" d="M186.61 90.828l-.173.023c-.44.059-.847-.251-.907-.691l-.356-2.62.97-.132.465 3.42zM184.422 94.079c.536-.062.923-.548.86-1.085l-.284-2.456-.972.112.395 3.429z" transform="translate(34 .53)"/>
            <path fill="#F0A96E" d="M183.202 95.121c.54.013.99-.479 1.006-1.098l.068-2.831-.98-.023-.094 3.952z" transform="translate(34 .53)"/>
            <path fill="#F0A96E" d="M182.375 94.886c.54.013.99-.48 1.006-1.1l.068-2.83-.98-.022-.094 3.952z" transform="translate(34 .53)"/>
            <path fill="#F0A96E" d="M182.074 94.56c.54-.052.928-.591.871-1.209l-.264-2.819-.97.355.363 3.672zM185.687 87.861l-1.485-.514.637-1.432c.44-.989 1.424-1.42 2.413-.982l-1.565 2.928zM231.587 92.768s.306 2.03.771 2.486c.354.348 1.911.55 1.911.55s3.038-3.065 2.99-4.24c-.024-.562-.866-1.374-1.54-1.937-.446-.373-1.109-.323-1.49.116l-2.642 3.025z" transform="translate(34 .53)"/>
            <path fill="#F0A96E" d="M231.139 89.658l.002.027c.039.577.539 1.013 1.116.974l2.732-.186-.073-1.07-3.777.255zM229.24 94.681c-.196-.56.097-1.172.656-1.37l2.556-.904.358 1.013-3.57 1.261z" transform="translate(34 .53)"/>
            <path fill="#F0A96E" d="M228.89 96.338c-.25-.538.047-1.206.663-1.492l2.818-1.307.452.975-3.934 1.824z" transform="translate(34 .53)"/>
            <path fill="#F0A96E" d="M229.488 97.067c-.25-.538.048-1.206.665-1.492l2.817-1.307.452.975-3.934 1.824z" transform="translate(34 .53)"/>
            <path fill="#F0A96E" d="M230.767 97.834c-.3-.512-.068-1.205.518-1.55l2.678-1.571.306 1.092-3.502 2.029z" transform="translate(34 .53)"/>
            <path fill="#FFD0D0" d="M204.626 228.639l4.562 17.904s4.724 3.206 9.199.697c6.67-3.743 6.372-19.181 6.372-19.181s-2.87 2.046-10.367 2.072c-6.918.024-9.766-1.492-9.766-1.492" transform="translate(34 .53)"/>
            <g transform="translate(34 .53) translate(203 227)">
                <mask id="prefix__E" fill="#fff">
                    <use xlink:href="#prefix__D"/>
                </mask>
                <path fill="#FFD0D0" d="M.642 1.984l3.12 12.238c.387 1.522.544 4.202 1.41 5.535.792 1.22 2.937 1.751 4.27 2.017C20.751 24.025 22.895 8.91 22.772.917c-.01-.749-1.05-.776-1.519-.458-2.579 1.746-6.632 1.857-9.584 1.878-2.959.02-6.606.014-9.322-1.359-.84-.425-2.485.795-1.444 1.32C4.267 4 8.751 4.018 12.388 3.9c3.131-.102 7.16-.402 9.875-2.24l-1.519-.458c.05 3.25-.279 6.588-1.002 9.752-.549 2.404-1.334 4.973-2.889 6.931-1.935 2.438-7.508 3.776-9.86 1.051.285.332-.405-2.028-.535-2.535l-1.483-5.819L2.61 1.294C2.362.324.39.991.642 1.984" mask="url(#prefix__E)"/>
            </g>
            <path fill="#FFD0D0" d="M262.498 222.394l10.308 13.885s5.23 1.1 8.213-2.662c4.448-5.609-1.292-18.872-1.292-18.872s-1.758 2.79-8.242 5.474c-5.983 2.477-8.987 2.175-8.987 2.175" transform="translate(34 .53)"/>
            <path fill="#FFD0D0" d="M261.77 223.043l7.045 9.49c.876 1.18 1.963 3.447 3.187 4.294 1.12.775 3.165.474 4.413.23 10.595-2.066 7.084-15.918 4.141-22.795-.276-.645-1.185-.3-1.478.142-1.614 2.428-5.084 3.963-7.633 5.029-2.556 1.068-5.716 2.358-8.556 2.133-.878-.07-1.869 1.57-.782 1.657 3.517.278 7.407-1.298 10.515-2.692 2.675-1.2 6.057-2.89 7.755-5.445l-1.479.143c1.197 2.795 2.1 5.804 2.596 8.8.378 2.278.61 4.78-.04 7.029-.81 2.798-5.163 5.934-8.168 4.41.366.186-1.07-1.612-1.362-2.006l-3.35-4.513-5.347-7.202c-.558-.752-2.029.525-1.458 1.296" transform="translate(34 .53)"/>
            <path fill="#57575E" d="M72.871 212.414L78.8 242.317 77.722 242.317 69.277 213.3zM65.709 213.132L69.277 236.909 68.469 236.909 62.141 212.908zM39.854 213.845L33.924 238.102 35.002 238.102 43.447 214.564zM45.45 215.064L41.882 244.376 42.69 244.376 49.018 214.787z" transform="translate(34 .53)"/>
            <path fill="#A29C8F" d="M97.2 166.202c-1.694-10.707-10.302-7.765-13.352-5.088-1.524 1.338-5.964 8.912-7.828 8.721-1.863-.192-3.388-2.295-3.558-8.604-.34-12.619 7.116-27.149 13.894-43.21 6.778-16.06 0-20.266-8.133-21.414-8.133-1.146-23.044 6.501-34.904 7.266-11.861.765-20.672-4.589-20.672-4.589-4.405-3.059-8.133-4.11-11.353-3.68-3.22.43-6.817 1.027-9.03 4.053-5.127 7.013.389 30.983 4.794 53.161 4.406 22.179 7.117 35.18 17.622 50.093 10.505 14.913 23.383 14.53 33.888 14.53 10.506 0 26.094-9.941 31.698-19.501 5.605-9.559 8.629-21.031 6.934-31.738" transform="translate(34 .53)"/>
            <path fill="#7F786A" d="M57.819 217.571c13.465.054 28.043-10.584 33.647-20.144 5.605-9.559 7.345-20.606 5.65-31.313-.14-.89-.346-1.644-.603-2.278.18 4.396-.504 13.24-6.33 22.163-4.81 7.364-19.88 9.825-26.319 10.208-6.438.382-17.58 2.028-21.984-8.679-4.407-10.707-12.2-23.708-18.64-24.473-6.438-.764-6.438 6.883-8.471 7.648-2.034.764-4.255-13.12-6.1-25.62-2.76-18.69-3.226-35.345-3.226-35.345.204-6.192 3.35-10.528 8.39-10.694 4.318-.144 9.984 3.447 16.862 3.976.924.072 1.833.098 2.724.085-6.59-1.319-10.855-3.908-10.855-3.908-4.407-3.06-7.896-4.19-11.137-4.268-3.902-.092-7.188 1.565-9.56 4.433-4.744 5.735.701 31.19 5.107 53.37 4.406 22.177 7.117 35.178 17.622 50.091 10.506 14.913 22.717 14.705 33.222 14.748" transform="translate(34 .53)"/>
            <path fill="#57575E" d="M78.364 96.571c-5.34-.754-13.602 2.285-22.004 4.677.022.344 15.414-3.902 20.426-3.195 8.133 1.148 14.91 5.354 8.133 21.414-2.155 5.107-4.378 10.06-6.398 14.844.279.021.554.066.819.138.025.007.047.017.07.023 2.197-5.292 4.684-10.794 7.087-16.488 6.778-16.059 0-20.267-8.133-21.413" transform="translate(34 .53)"/>
            <path fill="#FFCEB2" d="M136.978 204.043s-8.385-8.846-15.762-17.175c-1.259 2.29-1.496 5.132-2.794 7.488 7.003 5.015 14.74 11.26 14.74 11.26l3.816-1.573z" transform="translate(34 .53)"/>
            <path fill="#A29C8F" d="M117.148 181.813c-6.897-8.212-14.836-19.432-15.724-20.255-2.18-2.023-6.435-5.817-13.51-1.447-5.05 3.118-26.996 16.406-26.996 16.406l-6.344-3.426-19.115 6.028s7.378 16.641 16.116 16.42c4.01-.102 10.724-1.83 16.348-4.712 14.208-7.28 28.741-20.202 28.741-20.202s4.802 11.006 13.878 18.688c2.835 2.4 6.124 4.882 9.305 7.161 1.298-2.356 2.688-4.673 3.947-6.965-2.136-2.41-4.388-5.007-6.646-7.696" transform="translate(34 .53)"/>
            <path fill="#7F786A" d="M59.185 194.139c.538-.266 1.075-.53 1.62-.782.108-.05.356-.155.43-.188.06-.022.12-.048.18-.07 1.342-.495 2.666-1.036 3.972-1.624 4.853-2.184 9.311-5.248 13.364-8.68.784-.662 1.545-1.31 2.288-1.934 1.926-1.337 3.711-2.641 5.303-3.86 4.031-3.082 6.836-5.612 7.62-6.723.922-1.305.736-1.707 1.706-3.007.268.43.606-2.471.838-2.075-.025.388-.004.78.065 1.162.55 3.06 1.427 6.007 2.524 8.892-1.606-2.752-2.428-4.635-2.428-4.635s-19.839 19.502-38.542 24.052c.355-.176.708-.354 1.06-.528" transform="translate(34 .53)"/>
            <path fill="#57575E" d="M131.404 198.738c-.328.698-.523 1.313-.578 1.83-.058.524.055.75.055.752l.095.182-.18.098-3.337 1.748 3.798 4.05c.602.642 1.248 1.533 1.815 2.32.52.72 1.011 1.4 1.345 1.711l.72.672 4.498 2.46.92-.852-2.34-3.14.008-.08c.014-.124.216-1.218 3.101-1.44 2.37-.183 3.587.175 3.956.314.424-.319 2.2-1.669 3.559-2.923 1.212-1.12 1.665-2.187 1.796-2.563l-.921-.564c-1.649.742-3.172 1.09-4.523 1.2-3.656.3-6.058-1.128-6.267-1.132l-.1-.002-4.857-6.314c-.363-.016-1.793.027-2.564 1.673" transform="translate(34 .53)"/>
            <path fill="#FFCEB2" d="M113.59 234.643s-2.791-11.822-4.971-22.697c-2.246 1.357-3.886 3.697-6.199 5.091 3.529 7.82 7.073 17.071 7.073 17.071l4.097.535z" transform="translate(34 .53)"/>
            <path fill="#A29C8F" d="M57.738 195.632c4.007-2.115 10.937-4.916 14.813-7.183 7.235-4.233 15.66-11.186 18.055-13.521.394-.385.89-.586 1.183-1.002 1.414-.141 2.548-.231 3.291-.254 8.331-.265 8.322 3.699 9.188 6.534.352 1.154 1.56 14.81 3.382 25.344.597 3.45 1.235 6.816 1.866 9.964-2.247 1.357-4.62 2.67-6.932 4.064-1.604-3.552-3.197-7.336-4.439-10.822-3.977-11.16-2.575-23.07-2.575-23.07s-23.118 7.559-37.832 9.946" transform="translate(34 .53)"/>
            <path fill="#7F786A" d="M99.79 209.178c-.85-3.613-1.699-7.277-2.015-10.983-.295-3.45-.087-6.926.102-10.375.171-3.147.366-5.195.276-8.348-1.497.643-3.289 3.898-4.746 4.57-2.77 1.277-5.956 1.869-8.737 3.122-5.486 2.473-9.506 3.147-15.423 4.323-3.243.643-7.287 1.72-10.567 2.033-2.637.25-6.179.735-8.8.149-5.938-1.328-9.562-9.633-10.544-15.612l-2.218.78s1.931 14.298 10.2 17.112c8.268 2.813 48.261-10.271 48.261-10.271s-1.403 11.91 2.574 23.07c.95 2.664 2.103 5.5 3.31 8.276-.557-2.651-1.074-5.293-1.674-7.846" transform="translate(34 .53)"/>
            <path fill="#57575E" d="M111.444 227.282c-.636.441-1.115.877-1.425 1.295-.316.427-.33.678-.332.68l-.01.204-.205-.004-3.771-.147 1.244 5.392c.197.855.304 1.947.399 2.911.087.881.168 1.714.3 2.15l.282.94 2.653 4.362 1.227-.278-.44-3.882.047-.064c.075-.1.802-.947 3.412.295 2.142 1.02 3.014 1.935 3.264 2.238.529-.065 2.748-.35 4.556-.76 1.615-.366 2.547-1.064 2.85-1.325l-.514-.945c-1.8-.178-3.293-.635-4.52-1.21-3.316-1.559-4.674-3.988-4.852-4.095l-.085-.052-1.017-7.878c-.306-.195-1.565-.867-3.064.173" transform="translate(34 .53)"/>
            <path fill="#F0A96E" d="M60.29 154.969c1.19-.462 3.672-2.618 5.633-5.432.86-1.232 1.71-2.506 2.47-3.672-.538-1.44-1.522-3.094-1.547-4.712-.008-.51.225-1.913.624-3.011.27-.743.614-1.345 1.011-1.432.335.084.3.556.157 1.163-.263 1.114-.89 2.682-.276 3.155.623-.562 1.193-2.222 1.328-3.018.033-.005.054.01.065.043.052-1.394 1.474-4.011 2.742-4.418 1.56-.501.388 1.018-.074 1.496-.782.809-.882 1.918-1.089 2.974.917-.438 1.08.137 1.1 1.01.937-.493 1.248.493 1.037 1.41.871-.064 0 3.45-.179 3.899-.572 1.449-1.562 3.112-2.859 3.34-.99 2.208-2.283 4.876-3.823 7.584-2.529 4.447-4.668 7.28-6.37 8.32-.488-2.853-.46-5.794.05-8.7" transform="translate(34 .53)"/>
            <path fill="#57575E" d="M13.832 124.225c.05.064.1.127.153.189.652.787 3.113 2.55 2.962 3.77-.135 1.091-2.408 1.916-2.954 2.737-1.81 2.72-.715 6.017.93 8.345 7.183 10.168 21.504 12.129 31.948 7.325 5.413-2.492 6.6-5.944 8.264-11.091 1.375-4.254 7.733-5.917 5.075-12.046-.63-1.453-2.601-2.615-2.923-4.152-.191-.913.388-1.709.84-2.467.973-1.63 2.896-3.072 2.962-5.15.039-1.243-.474-2.175-1.35-2.984-.674-.621-1.682-.886-1.778-1.911-.165-1.755 1.25-3.84 1.434-5.678.147-1.486.059-3.038-.306-4.474-.923-3.636-3.728-5.88-7.18-6.726-3.106-.76-6.375-.652-9.341.734-1.163.544-2.025 1.394-3.073 2.056-1.133.715-2.478.688-3.651 1.266-1.307.644-2.173 1.411-2.68 2.826-.53 1.478-.384 2.892-.168 4.37.167 1.144.504 2.03-.623 2.431-1.6.57-4.53-.162-6.286-.01-1.113.099-1.834.113-2.668.878-1.386 1.273-1.583 2.75-1.524 4.568.044 1.341.297 1.918-.968 2.584-3.198 1.681-7.012-.243-8.493 4.113-1.083 3.186-.614 5.968 1.398 8.498" transform="translate(34 .53)"/>
            <path fill="#57575E" d="M21.498 140.905c-1.645-2.328-2.74-5.625-.93-8.345.546-.82 2.819-1.644 2.954-2.736.15-1.22-2.31-2.983-2.962-3.77l-.153-.188c-2.012-2.53-2.481-5.312-1.398-8.498 1.48-4.358 5.295-2.432 8.493-4.113 1.265-.666 1.012-1.242.968-2.585-.06-1.817.137-3.294 1.524-4.568.834-.765 1.555-.779 2.668-.876 1.757-.153 4.687.58 6.286.01 1.127-.402.79-1.288.623-2.433-.216-1.477-.361-2.89.168-4.369.507-1.415 1.373-2.182 2.679-2.827 1.174-.578 2.519-.55 3.652-1.265 1.048-.66 1.909-1.512 3.073-2.055 1.658-.776 3.41-1.15 5.177-1.197-.873-.493-1.833-.868-2.851-1.117-3.106-.76-6.375-.653-9.341.734-1.163.544-2.025 1.394-3.073 2.055-1.133.714-2.478.687-3.651 1.266-1.307.644-2.173 1.411-2.68 2.826-.53 1.478-.384 2.892-.168 4.37.167 1.144.504 2.03-.623 2.431-1.6.57-4.53-.162-6.286-.009-1.113.097-1.834.111-2.668.876-1.387 1.274-1.584 2.751-1.524 4.568.044 1.343.296 1.92-.968 2.585-3.197 1.681-7.013-.245-8.493 4.113-1.083 3.186-.614 5.967 1.398 8.498.05.062.1.125.153.188.652.786 3.113 2.55 2.962 3.77-.135 1.092-2.408 1.916-2.954 2.736-1.81 2.72-.715 6.018.93 8.345 4.2 5.946 10.842 9.081 17.72 9.703-4.197-1.57-7.97-4.25-10.705-8.123" transform="translate(34 .53)"/>
            <path fill="#E7E1D3" d="M48.307 124.622c4.311 3.758 8.142 9.217 9.438 13.686.663 2.285.162 5.182-.569 8.024.95 4.683 1.79 8.708 2.702 8.729.11.003.25-.029.411-.092-.509 2.905-.537 5.845-.049 8.699-.835.51-1.566.592-2.185.216-.319-.195-.769-.5-1.312-.985.36 1.719.683 3.326.838 4.388.287 1.959.35 5.305-2.245 6.366-1.946-11.875-.799-23.6-1.19-35.326 0-5.348-3.268-9.274-5.839-13.705" transform="translate(34 .53)"/>
            <path fill="#FFF" d="M34.29 121.203c1.37-.304 4.04-.841 4.37-.973.833.189 5.412 1.262 7.173 2.466.833.57 1.663 1.218 2.475 1.926 2.57 4.431 5.839 8.357 5.839 13.705.39 11.726-.756 23.451 1.19 35.326-.122.05-.248.097-.382.136-1.725.509-2.843.95-3.83 1.34-.562.221-3.713 1.223-4.252 1.403-.958-5.855-2.946-18.28-4.145-24.271-2.561-13.019-4.444-22.337-8.438-31.058" transform="translate(34 .53)"/>
            <path fill="#E7E1D3" d="M28.051 128.44c2.182-4.35 4.977-7.02 7.863-7.662 8.137 10.37 7.846 24.203 10.408 37.222 1.198 5.99 2.236 11.874 3.193 17.73-.226.074-.456.147-.699.214-.79.22-1.814.545-2.896.89-2.56.815-5.745 1.83-7.68 2.018-1.836.172-3.272-2.13-4.938-4.804-1.083-1.738-7.019-16.735-7.329-25.869-.276-8.143.38-16.349 2.078-19.739" transform="translate(34 .53)"/>
            <path fill="#7F786A" d="M74.359 145.642c-.225.507-.851.918-1.4.918l-5.81-.004c-.547 0-.81-.41-.584-.918l5.257-11.847c.225-.506.85-.917 1.399-.917l5.81.001c.549.001.81.412.586.918l-5.258 11.849z" transform="translate(34 .53)"/>
            <path fill="#57575E" d="M74.658 145.837c-.225.507-.85.917-1.398.917l-5.812-.002c-.547-.001-.809-.412-.584-.918l5.258-11.848c.224-.506.851-.918 1.398-.918l5.811.003c.548 0 .81.412.585.918l-5.258 11.848z" transform="translate(34 .53)"/>
            <path fill="#7F786A" d="M75.93 136.697c-.242.551-.707.88-1.039.734-.332-.145-.405-.71-.164-1.26.242-.55.706-.88 1.038-.735.332.145.405.71.164 1.261" transform="translate(34 .53)"/>
            <path fill="#FDC68B" d="M63.686 147.038c.139-.394.417-3.154 1.328-3.979 1.02-.923 3.434-1.837 3.434-1.837l-.687 1.385-1.112 1.005s1.312 1.442 3.308 1.615l2.3-.601s3.379-2.485 3.74-2.142c.362.344.144.672-.146.997-.12.132-.543.496-1.001.878l-.044.079c.627-.456 1.272-.855 1.426-.701.317.315-.173.967-.517 1.298-.192.184-.36.376-.47.512.099-.094.23-.155.33.029.186.34-.532 1.483-.811 1.681-.28.199-.524.359-.524.359s.576-.135.385.382c-.19.517-1.857 1.416-1.857 1.416l-2.186.378-5.602-.446-.406.072-8.542 7.261c-6.24 5.303-12.544 8.656-15.891 9.236.344-3.26 1.302-6.58 2.132-9.681 5.148-1.215 18.25-7.687 21.413-9.196" transform="translate(34 .53)"/>
            <path fill="#FFA99E" d="M74.806 144.438L72.96 145.722 70.987 146.551 72.918 145.9zM75.328 145.447L73.309 146.753 70.898 147.683 73.439 146.899zM71.2 148.744L72.549 148.673 74.24 147.616 72.44 148.478z" transform="translate(34 .53)"/>
            <path fill="#57575E" d="M16.44 168.572s.917-6.396 6.885-5.34c5.969 1.056 9.032 6.002 12.924 13.108 3.89 7.105 6.528 15.176 8.032 17.566 2.259 3.587 5.027 4.854 5.027 4.854s-4.221-.72-7.827-6.895c-2.412-4.127-7.005-17.127-12.37-22.152-2.683-2.512-5.181-4.136-7.343-4.463-2.162-.326-3.988.644-5.328 3.322" transform="translate(34 .53)"/>
            <path fill="#F0A96E" d="M40.68 113.597l1-4.52c1.492 2.46 4.405 7.047 4.405 7.047s-.389 1.892-.536 3.119c-.058.487-.103 1.013-.119 1.535-2.105-2.035-3.575-4.215-4.75-7.18" transform="translate(34 .53)"/>
            <path fill="#FDC68B" d="M38.625 119.764s2.295-7.83 2.526-8.395c.513 2.64 2.521 6.57 4.398 7.874-.026.922-.076 3.366.194 4.01.81 1.931 5.82 9.551 1.504 11.212-2.434.936-5.35-4.575-6.567-6.739-2.174-3.871-2.055-7.962-2.055-7.962M41.477 109.773s.117-1.145.391-2.433c-.825-.409-1.28-1.416-1.045-2.44.272-1.183 1.36-1.94 2.428-1.695.455.104.833.376 1.097.743.594.301 1.775-1.952 2.1-3.36.407-1.776 4.013-3.183 5.373-2.878 2.334.525 3.812 1.333 3.76 4.292-.015.897-1.032 4.001-1.05 4.96-.02.94.262 1.645.056 2.415-.31 1.166-1.486 4.152-1.856 5.55-.485 1.838-1.077 3.071-2.19 3.18-2.474.241-6.192-2.937-7.782-5.42l-1.282-2.914z" transform="translate(34 .53)"/>
            <path fill="#FFF" d="M40.14 165.915s-2.552 1.569-4.682 0c-1.019-.752-2.53-2.936-3.963-5.597-1.558-2.895-3.022-6.357-3.659-9.156l-1.22-5.37s1.188 8.322 3.853 14.618c1.155 2.73 2.588 5.082 4.325 6.202 3.487 2.249 5.346-.697 5.346-.697M42.273 156.234s-2.383 1.153-3.649-1.044c-1.267-2.197-4.334-16.112-4.334-16.112s3.92 12.903 4.898 15.135c.98 2.233 3.085 2.021 3.085 2.021" transform="translate(34 .53)"/>
        </g>
    </g>
</svg>
