<svg xmlns="http://www.w3.org/2000/svg" xmlns:xlink="http://www.w3.org/1999/xlink" width="630" height="480" viewBox="0 0 630 480">
    <defs>
        <path id="prefix__a" d="M4.89.527c-1.325.024-2.56.556-3.482 1.498C.482 2.972-.015 4.218.01 5.535c.05 2.684 2.27 4.832 4.97 4.832h.09c1.325-.025 2.562-.557 3.484-1.5.925-.946 1.421-2.193 1.398-3.51C9.902 2.675 7.68.527 4.98.527h-.09m-3.342 4.98c-.017-.896.323-1.746.955-2.392.636-.651 1.494-1.02 2.413-1.036h.064c1.865 0 3.398 1.47 3.432 3.306.016.897-.323 1.747-.956 2.393-.636.652-1.494 1.02-2.413 1.037h-.067c-1.844 0-3.395-1.472-3.428-3.308"/>
        <path id="prefix__d" d="M7.19.226C3.632.29.8 3.25.864 6.834c.065 3.585 3.002 6.438 6.56 6.373 3.558-.067 6.39-3.024 6.326-6.61C13.685 3.055 10.815.226 7.31.226h-.12"/>
        <path id="prefix__g" d="M4.176.643C2.286.677.782 2.249.816 4.153.851 6.057 2.411 7.572 4.3 7.538c1.891-.035 3.394-1.607 3.36-3.51C7.627 2.145 6.1.643 4.24.643h-.064"/>
        <path id="prefix__j" d="M0 0.772L613.301 0.772 613.301 12.244 0 12.244z"/>
        <path id="prefix__l" d="M0 388.058L613.301 388.058 613.301 0.506 0 0.506z"/>
        <linearGradient id="prefix__b" x1="99.997%" x2="-.001%" y1="50.002%" y2="50.002%">
            <stop offset="0%" stop-color="#FBB62B"/>
            <stop offset="100%" stop-color="#FFCF44"/>
        </linearGradient>
        <linearGradient id="prefix__e" x1="99.998%" x2=".002%" y1="49.999%" y2="49.999%">
            <stop offset="0%" stop-color="#FBB62B"/>
            <stop offset="100%" stop-color="#FFCF44"/>
        </linearGradient>
        <linearGradient id="prefix__h" x1="99.996%" x2=".006%" y1="49.994%" y2="49.994%">
            <stop offset="0%" stop-color="#FBB62B"/>
            <stop offset="100%" stop-color="#FFCF44"/>
        </linearGradient>
    </defs>
    <g fill="none" fill-rule="evenodd" transform="translate(8 91)">
        <g>
            <path fill="#FFC97B" d="M30.752 174.909l1.255-4.957c-11.497.033-15.632-1.788-16.546-2.286-.078-.859-.196-1.49-1.078-1.714-1.117-.285-1.764.517-2.048 1.636-.283 1.119-.095 2.133 1.022 2.416.88.225 1.286-.274 1.763-.991 1.04-.001 5.542.373 15.632 5.896M35.195 156.902l4.88-1.499c-6-9.826-6.592-14.313-6.643-15.355.692-.512 1.17-.942.902-1.813-.337-1.104-1.356-1.242-2.458-.903-1.102.338-1.868 1.026-1.53 2.129.266.87.9.959 1.76.994.542.89 2.56 4.94 3.09 16.447M44.782 200.174l-4.914-1.381c-.253 11.517-2.174 15.613-2.694 16.516-.859.057-1.492.16-1.738 1.036-.311 1.112.472 1.781 1.582 2.092 1.11.312 2.125.15 2.436-.962.246-.878-.24-1.295-.945-1.79.025-1.042.51-5.542 6.273-15.511" transform="translate(14)"/>
            <path fill="#FFAC34" d="M64.775 174.52l-.498 5.09c11.361-1.763 15.723-.582 16.701-.228.205.837.417 1.444 1.322 1.533 1.147.113 1.668-.777 1.78-1.925.112-1.15-.225-2.123-1.372-2.235-.905-.09-1.23.463-1.594 1.245-1.028.156-5.536.465-16.339-3.48" transform="translate(14)"/>
            <path fill="#FEE1A2" d="M65.016 135.919c-.734 1.097-.25 1.893.497 2.894-.377 1.066-1.982 4.68-7.966 11.09-3.006-1.126-6.26-1.744-9.658-1.744-1.583 0-3.135.136-4.646.392-1.678-4.674-1.858-7.117-1.846-8.023.41-.25.859-.624.936-1.287.018-.162.013-.336-.016-.517-.102-.639-.445-1.108-.993-1.36-.425-.195-.951-.245-1.564-.147-1.154.185-1.875.797-1.977 1.68-.02.175-.015.36.015.55.158.99.86 1.29 1.435 1.426.298.872.902 3.314.733 8.445-2.808.843-5.427 2.121-7.78 3.757-7.858-5.782-10.135-9.308-10.662-10.287.519-.978.834-1.74.043-2.601-1-1.09-2.258-.685-3.347.319-1.09 1.003-1.598 2.225-.595 3.315.79.861 1.574.61 2.59.174.92.602 4.187 3.128 9.204 11.276-2.372 2.143-4.37 4.695-5.885 7.543-6.324-.982-8.777-2.341-9.415-2.764-.003-.794-.062-1.384-.854-1.66-1.003-.35-1.66.335-2.01 1.34-.349 1.005-.257 1.95.746 2.3.792.277 1.203-.149 1.698-.77.752.064 3.454.514 8.869 3.562-1.228 2.84-1.993 5.927-2.202 9.168-10.012 1.853-14.398 1.098-15.57.799-.415-1.178-.806-2.024-2.124-2.024-1.672 0-2.296 1.357-2.296 3.03 0 1.675.624 3.032 2.296 3.032 1.318 0 1.71-.845 2.123-2.024 1.173-.299 5.559-1.053 15.57.8.247 3.818 1.265 7.424 2.903 10.663-5.462 4.595-8.349 5.596-9.127 5.797-.59-.53-1.067-.881-1.802-.477-.93.513-.865 1.46-.353 2.394.511.932 1.274 1.497 2.205.985.735-.404.694-.995.566-1.78.588-.55 2.987-2.46 9.816-4.617 2.298 3.633 5.418 6.692 9.1 8.915-1.767 3.752-3.118 5.385-3.698 5.976-.47-.103-1.051-.143-1.563.283-.126.103-.242.233-.346.384-.366.532-.443 1.109-.22 1.67.173.436.519.836 1.029 1.19.962.665 1.904.722 2.587.154.135-.113.26-.25.369-.408.569-.826.27-1.528-.053-2.025.356-.774 1.452-2.7 4.514-5.831 3.115 1.45 6.547 2.334 10.162 2.52 2.682 12.41 1.798 17.635 1.467 18.933-1.176.415-2.02.807-2.02 2.128 0 1.674 1.355 2.3 3.025 2.3 1.671 0 3.026-.626 3.026-2.3 0-1.32-.844-1.713-2.02-2.128-.331-1.304-1.224-6.575 1.509-19.123 4.305-.555 8.3-2.105 11.748-4.412 6.177 4.748 7.859 7.561 8.229 8.313-.398.688-.643 1.227-.098 1.865.691.809 1.603.55 2.41-.143.808-.69 1.203-1.554.512-2.363-.545-.639-1.114-.478-1.853-.192-.679-.478-3.157-2.545-6.834-9.253 2.986-2.498 5.438-5.616 7.155-9.158 10.8 1.195 14.973 3.326 16.035 3.98.046 1.25.168 2.172 1.427 2.565 1.596.497 2.595-.611 3.092-2.21.496-1.598.302-3.08-1.293-3.578-1.259-.393-1.883.298-2.629 1.3-1.232-.065-5.798-.673-15.178-5.693.849-2.658 1.31-5.49 1.31-8.431 0-1.568-.134-3.105-.384-4.602 5.796-2.114 8.696-2.266 9.7-2.229.24.418.602.876 1.26.97.163.022.337.021.518-.004.64-.086 1.116-.419 1.38-.96.206-.422.268-.948.185-1.564-.156-1.16-.749-1.897-1.627-2.021-.174-.025-.358-.024-.55.002-.992.134-1.308.83-1.458 1.402-.981.31-3.935.956-10.396.386-1.01-3.09-2.55-5.94-4.512-8.443 3.923-4.026 6.11-5.04 6.707-5.26.508.37.911.61 1.459.233.693-.478.566-1.22.09-1.915-.478-.695-1.123-1.08-1.817-.602-.547.376-.47.84-.306 1.447-.423.485-2.191 2.206-7.51 4.477-2.27-2.476-4.982-4.536-8.014-6.053 3.528-7.623 6.16-10.386 6.983-11.126 1.208.311 2.128.457 2.862-.642.93-1.39.151-2.666-1.237-3.597-1.389-.932-2.861-1.167-3.791.224" transform="translate(14)"/>
            <path fill="#FFC97B" d="M49.24 193.77c1.692 0 3.065.916 3.065 2.047 0 1.131-1.373 2.047-3.065 2.047-1.693 0-3.065-.916-3.065-2.047 0-1.13 1.372-2.047 3.065-2.047M37.013 162.155c-1.466.847-3.112.742-3.675-.238-.565-.978.166-2.46 1.632-3.308 1.465-.848 3.111-.741 3.676.239.563.978-.167 2.46-1.633 3.307" transform="translate(14)"/>
            <path fill="#FFAC34" d="M64.122 184.253c.968-.97 2.276-1.232 2.922-.586.646.647.385 1.957-.585 2.928-.967.97-2.276 1.233-2.921.585-.646-.647-.384-1.957.584-2.927" transform="translate(14)"/>
            <path fill="#FFC97B" d="M31.355 183.337c1.117 1.939.978 4.116-.313 4.863-1.29.745-3.242-.221-4.36-2.16-1.116-1.94-.976-4.117.314-4.863 1.29-.747 3.242.22 4.36 2.16M49.37 175.647c.084 1.924-1.053 3.538-2.542 3.604-1.488.066-2.764-1.44-2.85-3.364-.084-1.925 1.053-3.539 2.542-3.604 1.487-.067 2.763 1.44 2.85 3.364M64.536 161.933c1.117 1.94.978 4.116-.313 4.863-1.29.746-3.242-.22-4.359-2.16-1.117-1.94-.977-4.116.313-4.863 1.29-.747 3.242.22 4.36 2.16" transform="translate(14)"/>
            <path fill="#FFF4DD" d="M238.21 64.288c39.99-27.75 82.698-46.627 126.306-56.174C386.91 3.21 409.546.766 432.178.844c9.838.033 20.287-.984 29.957.363 10.193 1.42 19.947 9.164 29.524 14.03 11.81 6 23.437 13.366 33.856 23.733 16.552 16.47 30.152 42.221 31.895 71.853 1.742 29.632-11.337 61.759-30.944 66.643-3.689.918-7.87 1.182-10.395 5.312-4.263 6.977.059 18.743 5.783 22.74 5.724 3.998 12.444 3.853 18.148 7.919 11.648 8.304 15.101 32.37 10.23 50.251-4.87 17.88-15.786 30.406-26.972 40.029-53.12 45.693-118.07 43.36-179.291 39.734-2.933-.174-6.075-.456-8.401-3.137-2.326-2.681-3.108-8.71-.744-11.313-93.296-.312-184.864 64.195-277.194 44.145-12.114-2.63-25.988-9.07-30.118-26.316-3.814-15.927 2.718-33.01 9.713-46.3 43.074-81.841 111.147-123.995 177.632-154.873 5.838-2.713 11.904-5.546 16.387-11.765 4.482-6.22 6.837-16.914 3.67-24.738-2.623-6.475-8.265-9.495-10.3-16.426-3.49-11.89 5.724-22.978 13.596-28.44" transform="translate(14)"/>
            <path fill="#FFC97B" d="M209.337 46.348l2.573 2.368c3.714-6.952 6.153-8.856 6.75-9.246.54.233.958.365 1.38-.094.533-.581.261-1.233-.32-1.767-.58-.535-1.25-.75-1.784-.168-.42.459-.252.865.024 1.386-.338.628-2.024 3.224-8.623 7.521M196.52 47.482l3.441-.6c-3.237-7.187-3.257-10.284-3.203-10.996.515-.289.875-.54.768-1.154-.135-.779-.815-.96-1.592-.824-.777.136-1.356.536-1.222 1.315.107.614.531.728 1.112.826.291.65 1.317 3.573.695 11.433M186.65 48.622l1.895-2.94c-7.466-2.494-9.751-4.58-10.236-5.104.137-.574.198-1.01-.325-1.347-.663-.43-1.257-.051-1.685.613-.428.663-.527 1.362.136 1.79.523.338.894.104 1.36-.257.675.227 3.513 1.454 8.855 7.245M194.94 66.967l-2.414-2.53c-4.157 6.694-6.715 8.435-7.336 8.785-.525-.266-.933-.428-1.384.003-.57.546-.341 1.214.203 1.785.545.571 1.2.83 1.771.285.45-.431.308-.847.066-1.385.378-.606 2.23-3.086 9.094-6.943M208.716 68.84l-3.343 1.02c4.092 6.734 4.491 9.806 4.524 10.519-.474.349-.801.642-.62 1.239.229.756.927.853 1.682.622.754-.23 1.28-.699 1.05-1.455-.18-.596-.615-.657-1.204-.683-.368-.61-1.745-3.385-2.09-11.262" transform="translate(14)"/>
            <path fill="#FEE8B7" d="M235.206 53.317c-1.043-.015-1.362.65-1.702 1.578-.844.202-3.787.673-10.227-.42-.402-2.766-1.355-5.352-2.745-7.643 4.774-5.945 7.54-7.497 8.264-7.828.627.388 1.12.633 1.727.143.77-.62.555-1.478-.064-2.248-.62-.771-1.41-1.164-2.18-.544-.607.49-.474 1.025-.228 1.721-.475.633-2.549 2.977-9.238 6.337-1.773-2.147-3.974-3.924-6.472-5.202.963-5.254 2.15-7.207 2.502-7.695.591.024 1.032 0 1.263-.583.292-.737-.196-1.251-.933-1.544-.735-.294-1.442-.255-1.734.483-.23.582.073.902.519 1.292-.078.593-.547 2.81-3.4 7.241-2.096-.827-4.363-1.316-6.731-1.403-1.192-7.438-.58-10.72-.34-11.617.937-.315 1.608-.616 1.623-1.662.017-1.323-1.047-1.833-2.369-1.853-1.321-.018-2.4.463-2.417 1.787-.014 1.045.648 1.364 1.574 1.706.216.907.742 4.232-.682 11.71-3.348.3-6.465 1.412-9.15 3.137-3.37-3.13-4.4-4.99-4.66-5.565.387-.63.63-1.123.142-1.731-.62-.77-1.474-.557-2.244.065-.77.62-1.162 1.411-.542 2.182.488.608 1.022.475 1.717.23.5.376 2.075 1.761 4.378 5.659-3.27 2.45-5.784 5.86-7.124 9.811-7.436.788-10.443-.063-11.182-.339-.17-.72-.346-1.24-1.12-1.325-.982-.106-1.436.652-1.542 1.636-.106.983.175 1.82 1.157 1.927.776.084 1.059-.387 1.377-1.054.766-.11 3.779-.292 10.585 1.925-.233 1.237-.356 2.511-.356 3.815 0 2.562.473 5.015 1.33 7.275-3.298 2.98-5.212 3.873-5.859 4.113l-.051-.039c-.403-.303-.902-.558-1.548-.16-.413.252-.64.624-.658 1.072-.013.364.11.762.37 1.184.181.298.385.533.607.698.476.358 1.02.381 1.53.067.687-.421.644-1.026.55-1.518.495-.46 2.092-1.713 6.027-3.257 1.561 3.003 3.844 5.57 6.618 7.469-1.627 4.064-2.914 5.534-3.308 5.916-.577-.124-1.016-.175-1.342.358-.415.677-.023 1.267.653 1.682.675.415 1.377.499 1.792-.178.327-.534.083-.901-.29-1.362.162-.524.884-2.335 3.753-5.62 2.656 1.546 5.692 2.51 8.934 2.715 1.075 7.047.488 10.19.253 11.064-.935.315-1.607.615-1.622 1.66-.018 1.324 1.046 1.834 2.368 1.854 1.321.017 2.4-.463 2.417-1.786.015-1.046-.648-1.365-1.574-1.706-.21-.881-.711-4.043.564-11.072 3.746-.198 7.225-1.408 10.168-3.363 3.213 3.755 3.955 5.775 4.111 6.334-.385.45-.639.81-.326 1.354.395.688 1.1.624 1.786.227.687-.396 1.095-.975.7-1.663-.313-.542-.752-.504-1.334-.395-.409-.42-1.811-2.117-3.472-6.925 2.28-1.822 4.161-4.124 5.493-6.752 2.823 1.052 4.087 1.936 4.53 2.298l-.007.064c-.057.502-.023 1.061.645 1.418.429.228.862.237 1.258.024.319-.172.598-.482.83-.918.164-.309.263-.605.293-.88.067-.591-.188-1.073-.718-1.356-.71-.378-1.21-.036-1.585.297-.554-.168-2.02-.739-4.522-2.546.951-2.363 1.476-4.943 1.476-7.647 0-.287-.008-.572-.02-.855 6.312-.87 9.181-.327 10.009-.103.315.936.615 1.61 1.659 1.624 1.321.018 1.83-1.048 1.85-2.373.017-1.323-.462-2.403-1.784-2.422" transform="translate(14)"/>
            <path fill="#FFC97B" d="M192.951 48.817c-1.103 1.106-2.595 1.405-3.332.668-.734-.738-.436-2.232.667-3.338 1.104-1.106 2.596-1.405 3.332-.667.735.737.437 2.231-.667 3.337M202.983 59.58c-1.827 0-3.307-1.21-3.307-2.701 0-1.493 1.48-2.701 3.307-2.701 1.826 0 3.306 1.208 3.306 2.7 0 1.492-1.48 2.702-3.306 2.702M194.277 64.423c.921 1.263.985 2.786.145 3.4-.84.615-2.268.09-3.188-1.173-.921-1.264-.986-2.786-.146-3.401.84-.615 2.268-.09 3.189 1.174M219.969 59.746c-.643 1.426-1.933 2.233-2.882 1.804-.948-.43-1.196-1.934-.552-3.36.643-1.425 1.933-2.232 2.881-1.802.948.43 1.196 1.933.553 3.358M206.883 73.167c-1.08.374-2.156.094-2.405-.627-.25-.72.423-1.608 1.502-1.983s2.155-.094 2.404.626c.25.722-.423 1.61-1.501 1.984M204.684 44.151c-1.312-.307-2.21-1.267-2.004-2.143.204-.877 1.434-1.337 2.746-1.03 1.311.308 2.208 1.268 2.003 2.144-.204.875-1.433 1.336-2.745 1.029" transform="translate(14)"/>
            <path fill="#306B34" d="M19.04 262.679c-.15 1.176.167 2.334.891 3.262 1.5 1.918 4.298 2.24 6.238.72.957-.745 1.541-1.795 1.692-2.974.148-1.176-.169-2.335-.893-3.262-1.5-1.918-4.297-2.241-6.237-.72l-.052.042c-.912.735-1.493 1.773-1.64 2.932m8.23 5.39c-2.716 2.129-6.638 1.669-8.743-1.026-1.02-1.306-1.468-2.937-1.258-4.59.21-1.65 1.046-3.133 2.363-4.156 2.715-2.129 6.637-1.669 8.743 1.026 1.02 1.306 1.468 2.936 1.257 4.59-.205 1.62-1.017 3.072-2.29 4.1l-.072.057" transform="translate(14)"/>
            <path fill="#619440" d="M88.988 353.71c-.726-3.216-2.598-13.933-5.686-15.072-3.369-1.241-7.532.353-9.215 3.528-.726 1.371-1.047 2.994-2.44 3.914-.779.515-1.849.521-2.492-.156-1.048-1.105-.053-2.79.801-4.004 1.636-2.326 2.802-5.072 2.814-7.917.012-2.846-1.267-5.779-3.655-7.319s-5.883-1.362-7.81.728c-1.205 1.307-1.713 3.16-3.289 4.182-.818.53-1.89.638-2.682.068-1.597-1.151-.519-3.625.564-5.262 1.53-2.312 2.875-4.829 3.277-7.574.402-2.745-.271-5.766-2.283-7.673-2.012-1.906-5.475-2.308-7.554-.477-.833.735-1.387 1.735-2.164 2.528-.932.951-2.438 1.61-3.577.599-.79-.7-.922-1.873-.53-2.854.543-1.36 1.64-2.18 2.727-3.018 1.714-1.32 2.898-3.258 3.15-5.41.756-6.428-6.344-8.903-10.347-6.082-1.123.793-2.247 2.002-3.62 1.614-1.084-.305-1.678-1.449-1.56-2.571.235-2.217 2.066-3.5 3.038-5.302 1.778-3.295-.219-8.005-3.82-9.01-2.755-.768-3.47 2.808-4.717 5.936-.287.718-1.342.566-1.424-.204-.321-3.064-1.332-6.888-2.106-8.999-1.421-3.872-7.203-8.12-9.964-2.549-.741 1.493-.178 5.337.776 6.401 1.348 1.504 4.559 6.674 4.559 6.674.302.592-.368 1.211-.926.85-1.266-.816-2.624-1.456-4.186-1.598-.714-.064-1.446.006-2.123.241-4.042 1.395-3.415 6.38-.833 8.768 2.146 1.985 5.15 2.666 7.992 3.343 1.472.351 3.064.799 3.796 2.234.415.813.317 1.849-.379 2.439-.803.683-1.72.301-2.604.19-2.891-.37-5.518 2.515-5.491 5.434.027 2.92 2.162 5.518 4.781 6.802 2.617 1.283 5.638 1.46 8.548 1.31 1.436-.072 2.982-.196 4.117.87.67.627.87 1.683.308 2.411-.8 1.034-2.29.57-3.539.502-3.464-.193-6.218 3.673-5.67 7.106.545 3.434 3.567 6.069 6.879 7.109 3.73 1.172 7.788.674 11.62.135.902-.128 1.828.36 2.107 1.23.387 1.204-.71 1.892-1.567 2.515-3.31 2.406-4.605 7.232-2.944 10.975 1.662 3.745 6.106 6.015 10.106 5.164 2.541-.541 4.858-2.18 7.613-1.35 1.364.411 2.345 1.719 2.084 3.122-.329 1.77-2.31 2.274-3.792 3.104-4.112 2.3-4.803 8.515-2.101 12.379 2.702 3.863 11.378 3.986 16.078 3.687 4.699-.299 14.506-.71 19.526-3.912 2.364-1.509.554-16.563-.171-19.78" transform="translate(14)"/>
            <path fill="#306B34" d="M14.424 275.354c-.74 1.493-.178 5.338.776 6.401 1.349 1.504 4.56 6.674 4.56 6.674.301.591-.37 1.21-.927.85-1.266-.815-2.624-1.456-4.185-1.598-.714-.065-1.447.007-2.125.24-4.04 1.396-3.414 6.38-.832 8.769 2.147 1.984 5.15 2.666 7.991 3.344 1.473.35 3.066.797 3.798 2.232.414.814.315 1.85-.38 2.44-.803.683-1.72.302-2.604.189-2.892-.369-5.518 2.515-5.49 5.435.026 2.92 2.162 5.517 4.78 6.801 2.617 1.283 5.637 1.46 8.548 1.31 1.436-.072 2.982-.195 4.117.87.67.629.87 1.685.308 2.412-.8 1.035-2.29.57-3.538.501-3.466-.192-6.218 3.673-5.673 7.107.546 3.434 3.569 6.069 6.88 7.109 3.73 1.171 7.79.674 11.622.135.901-.127 1.827.36 2.106 1.229.388 1.205-.71 1.894-1.567 2.516-3.31 2.406-4.605 7.232-2.943 10.976 1.662 3.744 6.105 6.014 10.105 5.163 2.542-.54 4.858-2.181 7.612-1.35 1.365.41 2.346 1.718 2.086 3.122-.33 1.77-2.31 2.275-3.793 3.104-4.112 2.3-8.33 11.103-5.63 14.966 2.703 3.865 14.907 1.399 19.606 1.1 4.385-.28 13.218-.656 18.458-3.307.376-.19 1.07-.606 1.07-.606s-25.952-22.594-48.397-52.546C28.296 304.305 17.21 272.78 17.21 272.78s-.438.096-.945.455c-.873.619-1.696 1.825-1.841 2.119" transform="translate(14)"/>
        </g>
        <g transform="translate(41 268)">
            <mask id="prefix__c" fill="#fff">
                <use xlink:href="#prefix__a"/>
            </mask>
            <path fill="url(#prefix__b)" d="M4.89.527c-1.325.024-2.56.556-3.482 1.498C.482 2.972-.015 4.218.01 5.535c.05 2.684 2.27 4.832 4.97 4.832h.09c1.325-.025 2.562-.557 3.484-1.5.925-.946 1.421-2.193 1.398-3.51C9.902 2.675 7.68.527 4.98.527h-.09m-3.342 4.98c-.017-.896.323-1.746.955-2.392.636-.651 1.494-1.02 2.413-1.036h.064c1.865 0 3.398 1.47 3.432 3.306.016.897-.323 1.747-.956 2.393-.636.652-1.494 1.02-2.413 1.037h-.067c-1.844 0-3.395-1.472-3.428-3.308" mask="url(#prefix__c)"/>
        </g>
        <g transform="translate(54 279)">
            <mask id="prefix__f" fill="#fff">
                <use xlink:href="#prefix__d"/>
            </mask>
            <path fill="url(#prefix__e)" d="M7.19.226C3.632.29.8 3.25.864 6.834c.065 3.585 3.002 6.438 6.56 6.373 3.558-.067 6.39-3.024 6.326-6.61C13.685 3.055 10.815.226 7.31.226h-.12" mask="url(#prefix__f)"/>
        </g>
        <g transform="translate(14 314)">
            <mask id="prefix__i" fill="#fff">
                <use xlink:href="#prefix__g"/>
            </mask>
            <path fill="url(#prefix__h)" d="M4.176.643C2.286.677.782 2.249.816 4.153.851 6.057 2.411 7.572 4.3 7.538c1.891-.035 3.394-1.607 3.36-3.51C7.627 2.145 6.1.643 4.24.643h-.064" mask="url(#prefix__i)"/>
        </g>
        <g transform="translate(0 375.814)">
            <mask id="prefix__k" fill="#fff">
                <use xlink:href="#prefix__j"/>
            </mask>
            <path fill="#F7E8C8" d="M0 4.411c-.275 4.326 136.794 7.833 306.153 7.833 169.357 0 306.873-3.507 307.148-7.833C613.576.085 476.237.82 306.88.82 137.52.819.275.085 0 4.41" mask="url(#prefix__k)"/>
        </g>
        <mask id="prefix__m" fill="#fff">
            <use xlink:href="#prefix__l"/>
        </mask>
        <path fill="#FFF" d="M305.254 380.224L442.844 380.224 442.844 26.956 305.254 26.956z" mask="url(#prefix__m)"/>
        <path fill="#F7E8C8" d="M305.254 380.225L305.254 26.956 442.844 26.956 442.844 380.225 455.972 380.225 455.972 13.826 292.128 13.826 292.128 380.225z" mask="url(#prefix__m)"/>
        <path fill="#F7E8C8" d="M383.764 47.854L442.844 26.956 442.844 380.225 383.764 380.225z" mask="url(#prefix__m)"/>
        <path fill="#A29C8F" d="M442.197 380.224L443.491 380.224 443.491 26.956 442.197 26.956z" mask="url(#prefix__m)"/>
        <path fill="#A29C8F" d="M456.618 380.225L455.324 380.225 455.324 14.472 292.127 14.473 292.127 13.179 456.618 13.179z" mask="url(#prefix__m)"/>
        <path fill="#FCBD30" d="M363.275 63.774s-12.05-1.324-16.323 3.24c-3.68 3.93-15.614 49.173 10.088 54.137 25.702 4.963 24.83-30.096 24.83-30.096l-18.595-27.281z" mask="url(#prefix__m)"/>
        <path fill="#FCE5BE" d="M363.275 63.774c-3.31-.085-6.645.03-9.83.755-3.132.702-6.419 1.956-7.207 5.189-2.253 6.093-3.527 12.647-4.099 19.158-.637 6.5-.46 13.182 1.515 19.362 1.779 6.232 6.815 11.433 13.386 12.913-3.298-.417-6.506-1.817-9.092-4.032-2.589-2.233-4.408-5.249-5.586-8.424-2.35-6.416-2.504-13.324-1.996-19.98.742-6.661 1.99-13.28 4.616-19.532.36-.779.711-1.54 1.296-2.309.627-.728 1.349-1.232 2.12-1.668 1.55-.834 3.223-1.263 4.887-1.53 3.345-.455 6.704-.386 9.99.098" mask="url(#prefix__m)"/>
        <path fill="#F5EFE4" d="M330.83 205.162c.478-.616 1.442-1.043 2.004-.502.802.77.174 4.21.174 4.21l-3.161-.184s.301-2.645.983-3.524" mask="url(#prefix__m)"/>
        <path fill="#FFE2B7" d="M333.298 214.021s-1.818 1.28-2.635 1.361c-.624.064-2.096-1.027-2.096-1.027s.648-4.072 1.184-5.456c.371-.96.932-1.687 2.038-1.71.735-.015 1.952-.735 1.983-.001l-.474 6.833z" mask="url(#prefix__m)"/>
        <path fill="#7F786A" d="M324.522 206.555c-8.693-5.432-13.118-20.963-9.158-34.137 4.418-14.701 12.493-25.24 25.46-23.853 0 0 .61 23.131.006 29.988-1.209 13.736-2.434 27.727-2.434 27.727s-8.773 3.462-13.874.275" mask="url(#prefix__m)"/>
        <path fill="#7F786A" d="M343.341 156.448l-17.917 5.232s5.322-27.838 5.74-35.325c.543-9.721 5.405-21.934 16.971-25.21l-.309 5.742-4.485 49.561z" mask="url(#prefix__m)"/>
        <path fill="#FFC581" d="M336.738 376.42s2.8-4.64 4.036-6.817c.202-.355 1.711-9.648 1.711-9.648l5.273 1.317-3.605 8.467s-4.55 7.673-4.737 7.69c-.187.019-2.678-1.008-2.678-1.008" mask="url(#prefix__m)"/>
        <path fill="#7F786A" d="M344.067 369.763s2.296 1.344 1.806 4.669c-.49 3.324-1.004 5.7-1.004 5.7l-1.245.118-.252-4.035s-1.237.955-2.558 3.53c-.595 1.158-7.333 1.219-7.333 1.219s-1.457-1.205 1.059-2.646c.623-.358 2.331-2.049 2.331-2.049s1.115 1.312 2.651-.014c.69-.593 1.955-2.172 2.831-3.498 1.08-1.633 1.714-2.994 1.714-2.994" mask="url(#prefix__m)"/>
        <path fill="#FFC581" d="M381.826 376.685s3.597-4.521 4.011-6.832c.073-.402-1.152-6.494-1.152-6.494l4.567 1.854s-.366 3.323-.247 4.424c.052.487.526 1.887.526 1.887s-4.837 6.141-5.024 6.16c-.188.018-2.681-1-2.681-1" mask="url(#prefix__m)"/>
        <path fill="#7F786A" d="M389.13 370s2.301 1.337 1.824 4.662c-.479 3.326-.593 5.254-.593 5.254l-1.246.124-.657-3.585s-1.233.96-2.545 3.539c-.59 1.16-7.367.825-7.367.825s-1.462-1.198 1.049-2.649c.621-.36 2.364-1.638 2.364-1.638s1.117 1.31 2.65-.022c.687-.597 1.947-2.18 2.818-3.509 1.075-1.637 1.704-3 1.704-3" mask="url(#prefix__m)"/>
        <path fill="#A29C8F" d="M356.93 161.972c4.867 5.229 17.023 47.503 17.023 47.503l-9.6 62.041-16.065 94.907-12.893-.42s-4.033-97.264-3.327-121.072c1.117-37.665 2.423-72.704 8.992-85.763 4.28 1.667 4.249 4.27 15.87 2.804" mask="url(#prefix__m)"/>
        <path fill="#7F786A" d="M381.382 153.076c8.82 9.402 20.057 22.518 23.608 44.565 4.317 26.803-14.391 169.406-14.391 169.406l-12.188.193-18.895-167.765-5.954-39.055s24.58-5.89 27.82-7.344" mask="url(#prefix__m)"/>
        <path fill="#E1DCFF" d="M352.523 146.99c.005 1.027.84 1.856 1.866 1.851 1.027-.004 1.855-.84 1.85-1.867-.004-1.027-.84-1.855-1.866-1.85-1.026.003-1.855.84-1.85 1.866" mask="url(#prefix__m)"/>
        <path fill="#F5EFE4" d="M340.146 156.51s5.04 2.296 20.653 2.274c14.293-.02 22.166-5.345 22.166-5.345l.956-28.922c.414-8.895 4.434-22.944-12.142-23.878 0 0-18.167-.221-22.984.37-9.9 1.215-11.46 13.414-11.634 23.474-.167 9.74 2.985 32.026 2.985 32.026" mask="url(#prefix__m)"/>
        <path fill="#FFE2B7" d="M359.164 103.576c-1.306.162-2.496-.766-2.658-2.073l-1.15-9.274c-.161-1.307.767-2.498 2.073-2.66 1.306-.162 2.497.766 2.658 2.073l1.15 9.275c.162 1.306-.767 2.497-2.073 2.659" mask="url(#prefix__m)"/>
        <path fill="#FFC581" d="M355.567 93.928c-.278-2.246.556-4.197 1.862-4.358 1.306-.162 2.59 1.527 2.869 3.771l.622 5.02c.152 1.225-1.537 2.23-3.118.484-1.036-1.146-2.02-2.61-2.02-2.61l-.215-2.307z" mask="url(#prefix__m)"/>
        <path fill="#7F786A" d="M382.68 152.344s-27.652 7.304-42.741 2.848l.001 5.81s9.669 3.024 21.659 2.292c7.63-.467 16.568-3.228 23.368-6.757l-2.286-4.193z" mask="url(#prefix__m)"/>
        <path fill="#FFAF12" d="M359.355 160.263c-.042-1.678-1.442-3.027-3.12-3.007l-6.723.077.438 5.424c1.314.466 3.495.698 6.344.672.834 0 1.615-.341 2.195-.941.58-.6.887-1.39.866-2.225m-3.052 4.22c-3.26.028-5.635-.263-7.057-.87-.18-.076-.302-.247-.318-.442l-.512-6.316c-.01-.145.038-.289.136-.397.098-.107.23-.16.383-.172l7.287-.084c2.251-.027 4.129 1.784 4.186 4.035.028 1.12-.385 2.18-1.162 2.983-.706.73-1.634 1.168-2.637 1.249-.1.008-.203.013-.306.014" mask="url(#prefix__m)"/>
        <path fill="#FFAF12" d="M356.481 161.19c.88-.072 1.385-.19 1.43-.2.282-.067.456-.35.389-.634-.067-.283-.355-.456-.633-.39-.023.003-2.273.52-5.706-.036-.286-.043-.556.148-.603.435-.048.286.148.558.435.604 2.005.325 3.621.307 4.688.22" mask="url(#prefix__m)"/>
        <path fill="#FFE2B7" d="M356.292 99.9s.04 1.17.72 1.895c.295.316 1.86 1.215 1.86 1.215l-2.66 3.84s-.947-.286-1.77-1.734c-1.293-2.274-.762-4.36-.762-4.36l2.612-.856z" mask="url(#prefix__m)"/>
        <path fill="#FCE5BE" d="M357.956 102.912l2.533 4.078s3.4-2.896 3.332-6.349l-2.796-1.42s-.555 3.016-3.069 3.691" mask="url(#prefix__m)"/>
        <path fill="#FFE2B7" d="M332.947 218.666c.73-.162 1.191-.886 1.028-1.617l-.742-3.34-1.323.295 1.037 4.662zM335.482 214.013c-.673.329-1.484.051-1.813-.621l-1.503-3.074.946-1.768 2.37 5.463z" mask="url(#prefix__m)"/>
        <path fill="#FFE2B7" d="M331.933 219.882c.732-.158 1.177-.965.997-1.803l-.828-3.83-1.325.286 1.156 5.347z" mask="url(#prefix__m)"/>
        <path fill="#FFE2B7" d="M330.744 219.834c.732-.158 1.177-.965.996-1.804l-.828-3.83-1.325.286 1.157 5.348z" mask="url(#prefix__m)"/>
        <path fill="#FFE2B7" d="M329.763 218.836c.664-.162 1.052-.911.866-1.671l-.849-3.478-1.232.627 1.215 4.522zM364.19 81.779c-.025-4.911-2.862-8.946-7.408-9.596-9.727-1.392-9.514 10.547-8.965 16.065.443 4.456 2.617 8.21 2.617 8.21s4.994.502 8.153-1.16c2.838-1.49 4.915-2.969 5.317-7.758.358-4.278.296-3.694.286-5.761" mask="url(#prefix__m)"/>
        <path fill="#FFF" d="M364.532 83.551c-.122-.037-.275-.077-.455-.117-.18-.023-.389-.03-.62-.04-.922-.026-2.218.28-3.42 1.002-1.195.73-2.088 1.627-2.64 2.334-.156.2-.283.38-.388.544-.847-1.506-1.97-2.95-3.564-3.603-1.303-.532-2.79-.473-4.153-.103-.857.234-1.674.58-2.473.97l-.003.001c-.136.202-.268.403-.398.606-1.072 1.677-1.956 3.559-1.975 5.552-.029 2.953 2 5.754 4.732 6.873 2.11.864 4.545.752 6.661-.114.043-.012.08-.02.124-.031.22-.076.463-.182.735-.296 1.077-.47 2.438-1.433 3.607-2.79 1.162-1.361 1.939-2.786 2.395-3.849.45-1.069.592-1.782.483-1.82-.22-.092-1.31 2.53-3.514 5.122-1.013 1.173-2.099 2.069-3.001 2.655.241-.39.467-.786.667-1.195.72-1.461 1.142-3.11.91-4.721-.147-1.005-.54-1.955-1.012-2.854.166-.146.366-.33.6-.543.64-.579 1.542-1.348 2.637-2.018 1.102-.658 2.203-1.007 3.03-1.131l.564-.082c.168-.005.314-.014.435-.027.243-.026.387-.066.398-.124.01-.056-.116-.124-.362-.2" mask="url(#prefix__m)"/>
        <path fill="#FB8875" d="M363.437 84.285c-1.32 1.839-1.541 3.925-.494 4.659 1.046.734 2.964-.164 4.284-2.003 1.32-1.84 1.54-3.926.494-4.659-1.046-.734-2.964.163-4.284 2.003" mask="url(#prefix__m)"/>
        <path fill="#A29C8F" d="M363.81 100.592s-2.847 32.907.05 50.26c2.897 17.355 10.782 47.308 15.058 49.096 4.276 1.788 26.544-5.77 30.701-9.315l-26.257-37.705 1.688-22.79s6.521-24.155 1.737-27.658c-4.785-3.502-22.976-1.888-22.976-1.888" mask="url(#prefix__m)"/>
        <path fill="#7F786A" d="M353.639 100.7s-7.132 17.742-8.286 50.409c-1.155 32.666-4.22 49.995-7.67 50.073-3.45.077-7.395-.934-7.395-.934s1.918-19.502 9.726-42.273c0 0-9.025-45.934 2.4-54.192 0 0 1.75-1.642 4.99-2.544 1.701-.474 3.921-.686 6.235-.538M392.484 165.914l15.199-8.717s-2.963-24.37-12.508-41.745c-7.007-12.752-13.08-15.986-24.194-14.812l21.503 65.274z" mask="url(#prefix__m)"/>
        <path fill="#FCBD30" d="M354.117 71.49s8.473-8.928 13.57-10.608c17.656-5.817 21.201 24.017 24.834 23.882 2.348-.088 14.777-1 25.768 7.363 10.751 8.182 7.293 22.743 2.566 30.66-5.27 8.824-15.711 12.92-27.96 7.333-9.818-4.479-17.056-13.345-21.423-21.414-8.515-15.732-17.355-37.217-17.355-37.217" mask="url(#prefix__m)"/>
        <path fill="#FCE5BE" d="M420.854 122.788c-2.058 3.807-5.357 7.01-9.404 8.836-4.077 1.732-8.734 2.057-13.056 1.078-8.752-1.918-16.06-7.725-21.616-14.436-2.751-3.42-5.076-7.201-7.03-11.077-1.99-3.859-3.932-7.736-5.699-11.695-3.588-7.888-6.941-15.876-9.932-24.005 3.672 7.84 7.334 15.675 11.17 23.416 1.954 3.852 3.845 7.733 5.895 11.526 1.987 3.822 4.271 7.414 6.979 10.714 5.28 6.606 12.313 12.138 20.536 14.226 4.07 1.088 8.462.933 12.424-.55 3.982-1.485 7.335-4.44 9.733-8.033" mask="url(#prefix__m)"/>
        <path fill="#FFC581" d="M397.718 211.395c.638.51 1.57.407 2.08-.232l2.332-2.917-1.155-.924-3.257 4.073z" mask="url(#prefix__m)"/>
        <path fill="#FFC581" d="M401.03 213.586s2.345 1.58 3.24 1.533c.684-.037 1.527-1.05 1.63-1.729.27-1.775.426-5.639-.813-6.684-.591-.498-2.2-.4-3.398-.24-.795.106-1.36.825-1.27 1.622l.61 5.498z" mask="url(#prefix__m)"/>
        <path fill="#FFC581" d="M401.218 214.944c-.354-.917-.584-4.864-.584-4.864l1.629-.052s.33 3.976.156 4.874c-.096.497-.999.569-1.201.042" mask="url(#prefix__m)"/>
        <path fill="#FFC581" d="M402.574 215.64c-.358-.918-.59-4.865-.59-4.865l1.654-.053s.333 3.976.156 4.874c-.098.497-1.015.57-1.22.043" mask="url(#prefix__m)"/>
        <path fill="#FFC581" d="M403.812 215.35c-.323-.918-.544-4.866-.544-4.866l1.478-.047s.312 3.977.156 4.874c-.085.498-.905.567-1.09.04" mask="url(#prefix__m)"/>
        <path fill="#FFC581" d="M404.965 214.82c-.323-.918-.544-4.865-.544-4.865l1.478-.047s.312 3.977.157 4.873c-.086.498-.905.567-1.09.04M400.537 204.104L401.485 207.467 404.702 207.663 404.382 203.302z" mask="url(#prefix__m)"/>
        <path fill="#7F786A" d="M411.194 203.028c7.805-10.896 4.753-24.636 2.438-35.14-1.283-5.828-3.909-14.748-8.15-22.76-3.196-6.038-12.71 2.994-18.256 4.221 0 0 3.561 14.001 4.328 19.316 1.538 10.65 6.534 35.829 6.534 35.829s10.315 2.432 13.106-1.466" mask="url(#prefix__m)"/>
        <path fill="#619440" d="M444.647 380.225c31.4-21.905 60.847-52.882 74.609-90.417 7.041-18.521 9.922-42.051 8.931-63.402l-17.488 7.668 9.281-9.276c4.974-4.971 7.186-12.085 5.89-18.998-2.041-10.882-5.316-20.263-9.778-26.797-30.551 17.184-57.404 41.923-74.16 84.213-10.719 27.058-17.98 72.148-7.056 117.009h9.771z" mask="url(#prefix__m)"/>
        <path fill="#306B34" d="M442.277 374.898c-.153 0-.309-.039-.452-.118-.45-.252-.61-.819-.359-1.267 11.769-21.045 21.164-38.991 26.104-62.238.632-2.97 1.317-6.409 2.06-10.128 2.742-13.73 6.154-30.818 10.42-42.94 3.364-9.564 8.617-18.843 13.696-27.818 6.882-12.158 13.996-24.729 16.44-38.086.093-.505.568-.84 1.083-.747.506.093.84.577.748 1.082-2.501 13.665-9.695 26.375-16.652 38.668-5.04 8.903-10.25 18.11-13.561 27.52-4.221 11.997-7.62 29.012-10.35 42.684-.745 3.73-1.432 7.174-2.065 10.151-4.994 23.502-14.453 41.576-26.298 62.76-.172.304-.487.477-.814.477" mask="url(#prefix__m)"/>
        <path fill="#306B34" d="M577.782 228.007c1.76-9.286-2.004-17.395-10.264-19.516-10.453-2.684-21.472 3.391-26.279 11.464-5.318 8.93-4.79 21.287-12.143 28.491-6.068 5.944-19.102 5.323-27.017 16.802-7.639 11.078-2.22 23.676-12.386 39.713-8.045 12.692-25.278 16.167-37.094 33.276-8.153 11.806-6.845 36.043-3.832 41.987H553.46c.632-3.072.94-6.342.9-9.816-.206-17.758-16.263-31.713-2.016-48.906 4.24-5.117 19.035-14.894 21.2-27.135 2.866-16.197-6.821-29.179-5.259-40.835 1.346-10.05 7.629-15.661 9.497-25.525" mask="url(#prefix__m)"/>
        <path fill="#619440" d="M475.98 380.225c4.55-7.042 8.777-14.172 11.248-19.495 2.809-6.056 5.023-12.774 7.164-19.271 3.317-10.065 6.45-19.57 11.51-26.447 5.516-7.49 13.2-12.148 20.628-16.65 6.859-4.157 13.338-8.085 17.453-13.9 5.517-7.8 5.053-14.774 4.516-22.848-.26-3.908-.529-7.946-.167-12.576.968-12.45 10.832-23.264 19.738-29.234 1.036-.695 1.313-2.1.618-3.136-.695-1.038-2.1-1.317-3.135-.62-9.787 6.56-20.634 18.578-21.729 32.638-.386 4.956-.093 9.35.165 13.228.5 7.513.894 13.448-3.696 19.935-3.572 5.05-9.66 8.74-16.106 12.646-7.442 4.51-15.878 9.622-21.923 17.837-5.49 7.456-8.883 17.753-12.165 27.71-2.1 6.376-4.273 12.967-6.972 18.785-2.689 5.794-7.515 13.784-12.527 21.398h5.38z" mask="url(#prefix__m)"/>
        <path fill="#306B34" d="M397.902 380.225c1.486-6.167 5.751-14.226 9.697-19.703 3.548-4.925 7.965-9.332 12.239-13.592 9.576-9.55 19.48-19.426 18.734-35-.302-6.339-1.827-12.567-3.3-18.592-1.037-4.232-2.107-8.611-2.731-12.952-1.498-10.417.979-24.617 6.02-34.535 3.634-7.144 8.932-12.788 14.058-18.247 8.944-9.527 18.193-19.378 18.732-37.306.079-2.666.043-5.099.007-7.45-.117-7.767-.21-13.9 3.998-21.769 4.48-8.377 14.994-17.57 25.566-22.354 1.752-.793 3.17-.854 4.21-.178 1.293.836 2.093 2.908 2.088 5.406-.006 3.073-2.753 7.37-5.178 11.16-1.284 2.009-2.5 3.906-3.217 5.494-5.355 11.846-3.163 22.488-.623 34.812l.356 1.733c3.384 16.543 2.935 29.872-1.335 39.615-1.828 4.172-3.568 7.654-5.252 11.02-2.583 5.166-5.023 10.046-7.361 16.6-6.098 17.079-.799 30.945 4.81 45.624 2.138 5.598 4.351 11.388 5.895 17.403 2.595 10.102 4.901 21.036 2.183 33.86-1.504 7.097-3.707 13.723-6.265 18.95h2.608c2.43-5.227 4.514-11.64 5.96-18.461 3.06-14.436-.236-27.268-2.206-34.934-1.578-6.146-3.815-11.998-5.978-17.658-5.448-14.262-10.595-27.732-4.791-43.991 2.292-6.42 4.701-11.239 7.25-16.34 1.696-3.392 3.452-6.901 5.304-11.129 4.468-10.196 4.968-24.002 1.484-41.031l-.356-1.735c-2.458-11.922-4.579-22.218.463-33.37.646-1.43 1.816-3.258 3.054-5.194 2.598-4.061 5.542-8.664 5.55-12.423.006-3.341-1.176-6.103-3.164-7.388-1.207-.782-3.308-1.414-6.46.009-9.3 4.21-21.155 13.074-26.67 23.39-4.495 8.404-4.394 15.128-4.277 22.913.036 2.328.072 4.732-.007 7.345-.511 17.036-9.052 26.134-18.095 35.765-5.238 5.58-10.653 11.348-14.44 18.794-5.323 10.47-7.835 24.912-6.251 35.935.64 4.455 1.724 8.888 2.773 13.177 1.448 5.916 2.945 12.033 3.238 18.145.694 14.53-8.409 23.609-18.046 33.219-4.34 4.328-8.827 8.803-12.486 13.885-4.08 5.662-8.712 14.28-10.197 21.078h2.41z" mask="url(#prefix__m)"/>
        <path fill="#306B34" d="M452.869 359.14c-3.324 6.909-6.733 14.03-8.576 21.085h2.424c1.824-6.65 5.094-13.456 8.272-20.064 4.02-8.354 8.176-16.993 9.24-25.135 1.28-9.81-1.44-22.512-4.07-34.797-2.104-9.823-4.092-19.102-3.765-25.821.753-15.416 8.984-27.856 16.247-38.83 4.506-6.812 8.763-13.246 10.644-19.547 1.507-5.04 1.021-11.286.46-18.518-.916-11.803-1.956-25.18 5.612-37.115.348-.549.186-1.277-.364-1.625-.547-.347-1.277-.182-1.624.364-7.986 12.597-6.916 26.39-5.971 38.558.543 6.998 1.012 13.04-.368 17.663-1.781 5.966-5.945 12.258-10.352 18.92-7.43 11.228-15.85 23.954-16.634 40.015-.343 7.026 1.675 16.45 3.812 26.43 2.589 12.09 5.267 24.59 4.038 33.998-1.014 7.767-4.905 15.856-9.025 24.419" mask="url(#prefix__m)"/>
        <path fill="#FCBD30" d="M613.27 292.933c-17.795-2.114-36.659-.412-56.473 6.806-6.13 2.233-10.847 7.239-12.688 13.498l-4.267 14.504-1.692-19.682c-7.471 3.955-15.065 8.723-22.777 14.387-22.126 16.254-40.337 38.306-48.287 57.779h95.353c27.401-20.901 51.874-63.212 50.83-87.292" mask="url(#prefix__m)"/>
        <path fill="#BF830E" d="M505.323 380.225c10.512-7.332 20.297-13.612 29.825-19.722 11.852-7.601 22.962-14.73 33.519-22.762l23-.836c.624-.022 1.111-.546 1.088-1.17-.023-.624-.592-1.133-1.17-1.088l-19.848.72c11.377-8.952 22.117-19.14 32.455-32.349.385-.49.3-1.202-.193-1.586-.49-.385-1.2-.299-1.586.193-20.523 26.218-42.75 40.47-68.484 56.974-10.338 6.63-20.981 13.466-32.532 21.626h3.926z" mask="url(#prefix__m)"/>
        <path fill="#FCBD30" d="M409.476 380.225h26.226c5.439-12.959 7.874-30.001 6.573-49.164-1.907-28.064-12.613-52.01-25.52-64.452-8.108 5.73-15.29 17.442-20.132 30.122-2.607 6.825-2.337 14.417.69 21.064l2.484 5.456-8.37-8.144c-1.154 6.338-1.532 12.305-.935 17.239 2.07 17.102 9.55 34.234 18.984 47.879" mask="url(#prefix__m)"/>
        <path fill="#BF830E" d="M416.169 346.01c.326 1.21.664 2.448 1.016 3.736 2.608 9.51 5.764 21.037 5.84 30.479h1.956c-.076-9.711-3.268-21.37-5.907-30.997-.58-2.11-1.134-4.13-1.623-6.018-5.327-20.495-5.138-52.058-1.41-66.584.135-.524-.181-1.058-.704-1.193-.522-.139-1.058.182-1.191.705-4.175 16.261-3.534 48.16 1.318 67.201-6.783-3.983-12.438-8.616-18.546-15.2-.367-.396-.988-.42-1.384-.05-.397.368-.42.986-.051 1.384 6.75 7.273 12.953 12.23 20.686 16.537" mask="url(#prefix__m)"/>
        <path fill="#FCBD30" d="M100.099 206.118c3.105.257 47.088 4.41 52.79 4.168 1.339-.058 3.58-.803 4.174-2.79.878-2.93-.194-17.293 1.32-25.514 1.527-8.287 11.099-35.427 12.995-45.55.956-5.103 1.108-8.334-2.749-10.4-3.786-2.026-15.173-5.385-19.245-6.218-8.175-1.674-17.44-2.542-25.8-2.073-3.837.214-10.239.923-13.175 3.725-2.44 2.326-4.36 5.967-5.489 9.207-2.937 8.429-2.635 29.748-3.039 37.39-.388 7.328-1.64 11.736-2.968 17.243-1.345 5.571-2.283 9.218-3.689 14.577-1.071 4.08.185 5.846 4.875 6.235" mask="url(#prefix__m)"/>
        <path fill="#BF830E" d="M119.285 187.888c-3.466-3.32-6.774-3.691-8.175-7.82-1.427-4.212.087-8.466 1.977-13.479 1.488-3.951 6.131-14.612-.22-13.95-2.682.278-7.006.908-10.611 2.113-.172 5.45-.22 10.385-.376 13.312-.386 7.325-1.64 11.737-2.964 17.241-1.347 5.574-2.287 9.219-3.693 14.577-1.07 4.081.188 5.846 4.875 6.235 1.118.092 7.552.69 15.587 1.409 1.222-.838 2.236-1.916 3.108-3.23 4.78-7.194 3.907-13.136.492-16.408" mask="url(#prefix__m)"/>
        <path fill="#FFAF12" d="M231.033 239.222c1.22-2.766.56-4.93-2.769-7.934-2.19-1.977-24.164-20.257-31.15-26.443-3.997-3.537-8.373-10.658-9.302-16.064-1.297-7.55-4.21-29.853-6.591-41.279-1.926-9.243-5.268-19.506-14.644-22.341-4.064-1.229-8.93 3.419-10.253 7.61-1.2 3.804-1.337 8.925-.507 12.805 2.154 10.069 13.796 40.304 17.389 50.374 3.09 8.66 9.437 15.63 17.07 20.783 10.181 6.872 24.52 17.2 34.608 23.275 2.84 1.71 5.398.914 6.149-.786" mask="url(#prefix__m)"/>
        <path fill="#57575E" d="M193.68 371.333c-.403 3.684.04 4.856 4.662 5.425 2.499.307 5.43.505 7.835.754 4.332.447 11.51 2.712 17.637 2.712 4.757 0 11.964 0 11.056-3.48-.803-3.077-7.4-4.176-10.212-5.237-3.815-1.44-7.37-2.873-10.402-5.58-2.946-2.633-5.05-5.666-6.902-9.137-2.71-5.078-2.846-8.83-6.965-9.304-4.49-.517-6.076 2.661-5.354 14.151.2 3.178-1.09 7.279-1.355 9.696M17.418 366.691c1.776 1.707 7.248 4.637 10.105 3.305 2.86-1.334-1.556-9.71-1.336-13.142.274-4.303 3.481-15.018 6.046-17.64 2.306-2.358 4.718-3.867 7.058-5.945 2.038-1.81 2.715-4.816 1.475-6.353-1.96-2.43-4.7-3.58-8.464-1.138-1.232.8-5.156 2.985-7.745 4.42-2.308 1.28-4.708 1.276-7.91 2.7-3.303 1.47-2.846 5.19-2.672 6.387.424 2.937.765 7.213.792 9.741.042 4.069-.988 6.369-.723 10.409.157 2.39 1.368 5.325 3.374 7.256" mask="url(#prefix__m)"/>
        <path fill="#A29C8F" d="M29.554 324.043c4.54-3.498 44.914-35.453 47.89-38.553 3.52-3.667 7.672-10.642 8.168-15.82 1.037-10.832 1.525-31.244 2.752-47.52.385-5.101 2.39-10.125 4.03-13.703 1.145-2.497 2.434-4.1 4.413-5.249 3.896-2.265 9.37-2.594 12.976-5.34 3.39-2.58 5.95-5.904 7.001-9.853 2.166-8.142 4.466-23.615 5.446-32.51.732-6.651 1.402-17.485-1.777-26.128-1.568-4.264-5.415-8.387-6.654-9.65-.823-.839-.997-1.201-.26-1.381 1.103-.27 3.11-.55 4.166-.691 1.17-.156 1.977.306 2.828 1.12 2.306 2.202 5.63 7.336 6.93 12.318 1.698 6.51 2.19 13.993 1.441 22.531 5.93.398 16.603 1.229 22.383 1.708 3.64-12.851 5.65-24.443 4.471-32.537-.184-1.267-.298-1.821.436-1.561.93.331 2.99.95 4.258 1.374 1.087.363 1.36 1.976 1.49 2.457 1.653 6.145-2.517 25.338-4.924 32.988 0 0-2.505 20.89-2.855 26.13-.315 4.718-1.017 9.438.372 14.117.606 2.036 2.476 5.303 3.819 6.704 2.39 2.495 4.89 3.118 5.117 5.993.168 2.124.422 10.993.39 15.086 3.606 12.91 13.956 36.343 17.323 44.213 5.518 12.902 8.905 25.628 10.626 32.094 3.318 12.455 6.823 26.295 12.378 44.949.691 2.319 1.707 4.928.551 7.428-1.138 2.464-3.632 4.056-5.842 5.084-3.861 1.796-8.864 2.64-11.107-1.187-1.015-1.731-3.71-8.595-4.588-10.942-4.95-13.224-8.55-21.8-13.689-35.263-2.965-7.769-9.276-17.803-14.82-26.704-5.088-8.168-18.512-28.035-21.2-32.068-3.134-4.7-8.472-5.156-11.446 1.341-2.813 6.147-12.608 29.57-15.571 35.583-2.901 5.885-6.836 11.223-13.028 15.715-7.81 5.666-45.653 31.505-52.203 34.445-3.534 1.585-5.002.858-6.431-.066-1.67-1.078-3.292-3.271-4.825-6.047-.782-1.416-2.08-4.18-2.274-6.239-.232-2.457.969-3.695 1.84-4.366" mask="url(#prefix__m)"/>
        <path fill="#FCBD30" d="M77.914 181.23c1.643-11.419 8.93-37.999 13.138-46.066 4.144-7.943 10.68-12.72 15.853-14.556 2.636-.935 4.782-1.399 6.047-1.592.237-.037.257.077.435.28 2.547 2.9 6.595 6.875 6.538 11.526-.058 4.821-1.284 10.663-4.719 17.452-5.008 9.9-12.199 26.216-14.731 32.573-3.467 8.7-1.825 11.69 3.78 17.044 6.107 5.833 36.859 34.284 38.868 36.12 3.323 3.035 3.743 4.977 2.742 7.71-.508 1.382-3.354 2.592-5.914.915-9.226-6.041-44.24-28.452-53.42-35.11-8.658-6.28-10.753-11.462-8.617-26.295" mask="url(#prefix__m)"/>
        <path fill="#FEC1B5" d="M158.357 81.008c-1.245-5.44-7.768-8.506-13.94-8.915-6.36-.422-12.2 3.107-14.463 7.792-2.158 4.47-2.849 11.842 2.464 22.999 1.27 2.666.504 3.9.317 6.817-.044.664-.062 1.165-.075 1.59-.259 1.174-.523 2.3-.831 3.523-.722 2.87-2.917 2.385-3.484 3.83-2.134 5.437 8.084 14.261 16.81 14.63 8.127.344 7.991-9.214 7.524-11.411-.37-1.744-1.892-2.025-2.721-2.57-1.372-.903-1.532-1.71-1.479-3.397.02-.344.052-.713.1-1.131.215-1.857.519-6.568 1.71-7.568 1.014-.85 1.521-1.152 2.652-2.024 1.029-.792 2.627-3.702 3.084-5.563.658-2.669.577-7.367.829-10.054.315-3.37 2.277-5.162 1.503-8.548" mask="url(#prefix__m)"/>
        <path fill="#E8988C" d="M140.197 100.768c-.388-.502-2.614-3.922-2.903-3.493-.501.738.706 5.274 1.833 7.143 1.04 1.728 4.381 5.62 7.796 6.117 1.086.155 1.755.185 2.158.11.22-1.538.58-2.937 1.207-3.446 1.024-.838 1.524-1.154 2.652-2.026.331-.253.599-.573.845-.93-4.205 1.986-10.191.942-13.588-3.475" mask="url(#prefix__m)"/>
        <path fill="#D98E83" d="M158.358 81.01c-.177-.78-.463-1.509-.847-2.19-.427-.378-.92-.712-1.49-.987-5.137-2.484-14.209-1.318-17.855 3.452-2.219 2.906 1.36 3.5 3.897 3.578 3.142.1 7.447-.234 10.515.558 1.292.334 2.502.788 3.323 1.915.768 1.055.573 2.42.86 3.54.024-.474.056-.92.092-1.318.315-3.372 2.277-5.164 1.505-8.548" mask="url(#prefix__m)"/>
        <path fill="#57575E" d="M157.414 74.616c-2.335-3.135-6.861-6.062-12.126-6.394-7.553-.478-15.84 2.549-17.047 7.458-.454 1.848-.281 3.664-1.453 4.89-3.267 3.421-.628 10.569.395 13.255 1.408 3.697 4.834 11.386 6.126 10.874.786-.31 1.961-2.902 1.895-4.04-.14-2.423-.2-4.946-.56-7.34-.263-1.744-.233-1.75.553-3.194.282.634.92 2.483.92 2.483l2.409-1.14c2.045-3.084 3.152-7.761 2.799-12.314.38-.59 1.373-1.222 1.91-1.452 3.911-1.667 10.623-.032 13.25 2.413 1.486 1.386 1.533 2.228 1.533 3.437 0 .755-.476 2.628.239 2.454.698-.169 1.52-2.034 1.673-4.697.132-2.28-1.454-5.266-2.516-6.693" mask="url(#prefix__m)"/>
        <path fill="#FFF4DD" d="M135.11 90.159c.142-.043.32-.09.53-.137.21-.027.452-.034.722-.047 1.075-.03 2.585.326 3.986 1.168 1.393.852 2.433 1.896 3.077 2.72.18.233.33.444.452.634.987-1.754 2.296-3.438 4.153-4.198 1.519-.621 3.251-.552 4.84-.12.998.272 1.951.677 2.88 1.13l.006.001c.158.235.311.469.464.707 1.248 1.953 2.279 4.146 2.3 6.468.035 3.443-2.33 6.707-5.513 8.01-2.46 1.009-5.298.877-7.764-.133-.049-.012-.092-.021-.144-.035-.256-.088-.54-.212-.857-.345-1.254-.548-2.841-1.67-4.203-3.252-1.354-1.586-2.26-3.246-2.791-4.485-.526-1.245-.69-2.077-.562-2.12.256-.107 1.526 2.947 4.093 5.968 1.181 1.367 2.447 2.412 3.498 3.094-.28-.452-.543-.915-.776-1.392-.84-1.704-1.332-3.625-1.062-5.503.171-1.17.63-2.277 1.18-3.326-.192-.17-.427-.384-.7-.632-.744-.674-1.796-1.57-3.072-2.352-1.285-.766-2.568-1.173-3.532-1.317l-.657-.096c-.196-.006-.366-.017-.507-.031-.283-.03-.451-.079-.463-.144-.012-.066.135-.146.421-.235" mask="url(#prefix__m)"/>
        <path fill="#FEC1B5" d="M136.026 91.411c.595 2.44-.152 4.75-1.67 5.157-1.52.407-3.234-1.24-3.83-3.68-.596-2.44.152-4.75 1.671-5.157 1.52-.407 3.233 1.24 3.83 3.68" mask="url(#prefix__m)"/>
        <path fill="#FCBD30" d="M125.187 90.255c.21.98 1.037 2.811 2.14 1.52 3.124-3.657 5.743-5.92 10.218-8.649 2.881-1.757 5.567-3.193 8.802-3.82 4.432-.858 8.706-.568 12.325 1.14.597.283 1.18-.396.92-1.382-1.037-3.958-2.949-7.005-7.957-10.17-3.68-2.327-11.816-2.134-16.464-.721-11.799 3.586-11.792 13.633-9.984 22.082" mask="url(#prefix__m)"/>
        <path fill="#57575E" d="M139.077 81.87c.95-.54 4.081-1.883 5.884-2.79 1.867-.94 3.387-1.94 5.136-3.258 1.506-1.135 2.76-3.24 5.295-4.61 1.508-.815 2.354-.835 2.807-.91.197-.033-.069-.287-1.332.128-2.642.87-6.727 3.086-9.207 3.877-6.48 2.067-8.82 5.99-9.177 7.667-.06.285.16.142.594-.105" mask="url(#prefix__m)"/>
        <path fill="#FCBD30" d="M138.686 81.993c3.687-2.095 9.347-3.69 13.504-8.431 3.983-4.544 9.65-4.36 13.098-1.42 1.548 1.318 3.842 4.34 2.763 7.172-.97 2.546-5.24 3.975-7.564 4.289-1.136.154-1.393-.018-1.858-.56-.723-.844-1.93-2.249-4.138-3.102-3.163-1.22-8.075-.601-11.12.401-.95.312-3.244 1.405-4.227 1.947-.607.335-.984.02-.458-.296" mask="url(#prefix__m)"/>
        <path fill="#7F786A" d="M204.19 347.333c-5.56-18.66-9.063-32.495-12.374-44.95-1.73-6.466-5.108-19.192-10.634-32.1-2.758-6.443-10.205-23.34-14.781-36.327-1.65-1.243-3.368-2.113-5.153-2.464-7.493-1.48-20.206 5.482-26.263 8.082-5.684 2.452-9.267 4.6-10.544 7.245-1.152 2.407-4.497 10.76-4.96 14.038 1.073-2.498 1.977-4.555 2.565-5.844 2.972-6.488 8.317-6.036 11.447-1.334 2.69 4.035 16.115 23.894 21.2 32.066 5.549 8.906 11.855 18.932 14.815 26.708 5.142 13.462 8.747 22.04 13.697 35.264.881 2.34 3.57 9.2 4.588 10.941 2.237 3.82 7.243 2.973 11.108 1.187 2.204-1.028 4.701-2.622 5.843-5.086 1.152-2.498.135-5.109-.554-7.426" mask="url(#prefix__m)"/>
        <path fill="#E8988C" d="M209.928 232.956c1.357-.752 6.73 1.062 8.406 1.777 2.102.895 10.905 3.467 13.954 2.99 3.253-.508 7.32-1.443 9.25-1.345 1.296.066 3.842 1.038 1.596 2.57-2.396 1.632-8.48 5.458-10.682 6.76-1.052.62-2.806 1.403-4.144 1.28-2.802-.26-5.497-.7-7.239-.988-1.92-.318-6.628-5.126-8.395-6.866-4.005-3.944-4.247-5.347-2.746-6.178M139.022 235.87c.954-1.223 3.21-1.851 4.885-1.137 2.101.896 6.47 2.405 9.076 3.37 2.383.882 4.634.66 7.019-.117 3.137-1.02 5.072-1.359 6.258-.875 1.227.501 4.68 1.341 2.434 2.873-2.397 1.633-8.48 5.46-10.683 6.759-1.052.622-2.804 1.404-4.143 1.28-2.802-.26-5.497-.699-7.24-.987-1.92-.318-4.134-2.765-6.13-4.24-2.033-1.504-3.432-4.417-1.476-6.925" mask="url(#prefix__m)"/>
        <path fill="#FFAC34" d="M129.305 213.805c13.93 33.934 52.726 50.147 86.653 36.215 33.927-13.932 50.138-52.735 36.208-86.668-13.93-33.933-52.725-50.147-86.653-36.215-33.927 13.933-50.138 52.736-36.208 86.668" mask="url(#prefix__m)"/>
        <path fill="#FFBC3F" d="M140.722 207.726c11.176 27.226 42.303 40.234 69.523 29.056 27.22-11.179 40.227-42.31 29.05-69.536-11.176-27.225-42.303-40.234-69.523-29.056-27.22 11.179-40.226 42.311-29.05 69.536" mask="url(#prefix__m)"/>
        <path fill="#FFAC34" d="M198.04 162.515c1.617-.648 2.319-2.697 1.566-4.574-.752-1.877-2.675-2.873-4.292-2.224l-17.574 7.049-11.716 4.699c-1.617.649-2.319 2.697-1.566 4.575.752 1.876 2.675 2.872 4.291 2.224l11.717-4.7c3.814-1.53 8.178.028 10.974 3.49l-19.965 8.009c-1.617.648-2.318 2.697-1.566 4.574.753 1.877 2.676 2.873 4.293 2.224l19.964-8.008c.371 4.438-1.708 8.578-5.522 10.108l-11.716 4.699c-.382.153-.726.394-1.016.707-.576.634-.885 1.523-.849 2.48.034.949.41 1.887 1.042 2.597.315.363.682.649 1.083.852l34.327 17.792c.842.436 1.725.469 2.475.167.75-.3 1.366-.934 1.675-1.824.612-1.784-.253-3.939-1.926-4.806l-27.015-14.003 4.646-1.863c7.076-2.838 10.643-11.055 8.894-19.35l3.229-1.296c1.616-.649 2.317-2.697 1.566-4.574-.754-1.877-2.676-2.873-4.293-2.225l-3.228 1.295c-1.453-2.353-3.342-4.248-5.433-5.714l5.935-2.38z" mask="url(#prefix__m)"/>
        <path fill="#FF881D" d="M238.97 166.962l-2.09-4.76c-.816-1.528-1.707-3.02-2.56-4.538-.953-1.452-2.02-2.829-3.027-4.25-1.09-1.356-2.291-2.621-3.434-3.937-4.843-5.024-10.742-9.015-17.158-11.776-6.447-2.692-13.427-4.127-20.404-4.086-1.741.104-3.485.142-5.217.299-1.719.275-3.448.487-5.153.814-1.68.456-3.368.871-5.03 1.357l-4.856 1.856c6.486-2.422 13.38-3.667 20.252-3.54 6.865.121 13.71 1.526 20.011 4.241 6.335 2.636 12.113 6.558 16.998 11.385 4.893 4.828 8.831 10.618 11.668 16.935" mask="url(#prefix__m)"/>
        <path fill="#FFAC34" d="M169.564 138.136c-4.805 2.061-9.402 4.635-13.513 7.905-4.037 3.343-7.662 7.187-10.662 11.51-2.897 4.388-5.192 9.156-6.83 14.16-1.517 5.045-2.312 10.285-2.43 15.554-.024 5.279.802 10.524 2.22 15.603.9 2.477 1.638 5.02 2.866 7.363l.84 1.791c.144.297.271.602.43.891l.508.849 2.032 3.394c2.981 4.35 6.482 8.35 10.539 11.74 4.112 3.312 8.653 6.066 13.496 8.18 4.908 1.964 10.059 3.258 15.305 3.858 5.262.504 10.566.185 15.756-.75l3.843-.94.96-.235c.318-.09.624-.215.937-.32l1.864-.66c2.529-.773 4.858-2.035 7.252-3.135 4.609-2.561 8.923-5.657 12.658-9.386 3.667-3.786 6.836-8.033 9.36-12.657 2.408-4.683 4.185-9.668 5.272-14.811.967-5.174 1.153-10.456.694-15.677-.561-5.223-1.963-10.303-3.873-15.171 1.833 4.9 3.146 9.989 3.623 15.194.373 5.204.102 10.445-.938 15.553-1.133 5.084-2.93 9.999-5.351 14.603-2.536 4.546-5.7 8.708-9.344 12.405-3.72 3.633-7.985 6.645-12.517 9.16-2.36 1.072-4.652 2.31-7.142 3.06l-1.834.645c-.307.102-.61.224-.921.313l-.945.227-3.779.912c-5.102.902-10.311 1.201-15.475.69-5.148-.604-10.198-1.893-15.007-3.827-4.758-2.061-9.222-4.75-13.27-7.988-3.992-3.317-7.44-7.234-10.383-11.499l-2.007-3.33-.503-.833c-.156-.283-.28-.583-.424-.874l-.83-1.759c-1.217-2.299-1.946-4.799-2.841-7.232-1.396-4.993-2.254-10.143-2.281-15.344.07-5.192.805-10.368 2.258-15.366 1.573-4.96 3.807-9.69 6.628-14.07 2.903-4.33 6.44-8.205 10.404-11.597 4.039-3.32 8.582-5.96 13.355-8.099" mask="url(#prefix__m)"/>
        <path fill="#FFF" d="M610.7 97.651c-1.176.07-1.48.843-1.788 1.914-.981.313-4.553 1.147-12.712.249-.479-5.77-2.267-11.496-5.443-16.726 9.707-9.246 15.185-11.72 16.786-12.297 1.495 1.106 2.683 1.82 4.31.718 2.061-1.397 1.7-3.59.304-5.652-1.397-2.062-3.3-3.212-5.361-1.815-1.626 1.102-1.404 2.47-.932 4.269-1.131 1.274-5.467 5.45-17.68 11.044-1.95-2.503-4.167-4.686-6.567-6.571 2.183-3.215 3.68-4.543 4.248-4.98 1.051.357 1.856.547 2.58-.375.919-1.168.316-2.35-.853-3.268-1.167-.919-2.458-1.227-3.377-.058-.724.922-.349 1.66.246 2.596-.29.656-1.241 2.432-3.844 5.308-2.67-1.96-5.555-3.55-8.58-4.746 2.328-9.005 4.64-12.325 5.334-13.168 1.11.11 1.94.115 2.44-.952.635-1.351-.224-2.37-1.576-3.005-1.35-.635-2.683-.643-3.318.708-.5 1.066.034 1.703.829 2.486-.209 1.086-1.312 5.077-6.936 12.817-5.268-1.56-10.845-1.991-16.333-1.22-1.42-5.495-1.42-8.4-1.34-9.473l.108-.059c.832-.452 1.66-1.106 1.49-2.524-.11-.906-.565-1.586-1.318-1.967-.61-.308-1.389-.407-2.314-.296-.651.079-1.213.244-1.67.492-.984.536-1.452 1.449-1.317 2.57.181 1.504 1.249 1.907 2.166 2.13.338 1.036 1.04 3.918.949 9.728-4.669 1.074-9.213 3.04-13.382 5.95-.443.308-.874.626-1.299.95-8.144-8.818-10.4-13.835-10.948-15.356 1.105-1.495 1.82-2.683.717-4.31-1.395-2.062-3.59-1.7-5.651-.303-2.061 1.395-3.21 3.298-1.814 5.36 1.102 1.627 2.47 1.405 4.267.933 1.223 1.086 5.12 5.126 10.379 16.254-3.832 3.598-6.794 7.853-8.828 12.467-14.313-.98-19.687-3.583-20.978-4.344-.076-1.388-.231-2.412-1.64-2.823-1.787-.521-2.878.732-3.4 2.52-.52 1.786-.275 3.43 1.512 3.95 1.41.412 2.091-.369 2.901-1.498 1.486.052 7.336.735 19.73 7.455-.606 2.185-1.006 4.42-1.22 6.676-3.735-.257-5.584-.855-6.236-1.12-.226-1.086-.471-1.875-1.633-2.032-1.473-.197-2.184.922-2.382 2.395-.199 1.473.192 2.74 1.664 2.94 1.162.156 1.608-.542 2.112-1.53.702-.081 2.67-.163 6.37.585-.16 2.554-.072 5.128.28 7.684-9.138 4.167-13.432 4.435-14.562 4.414-.602-.938-1.114-1.592-2.26-1.321-1.454.342-1.72 1.647-1.378 3.1.342 1.454 1.163 2.504 2.616 2.162 1.146-.27 1.314-1.084 1.434-2.192.996-.52 4.92-2.18 14.83-2.54.983 4.13 2.672 8.157 5.093 11.91-10.184 9.848-15.906 12.435-17.55 13.027-1.493-1.105-2.681-1.82-4.309-.718-2.061 1.397-1.7 3.59-.303 5.652 1.396 2.062 3.3 3.212 5.36 1.815 1.627-1.102 1.405-2.47.933-4.269 1.165-1.312 5.726-5.702 18.79-11.547 1.807 2.148 3.819 4.041 5.971 5.7-1.524 1.508-2.54 2.196-2.995 2.464-.999-.483-1.774-.77-2.606.056-1.055 1.046-.6 2.293.445 3.347 1.048 1.056 2.29 1.52 3.345.472.833-.826.551-1.603.075-2.606.278-.463.996-1.507 2.588-3.077 2.464 1.79 5.112 3.262 7.88 4.405-1.191 8.576-2.952 12.17-3.557 13.193-1.387.075-2.41.23-2.822 1.64-.521 1.787.732 2.878 2.519 3.399 1.786.522 3.43.276 3.95-1.51.41-1.41-.369-2.092-1.498-2.903.04-1.178.48-5.103 4.008-12.854 3.414 1.13 6.972 1.772 10.564 1.919 3.14 11.792 2.495 16.775 2.235 17.978-1.033.406-1.77.78-1.728 1.953.054 1.485 1.277 1.997 2.762 1.943 1.485-.053 2.669-.651 2.615-2.137-.041-1.171-.804-1.493-1.863-1.823-.346-1.18-1.344-6.087.923-18.024 2.453-.216 4.898-.665 7.3-1.36 9.231 10.643 11.16 16.205 11.532 17.644-.927 1.035-1.542 1.87-.836 3.157.896 1.632 2.552 1.517 4.184.622 1.632-.895 2.62-2.231 1.725-3.863-.706-1.287-1.74-1.218-3.11-.993-.995-1.065-4.525-5.524-8.442-18.429 2.156-.97 4.254-2.152 6.265-3.554 3.95-2.758 7.224-6.125 9.783-9.885 8.152 1.891 11.592 3.887 12.66 4.628l-.005.123c-.03.947.112 1.993 1.421 2.563.837.366 1.653.318 2.363-.138.575-.37 1.056-.99 1.428-1.844.262-.602.405-1.171.422-1.69.037-1.12-.512-1.987-1.547-2.439-1.388-.605-2.276.11-2.933.789-1.242-.273-4.897-1.392-11.52-5.813 1.45-2.777 2.546-5.711 3.28-8.73 3.772.501 5.598 1.227 6.239 1.535.154 1.1.347 1.904 1.496 2.136 1.457.293 2.24-.778 2.533-2.235.294-1.457-.013-2.747-1.469-3.041-1.15-.232-1.64.435-2.207 1.388-.707.036-2.68-.01-6.33-1.002.573-2.73.868-5.515.84-8.313 8.02-1.861 11.675-1.452 12.688-1.256.433 1.027.825 1.76 2.002 1.69 1.49-.088 1.976-1.33 1.888-2.82-.088-1.49-.717-2.665-2.207-2.578" mask="url(#prefix__m)"/>
        <path fill="#FFC97B" d="M533.996 105.292l.877-6.525c-14.722 1.744-20.288.025-21.533-.477-.225-1.086-.47-1.876-1.632-2.033-1.473-.198-2.184.922-2.382 2.394-.198 1.474.192 2.741 1.664 2.94 1.163.156 1.607-.54 2.112-1.53 1.332-.154 7.155-.341 20.894 5.23M549.563 123.878l-4.636-4.671c-7.594 12.735-12.348 16.1-13.505 16.781-.999-.483-1.774-.77-2.606.056-1.055 1.046-.6 2.293.446 3.347 1.047 1.055 2.29 1.52 3.344.472.832-.826.55-1.603.075-2.606.69-1.151 4.09-5.881 16.882-13.379M561.96 137.902l-6.578.236c4.203 14.22 3.45 19.997 3.166 21.309-1.033.406-1.77.78-1.729 1.953.054 1.484 1.277 1.997 2.763 1.943 1.485-.053 2.67-.652 2.615-2.137-.042-1.172-.805-1.493-1.863-1.823-.378-1.288-1.545-6.996 1.625-21.481M581.31 105.35l-1.3 6.452c14.804-.779 20.247 1.299 21.456 1.88.154 1.1.346 1.904 1.496 2.135 1.457.294 2.24-.777 2.533-2.234.294-1.457-.013-2.747-1.47-3.041-1.149-.232-1.638.435-2.206 1.388-1.34.068-7.162-.125-20.509-6.58M569.348 82.048l5.175 4.068c5.972-13.571 10.28-17.494 11.343-18.313 1.05.357 1.855.548 2.58-.375.918-1.167.314-2.35-.853-3.267-1.169-.918-2.46-1.226-3.377-.058-.724.922-.35 1.66.245 2.596-.544 1.227-3.339 6.338-15.113 15.349" mask="url(#prefix__m)"/>
        <path fill="#FDD478" d="M516.854 57.82c1.102 1.627 2.47 1.404 4.268.932 1.223 1.087 5.12 5.126 10.378 16.255-3.832 3.597-6.794 7.852-8.827 12.466-14.314-.979-19.689-3.582-20.98-4.344-.075-1.388-.23-2.412-1.64-2.823-1.787-.522-2.877.732-3.398 2.519-.52 1.786-.275 3.43 1.512 3.952 1.408.41 2.09-.37 2.9-1.499 1.486.052 7.336.735 19.729 7.455-1.398 5.049-1.767 10.363-1.043 15.598-9.139 4.167-13.433 4.435-14.563 4.414-.6-.939-1.114-1.591-2.261-1.322-1.453.342-1.719 1.648-1.377 3.102.342 1.453 1.163 2.503 2.616 2.161 1.147-.27 1.314-1.084 1.433-2.192.997-.52 4.92-2.179 14.83-2.54.984 4.13 2.673 8.157 5.093 11.91-10.183 9.848-15.905 12.434-17.548 13.027-1.495-1.106-2.683-1.82-4.309-.718-2.061 1.397-1.7 3.59-.304 5.652 1.396 2.062 3.299 3.211 5.36 1.814 1.627-1.102 1.404-2.47.933-4.268 1.165-1.312 5.726-5.701 18.79-11.548 4.076 4.85 9.148 8.469 14.704 10.762-1.193 8.576-2.954 12.169-3.557 13.192-1.388.077-2.412.232-2.824 1.642-.52 1.787.733 2.878 2.52 3.398 1.786.521 3.43.275 3.95-1.511.412-1.41-.37-2.091-1.497-2.901.04-1.18.479-5.104 4.007-12.855 7.303 2.418 15.269 2.63 22.807.449 9.232 10.642 11.161 16.204 11.532 17.644-.926 1.036-1.54 1.87-.834 3.157.894 1.632 2.552 1.517 4.183.622 1.632-.895 2.62-2.231 1.725-3.862-.706-1.289-1.74-1.218-3.11-.993-.995-1.066-4.524-5.525-8.442-18.43 2.157-.97 4.255-2.151 6.265-3.554 3.951-2.759 7.224-6.126 9.783-9.886 8.152 1.892 11.592 3.887 12.66 4.629l-.005.123c-.031.947.113 1.993 1.421 2.564.836.365 1.654.316 2.363-.139.575-.37 1.055-.99 1.428-1.844.263-.603.404-1.17.421-1.69.039-1.12-.511-1.987-1.546-2.438-1.388-.607-2.276.109-2.933.788-1.243-.273-4.897-1.392-11.52-5.812 2.948-5.644 4.444-11.933 4.382-18.263 8.02-1.862 11.676-1.452 12.689-1.257.431 1.028.825 1.76 2 1.69 1.491-.088 1.977-1.328 1.888-2.82-.087-1.49-.716-2.665-2.206-2.576-1.176.068-1.48.842-1.788 1.913-.983.312-4.554 1.147-12.713.248-.478-5.768-2.265-11.495-5.442-16.725 9.707-9.246 15.185-11.72 16.786-12.297 1.495 1.106 2.682 1.82 4.31.719 2.061-1.397 1.7-3.59.304-5.653-1.397-2.062-3.3-3.212-5.361-1.815-1.627 1.102-1.405 2.47-.932 4.269-1.132 1.274-5.467 5.45-17.68 11.044-4.345-5.576-9.96-9.647-16.147-12.094 2.328-9.005 4.64-12.325 5.334-13.169 1.109.112 1.94.116 2.44-.951.634-1.35-.224-2.37-1.576-3.006-1.35-.634-2.683-.642-3.318.71-.5 1.066.033 1.702.828 2.484-.208 1.087-1.31 5.078-6.935 12.818-5.268-1.56-10.845-1.99-16.333-1.22-1.42-5.494-1.42-8.401-1.34-9.474l.109-.057c.831-.453 1.66-1.108 1.488-2.524-.109-.908-.565-1.587-1.317-1.967-.61-.31-1.388-.409-2.313-.297-.652.078-1.214.244-1.67.493-.986.536-1.454 1.447-1.318 2.57.182 1.502 1.249 1.907 2.167 2.129.337 1.037 1.039 3.918.947 9.729-4.668 1.072-9.213 3.04-13.382 5.949-.442.309-.873.627-1.298.95-8.144-8.818-10.4-13.835-10.949-15.356 1.106-1.494 1.82-2.683.718-4.31-1.396-2.062-3.589-1.7-5.651-.304-2.062 1.397-3.21 3.3-1.814 5.361" mask="url(#prefix__m)"/>
        <path fill="#FFC97B" d="M555.467 127.955c2.896.515 4.964 2.498 4.621 4.43-.344 1.93-2.97 3.076-5.865 2.561-2.896-.515-4.964-2.498-4.62-4.429.343-1.93 2.97-3.078 5.864-2.562M561.249 100.872c1.968 2.821 1.7 6.411-.6 8.016-2.301 1.606-5.761.619-7.73-2.203-1.97-2.822-1.7-6.41.6-8.017 2.3-1.604 5.76-.618 7.73 2.204M578.102 109.112c.954-2.782 3.232-4.52 5.087-3.884 1.854.637 2.583 3.408 1.628 6.19-.955 2.782-3.233 4.522-5.087 3.884-1.854-.636-2.584-3.408-1.628-6.19M543.194 74.445c2.89-.54 5.526.585 5.885 2.512.361 1.928-1.691 3.929-4.582 4.47-2.891.54-5.526-.585-5.886-2.513-.36-1.927 1.691-3.928 4.583-4.469M577.995 80.224c1.742 1.264 2.47 3.23 1.628 4.39-.843 1.161-2.938 1.077-4.679-.187-1.74-1.264-2.468-3.23-1.626-4.39.843-1.161 2.936-1.077 4.677.187M535.624 114.847c.94 2.357.427 4.777-1.144 5.403-1.572.627-3.608-.777-4.548-3.134-.94-2.358-.427-4.778 1.144-5.404 1.572-.627 3.608.777 4.548 3.135" mask="url(#prefix__m)"/>
    </g>
</svg>
