<svg xmlns="http://www.w3.org/2000/svg" xmlns:xlink="http://www.w3.org/1999/xlink" width="428" height="253" viewBox="0 0 428 253">
    <defs>
        <linearGradient id="prefix__b" x1="60.094%" x2="34.734%" y1="73.917%" y2="21.629%">
            <stop offset="0%" stop-color="#DBEBFF"/>
            <stop offset="100%" stop-color="#FFF"/>
        </linearGradient>
        <linearGradient id="prefix__e" x1=".003%" x2="100.003%" y1="49.997%" y2="49.997%">
            <stop offset="0%" stop-color="#FBB62B"/>
            <stop offset="100%" stop-color="#FFCF44"/>
        </linearGradient>
        <linearGradient id="prefix__h" x1=".003%" x2="100.003%" y1="49.999%" y2="49.999%">
            <stop offset="0%" stop-color="#FBB62B"/>
            <stop offset="100%" stop-color="#FFCF44"/>
        </linearGradient>
        <path id="prefix__a" d="M2.83 3.213S1.82 1.997.243.002C1.468 2.842 2.83 3.213 2.83 3.213"/>
        <path id="prefix__d" d="M.482 1.023c-.405.404-.405 1.058 0 1.461l9.531 9.533c.404.404 1.059.404 1.462 0 .403-.403.403-1.058 0-1.461L1.943 1.023C1.741.822 1.476.721 1.212.721c-.265 0-.529.101-.73.302"/>
        <path id="prefix__g" d="M10.013 1.023L.482 10.556c-.405.403-.405 1.058 0 1.461.403.404 1.057.403 1.461 0l9.532-9.533c.403-.403.403-1.057 0-1.461-.202-.201-.466-.302-.731-.302-.264 0-.529.101-.731.302"/>
    </defs>
    <g fill="none" fill-rule="evenodd">
        <path fill="#F7E8C8" d="M0 243.173c0-3.771 95.587-6.828 213.5-6.828s213.5 3.057 213.5 6.828c0 3.771-95.587 6.827-213.5 6.827S0 246.944 0 243.173" transform="translate(1 3)"/>
        <path fill="#FFF" d="M59.214 151.848c-.004-.124-.016-.304-.06-.531-.037-.23-.123-.501-.262-.8-.147-.291-.365-.604-.674-.873-.309-.268-.696-.493-1.13-.652-.432-.165-.907-.267-1.4-.33-.493-.065-1.002-.071-1.5-.116-.25-.021-.502-.055-.745-.114-.243-.056-.483-.136-.684-.273-.096-.07-.19-.155-.25-.251-.033-.044-.063-.096-.082-.162l-.032-.085-.018-.09c-.018-.12-.015-.243.033-.348.045-.106.133-.192.234-.261.207-.134.451-.213.685-.307.233-.097.465-.18.692-.267.457-.165.905-.31 1.324-.467.418-.16.811-.317 1.168-.483.36-.158.68-.327.957-.484.28-.157.513-.32.703-.446.355-.285.548-.462.548-.462.005-.005.007-.013.003-.02-.005-.007-.015-.01-.022-.005l-.16.098c-.104.063-.252.166-.448.282-.206.096-.434.24-.72.368-.289.127-.607.279-.969.42-.355.156-.75.3-1.162.472-.413.167-.842.367-1.288.569l-.672.32c-.223.108-.467.188-.693.33-.112.07-.219.167-.279.298-.062.129-.069.274-.053.409l.014.102.03.099c.012.062.04.125.08.19.067.13.165.23.272.319.442.348.991.45 1.5.529.52.068 1.02.084 1.491.165.471.072.922.173 1.33.313.406.144.77.328 1.066.555.294.229.504.503.67.759.155.262.255.515.32.729.07.214.102.388.122.508l.037.182c.002.008.01.015.017.015.008-.001.015-.008.015-.017l-.008-.187" transform="translate(1 3)"/>
        <path fill="#A29C8F" d="M88.518 10.103L31.62 10.917 31.62 154.971 88.518 154.971z" transform="translate(1 3)"/>
        <path fill="#FFFCF8" d="M31.44 151.633L85.057 151.633 85.057 12.404 31.44 12.404z" transform="translate(1 3)"/>
        <path fill="#A29C8F" d="M33.77 151.36h50.773V64.221H33.77v87.139zm0-90.685h50.773V15.102H33.77v45.573zm-2.844 92.171H85.84V12.129H30.926v140.717z" transform="translate(1 3)"/>
        <path fill="#F7E8C8" d="M32.862 150.147h50.773V63.008H32.862v87.139zm0-90.685h50.773V13.889H32.862v45.573zm-2.844 93.657H86.48V10.917H30.02v142.202z" transform="translate(1 3)"/>
        <path fill="#306B34" d="M80.187 135.914s-18.933 6.36-16.357 28.187c2.577 21.83-1.133 48.426-1.133 48.426H73.49s19.226-25.919 5.06-45.339c-14.167-19.42 1.638-31.274 1.638-31.274" transform="translate(1 3)"/>
        <path fill="#A4B751" d="M78.688 137.274c-3.445 2.845-13.468 13.178-2.666 30.286 12.831 20.327-8.088 44.9-8.088 44.9l-5.181-.35-.056.417H73.49s19.225-25.918 5.059-45.338c-11.37-15.588-3.439-26.293.138-29.915" transform="translate(1 3)"/>
        <path fill="#4900BC" d="M79.424 136.565c.467-.426.763-.65.763-.65s-1.702.576-4.012 1.962c1.525-.74 2.707-1.144 3.249-1.312" transform="translate(1 3)"/>
        <path fill="#619440" d="M59.468 188.387c1.011-19.37.23-21.791-7.3-28.187-7.53-6.397-18.142-16.913-18.142-16.913 7.228 14.31 7.083 20.815 8.443 31.343 1.055 8.168 13.324 24.469 18.774 31.372-1.206-2.8-2.278-7.998-1.775-17.615" transform="translate(1 3)"/>
        <g transform="translate(1 3) translate(61 206)">
            <mask id="prefix__c" fill="#fff">
                <use xlink:href="#prefix__a"/>
            </mask>
            <path fill="url(#prefix__b)" d="M2.83 3.213S1.82 1.997.243.002C1.468 2.842 2.83 3.213 2.83 3.213" mask="url(#prefix__c)"/>
        </g>
        <g>
            <path fill="#306B34" d="M42.806 173.376c-3.758 16.094 4.233 26.907 4.233 26.907h7.88c-.027-5.546.371-10.866 2.983-16.245.138-.285.303-.548.48-.799-1.11-.52-2.346-1.047-3.723-1.575-14.55-5.589-8.095-24.38-11.853-8.288" transform="translate(1 3) translate(13 6)"/>
            <path fill="#619440" d="M63.236 177.424c-8 4.048-5.686 21.395-5.686 21.395l7.517 2.697s-1.35-7.902 3.758-14.07c5.108-6.167 8.48-3.802 8.48-3.802s-6.07-10.268-14.07-6.22M24.881 169.232c-13.43 0-20.94 8.095-20.94 8.095s5.227-2.656 14.58-2.313c9.352.344 8.673 8.288 16.19 15.708 7.517 7.42 13.78 8.481 13.78 8.481s-9.955-14.4-17.25-24.189c-1.284-1.722-.032-5.782-6.36-5.782" transform="translate(1 3) translate(13 6)"/>
            <path fill="#FAF9FC" d="M1.338 180.092c-.056.144-.067.224-.067.224s.021-.081.067-.224" transform="translate(1 3) translate(13 6)"/>
            <path fill="#A4B751" d="M35.77 177.906c-2.505-3.373.098-11.66-15.9-9.733-14.611 1.76-18.046 10.43-18.532 11.92.37-.963 2.707-4.879 16.797-8.066 16.19-3.662 7.614 4.723 14.938 10.023 7.324 5.3 13.299 15.225 13.299 15.225s4.144 6.94 3.179 1.157c-.964-5.782-11.274-17.153-13.78-20.526M85.4 185.134c-7.323-14.938-16.18-13.965-22.068-10.697-8.355 4.636-6.983 23.996-6.983 23.996l1.2.386s.194-3.76.833-10.216c.64-6.456 3.793-15.623 14.009-2.891 10.217 12.732 24.67 15.022 24.67 15.022s-4.336-.662-11.66-15.6" transform="translate(1 3) translate(13 6)"/>
            <path fill="#A4B751" d="M66.035 166.538c-2.301-1.688-4.637-1.399-6.441-.648-2.28.95-4.846.636-6.951-.635-7.701-4.66-8.291 1.746-8.291 1.746l.208 1.734c.01.012.01.034.01.058.556 3.215 2.36 9.9 10.086 12.871 1.376.532 13.495 5.782 13.495 5.782-1.642-6.649 2.602-17.438-2.116-20.908" transform="translate(1 3) translate(13 6)"/>
            <path fill="#57575E" d="M45.773 237.173H58.63c4.727 0 8.558-3.832 8.558-8.558v-31.436h-29.97v31.436c0 4.726 3.83 8.558 8.556 8.558" transform="translate(1 3) translate(13 6)"/>
            <path fill="#7F786A" d="M34.294 201.516L70.109 201.516 70.109 197.179 34.294 197.179z" transform="translate(1 3) translate(13 6)"/>
            <path fill="#F7E8C8" d="M408.601 71.275l-153.95 21.198c-2.192.302-4.233-1.243-4.534-3.436l-8.612-62.536c-.302-2.193 1.245-4.233 3.437-4.536L398.892.767c2.192-.302 4.232 1.244 4.535 3.437l8.611 62.536c.302 2.192-1.245 4.233-3.437 4.535" transform="translate(1 3) translate(13 6)"/>
            <path fill="#FFCB80" d="M388.417 25.988l-67.18 9.251c-1.734.24-3.348-.984-3.587-2.718l-.021-.158c-.24-1.733.984-3.347 2.718-3.586l67.18-9.25c1.734-.239 3.348.983 3.586 2.717l.022.158c.239 1.733-.985 3.348-2.718 3.586" transform="translate(1 3) translate(13 6)"/>
            <path fill="#FFF4DD" d="M392.299 46.291l-67.18 9.252c-1.734.238-3.348-.984-3.587-2.719l-.021-.157c-.24-1.734.984-3.348 2.718-3.587l67.18-9.25c1.734-.239 3.348.983 3.586 2.717l.022.158c.239 1.734-.985 3.348-2.718 3.586M394.24 60.386l-67.181 9.25c-1.733.24-3.347-.983-3.586-2.717l-.021-.158c-.24-1.733.984-3.347 2.718-3.586l67.18-9.251c1.734-.238 3.348.984 3.586 2.718l.022.158c.239 1.733-.985 3.348-2.718 3.586M311.813 48.694c1.637 10.271-2.165 20.153-9.28 26.71-4.18 3.853-9.504 6.56-15.54 7.522-6.263.998-12.38-.026-17.69-2.591-8.511-4.113-14.94-12.184-16.54-22.227-2.6-16.307 8.513-31.632 24.818-34.231 16.306-2.6 31.633 8.512 34.232 24.817" transform="translate(1 3) translate(13 6)"/>
            <path fill="#FED843" d="M297.007 45.255h-5.868l7.056-11.854c.257-.428.264-.961.018-1.396-.247-.435-.706-.703-1.206-.703h-16.633c-.636 0-1.189.433-1.344 1.051l-5.544 22.268c-.104.414-.01.854.252 1.189.263.337.666.533 1.092.533h6.316l-7.614 20.396c-.243.65.031 1.379.642 1.708.613.329 1.372.153 1.777-.406l9.968-13.798 12.21-16.787c.306-.421.35-.978.114-1.444-.237-.465-.715-.757-1.236-.757" transform="translate(1 3) translate(13 6)"/>
            <path fill="#FABE2C" d="M298.243 46.012c-.237-.465-.715-.757-1.236-.757h-5.868l7.057-11.853c.256-.43.263-.962.017-1.397-.246-.434-.706-.703-1.206-.703H285.92v32.94l12.21-16.786c.306-.421.35-.978.114-1.444" transform="translate(1 3) translate(13 6)"/>
            <path fill="#F4B545" d="M323.15 179.473l-113.93 16.106c-13.174 1.864-25.478-7.392-27.34-20.568l-3.19-22.561c-1.863-13.176 7.393-25.48 20.568-27.342L313.188 109c13.175-1.862 25.479 7.394 27.342 20.569l3.189 22.562c1.863 13.175-7.393 25.479-20.568 27.342" transform="translate(1 3) translate(13 6)"/>
            <path fill="#E59D29" d="M323.71 128.903l-69.056 9.764c-1.208.17-2.335-.678-2.506-1.886l-.292-2.067c-.171-1.208.677-2.335 1.885-2.506l69.056-9.764c1.208-.17 2.335.678 2.506 1.886l.292 2.067c.17 1.208-.677 2.336-1.885 2.506" transform="translate(1 3) translate(13 6)"/>
            <path fill="#FFCB80" d="M327.154 148.11l-67.146 9.493c-1.733.245-3.352-.972-3.596-2.704l-.023-.159c-.245-1.733.973-3.35 2.705-3.596l67.147-9.493c1.733-.245 3.35.974 3.596 2.706l.022.157c.245 1.733-.972 3.351-2.705 3.596M329.145 162.198L262 171.69c-1.733.245-3.352-.97-3.596-2.705l-.023-.157c-.245-1.734.973-3.352 2.705-3.597l67.147-9.492c1.733-.245 3.351.972 3.596 2.705l.022.157c.245 1.734-.972 3.352-2.705 3.597" transform="translate(1 3) translate(13 6)"/>
            <path fill="#F9F9F9" d="M246.247 154.421c1.306 9.275-1.782 18.155-7.679 24.536-4.525 4.896-10.704 8.321-17.822 9.323-6.334.892-12.486-.265-17.782-2.97-8.408-4.289-14.661-12.473-16.077-22.53-2.309-16.391 9.109-31.551 25.501-33.859 16.391-2.309 31.55 9.108 33.859 25.5" transform="translate(1 3) translate(13 6)"/>
            <path fill="#6A675F" d="M216.133 144.592h-.002l-2.664.402h-.005l.29 1.928 2.674-.403-.29-1.927h-.003z" transform="translate(1 3) translate(13 6)"/>
            <path fill="#969287" d="M213.467 144.994L213.465 144.994 213.462 144.994 213.752 146.922 215.089 146.721 214.799 144.794zM216.133 144.592c.737-.112 1.244-.801 1.133-1.538-.11-.738-.8-1.247-1.539-1.136l-1.33.2.402 2.675 1.334-.201z" transform="translate(1 3) translate(13 6)"/>
            <path fill="#AEAA9C" d="M211.929 143.858c.11.737.799 1.245 1.536 1.136l1.334-.2-.403-2.675-1.331.202c-.74.11-1.247.8-1.136 1.537" transform="translate(1 3) translate(13 6)"/>
            <path fill="#969287" d="M214.799 144.794L214.799 144.793 213.465 144.994 213.467 144.994zM214.8 144.794l1.331-.2.002-.002-1.334.201v.001z" transform="translate(1 3) translate(13 6)"/>
            <path fill="#EABBAB" d="M223.216 136.47l-18.914 2.85c-.738.112-1.247.8-1.135 1.54.111.738.8 1.246 1.538 1.134l.244-.036.927 6.15 2.674-.402-.926-6.151 13.077-1.971.927 6.152 2.674-.404-.926-6.15.243-.037c.74-.111 1.247-.8 1.136-1.538-.11-.74-.8-1.247-1.539-1.136" transform="translate(1 3) translate(13 6)"/>
            <path fill="#F7C8B3" d="M204.303 139.32c-.74.111-1.247.8-1.136 1.54.112.737.8 1.245 1.539 1.134l.244-.036.927 6.15 2.674-.402-.927-6.152 6.539-.985-.403-2.674-9.457 1.425zM228.877 174.04l-18.914 2.85c-.739.111-1.247.8-1.136 1.538l.814 5.398c.111.738.8 1.247 1.538 1.136l18.914-2.85c.74-.112 1.247-.8 1.136-1.539l-.813-5.398c-.112-.739-.8-1.247-1.539-1.136" transform="translate(1 3) translate(13 6)"/>
            <path fill="#EABBAB" d="M228.878 174.04l-9.458 1.424 1.217 8.073 9.457-1.426c.738-.11 1.247-.8 1.136-1.538l-.813-5.398c-.112-.739-.801-1.247-1.54-1.136" transform="translate(1 3) translate(13 6)"/>
            <path fill="#F7C8B3" d="M223.959 144.385l-18.034 2.717c-3.883.585-6.557 4.208-5.972 8.09l2.762 18.334c.586 3.883 4.208 6.556 8.092 5.97l18.033-2.715c3.884-.585 6.558-4.21 5.973-8.092l-2.763-18.332c-.585-3.884-4.207-6.558-8.091-5.972" transform="translate(1 3) translate(13 6)"/>
            <path fill="#EABBAB" d="M223.959 144.385l-9.017 1.358 4.88 32.396 9.018-1.358c3.884-.585 6.558-4.21 5.973-8.092l-2.763-18.332c-.585-3.884-4.207-6.558-8.091-5.972" transform="translate(1 3) translate(13 6)"/>
            <path fill="#E69323" d="M223.068 160.375l-5.68-5.714c-.303-.307-.735-.448-1.16-.385-.426.065-.796.328-.996.71l-3.744 7.133c-.942 1.795-1.093 3.917-.415 5.822.682 1.913 2.15 3.471 4.03 4.272 1.261.537 2.61.698 3.903.503 1.294-.195 2.535-.745 3.582-1.63 1.56-1.32 2.504-3.24 2.592-5.27.087-2.02-.683-4.004-2.112-5.44" transform="translate(1 3) translate(13 6)"/>
            <path fill="#F4B545" d="M221.707 164.755l-3.298-3.318c-.304-.305-.735-.448-1.16-.384-.426.064-.796.328-.996.709l-2.174 4.142c-.62 1.182-.72 2.58-.273 3.834.45 1.26 1.415 2.285 2.651 2.811.832.355 1.721.461 2.574.333.853-.129 1.671-.492 2.361-1.076 1.026-.867 1.648-2.132 1.706-3.468.057-1.33-.45-2.637-1.39-3.583" transform="translate(1 3) translate(13 6)"/>
            <path fill="#EAA827" d="M213.806 169.738c-.447-1.255-.348-2.652.273-3.834l2.174-4.143c.2-.38.57-.644.996-.709l-1.02-6.776c-.427.065-.797.327-.997.71l-3.744 7.133c-.942 1.796-1.094 3.917-.415 5.822.682 1.913 2.15 3.47 4.03 4.272.596.254 1.211.422 1.831.51-.16-.048-.319-.107-.476-.174-1.236-.527-2.203-1.55-2.652-2.81" transform="translate(1 3) translate(13 6)"/>
            <path fill="#F6DE41" d="M219.006 172.716c-.683.104-1.38.106-2.072.008.69.212 1.405.262 2.097.157l-.025-.165z" transform="translate(1 3) translate(13 6)"/>
            <path fill="#F6DE41" d="M219.031 172.882c.692-.104 1.361-.363 1.957-.769-.632.298-1.299.5-1.982.603l.025.166z" transform="translate(1 3) translate(13 6)"/>
            <path fill="#FFBF4D" d="M219.006 172.716l-1.757-11.663c-.426.064-.796.328-.996.709l-2.174 4.142c-.62 1.182-.72 2.58-.273 3.834.45 1.26 1.415 2.285 2.652 2.81.156.068.316.127.476.176.692.098 1.39.096 2.072-.008" transform="translate(1 3) translate(13 6)"/>
        </g>
        <g transform="translate(1 3) translate(99 51)">
            <mask id="prefix__f" fill="#fff">
                <use xlink:href="#prefix__d"/>
            </mask>
            <path fill="url(#prefix__e)" d="M.482 1.023c-.405.404-.405 1.058 0 1.461l9.531 9.533c.404.404 1.059.404 1.462 0 .403-.403.403-1.058 0-1.461L1.943 1.023C1.741.822 1.476.721 1.212.721c-.265 0-.529.101-.73.302" mask="url(#prefix__f)"/>
        </g>
        <g transform="translate(1 3) translate(99 51)">
            <mask id="prefix__i" fill="#fff">
                <use xlink:href="#prefix__g"/>
            </mask>
            <path fill="url(#prefix__h)" d="M10.013 1.023L.482 10.556c-.405.403-.405 1.058 0 1.461.403.404 1.057.403 1.461 0l9.532-9.533c.403-.403.403-1.057 0-1.461-.202-.201-.466-.302-.731-.302-.264 0-.529.101-.731.302" mask="url(#prefix__i)"/>
        </g>
        <g>
            <path fill="#FFA986" d="M114.408 35.332c-.017-.613-1.983-7.02-.941-7.48 1.04-.462 1.498-.758 1.842-.31.345.445 1.882 4.103 1.712 4.55-.171.443-2.613 3.24-2.613 3.24" transform="translate(1 3) translate(69)"/>
            <path fill="#FFA986" d="M123.631 37.645c2.09-2.8 2.311-4.927-.489-7.018-2.8-2.09-5.045-1.473-7.136 1.327-2.09 2.8-2.638 5.925.162 8.015 2.8 2.09 5.373.477 7.463-2.324" transform="translate(1 3) translate(69)"/>
            <path fill="#FFA986" d="M116.123 31.799c.274-.448 3.253-8.257 5.014-8.308 1.76-.051 9.663 3.119 8.633 6.327-1.868 2.344-5.853 7.444-5.853 7.444l-7.794-5.463z" transform="translate(1 3) translate(69)"/>
            <path fill="#E59D29" d="M69.003 73.154c.338-.106.685-.198 1.034-.272.175-.038.35-.07.526-.099l.167-.025.052-.006.417-.048c.276-.032.442-.068.67-.097.212-.018.436-.09.655-.132.224-.057.435-.073.672-.159.469-.158.927-.248 1.413-.445l1.464-.567c.988-.486 1.99-.897 2.987-1.504l1.502-.846 1.484-.972c.494-.332.999-.627 1.486-.987l1.458-1.087 1.464-1.086 1.422-1.187 1.425-1.19c.479-.39.952-.792 1.405-1.23l2.76-2.562c.469-.417.912-.87 1.353-1.327l1.332-1.36c.88-.917 1.797-1.792 2.652-2.746l2.567-2.859c.852-.957 1.729-1.89 2.535-2.9l2.469-2.98c.816-1.002 1.67-1.968 2.443-3.01l4.746-6.17 7.897 5.504-4.54 6.687c-.738 1.126-1.573 2.197-2.364 3.294l-2.404 3.276c-.782 1.105-1.653 2.155-2.498 3.225l-2.55 3.2c-.85 1.065-1.786 2.08-2.678 3.123l-1.354 1.556c-.45.52-.9 1.04-1.39 1.535l-2.881 3.01c-.47.507-.975.994-1.493 1.472l-1.536 1.448-1.543 1.444-1.641 1.382-1.645 1.38c-.551.458-1.16.877-1.74 1.317l-1.763 1.302c-.615.415-1.252.815-1.88 1.221-1.224.836-2.618 1.552-3.97 2.294-.712.345-1.448.672-2.176 1.004-.723.334-1.545.597-2.318.89-.381.15-.824.254-1.235.38-.422.115-.828.25-1.27.337-.421.091-.901.202-1.277.268l-.563.1-.071.013c-.008.002-.032.005-.026.005l.07-.009c.095-.013.189-.03.283-.052.187-.043.372-.103.548-.178l-4.552-12.575z" transform="translate(1 3) translate(69)"/>
            <path fill="#FFC581" d="M11.093 232.945l-1.804 5.158s-1.407 1.16-3.27 1.16c-1.864 0-2.1-.852-2.13-1.23-.029-.379 1.723-6.248 1.723-6.248l5.481 1.16z" transform="translate(1 3) translate(69)"/>
            <path fill="#7F786A" d="M4.995 232.975h6.762c10.81-21.816 50.973-95.255 51.362-96.325.454-1.25-20.3-5.771-20.3-5.771s-4.619 7.099-8.528 14.599c-4.778 9.168-7.834 36.239-7.834 36.239s-14.122 7.39-21.462 51.258" transform="translate(1 3) translate(69)"/>
            <path fill="#FFC581" d="M74.26 232.6l.411 5.14s-.923 1.156-2.81 1.156c-1.89 0-2.5-.85-2.694-1.226-.194-.378-.967-6.224-.967-6.224l6.06 1.155z" transform="translate(1 3) translate(69)"/>
            <path fill="#7F786A" d="M86.238 243.75H75.336c-.33-.13-.677-.263-1.08-.366-.47-.12-2.289-.203-2.289-.203l-.059.57H67.27c0-1.399.95-5.746 1-6.063.058-.375.51-.468.66-.375.148.094 1.525 1.311 2.906 1.311 1.381 0 2.648-1.357 3.03-1.404.382-.047 1.374.593 1.374.593s8.303 4.37 9.368 4.744c.908.32.676.82.63 1.193M18.577 242.557c-.52-.183-2.772-1.321-4.938-2.438v3.63h5.568c.047-.372.28-.873-.63-1.192" transform="translate(1 3) translate(69)"/>
            <path fill="#57575E" d="M67.27 243.75c0-.354.06-.896.152-1.514 1.421.013 3.564-.014 4.47-.014 1.098 0 2.731.83 3.706.83h10.656c.095.236.01.487-.016.698H75.336c-.332-.13-.677-.263-1.08-.366-.47-.12-2.289-.203-2.289-.203l-.059.57H67.27z" transform="translate(1 3) translate(69)"/>
            <path fill="#7F786A" d="M67.718 233.276l7.082.18c.288-13.651 2.132-100.956 2.007-102.111-.136-1.256-17.511.125-17.511.125s-1.555 6.707-1.906 14.234c-.43 9.2 7.905 35.998 7.905 35.998s-9.075 8.286 2.423 51.575" transform="translate(1 3) translate(69)"/>
            <path fill="#FFBF4D" d="M77.831 131.717c-.912.228 1.141 5.019-10.721 5.702-11.861.685-23.266-5.246-24.406-6.843-1.141-1.596 2.831-15.252 3.743-20.27.912-5.018-6.253-29.228-6.025-32.193.228-2.965 14.249-7.328 14.249-7.328l9.303-.427c3.793-.175 7.569.614 10.977 2.289 1.532.754 2.957 1.469 3.565 1.816 1.596.913.684 23.95.456 27.6-.228 3.65-1.141 29.654-1.141 29.654" transform="translate(1 3) translate(69)"/>
            <path fill="#FFC581" d="M66.215 61.734l-1.192-5.233-9.845 3.16s0 9.948-.518 11.14c.523 1.42 5.337 4.656 7.534 4.546 4.694-.231 4.343-4.457 4.373-4.604.05-.26-.352-9.008-.352-9.008" transform="translate(1 3) translate(69)"/>
            <path fill="#FFBC3F" d="M66.215 61.734l-1.192-5.233-9.805 3.148c.074.681.124 1.114.124 1.17 0 .06.149.383.386.852 2.133 4.235 5.886 7.486 10.45 8.774.153.043.3.082.444.116-.128-3.133-.407-8.827-.407-8.827" transform="translate(1 3) translate(69)"/>
            <path fill="#FFC581" d="M71.05 46.661c-.144 5.616-.7 18.167-1.52 19.418-.664.531-2.437.631-4.347.556-3.95-.157-7.586-2.276-9.607-5.674-.125-.21-.198-.35-.198-.392 0-.29-1.47-10.904-.454-13.37 1.015-2.465 1.933-2.658 1.933-2.658s1.596-1.355 5.318-1.306c2.183.03 4.847.423 6.678.743 1.297.228 2.23 1.368 2.197 2.683" transform="translate(1 3) translate(69)"/>
            <path fill="#57575E" d="M57.583 58.52l.702-8.161c.084-.973-.336-1.923-1.12-2.505-1.42-1.053-3.646-2.49-4.46-1.845-1.235.978 1.66 11.146 2.071 11.557.411.412 2.807.954 2.807.954" transform="translate(1 3) translate(69)"/>
            <path fill="#57575E" d="M57.34 50.852c.349-.386.233-2.59 2.783-2.743 2.55-.154 5.06.503 7.03.426 1.972-.08 3.827-.928 3.943-.194 1.08-4.018 4.095-10.046-.193-11.552-4.29-1.507-10.51 1.7-11.398 2.318-.89.618-2.55 3.825-3.71 4.675-1.16.85-3.476 2.24-3.322 2.589.154.347 1.816 4.095 2.086 4.095.27 0 2.782.386 2.782.386" transform="translate(1 3) translate(69)"/>
            <path fill="#FFC581" d="M57.079 57.675c-1-1.167-1.98-3.155-3.26-2.622-1.28.533-1.13 6.137 3.25 4.826.543-1.641.01-2.204.01-2.204" transform="translate(1 3) translate(69)"/>
            <path fill="#FFBF4D" d="M52.589 79.826c-.035-.049-.071-.097-.11-.143l-.06-.067c-.02-.023 0-.003-.003-.006l.028.03.024.037c.008.012.056.051.08.076.14.116.207.223.394.361l.505.41c.164.14.398.273.592.411l.607.421.69.394c.463.263.903.545 1.426.773l1.51.733 1.613.648c1.052.464 2.215.797 3.343 1.18 4.585 1.428 9.492 2.378 14.472 3.063 1.244.181 2.513.274 3.769.415 1.264.115 2.512.3 3.789.358l3.82.226c1.275.076 2.547.17 3.833.171l3.85.072c1.286.015 2.567.078 3.858.031l7.74-.142.533 9.611-8.033.458c-1.336.098-2.687.087-4.033.124l-4.042.078c-1.345.048-2.701.003-4.055-.025l-4.065-.087c-1.354-.01-2.721-.153-4.081-.225-1.363-.1-2.723-.152-4.09-.294-5.467-.542-10.965-1.366-16.493-2.858-1.383-.404-2.764-.753-4.15-1.287l-2.077-.75-2.081-.905c-.691-.28-1.39-.664-2.083-1.026l-1.041-.553-1.05-.65c-.35-.229-.691-.42-1.048-.683l-1.064-.787c-.346-.249-.737-.618-1.098-.929-.095-.087-.176-.15-.282-.258l-.317-.32-.312-.327-.088-.096-.137-.162-.268-.333 9.685-7.168z" transform="translate(1 3) translate(69)"/>
            <path fill="#7F786A" d="M5.601 241.376s1.705.64 2.114.9c.353.222.64.454.915.682l.42.136h7.716c-2.232-2.21-5.443-5.505-5.443-5.505s-.747-.915-1.125-.988c-.377-.074-2 .827-3.315.4-1.314-.426-2.247-2.009-2.36-2.144-.113-.135-.571-.185-.743.153-.145.286-2.391 4.127-2.822 5.458L5.37 241.9l.231-.523z" transform="translate(1 3) translate(69)"/>
            <path fill="#57575E" d="M10.175 243.46h2.265l-3.345-1.087c-.927-.3-2.224-1.594-3.27-1.934-.86-.279-2.907-.914-4.255-1.365-.278.56-.503 1.057-.612 1.394l4.41 1.431.234-.523s1.704.64 2.114.9c.352.222.639.454.915.682l1.544.501z" transform="translate(1 3) translate(69)"/>
            <path fill="#57575E" d="M19.202 243.05H9.083c.153.154 1.952.62 2.013.7h8.09c.026-.211.111-.462.016-.7" transform="translate(1 3) translate(69)"/>
            <path fill="#FFAC34" d="M168.214 58.347c-2.843-20.405-21.69-34.643-42.095-31.8-20.405 2.844-34.643 21.69-31.799 42.096 2.843 20.405 21.69 34.642 42.095 31.8 20.405-2.844 34.642-21.691 31.8-42.096" transform="translate(1 3) translate(69)"/>
            <path fill="#FFBC3F" d="M159.91 59.504c-2.206-15.819-16.815-26.855-32.634-24.651-15.819 2.204-26.855 16.814-24.65 32.632 2.203 15.819 16.813 26.856 32.632 24.652 15.818-2.204 26.855-16.815 24.651-32.633" transform="translate(1 3) translate(69)"/>
            <path fill="#FFA331" d="M133.314 51.009c.752-.392.971-1.464.487-2.393-.483-.927-1.486-1.364-2.238-.972l-8.178 4.256-5.45 2.837c-.753.39-.972 1.462-.489 2.39.484.93 1.487 1.366 2.24.975l5.451-2.837c1.774-.924 4.007-.294 5.59 1.367l-9.29 4.834c-.753.392-.97 1.464-.488 2.393.483.928 1.486 1.364 2.24.972l9.288-4.835c.453 2.249-.312 4.44-2.087 5.363l-5.45 2.837c-.179.092-.333.228-.456.399-.243.345-.34.81-.264 1.297.075.482.317.946.67 1.285.176.173.373.306.582.394l17.904 7.783c.438.19.873.174 1.222-.008.35-.182.612-.527.71-.993.19-.933-.366-2-1.239-2.38L129.98 69.85l2.161-1.125c3.293-1.714 4.537-6.04 3.173-10.204l1.502-.782c.752-.391.971-1.462.488-2.391-.484-.93-1.487-1.365-2.239-.974l-1.502.782c-.856-1.145-1.896-2.041-3.01-2.71l2.761-1.436z" transform="translate(1 3) translate(69)"/>
            <path fill="#FFC581" d="M108.396 90.28c.437-.432 3.78-6.239 4.829-5.793 1.047.447 1.575.58 1.483 1.136-.092.556-1.718 4.177-2.16 4.355-.441.18-4.152.302-4.152.302" transform="translate(1 3) translate(69)"/>
            <path fill="#FFC581" d="M112.998 98.602c3.474-.382 5.178-1.672 4.796-5.146-.38-3.473-2.362-4.694-5.837-4.311-3.472.382-6.131 2.112-5.75 5.586.382 3.474 3.318 4.253 6.79 3.87" transform="translate(1 3) translate(69)"/>
            <path fill="#FFC581" d="M112.15 89.123c.515-.104 8.257-3.253 9.495-2 1.238 1.251 4.313 9.191 1.265 10.628-2.99.232-9.436.798-9.436.798l-1.324-9.426z" transform="translate(1 3) translate(69)"/>
            <path fill="#FFA331" d="M104.725 11.64c.737.42 1.756.025 2.276-.884.52-.908.343-1.988-.392-2.41l-8.002-4.575L93.272.72c-.737-.421-1.756-.025-2.276.884-.52.908-.344 1.987.392 2.409l5.335 3.05c1.737.994 2.415 3.213 1.873 5.44l-9.09-5.198c-.737-.421-1.757-.024-2.276.884-.52.909-.345 1.988.391 2.409l9.092 5.199c-1.646 1.598-3.903 2.138-5.64 1.145L85.74 13.89c-.174-.1-.371-.155-.582-.166-.42-.02-.864.15-1.233.478-.366.325-.626.779-.72 1.258-.048.243-.053.48-.015.703l3.137 19.269c.076.473.326.829.667 1.024.34.196.775.23 1.219.06.888-.345 1.484-1.39 1.331-2.328l-2.468-15.164 2.115 1.21c3.222 1.843 7.534.55 10.3-2.85l1.469.84c.736.422 1.755.026 2.275-.883.52-.91.345-1.988-.391-2.41l-1.47-.84c.5-1.34.69-2.7.65-3.997l2.703 1.545z" transform="translate(1 3) translate(69)"/>
        </g>
    </g>
</svg>
