<svg xmlns="http://www.w3.org/2000/svg" xmlns:xlink="http://www.w3.org/1999/xlink" width="155" height="155" viewBox="0 0 155 155">
  <defs>
    <clipPath id="clip-Artboard_1">
      <rect width="155" height="155"/>
    </clipPath>
  </defs>
  <g id="Artboard_1" data-name="Artboard – 1" clip-path="url(#clip-Artboard_1)">
    <rect width="155" height="155" fill="#fff"/>
    <g id="Group_2" data-name="Group 2" transform="translate(10.765 10.765)">
      <g id="Group_1" data-name="Group 1" transform="translate(59.443 25.639)">
        <path id="Path_1" data-name="Path 1" d="M41.5,28.5h2.435c3.438,0,5.443-1.432,5.443-4.44,0-2.865-2.005-3.867-5.443-3.867H41.5V17.9H54.248v1.576H49.521A4.964,4.964,0,0,1,52.1,24.059c0,4.727-3.294,6.875-7.735,6.875H41.5Zm0-5.443,2.292-.143H54.248v1.576H41.5Zm2.292,7.305L45.8,28.929l7.448,10.313H50.094Z" transform="translate(-41.5 -17.9)" fill="#ffbf4d"/>
      </g>
      <path id="Path_2" data-name="Path 2" d="M67.035,118.245H9.31c-5.873,0-9.31-3.438-9.31-9.31V45.767C0,40.038,3.438,36.6,9.167,36.6H125.045c5.586,0,9.024,3.438,9.024,9.167v63.454c0,5.586-3.438,9.024-9.024,9.024ZM4.3,75.417c0,.43-.143.859-.143,1.146v32.8c0,3.008,1.719,4.584,4.87,4.584H124.9c3.294,0,4.87-1.576,4.87-4.87V76.849a5.876,5.876,0,0,0-.143-1.576C87.8,75.417,46.122,75.417,4.3,75.417Zm-.143-4.44H129.772V56.367H5.729c-1.289,0-1.719.286-1.719,1.719.143,2.865,0,5.586,0,8.451C4.154,67.969,4.154,69.544,4.154,70.977ZM129.772,52.213c0-2.721.143-5.3,0-7.735a3.873,3.873,0,0,0-3.724-3.581H8.021A3.826,3.826,0,0,0,4.44,44.048c-.143,2.721,0,5.443,0,8.308Q66.963,52.141,129.772,52.213Z" transform="translate(0 15.824)" fill="#ffbf4d"/>
      <path id="Path_3" data-name="Path 3" d="M95.728,48.127c1.432-12.318,2.865-24.493,4.3-36.955-3.294-.43-6.446-.859-9.883-1.146V47.984H85.988V14.61H42.015V47.984h-4.3V10.027c-3.438.43-6.589.716-9.883,1.146,1.432,12.318,2.865,24.493,4.3,36.955H24.253c-.286,0-.859-.573-1-1-2.005-4.3-4.011-8.737-6.016-13.035-.143-.43-.43-.859-.573-1.289-1.432,1.576-2.721,3.008-4.3,4.727,3.294,3.294,7.019,6.875,10.886,10.743H17.664a1.819,1.819,0,0,1-1-.573L7.924,38.96c-1.432-1.432-1.432-2.292,0-3.867L13.8,29.22a1.189,1.189,0,0,0,.286-1.719,20.292,20.292,0,0,1-1.146-2.578c-.859-1.862-.573-2.721,1.432-3.724,2.865-1.289,5.586-2.578,8.451-3.867a1.629,1.629,0,0,0,1.146-2.005c-.286-1.719-.43-3.438-.573-5.157s.43-2.578,2.149-2.721c3.581-.43,7.019-.859,10.6-1.146,1.146-.143,1.576-.573,1.576-1.719,0-4.3,0-4.44,4.44-4.44C57.2,0,72.094,0,86.847,0c2.865,0,3.294.573,3.294,3.294,0,2.578,0,2.578,2.578,2.865,3.008.43,6.159.716,9.167,1.146,2.005.286,2.578,1,2.292,3.008-.143,1.576-.286,3.151-.573,4.727a1.7,1.7,0,0,0,1.289,2.149c2.865,1.146,5.586,2.435,8.308,3.724,2.005.859,2.292,1.719,1.432,3.867-1.576,3.581-1.576,3.581,1.146,6.3,1.432,1.432,2.865,2.865,4.154,4.3a2.008,2.008,0,0,1,0,3.294L110.911,47.7a3,3,0,0,1-.859.573h-5.3c3.867-3.724,7.448-7.305,10.886-10.743-1.576-1.719-3.008-3.151-4.44-4.584-.143.143-.286.573-.573,1-2.005,4.44-4.011,8.737-6.016,13.178a1.669,1.669,0,0,1-1.719,1.146C100.6,48.127,98.306,48.127,95.728,48.127ZM42.158,10.313h43.83V4.154c-14.61.143-29.22.143-43.83.143Zm58.154,35.523c.143,0,.143,0,.286.143,3.294-7.162,6.589-14.324,9.883-21.629-2.435-1.146-4.727-2.149-7.162-3.294C102.174,29.507,101.171,37.671,100.312,45.836Zm-72.764,0c.143,0,.286,0,.286-.143-1-8.164-2.005-16.329-3.008-24.78-2.435,1.146-4.727,2.149-7.162,3.294C21.1,31.655,24.253,38.817,27.548,45.836Z" transform="translate(2.962)" fill="#ffbf4d"/>
      <path id="Path_4" data-name="Path 4" d="M79.451,68A13.608,13.608,0,1,1,65.7,81.607,13.914,13.914,0,0,1,79.451,68ZM88.9,81.607a9.382,9.382,0,1,0-9.454,9.31A9.32,9.32,0,0,0,88.9,81.607Z" transform="translate(28.406 29.401)" fill="#ffbf4d"/>
      <path id="Path_5" data-name="Path 5" d="M25.1,83.908H10.778c-.573,0-1.432,0-1.719-.43A4.032,4.032,0,0,1,8.2,81.33c.143-.573.859-1.146,1.432-1.576.286-.286,1-.143,1.432-.143H40.428a2.109,2.109,0,0,1,2.149,2.149,2,2,0,0,1-2.149,2.005H33.123C30.4,83.908,27.68,83.908,25.1,83.908Z" transform="translate(3.545 34.405)" fill="#ffbf4d"/>
      <path id="Path_6" data-name="Path 6" d="M20.175,76.554H10.721C9,76.554,8,75.838,8,74.405c0-1.289.859-2.005,2.578-2.005H29.485c1.719,0,2.578.859,2.578,2.149s-1,2.005-2.578,2.005Z" transform="translate(3.459 31.303)" fill="#ffbf4d"/>
      <path id="Path_7" data-name="Path 7" d="M41.446,79.7h4.011A2,2,0,0,1,47.6,81.705a2.2,2.2,0,0,1-2.149,2.149H37.149A2.109,2.109,0,0,1,35,81.705,1.955,1.955,0,0,1,37.005,79.7Z" transform="translate(15.133 34.459)" fill="#ffbf4d"/>
    </g>
  </g>
</svg>
