<svg xmlns="http://www.w3.org/2000/svg" xmlns:xlink="http://www.w3.org/1999/xlink" width="155" height="155" viewBox="0 0 155 155"><defs><clipPath id="b"><rect width="155" height="155"/></clipPath></defs><g id="a" clip-path="url(#b)"><rect width="155" height="155" fill="#fff"/><g transform="translate(0.791 -1.821)"><path d="M53.556,133.02c-5.155,0-7.75-1.672-8.957-5.77-.535-1.819-3.029-2.457-4.084-2.47-3.521-.044-7.045-.052-10.568-.052h-9.3c-5.454-.012-7.3-1.829-7.3-7.2l0-6.243q-.009-9.9.009-19.792a15.421,15.421,0,0,1,15.036-15.87c.333-.02.668-.023,1-.023l1.08,0c.424,0,.848-.006,1.271-.032q.877-.052,1.728-.053c7.208,0,12.275,2.923,15.489,8.938l1.153,2.157,1.882-1.562c8.064-6.691,16.62-10.083,25.429-10.083,8.772,0,17.254,3.364,25.211,10l1.824,1.522,1.184-2.06c3.559-6.186,8.631-9.067,15.963-9.067A43.28,43.28,0,0,1,130.81,76.5c5.956,1.305,10.493,7.417,10.551,14.218.077,8.88.047,17.917.017,26.655l0,.908c-.014,4.141-2.223,6.36-6.387,6.417q-4.756.066-9.514.063-5.4,0-10.8-.069h-.143a4.527,4.527,0,0,0-4.834,3.558,6.406,6.406,0,0,1-5.913,4.638,24.056,24.056,0,0,1-2.512.087s-22.608-.017-26.694-.017q-10.434,0-20.867.057ZM77.163,79.373c-.749,0-1.5.006-2.241.012l-.71,0c-14.852.1-25.741,11.005-25.894,25.918-.028,2.732-.018,5.464-.01,8.2.013,3.474.025,7.067-.045,10.588a5.211,5.211,0,0,0,1.2,3.91,5.024,5.024,0,0,0,3.714,1.262h.178c3.1-.048,6.5-.07,10.7-.07q3.265,0,6.529.012t6.539.01l12.631,0q5.991,0,11.983.015h.024a4.814,4.814,0,0,0,3.6-1.14,4.088,4.088,0,0,0,1.067-3.042c-.027-2.547-.013-5.1,0-7.644.027-4.776.056-9.713-.2-14.584A24.549,24.549,0,0,0,86.662,80.123,47,47,0,0,0,77.163,79.373ZM32,79.325c-.9,0-1.8.014-2.7.037C21.8,79.554,17.128,84.3,17.1,91.751q-.033,10.538,0,21.076l0,3.666c0,.554.038,1.106.079,1.679.017.244.035.492.049.747l.1,1.885H44.512v-3.139c0-.648,0-1.2,0-1.754q.009-1.322.009-2.642c.014-6.588.026-12.81,1.769-19.054a11.208,11.208,0,0,0-1.661-9.848,12.8,12.8,0,0,0-10.063-5Q33.286,79.325,32,79.325Zm90.874,0c-.938,0-1.875.02-2.81.051a12.656,12.656,0,0,0-9.962,4.988,11.294,11.294,0,0,0-1.656,9.948c1.73,6.106,1.745,12.2,1.76,18.652l.009,2.261c0,.783,0,1.566,0,2.377v3.2h27.32v-2c0-2.851.018-5.69.034-8.517.041-6.806.084-13.844-.129-20.747-.158-5.164-4.531-9.472-10.173-10.023C125.939,79.388,124.5,79.326,122.877,79.326Z" transform="translate(0 -0.097)" fill="#ffbf4d" stroke="#ffbf4d" stroke-width="1"/><path d="M77.163,66.778A20.559,20.559,0,0,1,62.627,60.41a20.018,20.018,0,0,1-5.6-14.4A20.546,20.546,0,0,1,77.291,25.927c.189,0,.375,0,.564.008a20.426,20.426,0,0,1-.262,40.847Zm.273-37.072a16.654,16.654,0,0,0,0,33.309A16.75,16.75,0,0,0,94.112,46.488a16.622,16.622,0,0,0-16.66-16.782Z" transform="translate(-0.086)" fill="#ffbf4d" stroke="#ffbf4d" stroke-width="1"/><path d="M30.54,67.934a12.157,12.157,0,0,1-.075-24.314h.125a12.157,12.157,0,0,1,.081,24.313Zm.026-20.549a8.414,8.414,0,1,0,.161,0Z" transform="translate(-0.01 -0.035)" fill="#ffbf4d" stroke="#ffbf4d" stroke-width="1"/><path d="M121.423,67.933a12.157,12.157,0,0,1,.066-24.313h.114a12.157,12.157,0,0,1-.069,24.314Zm.088-20.548a8.384,8.384,0,1,0,.135,0Z" transform="translate(-0.19 -0.035)" fill="#ffbf4d" stroke="#ffbf4d" stroke-width="1"/></g></g></svg>