<svg xmlns="http://www.w3.org/2000/svg" xmlns:xlink="http://www.w3.org/1999/xlink" width="155" height="155" viewBox="0 0 155 155"><defs><clipPath id="b"><rect width="155" height="155"/></clipPath></defs><g id="a" clip-path="url(#b)"><rect width="155" height="155" fill="#fff"/><g transform="translate(5.235 0.017)"><g transform="translate(-8.588 -3.217)"><path d="M93.629,141.154h14.837v-3.431q0-35.937,0-71.873c0-3.839.34-4.174,4.159-4.177q8.363-.006,16.726,0c3.751,0,4.053.3,4.053,3.984q0,36.067,0,72.134v3.523c3,0,5.834-.01,8.663,0a18.212,18.212,0,0,1,4.156.169,2.591,2.591,0,0,1,1.655,1.849c-.021.648-1,1.463-1.742,1.826a5.726,5.726,0,0,1-2.321.1H18.63c-.261,0-.523,0-.785,0-1.559-.019-3.545.243-3.491-2.023s2.1-1.89,3.613-1.915c2.7-.044,5.4,0,8.1-.019.849-.005,1.7-.077,2.812-.131v-2.965q0-19.6,0-39.2c0-3.364.426-3.809,3.7-3.819q8.756-.022,17.511,0c3.25.008,3.718.491,3.721,3.842q.014,19.47,0,38.942v3.183H68.658v-3.219q0-24.568,0-49.134c0-3.706.368-4.082,3.985-4.087,5.837-.008,11.675-.019,17.511.005,2.942.012,3.467.549,3.469,3.549q.017,24.828.005,49.657Zm18.961-.025h16.635V65.86H112.59Zm-23.159.056v-52.3H72.857v52.3ZM33.014,99.348v41.746H49.683V99.348Z" transform="translate(0 2.719)" fill="#ffbf4d"/><path d="M122.615,28.592c-.973-.044-1.631-.038-2.282-.109a6.088,6.088,0,0,1-5.619-5.857,6.011,6.011,0,0,1,4.93-6.213c5.849-.886,11.723-1.655,17.613-2.185,3.706-.334,6.422,2.433,6.485,6.286.088,5.4.067,10.8.011,16.2-.036,3.43-1.988,5.792-5.053,6.356s-5.662-.988-6.944-4.176c-.122-.3-.222-.611-.646-1.782a18.921,18.921,0,0,1-1.917,2.679q-9.325,8.748-18.729,17.415c-1.056.976-2.338,1.957-3.6.486s-.129-2.539,1.033-3.455a164.043,164.043,0,0,0,23.4-22.708c.6-.713,2.074-1.408,2.758-1.138s1.118,1.718,1.29,2.714c.219,1.27-.2,2.683.162,3.884.26.87,1.336,1.5,2.049,2.232.73-.713,2.068-1.4,2.092-2.139.181-5.568.141-11.144.082-16.716-.017-1.622-1.128-2.327-2.657-2.153-5.36.613-10.73,1.183-16.054,2.043-.88.143-1.539,1.653-2.3,2.53,1.014.588,1.981,1.537,3.052,1.674,1.422.182,2.931-.442,4.392-.393a13.446,13.446,0,0,1,3.222.918,9.482,9.482,0,0,1-1.036,2.96,141.194,141.194,0,0,1-25.767,24.7C80.522,69.024,55.766,78.748,28.6,82.484c-1.9.261-3.81.4-5.72.552-1.46.113-2.638.578-2.58,2.274.064,1.89,1.434,2.309,2.949,2.049,9.328-1.6,18.777-2.733,27.936-5.024A151.4,151.4,0,0,0,97.679,61.59a4.48,4.48,0,0,1,1.8-.989,2.841,2.841,0,0,1,2.211.653,2.856,2.856,0,0,1-.173,2.324c-.26.553-1.039.882-1.622,1.259a166,166,0,0,1-75.845,26.5c-4.224.4-7.238-1.657-7.768-5.21-.546-3.667,2.128-6.767,6.29-7.08A145.571,145.571,0,0,0,66.28,68.513a145.679,145.679,0,0,0,55-38.31C121.673,29.764,122.032,29.3,122.615,28.592Z" transform="translate(0.107)" fill="#ffbf4d"/></g></g></g></svg>