<!-- Generated by IcoMoon.io -->
<svg version="1.1" xmlns="http://www.w3.org/2000/svg" width="448" height="448" viewBox="0 0 448 448">
<title></title>
<g id="icomoon-ignore">
</g>
<path d="M288 224c0-17.75 14.25-32 32-32s32 14.25 32 32-14.25 32-32 32-32-14.25-32-32zM192 224c0-17.75 14.25-32 32-32s32 14.25 32 32-14.25 32-32 32-32-14.25-32-32zM96 224c0-17.75 14.25-32 32-32s32 14.25 32 32-14.25 32-32 32-32-14.25-32-32zM0 224c0 88.5 100.25 160 224 160 18.25 0 36-1.5 52.75-4.5 28.5 28.5 65.75 48 108.75 57.25 6.75 1.25 14 2.5 21.5 3.25 4 0.5 7.75-2.25 8.75-6v0c1-4-2-6.5-5-9.25-15.75-14.75-34.5-26.5-41-79.25 47.75-29.25 78.25-72.75 78.25-121.5 0-88.5-100.25-160-224-160s-224 71.5-224 160z"></path>
</svg>
