<!-- Generated by IcoMoon.io -->
<svg version="1.1" xmlns="http://www.w3.org/2000/svg" width="384" height="448" viewBox="0 0 384 448">
<title></title>
<g id="icomoon-ignore">
</g>
<path d="M163.5 269.5c-0.5 1.75-12.75-4-16-5.25-3.25-1.5-18-9.75-21.75-12.25s-18-14.25-19.75-15v0c-9 13.75-20.5 30-33.5 45.25-4.5 5.25-18 22.25-26.25 27.5-1.25 0.75-8.5 1.5-9.5 1 4-3 15.5-17.25 20.5-23 6.25-7.25 36-48.75 41-58.25 5.25-9.5 21-41 21.75-44-2.5-0.25-22.25 6.5-27.5 8.25-5 1.5-18.75 4.75-19.75 5.5-1 1-0.25 4-0.75 5s-5 3.25-7.75 3.75c-2.5 0.75-8.25 1-11.75 0-3.25-0.75-6.25-4-7-5.25 0 0-1-1.5-1.25-5.75 3-1 8-1.25 13.5-2.75s19-5.5 26.25-8 21.25-7.75 25.5-8.75c4.5-0.75 15.75-8.25 21.75-10.25s10.25-4.5 10.5-3.25 0 6.75-0.25 8.25c-0.25 1.25-12.25 24.75-14 28.5-1 2-8 15.25-19.25 32.75 4 1.75 12.5 5.25 16 7 4.25 2 34 14.5 35.5 15s4.25 12 3.75 14zM112.25 148c0.75 4.25-0.5 6-1 7-2.5 4.75-8.75 8-12.5 9.5s-10 3-15 3c-2.25-0.25-6.75-1-12.25-6.5-3-3.25-5.25-12-4.25-11s8.25 2 11.5 1.25 11-3 14.5-4c3.75-1.25 11.25-3.25 13.75-3.5 2.5 0 4.5 1 5.25 4.25zM286.75 180.25l15.75 56.75-34.75-10.5zM9.75 380.25l173.5-58v-258l-173.5 58.25v257.75zM320 301l25.5 7.75-45.25-164.25-25-7.75-54 134 25.5 7.75 11.25-27.5 52.75 16.25zM194.25 60.5l143.25 46v-95zM272 391.25l39.5 3.25-13.5 40-10-16.5c-20.25 13-45.25 23-69 27-7.25 1.5-15.5 3-22.75 3h-21c-26.5 0-74.75-15.75-95.75-31-1.5-1.25-2-2.25-2-4 0-2.75 2-4.75 4.5-4.75 2.25 0 14 7.25 17.25 8.75 22.5 11.25 54 21.5 79.25 21.5 31.25 0 52.5-4 81-16.25 8.25-3.75 15.5-8.5 23.25-12.75zM384 121.5v269.75c-193.25-61.5-193.5-61.5-193.5-61.5-4 1.75-183.25 62.25-185.75 62.25-2 0-3.75-1.25-4.5-3.25 0-0.25-0.25-0.5-0.25-0.75v-269.5c0.25-0.75 0.5-2 1-2.5 1.5-1.75 3.5-2.25 5-2.75 0.75-0.25 16-5.25 37.25-12.5v-96l139.5 49.5c1.75-0.5 157.25-54.25 159.5-54.25 2.75 0 5 2 5 5.25v104.5z"></path>
</svg>
