<!-- Generated by IcoMoon.io -->
<svg version="1.1" xmlns="http://www.w3.org/2000/svg" width="192" height="448" viewBox="0 0 192 448">
<title></title>
<g id="icomoon-ignore">
</g>
<path d="M116 352c0-11-9-20-20-20s-20 9-20 20 9 20 20 20 20-9 20-20zM168 312v-176c0-4.25-3.75-8-8-8h-128c-4.25 0-8 3.75-8 8v176c0 4.25 3.75 8 8 8h128c4.25 0 8-3.75 8-8zM120 100c0-2.25-1.75-4-4-4h-40c-2.25 0-4 1.75-4 4s1.75 4 4 4h40c2.25 0 4-1.75 4-4zM192 96v256c0 17.5-14.5 32-32 32h-128c-17.5 0-32-14.5-32-32v-256c0-17.5 14.5-32 32-32h128c17.5 0 32 14.5 32 32z"></path>
</svg>
