<!-- Generated by IcoMoon.io -->
<svg version="1.1" xmlns="http://www.w3.org/2000/svg" width="384" height="448" viewBox="0 0 384 448">
<title></title>
<g id="icomoon-ignore">
</g>
<path d="M320 298.25c0-1.25 0-2.75-0.5-4-1.5-4.5-38-23-45-27-4.75-2.75-10.5-8.25-16.25-8.25-11 0-27.25 32.75-37 32.75-5 0-11.25-4.5-15.75-7-33-18.5-55.75-41.25-74.25-74.25-2.5-4.5-7-10.75-7-15.75 0-9.75 32.75-26 32.75-37 0-5.75-5.5-11.5-8.25-16.25-4-7-22.5-43.5-27-45-1.25-0.5-2.75-0.5-4-0.5-6.5 0-19.25 3-25.25 5.5-16.5 7.5-28.5 39-28.5 56.25 0 16.75 6.75 32 12.5 47.5 20 54.75 79.5 114.25 134.25 134.25 15.5 5.75 30.75 12.5 47.5 12.5 17.25 0 48.75-12 56.25-28.5 2.5-6 5.5-18.75 5.5-25.25zM384 104v240c0 39.75-32.25 72-72 72h-240c-39.75 0-72-32.25-72-72v-240c0-39.75 32.25-72 72-72h240c39.75 0 72 32.25 72 72z"></path>
</svg>
