<svg xmlns="http://www.w3.org/2000/svg" xmlns:xlink="http://www.w3.org/1999/xlink" width="155" height="155" viewBox="0 0 155 155">
    <defs>
        <filter id="prefix__a" width="165.2%" height="165.2%" x="-32.6%" y="-19.6%" filterUnits="objectBoundingBox">
            <feOffset dy="15" in="SourceAlpha" result="shadowOffsetOuter1"/>
            <feGaussianBlur in="shadowOffsetOuter1" result="shadowBlurOuter1" stdDeviation="10"/>
            <feColorMatrix in="shadowBlurOuter1" values="0 0 0 0 1 0 0 0 0 0.699027652 0 0 0 0 0.0927210366 0 0 0 0.15 0"/>
        </filter>
        <circle id="prefix__b" cx="57.5" cy="57.5" r="57.5"/>
        <path id="prefix__c" d="M0 0.508L83.493 0.508 83.493 84 0 84z"/>
    </defs>
    <g fill="none" fill-rule="evenodd" transform="translate(20 5)">
        <use fill="#000" filter="url(#prefix__a)" xlink:href="#prefix__b"/>
        <use fill="#FFF" xlink:href="#prefix__b"/>
        <g>
            <g transform="translate(16 20) translate(0 .493)">
                <mask id="prefix__d" fill="#fff">
                    <use xlink:href="#prefix__c"/>
                </mask>
                <path fill="#D3DCFB" d="M74.01 68.738c5.923-7.207 9.483-16.429 9.483-26.484 0-23.056-18.69-41.746-41.747-41.746C18.69.508 0 19.198 0 42.254 0 52.31 3.559 61.531 9.482 68.737v.008l.068.078.073.092h.007c1.913 2.302 4.072 4.388 6.43 6.233v.016c.07.053.142.101.212.155.047.036.092.076.139.113v-.01c2.272 1.738 4.727 3.247 7.332 4.495v.011c.077.037.155.07.23.104.046.021.088.046.133.066h.015c2.05.957 4.189 1.753 6.404 2.37v.004c.024.007.049.011.073.018.025.007.05.016.075.022v-.003C34.2 83.476 37.91 84 41.746 84c.117 0 .233-.003.35-.004v-.008c3.709-.03 7.304-.54 10.723-1.479v.003c.025-.006.049-.014.074-.022.025-.006.05-.01.074-.018v-.004c2.215-.617 4.354-1.413 6.404-2.37h.015c.045-.02.089-.046.134-.066.075-.036.153-.067.229-.104v-.01c2.605-1.249 5.06-2.758 7.332-4.495v.01c.047-.037.09-.076.138-.113.069-.053.143-.102.212-.155v-.017c2.359-1.844 4.518-3.93 6.43-6.232h.008c.026-.032.049-.064.075-.094.02-.026.045-.05.067-.077v-.007z" mask="url(#prefix__d)"/>
            </g>
            <path fill="#FFC839" d="M14.26 48.896c-.402-15.18 11.577-27.812 26.757-28.215 15.18-.402 27.812 11.576 28.215 26.756.403 15.18-11.576 27.813-26.756 28.215-15.18.403-27.812-11.576-28.215-26.756" transform="translate(16 20)"/>
            <path fill="#FFF" fill-opacity=".5" d="M49.242 37.16c.904 0 1.638-.733 1.638-1.638 0-.905-.734-1.638-1.638-1.638H32.858c-.904 0-1.638.733-1.638 1.638 0 .905.734 1.638 1.638 1.638h6.554c2.133 0 3.935 1.373 4.613 3.277H32.858c-.904 0-1.638.734-1.638 1.638 0 .905.734 1.639 1.638 1.639h11.167c-.678 1.904-2.48 3.277-4.613 3.277h-6.554c-.213 0-.426.042-.626.124-.4.167-.721.485-.888.888-.167.4-.167.852 0 1.252.082.203.203.384.357.534l13.104 13.104c.32.32.74.482 1.16.482.42 0 .839-.161 1.16-.48.639-.637.639-1.676 0-2.315L36.813 50.267h2.599c3.958 0 7.264-2.818 8.024-6.553h1.806c.904 0 1.638-.734 1.638-1.64 0-.903-.734-1.637-1.638-1.637h-1.806c-.245-1.22-.79-2.32-1.513-3.277h3.319z" transform="translate(16 20)"/>
            <path fill="#816AE2" d="M79.92 47.154C79.36 26.07 61.818 9.433 40.734 9.993c-.122.003-.244.007-.365.012l-8.851.234 2.667-2.813c.752-.793.718-2.057-.075-2.81-.361-.341-.928-.537-1.42-.525-.492.014-.978.238-1.39.6l-6.907 7.283c-.203.287-.196.569.019.703l7.283 6.907c.793.752 2.058.718 2.81-.075.752-.792.719-2.057-.074-2.81l-2.813-2.666 8.953-.215.265-.008C59.81 13.306 75.6 28.28 76.104 47.256c.504 19.03-14.415 34.763-33.446 35.268-18.975.503-34.765-14.471-35.268-33.445-.12-4.52.638-8.856 2.118-12.85.338-.911-.09-1.928-.984-2.31l-.177-.075c-.947-.404-2.05.058-2.407 1.024-1.654 4.447-2.501 9.278-2.368 14.312.226 8.516 3.252 16.32 8.166 22.556 1.352 1.396 2.79 2.707 4.323 3.905v.016c.069.054.14.102.21.155.048.036.092.076.14.113v-.01c2.272 1.738 4.727 3.247 7.332 4.495v.012c.076.036.155.068.23.103.046.022.088.046.133.067h.015c2.05.957 4.189 1.752 6.404 2.37v.004c.024.006.049.01.073.017l.075.023v-.004c3.527.967 7.238 1.49 11.073 1.49.117 0 .233-.002.35-.003v-.008c3.709-.031 7.304-.541 10.723-1.48v.005l.074-.023.074-.017v-.004c2.215-.618 4.354-1.413 6.404-2.37h.015c.045-.021.089-.046.134-.067.075-.036.153-.067.229-.103v-.012c2.605-1.248 5.06-2.757 7.332-4.494v.009c.047-.036.09-.075.138-.112.069-.053.143-.101.212-.155v-.017c1.602-1.252 3.103-2.626 4.507-4.093 5.214-6.725 8.226-15.224 7.983-24.394" transform="translate(16 20)"/>
            <path fill="#F19493" d="M9.85 27.163c-.254.384-.5.773-.74 1.168l.74-1.168z" transform="translate(16 20)"/>
        </g>
    </g>
</svg>
