<svg xmlns="http://www.w3.org/2000/svg" xmlns:xlink="http://www.w3.org/1999/xlink" width="259" height="297" viewBox="0 0 259 297">
    <defs>
        <path id="prefix__a" d="M0 0.458L245.053 0.458 245.053 12.956 0 12.956z"/>
        <path id="prefix__c" d="M71.63.8C59.216 1.39 47.887 7.716 38.286 15 28.684 22.282 20.83 31.44 14.023 41.162 7.456 50.541 1.675 60.881.746 72.216c-.61 7.446 1.304 15.4 5.668 21.616C8.693 97.078 124.526 4.075 124.526 4.075c-7.265-.733-21.142-3.54-41.811-3.54-3.5.001-7.196.08-11.085.265"/>
        <path id="prefix__e" d="M.547 4.869c0 2.262 1.834 4.095 4.095 4.095 2.262 0 4.095-1.833 4.095-4.095 0-2.262-1.833-4.095-4.095-4.095C2.381.774.547 2.607.547 4.87"/>
        <path id="prefix__h" d="M.74 3.08c0 1.583 1.283 2.867 2.865 2.867 1.584 0 2.867-1.284 2.867-2.867C6.472 1.498 5.19.214 3.605.214 2.023.214.74 1.498.74 3.08"/>
        <linearGradient id="prefix__f" x1=".003%" x2="100.005%" y1="50%" y2="50%">
            <stop offset="0%" stop-color="#FFB218"/>
            <stop offset="100%" stop-color="#FFCF44"/>
        </linearGradient>
        <linearGradient id="prefix__i" x1="-.001%" x2="99.999%" y1="49.995%" y2="49.995%">
            <stop offset="0%" stop-color="#FFB218"/>
            <stop offset="100%" stop-color="#FFCF44"/>
        </linearGradient>
    </defs>
    <g fill="none" fill-rule="evenodd">
        <g>
            <g transform="translate(0 4.226) translate(0 278.064)">
                <mask id="prefix__b" fill="#fff">
                    <use xlink:href="#prefix__a"/>
                </mask>
                <path fill="#F7E8C8" d="M0 6.707C0 3.257 54.857.458 122.527.458c67.669 0 122.526 2.799 122.526 6.25 0 3.45-54.857 6.25-122.526 6.25C54.857 12.957 0 10.157 0 6.707" mask="url(#prefix__b)"/>
            </g>
            <path fill="#619440" d="M147.431 212.44c41.855 4.042 81.797-92.305 97.102-131.013C254.6 55.97 256.433 28.185 258.156.912c-43.727 14.692-96.568 48.494-117.622 89.09-3.497 6.742-5.941 17.432-7.348 24.876-2.944 15.59-4.587 66.2-3.165 82.01.446 4.947-1.355 13.74 17.41 15.552" transform="translate(0 4.226)"/>
            <path fill="#306B34" d="M252.971 7.857c-.88-.763-2.22-.675-2.99.193-9.61 10.823-18.608 21.66-27.1 32.655-2.171-6.002-3.064-10.956-3.184-17.297-.023-.767-.662-1.383-1.442-1.368-.778.015-1.4.65-1.387 1.422.087 4.43.549 8.297 1.532 12.264.608 2.449 1.416 4.935 2.452 7.615-6.658 8.725-13.002 17.56-19.078 26.574-.348-3.449-.936-6.853-1.514-10.19-.648-3.736-1.146-6.36-1.644-8.975-.5-2.633-1-5.257-1.648-9.017-.131-.766-.864-1.27-1.633-1.14-.77.13-1.288.85-1.156 1.61.654 3.78 1.157 6.416 1.657 9.064.496 2.603.992 5.21 1.636 8.93.768 4.433 1.558 8.99 1.748 13.536-7.383 11.156-14.37 22.604-21.048 34.475l-6.561-21.484c-1.033-3.383-2.107-6.888-2.215-10.43-.034-.758-.677-1.376-1.456-1.352-.781.023-1.395.666-1.371 1.436.066 2.169.441 4.266.949 6.312.407 1.643.902 3.255 1.388 4.841l7.36 24.101c-8.033 14.505-15.63 29.649-22.938 45.687-.203.441-.236.917-.127 1.355.15.605.57 1.138 1.189 1.412 1.07.475 2.322.004 2.803-1.051 3.321-7.289 6.706-14.382 10.16-21.323h.007c7.572-.997 13.43-2.027 19.098-3.023 5.638-.991 11.466-2.017 18.977-3.004.774-.102 1.319-.804 1.214-1.569-.1-.75-.811-1.3-1.587-1.198-7.572.998-13.43 2.027-19.098 3.024-5.155.905-10.484 1.84-17.099 2.749 4.45-8.826 9.02-17.398 13.749-25.753 9.115-1.927 17.013-3.64 24.906-5.356 8.137-1.767 16.273-3.532 25.751-5.532.762-.162 1.25-.903 1.087-1.656-.267-.749-.914-1.235-1.679-1.075-9.483 2.003-17.624 3.77-25.767 5.538-7.174 1.558-14.348 3.114-22.44 4.831 5.494-9.56 11.202-18.848 17.17-27.94.033-.03.06-.068.09-.103.275.095.58.113.88.023 15.435-4.636 27.084-7.122 42.985-9.174.773-.101 1.318-.8 1.218-1.565-.118-.784-.815-1.303-1.587-1.203-15.342 1.98-26.774 4.363-41.359 8.655 5.496-8.239 11.209-16.321 17.182-24.303 11.094-4.773 17.275-5.635 28.831-5.645.782-.001 1.414-.627 1.414-1.397.002-.771-.633-1.394-1.413-1.396-10.893.01-17.253.94-25.537 4.078 8.99-11.771 18.555-23.347 28.82-34.907.778-.867.688-2.19-.195-2.954" transform="translate(0 4.226)"/>
            <path fill="#FFDE8E" d="M223.193 181.478c-5.432 37.108-36.67 81.763-72.767 96.436-11.528 4.686-25.437 7.404-36.514 1.32-10.507-5.772-15.426-18.282-14.498-29.616.929-11.334 6.71-21.674 13.276-31.053 6.808-9.72 14.662-18.878 24.264-26.163 9.6-7.284 20.93-13.61 33.344-14.199 26.862-1.273 44.401 2.417 52.895 3.275" transform="translate(0 4.226)"/>
        </g>
        <g transform="translate(98.668 181.628)">
            <mask id="prefix__d" fill="#fff">
                <use xlink:href="#prefix__c"/>
            </mask>
            <path fill="#FFBF4D" d="M71.63.8C59.216 1.39 47.887 7.716 38.286 15 28.684 22.282 20.83 31.44 14.023 41.162 7.456 50.541 1.675 60.881.746 72.216c-.61 7.446 1.304 15.4 5.668 21.616C8.693 97.078 124.526 4.075 124.526 4.075c-7.265-.733-21.142-3.54-41.811-3.54-3.5.001-7.196.08-11.085.265" mask="url(#prefix__d)"/>
        </g>
        <path fill="#306B34" d="M253.1 246.338c0 3.426-2.778 6.205-6.204 6.205-3.427 0-6.205-2.779-6.205-6.205 0-3.427 2.778-6.204 6.205-6.204 3.426 0 6.204 2.777 6.204 6.204"/>
        <g transform="translate(228.232 233.454)">
            <mask id="prefix__g" fill="#fff">
                <use xlink:href="#prefix__e"/>
            </mask>
            <path fill="url(#prefix__f)" d="M.547 4.869c0 2.262 1.834 4.095 4.095 4.095 2.262 0 4.095-1.833 4.095-4.095 0-2.262-1.833-4.095-4.095-4.095C2.381.774.547 2.607.547 4.87" mask="url(#prefix__g)"/>
        </g>
        <g transform="translate(239.195 227.474)">
            <mask id="prefix__j" fill="#fff">
                <use xlink:href="#prefix__h"/>
            </mask>
            <path fill="url(#prefix__i)" d="M.74 3.08c0 1.583 1.283 2.867 2.865 2.867 1.584 0 2.867-1.284 2.867-2.867C6.472 1.498 5.19.214 3.605.214 2.023.214.74 1.498.74 3.08" mask="url(#prefix__j)"/>
        </g>
        <g>
            <path fill="#FFF2DC" d="M1.57 136.862L94.251 136.862 94.251 1.749 1.57 1.749z" transform="translate(31.893 .24)"/>
            <path fill="#FFF0D2" d="M2.56 135.873h90.7V2.738H2.56v133.135zm91.69 1.979H1.57c-.547 0-.99-.443-.99-.99V1.747c0-.546.443-.99.99-.99h92.68c.548 0 .99.444.99.99v135.115c0 .547-.442.99-.99.99z" transform="translate(31.893 .24)"/>
            <path fill="#FFC581" d="M84.264 288.28c.919-.038 1.632-.814 1.594-1.732l-.36-8.651c-.038-.918-.814-1.633-1.733-1.594-.917.038-1.631.814-1.593 1.733l.36 8.65c.037.918.814 1.632 1.732 1.594" transform="translate(31.893 .24)"/>
            <path fill="#141623" d="M74.304 290.065c.017.458.385.816.824.801l10.657-.38c.562-.02.964-.572.832-1.145l-.225-2.016c-.065-.576-.542-1.006-1.096-.986 0 0-.243.897-1.24 1.07-.807.14-1.104-.552-1.214-1.053-.053-.242-.308-.381-.536-.284l-7.524 3.201c-.3.136-.49.449-.478.792" transform="translate(31.893 .24)"/>
            <path fill="#FFC581" d="M129.267 286.43c.919 0 1.664-.745 1.664-1.665v-8.657c0-.919-.745-1.664-1.664-1.664-.919 0-1.664.745-1.664 1.664v8.657c0 .92.745 1.666 1.664 1.666" transform="translate(31.893 .24)"/>
            <path fill="#7F786A" d="M78.41 118.557c-3.021 5.967-1.35 12.497-1.416 23.939-.147 25.42 25.891-1.6 25.891-1.6l9.171 67.853 8.034 72.247 14.962-.995s5.375-73.282 5.515-91.259c.373-47.64-12.628-77.766-14.46-80.255-3.418 2.611-38.003 10.604-47.698 10.07" transform="translate(31.893 .24)"/>
            <path fill="#A29C8F" d="M68.03 114.334c-1.262 10.5-1.797 27.208-2.568 42.095-1.312 25.388 11.276 125.444 11.276 125.444l12.055.749S99.99 186.06 104.77 151.965c1.762-12.576.24-37.171.24-37.171s-33.788.471-36.98-.46" transform="translate(31.893 .24)"/>
            <path fill="#141623" d="M119.318 288.619c.017.458.386.816.825.8l10.657-.4c.561-.022.963-.576.83-1.147l-.23-2.016c-.065-.577-.543-1.005-1.098-.985 0 0-.24.898-1.237 1.073-.807.141-1.107-.55-1.216-1.05-.054-.242-.31-.38-.537-.283l-7.517 3.215c-.301.137-.49.45-.477.793" transform="translate(31.893 .24)"/>
            <path fill="#7F786A" d="M153.412 82.096s13.76-10.877 10.482-14.882c-5.339-6.525-23.725-11.02-32.116-13.63-17.58-5.468-30.866-6.917-34.593-2.876 0 0 12.154 10.797 25.349 19.21 19.064 12.156 30.878 12.178 30.878 12.178" transform="translate(31.893 .24)"/>
            <path fill="#FFE2B7" d="M90.806 52.268c-1.684.171-3.19-1.057-3.36-2.742l-.842-8.311c-.17-1.684 1.058-3.188 2.742-3.36 1.685-.17 3.19 1.058 3.36 2.742l.842 8.311c.17 1.684-1.057 3.19-2.742 3.36" transform="translate(31.893 .24)"/>
            <path fill="#FFC581" d="M86.693 42.086c-.22-2.165.968-4.059 2.654-4.23 1.684-.17 3.228 1.447 3.447 3.612l.574 5.667c.12 1.183-2.208.68-4.128-.99-1.259-1.095-2.423-2.83-2.423-2.83l-.124-1.229zM131.359 108.081L131.631 111.031 136.467 108.802 134.967 106.032z" transform="translate(31.893 .24)"/>
            <path fill="#FFC581" d="M127 107.975s-.052-2.302.373-2.894c.326-.452 2.006-.974 2.006-.974s3.943 2.802 4.116 4.11c.082.624-.693 1.683-1.329 2.434-.421.498-1.162.569-1.67.158L127 107.975z" transform="translate(31.893 .24)"/>
            <path fill="#A29C8F" d="M139.731 109.166L136.362 111.412 133.442 106.022 136.137 103.663z" transform="translate(31.893 .24)"/>
            <path fill="#7F786A" d="M135.059 105.349c-5.152-8.217 4.545-21.394 11.117-28.508 9.967-10.786 14.43-14.481 18.385-8.911 2.2 3.097 2.25 8.822.262 13.635-3.219 7.793-10.29 21.894-18.567 27.403-6.082 4.047-9.923-1.586-11.197-3.62" transform="translate(31.893 .24)"/>
            <path fill="#A29C8F" d="M96.377 48.964l-.561-1.797s-4.717 1.348-10.222.899l-.674 2.807 11.457-1.91zM113.786 130.282L117.76 144.547 127.714 147.354 133.928 140.726 130.189 126.2z" transform="translate(31.893 .24)"/>
            <path fill="#7F786A" d="M78.208 130.278L77.763 145.079 86.432 150.718 94.761 145.122 95.082 131.255z" transform="translate(31.893 .24)"/>
            <path fill="#7F786A" d="M63.805 143.423s2.767-19.917.194-41.128c-.567-4.672-6.844-39.863 3.523-48.414 3.479-2.87 8.718-3.927 16.668-4.225 8.035-.302 20.717-1.946 22.28-.785 9.806 7.284 12.588 24.68 18.63 45.171 6.042 20.493 13.678 34.705 13.678 34.705.243.003-6.351 4.295-9.695 5.709-5.302 2.243-15.266 4.722-15.266 4.722-5.158-6.016-8.806-24.385-8.806-24.385s.082 19.14-2.344 26.945c0 0-7.614 1.872-18.263 2.442-7.762.416-20.6-.757-20.6-.757" transform="translate(31.893 .24)"/>
            <path fill="#FFC581" d="M127.58 104.843c-.411.522-.32 1.28.202 1.691l2.389 1.88.744-.946-3.335-2.625z" transform="translate(31.893 .24)"/>
            <path fill="#FFC581" d="M127.615 101.186c-.564.353-.693 1.162-.29 1.808l2.683 4.38.224-2.255-2.617-3.933z" transform="translate(31.893 .24)"/>
            <path fill="#FFC581" d="M131.628 110.159s-2.798-2.06-2.571-3.128c.227-1.065 2.386.107 2.386.107l.185 3.02zM49.148 154.28c.56.569 1.476.576 2.044.016l2.599-2.564-1.015-1.03-3.628 3.579z" transform="translate(31.893 .24)"/>
            <path fill="#7F786A" d="M39.15 165.652c-.63-.537-.992-1.366-.894-2.252.763-6.958 7.043-12.001 14-11.239l5.934.649c3.373.37 6.397 2.032 8.522 4.673 2.122 2.643 3.087 5.955 2.72 9.326-.156 1.421-1.434 2.446-2.854 2.291-1.42-.154-2.447-1.43-2.29-2.852.217-1.998-.355-3.96-1.612-5.526-1.258-1.573-3.051-2.547-5.047-2.768l-5.935-.65c-4.122-.45-7.843 2.537-8.296 6.66-.155 1.42-1.432 2.445-2.853 2.29-.535-.058-1.014-.276-1.396-.602" transform="translate(31.893 .24)"/>
            <path fill="#7F786A" d="M75.41 213.072l-52.987-5.793c-2.464-.27-4.242-2.486-3.973-4.949l2.765-25.283c.982-8.987 9.066-15.479 18.055-14.495l29.355 3.21c8.989.983 15.48 9.067 14.496 18.055l-2.763 25.282c-.27 2.463-2.485 4.243-4.949 3.973" transform="translate(31.893 .24)"/>
            <path fill="#A29C8F" d="M82.831 186.475l-32.32 7.757-29.536-14.236 1.858-17.75c.109-.992 1.02-1.706 2.036-1.595l58.195 6.364c1.017.11 1.753 1.004 1.645 1.998l-1.878 17.462z" transform="translate(31.893 .24)"/>
            <path fill="#FCC23F" d="M53.783 196.926L46.707 196.153 47.323 190.52 54.399 191.294z" transform="translate(31.893 .24)"/>
            <path fill="#FCC23F" d="M48.087 191.47l-.43 3.92 5.364.586.427-3.918-5.36-.588zm-1.94 5.339c-.04-.035-.078-.073-.112-.116-.143-.178-.21-.406-.184-.633l.616-5.633c.024-.228.138-.435.317-.58.177-.142.406-.209.633-.184l7.075.774c.469.052.818.473.764.95l-.615 5.632c-.024.229-.138.436-.318.58-.176.143-.405.209-.632.184l-7.077-.772c-.174-.019-.335-.09-.466-.202z" transform="translate(31.893 .24)"/>
            <path fill="#FCC23F" d="M51.312 198.536L48.773 198.258 49.135 194.944 51.675 195.221z" transform="translate(31.893 .24)"/>
            <path fill="#7F786A" d="M49.897 195.895l-.175 1.598.826.092.174-1.6-.825-.09zm-1.684 3.018c-.042-.035-.08-.073-.113-.116-.144-.178-.21-.406-.185-.633l.363-3.315c.024-.227.14-.435.317-.579.18-.142.407-.21.634-.183l2.537.278c.47.052.817.474.765.95l-.362 3.313c-.024.229-.139.436-.318.58-.176.143-.406.209-.632.184l-2.54-.278c-.175-.018-.336-.088-.466-.2z" transform="translate(31.893 .24)"/>
            <path fill="#FFC581" d="M52.11 156.787s2.094 1.804 2.968 1.86c.668.044 1.604-.843 1.781-1.49.466-1.69 1.06-5.421-.02-6.578-.517-.552-2.09-.642-3.272-.624-.782.011-1.414.644-1.419 1.427l-.039 5.405z" transform="translate(31.893 .24)"/>
            <path fill="#FFC581" d="M52.136 158.127c-.238-.932-.007-4.788-.007-4.788l1.586.137s-.136 3.897-.408 4.748c-.15.471-1.035.436-1.171-.097" transform="translate(31.893 .24)"/>
            <path fill="#FFC581" d="M53.372 158.957c-.242-.931-.014-4.787-.014-4.787l1.612.138s-.134 3.897-.408 4.748c-.153.471-1.05.436-1.19-.099" transform="translate(31.893 .24)"/>
            <path fill="#FFC581" d="M54.607 158.82c-.209-.93.03-4.785.03-4.785l1.442.124s-.156 3.895-.409 4.748c-.14.472-.944.444-1.063-.088" transform="translate(31.893 .24)"/>
            <path fill="#FFC581" d="M55.787 158.438c-.208-.93.03-4.784.03-4.784l1.442.123s-.156 3.895-.409 4.748c-.14.473-.944.445-1.063-.087M52.721 147.53L53.255 150.903 56.355 151.462 56.545 147.194z" transform="translate(31.893 .24)"/>
            <path fill="#7F786A" d="M52.46 145.475L51.708 148.776 57.742 149.266 58.214 144.219z" transform="translate(31.893 .24)"/>
            <path fill="#A29C8F" d="M67.2 112.097L52.86 108s4.037-22.368 4.96-30.401c1.078-9.38 5.713-29.432 18.974-26.736 0 0-1.294 23.286-3.773 40.966-2.06 14.688-5.822 20.268-5.822 20.268" transform="translate(31.893 .24)"/>
            <path fill="#A29C8F" d="M60.25 147.442c11.858-4.69 11.153-26.074 11.873-38.461.251-4.34.574-17.26.574-17.26s-11.378-1.35-16.396-.559c0 0-2.786 11.887-3.754 17.554-1.33 7.802-5.357 23.074-5.955 31.997-.14 2.081.623 4.836 2.638 5.372 2.419.643 8.727 2.264 11.02 1.357" transform="translate(31.893 .24)"/>
            <path fill="#FFE2B7" d="M94.444 34.812c1.068-3.218.118-6.486-2.674-7.942-4.542-2.371-8.666 5.599-9.725 9.28-1.176 4.086-.214 5.512-.214 5.512s2.562 1.654 5.135 1.499c2.187-.132 4.06-.104 5.376-3.146 1.176-2.716 1.654-3.85 2.102-5.203" transform="translate(31.893 .24)"/>
            <path fill="#57575E" d="M100.139 29.951c-.053.147 2.58 2.152 1.335 5.727-1.244 3.575-4.892 8.601-11.04 7.426-4.538-.866-3.694-5.307-2.794-11.332 0 0-6.08-1.864-6.4-6.236-.383-5.201 3.07-7.877 3.07-7.877s2.23 2.902 6.382 4.831c3.09 1.436 7.183 1.446 8.435 2.71.804.814 2.074 1.778 1.012 4.751" transform="translate(31.893 .24)"/>
            <path fill="#57575E" d="M100.033 30.196s2.423-.602 2.865-3.922c0 0-.822 1.852-2.706 1.928-1.882.078-.16 1.994-.16 1.994" transform="translate(31.893 .24)"/>
            <path fill="#57575E" d="M100.07 29.051c.241-.317 1.404-2.103.04-4.956 0 0-.185 2.36-1.488 3.47-1.304 1.107.712 2.454 1.448 1.486M99.596 29.995s3.004-2.396 4.354 1.091c.203.524.321 1.243-.368 2.215 0 0-.04-1.555-1.067-1.988-1.029-.433-2.358.296-2.358.296l-.561-1.614zM84.31 17.659c-.985 1.15-1.69 2.483-2.11 3.86-.41 1.374-.47 2.85-.183 4.172.341 1.312 1.12 2.48 2.172 3.401 1.005.906 2.38 1.71 3.538 2.037l.104.03c.324.091.517.422.445.747-.349 1.55-.652 3.141-.877 4.726-.1.793-.197 1.59-.226 2.388 0 .79.003 1.61.425 2.318-.614-.583-.784-1.483-.927-2.285-.137-.827-.156-1.658-.151-2.486.028-1.657.2-3.289.484-4.928l.55.777c-.961-.164-1.61-.511-2.337-.892-.697-.393-1.372-.836-1.968-1.386-.595-.55-1.13-1.176-1.573-1.873-.43-.709-.718-1.502-.887-2.315-.269-1.642-.01-3.272.632-4.72.657-1.432 1.653-2.687 2.89-3.571" transform="translate(31.893 .24)"/>
            <path fill="#FCC23F" d="M39.453 13.29L39.453 14.868 34.944 14.868 34.944 16.698 39.082 16.698 39.082 18.158 34.944 18.158 34.944 20.25 39.548 20.25 39.548 21.829 33.066 21.829 33.066 13.29zM45.42 18.529l-1.076-3.135h-.023l-1.113 3.135h2.213zm-.107-5.24l3.193 8.54h-1.949l-.646-1.902h-3.193l-.67 1.903h-1.89l3.23-8.54h1.925zM50.922 19.724c.104.2.242.36.413.484.171.124.373.216.604.277.231.058.47.09.718.09.167 0 .346-.015.538-.043.191-.029.37-.081.538-.162.167-.08.307-.19.418-.329.112-.139.168-.317.168-.532 0-.23-.074-.419-.221-.561-.148-.145-.341-.264-.58-.36-.24-.095-.51-.178-.814-.251-.303-.072-.61-.152-.92-.24-.32-.08-.63-.177-.933-.292-.303-.116-.574-.265-.814-.449-.239-.183-.432-.413-.58-.687-.147-.276-.221-.609-.221-.998 0-.44.094-.82.281-1.143.187-.323.433-.592.736-.807.303-.215.645-.374 1.028-.48.383-.102.766-.155 1.148-.155.447 0 .875.051 1.286.15.41.1.775.261 1.094.485.32.223.572.508.76.854.187.348.28.768.28 1.263h-1.817c-.016-.255-.07-.467-.162-.635-.091-.167-.213-.299-.364-.394-.152-.095-.325-.164-.52-.204-.196-.04-.41-.058-.64-.058-.152 0-.303.014-.455.047-.151.032-.289.087-.413.168-.123.08-.225.178-.305.298-.08.12-.12.272-.12.454 0 .168.033.303.097.408.063.103.189.2.376.287.188.088.447.174.778.262.33.088.763.2 1.297.335.16.032.381.09.664.173.283.084.564.219.843.401.28.183.52.429.724.737.203.305.305.698.305 1.177 0 .39-.076.753-.227 1.088-.152.335-.377.624-.676.867-.3.243-.67.433-1.112.569-.443.135-.955.203-1.537.203-.47 0-.927-.058-1.37-.174-.442-.115-.833-.297-1.172-.544-.339-.246-.608-.561-.807-.944-.2-.384-.295-.838-.287-1.363h1.818c0 .287.052.53.155.728M56.567 13.29L58.672 13.29 60.669 16.663 62.654 13.29 64.747 13.29 61.578 18.552 61.578 21.829 59.7 21.829 59.7 18.504zM32.186 28.37c-.133-.214-.298-.4-.498-.56-.198-.163-.422-.287-.673-.377-.25-.09-.514-.135-.788-.135-.501 0-.928.096-1.277.291-.35.194-.634.454-.852.78-.217.327-.376.698-.475 1.114-.1.417-.15.847-.15 1.292 0 .426.05.84.15 1.242.099.401.258.764.475 1.086.218.32.502.579.852.772.35.196.776.291 1.277.291.68 0 1.213-.208 1.597-.624.383-.416.617-.964.702-1.646h2.157c-.057.634-.203 1.207-.44 1.717-.236.51-.548.947-.936 1.306-.389.36-.842.634-1.363.823-.52.19-1.092.284-1.717.284-.776 0-1.474-.135-2.093-.405-.62-.269-1.143-.64-1.568-1.114-.426-.472-.753-1.028-.98-1.667-.226-.638-.34-1.328-.34-2.065 0-.757.114-1.46.34-2.107.227-.649.554-1.214.98-1.697.425-.482.948-.86 1.568-1.135.62-.274 1.317-.411 2.093-.411.558 0 1.086.08 1.583.24.496.161.94.397 1.333.704.393.307.717.688.973 1.142.255.454.416.974.483 1.56H32.44c-.038-.255-.123-.489-.255-.701M38.714 25.666L38.714 33.925 43.653 33.925 43.653 35.799 36.485 35.799 36.485 25.666zM50.366 31.881l-1.278-3.717h-.028l-1.32 3.717h2.626zm-.128-6.215l3.79 10.133h-2.314l-.767-2.256h-3.789l-.795 2.256h-2.242l3.832-10.133h2.285zM55.19 35.798L57.419 35.798 57.419 25.666 55.19 25.666zM62.797 25.666L65.167 32.634 65.196 32.634 67.439 25.666 70.575 25.666 70.575 35.799 68.488 35.799 68.488 28.618 68.46 28.618 65.977 35.799 64.26 35.799 61.776 28.689 61.747 28.689 61.747 35.799 59.661 35.799 59.661 25.666z" transform="translate(31.893 .24)"/>
        </g>
    </g>
</svg>
