<svg id="Layer_1" data-name="Layer 1" xmlns="http://www.w3.org/2000/svg" viewBox="0 0 357.11 389.31"><defs><style>.cls-1{fill:#ebebeb;}.cls-2{fill:#fff;}.cls-3{fill:#e0e0e0;}.cls-4{fill:#263238;}.cls-5{fill:#fbae17;}.cls-6{fill:#fbbf9e;}.cls-7{fill:#fdbc4e;}.cls-8{opacity:0.2;}.cls-9{fill:#455b64;}.cls-10{fill:#f7996e;}.cls-11{fill:#fbaa19;}.cls-12{fill:#a69d8f;}.cls-13,.cls-15{opacity:0.3;}.cls-14{fill:#83796a;}.cls-16{fill:#f3725f;}</style></defs><path class="cls-1" d="M110,116.9,73.6,102.76l-36,13.95c-4.6,2.35-8.63,3.76-8.63,8.39v23.09a92.71,92.71,0,0,0,11.87,46c6.72,11.8,17.13,24,33.16,31.69,14.73-5.18,25.73-19,32.45-30.79a92.71,92.71,0,0,0,11.87-46V128.33C118.28,121.72,115,118.49,110,116.9Z" transform="translate(-7 -6.7)"/><polygon class="cls-2" points="83.61 149.15 70.4 149.15 70.4 134.85 62.81 134.85 62.81 149.15 49.59 149.15 49.59 157.37 62.81 157.37 62.81 171.67 70.4 171.67 70.4 157.37 83.61 157.37 83.61 149.15"/><path class="cls-3" d="M47.38,187.58a71.74,71.74,0,0,1-9.81-35.8L37.8,127l35.8-14.41v-9.86l-36,13.95c-3.78,1.78-8.63,3.76-8.63,8.39v23.09a92.71,92.71,0,0,0,11.87,46c6.72,11.8,17.13,24,33.16,31.69l.39-9.87C61.67,209.86,52.7,196.92,47.38,187.58Z" transform="translate(-7 -6.7)"/><path class="cls-3" d="M74.35,216l.62-.34c.41-.23,1-.52,1.81-1a47,47,0,0,0,6.5-4.62c5.31-4.48,12.18-12.35,17.94-23.88a82,82,0,0,0,6.74-20,86.07,86.07,0,0,0,1.5-11.79c.23-4.09.12-8.32.14-12.65V128.38a2.82,2.82,0,0,0-.23-1.51,3.1,3.1,0,0,0-1.31-.69c-1-.3-2-.75-3-1.12l-6.1-2.37-25.41-9.86h.14l-.36.13L40.87,125.51h0l-3.38,1.71.1-.19v21.76A85.07,85.07,0,0,0,40,168.42a80.69,80.69,0,0,0,5.84,16.46c1.18,2.43,2.45,4.69,3.73,6.81s2.63,4.05,4,5.85A66.46,66.46,0,0,0,68.17,212c2,1.39,3.51,2.36,4.56,3l1.21.72.41.25-.42-.22-1.23-.68c-1.07-.62-2.64-1.57-4.6-2.94a65.79,65.79,0,0,1-14.8-14.42c-1.34-1.8-2.69-3.75-4-5.86s-2.56-4.39-3.76-6.82a81.07,81.07,0,0,1-5.9-16.52,85.27,85.27,0,0,1-2.4-19.72c0-7,0-14.23,0-21.76v-.13l.1-.06,3.39-1.72h0l32.44-12.57.35-.14.07,0,.07,0,25.39,9.88,6.1,2.37c1,.37,2,.82,3,1.12a3.34,3.34,0,0,1,1.5.82,1.66,1.66,0,0,1,.29.91c0,.3,0,.59,0,.87v13.31c0,4.33.07,8.56-.17,12.67a83.55,83.55,0,0,1-1.53,11.84,81.57,81.57,0,0,1-6.81,20.11c-5.81,11.55-12.74,19.4-18.1,23.86a42.54,42.54,0,0,1-6.56,4.56c-.79.44-1.43.73-1.84.94S74.35,216,74.35,216Z" transform="translate(-7 -6.7)"/><path class="cls-4" d="M364.11,316c0,.12-79.57.22-177.69.22S8.7,316.13,8.7,316s79.55-.22,177.72-.22S364.11,315.89,364.11,316Z" transform="translate(-7 -6.7)"/><path class="cls-1" d="M332,185.25c-7-5.81-11.91,3.56-11.91,3.56s-4.35-9.69-11.66-4.38c-6.55,4.75-1.82,14,.4,17.45,1.71,2.65,6.89,8,10.58,9.87,3.79-1.58,8.87-6,11.14-9.12C332.51,200,338.29,190.45,332,185.25Z" transform="translate(-7 -6.7)"/><path class="cls-1" d="M305.13,170c-3.57-2.77-5.88,2-5.88,2s-2.32-4.75-5.89-2c-3.19,2.48-.69,7,.47,8.69a18,18,0,0,0,5.42,4.74,16.44,16.44,0,0,0,5.42-4.74C305.58,177.33,308.32,172.47,305.13,170Z" transform="translate(-7 -6.7)"/><path class="cls-1" d="M320.67,219.62c-2-1.68-3.44,1-3.44,1s-1.26-2.81-3.37-1.27c-1.9,1.38-.53,4.05.11,5.05a10.68,10.68,0,0,0,3.06,2.85,9.46,9.46,0,0,0,3.23-2.63C320.81,223.88,322.48,221.12,320.67,219.62Z" transform="translate(-7 -6.7)"/><path class="cls-1" d="M158.27,111.56c-3.27-2.54-5.39,1.82-5.39,1.82s-2.12-4.36-5.38-1.82c-2.93,2.28-.64,6.43.42,8a16.59,16.59,0,0,0,5,4.34,15,15,0,0,0,5-4.34C158.68,118.28,161.19,113.84,158.27,111.56Z" transform="translate(-7 -6.7)"/><path class="cls-5" d="M95.15,251.25c-4.36-3.4-7.2,2.42-7.2,2.42s-2.84-5.82-7.21-2.42c-3.91,3-.85,8.59.57,10.64A21.86,21.86,0,0,0,88,267.7a20,20,0,0,0,6.64-5.81C95.71,260.24,99.06,254.29,95.15,251.25Z" transform="translate(-7 -6.7)"/><path class="cls-5" d="M63.68,234.61c-2.88-2.25-4.75,1.6-4.75,1.6s-1.88-3.85-4.76-1.6c-2.58,2-.57,5.67.37,7a14.43,14.43,0,0,0,4.39,3.83,13.28,13.28,0,0,0,4.38-3.83C64.05,240.54,66.27,236.62,63.68,234.61Z" transform="translate(-7 -6.7)"/><path class="cls-5" d="M101,214c-7.32-5.7-12.07,4.06-12.07,4.06s-4.76-9.76-12.08-4.06c-6.55,5.09-1.42,14.39,1,17.83,1.83,2.66,7.3,8,11.13,9.72,3.82-1.75,8.89-6.44,11.12-9.72C101.89,229,107.51,219.06,101,214Z" transform="translate(-7 -6.7)"/><path class="cls-6" d="M273.51,189.78c1.34-.5,1.75-1.43.87-2.56-.56-.73-3.6.07-5.19.53s-2.46.87-2.74.14,2.23-.91,4.24-1.49,2.72-1.49,1.76-2.69-5.36.09-7.26.56-4.06.7-4.9.18-.52-2.46-.24-4.4-.77-3.87-2.18-3.46-.81,4-1,5.55-2.28,5.42-2.38,7l2.86,6.8c1.27,2.63,5,2.47,6.73,2.5s2.17-.76,4.49,0a10.67,10.67,0,0,0,4,.75,1.36,1.36,0,0,0,1.06-.78.91.91,0,0,0,0-.89c-.44-.66-4.15-1.39-4.88-1.59a.65.65,0,0,1-.55-.81s2-.52,2.36-.57c2.32-.32,4.1-.71,5.36-1.62s-.06-2.27-1.23-2.09-6.4,1.24-6.75.85S272.17,190.28,273.51,189.78Z" transform="translate(-7 -6.7)"/><path class="cls-6" d="M210.61,182.89s10,18.23,14.81,19.67,34.27-5.66,34.27-5.66l-1.59-7.82-28.11.71-7.12-16.58Z" transform="translate(-7 -6.7)"/><path class="cls-7" d="M43.54,88.94s30.11-6.15,40.32,4.33c0,0,39.29-4.86,63.64,3.62,0,0,42.83-7.36,65,2.08,0,0,36.27-8.8,63.24-2.84,0,0,11-11.21,43.89-2.94l-24-20.11L191.42,55.91,76.74,67Z" transform="translate(-7 -6.7)"/><g class="cls-8"><path d="M43.54,88.1S73.65,82,83.86,92.43c0,0,39.29-4.85,63.64,3.62,0,0,42.83-7.35,65,2.08,0,0,36.27-8.8,63.24-2.84,0,0,11-11.21,43.89-2.94l-24-20.11L191.42,55.07,76.74,66.15Z" transform="translate(-7 -6.7)"/></g><path class="cls-4" d="M91.87,82.18c.13.11-2.15,3-4.77,6.68s-4.62,6.77-4.76,6.68a9.78,9.78,0,0,1,1.11-2.14c.75-1.28,1.86-3,3.18-4.87s2.6-3.46,3.57-4.6A9.92,9.92,0,0,1,91.87,82.18Z" transform="translate(-7 -6.7)"/><path class="cls-4" d="M152.67,77.85c.16,0-1,4.89-2.56,10.83A106.31,106.31,0,0,1,147,99.38a110.6,110.6,0,0,1,2.57-10.84A108.28,108.28,0,0,1,152.67,77.85Z" transform="translate(-7 -6.7)"/><path class="cls-4" d="M212.27,100.09a27.74,27.74,0,0,1-.53-3.27c-.31-2-.84-4.79-1.46-7.85s-1.09-5.86-1.3-7.91a14.52,14.52,0,0,1-.13-3.32,25.38,25.38,0,0,1,.54,3.27c.3,2,.83,4.78,1.45,7.84s1.1,5.86,1.3,7.91A14.61,14.61,0,0,1,212.27,100.09Z" transform="translate(-7 -6.7)"/><path class="cls-4" d="M269.69,85a43.81,43.81,0,0,1,3.65,5.75c1.91,3.26,3,6.14,2.86,6.2s-1.46-2.67-3.36-5.91S269.54,85.11,269.69,85Z" transform="translate(-7 -6.7)"/><g class="cls-8"><path d="M101.56,80.5s47.07,4,78.94,3.56,68.86-2.23,68.86-2.23-35.9-16.8-62.92-16.7S101.56,80.5,101.56,80.5Z" transform="translate(-7 -6.7)"/></g><path class="cls-6" d="M173.52,218.16l-4.22-4.87a18,18,0,0,1-7.14-5.23c-2.58-3.49-3.81-6-1.48-7.27,0,0-2.26-4,.88-5.41,0,0-1.79-5.63,1.7-5.09,0,0-2-6.24,1.55-5.22s12.29,8.36,12.29,8.36l1.33,11.1,3.14,3.21S180.14,216.07,173.52,218.16Z" transform="translate(-7 -6.7)"/><path class="cls-4" d="M180.57,20.31l1-12.18a1.54,1.54,0,0,1,.47-1h0a1.53,1.53,0,0,1,2.1-.06l.06.06a1.54,1.54,0,0,1,.51,1.09l.4,12.19Z" transform="translate(-7 -6.7)"/><path class="cls-3" d="M174.37,68.87q-.63,20.8-1.24,41.61-.65,21.27-1.27,42.54-.35,11.43-.68,22.84a1.2,1.2,0,1,0,2.4.09q.63-20.8,1.25-41.6l1.26-42.55L176.78,69a1.21,1.21,0,1,0-2.41-.09Z" transform="translate(-7 -6.7)"/><path class="cls-4" d="M174.37,68.87a.47.47,0,0,1,0-.14,1.23,1.23,0,0,1,.1-.42,1.2,1.2,0,0,1,1.36-.68,1.23,1.23,0,0,1,.92.75,5.06,5.06,0,0,1,.08,1.52c0,1.08-.06,2.33-.09,3.73-.15,5.65-.36,13.77-.63,23.81-.58,20.11-1.38,47.86-2.26,78.51a1.49,1.49,0,0,1-.87,1.37,1.46,1.46,0,0,1-1.51-.19,1.69,1.69,0,0,1-.55-1.51l0-1.42c.06-1.89.12-3.77.17-5.64q.18-5.59.34-11c.22-7.23.43-14.2.63-20.84.42-13.28.8-25.25,1.11-35.3s.61-18.15.8-23.79c.1-2.79.18-5,.24-6.47,0-.72.06-1.28.07-1.68s.05-.58.05-.58,0,.2,0,.58,0,1,0,1.68c0,1.51-.08,3.68-.14,6.47-.15,5.65-.36,13.77-.63,23.8s-.62,22-1,35.3c-.2,6.65-.4,13.62-.61,20.85-.11,3.62-.21,7.29-.32,11-.06,1.86-.11,3.75-.17,5.64l0,1.42a1.09,1.09,0,0,0,.33,1,1,1,0,0,0,1,.13.92.92,0,0,0,.54-.87c1-30.64,1.8-58.39,2.42-78.51.33-10,.61-18.15.79-23.79.05-1.4.1-2.65.14-3.74a5.26,5.26,0,0,0,0-1.45,1.17,1.17,0,0,0-2.11-.11A2.5,2.5,0,0,0,174.37,68.87Z" transform="translate(-7 -6.7)"/><path class="cls-4" d="M153.28,186.59c-4.45,5.12-3.83,13.8,1.56,17.87a11.33,11.33,0,0,0,16.46-2.57,13,13,0,0,0,1.92-4.38,11.08,11.08,0,0,0,.3-2.23c0-.18,0-.36,0-.55,0,.18,0,.23,0,.16s0-.08,0-.12c0-1.05.06-2.09.09-3.13q.18-6.16.37-12.33l.27-9.12a2.11,2.11,0,0,0-1.58-2.35,1.93,1.93,0,0,0-2.17,1.71L170,187.21c-.07,2.33-.15,4.66-.21,7a9.14,9.14,0,0,1-2.07,6,7.36,7.36,0,0,1-6.68,2.6,8,8,0,0,1-6.48-5.15,8.64,8.64,0,0,1,1.69-8.45c1.68-1.94-1.28-4.52-2.94-2.6Z" transform="translate(-7 -6.7)"/><polygon class="cls-4" points="168.83 159.62 166.87 159.55 167 154.97 168.97 155.04 168.83 159.62"/><path class="cls-7" d="M45.57,89.22s40.86-48.09,73.2-59.47c0,0,12.64-4.62,21.7-4.55,0,0,8.06-10,25.26-8s26.27,1.62,36.81.05,21.53,5.44,25.82,10.82c0,0,21.27,3,34.25,12.53s23.67,16.53,33.15,26,23.79,26,23.79,26-34.33-14-51.29-7.43c-5.16-3-53.34-8.66-87.1-8.22-32.82.42-79.63,1-84.47,5.86C96.8,82.17,61.29,81.45,45.57,89.22Z" transform="translate(-7 -6.7)"/><path class="cls-4" d="M140.47,25.2a4.42,4.42,0,0,1-.51.57l-1.54,1.55-1.12,1.11L136,29.81c-.9,1-2,2.09-3,3.39C128.54,38.3,122.78,45.68,116.7,54s-11.35,16.09-15.15,21.69l-4.48,6.66-1.22,1.8a5,5,0,0,1-.46.61,3.76,3.76,0,0,1,.36-.67l1.14-1.86c1-1.61,2.47-3.92,4.33-6.76,3.71-5.66,8.93-13.44,15-21.8S128.15,38,132.69,32.94c1.1-1.29,2.2-2.37,3.12-3.35l1.3-1.35,1.16-1.08,1.61-1.47A4.77,4.77,0,0,1,140.47,25.2Z" transform="translate(-7 -6.7)"/><path class="cls-4" d="M268.51,85.48c-.13.09-9.27-12.82-20.42-28.83S228,27.59,228.13,27.5s9.28,12.81,20.43,28.82S268.64,85.39,268.51,85.48Z" transform="translate(-7 -6.7)"/><path class="cls-6" d="M181,207.8,179,204.29l.52-10.63s-3.37-6.81-3.72-6.77-8.53,4.15-8.53,4.15-.95,2.58,3.83,2.56,3.86-.35,3.86-.35-4.15,7.26-2.13,10.38S181,207.8,181,207.8Z" transform="translate(-7 -6.7)"/><path class="cls-6" d="M170,196.64s5.47-1.43-2.19-6.12l-6.63,10.87s6.63,3.1,8.31,2.05.75-2.22.75-2.22a2.36,2.36,0,0,0,1.32-2.57A2.68,2.68,0,0,0,170,196.64Z" transform="translate(-7 -6.7)"/><path class="cls-6" d="M221.4,198.3S199.83,231,199.12,230.16s-20-26.37-20-26.37l-9.8,9.5s17.29,42.47,31.18,40.38S226,228,226,228Z" transform="translate(-7 -6.7)"/><path class="cls-2" d="M127.59,47.27a2.35,2.35,0,0,1,.24-.39l.76-1.09c.66-.94,1.63-2.28,2.86-3.92A77.88,77.88,0,0,1,142.07,30a35,35,0,0,1,13.48-7.59,22.49,22.49,0,0,1,4.57-.8c.55-.05,1,0,1.26,0a2.12,2.12,0,0,1,.44,0s-.6.07-1.68.19a25.66,25.66,0,0,0-4.52.93,36.39,36.39,0,0,0-13.3,7.63,85.1,85.1,0,0,0-10.65,11.69l-3,3.84-.81,1A1.51,1.51,0,0,1,127.59,47.27Z" transform="translate(-7 -6.7)"/><path class="cls-2" d="M128.4,31a6.88,6.88,0,0,1-1.08.39l-2.95,1c-2.5.82-5.92,2-9.64,3.54s-7,3.07-9.4,4.23l-2.8,1.39a5.39,5.39,0,0,1-1,.47,5.8,5.8,0,0,1,1-.62c.64-.38,1.58-.9,2.75-1.52,2.35-1.24,5.65-2.83,9.38-4.36s7.18-2.68,9.7-3.43c1.25-.38,2.28-.66,3-.83A5.2,5.2,0,0,1,128.4,31Z" transform="translate(-7 -6.7)"/><path class="cls-9" d="M203.72,222c-.34-.88,12.17-21.24,15.12-24.61,3.31-3.78,11.83-3.78,11.83-3.78l-2.43,46.12" transform="translate(-7 -6.7)"/><path class="cls-4" d="M226.4,154.31c-5.34-8.32-7.58-25.74-11.74-37.06-1-7-5.87-12.26-9.88-14.88a17.74,17.74,0,0,0-21.88,2.42,13.6,13.6,0,0,1-2.28,2.09,14.06,14.06,0,0,1-3.86,1.3c-5.39,1.53-8.34,7.55-10,13.29s-5.32,32.58-2.75,37.93l30.28-3.34-.22,2.12a26.57,26.57,0,0,0,21.68,1.07,22.88,22.88,0,0,1-.46-7.41c.56,2.49,1.44,5.38,3.86,6.39a6.51,6.51,0,0,0,2.39.42,35.25,35.25,0,0,0,8.5-1.09C228.39,157.14,227.29,155.69,226.4,154.31Z" transform="translate(-7 -6.7)"/><path class="cls-6" d="M207.75,152.87A14.6,14.6,0,0,0,212,142.69c.21-6.57-.91-14.05-2.11-22.67-1.09-7.76-9.24-12.89-16.16-11.34l-10.4,3.69c-5,1.6-11.47,5.81-10.86,11.52l3,8.67,7.41,36,18-1.15L200,157.25a17.29,17.29,0,0,0,7.77-4.38" transform="translate(-7 -6.7)"/><path class="cls-10" d="M200,156.84a27.12,27.12,0,0,1-16-3s4.69,8.87,16.29,6.43Z" transform="translate(-7 -6.7)"/><path class="cls-4" d="M199.28,140.37a12.83,12.83,0,0,1,2.59-.71c.41-.08.8-.2.85-.45s-.12-.62-.35-1L201,135.65a31.07,31.07,0,0,1-2-4.54c.17-.08.66.62,2.62,4.25l1.36,2.58a1.78,1.78,0,0,1,.31,1.36,1.05,1.05,0,0,1-.64.6,3.05,3.05,0,0,1-.69.16A11.74,11.74,0,0,1,199.28,140.37Z" transform="translate(-7 -6.7)"/><path class="cls-4" d="M193.54,134.48a1.64,1.64,0,0,1-1.31,1.83,1.46,1.46,0,0,1-1.67-1.34,1.66,1.66,0,0,1,1.31-1.84A1.47,1.47,0,0,1,193.54,134.48Z" transform="translate(-7 -6.7)"/><path class="cls-4" d="M194.06,129.81c-.16.21-1.21-.56-2.65-.44s-2.45,1-2.62.82.07-.45.52-.87a3.46,3.46,0,0,1,2.08-.9,3.14,3.14,0,0,1,2.12.6C194,129.37,194.14,129.72,194.06,129.81Z" transform="translate(-7 -6.7)"/><path class="cls-4" d="M194.66,140.47c.24-.06.61,1.25,1.8,2.14s2.5.89,2.51,1.14-.31.31-.9.33a3.41,3.41,0,0,1-2.15-.71,3.72,3.72,0,0,1-1.3-1.91C194.47,140.87,194.54,140.49,194.66,140.47Z" transform="translate(-7 -6.7)"/><path class="cls-4" d="M193.61,124.43c0,.59-1.45.7-3,1.43s-2.72,1.75-3.05,1.31c-.15-.22,0-.8.36-1.48a4.76,4.76,0,0,1,2.06-1.85,3.77,3.77,0,0,1,2.55-.24C193.2,123.79,193.6,124.15,193.61,124.43Z" transform="translate(-7 -6.7)"/><path class="cls-4" d="M205.52,133.33a1.65,1.65,0,0,1-1.31,1.84,1.47,1.47,0,0,1-1.67-1.35,1.65,1.65,0,0,1,1.31-1.83A1.46,1.46,0,0,1,205.52,133.33Z" transform="translate(-7 -6.7)"/><path class="cls-4" d="M208.17,128.22c-.16.21-1.21-.57-2.65-.45s-2.46,1-2.62.83.07-.46.51-.87a3.44,3.44,0,0,1,2.09-.91,3.19,3.19,0,0,1,2.12.6C208.08,127.77,208.24,128.12,208.17,128.22Z" transform="translate(-7 -6.7)"/><path class="cls-4" d="M207.75,122.1c-.23.53-1.46.22-2.86.42s-2.53.74-2.87.28c-.15-.22,0-.73.43-1.27a3.53,3.53,0,0,1,2.22-1.16,3.36,3.36,0,0,1,2.4.6C207.63,121.38,207.85,121.85,207.75,122.1Z" transform="translate(-7 -6.7)"/><path class="cls-4" d="M211.9,115.48a17.24,17.24,0,0,0-11.26-7.89A26.55,26.55,0,0,0,187,108.65a82,82,0,0,0-12.7,5.73,4.65,4.65,0,0,0-2.5,2.25,5.37,5.37,0,0,0-.1,2.43l.42,3.55a32.64,32.64,0,0,0-.84,9.58,130.63,130.63,0,0,0,3.43,26.72c5.53,1.2,7.62,2,12.71-.56,0,0-3.08-7-3.54-11.33-.51-4.66-.94-9.29-1-13.91,2.84-4.71,4.22-9,3.46-15.22a10.81,10.81,0,0,1,1.33,2.9,3.26,3.26,0,0,0,2,2.2c1.64.34,2.86-1.73,3-3.54s-.28-3.72.42-5.36a19.41,19.41,0,0,0,6.72,5.73c1.23.63,2.83,1.05,3.83.06a3,3,0,0,0,.51-2.89,8.49,8.49,0,0,0-1.54-2.61c2.1,2.16,4.8,5.53,7.65,6.08a3.78,3.78,0,0,0,2.51-.74C213.48,119,212.39,116.33,211.9,115.48Z" transform="translate(-7 -6.7)"/><path class="cls-4" d="M174.12,105.4c-.07-.36.28-.79,1-1.08a4.54,4.54,0,0,1,2.82-.1,4.87,4.87,0,0,1,2.46,1.5c.5.6.62,1.16.41,1.45-.46.57-1.86.08-3.46-.32S174.28,106.14,174.12,105.4Z" transform="translate(-7 -6.7)"/><path class="cls-4" d="M181.19,107.82c-.58.39-1.95-.82-2.6-2.93s-.26-4,.42-4,1.38,1.39,2,3.17S181.78,107.41,181.19,107.82Z" transform="translate(-7 -6.7)"/><path class="cls-6" d="M183.29,266.38c-.31.8-2,20.22-.73,30.25,1.49,11.61,3.53,35.23,3.53,35.23,1.7,1.16,12.42,2.11,12.14.47-.11-.61,2.39-61.17,2.39-61.17Z" transform="translate(-7 -6.7)"/><path class="cls-6" d="M205.5,264.16c-.31.8,2.79,23.42,4.08,33.44,1.48,11.61,3.53,35.23,3.53,35.23,1.7,1.17,12.42,2.11,12.13.47-.11-.6-1.14-67.18-1.14-67.18Z" transform="translate(-7 -6.7)"/><path class="cls-9" d="M225.47,331.16v1S239,338.86,239.12,342l-27-.25.52-11A12.91,12.91,0,0,0,225.47,331.16Z" transform="translate(-7 -6.7)"/><path class="cls-3" d="M212.11,341.77l.12-2.64,25.84,1.2s1.2.65,1.05,1.69Z" transform="translate(-7 -6.7)"/><path class="cls-4" d="M225.2,336.09s-.09-.23-.07-.63a3.73,3.73,0,0,1,.41-1.47,3,3,0,0,1,.91-1.09c.29-.2.49-.24.51-.2a6.66,6.66,0,0,0-1.17,1.47A9.79,9.79,0,0,0,225.2,336.09Z" transform="translate(-7 -6.7)"/><path class="cls-4" d="M223.79,335.7a3.36,3.36,0,0,1,.45-2.07c.54-1.05,1.32-1.47,1.34-1.39a8,8,0,0,0-1.79,3.46Z" transform="translate(-7 -6.7)"/><path class="cls-4" d="M227.28,336.9a2.65,2.65,0,0,1-.07-1.79c.23-1,.78-1.57.82-1.49s-.34.68-.54,1.58S227.37,336.88,227.28,336.9Z" transform="translate(-7 -6.7)"/><path class="cls-9" d="M198.56,331.28v1s13.23,6.57,13.35,9.65l-26.4-.24.51-10.74A12.61,12.61,0,0,0,198.56,331.28Z" transform="translate(-7 -6.7)"/><path class="cls-3" d="M185.5,341.65l.12-2.58,25.26,1.17s1.16.64,1,1.65Z" transform="translate(-7 -6.7)"/><path class="cls-4" d="M198.3,336.1s-.09-.23-.07-.62a3.75,3.75,0,0,1,.4-1.44,2.89,2.89,0,0,1,.89-1.06c.28-.19.48-.24.49-.2a7.82,7.82,0,0,0-1.14,1.44A8.48,8.48,0,0,0,198.3,336.1Z" transform="translate(-7 -6.7)"/><path class="cls-4" d="M196.92,335.72a3.18,3.18,0,0,1,.44-2c.53-1,1.29-1.44,1.31-1.35a17.71,17.71,0,0,0-1.07,1.54A16,16,0,0,0,196.92,335.72Z" transform="translate(-7 -6.7)"/><path class="cls-4" d="M200.33,336.89a2.55,2.55,0,0,1-.07-1.75c.22-1,.76-1.53.81-1.46s-.34.67-.54,1.55S200.41,336.87,200.33,336.89Z" transform="translate(-7 -6.7)"/><path class="cls-11" d="M169.3,199.46l-8.92-3.15c-.23,9.15-15.53,12.25-21.38-.23l-14.55,5.07,7.9,92.88,31.91,6.5s7.54-96.79,7.33-97.87S169.3,199.46,169.3,199.46Z" transform="translate(-7 -6.7)"/><path class="cls-12" d="M162.7,311.57l-1-10.39-47.65-16.11L105,295.62s-14.83,1.6-18,14.28a41.66,41.66,0,0,0,.91,23c-12.86-2.68-30.32.59-52.39,4.27l-2,19.36s128.58,3.07,136,.3,9-14.29,6.23-28.79S162.7,311.57,162.7,311.57Z" transform="translate(-7 -6.7)"/><g class="cls-13"><path d="M160.78,322.11a7.43,7.43,0,0,1-2.84-5.61c-.1-5.49,1.82-16,1.82-16l-20.61-7.45L122.43,314.3s1.41,16.8-2.31,24.3c0,0,7.95-4.7,16.77-10.2C144.84,323.44,154.12,320,160.78,322.11Z" transform="translate(-7 -6.7)"/></g><path class="cls-9" d="M129.24,310.1a14.54,14.54,0,0,0,2.38,1.17l5.81,2.6,5.79,2.65a15.32,15.32,0,0,0,2.44,1,12.52,12.52,0,0,0-2.3-1.36c-1.44-.76-3.47-1.76-5.74-2.79s-4.35-1.89-5.87-2.46A12.06,12.06,0,0,0,129.24,310.1Z" transform="translate(-7 -6.7)"/><path class="cls-9" d="M120.49,338.32s.17-.05.46-.2l1.25-.67,4.55-2.56c3.83-2.19,9.13-5.22,14.93-8.65a41.28,41.28,0,0,1,8.51-3.92,18.58,18.58,0,0,1,7.46-.75,13.86,13.86,0,0,1,4.88,1.44c1.08.57,1.63,1,1.65,1s-.12-.13-.37-.34a9.93,9.93,0,0,0-1.19-.8,13.25,13.25,0,0,0-4.93-1.64,18.48,18.48,0,0,0-7.62.66,39.39,39.39,0,0,0-8.62,3.92l-14.87,8.79-4.48,2.71-1.2.76A3.8,3.8,0,0,0,120.49,338.32Z" transform="translate(-7 -6.7)"/><path class="cls-9" d="M121.92,312.5a2.22,2.22,0,0,0,0,.54c0,.41.07.91.11,1.52.09,1.32.21,3.23.2,5.6a71,71,0,0,1-5.57,27.76,22.42,22.42,0,0,1-4.07,6.92,12.1,12.1,0,0,1-4.45,2.67c-1.16.4-1.84.47-1.83.52a2.27,2.27,0,0,0,.49,0,9.48,9.48,0,0,0,1.4-.3,11.6,11.6,0,0,0,4.63-2.59,22.2,22.2,0,0,0,4.24-7,65.91,65.91,0,0,0,3.3-9.59,67,67,0,0,0,2.21-18.39c0-2.37-.21-4.29-.36-5.61-.08-.61-.15-1.11-.2-1.52A2.33,2.33,0,0,0,121.92,312.5Z" transform="translate(-7 -6.7)"/><path class="cls-9" d="M92,343.15a12.82,12.82,0,0,0-1-5.67,12.19,12.19,0,0,0-3-4.8,51,51,0,0,1,2.54,5A50.24,50.24,0,0,1,92,343.15Z" transform="translate(-7 -6.7)"/><path class="cls-9" d="M163.41,356.82a7,7,0,0,0,3.71-2.41,7.92,7.92,0,0,0,2.17-4.05,27.4,27.4,0,0,1-2.52,3.68A26.08,26.08,0,0,1,163.41,356.82Z" transform="translate(-7 -6.7)"/><path class="cls-14" d="M131.44,197.42l-15.3,7.23-4.52,68.54s-16.56,13.32-22.53,22.88c-7,11.13-3.8,10.74-3.8,10.74s17.54-7.44,24.75-4.15,15.09,17,19.37,15.73,13.29-15.22,14-44.64,1.81-29.67,0-41.84S131.44,197.42,131.44,197.42Z" transform="translate(-7 -6.7)"/><path class="cls-4" d="M99.71,298.05c0,.11,1.47-.42,3.88-.75a23.5,23.5,0,0,1,4.26-.18A25.76,25.76,0,0,1,113,298a27.23,27.23,0,0,1,4.89,1.94,25.7,25.7,0,0,1,3.65,2.37c2,1.54,3,2.76,3.07,2.68a4.81,4.81,0,0,0-.69-.88,9.33,9.33,0,0,0-.9-.95,17,17,0,0,0-1.27-1.15,23.42,23.42,0,0,0-3.66-2.51,25.53,25.53,0,0,0-5-2,25.13,25.13,0,0,0-5.26-.81,21,21,0,0,0-4.32.3,12.14,12.14,0,0,0-1.63.35,8.53,8.53,0,0,0-1.21.36A4.1,4.1,0,0,0,99.71,298.05Z" transform="translate(-7 -6.7)"/><path class="cls-14" d="M173.92,201.28c.66,26.35,7,57.28,1,78.2,0,0,3.27,48.66,3.38,51.89.11,2.8-1.63,6.48-4.78,1.61-4.68-7.24-20.54-12-20.54-12,19.45-54.37,12.94-123.1,12.94-123.1S171.33,199.42,173.92,201.28Z" transform="translate(-7 -6.7)"/><path class="cls-4" d="M167.35,285.94a5.4,5.4,0,0,0,0,1.21c0,.77.1,1.88.21,3.26.22,2.75.6,6.54,1.16,10.71s1.2,7.93,1.73,10.63c.26,1.35.48,2.44.66,3.19a6.39,6.39,0,0,0,.31,1.16,5.53,5.53,0,0,0-.13-1.2c-.13-.87-.3-1.95-.5-3.22-.44-2.72-1-6.47-1.58-10.63s-1-7.94-1.3-10.68c-.15-1.28-.27-2.37-.37-3.24A6,6,0,0,0,167.35,285.94Z" transform="translate(-7 -6.7)"/><path class="cls-12" d="M31.9,338.6a37.26,37.26,0,0,1,3.74.85l.59.19v0l13.27-1.55L49,355.92l-15.79.54L10.42,364A2.62,2.62,0,0,1,7.2,362.2,3.31,3.31,0,0,1,7.72,359c3.71-4.44,17.4-20.71,19.25-20.54Z" transform="translate(-7 -6.7)"/><path class="cls-9" d="M7.06,361.67l21.63-23.16H27.61c-1.17-.12-1.63.46-2.37,1.09C23,341.46,18.07,346.65,7.72,359a3.3,3.3,0,0,0-.66,2.72Z" transform="translate(-7 -6.7)"/><path class="cls-2" d="M19,354.77a8,8,0,0,1,1.83,2.37,9.68,9.68,0,0,1,.53,3.1c.06,0,.24-.32.31-.95a4.82,4.82,0,0,0-.38-2.41,4.17,4.17,0,0,0-1.44-1.82C19.36,354.75,19,354.71,19,354.77Z" transform="translate(-7 -6.7)"/><path class="cls-2" d="M14.9,357.44a21.12,21.12,0,0,1,.93,2.19,21.53,21.53,0,0,1,.28,2.4,3.13,3.13,0,0,0,.17-2.56C15.91,358,15,357.31,14.9,357.44Z" transform="translate(-7 -6.7)"/><path class="cls-2" d="M24.17,352a28,28,0,0,1,1.45,3.22,31,31,0,0,1,.64,3.64A6.93,6.93,0,0,0,26,355C25.41,353,24.22,351.88,24.17,352Z" transform="translate(-7 -6.7)"/><path class="cls-15" d="M116.44,281.79s1,6.65,10.86,7,49.78-26.3,49.78-26.3l-.7-9.1Z" transform="translate(-7 -6.7)"/><path class="cls-6" d="M167.09,234.1c1.44,1.16,1.74,3.24,1.24,5.42a3,3,0,0,0,1.22,3.22,75.66,75.66,0,0,0,7.18-7c2-2.56,5.66-8.33,7.57-9s3.29.33,1.85,2.23-5.75,8.53-5.31,9.24,10.77-7.16,11.7-6.49,1.59,2.32-1.17,4.21-7.35,5.36-7.35,5.36,10-4.82,10.36-3-.64,2.27-2.29,3.19-7.84,5.66-7.84,5.66,8.58-3.29,9.09-1.53.48,2.13-1.29,2.74-19.07,9.9-19.64,10.16-11.47,7.84-11.47,7.84l-7.17-10.78L163.93,250s-.13-10.06.79-12.46S165.65,232.94,167.09,234.1Z" transform="translate(-7 -6.7)"/><path class="cls-14" d="M159.22,251.38l-27,10.5L132,258h0l-2.35-43.38s-3.77-12.24-13.48-9.92c-.75.18-10.61,5.72-9.69,23.9A318.1,318.1,0,0,0,110,260.36c1.4,10.39,3.73,18.91,6.4,21.43,5.47,5.15,11.68,5.92,22.63,0s26.28-17.85,26.28-17.85Z" transform="translate(-7 -6.7)"/><path class="cls-6" d="M173.31,184.23c-.8.79-11,5.67-15.59,7.9-.6.29-21.74,0-21.74,0l-.89-9.8s17-4.07,17.34-4.75,18-9.49,18.4-9.58S173.31,184.23,173.31,184.23Z" transform="translate(-7 -6.7)"/><path class="cls-7" d="M181.5,162c-3.6.24-8.19-.58-18.29,9.6l10,13.75c.19,2.95.73,24.15,1.06,27.18s.25,60,1.38,61.45c5.28,6.72,61.37,2.65,62.05,1.09-6.16-32.16-10-59.54-15.24-76-2.58-8.06-4.61-15.27-4.61-15.27l9.12-7.56s-6.93-11-11.34-13.49c-4-2.26-11.62-2.92-15.4-2,0,0,.59,6.77-18.78,1.32" transform="translate(-7 -6.7)"/><path class="cls-4" d="M205.42,274.47a2.11,2.11,0,0,1-.11-.5c-.06-.38-.14-.85-.24-1.45-.22-1.31-.51-3.11-.87-5.31s-.85-4.91-1.42-7.87c-.29-1.47-.6-3-.92-4.62-.17-.79-.33-1.62-.53-2.43a6.56,6.56,0,0,0-.38-1.16,1.49,1.49,0,0,0-.69-.81.58.58,0,0,0-.75.38,2.63,2.63,0,0,0-.19,1.14c0,.83.05,1.68.08,2.49.07,1.64.15,3.22.25,4.72.19,3,.44,5.71.68,8s.46,4.09.62,5.35c.07.6.13,1.08.18,1.46a2.18,2.18,0,0,1,0,.51,3.16,3.16,0,0,1-.12-.49c-.06-.33-.15-.82-.25-1.45-.2-1.26-.48-3.08-.75-5.35s-.55-5-.76-8c-.11-1.5-.2-3.08-.27-4.73,0-.82-.08-1.64-.09-2.51a3.1,3.1,0,0,1,.23-1.35,1.18,1.18,0,0,1,.51-.55.89.89,0,0,1,.73,0,1.85,1.85,0,0,1,.92,1,6.43,6.43,0,0,1,.41,1.24c.2.83.36,1.65.53,2.45.32,1.6.62,3.15.9,4.63.54,3,1,5.64,1.33,7.89s.59,4.08.74,5.35c.07.59.13,1.08.17,1.46A3.24,3.24,0,0,1,205.42,274.47Z" transform="translate(-7 -6.7)"/><path class="cls-4" d="M222.17,273a73.05,73.05,0,0,1-3.18-6.95,73.41,73.41,0,0,1-2.81-7.14,69.77,69.77,0,0,1,3.18,7A73.86,73.86,0,0,1,222.17,273Z" transform="translate(-7 -6.7)"/><path class="cls-4" d="M173.76,193a62.08,62.08,0,0,1-.66-6.93,60.32,60.32,0,0,1-.25-7,62.43,62.43,0,0,1,.66,6.93A57.76,57.76,0,0,1,173.76,193Z" transform="translate(-7 -6.7)"/><path class="cls-4" d="M215,174.49a8,8,0,0,1,.78,1.66c.42,1,1,2.53,1.48,4.19s.91,3.19,1.16,4.3a7.77,7.77,0,0,1,.3,1.83c-.11,0-.81-2.69-1.84-6S214.87,174.54,215,174.49Z" transform="translate(-7 -6.7)"/><path class="cls-4" d="M130,220.84s0,.25.06.74.08,1.22.14,2.16c.12,1.91.28,4.69.49,8.25.41,7.15,1,17.41,1.7,29.88l-.22-.15,27-10.54.15-.06.08.16c2,4,4,8.24,6.14,12.56l.08.17-.14.11c-3.43,2.64-7.08,5.32-10.83,8a157.79,157.79,0,0,1-16.18,10.25,37.48,37.48,0,0,1-8.39,3.32,19.35,19.35,0,0,1-4.33.48,13.21,13.21,0,0,1-4.2-.81,14,14,0,0,1-3.68-2.09,18.82,18.82,0,0,1-1.59-1.37,7.75,7.75,0,0,1-1.27-1.71,33,33,0,0,1-2.85-7.73c-.66-2.59-1.16-5.12-1.58-7.57s-.7-4.81-1.07-7.05c-1.35-9-2.15-16.3-2.57-21.37-.22-2.54-.34-4.51-.41-5.85,0-.65,0-1.16-.07-1.52s0-.52,0-.52,0,.18,0,.52.06.86.1,1.52c.1,1.33.24,3.3.48,5.83.47,5.06,1.31,12.37,2.7,21.34.38,2.24.68,4.61,1.1,7s.93,5,1.59,7.53A33.12,33.12,0,0,0,115.3,280a7.55,7.55,0,0,0,1.2,1.63,19.85,19.85,0,0,0,1.57,1.34,13.56,13.56,0,0,0,3.59,2,13.12,13.12,0,0,0,4.08.78,18.72,18.72,0,0,0,4.25-.48,36.57,36.57,0,0,0,8.29-3.3,159.14,159.14,0,0,0,16.14-10.22c3.75-2.65,7.4-5.33,10.81-8l-.06.27c-2.11-4.32-4.16-8.55-6.12-12.56l.24.1-27,10.47-.2.08v-.24c-.65-12.47-1.19-22.73-1.56-29.89-.17-3.56-.31-6.34-.4-8.26,0-.93-.08-1.66-.1-2.16S130,220.84,130,220.84Z" transform="translate(-7 -6.7)"/><g class="cls-13"><path class="cls-2" d="M194.08,30.93l-13.51-4.88-13.38,4.81c-1.71.81-3.21,1.3-3.21,2.9v8a30.19,30.19,0,0,0,4.41,15.85A27.49,27.49,0,0,0,180.7,68.5c5.47-1.78,9.55-6.55,12.05-10.62A30.28,30.28,0,0,0,197.16,42V34.87A3.75,3.75,0,0,0,194.08,30.93Z" transform="translate(-7 -6.7)"/></g><polygon class="cls-5" points="182.25 36.8 175.51 36.8 175.51 29.5 171.63 29.5 171.63 36.8 164.88 36.8 164.88 40.99 171.63 40.99 171.63 48.29 175.51 48.29 175.51 40.99 182.25 40.99 182.25 36.8"/><path class="cls-4" d="M129.93,179l-3.45-22.23-2-10.13c-3.13-2.67-12.23.48-15.1,3.48s-4,7.52-4,11.84c0,2.86.36,6-1.14,8.34-1.71,2.7-5.37,3.49-6.8,6.38a7.23,7.23,0,0,0,.28,6.17,17.75,17.75,0,0,0,3.87,4.82,16.17,16.17,0,0,0,4.36,3.32,5.59,5.59,0,0,0,5.17,0,6,6,0,0,0,4.24,6.24,6.77,6.77,0,0,0,6.93-2.88,11.09,11.09,0,0,0,1.65-8.06,2.77,2.77,0,0,0,3.8,1.48,5.05,5.05,0,0,0,2.46-3.88A16,16,0,0,0,129.93,179Z" transform="translate(-7 -6.7)"/><path class="cls-4" d="M123.88,146.64c4.31-7.93,10.87-13.19,19.25-14.75,4.73-.89,6.85-.15,10.4.27a14.67,14.67,0,0,1,9.41,4.67c3,3.31,5.59,7.13,6.69,11.57a82.65,82.65,0,0,1,2.63,13.86,27.64,27.64,0,0,1-2.14,13.8L159.47,180c-6,1.24-12.11,2.49-18.22,2s-12.32-3-16.27-8C119.48,166.91,119.57,154.57,123.88,146.64Z" transform="translate(-7 -6.7)"/><path class="cls-6" d="M151.18,136l-3.88.16-13.69,8.73a4.43,4.43,0,0,0-3.25,4.89l9.14,46.78,17.58,14.34,3.32-14.24-.25-4.91s9.61-2.68,10.3-15.47c.34-6.36-.9-16.6-2.16-24.94C167.15,143.86,159.76,134.62,151.18,136Z" transform="translate(-7 -6.7)"/><path class="cls-10" d="M152.87,176.3a2.83,2.83,0,0,1,.61-1.77,2.39,2.39,0,0,1,3-.69,3.7,3.7,0,0,1,1.76,3.17h0a3.16,3.16,0,0,1-2,1.73l-.4.08a2.62,2.62,0,0,1-1.95-.48A2.72,2.72,0,0,1,152.87,176.3Z" transform="translate(-7 -6.7)"/><path class="cls-4" d="M164.81,162.49a1.61,1.61,0,0,1-1.29,1.79,1.45,1.45,0,0,1-1.67-1.29,1.61,1.61,0,0,1,1.28-1.79A1.46,1.46,0,0,1,164.81,162.49Z" transform="translate(-7 -6.7)"/><path class="cls-4" d="M166.27,156c-.16.23-1.38-.55-3-.37s-2.71,1.17-2.9,1,.06-.49.54-1a3.89,3.89,0,0,1,2.29-1,3.64,3.64,0,0,1,2.4.56C166.15,155.51,166.36,155.88,166.27,156Z" transform="translate(-7 -6.7)"/><path class="cls-4" d="M158,171.22a10.14,10.14,0,0,1,2.56-.79c.41-.09.79-.22.83-.53a2.45,2.45,0,0,0-.39-1.29c-.49-1-1-2.11-1.53-3.25-2.13-4.63-3.71-8.45-3.54-8.54s2,3.59,4.17,8.22c.51,1.14,1,2.23,1.47,3.27a2.69,2.69,0,0,1,.38,1.72,1.08,1.08,0,0,1-.62.72,2.22,2.22,0,0,1-.68.18A9.71,9.71,0,0,1,158,171.22Z" transform="translate(-7 -6.7)"/><path class="cls-10" d="M160.16,191.76a27.69,27.69,0,0,1-16-2.82s4.53,8.69,16.07,6.25Z" transform="translate(-7 -6.7)"/><path class="cls-4" d="M153.37,172.93c.25,0,.43,1.84,2,3s3.45.77,3.49,1-.38.42-1.16.52a4.07,4.07,0,0,1-2.91-.75,4.17,4.17,0,0,1-1.61-2.55C153.09,173.42,153.25,172.94,153.37,172.93Z" transform="translate(-7 -6.7)"/><path class="cls-4" d="M164.86,150c-.23.45-1.48.3-2.91.58s-2.58.83-2.93.48c-.16-.17,0-.6.42-1.08a4.24,4.24,0,0,1,2.25-1.15,4.1,4.1,0,0,1,2.46.29C164.72,149.45,165,149.82,164.86,150Z" transform="translate(-7 -6.7)"/><path class="cls-4" d="M147.38,165a1.53,1.53,0,0,0,1.64,1.41,1.51,1.51,0,0,0,1.35-1.68,1.5,1.5,0,1,0-3,.27Z" transform="translate(-7 -6.7)"/><path class="cls-4" d="M144.62,158.94c.21.18,1.23-.88,2.82-1.12s2.89.46,3,.22-.16-.46-.72-.78a3.85,3.85,0,0,0-4.67.72C144.64,158.46,144.52,158.86,144.62,158.94Z" transform="translate(-7 -6.7)"/><path class="cls-4" d="M144.79,153.26c.36.35,1.54-.25,3-.49s2.78-.14,3-.6c.1-.21-.15-.58-.75-.87a4.22,4.22,0,0,0-2.54-.27,4.37,4.37,0,0,0-2.32,1.15C144.74,152.66,144.62,153.09,144.79,153.26Z" transform="translate(-7 -6.7)"/><path class="cls-6" d="M135.36,170.46c-.09-.93-1.3-3-2.17-3.09-2.32-.14-6.42.51-5.88,6.79.74,8.59,9.63,6,9.62,5.77S135.66,173.7,135.36,170.46Z" transform="translate(-7 -6.7)"/><path class="cls-10" d="M133.4,177s-.13.12-.35.26a1.3,1.3,0,0,1-1,.13c-.87-.25-1.7-1.62-1.87-3.17a5.35,5.35,0,0,1,.2-2.18,1.71,1.71,0,0,1,.94-1.25.69.69,0,0,1,.86.33c.12.23.09.4.13.41s.16-.16.06-.51a.87.87,0,0,0-.36-.5,1,1,0,0,0-.78-.15,2,2,0,0,0-1.33,1.48,5.44,5.44,0,0,0-.27,2.45c.2,1.72,1.16,3.26,2.33,3.5a1.41,1.41,0,0,0,1.25-.35C133.41,177.22,133.43,177,133.4,177Z" transform="translate(-7 -6.7)"/><path class="cls-4" d="M132.88,167.45l2.32,1.91c7.34-10.4,21-35.62,20.24-34.12a23.57,23.57,0,0,0-12.54.62c-6.24,2.27-17.92,7.79-16.55,15.95S132.88,167.45,132.88,167.45Z" transform="translate(-7 -6.7)"/><path class="cls-6" d="M134.77,189.36a9.07,9.07,0,0,1,4.83,1.95c2,1.64,4.41,3.38,4.41,4.77v1.24s3.93-.06,3.69,1.54c0,0,2.15-.45,2.08,1.5s-3.75,2.27-3.75,2.27,3.53,1.25,2.38,2.65-3.11.55-3.11.55,1.09,1.13-.65,1.66-12.33-5.1-12.33-5.1-4.64-2.9-3.68-12.25C129.1,185.65,134.77,189.36,134.77,189.36Z" transform="translate(-7 -6.7)"/><path class="cls-6" d="M137.3,177l-7.74,11.23,9.35,2.54a9.66,9.66,0,0,0,1.27-5.34C139.82,182.88,137.3,177,137.3,177Z" transform="translate(-7 -6.7)"/><path class="cls-10" d="M144,197s0,.16-.07.41a1.25,1.25,0,0,1-.89.65,2.86,2.86,0,0,1-1.53-.25,15,15,0,0,1-1.72-.73,11.06,11.06,0,0,1-3.87-2.91c.07-.1,1.71,1.35,4,2.51.58.29,1.15.55,1.67.75a3,3,0,0,0,1.38.33,1.15,1.15,0,0,0,.79-.44C143.93,197.09,144,196.94,144,197Z" transform="translate(-7 -6.7)"/><path class="cls-10" d="M147.84,198.93s-.4.64-1.43.89a20.57,20.57,0,0,1-3.94.39,25.43,25.43,0,0,1-3.94-.24,5.54,5.54,0,0,1-1.6-.35c0-.13,2.48.21,5.54.15a32,32,0,0,0,3.88-.25A4.59,4.59,0,0,0,147.84,198.93Z" transform="translate(-7 -6.7)"/><path class="cls-10" d="M146.49,202.74a21.92,21.92,0,0,1-4.37,0,22.39,22.39,0,0,1-4.35-.39,22.21,22.21,0,0,1,4.36,0A22.19,22.19,0,0,1,146.49,202.74Z" transform="translate(-7 -6.7)"/><path class="cls-10" d="M139.07,204.6a10.23,10.23,0,0,1,2.93.3,10.38,10.38,0,0,1,2.88.72,10,10,0,0,1-2.94-.29A9.92,9.92,0,0,1,139.07,204.6Z" transform="translate(-7 -6.7)"/><path class="cls-10" d="M138.26,190.27a33.7,33.7,0,0,1-1.4-5.11,34.12,34.12,0,0,1-1-5.23,35.89,35.89,0,0,1,1.39,5.12A36.31,36.31,0,0,1,138.26,190.27Z" transform="translate(-7 -6.7)"/><path class="cls-10" d="M144.65,207.36s.19-.07.5-.27a.86.86,0,0,0,.4-.5,1,1,0,0,0-.31-.81l-.31-.33.41.15a3.59,3.59,0,0,0,1.33.23,2.1,2.1,0,0,0,1.47-.62.84.84,0,0,0,.33-.75,1.57,1.57,0,0,0-.56-.75,7,7,0,0,0-1.94-1l-.78-.29.82-.09a8.62,8.62,0,0,0,1.67-.36,3.46,3.46,0,0,0,1.53-.88,1.29,1.29,0,0,0,.36-.78,1.4,1.4,0,0,0-.18-.87,1.59,1.59,0,0,0-1.63-.47h0l-.26.05,0-.28A.83.83,0,0,0,147,198a3.23,3.23,0,0,0-1-.36,9.58,9.58,0,0,0-2-.23h-.2v-.21c0-.47,0-1,0-1.42a2.76,2.76,0,0,0-.59-1.12,13.69,13.69,0,0,0-1.77-1.73l-1.72-1.44a8.22,8.22,0,0,0-1.53-1.09,10.57,10.57,0,0,0-2.47-.95c-.61-.15-.94-.19-.94-.21a2.51,2.51,0,0,1,1,.07,8.66,8.66,0,0,1,2.56.85,8.47,8.47,0,0,1,1.61,1.07l1.73,1.41a14.36,14.36,0,0,1,1.85,1.76,3.12,3.12,0,0,1,.69,1.3c.05.56,0,1,0,1.5L144,197a10.34,10.34,0,0,1,2.12.23,3.86,3.86,0,0,1,1.08.41,1.24,1.24,0,0,1,.7,1.13l-.24-.23h0a2.8,2.8,0,0,1,1.08,0,1.45,1.45,0,0,1,.95.63,1.84,1.84,0,0,1,.24,1.16,1.73,1.73,0,0,1-.47,1,3.82,3.82,0,0,1-1.7,1,8.51,8.51,0,0,1-1.75.36l0-.38a7.37,7.37,0,0,1,2,1.11,1.75,1.75,0,0,1,.66,1,1.18,1.18,0,0,1-.43,1,2.38,2.38,0,0,1-1.66.64,3.54,3.54,0,0,1-1.41-.29l.1-.17a1.18,1.18,0,0,1,.32,1,1,1,0,0,1-.49.56,2.11,2.11,0,0,1-.4.15C144.71,207.36,144.66,207.37,144.65,207.36Z" transform="translate(-7 -6.7)"/><path class="cls-10" d="M170.51,177a3.75,3.75,0,0,1,0,.77,18.5,18.5,0,0,1-.35,2.07,21.94,21.94,0,0,1-2.58,6.34,11.88,11.88,0,0,1-4.78,4.58,5,5,0,0,1-2.54.81s.24-.08.67-.24a11.29,11.29,0,0,0,1.74-.84,12.53,12.53,0,0,0,4.57-4.55,24.58,24.58,0,0,0,2.65-6.18C170.3,178.1,170.44,177,170.51,177Z" transform="translate(-7 -6.7)"/><path class="cls-12" d="M267.88,363.67l22.22,4.91S292.94,394.67,297,396l10.35-46.27L273,340.55Z" transform="translate(-7 -6.7)"/><path class="cls-9" d="M307.32,349.74l-3.33-.89-8.78,44.77s.37,2.27,1.76,2.39Z" transform="translate(-7 -6.7)"/><path class="cls-2" d="M289.71,369.28c.21,0,.56-1.06,1.48-2s1.93-1.3,1.89-1.52-1.32-.21-2.41.94S289.51,369.28,289.71,369.28Z" transform="translate(-7 -6.7)"/><path class="cls-2" d="M290.48,374.62c.19.1.76-.78,1.82-1.32s2-.51,2.08-.74-1.11-.68-2.41,0S290.28,374.56,290.48,374.62Z" transform="translate(-7 -6.7)"/><path class="cls-2" d="M295.23,378.78c.09-.2-.88-.78-2.15-.5s-2,1.22-1.82,1.36.91-.36,2-.57S295.16,379,295.23,378.78Z" transform="translate(-7 -6.7)"/><path class="cls-12" d="M268.19,300.46c-1.51.22-30.22,10.85-30.22,10.85s-23.16-7.49-35.17-4.26-18.52,8.58-17.09,20.21,8.44,21.07,27.46,26.11,72.56,14.88,72.56,14.88l6.08-23.89-19.94-5.05Z" transform="translate(-7 -6.7)"/><path class="cls-9" d="M271.87,339.31a3.9,3.9,0,0,1-.53-.37l-1.5-1.14c-1.32-.94-3.23-2.32-5.71-3.8s-5.49-3.15-8.91-4.82S248,325.81,244,324.09l-11.34-4.88a43.73,43.73,0,0,0-9.57-2.83,23.57,23.57,0,0,0-6.67-.16l-1,.15-.76.16-.63.11a3.58,3.58,0,0,1,.61-.2l.76-.19,1-.2a22.34,22.34,0,0,1,6.73,0,43.13,43.13,0,0,1,9.66,2.76c1.76.71,3.58,1.53,5.48,2.34l5.88,2.51c4,1.73,7.84,3.44,11.26,5.14s6.43,3.37,8.89,4.91a66.67,66.67,0,0,1,5.66,3.94l1.46,1.2A4.49,4.49,0,0,1,271.87,339.31Z" transform="translate(-7 -6.7)"/><path class="cls-9" d="M261.68,329.35c-.06,0-.65-1.21-2-2.93a27.89,27.89,0,0,0-6-5.73,59.79,59.79,0,0,0-7.07-4.19l-2.21-1.16a3.13,3.13,0,0,1-.79-.47,3.73,3.73,0,0,1,.85.32c.54.23,1.32.58,2.27,1a48.28,48.28,0,0,1,7.17,4.11,25.23,25.23,0,0,1,6,5.9,15.52,15.52,0,0,1,1.36,2.23A3.61,3.61,0,0,1,261.68,329.35Z" transform="translate(-7 -6.7)"/><path class="cls-12" d="M303.15,331.6,290.3,361.1l-3.63,26.58a3.12,3.12,0,0,1-3.85,2.69h0a3.35,3.35,0,0,1-2.28-2c-2.62-6.44-12.17-30.18-11.11-32.28C270.65,353.65,281,324,281,324Z" transform="translate(-7 -6.7)"/><path class="cls-9" d="M282.82,390.37l-12.57-36.3-.52,1.26a5.26,5.26,0,0,0-.16,3.48c.93,3.09,3.66,11.57,10.88,29.51a3.36,3.36,0,0,0,2.37,2.05Z" transform="translate(-7 -6.7)"/><path class="cls-2" d="M281.54,374.24c.13.16,1.42-1.1,3.48-1.13s3.49,1.08,3.6.91-.22-.46-.85-.88a5,5,0,0,0-2.79-.75,4.74,4.74,0,0,0-2.69.92C281.7,373.76,281.48,374.18,281.54,374.24Z" transform="translate(-7 -6.7)"/><path class="cls-2" d="M282,379.2c.08.19,1.41-.34,3.08-.08s2.85,1.12,3,1-1-1.4-2.9-1.67S281.85,379.05,282,379.2Z" transform="translate(-7 -6.7)"/><path class="cls-2" d="M279.8,367.32c.08.2,2.11-.63,4.74-.46s4.62,1.19,4.71,1-1.87-1.56-4.69-1.71S279.7,367.17,279.8,367.32Z" transform="translate(-7 -6.7)"/><path class="cls-2" d="M283,358c0,.21,1.88.28,4,1.18s3.54,2.19,3.68,2-1.16-1.76-3.44-2.7S283,357.81,283,358Z" transform="translate(-7 -6.7)"/><path class="cls-2" d="M286.54,349.22c0,.22,2,0,4.18,1.12s3.26,2.91,3.42,2.8-.09-.57-.59-1.28a7.4,7.4,0,0,0-2.54-2.17,6.94,6.94,0,0,0-3.17-.77C287,349,286.52,349.14,286.54,349.22Z" transform="translate(-7 -6.7)"/><path class="cls-12" d="M274.88,301.89s25.47-41.15,32.65-44.88,13.46-2.15,19.07,2.08,8.78,8.07,6.54,18.68-16.65,50-20.1,56.21c-2.07,3.74-8.73,9.22-8.73,9.22l-2.94,9.08-28.6-8-9.53-41Z" transform="translate(-7 -6.7)"/><path class="cls-9" d="M272.78,305.19a5.68,5.68,0,0,1-.09,1.07c-.09.68-.21,1.66-.33,2.88a83,83,0,0,0-.41,9.58,81.52,81.52,0,0,0,.75,9.55c.17,1.21.32,2.19.43,2.87a6.19,6.19,0,0,1,.13,1.06,5,5,0,0,1-.29-1c-.16-.66-.35-1.64-.55-2.85a66.63,66.63,0,0,1-.87-9.59,64.89,64.89,0,0,1,.53-9.62c.16-1.22.32-2.21.45-2.88A4.56,4.56,0,0,1,272.78,305.19Z" transform="translate(-7 -6.7)"/><path class="cls-9" d="M326.42,287.78a2.45,2.45,0,0,1-.12.33l-.39.93c-.36.83-.89,2-1.56,3.58-1.35,3.13-3.31,7.68-5.7,13.4-4.77,11.44-11.23,27.58-17.83,46.37l-.06.18-.17-.05-16.76-4.94L271.68,344l-.2-.06.07-.22c6.41-20.26,12.75-37.88,18.1-50.11,2.66-6.13,5-10.94,6.72-14.17.83-1.64,1.56-2.85,2-3.69l.54-.95c.12-.21.19-.31.19-.31s-.05.12-.16.34l-.51,1c-.44.85-1.15,2.08-2,3.72-1.7,3.25-4,8.08-6.61,14.22-5.28,12.25-11.57,29.88-18,50.13l-.14-.28,12.14,3.58,16.76,4.94-.23.13c6.61-18.79,13.13-34.91,18-46.33,2.42-5.7,4.41-10.24,5.81-13.34.7-1.54,1.24-2.73,1.61-3.56.19-.39.33-.69.43-.91Z" transform="translate(-7 -6.7)"/><path class="cls-4" d="M267.41,150.24a4.81,4.81,0,0,0,2.71-.53,3.63,3.63,0,0,0,1.76-2.23,2.94,2.94,0,0,0-.69-2.77,3,3,0,0,0,2.05-3.4,2.73,2.73,0,0,0-3.19-2.15,9.8,9.8,0,0,0-1.47-4.92l-7,4.47Z" transform="translate(-7 -6.7)"/><path class="cls-4" d="M229.22,141a5.65,5.65,0,0,1-6.06-3.69,3.93,3.93,0,0,1-.19-2.39,2,2,0,0,1,1.61-1.52,4.93,4.93,0,0,1-2-3.16,4.05,4.05,0,0,1,1.1-3.59,2.78,2.78,0,0,1,3.41-.33,3.87,3.87,0,0,1,1.88-3.5l5.41,1.18Z" transform="translate(-7 -6.7)"/><path class="cls-6" d="M238.21,191.23l.22-6.82s-11.29-1.66-11.65-13.82c-.18-5.88.37-18,1-29,.67-11.8,9.59-21.08,20.52-21.31l1.08,0c11.72.48,17.88,11.52,17.11,24.18l-3,44-18.75,18.72Z" transform="translate(-7 -6.7)"/><path class="cls-10" d="M238.43,184.41a28.89,28.89,0,0,0,14.6-3.69s-3.26,7.65-14.51,6.79Z" transform="translate(-7 -6.7)"/><path class="cls-4" d="M233.1,154a1.68,1.68,0,0,0,1.59,1.72,1.58,1.58,0,0,0,1.62-1.6,1.67,1.67,0,0,0-1.58-1.72A1.59,1.59,0,0,0,233.1,154Z" transform="translate(-7 -6.7)"/><path class="cls-4" d="M230.29,147.5c.21.22,1.41-.78,3.13-.81s3,.88,3.2.64-.12-.51-.68-.93a4.17,4.17,0,0,0-2.56-.79,4,4,0,0,0-2.49.92C230.37,147,230.19,147.4,230.29,147.5Z" transform="translate(-7 -6.7)"/><path class="cls-4" d="M248.56,153.28a1.68,1.68,0,0,0,1.58,1.72,1.59,1.59,0,0,0,1.63-1.61,1.69,1.69,0,0,0-1.58-1.72A1.6,1.6,0,0,0,248.56,153.28Z" transform="translate(-7 -6.7)"/><path class="cls-4" d="M247.29,147.48c.21.23,1.41-.78,3.13-.81s3,.88,3.2.64-.12-.5-.68-.93a4.17,4.17,0,0,0-2.56-.79,4,4,0,0,0-2.49.93C247.37,147,247.19,147.38,247.29,147.48Z" transform="translate(-7 -6.7)"/><path class="cls-4" d="M241.27,161.49a10.66,10.66,0,0,0-2.81-.49c-.45,0-.87-.12-1-.45a2.64,2.64,0,0,1,.27-1.42c.4-1.16.81-2.38,1.24-3.66,1.72-5.22,2.95-9.51,2.76-9.58s-1.75,4.1-3.46,9.31c-.42,1.29-.81,2.52-1.19,3.69a3,3,0,0,0-.19,1.88,1.11,1.11,0,0,0,.74.68,2.67,2.67,0,0,0,.75.1A10.3,10.3,0,0,0,241.27,161.49Z" transform="translate(-7 -6.7)"/><path class="cls-4" d="M246.39,162.68c-.29,0-.25,2-1.83,3.49s-3.58,1.3-3.59,1.58c0,.13.45.38,1.3.39a4.47,4.47,0,0,0,3-1.2,4.56,4.56,0,0,0,1.42-2.93C246.73,163.16,246.51,162.66,246.39,162.68Z" transform="translate(-7 -6.7)"/><path class="cls-4" d="M246.71,140.16c.18.51,1.9.23,3.94.45s3.68.78,3.94.32c.12-.22-.18-.69-.85-1.17a6.2,6.2,0,0,0-2.94-1,6.1,6.1,0,0,0-3.06.45C247,139.51,246.63,139.92,246.71,140.16Z" transform="translate(-7 -6.7)"/><path class="cls-4" d="M230.83,142.07c.31.42,1.49,0,2.93-.1s2.65.23,2.92-.22c.11-.22-.08-.64-.62-1a4,4,0,0,0-4.71.26C230.85,141.43,230.69,141.87,230.83,142.07Z" transform="translate(-7 -6.7)"/><path class="cls-4" d="M228.74,136s2.83-7.69,6.19-9.54c4.08-2.24,5.94,2.61,9.84,1.34s7.78-3.43,11.85-.23c4.45,3.49,2.44,6.05,2.81,11.45,1.5,21.87,5.31,28,6.17,17.65.1-1.14,3-2.1,3.32-6.88.44-6.2.52-13.72-.83-18.09-1.15-3.68-3.15-6.2-6.7-8.94-5.6-4.34-13.19-4.27-18.33-3.6S228.1,126.46,228.74,136Z" transform="translate(-7 -6.7)"/><path class="cls-6" d="M264.88,156.34a3.16,3.16,0,0,1,3.24-3.25c2.1.17,4.46,1.41,4.41,6.1-.1,8.33-7.8,6.51-7.81,6.27S264.81,159.83,264.88,156.34Z" transform="translate(-7 -6.7)"/><path class="cls-10" d="M266.42,162.35s.14.1.36.22a1.27,1.27,0,0,0,1,0c.81-.31,1.51-1.7,1.57-3.2a5.28,5.28,0,0,0-.36-2.08,1.62,1.62,0,0,0-1-1.13.69.69,0,0,0-.8.39c-.1.23-.06.4-.1.41s-.16-.14-.1-.48a1,1,0,0,1,.31-.52,1,1,0,0,1,.75-.2,1.92,1.92,0,0,1,1.38,1.31,5.23,5.23,0,0,1,.44,2.32c-.07,1.68-.88,3.24-2,3.57a1.35,1.35,0,0,1-1.23-.23C266.44,162.55,266.4,162.36,266.42,162.35Z" transform="translate(-7 -6.7)"/><path class="cls-16" d="M239.24,134.23h-.19Z" transform="translate(-7 -6.7)"/><path class="cls-4" d="M224.9,120a6.62,6.62,0,0,1,4.48-4.24,11.31,11.31,0,0,1,6.13.18c-.18-3,2.9-5.3,5.7-5.18s5.27,1.9,7.58,3.61c3.41-2.24,8.47-.53,10.1,3.41a6.33,6.33,0,0,1,6.64.19,7.48,7.48,0,0,1,3.15,6.32,5.4,5.4,0,0,1,3.91,3.85,6,6,0,0,1-1.31,5.55,4.2,4.2,0,0,1,1.53,4.32,3.79,3.79,0,0,1-3.34,2.89l-5.53-5.4c-3.05.56-6.25-2.23-6.39-5.58a6.11,6.11,0,0,1-6.87-1.77,4.87,4.87,0,0,1-3.27,3.16,4.47,4.47,0,0,1-4.25-1.18,6,6,0,0,1-3.67,5,5.32,5.32,0,0,1-5.73-1.51,4.91,4.91,0,0,1-6.82-.49,6,6,0,0,1,0-7.4C225.06,124.79,224.25,122.14,224.9,120Z" transform="translate(-7 -6.7)"/><path class="cls-9" d="M257.93,131.32s0,.26.14.69a4.07,4.07,0,0,0,1.07,1.58,3.64,3.64,0,0,0,2.59,1,4,4,0,0,0,3.08-1.64l-.44,0a4.76,4.76,0,0,0,1.5,1.53,4.57,4.57,0,0,0,4.1.49,4.84,4.84,0,0,0,2.53-2.42,5.32,5.32,0,0,0,.54-2.38,2.13,2.13,0,0,0-.15-.88,7.24,7.24,0,0,1-.74,3.06,4.52,4.52,0,0,1-2.35,2.1,4.2,4.2,0,0,1-3.65-.49,4.59,4.59,0,0,1-1.33-1.34l-.21-.34-.23.32a3.59,3.59,0,0,1-2.67,1.49,3.39,3.39,0,0,1-2.35-.78A5.88,5.88,0,0,1,257.93,131.32Z" transform="translate(-7 -6.7)"/><path class="cls-14" d="M264.21,186.3c-2.4,0,22.33-1.56,24.85,2.14,3.69,5.43,10.94,82.25,9.72,83.14s-10.51,33.57-31.37,39.09S232,309.6,232,309.6c2.7-12.79-3.18-76.56-11.13-115.88l17.41-3.85C244.72,194.71,253.11,196,264.21,186.3Z" transform="translate(-7 -6.7)"/><path class="cls-15" d="M219.63,261.8A220.72,220.72,0,0,1,245,266.88c9.14,2.62,41.52,15.7,48,13.52s5.33-7.94,5.33-7.94L232.9,258.37Z" transform="translate(-7 -6.7)"/><path class="cls-6" d="M239.84,234c-1,1.95-.35,4.25,1.13,6.25a2.52,2.52,0,0,1,0,3.41s-7.16-1.34-10.39-2.92-9.55-5.65-11.82-5.35-3.26,2.05-.92,3.27,10.33,6.22,9.59,6.77c-.2.15-10.31-2.2-14.06-.73-1.2.47-2.31,3.33,1.18,3.82,3.07.43,11,1.76,11,1.76s-11.79,0-12,2.29c-.22,2.11,1.1,2.41,3.21,2.5s11.19,1.38,11.19,1.38-9,1.37-10.07,3.14c-.58,1,.45,2.45,2.55,2.16s22,1,22.72,1,15,2.77,15,2.77l.73-15.9L251,248s-5.13-9.67-7.15-11.67S240.81,232.07,239.84,234Z" transform="translate(-7 -6.7)"/><path class="cls-6" d="M251.09,248.24,246,262.69l32.8,10.75c13,4.2,19.33,4.45,24.4-2.3,2.47-3.3,1.46-12.83,1.72-24.46.25-10.77-.59-18.91-2-31.38-2.22-20-16.67-26.25-17.53-26.29-11-.53-8.48,12.91-8.48,12.91L282,249.76h0l.46,4.34-31.37-5.86" transform="translate(-7 -6.7)"/><path class="cls-14" d="M276.52,234.1,307.05,229s-6.64-45.78-25.39-42.12C271.7,188.79,276.52,234.1,276.52,234.1Z" transform="translate(-7 -6.7)"/><path class="cls-10" d="M299.22,256.88c0,.07-.93-.41-2.42-1a29.34,29.34,0,0,0-6-1.74,28.64,28.64,0,0,0-6.22-.39c-1.6.08-2.58.23-2.59.16a1.94,1.94,0,0,1,.68-.19,14.8,14.8,0,0,1,1.89-.27,24.18,24.18,0,0,1,6.31.25,25,25,0,0,1,6.06,1.89,19,19,0,0,1,1.72.9A2.75,2.75,0,0,1,299.22,256.88Z" transform="translate(-7 -6.7)"/><path class="cls-4" d="M284.54,188.79a14.57,14.57,0,0,0-1.4.77,9,9,0,0,0-2.79,3.45,27.5,27.5,0,0,0-2.08,6.52A65.26,65.26,0,0,0,277,207.9a70.2,70.2,0,0,0,.35,15.39c.27,2,.56,3.52.77,4.61.1.5.18.91.25,1.24a2.38,2.38,0,0,1,.06.45,1.6,1.6,0,0,1-.14-.42c-.09-.33-.19-.74-.32-1.23-.26-1.08-.6-2.64-.9-4.6a64.88,64.88,0,0,1-.47-15.48,62.4,62.4,0,0,1,1.32-8.43,26.73,26.73,0,0,1,2.19-6.57,8.65,8.65,0,0,1,3-3.44,4.29,4.29,0,0,1,.61-.34,3.08,3.08,0,0,1,.47-.19C284.4,188.81,284.54,188.77,284.54,188.79Z" transform="translate(-7 -6.7)"/><path class="cls-2" d="M282.87,158.44l1.92-7.45a25.82,25.82,0,0,1-4.37-12.56c-1.07-13.57,8.24-25.51,20.78-26.66s23.57,8.92,24.64,22.49-8.24,25.5-20.78,26.65a21.4,21.4,0,0,1-14.31-3.86h0Z" transform="translate(-7 -6.7)"/><path class="cls-4" d="M282.87,158.44l.52-.11,1.52-.28,5.84-1.07,0,.13h0a.09.09,0,0,1,0-.11.05.05,0,0,1,.08,0A21.31,21.31,0,0,0,305,160.8a23.8,23.8,0,0,0,3.7-.7,21.88,21.88,0,0,0,7.42-3.67,24,24,0,0,0,6.17-7,26,26,0,0,0-3.33-30.58,22.15,22.15,0,0,0-9.4-6,21.19,21.19,0,0,0-19.45,3.48,24.2,24.2,0,0,0-6.22,7.17,25.76,25.76,0,0,0-3,8.32l-.16,1a7.06,7.06,0,0,0-.12,1c0,.68-.08,1.35-.13,2,.05,1.32,0,2.6.21,3.82a25.69,25.69,0,0,0,4.19,11.2.17.17,0,0,1,0,.07c-.64,2.4-1.13,4.24-1.47,5.5l-.38,1.43-.14.5s0-.16.11-.47.2-.8.35-1.42l1.4-5.58V151a25.44,25.44,0,0,1-4.28-11.26,33.9,33.9,0,0,1-.23-3.85l.12-2a7.34,7.34,0,0,1,.11-1c.06-.34.11-.69.16-1a26.12,26.12,0,0,1,3-8.43,24.4,24.4,0,0,1,6.28-7.28,21.46,21.46,0,0,1,19.71-3.55,22.53,22.53,0,0,1,9.54,6,11.16,11.16,0,0,1,1,1.09l.91,1.12.82,1.2a12,12,0,0,1,.76,1.23l.69,1.27c.24.42.4.88.6,1.32s.4.88.55,1.33l.45,1.37a26.37,26.37,0,0,1,1,11.15,26.09,26.09,0,0,1-3.36,9.92,23.85,23.85,0,0,1-6.26,7.08,21.87,21.87,0,0,1-7.51,3.69A24.4,24.4,0,0,1,305,161a21.06,21.06,0,0,1-3.55,0,21.59,21.59,0,0,1-10.71-3.94l.09-.12h0a.09.09,0,0,1,0,.11l0,0-5.9,1-1.5.24Z" transform="translate(-7 -6.7)"/><polygon class="cls-5" points="285.14 130.31 288.28 126.91 294.34 132.74 306.25 120.34 309.17 123.75 293.89 139.3 285.14 130.31"/></svg>