<svg xmlns="http://www.w3.org/2000/svg" xmlns:xlink="http://www.w3.org/1999/xlink" width="630" height="480" viewBox="0 0 630 480">
    <defs>
        <path id="prefix__a" d="M0.581 0.482L565.079 0.482 565.079 399.834 0.581 399.834z"/>
        <path id="prefix__c" d="M89.64 24.215c.39 10.15-1.511 16.937-2.789 20.281L59.783 70.957C74.581 48.533 81.259 15.1 70.773 7.773 60.323.471 57.707 23.239 58.522 44.398c.617 15.989-2.353 26.726-4.38 32.072l-32.459 31.731c14.209-22.395 20.938-55.595 10.151-61.89-8.315-4.855-12.244 9.475-11.425 33.349.555 16.225-2.864 28.551-5.114 34.784L.006 129.39c.615 1.356 1.459 2.363 2.489 2.979l6.084-5.947c5.182-1.632 15.284-3.665 29.749-1.414 19.377 3.014 40.581 2.499 34.92-9.486-5.649-11.962-36.77-8.255-58.867 5.229l26.758-26.155c5.629-1.425 14.852-2.665 27.313-.726 19.376 3.013 40.58 2.498 34.92-9.487-5.304-11.23-33.059-8.649-54.719 2.867l34.361-33.589c3.581-.671 8.702-1.043 15.24-.025 12.212 1.899 25.575 1.574 22.008-5.979-3.096-6.554-18.325-5.645-31.402.289l11.138-10.887c3.966-2.744 9.621-6.674 16.671-9.172 16.336-5.792 30.873-14.505 23.809-21.017-7.07-6.52-31.833 8.978-44.393 28.599l-5.731 5.603C99.736 26.94 103.987 5.764 97.36 1.131c-.858-.599-1.633-.877-2.33-.877-4.649-.002-5.837 12.363-5.39 23.961"/>
        <path id="prefix__f" d="M0 0.962L569.334 0.962 569.334 22 0 22z"/>
        <path id="prefix__h" d="M.224 60.996s6.096 37.291 21.684 67.773c-3.159 5.198-8.351 18.125-8.745 21.84-1.771 16.662 7.372 58.192 9.032 77.764.201 2.364 15.324 2.846 16.538-1.163-1.326-22.877 9.617-78.626 11.192-91.294 3.702-29.765-8.837-116.873-8.837-116.873L28.522.207.224 60.996z"/>
        <path id="prefix__j" d="M.224 60.996s6.096 37.291 21.684 67.773c-3.159 5.198-8.351 18.125-8.745 21.84-1.771 16.662 7.372 58.192 9.032 77.764.201 2.364 15.324 2.846 16.538-1.163-1.326-22.877 9.617-78.626 11.192-91.294 3.702-29.765-8.837-116.873-8.837-116.873L28.522.207.224 60.996z"/>
        <path id="prefix__l" d="M.224 60.996s6.096 37.291 21.684 67.773c-3.159 5.198-8.351 18.125-8.745 21.84-1.771 16.662 7.372 58.192 9.032 77.764.201 2.364 15.324 2.846 16.538-1.163-1.326-22.877 9.617-78.626 11.192-91.294 3.702-29.765-8.837-116.873-8.837-116.873L28.522.207"/>
        <path id="prefix__n" d="M.224 60.996s6.096 37.291 21.684 67.773c-3.159 5.198-8.351 18.125-8.745 21.84-1.771 16.662 7.372 58.192 9.032 77.764.201 2.364 15.324 2.846 16.538-1.163-1.326-22.877 9.617-78.626 11.192-91.294 3.702-29.765-8.837-116.873-8.837-116.873L28.522.207"/>
        <path id="prefix__p" d="M.224 60.996s6.096 37.291 21.684 67.773c-3.159 5.198-8.351 18.125-8.745 21.84-1.771 16.662 7.372 58.192 9.032 77.764.201 2.364 15.324 2.846 16.538-1.163-1.326-22.877 9.617-78.626 11.192-91.294 3.702-29.765-8.837-116.873-8.837-116.873L28.522.207"/>
        <path id="prefix__r" d="M.224 60.996s6.096 37.291 21.684 67.773c-3.159 5.198-8.351 18.125-8.745 21.84-1.771 16.662 7.372 58.192 9.032 77.764.201 2.364 15.324 2.846 16.538-1.163-1.326-22.877 9.617-78.626 11.192-91.294 3.702-29.765-8.837-116.873-8.837-116.873L28.522.207"/>
        <linearGradient id="prefix__d" x1="-29.605%" x2="95.852%" y1="101.707%" y2="17.019%">
            <stop offset="0%" stop-color="#FFB218"/>
            <stop offset="100%" stop-color="#FFCF44"/>
        </linearGradient>
    </defs>
    <g fill="none" fill-rule="evenodd">
        <g transform="translate(24 70) translate(17 .518)">
            <mask id="prefix__b" fill="#fff">
                <use xlink:href="#prefix__a"/>
            </mask>
            <path fill="#FFF4DD" d="M339.968 68.133C297.47 38.701 252.083 18.68 205.74 8.551 181.942 3.35 157.886.757 133.834.838c-10.455.036-21.56-1.043-31.835.387-10.834 1.506-21.2 9.72-31.376 14.88-12.552 6.364-24.908 14.177-35.98 25.173C17.053 58.75 2.6 86.063.747 117.493c-1.852 31.43 12.049 65.507 32.885 70.686 3.92.976 8.364 1.256 11.047 5.636 4.53 7.4-.063 19.88-6.146 24.12-6.083 4.24-13.225 4.088-19.286 8.398-12.378 8.81-16.048 34.335-10.872 53.302 5.177 18.966 16.776 32.252 28.664 42.459 56.45 48.466 125.476 45.99 190.537 42.144 3.117-.183 6.456-.483 8.928-3.327 2.47-2.844 3.303-9.238.79-11.998 99.148-.333 196.46 68.089 294.58 46.822 12.875-2.79 27.62-9.62 32.008-27.913 4.053-16.892-2.887-35.012-10.322-49.11-45.776-86.807-118.12-131.518-188.773-164.272-6.205-2.875-12.652-5.88-17.415-12.478-4.763-6.599-7.267-17.94-3.901-26.238 2.787-6.868 8.784-10.073 10.946-17.425 3.709-12.61-6.083-24.37-14.45-30.166" mask="url(#prefix__b)"/>
            <path fill="#619440" d="M527.303 188.406c-.434-11.97 7.599-23.508 4.914-35.31-1.721-7.564-8.012-12.052-15.162-9.628-9.062 3.075-12.79 12.55-15.966 21.259-2.258 6.192-4.721 11.797-9.445 16.299-4.055 3.863-8.838 6.693-13.195 10.114-7.664 6.018-11.871 13.434-14.125 23.263-2.501 10.9-2.822 23.828-11.531 31.595-7.111 6.342-17.836 8.416-22.014 18.202-4.554 10.664 2.565 26.8-8.008 34.109-4.467 3.088-9.427 4.328-13.457 8.28-3.117 3.058-5.566 6.859-7.271 10.994-3.693 8.955-3.748 19.254.53 27.785.185.367.45.599.744.729 3.21 9.004 7.114 18.25 14.437 24.054 6.483 5.137 15.299 7.198 22.747 2.772 12.675-7.535 14.286-26.01 23.367-36.958 3.234-3.9 7.115-5.977 11.95-6.312 5.292-.366 10.544 1.273 15.763-.518 7.632-2.621 11.79-10.49 13.742-18.375 2.957-11.953.032-25.144 5.285-36.532 4.708-10.207 14.97-15.71 20.06-25.676 9.752-19.097-2.657-40.596-3.365-60.146"/>
            <path fill="#496B32" d="M514.227 167.573c-1.86 14.378-8.568 27.516-14.747 40.43-6.096 12.74-12.213 25.47-18.52 38.106-12.512 25.062-25.782 49.803-41.109 73.272-8.55 13.092-17.745 25.768-27.758 37.784-1.023 1.227.736 3.006 1.768 1.767 18.023-21.63 33.4-45.31 47.222-69.801 14.018-24.836 26.49-50.502 38.806-76.211 6.955-14.521 14.744-29.168 16.838-45.347.206-1.591-2.296-1.576-2.5 0"/>
            <path fill="#496B32" d="M432.692 333.007c.046-13.555-.154-27.111-.601-40.66-.053-1.606-2.553-1.611-2.5 0 .447 13.549.647 27.105.6 40.66-.004 1.61 2.496 1.611 2.5 0M447.042 313.507c3.749-1.337 7.684-1.313 11.612-1.387 4.2-.079 8.399-.322 12.58-.735 4.14-.407 8.268-.971 12.366-1.693 3.842-.68 7.626-1.572 11.11-3.38 1.43-.74.167-2.899-1.26-2.159-3.501 1.816-7.378 2.59-11.234 3.251-4.12.707-8.268 1.248-12.432 1.618-4 .356-8.01.548-12.023.613-3.843.063-7.724.156-11.384 1.462-1.504.537-.856 2.953.665 2.41M466.11 279.704c1.374-4.291 1.243-8.804 1.181-13.255-.067-4.776-.045-9.555.067-14.331.223-9.561.81-19.112 1.738-28.631.156-1.6-2.345-1.59-2.5 0-.913 9.355-1.495 18.74-1.726 28.137-.114 4.61-.144 9.225-.092 13.838.052 4.554.33 9.18-1.08 13.578-.49 1.535 1.921 2.193 2.411.664M482.515 247.785c13.595-1.315 26.802-5.126 39.059-11.143 1.444-.708.178-2.865-1.262-2.158-11.835 5.81-24.668 9.53-37.797 10.8-1.587.154-1.603 2.655 0 2.5M501.107 209.836c-2.415-8.523-3.16-17.397-2.295-26.211.157-1.601-2.344-1.59-2.5 0-.885 9.019-.086 18.155 2.384 26.876.438 1.545 2.851.889 2.411-.665"/>
            <path fill="#306B34" d="M478.858 239.662c-10.563-7.066-35.906 13.206-48.775 36.83l10.947-36.965c4.228-4.308 11.67-10.437 23.433-15.642 18.29-8.096 36.504-20.201 25.92-27.28-9.917-6.632-32.86 10.83-46.28 32.54l14.06-47.47c2.799-2.54 7.082-5.674 13.254-8.406 11.526-5.102 23.005-12.73 16.336-17.191-5.788-3.872-18.616 5.279-27.198 17.52l4.556-15.386c2.158-4.516 5.226-10.97 10.184-16.973 11.487-13.912 20.029-29.32 10.806-30.973-9.231-1.656-23.472 25.149-25.145 48.746l-2.345 7.918c1.497-17.18-4.797-37.531-12.752-37.824-7.904-.291-2.567 12.82 4.173 23.879 5.13 8.418 6.68 15.237 7.146 18.784l-11.075 37.396c2.299-27.211-7.667-59.321-20.254-59.785-12.542-.462-4.074 20.343 6.622 37.889 8.083 13.26 10.565 24.026 11.324 29.689l-13.28 44.844c1.8-26.864-8.011-58.803-20.372-58.225-9.53.446-6.187 14.797 5.793 34.65 8.142 13.496 10.98 25.86 11.965 32.399l-6.255 21.122c1.176.814 2.385 1.207 3.573 1.165l2.49-8.405c3.739-4.24 11.575-11.526 25.228-17.568 18.29-8.096 36.504-20.2 25.92-27.278"/>
        </g>
        <g transform="translate(24 70) translate(436 263.518)">
            <mask id="prefix__e" fill="#fff">
                <use xlink:href="#prefix__c"/>
            </mask>
            <path fill="url(#prefix__d)" d="M89.64 24.215c.39 10.15-1.511 16.937-2.789 20.281L59.783 70.957C74.581 48.533 81.259 15.1 70.773 7.773 60.323.471 57.707 23.239 58.522 44.398c.617 15.989-2.353 26.726-4.38 32.072l-32.459 31.731c14.209-22.395 20.938-55.595 10.151-61.89-8.315-4.855-12.244 9.475-11.425 33.349.555 16.225-2.864 28.551-5.114 34.784L.006 129.39c.615 1.356 1.459 2.363 2.489 2.979l6.084-5.947c5.182-1.632 15.284-3.665 29.749-1.414 19.377 3.014 40.581 2.499 34.92-9.486-5.649-11.962-36.77-8.255-58.867 5.229l26.758-26.155c5.629-1.425 14.852-2.665 27.313-.726 19.376 3.013 40.58 2.498 34.92-9.487-5.304-11.23-33.059-8.649-54.719 2.867l34.361-33.589c3.581-.671 8.702-1.043 15.24-.025 12.212 1.899 25.575 1.574 22.008-5.979-3.096-6.554-18.325-5.645-31.402.289l11.138-10.887c3.966-2.744 9.621-6.674 16.671-9.172 16.336-5.792 30.873-14.505 23.809-21.017-7.07-6.52-31.833 8.978-44.393 28.599l-5.731 5.603C99.736 26.94 103.987 5.764 97.36 1.131c-.858-.599-1.633-.877-2.33-.877-4.649-.002-5.837 12.363-5.39 23.961" mask="url(#prefix__e)"/>
        </g>
        <g>
            <g transform="translate(24 70) translate(0 20.518) translate(0 366)">
                <mask id="prefix__g" fill="#fff">
                    <use xlink:href="#prefix__f"/>
                </mask>
                <path fill="#F7E8C8" d="M569.334 11.481c0 5.81-127.45 10.52-284.667 10.52C127.45 22 0 17.29 0 11.48 0 5.672 127.45.962 284.667.962c157.217 0 284.667 4.71 284.667 10.52" mask="url(#prefix__g)"/>
            </g>
            <path fill="#A29C8F" d="M363.312 202.955l-3.582 172.733c-.051 2.486-1.818 4.452-3.946 4.392-2.061-.06-3.706-2.01-3.76-4.392l-3.581-172.733c-.1-4.796 3.148-8.778 7.255-8.895 4.106-.116 7.515 3.678 7.614 8.474.003.13.002.29 0 .42M297.857 202.955l-3.582 172.733c-.052 2.486-1.818 4.452-3.946 4.392-2.062-.06-3.706-2.01-3.76-4.392l-3.58-172.733c-.1-4.796 3.147-8.778 7.253-8.895 4.106-.116 7.515 3.678 7.615 8.474.002.13.002.29 0 .42" transform="translate(24 70) translate(0 20.518)"/>
            <path fill="#57575E" d="M277.656 201.674h91.75c1.65 0 2.988-1.337 2.988-2.987v-4.93c0-1.649-1.337-2.986-2.988-2.986h-91.75c-1.651 0-2.988 1.339-2.988 2.989v4.928c0 1.649 1.337 2.987 2.988 2.987M201.383 189.047h107.53c1.248 0 2.261-1.012 2.261-2.261v-.93c0-1.248-1.013-2.26-2.262-2.26H201.383c-1.25 0-2.262 1.012-2.262 2.262v.927c0 1.249 1.012 2.262 2.262 2.262" transform="translate(24 70) translate(0 20.518)"/>
            <path fill="#F7F5F0" d="M237.993 181.015L260.313 132.09 332.357 132.09 310.037 181.015z" transform="translate(24 70) translate(0 20.518)"/>
            <path fill="#A29C8F" d="M333.689 131.234h-73.926l-23.101 50.637h73.925l23.102-50.637zm-2.663 1.713l-21.54 47.211h-70.161l21.539-47.211h70.162z" transform="translate(24 70) translate(0 20.518)"/>
            <path fill="#19275A" d="M440.255 109.5c-.165 0-.332-.05-.476-.151-.37-.264-.454-.777-.191-1.145 13.685-19.17 19.126-36.94 14.555-47.54-2.211-5.128-6.628-8.18-13.13-9.072-.448-.062-.762-.476-.701-.925.063-.448.478-.76.925-.701 7.009.963 11.993 4.437 14.413 10.048 4.8 11.132-.705 29.503-14.727 49.143-.16.225-.412.344-.668.344M418.102 109.5c-.373 0-.71-.255-.798-.633-5.727-24.517-1.802-42.231 3.781-50.633 2.617-3.937 5.784-6.321 9.158-6.894.453-.076.87.225.945.67.076.448-.224.87-.67.947-2.918.495-5.706 2.635-8.066 6.185-5.393 8.116-9.158 25.343-3.55 49.352.103.442-.172.883-.613.986-.062.014-.125.02-.187.02" transform="translate(24 70) translate(0 20.518)"/>
            <path fill="#FFB68E" d="M397.489 83.24c-2.498 2.092-5.6 51.28-10.83 63.026-2.25 5.057-14.018 22.669-18.3 26.324-1.61 1.374 4.838 6.412 6.622 5.274 5.72-3.647 25.3-5.347 31.666-22.847 11.41-31.367 4.489-83.202-9.158-71.776" transform="translate(24 70) translate(0 20.518)"/>
            <path fill="#A29C8F" d="M421.191 374.068c1.581-.256 1.361 3.591.786 3.896-3.856 2.043-13.345 2.313-20.81 2.845-8.722.62-15.756.866-18.437-1.156-1.41-1.064-1.563-3.488 1.554-4.993 1.434-.693 21.214-1.916 21.666-1.797.451.118 15.241 1.205 15.241 1.205" transform="translate(24 70) translate(0 20.518)"/>
            <path fill="#FFB68E" d="M406.898 346.47c1.732 6.42-.054 14.77-1.07 16.903-.4.842-3.582 7.063-1.245 9.547 3.588 3.818 12.596 4.334 14.904-4.667-2.36-9.569-1.168-18.149-1.168-20.996 0-2.848-12.215-3.732-11.421-.787" transform="translate(24 70) translate(0 20.518)"/>
            <path fill="#7F786A" d="M421.132 374.505c-.625 2.204-32.292 5.774-36.837 2.829-2.413-1.565-.267-3.353 2.463-4.502 3.18-1.332 11.155-7.06 14.11-8.375 2.431-1.073 4.2-5.853 5.154-4.993.891.801 1.81 5.637 1.393 7.541-.408 1.865-.125 3.486.705 3.738 4.655 1.416 9.533-6.438 10.79-6.065 1.624.483 2.863 7.587 2.222 9.827M399.396 190.165s4.909 140.967 7.056 161.71c.388 3.752 12.15 3.777 13.035.109 3.444-14.277 21.372-43.367 21.037-56.932-.15-6.045-8.878-22.436-9.313-29.335-.623-9.84 23.843-53.96 13.78-95.338-2.72-11.192-45.595 19.786-45.595 19.786" transform="translate(24 70) translate(0 20.518)"/>
            <path fill="#FFB68E" d="M475.45 345.604c2.916 7.6.938 18.487.063 20.66-.433 1.075-4.301 13.248 6.488 9.901 7.019-2.178 6.744-7.514 6.44-8.32-2.788-7.405.12-19.01.12-21.62 0-2.896-14.186-3.423-13.111-.62" transform="translate(24 70) translate(0 20.518)"/>
            <path fill="#A29C8F" d="M491.256 376.074c1.369-.308.869 4.478.497 4.974-.373.495-7.735 2.138-15.622 1.937-7.141-.182-11.675-.565-12.252-1.89-.295-.675.159-3.776 1.545-4.66 1.224-.778 13.014-1.51 13.412-1.403.398.107 12.42 1.042 12.42 1.042" transform="translate(24 70) translate(0 20.518)"/>
            <path fill="#7F786A" d="M477.427 362.678c-1.563.054-3.829 3.531-5.083 7.187-1.461 1.544-4.124 2.101-5.513 4.162-.967 1.434-2.185 3.957-1.662 4.638 1.82 2.377 25.017 1.977 25.849-.164 1.082-2.786-1.184-5.335-1.51-8.077-.3-2.515.007-3.77-.881-5.1-.274-.41-.964-.163-.939.628.054 1.736.319 4.803-2.187 5.157-2.163-6.379-5.504-8.52-8.074-8.43" transform="translate(24 70) translate(0 20.518)"/>
            <path fill="#A29C8F" d="M437.993 185.953s32.17 151.135 37.365 171.33c.94 3.654 12.88 1.665 13.203-2.13 1.25-14.632 10.668-52.721 8.328-66.087-1.043-5.956-8.669-14.001-11.152-22.625-2.727-9.474 11.848-56.19-4.23-95.621-4.348-10.665-43.514 15.133-43.514 15.133" transform="translate(24 70) translate(0 20.518)"/>
            <path fill="#004E75" d="M405.252 178.548c.547 4.375-2.884 10.719-5.333 11.349 0 4.08 3.962 10.8 6.058 16.267 2.276 5.937 10.965-11.62 10.965-11.62l-11.69-15.996z" transform="translate(24 70) translate(0 20.518)"/>
            <path fill="#F5EFE4" d="M436.187 55.999c-13.672 1.423-33.73 12.464-38.698 27.242-2.804 8.338.556 169.539 2.43 173.33 3.29 6.657 82.476 3.837 89.294-2.82 1.95-1.903 4.349-172.212-11.666-183.252-5.472-3.772-29.425-15.742-41.36-14.5" transform="translate(24 70) translate(0 20.518)"/>
            <path fill="#FFB68E" d="M435.81 67.534c-7.38-.156-10.446-7.044-10.216-8.045 1.63-7.183.697-22.595.697-22.595s25.648-9.554 24.462-4.484c-2.32 9.948-.615 18.45 1.008 23.72 1.046 3.388-8.975 11.552-15.95 11.404" transform="translate(24 70) translate(0 20.518)"/>
            <path fill="#E7E1D3" d="M425.735 256.436c-.316-.005-.562-.258-.556-.565.024-1.403 2.391-140.46.743-158.546-.028-.306.198-.576.503-.605.305-.02.577.198.604.504 1.653 18.144-.714 157.263-.738 158.666-.005.304-.253.546-.556.546" transform="translate(24 70) translate(0 20.518)"/>
            <path fill="#FFB68E" d="M483.712 78.419s-11.583 29.5-11.583 37.113c0 7.614 7.128 21.23 5.336 29.116-1.112 4.896-27.082 9.669-35.607 11.13-6.459-4.538-10.387-1.832-12.65-3.183-.386-.23-.61 1.603.194 2.423 1.06 1.079 3.257 1.419 3.257 1.969 0 .968-16.045-1.97-16.977.366-.653 1.632 7.801 2.502 8.097 3.336.487 1.363-8.22.262-8.648 1.992-.332 1.347 3.052 5.716 6.651 7.238 4.494 1.9 13.694 1.268 16.148.348 5.411-2.031 7.008-3.533 7.008-3.533 10.523 1.029 48.925 2.724 52.974-10.858 2.718-9.116-2.546-58.806-14.2-77.457" transform="translate(24 70) translate(0 20.518)"/>
            <path fill="#57575E" d="M416.87 29.05c-6.848-13.021.903-12.27 1.452-15.444 2.965-17.172 28.648-13.704 32.71-8.03 2.726 3.81 7.268 9.843 6.577 14.454-.509 3.396-1.356 15.25-5.548 17.823-9.462 5.805-23.643 9.79-29.644 7.566-1.932-.715-3.32-12.138-5.547-16.37" transform="translate(24 70) translate(0 20.518)"/>
            <path fill="#FFB68E" d="M421.945 14.73c-2.802 3.308-3.87 11.973-3.027 17.77.437 3.006 1.775 5.972 2.616 8.781 2.195 7.325 5.284 13.034 10.82 12.477 16.035-1.61 17.256-22.424 17.656-21.31 1.67 4.354 5.642-2.965 5.468-6.448-.118-2.393-3.89-3.317-4.725 1.814-4.678 3.06-3.254-11.1-8.385-12.51-2.36-.649-5.935 2.33-11.988 2.33-6.659 0-7.482-4.028-8.435-2.904" transform="translate(24 70) translate(0 20.518)"/>
            <path fill="#57575E" d="M432.128 34.19c1.213.37 9.893.162 11.078-.09.59-.46 1.139-5.073.97-6.298-1.667-.438-10.995-.859-12.602.092-.516.742.027 5.501.554 6.296m3.96 1.447c-2.238 0-4.226-.102-4.68-.415-.96-.662-1.306-4.524-1.282-5.949.023-1.35.253-2.094.748-2.41 1.739-1.115 13.526-1.009 14.33.13.545.77.057 5.358-.615 7.072-.292.745-.66 1.154-1.124 1.254-.526.111-4.203.318-7.376.318M417.596 34.483c1.156.23 8.086.145 9.17-.207.374-.97-.007-5.822-.525-6.458-1.183-.89-8.346-.52-9.731-.063-.115 1.175.488 6.047 1.086 6.728m3.916 1.241c-2.072 0-3.95-.087-4.264-.17-.45-.118-.695-.59-.84-.936-.697-1.657-1.296-6.78-.877-7.509.15-.265.447-.4 1.174-.542 2.017-.39 8.668-.865 10.244.381.98.773 1.068 5.118 1.07 5.303.044 2.421-.325 2.735-.502 2.885-.53.452-3.42.588-6.005.588" transform="translate(24 70) translate(0 20.518)"/>
            <path fill="#E7E1D3" d="M502.087 127.104c0-23.996-15.196-54.555-24.54-56.605-9.397-2.063-14.63 60.841-9.913 61.937 4.717 1.095 34.453-5.332 34.453-5.332" transform="translate(24 70) translate(0 20.518)"/>
            <path fill="#F5EFE4" d="M403.969 72.55c-8.832 4.308-19.59 42.044-17.46 50.862 9.372 3.075 15.666 3.692 15.666 3.692l1.794-54.555z" transform="translate(24 70) translate(0 20.518)"/>
            <path fill="#E7E1D3" d="M397.52 123.722c-.295 0-.542-.233-.555-.53-.469-10.32-.005-27.02 0-27.188.01-.306.242-.538.571-.54.307.01.55.265.54.571-.004.167-.468 16.827 0 27.105.014.308-.223.567-.53.581l-.026.001M467.634 132.992c-.244 0-.467-.161-.536-.407-.271-.976-6.598-24.056-2.84-36.723.089-.294.397-.463.692-.375.295.087.463.398.375.692-3.668 12.36 2.779 35.873 2.845 36.108.082.297-.092.602-.387.685-.05.013-.1.02-.15.02" transform="translate(24 70) translate(0 20.518)"/>
            <path fill="#A29C8F" d="M457.548 97.366c-2.666 0-18.799-.205-19.14 0-.343.205-.275 5.742-.275 5.742h18.868l.547-5.742zM444.115 111.107c0-3.738-3.03-6.769-6.768-6.769s-6.768 3.031-6.768 6.77c0 3.736 3.03 6.767 6.768 6.767s6.768-3.03 6.768-6.768" transform="translate(24 70) translate(0 20.518)"/>
            <path fill="#57575E" d="M440.255 109.5c-.165 0-.332-.05-.476-.151-.37-.264-.454-.777-.191-1.145 15.208-21.3 20.158-41.25 12.613-50.824-.28-.357-.22-.872.136-1.152.357-.281.873-.22 1.152.136 8.132 10.318 3.317 30.547-12.566 52.793-.16.225-.412.344-.668.344M418.102 109.5c-.373 0-.71-.255-.798-.633-6.128-26.235-1.46-44.19 4.952-52.244.282-.353.798-.413 1.153-.13.354.28.413.798.13 1.153-5.89 7.399-10.639 25.156-4.638 50.848.104.442-.17.883-.612.986-.062.014-.125.02-.187.02" transform="translate(24 70) translate(0 20.518)"/>
            <path fill="#F7F5F0" d="M413.348 122.431c-.444-.035-.729-.373-.696-.758.273-3.206 2.878-6.174 6.337-7.216 3.87-1.168 7.877.28 10.722 3.867.24.302.19.742-.113.981-.303.24-.742.188-.98-.113-2.515-3.17-5.88-4.407-9.226-3.398-2.923.882-5.123 3.348-5.349 5.998-.03.365-.336.64-.695.64" transform="translate(24 70) translate(0 20.518)"/>
            <path fill="#57575E" d="M420.837 137.973c-.157 0-.315-.06-.435-.18-3.587-3.587-9.448-15.942-8.038-23.418.495-2.626 1.814-4.424 3.92-5.345 2.966-1.299 5.751-1.172 8.053.364 4.434 2.96 6.861 10.913 6.658 21.823-.006.335-.28.604-.615.604-.352-.007-.62-.287-.615-.627.195-10.482-2.032-18.054-6.112-20.776-1.964-1.31-4.278-1.399-6.876-.26-1.71.747-2.788 2.244-3.203 4.446-1.34 7.106 4.27 18.89 7.7 22.32.238.24.238.63 0 .87-.122.12-.279.18-.437.18M436.765 107.706c-1.875 0-3.402 1.525-3.402 3.4 0 1.876 1.527 3.402 3.402 3.402 1.875 0 3.4-1.526 3.4-3.402 0-1.875-1.525-3.4-3.4-3.4m0 8.032c-2.554 0-4.632-2.077-4.632-4.632 0-2.553 2.078-4.63 4.632-4.63s4.63 2.077 4.63 4.63c0 2.555-2.076 4.632-4.63 4.632" transform="translate(24 70) translate(0 20.518)"/>
            <path fill="#A29C8F" d="M430.38 130.59c2.011-.308 1.874 4.58.2 4.512-1.676-.069-1.768-4.273-.2-4.513M419.53 135.822c1.467-1.41 4.17 2.666 2.76 3.575-1.408.908-3.904-2.476-2.76-3.575" transform="translate(24 70) translate(0 20.518)"/>
            <path fill="#57575E" d="M430.81 134.615c.05-.256-.636-.31-.692 0-.057.31.64.257.692 0M422.324 138.88c-.07-.251-.707.013-.617.314.091.302.688-.063.617-.314" transform="translate(24 70) translate(0 20.518)"/>
            <path fill="#A29C8F" d="M417.248 105.432c1.333-.239 1.133 1.23 2.085 1.914.678.487 3.504-.068 3.081 1.695-.332 1.383-2.183.364-4.02.834-1.864.48-3.159 2.14-3.785 1.36-1.087-1.36 1.331-2.136 1.845-3.11.512-.972-.585-2.445.794-2.693" transform="translate(24 70) translate(0 20.518)"/>
            <path fill="#57575E" d="M421.349 44.616c.494 1.73-1.604 7.112.03 8.772 1.996 2.024 5.747 3.484 10.414 3.484 10.97 0 18.107-4.812 17.91-19.731-.048-3.642.807-7.97 1.05-9.327.88-4.911-3.208-3.346-3.121-1.596.33 6.698.392 15.052-2.253 17.163-3.402 2.713-10.635-3.273-15.814-3.336-6.542-.08-8.53 3.476-8.216 4.57" transform="translate(24 70) translate(0 20.518)"/>
            <path fill="#F7F5F0" d="M453.718 61.824c-1.205 3.494-23.017 33.26-26.256 31.393-2.224-1.29-3.114-29.791-2.886-31.12.145-.84.394-1.551 1.018-2.608 5.323 5.967 20.192 1.964 26.167-3.358 1.169 3.396 2.317 4.649 1.957 5.693" transform="translate(24 70) translate(0 20.518)"/>
            <path fill="#FFB68E" d="M369.024 172.263c-.662.971-8.983-.59-12.957 2.684-1.585 1.305-7.329 8.836-7.49 11.32-.163 2.484 6.657-2.296 8.131-2.81 1.474-.516 10.294-2.815 9.84-.992-.455 1.823-6.758 2.737-5.535 6.004.181.485 2.081-.185 4.302-.587 1.322-.239 2.887-.042 4.294-.637 3.023-1.277 5.587-7.864 5.372-9.38-.217-1.518 4.52-7.087 3.33-11.762-1.19-4.674-7.955 4.207-9.287 6.16" transform="translate(24 70) translate(0 20.518)"/>
            <path fill="#002744" d="M99.551 370.47c-1.629-.264-1.403 3.703-.81 4.018 3.976 2.107 13.76 2.385 21.456 2.933 8.993.64 18.24.16 19.011-1.19.68-1.194 1.612-3.598-1.603-5.15-1.478-.714-21.873-1.975-22.339-1.853-.465.122-15.715 1.242-15.715 1.242" transform="translate(24 70) translate(0 20.518)"/>
            <path fill="#FFB68E" d="M109.57 342.284c.334 5.933 3.652 17.135 4.7 19.337.413.868 4.816 5.87 2.406 8.432-3.7 3.935-12.987 4.467-15.367-4.812 2.432-9.868-4.226-18.61-4.226-21.546 0-2.935 12.312-4.553 12.488-1.411M47.527 345.884c-2.82 7.35-1.833 14.784-.987 16.883.42 1.041 4.159 12.812-6.274 9.575-6.787-2.106-6.672-3.688-6.376-5.323 1.54-8.519.957-17.736.957-20.534 0-2.8 13.72-3.31 12.68-.601" transform="translate(24 70) translate(0 20.518)"/>
            <path fill="#002744" d="M31.316 371.537c-1.323-.297-.84 4.33-.48 4.81.36.479 7.48 2.069 15.106 1.874 6.905-.177 11.29-.547 11.848-1.828.285-.654-.153-3.652-1.495-4.505-1.183-.753-12.584-1.461-12.969-1.358-.384.104-12.01 1.007-12.01 1.007" transform="translate(24 70) translate(0 20.518)"/>
        </g>
        <g transform="translate(24 70) translate(78 158.518)">
            <mask id="prefix__i" fill="#fff">
                <use xlink:href="#prefix__h"/>
            </mask>
            <path fill="#7F786A" d="M.224.207v49.045c-.112.002-.223-.005-.336-.002v44.779c-.767.254-1.497.61-2.173 1.078h2.173v24.379h-1.673c.533.398 1.095.728 1.673 1.003v44.719h-.41c.247.043.498.067.746.105v65.906h53.403V.207H.224z" mask="url(#prefix__i)"/>
            <mask id="prefix__k" fill="#fff">
                <use xlink:href="#prefix__j"/>
            </mask>
            <path fill="#7F786A" d="M-.233 49.249c.04-.001.08.002.12 0h-.12z" mask="url(#prefix__k)"/>
            <g>
                <mask id="prefix__m" fill="#fff">
                    <use xlink:href="#prefix__l"/>
                </mask>
                <path fill="#000236" d="M1.91 96.41c-1.146.106-2.208.519-3.15 1.17H-.11v18.267h-2.084c1.69 1.863 3.88 2.908 6.171 2.694 4.584-.43 7.836-5.73 7.266-11.841-.572-6.111-4.75-10.718-9.333-10.29" mask="url(#prefix__m)"/>
            </g>
            <g>
                <mask id="prefix__o" fill="#fff">
                    <use xlink:href="#prefix__n"/>
                </mask>
                <path fill="#000235" d="M2.168 99.176c-1.72.16-3.188 1.234-4.174 2.841h1.894v11.737H-.91c1.267 1.397 2.91 2.18 4.628 2.02 3.437-.322 5.877-4.297 5.449-8.88-.428-4.584-3.561-8.039-7-7.718" mask="url(#prefix__o)"/>
            </g>
            <g>
                <mask id="prefix__q" fill="#fff">
                    <use xlink:href="#prefix__p"/>
                </mask>
                <path fill="#000135" d="M2.426 101.942c-2.292.214-3.918 2.865-3.632 5.92.285 3.056 2.374 5.359 4.666 5.145 2.291-.213 3.918-2.864 3.632-5.919-.285-3.056-2.374-5.36-4.666-5.146" mask="url(#prefix__q)"/>
            </g>
            <g>
                <mask id="prefix__s" fill="#fff">
                    <use xlink:href="#prefix__r"/>
                </mask>
                <path fill="#000134" d="M2.685 104.709c-1.146.107-1.96 1.433-1.816 2.96.142 1.528 1.187 2.68 2.333 2.573 1.145-.107 1.959-1.432 1.816-2.961-.143-1.527-1.187-2.68-2.333-2.572" mask="url(#prefix__s)"/>
            </g>
        </g>
        <g>
            <path fill="#7F786A" d="M20.218 165.413c-5.654 27.396-.178 77.629-.186 102.128-7.938 6.03-15.56 13.534-16.57 17.007-6.414 22.039.683 80.422.683 82.467 1.46 2.726 16.056 3.693 15.93-.93 8.799-56.208 20.046-77.156 24.6-89.187 18.558-49.024 33.41-104.331 33.41-104.331l-57.867-7.154z" transform="translate(24 70) translate(29 13.518)"/>
            <path fill="#57575E" d="M15.689 366.3c1.512.052 3.703 3.415 4.916 6.95 1.413 1.493 3.987 2.031 5.33 4.025.936 1.386 2.113 3.826 1.608 4.485-1.761 2.298-24.192 1.912-24.997-.159-1.046-2.694 1.145-5.158 1.46-7.81.263-2.192.762-4.939 1.287-4.15.95 1.424.344 4.495 2.589 4.811 2.092-6.168 5.322-8.238 7.807-8.152M70.612 378.685c.644 2.273 33.296 5.955 37.982 2.918 2.49-1.613.275-3.459-2.54-4.643-3.278-1.373-11.216-4.65-14.263-6.007-2.506-1.107-3.115-2.092-4.027-3.969-.38-.784-.952-1.42-1.287-1.18-1.004.721-1.208 3.201-.778 5.166.42 1.922.875 3.76.085 4.18-1.424.763-2.474.477-3.56-.216-4.503.52-10.159-.285-11.029-1.56-.668 1.612-1.244 3.002-.583 5.311" transform="translate(24 70) translate(29 13.518)"/>
            <path fill="#F5EFE4" d="M95.735 58.412c9.225-2.404 47.853 61.49 47.853 61.49l-42.89 22.524s-25.284-78.717-4.963-84.014" transform="translate(24 70) translate(29 13.518)"/>
            <path fill="#E7E1D3" d="M58.72 45.318c-8.613 1.598-39.967 5.304-50.597 24.548-4.478 8.106 9.787 70.153 8.621 76.115-1.167 5.961-2.457 44.212-1.217 45.833 4.924 6.441 74.384 7.506 83.234-5.847 2.509-3.786-2.555-34.465-1.573-41.109.859-5.803 12.337-71.59 3.266-83.487-7.518-9.862-41.734-16.053-41.734-16.053" transform="translate(24 70) translate(29 13.518)"/>
            <path fill="#57575E" d="M87.715 8.17c1.716 3.527-2.373 19.428-4.792 20.068-5.454 1.446-22.823 2.127-26.07.098-3.245-2.03-3.57-15.484-.15-22.648 4.346-9.103 27.65-4.43 31.012 2.483" transform="translate(24 70) translate(29 13.518)"/>
            <path fill="#FFA087" d="M57.267 18.444c-1.445 13.025-4.945 31.881-5.917 34.214-.972 2.333 8.51 7.531 15.357 7.581 9.443.069 14.97-3.499 14.97-5.638 0-2.137-3.11-18.078-3.11-18.078L71.17 20.162l-13.904-1.718z" transform="translate(24 70) translate(29 13.518)"/>
            <path fill="#FFB68E" d="M77.75 5.58c6.15 1.823 10.92 5.082 7.797 15.83-3.123 10.749-4.27 13.294-8.696 18.205-4.427 4.91-17.434-4.435-18.177-4.737-.742-.302-.307-11.676-1.165-13.933-.858-2.258-2.883-5.981-1.675-7.576 1.209-1.597 3.48 1.082 3.48 1.082S59.663.217 77.75 5.58" transform="translate(24 70) translate(29 13.518)"/>
            <path fill="#57575E" d="M75.988 27.644c1.651.068 6.855 2.848 7.82 4.27.963 1.421-2.815 12.412-5.645 13.68-2.83 1.266-8.076 2.093-10.195 1.891-2.12-.202-8.077-5.269-9.205-6.312-1.128-1.044-2.554-15.97-1.096-19.642 1.457-3.67.611-8.526 1.878-7.549 1.267.975-.812 11.48 1.06 13.512 1.871 2.033 12.455.03 15.383.15" transform="translate(24 70) translate(29 13.518)"/>
            <path fill="#FFA087" d="M144.892 70.535c.88.063 1.662 3.103 1.604 4.145-.06 1.042-1.916 2.543-1.916 2.543l-3.903-.15s1.503-1.991 1.956-2.873c.453-.883 1.287-3.734 2.259-3.665" transform="translate(24 70) translate(29 13.518)"/>
            <path fill="#FFB68E" d="M178.387 261.237c2.933 22.18-37.828 89.797-36.76 100.223 5.358 7.588 8.034 14.586 8.75 16.271-4.014.336-7.597 1.308-9.404 3.242-6.87-4.82-10.029-13.142-10.394-14.978-.144-.731.395-3.861.395-4.552 0-1.503-2.053-69.392 3.347-81.888 3.798-8.788 16.898-11.464 24.032-15.29 7.907-4.239 20.034-3.028 20.034-3.028" transform="translate(24 70) translate(29 13.518)"/>
            <path fill="#57575E" d="M137.577 377.897c-.6 1.991-1.68 4.71-1.654 5.873.005.232.155.706-.022.741-.614.124-2.545 0-2.545 0l-2.293-2.645.417-7.522 6.097 3.553z" transform="translate(24 70) translate(29 13.518)"/>
            <path fill="#A29C8F" d="M147.778 374.713c10.28-.127 8.855 9.498 7.7 10.524-.989.877-12.344.957-14.305.469-1.895-.472-5.729-3.973-7.932-7.95-.46-.83-1.42 3.216.116 6.756-.51.168-2.883.089-3.205-.068-.92-.443-1.004-8.568-1.417-9.21-3.162-4.914 2.115-12.548 2.115-12.548s-.307 2.935-.175 3.489c.781 3.83 5.114 10.25 8.7 12.537 1.486-2.017 6.3-3.974 8.403-4" transform="translate(24 70) translate(29 13.518)"/>
            <path fill="#FFB68E" d="M129.75 246.852c3.165 15.7-.58 20.685-2.639 37.837-2.612 21.762-9.554 50.853-7.987 77.63 5.357 7.587 6.231 13.515 6.947 15.2.051 3.334-4.503 5.634-6.308 7.568-8.622-4.397-12.293-15.414-12.659-17.25-.145-.73 1.36-4.46 1.337-5.152-.427-12.893-20.065-54.816-18.912-76.569.536-10.1 14.113-27.054 17.174-33.467 4.497-9.424 23.046-5.797 23.046-5.797" transform="translate(24 70) translate(29 13.518)"/>
            <path fill="#57575E" d="M115.113 377.897c-.6 1.991-1.68 4.71-1.654 5.873.005.232.155.706-.022.741-.614.124-2.545 0-2.545 0l-2.293-2.645.417-7.522 6.097 3.553z" transform="translate(24 70) translate(29 13.518)"/>
            <path fill="#A29C8F" d="M125.314 374.713c10.279-.127 8.855 9.498 7.699 10.524-.988.877-12.343.957-14.304.469-1.896-.472-5.728-3.973-7.932-7.95-.46-.83-1.421 3.216.116 6.756-.512.168-2.882.089-3.205-.068-.921-.443-1.004-8.568-1.417-9.21-3.162-4.914 2.17-12.548 2.17-12.548s-.335 2.756-.23 3.489c.78 3.83 5.113 10.25 8.7 12.537 1.486-2.017 6.3-3.974 8.403-4" transform="translate(24 70) translate(29 13.518)"/>
            <path fill="#57575E" d="M141.413 58.345c7.443-3.362 14.03-16.816 4.957-27.076-9.073-10.26-19.983-6.4-22.886-5.674-4.422 1.107-19.524 17.592-7.279 34.446 12.245 16.855 25.208-1.696 25.208-1.696" transform="translate(24 70) translate(29 13.518)"/>
            <path fill="#F5EFE4" d="M150.975 80.438c27.411 19.947 35.92 57.263 33.768 64.897-3.424 12.152-13.787 17.701-27.2 8.954-13.413-8.748-19.005-82.902-6.568-73.85" transform="translate(24 70) translate(29 13.518)"/>
            <path fill="#A29C8F" d="M181.098 263.923c-.465 8.49-6.095 20.498-7.337 23.27-3.014 6.727-80.056 5.087-88.439-5.547 0-4.983 6.76-23.259 6.712-26.705-.198-14.365-22.347-42.825-14.008-72.357 4.511-15.975 27.903-30.822 31.52-31.618 9.028-1.983 42.867 2.044 48.2 10.412 20.64 32.383 24.65 78.796 23.352 102.545" transform="translate(24 70) translate(29 13.518)"/>
            <path fill="#7F786A" d="M130.471 71.514c-4.071-1.429-25.273 6.317-27.022 10.691-1.158 2.894-1.851 38.18-.478 59.027.703 10.665-26.371 24.18-24.885 37.982 1.092 10.14 98.768 32.571 94.926 5.123-.247-1.76-12.291-37.314-12.412-39.002-1.219-17.137-3.379-22.2-2.65-31.089.458-5.563-5.941-30.777-7.48-32.922-2.93-4.084-14.156-7.759-19.999-9.81" transform="translate(24 70) translate(29 13.518)"/>
            <path fill="#FFA087" d="M147.686 74.816c2.223.321 1.294 3.995 1.945 4.133.821.175 2.376-1.838 3.258-1.525 1.214.434 5.821 7.973 5.821 8.831 0 1.438-5.079 4.041-6.523 3.948-.625-.04-3.457-1.396-4.11-2.356-.425-.625.78-5.253.237-5.64-1.222-.876-1.715 3.066-4.269 2.425-1.215-.305 1.937-10.063 3.641-9.816" transform="translate(24 70) translate(29 13.518)"/>
            <path fill="#FCFCFC" d="M206.825 185.662L144.023 194.948 130.554 103.853 193.355 94.567z" transform="translate(24 70) translate(29 13.518)"/>
            <path fill="#CACACA" d="M188.24 110.295L174.674 112.301 173.716 105.823 187.282 103.817zM188.732 113.624L175.166 115.631 175.005 114.542 188.571 112.536zM196.874 168.689L184.191 170.564 184.031 169.476 196.713 167.6zM177.729 171.52L169.422 172.749 169.261 171.66 177.568 170.431zM197.503 172.936L184.82 174.812 184.659 173.723 197.342 171.848zM176.152 125.326L155.921 128.317 155.76 127.229 175.991 124.237zM190.989 128.891L142.75 136.024 142.589 134.936 190.828 127.803zM191.725 133.866L143.486 140.999 143.325 139.911 191.564 132.778zM192.461 138.84L144.222 145.974 144.061 144.886 192.3 137.752zM193.197 143.815L144.958 150.948 144.797 149.86 193.036 142.727zM193.932 148.79L145.693 155.923 145.532 154.835 193.771 147.702zM194.668 153.764L146.429 160.897 146.268 159.809 194.507 152.676z" transform="translate(24 70) translate(29 13.518)"/>
            <path fill="#FFA087" d="M122.536 57.58c-.586 9.19-2.388 18.857-3.94 21.758-2.188 4.082 9.637 7.97 14.594 6.659 4.957-1.313 6.415-3.937 6.561-5.687.146-1.75-5.808-7.53-6.852-19.828-.832-9.801-10.124-6.648-10.363-2.902" transform="translate(24 70) translate(29 13.518)"/>
            <path fill="#FFB68E" d="M145.872 41.358c3.519 14.893-1.24 32.76-11.676 34.176-8.642 1.174-15.51-10.146-12.317-20.402-3.774-.934-4.317-5.48-2.88-7.166 2.567-3.012 4.528 1.122 4.528 1.122s1.375-2.312 2.684-7.595c15.364 6.698 19.66-.135 19.66-.135" transform="translate(24 70) translate(29 13.518)"/>
            <path fill="#57575E" d="M127.787 27.864c3.985-11.23-2.978-27.575-11.6-24.305-8.62 3.27-3.313 17.404-3.313 17.404s-3.637-5.12-6.039-2.298c-2.63 3.09 4.227 15.265 12.621 16.145 8.393.88 8.331-6.946 8.331-6.946" transform="translate(24 70) translate(29 13.518)"/>
            <path fill="#F5EFE4" d="M103.448 82.206c10.707.013 8.832 59.433 6.078 64.298-6.391 11.288-23.053 12.419-31.44-.12-8.386-12.538 15.834-64.19 25.362-64.178" transform="translate(24 70) translate(29 13.518)"/>
            <path fill="#FFB68E" d="M89.739 134.466c9.113-10.824 34.483-31.783 38.428-31.995 5.198-.278 9.717-.145 13.023 0 3.306.145 5.6 5.121 5.055 5.686-.88.913-3.5-2.915-3.936-2.915-.438 0 2.412 4.65 2.187 6.27-.168 1.207-4.083.29-4.666 0-.583-.293-4.022-2.043-4.022-2.043s3.578 3.339 2.44 3.928c-1.643.85-4.687-3.928-5.853-3.49-1.167.438-2.625 2.627-5.541 3.72-2.915 1.092-3.944-.026-5.033.532-1.09.56-10.836 27.356-13.265 29.99-4.11 4.453-14.064 8.093-19.167 7.947-5.103-.145-2.547-14.19.35-17.63" transform="translate(24 70) translate(29 13.518)"/>
            <path fill="#F5EFE4" d="M23.324 75.894c7.521 14.68 8.908 49.208 11.053 50.321 2.987 1.55 53.905-15.592 53.905-15.592s4.649 3.63 2.505 7.524c-7.482 13.592-46.752 40.991-69.285 36.621-12.608-2.445-24.201-62.65-13.379-84.902 2.147-4.415 9.124-5.833 15.201 6.028" transform="translate(24 70) translate(29 13.518)"/>
            <path fill="#FFB68E" d="M87.94 102.982c.878-1.333 2.803-3.467 3.869-3.957.463-.213 2.563-.208 3.282-.325 2.375-.385 4.034-2.086 3.986-.508-.11 3.594-5.352 4.01-5.105 4.755 1.589-.504 6.945-2.645 8.847-2.714 2.042-.075 7.149.222 6.413 2.376-.341 1-5.3.651-6.19.816-.988.183-4.438 1.768-4.223 1.935.43.332 3.153-.708 6.404-.905 3.25-.197 5.892.222 6.276.952.648 1.231-.712 4.14-2.373 4.494-2.283.486-7.318.643-8.171 2.164-.33.59 6.219-.045 6.24 1.183.047 2.71-6.068 1.591-7.11 1.79-1.446.272-7.51 3.431-9.986 3.083-2.751-.389-5.951-3.27-5.094-5.417 1.136-2.847 2.077-8.419 2.935-9.722" transform="translate(24 70) translate(29 13.518)"/>
        </g>
    </g>
</svg>
