<svg xmlns="http://www.w3.org/2000/svg" xmlns:xlink="http://www.w3.org/1999/xlink" width="155" height="155" viewBox="0 0 155 155">
    <defs>
        <path id="prefix__c" d="M0 0.478L83.493 0.478 83.493 83.972 0 83.972z"/>
        <path id="prefix__e" d="M0.791 0.913L48.796 0.913 48.796 71 0.791 71z"/>
        <filter id="prefix__a" width="165.2%" height="165.2%" x="-32.6%" y="-19.6%" filterUnits="objectBoundingBox">
            <feOffset dy="15" in="SourceAlpha" result="shadowOffsetOuter1"/>
            <feGaussianBlur in="shadowOffsetOuter1" result="shadowBlurOuter1" stdDeviation="10"/>
            <feColorMatrix in="shadowBlurOuter1" values="0 0 0 0 1 0 0 0 0 0.699027652 0 0 0 0 0.0927210366 0 0 0 0.15 0"/>
        </filter>
        <circle id="prefix__b" cx="57.5" cy="57.5" r="57.5"/>
    </defs>
    <g fill="none" fill-rule="evenodd" transform="translate(20 5)">
        <use fill="#000" filter="url(#prefix__a)" xlink:href="#prefix__b"/>
        <use fill="#FFF" xlink:href="#prefix__b"/>
        <g>
            <g transform="translate(16 17) translate(0 .522)">
                <mask id="prefix__d" fill="#fff">
                    <use xlink:href="#prefix__c"/>
                </mask>
                <path fill="#D3DCFB" d="M74.01 68.709c5.923-7.207 9.483-16.428 9.483-26.484C83.493 19.17 64.803.478 41.746.478 18.69.478 0 19.17 0 42.225c0 10.056 3.559 19.276 9.482 26.483v.008l.068.079.073.091h.007c1.913 2.302 4.072 4.389 6.43 6.234v.015c.07.053.142.102.212.155.047.036.092.076.139.113v-.01c2.272 1.739 4.727 3.248 7.332 4.495v.011c.077.037.155.07.23.105.046.02.088.045.133.066h.015c2.05.956 4.189 1.753 6.404 2.37v.004c.024.007.049.01.073.017.025.008.05.017.075.023v-.004c3.527.968 7.238 1.492 11.073 1.492.117 0 .233-.004.35-.004v-.008c3.709-.031 7.304-.541 10.723-1.48v.004c.025-.006.049-.015.074-.022.025-.008.05-.011.074-.019v-.004c2.215-.616 4.354-1.412 6.404-2.37h.015c.045-.02.089-.046.134-.066.075-.035.153-.067.229-.103v-.012c2.605-1.248 5.06-2.757 7.332-4.494v.01c.047-.036.09-.076.138-.112.069-.055.143-.103.212-.157v-.016c2.359-1.844 4.518-3.931 6.43-6.233h.008c.026-.03.049-.063.075-.093.02-.026.045-.05.067-.077v-.007z" mask="url(#prefix__d)"/>
            </g>
            <g transform="translate(16 17) translate(15 14.522)">
                <mask id="prefix__f" fill="#fff">
                    <use xlink:href="#prefix__e"/>
                </mask>
                <path fill="#E8F4FC" d="M40.626 71H8.961c-4.512 0-8.17-3.658-8.17-8.17V9.083c0-4.513 3.658-8.17 8.17-8.17h31.665c4.512 0 8.17 3.657 8.17 8.17V62.83c0 4.512-3.658 8.17-8.17 8.17" mask="url(#prefix__f)"/>
            </g>
            <path fill="#A8B7EF" d="M24.912 39.918L37.393 39.918 37.393 26.477 24.912 26.477zM42.194 30.316L54.675 30.316 54.675 26.476 42.194 26.476zM42.194 38.958L54.675 38.958 54.675 35.117 42.194 35.117zM24.912 57.199L46.034 57.199 46.034 53.359 24.912 53.359zM24.912 74.48L37.393 74.48 37.393 70.64 24.912 70.64z" transform="translate(16 17)"/>
            <path fill="#FBBF00" d="M79.469 67.634c0 8.42-6.826 15.246-15.247 15.246-8.42 0-15.246-6.826-15.246-15.246 0-8.42 6.826-15.247 15.246-15.247 8.42 0 15.247 6.826 15.247 15.247" transform="translate(16 17)"/>
            <path fill="#FFDE8E" d="M64.222 72.398L59.52 74.87 60.418 69.634 56.613 65.925 61.871 65.162 64.222 60.398 66.573 65.162 71.83 65.925 68.026 69.634 68.924 74.87z" transform="translate(16 17)"/>
        </g>
    </g>
</svg>
