<svg xmlns="http://www.w3.org/2000/svg" xmlns:xlink="http://www.w3.org/1999/xlink" width="155" height="155" viewBox="0 0 155 155">
    <defs>
        <filter id="prefix__a" width="165.2%" height="165.2%" x="-32.6%" y="-19.6%" filterUnits="objectBoundingBox">
            <feOffset dy="15" in="SourceAlpha" result="shadowOffsetOuter1"/>
            <feGaussianBlur in="shadowOffsetOuter1" result="shadowBlurOuter1" stdDeviation="10"/>
            <feColorMatrix in="shadowBlurOuter1" values="0 0 0 0 1 0 0 0 0 0.699027652 0 0 0 0 0.0927210366 0 0 0 0.15 0"/>
        </filter>
        <circle id="prefix__b" cx="57.5" cy="57.5" r="57.5"/>
        <path id="prefix__c" d="M0 0.479L83.493 0.479 83.493 83.972 0 83.972z"/>
    </defs>
    <g fill="none" fill-rule="evenodd" transform="translate(20 5)">
        <use fill="#000" filter="url(#prefix__a)" xlink:href="#prefix__b"/>
        <use fill="#FFF" xlink:href="#prefix__b"/>
        <g>
            <g transform="translate(16 15) translate(0 .522)">
                <mask id="prefix__d" fill="#fff">
                    <use xlink:href="#prefix__c"/>
                </mask>
                <path fill="#D3DCFB" d="M74.01 68.709c5.923-7.206 9.483-16.43 9.483-26.484 0-23.056-18.69-41.746-41.747-41.746C18.69.479 0 19.169 0 42.225 0 52.28 3.559 61.502 9.482 68.708v.008l.068.079.073.092h.007c1.913 2.3 4.072 4.388 6.43 6.233v.016c.07.052.142.1.212.154.047.037.092.077.139.113v-.01c2.272 1.739 4.727 3.247 7.332 4.495v.01c.077.038.155.07.23.106.046.02.088.045.133.066h.015c2.05.956 4.189 1.753 6.404 2.369v.004c.024.007.049.012.073.018.025.008.05.016.075.022v-.003c3.527.968 7.238 1.492 11.073 1.492.117 0 .233-.004.35-.005v-.008c3.709-.03 7.304-.541 10.723-1.48v.005c.025-.006.049-.015.074-.022.025-.007.05-.011.074-.018v-.005c2.215-.616 4.354-1.413 6.404-2.37h.015c.045-.02.089-.045.134-.066.075-.035.153-.067.229-.104v-.011c2.605-1.247 5.06-2.756 7.332-4.494v.01c.047-.036.09-.076.138-.112.069-.054.143-.103.212-.156v-.016c2.359-1.845 4.518-3.932 6.43-6.233h.008c.026-.031.049-.063.075-.093.02-.026.045-.051.067-.077v-.008z" mask="url(#prefix__d)"/>
            </g>
            <path fill="#FBBF00" d="M57.579 85.522H25.914c-4.512 0-8.17-3.657-8.17-8.17V23.604c0-4.511 3.658-8.17 8.17-8.17h31.665c4.512 0 8.17 3.659 8.17 8.17v53.748c0 4.513-3.658 8.17-8.17 8.17" transform="translate(16 15)"/>
            <path fill="#FFF" fill-opacity=".5" d="M55.293 52.117c.737 0 1.335-.652 1.335-1.456 0-.804-.598-1.456-1.335-1.456h-13.35c-.736 0-1.334.652-1.334 1.456 0 .804.598 1.456 1.335 1.456h5.339c1.739 0 3.207 1.221 3.76 2.913h-9.1c-.736 0-1.334.652-1.334 1.456 0 .804.598 1.456 1.335 1.456h9.099c-.553 1.693-2.021 2.913-3.76 2.913h-5.34c-.173 0-.346.038-.51.111-.325.148-.587.431-.723.79-.136.355-.136.757 0 1.112.067.181.166.341.29.475l10.678 11.648c.262.285.603.428.945.428.342 0 .684-.143.945-.425.52-.568.52-1.49 0-2.06l-8.402-9.166h2.117c3.226 0 5.92-2.505 6.539-5.826h1.47c.738 0 1.336-.652 1.336-1.456 0-.804-.598-1.456-1.335-1.456h-1.471c-.2-1.084-.644-2.062-1.234-2.913h2.705zM26.865 39.917L39.346 39.917 39.346 26.476 26.865 26.476zM44.147 39.957L56.628 39.957 56.628 36.117 44.147 36.117zM26.865 74.481L39.346 74.481 39.346 70.641 26.865 70.641z" transform="translate(16 15)"/>
            <path fill="#2A428C" d="M82.593 24.509l-7.558-7.56c-1.18-1.178-3.055-1.27-4.267-.206-1.368 1.202-1.379 3.259-.149 4.489l2.283 2.282c.006.007.026.026.011.059-.013.036-.04.036-.05.036H57.024c-1.67 0-3.06 1.259-3.164 2.87-.117 1.817 1.331 3.279 3.07 3.279h15.933c.01 0 .037 0 .05.034.015.033-.004.053-.01.06l-2.216 2.215c-1.182 1.18-1.272 3.055-.208 4.267 1.201 1.367 3.258 1.379 4.488.149l7.626-7.625c1.2-1.2 1.2-3.15 0-4.35" transform="translate(16 15)"/>
            <path fill="#816AE2" d="M82.593 24.509l-3.685-3.686c.361.536.571 1.18.571 1.874 0 1.855-1.503 3.357-3.357 3.357-1.54 0-2.836-1.04-3.23-2.453-.012.006-.024.008-.029.008H57.025c-1.67 0-3.06 1.259-3.164 2.87-.118 1.817 1.33 3.279 3.068 3.279h15.934c.01 0 .037 0 .051.033.014.034-.005.054-.012.06l-2.215 2.216c-1.18 1.18-1.272 3.055-.208 4.267 1.202 1.366 3.258 1.379 4.49.149l7.625-7.626c1.198-1.2 1.198-3.15 0-4.348" transform="translate(16 15)"/>
        </g>
    </g>
</svg>
