<svg xmlns="http://www.w3.org/2000/svg" xmlns:xlink="http://www.w3.org/1999/xlink" width="461" height="298" viewBox="0 0 461 298">
    <defs>
        <path id="prefix__a" d="M.271 2.915S78.843 66.002 80.389 63.8c2.961-4.217 4.259-9.613 3.845-14.663-.63-7.688-4.551-14.702-9.005-21.065-4.618-6.593-9.946-12.805-16.458-17.747-6.514-4.94-14.198-9.232-22.619-9.632-2.635-.125-5.14-.179-7.511-.179C14.615.514 5.2 2.417.271 2.915"/>
        <path id="prefix__c" d="M.116 4.454c0 2.378 1.927 4.306 4.305 4.306 2.378 0 4.306-1.928 4.306-4.306 0-2.377-1.928-4.305-4.306-4.305S.116 2.077.116 4.454"/>
        <path id="prefix__f" d="M.97 3.286C.97 4.95 2.319 6.3 3.983 6.3c1.665 0 3.014-1.35 3.014-3.014 0-1.665-1.349-3.014-3.014-3.014C2.319.272.97 1.621.97 3.286"/>
        <linearGradient id="prefix__d" x1="99.995%" x2="-.006%" y1="49.997%" y2="49.997%">
            <stop offset="0%" stop-color="#FFB218"/>
            <stop offset="100%" stop-color="#FFCF44"/>
        </linearGradient>
        <linearGradient id="prefix__g" x1="100.004%" x2="-.009%" y1="49.996%" y2="49.996%">
            <stop offset="0%" stop-color="#FFB218"/>
            <stop offset="100%" stop-color="#FFCF44"/>
        </linearGradient>
    </defs>
    <g fill="none" fill-rule="evenodd">
        <g>
            <path fill="#619440" d="M75.663 143.918c-28.391 2.741-55.485-62.613-65.867-88.871C2.968 37.779 1.724 18.932.556.432c29.66 9.966 65.504 32.895 79.786 60.432 2.372 4.574 4.03 11.825 4.984 16.874 1.997 10.576 3.112 44.906 2.147 55.629-.302 3.357.919 9.322-11.81 10.551" transform="translate(34 94.24)"/>
            <path fill="#306B34" d="M4.072 5.143c.597-.517 1.506-.458 2.029.132 6.519 7.34 12.622 14.69 18.382 22.15 1.473-4.071 2.079-7.432 2.16-11.732.015-.522.449-.94.978-.93.528.01.949.443.94.966-.058 3.005-.372 5.628-1.04 8.318-.411 1.66-.96 3.348-1.662 5.166 4.517 5.919 8.82 11.91 12.94 18.026.238-2.34.637-4.65 1.028-6.912.44-2.535.777-4.314 1.115-6.088.339-1.785.679-3.566 1.119-6.117.088-.52.586-.862 1.107-.773.522.087.873.576.784 1.092-.443 2.563-.785 4.353-1.124 6.148-.336 1.766-.673 3.535-1.11 6.058-.521 3.007-1.056 6.099-1.185 9.182 5.008 7.568 9.747 15.333 14.278 23.385l4.45-14.573c.7-2.295 1.429-4.672 1.503-7.075.023-.514.459-.933.987-.917.53.015.946.45.93.973-.045 1.472-.3 2.894-.643 4.283-.277 1.115-.612 2.208-.943 3.284l-4.992 16.349c5.449 9.838 10.603 20.11 15.56 30.99.138.3.16.622.086.919-.102.41-.386.77-.806.959-.726.32-1.576.002-1.902-.714-2.253-4.945-4.55-9.756-6.892-14.464h-.004c-5.136-.677-9.11-1.375-12.955-2.051-3.824-.672-7.778-1.368-12.873-2.038-.525-.07-.895-.545-.824-1.063.069-.51.55-.883 1.077-.814 5.137.677 9.11 1.375 12.955 2.052 3.497.614 7.112 1.248 11.599 1.864-3.02-5.986-6.12-11.801-9.327-17.47-6.183-1.305-11.54-2.468-16.894-3.631-5.52-1.2-11.04-2.397-17.468-3.753-.517-.11-.847-.613-.737-1.124.18-.507.62-.838 1.138-.73 6.433 1.36 11.956 2.559 17.479 3.758 4.866 1.057 9.733 2.112 15.222 3.277-3.727-6.484-7.6-12.786-11.647-18.953-.022-.02-.04-.046-.061-.07-.186.065-.393.077-.596.016-10.47-3.144-18.373-4.831-29.16-6.223-.523-.07-.894-.543-.825-1.062.08-.53.553-.883 1.076-.815 10.407 1.343 18.162 2.96 28.055 5.87-3.727-5.588-7.603-11.071-11.655-16.485-7.526-3.238-11.718-3.823-19.557-3.83-.53 0-.96-.424-.96-.947 0-.523.43-.945.959-.946 7.39.006 11.704.637 17.323 2.766-6.098-7.986-12.586-15.838-19.55-23.68-.527-.587-.466-1.484.133-2.003" transform="translate(34 94.24)"/>
            <path fill="#FFDE8E" d="M24.271 122.915c3.685 25.172 24.874 55.462 49.36 65.415 7.82 3.18 17.255 5.023 24.77.896 7.126-3.915 10.463-12.4 9.833-20.089-.63-7.689-4.55-14.702-9.006-21.065-4.617-6.594-9.945-12.805-16.458-17.747-6.513-4.94-14.197-9.232-22.618-9.632-18.222-.863-30.119 1.64-35.88 2.222" transform="translate(34 94.24)"/>
        </g>
        <g transform="translate(58 214.24)">
            <mask id="prefix__b" fill="#fff">
                <use xlink:href="#prefix__a"/>
            </mask>
            <path fill="#FFBF4D" d="M.271 2.915S78.843 66.002 80.389 63.8c2.961-4.217 4.259-9.613 3.845-14.663-.63-7.688-4.551-14.702-9.005-21.065-4.618-6.593-9.946-12.805-16.458-17.747-6.514-4.94-14.198-9.232-22.619-9.632-2.635-.125-5.14-.179-7.511-.179C14.615.514 5.2 2.417.271 2.915" mask="url(#prefix__b)"/>
        </g>
        <path fill="#306B34" d="M22.154 243.122c0 3.603 2.921 6.523 6.523 6.523 3.603 0 6.524-2.92 6.524-6.523 0-3.604-2.92-6.523-6.524-6.523-3.602 0-6.523 2.919-6.523 6.523"/>
        <g transform="translate(39 230.24)">
            <mask id="prefix__e" fill="#fff">
                <use xlink:href="#prefix__c"/>
            </mask>
            <path fill="url(#prefix__d)" d="M.116 4.454c0 2.378 1.927 4.306 4.305 4.306 2.378 0 4.306-1.928 4.306-4.306 0-2.377-1.928-4.305-4.306-4.305S.116 2.077.116 4.454" mask="url(#prefix__e)"/>
        </g>
        <g transform="translate(29 223.24)">
            <mask id="prefix__h" fill="#fff">
                <use xlink:href="#prefix__f"/>
            </mask>
            <path fill="url(#prefix__g)" d="M.97 3.286C.97 4.95 2.319 6.3 3.983 6.3c1.665 0 3.014-1.35 3.014-3.014 0-1.665-1.349-3.014-3.014-3.014C2.319.272.97 1.621.97 3.286" mask="url(#prefix__h)"/>
        </g>
        <g>
            <path fill="#F7E8C8" d="M.86 210.09c0-7.13 81.735-12.91 182.56-12.91 100.826 0 182.56 5.78 182.56 12.91S284.247 223 183.42 223C82.596 223 .86 217.22.86 210.09" transform="translate(47 73.24)"/>
            <path fill="#FFC581" d="M87.014 12.906L86.991 14.3 89.549 14.624 89.549 12.171z" transform="translate(47 73.24)"/>
            <path fill="#FFE2B7" d="M21.186 16.26L22.085 18.059 19.877 19.08 19.387 17.405z" transform="translate(47 73.24)"/>
            <path fill="#E7E1D3" d="M24.157 20.305L20.459 21.753 19.221 18.594 22.919 17.146z" transform="translate(47 73.24)"/>
            <path fill="#FFE2B7" d="M274.608 8.778L275.186 11.629 272.542 12.042 272.525 9.066z" transform="translate(47 73.24)"/>
            <path fill="#FFC581" d="M272.912.611c-.513.08-.855.621-.764 1.21l.416 2.686.93-.144-.582-3.752z" transform="translate(47 73.24)"/>
            <path fill="#FFE2B7" d="M271.334 5.2s.91-.824 1.462-.967c.304-.079.65-.756.884-.34.103.184.586.857.786 1.752.188.838.16 2.788.252 3.565.057.488-1.065.627-1.821.76-.502.088-1.021-.808-1.121-1.307l-.442-3.464z" transform="translate(47 73.24)"/>
            <path fill="#E7E1D3" d="M272.902 15.42L271.799 11.431 276.608 10.248 277.71 14.236z" transform="translate(47 73.24)"/>
            <path fill="#FB8875" d="M45.266 201.016L40.961 186.762 47.74 185.786 47.453 201.704z" transform="translate(47 73.24)"/>
            <path fill="#FB8875" d="M42.985 208.419s2.411-3.005 2.688-4.479c.05-.256-3.73-12.816-3.73-12.816l5.592 4.828.43 9.244s-3.042 3.846-3.168 3.86c-.127.01-1.812-.637-1.812-.637" transform="translate(47 73.24)"/>
            <path fill="#7F786A" d="M47.913 204.15s1.555.851 1.235 2.972c-.32 2.122-.396 3.351-.396 3.351l-.84.08-.447-2.285s-.833.613-1.716 2.258c-.398.742-4.976.532-4.976.532s-.988-.761.706-1.69c.421-.23 1.596-1.046 1.596-1.046s.756.833 1.79-.017c.463-.38 1.313-1.39 1.9-2.24.724-1.044 1.148-1.915 1.148-1.915" transform="translate(47 73.24)"/>
            <path fill="#A29C8F" d="M50.692 52.213c2.402 4.035 10.855 15.679 13.219 29.533 1.203 7.057-14.105 3.654-14.105 3.654l-.393 44.554 3.735 63.306-11.499.464s-10.714-44.277-13.466-56.901c-2.701-12.392-8.863-44.772-7.202-61.169 1.023-10.106 3.955-19.463 5.862-24.57.82-2.195 2.294-4.102 2.502-4.447 2.512 1.609 14.614 6.677 21.347 5.576" transform="translate(47 73.24)"/>
            <path fill="#FFC581" d="M88.659 3.92c.524.081.874.635.781 1.236l-.425 2.749-.951-.147.595-3.838z" transform="translate(47 73.24)"/>
            <path fill="#FFC581" d="M90.273 8.613s-.931-.842-1.495-.988c-.312-.08-.666-.774-.904-.348-.106.188-.6.877-.805 1.792-.192.858-.163 2.854-.258 3.648-.059.5 1.09.641 1.863.778.513.091 1.045-.826 1.147-1.338l.453-3.544z" transform="translate(47 73.24)"/>
            <path fill="#F47A69" d="M100.045 207.736s-1.978-3.226-2.777-4.96c-.119-.262-3.676-15.55-3.676-15.55l-4.669 3.341 5.885 12.471s.096 2.703 3.242 5.335c.103.087 1.995-.637 1.995-.637" transform="translate(47 73.24)"/>
            <path fill="#7F786A" d="M94.74 203s-1.705.91-1.38 3.225c.325 2.315.394 3.656.394 3.656l.915.096.513-2.487s.9.677 1.844 2.48c.425.811 5.416.63 5.416.63s1.086-.822-.75-1.849c-.455-.255-1.727-1.156-1.727-1.156s-.833.9-1.95-.037c-.5-.42-1.416-1.53-2.046-2.46-.777-1.147-1.229-2.099-1.229-2.099M59.234 47.557c8.84 7.787 15.867 17.754 19.626 31.887 1.884 7.079 15.985 113.213 15.985 113.213l-11.372 1.165S53.48 118.824 48.037 91.526c-1.973-9.893-8.024-31.695-5.75-41.446 3.053-1.417 10.205-.958 16.947-2.523" transform="translate(47 73.24)"/>
        </g>
        <path fill="#FFBF4D" d="M137.542 256.568L318.657 256.568 318.657 2.245 137.542 2.245z"/>
        <g>
            <path fill="#F9F1E4" d="M223.42 44.459L228.202 54.147 238.894 55.701 231.157 63.242 232.983 73.891 223.42 68.863 213.857 73.891 215.683 63.242 207.947 55.701 218.639 54.147zM194.05 87.689L194.05 94.945 198.389 94.945 198.389 96.591 192.093 96.591 192.093 87.689zM201.437 93.268c.087.354.226.672.417.954.192.283.44.509.749.68.307.17.68.256 1.122.256.44 0 .814-.086 1.122-.256.307-.171.557-.397.748-.68.19-.282.33-.6.417-.954.088-.353.13-.716.13-1.091 0-.39-.042-.768-.13-1.134-.087-.366-.226-.692-.417-.98-.191-.285-.441-.515-.748-.685-.308-.17-.682-.256-1.122-.256-.441 0-.815.086-1.122.256-.308.17-.557.4-.75.686-.19.287-.33.613-.416.979-.087.366-.131.744-.131 1.134 0 .375.044.738.13 1.09m-1.788-2.941c.199-.57.486-1.066.86-1.49.374-.423.833-.755 1.378-.997.544-.241 1.157-.362 1.839-.362.69 0 1.304.12 1.845.362.54.242.997.574 1.37.997.375.424.662.92.862 1.49.199.569.299 1.187.299 1.85 0 .65-.1 1.254-.3 1.816-.2.56-.486 1.048-.86 1.464-.374.416-.831.743-1.371.979-.541.237-1.155.355-1.845.355-.682 0-1.295-.118-1.84-.355-.544-.236-1.003-.563-1.377-.98-.374-.415-.661-.903-.86-1.463-.2-.562-.3-1.166-.3-1.815 0-.664.1-1.282.3-1.851M216.216 96.591L214.707 90.531 214.682 90.531 213.199 96.591 211.216 96.591 208.86 87.689 210.818 87.689 212.226 93.748 212.251 93.748 213.797 87.689 215.63 87.689 217.151 93.822 217.176 93.822 218.635 87.689 220.555 87.689 218.161 96.591zM231.127 90.064c-.116-.188-.262-.351-.436-.492-.175-.142-.372-.252-.592-.33-.221-.08-.451-.12-.692-.12-.441 0-.815.087-1.123.255-.307.17-.556.4-.748.687-.191.287-.33.613-.417.979-.087.365-.131.743-.131 1.133 0 .376.044.74.13 1.091.088.356.227.672.418.955.192.282.44.509.748.68.308.17.682.255 1.123.255.598 0 1.066-.182 1.402-.548.337-.365.543-.849.617-1.447h1.895c-.05.557-.178 1.06-.386 1.508-.208.45-.482.831-.823 1.147-.341.317-.74.558-1.197.725-.457.165-.96.248-1.508.248-.682 0-1.295-.119-1.84-.356-.544-.236-1.003-.561-1.377-.977-.374-.416-.661-.905-.86-1.465-.2-.563-.3-1.166-.3-1.816 0-.663.1-1.282.3-1.85.199-.57.486-1.066.86-1.49.374-.424.833-.755 1.378-.998.544-.24 1.157-.361 1.839-.361.49 0 .953.07 1.39.212.436.143.827.348 1.172.618s.629.605.854 1.002c.224.4.365.858.424 1.371h-1.895c-.034-.224-.11-.43-.225-.617M236.606 93.268c.087.354.226.672.417.954.192.283.441.509.748.68.308.17.682.256 1.123.256.44 0 .814-.086 1.122-.256.307-.171.556-.397.748-.68.191-.282.33-.6.417-.954.088-.353.131-.716.131-1.091 0-.39-.043-.768-.13-1.134-.088-.366-.227-.692-.418-.98-.192-.285-.44-.515-.748-.685-.308-.17-.682-.256-1.122-.256-.44 0-.815.086-1.123.256-.307.17-.556.4-.748.686-.19.287-.33.613-.417.979-.087.366-.13.744-.13 1.134 0 .375.043.738.13 1.09m-1.789-2.941c.2-.57.486-1.066.86-1.49.374-.423.833-.755 1.377-.997.545-.241 1.158-.362 1.84-.362.69 0 1.304.12 1.845.362.54.242.997.574 1.371.997.374.424.661.92.86 1.49.2.569.3 1.187.3 1.85 0 .65-.1 1.254-.3 1.816-.199.56-.486 1.048-.86 1.464-.374.416-.83.743-1.37.979-.542.237-1.156.355-1.846.355-.682 0-1.295-.118-1.84-.355-.544-.236-1.003-.563-1.377-.98-.374-.415-.66-.903-.86-1.463-.2-.562-.299-1.166-.299-1.815 0-.664.1-1.282.3-1.851M246.35 94.396c.107.208.25.377.43.506.178.129.388.223.63.287.24.06.49.093.747.093.174 0 .361-.014.561-.043.2-.03.386-.085.561-.17.174-.082.32-.196.436-.342.116-.144.175-.331.175-.555 0-.24-.077-.436-.23-.586-.155-.15-.356-.274-.606-.374-.249-.1-.532-.186-.848-.261-.315-.076-.635-.16-.959-.25-.333-.083-.657-.185-.973-.305-.316-.121-.598-.276-.848-.468-.249-.191-.45-.43-.604-.717-.154-.287-.23-.633-.23-1.041 0-.457.097-.853.292-1.19.195-.337.451-.617.767-.842.315-.223.673-.39 1.072-.5.4-.106.798-.161 1.197-.161.465 0 .912.053 1.34.156.428.105.808.272 1.141.505.332.233.596.53.792.892.195.36.292.8.292 1.315h-1.895c-.016-.265-.073-.487-.168-.661-.095-.175-.222-.311-.38-.411-.158-.1-.339-.171-.543-.212-.203-.042-.425-.062-.666-.062-.158 0-.317.016-.474.049-.158.035-.302.092-.43.175-.129.083-.235.187-.318.312-.083.125-.125.283-.125.473 0 .175.033.316.1.424.066.108.197.208.393.3.195.09.465.183.81.273.345.092.796.208 1.353.35.166.033.396.093.692.18.294.088.588.227.88.419.29.19.541.446.753.766.212.32.318.729.318 1.228 0 .407-.08.785-.237 1.135-.158.348-.393.65-.705.903-.31.254-.698.452-1.159.593-.46.14-.996.212-1.602.212-.49 0-.966-.061-1.428-.182-.46-.12-.868-.31-1.222-.567-.353-.256-.633-.585-.84-.984-.209-.4-.308-.874-.3-1.422h1.895c0 .3.054.554.162.76M252.496 89.334L252.496 87.688 259.789 87.688 259.789 89.334 257.121 89.334 257.121 96.591 255.164 96.591 255.164 89.334zM170.679 115.595L173.557 115.595 173.557 102.507 170.679 102.507zM179.313 102.507L184.775 111.287 184.812 111.287 184.812 102.507 187.507 102.507 187.507 115.595 184.629 115.595 179.185 106.833 179.148 106.833 179.148 115.595 176.453 115.595 176.453 102.507zM192.603 112.368c.158.306.369.553.632.743.263.19.57.33.926.421.354.092.72.138 1.1.138.256 0 .53-.022.825-.064.293-.043.568-.126.824-.248.257-.122.47-.29.642-.504.17-.214.257-.486.257-.815 0-.355-.113-.642-.34-.862-.226-.22-.522-.404-.888-.55-.367-.147-.783-.275-1.247-.385-.464-.11-.935-.23-1.411-.367-.49-.12-.966-.272-1.43-.448-.465-.178-.88-.407-1.246-.688-.367-.28-.664-.632-.89-1.055-.226-.42-.34-.93-.34-1.529 0-.673.145-1.256.432-1.75.287-.496.663-.908 1.127-1.238.465-.33.99-.574 1.577-.734.586-.158 1.173-.238 1.759-.238.685 0 1.34.076 1.97.23.63.152 1.189.4 1.678.742.489.342.877.78 1.164 1.31.287.532.43 1.176.43 1.935h-2.785c-.025-.392-.107-.716-.248-.973-.14-.257-.327-.458-.56-.604-.231-.148-.497-.25-.796-.312-.3-.06-.627-.092-.981-.092-.232 0-.464.026-.696.074-.233.05-.443.134-.633.256-.19.123-.345.275-.467.46-.123.182-.184.415-.184.696 0 .256.049.464.147.622.098.16.29.306.578.44.286.135.684.27 1.19.404.508.134 1.17.305 1.99.513.244.048.583.137 1.017.266.434.128.865.333 1.293.613.427.281.797.658 1.108 1.128.312.471.468 1.072.468 1.806 0 .598-.116 1.154-.348 1.668-.233.513-.578.956-1.036 1.33-.458.371-1.026.661-1.705.87-.678.207-1.463.311-2.355.311-.722 0-1.421-.088-2.1-.266-.677-.177-1.276-.454-1.795-.834-.52-.379-.932-.86-1.238-1.448-.305-.586-.452-1.284-.44-2.09h2.786c0 .44.08.812.239 1.118M212.29 114.596c-.99.86-2.36 1.292-4.107 1.292-1.772 0-3.144-.427-4.115-1.283-.972-.856-1.457-2.174-1.457-3.96v-8.138h2.877v8.139c0 .354.031.703.092 1.045.061.342.19.644.385.907s.467.477.815.642c.35.165.816.247 1.403.247 1.026 0 1.735-.23 2.126-.687.391-.46.587-1.176.587-2.154v-8.14h2.878v8.14c0 1.772-.495 3.089-1.485 3.95M222.646 108.428c.66 0 1.155-.147 1.485-.44.33-.293.494-.771.494-1.43 0-.635-.164-1.097-.494-1.384-.33-.287-.825-.431-1.485-.431h-3.153v3.685h3.153zm1.026-5.921c.587 0 1.115.095 1.586.284.47.19.874.45 1.21.78.336.329.592.71.77 1.144.177.435.265.902.265 1.402 0 .77-.162 1.437-.485 1.999-.324.563-.852.99-1.586 1.283v.038c.355.096.648.246.88.448.232.202.422.44.568.715.147.275.254.577.32.907.068.33.114.659.139.99.012.208.024.452.036.733.012.282.034.568.064.862.03.294.08.57.147.834.067.263.168.485.302.669h-2.877c-.16-.415-.257-.91-.293-1.484-.037-.575-.093-1.124-.166-1.65-.098-.685-.305-1.186-.623-1.504-.318-.317-.837-.476-1.558-.476h-2.878v5.114h-2.878v-13.088h7.057zM236.907 110.536l-1.65-4.803h-.037l-1.704 4.803h3.39zm-.165-8.029l4.894 13.088h-2.988l-.99-2.915h-4.894l-1.026 2.915h-2.896l4.949-13.088h2.95zM245.998 102.507L251.461 111.287 251.497 111.287 251.497 102.507 254.192 102.507 254.192 115.595 251.314 115.595 245.87 106.833 245.833 106.833 245.833 115.595 243.138 115.595 243.138 102.507zM265.483 106c-.17-.276-.385-.518-.64-.726-.257-.207-.548-.369-.872-.485-.324-.116-.663-.174-1.017-.174-.647 0-1.197.125-1.65.375-.452.251-.818.587-1.1 1.01-.28.421-.486.9-.613 1.437-.129.54-.194 1.094-.194 1.668 0 .55.065 1.085.194 1.605.127.518.332.986.613 1.401.281.416.647.75 1.1 1 .453.25 1.003.375 1.65.375.88 0 1.567-.267 2.061-.806.495-.536.798-1.246.909-2.125h2.786c-.073.818-.263 1.556-.568 2.217-.306.66-.71 1.222-1.21 1.686-.502.465-1.089.82-1.76 1.063-.673.246-1.412.367-2.219.367-1.001 0-1.902-.174-2.702-.523-.801-.347-1.476-.828-2.026-1.438-.55-.61-.972-1.329-1.264-2.155-.295-.824-.442-1.712-.442-2.667 0-.977.147-1.883.442-2.722.292-.836.714-1.567 1.263-2.19.55-.623 1.226-1.11 2.026-1.466.8-.354 1.702-.532 2.704-.532.72 0 1.402.105 2.043.312.642.208 1.216.51 1.724.908.507.396.925.89 1.255 1.475.33.587.538 1.258.623 2.016h-2.786c-.048-.33-.159-.633-.33-.907M280.826 102.507L280.826 104.927 273.915 104.927 273.915 107.731 280.258 107.731 280.258 109.967 273.915 109.967 273.915 113.175 280.973 113.175 280.973 115.595 271.038 115.595 271.038 102.507zM174.818 151.539L275.653 151.539 275.653 144.183 174.818 144.183zM174.818 172.317L275.653 172.317 275.653 164.961 174.818 164.961zM174.818 213.875L223.758 213.875 223.758 206.519 174.818 206.519z" transform="translate(0 .24)"/>
            <path fill="#FFDE8E" d="M138.787 255.084h178.625V3.25H138.787v251.834zm179.87 2.49H137.542c-.687 0-1.245-.557-1.245-1.245V2.005c0-.688.558-1.244 1.245-1.244h181.115c.688 0 1.245.556 1.245 1.244v254.324c0 .688-.557 1.245-1.245 1.245z" transform="translate(0 .24)"/>
            <path fill="#FB8875" d="M296.22 283.813l.113.044c.8.316 1.703-.074 2.02-.873l3.14-7.93c.315-.8-.076-1.703-.875-2.02l-.113-.043c-.798-.317-1.702.074-2.019.873l-3.14 7.929c-.316.799.075 1.704.874 2.02" transform="translate(0 .24)"/>
            <path fill="#7F786A" d="M286.379 285.496c-.004.445.364.81.822.813l11.116.094c.586.005 1.03-.513.919-1.074l-.143-1.967c-.041-.56-.519-.999-1.098-1.004 0 0-.292.861-1.339.985-.847.1-1.126-.583-1.217-1.075-.044-.237-.303-.38-.545-.297l-7.981 2.778c-.319.118-.531.415-.534.747" transform="translate(0 .24)"/>
            <path fill="#FB8875" d="M349.688 283.582c-.889-.077-1.547-.86-1.469-1.75l.732-8.376c.078-.889 4.205-1.547 5.094-1.47.89.078-1.795.863-1.873 1.752l-.733 8.375c-.078.89-.862 1.547-1.75 1.47" transform="translate(0 .24)"/>
            <path fill="#7F786A" d="M359.408 139.522c-15.249 21.339-3.713 16.918-4.59 33.97l-2.515 36.397-4.029 68.52 8.48.09s16.96-58.702 19.786-72.577c7.271-35.694 7.2-67.063 6.07-69.218-2.973 1.625-15.718 4.387-23.202 2.817" transform="translate(0 .24)"/>
            <path fill="#A29C8F" d="M341.754 137.438c-4.526 7.277-13.223 24.159-16.717 35.435-4.152 13.396-28.258 104.273-28.258 104.273l7.932 1.157s28.355-46.492 36.686-61.638c5.453-9.915 16.415-32.542 20.326-42.635 3.477-8.976 11.989-32.984 11.989-32.984s-29.646-2.378-31.958-3.608" transform="translate(0 .24)"/>
            <path fill="#7F786A" d="M359.39 285.374c0 .445-.359.807-.8.807h-10.742c-.566 0-.99-.523-.879-1.082l.155-1.966c.044-.562.51-.994 1.068-.994 0 0 .276.862 1.285.995.818.108 1.093-.573 1.185-1.064.045-.237.296-.38.53-.294l7.687 2.847c.308.12.51.42.51.751" transform="translate(0 .24)"/>
            <path fill="#E7E1D3" d="M396.14 115.178l-3.805 17.426s-27.833-28.06-33.843-32.421c-7.15-5.19.608-1.567 5.902-8.64 0 0 4.907-.801 11.205 2.126 6.975 3.242 20.542 21.509 20.542 21.509" transform="translate(0 .24)"/>
            <path fill="#F5EFE4" d="M383.16 138.984s-7.979 3.435-19.12 3.898c-9.414.393-24.365-1.906-24.11-3.62 1.392-9.378 2.334-31.134 2.334-31.134.342-7.157-4.054-14.96 12.276-15.212l13.256-1.153c7.69.367 11.073 6.588 14.39 17.294 2.123 6.86.973 29.927.973 29.927" transform="translate(0 .24)"/>
            <path fill="#F5EFE4" d="M335.448 131.45l-12.07-6.852 15.705-24.436c3.897-6.255 13.972-10.112 21.47-5.442l-.233.722-24.872 36.007z" transform="translate(0 .24)"/>
            <path fill="#F5EFE4" d="M327.592 87.448c6.203 4.341 9.578 20.694 9.288 29.35-.325 9.656 1.101 16.084-5.839 18.176-4.327 1.305-9.97-9.813-11.278-14.614-.074-.273-.18-.754-.18-.754s-.67-32.527-.014-32.86c1.967-1 5.504-1.062 8.023.702" transform="translate(0 .24)"/>
            <path fill="#FCBD30" d="M93.477 63.702s11.56-6.524 16.884 4.738c2.432 5.145 7.202 16.183 18.334 13.47 0 0 .186 11.6-13.096 16.743-14.497 5.615-28.97-10.18-28.996-19.642-.025-9.463 6.874-15.309 6.874-15.309" transform="translate(0 .24)"/>
            <path fill="#FCBD30" d="M96.701 62.82s-4.409-1.318-6.115.031c-2.725 2.156-.474 5.962-.474 5.962l6.59-5.993z" transform="translate(0 .24)"/>
            <path fill="#E7E1D3" d="M110.361 68.44c-.737-1.234-1.529-2.43-2.545-3.412-1.03-.958-2.216-1.723-3.516-2.178-2.62-.922-5.505-.54-8.124.325-.1.034-.212.036-.307.015-.897-.197-1.812-.335-2.7-.35-.879-.01-1.784.102-2.28.572-1.27 1.02-1.257 2.919-.547 4.536.08.183.057.389-.042.546-1.702 2.668-2.82 5.701-3.208 8.856-.2 1.592-.144 3.156.22 4.724.35 1.563.954 3.073 1.652 4.541-.899-1.358-1.627-2.837-2.145-4.405-.558-1.563-.662-3.29-.564-4.931.162-3.328 1.303-6.58 3.047-9.41l-.04.546c-.403-.934-.683-1.952-.625-3.041.04-1.085.575-2.228 1.45-2.907.972-.8 2.13-.825 3.108-.813 1.01.037 1.978.205 2.931.432l-.307.016c2.79-.915 5.967-1.148 8.757.029 1.385.566 2.61 1.474 3.57 2.585.956 1.119 1.658 2.403 2.215 3.725" transform="translate(0 .24)"/>
            <path fill="#E7E1D3" d="M75.158 118.627c-4.407 2.918-7.388-5.779-7.388-5.779s4.028-11.749 7.203-16.76c10.58-16.692 15.208-14.211 17.121-9.889.15.336.166 1.095.09 1.447-1.856 8.565-9.874 26.245-17.026 30.981" transform="translate(0 .24)"/>
            <path fill="#F5EFE4" d="M71.212 92.08s2.371 6.951 3.678 14.453c1.059 6.082 4.678 13.618-2.937 13.418-3.461-.09-6.384-.967-7.692-10.044-.774-5.372-.152-11.43 1.063-14.473.662-1.659 5.888-3.354 5.888-3.354" transform="translate(0 .24)"/>
            <path fill="#FFE2B7" d="M66.033 86.411s-1.376.626-1.649 1.064c-.208.336-.247 1.4-.247 1.4s2.44 1.846 3.249 1.581c.386-.127.871-.92 1.198-1.538.217-.409.122-.9-.217-1.103l-2.334-1.404z" transform="translate(0 .24)"/>
            <path fill="#FFC581" d="M135.565 77.604c.53.032.44.313.402.92l-.272.933-.07 1.76-1.069-.048.247-1.89.762-1.675z" transform="translate(0 .24)"/>
            <path fill="#FFE2B7" d="M137.45 81.001c.316.351.245.931-.159 1.296l-1.846 1.668.237-1.35 1.767-1.614z" transform="translate(0 .24)"/>
            <path fill="#7F786A" d="M75.199 77.587s-1.604 2.761-2.298 3.256c-.694.494-1.855.355-1.855.355s-3.32 3.934-3.732 6.73c-.412 2.797 1.219 3.173.772 4.03-.447.858-3.043 1.819-4.5.868-1.454-.95-1.288-2.393-1.288-2.393l3.42-10.3s-1.78-.706-2.055-1.128c-.628-.964.398-3.924.398-3.924l11.138 2.506z" transform="translate(0 .24)"/>
            <path fill="#A29C8F" d="M82.675 70.979l.743.324c1.297.568 1.956 2.024 1.526 3.373l-.22.686c-.424 1.336-1.782 2.14-3.16 1.875l-1.372-.267 2.483-5.991z" transform="translate(0 .24)"/>
            <path fill="#A29C8F" d="M56.477 44.129s1.561 7.778 11.518 14.209c9.957 6.43 13.485 9.233 13.485 9.233s3.531 2.696.961 7.695c-2.57 4.999-8.26 2.834-11.05 2.232-7.377-1.591-18.619-6.188-28.242 1.256l13.328-34.625z" transform="translate(0 .24)"/>
            <path fill="#96D7E0" d="M32.254 54.784c-4.806 11.438-3.744 22.794 2.372 25.363 6.116 2.571 14.97-4.619 19.776-16.057 4.806-11.438 3.744-22.793-2.372-25.363-6.116-2.57-14.97 4.62-19.776 16.057" transform="translate(0 .24)"/>
            <path fill="#7F786A" d="M33.518 55.316c-4.257 10.132-3.316 20.19 2.102 22.468 5.417 2.275 13.26-4.094 17.517-14.226 4.257-10.132 3.316-20.19-2.1-22.466-5.419-2.276-13.262 4.092-17.519 14.224" transform="translate(0 .24)"/>
            <path fill="#FFF0D2" d="M55.897 58.172L44.302 55.734 41.657 62.287 51.648 68.531z" transform="translate(0 .24)"/>
            <path fill="#FCC23F" d="M41.228 58.304c-.73 1.81-.538 3.593.43 3.983.968.39 2.344-.76 3.074-2.57.73-1.81.538-3.593-.43-3.983-.968-.39-2.344.76-3.074 2.57" transform="translate(0 .24)"/>
            <path fill="#A29C8F" d="M33.518 55.316c4.257-10.133 12.1-16.5 17.518-14.224 5.417 2.276 6.358 12.334 2.101 22.467-4.257 10.132-12.1 16.5-17.517 14.225-5.418-2.278-6.359-12.337-2.102-22.469m1.108 24.832c6.116 2.57 14.97-4.619 19.776-16.058 4.805-11.436 3.743-22.792-2.373-25.361-6.116-2.57-14.97 4.618-19.775 16.056-4.806 11.438-3.744 22.795 2.372 25.363M64.17 84.094l1.098.354c.086.027.178-.021.204-.108l1.002-3.266c.027-.086-.022-.178-.108-.205 0 0-1.36-.587-1.386-.5l-.81 3.725z" transform="translate(0 .24)"/>
            <path fill="#7F786A" d="M63.55 83.79l.432.22c.175.088.389.017.478-.158l1.37-2.706c.089-.174.019-.388-.156-.477l-.431-.219c-.175-.089-.39-.018-.478.157l-1.37 2.705c-.09.175-.02.39.156.478" transform="translate(0 .24)"/>
            <path fill="#F5EFE4" d="M76.595 120.915s-.255 2.64 10.922 3.604c10.23.884 18.718-3.962 18.718-3.962s-2.608-15.263 2.754-23.266c3.63-5.42.253-13.28-8.095-14.125 0 0-7.58-1.452-11.405-.795-9.201 1.583-12.32 14.363-13.09 21.663-.744 7.068.196 16.881.196 16.881" transform="translate(0 .24)"/>
            <path fill="#FFE2B7" d="M95.483 83.996l-.1.005c-.701.033-1.296-.508-1.33-1.21l-.21-4.393c-.034-.7.507-1.297 1.209-1.33l.099-.006c.7-.033 1.297.508 1.33 1.21l.21 4.393c.035.702-.507 1.298-1.208 1.331" transform="translate(0 .24)"/>
            <path fill="#FFC581" d="M93.864 78.856c-.208-2.19.494-2.04 1.223-2.075.73-.035 1.363.837 1.416 1.948l.14 2.909c.03.608-1.082.377-1.878-.534-.52-.597-.846-1.103-.846-1.103l-.055-1.145z" transform="translate(0 .24)"/>
            <path fill="#FFE2B7" d="M99.87 73.542c1.099-2.472.605-5.146-1.501-6.515-4.508-2.926-7.103 3.116-8.08 6.011-.788 2.338-.56 4.722-.56 4.722s2.363 1.395 4.304 1.285c1.745-.099 3.109-.365 4.392-2.678 1.145-2.064.983-1.786 1.445-2.825" transform="translate(0 .24)"/>
            <path fill="#FFE2B7" d="M98.93 74.627c-1.07.621-1.652 1.617-1.3 2.226.354.608 1.508.597 2.578-.025 1.07-.621 1.652-1.617 1.299-2.225-.353-.608-1.506-.597-2.577.024" transform="translate(0 .24)"/>
            <path fill="#F5EFE4" d="M115.194 116.955c7.763 5.051 9.167-6.984 9.167-6.984s-5.515-5.93-8.085-10.97c-8.56-16.797-12.034-15.436-14.417-11.469-.186.31-1.54 2.517-1.506 2.86.86 8.324 7.925 22.064 14.841 26.563" transform="translate(0 .24)"/>
            <path fill="#FCBD30" d="M94.82 65.15s-1.637 3.498.494 6.528c.894 1.273 3.25 2.513 5.387 3.294 7.23 2.648.541-10.58-5.88-9.822" transform="translate(0 .24)"/>
            <path fill="#FFE2B7" d="M64.918 84.715c.337.32.409.788.159 1.043l-1.231 1.332s-.45-.413-.43-.641c.049-.565 1.502-1.734 1.502-1.734" transform="translate(0 .24)"/>
            <path fill="#FFE2B7" d="M64.79 85.629c.336.321.407.788.158 1.043l-1.232 1.332s-.536-.524-.516-.751c.05-.566 1.59-1.624 1.59-1.624" transform="translate(0 .24)"/>
            <path fill="#FFE2B7" d="M64.63 86.632c.248.395.203.864-.1 1.05l-1.522.99s-.304-.506-.229-.722c.186-.536 1.851-1.318 1.851-1.318" transform="translate(0 .24)"/>
            <path fill="#FFE2B7" d="M64.384 87.476c.16.337.035.727-.277.869 0 0-1.367.76-1.47.763-.185.003-.294-.457-.209-.621.25-.488 1.956-1.011 1.956-1.011M66.523 85.233c-.372.306-.425.855-.119 1.228l1.252 1.728.925-.168-2.058-2.788z" transform="translate(0 .24)"/>
            <path fill="#7F786A" d="M76.47 119.138s1.956 3.289 11.387 3.383c9.432.094 18.17-3.57 18.17-3.57l2.838 4.079s-9.434 5.674-21.97 4.769c-12.535-.905-12.943-3.984-12.943-3.984s.662-1.49.915-1.97c.367-.696 1.603-2.707 1.603-2.707" transform="translate(0 .24)"/>
            <path fill="#A29C8F" d="M81.03 127.528L78.062 126.718 79.233 121.07 81.692 121.841zM99.82 120.926L101.477 126.592 104.36 125.546 102.493 120.102z" transform="translate(0 .24)"/>
            <path fill="#FCC23F" d="M84.585 125.231c.041.647.353 1.258.877 1.722.523.465 1.197.73 1.892.733 2.374.025 4.174-.149 5.234-.507l-.01-4.192-5.603-.075c-1.398-.019-2.47 1.021-2.39 2.32m2.579 3.256c-.841-.065-1.644-.404-2.282-.972-.704-.623-1.12-1.442-1.175-2.306v-.001c-.108-1.742 1.33-3.136 3.206-3.112l6.072.082c.129.01.242.05.33.133.09.085.142.195.142.309l.012 4.882c0 .15-.09.281-.234.34-1.141.466-3.099.687-5.816.657-.084 0-.17-.005-.255-.012" transform="translate(0 .24)"/>
            <path fill="#FCC23F" d="M87.417 125.727c-.725-.058-1.14-.15-1.177-.16-.233-.053-.374-.274-.316-.494.058-.221.298-.356.526-.303.02.003 1.871.412 4.71-.012.236-.033.457.117.493.342.036.223-.128.434-.365.469-1.658.248-2.992.228-3.87.158" transform="translate(0 .24)"/>
            <path fill="#FFC581" d="M99.38 77.251c-.068.519-.543.885-1.062.817-.518-.068-.884-.543-.816-1.062.067-.519.543-.884 1.061-.817.519.068.885.543.817 1.062" transform="translate(0 .24)"/>
            <path fill="#E7E1D3" d="M94.874 64.483c-.257 1.175-.382 2.343-.312 3.47.1 1.102.355 2.233.946 3.076.58.886 1.489 1.59 2.422 2.258.955.648 1.985 1.22 3.047 1.795-1.21-.131-2.371-.518-3.48-1.048-1.104-.538-2.16-1.283-2.92-2.38-.745-1.138-.971-2.453-.875-3.71.11-1.25.485-2.454 1.172-3.462" transform="translate(0 .24)"/>
            <path fill="#7F786A" d="M357.008 85.036s-6.02-3.136-6.191-5.214c-.293-3.556 4.653-15.737 5.606-10.929 0 0 4.657-6.01 11.379-7.447.486-.104.763.517.377.834-2 1.64-5.442 4.396-5.264 5.938 0 0 2.653-2.03 5.089-2.735.496-.143.843.467.487.845-.868.92-2.025 2.26-2.36 3.176-.612 1.684 2.055 6.077 1.77 9.27-.285 3.195-7.708 9.188-10.893 6.262" transform="translate(0 .24)"/>
            <path fill="#FCE5BE" d="M357.008 85.036c-1.758-.79-3.48-1.69-5.016-2.938-.375-.326-.753-.653-1.067-1.084-.17-.195-.3-.457-.417-.719-.106-.31-.142-.595-.142-.848-.006-1.036.159-2.008.389-2.964.465-1.906 1.096-3.75 1.885-5.55.402-.9.846-1.778 1.474-2.614.16-.209.332-.415.549-.615.23-.183.457-.438.999-.476.598-.004.913.465 1.045.733.13.291.195.561.253.826l-.97-.229c1.533-1.846 3.323-3.37 5.319-4.622 1.969-1.27 4.204-2.156 6.493-2.49-1.097.372-2.176.756-3.18 1.31-.997.55-1.978 1.123-2.885 1.808-1.807 1.356-3.48 2.951-4.881 4.664-.194.238-.543.272-.78.08-.096-.08-.16-.184-.186-.296l-.003-.012c-.051-.203-.106-.4-.176-.547-.086-.14-.113-.116-.025-.097.012-.047-.431.324-.64.66-.51.715-.926 1.57-1.34 2.407-.795 1.703-1.457 3.495-1.945 5.312-.223.91-.463 1.83-.516 2.72-.115.78.553 1.484 1.198 2.143 1.356 1.293 2.954 2.39 4.565 3.438" transform="translate(0 .24)"/>
            <path fill="#FFE2B7" d="M382.971 88.839L384.21 92.82 387.215 91.881 385.112 88.652 383.459 88.652z" transform="translate(0 .24)"/>
            <path fill="#FFE2B7" d="M385.724 86.485s1.437.652 1.72 1.111c.218.351.259 1.461.259 1.461s-2.548 1.927-3.392 1.65c-.402-.132-.91-.96-1.25-1.605-.227-.428-.127-.939.226-1.15l2.437-1.467z" transform="translate(0 .24)"/>
            <path fill="#E7E1D3" d="M392.455 94.12c10.478 5.728 9.194 21.96 8.593 31.273-.69 10.704-8.856 9.997-9.915 5.308-1.65-7.31-5.79-23.27-7.477-32.489-.422-2.306 1.121-4.485 3.397-4.792 1.75-.238 3.765-.196 5.402.7" transform="translate(0 .24)"/>
            <path fill="#FFE2B7" d="M364.112 94.049l-.193.019c-1.368.129-2.583-.873-2.713-2.242l-.369-3.863c-.13-1.368.872-2.583 2.241-2.714l.192-.018c1.37-.13 2.583.873 2.714 2.24l.37 3.864c.13 1.368-.874 2.583-2.242 2.714" transform="translate(0 .24)"/>
            <path fill="#FFC581" d="M360.813 87.711c-.117-1.229.94-2.336 2.361-2.471 1.421-.135 2.67.75 2.786 1.98l.307 3.217c.064.67-1.877.437-3.439-.471-1.024-.596-1.949-1.558-1.949-1.558l-.066-.697z" transform="translate(0 .24)"/>
            <path fill="#7F786A" d="M366.408 96.97l-.125.044c-.89.3-1.856-.176-2.157-1.065l-.686-2.025 3.347-1.134.686 2.024c.302.89-.175 1.855-1.065 2.157" transform="translate(0 .24)"/>
            <path fill="#7F786A" d="M373.89 123.983l-3.628 4.19-4.995-4.237-.373-29.02s1.36-.406 1.585-.08c6.887 9.99 7.41 29.147 7.41 29.147" transform="translate(0 .24)"/>
            <path fill="#FCE5BE" d="M362.215 97.735L358.474 92.574 361.07 90.404 365.446 93.262z" transform="translate(0 .24)"/>
            <path fill="#FFE2B7" d="M368.908 95.673L368.629 91.828 366.309 90.544 365.273 93.239z" transform="translate(0 .24)"/>
            <path fill="#E7E1D3" d="M384.724 95.2L383.489 92.354 387.685 90.534 388.919 93.38z" transform="translate(0 .24)"/>
            <path fill="#7F786A" d="M385.707 92.917c-.023.347-.323.608-.669.586-.346-.024-.608-.323-.585-.669.023-.347.322-.608.67-.585.345.022.607.322.584.668M379.165 81.336l1.25 1.794c.134.193.342.323.575.346.332.031.864.204 1.339.895.759 1.106 5.36 10.14 8.429 10.877 3.069.737 5.75-2.584 5.333-4.306-.416-1.721-5.417-1.921-6.11-3.555-.076-.182-.142-.344-.2-.489-.265-.667-.708-1.947-1.251-2.416-.532-.458-.99-.446-1.127-2.153-.05-.623 1.429-1.785 1.452-2.679.044-1.686-1.313-3.121-1.313-3.121l-8.377 4.807zM377.507 73.952c1.827 3.902 1.817 7.73-.021 8.547-1.84.818-4.81-1.683-6.636-5.585-1.827-3.903-1.818-7.73.02-8.548 1.839-.817 4.81 1.684 6.637 5.586" transform="translate(0 .24)"/>
            <path fill="#FE008C" d="M389.164 67.312c2.148 3.746 2.453 7.549.68 8.493-1.773.945-4.951-1.327-7.1-5.073-2.148-3.745-2.452-7.548-.68-8.492 1.773-.945 4.952 1.327 7.1 5.072" transform="translate(0 .24)"/>
            <path fill="#7F786A" d="M370.824 68.411L382.199 62.16 389.844 75.805 377.558 82.489z" transform="translate(0 .24)"/>
            <path fill="#A29C8F" d="M388.298 67.738c2.121 3.65 2.86 7.178 1.65 7.881-1.21.703-3.91-1.685-6.032-5.333-2.12-3.649-2.86-7.177-1.65-7.88 1.21-.704 3.911 1.684 6.032 5.332" transform="translate(0 .24)"/>
            <path fill="#A29C8F" d="M395.736 42.606s-2.577 11.712-13.416 19.785l7.577 13.27s8.408-5.764 26.738-1.817l-20.9-31.237zM388.61 84.814l-.892.346c-.07.025-.148-.01-.174-.08l-.983-2.657c-.026-.07.01-.148.08-.174 0 0 1.097-.55 1.124-.48l.845 3.044z" transform="translate(0 .24)"/>
            <path fill="#5F5EAA" d="M419.325 49.42c6.24 9.824 7.176 20.404 2.094 23.632-5.082 3.226-14.259-2.121-20.498-11.945-6.238-9.825-7.176-20.405-2.094-23.631 5.082-3.228 14.26 2.12 20.498 11.944" transform="translate(0 .24)"/>
            <path fill="#7F786A" d="M417.819 50.473c5.46 8.598 6.404 17.779 2.108 20.508-4.296 2.727-12.204-2.031-17.664-10.63-5.46-8.598-6.404-17.78-2.108-20.507 4.296-2.728 12.204 2.03 17.664 10.629" transform="translate(0 .24)"/>
            <path fill="#F4DCBD" d="M410.26 60.932l-6.417 3.925-4.99-7.841 6.559-4.011c2.148-1.314 3.378.213 4.692 2.362l.07.115c1.314 2.148 2.234 4.137.086 5.45" transform="translate(0 .24)"/>
            <path fill="#FCC23F" d="M410.46 55.267c1.31 2.063 1.536 4.268.505 4.922-1.03.654-2.929-.487-4.239-2.551-1.31-2.063-1.537-4.267-.507-4.922 1.032-.654 2.93.488 4.24 2.55" transform="translate(0 .24)"/>
            <path fill="#A29C8F" d="M419.927 70.98c-4.296 2.728-12.204-2.03-17.664-10.63-5.46-8.598-6.404-17.779-2.108-20.507 4.295-2.728 12.204 2.031 17.664 10.63 5.46 8.598 6.404 17.778 2.108 20.508m-.602-21.561c-6.238-9.825-15.415-15.172-20.497-11.945-5.082 3.227-4.145 13.807 2.094 23.631 6.238 9.824 15.416 15.172 20.498 11.946 5.082-3.228 4.144-13.808-2.095-23.633" transform="translate(0 .24)"/>
            <path fill="#7F786A" d="M389.108 84.533l-.346.201c-.14.082-.32.034-.402-.107l-1.262-2.174c-.083-.14-.035-.32.106-.403l.346-.202c.142-.08.322-.033.404.108l1.262 2.175c.082.14.034.321-.108.402" transform="translate(0 .24)"/>
            <path fill="#FFE2B7" d="M388.378 84.337c-.288.247-.367.623-.176.842l.943 1.138s.385-.316.379-.501c-.015-.463-1.146-1.479-1.146-1.479" transform="translate(0 .24)"/>
            <path fill="#FFE2B7" d="M388.442 85.087c-.289.246-.367.623-.176.841l.943 1.138s.46-.402.454-.587c-.015-.463-1.221-1.392-1.221-1.392" transform="translate(0 .24)"/>
            <path fill="#FFE2B7" d="M388.527 85.91c-.22.31-.203.694.036.858l1.193.873s.27-.398.219-.577c-.128-.444-1.448-1.154-1.448-1.154" transform="translate(0 .24)"/>
            <path fill="#FFE2B7" d="M388.69 86.608c-.145.267-.062.588.187.718 0 0 1.077.68 1.162.686.15.011.259-.359.197-.496-.181-.407-1.546-.909-1.546-.909M385.212 85.255c.388.319.444.894.124 1.282l-1.306 1.805-.966-.177 2.148-2.91zM356.06 82.59c.263-.263 1.148-.361 1.148-.361-1.302-2.366-.4-5.394 2.015-6.765 2.414-1.371 5.043-.348 6.345 2.018 0 0 1.988 3.513 2.157 4 1.104 3.19.355 4.742-1.88 6.01-2.236 1.27-4.981.67-6.41-1.301-.493.186-1.467-.264-2.332-1.118-.98-.964-1.445-2.076-1.042-2.482" transform="translate(0 .24)"/>
            <path fill="#FFC581" d="M360.584 74.94s.144-.028.216-.04c1.91-.303 3.747.727 4.768 2.581 0 0 1.988 3.515 2.157 4.002.725 2.096.649 3.547-.143 4.599-.52.687-1.217 1.09-1.217 1.09s1.44-2.712-1.423-7.35c-1.716-2.78-4.358-4.882-4.358-4.882" transform="translate(0 .24)"/>
            <path fill="#FFE2B7" d="M358.704 83.22c1.033.972 1.454 2.197.94 2.737-.513.54-1.767.32-2.8-.651-1.033-.972-1.454-2.325-.94-2.865.513-.541 1.767-.192 2.8.779" transform="translate(0 .24)"/>
            <path fill="#A29C8F" d="M323.29 84.554c.067.324-.155.638-.495.699-.34.063-.67-.15-.738-.473-.067-.325.155-.638.495-.701.341-.062.671.15.738.475" transform="translate(0 .24)"/>
            <path fill="#E7E1D3" d="M138.594 92.49c-.014 3.885-1.523 11.005-5.48 17.254-5.641 8.913-12.102 10.63-16.672 8.146-3.216-1.747-1.54-5.934 1.87-10.913 7.733-11.286 15.679-19.677 15.679-19.677s4.609 3.455 4.603 5.19" transform="translate(0 .24)"/>
            <path fill="#FFE2B7" d="M136.844 83.041s-.515 2.273-1.901 2.618c-.896.223-.828-.51-.861-.864-.033-.353.757-1.883 1.805-2.239 1.049-.358.957.485.957.485M319.827 74.3c-.515.066-.408.335-.333.926l.325.89.181 1.712 1.038-.113-.361-1.827-.85-1.587zM318.162 77.6c-.31.344-.241.91.154 1.268l1.805 1.629-.232-1.32-1.727-1.576z" transform="translate(0 .24)"/>
            <path fill="#FFE2B7" d="M318.924 79.682s.333 2.135 1.688 2.472c.875.217.809-.5.84-.844.034-.345-.738-1.841-1.763-2.19-1.025-.348-.765.562-.765.562" transform="translate(0 .24)"/>
            <path fill="#FFCC29" d="M437.418 35.532L426.295 47.983 425.704 43.918 415.946 53.16 427.457 38.928 428.552 42.652zM423.808 5.997L417.781 32.002 413.828 26.756 407.249 47.213 412.451 18.413 416.848 22.793zM460.841 64.91L437.375 60.796 437.802 64.993 418.507 65.797 442.886 69.668 442.544 65.499zM46.284 48.227L35.447 32.043 40.212 32.556 32.604 18.847 45.341 35.986 40.815 36.142zM27.383 62.309L12.445 60.831 15.084 58.247 3.199 56.059 19.637 56.874 17.513 59.643zM33.178 48.134L11.762 40.18 16.647 37.397.001 29.579 23.879 37.139 19.681 40.393zM38.742 71.328L20.853 77.354 22.721 79.783 9.578 87.316 28.012 80.807 26.214 78.365z" transform="translate(0 .24)"/>
        </g>
    </g>
</svg>
