<svg xmlns="http://www.w3.org/2000/svg" xmlns:xlink="http://www.w3.org/1999/xlink" width="262" height="297" viewBox="0 0 262 297">
    <defs>
        <path id="prefix__a" d="M0.332 0.281L248.771 0.281 248.771 12.956 0.332 12.956z"/>
        <path id="prefix__c" d="M0 0.757L130.431 0.757 130.431 215.431 0 215.431z"/>
        <path id="prefix__e" d="M.579 4.506s117.433 94.33 119.742 91.037c4.425-6.306 6.364-14.372 5.746-21.925-.942-11.496-6.801-21.984-13.46-31.496-6.9-9.86-14.863-19.147-24.597-26.536C78.276 8.197 66.791 1.78 54.204 1.183 50.264.996 46.52.915 42.974.915 22.016.915 7.944 3.76.579 4.505"/>
        <path id="prefix__g" d="M.559 5.054c0 2.293 1.859 4.153 4.152 4.153s4.151-1.86 4.151-4.153C8.862 2.76 7.004.9 4.711.9 2.418.9.559 2.76.559 5.054"/>
        <path id="prefix__j" d="M.707 3.154c0 1.605 1.301 2.908 2.906 2.908 1.605 0 2.906-1.303 2.906-2.908 0-1.606-1.3-2.908-2.906-2.908C2.008.246.707 1.548.707 3.154"/>
        <linearGradient id="prefix__h" x1="100%" x2=".008%" y1="49.998%" y2="49.998%">
            <stop offset="0%" stop-color="#FFB218"/>
            <stop offset="100%" stop-color="#FFCF44"/>
        </linearGradient>
        <linearGradient id="prefix__k" x1="99.993%" x2="-.008%" y1="49.998%" y2="49.998%">
            <stop offset="0%" stop-color="#FFB218"/>
            <stop offset="100%" stop-color="#FFCF44"/>
        </linearGradient>
    </defs>
    <g fill="none" fill-rule="evenodd">
        <g transform="translate(0 .24)">
            <g transform="translate(12.95 282.05)">
                <mask id="prefix__b" fill="#fff">
                    <use xlink:href="#prefix__a"/>
                </mask>
                <path fill="#F7E8C8" d="M248.772 6.619c0-3.501-55.615-6.338-124.22-6.338C55.948.281.332 3.118.332 6.62c0 3.5 55.616 6.337 124.22 6.337 68.605 0 124.22-2.837 124.22-6.337" mask="url(#prefix__b)"/>
            </g>
            <mask id="prefix__d" fill="#fff">
                <use xlink:href="#prefix__c"/>
            </mask>
            <path fill="#619440" d="M112.254 215.306C69.82 219.404 29.326 121.683 13.81 82.422 3.606 56.602 1.747 28.42 0 .757 44.33 15.66 97.902 49.945 119.247 91.12c3.545 6.838 6.023 17.68 7.449 25.231 2.984 15.812 4.651 67.145 3.208 83.179-.45 5.02 1.374 13.938-17.65 15.776" mask="url(#prefix__d)"/>
            <path fill="#306B34" d="M5.256 7.802c.893-.772 2.25-.684 3.031.197 9.744 10.976 18.865 21.968 27.476 33.12 2.2-6.087 3.106-11.112 3.227-17.543.023-.778.67-1.403 1.463-1.387.788.014 1.417.659 1.405 1.442-.088 4.493-.557 8.416-1.554 12.437-.616 2.485-1.434 5.006-2.486 7.725 6.75 8.85 13.182 17.81 19.342 26.951.353-3.496.95-6.95 1.535-10.334.657-3.789 1.162-6.45 1.667-9.102.506-2.67 1.014-5.332 1.671-9.146.132-.778.876-1.288 1.656-1.157.78.131 1.304.864 1.171 1.633-.662 3.834-1.173 6.51-1.68 9.193-.502 2.641-1.005 5.285-1.659 9.059-.779 4.495-1.578 9.118-1.772 13.728 7.485 11.316 14.568 22.927 21.34 34.968l6.651-21.791c1.047-3.431 2.136-6.986 2.246-10.58.035-.768.686-1.394 1.475-1.37.793.023 1.415.675 1.39 1.455-.066 2.2-.447 4.328-.96 6.403-.414 1.668-.915 3.302-1.41 4.911l-7.46 24.445c8.144 14.711 15.846 30.07 23.254 46.338.207.448.24.93.129 1.374-.152.615-.577 1.155-1.206 1.433-1.083.48-2.354.004-2.84-1.066-3.368-7.392-6.8-14.587-10.301-21.628h-.007c-7.676-1.01-13.615-2.055-19.362-3.066-5.716-1.005-11.624-2.045-19.24-3.047-.784-.103-1.337-.815-1.23-1.59.101-.762.823-1.32 1.609-1.216 7.676 1.011 13.616 2.057 19.362 3.067 5.226.918 10.63 1.865 17.334 2.788-4.51-8.95-9.144-17.645-13.937-26.12-9.242-1.954-17.248-3.693-25.25-5.432-8.25-1.793-16.5-3.583-26.108-5.612-.772-.164-1.265-.916-1.102-1.679.272-.758.927-1.253 1.702-1.09 9.614 2.03 17.87 3.824 26.124 5.618 7.272 1.578 14.545 3.157 22.749 4.9-5.57-9.696-11.357-19.118-17.406-28.34-.035-.031-.061-.07-.092-.105-.278.098-.588.116-.89.024-15.65-4.702-27.461-7.224-43.58-9.306-.785-.101-1.338-.811-1.235-1.586.119-.795.826-1.322 1.608-1.22 15.554 2.007 27.143 4.425 41.93 8.777-5.57-8.355-11.364-16.553-17.419-24.649-11.248-4.842-17.515-5.717-29.23-5.725-.792-.002-1.433-.636-1.433-1.418-.002-.781.642-1.412 1.432-1.415 11.045.01 17.492.953 25.89 4.136-9.114-11.94-18.811-23.68-29.218-35.406-.788-.879-.698-2.221.198-2.996"/>
            <path fill="#FFDE8E" d="M35.445 183.902c5.508 37.638 37.177 82.929 73.772 97.811 11.688 4.752 25.789 7.51 37.02 1.339 10.651-5.854 15.638-18.543 14.697-30.038-.941-11.495-6.801-21.984-13.46-31.496-6.9-9.86-14.863-19.148-24.597-26.537-9.735-7.388-21.22-13.804-33.806-14.402-27.234-1.292-45.014 2.452-53.626 3.323"/>
        </g>
        <g transform="translate(34.867 179.635)">
            <mask id="prefix__f" fill="#fff">
                <use xlink:href="#prefix__e"/>
            </mask>
            <path fill="#FFBF4D" d="M.579 4.506s117.433 94.33 119.742 91.037c4.425-6.306 6.364-14.372 5.746-21.925-.942-11.496-6.801-21.984-13.46-31.496-6.9-9.86-14.863-19.147-24.597-26.536C78.276 8.197 66.791 1.78 54.204 1.183 50.264.996 46.52.915 42.974.915 22.016.915 7.944 3.76.579 4.505" mask="url(#prefix__f)"/>
        </g>
        <path fill="#306B34" d="M5.126 245.64c0 3.475 2.816 6.292 6.29 6.292s6.29-2.817 6.29-6.292c0-3.475-2.816-6.293-6.29-6.293s-6.29 2.818-6.29 6.293"/>
        <g transform="translate(20.92 232.457)">
            <mask id="prefix__i" fill="#fff">
                <use xlink:href="#prefix__g"/>
            </mask>
            <path fill="url(#prefix__h)" d="M.559 5.054c0 2.293 1.859 4.153 4.152 4.153s4.151-1.86 4.151-4.153C8.862 2.76 7.004.9 4.711.9 2.418.9.559 2.76.559 5.054" mask="url(#prefix__i)"/>
        </g>
        <g transform="translate(11.954 226.477)">
            <mask id="prefix__l" fill="#fff">
                <use xlink:href="#prefix__j"/>
            </mask>
            <path fill="url(#prefix__k)" d="M.707 3.154c0 1.605 1.301 2.908 2.906 2.908 1.605 0 2.906-1.303 2.906-2.908 0-1.606-1.3-2.908-2.906-2.908C2.008.246.707 1.548.707 3.154" mask="url(#prefix__l)"/>
        </g>
        <g>
            <path fill="#FFE2B7" d="M10.022 176.583s.642.952 1.2 1.14c.426.142 2.363-1.035 2.363-1.035s.586-2.692.431-3.745c-.106-.732-.711-1.654-1.481-1.848-.511-.127-1.03.175-1.169.684l-1.344 4.804z" transform="translate(81.688 .24)"/>
            <path fill="#FFE2B7" d="M13.55 179.376c.497-.17.761-.712.591-1.209l-.779-2.271-.9.309 1.088 3.171z" transform="translate(81.688 .24)"/>
            <path fill="#FFE2B7" d="M12.672 180.763c.522-.126.829-.713.684-1.31l-.656-2.734-.945.227.917 3.817z" transform="translate(81.688 .24)"/>
            <path fill="#FFE2B7" d="M11.894 181.15c.522-.126.829-.713.684-1.31l-.656-2.736-.946.228.918 3.817z" transform="translate(81.688 .24)"/>
            <path fill="#FFE2B7" d="M10.543 180.068c.47-.066.788-.555.712-1.093l-.343-2.456-.89.064.521 3.485zM15.581 176.83c-.52.131-1.24-.078-1.388-.676l-.942-2.747.73-.549 1.6 3.973zM13.723 169.777L13.588 172.305 11.529 172.289 11.653 169.587z" transform="translate(81.688 .24)"/>
            <path fill="#E7E1D3" d="M16.27 166.564L15.183 171.204 9.199 170.321 8.566 165.269z" transform="translate(81.688 .24)"/>
            <path fill="#F5EFE4" d="M5.331 165.636c-8.616-7.823-3.372-34.024-.008-42.37 5.47-13.57 10.695-18.185 16.22-15.053 0 0 .437 17.927.643 22.473.333 7.298-1.147 26.676-1.98 34.747-.198 1.914-2.487 3.543-4.363 3.37-2.252-.209-8.845-1.654-10.512-3.167" transform="translate(81.688 .24)"/>
            <path fill="#57575E" d="M58.227 60.741c.551-2.143 1.294-6.956-.176-8.644-2.516-2.884-15.418-8.083-12.417-3.744 0 0-7.961-.822-13.902 3.398-.43.306-.152.987.369.92 2.697-.351 7.287-1.003 8.343.287 0 0-3.467.575-5.761 1.966-.466.284-.248 1.012.298 1.014 1.33.004 3.19.091 4.134.514 1.732.776 3.183 6.153 5.837 8.313 1.183.962 4.808 4.135 7.365 3.713 3.18-.524 5.264-5.218 5.91-7.737" transform="translate(81.688 .24)"/>
            <path fill="#57575E" d="M58.051 52.098c-.964-.89-2.132-1.493-3.283-2.086-1.164-.577-2.363-1.083-3.582-1.521-1.208-.453-2.442-.863-3.676-1.108-.596-.118-1.273-.189-1.682-.081-.195.13.002-.079-.027.065.026.142.195.406.35.63.197.283.126.674-.159.871-.115.08-.247.116-.377.111h-.045c-3.905-.125-8.02.46-11.474 2.27-.424.236-.86.453-1.254.735l-.605.4c-.066.053.08-.07.081-.144.023-.09.014-.157-.012-.213-.025-.055-.081-.112-.166-.145-.073-.037-.223-.004-.014-.03l.761-.091 1.537-.169c1.033-.096 2.073-.176 3.145-.155.537.013 1.085.054 1.65.154.557.133 1.203.263 1.788.906.262.29.241.738-.048.999-.103.095-.228.152-.355.174l-.042.007c-1.719.297-3.477.803-5.032 1.524l-.511.262c.035-.03.038-.11.022-.102.01-.003-.076-.034-.04-.016l.7.03c.934.057 1.867.132 2.824.372.444.099 1.044.335 1.412.746.378.376.635.783.88 1.19.475.819.846 1.66 1.243 2.484.797 1.635 1.573 3.31 2.892 4.598-1.5-1.101-2.459-2.768-3.406-4.323-.47-.788-.933-1.58-1.432-2.313-.246-.363-.51-.72-.8-.972-.268-.264-.568-.355-1.014-.446-.831-.16-1.738-.187-2.63-.19l-.673.01c-.426.036-.96-.296-1.103-.736-.187-.416-.06-1.031.353-1.336.309-.21.445-.283.68-.418 1.717-.935 3.527-1.416 5.398-1.8l-.445 1.178c-.277-.324-1.42-.483-2.33-.468-.967 0-1.963.092-2.958.205l-1.5.194-.757.105c-.04.01-.454.08-.769-.053-.326-.118-.577-.368-.713-.65-.139-.283-.187-.62-.09-.955.07-.323.396-.648.545-.729l.68-.431c.444-.303.926-.535 1.397-.784 1.907-.968 3.963-1.545 6.03-1.892 2.08-.334 4.154-.463 6.283-.233l-.58.983c-.189-.329-.4-.62-.496-1.126-.05-.225-.047-.6.17-.911.22-.301.51-.415.74-.478.882-.152 1.53.03 2.202.182 1.317.343 2.552.83 3.76 1.373 1.197.563 2.362 1.188 3.485 1.882 1.113.696 2.231 1.447 3.072 2.465" transform="translate(81.688 .24)"/>
            <path fill="#FFC581" d="M77.346 286.904c-.829.056-1.545-.571-1.6-1.4l-.524-7.807c-.055-.829.571-1.546 1.4-1.602.828-.055 1.545.572 1.6 1.4l.524 7.807c.056.83-.57 1.546-1.4 1.602" transform="translate(81.688 .24)"/>
            <path fill="#7F786A" d="M67.45 288.215c.019.453.386.806.82.787l10.537-.454c.556-.024.95-.575.815-1.14l-.238-1.994c-.068-.569-.543-.99-1.091-.967 0 0-.233.89-1.219 1.068-.797.145-1.096-.537-1.208-1.033-.055-.238-.308-.373-.532-.276l-7.418 3.222c-.296.137-.482.449-.467.787" transform="translate(81.688 .24)"/>
            <path fill="#FFC581" d="M42.505 286.59c-.83.02-1.519-.64-1.538-1.47l-.182-7.821c-.02-.832.637-1.521 1.468-1.54.83-.02 1.518.638 1.538 1.469l.183 7.821c.018.832-.639 1.52-1.469 1.54" transform="translate(81.688 .24)"/>
            <path fill="#7F786A" d="M32.63 287.735c.02.453.387.805.82.786l10.537-.458c.556-.024.95-.574.815-1.138l-.24-1.996c-.067-.57-.543-.99-1.091-.966 0 0-.232.889-1.217 1.068-.797.145-1.097-.537-1.21-1.033-.054-.238-.308-.373-.532-.276l-7.416 3.227c-.296.136-.482.447-.467.786" transform="translate(81.688 .24)"/>
            <path fill="#A29C8F" d="M48.96 129.479c3.294 5.068-1.95 21.6-1.95 21.6l-.2 61.469-1.74 68.003-15.245 1.018s-10.678-64.19-11.66-81.259c-2.911-50.64 4.894-74.808 6.298-77.222 3.323 2.012 15.843 7.814 24.497 6.39" transform="translate(81.688 .24)"/>
            <path fill="#7F786A" d="M67.745 124.98c3.533 9.98 13.29 28.191 14.057 41.715 1.3 22.936 1.695 114.394 1.695 114.394l-13.897-.84-25.08-111.02-3.53-41.746s23.816-1.882 26.755-2.503" transform="translate(81.688 .24)"/>
            <path fill="#F5EFE4" d="M20.423 135.466l-15.1-12.199s11.105-30.456 13.596-37.17C21.962 77.89 30.431 72.8 35.947 73.362c0 0-1.17 11.164-3.476 23.709-3.331 18.127-12.048 38.395-12.048 38.395" transform="translate(81.688 .24)"/>
            <path fill="#F5EFE4" d="M23.125 128.86s10.03 3.422 23.22 2.702c12.073-.66 22.276-4.38 22.276-4.38s6.185-25.034 6.893-33.573c.753-9.082-7.912-20.415-21.424-20.785-4.37-.12-17.722.331-17.722.331-9.873.367-14.775 15.134-14.438 24.243l1.195 31.462z" transform="translate(81.688 .24)"/>
            <path fill="#E7E1D3" d="M84.256 123.806c4.577.188 9.039 1.346 8.553-2.127-1.288-9.205-4.915-22.435-9.508-29.869-5.328-8.622-10.52-15.199-22.731-17.82 0 0 7.863 14.405 11.383 28.751 1.656 6.748 2.62 17.802 2.62 17.802s1.774 2.937 9.683 3.263" transform="translate(81.688 .24)"/>
            <path fill="#FFE2B7" d="M50.988 75.475c-1.635.063-3.01-1.211-3.073-2.846l-.135-3.489c-.062-1.635 1.212-3.012 2.847-3.074 1.633-.063 3.01 1.21 3.073 2.846l.133 3.488c.063 1.636-1.21 3.013-2.845 3.075" transform="translate(81.688 .24)"/>
            <path fill="#FFC581" d="M47.765 68.74c-.054-1.414 1.227-2.611 2.861-2.675 1.634-.062 3.004 1.033 3.058 2.447l.142 3.7c.03.772-2.174.379-3.903-.761-1.132-.748-2.127-1.909-2.127-1.909l-.03-.802z" transform="translate(81.688 .24)"/>
            <path fill="#FFE2B7" d="M55.225 59.797c-.369-.032-.731.424-.977 1.13l-.126-.652c-.528-2.713-3.155-4.484-5.867-3.955-2.711.528-4.482 3.156-3.954 5.868 0 0 .417 2.812 1.008 4.386 1.326 3.53 3.123 4.033 5.633 3.543 2.51-.49 4.21-2.778 4.03-5.268.494-.181.944-1.179 1.054-2.419.124-1.404-.234-2.582-.801-2.633" transform="translate(81.688 .24)"/>
            <path fill="#FFC581" d="M55.225 59.797c-.369-.032-.731.424-.977 1.13l-.126-.652c-.484-2.485-2.728-4.18-5.185-4.04-.116.006 1.903 2.09 2.587 6.698.806 5.436-.268 7.113-.208 7.097 2.303-.634 3.827-2.817 3.656-5.18.494-.182.944-1.18 1.054-2.42.124-1.404-.234-2.582-.801-2.633" transform="translate(81.688 .24)"/>
            <path fill="#FFE2B7" d="M79.803 164.326L79.757 166.858 81.811 166.989 81.881 164.285z" transform="translate(81.688 .24)"/>
            <path fill="#E7E1D3" d="M77.493 160.939L78.244 165.645 84.277 165.195 85.27 160.2z" transform="translate(81.688 .24)"/>
            <path fill="#E7E1D3" d="M88.47 160.797c9.154-7.185 7.16-29.63 4.402-38.194-4.484-13.929-14.685-20.745-20.421-18.017 0 0 2.242 15.624 1.71 20.142-.854 7.257-.767 26.69-.513 34.801.06 1.923 2.227 3.712 4.11 3.673 2.262-.046 8.941-1.015 10.712-2.405" transform="translate(81.688 .24)"/>
            <path fill="#7F786A" d="M47.904 74.9l4.824.307s.48 4.232-2.432 4.324c-2.912.092-2.392-4.631-2.392-4.631" transform="translate(81.688 .24)"/>
            <path fill="#7F786A" d="M49.506 77.5s-6.434 13.47-8.038 23.293c-1.62 9.916-2.084 14.6-2.084 14.6l6.166 4.117 6.704-4.287-1.45-37.222-1.298-.5z" transform="translate(81.688 .24)"/>
            <path fill="#E7E1D3" d="M53.726 78.505L55.936 72.937 53.787 70.88 50.703 74.602 50.556 75.658z" transform="translate(81.688 .24)"/>
            <path fill="#E7E1D3" d="M46.699 77.883L46.337 72.902 47.862 70.969 50.913 74.681 50.764 75.586z" transform="translate(81.688 .24)"/>
            <path fill="#FFE2B7" d="M77.227 169.673c.43.293 1.016.182 1.31-.249l1.337-1.967-.779-.53-1.868 2.746z" transform="translate(81.688 .24)"/>
            <path fill="#A29C8F" d="M72.813 179.269c.101.01.205.008.31-.006.733-.098 1.247-.77 1.15-1.505l-.726-5.458 14.92-1.987.726 5.459c.098.734.775 1.247 1.504 1.15.734-.097 1.249-.77 1.15-1.503l-.902-6.787c-.047-.352-.232-.672-.514-.887-.283-.216-.64-.311-.99-.264l-17.575 2.34c-.733.097-1.248.771-1.15 1.505l.902 6.786c.084.629.59 1.097 1.195 1.157" transform="translate(81.688 .24)"/>
            <path fill="#FCC23F" d="M92.504 175.274L98.856 174.428 98.658 172.935 92.305 173.782zM64.474 179.006L70.827 178.16 70.628 176.668 64.276 177.514z" transform="translate(81.688 .24)"/>
            <path fill="#A29C8F" d="M68.36 209.527l34.848-4.64c1.918-.256 3.267-2.02 3.01-3.938l-1.985-14.926c-.932-7.004-7.362-11.926-14.363-10.993l-16.445 2.19c-7 .932-11.92 7.365-10.988 14.369l1.986 14.927c.255 1.918 2.017 3.268 3.936 3.011" transform="translate(81.688 .24)"/>
            <path fill="#7F786A" d="M62.893 195.014l41.795-5.566-1.709-12.85c-.255-1.918-2.017-3.267-3.936-3.012l-34.848 4.641c-1.919.255-3.267 2.02-3.012 3.937l1.71 12.85z" transform="translate(81.688 .24)"/>
            <path fill="#7F786A" d="M97.527 195.636l.399-.054c1.015-.135 1.728-1.067 1.593-2.083l-.667-5.011c-.134-1.015-1.067-1.728-2.082-1.594l-.398.054c-1.015.136-1.729 1.067-1.593 2.083l.666 5.01c.135 1.016 1.067 1.73 2.082 1.595" transform="translate(81.688 .24)"/>
            <path fill="#FCC23F" d="M98.414 189.611l-2.918.389.388 2.919 2.918-.389-.388-2.919zm-3.356 3.87l-.506-3.806c-.033-.245.139-.47.384-.501l3.802-.507c.244-.032.47.139.501.384l.506 3.804c.033.245-.138.47-.383.502l-3.803.507c-.034.004-.07.004-.103.002-.201-.021-.37-.177-.398-.386z" transform="translate(81.688 .24)"/>
            <path fill="#7F786A" d="M70.2 199.275l.399-.054c1.015-.135 1.728-1.067 1.593-2.083l-.667-5.01c-.134-1.015-1.067-1.73-2.082-1.595l-.398.054c-1.015.136-1.729 1.067-1.593 2.083l.666 5.01c.135 1.016 1.067 1.73 2.082 1.595" transform="translate(81.688 .24)"/>
            <path fill="#FCC23F" d="M71.086 193.25l-2.917.39.388 2.918 2.918-.389-.389-2.919zm-3.355 3.87l-.506-3.806c-.033-.244.138-.468.384-.5l3.802-.508c.118-.016.236.015.33.09.093.07.155.177.171.294l.506 3.804c.033.245-.138.47-.383.503l-3.803.506c-.035.004-.069.004-.102.002-.202-.021-.371-.177-.399-.386z" transform="translate(81.688 .24)"/>
            <path fill="#FFE2B7" d="M79.64 171.079s1.567.889 2.133.814c.432-.056.918-.742.95-1.177.085-1.141-.006-3.603-.844-4.207-.4-.287-1.417-.145-2.17.015-.5.106-.822.59-.727 1.092l.658 3.463z" transform="translate(81.688 .24)"/>
            <path fill="#FFE2B7" d="M79.826 171.932c-.27-.565-.61-3.06-.61-3.06l1.032-.114s.406 2.51.339 3.089c-.037.32-.607.41-.761.085" transform="translate(81.688 .24)"/>
            <path fill="#FFE2B7" d="M80.721 172.307c-.273-.564-.613-3.06-.613-3.06l1.048-.116s.406 2.51.338 3.09c-.037.32-.616.41-.773.086" transform="translate(81.688 .24)"/>
            <path fill="#FFE2B7" d="M81.494 172.063c-.25-.567-.585-3.064-.585-3.064l.937-.104s.393 2.513.338 3.09c-.03.32-.547.404-.69.078" transform="translate(81.688 .24)"/>
            <path fill="#FFE2B7" d="M82.2 171.67c-.25-.568-.584-3.064-.584-3.064l.937-.103s.392 2.512.338 3.089c-.03.32-.548.403-.691.079" transform="translate(81.688 .24)"/>
            <path fill="#FFF" d="M43.242 62.868l4.78-.939s.348 2.709-1.785 3.204c-2.081.485-2.995-2.265-2.995-2.265M54.328 60.729l-4.835.949s.705 2.639 2.89 2.286c2.134-.344 1.945-3.235 1.945-3.235" transform="translate(81.688 .24)"/>
            <path fill="#FFF" d="M44.01 64.172L44.481 62.699 45.812 62.452 44.903 64.996zM45.575 65.048L46.444 62.37 46.956 62.255 46.231 65.088zM50.149 63.107L50.932 61.504 52.263 61.257 51.355 63.8zM52.027 63.851L52.895 61.173 53.407 61.059 52.682 63.892z" transform="translate(81.688 .24)"/>
            <path fill="#57575E" d="M49.432 62.256c-.562-.098-1.29.226-1.297.229l-.246-.544c.037-.016.902-.402 1.645-.274l-.102.589z" transform="translate(81.688 .24)"/>
            <path fill="#57575E" d="M43.303 63.177c1.593-.311 3.187-.625 4.78-.937l-.37-.25c.145 1.226-.364 2.71-1.755 2.874-1.231.146-2.082-1.111-2.434-2.137-.13-.383-.694-.099-.564.282.478 1.395 1.729 2.796 3.338 2.434 1.613-.36 2.21-2.082 2.034-3.574-.02-.17-.213-.281-.37-.25l-4.78.94c-.399.077-.278.697.121.618M54.266 60.416l-4.834.95c-.158.031-.296.206-.25.373.405 1.46 1.627 2.813 3.262 2.536 1.633-.275 2.284-2.037 2.2-3.523-.023-.402-.655-.454-.633-.048.062 1.108-.272 2.548-1.469 2.903-1.349.4-2.408-.805-2.737-1.99l-.25.372 4.834-.949c.4-.079.279-.702-.123-.624" transform="translate(81.688 .24)"/>
            <path fill="#FCC23F" d="M134.583 107.08c12.261.508 22.649-9.059 23.157-21.325.507-12.266-9.055-22.66-21.316-23.168-12.261-.506-22.648 9.06-23.157 21.326-.507 12.265 9.055 22.658 21.316 23.166m1.93-46.644c13.447.558 23.934 11.955 23.379 25.408-.557 13.454-11.95 23.946-25.399 23.39-13.446-.557-23.933-11.956-23.377-25.41.557-13.453 11.95-23.945 25.397-23.388" transform="translate(81.688 .24)"/>
            <path fill="#FCC23F" d="M134.835 100.98c.595.024 1.056.526 1.031 1.121l-.118 2.87c-.024.595-.526 1.056-1.12 1.032-.595-.024-1.057-.526-1.032-1.121l.119-2.87c.025-.596.527-1.056 1.12-1.032M136.38 63.664c.593.025 1.056.526 1.03 1.121l-.118 2.87c-.025.596-.526 1.057-1.12 1.032-.594-.024-1.057-.526-1.032-1.12l.119-2.871c.025-.594.527-1.056 1.12-1.032M119.365 84.165c-.025.595-.526 1.057-1.121 1.032l-2.87-.119c-.593-.024-1.055-.526-1.03-1.12.025-.595.526-1.057 1.12-1.032l2.87.118c.593.025 1.056.526 1.03 1.121M156.663 85.71c-.024.595-.526 1.056-1.12 1.032l-2.87-.12c-.593-.023-1.055-.525-1.03-1.12.024-.594.526-1.057 1.12-1.032l2.87.119c.593.025 1.055.526 1.03 1.121" transform="translate(81.688 .24)"/>
            <path fill="#FF881D" d="M138.926 80.39l-9.445 13.147c-.092.127-.287.004-.212-.133l7.82-14.36c.267-.492.789-.789 1.347-.769l.26.01c.304.01.543.265.532.571l-.025.725c-.011.29-.107.573-.277.809" transform="translate(81.688 .24)"/>
            <path fill="#FCC23F" d="M150.759 94.237l-19.847-14.27c-.209-.152-.482-.177-.716-.07l-.74.337c-.388.178-.644.561-.658.988l-.022.606c-.01.26.122.503.344.638l20.747 12.603.862.03.03-.862z" transform="translate(81.688 .24)"/>
            <path fill="#FCC23F" d="M132.13 84.523c.059-1.666 1.456-2.968 3.12-2.91 1.665.06 2.967 1.457 2.91 3.123-.06 1.665-1.457 2.967-3.122 2.91-1.665-.06-2.967-1.457-2.908-3.123" transform="translate(81.688 .24)"/>
            <path fill="#FFE7C0" d="M70.074 14.518c9.45-12.515 54.12-21.36 68.044-4.299 8.79 10.77.692 34.005-7.987 39.241-15.66 9.446-46.834 6.435-56.364.376-8.313-5.283-13.145-22.803-3.693-35.318M64.443 59.218c-.218 3.076 4.15 5.891 9.755 6.29 5.604.398 10.325-1.773 10.543-4.849.219-3.075-4.149-5.89-9.754-6.289-5.605-.398-10.326 1.772-10.544 4.848M57.59 66.647c0 1.501 2.145 2.718 4.792 2.718s4.793-1.217 4.793-2.718c0-1.5-2.146-2.717-4.793-2.717-2.647 0-4.793 1.217-4.793 2.717" transform="translate(81.688 .24)"/>
            <path fill="#FF881D" d="M110.16 18.376c.6.088 1.184-.496 1.302-1.305.118-.809-.273-1.536-.874-1.623l-6.523-.956-4.348-.638c-.6-.087-1.184.498-1.302 1.305-.119.81.273 1.536.873 1.623l4.349.638c1.416.208 2.432 1.61 2.633 3.378l-7.41-1.085c-.602-.09-1.184.496-1.303 1.304-.118.809.273 1.536.874 1.624l7.41 1.085c-.7 1.637-2.075 2.688-3.49 2.48L98 25.57c-.141-.021-.287-.003-.43.05-.288.111-.543.364-.706.708-.164.34-.223.746-.165 1.119.028.189.085.362.168.512l6.981 12.987c.171.318.428.501.707.542.278.041.577-.061.832-.315.507-.509.644-1.437.303-2.07l-5.493-10.22 1.723.253c2.627.386 5.19-1.812 6.184-5.078l1.197.176c.601.088 1.184-.497 1.302-1.305.119-.808-.273-1.536-.872-1.625l-1.199-.174c-.004-1.113-.22-2.152-.576-3.077l2.203.323z" transform="translate(81.688 .24)"/>
            <path fill="#FCC23F" d="M111.078 17.458c.6.088 1.183-.497 1.301-1.305.119-.809-.272-1.536-.873-1.624l-6.523-.956-4.35-.636c-.599-.09-1.182.496-1.3 1.304-.119.808.273 1.536.872 1.624l4.35.638c1.415.207 2.432 1.61 2.632 3.377l-7.41-1.086c-.6-.088-1.183.497-1.302 1.304-.119.81.273 1.536.873 1.625l7.41 1.085c-.699 1.637-2.074 2.688-3.49 2.481l-4.349-.637c-.141-.02-.288-.004-.431.05-.288.11-.542.364-.705.709-.164.34-.223.744-.165 1.118.028.19.085.362.168.511l6.981 12.987c.171.318.428.503.706.543.28.04.578-.061.833-.314.507-.51.644-1.438.303-2.071l-5.494-10.22 1.724.253c2.627.385 5.19-1.813 6.184-5.078l1.197.176c.6.088 1.184-.497 1.302-1.306.118-.807-.273-1.536-.872-1.624l-1.199-.174c-.004-1.113-.22-2.152-.576-3.077l2.203.323z" transform="translate(81.688 .24)"/>
            <path fill="#FF881D" d="M127.634 25.814c.44.17.983-.173 1.212-.766.228-.592.057-1.211-.383-1.38l-4.783-1.852-3.19-1.231c-.438-.17-.981.172-1.21.765-.23.592-.058 1.21.382 1.381l3.188 1.234c1.038.4 1.568 1.64 1.416 3.015l-5.434-2.1c-.44-.17-.983.172-1.212.765-.228.593-.058 1.211.382 1.382l5.434 2.1c-.812 1.12-2.037 1.682-3.075 1.28l-3.187-1.232c-.105-.041-.219-.053-.337-.037-.237.035-.473.183-.657.415-.183.23-.297.527-.316.82-.012.15 0 .29.037.417l3.059 11.054c.075.27.239.454.443.533.203.079.448.053.685-.095.473-.297.736-.98.586-1.518l-2.407-8.7 1.266.491c1.925.745 4.247-.481 5.563-2.785l.878.34c.44.169.983-.174 1.212-.767.23-.593.058-1.212-.382-1.382l-.879-.34c.19-.844.203-1.667.094-2.432l1.615.625z" transform="translate(81.688 .24)"/>
            <path fill="#FCC23F" d="M126.716 25.355c.44.17.983-.173 1.212-.766.23-.592.058-1.21-.382-1.381l-4.784-1.85-3.188-1.233c-.44-.17-.983.174-1.212.766-.23.593-.058 1.212.382 1.381l3.189 1.234c1.038.402 1.567 1.64 1.415 3.015l-5.434-2.1c-.44-.17-.983.172-1.212.764-.228.593-.057 1.213.383 1.383l5.434 2.1c-.813 1.12-2.037 1.682-3.075 1.28l-3.188-1.233c-.104-.04-.218-.053-.337-.036-.236.034-.473.183-.657.415-.182.23-.296.526-.316.82-.012.15.002.29.038.418l3.058 11.053c.076.27.239.455.443.534.203.079.448.053.686-.096.472-.298.735-.979.586-1.518l-2.407-8.698 1.265.489c1.925.744 4.247-.48 5.563-2.786l.878.34c.44.17.983-.172 1.212-.765.23-.593.058-1.212-.382-1.383l-.879-.34c.19-.844.203-1.668.094-2.431l1.615.624z" transform="translate(81.688 .24)"/>
            <path fill="#FF881D" d="M88.825 20.929c.462-.027.807-.553.772-1.174-.036-.622-.44-1.104-.901-1.077l-5.014.288-3.343.193c-.461.026-.806.552-.77 1.173.035.621.438 1.104.9 1.077l3.343-.192c1.087-.062 2.06.828 2.482 2.116l-5.696.328c-.461.027-.806.553-.77 1.174.035.62.438 1.103.9 1.077l5.696-.328c-.271 1.328-1.136 2.325-2.224 2.386l-3.343.194c-.109.006-.215.042-.314.103-.197.127-.349.355-.418.636-.07.28-.051.591.05.86.05.138.118.257.203.357l7.201 8.617c.177.211.397.31.61.298.215-.013.422-.135.574-.363.3-.457.26-1.172-.092-1.591l-5.667-6.783 1.326-.076c2.018-.116 3.593-2.149 3.833-4.738l.921-.052c.462-.028.807-.553.772-1.174-.036-.622-.44-1.105-.901-1.078l-.92.053c-.175-.83-.496-1.571-.903-2.206l1.693-.098z" transform="translate(81.688 .24)"/>
            <path fill="#FCC23F" d="M89.743 20.01c.461-.026.807-.552.771-1.174-.036-.62-.44-1.103-.9-1.077l-5.014.289-3.344.193c-.46.026-.805.551-.77 1.173.035.621.439 1.105.9 1.078l3.343-.193c1.088-.061 2.061.828 2.483 2.116l-5.697.328c-.46.027-.805.552-.77 1.174.035.621.439 1.103.9 1.078l5.696-.328c-.27 1.327-1.135 2.324-2.223 2.386l-3.344.193c-.108.006-.215.042-.313.103-.198.126-.349.355-.419.636-.068.28-.05.59.05.86.05.138.119.258.203.357l7.202 8.617c.176.212.396.31.61.297.215-.012.422-.134.573-.362.301-.458.26-1.171-.091-1.592L83.92 29.38l1.326-.076c2.019-.116 3.594-2.149 3.834-4.738l.921-.053c.461-.027.807-.552.771-1.174-.036-.62-.44-1.104-.9-1.077l-.92.054c-.175-.832-.496-1.572-.902-2.207l1.692-.099z" transform="translate(81.688 .24)"/>
        </g>
    </g>
</svg>
