<svg xmlns="http://www.w3.org/2000/svg" xmlns:xlink="http://www.w3.org/1999/xlink" width="366" height="235" viewBox="0 0 366 235"><defs/><defs><path id="a" d="M0 .5h8.2v6H0z"/><path id="c" d="M54.2.8a47 47 0 00-25.4 10.8 87.7 87.7 0 00-18.5 20c-5 7-9.4 15-10 23.5-.5 5.7 1 11.8 4.2 16.5 1.8 2.5 90-68.3 90-68.3-5.6-.6-16.2-2.7-32-2.7-2.6 0-5.4 0-8.3.2"/><path id="e" d="M.9 3.5a3 3 0 106 0 3 3 0 00-6 0"/><path id="h" d="M.5 2.5a2.1 2.1 0 104.2 0 2.1 2.1 0 00-4.2 0"/><path id="k" d="M56 1.7C13 8.4 2.8 38.7 1.3 44.9c0 0-6.9 33 12.1 58.2 19 25.3 58.6 30.9 82.6 7.5 24-23.3 21.3-93 21.3-93S103.4.3 71.4.3C66.7.4 61.5.8 56 1.7"/><path id="m" d="M7 9.1A14.4 14.4 0 01.7 19.3c3.5 4.5 7.6 3.2 7.6 3.2l.8-6C9.9 6.3 8.5.8 8.5.8s0 .8-1.4 8.3"/><path id="p" d="M.5.7S8 3.2 10.7 14.8c2.6 11.7 1 14.4 1 14.4s4 .2 5.9-.9c1.7-1 3.8-2.8 3.8-2.8s-4.6-11.4-10-18.4C7.5 2 2.9.7.6.7H.5"/><path id="s" d="M3 0c2.4 3.5 4 7.6 4.1 12 0 1 0 2.2-.3 3.2-.3 1.2-.7 2.1-1.2 3-1 2-2.5 3.8-4.7 4.3 2-1 3-2.8 3.8-4.6.4-1 .8-2 1-2.9l.2-3"/><path id="v" d="M4 0C5 2.3 5.3 5 5 7.6a9.8 9.8 0 01-1.3 3.7c-.7 1.2-1.7 2-3 2.6 1-1 1.7-2 2.2-3 .4-1.1.7-2.3.9-3.5C4 6.2 4 5 4 3.8"/><path id="y" d="M.4 2.2L3 3.4V.9z"/><linearGradient id="f" x1="0%" x2="100%" y1="50%" y2="50%"><stop offset="0%" stop-color="#FFB218"/><stop offset="100%" stop-color="#FFCF44"/></linearGradient><linearGradient id="i" x1="0%" x2="100%" y1="50%" y2="50%"><stop offset="0%" stop-color="#FFB218"/><stop offset="100%" stop-color="#FFCF44"/></linearGradient><linearGradient id="n" x1="0%" x2="100%" y1="50%" y2="50%"><stop offset="0%" stop-color="#FFB218"/><stop offset="100%" stop-color="#FFCF44"/></linearGradient><linearGradient id="q" x1="0%" x2="100%" y1="50%" y2="50%"><stop offset="0%" stop-color="#FFB218"/><stop offset="100%" stop-color="#FFCF44"/></linearGradient><linearGradient id="t" x1="0%" x2="100%" y1="50%" y2="50%"><stop offset="0%" stop-color="#FFB218"/><stop offset="100%" stop-color="#FFCF44"/></linearGradient><linearGradient id="w" x1="0%" x2="100%" y1="50%" y2="50%"><stop offset="0%" stop-color="#FFB218"/><stop offset="100%" stop-color="#FFCF44"/></linearGradient><linearGradient id="z" x1="0%" x2="100%" y1="50%" y2="50%"><stop offset="0%" stop-color="#FFB218"/><stop offset="100%" stop-color="#FFCF44"/></linearGradient></defs><g fill="none" fill-rule="evenodd"><path fill="#F7E8C8" d="M365.5 225c0-4.6-81.8-8.3-182.7-8.3C81.8 216.7 0 220.4 0 225s81.8 8.3 182.8 8.3c100.9 0 182.7-3.7 182.7-8.3"/><path fill="#D42531" d="M123.4 188.4a53.5 53.5 0 019.2-8.4c1.6-1 3.3-1.9 5.1-2.2 2.7-.5 4.9.3 6.6 2.4.2.4.5.8.8 1 .5.5 1 .8 1.7.7.5-.1.8-.5.8-1s0-1.1-.3-1.7a7.8 7.8 0 00-6.5-4.9c-2.5-.3-4.8.4-7 1.4a44.5 44.5 0 00-14.5 12.7h-4.1v-.2c2.8-3.8 5.8-7.4 9.4-10.4 3-2.7 6.4-4.8 10.3-6 2.6-.9 5.2-1.2 8-.7 3.4.8 5.7 2.9 7.3 6a21.3 21.3 0 012.3 11c0 .2 0 .3-.3.3h-2.8c-.2 0-.3 0-.3-.3 0-1 0-2-.2-3l-.4-1c-.4-.7-1.4-.7-1.9 0-.3.6-.3 1.1-.4 1.7v2.3c0 .3-.1.3-.3.3h-2.6c-.3 0-.4 0-.3-.3a9 9 0 00-.5-4.2c-.6-1.3-1.4-2.2-2.9-2.5-1-.1-2 0-3 .4-1.9.7-3.5 1.8-5 3-1.2 1-2.3 2.2-3.2 3.4-.2.2-.4.2-.6.2h-4.4"/><path fill="#D42531" d="M159.3 186v2.2c0 .2 0 .2-.2.2h-2.9c-.2 0-.2 0-.2-.3l-.3-4.6c-.3-3.4-1-6.8-3-9.7-2.4-4-6-6.2-10.6-6.7-3.3-.4-6.5.2-9.6 1.4a35.4 35.4 0 00-9.5 5.7l-3.5 3-1.6 1.1c-.5.3-1 .4-1.4 0-.3-.1-.4-.7-.2-1.3a37.7 37.7 0 0115-11.7c2.8-1.2 5.7-1.9 8.8-1.9a18 18 0 0115.6 8.4c1.6 2.3 2.5 5 3 7.8.4 2.1.6 4.3.6 6.5"/><path fill="#D42531" d="M118.6 168.5c1.6-2 3.5-4 5.6-5.6 3.4-2.7 7.1-4.6 11.4-5.4a24 24 0 0128.2 15.4 33 33 0 012.2 13.8c0 1-.5 1.5-1.3 1.7-.6.1-1 0-1.4-.6-.2-.5-.2-1-.2-1.4 0-3.7-.6-7.3-1.7-10.8a26.7 26.7 0 00-5.3-9.4 18.4 18.4 0 00-10.5-6 27.2 27.2 0 00-18.7 3 42.7 42.7 0 00-8 5.1c-.1.2-.1.2-.3.2"/><path fill="#F8B517" d="M155 157.5l1.5.5a32.6 32.6 0 0120.7 30c0 .4 0 .4-.4.4h-5.7c-.3 0-.4 0-.4-.3A33.5 33.5 0 00157 159l-2-1.5m-10.5-12.3c.5 1 1.4 1.7 2.2 2.4a9.5 9.5 0 013.7 5.6c.1.2 0 .3-.3.3a35.6 35.6 0 00-10.7-.1l-1 .1c.2-1 .6-2 1-3 .8-1.1 1.8-2.1 2.8-3 .9-.7 1.7-1.3 2.3-2.3M121 158c0-1.2.4-2.5.9-3.8.3-1 .8-2 .8-3 0-.1 0-.2.1-.1 1.3.7 2.7.7 4 1 2 .4 3.7 1.3 5 2.8.2.2.2.3-.1.4a34.8 34.8 0 00-9.8 5.7c-.2.2-.4.2-.4-.2l-.3-1-.2-1.8m44.9-7c0 1 .3 2 .7 3 .5 1.4 1 3 .9 4.7 0 .7-.2 1.4-.4 2.1-.1.3-.2.4-.5.2a34.7 34.7 0 00-9.8-5.7c-.3-.1-.3-.2-.1-.4a9 9 0 014.8-2.8 26 26 0 011.7-.3c1-.1 1.8-.3 2.7-.8m11.6 25.1a38.4 38.4 0 00-5.8-10c-.2-.3-.2-.4.1-.5 2-.6 4-.5 5.8.1 1 .3 2 .8 3 1l1 .1c-.3.6-.5 1.2-.6 1.9-.2 1-.3 2.1-.7 3.1a8.8 8.8 0 01-2.7 4.3m-66.6 0c-1.1-.8-2-2-2.5-3.3-.5-1.2-.7-2.5-1-3.9a6 6 0 00-.5-1.9s-.1-.2 0-.2c1 0 2-.4 2.9-.7 1.4-.6 3-1 4.5-1l2.3.5c.3.1.3.2.1.4a34.7 34.7 0 00-5.6 9.8l-.2.3"/><path fill="#D62733" d="M133.3 196.5v2.5c0 .3 0 .4.3.4h1c1.3-.2 2.1-1 2.4-2v-1.7c0-1-.8-1.7-1.8-2-.5-.1-1 0-1.6 0-.3 0-.4 0-.3.3v2.5m-2 0v-3.9c0-.2 0-.4.2-.4 1.5-.1 3-.2 4.4 0 2.2.5 3.4 2 3.3 4.3 0 2.4-1.4 4-3.8 4.3a16 16 0 01-3.8 0c-.3 0-.4 0-.4-.4v-3.9"/><path fill="#D42532" d="M148.8 196.5v4c0 .3 0 .4-.3.4H147c-.2 0-.3 0-.3-.4v-3c0-.2 0-.3-.4-.3h-2.7c-.3 0-.3.1-.3.4v3c0 .2-.1.3-.3.3h-1.5c-.2 0-.2 0-.2-.3v-8.2c0-.2 0-.3.2-.3h1.5c.2 0 .3.1.3.3v2.7c0 .3 0 .4.4.4h2.6c.4 0 .4-.1.4-.4v-2.7c0-.2 0-.3.3-.3h1.4c.2 0 .3.1.3.4v4"/><path fill="#D62733" d="M172.5 194.8v1l.1.2c.7 0 1.3 0 1.9-.3.4-.3.5-.7.4-1.1a1 1 0 00-.7-1h-1.5c-.2 0-.2.1-.2.2v1m2.9 2c.6.3 1 .8 1.1 1.4l.7 2.4c0 .2 0 .3-.2.3h-1.5c-.2 0-.3-.1-.4-.3l-.5-1.8-.1-.5c-.3-.7-1.1-1-1.9-.9-.2.1 0 .2 0 .3v2.8c0 .3-.1.4-.4.4h-1.4c-.2 0-.3-.1-.3-.3a2422.2 2422.2 0 00.2-8.4c1.5-.1 3-.3 4.4 0 2.1.6 2.2 2.9 1.2 4l-1 .6m-20.6-3.2l-.9 3.3c0 .2 0 .2.2.2h1.4c.3 0 .4 0 .3-.3l-1-3.2m.1-1.5h1c.2 0 .3 0 .4.3l2.7 8.2c0 .2 0 .3-.2.3H157c-.2 0-.3-.1-.3-.3l-.5-1.7c-.1-.2-.2-.3-.4-.3h-2c-.3 0-.4 0-.4.3l-.5 1.7c0 .2-.1.3-.4.3H151c-.2 0-.3-.1-.2-.3l2.6-8.2c0-.2.2-.3.4-.3h1m-39.4 1.5l-.9 3.3c0 .2 0 .2.2.2h1.5c.2 0 .3 0 .2-.2l-1-3.3m.1-1.5h1c.3 0 .4.1.4.3 1 2.7 1.8 5.5 2.7 8.2 0 .2 0 .3-.2.3h-1.6c-.2 0-.3-.1-.4-.3l-.5-1.7c0-.2-.1-.3-.4-.3h-2c-.3 0-.3 0-.4.2l-.5 1.8c0 .2-.1.3-.3.3h-1.6c-.2 0-.2 0-.2-.3a2318.4 2318.4 0 003-8.5h1m48.8 1.5a59.4 59.4 0 01-.7 3.5h1.5c.2 0 .2 0 .2-.3l-1-3.2m.1-1.5h1c.2 0 .3 0 .4.3l2.7 8.2c0 .3 0 .3-.2.3h-1.7c-.2 0-.3-.1-.3-.3l-.6-1.8a49.8 49.8 0 01-2.4-.3c-.2 0-.3.1-.3.4l-.5 1.7c0 .2-.2.3-.4.3h-1.5c-.2 0-.3 0-.2-.3a1725.4 1725.4 0 003-8.5h1m-39.4 1.5c-.2 1.2-.5 2.2-.9 3.3 0 .2 0 .2.2.2h1.5c.2 0 .3 0 .2-.3l-1-3.2m.1-1.5h1c.3 0 .4.1.4.3l2.7 8.2c0 .2 0 .3-.2.3h-1.6c-.3 0-.3-.1-.4-.3l-.5-1.7c0-.2-.2-.3-.4-.3h-2c-.3 0-.4 0-.4.3l-.5 1.7c0 .2-.1.3-.3.3h-1.6c-.2 0-.2 0-.2-.3a2385.3 2385.3 0 003-8.5h1"/><path fill="#F8B517" d="M187.4 188.4h-7.3c-.2 0-.3 0-.3-.3 0-1.8-.2-3.6-.5-5.4 0-.3.1-.3.4-.2 1.4.3 2.7 1 3.9 2 .7.6 1.4 1.4 2 2.2.6.6 1.1 1.3 1.8 1.7"/><g transform="translate(101.3 181.9)"><mask id="b" fill="#fff"><use xlink:href="#a"/></mask><path fill="#F8B517" d="M0 6.5c1.2-.7 2-1.9 2.8-2.9a9.3 9.3 0 014.9-3h.2c.2-.1.3 0 .2.2-.3 1.8-.4 3.6-.4 5.4 0 .2 0 .4-.3.4H0L0 6.4" mask="url(#b)"/></g><path fill="#D62733" d="M132 188.4c1.4-1.4 2.8-2.8 4.7-3.4l.8-.2c1.3-.2 2.1.5 2.3 1.8.1.5.1 1 0 1.6 0 .2 0 .2-.2.2h-2.5c0-.4-.3-.4-.6-.4-.2 0-.4 0-.5.2-.4.2-.9.2-1.3.2H132"/><path fill="#D72532" d="M112.3 183c0-.5.2-1 .4-1.4.2-.5.5-1 1-1.5.2-.3.5-.5.9-.6.9 0 1.5.7 1.3 1.7l-.2.5c-.5.7-1 1.4-1.7 1.9l-.4.2c-.8.4-1.3 0-1.3-.8"/><path fill="#619440" d="M265 166.5c32 3.1 62.3-70.2 74-99.7 7.6-19.3 9-40.5 10.3-61.2-33.2 11.1-73.5 36.9-89.5 67.8a77.8 77.8 0 00-5.6 18.9 391.3 391.3 0 00-2.4 62.4c.4 3.8-1 10.4 13.3 11.8"/><path fill="#306B34" d="M345.4 10.8c-.7-.5-1.7-.5-2.3.2a470 470 0 00-20.6 24.8 38 38 0 01-2.4-13.1 1 1 0 00-2.2 0 41 41 0 003 15.1c-5 6.7-9.8 13.4-14.5 20.3a110.6 110.6 0 00-2.4-14.6l-1.2-6.9a1 1 0 00-1.3-.8 1 1 0 00-.8 1.2 366.6 366.6 0 012.5 13.7c.5 3.3 1.1 6.8 1.3 10.3-5.6 8.5-11 17.2-16 26.2l-5-16.3c-.8-2.6-1.6-5.3-1.7-8 0-.6-.5-1-1.1-1a1 1 0 00-1 1c0 1.7.3 3.3.7 4.9l1 3.7 5.6 18.3c-6 11-11.9 22.6-17.4 34.8-.2.3-.2.7-.1 1 0 .5.4.9.9 1 .8.4 1.7 0 2.1-.7 2.5-5.6 5.1-11 7.7-16.2 5.8-.8 10.3-1.6 14.6-2.3 4.3-.8 8.7-1.6 14.4-2.3.6-.1 1-.6 1-1.2-.1-.6-.7-1-1.3-1-5.7.8-10.2 1.6-14.5 2.4-4 .7-8 1.4-13 2 3.4-6.7 6.9-13.2 10.4-19.5a3299.1 3299.1 0 0038.6-8.3c.6-.1 1-.7.8-1.3-.2-.6-.7-1-1.3-.8l-19.6 4.2-17 3.7a421 421 0 0113-21.3H307.1a187 187 0 0132.7-7c.6 0 1-.6.9-1.2 0-.6-.6-1-1.2-1a187.6 187.6 0 00-31.5 6.7c4.2-6.3 8.6-12.5 13.1-18.5a46.6 46.6 0 0122-4.3c.5 0 1-.5 1-1 0-.7-.5-1.1-1-1.2-8.4 0-13.2.8-19.5 3.2 6.8-9 14.1-17.8 22-26.6.5-.7.5-1.7-.2-2.3"/><path fill="#FFDE8E" d="M322.7 143c-4.1 28.2-27.9 62.2-55.3 73.3-8.8 3.6-19.4 5.7-27.8 1-8-4.3-11.8-13.9-11-22.5.6-8.6 5-16.5 10-23.6a87.7 87.7 0 0118.5-20 47 47 0 0125.4-10.7c20.4-1 33.8 1.8 40.2 2.5"/><g transform="translate(228.3 139.7)"><mask id="d" fill="#fff"><use xlink:href="#c"/></mask><path fill="#FFBF4D" d="M54.2.8a47 47 0 00-25.4 10.8 87.7 87.7 0 00-18.5 20c-5 7-9.4 15-10 23.5-.5 5.7 1 11.8 4.2 16.5 1.8 2.5 90-68.3 90-68.3-5.6-.6-16.2-2.7-32-2.7-2.6 0-5.4 0-8.3.2" mask="url(#d)"/></g><path fill="#306B34" d="M341.7 190.1a4.6 4.6 0 11-9.2 0 4.6 4.6 0 019.2 0"/><g transform="translate(322.9 180.7)"><mask id="g" fill="#fff"><use xlink:href="#e"/></mask><path fill="url(#f)" d="M.9 3.5a3 3 0 106 0 3 3 0 00-6 0" mask="url(#g)"/></g><g transform="translate(331.5 176)"><mask id="j" fill="#fff"><use xlink:href="#h"/></mask><path fill="url(#i)" d="M.5 2.5a2.1 2.1 0 104.2 0 2.1 2.1 0 00-4.2 0" mask="url(#j)"/></g><g transform="translate(149 13.6)"><mask id="l" fill="#fff"><use xlink:href="#k"/></mask><path fill="#FFBF4D" d="M56 1.7C13 8.4 2.8 38.7 1.3 44.9c0 0-6.9 33 12.1 58.2 19 25.3 58.6 30.9 82.6 7.5 24-23.3 21.3-93 21.3-93S103.4.3 71.4.3C66.7.4 61.5.8 56 1.7" mask="url(#l)"/></g><g><path fill="#FFDE8E" d="M212.4 52.7c1.4.5 3-.6 3.7-2.3.6-1.8 0-3.6-1.5-4.1l-15.5-5.4-10.4-3.6c-1.4-.5-3 .6-3.7 2.3-.6 1.8.1 3.6 1.5 4.1l10.4 3.6c3.4 1.2 5.3 4.8 5 8.9l-17.6-6c-1.4-.6-3 .4-3.7 2.2-.6 1.8 0 3.6 1.5 4.1l17.7 6c-2.4 3.4-6.2 5.1-9.5 4l-10.4-3.6c-.3-.1-.7-.2-1-.1-.8.1-1.5.5-2 1.2a4 4 0 00-1 2.5l.3 1.2 11.9 32.7c.3.8.8 1.4 1.5 1.6.6.2 1.4.1 2.1-.3a4 4 0 001.6-4.5l-9.4-25.8L188 73c6.3 2.1 13.4-1.6 17.1-8.4l2.9 1c1.4.4 3-.6 3.7-2.4.6-1.7 0-3.6-1.5-4l-2.8-1c.4-2.5.3-5-.2-7.3l5.2 1.9z"/><path fill="#FFDE8E" d="M162.4 116.7l1 1.3c19.4 24.1 58.1 29.2 81.7 6.2 24-23.4 21.3-93 21.3-93l-20.5 27.3s-2 33-28 49.4c-31.5 20-55.5 8.8-55.5 8.8"/><path fill="#FFE2B7" d="M212.5 212.3a1.7 1.7 0 01-.8-2.4l4.3-8a1.7 1.7 0 113 1.7l-4.2 8c-.5.8-1.5 1.1-2.3.7"/><path fill="#7F786A" d="M219.2 220.6c-.3.3-.9.4-1.3 0l-8.8-8a1 1 0 010-1.5l1.6-1.4c.5-.4 1.2-.4 1.6 0 0 0-.4.9.4 1.7.6.7 1.3.4 1.7 0 .2 0 .5 0 .6.2l4.3 8c.2.3.1.7-.1 1m34.4-141.8c-5.1 7.6-10 12-14 23.9-5 14.2 0 52.2 0 52.2l-26.2 51.5 9.1 5.5s37-37 43.9-50.7c2.5-4.9 10-20.4 14.5-38.7 3.4-14 5.3-17.3 6.9-30.7.6-5.3 1.2-15.3 1.2-15.3s-33 3.7-35.4 2.3"/><path fill="#FFE2B7" d="M336.7 220.3c-.7.6-1.8.5-2.4-.2l-5.8-7a1.7 1.7 0 012.7-2.2l5.7 7c.6.7.5 1.8-.2 2.4"/><path fill="#A29C8F" d="M252.8 77.9c-2.3 5.1-13.8 9-15.9 31.9-1.7 18.8 45.1 60.3 45.1 60.3l45.4 52 6.6-8s-23.4-47.1-30.3-59.6c-8.7-15.9-24.2-56-24.2-56s3.2-24.3 2.5-25.2c-2.8 2.4-21 .3-29.2 4.6"/><path fill="#7F786A" d="M345 212.9c.3.3.3.8 0 1.2l-7.8 8.4a1 1 0 01-1.5 0l-1.4-1.6c-.4-.4-.4-1.1 0-1.6 0 0 .9.4 1.7-.3.7-.5.3-1.2 0-1.7-.1-.2 0-.5.2-.6l7.8-4c.3-.1.7 0 1 .2"/><path fill="#F5EFE4" d="M292.7 70.5c3.5.5 6-5.4 6-5.4l-13.3-26.7c-4.2-8.4-13.8-12.2-21.3-8.4 0 0 16.2 38.7 28.6 40.5"/><path fill="#F5EFE4" d="M289.2 77.3s-4.3 5.5-15.3 5.8c-17.5.4-21.3-2.5-22-4.3-2.2-5.5-8.6-28-8.6-28-1.5-7.5.7-17.3 8.8-19l15-3c8-1.6 15 4.8 17.8 13.9 2.2 7.3 4.3 34.6 4.3 34.6"/><path fill="#FFE2B7" d="M266 31c-1.4.2-2.7-.7-3-2.1l-.8-5.3a2.5 2.5 0 115-.8l.8 5.3c.2 1.4-.7 2.6-2 2.9"/><path fill="#FFC581" d="M262.2 23.7c-.2-1.4.7-2.7 2-3 1.4-.2 2.7.8 3 2.2l.6 3.8c.1.7-1.8.6-3.4-.4-1-.7-2-1.7-2-1.7l-.2-.9z"/><path fill="#FFE2B7" d="M257.3 15.7c.4-.3 1.5-.1 1.5-.1A6 6 0 01263 8c3.2-1 6 1 7 4.3l1.5 5.5c.5 4.1-.8 5.8-3.8 6.7a6 6 0 01-7.3-3.5c-.6 0-1.7-.8-2.5-2-.9-1.5-1.1-3-.6-3.3"/><path fill="#FFE2B7" d="M264.7 7.8h.3c2.3.2 4.3 2 5 4.5l1.5 5.5c.3 2.7-.1 4.4-1.3 5.5-.8.6-1.8 1-1.8 1s2.4-3 .2-9.3c-1.3-3.9-3.9-7.2-3.9-7.2"/><path fill="#FCBD30" d="M259.5 11c-.2.7 2.8.2 3.6 1.2.8 1-1.3 2.3-1.8 3.3-.2.5.4 2.4 0 2.5-.4.1-1.7-1.7-2.3-1.7-1.2 0 0 1.8 1.2 4.1 1.1 2.4-2.9 1.3-5-2-3-4.6-2-11.3 1.4-10.7 0 0 .8-4.3 4.2-4.6 2-.2 5 .5 8 .5 4.6 0 6.8-1.4 6.8-1.4s0 2.8-2.2 5.5c-2.3 3-6 3-7.4 3-2.9.4-6.2-.1-6.5.4"/><path fill="#FFE2B7" d="M260.7 17.6c.9 1.4 1 2.8.4 3.3-.7.4-2-.2-3-1.5-.8-1.3-1-3-.2-3.4.6-.4 1.9.3 2.8 1.6"/><path fill="#F5EFE4" d="M229.5 69.7s-4.2-2.8-3.5-7.3c1.3-8.4 14.8-24.3 22-29 8.6-5.7 5.5 13.2 5.5 13.2l-24 23z"/><path fill="#FCC23F" d="M162.8 46c.1 0 .1 0 0 0"/><path fill="#FFDE8E" d="M236.4 41.6s6.5-4.2 10.9-4c4.3.4 8 2.2 9 6.4.8 3.8 2 14.8-2.5 20.3-.8.8-.8 2 0 3 1.4 1.5 4 3.5 7.5 3.2l-.2 1.5c-.1 1 .6 2 1.7 2 4-.1 13.3-1.2 16.4-9.3 0 0 8 1.3 10.7-7.3.3-.6.1-1.4-.2-2-3.1-4.6-17.8-25.9-37.3-34.4-19-8.3-16 20.6-16 20.6"/><path fill="#FFE2B7" d="M257.9 32s1.7-1.1 2.4-1c.4 0 1.6 1 1.6 1s-.3 4.3-1.2 5c-.5.4-1.6.3-2.5.1a1 1 0 01-.9-1.2l.6-4z"/><path fill="#FFE2B7" d="M255.2 33.7a1 1 0 011.5.2l1.7 2.1-.9.7-2.3-3zm4-4.8a1 1 0 00-1.2 1l-.2 2.6 1.1.1.2-3.7z"/><path fill="#FFE2B7" d="M260.6 28c-.6 0-1.1.4-1.2 1.1l-.5 3 1 .2.7-4.2z"/><path fill="#FFE2B7" d="M261.5 28.4c-.6 0-1.2.4-1.3 1l-.4 3.1 1 .2.7-4.3z"/><path fill="#FFE2B7" d="M262 29.5c-.5 0-1 .4-1 1.1l-.3 3.1 1.2-1.5.2-2.7zm9 3v.1a1 1 0 00.1 1.5l2 1.8.5-.5-2.5-2.8zm-12 3l-2 2.2 1.7 1.3 2-2.3z"/><path fill="#E7E1D3" d="M258.2 41.2l1.4-2.3-2.7-2.3-2.3 2.3z"/><path fill="#E7E1D3" d="M260.7 44.2c.6 3.9-4.1 10.7-8.1 15.2-8.5 9.4-22.5 16.4-26 6.6-.5-1.6 27-28.8 27-28.8s6.5 3.2 7.1 7"/><path fill="#FCDCA4" d="M258.8 21.5A7.9 7.9 0 01255 19a11 11 0 01-2.2-8.8c.2-.8.5-1.6 1.1-2.3a3 3 0 012.7-1l-1 .7c.3-1 .6-2 1.2-2.8.5-.9 1.3-1.7 2.4-2.1 1-.5 2-.4 3-.3 1 0 1.8.2 2.7.3 1.8.2 3.6.5 5.4.4a14 14 0 005.2-.9c-1.5 1.1-3.4 1.5-5.2 1.8-1.8.3-3.7.2-5.5 0l-2.7-.1c-.9 0-1.7 0-2.3.3-1.3.5-2.1 2.2-2.5 3.7-.1.5-.6.7-1 .6-.9-.2-1.7.8-2 2-.3 1.3-.4 2.7-.1 4.1.2 1.4.7 2.7 1.4 4a8.4 8.4 0 003 2.9"/></g><g transform="translate(253.2 48)"><mask id="o" fill="#fff"><use xlink:href="#m"/></mask><path fill="url(#n)" d="M7 9.1A14.4 14.4 0 01.7 19.3c3.5 4.5 7.6 3.2 7.6 3.2l.8-6C9.9 6.3 8.5.8 8.5.8s0 .8-1.4 8.3" mask="url(#o)"/></g><g transform="translate(267.5 35.5)"><mask id="r" fill="#fff"><use xlink:href="#p"/></mask><path fill="url(#q)" d="M.5.7S8 3.2 10.7 14.8c2.6 11.7 1 14.4 1 14.4s4 .2 5.9-.9c1.7-1 3.8-2.8 3.8-2.8s-4.6-11.4-10-18.4C7.5 2 2.9.7.6.7H.5" mask="url(#r)"/></g><g><path fill="#FFE2B7" d="M266.6 35.7c0 .5.3 1 .9 1l2.4.4.2-1-3.5-.4z"/><path fill="#FFE2B7" d="M266.2 34.2c-.2.5.2 1.1.9 1.3l3 .8.3-1-4.2-1.1z"/><path fill="#FFE2B7" d="M266.1 32.8c-.2.6.1 1.2.8 1.5l2.8 1.1.4-1-4-1.6z"/><path fill="#FFE2B7" d="M267 32.4c-.1.5.3 1.1 1 1.3l2.9 1-.8-1.3-3-1z"/><path fill="#FFE2B7" d="M268.8 36.7s-.5-1.3-.3-2c.2-.4 1.4-1.4 1.4-1.4s2.3.3 4 2.3c.2.5.1 1-.2 1.9-.2.5-1.2.7-1.7.5l-3.2-1.3z"/><path fill="#FFE2B7" d="M272.2 37.1l2 2.1 1.4-1.4-2-2.2z"/><path fill="#E7E1D3" d="M277.3 38.5l-2.1-1.6-2.2 2.4 2 2.4z"/><path fill="#E7E1D3" d="M280 36.2c3.8 0 9.2 6 12.4 10.3 6.6 9.2 10.7 24 .8 24-4.2 0-20-28.9-20-28.9s3.3-5.3 6.9-5.4"/><g transform="translate(266.5 46)"><mask id="u" fill="#fff"><use xlink:href="#s"/></mask><path fill="url(#t)" d="M3 0c2.4 3.5 4 7.6 4.1 12 0 1 0 2.2-.3 3.2-.3 1.2-.7 2.1-1.2 3-1 2-2.5 3.8-4.7 4.3 2-1 3-2.8 3.8-4.6.4-1 .8-2 1-2.9l.2-3C5.9 8 4.5 4 3 0" mask="url(#u)"/></g><g transform="translate(265.6 51.8)"><mask id="x" fill="#fff"><use xlink:href="#v"/></mask><path fill="url(#w)" d="M4 0C5 2.3 5.3 5 5 7.6a9.8 9.8 0 01-1.3 3.7c-.7 1.2-1.7 2-3 2.6 1-1 1.7-2 2.2-3 .4-1.1.7-2.3.9-3.5C4 6.2 4 5 4 3.8 4 2.5 4 1.3 3.9 0" mask="url(#x)"/></g><path fill="#57575E" d="M139.4 51.5h-36a5 5 0 01-5-5V36a5 5 0 015-5h36a5 5 0 015 5v10.4a5 5 0 01-5 5"/><path fill="#F6F7FB" d="M8.5 82.4h107.2c.6 0 1 .8 1.1 1.9H7.4c.1-1.1.5-2 1-2"/><path fill="#57575E" d="M116.8 84.3l.1.8c0 1.5-.5 2.8-1.2 2.8H8.5c-.7 0-1.2-1.3-1.2-2.8v-.8h109.5zm-78.4-1.9h58.9c1.1 0 3.5-.6 4-1.7h-67c.5 1 2.9 1.7 4 1.7"/><path fill="#5F7DFC" d="M67.4 50.6a.4.4 0 10.9 0 .4.4 0 00-1 0"/><path fill="#5F7DFC" d="M67.5 50.9c.5.3 1-.2.6-.6-.4-.4-1 .1-.6.6"/><path fill="#A29C8F" d="M41.8 49.3h52c.7 0 1.3.5 1.3 1.2v30.2H40.6V50.5c0-.7.5-1.2 1.2-1.2"/><path fill="#FFF" d="M42.8 78.8h50V51.5h-50z"/><path fill="#FFDE8E" d="M82.2 63h8.4v10.7H77.2V62.9z"/><path fill="#F7F8FC" d="M79.9 70.8h8v-5h-8z"/></g><g transform="translate(82.2 66.1)"><mask id="A" fill="#fff"><use xlink:href="#y"/></mask><path fill="url(#z)" d="M.4 2.2L3 3.4V.9z" mask="url(#A)"/></g><g><path fill="#FFDE8E" d="M65.4 63h9.4v4.8h-9.4zm-10 3.4H65v-4.8h-9.5zm-10 0H55v-4.8h-9.4zm-1.9-6h48.6v-8H43.5z"/><path fill="#F7F8FC" d="M83.2 58h6V55h-6z"/><path fill="#FFFEFF" d="M72.5 56.4h4.8v-1.2h-4.8zm-27.3 0h26.5v-1.2H45.2zm0 1.9h32V58h-32z"/><path fill="#EABBAB" d="M71 19c1 4.2.5 9.8-.8 11.4l-5.7 1.1-9.6-.6v-.3c-.2-1.4-1.2-2.4-3.4-3.8 0 0-4.4-2.6-5.5-8.5-1-6 .5-11.7 9-13.2S68 5.8 69 7.2c1.2 5.4 1.1 8.3 1.2 8.9l.8 3"/><path fill="#EABBAB" d="M62.9 38.5c.9-2.6 2-5.8 2.3-7.3l-8.8-3.4a37.4 37.4 0 01-4.7 9.3L63 38.5z"/><path fill="#57575E" d="M64.2 18.4c.3 1.3.4 3.1.4 3.1l-.8.9-2-1s-.8 6.8-1.6 7.6c-2 1.7-5.3 1-5.3 1-1.9-1.4-8-4.6-9.5-11.8C44.7 14.6 45 9 48 5.9a18 18 0 0117-4.3c5.2 1.6 5.4 5.3 6.3 8.3 0 0 .3 4-7 8.5"/><path fill="#EABBAB" d="M61.2 23c.4 2.1 1.3 4.6 2.9 4.7.3 0 .4-5.2.3-6.2-2-3.5-3.6-.5-3.2 1.6M49.9 220.2v-6.4l4.4-41.4h-12c-.1 13 .2 39.9.2 39.9s-.9 6.5-1.4 8h8.8z"/><path fill="#7F786A" d="M40 222.7s-1-1.7.8-6c.9-2 2.6-1.8 4.1-1.8 1.6 0 3.1.2 4 1.7 1 1.8 1.2.3 1.7 3.7.3 1.4.1 2.6-.2 2.5v1.7H39.7v-1.7l.4-.1z"/><path fill="#A29C8F" d="M38.2 106.3l3.8 34.9-.4 5.2c-.8 10.8.3 30-.3 45.6h11.8l5.5-50.8 2.8-33.9-23.2-1z"/><path fill="#7F786A" d="M51.8 196.7l-6.5.3-4.8-1.9.1-9.5 14.3 1.8-1.2 7.2z"/><path fill="#EABBAB" d="M70.3 171.5l7.6 3 .4-2c0-3 2-7.2 3-9.4 2.7-6.4 8.4-21.3 13.1-33.3l-11.7-4.2-12.4 45.9z"/><path fill="#7F786A" d="M71.2 167.5l-2.3 5.9h-.2l-.5 1.7 7.2 2.9.3-.8.2.5c.2.4.4.6.7.7l6.2 2.5.4-1c-.1 0-.3-.1-.3-.3a4 4 0 00-.5-2.6c-.9-1.2-2.3-3.4-2.7-4.5-.5-1-.7-1.9-.7-1.9s-.7 0-.8.6c0 .7-1.3.5-2.5-.3-.7-.4-1.4-2.3-1.4-2.3-.3-1.1-2.8-2.4-3.1-1.1"/><path fill="#A29C8F" d="M45.6 113.9l40.5-1a37.7 37.7 0 00-3.5 8.3c-1.2 3.8-2 7.4-2.8 10.6-1.1 4.7-2 8.7-3 12.2l11.2 4.7c6.5-11.6 16.4-35 18-44.9 1-6.8-6.5-10.6-12.2-11.6-6.6-1.2-28-1.6-27.7-1.6v-.1l-.9-2.3v-3H34.4c-.8 2.8-1.3 5.4-1.4 8-.8 11.3 4 20.2 12.6 20.7"/><path fill="#7F786A" d="M86.6 152l-6.9-1.6-4.3-3.2 2.2-9.3 14.1 6-2.7 6.6zm-6.8-20.2a84.4 84.4 0 0116.6-21l-10.3 2a37.7 37.7 0 00-3.5 8.4c-1.2 3.8-2 7.4-2.8 10.6"/><path fill="#EABBAB" d="M112.4 14.2s3-5.2 1.8-7.3c-.6-1.1-2.9 7-2.9 7l1 .3zm2 6.1s-3-5-4.9-4.7c-1 .1 2 3 2.5 5.4l2.3-.7zm.4-5.8s3.4-1 3.5-2.2c0-.7-4.2 1.1-4.2 1.1l.7 1.1z"/><path fill="#EEC9BC" d="M99.3 37c5-4.1 9.7-8.4 12.4-12.1l-.6-10.7 2-2.7 4-3.5c1.8 1.1-2.9 4.6-2.9 4.6s3.8-2.2 4.2-2c1 .5-3.3 3.1-3.3 3.1-.4 3.8 3 10 2.3 12-.4 1.3-1.8 2-2.5 2.4-2.8 4.4-6.4 8.4-9.7 12.2l-6-3.4z"/><path fill="#F7F8FC" d="M43.5 39.8L30.6 66.7a5.6 5.6 0 004 7.9l22.6 4.2-13.7-39z"/><path fill="#DDC4AF" d="M43.5 39.8S31 74 34.6 74.6l22.6 4.2-13.7-39z"/><path fill="#EAD5C1" d="M32.6 90.9c.6 2.6 14.8 4 25.6 1.9 2.9-.6 5.5-1.3 7.6-2.4l5.7-36.3 22-1.7c2.5-.8 3.8-1.3 5.8-3 6.2-7.3 11.3-14 16-21.5l-4.7-2.2c-4 4.4-10.5 9.7-17.8 15.2-5.2 2.1-20.8-1.7-22.6-2.5l-5.7-2.6L54 34.6c-8.3.4-13.5 6.6-14.7 17.2-.5 4-.4 18.8-6.6 39"/><path fill="#FFF" d="M65.2 36.1l-13-1.4.8-2.5 12.2 2.7z"/><path fill="#DDC4AF" d="M57.5 93l.7-.2c2.9-.6 5.5-1.3 7.6-2.4l5.7-36.3c-3.7 0-6.7-.1-9.3-1-.1 3.7 2 7.7 3.6 11.4 2.2 4.9.4 5.4-.7 7.2-1 1.9-.9 3.9-.7 5.9.3 2 .9 1.5 0 4.8-.8 3.3 1.5 4.6-2.4 6.2-4.3 1.9-4.8 4-4.5 4.3"/><path fill="#7F786A" d="M37.7 175.8l4.6-31.6h9.4v31.6h-14zm16.4-31.6h9.3l4.7 31.6H54v-31.6zM33 205.4V227h1.7v-22.3c0-6.7.5-13.4 1.4-20l1-7.2h14.4V227h3v-49.5h14.4l1 7.1c1 6.7 1.4 13.4 1.4 20.1V227H73v-21.6c0-7-.5-14-1.5-20.8l-6.1-42.1H54v-19.7h-2.4v19.7H40.5l-6.1 42.1c-1 6.9-1.5 13.8-1.5 20.8z"/><path fill="#57575E" d="M74.6 116v4.7c0 2.6-2 4.7-4.7 4.7H36.6a4.7 4.7 0 01-4.7-4.7V116h42.7z"/><path fill="#F7F8FC" d="M74.6 114.1v1.9H32v-1.9c0-.3.3-.7.7-.7H74c.4 0 .7.3.7.7"/><path fill="#FFE2B7" d="M108.4 42.6c0 .4.1.6.3.8.2.3.7.5 1.3.5.4 0 .7 0 1-.2.3-.1.6-.4.6-.8 0-.3-.1-.5-.4-.6l-1-.3-.8-.2a5 5 0 01-1.6-.6c-.5-.3-.8-.9-.8-1.6 0-.7.3-1.2.8-1.7.5-.4 1.2-.6 2.1-.6.8 0 1.5.2 2 .6.6.4.9 1 1 1.8h-1.6a1 1 0 00-.6-1 2 2 0 00-.9-.1c-.4 0-.7 0-1 .2-.2.2-.3.4-.3.7 0 .3 0 .5.3.6l1 .3 1.3.3c.6.1 1 .3 1.3.5.4.4.7.9.7 1.6 0 .6-.3 1.2-.8 1.6-.5.5-1.3.7-2.2.7-1 0-1.8-.2-2.4-.6-.5-.5-.8-1-.8-1.9h1.5zm6 2.3v-7.4h1.5v2.8h2.9v-2.8h1.5v7.4h-1.5v-3.3h-3V45zm12.4-1.8a3 3 0 00.5-1.9 3 3 0 00-.5-2c-.4-.4-.9-.6-1.5-.6s-1.1.2-1.5.7a3 3 0 00-.5 1.9c0 .8.2 1.5.5 2 .4.4.9.6 1.5.6s1.1-.2 1.5-.7m1 1.2c-.6.5-1.4.8-2.5.8-1 0-1.9-.3-2.4-.8-.8-.7-1.2-1.8-1.2-3.1 0-1.4.4-2.4 1.2-3 .5-.6 1.3-1 2.4-1 1 0 1.9.4 2.4 1 .8.6 1.2 1.6 1.2 3 0 1.3-.4 2.4-1.2 3M134 39l-.8-.2h-1.4V41h1.4c.4 0 .7-.1.8-.3.2-.2.3-.5.3-.8 0-.4 0-.7-.3-.9m1.2 2.7c-.4.4-1 .6-1.8.6h-1.6v2.6h-1.5v-7.4h3.2c.7 0 1.3.2 1.7.6.5.4.7 1 .7 1.8s-.2 1.5-.7 1.8"/></g></g></svg>