<svg xmlns="http://www.w3.org/2000/svg" xmlns:xlink="http://www.w3.org/1999/xlink" width="366" height="235" viewBox="0 0 366 235">
    <defs>
        <path id="prefix__a" d="M0 0.526L8.157 0.526 8.157 6.551 0 6.551z"/>
        <path id="prefix__c" d="M54.164.8c-9.447.449-18.068 5.263-25.374 10.806-7.306 5.542-13.283 12.512-18.463 19.909C5.33 38.652.93 46.52.224 55.145c-.464 5.667.992 11.72 4.314 16.45C6.27 74.066 94.417 3.294 94.417 3.294 88.888 2.734 78.326.599 62.594.599c-2.661 0-5.472.061-8.43.202"/>
        <path id="prefix__e" d="M.878 3.465c0 1.665 1.35 3.015 3.015 3.015s3.014-1.35 3.014-3.015C6.907 1.8 5.557.45 3.893.45 2.228.45.878 1.8.878 3.465"/>
        <path id="prefix__h" d="M.492 2.523c0 1.165.945 2.11 2.111 2.11 1.165 0 2.11-.945 2.11-2.11 0-1.166-.945-2.11-2.11-2.11-1.166 0-2.111.944-2.111 2.11"/>
        <path id="prefix__k" d="M55.971 1.687C12.98 8.367 2.753 38.627 1.291 44.889c0 0-6.886 32.974 12.105 58.227 18.992 25.253 58.646 30.887 82.646 7.514 24.001-23.375 21.288-93.081 21.288-93.081S103.397.45 71.396.45c-4.74 0-9.878.374-15.425 1.236"/>
        <path id="prefix__m" d="M7.082 9.107C5.691 16.62.62 19.255.62 19.255c3.478 4.521 7.575 3.244 7.575 3.244s.632-4.507.766-6.017C9.864 6.324 8.473.828 8.473.828s0 .765-1.39 8.279"/>
        <path id="prefix__p" d="M.475.656S8.092 3.16 10.7 14.847c2.609 11.688 1.009 14.331 1.009 14.331s4.07.21 5.843-.835c1.774-1.043 3.862-2.817 3.862-2.817S16.84 14.094 11.397 7.056C7.519 2.042 2.898.656.583.656H.475"/>
        <path id="prefix__s" d="M3.057.046C5.405 3.52 7.04 7.64 7.14 11.996c-.008 1.088-.08 2.168-.309 3.253-.287 1.106-.689 2.076-1.208 3.038-.992 1.874-2.57 3.707-4.681 4.209 1.903-.97 2.987-2.808 3.8-4.635.38-.925.754-1.918.928-2.853.17-.972.232-1.99.217-2.994"/>
        <path id="prefix__v" d="M3.916-.001c1.1 2.324 1.514 4.968 1.198 7.582-.195 1.301-.568 2.607-1.278 3.75-.714 1.142-1.774 2.032-2.947 2.546.906-.928 1.583-1.926 2.085-3.004.461-1.101.74-2.264.899-3.457.184-1.191.196-2.417.196-3.651"/>
        <path id="prefix__y" d="M0.433 2.158L3.044 3.399 3.044 0.918z"/>
        <linearGradient id="prefix__f" x1=".007%" x2="100.004%" y1="49.999%" y2="49.999%">
            <stop offset="0%" stop-color="#FFB218"/>
            <stop offset="100%" stop-color="#FFCF44"/>
        </linearGradient>
        <linearGradient id="prefix__i" x1=".011%" x2="100.001%" y1="49.989%" y2="49.989%">
            <stop offset="0%" stop-color="#FFB218"/>
            <stop offset="100%" stop-color="#FFCF44"/>
        </linearGradient>
        <linearGradient id="prefix__n" x1="-.004%" x2="100.005%" y1="50.001%" y2="50.001%">
            <stop offset="0%" stop-color="#FFB218"/>
            <stop offset="100%" stop-color="#FFCF44"/>
        </linearGradient>
        <linearGradient id="prefix__q" x1="-.001%" x2="99.998%" y1="49.999%" y2="49.999%">
            <stop offset="0%" stop-color="#FFB218"/>
            <stop offset="100%" stop-color="#FFCF44"/>
        </linearGradient>
        <linearGradient id="prefix__t" x1=".001%" x2="99.991%" y1="50%" y2="50%">
            <stop offset="0%" stop-color="#FFB218"/>
            <stop offset="100%" stop-color="#FFCF44"/>
        </linearGradient>
        <linearGradient id="prefix__w" x1=".003%" x2="99.998%" y1="50%" y2="50%">
            <stop offset="0%" stop-color="#FFB218"/>
            <stop offset="100%" stop-color="#FFCF44"/>
        </linearGradient>
        <linearGradient id="prefix__z" x1="-.01%" x2="99.987%" y1="50.008%" y2="50.008%">
            <stop offset="0%" stop-color="#FFB218"/>
            <stop offset="100%" stop-color="#FFCF44"/>
        </linearGradient>
    </defs>
    <g fill="none" fill-rule="evenodd">
        <g>
            <g>
                <path fill="#F7E8C8" d="M365.523 80.537c0-4.586-81.825-8.304-182.761-8.304C81.825 72.233 0 75.95 0 80.537s81.825 8.304 182.762 8.304c100.936 0 182.761-3.718 182.761-8.304" transform="translate(0 4.974) translate(0 139.472)"/>
                <g>
                    <path fill="#D42531" d="M22.157 43.228c.913-1.1 1.815-2.09 2.746-3.053 1.963-2.026 4.019-3.947 6.453-5.412 1.603-.964 3.257-1.822 5.117-2.16 2.637-.48 4.831.298 6.52 2.413.289.362.542.752.883 1.07.465.436.989.716 1.65.589.493-.095.785-.431.83-.93.055-.598-.065-1.17-.301-1.712-1.254-2.874-3.411-4.533-6.548-4.923-2.506-.312-4.802.342-7.012 1.433-3.02 1.492-5.654 3.532-8.121 5.8-2.214 2.034-4.246 4.235-6.01 6.674-.09.125-.18.21-.354.21-1.364-.007-2.729-.004-4.088-.004-.067-.09.007-.143.046-.197 2.79-3.787 5.793-7.389 9.379-10.461 3.069-2.629 6.412-4.804 10.293-6.044 2.592-.827 5.238-1.14 7.927-.577 3.438.72 5.819 2.816 7.397 5.883 1.376 2.672 2.03 5.542 2.218 8.529.053.84.06 1.68.054 2.523-.001.26-.062.362-.346.355-.903-.018-1.805-.014-2.706-.001-.24.004-.308-.068-.308-.308-.002-1.037-.039-2.072-.279-3.088-.07-.298-.166-.587-.315-.854-.442-.787-1.415-.812-1.9-.046-.325.512-.389 1.099-.417 1.684-.036.767-.05 1.536-.054 2.303-.001.24-.073.313-.314.309-.865-.013-1.73-.013-2.595 0-.263.005-.325-.07-.305-.333.103-1.419.085-2.827-.472-4.174-.54-1.307-1.396-2.258-2.858-2.494-1.049-.169-2.06.043-3.045.4-1.87.679-3.484 1.782-4.995 3.047-1.182.989-2.245 2.098-3.223 3.285-.165.2-.332.272-.587.27-1.424-.012-2.847-.006-4.36-.006" transform="translate(0 4.974) translate(0 139.472) translate(101.26 .758)"/>
                    <path fill="#D42531" d="M58.07 40.883c0 .695-.006 1.39.003 2.085.003.21-.077.266-.28.263-.937-.009-1.876-.01-2.814.001-.24.004-.281-.097-.281-.303 0-1.55-.077-3.096-.234-4.637-.353-3.436-1.11-6.753-2.953-9.735-2.45-3.965-6.014-6.17-10.63-6.697-3.333-.378-6.52.242-9.618 1.436-3.511 1.353-6.647 3.337-9.559 5.7-1.183.96-2.268 2.034-3.442 3.006-.508.42-1.035.814-1.616 1.128-.456.246-.936.39-1.41.056-.333-.236-.407-.82-.207-1.393.234-.675.702-1.192 1.164-1.71 3.883-4.361 8.464-7.758 13.872-9.994 2.793-1.154 5.701-1.847 8.733-1.852 6.669-.01 11.82 2.873 15.597 8.312 1.64 2.364 2.52 5.035 3.067 7.83.421 2.148.602 4.32.608 6.504" transform="translate(0 4.974) translate(0 139.472) translate(101.26 .758)"/>
                    <path fill="#D42531" d="M17.31 23.312c1.642-2.106 3.5-3.979 5.595-5.613 3.41-2.66 7.181-4.59 11.436-5.441 7.181-1.436 13.862-.276 19.82 4.143 3.914 2.903 6.575 6.774 8.339 11.284 1.142 2.924 1.796 5.96 2.077 9.085.142 1.582.176 3.165.135 4.75-.023.89-.503 1.507-1.255 1.669-.61.131-1.079-.087-1.37-.639-.222-.422-.278-.88-.277-1.347.004-3.684-.547-7.282-1.709-10.78-1.152-3.47-2.823-6.65-5.256-9.406-2.832-3.207-6.378-5.132-10.553-5.95-2.808-.551-5.634-.686-8.474-.35-3.604.428-6.993 1.56-10.22 3.198-2.827 1.435-5.43 3.207-7.87 5.223-.194.16-.194.16-.417.174" transform="translate(0 4.974) translate(0 139.472) translate(101.26 .758)"/>
                    <path fill="#F8B517" d="M53.715 12.256c.499.184 1.006.348 1.495.555 10.52 4.47 17.188 12.24 19.924 23.354.541 2.194.765 4.44.789 6.703.003.293-.077.368-.364.367-1.914-.012-3.827-.014-5.742.001-.31.003-.355-.107-.348-.378.11-3.753-.308-7.447-1.332-11.062-1.855-6.547-5.366-12.045-10.506-16.5-.627-.542-1.27-1.066-1.941-1.553-.659-.48-1.327-.946-1.991-1.419l.016-.068M43.102 0c.556 1.027 1.447 1.66 2.278 2.35 1.335 1.109 2.494 2.356 3.19 3.978.222.517.378 1.05.506 1.598.07.299.031.39-.294.334-1.188-.208-2.386-.33-3.59-.398-2.364-.133-4.72-.05-7.066.286-.335.047-.67.098-1.044.152.135-1.067.511-2.015 1.033-2.913.709-1.22 1.694-2.19 2.768-3.082.813-.674 1.679-1.297 2.22-2.305M19.874 12.777c.002-1.15.348-2.474.82-3.774.357-.98.813-1.936.806-3.014-.001-.099.023-.186.146-.117 1.246.701 2.67.692 4.012 1.01 1.927.455 3.642 1.276 4.982 2.785.228.257.184.322-.121.437-3.565 1.356-6.831 3.237-9.78 5.66-.247.201-.355.22-.446-.121-.096-.364-.217-.723-.28-1.095-.087-.505-.144-1.012-.14-1.77M64.702 5.79c-.031 1.09.354 2.004.703 2.926.577 1.527 1 3.079.913 4.734-.04.747-.178 1.47-.402 2.183-.093.295-.16.366-.436.139-2.2-1.811-4.593-3.324-7.166-4.55-.878-.42-1.77-.81-2.687-1.139-.253-.09-.286-.163-.097-.377 1.29-1.461 2.926-2.315 4.794-2.761.579-.139 1.166-.247 1.754-.346.887-.15 1.775-.293 2.624-.81M76.351 30.942c-.458-1.198-.957-2.373-1.53-3.515-1.182-2.362-2.607-4.568-4.285-6.606-.194-.236-.195-.316.11-.418 1.964-.655 3.905-.498 5.844.118 1.019.324 1.987.798 3.045 1.01.3.062.604.055.956.083-.33.602-.538 1.228-.66 1.886-.19 1.053-.33 2.117-.647 3.144-.478 1.554-1.251 2.928-2.468 4.03-.082.074-.166.144-.251.212-.028.022-.064.032-.114.056M9.81 30.942c-1.117-.885-1.882-2.023-2.437-3.318-.533-1.244-.726-2.572-.956-3.89-.116-.663-.269-1.311-.597-1.906-.07-.125-.125-.228.097-.227 1.001.01 1.895-.396 2.805-.735 1.458-.543 2.943-.945 4.517-.883.782.031 1.544.168 2.291.41.312.101.354.176.134.44-1.678 2.026-3.088 4.225-4.27 6.574-.52 1.032-.98 2.092-1.397 3.172-.047.12-.061.26-.187.363" transform="translate(0 4.974) translate(0 139.472) translate(101.26 .758)"/>
                    <path fill="#D62733" d="M32.002 51.295c0 .84.015 1.68-.008 2.52-.008.298.097.366.367.374.353.01.706-.001 1.055-.045 1.18-.148 2.05-.896 2.314-1.98.131-.538.144-1.087.068-1.632-.149-1.073-.818-1.778-1.877-2.025-.528-.123-1.061-.096-1.597-.077-.247.01-.334.087-.329.343.017.84.007 1.681.007 2.522m-2.018.01c0-1.305.005-2.61-.005-3.914-.001-.23.03-.348.296-.377 1.457-.158 2.915-.264 4.366.022 2.196.433 3.416 2.009 3.317 4.253-.108 2.434-1.436 3.925-3.844 4.319-1.248.204-2.5.15-3.754.061-.32-.023-.388-.147-.383-.45.017-1.305.007-2.61.007-3.915" transform="translate(0 4.974) translate(0 139.472) translate(101.26 .758)"/>
                    <path fill="#D42532" d="M47.535 51.334c0 1.33-.007 2.658.007 3.987.002.267-.059.367-.342.351-.438-.024-.879-.022-1.316 0-.264.012-.356-.051-.35-.337.018-.987-.006-1.975.015-2.963.006-.3-.091-.357-.366-.352-.913.017-1.828.018-2.741 0-.282-.007-.341.08-.338.347.017 1-.002 2 .013 3 .004.248-.076.312-.31.303-.475-.015-.95-.014-1.426 0-.21.006-.268-.065-.268-.272.006-2.73.006-5.462 0-8.193 0-.202.051-.28.265-.275.487.014.975.018 1.462 0 .243-.01.277.091.275.3-.01.89.015 1.78-.013 2.67-.011.341.103.399.41.392.875-.02 1.755-.027 2.63.002.354.013.413-.111.406-.426-.02-.878.003-1.756-.013-2.634-.004-.245.07-.313.306-.305.45.018.903.021 1.353 0 .273-.015.351.067.348.344-.015 1.354-.007 2.707-.007 4.06" transform="translate(0 4.974) translate(0 139.472) translate(101.26 .758)"/>
                    <path fill="#D62733" d="M71.239 49.613c0 .316-.002.632.002.948 0 .09-.03.224.115.223.637-.003 1.297.105 1.866-.309.38-.277.515-.666.454-1.12-.06-.468-.334-.772-.779-.915-.486-.156-.986-.083-1.482-.069-.176.005-.176.131-.176.258v.984m2.86 1.934c.664.318.96.866 1.146 1.49.234.782.45 1.567.692 2.346.078.252-.007.291-.23.286-.487-.01-.976-.016-1.463.004-.23.009-.323-.095-.395-.286-.21-.573-.346-1.166-.502-1.754-.044-.165-.088-.33-.147-.49-.278-.746-1.083-1.136-1.836-.904-.183.056-.114.195-.115.299-.006.927-.012 1.854.002 2.78.005.264-.052.371-.34.356-.461-.026-.926-.017-1.388-.004-.212.006-.268-.071-.268-.275.005-2.695.004-5.392 0-8.087 0-.175.037-.262.23-.285 1.444-.173 2.888-.295 4.325.04 2.15.502 2.278 2.828 1.252 3.849-.27.27-.59.455-.963.635M53.45 48.388c-.275 1.179-.58 2.254-.897 3.324-.06.204.074.188.198.188.475 0 .95-.01 1.425.004.243.007.317-.032.232-.301-.323-1.033-.62-2.074-.958-3.215m.106-1.454c.341 0 .682.01 1.023-.004.202-.01.3.056.364.256.883 2.743 1.773 5.482 2.67 8.22.068.212.032.27-.195.265-.547-.014-1.096-.017-1.643.002-.224.007-.293-.096-.347-.278-.17-.57-.36-1.136-.521-1.708-.063-.22-.154-.317-.4-.31-.67.018-1.34.016-2.009 0-.242-.005-.336.082-.393.312-.143.566-.329 1.12-.473 1.686-.054.212-.13.305-.364.297-.499-.018-.999-.02-1.497 0-.28.01-.289-.079-.214-.313.866-2.723 1.724-5.448 2.578-8.174.062-.196.156-.266.362-.256.352.018.706.005 1.06.005M14.189 48.443c-.31 1.113-.611 2.197-.915 3.28-.049.173.053.177.173.177.511-.001 1.021-.004 1.531.002.185.003.23-.048.174-.234-.325-1.062-.637-2.127-.963-3.225m.065-1.509c.354 0 .708.014 1.06-.005.214-.012.297.079.357.268.88 2.73 1.768 5.459 2.658 8.186.07.21.066.299-.2.29-.535-.02-1.071-.02-1.607 0-.23.008-.315-.088-.375-.29-.166-.572-.355-1.137-.522-1.709-.058-.198-.134-.303-.37-.297-.693.017-1.388.012-2.083.002-.194-.003-.278.067-.328.251-.16.6-.345 1.192-.5 1.791-.05.193-.138.253-.328.25-.523-.012-1.048-.01-1.57-.002-.204.004-.248-.041-.181-.25.872-2.745 1.736-5.494 2.598-8.243.054-.173.135-.256.333-.247.352.017.705.005 1.058.005M63.042 48.393c-.282 1.164-.575 2.243-.9 3.313-.057.188.057.195.193.194.488-.002.976-.011 1.463.005.267.008.263-.087.197-.301-.316-1.036-.618-2.076-.953-3.211m.11-1.459c.353 0 .706.008 1.059-.003.175-.006.256.058.31.226.888 2.753 1.78 5.505 2.68 8.255.079.236.004.261-.201.257-.547-.009-1.096-.01-1.644.002-.195.004-.277-.072-.33-.25-.175-.596-.37-1.184-.544-1.78-.056-.195-.15-.267-.358-.263-.682.014-1.365.014-2.046 0-.224-.005-.321.067-.378.284-.152.588-.337 1.168-.49 1.756-.05.19-.131.256-.324.252-.524-.01-1.048-.01-1.572 0-.192.002-.256-.026-.187-.244.879-2.757 1.748-5.516 2.613-8.277.055-.175.146-.223.316-.218.365.01.73.003 1.096.003M23.762 48.383c-.27 1.17-.567 2.234-.89 3.292-.058.186.02.23.194.228.487-.009.976-.01 1.463 0 .22.005.268-.05.2-.273-.322-1.046-.627-2.097-.967-3.247m.083-1.45c.353 0 .707.016 1.06-.004.215-.013.296.08.357.267.88 2.73 1.764 5.46 2.656 8.186.07.218.058.299-.202.29-.535-.019-1.071-.019-1.606 0-.235.009-.317-.093-.374-.294-.168-.572-.359-1.136-.523-1.709-.059-.206-.145-.297-.375-.292-.681.016-1.364.016-2.046 0-.23-.005-.315.083-.37.293-.151.577-.333 1.144-.482 1.721-.05.197-.122.286-.34.28-.522-.015-1.046-.012-1.57-.001-.212.004-.239-.052-.176-.25.872-2.746 1.737-5.494 2.599-8.243.055-.178.139-.256.333-.247.352.015.706.004 1.06.004" transform="translate(0 4.974) translate(0 139.472) translate(101.26 .758)"/>
                    <path fill="#F8B517" d="M86.167 43.23c-2.435 0-4.87-.004-7.304.004-.251 0-.334-.061-.333-.322.008-1.806-.157-3.6-.457-5.38-.064-.38.088-.331.324-.282 1.476.306 2.757.999 3.897 1.97.792.675 1.448 1.476 2.107 2.275.527.638 1.064 1.262 1.766 1.734" transform="translate(0 4.974) translate(0 139.472) translate(101.26 .758)"/>
                    <g transform="translate(0 4.974) translate(0 139.472) translate(101.26 .758) translate(0 36.685)">
                        <mask id="prefix__b" fill="#fff">
                            <use xlink:href="#prefix__a"/>
                        </mask>
                        <path fill="#F8B517" d="M0 6.5c1.21-.725 1.918-1.903 2.823-2.895 1.336-1.463 2.89-2.57 4.857-3.01.071-.015.146-.02.215-.041.244-.078.29.012.248.245-.315 1.793-.448 3.603-.479 5.421-.003.204-.011.332-.286.331-2.426-.012-4.852-.007-7.277-.008-.019 0-.038-.016-.101-.043" mask="url(#prefix__b)"/>
                    </g>
                    <path fill="#D62733" d="M30.712 43.216c1.449-1.433 2.829-2.792 4.729-3.433.252-.085.516-.143.78-.178 1.27-.167 2.15.497 2.364 1.77.092.547.073 1.091.01 1.64-.02.18-.102.216-.26.216-.742-.003-1.486.004-2.229.005-.09 0-.187.025-.23-.113-.102-.333-.375-.35-.653-.306-.179.028-.376.06-.52.157-.394.267-.83.242-1.266.242h-2.725" transform="translate(0 4.974) translate(0 139.472) translate(101.26 .758)"/>
                    <path fill="#D72532" d="M11.008 37.761c.004-.487.183-.927.389-1.354.252-.528.58-1.012.95-1.465.26-.318.572-.57.994-.623.883-.115 1.536.7 1.306 1.631-.046.186-.115.378-.22.536-.467.717-1.014 1.366-1.687 1.9-.114.09-.241.165-.371.23-.827.407-1.375.063-1.361-.855" transform="translate(0 4.974) translate(0 139.472) translate(101.26 .758)"/>
                </g>
            </g>
            <path fill="#619440" d="M265.077 161.549c31.85 3.075 62.245-70.241 73.892-99.697 7.66-19.373 9.054-40.516 10.366-61.27-33.275 11.18-73.485 36.903-89.507 67.795-2.66 5.13-4.52 13.265-5.59 18.93-2.242 11.864-3.492 50.377-2.41 62.406.34 3.766-1.03 10.457 13.249 11.836" transform="translate(0 4.974)"/>
            <path fill="#306B34" d="M345.39 5.867c-.67-.58-1.69-.514-2.276.147-7.314 8.235-14.16 16.482-20.623 24.85-1.651-4.568-2.331-8.338-2.422-13.162-.017-.585-.504-1.053-1.098-1.042-.592.011-1.064.494-1.055 1.082.067 3.371.418 6.314 1.167 9.332.462 1.864 1.077 3.755 1.866 5.796-5.068 6.639-9.895 13.361-14.518 20.22-.265-2.623-.713-5.214-1.153-7.754-.493-2.843-.871-4.838-1.25-6.83-.38-2.001-.762-3.999-1.256-6.86-.099-.584-.657-.967-1.241-.868-.586.098-.98.646-.88 1.225.497 2.876.88 4.884 1.26 6.898.378 1.98.755 3.965 1.245 6.795.585 3.374 1.186 6.841 1.331 10.3-5.619 8.49-10.935 17.201-16.018 26.235l-4.992-16.348c-.786-2.575-1.603-5.242-1.685-7.937-.027-.577-.515-1.047-1.109-1.03-.594.018-1.06.507-1.043 1.093.05 1.65.336 3.246.721 4.803.312 1.252.687 2.477 1.058 3.685l5.6 18.34c-6.113 11.038-11.893 22.561-17.455 34.766-.155.336-.18.698-.097 1.032.115.46.434.865.905 1.074.814.36 1.768.003 2.133-.8 2.528-5.546 5.103-10.944 7.732-16.227h.005c5.761-.758 10.22-1.541 14.533-2.3 4.29-.754 8.725-1.534 14.442-2.286.588-.077 1.003-.611.924-1.193-.078-.571-.618-.99-1.209-.912-5.762.758-10.22 1.542-14.533 2.3-3.923.69-7.978 1.401-13.012 2.093 3.386-6.716 6.864-13.24 10.463-19.597 6.936-1.466 12.946-2.771 18.953-4.076 6.19-1.344 12.384-2.688 19.595-4.21.58-.123.95-.687.828-1.26-.204-.57-.696-.94-1.278-.818-7.216 1.524-13.412 2.87-19.608 4.214-5.46 1.186-10.919 2.37-17.075 3.677 4.18-7.274 8.524-14.344 13.064-21.262.026-.024.046-.052.069-.078.209.073.441.086.67.017 11.745-3.528 20.61-5.42 32.71-6.981.589-.077 1.004-.61.926-1.191-.089-.595-.62-.991-1.207-.916-11.675 1.507-20.374 3.321-31.472 6.587 4.18-6.268 8.53-12.42 13.075-18.494 8.442-3.632 13.145-4.288 21.94-4.296.594-.001 1.075-.477 1.074-1.063.002-.587-.481-1.06-1.074-1.062-8.29.007-13.13.715-19.433 3.103 6.841-8.958 14.12-17.766 21.932-26.563.591-.66.522-1.666-.15-2.248" transform="translate(0 4.974)"/>
            <path fill="#FFDE8E" d="M322.73 137.988c-4.135 28.238-27.905 62.218-55.373 73.384-8.774 3.566-19.358 5.635-27.787 1.005-7.997-4.393-11.74-13.911-11.032-22.537.707-8.625 5.105-16.493 10.102-23.63 5.18-7.397 11.157-14.366 18.463-19.91 7.306-5.542 15.928-10.357 25.375-10.805 20.442-.97 33.787 1.84 40.252 2.493" transform="translate(0 4.974)"/>
        </g>
        <g transform="translate(228.313 139.67)">
            <mask id="prefix__d" fill="#fff">
                <use xlink:href="#prefix__c"/>
            </mask>
            <path fill="#FFBF4D" d="M54.164.8c-9.447.449-18.068 5.263-25.374 10.806-7.306 5.542-13.283 12.512-18.463 19.909C5.33 38.652.93 46.52.224 55.145c-.464 5.667.992 11.72 4.314 16.45C6.27 74.066 94.417 3.294 94.417 3.294 88.888 2.734 78.326.599 62.594.599c-2.661 0-5.472.061-8.43.202" mask="url(#prefix__d)"/>
        </g>
        <path fill="#306B34" d="M341.668 190.112c0 2.523-2.045 4.567-4.568 4.567-2.522 0-4.567-2.044-4.567-4.567s2.045-4.568 4.567-4.568c2.523 0 4.568 2.045 4.568 4.568"/>
        <g transform="translate(322.886 180.747)">
            <mask id="prefix__g" fill="#fff">
                <use xlink:href="#prefix__e"/>
            </mask>
            <path fill="url(#prefix__f)" d="M.878 3.465c0 1.665 1.35 3.015 3.015 3.015s3.014-1.35 3.014-3.015C6.907 1.8 5.557.45 3.893.45 2.228.45.878 1.8.878 3.465" mask="url(#prefix__g)"/>
        </g>
        <g transform="translate(331.484 175.97)">
            <mask id="prefix__j" fill="#fff">
                <use xlink:href="#prefix__h"/>
            </mask>
            <path fill="url(#prefix__i)" d="M.492 2.523c0 1.165.945 2.11 2.111 2.11 1.165 0 2.11-.945 2.11-2.11 0-1.166-.945-2.11-2.11-2.11-1.166 0-2.111.944-2.111 2.11" mask="url(#prefix__j)"/>
        </g>
        <g transform="translate(149.024 13.572)">
            <mask id="prefix__l" fill="#fff">
                <use xlink:href="#prefix__k"/>
            </mask>
            <path fill="#FFBF4D" d="M55.971 1.687C12.98 8.367 2.753 38.627 1.291 44.889c0 0-6.886 32.974 12.105 58.227 18.992 25.253 58.646 30.887 82.646 7.514 24.001-23.375 21.288-93.081 21.288-93.081S103.397.45 71.396.45c-4.74 0-9.878.374-15.425 1.236" mask="url(#prefix__l)"/>
        </g>
        <g>
            <path fill="#FFDE8E" d="M50.968 50.552c1.43.494 3.083-.537 3.692-2.3.61-1.764-.055-3.596-1.483-4.09l-15.531-5.367-10.353-3.577c-1.429-.494-3.084.537-3.693 2.301-.61 1.764.055 3.596 1.485 4.09l10.353 3.577c3.37 1.165 5.292 4.826 5.081 8.91l-17.642-6.097c-1.43-.493-3.084.537-3.693 2.3-.61 1.764.055 3.597 1.484 4.09l17.642 6.096c-2.354 3.343-6.127 5.036-9.497 3.873L18.46 60.78c-.337-.116-.702-.15-1.073-.1-.743.109-1.466.553-2.001 1.249-.534.687-.838 1.57-.843 2.44-.008.44.062.86.203 1.236l11.872 32.71c.291.8.845 1.343 1.508 1.573.662.228 1.433.144 2.154-.3 1.44-.898 2.141-2.923 1.562-4.519L22.5 69.33l4.105 1.419c6.254 2.16 13.376-1.53 17.094-8.4l2.853.985c1.429.494 3.082-.537 3.692-2.3.61-1.764-.056-3.596-1.485-4.09l-2.851-.986c.433-2.511.315-4.955-.185-7.216l5.245 1.811z" transform="translate(161.443 2.108)"/>
            <path fill="#FFDE8E" d="M.978 114.58s.687.898 1.04 1.337c19.368 24.108 58.035 29.132 81.606 6.176 24-23.375 21.287-93.08 21.287-93.08l-20.453 27.34s-2.087 32.974-27.966 49.461C24.99 125.884.978 114.58.978 114.58" transform="translate(161.443 2.108)"/>
            <path fill="#FFE2B7" d="M51.01 210.159c-.843-.45-1.163-1.497-.713-2.34l4.231-7.938c.45-.844 1.497-1.163 2.34-.714.843.45 1.162 1.497.713 2.34l-4.232 7.939c-.449.843-1.497 1.162-2.34.713" transform="translate(161.443 2.108)"/>
            <path fill="#7F786A" d="M57.729 218.47c-.32.353-.874.372-1.237.042l-8.802-8c-.465-.42-.436-1.151.058-1.51l1.54-1.442c.441-.412 1.134-.408 1.592.009 0 0-.394.888.337 1.745.593.694 1.308.36 1.737.041.207-.155.516-.081.645.16l4.252 7.98c.165.326.116.713-.122.975M92.121 76.671c-5.078 7.636-9.908 11.969-14.014 23.915-4.877 14.192.085 52.232.085 52.232L51.99 204.334l9.093 5.43s36.9-37.014 43.868-50.635c2.524-4.935 9.984-20.425 14.5-38.775 3.44-13.978 5.269-17.303 6.903-30.711.644-5.285 1.236-15.203 1.236-15.203s-33.036 3.623-35.469 2.231" transform="translate(161.443 2.108)"/>
            <path fill="#FFE2B7" d="M175.253 218.184c-.735.61-1.826.51-2.436-.225l-5.749-6.919c-.61-.734-.51-1.824.224-2.435.736-.611 1.826-.51 2.436.225l5.75 6.919c.61.735.51 1.825-.225 2.435" transform="translate(161.443 2.108)"/>
            <path fill="#A29C8F" d="M91.346 75.761c-2.327 5.135-13.775 8.975-15.862 31.931-1.706 18.776 45.08 60.315 45.08 60.315l45.427 52.036 6.54-8.07s-23.375-47.096-30.262-59.618c-8.715-15.845-24.21-55.932-24.21-55.932s3.21-24.308 2.505-25.183c-2.783 2.322-20.93.204-29.218 4.521" transform="translate(161.443 2.108)"/>
            <path fill="#7F786A" d="M183.505 210.756c.35.323.376.866.055 1.214l-7.785 8.454c-.41.446-1.129.402-1.488-.092l-1.436-1.546c-.41-.441-.414-1.122-.009-1.562 0 0 .88.408 1.716-.29.677-.566.34-1.276.021-1.704-.154-.206-.084-.508.153-.63l7.812-3.988c.318-.154.7-.097.961.144" transform="translate(161.443 2.108)"/>
            <path fill="#F5EFE4" d="M131.277 68.387c3.486.493 5.983-5.426 5.983-5.426l-13.29-26.667c-4.248-8.444-13.804-12.216-21.343-8.423 0 0 16.235 38.76 28.65 40.516" transform="translate(161.443 2.108)"/>
            <path fill="#F5EFE4" d="M127.764 75.24s-4.33 5.475-15.34 5.74c-17.426.417-21.294-2.522-21.983-4.245-2.226-5.565-8.578-28.024-8.578-28.024-1.51-7.515.696-17.363 8.772-18.987l14.944-3.005c8.076-1.625 15.127 4.823 17.87 13.825 2.238 7.35 4.315 34.696 4.315 34.696" transform="translate(161.443 2.108)"/>
            <path fill="#FFE2B7" d="M104.495 28.865c-1.37.226-2.665-.702-2.89-2.071l-.868-5.255c-.226-1.37.7-2.664 2.072-2.89 1.37-.226 2.663.702 2.89 2.072l.867 5.254c.226 1.37-.701 2.664-2.071 2.89" transform="translate(161.443 2.108)"/>
            <path fill="#FFC581" d="M100.753 21.637c-.235-1.423.685-2.762 2.055-2.987 1.37-.227 2.671.744 2.906 2.168l.615 3.726c.13.777-1.783.6-3.393-.381-1.055-.643-2.05-1.718-2.05-1.718l-.133-.808z" transform="translate(161.443 2.108)"/>
            <path fill="#FFE2B7" d="M95.897 13.558c.381-.24 1.46-.097 1.46-.097-.936-3.232.924-6.613 4.157-7.549 3.233-.937 6.1 1.072 7.037 4.304 0 0 1.456 4.819 1.53 5.456.487 4.166-.808 5.812-3.8 6.68-2.994.868-6.109-.666-7.3-3.462-.636.078-1.679-.752-2.487-2.034-.916-1.452-1.183-2.928-.597-3.298" transform="translate(161.443 2.108)"/>
            <path fill="#FFE2B7" d="M103.273 5.683s.178.008.267.016c2.354.2 4.275 1.983 5.01 4.518 0 0 1.457 4.818 1.531 5.455.32 2.737-.148 4.463-1.365 5.494-.796.674-1.732.955-1.732.955s2.42-2.841.213-9.272c-1.322-3.855-3.924-7.166-3.924-7.166" transform="translate(161.443 2.108)"/>
            <path fill="#FCBD30" d="M98.106 8.962c-.281.61 2.783.095 3.578 1.144.795 1.049-1.335 2.322-1.804 3.327-.202.429.42 2.407.064 2.484-.477.103-1.8-1.763-2.436-1.72-1.111.078.137 1.772 1.246 4.14 1.11 2.368-2.853 1.256-4.985-1.987-3.057-4.648-1.963-11.358 1.364-10.733 0 0 .824-4.297 4.178-4.606 2.035-.187 5.095.523 8.14.523 4.556 0 6.713-1.392 6.713-1.392s0 2.713-2.174 5.444c-2.322 2.919-6.007 2.937-7.396 3.097-2.893.333-6.253-.232-6.488.28" transform="translate(161.443 2.108)"/>
            <path fill="#FFE2B7" d="M99.241 15.53c.884 1.333 1.05 2.778.37 3.229-.68.45-1.976-.125-2.86-1.457-.884-1.332-1.02-2.917-.34-3.367.68-.452 1.947.263 2.83 1.596" transform="translate(161.443 2.108)"/>
            <path fill="#F5EFE4" d="M68.04 67.553s-4.191-2.754-3.478-7.236c1.344-8.43 14.815-24.334 21.934-29.003 8.693-5.701 5.536 13.223 5.536 13.223L68.04 67.553z" transform="translate(161.443 2.108)"/>
            <path fill="#FCC23F" d="M1.396 43.816c-.108 0-.108.167 0 .167.107 0 .108-.167 0-.167" transform="translate(161.443 2.108)"/>
            <path fill="#FFDE8E" d="M74.963 39.447s6.47-4.173 10.853-3.86c4.382.312 8.034 2.086 8.973 6.261.866 3.849 2.087 14.795-2.473 20.323-.717.869-.756 2.112.01 2.937 1.437 1.548 4.032 3.573 7.576 3.244l-.237 1.567c-.155 1.027.64 1.946 1.678 1.93 4.06-.057 13.268-1.115 16.403-9.236 0 0 7.927 1.256 10.754-7.301.22-.662.098-1.386-.284-1.971-3.067-4.687-17.754-25.934-37.288-34.45-19.065-8.314-15.965 20.556-15.965 20.556" transform="translate(161.443 2.108)"/>
            <path fill="#FFE2B7" d="M96.432 29.878s1.73-1.091 2.375-1.038c.493.041 1.659 1.083 1.659 1.083s-.334 4.284-1.25 5.012c-.438.349-1.6.243-2.462.1-.571-.093-.964-.625-.882-1.199l.56-3.958z" transform="translate(161.443 2.108)"/>
            <path fill="#FFE2B7" d="M93.797 31.564c.472-.356 1.142-.26 1.497.212l1.623 2.158-.855.643-2.265-3.013zM97.69 26.746c-.589-.037-1.096.412-1.133 1.001l-.167 2.695 1.067.066.234-3.762z" transform="translate(161.443 2.108)"/>
            <path fill="#FFE2B7" d="M99.18 25.957c-.583-.093-1.14.375-1.247 1.043l-.482 3.055 1.056.166.674-4.264z" transform="translate(161.443 2.108)"/>
            <path fill="#FFE2B7" d="M100.042 26.331c-.583-.092-1.141.376-1.247 1.043l-.483 3.055 1.057.167.673-4.265z" transform="translate(161.443 2.108)"/>
            <path fill="#FFE2B7" d="M100.629 27.376c-.543-.045-1.029.464-1.085 1.138l-.26 3.081 1.164-1.463.181-2.756zM109.643 30.484l-.038.042c-.374.416-.34 1.056.075 1.43l2.047 1.846.433-.464-2.517-2.854zM97.494 33.408L95.635 35.552 97.275 36.866 99.204 34.636z" transform="translate(161.443 2.108)"/>
            <path fill="#E7E1D3" d="M96.729 39.083L98.157 36.838 95.431 34.542 93.163 36.818z" transform="translate(161.443 2.108)"/>
            <path fill="#E7E1D3" d="M99.276 42.091c.578 3.868-4.138 10.704-8.139 15.165-8.493 9.471-22.525 16.418-25.91 6.608-.539-1.557 26.871-28.74 26.871-28.74s6.607 3.144 7.178 6.967" transform="translate(161.443 2.108)"/>
            <path fill="#FCDCA4" d="M97.311 19.386c-1.428-.417-2.661-1.388-3.649-2.543-.946-1.196-1.646-2.596-2.032-4.09-.373-1.496-.49-3.079-.16-4.666.2-.787.48-1.601 1.094-2.315.587-.732 1.75-1.172 2.72-.959l-.954.65c.227-1.027.572-1.92 1.127-2.795.544-.856 1.342-1.645 2.357-2.095 1.053-.456 2.134-.4 3.039-.331.942.074 1.842.202 2.74.329 1.788.267 3.537.493 5.315.47 1.77-.009 3.571-.212 5.256-.9-1.512 1.055-3.374 1.498-5.194 1.777-1.842.253-3.72.166-5.529.03-.904-.066-1.802-.16-2.67-.182-.888-.022-1.686.003-2.308.288-1.29.582-2.152 2.2-2.527 3.717l-.026.103c-.1.404-.508.65-.911.552l-.017-.005c-.927-.251-1.694.752-2.052 2.023-.315 1.273-.335 2.684-.111 4.051.24 1.37.728 2.701 1.44 3.92.731 1.202 1.771 2.253 3.052 2.97" transform="translate(161.443 2.108)"/>
        </g>
        <g transform="translate(253.15 47.962)">
            <mask id="prefix__o" fill="#fff">
                <use xlink:href="#prefix__m"/>
            </mask>
            <path fill="url(#prefix__n)" d="M7.082 9.107C5.691 16.62.62 19.255.62 19.255c3.478 4.521 7.575 3.244 7.575 3.244s.632-4.507.766-6.017C9.864 6.324 8.473.828 8.473.828s0 .765-1.39 8.279" mask="url(#prefix__o)"/>
        </g>
        <g transform="translate(267.48 35.543)">
            <mask id="prefix__r" fill="#fff">
                <use xlink:href="#prefix__p"/>
            </mask>
            <path fill="url(#prefix__q)" d="M.475.656S8.092 3.16 10.7 14.847c2.609 11.688 1.009 14.331 1.009 14.331s4.07.21 5.843-.835c1.774-1.043 3.862-2.817 3.862-2.817S16.84 14.094 11.397 7.056C7.519 2.042 2.898.656.583.656H.475" mask="url(#prefix__r)"/>
        </g>
        <g>
            <path fill="#FFE2B7" d="M259.922 4.935c-.06.54.328 1.027.868 1.087l2.467.278.11-.977-3.445-.388z" transform="translate(6.687 30.767)"/>
            <path fill="#FFE2B7" d="M259.507 3.39c-.155.57.248 1.176.9 1.354l2.985.812.28-1.032-4.165-1.134z" transform="translate(6.687 30.767)"/>
            <path fill="#FFE2B7" d="M259.438 2.056c-.218.55.115 1.196.744 1.447l2.874 1.14.395-.994-4.013-1.593z" transform="translate(6.687 30.767)"/>
            <path fill="#FFE2B7" d="M260.352 1.636c-.163.52.228 1.105.873 1.309l2.95.927-.756-1.255-3.067-.98z" transform="translate(6.687 30.767)"/>
            <path fill="#FFE2B7" d="M262.103 5.9s-.477-1.315-.28-1.93c.151-.473 1.344-1.412 1.344-1.412s2.389.296 3.955 2.318c.318.41.218 1.046-.108 1.857-.215.538-1.22.709-1.71.523l-3.2-1.355z" transform="translate(6.687 30.767)"/>
            <path fill="#FFE2B7" d="M265.556 6.344L267.445 8.462 268.958 7.005 266.994 4.806z" transform="translate(6.687 30.767)"/>
            <path fill="#E7E1D3" d="M270.569 7.712L268.512 6.089 266.289 8.516 268.352 10.964z" transform="translate(6.687 30.767)"/>
            <path fill="#E7E1D3" d="M273.396 5.44c3.671-.048 9.155 5.95 12.29 10.285 6.655 9.2 10.749 24.08.8 24.075-4.21-.002-19.94-28.954-19.94-28.954s3.222-5.359 6.85-5.407" transform="translate(6.687 30.767)"/>
            <g transform="translate(6.687 30.767) translate(259.837 15.285)">
                <mask id="prefix__u" fill="#fff">
                    <use xlink:href="#prefix__s"/>
                </mask>
                <path fill="url(#prefix__t)" d="M3.057.046C5.405 3.52 7.04 7.64 7.14 11.996c-.008 1.088-.08 2.168-.309 3.253-.287 1.106-.689 2.076-1.208 3.038-.992 1.874-2.57 3.707-4.681 4.209 1.903-.97 2.987-2.808 3.8-4.635.38-.925.754-1.918.928-2.853.17-.972.232-1.99.217-2.994C5.834 7.953 4.532 3.974 3.057.046" mask="url(#prefix__u)"/>
            </g>
            <g transform="translate(6.687 30.767) translate(258.882 21.016)">
                <mask id="prefix__x" fill="#fff">
                    <use xlink:href="#prefix__v"/>
                </mask>
                <path fill="url(#prefix__w)" d="M3.916-.001c1.1 2.324 1.514 4.968 1.198 7.582-.195 1.301-.568 2.607-1.278 3.75-.714 1.142-1.774 2.032-2.947 2.546.906-.928 1.583-1.926 2.085-3.004.461-1.101.74-2.264.899-3.457.184-1.191.196-2.417.196-3.651-.027-1.234-.059-2.488-.153-3.766" mask="url(#prefix__x)"/>
            </g>
            <path fill="#57575E" d="M132.701 20.718H96.72c-2.8 0-5.069-2.27-5.069-5.07V5.227c0-2.8 2.27-5.069 5.069-5.069H132.7c2.8 0 5.07 2.269 5.07 5.069v10.423c0 2.8-2.27 5.069-5.07 5.069" transform="translate(6.687 30.767)"/>
            <path fill="#F6F7FB" d="M1.775 51.625h107.283c.514 0 .944.803 1.092 1.906H.683c.148-1.103.578-1.906 1.092-1.906" transform="translate(6.687 30.767)"/>
            <path fill="#57575E" d="M110.15 53.53c.035.264.06.538.06.828 0 1.51-.516 2.734-1.152 2.734H1.775c-.636 0-1.152-1.224-1.152-2.734 0-.29.025-.564.06-.827H110.15zM31.665 51.68h58.948c1.147 0 3.55-.673 3.977-1.7H27.687c.429 1.027 2.831 1.7 3.978 1.7" transform="translate(6.687 30.767)"/>
            <path fill="#5F7DFC" d="M60.692 19.792c0 .247.2.447.447.447.246 0 .446-.2.446-.447 0-.246-.2-.446-.446-.446-.248 0-.447.2-.447.446" transform="translate(6.687 30.767)"/>
            <path fill="#5F7DFC" d="M60.837 20.094c.44.338.942-.163.603-.603-.44-.339-.942.163-.603.603" transform="translate(6.687 30.767)"/>
            <path fill="#A29C8F" d="M35.125 18.494h52.027c.672 0 1.216.545 1.216 1.217v30.268H33.91V19.71c0-.672.545-1.216 1.216-1.216" transform="translate(6.687 30.767)"/>
            <path fill="#FFF" d="M36.131 48.032L86.147 48.032 86.147 20.717 36.131 20.717z" transform="translate(6.687 30.767)"/>
            <path fill="#FFDE8E" d="M75.518 32.183L76.391 32.183 83.917 32.183 83.917 42.886 76.391 42.886 75.518 42.886 70.494 42.886 70.494 32.183z" transform="translate(6.687 30.767)"/>
            <path fill="#F7F8FC" d="M73.203 39.99L81.209 39.99 81.209 35.08 73.203 35.08z" transform="translate(6.687 30.767)"/>
        </g>
        <g transform="translate(82.154 66.112)">
            <mask id="prefix__A" fill="#fff">
                <use xlink:href="#prefix__y"/>
            </mask>
            <path fill="url(#prefix__z)" d="M0.433 2.158L3.044 3.399 3.044 0.918z" mask="url(#prefix__A)"/>
        </g>
        <g>
            <path fill="#FFDE8E" d="M35.772 62.753L45.229 62.753 45.229 67.59 35.772 67.59zM25.806 66.194L35.263 66.194 35.263 61.356 25.806 61.356zM15.841 66.194L25.298 66.194 25.298 61.356 15.841 61.356zM13.908 60.156L62.515 60.156 62.515 52.193 13.908 52.193z" transform="translate(29.614 .198)"/>
            <path fill="#F7F8FC" d="M53.577 57.821L59.612 57.821 59.612 54.697 53.577 54.697z" transform="translate(29.614 .198)"/>
            <path fill="#FFFEFF" d="M42.908 56.176L47.641 56.176 47.641 54.971 42.908 54.971zM15.543 56.176L42.112 56.176 42.112 54.971 15.543 54.971zM15.543 58.095L47.641 58.095 47.641 57.826 15.543 57.826z" transform="translate(29.614 .198)"/>
            <path fill="#EABBAB" d="M41.323 18.86c1.125 4.188.58 9.699-.699 11.327-.045.058-3.315.629-5.76 1.158l-9.579-.668c0-.08-.005-.16-.014-.24-.14-1.462-1.194-2.445-3.428-3.793 0 0-4.365-2.644-5.446-8.55-1.08-5.906.527-11.693 9.009-13.18 8.472-1.483 12.957.712 13.833 2.129 1.276 5.326 1.197 8.263 1.217 8.86 0 0 .707 2.363.867 2.958" transform="translate(29.614 .198)"/>
            <path fill="#EABBAB" d="M33.242 38.323c.91-2.638 1.973-5.794 2.38-7.3-.716-.287-8.861-3.459-8.861-3.459-1.55 4.343-3.244 7.316-4.661 9.29l11.142 1.469z" transform="translate(29.614 .198)"/>
            <path fill="#57575E" d="M34.635 18.156c.21 1.305.326 3.141.326 3.141l-.768.892-2.006-1.053s-.759 6.904-1.588 7.632c-2.013 1.768-5.268.991-5.268.991-1.916-1.35-8.025-4.509-9.528-11.768-.752-3.63-.54-9.19 2.599-12.266C23.395.832 30.696-.04 35.3 1.362c5.312 1.62 5.45 5.29 6.41 8.3 0 0 .228 4.034-7.075 8.494" transform="translate(29.614 .198)"/>
            <path fill="#EABBAB" d="M31.554 22.886c.404 2.059 1.326 4.516 2.926 4.598.297.041.426-5.16.304-6.228-1.965-3.495-3.64-.467-3.23 1.63M20.246 220.017v-6.44l4.39-41.397H12.777c-.24 12.984.113 39.912.113 39.912s-.898 6.542-1.44 7.925h8.795z" transform="translate(29.614 .198)"/>
            <path fill="#7F786A" d="M10.408 222.483s-1.042-1.633.783-5.926c.856-2.013 2.591-1.884 4.099-1.856 1.563.031 3.14.224 3.945 1.658 1.035 1.845 1.258.306 1.8 3.744.225 1.425.097 2.59-.219 2.5l.045 1.685H10.009l-.05-1.65.45-.155z" transform="translate(29.614 .198)"/>
            <path fill="#A29C8F" d="M8.55 106.123l3.827 34.86c-.103 1.732-.217 3.464-.351 5.191-.832 10.785.213 29.941-.299 45.654h11.752l5.48-50.845 2.853-33.867-23.262-.993z" transform="translate(29.614 .198)"/>
            <path fill="#7F786A" d="M22.14 196.487L15.7 196.841 10.85 194.943 10.994 185.354 25.262 187.197 24.114 194.408z" transform="translate(29.614 .198)"/>
            <path fill="#EABBAB" d="M40.73 171.304l7.591 3.085c0-.03.374-2.033.374-2.064.017-3.068 2.074-7.266 2.982-9.427 2.697-6.427 8.373-21.25 13.127-33.275l-11.742-4.185-12.332 45.866z" transform="translate(29.614 .198)"/>
            <path fill="#7F786A" d="M41.55 167.262l-2.246 5.92-.18-.074-.584 1.776 7.267 2.891.266-.806.228.563c.136.334.391.596.704.72l6.199 2.465.339-1.027c-.09-.044-.302-.098-.245-.29.12-.47.02-1.757-.53-2.558-.882-1.282-2.244-3.453-2.724-4.512-.48-1.058-.614-1.915-.614-1.915s-.778-.1-.848.598c-.072.71-1.298.483-2.516-.274-.682-.426-1.361-2.342-1.361-2.342-.33-1.094-2.798-2.367-3.155-1.135" transform="translate(29.614 .198)"/>
            <path fill="#A29C8F" d="M16.013 113.658l40.466-1.012c-1.812 3.21-2.738 5.725-3.527 8.386-1.126 3.804-2.008 7.336-2.775 10.59-1.1 4.647-1.948 8.723-2.9 12.194l11.122 4.686c6.466-11.608 16.403-35.078 17.92-44.862 1.068-6.857-6.448-10.623-12.129-11.656-6.563-1.203-28.03-1.6-27.714-1.6V90.3l-.854-2.312V85.05H4.742c-.75 2.72-1.207 5.366-1.386 7.886-.795 11.373 4.054 20.292 12.657 20.722" transform="translate(29.614 .198)"/>
            <path fill="#7F786A" d="M56.981 151.758L50.086 150.206 45.805 147.05 48.009 137.746 62.129 143.694 59.337 150.265zM50.177 131.621c3.658-7.1 9.462-14.102 16.629-21.044l-10.327 2.069c-1.812 3.21-2.738 5.725-3.527 8.386-1.126 3.803-2.008 7.336-2.775 10.59" transform="translate(29.614 .198)"/>
            <path fill="#EABBAB" d="M82.768 13.984s3.043-5.222 1.852-7.291c-.633-1.1-2.898 6.993-2.898 6.993l1.046.298zM84.735 20.148s-2.908-4.999-4.8-4.746c-.968.128 1.907 2.907 2.49 5.38l2.31-.634zM85.159 14.348s3.432-.97 3.498-2.29c.032-.636-4.186 1.175-4.186 1.175l.688 1.115z" transform="translate(29.614 .198)"/>
            <path fill="#EEC9BC" d="M69.662 36.746c5.076-4.077 9.735-8.351 12.4-12.078l-.54-10.633 1.956-2.7 3.949-3.51c1.898 1.121-2.797 4.54-2.797 4.54s3.777-2.182 4.108-2.024c1.1.522-3.233 3.194-3.233 3.194-.377 3.774 2.908 9.882 2.286 11.881-.42 1.352-1.822 2.14-2.544 2.49-2.789 4.414-6.337 8.38-9.704 12.226l-5.88-3.386z" transform="translate(29.614 .198)"/>
            <path fill="#F7F8FC" d="M13.861 39.633L1.023 66.49c-1.584 3.313.4 7.227 4.009 7.907l22.515 4.244L13.86 39.633z" transform="translate(29.614 .198)"/>
            <path fill="#DDC4AF" d="M13.861 39.633S1.424 73.717 5.031 74.397l22.516 4.244L13.86 39.633z" transform="translate(29.614 .198)"/>
            <path fill="#EAD5C1" d="M2.953 90.667c.648 2.633 14.818 3.972 25.68 1.91 2.84-.544 5.458-1.317 7.542-2.362l5.758-36.343 21.961-1.623c2.502-.8 3.842-1.317 5.768-3.102 6.202-7.216 11.354-14.007 16.073-21.457l-4.774-2.21c-4.035 4.42-10.513 9.68-17.73 15.194-5.221 2.163-20.835-1.688-22.626-2.494l-5.703-2.53-10.618-1.235c-8.314.412-13.539 6.578-14.714 17.201-.446 4.043-.403 18.807-6.617 39.05" transform="translate(29.614 .198)"/>
            <path fill="#FFF" d="M35.622 35.929L22.525 34.521 23.432 31.969 35.622 34.66z" transform="translate(29.614 .198)"/>
            <path fill="#DDC4AF" d="M27.865 92.716l.768-.14c2.84-.543 5.459-1.316 7.542-2.361l5.759-36.343c-3.71.102-6.724-.089-9.321-.938-.174 3.7 1.878 7.708 3.56 11.376 2.225 4.854.367 5.395-.646 7.24-1.011 1.838-.93 3.81-.696 5.817.23 2.008.855 1.572 0 4.876-.86 3.303 1.451 4.579-2.4 6.203-4.353 1.837-4.863 4.048-4.566 4.27" transform="translate(29.614 .198)"/>
            <path fill="#7F786A" d="M8.096 175.598l4.63-31.606h9.314v31.606H8.096zm16.421-31.606h9.316l4.628 31.606H24.517v-31.606zm-21.27 61.194v21.665h1.709v-22.322c0-6.726.48-13.443 1.437-20.1l1.023-7.123h14.392v49.545h2.941v-49.545h14.393l1.023 7.122c.956 6.658 1.436 13.375 1.436 20.1v22.323h1.709v-21.665c0-6.937-.507-13.927-1.507-20.782l-6.144-42.12H24.517v-19.648H22.04v19.647H10.9l-6.145 42.12c-.999 6.856-1.506 13.846-1.506 20.783z" transform="translate(29.614 .198)"/>
            <path fill="#57575E" d="M45.018 115.802v4.698c0 2.595-2.103 4.699-4.699 4.699H7.014c-2.589 0-4.707-2.118-4.707-4.707v-4.69h42.711z" transform="translate(29.614 .198)"/>
            <path fill="#F7F8FC" d="M45.018 113.933v1.87H2.308v-1.87c0-.381.31-.694.692-.694h41.325c.382 0 .693.313.693.694" transform="translate(29.614 .198)"/>
            <path fill="#FFE2B7" d="M78.776 42.437c.048.339.143.593.283.76.257.306.698.459 1.322.459.374 0 .678-.04.91-.122.443-.153.665-.44.665-.86 0-.246-.11-.436-.325-.57-.218-.13-.561-.246-1.032-.347l-.803-.176c-.79-.175-1.334-.365-1.63-.57-.5-.342-.75-.878-.75-1.607 0-.665.246-1.217.735-1.658.489-.44 1.208-.66 2.157-.66.792 0 1.467.209 2.027.623.56.415.852 1.017.88 1.806h-1.492c-.027-.447-.227-.764-.599-.952-.248-.125-.555-.186-.924-.186-.41 0-.737.08-.981.242-.245.16-.367.385-.367.674 0 .266.12.463.362.595.155.087.483.19.986.307l1.303.307c.571.135.999.315 1.285.54.442.349.664.854.664 1.515 0 .68-.263 1.242-.788 1.691-.524.448-1.264.673-2.222.673-.978 0-1.746-.221-2.307-.663-.56-.442-.84-1.048-.84-1.821h1.481zM84.736 44.729L84.736 37.303 86.278 37.303 86.278 40.134 89.163 40.134 89.163 37.303 90.705 37.303 90.705 44.729 89.163 44.729 89.163 41.414 86.278 41.414 86.278 44.729zM97.15 42.94c.362-.453.542-1.097.542-1.934 0-.833-.18-1.477-.541-1.932-.361-.455-.849-.683-1.464-.683-.614 0-1.104.228-1.47.68-.367.454-.55 1.1-.55 1.935 0 .837.183 1.48.55 1.935.366.453.856.68 1.47.68.615 0 1.103-.227 1.464-.68m.97 1.128c-.561.578-1.372.866-2.434.866-1.061 0-1.872-.288-2.433-.866-.752-.71-1.128-1.73-1.128-3.063 0-1.36.376-2.381 1.128-3.063.56-.578 1.372-.866 2.433-.866 1.062 0 1.873.288 2.433.866.75.682 1.124 1.703 1.124 3.063 0 1.334-.375 2.354-1.124 3.063M104.435 38.84c-.197-.164-.472-.247-.825-.247h-1.399v2.186h1.399c.353 0 .628-.089.825-.267.197-.178.295-.46.295-.846 0-.387-.098-.662-.295-.826m1.185 2.675c-.435.363-1.056.544-1.863.544h-1.546v2.67h-1.542v-7.425h3.189c.735 0 1.321.19 1.758.574.436.383.655.975.655 1.778 0 .877-.217 1.496-.651 1.859" transform="translate(29.614 .198)"/>
        </g>
    </g>
</svg>
