<svg xmlns="http://www.w3.org/2000/svg" width="71" height="71" viewBox="0 0 71 71">
    <g fill="none" fill-rule="evenodd">
        <path fill="#FFB218" d="M62.727 70.727h-54c-4.4 0-8-3.6-8-8v-54c0-4.4 3.6-8 8-8h54c4.4 0 8 3.6 8 8v54c0 4.4-3.6 8-8 8"/>
        <path fill="#FFF" d="M38.662 29.411c-.784 0-1.42-.636-1.42-1.42 0-.784.636-1.42 1.42-1.42.784 0 1.42.636 1.42 1.42 0 .784-.636 1.42-1.42 1.42m-12.704 6.155c-.784 0-1.42-.635-1.42-1.42 0-.784.636-1.419 1.42-1.419.784 0 1.42.635 1.42 1.42 0 .784-.636 1.42-1.42 1.42m10.338-12.868l.207-5.06c.007-.182-.135-.336-.316-.344-.182-.007-.336.135-.343.316l-.208 5.084c-4.975.052-9.387 2.454-12.186 6.154l-4.295-2.874c-.151-.1-.357-.06-.458.091-.101.151-.06.357.09.457l4.276 2.861c-1.74 2.514-2.763 5.566-2.763 8.86 0 2.078.41 4.06 1.147 5.873L49.166 30.37c-2.615-4.46-7.381-7.498-12.87-7.67M28.02 60.058L22.2 48.325c-.883-1.782-3.064-2.517-4.846-1.633-1.78.884-2.516 3.064-1.633 4.846l4.226 8.52M60.413 33.918l-1.907-3.845c-.884-1.782-3.064-2.517-4.846-1.633-1.78.883-2.516 3.064-1.633 4.846l5.994 12.086c.492.993 1.388 1.659 2.392 1.903M59.423 60.058c.544 0 .99-.445.99-.99V53.47L49.517 31.5 21.932 45.18l7.378 14.878"/>
    </g>
</svg>
