<svg xmlns="http://www.w3.org/2000/svg" xmlns:xlink="http://www.w3.org/1999/xlink" width="263" height="297" viewBox="0 0 263 297"><defs><path id="reuse-0" fill="#FFB127" d="M54.3 180.3l52-.3c3.1 0 5.7-2.7 5.7-5.8 0-3.2-2.6-5.8-5.8-5.8l-52 .3a5.8 5.8 0 00-5.7 5.8c0 3.2 2.6 5.8 5.8 5.8"/></defs><defs><path id="a" d="M49.3 1.1C47.5 2 46.5 4 45.8 6c-1.3 3.4-2 7-2.4 10.6 0 .9 0 1.8-.4 2.6-.4.9-1.2 1.5-2.1 1.5-.8 0-1.4-.7-1.7-1.4-.3-.7-.3-1.5-.3-2.3.2-5.5 2.8-11 7-14.6a8 8 0 00-6-.8A8 8 0 0035 5.3c-1.5 2.7-1.2 6-.9 9.2l.8 7.3c0 .9.1 2-.6 2.6-.6.5-1.6.5-2.3 0a4.3 4.3 0 01-1.5-2C29 19.6 29.2 16 30 13c.9-3.2 2.4-6.1 4-9a47.6 47.6 0 00-19.8 12.5l-2.3 2.3c.2 4.7 3 9.3 7 11.7.8.4 1.8 1 1.7 2 0 .7-.7 1.1-1.4 1.2-.6 0-1.3-.2-1.9-.5-4.7-2.4-7.5-8-6.8-13.2C4.5 25.4 1 33.4.7 41.5c0 2.3.2 4.8 1.1 7 1 2.1 2.6 4 4.8 5 2.2.8 4.9.5 6.6-1.1 1-1 1.6-2.2 2.5-3.2 1-1 2.9-2 3.7-1 .4.6-.9 1.9-1.5 2.4l-.7.7c-2 2.5-2.2 5-1.5 8.2a30 30 0 006.1 10.9 16.6 16.6 0 0011.5 4.3h.2c9.7 0 13.8-5.8 13.8-5.8s-6.5-.4-10-5.1c-3.2-4.3-3-9.4-5.4-14.1-.4-.7-.8-1.5-.8-2.3 0-.8.4-1.7 1.1-1.9.8-.2 1.7.3 2.1 1 .5.7.6 1.6.7 2.4.8 4.9 3.2 9.4 6.8 12.8 2.5 2.3 5.6 4 9 4 2.5 0 5-1 7-2.4a38 38 0 005.7-5.2 24.3 24.3 0 01-22.7-8c-1-1.2-2-2.7-1.6-4.3.2-1 1.1-1.9 2.2-1.8 1 0 1.6 1 2.1 1.9a21.8 21.8 0 0017 10c2 0 4-.1 5.6-1.2 2.8-1.9 3.5-6 6.4-7.8a24 24 0 01-23.8-1 6 6 0 01-2-2c-.5-.7-.5-1.9 0-2.6.8-.9 2.2-.9 3.2-.4s1.8 1.4 2.7 2.2c2.3 2 5.4 3 8.5 3.4 3 .3 6.1-.1 9.2-.7 1.7-.3 3.5-.7 4.4-2.2.5-.8.7-1.8.8-2.7l1.4-12.5c-.5 1.8-6.2 6-10 6.7-2.2.4-6.7.2-8.8-.5a7 7 0 01-2.1-.9c-.6-.4-1.1-1.2-1-2 0-.7.6-1.5 1.3-1.8a6 6 0 012.5-.5h4c2.2.2 4.4.2 6.5 0 3.5-.5 7-2.2 8.7-5.3-2.8-5.2-4.1-11.1-3.9-17 .1-1.7.3-3.6-.7-5.1l-.6 1.6a4.5 4.5 0 01-5.3 1.8c-1.5-.5-2.6-1.9-4.1-2-1.1 0-2.2.5-3 1.3s-1.2 1.8-1.6 2.8l-4.1 8.3c-.7 1.3-1.7 2.8-3.1 2.5-1.1-.2-1.6-1.4-1.8-2.5-.5-2.6 0-5.3 1.4-7.5C52.7 6 55 4.4 57.5 3.8c-1.2-1-2.4-1.9-3.8-2.5C53 1 52 .8 51.2.8c-.7 0-1.3 0-1.9.3M46 27.5c-.6-.4-.8-1.3-.6-2 .3-.8.4-1.2.8-1.8.3-.6 1.5-2.1 1.5-2.1.4-.4 1-.7 1.5-.5.5 0 .8.4 1 .9.2.4.2.8.1 1.3a5.6 5.6 0 01-1.7 3.6c-.3.3-.7.6-1.2.8a2 2 0 01-.5 0c-.3 0-.6 0-.9-.2m-7 3c-.5 0-1-.4-1.1-.8-.2-.4-.3-.9-.3-1.3 0-1.5.2-2.9.7-4.2.2-.6.6-1.3 1.2-1.4.4-.1.9 0 1.2.4.3.3.5.7.6 1.1.4 1.4.2 2.8-.5 4l-.6 1.5c-.2.4-.7.7-1.2.7M54 26.7c-.4-.2-.5-.7-.4-1.2 0-.4.4-.8.8-1a4 4 0 011.2-.5h.9c.3 0 .5.2.6.4.2.3 0 .6-.1.9l-.2.2c-.4.5-1 1-1.5 1.2a2 2 0 01-.7.1 1 1 0 01-.6-.1m-29.4 8.5a7.2 7.2 0 01-2.2-7c.3-1 1-2.1 2-2.1.6 0 1.1.3 1.5.8.3.4.5 1 .7 1.5l1.1 2.1c.6 1 1.1 2 1.2 3 0 1-.5 2.3-1.5 2.6a2 2 0 01-.6.1c-.8 0-1.6-.4-2.2-1m6.4-3.2c-.5-.4-.8-1-.9-1.6 0-.6 0-1.2.2-1.8 0-.4.1-.8.3-1.1.3-.3.6-.6 1-.6s.8.3 1 .7l.2.4c.4.7.6 1.6.6 2.4 0 .6-.2 1.3-.7 1.6-.2.2-.5.3-.8.3-.3 0-.7-.1-1-.3M47 37c-1-.4-2.3-1-2.5-2a2 2 0 01.5-1.8 3 3 0 011.7-.9c1.2-.2 2.4.3 3.4.9 1.5.9 2 2.4 2 2.4 0 1-1 2-2 2h-.5c-1 0-1.8-.3-2.7-.6m-9.7 5.3a3 3 0 01-2-1.9c-.2-1 .2-2.1 1-2.7.9-.6 2-.5 2.9 0l2.4 1.2c.8.5 1.3 1.4 1 2.2-.4 1-1.5 1.3-2.5 1.4h-1c-.6 0-1.2 0-1.8-.2m-21.6.4c-.8-.2-1.6-.5-2.3-1a3.2 3.2 0 01-1.1-2.3c0-1.5 7-2.4 8.6-1.4a3.5 3.5 0 011.2 1.3c.7 1.2 0 2.8-1.3 3.3a9.2 9.2 0 01-5.1.1m10 15.4a5.2 5.2 0 01-1.5-2.2c-1-2.5-1-5.4.1-7.8.2-.4.5-1 1-1.2.4-.3 1-.2 1.4.1 1 .9 2.2 5.3 2.2 5.3.5 1 1 2.2 1 3.3 0 1.2-.5 2.5-1.6 3h-.8a3 3 0 01-1.8-.5"/><path id="c" d="M19.7.4A65 65 0 007 11a76 76 0 00-6.9 7.6c-.3.4.3.9.6.5l.6-.7.4-.1L3 16.9l.4-.1 1.3-1.7c4.7-5 10-9.4 15.7-13 .4-.3 0-1-.4-.7l-.6.4-.1-.2.8-.6c.4-.2.1-.7-.2-.7h-.2"/><path id="e" d="M4.9.4a4.1 4.1 0 00-4.2 4 4 4 0 001.2 3A4.1 4.1 0 009 4.5a4 4 0 00-1.2-3 4.2 4.2 0 00-3-1.2zm0 6.9c-.8 0-1.6-.3-2.1-.9-.5-.5-.8-1.2-.8-2C2 3 3.3 1.7 4.9 1.7a3 3 0 012 .8c.6.6.9 1.3.9 2 0 1.6-1.4 2.8-3 2.8z"/><path id="h" d="M0 5.5c0 3 2.3 5.4 5.3 5.4 2.9 0 5.3-2.2 5.3-5.2S8.4.4 5.5.3h-.1A5.3 5.3 0 000 5.5"/><path id="k" d="M1 3a3 3 0 002.8 3 3 3 0 003-3A3 3 0 004 0a3 3 0 00-3 3"/><path id="p" d="M.7.4h29.4v26H.7z"/><path id="r" d="M0 .4h30.2v26H0z"/><linearGradient id="f" x1="0%" x2="100%" y1="50%" y2="50%"><stop offset="0%" stop-color="#FFB218"/><stop offset="100%" stop-color="#FFCF44"/></linearGradient><linearGradient id="i" x1="0%" x2="100%" y1="50%" y2="50%"><stop offset="0%" stop-color="#FFB218"/><stop offset="100%" stop-color="#FFCF44"/></linearGradient><linearGradient id="l" x1="0%" x2="100%" y1="50%" y2="50%"><stop offset="0%" stop-color="#FFB218"/><stop offset="100%" stop-color="#FFCF44"/></linearGradient><linearGradient id="n" x1="0%" x2="100%" y1="50%" y2="50%"><stop offset="0%" stop-color="#FFB218"/><stop offset="100%" stop-color="#FFCF44"/></linearGradient><linearGradient id="o" x1="0%" x2="100%" y1="50%" y2="50%"><stop offset="0%" stop-color="#FFB218"/><stop offset="100%" stop-color="#FFCF44"/></linearGradient></defs><g fill="none" fill-rule="evenodd"><path fill="#619440" d="M129.7 232.6c.5-2.6 2-11.3 4.6-12.2 2.7-1 6 .3 7.5 2.9.5 1 .8 2.4 2 3.1.6.5 1.4.5 2 0 .8-1 0-2.3-.7-3.3a11.4 11.4 0 01-2.3-6.4 7 7 0 013-6c2-1.2 4.8-1 6.3.6 1 1 1.4 2.6 2.7 3.4.7.4 1.5.5 2.2 0 1.3-.9.4-2.9-.5-4.2-1.2-1.9-2.3-3.9-2.6-6.1-.4-2.3.2-4.7 1.8-6.2 1.6-1.6 4.4-2 6.1-.4.7.6 1.2 1.4 1.8 2 .7.8 2 1.3 2.9.5.6-.6.7-1.5.4-2.3-.4-1.1-1.3-1.8-2.2-2.5a6.5 6.5 0 01-2.5-4.3c-.7-5.2 5.1-7.2 8.3-5 1 .7 1.9 1.7 3 1.4.9-.3 1.3-1.2 1.2-2.1-.1-1.8-1.6-2.9-2.4-4.3-1.5-2.7.2-6.5 3-7.3 2.3-.6 2.9 2.3 4 4.8.1.6 1 .4 1-.2a35 35 0 011.8-7.3c1.1-3.1 5.8-6.5 8-2 .7 1.2.2 4.3-.6 5.2-1 1.2-3.7 5.4-3.7 5.4-.2.4.3 1 .8.6 1-.6 2.1-1.1 3.4-1.2.6-.1 1.2 0 1.7.1 3.3 1.2 2.8 5.2.7 7.1-1.8 1.7-4.2 2.2-6.5 2.8-1.2.2-2.5.6-3 1.8-.4.6-.3 1.5.2 2 .7.5 1.4.2 2.1 0 2.4-.2 4.5 2.1 4.5 4.5s-1.8 4.5-3.9 5.5c-2.1 1-4.6 1.2-7 1-1 0-2.3-.1-3.3.8-.5.5-.7 1.3-.2 2 .6.8 1.8.4 2.9.3 2.8-.1 5 3 4.6 5.8-.5 2.8-3 4.9-5.6 5.7-3 1-6.3.6-9.5.1-.7 0-1.4.3-1.7 1-.3 1 .6 1.6 1.3 2 2.7 2 3.7 6 2.4 9-1.4 3-5 4.8-8.2 4.1-2-.4-4-1.7-6.2-1-1 .3-1.9 1.3-1.7 2.5.3 1.4 1.9 1.8 3.1 2.5 3.3 1.9 3.9 6.9 1.7 10-2.2 3.2-9.2 3.2-13 3-3.8-.2-11.8-.6-15.9-3.2-1.9-1.2-.4-13.4.2-16"/><path fill="#306B34" d="M190.2 169.2c.6 1.2.1 4.3-.7 5.2-1 1.2-3.7 5.4-3.7 5.4-.2.4.3 1 .8.6 1-.6 2.1-1.1 3.4-1.2.6-.1 1.2 0 1.7.1 3.3 1.2 2.8 5.2.7 7.1-1.8 1.7-4.2 2.2-6.5 2.8-1.2.2-2.5.6-3 1.8-.4.6-.3 1.5.2 2 .7.5 1.4.2 2.1 0 2.4-.2 4.5 2.1 4.5 4.5s-1.8 4.5-3.9 5.5c-2.1 1-4.6 1.2-7 1-1 0-2.3-.1-3.3.8-.5.5-.7 1.3-.2 2 .6.8 1.8.4 2.9.3 2.8-.1 5 3 4.6 5.8-.5 2.8-3 4.9-5.6 5.7-3 1-6.3.6-9.5.1-.7 0-1.4.3-1.7 1-.3 1 .6 1.6 1.3 2 2.7 2 3.7 6 2.4 9-1.4 3-5 4.8-8.2 4.1-2-.4-4-1.7-6.2-1-1 .3-1.9 1.3-1.7 2.5.3 1.4 1.9 1.8 3.1 2.5 3.3 1.9 6.8 9 4.6 12.1-2.2 3.1-12.1 1.1-16 1-3.5-.3-10.7-.6-15-2.8l-.8-.5s21-18.3 39.3-42.5c10.1-13.5 19.1-39 19.1-39l.8.4c.7.5 1.3 1.4 1.5 1.7"/><g transform="translate(140.5 215.9)"><mask id="b" fill="#fff"><use xlink:href="#a"/></mask><path fill="#FBBF00" d="M49.3 1.1C47.5 2 46.5 4 45.8 6c-1.3 3.4-2 7-2.4 10.6 0 .9 0 1.8-.4 2.6-.4.9-1.2 1.5-2.1 1.5-.8 0-1.4-.7-1.7-1.4-.3-.7-.3-1.5-.3-2.3.2-5.5 2.8-11 7-14.6a8 8 0 00-6-.8A8 8 0 0035 5.3c-1.5 2.7-1.2 6-.9 9.2l.8 7.3c0 .9.1 2-.6 2.6-.6.5-1.6.5-2.3 0a4.3 4.3 0 01-1.5-2C29 19.6 29.2 16 30 13c.9-3.2 2.4-6.1 4-9a47.6 47.6 0 00-19.8 12.5l-2.3 2.3c.2 4.7 3 9.3 7 11.7.8.4 1.8 1 1.7 2 0 .7-.7 1.1-1.4 1.2-.6 0-1.3-.2-1.9-.5-4.7-2.4-7.5-8-6.8-13.2C4.5 25.4 1 33.4.7 41.5c0 2.3.2 4.8 1.1 7 1 2.1 2.6 4 4.8 5 2.2.8 4.9.5 6.6-1.1 1-1 1.6-2.2 2.5-3.2 1-1 2.9-2 3.7-1 .4.6-.9 1.9-1.5 2.4l-.7.7c-2 2.5-2.2 5-1.5 8.2a30 30 0 006.1 10.9 16.6 16.6 0 0011.5 4.3h.2c9.7 0 13.8-5.8 13.8-5.8s-6.5-.4-10-5.1c-3.2-4.3-3-9.4-5.4-14.1-.4-.7-.8-1.5-.8-2.3 0-.8.4-1.7 1.1-1.9.8-.2 1.7.3 2.1 1 .5.7.6 1.6.7 2.4.8 4.9 3.2 9.4 6.8 12.8 2.5 2.3 5.6 4 9 4 2.5 0 5-1 7-2.4a38 38 0 005.7-5.2 24.3 24.3 0 01-22.7-8c-1-1.2-2-2.7-1.6-4.3.2-1 1.1-1.9 2.2-1.8 1 0 1.6 1 2.1 1.9a21.8 21.8 0 0017 10c2 0 4-.1 5.6-1.2 2.8-1.9 3.5-6 6.4-7.8a24 24 0 01-23.8-1 6 6 0 01-2-2c-.5-.7-.5-1.9 0-2.6.8-.9 2.2-.9 3.2-.4s1.8 1.4 2.7 2.2c2.3 2 5.4 3 8.5 3.4 3 .3 6.1-.1 9.2-.7 1.7-.3 3.5-.7 4.4-2.2.5-.8.7-1.8.8-2.7l1.4-12.5c-.5 1.8-6.2 6-10 6.7-2.2.4-6.7.2-8.8-.5a7 7 0 01-2.1-.9c-.6-.4-1.1-1.2-1-2 0-.7.6-1.5 1.3-1.8a6 6 0 012.5-.5h4c2.2.2 4.4.2 6.5 0 3.5-.5 7-2.2 8.7-5.3-2.8-5.2-4.1-11.1-3.9-17 .1-1.7.3-3.6-.7-5.1l-.6 1.6a4.5 4.5 0 01-5.3 1.8c-1.5-.5-2.6-1.9-4.1-2-1.1 0-2.2.5-3 1.3s-1.2 1.8-1.6 2.8l-4.1 8.3c-.7 1.3-1.7 2.8-3.1 2.5-1.1-.2-1.6-1.4-1.8-2.5-.5-2.6 0-5.3 1.4-7.5C52.7 6 55 4.4 57.5 3.8c-1.2-1-2.4-1.9-3.8-2.5C53 1 52 .8 51.2.8c-.7 0-1.3 0-1.9.3M46 27.5c-.6-.4-.8-1.3-.6-2 .3-.8.4-1.2.8-1.8.3-.6 1.5-2.1 1.5-2.1.4-.4 1-.7 1.5-.5.5 0 .8.4 1 .9.2.4.2.8.1 1.3a5.6 5.6 0 01-1.7 3.6c-.3.3-.7.6-1.2.8a2 2 0 01-.5 0c-.3 0-.6 0-.9-.2m-7 3c-.5 0-1-.4-1.1-.8-.2-.4-.3-.9-.3-1.3 0-1.5.2-2.9.7-4.2.2-.6.6-1.3 1.2-1.4.4-.1.9 0 1.2.4.3.3.5.7.6 1.1.4 1.4.2 2.8-.5 4l-.6 1.5c-.2.4-.7.7-1.2.7M54 26.7c-.4-.2-.5-.7-.4-1.2 0-.4.4-.8.8-1a4 4 0 011.2-.5h.9c.3 0 .5.2.6.4.2.3 0 .6-.1.9l-.2.2c-.4.5-1 1-1.5 1.2a2 2 0 01-.7.1 1 1 0 01-.6-.1m-29.4 8.5a7.2 7.2 0 01-2.2-7c.3-1 1-2.1 2-2.1.6 0 1.1.3 1.5.8.3.4.5 1 .7 1.5l1.1 2.1c.6 1 1.1 2 1.2 3 0 1-.5 2.3-1.5 2.6a2 2 0 01-.6.1c-.8 0-1.6-.4-2.2-1m6.4-3.2c-.5-.4-.8-1-.9-1.6 0-.6 0-1.2.2-1.8 0-.4.1-.8.3-1.1.3-.3.6-.6 1-.6s.8.3 1 .7l.2.4c.4.7.6 1.6.6 2.4 0 .6-.2 1.3-.7 1.6-.2.2-.5.3-.8.3-.3 0-.7-.1-1-.3M47 37c-1-.4-2.3-1-2.5-2a2 2 0 01.5-1.8 3 3 0 011.7-.9c1.2-.2 2.4.3 3.4.9 1.5.9 2 2.4 2 2.4 0 1-1 2-2 2h-.5c-1 0-1.8-.3-2.7-.6m-9.7 5.3a3 3 0 01-2-1.9c-.2-1 .2-2.1 1-2.7.9-.6 2-.5 2.9 0l2.4 1.2c.8.5 1.3 1.4 1 2.2-.4 1-1.5 1.3-2.5 1.4h-1c-.6 0-1.2 0-1.8-.2m-21.6.4c-.8-.2-1.6-.5-2.3-1a3.2 3.2 0 01-1.1-2.3c0-1.5 7-2.4 8.6-1.4a3.5 3.5 0 011.2 1.3c.7 1.2 0 2.8-1.3 3.3a9.2 9.2 0 01-5.1.1m10 15.4a5.2 5.2 0 01-1.5-2.2c-1-2.5-1-5.4.1-7.8.2-.4.5-1 1-1.2.4-.3 1-.2 1.4.1 1 .9 2.2 5.3 2.2 5.3.5 1 1 2.2 1 3.3 0 1.2-.5 2.5-1.6 3h-.8a3 3 0 01-1.8-.5" mask="url(#b)"/></g><g transform="translate(143.5 260.7)"><mask id="d" fill="#fff"><use xlink:href="#c"/></mask><path fill="#FFDE8E" d="M19.7.4A65 65 0 007 11a76 76 0 00-6.9 7.6c-.3.4.3.9.6.5l.6-.7.4-.1L3 16.9l.4-.1 1.3-1.7c4.7-5 10-9.4 15.7-13 .4-.3 0-1-.4-.7l-.6.4-.1-.2.8-.6c.4-.2.1-.7-.2-.7h-.2" mask="url(#d)"/></g><path fill="#306B34" d="M193 207.1a3.6 3.6 0 00-5.1.6c-.6.7-.9 1.6-.7 2.6 0 1 .6 1.8 1.3 2.4 1.6 1.2 3.9 1 5.1-.6a3.6 3.6 0 00-.6-5m-5.4 6.7a5 5 0 01-.8-7 5 5 0 017-.9 5 5 0 011 7.1 5 5 0 01-7.2.8"/><g transform="translate(171.4 163)"><mask id="g" fill="#fff"><use xlink:href="#e"/></mask><path fill="url(#f)" d="M4.9.4a4.1 4.1 0 00-4.2 4 4 4 0 001.2 3A4.1 4.1 0 009 4.5a4 4 0 00-1.2-3 4.2 4.2 0 00-3-1.2zm0 6.9c-.8 0-1.6-.3-2.1-.9-.5-.5-.8-1.2-.8-2C2 3 3.3 1.7 4.9 1.7a3 3 0 012 .8c.6.6.9 1.3.9 2 0 1.6-1.4 2.8-3 2.8z" mask="url(#g)"/></g><g transform="translate(158.5 172)"><mask id="j" fill="#fff"><use xlink:href="#h"/></mask><path fill="url(#i)" d="M0 5.5c0 3 2.3 5.4 5.3 5.4 2.9 0 5.3-2.2 5.3-5.2S8.4.4 5.5.3h-.1A5.3 5.3 0 000 5.5" mask="url(#j)"/></g><g transform="translate(194.3 201)"><mask id="m" fill="#fff"><use xlink:href="#k"/></mask><path fill="url(#l)" d="M1 3a3 3 0 002.8 3 3 3 0 003-3A3 3 0 004 0a3 3 0 00-3 3" mask="url(#m)"/></g><path fill="#306B34" d="M259.7 245.6a6.3 6.3 0 11-12.6 0 6.3 6.3 0 0112.6 0"/><path fill="url(#n)" d="M235 237.5a4.2 4.2 0 108.3 0 4.2 4.2 0 00-8.3 0"/><path fill="url(#o)" d="M246.3 229.6a3 3 0 105.9 0 3 3 0 00-5.9 0"/><g><path fill="#F7E8C8" d="M7 290.2c0-3.5 55.6-6.3 124.3-6.3 68.6 0 124.2 2.8 124.2 6.3s-55.6 6.4-124.2 6.4C62.6 296.6 7 293.7 7 290.2"/><path fill="#FB8875" d="M119.8 286.4a2 2 0 001.6-2.2l-1.6-9.8a2 2 0 10-3.7.6l1.5 9.8a2 2 0 002.2 1.6"/><path fill="#7F786A" d="M107.3 288.8c0 .5.5 1 1 .9l13.2-.3a1 1 0 001-1.3l-.2-2.3c0-.7-.6-1.2-1.3-1.2 0 0-.3 1-1.6 1.2-1 .2-1.3-.6-1.5-1.2 0-.3-.3-.5-.6-.3l-9.4 3.6a1 1 0 00-.6.9"/><path fill="#FB8875" d="M134.9 286.5c-1.1 0-2-.7-2-1.8l-.5-10a2 2 0 013.9-.1l.4 10c0 1-.8 1.9-1.8 2"/><path fill="#7F786A" d="M146.9 288.9c0 .5-.5 1-1 1l-13.2-.4a1 1 0 01-1.1-1.3l.2-2.3c.1-.7.7-1.2 1.4-1.2 0 0 .3 1 1.5 1.2 1 .2 1.4-.6 1.5-1.2 0-.3.4-.4.7-.3l9.4 3.6c.3.1.6.5.6.9m-39.3-182.7c-11.5 5.1-16.7-2.5-16.7-6.8-.1-7.3 2.1-15.2 5-21.9 1.6-4 5-8.3 7.8-10.7 3.3-3 9-4.1 14.8-3.8l.4 1.3s.6 36.6-11.3 41.9m19 12.6c3.1 4.5-.4 27.3-.4 27.3l-9.5 45.2 5.2 88.2-12.1 1.8s-23.5-75.1-23-89.9a152.7 152.7 0 0121.7-76.4c3 1.7 9 3.8 18 3.8"/><path fill="#A29C8F" d="M142.8 110.5c6 8 12.6 20.2 14 46.2C158 177.6 142.6 280 142.6 280l-11.6-.5-8.4-135.1-.1-27.5 20.4-6.5"/><path fill="#E1DCFF" d="M116.4 104.8a1.7 1.7 0 103.4 0 1.7 1.7 0 00-3.4 0"/><path fill="#F5EFE4" d="M101.5 114.4s4.3 3.9 18.5 6c13 1.8 29-1.2 29-1.2l8.8-33.9c1.6-8 4-15.6-11-18.7 0 0-24-3.9-28.5-4-9.1-.2-13.6 8-15 17.2-1.5 8.9-1.8 34.6-1.8 34.6"/><path fill="#A29C8F" d="M143.8 115.7s13 4.3 16.4 1.3c5.1-4.5 7.3-11.1 5.1-28-.6-4.7-1-9.7-2.4-13-2-5.3-7-8.2-14.5-9l-4.6 48.7z"/><path fill="#FFE2B7" d="M132.2 66.6c1.7.5 3.4-.5 3.8-2.1l1.8-6.5a3.1 3.1 0 00-6-1.7l-1.8 6.5c-.4 1.7.5 3.4 2.2 3.8"/><path fill="#FFC581" d="M137.7 58.6c.5-2-.4-4-2-4.5-1.7-.4-3.5.8-4 2.8l-1.3 4.5c-.3 1.1 2 1.5 4.1.2 1.5-.8 2.9-1.9 2.9-1.9l.3-1.1z"/><path fill="#FFE2B7" d="M142 47.9c-.4-.3-1.7 0-1.7 0 .6-4-2.1-7.6-6-8.2-4-.7-7.2 2.2-7.8 6.2 0 0-1 6-1 6.7.1 5 2 6.8 5.6 7.3 3.7.6 7.2-1.7 8.2-5.2.7 0 1.8-1.2 2.6-2.8.9-1.9 1-3.7.2-4"/><path fill="#FFC581" d="M132 39.7h-.2c-2.8.6-4.8 3-5.3 6.2 0 0-1 6-1 6.7.1 3.3 1 5.3 2.5 6.3 1.1.7 2.3.9 2.3.9s-3.4-3-1.8-11c1-4.8 3.6-9.1 3.6-9.1"/><g transform="translate(117.6 29.4)"><mask id="q" fill="#fff"><use xlink:href="#p"/></mask><path fill="#57575E" d="M21.1 13.3c.5.7-3.3.5-4 2-.8 1.3 2 2.5 2.6 3.6.3.5 0 3 .3 3 .6 0 2-2.4 2.7-2.5 1.3 0-1 2.6-2 5.6-.2.9.4 1.4.4 1.4s4.7-1 7.3-5.5c1.7-3.1 2.1-7.1 1.3-9.7C28.9 9 26 8.2 24 9c0 0-1-3.3-1.8-4-2-1.6-8.9-1.1-13.5-1.8C3.8 2.3 1 .4 1 .4S-.5 8.1 3.3 11.3c4.1 3.6 8 2.7 10 2.7 3.6 0 7.5-1.3 7.8-.7" mask="url(#q)"/></g><path fill="#FFE2B7" d="M139 50c-1.2 1.5-1.5 3.2-.8 3.8.8.6 2.4 0 3.6-1.5 1.2-1.5 1.5-3.4.7-4-.8-.6-2.4.1-3.5 1.6"/><path fill="#FFE2B7" d="M140.1 53.2s-1 2.6-1.7 3.4c-.6.8-1.4-2-1.4-2l3.1-1.4z"/><g transform="translate(118.6 29.4)"><mask id="s" fill="#fff"><use xlink:href="#r"/></mask><path fill="#57575E" d="M20 26.4a11.5 11.5 0 009.6-8.6c.3-1.2.5-2.3.6-3.5 0-1.2 0-2.3-.5-3.6a4.8 4.8 0 00-3-2.8 6.3 6.3 0 00-4-.2l1.6.8A20 20 0 0023 5.2l-.6-.9c-.3-.4-.7-.5-1-.7-.6-.3-1.3-.5-1.9-.6-2.3-.4-4.5-.4-6.7-.5-2.2 0-4.4 0-6.5-.3C4.2 1.9 2.1 1.4.1.4c1.7 1.4 3.8 2.3 6 3 2.1.6 4.4.9 6.6 1 2.2.3 4.4.3 6.3.8l1.3.5.3.2.3.5c.4.8.8 1.8 1 2.8.3.7 1 1 1.6.8a4 4 0 012.4 0c.8.4 1.4.9 1.7 1.5.6 1.7.5 3.8.2 5.8a12 12 0 01-7.7 9" mask="url(#s)"/></g><path fill="#A29C8F" d="M134.3 65.6l-5.2-1.3s-.3 4.5 1.4 4.7c3.4.5 3.8-3.4 3.8-3.4"/><path fill="#A29C8F" d="M131.8 67.7s.9 19 .5 30l-8.5 4.7-4.6-7.6 11-27.6 1.6.5z"/><path fill="#E7E1D3" d="M136.6 62.3l-4.8 2.6 1.8 4.8 5.6-4z"/><path fill="#E7E1D3" d="M130.3 61.8l2 3.1-4 3.3L127 64z"/><path fill="#A29C8F" d="M139.2 65.6s-3.8 10.1-6.2 34.6c-2.4 24.5-1 57.9 4.2 59.7 5.2 1.8 23 1.3 23 1.3s0-23.7-5.8-43.1l-6.2-11.7 5-38s-1.7-1.4-14-2.8"/><path fill="#7F786A" d="M127.1 63.9s-8 15.2-11.6 32.4c-3.5 17.3-6.7 55.4-11 59.6-4.2 4.2-20-3.2-20-3.2s2.2-23.6 13.7-39c0 0 1.5-20.2 4.9-35.1 1.6-7 4.8-13 8.4-14.8 0 0 7.2-2.7 15.6 0m6.2 58.3A418.6 418.6 0 00147.9 86c.1-.4 0-1-.5-1.1l-4.1-2.1v1.5l4.8-2.4c.4-.2.5-.5.4-.8l-1.9-6.9-2-6.8 1.2 7 1.4 7 .4-.8-5 2.2a.8.8 0 00-.1 1.5l4 2.2-.4-1.1a663.6 663.6 0 00-12.8 36.8"/><path fill="#7F786A" d="M109.4 116.7a444 444 0 00.6-40.1l-1 1h4.7a.8.8 0 00.7-1.4c-1-1.5-2.2-2.9-3.3-4.3l-.2 1 5.8-4.5c2-1.6 3.9-3 5.7-4.7l-6.2 4-6 4c-.4.2-.5.6-.3 1l3.1 4.5.7-1.4-4.6-.1a1 1 0 00-1 .8v.1a695.3 695.3 0 001.3 40.1"/><path fill="#FFE2B7" d="M154 98.4s.8-2 .6-2.7c-.1-.6-1.5-1.8-1.5-1.8s-4.9 1.2-5.6 2.4c-.3.6 0 2 .4 2.9.2.6.9 1 1.5.8l4.6-1.6z"/><path fill="#FFE2B7" d="M156.4 97.7c-.1.7-.8 1.1-1.5 1l-3-.7.2-1.2 4.3 1z"/><path fill="#FFE2B7" d="M157.3 97.6c-.2.6-1 .9-1.8.6l-3.3-1.3.5-1.2 4.6 1.9z"/><path fill="#FFE2B7" d="M157.9 96.4c-.2.7-1 1-1.8.8l-3.4-1 .4-1.3 4.8 1.5z"/><path fill="#FFE2B7" d="M158.4 93.3c.1.7-.6 1.3-1.5 1.5l-4.4.5.7-1.4 5.2-.6zM102 88.2l-2.5 1.7 4.4 3.3 1.8-2.7z"/><path fill="#A29C8F" d="M102 99.5c5.7 13.4 21.9 17.7 33 19.5 12.6 2 24 3.8 28-7 0 0-13.7-10.8-19-13-10.5-4.2-37.8-11.5-37.8-11.5s-6.2 7.3-4.2 12"/><path fill="#FFE2B7" d="M97 89.5s-.7-2.3-.5-3c.2-.5 1.7-1.6 1.7-1.6s3.1 2.4 4.1 3.3c.7.7 1 1.5.6 2.4-.2.6-1 .9-1.6.6L97 89.5z"/><path fill="#FFE2B7" d="M93.6 88.7c0 .7.7 1.2 1.4 1l3.1-.3-.1-1.2-4.4.5z"/><path fill="#FFE2B7" d="M92.4 87.2c0 .7.6 1.2 1.4 1.2l3.6-.1V87l-5 .2z"/><path fill="#FFE2B7" d="M92.6 86.1c0 .7.7 1.2 1.5 1.2l3.6-.1V86l-5 .1z"/><path fill="#FFE2B7" d="M93.5 84.6c0 .7.6 1.3 1.4 1.4l3.6.2-.3-1.3-4.7-.3zm50.6 15.5s-.9-2.2-.5-2.8c.6-.8 4-.7 4-.7l.5 2.9-4 .6z"/><path fill="#7F786A" d="M146.4 96.8c-2-4.1-13.1-7.8-26.8-7.2-13.5.6-33.8 6.8-26 15.2 4.5 4.9 20.8 4.7 26.9 4.6 12.2-.1 24.5-2 24.5-2s3.7-5.8 1.4-10.6"/><path fill="#F9D04E" d="M103.8 145c-.9 1.2-2 1.5-2 1.5.7.5.7.8.7 1.6a4 4 0 001.8-1.5c.2-.7 0-1.2-.5-1.6m-49 1c-.8 1.1-2 1.4-2 1.4.7.5.7.8.8 1.6a4 4 0 001.8-1.5c.2-.7 0-1.2-.6-1.6"/><path fill="#B0AFFD" d="M136 158.7c-1.2.8-2.4.6-2.4.6.4.7.3 1 0 1.7a4 4 0 002.3-.7c.5-.5.4-1 0-1.6"/><path fill="#F9D04E" d="M121.2 171.5a3.4 3.4 0 01-1.6-1.8c-.5.7-.8.7-1.5.8a4 4 0 001.6 1.7c.7.1 1.2-.2 1.5-.7"/><path fill="#B0AFFD" d="M97 162c-1.5.4-2.5-.3-2.5-.3.1.9-.1 1-.6 1.7a4 4 0 002.3.1c.6-.3.8-.8.7-1.5m-40.6.3a3.4 3.4 0 01-1.9 1.5c.7.5.7.8.8 1.6a4 4 0 001.7-1.6c.2-.7 0-1.2-.6-1.5M9 191.3c-.8 1.2-2 1.5-2 1.5.8.4.8.8.9 1.5a4 4 0 001.7-1.5c.2-.7 0-1.2-.6-1.6"/><path fill="#F9D04E" d="M16 174.4c-.7 1.3-1.8 1.6-1.8 1.6.7.4.7.8.8 1.5a4 4 0 001.7-1.5c.2-.7 0-1.2-.6-1.6m17.9 1.1c-1.5.2-2.4-.5-2.4-.5 0 .8-.2 1-.8 1.5a4 4 0 002.3.4c.7-.2.9-.7.9-1.4m10.5 34.3c-1.4-.4-2-1.4-2-1.4-.2.7-.6.8-1.3 1a4 4 0 002 1.4c.7 0 1-.3 1.3-1"/><path fill="#B0AFFD" d="M30.6 152.2c-1.3.6-2.4.1-2.4.1.3.8 0 1-.3 1.7a4 4 0 002.3-.2c.6-.4.6-1 .4-1.6"/><path fill="#F9D04E" d="M78 152.2c-1.3.6-2.4.1-2.4.1.3.8 0 1-.3 1.7a4 4 0 002.3-.2c.6-.4.7-1 .4-1.6m75.6 43.5c-1.3.6-2.4.1-2.4.1.3.8 0 1-.3 1.7a4 4 0 002.3-.2c.6-.4.7-1 .4-1.6M136.4 218c-.1 1.4-1 2.2-1 2.2.8.1 1 .4 1.4 1a4 4 0 00.8-2.1c-.1-.7-.6-1-1.2-1.1"/><path fill="#B0AFFD" d="M141 184c-1.4-.6-1.9-1.7-1.9-1.7-.4.8-.7.8-1.4 1a4 4 0 001.8 1.5c.7.1 1.1-.2 1.4-.8M22 214.8c-1.4-.2-2.1-1.2-2.1-1.2-.2.8-.5 1-1.2 1.3a4 4 0 002.1 1c.7 0 1-.4 1.2-1.1"/><path fill="#FCBA3F" d="M76.1 248.7l-.1-33.9h7.5l.2 30.8v2.6c.2 4.4 1.3 12.7 7.1 12.7H69.2c5.6 0 6.8-7.7 7-12.2"/><path fill="#FFB127" d="M112.5 180c-1.7 1-3.2 2.2-4.4 3.7a11.5 11.5 0 00-1.6 13c.9 1.6 2.3 2.9 4 3.5a8.3 8.3 0 009.7-3.2 6 6 0 000-6.3 2.8 2.8 0 10-5 2.9c.3.3.2.4.2.5-.3.5-1.3 1-2.2 1-1 0-1.5-.6-1.7-1v-.3a5.8 5.8 0 01.6-6l.3-.5c2.3-2.8 6.3-4 9.4-3.2 3.6 1.1 6 5 6.7 11.2 1.3 11.8-7 19.8-12 23.5-5.5 4-11 6.2-14.7 7-2.1.4-3.7.4-4.3.1-1.4-.6-3 0-3.7 1.5a2.8 2.8 0 001.4 3.7 7 7 0 002.3.5c5.5.6 14.8-2.7 22.3-8.2 10.4-7.7 15.5-17.9 14.3-28.7-1.3-11.5-7.2-15-10.7-16-3.5-1-7.5-.5-10.9 1.4"/><path fill="#EDBF5A" d="M93.8 227.4a2.8 2.8 0 001.4 3.7 7 7 0 002.3.5 38 38 0 004.3-5.9c-2.1.5-3.7.5-4.3.2-1.4-.6-3 0-3.7 1.5m18.7-47.3c-1.7.9-3.2 2.1-4.4 3.6a11.5 11.5 0 00-1.6 13c.9 1.6 2.3 2.9 4 3.5l1-6.4a5.8 5.8 0 01.6-6c.2-3.1.4-5.7.4-7.7"/><path fill="#FFB127" d="M48 180c1.7.9 3.3 2 4.5 3.5 3.3 3.7 4 8.6 2 12.9-.8 1.7-2.2 3-3.9 3.7-.7.3-1.6.5-2.4.6-3 .1-6-1.3-7.4-3.5a6 6 0 01-.1-6.3 2.8 2.8 0 115 2.7c-.2.3-.2.4-.1.6.3.4 1.3 1 2.2.8 1 0 1.4-.6 1.6-1l.1-.2c1.2-2.7.1-4.9-.8-6.1l-.4-.5a9.3 9.3 0 00-9.5-2.8c-3.5 1.2-5.8 5.2-6.3 11.3-1 11.9 7.5 19.6 12.7 23.2a39.4 39.4 0 0014.9 6.4c2.1.4 3.7.4 4.3.1 1.4-.7 3 0 3.7 1.3a2.8 2.8 0 01-1.3 3.8 7 7 0 01-2.2.6c-5.6.8-15-2.3-22.6-7.6-10.6-7.3-16-17.4-15.1-28.2 1-11.5 6.8-15.2 10.2-16.3 3.5-1.1 7.5-.7 11 1"/><path fill="#EDBF5A" d="M68.1 226.7a2.8 2.8 0 01-1.3 3.8 7 7 0 01-2.2.6 37.8 37.8 0 01-4.5-5.8c2.1.4 3.7.4 4.3.1 1.4-.7 3 0 3.7 1.3m-20-46.6c1.6.8 3.2 2 4.4 3.4 3.3 3.7 4 8.6 2 12.9-.8 1.7-2.2 3-3.9 3.7-.4-2.2-.8-4.3-1-6.3 1-2.7 0-4.9-1-6.1L48 180"/><path fill="#FCBA3F" d="M51.4 176l.1 5.3c.7 13.2 4.3 46.9 23.6 56.4l1 .8c1.1 1 2.7 1.5 4.2 1.5h1c1.4-.1 2.6-.6 3.7-1.4l1.1-1c19-9.6 22.3-42.6 23-56v-6c0-3.2-3.8-4-3.8-4l-50.1.3s-3.9.8-3.8 4"/><path fill="#F8BD36" d="M54.3 180.3l52-.3c3.1 0 5.7-2.7 5.7-5.8 0-3.2-2.6-5.8-5.8-5.8l-52 .3a5.8 5.8 0 00-5.7 5.8c0 3.2 2.6 5.8 5.8 5.8"/><path fill="#FFD454" d="M51.4 176l.1 5.3c1 .7 2 1 3.2 1l52-.3c.8 0 1.6-.2 2.3-.5.2-3.6.1-5.8.1-5.8 0-3.3-3.8-4.1-3.8-4.1l-50.1.3s-3.9.8-3.8 4"/><use xlink:href="#reuse-0"/><use xlink:href="#reuse-0"/><path fill="#FCBA3F" d="M56 289.8l48.4-.3-.1-19.1c0-3.7-3-6.6-6.7-6.6l-35.2.2c-3.6 0-6.6 3-6.6 6.6l.1 19.2z"/><path fill="#FFB127" d="M53.7 289.8l52.9-.3c.6 0 1-.5 1-1v-2c0-.7-.4-1.1-1-1.1l-52.9.3a1 1 0 00-1 1v2c0 .6.5 1.1 1 1.1"/><path fill="#FAAA36" d="M53.7 289.8l52.9-.3c.6 0 1-.5 1-1v-2c0-.7-.4-1.1-1-1.1l-52.9.3a1 1 0 00-1 1v2c0 .6.5 1.1 1 1.1m14.4-7.9l24-.1c1.7 0 3.1-1.5 3.1-3.2v-6c0-1.8-1.4-3.2-3.2-3.2l-24 .1a3.1 3.1 0 00-3 3.2v6c0 1.8 1.4 3.2 3.1 3.2"/><path fill="#FFB127" d="M68.7 264l22.7-.2c.4 0 .7-.3.7-.7v-1.5c0-.4-.3-.7-.7-.7H68.7c-.5 0-.8.4-.8.8v1.5c0 .4.4.8.8.8"/><path fill="#FAAA36" d="M68.7 264l22.7-.2c.4 0 .7-.3.7-.7v-1.5c0-.4-.3-.7-.7-.7H68.7c-.5 0-.8.4-.8.8v1.5c0 .4.4.8.8.8m27.9-76.3c.8 10.1 1.1 32.5-11.2 47-.6.7.3 1.7 1.1 1 6.8-5.4 16-16 18.6-34.7 0 0 1-7.4.4-14-.2-2.2-2-4-4.2-4.1-2.7-.2-5 2.1-4.7 4.8m-31-.4c-.2 10.1.7 32.5 13.7 46.3.7.7-.2 1.7-1 1.2-7-5.1-16.8-15.2-20.4-33.7 0 0-1.3-7.4-1.2-14a4.5 4.5 0 119 .2"/><path fill="#FCBA3F" d="M87.8 274.5l-2.3.5 1.8 1.6-.4 2.3 2.1-1.2 2.2 1-.5-2.3 1.6-1.7-2.3-.2-1.2-2.2zm-8.8 0l-2.3.5 1.7 1.6-.3 2.3 2-1.2 2.3 1-.5-2.3 1.6-1.7-2.4-.2-1-2.2zm-8.8 0l-2.3.5 1.7 1.6-.3 2.3 2-1.2 2.2 1-.4-2.3 1.6-1.7-2.4-.2-1.1-2.2z"/></g></g></svg>