<svg xmlns="http://www.w3.org/2000/svg" xmlns:xlink="http://www.w3.org/1999/xlink" width="351" height="242" viewBox="0 0 351 242">
    <defs>
        <path id="prefix__a" d="M17.243 21.373c-.217.66-.417 1.329-.535 2.014-.405 2.362.235 4.858 1.696 6.604 1.462 1.746 3.713 2.706 5.957 2.541-5.941.95-9.025-1.942-13.027-6.684L7.326 37.197c-.324.918-.653 1.867-.611 2.831.081 1.876 1.502 3.273 2.824 4.467l-4.793-.476C4.91 47.922 3.351 51.714 2 55.413.649 59.113-.536 63.146.387 66.895c.737 2.99 2.728 5.39 4.809 7.504.91.924 1.884 1.833 2.941 2.573 1.791 1.256 4.165 1.303 6.043.029.963-.654 2.197-1.339 3.539-1.708 2.69-.741 1.52 5.644 4.083 6.601 2.562.959 5.423.563 8.163.156 2.041-.304 4.172-.642 5.886-1.913 1.985-1.47 3.071-3.929 4.063-6.265l3.184-7.497c.729-1.718 1.476-3.554 1.235-5.381-.242-1.828-1.922-3.501-3.604-2.921l4.365-1.767 1.114-15.255c.069-.943.125-1.952-.319-2.749-.821-1.479-2.814-1.467-4.458-1.299-1.642.167-3.645.131-4.416-1.378 2.626-.709 5.488-1.584 7.083-3.945 1.035-1.533 1.355-3.455 1.496-5.303.71-9.312-4.347-20.344-8.742-25.057C36.494.936 35.141.137 35.141.137c-8.252 4.209-14.888 12.084-17.898 21.236"/>
        <path id="prefix__d" d="M19.243 21.373c-.217.66-.417 1.329-.535 2.014-.405 2.362.235 4.858 1.696 6.604 1.462 1.746 3.713 2.706 5.957 2.541-5.941.95-9.025-1.942-13.027-6.684L9.326 37.197c-.324.918-.653 1.867-.611 2.831.081 1.876 1.502 3.273 2.824 4.467l-4.793-.476C6.91 47.922 2.341 52.526.99 56.226-.361 59.927-.16 63.243.763 66.991c.738 2.99 4.352 5.294 6.433 7.408.91.924 1.884 1.833 2.941 2.573 1.791 1.256 4.165 1.303 6.043.029.963-.654 2.197-1.339 3.539-1.708.245-.068.645-.036.645-.036L37.141.137c-8.252 4.209-14.888 12.084-17.898 21.236"/>
        <path id="prefix__g" d="M84.488.483c-2.111.466-3.981 1.688-5.646 3.066-4.855 4.019-8.394 9.608-9.93 15.722-.213.845-.805 1.596-1.65 1.807-1.462.364-2.218-1.161-2.062-2.386.13-1.018.681-1.929.986-2.908 1.47-4.717-3.829-10.821-9.639-6.506-1.057.785-1.907 1.853-2.238 3.126-.376 1.455-.402 2.763-.375 4.271.034 1.898.277 2.23-1.211 3.585-.877.801-2.176 1.09-3.228.541-1.757-.915-1.873-1.299-2.271-3.155-.831-3.867-5.274-6.532-9.077-5.444-4.171 1.194-6.608 6.628-4.324 10.476.469.79.684 1.741.427 2.623-.551 1.883-2.458 1.61-3.466.653-.735-.698-1.134-1.667-1.613-2.561-1.792-3.351-5.243-6-9.044-6.003-3.8-.002-9.697 4.986-11.853 8.116-4.213 6.115-6.319 9.069-7.415 12.961-.79 2.802.846 10.665 2.689 12.017 1.92 1.411 21.075 4.331 32.613 5.776 2.365.296 7.046-.104 8.836-1.678 1.79-1.574 2.344-4.579.813-6.406-1.419-1.691-3.949-2.935-2.586-4.335.864-.886 2.479.225 3.32.947 2.481 2.124 2.064 2.387 4.524 4.534 2.945 2.567 7.665 3.973 10.521.492.895-1.091 1.347-2.498 1.362-3.91.021-1.955-.598-3.694-1.565-5.251-.437-.705.34-1.521 1.051-1.095 2.518 1.516 5.105 2.918 7.75 4.202 2.457 1.191 5.09 2.304 7.815 2.114 2.723-.189 5.517-2.098 5.8-4.814.193-1.837-.814-3.672-2.294-4.778-1.48-1.107-3.367-1.559-5.214-1.61-.919-.024-1.864.041-2.735-.255-.871-.294-1.665-1.079-1.61-1.997.058-.971 1.047-1.668 2.015-1.772.966-.103 1.92.228 2.853.502 4.575 1.341 9.527 1.368 14.115.074 1.635-.46 3.267-1.111 4.5-2.28 1.232-1.169 1.997-2.945 1.591-4.594-.637-2.582-3.744-3.76-6.399-3.601-2.655.16-5.2 1.22-7.858 1.313-1.742.062-3.939-.712-3.689-2.71.125-.991.846-1.811 1.761-2.212 3.443-1.507 7.263-3.005 9.599-6.036 2.046-2.652 2.505-6.842.105-9.178C89.395.809 87.785.3 86.169.3c-.566 0-1.133.062-1.681.183"/>
        <path id="prefix__i" d="M67.313 1.082c-1.133.577-2.489.875-3.756 1.024-2.394.282-5.03.392-6.809 2.019-.719.659-1.234 1.52-1.972 2.158-.739.637-1.858 1.015-2.686.5-.571-.356-.686-1.232-.382-1.765.197-.346.012-.791-.369-.902-2.746-.799-6.286 1.347-5.911 4.557.08.681.041 1.381-.261 1.999-1.559 3.188-4.235 1.099-4.255-.9-.011-1.087.484-2.081 1.088-3.006.306-.469.007-1.114-.552-1.154-2.871-.205-5.894 2.726-4.859 5.743.252.738.371 1.532.181 2.29-.649 2.586-3.493 1.503-4.03-.248-.288-.938-.139-1.919.151-2.874.23-.751-.314-1.543-1.099-1.53-1.252.02-2.496.348-3.545 1.026-1.496.969-2.535 2.685-2.511 4.467.017 1.174.465 2.291.774 3.423.37 1.354.529 2.89-.447 4.033-.551.646-1.46.945-2.235.601-1.259-.56-1.225-2.115-1.067-3.374l.66-5.294c.072-.575-.472-1.031-1.026-.863-2.262.679-4.509 1.488-6.315 2.986-2.12 1.757-3.484 4.737-2.53 7.32.565 1.53 1.843 2.72 2.365 4.264.161.473.189 1.012.102 1.526-.255 1.531-2.332 1.814-3.059.443-1.047-1.977-1.685-4.171-1.858-6.401-.046-.609-.75-.919-1.219-.527-.978.816-1.895 1.7-2.561 2.777-.929 1.504-1.283 3.489-.435 5.039 1.048 1.92 3.579 2.661 4.165 5.027.229.922-.181 1.938-1.055 2.314-1.441.618-2.676-.924-3.133-2.322-.307-.936-.551-1.998-1.106-2.769-.358-.498-1.092-.527-1.493-.062-.938 1.093-1.812 2.253-2.231 3.619-.618 2.015.04 4.619 2.36 5.145.631.144 1.229.446 1.677.913 1.66 1.726-.594 3.325-2.143 2.812-.779-.259-1.38-.822-1.89-1.48-.333-.43-1.016-.249-1.088.29-.675 5.147.015 10.472 1.999 15.271l.333 1.178c2.538-.614 5.916-1.206 7.411-3.259.279-.384.205-.918-.121-1.264-.933-.994-2.251-2.786-2.188-3.656.08-1.063.945-2.078 2.009-2.126 1.066-.048 5.013 4.315 5.992 4.739 1.485.644 4.436-2.931 5.788-4.715.347-.458.162-1.117-.371-1.331-1.932-.773-4.942-2.37-6.276-2.688-.952-.228-2.067-.595-2.191-1.662-.087-.749.444-1.426 1.155-1.679 1.263-.45 2.466.163 3.567.755 0 0 5.356 3.755 7.899 3.66 2.989-.112 4.244-.86 6.537-2.33.44-.281.677-.808.567-1.318-.808-3.773-4.622-6.365-8.359-6.112-1.4.095-2.994.5-4.03-.52-.856-.843-.812-2.231-.039-3.152 1.223-1.46 3.337-1.347 4.893-.503 1.318.715 2.333 1.869 3.346 2.974 1.014 1.106 2.095 2.215 3.479 2.794 2.053.861 4.471.395 6.415-.692 1.943-1.087 3.507-2.728 5.039-4.343.427-.451.885-.987.814-1.603-.092-.819-1.021-1.223-1.809-1.466l-8.369-2.581c-.697-.214-1.408-.436-2.001-.862-.878-.628-1.475-1.798-.654-2.895.391-.52 1.012-.832 1.659-.902 1.39-.151 2.615.598 3.759 1.32 3.014 1.904 5.638 4.654 9.043 5.713.47.145 2.55-1.419 3.345-2.285 3.628-3.949 4.879-5.418-.34-5.927l-4.551-.973c-1.114-.239-2.418-.633-2.644-1.828-.17-.896.407-1.764 1.258-2.091 1.577-.605 3.055.206 4.37 1.016 1.414.871 2.827 1.793 4.42 2.266 1.593.471 3.43.429 4.783-.533.626-.446 1.097-1.12 1.329-1.852.25-.791-.566-1.464-1.32-1.115-.954.438-2.363.121-3.541-.686-.957-.656-1.311-2.009-.646-2.958.247-.351.568-.647.921-.89 2.559-1.762 3.13 1.579 6.188 2.119 1.64.29 3.524-.644 4.083-1.941.322-.747-.461-1.564-1.207-1.238-.541.238-1.21.176-1.64-.376-.455-.586-.485-1.374-.005-1.941.393-.466 1.021-.754 1.585-1.04 2.585-1.308 4.679-3.531 5.906-6.151.293-.629-.209-1.266-.815-1.266-.134 0-.273.031-.41.101"/>
        <path id="prefix__k" d="M2.204 2.549C.958 3.747.26 5.354.236 7.074c-.049 3.548 2.823 6.474 6.404 6.527l.095.001c1.698 0 3.299-.644 4.518-1.818 1.247-1.198 1.945-2.805 1.969-4.526.049-3.547-2.824-6.474-6.404-6.525L6.692.732c-1.684 0-3.275.651-4.488 1.817m4.462 9.197C4.108 11.71 2.055 9.624 2.09 7.1c.017-1.221.513-2.362 1.399-3.215.872-.839 2.018-1.298 3.234-1.298h.069c2.558.036 4.611 2.12 4.577 4.645-.017 1.222-.515 2.364-1.401 3.216-.867.834-1.988 1.299-3.212 1.299l-.09-.001"/>
        <path id="prefix__n" d="M.967 4.704C.812 7.21 2.841 9.367 5.497 9.521c2.655.155 4.933-1.751 5.087-4.257C10.738 2.759 8.71.601 6.055.446c-.101-.006-.201-.009-.3-.009-2.526 0-4.64 1.856-4.788 4.267"/>
        <path id="prefix__q" d="M3.713.962C2.015.993.665 2.404.695 4.114c.032 1.71 1.432 3.072 3.13 3.04 1.698-.032 3.049-1.443 3.017-3.153-.03-1.689-1.4-3.039-3.072-3.04l-.057.001"/>
        <path id="prefix__t" d="M0 0.389L80.765 0.389 80.765 36.846 0 36.846z"/>
        <linearGradient id="prefix__b" x1="100%" x2="0%" y1="50%" y2="50%">
            <stop offset="0%" stop-color="#FFB218"/>
            <stop offset="100%" stop-color="#FFCF44"/>
        </linearGradient>
        <linearGradient id="prefix__e" x1="55.224%" x2="43.324%" y1="-3.956%" y2="99.995%">
            <stop offset="0%" stop-color="#FFB218"/>
            <stop offset="100%" stop-color="#FFCF44"/>
        </linearGradient>
        <linearGradient id="prefix__l" x1="100.001%" x2="-.002%" y1="49.994%" y2="49.994%">
            <stop offset="0%" stop-color="#FFB218"/>
            <stop offset="100%" stop-color="#FFCF44"/>
        </linearGradient>
        <linearGradient id="prefix__o" x1="100.004%" x2="-.005%" y1="50.007%" y2="50.007%">
            <stop offset="0%" stop-color="#FFB218"/>
            <stop offset="100%" stop-color="#FFCF44"/>
        </linearGradient>
        <linearGradient id="prefix__r" x1="100.008%" x2=".009%" y1="50%" y2="50%">
            <stop offset="0%" stop-color="#FFB218"/>
            <stop offset="100%" stop-color="#FFCF44"/>
        </linearGradient>
    </defs>
    <g fill="none" fill-rule="evenodd">
        <g transform="translate(234 39.275)">
            <mask id="prefix__c" fill="#fff">
                <use xlink:href="#prefix__a"/>
            </mask>
            <path fill="url(#prefix__b)" d="M17.243 21.373c-.217.66-.417 1.329-.535 2.014-.405 2.362.235 4.858 1.696 6.604 1.462 1.746 3.713 2.706 5.957 2.541-5.941.95-9.025-1.942-13.027-6.684L7.326 37.197c-.324.918-.653 1.867-.611 2.831.081 1.876 1.502 3.273 2.824 4.467l-4.793-.476C4.91 47.922 3.351 51.714 2 55.413.649 59.113-.536 63.146.387 66.895c.737 2.99 2.728 5.39 4.809 7.504.91.924 1.884 1.833 2.941 2.573 1.791 1.256 4.165 1.303 6.043.029.963-.654 2.197-1.339 3.539-1.708 2.69-.741 1.52 5.644 4.083 6.601 2.562.959 5.423.563 8.163.156 2.041-.304 4.172-.642 5.886-1.913 1.985-1.47 3.071-3.929 4.063-6.265l3.184-7.497c.729-1.718 1.476-3.554 1.235-5.381-.242-1.828-1.922-3.501-3.604-2.921l4.365-1.767 1.114-15.255c.069-.943.125-1.952-.319-2.749-.821-1.479-2.814-1.467-4.458-1.299-1.642.167-3.645.131-4.416-1.378 2.626-.709 5.488-1.584 7.083-3.945 1.035-1.533 1.355-3.455 1.496-5.303.71-9.312-4.347-20.344-8.742-25.057C36.494.936 35.141.137 35.141.137c-8.252 4.209-14.888 12.084-17.898 21.236" mask="url(#prefix__c)"/>
        </g>
        <g transform="translate(232 39.275)">
            <mask id="prefix__f" fill="#fff">
                <use xlink:href="#prefix__d"/>
            </mask>
            <path fill="url(#prefix__e)" d="M19.243 21.373c-.217.66-.417 1.329-.535 2.014-.405 2.362.235 4.858 1.696 6.604 1.462 1.746 3.713 2.706 5.957 2.541-5.941.95-9.025-1.942-13.027-6.684L9.326 37.197c-.324.918-.653 1.867-.611 2.831.081 1.876 1.502 3.273 2.824 4.467l-4.793-.476C6.91 47.922 2.341 52.526.99 56.226-.361 59.927-.16 63.243.763 66.991c.738 2.99 4.352 5.294 6.433 7.408.91.924 1.884 1.833 2.941 2.573 1.791 1.256 4.165 1.303 6.043.029.963-.654 2.197-1.339 3.539-1.708.245-.068.645-.036.645-.036L37.141.137c-8.252 4.209-14.888 12.084-17.898 21.236" mask="url(#prefix__f)"/>
        </g>
        <g transform="translate(246 181.275)">
            <mask id="prefix__h" fill="#fff">
                <use xlink:href="#prefix__g"/>
            </mask>
            <path fill="#FFDE8E" d="M84.488.483c-2.111.466-3.981 1.688-5.646 3.066-4.855 4.019-8.394 9.608-9.93 15.722-.213.845-.805 1.596-1.65 1.807-1.462.364-2.218-1.161-2.062-2.386.13-1.018.681-1.929.986-2.908 1.47-4.717-3.829-10.821-9.639-6.506-1.057.785-1.907 1.853-2.238 3.126-.376 1.455-.402 2.763-.375 4.271.034 1.898.277 2.23-1.211 3.585-.877.801-2.176 1.09-3.228.541-1.757-.915-1.873-1.299-2.271-3.155-.831-3.867-5.274-6.532-9.077-5.444-4.171 1.194-6.608 6.628-4.324 10.476.469.79.684 1.741.427 2.623-.551 1.883-2.458 1.61-3.466.653-.735-.698-1.134-1.667-1.613-2.561-1.792-3.351-5.243-6-9.044-6.003-3.8-.002-9.697 4.986-11.853 8.116-4.213 6.115-6.319 9.069-7.415 12.961-.79 2.802.846 10.665 2.689 12.017 1.92 1.411 21.075 4.331 32.613 5.776 2.365.296 7.046-.104 8.836-1.678 1.79-1.574 2.344-4.579.813-6.406-1.419-1.691-3.949-2.935-2.586-4.335.864-.886 2.479.225 3.32.947 2.481 2.124 2.064 2.387 4.524 4.534 2.945 2.567 7.665 3.973 10.521.492.895-1.091 1.347-2.498 1.362-3.91.021-1.955-.598-3.694-1.565-5.251-.437-.705.34-1.521 1.051-1.095 2.518 1.516 5.105 2.918 7.75 4.202 2.457 1.191 5.09 2.304 7.815 2.114 2.723-.189 5.517-2.098 5.8-4.814.193-1.837-.814-3.672-2.294-4.778-1.48-1.107-3.367-1.559-5.214-1.61-.919-.024-1.864.041-2.735-.255-.871-.294-1.665-1.079-1.61-1.997.058-.971 1.047-1.668 2.015-1.772.966-.103 1.92.228 2.853.502 4.575 1.341 9.527 1.368 14.115.074 1.635-.46 3.267-1.111 4.5-2.28 1.232-1.169 1.997-2.945 1.591-4.594-.637-2.582-3.744-3.76-6.399-3.601-2.655.16-5.2 1.22-7.858 1.313-1.742.062-3.939-.712-3.689-2.71.125-.991.846-1.811 1.761-2.212 3.443-1.507 7.263-3.005 9.599-6.036 2.046-2.652 2.505-6.842.105-9.178C89.395.809 87.785.3 86.169.3c-.566 0-1.133.062-1.681.183" mask="url(#prefix__h)"/>
        </g>
        <path fill="#619440" d="M278.899 135.457c1.993-12.27 8.718-23.71 18.895-31.834 6.156-4.914 13.496-8.722 21.365-10.918.205-6.72 6.085-12.834 12.85-13.328.139-.713.796-1.324 1.62-1.549.506-.137 1.244-.045 1.54.432.422.677.676 1.334.63 2.12-.035.583-.744 1.004-1.331.971-.21-.012-.386-.07-.546-.149-.58.11-1.213-.058-1.625-.624-.09-.122-.15-.246-.201-.37-2.92.852-5.632 1.892-7.945 4.07-2.258 2.126-3.637 5.046-3.782 8.116l.024-.006c.045-.054.113-.074.19-.049.106-.028.212-.056.319-.082 1.244-1.97 3.639-3.665 5.477-4.737 1.849-1.078 4.015-2.082 6.2-2.322-.018-.459.135-.928.424-1.302.355-.46 1.133-.526 1.63-.233.04.023.078.055.116.083.513.255.899.88 1.087 1.307.25.568-.101 1.193-.693 1.414l-.658.245c-.541.201-1.063-.037-1.427-.4-.111-.11-.195-.233-.267-.36-2.142.834-4.297 1.48-6.292 2.764-1.205.776-2.334 1.661-3.341 2.683-.137.14-.265.287-.394.434 3.409-.723 6.894-1.143 10.409-1.215.099-.447.397-.833.942-.962.249-.059.5-.047.729.014.24-.014.492.038.719.19 1.137.763.532 2.47-.766 2.666-.921.14-1.515-.548-1.636-1.29-3.411.325-6.81.87-10.137 1.66 1.21.238 2.42.593 3.51.797 2.326.436 4.796.66 7.089 1.305.054-.109.118-.217.199-.319.24-.306.682-.408 1.077-.33.044 0 .088 0 .129.01 1.009.285 1.126 1.516.676 2.244-.308.498-1.073.791-1.614.336-.383-.322-.591-.727-.625-1.143-2.275-.059-4.596-.595-6.815-.978-1.272-.218-2.79-.34-4.2-.659.253.298.509.593.78.866.886.892 1.858 1.69 2.903 2.387 1.912 1.28 4 1.916 6.057 2.793-.06-.58.53-1.112 1.133-1.158.492-.038.887.19 1.132.53.234.225.399.501.507.8.175.482.032 1.022-.425 1.324-.428.282-1.115.292-1.524-.048-.23-.19-.401-.387-.531-.604-2.498-.143-5.13-1.524-7.12-2.88-1.498-1.022-3.508-2.518-4.488-4.285-.192.147-.38.057-.484-.106.009.116.004.231.016.347.402 3.71 2.553 6.906 5.769 8.773 2.457 1.427 5.04 1.83 7.74 1.851-.007-.389.114-.757.41-1.03.623-.576 1.726-.524 2.079.324.01.023.014.047.022.07.362.225.668.537.806.902.29.768-.123 1.631-.994 1.84-.858.206-1.656-.384-2.056-1.14-6.727 1.454-13.976-4.4-14.93-10.98-.04-.266-.043-.53-.063-.797-2.232.67-4.424 1.442-6.545 2.344-11.702 4.98-21.427 13.414-27.134 24.023-6.027 11.201-7.56 20.77-5.383 33.067.035.203-.274.288-.343.083-2.29-6.735-2.006-11.096-.885-17.998"/>
        <g transform="translate(262 112.275)">
            <mask id="prefix__j" fill="#fff">
                <use xlink:href="#prefix__i"/>
            </mask>
            <path fill="#FFBF4D" d="M67.313 1.082c-1.133.577-2.489.875-3.756 1.024-2.394.282-5.03.392-6.809 2.019-.719.659-1.234 1.52-1.972 2.158-.739.637-1.858 1.015-2.686.5-.571-.356-.686-1.232-.382-1.765.197-.346.012-.791-.369-.902-2.746-.799-6.286 1.347-5.911 4.557.08.681.041 1.381-.261 1.999-1.559 3.188-4.235 1.099-4.255-.9-.011-1.087.484-2.081 1.088-3.006.306-.469.007-1.114-.552-1.154-2.871-.205-5.894 2.726-4.859 5.743.252.738.371 1.532.181 2.29-.649 2.586-3.493 1.503-4.03-.248-.288-.938-.139-1.919.151-2.874.23-.751-.314-1.543-1.099-1.53-1.252.02-2.496.348-3.545 1.026-1.496.969-2.535 2.685-2.511 4.467.017 1.174.465 2.291.774 3.423.37 1.354.529 2.89-.447 4.033-.551.646-1.46.945-2.235.601-1.259-.56-1.225-2.115-1.067-3.374l.66-5.294c.072-.575-.472-1.031-1.026-.863-2.262.679-4.509 1.488-6.315 2.986-2.12 1.757-3.484 4.737-2.53 7.32.565 1.53 1.843 2.72 2.365 4.264.161.473.189 1.012.102 1.526-.255 1.531-2.332 1.814-3.059.443-1.047-1.977-1.685-4.171-1.858-6.401-.046-.609-.75-.919-1.219-.527-.978.816-1.895 1.7-2.561 2.777-.929 1.504-1.283 3.489-.435 5.039 1.048 1.92 3.579 2.661 4.165 5.027.229.922-.181 1.938-1.055 2.314-1.441.618-2.676-.924-3.133-2.322-.307-.936-.551-1.998-1.106-2.769-.358-.498-1.092-.527-1.493-.062-.938 1.093-1.812 2.253-2.231 3.619-.618 2.015.04 4.619 2.36 5.145.631.144 1.229.446 1.677.913 1.66 1.726-.594 3.325-2.143 2.812-.779-.259-1.38-.822-1.89-1.48-.333-.43-1.016-.249-1.088.29-.675 5.147.015 10.472 1.999 15.271l.333 1.178c2.538-.614 5.916-1.206 7.411-3.259.279-.384.205-.918-.121-1.264-.933-.994-2.251-2.786-2.188-3.656.08-1.063.945-2.078 2.009-2.126 1.066-.048 5.013 4.315 5.992 4.739 1.485.644 4.436-2.931 5.788-4.715.347-.458.162-1.117-.371-1.331-1.932-.773-4.942-2.37-6.276-2.688-.952-.228-2.067-.595-2.191-1.662-.087-.749.444-1.426 1.155-1.679 1.263-.45 2.466.163 3.567.755 0 0 5.356 3.755 7.899 3.66 2.989-.112 4.244-.86 6.537-2.33.44-.281.677-.808.567-1.318-.808-3.773-4.622-6.365-8.359-6.112-1.4.095-2.994.5-4.03-.52-.856-.843-.812-2.231-.039-3.152 1.223-1.46 3.337-1.347 4.893-.503 1.318.715 2.333 1.869 3.346 2.974 1.014 1.106 2.095 2.215 3.479 2.794 2.053.861 4.471.395 6.415-.692 1.943-1.087 3.507-2.728 5.039-4.343.427-.451.885-.987.814-1.603-.092-.819-1.021-1.223-1.809-1.466l-8.369-2.581c-.697-.214-1.408-.436-2.001-.862-.878-.628-1.475-1.798-.654-2.895.391-.52 1.012-.832 1.659-.902 1.39-.151 2.615.598 3.759 1.32 3.014 1.904 5.638 4.654 9.043 5.713.47.145 2.55-1.419 3.345-2.285 3.628-3.949 4.879-5.418-.34-5.927l-4.551-.973c-1.114-.239-2.418-.633-2.644-1.828-.17-.896.407-1.764 1.258-2.091 1.577-.605 3.055.206 4.37 1.016 1.414.871 2.827 1.793 4.42 2.266 1.593.471 3.43.429 4.783-.533.626-.446 1.097-1.12 1.329-1.852.25-.791-.566-1.464-1.32-1.115-.954.438-2.363.121-3.541-.686-.957-.656-1.311-2.009-.646-2.958.247-.351.568-.647.921-.89 2.559-1.762 3.13 1.579 6.188 2.119 1.64.29 3.524-.644 4.083-1.941.322-.747-.461-1.564-1.207-1.238-.541.238-1.21.176-1.64-.376-.455-.586-.485-1.374-.005-1.941.393-.466 1.021-.754 1.585-1.04 2.585-1.308 4.679-3.531 5.906-6.151.293-.629-.209-1.266-.815-1.266-.134 0-.273.031-.41.101" mask="url(#prefix__j)"/>
        </g>
        <g>
            <path fill="#619440" d="M.56 169.132c5.51-3.86 12.118-11.42 17.616-13.792 1.53-.66 4.425-1.29 5.894-2.08 1.468-.79 2.62-2.425 2.307-4.063-.327-1.71-2.647-3.573-2.661-3.584-1.533-1.19-.087-3.611 1.713-2.882l8.872 3.647c1.61.652 3.27 1.315 5.008 1.328 1.738.014 3.596-.772 4.349-2.34.959-1.996-.191-4.4-1.737-5.986-1.835-1.885-4.265-3.226-5.346-5.745-.495-1.155-.554-2.51.032-3.622 1.083-2.057 3.419-1.988 5.112-1.101 1.248.656 2.245 1.689 3.302 2.62 3.067 2.71 6.795 4.667 10.768 5.654 2.363.587 4.984.813 7.036-.785 1.038-.808 1.673-2.122 1.486-3.424-.353-2.456-2.96-3.282-5.027-4.305-.02-.01-.038-.02-.057-.028-1.96-.997-.527-3.993 1.512-3.173 4.902 1.972 9.934 3.615 15.054 4.917 2.492.633 5.205 1.176 7.504-.316 1.107-.717 1.86-1.97 1.775-3.288-.13-2.027-1.863-2.882-3.442-3.592l-6.046-2.721c-1.113-.501-.852-2.151.36-2.283l4.242-.464c3.11-.341 6.349-.725 8.976-2.427 2.626-1.701 4.407-5.148 3.184-8.03-.84-1.976-2.903-3.237-5.02-3.6-2.116-.363-4.29.045-6.36.618-5.812 1.612-11.17 4.505-16.56 7.216-1.573.792-3.9 1.367-4.752-.175-.64-1.153.22-2.613 1.316-3.346 1.774-1.188 4.18-1.358 4.847-4.244.43-1.864-.011-3.912-1.37-5.26-2.004-1.992-5.287-2.32-7.914-1.268-2.637 1.054-4.664 3.277-6.078 5.738-1.415 2.463-2.295 5.188-3.271 7.854-.335.915-.71 1.864-1.444 2.504-.735.64-1.945.844-2.663.185-.614-.562-.631-1.421-.57-2.295.102-1.438-.178-2.908-.9-4.156-2.832-4.901-8.936-2.823-10.147 1.173-.5 1.65-.228 3.428.159 5.108.388 1.679.89 3.363.84 5.085-.056 1.973-.995 4.077-2.98 4.69-1.384.428-2.984-.175-3.488-1.533-.677-1.822.978-3.492 1.41-5.322.572-2.418-1.298-5.001-3.706-5.605-2.41-.606-5.042.525-6.637 2.429-1.596 1.903-2.26 4.452-2.3 6.935-.04 2.484.495 4.937 1.057 7.357.305 1.312.61 2.74-.092 3.943-.561.96-1.764 1.438-2.665.783-.817-.593-.726-1.753-1.183-2.61-.912-1.707-3.681-1.415-4.92.073-1.238 1.489-1.375 3.577-1.455 5.512l-.743 17.937L.56 169.132z" transform="translate(258 55.275)"/>
            <path fill="#306B34" d="M4.652 155.668c.73-1.104 7.933-15.765 34.66-30.234 23.594-12.774 53.673-16.662 53.034-18.166-.84-1.977-2.903-3.238-5.02-3.601-2.116-.363-4.29.045-6.36.618-5.812 1.612-11.17 4.505-16.56 7.216-1.573.792-3.9 1.367-4.753-.175-.638-1.153.22-2.613 1.317-3.346 1.774-1.188 4.18-1.358 4.847-4.244.43-1.864-.011-3.912-1.37-5.26-2.004-1.993-5.287-2.32-7.914-1.268-2.637 1.054-4.664 3.276-6.08 5.738-1.413 2.463-2.293 5.188-3.27 7.854-.334.915-.708 1.864-1.443 2.504-.735.639-1.945.843-2.663.185-.614-.562-.631-1.422-.57-2.295.102-1.438-.178-2.908-.9-4.156-2.832-4.901-8.936-2.823-10.147 1.173-.5 1.649-.228 3.428.159 5.107.387 1.68.89 3.364.84 5.086-.056 1.973-.995 4.076-2.98 4.69-1.384.428-2.984-.175-3.488-1.533-.677-1.822.978-3.492 1.41-5.322.572-2.418-1.298-5.001-3.707-5.605-2.408-.606-5.041.525-6.636 2.429-1.596 1.903-2.26 4.452-2.3 6.935-.04 2.483.495 4.937 1.057 7.357.305 1.312.61 2.74-.092 3.943-.561.96-1.764 1.437-2.665.783-.817-.593-.726-1.753-1.183-2.61-.912-1.707-3.681-1.415-4.92.073-1.238 1.489-1.375 3.577-1.455 5.512l-.743 17.937-.105 2.675z" transform="translate(258 55.275)"/>
            <path fill="#619440" d="M28.938 18.848c-.503-.578-.837-1.343-.748-2.104.124-1.046 1.037-1.872 2.047-2.175 1.077-.325 2.266-.15 3.282.335 1.015.485 1.868 1.261 2.58 2.133 1.537 1.89 2.43 4.203 3.266 6.496-3.018-.64-5.934-1.757-8.603-3.304-.663-.384-1.32-.803-1.824-1.38M17.894 39.75c-.996-.54-2.025-1.393-2.007-2.524.017-1.016.913-1.831 1.877-2.154 1.85-.62 3.94.164 5.384 1.479 1.403 1.276 2.319 2.985 3.195 4.67-2.876.44-5.891-.082-8.45-1.47M13.13 48.561c-.636-.19-1.273-.416-1.797-.822-.524-.407-.922-1.022-.917-1.684.005-.734.513-1.4 1.158-1.753.644-.35 1.405-.429 2.14-.397 3.196.138 6.162 2.46 7.116 5.51-2.592.17-5.213-.106-7.7-.854M6.644 54.997c.52-.474 1.21-.722 1.902-.844 1.606-.283 3.316.078 4.67.988 1.254.84 2.183 2.146 2.589 3.6-2.255.356-4.56.393-6.822.09-.64-.085-1.287-.2-1.858-.5-.57-.3-1.06-.813-1.186-1.444-.138-.69.184-1.417.705-1.89" transform="translate(258 55.275)"/>
            <path fill="#619440" d="M15.927 58.573l-.058.003.075-.034c1.671-3.055 3.42-6.053 5.188-8.993l-.014-.015-.204.106c-.022-.078-.06-.149-.084-.226.131-.008.262-.006.392-.017.15-.249.3-.503.45-.751 1.51-2.496 3.077-4.956 4.691-7.385l-.02-.04.05-.004c1.936-2.913 3.946-5.774 6.027-8.583-3.095.616-6.429-.052-9.032-1.837-1.18-.809-2.294-2.038-2.176-3.464.096-1.164 1.058-2.147 2.181-2.47 1.123-.322 2.355-.061 3.38.498 1.025.561 1.871 1.398 2.641 2.276 1.253 1.429 2.337 3.001 3.245 4.67 2.178-2.927 4.437-5.795 6.768-8.603l-.062-.171c.035.007.07.019.105.026l.01.082c.376-.455.748-.914 1.13-1.365 1.892-2.239 3.821-4.484 5.818-6.667-2.642-.42-5.209-1.308-7.52-2.653-.816-.474-1.613-1.013-2.2-1.749-.588-.738-.946-1.703-.777-2.63.208-1.144 1.215-2.048 2.347-2.313 1.133-.265 2.347.041 3.337.651.991.609 1.78 1.499 2.453 2.447 1.265 1.784 2.143 3.83 2.614 5.966 1.705-1.854 3.465-3.655 5.296-5.366.197-2.033.747-4.032 1.637-5.869.704-1.457 1.68-2.872 3.126-3.594 1.446-.724 3.443-.53 4.39.78.76 1.053.661 2.552.037 3.69-.624 1.137-1.686 1.969-2.79 2.651-1.67 1.03-3.512 1.771-5.422 2.225-1.852 2.03-3.735 4.03-5.604 6.042 2.311.136 4.574 1.047 6.315 2.574 1.032.905 1.918 2.101 2.012 3.47.095 1.369-.856 2.86-2.224 2.97-1.222.1-2.266-.847-3.038-1.799-1.613-1.985-2.788-4.314-3.466-6.78-1.408 1.522-2.806 3.052-4.16 4.625-.81.943-1.61 1.897-2.405 2.855 1.963.035 3.916.625 5.563 1.694 1.121.727 2.14 1.73 2.517 3.014.378 1.282-.055 2.861-1.232 3.496-1.149.619-2.639.171-3.599-.711-.96-.884-1.513-2.115-2.04-3.309l-1.623-3.684c-2.2 2.671-4.327 5.403-6.394 8.178 2.342-.421 4.847.114 6.792 1.487 1.044.737 1.96 1.757 2.236 3.004.278 1.247-.24 2.72-1.402 3.254-1 .46-2.224.132-3.1-.534-.879-.667-1.485-1.622-2.07-2.555-.905-1.438-1.808-2.875-2.71-4.314-.274.367-.553.73-.823 1.1-1.803 2.464-3.546 4.97-5.24 7.51 1.62-.121 3.267-.235 4.846.139 1.593.378 3.134 1.34 3.795 2.838.661 1.497.166 3.532-1.309 4.244-.98.474-2.187.294-3.13-.252-.943-.545-1.659-1.412-2.254-2.325-.88-1.35-1.537-2.829-2.165-4.315-1.708 2.572-3.36 5.18-4.952 7.826l2.824.349c1.078.133 2.175.272 3.168.712.993.442 1.886 1.238 2.174 2.285.288 1.048-.19 2.328-1.205 2.717-.675.258-1.453.094-2.08-.263-.629-.357-1.136-.888-1.634-1.412l-3.607-3.796c-1.636 2.739-3.206 5.515-4.714 8.326 1.35-.06 2.704-.009 4.002.344 1.668.455 3.25 1.467 4.054 2.996.43.816.622 1.792.348 2.672-.274.881-1.077 1.62-1.998 1.654-1.124.042-2.025-.878-2.75-1.737-1.415-1.671-2.765-3.395-4.068-5.154-.332.626-.67 1.248-.996 1.878-2.798 5.399-5.162 10.987-7.79 16.466-.132.272-.578.061-.48-.22 2.215-6.384 5.191-12.608 8.474-18.628l-.01-.035.032-.004.091-.164" transform="translate(258 55.275)"/>
        </g>
        <g transform="translate(326 143.275)">
            <mask id="prefix__m" fill="#fff">
                <use xlink:href="#prefix__k"/>
            </mask>
            <path fill="url(#prefix__l)" d="M2.204 2.549C.958 3.747.26 5.354.236 7.074c-.049 3.548 2.823 6.474 6.404 6.527l.095.001c1.698 0 3.299-.644 4.518-1.818 1.247-1.198 1.945-2.805 1.969-4.526.049-3.547-2.824-6.474-6.404-6.525L6.692.732c-1.684 0-3.275.651-4.488 1.817m4.462 9.197C4.108 11.71 2.055 9.624 2.09 7.1c.017-1.221.513-2.362 1.399-3.215.872-.839 2.018-1.298 3.234-1.298h.069c2.558.036 4.611 2.12 4.577 4.645-.017 1.222-.515 2.364-1.401 3.216-.867.834-1.988 1.299-3.212 1.299l-.09-.001" mask="url(#prefix__m)"/>
        </g>
        <path fill="#619440" d="M303.486 108.294c-.195 3.164 2.366 5.888 5.719 6.083 3.353.195 6.229-2.21 6.424-5.375.194-3.164-2.366-5.888-5.72-6.083-3.352-.195-6.228 2.211-6.423 5.375"/>
        <g transform="translate(312 140.275)">
            <mask id="prefix__p" fill="#fff">
                <use xlink:href="#prefix__n"/>
            </mask>
            <path fill="url(#prefix__o)" d="M.967 4.704C.812 7.21 2.841 9.367 5.497 9.521c2.655.155 4.933-1.751 5.087-4.257C10.738 2.759 8.71.601 6.055.446c-.101-.006-.201-.009-.3-.009-2.526 0-4.64 1.856-4.788 4.267" mask="url(#prefix__p)"/>
        </g>
        <g transform="translate(231 62.275)">
            <mask id="prefix__s" fill="#fff">
                <use xlink:href="#prefix__q"/>
            </mask>
            <path fill="url(#prefix__r)" d="M3.713.962C2.015.993.665 2.404.695 4.114c.032 1.71 1.432 3.072 3.13 3.04 1.698-.032 3.049-1.443 3.017-3.153-.03-1.689-1.4-3.039-3.072-3.04l-.057.001" mask="url(#prefix__s)"/>
        </g>
        <g>
            <path fill="#FFDE8E" d="M1.701 231.01c0-5.518 71.761-9.99 160.282-9.99 88.522 0 160.282 4.471 160.282 9.99 0 5.518-71.76 9.99-160.282 9.99-88.52 0-160.282-4.472-160.282-9.99" transform="translate(0 .275)"/>
            <path fill="#FFB68E" d="M215.013 158.526c-1.793 13.561 23.128 54.9 22.474 61.274-3.276 4.64-4.912 8.918-5.349 9.95 2.455.205 4.645.798 5.75 1.981 4.2-2.947 6.13-8.035 6.354-9.158.088-.446-.242-2.359-.242-2.782 0-.919 1.256-42.425-2.046-50.066-2.32-5.373-10.33-7.009-14.693-9.348-4.834-2.592-12.248-1.85-12.248-1.85" transform="translate(0 .275)"/>
            <path fill="#57575E" d="M239.963 229.85c.367 1.218 1.027 2.88 1.011 3.591-.003.141-.094.431.014.453.375.076 1.556 0 1.556 0l1.401-1.618-.255-4.598-3.727 2.172z" transform="translate(0 .275)"/>
            <path fill="#A29C8F" d="M233.727 227.903c-6.284-.077-5.414 5.807-4.707 6.435.604.537 7.546.586 8.745.287 1.159-.289 3.503-2.43 4.85-4.86.28-.508.869 1.965-.071 4.13.312.102 1.762.053 1.959-.042.563-.27.614-5.239.867-5.63 1.933-3.006-1.294-7.674-1.294-7.674s.188 1.795.108 2.134c-.478 2.343-3.127 6.268-5.32 7.665-.908-1.233-3.852-2.429-5.137-2.445" transform="translate(0 .275)"/>
            <path fill="#FFB68E" d="M244.75 149.731c-1.936 9.6.353 12.646 1.613 23.133 1.595 13.305 5.84 31.092 4.882 47.462-3.275 4.638-3.809 8.263-4.246 9.294-.031 2.038 2.752 3.443 3.856 4.626 5.27-2.688 7.516-9.423 7.739-10.546.089-.447-.832-2.728-.817-3.15.262-7.882 12.268-33.514 11.563-46.814-.328-6.175-8.63-16.54-10.5-20.46-2.75-5.763-14.09-3.545-14.09-3.545" transform="translate(0 .275)"/>
            <path fill="#57575E" d="M253.698 229.85c.367 1.218 1.027 2.88 1.01 3.591-.002.141-.093.431.015.453.375.076 1.556 0 1.556 0l1.4-1.618-.253-4.598-3.728 2.172z" transform="translate(0 .275)"/>
            <path fill="#A29C8F" d="M247.461 227.903c-6.284-.077-5.414 5.807-4.707 6.435.604.537 7.546.586 8.745.287 1.16-.289 3.503-2.43 4.85-4.86.281-.508.87 1.965-.07 4.13.312.102 1.761.053 1.958-.042.563-.27.614-5.239.867-5.63 1.933-3.006-1.327-7.674-1.327-7.674s.205 1.686.141 2.134c-.478 2.343-3.127 6.268-5.32 7.665-.908-1.233-3.852-2.429-5.137-2.445" transform="translate(0 .275)"/>
            <path fill="#57575E" d="M237.618 34.48c-4.55-2.056-8.577-10.28-3.03-16.554 5.547-6.273 12.217-3.913 13.992-3.468 2.703.676 11.936 10.754 4.45 21.06-7.486 10.304-15.412-1.038-15.412-1.038" transform="translate(0 .275)"/>
            <path fill="#F5EFE4" d="M231.772 47.988c-16.759 12.195-21.96 35.01-20.645 39.677 2.093 7.43 8.428 10.822 16.63 5.473 8.2-5.347 11.62-50.684 4.015-45.15" transform="translate(0 .275)"/>
            <path fill="#A29C8F" d="M213.355 160.168c.284 5.19 3.727 12.532 4.486 14.228 1.842 4.112 48.945 3.11 54.071-3.393 0-3.045-4.133-14.22-4.104-16.326.121-8.783 13.662-26.183 8.564-44.238-2.758-9.767-17.06-18.845-19.27-19.331-5.52-1.212-26.209 1.249-29.47 6.366-12.619 19.798-15.07 48.173-14.277 62.694" transform="translate(0 .275)"/>
            <path fill="#7F786A" d="M244.308 42.532c2.49-.874 15.451 3.862 16.521 6.536.708 1.77 1.131 23.343.292 36.088-.43 6.521 16.123 14.784 15.214 23.222-.667 6.2-60.385 19.914-58.036 3.133.151-1.077 7.514-22.814 7.588-23.846.746-10.478 2.067-13.573 1.62-19.007-.279-3.402 3.633-18.817 4.574-20.129 1.791-2.497 8.654-4.743 12.227-5.997" transform="translate(0 .275)"/>
            <path fill="#FFF4DD" d="M197.626 112.32L236.022 117.998 244.258 62.303 205.861 56.626z" transform="translate(0 .275)"/>
            <path fill="#FFBF4D" d="M208.989 66.242L217.283 67.469 217.869 63.508 209.575 62.281zM208.688 68.277L216.982 69.504 217.081 68.839 208.786 67.612z" transform="translate(0 .275)"/>
            <path fill="#F7E8C8" d="M203.71 101.943L211.464 103.089 211.562 102.424 203.808 101.278zM215.415 103.674L220.494 104.425 220.592 103.76 215.513 103.009zM203.326 104.54L211.08 105.686 211.178 105.021 203.424 103.875zM216.379 75.431L228.748 77.26 228.847 76.594 216.477 74.765zM207.308 77.611L236.801 81.972 236.899 81.307 207.406 76.946zM206.858 80.653L236.351 85.013 236.449 84.348 206.956 79.987zM206.408 83.694L235.901 88.055 235.999 87.389 206.506 83.029zM205.959 86.735L235.452 91.096 235.55 90.431 206.057 86.07zM205.509 89.777L235.002 94.137 235.1 93.472 205.607 89.112zM205.059 92.818L234.552 97.179 234.65 96.514 205.157 92.153z" transform="translate(0 .275)"/>
            <path fill="#FFA087" d="M249.16 34.013c.357 5.619 1.46 11.529 2.41 13.302 1.336 2.495-5.894 4.873-8.925 4.07-3.03-.801-3.922-2.405-4.01-3.475-.09-1.07 3.55-4.604 4.188-12.123.51-5.993 6.19-4.064 6.336-1.774" transform="translate(0 .275)"/>
            <path fill="#FFB68E" d="M234.892 24.095c-2.15 9.105.758 20.028 7.14 20.895 5.283.716 9.481-6.204 7.53-12.474 2.307-.571 2.64-3.35 1.76-4.381-1.569-1.843-2.769.686-2.769.686s-.84-1.414-1.64-4.645c-9.393 4.097-12.02-.081-12.02-.081" transform="translate(0 .275)"/>
            <path fill="#57575E" d="M245.949 15.845c-2.437-6.866 1.82-16.86 7.092-14.86 5.27 2 2.025 10.64 2.025 10.64s2.224-3.13 3.693-1.405c1.608 1.89-2.585 9.333-7.716 9.871-5.132.538-5.094-4.247-5.094-4.247" transform="translate(0 .275)"/>
            <path fill="#F5EFE4" d="M260.83 49.068c-6.546.008-5.4 36.337-3.716 39.311 3.907 6.901 14.094 7.593 19.221-.073 5.128-7.666-9.68-39.244-15.506-39.238" transform="translate(0 .275)"/>
            <path fill="#FFB68E" d="M269.212 81.02c-5.572-6.618-21.083-19.433-23.494-19.562-3.18-.17-5.941-.088-7.963 0-2.021.09-3.424 3.131-3.09 3.477.538.557 2.139-1.783 2.406-1.783.268 0-1.475 2.843-1.337 3.833.103.74 2.496.18 2.853 0 .356-.179 2.459-1.248 2.459-1.248s-2.188 2.041-1.493 2.4c1.006.521 2.867-2.4 3.58-2.133.713.268 1.604 1.607 3.387 2.274 1.783.668 2.41-.016 3.077.326.667.342 6.625 16.725 8.11 18.335 2.513 2.724 8.599 4.948 11.719 4.86 3.119-.09 1.557-8.676-.214-10.78" transform="translate(0 .275)"/>
            <path fill="#57575E" d="M154.117 131.61h12.866c2.153 0 3.988-1.24 4.79-3.236.803-1.997.341-4.162-1.209-5.656l-15.543-14.928c-.258-.243-.655-.237-.9.018-.243.255-.234.655.018.901l15.543 14.928c1.398 1.342 1.388 3.081.913 4.261-.475 1.181-1.674 2.44-3.612 2.44h-12.866c-.35 0-.637.284-.637.634 0 .352.286.637.637.637M116.568 131.489l26.285.107c.351 0 .637-.285.637-.636 0-.351-.286-.637-.637-.637l-26.27-.106c-.352-.004-.64.278-.645.628-.004.351.28.64.63.644" transform="translate(0 .275)"/>
            <path fill="#A29C8F" d="M161.772 94.617l-7.23 28.465c-.68 2.68-3.391 4.305-6.071 3.652l9.708-38.224c2.666.707 4.273 3.427 3.593 6.107" transform="translate(0 .275)"/>
            <path fill="#57575E" d="M147.272 126.432l9.71-38.229 1.147.291c.017.004.032.011.05.015l-9.708 38.225-.05-.01-1.149-.292zM9.838 232.195L9.04 232.195 26.547 170.624 29.232 170.624zM34.295 232.195L33.497 232.195 39.47 170.624 42.155 170.624zM81.241 232.195L82.039 232.195 64.532 170.624 61.847 170.624zM52.8 232.195L53.599 232.195 51.556 170.624 48.87 170.624z" transform="translate(0 .275)"/>
            <path fill="#A29C8F" d="M38.377 166.989l-10.56-21.888c-2.444-5.064-7.57-8.283-13.193-8.283H5.592l8.331 24.353c2.224 6.501 8.335 10.869 15.206 10.869h17.292c-3.429 0-6.554-1.963-8.044-5.051" transform="translate(0 .275)"/>
            <path fill="#7F786A" d="M64.575 136.427h-3.242c-11.907 0-23.112-5.635-30.212-15.193-2.552-2.82-6.177-4.426-9.979-4.426h-3.456c-6.158 0-13.642.875-15.125 11.093l-.86 8.526H15.136c5.623 0 10.75 3.219 13.193 8.282l10.56 21.89c1.49 3.088 4.616 5.05 8.044 5.05h33.785v-4.018c0-11.74-8.187-31.204-16.143-31.204" transform="translate(0 .275)"/>
            <g transform="translate(0 .275) translate(0 136)">
                <mask id="prefix__u" fill="#fff">
                    <use xlink:href="#prefix__t"/>
                </mask>
                <path fill="#57575E" d="M80.253 36.846H46.468c-3.877 0-7.472-2.183-9.157-5.561l-10.56-21.17C24.528 5.657 19.787 2.78 14.67 2.78H1.236C.553 2.78 0 2.244 0 1.584 0 .921.553.387 1.236.387H14.67c6.059 0 11.674 3.41 14.305 8.688l10.56 21.17c1.276 2.558 3.998 4.209 6.932 4.209h33.785c.683 0 .683 2.39 0 2.39" mask="url(#prefix__u)"/>
            </g>
            <path fill="#EABBAB" d="M135.748 198.82l1.479 5.035c1.118 3.822 3.552 14.3 7.104 15.701.69.457-7.193 6.95-7.708 6.548-.117-.092-3.598-11.117-3.655-11.243l-2.634-6.68c-.754-1.923-1.586-3.816-2.494-5.677l-1.704-3.685h9.612z" transform="translate(0 .275)"/>
            <path fill="#57575E" d="M143.386 218.324s4.15 3.338 4.697 3.896c.5.51 3.785 1.338 6.11 1.923 3.406.858 4.044 2.374 4.334 2.942.159.003.284.139.279.303l-.014.597s-9.781.438-13.732.051c0 0-3.222-2.156-3.429-.055l-7.994.04.058-2.301.4-.06c-.212-1.243-.303-3.587.153-5.707l.388-.109s-.258 1.091 2.635 1.327c2.893.235 4.412-.073 4.669-.577.257-.506.17-.295.17-.295s-.21-1.327 1.275-1.975" transform="translate(0 .275)"/>
            <path fill="#7F786A" d="M56.694 168.396l1.84-20.136 60.292 7.435c1.865.447 5.074 2.4 6.074 5.978 0 0 16.502 52.296 17.436 55.114l-4.257 1.517-6.239-1.565c-7.12-11.43-12.58-23.338-16.707-35.63-1.16-2.618-1.886-5.389-2.148-8.214l-.449-4.837-55.842.338z" transform="translate(0 .275)"/>
            <path fill="#EABBAB" d="M100.826 209.57c.194-2.04.305-4.088.333-6.136l.198-5.677h9.657l-1.992 10.692c-.731 3.904-2.812 13.494.57 15.5.374.712 10.178 5.1 9.35 5.803-.826.701-19.95-2.218-20.197-2.804-.056-.134 1.409-10.143 1.415-10.279l.666-7.099z" transform="translate(0 .275)"/>
            <path fill="#57575E" d="M108.272 221.147s3.78 3.707 4.266 4.313c.445.555 3.626 1.685 5.877 2.484 3.3 1.17 3.777 2.74 4.006 3.33.157.018.266.165.245.33l-.078.591s-9.778-.475-13.67-1.228c0 0-2.98-2.445-3.406-.373l-7.96-.705.3-2.284.405-.023c-.08-1.256.076-3.597.75-5.665l.398-.073s-.371 1.063 2.483 1.566c2.855.504 4.398.34 4.707-.14.31-.478.2-.277.2-.277s-.07-1.339 1.477-1.846" transform="translate(0 .275)"/>
            <path fill="#A29C8F" d="M43.703 157.317c.575-5.77.837-7.71 3.71-16.333l21.763 1.876-.628 6.197c14.954 1.494 29.637 3.594 43.186 6.942 3.476.858 7.317 5.691 6.696 9.024 0 0-9.27 51.617-9.562 53.687l-4.125 1.714-6-1.586c-.682-14.793.241-31.466 2.081-49.21-10.746.523-27.184 1.095-44.483.15-10.227.001-12.912-9.5-12.638-12.46" transform="translate(0 .275)"/>
            <path fill="#F7C8B3" d="M59.407 103.385L67.099 106.005 71.979 93.085 65.126 91.132z" transform="translate(0 .275)"/>
            <path fill="#EF5A29" d="M70.309 97.508c-.606-.344-1.173-.707-1.688-1.093-.406 1.29.159 5.14.159 5.14l1.529-4.047z" transform="translate(0 .275)"/>
            <path fill="#F7C8B3" d="M79.656 94.986c-.616 1.094-1.09 2.362-2.26 3.715-.724.838-2.363.71-3.79.231-3.147-1.054-5.192-2.418-6.85-4.23-1.15-1.256-2.112-2.727-3.126-4.46-.828-1.415-2.514-6.87.347-12.399 3.387-6.542 15.963-3.413 18.68 3.137.14.34.367 1.843-.001 3.815l-.031.162c-.294 1.465-.917 3.172-2.136 4.844-.254.35-.352.787-.166 1.174.366.766 1.119 1.807 1.605 2.33.678.733-2.272 1.681-2.272 1.681" transform="translate(0 .275)"/>
            <path fill="#57575E" d="M84.68 83.604c1.16-.08 2.459-1.533 2.709-3.209.172-1.15-.802-2.625-2.004-2.796 1.115-2.474-1.482-4.318-3.474-4.037-.366-1.325-1.475-1.903-2.813-2.147-1.34-.245-2.47.186-3.506 1.068-.326-.818-1.282-1.33-2.144-1.15-.203.043-.404.121-.611.103-.396-.033-.673-.387-.97-.653-1.067-.96-2.802-.913-3.89.08-1.027-.988-3.643-.72-4.53.614-.744-.378-3.414.836-3.58 3.041-1.158-.05-2.342.38-3.155 1.207-.813.826-1.226 2.047-1.022 3.19-.595.106-1.057.61-1.282 1.17-.225.562-.437 1.608.16 2.165-1.777.773-2.198 3.63-.928 5.094-1.056 1.101-1.2 2.962-.324 4.211.875 1.25 2.674 1.75 4.069 1.132 1.125 1.088 2.997 1.301 4.338.494.715.474 1.678.397 2.456.016 1.049-.329 2.388-1.056 2.648-1.964-2.282-1.108-2.544-4.32-.463-5.508 1.77-1.01 3.064 1.418 2.936 2.253l1.29-.314s.22-1.057.425-1.246c.687-.632 1.759-.915 2.1-1.278-1.66-1.228 1.305-1.194 1.529-1.522.368-.539 1.02-.797 1.66-.668 2.42.488 5.299-.274 5.798-1.204.27.551 1.05 2.861-.341 5.881 1.065 1.282 2.737-.13 2.116-1.438.905.31 2.127-1.684.804-2.585" transform="translate(0 .275)"/>
            <path fill="#57575E" d="M81.415 86.01c-.539-.431-1.595-.46-1.918-.438-.325.022-.646.09-.952.191-.307.102-.585.27-.845.444l.027.047c.291-.108.58-.203.882-.229.295-.041.593-.053.887-.022.296.026 1.462.192 1.8.174l.12-.168z" transform="translate(0 .275)"/>
            <path fill="#E1786E" d="M78.492 95.148l-.38-.138-1.793-.652s-.95 2.076-.022 2.551c.929.475 2.195-1.76 2.195-1.76" transform="translate(0 .275)"/>
            <path fill="#57575E" d="M79.563 89.385c-.272.493-.76.745-1.09.563-.33-.181-.376-.728-.104-1.22.27-.493.759-.745 1.089-.564.33.181.377.728.105 1.221" transform="translate(0 .275)"/>
            <path fill="#E6A38C" d="M56.287 101.848c2.203-2.366 7.194.14 10.717 2.4l5.621 3.355 13.438 8.822 29.203 4.45 10.494 2.727 10.682 4.955-1.76-.002-8.76-1.672-5.263-.007-4.243-1.835-31.012-.272c-9.36-3.685-16.578-6.526-27.217-14.373-2.98-2.012-4.048-6.24-1.9-8.548" transform="translate(0 .275)"/>
            <path fill="#EA6C20" d="M56.287 101.848c2.203-2.366 8.811.072 11.457 2.52l4.881 3.235 13.443 8.623 25.162 3.833-.132 5.744-25.712-.226c-9.36-3.684-16.56-7.334-27.199-15.18-2.98-2.013-4.048-6.24-1.9-8.549" transform="translate(0 .275)"/>
            <path fill="#EEF2FE" d="M109.403 125.98L113.57 126.05 113.704 120.209 109.549 119.635z" transform="translate(0 .275)"/>
            <path fill="#FFBF4D" d="M46.536 146.123c1.224.607 5.214.678 6.796 1.302.007 0 .015.008.03.014 5.155 2.03 11.595 3.49 15.366.335.7-5.276 3.695-21.478 4.387-26.321.79-5.535.334-8.333-1.612-12.408-.593-1.24-1.247-2.41-1.924-3.498-3.383-5.39-7.519-8.675-9.427-7.854-3.072 1.324-8.257 4.828-8.706 12.537-1.756 13.899-1.802 19.555-5.109 31.75-.403 1.476-1.17 3.458.2 4.143" transform="translate(0 .275)"/>
            <path fill="#EA6C20" d="M60.287 97.628L69.483 105.444 71.333 101.561 61.959 94.358zM53.332 147.425c.008 0 .015.008.03.015 5.155 2.03 11.595 3.49 15.366.335.7-5.277 3.695-21.48 4.387-26.322.79-5.535-18.508-16.724-18.82-14.9-.558 3.275 3.402 8.019 5.112 9.6 1.718 1.583 2.935 3.62 4.866 4.927.783.518 1.406 1.58 1.558 2.509.22 1.323-.493 1.522-.463 2.859.04 1.805.988 1.756 1.65 3.946 1.467 4.775-.191 5.695-.42 6.539-.326 1.17.64 2.432.26 3.58-.342 1.027.639 4.904.076 5.436-.563.533-2.937 1.598-3.697 1.743-1.612.304-9.905-.267-9.905-.267" transform="translate(0 .275)"/>
            <path fill="#F4FAFC" d="M60.287 97.628L69.483 105.444 70.616 100.307 61.959 94.358z" transform="translate(0 .275)"/>
            <path fill="#EABBAB" d="M55.314 104.162c2.162-2.452 9.56-1.167 12.438 1.172l4.841 3.932 14.43 8.284 30.572 3.293 11.048 2.31 11.36 4.53-1.83.068-9.188-1.324-5.467.2-4.506-1.666-32.23.95c-9.92-3.312-17.57-5.866-29.04-13.285-3.203-1.893-4.536-6.074-2.428-8.464" transform="translate(0 .275)"/>
            <path fill="#FFBF4D" d="M55.314 104.162c2.162-2.452 9.56-1.167 12.438 1.172l4.841 3.932 14.423 8.084 26.343 2.837.17 5.744-24.484.34c-2.338.034-4.662-.351-6.823-1.124-8.129-2.905-14.372-5.983-24.48-12.521-3.203-1.893-4.536-6.074-2.428-8.464" transform="translate(0 .275)"/>
            <path fill="#EEF2FE" d="M111.778 126.175L116.111 126.08 115.939 120.241 111.592 119.83z" transform="translate(0 .275)"/>
            <path fill="#57575E" d="M7.173 58.59H44.84c2.93 0 5.306-2.376 5.306-5.307V42.372c0-2.93-2.375-5.306-5.306-5.306H7.173c-2.93 0-5.306 2.376-5.306 5.306v10.91c0 2.932 2.376 5.308 5.306 5.308" transform="translate(0 .275)"/>
            <path fill="#FFE2B7" d="M12.39 49.325c.052.355.15.62.297.796.269.32.73.48 1.384.48.39 0 .709-.042.953-.127.463-.161.695-.462.695-.901 0-.257-.114-.455-.34-.596-.228-.137-.587-.258-1.08-.364l-.841-.184c-.827-.183-1.396-.382-1.705-.596-.524-.359-.786-.92-.786-1.683 0-.696.257-1.274.769-1.734.512-.461 1.265-.692 2.258-.692.829 0 1.537.218 2.122.652.586.434.892 1.064.92 1.89h-1.56c-.03-.467-.238-.799-.627-.997-.26-.13-.582-.194-.968-.194-.43 0-.771.084-1.027.253-.256.169-.384.404-.384.706 0 .278.126.485.379.623.162.091.506.198 1.032.321l1.364.322c.598.14 1.046.329 1.345.564.463.366.695.895.695 1.588 0 .71-.275 1.3-.824 1.769-.55.469-1.324.704-2.326.704-1.024 0-1.828-.231-2.415-.694-.586-.462-.88-1.097-.88-1.906h1.55zM18.629 51.724L18.629 43.951 20.243 43.951 20.243 46.914 23.264 46.914 23.264 43.951 24.878 43.951 24.878 51.724 23.264 51.724 23.264 48.254 20.243 48.254 20.243 51.724zM31.625 49.852c.378-.475.567-1.149.567-2.025 0-.87-.189-1.546-.567-2.022-.378-.476-.889-.715-1.532-.715s-1.157.238-1.54.712c-.383.475-.575 1.15-.575 2.025 0 .876.192 1.55.575 2.025.383.475.897.712 1.54.712s1.154-.237 1.532-.712m1.015 1.182c-.587.604-1.436.906-2.547.906-1.11 0-1.96-.302-2.547-.906-.788-.743-1.18-1.81-1.18-3.207 0-1.424.392-2.493 1.18-3.206.587-.605 1.436-.908 2.547-.908 1.111 0 1.96.303 2.547.908.784.713 1.176 1.782 1.176 3.206 0 1.396-.392 2.464-1.176 3.207M39.25 45.56c-.206-.173-.494-.259-.864-.259h-1.464v2.288h1.464c.37 0 .658-.093.864-.279.206-.187.31-.48.31-.886 0-.404-.104-.692-.31-.865m1.24 2.801c-.455.38-1.105.57-1.95.57h-1.618v2.794h-1.614v-7.773h3.338c.77 0 1.383.201 1.84.601.458.401.686 1.022.686 1.861 0 .918-.227 1.567-.682 1.947" transform="translate(0 .275)"/>
            <path fill="#F6F7FB" d="M182.337 131.33h-75.733c-.362 0-.666.842-.77 1.996h77.274c-.105-1.154-.408-1.995-.77-1.995" transform="translate(0 .275)"/>
            <path fill="#57575E" d="M105.834 133.326c-.025.274-.042.562-.042.866 0 1.58.364 2.862.813 2.862h75.732c.449 0 .813-1.281.813-2.862 0-.304-.017-.592-.042-.866h-77.274z" transform="translate(0 .275)"/>
            <path fill="#A29C8F" d="M175.855 143.386l-1.738 83.817c-.025 1.207-.882 2.161-1.915 2.132-1-.029-1.798-.976-1.824-2.132l-1.738-83.817c-.048-2.327 1.528-4.26 3.52-4.315 1.993-.058 3.647 1.784 3.695 4.11v.204" transform="translate(0 .275)"/>
        </g>
    </g>
</svg>
