<svg xmlns="http://www.w3.org/2000/svg" xmlns:xlink="http://www.w3.org/1999/xlink" width="438" height="347" viewBox="0 0 438 347">
    <defs>
        <path id="prefix__a" d="M17.761 21.535c-.218.662-.417 1.331-.534 2.015-.407 2.362.234 4.858 1.695 6.604 1.461 1.746 3.713 2.707 5.956 2.541-5.94.95-9.024-1.941-13.027-6.685L7.844 37.361c-.324.916-.653 1.867-.612 2.83.082 1.876 1.503 3.274 2.825 4.467l-4.794-.475c.164 3.902-1.395 7.694-2.746 11.393C1.166 59.277-.019 63.31.905 67.058c.737 2.989 2.727 5.389 4.808 7.503.91.926 1.884 1.835 2.941 2.574 1.792 1.257 4.165 1.304 6.043.029.963-.654 2.197-1.339 3.54-1.709 2.689-.74 1.52 5.646 4.082 6.603 2.562.957 5.423.561 8.163.155 2.041-.303 4.172-.642 5.887-1.912 1.985-1.472 3.071-3.931 4.062-6.266l3.184-7.497c.729-1.717 1.477-3.554 1.235-5.38-.242-1.828-1.921-3.501-3.603-2.922l4.365-1.766 1.114-15.255c.068-.944.124-1.953-.32-2.751-.821-1.477-2.814-1.467-4.457-1.298-1.643.167-3.646.132-4.417-1.378 2.627-.709 5.489-1.583 7.084-3.946 1.034-1.532 1.355-3.453 1.495-5.302.71-9.312-4.347-20.343-8.742-25.057-.358-.384-1.71-1.182-1.71-1.182C27.406 4.51 20.77 12.384 17.761 21.535"/>
        <path id="prefix__d" d="M19.761 21.535c-.218.662-.417 1.331-.534 2.015-.407 2.362.234 4.858 1.695 6.604 1.461 1.746 3.713 2.707 5.956 2.541-5.94.95-9.024-1.941-13.027-6.685L9.844 37.361c-.324.916-.653 1.867-.612 2.83.082 1.876 1.503 3.274 2.825 4.467l-4.794-.475c.164 3.902-4.404 8.507-5.755 12.207-1.351 3.699-1.151 7.016-.227 10.765.737 2.989 4.351 5.292 6.432 7.406.91.926 1.884 1.835 2.941 2.574 1.792 1.257 4.165 1.304 6.043.029.963-.654 2.197-1.339 3.54-1.709.245-.067.645-.034.645-.034L37.659.301C29.406 4.51 22.77 12.384 19.761 21.535"/>
        <path id="prefix__g" d="M84.25.647c-2.112.465-3.981 1.686-5.647 3.065-4.854 4.02-8.393 9.608-9.93 15.722-.213.845-.804 1.596-1.649 1.807-1.463.365-2.218-1.16-2.062-2.386.13-1.018.68-1.928.985-2.907 1.471-4.717-3.828-10.821-9.638-6.507-1.057.784-1.909 1.852-2.238 3.126-.376 1.456-.402 2.763-.375 4.271.034 1.899.277 2.229-1.212 3.586-.876.799-2.175 1.09-3.227.541-1.757-.916-1.873-1.299-2.272-3.156-.83-3.867-5.274-6.531-9.076-5.443-4.172 1.194-6.608 6.628-4.325 10.475.469.791.685 1.74.428 2.624-.551 1.883-2.458 1.609-3.466.653-.736-.699-1.134-1.668-1.613-2.563-1.793-3.349-5.243-5.999-9.044-6.002-3.801-.003-9.697 4.985-11.853 8.115C3.823 31.783 1.717 34.739.621 38.63c-.79 2.802.846 10.664 2.688 12.017 1.921 1.411 21.075 4.332 32.614 5.776 2.365.296 7.046-.103 8.836-1.678 1.79-1.574 2.344-4.58.813-6.406-1.419-1.691-3.949-2.934-2.586-4.334.863-.886 2.478.224 3.32.945 2.48 2.124 2.064 2.388 4.524 4.534 2.945 2.568 7.665 3.974 10.52.494.896-1.091 1.348-2.5 1.363-3.911.021-1.955-.599-3.694-1.565-5.251-.438-.704.34-1.522 1.051-1.094 2.518 1.516 5.105 2.918 7.75 4.2 2.457 1.192 5.09 2.305 7.814 2.115 2.724-.189 5.518-2.098 5.801-4.815.193-1.837-.814-3.67-2.295-4.777-1.48-1.107-3.367-1.56-5.214-1.609-.919-.025-1.864.04-2.734-.255-.871-.295-1.665-1.079-1.61-1.997.058-.972 1.047-1.668 2.013-1.772.968-.105 1.922.227 2.855.5 4.575 1.342 9.527 1.368 14.115.076 1.634-.461 3.267-1.112 4.499-2.281 1.233-1.169 1.998-2.944 1.591-4.593-.636-2.582-3.744-3.762-6.398-3.602-2.655.16-5.2 1.219-7.858 1.313-1.742.062-3.939-.711-3.689-2.711.124-.99.846-1.81 1.76-2.21 3.444-1.508 7.263-3.005 9.6-6.036 2.046-2.653 2.505-6.842.105-9.179C89.158.972 87.548.463 85.933.463c-.567 0-1.135.063-1.683.184"/>
        <path id="prefix__i" d="M67.074.245c-1.134.578-2.488.876-3.755 1.025-2.394.281-5.03.391-6.81 2.018-.72.659-1.234 1.52-1.972 2.158-.738.638-1.857 1.016-2.685.5-.572-.356-.686-1.232-.383-1.765.198-.345.013-.792-.369-.902-2.746-.799-6.286 1.347-5.91 4.556.08.683.041 1.383-.261 2-1.559 3.187-4.235 1.1-4.255-.901-.011-1.085.484-2.08 1.088-3.007.306-.467.006-1.111-.553-1.152-2.871-.205-5.893 2.726-4.86 5.743.254.738.372 1.533.183 2.29-.649 2.587-3.493 1.503-4.03-.247-.289-.939-.14-1.919.151-2.874.229-.753-.314-1.544-1.101-1.532-1.251.02-2.494.35-3.543 1.028-1.497.967-2.535 2.684-2.511 4.466.015 1.174.464 2.292.773 3.423.371 1.355.529 2.891-.446 4.034-.552.644-1.46.945-2.235.6-1.259-.56-1.225-2.114-1.067-3.373l.66-5.295c.072-.575-.472-1.03-1.028-.863-2.26.68-4.508 1.488-6.314 2.986-2.119 1.758-3.483 4.736-2.529 7.32.564 1.53 1.842 2.72 2.365 4.264.16.474.188 1.013.102 1.527-.256 1.531-2.332 1.813-3.059.442-1.047-1.977-1.685-4.171-1.858-6.4-.047-.61-.75-.919-1.219-.528-.979.817-1.897 1.7-2.562 2.778-.928 1.504-1.282 3.488-.435 5.039 1.049 1.92 3.58 2.66 4.166 5.025.228.923-.181 1.939-1.055 2.314-1.441.62-2.676-.922-3.134-2.321-.306-.936-.551-1.999-1.106-2.768-.358-.499-1.092-.527-1.492-.063-.938 1.093-1.812 2.254-2.231 3.62-.618 2.015.039 4.619 2.36 5.145.631.142 1.228.446 1.677.912 1.66 1.727-.594 3.326-2.144 2.811-.778-.257-1.379-.82-1.89-1.479-.332-.43-1.016-.249-1.087.29-.676 5.147.014 10.472 1.998 15.272l.333 1.177c2.539-.613 5.917-1.207 7.411-3.258.28-.385.206-.918-.12-1.266-.933-.992-2.253-2.784-2.188-3.655.079-1.063.943-2.078 2.009-2.125 1.066-.049 5.013 4.314 5.991 4.738 1.486.645 4.437-2.931 5.788-4.714.348-.459.163-1.117-.371-1.331-1.931-.774-4.941-2.372-6.275-2.689-.952-.227-2.067-.595-2.191-1.661-.087-.75.444-1.426 1.155-1.68 1.263-.451 2.466.164 3.566.756 0 0 5.356 3.754 7.899 3.658 2.99-.111 4.244-.859 6.538-2.329.439-.281.676-.808.567-1.317-.809-3.773-4.622-6.365-8.36-6.113-1.399.094-2.993.499-4.029-.52-.856-.844-.812-2.232-.04-3.152 1.224-1.46 3.338-1.347 4.894-.503 1.318.715 2.333 1.869 3.345 2.975 1.013 1.105 2.096 2.215 3.479 2.794 2.054.86 4.472.394 6.415-.692 1.944-1.088 3.507-2.728 5.04-4.345.426-.449.884-.986.814-1.602-.092-.82-1.021-1.223-1.809-1.465L34.2 27.46c-.697-.215-1.408-.437-2.001-.861-.878-.629-1.476-1.799-.654-2.896.391-.52 1.011-.832 1.658-.902 1.391-.152 2.615.597 3.759 1.32 3.014 1.904 5.639 4.655 9.043 5.712.47.146 2.551-1.419 3.346-2.283 3.628-3.95 4.878-5.418-.341-5.929l-4.55-.971c-1.114-.239-2.418-.633-2.645-1.828-.169-.897.408-1.764 1.259-2.092 1.577-.605 3.055.205 4.369 1.015 1.415.872 2.828 1.794 4.421 2.266 1.592.471 3.429.431 4.783-.532.626-.445 1.095-1.12 1.328-1.851.251-.792-.566-1.464-1.319-1.117-.955.44-2.363.123-3.541-.685-.957-.655-1.312-2.008-.646-2.958.247-.352.568-.647.921-.891 2.559-1.76 3.129 1.58 6.187 2.12 1.639.29 3.525-.645 4.084-1.941.322-.747-.461-1.563-1.207-1.237-.542.237-1.211.174-1.64-.377-.455-.586-.485-1.375-.005-1.942.393-.464 1.021-.754 1.585-1.039 2.585-1.308 4.679-3.53 5.905-6.151.294-.628-.209-1.266-.815-1.266-.134 0-.273.031-.41.101"/>
        <path id="prefix__k" d="M0.322 0.784L92.501 0.784 92.501 73.295 0.322 73.295z"/>
        <path id="prefix__m" d="M1.966 2.711C.72 3.91.022 5.518-.003 7.238c-.049 3.547 2.824 6.474 6.404 6.526h.095c1.698 0 3.3-.643 4.519-1.817 1.247-1.198 1.945-2.805 1.968-4.525C13.033 3.874 10.16.948 6.58.895L6.457.894c-1.685 0-3.278.65-4.491 1.817m4.462 9.199c-2.559-.038-4.612-2.122-4.577-4.646.017-1.222.514-2.364 1.4-3.216.872-.839 2.018-1.298 3.234-1.298h.069c2.558.036 4.611 2.121 4.575 4.646-.017 1.221-.513 2.363-1.399 3.216-.868.833-1.99 1.298-3.215 1.298h-.087"/>
        <path id="prefix__p" d="M.728 4.867C.574 7.373 2.603 9.53 5.258 9.685c2.656.155 4.934-1.751 5.088-4.257C10.5 2.921 8.472.763 5.816.609 5.715.604 5.615.601 5.515.601 2.99.601.876 2.456.728 4.867"/>
        <path id="prefix__s" d="M3.475.126C1.777.155.426 1.567.457 3.277c.031 1.71 1.432 3.072 3.129 3.041 1.698-.032 3.049-1.443 3.018-3.154-.03-1.69-1.4-3.039-3.072-3.039l-.057.001"/>
        <linearGradient id="prefix__b" x1="100%" x2="0%" y1="50%" y2="50%">
            <stop offset="0%" stop-color="#FFB218"/>
            <stop offset="100%" stop-color="#FFCF44"/>
        </linearGradient>
        <linearGradient id="prefix__e" x1="55.224%" x2="43.324%" y1="-3.957%" y2="99.994%">
            <stop offset="0%" stop-color="#FFB218"/>
            <stop offset="100%" stop-color="#FFCF44"/>
        </linearGradient>
        <linearGradient id="prefix__n" x1="100.006%" x2=".003%" y1="50.003%" y2="50.003%">
            <stop offset="0%" stop-color="#FFB218"/>
            <stop offset="100%" stop-color="#FFCF44"/>
        </linearGradient>
        <linearGradient id="prefix__q" x1="100%" x2=".001%" y1="49.998%" y2="49.998%">
            <stop offset="0%" stop-color="#FFB218"/>
            <stop offset="100%" stop-color="#FFCF44"/>
        </linearGradient>
        <linearGradient id="prefix__t" x1="100.003%" x2=".004%" y1="49.987%" y2="49.987%">
            <stop offset="0%" stop-color="#FFB218"/>
            <stop offset="100%" stop-color="#FFCF44"/>
        </linearGradient>
    </defs>
    <g fill="none" fill-rule="evenodd">
        <path fill="#FFF4DD" d="M324.949 291.841L370.601 291.841 370.601 166.367 324.949 166.367zM125.628 300.714L361.835 300.714 361.835 291.841 125.628 291.841z" transform="translate(0 1)"/>
        <path fill="#FFF4DD" d="M116.862 220.787L325.748 220.787 325.748 174.861 116.862 174.861zM116.862 275.089L325.748 275.089 325.748 229.163 116.862 229.163z" transform="translate(0 1)"/>
        <path fill="#F7E8C8" d="M324.949 220.787L332.846 220.787 332.846 174.861 324.949 174.861zM324.949 275.089L332.846 275.089 332.846 229.163 324.949 229.163z" transform="translate(0 1)"/>
        <path fill="#FFF4DD" d="M110.779 166.368L324.948 166.368 324.948 158.648 110.779 158.648z" transform="translate(0 1)"/>
        <path fill="#F7E8C8" d="M324.948 166.368L376.98 166.368 376.98 158.648 324.948 158.648z" transform="translate(0 1)"/>
        <path fill="#FFF4DD" d="M248.315 135.043L375.347 135.043 375.347 0 248.315 0z" transform="translate(0 1)"/>
        <path fill="#FFF" d="M258.958 124.402L364.706 124.402 364.706 10.642 258.958 10.642z" transform="translate(0 1)"/>
        <path fill="#F7E8C8" d="M323.541 79.836L343.751 70.468 343.751 64.571 323.541 55.187 323.541 62.241 335.823 67.531 323.541 72.824zM310.364 52.465L306.67 52.465 313.214 82.577 316.873 82.577zM300.123 72.824L287.841 67.531 300.123 62.241 300.123 55.186 279.913 64.571 279.913 70.468 300.123 79.836z" transform="translate(0 1)"/>
        <path fill="#FFF4DD" d="M61.103 300.714L68.146 300.714 68.146 71.538 61.103 71.538z" transform="translate(0 1)"/>
        <g>
            <path fill="#FFF4DD" d="M45.643 283.24l-.191-.982c.075-.016 1.92-.424 3.326-2.91 1.83-3.243 2.944-10.148-2.147-24.632-7.844-22.314-3.162-40.322 6.165-76.198 1.624-6.249 3.466-13.332 5.377-20.978 7.167-28.668.537-46.449-4.79-60.737-4.136-11.09-7.401-19.852-3.221-30l.924.381c-4.03 9.785-.825 18.383 3.234 29.27 5.375 14.417 12.065 32.36 4.824 61.328-1.913 7.651-3.755 14.736-5.38 20.987-9.277 35.68-13.932 53.59-6.19 75.615 5.236 14.894 4.003 22.091 2.046 25.506-1.643 2.867-3.883 3.331-3.977 3.35" transform="translate(0 1) translate(14 15.877)"/>
            <path fill="#FFF4DD" d="M37.88 284.837L63.367 284.837 56.28 280.661 44.967 280.661zM.204 84.846L101.044 84.846 89.946.106 11.301.106zM149.768 98.815L203.608 98.815 196.521 142.771 156.855 142.771z" transform="translate(0 1) translate(14 15.877)"/>
            <path fill="#F7E8C8" d="M185.672 98.408c-11.233-7.645-19.196-16.503-6.163-25.84 13.033-9.338 29.1-4.552 38.758 4.124 12.31 11.06 5.206 30.471 5.206 30.471s-26.568-1.11-37.801-8.755" transform="translate(0 1) translate(14 15.877)"/>
            <path fill="#FAFAFA" d="M189.576 46.593c-7.805.532-14.561-.648-11.98-9.511 2.583-8.863 11.562-12.408 19.02-11.913 9.508.63 13.192 11.947 13.192 11.947s-12.427 8.945-20.232 9.477" transform="translate(0 1) translate(14 15.877)"/>
        </g>
        <g transform="translate(0 1) translate(337 146.877)">
            <mask id="prefix__c" fill="#fff">
                <use xlink:href="#prefix__a"/>
            </mask>
            <path fill="url(#prefix__b)" d="M17.761 21.535c-.218.662-.417 1.331-.534 2.015-.407 2.362.234 4.858 1.695 6.604 1.461 1.746 3.713 2.707 5.956 2.541-5.94.95-9.024-1.941-13.027-6.685L7.844 37.361c-.324.916-.653 1.867-.612 2.83.082 1.876 1.503 3.274 2.825 4.467l-4.794-.475c.164 3.902-1.395 7.694-2.746 11.393C1.166 59.277-.019 63.31.905 67.058c.737 2.989 2.727 5.389 4.808 7.503.91.926 1.884 1.835 2.941 2.574 1.792 1.257 4.165 1.304 6.043.029.963-.654 2.197-1.339 3.54-1.709 2.689-.74 1.52 5.646 4.082 6.603 2.562.957 5.423.561 8.163.155 2.041-.303 4.172-.642 5.887-1.912 1.985-1.472 3.071-3.931 4.062-6.266l3.184-7.497c.729-1.717 1.477-3.554 1.235-5.38-.242-1.828-1.921-3.501-3.603-2.922l4.365-1.766 1.114-15.255c.068-.944.124-1.953-.32-2.751-.821-1.477-2.814-1.467-4.457-1.298-1.643.167-3.646.132-4.417-1.378 2.627-.709 5.489-1.583 7.084-3.946 1.034-1.532 1.355-3.453 1.495-5.302.71-9.312-4.347-20.343-8.742-25.057-.358-.384-1.71-1.182-1.71-1.182C27.406 4.51 20.77 12.384 17.761 21.535" mask="url(#prefix__c)"/>
        </g>
        <g transform="translate(0 1) translate(335 146.877)">
            <mask id="prefix__f" fill="#fff">
                <use xlink:href="#prefix__d"/>
            </mask>
            <path fill="url(#prefix__e)" d="M19.761 21.535c-.218.662-.417 1.331-.534 2.015-.407 2.362.234 4.858 1.695 6.604 1.461 1.746 3.713 2.707 5.956 2.541-5.94.95-9.024-1.941-13.027-6.685L9.844 37.361c-.324.916-.653 1.867-.612 2.83.082 1.876 1.503 3.274 2.825 4.467l-4.794-.475c.164 3.902-4.404 8.507-5.755 12.207-1.351 3.699-1.151 7.016-.227 10.765.737 2.989 4.351 5.292 6.432 7.406.91.926 1.884 1.835 2.941 2.574 1.792 1.257 4.165 1.304 6.043.029.963-.654 2.197-1.339 3.54-1.709.245-.067.645-.034.645-.034L37.659.301C29.406 4.51 22.77 12.384 19.761 21.535" mask="url(#prefix__f)"/>
        </g>
        <g transform="translate(0 1) translate(333 276.877)">
            <mask id="prefix__h" fill="#fff">
                <use xlink:href="#prefix__g"/>
            </mask>
            <path fill="#F7E8C8" d="M84.25.647c-2.112.465-3.981 1.686-5.647 3.065-4.854 4.02-8.393 9.608-9.93 15.722-.213.845-.804 1.596-1.649 1.807-1.463.365-2.218-1.16-2.062-2.386.13-1.018.68-1.928.985-2.907 1.471-4.717-3.828-10.821-9.638-6.507-1.057.784-1.909 1.852-2.238 3.126-.376 1.456-.402 2.763-.375 4.271.034 1.899.277 2.229-1.212 3.586-.876.799-2.175 1.09-3.227.541-1.757-.916-1.873-1.299-2.272-3.156-.83-3.867-5.274-6.531-9.076-5.443-4.172 1.194-6.608 6.628-4.325 10.475.469.791.685 1.74.428 2.624-.551 1.883-2.458 1.609-3.466.653-.736-.699-1.134-1.668-1.613-2.563-1.793-3.349-5.243-5.999-9.044-6.002-3.801-.003-9.697 4.985-11.853 8.115C3.823 31.783 1.717 34.739.621 38.63c-.79 2.802.846 10.664 2.688 12.017 1.921 1.411 21.075 4.332 32.614 5.776 2.365.296 7.046-.103 8.836-1.678 1.79-1.574 2.344-4.58.813-6.406-1.419-1.691-3.949-2.934-2.586-4.334.863-.886 2.478.224 3.32.945 2.48 2.124 2.064 2.388 4.524 4.534 2.945 2.568 7.665 3.974 10.52.494.896-1.091 1.348-2.5 1.363-3.911.021-1.955-.599-3.694-1.565-5.251-.438-.704.34-1.522 1.051-1.094 2.518 1.516 5.105 2.918 7.75 4.2 2.457 1.192 5.09 2.305 7.814 2.115 2.724-.189 5.518-2.098 5.801-4.815.193-1.837-.814-3.67-2.295-4.777-1.48-1.107-3.367-1.56-5.214-1.609-.919-.025-1.864.04-2.734-.255-.871-.295-1.665-1.079-1.61-1.997.058-.972 1.047-1.668 2.013-1.772.968-.105 1.922.227 2.855.5 4.575 1.342 9.527 1.368 14.115.076 1.634-.461 3.267-1.112 4.499-2.281 1.233-1.169 1.998-2.944 1.591-4.593-.636-2.582-3.744-3.762-6.398-3.602-2.655.16-5.2 1.219-7.858 1.313-1.742.062-3.939-.711-3.689-2.711.124-.99.846-1.81 1.76-2.21 3.444-1.508 7.263-3.005 9.6-6.036 2.046-2.653 2.505-6.842.105-9.179C89.158.972 87.548.463 85.933.463c-.567 0-1.135.063-1.683.184" mask="url(#prefix__h)"/>
        </g>
        <path fill="#619440" d="M365.66 241.223c1.993-12.27 8.718-23.711 18.895-31.835 6.156-4.913 13.496-8.721 21.365-10.918.205-6.72 6.085-12.833 12.85-13.328.14-.712.797-1.324 1.622-1.548.505-.138 1.243-.045 1.538.432.423.677.676 1.333.63 2.118-.034.585-.743 1.006-1.33.973-.212-.013-.388-.071-.547-.15-.579.11-1.212-.057-1.625-.623-.09-.122-.15-.246-.2-.37-2.92.852-5.632 1.89-7.947 4.07-2.257 2.126-3.635 5.045-3.78 8.116l.024-.007c.045-.053.113-.073.19-.048.105-.028.212-.056.317-.082 1.246-1.971 3.64-3.666 5.478-4.738 1.85-1.078 4.016-2.081 6.2-2.321-.017-.46.136-.928.425-1.303.353-.46 1.132-.525 1.629-.232.04.023.079.054.116.083.512.255.899.878 1.088 1.306.25.569-.101 1.193-.694 1.414l-.659.246c-.54.2-1.062-.037-1.425-.401-.111-.111-.195-.233-.267-.36-2.142.835-4.298 1.48-6.293 2.765-1.204.775-2.334 1.66-3.34 2.682-.139.14-.266.288-.394.435 3.409-.723 6.894-1.143 10.409-1.216.098-.446.397-.832.942-.962.248-.06.5-.046.728.014.24-.013.493.039.72.19 1.137.763.531 2.47-.767 2.666-.92.14-1.514-.547-1.637-1.291-3.41.327-6.808.87-10.135 1.662 1.21.237 2.42.592 3.509.796 2.327.436 4.796.66 7.09 1.305.053-.11.118-.216.199-.32.24-.304.68-.407 1.077-.328.043-.002.087-.001.128.01 1.009.285 1.127 1.515.677 2.243-.308.499-1.074.792-1.615.336-.382-.322-.59-.726-.625-1.143-2.274-.058-4.596-.594-6.815-.977-1.272-.218-2.788-.341-4.2-.66.253.299.508.593.78.866.887.892 1.858 1.689 2.903 2.388 1.913 1.279 4 1.916 6.058 2.793-.06-.58.53-1.112 1.132-1.16.493-.036.887.192 1.132.53.234.227.4.502.507.802.175.482.032 1.022-.425 1.324-.428.282-1.115.292-1.524-.048-.228-.191-.4-.388-.53-.605-2.499-.142-5.13-1.524-7.12-2.88-1.499-1.022-3.509-2.517-4.49-4.284-.19.147-.379.056-.483-.107.01.117.003.232.017.347.401 3.709 2.553 6.906 5.769 8.773 2.457 1.427 5.04 1.83 7.74 1.85-.007-.388.113-.755.41-1.028.623-.576 1.726-.525 2.079.323.01.024.014.048.022.07.362.226.668.537.805.903.29.768-.123 1.63-.993 1.839-.858.207-1.656-.383-2.057-1.14-6.726 1.455-13.976-4.4-14.93-10.98-.038-.265-.042-.53-.063-.796-2.231.67-4.423 1.442-6.544 2.344-11.702 4.979-21.428 13.414-27.135 24.022-6.026 11.202-7.56 20.77-5.382 33.068.034.203-.274.288-.344.083-2.288-6.735-2.006-11.096-.885-17.998" transform="translate(0 1)"/>
        <g transform="translate(0 1) translate(349 218.877)">
            <mask id="prefix__j" fill="#fff">
                <use xlink:href="#prefix__i"/>
            </mask>
            <path fill="#FFBF4D" d="M67.074.245c-1.134.578-2.488.876-3.755 1.025-2.394.281-5.03.391-6.81 2.018-.72.659-1.234 1.52-1.972 2.158-.738.638-1.857 1.016-2.685.5-.572-.356-.686-1.232-.383-1.765.198-.345.013-.792-.369-.902-2.746-.799-6.286 1.347-5.91 4.556.08.683.041 1.383-.261 2-1.559 3.187-4.235 1.1-4.255-.901-.011-1.085.484-2.08 1.088-3.007.306-.467.006-1.111-.553-1.152-2.871-.205-5.893 2.726-4.86 5.743.254.738.372 1.533.183 2.29-.649 2.587-3.493 1.503-4.03-.247-.289-.939-.14-1.919.151-2.874.229-.753-.314-1.544-1.101-1.532-1.251.02-2.494.35-3.543 1.028-1.497.967-2.535 2.684-2.511 4.466.015 1.174.464 2.292.773 3.423.371 1.355.529 2.891-.446 4.034-.552.644-1.46.945-2.235.6-1.259-.56-1.225-2.114-1.067-3.373l.66-5.295c.072-.575-.472-1.03-1.028-.863-2.26.68-4.508 1.488-6.314 2.986-2.119 1.758-3.483 4.736-2.529 7.32.564 1.53 1.842 2.72 2.365 4.264.16.474.188 1.013.102 1.527-.256 1.531-2.332 1.813-3.059.442-1.047-1.977-1.685-4.171-1.858-6.4-.047-.61-.75-.919-1.219-.528-.979.817-1.897 1.7-2.562 2.778-.928 1.504-1.282 3.488-.435 5.039 1.049 1.92 3.58 2.66 4.166 5.025.228.923-.181 1.939-1.055 2.314-1.441.62-2.676-.922-3.134-2.321-.306-.936-.551-1.999-1.106-2.768-.358-.499-1.092-.527-1.492-.063-.938 1.093-1.812 2.254-2.231 3.62-.618 2.015.039 4.619 2.36 5.145.631.142 1.228.446 1.677.912 1.66 1.727-.594 3.326-2.144 2.811-.778-.257-1.379-.82-1.89-1.479-.332-.43-1.016-.249-1.087.29-.676 5.147.014 10.472 1.998 15.272l.333 1.177c2.539-.613 5.917-1.207 7.411-3.258.28-.385.206-.918-.12-1.266-.933-.992-2.253-2.784-2.188-3.655.079-1.063.943-2.078 2.009-2.125 1.066-.049 5.013 4.314 5.991 4.738 1.486.645 4.437-2.931 5.788-4.714.348-.459.163-1.117-.371-1.331-1.931-.774-4.941-2.372-6.275-2.689-.952-.227-2.067-.595-2.191-1.661-.087-.75.444-1.426 1.155-1.68 1.263-.451 2.466.164 3.566.756 0 0 5.356 3.754 7.899 3.658 2.99-.111 4.244-.859 6.538-2.329.439-.281.676-.808.567-1.317-.809-3.773-4.622-6.365-8.36-6.113-1.399.094-2.993.499-4.029-.52-.856-.844-.812-2.232-.04-3.152 1.224-1.46 3.338-1.347 4.894-.503 1.318.715 2.333 1.869 3.345 2.975 1.013 1.105 2.096 2.215 3.479 2.794 2.054.86 4.472.394 6.415-.692 1.944-1.088 3.507-2.728 5.04-4.345.426-.449.884-.986.814-1.602-.092-.82-1.021-1.223-1.809-1.465L34.2 27.46c-.697-.215-1.408-.437-2.001-.861-.878-.629-1.476-1.799-.654-2.896.391-.52 1.011-.832 1.658-.902 1.391-.152 2.615.597 3.759 1.32 3.014 1.904 5.639 4.655 9.043 5.712.47.146 2.551-1.419 3.346-2.283 3.628-3.95 4.878-5.418-.341-5.929l-4.55-.971c-1.114-.239-2.418-.633-2.645-1.828-.169-.897.408-1.764 1.259-2.092 1.577-.605 3.055.205 4.369 1.015 1.415.872 2.828 1.794 4.421 2.266 1.592.471 3.429.431 4.783-.532.626-.445 1.095-1.12 1.328-1.851.251-.792-.566-1.464-1.319-1.117-.955.44-2.363.123-3.541-.685-.957-.655-1.312-2.008-.646-2.958.247-.352.568-.647.921-.891 2.559-1.76 3.129 1.58 6.187 2.12 1.639.29 3.525-.645 4.084-1.941.322-.747-.461-1.563-1.207-1.237-.542.237-1.211.174-1.64-.377-.455-.586-.485-1.375-.005-1.942.393-.464 1.021-.754 1.585-1.039 2.585-1.308 4.679-3.53 5.905-6.151.294-.628-.209-1.266-.815-1.266-.134 0-.273.031-.41.101" mask="url(#prefix__j)"/>
        </g>
        <g transform="translate(0 1) translate(345 246.877)">
            <mask id="prefix__l" fill="#fff">
                <use xlink:href="#prefix__k"/>
            </mask>
            <path fill="#619440" d="M.322 73.295c5.51-3.86 12.117-11.42 17.615-13.792 1.531-.66 4.426-1.289 5.894-2.079 1.47-.79 2.62-2.426 2.307-4.064-.327-1.71-2.647-3.573-2.66-3.584-1.534-1.19-.088-3.612 1.712-2.883l8.872 3.648c1.611.652 3.27 1.315 5.008 1.328 1.738.013 3.596-.772 4.35-2.34.958-1.997-.192-4.399-1.738-5.987-1.835-1.885-4.265-3.225-5.346-5.744-.495-1.155-.554-2.51.032-3.622 1.083-2.058 3.42-1.988 5.112-1.1 1.248.654 2.245 1.688 3.302 2.62 3.068 2.71 6.795 4.666 10.768 5.653 2.363.587 4.984.812 7.036-.785 1.038-.809 1.673-2.123 1.486-3.424-.353-2.456-2.96-3.282-5.027-4.305l-.057-.028c-1.96-.997-.527-3.993 1.513-3.173 4.901 1.971 9.933 3.615 15.053 4.916 2.492.634 5.205 1.177 7.504-.315 1.107-.718 1.86-1.97 1.775-3.288-.13-2.028-1.863-2.883-3.44-3.593l-6.048-2.72c-1.113-.5-.852-2.15.361-2.283l4.241-.465c3.111-.34 6.35-.725 8.976-2.426 2.626-1.7 4.407-5.149 3.184-8.029-.84-1.978-2.903-3.238-5.019-3.6-2.117-.364-4.29.044-6.36.617-5.813 1.612-11.17 4.505-16.559 7.215-1.575.792-3.9 1.368-4.754-.174-.639-1.154.22-2.613 1.316-3.346 1.775-1.188 4.18-1.358 4.847-4.244.432-1.864-.01-3.913-1.369-5.26C62.204.646 58.921.32 56.294 1.37c-2.637 1.054-4.664 3.277-6.078 5.74-1.415 2.461-2.295 5.186-3.27 7.853-.336.915-.71 1.864-1.445 2.504-.735.64-1.944.844-2.663.185-.614-.562-.63-1.42-.569-2.295.101-1.438-.179-2.908-.9-4.156-2.833-4.9-8.937-2.823-10.148 1.172-.5 1.65-.228 3.43.16 5.11.387 1.678.89 3.361.84 5.083-.057 1.974-.996 4.077-2.98 4.69-1.385.428-2.985-.175-3.489-1.532-.677-1.823.978-3.492 1.411-5.323.571-2.417-1.299-5-3.707-5.605-2.409-.605-5.042.525-6.637 2.43-1.596 1.903-2.259 4.452-2.299 6.935-.04 2.484.494 4.937 1.056 7.356.305 1.313.611 2.742-.092 3.944-.56.961-1.764 1.437-2.665.783-.817-.593-.726-1.753-1.183-2.609-.912-1.708-3.68-1.416-4.92.072-1.238 1.49-1.374 3.577-1.455 5.512l-.743 17.937-4.196 16.14z" mask="url(#prefix__l)"/>
            <path fill="#306B34" d="M4.413 59.83c.731-1.104 7.933-15.764 34.661-30.234 23.593-12.774 53.672-16.662 53.033-18.165-.84-1.978-2.903-3.238-5.019-3.6-2.117-.364-4.29.044-6.36.617-5.813 1.611-11.17 4.505-16.559 7.215-1.575.792-3.9 1.368-4.755-.174-.638-1.154.221-2.613 1.317-3.347 1.775-1.187 4.18-1.357 4.847-4.243.431-1.864-.01-3.913-1.369-5.26C62.204.645 58.921.32 56.294 1.37c-2.637 1.054-4.664 3.276-6.079 5.74-1.414 2.461-2.294 5.186-3.27 7.853-.335.915-.709 1.864-1.444 2.504-.735.64-1.944.843-2.663.185-.614-.562-.63-1.422-.569-2.295.101-1.438-.179-2.908-.9-4.156-2.833-4.9-8.937-2.823-10.148 1.172-.5 1.65-.228 3.43.16 5.108.387 1.68.89 3.363.84 5.085-.057 1.974-.996 4.076-2.98 4.69-1.385.428-2.985-.175-3.489-1.532-.677-1.823.978-3.492 1.411-5.323.571-2.417-1.299-5-3.708-5.605-2.408-.605-5.04.525-6.636 2.43-1.596 1.903-2.26 4.452-2.299 6.935-.04 2.483.494 4.937 1.056 7.356.305 1.313.61 2.742-.092 3.944-.56.961-1.764 1.436-2.665.783-.817-.593-.726-1.753-1.183-2.609-.912-1.708-3.68-1.416-4.92.072-1.238 1.49-1.375 3.577-1.455 5.512l-.743 17.937-.105 2.674z"/>
        </g>
        <g transform="translate(0 1) translate(413 238.877)">
            <mask id="prefix__o" fill="#fff">
                <use xlink:href="#prefix__m"/>
            </mask>
            <path fill="url(#prefix__n)" d="M1.966 2.711C.72 3.91.022 5.518-.003 7.238c-.049 3.547 2.824 6.474 6.404 6.526h.095c1.698 0 3.3-.643 4.519-1.817 1.247-1.198 1.945-2.805 1.968-4.525C13.033 3.874 10.16.948 6.58.895L6.457.894c-1.685 0-3.278.65-4.491 1.817m4.462 9.199c-2.559-.038-4.612-2.122-4.577-4.646.017-1.222.514-2.364 1.4-3.216.872-.839 2.018-1.298 3.234-1.298h.069c2.558.036 4.611 2.121 4.575 4.646-.017 1.221-.513 2.363-1.399 3.216-.868.833-1.99 1.298-3.215 1.298h-.087" mask="url(#prefix__o)"/>
        </g>
        <path fill="#619440" d="M390.247 214.06c-.194 3.164 2.366 5.887 5.72 6.083 3.353.195 6.228-2.212 6.423-5.376.195-3.163-2.366-5.887-5.719-6.082-3.353-.195-6.229 2.21-6.424 5.375" transform="translate(0 1)"/>
        <g transform="translate(0 1) translate(399 235.877)">
            <mask id="prefix__r" fill="#fff">
                <use xlink:href="#prefix__p"/>
            </mask>
            <path fill="url(#prefix__q)" d="M.728 4.867C.574 7.373 2.603 9.53 5.258 9.685c2.656.155 4.934-1.751 5.088-4.257C10.5 2.921 8.472.763 5.816.609 5.715.604 5.615.601 5.515.601 2.99.601.876 2.456.728 4.867" mask="url(#prefix__r)"/>
        </g>
        <g transform="translate(0 1) translate(344 160.877)">
            <mask id="prefix__u" fill="#fff">
                <use xlink:href="#prefix__s"/>
            </mask>
            <path fill="url(#prefix__t)" d="M3.475.126C1.777.155.426 1.567.457 3.277c.031 1.71 1.432 3.072 3.129 3.041 1.698-.032 3.049-1.443 3.018-3.154-.03-1.69-1.4-3.039-3.072-3.039l-.057.001" mask="url(#prefix__u)"/>
        </g>
        <g>
            <path fill="#F7E8C8" d="M387.778 308.677c0 6.254-86.807 11.323-193.889 11.323C86.807 320 0 314.93 0 308.677c0-6.254 86.807-11.323 193.89-11.323 107.081 0 193.888 5.069 193.888 11.323" transform="translate(0 1) translate(0 25.877)"/>
            <path fill="#7F786A" d="M23.399 155.717L363.153 155.717 363.153 143.524 23.399 143.524z" transform="translate(0 1) translate(0 25.877)"/>
            <path fill="#A29C8F" d="M23.399 155.717L114.326 155.717 114.326 143.524 23.399 143.524z" transform="translate(0 1) translate(0 25.877)"/>
            <path fill="#7F786A" d="M115.782 155.717L107.868 155.717 112.013 308.493 115.782 308.493 119.551 308.493 123.695 155.717z" transform="translate(0 1) translate(0 25.877)"/>
            <path fill="#A29C8F" d="M112.013 308.493L115.782 308.493 115.782 158.999 107.996 160.422z" transform="translate(0 1) translate(0 25.877)"/>
            <path fill="#7F786A" d="M40.808 155.717L32.894 155.717 37.039 308.493 40.808 308.493 44.577 308.493 48.722 155.717z" transform="translate(0 1) translate(0 25.877)"/>
            <path fill="#A29C8F" d="M37.039 308.493L40.808 308.493 40.808 158.999 33.022 160.422z" transform="translate(0 1) translate(0 25.877)"/>
            <path fill="#7F786A" d="M345.743 155.717L337.829 155.717 341.974 308.493 345.743 308.493 349.512 308.493 353.657 155.717z" transform="translate(0 1) translate(0 25.877)"/>
            <path fill="#A29C8F" d="M341.974 308.493L345.743 308.493 345.743 158.999 337.957 160.422z" transform="translate(0 1) translate(0 25.877)"/>
            <path fill="#7F786A" d="M270.77 155.717L262.856 155.717 267.001 308.493 270.77 308.493 274.539 308.493 278.684 155.717z" transform="translate(0 1) translate(0 25.877)"/>
            <path fill="#A29C8F" d="M267 308.493L270.769 308.493 270.769 158.999 262.983 160.422z" transform="translate(0 1) translate(0 25.877)"/>
            <path fill="#1A2E35" d="M184.67 78.268h-80.835c-2.902 0-4.778 2.374-4.17 5.276l10.766 51.35c.608 2.9 3.48 5.275 6.382 5.275h80.835c2.902 0 4.778-2.374 4.17-5.275l-10.766-51.35c-.609-2.902-3.48-5.276-6.382-5.276" transform="translate(0 1) translate(0 25.877)"/>
            <path fill="#FFF" d="M117.56 137.238c-1.898 0-3.915-1.68-4.316-3.598l-10.766-51.35c-.166-.79-.033-1.502.374-2.003.381-.47.996-.73 1.73-.73h80.835c1.897 0 3.915 1.682 4.318 3.6l10.766 51.35c.164.79.031 1.502-.374 2.002-.389.477-.986.73-1.732.73H117.56z" transform="translate(0 1) translate(0 25.877)"/>
            <path fill="#FFF4DD" d="M178.55 133.131L168.353 84.48c-.26-1.232.68-2.388 1.939-2.388h13.116c.938 0 1.747.657 1.939 1.574l10.2 48.652c.258 1.231-.682 2.388-1.94 2.388H180.49c-.937 0-1.747-.657-1.94-1.575" transform="translate(0 1) translate(0 25.877)"/>
            <path fill="#FFAF12" d="M109.212 86.313L108.77 84.203 124.969 84.203 125.411 86.313z" transform="translate(0 1) translate(0 25.877)"/>
            <path fill="#ECECEC" d="M116.689 91.546L116.247 89.436 144.642 89.436 145.085 91.546zM118.184 96.78L117.742 94.67 149.566 94.67 150.008 96.78zM119.68 102.015L119.238 99.905 144.864 99.905 145.306 102.015z" transform="translate(0 1) translate(0 25.877)"/>
            <path fill="#FFAF12" d="M114.134 110.509L113.691 108.399 123.939 108.399 124.381 110.509z" transform="translate(0 1) translate(0 25.877)"/>
            <path fill="#ECECEC" d="M121.611 115.742L121.169 113.632 133.654 113.632 134.096 115.742zM137.087 115.742L136.645 113.632 149.13 113.632 149.572 115.742zM123.107 120.977L122.664 118.867 164.866 118.867 165.308 120.977zM124.602 126.211L124.16 124.101 156.336 124.101 156.779 126.211z" transform="translate(0 1) translate(0 25.877)"/>
            <path fill="#1A2E35" d="M222.41 139.86H116.047c-2.902 0-4.779 1.648-4.17 3.663h116.916c-.608-2.014-3.48-3.662-6.381-3.662" transform="translate(0 1) translate(0 25.877)"/>
            <path fill="#FFAF12" d="M110.458 15.849L93.12 15.849 92.731 13.983 110.069 13.983z" transform="translate(0 1) translate(0 25.877)"/>
            <path fill="#F7E8C8" d="M107.638 18.823L100.679 18.823 100.29 16.958 107.249 16.958zM119.219 18.823L108.496 18.823 108.107 16.958 118.83 16.958zM123.893 21.798L101.299 21.798 100.91 19.933 123.504 19.933zM121.018 24.774L101.919 24.774 101.53 22.908 120.629 22.908zM133.688 56.387L121.531 56.387 121.919 58.253 134.077 58.253z" transform="translate(0 1) translate(0 25.877)"/>
            <path fill="#FFAF12" d="M118.527 52.303L100.72 52.303 100.331 50.438 118.138 50.438z" transform="translate(0 1) translate(0 25.877)"/>
            <path fill="#F7E8C8" d="M125.692 59.362L109.13 59.362 109.519 61.227 126.082 61.227zM120.668 56.387L108.511 56.387 108.899 58.253 121.057 58.253zM132.205 53.412L107.89 53.412 108.279 55.278 132.594 55.278z" transform="translate(0 1) translate(0 25.877)"/>
            <path fill="#FFAF12" d="M109.851 1.971L90.227 1.971 89.838 0.106 109.462 0.106z" transform="translate(0 1) translate(0 25.877)"/>
            <path fill="#F7E8C8" d="M119.535 9.029L97.9 9.029 98.289 10.895 119.924 10.895zM115.206 6.055L97.28 6.055 97.669 7.921 115.595 7.921zM116.403 3.08L96.66 3.08 97.049 4.945 116.792 4.945z" transform="translate(0 1) translate(0 25.877)"/>
            <path fill="#FFAF12" d="M109.624 29.613L95.989 29.613 95.601 27.748 109.235 27.748z" transform="translate(0 1) translate(0 25.877)"/>
            <path fill="#F7E8C8" d="M131.045 36.672L104.4 36.672 104.789 38.538 131.434 38.538zM114.818 33.697L103.779 33.697 104.168 35.563 115.207 35.563zM126.798 33.697L115.759 33.697 116.148 35.563 127.187 35.563zM127.475 30.723L103.16 30.723 103.549 32.588 127.864 32.588zM127.428 45.597L106.261 45.597 106.65 47.463 127.817 47.463zM111.795 42.622L105.64 42.622 106.029 44.487 112.184 44.487zM121.429 42.622L112.643 42.622 113.032 44.487 121.818 44.487zM129.335 39.648L105.02 39.648 105.409 41.513 129.724 41.513zM148.494 39.15L139.78 39.15 139.392 37.284 148.105 37.284zM162.992 39.15L149.568 39.15 149.179 37.284 162.603 37.284zM168.688 42.124L140.401 42.124 140.012 40.258 168.299 40.258zM164.932 45.099L141.021 45.099 140.632 43.234 164.543 43.234zM175.638 27.314L148.551 27.314 148.94 29.179 176.027 29.179zM170.374 24.338L147.931 24.338 148.32 26.204 170.763 26.204z" transform="translate(0 1) translate(0 25.877)"/>
            <path fill="#FFAF12" d="M166.316 21.363L141.598 21.363 141.987 23.229 166.705 23.229z" transform="translate(0 1) translate(0 25.877)"/>
            <path fill="#F7E8C8" d="M176.861 56.998L143.502 56.998 143.891 58.863 177.25 58.863zM156.702 54.024L142.881 54.024 143.27 55.889 157.09 55.889zM171.7 54.024L157.88 54.024 158.269 55.889 172.089 55.889zM172.703 51.048L142.261 51.048 142.65 52.914 173.092 52.914zM171.863 65.923L145.362 65.923 145.751 67.788 172.252 67.788zM152.448 62.947L144.742 62.947 145.131 64.813 152.837 64.813zM164.509 62.947L153.509 62.947 153.898 64.813 164.898 64.813zM174.564 59.973L144.122 59.973 144.511 61.839 174.953 61.839zM93.488 68.23L72.753 68.23 73.142 70.096 93.877 70.096zM87.354 65.255L72.133 65.255 72.522 67.121 87.743 67.121zM103.654 65.255L88.433 65.255 88.822 67.121 104.043 67.121zM101.954 62.28L71.512 62.28 71.901 64.145 102.343 64.145zM334.84 124.101L322.002 124.101 323.498 143.524 333.344 143.524z" transform="translate(0 1) translate(0 25.877)"/>
            <path fill="#7F786A" d="M334.84 124.101L322.002 124.101 323.498 143.524 333.344 143.524zM55.023 110.612L73.481 110.612 67.18 143.524 48.722 143.524z" transform="translate(0 1) translate(0 25.877)"/>
            <path fill="#FFAF12" d="M78.532 101.789L52.46 101.789 59.757 143.523 85.829 143.523z" transform="translate(0 1) translate(0 25.877)"/>
            <path fill="#F7E8C8" d="M50.918 101.789L52.46 101.789 59.757 143.523 58.215 143.523z" transform="translate(0 1) translate(0 25.877)"/>
            <path fill="#E38601" d="M50.918 101.789L52.46 101.789 59.757 143.523 58.215 143.523z" transform="translate(0 1) translate(0 25.877)"/>
            <path fill="#FFF" d="M63.505 139.063L57.768 106.25 74.784 106.25 80.52 139.063z" transform="translate(0 1) translate(0 25.877)"/>
            <path fill="#E38601" d="M79.713 139.063L73.976 106.25 74.784 106.25 80.521 139.063z" transform="translate(0 1) translate(0 25.877)"/>
            <path fill="#57575E" d="M207.659 48.401c.37.802.246 1.648-.278 1.891-.524.242-1.249-.21-1.62-1.013-.37-.8-.246-1.648.278-1.89s1.249.211 1.62 1.012" transform="translate(0 1) translate(0 25.877)"/>
            <path fill="#FFC581" d="M207.979 50.016s.316 5.466-.658 8.625c2.03.667 4.16-1.053 4.16-1.053l-3.502-7.572z" transform="translate(0 1) translate(0 25.877)"/>
            <path fill="#57575E" d="M207.756 41.832c-.082.065-.184.107-.297.113-2.285.128-3.252 1.726-3.292 1.794-.145.246-.462.33-.708.187-.247-.145-.332-.459-.19-.706.051-.088 1.268-2.15 4.132-2.31.286-.015.531.203.547.49.01.172-.067.33-.192.432" transform="translate(0 1) translate(0 25.877)"/>
            <path fill="#FFC581" d="M237.11 47.194c3.09 10.704 6.535 19.022 10.753 23.742 0 0 .076 8.414-14.258 12.415-15.76 4.4-9.716-5.72-9.716-5.72 8.028-4.457 7.237-11.177 1.218-13.734l12.002-16.703z" transform="translate(0 1) translate(0 25.877)"/>
            <path fill="#57575E" d="M251.203 68.89c-.285-3.915-.649-8.374-3.065-8.487-2.659-.124-18.055 6.755-21.346 11.606-3.29 4.852 3.134 9.6 3.134 9.6l21.277-12.718z" transform="translate(0 1) translate(0 25.877)"/>
            <path fill="#FFC581" d="M219.676 129.446l-13.299-.439.237 11.14s11.604-1.195 12.115-4.244l.947-6.457z" transform="translate(0 1) translate(0 25.877)"/>
            <path fill="#FFC581" d="M199.348 134.473L197.953 140.169 206.614 140.147 206.378 129.007z" transform="translate(0 1) translate(0 25.877)"/>
            <path fill="#F7E8C8" d="M273.061 83.148l-.277 2.858c-.09.919-.219 1.825-.335 2.733-.234 1.815-.52 3.618-.83 5.42-.604 3.609-1.384 7.197-2.276 10.809-.937 3.599-1.968 7.228-3.324 10.873-.69 1.829-1.408 3.659-2.274 5.522-.858 1.864-1.789 3.734-3.002 5.649-.277.47-.615.96-.94 1.442-.32.48-.656.962-1.045 1.457-.385.493-.722.966-1.177 1.47l-.652.74c-.212.24-.429.484-.74.776-2.32 2.283-4.697 3.659-6.926 4.656-4.46 1.96-8.507 2.708-12.43 3.148-1.954.232-3.88.322-5.779.364-1.897.054-3.772.012-5.63-.094-1.859-.084-3.703-.265-5.536-.478-1.856-.23-3.606-.511-5.554-.903l.321-10.448c6.42-1.275 13.142-2.586 18.902-4.506 1.444-.465 2.815-1.002 4.061-1.561 1.25-.542 2.377-1.144 3.222-1.742.84-.6 1.388-1.178 1.454-1.42l.296-.46c.118-.15.245-.41.373-.617.13-.202.26-.451.39-.711.131-.256.267-.493.394-.79 1.048-2.221 2.071-5.013 2.89-7.932.817-2.942 1.595-6.016 2.214-9.176.68-3.143 1.218-6.368 1.77-9.6l.76-4.86.683-4.731 20.997 2.112z" transform="translate(0 1) translate(0 25.877)"/>
            <path fill="#E38601" d="M273.061 83.148l-.277 2.858c-.09.919-.219 1.825-.335 2.733-.234 1.815-.52 3.618-.83 5.42-.604 3.609-1.384 7.197-2.276 10.809-.937 3.599-1.968 7.228-3.324 10.873-.69 1.829-1.408 3.659-2.274 5.522-.858 1.864-1.789 3.734-3.002 5.649-.277.47-.615.96-.94 1.442-.32.48-.656.962-1.045 1.457-.385.493-.722.966-1.177 1.47l-.652.74c-.212.24-.429.484-.74.776-2.32 2.283-4.697 3.659-6.926 4.656-4.46 1.96-8.507 2.708-12.43 3.148-1.954.232-3.88.322-5.779.364-1.897.054-3.772.012-5.63-.094-1.859-.084-3.703-.265-5.536-.478-1.856-.23-3.606-.511-5.554-.903l.321-10.448c6.42-1.275 13.142-2.586 18.902-4.506 1.444-.465 2.815-1.002 4.061-1.561 1.25-.542 2.377-1.144 3.222-1.742.84-.6 1.388-1.178 1.454-1.42l.296-.46c.118-.15.245-.41.373-.617.13-.202.26-.451.39-.711.131-.256.267-.493.394-.79 1.048-2.221 2.071-5.013 2.89-7.932.817-2.942 1.595-6.016 2.214-9.176.68-3.143 1.218-6.368 1.77-9.6l.76-4.86.683-4.731 20.997 2.112z" transform="translate(0 1) translate(0 25.877)"/>
            <path fill="#FFAF12" d="M214.012 96.396c3.22 13.382 7.38 35.816 8.331 65.147h58.554c.325-7.238-.899-47.962-6.792-77.46-2.24-11.213-13.242-18.467-24.4-15.961-.094.02-.187.042-.28.063-7.304 1.664-17.8 4.347-23.975 6.693l-.25.096c-8.58 3.296-13.338 12.487-11.188 21.422" transform="translate(0 1) translate(0 25.877)"/>
            <path fill="#E38601" d="M217.818 115.142c.464 2.807.928 5.782 1.361 8.905 4.79-5.001 6.31-20.321 6.31-20.321l-7.67 11.416z" transform="translate(0 1) translate(0 25.877)"/>
            <path fill="#FFC581" d="M169.178 130.166l-13.248-1.242-.438 11.133s6.824 2.243 12.35-3.504l1.336-6.387zM149.572 132.21L145.306 139.86 155.492 140.057 155.93 128.924z" transform="translate(0 1) translate(0 25.877)"/>
            <path fill="#FFAF12" d="M235.983 91.305c-.923 1.757-1.74 3.3-2.66 4.903-.901 1.583-1.806 3.16-2.755 4.71-1.876 3.116-3.833 6.184-5.888 9.21-4.113 6.056-8.529 11.97-13.71 17.644-2.577 2.85-5.401 5.613-8.691 8.262-.393.334-.852.66-1.279.986-.444.33-.808.63-1.456 1.034-.585.389-1.172.739-1.758 1.05-.593.334-1.174.612-1.767.875-2.364 1.035-4.668 1.67-6.882 2.089-4.444.783-8.572.72-12.523.282-1.974-.264-3.903-.565-5.797-1.032-.948-.218-1.887-.466-2.82-.752-.96-.275-1.807-.591-2.882-.965l1.656-10.321c6.278-.853 13.067-1.945 17.747-4.06 1.167-.498 2.173-1.08 2.912-1.675.371-.29.713-.557.945-.834.077-.09.38-.36.619-.58.248-.232.494-.43.745-.69 2.006-1.946 4.03-4.275 6.008-6.75 3.941-4.981 7.674-10.513 11.27-16.163 1.8-2.828 3.555-5.71 5.302-8.596l2.584-4.348 2.49-4.264 18.59 9.985z" transform="translate(0 1) translate(0 25.877)"/>
            <path fill="#FFC581" d="M219.913 300.042L208.965 300.042 203.463 274.69 214.411 274.69z" transform="translate(0 1) translate(0 25.877)"/>
            <path fill="#57575E" d="M208.357 297.695h12.3c.446 0 .834.312.931.748l2.162 9.732c.226 1.008-.569 1.964-1.601 1.947-4.294-.075-6.38-.327-11.79-.327-3.327 0-7.597.345-12.192.345-4.494 0-5.196-4.542-3.315-4.954 8.435-1.844 9.028-4.39 11.728-6.817.487-.439 1.122-.674 1.777-.674" transform="translate(0 1) translate(0 25.877)"/>
            <path fill="#FFC581" d="M233.603 34.339c3.948 10.122 6.774 15.846 4.14 23.196-3.963 11.059-18.197 12.171-25.09 3.433-6.204-7.866-11.62-23.098-3.797-31.471 7.707-8.25 20.799-5.28 24.747 4.842" transform="translate(0 1) translate(0 25.877)"/>
            <path fill="#57575E" d="M214.378 49.5c-1.644 2.203-2.897 3.868-2.897 3.868s-3.37-8.37-2.08-12.207c-1.642-3.25-4.95 1.54-6.2-4.792-1.25-6.33 4.154-13.13 6.2-14.538.288.47.273 2.272.273 2.272s8.09-7.21 19.608-6.199c-.79.791-1.099 2.946-1.099 2.946s11.87 2.037 14.567 8.72c-1.7-.822-2.99-1.056-2.99-1.056s3.4 4.22 2.403 10.727c-.996 6.507-1.465 13.694-1.348 16.53.117 2.838-7.679 8.266-12.427 2.462-4.748-5.802-14.01-8.734-14.01-8.734" transform="translate(0 1) translate(0 25.877)"/>
            <path fill="#FFC581" d="M219.333 47.32c.685 2.477.34 5.145-.505 7.102-1.27 2.944-3.877 2.274-5.174-.338-1.168-2.353-1.914-6.718.156-8.81 2.038-2.06 4.74-.787 5.523 2.045" transform="translate(0 1) translate(0 25.877)"/>
            <path fill="#F7E8C8" d="M239.892 161.543s-50.839 18.432-52.338 42.827c-2.76 44.93 15.618 80.501 15.618 80.501l16.84-1.8s-2.994-14.46-5.232-55.165c-2.81-51.145 83.994 1.2 66.117-66.363h-41.005z" transform="translate(0 1) translate(0 25.877)"/>
            <path fill="#A29C8F" d="M239.892 161.543s-50.839 18.432-52.338 42.827c-2.76 44.93 15.618 80.501 15.618 80.501l16.84-1.8s-2.994-14.46-5.232-55.165c-2.81-51.145 83.994 1.2 66.117-66.363h-41.005z" transform="translate(0 1) translate(0 25.877)"/>
            <path fill="#7F786A" d="M198.507 278.671c-.08.008 2.68 7.475 2.68 7.475l21.027-2.058-1.056-6.802-22.65 1.385z" transform="translate(0 1) translate(0 25.877)"/>
            <path fill="#FFC581" d="M172.619 301.283L161.672 301.283 158.473 275.931 169.421 275.931z" transform="translate(0 1) translate(0 25.877)"/>
            <path fill="#57575E" d="M161.585 297.692l11.955-.017c.448 0 .836.31.933.747l2.176 9.728c.226 1.008-.54 1.966-1.572 1.949-4.313-.067-10.545-.311-15.965-.303-6.338.008-7.553.355-14.985.366-4.495.006-5.748-4.536-3.868-4.95 8.562-1.885 11.296-2.09 18.69-6.664.804-.497 1.69-.854 2.636-.856" transform="translate(0 1) translate(0 25.877)"/>
            <path fill="#F7E8C8" d="M222.343 161.543s-83.308 7.39-82.409 49.226c.935 43.517 17.192 72.87 17.192 72.87h16.266s-3.083-22.575-2.537-65.419c.164-12.835 26.1-17.076 51.428-18.573 21.88-1.294 42.36-13.765 50.86-33.968l1.74-4.136h-52.54z" transform="translate(0 1) translate(0 25.877)"/>
            <path fill="#A29C8F" d="M222.343 161.543s-83.308 7.39-82.409 49.226c.935 43.517 17.192 72.87 17.192 72.87h16.266s-3.083-22.575-2.537-65.419c.164-12.835 26.1-17.076 51.428-18.573 21.88-1.294 42.36-13.765 50.86-33.968l1.74-4.136h-52.54z" transform="translate(0 1) translate(0 25.877)"/>
            <path fill="#7F786A" d="M153.322 279.264c-.074.006 2.788 7.52 2.788 7.52l19.634-1.403-1.144-6.806-21.278.689zM244.205 114.52l-10.567 40.73c-2.695 10.39-4.062 21.142-4.062 31.946v18.933c0 4.78 3.524 8.657 7.87 8.657h54.187c4.347 0 7.87-3.876 7.87-8.657v-18.933c0-10.804 1.368-21.555 4.063-31.945l9.335-35.982c1.434-5.528-2.341-11.03-7.57-11.03h-53.557c-3.516 0-6.605 2.563-7.57 6.28" transform="translate(0 1) translate(0 25.877)"/>
            <path fill="#7F786A" d="M176.817 195.065l1.774 10.1c.933 5.313 5.606 9.62 10.438 9.62h60.231c4.831 0 7.992-4.307 7.06-9.62l-1.775-10.1c-1.062-6.046-6.379-10.947-11.877-10.947H184.85c-5.498 0-9.094 4.9-8.032 10.947" transform="translate(0 1) translate(0 25.877)"/>
            <path fill="#A29C8F" d="M255.058 224.929L223.507 224.929 220.426 214.785 258.139 214.785z" transform="translate(0 1) translate(0 25.877)"/>
            <path fill="#7F786A" d="M233.645 300.341L244.919 300.341 244.919 224.929 233.645 224.929z" transform="translate(0 1) translate(0 25.877)"/>
            <path fill="#A29C8F" d="M244.919 300.341L233.645 300.341 233.645 226.74 244.919 227.887z" transform="translate(0 1) translate(0 25.877)"/>
            <path fill="#7F786A" d="M242.169 300.341L239.476 300.341 239.476 227.333 242.169 227.608z" transform="translate(0 1) translate(0 25.877)"/>
            <path fill="#7F786A" d="M265.202 311.994h-51.84c-1.386 0-1.966-1.77-.847-2.592l8.229-6.032c3.948-2.896 8.719-4.457 13.615-4.457h9.846c4.897 0 9.667 1.561 13.617 4.457l8.228 6.032c1.12.821.538 2.592-.848 2.592" transform="translate(0 1) translate(0 25.877)"/>
        </g>
    </g>
</svg>
