<svg xmlns="http://www.w3.org/2000/svg" xmlns:xlink="http://www.w3.org/1999/xlink" width="372" height="255" viewBox="0 0 372 255">
    <defs>
        <path id="prefix__a" d="M25.907 1.324c-1.44.61-2.685 1.593-3.909 2.565 2.639.66 5.004 2.357 6.475 4.648 1.47 2.288 2.029 5.145 1.533 7.82-.207 1.113-.76 2.354-1.865 2.603-1.463.327-2.574-1.256-3.233-2.602l-4.22-8.633c-.498-1.017-1.006-2.051-1.78-2.878-.773-.827-1.863-1.433-2.993-1.351-1.599.113-2.793 1.498-4.284 2.087-1.968.777-4.403-.123-5.495-1.914l-.671-1.648c-.982 1.525-.802 3.487-.728 5.301.249 6.084-1.141 12.227-3.983 17.612 1.644 3.258 5.381 4.961 8.997 5.442 2.226.296 4.472.222 6.72.149 1.406-.046 2.813-.091 4.216-.047.857.027 1.737.094 2.511.465.773.37 1.426 1.107 1.459 1.965.03.791-.469 1.527-1.112 1.99-.641.463-1.415.702-2.171.936-2.214.676-6.865.922-9.138.486-3.987-.765-9.811-5.05-10.373-6.936L3.35 42.328c.114.986.24 2.011.772 2.848.945 1.492 2.863 1.974 4.601 2.285 3.157.565 6.373.973 9.565.666 3.191-.306 6.381-1.379 8.799-3.485.898-.783 1.701-1.713 2.767-2.246 1.067-.531 2.535-.532 3.284.395.613.758.537 1.906.054 2.753-.483.847-1.296 1.452-2.115 1.981-7.23 4.664-16.999 5.078-24.598 1.042 2.95 1.926 3.695 6.154 6.625 8.111 1.652 1.105 3.75 1.3 5.735 1.193 7.074-.379 13.859-4.376 17.619-10.38.543-.865 1.119-1.85 2.242-1.934 1.116-.084 2.039.796 2.277 1.889.364 1.671-.614 3.175-1.667 4.419-5.632 6.661-14.973 9.96-23.538 8.311 1.826 1.92 3.669 3.855 5.846 5.368 2.175 1.512 4.735 2.594 7.386 2.591 3.46-.002 6.694-1.845 9.221-4.209 3.729-3.489 6.267-8.229 7.104-13.266.141-.852.246-1.739.687-2.483.441-.743 1.338-1.301 2.163-1.046.797.246 1.228 1.162 1.192 1.994-.036.833-.43 1.603-.816 2.342-2.547 4.878-2.329 10.199-5.638 14.597-3.661 4.865-10.373 5.375-10.373 5.375s4.8 6.749 16.295 5.948c2.731-.19 7.682-1.746 10.12-4.458 2.39-2.66 5.604-7.841 6.363-11.335.719-3.312.433-5.877-1.599-8.431-.201-.252-.43-.482-.67-.696-.642-.57-1.991-1.88-1.567-2.449.85-1.14 2.832-.126 3.812.904.98 1.031 1.594 2.375 2.621 3.358 1.772 1.697 4.602 2.018 6.875 1.093 2.273-.926 3.992-2.936 4.946-5.198.952-2.261 1.202-4.763 1.15-7.216-.181-8.411-3.961-16.684-10.202-22.326.763 5.398-2.193 11.123-7.035 13.626-.618.32-1.296.597-1.991.536-.693-.061-1.392-.562-1.462-1.254-.099-.969.936-1.61 1.779-2.097 4.257-2.45 7.1-7.19 7.261-12.099l-2.319-2.382C60.646 10.345 54.966 7.21 46.45 3.948c1.572 3.012 3.156 6.055 4.012 9.342.856 3.286.93 6.887-.468 9.981-.359.791-.836 1.57-1.573 2.027-.738.458-1.787.502-2.419-.092-.692-.653-.648-1.747-.552-2.695l.763-7.54c.325-3.229.61-6.686-.943-9.535-1.044-1.914-2.889-3.374-4.993-3.947-2.103-.574-4.435-.252-6.305.867 4.382 3.751 7.1 9.379 7.313 15.143.03.797.009 1.618-.302 2.351-.312.734-.973 1.366-1.768 1.431-.927.075-1.769-.639-2.16-1.484-.39-.845-.431-1.801-.498-2.729-.272-3.771-1.081-7.502-2.395-11.045-.73-1.97-1.772-4.043-3.697-4.883-.609-.265-1.263-.381-1.924-.381-.896 0-1.806.214-2.634.565m6.639 27.31c-.484-.145-.906-.451-1.271-.8-1.018-.971-1.66-2.326-1.765-3.728-.035-.469-.01-.954.171-1.388.181-.435.538-.814.993-.933.567-.149 1.177.129 1.582.554 0 0 1.193 1.516 1.551 2.145.398.697.56 1.057.798 1.824.237.768.071 1.723-.599 2.165-.26.171-.568.248-.88.248-.196 0-.393-.031-.58-.087M40 30.819s-.428-1.087-.606-1.433c-.668-1.295-.971-2.812-.55-4.208.134-.439.332-.872.663-1.189.331-.32.811-.51 1.258-.404.638.147 1.008.805 1.243 1.415.536 1.39.784 2.888.724 4.376-.018.478-.072.966-.286 1.392-.213.428-.614.788-1.089.836-.037.003-.074.005-.111.005-.507 0-.978-.352-1.246-.79m-15.854-3.228c-.597-.251-1.13-.651-1.537-1.155l-.195-.284c-.194-.245-.29-.591-.167-.879.115-.27.399-.438.688-.488.289-.049.585.001.871.061.463.098.927.224 1.331.47.403.248.741.631.842 1.094.101.461-.081.995-.492 1.229-.168.095-.354.134-.545.134-.268 0-.546-.077-.796-.182m28.968 9.807c-1.061-.351-1.615-1.591-1.543-2.707.072-1.115.624-2.135 1.163-3.114l1.178-2.226c.21-.539.425-1.088.783-1.542.359-.454.89-.808 1.468-.814 1.079-.012 1.806 1.118 2.076 2.162.673 2.606-.232 5.554-2.25 7.334-.626.552-1.437 1.007-2.245 1.007-.211 0-.423-.031-.63-.1m-5.516-4.23c-.503-.373-.663-1.057-.674-1.683-.017-.874.186-1.753.585-2.531l.244-.396c.197-.375.571-.683.995-.689.396-.005.759.254.978.584.221.329.32.723.403 1.109.133.626.231 1.269.147 1.902-.085.633-.373 1.262-.889 1.639-.28.205-.633.318-.978.318-.291 0-.577-.08-.811-.253m-17.851 5.911c-1.085-.139-2.162-1.001-2.138-2.094 0 0 .521-1.574 2.066-2.521 1.064-.654 2.29-1.125 3.515-.887.658.128 1.299.424 1.751.919.453.495.692 1.205.537 1.857-.266 1.114-1.48 1.676-2.55 2.082-.88.333-1.798.672-2.728.672-.151 0-.302-.009-.453-.028m10.376 5.026c-1.018-.105-2.188-.454-2.54-1.415-.314-.855.216-1.833.978-2.331 0 0 1.926-.779 2.515-1.138.908-.554 2.103-.701 2.978-.097.874.604 1.285 1.804.963 2.819-.293.921-1.115 1.609-2.025 1.933-.592.21-1.218.286-1.848.286-.341 0-.683-.022-1.021-.057m20.067.1c-1.411-.45-2.081-2.109-1.358-3.401l.039-.072c.285-.5.696-.929 1.183-1.24 1.67-1.071 8.976-.183 8.903 1.459-.041.876-.521 1.693-1.183 2.266-.661.573-1.491.923-2.338 1.144-.763.2-1.55.298-2.338.298-.985 0-1.97-.153-2.908-.454m-7.871 16.524c-1.125-.46-1.698-1.782-1.657-2.997.042-1.215.567-2.353 1.085-3.454 0 0 1.275-4.596 2.269-5.482.407-.362 1.039-.392 1.503-.104.462.288.755.782.986 1.275 1.173 2.494 1.232 5.487.16 8.026-.37.876-.887 1.72-1.652 2.286-.519.383-1.167.619-1.806.619-.303 0-.604-.053-.888-.169"/>
        <path id="prefix__c" d="M.624 1.516c.31.202.614.414.92.621-.078.022-.144.072-.198.131-.176-.114-.35-.233-.528-.346-.444-.283-.912.387-.468.67 5.994 3.819 11.446 8.357 16.293 13.523.46.579.92 1.159 1.361 1.755.103.139.238.169.364.139.435.493.875.981 1.3 1.485.109.13.245.156.372.128.194.241.397.475.588.719.327.415.949-.115.625-.528-2.189-2.787-4.562-5.405-7.09-7.858C10.299 7.722 5.925 3.988 1.092.846 1.017.797.941.776.869.776c-.352 0-.611.502-.245.74"/>
        <path id="prefix__f" d="M4.434.572c-1.153.021-2.231.48-3.033 1.293C.596 2.684.163 3.76.184 4.898.227 7.214 2.161 9.07 4.512 9.07l.079-.001c1.154-.021 2.23-.481 3.033-1.295.805-.817 1.238-1.894 1.217-3.032C8.798 2.427 6.864.572 4.514.572h-.08zm-2.91 4.3c-.015-.773.281-1.507.831-2.066.555-.563 1.302-.88 2.103-.893.019-.002.037-.002.056-.002 1.623 0 2.958 1.271 2.987 2.857.014.774-.281 1.508-.832 2.066-.554.562-1.301.88-2.101.895H4.51c-1.606 0-2.957-1.271-2.986-2.857z"/>
        <path id="prefix__i" d="M6.357.808C3.339.862.937 3.372.992 6.413c.055 3.039 2.545 5.459 5.563 5.404 3.018-.055 5.42-2.565 5.365-5.605C11.866 3.206 9.43.807 6.459.807l-.102.001"/>
        <path id="prefix__l" d="M3.729.479C2.046.509.707 1.909.738 3.604.768 5.3 2.157 6.65 3.84 6.618c1.683-.03 3.023-1.431 2.992-3.125C6.802 1.817 5.444.478 3.787.478l-.058.001"/>
        <path id="prefix__o" d="M0 0.02L371.113 0.02 371.113 20 0 20z"/>
        <path id="prefix__q" d="M15.787 1.63C3.914 5.617-2.51 18.377 1.437 30.132c3.949 11.754 16.773 18.05 28.645 14.061 11.873-3.987 18.298-16.748 14.35-28.503C41.289 6.331 32.515.432 23.076.431c-2.414 0-4.871.386-7.289 1.199"/>
        <path id="prefix__s" d="M24.875 68.295c-1.441-4.662-6.186-7.1-11.248-6.797-2.43.147-4.213 1.023-5.352 1.686l-4.517-6.597-2.847 1.951 12.618 18.423c.395.577 1.085.842 1.74.721.186-.035.37-.102.543-.201L145.354 3.059l-1.72-2.993L24.875 68.295z"/>
        <path id="prefix__u" d="M89.194 9.638L0.152 29.3 6.637 38.198 186.253 0.09z"/>
        <path id="prefix__w" d="M3.987 1.365C-.072 3.709-1.16 9.425 1.558 14.133c.319.553.679 1.062 1.068 1.536l5.406-.857 2.273-4.036-.829.168c-1.265.253-2.53-.579-3.051-1.914l-.576.115c-.289.059-.578-.165-.646-.502-.067-.334.113-.652.402-.712l.576-.115c-.013-.467.079-.911.239-1.311l-1.059.213c-.289.058-.579-.167-.645-.502-.068-.335.111-.654.4-.712l3.139-.631 2.093-.421c.289-.058.578.167.645.502.068.335-.112.655-.401.712l-2.093.421c-.681.137-1.155.762-1.229 1.51l3.566-.716c.288-.058.577.166.645.502.067.335-.113.654-.402.712l-3.565.717c.359.661 1.036 1.054 1.717.918l2.093-.422c.068-.013.139-.011.209.007.14.036.266.134.349.272.084.137.117.305.094.464-.011.08-.037.154-.075.22l-2.428 4.312 8.018-1.271c.567-2.407.204-5.175-1.234-7.665C14.326 2.302 10.993.365 7.77.365c-1.314 0-2.609.322-3.783 1"/>
        <path id="prefix__y" d="M8.849 1.178C3.687 3.096.684 8.701.656 15.245c-.002.421.031 1.272.031 1.272l27.118-4.296s-.519-1.252-.802-1.763C23.629 4.335 18.039.502 12.645.502c-1.287 0-2.564.219-3.796.676"/>
        <path id="prefix__A" d="M1.761 9.638c-.548.157-.984.575-1.163 1.117-.178.543-.077 1.137.27 1.592L14.162 29.67l3.882-.609-6.889-8.977c3.634-1.981 5.764-6.128 4.978-10.421-.032-.176-.077-.348-.119-.52L44.723.916 32.248.902 1.761 9.638z"/>
        <path id="prefix__C" d="M.188 1.656l4.747-.97-4.747.97z"/>
        <path id="prefix__F" d="M18.188 1.656L.669 25.193c-.335.451-.43 1.036-.255 1.57.176.533.599.947 1.136 1.112l26.454 8.067 4.985-2.086-18.36-5.601c2.006-3.809 1.34-8.632-1.94-11.737-.249-.235-.509-.45-.774-.655L23.113.819l-.178-.133-4.747.97z"/>
        <path id="prefix__H" d="M5.083 1.149C.659 3.703-.525 9.935 2.437 15.067c2.963 5.132 8.951 7.221 13.375 4.667 4.425-2.553 5.609-8.785 2.646-13.916C16.353 2.171 12.72.06 9.206.06c-1.431 0-2.842.35-4.123 1.089"/>
        <path id="prefix__J" d="M.697 6.4s.173.362.263.542c.213.425.438.848.679 1.268 5.122 8.949 14.736 13.078 21.473 9.223 5.019-2.874 7.025-9.369 5.603-16.196-.038-.18-.119-.54-.119-.54L.697 6.4z"/>
        <path id="prefix__L" d="M.277 1.313c.156-.025.31-.06.466-.094l-.466.094z"/>
        <path id="prefix__O" d="M16.811.574L5.841.767C-.546.714.224 6.852.721 13.098c0 0 1.677 17.882.256 23.927-.336 1.43 9.758 6.826 17.585 7.034 8.55.229 11.042-2.495 11.042-2.495s.841-19.358-1.977-28.014C25.315 6.445 20.564.534 17.266.534c-.155 0-.307.013-.455.04"/>
        <linearGradient id="prefix__d" x1="-241.917%" x2="6.149%" y1="-141.89%" y2="20.693%">
            <stop offset="0%" stop-color="#A8F2FF"/>
            <stop offset="100%" stop-color="#8595F9"/>
        </linearGradient>
        <linearGradient id="prefix__g" x1="99.999%" x2="-.001%" y1="49.99%" y2="49.99%">
            <stop offset="0%" stop-color="#FFB218"/>
            <stop offset="100%" stop-color="#FFCF44"/>
        </linearGradient>
        <linearGradient id="prefix__j" x1="100%" x2="-.006%" y1="50%" y2="50%">
            <stop offset="0%" stop-color="#FFB218"/>
            <stop offset="100%" stop-color="#FFCF44"/>
        </linearGradient>
        <linearGradient id="prefix__m" x1="100%" x2="-.013%" y1="50.003%" y2="50.003%">
            <stop offset="0%" stop-color="#FFB218"/>
            <stop offset="100%" stop-color="#FFCF44"/>
        </linearGradient>
        <linearGradient id="prefix__D" x1="214.447%" x2="-442.615%" y1="44.99%" y2="64.998%">
            <stop offset="0%" stop-color="#FFB218"/>
            <stop offset="100%" stop-color="#FFCF44"/>
        </linearGradient>
        <linearGradient id="prefix__M" x1="1008.496%" x2="-408.906%" y1="-582.842%" y2="352.857%">
            <stop offset="0%" stop-color="#FFB218"/>
            <stop offset="100%" stop-color="#FFCF44"/>
        </linearGradient>
    </defs>
    <g fill="none" fill-rule="evenodd">
        <g>
            <path fill="#619440" d="M66.873 68.292c-.61-2.7-2.185-11.698-4.783-12.654-2.834-1.043-6.337.296-7.753 2.963-.611 1.15-.881 2.512-2.053 3.285-.655.431-1.555.438-2.095-.13-.882-.929-.045-2.343.673-3.363 1.376-1.954 2.357-4.259 2.367-6.648.011-2.39-1.065-4.85-3.074-6.144-2.009-1.293-4.949-1.145-6.571.61-1.013 1.098-1.441 2.653-2.766 3.512-.688.445-1.591.536-2.257.057-1.344-.967-.437-3.045.475-4.419 1.287-1.942 2.418-4.054 2.756-6.359.339-2.305-.228-4.842-1.92-6.442-1.693-1.6-4.606-1.94-6.355-.4-.701.615-1.167 1.455-1.821 2.121-.784.8-2.05 1.351-3.01.503-.664-.589-.775-1.572-.445-2.396.457-1.142 1.379-1.83 2.294-2.534 1.443-1.108 2.438-2.736 2.651-4.542.635-5.398-5.338-7.477-8.705-5.107-.945.665-1.891 1.681-3.046 1.356-.911-.258-1.412-1.218-1.312-2.16.198-1.86 1.738-2.939 2.556-4.452 1.496-2.767-.184-6.72-3.214-7.565-2.318-.646-2.919 2.357-3.968 4.983-.242.604-1.129.476-1.197-.17-.271-2.573-1.122-5.785-1.773-7.556-1.196-3.25-6.059-6.819-8.383-2.14-.623 1.253-.149 4.48.653 5.374 1.135 1.263 3.836 5.604 3.836 5.604.254.497-.31 1.016-.779.714-1.065-.685-2.208-1.223-3.522-1.342-.601-.054-1.216.005-1.786.202-3.4 1.171-2.872 5.356-.7 7.362 1.805 1.667 4.332 2.238 6.722 2.808 1.239.295 2.579.67 3.195 1.875.349.683.266 1.552-.319 2.048-.676.573-1.448.253-2.192.16-2.432-.31-4.641 2.111-4.619 4.562.023 2.452 1.82 4.633 4.022 5.711 2.202 1.077 4.743 1.225 7.192 1.101 1.208-.062 2.509-.165 3.463.73.563.527.732 1.413.259 2.024-.672.87-1.927.48-2.976.421-2.916-.16-5.232 3.084-4.772 5.967.459 2.884 3.001 5.096 5.788 5.97 3.138.983 6.552.565 9.776.112.759-.106 1.538.304 1.772 1.033.326 1.011-.597 1.59-1.318 2.113-2.785 2.02-3.874 6.072-2.476 9.216 1.398 3.143 5.136 5.05 8.501 4.335 2.138-.455 4.087-1.83 6.405-1.134 1.147.346 1.973 1.443 1.753 2.622-.276 1.485-1.943 1.91-3.19 2.605-3.459 1.932-4.041 7.151-1.768 10.395 2.273 3.244 9.572 3.347 13.526 3.096 3.953-.25 12.204-.597 16.427-3.286 1.989-1.266.466-13.907-.144-16.607" transform="translate(31 111.291)"/>
            <path fill="#306B34" d="M4.144 2.5c-.623 1.254-.149 4.481.653 5.375 1.135 1.263 3.836 5.604 3.836 5.604.254.497-.31 1.016-.78.714-1.065-.685-2.207-1.223-3.52-1.342-.602-.054-1.217.005-1.787.202-3.4 1.171-2.873 5.356-.7 7.362 1.805 1.667 4.331 2.238 6.722 2.808 1.24.295 2.58.67 3.195 1.875.348.683.266 1.552-.32 2.048-.675.573-1.447.253-2.19.16-2.433-.31-4.643 2.111-4.62 4.562.023 2.452 1.82 4.633 4.022 5.711 2.202 1.077 4.743 1.225 7.192 1.101 1.208-.062 2.51-.165 3.463.73.563.527.732 1.413.26 2.024-.673.87-1.928.48-2.978.421-2.915-.16-5.23 3.084-4.77 5.967.458 2.884 3 5.096 5.786 5.97 3.14.983 6.553.565 9.777.112.76-.106 1.537.304 1.772 1.033.326 1.011-.597 1.59-1.318 2.113-2.785 2.02-3.874 6.072-2.476 9.216 1.398 3.143 5.135 5.05 8.501 4.335 2.138-.455 4.087-1.83 6.404-1.134 1.148.346 1.974 1.443 1.754 2.622-.276 1.485-1.943 1.91-3.19 2.605-3.459 1.932-7.009 9.324-4.736 12.568 2.273 3.244 12.54 1.174 16.494.923 3.688-.235 11.12-.55 15.527-2.777.317-.159.9-.509.9-.509S45.185 65.93 26.302 40.78C15.814 26.81 6.488.34 6.488.34S6.12.42 5.693.721C4.96 1.24 4.266 2.254 4.144 2.5" transform="translate(31 111.291)"/>
        </g>
        <g transform="translate(5 162.291)">
            <mask id="prefix__b" fill="#fff">
                <use xlink:href="#prefix__a"/>
            </mask>
            <path fill="#FBBF00" d="M25.907 1.324c-1.44.61-2.685 1.593-3.909 2.565 2.639.66 5.004 2.357 6.475 4.648 1.47 2.288 2.029 5.145 1.533 7.82-.207 1.113-.76 2.354-1.865 2.603-1.463.327-2.574-1.256-3.233-2.602l-4.22-8.633c-.498-1.017-1.006-2.051-1.78-2.878-.773-.827-1.863-1.433-2.993-1.351-1.599.113-2.793 1.498-4.284 2.087-1.968.777-4.403-.123-5.495-1.914l-.671-1.648c-.982 1.525-.802 3.487-.728 5.301.249 6.084-1.141 12.227-3.983 17.612 1.644 3.258 5.381 4.961 8.997 5.442 2.226.296 4.472.222 6.72.149 1.406-.046 2.813-.091 4.216-.047.857.027 1.737.094 2.511.465.773.37 1.426 1.107 1.459 1.965.03.791-.469 1.527-1.112 1.99-.641.463-1.415.702-2.171.936-2.214.676-6.865.922-9.138.486-3.987-.765-9.811-5.05-10.373-6.936L3.35 42.328c.114.986.24 2.011.772 2.848.945 1.492 2.863 1.974 4.601 2.285 3.157.565 6.373.973 9.565.666 3.191-.306 6.381-1.379 8.799-3.485.898-.783 1.701-1.713 2.767-2.246 1.067-.531 2.535-.532 3.284.395.613.758.537 1.906.054 2.753-.483.847-1.296 1.452-2.115 1.981-7.23 4.664-16.999 5.078-24.598 1.042 2.95 1.926 3.695 6.154 6.625 8.111 1.652 1.105 3.75 1.3 5.735 1.193 7.074-.379 13.859-4.376 17.619-10.38.543-.865 1.119-1.85 2.242-1.934 1.116-.084 2.039.796 2.277 1.889.364 1.671-.614 3.175-1.667 4.419-5.632 6.661-14.973 9.96-23.538 8.311 1.826 1.92 3.669 3.855 5.846 5.368 2.175 1.512 4.735 2.594 7.386 2.591 3.46-.002 6.694-1.845 9.221-4.209 3.729-3.489 6.267-8.229 7.104-13.266.141-.852.246-1.739.687-2.483.441-.743 1.338-1.301 2.163-1.046.797.246 1.228 1.162 1.192 1.994-.036.833-.43 1.603-.816 2.342-2.547 4.878-2.329 10.199-5.638 14.597-3.661 4.865-10.373 5.375-10.373 5.375s4.8 6.749 16.295 5.948c2.731-.19 7.682-1.746 10.12-4.458 2.39-2.66 5.604-7.841 6.363-11.335.719-3.312.433-5.877-1.599-8.431-.201-.252-.43-.482-.67-.696-.642-.57-1.991-1.88-1.567-2.449.85-1.14 2.832-.126 3.812.904.98 1.031 1.594 2.375 2.621 3.358 1.772 1.697 4.602 2.018 6.875 1.093 2.273-.926 3.992-2.936 4.946-5.198.952-2.261 1.202-4.763 1.15-7.216-.181-8.411-3.961-16.684-10.202-22.326.763 5.398-2.193 11.123-7.035 13.626-.618.32-1.296.597-1.991.536-.693-.061-1.392-.562-1.462-1.254-.099-.969.936-1.61 1.779-2.097 4.257-2.45 7.1-7.19 7.261-12.099l-2.319-2.382C60.646 10.345 54.966 7.21 46.45 3.948c1.572 3.012 3.156 6.055 4.012 9.342.856 3.286.93 6.887-.468 9.981-.359.791-.836 1.57-1.573 2.027-.738.458-1.787.502-2.419-.092-.692-.653-.648-1.747-.552-2.695l.763-7.54c.325-3.229.61-6.686-.943-9.535-1.044-1.914-2.889-3.374-4.993-3.947-2.103-.574-4.435-.252-6.305.867 4.382 3.751 7.1 9.379 7.313 15.143.03.797.009 1.618-.302 2.351-.312.734-.973 1.366-1.768 1.431-.927.075-1.769-.639-2.16-1.484-.39-.845-.431-1.801-.498-2.729-.272-3.771-1.081-7.502-2.395-11.045-.73-1.97-1.772-4.043-3.697-4.883-.609-.265-1.263-.381-1.924-.381-.896 0-1.806.214-2.634.565m6.639 27.31c-.484-.145-.906-.451-1.271-.8-1.018-.971-1.66-2.326-1.765-3.728-.035-.469-.01-.954.171-1.388.181-.435.538-.814.993-.933.567-.149 1.177.129 1.582.554 0 0 1.193 1.516 1.551 2.145.398.697.56 1.057.798 1.824.237.768.071 1.723-.599 2.165-.26.171-.568.248-.88.248-.196 0-.393-.031-.58-.087M40 30.819s-.428-1.087-.606-1.433c-.668-1.295-.971-2.812-.55-4.208.134-.439.332-.872.663-1.189.331-.32.811-.51 1.258-.404.638.147 1.008.805 1.243 1.415.536 1.39.784 2.888.724 4.376-.018.478-.072.966-.286 1.392-.213.428-.614.788-1.089.836-.037.003-.074.005-.111.005-.507 0-.978-.352-1.246-.79m-15.854-3.228c-.597-.251-1.13-.651-1.537-1.155l-.195-.284c-.194-.245-.29-.591-.167-.879.115-.27.399-.438.688-.488.289-.049.585.001.871.061.463.098.927.224 1.331.47.403.248.741.631.842 1.094.101.461-.081.995-.492 1.229-.168.095-.354.134-.545.134-.268 0-.546-.077-.796-.182m28.968 9.807c-1.061-.351-1.615-1.591-1.543-2.707.072-1.115.624-2.135 1.163-3.114l1.178-2.226c.21-.539.425-1.088.783-1.542.359-.454.89-.808 1.468-.814 1.079-.012 1.806 1.118 2.076 2.162.673 2.606-.232 5.554-2.25 7.334-.626.552-1.437 1.007-2.245 1.007-.211 0-.423-.031-.63-.1m-5.516-4.23c-.503-.373-.663-1.057-.674-1.683-.017-.874.186-1.753.585-2.531l.244-.396c.197-.375.571-.683.995-.689.396-.005.759.254.978.584.221.329.32.723.403 1.109.133.626.231 1.269.147 1.902-.085.633-.373 1.262-.889 1.639-.28.205-.633.318-.978.318-.291 0-.577-.08-.811-.253m-17.851 5.911c-1.085-.139-2.162-1.001-2.138-2.094 0 0 .521-1.574 2.066-2.521 1.064-.654 2.29-1.125 3.515-.887.658.128 1.299.424 1.751.919.453.495.692 1.205.537 1.857-.266 1.114-1.48 1.676-2.55 2.082-.88.333-1.798.672-2.728.672-.151 0-.302-.009-.453-.028m10.376 5.026c-1.018-.105-2.188-.454-2.54-1.415-.314-.855.216-1.833.978-2.331 0 0 1.926-.779 2.515-1.138.908-.554 2.103-.701 2.978-.097.874.604 1.285 1.804.963 2.819-.293.921-1.115 1.609-2.025 1.933-.592.21-1.218.286-1.848.286-.341 0-.683-.022-1.021-.057m20.067.1c-1.411-.45-2.081-2.109-1.358-3.401l.039-.072c.285-.5.696-.929 1.183-1.24 1.67-1.071 8.976-.183 8.903 1.459-.041.876-.521 1.693-1.183 2.266-.661.573-1.491.923-2.338 1.144-.763.2-1.55.298-2.338.298-.985 0-1.97-.153-2.908-.454m-7.871 16.524c-1.125-.46-1.698-1.782-1.657-2.997.042-1.215.567-2.353 1.085-3.454 0 0 1.275-4.596 2.269-5.482.407-.362 1.039-.392 1.503-.104.462.288.755.782.986 1.275 1.173 2.494 1.232 5.487.16 8.026-.37.876-.887 1.72-1.652 2.286-.519.383-1.167.619-1.806.619-.303 0-.604-.053-.888-.169" mask="url(#prefix__b)"/>
        </g>
        <g transform="translate(62 208.291)">
            <mask id="prefix__e" fill="#fff">
                <use xlink:href="#prefix__c"/>
            </mask>
            <path fill="url(#prefix__d)" d="M.624 1.516c.31.202.614.414.92.621-.078.022-.144.072-.198.131-.176-.114-.35-.233-.528-.346-.444-.283-.912.387-.468.67 5.994 3.819 11.446 8.357 16.293 13.523.46.579.92 1.159 1.361 1.755.103.139.238.169.364.139.435.493.875.981 1.3 1.485.109.13.245.156.372.128.194.241.397.475.588.719.327.415.949-.115.625-.528-2.189-2.787-4.562-5.405-7.09-7.858C10.299 7.722 5.925 3.988 1.092.846 1.017.797.941.776.869.776c-.352 0-.611.502-.245.74" mask="url(#prefix__e)"/>
        </g>
        <path fill="#306B34" d="M30.826 155.593c-.126.987.14 1.96.75 2.739 1.26 1.61 3.615 1.88 5.248.605.805-.625 1.297-1.507 1.423-2.497.126-.988-.141-1.96-.751-2.74-1.261-1.61-3.615-1.88-5.247-.603l-.044.035c-.766.617-1.255 1.489-1.38 2.46m6.924 4.527c-2.284 1.787-5.583 1.4-7.355-.861-.86-1.097-1.235-2.466-1.058-3.854.177-1.386.88-2.631 1.988-3.491 2.284-1.787 5.583-1.4 7.355.862.859 1.097 1.235 2.465 1.058 3.855-.173 1.359-.857 2.579-1.927 3.442l-.061.047"/>
        <g transform="translate(45 107.291)">
            <mask id="prefix__h" fill="#fff">
                <use xlink:href="#prefix__f"/>
            </mask>
            <path fill="url(#prefix__g)" d="M4.434.572c-1.153.021-2.231.48-3.033 1.293C.596 2.684.163 3.76.184 4.898.227 7.214 2.161 9.07 4.512 9.07l.079-.001c1.154-.021 2.23-.481 3.033-1.295.805-.817 1.238-1.894 1.217-3.032C8.798 2.427 6.864.572 4.514.572h-.08zm-2.91 4.3c-.015-.773.281-1.507.831-2.066.555-.563 1.302-.88 2.103-.893.019-.002.037-.002.056-.002 1.623 0 2.958 1.271 2.987 2.857.014.774-.281 1.508-.832 2.066-.554.562-1.301.88-2.101.895H4.51c-1.606 0-2.957-1.271-2.986-2.857z" mask="url(#prefix__h)"/>
        </g>
        <g transform="translate(56 116.291)">
            <mask id="prefix__k" fill="#fff">
                <use xlink:href="#prefix__i"/>
            </mask>
            <path fill="url(#prefix__j)" d="M6.357.808C3.339.862.937 3.372.992 6.413c.055 3.039 2.545 5.459 5.563 5.404 3.018-.055 5.42-2.565 5.365-5.605C11.866 3.206 9.43.807 6.459.807l-.102.001" mask="url(#prefix__k)"/>
        </g>
        <g transform="translate(23 146.291)">
            <mask id="prefix__n" fill="#fff">
                <use xlink:href="#prefix__l"/>
            </mask>
            <path fill="url(#prefix__m)" d="M3.729.479C2.046.509.707 1.909.738 3.604.768 5.3 2.157 6.65 3.84 6.618c1.683-.03 3.023-1.431 2.992-3.125C6.802 1.817 5.444.478 3.787.478l-.058.001" mask="url(#prefix__n)"/>
        </g>
        <g>
            <g transform="translate(0 80.291) translate(0 153)">
                <mask id="prefix__p" fill="#fff">
                    <use xlink:href="#prefix__o"/>
                </mask>
                <path fill="#F7E8C8" d="M371.113 10.01c0-5.518-83.076-9.99-185.556-9.99C83.077.02 0 4.492 0 10.01S83.077 20 185.557 20c102.48 0 185.556-4.472 185.556-9.99" mask="url(#prefix__p)"/>
            </g>
            <path fill="#FFA087" d="M152.49 5.068l.093.012c.398.05.79-.252.874-.675l.46-2.286-.816-.104-.612 3.053z" transform="translate(0 80.291)"/>
            <path fill="#FFBF4D" d="M112.814 38.02c4.98 14.829 21.16 22.77 36.138 17.74 14.978-5.03 23.083-21.13 18.103-35.958-4.98-14.828-21.16-22.77-36.138-17.74-14.978 5.03-23.083 21.13-18.103 35.958" transform="translate(0 80.291)"/>
            <path fill="#FEBF00" d="M117.157 36.562c4.183 12.454 17.771 19.125 30.351 14.899 12.58-4.224 19.387-17.746 15.205-30.2-4.183-12.454-17.772-19.125-30.352-14.9-12.579 4.225-19.387 17.747-15.204 30.2" transform="translate(0 80.291)"/>
        </g>
        <g transform="translate(117 86.291)">
            <mask id="prefix__r" fill="#fff">
                <use xlink:href="#prefix__q"/>
            </mask>
            <path fill="#FFAF12" d="M15.787 1.63C3.914 5.617-2.51 18.377 1.437 30.132c3.949 11.754 16.773 18.05 28.645 14.061 11.873-3.987 18.298-16.748 14.35-28.503C41.289 6.331 32.515.432 23.076.431c-2.414 0-4.871.386-7.289 1.199" mask="url(#prefix__r)"/>
        </g>
        <g fill="#FFDE8E">
            <path d="M16.81 3.703c.79-.266 1.18-1.226.872-2.142-.308-.916-1.2-1.444-1.99-1.178L7.11 3.27 1.39 5.195C.599 5.461.208 6.42.516 7.337c.308.916 1.2 1.444 1.99 1.178l5.72-1.925c1.863-.626 3.904.235 5.145 1.965l-9.75 3.28c-.788.265-1.18 1.224-.872 2.14.31.917 1.2 1.445 1.99 1.18l9.75-3.28c.056 2.127-1.05 4.048-2.912 4.674l-5.721 1.925c-.186.063-.357.168-.505.31-.292.287-.463.703-.473 1.16-.008.454.146.912.428 1.27.14.18.308.327.494.435l15.906 9.426c.39.232.811.271 1.178.148.366-.124.677-.41.85-.826.34-.835-.015-1.887-.79-2.347l-12.518-7.418 2.268-.763c3.457-1.163 5.382-4.989 4.772-8.997l1.578-.53c.788-.266 1.18-1.225.872-2.14-.308-.917-1.2-1.445-1.99-1.18l-1.575.531c-.631-1.163-1.481-2.119-2.44-2.875l2.899-.975zM25.804 128.256L42.462 151.916 189.252 65.09z" transform="translate(127 92.291)"/>
            <path d="M36.675 131.88c.198.45.868 1.664 1.496 2.744l5.527 9.384 8.528-5.566c.646-.42 1.395-.948 1.609-1.155-.963-4.76-5.545-7.84-11.191-7.502-2.81.17-4.748 1.351-5.79 1.985-.062.04-.122.076-.18.11zm6.834 12.938l-5.834-9.903c-1.7-2.924-1.65-3.11-1.617-3.236l.03-.115.11-.069c.104-.06.224-.135.358-.216 1.085-.659 3.104-1.886 6.054-2.068 5.987-.359 10.844 2.963 11.812 8.081.037.195.068.363-1.882 1.633l-9.031 5.893z" transform="translate(127 92.291)"/>
        </g>
        <g transform="translate(156 160.291)">
            <mask id="prefix__t" fill="#fff">
                <use xlink:href="#prefix__s"/>
            </mask>
            <path fill="#FFAF12" d="M24.875 68.295c-1.441-4.662-6.186-7.1-11.248-6.797-2.43.147-4.213 1.023-5.352 1.686l-4.517-6.597-2.847 1.951 12.618 18.423c.395.577 1.085.842 1.74.721.186-.035.37-.102.543-.201L145.354 3.059l-1.72-2.993L24.875 68.295z" mask="url(#prefix__t)"/>
        </g>
        <g transform="translate(130 157.291)">
            <mask id="prefix__v" fill="#fff">
                <use xlink:href="#prefix__u"/>
            </mask>
            <path fill="#FFAF12" d="M89.194 9.638L0.152 29.3 6.637 38.198 186.253 0.09z" mask="url(#prefix__v)"/>
        </g>
        <g fill="#FFDE8E">
            <path d="M.273 9.111L26.83.888l11.417.013L7.762 9.638c-.55.159-.985.576-1.163 1.118-.18.543-.078 1.137.269 1.591l13.295 17.325-4.011.628L.272 9.111z" transform="translate(114 156.291)"/>
            <path d="M22.133 9.663c-.032-.177-.077-.349-.119-.52L50.724.915l151.528.174L24.044 29.06l-6.889-8.976c3.634-1.98 5.764-6.128 4.978-10.42" transform="translate(114 156.291)"/>
        </g>
        <g transform="translate(157 166.291)">
            <mask id="prefix__x" fill="#fff">
                <use xlink:href="#prefix__w"/>
            </mask>
            <path fill="#FFAF12" d="M3.987 1.365C-.072 3.709-1.16 9.425 1.558 14.133c.319.553.679 1.062 1.068 1.536l5.406-.857 2.273-4.036-.829.168c-1.265.253-2.53-.579-3.051-1.914l-.576.115c-.289.059-.578-.165-.646-.502-.067-.334.113-.652.402-.712l.576-.115c-.013-.467.079-.911.239-1.311l-1.059.213c-.289.058-.579-.167-.645-.502-.068-.335.111-.654.4-.712l3.139-.631 2.093-.421c.289-.058.578.167.645.502.068.335-.112.655-.401.712l-2.093.421c-.681.137-1.155.762-1.229 1.51l3.566-.716c.288-.058.577.166.645.502.067.335-.113.654-.402.712l-3.565.717c.359.661 1.036 1.054 1.717.918l2.093-.422c.068-.013.139-.011.209.007.14.036.266.134.349.272.084.137.117.305.094.464-.011.08-.037.154-.075.22l-2.428 4.312 8.018-1.271c.567-2.407.204-5.175-1.234-7.665C14.326 2.302 10.993.365 7.77.365c-1.314 0-2.609.322-3.783 1" mask="url(#prefix__x)"/>
        </g>
        <path fill="#FFDE8E" d="M166.475 177.234c-1.264.254-2.529-.578-3.05-1.913l-.577.115c-.289.06-.578-.166-.645-.501-.067-.335.112-.654.401-.713l.577-.115c-.013-.468.08-.91.24-1.31l-1.06.212c-.29.058-.579-.167-.646-.502-.067-.334.112-.655.401-.712l3.14-.63 2.092-.421c.288-.059.577.167.645.501.067.335-.113.654-.402.713l-2.092.42c-.68.137-1.154.762-1.229 1.51l3.566-.715c.288-.06.577.166.645.5.067.335-.113.654-.402.713l-3.565.716c.358.661 1.036 1.055 1.717.918l2.093-.42c.068-.013.14-.011.21.006.14.036.265.133.348.273.083.136.117.304.093.463-.01.08-.036.154-.074.22l-2.428 4.313-1.44.227 2.272-4.035-.83.167z"/>
        <g transform="translate(199 159.291)">
            <mask id="prefix__z" fill="#fff">
                <use xlink:href="#prefix__y"/>
            </mask>
            <path fill="#FFAF12" d="M8.849 1.178C3.687 3.096.684 8.701.656 15.245c-.002.421.031 1.272.031 1.272l27.118-4.296s-.519-1.252-.802-1.763C23.629 4.335 18.039.502 12.645.502c-1.287 0-2.564.219-3.796.676" mask="url(#prefix__z)"/>
        </g>
        <path fill="#FFDE8E" d="M120.598 167.046c.18-.542.615-.96 1.163-1.117l30.486-8.737 12.476.015-28.709 8.227c.042.172.086.343.12.52.785 4.293-1.345 8.441-4.979 10.421l6.89 8.977-3.883.61-13.294-17.324c-.348-.454-.449-1.049-.27-1.592"/>
        <g transform="translate(120 156.291)">
            <mask id="prefix__B" fill="#fff">
                <use xlink:href="#prefix__A"/>
            </mask>
            <path fill="#FFAF12" d="M1.761 9.638c-.548.157-.984.575-1.163 1.117-.178.543-.077 1.137.27 1.592L14.162 29.67l3.882-.609-6.889-8.977c3.634-1.981 5.764-6.128 4.978-10.421-.032-.176-.077-.348-.119-.52L44.723.916 32.248.902 1.761 9.638z" mask="url(#prefix__B)"/>
        </g>
        <g fill="#FFDE8E">
            <path d="M20.69 51.518c-.25-.235-.51-.45-.775-.654l11.198-15.045-.178-.133L205.252.09 40.99 68.856l-18.36-5.601c2.005-3.81 1.34-8.632-1.94-11.737" transform="translate(111 157.291)"/>
            <path d="M.05 64.736l19.753-26.777 6.384-1.303L8.67 60.194c-.335.45-.43 1.034-.255 1.569.175.534.6.948 1.136 1.111l26.454 8.068-5.97 2.5L.049 64.736z" transform="translate(111 157.291)"/>
        </g>
        <g transform="translate(137 192.291)">
            <mask id="prefix__E" fill="#fff">
                <use xlink:href="#prefix__C"/>
            </mask>
            <path fill="url(#prefix__D)" d="M.188 1.656l4.747-.97-4.747.97z" mask="url(#prefix__E)"/>
        </g>
        <path fill="#FFDE8E" d="M119.414 219.054c-.175-.534-.08-1.118.255-1.57l17.519-23.537 4.747-.97.178.133-11.198 15.045c.265.204.525.419.774.654 3.281 3.105 3.946 7.928 1.941 11.737l18.36 5.6-4.986 2.088-26.454-8.07c-.537-.163-.96-.577-1.136-1.11"/>
        <g transform="translate(119 192.291)">
            <mask id="prefix__G" fill="#fff">
                <use xlink:href="#prefix__F"/>
            </mask>
            <path fill="#FFAF12" d="M18.188 1.656L.669 25.193c-.335.451-.43 1.036-.255 1.57.176.533.599.947 1.136 1.112l26.454 8.067 4.985-2.086-18.36-5.601c2.006-3.809 1.34-8.632-1.94-11.737-.249-.235-.509-.45-.774-.655L23.113.819l-.178-.133-4.747.97z" mask="url(#prefix__G)"/>
        </g>
        <g transform="translate(160 191.291)">
            <mask id="prefix__I" fill="#fff">
                <use xlink:href="#prefix__H"/>
            </mask>
            <path fill="#FFAF12" d="M5.083 1.149C.659 3.703-.525 9.935 2.437 15.067c2.963 5.132 8.951 7.221 13.375 4.667 4.425-2.553 5.609-8.785 2.646-13.916C16.353 2.171 12.72.06 9.206.06c-1.431 0-2.842.35-4.123 1.089" mask="url(#prefix__I)"/>
        </g>
        <path fill="#FFDE8E" d="M173.755 198.847c.29.058.578-.167.645-.502.068-.335-.112-.654-.4-.712l-3.14-.631-2.092-.421c-.289-.057-.578.167-.645.502-.068.335.112.655.401.712l2.092.42c.681.138 1.155.762 1.23 1.51l-3.566-.715c-.289-.06-.578.166-.645.5-.068.337.112.655.401.714l3.565.717c-.358.66-1.036 1.054-1.717.918l-2.092-.421c-.068-.014-.14-.012-.209.006-.14.036-.267.133-.35.272-.083.137-.117.305-.093.463.011.08.036.155.074.222l3.208 5.695c.08.14.201.227.335.253.134.027.28-.006.406-.103.251-.196.33-.581.172-.858l-2.524-4.482.83.167c1.263.253 2.53-.58 3.05-1.913l.576.115c.29.058.578-.166.645-.502.068-.335-.112-.654-.4-.712l-.577-.115c.012-.468-.08-.912-.24-1.312l1.06.213z"/>
        <g transform="translate(191 176.291)">
            <mask id="prefix__K" fill="#fff">
                <use xlink:href="#prefix__J"/>
            </mask>
            <path fill="#FFAF12" d="M.697 6.4s.173.362.263.542c.213.425.438.848.679 1.268 5.122 8.949 14.736 13.078 21.473 9.223 5.019-2.874 7.025-9.369 5.603-16.196-.038-.18-.119-.54-.119-.54L.697 6.4z" mask="url(#prefix__K)"/>
        </g>
        <g transform="translate(168 184.291)">
            <mask id="prefix__N" fill="#fff">
                <use xlink:href="#prefix__L"/>
            </mask>
            <path fill="url(#prefix__M)" d="M.277 1.313c.156-.025.31-.06.466-.094l-.466.094z" mask="url(#prefix__N)"/>
        </g>
        <g>
            <path fill="#7F786A" d="M62.465 17.058s.79 12.42 5.772 26.547c3.826 10.847 5.709 17.622 11.103 23.724 0 0 4.233.273 9.397-1.96 4.523-1.956 7.335-5.05 7.335-5.05S88.335 54.039 84.751 41c-3.489-12.687-9.926-23.647-15.373-24.196-5.446-.55-6.914.253-6.914.253" transform="translate(149 3.291)"/>
            <path fill="#FFA087" d="M100.804 162.254l-.069-.017c-.568-.139-.964-.727-.882-1.312l1.077-7.753c.081-.586.608-.947 1.177-.809l.07.017c.568.14.963.728.882 1.313l-1.077 7.752c-.082.586-.609.95-1.178.81" transform="translate(149 3.291)"/>
            <path fill="#7F786A" d="M109.819 162.07c.096.382-.125.746-.493.814l-8.941 1.639c-.471.085-.937-.298-.964-.797l-.294-1.713c-.084-.488.21-.93.675-1.016 0 0 .415.698 1.285.66.703-.032.786-.66.757-1.096-.014-.21.165-.371.378-.333l7.011 1.273c.282.058.514.282.586.569M64.475 57.948C61.465 60.986 56.85 85.9 56.85 85.9l37.47 10.702 4.109 61.38 7.067.833s14.974-65.475 4.253-77.564C98.827 68.934 79.942 61.056 79.254 59.004c-2.636.796-8.784 1.75-14.779-1.056M33.388 174.426c-.108-.232-.226-.44-.355-.6-.576-.714-1.997-.266-2.813.509 0 0-6.085 4.152-5.634 5.984.479 1.945 7.295-1.503 9.125-2.56.356-.206.52-.645.402-1.081-.192-.71-.491-1.75-.725-2.252" transform="translate(149 3.291)"/>
            <path fill="#FFA087" d="M31.434 175.486l-.082-.031c-.695-.254-1.11-1.032-.931-1.739l1.77-6.954c.18-.707.887-1.073 1.58-.82l.084.03c.694.254 1.11 1.032.93 1.74l-1.77 6.955c-.18.706-.886 1.071-1.58.819" transform="translate(149 3.291)"/>
            <path fill="#FFB68E" d="M132.441 3.804L132.778 5.882 130.313 6.877 129.486 4.995z" transform="translate(149 3.291)"/>
            <path fill="#FFF0D2" d="M128.296 4.582L130.625 3.643 132.268 7.381 129.939 8.321z" transform="translate(149 3.291)"/>
            <path fill="#A29C8F" d="M52.618 55.12c-3.585 6.09-9.309 12.115-11.936 21.74-3.122 11.436-2.859 19.594-5.25 34.066-4.866 29.432-4.645 58.017-5.03 60.241l5.424 2.89s13.225-33.36 17.48-45.772c3.156-9.215 10.645-30.424 13.648-38.998 2.671-7.625 8.82-29.542 8.82-29.542s-21.202-3.43-23.156-4.625" transform="translate(149 3.291)"/>
            <path fill="#FFA087" d="M3.26 81.951s-1.578.062-2.017-.24C.908 81.48.739 80.71.858 80.338c.312-.973 1.208-2.956 2.095-3.095.423-.065 1.209.484 1.77.937.375.3.254 1.34.009 1.71L3.26 81.951z" transform="translate(149 3.291)"/>
            <path fill="#FFA087" d="M2.824 82.573c.409-.35 1.52-2.255 1.52-2.255l-.807-.533s-1.168 1.89-1.307 2.392c-.077.28.359.596.594.396" transform="translate(149 3.291)"/>
            <path fill="#FFA087" d="M1.966 82.5c.412-.349 1.524-2.253 1.524-2.253l-.82-.542s-1.17 1.89-1.308 2.393c-.076.28.368.601.604.401" transform="translate(149 3.291)"/>
            <path fill="#FFA087" d="M1.415 81.969c.394-.36 1.501-2.267 1.501-2.267l-.732-.484S1.024 81.114.876 81.61c-.082.275.313.564.54.358" transform="translate(149 3.291)"/>
            <path fill="#FFA087" d="M.968 81.345c.394-.36 1.501-2.267 1.501-2.267l-.732-.484S.577 80.49.43 80.987c-.082.275.313.565.54.358M3.675 75.906L2.824 77.75 4.742 78.829 5.775 77.283z" transform="translate(149 3.291)"/>
            <path fill="#FFF0D2" d="M7.39 75.514L5.901 78.461 2.5 76.353 3.988 73.406z" transform="translate(149 3.291)"/>
            <path fill="#FFB68E" d="M135.49 2.418s.86.84 1.07 1.735c.103.434.14 1.577.14 1.577s-2.873 1.045-3.656.485c-.373-.267-.682-1.273-.869-2.037-.125-.507.1-.99.506-1.088l2.808-.672z" transform="translate(149 3.291)"/>
            <path fill="#FFB68E" d="M134.352.956l.114.106c.334.314.387.83.117 1.154l-1.556 1.865-.72-.674 2.045-2.45zM137.952 1.505c.205.488-.008 1.021-.474 1.191l-2.357.921-.148-1.026 2.98-1.086z" transform="translate(149 3.291)"/>
            <path fill="#FFB68E" d="M137.025 3.562c.006-.333-.108-.787-.573-.612l-2.39.835.623.85s2.331-.57 2.34-1.073" transform="translate(149 3.291)"/>
            <path fill="#FFB68E" d="M137.15 4.402c-.01-.333-.144-.783-.598-.585l-2.34.96.66.82s2.292-.689 2.278-1.195" transform="translate(149 3.291)"/>
            <path fill="#FFB68E" d="M137.206 5.343c.028-.33-.056-.787-.534-.647l-2.457.654.57.889s2.379-.397 2.42-.896" transform="translate(149 3.291)"/>
            <path fill="#FFA087" d="M134.598 3.517c.167.5.756.736 1.097.635 0 0 1.018-.23 1.302-.515.134-.135.01-.688-.224-.764-.121-.04-2.175.644-2.175.644" transform="translate(149 3.291)"/>
            <path fill="#FFA087" d="M135.006 4.292c.167.5.694.754.988.666 0 0 .883-.19 1.12-.463.112-.129-.019-.68-.229-.763-.107-.042-1.879.56-1.879.56" transform="translate(149 3.291)"/>
            <path fill="#FFA087" d="M135.59 5.058c.15.449.58.689.811.62 0 0 .698-.143.878-.38.085-.11-.038-.604-.208-.683-.087-.04-1.482.443-1.482.443" transform="translate(149 3.291)"/>
            <path fill="#7F786A" d="M105.851 12.804l-4.729 13.218-25.642 3.936c-7.133 1.187-5.539-5.237-7.33-12.847l37.701-4.307z" transform="translate(149 3.291)"/>
            <path fill="#7F786A" d="M130.319 11.956c-3.15 9.416-16.046 11.883-23.615 13.286-8.447 1.566-18.78 1.654-20.522-4.14 0 0 6.87-5.855 10.355-7.386 6.983-3.07 32.153-9.959 32.153-9.959s2.756 4.832 1.629 8.2" transform="translate(149 3.291)"/>
        </g>
        <g transform="translate(199 21.291)">
            <mask id="prefix__P" fill="#fff">
                <use xlink:href="#prefix__O"/>
            </mask>
            <path fill="#FFAF12" d="M16.811.574L5.841.767C-.546.714.224 6.852.721 13.098c0 0 1.677 17.882.256 23.927-.336 1.43 9.758 6.826 17.585 7.034 8.55.229 11.042-2.495 11.042-2.495s.841-19.358-1.977-28.014C25.315 6.445 20.564.534 17.266.534c-.155 0-.307.013-.455.04" mask="url(#prefix__P)"/>
        </g>
        <g>
            <path fill="#7F786A" d="M30.543 54.712l-8.265-12.649L41.25 25.945c8.998-5.949 8.712.966 8.855 7.288l-19.563 21.48z" transform="translate(151 .291)"/>
            <path fill="#A29C8F" d="M66.025 24.78l-.094-.006c-.786-.04-1.45-.738-1.485-1.56l-.076-1.854 2.94.149.076 1.852c.034.822-.575 1.457-1.36 1.418" transform="translate(151 .291)"/>
            <path fill="#FFB68E" d="M64.07 21.55l.102.037c.801.285 1.62-.149 1.821-.965l1.036-4.223c.183-.747-.263-1.566-.996-1.828l-.527-.187c-.734-.262-1.477.133-1.66.88l-.995 4.052c-.223.91.325 1.916 1.22 2.234" transform="translate(151 .291)"/>
            <path fill="#FFA087" d="M66.928 16.812c.24-.976-.28-2.021-1.158-2.334-.88-.313-1.786.224-2.025 1.2l-.627 2.553c-.131.533 1.126.623 2.235.113.726-.334 1.439-.978 1.439-.978l.136-.554z" transform="translate(151 .291)"/>
            <path fill="#57575E" d="M71.731 2.334c-1.202-2.56-3.442.515-9.287 1.027-2.38.21-3.419 1.94-3.193 3.154-.407.144-.774.347-1.092.596-1.55 1.213-1.255 3.095-.044 4.836 1.423 2.046 5.715 3.91 5.715 3.91l5.821-1.818s-.139-2.085-.362-3.202c-.21-1.059-.826-2.034-1.65-2.706 4.601-.029 4.868-4.144 4.092-5.797" transform="translate(151 .291)"/>
            <path fill="#FFB68E" d="M62.715 11.219c-.163-2.02.929-3.711 2.88-4.046 3.175-.545 4.494 4.719 4.58 7 .096 2.534-.72 3.175-.72 3.175s-1.838.488-3.406-.056c-1.332-.461-2.494-.776-2.838-2.74-.307-1.754-.427-2.483-.496-3.333" transform="translate(151 .291)"/>
            <path fill="#FFB68E" d="M63.333 12.548c.581.747.746 1.603.37 1.91-.377.309-1.153-.048-1.734-.795-.58-.747-.746-1.602-.37-1.911.377-.308 1.153.049 1.734.796" transform="translate(151 .291)"/>
            <path fill="#57575E" d="M63.514 13.502l-.023.006c-.191.048-.397-.079-.461-.284l-1.034-3.32c-.063-.206.04-.412.23-.46l.024-.006c.19-.048.397.08.46.284l1.034 3.32c.064.206-.04.411-.23.46M62.95 7.665s5.037 1.37 6.588-.21c1.55-1.58-5.876-1.565-6.588.21" transform="translate(151 .291)"/>
            <path fill="#FFF0D2" d="M63.948 24.843L60.064 21.324 63.034 18.512 65.963 21.443z" transform="translate(151 .291)"/>
            <path fill="#FFF0D2" d="M68.219 24.545L68.674 22.473 66.255 19.627 65.613 21.22z" transform="translate(151 .291)"/>
            <path fill="#7F786A" d="M.186 72.862c-.92-10.301 9.48-21.737 15.562-26.314 2.253-1.698 6.614-4.681 8.38-5.729 3.863-2.29 8.607.736 12.538 4.54 0 0-6.901 10.962-9.355 13.911-4.917 5.91-13.726 17.703-21.654 19.949-1.852.525-5.142-2.673-5.471-6.357M61.641 19.768s3.543 18.389.204 32.254c-2.564 10.645-7.028 20.359-11.724 26.144 0 0-4.217.009-9.662-2.556-4.77-2.247-7.956-5.53-7.956-5.53s8.484-10.45 11.545-23c3.061-12.551-3.309-21.512 1.623-23.45 5.394-2.12 15.97-3.862 15.97-3.862" transform="translate(151 .291)"/>
            <path fill="#A29C8F" d="M60.208 50.163c-.57-1.704-1.087-3.418-1.61-5.13-.514-1.715-1-3.434-1.483-5.154-.95-3.444-1.86-6.894-2.712-10.356l-.002-.006c-.07-.288.084-.56.347-.623.765-.175 1.532-.339 2.299-.5l-.116.908c-.867-.682-1.74-1.357-2.598-2.052l-.021-.017c-.188-.152-.236-.425-.107-.61.009-.013.02-.027.032-.039.96-1.039 1.938-2.063 2.92-3.082 1.004-.998 1.978-2.025 3.007-2.999-.84 1.158-1.735 2.264-2.599 3.397-.886 1.113-1.776 2.221-2.682 3.315l-.098-.666c.899.635 1.783 1.291 2.672 1.94.23.167.301.486.163.712-.063.1-.155.165-.26.191l-.018.005c-.76.194-1.518.385-2.28.564l.346-.628c.914 3.45 1.771 6.91 2.59 10.38.4 1.734.797 3.471 1.168 5.213.36 1.743.728 3.485 1.042 5.237M56.972 58.322c-.084.536-.576.858-1.098.721-.522-.139-.877-.684-.792-1.221.084-.537.576-.858 1.098-.722.522.14.876.685.792 1.221M55.222 63.178c-.084.536-.576.859-1.098.72-.522-.137-.877-.684-.792-1.22.084-.536.576-.86 1.098-.721.522.138.877.685.792 1.22M58.875 52.5c-.085.536-.576.858-1.098.721-.522-.138-.877-.685-.792-1.22.084-.538.576-.86 1.098-.723.522.14.876.686.792 1.222" transform="translate(151 .291)"/>
            <path fill="#A29C8F" d="M53.1 42.766l-3.995-2.04.774-4.294s5.85-1.844 8.784-4.125c1.141-.887 3.115-2.463 4.64-4.555 1.608-2.203 2.625-4.432 2.625-4.432s.99.535.964.845c-.317 3.66-.996 8.323-3.055 11.739-3.274 5.434-10.737 6.862-10.737 6.862" transform="translate(151 .291)"/>
            <path fill="#57575E" d="M64.017 7.876c1.333.41 2.737.677 4.183.597.722-.062 1.45-.179 2.163-.554.678-.477 1.197-.949 1.612-1.64.822-1.349.84-3.132.021-4.526-.209-.327-.456-.759-1.068-.953-.47-.138-.908-.096-1.3-.025-.792.164-1.45.465-2.118.855l.091-.045c-1.61.608-3.338 1.076-5.062 1.417-.82.145-1.89.244-2.64.914-.783.657-.952 1.763-.649 2.6-.098-.89.22-1.813.93-2.23.721-.425 1.526-.466 2.464-.527 1.821-.163 3.597-.528 5.358-1.133l.03-.01.062-.035c1.022-.58 2.665-1.152 2.926-.237.593 1.006.67 2.372.085 3.445-.268.528-.748 1.066-1.17 1.427-.496.326-1.157.517-1.809.628-1.325.23-2.72.165-4.109.032" transform="translate(151 .291)"/>
        </g>
    </g>
</svg>
