<svg xmlns="http://www.w3.org/2000/svg" xmlns:xlink="http://www.w3.org/1999/xlink" width="891" height="442" viewBox="0 0 891 442"><defs/><defs><path id="a" d="M0 3s75 60 76 58c3-4 4-9 4-14-1-7-4-14-9-20-4-6-9-12-15-17a40 40 0 00-29-9L0 3"/><path id="d" d="M0 3a3 3 0 106 0 3 3 0 00-6 0"/><path id="g" d="M1 2a2 2 0 104 0 2 2 0 00-4 0"/><path id="j" d="M1 1l3-1-3 1z"/><path id="m" d="M0 1h1-1z"/><path id="p" d="M0 1h145v157H0z"/><path id="r" d="M1 0h17v13H1z"/><path id="t" d="M1 1v1l7 7a1 1 0 001-1L2 1a1 1 0 00-1 0"/><path id="w" d="M8 1L1 8a1 1 0 101 1l7-7a1 1 0 10-1-1"/><path id="z" d="M1 4L0 5h1l9-3-1-1-8 3z"/><path id="C" d="M1 4v1h1l8-3-1-1-8 3z"/><path id="F" d="M1 3v1l1 1 8-3-3-1-6 2z"/><path id="I" d="M1 4v1h1l9-3V0L1 4z"/><path id="L" d="M1 4L0 5l1 1 9-4V1L1 4z"/><path id="O" d="M1 4L0 5l1 1 8-3 1-2-9 3z"/><path id="R" d="M1 4L0 5h1l6-2 1-2-7 3z"/><path id="U" d="M1 1h1-1z"/><path id="V" d="M1 1h15v15H1z"/><linearGradient id="b" x1="7.8%" x2="95.2%" y1="56.5%" y2="44.6%"><stop offset="0%" stop-color="#FFB218"/><stop offset="100%" stop-color="#FFCF44"/></linearGradient><linearGradient id="e" x1="100%" x2="0%" y1="50%" y2="50%"><stop offset="0%" stop-color="#FFB218"/><stop offset="100%" stop-color="#FFCF44"/></linearGradient><linearGradient id="h" x1="100%" x2="0%" y1="50%" y2="50%"><stop offset="0%" stop-color="#FFB218"/><stop offset="100%" stop-color="#FFCF44"/></linearGradient><linearGradient id="k" x1="-108.8%" x2="525.7%" y1="78.8%" y2="-36.2%"><stop offset="0%" stop-color="#F9B52B"/><stop offset="100%" stop-color="#FDCD44"/></linearGradient><linearGradient id="n" x1="-741%" x2="428.6%" y1="44%" y2="52.9%"><stop offset="0%" stop-color="#F9B52B"/><stop offset="100%" stop-color="#FDCD44"/></linearGradient><linearGradient id="u" x1="0%" x2="100%" y1="50%" y2="50%"><stop offset="0%" stop-color="#FFB218"/><stop offset="100%" stop-color="#FFCF44"/></linearGradient><linearGradient id="x" x1="0%" x2="100%" y1="50%" y2="50%"><stop offset="0%" stop-color="#FFB218"/><stop offset="100%" stop-color="#FFCF44"/></linearGradient><linearGradient id="A" x1="0%" x2="100%" y1="50%" y2="50%"><stop offset="0%" stop-color="#FFB218"/><stop offset="100%" stop-color="#FFCF44"/></linearGradient><linearGradient id="D" x1="0%" x2="100%" y1="50%" y2="50%"><stop offset="0%" stop-color="#FFB218"/><stop offset="100%" stop-color="#FFCF44"/></linearGradient><linearGradient id="G" x1="0%" x2="100%" y1="50%" y2="50%"><stop offset="0%" stop-color="#FFB218"/><stop offset="100%" stop-color="#FFCF44"/></linearGradient><linearGradient id="J" x1="0%" x2="100%" y1="50%" y2="50%"><stop offset="0%" stop-color="#FFB218"/><stop offset="100%" stop-color="#FFCF44"/></linearGradient><linearGradient id="M" x1="0%" x2="100%" y1="50%" y2="50%"><stop offset="0%" stop-color="#FFB218"/><stop offset="100%" stop-color="#FFCF44"/></linearGradient><linearGradient id="P" x1="0%" x2="100%" y1="50%" y2="50%"><stop offset="0%" stop-color="#FFB218"/><stop offset="100%" stop-color="#FFCF44"/></linearGradient><linearGradient id="S" x1="0%" x2="100%" y1="50%" y2="50%"><stop offset="0%" stop-color="#FFB218"/><stop offset="100%" stop-color="#FFCF44"/></linearGradient></defs><g fill="none" fill-rule="evenodd"><path fill="#FFF4DD" fill-opacity=".6" d="M57 210c3-15 8-30 17-43 28-46 89-75 162-83a474 474 0 01182 18c23 6 46 15 69 23 52 17 106 32 161 43 33 6 68 9 99 23 50 22 83 64 89 102 3 23-3 45-19 63-19 20-51 34-85 43-46 11-98 15-147 19-80 7-165 12-247 0-40-6-78-17-115-30-54-20-107-48-139-85-25-29-33-62-27-93"/><path fill="#A4B751" d="M666 348c-2-3-9-12-8-16 2-4 7-6 11-5h5l2-2c0-2-2-2-4-2l-9-4c-2-2-3-5-3-8 1-4 4-7 7-7h6c2 0 3-1 3-2 0-2-3-3-5-3l-9-3c-3-2-5-5-4-8 0-3 2-6 5-7h4c2 0 4-1 4-3l-2-2h-5l-7-1c-6-4-2-13 3-14l5-2-1-3c-2-2-5-1-7-2-4 0-6-6-4-10 1-3 5-1 9 0l1-1c-3-2-5-6-6-8-2-5-1-13 6-11 2 0 5 3 5 5l1 9h2l2-5 2-2c5-2 8 2 8 6 0 3-2 7-4 10-1 1-2 3-1 5l2 1 2-2c3-3 7-3 10-1 2 2 2 6 1 9-1 4-3 7-6 9l-3 4 2 2c2 1 3-1 4-2 2-4 8-3 10 0 3 3 2 8 0 11l-9 11-1 3h3c5-1 10 1 12 6 2 4 0 9-4 12-3 2-6 3-8 6l1 4c2 1 4 0 6-1 5-2 11 2 12 8 1 5-6 13-10 17s-13 12-20 14c-3 1-14-11-16-15"/><path fill="#619440" d="M663 224c2 0 5 3 5 5l1 9h2l2-5 2-2c5-2 8 2 8 6 0 3-2 7-4 10-1 1-2 3-1 5l2 1 2-2c3-3 7-3 10-1 2 2 2 6 1 9-1 4-3 7-6 9l-2 4c-1 1 0 2 1 2 2 1 3-1 4-2 2-4 8-3 10 0 3 3 2 8 0 11l-9 11-1 3h3c5-1 10 1 12 6 2 4 0 9-4 12-3 2-6 3-8 6l1 4c2 1 4 0 6-1 5-2 11 2 12 8 1 5-6 13-10 17-4 3-12 11-18 14h-2s3-40-3-82c-3-23-20-57-20-57h4"/><path fill="#306B34" d="M730 343l-3 13c-2 5-4 6-7 9-4 4-9 5-14 4s-9-1-9-7h-1l-5 4c-2 0-14 2-19-11-1-10 2-19 4-29l1-3c2-2 4-2 6-1-2 0-3-2-3-5l2-5 8-21c3 4 8 6 12 6 0 0-11-11-7-18l10-16 8-8c2-2 4-4 7-4h5c3 0 4 3 5 6l5 16 2 21c-6 5-14 8-21 8 6 1 12 1 18-1h2c2 1 1 3 1 5-2 7-3 15-2 22l-7-1 8 4-6 12"/><path fill="#A4B751" d="M732 346c-1 5-7 16-13 20-3 4-9 5-13 4-4 0-9-2-9-8h-1c-2 2 27-112 29-111 3 0 4 3 5 6l5 16 2 21c-6 5-14 8-21 8 6 1 12 1 18-1h2c2 1 1 3 1 5-2 7-3 15-2 22l-7-1 8 4-4 15m-608 25c-27 2-53-60-62-85-7-16-8-34-9-51 28 9 62 31 76 57l4 16c2 10 3 42 2 53 0 3 1 8-11 10"/><path fill="#619440" d="M56 239h2l18 21 2-11 1-1v1a35 35 0 01-2 13l12 17 1-7 1-5 1-6 1-1 1 1-1 6a322 322 0 00-2 14l13 23 5-14 1-7 1-1 1 1-1 4-1 3-4 16a419 419 0 0114 31l-2-1-7-13-12-2-12-2-1-1 1-1a271 271 0 0123 4c-3-6-5-12-9-17l-16-3-16-4-1-1 1-1 17 4 14 3-11-18c-10-3-18-5-28-6l-1-1 1-1c10 1 17 3 27 6l-11-16c-7-3-11-3-19-3l-1-1 1-1c7 0 11 0 17 2a393 393 0 00-19-24"/><path fill="#FFDE8E" d="M75 351c4 24 24 52 47 62 8 3 17 5 24 1 6-4 10-12 9-19-1-8-4-14-9-20-4-7-9-13-15-17-6-5-14-9-22-9-17-1-28 1-34 2"/><g transform="translate(75 348)"><mask id="c" fill="#fff"><use xlink:href="#a"/></mask><path fill="url(#b)" d="M0 3s75 60 76 58c3-4 4-9 4-14-1-7-4-14-9-20-4-6-9-12-15-17a40 40 0 00-29-9L0 3" mask="url(#c)"/></g><path fill="#306B34" d="M56 390a4 4 0 108 0 4 4 0 00-8 0"/><g transform="translate(66 382)"><mask id="f" fill="#fff"><use xlink:href="#d"/></mask><path fill="url(#e)" d="M0 3a3 3 0 106 0 3 3 0 00-6 0" mask="url(#f)"/></g><g transform="translate(60 378)"><mask id="i" fill="#fff"><use xlink:href="#g"/></mask><path fill="url(#h)" d="M1 2a2 2 0 104 0 2 2 0 00-4 0" mask="url(#i)"/></g><path fill="#A4B751" d="M392 397c2-2 7-10 6-12-2-3-5-5-8-4h-4l-1-2 3-1 6-3c2-1 3-4 2-6 0-3-2-5-5-5h-4l-2-1c0-2 2-3 3-3l7-2c2-1 3-3 3-6 0-2-2-5-4-5h-3l-2-2 1-2h4c1 1 3 0 5-1 4-3 1-9-3-10l-3-1 1-3 5-1c3 0 4-4 3-7-1-2-4-1-7 0v-1l4-6c1-3 0-10-5-8-1 0-3 2-3 4l-1 6h-2l-1-3-2-2c-3-2-6 1-5 5l2 7c1 1 2 2 1 3l-1 1-2-1c-2-2-5-2-7-1-2 2-2 5-1 7l4 6 2 4-1 1-2-2c-2-2-6-2-8 0s-2 6 0 9c1 3 4 5 7 7v2l-2 1c-4-1-7 1-9 4-1 3 0 7 3 9 2 2 5 2 6 5l-1 3c-1 1-3-1-4-1-4-2-8 1-9 5s5 10 8 13 9 9 14 11c2 1 10-9 12-11"/><path fill="#619440" d="M394 305c-1 0-3 2-3 4l-1 6h-2l-1-3-2-2c-3-2-6 1-5 5l2 7c1 1 2 2 1 3l-1 1-2-1c-2-2-5-2-7-1-2 2-2 5-1 7l4 6 2 4-1 1-2-2c-2-2-6-2-8 0s-2 6 0 9c1 3 4 5 7 7v2l-2 1c-4-1-7 1-9 4-1 3 0 7 3 9 2 2 5 2 6 5l-1 3c-1 1-3-1-4-1-4-2-8 1-9 5s5 10 8 13 8 8 13 10l1 1s-2-30 3-61c2-17 15-42 15-42h-4"/><path fill="#306B34" d="M345 393l2 9c2 4 3 5 6 7 2 3 6 4 10 3 3-1 6-1 6-5h1l4 2c1 1 10 2 14-8 1-7-1-14-3-21l-1-2c-1-1-3-2-4 0 1-1 2-3 1-4l-1-4-5-16c-3 3-6 5-10 5 0 0 9-8 6-13l-8-12-5-7-6-2-4-1-3 5-4 12-1 15c4 4 10 6 15 6h-15v3c1 6 2 11 1 17l5-1-5 3 4 9"/><path fill="#A4B751" d="M344 395c0 3 5 12 9 15 3 2 6 4 10 3 3 0 6-2 6-6h1c1 1-20-83-22-83l-3 5-4 12-1 15c4 4 10 6 15 6h-15v3c1 6 2 11 1 17l5-1-5 3 3 11m-82-11c-2-3-9-13-8-17 2-4 7-6 11-5h5l2-2c0-2-2-2-4-2-3 0-6-1-9-4-2-2-3-5-3-8 1-4 4-7 7-7h7l2-2c0-2-3-3-5-3l-9-3c-3-2-5-5-5-8 1-3 3-7 6-7h4c2 0 4-1 4-3l-2-3-5 1c-2 0-5 0-7-2-6-4-2-12 3-14 2 0 4 0 5-2 1-1 0-2-1-3l-7-1c-4-1-6-6-4-10 1-3 5-1 9 0l1-2c-3-2-5-6-6-8-2-4-1-13 6-11 2 0 5 4 5 5l2 9h1l2-5 2-1c5-3 8 1 8 5s-2 7-4 10c-1 2-2 3-1 5l2 2 3-3c2-2 6-3 9 0 2 2 3 6 1 9l-6 9-2 4 1 2c2 0 3-2 4-3 3-3 8-3 11 0 2 4 2 8 0 12s-6 8-10 11l-1 2c1 2 3 1 4 1 5-1 10 1 11 5 2 5 0 10-4 13-2 2-6 3-7 6-1 2-1 4 1 5 1 1 3-1 5-2 6-2 12 2 12 8 1 5-6 13-10 17s-13 13-19 15c-4 1-15-12-17-15"/><path fill="#619440" d="M259 258c2 0 5 4 5 5l2 9h1l2-5 2-1c5-3 8 1 8 5s-2 7-4 10c-1 2-2 3-1 5l2 2 3-3c2-2 6-3 9 0 2 2 3 6 1 9l-6 9-2 4 1 2c2 0 3-2 4-3 3-3 8-3 11 0 2 4 2 8 0 12s-6 8-10 11l-1 2c1 2 3 1 4 1 5-1 10 1 11 5 2 5 0 10-4 13-2 2-6 3-7 6-1 2-1 4 1 5 1 1 3-1 5-2 6-2 12 2 12 8 1 5-6 13-10 17s-11 12-18 14l-1 1s2-41-4-83c-3-24-20-58-20-58h4"/><path fill="#306B34" d="M327 378l-4 13c-1 5-3 6-7 10-4 3-9 5-14 4-4-2-8-2-9-7l-1-1-5 4c-2 1-14 2-19-11-1-10 2-19 4-29l2-3c1-2 3-2 5 0-2-1-2-3-2-5l1-6 8-21c3 4 8 6 13 6 0 0-12-11-8-18l10-16c2-4 5-7 8-9l7-4h6c2 1 4 4 5 7l4 16 3 21c-7 5-14 7-21 8 6 1 12 1 18-1h2v5c-2 7-2 15-1 22l-7-1 7 4-5 12"/><path fill="#A4B751" d="M328 382c-1 4-6 15-12 20-4 3-9 5-14 4-4 0-8-3-9-8l-1-1c-2 2 28-113 30-112s4 4 5 7l4 16 3 21c-7 5-14 7-21 8 6 1 12 1 18-1h2v5c-2 7-2 15-1 22l-7-1 7 4-4 16"/><path fill="#F7E8C8" d="M889 418c0-4-196-8-438-8s-438 4-438 8 196 8 438 8 438-3 438-8"/><path fill="#FFC581" d="M779 137h1l1 2-2-2z"/><path fill="#FFC581" d="M779 138h1l1 1h-1l-1-1zm-1 1h2l1 1h-1l-2-1z"/><path fill="#FFC581" d="M779 138h1l1 2-1-1-1-1zm24-4h1l1 1-1 2-1 1-1-2 1-2z"/><path fill="#FFC581" d="M804 132l-1 1v1l1 1v-3zm-3 3h1l2 1-1 1-2-2m-19 6v2s1 1 1 0v-3l-1 1z"/><path fill="#A09A8D" d="M784 144v-2h-3v3z"/><path fill="#FFC581" d="M805 137v2h-1l-1-2z"/><path fill="#A09A8D" d="M804 142l-2-3 4-2 1 3z"/><path fill="#FFC581" d="M781 138l-1 1v1l2 1h1v-2l-2-1z"/><path fill="#FFC581" d="M783 137l-1 1v2l1 1v-4m22-5l-1 1v1l1-2zm1 1l-1 1v2l1-1v-2z"/><path fill="#FFC581" d="M806 132l-1 1-1 2h1l1-3z"/><path fill="#FFE2B7" d="M862 318h-1-1l-3-6v-1h2l3 6v1"/><path fill="#7F786A" d="M859 325l1-1 4-7v-1h-2v1l-1 1h-1l-1 6v1"/><path fill="#FFE2B7" d="M831 306v-2l-5-4-1 2 5 4h1"/><path fill="#7F786A" d="M832 312v-1l1-8h-3v1l-1 1 2 6 1 1m-39-147l-11 3s5 16 14 26c5 5 11-11 11-11s-4-2-7-5c-4-5-7-13-7-13"/><path fill="#7F786A" d="M780 146c-5 7-1 17 2 23 3 7 8 9 12 10 0 0 3-4 2-7l-10-26c0-2-2-3-3-2-2 0-3 1-3 2"/><path fill="#A09A8D" d="M824 209c4 5 7 12 11 20 4 9 7 38 7 38l19 46-6 5s-24-29-30-40a378 378 0 01-21-62l20-7"/><path fill="#7F786A" d="M809 167c-1-3 11-6 11-5l4 18c1 5 2 10 2 21l-5-3s-12-24-12-31"/><path fill="#FFE2B7" d="M813 187l-2-2-1-4a2 2 0 114-1l1 4-2 3"/><path fill="#FFC581" d="M810 181l2-2c1-1 2 0 2 1l1 3h-3l-2-1v-1z"/><path fill="#7F786A" d="M809 140c7 3 10 13 11 19 1 7 0 16-6 15-3-1-6-7-7-10-2-5-6-16-5-23 0-1 4-3 7-1"/><path fill="#FABB30" d="M812 166c1 0 0 2 4 4 2 1 2 3 1 4l1 1c1 1 1 3-1 4l-5 2-4-3 1-2 1-3-1-4 3-3"/><path fill="#FFE2B7" d="M814 177l-1-4c-3-2-5 2-6 4v3l2 1 3-1 2-3"/><path fill="#FFE2B7" d="M813 178v1h1l1-2-2 1"/><path fill="#FABB30" d="M814 177l-1 3-2 2-5-1c-1-1 1-3 1-3l3 1 4-2z"/><path fill="#7F786A" d="M817 213c1 13 3 22 0 30-2 6-20 23-20 23l32 34-4 8s-44-24-47-40c-1-7 5-20 10-33 5-11 8-23 8-24 3 1 15 0 21 2"/><path fill="#7F786A" d="M799 232s1 4 14 4c6 0 12-2 17-5l-6-14c1-1 9 12 9 11 7-5 10-11 10-11s-14-8-15-14c-2-6-3-17-8-18l-13-2-8-4-2 14-1 18c-2 10 3 21 3 21"/><path fill="#FFC581" d="M806 138l-1 1 1-1m-25 5l1 1a1 1 0 000-1h-1"/><path fill="#A09A8D" d="M796 211l2 10c1 3 3 5 6 6 0 0-5 4-4 6 0 0-5-2-5-18l1-4m14-38c-1-1-2-3-1-4l1-2 2-1-1 1-2 2 1 4"/><path fill="#FDEED0" d="M807 178l-1 2v1h-1v-2l2-1"/><path fill="#FDDC8C" d="M813 92l-1 20-117 5z"/><path fill="#FDDC8C" d="M808 98l-4 1c-4 2-5 6-4 9h8v-8-2zm-7 10h-1c-2-3 0-7 3-9l5-1v2l1 8h-8z"/><path fill="#FFA331" d="M807 93v5l-4 1c-3 2-4 5-3 8l-95 5v3l103-6h1v-1l1-15h-3z"/><path fill="#FFA331" d="M813 64v8l-118 45 59-31z"/><path fill="#FDDC8C" d="M814 46l-18 5-7 4 21-6a1 1 0 012 1l-1 15 2-1 1-18z"/><path fill="#FDDC8C" d="M802 54l-20 6-87 57 113-51 1-8c-3 1-6-1-7-4"/><path fill="#FFA331" d="M788 65c-3 0-6 3-5 7l2 5 5-3-3-1v-1l1-1 1-1-2 1h-1v-1l3-1h-2l-1 1-1-1h1l1-1 2-1 1 1h-1v1h1v1l-1 2h-1l3 2 3-2v-1c0-4-3-7-6-6"/><path fill="#FDDC8C" d="M789 72l1-2v-1h-1v-1h1l-1-1-2 1-1 1h-1l1 1 1-1h2l-3 1v1h1l2-1-1 1-1 1v1l3 1h1l-3-2h1z"/><path fill="#FFA331" d="M769 84l-1-1c-2-4-6-6-10-5s-7 6-7 12l1 2 17-8z"/><path fill="#FDDC8C" d="M811 49h-1l-21 6-7 5 20-6c1 3 4 5 7 4l-1 8 3-1 1-15-1-1"/><path fill="#FFA331" d="M811 49h-1l-21 6-7 5 20-6c1 3 4 5 7 4l-1 8 3-1 1-15-1-1"/><path fill="#FDDC8C" d="M821 77l-12-5-114 45 120-22 9-10c-3-2-4-5-3-8"/><path fill="#FDDC8C" d="M837 77l-21-8-4 2 19 7a1 1 0 010 2l-12 14h4l14-17z"/><g transform="translate(808 71)"><mask id="l" fill="#fff"><use xlink:href="#j"/></mask><path fill="url(#k)" d="M1 1l3-1-3 1z" mask="url(#l)"/></g><g><path fill="#FDDC8C" d="M831 79v-1l-19-7-3 1 12 5a7 7 0 003 8l-9 10 4-1 12-14v-1"/><path fill="#FFA331" d="M831 79v-1l-19-7-3 1 12 5a7 7 0 003 8l-9 10 4-1 12-14v-1m-42 9c0 4 3 7 7 7 3 0 6-3 6-7 0-5-3-8-7-8-3 1-6 4-6 8"/><path fill="#FDDC8C" d="M796 85v-1l-2 1-2 1 1 1 1-1h1l-2 1v1l2-1v1l-2 1v1l4 2h1v-1l-3-2 1-2h1v-1h-1l-1-1h1z"/><path fill="#FFA331" d="M758 92c2 5 5 8 9 8 6-1 10-7 9-14a19 19 0 000-1l-18 7z"/></g><g transform="translate(790 77)"><mask id="o" fill="#fff"><use xlink:href="#m"/></mask><path fill="url(#n)" d="M0 1h1-1z" mask="url(#o)"/></g><g><path fill="#FFBC3F" d="M234 399l-117 4c4-87-6-169-27-255 44-4 92-6 137-9 12 88 20 170 7 260"/><path fill="#F7E8C8" d="M220 164c-8 0-15-7-17-15-28 3-59 1-87 4l1 2c0 9-6 16-14 17 15 69 22 135 21 205h2c7 1 12 8 12 17 22-2 57-1 79-2v-3c2-8 8-15 14-16 9-73 0-137-9-209h-2"/><path fill="#FFBC3F" d="M218 259c1 31-21 57-46 60s-46-20-49-50c-3-29 15-56 43-60s52 19 52 50"/><path fill="#FFE5B0" d="M190 233c1 0 3-2 3-5 0-2-2-4-4-4l-18 1h-13c-2 0-3 2-3 5 0 2 2 4 3 4h13c4-1 8 3 9 8l-21 1c-2 0-3 2-3 4 0 3 2 5 3 5l22-1c-1 5-5 9-9 9h-12l-1 1-2 2v4l1 1 27 34 2 1 2-1v-6l-21-27h5c7-1 13-9 14-19h4c1 0 3-2 3-4-1-3-2-5-4-5l-3 1c-1-4-2-7-4-9h7z"/><path fill="#FFCB48" d="M98 291c-1-1-7-4-8-7 0-4 3-5 5-8v-7s4 3 5 7v-3l2 1c3 4 4 7 2 12-1 7-5 6-6 5"/><path fill="#7F786A" d="M32 418l6-4-1 2 4-1v2c0 1-8 4-9 1"/><path fill="#FFE2B7" d="M36 416l1-2h2l1-1 1 1v1c-1 1-4 2-5 1"/><path fill="#7F786A" d="M102 417c0-3-3-2-5-2v1l-5-1v3l10-1"/><path fill="#FFE2B7" d="M97 416v-1l-2-1-1-1h-1l-1 2 5 1"/><path fill="#A29C8F" d="M84 321s-7 8-11 16c-5 10-33 65-34 76a30828 30828 0 0153-68l11 24-11 45h4s22-36 21-48c-2-13-10-40-12-42-4-1-15-4-21-3"/><path fill="#7F786A" d="M40 413l2-2 50-66 11 24-11 45h4s22-36 21-48c-2-13-10-40-12-42l-6-2c-5-1-59 92-59 91"/><path fill="#E7E1D3" d="M107 300s-4-3-2-5l2-4 1-12s-2-10 3-5c4 3 1 17 0 23l-1 5c-1 1-2-3-3-2"/><path fill="#E7E1D3" d="M108 280s-5-21-4-23c1-3 4-8 6-4 2 2 3 19 3 27 0 7-5 0-5 0"/><path fill="#E8CAA3" d="M109 252l-1-3 2-2-1 1h1v1c0 1 1 4-1 3"/><path fill="#F5EFE4" d="M89 296c2-2 15-3 20 0 0 0 5 17-4 28l-21-3s-2-16 5-25"/><path fill="#FFE2B7" d="M99 288l-1 7c1 1 2 2 3 0v-7h-2z"/><path fill="#E8CAA3" d="M99 286l-1 7h3v-7h-2z"/><path fill="#FFE2B7" d="M105 288l-2-4c0-1-2-2-3-1l-4 3 1 3 2 3h3c3-1 3-2 3-4"/><path fill="#E7E1D3" d="M103 294l6 2s5 17-4 28l-6-1s5-9 6-17c1-6-2-12-2-12"/><path fill="#A29C8F" d="M89 299c1-4 12-1 23 9 0 0 19 0 23 2 1 2 1 8-8 9-10 1-17-4-17-4s-21-11-21-16"/><path fill="#E8CAA3" d="M139 314c1-1 1-3-1-3h-1v-1l-1 1s-3 2-2 3h5"/><path fill="#E8CAA3" d="M140 311h-1l2 1-2 1h1l-2 1-1-3h3"/><path fill="#7F786A" d="M99 309a57 57 0 01-8-7l-2-2v-2l1-1h5l6 3a46 46 0 0111 8 73 73 0 00-11-8l-6-2-3-1h-2l-1 2 1 1 1 2 3 2 5 5"/><path fill="#FFE09C" d="M90 284v-2l1-2 3-3 1-4v-3-1h1a13 13 0 014 5v2l1-1-1-2 1 2v1h-1l-1-2-1-1a18 18 0 00-3-3h1v3l-1 4-3 3-1 2-1 2"/><path fill="#7F786A" d="M204 301c-1-1-12-11-4-18 0 0-1-3 2-5 4-2 7 2 7 3l-4 20h-1z"/><path fill="#E8CAA3" d="M161 278h3v2l1-1-1 1c0 1-1 4-2 3 0 0-2-3-1-5"/><path fill="#E8CAA3" d="M164 277h-1v-1l-1 2v-1l-1 2 3 1v-3"/><path fill="#7F786A" d="M206 417c-1-1 2-3 4-3v1l4-1 1 2-9 1"/><path fill="#FFE2B7" d="M210 415v-1l2-1 1-1h1v2l-4 1"/><path fill="#7F65C1" d="M268 412l-1-5h1v-4h2l-2 9"/><path fill="#FF97A6" d="M268 407h-1v-2l-1-1v-1h2v4"/><path fill="#7F786A" d="M221 314c7-3 11-2 11-2 27 8 9 60 9 60l26 29c0 1 2 4-1 4l-1-1c-3-2-34-21-39-26-6-6-4-43-4-43l-1-21z"/><path fill="#FFE2B7" d="M204 291l2 6 2-1-3-6-1 1z"/><path fill="#A29C8F" d="M205 295l3-1-2-3-2 1 1 3"/><path fill="#FFE2B7" d="M200 290l1-4c0-2 2-2 3-2l5 2v3l-2 4-3 1c-3-1-4-2-4-4"/><path fill="#E8CAA3" d="M237 236l2-4-2-3-1 3c0 1-2 4 1 4"/><path fill="#A29C8F" d="M190 360c9-35 31-46 31-46 4-1 8 1 8 1 16 17-6 30-6 30l-16 20 9 47h-4s-23-44-22-52"/><path fill="#F5EFE4" d="M235 236c-2 0-4 3-4 5 0 0 4 42-10 48-7 3-4 3-26 12-5 2-13 4-16 2l-11-20-2-1c-3-1-10 0-6 11 2 5 9 17 15 18 3 1 4 0 22-4 0 0 5 7 14 14 12 0 20-8 21-9 0 0-4-16-6-18 0 0 13-6 17-27 2-11 7-34-8-31"/><path fill="#E7E1D3" d="M235 236c-2 0-4 3-4 5 0 0 4 42-10 48l-6 3c-2 1 5 5 9 11l4 12 4-3s-4-16-6-18c0 0 13-6 17-27 2-11 7-34-8-31"/><path fill="#7F786A" d="M204 280c0 1-3 4-1 6l4 3s-2 4 1 8c2 3 6 2 6 2s-1 10 6 13 15-3 14-10c0-6-4-11-9-11 0 0-1-6-8-5 0 0-1-11-10-7 0 0-3-2-3 1"/><path fill="#A29C8F" d="M216 282l-1-2-3-2h-2l-3 1-3-1-2 1-2 1v3a8 8 0 00-3 7l2 4 2 4-3-4-1-4v-4l2-4v1l1-3 2-2 2-1 3 1h5l3 2 1 2"/><g transform="translate(1 39)"><mask id="q" fill="#fff"><use xlink:href="#p"/></mask><path fill="#A29C8F" d="M141 2V1h4v1h-4zm-8-1V0l4 1h-4zm-8 0h4-4zm-8 1l4-1v1h-4zm-8 2V3h4l-4 1zm-8 2l4-1-4 1zm-7 3h-1l4-2v1l-3 1zm-7 4l-1-1 4-2v1l-3 2zm-7 4l-1-1 4-2v1l-3 2zm-7 4l3-3v1l-3 2zm-6 5h-1l3-3 1 1-3 2zm-6 6v-1l2-2h1l-3 3zm-5 6h-1l3-4v1l-2 3zm6 12l-4-2 1-1 3 2v1zm-11-6a60 60 0 012-3h1a87 87 0 00-3 3zm0 2v-1h4v1h-4zm15 10l-2-3 1-1 1 4zm-23-9v-1l4-1v1l-4 1zm4 4l2-3-1 4-1-1zm18 13l1-4h1l-1 4h-1zM36 50a34 34 0 013-2 28 28 0 00-3 2zm10 9a14 14 0 010-4h1a17 17 0 00-1 4zm14 11l-1-1 4-2v1l-3 2zM30 55l2-3 1 1-3 2zm18 12l-2-4h1l2 3-1 1zm4 3v-1a9 9 0 004 1v1a9 9 0 01-4-1zm-27-9h-1l3-3-2 3zm-5 7l-1-1 3-3-2 4zm-5 6h-1l3-4v1l-2 3zm-5 7a110 110 0 012-4l1 1a111 111 0 00-2 3h-1zm-3 7l1-4 1 1-2 3zm-3 7l1-3h1l-2 4v-1zm-3 8l1-4h1l-1 4H1zm-1 8l1-4v4H0zm0 8v-4h1v4H0zm1 8v-4l1 4H1zm3 8l-2-4h1l1 4zm3 7l-2-3 1-1 2 4H7zm5 7l-3-3 1-1 2 3v1zm6 5l-4-2 1-1 3 3zm3 3v-1h1l2 1-1 1-2-1z" mask="url(#q)"/></g><path fill="#F59015" d="M138 36l-5 5 6 1 1-3z"/><g transform="translate(136 30)"><mask id="s" fill="#fff"><use xlink:href="#r"/></mask><path fill="#F9DC56" d="M18 13L1 0l1 10z" mask="url(#s)"/></g><path fill="#FFB023" d="M154 42l-14 8-2-10z"/><path fill="#FFBC3F" d="M251 406h62l1-1v-10l-1-1h-62l-1 1v10l1 1M242 394h63l1-1v-10l-1-1h-63l-1 1v10l1 1M254 382h63l1-1v-10l-1-1h-63l-1 1v10l1 1M261 370h64l1-1v-11h-65v12"/><path fill="#FFAC34" d="M262 370h62l2-1v-2l-2-1h-62l-1 1v2l1 1"/><path fill="#FFBC3F" d="M244 418h62l1-2v-9l-1-2h-62l-2 2v9l2 2"/><path fill="#FFAC34" d="M244 418h62l1-2v-1l-1-1h-62l-2 1v1l2 2m10-36h63l1-1v-2l-1-1h-63l-1 1v2l1 1m-12 12h63l1-1v-2l-1-1h-63l-1 1v2l1 1m9 12h62l1-1v-2l-1-1h-62l-1 1v2l1 1"/><path fill="#FFAC34" d="M364 372a41 41 0 10-81 11 41 41 0 0081-11"/><path fill="#FFBC3F" d="M354 373a32 32 0 10-62 9 32 32 0 0062-9"/><path fill="#FFA331" d="M332 366l2-1c1-1 0-3-1-3l-9-2-6-2-3 2c-1 1 1 2 2 2l6 2c2 0 3 2 3 5l-10-3-2 2c-1 1 0 2 1 2l10 3c-1 2-3 3-5 3l-6-2h-1l-1 1v2l9 19 1 1 1-1 1-3-7-14h2c4 1 8-1 10-5h1l3-2-2-2h-1l-1-5 3 1z"/></g><g transform="translate(368 251)"><mask id="v" fill="#fff"><use xlink:href="#t"/></mask><path fill="url(#u)" d="M1 1v1l7 7a1 1 0 001-1L2 1a1 1 0 00-1 0" mask="url(#v)"/></g><g transform="translate(368 251)"><mask id="y" fill="#fff"><use xlink:href="#w"/></mask><path fill="url(#x)" d="M8 1L1 8a1 1 0 101 1l7-7a1 1 0 10-1-1" mask="url(#y)"/></g><g><path fill="#7F786A" d="M475 315c3 0 5-3 5-7 0-3-2-6-5-6h-52c-3 0-5 3-5 6 0 4 2 7 5 7h21c7 0 12 5 14 13h-35c-3 0-5 3-5 6 0 4 2 7 5 7h35c-2 7-7 12-14 12h-21l-2 1-3 3v5l1 2 42 52 4 2 3-2c2-3 2-7 0-9l-33-41h9c12 0 23-11 25-25h6c3 0 5-3 5-7 0-3-2-6-5-6h-6c-1-5-2-9-5-13h11z"/><path fill="#FFA986" d="M439 264c0-1-2-5-1-6h1l2 3-2 3"/><path fill="#FFA986" d="M446 266c1-2 1-4-1-6-2-1-3-1-5 1s-2 5 0 6c2 2 4 1 6-1"/><path fill="#FFA986" d="M440 261s2-6 4-6c1 0 7 2 6 5l-4 5-6-4z"/><path fill="#E7E1D3" d="M405 292a8 8 0 012-1h3l1-1 2-1h1l1-1 1-1 1-1h1l1-1 1-1 1-1 2-2 1-1 1-1 2-2 2-2 2-2 2-2 2-3 3-4 6 4-3 5-2 2-2 3-2 2-2 2-2 3-1 1-1 1-2 2-1 1-1 1-1 1-1 1-1 1-2 1-1 1-1 1-3 2-2 1h-2l-1 1h-2a3 3 0 001 0l-4-9z"/><path fill="#FFC581" d="M363 409l-2 4-2 1-2-1 2-5 4 1z"/><path fill="#7F786A" d="M358 409h5l38-71-15-4-6 11c-4 7-6 27-6 27s-10 5-16 37"/><path fill="#FFC581" d="M409 409l1 4-2 1-2-1-1-5 4 1z"/><path fill="#7F786A" d="M418 417h-8-1-5l1-4s0-1 0 0l2 1c2 0 2-1 3-2l1 1 7 3v1m-50-1l-3-1v2h4l-1-1"/><path fill="#57575E" d="M404 417v-1h4l2 1h8-8-1-5z"/><path fill="#A29C8F" d="M404 410h6l1-75h-13l-1 10c0 7 6 27 6 27s-7 6 1 38"/><path fill="#F5EFE4" d="M412 335c-1 0 1 4-8 4-9 1-17-4-18-5s2-11 3-15l-5-24c1-2 11-5 11-5h7l8 1 2 2c2 0 1 17 1 20l-1 22"/><path fill="#FFC581" d="M403 283l-1-4-7 3v8l5 3c4 0 4-3 4-3l-1-7"/><path fill="#FFBC3F" d="M403 283l-1-4-7 3v1h1a12 12 0 008 7l-1-7"/><path fill="#FFC581" d="M407 272l-1 15h-3a9 9 0 01-8-5v-9l1-2 4-1h5l2 2"/><path fill="#57575E" d="M397 281l1-6-1-2c-1-1-3-2-4-1l2 8 2 1"/><path fill="#57575E" d="M397 275s0-2 2-2l5 1 3-1c1-3 3-7 0-8s-8 1-9 2l-2 3-3 2 2 3h2"/><path fill="#FFC581" d="M397 280l-3-2c-1 1-1 5 3 4v-2"/><path fill="#F5EFE4" d="M393 297v-1 1h1l1 1 1 1h2l1 1h2l11 3h8l3 1h11l1 7h-24l-12-2-3-1-2-1-1-1h-2l-1-1-1-1h-1l-1-1v-1h-1l7-5z"/><path fill="#7F786A" d="M359 416h1l1 1h6l-4-4-1-1h-2l-2-1h-1l-2 4 4 1z"/><path fill="#57575E" d="M362 417h2l-3-1-2-1-3-1-1 1 4 1h1l1 1h1zM369 417h-8 8"/><path fill="#FFAC34" d="M478 281a27 27 0 10-54 7 27 27 0 0054-7"/><path fill="#FFBC3F" d="M472 282a21 21 0 10-42 6 21 21 0 0042-6"/><path fill="#FFA331" d="M453 275v-1l-2-1-6 3-4 2v2l2 1 4-2c1-1 3-1 4 1l-7 3v2l1 1 7-4-1 4-4 2h-1v1l1 1v1l13 5h2l-1-2-11-5 2-1c2-1 3-4 2-7l1-1 1-1-2-1h-1l-2-2 2-1z"/><path fill="#FFC581" d="M434 304l4-4 1 1-2 3h-3"/><path fill="#FFC581" d="M438 310c2 0 4-1 3-3 0-3-1-4-4-4-3 1-4 2-4 5 0 2 2 3 5 2"/><path fill="#FFC581" d="M437 303c1 0 6-2 7-1s3 7 1 8h-7l-1-7z"/><path fill="#FFA331" d="M370 200l2-1-1-1-6-4-3-2-2 1v1l4 3c1 0 2 2 1 4l-6-4h-2v2l7 4c-1 1-3 2-4 1l-4-2h-1l-1 1 2 15h2l1-1-2-12 2 1c2 2 5 1 7-2l1 1 2-1v-2h-1v-3l2 1z"/><path fill="#F0AEAE" d="M507 387l-7 25s2 5 12 4c9-2 18-18 18-18l-23-11z"/><path fill="#F0AEAE" d="M506 388l-4 16c-1 2-4 7-2 10 5 5 14 3 19-1 5-3 9-9 12-14v-1l-23-11c-1-1-3 1-2 1l19 9 3 2v-1 1l-4 6-5 6c-3 2-6 4-10 4-2 0-6 0-7-3-1-1 1-3 1-5l6-20-3 1m-19-89c-1 1-13-24-1-38 0 0 20-2 30 21 0 0-20 2-29 17"/><path fill="#FFBFBF" d="M672 332c0 47-44 85-97 85s-96-38-96-85c0-48 43-86 96-86s97 38 97 86"/><path fill="#FFD0D0" d="M509 332c0 10-9 18-20 18s-19-8-19-18 9-18 19-18 20 8 20 18"/><path fill="#9D95AD" d="M533 311c0 3-2 5-5 4-2 0-4-2-3-5 0-3 2-5 5-4 2 0 3 2 3 5"/><path fill="#FFD0D0" d="M552 290c-2 0 14-16 31-10 0 0 9 18-9 35 0 0-5-22-22-25"/><path fill="#FFD0D0" d="M553 290l3-3 7-5c4-2 8-3 12-2l7 1c2 3 2 9 2 12 0 8-5 16-11 22h2c-2-12-10-23-22-25l-2 1c12 2 19 14 22 25l2-1c7-7 12-15 12-25l-2-8c0-2 0-2-3-3-8-2-16 0-23 4-1 1-10 7-8 8l2-1m-7 111l4 22s5 5 11 2c9-4 10-23 10-23s-4 2-13 1c-9 0-12-2-12-2"/><path fill="#FFD0D0" d="M544 401l3 15 1 7c1 2 4 3 6 3 13 4 17-14 18-24l-2-1c-3 2-8 2-12 1-4 0-8 0-11-2-1-1-3 1-2 1 4 3 9 3 14 3 4 1 9 1 12-1l-1-1-3 12-4 8c-3 3-10 4-12 1l-1-4-1-7-2-12-3 1m74-3l12 18s6 2 10-2c6-7 0-24 0-24s-2 4-10 6c-8 3-12 2-12 2"/><path fill="#FFD0D0" d="M617 399l8 12c1 2 2 5 4 6l5 1c13-2 10-19 7-28h-1c-3 3-7 4-10 5-4 2-8 3-11 2-1 0-3 2-1 2 4 1 9-1 13-2 3-1 8-3 10-6h-2l3 11-1 9c-1 3-7 7-11 5l-1-3-4-6-6-9-2 1"/><path fill="#FFBFBF" d="M504 332a18 18 0 11-36 0 18 18 0 0136 0"/><path fill="#9D95AD" d="M478 334l-1-1v-6a1 1 0 013 0v6l-2 1m12 1l-1-1v-5a1 1 0 013 0v5l-2 1"/><path fill="#F0AEAE" d="M511 282s5-2 9 1c0 0 37-32 80-24l-15-6s-44-7-74 29"/><path fill="#7F786A" d="M639 273c1-1-3-5-4-6v2l-3-2-1 3c0 1 7 5 8 3"/><path fill="#FFC581" d="M636 270l-1-3-1-1-1-1-1 1v1l4 3"/><path fill="#FFCB48" d="M553 168s7-13-4-13c0 0-3-8-11-6 0 0-5 1-2 7 0 0-5 2-2 7 0 0-7-3-10 5-3 7 5 13 5 13s-5 2-2 8c2 6 9 4 9 4l17-25z"/><path fill="#7F786A" d="M573 185s7 3 13 9c7 7 47 61 48 71 0 2-3 2-4 0l-26-28-32-28-3 25s-11 12-14 0c-2-12-1-38-1-41 4-1 14-8 19-8"/><path fill="#F5EFE4" d="M546 171c-3-3-9 6-10 20 0 0-18 2-20 6v1c0 2 1 7 9 5 9-2 16-8 16-8l5-24"/><path fill="#F5EFE4" d="M558 164l-5 1c-4 2-11 6-13 10 0 0 5 12 17 17l16-7s-5-17-15-21"/><path fill="#FFE2B7" d="M546 163l3 5c0 1 0 2-2 1s-3-5-3-5l2-1z"/><path fill="#FFC581" d="M545 161l3 5c0 1 0 2-2 1l-3-5 2-1z"/><path fill="#FFE2B7" d="M540 165v-4l2-2 5 1v3l-1 4-3 1c-2-1-3-1-3-3"/><path fill="#A29C8F" d="M633 266l-3-1-26-28-32-28-3 25s-11 12-14 0c-2-12-2-38-1-41 2 0 3-1 5-3 3-1 28 21 46 41 17 18 28 35 28 35"/><path fill="#FFE09C" d="M555 163v-3l-1-3-2-1h-3v-1a13 13 0 00-4-5l-3-1h-4l-1 1-1 2-1 2 1 1v1l-2 2-1 1 1 2v1l1 1-1 1-3-1h-3l-2 2-1 1-1 2 1-2 1-1 2-2 3-1 3 1-1-1v-3l1-2 1-1v-1-3l1-3 2-1h4l3 1 3 3 1 3h3l2 2 1 3v3"/><path fill="#FFC581" d="M570 218c6 17-1 36-14 44l-13 6c-19 6-33-5-40-25-7-19-4-39 14-45l14-4c16-2 32 8 39 24"/><path fill="#FFAC34" d="M562 250l-1-1 1-1 7-2 2-8-8 3h-1l1-1 9-3v-7l-9 3h-1l1-1 9-4-2-8-9 4-1-1v-1l10-3v-1l-5-8-9 3h-1l1-1 8-4-7-6-8 3-1-1v-1l8-3-5-3-8 3h-1v-1l6-2c-5-3-11-3-17-3l-14 4c-18 6-21 26-14 45 7 20 21 31 40 25l13-6c5-3 9-8 12-14l-6 2z"/></g><g transform="translate(555 208)"><mask id="B" fill="#fff"><use xlink:href="#z"/></mask><path fill="url(#A)" d="M1 4L0 5h1l9-3-1-1-8 3z" mask="url(#B)"/></g><g transform="translate(547 200)"><mask id="E" fill="#fff"><use xlink:href="#C"/></mask><path fill="url(#D)" d="M1 4v1h1l8-3-1-1-8 3z" mask="url(#E)"/></g><g transform="translate(541 196)"><mask id="H" fill="#fff"><use xlink:href="#F"/></mask><path fill="url(#G)" d="M1 3v1l1 1 8-3-3-1-6 2z" mask="url(#H)"/></g><g transform="translate(559 219)"><mask id="K" fill="#fff"><use xlink:href="#I"/></mask><path fill="url(#J)" d="M1 4v1h1l9-3V0L1 4z" mask="url(#K)"/></g><g transform="translate(562 228)"><mask id="N" fill="#fff"><use xlink:href="#L"/></mask><path fill="url(#M)" d="M1 4L0 5l1 1 9-4V1L1 4z" mask="url(#N)"/></g><g transform="translate(562 236)"><mask id="Q" fill="#fff"><use xlink:href="#O"/></mask><path fill="url(#P)" d="M1 4L0 5l1 1 8-3 1-2-9 3z" mask="url(#Q)"/></g><g transform="translate(561 245)"><mask id="T" fill="#fff"><use xlink:href="#R"/></mask><path fill="url(#S)" d="M1 4L0 5h1l6-2 1-2-7 3z" mask="url(#T)"/></g><g><path fill="#FFBC3F" d="M563 220c8 19-2 41-21 48-18 7-40-3-47-23-7-19 3-40 21-47 19-7 40 3 47 22"/><path fill="#FFA331" d="M533 214c2-1 2-2 1-3 0-2-2-3-3-2l-12 5-8 4v3c0 2 2 2 3 2l8-4c2-1 5 0 7 3l-13 6c-1 0-2 2-1 3l3 2 14-6c0 3-1 6-4 7l-8 4-1 2 1 2h1l25 13h1l1-2c1-1 0-2-1-3l-20-10 4-1c4-2 6-8 5-14l2-1 1-4c-1-1-2-2-3-1l-2 1-5-4 4-2z"/><path fill="#FFC581" d="M516 198v-1l-4 1-1 3c1 1 1-1 2-1 0 0 4 0 3-2m35 1l-4-1c-2 0-3 3-3 3l2-1v1l1-1c1 0 5 1 4-1"/><path fill="#E7E1D3" d="M558 164l-4 1-3 1 8 12c3 7 3 11 3 11l11-4s-5-17-15-21"/><path fill="#E7E1D3" d="M555 166c-1 1 4 7 6 10l3 6s-17 14-15 17c2 2 7 3 11 0 2-1 13-13 9-21-3-7-11-19-14-12"/><path fill="#F5EFE4" d="M556 164l-1 1v1l1 3 3 4 3 5 3 4v1a249 249 0 00-16 14v0l1-1 1-2a71 71 0 019-8l4-4v1l-3-5-2-5-3-4-1-3h-1l1-1 1-1m13 14a73 73 0 00-6-10 37 37 0 016 10"/><path fill="#FFAC34" d="M612 390a47 47 0 1087-36 47 47 0 00-87 36"/><path fill="#FFBC3F" d="M620 386a38 38 0 1070-29 38 38 0 00-70 29"/><path fill="#FFAC34" d="M661 354l1-3c-1-2-2-3-3-2l-13 5-8 3c-1 1-2 2-1 3 1 2 2 3 3 2l8-3c3-1 6 0 8 2l-14 6c-1 0-2 2-1 3l3 2 14-6c0 3-1 6-4 7l-8 3-1 1v2a3 3 0 001 2l24 13h2l1-1c1-2 0-3-1-4l-19-10 3-1c5-2 8-8 6-14l3-1 1-3c-1-1-2-2-3-1h-3l-3-4 4-1z"/><path fill="#FF881D" d="M690 357l-2-3-2-4-2-3-2-2a37 37 0 00-27-12l-3 1h-4l-4 1-3 1a39 39 0 0128 1 38 38 0 0121 20"/><path fill="#FFAC34" d="M641 337l-10 5-7 8c-3 3-4 7-5 10l-2 11 2 11 2 5v2l1 1 1 2 8 9 9 5c4 2 7 3 11 3h11l3-1h1l2-1 5-2 9-7c2-2 5-5 6-9l4-10 1-11a42 42 0 00-1 0v11l-4 10-7 9c-2 2-5 5-9 6l-5 3h-1-1l-3 1h-11l-10-2-10-6-7-8-2-2v-1-1l-1-1-2-5-1-11 1-11 5-10 7-8 10-5"/><path fill="#7F786A" d="M715 302s5 10 7 23c1 10 3 16 6 21l-10 2c-5 0-8-2-8-2s2-5-1-17c-2-11-4-22 1-25 3-3 5-2 5-2"/><path fill="#EABBAB" d="M794 405l1-2h-1l-9-1c0-1 0 0 0 0l-1 1 1 1 9 1"/><path fill="#7F786A" d="M796 413l1-1v-9l-1-1h-2l-1 1 1 1-1 1v1l2 6 1 1m-55-82c3 4 6 8 9 16 4 8 11 32 11 32l29 22-1 6s-34-7-47-21a321 321 0 01-26-51l25-4"/><path fill="#EABBAB" d="M730 417l2-1-3-9v-1l-2 1 3 9v1"/><path fill="#7F786A" d="M722 418v1l10-1 1-1v-1l-1-1-1 1-2-1-7 3m-26-99s-6 8-3 10c4 2 20-14 20-14 2-1 1-5-4-10l-13 14z"/><path fill="#A29C8F" d="M738 326c3 1 15 14 10 24-4 9-32 30-32 30l16 33-6 1s-26-22-26-38c0-7 23-34 23-34l-4-10c2 1 13-6 19-6"/><path fill="#F5EFE4" d="M716 335s5 1 11-2 9-7 9-9c0-4-5-17-5-17-2-5-7-8-12-7l-8 2c-3 4-2 12-1 16l6 17"/><path fill="#7F786A" d="M715 301s0 17 6 29c5 10 8 17 15 20 0 0 10-6 13-10 4-3 4-6 4-6s-5-5-13-15c-6-9-11-18-16-19s-9 1-9 1"/><path fill="#7F786A" d="M700 323s7 5 9 5c7-1 17-18 17-18 3-4 2-7-2-8l-6 2-18 19z"/><path fill="#FFA087" d="M668 327v-2l4 2v1l-1 1-3-2z"/><path fill="#FFA087" d="M666 327l1 1 2-1h-3zM665 327h1l3-1h-1l-3 1zM665 326h3v-1l-3 1z"/><path fill="#FFA087" d="M666 325l1 1 2-1h-3zm5 2v2l4-1-1-2z"/><path fill="#A29C8F" d="M731 334l-1 1 3 2c3 0 8-4 8-5l-2-3h-1l-7 5"/><path fill="#EAD5C1" d="M675 324l-2 1 1 4 3-1z"/><path fill="#7F786A" d="M676 330c5 3 10 1 15 0 7-2 11-6 9-11 0 0 0-2-3-2l-21 7c-1 0-2 1-2 3l2 3"/><path fill="#FFB68E" d="M672 331l-1-2 1-1 4 2v1l-1 1-3-1z"/><path fill="#FFB68E" d="M669 331h3v-1l-3 1zm0-2l1 1h2v-1h-3z"/><path fill="#FFB68E" d="M669 328l1 1 2 1v-1l-3-1z"/><path fill="#FFB68E" d="M670 328l1 1h2l-1-1h-2zm6 2l-1 2h4l-1-2z"/><path fill="#EAD5C1" d="M679 329l-2 1 1 4h3z"/><path fill="#7F786A" d="M679 328c2-3 12-5 18-6 7-2 19-4 18 2-1 2-10 8-18 11-9 4-14 5-17 1-1-2-2-7-1-8"/><path fill="#57575E" d="M714 291c-2-2-4-2-5-1l-1-2s-3 0-3 2c-1-1-5-2-6 0-3 5 5 6 6 6 0 0 2 4 3 3h2l4-3v-5"/><path fill="#A29C8F" d="M710 299l3-2 2-4-2-3h-4 1l-1-2h-2c-1 0-2 0-2 2v-1h-3l-3 1 3-1 3 1 2-1h1l1 1a1 1 0 001 0h2l2 3-1 3-3 3"/><path fill="#FFB68E" d="M714 302v-1l-3-3h-2v3l3 2 2-1z"/><path fill="#FFA087" d="M711 298h-3l1 3 2 1 1-2v-1l-1-1z"/><path fill="#FFB68E" d="M710 295c-1-2-2-2-4-2-3 1-1 5 0 7l1 2h1l2-1 1-3-1-3"/><path fill="#57575E" d="M709 294l-1 1 2 1v2l1-2s2 1 2-1c1-3-9-7-12-2-1 0 1 4 5 2l3-1"/><path fill="#FFB68E" d="M711 297v1l1-1v-2l-1 2"/><path fill="#E7E1D3" d="M714 305l1-4-2-1v1l-1 2 2 2zM712 306l-2-3 1-1v1h1v3z"/><path fill="#FB0" d="M860 388a2 2 0 100 4 2 2 0 000-4m0 6a3 3 0 110-7 3 3 0 010 7"/><path fill="#FFA331" d="M835 329l1-1-1-1-4 1-2 1v2l3-1 2 1-4 1-1 1 1 1 4-2-1 2-2 1-1 1h1v1l7 4v-1l-5-4h1l2-4 1-1-1-1h-1l-1-1h1z"/><path fill="#7F786A" d="M877 293v-4h1v4h-1zm1-12v0zm-1 19v-3h1l-1 3zm1-27v0zm-2 35v-4h1v4h-1zm-1 8v-4h1l-1 4zm-2 8l1-4h1l-1 4h-1zm-2 7l1-4 1 1-1 3h-1zm-2 8l1-4h1l-1 4h-1zm-3 7l2-4v1l-1 3h-1zm-3 7l2-3-1 4-1-1zm-3 7l2-3-2 4v-1zm-4 7l2-3-2 3zm-5 7l2-4 1 1-2 3h-1zm-5 6a99 99 0 003-3 120 120 0 01-2 3h-1zm-5 5l2-2h1l-3 3v-1zm-6 6l3-3v1l-3 2zm-7 4l4-2v1l-3 2-1-1zm-6 5l3-3v1l-3 2zm-8 3l4-2v1l-3 2-1-1zm-7 3l4-1-4 2v-1zm-8 2l4-1v1l-4 1v-1zm-8 2l4-1 1 1h-5zm-8 0h4l1 1h-5v-1zm-8 1v-1h4v1h-4zm-3-1v-4h1l-1 4zm-2-11l1-1 1 4c0-2-1-3-2-3zm0 18l1-3h1l-2 3zm-3-8l1-1 3 2-4-1zm-1 15l2-3h1l-3 3zm-2-25l3-2-3 2zm-1 4l1 2 1 1-1 1-1-2v-2zm-2 27l2-3 1 1-3 2zm-7 5l4-3v1l-3 2h-1zm-7 3l4-2v1l-4 1zm-8 1h4l-4 1v-1z"/><path fill="#F59015" d="M884 281l-3 6-2-5 2-2z"/><g transform="translate(875 266)"><mask id="W" fill="#fff"><use xlink:href="#V"/></mask><path fill="#F9DC56" d="M1 1l15 15H6z" mask="url(#W)"/></g><path fill="#FFB023" d="M876 266l-6 15 11 1z"/></g></g></svg>