<svg xmlns="http://www.w3.org/2000/svg" xmlns:xlink="http://www.w3.org/1999/xlink" width="374" height="242" viewBox="0 0 374 242">
    <defs>
        <path id="prefix__a" d="M.22 2.367S63.964 53.6 65.218 51.811c2.402-3.425 3.455-7.807 3.12-11.908-.512-6.243-3.693-11.939-7.306-17.106-3.747-5.354-8.07-10.399-13.352-14.412C42.395 4.373 36.16.888 29.33.563 27.191.46 25.16.417 23.235.417 11.856.417 4.219 1.963.22 2.367"/>
        <path id="prefix__c" d="M.094 3.617c0 1.931 1.563 3.497 3.493 3.497 1.929 0 3.493-1.566 3.493-3.497 0-1.93-1.564-3.496-3.493-3.496C1.657.121.094 1.687.094 3.617"/>
        <path id="prefix__f" d="M.787 2.668c0 1.352 1.094 2.448 2.444 2.448 1.351 0 2.446-1.096 2.446-2.448C5.677 1.316 4.582.221 3.23.221 1.881.22.787 1.316.787 2.668"/>
        <linearGradient id="prefix__d" x1="99.995%" x2="-.006%" y1="49.997%" y2="49.997%">
            <stop offset="0%" stop-color="#FFB218"/>
            <stop offset="100%" stop-color="#FFCF44"/>
        </linearGradient>
        <linearGradient id="prefix__g" x1="100.004%" x2="-.009%" y1="49.996%" y2="49.996%">
            <stop offset="0%" stop-color="#FFB218"/>
            <stop offset="100%" stop-color="#FFCF44"/>
        </linearGradient>
    </defs>
    <g fill="none" fill-rule="evenodd">
        <g>
            <path fill="#619440" d="M61.384 116.873C38.35 119.099 16.37 66.026 7.947 44.703 2.407 30.68 1.398 15.374.451.35 24.513 8.444 53.593 27.064 65.18 49.426c1.924 3.715 3.27 9.603 4.043 13.704 1.62 8.588 2.525 36.467 1.742 45.175-.245 2.726.745 7.57-9.581 8.568" transform="translate(27.584 76.53)"/>
            <path fill="#306B34" d="M3.303 4.176c.485-.42 1.222-.372 1.647.107 5.288 5.962 10.24 11.93 14.912 17.988 1.195-3.306 1.687-6.035 1.753-9.527.012-.424.364-.763.793-.755.429.008.77.36.764.784-.048 2.44-.303 4.57-.844 6.755-.334 1.349-.779 2.719-1.35 4.195 3.665 4.807 7.156 9.673 10.5 14.639.192-1.9.516-3.776.833-5.614.357-2.058.63-3.503.904-4.943.275-1.45.551-2.896.908-4.968.072-.421.476-.7.898-.628.424.07.708.468.636.887-.36 2.081-.637 3.535-.912 4.993-.272 1.434-.546 2.87-.9 4.92-.423 2.441-.857 4.952-.961 7.456 4.062 6.146 7.907 12.451 11.583 18.99l3.61-11.834c.568-1.864 1.16-3.794 1.22-5.746.018-.417.372-.757.8-.744.43.012.768.366.755.79-.037 1.195-.243 2.35-.522 3.478-.225.906-.496 1.793-.765 2.667l-4.05 13.277c4.42 7.989 8.602 16.33 12.624 25.166.112.244.13.505.07.746-.083.333-.314.626-.654.78-.59.259-1.279 0-1.544-.58-1.827-4.016-3.69-7.923-5.59-11.747h-.004c-4.167-.55-7.39-1.116-10.51-1.665-3.103-.546-6.31-1.111-10.444-1.655-.426-.056-.726-.443-.668-.864.056-.413.447-.717.873-.66 4.168.55 7.391 1.116 10.51 1.666 2.838.498 5.77 1.013 9.41 1.514-2.449-4.862-4.964-9.584-7.566-14.187-5.016-1.06-9.362-2.005-13.706-2.95-4.477-.973-8.956-1.946-14.171-3.047-.42-.09-.688-.498-.598-.913.147-.411.503-.68.923-.592 5.219 1.104 9.7 2.078 14.18 3.051 3.948.859 7.896 1.715 12.35 2.661-3.024-5.265-6.165-10.383-9.45-15.39-.017-.017-.032-.038-.049-.057-.15.052-.319.062-.483.012C22.523 40.08 16.112 38.71 7.36 37.58c-.425-.056-.726-.441-.67-.863.065-.43.449-.717.873-.662 8.443 1.091 14.735 2.404 22.76 4.767-3.023-4.538-6.167-8.99-9.455-13.387-6.105-2.63-9.506-3.104-15.866-3.11-.43 0-.778-.344-.778-.77 0-.424.349-.767.777-.767 5.996.005 9.495.517 14.054 2.246-4.947-6.485-10.21-12.862-15.86-19.23-.428-.477-.379-1.205.107-1.627" transform="translate(27.584 76.53)"/>
            <path fill="#FFDE8E" d="M19.69 99.817c2.99 20.442 20.18 45.04 40.045 53.122 6.345 2.582 14 4.08 20.095.728 5.782-3.18 8.49-10.07 7.978-16.314-.511-6.244-3.692-11.94-7.306-17.107-3.746-5.354-8.068-10.398-13.352-14.412-5.284-4.011-11.518-7.497-18.35-7.821-14.783-.701-24.435 1.331-29.11 1.804" transform="translate(27.584 76.53)"/>
        </g>
        <g transform="translate(47.054 173.98)">
            <mask id="prefix__b" fill="#fff">
                <use xlink:href="#prefix__a"/>
            </mask>
            <path fill="#FFBF4D" d="M.22 2.367S63.964 53.6 65.218 51.811c2.402-3.425 3.455-7.807 3.12-11.908-.512-6.243-3.693-11.939-7.306-17.106-3.747-5.354-8.07-10.399-13.352-14.412C42.395 4.373 36.16.888 29.33.563 27.191.46 25.16.417 23.235.417 11.856.417 4.219 1.963.22 2.367" mask="url(#prefix__b)"/>
        </g>
        <path fill="#306B34" d="M17.973 197.435c0 2.925 2.37 5.297 5.292 5.297 2.923 0 5.293-2.372 5.293-5.297 0-2.927-2.37-5.298-5.293-5.298-2.922 0-5.292 2.37-5.292 5.298"/>
        <g transform="translate(31.64 186.973)">
            <mask id="prefix__e" fill="#fff">
                <use xlink:href="#prefix__c"/>
            </mask>
            <path fill="url(#prefix__d)" d="M.094 3.617c0 1.931 1.563 3.497 3.493 3.497 1.929 0 3.493-1.566 3.493-3.497 0-1.93-1.564-3.496-3.493-3.496C1.657.121.094 1.687.094 3.617" mask="url(#prefix__e)"/>
        </g>
        <g transform="translate(23.527 181.289)">
            <mask id="prefix__h" fill="#fff">
                <use xlink:href="#prefix__f"/>
            </mask>
            <path fill="url(#prefix__g)" d="M.787 2.668c0 1.352 1.094 2.448 2.444 2.448 1.351 0 2.446-1.096 2.446-2.448C5.677 1.316 4.582.221 3.23.221 1.881.22.787 1.316.787 2.668" mask="url(#prefix__h)"/>
        </g>
        <g>
            <path fill="#F7E8C8" d="M.697 170.61c0-5.79 66.31-10.483 148.109-10.483 81.797 0 148.107 4.693 148.107 10.483 0 5.79-66.31 10.484-148.107 10.484C67.007 181.094.697 176.4.697 170.61" transform="translate(38.13 59.477)"/>
            <path fill="#FFC581" d="M70.593 10.481L70.574 11.613 72.649 11.876 72.649 9.884z" transform="translate(38.13 59.477)"/>
            <path fill="#FFE2B7" d="M17.188 13.204L17.917 14.665 16.126 15.494 15.729 14.134z" transform="translate(38.13 59.477)"/>
            <path fill="#E7E1D3" d="M19.598 16.489L16.598 17.665 15.593 15.1 18.593 13.924z" transform="translate(38.13 59.477)"/>
            <path fill="#FFE2B7" d="M222.784 7.129L223.253 9.444 221.108 9.779 221.094 7.363z" transform="translate(38.13 59.477)"/>
            <path fill="#FFC581" d="M221.408.497c-.416.064-.694.504-.62.981l.338 2.182.754-.117-.472-3.046z" transform="translate(38.13 59.477)"/>
            <path fill="#FFE2B7" d="M220.127 4.222s.74-.668 1.187-.784c.246-.064.527-.614.717-.276.083.15.475.696.637 1.422.153.681.13 2.265.205 2.896.046.396-.864.509-1.477.617-.408.071-.829-.656-.91-1.062l-.359-2.813z" transform="translate(38.13 59.477)"/>
            <path fill="#E7E1D3" d="M221.4 12.522L220.505 9.283 224.406 8.322 225.3 11.561z" transform="translate(38.13 59.477)"/>
            <path fill="#FB8875" d="M36.723 163.241L33.231 151.666 38.73 150.873 38.498 163.8z" transform="translate(38.13 59.477)"/>
            <path fill="#FB8875" d="M34.873 169.253s1.956-2.44 2.18-3.637c.04-.208-3.025-10.408-3.025-10.408l4.536 3.92.35 7.508s-2.469 3.123-2.57 3.134c-.104.008-1.471-.517-1.471-.517" transform="translate(38.13 59.477)"/>
            <path fill="#7F786A" d="M38.871 165.787s1.262.69 1.002 2.413c-.26 1.723-.321 2.721-.321 2.721l-.683.065-.361-1.856s-.676.498-1.393 1.834c-.322.602-4.037.433-4.037.433s-.801-.62.573-1.373c.342-.187 1.295-.85 1.295-.85s.613.677 1.452-.013c.376-.31 1.065-1.13 1.542-1.82.587-.848.931-1.554.931-1.554" transform="translate(38.13 59.477)"/>
            <path fill="#A29C8F" d="M41.125 42.401c1.95 3.277 8.807 12.733 10.725 23.983.976 5.731-11.443 2.968-11.443 2.968l-.32 36.181 3.03 51.41-9.328.376s-8.692-35.956-10.925-46.208c-2.191-10.063-7.19-36.358-5.843-49.674.83-8.207 3.21-15.805 4.756-19.953.665-1.782 1.861-3.33 2.03-3.611 2.038 1.307 11.856 5.422 17.318 4.528" transform="translate(38.13 59.477)"/>
            <path fill="#FFC581" d="M71.927 3.183c.426.066.71.516.634 1.004l-.345 2.232-.772-.119.483-3.117z" transform="translate(38.13 59.477)"/>
            <path fill="#FFC581" d="M73.237 6.995s-.756-.684-1.214-.803c-.252-.065-.54-.628-.733-.282-.086.152-.487.712-.653 1.455-.155.697-.132 2.318-.209 2.962-.047.407.884.521 1.512.632.416.074.848-.67.93-1.086l.367-2.878z" transform="translate(38.13 59.477)"/>
            <path fill="#F47A69" d="M81.165 168.699s-1.605-2.62-2.253-4.029c-.097-.212-2.983-12.628-2.983-12.628l-3.787 2.714 4.774 10.128s.078 2.195 2.63 4.332c.084.07 1.619-.517 1.619-.517" transform="translate(38.13 59.477)"/>
            <path fill="#7F786A" d="M76.86 164.852s-1.382.739-1.119 2.62c.264 1.88.32 2.968.32 2.968l.742.078.416-2.02s.73.55 1.496 2.015c.345.658 4.394.511 4.394.511s.881-.667-.608-1.501c-.37-.207-1.401-.94-1.401-.94s-.676.732-1.583-.03c-.406-.34-1.148-1.242-1.659-1.997-.63-.931-.997-1.704-.997-1.704M48.056 38.62c7.171 6.324 12.872 14.418 15.922 25.895 1.528 5.748 12.968 91.938 12.968 91.938l-9.226.946S43.387 96.494 38.972 74.326c-1.601-8.034-6.51-25.739-4.665-33.657 2.477-1.151 8.279-.778 13.749-2.05" transform="translate(38.13 59.477)"/>
        </g>
        <path fill="#FFBF4D" d="M111.585 208.354L258.52 208.354 258.52 1.823 111.585 1.823z"/>
        <g>
            <path fill="#F9F1E4" d="M181.256 36.104L185.136 43.972 193.81 45.234 187.533 51.358 189.015 60.005 181.256 55.922 173.498 60.005 174.979 51.358 168.703 45.234 177.378 43.972zM157.429 71.21L157.429 77.103 160.949 77.103 160.949 78.439 155.841 78.439 155.841 71.21zM163.421 75.74c.071.288.184.547.339.776.156.23.358.413.607.552.25.138.553.208.91.208.358 0 .661-.07.91-.208.25-.14.453-.323.608-.552.155-.23.267-.488.338-.775.071-.287.106-.582.106-.886 0-.317-.035-.624-.106-.921-.07-.297-.183-.562-.338-.795-.155-.232-.358-.42-.607-.557-.25-.138-.553-.208-.91-.208-.358 0-.662.07-.91.208-.25.138-.452.325-.608.557-.155.233-.268.498-.339.795-.07.297-.106.604-.106.92 0 .305.036.6.106.887m-1.45-2.39c.16-.462.393-.865.697-1.21.303-.343.676-.612 1.118-.809.441-.196.938-.294 1.492-.294.56 0 1.058.098 1.496.294.439.197.81.466 1.113.81.303.344.536.747.698 1.21.162.462.243.964.243 1.503 0 .527-.081 1.017-.243 1.474-.162.455-.395.85-.698 1.189-.304.337-.674.603-1.113.795-.438.192-.937.288-1.496.288-.554 0-1.05-.096-1.492-.288-.442-.192-.815-.458-1.118-.795-.304-.338-.536-.734-.698-1.19-.162-.456-.243-.946-.243-1.473 0-.54.08-1.041.243-1.503M175.412 78.44L174.188 73.518 174.167 73.518 172.964 78.44 171.356 78.44 169.444 71.21 171.033 71.21 172.175 76.131 172.195 76.131 173.45 71.21 174.937 71.21 176.171 76.191 176.191 76.191 177.374 71.21 178.932 71.21 176.99 78.44zM187.509 73.139c-.095-.152-.213-.285-.354-.4-.142-.114-.302-.204-.48-.268-.18-.064-.366-.096-.562-.096-.358 0-.661.07-.911.207-.249.138-.451.325-.607.557-.155.233-.268.498-.338.795-.07.297-.106.604-.106.92 0 .305.035.6.106.887.07.288.183.545.338.774.156.23.358.414.607.553.25.138.553.208.911.208.485 0 .865-.15 1.138-.446.273-.297.44-.689.5-1.175h1.537c-.04.453-.144.86-.313 1.225-.168.365-.39.675-.667.932-.277.256-.6.452-.971.587-.371.135-.78.203-1.224.203-.553 0-1.05-.097-1.492-.29-.442-.191-.814-.456-1.118-.794-.303-.337-.536-.735-.697-1.19-.163-.456-.243-.946-.243-1.473 0-.54.08-1.041.243-1.503.161-.463.394-.866.697-1.21.304-.344.676-.614 1.118-.81.442-.196.939-.294 1.492-.294.398 0 .773.058 1.128.172.354.116.67.283.95.502.28.22.51.491.693.815.182.324.297.695.344 1.113h-1.537c-.028-.182-.088-.35-.182-.501M191.954 75.74c.07.288.183.547.338.776.156.23.358.413.607.552.25.138.553.208.911.208.357 0 .66-.07.91-.208.25-.14.451-.323.607-.552.155-.23.268-.488.339-.775.07-.287.106-.582.106-.886 0-.317-.035-.624-.106-.921-.071-.297-.184-.562-.339-.795-.156-.232-.358-.42-.607-.557-.25-.138-.553-.208-.91-.208-.358 0-.661.07-.91.208-.25.138-.452.325-.608.557-.155.233-.268.498-.338.795-.07.297-.106.604-.106.92 0 .305.035.6.106.887m-1.451-2.39c.161-.462.394-.865.697-1.21.304-.343.676-.612 1.117-.809.443-.196.94-.294 1.493-.294.56 0 1.058.098 1.497.294.438.197.809.466 1.112.81.304.344.536.747.698 1.21.162.462.242.964.242 1.503 0 .527-.08 1.017-.242 1.474-.162.455-.394.85-.698 1.189-.303.337-.674.603-1.112.795-.439.192-.937.288-1.497.288-.553 0-1.05-.096-1.493-.288-.441-.192-.813-.458-1.117-.795-.303-.338-.536-.734-.697-1.19-.163-.456-.243-.946-.243-1.473 0-.54.08-1.041.243-1.503M199.858 76.657c.088.169.204.306.35.41.144.106.315.182.51.234.196.05.398.075.607.075.141 0 .293-.011.455-.035.162-.024.313-.069.455-.137.142-.067.26-.16.354-.278.094-.117.142-.27.142-.451 0-.195-.062-.354-.187-.476-.125-.121-.288-.222-.491-.304-.202-.08-.432-.15-.688-.212-.256-.061-.515-.129-.778-.203-.27-.067-.533-.15-.79-.247-.256-.099-.485-.224-.688-.38-.202-.155-.365-.35-.49-.583-.124-.233-.187-.514-.187-.845 0-.371.08-.693.238-.966.158-.274.366-.501.622-.684.256-.181.546-.317.87-.405.323-.087.647-.132.97-.132.378 0 .74.043 1.088.127.347.085.655.22.926.41.269.189.483.43.642.724.158.293.237.65.237 1.068h-1.537c-.013-.215-.06-.395-.137-.537-.077-.142-.18-.252-.308-.333-.128-.082-.275-.14-.44-.173-.165-.034-.345-.05-.54-.05-.129 0-.258.013-.385.04-.128.028-.245.075-.35.142-.104.067-.19.152-.257.253-.067.102-.102.23-.102.384 0 .143.027.257.082.345.053.087.16.169.318.243.159.074.378.149.658.222.28.075.645.169 1.097.284.135.027.321.076.562.147.238.07.477.184.713.34.236.154.44.362.611.622.172.26.258.592.258.997 0 .33-.064.638-.192.922-.128.282-.319.528-.572.733-.252.206-.566.367-.94.482-.374.114-.808.172-1.3.172-.398 0-.783-.05-1.158-.148-.374-.097-.704-.251-.992-.46-.286-.208-.513-.476-.682-.8-.169-.324-.249-.71-.243-1.154h1.538c0 .243.044.45.131.617M204.845 72.546L204.845 71.21 210.761 71.21 210.761 72.546 208.597 72.546 208.597 78.44 207.009 78.44 207.009 72.546zM138.468 93.872L140.803 93.872 140.803 83.244 138.468 83.244zM145.473 83.244L149.904 90.374 149.934 90.374 149.934 83.244 152.121 83.244 152.121 93.872 149.786 93.872 145.369 86.757 145.339 86.757 145.339 93.872 143.153 93.872 143.153 83.244zM156.255 91.252c.128.249.299.45.512.603.214.155.464.268.752.342.287.075.585.112.892.112.208 0 .43-.018.67-.052.237-.035.46-.102.668-.201.208-.1.382-.236.52-.41.14-.173.21-.394.21-.661 0-.288-.093-.522-.276-.7-.184-.179-.424-.328-.721-.447-.298-.12-.635-.223-1.012-.312-.376-.09-.758-.188-1.145-.298-.396-.099-.783-.221-1.16-.364-.377-.145-.714-.33-1.01-.559-.298-.228-.54-.513-.723-.857-.183-.34-.275-.755-.275-1.241 0-.547.117-1.02.35-1.422.233-.402.538-.737.914-1.005.378-.269.804-.466 1.28-.596.475-.128.951-.193 1.427-.193.556 0 1.088.061 1.599.187.51.123.964.324 1.36.602.397.278.712.633.945 1.063.233.433.35.956.35 1.572h-2.26c-.021-.318-.088-.581-.202-.79-.114-.209-.265-.372-.454-.49-.188-.12-.404-.204-.646-.254-.244-.05-.509-.074-.796-.074-.188 0-.376.02-.565.06-.189.04-.359.108-.513.208-.154.1-.28.223-.38.372-.099.149-.148.338-.148.566 0 .208.04.377.119.505.08.13.235.249.469.358.232.11.555.219.966.328.411.109.95.247 1.614.416.198.04.473.112.825.216s.702.27 1.049.498c.346.228.646.535.899.916.253.383.38.87.38 1.467 0 .485-.095.937-.283 1.354-.189.417-.469.777-.84 1.08-.372.302-.833.537-1.384.706-.55.17-1.187.254-1.91.254-.586 0-1.153-.072-1.703-.216-.55-.144-1.036-.37-1.457-.678-.422-.308-.756-.699-1.005-1.176-.247-.476-.366-1.042-.357-1.697h2.26c0 .357.066.66.195.908M172.226 93.061c-.803.7-1.914 1.05-3.331 1.05-1.438 0-2.55-.348-3.339-1.043-.788-.695-1.182-1.765-1.182-3.215v-6.61h2.334v6.61c0 .288.025.571.075.849.05.278.153.523.312.736.159.214.38.388.662.522.283.134.662.2 1.138.2.832 0 1.407-.186 1.725-.557.317-.373.476-.955.476-1.75v-6.61h2.335v6.61c0 1.44-.402 2.509-1.205 3.208M180.628 88.052c.535 0 .937-.12 1.205-.357.268-.238.4-.626.4-1.161 0-.516-.132-.891-.4-1.124-.268-.233-.67-.35-1.205-.35h-2.558v2.992h2.558zm.832-4.808c.477 0 .905.077 1.287.23.382.155.71.366.982.634.272.267.48.577.624.929.144.353.215.732.215 1.138 0 .627-.131 1.167-.393 1.624-.263.457-.691.804-1.287 1.042v.03c.288.078.526.2.714.364.188.164.343.358.461.58.12.224.206.47.26.738.055.267.092.535.112.803.01.17.02.368.03.596.01.229.027.461.052.7.025.238.064.463.119.677.054.214.136.394.245.543h-2.334c-.13-.337-.209-.739-.238-1.205-.03-.467-.075-.913-.135-1.34-.08-.556-.247-.963-.505-1.221-.258-.258-.68-.387-1.264-.387h-2.335v4.153h-2.335V83.244h5.725zM192.198 89.764l-1.34-3.9h-.03l-1.382 3.9h2.752zm-.134-6.52l3.97 10.629h-2.424l-.803-2.368h-3.97l-.833 2.368h-2.35l4.016-10.629h2.394zM199.573 83.244L204.005 90.374 204.035 90.374 204.035 83.244 206.221 83.244 206.221 93.872 203.886 93.872 199.469 86.757 199.439 86.757 199.439 93.872 197.253 93.872 197.253 83.244zM215.381 86.08c-.138-.224-.312-.42-.52-.589-.208-.168-.443-.3-.706-.394-.263-.094-.538-.141-.826-.141-.525 0-.971.101-1.338.304-.367.204-.664.477-.892.82-.228.343-.395.73-.498 1.168-.104.437-.157.888-.157 1.354 0 .447.053.881.157 1.304.103.42.27.8.498 1.137.228.338.525.608.892.812.367.203.813.305 1.338.305.714 0 1.272-.217 1.673-.655.401-.435.647-1.012.736-1.725h2.26c-.059.664-.213 1.263-.46 1.8-.248.536-.575.992-.982 1.37-.406.377-.883.664-1.428.862-.545.2-1.144.298-1.8.298-.812 0-1.543-.14-2.192-.424-.65-.282-1.197-.673-1.644-1.168-.446-.496-.787-1.08-1.025-1.75-.239-.67-.358-1.39-.358-2.166 0-.793.12-1.529.358-2.21.238-.68.58-1.273 1.025-1.78.447-.505.994-.901 1.644-1.19.649-.287 1.38-.431 2.193-.431.585 0 1.138.085 1.658.253.521.169.987.414 1.398.737.411.322.751.722 1.019 1.198.268.477.436 1.022.505 1.637h-2.26c-.04-.268-.129-.514-.268-.736M227.828 83.244L227.828 85.209 222.222 85.209 222.222 87.486 227.367 87.486 227.367 89.302 222.222 89.302 222.222 91.907 227.948 91.907 227.948 93.872 219.887 93.872 219.887 83.244zM141.826 123.062L223.632 123.062 223.632 117.088 141.826 117.088zM141.826 139.935L223.632 139.935 223.632 133.962 141.826 133.962zM141.826 173.684L181.53 173.684 181.53 167.71 141.826 167.71z" transform="translate(0 .195)"/>
            <path fill="#FFDE8E" d="M112.595 207.149H257.51V2.639H112.595v204.51zm145.925 2.022H111.585c-.557 0-1.01-.452-1.01-1.011V1.628c0-.558.453-1.01 1.01-1.01H258.52c.558 0 1.01.452 1.01 1.01V208.16c0 .559-.452 1.01-1.01 1.01z" transform="translate(0 .195)"/>
            <path fill="#FB8875" d="M240.317 230.479l.092.035c.648.257 1.382-.06 1.638-.709l2.547-6.44c.257-.648-.06-1.382-.709-1.639l-.091-.036c-.648-.257-1.381.06-1.638.71l-2.548 6.438c-.256.65.061 1.384.71 1.64" transform="translate(0 .195)"/>
            <path fill="#7F786A" d="M232.333 231.846c-.003.361.296.658.667.66l9.019.076c.475.005.835-.416.745-.872l-.116-1.597c-.033-.456-.42-.811-.89-.815 0 0-.238.699-1.087.8-.687.08-.913-.474-.987-.873-.036-.193-.246-.31-.442-.242l-6.475 2.256c-.26.096-.431.337-.434.607" transform="translate(0 .195)"/>
            <path fill="#FB8875" d="M283.695 230.292c-.721-.063-1.255-.7-1.192-1.422l.594-6.802c.063-.722 3.411-1.256 4.133-1.193.72.063-1.457.7-1.52 1.422l-.595 6.802c-.063.721-.699 1.256-1.42 1.193" transform="translate(0 .195)"/>
            <path fill="#7F786A" d="M291.58 113.303c-12.37 17.329-3.012 13.738-3.723 27.587l-2.04 29.556-3.27 55.644 6.88.074s13.76-47.67 16.053-58.938c5.898-28.987 5.84-54.46 4.923-56.21-2.41 1.319-12.75 3.562-18.822 2.287" transform="translate(0 .195)"/>
            <path fill="#A29C8F" d="M277.258 111.61c-3.672 5.91-10.728 19.62-13.562 28.776-3.369 10.88-22.925 84.679-22.925 84.679l6.435.94s23.004-37.756 29.762-50.056c4.424-8.052 13.317-26.427 16.49-34.623 2.821-7.29 9.727-26.786 9.727-26.786s-24.051-1.93-25.927-2.93" transform="translate(0 .195)"/>
            <path fill="#7F786A" d="M291.565 231.747c0 .361-.29.655-.649.655h-8.714c-.459 0-.804-.425-.713-.879l.126-1.596c.036-.457.413-.807.866-.807 0 0 .224.7 1.043.808.664.087.887-.466.961-.864.037-.193.24-.309.43-.24l6.237 2.313c.25.097.413.34.413.61" transform="translate(0 .195)"/>
            <path fill="#E7E1D3" d="M321.381 93.534l-3.088 14.151s-22.58-22.786-27.456-26.328c-5.8-4.214.493-1.273 4.788-7.017 0 0 3.981-.65 9.09 1.727 5.66 2.632 16.666 17.467 16.666 17.467" transform="translate(0 .195)"/>
            <path fill="#F5EFE4" d="M310.85 112.867s-6.473 2.789-15.511 3.165c-7.638.32-19.767-1.548-19.56-2.94 1.129-7.615 1.893-25.283 1.893-25.283.278-5.812-3.289-12.15 9.96-12.353l10.754-.937c6.238.298 8.983 5.35 11.673 14.044 1.723 5.571.79 24.304.79 24.304" transform="translate(0 .195)"/>
            <path fill="#F5EFE4" d="M272.142 106.747l-9.791-5.563 12.74-19.844c3.161-5.08 11.335-8.212 17.418-4.42l-.189.587-20.178 29.24z" transform="translate(0 .195)"/>
            <path fill="#F5EFE4" d="M265.769 71.015c5.032 3.525 7.77 16.805 7.535 23.834-.264 7.842.893 13.062-4.737 14.761-3.51 1.06-8.09-7.969-9.15-11.868-.06-.221-.146-.612-.146-.612s-.543-26.415-.011-26.685c1.596-.812 4.465-.862 6.509.57" transform="translate(0 .195)"/>
            <path fill="#FCBD30" d="M75.836 51.731s9.379-5.298 13.698 3.848c1.973 4.178 5.843 13.142 14.873 10.939 0 0 .152 9.419-10.624 13.596-11.76 4.56-23.503-8.267-23.523-15.95-.02-7.685 5.576-12.433 5.576-12.433" transform="translate(0 .195)"/>
            <path fill="#FCBD30" d="M78.452 51.015s-3.577-1.07-4.961.025c-2.211 1.751-.385 4.842-.385 4.842l5.346-4.867z" transform="translate(0 .195)"/>
            <path fill="#E7E1D3" d="M89.534 55.58c-.598-1.004-1.24-1.974-2.065-2.772-.835-.778-1.798-1.399-2.852-1.768-2.127-.75-4.466-.44-6.591.263-.081.027-.172.029-.25.012-.727-.16-1.47-.272-2.19-.284-.713-.008-1.447.083-1.85.465-1.03.828-1.019 2.37-.443 3.684.065.147.046.315-.034.442-1.38 2.168-2.288 4.63-2.603 7.192-.162 1.293-.117 2.563.178 3.836.284 1.27.775 2.496 1.341 3.689-.73-1.104-1.32-2.304-1.74-3.578-.453-1.269-.537-2.672-.458-4.005.132-2.702 1.057-5.342 2.472-7.64l-.033.442c-.326-.758-.553-1.584-.506-2.47.031-.88.466-1.809 1.175-2.36.79-.65 1.728-.67 2.523-.66.819.03 1.604.167 2.377.351l-.249.012c2.264-.743 4.841-.932 7.105.024 1.123.46 2.117 1.198 2.896 2.1.776.908 1.345 1.95 1.797 3.024" transform="translate(0 .195)"/>
            <path fill="#E7E1D3" d="M60.974 96.335c-3.575 2.37-5.993-4.693-5.993-4.693s3.268-9.541 5.843-13.61C69.408 64.475 73.162 66.49 74.714 70c.121.272.135.889.072 1.175-1.504 6.955-8.01 21.313-13.812 25.159" transform="translate(0 .195)"/>
            <path fill="#F5EFE4" d="M57.773 74.776s1.923 5.645 2.984 11.737c.859 4.94 3.795 11.06-2.383 10.897-2.808-.074-5.18-.785-6.24-8.157-.628-4.362-.124-9.282.862-11.753.537-1.347 4.777-2.724 4.777-2.724" transform="translate(0 .195)"/>
            <path fill="#FFE2B7" d="M53.571 70.173s-1.116.508-1.338.864c-.168.273-.2 1.137-.2 1.137s1.98 1.499 2.636 1.284c.313-.103.707-.748.972-1.25.176-.331.099-.73-.176-.895l-1.894-1.14z" transform="translate(0 .195)"/>
            <path fill="#FFC581" d="M109.981 63.02c.43.026.357.255.327.748l-.221.757-.058 1.43-.866-.04.2-1.534.618-1.36z" transform="translate(0 .195)"/>
            <path fill="#FFE2B7" d="M111.51 65.78c.257.284.2.755-.128 1.052l-1.498 1.354.192-1.096 1.434-1.31z" transform="translate(0 .195)"/>
            <path fill="#7F786A" d="M61.007 63.007s-1.301 2.242-1.864 2.644c-.563.401-1.505.288-1.505.288s-2.693 3.195-3.028 5.466c-.334 2.271.99 2.576.627 3.272-.363.697-2.47 1.477-3.65.705-1.18-.771-1.046-1.943-1.046-1.943l2.775-8.365s-1.445-.573-1.668-.916c-.51-.782.323-3.186.323-3.186l9.036 2.035z" transform="translate(0 .195)"/>
            <path fill="#A29C8F" d="M67.072 57.64l.603.263c1.052.462 1.587 1.644 1.238 2.74l-.178.557c-.344 1.085-1.446 1.738-2.563 1.522l-1.114-.216 2.014-4.866z" transform="translate(0 .195)"/>
            <path fill="#A29C8F" d="M45.819 35.836s1.266 6.317 9.344 11.54c8.078 5.22 10.94 7.497 10.94 7.497s2.865 2.19.78 6.25c-2.085 4.059-6.702 2.3-8.965 1.812-5.984-1.292-15.105-5.026-22.912 1.02L45.82 35.836z" transform="translate(0 .195)"/>
            <path fill="#96D7E0" d="M26.167 44.49C22.268 53.777 23.13 63 28.091 65.085c4.962 2.088 12.145-3.751 16.044-13.04 3.9-9.288 3.038-18.51-1.924-20.596-4.962-2.087-12.145 3.75-16.044 13.04" transform="translate(0 .195)"/>
            <path fill="#7F786A" d="M27.193 44.92c-3.454 8.229-2.69 16.397 1.705 18.246 4.395 1.849 10.758-3.323 14.211-11.551 3.454-8.228 2.69-16.396-1.704-18.245-4.396-1.849-10.759 3.323-14.212 11.55" transform="translate(0 .195)"/>
            <path fill="#FFF0D2" d="M45.348 47.24L35.941 45.26 33.795 50.582 41.901 55.653z" transform="translate(0 .195)"/>
            <path fill="#FCC23F" d="M33.447 47.347c-.592 1.47-.436 2.918.349 3.235.785.317 1.902-.616 2.494-2.086.592-1.47.436-2.919-.349-3.236-.785-.316-1.902.618-2.494 2.087" transform="translate(0 .195)"/>
            <path fill="#A29C8F" d="M27.193 44.92c3.453-8.227 9.816-13.399 14.212-11.55 4.395 1.849 5.158 10.017 1.704 18.245-3.453 8.228-9.816 13.4-14.21 11.551-4.396-1.849-5.16-10.017-1.706-18.245m.899 20.165c4.961 2.087 12.145-3.75 16.044-13.04 3.898-9.288 3.036-18.51-1.926-20.596-4.961-2.087-12.144 3.75-16.043 13.04-3.899 9.288-3.037 18.51 1.925 20.596M52.06 68.29l.89.288c.07.022.145-.017.166-.087l.813-2.653c.022-.07-.018-.144-.088-.166 0 0-1.103-.477-1.124-.406l-.657 3.025z" transform="translate(0 .195)"/>
            <path fill="#7F786A" d="M51.558 68.044l.35.178c.141.072.315.015.387-.127l1.111-2.198c.073-.141.016-.315-.126-.387l-.35-.178c-.142-.072-.315-.015-.388.127l-1.111 2.197c-.072.142-.015.316.127.388" transform="translate(0 .195)"/>
            <path fill="#F5EFE4" d="M62.14 98.193s-.207 2.144 8.86 2.927c8.3.717 15.186-3.218 15.186-3.218S84.07 85.507 88.42 79.008c2.946-4.402.206-10.784-6.567-11.47 0 0-6.149-1.18-9.253-.646-7.464 1.285-9.995 11.664-10.619 17.592-.604 5.74.159 13.709.159 13.709" transform="translate(0 .195)"/>
            <path fill="#FFE2B7" d="M77.463 68.212l-.08.004c-.57.027-1.052-.413-1.08-.983l-.17-3.567c-.028-.57.411-1.054.98-1.081l.08-.004c.57-.027 1.053.412 1.08.982l.171 3.568c.028.57-.412 1.054-.98 1.08" transform="translate(0 .195)"/>
            <path fill="#FFC581" d="M76.15 64.038c-.169-1.779.401-1.658.992-1.686.592-.028 1.106.68 1.15 1.583l.113 2.361c.023.494-.878.307-1.524-.433-.423-.485-.686-.896-.686-.896l-.045-.93z" transform="translate(0 .195)"/>
            <path fill="#FFE2B7" d="M81.022 59.722c.892-2.007.491-4.179-1.217-5.29-3.658-2.377-5.763 2.53-6.555 4.88-.64 1.9-.455 3.835-.455 3.835s1.917 1.133 3.492 1.044c1.416-.08 2.522-.296 3.563-2.175.93-1.676.798-1.45 1.172-2.294" transform="translate(0 .195)"/>
            <path fill="#FFE2B7" d="M80.26 60.603c-.868.504-1.34 1.313-1.054 1.808.286.494 1.222.485 2.09-.02.869-.505 1.34-1.314 1.054-1.807-.286-.494-1.221-.485-2.09.02" transform="translate(0 .195)"/>
            <path fill="#F5EFE4" d="M93.455 94.977c6.298 4.102 7.437-5.672 7.437-5.672s-4.474-4.815-6.56-8.909c-6.945-13.64-9.762-12.534-11.696-9.313-.15.251-1.25 2.044-1.221 2.322.696 6.76 6.429 17.918 12.04 21.572" transform="translate(0 .195)"/>
            <path fill="#FCBD30" d="M76.926 52.907s-1.328 2.841.4 5.302c.726 1.033 2.637 2.04 4.371 2.675 5.866 2.15.439-8.592-4.771-7.977" transform="translate(0 .195)"/>
            <path fill="#FFE2B7" d="M52.667 68.795c.273.261.331.64.128.847l-.998 1.082s-.365-.335-.349-.52c.04-.46 1.219-1.409 1.219-1.409" transform="translate(0 .195)"/>
            <path fill="#FFE2B7" d="M52.562 69.538c.274.26.331.64.13.847l-1 1.081s-.435-.425-.419-.61c.04-.46 1.29-1.318 1.29-1.318" transform="translate(0 .195)"/>
            <path fill="#FFE2B7" d="M52.433 70.352c.202.32.165.702-.082.853l-1.234.804s-.246-.411-.185-.587c.15-.435 1.501-1.07 1.501-1.07" transform="translate(0 .195)"/>
            <path fill="#FFE2B7" d="M52.234 71.037c.129.274.028.59-.225.706 0 0-1.109.617-1.193.62-.15.002-.238-.372-.17-.505.204-.396 1.588-.82 1.588-.82M53.969 69.216c-.302.249-.345.695-.097.998l1.016 1.403.75-.137-1.67-2.264z" transform="translate(0 .195)"/>
            <path fill="#7F786A" d="M62.038 96.75s1.587 2.67 9.238 2.747c7.652.076 14.742-2.9 14.742-2.9l2.302 3.313s-7.654 4.608-17.824 3.873c-10.17-.735-10.5-3.235-10.5-3.235s.537-1.21.742-1.6c.298-.565 1.3-2.199 1.3-2.199" transform="translate(0 .195)"/>
            <path fill="#A29C8F" d="M65.738 103.563L63.33 102.906 64.28 98.319 66.275 98.945zM80.982 98.201L82.326 102.803 84.665 101.953 83.15 97.532z" transform="translate(0 .195)"/>
            <path fill="#FCC23F" d="M68.623 101.698c.033.525.285 1.02.71 1.398.425.378.972.593 1.536.595 1.926.021 3.385-.12 4.246-.411l-.009-3.405-4.545-.06c-1.135-.016-2.004.829-1.938 1.883m2.091 2.645c-.682-.053-1.333-.328-1.85-.79-.572-.505-.91-1.17-.954-1.873-.088-1.414 1.078-2.547 2.6-2.527l4.926.066c.105.008.197.041.269.109.073.068.114.158.114.25l.01 3.964c0 .122-.073.23-.19.276-.925.379-2.513.558-4.717.535-.07-.001-.14-.004-.208-.01" transform="translate(0 .195)"/>
            <path fill="#FCC23F" d="M70.92 102.1c-.588-.047-.926-.122-.955-.129-.19-.044-.304-.223-.257-.402.048-.18.242-.29.427-.246.016.002 1.518.335 3.82-.01.193-.027.372.095.401.278.03.181-.104.352-.296.38-1.345.202-2.427.186-3.14.13" transform="translate(0 .195)"/>
            <path fill="#FFC581" d="M80.625 62.734c-.055.422-.44.719-.862.664-.42-.056-.717-.441-.662-.863.055-.421.44-.718.861-.663.421.055.718.44.663.862" transform="translate(0 .195)"/>
            <path fill="#E7E1D3" d="M76.969 52.365c-.208.955-.31 1.904-.253 2.818.081.896.288 1.814.767 2.499.47.72 1.208 1.29 1.965 1.833.775.527 1.61.991 2.472 1.458-.98-.107-1.923-.421-2.823-.852-.896-.436-1.752-1.04-2.369-1.932-.604-.925-.788-1.993-.71-3.013.09-1.015.394-1.993.951-2.811" transform="translate(0 .195)"/>
            <path fill="#7F786A" d="M289.633 69.056s-4.883-2.546-5.022-4.234c-.238-2.888 3.774-12.78 4.548-8.875 0 0 3.778-4.882 9.231-6.048.394-.084.62.42.306.678-1.623 1.33-4.415 3.57-4.27 4.822 0 0 2.152-1.65 4.128-2.221.402-.116.684.379.395.686-.704.747-1.643 1.834-1.914 2.579-.497 1.368 1.667 4.935 1.435 7.528-.23 2.595-6.253 7.461-8.837 5.085" transform="translate(0 .195)"/>
            <path fill="#FCE5BE" d="M289.633 69.056c-1.426-.641-2.822-1.373-4.07-2.386-.303-.264-.61-.53-.865-.88-.138-.158-.243-.371-.338-.584-.086-.252-.116-.483-.116-.688-.004-.842.13-1.631.316-2.407.377-1.548.89-3.047 1.53-4.508.326-.73.686-1.443 1.195-2.122.13-.17.27-.337.446-.5.187-.148.37-.355.81-.386.485-.004.74.377.848.595.106.236.158.456.205.67l-.786-.185c1.243-1.5 2.695-2.738 4.314-3.754 1.598-1.031 3.411-1.75 5.268-2.022-.89.302-1.765.614-2.579 1.063-.81.447-1.605.913-2.341 1.47-1.466 1.1-2.824 2.396-3.96 3.787-.158.193-.44.22-.632.064-.079-.064-.13-.149-.152-.24l-.002-.01c-.042-.164-.086-.324-.143-.443-.07-.114-.092-.095-.02-.08.01-.037-.35.264-.52.536-.413.581-.75 1.276-1.087 1.955-.645 1.383-1.182 2.839-1.578 4.314-.18.738-.375 1.486-.418 2.209-.094.633.448 1.205.972 1.74 1.1 1.05 2.396 1.941 3.703 2.792" transform="translate(0 .195)"/>
            <path fill="#FFE2B7" d="M310.697 72.144L311.702 75.377 314.14 74.615 312.434 71.992 311.093 71.992z" transform="translate(0 .195)"/>
            <path fill="#FFE2B7" d="M312.93 70.233s1.166.53 1.396.902c.176.285.21 1.187.21 1.187s-2.068 1.565-2.752 1.34c-.327-.107-.738-.78-1.015-1.304-.184-.347-.103-.762.184-.934l1.977-1.19z" transform="translate(0 .195)"/>
            <path fill="#E7E1D3" d="M318.391 76.432c8.5 4.653 7.459 17.834 6.971 25.397-.56 8.693-7.184 8.119-8.044 4.31-1.339-5.935-4.698-18.896-6.065-26.383-.343-1.872.909-3.642 2.755-3.891 1.42-.194 3.055-.16 4.383.567" transform="translate(0 .195)"/>
            <path fill="#FFE2B7" d="M295.397 76.375l-.157.016c-1.11.104-2.095-.71-2.2-1.821l-.3-3.137c-.106-1.111.708-2.098 1.818-2.204l.156-.015c1.11-.105 2.095.71 2.202 1.82l.3 3.137c.105 1.111-.71 2.098-1.819 2.204" transform="translate(0 .195)"/>
            <path fill="#FFC581" d="M292.72 71.228c-.094-.998.763-1.897 1.916-2.006 1.153-.11 2.165.609 2.26 1.608l.25 2.612c.051.544-1.524.355-2.79-.382-.831-.484-1.582-1.266-1.582-1.266l-.053-.566z" transform="translate(0 .195)"/>
            <path fill="#7F786A" d="M297.26 78.748l-.102.035c-.722.244-1.506-.143-1.75-.865l-.557-1.644 2.716-.921.556 1.643c.245.723-.142 1.507-.864 1.752" transform="translate(0 .195)"/>
            <path fill="#7F786A" d="M303.329 100.684l-2.943 3.402-4.052-3.44-.303-23.567s1.104-.33 1.286-.064c5.588 8.113 6.012 23.669 6.012 23.669" transform="translate(0 .195)"/>
            <path fill="#FCE5BE" d="M293.858 79.369L290.823 75.178 292.929 73.416 296.479 75.737z" transform="translate(0 .195)"/>
            <path fill="#FFE2B7" d="M299.288 77.694L299.061 74.572 297.179 73.529 296.339 75.717z" transform="translate(0 .195)"/>
            <path fill="#E7E1D3" d="M312.119 77.31L311.117 74.999 314.521 73.521 315.522 75.832z" transform="translate(0 .195)"/>
            <path fill="#7F786A" d="M312.916 75.456c-.018.282-.262.494-.542.476-.281-.02-.494-.262-.475-.543.019-.282.261-.494.543-.475.28.018.493.261.474.542M307.609 66.051l1.014 1.457c.108.157.277.263.466.281.27.025.701.166 1.086.727.616.898 4.349 8.235 6.839 8.833 2.49.599 4.665-2.098 4.326-3.497-.337-1.397-4.394-1.56-4.956-2.887-.062-.148-.116-.28-.163-.397-.215-.541-.574-1.58-1.015-1.962-.431-.372-.802-.362-.914-1.748-.04-.506 1.16-1.45 1.178-2.176.036-1.369-1.065-2.534-1.065-2.534l-6.796 3.903zM306.264 60.055c1.482 3.169 1.474 6.277-.017 6.941-1.492.664-3.903-1.367-5.384-4.535-1.482-3.17-1.475-6.278.017-6.942 1.491-.664 3.902 1.367 5.384 4.536" transform="translate(0 .195)"/>
            <path fill="#FE008C" d="M315.72 54.662c1.743 3.042 1.99 6.13.552 6.897-1.438.768-4.016-1.077-5.759-4.12-1.743-3.04-1.99-6.129-.552-6.895 1.438-.768 4.017 1.077 5.76 4.118" transform="translate(0 .195)"/>
            <path fill="#7F786A" d="M300.842 55.555L310.07 50.479 316.272 61.56 306.305 66.988z" transform="translate(0 .195)"/>
            <path fill="#A29C8F" d="M315.019 55.009c1.72 2.963 2.32 5.83 1.338 6.4-.981.57-3.173-1.368-4.893-4.33-1.721-2.964-2.32-5.83-1.339-6.4.982-.572 3.173 1.367 4.894 4.33" transform="translate(0 .195)"/>
            <path fill="#A29C8F" d="M321.052 34.6s-2.09 9.51-10.884 16.067l6.147 10.775s6.822-4.68 21.692-1.475L321.052 34.6zM315.272 68.875l-.724.281c-.057.02-.12-.008-.141-.065l-.798-2.157c-.02-.057.009-.12.065-.142 0 0 .89-.445.912-.389l.686 2.472z" transform="translate(0 .195)"/>
            <path fill="#5F5EAA" d="M340.19 40.133c5.062 7.978 5.822 16.57 1.699 19.191-4.123 2.62-11.568-1.722-16.63-9.7-5.06-7.979-5.821-16.57-1.698-19.19 4.122-2.622 11.568 1.721 16.63 9.699" transform="translate(0 .195)"/>
            <path fill="#7F786A" d="M338.968 40.988c4.43 6.982 5.195 14.438 1.71 16.654-3.485 2.215-9.9-1.65-14.33-8.632-4.43-6.983-5.196-14.438-1.71-16.654 3.485-2.215 9.9 1.649 14.33 8.632" transform="translate(0 .195)"/>
            <path fill="#F4DCBD" d="M332.836 49.481l-5.206 3.188-4.048-6.368 5.32-3.257c1.743-1.067 2.741.173 3.807 1.918l.058.094c1.065 1.744 1.811 3.36.069 4.425" transform="translate(0 .195)"/>
            <path fill="#FCC23F" d="M332.997 44.881c1.063 1.675 1.247 3.466.41 3.997-.836.531-2.376-.395-3.438-2.072-1.064-1.675-1.247-3.465-.412-3.997.838-.53 2.377.397 3.44 2.072" transform="translate(0 .195)"/>
            <path fill="#A29C8F" d="M340.678 57.642c-3.485 2.215-9.9-1.65-14.33-8.633-4.43-6.982-5.196-14.438-1.71-16.653 3.484-2.215 9.9 1.65 14.33 8.632 4.43 6.982 5.195 14.438 1.71 16.654m-.488-17.51c-5.061-7.977-12.506-12.32-16.63-9.699-4.122 2.62-3.362 11.213 1.7 19.19 5.06 7.978 12.506 12.321 16.63 9.7 4.122-2.62 3.361-11.212-1.7-19.19" transform="translate(0 .195)"/>
            <path fill="#7F786A" d="M315.676 68.648l-.28.163c-.115.067-.261.028-.328-.087l-1.024-1.765c-.066-.115-.027-.261.087-.328l.28-.164c.115-.065.262-.026.328.088l1.024 1.766c.066.114.027.261-.087.327" transform="translate(0 .195)"/>
            <path fill="#FFE2B7" d="M315.083 68.488c-.234.201-.298.506-.143.684l.765.924s.313-.256.308-.406c-.012-.376-.93-1.202-.93-1.202" transform="translate(0 .195)"/>
            <path fill="#FFE2B7" d="M315.135 69.097c-.234.2-.298.506-.143.683l.765.925s.374-.327.369-.477c-.012-.376-.99-1.13-.99-1.13" transform="translate(0 .195)"/>
            <path fill="#FFE2B7" d="M315.204 69.766c-.178.252-.165.564.03.697l.967.709s.219-.323.178-.469c-.104-.36-1.175-.937-1.175-.937" transform="translate(0 .195)"/>
            <path fill="#FFE2B7" d="M315.336 70.332c-.118.218-.05.479.152.584 0 0 .874.552.943.556.122.01.21-.29.16-.402-.148-.33-1.255-.738-1.255-.738M312.515 69.234c.315.259.36.726.1 1.04l-1.06 1.467-.783-.144 1.743-2.363zM288.865 67.07c.212-.214.93-.294.93-.294-1.056-1.92-.324-4.38 1.635-5.493 1.958-1.114 4.091-.283 5.148 1.639 0 0 1.612 2.852 1.75 3.249.895 2.59.288 3.85-1.526 4.88-1.814 1.03-4.04.544-5.2-1.057-.4.151-1.19-.214-1.892-.908-.794-.783-1.172-1.686-.845-2.016" transform="translate(0 .195)"/>
            <path fill="#FFC581" d="M292.534 60.858s.117-.024.176-.033c1.55-.247 3.04.59 3.868 2.096 0 0 1.613 2.854 1.75 3.25.588 1.701.526 2.88-.116 3.734-.421.558-.988.886-.988.886s1.169-2.202-1.154-5.969c-1.392-2.258-3.536-3.964-3.536-3.964" transform="translate(0 .195)"/>
            <path fill="#FFE2B7" d="M291.01 67.581c.838.79 1.18 1.784.762 2.223-.416.44-1.433.26-2.271-.529-.839-.79-1.18-1.888-.763-2.326.416-.44 1.433-.156 2.271.632" transform="translate(0 .195)"/>
            <path fill="#A29C8F" d="M262.279 68.664c.054.264-.126.519-.402.568-.275.051-.544-.12-.598-.384-.055-.264.125-.518.401-.57.277-.05.545.123.599.386" transform="translate(0 .195)"/>
            <path fill="#E7E1D3" d="M112.438 75.109c-.011 3.156-1.235 8.938-4.445 14.012-4.577 7.238-9.819 8.633-13.526 6.615-2.61-1.418-1.25-4.818 1.518-8.862 6.272-9.165 12.719-15.98 12.719-15.98s3.74 2.807 3.734 4.215" transform="translate(0 .195)"/>
            <path fill="#FFE2B7" d="M111.019 67.436s-.418 1.846-1.543 2.126c-.727.181-.671-.415-.698-.702-.027-.286.614-1.529 1.464-1.818.851-.29.777.394.777.394M259.47 60.338c-.419.053-.332.271-.271.751l.264.723.147 1.39.842-.091-.293-1.484-.69-1.289zM258.118 63.018c-.251.278-.195.739.125 1.029l1.464 1.323-.188-1.071-1.4-1.281z" transform="translate(0 .195)"/>
            <path fill="#FFE2B7" d="M258.736 64.708s.27 1.734 1.37 2.007c.71.177.656-.405.682-.685.027-.28-.6-1.495-1.431-1.778-.832-.283-.62.456-.62.456" transform="translate(0 .195)"/>
            <path fill="#FFCC29" d="M354.868 28.855L345.844 38.966 345.365 35.665 337.448 43.17 346.787 31.613 347.675 34.637zM343.827 4.87L338.937 25.988 335.73 21.728 330.393 38.341 334.613 14.953 338.181 18.51zM373.871 52.712L354.833 49.371 355.18 52.78 339.526 53.433 359.304 56.576 359.027 53.191zM37.549 39.164L28.757 26.021 32.623 26.438 26.451 15.305 36.784 29.223 33.112 29.35zM22.216 50.6L10.097 49.399 12.238 47.301 2.596 45.524 15.931 46.186 14.208 48.435zM26.916 39.089L9.542 32.629 13.505 30.369 0 24.02 19.372 30.16 15.966 32.802zM31.43 57.924L16.917 62.818 18.433 64.79 7.77 70.908 22.725 65.622 21.267 63.639z" transform="translate(0 .195)"/>
        </g>
    </g>
</svg>
