<svg xmlns="http://www.w3.org/2000/svg" xmlns:xlink="http://www.w3.org/1999/xlink" width="374" height="242" viewBox="0 0 374 242"><defs/><defs><path id="a" d="M.2 2.4s63.8 51.2 65 49.4c2.4-3.4 3.5-7.8 3.1-11.9-.5-6.2-3.7-12-7.3-17.1-3.7-5.4-8-10.4-13.3-14.4a34 34 0 00-24.5-8C12 .4 4.2 2 .2 2.4"/><path id="c" d="M0 3.6a3.5 3.5 0 107 0 3.5 3.5 0 00-7 0"/><path id="f" d="M.8 2.7a2.4 2.4 0 104.9 0 2.4 2.4 0 00-5 0"/><linearGradient id="d" x1="100%" x2="0%" y1="50%" y2="50%"><stop offset="0%" stop-color="#FFB218"/><stop offset="100%" stop-color="#FFCF44"/></linearGradient><linearGradient id="g" x1="100%" x2="0%" y1="50%" y2="50%"><stop offset="0%" stop-color="#FFB218"/><stop offset="100%" stop-color="#FFCF44"/></linearGradient></defs><g fill="none" fill-rule="evenodd"><path fill="#619440" d="M89 193.4c-23 2.2-45-50.8-53.5-72.2C30 107.2 29 92 28 77c24.1 8 53.2 26.7 64.8 49 1.9 3.8 3.2 9.7 4 13.8 1.6 8.5 2.5 36.4 1.7 45.1-.2 2.8.8 7.6-9.5 8.6"/><path fill="#306B34" d="M30.9 80.7c.5-.4 1.2-.4 1.6.1 5.3 6 10.3 12 15 18 1.1-3.3 1.6-6 1.7-9.5a.8.8 0 011.6 0 29.7 29.7 0 01-2.2 11A306 306 0 0159 114.9l.8-5.6.9-5 1-5c0-.4.4-.6.8-.6.4.1.7.5.6 1l-.9 5-.9 4.8c-.4 2.5-.8 5-1 7.5 4.1 6.1 8 12.4 11.7 19l3.6-11.8c.5-2 1.1-3.8 1.2-5.8 0-.4.4-.8.8-.7.4 0 .7.3.7.8a50.2 50.2 0 01-1.3 6.1l-4 13.3a359.3 359.3 0 0112.7 25.9c0 .3-.3.6-.7.8-.6.2-1.2 0-1.5-.6L78 152.2c-4.2-.5-7.4-1-10.5-1.6L57 148.9a.8.8 0 01-.6-.8c0-.5.4-.8.9-.7 4.1.5 7.3 1.1 10.5 1.7l9.4 1.5c-2.5-4.9-5-9.6-7.6-14.2a2258.3 2258.3 0 01-27.9-6 .8.8 0 01-.6-1c.2-.3.5-.6 1-.5a2468.6 2468.6 0 0026.5 5.7c-3-5.3-6.2-10.4-9.5-15.4h-.5c-8.5-2.6-14.9-4-23.7-5a.8.8 0 01-.6-1c0-.4.4-.7.8-.6 8.5 1 14.8 2.4 22.8 4.8-3-4.6-6.2-9-9.4-13.4a33.7 33.7 0 00-16-3.1.8.8 0 01-.7-.8c0-.4.4-.8.8-.8 6 0 9.5.5 14 2.3-5-6.5-10.2-12.9-15.8-19.3-.4-.4-.4-1.2 0-1.6"/><path fill="#FFDE8E" d="M47.3 176.3c3 20.5 20.2 45 40 53.2 6.4 2.6 14 4 20.1.7 5.8-3.2 8.5-10 8-16.3-.5-6.3-3.7-12-7.3-17.1-3.8-5.4-8-10.4-13.4-14.4a34 34 0 00-18.3-7.9c-14.8-.7-24.5 1.4-29.1 1.8"/><g transform="translate(47 174)"><mask id="b" fill="#fff"><use xlink:href="#a"/></mask><path fill="#FFBF4D" d="M.2 2.4s63.8 51.2 65 49.4c2.4-3.4 3.5-7.8 3.1-11.9-.5-6.2-3.7-12-7.3-17.1-3.7-5.4-8-10.4-13.3-14.4a34 34 0 00-24.5-8C12 .4 4.2 2 .2 2.4" mask="url(#b)"/></g><path fill="#306B34" d="M18 197.4a5.3 5.3 0 1010.6 0 5.3 5.3 0 00-10.6 0"/><g transform="translate(31.6 187)"><mask id="e" fill="#fff"><use xlink:href="#c"/></mask><path fill="url(#d)" d="M0 3.6a3.5 3.5 0 107 0 3.5 3.5 0 00-7 0" mask="url(#e)"/></g><g transform="translate(23.5 181.3)"><mask id="h" fill="#fff"><use xlink:href="#f"/></mask><path fill="url(#g)" d="M.8 2.7a2.4 2.4 0 104.9 0 2.4 2.4 0 00-5 0" mask="url(#h)"/></g><path fill="#F7E8C8" d="M38.8 230c0-5.7 66.3-10.4 148.1-10.4S335 224.3 335 230.1s-66.3 10.5-148 10.5c-81.9 0-148.2-4.7-148.2-10.5"/><path fill="#FFC581" d="M108.7 70v1l2 .4v-2z"/><path fill="#FFE2B7" d="M55.3 72.7L56 74l-1.7.9-.4-1.4z"/><path fill="#E7E1D3" d="M57.7 76l-3 1.1-1-2.5 3-1.2z"/><path fill="#FFE2B7" d="M261 66.6l.4 2.3-2.2.4v-2.5z"/><path fill="#FFC581" d="M259.5 60c-.4 0-.7.5-.6 1l.4 2.1h.7l-.5-3.1z"/><path fill="#FFE2B7" d="M258.3 63.7s.7-.7 1.1-.8c.3 0 .6-.6.8-.3 0 .2.4.7.6 1.5.2.6.1 2.2.2 2.9 0 .4-.9.5-1.5.6-.4 0-.8-.7-.9-1l-.3-2.9z"/><path fill="#E7E1D3" d="M259.5 72l-.9-3.2 4-1 .8 3.2z"/><path fill="#FB8875" d="M74.9 222.7l-3.5-11.6 5.5-.8-.3 13z"/><path fill="#FB8875" d="M73 228.7s2-2.4 2.2-3.6l-3-10.4 4.5 4 .3 7.4-2.5 3.1-1.5-.5"/><path fill="#7F786A" d="M77 225.3s1.3.7 1 2.4c-.3 1.7-.3 2.7-.3 2.7H77l-.4-1.8s-.6.5-1.4 1.8c-.3.6-4 .5-4 .5s-.8-.6.6-1.4l1.3-.8s.6.6 1.4 0l1.6-1.9c.6-.8.9-1.5.9-1.5"/><path fill="#A29C8F" d="M79.3 101.9c1.9 3.3 8.8 12.7 10.7 24 1 5.7-11.5 3-11.5 3l-.3 36.1 3 51.4-9.3.4s-8.7-36-11-46.2c-2.1-10-7.1-36.4-5.7-49.7.8-8.2 3.2-15.8 4.7-20 .7-1.7 1.9-3.3 2-3.6 2 1.4 11.9 5.5 17.4 4.6"/><path fill="#FFC581" d="M110 62.7c.5 0 .8.5.7 1l-.4 2.2-.7-.1.5-3.1z"/><path fill="#FFC581" d="M111.4 66.5s-.8-.7-1.2-.8c-.3-.1-.6-.7-.8-.3 0 .1-.5.7-.6 1.4-.2.7-.2 2.4-.2 3 0 .4.8.5 1.5.6.4.1.8-.6.9-1l.4-3z"/><path fill="#F47A69" d="M119.3 228.2s-1.6-2.6-2.3-4l-3-12.7-3.7 2.7 4.7 10.2s.1 2.2 2.7 4.3l1.6-.5"/><path fill="#7F786A" d="M115 224.3s-1.4.8-1.1 2.6l.3 3h.7l.4-2s.8.6 1.5 2c.4.7 4.4.6 4.4.6s1-.7-.6-1.5l-1.4-1s-.6.8-1.6 0a12 12 0 01-1.6-2l-1-1.7M86.2 98.1a50.6 50.6 0 0116 25.9c1.4 5.7 12.9 92 12.9 92l-9.2.9s-24.4-61-28.8-83.1c-1.6-8-6.5-25.7-4.7-33.7 2.5-1.1 8.3-.7 13.8-2"/><path fill="#FFBF4D" d="M111.6 208.4h147V1.8h-147z"/><g><path fill="#F9F1E4" d="M181.3 36.3l3.8 7.9 8.7 1.2-6.3 6.2 1.5 8.6-7.7-4-7.8 4 1.5-8.6-6.3-6.2 8.7-1.2zm-23.9 35.1v5.9h3.5v1.3h-5v-7.2zm6 4.5c0 .3.2.6.4.8l.6.6.9.2.9-.2.6-.6c.1-.2.3-.5.3-.8a3.7 3.7 0 00-.3-2.6 1.7 1.7 0 00-1.5-.7c-.4 0-.7 0-1 .2l-.5.5-.4.8a4 4 0 000 1.8m-1.4-2.4c.1-.4.4-.8.7-1.2l1-.8c.5-.2 1-.3 1.6-.3l1.5.3c.4.2.8.5 1 .8.4.4.6.8.8 1.2a4.5 4.5 0 010 3 3.2 3.2 0 01-1.8 2l-1.5.3c-.6 0-1-.1-1.5-.3-.5-.2-.8-.5-1.1-.8-.3-.3-.6-.7-.7-1.2-.2-.4-.3-1-.3-1.5l.3-1.5m13.4 5.1l-1.2-4.9-1.2 5h-1.6l-2-7.3h1.6l1.2 5 1.3-5h1.4l1.3 5 1.2-5h1.5l-2 7.2zm12.1-5.3a1.6 1.6 0 00-1.4-.7c-.3 0-.6 0-.9.2l-.6.5c-.2.3-.3.5-.3.8a4 4 0 000 1.8c0 .3.1.6.3.8l.6.6 1 .2c.4 0 .8-.2 1-.5.3-.3.5-.7.6-1.2h1.5c0 .5-.2 1-.3 1.3a3 3 0 01-1.7 1.5l-1.2.2-1.5-.3c-.4-.2-.8-.4-1.1-.8-.3-.3-.5-.7-.7-1.2-.2-.4-.2-1-.2-1.5s0-1 .2-1.5l.7-1.2 1.1-.8 1.5-.3c.4 0 .8 0 1.1.2l1 .5a2.7 2.7 0 011 2h-1.5l-.2-.6M192 76c0 .3.1.6.3.8l.6.6 1 .2.8-.2.6-.6.4-.8a3.7 3.7 0 000-1.8l-.4-.8c-.1-.2-.3-.4-.6-.5-.2-.2-.5-.2-.9-.2-.3 0-.7 0-.9.2-.3.1-.5.3-.6.5-.2.3-.3.5-.3.8a4 4 0 000 1.8m-1.5-2.4l.7-1.2 1.1-.8 1.5-.3c.6 0 1 .1 1.5.3l1.1.8c.3.4.6.8.7 1.2a4.5 4.5 0 010 3c-.1.5-.4.9-.7 1.2l-1 .8c-.5.2-1 .3-1.6.3l-1.5-.3a3.2 3.2 0 01-1.8-2c-.2-.4-.2-1-.2-1.5s0-1 .2-1.5m9.4 3.4l.3.4.5.2a2.4 2.4 0 001 0l.5-.1c.2 0 .3-.2.4-.3l.1-.4c0-.2 0-.4-.2-.5l-.4-.3-.7-.2a20 20 0 01-1.6-.5c-.3 0-.5-.2-.7-.4l-.5-.5-.2-.9c0-.4.1-.7.3-1l.6-.6c.2-.2.5-.3.9-.4l1-.2c.3 0 .7 0 1 .2.4 0 .7.2 1 .4l.6.7.2 1h-1.5l-.1-.5-.4-.3-.4-.2a2.7 2.7 0 00-1 0 1 1 0 00-.3.2l-.2.2-.1.4v.3l.4.3.6.2a96.3 96.3 0 002.4.8l.6.6c.2.3.3.6.3 1l-.2 1a2 2 0 01-.6.6l-1 .5-1.2.2c-.4 0-.8 0-1.2-.2a3 3 0 01-1-.4 2.3 2.3 0 01-1-2h1.6c0 .3 0 .5.2.7m5-4.2v-1.3h5.9v1.3h-2.2v6H207v-6zm-66.4 21.4h2.3V83.4h-2.3zm7-10.7l4.4 7.2v-7.2h2.2v10.7h-2.3l-4.4-7.1v7h-2.2V83.5zm10.8 8c0 .3.3.5.5.6l.7.4a3.5 3.5 0 001.6 0l.6-.1c.3-.1.4-.3.6-.5l.2-.6c0-.3-.1-.5-.3-.7l-.7-.5a28.1 28.1 0 01-3.3-1 4 4 0 01-1-.5c-.3-.2-.6-.5-.8-.9-.2-.3-.2-.7-.2-1.2s0-1 .3-1.4c.2-.4.5-.8 1-1a4 4 0 011.2-.6l1.4-.2c.6 0 1.1 0 1.6.2.5.1 1 .3 1.4.6l1 1c.2.5.3 1 .3 1.6H160c0-.3 0-.6-.2-.8 0-.2-.2-.4-.4-.5a2 2 0 00-.7-.2 4 4 0 00-1.3 0c-.2 0-.4 0-.6.2l-.3.3a1 1 0 00-.2.6l.1.5.5.4 1 .3a181 181 0 003.5 1.1l.9 1c.2.3.3.8.3 1.4 0 .5 0 1-.2 1.4a3 3 0 01-.9 1 4 4 0 01-1.4.8l-1.9.2c-.6 0-1.1 0-1.7-.2l-1.4-.7a3.4 3.4 0 01-1.4-2.9h2.3c0 .4 0 .7.2 1m16 1.8c-.9.7-2 1-3.4 1s-2.6-.3-3.3-1c-.8-.7-1.2-1.8-1.2-3.3v-6.6h2.3V91l.4.7.7.6 1.1.2c.8 0 1.4-.2 1.7-.6.3-.4.5-1 .5-1.8v-6.6h2.3V90c0 1.5-.4 2.6-1.2 3.3m8.4-5c.6 0 1-.2 1.2-.4.3-.2.4-.6.4-1.2 0-.5-.1-.9-.4-1.1-.2-.2-.6-.3-1.2-.3h-2.5v3h2.5zm.9-4.9c.4 0 .9.1 1.2.3.4.1.8.3 1 .6l.7 1 .2 1c0 .7-.2 1.2-.4 1.7-.3.5-.7.8-1.3 1a1.8 1.8 0 011.2 1l.2.7a6.3 6.3 0 01.2 1.4 11.6 11.6 0 00.1 1.4l.3.6h-2.4a4 4 0 01-.2-1.2l-.1-1.4c-.1-.5-.3-1-.5-1.2-.3-.3-.7-.4-1.3-.4h-2.3v4.2h-2.4V83.4h5.8zm10.7 6.6l-1.3-4-1.5 4h2.8zm-.1-6.6l4 10.7h-2.5l-.8-2.4h-4l-.8 2.4h-2.3l4-10.7h2.4zm7.5 0l4.4 7.2v-7.2h2.2v10.7H204l-4.4-7.1v7h-2.2V83.5zm15.8 2.9a2.3 2.3 0 00-1.2-1l-.9-.1c-.5 0-1 0-1.3.3-.4.2-.7.4-.9.8l-.5 1.1a5.8 5.8 0 000 2.7l.5 1.1c.2.4.5.6.9.8.4.3.8.4 1.3.4.7 0 1.3-.3 1.7-.7.4-.4.6-1 .7-1.7h2.3c0 .6-.2 1.2-.5 1.8-.2.5-.5 1-1 1.3-.4.4-.8.7-1.4 1l-1.8.2c-.8 0-1.5-.1-2.2-.4a4.7 4.7 0 01-2.6-3c-.3-.6-.4-1.3-.4-2.1s.1-1.5.4-2.2a4.7 4.7 0 012.7-3c.6-.3 1.3-.4 2.1-.4a4.5 4.5 0 013 1A4 4 0 01218 87h-2.3c0-.3 0-.5-.2-.7m12.4-2.9v2h-5.6v2.3h5.2v1.8h-5.2v2.6h5.7v2h-8V83.4zm-86 39.9h81.8v-6h-81.8zm0 16.8h81.8v-6h-81.8zm0 33.8h39.7v-6h-39.7z"/><path fill="#FFDE8E" d="M112.6 207.3h145V2.8h-145v204.5zm146 2h-147a1 1 0 01-1-1V1.9c0-.5.4-1 1-1h147c.5 0 1 .5 1 1v206.6c0 .5-.5 1-1 1z"/><path fill="#FB8875" d="M240.3 230.7h.1c.7.3 1.4 0 1.6-.7l2.6-6.4c.3-.7 0-1.4-.7-1.7h-.1c-.7-.3-1.4 0-1.6.7l-2.6 6.4c-.2.7 0 1.4.7 1.7"/><path fill="#7F786A" d="M232.3 232c0 .4.3.7.7.7h9c.5 0 .9-.3.8-.8l-.2-1.6c0-.4-.4-.8-.8-.8 0 0-.3.7-1.1.8-.7 0-1-.5-1-.9 0-.2-.3-.3-.5-.2l-6.4 2.2c-.3.1-.5.4-.5.6"/><path fill="#FB8875" d="M283.7 230.5c-.7 0-1.3-.7-1.2-1.4l.6-6.8c0-.8 3.4-1.3 4.1-1.2.7 0-1.4.7-1.5 1.4l-.6 6.8c0 .7-.7 1.2-1.4 1.2"/><path fill="#7F786A" d="M291.6 113.5c-12.4 17.3-3 13.7-3.7 27.6l-2 29.5-3.4 55.7h7s13.7-47.6 16-58.9c5.9-29 5.8-54.4 4.9-56.2a39.6 39.6 0 01-18.8 2.3"/><path fill="#A29C8F" d="M277.3 111.8c-3.7 6-10.8 19.6-13.6 28.8-3.4 10.9-23 84.7-23 84.7l6.5.9s23-37.8 29.8-50c4.4-8.1 13.3-26.5 16.5-34.7 2.8-7.3 9.7-26.8 9.7-26.8s-24-1.9-26-2.9"/><path fill="#7F786A" d="M291.6 232c0 .3-.3.6-.7.6h-8.7a.7.7 0 01-.7-.9l.1-1.6c0-.4.4-.8.9-.8 0 0 .2.7 1 .8.7.1 1-.4 1-.8 0-.2.2-.3.4-.3l6.3 2.3c.2.1.4.4.4.6"/><path fill="#E7E1D3" d="M321.4 93.7l-3.1 14.2S295.7 85 290.8 81.6c-5.8-4.3.5-1.3 4.8-7 0 0 4-.7 9.1 1.7 5.7 2.6 16.7 17.4 16.7 17.4"/><path fill="#F5EFE4" d="M310.9 113s-6.5 2.9-15.6 3.2c-7.6.3-19.7-1.5-19.5-3 1.1-7.5 1.9-25.2 1.9-25.2.2-5.8-3.3-12.1 10-12.3l10.7-1c6.2.3 9 5.4 11.7 14 1.7 5.6.7 24.4.7 24.4"/><path fill="#F5EFE4" d="M272.1 107l-9.7-5.6L275 81.5c3.2-5 11.3-8.2 17.4-4.4l-.2.6-20.2 29.2z"/><path fill="#F5EFE4" d="M265.8 71.2c5 3.5 7.7 16.8 7.5 23.8-.3 7.9.9 13.1-4.7 14.8-3.5 1-8.1-8-9.2-11.9l-.1-.6s-.6-26.4 0-26.7c1.6-.8 4.4-.8 6.5.6"/><path fill="#FCBD30" d="M75.8 52s9.4-5.4 13.7 3.8c2 4.2 5.9 13.1 15 11 0 0 0 9.3-10.7 13.5C82 85 70.3 72 70.3 64.3c0-7.6 5.5-12.4 5.5-12.4"/><path fill="#FCBD30" d="M78.5 51.2s-3.6-1-5 0c-2.2 1.8-.4 4.9-.4 4.9l5.4-4.9z"/><path fill="#E7E1D3" d="M89.5 55.8c-.6-1-1.2-2-2-2.8a8.2 8.2 0 00-2.9-1.8c-2.1-.7-4.4-.4-6.6.3h-.2l-2.2-.3c-.7 0-1.5.1-1.9.5-1 .8-1 2.4-.4 3.7v.4a17.4 17.4 0 00-2.6 7.2c-.2 1.3-.2 2.6.1 3.8.3 1.3.8 2.5 1.4 3.7a15 15 0 01-1.8-3.5c-.4-1.3-.5-2.7-.4-4 .1-2.8 1-5.4 2.4-7.7v.5c-.3-.8-.5-1.6-.5-2.5 0-.9.5-1.8 1.2-2.4.8-.6 1.7-.6 2.5-.6l2.4.3h-.3c2.3-.7 4.9-1 7.1 0 1.2.5 2.2 1.2 3 2.1.7 1 1.3 2 1.7 3"/><path fill="#E7E1D3" d="M61 96.5c-3.6 2.4-6-4.7-6-4.7s3.2-9.5 5.8-13.6c8.6-13.5 12.4-11.5 14-8v1.2c-1.5 7-8 21.3-13.8 25.1"/><path fill="#F5EFE4" d="M57.8 75s1.9 5.6 3 11.7c.8 5 3.8 11-2.4 10.9-2.8 0-5.2-.8-6.3-8.2-.6-4.3 0-9.2.9-11.7.5-1.4 4.8-2.7 4.8-2.7"/><path fill="#FFE2B7" d="M53.6 70.4s-1.1.5-1.4.8l-.2 1.2s2 1.5 2.7 1.3c.3-.1.7-.8 1-1.3.1-.3 0-.7-.2-.9l-2-1.1z"/><path fill="#FFC581" d="M110 63.2c.4 0 .3.3.3.8l-.2.7v1.4h-1l.3-1.5.6-1.4z"/><path fill="#FFE2B7" d="M111.5 66c.3.3.2.7-.1 1l-1.5 1.4.2-1.1 1.4-1.3z"/><path fill="#7F786A" d="M61 63.2s-1.3 2.2-1.9 2.6c-.5.4-1.5.3-1.5.3s-2.7 3.2-3 5.5c-.3 2.3 1 2.6.6 3.3-.3.7-2.4 1.4-3.6.7-1.2-.8-1-2-1-2l2.7-8.3s-1.4-.6-1.7-1c-.5-.7.4-3.1.4-3.1l9 2z"/><path fill="#A29C8F" d="M67 57.8l.7.3c1 .5 1.6 1.6 1.2 2.7l-.2.6c-.3 1-1.4 1.7-2.5 1.5l-1.1-.2 2-4.9z"/><path fill="#A29C8F" d="M45.8 36s1.3 6.3 9.4 11.6C63.2 52.8 66 55 66 55s2.9 2.2.8 6.2c-2.1 4-6.7 2.3-9 1.8-6-1.3-15-5-22.9 1l10.8-28z"/><path fill="#96D7E0" d="M26.2 44.7c-4 9.3-3 18.5 1.9 20.6 5 2 12.1-3.8 16-13 4-9.3 3-18.6-1.9-20.7-5-2-12.1 3.8-16 13"/><path fill="#7F786A" d="M27.2 45.1c-3.5 8.2-2.7 16.4 1.7 18.3 4.4 1.8 10.8-3.4 14.2-11.6 3.5-8.2 2.7-16.4-1.7-18.2C37 31.7 30.6 36.9 27.2 45"/><path fill="#FFF0D2" d="M45.3 47.4l-9.4-2-2.1 5.4 8.1 5z"/><path fill="#FCC23F" d="M33.4 47.5c-.5 1.5-.4 3 .4 3.3.8.3 1.9-.6 2.5-2.1.6-1.5.4-3-.4-3.2-.7-.4-1.9.6-2.5 2"/><path fill="#A29C8F" d="M27.2 45.1C30.6 37 37 31.7 41.4 33.6c4.4 1.8 5.2 10 1.7 18.2C39.7 60 33.3 65.2 29 63.4c-4.4-1.9-5.2-10-1.7-18.3m.9 20.2c5 2 12.1-3.8 16-13 4-9.3 3-18.6-1.9-20.7-5-2-12.1 3.8-16 13-4 9.4-3 18.6 1.9 20.7m24 3.2l.9.3.1-.1.8-2.7V66l-1.2-.4-.6 3z"/><path fill="#7F786A" d="M51.6 68.2l.3.2.4-.1 1.1-2.2-.1-.4-.4-.2c-.1 0-.3 0-.4.2l-1 2.2v.3"/><path fill="#F5EFE4" d="M62.1 98.4s-.2 2.1 8.9 3c8.3.6 15.2-3.3 15.2-3.3S84 85.7 88.4 79.2c3-4.4.2-10.8-6.5-11.5 0 0-6.2-1.1-9.3-.6-7.5 1.3-10 11.7-10.6 17.6-.6 5.7.1 13.7.1 13.7"/><path fill="#FFE2B7" d="M77.5 68.4h-.1a1 1 0 01-1.1-1l-.2-3.5c0-.6.4-1 1-1.1.7 0 1.1.4 1.2 1l.1 3.5c0 .6-.4 1-1 1.1"/><path fill="#FFC581" d="M76.2 64.2c-.2-1.7.4-1.6 1-1.7.5 0 1 .7 1 1.6l.2 2.4c0 .5-.9.3-1.5-.4l-.7-1v-.9z"/><path fill="#FFE2B7" d="M81 60c1-2 .5-4.3-1.2-5.4-3.7-2.3-5.8 2.6-6.5 5-.7 1.8-.5 3.7-.5 3.7s2 1.2 3.5 1c1.4 0 2.5-.2 3.6-2l1.1-2.4"/><path fill="#FFE2B7" d="M80.3 60.8c-1 .5-1.4 1.3-1 1.8.2.5 1.1.5 2 0 .9-.5 1.3-1.3 1-1.8-.2-.5-1.2-.5-2 0"/><path fill="#F5EFE4" d="M93.5 95.2c6.3 4 7.4-5.7 7.4-5.7s-4.5-4.8-6.6-9c-7-13.5-9.7-12.4-11.7-9.2-.1.2-1.2 2-1.2 2.3.7 6.8 6.4 18 12 21.6"/><path fill="#FCBD30" d="M77 53.1s-1.4 2.8.3 5.3c.8 1 2.7 2 4.4 2.7 5.9 2.1.4-8.6-4.8-8"/><path fill="#FFE2B7" d="M52.7 69c.2.3.3.6 0 .8l-.9 1.1s-.4-.3-.4-.5c0-.5 1.3-1.4 1.3-1.4"/><path fill="#FFE2B7" d="M52.6 69.7c.2.3.3.7 0 .9l-1 1s-.3-.4-.3-.5c0-.5 1.3-1.4 1.3-1.4"/><path fill="#FFE2B7" d="M52.4 70.5c.2.4.2.7 0 .9l-1.3.8s-.2-.4-.2-.6c.2-.4 1.5-1 1.5-1"/><path fill="#FFE2B7" d="M52.2 71.2c.2.3 0 .6-.2.7l-1.2.7-.2-.5c.2-.4 1.6-.9 1.6-.9m1.8-1.8c-.3.3-.4.7-.1 1l1 1.4.7-.1-1.6-2.3z"/><path fill="#7F786A" d="M62 97s1.6 2.6 9.3 2.7c7.6 0 14.7-3 14.7-3l2.3 3.4s-7.6 4.6-17.8 3.9c-10.2-.8-10.5-3.3-10.5-3.3l.7-1.6L62 97"/><path fill="#A29C8F" d="M65.7 103.8l-2.4-.7 1-4.6 2 .6zM81 98.4l1.3 4.6 2.4-.9-1.5-4.4z"/><path fill="#FCC23F" d="M68.6 101.9c0 .5.3 1 .7 1.4.5.4 1 .6 1.6.6 1.9 0 3.4-.1 4.2-.4V100h-4.5c-1.2-.1-2 .7-2 1.8m2.1 2.6c-.7 0-1.3-.3-1.8-.8-.6-.5-1-1.1-1-1.8 0-1.4 1-2.6 2.6-2.6l5 .1.2.1.1.3v4s0 .2-.2.2a13.4 13.4 0 01-4.9.5"/><path fill="#FCC23F" d="M71 102.3l-1-.1a.3.3 0 01-.3-.4c0-.2.2-.3.4-.3 0 0 1.6.4 3.9 0l.4.3c0 .2-.1.3-.3.4a14 14 0 01-3.2.1"/><path fill="#FFC581" d="M80.6 63a.8.8 0 11-1.5-.3.8.8 0 011.5.2"/><path fill="#E7E1D3" d="M77 52.6l-.3 2.8c.1.9.3 1.8.8 2.5s1.2 1.3 2 1.8l2.4 1.5c-1-.1-1.9-.5-2.8-.9a6 6 0 01-2.4-2c-.6-.8-.8-2-.7-3 .1-1 .4-2 1-2.7"/><path fill="#7F786A" d="M289.6 69.3s-4.9-2.6-5-4.3c-.2-2.9 3.8-12.8 4.6-8.9 0 0 3.7-4.8 9.2-6 .4 0 .6.4.3.7-1.6 1.3-4.4 3.5-4.3 4.8 0 0 2.2-1.7 4.2-2.2.4-.1.6.4.3.7a10 10 0 00-1.9 2.5c-.5 1.4 1.7 5 1.5 7.6-.3 2.6-6.3 7.4-8.9 5"/><path fill="#FCE5BE" d="M289.6 69.3c-1.4-.7-2.8-1.4-4-2.4l-.9-1-.3-.5-.2-.7a27.3 27.3 0 013-9l.5-.5c.2-.2.4-.4.8-.4.5 0 .8.4.9.6l.2.7-.8-.2a18 18 0 014.3-3.8c1.6-1 3.4-1.7 5.3-2a15.8 15.8 0 00-5 2.5 23 23 0 00-3.9 3.8.4.4 0 01-.8-.2l-.1-.4c0-.1-.1-.1 0-.1l-.6.5-1 2c-.7 1.4-1.2 2.8-1.6 4.3-.2.7-.4 1.5-.4 2.2-.1.7.4 1.2 1 1.8 1 1 2.3 1.9 3.6 2.8"/><path fill="#FFE2B7" d="M310.7 72.3l1 3.3 2.4-.8-1.7-2.6h-1.3z"/><path fill="#FFE2B7" d="M313 70.4s1.1.6 1.3 1c.2.2.2 1.1.2 1.1s-2 1.6-2.7 1.4c-.3-.2-.8-.8-1-1.3-.2-.4-.1-.8.2-1l2-1.2z"/><path fill="#E7E1D3" d="M318.4 76.6c8.5 4.7 7.5 17.9 7 25.4-.6 8.7-7.2 8.1-8 4.3-1.4-5.9-4.8-18.9-6.1-26.3-.4-2 .9-3.7 2.7-4 1.4-.1 3-.1 4.4.6"/><path fill="#FFE2B7" d="M295.4 76.6h-.2a2 2 0 01-2.2-1.8l-.3-3.2a2 2 0 011.9-2.2h.1a2 2 0 012.2 1.8l.3 3.2a2 2 0 01-1.8 2.2"/><path fill="#FFC581" d="M292.7 71.4c0-1 .8-1.9 2-2 1 0 2.1.6 2.2 1.6l.2 2.6c.1.6-1.5.4-2.7-.3-.9-.5-1.6-1.3-1.6-1.3v-.6z"/><path fill="#7F786A" d="M297.3 79h-.1c-.8.2-1.5-.2-1.8-.9l-.5-1.6 2.7-1 .5 1.7c.3.7-.1 1.5-.8 1.7"/><path fill="#7F786A" d="M303.3 100.9l-3 3.4-4-3.5-.3-23.5s1.1-.4 1.3 0c5.6 8 6 23.6 6 23.6"/><path fill="#FCE5BE" d="M293.9 79.6l-3-4.2 2-1.8 3.6 2.3z"/><path fill="#FFE2B7" d="M299.3 77.9l-.2-3.1-2-1-.8 2.1z"/><path fill="#E7E1D3" d="M312.1 77.5l-1-2.3 3.4-1.5 1 2.3z"/><path fill="#7F786A" d="M313 75.7a.5.5 0 11-1.1-.1.5.5 0 011 0m-5.3-9.4l1 1.5c.1.2.3.3.5.3.3 0 .7.1 1 .7.7 1 4.4 8.2 7 8.8 2.4.6 4.6-2 4.2-3.5-.3-1.4-4.4-1.5-5-2.8v-.4l-1-2c-.5-.4-.9-.4-1-1.7 0-.6 1.2-1.5 1.2-2.2 0-1.4-1-2.6-1-2.6l-6.9 4zm-1.3-6c1.4 3.2 1.4 6.3 0 7-1.5.7-4-1.4-5.4-4.5-1.5-3.2-1.5-6.3 0-7 1.5-.7 3.9 1.4 5.4 4.5"/><path fill="#FE008C" d="M315.7 54.9c1.8 3 2 6 .6 6.9-1.5.7-4-1.1-5.8-4.2-1.7-3-2-6.1-.5-6.9 1.4-.7 4 1.1 5.7 4.2"/><path fill="#7F786A" d="M300.8 55.8l9.3-5.1 6.2 11-10 5.5z"/><path fill="#A29C8F" d="M315 55.2c1.7 3 2.3 5.8 1.4 6.4-1 .6-3.2-1.4-5-4.3-1.7-3-2.3-5.9-1.3-6.4 1-.6 3.2 1.3 5 4.3"/><path fill="#A29C8F" d="M321 34.8s-2 9.5-10.8 16l6.1 10.8s6.8-4.6 21.7-1.4l-17-25.4zM315.4 69l-.8.3v-.1l-.9-2.2V67l1-.4.7 2.5z"/><path fill="#5F5EAA" d="M340.2 40.3c5 8 5.8 16.6 1.7 19.2-4.1 2.6-11.6-1.7-16.6-9.7-5.1-8-5.9-16.6-1.7-19.2 4-2.6 11.5 1.8 16.6 9.7"/><path fill="#7F786A" d="M339 41.2c4.4 7 5.2 14.4 1.7 16.6-3.5 2.3-10-1.6-14.4-8.6s-5.1-14.4-1.7-16.6c3.5-2.3 10 1.6 14.4 8.6"/><path fill="#F4DCBD" d="M332.8 49.7l-5.2 3.2-4-6.4 5.3-3.3c1.7-1 2.7.2 3.8 2 1.1 1.8 1.9 3.4.1 4.5"/><path fill="#FCC23F" d="M333 45c1 1.8 1.2 3.5.4 4-.8.6-2.4-.3-3.4-2s-1.3-3.5-.4-4c.8-.5 2.3.4 3.4 2"/><path fill="#A29C8F" d="M340.7 57.8c-3.5 2.3-10-1.6-14.4-8.6s-5.1-14.4-1.7-16.6c3.5-2.3 10 1.6 14.4 8.6s5.2 14.4 1.7 16.6m-.5-17.5c-5-8-12.5-12.3-16.6-9.7-4.2 2.6-3.4 11.2 1.7 19.2 5 8 12.5 12.3 16.6 9.7 4.1-2.6 3.4-11.2-1.7-19.2"/><path fill="#7F786A" d="M315.7 68.8l-.3.2h-.3l-1-1.8c-.1-.2 0-.3 0-.4l.3-.1h.3l1 1.8v.3"/><path fill="#FFE2B7" d="M315 68.7c-.2.2-.2.5 0 .7l.7.9.3-.4c0-.4-1-1.2-1-1.2"/><path fill="#FFE2B7" d="M315.1 69.3c-.2.2-.3.5-.1.7l.8.9.3-.5c0-.4-1-1.1-1-1.1"/><path fill="#FFE2B7" d="M315.2 70c-.2.2-.2.5 0 .7l1 .7.2-.5c-.1-.4-1.2-1-1.2-1"/><path fill="#FFE2B7" d="M315.3 70.5c0 .2 0 .5.2.6l1 .6s.1-.3 0-.4c0-.4-1.2-.8-1.2-.8m-2.8-1c.3.2.4.7.1 1l-1 1.4-.8-.1 1.7-2.4zM289 67.2c.2-.2.9-.3.9-.3a4 4 0 011.6-5.5c2-1.1 4.1-.3 5.2 1.6l1.7 3.3c1 2.6.3 3.8-1.5 4.8a4 4 0 01-5.2-1c-.4.1-1.2-.2-1.9-1-.8-.7-1.2-1.6-.8-2"/><path fill="#FFC581" d="M292.5 61h.2c1.6-.2 3 .6 3.9 2.1l1.7 3.3c.6 1.7.6 2.8 0 3.7-.5.6-1 .9-1 .9s1-2.2-1.2-6c-1.4-2.2-3.6-4-3.6-4"/><path fill="#FFE2B7" d="M291 67.8c.8.8 1.2 1.8.8 2.2-.4.4-1.5.3-2.3-.5-.8-.8-1.2-2-.8-2.4.5-.4 1.5-.1 2.3.7"/><path fill="#A29C8F" d="M262.3 68.9c0 .2-.1.5-.4.5a.5.5 0 01-.6-.4c0-.2.1-.5.4-.5.3 0 .5.1.6.4"/><path fill="#E7E1D3" d="M112.4 75.3c0 3.2-1.2 9-4.4 14-4.6 7.3-9.8 8.6-13.5 6.6-2.6-1.4-1.3-4.8 1.5-8.8 6.3-9.2 12.7-16 12.7-16s3.7 2.8 3.7 4.2"/><path fill="#FFE2B7" d="M111 67.6s-.4 1.9-1.5 2.2c-.8.1-.7-.5-.7-.7 0-.3.6-1.6 1.4-1.9.9-.3.8.4.8.4m148.5-7c-.4 0-.4.2-.3.7l.3.7.1 1.4h.9l-.3-1.6-.7-1.3zm-1.4 2.6c-.2.3-.2.8.1 1l1.5 1.4-.2-1.1-1.4-1.3z"/><path fill="#FFE2B7" d="M258.7 64.9s.3 1.7 1.4 2c.7.2.7-.4.7-.7 0-.3-.6-1.5-1.4-1.8-.9-.2-.7.5-.7.5"/><path fill="#FFCC29" d="M354.9 29l-9 10.2-.5-3.3-8 7.5 9.4-11.6.9 3zm-11-24l-5 21.2-3.2-4.3-5.3 16.6 4.2-23.4 3.6 3.6zm30 48l-19-3.4.3 3.4-15.7.6 19.8 3.2-.3-3.4zM37.5 39.3l-8.7-13.2 3.8.4-6.1-11.1 10.3 14H33zM22.2 50.8l-12.1-1.2 2.1-2.1-9.6-1.8 13.3.7-1.7 2.2zM27 39.3L9.5 32.8l4-2.2L0 24.2l19.4 6.2L16 33zM31.4 58l-14.5 5 1.5 1.9L7.8 71l15-5.3-1.5-2z"/></g></g></svg>