<svg xmlns="http://www.w3.org/2000/svg" xmlns:xlink="http://www.w3.org/1999/xlink" width="519" height="380" viewBox="0 0 519 380">
    <defs>
        <path id="prefix__a" d="M74.874 19.428c.327 8.095-1.26 13.51-2.327 16.177L49.952 56.71C62.305 38.826 67.88 12.158 59.126 6.314 50.403.489 48.218 18.65 48.9 35.526c.514 12.754-1.965 21.318-3.657 25.582L18.147 86.416c11.861-17.86 17.48-44.342 8.476-49.364-6.942-3.872-10.223 7.559-9.54 26.6.466 12.943-2.39 22.772-4.267 27.745L.053 103.318c.514 1.08 1.218 1.884 2.078 2.378l5.079-4.745c4.325-1.301 12.759-2.922 24.833-1.127 16.175 2.403 33.875 1.991 29.149-7.567-4.716-9.542-30.694-6.586-49.14 4.171l22.336-20.863c4.7-1.137 12.399-2.125 22.8-.578 16.175 2.404 33.875 1.992 29.15-7.567-4.428-8.958-27.597-6.9-45.677 2.286l28.683-26.792c2.989-.534 7.264-.83 12.72-.02 10.195 1.516 21.35 1.256 18.373-4.769-2.585-5.226-15.298-4.5-26.213.232l9.298-8.684c3.31-2.189 8.03-5.322 13.916-7.316 11.197-3.792 21.38-9.156 21.402-13.83v-.03c-.005-1.008-.484-1.984-1.528-2.904-5.902-5.2-26.572 7.162-37.057 22.813l-4.784 4.468C83.303 21.602 86.851 4.71 81.32 1.018c-.717-.479-1.364-.7-1.945-.7-3.881 0-4.873 9.86-4.5 19.11"/>
        <path id="prefix__d" d="M3.357 32.38C-6.746 58.051 6.72 86.733 33.435 96.441 60.15 106.15 89.997 93.21 100.1 67.537c10.103-25.673-3.363-54.354-30.08-64.063C63.998 1.284 57.818.248 51.738.248c-20.885 0-40.556 12.247-48.38 32.131"/>
        <path id="prefix__f" d="M3.742 1.64s4.509 18.973 5.05 22.97C9.512 29.914.41 33.918.41 33.918c1.312 3.903 17.244 1.041 18.247-2.645.521-1.915.928-4.062.04-5.8-1.068-2.093-1.883-4.286-2.367-6.554L12.414.554 3.742 1.64z"/>
        <path id="prefix__i" d="M3.242 1.64s4.32 18.973 4.84 22.97C8.772 29.914.05 33.918.05 33.918c1.257 3.903 16.525 1.041 17.486-2.645.499-1.915.889-4.062.038-5.8-1.024-2.093-1.804-4.286-2.268-6.554L11.553.554 3.242 1.64z"/>
        <path id="prefix__l" d="M3.78 3.987c-1.097 2.455 3.437.45 3.437.45s-11.998 7.584-3.63 7.001c8.446-.59 12.617-7.822 12.617-7.822L13.53.348S4.878 1.53 3.78 3.987"/>
        <path id="prefix__o" d="M2.868.757L.748 17.814c-.125 1.013-.261 2.181.321 3 3.594 5.062 9.382 3.664 12.71 1.903 1.073-.569 1.706-1.758 1.609-3.005L13.838.017l-10.97.74z"/>
        <path id="prefix__r" d="M8.79 1.413s-.187.347-.511.962c-.654 1.26-1.094 4.11-3.169 6.532-.527.616-1.511.114-1.73.616-.584 1.34-.09 3.61-.636 5.045-2.453 6.447-4.1 13.253-1.167 15.227 3.792 2.561 9.743-.19 14.52-4.169 2.104-1.75 3.973-3.73 5.337-5.608.457-.62.848-1.228 1.178-1.806C25.787 12.602 23.84.707 13.485.707c-1.407 0-2.97.22-4.696.705"/>
        <path id="prefix__u" d="M.478 3.785c-.574 9.815 7.46 15.616 7.46 15.616l4.321-2.633S12.152 6.634 9.376 5.03C6.6 3.428 8.317 8.93 8.317 8.93S4.19.485 1.911.486c-.745 0-1.292.903-1.433 3.3"/>
        <linearGradient id="prefix__b" x1="-29.605%" x2="95.852%" y1="97.21%" y2="19.886%">
            <stop offset="0%" stop-color="#FFB218"/>
            <stop offset="100%" stop-color="#FFCF44"/>
        </linearGradient>
        <linearGradient id="prefix__g" x1="32.549%" x2="61.967%" y1="54.062%" y2="47.164%">
            <stop offset="0%" stop-color="#FBB59E"/>
            <stop offset="100%" stop-color="#FFEBD1"/>
        </linearGradient>
        <linearGradient id="prefix__j" x1="33.973%" x2="60.99%" y1="54.062%" y2="47.164%">
            <stop offset="0%" stop-color="#FBB59E"/>
            <stop offset="100%" stop-color="#FFEBD1"/>
        </linearGradient>
        <linearGradient id="prefix__m" x1="80.74%" x2="8.102%" y1="81.389%" y2="20.5%">
            <stop offset="0%" stop-color="#FBB59E"/>
            <stop offset="100%" stop-color="#FFEBD1"/>
        </linearGradient>
        <linearGradient id="prefix__p" x1="24506.487%" x2="24507.234%" y1="4969.309%" y2="4969.459%">
            <stop offset="0%" stop-color="#FBB59E"/>
            <stop offset="100%" stop-color="#FFEBD1"/>
        </linearGradient>
        <linearGradient id="prefix__s" x1="83.091%" x2="16.502%" y1="77.378%" y2="30.337%">
            <stop offset="0%" stop-color="#FBB59E"/>
            <stop offset="100%" stop-color="#FFEBD1"/>
        </linearGradient>
        <linearGradient id="prefix__v" x1="20.559%" x2="78.795%" y1="75.068%" y2="15.763%">
            <stop offset="0%" stop-color="#FBB59E"/>
            <stop offset="100%" stop-color="#FFEBD1"/>
        </linearGradient>
    </defs>
    <g fill="none" fill-rule="evenodd">
        <g>
            <path fill="#FFF4DD" d="M330.063 103.475c-2.893-29.942-18.052-58.074-37.818-79.632-8.056-8.786-17.157-16.877-27.94-20.936-10.785-4.058-23.542-3.515-32.707 3.876-6.83 5.506-10.98 14.076-17.134 20.455-12.738 13.199-32.305 15.234-49.672 12.131-17.368-3.103-33.894-10.522-51.265-13.6-17.372-3.077-36.944-.98-49.632 12.275-14.784 15.447-15.683 40.838-12.094 62.782 1.215 7.432 2.809 15.224.59 22.378-3.34 10.777-13.898 16.33-22.4 22.959-21.224 16.549-32.94 46.418-29.228 74.52 4.08 30.89 25.358 56.868 50.921 71.082 25.563 14.214 54.959 18.109 83.672 18.277 12.238.073 24.5-.493 36.611-2.399 35.171-5.537 68.27-22.338 97.428-44.42 16.285-12.332 31.645-26.524 43.27-44.01 21.87-32.89 27.285-76.775 17.398-115.738" transform="translate(30.481 57.792) translate(37.071 11.083)"/>
            <path fill="#619440" d="M393.105 132.868c-.361-9.55 6.325-18.753 4.09-28.17-1.432-6.034-6.669-9.614-12.62-7.68-7.543 2.453-10.646 10.013-13.29 16.96-1.88 4.94-3.93 9.41-7.862 13.002-3.376 3.082-7.357 5.34-10.984 8.07-6.38 4.8-9.88 10.716-11.757 18.558-2.081 8.695-2.35 19.009-9.598 25.206-5.92 5.059-14.847 6.713-18.325 14.52-3.79 8.509 2.135 21.38-6.665 27.212-3.719 2.463-7.847 3.452-11.202 6.606-2.595 2.439-4.633 5.471-6.052 8.77-3.074 7.144-3.12 15.36.442 22.166.153.293.373.479.618.582 2.672 7.183 5.922 14.56 12.017 19.19 5.397 4.098 12.735 5.741 18.935 2.21 10.55-6.01 11.891-20.75 19.45-29.484 2.692-3.11 5.923-4.768 9.947-5.034 4.405-.293 8.777 1.014 13.121-.414 6.353-2.091 9.815-8.369 11.439-14.659 2.461-9.535.027-20.06 4.4-29.145 3.918-8.142 12.461-12.533 16.697-20.483 8.117-15.235-2.212-32.387-2.801-47.983" transform="translate(30.481 57.792) translate(37.071 11.083)"/>
            <path fill="#496B32" d="M382.222 116.248c-1.55 11.471-7.132 21.951-12.276 32.255-5.074 10.162-10.166 20.318-15.417 30.399-10.413 19.994-21.46 39.732-34.217 58.454-7.118 10.445-14.772 20.557-23.107 30.143-.851.979.614 2.398 1.472 1.41 15.003-17.254 27.802-36.147 39.308-55.686 11.669-19.813 22.05-40.288 32.302-60.799 5.79-11.583 12.272-23.268 14.016-36.176.171-1.27-1.911-1.257-2.081 0" transform="translate(30.481 57.792) translate(37.071 11.083)"/>
            <path fill="#496B32" d="M314.352 248.227c.038-10.815-.128-21.628-.5-32.437-.044-1.282-2.125-1.286-2.081 0 .372 10.809.538 21.622.5 32.437-.004 1.284 2.076 1.285 2.081 0M326.297 232.67c3.12-1.067 6.396-1.047 9.665-1.106 3.497-.063 6.992-.258 10.472-.586 3.447-.326 6.882-.775 10.293-1.352 3.198-.54 6.349-1.253 9.249-2.695 1.19-.592.138-2.313-1.05-1.723-2.914 1.45-6.141 2.067-9.35 2.594-3.43.564-6.882.994-10.348 1.29-3.33.284-6.668.437-10.009.49-3.199.049-6.43.123-9.476 1.165-1.252.428-.712 2.356.554 1.923M342.169 205.704c1.144-3.424 1.035-7.025.983-10.575-.055-3.81-.037-7.623.056-11.434.186-7.627.674-15.247 1.447-22.84.13-1.276-1.952-1.268-2.081 0-.76 7.463-1.244 14.95-1.438 22.446-.094 3.679-.119 7.36-.075 11.04.043 3.633.274 7.324-.9 10.832-.409 1.225 1.6 1.75 2.008.53M355.824 180.239c11.317-1.05 22.31-4.089 32.513-8.889 1.202-.566.148-2.286-1.05-1.722-9.852 4.635-20.534 7.602-31.463 8.616-1.32.122-1.334 2.118 0 1.995M371.3 149.965c-2.01-6.8-2.63-13.88-1.91-20.911.13-1.277-1.951-1.268-2.081 0-.737 7.195-.072 14.483 1.984 21.44.365 1.234 2.374.71 2.007-.53" transform="translate(30.481 57.792) translate(37.071 11.083)"/>
            <path fill="#306B34" d="M352.78 173.758c-8.793-5.637-29.888 10.536-40.6 29.383l9.112-29.49c3.52-3.437 9.716-8.326 19.506-12.479 15.224-6.459 30.385-16.115 21.576-21.762-8.256-5.292-27.352 8.639-38.522 25.96l11.702-37.872c2.33-2.026 5.895-4.527 11.032-6.706 9.594-4.07 19.15-10.156 13.598-13.715-4.818-3.089-15.496 4.213-22.64 13.977l3.793-12.274c1.796-3.603 4.35-8.75 8.477-13.54 9.562-11.1 16.672-23.39 8.995-24.71-7.684-1.321-19.538 20.063-20.93 38.889l-1.953 6.316c1.247-13.706-3.992-29.941-10.614-30.175-6.58-.232-2.137 10.228 3.473 19.05 4.272 6.716 5.56 12.156 5.949 14.985l-9.22 29.834c1.915-21.708-6.381-47.325-16.857-47.694-10.441-.37-3.392 16.228 5.51 30.227 6.729 10.578 8.796 19.167 9.427 23.684L312.54 191.42c1.498-21.431-6.669-46.911-16.958-46.45-7.933.356-5.15 11.804 4.822 27.643 6.778 10.766 9.14 20.63 9.96 25.847l-5.207 16.85c.979.65 1.986.963 2.975.93l2.072-6.705c3.112-3.382 9.635-9.195 21-14.016 15.224-6.458 30.385-16.115 21.576-21.762" transform="translate(30.481 57.792) translate(37.071 11.083)"/>
        </g>
        <g transform="translate(30.481 57.792) translate(339.41 204.25)">
            <mask id="prefix__c" fill="#fff">
                <use xlink:href="#prefix__a"/>
            </mask>
            <path fill="url(#prefix__b)" d="M74.874 19.428c.327 8.095-1.26 13.51-2.327 16.177L49.952 56.71C62.305 38.826 67.88 12.158 59.126 6.314 50.403.489 48.218 18.65 48.9 35.526c.514 12.754-1.965 21.318-3.657 25.582L18.147 86.416c11.861-17.86 17.48-44.342 8.476-49.364-6.942-3.872-10.223 7.559-9.54 26.6.466 12.943-2.39 22.772-4.267 27.745L.053 103.318c.514 1.08 1.218 1.884 2.078 2.378l5.079-4.745c4.325-1.301 12.759-2.922 24.833-1.127 16.175 2.403 33.875 1.991 29.149-7.567-4.716-9.542-30.694-6.586-49.14 4.171l22.336-20.863c4.7-1.137 12.399-2.125 22.8-.578 16.175 2.404 33.875 1.992 29.15-7.567-4.428-8.958-27.597-6.9-45.677 2.286l28.683-26.792c2.989-.534 7.264-.83 12.72-.02 10.195 1.516 21.35 1.256 18.373-4.769-2.585-5.226-15.298-4.5-26.213.232l9.298-8.684c3.31-2.189 8.03-5.322 13.916-7.316 11.197-3.792 21.38-9.156 21.402-13.83v-.03c-.005-1.008-.484-1.984-1.528-2.904-5.902-5.2-26.572 7.162-37.057 22.813l-4.784 4.468C83.303 21.602 86.851 4.71 81.32 1.018c-.717-.479-1.364-.7-1.945-.7-3.881 0-4.873 9.86-4.5 19.11" mask="url(#prefix__c)"/>
        </g>
        <g>
            <path fill="#F7E8C8" d="M381.394 304.597c0 9.289-80.693 16.82-180.232 16.82S20.93 313.886 20.93 304.597c0-9.29 80.693-16.82 180.232-16.82 99.54 0 180.232 7.53 180.232 16.82" transform="translate(30.481 57.792) translate(0 .792)"/>
            <path fill="#FB8875" d="M69.824 302.473c1.096.186 2.142-.516 2.336-1.568l1.827-9.909c.193-1.053-.537-2.057-1.634-2.244-1.096-.186-2.142.516-2.336 1.57l-1.826 9.909c-.194 1.053.537 2.057 1.633 2.242" transform="translate(30.481 57.792) translate(0 .792)"/>
            <path fill="#141623" d="M83.006 303.905c.017.583-.441 1.069-1.023 1.083l-14.132.364c-.746.018-1.324-.652-1.196-1.388l.131-2.581c.038-.736.634-1.32 1.37-1.338 0 0 .394 1.12 1.728 1.26 1.079.114 1.415-.788 1.52-1.434.05-.312.375-.508.685-.402l10.22 3.47c.408.147.685.53.697.966" transform="translate(30.481 57.792) translate(0 .792)"/>
            <path fill="#FB8875" d="M3.187 302.473c1.096.186 2.142-.516 2.336-1.568l1.826-9.909c.194-1.053-.537-2.057-1.633-2.244-1.096-.186-2.142.516-2.336 1.57l-1.826 9.909c-.194 1.053.537 2.057 1.633 2.242" transform="translate(30.481 57.792) translate(0 .792)"/>
            <path fill="#141623" d="M16.37 303.905c.016.583-.443 1.069-1.024 1.083l-14.132.364c-.745.018-1.323-.652-1.196-1.388l.13-2.581c.039-.736.635-1.32 1.37-1.338 0 0 .395 1.12 1.728 1.26 1.08.114 1.417-.788 1.52-1.434.05-.312.376-.508.686-.402l10.22 3.47c.407.147.685.53.697.966" transform="translate(30.481 57.792) translate(0 .792)"/>
            <path fill="#726C62" d="M172.675 74.62c10.672 15.368-7.844 29.376-17.19 36.36-15.196 11.36-27.531 6.966-31.932.022 0 0 5.197-6.337 7.912-11.44 4.359-8.193 15.246-19.645 25.008-28.037 4.458-3.833 14.545.71 16.202 3.094" transform="translate(30.481 57.792) translate(0 .792)"/>
            <path fill="#FCBD30" d="M67.846 17.479c-.573-2.794-1.2-9.03.896-11.087 3.587-3.52 21.25-9.251 16.903-3.897 0 0 10.717-.472 18.344 5.384.55.422.128 1.278-.565 1.154-3.58-.65-9.674-1.823-11.185-.243 0 0 4.594.99 7.558 2.947.602.398.255 1.318-.476 1.28-1.78-.093-4.276-.117-5.571.356-2.378.869-4.73 7.669-8.447 10.247-1.657 1.15-6.75 4.957-10.14 4.228-4.214-.906-6.644-7.088-7.317-10.369" transform="translate(30.481 57.792) translate(0 .792)"/>
            <path fill="#726C62" d="M34.782 103.985c-4.324 6.575-3.056 14.314-4.445 27.546-3.086 29.402 31.391.993 31.391.993l3.291 79.53 1.418 86.409 12.5-1.15s25.382-85.549 27.608-106.337c5.9-55.09-8.422-91.377-10.345-94.458-4.418 2.647-49.794 9.15-61.418 7.467" transform="translate(30.481 57.792) translate(0 .792)"/>
            <path fill="#7F786A" d="M32.798 103.808c-1.3 12.231-14.558 25.745-16.622 43.055-3.502 29.359-14.079 149.133-14.079 149.133l12.891.336 47.86-141.108 7.93-53.35s-34.096 2.95-37.98 1.934" transform="translate(30.481 57.792) translate(0 .792)"/>
            <path fill="#F5EFE4" d="M92.458 109.976s-15.256 2.85-32.712 0c-15.978-2.61-28.998-8.857-28.998-8.857l-.34-51.185c1.836-11.59 15.279-20.507 28.371-18.594l23.04 4.144c13.092 1.912 22.063 13.325 20.227 24.914l-9.588 49.578z" transform="translate(30.481 57.792) translate(0 .792)"/>
            <path fill="#726C62" d="M138.84 113.858l5.877-21.61s-27.037-35.05-33.766-43.545c-8.22-10.38-24.063-15.092-26.003-3.919 0 0 4.735 9.84 14.231 26.512 13.721 24.09 39.662 42.562 39.662 42.562" transform="translate(30.481 57.792) translate(0 .792)"/>
            <path fill="#A29C8F" d="M70.723 33.386s-9.722 80.961-31.976 107.73l-30.214-12.98s11.035-24.482 17.47-48.537c6.437-24.054 5.442-48.053 16.463-49.33 11.023-1.28 28.257 3.117 28.257 3.117" transform="translate(30.481 57.792) translate(0 .792)"/>
            <path fill="#FFE2B7" d="M76.705 38.202c-2.161-.353-3.615-2.32-3.248-4.396l.785-4.427c.367-2.075 2.417-3.471 4.578-3.119 2.162.354 3.616 2.322 3.248 4.396l-.783 4.428c-.368 2.074-2.418 3.47-4.58 3.118" transform="translate(30.481 57.792) translate(0 .792)"/>
            <path fill="#FFC581" d="M74.332 28.871c.317-1.794 2.327-2.963 4.488-2.61 2.162.353 3.656 2.093 3.338 3.888l-.832 4.695c-.173.98-2.957-.097-4.91-1.991-1.278-1.24-2.264-2.965-2.264-2.965l.18-1.017z" transform="translate(30.481 57.792) translate(0 .792)"/>
            <path fill="#FFE2B7" d="M72.278 17.704c.491-.06 1.002.507 1.368 1.4l.134-.844c.564-3.513 3.988-5.923 7.648-5.381 3.66.54 6.17 3.828 5.607 7.341 0 0-.409 3.634-1.117 5.688-1.588 4.605-3.968 5.342-7.356 4.84-3.388-.5-5.786-3.355-5.677-6.565-.672-.207-1.327-1.467-1.54-3.055-.241-1.799.177-3.331.933-3.424" transform="translate(30.481 57.792) translate(0 .792)"/>
            <path fill="#FFE2B7" d="M72.278 17.704c.491-.06 1.002.507 1.368 1.4l.134-.844c.564-3.513 3.988-5.923 7.648-5.381 3.66.54.522 18.37-2.866 17.87-3.388-.502-5.786-3.356-5.677-6.566-.672-.207-1.327-1.467-1.54-3.055-.241-1.799.177-3.331.933-3.424" transform="translate(30.481 57.792) translate(0 .792)"/>
            <path fill="#7F786A" d="M83.008 35.642s-12.138 73.994-.352 106.321l21.208-.52s-7.87-25.008-5.661-49.752c2.208-24.745 11.814-46.66 1.852-51.365-9.963-4.704-17.047-4.684-17.047-4.684" transform="translate(30.481 57.792) translate(0 .792)"/>
            <path fill="#A29C8F" d="M73.276 41.323L70.606 33.467 73.866 31.167 77.016 36.705 76.705 38.202z" transform="translate(30.481 57.792) translate(0 .792)"/>
            <path fill="#A29C8F" d="M79.287 42.715L83.225 35.803 81.797 32.947 76.718 36.744 76.647 37.922z" transform="translate(30.481 57.792) translate(0 .792)"/>
            <path fill="#FCC23F" d="M196.55 154.016c-12.528 31.803-49.537 47.834-82.663 35.808-33.126-12.027-49.824-47.557-37.297-79.362 12.527-31.802 49.536-47.834 82.661-35.807 33.127 12.027 49.825 47.558 37.298 79.361" transform="translate(30.481 57.792) translate(0 .792)"/>
        </g>
        <g transform="translate(30.481 57.792) translate(85.676 82.333)">
            <mask id="prefix__e" fill="#fff">
                <use xlink:href="#prefix__d"/>
            </mask>
            <path fill="#FFBF4D" d="M3.357 32.38C-6.746 58.051 6.72 86.733 33.435 96.441 60.15 106.15 89.997 93.21 100.1 67.537c10.103-25.673-3.363-54.354-30.08-64.063C63.998 1.284 57.818.248 51.738.248c-20.885 0-40.556 12.247-48.38 32.131" mask="url(#prefix__e)"/>
        </g>
        <g>
            <path fill="#FFAF12" d="M148.087 113.694c1.672.39 3.436-.904 3.937-2.887.5-1.984-.451-3.91-2.124-4.3l-18.183-4.232-12.122-2.822c-1.673-.39-3.437.904-3.938 2.888-.5 1.983.451 3.908 2.124 4.299l12.122 2.821c3.946.918 6.52 4.705 6.72 9.173l-20.655-4.808c-1.673-.39-3.436.904-3.938 2.887-.5 1.984.452 3.91 2.124 4.299l20.656 4.808c-2.308 3.884-6.401 6.12-10.347 5.2l-12.122-2.821c-.394-.092-.812-.09-1.227.003-.832.194-1.602.752-2.134 1.565-.53.805-.78 1.796-.693 2.745.04.48.164.929.366 1.325l16.986 34.38c.415.843 1.102 1.376 1.879 1.557.775.18 1.64.009 2.41-.55 1.536-1.126 2.11-3.404 1.282-5.081l-13.367-27.055 4.806 1.119c7.322 1.704 14.997-3.053 18.47-10.918l3.34.778c1.673.39 3.437-.904 3.938-2.888.5-1.983-.451-3.909-2.124-4.3l-3.34-.776c.22-2.78-.176-5.428-.986-7.838l6.14 1.429z" transform="translate(30.481 57.792) translate(10.71)"/>
            <path fill="#FF881D" d="M79.438 114.323l1.89-4.467c.746-1.438 1.565-2.845 2.348-4.274.88-1.37 1.873-2.675 2.807-4.018 1.014-1.285 2.14-2.49 3.209-3.74 4.537-4.783 10.124-8.635 16.243-11.362 6.151-2.663 12.85-4.175 19.587-4.318 1.684.05 3.368.04 5.044.14 1.668.21 3.343.362 4.998.621 1.634.378 3.274.72 4.892 1.127l4.738 1.594c-6.327-2.076-13.016-3.051-19.646-2.754-6.624.29-13.194 1.77-19.204 4.451-6.044 2.609-11.516 6.394-16.101 10.997-4.592 4.603-8.238 10.072-10.805 16.003" transform="translate(30.481 57.792) translate(10.71)"/>
            <path fill="#FCD24F" d="M145.66 85.794c4.694 1.786 9.202 4.052 13.259 6.978 3.987 2.992 7.591 6.463 10.604 10.393 2.916 3.991 5.26 8.351 6.979 12.948 1.6 4.637 2.508 9.474 2.764 14.357.167 4.891-.488 9.776-1.72 14.521-.8 2.32-1.444 4.697-2.566 6.901l-.763 1.682c-.13.278-.246.565-.39.836l-.468.8-1.87 3.2c-2.76 4.111-6.031 7.91-9.855 11.157-3.88 3.178-8.19 5.849-12.81 7.935-4.682 1.948-9.62 3.282-14.669 3.974-5.065.605-10.194.447-15.23-.285l-3.736-.77-.934-.193c-.308-.076-.607-.184-.91-.273l-1.818-.564c-2.464-.651-4.746-1.76-7.086-2.718-4.52-2.253-8.767-5.011-12.475-8.37-3.642-3.414-6.816-7.27-9.378-11.492-2.45-4.278-4.302-8.852-5.49-13.593-1.074-4.77-1.398-9.662-1.096-14.514.402-4.857 1.616-9.603 3.329-14.164-1.638 4.59-2.767 9.34-3.086 14.18-.219 4.834.184 9.685 1.326 14.392 1.232 4.685 3.1 9.195 5.562 13.4 2.57 4.148 5.739 7.923 9.357 11.256 3.688 3.272 7.887 5.951 12.331 8.166 2.306.933 4.553 2.02 6.977 2.65l1.788.551c.3.087.594.192.897.266l.918.186 3.673.747c4.95.704 9.987.845 14.959.238 4.953-.695 9.793-2.021 14.384-3.94 4.536-2.034 8.773-4.643 12.594-7.75 3.763-3.178 6.985-6.9 9.711-10.93l1.848-3.14.462-.784c.143-.267.255-.548.385-.821l.755-1.652c1.112-2.164 1.75-4.5 2.547-6.78 1.212-4.665 1.9-9.462 1.786-14.283-.208-4.81-1.058-9.59-2.596-14.186-1.654-4.557-3.94-8.886-6.78-12.872-2.92-3.938-6.438-7.438-10.358-10.48-3.988-2.971-8.445-5.301-13.112-7.16" transform="translate(30.481 57.792) translate(10.71)"/>
            <path fill="#FB8875" d="M71.52 96.676l-1.618 1.927c-.408.486-.387 1.184.05 1.646.593.627 1.648.528 2.103-.198l.987-1.571-1.521-1.804z" transform="translate(30.481 57.792) translate(10.71)"/>
            <path fill="#FFE2B7" d="M76.863 97.992s1.008-1.956.874-2.635c-.101-.519-1.385-1.643-1.385-1.643s-3.263 1.686-4.295 2.449c-.715.529-1.188 1.154-.933 2.054.17.597.802.956 1.426.806l4.313-1.03z" transform="translate(30.481 57.792) translate(10.71)"/>
            <path fill="#FFE2B7" d="M80.203 97.752c-.175.608-.83.964-1.462.796l-2.892-.767.316-1.1 4.038 1.07z" transform="translate(30.481 57.792) translate(10.71)"/>
            <path fill="#FFE2B7" d="M81.077 96.462c-.115.62-.808 1.022-1.548.897l-3.385-.576.208-1.123 4.725.802z" transform="translate(30.481 57.792) translate(10.71)"/>
            <path fill="#FFE2B7" d="M81.49 95.522c-.115.62-.808 1.022-1.548.896l-3.384-.574.206-1.124 4.725.802z" transform="translate(30.481 57.792) translate(10.71)"/>
            <path fill="#FFE2B7" d="M80.387 94.088c-.052.629-.701 1.092-1.451 1.036l-3.426-.259.828-1.117 4.049.34z" transform="translate(30.481 57.792) translate(10.71)"/>
            <path fill="#FFE2B7" d="M76.623 92.643c.343.537.1 1.279-.54 1.655l-2.932 1.724-.572-.185 4.044-3.194z" transform="translate(30.481 57.792) translate(10.71)"/>
            <path fill="#A29C8F" d="M67.392 107.31c-11.696 9.684-43.372 3.106-53.626-2.586-16.677-9.257-14.397-27.52-9.348-34.047 0 0 14.22 11.896 20.166 12.393 9.547.8 34.48 5.936 44.827 8.353 2.454.573 4.836 3.251 4.279 5.617-.67 2.84-4.036 8.396-6.298 10.27" transform="translate(30.481 57.792) translate(10.71)"/>
            <path fill="#A29C8F" d="M10.443 91.453c-6.103.65-8.357-.279-9.376-4.684-2.448-10.593 8.576-31.212 12.744-41.11 5.094-12.093 14.416-16.933 28.525-14.619 0 0-4.75 15.416-10.983 33.46-2.643 7.655-4.537 22.776-4.537 22.776s-5.825 3.055-16.373 4.177" transform="translate(30.481 57.792) translate(10.71)"/>
            <path fill="#FFE2B7" d="M150.324 77.882c-.02.705 1.232 1.285 1.95 1.774.549.373 2.215.423 2.215.423s.677-.526.78-1.817c.072-.896-3.763-3.667-4.108-3.148 0 0-.804 1.62-.837 2.768" transform="translate(30.481 57.792) translate(10.71)"/>
            <path fill="#FFE2B7" d="M152.111 82.879c.63.253 1.385-.102 1.687-.794l1.382-3.164-1.14-.46-1.929 4.418zM148.024 74.58c-.09.649.466 1.255 1.24 1.354l3.542.452s-.29-.611-.437-.775c-.785-.884-4.345-1.032-4.345-1.032" transform="translate(30.481 57.792) translate(10.71)"/>
            <path fill="#FFE2B7" d="M149.503 82.44c.514.43 1.347.32 1.86-.247l2.343-2.59-1.46-.248-2.743 3.086z" transform="translate(30.481 57.792) translate(10.71)"/>
            <path fill="#FFE2B7" d="M148.07 81.811c.483.464 1.322.41 1.875-.12l2.53-2.425-1.44-.346-2.964 2.891zM147.74 80.264c.481.464 1.32.41 1.873-.12l2.529-2.424-1.439-.347-2.964 2.891zM61.019 25.627c-1.101-1.279-1.932-2.768-2.603-4.311-.691-1.534-1.155-3.193-1.402-4.85-.263-1.659-.428-3.336-.37-5.052.03-.855.114-1.729.368-2.604.222-.845.726-1.84 1.497-2.477 1.433-1.21 2.99-1.976 4.57-2.726 1.586-.726 3.201-1.372 4.86-1.92C69.6 1.15 71.287.682 73.075.407c.915-.105 1.79-.273 2.988.075.303.117.708.33.938.767.121.226.178.45.163.644.012.223-.025.395-.077.532-.192.62-.504.964-.791 1.348L75.62 2.52c3.4-.015 6.662.585 9.831 1.533 3.156.956 6.129 2.527 8.553 4.63-1.383-.84-2.769-1.641-4.269-2.223-1.49-.588-3.015-1.074-4.57-1.443-1.555-.37-3.136-.632-4.727-.786-1.581-.142-3.21-.21-4.744-.16-.449.015-.824-.322-.84-.754-.006-.175.049-.339.147-.473l.019-.027c.206-.283.43-.612.46-.797.027-.058.024-.087.012-.075.015-.016 0 .015.018.055.047.06.048.055-.04.017-.462-.122-1.352-.065-2.123.06-1.606.265-3.23.73-4.817 1.263-3.14 1.065-6.418 2.35-8.928 4.177-1.043.802-1.36 2.437-1.547 3.989-.164 1.581-.12 3.214.026 4.832.298 3.214 1.195 6.429 2.937 9.29" transform="translate(30.481 57.792) translate(10.71)"/>
            <path fill="#7F786A" d="M314.093 305.355L370.19 305.355 370.19 176.964 314.093 176.964z" transform="translate(30.481 57.792) translate(10.71)"/>
            <path fill="#A29C8F" d="M264.23 305.355L314.093 305.355 314.093 176.964 264.23 176.964z" transform="translate(30.481 57.792) translate(10.71)"/>
            <path fill="#7F786A" d="M152.039 176.964L377.98 176.964 377.98 167.984 152.039 167.984z" transform="translate(30.481 57.792) translate(10.71)"/>
            <path fill="#A29C8F" d="M78.801 176.964L152.039 176.964 152.039 167.984 78.801 167.984z" transform="translate(30.481 57.792) translate(10.71)"/>
            <path fill="#7783BB" d="M89.382 188.936L97.765 188.936 100.617 176.964 91.86 176.964z" transform="translate(30.481 57.792) translate(10.71)"/>
            <path fill="#7F786A" d="M314.093 176.964L264.23 218.869 264.23 176.964z" transform="translate(30.481 57.792) translate(10.71)"/>
            <path fill="#57575E" d="M159.845 296.694L159.533 295.197 137.578 188.937 135.101 176.964 126.343 176.964 129.195 188.937 154.563 295.197 154.921 296.694 156.712 305.39 161.387 305.39zM91.86 176.964L89.382 188.937 67.427 295.197 67.115 296.694 65.163 305.355 69.838 305.355 72.039 296.694 72.397 295.197 97.765 188.937 100.617 176.964z" transform="translate(30.481 57.792) translate(10.71)"/>
            <path fill="#7F786A" d="M228.318 168.186h-54.995c-2.308 0-4.177-1.796-4.177-4.012h59.172v4.012zM228.318 168.186v-4.012h55.104c2.247 0 4.069 1.75 4.069 3.907v.105" transform="translate(30.481 57.792) translate(10.71)"/>
            <path fill="#A29C8F" d="M235.28 164.175h-64.982c-2.602 0-4.752-1.95-4.904-4.443l-2.07-34.036c-.187-3.066 2.351-5.651 5.55-5.651h58.476c2.945 0 5.378 2.205 5.55 5.028l2.38 39.102z" transform="translate(30.481 57.792) translate(10.71)"/>
            <path fill="#F5EFE4" d="M233.185 159.115c.104 1.656-1.294 3.053-3.056 3.053h-60.174c-1.102 0-2.013-.798-2.078-1.821l-2.207-35.114c-.108-1.727 1.369-3.182 3.23-3.182h58.557c1.908 0 3.485 1.383 3.597 3.154l2.131 33.91z" transform="translate(30.481 57.792) translate(10.71)"/>
            <path fill="#A29C8F" d="M227.705 159.292h-53.96c-.544 0-1.012-.425-1.043-.949l-1.945-32.546c-.03-.523.386-.948.931-.948h53.958c.546 0 1.013.425 1.045.948l1.944 32.546c.032.524-.386.949-.93.949" transform="translate(30.481 57.792) translate(10.71)"/>
            <path fill="#FFF" d="M173.027 126.04c.018.3-.22.542-.531.542-.312 0-.58-.243-.597-.541-.017-.3.221-.543.532-.543.311 0 .579.244.596.543M174.719 126.04c.017.3-.22.542-.531.542-.312 0-.58-.243-.597-.541-.017-.3.22-.543.532-.543.311 0 .578.244.596.543M176.41 126.04c.018.3-.22.542-.531.542-.312 0-.579-.243-.597-.541-.017-.3.22-.543.532-.543.311 0 .579.244.596.543" transform="translate(30.481 57.792) translate(10.71)"/>
            <path fill="#DDD6FF" d="M225.552 127.498L225.742 130.682 172.177 130.682 171.987 127.498z" transform="translate(30.481 57.792) translate(10.71)"/>
            <path fill="#FFF" d="M185.957 157.996L173.809 157.996 172.177 130.681 184.326 130.681zM221.48 149.436h-13.819c-.348 0-.645-.27-.665-.605l-.26-4.335c-.02-.334.246-.605.594-.605h13.82c.347 0 .644.271.664.605l.26 4.335c.02.334-.246.605-.594.605" transform="translate(30.481 57.792) translate(10.71)"/>
            <path fill="#CAE5FF" d="M220.332 147.286L208.552 147.286 208.539 147.06 220.318 147.06zM216.172 148.643L208.633 148.643 208.62 148.417 216.159 148.417z" transform="translate(30.481 57.792) translate(10.71)"/>
            <path fill="#EDBACB" d="M210.093 145.476c.027.437-.321.792-.777.792-.455 0-.846-.355-.872-.792-.026-.438.322-.792.777-.792.456 0 .846.354.872.792M213.523 145.702h-2.356c-.13 0-.242-.101-.25-.226-.007-.125.092-.227.223-.227h2.356c.13 0 .241.102.249.227.007.125-.092.226-.222.226" transform="translate(30.481 57.792) translate(10.71)"/>
            <path fill="#FFF" d="M221.115 143.326h-13.82c-.347 0-.645-.27-.665-.604l-.258-4.336c-.02-.334.245-.604.593-.604h13.82c.347 0 .644.27.664.604l.26 4.336c.02.333-.246.604-.594.604" transform="translate(30.481 57.792) translate(10.71)"/>
            <path fill="#CAE5FF" d="M219.967 141.177L208.188 141.177 208.173 140.95 219.954 140.95zM215.807 142.534L208.268 142.534 208.255 142.308 215.794 142.308z" transform="translate(30.481 57.792) translate(10.71)"/>
            <path fill="#EDBACB" d="M209.728 139.366c.026.437-.322.792-.777.792s-.846-.355-.872-.792c-.026-.438.322-.791.777-.791.456 0 .847.353.872.79M213.158 139.592h-2.356c-.13 0-.242-.101-.25-.226-.007-.125.092-.226.223-.226h2.356c.13 0 .242.101.25.226.006.125-.093.226-.223.226" transform="translate(30.481 57.792) translate(10.71)"/>
            <path fill="#FFF" d="M220.75 137.217h-13.82c-.347 0-.645-.272-.665-.605l-.259-4.335c-.02-.334.246-.605.593-.605h13.82c.348 0 .646.27.666.605l.259 4.335c.02.333-.246.605-.593.605" transform="translate(30.481 57.792) translate(10.71)"/>
            <path fill="#CAE5FF" d="M219.602 135.067L207.822 135.067 207.809 134.84 219.588 134.84zM219.642 135.746L207.863 135.746 207.85 135.519 219.629 135.519zM215.442 136.425L207.903 136.425 207.89 136.198 215.429 136.198z" transform="translate(30.481 57.792) translate(10.71)"/>
            <path fill="#EDBACB" d="M209.363 133.257c.027.437-.321.79-.777.79-.455 0-.846-.353-.872-.79-.026-.438.322-.792.777-.792.456 0 .846.354.872.792M212.793 133.482h-2.356c-.13 0-.242-.1-.25-.225-.007-.125.093-.226.223-.226h2.356c.13 0 .241.101.25.226.006.125-.093.225-.223.225" transform="translate(30.481 57.792) translate(10.71)"/>
            <path fill="#FFF" d="M205.023 133.412l.847 14.175c.055.927-.653 1.684-1.602 1.736-.035.003-.07.004-.106.004h-14.758c-1 0-1.858-.778-1.916-1.74l-.847-14.175c-.057-.96.708-1.74 1.707-1.74h14.76c1 0 1.857.78 1.915 1.74" transform="translate(30.481 57.792) translate(10.71)"/>
            <path fill="#EDBACB" d="M193.993 143.887l-.062-.001c-.626-.031-1.202-.523-1.714-1.465-.448-.824-.917-1.25-1.397-1.266l-.03-.001c-.695 0-1.264.833-1.458 1.153-.041.069-.133.092-.21.052-.083-.043-.115-.143-.07-.218.221-.369.88-1.325 1.761-1.295.61.022 1.178.508 1.688 1.446.45.828.93 1.261 1.428 1.285.854.043 1.547-1.108 1.61-1.215.025-.065.163-.4.391-.742.351-.524.73-.795 1.128-.802.496-.009.97.393 1.412 1.195.4.726.831 1.11 1.282 1.138.8.052 1.456-1.007 1.461-1.016l.005-.008c1.044-1.488 1.633-2.451 2.172-3.554l.292.144c-.546 1.116-1.14 2.089-2.191 3.587-.054.09-.735 1.158-1.665 1.158-.025 0-.05 0-.076-.003-.576-.036-1.103-.478-1.563-1.315-.256-.465-.653-1.017-1.095-1.017h-.009c-.594.01-1.101.99-1.247 1.367l-.003.01-.005.008c-.032.058-.783 1.375-1.835 1.375" transform="translate(30.481 57.792) translate(10.71)"/>
            <path fill="#EDBACB" d="M203.974 138.547c.013.202-.148.365-.358.365-.209 0-.389-.163-.401-.365-.012-.202.149-.365.358-.365.21 0 .39.163.401.365M197.501 140.943c.013.202-.148.365-.358.365s-.389-.163-.401-.365c-.012-.202.149-.365.358-.365.21 0 .39.163.401.365M200.187 143.235c.012.2-.148.364-.357.364-.21 0-.39-.163-.402-.364-.012-.202.148-.365.357-.365.21 0 .39.163.402.365M194.304 143.704c.012.201-.148.365-.358.365s-.39-.164-.402-.365c-.011-.202.148-.365.358-.365s.39.163.402.365M191.156 140.943c.013.202-.148.365-.358.365s-.389-.163-.402-.365c-.011-.202.149-.365.359-.365s.389.163.401.365M189.73 133.154c.03.503-.37.91-.894.91s-.973-.407-1.003-.91c-.03-.504.37-.912.894-.912s.973.408 1.003.912M176.405 168.014L188.682 168.014 188.682 151.506 176.405 151.506z" transform="translate(30.481 57.792) translate(10.71)"/>
            <path fill="#EDBACB" d="M188.517 154.647c-3.027 0-5.489 2.365-5.489 5.273 0 2.907 2.462 5.271 5.489 5.271 3.026 0 5.49-2.364 5.49-5.271 0-2.908-2.464-5.273-5.49-5.273m0 11.599c-3.632 0-6.588-2.839-6.588-6.326 0-3.49 2.956-6.327 6.588-6.327s6.587 2.837 6.587 6.327c0 3.487-2.955 6.326-6.587 6.326" transform="translate(30.481 57.792) translate(10.71)"/>
        </g>
        <g transform="translate(30.481 57.792) translate(240.552 266.792)">
            <mask id="prefix__h" fill="#fff">
                <use xlink:href="#prefix__f"/>
            </mask>
            <path fill="url(#prefix__g)" d="M3.742 1.64s4.509 18.973 5.05 22.97C9.512 29.914.41 33.918.41 33.918c1.312 3.903 17.244 1.041 18.247-2.645.521-1.915.928-4.062.04-5.8-1.068-2.093-1.883-4.286-2.367-6.554L12.414.554 3.742 1.64z" mask="url(#prefix__h)"/>
        </g>
        <g>
            <path fill="#7F786A" d="M11.478 130.557H42.49V119.55c0-.414-.357-.744-.786-.728l-10.234.374s-4.956 5.03-9.656 5.935c-4.103.79-8.195.89-9.798 3.905-.24.444-.418.947-.538 1.522" transform="translate(30.481 57.792) translate(217.486 174.167)"/>
            <path fill="#A29C8F" d="M11.478 130.557H42.49v-1.522H12.016c-.24.444-.418.947-.538 1.522" transform="translate(30.481 57.792) translate(217.486 174.167)"/>
            <path fill="#7F786A" d="M63.553.068L5.047 13.75c-3.42.823-5.448 4.211-4.477 7.474l26.75 90.888 13.35-.611s-8.391-60.272-12.25-74.65c-.525-1.953.988-3.86 3.083-3.877l41.898-.348c12.58-1.156 19.32-13.867 21.3-32.557H63.553z" transform="translate(30.481 57.792) translate(217.486 174.167)"/>
        </g>
        <g transform="translate(30.481 57.792) translate(223.252 266.792)">
            <mask id="prefix__k" fill="#fff">
                <use xlink:href="#prefix__i"/>
            </mask>
            <path fill="url(#prefix__j)" d="M3.242 1.64s4.32 18.973 4.84 22.97C8.772 29.914.05 33.918.05 33.918c1.257 3.903 16.525 1.041 17.486-2.645.499-1.915.889-4.062.038-5.8-1.024-2.093-1.804-4.286-2.268-6.554L11.553.554 3.242 1.64z" mask="url(#prefix__k)"/>
        </g>
        <g>
            <path fill="#7F786A" d="M10.355 130.557h31.178v-11.015c0-.414-.359-.745-.79-.729l-10.29.375s-4.982 5.032-9.707 5.939c-4.125.79-8.239.89-9.85 3.906-.24.445-.42.948-.541 1.524" transform="translate(30.481 57.792) translate(200.186 174.958)"/>
            <path fill="#A29C8F" d="M10.355 130.557h31.178v-1.524H10.895c-.24.445-.42.948-.54 1.524M111.995.045C110 18.743 93.659 33.017 74.046 33.175l-42.121.35c-2.103.018-3.624 1.924-3.1 3.884 3.374 12.491 10.87 65 12.155 74.691.173 1.293-13.05 1.244-13.42 0L2.085 25.971l-.262-.863-.998-3.34c-.977-3.264 1.068-6.652 4.5-7.48l2.211-.471 3.26-.699L69.572.554l42.422-.509z" transform="translate(30.481 57.792) translate(200.186 174.958)"/>
            <path fill="#7F786A" d="M9.026 18.062c0 3.841-3.215 6.966-7.203 7.046l-.996-3.34c-.979-3.264 1.067-6.652 4.499-7.48l2.211-.471c.933 1.176 1.49 2.647 1.49 4.245" transform="translate(30.481 57.792) translate(200.186 174.958)"/>
        </g>
        <g transform="translate(30.481 57.792) translate(274.329 163.875)">
            <mask id="prefix__n" fill="#fff">
                <use xlink:href="#prefix__l"/>
            </mask>
            <path fill="url(#prefix__m)" d="M3.78 3.987c-1.097 2.455 3.437.45 3.437.45s-11.998 7.584-3.63 7.001c8.446-.59 12.617-7.822 12.617-7.822L13.53.348S4.878 1.53 3.78 3.987" mask="url(#prefix__n)"/>
        </g>
        <path fill="#FFAF12" d="M286.455 111.08c-.814 1.124-1.374 2.516-1.415 4.227-.058 2.413 1.008 4.73 2.772 6.47l24.13 23.807-26.032 18.917 4.47 4.916 33.332-20.736c1.707-1.062 2.675-2.926 2.495-4.854-.103-1.1-.408-2.15-.948-2.853-5.327-6.922-16.998-24.61-26.495-31.578-3.858-2.83-9.548-2.13-12.31 1.683" transform="translate(30.481 57.792)"/>
        <g transform="translate(30.481 57.792) translate(261.148 93.417)">
            <mask id="prefix__q" fill="#fff">
                <use xlink:href="#prefix__o"/>
            </mask>
            <path fill="url(#prefix__p)" d="M2.868.757L.748 17.814c-.125 1.013-.261 2.181.321 3 3.594 5.062 9.382 3.664 12.71 1.903 1.073-.569 1.706-1.758 1.609-3.005L13.838.017l-10.97.74z" mask="url(#prefix__q)"/>
        </g>
        <g transform="translate(30.481 57.792) translate(247.143 76.792)">
            <mask id="prefix__t" fill="#fff">
                <use xlink:href="#prefix__r"/>
            </mask>
            <path fill="url(#prefix__s)" d="M8.79 1.413s-.187.347-.511.962c-.654 1.26-1.094 4.11-3.169 6.532-.527.616-1.511.114-1.73.616-.584 1.34-.09 3.61-.636 5.045-2.453 6.447-4.1 13.253-1.167 15.227 3.792 2.561 9.743-.19 14.52-4.169 2.104-1.75 3.973-3.73 5.337-5.608.457-.62.848-1.228 1.178-1.806C25.787 12.602 23.84.707 13.485.707c-1.407 0-2.97.22-4.696.705" mask="url(#prefix__t)"/>
        </g>
        <g>
            <path fill="#57575E" d="M40.941 20.558c-3.856 8.494-13.19 16.989-16.753 8.594-.385-.9-.703-1.992-.94-3.303 0 0 3.05-5.878-1.22-5.878-4.271 0-3.356 6.171-3.356 7.935 0 .875-.585 3.264-.153 5.833.12.714-.143 1.436-.727 1.888-4.663 3.6-10.168 5.874-13.763 3.448-2.977-2.005-1.306-8.912 1.184-15.454.433 1.963 2.374 2.29 4.887 2.29 4.882 0 8.877-7.705 8.877-7.705s-5.028-3.15-8.144-6.959c-1.74-2.121-2.57-4.389-2.228-6.56 1.525-9.699 7.366-.243 14.89 2.174 9.567 3.072 21.717 4.292 17.446 13.697" transform="translate(30.481 57.792) translate(244.671 67.292)"/>
            <path fill="#BC8877" d="M9.772 16.794c-.156.334-.454.527-.667.432-.212-.096-.258-.445-.102-.78.156-.335.454-.528.667-.432.212.096.258.445.102.78" transform="translate(30.481 57.792) translate(244.671 67.292)"/>
            <path fill="#FFAF12" d="M17.277 40.09s12.377-8.23 15.428-4.703c3.05 3.527 7.32 7.055 3.66 7.642-3.66.588-19.262 1.176-19.088-2.939" transform="translate(30.481 57.792) translate(244.671 67.292)"/>
            <path fill="#BF830E" d="M25.505 108.278h-3.684c-1.862 0-3.503-1.193-4.01-2.921L.283 45.992C-.595 43.03 1.71 40.09 4.902 40.09h1.677c-1.354 1.153-2.031 2.998-1.476 4.855l17.907 60.646c.366 1.253 1.305 2.222 2.495 2.687" transform="translate(30.481 57.792) translate(244.671 67.292)"/>
            <path fill="#FFAF12" d="M64.724 108.278H25.505c-1.189-.465-2.129-1.434-2.495-2.687L5.103 44.945c-.555-1.857.122-3.702 1.477-4.855h40.524c1.227 0 2.305.785 2.641 1.922l18.31 62.016c.628 2.127-1.031 4.25-3.331 4.25" transform="translate(30.481 57.792) translate(244.671 67.292)"/>
            <g>
                <path fill="#D42531" d="M7.623 15.47c.258-.4.518-.76.79-1.11.57-.736 1.18-1.435 1.941-1.973.502-.355 1.026-.671 1.647-.804.883-.189 1.676.072 2.365.808.118.125.225.262.359.372.182.15.377.245.597.195.165-.037.247-.158.237-.335-.012-.211-.083-.413-.191-.602-.58-1.007-1.405-1.58-2.503-1.696-.877-.094-1.632.153-2.335.555-.961.551-1.762 1.295-2.494 2.12-.658.742-1.245 1.543-1.728 2.427-.025.046-.052.076-.111.078-.47.008-.939.02-1.407.033-.027-.032-.004-.051.007-.07.768-1.377 1.617-2.684 2.693-3.804.92-.958 1.958-1.753 3.228-2.22.848-.31 1.74-.436 2.692-.253 1.217.233 2.143.958 2.843 2.03.611.933.983 1.94 1.203 2.993.061.296.107.592.15.89.012.09-.004.127-.101.127-.311.001-.622.01-.932.022-.082.003-.108-.022-.121-.105-.055-.366-.12-.732-.256-1.089-.039-.104-.086-.206-.151-.299-.193-.274-.529-.276-.657-.001-.085.184-.076.391-.055.598.026.271.061.543.1.815.011.084-.01.11-.092.112-.299.002-.596.009-.893.021-.09.004-.115-.022-.122-.115-.037-.503-.117-1.001-.377-1.474-.252-.458-.595-.788-1.11-.861-.369-.051-.706.03-1.026.165-.608.255-1.107.66-1.562 1.12-.355.361-.664.764-.94 1.194-.046.073-.1.1-.188.1-.49.009-.98.022-1.5.036" transform="translate(30.481 57.792) translate(244.671 67.292) translate(23.821 56.088)"/>
                <path fill="#D42531" d="M19.851 14.345c.036.245.07.488.11.734.012.073-.013.094-.082.094-.324.005-.646.012-.968.024-.083.003-.102-.032-.113-.104-.08-.546-.187-1.09-.32-1.633-.3-1.207-.732-2.371-1.52-3.41-1.045-1.383-2.382-2.142-3.994-2.3-1.163-.117-2.224.122-3.227.565-1.136.502-2.113 1.227-2.992 2.089-.358.35-.677.74-1.03 1.095-.154.153-.315.298-.498.414-.145.092-.303.146-.482.03-.127-.081-.18-.29-.142-.496.046-.242.181-.43.314-.618 1.113-1.582 2.512-2.82 4.255-3.647.9-.425 1.862-.687 2.902-.705 2.287-.039 4.204.952 5.781 2.847.686.822 1.127 1.758 1.46 2.737.256.753.431 1.515.546 2.284" transform="translate(30.481 57.792) translate(244.671 67.292) translate(23.821 56.088)"/>
                <path fill="#D42531" d="M4.948 8.404c.457-.76 1-1.44 1.635-2.033 1.035-.964 2.23-1.67 3.646-1.993 2.389-.541 4.74-.16 7.01 1.37 1.494 1.003 2.608 2.35 3.448 3.925.545 1.02.927 2.081 1.187 3.176.132.555.226 1.11.294 1.667.039.312-.094.533-.344.597-.203.05-.376-.023-.505-.214-.098-.146-.141-.307-.165-.47-.19-1.295-.568-2.557-1.148-3.778-.576-1.213-1.315-2.322-2.292-3.28-1.139-1.114-2.454-1.775-3.929-2.045-.99-.181-1.967-.215-2.923-.082-1.215.17-2.32.59-3.344 1.19-.896.526-1.7 1.172-2.436 1.906-.058.058-.058.058-.134.064" transform="translate(30.481 57.792) translate(244.671 67.292) translate(23.821 56.088)"/>
                <path fill="#F5EFE4" d="M16.872 4.29c.18.062.363.117.541.188 3.84 1.522 6.534 4.21 8.057 8.082.301.763.496 1.548.623 2.339.017.102-.008.13-.106.13-.659.012-1.317.027-1.975.048-.105.003-.127-.034-.139-.13-.157-1.316-.495-2.607-1.035-3.868-.98-2.285-2.471-4.196-4.466-5.737-.243-.187-.49-.37-.746-.537-.25-.165-.504-.328-.756-.492l.002-.024M12.603 0c.244.362.58.583.901.824.515.388.976.825 1.298 1.395.103.182.184.37.256.562.04.106.03.138-.084.12-.418-.069-.834-.107-1.25-.127-.818-.037-1.62.002-2.407.13l-.35.059c-.009-.38.071-.717.204-1.037.18-.436.469-.782.79-1.103.244-.24.51-.464.642-.823M5.295 4.632c-.058-.41-.006-.884.09-1.35.072-.35.18-.693.123-1.077-.005-.035-.002-.067.044-.043.463.245.95.237 1.427.344.683.154 1.313.438 1.849.97.091.09.08.113-.02.156-1.153.497-2.177 1.183-3.066 2.06-.074.074-.11.082-.159-.04-.052-.13-.11-.257-.15-.39-.057-.178-.102-.36-.138-.63M20.302 1.97c.047.383.226.701.394 1.024.277.533.503 1.077.56 1.659.025.262.015.516-.024.768-.017.104-.037.129-.143.05-.849-.626-1.748-1.145-2.694-1.566-.323-.144-.648-.278-.98-.39-.091-.03-.106-.056-.052-.132.366-.52.882-.827 1.499-.992.19-.05.387-.09.583-.128.297-.056.593-.11.857-.294M25.614 10.725c-.22-.416-.454-.823-.71-1.22-.53-.819-1.134-1.583-1.817-2.288-.079-.082-.083-.11.016-.147.64-.24 1.313-.196 2.011.01.367.108.724.268 1.098.337.106.019.21.015.332.023-.081.213-.12.432-.126.662-.011.37-.003.742-.057 1.102-.083.546-.276 1.033-.636 1.425-.024.026-.05.051-.075.076-.009.007-.02.011-.036.02M2.758 11.18c-.429-.308-.75-.711-1.005-1.17-.245-.443-.379-.917-.524-1.388-.072-.237-.157-.468-.3-.678-.03-.045-.054-.082.022-.083.344-.002.63-.152.925-.28.474-.202.963-.354 1.507-.34.27.006.538.05.806.133.113.033.131.06.069.155-.474.734-.847 1.528-1.134 2.376-.126.373-.232.755-.32 1.144-.01.043-.008.094-.046.131" transform="translate(30.481 57.792) translate(244.671 67.292) translate(23.821 56.088)"/>
                <path fill="#D62733" d="M11.421 18.25c.043.298.091.596.126.894.013.106.053.13.145.13.123 0 .244-.008.361-.027.4-.064.66-.338.696-.723.017-.192-.006-.388-.06-.58-.106-.38-.373-.623-.75-.7-.188-.04-.37-.025-.554-.014-.084.005-.11.034-.095.126.049.297.088.596.131.894m-.694.022c-.066-.463-.131-.927-.201-1.39-.012-.08-.008-.123.082-.136.494-.07.99-.12 1.504-.03.777.133 1.278.68 1.359 1.476.087.864-.293 1.404-1.102 1.567-.42.085-.854.08-1.29.059-.11-.005-.14-.047-.155-.156-.06-.463-.13-.927-.197-1.39" transform="translate(30.481 57.792) translate(244.671 67.292) translate(23.821 56.088)"/>
                <path fill="#D42532" d="M16.77 18.119c.067.469.134.938.207 1.407.015.094-.001.13-.1.127-.151-.004-.303.002-.453.014-.09.007-.124-.015-.138-.117-.044-.347-.104-.697-.147-1.046-.013-.106-.05-.125-.145-.121-.313.015-.627.023-.943.025-.097 0-.113.032-.098.127.057.353.103.707.158 1.06.015.088-.01.112-.09.111-.165 0-.328.004-.492.014-.071.004-.095-.02-.106-.093-.138-.967-.278-1.933-.42-2.9-.011-.072.003-.1.076-.1.169 0 .337-.003.503-.013.084-.006.1.03.11.104.043.315.097.63.133.944.015.12.056.14.161.135.301-.015.602-.026.906-.023.122 0 .136-.043.117-.154-.052-.31-.09-.621-.14-.93-.014-.088.008-.112.09-.111.156.002.311 0 .465-.012.093-.008.124.02.137.118.066.478.138.956.208 1.434" transform="translate(30.481 57.792) translate(244.671 67.292) translate(23.821 56.088)"/>
                <path fill="#D62733" d="M24.836 17.299c.016.11.032.22.05.332.005.031.001.078.051.077.22-.007.452.025.626-.125.116-.1.142-.238.097-.397-.045-.163-.155-.267-.316-.312-.175-.052-.343-.021-.512-.012-.061.004-.055.048-.048.091l.052.346m1.085.651c.245.104.376.294.473.51.121.271.237.544.361.814.04.087.013.102-.064.102-.168.001-.337.004-.503.015-.079.006-.116-.03-.152-.096-.102-.198-.18-.405-.264-.609-.024-.057-.047-.115-.077-.17-.134-.258-.431-.387-.678-.299-.06.021-.03.07-.025.105.047.326.093.65.147.974.015.092.001.13-.098.128-.161-.004-.32.003-.479.012-.072.004-.096-.023-.107-.094-.139-.945-.28-1.89-.422-2.833-.01-.063-.001-.093.063-.102.488-.073.98-.13 1.49-.024.767.157.932.969.633 1.335-.078.097-.18.166-.298.232M18.652 17.027c-.034.417-.083.798-.137 1.18-.01.071.035.064.078.063.164-.004.327-.012.49-.012.085 0 .108-.013.065-.108-.165-.36-.321-.725-.496-1.123m-.039-.514c.117-.003.236-.002.352-.01.069-.005.105.017.138.087.446.957.895 1.914 1.346 2.869.034.073.025.094-.054.095-.189 0-.378.003-.565.016-.077.005-.106-.03-.134-.094-.089-.199-.183-.397-.269-.597-.032-.077-.069-.11-.152-.105-.23.012-.461.019-.692.02-.084 0-.111.03-.12.113-.02.2-.055.398-.075.598-.008.076-.03.11-.11.109-.172-.001-.345.003-.515.014-.097.007-.103-.025-.09-.108.157-.968.312-1.937.464-2.906.011-.07.04-.095.111-.093.123.003.244-.005.365-.008M5.146 17.4l-.15 1.18c-.007.061.028.062.07.061.175-.005.351-.012.526-.014.064 0 .077-.02.049-.084-.166-.377-.327-.755-.495-1.144m-.053-.539c.121-.003.243-.001.364-.012.073-.005.106.027.136.093.441.966.885 1.93 1.33 2.895.033.075.037.106-.055.105-.185-.001-.37.004-.553.016-.08.005-.113-.028-.144-.099-.086-.202-.18-.402-.266-.604-.03-.07-.062-.107-.143-.103-.237.013-.477.017-.716.02-.068.001-.093.027-.1.094-.026.216-.06.429-.083.645-.007.069-.034.09-.1.091-.18.002-.362.008-.54.017-.07.003-.088-.013-.076-.089.163-.99.321-1.98.479-2.97.01-.062.033-.092.101-.09.123.002.244-.006.366-.009M21.952 16.943c-.036.412-.081.793-.137 1.172-.01.066.03.068.077.066.167-.005.335-.013.503-.012.093 0 .086-.033.052-.106-.162-.362-.32-.724-.495-1.12m-.039-.514c.122-.002.244-.003.365-.01.06-.003.09.02.118.077.45.96.9 1.916 1.354 2.872.039.082.015.092-.056.092-.19.002-.378.007-.566.016-.067.004-.099-.022-.126-.084-.092-.207-.19-.412-.28-.62-.03-.068-.066-.092-.138-.088-.234.01-.469.017-.704.018-.077 0-.107.027-.115.104-.022.209-.056.413-.077.622-.008.067-.032.091-.1.091-.18.002-.36.007-.54.015-.066.004-.09-.006-.077-.083.159-.978.315-1.956.468-2.933.01-.062.04-.08.098-.08.125 0 .251-.005.376-.009M8.437 17.291c-.034.419-.081.8-.14 1.18-.01.067.02.081.08.079.166-.006.335-.012.503-.013.076 0 .09-.022.055-.1-.164-.368-.322-.74-.498-1.146m-.045-.517c.121-.002.244-.001.364-.01.073-.007.106.025.137.09.442.964.885 1.927 1.33 2.887.037.077.037.106-.054.105-.185 0-.37.004-.552.016-.081.005-.115-.03-.145-.101-.086-.202-.181-.401-.266-.603-.031-.073-.066-.104-.144-.1-.234.013-.47.019-.705.02-.08 0-.105.033-.112.107-.023.207-.057.411-.078.618-.008.071-.028.103-.103.103-.182 0-.362.007-.541.015-.073.004-.085-.016-.074-.087.161-.987.32-1.974.477-2.96.01-.065.035-.093.101-.091.122.001.244-.005.365-.009" transform="translate(30.481 57.792) translate(244.671 67.292) translate(23.821 56.088)"/>
                <path fill="#F5EFE4" d="M29.634 14.942c-.837.02-1.674.039-2.512.061-.085.002-.117-.018-.13-.11-.093-.631-.244-1.256-.44-1.876-.042-.132.013-.116.096-.101.523.096 1 .328 1.443.659.308.23.576.503.844.777.215.218.433.432.7.59M0 15.643c.38-.27.565-.698.826-1.062.386-.535.864-.944 1.519-1.116.023-.007.049-.01.072-.017.08-.03.1.002.097.086-.018.644.027 1.292.108 1.943.01.073.013.12-.082.12-.835.018-1.669.04-2.503.06-.006.002-.014-.004-.037-.014" transform="translate(30.481 57.792) translate(244.671 67.292) translate(23.821 56.088)"/>
                <path fill="#D62733" d="M10.564 15.393c.426-.52.831-1.014 1.45-1.256.083-.032.171-.056.26-.07.428-.068.765.16.904.608.06.194.08.386.087.58.003.065-.024.079-.078.08-.256.005-.511.013-.766.02-.032 0-.064.01-.085-.038-.052-.117-.147-.12-.24-.103-.06.011-.126.025-.172.06-.121.098-.272.093-.422.097l-.938.022" transform="translate(30.481 57.792) translate(244.671 67.292) translate(23.821 56.088)"/>
                <path fill="#D72532" d="M3.513 13.61c-.023-.175.016-.333.065-.487.06-.191.148-.366.253-.531.073-.116.168-.207.31-.23.298-.047.563.238.531.572-.006.068-.02.136-.048.194-.124.26-.28.496-.484.692-.035.032-.075.06-.116.085-.264.152-.47.033-.511-.295" transform="translate(30.481 57.792) translate(244.671 67.292) translate(23.821 56.088)"/>
            </g>
        </g>
        <g transform="translate(30.481 57.792) translate(206.776 90.25)">
            <mask id="prefix__w" fill="#fff">
                <use xlink:href="#prefix__u"/>
            </mask>
            <path fill="url(#prefix__v)" d="M.478 3.785c-.574 9.815 7.46 15.616 7.46 15.616l4.321-2.633S12.152 6.634 9.376 5.03C6.6 3.428 8.317 8.93 8.317 8.93S4.19.485 1.911.486c-.745 0-1.292.903-1.433 3.3" mask="url(#prefix__w)"/>
        </g>
        <g>
            <path fill="#FFAF12" d="M49.308 6.49c-2.24-5.427-10.002-5.928-12.905-.801L23.6 28.293c-.037.065-.137.058-.164-.012L13.155.7c-.123-.328-.513-.482-.84-.333L7.089 2.774c-.246.112-.384.365-.34.623.788 4.56 7.6 43.542 7.6 43.542.76 4.633 6.976 6.038 9.797 2.216l24.442-30.162c2.6-3.362 2.606-7.938.721-12.504" transform="translate(30.481 57.792) translate(206.776 105.292)"/>
            <path fill="#57575E" d="M7.759 105.112L.335 199.358 4.385 199.358 13.159 105.112zM63.781 105.112L71.205 199.358 67.156 199.358 58.381 105.112zM124.527 105.112L131.952 199.358 127.902 199.358 119.128 105.112z" transform="translate(30.481 57.792) translate(206.776 105.292)"/>
            <path fill="#57575E" d="M139.99 46.388l-7.093 54.11c-.54 4.121-4.185 7.214-8.498 7.214H4.054c-1.681 0-3.044-1.312-3.044-2.93 0-1.614 1.356-2.925 3.03-2.932l53.6-.266c4.885-.027 9.01-3.497 9.691-8.158l7.04-47.942c.432-2.924 2.741-5.199 5.643-5.758.5-.104 1.02-.15 1.552-.137l53.281 1.06c3.14.065 5.536 2.736 5.144 5.74" transform="translate(30.481 57.792) translate(206.776 105.292)"/>
            <path fill="#7F786A" d="M139.99 46.388l-7.093 54.11c-.54 4.121-4.185 7.214-8.498 7.214H66.3c2.68-1.619 4.63-4.595 5.082-8.176l7.04-55.807c.546-3.288 2.612-4.152 3.145-4.14l53.281 1.06c3.14.065 5.536 2.736 5.144 5.74" transform="translate(30.481 57.792) translate(206.776 105.292)"/>
        </g>
    </g>
</svg>
