<svg xmlns="http://www.w3.org/2000/svg" xmlns:xlink="http://www.w3.org/1999/xlink" width="519" height="380" viewBox="0 0 519 380"><defs/><defs><path id="a" d="M74.9 19.4c.3 8.1-1.3 13.5-2.4 16.2L50 56.7C62.3 38.8 67.9 12.2 59 6.3 50.4.5 48.2 18.6 49 35.5c.5 12.8-2 21.3-3.7 25.6l-27 25.3C30 68.6 35.5 42.1 26.5 37.1c-7-4-10.2 7.5-9.5 26.6.4 12.9-2.4 22.7-4.3 27.7l-12.7 12c.5 1 1.2 1.8 2 2.3l5.1-4.7c4.3-1.4 12.8-3 24.8-1.2 16.2 2.4 34 2 29.2-7.5-4.7-9.6-30.7-6.6-49.1 4.1l22.3-20.8a59.8 59.8 0 0122.8-.6c16.2 2.4 33.9 2 29.1-7.6-4.4-9-27.6-6.9-45.6 2.3L69.3 43c3-.5 7.3-.8 12.8 0 10.2 1.5 21.3 1.3 18.3-4.8-2.5-5.2-15.3-4.5-26.2.3l9.3-8.7c3.3-2.2 8-5.3 14-7.3 11.1-3.8 21.3-9.2 21.3-13.9 0-1-.4-2-1.5-3-5.9-5.1-26.6 7.3-37 23l-4.8 4.4C83.3 21.6 86.9 4.7 81.3 1c-.7-.5-1.3-.7-2-.7-3.8 0-4.8 9.9-4.4 19.1"/><path id="d" d="M3.4 32.4a49.1 49.1 0 0030 64 52.4 52.4 0 0066.7-28.9 49.1 49.1 0 00-30-64C64 1.3 57.7.2 51.6.2A51.7 51.7 0 003.4 32.4"/><path id="f" d="M3.7 1.6s4.6 19 5 23C9.6 30 .5 34 .5 34c1.3 4 17.3 1 18.3-2.6.5-2 .9-4 0-5.8-1-2.1-1.9-4.3-2.4-6.6L12.4.6l-8.7 1z"/><path id="i" d="M3.2 1.6s4.4 19 4.9 23C8.8 30 0 34 0 34c1.2 4 16.5 1 17.4-2.6.5-2 1-4 0-5.8-1-2.1-1.7-4.3-2.2-6.6L11.6.6l-8.4 1z"/><path id="l" d="M3.8 4c-1.1 2.4 3.4.4 3.4.4s-12 7.6-3.6 7a17 17 0 0012.6-7.8L13.5.3S5 1.5 3.8 4"/><path id="o" d="M2.9.8l-2.2 17c0 1-.2 2.2.4 3 3.6 5 9.4 3.7 12.7 2 1-.7 1.7-1.8 1.6-3L13.8 0 2.8.8z"/><path id="r" d="M8.8 1.4l-.5 1c-.7 1.2-1.1 4-3.2 6.5-.5.6-1.5.1-1.7.6-.6 1.4-.1 3.6-.7 5-2.4 6.5-4 13.3-1.1 15.3 3.8 2.6 9.7-.2 14.5-4.2a32 32 0 006.5-7.4C25.8 12.6 23.8.7 13.5.7c-1.4 0-3 .2-4.7.7"/><path id="u" d="M.5 3.8a19.3 19.3 0 007.4 15.6l4.4-2.6S12.2 6.6 9.3 5c-2.7-1.6-1 4-1 4S4.2.4 2 .4C1.2.5.6 1.4.5 3.8"/><linearGradient id="b" x1="-29.6%" x2="95.9%" y1="97.2%" y2="19.9%"><stop offset="0%" stop-color="#FFB218"/><stop offset="100%" stop-color="#FFCF44"/></linearGradient><linearGradient id="g" x1="32.5%" x2="62%" y1="54.1%" y2="47.2%"><stop offset="0%" stop-color="#FBB59E"/><stop offset="100%" stop-color="#FFEBD1"/></linearGradient><linearGradient id="j" x1="34%" x2="61%" y1="54.1%" y2="47.2%"><stop offset="0%" stop-color="#FBB59E"/><stop offset="100%" stop-color="#FFEBD1"/></linearGradient><linearGradient id="m" x1="80.7%" x2="8.1%" y1="81.4%" y2="20.5%"><stop offset="0%" stop-color="#FBB59E"/><stop offset="100%" stop-color="#FFEBD1"/></linearGradient><linearGradient id="p" x1="24506.5%" x2="24507.2%" y1="4969.3%" y2="4969.5%"><stop offset="0%" stop-color="#FBB59E"/><stop offset="100%" stop-color="#FFEBD1"/></linearGradient><linearGradient id="s" x1="83.1%" x2="16.5%" y1="77.4%" y2="30.3%"><stop offset="0%" stop-color="#FBB59E"/><stop offset="100%" stop-color="#FFEBD1"/></linearGradient><linearGradient id="v" x1="20.6%" x2="78.8%" y1="75.1%" y2="15.8%"><stop offset="0%" stop-color="#FBB59E"/><stop offset="100%" stop-color="#FFEBD1"/></linearGradient></defs><g fill="none" fill-rule="evenodd"><path fill="#FFF4DD" d="M397.6 172.3c-2.9-29.9-18-58-37.8-79.6a76 76 0 00-28-21 33.4 33.4 0 00-32.6 4c-6.9 5.5-11 14-17.2 20.4-12.7 13.2-32.3 15.2-49.7 12.1-17.3-3-33.8-10.5-51.2-13.6-17.4-3-37-1-49.7 12.3-14.7 15.5-15.6 40.9-12 62.8 1.2 7.4 2.8 15.2.5 22.4-3.3 10.8-13.9 16.3-22.4 23a83 83 0 00-29.2 74.5c4.1 30.8 25.4 56.8 51 71 25.5 14.3 54.9 18.1 83.6 18.3 12.2 0 24.5-.5 36.6-2.4 35.2-5.5 68.3-22.3 97.4-44.4a184.4 184.4 0 0043.3-44c21.9-32.9 27.3-76.8 17.4-115.8"/><path fill="#619440" d="M460.7 201.7c-.4-9.5 6.3-18.7 4-28.1-1.4-6-6.6-9.6-12.6-7.7-7.5 2.4-10.6 10-13.3 17-1.8 4.9-3.9 9.4-7.8 13-3.4 3-7.4 5.3-11 8a30.6 30.6 0 00-11.8 18.6c-2 8.7-2.3 19-9.6 25.2-5.9 5-14.8 6.7-18.3 14.5-3.8 8.5 2.1 21.4-6.7 27.2-3.7 2.5-7.8 3.5-11.2 6.6a26.3 26.3 0 00-6 8.8 26 26 0 00.4 22.2c.2.3.4.4.7.5a41 41 0 0012 19.2c5.4 4.1 12.7 5.8 18.9 2.2 10.6-6 11.9-20.7 19.5-29.4 2.6-3.1 5.9-4.8 9.9-5 4.4-.4 8.8 1 13.1-.5 6.4-2 9.8-8.4 11.5-14.6 2.4-9.6 0-20.1 4.4-29.2 3.9-8.1 12.4-12.5 16.7-20.5 8-15.2-2.3-32.4-2.8-48"/><path fill="#496B32" d="M449.8 185.1c-1.6 11.5-7.2 22-12.3 32.3-5 10.1-10.2 20.3-15.4 30.4a574.2 574.2 0 01-34.2 58.4 323.3 323.3 0 01-23.1 30.2c-.9 1 .6 2.4 1.4 1.4 15-17.3 27.8-36.2 39.3-55.7a1001 1001 0 0032.3-60.8c5.8-11.6 12.3-23.3 14-36.2.2-1.2-1.9-1.2-2 0"/><path fill="#496B32" d="M381.9 317.1c0-10.8-.1-21.6-.5-32.4 0-1.3-2.1-1.3-2 0 .3 10.8.5 21.6.4 32.4 0 1.3 2.1 1.3 2.1 0m12-15.6c3-1 6.3-1 9.6-1a138.1 138.1 0 0020.8-2c3.2-.5 6.3-1.3 9.2-2.7 1.2-.6.2-2.3-1-1.7-3 1.4-6.2 2-9.4 2.6a134.1 134.1 0 01-20.3 1.8c-3.2 0-6.5 0-9.5 1.1-1.3.4-.7 2.4.5 2m16-27c1-3.4 1-7 .9-10.6a294.5 294.5 0 011.5-34.3c.1-1.2-2-1.2-2 0a297.5 297.5 0 00-1.6 33.5c0 3.6.3 7.3-.9 10.8-.4 1.3 1.6 1.8 2 .6m13.7-25.5c11.3-1 22.3-4 32.5-8.9 1.2-.5.1-2.3-1-1.7a94.6 94.6 0 01-31.5 8.6c-1.3.1-1.4 2.1 0 2m15.5-30.3c-2-6.8-2.7-13.8-2-20.9.2-1.2-2-1.2-2 0-.8 7.2-.1 14.5 2 21.5.3 1.2 2.3.7 2-.6"/><path fill="#306B34" d="M420.3 242.6c-8.8-5.6-29.9 10.6-40.6 29.4l9.1-29.5c3.6-3.4 9.8-8.3 19.5-12.5 15.3-6.4 30.4-16 21.6-21.7-8.2-5.3-27.3 8.6-38.5 26l11.7-38c2.3-2 5.9-4.5 11-6.6 9.6-4.1 19.2-10.2 13.6-13.7-4.8-3.1-15.5 4.2-22.6 14l3.8-12.3c1.8-3.6 4.3-8.8 8.5-13.6 9.5-11 16.6-23.4 9-24.7-7.7-1.3-19.6 20-21 38.9l-2 6.3c1.3-13.7-4-30-10.5-30.2-6.6-.2-2.2 10.3 3.4 19a38.1 38.1 0 016 15l-9.2 29.9c1.9-21.7-6.4-47.3-16.9-47.7-10.4-.4-3.4 16.2 5.5 30.2a60.6 60.6 0 019.4 23.7l-11 35.8c1.5-21.4-6.7-47-17-46.5-7.9.4-5.1 11.8 4.9 27.7a69.7 69.7 0 0110 25.8l-5.3 16.9c1 .6 2 1 3 1l2-6.8c3.2-3.4 9.7-9.2 21-14 15.3-6.5 30.4-16.1 21.6-21.8"/><g transform="translate(369.9 262)"><mask id="c" fill="#fff"><use xlink:href="#a"/></mask><path fill="url(#b)" d="M74.9 19.4c.3 8.1-1.3 13.5-2.4 16.2L50 56.7C62.3 38.8 67.9 12.2 59 6.3 50.4.5 48.2 18.6 49 35.5c.5 12.8-2 21.3-3.7 25.6l-27 25.3C30 68.6 35.5 42.1 26.5 37.1c-7-4-10.2 7.5-9.5 26.6.4 12.9-2.4 22.7-4.3 27.7l-12.7 12c.5 1 1.2 1.8 2 2.3l5.1-4.7c4.3-1.4 12.8-3 24.8-1.2 16.2 2.4 34 2 29.2-7.5-4.7-9.6-30.7-6.6-49.1 4.1l22.3-20.8a59.8 59.8 0 0122.8-.6c16.2 2.4 33.9 2 29.1-7.6-4.4-9-27.6-6.9-45.6 2.3L69.3 43c3-.5 7.3-.8 12.8 0 10.2 1.5 21.3 1.3 18.3-4.8-2.5-5.2-15.3-4.5-26.2.3l9.3-8.7c3.3-2.2 8-5.3 14-7.3 11.1-3.8 21.3-9.2 21.3-13.9 0-1-.4-2-1.5-3-5.9-5.1-26.6 7.3-37 23l-4.8 4.4C83.3 21.6 86.9 4.7 81.3 1c-.7-.5-1.3-.7-2-.7-3.8 0-4.8 9.9-4.4 19.1" mask="url(#c)"/></g><path fill="#F7E8C8" d="M411.9 363.2c0 9.3-80.7 16.8-180.3 16.8s-180.2-7.5-180.2-16.8 80.7-16.8 180.2-16.8c99.6 0 180.3 7.5 180.3 16.8"/><path fill="#FB8875" d="M100.3 361a2 2 0 002.3-1.5l1.9-10c.2-1-.6-2-1.7-2.2a2 2 0 00-2.3 1.6l-1.8 10a2 2 0 001.6 2.2"/><path fill="#141623" d="M113.5 362.5c0 .6-.5 1-1 1l-14.2.4c-.7 0-1.3-.6-1.2-1.4l.2-2.5c0-.8.6-1.4 1.3-1.4a2 2 0 001.8 1.3c1 .1 1.4-.8 1.5-1.4 0-.4.4-.6.7-.4l10.2 3.4c.4.2.7.6.7 1"/><path fill="#FB8875" d="M33.7 361a2 2 0 002.3-1.5l1.8-10c.2-1-.5-2-1.6-2.2a2 2 0 00-2.3 1.6L32 359a2 2 0 001.7 2.2"/><path fill="#141623" d="M46.9 362.5c0 .6-.5 1-1 1l-14.2.4c-.7 0-1.3-.6-1.2-1.4l.1-2.5c0-.8.7-1.4 1.4-1.4a2 2 0 001.7 1.3c1.1.1 1.4-.8 1.5-1.4.1-.4.4-.6.7-.4l10.3 3.4c.4.2.6.6.6 1"/><path fill="#726C62" d="M203.2 133.2c10.6 15.4-7.9 29.4-17.2 36.4-15.2 11.3-27.6 7-32 0 0 0 5.2-6.4 8-11.5 4.3-8.1 15.2-19.6 25-28 4.4-3.8 14.5.7 16.2 3.1"/><path fill="#FCBD30" d="M98.3 76c-.5-2.7-1.2-9 1-11 3.5-3.5 21.2-9.3 16.8-4 0 0 10.7-.4 18.4 5.5.5.4.1 1.2-.6 1.1-3.6-.6-9.7-1.8-11.2-.2 0 0 4.6 1 7.6 3 .6.3.2 1.2-.5 1.2-1.8 0-4.3-.1-5.6.4-2.3.8-4.7 7.6-8.4 10.2-1.7 1.2-6.8 5-10.2 4.2-4.2-.9-6.6-7-7.3-10.3"/><path fill="#726C62" d="M65.3 162.6c-4.4 6.5-3 14.3-4.5 27.5-3 29.4 31.4 1 31.4 1l3.3 79.5 1.4 86.4 12.5-1.1s25.4-85.6 27.6-106.3c6-55.1-8.4-91.4-10.3-94.5-4.4 2.6-49.8 9.2-61.4 7.5"/><path fill="#7F786A" d="M63.3 162.4c-1.3 12.2-14.6 25.7-16.6 43-3.5 29.4-14.1 149.2-14.1 149.2l12.9.3 47.8-141 8-53.4s-34.1 3-38 1.9"/><path fill="#F5EFE4" d="M123 168.6s-15.3 2.8-32.8 0c-16-2.6-29-8.9-29-8.9l-.3-51.2C62.7 97 76.2 88 89.3 90l23 4.2c13 1.9 22 13.3 20.2 24.9l-9.6 49.6z"/><path fill="#726C62" d="M169.3 172.4l5.9-21.6s-27-35-33.8-43.5c-8.2-10.4-24-15.1-26-4 0 0 4.8 10 14.3 26.6 13.7 24 39.6 42.5 39.6 42.5"/><path fill="#A29C8F" d="M101.2 92s-9.7 81-32 107.7l-30.2-13s11-24.5 17.5-48.5c6.4-24 5.4-48 16.4-49.3 11-1.3 28.3 3 28.3 3"/><path fill="#FFE2B7" d="M107.2 96.8a3.8 3.8 0 01-3.3-4.4l.8-4.4a4 4 0 014.6-3.2c2.2.4 3.6 2.4 3.2 4.4l-.7 4.5a4 4 0 01-4.6 3"/><path fill="#FFC581" d="M104.8 87.5c.3-1.8 2.3-3 4.5-2.7 2.2.4 3.7 2.1 3.3 4l-.8 4.6c-.2 1-3 0-4.9-2-1.3-1.2-2.3-3-2.3-3l.2-1z"/><path fill="#FFE2B7" d="M102.8 76.3c.5 0 1 .5 1.3 1.4l.2-.9c.5-3.5 4-5.9 7.6-5.3 3.7.5 6.2 3.8 5.6 7.3 0 0-.4 3.6-1.1 5.7-1.6 4.6-4 5.3-7.4 4.8a6.5 6.5 0 01-5.6-6.5c-.7-.2-1.4-1.5-1.6-3-.2-1.9.2-3.4 1-3.5"/><path fill="#FFE2B7" d="M102.8 76.3c.5 0 1 .5 1.3 1.4l.2-.9c.5-3.5 4-5.9 7.6-5.3 3.7.5.5 18.3-2.9 17.8a6.5 6.5 0 01-5.6-6.5c-.7-.2-1.4-1.5-1.6-3-.2-1.9.2-3.4 1-3.5"/><path fill="#7F786A" d="M113.5 94.2s-12.1 74-.4 106.3l21.2-.5s-7.8-25-5.6-49.7c2.2-24.8 11.8-46.7 1.8-51.4-10-4.7-17-4.7-17-4.7"/><path fill="#A29C8F" d="M103.8 100l-2.7-8 3.2-2.2 3.2 5.5-.3 1.5z"/><path fill="#A29C8F" d="M109.8 101.3l4-7-1.5-2.8-5.1 3.8v1.2z"/><path fill="#FCC23F" d="M227 212.6a65 65 0 01-82.6 35.8A60.9 60.9 0 01107 169a65 65 0 0182.6-35.8 60.9 60.9 0 0137.3 79.4"/><g transform="translate(116.2 140.1)"><mask id="e" fill="#fff"><use xlink:href="#d"/></mask><path fill="#FFBF4D" d="M3.4 32.4a49.1 49.1 0 0030 64 52.4 52.4 0 0066.7-28.9 49.1 49.1 0 00-30-64C64 1.3 57.7.2 51.6.2A51.7 51.7 0 003.4 32.4" mask="url(#e)"/></g><g><path fill="#FFAF12" d="M189.3 171.5c1.6.4 3.4-1 4-2.9.4-2-.5-4-2.2-4.3l-18.2-4.2-12.1-2.9c-1.7-.3-3.5 1-4 3s.5 3.8 2.2 4.2l12 2.9c4 .9 6.6 4.7 6.8 9.1l-20.6-4.8c-1.7-.4-3.5 1-4 3-.5 1.9.5 3.8 2.1 4.2l20.7 4.8c-2.3 3.9-6.4 6.1-10.3 5.2l-12.2-2.8h-1.2c-.8.2-1.6.7-2.1 1.6-.6.8-.8 1.8-.7 2.7 0 .5.1 1 .3 1.3l17 34.4c.4.9 1.1 1.4 2 1.6a3 3 0 002.3-.6 4.2 4.2 0 001.3-5L159 194.8l4.8 1.1c7.4 1.7 15-3 18.5-11l3.3.9c1.7.3 3.5-1 4-3s-.5-3.8-2.1-4.2l-3.4-.8c.2-2.8-.2-5.4-1-7.8l6.2 1.4z"/><path fill="#FF881D" d="M120.6 172.1l2-4.5 2.3-4.2c.8-1.4 1.8-2.7 2.8-4l3.2-3.8a51 51 0 0135.8-15.7c1.7 0 3.4 0 5 .2 1.7.2 3.4.3 5 .6l5 1.1 4.7 1.6a55.3 55.3 0 00-38.9 1.7 51.8 51.8 0 00-26.9 27"/><path fill="#FCD24F" d="M186.9 143.6a54.6 54.6 0 0123.9 17.4 52.4 52.4 0 019.7 27.3 51 51 0 01-1.8 14.5c-.8 2.3-1.4 4.7-2.5 6.9l-.8 1.7-.4.8-.4.8-2 3.2a54.2 54.2 0 01-22.6 19 59 59 0 01-14.7 4 58 58 0 01-15.2-.2l-3.7-.8-1-.2-.9-.3-1.8-.5c-2.4-.7-4.7-1.8-7-2.7-4.6-2.3-8.8-5-12.5-8.4a54.7 54.7 0 01-9.4-11.5 53.6 53.6 0 01-5.5-13.6c-1-4.8-1.4-9.7-1.1-14.5a52.8 52.8 0 01.2 0c-.2 4.8.2 9.7 1.4 14.4 1.2 4.7 3 9.2 5.5 13.4a54 54 0 009.4 11.3c3.7 3.2 7.9 6 12.3 8.1 2.3 1 4.6 2 7 2.7l1.8.5.9.3.9.2 3.7.7c5 .7 10 .9 15 .3 4.9-.7 9.7-2 14.3-4 4.5-2 8.8-4.6 12.6-7.7 3.8-3.2 7-7 9.7-11l1.9-3.1.4-.8.4-.8.8-1.7c1-2.1 1.7-4.5 2.5-6.7a52 52 0 001.8-14.3c-.2-4.8-1-9.6-2.6-14.2-1.7-4.6-4-8.9-6.8-12.9-2.9-4-6.4-7.4-10.3-10.5-4-3-8.5-5.3-13.1-7.1"/><path fill="#FB8875" d="M112.7 154.5l-1.6 1.9c-.4.5-.4 1.2 0 1.6.6.7 1.7.6 2.1-.2l1-1.5-1.5-1.8z"/><path fill="#FFE2B7" d="M118 155.8s1-2 1-2.7c-.2-.5-1.5-1.6-1.5-1.6s-3.2 1.7-4.3 2.5c-.7.5-1.1 1.1-.9 2 .2.6.8 1 1.4.8l4.4-1z"/><path fill="#FFE2B7" d="M121.4 155.5c-.2.7-.8 1-1.5.8l-2.9-.7.4-1.1 4 1z"/><path fill="#FFE2B7" d="M122.3 154.3c-.1.6-.8 1-1.6.9l-3.4-.6.2-1.1 4.8.8z"/><path fill="#FFE2B7" d="M122.7 153.3c-.1.6-.8 1-1.6 1l-3.4-.7.3-1 4.7.7z"/><path fill="#FFE2B7" d="M121.6 151.9c0 .6-.7 1-1.5 1l-3.4-.2.8-1.2 4 .4z"/><path fill="#FFE2B7" d="M117.8 150.4c.4.6.1 1.3-.5 1.7l-3 1.7-.5-.2 4-3.2z"/><path fill="#A29C8F" d="M108.6 165.1c-11.7 9.7-43.4 3.1-53.6-2.6a23.9 23.9 0 01-9.4-34s14.2 11.9 20.2 12.4c9.5.8 34.5 5.9 44.8 8.3 2.5.6 4.8 3.3 4.3 5.6-.7 2.9-4 8.4-6.3 10.3"/><path fill="#A29C8F" d="M51.6 149.2c-6 .7-8.3-.2-9.3-4.6-2.5-10.6 8.5-31.3 12.7-41.1 5.1-12.1 14.4-17 28.5-14.7 0 0-4.7 15.4-11 33.5C70 129.9 68 145 68 145s-5.8 3-16.4 4.1"/><path fill="#FFE2B7" d="M191.5 135.7c0 .7 1.2 1.3 2 1.7.5.4 2.2.5 2.2.5s.7-.6.8-1.8c0-1-3.8-3.7-4.1-3.2 0 0-.9 1.6-.9 2.8"/><path fill="#FFE2B7" d="M193.3 140.7c.6.2 1.4-.1 1.7-.8l1.4-3.2-1.2-.4-1.9 4.4zm-4-8.3c-.2.6.4 1.2 1.2 1.3l3.5.5-.4-.8c-.8-.9-4.4-1-4.4-1"/><path fill="#FFE2B7" d="M190.7 140.2c.5.5 1.3.4 1.9-.2l2.3-2.6-1.5-.3-2.7 3.1z"/><path fill="#FFE2B7" d="M189.3 139.6c.4.5 1.3.4 1.8-.1l2.6-2.4-1.5-.4-3 2.9zm-.4-1.5c.5.4 1.4.4 1.9-.2l2.5-2.4-1.4-.3-3 2.9zm-86.7-54.7a18.5 18.5 0 01-4-9.2c-.3-1.6-.4-3.3-.4-5 0-.8.1-1.7.4-2.6a5 5 0 011.5-2.5 47.4 47.4 0 0114.6-6c.9 0 1.8-.2 3 .2.3 0 .7.3.9.7l.2.7-.1.5c-.2.6-.5 1-.8 1.4l-.7-1.3c3.4 0 6.7.6 9.8 1.5 3.2 1 6.2 2.6 8.6 4.7a27.4 27.4 0 00-8.8-3.7 35 35 0 00-9.5-1 .8.8 0 01-.9-.7c0-.2 0-.3.2-.5l.5-.8h-2.2c-1.6.3-3.2.8-4.8 1.3a34 34 0 00-9 4.2c-1 .8-1.3 2.4-1.5 4a25.2 25.2 0 003 14.1"/><path fill="#7F786A" d="M355.3 363.1h56V234.8h-56z"/><path fill="#A29C8F" d="M305.4 363.1h49.9V234.8h-49.9z"/><path fill="#7F786A" d="M193.2 234.8h226v-9h-226z"/><path fill="#A29C8F" d="M120 234.8h73.2v-9H120z"/><path fill="#7783BB" d="M130.6 246.7h8.4l2.8-12h-8.7z"/><path fill="#7F786A" d="M355.3 234.8l-49.9 41.9v-42z"/><path fill="#57575E" d="M201 354.5l-.3-1.5-22-106.3-2.4-12h-8.8l2.9 12L195.8 353l.3 1.5 1.8 8.7h4.7zm-68-119.7l-2.4 12-22 106.2-.3 1.5-2 8.6h4.7l2.2-8.6.4-1.5L139 246.7l2.8-12z"/><path fill="#7F786A" d="M269.5 226h-55a4.1 4.1 0 01-4.2-4h59.2v4zm0 0v-4h55.1a4 4 0 014 3.9"/><path fill="#A29C8F" d="M276.5 222h-65c-2.6 0-4.8-2-5-4.5l-2-34c-.2-3 2.4-5.7 5.6-5.7h58.4c3 0 5.4 2.2 5.6 5l2.4 39.2z"/><path fill="#F5EFE4" d="M274.4 217c0 1.6-1.3 3-3 3H211c-1 0-2-.8-2-1.9l-2.2-35c-.1-1.8 1.3-3.3 3.2-3.3h58.5c2 0 3.5 1.4 3.6 3.2l2.2 34z"/><path fill="#A29C8F" d="M268.9 217h-54a1 1 0 01-1-.9l-2-32.5c0-.5.4-1 1-1h54c.5 0 1 .5 1 1l2 32.5c0 .6-.5 1-1 1"/><path fill="#FFF" d="M214.2 183.8c0 .3-.2.6-.5.6a.6.6 0 01-.6-.6c0-.3.2-.5.5-.5s.6.2.6.5m1.7 0c0 .3-.2.6-.5.6a.6.6 0 01-.6-.6c0-.3.2-.5.5-.5s.6.2.6.5m1.7 0c0 .3-.2.6-.5.6a.6.6 0 01-.6-.6c0-.3.2-.5.5-.5s.6.2.6.5"/><path fill="#DDD6FF" d="M266.7 185.3l.2 3.2h-53.5l-.2-3.2z"/><path fill="#FFF" d="M227.1 215.8H215l-1.6-27.3h12.1zm35.6-8.6h-13.8a.7.7 0 01-.7-.6l-.3-4.3c0-.3.3-.6.6-.6h13.8c.4 0 .7.3.7.6l.3 4.3c0 .4-.3.6-.6.6"/><path fill="#CAE5FF" d="M261.5 205h-11.8v-.1h11.8zm-4.1 1.4h-7.6v-.2h7.6z"/><path fill="#EDBACB" d="M251.3 203.3c0 .4-.3.8-.8.8a.9.9 0 01-.9-.8c0-.5.4-.8.8-.8.5 0 .9.3.9.8m3.4.2h-2.3a.2.2 0 01-.3-.2c0-.2.1-.3.2-.3h2.4c.1 0 .2.1.2.3 0 0 0 .2-.2.2"/><path fill="#FFF" d="M262.3 201.1h-13.8a.7.7 0 01-.7-.6l-.2-4.3c0-.4.2-.6.6-.6H262c.3 0 .6.2.6.6l.3 4.3c0 .3-.2.6-.6.6"/><path fill="#CAE5FF" d="M261.2 199h-11.8v-.3H261zm-4.2 1.3h-7.5v-.2h7.5z"/><path fill="#EDBACB" d="M251 197.2c0 .4-.4.8-.9.8s-.8-.4-.8-.8c0-.5.3-.8.7-.8.5 0 .9.3 1 .8m3.3.2H252a.2.2 0 01-.3-.2c0-.2.1-.3.3-.3h2.3c.2 0 .3.1.3.3 0 0-.1.2-.3.2"/><path fill="#FFF" d="M262 195H248a.7.7 0 01-.6-.6l-.3-4.3c0-.4.2-.6.6-.6h13.8c.4 0 .7.2.7.6l.2 4.3c0 .3-.2.6-.6.6"/><path fill="#CAE5FF" d="M260.8 192.9H249v-.3h11.8zm0 .6h-11.7v-.2h11.7zm-4.2.7h-7.5v-.2h7.5z"/><path fill="#EDBACB" d="M250.6 191c0 .5-.4.8-.8.8a.9.9 0 01-.9-.8c0-.4.3-.7.8-.7.4 0 .8.3.9.7m3.4.3h-2.4a.2.2 0 01-.2-.3s0-.2.2-.2h2.4l.2.2c0 .2 0 .3-.2.3"/><path fill="#FFF" d="M246.2 191.2l.9 14.2a1.6 1.6 0 01-1.7 1.7h-14.8a2 2 0 01-2-1.7l-.8-14.2c0-1 .7-1.7 1.7-1.7h14.8c1 0 1.9.7 2 1.7"/><path fill="#EDBACB" d="M235.2 201.7c-.7 0-1.3-.5-1.8-1.5-.4-.8-1-1.2-1.4-1.3-.7 0-1.3.9-1.5 1.2h-.2s-.1 0 0-.2c.2-.3.8-1.3 1.7-1.3.6 0 1.2.5 1.7 1.5.4.8 1 1.2 1.4 1.3.9 0 1.6-1.1 1.6-1.2l.4-.8c.4-.5.8-.8 1.1-.8.5 0 1 .4 1.5 1.2.4.7.8 1.1 1.2 1.1.8.1 1.5-1 1.5-1l2.2-3.5.3.1-2.2 3.6s-.8 1.2-1.7 1.2c-.6 0-1.2-.5-1.6-1.4-.3-.4-.7-1-1.1-1-.6 0-1.1 1-1.3 1.4 0 0-.8 1.4-1.8 1.4"/><path fill="#EDBACB" d="M245.2 196.3c0 .2-.2.4-.4.4a.4.4 0 01-.4-.4c0-.2.2-.3.4-.3s.4.1.4.3m-6.5 2.4c0 .2-.2.4-.4.4s-.4-.2-.4-.4.2-.3.4-.3.4.1.4.3m2.7 2.3c0 .2-.2.4-.4.4a.4.4 0 01-.4-.4c0-.2.2-.3.4-.3s.4.1.4.3m-6 .5c.1.2 0 .4-.3.4s-.4-.2-.4-.4.2-.4.4-.4.4.2.4.4m-3.2-2.8c0 .2-.1.4-.3.4s-.4-.2-.4-.4.1-.3.3-.3.4.1.4.3M231 191c0 .5-.3 1-.9 1s-1-.5-1-1 .4-.9 1-.9.9.4 1 1m-13.4 34.8h12.3v-16.5h-12.3z"/><path fill="#EDBACB" d="M229.7 212.4c-3 0-5.5 2.4-5.5 5.3 0 3 2.5 5.3 5.5 5.3s5.5-2.4 5.5-5.3-2.5-5.3-5.5-5.3m0 11.6a6.5 6.5 0 01-6.6-6.3c0-3.5 3-6.3 6.6-6.3s6.6 2.8 6.6 6.3-3 6.3-6.6 6.3"/></g><g transform="translate(271 324.6)"><mask id="h" fill="#fff"><use xlink:href="#f"/></mask><path fill="url(#g)" d="M3.7 1.6s4.6 19 5 23C9.6 30 .5 34 .5 34c1.3 4 17.3 1 18.3-2.6.5-2 .9-4 0-5.8-1-2.1-1.9-4.3-2.4-6.6L12.4.6l-8.7 1z" mask="url(#h)"/></g><g><path fill="#7F786A" d="M259.4 362.5h31v-11c0-.4-.3-.7-.7-.7l-10.3.4s-5 5-9.6 5.9c-4.1.8-8.2.9-9.8 3.9-.3.4-.4 1-.6 1.5"/><path fill="#A29C8F" d="M259.4 362.5h31V361H260c-.3.4-.4 1-.6 1.5"/><path fill="#7F786A" d="M311.5 232L253 245.7a6 6 0 00-4.5 7.5l26.8 90.9 13.3-.6s-8.4-60.3-12.2-74.7c-.5-2 1-3.8 3-3.9l42-.3c12.5-1.2 19.3-13.9 21.3-32.6h-31.2z"/></g><g transform="translate(253.7 324.6)"><mask id="k" fill="#fff"><use xlink:href="#i"/></mask><path fill="url(#j)" d="M3.2 1.6s4.4 19 4.9 23C8.8 30 0 34 0 34c1.2 4 16.5 1 17.4-2.6.5-2 1-4 0-5.8-1-2.1-1.7-4.3-2.2-6.6L11.6.6l-8.4 1z" mask="url(#k)"/></g><g><path fill="#7F786A" d="M241 363.3h31.2v-11c0-.4-.4-.8-.8-.7l-10.3.3s-5 5-9.7 6c-4.1.8-8.2.9-9.8 3.9-.3.4-.5 1-.6 1.5"/><path fill="#A29C8F" d="M241 363.3h31.2v-1.5h-30.6c-.3.4-.5 1-.6 1.5m101.7-130.5c-2 18.7-18.4 33-38 33.1l-42.1.4c-2.1 0-3.6 1.9-3.1 3.9 3.4 12.5 10.9 65 12.1 74.7.2 1.2-13 1.2-13.4 0l-25.4-86.2-.3-.8-1-3.4a6 6 0 014.5-7.5l2.2-.4 3.3-.7 58.7-12.6 42.5-.5z"/><path fill="#7F786A" d="M239.7 250.8c0 3.9-3.2 7-7.2 7l-1-3.3a6 6 0 014.5-7.5l2.2-.4c1 1.1 1.5 2.6 1.5 4.2"/></g><g transform="translate(304.8 221.7)"><mask id="n" fill="#fff"><use xlink:href="#l"/></mask><path fill="url(#m)" d="M3.8 4c-1.1 2.4 3.4.4 3.4.4s-12 7.6-3.6 7a17 17 0 0012.6-7.8L13.5.3S5 1.5 3.8 4" mask="url(#n)"/></g><path fill="#FFAF12" d="M317 168.9a7.4 7.4 0 00-1.5 4.2c0 2.4 1 4.7 2.8 6.5l24.1 23.8-26 18.9 4.5 5 33.3-20.8c1.7-1 2.7-3 2.5-4.9a5.7 5.7 0 00-1-2.8c-5.3-7-17-24.6-26.5-31.6a9 9 0 00-12.3 1.7"/><g transform="translate(291.6 151.2)"><mask id="q" fill="#fff"><use xlink:href="#o"/></mask><path fill="url(#p)" d="M2.9.8l-2.2 17c0 1-.2 2.2.4 3 3.6 5 9.4 3.7 12.7 2 1-.7 1.7-1.8 1.6-3L13.8 0 2.8.8z" mask="url(#q)"/></g><g transform="translate(277.6 134.6)"><mask id="t" fill="#fff"><use xlink:href="#r"/></mask><path fill="url(#s)" d="M8.8 1.4l-.5 1c-.7 1.2-1.1 4-3.2 6.5-.5.6-1.5.1-1.7.6-.6 1.4-.1 3.6-.7 5-2.4 6.5-4 13.3-1.1 15.3 3.8 2.6 9.7-.2 14.5-4.2a32 32 0 006.5-7.4C25.8 12.6 23.8.7 13.5.7c-1.4 0-3 .2-4.7.7" mask="url(#t)"/></g><g><path fill="#57575E" d="M316 145.6c-3.8 8.5-13.1 17-16.7 8.6-.3-.9-.7-2-.9-3.3 0 0 3-5.8-1.2-5.8-4.3 0-3.4 6.1-3.4 7.9 0 .9-.6 3.3-.1 5.8a2 2 0 01-.8 2c-4.6 3.5-10.1 5.8-13.7 3.4-3-2-1.3-9 1.2-15.5.4 2 2.3 2.3 4.9 2.3 4.8 0 8.8-7.7 8.8-7.7s-5-3.2-8.1-7c-1.8-2-2.6-4.4-2.2-6.5 1.5-9.7 7.3-.3 14.8 2.1 9.6 3.1 21.8 4.3 17.5 13.7"/><path fill="#BC8877" d="M285 141.9c-.2.3-.5.5-.7.4-.3 0-.3-.4-.1-.8.1-.3.4-.5.6-.4.2 0 .3.4.1.8"/><path fill="#FFAF12" d="M292.4 165.2s12.4-8.3 15.5-4.7c3 3.5 7.3 7 3.6 7.6-3.6.6-19.2 1.2-19-3"/><path fill="#BF830E" d="M300.7 233.4H297a4.1 4.1 0 01-4-3l-17.6-59.3c-.8-3 1.5-6 4.7-6h1.6c-1.3 1.2-2 3-1.4 5l17.9 60.6a4.1 4.1 0 002.5 2.7"/><path fill="#FFAF12" d="M339.9 233.4h-39.2a4.1 4.1 0 01-2.5-2.7l-18-60.7c-.5-1.8.2-3.7 1.5-4.8h40.6c1.2 0 2.3.8 2.6 1.9l18.3 62c.6 2.1-1 4.3-3.3 4.3"/><path fill="#D42531" d="M306.6 196.6a15.3 15.3 0 012.7-3c.5-.4 1-.7 1.7-.8.9-.2 1.6 0 2.3.8.2 0 .3.2.4.3.2.2.4.3.6.2.2 0 .2-.1.2-.3 0-.2 0-.4-.2-.6-.5-1-1.4-1.6-2.5-1.7-.8-.1-1.6.1-2.3.6a13.2 13.2 0 00-4.3 4.6h-1.4c.7-1.4 1.6-2.7 2.7-3.9.9-1 2-1.7 3.2-2.2a5 5 0 012.7-.2c1.2.2 2.1 1 2.8 2a8.6 8.6 0 011.4 3.9l-.1.1a26.3 26.3 0 00-1 0l-.3-1.2-.2-.3c-.2-.2-.5-.2-.6 0V196.5a26.5 26.5 0 00-1.1-.1c0-.5-.1-1-.4-1.5-.2-.5-.6-.8-1-.9a2 2 0 00-1.1.2c-.6.2-1.1.7-1.6 1.1l-1 1.2-.1.1h-1.5"/><path fill="#D42531" d="M318.8 195.5l.1.8a44.3 44.3 0 00-1.1 0l-.3-1.7a9.1 9.1 0 00-1.6-3.4 5.5 5.5 0 00-4-2.3c-1.1-.1-2.2.1-3.2.6-1.1.5-2.1 1.2-3 2l-1 1.2a3 3 0 01-.5.4h-.5c-.1 0-.2-.3-.1-.5l.3-.6c1-1.6 2.5-2.8 4.2-3.6a7 7 0 013-.8c2.2 0 4.1 1 5.7 2.9.7.8 1.1 1.8 1.5 2.7l.5 2.3"/><path fill="#D42531" d="M304 189.6c.4-.8 1-1.5 1.6-2 1-1 2.2-1.7 3.6-2 2.4-.6 4.7-.2 7 1.3 1.5 1 2.6 2.4 3.5 4a13.1 13.1 0 011.4 4.8c0 .3 0 .5-.3.6-.2 0-.4 0-.5-.2l-.2-.5a13.2 13.2 0 00-3.4-7 7.4 7.4 0 00-4-2.1c-1-.2-2-.2-2.9 0a9 9 0 00-3.3 1.1c-1 .5-1.7 1.2-2.4 2h-.2"/><path fill="#F5EFE4" d="M315.8 185.5l.6.1a13.8 13.8 0 018.7 10.5l-.1.1a144.2 144.2 0 00-2.2 0 14 14 0 00-6.2-10.2l-.8-.5m-4.2-4.3l.9.8a4 4 0 011.6 2h-.2a10.8 10.8 0 00-3.6 0l-.4.1.2-1 .8-1.1.7-.8m-7.3 4.6v-1.3l.2-1.1 1.5.3c.6.1 1.3.4 1.8 1v.1a10 10 0 00-3 2c-.2.1-.2.1-.2 0l-.2-.4-.1-.6m15-2.7c0 .4.2.7.4 1 .2.6.5 1.1.5 1.7v.8c0 .1 0 .1-.1 0a14.4 14.4 0 00-3.7-2c-.1 0-.1 0 0 0 .3-.6.8-.9 1.4-1l.6-.2c.3 0 .6 0 .9-.3m5.3 8.8a16.3 16.3 0 00-2.5-3.7c.6-.2 1.3-.2 2 0l1 .4h.4l-.1.7v1c-.1.6-.3 1.1-.7 1.5l-.1.1m-22.9.5l-1-1.2-.5-1.4-.3-.7c.4 0 .7-.2 1-.3.4-.2 1-.4 1.5-.4l.8.1v.2a10.6 10.6 0 00-1.4 3.5v.2"/><path fill="#D62733" d="M310.4 199.4l.1 1h.5c.4 0 .7-.3.7-.7v-.6a1 1 0 00-.8-.7h-.5c-.1 0-.2 0-.1.1v1m-.6 0l-.2-1.4v-.2c.6 0 1-.1 1.6 0 .8.1 1.3.7 1.3 1.5.1.8-.2 1.4-1 1.5h-1.5l-.2-1.5"/><path fill="#D42532" d="M315.7 199.3a113.6 113.6 0 00.1 1.5h-.4-.1l-.2-1.1-.1-.1h-1v1.1c.1.2 0 .2 0 .2a8 8 0 00-.5 0l-.1-.1a723 723 0 00-.3-3h.5l.2 1c0 .2 0 .2.2.2h.9s.1-.1 0-.2v-1h.6l.2 1.5"/><path fill="#D62733" d="M323.8 198.5v.3h.7c.2-.1.2-.3.1-.4 0-.2-.1-.3-.3-.4h-.5v.5m1 .6c.3.1.5.3.6.5 0 .3.2.6.3.8v.1h-.7l-.3-.6v-.2c-.2-.3-.5-.4-.7-.3l.1 1v.2h-.6a838.4 838.4 0 00-.4-3c.5 0 1-.2 1.5 0 .7.1.9 1 .6 1.3l-.3.2m-7.3-.9l-.1 1.2h.6l-.5-1.2m0-.5h.5a622.7 622.7 0 001.3 3h-.6-.1l-.3-.6c0-.1 0-.2-.2-.2h-.6l-.2.2v.6h-.1l-.6.1v-.1a566.6 566.6 0 00.5-3h.4m-13.5.9l-.1 1.2h.6l-.5-1.2m0-.6h.3l.2.1a835 835 0 001.2 3h-.5-.2l-.2-.7H304l-.2.7h-.6a611.2 611.2 0 00.5-3h.4m16.8 0a19.6 19.6 0 010 1.3h.5v-.2l-.5-1m0-.6h.4a631.2 631.2 0 001.4 3h-.6-.1l-.3-.7h-1v.7h-.1l-.6.1a509.8 509.8 0 00.5-3l.4-.1m-13.5.9l-.1 1.1v.1h.6l-.5-1.2m0-.6h.3l.2.1a765.7 765.7 0 001.2 3h-.5-.2l-.2-.7H307.3l-.2.7h-.6c0 .1 0 0 0 0a790.6 790.6 0 00.5-3h.4"/><path fill="#F5EFE4" d="M328.6 196.1h-2.5-.1l-.5-2h.1c.5 0 1 .3 1.5.6l.8.8c.2.2.4.5.7.6m-29.6.7c.4-.3.5-.7.8-1 .4-.6.9-1 1.5-1.2l.2.1.1 2-2.6.1"/><path fill="#D62733" d="M309.5 196.6c.5-.6.9-1 1.5-1.3h.2c.5-.1.8.1 1 .5v.7h-.8l-.3-.1h-.2l-.4.1h-1"/><path fill="#D72532" d="M302.5 194.8v-.5l.3-.5c0-.2.2-.2.3-.3.3 0 .6.3.5.6v.2l-.5.7h-.1c-.3.2-.5.1-.5-.2"/></g><g transform="translate(237.3 148)"><mask id="w" fill="#fff"><use xlink:href="#u"/></mask><path fill="url(#v)" d="M.5 3.8a19.3 19.3 0 007.4 15.6l4.4-2.6S12.2 6.6 9.3 5c-2.7-1.6-1 4-1 4S4.2.4 2 .4C1.2.5.6 1.4.5 3.8" mask="url(#w)"/></g><g><path fill="#FFAF12" d="M286.6 169.6c-2.3-5.5-10-6-13-.8L261 191.4h-.2l-10.3-27.6a.6.6 0 00-.8-.3l-5.3 2.4c-.2 0-.3.3-.3.6l7.6 43.5c.8 4.7 7 6 9.8 2.2l24.4-30.1c2.6-3.4 2.7-8 .8-12.5"/><path fill="#57575E" d="M245 268.2l-7.4 94.2h4l8.8-94.2zm56 0l7.5 94.2h-4l-8.9-94.2zm60.8 0l7.4 94.2h-4l-8.8-94.2z"/><path fill="#57575E" d="M377.2 209.5l-7 54a8.5 8.5 0 01-8.5 7.3H241.3a3 3 0 01-3-3 3 3 0 013-2.9l53.6-.2c4.9 0 9-3.5 9.7-8.2l7-48a7 7 0 017.2-5.8l53.3 1c3.1.1 5.5 2.8 5.1 5.8"/><path fill="#7F786A" d="M377.2 209.5l-7 54a8.5 8.5 0 01-8.5 7.3h-58.1a11 11 0 005-8.2l7-55.8c.6-3.3 2.7-4.1 3.2-4.1l53.3 1c3.1.1 5.5 2.8 5.1 5.8"/></g></g></svg>