<svg xmlns="http://www.w3.org/2000/svg" xmlns:xlink="http://www.w3.org/1999/xlink" width="155" height="155" viewBox="0 0 155 155">
    <defs>
        <path id="prefix__c" d="M0 0.23L83.493 0.23 83.493 83.723 0 83.723z"/>
        <path id="prefix__e" d="M0.242 0.135L16.91 0.135 16.91 19.581 0.242 19.581z"/>
        <path id="prefix__g" d="M32.156.63L2.848 11.187h-.139c-1.389.556-2.084 2.223-1.528 3.612l3.611 9.167c2.362 5.974 7.779 10.002 14.03 10.557l5.417.556 14.863 38.614-4.029 3.89c-.833.834-1.111 1.944-.693 3.055l.832 2.084 20.419-8.056-.833-2.084c-.278-1.11-1.39-1.805-2.5-1.805h-5.557L31.878 31.885l3.751-4.307c3.89-4.445 5.001-10.557 3.195-16.113l-3.056-9.167C35.331 1.205 34.207.456 33.071.456c-.308 0-.618.056-.915.174"/>
        <path id="prefix__j" d="M9.02 1.743c0 4.583-3.75 8.334-8.334 8.334 4.584 0 8.334 3.75 8.334 8.334V19.8v-1.389c0-4.584 3.75-8.334 8.334-8.334-4.584 0-8.334-3.751-8.334-8.334V.353v1.39z"/>
        <path id="prefix__m" d="M8.903 1.523c0 4.583-3.751 8.334-8.334 8.334 4.583 0 8.334 3.751 8.334 8.334v1.39-1.39c0-4.583 3.75-8.334 8.334-8.334-4.584 0-8.334-3.751-8.334-8.334V.135v1.388z"/>
        <path id="prefix__p" d="M8.577 1.523c0 4.583-3.752 8.334-8.335 8.334 4.583 0 8.335 3.751 8.335 8.334v1.39-1.39c0-4.583 3.75-8.334 8.334-8.334-4.584 0-8.334-3.751-8.334-8.334V.135v1.388z"/>
        <linearGradient id="prefix__h" x1="0%" x2="100%" y1="50%" y2="50%">
            <stop offset="0%" stop-color="#FFB218"/>
            <stop offset="100%" stop-color="#FFCF44"/>
        </linearGradient>
        <linearGradient id="prefix__k" x1="-.001%" x2="100.001%" y1="50.001%" y2="50.001%">
            <stop offset="0%" stop-color="#FFB218"/>
            <stop offset="100%" stop-color="#FFCF44"/>
        </linearGradient>
        <linearGradient id="prefix__n" x1="-.002%" x2="100%" y1="49.996%" y2="49.996%">
            <stop offset="0%" stop-color="#FFB218"/>
            <stop offset="100%" stop-color="#FFCF44"/>
        </linearGradient>
        <linearGradient id="prefix__q" x1="0%" x2="99.995%" y1="49.996%" y2="49.996%">
            <stop offset="0%" stop-color="#FFB218"/>
            <stop offset="100%" stop-color="#FFCF44"/>
        </linearGradient>
        <filter id="prefix__a" width="165.2%" height="165.2%" x="-32.6%" y="-19.6%" filterUnits="objectBoundingBox">
            <feOffset dy="15" in="SourceAlpha" result="shadowOffsetOuter1"/>
            <feGaussianBlur in="shadowOffsetOuter1" result="shadowBlurOuter1" stdDeviation="10"/>
            <feColorMatrix in="shadowBlurOuter1" values="0 0 0 0 1 0 0 0 0 0.699027652 0 0 0 0 0.0927210366 0 0 0 0.15 0"/>
        </filter>
        <circle id="prefix__b" cx="57.5" cy="57.5" r="57.5"/>
    </defs>
    <g fill="none" fill-rule="evenodd" transform="translate(20 5)">
        <use fill="#000" filter="url(#prefix__a)" xlink:href="#prefix__b"/>
        <use fill="#FFF" xlink:href="#prefix__b"/>
        <g>
            <g transform="translate(15 19) translate(0 .77)">
                <mask id="prefix__d" fill="#fff">
                    <use xlink:href="#prefix__c"/>
                </mask>
                <path fill="#E8F4FC" d="M74.01 68.46c5.923-7.206 9.483-16.428 9.483-26.483C83.493 18.92 64.803.23 41.746.23 18.69.23 0 18.92 0 41.977 0 52.032 3.559 61.253 9.482 68.46v.007l.068.079.073.092h.007c1.913 2.3 4.072 4.388 6.43 6.233v.016c.07.053.142.1.212.155.047.036.092.076.139.113v-.01c2.272 1.738 4.727 3.247 7.332 4.495v.01c.077.038.155.069.23.105.046.02.088.046.133.066h.015c2.05.956 4.189 1.753 6.404 2.37v.004c.024.007.049.01.073.018.025.007.05.016.075.022v-.004c3.527.968 7.238 1.492 11.073 1.492.117 0 .233-.004.35-.004v-.008c3.709-.031 7.304-.541 10.723-1.48v.004c.025-.006.049-.015.074-.022.025-.007.05-.011.074-.018v-.004c2.215-.617 4.354-1.413 6.404-2.37h.015c.045-.02.089-.046.134-.066.075-.036.153-.067.229-.104v-.011c2.605-1.248 5.06-2.757 7.332-4.494v.009c.047-.036.09-.076.138-.112.069-.054.143-.102.212-.156v-.016c2.359-1.845 4.518-3.932 6.43-6.233h.008c.026-.031.049-.063.075-.093.02-.026.045-.051.067-.077v-.008z" mask="url(#prefix__d)"/>
                <path fill="#A8B7EF" d="M45.294 50.024L31.404 55.581 36.96 72.387 50.85 66.693z"/>
                <path fill="#E8821C" d="M60.295 27.245l-2.221-1.668 7.5-9.444c1.112-1.251 1.39-3.057.695-4.585-.834-2.361-3.473-3.473-5.835-2.64l-.832.279-.972-2.64.832-.277c3.75-1.528 8.056.416 9.445 4.167.974 2.5.556 5.278-1.11 7.362l-7.502 9.446zM36.821 36.135l-10.834-1.25c-4.167-.418-7.223-4.307-6.806-8.474.277-2.917 2.222-5.278 4.861-6.39l1.25-.555.972 2.64-1.25.554c-2.5.973-3.75 3.89-2.778 6.39.695 1.667 2.223 2.917 4.028 3.057l10.835 1.25-.278 2.778z"/>
                <path fill="#F4A422" d="M47.239 38.079l-5.417-.556c-6.251-.555-11.668-4.584-14.03-10.556l-3.611-9.168c-.556-1.39.139-3.056 1.528-3.612h.139L55.157 3.63c1.389-.556 3.055.277 3.61 1.667l3.057 9.168c1.806 5.555.694 11.667-3.195 16.112l-3.75 4.307L69.74 73.777h5.557c1.11 0 2.222.695 2.5 1.805l.833 2.084-20.42 8.056-.832-2.083c-.417-1.112-.14-2.222.695-3.056l4.028-3.89-14.863-38.614z"/>
                <path fill="#EDC17C" d="M53.212 28.772l-1.945-1.945c6.112-6.112-.138-16.25-.138-16.39l2.36-1.528c.279.555 7.363 12.223-.277 19.863"/>
                <path fill="#E8821C" d="M77.797 75.722c-.416-1.111-1.388-1.807-2.5-1.807h-5.555l-7.64 3.056-4.028 3.89c-.834.834-1.111 1.944-.694 3.055L58.212 86l20.418-8.055-.832-2.223z"/>
                <path fill="#F4C167" d="M80.02 8.353v1.39c0 4.583-3.751 8.334-8.334 8.334 4.583 0 8.334 3.75 8.334 8.334V27.8v-1.388c0-4.584 3.751-8.334 8.334-8.334-4.583 0-8.334-3.75-8.334-8.334v-1.39zM18.903 36.135v1.389c0 4.583-3.751 8.334-8.334 8.334 4.583 0 8.334 3.75 8.334 8.334v1.389-1.39c0-4.583 3.75-8.333 8.334-8.333-4.583 0-8.334-3.751-8.334-8.334v-1.39z"/>
                <g transform="translate(77 36)">
                    <mask id="prefix__f" fill="#fff">
                        <use xlink:href="#prefix__e"/>
                    </mask>
                    <path fill="#F4C167" d="M8.576.135v1.389c0 4.583-3.75 8.334-8.334 8.334 4.583 0 8.334 3.75 8.334 8.334v1.389-1.39c0-4.583 3.751-8.333 8.334-8.333-4.583 0-8.334-3.751-8.334-8.334V.134z" mask="url(#prefix__f)"/>
                </g>
                <path fill="#4A4A56" d="M39.877 65.721L42.377 64.886 38.349 52.803 35.849 53.775z"/>
                <path fill="#FFDE8E" d="M60.295 27.245l-2.221-1.668 7.5-9.444c1.112-1.251 1.39-3.057.695-4.585-.834-2.361-3.473-3.473-5.835-2.64l-.832.279-.972-2.64.832-.277c3.75-1.528 8.056.416 9.445 4.167.974 2.5.556 5.278-1.11 7.362l-7.502 9.446zM36.821 36.135l-10.834-1.25c-4.167-.418-7.223-4.307-6.806-8.474.277-2.917 2.222-5.278 4.861-6.39l1.25-.555.972 2.64-1.25.554c-2.5.973-3.75 3.89-2.778 6.39.695 1.667 2.223 2.917 4.028 3.057l10.835 1.25-.278 2.778z"/>
            </g>
            <g transform="translate(15 19) translate(23 3.77)">
                <mask id="prefix__i" fill="#fff">
                    <use xlink:href="#prefix__g"/>
                </mask>
                <path fill="url(#prefix__h)" d="M32.156.63L2.848 11.187h-.139c-1.389.556-2.084 2.223-1.528 3.612l3.611 9.167c2.362 5.974 7.779 10.002 14.03 10.557l5.417.556 14.863 38.614-4.029 3.89c-.833.834-1.111 1.944-.693 3.055l.832 2.084 20.419-8.056-.833-2.084c-.278-1.11-1.39-1.805-2.5-1.805h-5.557L31.878 31.885l3.751-4.307c3.89-4.445 5.001-10.557 3.195-16.113l-3.056-9.167C35.331 1.205 34.207.456 33.071.456c-.308 0-.618.056-.915.174" mask="url(#prefix__i)"/>
            </g>
            <g>
                <path fill="#EFCCBF" d="M30.02 50.775l-7.918-21.252c-.556-1.389-2.083-2.223-3.61-1.667h-.14l-15.28 6.668c-.833.416-1.389 1.11-1.667 1.944l-1.11 5.556 5.555 16.67 10.28 1.248c.555 0 1.111 0 1.527-.277l10.973-5.417c1.25-.696 1.806-2.084 1.39-3.473" transform="translate(15 19) translate(45 8.77)"/>
                <path fill="#D8B4AD" d="M23.213 32.44L15.157 35.218 15.99 37.718 24.186 35.079zM25.852 39.523L17.935 42.164 18.768 44.663 26.825 42.024zM28.353 46.468L20.713 49.108 21.546 51.608 29.325 49.108z" transform="translate(15 19) translate(45 8.77)"/>
                <path fill="#FFDE8E" d="M8.212 20.772l-1.945-1.945c6.112-6.112-.138-16.25-.138-16.39L8.489.91c.279.555 7.363 12.223-.277 19.863M32.797 67.722c-.416-1.111-1.388-1.807-2.5-1.807h-5.556l-7.64 3.056-4.027 3.89c-.833.834-1.111 1.944-.694 3.055L13.212 78l20.419-8.055-.834-2.223z" transform="translate(15 19) translate(45 8.77)"/>
            </g>
            <g transform="translate(15 19) translate(71 8.77)">
                <mask id="prefix__l" fill="#fff">
                    <use xlink:href="#prefix__j"/>
                </mask>
                <path fill="url(#prefix__k)" d="M9.02 1.743c0 4.583-3.75 8.334-8.334 8.334 4.584 0 8.334 3.75 8.334 8.334V19.8v-1.389c0-4.584 3.75-8.334 8.334-8.334-4.584 0-8.334-3.751-8.334-8.334V.353v1.39z" mask="url(#prefix__l)"/>
            </g>
            <g transform="translate(15 19) translate(10 36.77)">
                <mask id="prefix__o" fill="#fff">
                    <use xlink:href="#prefix__m"/>
                </mask>
                <path fill="url(#prefix__n)" d="M8.903 1.523c0 4.583-3.751 8.334-8.334 8.334 4.583 0 8.334 3.751 8.334 8.334v1.39-1.39c0-4.583 3.75-8.334 8.334-8.334-4.584 0-8.334-3.751-8.334-8.334V.135v1.388z" mask="url(#prefix__o)"/>
            </g>
            <g transform="translate(15 19) translate(77 36.77)">
                <mask id="prefix__r" fill="#fff">
                    <use xlink:href="#prefix__p"/>
                </mask>
                <path fill="url(#prefix__q)" d="M8.577 1.523c0 4.583-3.752 8.334-8.335 8.334 4.583 0 8.335 3.751 8.335 8.334v1.39-1.39c0-4.583 3.75-8.334 8.334-8.334-4.584 0-8.334-3.751-8.334-8.334V.135v1.388z" mask="url(#prefix__r)"/>
            </g>
            <g fill="#816AE2">
                <path d="M33.877 13.72L36.377 12.886 32.349.802 29.849 1.774zM25.404 3.58L.728 12.687c.85 1.309 1.766 2.572 2.754 3.774v.007l.068.079.073.092h.007c1.913 2.3 4.072 4.388 6.431 6.233v.016c.069.053.141.1.211.155.047.036.091.076.139.113v-.011c1.87 1.43 3.87 2.697 5.97 3.798l14.579-6.554L25.404 3.58z" transform="translate(15 19) translate(6 52.77)"/>
            </g>
        </g>
    </g>
</svg>
