<svg id="Layer_1" data-name="Layer 1" xmlns="http://www.w3.org/2000/svg" xmlns:xlink="http://www.w3.org/1999/xlink" viewBox="0 0 263.21 295.79"><defs><style>.cls-1{fill:#fff;}.cls-1,.cls-11,.cls-13,.cls-14,.cls-15,.cls-16,.cls-17,.cls-18,.cls-19,.cls-20,.cls-21,.cls-22,.cls-23,.cls-24,.cls-25,.cls-3,.cls-5,.cls-6,.cls-7,.cls-9{fill-rule:evenodd;}.cls-2{mask:url(#mask);}.cls-3{fill:#f6e7c8;}.cls-4{mask:url(#mask-2);}.cls-5{fill:#619540;}.cls-6{fill:#316c35;}.cls-7{fill:#ffde8e;}.cls-8{mask:url(#mask-3);}.cls-9{fill:#febf4f;}.cls-10{mask:url(#mask-4);}.cls-11{fill:url(#linear-gradient);}.cls-12{mask:url(#mask-5);}.cls-13{fill:url(#linear-gradient-2);}.cls-14{fill:#fbbd2f;}.cls-15{fill:#ffe2b7;}.cls-16{fill:#e7e1d3;}.cls-17{fill:#cbbcdc;}.cls-18{fill:#7f796b;}.cls-19{fill:#a29d8f;}.cls-20{fill:#e2dbed;}.cls-21{fill:#f6efe4;}.cls-22{fill:#fac13f;}.cls-23{fill:#fff2dd;}.cls-24{fill:#fff1d3;}.cls-25{fill:#fdc582;}</style><mask id="mask" x="0" y="283.05" width="249.85" height="12.74" maskUnits="userSpaceOnUse"><g transform="translate(-0.89 -0.72)"><g id="prefix_b" data-name="prefix  b"><path id="prefix_a" data-name="prefix  a" class="cls-1" d="M.89,283.76H250.74V296.5H.89Z"/></g></g></mask><mask id="mask-2" x="132.04" y="0" width="131.17" height="215.8" maskUnits="userSpaceOnUse"><g transform="translate(-0.89 -0.72)"><g id="prefix_d" data-name="prefix  d"><path id="prefix_c" data-name="prefix  c" class="cls-1" d="M132.92.72H264.1V216.51H132.92Z"/></g></g></mask><mask id="mask-3" x="101.25" y="180.49" width="126.32" height="95.21" maskUnits="userSpaceOnUse"><g transform="translate(-0.89 -0.72)"><g id="prefix_f" data-name="prefix  f"><path id="prefix_e" data-name="prefix  e" class="cls-1" d="M174.52,181.48c-12.66.6-24.21,7.05-34,14.48s-17.8,16.76-24.74,26.67c-6.69,9.56-12.59,20.11-13.53,31.66a34.12,34.12,0,0,0,5.78,22c2.32,3.31,120.42-91.51,120.42-91.51-7.41-.75-21.56-3.61-42.63-3.61-3.57,0-7.34.08-11.3.27"/></g></g></mask><mask id="mask-4" x="233.26" y="233.58" width="8.35" height="8.35" maskUnits="userSpaceOnUse"><g transform="translate(-0.89 -0.72)"><g id="prefix_i" data-name="prefix  i"><path id="prefix_g" data-name="prefix  g" class="cls-1" d="M234.14,238.47a4.18,4.18,0,1,0,4.18-4.18,4.18,4.18,0,0,0-4.18,4.18"/></g></g></mask><linearGradient id="linear-gradient" x1="-58.87" y1="342.43" x2="-57.87" y2="342.43" gradientTransform="matrix(8.35, 0, 0, -8.35, 725.71, 3097.41)" gradientUnits="userSpaceOnUse"><stop offset="0" stop-color="#fcb11c"/><stop offset="1" stop-color="#ffd046"/></linearGradient><mask id="mask-5" x="244.63" y="226.91" width="5.84" height="5.84" maskUnits="userSpaceOnUse"><g transform="translate(-0.89 -0.72)"><g id="prefix_l" data-name="prefix  l"><path id="prefix_j" data-name="prefix  j" class="cls-1" d="M245.52,230.55a2.92,2.92,0,1,0,2.92-2.93,2.92,2.92,0,0,0-2.92,2.93"/></g></g></mask><linearGradient id="linear-gradient-2" x1="-55.39" y1="339.83" x2="-54.39" y2="339.83" gradientTransform="matrix(5.84, 0, 0, -5.84, 569.25, 2216.5)" xlink:href="#linear-gradient"/></defs><g class="cls-2"><path class="cls-3" d="M.89,290.13c0-3.51,55.93-6.37,124.92-6.37s124.93,2.86,124.93,6.37-55.93,6.37-124.93,6.37S.89,293.65.89,290.13" transform="translate(-0.89 -0.72)"/></g><g class="cls-4"><path class="cls-5" d="M151.2,216.39c42.68,4.12,83.4-94.12,99-133.58,10.26-26,12.13-54.29,13.89-82.09-44.59,15-98.46,49.44-119.93,90.83-3.56,6.87-6.06,17.77-7.49,25.36-3,15.9-4.68,67.5-3.23,83.62.46,5-1.38,14,17.75,15.86" transform="translate(-0.89 -0.72)"/></g><path class="cls-6" d="M258.81,7.8a2.18,2.18,0,0,0-3.05.19c-9.8,11-19,22.09-27.63,33.3a51.25,51.25,0,0,1-3.25-17.64,1.44,1.44,0,0,0-2.88.06,55.19,55.19,0,0,0,1.56,12.5,66.12,66.12,0,0,0,2.5,7.77q-10.19,13.34-19.45,27.09c-.35-3.52-1-7-1.54-10.39-.66-3.81-1.17-6.48-1.68-9.15s-1-5.36-1.68-9.19a1.44,1.44,0,0,0-2.84.48c.66,3.85,1.18,6.54,1.69,9.24s1,5.31,1.66,9.1A107.83,107.83,0,0,1,204,75c-7.53,11.38-14.65,23.05-21.46,35.15l-6.69-21.9a41.07,41.07,0,0,1-2.26-10.64,1.44,1.44,0,0,0-1.48-1.37,1.42,1.42,0,0,0-1.4,1.46,30.62,30.62,0,0,0,1,6.44c.42,1.67.92,3.32,1.42,4.93l7.5,24.57c-8.19,14.79-15.93,30.23-23.38,46.59a2.07,2.07,0,0,0-.13,1.38A2.14,2.14,0,0,0,158.3,163a2.18,2.18,0,0,0,2.86-1.08q5.07-11.15,10.36-21.74h0c7.72-1,13.7-2.06,19.47-3.08s11.69-2.05,19.35-3.06a1.42,1.42,0,0,0,1.24-1.6,1.44,1.44,0,0,0-1.62-1.22c-7.72,1-13.69,2.07-19.47,3.08-5.25.92-10.69,1.88-17.43,2.8q6.8-13.49,14-26.25c9.29-2,17.34-3.71,25.39-5.46,8.3-1.8,16.59-3.6,26.25-5.64a1.42,1.42,0,0,0,1.11-1.69,1.5,1.5,0,0,0-1.71-1.1c-9.67,2-18,3.85-26.27,5.65-7.31,1.59-14.63,3.17-22.88,4.93,5.6-9.75,11.42-19.22,17.51-28.49l.09-.11a1.42,1.42,0,0,0,.89,0,251.26,251.26,0,0,1,43.83-9.36A1.41,1.41,0,0,0,252.53,68a1.44,1.44,0,0,0-1.61-1.23,252,252,0,0,0-42.17,8.82q8.4-12.6,17.52-24.77c11.31-4.87,17.61-5.75,29.39-5.76a1.43,1.43,0,1,0,0-2.85c-11.1,0-17.59,1-26,4.16,9.16-12,18.91-23.8,29.38-35.59a2.11,2.11,0,0,0-.2-3" transform="translate(-0.89 -0.72)"/><path class="cls-7" d="M228.45,184.82c-5.54,37.83-37.39,83.36-74.19,98.32-11.76,4.78-25.94,7.55-37.23,1.35-10.71-5.89-15.73-18.64-14.78-30.2s6.84-22.1,13.53-31.66c6.94-9.91,14.95-19.25,24.74-26.67s21.34-13.88,34-14.48c27.39-1.3,45.27,2.46,53.93,3.34" transform="translate(-0.89 -0.72)"/><g class="cls-8"><path class="cls-9" d="M174.52,181.48c-12.66.6-24.21,7.05-34,14.48s-17.8,16.76-24.74,26.67c-6.69,9.56-12.59,20.11-13.53,31.66a34.12,34.12,0,0,0,5.78,22c2.32,3.31,120.42-91.51,120.42-91.51-7.41-.75-21.56-3.61-42.63-3.61-3.57,0-7.34.08-11.3.27" transform="translate(-0.89 -0.72)"/></g><path class="cls-6" d="M258.94,246.64a6.33,6.33,0,1,1-6.32-6.33,6.32,6.32,0,0,1,6.32,6.33" transform="translate(-0.89 -0.72)"/><g class="cls-10"><path class="cls-11" d="M234.14,238.47a4.18,4.18,0,1,0,4.18-4.18,4.18,4.18,0,0,0-4.18,4.18" transform="translate(-0.89 -0.72)"/></g><g class="cls-12"><path class="cls-13" d="M245.52,230.55a2.92,2.92,0,1,0,2.92-2.93,2.92,2.92,0,0,0-2.92,2.93" transform="translate(-0.89 -0.72)"/></g><path class="cls-14" d="M100.08,36.87c3.39-5.77,5.76-8.78,13.68-8.65,1,0,2.14.09,3.37.21,7.82.79,13.39,6.68,14.17,12.91s4.14,6.21,7.1,10.92,3.35,16.36,3.35,16.36l-41.53,2s-6.33-23.25-.14-33.78" transform="translate(-0.89 -0.72)"/><path class="cls-15" d="M100.22,70.65A70.4,70.4,0,0,1,97,57.17a46.51,46.51,0,0,1-.09-14,21.48,21.48,0,0,1,2.36-6.81,24.58,24.58,0,0,1,4.3-5.65,11.16,11.16,0,0,1,6.61-2.79,28.25,28.25,0,0,1,6.95.5c-1.16,0-2.31.05-3.45.06a21.89,21.89,0,0,0-3.36.42,9.94,9.94,0,0,0-5.68,2.92,28.11,28.11,0,0,0-3.73,5.5,20.36,20.36,0,0,0-2,6.19A57.81,57.81,0,0,0,98.54,57q.22,3.42.7,6.82c.24,2.28.62,4.54,1,6.82" transform="translate(-0.89 -0.72)"/><path class="cls-16" d="M61.78,140.06c8.59,1.84,17.49-4.53,22.9-15,6-11.67,11.67-22.72,2.87-29.59,0,0-14.16,13.86-17.87,18.43l-15,18.51s2.1,6.56,7.13,7.64" transform="translate(-0.89 -0.72)"/><path class="cls-17" d="M91.84,106.79l-15.52,3.85s5.53-23.64,6.15-30c.8-8.3,5.39-18.57,15.4-21l-.46,4.9-5.57,42.24Z" transform="translate(-0.89 -0.72)"/><path class="cls-15" d="M49.4,286s1.92-4.23,2.75-6.2c.14-.33,2-7,2-7l4.61.59L55,279.52s-3.11,7-3.26,7S49.4,286,49.4,286" transform="translate(-0.89 -0.72)"/><path class="cls-18" d="M55,279.55a3.89,3.89,0,0,1,2,3.79c-.09,2.88-.29,5-.29,5l-1,.23L55,285.11a9.26,9.26,0,0,0-1.82,3.26c-.39,1-6.12,1.76-6.12,1.76s-1.36-.87.64-2.35a19.63,19.63,0,0,0,1.78-2,1.52,1.52,0,0,0,2.25-.27,18.25,18.25,0,0,0,2.06-3.26A23.58,23.58,0,0,0,55,279.55" transform="translate(-0.89 -0.72)"/><path class="cls-15" d="M113.9,283.44s3.3-3.68,3.77-5.64c.08-.34-.66-5.61-.66-5.61l3.81,1.82a29.49,29.49,0,0,0-.43,3.77,13.3,13.3,0,0,0,.35,1.64s-4.44,5-4.6,5-2.24-1-2.24-1" transform="translate(-0.89 -0.72)"/><path class="cls-18" d="M120.48,278.09a3.87,3.87,0,0,1,1.32,4.08c-.57,2.82-.77,4.46-.77,4.46l-1.07.05-.38-3.1a9.47,9.47,0,0,0-2.35,2.9c-.57,1-6.34.33-6.34.33s-1.19-1.1,1-2.21c.55-.28,2.1-1.28,2.1-1.28a1.53,1.53,0,0,0,2.27.11,17.89,17.89,0,0,0,2.58-2.86,22,22,0,0,0,1.61-2.48" transform="translate(-0.89 -0.72)"/><path class="cls-19" d="M106.54,112.62c3.76,4.83,5.5,35.78,5.5,35.78L92.35,199.79,60.89,275.13,53,274.38S62,211.5,65,195c7.5-41.37,17.73-74.66,25.6-87.35,3.53,1.75,6,5.38,16,5" transform="translate(-0.89 -0.72)"/><path class="cls-18" d="M124.64,105.17c7.07,8.48,14.42,13.93,17.16,42.72C144,171,121.88,275.64,121.88,275.64l-8.27.28-10-132.18-3.54-30.06s21.71-7.43,24.56-8.51" transform="translate(-0.89 -0.72)"/><path class="cls-20" d="M100,99a1.59,1.59,0,1,0,1.64-1.53A1.58,1.58,0,0,0,100,99" transform="translate(-0.89 -0.72)"/><path class="cls-21" d="M89.1,106.73s4.24,2.14,17.6,2.66c12.23.48,19.15-3.8,19.15-3.8l1.83-24.71c.66-7.59,4.59-19.48-9.56-20.85,0,0-15.54-.82-19.68-.49-8.52.7-10.27,11.08-10.77,19.68-.49,8.33,1.43,27.51,1.43,27.51" transform="translate(-0.89 -0.72)"/><path class="cls-19" d="M125.65,104.65s-23.92,5.28-36.68.94l-.2,5a57.07,57.07,0,0,0,18.45,2.72,53.81,53.81,0,0,0,20.24-5Z" transform="translate(-0.89 -0.72)"/><path class="cls-22" d="M105.41,110.61a2.65,2.65,0,0,0-2.57-2.68l-5.75-.17.19,4.65a17.24,17.24,0,0,0,5.4.8,2.65,2.65,0,0,0,2.73-2.6m-2.76,3.5a16.47,16.47,0,0,1-6-1,.43.43,0,0,1-.25-.39l-.22-5.42a.41.41,0,0,1,.13-.33.5.5,0,0,1,.33-.14l6.24.18a3.56,3.56,0,0,1,3.44,3.6h0a3.56,3.56,0,0,1-3.4,3.49h-.26" transform="translate(-0.89 -0.72)"/><path class="cls-22" d="M102.92,111.3a8.48,8.48,0,0,0,1.23-.12.45.45,0,0,0-.18-.89,13.67,13.67,0,0,1-4.88-.22.45.45,0,0,0-.53.35.45.45,0,0,0,.35.53,16.55,16.55,0,0,0,4,.35" transform="translate(-0.89 -0.72)"/><path class="cls-23" d="M101.06,129.06,6,130.32,4.63,31.21l95.11-1.27Z" transform="translate(-0.89 -0.72)"/><path class="cls-24" d="M6,32.55,7.3,128.94l92.38-1.22L98.4,31.32ZM6,131.69a1.37,1.37,0,0,1-1.36-1.35L3.27,31.23a1.4,1.4,0,0,1,.39-1,1.34,1.34,0,0,1,1-.41l95.1-1.27a1.49,1.49,0,0,1,1,.39,1.32,1.32,0,0,1,.41,1L102.42,129a1.36,1.36,0,0,1-1.34,1.38L6,131.69Z" transform="translate(-0.89 -0.72)"/><path class="cls-21" d="M139.41,105.22s6.94,3.13,8.54-1c2.41-6.1,1-13-7.92-27.46C133.51,66.19,126,59.1,116.5,60.56Z" transform="translate(-0.89 -0.72)"/><path class="cls-15" d="M108.69,62.12l-.25,0a1.93,1.93,0,0,1-2.07-1.75l-.68-8.23a1.92,1.92,0,0,1,1.75-2.07l.26,0a1.91,1.91,0,0,1,2.06,1.75l.68,8.23a1.92,1.92,0,0,1-1.75,2.07" transform="translate(-0.89 -0.72)"/><path class="cls-25" d="M105.82,53.75c-.15-1.93.63-3.58,1.75-3.67s2.16,1.4,2.32,3.33l.36,4.31c.09,1.06-1.39,1.86-2.68.31a23.36,23.36,0,0,1-1.64-2.3Z" transform="translate(-0.89 -0.72)"/><path class="cls-15" d="M116.75,42.54a3.58,3.58,0,0,0-1.6.32,6.79,6.79,0,0,0-6.69-6.9c-3.75-.07-6.25,2.94-6.31,6.69,0,0-.15,5.61-.05,6.32.7,4.63,2.57,6,6.05,6.08A6.81,6.81,0,0,0,115,49.18c.71-.1,1.59-1.3,2.08-2.92.56-1.83.42-3.49-.32-3.72" transform="translate(-0.89 -0.72)"/><path class="cls-15" d="M108.69,35.94a7.56,7.56,0,0,0-2.63.4,6.6,6.6,0,0,0-3.91,6.31S102,48.26,102.1,49c.46,3,1.47,4.76,3.08,5.51a10.54,10.54,0,0,0,3.16.57s-1.67-2.35-1.66-10a26.67,26.67,0,0,1,2-9.15" transform="translate(-0.89 -0.72)"/><path class="cls-14" d="M118.18,44.8c0,.45-13.3-2.81-13.23-8.35s13.84,2.44,13.23,8.35" transform="translate(-0.89 -0.72)"/><path class="cls-15" d="M113.65,49.67a2.15,2.15,0,1,0,2-2.3,2.16,2.16,0,0,0-2,2.3" transform="translate(-0.89 -0.72)"/><path class="cls-16" d="M106.24,58.88a3,3,0,0,0,.53,1.76,10.36,10.36,0,0,0,1.57,1l-2.07,3.25a17.76,17.76,0,0,1-1.6-1.87,4.92,4.92,0,0,1-.7-3.49Z" transform="translate(-0.89 -0.72)"/><path class="cls-16" d="M107.56,61.52,109.47,65s2.78-2.89,3-4.53l-2.12-2s-.58,2.56-2.75,3.05" transform="translate(-0.89 -0.72)"/><path class="cls-15" d="M58.21,133.45c.59.32,1.08,1.08.7,1.62-.54.79-3.54.72-3.54.72l-.09-2.37s2.1-.43,2.93,0" transform="translate(-0.89 -0.72)"/><path class="cls-15" d="M52.7,131a7.58,7.58,0,0,0-2.55,1.18,5.74,5.74,0,0,0-.32,2.12s3.41,1.19,4.66,1.41a1.88,1.88,0,0,0,2.16-.73,1.14,1.14,0,0,0-.34-1.58Z" transform="translate(-0.89 -0.72)"/><path class="cls-15" d="M50.32,128.77a1.16,1.16,0,0,1,1.56.5l1.33,2.61-1,.53Z" transform="translate(-0.89 -0.72)"/><path class="cls-15" d="M48.49,128.62a1.25,1.25,0,0,1,1.69.5L52,132l-1,.62Z" transform="translate(-0.89 -0.72)"/><path class="cls-15" d="M47.8,129.37a1.25,1.25,0,0,1,1.69.5l1.8,2.83-1,.62Z" transform="translate(-0.89 -0.72)"/><path class="cls-15" d="M47.16,130.85a1.24,1.24,0,0,1,1.73.33L51,133.83l-1.12.48Zm52.57-58.6s1-1.74,1.68-2a6,6,0,0,1,2.14.23s1.78,4.31,1.26,5.47c-.26.55-1.43,1-2.33,1.31a1.17,1.17,0,0,1-1.45-.73Z" transform="translate(-0.89 -0.72)"/><path class="cls-15" d="M98.9,70A1.16,1.16,0,0,0,99,71.68l2.2,1.94.76-.88Z" transform="translate(-0.89 -0.72)"/><path class="cls-15" d="M98.49,69.29A1.24,1.24,0,0,0,99,71l2.85,1.77.61-1-4-2.46Z" transform="translate(-0.89 -0.72)"/><path class="cls-15" d="M99.05,68.24A1.25,1.25,0,0,0,99.44,70l2.7,2,.69-.93Z" transform="translate(-0.89 -0.72)"/><path class="cls-15" d="M101.09,66.09a1.44,1.44,0,0,0-.22,2l2,3.6.64-1.29-2.41-4.3ZM104,75.48l-2.7.93,3.19,4,2.26-2Z" transform="translate(-0.89 -0.72)"/><path class="cls-16" d="M101.27,84.69c2.16,11,13.82,16.94,22,20.17,9.18,3.62,20.13,7.27,24.48-.34,0,0-10.83-10.82-14.5-13.29-7.33-4.93-26.89-15-26.89-15s-5.91,4.49-5.13,8.44" transform="translate(-0.89 -0.72)"/><path class="cls-14" d="M80.81,77.66l-56.11.59,0-3.37,56.1-.59ZM81,91.3l-56.1.59,0-3.38,56.11-.58ZM60.11,105.16,25,105.52l0-3.37,35.13-.37Z" transform="translate(-0.89 -0.72)"/></svg>