<svg id="Layer_1" data-name="Layer 1" xmlns="http://www.w3.org/2000/svg" xmlns:xlink="http://www.w3.org/1999/xlink" viewBox="0 0 279.3 296"><defs><style>.cls-1{fill:#fff;}.cls-1,.cls-10,.cls-13,.cls-17,.cls-18,.cls-19,.cls-2,.cls-21,.cls-22,.cls-23,.cls-3,.cls-9{fill-rule:evenodd;}.cls-2{fill:#619540;}.cls-3{fill:#fcaf19;}.cls-4{mask:url(#mask);}.cls-5{mask:url(#mask-2);}.cls-6{mask:url(#mask-3);}.cls-7{mask:url(#mask-4);}.cls-8{mask:url(#mask-5);}.cls-9{fill:#7f796b;}.cls-10{fill:#a29d8f;}.cls-11{mask:url(#mask-6);}.cls-12{mask:url(#mask-7);}.cls-13{fill:#f6e7c8;}.cls-14{mask:url(#mask-8);}.cls-15{mask:url(#mask-9);}.cls-16{mask:url(#mask-10);}.cls-17{fill:#e7e1d3;}.cls-18{fill:#ffe2b7;}.cls-19{fill:#fff1d3;}.cls-20{mask:url(#mask-11);}.cls-21{fill:#f6efe4;}.cls-22{fill:#fdc582;}.cls-23{fill:#57585f;}</style><mask id="mask" x="232.4" y="79.6" width="10.7" height="40.4" maskUnits="userSpaceOnUse"><g transform="translate(-1.8 8.79)"><g id="b"><path id="a" class="cls-1" d="M244.8,111.21h-4.1v-9.7l-6.5-6.4V70.81h4.3v22.4l6.4,6.4Z"/></g></g></mask><mask id="mask-2" x="260.1" y="79.6" width="19.2" height="40.4" maskUnits="userSpaceOnUse"><g transform="translate(-1.8 8.79)"><g id="f"><path id="e" class="cls-1" d="M281.1,111.21h-4.3v-9.7l-14.9-15V70.81h4.3v14l14.9,14.9Z"/></g></g></mask><mask id="mask-3" x="200.5" y="79.6" width="10.5" height="40.4" maskUnits="userSpaceOnUse"><g transform="translate(-1.8 8.79)"><g id="h"><path id="g" class="cls-1" d="M206.6,111.21h-4.3V99.71l6.4-6.5V70.81h4.1v24.3l-6.3,6.4Z"/></g></g></mask><mask id="mask-4" x="181.3" y="79.6" width="14.9" height="40.4" maskUnits="userSpaceOnUse"><g transform="translate(-1.8 8.79)"><g id="j"><path id="i" class="cls-1" d="M187.4,111.21h-4.3V99.71L193.8,89V70.81H198v20l-10.6,10.7Z"/></g></g></mask><mask id="mask-5" x="164.3" y="79.6" width="19.2" height="40.4" maskUnits="userSpaceOnUse"><g transform="translate(-1.8 8.79)"><g id="l"><path id="k" class="cls-1" d="M170.4,111.21h-4.3V99.71l14.9-15V70.81h4.3v15.8l-15,15Z"/></g></g></mask><mask id="mask-6" x="8332.2" y="-8331.21" width="-32766" height="32766" maskUnits="userSpaceOnUse"/><mask id="mask-7" x="184.2" y="37.9" width="99.4" height="46" maskUnits="userSpaceOnUse"><g transform="translate(-1.8 8.79)"><g id="p"><path id="o" class="cls-1" d="M186,29.11h99.4v46H186Z"/></g></g></mask><mask id="mask-8" x="24" y="217" width="0" height="0"><g transform="translate(-1.8 8.79)"><g id="r"><path id="q" class="cls-2" d="M25.8,208.21"/></g></g></mask><mask id="mask-9" x="151" y="253" width="0" height="0"><g transform="translate(-1.8 8.79)"><g id="u"><path id="s" class="cls-2" d="M152.8,244.21"/></g></g></mask><mask id="mask-10" x="145" y="249" width="0" height="0"><g transform="translate(-1.8 8.79)"><g id="x"><path id="v" class="cls-2" d="M146.8,240.21"/></g></g></mask><mask id="mask-11" x="73.3" y="66" width="40.6" height="60.32" maskUnits="userSpaceOnUse"><g transform="translate(-1.8 8.79)"><g id="z"><path id="y" class="cls-1" d="M97.8,57.31l-15,.3c-9,0-8,8.4-7.2,17,0,0,2.3,24.8.4,33.2-.5,2,13.4,9.4,24.3,9.7,11.8.3,15.2-3.5,15.2-3.5s1.3-26.7-2.7-38.7c-3.2-9.8-9.8-18.1-14.3-18.1h-.7"/></g></g></mask></defs><path class="cls-3" d="M221.5,111.31h4.2V70.81h-4.2Z" transform="translate(-1.8 8.79)"/><path id="a-2" data-name="a" class="cls-3" d="M244.8,111.21h-4.1v-9.7l-6.5-6.4V70.81h4.3v22.4l6.4,6.4Z" transform="translate(-1.8 8.79)"/><g class="cls-4"><path class="cls-3" d="M244.8,111.21h-4.1v-9.7l-6.5-6.4V70.81h4.3v22.4l6.4,6.4Z" transform="translate(-1.8 8.79)"/></g><path id="c" class="cls-3" d="M264.1,111.21h-4.3v-9.7l-10.6-10.7v-20h4.2V89l10.7,10.7Z" transform="translate(-1.8 8.79)"/><path id="e-2" data-name="e" class="cls-3" d="M281.1,111.21h-4.3v-9.7l-14.9-15V70.81h4.3v14l14.9,14.9Z" transform="translate(-1.8 8.79)"/><g class="cls-5"><path class="cls-3" d="M281.1,111.21h-4.3v-9.7l-14.9-15V70.81h4.3v14l14.9,14.9Z" transform="translate(-1.8 8.79)"/></g><path id="g-2" data-name="g" class="cls-3" d="M206.6,111.21h-4.3V99.71l6.4-6.5V70.81h4.1v24.3l-6.3,6.4Z" transform="translate(-1.8 8.79)"/><g class="cls-6"><path class="cls-3" d="M206.6,111.21h-4.3V99.71l6.4-6.5V70.81h4.1v24.3l-6.3,6.4Z" transform="translate(-1.8 8.79)"/></g><path id="i-2" data-name="i" class="cls-3" d="M187.4,111.21h-4.3V99.71L193.8,89V70.81H198v20l-10.6,10.7Z" transform="translate(-1.8 8.79)"/><g class="cls-7"><path class="cls-3" d="M187.4,111.21h-4.3V99.71L193.8,89V70.81H198v20l-10.6,10.7Z" transform="translate(-1.8 8.79)"/></g><path id="k-2" data-name="k" class="cls-3" d="M170.4,111.21h-4.3V99.71l14.9-15V70.81h4.3v15.8l-15,15Z" transform="translate(-1.8 8.79)"/><g class="cls-8"><path class="cls-3" d="M170.4,111.21h-4.3V99.71l14.9-15V70.81h4.3v15.8l-15,15Z" transform="translate(-1.8 8.79)"/></g><path class="cls-9" d="M181,79.31h4.3v-8.5H181Zm12.8,0H198v-8.5h-4.2Zm14.9,0h4.2v-8.5h-4.1Zm12.8,0h4.2v-8.5h-4.2Zm12.7,0h4.3v-8.5h-4.3Zm15,0h4.2v-8.5h-4.2Zm12.7,0h4.3v-8.5h-4.4Z" transform="translate(-1.8 8.79)"/><path id="m" class="cls-10" d="M276.8,119.81h4.3v-4.3h-4.3Zm-17,0h4.3v-4.3h-4.3Zm-19.2,0h4.3v-4.3h-4.3Zm-74.5,0h4.3v-4.3h-4.3Zm17,0h4.3v-4.3h-4.3Zm19.2,0h4.3v-4.3h-4.3Zm19.2,0h4.2v-4.3h-4.2ZM161.8-8.79" transform="translate(-1.8 8.79)"/><g class="cls-11"><path class="cls-10" d="M161.8-8.79" transform="translate(-1.8 8.79)"/></g><g class="cls-12"><path class="cls-1" d="M185.8,28.21" transform="translate(-1.8 8.79)"/></g><path class="cls-13" d="M1.8,281c0-3.3,60.7-6,135.5-6s135.6,2.7,135.6,6-60.7,6.2-135.6,6.2-135.5-2.7-135.5-6.1" transform="translate(-1.8 8.79)"/><path class="cls-2" d="M77.8,232.81c-28.7,2.7-56.1-63.5-66.6-90-7-17.5-8.2-36.6-9.4-55.4,30,10.1,66.3,33.4,80.8,61.2,2.4,4.7,4,12,5,17.1,2,10.7,3.2,45.5,2.2,56.4-.3,3.4,1,9.4-12,10.7" transform="translate(-1.8 8.79)"/><path class="cls-2" d="M1.8-9" transform="translate(-1.8 8.79)"/><path class="cls-2" d="M1.8-9" transform="translate(-1.8 8.79)"/><g class="cls-14"><path class="cls-2" d="M25.8,208.21" transform="translate(-1.8 8.79)"/></g><path class="cls-2" d="M1.8-9" transform="translate(-1.8 8.79)"/><g class="cls-15"><path class="cls-2" d="M152.8,244.21" transform="translate(-1.8 8.79)"/></g><g class="cls-16"><path class="cls-2" d="M146.8,240.21" transform="translate(-1.8 8.79)"/></g><path class="cls-2" d="M1.8-9" transform="translate(-1.8 8.79)"/><path class="cls-2" d="M1.8-9" transform="translate(-1.8 8.79)"/><path class="cls-17" d="M91.8,55.31a151.86,151.86,0,0,0,8,36.7c5.3,15,8,24.4,15.4,32.8a30.79,30.79,0,0,0,13-2.7,32.4,32.4,0,0,0,10.1-7s-10.7-8.7-15.6-26.7c-4.9-17.6-13.9-32.7-21.3-33.5s-9.6.4-9.6.4" transform="translate(-1.8 8.79)"/><path class="cls-17" d="M1.8-9" transform="translate(-1.8 8.79)"/><path class="cls-17" d="M1.8-9" transform="translate(-1.8 8.79)"/><path class="cls-17" d="M182.9,38l3.2-1.3,2.3,5.2-3.2,1.3Z" transform="translate(-1.8 8.79)"/><path class="cls-10" d="M78.2,108c-5,8.4-12.9,16.7-16.5,30-4.3,15.8-4,27.1-7.2,47.1-6.8,40.7-6.5,80.3-7,83.3l7.5,4s18.3-46.1,24.2-63.3c4.3-12.7,14.7-42,18.9-54,3.6-10.5,12.2-40.8,12.2-40.8s-29.4-4.7-32-6.4" transform="translate(-1.8 8.79)"/><path class="cls-18" d="M34.2,156.51h-.1a1,1,0,0,1-1.4-.6L31.3,153l1-.4Z" transform="translate(-1.8 8.79)"/><path class="cls-18" d="M31.2,157.31a8.28,8.28,0,0,1-2.8.4,2.35,2.35,0,0,1-1-1.8c.2-1.4.7-4.3,1.8-4.8a4.35,4.35,0,0,1,2.7.7c.6.2.8,1.7.6,2.3l-1.3,3.2Z" transform="translate(-1.8 8.79)"/><path class="cls-18" d="M30.8,158.31a17.54,17.54,0,0,0,1.3-3.5l-1.2-.5a26.38,26.38,0,0,0-1,3.7c0,.4.7.6,1,.3" transform="translate(-1.8 8.79)"/><path class="cls-18" d="M29.7,158.51A27.46,27.46,0,0,0,31,155l-1.3-.5a28.62,28.62,0,0,0-1,3.6.65.65,0,0,0,1,.4" transform="translate(-1.8 8.79)"/><path class="cls-18" d="M28.8,158a29.65,29.65,0,0,0,1.2-3.6l-1.1-.4a28.62,28.62,0,0,0-1,3.6c0,.4.6.7.8.4" transform="translate(-1.8 8.79)"/><path class="cls-18" d="M27.9,157.31a34.44,34.44,0,0,0,1.3-3.6l-1.1-.4a26.38,26.38,0,0,0-1,3.7c0,.4.6.6.8.3m1.9-8.3-.6,2.7,3,.8.9-2.4Z" transform="translate(-1.8 8.79)"/><path class="cls-19" d="M34.6,147.31l-1,4.5-5.3-1.7,1-4.5Z" transform="translate(-1.8 8.79)"/><path class="cls-18" d="M192.8,35a6.4,6.4,0,0,1,1.5,2.4,10.77,10.77,0,0,1,.2,2.2s-4,1.5-5,.7a6.07,6.07,0,0,1-1.2-2.8A1.11,1.11,0,0,1,189,36l3.9-1Z" transform="translate(-1.8 8.79)"/><path class="cls-18" d="M191.3,33l.1.2a1,1,0,0,1,.2,1.5l-2.2,2.6-1-.9Zm5,.8a1.22,1.22,0,0,1-.7,1.6l-3.3,1.3-.2-1.4Z" transform="translate(-1.8 8.79)"/><path class="cls-18" d="M195,36.61c0-.5-.2-1-.8-.8l-3.3,1.1.8,1.2s3.3-.8,3.3-1.5" transform="translate(-1.8 8.79)"/><path class="cls-18" d="M195.1,37.81c0-.5-.1-1.1-.8-.8l-3.2,1.3.9,1.1s3.2-1,3.1-1.6" transform="translate(-1.8 8.79)"/><path class="cls-18" d="M195.2,39c0-.4,0-1-.7-.8l-3.4.9.8,1.2s3.3-.5,3.3-1.2m-3.6-2.6a1.68,1.68,0,0,0,1.5,1,6.15,6.15,0,0,0,1.8-.8c.2-.2,0-1-.3-1l-3,.8" transform="translate(-1.8 8.79)"/><path class="cls-18" d="M192.2,37.61a1.55,1.55,0,0,0,1.4,1,3.77,3.77,0,0,0,1.5-.7c.2-.2,0-1-.3-1a16.26,16.26,0,0,0-2.6.7" transform="translate(-1.8 8.79)"/><path class="cls-18" d="M193,38.71c.2.6.8,1,1.1.8,0,0,1-.2,1.2-.5a1.07,1.07,0,0,0-.3-1l-2,.7" transform="translate(-1.8 8.79)"/><path class="cls-17" d="M151.8,49.41l-6.5,18.3L109.8,73c-9.8,1.7-7.6-7.2-10-17.8l52-6Z" transform="translate(-1.8 8.79)"/><path class="cls-17" d="M185.7,48.21c-4.4,13-22.2,16.5-32.7,18.4-11.6,2.2-26,2.3-28.4-5.7,0,0,9.6-8.1,14.4-10.2,9.6-4.3,44.4-13.8,44.4-13.8s3.9,6.7,2.3,11.3" transform="translate(-1.8 8.79)"/><g class="cls-20"><path class="cls-3" d="M97.8,57.31l-15,.3c-9,0-8,8.4-7.2,17,0,0,2.3,24.8.4,33.2-.5,2,13.4,9.4,24.3,9.7,11.8.3,15.2-3.5,15.2-3.5s1.3-26.7-2.7-38.7c-3.2-9.8-9.8-18.1-14.3-18.1h-.7" transform="translate(-1.8 8.79)"/></g><path class="cls-21" d="M60.5,107,45.2,92.81l20.2-28c10.1-11,12-1.6,14.3,6.9Z" transform="translate(-1.8 8.79)"/><path class="cls-10" d="M99.5,61.81h-.1a2.19,2.19,0,0,1-2-2.2l-.2-2.5,4.1.2.1,2.5a1.87,1.87,0,0,1-1.9,2" transform="translate(-1.8 8.79)"/><path class="cls-18" d="M96.8,57.31H97a1.8,1.8,0,0,0,2.5-1.2l1.4-5.9a2.09,2.09,0,0,0-1.4-2.5l-.7-.3a1.8,1.8,0,0,0-2.3,1.2l-1.4,5.7a2.65,2.65,0,0,0,1.7,3" transform="translate(-1.8 8.79)"/><path class="cls-22" d="M100.8,50.81a2.72,2.72,0,0,0-1.6-3.2,2.1,2.1,0,0,0-2.8,1.6l-.9,3.6c-.2.7,1.6.8,3.1.1a13.27,13.27,0,0,0,2-1.3Z" transform="translate(-1.8 8.79)"/><path class="cls-22" d="M1.8-9" transform="translate(-1.8 8.79)"/><path class="cls-18" d="M95,43a4.77,4.77,0,0,1,4-5.5c4.3-.8,6.2,6.5,6.3,9.6.1,3.5-1,4.4-1,4.4a9.5,9.5,0,0,1-4.7,0c-1.9-.7-3.5-1.1-4-3.8a31.52,31.52,0,0,1-.6-4.6" transform="translate(-1.8 8.79)"/><path class="cls-18" d="M95.8,44.91c.8,1,1,2.2.5,2.6s-1.6,0-2.4-1-1-2.3-.5-2.7,1.6,0,2.4,1" transform="translate(-1.8 8.79)"/><path class="cls-23" d="M96.1,46.21c-.3,0-.6,0-.7-.4L94,41.21a.42.42,0,0,1,.3-.6c.3,0,.6.1.6.4l1.5,4.6c0,.3,0,.5-.3.6m-.8-8s7,1.8,9-.4c2.2-2.1-8-2.1-9,.3" transform="translate(-1.8 8.79)"/><path class="cls-21" d="M96.7,61.91,91.3,57l4.1-3.9,4,4Z" transform="translate(-1.8 8.79)"/><path class="cls-17" d="M102.6,61.51l.6-2.9-3.3-4-1,2.3Z" transform="translate(-1.8 8.79)"/><path class="cls-21" d="M25.8,141.41c-4.7-13.5,5.5-32.3,12.2-40.5,2.4-3,7.3-8.4,9.3-10.4,4.5-4.4,11.8-1.9,18.4,2,0,0-5.7,17-8,21.7-4.6,9.6-12.6,28.3-22.5,34-2.3,1.3-7.8-2-9.4-6.8" transform="translate(-1.8 8.79)"/><path class="cls-21" d="M1.8-9" transform="translate(-1.8 8.79)"/><path class="cls-21" d="M1.8-9" transform="translate(-1.8 8.79)"/><path class="cls-21" d="M1.8-9" transform="translate(-1.8 8.79)"/></svg>