<?xml version="1.0" encoding="utf-8"?>
<!-- Generator: Adobe Illustrator 25.4.1, SVG Export Plug-In . SVG Version: 6.00 Build 0)  -->
<svg version="1.1" id="Layer_1" xmlns="http://www.w3.org/2000/svg" xmlns:xlink="http://www.w3.org/1999/xlink" x="0px" y="0px"
	 viewBox="0 0 547 306" style="enable-background:new 0 0 547 306;" xml:space="preserve">
<style type="text/css">
	.st0{fill-rule:evenodd;clip-rule:evenodd;fill:#FFF4DD;}
	.st1{fill-rule:evenodd;clip-rule:evenodd;fill:#619440;}
	.st2{fill-rule:evenodd;clip-rule:evenodd;fill:#306B34;}
	.st3{filter:url(#Adobe_OpacityMaskFilter);}
	.st4{fill-rule:evenodd;clip-rule:evenodd;fill:#FFFFFF;}
	
		.st5{mask:url(#prefix__b_00000103978489430694334110000002785120098972454785_);fill-rule:evenodd;clip-rule:evenodd;fill:#FBBF00;}
	.st6{filter:url(#Adobe_OpacityMaskFilter_00000157271745877067155940000014955980662224092840_);}
	
		.st7{mask:url(#prefix__e_00000018204662483995137810000002931295702748220853_);fill-rule:evenodd;clip-rule:evenodd;fill:url(#SVGID_1_);}
	.st8{filter:url(#Adobe_OpacityMaskFilter_00000059297765429493745340000001483448135035926428_);}
	
		.st9{mask:url(#prefix__h_00000169546772320694878500000013230076258446181561_);fill-rule:evenodd;clip-rule:evenodd;fill:url(#SVGID_00000044167168585341218120000014069364095670994094_);}
	.st10{filter:url(#Adobe_OpacityMaskFilter_00000178897268510901352760000014605548410644564387_);}
	
		.st11{mask:url(#prefix__j_00000075842273773329151630000002155131841947351982_);fill-rule:evenodd;clip-rule:evenodd;fill:#FFAF12;}
	.st12{filter:url(#Adobe_OpacityMaskFilter_00000111188134325554754160000002224075272219182229_);}
	
		.st13{mask:url(#prefix__m_00000133515193553753413770000012104764064272202112_);fill-rule:evenodd;clip-rule:evenodd;fill:url(#SVGID_00000122686481579901247160000016496574820002445501_);}
	.st14{filter:url(#Adobe_OpacityMaskFilter_00000049217916307516727200000007156787288041262492_);}
	
		.st15{mask:url(#prefix__p_00000077316229967836846470000011190499443898572167_);fill-rule:evenodd;clip-rule:evenodd;fill:url(#SVGID_00000117659129175423029110000006140404991644429708_);}
	.st16{fill-rule:evenodd;clip-rule:evenodd;fill:#F7E8C8;}
	.st17{fill-rule:evenodd;clip-rule:evenodd;fill:#704D3E;}
	.st18{fill-rule:evenodd;clip-rule:evenodd;fill:#FFBD9E;}
	.st19{fill-rule:evenodd;clip-rule:evenodd;fill:#F7A37C;}
	.st20{fill-rule:evenodd;clip-rule:evenodd;fill:#FFF1ED;}
	.st21{fill-rule:evenodd;clip-rule:evenodd;fill:#7D6D6C;}
	.st22{fill-rule:evenodd;clip-rule:evenodd;fill:#F5D7D1;}
	.st23{fill-rule:evenodd;clip-rule:evenodd;fill:#57575E;}
	.st24{fill-rule:evenodd;clip-rule:evenodd;fill:#DB5449;}
	.st25{fill-rule:evenodd;clip-rule:evenodd;fill:#A29C8F;}
	.st26{fill-rule:evenodd;clip-rule:evenodd;fill:#7F786A;}
	.st27{fill-rule:evenodd;clip-rule:evenodd;fill:#FD9F00;}
	.st28{filter:url(#Adobe_OpacityMaskFilter_00000008108419364841278110000001578398171259066801_);}
	
		.st29{mask:url(#prefix__r_00000085218955089553834400000003681171103193064074_);fill-rule:evenodd;clip-rule:evenodd;fill:#E38601;}
	.st30{fill-rule:evenodd;clip-rule:evenodd;fill:#FAC61B;}
	.st31{fill-rule:evenodd;clip-rule:evenodd;fill:#E38601;}
	.st32{filter:url(#Adobe_OpacityMaskFilter_00000108997943063836719800000014557373417201354140_);}
	
		.st33{mask:url(#prefix__t_00000120539602368888151060000001280271380722411140_);fill-rule:evenodd;clip-rule:evenodd;fill:#E38601;}
	.st34{filter:url(#Adobe_OpacityMaskFilter_00000042013043084844209890000009119016524265289391_);}
	
		.st35{mask:url(#prefix__v_00000109022797244981863050000008634767210211838141_);fill-rule:evenodd;clip-rule:evenodd;fill:#E38601;}
	.st36{fill-rule:evenodd;clip-rule:evenodd;fill:#FFB127;}
	.st37{filter:url(#Adobe_OpacityMaskFilter_00000052795167707662047970000006819785605708813739_);}
	
		.st38{mask:url(#prefix__x_00000130609856243069875790000002414529574090395580_);fill-rule:evenodd;clip-rule:evenodd;fill:#E38601;}
	.st39{filter:url(#Adobe_OpacityMaskFilter_00000056396484465097134790000007822480376997846185_);}
	
		.st40{mask:url(#prefix__z_00000016035387442835555260000006032905900518762667_);fill-rule:evenodd;clip-rule:evenodd;fill:#E38601;}
	.st41{filter:url(#Adobe_OpacityMaskFilter_00000096748192082384020460000004978278674967305870_);}
	
		.st42{mask:url(#prefix__B_00000052823823507780020980000013621179180499030162_);fill-rule:evenodd;clip-rule:evenodd;fill:#E38601;}
	.st43{filter:url(#Adobe_OpacityMaskFilter_00000090270116774883975040000010061961055899995521_);}
	
		.st44{mask:url(#prefix__D_00000142878138348218995080000004600513205906542502_);fill-rule:evenodd;clip-rule:evenodd;fill:#E38601;}
	.st45{filter:url(#Adobe_OpacityMaskFilter_00000114794995297231231130000015458781989512124858_);}
	
		.st46{mask:url(#prefix__F_00000099659437373079890250000000028371546165908138_);fill-rule:evenodd;clip-rule:evenodd;fill:#E38601;}
	.st47{filter:url(#Adobe_OpacityMaskFilter_00000170279269558151476940000000505229489842075811_);}
	
		.st48{mask:url(#prefix__H_00000058569271624540038570000012348694343820817804_);fill-rule:evenodd;clip-rule:evenodd;fill:#E38601;}
	.st49{filter:url(#Adobe_OpacityMaskFilter_00000096061185227331069080000010453013392446660797_);}
	
		.st50{mask:url(#prefix__J_00000081640317674699362470000017608866710706558388_);fill-rule:evenodd;clip-rule:evenodd;fill:#E38601;}
	.st51{fill-rule:evenodd;clip-rule:evenodd;fill:#B5905C;}
	.st52{filter:url(#Adobe_OpacityMaskFilter_00000000220861898294584200000014466865001136039580_);}
	
		.st53{mask:url(#prefix__L_00000121274108021244309950000009256428299243625627_);fill-rule:evenodd;clip-rule:evenodd;fill:#E38601;}
	.st54{filter:url(#Adobe_OpacityMaskFilter_00000017504319357679033150000008682815160095017148_);}
	
		.st55{mask:url(#prefix__N_00000054971728981365370800000005178234130370216585_);fill-rule:evenodd;clip-rule:evenodd;fill:#E38601;}
	.st56{filter:url(#Adobe_OpacityMaskFilter_00000059303619796497785290000012663038205402944677_);}
	
		.st57{mask:url(#prefix__P_00000181770608378074747820000002690896594939969960_);fill-rule:evenodd;clip-rule:evenodd;fill:#E38601;}
	.st58{filter:url(#Adobe_OpacityMaskFilter_00000047782047341407012750000008615932314757413812_);}
	
		.st59{mask:url(#prefix__R_00000125572565532399309820000016116608254629523864_);fill-rule:evenodd;clip-rule:evenodd;fill:#E38601;}
	.st60{filter:url(#Adobe_OpacityMaskFilter_00000176757199791646221910000000452653792988517778_);}
	
		.st61{mask:url(#prefix__T_00000044879635181940313580000011913765271555409281_);fill-rule:evenodd;clip-rule:evenodd;fill:#E38601;}
	.st62{filter:url(#Adobe_OpacityMaskFilter_00000056400050808238346330000010729369100430376354_);}
	
		.st63{mask:url(#prefix__V_00000062180633812401169410000007224618895354254261_);fill-rule:evenodd;clip-rule:evenodd;fill:#E38601;}
	.st64{filter:url(#Adobe_OpacityMaskFilter_00000137826673861906701830000013948014912969102743_);}
	
		.st65{mask:url(#prefix__X_00000057831022245632259460000018355621632467632543_);fill-rule:evenodd;clip-rule:evenodd;fill:#E38601;}
	.st66{filter:url(#Adobe_OpacityMaskFilter_00000115490809288566101910000005369327545107831215_);}
	
		.st67{mask:url(#prefix__Z_00000058561474567693085380000011826593547490282681_);fill-rule:evenodd;clip-rule:evenodd;fill:#E38601;}
	.st68{filter:url(#Adobe_OpacityMaskFilter_00000048486873871968724480000015924580536971185035_);}
	
		.st69{mask:url(#prefix__ab_00000019643660403897189710000007264339876257325211_);fill-rule:evenodd;clip-rule:evenodd;fill:#E38601;}
	.st70{filter:url(#Adobe_OpacityMaskFilter_00000093855915386004649140000000660128312570761637_);}
	
		.st71{mask:url(#prefix__ad_00000115474035042223000950000004263937792019831483_);fill-rule:evenodd;clip-rule:evenodd;fill:#E38601;}
	.st72{filter:url(#Adobe_OpacityMaskFilter_00000057115378015648991820000001547885016518471832_);}
	
		.st73{mask:url(#prefix__af_00000066481680065181816460000003914060480249678474_);fill-rule:evenodd;clip-rule:evenodd;fill:#E38601;}
	.st74{filter:url(#Adobe_OpacityMaskFilter_00000164492833640971983950000014651295970027461778_);}
	
		.st75{mask:url(#prefix__ah_00000009550433513479071450000011136339740749924256_);fill-rule:evenodd;clip-rule:evenodd;fill:#E38601;}
	.st76{fill-rule:evenodd;clip-rule:evenodd;fill:#FFD454;}
	.st77{fill-rule:evenodd;clip-rule:evenodd;fill:#FDE571;}
	.st78{filter:url(#Adobe_OpacityMaskFilter_00000024682847232454957340000008189083991168735904_);}
	
		.st79{mask:url(#prefix__aj_00000183929746714532914860000017680084099522353310_);fill-rule:evenodd;clip-rule:evenodd;fill:#FFE1BD;}
	.st80{fill-rule:evenodd;clip-rule:evenodd;fill:#FFE2B7;}
	.st81{fill-rule:evenodd;clip-rule:evenodd;fill:#FCBD30;}
</style>
<g>
	<g>
		<path class="st0" d="M439.6,140.9c-3.4-23.1-21-44.8-44.1-61.4c-9.4-6.8-20-13-32.6-16.1c-12.6-3.1-27.4-2.7-38.1,3
			c-8,4.2-12.8,10.9-20,15.8c-14.8,10.2-37.6,11.7-57.9,9.4c-20.2-2.4-39.5-8.1-59.7-10.5c-20.2-2.4-43-0.8-57.8,9.5
			c-17.2,11.9-18.3,31.5-14.1,48.4c1.4,5.7,3.3,11.7,0.7,17.3c-3.9,8.3-16.2,12.6-26.1,17.7c-24.7,12.8-38.4,35.8-34.1,57.4
			c4.8,23.8,29.5,43.8,59.3,54.8c29.8,11,64,14,97.5,14.1c14.3,0.1,28.5-0.4,42.7-1.8c41-4.3,79.5-17.2,113.5-34.2
			c19-9.5,36.9-20.4,50.4-33.9C444.8,204.8,451.2,171,439.6,140.9"/>
		<path class="st1" d="M89.2,227.7c-0.6-2.6-2.1-11.3-4.6-12.2c-2.7-1-6.1,0.3-7.5,2.9c-0.6,1.1-0.8,2.4-2,3.2
			c-0.6,0.4-1.5,0.4-2-0.1c-0.9-0.9,0-2.3,0.7-3.2c1.3-1.9,2.3-4.1,2.3-6.4c0-2.3-1-4.7-3-5.9c-1.9-1.2-4.8-1.1-6.3,0.6
			c-1,1.1-1.4,2.6-2.7,3.4c-0.7,0.4-1.5,0.5-2.2,0.1c-1.3-0.9-0.4-2.9,0.5-4.3c1.2-1.9,2.3-3.9,2.7-6.1c0.3-2.2-0.2-4.7-1.9-6.2
			c-1.6-1.5-4.4-1.9-6.1-0.4c-0.7,0.6-1.1,1.4-1.8,2.1c-0.8,0.8-2,1.3-2.9,0.5c-0.6-0.6-0.7-1.5-0.4-2.3c0.4-1.1,1.3-1.8,2.2-2.4
			c1.4-1.1,2.4-2.6,2.6-4.4c0.6-5.2-5.2-7.2-8.4-4.9c-0.9,0.6-1.8,1.6-2.9,1.3c-0.9-0.2-1.4-1.2-1.3-2.1c0.2-1.8,1.7-2.8,2.5-4.3
			c1.4-2.7-0.2-6.5-3.1-7.3c-2.2-0.6-2.8,2.3-3.8,4.8c-0.2,0.6-1.1,0.5-1.2-0.2c-0.3-2.5-1.1-5.6-1.7-7.3c-1.2-3.1-5.9-6.6-8.1-2.1
			c-0.6,1.2-0.1,4.3,0.6,5.2c1.1,1.2,3.7,5.4,3.7,5.4c0.2,0.5-0.3,1-0.8,0.7c-1-0.7-2.1-1.2-3.4-1.3c-0.6-0.1-1.2,0-1.7,0.2
			c-3.3,1.1-2.8,5.2-0.7,7.1c1.7,1.6,4.2,2.2,6.5,2.7c1.2,0.3,2.5,0.6,3.1,1.8c0.3,0.7,0.3,1.5-0.3,2c-0.7,0.6-1.4,0.2-2.1,0.2
			c-2.3-0.3-4.5,2-4.5,4.4c0,2.4,1.8,4.5,3.9,5.5c2.1,1,4.6,1.2,6.9,1.1c1.2-0.1,2.4-0.2,3.3,0.7c0.5,0.5,0.7,1.4,0.2,2
			c-0.7,0.8-1.9,0.5-2.9,0.4c-2.8-0.2-5.1,3-4.6,5.8c0.4,2.8,2.9,4.9,5.6,5.8c3,1,6.3,0.5,9.4,0.1c0.7-0.1,1.5,0.3,1.7,1
			c0.3,1-0.6,1.5-1.3,2c-2.7,2-3.7,5.9-2.4,8.9c1.3,3,5,4.9,8.2,4.2c2.1-0.4,3.9-1.8,6.2-1.1c1.1,0.3,1.9,1.4,1.7,2.5
			c-0.3,1.4-1.9,1.8-3.1,2.5c-3.3,1.9-3.9,6.9-1.7,10c2.2,3.1,9.2,3.2,13.1,3c3.8-0.2,11.8-0.6,15.9-3.2
			C91.2,242.5,89.8,230.3,89.2,227.7"/>
		<path class="st2" d="M28.6,164.1c-0.6,1.2-0.1,4.3,0.6,5.2c1.1,1.2,3.7,5.4,3.7,5.4c0.2,0.5-0.3,1-0.8,0.7c-1-0.7-2.1-1.2-3.4-1.3
			c-0.6-0.1-1.2,0-1.7,0.2c-3.3,1.1-2.8,5.2-0.7,7.1c1.7,1.6,4.2,2.2,6.5,2.7c1.2,0.3,2.5,0.6,3.1,1.8c0.3,0.7,0.3,1.5-0.3,2
			c-0.7,0.6-1.4,0.2-2.1,0.2c-2.3-0.3-4.5,2-4.5,4.4c0,2.4,1.8,4.5,3.9,5.5c2.1,1,4.6,1.2,6.9,1.1c1.2-0.1,2.4-0.2,3.3,0.7
			c0.5,0.5,0.7,1.4,0.2,2c-0.6,0.8-1.9,0.5-2.9,0.4c-2.8-0.2-5.1,3-4.6,5.8s2.9,4.9,5.6,5.8c3,1,6.3,0.5,9.4,0.1
			c0.7-0.1,1.5,0.3,1.7,1c0.3,1-0.6,1.5-1.3,2c-2.7,2-3.7,5.9-2.4,8.9c1.4,3,5,4.9,8.2,4.2c2.1-0.4,3.9-1.8,6.2-1.1
			c1.1,0.3,1.9,1.4,1.7,2.5c-0.3,1.4-1.9,1.8-3.1,2.5c-3.3,1.9-6.8,9-4.6,12.1c2.2,3.1,12.1,1.1,15.9,0.9c3.6-0.2,10.7-0.5,15-2.7
			c0.3-0.2,0.9-0.5,0.9-0.5S68.2,225.4,50,201.1C39.9,187.6,30.9,162,30.9,162s-0.4,0.1-0.8,0.4C29.4,162.9,28.7,163.9,28.6,164.1"
			/>
	</g>
	<g transform="translate(0 2) translate(0 209.532)">
		<defs>
			<filter id="Adobe_OpacityMaskFilter" filterUnits="userSpaceOnUse" x="0" y="0.5" width="78.1" height="73.8">
				<feColorMatrix  type="matrix" values="1 0 0 0 0  0 1 0 0 0  0 0 1 0 0  0 0 0 1 0"/>
			</filter>
		</defs>
		
			<mask maskUnits="userSpaceOnUse" x="0" y="0.5" width="78.1" height="73.8" id="prefix__b_00000103978489430694334110000002785120098972454785_">
			<g class="st3">
				<path id="prefix__a_00000054244139687609850870000002098689840682194564_" class="st4" d="M24.5,1c-1.4,0.6-2.6,1.5-3.8,2.5
					c2.6,0.6,4.9,2.3,6.3,4.5c1.4,2.2,2,5,1.5,7.5c-0.2,1.1-0.7,2.3-1.8,2.5c-1.4,0.3-2.5-1.2-3.1-2.5l-4.1-8.3c-0.5-1-1-2-1.7-2.8
					c-0.8-0.8-1.8-1.4-2.9-1.3c-1.6,0.1-2.7,1.4-4.2,2C8.7,5.8,6.3,5,5.2,3.3L4.6,1.7C3.6,3.1,3.8,5,3.9,6.8
					C4.1,12.6,2.8,18.5,0,23.7c1.6,3.1,5.2,4.8,8.8,5.2c2.2,0.3,4.4,0.2,6.5,0.1c1.4,0,2.7-0.1,4.1,0c0.8,0,1.7,0.1,2.4,0.4
					c0.8,0.4,1.4,1.1,1.4,1.9c0,0.8-0.5,1.5-1.1,1.9c-0.6,0.4-1.4,0.7-2.1,0.9c-2.2,0.7-6.7,0.9-8.9,0.5C7.3,33.9,1.6,29.8,1.1,28
					l1.5,12.5c0.1,1,0.2,1.9,0.8,2.7c0.9,1.4,2.8,1.9,4.5,2.2c3.1,0.5,6.2,0.9,9.3,0.6c3.1-0.3,6.2-1.3,8.6-3.4
					c0.9-0.8,1.7-1.6,2.7-2.2c1-0.5,2.5-0.5,3.2,0.4c0.6,0.7,0.5,1.8,0.1,2.6s-1.3,1.4-2.1,1.9c-7,4.5-16.6,4.9-24,1
					c2.9,1.9,3.6,5.9,6.5,7.8c1.6,1.1,3.7,1.2,5.6,1.1c6.9-0.4,13.5-4.2,17.2-10c0.5-0.8,1.1-1.8,2.2-1.9c1.1-0.1,2,0.8,2.2,1.8
					c0.4,1.6-0.6,3.1-1.6,4.2c-5.5,6.4-14.6,9.6-22.9,8c1.8,1.8,3.6,3.7,5.7,5.2c2.1,1.5,4.6,2.5,7.2,2.5c3.4,0,6.5-1.8,9-4
					c3.6-3.4,6.1-7.9,6.9-12.8c0.1-0.8,0.2-1.7,0.7-2.4c0.4-0.7,1.3-1.3,2.1-1c0.8,0.2,1.2,1.1,1.2,1.9c0,0.8-0.4,1.5-0.8,2.3
					c-2.5,4.7-2.3,9.8-5.5,14C37.5,67.9,31,68.4,31,68.4s4.7,6.5,15.9,5.7c2.7-0.2,7.5-1.7,9.9-4.3c2.3-2.6,5.5-7.5,6.2-10.9
					c0.7-3.2,0.4-5.7-1.6-8.1c-0.2-0.2-0.4-0.5-0.7-0.7c-0.6-0.5-1.9-1.8-1.5-2.4c0.8-1.1,2.8-0.1,3.7,0.9c1,1,1.6,2.3,2.6,3.2
					c1.7,1.6,4.5,1.9,6.7,1s3.9-2.8,4.8-5c0.9-2.2,1.2-4.6,1.1-6.9c-0.2-8.1-3.9-16-9.9-21.5c0.7,5.2-2.1,10.7-6.9,13.1
					c-0.6,0.3-1.3,0.6-1.9,0.5C58.7,33.1,58,32.6,58,32c-0.1-0.9,0.9-1.5,1.7-2c4.2-2.4,6.9-6.9,7.1-11.6L64.5,16
					c-6.1-6.4-11.7-9.4-20-12.5c1.5,2.9,3.1,5.8,3.9,9c0.8,3.2,0.9,6.6-0.5,9.6c-0.3,0.8-0.8,1.5-1.5,1.9c-0.7,0.4-1.7,0.5-2.4-0.1
					c-0.7-0.6-0.6-1.7-0.5-2.6l0.7-7.3c0.3-3.1,0.6-6.4-0.9-9.2c-1-1.8-2.8-3.2-4.9-3.8c-2-0.5-4.3-0.2-6.1,0.8
					c4.3,3.6,6.9,9,7.1,14.6c0,0.8,0,1.6-0.3,2.3c-0.3,0.7-1,1.3-1.7,1.4c-0.9,0.1-1.7-0.6-2.1-1.4C35,18,35,17,34.9,16.1
					c-0.3-3.6-1.1-7.2-2.3-10.6c-0.7-1.9-1.7-3.9-3.6-4.7c-0.6-0.3-1.2-0.4-1.9-0.4C26.2,0.5,25.3,0.7,24.5,1 M31,27.3
					c-0.5-0.1-0.9-0.4-1.2-0.8c-1-0.9-1.6-2.2-1.7-3.6c0-0.5,0-0.9,0.2-1.3c0.2-0.4,0.5-0.8,1-0.9c0.6-0.1,1.1,0.1,1.5,0.5
					c0,0,1.2,1.5,1.5,2.1c0.4,0.7,0.5,1,0.8,1.8c0.2,0.7,0.1,1.7-0.6,2.1c-0.3,0.2-0.6,0.2-0.9,0.2C31.4,27.3,31.2,27.3,31,27.3
					 M38.3,29.4c0,0-0.4-1-0.6-1.4c-0.7-1.2-0.9-2.7-0.5-4c0.1-0.4,0.3-0.8,0.6-1.1c0.3-0.3,0.8-0.5,1.2-0.4c0.6,0.1,1,0.8,1.2,1.4
					c0.5,1.3,0.8,2.8,0.7,4.2c0,0.5-0.1,0.9-0.3,1.3c-0.2,0.4-0.6,0.8-1.1,0.8c0,0-0.1,0-0.1,0C39,30.1,38.5,29.8,38.3,29.4
					 M22.8,26.3c-0.6-0.2-1.1-0.6-1.5-1.1l-0.2-0.3c-0.2-0.2-0.3-0.6-0.2-0.8c0.1-0.3,0.4-0.4,0.7-0.5c0.3,0,0.6,0,0.9,0.1
					c0.5,0.1,0.9,0.2,1.3,0.5c0.4,0.2,0.7,0.6,0.8,1c0.1,0.4-0.1,1-0.5,1.2c-0.2,0.1-0.3,0.1-0.5,0.1C23.3,26.4,23,26.4,22.8,26.3
					 M51,35.7c-1-0.3-1.6-1.5-1.5-2.6c0.1-1.1,0.6-2.1,1.1-3l1.1-2.1c0.2-0.5,0.4-1,0.8-1.5c0.3-0.4,0.9-0.8,1.4-0.8
					c1.1,0,1.8,1.1,2,2.1c0.7,2.5-0.2,5.3-2.2,7.1c-0.6,0.5-1.4,1-2.2,1C51.4,35.8,51.2,35.8,51,35.7 M45.7,31.6
					c-0.5-0.4-0.6-1-0.7-1.6c0-0.8,0.2-1.7,0.6-2.4l0.2-0.4c0.2-0.4,0.6-0.7,1-0.7c0.4,0,0.7,0.2,1,0.6c0.2,0.3,0.3,0.7,0.4,1.1
					c0.1,0.6,0.2,1.2,0.1,1.8c-0.1,0.6-0.4,1.2-0.9,1.6c-0.3,0.2-0.6,0.3-1,0.3C46.2,31.9,45.9,31.8,45.7,31.6 M28.3,37.3
					c-1.1-0.1-2.1-1-2.1-2c0,0,0.5-1.5,2-2.4c1-0.6,2.2-1.1,3.4-0.9c0.6,0.1,1.3,0.4,1.7,0.9c0.4,0.5,0.7,1.2,0.5,1.8
					c-0.3,1.1-1.4,1.6-2.5,2c-0.9,0.3-1.8,0.6-2.7,0.6C28.6,37.3,28.4,37.3,28.3,37.3 M38.4,42.1c-1-0.1-2.1-0.4-2.5-1.4
					c-0.3-0.8,0.2-1.8,1-2.2c0,0,1.9-0.7,2.5-1.1c0.9-0.5,2-0.7,2.9-0.1c0.9,0.6,1.3,1.7,0.9,2.7c-0.3,0.9-1.1,1.5-2,1.9
					c-0.6,0.2-1.2,0.3-1.8,0.3C39,42.2,38.7,42.2,38.4,42.1 M57.9,42.2c-1.4-0.4-2-2-1.3-3.3l0-0.1c0.3-0.5,0.7-0.9,1.2-1.2
					c1.6-1,8.8-0.2,8.7,1.4c0,0.8-0.5,1.6-1.2,2.2c-0.6,0.5-1.5,0.9-2.3,1.1c-0.7,0.2-1.5,0.3-2.3,0.3
					C59.8,42.7,58.9,42.5,57.9,42.2 M50.3,58.1c-1.1-0.4-1.7-1.7-1.6-2.9c0-1.2,0.6-2.3,1.1-3.3c0,0,1.2-4.4,2.2-5.3
					c0.4-0.3,1-0.4,1.5-0.1c0.5,0.3,0.7,0.8,1,1.2c1.1,2.4,1.2,5.3,0.2,7.7c-0.4,0.8-0.9,1.7-1.6,2.2c-0.5,0.4-1.1,0.6-1.8,0.6
					C50.8,58.3,50.5,58.2,50.3,58.1"/>
			</g>
		</mask>
		<path class="st5" d="M24.5,1c-1.4,0.6-2.6,1.5-3.8,2.5c2.6,0.6,4.9,2.3,6.3,4.5c1.4,2.2,2,5,1.5,7.5c-0.2,1.1-0.7,2.3-1.8,2.5
			c-1.4,0.3-2.5-1.2-3.1-2.5l-4.1-8.3c-0.5-1-1-2-1.7-2.8c-0.8-0.8-1.8-1.4-2.9-1.3c-1.6,0.1-2.7,1.4-4.2,2C8.7,5.8,6.3,5,5.2,3.3
			L4.6,1.7C3.6,3.1,3.8,5,3.9,6.8C4.1,12.6,2.8,18.5,0,23.7c1.6,3.1,5.2,4.8,8.8,5.2c2.2,0.3,4.4,0.2,6.5,0.1c1.4,0,2.7-0.1,4.1,0
			c0.8,0,1.7,0.1,2.4,0.4c0.8,0.4,1.4,1.1,1.4,1.9c0,0.8-0.5,1.5-1.1,1.9c-0.6,0.4-1.4,0.7-2.1,0.9c-2.2,0.7-6.7,0.9-8.9,0.5
			C7.3,33.9,1.6,29.8,1.1,28l1.5,12.5c0.1,1,0.2,1.9,0.8,2.7c0.9,1.4,2.8,1.9,4.5,2.2c3.1,0.5,6.2,0.9,9.3,0.6
			c3.1-0.3,6.2-1.3,8.6-3.4c0.9-0.8,1.7-1.6,2.7-2.2c1-0.5,2.5-0.5,3.2,0.4c0.6,0.7,0.5,1.8,0.1,2.6s-1.3,1.4-2.1,1.9
			c-7,4.5-16.6,4.9-24,1c2.9,1.9,3.6,5.9,6.5,7.8c1.6,1.1,3.7,1.2,5.6,1.1c6.9-0.4,13.5-4.2,17.2-10c0.5-0.8,1.1-1.8,2.2-1.9
			c1.1-0.1,2,0.8,2.2,1.8c0.4,1.6-0.6,3.1-1.6,4.2c-5.5,6.4-14.6,9.6-22.9,8c1.8,1.8,3.6,3.7,5.7,5.2c2.1,1.5,4.6,2.5,7.2,2.5
			c3.4,0,6.5-1.8,9-4c3.6-3.4,6.1-7.9,6.9-12.8c0.1-0.8,0.2-1.7,0.7-2.4c0.4-0.7,1.3-1.3,2.1-1c0.8,0.2,1.2,1.1,1.2,1.9
			c0,0.8-0.4,1.5-0.8,2.3c-2.5,4.7-2.3,9.8-5.5,14C37.5,67.9,31,68.4,31,68.4s4.7,6.5,15.9,5.7c2.7-0.2,7.5-1.7,9.9-4.3
			c2.3-2.6,5.5-7.5,6.2-10.9c0.7-3.2,0.4-5.7-1.6-8.1c-0.2-0.2-0.4-0.5-0.7-0.7c-0.6-0.5-1.9-1.8-1.5-2.4c0.8-1.1,2.8-0.1,3.7,0.9
			c1,1,1.6,2.3,2.6,3.2c1.7,1.6,4.5,1.9,6.7,1s3.9-2.8,4.8-5c0.9-2.2,1.2-4.6,1.1-6.9c-0.2-8.1-3.9-16-9.9-21.5
			c0.7,5.2-2.1,10.7-6.9,13.1c-0.6,0.3-1.3,0.6-1.9,0.5C58.7,33.1,58,32.6,58,32c-0.1-0.9,0.9-1.5,1.7-2c4.2-2.4,6.9-6.9,7.1-11.6
			L64.5,16c-6.1-6.4-11.7-9.4-20-12.5c1.5,2.9,3.1,5.8,3.9,9c0.8,3.2,0.9,6.6-0.5,9.6c-0.3,0.8-0.8,1.5-1.5,1.9
			c-0.7,0.4-1.7,0.5-2.4-0.1c-0.7-0.6-0.6-1.7-0.5-2.6l0.7-7.3c0.3-3.1,0.6-6.4-0.9-9.2c-1-1.8-2.8-3.2-4.9-3.8
			c-2-0.5-4.3-0.2-6.1,0.8c4.3,3.6,6.9,9,7.1,14.6c0,0.8,0,1.6-0.3,2.3c-0.3,0.7-1,1.3-1.7,1.4c-0.9,0.1-1.7-0.6-2.1-1.4
			C35,18,35,17,34.9,16.1c-0.3-3.6-1.1-7.2-2.3-10.6c-0.7-1.9-1.7-3.9-3.6-4.7c-0.6-0.3-1.2-0.4-1.9-0.4C26.2,0.5,25.3,0.7,24.5,1
			 M31,27.3c-0.5-0.1-0.9-0.4-1.2-0.8c-1-0.9-1.6-2.2-1.7-3.6c0-0.5,0-0.9,0.2-1.3c0.2-0.4,0.5-0.8,1-0.9c0.6-0.1,1.1,0.1,1.5,0.5
			c0,0,1.2,1.5,1.5,2.1c0.4,0.7,0.5,1,0.8,1.8c0.2,0.7,0.1,1.7-0.6,2.1c-0.3,0.2-0.6,0.2-0.9,0.2C31.4,27.3,31.2,27.3,31,27.3
			 M38.3,29.4c0,0-0.4-1-0.6-1.4c-0.7-1.2-0.9-2.7-0.5-4c0.1-0.4,0.3-0.8,0.6-1.1c0.3-0.3,0.8-0.5,1.2-0.4c0.6,0.1,1,0.8,1.2,1.4
			c0.5,1.3,0.8,2.8,0.7,4.2c0,0.5-0.1,0.9-0.3,1.3c-0.2,0.4-0.6,0.8-1.1,0.8c0,0-0.1,0-0.1,0C39,30.1,38.5,29.8,38.3,29.4
			 M22.8,26.3c-0.6-0.2-1.1-0.6-1.5-1.1l-0.2-0.3c-0.2-0.2-0.3-0.6-0.2-0.8c0.1-0.3,0.4-0.4,0.7-0.5c0.3,0,0.6,0,0.9,0.1
			c0.5,0.1,0.9,0.2,1.3,0.5c0.4,0.2,0.7,0.6,0.8,1c0.1,0.4-0.1,1-0.5,1.2c-0.2,0.1-0.3,0.1-0.5,0.1C23.3,26.4,23,26.4,22.8,26.3
			 M51,35.7c-1-0.3-1.6-1.5-1.5-2.6c0.1-1.1,0.6-2.1,1.1-3l1.1-2.1c0.2-0.5,0.4-1,0.8-1.5c0.3-0.4,0.9-0.8,1.4-0.8
			c1.1,0,1.8,1.1,2,2.1c0.7,2.5-0.2,5.3-2.2,7.1c-0.6,0.5-1.4,1-2.2,1C51.4,35.8,51.2,35.8,51,35.7 M45.7,31.6
			c-0.5-0.4-0.6-1-0.7-1.6c0-0.8,0.2-1.7,0.6-2.4l0.2-0.4c0.2-0.4,0.6-0.7,1-0.7c0.4,0,0.7,0.2,1,0.6c0.2,0.3,0.3,0.7,0.4,1.1
			c0.1,0.6,0.2,1.2,0.1,1.8c-0.1,0.6-0.4,1.2-0.9,1.6c-0.3,0.2-0.6,0.3-1,0.3C46.2,31.9,45.9,31.8,45.7,31.6 M28.3,37.3
			c-1.1-0.1-2.1-1-2.1-2c0,0,0.5-1.5,2-2.4c1-0.6,2.2-1.1,3.4-0.9c0.6,0.1,1.3,0.4,1.7,0.9c0.4,0.5,0.7,1.2,0.5,1.8
			c-0.3,1.1-1.4,1.6-2.5,2c-0.9,0.3-1.8,0.6-2.7,0.6C28.6,37.3,28.4,37.3,28.3,37.3 M38.4,42.1c-1-0.1-2.1-0.4-2.5-1.4
			c-0.3-0.8,0.2-1.8,1-2.2c0,0,1.9-0.7,2.5-1.1c0.9-0.5,2-0.7,2.9-0.1c0.9,0.6,1.3,1.7,0.9,2.7c-0.3,0.9-1.1,1.5-2,1.9
			c-0.6,0.2-1.2,0.3-1.8,0.3C39,42.2,38.7,42.2,38.4,42.1 M57.9,42.2c-1.4-0.4-2-2-1.3-3.3l0-0.1c0.3-0.5,0.7-0.9,1.2-1.2
			c1.6-1,8.8-0.2,8.7,1.4c0,0.8-0.5,1.6-1.2,2.2c-0.6,0.5-1.5,0.9-2.3,1.1c-0.7,0.2-1.5,0.3-2.3,0.3C59.8,42.7,58.9,42.5,57.9,42.2
			 M50.3,58.1c-1.1-0.4-1.7-1.7-1.6-2.9c0-1.2,0.6-2.3,1.1-3.3c0,0,1.2-4.4,2.2-5.3c0.4-0.3,1-0.4,1.5-0.1c0.5,0.3,0.7,0.8,1,1.2
			c1.1,2.4,1.2,5.3,0.2,7.7c-0.4,0.8-0.9,1.7-1.6,2.2c-0.5,0.4-1.1,0.6-1.8,0.6C50.8,58.3,50.5,58.2,50.3,58.1"/>
	</g>
	<g transform="translate(0 2) translate(53.39 253.856)">
		<defs>
			
				<filter id="Adobe_OpacityMaskFilter_00000042735726423054962120000013626476745334674593_" filterUnits="userSpaceOnUse" x="0.6" y="1" width="20.6" height="19.2">
				<feColorMatrix  type="matrix" values="1 0 0 0 0  0 1 0 0 0  0 0 1 0 0  0 0 0 1 0"/>
			</filter>
		</defs>
		
			<mask maskUnits="userSpaceOnUse" x="0.6" y="1" width="20.6" height="19.2" id="prefix__e_00000018204662483995137810000002931295702748220853_">
			<g style="filter:url(#Adobe_OpacityMaskFilter_00000042735726423054962120000013626476745334674593_);">
				<path id="prefix__c_00000162339267096774648100000009217865077443746740_" class="st4" d="M1,1.7c0.3,0.2,0.6,0.4,0.9,0.6
					c-0.1,0-0.1,0.1-0.2,0.1C1.6,2.3,1.4,2.2,1.2,2.1C0.8,1.8,0.3,2.5,0.8,2.8c5.8,3.7,11.2,8.1,15.9,13.2c0.4,0.6,0.9,1.1,1.3,1.7
					c0.1,0.1,0.2,0.2,0.4,0.1c0.4,0.5,0.9,1,1.3,1.4c0.1,0.1,0.2,0.2,0.4,0.1c0.2,0.2,0.4,0.5,0.6,0.7c0.3,0.4,0.9-0.1,0.6-0.5
					c-2.1-2.7-4.4-5.3-6.9-7.7c-3.8-4.1-8-7.8-12.7-10.8C1.4,1,1.4,1,1.3,1C0.9,1,0.7,1.5,1,1.7"/>
			</g>
		</mask>
		
			<linearGradient id="SVGID_1_" gradientUnits="userSpaceOnUse" x1="14.6046" y1="97.169" x2="17.0854" y2="95.543" gradientTransform="matrix(20.6389 0 0 -19.2207 -350.7663 1841.3929)">
			<stop  offset="0" style="stop-color:#A8F2FF"/>
			<stop  offset="1" style="stop-color:#8595F9"/>
		</linearGradient>
		<path class="st7" d="M1,1.7c0.3,0.2,0.6,0.4,0.9,0.6c-0.1,0-0.1,0.1-0.2,0.1C1.6,2.3,1.4,2.2,1.2,2.1C0.8,1.8,0.3,2.5,0.8,2.8
			c5.8,3.7,11.2,8.1,15.9,13.2c0.4,0.6,0.9,1.1,1.3,1.7c0.1,0.1,0.2,0.2,0.4,0.1c0.4,0.5,0.9,1,1.3,1.4c0.1,0.1,0.2,0.2,0.4,0.1
			c0.2,0.2,0.4,0.5,0.6,0.7c0.3,0.4,0.9-0.1,0.6-0.5c-2.1-2.7-4.4-5.3-6.9-7.7c-3.8-4.1-8-7.8-12.7-10.8C1.4,1,1.4,1,1.3,1
			C0.9,1,0.7,1.5,1,1.7"/>
	</g>
	<path class="st2" d="M23.6,204.1c-0.1,0.9,0.1,1.9,0.7,2.6c1.2,1.6,3.5,1.8,5,0.6c0.8-0.6,1.2-1.4,1.4-2.4c0.1-0.9-0.1-1.9-0.7-2.6
		c-1.2-1.6-3.5-1.8-5-0.6c0,0,0,0,0,0C24.2,202.3,23.8,203.1,23.6,204.1z M30.3,208.4c-2.2,1.7-5.4,1.3-7.1-0.8
		c-0.8-1.1-1.2-2.4-1-3.7c0.2-1.3,0.8-2.5,1.9-3.4c2.2-1.7,5.4-1.3,7.1,0.8c0.8,1.1,1.2,2.4,1,3.7C32,206.4,31.4,207.6,30.3,208.4
		L30.3,208.4L30.3,208.4z"/>
	<g transform="translate(0 2) translate(37.273 156.142)">
		<defs>
			
				<filter id="Adobe_OpacityMaskFilter_00000141456292037303425300000011361399809249320838_" filterUnits="userSpaceOnUse" x="0.2" y="0.1" width="8.4" height="8.3">
				<feColorMatrix  type="matrix" values="1 0 0 0 0  0 1 0 0 0  0 0 1 0 0  0 0 0 1 0"/>
			</filter>
		</defs>
		
			<mask maskUnits="userSpaceOnUse" x="0.2" y="0.1" width="8.4" height="8.3" id="prefix__h_00000169546772320694878500000013230076258446181561_">
			<g style="filter:url(#Adobe_OpacityMaskFilter_00000141456292037303425300000011361399809249320838_);">
				<path id="prefix__f_00000036217748518642112600000018075520153639598469_" class="st4" d="M4.3,0.1c-1.1,0-2.2,0.5-3,1.3
					c-0.8,0.8-1.2,1.8-1.2,3c0,2.3,1.9,4.1,4.2,4.1c0,0,0.1,0,0.1,0c1.1,0,2.2-0.5,3-1.3c0.8-0.8,1.2-1.8,1.2-3
					C8.6,1.9,6.7,0.1,4.3,0.1L4.3,0.1 M1.5,4.2c0-0.8,0.3-1.5,0.8-2c0.5-0.5,1.3-0.9,2-0.9l0.1,0c1.6,0,2.9,1.2,2.9,2.8
					c0,0.8-0.3,1.5-0.8,2C5.9,6.7,5.2,7,4.4,7L4.4,7C2.8,7,1.5,5.8,1.5,4.2"/>
			</g>
		</mask>
		
			<linearGradient id="SVGID_00000097476729627939692380000009588152085268703640_" gradientUnits="userSpaceOnUse" x1="28.9606" y1="189.8058" x2="27.9606" y2="189.8058" gradientTransform="matrix(8.4413 0 0 -8.285 -235.8662 1576.7335)">
			<stop  offset="0" style="stop-color:#FFB218"/>
			<stop  offset="1" style="stop-color:#FFCF44"/>
		</linearGradient>
		
			<path style="mask:url(#prefix__h_00000169546772320694878500000013230076258446181561_);fill-rule:evenodd;clip-rule:evenodd;fill:url(#SVGID_00000097476729627939692380000009588152085268703640_);" d="
			M4.3,0.1c-1.1,0-2.2,0.5-3,1.3c-0.8,0.8-1.2,1.8-1.2,3c0,2.3,1.9,4.1,4.2,4.1c0,0,0.1,0,0.1,0c1.1,0,2.2-0.5,3-1.3
			c0.8-0.8,1.2-1.8,1.2-3C8.6,1.9,6.7,0.1,4.3,0.1L4.3,0.1 M1.5,4.2c0-0.8,0.3-1.5,0.8-2c0.5-0.5,1.3-0.9,2-0.9l0.1,0
			c1.6,0,2.9,1.2,2.9,2.8c0,0.8-0.3,1.5-0.8,2C5.9,6.7,5.2,7,4.4,7L4.4,7C2.8,7,1.5,5.8,1.5,4.2"/>
	</g>
	<g transform="translate(0 2) translate(48.354 165.2)">
		<defs>
			
				<filter id="Adobe_OpacityMaskFilter_00000064313428665233804290000007352617748892321967_" filterUnits="userSpaceOnUse" x="0.6" y="0" width="10.7" height="10.7">
				<feColorMatrix  type="matrix" values="1 0 0 0 0  0 1 0 0 0  0 0 1 0 0  0 0 0 1 0"/>
			</filter>
		</defs>
		
			<mask maskUnits="userSpaceOnUse" x="0.6" y="0" width="10.7" height="10.7" id="prefix__j_00000075842273773329151630000002155131841947351982_">
			<g style="filter:url(#Adobe_OpacityMaskFilter_00000064313428665233804290000007352617748892321967_);">
				<path id="prefix__i_00000098197735252808192240000002490771227080017567_" class="st4" d="M5.8,0C2.9,0.1,0.5,2.5,0.6,5.5
					s2.5,5.3,5.4,5.3c2.9-0.1,5.3-2.5,5.2-5.5C11.2,2.3,8.8,0,5.8,0L5.8,0"/>
			</g>
		</mask>
		<path class="st11" d="M5.8,0C2.9,0.1,0.5,2.5,0.6,5.5s2.5,5.3,5.4,5.3c2.9-0.1,5.3-2.5,5.2-5.5C11.2,2.3,8.8,0,5.8,0L5.8,0"/>
	</g>
	<g transform="translate(0 2) translate(17.125 193.414)">
		<defs>
			
				<filter id="Adobe_OpacityMaskFilter_00000150096253495754955650000005943631460539564695_" filterUnits="userSpaceOnUse" x="0.4" y="0.7" width="5.9" height="6">
				<feColorMatrix  type="matrix" values="1 0 0 0 0  0 1 0 0 0  0 0 1 0 0  0 0 0 1 0"/>
			</filter>
		</defs>
		
			<mask maskUnits="userSpaceOnUse" x="0.4" y="0.7" width="5.9" height="6" id="prefix__m_00000133515193553753413770000012104764064272202112_">
			<g style="filter:url(#Adobe_OpacityMaskFilter_00000150096253495754955650000005943631460539564695_);">
				<path id="prefix__k_00000008137707417803308000000006460686489286290833_" class="st4" d="M3.3,0.7c-1.6,0-2.9,1.4-2.9,3
					c0,1.7,1.4,3,3,2.9c1.6,0,2.9-1.4,2.9-3C6.3,2,5,0.7,3.3,0.7L3.3,0.7"/>
			</g>
		</mask>
		
			<linearGradient id="SVGID_00000008830211189477891430000010208411250890048152_" gradientUnits="userSpaceOnUse" x1="45.4213" y1="150.4021" x2="44.4213" y2="150.4021" gradientTransform="matrix(5.942 0 0 -5.9865 -263.5465 904.0868)">
			<stop  offset="0" style="stop-color:#FFB218"/>
			<stop  offset="1" style="stop-color:#FFCF44"/>
		</linearGradient>
		
			<path style="mask:url(#prefix__m_00000133515193553753413770000012104764064272202112_);fill-rule:evenodd;clip-rule:evenodd;fill:url(#SVGID_00000008830211189477891430000010208411250890048152_);" d="
			M3.3,0.7c-1.6,0-2.9,1.4-2.9,3c0,1.7,1.4,3,3,2.9c1.6,0,2.9-1.4,2.9-3C6.3,2,5,0.7,3.3,0.7L3.3,0.7"/>
	</g>
	<g transform="translate(0 2) translate(284.077 147.076)">
		<defs>
			
				<filter id="Adobe_OpacityMaskFilter_00000098182623737329525460000018317503028706756793_" filterUnits="userSpaceOnUse" x="0.4" y="0.7" width="78.7" height="111.2">
				<feColorMatrix  type="matrix" values="1 0 0 0 0  0 1 0 0 0  0 0 1 0 0  0 0 0 1 0"/>
			</filter>
		</defs>
		
			<mask maskUnits="userSpaceOnUse" x="0.4" y="0.7" width="78.7" height="111.2" id="prefix__p_00000077316229967836846470000011190499443898572167_">
			<g style="filter:url(#Adobe_OpacityMaskFilter_00000098182623737329525460000018317503028706756793_);">
				<path id="prefix__n_00000016058314316327019580000001506515970720855708_" class="st4" d="M56.4,2.4c-1.8,1.8-3.1,4.8-4.1,7.1
					c-0.5,1.1-1.4,5.4-2.3,7.2c-2.5,1.4-4.9,3-7.3,4.6c0.7-1.1,1.2-2.4,1.7-3.5c1.1-2.5,2.9-4.6,4.3-7c0.6-1.1,3.2-5.4,1.8-6.6
					c-1.2-1-3.5,1.1-4.1,2c-1.5,2.1-2.3,5.2-3,7.7c-0.3,1.2-0.6,6.1-1.2,7.8c-0.9,0.7-1.9,1.4-2.8,2.1C35.7,27,32.2,30.3,29,34
					c0-0.8,0-1.6,0-2.4c0.1-2.8,0.9-5.4,1.3-8.2c0.2-1.2,0.8-6.2-0.9-6.8c-1.5-0.5-2.7,2.4-3,3.4c-0.6,2.5-0.1,5.7,0.2,8.3
					c0.1,1,1.3,4.2,1.7,6.4c-3.1,3.6-5.8,7.4-8.3,11.4c0.1-0.9,0.2-1.9,0.3-2.7c0.4-2.1,0.8-4.3,1.3-6.4c0.9-3.3,2.1-6.5,3.9-9.4
					c0.9-1.5-0.7-3.2-2.3-2.5l-0.2,0.1c-2.5,1.4-3.3,4.4-3.9,7.2c-0.4,2.1-2.8,13.5-0.7,16.3c-2.6,4.7-4.8,9.6-6.6,14.7
					c0.1-2.7,0.9-5.3,1.2-7.9c0.2-1.2,0.8-6.2-0.9-6.8c-1.5-0.5-2.7,2.4-3,3.4c-0.6,2.5-0.1,5.7,0.3,8.3c0.1,0.9,1,3.6,1.6,5.7
					c-1.3,4.1-2.3,8.3-3.1,12.5c-0.1-0.5-0.3-1-0.4-1.6c-0.6-2.7-0.5-5.5-0.8-8.2c-0.1-1.2-0.8-6.3-2.6-6.3c-1.6-0.1-2.1,3-2,4.1
					c0,2.6,1.4,5.6,2.3,8c0.4,1,2.3,3.8,3.3,5.8c-0.5,3.2-0.9,6.5-1.1,9.8c-0.6-2.4-0.8-4.8-1.3-7.3C5,81.6,4,76.6,2.1,76.7
					c-1.6,0.1-1.8,3.1-1.7,4.2c0.3,2.6,1.8,5.5,2.9,7.8c0.4,0.8,1.8,2.6,3,4.3c-0.2,6.2-5.1,12.8-4.2,18.9
					c-0.2-5.4,5.1-11.3,5.5-16.7c0.1,0.3,0.2,0.6,0.2,0.8c0.1-0.6,0-1.2-0.1-1.8c0.4-4.9,1.2-9.8,2.2-14.6c0.2-1,0.4-1.9,0.7-2.9
					c2-1.2,7.1-2.7,8.3-3.4c2.6-1.5,6-3.2,8-5.5c0.8-1,2.6-4.1,1.1-5.2c-1.7-1.3-6,2.8-7,3.8c-2.3,2.2-4.3,4.9-6.8,6.8
					c-1.2,0.9-2.5,1.7-3.5,2.8c1.1-4.3,2.4-8.5,4-12.7c1.9-1.2,7.2-2.7,8.5-3.4c2.6-1.5,6-3.2,8-5.5c0.8-1,2.6-4.1,1.1-5.2
					c-1.7-1.3-6,2.8-7,3.8c-2.3,2.2-4.3,4.9-6.8,6.8c-1.2,0.9-2.4,1.7-3.4,2.7c1.7-4.4,3.7-8.6,6-12.7c1.6-2.8,3.3-5.5,5.2-8.1
					c2.5-0.3,6.1-0.5,7.2-0.7c2.9-0.7,6.7-1.5,9.2-3.2c1-0.7,3.6-3.2,2.5-4.7c-1.3-1.7-6.5,1.1-7.8,1.8c-2.8,1.6-5.4,3.6-8.4,4.8
					c-0.5,0.2-1.1,0.4-1.6,0.6c2.6-3.5,5.4-6.8,8.4-9.9c1.1,0,2.2-0.1,3.3-0.2c2.8-0.2,5.5,0.4,8.3,0.5c1.3,0.1,6.3,0.2,6.7-1.5
					c0.3-1.5-2.7-2.5-3.8-2.7c-2.6-0.4-5.8,0.4-8.3,1c-0.9,0.2-3.4,1.3-5.4,2c1.4-1.4,2.9-2.8,4.5-4.2c2.5-2.1,5-4.1,7.7-5.9
					c1.3,0.2,2.7,0,4.1-0.1c2.8-0.2,5.5,0.4,8.3,0.5c1.3,0.1,6.3,0.2,6.7-1.5c0.3-1.5-2.7-2.5-3.8-2.7c-2.6-0.4-5.8,0.4-8.3,1
					c-1.1,0.2-4.2,1.7-6.3,2.3c3.6-2.4,7.3-4.6,11.3-6.5c1.2,0,2.4-0.2,3.5-0.2c2.8-0.2,5.6,0.3,8.3,0.4c1.3,0,6.4,0.1,6.6-1.7
					c0.3-1.6-2.7-2.4-3.8-2.6c-2.6-0.3-5.7,0.5-8.2,1.1c-0.3,0.1-0.9,0.3-1.5,0.5c-2.2,0.6-4.3,1.4-6.4,2.2c0,0-0.1,0-0.1,0
					c0,0,0.1,0,0.1,0c-2.8,1.1-5.6,2.4-8.3,3.9c0.7-0.8,1.2-1.8,1.8-2.8c1.5-2.3,3.6-4.1,5.4-6.3c0.8-1,4-4.9,2.8-6.2
					c-0.3-0.3-0.6-0.4-1-0.4C58.6,0.7,57,1.8,56.4,2.4"/>
			</g>
		</mask>
		
			<linearGradient id="SVGID_00000047027598515793004690000003197696377736326320_" gradientUnits="userSpaceOnUse" x1="-210.7502" y1="204.0292" x2="-210.3038" y2="203.96" gradientTransform="matrix(78.6885 0 0 -111.191 16605.0586 22740.3984)">
			<stop  offset="0" style="stop-color:#FFB218"/>
			<stop  offset="1" style="stop-color:#FFCF44"/>
		</linearGradient>
		
			<path style="mask:url(#prefix__p_00000077316229967836846470000011190499443898572167_);fill-rule:evenodd;clip-rule:evenodd;fill:url(#SVGID_00000047027598515793004690000003197696377736326320_);" d="
			M56.4,2.4c-1.8,1.8-3.1,4.8-4.1,7.1c-0.5,1.1-1.4,5.4-2.3,7.2c-2.5,1.4-4.9,3-7.3,4.6c0.7-1.1,1.2-2.4,1.7-3.5
			c1.1-2.5,2.9-4.6,4.3-7c0.6-1.1,3.2-5.4,1.8-6.6c-1.2-1-3.5,1.1-4.1,2c-1.5,2.1-2.3,5.2-3,7.7c-0.3,1.2-0.6,6.1-1.2,7.8
			c-0.9,0.7-1.9,1.4-2.8,2.1C35.7,27,32.2,30.3,29,34c0-0.8,0-1.6,0-2.4c0.1-2.8,0.9-5.4,1.3-8.2c0.2-1.2,0.8-6.2-0.9-6.8
			c-1.5-0.5-2.7,2.4-3,3.4c-0.6,2.5-0.1,5.7,0.2,8.3c0.1,1,1.3,4.2,1.7,6.4c-3.1,3.6-5.8,7.4-8.3,11.4c0.1-0.9,0.2-1.9,0.3-2.7
			c0.4-2.1,0.8-4.3,1.3-6.4c0.9-3.3,2.1-6.5,3.9-9.4c0.9-1.5-0.7-3.2-2.3-2.5l-0.2,0.1c-2.5,1.4-3.3,4.4-3.9,7.2
			c-0.4,2.1-2.8,13.5-0.7,16.3c-2.6,4.7-4.8,9.6-6.6,14.7c0.1-2.7,0.9-5.3,1.2-7.9c0.2-1.2,0.8-6.2-0.9-6.8c-1.5-0.5-2.7,2.4-3,3.4
			c-0.6,2.5-0.1,5.7,0.3,8.3c0.1,0.9,1,3.6,1.6,5.7c-1.3,4.1-2.3,8.3-3.1,12.5c-0.1-0.5-0.3-1-0.4-1.6c-0.6-2.7-0.5-5.5-0.8-8.2
			c-0.1-1.2-0.8-6.3-2.6-6.3c-1.6-0.1-2.1,3-2,4.1c0,2.6,1.4,5.6,2.3,8c0.4,1,2.3,3.8,3.3,5.8c-0.5,3.2-0.9,6.5-1.1,9.8
			c-0.6-2.4-0.8-4.8-1.3-7.3C5,81.6,4,76.6,2.1,76.7c-1.6,0.1-1.8,3.1-1.7,4.2c0.3,2.6,1.8,5.5,2.9,7.8c0.4,0.8,1.8,2.6,3,4.3
			c-0.2,6.2-5.1,12.8-4.2,18.9c-0.2-5.4,5.1-11.3,5.5-16.7c0.1,0.3,0.2,0.6,0.2,0.8c0.1-0.6,0-1.2-0.1-1.8c0.4-4.9,1.2-9.8,2.2-14.6
			c0.2-1,0.4-1.9,0.7-2.9c2-1.2,7.1-2.7,8.3-3.4c2.6-1.5,6-3.2,8-5.5c0.8-1,2.6-4.1,1.1-5.2c-1.7-1.3-6,2.8-7,3.8
			c-2.3,2.2-4.3,4.9-6.8,6.8c-1.2,0.9-2.5,1.7-3.5,2.8c1.1-4.3,2.4-8.5,4-12.7c1.9-1.2,7.2-2.7,8.5-3.4c2.6-1.5,6-3.2,8-5.5
			c0.8-1,2.6-4.1,1.1-5.2c-1.7-1.3-6,2.8-7,3.8c-2.3,2.2-4.3,4.9-6.8,6.8c-1.2,0.9-2.4,1.7-3.4,2.7c1.7-4.4,3.7-8.6,6-12.7
			c1.6-2.8,3.3-5.5,5.2-8.1c2.5-0.3,6.1-0.5,7.2-0.7c2.9-0.7,6.7-1.5,9.2-3.2c1-0.7,3.6-3.2,2.5-4.7c-1.3-1.7-6.5,1.1-7.8,1.8
			c-2.8,1.6-5.4,3.6-8.4,4.8c-0.5,0.2-1.1,0.4-1.6,0.6c2.6-3.5,5.4-6.8,8.4-9.9c1.1,0,2.2-0.1,3.3-0.2c2.8-0.2,5.5,0.4,8.3,0.5
			c1.3,0.1,6.3,0.2,6.7-1.5c0.3-1.5-2.7-2.5-3.8-2.7c-2.6-0.4-5.8,0.4-8.3,1c-0.9,0.2-3.4,1.3-5.4,2c1.4-1.4,2.9-2.8,4.5-4.2
			c2.5-2.1,5-4.1,7.7-5.9c1.3,0.2,2.7,0,4.1-0.1c2.8-0.2,5.5,0.4,8.3,0.5c1.3,0.1,6.3,0.2,6.7-1.5c0.3-1.5-2.7-2.5-3.8-2.7
			c-2.6-0.4-5.8,0.4-8.3,1c-1.1,0.2-4.2,1.7-6.3,2.3c3.6-2.4,7.3-4.6,11.3-6.5c1.2,0,2.4-0.2,3.5-0.2c2.8-0.2,5.6,0.3,8.3,0.4
			c1.3,0,6.4,0.1,6.6-1.7c0.3-1.6-2.7-2.4-3.8-2.6c-2.6-0.3-5.7,0.5-8.2,1.1c-0.3,0.1-0.9,0.3-1.5,0.5c-2.2,0.6-4.3,1.4-6.4,2.2
			c0,0-0.1,0-0.1,0c0,0,0.1,0,0.1,0c-2.8,1.1-5.6,2.4-8.3,3.9c0.7-0.8,1.2-1.8,1.8-2.8c1.5-2.3,3.6-4.1,5.4-6.3c0.8-1,4-4.9,2.8-6.2
			c-0.3-0.3-0.6-0.4-1-0.4C58.6,0.7,57,1.8,56.4,2.4"/>
	</g>
	<g>
		<path class="st16" d="M490.2,290.3c-0.1,7.8-106.6,13.3-238.1,12.3c-57-0.5-109.4-2.1-150.4-4.4c-33.3-3.2-45.9-3.2-62.3-5.1
			c-3.9-0.4,3.3,0.4,0,0c-16.1-2-25.2-4.3-25.2-6.6c0.1-7.8,106.6-13.3,238-12.3C383.8,275.3,490.3,282.5,490.2,290.3"/>
		<path class="st17" d="M240.1,69.6c0,0,0.8,4.3,0.8,5.3c0,1.1,0.5,4,0.5,4s1.2-3.3,1.3-3.5c0.1-0.2,1.4-5.5,1.4-5.9
			c0-0.4,0.9-0.5-0.3-0.5C242.5,69.1,240.1,69.6,240.1,69.6"/>
		<path class="st18" d="M244,67.9c-3.8,4.2-3,17.4-1.9,23c0.4,2.1,5.1,8.3,8,8.5c4.5,0.3,12.3-4,13.8-7c0.7-1.5,4.1-16,2.1-20.6
			c-2-4.6-12.5-8-16.9-7.2C245.1,65.4,246,65.7,244,67.9"/>
		<path class="st19" d="M259.2,95c-2.6,1.8-5.2,3.5-8.3,4.4c-0.5,0.1-0.2,0.9,0.3,0.7c3.1-0.9,5.8-2.7,8.4-4.5
			C260.1,95.3,259.6,94.7,259.2,95"/>
		<path class="st20" d="M251,103.5c0,0-13,5.4-15.9,7.9c-2.9,2.5-1.5,19.3,0,28.6c1.5,9.3,2.7,13.8,2.8,18.5
			c0.1,4.7-1.9,7.2,1.3,8.2s4.2,1.4,15,2.1c10.8,0.7,14.2-0.4,17.4,0c3.3,0.4,5.3-1.5,5.4-4.2c0.1-2.7,7.5-42.6,7-47.6
			c-0.5-5-4.3-6.7-8.7-9.2c-4.3-2.5-10.4-4.3-10.4-4.3s-3.6,3.9-7,4C254.6,107.6,251,103.5,251,103.5"/>
		<path class="st19" d="M259.2,95c-2.6,1.8-5.2,3.5-8.3,4.4c-0.5,0.1-0.2,0.9,0.3,0.7c3.1-0.9,5.8-2.7,8.4-4.5
			C260.1,95.3,259.6,94.7,259.2,95"/>
		<path class="st20" d="M251,103.5c0,0-13,5.4-15.9,7.9c-2.9,2.5-1.5,19.3,0,28.6c1.5,9.3,2.7,13.8,2.8,18.5
			c0.1,4.7-1.9,7.2,1.3,8.2s4.2,1.4,15,2.1c10.8,0.7,14.2-0.4,17.4,0c3.3,0.4,5.3-1.5,5.4-4.2c0.1-2.7,7.5-42.6,7-47.6
			c-0.5-5-4.3-6.7-8.7-9.2c-4.3-2.5-10.4-4.3-10.4-4.3s-3.6,3.9-7,4C254.6,107.6,251,103.5,251,103.5"/>
		<path class="st19" d="M259.2,95c-2.6,1.8-5.2,3.5-8.3,4.4c-0.5,0.1-0.2,0.9,0.3,0.7c3.1-0.9,5.8-2.7,8.4-4.5
			C260.1,95.3,259.6,94.7,259.2,95"/>
		<path class="st20" d="M251,103.5c0,0-13,5.4-15.9,7.9c-2.9,2.5-1.5,19.3,0,28.6c1.5,9.3,2.7,13.8,2.8,18.5
			c0.1,4.7-1.9,7.2,1.3,8.2s4.2,1.4,15,2.1c10.8,0.7,14.2-0.4,17.4,0c3.3,0.4,5.3-1.5,5.4-4.2c0.1-2.7,7.5-42.6,7-47.6
			c-0.5-5-4.3-6.7-8.7-9.2c-4.3-2.5-10.4-4.3-10.4-4.3s-3.6,3.9-7,4C254.6,107.6,251,103.5,251,103.5"/>
		<path class="st21" d="M271.7,110.3c0.7-0.4,18.7-0.2,21.3,4.2c2.6,4.4,0.9,32.5,0,41.4c-0.9,9-1.6,16.4-1.6,16.4l-50.6-1.2
			l-13.1-3.1l6.6-53.5C234.3,114.5,271.7,110.3,271.7,110.3z"/>
		<path class="st18" d="M249.6,96l2.1,11.1l4.1,7.3l9.7-4.2l-1.4-20.5c0,0-6,2.5-7.1,3C255.9,93.1,249.6,96,249.6,96"/>
		<path class="st19" d="M259.2,95c-2.6,1.8-5.2,3.5-8.3,4.4c-0.5,0.1-0.2,0.9,0.3,0.7c3.1-0.9,5.8-2.7,8.4-4.5
			C260.1,95.3,259.6,94.7,259.2,95"/>
		<path class="st20" d="M251,103.5c0,0-13,5.4-15.9,7.9c-2.9,2.5-1.5,19.3,0,28.6c1.5,9.3,2.7,13.8,2.8,18.5
			c0.1,4.7-1.9,7.2,1.3,8.2s4.2,1.4,15,2.1c10.8,0.7,14.2-0.4,17.4,0c3.3,0.4,5.3-1.5,5.4-4.2c0.1-2.7,7.5-42.6,7-47.6
			c-0.5-5-4.3-6.7-8.7-9.2c-4.3-2.5-10.4-4.3-10.4-4.3l-7.2,6.9c-1,1-2.7,0.7-3.4-0.5L251,103.5L251,103.5z"/>
		<path class="st20" d="M281.1,111.4c0,0,5.1,3.5,7.2,8.3c2.1,4.8,1.3,31.8,0.9,36.7c-0.8,10.2-23.2,7.7-23.2,7.7l3.1-45.7
			C269.1,118.4,281.1,111.4,281.1,111.4z M235.1,111.4c0,0-2.9,1.3-5.4,8.1c-2.4,6.6-6.4,27.1-8.9,32.1l-22.2,6.7c0,0,6.1,7.3,7,7.9
			c0.9,0.6,21,2,22.1,2c1.1,0,9.8-5.4,12.3-29.7C242.5,114.2,235.1,111.4,235.1,111.4"/>
		<path class="st22" d="M255,111.9c-0.6,0.9-1.3,1.7-2,2.5c-0.2,0.2-0.3,0.4-0.5,0.5c-0.8,0.5-1.3,0.7-2.2-0.5
			c-0.3-0.2-0.4-1.2-0.5-1.5c-0.8-2.3-1.3-4.7-0.9-7.1c0.1-0.4-0.6-0.6-0.7-0.2c-0.3,1.8-0.1,3.5,0.3,5.3c0.3,1.4,0.7,3.7,1.7,4.8
			c2,2.1,4.5-2.1,5.4-3.4C255.8,111.9,255.2,111.6,255,111.9 M267.3,106.9c-1.3,2.4-2.4,5.3-4.3,7.3c-0.9,1-2.8,3.3-3.9,1.4
			c-0.7-1.2-1.1-2.8-1.5-4.1c-0.1-0.4-0.8-0.3-0.7,0.2c0.4,1.4,1.6,7,4.2,5.4c3.4-2.2,5-6.4,6.8-9.8
			C268.1,106.8,267.5,106.5,267.3,106.9"/>
		<path class="st23" d="M239.6,67.4c-1.2,1.2,0.6,4.8,2.3,5.2c2.1,0.5,4.6,0.7,6.9,0.8c4.6,0.1,9-0.7,10-0.6c1,0.1,1.5,5,1.5,6.7
			c0,1.7,1.3,0.5,2.7,1.5c1.4,1.1,1.1,10.4,1.1,10.4s1.4-2.2,2.1-5.6c1-5.2,1.6-10,1.7-13.5c0.3-8.4-5.8-10.6-11.5-10.2
			c-5.5,0.3-8.8-0.4-12.5,1.3C243,63.9,241,66,239.6,67.4"/>
		<path class="st24" d="M256.1,118.4h-0.8c-0.9,0-1.6-0.8-1.5-1.7l0.2-1.3c0.1-0.7,0.7-1.3,1.5-1.3h0.4c0.7,0,1.4,0.5,1.5,1.3
			l0.2,1.3C257.8,117.6,257.1,118.4,256.1,118.4"/>
		<path class="st24" d="M254.7,117.3c0,0-3.1,24.7-3.5,28.4c-0.4,3.7,2.4,11.1,3.5,11.7c1.1,0.6,3.1-5,3.8-9.4
			c0.7-4.4-1.8-30.2-1.8-30.2L254.7,117.3z"/>
		<path class="st18" d="M203.8,159c-1.4-1-5.1-1.5-7.7-0.8c-3.5,1-4.6,3.8-4.8,4.2c-0.2,0.4,12,1.5,12,1.5h3.4
			C206.7,163.9,205.8,160.3,203.8,159 M251.7,159.1c-1.4-1-5.3-1.4-7.9-0.7c-3.5,1-5.2,5-5.4,5.4c-0.2,0.4,13.3,0.1,13.3,0.1h3.4
			C255.1,163.9,253.7,160.5,251.7,159.1"/>
		<path class="st21" d="M209.4,165.7h-37.5V162h34.6c1.6,0,2.9,1.3,2.9,2.9L209.4,165.7L209.4,165.7z"/>
		<path class="st23" d="M218.4,151.7H161c-3.7,0-6.7-3-6.7-6.7v-24.4c0-3.7,3-6.7,6.7-6.7h57.4c3.7,0,6.7,3,6.7,6.7V145
			C225,148.7,222,151.7,218.4,151.7"/>
		<path class="st21" d="M185.4,163.9h8.6v-19.2h-8.6V163.9z"/>
		<path class="st25" d="M191.4,127.1c0,1-0.8,1.7-1.7,1.7c-1,0-1.7-0.8-1.7-1.7c0-1,0.8-1.7,1.7-1.7
			C190.6,125.4,191.4,126.2,191.4,127.1"/>
		<path class="st22" d="M282.2,116.7c-5.4,2.5-6.7,8.6-7.5,13.9c-1,6.6-2.3,13.3-2.2,20c0,0.5,0.7,0.5,0.7,0
			c-0.1-6.2,1.1-12.4,2-18.6c0.8-5.5,1.7-12.2,7.4-14.8C283,117.1,282.6,116.5,282.2,116.7 M271.8,151.1c-3.1,1.6-6.1,3.3-9.2,4.8
			c-2.7,1.3-5.8,1.5-8.5,3.1c-0.4,0.2,0,0.8,0.4,0.6c1.3-0.8,2.7-1.2,4.2-1.6c0,0.1,0,0.2,0,0.2c0.9,1.5,1.4,3.1,1.7,4.9
			c0.1,0.4,0.7,0.3,0.7-0.2c-0.3-1.8-0.8-3.5-1.7-5c0,0,0,0-0.1-0.1c1.3-0.4,2.5-0.7,3.7-1.3c3.1-1.5,6.2-3.2,9.2-4.8
			C272.5,151.5,272.2,150.9,271.8,151.1 M284.9,153c-2.1-0.5-4-1.5-6.2-1.8c-2-0.3-3.9-0.2-5.9,0.1c-0.4,0.1-0.3,0.8,0.2,0.7
			c2.3-0.4,4.5-0.4,6.8,0.1c1.7,0.4,3.2,1.2,4.9,1.6C285.2,153.7,285.4,153.1,284.9,153 M236.9,111.4c-1.3,6-1.3,12.1-1.2,18.2
			c0.1,6.6,0.3,13.2,0.5,19.8c0,0.5,0.7,0.5,0.7,0c-0.2-6.4-0.3-12.8-0.5-19.1c-0.1-6.3-0.1-12.5,1.2-18.7
			C237.7,111.2,237,111,236.9,111.4 M228,156.4c-1.7-1.9-3.8-3.3-6.2-4.1c-0.4-0.1-0.6,0.5-0.2,0.7c2.3,0.8,4.3,2.1,5.9,3.9
			C227.8,157.3,228.3,156.8,228,156.4"/>
		<path class="st25" d="M194.5,289.9h-5.2v-119h12.3L194.5,289.9z"/>
		<path class="st26" d="M196.3,289.9h-1.8l7.1-119.5h1.8L196.3,289.9z"/>
		<path class="st25" d="M175.1,289.9h-5.2v-119h12.3L175.1,289.9z"/>
		<path class="st26" d="M176.9,289.9h-1.8l7.1-119.5h1.8L176.9,289.9z"/>
		<path class="st26" d="M196.7,275.7h-48.3V171.4l55.3,0.5L196.7,275.7z"/>
		<path class="st25" d="M127.8,289.9h-5.2l-7.1-119.5h12.3V289.9z"/>
		<path class="st26" d="M127.8,289.9h1.8V170.4h-1.8V289.9z"/>
		<path class="st25" d="M176,275.7h-48.3V171.4l53.3,0.5L176,275.7z"/>
		<path class="st25" d="M293.4,289.9H176.9l-1.8-119.5h118.3V289.9z"/>
		<path class="st23" d="M293.4,289.9h1.8V170.4h-1.8V289.9z"/>
		<path class="st25" d="M329.8,289.9h-5.2v-119h12.3L329.8,289.9z"/>
		<path class="st23" d="M331.6,289.9h-1.8l7.1-119.5h1.8L331.6,289.9z"/>
		<path class="st23" d="M293.4,289.9h37.3V283h-37.3V289.9z M344.8,173H156.3v-8.6h195.4L344.8,173z"/>
		<path class="st23" d="M299.5,173H108.7l-4.7-8.6h201.4L299.5,173z"/>
		<path class="st18" d="M215.1,270.5l0.2,10.4l7.9-0.2l0.7-10.4L215.1,270.5z"/>
		<path class="st26" d="M215.3,279.2c0,0-1.1,2.8-1.1,5.5c0,2.1,0.2,4.4,0.7,4.9c0.5,0.5,19,0.2,19.6,0.1c0.6-0.1,1.1-4.4-1.6-6
			c-2.8-1.6-7.8-2.2-8.4-2.6c-0.6-0.3-1.2-1.2-1.2-1.2L215.3,279.2L215.3,279.2z"/>
		<path class="st18" d="M215.3,279.2c0,0,1.7,2.4,3.9,2.7c2.2,0.3,4.1-1.9,4.1-1.9l-2.2-1.3l-2.5,0.1
			C217.9,278.8,215.3,279.2,215.3,279.2 M182,270.4l0.1,10.4l7.9-0.1l0.7-10.4L182,270.4z"/>
		<path class="st26" d="M182.2,279.1c0,0-1.2,2.8-1.1,5.5c0,2.1,0.1,4.4,0.7,4.9c0.5,0.5,18.9,0.3,19.6,0.2c0.6-0.1,1.2-4.4-1.6-6.1
			c-2.7-1.6-7.7-2.3-8.4-2.6c-0.6-0.3-1.2-1.2-1.2-1.2L182.2,279.1L182.2,279.1z"/>
		<path class="st18" d="M182.2,279.1c0,0,1.7,2.4,3.9,2.7c2.2,0.4,4.1-1.9,4.1-1.9l-2.2-1.3c0,0-1.9,0-2.5,0
			C184.8,278.8,182.2,279.1,182.2,279.1 M195.9,143.6l1.8-2.3c0,0,0.3-5,0.5-6.5c0.3-1.5,1.9-6.3,3.1-6.4c1.2-0.1-0.2,4.9,0.4,5.5
			c0.6,0.6,6.6-3.1,8.1-4.7c1.6-1.5,4.4-2.2,5.1-1.7c0.7,0.5,0.1,6.9-0.4,8.4c-0.5,1.5-4.3,5-5.6,5.8c-2.6,1.5-5.5,2.8-6.3,3.4
			c-0.8,0.6-1.4,2-1.4,2L195.9,143.6L195.9,143.6z"/>
		<path class="st20" d="M192,145.2c0,0,2-3.8,3.8-4.3c1.8-0.5,4.9,1.1,6.9,3c2,1.8,2.1,3.3,1.5,4.4s-2.1,3.1-2.1,3.1L192,145.2z"/>
		<path class="st18" d="M134.2,112.3l-1,15.9h-15l2-17.9L134.2,112.3z"/>
		<path class="st18" d="M141.6,100.6c0,6.2-0.9,12.8-2.6,13.6c-1.8,0.7-9.4-0.7-9.4-0.7V84.8c0,0,7.5-0.6,9.4,0
			C140.9,85.3,141.6,92.5,141.6,100.6"/>
		<path class="st23" d="M139.7,85c0,0,2.2-0.4,2.8-2.3c0.6-1.9-0.5-7.3-6.1-7.9c-5.6-0.6-7.2,1.5-10.4,1.5s-6.1-2.2-10.3,0.8
			c-3.1,2.2-5.1,5-4.9,8.5c0.3,4.3-1,5.8-0.4,9.9c0.7,4.1,3.5,7.6,5.4,12.3c2,4.9,4.3,9,6.5,9c2.6,0,4.4-0.4,6.5-2.4
			c2.1-1.9,8-8.3,7.2-12.5c-0.7-4.2-0.9-9.5,2.3-11.7C141.5,87.9,139.7,85,139.7,85"/>
		<path class="st20" d="M113.3,124.3c0,0,3.7-5.2,11.7-5.2c8,0,12.6,6,12.6,6S113.3,124.3,113.3,124.3z"/>
		<path class="st26" d="M95.2,148.2c0,0-1.4-15.1,3.3-20.2s20.4-6.3,29.3-5.4c9,0.8,19.8,2.9,24.4,7c4.6,4,5,42.9,5,42.9
			s-18.1,5.9-26.3,5c-8.3-0.9-27-1.9-30.2-5c-3.2-3.1-5-12.3-5.6-13.5C94.3,157.7,95.2,148.2,95.2,148.2"/>
		<path class="st26" d="M98.6,128c0,0-3.7,2-5.2,6.3c-1.5,4.3-2,11.2-2,11.2l3.8,3.5c0,0,2.1-3,3.4-7.2c1.3-4.2,2.9-9.9,2.6-10.9
			C100.9,130,98.6,128,98.6,128 M148.8,127.4c0,0,7,1.8,11.7,12.8c4.7,11,12,18.4,13,18.3c2.6-0.2,16.2-14.7,18-16.2
			c1.9-1.5,14.4,7.4,13.2,9c-5.2,7.1-8,9.8-12.8,15.2c-3.9,4.4-12.5,10.4-16.5,12c-4,1.5-8.8,1.4-15-5.4c-6.2-6.8-12-12.2-11.5-12.6
			c0.5-0.4-9.5-25.6-9.5-25.6S148.8,127.4,148.8,127.4z"/>
		<path class="st26" d="M160.4,169.6c0,0,12.2,25.3,14.1,31.6c2,6.2-1.9,15.1-2.4,15.9c-0.5,0.7-7.6,4.9-10.8,1.9
			c-3.3-3.1-19.1-15.1-19-24c0.1-8.9,5.1-31,5.1-31L160.4,169.6L160.4,169.6z"/>
		<path class="st26" d="M133.8,199c1.2-0.2,46.3,8.9,54.7,11.1c8.4,2.2,7.2,34.1,7.2,48.2c0,16.6-1.7,15.7-4.3,16.3
			c-2.7,0.6-11.6,1.7-13.1-1.8c-0.9-2-4.7-41.8-8-44.2c-3.3-2.5-32.2-3.9-33.6-4.2c-1.4-0.4-21.1-4-21.1-7.3c0-3.3,6-18.1,6-18.1
			L133.8,199L133.8,199z"/>
		<path class="st26" d="M167.2,195c1.2,1.8,41.7,4.9,51.8,10.4c7.6,4.2,8.8,36.3,9.3,52.9c0.5,13.6-0.9,16.1-4.9,16
			c-2.8-0.1-10.3,1.4-11.5-1.4c-0.9-2-4-41.9-7.3-44.4c-3.3-2.5-33.5-3.9-34.9-4.2c-1.4-0.4-21.1-4-21.1-7.3s6-20.1,6-20.1
			L167.2,195L167.2,195z"/>
		<path class="st25" d="M150.3,128.5c-3.4,2.6-5.4,6.6-5.1,10.9c0,0.4,0.7,0.5,0.7,0c-0.2-4,1.5-7.9,4.8-10.3
			C151,128.8,150.6,128.2,150.3,128.5 M179.6,164.3c-1.5-2-3.1-3.8-5-5.5c-0.3-0.3-0.8,0.2-0.5,0.5c1.8,1.6,3.5,3.4,4.9,5.3
			C179.2,165,179.9,164.6,179.6,164.3 M175.4,202.7c-0.2,3.4-1.5,6.5-3.7,9.1c-0.3,0.3,0.2,0.8,0.5,0.5c2.4-2.7,3.7-6,3.9-9.6
			C176.2,202.3,175.5,202.3,175.4,202.7 M218.8,214.9c-0.6,0.8-1.3,1.5-2,2.1c-0.4,0.3-0.8,0.7-1.2,1c-0.2,0.2-0.4,0.3-0.7,0.5
			c-0.1,0.1-0.2,0.1-0.3,0.2c-0.1,0-0.1,0.1-0.1,0.1c-0.1-0.2-0.4-0.4-0.6-0.2c-0.2,0.2-0.3,0.6,0,0.8c0.4,0.4,1,0,1.3-0.3
			c1.5-1,2.9-2.2,4-3.6C219.5,215,219,214.5,218.8,214.9 M219,218.6c-0.7,0.8-1.7,1.3-2.8,1.4c-0.4,0-0.5,0.7,0,0.7
			c1.3-0.1,2.4-0.6,3.2-1.6C219.8,218.8,219.3,218.3,219,218.6 M98,129.7c-1.1,2.6-1.3,5.2-0.7,7.9c0.1,0.4,0.8,0.3,0.7-0.2
			c-0.6-2.6-0.3-5.1,0.7-7.6C98.9,129.5,98.2,129.3,98,129.7 M187.6,217h5.9V197h-5.9V217z"/>
		<path class="st26" d="M147.3,238.9l-16.7-9.7H164L147.3,238.9z"/>
		<path class="st26" d="M143.2,288h8.2v-59.5h-8.2V288z"/>
		<path class="st25" d="M73.6,149.8c0,9.5,15,63.7,23,71.1c8.7,8,26.2,8.5,55,8.8c28.4,0.2,50.4-0.7,55.5-1.2
			c9.7-0.9,8-12.1,2.8-12.2c-4.3-0.1-32,0.7-39.5-3.1c-7.5-3.8-12.6-61.2-20.6-69.2C142.7,137,73.7,135.4,73.6,149.8"/>
		<path class="st26" d="M146.7,274.6L122.3,287c-1.4,0.7-0.9,2.7,0.7,2.7h48.7c1.5,0,2-2.1,0.7-2.8L148,274.6
			C147.6,274.4,147.1,274.4,146.7,274.6 M163.7,188.6c0.4,0,35.6-0.7,38.4,1c2.8,1.8,4.9,10.9-2.2,11.7c-7.1,0.7-28.2-0.5-35,0
			C159.6,201.7,158.6,188.3,163.7,188.6 M156.4,176.6c-1.6,3.3-5.6,3-8.7,3c-3.1,0-6.3,0-9.4,0.1c-6.3,0-12.6,0-18.9-0.1
			c-12.9-0.2-25.7-0.6-38.5-1.3c-0.5,0-0.5,0.7,0,0.7c13.8,0.7,27.6,1.2,41.3,1.3c6.7,0.1,13.3,0.1,20,0c3.3,0,6.8,0.3,10-0.2
			c2-0.3,3.9-1.3,4.8-3.2C157.2,176.5,156.6,176.2,156.4,176.6"/>
		<path class="st26" d="M147.1,161.9c-1.5-5.4-3.4-12.5-0.6-17.8c0.2-0.4-0.4-0.8-0.6-0.4c-2.6,5-1.3,11.4,0,16.6
			c1.6,6.1,3.9,11.9,5,18.1c0.1,0.4,0.8,0.3,0.7-0.2C150.6,172.6,148.6,167.3,147.1,161.9 M169.7,215.8c-0.7,1.3-2.4,4-4.1,3.9
			c-1.7-0.1-2.8-2.9-3.5-4.2c-1.7-3.5-3.2-7.2-4.5-10.9c-2.5-7.1-4.3-14.5-5.3-21.9c-0.1-0.4-0.7-0.3-0.7,0.2
			c1.3,9.2,3.6,18.2,7.1,26.8c1.4,3.4,2.7,7.6,5.4,10.2c1.1,1.1,1.7,1.1,2.9,0.2c1.4-1,2.5-2.4,3.3-3.9
			C170.5,215.8,169.9,215.4,169.7,215.8 M211.3,222.2c-7.5,0.8-15,0.8-22.5,0.8c-7.4,0-14.9-0.1-22.2-1.7c-0.4-0.1-0.6,0.6-0.2,0.7
			c7.1,1.6,14.4,1.8,21.7,1.7c7.7,0,15.5-0.1,23.2-0.8C211.7,222.9,211.8,222.2,211.3,222.2"/>
		<path class="st27" d="M117.7,275.2v9.6c0,3.3-17.8,6-39.7,6c-21.9,0-39.7-2.7-39.7-6v-9.6H117.7L117.7,275.2z"/>
	</g>
	<g transform="translate(0 2) translate(37.273 271.989)">
		<defs>
			
				<filter id="Adobe_OpacityMaskFilter_00000037674494969732207740000002973488020749601666_" filterUnits="userSpaceOnUse" x="1.3" y="-3.3" width="78.5" height="22.3">
				<feColorMatrix  type="matrix" values="1 0 0 0 0  0 1 0 0 0  0 0 1 0 0  0 0 0 1 0"/>
			</filter>
		</defs>
		
			<mask maskUnits="userSpaceOnUse" x="1.3" y="-3.3" width="78.5" height="22.3" id="prefix__r_00000085218955089553834400000003681171103193064074_">
			<g style="filter:url(#Adobe_OpacityMaskFilter_00000037674494969732207740000002973488020749601666_);">
				<path id="prefix__q_00000044146026966421918360000009418231670868994470_" class="st4" d="M0.4,0.8v9.7c0,3.4,18,6.1,40.1,6.1
					s40.1-2.7,40.1-6.1V0.8L0.4,0.8L0.4,0.8z"/>
			</g>
		</mask>
		<path class="st29" d="M77.9,19h1.9V-3.3h-1.9V19z M73,19h1.9V-3.3H73V19z M67.3,19h1.9V-3.3h-1.9V19z M60.3,19h1.9V-3.3h-1.9V19z
			 M52.6,19h1.9V-3.3h-1.9V19z M44.2,19h1.9V-3.3h-1.9V19z M1.3,19h1.9V-3.3H1.3V19z M6.2,19h1.9V-3.3H6.2V19z M11.8,19h1.9V-3.3
			h-1.9V19z M18.9,19h1.9V-3.3h-1.9V19z M26.6,19h1.9V-3.3h-1.9V19z M35,19h1.9V-3.3H35V19z"/>
	</g>
	<g>
		<path class="st30" d="M37.7,275.6c0,3.4,18,6.1,40.1,6.1s40.1-2.7,40.1-6.1c0-3.4-18-6.1-40.1-6.1S37.7,272.2,37.7,275.6"/>
		<path class="st27" d="M45.9,274.9c0,1.6,14.3,2.8,31.9,2.8s31.9-1.3,31.9-2.8c0-1.6-14.3-2.8-31.9-2.8S45.9,273.4,45.9,274.9"/>
		<path class="st31" d="M108.3,275.8c-4-1.2-16.1-2-30.5-2c-14.4,0-26.6,0.8-30.5,2c-0.9-0.3-1.4-0.5-1.4-0.8
			c0-1.6,14.3-2.8,31.9-2.8s31.9,1.3,31.9,2.8C109.7,275.2,109.2,275.5,108.3,275.8"/>
		<path class="st27" d="M123.8,264.8v9.7c0,3.4-18,6.1-40.1,6.1s-40.1-2.7-40.1-6.1v-9.7H123.8z"/>
	</g>
	<g transform="translate(0 2) translate(43.317 261.915)">
		<defs>
			
				<filter id="Adobe_OpacityMaskFilter_00000127753603220138515010000001418746675770885527_" filterUnits="userSpaceOnUse" x="1" y="-3.2" width="78.5" height="22.3">
				<feColorMatrix  type="matrix" values="1 0 0 0 0  0 1 0 0 0  0 0 1 0 0  0 0 0 1 0"/>
			</filter>
		</defs>
		
			<mask maskUnits="userSpaceOnUse" x="1" y="-3.2" width="78.5" height="22.3" id="prefix__t_00000120539602368888151060000001280271380722411140_">
			<g style="filter:url(#Adobe_OpacityMaskFilter_00000127753603220138515010000001418746675770885527_);">
				<path id="prefix__s_00000137837001508189174770000012078677131152021132_" class="st4" d="M0.2,0.9v9.7c0,3.4,18,6.1,40.1,6.1
					c22.2,0,40.1-2.7,40.1-6.1V0.9H0.2z"/>
			</g>
		</mask>
		<path class="st33" d="M77.7,19.1h1.9V-3.2h-1.9V19.1z M72.7,19.1h1.9V-3.2h-1.9V19.1z M67.1,19.1H69V-3.2h-1.9V19.1z M60.1,19.1
			H62V-3.2h-1.9V19.1z M52.4,19.1h1.9V-3.2h-1.9V19.1z M44,19.1h1.9V-3.2H44V19.1z M1,19.1h1.9V-3.2H1V19.1z M6,19.1h1.9V-3.2H6
			V19.1z M11.6,19.1h1.9V-3.2h-1.9V19.1z M18.6,19.1h1.9V-3.2h-1.9V19.1z M26.3,19.1h1.9V-3.2h-1.9V19.1z M34.7,19.1h1.9V-3.2h-1.9
			V19.1z"/>
	</g>
	<g>
		<path class="st30" d="M43.5,264.6c0,3.4,18,6.1,40.1,6.1s40.1-2.7,40.1-6.1s-18-6.1-40.1-6.1C61.5,258.5,43.5,261.2,43.5,264.6"/>
		<path class="st27" d="M51.7,264c0,1.6,14.3,2.8,31.9,2.8s31.9-1.3,31.9-2.8c0-1.6-14.3-2.8-31.9-2.8S51.7,262.4,51.7,264"/>
		<path class="st31" d="M114.2,264.8c-4-1.2-16.1-2-30.5-2s-26.6,0.8-30.5,2c-0.9-0.3-1.4-0.5-1.4-0.8c0-1.6,14.3-2.8,31.9-2.8
			s31.9,1.3,31.9,2.8C115.5,264.3,115,264.5,114.2,264.8"/>
		<path class="st27" d="M117.2,253.8v9.7c0,3.4-18,6.1-40.1,6.1c-22.2,0-40.1-2.7-40.1-6.1v-9.7H117.2z"/>
	</g>
	<g transform="translate(0 2) translate(36.265 250.834)">
		<defs>
			
				<filter id="Adobe_OpacityMaskFilter_00000103249402381715070860000008030747244366514104_" filterUnits="userSpaceOnUse" x="1.6" y="-3.1" width="78.5" height="22.3">
				<feColorMatrix  type="matrix" values="1 0 0 0 0  0 1 0 0 0  0 0 1 0 0  0 0 0 1 0"/>
			</filter>
		</defs>
		
			<mask maskUnits="userSpaceOnUse" x="1.6" y="-3.1" width="78.5" height="22.3" id="prefix__v_00000109022797244981863050000008634767210211838141_">
			<g style="filter:url(#Adobe_OpacityMaskFilter_00000103249402381715070860000008030747244366514104_);">
				<path id="prefix__u_00000163068882322061430420000005768547220533425319_" class="st4" d="M0.7,0.9v9.7c0,3.4,18,6.1,40.1,6.1
					S81,14,81,10.6V0.9H0.7z"/>
			</g>
		</mask>
		<path class="st35" d="M78.2,19.1h1.9V-3.1h-1.9V19.1z M73.3,19.1h1.9V-3.1h-1.9V19.1z M67.6,19.1h1.9V-3.1h-1.9V19.1z M60.6,19.1
			h1.9V-3.1h-1.9V19.1z M52.9,19.1h1.9V-3.1h-1.9V19.1z M44.5,19.1h1.9V-3.1h-1.9V19.1z M1.6,19.1h1.9V-3.1H1.6V19.1z M6.5,19.1h1.9
			V-3.1H6.5V19.1z M12.1,19.1H14V-3.1h-1.9V19.1z M19.1,19.1H21V-3.1h-1.9V19.1z M26.9,19.1h1.9V-3.1h-1.9V19.1z M35.3,19.1h1.9
			V-3.1h-1.9V19.1z"/>
	</g>
	<g>
		<path class="st30" d="M37,253.4c0,3.3,17.8,6,39.8,6c22,0,39.8-2.7,39.8-6c0-3.3-17.8-6-39.8-6S37,250.1,37,253.4"/>
		<path class="st27" d="M45.1,252.8c0,1.5,14.2,2.8,31.7,2.8c17.5,0,31.7-1.2,31.7-2.8c0-1.5-14.2-2.8-31.7-2.8
			C59.3,250,45.1,251.3,45.1,252.8"/>
		<path class="st31" d="M107.1,253.6c-3.9-1.1-16-2-30.3-2c-14.3,0-26.4,0.8-30.3,2c-0.9-0.3-1.4-0.5-1.4-0.8
			c0-1.5,14.2-2.8,31.7-2.8c17.5,0,31.7,1.2,31.7,2.8C108.4,253.1,108,253.3,107.1,253.6"/>
		<path class="st36" d="M349.3,278.2v8.9c0,3.1,16.6,5.6,37.2,5.6c20.5,0,37.2-2.5,37.2-5.6v-8.9L349.3,278.2L349.3,278.2z"/>
	</g>
	<g transform="translate(0 2) translate(348.549 275.011)">
		<defs>
			
				<filter id="Adobe_OpacityMaskFilter_00000082343024332688164740000003776146704056032679_" filterUnits="userSpaceOnUse" x="1" y="-2.9" width="73.3" height="20.8">
				<feColorMatrix  type="matrix" values="1 0 0 0 0  0 1 0 0 0  0 0 1 0 0  0 0 0 1 0"/>
			</filter>
		</defs>
		
			<mask maskUnits="userSpaceOnUse" x="1" y="-2.9" width="73.3" height="20.8" id="prefix__x_00000130609856243069875790000002414529574090395580_">
			<g style="filter:url(#Adobe_OpacityMaskFilter_00000082343024332688164740000003776146704056032679_);">
				<path id="prefix__w_00000003820689723846594240000005669582331694079659_" class="st4" d="M0.2,0.8v9.1c0,3.1,16.8,5.7,37.5,5.7
					c20.7,0,37.5-2.5,37.5-5.7V0.8L0.2,0.8L0.2,0.8z"/>
			</g>
		</mask>
		<path class="st38" d="M1,17.9h1.8V-2.9H1V17.9z M5.6,17.9h1.8V-2.9H5.6V17.9z M10.8,17.9h1.8V-2.9h-1.8V17.9z M17.4,17.9h1.8V-2.9
			h-1.8V17.9z M24.6,17.9h1.8V-2.9h-1.8V17.9z M32.4,17.9h1.8V-2.9h-1.8V17.9z M72.5,17.9h1.8V-2.9h-1.8V17.9z M67.9,17.9h1.8V-2.9
			h-1.8V17.9z M62.7,17.9h1.8V-2.9h-1.8V17.9z M56.1,17.9h1.8V-2.9h-1.8V17.9z M48.9,17.9h1.8V-2.9h-1.8V17.9z M41.1,17.9h1.8V-2.9
			h-1.8V17.9z"/>
	</g>
	<g>
		<path class="st30" d="M423.7,278.7c0,3.1-16.8,5.7-37.5,5.7c-20.7,0-37.5-2.5-37.5-5.7c0-3.1,16.8-5.7,37.5-5.7
			C406.9,273,423.7,275.5,423.7,278.7"/>
		<path class="st27" d="M416,278.1c0,1.5-13.3,2.6-29.8,2.6c-16.5,0-29.8-1.2-29.8-2.6c0-1.5,13.3-2.6,29.8-2.6
			C402.6,275.4,416,276.6,416,278.1"/>
		<path class="st31" d="M357.7,278.9c3.7-1.1,15.1-1.9,28.5-1.9s24.8,0.8,28.5,1.9c0.8-0.2,1.3-0.5,1.3-0.8c0-1.5-13.3-2.6-29.8-2.6
			c-16.5,0-29.8,1.2-29.8,2.6C356.4,278.4,356.8,278.6,357.7,278.9"/>
		<path class="st36" d="M343.3,268.6v9.1c0,3.1,16.8,5.7,37.5,5.7c20.7,0,37.5-2.5,37.5-5.7v-9.1L343.3,268.6L343.3,268.6z"/>
	</g>
	<g transform="translate(0 2) translate(342.505 265.945)">
		<defs>
			
				<filter id="Adobe_OpacityMaskFilter_00000110433660154755081680000012183086265857176970_" filterUnits="userSpaceOnUse" x="1.6" y="-3.1" width="73.3" height="20.8">
				<feColorMatrix  type="matrix" values="1 0 0 0 0  0 1 0 0 0  0 0 1 0 0  0 0 0 1 0"/>
			</filter>
		</defs>
		
			<mask maskUnits="userSpaceOnUse" x="1.6" y="-3.1" width="73.3" height="20.8" id="prefix__z_00000016035387442835555260000006032905900518762667_">
			<g style="filter:url(#Adobe_OpacityMaskFilter_00000110433660154755081680000012183086265857176970_);">
				<path id="prefix__y_00000063631740961254880680000013249227890420628654_" class="st4" d="M0.8,0.7v9.1c0,3.1,16.8,5.7,37.5,5.7
					c20.7,0,37.5-2.5,37.5-5.7V0.7H0.8z"/>
			</g>
		</mask>
		<path class="st40" d="M1.6,17.7h1.8V-3.1H1.6V17.7z M6.2,17.7H8V-3.1H6.2V17.7z M11.4,17.7h1.8V-3.1h-1.8V17.7z M18,17.7h1.8V-3.1
			H18V17.7z M25.2,17.7H27V-3.1h-1.8V17.7z M33.1,17.7h1.8V-3.1h-1.8V17.7z M73.1,17.7h1.8V-3.1h-1.8V17.7z M68.5,17.7h1.8V-3.1
			h-1.8V17.7z M63.3,17.7h1.8V-3.1h-1.8V17.7z M56.7,17.7h1.8V-3.1h-1.8V17.7z M49.5,17.7h1.8V-3.1h-1.8V17.7z M41.7,17.7h1.8V-3.1
			h-1.8V17.7z"/>
	</g>
	<g>
		<path class="st30" d="M418.2,268.4c0,3.1-16.8,5.7-37.5,5.7s-37.5-2.5-37.5-5.7s16.8-5.7,37.5-5.7S418.2,265.3,418.2,268.4"/>
		<path class="st27" d="M410.6,267.8c0,1.5-13.3,2.6-29.8,2.6c-16.5,0-29.8-1.2-29.8-2.6c0-1.5,13.3-2.6,29.8-2.6
			C397.2,265.2,410.6,266.4,410.6,267.8"/>
		<path class="st31" d="M352.2,268.6c3.7-1.1,15.1-1.9,28.5-1.9c13.4,0,24.8,0.8,28.5,1.9c0.8-0.2,1.3-0.5,1.3-0.8
			c0-1.5-13.3-2.6-29.8-2.6c-16.5,0-29.8,1.2-29.8,2.6C351,268.1,351.4,268.4,352.2,268.6"/>
		<path class="st36" d="M349.4,258.3v9.1c0,3.1,16.8,5.7,37.5,5.7c20.7,0,37.5-2.5,37.5-5.7v-9.1H349.4z"/>
	</g>
	<g transform="translate(0 2) translate(348.549 255.871)">
		<defs>
			
				<filter id="Adobe_OpacityMaskFilter_00000173861632226563190080000010911937310060902797_" filterUnits="userSpaceOnUse" x="1.6" y="-3.3" width="73.3" height="20.8">
				<feColorMatrix  type="matrix" values="1 0 0 0 0  0 1 0 0 0  0 0 1 0 0  0 0 0 1 0"/>
			</filter>
		</defs>
		
			<mask maskUnits="userSpaceOnUse" x="1.6" y="-3.3" width="73.3" height="20.8" id="prefix__B_00000052823823507780020980000013621179180499030162_">
			<g style="filter:url(#Adobe_OpacityMaskFilter_00000173861632226563190080000010911937310060902797_);">
				<path id="prefix__A_00000124146333655993792890000000471951782797309374_" class="st4" d="M0.8,0.4v9.1c0,3.1,16.8,5.7,37.5,5.7
					s37.5-2.5,37.5-5.7V0.4H0.8z"/>
			</g>
		</mask>
		<path class="st42" d="M1.6,17.5h1.8V-3.3H1.6V17.5z M6.2,17.5H8V-3.3H6.2V17.5z M11.5,17.5h1.8V-3.3h-1.8V17.5z M18,17.5h1.8V-3.3
			H18V17.5z M25.3,17.5H27V-3.3h-1.8V17.5z M33.1,17.5h1.8V-3.3h-1.8V17.5z M73.2,17.5H75V-3.3h-1.8V17.5z M68.6,17.5h1.8V-3.3h-1.8
			V17.5z M63.3,17.5h1.8V-3.3h-1.8V17.5z M56.8,17.5h1.8V-3.3h-1.8V17.5z M49.6,17.5h1.8V-3.3h-1.8V17.5z M41.7,17.5h1.8V-3.3h-1.8
			V17.5z"/>
	</g>
	<g>
		<path class="st30" d="M424.3,258.1c0,3.1-16.8,5.7-37.5,5.7c-20.7,0-37.5-2.5-37.5-5.7c0-3.1,16.8-5.7,37.5-5.7
			S424.3,255,424.3,258.1"/>
		<path class="st27" d="M416.6,257.5c0,1.5-13.3,2.6-29.8,2.6c-16.5,0-29.8-1.2-29.8-2.6s13.3-2.6,29.8-2.6S416.6,256.1,416.6,257.5
			"/>
		<path class="st31" d="M358.3,258.3c3.7-1.1,15.1-1.9,28.5-1.9s24.8,0.8,28.5,1.9c0.8-0.2,1.3-0.5,1.3-0.8c0-1.5-13.3-2.6-29.8-2.6
			c-16.5,0-29.8,1.2-29.8,2.6C357.1,257.8,357.5,258.1,358.3,258.3"/>
		<path class="st36" d="M352,247.9v9.1c0,3.1,16.8,5.7,37.5,5.7s37.5-2.5,37.5-5.7v-9.1H352z"/>
	</g>
	<g transform="translate(0 2) translate(351.57 245.797)">
		<defs>
			
				<filter id="Adobe_OpacityMaskFilter_00000020385774855254016210000008140356371762497960_" filterUnits="userSpaceOnUse" x="1.3" y="-3.7" width="73.3" height="20.8">
				<feColorMatrix  type="matrix" values="1 0 0 0 0  0 1 0 0 0  0 0 1 0 0  0 0 0 1 0"/>
			</filter>
		</defs>
		
			<mask maskUnits="userSpaceOnUse" x="1.3" y="-3.7" width="73.3" height="20.8" id="prefix__D_00000142878138348218995080000004600513205906542502_">
			<g style="filter:url(#Adobe_OpacityMaskFilter_00000020385774855254016210000008140356371762497960_);">
				<path id="prefix__C_00000127035857150924881120000016264200182310443395_" class="st4" d="M0.4,0.1v9.1c0,3.1,16.8,5.7,37.5,5.7
					c20.7,0,37.5-2.5,37.5-5.7V0.1H0.4z"/>
			</g>
		</mask>
		<path class="st44" d="M1.3,17.1H3V-3.7H1.3V17.1z M5.9,17.1h1.8V-3.7H5.9V17.1z M11.1,17.1h1.8V-3.7h-1.8V17.1z M17.7,17.1h1.8
			V-3.7h-1.8V17.1z M24.9,17.1h1.8V-3.7h-1.8V17.1z M32.7,17.1h1.8V-3.7h-1.8V17.1z M72.8,17.1h1.8V-3.7h-1.8V17.1z M68.2,17.1H70
			V-3.7h-1.8V17.1z M62.9,17.1h1.8V-3.7h-1.8V17.1z M56.4,17.1h1.8V-3.7h-1.8V17.1z M49.2,17.1H51V-3.7h-1.8V17.1z M41.3,17.1h1.8
			V-3.7h-1.8V17.1z"/>
	</g>
	<g>
		<path class="st30" d="M427,247.7c0,3.1-16.8,5.7-37.5,5.7s-37.5-2.5-37.5-5.7c0-3.1,16.8-5.7,37.5-5.7S427,244.6,427,247.7"/>
		<path class="st27" d="M419.3,247.1c0,1.5-13.3,2.6-29.8,2.6c-16.5,0-29.8-1.2-29.8-2.6c0-1.5,13.3-2.6,29.8-2.6
			C405.9,244.5,419.3,245.6,419.3,247.1"/>
		<path class="st31" d="M361,247.9c3.7-1.1,15.1-1.9,28.5-1.9s24.8,0.8,28.5,1.9c0.8-0.2,1.3-0.5,1.3-0.8c0-1.5-13.3-2.6-29.8-2.6
			c-16.5,0-29.8,1.2-29.8,2.6C359.7,247.4,360.1,247.6,361,247.9"/>
		<path class="st36" d="M343.1,237.6v9.1c0,3.1,16.8,5.7,37.5,5.7c20.7,0,37.5-2.5,37.5-5.7v-9.1H343.1z"/>
	</g>
	<g transform="translate(0 2) translate(342.505 234.716)">
		<defs>
			
				<filter id="Adobe_OpacityMaskFilter_00000064341184819390072320000016346217347300171960_" filterUnits="userSpaceOnUse" x="1.4" y="-2.9" width="73.3" height="20.8">
				<feColorMatrix  type="matrix" values="1 0 0 0 0  0 1 0 0 0  0 0 1 0 0  0 0 0 1 0"/>
			</filter>
		</defs>
		
			<mask maskUnits="userSpaceOnUse" x="1.4" y="-2.9" width="73.3" height="20.8" id="prefix__F_00000099659437373079890250000000028371546165908138_">
			<g style="filter:url(#Adobe_OpacityMaskFilter_00000064341184819390072320000016346217347300171960_);">
				<path id="prefix__E_00000124858587257064745990000010854972672438393999_" class="st4" d="M0.6,0.9v9.1c0,3.1,16.8,5.7,37.5,5.7
					s37.5-2.5,37.5-5.7V0.9H0.6z"/>
			</g>
		</mask>
		<path class="st46" d="M1.4,17.9h1.8V-2.9H1.4V17.9z M6,17.9h1.8V-2.9H6V17.9z M11.2,17.9H13V-2.9h-1.8V17.9z M17.8,17.9h1.8V-2.9
			h-1.8V17.9z M25,17.9h1.8V-2.9H25V17.9z M32.8,17.9h1.8V-2.9h-1.8V17.9z M72.9,17.9h1.8V-2.9h-1.8V17.9z M68.3,17.9h1.8V-2.9h-1.8
			V17.9z M63.1,17.9h1.8V-2.9h-1.8V17.9z M56.5,17.9h1.8V-2.9h-1.8V17.9z M49.3,17.9h1.8V-2.9h-1.8V17.9z M41.5,17.9h1.8V-2.9h-1.8
			V17.9z"/>
	</g>
	<g>
		<path class="st30" d="M418,237.4c0,3.1-16.8,5.7-37.5,5.7c-20.7,0-37.5-2.5-37.5-5.7c0-3.1,16.8-5.7,37.5-5.7
			C401.2,231.7,418,234.3,418,237.4"/>
		<path class="st27" d="M410.3,236.8c0,1.5-13.3,2.6-29.8,2.6c-16.5,0-29.8-1.2-29.8-2.6c0-1.5,13.3-2.6,29.8-2.6
			C397,234.2,410.3,235.3,410.3,236.8"/>
		<path class="st31" d="M352,237.6c3.7-1.1,15.1-1.9,28.5-1.9c13.4,0,24.8,0.8,28.5,1.9c0.8-0.2,1.3-0.5,1.3-0.8
			c0-1.5-13.3-2.6-29.8-2.6c-16.5,0-29.8,1.2-29.8,2.6C350.7,237.1,351.2,237.3,352,237.6"/>
		<path class="st36" d="M350.3,227.3v9.1c0,3.1,16.8,5.7,37.5,5.7s37.5-2.5,37.5-5.7v-9.1H350.3z"/>
	</g>
	<g transform="translate(0 2) translate(349.556 224.643)">
		<defs>
			
				<filter id="Adobe_OpacityMaskFilter_00000109710377654284782330000012269509197950656957_" filterUnits="userSpaceOnUse" x="1.6" y="-3.1" width="73.3" height="20.8">
				<feColorMatrix  type="matrix" values="1 0 0 0 0  0 1 0 0 0  0 0 1 0 0  0 0 0 1 0"/>
			</filter>
		</defs>
		
			<mask maskUnits="userSpaceOnUse" x="1.6" y="-3.1" width="73.3" height="20.8" id="prefix__H_00000058569271624540038570000012348694343820817804_">
			<g style="filter:url(#Adobe_OpacityMaskFilter_00000109710377654284782330000012269509197950656957_);">
				<path id="prefix__G_00000091729758027648286640000017584836271917041541_" class="st4" d="M0.7,0.6v9.1c0,3.1,16.8,5.7,37.5,5.7
					c20.7,0,37.5-2.6,37.5-5.7V0.6H0.7z"/>
			</g>
		</mask>
		<path class="st48" d="M1.6,17.6h1.8V-3.1H1.6V17.6z M6.2,17.6h1.8V-3.1H6.2V17.6z M11.4,17.6h1.8V-3.1h-1.8V17.6z M18,17.6h1.8
			V-3.1H18V17.6z M25.2,17.6h1.8V-3.1h-1.8V17.6z M33,17.6h1.8V-3.1H33V17.6z M73.1,17.6h1.8V-3.1h-1.8V17.6z M68.5,17.6h1.8V-3.1
			h-1.8V17.6z M63.2,17.6H65V-3.1h-1.8V17.6z M56.7,17.6h1.8V-3.1h-1.8V17.6z M49.5,17.6h1.8V-3.1h-1.8V17.6z M41.6,17.6h1.8V-3.1
			h-1.8V17.6z"/>
	</g>
	<g>
		<path class="st30" d="M425.2,226.1c0,3.1-16.8,5.7-37.5,5.7c-20.7,0-37.5-2.5-37.5-5.7c0-3.1,16.8-5.7,37.5-5.7
			C408.5,220.4,425.2,222.9,425.2,226.1"/>
		<path class="st27" d="M417.6,225.5c0,1.5-13.3,2.6-29.8,2.6c-16.5,0-29.8-1.2-29.8-2.6c0-1.5,13.3-2.6,29.8-2.6
			C404.2,222.8,417.6,224,417.6,225.5"/>
		<path class="st31" d="M359.3,226.3c3.7-1.1,15.1-1.9,28.5-1.9s24.8,0.8,28.5,1.9c0.8-0.2,1.3-0.5,1.3-0.8c0-1.5-13.3-2.6-29.8-2.6
			c-16.5,0-29.8,1.2-29.8,2.6C358,225.8,358.4,226,359.3,226.3"/>
		<path class="st36" d="M343.8,215.9v9.1c0,3.1,16.8,5.7,37.5,5.7c20.7,0,37.5-2.5,37.5-5.7v-9.1H343.8z"/>
	</g>
	<g transform="translate(0 2) translate(343.512 213.562)">
		<defs>
			
				<filter id="Adobe_OpacityMaskFilter_00000089541665883944528290000005872948544822249396_" filterUnits="userSpaceOnUse" x="1.1" y="-3.4" width="73.3" height="20.8">
				<feColorMatrix  type="matrix" values="1 0 0 0 0  0 1 0 0 0  0 0 1 0 0  0 0 0 1 0"/>
			</filter>
		</defs>
		
			<mask maskUnits="userSpaceOnUse" x="1.1" y="-3.4" width="73.3" height="20.8" id="prefix__J_00000081640317674699362470000017608866710706558388_">
			<g style="filter:url(#Adobe_OpacityMaskFilter_00000089541665883944528290000005872948544822249396_);">
				<path id="prefix__I_00000158733369494741790090000002550809946274469029_" class="st4" d="M0.3,0.4v9.1c0,3.1,16.8,5.7,37.5,5.7
					c20.7,0,37.5-2.5,37.5-5.7V0.4H0.3z"/>
			</g>
		</mask>
		<path class="st50" d="M1.1,17.4h1.8V-3.4H1.1V17.4z M5.7,17.4h1.8V-3.4H5.7V17.4z M11,17.4h1.8V-3.4H11V17.4z M17.5,17.4h1.8V-3.4
			h-1.8V17.4z M24.7,17.4h1.8V-3.4h-1.8V17.4z M32.6,17.4h1.8V-3.4h-1.8V17.4z M72.7,17.4h1.8V-3.4h-1.8V17.4z M68.1,17.4h1.8V-3.4
			h-1.8V17.4z M62.8,17.4h1.8V-3.4h-1.8V17.4z M56.2,17.4H58V-3.4h-1.8V17.4z M49,17.4h1.8V-3.4H49V17.4z M41.2,17.4H43V-3.4h-1.8
			V17.4z"/>
	</g>
	<g>
		<path class="st30" d="M418.8,216.7c0,3.1-16.8,5.6-37.5,5.6s-37.5-2.5-37.5-5.6s16.8-5.6,37.5-5.6S418.8,213.6,418.8,216.7"/>
		<path class="st36" d="M411.1,216.1c0,1.4-13.3,2.6-29.8,2.6c-16.5,0-29.8-1.2-29.8-2.6s13.3-2.6,29.8-2.6
			C397.7,213.5,411.1,214.7,411.1,216.1"/>
		<path class="st31" d="M352.8,216.9c3.7-1.1,15.1-1.9,28.5-1.9c13.4,0,24.8,0.8,28.5,1.9c0.8-0.2,1.3-0.5,1.3-0.8
			c0-1.4-13.3-2.6-29.8-2.6c-16.5,0-29.8,1.2-29.8,2.6C351.5,216.4,351.9,216.6,352.8,216.9"/>
		<path class="st51" d="M370.4,292.2c-3.6-4.8-5.9-14-6.2-20.5c-1.1-24,10.5-40,29.8-44.3l7.3-1.7l15.1,64.7
			c-6.8,1.4-8,15.1-12.8,14.1C398.8,303.6,370.4,292.2,370.4,292.2"/>
		<path class="st27" d="M400.5,225.8l7.3-1.7l18.4,79l-7.2,1.7c-19.3,4.4-39.1-9.7-44.1-31.6C369.7,251.4,381.2,230.2,400.5,225.8"
			/>
	</g>
	<g transform="translate(0 2) translate(373.733 220.613)">
		<defs>
			
				<filter id="Adobe_OpacityMaskFilter_00000060716019353919265010000006831439891650445968_" filterUnits="userSpaceOnUse" x="4.8" y="79.8" width="47.1" height="12.9">
				<feColorMatrix  type="matrix" values="1 0 0 0 0  0 1 0 0 0  0 0 1 0 0  0 0 0 1 0"/>
			</filter>
		</defs>
		
			<mask maskUnits="userSpaceOnUse" x="4.8" y="79.8" width="47.1" height="12.9" id="prefix__L_00000121274108021244309950000009256428299243625627_">
			<g style="filter:url(#Adobe_OpacityMaskFilter_00000060716019353919265010000006831439891650445968_);">
				<path id="prefix__K_00000127041054185537420210000003781933231523886224_" class="st4" d="M27.3,2.3C8.3,6.8-3,28.3,2,50.3
					s24.4,36.3,43.3,31.9l7.1-1.7l-18-79.8C34.4,0.7,27.3,2.3,27.3,2.3z"/>
			</g>
		</mask>
		<path class="st53" d="M5.3,92.7l-0.4-2l46.7-10.9l0.4,2L5.3,92.7z"/>
		<defs>
			
				<filter id="Adobe_OpacityMaskFilter_00000067937222294579184390000012963997638367260829_" filterUnits="userSpaceOnUse" x="3.7" y="74.6" width="47.1" height="12.9">
				<feColorMatrix  type="matrix" values="1 0 0 0 0  0 1 0 0 0  0 0 1 0 0  0 0 0 1 0"/>
			</filter>
		</defs>
		
			<mask maskUnits="userSpaceOnUse" x="3.7" y="74.6" width="47.1" height="12.9" id="prefix__N_00000054971728981365370800000005178234130370216585_">
			<g style="filter:url(#Adobe_OpacityMaskFilter_00000067937222294579184390000012963997638367260829_);">
				<path id="prefix__M_00000080910055222699446260000002283934044751058834_" class="st4" d="M27.3,2.3C8.3,6.8-3,28.3,2,50.3
					s24.4,36.3,43.3,31.9l7.1-1.7l-18-79.8C34.4,0.7,27.3,2.3,27.3,2.3z"/>
			</g>
		</mask>
		<path class="st55" d="M4.1,87.5l-0.4-2l46.7-10.9l0.4,2L4.1,87.5z"/>
		<defs>
			
				<filter id="Adobe_OpacityMaskFilter_00000001636421476466679340000012922105658508228275_" filterUnits="userSpaceOnUse" x="2.3" y="68.8" width="47.1" height="12.9">
				<feColorMatrix  type="matrix" values="1 0 0 0 0  0 1 0 0 0  0 0 1 0 0  0 0 0 1 0"/>
			</filter>
		</defs>
		
			<mask maskUnits="userSpaceOnUse" x="2.3" y="68.8" width="47.1" height="12.9" id="prefix__P_00000181770608378074747820000002690896594939969960_">
			<g style="filter:url(#Adobe_OpacityMaskFilter_00000001636421476466679340000012922105658508228275_);">
				<path id="prefix__O_00000072972220490685384130000007901873146127746201_" class="st4" d="M27.3,2.3C8.3,6.8-3,28.3,2,50.3
					s24.4,36.3,43.3,31.9l7.1-1.7l-18-79.8C34.4,0.7,27.3,2.3,27.3,2.3z"/>
			</g>
		</mask>
		<path class="st57" d="M2.8,81.7l-0.4-2L49,68.8l0.4,2L2.8,81.7z"/>
		<defs>
			
				<filter id="Adobe_OpacityMaskFilter_00000026150050063379563230000005276176519578298544_" filterUnits="userSpaceOnUse" x="0.7" y="61.4" width="47.1" height="12.9">
				<feColorMatrix  type="matrix" values="1 0 0 0 0  0 1 0 0 0  0 0 1 0 0  0 0 0 1 0"/>
			</filter>
		</defs>
		
			<mask maskUnits="userSpaceOnUse" x="0.7" y="61.4" width="47.1" height="12.9" id="prefix__R_00000125572565532399309820000016116608254629523864_">
			<g style="filter:url(#Adobe_OpacityMaskFilter_00000026150050063379563230000005276176519578298544_);">
				<path id="prefix__Q_00000053506720063619774280000004399280943424685697_" class="st4" d="M27.3,2.3C8.3,6.8-3,28.3,2,50.3
					s24.4,36.3,43.3,31.9l7.1-1.7l-18-79.8C34.4,0.7,27.3,2.3,27.3,2.3z"/>
			</g>
		</mask>
		<path class="st59" d="M1.1,74.3l-0.4-2l46.6-10.9l0.4,2L1.1,74.3z"/>
		<g>
			<defs>
				
					<filter id="Adobe_OpacityMaskFilter_00000121242320238121754410000018282027418637917614_" filterUnits="userSpaceOnUse" x="-1.1" y="53.4" width="47.1" height="12.9">
					<feColorMatrix  type="matrix" values="1 0 0 0 0  0 1 0 0 0  0 0 1 0 0  0 0 0 1 0"/>
				</filter>
			</defs>
			
				<mask maskUnits="userSpaceOnUse" x="-1.1" y="53.4" width="47.1" height="12.9" id="prefix__T_00000044879635181940313580000011913765271555409281_">
				<g style="filter:url(#Adobe_OpacityMaskFilter_00000121242320238121754410000018282027418637917614_);">
					<path id="prefix__S_00000068672907476821970100000018083300502401843635_" class="st4" d="M27.3,2.3C8.3,6.8-3,28.3,2,50.3
						s24.4,36.3,43.3,31.9l7.1-1.7l-18-79.8C34.4,0.7,27.3,2.3,27.3,2.3z"/>
				</g>
			</mask>
			<path class="st61" d="M-0.7,66.3l-0.4-2l46.6-10.9l0.4,2L-0.7,66.3z"/>
		</g>
		<g>
			<defs>
				
					<filter id="Adobe_OpacityMaskFilter_00000057138471310701570080000003654789324638670750_" filterUnits="userSpaceOnUse" x="-3.1" y="44.6" width="47.1" height="12.9">
					<feColorMatrix  type="matrix" values="1 0 0 0 0  0 1 0 0 0  0 0 1 0 0  0 0 0 1 0"/>
				</filter>
			</defs>
			
				<mask maskUnits="userSpaceOnUse" x="-3.1" y="44.6" width="47.1" height="12.9" id="prefix__V_00000062180633812401169410000007224618895354254261_">
				<g style="filter:url(#Adobe_OpacityMaskFilter_00000057138471310701570080000003654789324638670750_);">
					<path id="prefix__U_00000085949271958313070350000000134748918550843797_" class="st4" d="M27.3,2.3C8.3,6.8-3,28.3,2,50.3
						s24.4,36.3,43.3,31.9l7.1-1.7l-18-79.8C34.4,0.7,27.3,2.3,27.3,2.3z"/>
				</g>
			</mask>
			<path class="st63" d="M-2.7,57.5l-0.4-2l46.7-10.9l0.4,2L-2.7,57.5z"/>
		</g>
		<g>
			<defs>
				
					<filter id="Adobe_OpacityMaskFilter_00000157292060980880190690000006963252777848368033_" filterUnits="userSpaceOnUse" x="-13.2" y="-0.2" width="47.1" height="12.9">
					<feColorMatrix  type="matrix" values="1 0 0 0 0  0 1 0 0 0  0 0 1 0 0  0 0 0 1 0"/>
				</filter>
			</defs>
			
				<mask maskUnits="userSpaceOnUse" x="-13.2" y="-0.2" width="47.1" height="12.9" id="prefix__X_00000057831022245632259460000018355621632467632543_">
				<g style="filter:url(#Adobe_OpacityMaskFilter_00000157292060980880190690000006963252777848368033_);">
					<path id="prefix__W_00000081638207414198265180000009764809731276879510_" class="st4" d="M27.3,2.3C8.3,6.8-3,28.3,2,50.3
						s24.4,36.3,43.3,31.9l7.1-1.7l-18-79.8C34.4,0.7,27.3,2.3,27.3,2.3z"/>
				</g>
			</mask>
			<path class="st65" d="M33.9,1.8l-46.7,10.9l-0.4-2L33.4-0.2L33.9,1.8z"/>
		</g>
		<g>
			<defs>
				
					<filter id="Adobe_OpacityMaskFilter_00000117660857585635282390000010217741319772281004_" filterUnits="userSpaceOnUse" x="-12.1" y="4.9" width="47.1" height="12.9">
					<feColorMatrix  type="matrix" values="1 0 0 0 0  0 1 0 0 0  0 0 1 0 0  0 0 0 1 0"/>
				</filter>
			</defs>
			
				<mask maskUnits="userSpaceOnUse" x="-12.1" y="4.9" width="47.1" height="12.9" id="prefix__Z_00000058561474567693085380000011826593547490282681_">
				<g style="filter:url(#Adobe_OpacityMaskFilter_00000117660857585635282390000010217741319772281004_);">
					<path id="prefix__Y_00000036970609202841672590000008724812336950420136_" class="st4" d="M27.3,2.3C8.3,6.8-3,28.3,2,50.3
						s24.4,36.3,43.3,31.9l7.1-1.7l-18-79.8C34.4,0.7,27.3,2.3,27.3,2.3z"/>
				</g>
			</mask>
			<path class="st67" d="M-11.6,17.9l-0.4-2L34.6,4.9l0.4,2L-11.6,17.9z"/>
		</g>
		<g>
			<defs>
				
					<filter id="Adobe_OpacityMaskFilter_00000043437878879155072350000002899018307327801231_" filterUnits="userSpaceOnUse" x="-10.7" y="10.8" width="47.1" height="12.9">
					<feColorMatrix  type="matrix" values="1 0 0 0 0  0 1 0 0 0  0 0 1 0 0  0 0 0 1 0"/>
				</filter>
			</defs>
			
				<mask maskUnits="userSpaceOnUse" x="-10.7" y="10.8" width="47.1" height="12.9" id="prefix__ab_00000019643660403897189710000007264339876257325211_">
				<g style="filter:url(#Adobe_OpacityMaskFilter_00000043437878879155072350000002899018307327801231_);">
					<path id="prefix__aa_00000034049146317484400760000004872554436879226521_" class="st4" d="M27.3,2.3C8.3,6.8-3,28.3,2,50.3
						s24.4,36.3,43.3,31.9l7.1-1.7l-18-79.8C34.4,0.7,27.3,2.3,27.3,2.3z"/>
				</g>
			</mask>
			<path class="st69" d="M-10.3,23.7l-0.4-2l46.7-10.9l0.4,2L-10.3,23.7z"/>
		</g>
		<g>
			<defs>
				
					<filter id="Adobe_OpacityMaskFilter_00000133490878455963208050000004057907131604609719_" filterUnits="userSpaceOnUse" x="-9.1" y="18.1" width="47.1" height="12.9">
					<feColorMatrix  type="matrix" values="1 0 0 0 0  0 1 0 0 0  0 0 1 0 0  0 0 0 1 0"/>
				</filter>
			</defs>
			
				<mask maskUnits="userSpaceOnUse" x="-9.1" y="18.1" width="47.1" height="12.9" id="prefix__ad_00000115474035042223000950000004263937792019831483_">
				<g style="filter:url(#Adobe_OpacityMaskFilter_00000133490878455963208050000004057907131604609719_);">
					<path id="prefix__ac_00000040546306570261211500000002337197228405894569_" class="st4" d="M27.3,2.3C8.3,6.8-3,28.3,2,50.3
						s24.4,36.3,43.3,31.9l7.1-1.7l-18-79.8C34.4,0.7,27.3,2.3,27.3,2.3z"/>
				</g>
			</mask>
			<path class="st71" d="M-8.6,31.1l-0.4-2l46.7-10.9l0.4,2L-8.6,31.1z"/>
		</g>
		<g>
			<defs>
				
					<filter id="Adobe_OpacityMaskFilter_00000153678297542683846220000018178895445591214002_" filterUnits="userSpaceOnUse" x="-7.3" y="26.2" width="47.1" height="12.9">
					<feColorMatrix  type="matrix" values="1 0 0 0 0  0 1 0 0 0  0 0 1 0 0  0 0 0 1 0"/>
				</filter>
			</defs>
			
				<mask maskUnits="userSpaceOnUse" x="-7.3" y="26.2" width="47.1" height="12.9" id="prefix__af_00000066481680065181816460000003914060480249678474_">
				<g style="filter:url(#Adobe_OpacityMaskFilter_00000153678297542683846220000018178895445591214002_);">
					<path id="prefix__ae_00000069386081728478855520000003088358699187831432_" class="st4" d="M27.3,2.3C8.3,6.8-3,28.3,2,50.3
						s24.4,36.3,43.3,31.9l7.1-1.7l-18-79.8C34.4,0.7,27.3,2.3,27.3,2.3z"/>
				</g>
			</mask>
			<path class="st73" d="M-6.8,39.1l-0.4-2l46.7-10.9l0.4,2L-6.8,39.1z"/>
		</g>
		<g>
			<defs>
				
					<filter id="Adobe_OpacityMaskFilter_00000139993668255900839980000017039992898337747079_" filterUnits="userSpaceOnUse" x="-5.3" y="35" width="47.1" height="12.9">
					<feColorMatrix  type="matrix" values="1 0 0 0 0  0 1 0 0 0  0 0 1 0 0  0 0 0 1 0"/>
				</filter>
			</defs>
			
				<mask maskUnits="userSpaceOnUse" x="-5.3" y="35" width="47.1" height="12.9" id="prefix__ah_00000009550433513479071450000011136339740749924256_">
				<g style="filter:url(#Adobe_OpacityMaskFilter_00000139993668255900839980000017039992898337747079_);">
					<path id="prefix__ag_00000107588165533048128330000015465725926277272489_" class="st4" d="M27.3,2.3C8.3,6.8-3,28.3,2,50.3
						s24.4,36.3,43.3,31.9l7.1-1.7l-18-79.8C34.4,0.7,27.3,2.3,27.3,2.3z"/>
				</g>
			</mask>
			<path class="st75" d="M-4.8,47.9l-0.4-2L41.4,35l0.4,2L-4.8,47.9z"/>
		</g>
	</g>
	<g>
		<path class="st76" d="M384.3,271.4c5,21.9,24.6,36,43.7,31.6c19.1-4.4,30.5-25.7,25.5-47.5c-5-21.9-24.6-36-43.7-31.6
			C390.7,228.2,379.2,249.5,384.3,271.4"/>
		<path class="st77" d="M452.4,257c-5-21.9-24.6-36-43.7-31.6c-8,1.8-14.6,6.6-19.2,13.1c4.7-7.3,11.7-12.7,20.3-14.7
			c19.1-4.4,38.6,9.8,43.7,31.6c2.9,12.7,0.3,25.3-6.3,34.4C452.9,280.9,455.1,269.1,452.4,257"/>
		<path class="st77" d="M425.8,295.1c14.2-3.3,22.6-19.7,18.7-36.7c-3.9-17-18.6-28.1-32.9-24.8c-14.2,3.3-22.6,19.7-18.7,36.7
			C396.8,287.2,411.5,298.3,425.8,295.1"/>
		<path class="st36" d="M425.9,294.2c14.2-3.3,22.6-19.7,18.7-36.7c-3.9-17-18.6-28.1-32.9-24.8c-14.2,3.3-22.6,19.7-18.7,36.7
			C396.9,286.3,411.7,297.5,425.9,294.2"/>
		<path class="st31" d="M410.3,266.2c0.1,0.2,0.3,0.4,0.5,0.6l17.7,12.4c0.4,0.3,0.9,0.4,1.4,0.3c0.4-0.1,0.8-0.4,1.1-0.9
			c0.5-0.9,0.1-2.2-0.7-2.8l-13.9-9.7l2.7-0.7c4.1-1.1,6.7-5.4,6.3-10.1l1.9-0.5c0.9-0.2,1.5-1.3,1.2-2.4c-0.3-1.1-1.3-1.8-2.2-1.5
			l-1.9,0.5c-0.6-1.4-1.5-2.6-2.6-3.6l3.5-0.9c0.9-0.2,1.5-1.3,1.2-2.4c-0.3-1.1-1.3-1.8-2.2-1.5l-10.2,2.6l-6.8,1.8
			c-0.9,0.2-1.5,1.3-1.2,2.4c0.3,1.1,1.3,1.8,2.2,1.5l6.8-1.8c2.2-0.6,4.5,0.6,5.8,2.7l-11.6,3c-0.9,0.2-1.5,1.3-1.2,2.4
			c0.3,1.1,1.3,1.8,2.2,1.5l11.6-3c-0.1,2.5-1.6,4.6-3.8,5.2l-6.8,1.8c-0.2,0.1-0.4,0.2-0.6,0.3"/>
		<path class="st76" d="M425.9,246.1c0.9-0.2,1.5-1.3,1.2-2.4c-0.3-1.1-1.3-1.8-2.2-1.5l-10.2,2.6l-6.8,1.8
			c-0.9,0.2-1.5,1.3-1.2,2.4c0.3,1.1,1.3,1.8,2.2,1.5l6.8-1.8c2.2-0.6,4.5,0.6,5.8,2.7l-11.6,3c-0.9,0.2-1.5,1.3-1.2,2.4
			c0.3,1.1,1.3,1.8,2.2,1.5l11.6-3c-0.1,2.5-1.6,4.6-3.8,5.2l-6.8,1.8c-0.2,0.1-0.4,0.2-0.6,0.3c-0.4,0.3-0.6,0.8-0.6,1.3
			c0,0.5,0.1,1.1,0.4,1.5c0.1,0.2,0.3,0.4,0.5,0.6l17.7,12.4c0.4,0.3,0.9,0.4,1.4,0.3c0.4-0.1,0.8-0.4,1.1-0.9
			c0.5-0.9,0.1-2.2-0.7-2.8l-13.9-9.7l2.7-0.7c4.1-1.1,6.7-5.4,6.3-10.1l1.9-0.5c0.9-0.2,1.5-1.3,1.2-2.4c-0.3-1.1-1.3-1.8-2.2-1.5
			l-1.9,0.5c-0.6-1.4-1.5-2.6-2.6-3.6L425.9,246.1L425.9,246.1z"/>
		<path class="st31" d="M422.8,293.2c14.2-3.3,22.6-19.7,18.7-36.7c-2.6-11.4-10.2-20.2-19.2-23.7c10.4,2.5,19.4,12,22.3,24.7
			c3.9,17-4.5,33.4-18.7,36.7c-4.6,1.1-9.3,0.6-13.7-1.1C415.7,293.9,419.3,294,422.8,293.2"/>
		<g transform="translate(0 2) translate(215.576) translate(308.48 138.716)">
			<defs>
				
					<filter id="Adobe_OpacityMaskFilter_00000104669046391805756180000015525562842236673688_" filterUnits="userSpaceOnUse" x="0.1" y="0.6" width="21.3" height="11.8">
					<feColorMatrix  type="matrix" values="1 0 0 0 0  0 1 0 0 0  0 0 1 0 0  0 0 0 1 0"/>
				</filter>
			</defs>
			
				<mask maskUnits="userSpaceOnUse" x="0.1" y="0.6" width="21.3" height="11.8" id="prefix__aj_00000183929746714532914860000017680084099522353310_">
				<g style="filter:url(#Adobe_OpacityMaskFilter_00000104669046391805756180000015525562842236673688_);">
					<path id="prefix__ai_00000074427320362420198780000017276564310593286024_" class="st4" d="M0.1,0.6h21.3v11.8H0.1V0.6z"/>
				</g>
			</mask>
			<path class="st79" d="M19.3,11c0.7-0.3,0.1-1.1-0.6-1.2c-0.1,0-0.3,0-0.5,0c1.2-0.3,2.1-0.5,2.4-0.6c0.6-0.3,0.2-1-0.5-1.2
				c0.5-0.1,0.8-0.2,1-0.3c0.8-0.3,0.2-1.1-0.6-1.2c-0.2,0-0.6,0.1-1.2,0.1c0.3-0.1,0.5-0.1,0.7-0.2c0.7-0.3,0.3-1-0.4-1.1
				c-0.2,0-0.6,0-1.4,0.2c-0.7,0.1-1.6,0.1-2.3,0.2c-0.7,0.1-3.9,0.2-4.7-1.2c-1.2-2.2,3.3-1.9,3.7-3.8c0.1-0.6-3.1-0.2-4.9,0.2
				C8.1,1.6,7.2,1.9,6.2,2.3c-1,0.4-2.3,1.4-3,1.5C2.6,4,0.8,3.8,0.8,3.8l-0.6,6c0,0,3.6,0.2,4.6,0.6c2.3,1.3,4.6,2,7.3,2
				c1.7,0,3.3-0.4,4.9-0.7C16.9,11.7,19.1,11,19.3,11"/>
		</g>
		<path class="st80" d="M449.8,278.9c0,0,3.6,5.1,5.3,6.7c1.7,1.5,7.1-3.3,6.9-4.7c-0.2-1.4-7-9.3-7-9.3"/>
		<path class="st26" d="M464.7,281c1.6,1.7,4.4,5.2,4.4,5.2l-4.5,5.8l-1.5-0.4c0,0-0.5,2.6-1.8,4.4c-1,1.4-3.5,3.7-4.9,4.7
			c-4.9,3.3-9.3,4.3-10,3.8c-3-2.4,3.5-6.9,4.6-8c3.4-3.1,3.7-7.7,2.9-10.1c-0.6-1.8-1.1-1.9-0.2-2.3c0,0,0.8-0.4,1.9-0.1
			c1.7,0.6,3.7,0.2,4.8-1.2c0.6-0.8,1.1-1.8,1.1-2.9C461.5,279.9,463.1,279.3,464.7,281"/>
		<path class="st80" d="M359.2,283.7c0,0-1.6,6.1-1.8,8.3c-0.1,2.3,7,3.4,8,2.3c1-1.1,2.8-11.3,2.8-11.3"/>
		<path class="st26" d="M367,296.6c-0.3,2.3-1.3,6.7-1.3,6.7l-7.3,0.2l-0.6-1.4c0,0-2.3,1.3-4.6,1.4c-1.7,0.1-5.1-0.3-6.7-0.8
			c-5.7-1.7-9.2-4.4-9.2-5.3c0-3.8,7.5-1.7,9.1-1.5c4.5,0.6,8.3-2,9.7-4.2c1-1.6,0.7-2,1.6-1.6c0,0,0.8,0.3,1.2,1.4
			c0.7,1.7,2.2,3,4,2.9c1,0,2.1-0.3,3-1C365.8,293.4,367.3,294.2,367,296.6 M391.5,154.4c0,0-20.7,52.8-23.2,64.1
			C365.7,229.8,356,287,356,287s9.1,2.6,12.4,1.4c2.3-9.4,25.7-81.9,41-101.4C424.7,167.6,391.5,154.4,391.5,154.4"/>
		<path class="st26" d="M406.1,183.5c0,0-4.7,25.6,11.1,51.7c15.7,26,31.9,45.5,31.9,45.5s6.8-3.3,9.4-7
			c-4.8-6.6-26.3-43.8-26.3-58.4c0-14.6,5.6-49.1,5.6-49.1l-23.9-5.7L406.1,183.5L406.1,183.5z"/>
		<path class="st80" d="M524.4,150.4c0,0-27.3,1.3-41.3-2.6c-14-3.9-38-21-38-21L417,105.1c-7.2-9.1-16.4-34.8-17.8-39.4
			c-1.4-4.7-6.6-36.7-6.6-36.7l6-0.6c0,0,6.9,22.7,10.5,35.5c3.3,12,21.7,28.4,26.2,32.5l0,0c0.3,0.3,0.6,0.5,0.7,0.6
			c2.8,2.4,0.6,6.9,0.6,6.9l4.8,1.8c0,0,5.2-2.7,8.4,0.2c0.3,0.2,0.6,0.6,1.1,1.1c4.4,4.8,15.2,21.9,37.1,30.6
			c15.9,3.9,33.5,6.8,37.8,6.8C524.8,148.7,524.4,150.4,524.4,150.4"/>
		<path class="st80" d="M450.8,107.1c-0.9,1.6-6.7,5.5-11.7,3.5c-9.9-4.5-4.2-13.6-3.9-14.1c0.3,0.3,0.6,0.5,0.7,0.6
			c2.8,2.4,4.8-3.3,4.8-3.3l10,5.5c0,0-4.3,3.9-1,6.8C450,106.3,450.4,106.7,450.8,107.1"/>
		<path class="st25" d="M451.8,138.1c0,0-8.8,20.4-12.2,34.3c-24.5,5.9-40.6-5.5-47.9-12.7c-3.1-3-4.6-5.3-4.6-5.3s6.6-12,10.6-20.9
			c4-8.9,10-20.6,14.4-28.4c0.2-1.3-3.8-7.4-7.8-16.2c5.5-2.3,14.4-11.2,14.4-11.2l16.8,18.9c0,0-5.1,8.3,1.5,12.7
			c6.5,4.4,10.8,0.6,14.1-2.1c2.6,3.6,16.7,16.2,25.2,22.1l-11,18.5C465,147.8,455.3,142.2,451.8,138.1"/>
		<path class="st81" d="M447.4,68.2c-1.4-0.3-3,0.3-4,1.4c-1,1.1-1.3,2.7-0.9,4.1c-1.1-0.6-2.6,0.1-3.1,1.3
			c-0.5,1.1-0.4,2.5-0.1,3.7c0.3,1.4,0.7,2.9,2,3.7c0.9,0.6,2,0.6,3,0.5c0.7-0.1,1.5-0.4,2.1-0.8c0.7-0.5,1.2-1.2,1.7-1.9
			c1.8-2.4,3.6-4.8,5.4-7.1c0.4-0.5,0.7-1.1,0.6-1.6"/>
		<path class="st80" d="M460.7,95.6c-1.4,1.4-2.9,2.7-4.5,3.9c-2.4,1.8-4.9,2.2-7.5,0.8c-3-1.5-6.3-3.1-8.9-5.4
			c-2.9-2.5-3.3-4.9-1.7-8.4c1-2.2,1.9-4.3,2.9-6.5c2.1-4.6,4.5-9,7.3-13.2c0.6-1,1.4-2.4,2.8-1.8c4.4,1.9,8.7,4.2,12.7,6.9
			c2.8,1.9,5.7,4.1,6.8,7.3c1.2,3.2,0.5,6.8-0.3,10.1c-0.1,0.5-0.4,1.2-0.9,1.2"/>
		<path class="st81" d="M460.3,88.4c0.8-0.8,2.4,0.1,2.6,1.2c0.2,1.2-0.4,2.3-1,3.3c-0.7,1.3-2.1,2.1-3.4,2.8
			c-1.3,0.6-2.7,0.6-3-0.8c-1.2,1.8-0.7,4.1,0.5,5c1.2,0.9,3,0.8,4.1-0.2c4.2,5.4,10.9-1.4,13.7-5.1c2.2-2.9,3.5-7.3,3.5-11
			c0-2-0.7-4-2.1-5.5c1.1-2.1,0.7-4.8-0.4-6.8c-1.1-2.1-2.4-3.5-4.1-5.2c-1.1-1-4.9-2.2-6.3-1.3C462.9,62,460,62,458,61
			c-2-0.9-5.1-0.5-5.4,1.7c-2.3-2.7-7.5-1.4-8.5,2.1c-0.9,3.4,2.5,7.2,6.1,6.7c-0.3,2.4,1.1,4.8,3.2,6.2c2.1,1.3,4.6,1.7,7,1.6
			c-1.3,0.7-2.4,2.1-2.6,3.7c-0.2,1.6-0.3,2.8,1.8,3.6c0,0-2,2.8-1.1,2.9C459.3,89.5,460.3,88.4,460.3,88.4"/>
		<path class="st80" d="M388.9,11.4c0.2-0.7,1.1-0.2,1.2,0.4c0,0.1,0,0.3,0.1,0.5c0.1-1.2,0.2-2.2,0.2-2.4c0.2-0.7,1-0.3,1.2,0.3
			c0-0.5,0.1-0.8,0.1-1c0.2-0.9,1.1-0.4,1.2,0.4c0,0.2,0,0.6,0,1.3c0-0.3,0.1-0.6,0.1-0.7c0.2-0.7,1-0.4,1.1,0.2
			c0.1,0.2,0,0.6,0,1.4c0,0.7,0.1,1.6,0.1,2.3c0,0.7,0.3,3.9,1.9,4.5c2.3,0.8,1.4-3.5,3.2-4.2c0.6-0.2,0.7,3.1,0.5,4.9
			c-0.2,1.8-0.3,2.7-0.6,3.8c-0.3,1.1-1.1,2.5-1.1,3.2c0,0.7,0.5,2.5,0.5,2.5l-5.8,1.5c0,0-0.7-3.6-1.3-4.5c-1.6-2.1-2.7-4.3-3-6.9
			c-0.2-1.6-0.1-3.3,0-5C388.5,13.9,388.8,11.7,388.9,11.4"/>
		<path class="st26" d="M439.5,172.4c-24.5,5.9-40.6-5.5-47.9-12.7c25.6,19.6,42.6,10.7,45.3,10.1c0.8-6,12.5-34.2,12.5-34.2
			s1.9,2.3,2.4,2.5C451.8,138.1,443,158.5,439.5,172.4"/>
		<path class="st25" d="M392.7,192.5c0,0-0.6,6.2-0.7,10.2c-1.4,2.5-2.5,4.4-2.5,4.4S390.1,200.5,392.7,192.5"/>
	</g>
</g>
</svg>
